<?xml version="1.0" encoding="utf-8"?>
<!-- Generator: Adobe Illustrator 16.0.0, SVG Export Plug-In . SVG Version: 6.00 Build 0)  -->
<!DOCTYPE svg PUBLIC "-//W3C//DTD SVG 1.1//EN" "http://www.w3.org/Graphics/SVG/1.1/DTD/svg11.dtd">
<svg version="1.1" id="Layer_1" xmlns="http://www.w3.org/2000/svg" xmlns:xlink="http://www.w3.org/1999/xlink" x="0px" y="0px"
	 width="360px" height="756px" viewBox="0 0 360 756" enable-background="new 0 0 360 756" xml:space="preserve">
<g>
	<defs>
		<rect id="SVGID_BackWER_1_" width="360" height="756"/>
	</defs>
	<clipPath id="SVGID_BackWER_2_">
		<use xlink:href="#SVGID_BackWER_1_"  overflow="visible"/>
	</clipPath>
	<g id="BODY" clip-path="url(#SVGID_BackWER_2_)">
		<defs>
			<rect id="SVGID_BackWER_3_" width="360" height="756"/>
		</defs>
		<clipPath id="SVGID_BackWER_4_">
			<use xlink:href="#SVGID_BackWER_3_"  overflow="visible"/>
		</clipPath>
		<path clip-path="url(#SVGID_BackWER_4_)" fill="#FFFFFF" d="M89.379,23.789c0,0,38.141,125.744,89.638,125.744
			c54.755,0,84.402-125.313,84.402-125.313l32.029,14.288c0,0-4.747,48.845-3.864,93.371
			c1.684,84.674,23.441,116.165,23.441,116.165s-5.461,39.948-5.951,47.641c-0.495,7.693,0,57.074,0,60.547
			c0,3.473,0,20.341,0.243,21.587c0.247,1.24,0.746,10.425,0.991,12.656c0.25,2.23,5.712,28.531,6.453,31.757
			c0.748,3.225,8.44,70.48,8.936,75.938c0.494,5.456,5.704,56.328,6.201,62.779c0.498,6.454,1.989,44.663,1.244,63.773
			c-0.746,19.105-3.232,58.064-3.479,60.549c-0.248,2.479-1.738,15.883-2.482,17.617c-0.743,1.736-3.718,10.177-3.718,11.415
			c0,1.241,0.99,7.197,1.236,8.19c0.252,0.99,1.886,5.875,0,5.953c-0.919,0.038-4.782-0.283-4.782-0.283s-19.284,1.774-24.996,2.021
			c-5.705,0.246-45.405,4.468-57.317,3.972c-11.915-0.498-25.559-3.226-25.559-3.226v-7.944v-7.689l1.236-3.475
			c0,0-3.969-24.569-4.462-28.786c-0.498-4.217-7.44-34.993-11.909-55.34c-4.472-20.344-9.433-41.687-9.433-43.423
			s-2.977-19.106-2.977-19.106l-7.198-0.499c0,0-7.943,50.136-9.179,56.582c-1.243,6.449-9.675,35.236-10.675,37.724
			c-0.993,2.477-6.945,28.779-7.691,32.996c-0.739,4.219-3.72,22.828-3.72,24.813c0,1.989-0.745,6.453-0.495,7.198
			c0.247,0.744,1.239,2.979,1.239,2.979s-2.73,5.96-4.961,6.453c-2.238,0.495-25.069,4.465-41.194,4.465
			c-16.129,0-49.378-3.717-50.868-3.717c-1.487,0-8.44-0.493-9.432-0.748c-0.994-0.248-4.468-1.239-4.468-1.239
			s-1.734-8.192-1.241-9.183c0.493-0.994,0-5.461,0-5.461s-5.207-34.74-5.95-39.702c-0.747-4.964-2.236-57.575-1.986-65.269
			c0.243-7.692,0.746-49.87,1.736-58.806c0.993-8.933,9.429-75.938,10.425-81.646c0.99-5.704,10.671-52.854,11.662-55.58
			c0.994-2.73,8.19-27.791,8.19-29.53c0-1.737-2.978-62.283-2.978-63.772c0-1.489-1.241-19.604-1.241-21.091
			c0-1.488-4.217-14.889-4.217-16.131c0-1.239-9.489-41.437-9.489-41.437s24.47-51.193,24.542-100.525
			c0.072-50.153-4.258-111.008-4.258-111.008L89.379,23.789z"/>
		<path clip-path="url(#SVGID_BackWER_4_)" fill="none" stroke="#897F76" stroke-width="0.25" d="M89.379,23.789
			c0,0,38.141,125.744,89.638,125.744c54.755,0,84.402-125.313,84.402-125.313l32.029,14.288c0,0-4.747,48.845-3.864,93.371
			c1.684,84.674,23.441,116.165,23.441,116.165s-5.461,39.948-5.951,47.641c-0.495,7.693,0,57.074,0,60.547
			c0,3.473,0,20.341,0.243,21.587c0.247,1.24,0.746,10.425,0.991,12.656c0.25,2.23,5.712,28.531,6.453,31.757
			c0.748,3.225,8.44,70.48,8.936,75.938c0.494,5.456,5.704,56.328,6.201,62.779c0.498,6.454,1.989,44.663,1.244,63.773
			c-0.746,19.105-3.232,58.064-3.479,60.549c-0.248,2.479-1.738,15.883-2.482,17.617c-0.743,1.736-3.718,10.177-3.718,11.415
			c0,1.241,0.99,7.197,1.236,8.19c0.252,0.99,1.886,5.875,0,5.953c-0.919,0.038-4.782-0.283-4.782-0.283s-19.284,1.774-24.996,2.021
			c-5.705,0.246-45.405,4.468-57.317,3.972c-11.915-0.498-25.559-3.226-25.559-3.226v-7.944v-7.689l1.236-3.475
			c0,0-3.969-24.569-4.462-28.786c-0.498-4.217-7.44-34.993-11.909-55.34c-4.472-20.344-9.433-41.687-9.433-43.423
			s-2.977-19.106-2.977-19.106l-7.198-0.499c0,0-7.943,50.136-9.179,56.582c-1.243,6.449-9.675,35.236-10.675,37.724
			c-0.993,2.477-6.945,28.779-7.691,32.996c-0.739,4.219-3.72,22.828-3.72,24.813c0,1.989-0.745,6.453-0.495,7.198
			c0.247,0.744,1.239,2.979,1.239,2.979s-2.73,5.96-4.961,6.453c-2.238,0.495-25.069,4.465-41.194,4.465
			c-16.129,0-49.378-3.717-50.868-3.717c-1.487,0-8.44-0.493-9.432-0.748c-0.994-0.248-4.468-1.239-4.468-1.239
			s-1.734-8.192-1.241-9.183c0.493-0.994,0-5.461,0-5.461s-5.207-34.74-5.95-39.702c-0.747-4.964-2.236-57.575-1.986-65.269
			c0.243-7.692,0.746-49.87,1.736-58.806c0.993-8.933,9.429-75.938,10.425-81.646c0.99-5.704,10.671-52.854,11.662-55.58
			c0.994-2.73,8.19-27.791,8.19-29.53c0-1.737-2.978-62.283-2.978-63.772c0-1.489-1.241-19.604-1.241-21.091
			c0-1.488-4.217-14.889-4.217-16.131c0-1.239-9.489-41.437-9.489-41.437s24.47-51.193,24.542-100.525
			c0.072-50.153-4.258-111.008-4.258-111.008L89.379,23.789z"/>
	</g>
	<g clip-path="url(#SVGID_BackWER_2_)">
		<defs>
			<rect id="SVGID_BackWER_5_" width="360" height="756"/>
		</defs>
		<clipPath id="SVGID_BackWER_6_">
			<use xlink:href="#SVGID_BackWER_5_"  overflow="visible"/>
		</clipPath>
		<g opacity="0.13" clip-path="url(#SVGID_BackWER_6_)">
			<g>
				<defs>
					<rect id="SVGID_BackWER_7_" x="130.382" y="411.194" width="40.24" height="68.018"/>
				</defs>
				<clipPath id="SVGID_BackWER_8_">
					<use xlink:href="#SVGID_BackWER_7_"  overflow="visible"/>
				</clipPath>
				<g clip-path="url(#SVGID_BackWER_8_)">
					<defs>
						<path id="SVGID_BackWER_9_" d="M130.382,411.193c0,0,19.81,27.617,18.007,35.419c-1.801,7.802-12.607,31.816-12.607,31.816
							s12.613,2.399,17.411-1.2c4.805-3.603,18.01-16.81,17.409-25.212c-0.597-8.404-3.002-19.814-8.401-25.216
							C156.794,421.396,130.382,411.193,130.382,411.193"/>
					</defs>
					<clipPath id="SVGID_BackWER_10_">
						<use xlink:href="#SVGID_BackWER_9_"  overflow="visible"/>
					</clipPath>
					
						<radialGradient id="SVGID_BackWER_11_" cx="0" cy="756" r="1" gradientTransform="matrix(131.9319 0 0 -131.9319 68.25 100182.5547)" gradientUnits="userSpaceOnUse">
						<stop  offset="0" style="stop-color:#FFFFFF"/>
						<stop  offset="1" style="stop-color:#897F76"/>
					</radialGradient>
					<rect x="130.382" y="411.193" clip-path="url(#SVGID_BackWER_10_)" fill="url(#SVGID_BackWER_11_)" width="40.821" height="69.635"/>
				</g>
			</g>
		</g>
		<g opacity="0.13" clip-path="url(#SVGID_BackWER_6_)">
			<g>
				<defs>
					<rect id="SVGID_BackWER_12_" x="103.398" y="559.474" width="145.25" height="178.313"/>
				</defs>
				<clipPath id="SVGID_BackWER_13_">
					<use xlink:href="#SVGID_BackWER_12_"  overflow="visible"/>
				</clipPath>
				<g clip-path="url(#SVGID_BackWER_13_)">
					<defs>
						<path id="SVGID_BackWER_14_" d="M103.449,737.786c0,0-0.68-18.029,2.921-21.03c3.603-3,7.805-15.606,11.407-24.012
							c3.598-8.402,6.599-19.207-0.602-30.616c-7.202-11.406-12.008-36.617-12.008-41.42s16.808-28.22,19.81-34.219
							c3.002-6.005,16.815-15.61,19.817-19.208c3-3.604,21.005-7.807,22.806-7.807c1.802,0,36.023,5.401,39.023,5.401
							c3.001,0,24.613,13.807,27.015,13.807c2.403,0,15.01,18.013,15.01,21.014c0,3.002-6,5.406-9.005,7.205
							c-3.004,1.801,1.203,18.005,0,21.608c-1.203,3.603-8.406,22.81-9.61,29.416c-1.195,6.606-4.795,30.621,1.204,42.625
							c6.003,12.009,12.604,21.015,12.604,24.616c0,3.6-0.596,9.603-0.596,9.603l-31.198-3.838v-7.944l1.236-11.164l-1.858-7.67
							l-0.598-15.011l-26.324-123.975l-7.198-0.499c0,0-9.705,57.235-10.902,62.04c-1.199,4.807-13.381,47.603-15.007,56.431
							c-1.635,8.831-4.206,27.015-4.808,28.815c-0.599,1.801-1.043,12.027-1.043,12.027l1.24,2.979c0,0-2.694,6.722-13.499,7.925
							C122.479,736.083,103.449,737.786,103.449,737.786"/>
					</defs>
					<clipPath id="SVGID_BackWER_15_">
						<use xlink:href="#SVGID_BackWER_14_"  overflow="visible"/>
					</clipPath>
					
						<radialGradient id="SVGID_BackWER_16_" cx="0" cy="756" r="1" gradientTransform="matrix(237.1493 0 0 -237.1493 187.75 180021.125)" gradientUnits="userSpaceOnUse">
						<stop  offset="0" style="stop-color:#FFFFFF"/>
						<stop  offset="1" style="stop-color:#897F76"/>
					</radialGradient>
					<rect x="102.769" y="559.475" clip-path="url(#SVGID_BackWER_15_)" fill="url(#SVGID_BackWER_16_)" width="145.878" height="178.312"/>
				</g>
			</g>
		</g>
		<g opacity="0.13" clip-path="url(#SVGID_BackWER_6_)">
			<g>
				<defs>
					<rect id="SVGID_BackWER_17_" x="26.529" y="192.731" width="74.078" height="541.431"/>
				</defs>
				<clipPath id="SVGID_BackWER_18_">
					<use xlink:href="#SVGID_BackWER_17_"  overflow="visible"/>
				</clipPath>
				<g clip-path="url(#SVGID_BackWER_18_)">
					<defs>
						<path id="SVGID_BackWER_19_" d="M96.767,383.576c0,0,6.002,43.221,2.999,57.628c-2.999,14.413-16.207,67.236-22.212,74.44
							c-6.003,7.204-24.012,19.809-26.412,33.02c-2.4,13.208-9.602,46.825-1.799,60.631c7.802,13.809,27.614,42.628,27.015,49.229
							c-0.601,6.6-17.411,30.021-19.814,34.819c-2.401,4.804-6.607,18.612-6.607,22.813c0,4.198-0.175,18.007-0.175,18.007
							l-13.901-1.987l0.872-5.214c0,0-6.001-29.413-6.001-31.814c0-2.406-4.203-83.445-4.203-86.447
							c0-3.004,2.331-97.542,18.607-168.096c0.982-4.257,5.372-24.074,5.372-24.074c3.034-4.74,16.238-11.942,19.244-13.744
							c3.003-1.803,6.602-8.404,4.199-10.808c-2.4-2.401-8.401-9.605-8.401-12.606c0-3.003-6.605-20.408-6.605-23.41
							c0-3.007,6.597-21.615,7.2-28.82c0.601-7.203-4.203-22.212-5.399-25.813c-1.202-3.603-10.797-25.81-10.2-28.213
							c0.594-2.405-5.266-25.006-5.266-25.006s5.837-14.929,8.693-23.181c5.796-16.742,8.049-32.196,8.049-32.197
							c0,0,14.329,66.574,16.73,73.176c2.402,6.603,19.814,25.814,19.814,29.416c0,3.603,0.602,46.826-1.8,52.229
							c-2.404,5.402-6.006,21.015-6.006,23.415C90.76,373.365,96.767,383.576,96.767,383.576"/>
					</defs>
					<clipPath id="SVGID_BackWER_20_">
						<use xlink:href="#SVGID_BackWER_19_"  overflow="visible"/>
					</clipPath>
					
						<radialGradient id="SVGID_BackWER_21_" cx="0" cy="756" r="1" gradientTransform="matrix(220.421 0 0 -220.421 43.875 167032.4219)" gradientUnits="userSpaceOnUse">
						<stop  offset="0" style="stop-color:#FFFFFF"/>
						<stop  offset="1" style="stop-color:#897F76"/>
					</radialGradient>
					<rect x="26.529" y="192.731" clip-path="url(#SVGID_BackWER_20_)" fill="url(#SVGID_BackWER_21_)" width="76.24" height="541.431"/>
				</g>
			</g>
		</g>
		<g opacity="0.13" clip-path="url(#SVGID_BackWER_6_)">
			<g>
				<defs>
					<rect id="SVGID_BackWER_22_" x="231.465" y="120.288" width="101.899" height="610.88"/>
				</defs>
				<clipPath id="SVGID_BackWER_23_">
					<use xlink:href="#SVGID_BackWER_22_"  overflow="visible"/>
				</clipPath>
				<g clip-path="url(#SVGID_BackWER_23_)">
					<defs>
						<path id="SVGID_BackWER_24_" d="M287.722,120.288c0,0-22.86,86.188-23.459,95.193c-0.603,9.006-9.005,51.627-9.605,56.431
							c-0.6,4.805-6.01,18.613-4.805,27.617c1.199,9.003,20.409,22.811,21.009,33.618c0.604,10.806-2.996,27.615-4.199,29.415
							c-1.201,1.8-12.604,30.016-12.604,32.415c0,2.404-14.413,36.62-19.213,36.62c-4.803,0-4.2,18.617,0,31.224
							c4.2,12.604,30.616,43.221,31.218,48.624c0.6,5.407,10.207,15.011,9.006,17.412c-1.205,2.4-8.406,10.198-13.808,10.803
							c-5.402,0.603-19.819,6.602-22.216,5.401c-2.398-1.199-0.599,9.605,4.202,9.605c4.802,0,26.412-2.402,28.815-3.601
							c2.404-1.197,18.615-10.205,20.413-7.204c1.804,3-3.006,22.813-1.203,28.218c1.804,5.403-3.006,37.221-5.404,40.222
							c-2.397,3-16.808,30.019-15.007,36.62c1.805,6.601,5.408,37.818,11.411,46.226c5.999,8.406,1.198,15.005,1.198,17.408
							c0,2.402-5.403,18.613-5.403,18.613l46.634-2.721c0,0-0.779-8.033-1.008-11.089c-0.229-3.055,2.403-13.809,3.602-16.812
							c1.2-2.999,5.4-70.843,6.003-85.246c0.599-14.404-2.999-65.429-6.003-73.838c-3.002-8.407-13.808-26.419-15.609-30.618
							c-1.8-4.201-16.21-43.826-16.21-48.028c0-4.205,3.602-23.415,6.005-19.211c2.401,4.203,8.4-1.2,6.599-6.602
							c-1.8-5.407-6.599-14.412-10.202-19.213c-3.604-4.802-7.205-7.203-7.205-7.203s9.003-13.811,10.206-17.41
							c1.2-3.602,0.003-28.816-1.798-32.416c-1.804-3.604-4.207-34.222-4.207-39.024c0-4.801,1.8-30.017,3.004-34.818
							c1.203-4.802,6.605-23.412,9.606-28.215c3.002-4.803,4.708-8.986,4.708-8.986s-9.659-20.283-18.03-55.378
							C285.084,156.286,287.722,120.288,287.722,120.288"/>
					</defs>
					<clipPath id="SVGID_BackWER_25_">
						<use xlink:href="#SVGID_BackWER_24_"  overflow="visible"/>
					</clipPath>
					
						<radialGradient id="SVGID_BackWER_26_" cx="0" cy="756" r="1" gradientTransform="matrix(322.4193 0 0 -322.4193 312 244135.0156)" gradientUnits="userSpaceOnUse">
						<stop  offset="0" style="stop-color:#FFFFFF"/>
						<stop  offset="1" style="stop-color:#897F76"/>
					</radialGradient>
					<rect x="230.042" y="120.288" clip-path="url(#SVGID_BackWER_25_)" fill="url(#SVGID_BackWER_26_)" width="103.854" height="610.88"/>
				</g>
			</g>
		</g>
		<g opacity="0.35" clip-path="url(#SVGID_BackWER_6_)">
			<g>
				<defs>
					<rect id="SVGID_BackWER_27_" x="98.051" y="520.23" width="161" height="252"/>
				</defs>
				<clipPath id="SVGID_BackWER_28_">
					<use xlink:href="#SVGID_BackWER_27_"  overflow="visible"/>
				</clipPath>
				<g clip-path="url(#SVGID_BackWER_28_)">
					<defs>
						<rect id="SVGID_BackWER_29_" x="98.051" y="520.23" width="161" height="252"/>
					</defs>
					<clipPath id="SVGID_BackWER_30_">
						<use xlink:href="#SVGID_BackWER_29_"  overflow="visible"/>
					</clipPath>
					<g clip-path="url(#SVGID_BackWER_30_)">
						
							<image overflow="visible" width="161" height="252" xlink:href="/content/images/8D5C356E.png"  transform="matrix(1 0 0 1 98.0508 520.2305)">
						</image>
					</g>
				</g>
			</g>
		</g>
		
			<path clip-path="url(#SVGID_BackWER_6_)" fill="none" stroke="#897F76" stroke-width="0.25" stroke-miterlimit="10" stroke-dasharray="0.5,0.5" d="
			M213.455,676.045l-23.161-112.981c0,0-3.389-4.52-7.344-5.649c-3.954-1.13-12.428,1.13-12.428,1.13s-5.649,39.544-7.343,49.712
			c-1.695,10.169-6.215,20.901-10.169,34.46c-3.954,13.558-15.818,70.613-17.512,79.087c-1.132,5.662-0.917,7.94-0.372,12.749
			c2.722-0.446,6.782-0.854,7.761-1.636s4.53-5.573,3.997-6.184c-0.828-0.947-1.411-2.994-1.293-5.01
			c0.119-2.046,2.531-20.626,3.297-24.982c0.77-4.355,6.915-31.509,7.941-34.066c1.031-2.563,9.734-32.282,11.017-38.941
			c1.278-6.657,9.479-58.414,9.479-58.414l7.431,0.516c0,0,3.074,17.933,3.074,19.724c0,1.793,5.119,23.826,9.735,44.83
			c4.612,21.002,11.415,53.214,11.929,57.57c0.513,4.354,3.789,23.865,3.789,23.865l-1.313,3.742c0,0-0.025,12.012,0.146,15.079
			c0.073,1.311,4.374,1.171,9.032,1.894c0.333-8.202,0.78-16.283,0.78-18.644C221.929,710.505,213.455,676.045,213.455,676.045z"/>
	</g>
	<g id="NECK_AND_ARM_TRIM" clip-path="url(#SVGID_BackWER_2_)">
		<defs>
			<rect id="SVGID_BackWER_31_" width="360" height="756"/>
		</defs>
		<clipPath id="SVGID_BackWER_32_">
			<use xlink:href="#SVGID_BackWER_31_"  overflow="visible"/>
		</clipPath>
		<path clip-path="url(#SVGID_BackWER_32_)" fill="#FFFFFF" d="M83.723,25.453c0,0,37.426,129.846,93.95,129.846
			c64.156,0,91.655-128.32,91.655-128.32s-4.582-6.364-7.385-3.054c-2.8,3.308-29.786,123.227-83,123.227
			c-49.904,0-84.273-121.191-87.587-123.992C88.049,20.359,83.723,25.453,83.723,25.453"/>
		
			<path clip-path="url(#SVGID_BackWER_32_)" fill="none" stroke="#897F76" stroke-width="0.5" stroke-miterlimit="10" stroke-dasharray="1,0.75" d="
			M83.723,25.453c0,0,37.426,129.846,93.95,129.846c64.156,0,91.655-128.32,91.655-128.32s-4.582-6.364-7.385-3.054
			c-2.8,3.308-29.786,123.227-83,123.227c-49.904,0-84.273-121.191-87.587-123.992C88.049,20.359,83.723,25.453,83.723,25.453z"/>
		<path clip-path="url(#SVGID_BackWER_32_)" fill="#FFFFFF" d="M64.096,31.723c0,0,5.968,63.883,4.258,108.95
			c-2.625,69.091-24.656,110.278-24.656,110.278s-3.998,0.667-5.998-1.666c-1.999-2.332-1.999-4.33-1.999-4.33
			s22.988-31.317,25.322-104.948c2.573-81.297-5.788-102.906-3.175-107.379C58.828,30.952,64.096,31.723,64.096,31.723"/>
		
			<path clip-path="url(#SVGID_BackWER_32_)" fill="none" stroke="#897F76" stroke-width="0.5" stroke-miterlimit="10" stroke-dasharray="1,0.75" d="
			M64.096,31.723c0,0,5.968,63.883,4.258,108.95c-2.625,69.091-24.656,110.278-24.656,110.278s-3.998,0.667-5.998-1.666
			c-1.999-2.332-1.999-4.33-1.999-4.33s22.988-31.317,25.322-104.948c2.573-81.297-5.788-102.906-3.175-107.379
			C58.828,30.952,64.096,31.723,64.096,31.723z"/>
		<path clip-path="url(#SVGID_BackWER_32_)" fill="#FFFFFF" d="M292.174,36.994c0,0-5.97,62.319-4.26,106.286
			c2.623,67.401,24.655,107.583,24.655,107.583s3.998,0.649,5.995-1.627c2.001-2.274,2.001-4.224,2.001-4.224
			s-22.989-30.553-25.321-102.384c-2.575-79.306,5.787-100.388,3.174-104.75C297.437,36.242,292.174,36.994,292.174,36.994"/>
		
			<path clip-path="url(#SVGID_BackWER_32_)" fill="none" stroke="#897F76" stroke-width="0.5" stroke-miterlimit="10" stroke-dasharray="1,0.75" d="
			M292.174,36.994c0,0-5.97,62.319-4.26,106.286c2.623,67.401,24.655,107.583,24.655,107.583s3.998,0.649,5.995-1.627
			c2.001-2.274,2.001-4.224,2.001-4.224s-22.989-30.553-25.321-102.384c-2.575-79.306,5.787-100.388,3.174-104.75
			C297.437,36.242,292.174,36.994,292.174,36.994z"/>
	</g>
	<g ID="PATTERN_4_B" clip-path="url(#SVGID_BackWER_2_)">
		<defs>
			<rect id="SVGID_BackWER_33_" width="360" height="756"/>
		</defs>
		<clipPath id="SVGID_BackWER_34_">
			<use xlink:href="#SVGID_BackWER_33_"  overflow="visible"/>
		</clipPath>
		<path clip-path="url(#SVGID_BackWER_34_)" fill="#FFFFFF" d="M31.829,712.602v5.721c38.244,5.49,77.904,5.49,116.148,0v-5.721
			C109.732,718.092,70.073,718.092,31.829,712.602"/>
		<path clip-path="url(#SVGID_BackWER_34_)" fill="#FFFFFF" d="M31.829,725.52v5.549c38.244,5.49,77.904,5.49,116.148,0v-5.549
			C109.732,731.01,70.073,731.01,31.829,725.52"/>
		<path clip-path="url(#SVGID_BackWER_34_)" fill="#FFFFFF" d="M212.134,711.601v5.722c37.861,5.489,77.124,5.489,114.984,0v-5.722
			C289.258,717.091,249.995,717.091,212.134,711.601"/>
		<path clip-path="url(#SVGID_BackWER_34_)" fill="#FFFFFF" d="M212.134,724.519v5.549c37.861,5.49,77.124,5.49,114.984,0v-5.549
			C289.258,730.009,249.995,730.009,212.134,724.519"/>
	</g>
	<g ID="PATTERN_4_A" clip-path="url(#SVGID_BackWER_2_)">
		<defs>
			<rect id="SVGID_BackWER_35_" width="360" height="756"/>
		</defs>
		<clipPath id="SVGID_BackWER_36_">
			<use xlink:href="#SVGID_BackWER_35_"  overflow="visible"/>
		</clipPath>
		<path clip-path="url(#SVGID_BackWER_36_)" fill="#BF2A43" d="M31.829,718.322v7.197c38.244,5.491,77.904,5.491,116.148,0v-7.197
			C109.732,723.813,70.073,723.813,31.829,718.322"/>
		<path clip-path="url(#SVGID_BackWER_36_)" fill="#BF2A43" d="M212.134,717.322v7.196c37.861,5.491,77.124,5.491,114.984,0v-7.196
			C289.258,722.812,249.995,722.812,212.134,717.322"/>
		<path clip-path="url(#SVGID_BackWER_36_)" fill="#BF2A43" d="M31.829,731.068v6.164c38.244,5.491,77.904,5.491,116.148,0v-6.164
			C109.732,736.559,70.073,736.559,31.829,731.068"/>
		<path clip-path="url(#SVGID_BackWER_36_)" fill="#BF2A43" d="M31.829,706.422v6.18c38.244,5.49,77.904,5.49,116.148,0v-6.18
			C109.732,711.912,70.073,711.912,31.829,706.422"/>
		<path clip-path="url(#SVGID_BackWER_36_)" fill="#BF2A43" d="M212.134,730.067v6.165c37.861,5.49,77.124,5.49,114.984,0v-6.165
			C289.258,735.558,249.995,735.558,212.134,730.067"/>
		<path clip-path="url(#SVGID_BackWER_36_)" fill="#BF2A43" d="M212.134,705.421v6.18c37.861,5.49,77.124,5.49,114.984,0v-6.18
			C289.258,710.911,249.995,710.911,212.134,705.421"/>
	</g>
	<g ID="PATTERN_2_B" clip-path="url(#SVGID_BackWER_2_)">
		<defs>
			<rect id="SVGID_BackWER_37_" width="360" height="756"/>
		</defs>
		<clipPath id="SVGID_BackWER_38_">
			<use xlink:href="#SVGID_BackWER_37_"  overflow="visible"/>
		</clipPath>
		<path clip-path="url(#SVGID_BackWER_38_)" fill="#BF2A43" d="M31.791,715.923v11.495c38.258,5.49,77.933,5.49,116.191,0v-11.495
			C109.724,721.413,70.049,721.413,31.791,715.923"/>
		<path clip-path="url(#SVGID_BackWER_38_)" fill="#BF2A43" d="M212.727,714.922v11.495c37.625,5.49,76.644,5.49,114.269,0v-11.495
			C289.37,720.412,250.352,720.412,212.727,714.922"/>
	</g>
	<g ID="PATTERN_2_A" clip-path="url(#SVGID_BackWER_2_)">
		<defs>
			<rect id="SVGID_BackWER_39_" width="360" height="756"/>
		</defs>
		<clipPath id="SVGID_BackWER_40_">
			<use xlink:href="#SVGID_BackWER_39_"  overflow="visible"/>
		</clipPath>
		<path clip-path="url(#SVGID_BackWER_40_)" fill="#FDBB2D" d="M31.791,727.418v9.852c38.258,5.491,77.933,5.491,116.191,0v-9.852
			C109.724,732.908,70.049,732.908,31.791,727.418"/>
		<path clip-path="url(#SVGID_BackWER_40_)" fill="#FDBB2D" d="M212.727,726.417v9.853c37.625,5.49,76.644,5.49,114.269,0v-9.853
			C289.37,731.907,250.352,731.907,212.727,726.417"/>
		<path clip-path="url(#SVGID_BackWER_40_)" fill="#FDBB2D" d="M31.791,706.459v9.464c38.258,5.49,77.933,5.49,116.191,0v-9.464
			C109.724,711.949,70.049,711.949,31.791,706.459"/>
		<path clip-path="url(#SVGID_BackWER_40_)" fill="#FDBB2D" d="M212.727,705.458v9.464c37.625,5.49,76.644,5.49,114.269,0v-9.464
			C289.37,710.948,250.352,710.948,212.727,705.458"/>
	</g>
	<g id="PATTERN_1_A" clip-path="url(#SVGID_BackWER_2_)">
		<defs>
			<rect id="SVGID_BackWER_41_" width="360" height="756"/>
		</defs>
		<clipPath id="SVGID_BackWER_42_">
			<use xlink:href="#SVGID_BackWER_41_"  overflow="visible"/>
		</clipPath>
		<path clip-path="url(#SVGID_BackWER_42_)" fill="#897F76" d="M147.977,737.232c-38.244,5.491-77.904,5.491-116.148,0v-30.811
			c38.244,5.49,77.904,5.49,116.148,0V737.232z"/>
		<path clip-path="url(#SVGID_BackWER_42_)" fill="#897F76" d="M327.118,737.232c-37.675,5.491-76.744,5.491-114.419,0v-30.811
			c37.675,5.49,76.744,5.49,114.419,0V737.232z"/>
	</g>
	
	
	<g id="BOX_LEG_LEFT_HIGH">
    		<rect x="59.401" y="496.627" clip-path="url(#SVGID_BackWER_2_)" fill="none" stroke="#000000" stroke-dasharray="5,2" width="85.277" height="91.158"/>

  </g>
	<g id="BOX_LEG_RIGHT_HIGH">
    		<rect x="216.763" y="496.627" clip-path="url(#SVGID_BackWER_2_)" fill="none" stroke="#000000" stroke-dasharray="5,2" width="85.277" height="91.158"/>

  </g>
	<g id="BOX_LEG_LEFT_LOW">
    		<rect x="39.272" y="606.152" clip-path="url(#SVGID_BackWER_2_)" fill="none" stroke="#000000" stroke-dasharray="5,2" width="85.277" height="91.157"/>

  </g>
	
  <g id="BOX_LEG_RIGHT_LOW">
    		<rect x="236.892" y="606.152" clip-path="url(#SVGID_BackWER_2_)" fill="none" stroke="#000000" stroke-dasharray="5,2" width="85.277" height="91.157"/>

  </g>
 
	<g id="BOX_BODY">
    		<rect x="151.916" y="174.478" clip-path="url(#SVGID_BackWER_2_)" fill="none" stroke="#000000" stroke-width="0.882" stroke-dasharray="4.411,1.764" width="57.608" height="300.785"/>
    		<rect x="75.882" y="253.29" clip-path="url(#SVGID_BackWER_2_)" fill="none" stroke="#000000" stroke-dasharray="5,2" width="209.678" height="133.063"/>
		<rect x="147.387" y="166.81" clip-path="url(#SVGID_BackWER_2_)" fill="none" stroke="#000000" stroke-width="0.987" stroke-dasharray="4.937,1.975" width="66.667" height="55.701"/>

  </g>
   <g id="CUSTOM"></g>
</g>
</svg>
