<?xml version="1.0" encoding="utf-8"?>
<!-- Generator: Adobe Illustrator 16.0.0, SVG Export Plug-In . SVG Version: 6.00 Build 0)  -->
<!DOCTYPE svg PUBLIC "-//W3C//DTD SVG 1.1//EN" "http://www.w3.org/Graphics/SVG/1.1/DTD/svg11.dtd">
<svg version="1.1" id="Layer_1" xmlns="http://www.w3.org/2000/svg" xmlns:xlink="http://www.w3.org/1999/xlink" x="0px" y="0px"
	 width="360px" height="756px" viewBox="0 0 360 756" enable-background="new 0 0 360 756" xml:space="preserve">
<g>
	<defs>
		<rect id="SVGID_1_" width="360" height="756"/>
	</defs>
	<clipPath id="SVGID_2_">
		<use xlink:href="#SVGID_1_"  overflow="visible"/>
	</clipPath>
	<g id="BODY" clip-path="url(#SVGID_2_)">
		<defs>
			<rect id="SVGID_3_" width="360" height="756"/>
		</defs>
		<clipPath id="SVGID_4_">
			<use xlink:href="#SVGID_3_"  overflow="visible"/>
		</clipPath>
    
      <path clip-path="url(#SVGID_4_)" fill="#FFFFFF" d="M331.103,567.993c-2.464-12.357-9.877-50.032-11.729-58.059
			c-1.851-8.034-11.115-40.145-11.115-44.47c0-4.329-19.262-81.397-10.508-157.5c1.016-8.788,6.795-45.7,7.413-51.883
			c0.622-6.173,1.854-20.383,1.854-20.383S276.853,203.708,269.999,144c-4.839-42.173-1.409-115.512-1.409-115.512l-15.919-6.485
			c0,0-20.646,134.236-73.438,134.236C132.382,156.239,97.667,22,97.667,22l-16.085,9.269c0,0,3.676,69.857-6.866,133.072
			c-6.83,40.928-26.486,73.83-26.486,73.83s4.233,28.785,5.563,37.673c12.853,86.252,6.788,121.677,6.175,133.419
			c-0.622,11.724-4.943,46.314-9.886,62.99c-4.942,16.679-20.383,64.848-21.614,81.528c-1.24,16.675-3.09,45.702-1.852,66.086
			c1.232,20.381,8.027,52.5,9.257,61.766c1.24,9.268,4.945,22.854,4.333,27.798c-0.622,4.935-0.809,14.949-0.809,14.949
			s5.822,15.605,41.705,15.605c2.497,0,5.122-0.094,7.894-0.294c42.617-3.082,50.023-6.174,50.023-6.174l0.337-20.912
			c0,0,5.746-28.175,11.299-39.913c5.565-11.734,17.944-43.96,20.412-56.314c2.474-12.358,5.306-42.907,5.306-42.907
			s3.166-0.65,5.629-0.65c2.471,0,5.283,2.461,5.283,2.461s1.146,19.268,4.849,35.318c3.713,16.059,14.21,40.767,16.069,49.419
			c1.85,8.646,9.265,33.353,9.877,36.437c0.619,3.088,1.85,9.264,1.85,9.264l0.199,14.851c0,0,10.309,11.097,15.86,13.56
			c4.068,1.815,22.717,2.962,37.503,2.962c5.403,0,10.289-0.154,13.762-0.481c12.975-1.24,27.177-2.474,29.027-4.943
			c1.862-2.475,7.415-11.737,7.415-11.737s0-22.235,0.612-25.946c0.628-3.703,7.413-49.402,8.654-56.196
			C334.193,630.986,333.572,580.342,331.103,567.993"/>

		<path clip-path="url(#SVGID_4_)" fill="none" stroke="#897F76" stroke-width="0.25" d="M331.103,567.993
			c-2.464-12.357-9.877-50.032-11.729-58.059c-1.851-8.034-11.115-40.145-11.115-44.47c0-4.329-19.262-81.397-10.508-157.5
			c1.016-8.788,6.795-45.7,7.413-51.883c0.622-6.173,1.854-20.383,1.854-20.383S276.853,203.708,269.999,144
			c-4.839-42.173-1.409-115.512-1.409-115.512l-15.919-6.485c0,0-20.646,134.236-73.438,134.236
			C132.382,156.239,97.667,22,97.667,22l-16.085,9.269c0,0,3.676,69.857-6.866,133.072c-6.83,40.928-26.486,73.83-26.486,73.83
			s4.233,28.785,5.563,37.673c12.853,86.252,6.788,121.677,6.175,133.419c-0.622,11.724-4.943,46.314-9.886,62.99
			c-4.942,16.679-20.383,64.848-21.614,81.528c-1.24,16.675-3.09,45.702-1.852,66.086c1.232,20.381,8.027,52.5,9.257,61.766
			c1.24,9.268,4.945,22.854,4.333,27.798c-0.622,4.935-0.809,14.949-0.809,14.949s5.822,15.605,41.705,15.605
			c2.497,0,5.122-0.094,7.894-0.294c42.617-3.082,50.023-6.174,50.023-6.174l0.337-20.912c0,0,5.746-28.175,11.299-39.913
			c5.565-11.734,17.944-43.96,20.412-56.314c2.474-12.358,5.306-42.907,5.306-42.907s3.166-0.65,5.629-0.65
			c2.471,0,5.283,2.461,5.283,2.461s1.146,19.268,4.849,35.318c3.713,16.059,14.21,40.767,16.069,49.419
			c1.85,8.646,9.265,33.353,9.877,36.437c0.619,3.088,1.85,9.264,1.85,9.264l0.199,14.851c0,0,10.309,11.097,15.86,13.56
			c4.068,1.815,22.717,2.962,37.503,2.962c5.403,0,10.289-0.154,13.762-0.481c12.975-1.24,27.177-2.474,29.027-4.943
			c1.862-2.475,7.415-11.737,7.415-11.737s0-22.235,0.612-25.946c0.628-3.703,7.413-49.402,8.654-56.196
			C334.193,630.986,333.572,580.342,331.103,567.993z"/>
	</g>      
	<g clip-path="url(#SVGID_2_)">
		<defs>
			<rect id="SVGID_5_" width="360" height="756"/>
		</defs>
		<clipPath id="SVGID_6_">
			<use xlink:href="#SVGID_5_"  overflow="visible"/>
		</clipPath>
		<g clip-path="url(#SVGID_6_)">
			<g>
				<defs>
					<rect id="SVGID_7_" x="94.428" y="533.607" width="167" height="237"/>
				</defs>
				<clipPath id="SVGID_8_">
					<use xlink:href="#SVGID_7_"  overflow="visible"/>
				</clipPath>
				<g opacity="0.35" clip-path="url(#SVGID_8_)">
					<g>
						<defs>
							<rect id="SVGID_9_" x="94.428" y="533.607" width="167" height="237"/>
						</defs>
						<clipPath id="SVGID_10_">
							<use xlink:href="#SVGID_9_"  overflow="visible"/>
						</clipPath>
						<g clip-path="url(#SVGID_10_)">
							<defs>
								<rect id="SVGID_11_" x="94.428" y="533.607" width="167" height="237"/>
							</defs>
							<clipPath id="SVGID_12_">
								<use xlink:href="#SVGID_11_"  overflow="visible"/>
							</clipPath>
							<g clip-path="url(#SVGID_12_)">
								
									<image overflow="visible" width="167" height="237" xlink:href="/content/images/CDFF1DFA.png"  transform="matrix(1 0 0 1 94.4277 533.6074)">
								</image>
							</g>
						</g>
					</g>
				</g>
				
					<path clip-path="url(#SVGID_8_)" fill="none" stroke="#897F76" stroke-width="0.25" stroke-miterlimit="10" stroke-dasharray="0.5,0.5" d="
					M218.634,675.974c-2.195-12.347-7.643-28.309-10.935-36.814c-3.293-8.505-9.415-33.491-11.335-41.723
					c-1.921-8.231-4.391-29.907-4.391-29.907s-1.921,0-11.523,0.274c-9.604,0.273-12.896-0.274-12.896-0.274
					s-1.889,19.65-3.959,31.9c-2.308,13.647-12.09,47.822-17.717,59.193c-5.942,12.009-13.87,43.147-13.444,43.077l-3.032,17.9
					l-0.412,16.188c5.966-1.016,10.029-2.271,10.029-2.271l0.372-18.79c0,0,6.061-30.918,11.513-42.438
					c5.461-11.521,18.191-44.256,20.616-56.384c2.426-12.129,4.853-42.437,4.853-42.437s3.643-0.61,6.061-0.61
					c2.425,0,4.852,2.422,4.852,2.422s1.207,20.617,4.842,36.375c3.646,15.767,13.948,40.015,15.775,48.51
					c1.816,8.484,9.093,32.739,9.693,35.762c0.608,3.036,1.816,9.098,1.816,9.098l0.671,15.26c0,0,2.772,3.437,6.614,6.317
					l-0.956-9.624l-1.094-11.846C224.647,705.134,220.829,688.321,218.634,675.974z"/>
			</g>
		</g>
		<g opacity="0.4" clip-path="url(#SVGID_6_)">
			<g>
				<defs>
					<rect id="SVGID_13_" x="27.033" y="130.889" width="288.514" height="606.537"/>
				</defs>
				<clipPath id="SVGID_14_">
					<use xlink:href="#SVGID_13_"  overflow="visible"/>
				</clipPath>
				<g opacity="0.14" clip-path="url(#SVGID_14_)">
					<g>
						<defs>
							<rect id="SVGID_15_" x="27.033" y="190.28" width="65.842" height="544.448"/>
						</defs>
						<clipPath id="SVGID_16_">
							<use xlink:href="#SVGID_15_"  overflow="visible"/>
						</clipPath>
						<g clip-path="url(#SVGID_16_)">
							<defs>
								<path id="SVGID_17_" d="M70.465,190.28c4.363,3.813,22.429,57.087,21.337,78.333c-1.092,21.246-3.814,46.304-3.27,66.462
									c0.548,20.157,2.18,41.951-1.633,41.951c-3.812,0-11.986,6.535-10.352,18.52c1.634,11.985,19.614,8.168,15.798,23.424
									c-3.813,15.256-11.985,25.604-13.072,34.32c-1.092,8.719,5.448,26.697,0,30.51c-5.447,3.812-12.528,11.986-12.528,15.798
									c0,3.813-4.364,11.441-7.083,13.077c-2.726,1.63-4.36,21.242-4.36,26.146c0,4.902-7.625,19.615-10.351,20.161
									c-2.722,0.542-4.902,22.337-3.814,33.773c1.092,11.44,5.447,43.586,4.36,52.3c-1.09,8.717,3.815,30.508,4.357,33.777
									c0.545,3.271,2.727,8.168,2.727,8.168s8.714,9.265,5.443,13.076c-3.266,3.814-7.625,8.173-7.625,13.621
									s1.637,21.03,1.637,21.03s-4.948-2.154-8.208-5.069c-3.261-2.918-4.239-5.257-4.239-5.257s0.053-2.059,0.183-4.934
									c0.044-1.002,0.152-2.147,0.172-3.292c0.06-4.244,1.036-8.284,0.264-11.879c-1.632-7.626-10.006-56.231-10.678-61.639
									c-2.207-17.765-2.976-51.266-2.207-72.207c0.837-22.752,14.545-73.168,22.173-94.961
									c4.411-12.6,10.347-61.994,11.259-76.612c0.348-5.574,1.248-35.093,0.93-44.461c-0.342-10.039-3.163-44.688-3.711-47.955
									c-0.543-3.269-6.28-46.017-7.556-53.671c-1.165-6.986-2.198-14.685-2.198-14.685s4.932,0.47,15.684-28.69
									C67.698,199.128,70.465,190.28,70.465,190.28"/>
							</defs>
							<clipPath id="SVGID_18_">
								<use xlink:href="#SVGID_17_"  overflow="visible"/>
							</clipPath>
							
								<radialGradient id="SVGID_19_" cx="0" cy="756" r="1" gradientTransform="matrix(243.8902 0 0 -243.8902 163.25 184650.2344)" gradientUnits="userSpaceOnUse">
								<stop  offset="0" style="stop-color:#FFFFFF"/>
								<stop  offset="1" style="stop-color:#64615E"/>
							</radialGradient>
							<rect x="26.554" y="190.28" clip-path="url(#SVGID_18_)" fill="url(#SVGID_19_)" width="69.607" height="544.449"/>
						</g>
					</g>
				</g>
				<g opacity="0.13" clip-path="url(#SVGID_14_)">
					<g>
						<defs>
							<rect id="SVGID_20_" x="187.453" y="130.889" width="128.094" height="398.978"/>
						</defs>
						<clipPath id="SVGID_21_">
							<use xlink:href="#SVGID_20_"  overflow="visible"/>
						</clipPath>
						<g clip-path="url(#SVGID_21_)">
							<defs>
								<path id="SVGID_22_" d="M261.205,167.945c0,0-11.677,12.796-15.571,17.803c-3.896,5.006-23.924,41.168-23.924,50.625
									c0,9.459,8.9,36.72,11.128,40.059c2.224,3.338,6.675,17.801,3.337,22.251c-3.337,4.453-11.128,9.456-13.907,12.798
									c-2.78,3.336-21.14,81.778-23.924,101.809c-2.782,20.029-15.022,110.708-9.457,111.824
									c5.564,1.114,14.463-16.692,21.14-16.692c6.676,0,23.364-23.926,24.48-31.709c1.113-7.789,16.131-43.394,25.59-42.838
									c9.456,0.559,26.151,30.042,28.932,38.944c2.78,8.898,18.359,51.74,22.807,56.19c4.452,4.449,3.898-9.462,3.341-17.805
									c-0.559-8.344-6.606-27.651-6.606-30.99c0-3.336-5.989-53.362-8.294-64.249c-2.32-10.964-5.577-52.101-4.732-78.246
									c0.499-15.471,7.837-72.171,10.388-86.568c1.165-6.572,0.547-15.309,0.547-15.309l-7.991-5.59
									c0,0-2.229,14.468-2.782,22.255c-0.558,7.788-8.9,42.283-8.9,51.182c0,8.901,0.001,42.836,0.556,51.183
									c0.555,8.345,3.331,46.18,1.666,51.742c-1.666,5.56-32.269,4.445-33.379-0.559s-8.898-46.732-6.672-55.633
									c2.22-8.901,9.452-39.501,8.342-45.065c-1.11-5.563-9.463-35.603-7.232-45.617c2.223-10.015,12.238-42.843,18.358-47.847
									c6.118-5.008,16.693-8.347,15.579-12.796c-1.114-4.453-14.063-46.154-15.116-61.675
									C268.114,125.886,265.124,126.033,261.205,167.945"/>
							</defs>
							<clipPath id="SVGID_23_">
								<use xlink:href="#SVGID_22_"  overflow="visible"/>
							</clipPath>
							
								<radialGradient id="SVGID_24_" cx="0" cy="756" r="1" gradientTransform="matrix(148.1515 0 0 -148.1515 251.5 112332.8984)" gradientUnits="userSpaceOnUse">
								<stop  offset="0" style="stop-color:#FFFFFF"/>
								<stop  offset="1" style="stop-color:#897F76"/>
							</radialGradient>
							<rect x="183.321" y="125.886" clip-path="url(#SVGID_23_)" fill="url(#SVGID_24_)" width="132.966" height="407.573"/>
						</g>
					</g>
				</g>
				<g opacity="0.15" clip-path="url(#SVGID_14_)">
					<g>
						<defs>
							<rect id="SVGID_25_" x="84.457" y="540.494" width="82.867" height="196.932"/>
						</defs>
						<clipPath id="SVGID_26_">
							<use xlink:href="#SVGID_25_"  overflow="visible"/>
						</clipPath>
						<g clip-path="url(#SVGID_26_)">
							<defs>
								<path id="SVGID_27_" d="M97.029,540.561c6.287-1.716,46.289,30.29,50.292,30.86c3.997,0.57,14.859,3.998,14.859,3.998h5.143
									c0,0-5.431,36.369-8.285,45.516c-2.86,9.143-12.97,38.132-16.402,45.563c-3.428,7.428-11.824,44.064-12.393,49.207
									c-0.571,5.146-1.253,20.085-1.253,20.085l-7.166,0.544l-8.767,1.093c0,0-0.598-37.42-1.168-43.705
									c-0.574-6.288,0.568-29.146-2.285-35.433c-2.861-6.288-11.43-37.146-16.575-49.147c-5.144-12.003-8.572-36.573-8.572-42.295
									c0-5.713,6.288-11.427,8.002-15.997C94.17,546.276,97.029,540.561,97.029,540.561"/>
							</defs>
							<clipPath id="SVGID_28_">
								<use xlink:href="#SVGID_27_"  overflow="visible"/>
							</clipPath>
							
								<radialGradient id="SVGID_29_" cx="0" cy="756" r="1" gradientTransform="matrix(144.683 0 0 -144.683 70 109932.1875)" gradientUnits="userSpaceOnUse">
								<stop  offset="0" style="stop-color:#FFFFFF"/>
								<stop  offset="1" style="stop-color:#64615E"/>
							</radialGradient>
							<rect x="84.457" y="538.845" clip-path="url(#SVGID_28_)" fill="url(#SVGID_29_)" width="82.866" height="198.581"/>
						</g>
					</g>
				</g>
				<g opacity="0.15" clip-path="url(#SVGID_14_)">
					<g>
						<defs>
							<rect id="SVGID_30_" x="130.934" y="536.197" width="90.037" height="36.47"/>
						</defs>
						<clipPath id="SVGID_31_">
							<use xlink:href="#SVGID_30_"  overflow="visible"/>
						</clipPath>
						<g clip-path="url(#SVGID_31_)">
							<defs>
								<path id="SVGID_32_" d="M143.239,539.051c2.859,0,15.43,12.58,20.572,16.004c5.145,3.43,23.433,9.147,29.719,4.003
									c6.288-5.144,10.283-18.857,17.146-18.857c6.859,0,13.337,9.461,8.763,12.891c-4.57,3.426-15.271,11.501-20.864,15.172
									c-8.673,5.691-15.223,4.344-19.785,4.069c-7.831-0.473-13.833,1.011-21.265-5.845c-7.428-6.858-15.998-17.714-20.572-20.574
									c-4.573-2.857-8.571-9.716-3.999-9.716C137.526,536.197,143.239,539.051,143.239,539.051"/>
							</defs>
							<clipPath id="SVGID_33_">
								<use xlink:href="#SVGID_32_"  overflow="visible"/>
							</clipPath>
							
								<radialGradient id="SVGID_34_" cx="0" cy="756" r="1" gradientTransform="matrix(50.9237 0 0 -50.9237 173.7188 39033.293)" gradientUnits="userSpaceOnUse">
								<stop  offset="0" style="stop-color:#FFFFFF"/>
								<stop  offset="1" style="stop-color:#897F76"/>
							</radialGradient>
							<rect x="128.381" y="536.197" clip-path="url(#SVGID_33_)" fill="url(#SVGID_34_)" width="95.632" height="37.757"/>
						</g>
					</g>
				</g>
				<g opacity="0.13" clip-path="url(#SVGID_14_)">
					<g>
						<defs>
							<rect id="SVGID_35_" x="192.937" y="543.973" width="55.86" height="191.294"/>
						</defs>
						<clipPath id="SVGID_36_">
							<use xlink:href="#SVGID_35_"  overflow="visible"/>
						</clipPath>
						<g clip-path="url(#SVGID_36_)">
							<defs>
								<path id="SVGID_37_" d="M192.937,575.008c0,0,4.97,27.724,7.473,38.272c2.551,10.753,14.628,46.15,15.77,51.295
									c1.14,5.144,7.428,32.003,8.002,36.574c0.571,4.574,2.517,25.454,2.517,25.454s7.28,7.335,10.139,7.903
									c2.856,0.572,4.809,0.76,4.809,0.76s-7.18-25.547-3.748-26.688c3.427-1.141,10.854-6.288,7.426-12.001
									c-3.429-5.716-5.714-16.004-5.714-22.287c0-6.288-5.712-10.862-9.717-9.149c-3.997,1.715-6.856-9.714-6.856-14.284
									c0-4.571,6.856-29.147,11.43-41.146c4.571-11.998,14.285-32.007,14.285-41.147c0-9.145,0.574-25.146-2.283-24.575
									c-2.858,0.57-16.575,11.434-22.86,15.431c-6.288,3.998-16.574,13.148-20.004,14.289
									C200.179,574.851,192.937,575.008,192.937,575.008"/>
							</defs>
							<clipPath id="SVGID_38_">
								<use xlink:href="#SVGID_37_"  overflow="visible"/>
							</clipPath>
							
								<radialGradient id="SVGID_39_" cx="0" cy="756" r="1" gradientTransform="matrix(163.4261 0 0 -163.4261 290.875 124131.5)" gradientUnits="userSpaceOnUse">
								<stop  offset="0" style="stop-color:#FFFFFF"/>
								<stop  offset="1" style="stop-color:#000000"/>
							</radialGradient>
							<rect x="192.937" y="543.418" clip-path="url(#SVGID_38_)" fill="url(#SVGID_39_)" width="56.388" height="191.849"/>
						</g>
					</g>
				</g>
				<g opacity="0.15" clip-path="url(#SVGID_14_)">
					<g>
						<defs>
							<rect id="SVGID_40_" x="114.349" y="166.971" width="54.988" height="92.63"/>
						</defs>
						<clipPath id="SVGID_41_">
							<use xlink:href="#SVGID_40_"  overflow="visible"/>
						</clipPath>
						<g clip-path="url(#SVGID_41_)">
							<defs>
								<path id="SVGID_42_" d="M117.764,179.145c0,0,24.381,34.227,24.381,38.913c0,4.69,12.659,38.444,15.939,41.257
									c3.284,2.811,6.097-15.942,6.097-20.159c0-4.22,5.156-41.729,5.156-45.01c0-3.281-4.218-14.063-7.031-17.345
									c-2.814-3.281-27.662-8.439-32.351-9.376c-4.69-0.941-14.533-0.47-15.471,1.873
									C113.548,171.644,117.764,179.145,117.764,179.145"/>
							</defs>
							<clipPath id="SVGID_43_">
								<use xlink:href="#SVGID_42_"  overflow="visible"/>
							</clipPath>
							
								<radialGradient id="SVGID_44_" cx="0" cy="756" r="1" gradientTransform="matrix(85.3899 0 0 -85.3899 114.9375 64738.1055)" gradientUnits="userSpaceOnUse">
								<stop  offset="0" style="stop-color:#FFFFFF"/>
								<stop  offset="1" style="stop-color:#897F76"/>
							</radialGradient>
							<rect x="113.548" y="166.484" clip-path="url(#SVGID_43_)" fill="url(#SVGID_44_)" width="55.789" height="95.642"/>
						</g>
					</g>
				</g>
			</g>
		</g>
	</g>
	<g id="NECK_AND_ARM_TRIM" clip-path="url(#SVGID_2_)">
		<defs>
			<rect id="SVGID_45_" width="360" height="756"/>
		</defs>
		<clipPath id="SVGID_46_">
			<use xlink:href="#SVGID_45_"  overflow="visible"/>
		</clipPath>
		<path clip-path="url(#SVGID_46_)" fill="#FFFFFF" d="M83.314,30.585c0,0-7.269-1.903-7.269,8.88
			c0,10.785,5.831,39.74-2.332,100.191c-9.226,68.369-29.955,91.535-29.955,91.535s-1.422,1.659,1.208,4.666
			c2.632,3.008,5.842,1.638,5.842,1.638s21.879-33.164,30.149-97.077C88.556,81.728,83.314,30.585,83.314,30.585"/>
		
			<path clip-path="url(#SVGID_46_)" fill="none" stroke="#897F76" stroke-width="0.5" stroke-miterlimit="10" stroke-dasharray="1,0.75" d="
			M83.314,30.585c0,0-7.269-1.903-7.269,8.88c0,10.785,5.831,39.74-2.332,100.191c-9.226,68.369-29.955,91.535-29.955,91.535
			s-1.422,1.659,1.208,4.666c2.632,3.008,5.842,1.638,5.842,1.638s21.879-33.164,30.149-97.077
			C88.556,81.728,83.314,30.585,83.314,30.585z"/>
		<path clip-path="url(#SVGID_46_)" fill="#FFFFFF" d="M265.323,27.958c0,0,1.11-2.099,3.396-0.798
			c3.452,1.965,2.518,9.826,2.518,9.826s-6.146,47.062,4.857,108.661c12.437,69.616,33.618,88.54,33.618,88.54
			s1.974,1.553-1.094,4.625c-3.066,3.072-6.807,1.673-6.807,1.673s-25.502-33.874-35.144-99.15
			C257.815,81.392,265.323,27.958,265.323,27.958"/>
		
			<path clip-path="url(#SVGID_46_)" fill="none" stroke="#897F76" stroke-width="0.5" stroke-miterlimit="10" stroke-dasharray="1,0.75" d="
			M265.323,27.958c0,0,1.11-2.099,3.396-0.798c3.452,1.965,2.518,9.826,2.518,9.826s-6.146,47.062,4.857,108.661
			c12.437,69.616,33.618,88.54,33.618,88.54s1.974,1.553-1.094,4.625c-3.066,3.072-6.807,1.673-6.807,1.673
			s-25.502-33.874-35.144-99.15C257.815,81.392,265.323,27.958,265.323,27.958z"/>
		<path clip-path="url(#SVGID_46_)" fill="#FFFFFF" d="M93.903,23.979c0,0,34.452,136.509,84.487,136.026
			c56.794-0.549,79.831-136.003,79.831-136.003s-4.123-6.668-6.569-3.157c-2.444,3.512-25.114,130.108-72.218,130.565
			C135.258,151.833,103.6,24.42,100.64,21.5C97.683,18.576,93.903,23.979,93.903,23.979"/>
		<path clip-path="url(#SVGID_46_)" fill="none" stroke="#897F76" stroke-width="0.5" stroke-dasharray="1,0.75" d="M93.903,23.979
			c0,0,34.452,136.509,84.487,136.026c56.794-0.549,79.831-136.003,79.831-136.003s-4.123-6.668-6.569-3.157
			c-2.444,3.512-25.114,130.108-72.218,130.565C135.258,151.833,103.6,24.42,100.64,21.5C97.683,18.576,93.903,23.979,93.903,23.979
			z"/>
	</g>
	<g clip-path="url(#SVGID_2_)">
		<defs>
			<rect id="SVGID_47_" width="360" height="756"/>
		</defs>
		<clipPath id="SVGID_48_">
			<use xlink:href="#SVGID_47_"  overflow="visible"/>
		</clipPath>
		<path clip-path="url(#SVGID_48_)" fill="#FFFFFF" d="M49.947,690.227c0-2.531,1.961-4.599,4.447-4.766v9.53
			C51.908,694.823,49.947,692.753,49.947,690.227"/>
		<polygon clip-path="url(#SVGID_48_)" fill-rule="evenodd" clip-rule="evenodd" fill="#FFFFFF" points="59.337,689.604 
			55.181,685.448 59.337,685.448 		"/>
		<polygon clip-path="url(#SVGID_48_)" fill-rule="evenodd" clip-rule="evenodd" fill="#FFFFFF" points="59.337,690.851 
			55.181,695.004 59.337,695.004 		"/>
		<polygon clip-path="url(#SVGID_48_)" fill-rule="evenodd" clip-rule="evenodd" fill="#BF2A43" points="64.546,689.604 
			68.696,685.448 64.546,685.448 		"/>
		<polygon clip-path="url(#SVGID_48_)" fill-rule="evenodd" clip-rule="evenodd" fill="#BF2A43" points="64.546,690.851 
			68.696,695.004 64.546,695.004 		"/>
		<rect x="60.217" y="685.448" clip-path="url(#SVGID_48_)" fill="#BF2A43" width="3.447" height="9.556"/>
		<path clip-path="url(#SVGID_48_)" fill="#FFFFFF" d="M49.947,690.227c0-2.531,1.961-4.599,4.447-4.766v9.53
			C51.908,694.823,49.947,692.753,49.947,690.227"/>
		<polygon clip-path="url(#SVGID_48_)" fill-rule="evenodd" clip-rule="evenodd" fill="#FFFFFF" points="59.337,689.604 
			55.181,685.448 59.337,685.448 		"/>
		<polygon clip-path="url(#SVGID_48_)" fill-rule="evenodd" clip-rule="evenodd" fill="#FFFFFF" points="59.337,690.851 
			55.181,695.004 59.337,695.004 		"/>
		<polygon clip-path="url(#SVGID_48_)" fill-rule="evenodd" clip-rule="evenodd" fill="#BF2A43" points="64.546,689.604 
			68.696,685.448 64.546,685.448 		"/>
		<polygon clip-path="url(#SVGID_48_)" fill-rule="evenodd" clip-rule="evenodd" fill="#BF2A43" points="64.546,690.851 
			68.696,695.004 64.546,695.004 		"/>
		<rect x="60.217" y="685.448" clip-path="url(#SVGID_48_)" fill="#BF2A43" width="3.447" height="9.556"/>
		<path clip-path="url(#SVGID_48_)" fill-rule="evenodd" clip-rule="evenodd" fill="#004D86" d="M54.474,683.036
			c-3.976,0-7.209,3.234-7.209,7.21s3.233,7.205,7.209,7.205h12.7c3.976,0,7.212-3.229,7.212-7.205s-3.236-7.21-7.212-7.21H54.474z"
			/>
		<path clip-path="url(#SVGID_48_)" fill="none" stroke="#004D86" stroke-width="0.917" d="M54.474,683.036
			c-3.976,0-7.209,3.234-7.209,7.21s3.233,7.205,7.209,7.205h12.7c3.976,0,7.212-3.229,7.212-7.205s-3.236-7.21-7.212-7.21H54.474z"
			/>
		<path clip-path="url(#SVGID_48_)" fill-rule="evenodd" clip-rule="evenodd" fill="#004D86" d="M67.174,683.697
			c3.619,0,6.549,2.932,6.549,6.549s-2.93,6.55-6.549,6.55h-12.7c-3.616,0-6.55-2.933-6.55-6.55s2.934-6.549,6.55-6.549H67.174z"/>
		<path clip-path="url(#SVGID_48_)" fill="none" stroke="#FFFFFF" stroke-width="0.458" stroke-miterlimit="3.864" d="
			M67.174,683.697c3.619,0,6.549,2.932,6.549,6.549s-2.93,6.55-6.549,6.55h-12.7c-3.616,0-6.55-2.933-6.55-6.55
			s2.934-6.549,6.55-6.549H67.174z"/>
		<path clip-path="url(#SVGID_48_)" fill="#FFFFFF" d="M49.947,690.227c0-2.531,1.961-4.599,4.447-4.766v9.53
			C51.908,694.823,49.947,692.753,49.947,690.227"/>
		<polygon clip-path="url(#SVGID_48_)" fill-rule="evenodd" clip-rule="evenodd" fill="#FFFFFF" points="59.337,689.604 
			55.181,685.448 59.337,685.448 		"/>
		<polygon clip-path="url(#SVGID_48_)" fill-rule="evenodd" clip-rule="evenodd" fill="#FFFFFF" points="59.337,690.851 
			55.181,695.004 59.337,695.004 		"/>
		<polygon clip-path="url(#SVGID_48_)" fill-rule="evenodd" clip-rule="evenodd" fill="#BF2A43" points="64.546,689.604 
			68.696,685.448 64.546,685.448 		"/>
		<polygon clip-path="url(#SVGID_48_)" fill-rule="evenodd" clip-rule="evenodd" fill="#BF2A43" points="64.546,690.851 
			68.696,695.004 64.546,695.004 		"/>
		<rect x="60.217" y="685.448" clip-path="url(#SVGID_48_)" fill="#BF2A43" width="3.447" height="9.556"/>
	</g>
	<g id="PATTERN_4_B" clip-path="url(#SVGID_2_)">
		<defs>
			<rect id="SVGID_49_" width="360" height="756"/>
		</defs>
		<clipPath id="SVGID_50_">
			<use xlink:href="#SVGID_49_"  overflow="visible"/>
		</clipPath>
		<path clip-path="url(#SVGID_50_)" fill="#FFFFFF" d="M39.615,712.602v5.721c33.708,5.49,68.664,5.49,102.371,0v-5.721
			C108.279,718.092,73.323,718.092,39.615,712.602"/>
		<path clip-path="url(#SVGID_50_)" fill="#FFFFFF" d="M39.615,725.52v5.549c33.708,5.49,68.664,5.49,102.371,0v-5.549
			C108.279,731.01,73.323,731.01,39.615,725.52"/>
		<path clip-path="url(#SVGID_50_)" fill="#FFFFFF" d="M219.555,711.601v5.722c34.368,5.489,70.008,5.489,104.375,0v-5.722
			C289.563,717.091,253.923,717.091,219.555,711.601"/>
		<path clip-path="url(#SVGID_50_)" fill="#FFFFFF" d="M219.555,724.519v5.549c34.368,5.49,70.008,5.49,104.375,0v-5.549
			C289.563,730.009,253.923,730.009,219.555,724.519"/>
	</g>
	<g id="PATTERN_4_A" clip-path="url(#SVGID_2_)">
		<defs>
			<rect id="SVGID_51_" width="360" height="756"/>
		</defs>
		<clipPath id="SVGID_52_">
			<use xlink:href="#SVGID_51_"  overflow="visible"/>
		</clipPath>
		<path clip-path="url(#SVGID_52_)" fill="#BF2A43" d="M39.615,718.322v7.197c33.708,5.491,68.664,5.491,102.371,0v-7.197
			C108.279,723.813,73.323,723.813,39.615,718.322"/>
		<path clip-path="url(#SVGID_52_)" fill="#BF2A43" d="M219.555,717.322v7.196c34.368,5.491,70.008,5.491,104.375,0v-7.196
			C289.563,722.812,253.923,722.812,219.555,717.322"/>
		<path clip-path="url(#SVGID_52_)" fill="#BF2A43" d="M39.615,731.068v6.164c33.708,5.491,68.664,5.491,102.371,0v-6.164
			C108.279,736.559,73.323,736.559,39.615,731.068"/>
		<path clip-path="url(#SVGID_52_)" fill="#BF2A43" d="M39.615,706.422v6.18c33.708,5.49,68.664,5.49,102.371,0v-6.18
			C108.279,711.912,73.323,711.912,39.615,706.422"/>
		<path clip-path="url(#SVGID_52_)" fill="#BF2A43" d="M219.555,730.067v6.165c34.368,5.49,70.008,5.49,104.375,0v-6.165
			C289.563,735.558,253.923,735.558,219.555,730.067"/>
		<path clip-path="url(#SVGID_52_)" fill="#BF2A43" d="M219.555,705.421v6.18c34.368,5.49,70.008,5.49,104.375,0v-6.18
			C289.563,710.911,253.923,710.911,219.555,705.421"/>
	</g>
	<g id="PATTERN_2_B" clip-path="url(#SVGID_2_)">
		<defs>
			<rect id="SVGID_53_" width="360" height="756"/>
		</defs>
		<clipPath id="SVGID_54_">
			<use xlink:href="#SVGID_53_"  overflow="visible"/>
		</clipPath>
		<path clip-path="url(#SVGID_54_)" fill="#BF2A43" d="M39.582,715.923v11.495c33.72,5.49,68.689,5.49,102.409,0v-11.495
			C108.271,721.413,73.302,721.413,39.582,715.923"/>
		<path clip-path="url(#SVGID_54_)" fill="#BF2A43" d="M220.093,714.922v11.495c34.154,5.49,69.571,5.49,103.726,0v-11.495
			C289.664,720.412,254.247,720.412,220.093,714.922"/>
	</g>
	<g id="PATTERN_2_A" clip-path="url(#SVGID_2_)">
		<defs>
			<rect id="SVGID_55_" width="360" height="756"/>
		</defs>
		<clipPath id="SVGID_56_">
			<use xlink:href="#SVGID_55_"  overflow="visible"/>
		</clipPath>
		<path clip-path="url(#SVGID_56_)" fill="#FDBB2D" d="M39.582,727.418v9.852c33.72,5.491,68.689,5.491,102.409,0v-9.852
			C108.271,732.908,73.302,732.908,39.582,727.418"/>
		<path clip-path="url(#SVGID_56_)" fill="#FDBB2D" d="M220.093,726.417v9.853c34.154,5.49,69.571,5.49,103.726,0v-9.853
			C289.664,731.907,254.247,731.907,220.093,726.417"/>
		<path clip-path="url(#SVGID_56_)" fill="#FDBB2D" d="M39.582,706.459v9.464c33.72,5.49,68.689,5.49,102.409,0v-9.464
			C108.271,711.949,73.302,711.949,39.582,706.459"/>
		<path clip-path="url(#SVGID_56_)" fill="#FDBB2D" d="M220.093,705.458v9.464c34.154,5.49,69.571,5.49,103.726,0v-9.464
			C289.664,710.948,254.247,710.948,220.093,705.458"/>
	</g>
	<g id="PATTERN_1_A" clip-path="url(#SVGID_2_)">
		<defs>
			<rect id="SVGID_57_" width="360" height="756"/>
		</defs>
		<clipPath id="SVGID_58_">
			<use xlink:href="#SVGID_57_"  overflow="visible"/>
		</clipPath>
		<path clip-path="url(#SVGID_58_)" fill="#897F76" d="M141.986,737.232c-33.708,5.491-68.663,5.491-102.371,0v-30.811
			c33.708,5.49,68.663,5.49,102.371,0V737.232z"/>
		<path clip-path="url(#SVGID_58_)" fill="#897F76" d="M323.93,737.232c-34.198,5.491-69.663,5.491-103.861,0v-30.811
			c34.198,5.49,69.663,5.49,103.861,0V737.232z"/>
	</g>
  <g id="BOX_BODY">
    	<polygon clip-path="url(#SVGID_2_)" fill="none" stroke="#000000" stroke-width="1.164" stroke-dasharray="5.821,2.328" points="
		284.597,340.591 68.39,340.591 68.39,225.144 83.846,181.793 262.629,181.793 284.597,224.887 	"/>
  </g>
	<g id="BOX_LEG_RIGHT">
    		<rect x="46.862" y="589.105" clip-path="url(#SVGID_2_)" fill="none" stroke="#000000" stroke-dasharray="5,2" width="85.345" height="85.345"/>
  </g>	
  <g id="BOX_LEG_LEFT">
    		<rect x="230.051" y="610.673" clip-path="url(#SVGID_2_)" fill="none" stroke="#000000" stroke-dasharray="5,2" width="85.346" height="85.345"/>
  </g>
  <g id="CUSTOM"></g>
</g>
</svg>
