<?xml version="1.0" encoding="utf-8"?>
<!-- Generator: Adobe Illustrator 16.0.0, SVG Export Plug-In . SVG Version: 6.00 Build 0)  -->
<!DOCTYPE svg PUBLIC "-//W3C//DTD SVG 1.1//EN" "http://www.w3.org/Graphics/SVG/1.1/DTD/svg11.dtd">
<svg version="1.1" id="Layer_1" xmlns="http://www.w3.org/2000/svg" xmlns:xlink="http://www.w3.org/1999/xlink" x="0px" y="0px"
	 width="612px" height="906px" viewBox="0 0 552 906" enable-background="new 0 0 612 906" xml:space="preserve">
<g>
	<defs>
		<rect id="SWB_SVGID_1_" x="67.007" y="100.012" width="474" height="701.706"/>
	</defs>
	<clipPath id="SWB_SVGID_2_">
		<use xlink:href="#SWB_SVGID_1_"  overflow="visible"/>
	</clipPath>
	<g clip-path="url(#SWB_SVGID_2_)">
		<defs>
			<rect id="SWB_SVGID_3_" x="67.007" y="100.012" width="474" height="701.706"/>
		</defs>
		<clipPath id="SWB_SVGID_4_">
			<use xlink:href="#SWB_SVGID_3_"  overflow="visible"/>
		</clipPath>
    <g id="BODY">
		<path clip-path="url(#SWB_SVGID_4_)" fill="#FFFFFF" d="M185.301,471.199c0-2.111-0.911-16.693-1.115-17.948
			c-0.206-1.267,0.961-8.403,0.344-11.354c-0.617-2.942,0.771-9.505,0.771-9.505s-13.838,6.546-16.708,7.18
			c-2.87,0.632-9.545,7.076-9.545,7.076s-7.28-15.073-13.637-21.812c-6.365-6.73-25.514-28.31-32.693-34.417
			c-7.187-6.098-24.97-16.509-24.97-16.509s10.058-12.838,14.778-18.302c4.72-5.475,75.075-76.843,75.075-76.843
			c4.52-2.821,38.23-19.819,38.23-19.819l1.696-0.483c12.38-6.65,22.793-13.502,22.793-13.502s7.665-8.062,9.432-9.674
			s5.894-4.434,5.894-4.434s4.519-13.503,7.665-15.719c3.143-2.217,13.36-6.449,17.88-7.457c4.52-1.007,30.259-4.231,41.852-2.417
			c11.594,1.813,29.083,10.278,30.065,11.084c0.98,0.806,5.697,7.456,6.288,9.471c0.589,2.016,1.767,6.247,1.767,6.247v1.412
			c0,0,5.7,4.635,6.484,6.247c0.787,1.613,1.77,3.224,2.555,4.433c0.787,1.21,4.324,4.434,4.324,4.434l10.801,4.863
			c12.38,6.651,44.698,23.021,46.86,24.029l16.774,14.579c6.031,6.886,22.128,22.059,32.416,36.968
			c10.29,14.899,29.074,37.833,29.074,37.833s2.231,1.378,3.128,2.069c0.896,0.69,2.008,2.978,2.008,2.978l5.144,4.586
			c0,0-14.089,12.852-25.49,24.083c-11.406,11.242-22.211,18.49-22.438,22.386c-0.224,3.899-8.641,18.872-11.105,19.101
			c-2.455,0.232-17.218-3.896-21.017-9.402c-3.801-5.506-5.817-9.175-8.495-8.254c-2.689,0.908-2.815,4.816-5.272,4.816
			c-2.455,0-4.92-1.609-5.366-2.527c-0.449-0.92-1.121-3.668-1.784-3.439c-0.672,0.229-2.241,0.461-2.688,2.979
			c-0.449,2.527,0.081,40.77-0.367,43.059l-0.188,2.238c0,2.101,0.772,30.281,0.772,37.223l1.543,35.637
			c1.768,26.201,4.336,85.491,4.336,85.491s-25.226,12.673-42.214,16.368c-16.988,3.697-104.503,5.281-142.6-3.167
			c-38.093-8.448-60.231-11.617-61.261-14.256c-1.03-2.642,1.544-24.287,1.544-24.287s6.178-82.896,6.178-86.593l1.406-34.384
			C186.36,482.555,185.301,471.199,185.301,471.199"/>
      </g>
		<path clip-path="url(#SWB_SVGID_4_)" fill="none" stroke="#897F76" stroke-width="0.5" stroke-miterlimit="10" d="M185.301,471.199
			c0-2.111-0.911-16.693-1.115-17.948c-0.206-1.267,0.961-8.403,0.344-11.354c-0.617-2.942,0.771-9.505,0.771-9.505
			s-13.838,6.546-16.708,7.18c-2.87,0.632-9.545,7.076-9.545,7.076s-7.28-15.073-13.637-21.812
			c-6.365-6.73-25.514-28.31-32.693-34.417c-7.187-6.098-24.97-16.509-24.97-16.509s10.058-12.838,14.778-18.302
			c4.72-5.475,75.075-76.843,75.075-76.843c4.52-2.821,38.23-19.819,38.23-19.819l1.696-0.483
			c12.38-6.65,22.793-13.502,22.793-13.502s7.665-8.062,9.432-9.674s5.894-4.434,5.894-4.434s4.519-13.503,7.665-15.719
			c3.143-2.217,13.36-6.449,17.88-7.457c4.52-1.007,30.259-4.231,41.852-2.417c11.594,1.813,29.083,10.278,30.065,11.084
			c0.98,0.806,5.697,7.456,6.288,9.471c0.589,2.016,1.767,6.247,1.767,6.247v1.412c0,0,5.7,4.635,6.484,6.247
			c0.787,1.613,1.77,3.224,2.555,4.433c0.787,1.21,4.324,4.434,4.324,4.434l10.801,4.863c12.38,6.651,44.698,23.021,46.86,24.029
			l16.774,14.579c6.031,6.886,22.128,22.059,32.416,36.968c10.29,14.899,29.074,37.833,29.074,37.833s2.231,1.378,3.128,2.069
			c0.896,0.69,2.008,2.978,2.008,2.978l5.144,4.586c0,0-14.089,12.852-25.49,24.083c-11.406,11.242-22.211,18.49-22.438,22.386
			c-0.224,3.899-8.641,18.872-11.105,19.101c-2.455,0.232-17.218-3.896-21.017-9.402c-3.801-5.506-5.817-9.175-8.495-8.254
			c-2.689,0.908-2.815,4.816-5.272,4.816c-2.455,0-4.92-1.609-5.366-2.527c-0.449-0.92-1.121-3.668-1.784-3.439
			c-0.672,0.229-2.241,0.461-2.688,2.979c-0.449,2.527,0.081,40.77-0.367,43.059l-0.188,2.238c0,2.101,0.772,30.281,0.772,37.223
			l1.543,35.637c1.768,26.201,4.336,85.491,4.336,85.491s-25.226,12.673-42.214,16.368c-16.988,3.697-104.503,5.281-142.6-3.167
			c-38.093-8.448-60.231-11.617-61.261-14.256c-1.03-2.642,1.544-24.287,1.544-24.287s6.178-82.896,6.178-86.593l1.406-34.384
			C186.36,482.555,185.301,471.199,185.301,471.199z"/>
	</g>
	<g id="SLEEVES" clip-path="url(#SWB_SVGID_2_)">
		<defs>
			<rect id="SWB_SVGID_5_" x="67.007" y="100.012" width="474" height="701.706"/>
		</defs>
		<clipPath id="SWB_SVGID_6_">
			<use xlink:href="#SWB_SVGID_5_"  overflow="visible"/>
		</clipPath>
		<path clip-path="url(#SWB_SVGID_6_)" fill="#FFFFFF" d="M432.189,277.479c2.149-2.148,16.774,14.579,16.774,14.579
			c6.031,6.885,22.128,22.059,32.416,36.968c10.29,14.899,29.074,37.833,29.074,37.833s2.23,1.379,3.128,2.068
			c0.896,0.69,2.007,2.978,2.007,2.978l5.145,4.586c0,0-14.089,12.852-25.49,24.084c-11.407,11.241-22.211,18.49-22.438,22.385
			c-0.224,3.899-8.641,18.873-11.106,19.102c-2.454,0.231-17.217-3.897-21.016-9.403c-3.8-5.506-5.817-9.174-8.495-8.253
			c-2.689,0.908-2.815,4.816-5.271,4.816c-2.455,0-4.921-1.61-5.368-2.527c-0.449-0.92-1.12-3.669-1.783-3.439
			c-0.672,0.229-2.241,0.461-2.688,2.979l2.946-8.359c0,0-5.393-28.016-5.428-36.284c-0.059-13.173,5.577-43.317,4.373-55.928
			C417.609,311.421,428.704,280.964,432.189,277.479"/>
		<path clip-path="url(#SWB_SVGID_6_)" fill="none" stroke="#897F76" stroke-width="0.5" stroke-miterlimit="10" d="M432.189,277.479
			c2.149-2.148,16.774,14.579,16.774,14.579c6.031,6.885,22.128,22.059,32.416,36.968c10.29,14.899,29.074,37.833,29.074,37.833
			s2.23,1.379,3.128,2.068c0.896,0.69,2.007,2.978,2.007,2.978l5.145,4.586c0,0-14.089,12.852-25.49,24.084
			c-11.407,11.241-22.211,18.49-22.438,22.385c-0.224,3.899-8.641,18.873-11.106,19.102c-2.454,0.231-17.217-3.897-21.016-9.403
			c-3.8-5.506-5.817-9.174-8.495-8.253c-2.689,0.908-2.815,4.816-5.271,4.816c-2.455,0-4.921-1.61-5.368-2.527
			c-0.449-0.92-1.12-3.669-1.783-3.439c-0.672,0.229-2.241,0.461-2.688,2.979l2.946-8.359c0,0-5.393-28.016-5.428-36.284
			c-0.059-13.173,5.577-43.317,4.373-55.928C417.609,311.421,428.704,280.964,432.189,277.479z"/>
		<path clip-path="url(#SWB_SVGID_6_)" fill="#FFFFFF" d="M185.301,432.392c0,0-13.838,6.546-16.708,7.18
			c-2.87,0.632-9.545,7.076-9.545,7.076s-7.28-15.073-13.637-21.812c-6.365-6.73-25.514-28.31-32.693-34.417
			c-7.187-6.097-24.97-16.509-24.97-16.509s10.058-12.837,14.778-18.302c4.72-5.475,75.075-76.843,75.075-76.843
			s1.516,22.725,2.522,50.653c0.599,16.652,1.019,35.155,0.828,51.794c-0.171,14.958,4.803,28.346,6.818,37.721
			C188.488,422.275,185.301,432.392,185.301,432.392"/>
		<path clip-path="url(#SWB_SVGID_6_)" fill="none" stroke="#897F76" stroke-width="0.5" stroke-miterlimit="10" d="M185.301,432.392
			c0,0-13.838,6.546-16.708,7.18c-2.87,0.632-9.545,7.076-9.545,7.076s-7.28-15.073-13.637-21.812
			c-6.365-6.73-25.514-28.31-32.693-34.417c-7.187-6.097-24.97-16.509-24.97-16.509s10.058-12.837,14.778-18.302
			c4.72-5.475,75.075-76.843,75.075-76.843s1.516,22.725,2.522,50.653c0.599,16.652,1.019,35.155,0.828,51.794
			c-0.171,14.958,4.803,28.346,6.818,37.721C188.488,422.275,185.301,432.392,185.301,432.392z"/>
	</g>
  <g id="CUSTOM"></g>
	<g clip-path="url(#SWB_SVGID_2_)">
		<defs>
			<rect id="SWB_SVGID_7_" x="67.007" y="100.012" width="474" height="701.706"/>
		</defs>
		<clipPath id="SWB_SVGID_8_">
			<use xlink:href="#SWB_SVGID_7_"  overflow="visible"/>
		</clipPath>
    <g id="COLLAR">
		<path clip-path="url(#SWB_SVGID_8_)" fill="#FFFFFF" d="M240.322,244.959c0,0,7.665-8.062,9.432-9.674s5.894-4.433,5.894-4.433
			s4.52-13.504,7.665-15.721c3.143-2.216,13.361-6.448,17.88-7.456c4.52-1.007,30.26-4.232,41.853-2.418
			c11.594,1.813,29.083,10.278,30.064,11.084s5.698,7.456,6.289,9.472c0.589,2.015,1.768,6.247,1.768,6.247v1.412
			c0,0,5.698,4.635,6.484,6.247c0.786,1.612,1.769,3.224,2.556,4.433c0.783,1.21,4.322,4.434,4.322,4.434
			s-14.458-16.135-68.67-17.77c-23.784-0.718-34.111,1.01-44.153,4.068C245.144,239.931,240.322,244.959,240.322,244.959"/>
	</g>
      <path clip-path="url(#SWB_SVGID_8_)" fill="none" stroke="#897F76" stroke-width="0.5" stroke-miterlimit="10" d="M240.322,244.959
			c0,0,7.665-8.062,9.432-9.674s5.894-4.433,5.894-4.433s4.52-13.504,7.665-15.721c3.143-2.216,13.361-6.448,17.88-7.456
			c4.52-1.007,30.26-4.232,41.853-2.418c11.594,1.813,29.083,10.278,30.064,11.084s5.698,7.456,6.289,9.472
			c0.589,2.015,1.768,6.247,1.768,6.247v1.412c0,0,5.698,4.635,6.484,6.247c0.786,1.612,1.769,3.224,2.556,4.433
			c0.783,1.21,4.322,4.434,4.322,4.434s-14.458-16.135-68.67-17.77c-23.784-0.718-34.111,1.01-44.153,4.068
			C245.144,239.931,240.322,244.959,240.322,244.959z"/>
	</g>
	<g clip-path="url(#SWB_SVGID_2_)">
		<defs>
			<rect id="SWB_SVGID_9_" x="67.007" y="100.012" width="474" height="701.706"/>
		</defs>
		<clipPath id="SWB_SVGID_10_">
			<use xlink:href="#SWB_SVGID_9_"  overflow="visible"/>
		</clipPath>
		<g opacity="0.12" clip-path="url(#SWB_SVGID_10_)">
			<g>
				<defs>
					<rect id="SWB_SVGID_11_" x="164.023" y="349.177" width="23.747" height="83.215"/>
				</defs>
				<clipPath id="SWB_SVGID_12_">
					<use xlink:href="#SWB_SVGID_11_"  overflow="visible"/>
				</clipPath>
				<g clip-path="url(#SWB_SVGID_12_)">
					<defs>
						<path id="SWB_SVGID_13_" d="M185.301,432.392c0,0,2.734-8.741,2.448-12.259c-0.286-3.519-2.859-8.503-4.289-10.262
							c-1.429-1.76-8.003-9.675-8.574-12.606c-0.572-2.932-2.001-47.786-4.859-48.08c-2.858-0.293-6.003,8.21-6.003,8.21
							s4.574-0.293,5.717,6.742c1.145,7.036,1.145,15.538,1.43,17.003c0.286,1.466,1.428,12.899,1.428,12.899
							s6.004,15.538,8.291,19.643c2.286,4.105,3.429,8.501,3.717,11.433C184.89,428.049,185.301,432.392,185.301,432.392"/>
					</defs>
					<clipPath id="SWB_SVGID_14_">
						<use xlink:href="#SWB_SVGID_13_"  overflow="visible"/>
					</clipPath>
					
						<radialGradient id="SWB_SVGID_15_" cx="0.7393" cy="905.5527" r="0.774" gradientTransform="matrix(47.1474 0 0 -48.3563 142.5938 44158.25)" gradientUnits="userSpaceOnUse">
						<stop  offset="0" style="stop-color:#897F76"/>
						<stop  offset="1" style="stop-color:#000000"/>
					</radialGradient>
					<rect x="164.023" y="348.892" clip-path="url(#SWB_SVGID_14_)" fill="url(#SWB_SVGID_15_)" width="24.012" height="83.5"/>
				</g>
			</g>
		</g>
		<g opacity="0.1" clip-path="url(#SWB_SVGID_10_)">
			<g>
				<defs>
					<rect id="SWB_SVGID_16_" x="181.463" y="368.241" width="10.287" height="40.888"/>
				</defs>
				<clipPath id="SWB_SVGID_17_">
					<use xlink:href="#SWB_SVGID_16_"  overflow="visible"/>
				</clipPath>
				<g clip-path="url(#SWB_SVGID_17_)">
					<defs>
						<path id="SWB_SVGID_18_" d="M182.317,392.573c0,0-1.715-5.276-0.286-9.674c1.429-4.398,9.718-14.659,9.718-14.659
							s-7.432,18.176-7.432,22.868c0,4.69,1.145,11.14,2.288,17.003C187.749,413.976,182.317,392.573,182.317,392.573"/>
					</defs>
					<clipPath id="SWB_SVGID_19_">
						<use xlink:href="#SWB_SVGID_18_"  overflow="visible"/>
					</clipPath>
					
						<radialGradient id="SWB_SVGID_20_" cx="1.27" cy="905.1953" r="0.7746" gradientTransform="matrix(25.1101 0 0 -25.7539 155.75 23684.6289)" gradientUnits="userSpaceOnUse">
						<stop  offset="0" style="stop-color:#897F76"/>
						<stop  offset="1" style="stop-color:#000000"/>
					</radialGradient>
					<rect x="180.603" y="368.241" clip-path="url(#SWB_SVGID_19_)" fill="url(#SWB_SVGID_20_)" width="11.147" height="45.735"/>
				</g>
			</g>
		</g>
		<g opacity="0.1" clip-path="url(#SWB_SVGID_10_)">
			<g>
				<defs>
					<rect id="SWB_SVGID_21_" x="140.813" y="325.732" width="35.788" height="97.331"/>
				</defs>
				<clipPath id="SWB_SVGID_22_">
					<use xlink:href="#SWB_SVGID_21_"  overflow="visible"/>
				</clipPath>
				<g clip-path="url(#SWB_SVGID_22_)">
					<defs>
						<path id="SWB_SVGID_23_" d="M140.871,325.732c0,0,0.286,21.107,6.003,36.353c5.715,15.245,28.869,58.048,28.869,58.048l0.857,2.93
							c0,0-26.868-45.44-31.729-61.564C140.014,345.373,140.871,325.732,140.871,325.732"/>
					</defs>
					<clipPath id="SWB_SVGID_24_">
						<use xlink:href="#SWB_SVGID_23_"  overflow="visible"/>
					</clipPath>
					
						<radialGradient id="SWB_SVGID_25_" cx="0.6353" cy="905.6055" r="0.7748" gradientTransform="matrix(70.2873 0 0 -72.0895 99.125 65630.5391)" gradientUnits="userSpaceOnUse">
						<stop  offset="0" style="stop-color:#897F76"/>
						<stop  offset="1" style="stop-color:#000000"/>
					</radialGradient>
					<rect x="140.014" y="325.732" clip-path="url(#SWB_SVGID_24_)" fill="url(#SWB_SVGID_25_)" width="36.587" height="97.331"/>
				</g>
			</g>
		</g>
		<g opacity="0.08" clip-path="url(#SWB_SVGID_10_)">
			<g>
				<defs>
					<rect id="SWB_SVGID_26_" x="417.609" y="323.116" width="24.61" height="101.356"/>
				</defs>
				<clipPath id="SWB_SVGID_27_">
					<use xlink:href="#SWB_SVGID_26_"  overflow="visible"/>
				</clipPath>
				<g clip-path="url(#SWB_SVGID_27_)">
					<defs>
						<path id="SWB_SVGID_28_" d="M429.864,323.116c0,0,12.355,35.375,9.268,46.991c-3.09,11.617-16.989,39.072-18.534,45.408
							c-1.544,6.337-2.988,8.958-2.988,8.958s18.947-17.933,19.461-24.797c0.516-6.864,2.575-18.48,3.604-21.648
							c1.031-3.167,1.546-12.144,1.546-12.144L429.864,323.116z"/>
					</defs>
					<clipPath id="SWB_SVGID_29_">
						<use xlink:href="#SWB_SVGID_28_"  overflow="visible"/>
					</clipPath>
					
						<radialGradient id="SWB_SVGID_30_" cx="-0.4526" cy="905.6348" r="0.7734" gradientTransform="matrix(72.1017 0 0 -73.9505 441.9375 67322.8516)" gradientUnits="userSpaceOnUse">
						<stop  offset="0" style="stop-color:#897F76"/>
						<stop  offset="1" style="stop-color:#000000"/>
					</radialGradient>
					<rect x="417.609" y="323.116" clip-path="url(#SWB_SVGID_29_)" fill="url(#SWB_SVGID_30_)" width="24.61" height="101.356"/>
				</g>
			</g>
		</g>
		<g opacity="0.12" clip-path="url(#SWB_SVGID_10_)">
			<g>
				<defs>
					<rect id="SWB_SVGID_31_" x="240.321" y="232.741" width="134.207" height="15.846"/>
				</defs>
				<clipPath id="SWB_SVGID_32_">
					<use xlink:href="#SWB_SVGID_31_"  overflow="visible"/>
				</clipPath>
				<g clip-path="url(#SWB_SVGID_32_)">
					<defs>
						<path id="SWB_SVGID_33_" d="M240.321,244.959c0,0,18.079-9.474,48.64-10.239c34.568-0.865,62.603,2.811,66.186,4.324
							c3.584,1.513,19.381,9.543,19.381,9.543s-11.373-9.759-30.131-13.434c-18.762-3.675-72.299-2.595-81.996-0.434
							C252.706,236.882,240.321,244.959,240.321,244.959"/>
					</defs>
					<clipPath id="SWB_SVGID_34_">
						<use xlink:href="#SWB_SVGID_33_"  overflow="visible"/>
					</clipPath>
					
						<radialGradient id="SWB_SVGID_35_" cx="-0.0479" cy="905.0654" r="0.7744" gradientTransform="matrix(61.6681 0 0 -63.2494 310.4063 57485.5547)" gradientUnits="userSpaceOnUse">
						<stop  offset="0" style="stop-color:#897F76"/>
						<stop  offset="0.1073" style="stop-color:#867D75"/>
						<stop  offset="0.3059" style="stop-color:#7C7570"/>
						<stop  offset="0.5738" style="stop-color:#686562"/>
						<stop  offset="0.8977" style="stop-color:#3C3A3B"/>
						<stop  offset="1" style="stop-color:#000000"/>
					</radialGradient>
					<rect x="240.321" y="231.478" clip-path="url(#SWB_SVGID_34_)" fill="url(#SWB_SVGID_35_)" width="134.207" height="17.109"/>
				</g>
			</g>
		</g>
		<g opacity="0.03" clip-path="url(#SWB_SVGID_10_)">
			<g>
				<defs>
					<rect id="SWB_SVGID_36_" x="228.133" y="550.264" width="31.93" height="81.443"/>
				</defs>
				<clipPath id="SWB_SVGID_37_">
					<use xlink:href="#SWB_SVGID_36_"  overflow="visible"/>
				</clipPath>
				<g clip-path="url(#SWB_SVGID_37_)">
					<defs>
						<path id="SWB_SVGID_38_" d="M238.379,631.707c0,0-0.305-15.349,4.581-19.422c4.886-4.07,11.3-14.409,14.049-24.746
							c2.749-10.336,3.054-37.275,3.054-37.275s-4.582,37.275-14.354,48.553c-9.773,11.276-18.936,21.927-17.409,25.688
							C229.828,628.261,238.379,631.707,238.379,631.707"/>
					</defs>
					<clipPath id="SWB_SVGID_39_">
						<use xlink:href="#SWB_SVGID_38_"  overflow="visible"/>
					</clipPath>
					
						<radialGradient id="SWB_SVGID_40_" cx="0.3018" cy="906.5508" r="0.7746" gradientTransform="matrix(68.0838 0 0 -69.8295 206.0625 63879.6719)" gradientUnits="userSpaceOnUse">
						<stop  offset="0" style="stop-color:#897F76"/>
						<stop  offset="1" style="stop-color:#000000"/>
					</radialGradient>
					<rect x="226.773" y="550.264" clip-path="url(#SWB_SVGID_39_)" fill="url(#SWB_SVGID_40_)" width="33.29" height="81.443"/>
				</g>
			</g>
		</g>
		<g opacity="0.05" clip-path="url(#SWB_SVGID_10_)">
			<g>
				<defs>
					<rect id="SWB_SVGID_41_" x="388.946" y="558.83" width="7.684" height="73.3"/>
				</defs>
				<clipPath id="SWB_SVGID_42_">
					<use xlink:href="#SWB_SVGID_41_"  overflow="visible"/>
				</clipPath>
				<g clip-path="url(#SWB_SVGID_42_)">
					<defs>
						<path id="SWB_SVGID_43_" d="M395.664,558.83c-1.526,0.938-6.718,73.3-6.718,73.3s7.329-29.761,7.635-42.291
							C396.886,577.311,395.664,558.83,395.664,558.83"/>
					</defs>
					<clipPath id="SWB_SVGID_44_">
						<use xlink:href="#SWB_SVGID_43_"  overflow="visible"/>
					</clipPath>
					
						<radialGradient id="SWB_SVGID_45_" cx="-0.6655" cy="906.8828" r="0.7744" gradientTransform="matrix(45.4377 0 0 -46.6028 431.25 42848.1992)" gradientUnits="userSpaceOnUse">
						<stop  offset="0" style="stop-color:#897F76"/>
						<stop  offset="1" style="stop-color:#000000"/>
					</radialGradient>
					<rect x="388.946" y="558.83" clip-path="url(#SWB_SVGID_44_)" fill="url(#SWB_SVGID_45_)" width="7.939" height="73.3"/>
				</g>
			</g>
		</g>
		<g opacity="0.05" clip-path="url(#SWB_SVGID_10_)">
			<g>
				<defs>
					<rect id="SWB_SVGID_46_" x="395.971" y="446.582" width="13.677" height="126.862"/>
				</defs>
				<clipPath id="SWB_SVGID_47_">
					<use xlink:href="#SWB_SVGID_46_"  overflow="visible"/>
				</clipPath>
				<g clip-path="url(#SWB_SVGID_47_)">
					<defs>
						<path id="SWB_SVGID_48_" d="M395.971,446.582c0,0,8.857,73.924,10.077,94.6c1.223,20.673,1.527,32.263,1.527,32.263
							s3.97-73.298,0.917-89.273C405.438,468.195,395.971,446.582,395.971,446.582"/>
					</defs>
					<clipPath id="SWB_SVGID_49_">
						<use xlink:href="#SWB_SVGID_48_"  overflow="visible"/>
					</clipPath>
					
						<radialGradient id="SWB_SVGID_50_" cx="-0.4019" cy="906.0518" r="0.7752" gradientTransform="matrix(75.0783 0 0 -77.0034 430.9375 70226.2969)" gradientUnits="userSpaceOnUse">
						<stop  offset="0" style="stop-color:#897F76"/>
						<stop  offset="1" style="stop-color:#000000"/>
					</radialGradient>
					<rect x="395.971" y="446.582" clip-path="url(#SWB_SVGID_49_)" fill="url(#SWB_SVGID_50_)" width="15.574" height="126.862"/>
				</g>
			</g>
		</g>
		<g opacity="0.08" clip-path="url(#SWB_SVGID_10_)">
			<g>
				<defs>
					<rect id="SWB_SVGID_51_" x="450.385" y="336.25" width="14.432" height="56.218"/>
				</defs>
				<clipPath id="SWB_SVGID_52_">
					<use xlink:href="#SWB_SVGID_51_"  overflow="visible"/>
				</clipPath>
				<g clip-path="url(#SWB_SVGID_52_)">
					<defs>
						<path id="SWB_SVGID_53_" d="M463.326,336.252c6.997-0.314-12.907,56.216-12.907,56.216s-0.613-23.555,3.367-35.803
							C457.768,344.417,463.326,336.252,463.326,336.252"/>
					</defs>
					<clipPath id="SWB_SVGID_54_">
						<use xlink:href="#SWB_SVGID_53_"  overflow="visible"/>
					</clipPath>
					
						<radialGradient id="SWB_SVGID_55_" cx="-1.0537" cy="905.2754" r="0.7752" gradientTransform="matrix(42.3374 0 0 -43.423 495 39645.0625)" gradientUnits="userSpaceOnUse">
						<stop  offset="0" style="stop-color:#897F76"/>
						<stop  offset="1" style="stop-color:#000000"/>
					</radialGradient>
					<rect x="449.806" y="335.938" clip-path="url(#SWB_SVGID_54_)" fill="url(#SWB_SVGID_55_)" width="20.518" height="56.531"/>
				</g>
			</g>
		</g>
		<g opacity="0.12" clip-path="url(#SWB_SVGID_10_)">
			<g>
				<defs>
					<rect id="SWB_SVGID_56_" x="455.623" y="356.352" width="21.436" height="46.48"/>
				</defs>
				<clipPath id="SWB_SVGID_57_">
					<use xlink:href="#SWB_SVGID_56_"  overflow="visible"/>
				</clipPath>
				<g clip-path="url(#SWB_SVGID_57_)">
					<defs>
						<path id="SWB_SVGID_58_" d="M455.623,402.832c0,0,11.942-22.613,16.229-32.662s5.206-13.818,5.206-13.818
							s-2.19,19.786-7.963,30.149C463.326,396.865,455.623,402.832,455.623,402.832"/>
					</defs>
					<clipPath id="SWB_SVGID_59_">
						<use xlink:href="#SWB_SVGID_58_"  overflow="visible"/>
					</clipPath>
					
						<radialGradient id="SWB_SVGID_60_" cx="-1.1016" cy="905.5391" r="0.7744" gradientTransform="matrix(41.3119 0 0 -42.3712 498.9688 38745.1406)" gradientUnits="userSpaceOnUse">
						<stop  offset="0" style="stop-color:#897F76"/>
						<stop  offset="1" style="stop-color:#000000"/>
					</radialGradient>
					<rect x="455.623" y="356.352" clip-path="url(#SWB_SVGID_59_)" fill="url(#SWB_SVGID_60_)" width="21.436" height="46.48"/>
				</g>
			</g>
		</g>
		<g clip-path="url(#SWB_SVGID_10_)">
			<g>
				<defs>
					<rect id="SWB_SVGID_61_" x="97.678" y="360.806" width="71.471" height="78.307"/>
				</defs>
				<clipPath id="SWB_SVGID_62_">
					<use xlink:href="#SWB_SVGID_61_"  overflow="visible"/>
				</clipPath>
				<path clip-path="url(#SWB_SVGID_62_)" fill="none" stroke="#7A726F" stroke-width="0.337" stroke-dasharray="0.084,1.254" d="
					M169.046,439.033c0,0-6.917-8.993-11.359-14.555c-4.441-5.563-18.36-22.949-22.949-26.223
					c-4.592-3.274-12.985-12.065-17.809-16.669c-4.823-4.603-11.708-11.977-13.812-14.094c-2.104-2.116-5.334-6.61-5.334-6.61"/>
			</g>
		</g>
		<g clip-path="url(#SWB_SVGID_10_)">
			<g>
				<defs>
					<rect id="SWB_SVGID_63_" x="100.7" y="357.632" width="72.312" height="80.506"/>
				</defs>
				<clipPath id="SWB_SVGID_64_">
					<use xlink:href="#SWB_SVGID_63_"  overflow="visible"/>
				</clipPath>
				<path clip-path="url(#SWB_SVGID_64_)" fill="none" stroke="#7A726F" stroke-width="0.337" stroke-dasharray="0.084,1.254" d="
					M172.902,438.066c0,0-6.148-9.259-10.69-14.967c-4.542-5.707-18.78-23.544-23.507-26.936
					c-4.722-3.388-13.33-12.431-18.279-17.172c-4.95-4.74-12.007-12.323-14.165-14.5c-2.159-2.178-5.456-6.783-5.456-6.783"/>
			</g>
		</g>
		<g clip-path="url(#SWB_SVGID_10_)">
			<g>
				<defs>
					<rect id="SWB_SVGID_65_" x="451.65" y="366.456" width="58.584" height="73.208"/>
				</defs>
				<clipPath id="SWB_SVGID_66_">
					<use xlink:href="#SWB_SVGID_65_"  overflow="visible"/>
				</clipPath>
				<path clip-path="url(#SWB_SVGID_66_)" fill="none" stroke="#7A726F" stroke-width="0.337" stroke-dasharray="0.079,1.182" d="
					M510.154,366.558c0,0-23.404,18.508-31.077,26.659c-7.671,8.152-16.938,17.468-17.578,19.215
					c-0.641,1.746-1.918,7.569-2.557,11.353c-0.639,3.784-1.599,6.112-3.836,10.48c-2.237,4.367-3.374,5.299-3.374,5.299"/>
			</g>
		</g>
		<g clip-path="url(#SWB_SVGID_10_)">
			<g>
				<defs>
					<rect id="SWB_SVGID_67_" x="456.012" y="368.826" width="57.652" height="72.324"/>
				</defs>
				<clipPath id="SWB_SVGID_68_">
					<use xlink:href="#SWB_SVGID_67_"  overflow="visible"/>
				</clipPath>
				<path clip-path="url(#SWB_SVGID_68_)" fill="none" stroke="#7A726F" stroke-width="0.337" stroke-dasharray="0.079,1.182" d="
					M513.582,368.928c-23.881,19.141-23.589,18.707-31.311,26.91c-7.668,8.151-16.938,17.467-17.575,19.215
					c-0.642,1.746-1.919,7.569-2.558,11.354c-0.64,3.783-1.6,6.113-3.835,10.48c-2.239,4.365-2.162,4.131-2.162,4.131"/>
			</g>
		</g>
		<g clip-path="url(#SWB_SVGID_10_)">
			<g>
				<defs>
					<rect id="SWB_SVGID_69_" x="177.529" y="278.227" width="10.426" height="154.218"/>
				</defs>
				<clipPath id="SWB_SVGID_70_">
					<use xlink:href="#SWB_SVGID_69_"  overflow="visible"/>
				</clipPath>
				
					<path clip-path="url(#SWB_SVGID_70_)" fill="none" stroke="#D7D3D0" stroke-width="0.484" stroke-linejoin="round" stroke-dasharray="0.725,0.242" d="
					M177.714,278.253c0,0,1.441,10.307,1.441,25.178c1.136,14.873,1.836,31.49,1.705,45.198
					c-0.096,10.163-1.107,23.268,0.756,40.019c1.018,9.157,3.402,17.573,6.145,30.827c0.166,4.119-2.459,12.916-2.459,12.916"/>
			</g>
		</g>
		<g clip-path="url(#SWB_SVGID_10_)">
			<g>
				<defs>
					<rect id="SWB_SVGID_71_" x="414.408" y="277.401" width="17.952" height="148.22"/>
				</defs>
				<clipPath id="SWB_SVGID_72_">
					<use xlink:href="#SWB_SVGID_71_"  overflow="visible"/>
				</clipPath>
				
					<path clip-path="url(#SWB_SVGID_72_)" fill="none" stroke="#D7D3D0" stroke-width="0.484" stroke-linejoin="round" stroke-dasharray="0.725,0.242" d="
					M432.189,277.479c0,0-13.931,30.326-13.931,45.197c1.138,14.872-2.713,30.324-2.844,44.031
					c-0.149,15.719-3.549,18.192,4.695,50.268c-0.004,2.736-2.923,8.561-2.923,8.561"/>
			</g>
		</g>
		<g clip-path="url(#SWB_SVGID_10_)">
			<g>
				<defs>
					<rect id="SWB_SVGID_73_" x="177.397" y="611.452" width="244.92" height="24.213"/>
				</defs>
				<clipPath id="SWB_SVGID_74_">
					<use xlink:href="#SWB_SVGID_73_"  overflow="visible"/>
				</clipPath>
				<path clip-path="url(#SWB_SVGID_74_)" fill="none" stroke="#7A726F" stroke-width="0.337" stroke-dasharray="0.084,0.986" d="
					M177.438,611.576c0,0,10.436,3.41,18.473,5.697c7.015,1.994,14.237,7.145,30.291,9.555c26.758,4.013,70.651,9.418,91.506,8.629
					c37.126-1.405,55.587-4.016,69.835-7.024c6.917-1.462,34.717-15.252,34.717-15.252"/>
			</g>
		</g>
		<g clip-path="url(#SWB_SVGID_10_)">
			<g>
				<defs>
					<rect id="SWB_SVGID_75_" x="177.397" y="615.273" width="244.92" height="24.212"/>
				</defs>
				<clipPath id="SWB_SVGID_76_">
					<use xlink:href="#SWB_SVGID_75_"  overflow="visible"/>
				</clipPath>
				<path clip-path="url(#SWB_SVGID_76_)" fill="none" stroke="#7A726F" stroke-width="0.337" stroke-dasharray="0.084,0.986" d="
					M177.438,615.396c0,0,10.436,3.41,18.473,5.697c7.015,1.993,14.237,7.145,30.291,9.555c26.758,4.014,70.651,9.418,91.506,8.629
					c37.126-1.405,55.587-4.015,69.835-7.025c6.917-1.461,34.717-15.249,34.717-15.249"/>
			</g>
		</g>
	</g>
	<g clip-path="url(#SWB_SVGID_2_)">
		<defs>
			<rect id="SWB_SVGID_77_" x="67.007" y="100.012" width="474" height="701.706"/>
		</defs>
		<clipPath id="SWB_SVGID_78_">
			<use xlink:href="#SWB_SVGID_77_"  overflow="visible"/>
		</clipPath>
		<path clip-path="url(#SWB_SVGID_78_)" d="M306.536,252.069l-0.156,0.002l-8.895-0.059c-2.675-0.017-4.835-2.208-4.819-4.88
			c0.017-2.634,2.091-4.75,4.722-4.815l0.158-0.002l8.896,0.057c2.673,0.017,4.836,2.207,4.818,4.88
			C311.243,249.886,309.17,252.002,306.536,252.069 M297.403,242.838c-2.35,0.06-4.199,1.947-4.213,4.297
			c-0.017,2.386,1.912,4.339,4.297,4.355l9.037,0.056c2.346-0.059,4.197-1.947,4.213-4.298c0.015-2.384-1.914-4.338-4.297-4.354
			L297.403,242.838z"/>
		<path clip-path="url(#SWB_SVGID_78_)" d="M294.341,247.129c0.011-1.772,1.397-3.211,3.139-3.318l-0.042,6.677
			C295.697,250.359,294.331,248.9,294.341,247.129"/>
		<polygon clip-path="url(#SWB_SVGID_78_)" fill-rule="evenodd" clip-rule="evenodd" points="300.922,246.734 298.035,243.807 
			300.941,243.826 		"/>
		<polygon clip-path="url(#SWB_SVGID_78_)" fill-rule="evenodd" clip-rule="evenodd" points="300.917,247.609 297.992,250.498 
			300.897,250.518 		"/>
		<polygon clip-path="url(#SWB_SVGID_78_)" fill-rule="evenodd" clip-rule="evenodd" points="304.573,246.758 307.498,243.868 
			304.59,243.849 		"/>
		<polygon clip-path="url(#SWB_SVGID_78_)" fill-rule="evenodd" clip-rule="evenodd" points="304.565,247.632 307.458,250.559 
			304.546,250.541 		"/>
		
			<rect x="301.538" y="243.837" transform="matrix(-1 -0.0061 0.0061 -1 603.9847 496.1992)" clip-path="url(#SWB_SVGID_78_)" width="2.414" height="6.692"/>
	</g>
</g>
</svg>
