<?xml version="1.0" encoding="utf-8"?>
<!-- Generator: Adobe Illustrator 16.0.0, SVG Export Plug-In . SVG Version: 6.00 Build 0)  -->
<!DOCTYPE svg PUBLIC "-//W3C//DTD SVG 1.1//EN" "http://www.w3.org/Graphics/SVG/1.1/DTD/svg11.dtd">
<svg version="1.1" id="Layer_1" xmlns="http://www.w3.org/2000/svg" xmlns:xlink="http://www.w3.org/1999/xlink" x="0px" y="0px"
	 width="800.453px" height="1035.881px" viewBox="0 0 620 1035.881" enable-background="new 0 0 800.453 1035.881"
	 xml:space="preserve">
<g>
	<defs>
		<rect id="SVGF_SVGID_1_" x="4.638" y="75" width="730.484" height="945.333"/>
	</defs>
	<clipPath id="SVGF_SVGID_2_">
		<use xlink:href="#SVGF_SVGID_1_"  overflow="visible"/>
	</clipPath>
	<g clip-path="url(#SVGF_SVGID_2_)">
		<defs>
			<rect id="SVGF_SVGID_3_" x="4.638" y="75" width="730.484" height="945.333"/>
		</defs>
		<clipPath id="SVGF_SVGID_4_">
			<use xlink:href="#SVGF_SVGID_3_"  overflow="visible"/>
		</clipPath>
    <g id="MASKF">
      <g id="BODY">
		<path clip-path="url(#SVGF_SVGID_4_)" fill="#00B1AF" d="M700.393,619.877c-0.86-6.302-10.6-70.735-11.459-77.609
			c-0.86-6.872-9.163-55.557-9.735-59.565c-0.575-4.009-9.164-29.209-13.748-44.675c-4.583-15.466-18.035-59.682-19.641-66.281
			c-1.609-6.6-4.311-20.726-4.653-23.18c-0.336-2.452-0.929-11.335-1.099-13.029c-0.173-1.693-2.537-9.897-2.537-9.897
			s-0.592-4.145-1.525-9.137c-0.927-4.992-1.353-11.167-1.353-11.167s0.171-2.877,0.171-5.416c0-2.537-1.354-6.093-1.354-6.093
			s0-3.385-0.505-8.038c-0.509-4.653-2.793-7.867-2.793-7.867l-5.077-19.629c0,0-0.258-0.505-1.188-2.96
			c-0.926-2.455-0.588-7.953-0.505-8.545c0.083-0.593,0.34-5.835,0.34-7.526c0-1.694,0.334-10.492-0.257-12.014
			c-0.591-1.523-1.185-5.332-1.606-7.869c-0.423-2.538-0.339-8.799-0.171-9.561c0.176-0.762-1.354-4.909-1.775-3.809
			c-0.423,1.102-3.044,4.485-4.824,8.124c-1.779,3.64-9.773,8.286-9.773,8.286c-4.112,2.247-16.697,7.915-50.738,12.029
			c-34.041,4.117-96.137,5.61-189.66,8.976c-93.52,3.366-115.216-3.366-157.862-9.352c-42.645-5.984-82.296-28.43-82.296-28.43
			s1.146,4.427,1.146,9.869c0,5.442-2.294,8.306-2.866,11.17c-0.572,2.862,1.146,8.59,1.146,10.309c0,1.717-1.146,4.294-1.433,5.727
			c-0.286,1.431,0.287,3.724,0.287,5.443c0,1.718-0.858,7.729-1.718,9.45c-0.858,1.719-3.721,13.173-4.58,18.042
			c-0.86,4.868-3.438,24.915-4.012,28.063c-0.572,3.15-1.431,20.906-2.291,24.344c-0.858,3.437-8.304,24.915-8.59,27.492
			c-0.287,2.577-6.301,22.337-6.873,24.055c-0.571,1.718-12.603,38.661-15.181,44.39c-2.576,5.727-9.451,31.787-10.022,33.504
			c-0.572,1.719-4.866,38.948-8.019,57.563c-3.151,18.619-10.882,54.127-13.458,66.439c-2.579,12.314-5.729,51.551-6.015,69.593
			c-0.288,18.039,4.01,78.47,4.01,81.331c0,2.863,4.009,38.378,4.296,40.38c0.287,2.003,1.43,10.596,1.43,11.456
			c0,0.855,2.866,23.77,3.151,26.633c0.285,2.862,4.582,29.21,4.582,29.21s0,4.009,0.86,6.014c0.859,2.003,2.579,3.436,5.153,4.295
			c2.58,0.858,13.749,3.722,43.532,7.16c29.782,3.434,82.191,0.286,107.966-3.438c25.772-3.725,50.973-12.026,50.973-12.026
			s0.838,0.055,1.975,0.093c2.714-18.05,9.138-60.519,10.485-67.252c1.718-8.591,20.19-100.949,24.485-118.131
			c4.295-17.182,6.874-41.238,24.914-46.821c18.044-5.587,56.515-1.208,72.601,14.603c25.342,24.917,29.638,68.301,35.652,92.359
			c6.014,24.056,15.462,64.865,15.895,70.878c0.429,6.012,6.013,24.914,6.013,24.914l-1.719,3.007c0,0-0.431,3.867,1.289,6.015
			c1.718,2.148,2.579,4.728,1.289,6.444c-1.289,1.722-2.147,4.296-1.289,6.016c0.862,1.716,4.297,7.298,4.297,8.591
			c0,0.713,0.114,5.757,0.217,10.123c1.636,0.188,3.218,0.334,3.218,0.334s32.648,10.021,75.317,14.89
			c42.667,4.868,90.781-0.858,103.097-1.719c12.311-0.858,28.064-3.438,31.785-4.295c3.724-0.86,4.587-3.152,5.731-4.87
			c1.142-1.719,2.001-17.466,2.001-18.616v-4.864c0,0-0.859-2.294-0.859-3.437c0-1.145,2.009-2.293,2.868-3.727
			c0.861-1.434-0.574-4.58-0.574-4.58s-0.574-4.01-0.574-5.158c0-1.146,0.858-9.45,0.858-11.74c0-2.293,2.294-16.61,2.869-19.762
			c0.571-3.15,4.581-32.931,6.295-42.952c1.72-10.021,3.438-41.526,4.298-63.291C701.536,657.396,701.251,626.181,700.393,619.877"
			/>
	</g>
       <g id="Side_Strip">
		<path clip-path="url(#SVGF_SVGID_6_)" fill="#C64421" d="M108.218,804.58c0-0.859-1.144-9.454-1.432-11.455
			c-0.285-2.004-4.294-37.518-4.294-40.379c0-2.862-4.297-63.293-4.011-81.332c0.287-18.044,3.437-57.279,6.014-69.593
			c2.579-12.312,10.309-47.821,13.46-66.44c3.152-18.614,7.447-55.842,8.019-57.56c0.571-1.72,7.445-27.779,10.022-33.508
			c2.577-5.727,14.607-42.671,15.18-44.389c0.572-1.717,6.585-21.478,6.873-24.054c0.285-2.579,7.732-24.058,8.591-27.494
			c0.859-3.436,1.716-21.192,2.291-24.344c0.574-3.148,3.151-23.195,4.011-28.062c0.859-4.869,3.722-16.324,4.581-18.042
			c0.859-1.719,1.717-7.733,1.717-9.45s-0.573-4.011-0.287-5.444c0.287-1.43,1.434-4.008,1.434-5.726
			c0-1.719-1.719-7.446-1.147-10.31c0.573-2.864,2.866-5.728,2.866-11.17c0-2.837-0.311-5.392-0.608-7.193
			c-31.684-8.824-56.728-22.994-56.728-22.994s1.146,4.428,1.146,9.87c0,5.442-2.294,8.306-2.866,11.169
			c-0.572,2.863,1.147,8.592,1.147,10.311c0,1.717-1.147,4.294-1.434,5.725c-0.286,1.432,0.287,3.725,0.287,5.444
			c0,1.718-0.858,7.73-1.718,9.45c-0.859,1.719-3.721,13.174-4.581,18.043c-0.859,4.865-3.436,24.914-4.011,28.062
			c-0.573,3.151-1.432,20.907-2.29,24.343c-0.859,3.437-8.305,24.916-8.592,27.495c-0.286,2.575-6.298,22.336-6.872,24.054
			c-0.572,1.718-12.603,38.662-15.179,44.389c-2.578,5.729-9.451,31.788-10.022,33.505c-0.571,1.72-4.867,38.948-8.02,57.563
			c-3.151,18.619-10.882,54.127-13.458,66.439c-2.578,12.314-5.728,51.551-6.014,69.593c-0.288,18.039,4.009,78.471,4.009,81.331
			c0,2.863,4.009,38.378,4.296,40.38c0.287,2.003,1.431,10.596,1.431,11.457c0,0.855,2.864,23.769,3.15,26.632
			c0.285,2.862,4.582,29.21,4.582,29.21s0,4.009,0.861,6.014c0.858,2.003,2.577,3.436,5.153,4.295
			c2.579,0.858,13.748,3.722,43.532,7.16c1.994,0.229,4.097,0.427,6.28,0.6c-1.043-6.427-3.981-24.61-4.215-26.961
			C111.083,828.35,108.218,805.437,108.218,804.58"/>
		<path clip-path="url(#SVGF_SVGID_6_)" fill="#C64421" d="M677.764,862.157c3.724-0.86,4.587-3.152,5.731-4.87
			c1.142-1.719,2.001-17.466,2.001-18.616v-4.863c0,0-0.859-2.295-0.859-3.438c0-1.145,2.008-2.293,2.868-3.725
			c0.861-1.436-0.574-4.582-0.574-4.582s-0.574-4.01-0.574-5.158c0-1.146,0.858-9.45,0.858-11.74c0-2.292,2.294-16.61,2.869-19.762
			c0.571-3.15,4.581-32.931,6.295-42.952c1.72-10.021,3.438-41.526,4.298-63.291c0.859-21.764,0.574-52.979-0.284-59.283
			c-0.86-6.302-10.6-70.735-11.459-77.609c-0.86-6.872-9.163-55.559-9.735-59.566c-0.575-4.009-9.164-29.21-13.748-44.674
			c-4.583-15.466-18.035-59.682-19.641-66.282c-1.609-6.6-4.311-20.725-4.653-23.18c-0.336-2.453-0.929-11.335-1.099-13.03
			c-0.173-1.693-2.537-9.896-2.537-9.896s-0.592-4.145-1.525-9.137c-0.927-4.991-1.353-11.168-1.353-11.168s0.171-2.876,0.171-5.414
			c0-2.537-1.354-6.093-1.354-6.093s0-3.385-0.505-8.037c-0.509-4.652-2.793-7.868-2.793-7.868l-5.077-19.63
			c0,0-0.258-0.505-1.188-2.958c-0.926-2.454-0.588-7.954-0.505-8.546c0.083-0.591,0.34-5.833,0.34-7.526
			c0-1.693,0.334-10.491-0.257-12.012c-0.591-1.523-1.185-5.333-1.606-7.87c-0.423-2.538-0.339-8.799-0.171-9.561
			c0.176-0.762-1.354-4.908-1.775-3.807c-0.423,1.1-3.044,4.484-4.824,8.124c-1.779,3.64-9.773,8.288-9.773,8.288
			c-3.564,1.946-13.506,6.463-38.258,10.311c-0.068,2.228-0.031,6.094,0.278,7.958c0.422,2.536,1.019,6.345,1.609,7.869
			c0.589,1.521,0.254,10.32,0.254,12.013c0,1.692-0.254,6.935-0.339,7.526c-0.085,0.593-0.421,6.091,0.505,8.545
			c0.932,2.455,1.188,2.961,1.188,2.961l5.075,19.628c0,0,2.285,3.215,2.796,7.868c0.504,4.653,0.504,8.036,0.504,8.036
			s1.354,3.558,1.354,6.094c0,2.538-0.17,5.415-0.17,5.415s0.423,6.176,1.352,11.168c0.933,4.992,1.523,9.136,1.523,9.136
			s2.368,8.204,2.538,9.897c0.17,1.695,0.764,10.577,1.099,13.031c0.341,2.454,3.045,16.579,4.654,23.179
			c1.607,6.6,15.057,50.815,19.644,66.283c4.582,15.463,13.171,40.663,13.744,44.673c0.575,4.008,8.878,52.694,9.735,59.564
			c0.859,6.875,10.6,71.308,11.461,77.609c0.856,6.304,1.144,37.521,0.284,59.283c-0.86,21.765-2.578,53.271-4.297,63.293
			c-1.719,10.021-5.725,39.802-6.3,42.951c-0.572,3.151-2.868,17.47-2.868,19.761c0,2.292-0.856,10.597-0.856,11.74
			c0,1.148,0.575,5.159,0.575,5.159s1.435,3.146,0.571,4.582c-0.859,1.431-2.866,2.58-2.866,3.726c0,1.142,0.86,3.438,0.86,3.438
			v4.861c0,0.518-0.176,3.983-0.47,7.8c6.989-0.587,12.369-1.113,15.474-1.329C658.289,865.594,674.043,863.015,677.764,862.157"/>
	</g>
     
    </g>
    <g id="CUSTOM"></g>
  </g>
	<g clip-path="url(#SVGF_SVGID_2_)">
		<defs>
			<rect id="SVGF_SVGID_5_" x="4.638" y="75" width="730.484" height="945.333"/>
		</defs>
		<clipPath id="SVGF_SVGID_6_">
			<use xlink:href="#SVGF_SVGID_5_"  overflow="visible"/>
		</clipPath>
   
    </g>
	<g clip-path="url(#SVGF_SVGID_2_)">
		<defs>
			<rect id="SVGF_SVGID_7_" x="4.638" y="75" width="730.484" height="945.333"/>
		</defs>
		<clipPath id="SVGF_SVGID_8_">
			<use xlink:href="#SVGF_SVGID_7_"  overflow="visible"/>
		</clipPath>
    
    </g>
	<g clip-path="url(#SVGF_SVGID_2_)">
		<defs>
			<rect id="SVGF_SVGID_9_" x="4.638" y="75" width="730.484" height="945.333"/>
		</defs>
		<clipPath id="SVGF_SVGID_10_">
			<use xlink:href="#SVGF_SVGID_9_"  overflow="visible"/>
		</clipPath>
      <g id="Bottom_Leg">
		<path clip-path="url(#SVGF_SVGID_8_)" fill="#FDBB2D" d="M550.113,782.807c-40.259-1.342-73.643-7.379-99.653-14.401
			c2.123,9.661,3.625,17.12,3.79,19.433c0.429,6.012,6.013,24.914,6.013,24.914l-1.719,3.007c0,0-0.431,3.867,1.289,6.015
			c1.718,2.148,2.579,4.728,1.289,6.444c-1.289,1.722-2.147,4.299-1.289,6.016c0.862,1.716,4.297,7.298,4.297,8.591
			c0,0.713,0.114,5.757,0.217,10.123c1.636,0.188,3.218,0.334,3.218,0.334s32.648,10.021,75.317,14.89
			c42.666,4.868,90.781-0.858,103.097-1.719c12.311-0.858,28.064-3.438,31.785-4.295c3.724-0.86,4.587-3.152,5.731-4.87
			c1.142-1.719,2.001-17.466,2.001-18.616v-4.864c0,0-0.859-2.294-0.859-3.437c0-1.145,2.009-2.293,2.868-3.725
			c0.861-1.436-0.574-4.582-0.574-4.582s-0.574-4.01-0.574-5.158c0-1.146,0.858-9.45,0.858-11.74c0-2.292,2.294-16.61,2.869-19.762
			c0.223-1.229,0.969-6.521,1.899-13.104C665.435,777.934,617.364,785.047,550.113,782.807"/>
		<path clip-path="url(#SVGF_SVGID_8_)" fill="#FDBB2D" d="M52.026,784.263c0,0.856,2.864,23.77,3.15,26.631
			c0.285,2.864,4.583,29.212,4.583,29.212s0,4.009,0.86,6.014c0.858,2.003,2.577,3.436,5.153,4.295
			c2.579,0.858,13.748,3.722,43.532,7.16c29.781,3.436,82.19,0.286,107.965-3.438c25.773-3.725,50.975-12.025,50.975-12.025
			s0.838,0.054,1.973,0.092c2.716-18.05,9.14-60.518,10.487-67.252c0.383-1.915,1.602-8.008,3.307-16.496
			c-23.909,3.783-54.61,7.752-93.17,11.224c-76.511,6.885-119.672,2.489-140.8-1.552c0.292,2.538,0.499,4.281,0.556,4.681
			C50.883,774.81,52.026,783.402,52.026,784.263"/>
	</g>
    <g id="CROTCH">
		<path clip-path="url(#SVGF_SVGID_10_)" fill="#004D86" d="M459.832,834.233c-0.858-1.717,0-4.294,1.289-6.016
			c1.29-1.718,0.43-4.296-1.289-6.444c-1.72-2.147-1.289-6.016-1.289-6.016l1.719-3.006c0,0-5.584-18.902-6.013-24.914
			c-0.433-6.013-9.881-46.822-15.895-70.878c-6.015-24.058-10.31-67.442-35.652-92.359c-16.085-15.811-54.557-20.19-72.601-14.603
			c-18.041,5.583-20.619,29.64-24.914,46.821c-4.295,17.182-22.768,109.54-24.485,118.131c-1.348,6.734-7.771,49.202-10.485,67.252
			c1.523,0.05,3.585,0.073,4.898-0.092c2.292-0.284,4.297-3.149,4.297-3.149s4.866-1.146,9.451-2.291
			c4.578-1.149,9.162-3.724,13.172-7.735c4.011-4.011,2.577-11.742,2.577-11.742s2.864-10.88,3.722-14.03
			c0.859-3.153,6.016-13.748,7.161-16.327c1.146-2.572,0.859-5.724,0.859-5.724s13.747-32.936,22.051-58.707
			c8.301-25.775,26.633-112.264,26.633-112.264l16.897,5.153c0,0,3.722,12.888,4.009,16.899c0.289,4.012,7.445,31.216,8.876,36.941
			c1.434,5.73,11.455,40.668,14.89,50.691c3.437,10.021,19.477,52.98,22.34,59.854c2.861,6.874,9.739,20.903,10.022,22.337
			c0.287,1.434,0.287,4.011,0.287,5.438c0,1.431,0.857,5.73,0.857,5.73l1.718,2.293c0,0,0,2.862,0.29,4.298
			c0.29,1.431,1.43,4.292,1.718,5.15c0.289,0.86,2.58,11.171,2.58,11.171v3.148l0.567,2.864c0,0,2.581,4.009,3.438,5.441
			c0.859,1.434,6.874,4.868,8.882,5.156c0.585,0.081,1.264,0.164,1.936,0.239c-0.103-4.366-0.217-9.41-0.217-10.123
			C464.129,841.531,460.694,835.948,459.832,834.233"/>
	</g>
   
    </g>
	<g clip-path="url(#SVGF_SVGID_2_)">
		<defs>
			<rect id="SVGF_SVGID_11_" x="4.638" y="75" width="730.484" height="945.333"/>
		</defs>
		<clipPath id="SVGF_SVGID_12_">
			<use xlink:href="#SVGF_SVGID_11_"  overflow="visible"/>
		</clipPath>
		<g opacity="0.6" clip-path="url(#SVGF_SVGID_12_)">
			<g>
				<defs>
					<rect id="SVGF_SVGID_13_" x="113.56" y="174.374" width="519.217" height="82.358"/>
				</defs>
				<clipPath id="SVGF_SVGID_14_">
					<use xlink:href="#SVGF_SVGID_13_"  overflow="visible"/>
				</clipPath>
				<g clip-path="url(#SVGF_SVGID_14_)">
					<defs>
						<rect id="SVGF_SVGID_15_" x="113.56" y="174.374" width="519.217" height="82.358"/>
					</defs>
					<clipPath id="SVGF_SVGID_16_">
						<use xlink:href="#SVGF_SVGID_15_"  overflow="visible"/>
					</clipPath>
					<g transform="matrix(1 0 0 1 0 -1.525879e-005)" clip-path="url(#SVGF_SVGID_16_)">
						
							<image overflow="visible" width="435" height="69" xlink:href="/content/images/4B4BD382.png"  transform="matrix(1.1936 0 0 1.1936 113.5601 174.3735)">
						</image>
					</g>
				</g>
			</g>
		</g>
	</g>
	<g clip-path="url(#SVGF_SVGID_2_)">
		<defs>
			<path id="SVGF_SVGID_17_" d="M125.125,206.168c0,0,13.698,6.803,16.51,8.056c5.437,2.414,40.467,17.309,86.783,23.757
				c113.944,15.866,259.803,0.913,320.336-3.168c42.789-2.884,70.672-14.423,72.116-28.846
				c1.101-11.003-44.714-17.308-269.23-20.191c-13.101-0.169-25.438-0.248-37.067-0.248
				C126.902,185.527,125.125,206.168,125.125,206.168"/>
		</defs>
		<clipPath id="SVGF_SVGID_18_">
			<use xlink:href="#SVGF_SVGID_17_"  overflow="visible"/>
		</clipPath>
		
			<radialGradient id="SVGF_SVGID_19_" cx="188.0879" cy="1036.3682" r="1.192" gradientTransform="matrix(362 -4 -4 -362 -63632.0547 375950.5625)" gradientUnits="userSpaceOnUse">
			<stop  offset="0" style="stop-color:#FFFFFF"/>
			<stop  offset="1" style="stop-color:#000000"/>
		</radialGradient>
		<polygon clip-path="url(#SVGF_SVGID_18_)" fill="url(#SVGF_SVGID_19_)" points="124.371,185.536 621.911,180.039 622.726,253.838 
			125.186,259.337 		"/>
	</g>
	<g clip-path="url(#SVGF_SVGID_2_)">
		<defs>
			<rect id="SVGF_SVGID_20_" x="4.638" y="75" width="730.484" height="945.333"/>
		</defs>
		<clipPath id="SVGF_SVGID_21_">
			<use xlink:href="#SVGF_SVGID_20_"  overflow="visible"/>
		</clipPath>
		<path clip-path="url(#SVGF_SVGID_21_)" fill-rule="evenodd" clip-rule="evenodd" fill="#6E7CBC" d="M118.348,742.348
			c-6.212,0-11.268,5.053-11.268,11.267c0,6.213,5.056,11.263,11.268,11.263h19.845c6.216,0,11.271-5.05,11.271-11.263
			c0-6.214-5.056-11.267-11.267-11.267H118.348z"/>
		<path clip-path="url(#SVGF_SVGID_21_)" fill="none" stroke="#6E7CBC" stroke-width="1.2" d="M118.348,742.348
			c-6.212,0-11.268,5.053-11.268,11.267c0,6.213,5.056,11.263,11.268,11.263h19.845c6.216,0,11.271-5.05,11.271-11.263
			c0-6.214-5.056-11.267-11.267-11.267H118.348z"/>
		<path clip-path="url(#SVGF_SVGID_21_)" fill-rule="evenodd" clip-rule="evenodd" fill="#6E7CBC" d="M138.198,743.379
			c5.653,0,10.234,4.585,10.234,10.235c0,5.652-4.581,10.237-10.238,10.237h-19.845c-5.652,0-10.236-4.585-10.236-10.237
			c0-5.65,4.583-10.235,10.236-10.235H138.198z"/>
		<path clip-path="url(#SVGF_SVGID_21_)" fill="none" stroke="#FFFFFF" stroke-width="0.6" stroke-miterlimit="3.864" d="
			M138.198,743.379c5.653,0,10.234,4.585,10.234,10.235c0,5.652-4.581,10.237-10.238,10.237h-19.845
			c-5.652,0-10.236-4.585-10.236-10.237c0-5.65,4.583-10.235,10.236-10.235H138.198z"/>
		<path clip-path="url(#SVGF_SVGID_21_)" fill="#FFFFFF" d="M111.271,753.585c0-3.954,3.067-7.186,6.953-7.449v14.896
			C114.337,760.772,111.271,757.532,111.271,753.585"/>
		<polygon clip-path="url(#SVGF_SVGID_21_)" fill-rule="evenodd" clip-rule="evenodd" fill="#FFFFFF" points="125.945,752.611 
			119.454,746.117 125.945,746.117 		"/>
		<polygon clip-path="url(#SVGF_SVGID_21_)" fill-rule="evenodd" clip-rule="evenodd" fill="#FFFFFF" points="125.945,754.559 
			119.454,761.05 125.945,761.05 		"/>
		<polygon clip-path="url(#SVGF_SVGID_21_)" fill-rule="evenodd" clip-rule="evenodd" fill="#EC2227" points="134.088,752.611 
			140.576,746.117 134.088,746.117 		"/>
		<polygon clip-path="url(#SVGF_SVGID_21_)" fill-rule="evenodd" clip-rule="evenodd" fill="#EC2227" points="134.088,754.559 
			140.576,761.05 134.088,761.05 		"/>
		<rect x="127.326" y="746.117" clip-path="url(#SVGF_SVGID_21_)" fill="#EC2227" width="5.385" height="14.934"/>
		<path clip-path="url(#SVGF_SVGID_21_)" fill-rule="evenodd" clip-rule="evenodd" fill="#6E7CBC" d="M118.348,742.348
			c-6.212,0-11.268,5.053-11.268,11.267c0,6.213,5.056,11.263,11.268,11.263h19.845c6.216,0,11.271-5.05,11.271-11.263
			c0-6.214-5.056-11.267-11.267-11.267H118.348z"/>
		<path clip-path="url(#SVGF_SVGID_21_)" fill="none" stroke="#6E7CBC" stroke-width="1.2" d="M118.348,742.348
			c-6.212,0-11.268,5.053-11.268,11.267c0,6.213,5.056,11.263,11.268,11.263h19.845c6.216,0,11.271-5.05,11.271-11.263
			c0-6.214-5.056-11.267-11.267-11.267H118.348z"/>
		<path clip-path="url(#SVGF_SVGID_21_)" fill-rule="evenodd" clip-rule="evenodd" fill="#6E7CBC" d="M138.198,743.379
			c5.653,0,10.234,4.585,10.234,10.235c0,5.652-4.581,10.237-10.238,10.237h-19.845c-5.652,0-10.236-4.585-10.236-10.237
			c0-5.65,4.583-10.235,10.236-10.235H138.198z"/>
		<path clip-path="url(#SVGF_SVGID_21_)" fill="none" stroke="#FFFFFF" stroke-width="0.6" stroke-miterlimit="3.864" d="
			M138.198,743.379c5.653,0,10.234,4.585,10.234,10.235c0,5.652-4.581,10.237-10.238,10.237h-19.845
			c-5.652,0-10.236-4.585-10.236-10.237c0-5.65,4.583-10.235,10.236-10.235H138.198z"/>
		<path clip-path="url(#SVGF_SVGID_21_)" fill="#FFFFFF" d="M111.271,753.585c0-3.954,3.067-7.186,6.953-7.449v14.896
			C114.337,760.772,111.271,757.532,111.271,753.585"/>
		<polygon clip-path="url(#SVGF_SVGID_21_)" fill-rule="evenodd" clip-rule="evenodd" fill="#FFFFFF" points="125.945,752.611 
			119.454,746.117 125.945,746.117 		"/>
		<polygon clip-path="url(#SVGF_SVGID_21_)" fill-rule="evenodd" clip-rule="evenodd" fill="#FFFFFF" points="125.945,754.559 
			119.454,761.05 125.945,761.05 		"/>
		<polygon clip-path="url(#SVGF_SVGID_21_)" fill-rule="evenodd" clip-rule="evenodd" fill="#EC2227" points="134.088,752.611 
			140.576,746.117 134.088,746.117 		"/>
		<polygon clip-path="url(#SVGF_SVGID_21_)" fill-rule="evenodd" clip-rule="evenodd" fill="#EC2227" points="134.088,754.559 
			140.576,761.05 134.088,761.05 		"/>
		<rect x="127.326" y="746.117" clip-path="url(#SVGF_SVGID_21_)" fill="#EC2227" width="5.385" height="14.934"/>
		<path clip-path="url(#SVGF_SVGID_21_)" fill-rule="evenodd" clip-rule="evenodd" fill="#005DAA" d="M118.348,742.348
			c-6.212,0-11.268,5.053-11.268,11.267c0,6.213,5.056,11.263,11.268,11.263h19.845c6.216,0,11.271-5.05,11.271-11.263
			c0-6.214-5.056-11.267-11.267-11.267H118.348z"/>
		<path clip-path="url(#SVGF_SVGID_21_)" fill="none" stroke="#005DAA" stroke-width="1.2" d="M118.348,742.348
			c-6.212,0-11.268,5.053-11.268,11.267c0,6.213,5.056,11.263,11.268,11.263h19.845c6.216,0,11.271-5.05,11.271-11.263
			c0-6.214-5.056-11.267-11.267-11.267H118.348z"/>
		<path clip-path="url(#SVGF_SVGID_21_)" fill-rule="evenodd" clip-rule="evenodd" fill="#005DAA" d="M138.198,743.379
			c5.653,0,10.234,4.585,10.234,10.235c0,5.652-4.581,10.237-10.238,10.237h-19.845c-5.652,0-10.236-4.585-10.236-10.237
			c0-5.65,4.583-10.235,10.236-10.235H138.198z"/>
		<path clip-path="url(#SVGF_SVGID_21_)" fill="none" stroke="#FFFFFF" stroke-width="0.6" stroke-miterlimit="3.864" d="
			M138.198,743.379c5.653,0,10.234,4.585,10.234,10.235c0,5.652-4.581,10.237-10.238,10.237h-19.845
			c-5.652,0-10.236-4.585-10.236-10.237c0-5.65,4.583-10.235,10.236-10.235H138.198z"/>
		<path clip-path="url(#SVGF_SVGID_21_)" fill="#FFFFFF" d="M111.271,753.585c0-3.954,3.067-7.186,6.953-7.449v14.896
			C114.337,760.772,111.271,757.532,111.271,753.585"/>
		<polygon clip-path="url(#SVGF_SVGID_21_)" fill-rule="evenodd" clip-rule="evenodd" fill="#FFFFFF" points="125.945,752.611 
			119.454,746.117 125.945,746.117 		"/>
		<polygon clip-path="url(#SVGF_SVGID_21_)" fill-rule="evenodd" clip-rule="evenodd" fill="#FFFFFF" points="125.945,754.559 
			119.454,761.05 125.945,761.05 		"/>
		<polygon clip-path="url(#SVGF_SVGID_21_)" fill-rule="evenodd" clip-rule="evenodd" fill="#EC2227" points="134.088,752.611 
			140.576,746.117 134.088,746.117 		"/>
		<polygon clip-path="url(#SVGF_SVGID_21_)" fill-rule="evenodd" clip-rule="evenodd" fill="#EC2227" points="134.088,754.559 
			140.576,761.05 134.088,761.05 		"/>
		<rect x="127.326" y="746.117" clip-path="url(#SVGF_SVGID_21_)" fill="#EC2227" width="5.385" height="14.934"/>
		<g opacity="0.5" clip-path="url(#SVGF_SVGID_21_)">
			<g>
				<defs>
					<rect id="SVGF_SVGID_22_" x="127.604" y="186.733" width="493.283" height="59.672"/>
				</defs>
				<clipPath id="SVGF_SVGID_23_">
					<use xlink:href="#SVGF_SVGID_22_"  overflow="visible"/>
				</clipPath>
				<path clip-path="url(#SVGF_SVGID_23_)" fill="#FFFFFF" d="M127.604,208.603c0,0-0.481-24.519,224.036-21.633
					c224.517,2.884,270.331,9.189,269.229,20.192c-1.443,14.421-30.318,26.312-73.107,29.196
					c-60.532,4.082-204.797,18.684-318.739,2.818c-46.317-6.45-86.517-20.957-88.92-22.881
					C137.7,214.374,127.604,208.603,127.604,208.603"/>
			</g>
		</g>
		<g opacity="0.35" clip-path="url(#SVGF_SVGID_21_)">
			<g>
				<defs>
					<rect id="SVGF_SVGID_24_" x="40.512" y="205.644" width="660.5" height="663.385"/>
				</defs>
				<clipPath id="SVGF_SVGID_25_">
					<use xlink:href="#SVGF_SVGID_24_"  overflow="visible"/>
				</clipPath>
				<g opacity="0.35" clip-path="url(#SVGF_SVGID_25_)">
					<g>
						<defs>
							<rect id="SVGF_SVGID_26_" x="597.324" y="206.694" width="103.688" height="456.428"/>
						</defs>
						<clipPath id="SVGF_SVGID_27_">
							<use xlink:href="#SVGF_SVGID_26_"  overflow="visible"/>
						</clipPath>
						<path clip-path="url(#SVGF_SVGID_27_)" fill="#897F76" d="M597.324,226.009c0,0,2.834,8.688,3.406,10.405
							c0.572,1.718,4.013,4.01,4.013,4.01s1.715,14.89,2.002,17.755c0.287,2.864-4.296,8.591-4.296,8.591v11.455l4.313,0.5
							c0,0,17.451,49.331,19.743,57.921c2.292,8.592,13.744,45.821,13.744,52.12c0,6.303,9.171,30.359,9.743,33.221
							c0.569,2.863,16.034,64.151,18.326,68.732c2.29,4.581,7.446,48.683,10.31,57.274c2.861,8.593,4.006,16.038,6.3,28.065
							c2.292,12.028,0.576,28.063,4.011,35.511c3.436,7.448,11.454,51.553,11.454,51.553s1.722-33.223-0.572-47.542
							c-2.289-14.321-9.736-56.709-9.736-62.433c0-5.727-6.873-53.836-9.737-64.146c-2.866-10.309-25.773-84.198-27.493-89.352
							c-1.718-5.155-11.362-46.611-11.697-51.083c-0.331-4.474-3.196-22.229-4.341-25.666c-1.145-3.437-2.338-12.153-2.173-17.566
							c0.171-5.414-1.184-11.508-1.184-11.508l-0.505-8.038l-2.793-7.866c0,0-3.656-10.006-3.656-12.299
							c0-2.291-2.352-7.407-2.608-10.29c-0.255-2.882-0.255-6.321-0.255-6.321s-0.107-7.416,0.03-10.314
							c0,0,0.208-8.018-0.197-11.45c-0.406-3.435-1.955-9.431-1.955-12.292c0-1.641,0.531-8.413-0.605-8.26
							c0,0-2.931,6.438-5.243,8.967C610.264,221.576,597.324,226.009,597.324,226.009"/>
					</g>
				</g>
				<g opacity="0.5" clip-path="url(#SVGF_SVGID_25_)">
					<g>
						<defs>
							<rect id="SVGF_SVGID_28_" x="40.512" y="205.644" width="623.062" height="663.385"/>
						</defs>
						<clipPath id="SVGF_SVGID_29_">
							<use xlink:href="#SVGF_SVGID_28_"  overflow="visible"/>
						</clipPath>
						<g opacity="0.35" clip-path="url(#SVGF_SVGID_29_)">
							<g>
								<defs>
									<rect id="SVGF_SVGID_30_" x="40.512" y="205.644" width="283.577" height="652.79"/>
								</defs>
								<clipPath id="SVGF_SVGID_31_">
									<use xlink:href="#SVGF_SVGID_30_"  overflow="visible"/>
								</clipPath>
								<path clip-path="url(#SVGF_SVGID_31_)" fill="#897F76" d="M207.064,234.074c0,0-3.254,33.268,12.782,41.288l16.039,8.018
									c0,0,0,8.018-13.747,19.474c-13.748,11.457-30.931,20.619-37.803,24.058c-6.874,3.435-14.891,12.597-14.891,20.617
									c0,8.02,17.181,26.347,6.874,44.675c-10.311,18.328-32.077,11.456-44.676,28.639
									c-12.602,17.185-12.603,114.553-24.056,162.664c-11.455,48.114-9.165,107.672-9.165,122.569
									c0,14.893,6.872,38.95,9.165,63.005c2.292,24.058,10.309,28.64,10.309,34.367v16.034l-3.436,37.804l56.13,1.146
									c0,0,20.618-45.822,12.601-72.169c-8.018-26.347-25.2-67.587-30.929-84.769c-5.727-17.184-11.455-22.911-9.165-54.986
									c2.292-32.072,9.165-28.636,8.019-68.73c-1.146-40.093,0-65.293,3.438-74.457c3.438-9.167,22.909,4.58,29.783,11.452
									c6.873,6.878,56.132,41.242,73.313,58.425c17.184,17.181,38.946,28.638,42.385,28.638c3.436,0,24.055,11.45,24.055,11.45
									s-8.888,6.59-13.689,21.585c-8.233,25.725-14.763,67.886-18.383,83.805c-5.729,25.2-14.893,77.897-14.893,85.916
									c0,8.015-5.542,37.878-5.542,37.878s-76.652,15.199-97.27,15.199c-20.62,0-103.383-2.959-108.54-7.256
									c-5.153-4.294-6.014-10.309-6.014-10.309l-1.429-14.896c0,0-21.764-142.042-17.183-179.844
									c4.581-37.805,21.767-137.463,24.056-152.354c2.29-14.896,3.725-43.249,9.165-56.134
									c5.438-12.882,33.22-93.932,35.511-104.242c2.29-10.309,1.141-23.475,2.86-28.922c1.721-5.443,2.867-31.79,5.157-37.516
									c2.292-5.729,5.153-18.039,5.153-18.039l1.721-42.517c0,0,30.929,13.588,45.82,18.171
									C185.482,228.397,207.064,234.074,207.064,234.074"/>
							</g>
						</g>
						<g opacity="0.35" clip-path="url(#SVGF_SVGID_29_)">
							<g>
								<defs>
									<rect id="SVGF_SVGID_32_" x="271.582" y="606.671" width="195.982" height="246.723"/>
								</defs>
								<clipPath id="SVGF_SVGID_33_">
									<use xlink:href="#SVGF_SVGID_32_"  overflow="visible"/>
								</clipPath>
								<path clip-path="url(#SVGF_SVGID_33_)" fill="#897F76" d="M302.036,828.935c0,0-7.428,5.966-13.172,7.735
									c-6.049,1.858-17.282,5.801-17.282,5.801s3.375-27.295,8.25-60.591c8.645-59.075,27.229-151.084,40.076-164.434
									c19.38-20.136,59.183-6.94,69.493-1.211s29.77,14.239,42.37,63.494c0,0,14.257,46.652,16.327,62.528
									c2.07,15.873,10.697,53.137,11.042,58.66c0.344,5.521,3.448,12.422,3.448,21.735c0,9.316,1.543,20.171,1.543,20.171
									l3.435,10.457c0,0-3.606,0.495-5.154-0.573c-1.547-1.07-6.036-2.449-7.069-3.487c-1.032-1.034-5.25-7.11-5.25-7.11
									s-0.868-4.301-0.567-6.013c0.297-1.713-1.771-8.961-3.154-13.788c-1.381-4.834-1.381-8.282-1.381-8.282
									s-3.579-3.778-3.103-5.174c0.476-1.398-0.345-8.627-1.036-10.354c-0.689-1.724-18.291-37.609-32.434-82.811
									c-11.014-35.199-22.088-83.155-22.777-85.92c-0.684-2.761-3.702-14.475-3.702-14.475s-15.069-6.15-16.897-5.153
									c-1.827,0.998-14.972,73.99-20.802,93.127c-5.832,19.137-18.975,61.078-22.432,65.904
									c-3.449,4.827-5.572,13.757-5.572,13.757s-1.106,1.643-2.422,5.503c-1.322,3.861-5.46,13.866-6.498,18.008
									c-1.032,4.139-2.644,8.053-2.702,10.754c-0.056,2.703,0.291,4.768-0.401,7.185
									C303.521,826.795,302.036,828.935,302.036,828.935"/>
							</g>
						</g>
						<g opacity="0.35" clip-path="url(#SVGF_SVGID_29_)">
							<g>
								<defs>
									<rect id="SVGF_SVGID_34_" x="475.369" y="255.766" width="188.206" height="613.263"/>
								</defs>
								<clipPath id="SVGF_SVGID_35_">
									<use xlink:href="#SVGF_SVGID_34_"  overflow="visible"/>
								</clipPath>
								<path clip-path="url(#SVGF_SVGID_35_)" fill="#897F76" d="M568.086,868.168c0,0-7.734-42.097-0.859-60.998
									c6.869-18.9,4.294-75.604,14.604-91.93c10.308-16.323,32.646-21.478,22.334-48.109
									c-10.306-26.637-43.813-56.707-37.8-88.493c6.013-31.79,13.747-59.278,10.309-60.998
									c-3.434-1.718-45.533-17.183-50.689-21.48c-5.153-4.294-65.291-11.167-47.251-57.562
									c18.042-46.391,24.058-64.435,28.352-88.491c4.295-24.057-14.604-73.886-14.604-73.886l-6.877-0.857
									c0,0,59.282-5.157,71.311-6.875c12.029-1.717,35.225-10.308,39.521-11.168c4.295-0.859,10.31-3.435,10.31,0.86
									c0,4.294-10.31,6.873-13.745,8.591c-3.437,1.717-36.945,9.45-36.945,9.45s-5.155,2.577-5.155,10.312
									c0,7.731,4.299,17.181,11.171,28.35c6.873,11.167,22.338,3.435,31.789,35.224c9.451,31.79,14.603,56.704,18.041,79.9
									c3.438,23.197,19.76,73.886,28.349,95.365c8.594,21.476,24.919,87.63,23.199,103.096
									c-1.718,15.465-4.295,54.986-5.154,67.013c-0.858,12.029-4.296,78.183-4.296,84.196c0,6.013-15.465,33.503-19.761,41.237
									c-4.294,7.732-7.732,12.886-9.45,20.617c-1.719,7.734-2.578,25.778-2.578,25.778s-13.747,1.717-24.913,1.717
									C586.125,869.026,568.086,868.168,568.086,868.168"/>
							</g>
						</g>
					</g>
				</g>
			</g>
		</g>
	</g>
	<g clip-path="url(#SVGF_SVGID_2_)">
		<defs>
			<rect id="SVGF_SVGID_36_" x="4.638" y="75" width="730.484" height="945.333"/>
		</defs>
		<clipPath id="SVGF_SVGID_37_">
			<use xlink:href="#SVGF_SVGID_36_"  overflow="visible"/>
		</clipPath>
		<g clip-path="url(#SVGF_SVGID_37_)">
			<g>
				<defs>
					<rect id="SVGF_SVGID_38_" x="55.038" y="214.829" width="632.465" height="628.451"/>
				</defs>
				<clipPath id="SVGF_SVGID_39_">
					<use xlink:href="#SVGF_SVGID_38_"  overflow="visible"/>
				</clipPath>
				<g opacity="0.5" clip-path="url(#SVGF_SVGID_39_)">
					<g>
						<defs>
							<rect id="SVGF_SVGID_40_" x="125.5" y="214.829" width="496.721" height="46.157"/>
						</defs>
						<clipPath id="SVGF_SVGID_41_">
							<use xlink:href="#SVGF_SVGID_40_"  overflow="visible"/>
						</clipPath>
						
							<path clip-path="url(#SVGF_SVGID_41_)" fill="none" stroke="#897F76" stroke-width="1.195" stroke-miterlimit="10" stroke-dasharray="2.879,1.44" d="
							M125.914,215.511c0,0,15.23,10.86,28.394,16.417c13.162,5.558,64.929,21.646,99.734,25.741
							c34.802,4.092,110.843,2.628,165.536,0.582c54.695-2.047,129.566-8.186,137.17-8.771c7.604-0.587,21.354-1.464,23.984-2.047
							c2.633-0.586,22.813-5.265,28.373-9.653c5.554-4.388,7.307-6.437,8.479-8.19c1.17-1.754,2.238-5.344,2.238-5.344l1.7-9.289"/>
					</g>
				</g>
				<g opacity="0.5" clip-path="url(#SVGF_SVGID_39_)">
					<g>
						<defs>
							<rect id="SVGF_SVGID_42_" x="123.5" y="236.824" width="498.725" height="51.55"/>
						</defs>
						<clipPath id="SVGF_SVGID_43_">
							<use xlink:href="#SVGF_SVGID_42_"  overflow="visible"/>
						</clipPath>
						
							<path clip-path="url(#SVGF_SVGID_43_)" fill="none" stroke="#897F76" stroke-width="1.195" stroke-miterlimit="10" stroke-dasharray="2.879,1.44" d="
							M124.194,236.991c0.302,1.258,1.159,5.468,2.329,6.93c1.169,1.462,16.67,10.53,44.748,19.596
							c28.079,9.065,81.307,21.643,116.405,23.69c35.096,2.046,106.164-3.511,157.637-2.926
							c51.476,0.586,125.767-9.943,146.53-14.623s29.788-18.116,29.788-18.116"/>
					</g>
				</g>
				<g opacity="0.5" clip-path="url(#SVGF_SVGID_39_)">
					<g>
						<defs>
							<rect id="SVGF_SVGID_44_" x="121.69" y="253.895" width="500.54" height="49.367"/>
						</defs>
						<clipPath id="SVGF_SVGID_45_">
							<use xlink:href="#SVGF_SVGID_44_"  overflow="visible"/>
						</clipPath>
						
							<path clip-path="url(#SVGF_SVGID_45_)" fill="none" stroke="#897F76" stroke-width="1.195" stroke-miterlimit="10" stroke-dasharray="2.879,1.44" d="
							M122.136,254.451c0,0,17.842,14.33,64.636,28.37c46.795,14.039,89.201,22.813,183.966,18.717
							c94.757-4.095,150.038-4.678,188.935-11.405c38.899-6.729,43.577-9.947,47.089-11.407c3.509-1.463,9.365-4.093,10.823-5.556
							c1.458-1.464,4.047-5.426,4.047-5.426"/>
					</g>
				</g>
				<g opacity="0.5" clip-path="url(#SVGF_SVGID_39_)">
					<g>
						<defs>
							<rect id="SVGF_SVGID_46_" x="55.038" y="782.622" width="261.839" height="38.747"/>
						</defs>
						<clipPath id="SVGF_SVGID_47_">
							<use xlink:href="#SVGF_SVGID_46_"  overflow="visible"/>
						</clipPath>
						
							<path clip-path="url(#SVGF_SVGID_47_)" fill="none" stroke="#897F76" stroke-width="1.195" stroke-miterlimit="10" stroke-dasharray="2.879,1.44" d="
							M55.176,810.896c0,0,33.193,6.591,67.976,7.915c34.785,1.322,48.213,4.627,94.668-3.077
							c46.456-7.706,64.95-11.231,71.554-14.092c6.606-2.864,13.649-5.282,16.952-7.483c3.303-2.2,7.265-4.846,7.487-5.727
							c0.218-0.88,2.42-5.503,2.42-5.503"/>
					</g>
				</g>
				<g opacity="0.5" clip-path="url(#SVGF_SVGID_39_)">
					<g>
						<defs>
							<rect id="SVGF_SVGID_48_" x="56.288" y="803.187" width="252.08" height="27.128"/>
						</defs>
						<clipPath id="SVGF_SVGID_49_">
							<use xlink:href="#SVGF_SVGID_48_"  overflow="visible"/>
						</clipPath>
						
							<path clip-path="url(#SVGF_SVGID_49_)" fill="none" stroke="#897F76" stroke-width="1.195" stroke-miterlimit="10" stroke-dasharray="2.879,1.44" d="
							M56.445,819.694c0,0,44.032,9.906,81.899,9.906c37.866,0,75.073-2.642,112.06-10.347
							c36.989-7.704,50.202-11.451,52.402-12.771c2.2-1.318,5.282-2.642,5.282-2.642"/>
					</g>
				</g>
				<g opacity="0.5" clip-path="url(#SVGF_SVGID_39_)">
					<g>
						<defs>
							<rect id="SVGF_SVGID_50_" x="445.559" y="822.957" width="240.03" height="20.322"/>
						</defs>
						<clipPath id="SVGF_SVGID_51_">
							<use xlink:href="#SVGF_SVGID_50_"  overflow="visible"/>
						</clipPath>
						
							<path clip-path="url(#SVGF_SVGID_51_)" fill="none" stroke="#897F76" stroke-width="1.195" stroke-miterlimit="10" stroke-dasharray="2.879,1.44" d="
							M446.062,823.461c0,0,3.317,3.318,9.392,4.421c3.31,0.601,5.667,0.336,5.667,0.336s49.85,7.118,63.384,9.055
							s43.371,7.734,86.458,4.144c43.089-3.59,74.533-7.608,74.533-7.608"/>
					</g>
				</g>
				<g opacity="0.5" clip-path="url(#SVGF_SVGID_39_)">
					<g>
						<defs>
							<rect id="SVGF_SVGID_52_" x="442.021" y="811.665" width="245.482" height="21.437"/>
						</defs>
						<clipPath id="SVGF_SVGID_53_">
							<use xlink:href="#SVGF_SVGID_52_"  overflow="visible"/>
						</clipPath>
						
							<path clip-path="url(#SVGF_SVGID_53_)" fill="none" stroke="#897F76" stroke-width="1.195" stroke-miterlimit="10" stroke-dasharray="2.879,1.44" d="
							M442.749,811.861c0,0-1.656,5.799,28.725,9.944c30.383,4.143,69.882,13.533,128.714,9.67
							c58.839-3.865,85.096-7.222,86.742-9.412"/>
					</g>
				</g>
			</g>
		</g>
		<g opacity="0.5" clip-path="url(#SVGF_SVGID_37_)">
			<g>
				<defs>
					<rect id="SVGF_SVGID_54_" x="618.86" y="213.769" width="16.714" height="99.928"/>
				</defs>
				<clipPath id="SVGF_SVGID_55_">
					<use xlink:href="#SVGF_SVGID_54_"  overflow="visible"/>
				</clipPath>
				
					<path clip-path="url(#SVGF_SVGID_55_)" fill="none" stroke="#897F76" stroke-width="0.797" stroke-miterlimit="10" stroke-dasharray="2.879,1.44" d="
					M621.632,213.824c0,0-0.536,4.65-1.122,6.99c-0.589,2.341-1.175,5.268-1.175,7.313c0,2.047,0.298,4.971,0.88,6.728
					c0.584,1.756,3.721,10.121,3.177,11.934c-0.543,1.812-2.593,5.905-2.593,8.245c0,2.341,0.881,15.795,1.756,19.304
					c0.876,3.512,4.968,19.01,6.729,21.935c1.755,2.925,2.635,6.727,2.924,8.482c0.291,1.757,2.925,8.776,2.925,8.776"/>
			</g>
		</g>
		<g opacity="0.5" clip-path="url(#SVGF_SVGID_37_)">
			<g>
				<defs>
					<rect id="SVGF_SVGID_56_" x="270.35" y="607.205" width="194.255" height="246.357"/>
				</defs>
				<clipPath id="SVGF_SVGID_57_">
					<use xlink:href="#SVGF_SVGID_56_"  overflow="visible"/>
				</clipPath>
				
					<path clip-path="url(#SVGF_SVGID_57_)" fill="none" stroke="#897F76" stroke-width="0.797" stroke-miterlimit="10" stroke-dasharray="2.879,1.44" d="
					M464.129,853.561v-10.736c0-1.293-3.436-6.875-4.297-8.591c-0.858-1.717,0-4.294,1.287-6.016
					c1.292-1.717,0.431-4.296-1.287-6.444c-1.72-2.147-1.289-6.015-1.289-6.015l1.719-3.007c0,0-5.584-18.902-6.013-24.914
					c-0.433-6.012-9.881-46.822-15.895-70.878c-6.015-24.058-10.31-67.442-35.652-92.359c-16.085-15.811-54.556-20.19-72.601-14.603
					c-18.041,5.583-20.618,29.64-24.914,46.821c-4.295,17.182-22.767,109.54-24.484,118.131c-1.72,8.593-9.882,66.581-9.882,66.581"
					/>
			</g>
		</g>
		
			<path clip-path="url(#SVGF_SVGID_37_)" fill="none" stroke="#897F76" stroke-width="1.195" stroke-miterlimit="10" stroke-dasharray="2.879,1.44" d="
			M144.612,215.517c0,0,3.397-22.167,231.227-19.875c240.921,2.423,238.497,19.875,238.497,19.875"/>
		
			<path clip-path="url(#SVGF_SVGID_37_)" fill="none" stroke="#897F76" stroke-width="1.195" stroke-miterlimit="10" stroke-dasharray="2.879,1.44" d="
			M155.277,219.879c0,0-7.268-19.363,220.562-17.07c240.921,2.423,233.165,19.009,233.165,19.009"/>
	</g>
</g>
</svg>
