<?xml version="1.0" encoding="utf-8"?>
<!-- Generator: Adobe Illustrator 16.0.0, SVG Export Plug-In . SVG Version: 6.00 Build 0)  -->
<!DOCTYPE svg PUBLIC "-//W3C//DTD SVG 1.1//EN" "http://www.w3.org/Graphics/SVG/1.1/DTD/svg11.dtd">
<svg version="1.1" id="Layer_1" xmlns="http://www.w3.org/2000/svg" xmlns:xlink="http://www.w3.org/1999/xlink" x="0px" y="0px"
	 width="800.453px" height="1035.881px" viewBox="0 0 620 1035.881" enable-background="new 0 0 800.453 1035.881"
	 xml:space="preserve">
<g>
	<defs>
		<rect id="SVGID_1_" x="-12" y="7" width="792.391" height="1025.447"/>
	</defs>
	<clipPath id="SVGID_2_">
		<use xlink:href="#SVGID_1_"  overflow="visible"/>
	</clipPath>
	<g clip-path="url(#SVGID_2_)">
		<defs>
			<rect id="SVGID_3_" x="-12" y="7" width="792.391" height="1025.447"/>
		</defs>
		<clipPath id="SVGID_4_">
			<use xlink:href="#SVGID_3_"  overflow="visible"/>
		</clipPath>
     <g id="MASK">
      <g id="UPPER_PHASE_BOTTOM_PHASE">
		<path clip-path="url(#SVGID_4_)" fill="#004D86" d="M632.724,189.758c0,0-29.628-9.875-71.323-26.334
			c-26.316-10.388-49.565-26.018-64.52-37.241c-7.41,8.081-38.4,36.103-112.307,36.834c-73.28,0.727-108.573-30.619-117.965-40.633
			c-14.44,11.23-40.043,29.416-69.495,41.04c-41.695,16.459-71.32,26.334-71.32,26.334s-0.971,0.703-2.481,1.747v0.006
			c0.017,0.839,0.041,1.766,0.069,2.756c0.002,0.079,0.005,0.16,0.008,0.241c0.013,0.463,0.029,0.94,0.045,1.429
			c0.001,0.029,0.001,0.057,0.002,0.086c0.018,0.512,0.038,1.042,0.06,1.579c0.004,0.105,0.007,0.213,0.011,0.319
			c0.019,0.434,0.038,0.874,0.057,1.322c0.007,0.136,0.012,0.27,0.019,0.409c0.026,0.546,0.052,1.102,0.082,1.663
			c0.002,0.073,0.006,0.147,0.01,0.218c0.025,0.489,0.053,0.98,0.081,1.476c0.011,0.175,0.021,0.349,0.032,0.525
			c0.027,0.471,0.057,0.944,0.088,1.42c0.007,0.112,0.013,0.221,0.021,0.331c0.038,0.576,0.079,1.154,0.122,1.735
			c0.012,0.157,0.024,0.313,0.036,0.47c0.035,0.446,0.069,0.889,0.105,1.335c0.016,0.175,0.03,0.352,0.045,0.527
			c0.049,0.581,0.1,1.159,0.156,1.736c0.005,0.063,0.011,0.128,0.018,0.191c0.051,0.519,0.102,1.034,0.157,1.546
			c0.019,0.174,0.038,0.346,0.056,0.518c0.05,0.454,0.103,0.907,0.155,1.353c0.015,0.129,0.03,0.257,0.046,0.385
			c0.068,0.554,0.14,1.104,0.213,1.643c0.018,0.132,0.038,0.26,0.056,0.39c0.061,0.428,0.123,0.849,0.188,1.263
			c0.023,0.151,0.046,0.301,0.07,0.452c0.084,0.523,0.171,1.039,0.262,1.541c2.336,12.846,15.183,60.146,18.102,74.16
			c2.919,14.015,16.35,88.175,18.102,96.934c0.121,0.601,0.229,1.231,0.327,1.881c0.008,0.055,0.016,0.11,0.023,0.165
			c0.092,0.607,0.173,1.231,0.248,1.87c0.009,0.068,0.017,0.135,0.024,0.204c0.073,0.646,0.139,1.305,0.197,1.968
			c0.004,0.048,0.009,0.096,0.013,0.146c0.061,0.708,0.114,1.424,0.159,2.138c0.001,0.011,0.001,0.021,0.001,0.032
			c0.046,0.708,0.083,1.415,0.114,2.117c0.003,0.06,0.005,0.116,0.007,0.174c0.031,0.666,0.055,1.323,0.073,1.971
			c0.003,0.058,0.004,0.117,0.006,0.176c0.019,0.672,0.034,1.333,0.044,1.974c0,0.01,0,0.022,0,0.034
			c0.011,0.669,0.018,1.318,0.021,1.938c0.035-0.087,0.056-0.138,0.056-0.138s6.583,35.111,5.485,49.376
			c-1.097,14.265,6.584,103.14,12.072,130.573c5.484,27.43,12.067,97.655,6.583,127.282
			c-5.486,29.624-18.654,108.628-21.946,142.643c-3.292,34.015-3.292,59.251-3.292,59.251s-4.388,4.389-4.388,8.779
			c0,4.389,2.195,14.263,2.195,14.263v7.683c0,0,2.193,16.458,47.182,19.75c44.987,3.29,98.752,4.389,115.21,7.681
			c4.282,0.856,9.607,1.712,15.388,2.509l-0.026,0.783c0,0,21.944,3.29,36.209,3.29c1.615,0,3.467-0.043,5.485-0.124
			c2.021,0.081,3.872,0.124,5.488,0.124c14.263,0,36.208-3.29,36.208-3.29l-0.027-0.783c5.781-0.797,11.107-1.652,15.388-2.509
			c16.458-3.292,70.224-4.391,115.212-7.681c44.987-3.292,47.182-19.75,47.182-19.75v-7.683c0,0,2.195-9.874,2.195-14.263
			c0-4.391-4.39-8.779-4.39-8.779s0-25.236-3.292-59.251c-3.291-34.015-16.458-113.019-21.944-142.643
			c-5.486-29.627,1.096-99.852,6.583-127.282c5.486-27.433,13.167-116.308,12.07-130.573c-0.944-12.271,3.793-39.952,5.137-47.452
			c-0.027-5.036,0.141-12.988,1.259-18.572c1.75-8.759,15.182-82.918,18.102-96.934c2.919-14.014,15.766-61.313,18.102-74.16
			c1.648-9.065,2.133-22.194,2.275-29.141C633.52,190.336,632.724,189.758,632.724,189.758"/>
	</g>
         <g id="BODY">
		<path clip-path="url(#SVGID_18_)" fill="#FDBB2D" d="M589.931,457.487c-0.944-12.271,3.793-39.951,5.137-47.452
			c-0.025-5.036,0.141-12.988,1.259-18.573c1.75-8.758,15.182-82.918,18.102-96.933c2.645-12.699,13.44-52.726,17.183-69.688
			l-505.277-0.768c3.57,16.473,14.662,57.554,17.35,70.455c2.92,14.015,16.351,88.175,18.103,96.933
			c0.12,0.601,0.228,1.233,0.327,1.881c0.008,0.055,0.016,0.11,0.023,0.165c0.092,0.607,0.174,1.233,0.248,1.869
			c0.008,0.069,0.015,0.136,0.024,0.205c0.072,0.646,0.139,1.304,0.197,1.968c0.004,0.049,0.007,0.096,0.012,0.145
			c0.063,0.708,0.116,1.424,0.16,2.14c0,0.01,0.001,0.02,0.001,0.031c0.046,0.708,0.083,1.414,0.114,2.116
			c0.004,0.059,0.006,0.117,0.008,0.176c0.03,0.664,0.054,1.322,0.072,1.97c0.003,0.058,0.004,0.116,0.006,0.175
			c0.018,0.673,0.034,1.333,0.044,1.974c0,0.012,0,0.022,0,0.034c0.012,0.671,0.017,1.319,0.021,1.939
			c0.035-0.088,0.056-0.14,0.056-0.14s6.583,35.112,5.486,49.377c-0.831,10.814,3.382,64.507,7.859,101.804l405.577,0.412
			C586.518,522.392,590.765,468.341,589.931,457.487"/>
	</g>
       <g id="UPPER_LINE">
		<path clip-path="url(#SVGID_16_)" fill="#004D86" d="M582.039,559.563H176.478c0.685,5.693,1.375,10.999,2.055,15.705h401.451
			C580.665,570.562,581.354,565.255,582.039,559.563"/>
	</g>
        <g id="MIDDLE_LINE">
		<path clip-path="url(#SVGID_14_)" fill="#FDBB2D" d="M577.86,588.06c0.673-3.362,1.379-7.654,2.097-12.613H178.559
			c0.719,4.959,1.424,9.25,2.098,12.613c0.194,0.975,0.389,2.016,0.587,3.094h396.028C577.47,590.076,577.666,589.035,577.86,588.06
			"/>
	</g>
        <g id="BOTTOM_LINE">
		<path clip-path="url(#SVGID_12_)" fill="#FFFFFF" d="M577.262,591.215H181.254c0.814,4.466,1.642,9.785,2.442,15.704h391.123
			C575.619,601,576.446,595.681,577.262,591.215"/>
	</g>
          <g id="SLEEVES">
		<path clip-path="url(#SVGID_6_)" fill="#FDBB2D" d="M621.921,350.1c-0.008,0.035-0.013,0.056-0.013,0.056
			S621.915,350.131,621.921,350.1"/>
		<path clip-path="url(#SVGID_6_)" fill="#004D86" d="M163.023,406.311c0-0.011,0-0.023,0-0.034
			c-0.01-0.641-0.025-1.301-0.045-1.974c-0.001-0.059-0.003-0.118-0.005-0.176c-0.019-0.647-0.042-1.305-0.072-1.971
			c-0.002-0.058-0.005-0.117-0.008-0.174c-0.031-0.702-0.068-1.409-0.114-2.117c0-0.011-0.001-0.021-0.001-0.031
			c-0.047-0.715-0.1-1.432-0.16-2.139c-0.004-0.048-0.008-0.097-0.014-0.146c-0.058-0.664-0.123-1.322-0.196-1.968
			c-0.008-0.067-0.015-0.136-0.023-0.204c-0.073-0.639-0.157-1.263-0.248-1.87c-0.007-0.054-0.016-0.11-0.024-0.165
			c-0.098-0.65-0.207-1.28-0.328-1.881c-1.751-8.759-15.182-82.918-18.102-96.934c-2.918-14.014-15.767-61.313-18.101-74.16
			c-0.093-0.501-0.179-1.017-0.263-1.541c-0.023-0.15-0.047-0.3-0.07-0.45c-0.065-0.416-0.127-0.836-0.187-1.264
			c-0.018-0.13-0.038-0.257-0.056-0.39c-0.075-0.54-0.146-1.089-0.213-1.643c-0.017-0.127-0.031-0.256-0.045-0.385
			c-0.055-0.446-0.107-0.898-0.156-1.353c-0.02-0.172-0.037-0.344-0.057-0.518c-0.055-0.513-0.106-1.027-0.156-1.546
			c-0.006-0.063-0.012-0.126-0.019-0.191c-0.055-0.577-0.106-1.155-0.156-1.736c-0.016-0.175-0.03-0.352-0.044-0.527
			c-0.036-0.446-0.072-0.89-0.106-1.335c-0.011-0.156-0.024-0.312-0.036-0.469c-0.043-0.582-0.083-1.159-0.122-1.736
			c-0.008-0.11-0.013-0.219-0.021-0.331c-0.031-0.476-0.062-0.95-0.09-1.42c-0.01-0.177-0.02-0.35-0.03-0.525
			c-0.029-0.496-0.055-0.987-0.081-1.476c-0.003-0.071-0.008-0.145-0.011-0.218c-0.029-0.562-0.056-1.115-0.081-1.663
			c-0.006-0.139-0.014-0.273-0.02-0.409c-0.019-0.449-0.037-0.888-0.056-1.322c-0.003-0.106-0.008-0.214-0.012-0.319
			c-0.021-0.539-0.042-1.067-0.059-1.579c-0.001-0.029-0.002-0.056-0.002-0.084c-0.017-0.492-0.033-0.967-0.046-1.431
			c-0.003-0.081-0.006-0.16-0.007-0.241c-0.03-0.992-0.054-1.916-0.071-2.756v-0.006c-3.878,2.672-11.434,7.646-16.172,9.226
			c-6.583,2.194-43.889,30.723-54.862,69.127C41.305,308.261,39.11,402.625,39.11,402.625l-3.293,16.459l-3.292,9.875
			c0,0,38.404,9.875,71.322,12.069c32.918,2.195,53.765,2.195,53.765,2.195s2.194-2.195,1.098-8.779
			c-1.098-6.583-2.194-8.777-1.098-12.069c1.025-3.077,4.927-12.863,5.432-14.125C163.041,407.63,163.034,406.98,163.023,406.311"/>
		<path clip-path="url(#SVGID_6_)" fill="#004D86" d="M722.697,419.083l-3.292-16.458c0,0-2.193-94.364-13.167-132.769
			c-10.973-38.403-48.279-66.932-54.861-69.127c-4.9-1.632-12.833-6.909-16.572-9.502c-0.143,6.946-0.627,20.075-2.275,29.141
			c-2.336,12.847-15.183,60.146-18.102,74.16c-2.92,14.015-16.352,88.174-18.102,96.933c-1.118,5.584-1.284,13.539-1.259,18.573
			c0.218-1.22,0.35-1.925,0.35-1.925s4.388,10.973,5.486,14.264c1.098,3.292,0,5.487-1.099,12.071
			c-1.097,6.583,1.099,8.777,1.099,8.777s20.848,0,53.766-2.194c32.917-2.195,71.321-12.07,71.321-12.07L722.697,419.083z"/>
      </g>
	</g>
   <g id="CUSTOM"></g>
	</g>     
	<g  clip-path="url(#SVGID_2_)">
		<defs>
			<rect id="SVGID_5_" x="-12" y="7" width="792.391" height="1025.447"/>
		</defs>
		<clipPath id="SVGID_6_">
			<use xlink:href="#SVGID_5_"  overflow="visible"/>
		</clipPath>
	</g>
	<g id="CROTCH" clip-path="url(#SVGID_2_)">
		<defs>
			<rect id="SVGID_7_" x="-12" y="7" width="792.391" height="1025.447"/>
		</defs>
		<clipPath id="SVGID_8_">
			<use xlink:href="#SVGID_7_"  overflow="visible"/>
		</clipPath>
		<path clip-path="url(#SVGID_8_)" fill="#FDBB2D" d="M157.613,422.375c0.303-0.91,0.859-2.407,1.502-4.094
			c-7.482-0.465-25.218-1.652-50.169-3.87c-24.509-2.179-55.154-8.127-69.957-11.189l-3.171,15.862l-3.292,9.875
			c0,0,38.403,9.875,71.321,12.07c32.917,2.194,53.765,2.194,53.765,2.194s2.194-2.194,1.098-8.778
			C157.613,427.862,156.515,425.667,157.613,422.375"/>
		<path clip-path="url(#SVGID_8_)" fill="#FDBB2D" d="M722.697,419.083l-3.287-16.439c-13.414,2.82-46.574,9.443-72.73,11.767
			c-22.217,1.976-38.714,3.133-47.348,3.692c0.672,1.759,1.257,3.332,1.571,4.272c1.098,3.292,0,5.487-1.099,12.071
			c-1.097,6.583,1.099,8.777,1.099,8.777s20.848,0,53.766-2.194c32.917-2.195,71.321-12.07,71.321-12.07L722.697,419.083z"/>
	</g>
	<g  id="COLLAR" clip-path="url(#SVGID_2_)">
		<defs>
			<rect id="SVGID_9_" x="-12" y="7" width="792.391" height="1025.447"/>
		</defs>
		<clipPath id="SVGID_10_">
			<use xlink:href="#SVGID_9_"  overflow="visible"/>
		</clipPath>
		<path clip-path="url(#SVGID_10_)" fill="#FDBB2D" d="M384.575,163.017c73.908-0.731,104.896-28.753,112.306-36.833
			c-8.739-6.558-14.653-11.615-16.676-13.233c-5.487-4.389-5.487-7.681-10.973-10.973c-5.486-3.292-7.68-13.167-18.652-18.652
			c-6.985-3.493-38.412-4.763-60.34-5.224l-0.009-0.264c0,0-4.313,0-10.973,0.081c-6.66-0.081-10.974-0.081-10.974-0.081
			l-0.007,0.264c-21.929,0.46-53.356,1.731-60.34,5.224c-10.973,5.485-13.167,15.361-18.654,18.652
			c-5.485,3.292-5.485,6.583-10.971,10.973c-1.611,1.29-5.699,4.765-11.702,9.434C276.001,132.398,311.292,163.744,384.575,163.017"
			/>
	</g>
	<g clip-path="url(#SVGID_2_)">
		<defs>
			<rect id="SVGID_11_" x="-12" y="7" width="792.391" height="1025.447"/>
		</defs>
		<clipPath id="SVGID_12_">
			<use xlink:href="#SVGID_11_"  overflow="visible"/>
		</clipPath>
   
    </g>
	<g clip-path="url(#SVGID_2_)">
		<defs>
			<rect id="SVGID_13_" x="-12" y="7" width="792.391" height="1025.447"/>
		</defs>
		<clipPath id="SVGID_14_">
			<use xlink:href="#SVGID_13_"  overflow="visible"/>
		</clipPath>
     
    </g>
	<g clip-path="url(#SVGID_2_)">
		<defs>
			<rect id="SVGID_15_" x="-12" y="7" width="792.391" height="1025.447"/>
		</defs>
		<clipPath id="SVGID_16_">
			<use xlink:href="#SVGID_15_"  overflow="visible"/>
		</clipPath>
     
	</g>
    
	<g clip-path="url(#SVGID_2_)">
		<defs>
			<rect id="SVGID_17_" x="-12" y="7" width="792.391" height="1025.447"/>
		</defs>
		<clipPath id="SVGID_18_">
			<use xlink:href="#SVGID_17_"  overflow="visible"/>
		</clipPath>
   
    </g>
	<g clip-path="url(#SVGID_2_)">
		<defs>
			<rect id="SVGID_19_" x="-12" y="7" width="792.391" height="1025.447"/>
		</defs>
		<clipPath id="SVGID_20_">
			<use xlink:href="#SVGID_19_"  overflow="visible"/>
		</clipPath>
		<g opacity="0.35" clip-path="url(#SVGID_20_)">
			<g>
				<defs>
					<rect id="SVGID_21_" x="270.152" y="119.283" width="223.775" height="39.865"/>
				</defs>
				<clipPath id="SVGID_22_">
					<use xlink:href="#SVGID_21_"  overflow="visible"/>
				</clipPath>
				<path clip-path="url(#SVGID_22_)" fill="none" stroke="#5C7BA8" stroke-miterlimit="10" stroke-dasharray="0.859,0.859" d="
					M493.386,123.96c0,0-22.377,33.671-108.759,34.527c-87.18,0.862-113.939-38.843-113.939-38.843"/>
			</g>
		</g>
		<g opacity="0.35" clip-path="url(#SVGID_20_)">
			<g>
				<defs>
					<rect id="SVGID_23_" x="37.818" y="407.188" width="119.796" height="15.835"/>
				</defs>
				<clipPath id="SVGID_24_">
					<use xlink:href="#SVGID_23_"  overflow="visible"/>
				</clipPath>
				<path clip-path="url(#SVGID_24_)" fill="none" stroke="#5C7BA8" stroke-miterlimit="10" stroke-dasharray="0.859,0.859" d="
					M37.991,407.813c0,0,27.445,7.591,61.897,11.094c34.452,3.504,57.726,3.469,57.726,3.469"/>
			</g>
		</g>
		<g opacity="0.35" clip-path="url(#SVGID_20_)">
			<g>
				<defs>
					<rect id="SVGID_25_" x="37.818" y="412.371" width="119.796" height="15.835"/>
				</defs>
				<clipPath id="SVGID_26_">
					<use xlink:href="#SVGID_25_"  overflow="visible"/>
				</clipPath>
				<path clip-path="url(#SVGID_26_)" fill="none" stroke="#5C7BA8" stroke-miterlimit="10" stroke-dasharray="0.859,0.859" d="
					M37.991,412.996c0,0,27.445,7.591,61.897,11.094c34.452,3.504,57.726,3.469,57.726,3.469"/>
			</g>
		</g>
		<g opacity="0.35" clip-path="url(#SVGID_20_)">
			<g>
				<defs>
					<rect id="SVGID_27_" x="601.658" y="407.188" width="119.798" height="15.835"/>
				</defs>
				<clipPath id="SVGID_28_">
					<use xlink:href="#SVGID_27_"  overflow="visible"/>
				</clipPath>
				<path clip-path="url(#SVGID_28_)" fill="none" stroke="#5C7BA8" stroke-miterlimit="10" stroke-dasharray="0.859,0.859" d="
					M721.283,407.813c0,0-27.445,7.591-61.897,11.094c-34.451,3.504-57.727,3.469-57.727,3.469"/>
			</g>
		</g>
		<g opacity="0.35" clip-path="url(#SVGID_20_)">
			<g>
				<defs>
					<rect id="SVGID_29_" x="601.658" y="412.371" width="119.798" height="15.835"/>
				</defs>
				<clipPath id="SVGID_30_">
					<use xlink:href="#SVGID_29_"  overflow="visible"/>
				</clipPath>
				<path clip-path="url(#SVGID_30_)" fill="none" stroke="#5C7BA8" stroke-miterlimit="10" stroke-dasharray="0.859,0.859" d="
					M721.283,412.996c0,0-27.445,7.591-61.897,11.094c-34.451,3.504-57.727,3.469-57.727,3.469"/>
			</g>
		</g>
		<g opacity="0.35" clip-path="url(#SVGID_20_)">
			<g>
				<defs>
					<rect id="SVGID_31_" x="158.855" y="917.061" width="438.281" height="43.267"/>
				</defs>
				<clipPath id="SVGID_32_">
					<use xlink:href="#SVGID_31_"  overflow="visible"/>
				</clipPath>
				<path clip-path="url(#SVGID_32_)" fill="none" stroke="#5C7BA8" stroke-miterlimit="10" stroke-dasharray="0.859,0.859" d="
					M159.449,919.923c0,0,9.343,21.605,60.729,28.612c51.386,7.006,105.551,11.687,163.501,11.095
					c57.226-0.584,170.447-19.085,182.772-21.605c25.692-5.256,30.062-20.789,30.062-20.789"/>
			</g>
		</g>
		<g opacity="0.35" clip-path="url(#SVGID_20_)">
			<g>
				<defs>
					<rect id="SVGID_33_" x="157.419" y="921.265" width="442.442" height="45.542"/>
				</defs>
				<clipPath id="SVGID_34_">
					<use xlink:href="#SVGID_33_"  overflow="visible"/>
				</clipPath>
				<path clip-path="url(#SVGID_34_)" fill="none" stroke="#5C7BA8" stroke-miterlimit="10" stroke-dasharray="0.859,0.859" d="
					M157.996,926.633c0,0,10.796,21.375,62.182,28.382S325.729,966.7,383.68,966.109c57.226-0.585,170.447-19.086,182.772-21.605
					c25.69-5.256,32.809-22.998,32.809-22.998"/>
			</g>
		</g>
		<g opacity="0.35" clip-path="url(#SVGID_20_)">
			<g>
				<defs>
					<rect id="SVGID_35_" x="594.417" y="191.226" width="41.035" height="223.62"/>
				</defs>
				<clipPath id="SVGID_36_">
					<use xlink:href="#SVGID_35_"  overflow="visible"/>
				</clipPath>
				<path clip-path="url(#SVGID_36_)" fill="none" stroke="#5C7BA8" stroke-miterlimit="10" d="M634.805,191.229
					c0,0,0.061,16.294-2.275,29.141c-2.338,12.847-15.183,60.146-18.102,74.16c-2.92,14.015-16.352,88.174-18.102,96.933
					c-1.753,8.759-1.169,23.358-1.169,23.358"/>
			</g>
		</g>
		<g opacity="0.35" clip-path="url(#SVGID_20_)">
			<g>
				<defs>
					<rect id="SVGID_37_" x="122.664" y="191.502" width="41.03" height="223.344"/>
				</defs>
				<clipPath id="SVGID_38_">
					<use xlink:href="#SVGID_37_"  overflow="visible"/>
				</clipPath>
				<path clip-path="url(#SVGID_38_)" fill="none" stroke="#5C7BA8" stroke-miterlimit="10" d="M123.311,191.504
					c0,0-0.066,16.02,2.27,28.865c2.336,12.847,15.183,60.146,18.102,74.16c2.919,14.015,16.35,88.174,18.102,96.933
					c1.752,8.759,1.168,23.358,1.168,23.358"/>
			</g>
		</g>
		<g opacity="0.35" clip-path="url(#SVGID_20_)">
			<g>
				<defs>
					<rect id="SVGID_39_" x="267.165" y="122.046" width="230.242" height="41.632"/>
				</defs>
				<clipPath id="SVGID_40_">
					<use xlink:href="#SVGID_39_"  overflow="visible"/>
				</clipPath>
				<path clip-path="url(#SVGID_40_)" fill="none" stroke="#5C7BA8" stroke-miterlimit="10" stroke-dasharray="0.859,0.859" d="
					M496.881,126.184c0,0-25.925,35.979-112.307,36.834c-87.18,0.864-116.883-40.594-116.883-40.594"/>
			</g>
		</g>
	</g>
	<g clip-path="url(#SVGID_2_)">
		<defs>
			<rect id="SVGID_41_" x="-12" y="7" width="792.391" height="1025.447"/>
		</defs>
		<clipPath id="SVGID_42_">
			<use xlink:href="#SVGID_41_"  overflow="visible"/>
		</clipPath>
		<path clip-path="url(#SVGID_42_)" d="M163.023,406.277c0,0.011,0,0.023,0,0.034C163.023,406.3,163.023,406.288,163.023,406.277"/>
		<path clip-path="url(#SVGID_42_)" d="M163.044,408.25"/>
		<path clip-path="url(#SVGID_42_)" fill="#FFFFFF" d="M384.628,127.412c45.316,0.432,79.842-22.874,79.41-26.758
			c-0.43-3.884-7.862-11.097-12.61-14.549c-4.748-3.453-27.319-5.759-72.637-5.511c-45.836,0.25-61.364,2.003-67.625,3.506
			c-6.263,1.503-16.575,12.94-15.28,15.53S339.577,126.982,384.628,127.412"/>
		<g opacity="0.35" clip-path="url(#SVGID_42_)">
			<g>
				<defs>
					<rect id="SVGID_43_" x="295.775" y="80.576" width="168.268" height="46.842"/>
				</defs>
				<clipPath id="SVGID_44_">
					<use xlink:href="#SVGID_43_"  overflow="visible"/>
				</clipPath>
				<g clip-path="url(#SVGID_44_)">
					<defs>
						<path id="SVGID_45_" d="M384.627,127.412c45.316,0.432,79.843-22.874,79.413-26.758c-0.433-3.884-7.864-11.097-12.611-14.549
							c-4.748-3.453-27.319-5.759-72.636-5.511c-45.837,0.25-61.366,2.003-67.627,3.506c-6.262,1.503-16.575,12.94-15.28,15.53
							C297.18,102.219,339.577,126.982,384.627,127.412"/>
					</defs>
					<clipPath id="SVGID_46_">
						<use xlink:href="#SVGID_45_"  overflow="visible"/>
					</clipPath>
					
						<radialGradient id="SVGID_47_" cx="187.3696" cy="1041.2939" r="1.2948" gradientTransform="matrix(102.1332 0 0 -40.5422 -18755.5547 42299.3906)" gradientUnits="userSpaceOnUse">
						<stop  offset="0" style="stop-color:#FFFFFF"/>
						<stop  offset="1" style="stop-color:#FFFFFF"/>
					</radialGradient>
					<rect x="294.59" y="80.345" clip-path="url(#SVGID_46_)" fill="url(#SVGID_47_)" width="169.88" height="47.499"/>
				</g>
				<g clip-path="url(#SVGID_44_)">
					<defs>
						<path id="SVGID_48_" d="M384.627,127.412c45.316,0.432,79.843-22.874,79.413-26.758c-0.433-3.884-7.864-11.097-12.611-14.549
							c-4.748-3.453-27.319-5.759-72.636-5.511c-45.837,0.25-61.366,2.003-67.627,3.506c-6.262,1.503-16.575,12.94-15.28,15.53
							C297.18,102.219,339.577,126.982,384.627,127.412"/>
					</defs>
					<clipPath id="SVGID_49_">
						<use xlink:href="#SVGID_48_"  overflow="visible"/>
					</clipPath>
					
						<radialGradient id="SVGID_50_" cx="187.3696" cy="1041.2939" r="1.2948" gradientTransform="matrix(102.1332 0 0 -40.5422 -18755.5547 42299.3906)" gradientUnits="userSpaceOnUse">
						<stop  offset="0" style="stop-color:#FFFFFF"/>
						<stop  offset="0.119" style="stop-color:#D9D8D7"/>
						<stop  offset="0.3629" style="stop-color:#969393"/>
						<stop  offset="0.7064" style="stop-color:#454343"/>
						<stop  offset="1" style="stop-color:#010101"/>
					</radialGradient>
					<rect x="294.59" y="80.345" clip-path="url(#SVGID_49_)" fill="url(#SVGID_50_)" width="169.88" height="47.499"/>
				</g>
			</g>
		</g>
		<g opacity="0.5" clip-path="url(#SVGID_42_)">
			<g>
				<defs>
					<rect id="SVGID_51_" x="59.291" y="89.968" width="646.953" height="875.262"/>
				</defs>
				<clipPath id="SVGID_52_">
					<use xlink:href="#SVGID_51_"  overflow="visible"/>
				</clipPath>
				<g opacity="0.1" clip-path="url(#SVGID_52_)">
					<g>
						<defs>
							<rect id="SVGID_53_" x="439.013" y="89.968" width="195.792" height="866.515"/>
						</defs>
						<clipPath id="SVGID_54_">
							<use xlink:href="#SVGID_53_"  overflow="visible"/>
						</clipPath>
						<path clip-path="url(#SVGID_54_)" fill="#897F76" d="M596.326,391.462c1.75-8.759,15.182-82.918,18.102-96.933
							c2.919-14.014,15.766-61.313,18.102-74.16c1.648-9.066,2.133-22.195,2.275-29.141c-1.285-0.891-2.081-1.471-2.081-1.471
							s-29.629-9.875-71.323-26.334c-41.694-16.458-75.709-46.083-81.195-50.472c-5.487-4.391-5.487-7.682-10.973-10.973
							c-3.631-2.179-5.833-7.243-10.083-12.008l-2.232,0.779c3.562,3.405,6.839,7.364,7.123,9.906
							c0.228,2.051-9.306,9.521-25.026,16.051c1.271,2.638,2.19,5.128,2.338,7.044c0.565,7.359,0,6.792,0,17.547
							c0,10.755,3.961,21.507,10.754,37.357c6.792,15.847,14.15,7.356,19.244,29.999c5.095,22.64-25.47,18.678-25.47,18.678
							s27.735,3.962,58.299,2.263c30.564-1.697,23.772,0,45.281-2.263c21.51-2.265,21.51-5.661,54.338,3.396
							c32.829,9.056,7.923,29.433,5.659,52.639c-2.264,23.207-35.092,19.811-44.716,32.263
							c-9.621,12.452-3.395,109.241-2.264,119.995c1.133,10.754-22.073,29.432-22.073,29.432s-6.228,18.114-10.188,31.697
							c-3.963,13.585,6.226,41.886,5.659,72.451c-0.564,30.565-28.299,70.751-37.922,92.826
							c-9.623,22.076-2.265,43.583,13.584,91.696c15.849,48.109,6.227,6.225,18.112,20.941c11.887,14.718,6.226,9.056,12.452,29.998
							c6.228,20.943,8.491,52.642,8.491,52.642s2.264,32.826,10.188,62.826c7.925,29.998,4.528,16.413,24.905,33.96l6.454,2.39
							c6.022-4.479,6.569-8.522,6.569-8.522v-7.684c0,0,2.195-9.873,2.195-14.262c0-4.391-4.388-8.779-4.388-8.779
							s0-25.236-3.294-59.251c-3.291-34.015-16.458-113.018-21.944-142.643c-5.486-29.627,1.096-99.851,6.583-127.282
							c5.486-27.431,13.167-116.308,12.07-130.573c-0.944-12.271,3.793-39.951,5.137-47.452
							C595.042,405.001,595.208,397.047,596.326,391.462"/>
					</g>
				</g>
				<g opacity="0.1" clip-path="url(#SVGID_52_)">
					<g>
						<defs>
							<rect id="SVGID_55_" x="123.311" y="94.223" width="220.833" height="871.007"/>
						</defs>
						<clipPath id="SVGID_56_">
							<use xlink:href="#SVGID_55_"  overflow="visible"/>
						</clipPath>
						<path clip-path="url(#SVGID_56_)" fill="#897F76" d="M340.587,120.206c-25.342-7.654-43.852-18.88-44.702-20.577
							c-0.415-0.83,0.371-2.57,1.822-4.597c-0.596-0.286-1.169-0.56-1.692-0.81c-2.338,3.271-4.184,6.227-6.733,7.755
							c-5.485,3.292-5.485,6.583-10.971,10.972s-39.501,34.015-81.197,50.473c-41.695,16.459-71.321,26.334-71.321,26.334
							s-0.969,0.702-2.48,1.744c0.148,7.015,0.643,19.921,2.269,28.867c2.336,12.847,15.183,60.146,18.102,74.16
							c2.919,14.015,16.35,88.174,18.102,96.933c0.992,4.96,1.234,11.794,1.259,16.788c0.035-0.088,0.056-0.14,0.056-0.14
							s6.583,35.112,5.485,49.377c-1.096,14.265,6.584,103.142,12.072,130.573c5.484,27.431,12.067,97.655,6.583,127.282
							c-5.486,29.625-18.654,108.628-21.946,142.643c-3.292,34.015-3.292,59.253-3.292,59.253s-4.388,4.387-4.388,8.777
							c0,4.389,2.193,14.263,2.193,14.263v7.683c0,0,1.561,11.601,28.688,17.27c2.319-13.185,5.764-36.373,3.81-48.494
							c-2.83-17.546,2.264-14.148,10.188-26.036c7.924-11.888,6.226-51.507,7.358-99.054c1.132-47.544,90.563-24.338,90.563-24.338
							s7.356-10.188,6.225-24.339c-1.132-14.149-45.846-76.412-54.337-90.562c-8.49-14.15,4.529-12.452,4.529-12.452
							s-12.453-5.661-17.548-33.394c-5.094-27.735,8.491-61.696,20.943-91.129c12.453-29.433,48.677-59.996,48.677-59.996
							s-39.055,6.225-76.411-10.756c-37.357-16.979-39.622-45.847-44.716-134.71c-5.095-88.864,3.396-106.411,23.771-107.544
							c20.377-1.131,92.261,22.641,103.015,27.169c0,0,6.793-14.15,4.528-22.64c-2.263-8.491,4.529-22.074,12.454-36.792
							c7.923-14.716,7.923-7.925,10.754-10.188c2.83-2.265,0.565-15.282-1.132-19.244c-1.699-3.963-0.565-5.095,2.831-14.151
							C344.617,124.92,343.24,122.709,340.587,120.206"/>
					</g>
				</g>
				<g opacity="0.12" clip-path="url(#SVGID_52_)">
					<g>
						<defs>
							<rect id="SVGID_57_" x="59.291" y="263.556" width="101.317" height="145.465"/>
						</defs>
						<clipPath id="SVGID_58_">
							<use xlink:href="#SVGID_57_"  overflow="visible"/>
						</clipPath>
						<path clip-path="url(#SVGID_58_)" fill="#897F76" d="M136.269,356.382c-2.83-4.528-68.488-92.826-68.488-92.826
							s1.133,8.49,5.661,18.112c4.528,9.623,50.375,67.355,50.375,67.355s-41.32-45.281-43.583-48.11
							c-2.265-2.831-20.943-17.548-20.943-15.284s14.15,17.547,25.471,28.301c11.32,10.755,34.526,33.962,45.281,50.375
							c10.755,16.415,30.565,44.716,30.565,44.716s-3.962-16.415-6.792-23.207C150.985,379.022,139.099,360.911,136.269,356.382"/>
					</g>
				</g>
				<g opacity="0.12" clip-path="url(#SVGID_52_)">
					<g>
						<defs>
							<rect id="SVGID_59_" x="72.31" y="249.972" width="44.148" height="50.941"/>
						</defs>
						<clipPath id="SVGID_60_">
							<use xlink:href="#SVGID_59_"  overflow="visible"/>
						</clipPath>
						<path clip-path="url(#SVGID_60_)" fill="#897F76" d="M91.554,277.706c-3.962-5.661-19.244-27.734-19.244-27.734
							s6.224,23.206,18.678,35.092c12.452,11.887,25.47,15.849,25.47,15.849S95.516,283.366,91.554,277.706"/>
					</g>
				</g>
				<g opacity="0.12" clip-path="url(#SVGID_52_)">
					<g>
						<defs>
							<rect id="SVGID_61_" x="603.23" y="280.537" width="103.014" height="103.581"/>
						</defs>
						<clipPath id="SVGID_62_">
							<use xlink:href="#SVGID_61_"  overflow="visible"/>
						</clipPath>
						<path clip-path="url(#SVGID_62_)" fill="#897F76" d="M703.98,280.537c0,0-7.358,14.716-13.584,26.036
							c-6.226,11.321-32.829,32.829-46.979,40.752c-14.15,7.925-40.188,36.792-40.188,36.792s11.886-2.265,19.244-7.924
							c7.358-5.661,54.337-24.339,72.45-50.375C713.038,299.78,703.98,280.537,703.98,280.537"/>
					</g>
				</g>
				<g opacity="0.12" clip-path="url(#SVGID_52_)">
					<g>
						<defs>
							<rect id="SVGID_63_" x="612.852" y="366.571" width="82.073" height="33.75"/>
						</defs>
						<clipPath id="SVGID_64_">
							<use xlink:href="#SVGID_63_"  overflow="visible"/>
						</clipPath>
						<path clip-path="url(#SVGID_64_)" fill="#897F76" d="M658.698,388.645c-15.847,4.53-45.846,10.188-45.846,10.188
							s21.509,5.661,48.111-5.094c26.604-10.756,33.961-27.168,33.961-27.168S674.549,384.117,658.698,388.645"/>
					</g>
				</g>
				<g opacity="0.12" clip-path="url(#SVGID_52_)">
					<g>
						<defs>
							<rect id="SVGID_65_" x="621.923" y="291.14" width="60.55" height="58.961"/>
						</defs>
						<clipPath id="SVGID_66_">
							<use xlink:href="#SVGID_65_"  overflow="visible"/>
						</clipPath>
						<path clip-path="url(#SVGID_66_)" fill="#897F76" d="M660.397,298.648c-10.754,12.453-14.15,16.98-23.771,22.641
							c-9.37,5.511-14.444,27.649-14.705,28.811c0.228-1.005,3.823-16.003,16.402-22.02c13.019-6.227,22.074-5.661,28.302-16.415
							c6.226-10.753,15.848-18.679,15.848-18.679S671.152,286.196,660.397,298.648"/>
					</g>
				</g>
			</g>
		</g>
	</g>
</g>
</svg>
