<?xml version="1.0" encoding="utf-8"?>
<!-- Generator: Adobe Illustrator 16.0.0, SVG Export Plug-In . SVG Version: 6.00 Build 0)  -->
<!DOCTYPE svg PUBLIC "-//W3C//DTD SVG 1.1//EN" "http://www.w3.org/Graphics/SVG/1.1/DTD/svg11.dtd">
<svg version="1.1" id="Layer_1" xmlns="http://www.w3.org/2000/svg" xmlns:xlink="http://www.w3.org/1999/xlink" x="0px" y="0px"
	 width="612px" height="792px" viewBox="0 0 480 792" enable-background="new 0 0 612 792" xml:space="preserve">
<rect x="105.267" y="162.261" fill="none" width="62.022" height="89.05"/>
<rect x="113.235" y="153.945" fill="none" width="27.027" height="31.185"/>
<rect x="389.068" y="231.119" fill="none" width="63.521" height="63.871"/>
<rect x="446.997" y="221.723" fill="none" width="50.608" height="20.812"/>
<rect x="452.59" y="175.209" fill="none" width="37.337" height="36.357"/>
<rect x="235.677" y="69.237" fill="none" width="137.986" height="24.583"/>
<rect x="92.122" y="250.188" fill="none" width="73.335" height="9.694"/>
<rect x="92.122" y="253.361" fill="none" width="73.335" height="9.693"/>
<rect x="167.048" y="561.172" fill="none" width="270.258" height="26.68"/>
<rect x="166.163" y="563.765" fill="none" width="272.823" height="28.082"/>
<rect x="233.835" y="70.94" fill="none" width="141.974" height="25.672"/>
<rect x="61.693" fill="none" width="488.613" height="632.322"/>
<rect x="113.681" y="226.501" fill="none" width="27.224" height="31.411"/>
<rect x="105.653" y="127.838" fill="none" width="398.933" height="539.714"/>
<rect x="61.693" y="76.677" fill="none" width="488.613" height="632.323"/>
<g>
	<defs>
		<rect id="SB_SVGID_1_" x="39" y="105.905" width="448.5" height="580.412"/>
	</defs>
	<clipPath id="SB_SVGID_2_">
		<use xlink:href="#SB_SVGID_1_"  overflow="visible"/>
	</clipPath>
	<g clip-path="url(#SB_SVGID_2_)">
		<defs>
			<rect id="SB_SVGID_3_" x="39" y="105.905" width="448.5" height="580.412"/>
		</defs>
		<clipPath id="SB_SVGID_4_">
			<use xlink:href="#SB_SVGID_3_"  overflow="visible"/>
		</clipPath>
    <g id="MASK">
      <g id="UPPER_PHASE_BOTTOM_PHASE">
        		<path clip-path="url(#SB_SVGID_4_)" fill="#004D86" d="M405.394,192.789c-6.91-2.425-37.494-14.438-47.178-20.704
			c-10.559-6.831-24.222-17.39-27.948-20.494c-3.212-2.678-6.425-8.118-9.24-10.364c-13.186-1.674-39.608-4.784-55.475-5.018
			c-16.938-0.248-47.627,3.931-60.448,5.803c-2.596,2.549-5.479,7.175-8.363,9.579c-3.726,3.104-17.389,13.663-27.948,20.494
			c-10.558,6.832-45.957,20.495-48.442,21.116c-0.307,0.077-0.93,0.441-1.802,1.053c0.938,18.812,9.514,51.948,12.36,67.883
			c3.104,17.39,9.316,30.433,9.316,37.885v11.269c1.335,2.979,3.322,8.096,3.727,12.952c0.621,7.452,1.863,34.778,6.831,44.715
			c4.969,9.938,14.284,68.938,15.526,74.527c1.242,5.59-3.105,26.705-3.105,31.673c0,4.97-11.801,41.611-12.421,51.548
			c-0.62,9.938-3.105,23.601-3.105,33.536c0,9.938-4.348,24.843-4.348,24.843s3.727,7.453,8.695,16.77
			c4.968,9.315,13.664,24.221,16.768,32.294c3.106,8.074,15.527,26.705,40.991,35.399c3.279,1.12,7.305,2.013,11.823,2.719
			l-0.024,1.009c0,0,12.687,0.896,29.225,1.262c4.25,0.11,8.52,0.154,12.696,0.151c4.177,0.003,8.446-0.041,12.695-0.151
			c16.54-0.365,29.226-1.262,29.226-1.262l-0.024-1.009c4.518-0.706,8.543-1.599,11.825-2.719
			c25.463-8.694,37.884-27.325,40.989-35.399c3.104-8.073,11.799-22.979,16.767-32.294c4.971-9.316,8.695-16.77,8.695-16.77
			s-4.347-14.904-4.347-24.843c0-9.936-2.484-23.599-3.104-33.536c-0.622-9.937-12.422-46.578-12.422-51.548
			c0-4.968-4.348-26.083-3.104-31.673c1.241-5.59,10.557-64.59,15.526-74.527c4.967-9.937,6.21-37.263,6.831-44.715
			c0.429-5.16,2.646-10.615,3.968-13.484c0.722-4.718,1.527-10.083,2.243-15.085c1.862-13.042,9.316-66.452,13.663-79.495
			C405.527,208.388,405.687,199.048,405.394,192.789"/>

      </g>
    </g>
    <g id="CUSTOM"></g>
	</g>
	<g id="SLEEVES" clip-path="url(#SB_SVGID_2_)">
		<defs>
			<rect id="SB_SVGID_5_" x="39" y="105.905" width="448.5" height="580.412"/>
		</defs>
		<clipPath id="SB_SVGID_6_">
			<use xlink:href="#SB_SVGID_5_"  overflow="visible"/>
		</clipPath>
		<path clip-path="url(#SB_SVGID_6_)" fill="#004D86" d="M130.91,262.137c-2.845-15.936-11.422-49.071-12.36-67.884
			c-6.185,4.34-25.043,21.277-34.841,38.694c-11.179,19.875-8.694,73.285-8.694,75.769s-0.62,10.558-0.62,10.558l-1.864,3.727
			c0,0,21.116,5.589,39.126,5.589s27.948-3.106,27.948-3.106l-0.621-16.768c0,0,0.528,0.982,1.242,2.575v-11.269
			C140.226,292.568,134.014,279.527,130.91,262.137"/>
		<path clip-path="url(#SB_SVGID_6_)" fill="#004D86" d="M452.616,319.274c0,0-0.622-8.073-0.622-10.558
			c0-2.483,2.484-55.894-8.693-75.768c-11.18-19.874-34.159-39.126-36.644-39.748c-0.205-0.051-0.64-0.193-1.264-0.412
			c0.293,6.259,0.134,15.6-2.462,23.391c-4.348,13.042-11.801,66.453-13.663,79.495c-0.716,5.002-1.521,10.367-2.243,15.084
			c0.588-1.275,1-2.042,1-2.042l-0.621,16.77c0,0,9.938,3.104,27.947,3.104c18.011,0,39.127-5.589,39.127-5.589L452.616,319.274z"/>
	</g>
	<g id="COLLAR" clip-path="url(#SB_SVGID_2_)">
		<defs>
			<rect id="SB_SVGID_7_" x="39" y="105.905" width="448.5" height="580.412"/>
		</defs>
		<clipPath id="SB_SVGID_8_">
			<use xlink:href="#SB_SVGID_7_"  overflow="visible"/>
		</clipPath>
		<path clip-path="url(#SB_SVGID_8_)" fill="#FDBB2D" d="M265.553,136.209c15.867,0.233,42.289,3.344,55.475,5.017
			c-0.449-0.359-0.89-0.643-1.317-0.815c-3.105-1.242-7.453-3.727-7.453-3.727l-4.348-8.074c0,0-18.01-6.831-32.915-6.831h-22.979
			c-14.906,0-32.916,6.831-32.916,6.831l-4.348,8.074c0,0-4.348,2.485-7.452,3.727c-0.703,0.281-1.437,0.857-2.195,1.601
			C217.926,140.14,248.615,135.96,265.553,136.209"/>
	</g>
	<g id="CROTCH" clip-path="url(#SB_SVGID_2_)">
		<defs>
			<rect id="SB_SVGID_9_" x="39" y="105.905" width="448.5" height="580.412"/>
		</defs>
		<clipPath id="SB_SVGID_10_">
			<use xlink:href="#SB_SVGID_9_"  overflow="visible"/>
		</clipPath>
		<path clip-path="url(#SB_SVGID_10_)" fill="#FDBB2D" d="M110.255,314.156c-15.441-0.359-30.577-2.236-35.331-2.873
			c-0.173,3.329-0.53,7.99-0.53,7.99L72.531,323c0,0,21.115,5.589,39.126,5.589c18.01,0,27.947-3.104,27.947-3.104l-0.447-12.061
			C135.478,313.756,125.2,314.504,110.255,314.156"/>
		<path clip-path="url(#SB_SVGID_10_)" fill="#FDBB2D" d="M452.091,311.407c-5.595,0.729-19.86,2.412-34.392,2.749
			c-16.517,0.384-27.338-0.571-29.845-0.822l-0.45,12.151c0,0,9.938,3.105,27.947,3.105c18.011,0,39.127-5.589,39.127-5.589
			l-1.862-3.727C452.616,319.273,452.266,314.727,452.091,311.407"/>
	</g>
	<g clip-path="url(#SB_SVGID_2_)">
		<defs>
			<rect id="SB_SVGID_11_" x="39" y="105.905" width="448.5" height="580.412"/>
		</defs>
		<clipPath id="SB_SVGID_12_">
			<use xlink:href="#SB_SVGID_11_"  overflow="visible"/>
		</clipPath>
		<g opacity="0.35" clip-path="url(#SB_SVGID_12_)">
			<g>
				<defs>
					<rect id="SB_SVGID_13_" x="74.311" y="132.161" width="378.39" height="538.676"/>
				</defs>
				<clipPath id="SB_SVGID_14_">
					<use xlink:href="#SB_SVGID_13_"  overflow="visible"/>
				</clipPath>
				<path clip-path="url(#SB_SVGID_14_)" fill="none" stroke="#FFCD72" stroke-miterlimit="10" stroke-dasharray="0.859,0.5" d="
					M144.573,582.601c0,0,32.294,61.484,60.242,73.285c27.947,11.799,80.116,11.179,101.232,5.589
					c21.115-5.589,41.61-22.358,48.442-32.294c6.831-9.938,29.188-47.2,29.188-47.2"/>
				<path clip-path="url(#SB_SVGID_14_)" fill="none" stroke="#FFCD72" stroke-miterlimit="10" stroke-dasharray="0.859,0.5" d="
					M144.573,587.735c0,0,32.294,61.484,60.242,73.284c27.947,11.799,80.116,11.179,101.232,5.589
					c21.115-5.589,41.61-22.357,48.442-32.295c6.831-9.937,29.188-47.199,29.188-47.199"/>
				<path clip-path="url(#SB_SVGID_14_)" fill="none" stroke="#FFCD72" stroke-miterlimit="10" stroke-dasharray="0.859,0.5" d="
					M74.378,316.223c0,0,16.886,3.166,34.299,3.166c17.414,0,30.781-1.407,30.781-1.407"/>
				<path clip-path="url(#SB_SVGID_14_)" fill="none" stroke="#FFCD72" stroke-miterlimit="10" stroke-dasharray="0.859,0.5" d="
					M74.378,313.29c0,0,16.886,3.166,34.299,3.166c17.414,0,30.781-1.407,30.781-1.407"/>
				<path clip-path="url(#SB_SVGID_14_)" fill="none" stroke="#FFCD72" stroke-miterlimit="10" stroke-dasharray="0.859,0.5" d="
					M452.633,316.223c0,0-16.885,3.166-34.299,3.166c-17.412,0-30.781-1.407-30.781-1.407"/>
				<path clip-path="url(#SB_SVGID_14_)" fill="none" stroke="#FFCD72" stroke-miterlimit="10" stroke-dasharray="0.859,0.5" d="
					M452.633,313.29c0,0-16.885,3.166-34.299,3.166c-17.412,0-30.781-1.407-30.781-1.407"/>
				<path clip-path="url(#SB_SVGID_14_)" fill="none" stroke="#FFCD72" stroke-miterlimit="10" stroke-dasharray="0.859,0.5" d="
					M214.614,137.027c0,0,29.153-4.806,50.939-4.485c21.784,0.32,46.773,4.166,46.773,4.166"/>
				<path clip-path="url(#SB_SVGID_14_)" fill="none" stroke="#FFCD72" stroke-miterlimit="10" stroke-dasharray="0.859,0.5" d="
					M204.458,142.453c0,0,39.308-6.564,61.094-6.244c21.784,0.32,55.92,5.043,55.92,5.043"/>
				<path clip-path="url(#SB_SVGID_14_)" fill="none" stroke="#FFCD72" stroke-miterlimit="10" stroke-dasharray="0.859,0.5" d="
					M140.064,311.127c0,0,0.161-3.653,0.161-11.105c0-7.454-6.21-20.496-9.316-37.885c-3.104-17.389-12.85-50.155-12.229-67.544"/>
				<path clip-path="url(#SB_SVGID_14_)" fill="none" stroke="#FFCD72" stroke-miterlimit="10" stroke-dasharray="0.859,0.5" d="
					M405.394,192.789c0,0,1.885,10.349-2.462,23.391c-4.347,13.042-11.801,66.453-13.663,79.495
					c-1.864,13.042-4.348,28.569-4.348,28.569"/>
			</g>
		</g>
	</g>
	<g clip-path="url(#SB_SVGID_2_)">
		<defs>
			<rect id="SB_SVGID_15_" x="39" y="105.905" width="448.5" height="580.412"/>
		</defs>
		<clipPath id="SB_SVGID_16_">
			<use xlink:href="#SB_SVGID_15_"  overflow="visible"/>
		</clipPath>
		<path clip-path="url(#SB_SVGID_16_)" d="M271.759,146.249c3.611,0,6.537,3.133,6.537,6.995c0,3.862-2.926,6.995-6.537,6.995h-12.679
			c-3.609,0-6.537-3.132-6.537-6.995c0-3.861,2.928-6.995,6.537-6.995H271.759"/>
		<path clip-path="url(#SB_SVGID_16_)" fill="none" stroke="#000000" stroke-width="6.078" d="M271.759,146.249
			c3.611,0,6.537,3.133,6.537,6.995c0,3.862-2.926,6.995-6.537,6.995h-12.679c-3.609,0-6.537-3.132-6.537-6.995
			c0-3.861,2.928-6.995,6.537-6.995H271.759"/>
		<path clip-path="url(#SB_SVGID_16_)" d="M271.271,147.368c3.282,0,5.938,2.629,5.938,5.875c0,3.246-2.657,5.876-5.94,5.876h-11.516
			c-3.276,0-5.936-2.63-5.936-5.876c0-3.246,2.659-5.875,5.936-5.875H271.271"/>
		<path clip-path="url(#SB_SVGID_16_)" fill="none" stroke="#FFFFFF" stroke-width="0.658" d="M271.271,147.368
			c3.282,0,5.938,2.629,5.938,5.875c0,3.246-2.657,5.876-5.94,5.876h-11.516c-3.276,0-5.936-2.63-5.936-5.876
			c0-3.246,2.659-5.875,5.936-5.875H271.271"/>
		<path clip-path="url(#SB_SVGID_16_)" fill="#FFFFFF" d="M255.37,153.206c0-2.448,1.816-4.455,4.114-4.615v9.231
			C257.187,157.661,255.37,155.653,255.37,153.206"/>
		<polygon clip-path="url(#SB_SVGID_16_)" fill="#FFFFFF" points="264.048,152.601 260.211,148.579 264.048,148.579 		"/>
		<polygon clip-path="url(#SB_SVGID_16_)" fill="#FFFFFF" points="264.048,153.811 260.211,157.835 264.048,157.835 		"/>
		<polygon clip-path="url(#SB_SVGID_16_)" fill="#FFFFFF" points="268.864,152.601 272.704,148.579 268.864,148.579 		"/>
		<polygon clip-path="url(#SB_SVGID_16_)" fill="#FFFFFF" points="268.864,153.811 272.704,157.835 268.864,157.835 		"/>
		<rect x="264.864" y="148.579" clip-path="url(#SB_SVGID_16_)" fill="#FFFFFF" width="3.187" height="9.256"/>
		<path clip-path="url(#SB_SVGID_16_)" fill="#FFFFFF" d="M259.132,145.156v0.566h0.534v-0.191l0.197,0.042v0.106
			c0,0.167-0.048,0.211-0.21,0.211h-0.506c-0.163,0-0.21-0.044-0.21-0.211v-0.472c0-0.167,0.048-0.21,0.21-0.21h0.506
			c0.163,0,0.21,0.043,0.21,0.21v0.086l-0.197,0.033v-0.17H259.132z"/>
		<path clip-path="url(#SB_SVGID_16_)" fill="#FFFFFF" d="M260.385,144.996h0.628c0.16,0,0.21,0.044,0.21,0.21v0.473
			c0,0.166-0.051,0.211-0.21,0.211h-0.628c-0.162,0-0.213-0.045-0.213-0.211v-0.473
			C260.172,145.041,260.223,144.996,260.385,144.996 M261.024,145.156h-0.652v0.566h0.652V145.156z"/>
		<path clip-path="url(#SB_SVGID_16_)" fill="#FFFFFF" d="M261.556,144.996h0.161l0.4,0.541l0.395-0.541h0.159v0.894h-0.184v-0.553
			c0-0.017,0-0.048,0.003-0.095c-0.014,0.04-0.033,0.073-0.048,0.093l-0.318,0.446h-0.042l-0.319-0.448
			c-0.021-0.028-0.037-0.056-0.051-0.091c0.003,0.037,0.005,0.068,0.005,0.095v0.553h-0.161V144.996z"/>
		<path clip-path="url(#SB_SVGID_16_)" fill="#FFFFFF" d="M263.001,144.997h0.729c0.131,0,0.193,0.048,0.193,0.173v0.2
			c0,0.123-0.062,0.173-0.193,0.173h-0.533v0.349h-0.197V144.997z M263.198,145.151v0.236h0.446c0.061,0,0.087-0.012,0.087-0.071
			v-0.094c0-0.059-0.026-0.072-0.087-0.072H263.198z"/>
		<path clip-path="url(#SB_SVGID_16_)" fill="#FFFFFF" d="M264.147,144.997h0.726c0.133,0,0.193,0.048,0.193,0.173v0.21
			c0,0.124-0.06,0.173-0.193,0.173h-0.11l0.391,0.338h-0.281l-0.345-0.338h-0.184v0.338h-0.197V144.997z M264.344,145.151v0.249
			h0.443c0.063,0,0.087-0.012,0.087-0.07v-0.106c0-0.059-0.024-0.072-0.087-0.072H264.344z"/>
		<polygon clip-path="url(#SB_SVGID_16_)" fill="#FFFFFF" points="265.386,144.996 266.256,144.996 266.256,145.149 265.584,145.149 
			265.584,145.347 265.977,145.347 265.977,145.5 265.584,145.5 265.584,145.722 266.268,145.722 266.268,145.89 265.386,145.89 		
			"/>
		<path clip-path="url(#SB_SVGID_16_)" fill="#FFFFFF" d="M266.733,145.151v0.194h0.529c0.162,0,0.212,0.042,0.212,0.211v0.123
			c0,0.166-0.05,0.212-0.212,0.212h-0.525c-0.159,0-0.212-0.046-0.212-0.212v-0.026l0.175-0.035v0.104h0.601v-0.205h-0.531
			c-0.16,0-0.211-0.044-0.211-0.211v-0.099c0-0.166,0.051-0.21,0.211-0.21h0.484c0.152,0,0.209,0.042,0.209,0.195v0.02l-0.173,0.043
			v-0.104H266.733z"/>
		<path clip-path="url(#SB_SVGID_16_)" fill="#FFFFFF" d="M267.981,145.151v0.194h0.533c0.16,0,0.213,0.042,0.213,0.211v0.123
			c0,0.166-0.053,0.212-0.213,0.212h-0.525c-0.16,0-0.212-0.046-0.212-0.212v-0.026l0.175-0.035v0.104h0.601v-0.205h-0.532
			c-0.156,0-0.211-0.044-0.211-0.211v-0.099c0-0.166,0.055-0.21,0.211-0.21h0.484c0.152,0,0.21,0.042,0.21,0.195v0.02l-0.173,0.043
			v-0.104H267.981z"/>
		<rect x="269.057" y="144.996" clip-path="url(#SB_SVGID_16_)" fill="#FFFFFF" width="0.2" height="0.894"/>
		<path clip-path="url(#SB_SVGID_16_)" fill="#FFFFFF" d="M269.8,144.996h0.626c0.164,0,0.215,0.044,0.215,0.21v0.473
			c0,0.166-0.051,0.211-0.215,0.211H269.8c-0.16,0-0.209-0.045-0.209-0.211v-0.473C269.59,145.041,269.64,144.996,269.8,144.996
			 M270.441,145.156h-0.658v0.566h0.658V145.156z"/>
		<path clip-path="url(#SB_SVGID_16_)" fill="#FFFFFF" d="M270.971,144.996h0.136l0.6,0.526c0.035,0.031,0.065,0.06,0.096,0.098
			c-0.003-0.074-0.007-0.127-0.007-0.153v-0.471h0.177v0.894h-0.133l-0.626-0.553c-0.025-0.021-0.048-0.044-0.071-0.072
			c0.007,0.069,0.007,0.116,0.007,0.142v0.483h-0.178V144.996z"/>
		<path clip-path="url(#SB_SVGID_16_)" fill="#FFFFFF" d="M263.047,160.784v0.567h0.617v-0.199h-0.323v-0.153h0.518v0.308
			c0,0.168-0.051,0.211-0.212,0.211h-0.587c-0.162,0-0.212-0.043-0.212-0.211v-0.469c0-0.17,0.05-0.211,0.212-0.211h0.587
			c0.155,0,0.212,0.042,0.212,0.202v0.02l-0.194,0.039v-0.102H263.047z"/>
		<polygon clip-path="url(#SB_SVGID_16_)" fill="#FFFFFF" points="264.194,160.625 265.065,160.625 265.065,160.778 264.394,160.778 
			264.394,160.978 264.785,160.978 264.785,161.128 264.394,161.128 264.394,161.351 265.074,161.351 265.074,161.518 
			264.194,161.518 		"/>
		<path clip-path="url(#SB_SVGID_16_)" fill="#FFFFFF" d="M265.677,160.626h0.191l0.487,0.891h-0.222l-0.104-0.195h-0.538l-0.1,0.195
			h-0.197L265.677,160.626z M265.948,161.162l-0.183-0.364l-0.188,0.364H265.948z"/>
		<path clip-path="url(#SB_SVGID_16_)" fill="#FFFFFF" d="M266.549,160.626h0.727c0.133,0,0.192,0.047,0.192,0.172v0.21
			c0,0.124-0.059,0.171-0.192,0.171h-0.109l0.39,0.337h-0.285l-0.341-0.337h-0.19v0.337h-0.192V160.626z M266.741,160.778v0.25
			h0.446c0.06,0,0.088-0.012,0.088-0.07v-0.107c0-0.059-0.029-0.072-0.088-0.072H266.741z"/>
		<path clip-path="url(#SB_SVGID_16_)" fill="#FFFFFF" d="M268.68,160.465c0.111,0.115,0.173,0.273,0.173,0.438
			c0,0.17-0.06,0.323-0.175,0.438c-0.118,0.119-0.265,0.185-0.42,0.185c-0.158,0-0.306-0.065-0.419-0.187
			c-0.112-0.121-0.173-0.272-0.173-0.437c0-0.165,0.063-0.323,0.179-0.446c0.108-0.116,0.254-0.176,0.414-0.176
			C268.419,160.281,268.567,160.346,268.68,160.465 M268.626,160.523c-0.097-0.106-0.225-0.159-0.365-0.159s-0.27,0.051-0.362,0.154
			c-0.1,0.105-0.157,0.243-0.157,0.386s0.056,0.276,0.15,0.378c0.1,0.107,0.23,0.161,0.361,0.161c0.14,0,0.266-0.054,0.37-0.16
			c0.099-0.098,0.15-0.23,0.15-0.374C268.773,160.759,268.725,160.623,268.626,160.523 M268.555,160.732
			c0,0.101-0.057,0.17-0.153,0.19l0.149,0.321h-0.143l-0.135-0.301h-0.125v0.301h-0.126v-0.705h0.253
			C268.464,160.539,268.555,160.604,268.555,160.732 M268.147,160.625v0.234h0.106c0.116,0,0.168-0.031,0.168-0.112
			c0-0.089-0.053-0.122-0.173-0.122H268.147z"/>
	</g>
	<g clip-path="url(#SB_SVGID_2_)">
		<defs>
			<rect id="SB_SVGID_17_" x="39" y="105.905" width="448.5" height="580.412"/>
		</defs>
		<clipPath id="SB_SVGID_18_">
			<use xlink:href="#SB_SVGID_17_"  overflow="visible"/>
		</clipPath>
		<g opacity="0.12" clip-path="url(#SB_SVGID_18_)">
			<g>
				<defs>
					<rect id="SB_SVGID_19_" x="77.041" y="224.558" width="359.165" height="272.772"/>
				</defs>
				<clipPath id="SB_SVGID_20_">
					<use xlink:href="#SB_SVGID_19_"  overflow="visible"/>
				</clipPath>
				<path clip-path="url(#SB_SVGID_20_)" fill="#897F76" d="M137.089,299.28c0,0-11.287-2.031-19.415-4.741
					c-8.126-2.709-15.577-4.741-21.897-10.384s-18.737-20.542-18.737-20.542s21.897,18.963,23.704,20.769
					C102.55,286.188,137.089,299.28,137.089,299.28"/>
				<path clip-path="url(#SB_SVGID_20_)" fill="#897F76" d="M127.608,290.477l-13.771-6.547l-2.257-4.967
					c0,0,16.028,11.514,14.222,8.353s-24.155-28.67-28.219-33.862c-4.063-5.192-13.77-16.253-13.77-16.253s11.964,7.9,13.319,10.61
					c1.354,2.709,22.8,28.896,25.283,32.056c2.484,3.16,9.03,8.579,8.579,9.708C130.543,290.702,127.608,290.477,127.608,290.477"/>
				<path clip-path="url(#SB_SVGID_20_)" fill="#897F76" d="M111.805,287.315c0,0-15.35-16.028-17.833-18.962
					c-2.484-2.935-12.868-11.063-12.868-11.063l19.415,21.22L111.805,287.315z"/>
				<path clip-path="url(#SB_SVGID_20_)" fill="#897F76" d="M130.091,277.383c0,0-4.516-11.739-6.772-16.932
					c-2.258-5.191-6.096-25.057-9.934-24.606c-3.838,0.452-1.354,8.353,1.354,13.996c2.709,5.645,5.644,10.159,5.644,10.159
					s-6.547-2.258-10.384-8.353c-3.837-6.095-12.867-26.638-15.351-25.961c-2.483,0.677,1.58,11.739,5.644,18.285
					c4.063,6.547,13.997,16.028,19.188,21.22C124.673,270.386,130.091,277.383,130.091,277.383"/>
				<path clip-path="url(#SB_SVGID_20_)" fill="#897F76" d="M389.701,281.672c0,0,10.609-19.866,17.156-30.927
					c6.547-11.062,18.511-26.187,18.511-26.187s-19.865,34.991-20.994,36.345C403.245,262.258,389.701,281.672,389.701,281.672"/>
				<path clip-path="url(#SB_SVGID_20_)" fill="#897F76" d="M399.859,269.03c0,0,8.127-11.964,17.156-19.188
					c9.03-7.224,19.189-11.061,19.189-11.061s-13.546,7.224-20.544,16.253c-6.997,9.03-18.962,22.576-20.769,27.768
					c-1.806,5.192-1.354,11.062-1.354,11.062s5.418-1.354,3.161,0.677c-2.258,2.032,1.807,7.225-1.354,8.353
					s-4.966,1.581-4.966,2.934c0,1.355-4.517-0.903-4.517-0.903s2.483-18.06,3.387-20.091
					C390.151,282.801,399.859,269.03,399.859,269.03"/>
				<path clip-path="url(#SB_SVGID_20_)" fill="#897F76" d="M397.149,286.638c0,0-0.226-7.901,5.645-10.384
					c5.87-2.483,12.19-3.387,17.157-5.87c4.967-2.483,8.353-5.418,8.353-5.418s-6.321,8.579-14.223,11.288
					c-7.901,2.708-10.836,2.708-12.642,4.966C399.634,283.479,397.149,286.638,397.149,286.638"/>
				<path clip-path="url(#SB_SVGID_20_)" fill="#897F76" d="M177.183,491.101c0,0,57.528-12.458,82.811-11.726
					c25.284,0.732,89.773,17.955,89.773,17.955s-46.169-12.093-86.475-12.459C222.985,484.506,177.183,491.101,177.183,491.101"/>
			</g>
		</g>
	</g>
</g>
</svg>
