<?xml version="1.0" encoding="utf-8"?>
<!-- Generator: Adobe Illustrator 16.0.0, SVG Export Plug-In . SVG Version: 6.00 Build 0)  -->
<!DOCTYPE svg PUBLIC "-//W3C//DTD SVG 1.1//EN" "http://www.w3.org/Graphics/SVG/1.1/DTD/svg11.dtd">
<svg version="1.1" id="Layer_1" xmlns="http://www.w3.org/2000/svg" xmlns:xlink="http://www.w3.org/1999/xlink" x="0px" y="0px"
	 width="800.453px" height="1035.881px" viewBox="0 0 620 1035.881" enable-background="new 0 0 800.453 1035.881"
	 xml:space="preserve">
<g>
	<defs>
		<rect id="SVGID_1_" x="12" y="51.005" width="734.383" height="950.377"/>
	</defs>
	<clipPath id="SVGID_2_">
		<use xlink:href="#SVGID_1_"  overflow="visible"/>
	</clipPath>
	<g clip-path="url(#SVGID_2_)">
		<defs>
			<rect id="SVGID_3_" x="12" y="51.005" width="734.383" height="950.377"/>
		</defs>
		<clipPath id="SVGID_4_">
			<use xlink:href="#SVGID_3_"  overflow="visible"/>
		</clipPath>
     <g id="MASK">
      <g id="UPPER_PHASE_BOTTOM_PHASE">
		<path clip-path="url(#SVGID_4_)" fill="#004D86" d="M611.939,193.269c-11.314-3.969-61.393-23.639-77.25-33.9
			c-17.289-11.186-39.66-28.475-45.761-33.559c-5.262-4.385-10.521-13.292-15.13-16.97c-21.591-2.739-64.855-7.832-90.837-8.215
			c-27.734-0.407-77.985,6.436-98.978,9.501c-4.251,4.173-8.973,11.748-13.694,15.684c-6.102,5.084-28.474,22.373-45.762,33.559
			c-17.288,11.187-75.251,33.559-79.321,34.575c-0.503,0.126-1.521,0.723-2.949,1.725c1.535,30.804,15.578,85.061,20.238,111.154
			c5.083,28.474,15.254,49.831,15.254,62.033v18.452c2.186,4.876,5.439,13.257,6.102,21.208c1.018,12.202,3.05,56.946,11.186,73.218
			c8.136,16.271,23.389,112.878,25.422,122.032c2.034,9.152-5.083,43.727-5.083,51.863s-19.322,68.134-20.339,84.405
			c-1.016,16.271-5.084,38.644-5.084,54.913c0,16.271-7.12,40.677-7.12,40.677s6.102,12.204,14.238,27.458
			c8.134,15.253,22.372,39.66,27.457,52.879c5.085,13.22,25.424,43.728,67.118,57.967c5.37,1.832,11.96,3.292,19.36,4.449
			l-0.039,1.65c0,0,20.772,1.471,47.854,2.067c6.958,0.181,13.95,0.253,20.789,0.246c6.84,0.007,13.829-0.065,20.788-0.246
			c27.082-0.597,47.855-2.067,47.855-2.067l-0.039-1.65c7.398-1.157,13.989-2.617,19.36-4.449
			c41.696-14.239,62.034-44.747,67.118-57.967c5.084-13.219,19.322-37.626,27.457-52.879c8.135-15.254,14.236-27.458,14.236-27.458
			s-7.117-24.406-7.117-40.677c0-16.27-4.068-38.642-5.086-54.913s-20.338-76.27-20.338-84.405s-7.119-42.71-5.084-51.863
			c2.033-9.153,17.287-105.761,25.422-122.032c8.137-16.272,10.17-61.016,11.188-73.218c0.703-8.45,4.33-17.382,6.498-22.08
			c1.18-7.724,2.5-16.509,3.67-24.699c3.051-21.355,15.254-108.811,22.371-130.167C612.16,218.813,612.42,203.519,611.939,193.269"
			/>
	</g>
           <g id="SLEEVES">
		<path clip-path="url(#SVGID_6_)" fill="#004D86" d="M162.495,306.822c-4.66-26.093-18.703-80.35-20.238-111.155
			c-10.128,7.106-41.006,34.84-57.049,63.359c-18.304,32.542-14.236,119.998-14.236,124.065s-1.017,17.288-1.017,17.288
			l-3.051,6.102c0,0,34.576,9.153,64.067,9.153c29.491,0,45.762-5.085,45.762-5.085l-1.017-27.457c0,0,0.865,1.608,2.034,4.216
			v-18.453C177.749,356.651,167.578,335.297,162.495,306.822"/>
		<path clip-path="url(#SVGID_6_)" fill="#004D86" d="M689.262,400.379c0,0-1.018-13.221-1.018-17.288
			c0-4.066,4.07-91.522-14.236-124.063c-18.303-32.542-55.93-64.066-59.998-65.084c-0.336-0.084-1.049-0.316-2.07-0.675
			c0.48,10.25,0.221,25.544-4.033,38.301c-7.117,21.356-19.32,108.811-22.371,130.167c-1.17,8.19-2.49,16.975-3.67,24.698
			c0.961-2.088,1.637-3.343,1.637-3.343l-1.018,27.458c0,0,16.271,5.084,45.762,5.084s64.068-9.152,64.068-9.152L689.262,400.379z"
			/>
      </g>

       </g>
   
    </g>
	<g clip-path="url(#SVGID_2_)">
		<defs>
			<rect id="SVGID_5_" x="12" y="51.005" width="734.383" height="950.377"/>
		</defs>
		<clipPath id="SVGID_6_">
			<use xlink:href="#SVGID_5_"  overflow="visible"/>
		</clipPath>
	</g>
	<g id="COLLAR" clip-path="url(#SVGID_2_)">
		<defs>
			<rect id="SVGID_7_" x="12" y="51.005" width="734.383" height="950.377"/>
		</defs>
		<clipPath id="SVGID_8_">
			<use xlink:href="#SVGID_7_"  overflow="visible"/>
		</clipPath>
		<path clip-path="url(#SVGID_8_)" fill="#FDBB2D" d="M382.961,100.626c25.981,0.382,69.246,5.474,90.837,8.214
			c-0.737-0.588-1.458-1.054-2.158-1.335c-5.085-2.034-12.203-6.102-12.203-6.102l-7.119-13.22c0,0-29.491-11.185-53.896-11.185
			h-37.626c-24.407,0-53.897,11.185-53.897,11.185l-7.118,13.22c0,0-7.119,4.068-12.204,6.102c-1.15,0.459-2.353,1.403-3.594,2.621
			C304.976,107.062,355.227,100.217,382.961,100.626"/>
	</g>
	<g id="CROTCH" clip-path="url(#SVGID_2_)">
		<defs>
			<rect id="SVGID_9_" x="12" y="51.005" width="734.383" height="950.377"/>
		</defs>
		<clipPath id="SVGID_10_">
			<use xlink:href="#SVGID_9_"  overflow="visible"/>
		</clipPath>
		<path clip-path="url(#SVGID_10_)" fill="#FDBB2D" d="M128.675,392c-25.285-0.589-50.067-3.663-57.852-4.705
			c-0.283,5.451-0.869,13.083-0.869,13.083l-3.05,6.102c0,0,34.575,9.152,64.066,9.152c29.491,0,45.761-5.084,45.761-5.084
			L176,390.8C169.974,391.343,153.145,392.569,128.675,392"/>
		<path clip-path="url(#SVGID_10_)" fill="#FDBB2D" d="M688.404,387.499c-9.162,1.192-32.521,3.948-56.313,4.501
			c-27.045,0.628-44.768-0.935-48.871-1.347l-0.736,19.896c0,0,16.271,5.084,45.762,5.084s64.068-9.153,64.068-9.153l-3.053-6.102
			C689.262,400.378,688.689,392.934,688.404,387.499"/>
	</g>
	<g clip-path="url(#SVGID_2_)">
		<defs>
			<rect id="SVGID_11_" x="12" y="51.005" width="734.383" height="950.377"/>
		</defs>
		<clipPath id="SVGID_12_">
			<use xlink:href="#SVGID_11_"  overflow="visible"/>
		</clipPath>
		<g opacity="0.35" clip-path="url(#SVGID_12_)">
			<g>
				<defs>
					<rect id="SVGID_13_" x="69.819" y="93.996" width="619.583" height="882.041"/>
				</defs>
				<clipPath id="SVGID_14_">
					<use xlink:href="#SVGID_13_"  overflow="visible"/>
				</clipPath>
				<path clip-path="url(#SVGID_14_)" fill="none" stroke="#FFCD72" stroke-miterlimit="10" stroke-dasharray="0.859,0.5" d="
					M184.867,831.556c0,0,52.88,100.677,98.643,119.998c45.761,19.321,131.183,18.304,165.759,9.151
					c34.575-9.151,68.132-36.61,79.32-52.879c11.186-16.271,47.795-77.287,47.795-77.287"/>
				<path clip-path="url(#SVGID_14_)" fill="none" stroke="#FFCD72" stroke-miterlimit="10" stroke-dasharray="0.859,0.5" d="
					M184.867,839.963c0,0,52.88,100.676,98.643,119.997c45.761,19.321,131.183,18.304,165.759,9.151
					c34.575-9.151,68.132-36.609,79.32-52.881c11.186-16.269,47.795-77.285,47.795-77.285"/>
				<path clip-path="url(#SVGID_14_)" fill="none" stroke="#FFCD72" stroke-miterlimit="10" stroke-dasharray="0.859,0.5" d="
					M69.929,395.384c0,0,27.649,5.184,56.163,5.184c28.514,0,50.402-2.304,50.402-2.304"/>
				<path clip-path="url(#SVGID_14_)" fill="none" stroke="#FFCD72" stroke-miterlimit="10" stroke-dasharray="0.859,0.5" d="
					M69.929,390.581c0,0,27.649,5.184,56.163,5.184c28.514,0,50.402-2.304,50.402-2.304"/>
				<path clip-path="url(#SVGID_14_)" fill="none" stroke="#FFCD72" stroke-miterlimit="10" stroke-dasharray="0.859,0.5" d="
					M689.293,395.384c0,0-27.65,5.184-56.162,5.184c-28.514,0-50.404-2.304-50.404-2.304"/>
				<path clip-path="url(#SVGID_14_)" fill="none" stroke="#FFCD72" stroke-miterlimit="10" stroke-dasharray="0.859,0.5" d="
					M689.293,390.581c0,0-27.65,5.184-56.162,5.184c-28.514,0-50.404-2.304-50.404-2.304"/>
				<path clip-path="url(#SVGID_14_)" fill="none" stroke="#FFCD72" stroke-miterlimit="10" stroke-dasharray="0.859,0.5" d="
					M299.553,101.965c0,0,47.736-7.87,83.408-7.344c35.671,0.525,76.587,6.82,76.587,6.82"/>
				<path clip-path="url(#SVGID_14_)" fill="none" stroke="#FFCD72" stroke-miterlimit="10" stroke-dasharray="0.859,0.5" d="
					M282.926,110.85c0,0,64.363-10.748,100.035-10.224c35.671,0.524,91.566,8.257,91.566,8.257"/>
				<path clip-path="url(#SVGID_14_)" fill="none" stroke="#FFCD72" stroke-miterlimit="10" stroke-dasharray="0.859,0.5" d="
					M177.486,387.04c0,0,0.262-5.981,0.262-18.184c0-12.203-10.168-33.56-15.254-62.033c-5.084-28.474-21.042-82.125-20.025-110.599
					"/>
				<path clip-path="url(#SVGID_14_)" fill="none" stroke="#FFCD72" stroke-miterlimit="10" stroke-dasharray="0.859,0.5" d="
					M611.939,193.269c0,0,3.088,16.946-4.033,38.301c-7.117,21.356-19.32,108.812-22.371,130.167
					c-3.051,21.355-7.117,46.779-7.117,46.779"/>
			</g>
		</g>
	</g>
	<g clip-path="url(#SVGID_2_)">
		<defs>
			<rect id="SVGID_15_" x="12" y="51.005" width="734.383" height="950.377"/>
		</defs>
		<clipPath id="SVGID_16_">
			<use xlink:href="#SVGID_15_"  overflow="visible"/>
		</clipPath>
		<path clip-path="url(#SVGID_16_)" d="M393.125,117.064c5.913,0,10.704,5.13,10.704,11.453c0,6.325-4.791,11.453-10.704,11.453
			h-20.761c-5.908,0-10.703-5.128-10.703-11.453c0-6.323,4.795-11.453,10.703-11.453H393.125"/>
		<path clip-path="url(#SVGID_16_)" fill="none" stroke="#000000" stroke-width="6.078" d="M393.125,117.064
			c5.913,0,10.704,5.13,10.704,11.453c0,6.325-4.791,11.453-10.704,11.453h-20.761c-5.908,0-10.703-5.128-10.703-11.453
			c0-6.323,4.795-11.453,10.703-11.453H393.125"/>
		<path clip-path="url(#SVGID_16_)" d="M392.324,118.897c5.373,0,9.724,4.306,9.724,9.62c0,5.315-4.351,9.622-9.726,9.622h-18.856
			c-5.365,0-9.719-4.307-9.719-9.622c0-5.314,4.354-9.62,9.719-9.62H392.324"/>
		<path clip-path="url(#SVGID_16_)" fill="none" stroke="#FFFFFF" stroke-width="0.658" d="M392.324,118.897
			c5.373,0,9.724,4.306,9.724,9.62c0,5.315-4.351,9.622-9.726,9.622h-18.856c-5.365,0-9.719-4.307-9.719-9.622
			c0-5.314,4.354-9.62,9.719-9.62H392.324"/>
		<path clip-path="url(#SVGID_16_)" fill="#FFFFFF" d="M366.29,128.457c0-4.009,2.973-7.295,6.736-7.559v15.117
			C369.262,135.752,366.29,132.463,366.29,128.457"/>
		<polygon clip-path="url(#SVGID_16_)" fill="#FFFFFF" points="380.498,127.466 374.216,120.879 380.498,120.879 		"/>
		<polygon clip-path="url(#SVGID_16_)" fill="#FFFFFF" points="380.498,129.446 374.216,136.035 380.498,136.035 		"/>
		<polygon clip-path="url(#SVGID_16_)" fill="#FFFFFF" points="388.383,127.466 394.672,120.879 388.383,120.879 		"/>
		<polygon clip-path="url(#SVGID_16_)" fill="#FFFFFF" points="388.383,129.446 394.672,136.035 388.383,136.035 		"/>
		<rect x="381.834" y="120.879" clip-path="url(#SVGID_16_)" fill="#FFFFFF" width="5.217" height="15.155"/>
		<path clip-path="url(#SVGID_16_)" fill="#FFFFFF" d="M372.449,115.275v0.926h0.874v-0.312l0.322,0.066v0.175
			c0,0.272-0.078,0.345-0.345,0.345h-0.828c-0.266,0-0.345-0.072-0.345-0.345v-0.774c0-0.272,0.079-0.344,0.345-0.344h0.828
			c0.267,0,0.345,0.072,0.345,0.344v0.141l-0.322,0.054v-0.277H372.449z"/>
		<path clip-path="url(#SVGID_16_)" fill="#FFFFFF" d="M374.5,115.013h1.029c0.261,0,0.344,0.073,0.344,0.344v0.774
			c0,0.272-0.083,0.346-0.344,0.346H374.5c-0.266,0-0.349-0.073-0.349-0.346v-0.774C374.151,115.086,374.234,115.013,374.5,115.013
			 M375.547,115.275h-1.069v0.927h1.069V115.275z"/>
		<path clip-path="url(#SVGID_16_)" fill="#FFFFFF" d="M376.417,115.013h0.264l0.654,0.886l0.647-0.886h0.26v1.463h-0.3v-0.905
			c0-0.028,0-0.08,0.005-0.155c-0.023,0.065-0.054,0.119-0.08,0.152l-0.521,0.729h-0.068l-0.522-0.732
			c-0.035-0.047-0.061-0.094-0.084-0.15c0.006,0.06,0.009,0.111,0.009,0.155v0.905h-0.264V115.013z"/>
		<path clip-path="url(#SVGID_16_)" fill="#FFFFFF" d="M378.784,115.014h1.194c0.215,0,0.316,0.079,0.316,0.283v0.327
			c0,0.203-0.102,0.283-0.316,0.283h-0.872v0.57h-0.323V115.014z M379.107,115.267v0.386h0.73c0.098,0,0.142-0.019,0.142-0.116
			v-0.153c0-0.096-0.043-0.117-0.142-0.117H379.107z"/>
		<path clip-path="url(#SVGID_16_)" fill="#FFFFFF" d="M380.66,115.014h1.188c0.218,0,0.317,0.079,0.317,0.283v0.345
			c0,0.202-0.1,0.283-0.317,0.283h-0.18l0.64,0.552h-0.46l-0.564-0.552h-0.301v0.552h-0.323V115.014z M380.983,115.267v0.407h0.726
			c0.104,0,0.143-0.021,0.143-0.116v-0.174c0-0.096-0.04-0.117-0.143-0.117H380.983z"/>
		<polygon clip-path="url(#SVGID_16_)" fill="#FFFFFF" points="382.689,115.013 384.114,115.013 384.114,115.264 383.014,115.264 
			383.014,115.588 383.656,115.588 383.656,115.839 383.014,115.839 383.014,116.202 384.133,116.202 384.133,116.477 
			382.689,116.477 		"/>
		<path clip-path="url(#SVGID_16_)" fill="#FFFFFF" d="M384.895,115.267v0.317h0.866c0.265,0,0.347,0.069,0.347,0.345v0.202
			c0,0.272-0.083,0.346-0.347,0.346h-0.86c-0.26,0-0.348-0.074-0.348-0.346v-0.043l0.288-0.059v0.171h0.984v-0.334h-0.869
			c-0.262,0-0.346-0.073-0.346-0.347v-0.162c0-0.271,0.084-0.343,0.346-0.343h0.792c0.249,0,0.343,0.069,0.343,0.32v0.031
			l-0.283,0.07v-0.168H384.895z"/>
		<path clip-path="url(#SVGID_16_)" fill="#FFFFFF" d="M386.938,115.267v0.317h0.872c0.261,0,0.35,0.069,0.35,0.345v0.202
			c0,0.272-0.088,0.346-0.35,0.346h-0.86c-0.262,0-0.347-0.074-0.347-0.346v-0.043l0.286-0.059v0.171h0.985v-0.334h-0.871
			c-0.255,0-0.345-0.073-0.345-0.347v-0.162c0-0.271,0.09-0.343,0.345-0.343h0.792c0.249,0,0.344,0.069,0.344,0.32v0.031
			l-0.284,0.07v-0.168H386.938z"/>
		<rect x="388.698" y="115.013" clip-path="url(#SVGID_16_)" fill="#FFFFFF" width="0.329" height="1.463"/>
		<path clip-path="url(#SVGID_16_)" fill="#FFFFFF" d="M389.916,115.013h1.025c0.268,0,0.352,0.073,0.352,0.344v0.774
			c0,0.272-0.084,0.346-0.352,0.346h-1.025c-0.261,0-0.344-0.073-0.344-0.346v-0.774
			C389.572,115.086,389.655,115.013,389.916,115.013 M390.966,115.275h-1.076v0.927h1.076V115.275z"/>
		<path clip-path="url(#SVGID_16_)" fill="#FFFFFF" d="M391.833,115.013h0.223l0.982,0.86c0.058,0.052,0.107,0.1,0.157,0.161
			c-0.005-0.121-0.011-0.208-0.011-0.25v-0.771h0.289v1.463h-0.218l-1.024-0.905c-0.041-0.036-0.08-0.073-0.118-0.119
			c0.014,0.114,0.014,0.189,0.014,0.232v0.791h-0.293V115.013z"/>
		<path clip-path="url(#SVGID_16_)" fill="#FFFFFF" d="M378.858,140.865v0.927h1.01v-0.325h-0.528v-0.25h0.847v0.502
			c0,0.276-0.084,0.348-0.347,0.348h-0.962c-0.264,0-0.347-0.071-0.347-0.348v-0.767c0-0.278,0.083-0.346,0.347-0.346h0.962
			c0.254,0,0.347,0.067,0.347,0.33v0.032l-0.318,0.063v-0.166H378.858z"/>
		<polygon clip-path="url(#SVGID_16_)" fill="#FFFFFF" points="380.737,140.606 382.165,140.606 382.165,140.855 381.064,140.855 
			381.064,141.182 381.704,141.182 381.704,141.429 381.064,141.429 381.064,141.792 382.178,141.792 382.178,142.066 
			380.737,142.066 		"/>
		<path clip-path="url(#SVGID_16_)" fill="#FFFFFF" d="M383.166,140.606h0.313l0.798,1.459h-0.364l-0.169-0.319h-0.881l-0.164,0.319
			h-0.323L383.166,140.606z M383.609,141.483l-0.298-0.595l-0.307,0.595H383.609z"/>
		<path clip-path="url(#SVGID_16_)" fill="#FFFFFF" d="M384.593,140.606h1.189c0.218,0,0.314,0.078,0.314,0.282v0.343
			c0,0.203-0.096,0.282-0.314,0.282h-0.178l0.639,0.553h-0.465l-0.56-0.553h-0.31v0.553h-0.315V140.606z M384.909,140.855v0.41h0.73
			c0.097,0,0.144-0.02,0.144-0.115v-0.177c0-0.096-0.047-0.118-0.144-0.118H384.909z"/>
		<path clip-path="url(#SVGID_16_)" fill="#FFFFFF" d="M388.082,140.342c0.182,0.188,0.283,0.448,0.283,0.718
			c0,0.278-0.098,0.528-0.287,0.718c-0.192,0.196-0.433,0.302-0.687,0.302c-0.258,0-0.501-0.106-0.687-0.306
			c-0.185-0.196-0.284-0.444-0.284-0.714c0-0.27,0.104-0.529,0.292-0.73c0.177-0.19,0.417-0.289,0.678-0.289
			C387.656,140.041,387.898,140.147,388.082,140.342 M387.994,140.438c-0.158-0.173-0.368-0.262-0.598-0.262
			c-0.229,0-0.44,0.084-0.593,0.252c-0.164,0.174-0.256,0.398-0.256,0.632c0,0.233,0.09,0.453,0.246,0.619
			c0.164,0.175,0.376,0.265,0.591,0.265c0.229,0,0.437-0.089,0.605-0.262c0.162-0.161,0.245-0.377,0.245-0.613
			C388.234,140.823,388.156,140.602,387.994,140.438 M387.877,140.78c0,0.164-0.093,0.276-0.251,0.312l0.244,0.525h-0.235
			l-0.22-0.493h-0.205v0.493h-0.208v-1.154h0.415C387.728,140.463,387.877,140.57,387.877,140.78 M387.21,140.606v0.382h0.173
			c0.189,0,0.275-0.049,0.275-0.184c0-0.146-0.085-0.199-0.282-0.199H387.21z"/>
	</g>
	<g clip-path="url(#SVGID_2_)">
		<defs>
			<rect id="SVGID_17_" x="12" y="51.005" width="734.383" height="950.377"/>
		</defs>
		<clipPath id="SVGID_18_">
			<use xlink:href="#SVGID_17_"  overflow="visible"/>
		</clipPath>
		<g opacity="0.12" clip-path="url(#SVGID_18_)">
			<g>
				<defs>
					<rect id="SVGID_19_" x="74.289" y="245.289" width="588.102" height="446.642"/>
				</defs>
				<clipPath id="SVGID_20_">
					<use xlink:href="#SVGID_19_"  overflow="visible"/>
				</clipPath>
				<path clip-path="url(#SVGID_20_)" fill="#897F76" d="M172.613,367.641c0,0-18.482-3.326-31.79-7.763
					c-13.307-4.436-25.505-7.762-35.855-17.004c-10.35-9.24-30.679-33.637-30.679-33.637s35.855,31.05,38.813,34.007
					C116.059,346.203,172.613,367.641,172.613,367.641"/>
				<path clip-path="url(#SVGID_20_)" fill="#897F76" d="M157.088,353.225l-22.548-10.719l-3.696-8.132
					c0,0,26.245,18.852,23.288,13.677c-2.956-5.175-39.552-46.945-46.206-55.447c-6.653-8.502-22.547-26.614-22.547-26.614
					s19.59,12.938,21.81,17.374c2.218,4.436,37.333,47.313,41.399,52.489c4.067,5.174,14.786,14.046,14.047,15.895
					C161.894,353.595,157.088,353.225,157.088,353.225"/>
				<path clip-path="url(#SVGID_20_)" fill="#897F76" d="M131.213,348.05c0,0-25.136-26.246-29.202-31.049
					c-4.066-4.806-21.07-18.113-21.07-18.113l31.79,34.746L131.213,348.05z"/>
				<path clip-path="url(#SVGID_20_)" fill="#897F76" d="M161.155,331.786c0,0-7.394-19.222-11.089-27.724
					c-3.697-8.5-9.981-41.029-16.264-40.29c-6.285,0.739-2.219,13.675,2.217,22.917c4.437,9.243,9.241,16.634,9.241,16.634
					s-10.72-3.696-17.004-13.676c-6.283-9.979-21.069-43.618-25.135-42.508c-4.066,1.108,2.586,19.221,9.24,29.94
					c6.654,10.72,22.918,26.244,31.42,34.746C152.283,320.328,161.155,331.786,161.155,331.786"/>
				<path clip-path="url(#SVGID_20_)" fill="#897F76" d="M586.244,338.809c0,0,17.373-32.529,28.092-50.642
					c10.721-18.112,30.311-42.878,30.311-42.878s-32.527,57.295-34.377,59.513C608.422,307.02,586.244,338.809,586.244,338.809"/>
				<path clip-path="url(#SVGID_20_)" fill="#897F76" d="M602.877,318.108c0,0,13.307-19.59,28.094-31.42
					c14.785-11.828,31.42-18.112,31.42-18.112s-22.178,11.83-33.639,26.614c-11.457,14.787-31.049,36.965-34.006,45.467
					c-2.957,8.501-2.219,18.112-2.219,18.112s8.871-2.217,5.176,1.109c-3.697,3.328,2.957,11.829-2.219,13.677
					c-5.174,1.848-8.131,2.587-8.131,4.805c0,2.219-7.393-1.478-7.393-1.478s4.064-29.572,5.545-32.899
					C586.982,340.658,602.877,318.108,602.877,318.108"/>
				<path clip-path="url(#SVGID_20_)" fill="#897F76" d="M598.441,346.941c0,0-0.369-12.937,9.24-17.003
					c9.613-4.066,19.961-5.545,28.094-9.611c8.133-4.065,13.68-8.872,13.68-8.872s-10.354,14.047-23.291,18.483
					c-12.936,4.436-17.742,4.436-20.697,8.131C602.508,341.767,598.441,346.941,598.441,346.941"/>
				<path clip-path="url(#SVGID_20_)" fill="#897F76" d="M238.263,681.731c0,0,94.198-20.398,135.597-19.199
					s146.996,29.398,146.996,29.398s-75.598-19.799-141.597-20.398C313.261,670.933,238.263,681.731,238.263,681.731"/>
			</g>
		</g>
	</g>
</g>
   <g id="CUSTOM"></g>
</svg>
