<?xml version="1.0" encoding="utf-8"?>
<!-- Generator: Adobe Illustrator 16.0.0, SVG Export Plug-In . SVG Version: 6.00 Build 0)  -->
<!DOCTYPE svg PUBLIC "-//W3C//DTD SVG 1.1//EN" "http://www.w3.org/Graphics/SVG/1.1/DTD/svg11.dtd">
<svg version="1.1" id="Layer_1" xmlns="http://www.w3.org/2000/svg" xmlns:xlink="http://www.w3.org/1999/xlink" x="0px" y="0px"
	 width="612px" height="792px" viewBox="0 0 490 792" enable-background="new 0 0 612 792" xml:space="preserve">
<rect x="144.457" y="58.601" fill="none" width="135.187" height="533.201"/>
<rect x="105.267" y="162.261" fill="none" width="62.022" height="89.05"/>
<rect x="113.235" y="153.945" fill="none" width="27.027" height="31.185"/>
<rect x="441.064" y="168.671" fill="none" width="63.521" height="63.871"/>
<rect x="446.997" y="221.723" fill="none" width="50.608" height="20.812"/>
<rect x="452.59" y="175.209" fill="none" width="37.337" height="36.357"/>
<rect x="235.677" y="69.237" fill="none" width="137.986" height="24.583"/>
<rect x="92.122" y="250.188" fill="none" width="73.335" height="9.694"/>
<rect x="92.122" y="253.361" fill="none" width="73.335" height="9.693"/>
<rect x="167.048" y="561.172" fill="none" width="270.258" height="26.68"/>
<rect x="166.163" y="563.765" fill="none" width="272.823" height="28.082"/>
<rect x="233.835" y="70.94" fill="none" width="141.974" height="25.672"/>
<rect x="61.693" fill="none" width="488.613" height="632.322"/>
<g id="BODY">
	<defs>
		<rect id="SF_SVGID_1_" x="64.62" y="80.5" width="485.047" height="627.708"/>
	</defs>
	<clipPath id="SF_SVGID_2_">
		<use xlink:href="#SF_SVGID_1_"  overflow="visible"/>
	</clipPath>
	<g id="BODY1" clip-path="url(#SF_SVGID_2_)">
		<defs>
			<rect id="SF_SVGID_3_" x="64.62" y="80.5" width="485.047" height="627.708"/>
		</defs>
		<clipPath id="SF_SVGID_4_">
			<use xlink:href="#SF_SVGID_3_"  overflow="visible"/>
		</clipPath>
		<path clip-path="url(#SF_SVGID_4_)" d="M459.273,192.372c0,0-18.134-6.045-43.657-16.12c-16.109-6.359-30.341-15.927-39.495-22.797
			c-4.536,4.947-23.506,22.101-68.746,22.548c-44.858,0.445-66.461-18.743-72.21-24.873c-8.84,6.874-24.511,18.006-42.54,25.122
			c-25.523,10.075-43.658,16.12-43.658,16.12s-0.594,0.43-1.519,1.069v0.004c0.011,0.514,0.025,1.08,0.042,1.687
			c0.002,0.048,0.004,0.097,0.005,0.147c0.008,0.284,0.017,0.576,0.027,0.875c0.001,0.018,0.001,0.035,0.001,0.052
			c0.011,0.313,0.023,0.638,0.037,0.967c0.002,0.064,0.005,0.13,0.007,0.195c0.011,0.266,0.023,0.535,0.035,0.81
			c0.004,0.083,0.007,0.166,0.011,0.251c0.016,0.333,0.032,0.674,0.05,1.018c0.001,0.044,0.003,0.09,0.007,0.133
			c0.016,0.299,0.032,0.6,0.049,0.903c0.007,0.107,0.013,0.214,0.02,0.321c0.016,0.289,0.035,0.579,0.054,0.87
			c0.004,0.069,0.009,0.136,0.013,0.203c0.023,0.353,0.049,0.707,0.075,1.063c0.007,0.096,0.015,0.191,0.022,0.287
			c0.021,0.272,0.042,0.544,0.064,0.817c0.011,0.107,0.019,0.215,0.028,0.323c0.03,0.355,0.061,0.709,0.095,1.062
			c0.003,0.039,0.007,0.079,0.011,0.117c0.031,0.317,0.063,0.633,0.096,0.947c0.012,0.106,0.023,0.211,0.034,0.316
			c0.031,0.278,0.063,0.555,0.096,0.829c0.009,0.078,0.018,0.157,0.027,0.235c0.042,0.339,0.086,0.675,0.131,1.006
			c0.011,0.081,0.023,0.159,0.034,0.238c0.037,0.262,0.075,0.52,0.115,0.773c0.014,0.093,0.028,0.185,0.042,0.276
			c0.052,0.32,0.104,0.636,0.16,0.943c1.429,7.864,9.293,36.817,11.081,45.396c1.788,8.579,10.009,53.974,11.081,59.336
			c0.075,0.367,0.14,0.753,0.201,1.15c0.005,0.034,0.01,0.067,0.015,0.101c0.056,0.372,0.106,0.753,0.151,1.145
			c0.006,0.042,0.01,0.083,0.015,0.125c0.044,0.395,0.084,0.798,0.12,1.204c0.003,0.029,0.006,0.06,0.008,0.089
			c0.037,0.433,0.07,0.872,0.098,1.31c0.001,0.005,0.001,0.012,0.001,0.019c0.027,0.434,0.05,0.866,0.069,1.296
			c0.002,0.036,0.003,0.071,0.005,0.106c0.019,0.407,0.033,0.81,0.044,1.207c0.001,0.035,0.002,0.071,0.004,0.107
			c0.011,0.412,0.021,0.816,0.027,1.208c0,0.006,0,0.014,0,0.021c0.007,0.41,0.011,0.807,0.013,1.186
			c0.021-0.053,0.034-0.084,0.034-0.084s4.03,21.494,3.357,30.225c-0.671,8.732,4.03,63.135,7.39,79.927
			c3.356,16.791,7.387,59.779,4.029,77.914c-3.358,18.133-11.419,66.494-13.434,87.315c-2.016,20.82-2.016,36.27-2.016,36.27
			s-2.686,2.687-2.686,5.373s1.343,8.731,1.343,8.731v4.703c0,0,1.342,10.074,28.882,12.089c27.538,2.015,60.449,2.686,70.523,4.701
			c2.621,0.524,5.881,1.049,9.42,1.536l-0.016,0.479c0,0,13.434,2.015,22.165,2.015c0.989,0,2.122-0.027,3.357-0.076
			c1.236,0.049,2.37,0.076,3.359,0.076c8.73,0,22.165-2.015,22.165-2.015l-0.018-0.479c3.538-0.487,6.799-1.012,9.421-1.536
			c10.074-2.016,42.984-2.687,70.523-4.701c27.538-2.015,28.882-12.089,28.882-12.089v-4.703c0,0,1.344-6.045,1.344-8.731
			s-2.688-5.373-2.688-5.373s0-15.449-2.015-36.27c-2.015-20.821-10.075-69.183-13.435-87.315
			c-3.357-18.135,0.674-61.123,4.031-77.914c3.358-16.792,8.061-71.195,7.389-79.927c-0.578-7.512,2.321-24.456,3.144-29.047
			c-0.016-3.083,0.087-7.95,0.771-11.368c1.071-5.362,9.293-50.758,11.081-59.336c1.785-8.579,9.65-37.532,11.08-45.396
			c1.009-5.55,1.305-13.586,1.393-17.838C459.762,192.726,459.273,192.372,459.273,192.372"/>
    		<path clip-path="url(#SF_SVGID_10_)" d="M171.757,324.931c0-0.007,0-0.015,0-0.021c-0.006-0.393-0.016-0.796-0.028-1.208
			c0-0.036-0.002-0.072-0.002-0.107c-0.012-0.396-0.026-0.799-0.044-1.207c-0.001-0.036-0.003-0.071-0.005-0.106
			c-0.019-0.43-0.042-0.863-0.07-1.296c0-0.006,0-0.013,0-0.018c-0.028-0.438-0.062-0.877-0.099-1.31
			c-0.002-0.029-0.005-0.06-0.008-0.089c-0.036-0.406-0.075-0.809-0.121-1.204c-0.004-0.042-0.009-0.083-0.014-0.125
			c-0.044-0.391-0.096-0.772-0.151-1.144c-0.005-0.034-0.01-0.068-0.016-0.102c-0.06-0.397-0.126-0.784-0.201-1.15
			c-1.072-5.362-9.293-50.758-11.081-59.336c-1.786-8.578-9.651-37.532-11.08-45.396c-0.057-0.307-0.109-0.623-0.161-0.943
			c-0.015-0.092-0.029-0.184-0.043-0.276c-0.04-0.254-0.078-0.512-0.114-0.773c-0.011-0.08-0.023-0.158-0.034-0.238
			c-0.046-0.331-0.089-0.667-0.131-1.006c-0.011-0.078-0.019-0.157-0.028-0.235c-0.033-0.273-0.064-0.55-0.095-0.829
			c-0.012-0.105-0.023-0.21-0.035-0.316c-0.033-0.314-0.065-0.629-0.095-0.947c-0.004-0.039-0.008-0.078-0.012-0.117
			c-0.033-0.353-0.065-0.707-0.095-1.062c-0.01-0.108-0.018-0.216-0.027-0.323c-0.022-0.273-0.044-0.545-0.065-0.817
			c-0.007-0.096-0.014-0.191-0.021-0.287c-0.026-0.356-0.051-0.709-0.075-1.063c-0.004-0.067-0.008-0.134-0.013-0.203
			c-0.019-0.291-0.037-0.581-0.055-0.87c-0.006-0.108-0.013-0.214-0.019-0.321c-0.018-0.303-0.034-0.604-0.049-0.903
			c-0.002-0.043-0.005-0.089-0.008-0.133c-0.017-0.345-0.034-0.683-0.049-1.018c-0.004-0.085-0.008-0.167-0.012-0.251
			c-0.012-0.274-0.022-0.543-0.034-0.81c-0.002-0.065-0.005-0.13-0.008-0.195c-0.013-0.33-0.025-0.653-0.036-0.967
			c0-0.018-0.001-0.034-0.001-0.051c-0.01-0.301-0.032-0.975-0.033-1.023c-0.018-0.607-0.032-1.173-0.043-1.687v-0.004
			c-2.374,1.636-6.999,4.681-9.9,5.648c-4.03,1.343-26.866,18.807-33.583,42.315c-6.716,23.507-8.059,81.271-8.059,81.271
			L93.89,332.75l-2.015,6.045c0,0,23.508,6.044,43.658,7.388c20.15,1.343,32.911,1.343,32.911,1.343s1.344-1.343,0.672-5.374
			c-0.672-4.029-1.343-5.373-0.672-7.388c0.628-1.883,3.016-7.874,3.325-8.646C171.767,325.739,171.763,325.341,171.757,324.931"/>

	</g>
  	<g id="INNER_STRIP" clip-path="url(#SF_SVGID_2_)">
		<defs>
			<rect id="SF_SVGID_7_" x="64.62" y="80.5" width="485.047" height="627.708"/>
		</defs>
		<clipPath id="SF_SVGID_8_">
			<use xlink:href="#SF_SVGID_7_"  overflow="visible"/>
		</clipPath>
		<path clip-path="url(#SF_SVGID_8_)" fill="#FFFFFF" d="M157.145,228.994c0.015-0.025,0.032-0.056,0.056-0.101
			C157.179,228.932,157.16,228.969,157.145,228.994"/>
		<path clip-path="url(#SF_SVGID_8_)" fill="#C64421" d="M237.771,642.014c-2.306-4.884-4.45-9.763-6.331-14.675
			c-2.602-6.792-4.837-13.624-6.644-20.536c-3.481-13.857-5.43-28.005-5.672-42.521c-0.166-7.273,0.066-14.518,0.644-21.731
			c0.534-7.218,1.481-14.402,2.835-21.57c2.638-14.356,6.625-28.641,11.272-43.435l7.19-22.714
			c2.435-7.766,4.877-15.759,6.913-24.071c2.065-8.301,3.973-16.869,5.326-25.678c1.267-8.813,2.096-17.835,2.382-26.923
			c0.187-4.542,0.145-9.107-0.062-13.657l-0.393-6.804l-0.571-6.414l-0.667-6.406l-0.876-6.43c-0.307-2.144-0.553-4.28-0.917-6.429
			l-1.188-6.435c-0.73-4.28-1.784-8.583-2.729-12.869c-0.985-4.286-2.292-8.566-3.468-12.835c-2.66-8.538-5.509-17.103-9.986-25.202
			c-4.45-8.082-10.047-15.731-16.691-22.597c-6.732-6.819-14.223-12.969-22.188-18.207c-7.97-5.247-16.129-9.782-24.349-13.65
			l-6.198-2.767l-6.279-2.471c-1.048-0.397-2.125-0.75-3.179-1.119c-0.852-0.31-5.077-1.014-7.025-2.329
			c0.409,2.131,1.201,5.516,2.187,9.533c1.604,0.684,3.069,1.373,3.774,1.662c3.584,1.645,7.114,3.509,10.399,5.744
			c3.276,2.238,6.508,4.592,9.447,7.275c2.975,2.644,5.708,5.536,8.38,8.479c10.621,11.911,18.041,26.207,23.861,40.862
			c2.929,7.352,5.189,14.937,7.327,22.542c1.946,7.659,3.69,15.372,4.957,23.175c0.661,3.896,1.301,7.795,1.75,11.723l0.755,5.88
			l0.563,5.902c0.867,7.868,1.205,15.748,1.123,23.643c-0.16,15.792-2.304,31.528-5.559,47.036
			c-3.232,15.525-7.539,30.839-11.395,46.282c-3.883,15.431-7.296,31.026-9.311,46.838c-1.971,15.804-2.629,31.791-1.583,47.682
			c0.917,15.899,3.67,31.706,8.184,47.018c2.316,7.642,5.099,15.14,8.244,22.488c3.146,7.349,6.4,14.721,10.198,21.752
			c2.428,4.48,4.971,8.918,7.561,13.333c8.618,0.434,16.746,0.832,23.547,1.277c-4.527-8.144-8.948-16.103-12.847-24.039
			C239.56,645.755,238.653,643.884,237.771,642.014"/>
		<path clip-path="url(#SF_SVGID_8_)" fill="#C64421" d="M346.626,158.495c-15.531,7.191-20.802,8.468-20.802,8.468l-0.343-1.103
			c-0.616-0.091-0.176,1.555-0.176,1.555s-0.484,2.004-1.567,6.53c0.001-0.003,0.105,0.88,0.105,0.877
			c0.707-0.022,1.387-0.035,2.042-0.043c19.084-2.426,31.89-8.025,39.933-13.052C359.414,160.051,352.978,158.931,346.626,158.495"
			/>
		<path clip-path="url(#SF_SVGID_8_)" fill="#C64421" d="M461.715,232.191c-1.738-2.759-3.603-5.468-5.568-8.129
			c-1.997,7.997-4.499,17.622-6.259,24.735c1.131,1.54,2.21,3.101,3.205,4.691C456.282,258.548,469.791,245.011,461.715,232.191"/>
		<path clip-path="url(#SF_SVGID_8_)" fill="#C64421" d="M430.71,197.081c-12.159-10.372-25.776-19.354-40.227-26.231
			c-7.993-3.804-16.302-6.938-24.665-9.124c-8.043,5.028-20.849,10.627-39.933,13.052c10.346-0.12,14.542,1.506,23.686,4.304
			c11.041,3.287,21.773,8.175,32.507,14.135c5.358,2.94,10.653,6.247,15.9,9.67c2.604,1.752,5.243,3.48,7.773,5.366
			c1.293,0.908,2.572,1.837,3.853,2.768l3.777,2.873c10.091,7.678,19.749,16.018,28.336,25.136c2.924,3.143,5.689,6.395,8.17,9.766
			c1.76-7.113,4.262-16.738,6.259-24.735C448.931,214.302,440.259,205.228,430.71,197.081"/>
	</g>

	<g id="LEFT_STRIP1" clip-path="url(#SF_SVGID_2_)">
		<defs>
			<rect id="SF_SVGID_5_" x="64.62" y="80.5" width="485.047" height="627.708"/>
		</defs>
		<clipPath id="SF_SVGID_6_">
			<use xlink:href="#SF_SVGID_5_"  overflow="visible"/>
		</clipPath>
		<path clip-path="url(#SF_SVGID_6_)" fill="#897F76" d="M213.536,361.144c-7.146-92.679-42.273-123.509-61.46-136.169
			c2.873,11.467,6.668,25.895,7.843,31.531c1.788,8.578,10.008,53.974,11.081,59.336c0.073,0.367,0.14,0.754,0.2,1.151
			c0.005,0.034,0.01,0.067,0.015,0.101c0.055,0.372,0.106,0.754,0.151,1.144c0.004,0.042,0.01,0.084,0.016,0.126
			c0.044,0.395,0.083,0.797,0.119,1.204c0.003,0.03,0.006,0.06,0.008,0.089c0.038,0.434,0.071,0.872,0.099,1.311
			c0,0.005,0,0.011,0,0.018c0.027,0.434,0.051,0.866,0.07,1.296c0.001,0.037,0.003,0.071,0.005,0.108
			c0.018,0.406,0.032,0.809,0.044,1.206c0.001,0.035,0.002,0.071,0.002,0.107c0.012,0.412,0.022,0.816,0.028,1.208
			c0,0.007,0,0.013,0,0.021c0.006,0.411,0.01,0.808,0.013,1.188c0.021-0.055,0.035-0.086,0.035-0.086s4.029,21.494,3.357,30.225
			c-0.672,8.732,4.03,63.136,7.388,79.927c3.358,16.792,7.388,59.779,4.031,77.914c-3.359,18.135-11.419,66.494-13.434,87.315
			c-2.016,20.82-2.016,36.269-2.016,36.269s-2.687,2.688-2.687,5.374s1.344,8.731,1.344,8.731v4.703c0,0,1.343,10.074,28.882,12.089
			c6.498,0.476,13.293,0.875,20.018,1.236c-11.194-16.947-30.487-44.036-32.886-99.343
			C182.112,485.327,219.313,436.07,213.536,361.144"/>
    		<path clip-path="url(#SF_SVGID_12_)" fill="#897F76" d="M514.351,332.749l-2.015-10.074c0,0-1.343-57.764-8.061-81.271
			c-6.717-23.508-29.553-40.971-33.584-42.315c-2.997-0.999-7.854-4.229-10.143-5.816c-0.088,4.252-0.384,12.288-1.393,17.838
			c-1.43,7.864-9.295,36.817-11.08,45.396c-1.788,8.578-10.01,53.974-11.081,59.336c-0.685,3.418-0.786,8.287-0.771,11.368
			c0.134-0.746,0.215-1.178,0.215-1.178s2.686,6.717,3.358,8.731c0.671,2.016,0,3.359-0.673,7.389
			c-0.671,4.03,0.673,5.373,0.673,5.373s12.762,0,32.911-1.343c20.149-1.344,43.657-7.389,43.657-7.389L514.351,332.749z"/>

	</g>
	<g clip-path="url(#SF_SVGID_2_)">
		<defs>
			<rect id="SF_SVGID_9_" x="64.62" y="80.5" width="485.047" height="627.708"/>
		</defs>
		<clipPath id="SF_SVGID_10_">
			<use xlink:href="#SF_SVGID_9_"  overflow="visible"/>
		</clipPath>
		<!--<path clip-path="url(#SF_SVGID_10_)" d="M171.757,324.931c0-0.007,0-0.015,0-0.021c-0.006-0.393-0.016-0.796-0.028-1.208
			c0-0.036-0.002-0.072-0.002-0.107c-0.012-0.396-0.026-0.799-0.044-1.207c-0.001-0.036-0.003-0.071-0.005-0.106
			c-0.019-0.43-0.042-0.863-0.07-1.296c0-0.006,0-0.013,0-0.018c-0.028-0.438-0.062-0.877-0.099-1.31
			c-0.002-0.029-0.005-0.06-0.008-0.089c-0.036-0.406-0.075-0.809-0.121-1.204c-0.004-0.042-0.009-0.083-0.014-0.125
			c-0.044-0.391-0.096-0.772-0.151-1.144c-0.005-0.034-0.01-0.068-0.016-0.102c-0.06-0.397-0.126-0.784-0.201-1.15
			c-1.072-5.362-9.293-50.758-11.081-59.336c-1.786-8.578-9.651-37.532-11.08-45.396c-0.057-0.307-0.109-0.623-0.161-0.943
			c-0.015-0.092-0.029-0.184-0.043-0.276c-0.04-0.254-0.078-0.512-0.114-0.773c-0.011-0.08-0.023-0.158-0.034-0.238
			c-0.046-0.331-0.089-0.667-0.131-1.006c-0.011-0.078-0.019-0.157-0.028-0.235c-0.033-0.273-0.064-0.55-0.095-0.829
			c-0.012-0.105-0.023-0.21-0.035-0.316c-0.033-0.314-0.065-0.629-0.095-0.947c-0.004-0.039-0.008-0.078-0.012-0.117
			c-0.033-0.353-0.065-0.707-0.095-1.062c-0.01-0.108-0.018-0.216-0.027-0.323c-0.022-0.273-0.044-0.545-0.065-0.817
			c-0.007-0.096-0.014-0.191-0.021-0.287c-0.026-0.356-0.051-0.709-0.075-1.063c-0.004-0.067-0.008-0.134-0.013-0.203
			c-0.019-0.291-0.037-0.581-0.055-0.87c-0.006-0.108-0.013-0.214-0.019-0.321c-0.018-0.303-0.034-0.604-0.049-0.903
			c-0.002-0.043-0.005-0.089-0.008-0.133c-0.017-0.345-0.034-0.683-0.049-1.018c-0.004-0.085-0.008-0.167-0.012-0.251
			c-0.012-0.274-0.022-0.543-0.034-0.81c-0.002-0.065-0.005-0.13-0.008-0.195c-0.013-0.33-0.025-0.653-0.036-0.967
			c0-0.018-0.001-0.034-0.001-0.051c-0.01-0.301-0.032-0.975-0.033-1.023c-0.018-0.607-0.032-1.173-0.043-1.687v-0.004
			c-2.374,1.636-6.999,4.681-9.9,5.648c-4.03,1.343-26.866,18.807-33.583,42.315c-6.716,23.507-8.059,81.271-8.059,81.271
			L93.89,332.75l-2.015,6.045c0,0,23.508,6.044,43.658,7.388c20.15,1.343,32.911,1.343,32.911,1.343s1.344-1.343,0.672-5.374
			c-0.672-4.029-1.343-5.373-0.672-7.388c0.628-1.883,3.016-7.874,3.325-8.646C171.767,325.739,171.763,325.341,171.757,324.931"/>-->
	</g>
	<g id="SLEEVE" clip-path="url(#SF_SVGID_2_)">
		<defs>
			<rect id="SF_SVGID_11_" x="64.62" y="80.5" width="485.047" height="627.708"/>
		</defs>
		<clipPath id="SF_SVGID_12_">
			<use xlink:href="#SF_SVGID_11_"  overflow="visible"/>
		</clipPath>
		<!--<path clip-path="url(#SF_SVGID_12_)" fill="#897F76" d="M514.351,332.749l-2.015-10.074c0,0-1.343-57.764-8.061-81.271
			c-6.717-23.508-29.553-40.971-33.584-42.315c-2.997-0.999-7.854-4.229-10.143-5.816c-0.088,4.252-0.384,12.288-1.393,17.838
			c-1.43,7.864-9.295,36.817-11.08,45.396c-1.788,8.578-10.01,53.974-11.081,59.336c-0.685,3.418-0.786,8.287-0.771,11.368
			c0.134-0.746,0.215-1.178,0.215-1.178s2.686,6.717,3.358,8.731c0.671,2.016,0,3.359-0.673,7.389
			c-0.671,4.03,0.673,5.373,0.673,5.373s12.762,0,32.911-1.343c20.149-1.344,43.657-7.389,43.657-7.389L514.351,332.749z"/>-->
	</g>
	<g id="COLLAR" clip-path="url(#SF_SVGID_2_)">
		<defs>
			<rect id="SF_SVGID_13_" x="64.62" y="80.5" width="485.047" height="627.708"/>
		</defs>
		<clipPath id="SF_SVGID_14_">
			<use xlink:href="#SF_SVGID_13_"  overflow="visible"/>
		</clipPath>
		<path clip-path="url(#SF_SVGID_14_)" fill="#897F76" d="M307.375,176.003c45.242-0.447,64.21-17.601,68.746-22.547
			c-5.35-4.014-8.97-7.109-10.207-8.1c-3.359-2.687-3.359-4.701-6.717-6.716c-3.358-2.015-4.702-8.06-11.418-11.418
			c-4.276-2.137-23.514-2.915-36.937-3.197l-0.005-0.161c0,0-2.641,0-6.717,0.049c-4.077-0.049-6.717-0.049-6.717-0.049
			l-0.005,0.161c-13.423,0.282-32.661,1.06-36.936,3.197c-6.717,3.358-8.06,9.403-11.419,11.418
			c-3.358,2.015-3.358,4.03-6.716,6.716c-0.985,0.79-3.488,2.917-7.163,5.775C240.914,157.26,262.517,176.448,307.375,176.003"/>
	</g>
	<g clip-path="url(#SF_SVGID_2_)">
		<defs>
			<rect id="SF_SVGID_15_" x="64.62" y="80.5" width="485.047" height="627.708"/>
		</defs>
		<clipPath id="SF_SVGID_16_">
			<use xlink:href="#SF_SVGID_15_"  overflow="visible"/>
		</clipPath>
		<g opacity="0.35" clip-path="url(#SF_SVGID_16_)">
			<g>
				<defs>
					<rect id="SF_SVGID_17_" x="237.333" y="149.232" width="136.98" height="24.402"/>
				</defs>
				<clipPath id="SF_SVGID_18_">
					<use xlink:href="#SF_SVGID_17_"  overflow="visible"/>
				</clipPath>
				<path clip-path="url(#SF_SVGID_18_)" fill="none" stroke="#000000" stroke-miterlimit="10" stroke-dasharray="0.859,0.859" d="
					M373.981,152.095c0,0-13.697,20.612-66.574,21.136c-53.366,0.528-69.746-23.777-69.746-23.777"/>
			</g>
		</g>
		<g opacity="0.35" clip-path="url(#SF_SVGID_16_)">
			<g>
				<defs>
					<rect id="SF_SVGID_19_" x="95.115" y="325.468" width="73.331" height="9.693"/>
				</defs>
				<clipPath id="SF_SVGID_20_">
					<use xlink:href="#SF_SVGID_19_"  overflow="visible"/>
				</clipPath>
				<path clip-path="url(#SF_SVGID_20_)" fill="none" stroke="#000000" stroke-miterlimit="10" stroke-dasharray="0.859,0.859" d="
					M95.221,325.85c0,0,16.8,4.647,37.889,6.792c21.09,2.145,35.336,2.124,35.336,2.124"/>
			</g>
		</g>
		<g opacity="0.35" clip-path="url(#SF_SVGID_16_)">
			<g>
				<defs>
					<rect id="SF_SVGID_21_" x="95.115" y="328.641" width="73.331" height="9.692"/>
				</defs>
				<clipPath id="SF_SVGID_22_">
					<use xlink:href="#SF_SVGID_21_"  overflow="visible"/>
				</clipPath>
				<path clip-path="url(#SF_SVGID_22_)" fill="none" stroke="#000000" stroke-miterlimit="10" stroke-dasharray="0.859,0.859" d="
					M95.221,329.023c0,0,16.8,4.646,37.889,6.791c21.09,2.145,35.336,2.123,35.336,2.123"/>
			</g>
		</g>
		<g opacity="0.35" clip-path="url(#SF_SVGID_16_)">
			<g>
				<defs>
					<rect id="SF_SVGID_23_" x="440.26" y="325.468" width="73.331" height="9.693"/>
				</defs>
				<clipPath id="SF_SVGID_24_">
					<use xlink:href="#SF_SVGID_23_"  overflow="visible"/>
				</clipPath>
				<path clip-path="url(#SF_SVGID_24_)" fill="none" stroke="#000000" stroke-miterlimit="10" stroke-dasharray="0.859,0.859" d="
					M513.483,325.85c0,0-16.798,4.647-37.888,6.792s-35.335,2.124-35.335,2.124"/>
			</g>
		</g>
		<g opacity="0.35" clip-path="url(#SF_SVGID_16_)">
			<g>
				<defs>
					<rect id="SF_SVGID_25_" x="440.26" y="328.641" width="73.331" height="9.692"/>
				</defs>
				<clipPath id="SF_SVGID_26_">
					<use xlink:href="#SF_SVGID_25_"  overflow="visible"/>
				</clipPath>
				<path clip-path="url(#SF_SVGID_26_)" fill="none" stroke="#000000" stroke-miterlimit="10" stroke-dasharray="0.859,0.859" d="
					M513.483,329.023c0,0-16.798,4.646-37.888,6.791c-21.09,2.145-35.335,2.123-35.335,2.123"/>
			</g>
		</g>
		<g opacity="0.35" clip-path="url(#SF_SVGID_16_)">
			<g>
				<defs>
					<rect id="SF_SVGID_27_" x="169.205" y="637.577" width="268.286" height="26.484"/>
				</defs>
				<clipPath id="SF_SVGID_28_">
					<use xlink:href="#SF_SVGID_27_"  overflow="visible"/>
				</clipPath>
				<path clip-path="url(#SF_SVGID_28_)" fill="none" stroke="#000000" stroke-miterlimit="10" stroke-dasharray="0.859,0.859" d="
					M169.569,639.328c0,0,5.719,13.225,37.174,17.516c31.456,4.289,64.611,7.152,100.085,6.791
					c35.029-0.358,104.335-11.684,111.88-13.226c15.728-3.218,18.401-12.726,18.401-12.726"/>
			</g>
		</g>
		<g opacity="0.35" clip-path="url(#SF_SVGID_16_)">
			<g>
				<defs>
					<rect id="SF_SVGID_29_" x="168.326" y="640.15" width="270.832" height="27.877"/>
				</defs>
				<clipPath id="SF_SVGID_30_">
					<use xlink:href="#SF_SVGID_29_"  overflow="visible"/>
				</clipPath>
				<path clip-path="url(#SF_SVGID_30_)" fill="none" stroke="#000000" stroke-miterlimit="10" stroke-dasharray="0.859,0.859" d="
					M168.679,643.437c0,0,6.609,13.083,38.063,17.372c31.456,4.29,64.611,7.154,100.085,6.792
					c35.029-0.358,104.335-11.683,111.88-13.225c15.726-3.219,20.083-14.078,20.083-14.078"/>
			</g>
		</g>
		<g opacity="0.35" clip-path="url(#SF_SVGID_16_)">
			<g>
				<defs>
					<rect id="SF_SVGID_31_" x="435.826" y="193.271" width="25.119" height="136.885"/>
				</defs>
				<clipPath id="SF_SVGID_32_">
					<use xlink:href="#SF_SVGID_31_"  overflow="visible"/>
				</clipPath>
				<path clip-path="url(#SF_SVGID_32_)" fill="none" stroke="#000000" stroke-miterlimit="10" d="M460.549,193.272
					c0,0,0.037,9.975-1.393,17.838c-1.432,7.864-9.295,36.817-11.08,45.396c-1.788,8.578-10.01,53.974-11.081,59.336
					c-1.073,5.362-0.716,14.297-0.716,14.297"/>
			</g>
		</g>
		<g opacity="0.35" clip-path="url(#SF_SVGID_16_)">
			<g>
				<defs>
					<rect id="SF_SVGID_33_" x="147.051" y="193.439" width="25.116" height="136.716"/>
				</defs>
				<clipPath id="SF_SVGID_34_">
					<use xlink:href="#SF_SVGID_33_"  overflow="visible"/>
				</clipPath>
				<path clip-path="url(#SF_SVGID_34_)" fill="none" stroke="#000000" stroke-miterlimit="10" d="M147.448,193.441
					c0,0-0.041,9.806,1.389,17.669c1.43,7.864,9.293,36.817,11.081,45.396c1.788,8.578,10.009,53.974,11.081,59.336
					c1.073,5.362,0.715,14.297,0.715,14.297"/>
			</g>
		</g>
		<g opacity="0.35" clip-path="url(#SF_SVGID_16_)">
			<g>
				<defs>
					<rect id="SF_SVGID_35_" x="235.505" y="150.923" width="140.937" height="25.485"/>
				</defs>
				<clipPath id="SF_SVGID_36_">
					<use xlink:href="#SF_SVGID_35_"  overflow="visible"/>
				</clipPath>
				<path clip-path="url(#SF_SVGID_36_)" fill="none" stroke="#000000" stroke-miterlimit="10" stroke-dasharray="0.859,0.859" d="
					M376.121,153.456c0,0-15.869,22.025-68.746,22.548c-53.366,0.529-71.548-24.849-71.548-24.849"/>
			</g>
		</g>
	</g>
	<g clip-path="url(#SF_SVGID_2_)">
		<defs>
			<rect id="SF_SVGID_37_" x="64.62" y="80.5" width="485.047" height="627.708"/>
		</defs>
		<clipPath id="SF_SVGID_38_">
			<use xlink:href="#SF_SVGID_37_"  overflow="visible"/>
		</clipPath>
		<path clip-path="url(#SF_SVGID_38_)" d="M171.756,324.91c0,0.007,0,0.014,0,0.02C171.756,324.924,171.756,324.917,171.756,324.91"/>
		<path clip-path="url(#SF_SVGID_38_)" d="M171.77,326.118"/>
		<path clip-path="url(#SF_SVGID_38_)" fill="#FFFFFF" d="M307.407,154.208c27.741,0.264,48.875-14.003,48.61-16.38
			c-0.264-2.378-4.813-6.793-7.72-8.906c-2.907-2.113-16.723-3.525-44.462-3.373c-28.058,0.153-37.563,1.227-41.396,2.146
			c-3.834,0.919-10.146,7.921-9.353,9.506C253.879,138.786,279.831,153.945,307.407,154.208"/>
		<g opacity="0.35" clip-path="url(#SF_SVGID_38_)">
			<g>
				<defs>
					<rect id="SF_SVGID_39_" x="253.019" y="125.539" width="103.002" height="28.673"/>
				</defs>
				<clipPath id="SF_SVGID_40_">
					<use xlink:href="#SF_SVGID_39_"  overflow="visible"/>
				</clipPath>
				<g clip-path="url(#SF_SVGID_40_)">
					<defs>
						<path id="SF_SVGID_41_" d="M307.407,154.208c27.739,0.264,48.875-14.003,48.61-16.38c-0.265-2.378-4.813-6.793-7.72-8.906
							c-2.907-2.113-16.723-3.525-44.462-3.373c-28.059,0.153-37.564,1.227-41.397,2.146s-10.146,7.921-9.353,9.506
							C253.878,138.786,279.831,153.945,307.407,154.208"/>
					</defs>
					<clipPath id="SF_SVGID_42_">
						<use xlink:href="#SF_SVGID_41_"  overflow="visible"/>
					</clipPath>
					
						<radialGradient id="SF_SVGID_43_" cx="0.5112" cy="790.8271" r="0.7926" gradientTransform="matrix(102.1332 0 0 -40.5422 252.9668 32188.9707)" gradientUnits="userSpaceOnUse">
						<stop  offset="0" style="stop-color:#FFFFFF"/>
						<stop  offset="1" style="stop-color:#FFFFFF"/>
					</radialGradient>
					<rect x="252.293" y="125.397" clip-path="url(#SF_SVGID_42_)" fill="url(#SF_SVGID_43_)" width="103.989" height="29.075"/>
				</g>
				<g clip-path="url(#SF_SVGID_40_)">
					<defs>
						<path id="SF_SVGID_44_" d="M307.407,154.208c27.739,0.264,48.875-14.003,48.61-16.38c-0.265-2.378-4.813-6.793-7.72-8.906
							c-2.907-2.113-16.723-3.525-44.462-3.373c-28.059,0.153-37.564,1.227-41.397,2.146s-10.146,7.921-9.353,9.506
							C253.878,138.786,279.831,153.945,307.407,154.208"/>
					</defs>
					<clipPath id="SF_SVGID_45_">
						<use xlink:href="#SF_SVGID_44_"  overflow="visible"/>
					</clipPath>
					
						<radialGradient id="SF_SVGID_46_" cx="0.5112" cy="790.8271" r="0.7926" gradientTransform="matrix(102.1332 0 0 -40.5422 252.9668 32188.9707)" gradientUnits="userSpaceOnUse">
						<stop  offset="0" style="stop-color:#FFFFFF"/>
						<stop  offset="0.1085" style="stop-color:#EBEBEB"/>
						<stop  offset="0.3308" style="stop-color:#B7B7B7"/>
						<stop  offset="0.6481" style="stop-color:#646464"/>
						<stop  offset="1" style="stop-color:#000000"/>
					</radialGradient>
					<rect x="252.293" y="125.397" clip-path="url(#SF_SVGID_45_)" fill="url(#SF_SVGID_46_)" width="103.989" height="29.075"/>
				</g>
			</g>
		</g>
		<g opacity="0.5" clip-path="url(#SF_SVGID_38_)">
			<g>
				<defs>
					<rect id="SF_SVGID_47_" x="108.259" y="131.288" width="396.021" height="535.775"/>
				</defs>
				<clipPath id="SF_SVGID_48_">
					<use xlink:href="#SF_SVGID_47_"  overflow="visible"/>
				</clipPath>
				<g opacity="0.1" clip-path="url(#SF_SVGID_48_)">
					<g>
						<defs>
							<rect id="SF_SVGID_49_" x="340.698" y="131.288" width="119.851" height="530.419"/>
						</defs>
						<clipPath id="SF_SVGID_50_">
							<use xlink:href="#SF_SVGID_49_"  overflow="visible"/>
						</clipPath>
						<path clip-path="url(#SF_SVGID_50_)" fill="#897F76" d="M436.995,315.842c1.071-5.362,9.293-50.758,11.081-59.336
							c1.785-8.579,9.65-37.532,11.08-45.396c1.009-5.55,1.305-13.586,1.393-17.838c-0.787-0.545-1.275-0.9-1.275-0.9
							s-18.136-6.045-43.657-16.12c-25.523-10.074-46.345-28.209-49.702-30.896c-3.359-2.688-3.359-4.703-6.717-6.717
							c-2.224-1.334-3.572-4.434-6.173-7.351l-1.365,0.478c2.179,2.084,4.186,4.508,4.358,6.063
							c0.14,1.255-5.696,5.829-15.319,9.825c0.779,1.615,1.341,3.139,1.431,4.313c0.347,4.504,0,4.157,0,10.741
							c0,6.583,2.426,13.166,6.583,22.867c4.158,9.701,8.661,4.504,11.779,18.364c3.12,13.858-15.59,11.433-15.59,11.433
							s16.978,2.425,35.687,1.386c18.71-1.039,14.552,0,27.718-1.386c13.167-1.386,13.167-3.465,33.262,2.079
							c20.096,5.543,4.852,18.017,3.465,32.222c-1.386,14.206-21.481,12.126-27.371,19.749c-5.89,7.623-2.079,66.871-1.387,73.453
							c0.692,6.583-13.512,18.017-13.512,18.017s-3.812,11.088-6.236,19.402c-2.426,8.316,3.811,25.641,3.464,44.35
							c-0.346,18.71-17.323,43.309-23.214,56.82c-5.889,13.514-1.385,26.68,8.315,56.13c9.703,29.451,3.813,3.811,11.087,12.819
							c7.277,9.01,3.812,5.544,7.622,18.364c3.813,12.817,5.198,32.222,5.198,32.222s1.386,20.094,6.236,38.459
							c4.851,18.362,2.771,10.048,15.245,20.788l3.95,1.462c3.688-2.742,4.022-5.216,4.022-5.216v-4.704c0,0,1.344-6.044,1.344-8.73
							s-2.687-5.373-2.687-5.373s0-15.449-2.016-36.27c-2.015-20.821-10.075-69.181-13.435-87.315
							c-3.357-18.135,0.674-61.122,4.031-77.914c3.358-16.791,8.061-71.195,7.389-79.927c-0.578-7.511,2.321-24.455,3.144-29.047
							C436.209,324.128,436.311,319.26,436.995,315.842"/>
					</g>
				</g>
				<g opacity="0.1" clip-path="url(#SF_SVGID_48_)">
					<g>
						<defs>
							<rect id="SF_SVGID_51_" x="147.448" y="133.892" width="135.179" height="533.17"/>
						</defs>
						<clipPath id="SF_SVGID_52_">
							<use xlink:href="#SF_SVGID_51_"  overflow="visible"/>
						</clipPath>
						<path clip-path="url(#SF_SVGID_52_)" fill="#897F76" d="M280.45,149.796c-15.514-4.686-26.844-11.557-27.363-12.595
							c-0.254-0.508,0.226-1.574,1.115-2.814c-0.365-0.175-0.716-0.342-1.036-0.495c-1.431,2.001-2.561,3.812-4.122,4.747
							c-3.358,2.015-3.358,4.03-6.716,6.716c-3.357,2.688-24.179,20.822-49.703,30.897c-25.523,10.075-43.658,16.12-43.658,16.12
							s-0.593,0.43-1.519,1.067c0.091,4.294,0.394,12.194,1.389,17.67c1.43,7.864,9.293,36.817,11.081,45.396
							c1.788,8.578,10.009,53.974,11.081,59.336c0.607,3.036,0.756,7.219,0.771,10.276c0.021-0.055,0.034-0.086,0.034-0.086
							s4.03,21.494,3.357,30.225c-0.671,8.732,4.03,63.136,7.39,79.927c3.356,16.792,7.387,59.779,4.029,77.914
							c-3.358,18.135-11.419,66.494-13.434,87.315c-2.016,20.82-2.016,36.27-2.016,36.27s-2.686,2.687-2.686,5.373
							s1.343,8.731,1.343,8.731v4.703c0,0,0.955,7.101,17.561,10.571c1.419-8.071,3.528-22.266,2.332-29.686
							c-1.731-10.739,1.387-8.662,6.236-15.938c4.851-7.276,3.812-31.529,4.505-60.635c0.692-29.103,55.436-14.896,55.436-14.896
							s4.503-6.237,3.811-14.898c-0.692-8.662-28.063-46.774-33.261-55.437c-5.197-8.661,2.772-7.622,2.772-7.622
							s-7.624-3.464-10.742-20.441c-3.118-16.978,5.197-37.766,12.82-55.783c7.623-18.016,29.797-36.726,29.797-36.726
							s-23.907,3.811-46.773-6.584c-22.867-10.394-24.254-28.063-27.372-82.46c-3.12-54.396,2.079-65.137,14.551-65.831
							c12.474-0.693,56.476,13.859,63.059,16.631c0,0,4.158-8.662,2.771-13.858c-1.385-5.198,2.772-13.512,7.623-22.521
							c4.85-9.008,4.85-4.851,6.583-6.236c1.732-1.386,0.346-9.354-0.692-11.779c-1.041-2.426-0.347-3.119,1.732-8.663
							C282.917,152.683,282.073,151.329,280.45,149.796"/>
					</g>
				</g>
				<g opacity="0.12" clip-path="url(#SF_SVGID_48_)">
					<g>
						<defs>
							<rect id="SF_SVGID_53_" x="108.259" y="237.546" width="62.02" height="89.044"/>
						</defs>
						<clipPath id="SF_SVGID_54_">
							<use xlink:href="#SF_SVGID_53_"  overflow="visible"/>
						</clipPath>
						<path clip-path="url(#SF_SVGID_54_)" fill="#897F76" d="M155.38,294.368c-1.733-2.772-41.924-56.822-41.924-56.822
							s0.693,5.197,3.465,11.087c2.771,5.89,30.836,41.23,30.836,41.23s-25.294-27.718-26.679-29.45
							c-1.386-1.732-12.82-10.742-12.82-9.355c0,1.386,8.663,10.74,15.592,17.323c6.929,6.583,21.134,20.789,27.717,30.836
							c6.583,10.048,18.709,27.373,18.709,27.373s-2.425-10.048-4.158-14.206C164.387,308.227,157.112,297.14,155.38,294.368"/>
					</g>
				</g>
				<g opacity="0.12" clip-path="url(#SF_SVGID_48_)">
					<g>
						<defs>
							<rect id="SF_SVGID_55_" x="116.228" y="229.23" width="27.025" height="31.182"/>
						</defs>
						<clipPath id="SF_SVGID_56_">
							<use xlink:href="#SF_SVGID_55_"  overflow="visible"/>
						</clipPath>
						<path clip-path="url(#SF_SVGID_56_)" fill="#897F76" d="M128.008,246.208c-2.425-3.465-11.78-16.977-11.78-16.977
							s3.811,14.206,11.434,21.48c7.622,7.276,15.591,9.702,15.591,9.702S130.434,249.673,128.008,246.208"/>
					</g>
				</g>
				<g opacity="0.12" clip-path="url(#SF_SVGID_48_)">
					<g>
						<defs>
							<rect id="SF_SVGID_57_" x="441.222" y="247.94" width="63.058" height="63.405"/>
						</defs>
						<clipPath id="SF_SVGID_58_">
							<use xlink:href="#SF_SVGID_57_"  overflow="visible"/>
						</clipPath>
						<path clip-path="url(#SF_SVGID_58_)" fill="#897F76" d="M502.894,247.94c0,0-4.504,9.008-8.315,15.938
							c-3.811,6.931-20.096,20.095-28.758,24.946c-8.661,4.851-24.599,22.521-24.599,22.521s7.275-1.386,11.78-4.85
							c4.503-3.465,33.261-14.899,44.349-30.836C508.438,259.72,502.894,247.94,502.894,247.94"/>
					</g>
				</g>
				<g opacity="0.12" clip-path="url(#SF_SVGID_48_)">
					<g>
						<defs>
							<rect id="SF_SVGID_59_" x="447.111" y="300.604" width="50.239" height="20.66"/>
						</defs>
						<clipPath id="SF_SVGID_60_">
							<use xlink:href="#SF_SVGID_59_"  overflow="visible"/>
						</clipPath>
						<path clip-path="url(#SF_SVGID_60_)" fill="#897F76" d="M475.176,314.117c-9.701,2.772-28.064,6.237-28.064,6.237
							s13.165,3.465,29.45-3.118c16.284-6.584,20.789-16.631,20.789-16.631S484.878,311.345,475.176,314.117"/>
					</g>
				</g>
				<g opacity="0.12" clip-path="url(#SF_SVGID_48_)">
					<g>
						<defs>
							<rect id="SF_SVGID_61_" x="452.663" y="254.431" width="37.064" height="36.091"/>
						</defs>
						<clipPath id="SF_SVGID_62_">
							<use xlink:href="#SF_SVGID_61_"  overflow="visible"/>
						</clipPath>
						<path clip-path="url(#SF_SVGID_62_)" fill="#897F76" d="M476.215,259.027c-6.582,7.622-8.662,10.394-14.552,13.859
							c-5.735,3.374-8.841,16.925-9.001,17.636c0.141-0.615,2.34-9.795,10.041-13.478c7.968-3.812,13.512-3.465,17.323-10.047
							c3.812-6.583,9.701-11.435,9.701-11.435S482.799,251.404,476.215,259.027"/>
					</g>
				</g>
			</g>
		</g>
	</g>
</g>
  <g id="CUSTOM"></g>
</svg>
