<?xml version="1.0" encoding="utf-8"?>
<!-- Generator: Adobe Illustrator 16.0.0, SVG Export Plug-In . SVG Version: 6.00 Build 0)  -->
<!DOCTYPE svg PUBLIC "-//W3C//DTD SVG 1.1//EN" "http://www.w3.org/Graphics/SVG/1.1/DTD/svg11.dtd">
<svg version="1.1" id="Layer_1" xmlns="http://www.w3.org/2000/svg" xmlns:xlink="http://www.w3.org/1999/xlink" x="0px" y="0px"
	 width="800.453px" height="1035.881px" viewBox="0 0 620 1035.881" enable-background="new 0 0 800.453 1035.881"
	 xml:space="preserve">

	<defs>
		<rect id="SVGID_SVG_BACK__1_" x="15.511" y="54.005" width="728.546" height="942.824"/>
	</defs>
	<clipPath id="SVGID_SVG_BACK__2_">
		<use xlink:href="#SVGID_SVG_BACK__1_"  overflow="visible"/>
	</clipPath>
  <g id="BODY">
    <g id="BODY1">
      		<path clip-path="url(#SVGID_SVG_BACK__4_)" d="M610.683,195.138c-11.226-3.938-60.905-23.451-76.637-33.631
			c-17.151-11.096-39.344-28.248-45.398-33.292c-5.22-4.35-10.437-13.187-15.01-16.834c-21.419-2.718-64.34-7.771-90.114-8.151
			c-27.514-0.403-77.366,6.385-98.192,9.427c-4.218,4.14-8.901,11.654-13.585,15.559c-6.054,5.043-28.248,22.195-45.398,33.292
			c-17.151,11.098-74.653,33.292-78.69,34.301c-0.499,0.125-1.51,0.716-2.926,1.71c1.522,30.56,15.454,84.385,20.077,110.271
			c5.043,28.248,15.133,49.434,15.133,61.54v18.305c2.168,4.838,5.396,13.152,6.053,21.04c1.01,12.106,3.026,56.495,11.097,72.637
			c8.071,16.141,23.203,111.981,25.221,121.061c2.018,9.08-5.043,43.379-5.043,51.451c0,8.072-19.169,67.594-20.177,83.733
			c-1.008,16.143-5.044,38.337-5.044,54.478c0,16.142-7.063,40.354-7.063,40.354s6.053,12.107,14.125,27.239
			c8.069,15.133,22.195,39.346,27.238,52.461c5.045,13.114,25.222,43.379,66.584,57.504c5.327,1.817,11.866,3.267,19.206,4.415
			l-0.039,1.637c0,0,20.608,1.458,47.474,2.051c6.903,0.18,13.839,0.251,20.623,0.244c6.786,0.007,13.719-0.064,20.623-0.244
			c26.867-0.593,47.474-2.051,47.474-2.051l-0.039-1.637c7.339-1.148,13.878-2.598,19.207-4.415
			c41.363-14.125,61.54-44.39,66.584-57.504c5.044-13.115,19.168-37.328,27.239-52.461c8.071-15.132,14.123-27.239,14.123-27.239
			s-7.062-24.212-7.062-40.354c0-16.141-4.035-38.335-5.045-54.478c-1.008-16.14-20.177-75.661-20.177-83.733
			c0-8.071-7.063-42.371-5.045-51.451c2.019-9.08,17.15-104.92,25.222-121.061c8.07-16.143,10.089-60.531,11.098-72.637
			c0.698-8.381,4.298-17.243,6.447-21.904c1.171-7.663,2.481-16.377,3.641-24.503c3.027-21.186,15.133-107.946,22.195-129.132
			C610.901,220.479,611.16,205.307,610.683,195.138"/>
      		<path clip-path="url(#SVGID_SVG_BACK__10_)" d="M164.809,307.79c-4.622-25.886-18.554-79.711-20.077-110.272
			c-10.048,7.05-40.681,34.564-56.596,62.856c-18.159,32.283-14.124,119.043-14.124,123.079c0,4.036-1.008,17.15-1.008,17.15
			l-3.028,6.053c0,0,34.301,9.081,63.558,9.081c29.256,0,45.397-5.046,45.397-5.046l-1.009-27.238c0,0,0.858,1.595,2.018,4.182
			v-18.306C179.942,357.222,169.853,336.037,164.809,307.79"/>
    </g>
    <g id="LEFT_STRIP1" >
      		<path clip-path="url(#SVGID_SVG_BACK__6_)" fill="#897F76" d="M587.556,340.837c0.005-0.031,0.009-0.062,0.014-0.094
			c4.929-34.014,13.574-90.987,19.113-107.607c4.219-12.656,4.478-27.828,4-37.997c-7.93-2.782-35.036-13.333-55.821-22.878
			c-0.08-0.037-0.162-0.074-0.242-0.111c-0.549-0.252-1.091-0.503-1.631-0.754c-0.173-0.079-0.344-0.161-0.517-0.241
			c-0.856-0.399-1.7-0.797-2.528-1.193c-0.272-0.127-0.542-0.257-0.81-0.384c-0.411-0.198-0.82-0.394-1.225-0.591
			c-0.372-0.18-0.737-0.359-1.101-0.539c-0.484-0.235-0.962-0.471-1.432-0.705c-0.439-0.219-0.874-0.437-1.301-0.652
			c-0.281-0.142-0.561-0.284-0.838-0.426c-0.514-0.262-1.018-0.523-1.513-0.782c-0.195-0.101-0.39-0.202-0.58-0.303
			c-0.53-0.28-1.044-0.555-1.545-0.827c-0.186-0.101-0.37-0.2-0.551-0.3c-0.547-0.3-1.081-0.596-1.59-0.886
			c-0.051-0.029-0.098-0.057-0.148-0.084c-0.52-0.298-1.013-0.589-1.49-0.875c-0.126-0.076-0.254-0.153-0.378-0.228
			c-0.488-0.298-0.961-0.589-1.397-0.873c-17.151-11.096-39.344-28.248-45.398-33.292c-5.22-4.349-10.437-13.187-15.01-16.834
			c-21.419-2.718-64.34-7.771-90.114-8.15c-27.514-0.405-77.365,6.384-98.192,9.426c-4.217,4.141-8.9,11.655-13.586,15.559
			c-6.052,5.043-28.247,22.195-45.396,33.292c-0.425,0.275-0.881,0.559-1.355,0.847c-0.07,0.042-0.139,0.086-0.21,0.128
			c-0.46,0.277-0.94,0.561-1.441,0.85c-0.09,0.051-0.182,0.104-0.273,0.156c-0.512,0.294-1.042,0.591-1.592,0.893
			c-0.067,0.039-0.137,0.075-0.205,0.113c-0.573,0.313-1.164,0.631-1.773,0.955c-0.016,0.009-0.031,0.017-0.045,0.024
			c-0.623,0.329-1.27,0.665-1.928,1.005c-0.082,0.041-0.163,0.083-0.245,0.125c-0.65,0.333-1.317,0.67-1.999,1.01
			c-0.081,0.04-0.16,0.079-0.238,0.118c-0.704,0.352-1.422,0.706-2.158,1.063c-0.023,0.011-0.046,0.022-0.069,0.033
			c-0.773,0.376-1.561,0.755-2.363,1.137c143.286-1.492,307.131,120.41,265.54,261.609
			c-24.435,82.957-117.654,154.438-154.281,278.776c-31.025,105.326-12.492,188.448,12.973,266.522
			c0.803,0.035,1.63,0.07,2.466,0.105c0.228,0.01,0.458,0.021,0.688,0.029c0.658,0.025,1.325,0.053,2.001,0.079
			c0.221,0.01,0.439,0.018,0.663,0.026c0.869,0.034,1.749,0.066,2.646,0.1c0.186,0.007,0.375,0.014,0.563,0.021
			c0.718,0.024,1.446,0.051,2.184,0.076c0.298,0.01,0.601,0.021,0.903,0.03c0.759,0.025,1.527,0.05,2.303,0.074
			c0.184,0.006,0.365,0.012,0.549,0.018c0.956,0.029,1.923,0.058,2.9,0.086c0.25,0.007,0.503,0.014,0.754,0.021
			c0.772,0.021,1.551,0.041,2.334,0.061c0.285,0.009,0.571,0.016,0.858,0.022c1.016,0.026,2.041,0.051,3.077,0.074
			c6.903,0.179,13.837,0.25,20.622,0.243c6.786,0.007,13.719-0.064,20.623-0.243c26.867-0.594,47.474-2.052,47.474-2.052
			l-0.039-1.637c7.339-1.148,13.878-2.598,19.207-4.415c41.363-14.125,61.54-44.39,66.584-57.504
			c5.044-13.115,19.168-37.328,27.239-52.461c8.071-15.132,14.123-27.239,14.123-27.239s-7.062-24.212-7.062-40.352
			c0-16.143-4.035-38.338-5.045-54.479c-1.008-16.14-20.177-75.661-20.177-83.733c0-8.071-7.063-42.371-5.045-51.451
			c2.019-9.08,17.15-104.92,25.222-121.061c8.07-16.143,10.089-60.531,11.099-72.637c0.697-8.381,4.297-17.243,6.446-21.905
			c1.171-7.662,2.481-16.376,3.641-24.501c0.193-1.355,0.425-2.981,0.689-4.838c0.023-0.151,0.043-0.301,0.064-0.455
			C585.855,352.657,586.641,347.146,587.556,340.837"/>
      		<path clip-path="url(#SVGID_SVG_BACK__12_)" fill="#897F76" d="M687.39,400.603c0,0-1.009-13.115-1.009-17.15
			c0-4.034,4.036-90.796-14.123-123.078c-18.159-32.283-55.487-63.557-59.522-64.566c-0.333-0.083-1.041-0.314-2.055-0.669
			c0.479,10.169,0.221,25.341-3.998,37.997c-7.063,21.186-19.168,107.946-22.195,129.131c-1.159,8.125-2.47,16.84-3.641,24.501
			c0.954-2.071,1.624-3.316,1.624-3.316l-1.01,27.239c0,0,16.142,5.044,45.398,5.044c29.256,0,63.558-9.08,63.558-9.08
			L687.39,400.603z"/>
    </g>
    <g id="INNER_STRIP">
      		<path clip-path="url(#SVGID_SVG_BACK__8_)" fill="#D94927" d="M169.272,236.317c25.369,2.434,50.062,9.242,74.775,18.857
			c12.34,4.71,24.537,10.417,36.631,16.458c6,3.137,12.083,6.188,17.918,9.72c2.979,1.657,5.932,3.377,8.884,5.1l8.712,5.422
			c23.273,14.488,45.572,30.951,65.43,50.061c9.847,9.619,18.969,20.016,26.35,31.551c7.405,11.489,13.367,24.042,16.526,37.571
			c1.703,6.759,2.632,13.726,3.059,20.884c0.264,7.129-0.198,14.412-1.335,21.731c-1.264,7.29-3.232,14.587-5.475,21.999
			c-1.282,3.672-2.541,7.411-4.106,11.107c-1.374,3.781-3.014,7.545-4.676,11.334c-3.383,7.552-7.222,15.182-11.361,22.742
			c-4.105,7.595-8.621,15.097-13.468,22.356c-8.875,13.644-19.111,26.25-29.969,38.165c-0.836,0.917,22.775-21.044,34.731-33.641
			c11.928-12.612,23.547-25.593,33.781-39.685c5.089-7.059,9.843-14.372,14.064-21.998c4.15-7.67,7.658-15.673,10.612-23.875
			c5.706-16.477,12.245-39.099,12.06-56.53c-0.254-35-7.47-66.733-26.229-95.84c-18.834-29.241-43.577-52.249-71.629-72.637
			c-28.067-20.395-68.428-35.451-101.682-45.39c-25.459-7.61-52.27-11.497-78.842-10.15c-7.22,3.014-14.226,5.831-20.146,8.149
			c-0.015,0.007-0.03,0.014-0.046,0.019c-0.436,0.171-0.868,0.34-1.292,0.506c-0.02,0.008-0.041,0.015-0.062,0.023
			c-0.409,0.16-0.813,0.317-1.21,0.472c-0.049,0.018-0.097,0.037-0.146,0.057c-0.377,0.146-0.748,0.29-1.113,0.43
			c-0.045,0.018-0.088,0.034-0.132,0.051c-0.366,0.142-0.726,0.279-1.079,0.416c-0.047,0.018-0.094,0.035-0.142,0.053
			c-0.339,0.13-0.672,0.258-1,0.384c-0.061,0.023-0.124,0.047-0.184,0.071c-0.311,0.117-0.615,0.233-0.912,0.346
			c-0.07,0.027-0.141,0.054-0.211,0.081c-0.278,0.105-0.553,0.209-0.821,0.31c-0.083,0.033-0.169,0.064-0.252,0.096
			c-0.26,0.099-0.516,0.195-0.766,0.289c-0.071,0.026-0.144,0.054-0.214,0.08c-0.241,0.089-0.476,0.176-0.705,0.263
			c-0.089,0.034-0.179,0.066-0.269,0.1c-0.202,0.074-0.398,0.146-0.59,0.218c-0.093,0.035-0.188,0.069-0.279,0.102
			c-0.198,0.074-0.388,0.144-0.576,0.211c-0.079,0.03-0.159,0.059-0.237,0.088c-0.163,0.06-0.321,0.117-0.476,0.173
			c-0.097,0.036-0.194,0.07-0.287,0.104c-0.158,0.056-0.308,0.11-0.456,0.162c-0.067,0.025-0.138,0.05-0.204,0.074
			c-0.15,0.052-0.287,0.101-0.426,0.15c-0.064,0.022-0.13,0.046-0.194,0.068c-0.127,0.045-0.246,0.085-0.363,0.126
			c-0.06,0.021-0.123,0.043-0.179,0.063c-0.102,0.034-0.193,0.065-0.285,0.096c-0.062,0.021-0.128,0.043-0.186,0.063
			c-0.094,0.031-0.176,0.058-0.26,0.084c-0.042,0.014-0.088,0.029-0.127,0.042c-0.079,0.025-0.146,0.045-0.214,0.065
			c-0.033,0.009-0.072,0.023-0.104,0.033c-0.09,0.026-0.169,0.047-0.233,0.064c-0.499,0.125-1.51,0.715-2.925,1.708
			c0.058,1.161,0.139,2.367,0.231,3.592c0.026,0.353,0.056,0.71,0.085,1.067c0.079,0.951,0.166,1.917,0.262,2.9
			c0.033,0.336,0.063,0.668,0.099,1.007c0.135,1.315,0.283,2.652,0.448,4.02c0.004,0.03,0.008,0.063,0.013,0.094
			c0.163,1.348,0.343,2.728,0.534,4.122c0.044,0.319,0.089,0.64,0.133,0.96c0.172,1.232,0.354,2.479,0.543,3.742
			c0.034,0.216,0.065,0.431,0.098,0.649c0.469,3.064,0.986,6.211,1.543,9.41c0.033,0.182,0.064,0.364,0.095,0.546
			c0.277,1.579,0.563,3.168,0.855,4.768C155.519,234.75,161.647,235.513,169.272,236.317"/>
    </g>
  </g>
  <g id="CUSTOM"></g>
	<g clip-path="url(#SVGID_SVG_BACK__2_)">
		<defs>
			<rect id="SVGID_SVG_BACK__3_" x="15.511" y="54.005" width="728.546" height="942.824"/>
		</defs>
		<clipPath id="SVGID_SVG_BACK__4_">
			<use xlink:href="#SVGID_SVG_BACK__3_"  overflow="visible"/>
		</clipPath>
    	<clipPath id="SVGID_SVG_BACK__10_">
			<use xlink:href="#SVGID_SVG_BACK__9_"  overflow="visible"/>
		</clipPath>
	</g>
	<g  id="LEFT_STRIP1" clip-path="url(#SVGID_SVG_BACK__2_)">
		<defs>
			<rect id="SVGID_SVG_BACK__5_" x="15.511" y="54.005" width="728.546" height="942.824"/>
		</defs>
		<clipPath id="SVGID_SVG_BACK__6_">
			<use xlink:href="#SVGID_SVG_BACK__5_"  overflow="visible"/>
		</clipPath>
    	<clipPath id="SVGID_SVG_BACK__12_">
			<use xlink:href="#SVGID_SVG_BACK__11_"  overflow="visible"/>
		</clipPath>
	</g>
	<g clip-path="url(#SVGID_SVG_BACK__2_)">
		<defs>
			<rect id="SVGID_SVG_BACK__7_" x="15.511" y="54.005" width="728.546" height="942.824"/>
		</defs>
		<clipPath id="SVGID_SVG_BACK__8_">
			<use xlink:href="#SVGID_SVG_BACK__7_"  overflow="visible"/>
		</clipPath>
		<path clip-path="url(#SVGID_SVG_BACK__8_)" fill="#D94927" d="M145.411,206.084c-0.036-0.34-0.066-0.671-0.099-1.007
			C145.345,205.413,145.375,205.744,145.411,206.084"/>
		<path clip-path="url(#SVGID_SVG_BACK__8_)" fill="#D94927" d="M155.538,192.997c0.269-0.102,0.543-0.205,0.821-0.311
			C156.081,192.792,155.807,192.896,155.538,192.997"/>
		<path clip-path="url(#SVGID_SVG_BACK__8_)" fill="#D94927" d="M152.743,194.042c0.192-0.072,0.389-0.144,0.591-0.219
			C153.132,193.897,152.935,193.97,152.743,194.042"/>
		<path clip-path="url(#SVGID_SVG_BACK__8_)" fill="#D94927" d="M145.05,202.177c-0.029-0.358-0.06-0.717-0.085-1.067
			C144.991,201.46,145.021,201.819,145.05,202.177"/>
		<path clip-path="url(#SVGID_SVG_BACK__8_)" fill="#D94927" d="M154.52,193.38c0.25-0.095,0.504-0.19,0.766-0.289
			C155.024,193.19,154.77,193.286,154.52,193.38"/>
		<path clip-path="url(#SVGID_SVG_BACK__8_)" fill="#D94927" d="M151.889,194.355c0.188-0.069,0.377-0.138,0.575-0.21
			C152.266,194.217,152.076,194.287,151.889,194.355"/>
		<path clip-path="url(#SVGID_SVG_BACK__8_)" fill="#D94927" d="M153.602,193.723c0.229-0.085,0.463-0.173,0.703-0.263
			C154.065,193.55,153.831,193.638,153.602,193.723"/>
		<path clip-path="url(#SVGID_SVG_BACK__8_)" fill="#D94927" d="M149.246,195.301c0.118-0.042,0.235-0.081,0.364-0.126
			C149.481,195.22,149.364,195.259,149.246,195.301"/>
		<path clip-path="url(#SVGID_SVG_BACK__8_)" fill="#D94927" d="M149.802,195.106c0.139-0.049,0.276-0.098,0.426-0.15
			C150.078,195.009,149.941,195.058,149.802,195.106"/>
		<path clip-path="url(#SVGID_SVG_BACK__8_)" fill="#D94927" d="M148.336,195.604c0.083-0.025,0.166-0.052,0.26-0.084
			C148.501,195.553,148.419,195.579,148.336,195.604"/>
		<path clip-path="url(#SVGID_SVG_BACK__8_)" fill="#D94927" d="M151.175,194.616c0.154-0.056,0.313-0.113,0.475-0.174
			C151.487,194.503,151.331,194.56,151.175,194.616"/>
		<path clip-path="url(#SVGID_SVG_BACK__8_)" fill="#D94927" d="M147.659,195.808c0.064-0.017,0.143-0.038,0.233-0.063
			C147.802,195.77,147.723,195.792,147.659,195.808"/>
		<path clip-path="url(#SVGID_SVG_BACK__8_)" fill="#D94927" d="M147.995,195.711c0.068-0.02,0.135-0.04,0.214-0.065
			C148.128,195.671,148.063,195.691,147.995,195.711"/>
		<path clip-path="url(#SVGID_SVG_BACK__8_)" fill="#D94927" d="M150.433,194.882c0.149-0.052,0.298-0.105,0.455-0.163
			C150.73,194.777,150.58,194.83,150.433,194.882"/>
		<path clip-path="url(#SVGID_SVG_BACK__8_)" fill="#D94927" d="M148.781,195.458c0.093-0.031,0.184-0.062,0.286-0.096
			C148.964,195.396,148.874,195.428,148.781,195.458"/>
		<path clip-path="url(#SVGID_SVG_BACK__8_)" fill="#D94927" d="M160.018,191.285c0.366-0.142,0.737-0.285,1.113-0.432
			C160.755,191,160.384,191.145,160.018,191.285"/>
		<path clip-path="url(#SVGID_SVG_BACK__8_)" fill="#D94927" d="M162.551,190.302c0.424-0.166,0.855-0.333,1.292-0.504
			C163.408,189.968,162.975,190.136,162.551,190.302"/>
		<path clip-path="url(#SVGID_SVG_BACK__8_)" fill="#D94927" d="M146.54,215.28c-0.045-0.321-0.09-0.643-0.132-0.96
			C146.449,214.638,146.494,214.958,146.54,215.28"/>
		<path clip-path="url(#SVGID_SVG_BACK__8_)" fill="#D94927" d="M161.278,190.797c0.398-0.155,0.801-0.312,1.21-0.472
			C162.08,190.485,161.676,190.643,161.278,190.797"/>
		<path clip-path="url(#SVGID_SVG_BACK__8_)" fill="#D94927" d="M148.818,229.627c-0.032-0.182-0.064-0.364-0.095-0.546
			C148.754,229.264,148.786,229.445,148.818,229.627"/>
		<path clip-path="url(#SVGID_SVG_BACK__8_)" fill="#D94927" d="M147.18,219.671c-0.033-0.218-0.064-0.433-0.098-0.649
			C147.116,219.238,147.147,219.453,147.18,219.671"/>
		<path clip-path="url(#SVGID_SVG_BACK__8_)" fill="#D94927" d="M184.037,181.628c-7.219,3.014-14.227,5.831-20.146,8.15
			C169.81,187.459,176.816,184.643,184.037,181.628"/>
		<path clip-path="url(#SVGID_SVG_BACK__8_)" fill="#D94927" d="M145.871,210.198c-0.003-0.031-0.008-0.064-0.012-0.094
			C145.863,210.134,145.868,210.167,145.871,210.198"/>
		<path clip-path="url(#SVGID_SVG_BACK__8_)" fill="#D94927" d="M158.808,191.751c0.353-0.137,0.713-0.274,1.079-0.416
			C159.521,191.478,159.161,191.615,158.808,191.751"/>
		<path clip-path="url(#SVGID_SVG_BACK__8_)" fill="#D94927" d="M156.57,192.606c0.297-0.113,0.602-0.229,0.912-0.348
			C157.172,192.378,156.867,192.493,156.57,192.606"/>
		<path clip-path="url(#SVGID_SVG_BACK__8_)" fill="#D94927" d="M157.667,192.188c0.327-0.125,0.661-0.252,1-0.383
			C158.328,191.936,157.994,192.063,157.667,192.188"/>
		<path clip-path="url(#SVGID_SVG_BACK__8_)" fill="#A39E9C" d="M221.478,164.382c0.55-0.303,1.08-0.6,1.591-0.893
			C222.557,163.782,222.027,164.079,221.478,164.382"/>
		<path clip-path="url(#SVGID_SVG_BACK__8_)" fill="#A39E9C" d="M219.5,165.45c0.61-0.324,1.2-0.642,1.773-0.957
			C220.699,164.808,220.109,165.125,219.5,165.45"/>
		<path clip-path="url(#SVGID_SVG_BACK__8_)" fill="#A39E9C" d="M217.526,166.478c0.66-0.34,1.305-0.674,1.929-1.004
			C218.831,165.804,218.186,166.138,217.526,166.478"/>
		<path clip-path="url(#SVGID_SVG_BACK__8_)" fill="#A39E9C" d="M212.887,168.793c0.736-0.357,1.454-0.711,2.158-1.063
			C214.34,168.082,213.623,168.436,212.887,168.793"/>
		<path clip-path="url(#SVGID_SVG_BACK__8_)" fill="#A39E9C" d="M539.05,164.453c0.181,0.1,0.365,0.199,0.551,0.3
			C539.415,164.652,539.23,164.553,539.05,164.453"/>
		<path clip-path="url(#SVGID_SVG_BACK__8_)" fill="#A39E9C" d="M535.443,162.38c0.123,0.074,0.252,0.151,0.378,0.227
			C535.694,162.531,535.566,162.454,535.443,162.38"/>
		<path clip-path="url(#SVGID_SVG_BACK__8_)" fill="#A39E9C" d="M537.312,163.482c0.051,0.027,0.098,0.056,0.148,0.085
			C537.409,163.538,537.362,163.509,537.312,163.482"/>
		<path clip-path="url(#SVGID_SVG_BACK__8_)" fill="#A39E9C" d="M224.995,162.354c0.473-0.288,0.93-0.571,1.355-0.847
			C225.924,161.782,225.467,162.066,224.995,162.354"/>
		<path clip-path="url(#SVGID_SVG_BACK__8_)" fill="#A39E9C" d="M223.343,163.332c0.5-0.288,0.982-0.572,1.44-0.849
			C224.325,162.76,223.843,163.044,223.343,163.332"/>
		<path clip-path="url(#SVGID_SVG_BACK__8_)" fill="#A39E9C" d="M215.282,167.613c0.682-0.341,1.349-0.676,2-1.01
			C216.631,166.936,215.964,167.272,215.282,167.613"/>
		<path clip-path="url(#SVGID_SVG_BACK__8_)" fill="#A39E9C" d="M356.498,977.62c-0.287-0.007-0.572-0.014-0.858-0.022
			C355.926,977.606,356.211,977.613,356.498,977.62"/>
		<path clip-path="url(#SVGID_SVG_BACK__8_)" fill="#A39E9C" d="M210.454,169.963c0.802-0.382,1.59-0.761,2.363-1.137
			C212.044,169.202,211.256,169.581,210.454,169.963"/>
		<path clip-path="url(#SVGID_SVG_BACK__8_)" fill="#A39E9C" d="M585.177,357.427c-0.265,1.857-0.496,3.484-0.689,4.839
			C584.681,360.913,584.912,359.285,585.177,357.427"/>
		<path clip-path="url(#SVGID_SVG_BACK__8_)" fill="#A39E9C" d="M349.651,977.43c-0.184-0.006-0.366-0.012-0.549-0.018
			C349.286,977.418,349.466,977.424,349.651,977.43"/>
		<path clip-path="url(#SVGID_SVG_BACK__8_)" fill="#A39E9C" d="M353.306,977.537c-0.251-0.008-0.504-0.015-0.753-0.021
			C352.801,977.522,353.055,977.529,353.306,977.537"/>
		<path clip-path="url(#SVGID_SVG_BACK__8_)" fill="#A39E9C" d="M346.8,977.338c-0.302-0.01-0.604-0.021-0.904-0.03
			C346.196,977.317,346.496,977.328,346.8,977.338"/>
		<path clip-path="url(#SVGID_SVG_BACK__8_)" fill="#A39E9C" d="M340.504,977.11c-0.223-0.009-0.441-0.017-0.663-0.026
			C340.063,977.094,340.281,977.102,340.504,977.11"/>
		<path clip-path="url(#SVGID_SVG_BACK__8_)" fill="#A39E9C" d="M337.84,977.005c-0.229-0.01-0.461-0.02-0.688-0.029
			C337.379,976.985,337.61,976.995,337.84,977.005"/>
		<path clip-path="url(#SVGID_SVG_BACK__8_)" fill="#A39E9C" d="M343.712,977.231c-0.186-0.008-0.376-0.015-0.563-0.021
			C343.336,977.217,343.524,977.224,343.712,977.231"/>
		<path clip-path="url(#SVGID_SVG_BACK__8_)" fill="#A39E9C" d="M543.238,166.665c0.277,0.142,0.557,0.283,0.838,0.426
			C543.795,166.948,543.516,166.807,543.238,166.665"/>
		<path clip-path="url(#SVGID_SVG_BACK__8_)" fill="#A39E9C" d="M587.556,340.837c-0.915,6.309-1.7,11.82-2.314,16.136
			C585.855,352.657,586.641,347.144,587.556,340.837"/>
		<path clip-path="url(#SVGID_SVG_BACK__8_)" fill="#A39E9C" d="M547.909,168.986c0.404,0.197,0.813,0.393,1.225,0.591
			C548.723,169.379,548.313,169.183,547.909,168.986"/>
		<path clip-path="url(#SVGID_SVG_BACK__8_)" fill="#A39E9C" d="M545.377,167.742c0.47,0.234,0.947,0.47,1.432,0.707
			C546.324,168.212,545.847,167.976,545.377,167.742"/>
		<path clip-path="url(#SVGID_SVG_BACK__8_)" fill="#A39E9C" d="M541.146,165.58c0.19,0.102,0.385,0.202,0.58,0.303
			C541.53,165.782,541.336,165.681,541.146,165.58"/>
		<path clip-path="url(#SVGID_SVG_BACK__8_)" fill="#A39E9C" d="M552.988,171.394c0.54,0.251,1.082,0.502,1.631,0.755
			C554.07,171.896,553.528,171.645,552.988,171.394"/>
		<path clip-path="url(#SVGID_SVG_BACK__8_)" fill="#A39E9C" d="M549.943,169.961c0.828,0.395,1.672,0.793,2.528,1.191
			C551.613,170.754,550.771,170.356,549.943,169.961"/>
	</g>
	<g clip-path="url(#SVGID_SVG_BACK__2_)">
		<defs>
			<rect id="SVGID_SVG_BACK__9_" x="15.511" y="54.005" width="728.546" height="942.824"/>
		</defs>
	
	</g>
	<g clip-path="url(#SVGID_SVG_BACK__2_)">
		<defs>
			<rect id="SVGID_SVG_BACK__11_" x="15.511" y="54.005" width="728.546" height="942.824"/>
		</defs>
	
	</g>
	<g id="COLLAR" clip-path="url(#SVGID_SVG_BACK__2_)">
		<defs>
			<rect id="SVGID_SVG_BACK__13_" x="15.511" y="54.005" width="728.546" height="942.824"/>
		</defs>
		<clipPath id="SVGID_SVG_BACK__14_">
			<use xlink:href="#SVGID_SVG_BACK__13_"  overflow="visible"/>
		</clipPath>
		<path clip-path="url(#SVGID_SVG_BACK__14_)" fill="#897F76" d="M383.524,103.231c25.774,0.379,68.695,5.431,90.114,8.149
			c-0.73-0.584-1.446-1.045-2.141-1.324c-5.044-2.017-12.105-6.053-12.105-6.053l-7.063-13.116c0,0-29.256-11.095-53.468-11.095
			h-37.327c-24.213,0-53.469,11.095-53.469,11.095l-7.062,13.116c0,0-7.063,4.036-12.106,6.053c-1.141,0.457-2.334,1.392-3.565,2.6
			C306.158,109.616,356.01,102.826,383.524,103.231"/>
	</g>
	<g clip-path="url(#SVGID_SVG_BACK__2_)">
		<defs>
			<rect id="SVGID_SVG_BACK__15_" x="15.511" y="54.005" width="728.546" height="942.824"/>
		</defs>
		<clipPath id="SVGID_SVG_BACK__16_">
			<use xlink:href="#SVGID_SVG_BACK__15_"  overflow="visible"/>
		</clipPath>
		<g opacity="0.35" clip-path="url(#SVGID_SVG_BACK__16_)">
			<g>
				<defs>
					<rect id="SVGID_SVG_BACK__17_" x="72.87" y="96.655" width="614.66" height="875.03"/>
				</defs>
				<clipPath id="SVGID_SVG_BACK__18_">
					<use xlink:href="#SVGID_SVG_BACK__17_"  overflow="visible"/>
				</clipPath>
				<path clip-path="url(#SVGID_SVG_BACK__18_)" fill="none" stroke="#000000" stroke-miterlimit="10" stroke-dasharray="0.859,0.5" d="
					M187.004,828.352c0,0,52.459,99.876,97.858,119.043c45.396,19.169,130.14,18.161,164.441,9.08
					c34.3-9.08,67.591-36.318,78.69-52.458c11.097-16.144,47.415-76.674,47.415-76.674"/>
				<path clip-path="url(#SVGID_SVG_BACK__18_)" fill="none" stroke="#000000" stroke-miterlimit="10" stroke-dasharray="0.859,0.5" d="
					M187.004,836.692c0,0,52.459,99.876,97.858,119.043c45.396,19.167,130.14,18.158,164.441,9.08
					c34.3-9.08,67.591-36.319,78.69-52.461c11.097-16.141,47.415-76.672,47.415-76.672"/>
				<path clip-path="url(#SVGID_SVG_BACK__18_)" fill="none" stroke="#000000" stroke-miterlimit="10" stroke-dasharray="0.859,0.5" d="
					M72.979,395.647c0,0,27.43,5.143,55.716,5.143c28.287,0,50.002-2.286,50.002-2.286"/>
				<path clip-path="url(#SVGID_SVG_BACK__18_)" fill="none" stroke="#000000" stroke-miterlimit="10" stroke-dasharray="0.859,0.5" d="
					M72.979,390.882c0,0,27.43,5.143,55.716,5.143c28.287,0,50.002-2.286,50.002-2.286"/>
				<path clip-path="url(#SVGID_SVG_BACK__18_)" fill="none" stroke="#000000" stroke-miterlimit="10" stroke-dasharray="0.859,0.5" d="
					M687.419,395.647c0,0-27.429,5.143-55.715,5.143s-50.002-2.286-50.002-2.286"/>
				<path clip-path="url(#SVGID_SVG_BACK__18_)" fill="none" stroke="#000000" stroke-miterlimit="10" stroke-dasharray="0.859,0.5" d="
					M687.419,390.882c0,0-27.429,5.143-55.715,5.143s-50.002-2.286-50.002-2.286"/>
				<path clip-path="url(#SVGID_SVG_BACK__18_)" fill="none" stroke="#000000" stroke-miterlimit="10" stroke-dasharray="0.859,0.5" d="
					M300.778,104.561c0,0,47.356-7.808,82.746-7.287c35.387,0.521,75.978,6.766,75.978,6.766"/>
				<path clip-path="url(#SVGID_SVG_BACK__18_)" fill="none" stroke="#000000" stroke-miterlimit="10" stroke-dasharray="0.859,0.5" d="
					M284.283,113.374c0,0,63.852-10.663,99.241-10.143c35.387,0.521,90.837,8.191,90.837,8.191"/>
				<path clip-path="url(#SVGID_SVG_BACK__18_)" fill="none" stroke="#000000" stroke-miterlimit="10" stroke-dasharray="0.859,0.5" d="
					M179.681,387.369c0,0,0.26-5.935,0.26-18.04c0-12.107-10.087-33.293-15.132-61.54c-5.043-28.248-20.874-81.472-19.866-109.72"/>
				<path clip-path="url(#SVGID_SVG_BACK__18_)" fill="none" stroke="#000000" stroke-miterlimit="10" stroke-dasharray="0.859,0.5" d="
					M610.683,195.138c0,0,3.063,16.812-4,37.997c-7.063,21.186-19.168,107.946-22.195,129.132
					c-3.026,21.186-3.005,22.373-3.005,22.373"/>
			</g>
		</g>
	</g>
	<g clip-path="url(#SVGID_SVG_BACK__2_)">
		<defs>
			<rect id="SVGID_SVG_BACK__19_" x="15.511" y="54.005" width="728.546" height="942.824"/>
		</defs>
		<clipPath id="SVGID_SVG_BACK__20_">
			<use xlink:href="#SVGID_SVG_BACK__19_"  overflow="visible"/>
		</clipPath>
		<g opacity="0.08" clip-path="url(#SVGID_SVG_BACK__20_)">
			<g>
				<defs>
					<rect id="SVGID_SVG_BACK__21_" x="77.304" y="246.745" width="583.428" height="443.093"/>
				</defs>
				<clipPath id="SVGID_SVG_BACK__22_">
					<use xlink:href="#SVGID_SVG_BACK__21_"  overflow="visible"/>
				</clipPath>
				<path clip-path="url(#SVGID_SVG_BACK__22_)" fill="#897F76" d="M174.848,368.124c0,0-18.335-3.3-31.537-7.701
					c-13.201-4.401-25.303-7.701-35.57-16.869c-10.268-9.167-30.436-33.37-30.436-33.37s35.57,30.804,38.504,33.736
					C118.742,346.856,174.848,368.124,174.848,368.124"/>
				<path clip-path="url(#SVGID_SVG_BACK__22_)" fill="#897F76" d="M159.446,353.823l-22.37-10.634l-3.667-8.067
					c0,0,26.037,18.702,23.104,13.569c-2.933-5.135-39.238-46.573-45.839-55.007c-6.599-8.434-22.368-26.402-22.368-26.402
					s19.435,12.833,21.636,17.234c2.2,4.401,37.037,46.938,41.07,52.072c4.035,5.133,14.668,13.936,13.936,15.769
					C164.213,354.19,159.446,353.823,159.446,353.823"/>
				<path clip-path="url(#SVGID_SVG_BACK__22_)" fill="#897F76" d="M133.777,348.689c0,0-24.936-26.037-28.969-30.803
					c-4.035-4.767-20.903-17.969-20.903-17.969l31.537,34.47L133.777,348.689z"/>
				<path clip-path="url(#SVGID_SVG_BACK__22_)" fill="#897F76" d="M163.48,332.554c0,0-7.335-19.069-11.001-27.503
					c-3.668-8.433-9.902-40.703-16.135-39.97c-6.235,0.733-2.202,13.567,2.199,22.735c4.401,9.169,9.167,16.501,9.167,16.501
					s-10.634-3.667-16.868-13.568c-6.233-9.9-20.902-43.271-24.936-42.17c-4.033,1.1,2.566,19.068,9.168,29.703
					c6.6,10.635,22.736,26.035,31.17,34.47C154.679,321.187,163.48,332.554,163.48,332.554"/>
				<path clip-path="url(#SVGID_SVG_BACK__22_)" fill="#333" d="M585.19,339.521c0,0,17.235-32.271,27.869-50.239
					c10.636-17.968,30.071-42.538,30.071-42.538s-32.271,56.84-34.104,59.04C607.192,307.984,585.19,339.521,585.19,339.521"/>
				<path clip-path="url(#SVGID_SVG_BACK__22_)" fill="#333" d="M601.693,318.986c0,0,13.199-19.436,27.869-31.17
					c14.667-11.734,31.169-17.968,31.169-17.968s-22.002,11.735-33.371,26.403c-11.365,14.668-30.801,36.671-33.735,45.105
					c-2.934,8.435-2.201,17.968-2.201,17.968s8.802-2.2,5.136,1.101c-3.669,3.3,2.933,11.735-2.201,13.568s-8.066,2.567-8.066,4.767
					c0,2.201-7.335-1.467-7.335-1.467s4.033-29.336,5.5-32.637C585.923,341.355,601.693,318.986,601.693,318.986"/>
				<path clip-path="url(#SVGID_SVG_BACK__22_)" fill="#333" d="M597.291,347.588c0,0-0.366-12.834,9.169-16.868
					c9.535-4.034,19.802-5.501,27.868-9.535c8.068-4.033,13.57-8.801,13.57-8.801s-10.27,13.936-23.104,18.336
					c-12.833,4.4-17.602,4.4-20.534,8.067C601.325,342.456,597.291,347.588,597.291,347.588"/>
				<path clip-path="url(#SVGID_SVG_BACK__22_)" fill="#333" d="M239.975,679.719c0,0,93.449-20.237,134.519-19.047
					c41.071,1.19,145.829,29.166,145.829,29.166s-74.997-19.643-140.471-20.238C314.377,669.004,239.975,679.719,239.975,679.719"/>
			</g>
		</g>
	</g>
	<g clip-path="url(#SVGID_SVG_BACK__2_)">
		<defs>
			<rect id="SVGID_SVG_BACK__23_" x="15.511" y="54.005" width="728.546" height="942.824"/>
		</defs>
		<clipPath id="SVGID_SVG_BACK__24_">
			<use xlink:href="#SVGID_SVG_BACK__23_"  overflow="visible"/>
		</clipPath>
		<path clip-path="url(#SVGID_SVG_BACK__24_)" d="M393.606,119.54c5.867,0,10.619,5.088,10.619,11.361c0,6.275-4.752,11.363-10.619,11.363
			h-20.595c-5.862,0-10.619-5.087-10.619-11.363c0-6.272,4.756-11.361,10.619-11.361H393.606"/>
		<path clip-path="url(#SVGID_SVG_BACK__24_)" fill="none" stroke="#000000" stroke-width="6.078" d="M393.606,119.54
			c5.867,0,10.619,5.088,10.619,11.361c0,6.275-4.752,11.363-10.619,11.363h-20.595c-5.862,0-10.619-5.087-10.619-11.363
			c0-6.272,4.756-11.361,10.619-11.361H393.606"/>
		<path clip-path="url(#SVGID_SVG_BACK__24_)" d="M392.812,121.358c5.33,0,9.647,4.271,9.647,9.542c0,5.273-4.317,9.545-9.649,9.545h-18.707
			c-5.322,0-9.642-4.271-9.642-9.545c0-5.271,4.32-9.542,9.642-9.542H392.812"/>
		<path clip-path="url(#SVGID_SVG_BACK__24_)" fill="none" stroke="#FFFFFF" stroke-width="0.658" d="M392.812,121.358
			c5.33,0,9.647,4.271,9.647,9.542c0,5.273-4.317,9.545-9.649,9.545h-18.707c-5.322,0-9.642-4.271-9.642-9.545
			c0-5.271,4.32-9.542,9.642-9.542H392.812"/>
		<path clip-path="url(#SVGID_SVG_BACK__24_)" fill="#FFFFFF" d="M366.984,130.841c0-3.977,2.95-7.236,6.682-7.498v14.996
			C369.934,138.079,366.984,134.816,366.984,130.841"/>
		<polygon clip-path="url(#SVGID_SVG_BACK__24_)" fill="#FFFFFF" points="381.08,129.858 374.848,123.323 381.08,123.323 		"/>
		<polygon clip-path="url(#SVGID_SVG_BACK__24_)" fill="#FFFFFF" points="381.08,131.823 374.848,138.359 381.08,138.359 		"/>
		<polygon clip-path="url(#SVGID_SVG_BACK__24_)" fill="#FFFFFF" points="388.903,129.858 395.141,123.323 388.903,123.323 		"/>
		<polygon clip-path="url(#SVGID_SVG_BACK__24_)" fill="#FFFFFF" points="388.903,131.823 395.141,138.359 388.903,138.359 		"/>
		<rect x="382.405" y="123.323" clip-path="url(#SVGID_SVG_BACK__24_)" fill="#FFFFFF" width="5.175" height="15.036"/>
		<path clip-path="url(#SVGID_SVG_BACK__24_)" fill="#FFFFFF" d="M373.094,117.764v0.919h0.867v-0.309l0.319,0.065v0.174
			c0,0.27-0.077,0.342-0.342,0.342h-0.822c-0.264,0-0.341-0.072-0.341-0.342v-0.768c0-0.271,0.078-0.342,0.341-0.342h0.822
			c0.266,0,0.342,0.071,0.342,0.342v0.139l-0.319,0.054v-0.275H373.094z"/>
		<path clip-path="url(#SVGID_SVG_BACK__24_)" fill="#FFFFFF" d="M375.128,117.504h1.021c0.259,0,0.342,0.072,0.342,0.341v0.768
			c0,0.271-0.083,0.343-0.342,0.343h-1.021c-0.262,0-0.345-0.072-0.345-0.343v-0.768
			C374.783,117.576,374.866,117.504,375.128,117.504 M376.168,117.765h-1.061v0.919h1.061V117.765z"/>
		<path clip-path="url(#SVGID_SVG_BACK__24_)" fill="#FFFFFF" d="M377.032,117.504h0.262l0.648,0.879l0.642-0.879h0.258v1.452h-0.298v-0.898
			c0-0.027,0-0.079,0.005-0.153c-0.023,0.064-0.054,0.118-0.079,0.151l-0.517,0.724h-0.067l-0.519-0.727
			c-0.035-0.046-0.061-0.093-0.083-0.148c0.006,0.06,0.009,0.11,0.009,0.153v0.898h-0.262V117.504z"/>
		<path clip-path="url(#SVGID_SVG_BACK__24_)" fill="#FFFFFF" d="M379.38,117.505h1.185c0.213,0,0.314,0.079,0.314,0.281v0.324
			c0,0.202-0.102,0.281-0.314,0.281H379.7v0.566h-0.32V117.505z M379.7,117.757v0.383h0.725c0.097,0,0.14-0.019,0.14-0.115v-0.152
			c0-0.095-0.043-0.115-0.14-0.115H379.7z"/>
		<path clip-path="url(#SVGID_SVG_BACK__24_)" fill="#FFFFFF" d="M381.24,117.505h1.179c0.216,0,0.315,0.079,0.315,0.281v0.342
			c0,0.201-0.099,0.281-0.315,0.281h-0.178l0.635,0.548h-0.457l-0.559-0.548h-0.299v0.548h-0.321V117.505z M381.561,117.757v0.403
			h0.72c0.102,0,0.142-0.02,0.142-0.115v-0.173c0-0.095-0.04-0.115-0.142-0.115H381.561z"/>
		<polygon clip-path="url(#SVGID_SVG_BACK__24_)" fill="#FFFFFF" points="383.253,117.504 384.667,117.504 384.667,117.752 383.576,117.752 
			383.576,118.075 384.213,118.075 384.213,118.324 383.576,118.324 383.576,118.684 384.686,118.684 384.686,118.956 
			383.253,118.956 		"/>
		<path clip-path="url(#SVGID_SVG_BACK__24_)" fill="#FFFFFF" d="M385.441,117.757v0.314h0.859c0.263,0,0.344,0.069,0.344,0.342v0.201
			c0,0.27-0.082,0.343-0.344,0.343h-0.854c-0.258,0-0.345-0.073-0.345-0.343v-0.043l0.285-0.058v0.17h0.976v-0.333h-0.862
			c-0.259,0-0.343-0.072-0.343-0.344v-0.16c0-0.269,0.084-0.341,0.343-0.341h0.786c0.247,0,0.34,0.068,0.34,0.318v0.031
			l-0.281,0.069v-0.167H385.441z"/>
		<path clip-path="url(#SVGID_SVG_BACK__24_)" fill="#FFFFFF" d="M387.469,117.757v0.314h0.865c0.259,0,0.347,0.069,0.347,0.342v0.201
			c0,0.27-0.088,0.343-0.347,0.343h-0.853c-0.261,0-0.345-0.073-0.345-0.343v-0.043l0.284-0.058v0.17h0.976v-0.333h-0.864
			c-0.253,0-0.343-0.072-0.343-0.344v-0.16c0-0.269,0.09-0.341,0.343-0.341h0.786c0.247,0,0.341,0.068,0.341,0.318v0.031
			l-0.282,0.069v-0.167H387.469z"/>
		<rect x="389.215" y="117.504" clip-path="url(#SVGID_SVG_BACK__24_)" fill="#FFFFFF" width="0.326" height="1.452"/>
		<path clip-path="url(#SVGID_SVG_BACK__24_)" fill="#FFFFFF" d="M390.423,117.504h1.017c0.265,0,0.349,0.072,0.349,0.341v0.768
			c0,0.271-0.084,0.343-0.349,0.343h-1.017c-0.259,0-0.34-0.072-0.34-0.343v-0.768C390.083,117.576,390.164,117.504,390.423,117.504
			 M391.465,117.765h-1.067v0.919h1.067V117.765z"/>
		<path clip-path="url(#SVGID_SVG_BACK__24_)" fill="#FFFFFF" d="M392.325,117.504h0.221l0.975,0.854c0.057,0.051,0.105,0.099,0.155,0.16
			c-0.005-0.121-0.01-0.206-0.01-0.249v-0.765h0.286v1.452h-0.216l-1.016-0.898c-0.041-0.035-0.079-0.072-0.117-0.117
			c0.014,0.112,0.014,0.188,0.014,0.23v0.785h-0.291V117.504z"/>
		<path clip-path="url(#SVGID_SVG_BACK__24_)" fill="#FFFFFF" d="M379.454,143.15v0.92h1.002v-0.322h-0.524v-0.249h0.841v0.499
			c0,0.274-0.084,0.344-0.344,0.344h-0.954c-0.262,0-0.344-0.07-0.344-0.344v-0.761c0-0.275,0.082-0.343,0.344-0.343h0.954
			c0.252,0,0.344,0.068,0.344,0.328v0.031l-0.316,0.063v-0.165H379.454z"/>
		<polygon clip-path="url(#SVGID_SVG_BACK__24_)" fill="#FFFFFF" points="381.317,142.893 382.733,142.893 382.733,143.141 381.641,143.141 
			381.641,143.465 382.276,143.465 382.276,143.71 381.641,143.71 381.641,144.07 382.747,144.07 382.747,144.342 381.317,144.342 
					"/>
		<path clip-path="url(#SVGID_SVG_BACK__24_)" fill="#FFFFFF" d="M383.727,142.894h0.31l0.792,1.447h-0.361l-0.167-0.316h-0.875l-0.162,0.316
			h-0.321L383.727,142.894z M384.166,143.764l-0.296-0.59l-0.304,0.59H384.166z"/>
		<path clip-path="url(#SVGID_SVG_BACK__24_)" fill="#FFFFFF" d="M385.143,142.894h1.18c0.216,0,0.311,0.078,0.311,0.279v0.341
			c0,0.201-0.095,0.28-0.311,0.28h-0.177l0.634,0.547h-0.461l-0.556-0.547h-0.307v0.547h-0.313V142.894z M385.456,143.142v0.405
			h0.724c0.097,0,0.144-0.019,0.144-0.113v-0.175c0-0.095-0.046-0.117-0.144-0.117H385.456z"/>
		<path clip-path="url(#SVGID_SVG_BACK__24_)" fill="#FFFFFF" d="M388.604,142.633c0.18,0.187,0.28,0.444,0.28,0.711
			c0,0.276-0.096,0.524-0.284,0.712c-0.19,0.194-0.43,0.3-0.682,0.3c-0.256,0-0.497-0.106-0.68-0.304
			c-0.184-0.195-0.283-0.44-0.283-0.708c0-0.268,0.103-0.525,0.291-0.725c0.176-0.188,0.413-0.286,0.672-0.286
			C388.181,142.333,388.421,142.439,388.604,142.633 M388.517,142.727c-0.157-0.171-0.365-0.26-0.593-0.26
			c-0.228,0-0.437,0.083-0.588,0.25c-0.163,0.173-0.255,0.396-0.255,0.627s0.09,0.449,0.243,0.614
			c0.163,0.174,0.373,0.262,0.587,0.262c0.228,0,0.434-0.088,0.601-0.26c0.161-0.16,0.243-0.375,0.243-0.608
			C388.754,143.109,388.677,142.89,388.517,142.727 M388.4,143.066c0,0.163-0.092,0.274-0.249,0.309l0.242,0.521h-0.232
			l-0.219-0.489h-0.204v0.489h-0.206v-1.145h0.412C388.252,142.751,388.4,142.858,388.4,143.066 M387.739,142.893v0.38h0.172
			c0.188,0,0.274-0.049,0.274-0.183c0-0.145-0.085-0.197-0.28-0.197H387.739z"/>
	</g>

  <g id="CUSTOM"></g>
</svg>
