<?xml version="1.0" encoding="utf-8"?>
<!-- Generator: Adobe Illustrator 16.0.0, SVG Export Plug-In . SVG Version: 6.00 Build 0)  -->
<!DOCTYPE svg PUBLIC "-//W3C//DTD SVG 1.1//EN" "http://www.w3.org/Graphics/SVG/1.1/DTD/svg11.dtd">
<svg version="1.1" id="Layer_1" xmlns="http://www.w3.org/2000/svg" xmlns:xlink="http://www.w3.org/1999/xlink" x="0px" y="0px"
	 width="612px" height="792px" viewBox="0 0 480 792" enable-background="new 0 0 612 792" xml:space="preserve">
<rect x="105.267" y="162.261" fill="none" width="62.022" height="89.05"/>
<rect x="113.235" y="153.945" fill="none" width="27.027" height="31.185"/>
<rect x="389.068" y="231.119" fill="none" width="63.521" height="63.871"/>
<rect x="446.997" y="221.723" fill="none" width="50.608" height="20.812"/>
<rect x="452.59" y="175.209" fill="none" width="37.337" height="36.357"/>
<rect x="235.677" y="69.237" fill="none" width="137.986" height="24.583"/>
<rect x="92.122" y="250.188" fill="none" width="73.335" height="9.694"/>
<rect x="92.122" y="253.361" fill="none" width="73.335" height="9.693"/>
<rect x="167.048" y="561.172" fill="none" width="270.258" height="26.68"/>
<rect x="166.163" y="563.765" fill="none" width="272.823" height="28.082"/>
<rect x="233.835" y="70.94" fill="none" width="141.974" height="25.672"/>
<rect x="61.693" fill="none" width="488.613" height="632.322"/>
<rect x="113.681" y="226.501" fill="none" width="27.224" height="31.411"/>
<rect x="105.653" y="127.838" fill="none" width="398.933" height="539.714"/>
<rect x="61.693" y="76.677" fill="none" width="488.613" height="632.323"/>
<g id="BODY">
	<defs>
		<rect id="SB_SVGID_1_" x="38.321" y="105.5" width="449.371" height="581.539"/>
	</defs>
	<clipPath id="SB_SVGID_2_">
		<use xlink:href="#SB_SVGID_1_"  overflow="visible"/>
	</clipPath>
	<g id="BODY1" clip-path="url(#SB_SVGID_2_)">
		<defs>
			<rect id="SB_SVGID_3_" x="38.321" y="105.5" width="449.371" height="581.539"/>
		</defs>
		<clipPath id="SB_SVGID_4_">
			<use xlink:href="#SB_SVGID_3_"  overflow="visible"/>
		</clipPath>
		<path clip-path="url(#SB_SVGID_4_)" d="M405.427,192.552c-6.924-2.429-37.567-14.465-47.271-20.744
			c-10.579-6.845-24.269-17.424-28.001-20.535c-3.22-2.683-6.438-8.133-9.259-10.384c-13.212-1.676-39.685-4.792-55.583-5.027
			c-16.97-0.249-47.719,3.938-60.565,5.814c-2.602,2.553-5.49,7.188-8.379,9.597c-3.734,3.111-17.423,13.69-28.002,20.535
			c-10.579,6.845-46.046,20.535-48.536,21.157c-0.309,0.077-0.932,0.441-1.806,1.055c0.939,18.849,9.533,52.049,12.384,68.016
			c3.111,17.423,9.334,30.491,9.334,37.958v11.291c1.338,2.984,3.329,8.112,3.734,12.977c0.623,7.467,1.867,34.846,6.845,44.803
			c4.978,9.957,14.311,69.071,15.556,74.671c1.245,5.6-3.111,26.757-3.111,31.735c0,4.978-11.823,41.69-12.444,51.646
			c-0.623,9.958-3.112,23.647-3.112,33.604s-4.356,24.89-4.356,24.89s3.734,7.467,8.712,16.8
			c4.978,9.336,13.69,24.269,16.801,32.357c3.111,8.091,15.557,26.759,41.07,35.471c3.286,1.12,7.319,2.015,11.846,2.723
			l-0.024,1.011c0,0,12.712,0.899,29.283,1.265c4.258,0.108,8.536,0.154,12.721,0.15c4.185,0.004,8.462-0.042,12.72-0.15
			c16.571-0.365,29.283-1.265,29.283-1.265l-0.024-1.011c4.526-0.708,8.561-1.603,11.847-2.723
			c25.513-8.712,37.959-27.38,41.069-35.471c3.111-8.089,11.822-23.021,16.801-32.357c4.979-9.333,8.711-16.8,8.711-16.8
			s-4.354-14.934-4.354-24.89s-2.489-23.646-3.112-33.604c-0.622-9.956-12.444-46.669-12.444-51.646
			c0-4.979-4.356-26.136-3.111-31.735c1.245-5.601,10.578-64.715,15.556-74.671c4.979-9.957,6.223-37.336,6.845-44.803
			c0.432-5.17,2.651-10.635,3.977-13.51c0.725-4.727,1.53-10.102,2.248-15.114c1.866-13.067,9.333-66.581,13.688-79.649
			C405.562,208.182,405.721,198.824,405.427,192.552"/>
    	<path clip-path="url(#SB_SVGID_10_)" d="M130.409,262.035c-2.851-15.966-11.444-49.166-12.384-68.016
			c-6.197,4.348-25.091,21.319-34.908,38.77c-11.2,19.912-8.711,73.426-8.711,75.916s-0.622,10.579-0.622,10.579l-1.867,3.733
			c0,0,21.157,5.601,39.203,5.601s28.001-3.112,28.001-3.112l-0.622-16.801c0,0,0.529,0.983,1.244,2.58v-11.291
			C139.743,292.526,133.521,279.458,130.409,262.035"/>
	</g>
	<g id="LEFT_STRIP1" clip-path="url(#SB_SVGID_2_)">
		<defs>
			<rect id="SB_SVGID_5_" x="38.321" y="105.5" width="449.371" height="581.539"/>
		</defs>
		<clipPath id="SB_SVGID_6_">
			<use xlink:href="#SB_SVGID_5_"  overflow="visible"/>
		</clipPath>
		<path clip-path="url(#SB_SVGID_6_)" fill="#897F76" d="M391.161,282.419c0.003-0.019,0.006-0.038,0.009-0.058
			c3.041-20.98,8.372-56.122,11.789-66.373c2.603-7.806,2.762-17.165,2.468-23.437c-4.892-1.716-21.611-8.224-34.431-14.112
			c-0.05-0.023-0.101-0.045-0.149-0.068c-0.339-0.156-0.673-0.311-1.007-0.465c-0.106-0.049-0.213-0.099-0.318-0.149
			c-0.528-0.246-1.049-0.492-1.56-0.735c-0.167-0.079-0.334-0.158-0.5-0.237c-0.254-0.122-0.505-0.243-0.755-0.364
			c-0.229-0.111-0.454-0.222-0.678-0.332c-0.3-0.146-0.594-0.291-0.884-0.435c-0.271-0.135-0.539-0.269-0.803-0.402
			c-0.174-0.087-0.345-0.175-0.516-0.263c-0.318-0.162-0.629-0.323-0.934-0.482c-0.121-0.063-0.24-0.125-0.358-0.187
			c-0.327-0.173-0.643-0.343-0.953-0.511c-0.114-0.062-0.228-0.123-0.34-0.185c-0.336-0.185-0.666-0.368-0.979-0.546
			c-0.031-0.018-0.061-0.035-0.092-0.052c-0.32-0.184-0.624-0.364-0.92-0.54c-0.077-0.046-0.156-0.093-0.233-0.141
			c-0.3-0.183-0.592-0.363-0.861-0.538c-10.579-6.845-24.269-17.424-28.001-20.535c-3.22-2.683-6.438-8.133-9.259-10.384
			c-13.212-1.676-39.685-4.792-55.583-5.026c-16.97-0.25-47.719,3.938-60.564,5.814c-2.602,2.554-5.49,7.189-8.38,9.597
			c-3.733,3.111-17.422,13.69-28.001,20.535c-0.262,0.169-0.544,0.344-0.836,0.522c-0.042,0.026-0.085,0.053-0.129,0.08
			c-0.284,0.171-0.58,0.345-0.889,0.523c-0.055,0.032-0.112,0.065-0.168,0.097c-0.316,0.182-0.642,0.364-0.982,0.551
			c-0.041,0.024-0.084,0.046-0.126,0.07c-0.353,0.193-0.717,0.389-1.094,0.589c-0.01,0.005-0.019,0.01-0.028,0.015
			c-0.384,0.203-0.782,0.41-1.188,0.62c-0.05,0.026-0.101,0.051-0.151,0.077c-0.401,0.206-0.813,0.414-1.232,0.623
			c-0.05,0.025-0.099,0.05-0.147,0.073c-0.435,0.217-0.877,0.435-1.331,0.656c-0.014,0.006-0.028,0.013-0.043,0.02
			c-0.477,0.232-0.962,0.465-1.457,0.701c88.38-0.92,189.44,74.269,163.786,161.362c-15.072,51.167-72.57,95.258-95.161,171.951
			c-19.136,64.967-7.705,116.236,8.001,164.392c0.496,0.023,1.005,0.044,1.521,0.065c0.141,0.007,0.284,0.013,0.425,0.019
			c0.406,0.016,0.817,0.032,1.235,0.05c0.137,0.006,0.271,0.01,0.408,0.015c0.536,0.021,1.079,0.042,1.632,0.062
			c0.115,0.004,0.231,0.008,0.347,0.013c0.443,0.016,0.893,0.033,1.347,0.048c0.184,0.006,0.371,0.012,0.557,0.018
			c0.468,0.017,0.943,0.032,1.42,0.046c0.113,0.004,0.226,0.007,0.339,0.011c0.589,0.02,1.186,0.036,1.789,0.054
			c0.154,0.004,0.31,0.01,0.465,0.014c0.477,0.013,0.957,0.026,1.439,0.038c0.176,0.004,0.353,0.009,0.53,0.013
			c0.627,0.016,1.259,0.031,1.898,0.046c4.258,0.108,8.535,0.154,12.72,0.15c4.185,0.004,8.462-0.042,12.72-0.15
			c16.571-0.365,29.283-1.265,29.283-1.265l-0.024-1.011c4.526-0.708,8.561-1.603,11.847-2.723
			c25.513-8.712,37.959-27.38,41.069-35.471c3.111-8.089,11.822-23.021,16.801-32.357c4.979-9.333,8.711-16.8,8.711-16.8
			s-4.354-14.934-4.354-24.89s-2.489-23.647-3.112-33.604c-0.622-9.956-12.444-46.669-12.444-51.646
			c0-4.979-4.356-26.136-3.111-31.735c1.245-5.601,10.578-64.715,15.556-74.671c4.979-9.957,6.223-37.335,6.846-44.803
			c0.431-5.17,2.65-10.635,3.976-13.511c0.725-4.726,1.53-10.101,2.248-15.113c0.119-0.835,0.261-1.839,0.424-2.984
			c0.014-0.094,0.026-0.187,0.04-0.281C390.113,289.709,390.598,286.311,391.161,282.419"/>
    <path clip-path="url(#SB_SVGID_12_)" fill="#897F76" d="M452.74,319.283c0,0-0.622-8.09-0.622-10.579
			c0-2.488,2.488-56.003-8.713-75.915c-11.2-19.913-34.224-39.203-36.713-39.825c-0.205-0.052-0.641-0.194-1.267-0.413
			c0.295,6.272,0.136,15.63-2.467,23.437c-4.355,13.068-11.822,66.582-13.688,79.649c-0.718,5.012-1.523,10.387-2.248,15.113
			c0.589-1.277,1.003-2.045,1.003-2.045l-0.623,16.802c0,0,9.957,3.11,28.002,3.11c18.046,0,39.202-5.6,39.202-5.6L452.74,319.283z"
			/>
	</g>
	<g id="INNER_STRIP" clip-path="url(#SB_SVGID_2_)">
		<defs>
			<rect id="SB_SVGID_7_" x="38.321" y="105.5" width="449.371" height="581.539"/>
		</defs>
		<clipPath id="SB_SVGID_8_">
			<use xlink:href="#SB_SVGID_7_"  overflow="visible"/>
		</clipPath>
		<path clip-path="url(#SB_SVGID_8_)" fill="#D94723" d="M118.444,199.303c-0.021-0.209-0.041-0.414-0.061-0.621
			C118.403,198.889,118.423,199.093,118.444,199.303"/>
		<path clip-path="url(#SB_SVGID_8_)" fill="#D94723" d="M124.691,191.231c0.166-0.063,0.335-0.127,0.506-0.192
			C125.026,191.104,124.856,191.168,124.691,191.231"/>
		<path clip-path="url(#SB_SVGID_8_)" fill="#D94723" d="M122.966,191.875c0.12-0.044,0.241-0.089,0.366-0.135
			C123.207,191.786,123.086,191.831,122.966,191.875"/>
		<path clip-path="url(#SB_SVGID_8_)" fill="#D94723" d="M118.222,196.894c-0.018-0.22-0.036-0.442-0.053-0.659
			C118.186,196.452,118.204,196.673,118.222,196.894"/>
		<path clip-path="url(#SB_SVGID_8_)" fill="#D94723" d="M124.063,191.467c0.154-0.058,0.311-0.117,0.473-0.178
			C124.374,191.35,124.217,191.409,124.063,191.467"/>
		<path clip-path="url(#SB_SVGID_8_)" fill="#D94723" d="M122.44,192.069c0.116-0.042,0.232-0.085,0.354-0.13
			C122.672,191.983,122.555,192.027,122.44,192.069"/>
		<path clip-path="url(#SB_SVGID_8_)" fill="#D94723" d="M123.497,191.679c0.142-0.053,0.286-0.106,0.434-0.162
			C123.782,191.572,123.638,191.626,123.497,191.679"/>
		<path clip-path="url(#SB_SVGID_8_)" fill="#D94723" d="M120.81,192.652c0.072-0.025,0.145-0.05,0.224-0.078
			C120.955,192.602,120.882,192.626,120.81,192.652"/>
		<path clip-path="url(#SB_SVGID_8_)" fill="#D94723" d="M121.153,192.532c0.085-0.031,0.17-0.061,0.262-0.093
			C121.323,192.472,121.239,192.501,121.153,192.532"/>
		<path clip-path="url(#SB_SVGID_8_)" fill="#D94723" d="M120.249,192.839c0.051-0.016,0.102-0.032,0.16-0.052
			C120.351,192.807,120.3,192.824,120.249,192.839"/>
		<path clip-path="url(#SB_SVGID_8_)" fill="#D94723" d="M122,192.229c0.095-0.034,0.193-0.069,0.293-0.107
			C122.192,192.16,122.096,192.195,122,192.229"/>
		<path clip-path="url(#SB_SVGID_8_)" fill="#D94723" d="M119.832,192.965c0.039-0.011,0.087-0.023,0.143-0.04
			C119.919,192.941,119.871,192.955,119.832,192.965"/>
		<path clip-path="url(#SB_SVGID_8_)" fill="#D94723" d="M120.038,192.906c0.042-0.013,0.083-0.026,0.132-0.041
			C120.121,192.88,120.081,192.893,120.038,192.906"/>
		<path clip-path="url(#SB_SVGID_8_)" fill="#D94723" d="M121.542,192.394c0.092-0.032,0.184-0.065,0.281-0.101
			C121.726,192.329,121.633,192.362,121.542,192.394"/>
		<path clip-path="url(#SB_SVGID_8_)" fill="#D94723" d="M120.522,192.749c0.058-0.019,0.114-0.038,0.177-0.06
			C120.636,192.711,120.58,192.73,120.522,192.749"/>
		<path clip-path="url(#SB_SVGID_8_)" fill="#D94723" d="M127.454,190.175c0.226-0.087,0.455-0.176,0.687-0.266
			C127.909,189.999,127.68,190.088,127.454,190.175"/>
		<path clip-path="url(#SB_SVGID_8_)" fill="#D94723" d="M129.016,189.569c0.262-0.102,0.528-0.206,0.797-0.312
			C129.545,189.363,129.278,189.467,129.016,189.569"/>
		<path clip-path="url(#SB_SVGID_8_)" fill="#D94723" d="M119.141,204.975c-0.027-0.197-0.056-0.396-0.082-0.592
			C119.085,204.58,119.113,204.777,119.141,204.975"/>
		<path clip-path="url(#SB_SVGID_8_)" fill="#D94723" d="M128.232,189.875c0.245-0.096,0.494-0.192,0.747-0.291
			C128.726,189.682,128.477,189.779,128.232,189.875"/>
		<path clip-path="url(#SB_SVGID_8_)" fill="#D94723" d="M120.546,213.825c-0.02-0.112-0.04-0.225-0.059-0.337
			C120.506,213.6,120.526,213.712,120.546,213.825"/>
		<path clip-path="url(#SB_SVGID_8_)" fill="#D94723" d="M119.536,207.683c-0.021-0.134-0.04-0.266-0.061-0.4
			C119.496,207.417,119.515,207.549,119.536,207.683"/>
		<path clip-path="url(#SB_SVGID_8_)" fill="#D94723" d="M142.269,184.219c-4.453,1.859-8.775,3.596-12.426,5.027
			C133.494,187.815,137.815,186.078,142.269,184.219"/>
		<path clip-path="url(#SB_SVGID_8_)" fill="#D94723" d="M118.728,201.84c-0.001-0.019-0.004-0.039-0.007-0.058
			C118.724,201.802,118.727,201.822,118.728,201.84"/>
		<path clip-path="url(#SB_SVGID_8_)" fill="#D94723" d="M126.708,190.463c0.217-0.084,0.439-0.169,0.665-0.257
			C127.147,190.294,126.925,190.378,126.708,190.463"/>
		<path clip-path="url(#SB_SVGID_8_)" fill="#D94723" d="M125.327,190.99c0.184-0.07,0.371-0.141,0.563-0.214
			C125.698,190.849,125.511,190.92,125.327,190.99"/>
		<path clip-path="url(#SB_SVGID_8_)" fill="#D94723" d="M126.004,190.732c0.202-0.077,0.407-0.155,0.616-0.236
			C126.412,190.577,126.206,190.655,126.004,190.732"/>
		<path clip-path="url(#SB_SVGID_8_)" fill="#D94723" d="M133.162,217.951c15.647,1.501,30.878,5.7,46.122,11.631
			c7.611,2.906,15.134,6.425,22.594,10.151c3.702,1.935,7.453,3.816,11.052,5.996c1.837,1.022,3.659,2.083,5.48,3.146l5.373,3.344
			c14.356,8.937,28.109,19.091,40.358,30.878c6.074,5.932,11.7,12.346,16.252,19.46c4.568,7.087,8.245,14.829,10.194,23.174
			c1.05,4.169,1.623,8.466,1.886,12.881c0.163,4.397-0.122,8.89-0.823,13.403c-0.781,4.497-1.994,8.999-3.378,13.57
			c-0.79,2.265-1.566,4.57-2.532,6.851c-0.847,2.332-1.859,4.654-2.884,6.991c-2.087,4.658-4.455,9.363-7.008,14.027
			c-2.532,4.686-5.317,9.312-8.307,13.79c-5.474,8.414-11.788,16.19-18.485,23.54c-0.515,0.566,14.048-12.98,21.423-20.749
			c7.357-7.78,14.524-15.787,20.836-24.478c3.139-4.354,6.072-8.864,8.674-13.569c2.56-4.731,4.724-9.667,6.546-14.727
			c3.52-10.163,7.553-24.116,7.438-34.868c-0.157-21.588-4.608-41.161-16.178-59.115c-11.617-18.036-26.878-32.227-44.181-44.803
			c-17.312-12.579-42.207-21.866-62.718-27.997c-15.704-4.694-32.24-7.091-48.63-6.261c-4.454,1.859-8.775,3.597-12.426,5.027
			c-0.009,0.004-0.019,0.008-0.028,0.011c-0.27,0.106-0.536,0.21-0.798,0.312c-0.012,0.005-0.025,0.009-0.038,0.015
			c-0.253,0.099-0.502,0.195-0.747,0.291c-0.031,0.011-0.061,0.023-0.091,0.035c-0.232,0.089-0.461,0.179-0.687,0.265
			c-0.027,0.011-0.054,0.021-0.081,0.031c-0.226,0.088-0.448,0.172-0.665,0.257c-0.03,0.01-0.058,0.021-0.087,0.033
			c-0.209,0.081-0.415,0.159-0.617,0.236c-0.038,0.015-0.077,0.03-0.113,0.044c-0.192,0.073-0.379,0.144-0.563,0.213
			c-0.043,0.017-0.086,0.034-0.13,0.05c-0.171,0.065-0.341,0.129-0.506,0.191c-0.052,0.021-0.104,0.04-0.155,0.059
			c-0.161,0.061-0.318,0.12-0.473,0.178c-0.044,0.018-0.089,0.034-0.132,0.05c-0.149,0.055-0.293,0.108-0.435,0.162
			c-0.055,0.021-0.11,0.041-0.165,0.062c-0.125,0.046-0.245,0.091-0.364,0.135c-0.057,0.021-0.116,0.042-0.172,0.063
			c-0.122,0.046-0.239,0.089-0.355,0.13c-0.049,0.018-0.099,0.037-0.146,0.054c-0.101,0.037-0.198,0.072-0.294,0.106
			c-0.06,0.022-0.12,0.043-0.177,0.064c-0.098,0.035-0.19,0.068-0.281,0.1c-0.042,0.015-0.085,0.031-0.126,0.045
			c-0.092,0.032-0.177,0.063-0.262,0.093c-0.04,0.014-0.081,0.028-0.12,0.042c-0.078,0.027-0.151,0.053-0.223,0.078
			c-0.038,0.013-0.076,0.026-0.111,0.038c-0.063,0.021-0.12,0.041-0.176,0.06c-0.038,0.013-0.079,0.026-0.115,0.039
			c-0.058,0.02-0.108,0.035-0.16,0.051c-0.025,0.01-0.054,0.019-0.079,0.026c-0.048,0.015-0.089,0.027-0.132,0.041
			c-0.02,0.005-0.044,0.014-0.064,0.02c-0.055,0.016-0.104,0.029-0.143,0.04c-0.309,0.078-0.932,0.441-1.806,1.054
			c0.036,0.716,0.086,1.46,0.143,2.215c0.017,0.217,0.035,0.439,0.053,0.659c0.049,0.586,0.103,1.182,0.162,1.789
			c0.02,0.207,0.039,0.412,0.061,0.621c0.083,0.812,0.175,1.636,0.277,2.479c0.002,0.02,0.005,0.039,0.007,0.058
			c0.1,0.833,0.211,1.683,0.329,2.542c0.027,0.197,0.055,0.395,0.083,0.593c0.106,0.76,0.218,1.528,0.334,2.308
			c0.021,0.134,0.04,0.266,0.061,0.4c0.289,1.89,0.608,3.832,0.951,5.804c0.021,0.112,0.04,0.225,0.059,0.337
			c0.171,0.974,0.347,1.954,0.528,2.94C124.679,216.984,128.459,217.456,133.162,217.951"/>
		<path clip-path="url(#SB_SVGID_8_)" fill="#A39E9C" d="M165.362,173.581c0.339-0.187,0.666-0.37,0.982-0.551
			C166.028,173.211,165.702,173.395,165.362,173.581"/>
		<path clip-path="url(#SB_SVGID_8_)" fill="#A39E9C" d="M164.143,174.239c0.377-0.2,0.74-0.396,1.094-0.589
			C164.883,173.844,164.52,174.04,164.143,174.239"/>
		<path clip-path="url(#SB_SVGID_8_)" fill="#A39E9C" d="M162.925,174.874c0.407-0.209,0.805-0.416,1.189-0.619
			C163.73,174.458,163.332,174.664,162.925,174.874"/>
		<path clip-path="url(#SB_SVGID_8_)" fill="#A39E9C" d="M160.064,176.302c0.454-0.221,0.896-0.439,1.331-0.656
			C160.96,175.863,160.518,176.082,160.064,176.302"/>
		<path clip-path="url(#SB_SVGID_8_)" fill="#A39E9C" d="M361.242,173.625c0.112,0.062,0.226,0.124,0.34,0.185
			C361.468,173.748,361.354,173.687,361.242,173.625"/>
		<path clip-path="url(#SB_SVGID_8_)" fill="#A39E9C" d="M359.018,172.346c0.077,0.046,0.156,0.094,0.233,0.14
			C359.173,172.439,359.095,172.392,359.018,172.346"/>
		<path clip-path="url(#SB_SVGID_8_)" fill="#A39E9C" d="M360.171,173.026c0.031,0.017,0.061,0.035,0.092,0.052
			C360.231,173.061,360.202,173.043,360.171,173.026"/>
		<path clip-path="url(#SB_SVGID_8_)" fill="#A39E9C" d="M167.532,172.33c0.292-0.178,0.574-0.353,0.836-0.522
			C168.105,171.978,167.823,172.152,167.532,172.33"/>
		<path clip-path="url(#SB_SVGID_8_)" fill="#A39E9C" d="M166.513,172.933c0.309-0.177,0.606-0.353,0.889-0.523
			C167.119,172.581,166.821,172.756,166.513,172.933"/>
		<path clip-path="url(#SB_SVGID_8_)" fill="#A39E9C" d="M161.542,175.573c0.42-0.209,0.832-0.417,1.233-0.623
			C162.373,175.156,161.962,175.364,161.542,175.573"/>
		<path clip-path="url(#SB_SVGID_8_)" fill="#A39E9C" d="M248.644,675.19c-0.177-0.004-0.353-0.009-0.53-0.013
			C248.291,675.182,248.467,675.187,248.644,675.19"/>
		<path clip-path="url(#SB_SVGID_8_)" fill="#A39E9C" d="M158.563,177.023c0.495-0.236,0.98-0.469,1.457-0.701
			C159.544,176.554,159.058,176.788,158.563,177.023"/>
		<path clip-path="url(#SB_SVGID_8_)" fill="#A39E9C" d="M389.694,292.653c-0.163,1.145-0.305,2.149-0.424,2.984
			C389.39,294.803,389.531,293.798,389.694,292.653"/>
		<path clip-path="url(#SB_SVGID_8_)" fill="#A39E9C" d="M244.421,675.072c-0.113-0.004-0.226-0.007-0.339-0.011
			C244.195,675.065,244.307,675.068,244.421,675.072"/>
		<path clip-path="url(#SB_SVGID_8_)" fill="#A39E9C" d="M246.675,675.14c-0.155-0.004-0.311-0.01-0.464-0.014
			C246.364,675.13,246.52,675.136,246.675,675.14"/>
		<path clip-path="url(#SB_SVGID_8_)" fill="#A39E9C" d="M242.663,675.016c-0.187-0.006-0.373-0.012-0.558-0.018
			C242.29,675.004,242.475,675.01,242.663,675.016"/>
		<path clip-path="url(#SB_SVGID_8_)" fill="#A39E9C" d="M238.778,674.876c-0.137-0.005-0.271-0.009-0.408-0.015
			C238.507,674.867,238.642,674.871,238.778,674.876"/>
		<path clip-path="url(#SB_SVGID_8_)" fill="#A39E9C" d="M237.135,674.812c-0.141-0.006-0.284-0.012-0.425-0.019
			C236.851,674.8,236.994,674.806,237.135,674.812"/>
		<path clip-path="url(#SB_SVGID_8_)" fill="#A39E9C" d="M240.758,674.95c-0.115-0.005-0.232-0.009-0.347-0.013
			C240.525,674.941,240.642,674.945,240.758,674.95"/>
		<path clip-path="url(#SB_SVGID_8_)" fill="#A39E9C" d="M363.827,174.989c0.171,0.088,0.342,0.175,0.516,0.263
			C364.169,175.164,363.998,175.077,363.827,174.989"/>
		<path clip-path="url(#SB_SVGID_8_)" fill="#A39E9C" d="M391.161,282.419c-0.563,3.891-1.048,7.29-1.427,9.953
			C390.113,289.709,390.598,286.309,391.161,282.419"/>
		<path clip-path="url(#SB_SVGID_8_)" fill="#A39E9C" d="M366.707,176.421c0.25,0.121,0.501,0.242,0.755,0.364
			C367.208,176.663,366.957,176.542,366.707,176.421"/>
		<path clip-path="url(#SB_SVGID_8_)" fill="#A39E9C" d="M365.146,175.654c0.29,0.144,0.584,0.289,0.884,0.436
			C365.729,175.943,365.436,175.798,365.146,175.654"/>
		<path clip-path="url(#SB_SVGID_8_)" fill="#A39E9C" d="M362.535,174.319c0.118,0.063,0.237,0.125,0.358,0.188
			C362.772,174.444,362.653,174.382,362.535,174.319"/>
		<path clip-path="url(#SB_SVGID_8_)" fill="#A39E9C" d="M369.84,177.906c0.334,0.155,0.668,0.31,1.007,0.465
			C370.508,178.216,370.174,178.061,369.84,177.906"/>
		<path clip-path="url(#SB_SVGID_8_)" fill="#A39E9C" d="M367.962,177.022c0.511,0.244,1.031,0.489,1.56,0.734
			C368.992,177.512,368.473,177.267,367.962,177.022"/>
	</g>
	<g clip-path="url(#SB_SVGID_2_)">
		<defs>
			<rect id="SB_SVGID_9_" x="38.321" y="105.5" width="449.371" height="581.539"/>
		</defs>
		<clipPath id="SB_SVGID_10_">
			<use xlink:href="#SB_SVGID_9_"  overflow="visible"/>
		</clipPath>
		<!--<path clip-path="url(#SB_SVGID_10_)" d="M130.409,262.035c-2.851-15.966-11.444-49.166-12.384-68.016
			c-6.197,4.348-25.091,21.319-34.908,38.77c-11.2,19.912-8.711,73.426-8.711,75.916s-0.622,10.579-0.622,10.579l-1.867,3.733
			c0,0,21.157,5.601,39.203,5.601s28.001-3.112,28.001-3.112l-0.622-16.801c0,0,0.529,0.983,1.244,2.58v-11.291
			C139.743,292.526,133.521,279.458,130.409,262.035"/>-->
	</g>
	<g clip-path="url(#SB_SVGID_2_)">
		<defs>
			<rect id="SB_SVGID_11_" x="38.321" y="105.5" width="449.371" height="581.539"/>
		</defs>
		<clipPath id="SB_SVGID_12_">
			<use xlink:href="#SB_SVGID_11_"  overflow="visible"/>
		</clipPath>
		<!--<path clip-path="url(#SB_SVGID_12_)" fill="#897F76" d="M452.74,319.283c0,0-0.622-8.09-0.622-10.579
			c0-2.488,2.488-56.003-8.713-75.915c-11.2-19.913-34.224-39.203-36.713-39.825c-0.205-0.052-0.641-0.194-1.267-0.413
			c0.295,6.272,0.136,15.63-2.467,23.437c-4.355,13.068-11.822,66.582-13.688,79.649c-0.718,5.012-1.523,10.387-2.248,15.113
			c0.589-1.277,1.003-2.045,1.003-2.045l-0.623,16.802c0,0,9.957,3.11,28.002,3.11c18.046,0,39.202-5.6,39.202-5.6L452.74,319.283z"
			/>-->
	</g>
	<g id="COLLAR" clip-path="url(#SB_SVGID_2_)">
		<defs>
			<rect id="SB_SVGID_13_" x="38.321" y="105.5" width="449.371" height="581.539"/>
		</defs>
		<clipPath id="SB_SVGID_14_">
			<use xlink:href="#SB_SVGID_13_"  overflow="visible"/>
		</clipPath>
		<path clip-path="url(#SB_SVGID_14_)" fill="#897F76" d="M265.313,135.863c15.898,0.233,42.371,3.35,55.583,5.026
			c-0.45-0.36-0.892-0.645-1.32-0.817c-3.111-1.244-7.467-3.733-7.467-3.733l-4.355-8.09c0,0-18.046-6.843-32.98-6.843H251.75
			c-14.935,0-32.979,6.843-32.979,6.843l-4.355,8.09c0,0-4.357,2.489-7.468,3.733c-0.703,0.281-1.439,0.859-2.199,1.604
			C217.595,139.801,248.343,135.613,265.313,135.863"/>
	</g>
	<g clip-path="url(#SB_SVGID_2_)">
		<defs>
			<rect id="SB_SVGID_15_" x="38.321" y="105.5" width="449.371" height="581.539"/>
		</defs>
		<clipPath id="SB_SVGID_16_">
			<use xlink:href="#SB_SVGID_15_"  overflow="visible"/>
		</clipPath>
		<g opacity="0.35" clip-path="url(#SB_SVGID_16_)">
			<g>
				<defs>
					<rect id="SB_SVGID_17_" x="73.701" y="131.807" width="379.125" height="539.724"/>
				</defs>
				<clipPath id="SB_SVGID_18_">
					<use xlink:href="#SB_SVGID_17_"  overflow="visible"/>
				</clipPath>
				<path clip-path="url(#SB_SVGID_18_)" fill="none" stroke="#000000" stroke-miterlimit="10" stroke-dasharray="0.859,0.5" d="
					M144.099,583.121c0,0,32.357,61.604,60.36,73.427c28.001,11.823,80.271,11.2,101.428,5.6c21.157-5.6,41.69-22.4,48.536-32.356
					c6.845-9.957,29.245-47.291,29.245-47.291"/>
				<path clip-path="url(#SB_SVGID_18_)" fill="none" stroke="#000000" stroke-miterlimit="10" stroke-dasharray="0.859,0.5" d="
					M144.099,588.267c0,0,32.357,61.603,60.36,73.426c28.001,11.823,80.271,11.2,101.428,5.601
					c21.157-5.601,41.69-22.401,48.536-32.359c6.845-9.954,29.245-47.29,29.245-47.29"/>
				<path clip-path="url(#SB_SVGID_18_)" fill="none" stroke="#000000" stroke-miterlimit="10" stroke-dasharray="0.859,0.5" d="
					M73.768,316.227c0,0,16.919,3.172,34.366,3.172s30.841-1.41,30.841-1.41"/>
				<path clip-path="url(#SB_SVGID_18_)" fill="none" stroke="#000000" stroke-miterlimit="10" stroke-dasharray="0.859,0.5" d="
					M73.768,313.287c0,0,16.919,3.173,34.366,3.173s30.841-1.41,30.841-1.41"/>
				<path clip-path="url(#SB_SVGID_18_)" fill="none" stroke="#000000" stroke-miterlimit="10" stroke-dasharray="0.859,0.5" d="
					M452.757,316.227c0,0-16.918,3.172-34.364,3.172s-30.842-1.41-30.842-1.41"/>
				<path clip-path="url(#SB_SVGID_18_)" fill="none" stroke="#000000" stroke-miterlimit="10" stroke-dasharray="0.859,0.5" d="
					M452.757,313.287c0,0-16.918,3.173-34.364,3.173s-30.842-1.41-30.842-1.41"/>
				<path clip-path="url(#SB_SVGID_18_)" fill="none" stroke="#000000" stroke-miterlimit="10" stroke-dasharray="0.859,0.5" d="
					M214.276,136.683c0,0,29.209-4.815,51.038-4.494c21.827,0.321,46.864,4.173,46.864,4.173"/>
				<path clip-path="url(#SB_SVGID_18_)" fill="none" stroke="#000000" stroke-miterlimit="10" stroke-dasharray="0.859,0.5" d="
					M204.102,142.119c0,0,39.384-6.577,61.212-6.256c21.827,0.321,56.029,5.053,56.029,5.053"/>
				<path clip-path="url(#SB_SVGID_18_)" fill="none" stroke="#000000" stroke-miterlimit="10" stroke-dasharray="0.859,0.5" d="
					M139.582,311.121c0,0,0.161-3.661,0.161-11.126c0-7.468-6.221-20.536-9.334-37.959c-3.111-17.423-12.875-50.252-12.253-67.676"
					/>
				<path clip-path="url(#SB_SVGID_18_)" fill="none" stroke="#000000" stroke-miterlimit="10" stroke-dasharray="0.859,0.5" d="
					M405.427,192.552c0,0,1.889,10.369-2.468,23.436c-4.355,13.068-11.822,66.582-13.688,79.649
					c-1.868,13.067-1.854,13.8-1.854,13.8"/>
			</g>
		</g>
	</g>
	<g clip-path="url(#SB_SVGID_2_)">
		<defs>
			<rect id="SB_SVGID_19_" x="38.321" y="105.5" width="449.371" height="581.539"/>
		</defs>
		<clipPath id="SB_SVGID_20_">
			<use xlink:href="#SB_SVGID_19_"  overflow="visible"/>
		</clipPath>
		<g opacity="0.12" clip-path="url(#SB_SVGID_20_)">
			<g>
				<defs>
					<rect id="SB_SVGID_21_" x="76.436" y="224.383" width="359.862" height="273.302"/>
				</defs>
				<clipPath id="SB_SVGID_22_">
					<use xlink:href="#SB_SVGID_21_"  overflow="visible"/>
				</clipPath>
				<path clip-path="url(#SB_SVGID_22_)" fill="#897F76" d="M136.601,299.25c0,0-11.309-2.035-19.453-4.75
					c-8.142-2.714-15.606-4.75-21.94-10.404c-6.333-5.655-18.772-20.583-18.772-20.583s21.939,19,23.749,20.809
					C101.995,286.133,136.601,299.25,136.601,299.25"/>
				<path clip-path="url(#SB_SVGID_22_)" fill="#897F76" d="M127.102,290.429l-13.798-6.559l-2.261-4.976c0,0,16.059,11.535,14.25,8.37
					c-1.809-3.167-24.202-28.726-28.273-33.928S83.221,237.05,83.221,237.05s11.987,7.916,13.346,10.63
					c1.357,2.714,22.844,28.951,25.333,32.118c2.488,3.167,9.047,8.596,8.595,9.727
					C130.042,290.655,127.102,290.429,127.102,290.429"/>
				<path clip-path="url(#SB_SVGID_22_)" fill="#897F76" d="M111.268,287.263c0,0-15.38-16.06-17.868-19
					c-2.489-2.94-12.893-11.083-12.893-11.083l19.452,21.261L111.268,287.263z"/>
				<path clip-path="url(#SB_SVGID_22_)" fill="#897F76" d="M129.589,277.311c0,0-4.524-11.762-6.786-16.964
					c-2.263-5.202-6.107-25.106-9.952-24.654c-3.846,0.453-1.358,8.368,1.356,14.023c2.715,5.656,5.654,10.179,5.654,10.179
					s-6.559-2.262-10.404-8.369c-3.845-6.107-12.892-26.689-15.381-26.011c-2.487,0.678,1.583,11.762,5.655,18.32
					c4.071,6.56,14.023,16.06,19.226,21.262C124.161,270.299,129.589,277.311,129.589,277.311"/>
				<path clip-path="url(#SB_SVGID_22_)" fill="#897F76" d="M389.703,281.607c0,0,10.63-19.904,17.189-30.987
					c6.561-11.083,18.548-26.238,18.548-26.238s-19.905,35.059-21.036,36.417C403.274,262.156,389.703,281.607,389.703,281.607"/>
				<path clip-path="url(#SB_SVGID_22_)" fill="#897F76" d="M399.881,268.941c0,0,8.144-11.988,17.19-19.226
					c9.047-7.237,19.227-11.083,19.227-11.083s-13.572,7.238-20.584,16.285c-7.011,9.048-18.999,22.62-20.81,27.821
					c-1.809,5.203-1.357,11.083-1.357,11.083s5.429-1.357,3.168,0.679c-2.263,2.036,1.809,7.238-1.357,8.37
					c-3.166,1.13-4.976,1.583-4.976,2.939c0,1.357-4.523-0.905-4.523-0.905s2.486-18.095,3.392-20.13
					S399.881,268.941,399.881,268.941"/>
				<path clip-path="url(#SB_SVGID_22_)" fill="#897F76" d="M397.166,286.584c0,0-0.226-7.917,5.656-10.405
					c5.881-2.488,12.213-3.393,17.189-5.881c4.976-2.487,8.369-5.428,8.369-5.428s-6.334,8.595-14.25,11.309
					c-7.916,2.714-10.856,2.714-12.666,4.976C399.654,283.418,397.166,286.584,397.166,286.584"/>
				<path clip-path="url(#SB_SVGID_22_)" fill="#897F76" d="M176.772,491.442c0,0,57.64-12.482,82.972-11.747
					c25.332,0.733,89.947,17.989,89.947,17.989s-46.259-12.114-86.644-12.482C222.664,484.834,176.772,491.442,176.772,491.442"/>
			</g>
		</g>
	</g>
	<g clip-path="url(#SB_SVGID_2_)">
		<defs>
			<rect id="SB_SVGID_23_" x="38.321" y="105.5" width="449.371" height="581.539"/>
		</defs>
		<clipPath id="SB_SVGID_24_">
			<use xlink:href="#SB_SVGID_23_"  overflow="visible"/>
		</clipPath>
		<path clip-path="url(#SB_SVGID_24_)" d="M271.532,145.922c3.618,0,6.55,3.139,6.55,7.008c0,3.87-2.932,7.009-6.55,7.009h-12.703
			c-3.615,0-6.549-3.139-6.549-7.009c0-3.869,2.934-7.008,6.549-7.008H271.532"/>
		<path clip-path="url(#SB_SVGID_24_)" fill="none" stroke="#000000" stroke-width="6.078" d="M271.532,145.922
			c3.618,0,6.55,3.139,6.55,7.008c0,3.87-2.932,7.009-6.55,7.009h-12.703c-3.615,0-6.549-3.139-6.549-7.009
			c0-3.869,2.934-7.008,6.549-7.008H271.532"/>
		<path clip-path="url(#SB_SVGID_24_)" d="M271.043,147.043c3.287,0,5.95,2.635,5.95,5.886c0,3.252-2.663,5.887-5.952,5.887h-11.539
			c-3.282,0-5.947-2.635-5.947-5.887c0-3.251,2.665-5.886,5.947-5.886H271.043"/>
		<path clip-path="url(#SB_SVGID_24_)" fill="none" stroke="#FFFFFF" stroke-width="0.658" d="M271.043,147.043
			c3.287,0,5.95,2.635,5.95,5.886c0,3.252-2.663,5.887-5.952,5.887h-11.539c-3.282,0-5.947-2.635-5.947-5.887
			c0-3.251,2.665-5.886,5.947-5.886H271.043"/>
		<path clip-path="url(#SB_SVGID_24_)" fill="#FFFFFF" d="M255.112,152.893c0-2.453,1.819-4.464,4.122-4.625v9.25
			C256.931,157.357,255.112,155.345,255.112,152.893"/>
		<polygon clip-path="url(#SB_SVGID_24_)" fill="#FFFFFF" points="263.806,152.286 259.962,148.256 263.806,148.256 		"/>
		<polygon clip-path="url(#SB_SVGID_24_)" fill="#FFFFFF" points="263.806,153.498 259.962,157.53 263.806,157.53 		"/>
		<polygon clip-path="url(#SB_SVGID_24_)" fill="#FFFFFF" points="268.631,152.286 272.479,148.256 268.631,148.256 		"/>
		<polygon clip-path="url(#SB_SVGID_24_)" fill="#FFFFFF" points="268.631,153.498 272.479,157.53 268.631,157.53 		"/>
		<rect x="264.624" y="148.256" clip-path="url(#SB_SVGID_24_)" fill="#FFFFFF" width="3.192" height="9.273"/>
		<path clip-path="url(#SB_SVGID_24_)" fill="#FFFFFF" d="M258.881,144.827v0.567h0.535v-0.19l0.196,0.041v0.108
			c0,0.166-0.048,0.21-0.211,0.21h-0.507c-0.163,0-0.211-0.044-0.211-0.21v-0.474c0-0.167,0.048-0.211,0.211-0.211h0.507
			c0.163,0,0.211,0.043,0.211,0.211v0.085l-0.196,0.033v-0.17H258.881z"/>
		<path clip-path="url(#SB_SVGID_24_)" fill="#FFFFFF" d="M260.135,144.667h0.63c0.16,0,0.211,0.044,0.211,0.21v0.474
			c0,0.167-0.051,0.211-0.211,0.211h-0.63c-0.162,0-0.212-0.044-0.212-0.211v-0.474
			C259.923,144.711,259.973,144.667,260.135,144.667 M260.777,144.827h-0.654v0.566h0.654V144.827z"/>
		<path clip-path="url(#SB_SVGID_24_)" fill="#FFFFFF" d="M261.31,144.667h0.161l0.4,0.542l0.396-0.542h0.159v0.895h-0.184v-0.554
			c0-0.017,0-0.048,0.003-0.095c-0.014,0.04-0.033,0.073-0.049,0.093l-0.318,0.446h-0.042l-0.32-0.448
			c-0.021-0.028-0.037-0.058-0.052-0.092c0.004,0.037,0.006,0.068,0.006,0.095v0.554h-0.161V144.667z"/>
		<path clip-path="url(#SB_SVGID_24_)" fill="#FFFFFF" d="M262.758,144.667h0.73c0.131,0,0.193,0.048,0.193,0.173v0.199
			c0,0.124-0.062,0.174-0.193,0.174h-0.533v0.349h-0.197V144.667z M262.955,144.822v0.236h0.447c0.06,0,0.086-0.011,0.086-0.071
			v-0.094c0-0.059-0.026-0.071-0.086-0.071H262.955z"/>
		<path clip-path="url(#SB_SVGID_24_)" fill="#FFFFFF" d="M263.905,144.667h0.728c0.133,0,0.194,0.048,0.194,0.173v0.21
			c0,0.125-0.061,0.173-0.194,0.173h-0.11l0.392,0.338h-0.282l-0.345-0.338h-0.184v0.338h-0.198V144.667z M264.103,144.822v0.249
			h0.444c0.063,0,0.088-0.013,0.088-0.071v-0.106c0-0.059-0.025-0.071-0.088-0.071H264.103z"/>
		<polygon clip-path="url(#SB_SVGID_24_)" fill="#FFFFFF" points="265.146,144.667 266.019,144.667 266.019,144.82 265.346,144.82 
			265.346,145.019 265.739,145.019 265.739,145.172 265.346,145.172 265.346,145.394 266.03,145.394 266.03,145.562 
			265.146,145.562 		"/>
		<path clip-path="url(#SB_SVGID_24_)" fill="#FFFFFF" d="M266.497,144.822v0.194h0.53c0.162,0,0.212,0.042,0.212,0.21v0.125
			c0,0.166-0.05,0.211-0.212,0.211H266.5c-0.16,0-0.213-0.045-0.213-0.211v-0.027l0.176-0.036v0.104h0.603v-0.205h-0.532
			c-0.16,0-0.212-0.045-0.212-0.212v-0.099c0-0.167,0.052-0.21,0.212-0.21h0.485c0.152,0,0.21,0.042,0.21,0.196v0.019l-0.173,0.042
			v-0.103H266.497z"/>
		<path clip-path="url(#SB_SVGID_24_)" fill="#FFFFFF" d="M267.747,144.822v0.194h0.534c0.16,0,0.213,0.042,0.213,0.21v0.125
			c0,0.166-0.054,0.211-0.213,0.211h-0.526c-0.161,0-0.212-0.045-0.212-0.211v-0.027l0.175-0.036v0.104h0.602v-0.205h-0.533
			c-0.156,0-0.211-0.045-0.211-0.212v-0.099c0-0.167,0.055-0.21,0.211-0.21h0.485c0.152,0,0.21,0.042,0.21,0.196v0.019l-0.173,0.042
			v-0.103H267.747z"/>
		<rect x="268.824" y="144.667" clip-path="url(#SB_SVGID_24_)" fill="#FFFFFF" width="0.201" height="0.895"/>
		<path clip-path="url(#SB_SVGID_24_)" fill="#FFFFFF" d="M269.569,144.667h0.628c0.164,0,0.215,0.044,0.215,0.21v0.474
			c0,0.167-0.052,0.211-0.215,0.211h-0.628c-0.16,0-0.209-0.044-0.209-0.211v-0.474
			C269.359,144.711,269.409,144.667,269.569,144.667 M270.212,144.827h-0.658v0.566h0.658V144.827z"/>
		<path clip-path="url(#SB_SVGID_24_)" fill="#FFFFFF" d="M270.742,144.667h0.136l0.601,0.526c0.035,0.031,0.065,0.061,0.096,0.099
			c-0.002-0.074-0.006-0.127-0.006-0.153v-0.472h0.177v0.895h-0.134l-0.627-0.554c-0.025-0.022-0.049-0.045-0.073-0.073
			c0.009,0.07,0.009,0.116,0.009,0.143v0.484h-0.18V144.667z"/>
		<path clip-path="url(#SB_SVGID_24_)" fill="#FFFFFF" d="M262.803,160.485v0.568h0.618v-0.199h-0.323V160.7h0.519v0.308
			c0,0.169-0.052,0.212-0.212,0.212h-0.589c-0.161,0-0.212-0.043-0.212-0.212v-0.469c0-0.17,0.051-0.212,0.212-0.212h0.589
			c0.155,0,0.212,0.042,0.212,0.202v0.021l-0.196,0.038v-0.102H262.803z"/>
		<polygon clip-path="url(#SB_SVGID_24_)" fill="#FFFFFF" points="263.953,160.327 264.826,160.327 264.826,160.479 264.152,160.479 
			264.152,160.679 264.544,160.679 264.544,160.831 264.152,160.831 264.152,161.053 264.834,161.053 264.834,161.22 
			263.953,161.22 		"/>
		<path clip-path="url(#SB_SVGID_24_)" fill="#FFFFFF" d="M265.438,160.327h0.192l0.488,0.893h-0.223l-0.103-0.195h-0.539l-0.1,0.195
			h-0.198L265.438,160.327z M265.71,160.864l-0.184-0.364l-0.187,0.364H265.71z"/>
		<path clip-path="url(#SB_SVGID_24_)" fill="#FFFFFF" d="M266.312,160.327h0.728c0.134,0,0.192,0.048,0.192,0.172v0.21
			c0,0.124-0.059,0.172-0.192,0.172h-0.109l0.391,0.338h-0.285l-0.343-0.338h-0.189v0.338h-0.193V160.327z M266.505,160.48v0.25
			h0.447c0.06,0,0.088-0.012,0.088-0.07v-0.108c0-0.059-0.028-0.072-0.088-0.072H266.505z"/>
		<path clip-path="url(#SB_SVGID_24_)" fill="#FFFFFF" d="M268.447,160.166c0.111,0.115,0.173,0.273,0.173,0.439
			c0,0.17-0.06,0.323-0.175,0.439c-0.118,0.12-0.266,0.185-0.421,0.185c-0.158,0-0.306-0.065-0.419-0.187
			c-0.113-0.121-0.174-0.271-0.174-0.437s0.063-0.324,0.179-0.447c0.108-0.117,0.255-0.177,0.415-0.177
			C268.186,159.981,268.334,160.046,268.447,160.166 M268.393,160.224c-0.097-0.106-0.225-0.161-0.365-0.161
			s-0.27,0.052-0.363,0.154c-0.101,0.106-0.157,0.244-0.157,0.387c0,0.143,0.055,0.277,0.15,0.379c0.1,0.107,0.23,0.162,0.362,0.162
			c0.141,0,0.268-0.054,0.371-0.16c0.099-0.099,0.15-0.231,0.15-0.375C268.541,160.46,268.492,160.324,268.393,160.224
			 M268.321,160.433c0,0.101-0.056,0.17-0.153,0.191l0.149,0.321h-0.144l-0.135-0.302h-0.125v0.302h-0.127v-0.707h0.254
			C268.231,160.239,268.321,160.305,268.321,160.433 M267.914,160.327v0.234h0.106c0.116,0,0.168-0.031,0.168-0.112
			c0-0.09-0.052-0.122-0.172-0.122H267.914z"/>
	</g>
</g>
  <g id="CUSTOM"></g>
</svg>
