<?xml version="1.0" encoding="utf-8"?>
<!-- Generator: Adobe Illustrator 16.0.0, SVG Export Plug-In . SVG Version: 6.00 Build 0)  -->
<!DOCTYPE svg PUBLIC "-//W3C//DTD SVG 1.1//EN" "http://www.w3.org/Graphics/SVG/1.1/DTD/svg11.dtd">
<svg version="1.1" id="Layer_1" xmlns="http://www.w3.org/2000/svg" xmlns:xlink="http://www.w3.org/1999/xlink" x="0px" y="0px"
	 width="612px" height="792px" viewBox="0 0 530 792" enable-background="new 0 0 612 792" xml:space="preserve">
<rect x="235.677" y="69.237" fill="none" width="137.986" height="24.583"/>
<rect x="233.835" y="70.94" fill="none" width="141.974" height="25.672"/>
<path fill="none" d="M213.218,288.103v-0.518l-1.465-0.718c-3.127-1-5.613-2.104-7.42-3.03c-0.852-0.437-1.653-0.889-2.423-1.349
	c2.202,1.418,4.685,2.824,7.478,4.138C210.561,287.178,211.85,287.666,213.218,288.103z"/>
<linearGradient id="SVGID_1_" gradientUnits="userSpaceOnUse" x1="212.5806" y1="384.2554" x2="204.7697" y2="384.5555">
	<stop  offset="0" style="stop-color:#FFFFFF"/>
	<stop  offset="0.2087" style="stop-color:#FCFBFB"/>
	<stop  offset="0.4159" style="stop-color:#F1F0EF"/>
	<stop  offset="0.6226" style="stop-color:#E0DDDB"/>
	<stop  offset="0.8276" style="stop-color:#C8C4BF"/>
	<stop  offset="1" style="stop-color:#AEA8A2"/>
</linearGradient>
<path opacity="0.15" fill="url(#SVGID_1_)" d="M212.138,358.746c0.004,2.476-0.063,4.935-0.211,7.366
	c-1.158,19.012-2.993,33.178-4.956,43.884c0.213-0.851,0.426-1.702,0.639-2.554C211.771,390.799,212.705,373.84,212.138,358.746z"/>
<g id="BODY">
	<defs>
		<rect id="SVGID_2_" x="55.5" y="73.251" width="498.988" height="645.749"/>
	</defs>
	<clipPath id="SVGID_3_">
		<use xlink:href="#SVGID_2_"  overflow="visible"/>
	</clipPath>
	<g id="BODY1" clip-path="url(#SVGID_3_)">
		<defs>
			<rect id="SVGID_4_" x="55.5" y="73.251" width="498.988" height="645.749"/>
		</defs>
		<clipPath id="SVGID_5_">
			<use xlink:href="#SVGID_4_"  overflow="visible"/>
		</clipPath>
		<path clip-path="url(#SVGID_5_)" d="M463.141,169.914c-7.69-2.697-41.716-16.062-52.49-23.034
			c-11.747-7.601-26.947-19.347-31.094-22.802c-3.575-2.979-7.148-9.032-10.281-11.53c-14.671-1.862-44.066-5.322-61.72-5.583
			c-18.845-0.276-52.988,4.373-67.252,6.456c-2.888,2.835-6.097,7.981-9.305,10.657c-4.146,3.455-19.347,15.201-31.094,22.802
			c-11.746,7.601-51.131,22.802-53.896,23.492c-0.341,0.086-1.033,0.491-2.003,1.171c1.043,20.931,10.584,57.797,13.75,75.526
			c3.455,19.347,10.365,33.857,10.365,42.149v12.537c1.484,3.314,3.696,9.008,4.146,14.411c0.691,8.292,2.072,38.693,7.601,49.75
			c5.528,11.056,15.891,76.697,17.273,82.916c1.383,6.22-3.454,29.713-3.454,35.239c0,5.528-13.129,46.296-13.819,57.35
			c-0.69,11.057-3.455,26.258-3.455,37.313s-4.837,27.638-4.837,27.638s4.146,8.292,9.674,18.657
			c5.527,10.364,15.202,26.946,18.656,35.93c3.455,8.982,17.275,29.71,45.604,39.385c3.649,1.246,8.128,2.238,13.155,3.024
			l-0.027,1.121c0,0,14.115,0.999,32.516,1.404c4.727,0.123,9.477,0.172,14.124,0.169c4.648,0.003,9.396-0.046,14.124-0.169
			c18.402-0.405,32.517-1.404,32.517-1.404l-0.027-1.121c5.027-0.786,9.507-1.778,13.156-3.024
			c28.329-9.675,42.147-30.402,45.604-39.385c3.454-8.983,13.127-25.565,18.655-35.93c5.527-10.365,9.673-18.657,9.673-18.657
			s-4.836-16.582-4.836-27.638s-2.764-26.257-3.454-37.313c-0.691-11.054-13.82-51.821-13.82-57.35
			c0-5.526-4.838-29.02-3.455-35.239c1.383-6.219,11.747-71.86,17.275-82.916c5.526-11.056,6.91-41.458,7.6-49.75
			c0.479-5.742,2.943-11.81,4.415-15.002c0.803-5.248,1.699-11.217,2.496-16.782c2.071-14.51,10.363-73.933,15.2-88.444
			C463.289,187.271,463.466,176.878,463.141,169.914"/>
    		<path clip-path="url(#SVGID_11_)" d="M157.756,247.07c-3.166-17.729-12.708-54.595-13.75-75.526
			c-6.882,4.829-27.863,23.674-38.764,43.051c-12.437,22.111-9.673,81.535-9.673,84.299c0,2.763-0.69,11.746-0.69,11.746
			l-2.073,4.146c0,0,23.493,6.219,43.531,6.219c20.038,0,31.094-3.456,31.094-3.456l-0.692-18.655c0,0,0.588,1.091,1.383,2.864
			v-12.538C168.121,280.927,161.21,266.417,157.756,247.07"/>

	</g>
	<g id="LEFT_STRIP1" clip-path="url(#SVGID_3_)">
		<defs>
			<rect id="SVGID_6_" x="55.5" y="73.251" width="498.988" height="645.749"/>
		</defs>
		<clipPath id="SVGID_7_">
			<use xlink:href="#SVGID_6_"  overflow="visible"/>
		</clipPath>
		<path clip-path="url(#SVGID_7_)" fill="#897F76" d="M447.299,269.705c0.003-0.022,0.006-0.042,0.01-0.064
			c3.375-23.297,9.297-62.318,13.091-73.702c2.89-8.667,3.066-19.06,2.741-26.024c-5.433-1.905-23.998-9.131-38.234-15.669
			c-0.056-0.025-0.111-0.05-0.166-0.076c-0.375-0.173-0.748-0.345-1.117-0.517c-0.118-0.055-0.236-0.11-0.353-0.165
			c-0.588-0.273-1.165-0.546-1.733-0.816c-0.185-0.087-0.37-0.177-0.553-0.263c-0.283-0.136-0.563-0.271-0.84-0.405
			c-0.255-0.124-0.504-0.246-0.754-0.368c-0.331-0.162-0.658-0.324-0.98-0.483c-0.299-0.15-0.598-0.299-0.891-0.447
			c-0.194-0.097-0.385-0.193-0.573-0.291c-0.353-0.18-0.698-0.359-1.036-0.536c-0.134-0.069-0.268-0.138-0.397-0.208
			c-0.363-0.192-0.716-0.38-1.058-0.567c-0.129-0.069-0.254-0.137-0.378-0.206c-0.374-0.205-0.74-0.408-1.088-0.606
			c-0.034-0.02-0.069-0.039-0.103-0.058c-0.356-0.204-0.694-0.403-1.021-0.599c-0.085-0.052-0.174-0.104-0.259-0.156
			c-0.335-0.205-0.656-0.403-0.956-0.598c-11.747-7.601-26.947-19.347-31.094-22.802c-3.575-2.979-7.148-9.032-10.281-11.53
			c-14.671-1.862-44.066-5.322-61.72-5.582c-18.845-0.278-52.987,4.372-67.252,6.455c-2.888,2.836-6.097,7.982-9.306,10.657
			c-4.145,3.455-19.346,15.201-31.092,22.802c-0.291,0.188-0.604,0.382-0.929,0.58c-0.048,0.029-0.095,0.058-0.144,0.088
			c-0.314,0.19-0.644,0.383-0.987,0.582c-0.062,0.035-0.125,0.071-0.188,0.107c-0.351,0.201-0.713,0.404-1.09,0.611
			c-0.047,0.026-0.093,0.051-0.14,0.078c-0.393,0.214-0.796,0.432-1.215,0.653c-0.011,0.006-0.021,0.012-0.031,0.017
			c-0.426,0.226-0.87,0.455-1.321,0.688c-0.056,0.029-0.111,0.058-0.167,0.086c-0.446,0.228-0.902,0.459-1.369,0.691
			c-0.056,0.028-0.11,0.055-0.164,0.082c-0.482,0.241-0.974,0.482-1.479,0.728c-0.016,0.007-0.03,0.015-0.047,0.022
			c-0.529,0.258-1.069,0.517-1.619,0.779c98.138-1.022,210.357,82.47,181.87,179.179c-16.735,56.818-80.582,105.775-105.668,190.935
			c-21.249,72.14-8.555,129.07,8.886,182.545c0.55,0.023,1.116,0.048,1.689,0.071c0.156,0.007,0.314,0.014,0.471,0.02
			c0.451,0.019,0.908,0.036,1.371,0.056c0.152,0.006,0.301,0.012,0.453,0.017c0.596,0.024,1.199,0.047,1.813,0.068
			c0.127,0.006,0.257,0.01,0.384,0.014c0.493,0.019,0.991,0.036,1.496,0.054c0.205,0.006,0.411,0.014,0.618,0.02
			c0.521,0.019,1.047,0.036,1.577,0.052c0.126,0.005,0.251,0.008,0.377,0.013c0.654,0.02,1.317,0.039,1.986,0.058
			c0.172,0.006,0.345,0.011,0.517,0.015c0.528,0.015,1.061,0.029,1.599,0.043c0.195,0.005,0.391,0.01,0.587,0.015
			c0.697,0.018,1.397,0.034,2.108,0.051c4.728,0.122,9.477,0.171,14.124,0.168c4.648,0.003,9.396-0.046,14.124-0.168
			c18.402-0.406,32.517-1.405,32.517-1.405l-0.027-1.121c5.027-0.786,9.507-1.778,13.156-3.024
			c28.329-9.675,42.147-30.402,45.604-39.385c3.454-8.983,13.127-25.565,18.655-35.93c5.527-10.365,9.673-18.657,9.673-18.657
			s-4.836-16.582-4.836-27.638s-2.764-26.258-3.454-37.313c-0.691-11.054-13.82-51.821-13.82-57.35
			c0-5.526-4.838-29.02-3.455-35.239c1.383-6.219,11.747-71.86,17.275-82.916c5.526-11.056,6.91-41.458,7.6-49.75
			c0.479-5.742,2.943-11.81,4.415-15.003c0.803-5.247,1.699-11.216,2.496-16.781c0.131-0.928,0.29-2.042,0.471-3.314
			c0.015-0.103,0.028-0.206,0.045-0.312C446.136,277.8,446.673,274.026,447.299,269.705"/>
    		<path clip-path="url(#SVGID_13_)" fill="#897F76" d="M515.678,310.639c0,0-0.693-8.984-0.693-11.747
			c0-2.763,2.766-62.187-9.673-84.297c-12.437-22.111-38.003-43.531-40.766-44.223c-0.229-0.057-0.714-0.215-1.406-0.458
			c0.326,6.964,0.149,17.357-2.74,26.024c-4.838,14.511-13.129,73.934-15.2,88.444c-0.797,5.565-1.693,11.534-2.496,16.781
			c0.654-1.417,1.113-2.271,1.113-2.271l-0.691,18.656c0,0,11.055,3.455,31.094,3.455c20.037,0,43.531-6.218,43.531-6.218
			L515.678,310.639z"/>

	</g>
	<g id="INNER_STRIP" clip-path="url(#SVGID_3_)">
		<defs>
			<rect id="SVGID_8_" x="55.5" y="73.251" width="498.988" height="645.749"/>
		</defs>
		<clipPath id="SVGID_9_">
			<use xlink:href="#SVGID_8_"  overflow="visible"/>
		</clipPath>
		<path clip-path="url(#SVGID_9_)" fill="#D84723" d="M144.469,177.411c-0.023-0.232-0.045-0.46-0.067-0.689
			C144.424,176.951,144.446,177.179,144.469,177.411"/>
		<path clip-path="url(#SVGID_9_)" fill="#D84723" d="M151.406,168.448c0.184-0.07,0.372-0.141,0.563-0.213
			C151.778,168.308,151.59,168.378,151.406,168.448"/>
		<path clip-path="url(#SVGID_9_)" fill="#D84723" d="M149.491,169.163c0.133-0.048,0.267-0.098,0.406-0.15
			C149.758,169.064,149.624,169.114,149.491,169.163"/>
		<path clip-path="url(#SVGID_9_)" fill="#D84723" d="M144.223,174.735c-0.021-0.245-0.042-0.49-0.059-0.731
			C144.182,174.245,144.203,174.491,144.223,174.735"/>
		<path clip-path="url(#SVGID_9_)" fill="#D84723" d="M150.708,168.709c0.171-0.064,0.346-0.129,0.524-0.197
			C151.055,168.581,150.88,168.646,150.708,168.709"/>
		<path clip-path="url(#SVGID_9_)" fill="#D84723" d="M148.907,169.378c0.129-0.048,0.258-0.095,0.394-0.145
			C149.165,169.283,149.035,169.332,148.907,169.378"/>
		<path clip-path="url(#SVGID_9_)" fill="#D84723" d="M150.08,168.945c0.157-0.058,0.318-0.118,0.482-0.18
			C150.397,168.827,150.237,168.887,150.08,168.945"/>
		<path clip-path="url(#SVGID_9_)" fill="#D84723" d="M147.096,170.025c0.082-0.027,0.162-0.055,0.249-0.086
			C147.258,169.97,147.178,169.998,147.096,170.025"/>
		<path clip-path="url(#SVGID_9_)" fill="#D84723" d="M147.478,169.892c0.095-0.033,0.189-0.066,0.292-0.103
			C147.667,169.826,147.573,169.859,147.478,169.892"/>
		<path clip-path="url(#SVGID_9_)" fill="#D84723" d="M146.473,170.234c0.058-0.018,0.114-0.036,0.178-0.059
			C146.587,170.198,146.531,170.216,146.473,170.234"/>
		<path clip-path="url(#SVGID_9_)" fill="#D84723" d="M148.418,169.557c0.105-0.039,0.215-0.077,0.326-0.119
			C148.632,169.479,148.524,169.518,148.418,169.557"/>
		<path clip-path="url(#SVGID_9_)" fill="#D84723" d="M146.009,170.373c0.045-0.011,0.098-0.026,0.161-0.044
			C146.107,170.347,146.054,170.363,146.009,170.373"/>
		<path clip-path="url(#SVGID_9_)" fill="#D84723" d="M146.24,170.307c0.046-0.014,0.092-0.028,0.146-0.045
			C146.331,170.279,146.287,170.293,146.24,170.307"/>
		<path clip-path="url(#SVGID_9_)" fill="#D84723" d="M147.909,169.739c0.102-0.036,0.204-0.072,0.311-0.112
			C148.113,169.667,148.01,169.704,147.909,169.739"/>
		<path clip-path="url(#SVGID_9_)" fill="#D84723" d="M146.778,170.134c0.064-0.021,0.126-0.042,0.196-0.066
			C146.903,170.092,146.842,170.113,146.778,170.134"/>
		<path clip-path="url(#SVGID_9_)" fill="#D84723" d="M154.475,167.274c0.25-0.097,0.505-0.195,0.762-0.294
			C154.979,167.08,154.725,167.179,154.475,167.274"/>
		<path clip-path="url(#SVGID_9_)" fill="#D84723" d="M156.209,166.602c0.291-0.113,0.586-0.229,0.884-0.346
			C156.795,166.374,156.5,166.489,156.209,166.602"/>
		<path clip-path="url(#SVGID_9_)" fill="#D84723" d="M145.243,183.709c-0.031-0.219-0.062-0.439-0.091-0.658
			C145.181,183.27,145.212,183.489,145.243,183.709"/>
		<path clip-path="url(#SVGID_9_)" fill="#D84723" d="M155.337,166.941c0.273-0.105,0.549-0.213,0.83-0.323
			C155.887,166.728,155.61,166.835,155.337,166.941"/>
		<path clip-path="url(#SVGID_9_)" fill="#D84723" d="M146.804,193.537c-0.022-0.125-0.044-0.25-0.066-0.375
			C146.76,193.287,146.782,193.412,146.804,193.537"/>
		<path clip-path="url(#SVGID_9_)" fill="#D84723" d="M145.682,186.717c-0.022-0.149-0.044-0.295-0.067-0.444
			C145.637,186.421,145.659,186.568,145.682,186.717"/>
		<path clip-path="url(#SVGID_9_)" fill="#D84723" d="M170.925,160.661c-4.944,2.065-9.744,3.994-13.797,5.582
			C161.181,164.655,165.98,162.726,170.925,160.661"/>
		<path clip-path="url(#SVGID_9_)" fill="#D84723" d="M144.785,180.23c-0.002-0.021-0.005-0.043-0.008-0.066
			C144.78,180.187,144.783,180.208,144.785,180.23"/>
		<path clip-path="url(#SVGID_9_)" fill="#D84723" d="M153.646,167.594c0.241-0.093,0.488-0.187,0.738-0.284
			C154.134,167.407,153.887,167.501,153.646,167.594"/>
		<path clip-path="url(#SVGID_9_)" fill="#D84723" d="M152.113,168.18c0.203-0.078,0.412-0.156,0.624-0.238
			C152.525,168.024,152.316,168.102,152.113,168.18"/>
		<path clip-path="url(#SVGID_9_)" fill="#D84723" d="M152.864,167.894c0.225-0.085,0.453-0.173,0.685-0.263
			C153.317,167.721,153.089,167.809,152.864,167.894"/>
		<path clip-path="url(#SVGID_9_)" fill="#D84723" d="M160.813,198.119c17.375,1.666,34.288,6.329,51.214,12.915
			c8.452,3.226,16.805,7.134,25.089,11.272c4.11,2.148,8.275,4.238,12.272,6.657c2.041,1.135,4.063,2.313,6.084,3.493l5.967,3.714
			c15.939,9.923,31.212,21.199,44.814,34.286c6.744,6.588,12.992,13.709,18.048,21.61c5.072,7.869,9.154,16.467,11.318,25.733
			c1.166,4.629,1.804,9.4,2.096,14.303c0.181,4.883-0.137,9.871-0.915,14.884c-0.865,4.994-2.214,9.99-3.752,15.067
			c-0.876,2.515-1.738,5.075-2.811,7.607c-0.94,2.589-2.064,5.168-3.202,7.763c-2.317,5.174-4.947,10.396-7.781,15.575
			c-2.811,5.203-5.904,10.341-9.225,15.313c-6.078,9.344-13.089,17.979-20.525,26.139c-0.572,0.628,15.599-14.412,23.788-23.041
			c8.169-8.64,16.129-17.528,23.137-27.181c3.486-4.835,6.742-9.842,9.633-15.065c2.844-5.254,5.245-10.735,7.268-16.353
			c3.908-11.285,8.388-26.778,8.262-38.719c-0.175-23.972-5.117-45.706-17.965-65.643c-12.899-20.026-29.847-35.785-49.06-49.749
			c-19.224-13.968-46.867-24.281-69.643-31.088c-17.437-5.213-35.8-7.874-54-6.953c-4.945,2.064-9.743,3.994-13.797,5.582
			c-0.012,0.004-0.021,0.009-0.033,0.012c-0.299,0.118-0.593,0.233-0.885,0.347c-0.014,0.005-0.027,0.01-0.042,0.016
			c-0.28,0.11-0.557,0.217-0.83,0.323c-0.033,0.013-0.067,0.025-0.1,0.04c-0.258,0.099-0.512,0.198-0.763,0.293
			c-0.031,0.013-0.061,0.023-0.09,0.036c-0.25,0.097-0.498,0.191-0.739,0.284c-0.033,0.012-0.065,0.024-0.097,0.037
			c-0.233,0.09-0.46,0.177-0.686,0.263c-0.041,0.016-0.084,0.033-0.125,0.048c-0.213,0.081-0.421,0.16-0.625,0.237
			c-0.048,0.018-0.096,0.037-0.145,0.055c-0.191,0.072-0.379,0.143-0.563,0.213c-0.058,0.022-0.116,0.044-0.173,0.065
			c-0.178,0.068-0.353,0.134-0.524,0.197c-0.049,0.02-0.098,0.038-0.146,0.056c-0.164,0.061-0.326,0.12-0.483,0.179
			c-0.061,0.023-0.122,0.045-0.183,0.069c-0.139,0.051-0.272,0.101-0.404,0.149c-0.063,0.024-0.128,0.048-0.191,0.071
			c-0.135,0.05-0.265,0.098-0.395,0.144c-0.054,0.02-0.109,0.041-0.162,0.06c-0.111,0.042-0.221,0.081-0.326,0.119
			c-0.066,0.024-0.132,0.047-0.197,0.072c-0.108,0.038-0.211,0.075-0.312,0.11c-0.046,0.018-0.095,0.034-0.14,0.05
			c-0.102,0.036-0.196,0.07-0.292,0.103c-0.043,0.016-0.089,0.033-0.133,0.047c-0.087,0.031-0.167,0.059-0.249,0.086
			c-0.041,0.015-0.083,0.029-0.123,0.042c-0.07,0.023-0.132,0.045-0.195,0.066c-0.042,0.015-0.088,0.03-0.127,0.042
			c-0.064,0.022-0.12,0.04-0.178,0.058c-0.029,0.011-0.061,0.021-0.087,0.029c-0.054,0.017-0.1,0.031-0.146,0.045
			c-0.022,0.007-0.05,0.016-0.071,0.022c-0.063,0.018-0.116,0.033-0.161,0.044c-0.341,0.086-1.033,0.49-2.003,1.17
			c0.04,0.796,0.095,1.622,0.159,2.46c0.017,0.242,0.038,0.487,0.059,0.731c0.054,0.651,0.113,1.313,0.179,1.986
			c0.022,0.229,0.043,0.458,0.067,0.69c0.094,0.901,0.195,1.817,0.308,2.753c0.003,0.022,0.006,0.044,0.008,0.066
			c0.112,0.923,0.235,1.867,0.366,2.822c0.031,0.219,0.062,0.439,0.092,0.658c0.118,0.844,0.242,1.697,0.371,2.563
			c0.023,0.148,0.045,0.295,0.067,0.444c0.321,2.099,0.675,4.254,1.056,6.445c0.023,0.125,0.045,0.249,0.066,0.375
			c0.189,1.081,0.384,2.169,0.585,3.266C151.393,197.045,155.59,197.568,160.813,198.119"/>
		<path clip-path="url(#SVGID_9_)" fill="#A29D9B" d="M196.569,148.849c0.377-0.207,0.739-0.411,1.089-0.611
			C197.308,148.438,196.946,148.642,196.569,148.849"/>
		<path clip-path="url(#SVGID_9_)" fill="#A29D9B" d="M195.214,149.58c0.418-0.221,0.821-0.439,1.215-0.655
			C196.035,149.141,195.632,149.359,195.214,149.58"/>
		<path clip-path="url(#SVGID_9_)" fill="#A29D9B" d="M193.862,150.284c0.452-0.233,0.894-0.461,1.321-0.688
			C194.756,149.823,194.314,150.051,193.862,150.284"/>
		<path clip-path="url(#SVGID_9_)" fill="#A29D9B" d="M190.684,151.871c0.504-0.245,0.996-0.487,1.479-0.728
			C191.68,151.384,191.188,151.625,190.684,151.871"/>
		<path clip-path="url(#SVGID_9_)" fill="#A29D9B" d="M414.077,148.897c0.124,0.068,0.249,0.137,0.378,0.206
			C414.326,149.034,414.201,148.966,414.077,148.897"/>
		<path clip-path="url(#SVGID_9_)" fill="#A29D9B" d="M411.606,147.478c0.085,0.052,0.174,0.103,0.259,0.155
			C411.779,147.581,411.691,147.53,411.606,147.478"/>
		<path clip-path="url(#SVGID_9_)" fill="#A29D9B" d="M412.887,148.233c0.033,0.019,0.068,0.038,0.103,0.058
			C412.955,148.271,412.92,148.251,412.887,148.233"/>
		<path clip-path="url(#SVGID_9_)" fill="#A29D9B" d="M198.977,147.46c0.324-0.197,0.638-0.392,0.928-0.58
			C199.615,147.068,199.301,147.263,198.977,147.46"/>
		<path clip-path="url(#SVGID_9_)" fill="#A29D9B" d="M197.846,148.13c0.342-0.197,0.673-0.391,0.986-0.581
			C198.519,147.739,198.188,147.933,197.846,148.13"/>
		<path clip-path="url(#SVGID_9_)" fill="#A29D9B" d="M192.325,151.062c0.468-0.233,0.923-0.463,1.37-0.691
			C193.249,150.598,192.793,150.828,192.325,151.062"/>
		<path clip-path="url(#SVGID_9_)" fill="#A29D9B" d="M289.045,705.844c-0.196-0.005-0.392-0.01-0.587-0.015
			C288.655,705.834,288.85,705.839,289.045,705.844"/>
		<path clip-path="url(#SVGID_9_)" fill="#A29D9B" d="M189.019,152.672c0.549-0.262,1.089-0.521,1.619-0.779
			C190.108,152.151,189.568,152.41,189.019,152.672"/>
		<path clip-path="url(#SVGID_9_)" fill="#A29D9B" d="M445.67,281.067c-0.181,1.273-0.34,2.387-0.471,3.315
			C445.33,283.455,445.489,282.34,445.67,281.067"/>
		<path clip-path="url(#SVGID_9_)" fill="#A29D9B" d="M284.356,705.714c-0.125-0.005-0.251-0.008-0.377-0.013
			C284.105,705.706,284.229,705.709,284.356,705.714"/>
		<path clip-path="url(#SVGID_9_)" fill="#A29D9B" d="M286.859,705.786c-0.172-0.004-0.345-0.009-0.516-0.015
			C286.514,705.777,286.688,705.782,286.859,705.786"/>
		<path clip-path="url(#SVGID_9_)" fill="#A29D9B" d="M282.403,705.649c-0.207-0.006-0.414-0.014-0.619-0.02
			C281.99,705.636,282.195,705.644,282.403,705.649"/>
		<path clip-path="url(#SVGID_9_)" fill="#A29D9B" d="M278.09,705.494c-0.152-0.005-0.302-0.011-0.453-0.017
			C277.788,705.483,277.938,705.489,278.09,705.494"/>
		<path clip-path="url(#SVGID_9_)" fill="#A29D9B" d="M276.267,705.422c-0.157-0.007-0.316-0.013-0.471-0.02
			C275.951,705.409,276.109,705.415,276.267,705.422"/>
		<path clip-path="url(#SVGID_9_)" fill="#A29D9B" d="M280.288,705.576c-0.127-0.004-0.258-0.008-0.385-0.014
			C280.03,705.568,280.16,705.572,280.288,705.576"/>
		<path clip-path="url(#SVGID_9_)" fill="#A29D9B" d="M416.946,150.414c0.188,0.097,0.379,0.194,0.573,0.291
			C417.325,150.607,417.135,150.511,416.946,150.414"/>
		<path clip-path="url(#SVGID_9_)" fill="#A29D9B" d="M447.299,269.705c-0.626,4.321-1.163,8.095-1.584,11.051
			C446.136,277.8,446.673,274.024,447.299,269.705"/>
		<path clip-path="url(#SVGID_9_)" fill="#A29D9B" d="M420.145,152.002c0.277,0.134,0.557,0.269,0.84,0.405
			C420.701,152.271,420.422,152.137,420.145,152.002"/>
		<path clip-path="url(#SVGID_9_)" fill="#A29D9B" d="M418.41,151.15c0.322,0.16,0.649,0.322,0.98,0.485
			C419.06,151.472,418.732,151.311,418.41,151.15"/>
		<path clip-path="url(#SVGID_9_)" fill="#A29D9B" d="M415.513,149.669c0.13,0.069,0.264,0.139,0.397,0.208
			C415.776,149.808,415.643,149.738,415.513,149.669"/>
		<path clip-path="url(#SVGID_9_)" fill="#A29D9B" d="M423.623,153.652c0.369,0.172,0.742,0.344,1.117,0.517
			C424.365,153.996,423.992,153.824,423.623,153.652"/>
		<path clip-path="url(#SVGID_9_)" fill="#A29D9B" d="M421.537,152.671c0.568,0.27,1.146,0.543,1.733,0.815
			C422.682,153.214,422.105,152.941,421.537,152.671"/>
	</g>
	<g clip-path="url(#SVGID_3_)">
		<defs>
			<rect id="SVGID_10_" x="55.5" y="73.251" width="498.988" height="645.749"/>
		</defs>
		<clipPath id="SVGID_11_">
			<use xlink:href="#SVGID_10_"  overflow="visible"/>
		</clipPath>
		<!--<path clip-path="url(#SVGID_11_)" d="M157.756,247.07c-3.166-17.729-12.708-54.595-13.75-75.526
			c-6.882,4.829-27.863,23.674-38.764,43.051c-12.437,22.111-9.673,81.535-9.673,84.299c0,2.763-0.69,11.746-0.69,11.746
			l-2.073,4.146c0,0,23.493,6.219,43.531,6.219c20.038,0,31.094-3.456,31.094-3.456l-0.692-18.655c0,0,0.588,1.091,1.383,2.864
			v-12.538C168.121,280.927,161.21,266.417,157.756,247.07"/>-->
	</g>
	<g clip-path="url(#SVGID_3_)">
		<defs>
			<rect id="SVGID_12_" x="55.5" y="73.251" width="498.988" height="645.749"/>
		</defs>
		<clipPath id="SVGID_13_">
			<use xlink:href="#SVGID_12_"  overflow="visible"/>
		</clipPath>
		<!--<path clip-path="url(#SVGID_13_)" fill="#897F76" d="M515.678,310.639c0,0-0.693-8.984-0.693-11.747
			c0-2.763,2.766-62.187-9.673-84.297c-12.437-22.111-38.003-43.531-40.766-44.223c-0.229-0.057-0.714-0.215-1.406-0.458
			c0.326,6.964,0.149,17.357-2.74,26.024c-4.838,14.511-13.129,73.934-15.2,88.444c-0.797,5.565-1.693,11.534-2.496,16.781
			c0.654-1.417,1.113-2.271,1.113-2.271l-0.691,18.656c0,0,11.055,3.455,31.094,3.455c20.037,0,43.531-6.218,43.531-6.218
			L515.678,310.639z"/>-->
	</g>
	<g id="COLLAR" clip-path="url(#SVGID_3_)">
		<defs>
			<rect id="SVGID_14_" x="55.5" y="73.251" width="498.988" height="645.749"/>
		</defs>
		<clipPath id="SVGID_15_">
			<use xlink:href="#SVGID_14_"  overflow="visible"/>
		</clipPath>
		<path clip-path="url(#SVGID_15_)" fill="#897F76" d="M307.556,106.967c17.653,0.26,47.049,3.719,61.72,5.581
			c-0.5-0.4-0.99-0.716-1.465-0.907c-3.455-1.382-8.293-4.146-8.293-4.146l-4.838-8.982c0,0-20.037-7.6-36.619-7.6h-25.566
			c-16.583,0-36.621,7.6-36.621,7.6l-4.836,8.982c0,0-4.837,2.764-8.292,4.146c-0.781,0.313-1.598,0.954-2.442,1.781
			C254.567,111.339,288.711,106.689,307.556,106.967"/>
	</g>
	<g clip-path="url(#SVGID_3_)">
		<defs>
			<rect id="SVGID_16_" x="55.5" y="73.251" width="498.988" height="645.749"/>
		</defs>
		<clipPath id="SVGID_17_">
			<use xlink:href="#SVGID_16_"  overflow="visible"/>
		</clipPath>
		<g opacity="0.35" clip-path="url(#SVGID_17_)">
			<g>
				<defs>
					<rect id="SVGID_18_" x="94.786" y="102.462" width="420.986" height="599.316"/>
				</defs>
				<clipPath id="SVGID_19_">
					<use xlink:href="#SVGID_18_"  overflow="visible"/>
				</clipPath>
				<path clip-path="url(#SVGID_19_)" fill="none" stroke="#000000" stroke-miterlimit="10" stroke-dasharray="0.859,0.5" d="
					M172.958,603.609c0,0,35.93,68.405,67.024,81.533c31.093,13.128,89.134,12.438,112.628,6.219
					c23.492-6.219,46.294-24.875,53.896-35.93c7.6-11.057,32.474-52.515,32.474-52.515"/>
				<path clip-path="url(#SVGID_19_)" fill="none" stroke="#000000" stroke-miterlimit="10" stroke-dasharray="0.859,0.5" d="
					M172.958,609.321c0,0,35.93,68.404,67.024,81.534c31.093,13.127,89.134,12.437,112.628,6.219
					c23.492-6.219,46.294-24.876,53.896-35.933c7.6-11.055,32.474-52.513,32.474-52.513"/>
				<path clip-path="url(#SVGID_19_)" fill="none" stroke="#000000" stroke-miterlimit="10" stroke-dasharray="0.859,0.5" d="
					M94.861,307.244c0,0,18.787,3.522,38.161,3.522s34.247-1.565,34.247-1.565"/>
				<path clip-path="url(#SVGID_19_)" fill="none" stroke="#000000" stroke-miterlimit="10" stroke-dasharray="0.859,0.5" d="
					M94.861,303.98c0,0,18.787,3.522,38.161,3.522s34.247-1.564,34.247-1.564"/>
				<path clip-path="url(#SVGID_19_)" fill="none" stroke="#000000" stroke-miterlimit="10" stroke-dasharray="0.859,0.5" d="
					M515.696,307.244c0,0-18.786,3.522-38.16,3.522c-19.372,0-34.247-1.565-34.247-1.565"/>
				<path clip-path="url(#SVGID_19_)" fill="none" stroke="#000000" stroke-miterlimit="10" stroke-dasharray="0.859,0.5" d="
					M515.696,303.98c0,0-18.786,3.522-38.16,3.522c-19.372,0-34.247-1.564-34.247-1.564"/>
				<path clip-path="url(#SVGID_19_)" fill="none" stroke="#000000" stroke-miterlimit="10" stroke-dasharray="0.859,0.5" d="
					M250.883,107.876c0,0,32.435-5.347,56.673-4.99c24.236,0.357,52.039,4.634,52.039,4.634"/>
				<path clip-path="url(#SVGID_19_)" fill="none" stroke="#000000" stroke-miterlimit="10" stroke-dasharray="0.859,0.5" d="
					M239.584,113.913c0,0,43.733-7.303,67.971-6.946c24.236,0.355,62.216,5.61,62.216,5.61"/>
				<path clip-path="url(#SVGID_19_)" fill="none" stroke="#000000" stroke-miterlimit="10" stroke-dasharray="0.859,0.5" d="
					M167.942,301.574c0,0,0.179-4.063,0.179-12.354c0-8.292-6.91-22.803-10.365-42.15c-3.455-19.347-14.296-55.801-13.605-75.148"/>
				<path clip-path="url(#SVGID_19_)" fill="none" stroke="#000000" stroke-miterlimit="10" stroke-dasharray="0.859,0.5" d="
					M463.141,169.914c0,0,2.096,11.515-2.741,26.024c-4.837,14.511-13.129,73.934-15.2,88.444
					c-2.074,14.51-2.059,15.323-2.059,15.323"/>
			</g>
		</g>
	</g>
	<g clip-path="url(#SVGID_3_)">
		<defs>
			<rect id="SVGID_20_" x="55.5" y="73.251" width="498.988" height="645.749"/>
		</defs>
		<clipPath id="SVGID_21_">
			<use xlink:href="#SVGID_20_"  overflow="visible"/>
		</clipPath>
		<g opacity="0.12" clip-path="url(#SVGID_21_)">
			<g>
				<defs>
					<rect id="SVGID_22_" x="97.823" y="205.26" width="399.595" height="303.478"/>
				</defs>
				<clipPath id="SVGID_23_">
					<use xlink:href="#SVGID_22_"  overflow="visible"/>
				</clipPath>
				<path clip-path="url(#SVGID_23_)" fill="#897F76" d="M164.631,288.394c0,0-12.558-2.26-21.601-5.274
					c-9.042-3.014-17.329-5.275-24.362-11.553c-7.032-6.279-20.845-22.855-20.845-22.855s24.362,21.098,26.372,23.106
					C126.204,273.828,164.631,288.394,164.631,288.394"/>
				<path clip-path="url(#SVGID_23_)" fill="#897F76" d="M154.083,278.598l-15.321-7.283l-2.512-5.526
					c0,0,17.833,12.809,15.823,9.294c-2.008-3.517-26.875-31.898-31.396-37.675c-4.521-5.777-15.32-18.084-15.32-18.084
					s13.311,8.79,14.819,11.805c1.507,3.015,25.366,32.148,28.129,35.664s10.046,9.545,9.544,10.801
					C157.348,278.85,154.083,278.598,154.083,278.598"/>
				<path clip-path="url(#SVGID_23_)" fill="#897F76" d="M136.501,275.083c0,0-17.079-17.832-19.841-21.097
					c-2.764-3.266-14.317-12.308-14.317-12.308l21.6,23.608L136.501,275.083z"/>
				<path clip-path="url(#SVGID_23_)" fill="#897F76" d="M156.845,264.032c0,0-5.023-13.062-7.534-18.838
					c-2.513-5.775-6.782-27.878-11.051-27.375c-4.271,0.502-1.508,9.293,1.506,15.572c3.015,6.28,6.279,11.302,6.279,11.302
					s-7.283-2.511-11.553-9.292c-4.269-6.781-14.315-29.637-17.079-28.883c-2.763,0.752,1.758,13.061,6.279,20.343
					c4.521,7.285,15.572,17.833,21.349,23.609C150.817,256.247,156.845,264.032,156.845,264.032"/>
				<path clip-path="url(#SVGID_23_)" fill="#897F76" d="M445.68,268.804c0,0,11.805-22.102,19.087-34.409
					c7.285-12.306,20.597-29.134,20.597-29.134s-22.103,38.93-23.359,40.437C460.749,247.204,445.68,268.804,445.68,268.804"/>
				<path clip-path="url(#SVGID_23_)" fill="#897F76" d="M456.982,254.739c0,0,9.04-13.312,19.087-21.349
					c10.046-8.037,21.349-12.307,21.349-12.307s-15.069,8.038-22.855,18.083c-7.786,10.047-21.097,25.117-23.107,30.893
					c-2.008,5.777-1.507,12.307-1.507,12.307s6.029-1.506,3.518,0.754c-2.513,2.26,2.01,8.037-1.508,9.292
					c-3.516,1.255-5.524,1.758-5.524,3.265c0,1.508-5.023-1.004-5.023-1.004s2.763-20.094,3.766-22.354
					C446.183,270.06,456.982,254.739,456.982,254.739"/>
				<path clip-path="url(#SVGID_23_)" fill="#897F76" d="M453.967,274.329c0,0-0.251-8.79,6.279-11.553
					c6.53-2.763,13.563-3.769,19.089-6.53c5.525-2.763,9.293-6.029,9.293-6.029s-7.033,9.545-15.823,12.559
					c-8.791,3.013-12.056,3.013-14.065,5.525C456.73,270.813,453.967,274.329,453.967,274.329"/>
				<path clip-path="url(#SVGID_23_)" fill="#897F76" d="M209.238,501.809c0,0,64.004-13.861,92.133-13.046
					c28.13,0.815,99.88,19.976,99.88,19.976s-51.367-13.452-96.211-13.86C260.197,494.47,209.238,501.809,209.238,501.809"/>
			</g>
		</g>
	</g>
	<g clip-path="url(#SVGID_3_)">
		<defs>
			<rect id="SVGID_24_" x="55.5" y="73.251" width="498.988" height="645.749"/>
		</defs>
		<clipPath id="SVGID_25_">
			<use xlink:href="#SVGID_24_"  overflow="visible"/>
		</clipPath>
		<path clip-path="url(#SVGID_25_)" d="M314.46,118.136c4.02,0,7.274,3.485,7.274,7.782c0,4.297-3.255,7.782-7.274,7.782h-14.105
			c-4.014,0-7.273-3.484-7.273-7.782c0-4.297,3.259-7.782,7.273-7.782H314.46"/>
		<path clip-path="url(#SVGID_25_)" fill="none" stroke="#000000" stroke-width="6.078" d="M314.46,118.136
			c4.02,0,7.274,3.485,7.274,7.782c0,4.297-3.255,7.782-7.274,7.782h-14.105c-4.014,0-7.273-3.484-7.273-7.782
			c0-4.297,3.259-7.782,7.273-7.782H314.46"/>
		<path clip-path="url(#SVGID_25_)" d="M313.917,119.381c3.65,0,6.607,2.925,6.607,6.537s-2.957,6.538-6.608,6.538h-12.812
			c-3.646,0-6.604-2.926-6.604-6.538s2.958-6.537,6.604-6.537H313.917"/>
		<path clip-path="url(#SVGID_25_)" fill="none" stroke="#FFFFFF" stroke-width="0.658" d="M313.917,119.381
			c3.65,0,6.607,2.925,6.607,6.537s-2.957,6.538-6.608,6.538h-12.812c-3.646,0-6.604-2.926-6.604-6.538s2.958-6.537,6.604-6.537
			H313.917"/>
		<path clip-path="url(#SVGID_25_)" fill="#FFFFFF" d="M296.228,125.877c0-2.725,2.02-4.957,4.577-5.136v10.272
			C298.248,130.833,296.228,128.599,296.228,125.877"/>
		<polygon clip-path="url(#SVGID_25_)" fill="#FFFFFF" points="305.882,125.203 301.613,120.728 305.882,120.728 		"/>
		<polygon clip-path="url(#SVGID_25_)" fill="#FFFFFF" points="305.882,126.549 301.613,131.026 305.882,131.026 		"/>
		<polygon clip-path="url(#SVGID_25_)" fill="#FFFFFF" points="311.24,125.203 315.512,120.728 311.24,120.728 		"/>
		<polygon clip-path="url(#SVGID_25_)" fill="#FFFFFF" points="311.24,126.549 315.512,131.026 311.24,131.026 		"/>
		<rect x="306.79" y="120.728" clip-path="url(#SVGID_25_)" fill="#FFFFFF" width="3.544" height="10.298"/>
		<path clip-path="url(#SVGID_25_)" fill="#FFFFFF" d="M300.412,116.92v0.629h0.595v-0.211l0.219,0.045v0.119
			c0,0.185-0.054,0.234-0.236,0.234h-0.562c-0.181,0-0.234-0.049-0.234-0.234v-0.526c0-0.186,0.054-0.233,0.234-0.233h0.562
			c0.183,0,0.236,0.048,0.236,0.233v0.096l-0.219,0.037v-0.188H300.412z"/>
		<path clip-path="url(#SVGID_25_)" fill="#FFFFFF" d="M301.806,116.743h0.698c0.178,0,0.235,0.049,0.235,0.233v0.526
			c0,0.185-0.057,0.235-0.235,0.235h-0.698c-0.18,0-0.236-0.05-0.236-0.235v-0.526C301.57,116.792,301.626,116.743,301.806,116.743
			 M302.519,116.92h-0.727v0.629h0.727V116.92z"/>
		<path clip-path="url(#SVGID_25_)" fill="#FFFFFF" d="M303.109,116.743h0.18l0.445,0.602l0.439-0.602h0.176v0.994h-0.204v-0.615
			c0-0.018,0-0.054,0.003-0.106c-0.016,0.045-0.037,0.082-0.055,0.104l-0.354,0.497h-0.045l-0.355-0.498
			c-0.023-0.032-0.042-0.064-0.057-0.103c0.004,0.042,0.006,0.076,0.006,0.106v0.615h-0.18V116.743z"/>
		<path clip-path="url(#SVGID_25_)" fill="#FFFFFF" d="M304.718,116.743h0.812c0.145,0,0.213,0.054,0.213,0.192v0.221
			c0,0.139-0.068,0.193-0.213,0.193h-0.593v0.388h-0.219V116.743z M304.937,116.915v0.263h0.497c0.066,0,0.097-0.014,0.097-0.08
			v-0.104c0-0.065-0.031-0.079-0.097-0.079H304.937z"/>
		<path clip-path="url(#SVGID_25_)" fill="#FFFFFF" d="M305.992,116.743h0.807c0.147,0,0.215,0.054,0.215,0.192v0.235
			c0,0.137-0.067,0.192-0.215,0.192h-0.121l0.435,0.375h-0.313l-0.382-0.375h-0.205v0.375h-0.22V116.743z M306.212,116.915v0.276
			h0.493c0.069,0,0.098-0.014,0.098-0.08v-0.118c0-0.065-0.028-0.079-0.098-0.079H306.212z"/>
		<polygon clip-path="url(#SVGID_25_)" fill="#FFFFFF" points="307.371,116.743 308.339,116.743 308.339,116.913 307.591,116.913 
			307.591,117.133 308.027,117.133 308.027,117.303 307.591,117.303 307.591,117.549 308.353,117.549 308.353,117.737 
			307.371,117.737 		"/>
		<path clip-path="url(#SVGID_25_)" fill="#FFFFFF" d="M308.87,116.915v0.216h0.587c0.181,0,0.236,0.047,0.236,0.234v0.138
			c0,0.185-0.056,0.235-0.236,0.235h-0.584c-0.177,0-0.237-0.05-0.237-0.235v-0.03l0.197-0.04v0.117h0.668v-0.228h-0.592
			c-0.178,0-0.233-0.049-0.233-0.236v-0.11c0-0.185,0.056-0.233,0.233-0.233h0.54c0.168,0,0.233,0.047,0.233,0.218v0.021
			l-0.194,0.047v-0.114H308.87z"/>
		<path clip-path="url(#SVGID_25_)" fill="#FFFFFF" d="M310.258,116.915v0.216h0.593c0.178,0,0.236,0.047,0.236,0.234v0.138
			c0,0.185-0.059,0.235-0.236,0.235h-0.584c-0.179,0-0.236-0.05-0.236-0.235v-0.03l0.194-0.04v0.117h0.669v-0.228h-0.592
			c-0.174,0-0.234-0.049-0.234-0.236v-0.11c0-0.185,0.061-0.233,0.234-0.233h0.538c0.169,0,0.233,0.047,0.233,0.218v0.021
			l-0.192,0.047v-0.114H310.258z"/>
		<rect x="311.453" y="116.743" clip-path="url(#SVGID_25_)" fill="#FFFFFF" width="0.225" height="0.994"/>
		<path clip-path="url(#SVGID_25_)" fill="#FFFFFF" d="M312.282,116.743h0.695c0.182,0,0.239,0.049,0.239,0.233v0.526
			c0,0.185-0.058,0.235-0.239,0.235h-0.695c-0.179,0-0.233-0.05-0.233-0.235v-0.526
			C312.049,116.792,312.104,116.743,312.282,116.743 M312.994,116.92h-0.73v0.629h0.73V116.92z"/>
		<path clip-path="url(#SVGID_25_)" fill="#FFFFFF" d="M313.583,116.743h0.153l0.666,0.584c0.04,0.036,0.071,0.068,0.106,0.11
			c-0.004-0.083-0.007-0.141-0.007-0.17v-0.524h0.195v0.994h-0.147l-0.696-0.615c-0.027-0.024-0.055-0.05-0.08-0.081
			c0.009,0.078,0.009,0.129,0.009,0.159v0.537h-0.199V116.743z"/>
		<path clip-path="url(#SVGID_25_)" fill="#FFFFFF" d="M304.768,134.308v0.63h0.685v-0.221h-0.358v-0.17h0.576v0.341
			c0,0.188-0.057,0.235-0.236,0.235h-0.653c-0.179,0-0.236-0.048-0.236-0.235v-0.521c0-0.188,0.058-0.235,0.236-0.235h0.653
			c0.172,0,0.236,0.046,0.236,0.225v0.022l-0.218,0.042v-0.112H304.768z"/>
		<polygon clip-path="url(#SVGID_25_)" fill="#FFFFFF" points="306.043,134.131 307.014,134.131 307.014,134.301 306.267,134.301 
			306.267,134.523 306.701,134.523 306.701,134.69 306.267,134.69 306.267,134.938 307.022,134.938 307.022,135.123 
			306.043,135.123 		"/>
		<path clip-path="url(#SVGID_25_)" fill="#FFFFFF" d="M307.695,134.132h0.211l0.543,0.991h-0.247l-0.115-0.216h-0.598l-0.111,0.216
			h-0.221L307.695,134.132z M307.996,134.728l-0.203-0.405l-0.208,0.405H307.996z"/>
		<path clip-path="url(#SVGID_25_)" fill="#FFFFFF" d="M308.664,134.132h0.81c0.146,0,0.213,0.053,0.213,0.191v0.233
			c0,0.138-0.066,0.191-0.213,0.191h-0.122l0.434,0.375h-0.315l-0.38-0.375h-0.211v0.375h-0.215V134.132z M308.879,134.301v0.278
			h0.495c0.066,0,0.1-0.013,0.1-0.077v-0.12c0-0.065-0.033-0.081-0.1-0.081H308.879z"/>
		<path clip-path="url(#SVGID_25_)" fill="#FFFFFF" d="M311.035,133.953c0.123,0.128,0.192,0.304,0.192,0.488
			c0,0.189-0.065,0.358-0.194,0.487c-0.131,0.134-0.295,0.206-0.468,0.206c-0.175,0-0.339-0.072-0.467-0.208
			c-0.125-0.134-0.192-0.302-0.192-0.485s0.069-0.359,0.198-0.497c0.122-0.128,0.284-0.195,0.461-0.195
			C310.745,133.749,310.91,133.82,311.035,133.953 M310.976,134.017c-0.108-0.118-0.251-0.177-0.406-0.177s-0.298,0.057-0.402,0.171
			c-0.113,0.118-0.174,0.271-0.174,0.43c0,0.158,0.059,0.307,0.166,0.42c0.112,0.119,0.255,0.18,0.401,0.18
			c0.157,0,0.297-0.061,0.412-0.178c0.108-0.11,0.167-0.257,0.167-0.417C311.14,134.279,311.085,134.129,310.976,134.017
			 M310.896,134.25c0,0.112-0.063,0.188-0.171,0.211l0.166,0.358h-0.159l-0.148-0.335h-0.141v0.335h-0.141v-0.785h0.283
			C310.794,134.034,310.896,134.107,310.896,134.25 M310.442,134.131v0.26h0.118c0.129,0,0.188-0.033,0.188-0.125
			c0-0.1-0.059-0.135-0.193-0.135H310.442z"/>
	</g>
</g>
  <g id="CUSTOM"></g>
</svg>
