<?xml version="1.0" encoding="utf-8"?>
<!-- Generator: Adobe Illustrator 16.0.0, SVG Export Plug-In . SVG Version: 6.00 Build 0)  -->
<!DOCTYPE svg PUBLIC "-//W3C//DTD SVG 1.1//EN" "http://www.w3.org/Graphics/SVG/1.1/DTD/svg11.dtd">
<svg version="1.1" id="Layer_1" xmlns="http://www.w3.org/2000/svg" xmlns:xlink="http://www.w3.org/1999/xlink" x="0px" y="0px"
	 width="360px" height="756px" viewBox="0 0 360 756" enable-background="new 0 0 360 756" xml:space="preserve">
<g>
	<defs>
		<rect id="SB_SVGID_1_" width="360" height="756"/>
	</defs>
	<clipPath id="SB_SVGID_2_">
		<use xlink:href="#SB_SVGID_1_"  overflow="visible"/>
	</clipPath>
	<g id="BODY" clip-path="url(#SB_SVGID_2_)">
		<defs>
			<rect id="SB_SVGID_3_" width="360" height="756"/>
		</defs>
		<clipPath id="SB_SVGID_4_">
			<use xlink:href="#SB_SVGID_3_"  overflow="visible"/>
		</clipPath>
		<path clip-path="url(#SB_SVGID_4_)" fill="#FFFFFF" d="M334.785,566.883c-0.272-4.103-1.102-9.87-2.326-16.771
			c-0.489-2.76-1.043-5.701-1.648-8.79c-1.211-6.176-2.635-12.939-4.189-20.019c-1.553-7.079-3.236-14.472-4.968-21.907
			c-1.73-7.434-3.51-14.91-5.255-22.152c-5.671-23.539-10.98-44.623-13.114-53.866c-0.147-0.643-0.285-1.318-0.416-2.011
			c-0.046-0.241-0.088-0.492-0.132-0.739c-0.08-0.456-0.158-0.92-0.23-1.395c-0.05-0.317-0.098-0.638-0.144-0.963
			c-0.059-0.413-0.113-0.837-0.167-1.262c-0.047-0.38-0.097-0.754-0.141-1.145c-0.03-0.27-0.057-0.552-0.085-0.827
			c-0.109-1.049-0.207-2.127-0.291-3.24c-0.011-0.153-0.024-0.303-0.035-0.457c-0.047-0.65-0.088-1.313-0.127-1.982
			c-0.008-0.155-0.018-0.309-0.026-0.465c-0.038-0.71-0.074-1.427-0.103-2.156c0-0.002-0.001-0.004-0.001-0.007
			c-0.133-3.284-0.178-6.77-0.145-10.398c0-0.042,0-0.085,0.001-0.129c0.053-5.448,0.28-11.218,0.648-17.113
			c0.002-0.028,0.004-0.057,0.006-0.084c0.242-3.871,0.546-7.797,0.899-11.722c0.012-0.131,0.022-0.261,0.034-0.391
			c0.352-3.863,0.75-7.721,1.188-11.526c0.015-0.127,0.029-0.255,0.044-0.382c0.213-1.837,0.435-3.66,0.665-5.466
			c0.028-0.222,0.057-0.443,0.085-0.665c0.458-3.559,0.946-7.037,1.456-10.396c0.046-0.306,0.093-0.613,0.139-0.917
			c0.248-1.607,0.5-3.19,0.757-4.734c0.034-0.207,0.069-0.408,0.104-0.615c0.237-1.415,0.478-2.797,0.722-4.148
			c0.043-0.239,0.085-0.484,0.129-0.721c0.261-1.426,0.523-2.807,0.788-4.15c0.058-0.289,0.114-0.573,0.172-0.858
			c0.271-1.349,0.542-2.666,0.815-3.916c0.002-0.007,0.003-0.016,0.005-0.023c2.28-10.421,5.65-28.357,8.983-46.77
			c0.331-1.825,0.661-3.654,0.988-5.482c0.368-2.045,0.734-4.087,1.097-6.117c0.049-0.274,0.098-0.548,0.146-0.822
			c0.226-1.261,0.449-2.516,0.67-3.765c0.048-0.269,0.097-0.539,0.145-0.808c0.221-1.246,0.44-2.483,0.658-3.711
			c0.179-1.01,0.355-2.012,0.53-3.006c0.214-1.211,0.426-2.408,0.633-3.592c0.551-3.124,1.079-6.146,1.582-9.023
			c0.191-1.091,0.377-2.162,0.561-3.21c2.451-14.07,4.133-23.948,4.133-23.948s-16.578-5.828-29.567-19.055
			c-0.352-0.359-0.713-0.701-1.059-1.07c-8.841-9.43-23.028-24.424-32.957-43.097c-4.813-9.051-8.63-18.961-10.344-29.531
			c-5.25-32.376,19.25-76.127,19.25-76.127l-17.293-13.949c0,0-29.13,45.619-70.902,45.619c-45.619,0-77.125-43.97-77.125-43.97
			l-19.51,15.8c0,0,25.033,29.753,14.691,89.708c-0.024,0.142-0.042,0.278-0.067,0.42c-4.353,24.89-19.291,41.946-33.43,52.898
			c-0.003-0.015-0.007-0.031-0.01-0.046c-14.782,11.448-28.686,16.221-28.686,16.221s0.008,0.036,0.011,0.05l-0.012,0.004
			c0,0,9.014,41.715,14.747,68.228c6.582,30.443,10.316,102.032,10.218,116.067c-0.003,0.436-0.01,0.819-0.021,1.138
			c-0.007,0.204-0.024,0.407-0.032,0.61c-0.059,1.52-0.146,3.038-0.258,4.556c-0.051,0.695-0.118,1.387-0.18,2.08
			c-0.091,1.033-0.188,2.063-0.301,3.092c-0.084,0.763-0.173,1.525-0.268,2.285c-0.12,0.965-0.249,1.926-0.385,2.885
			c-0.109,0.766-0.215,1.533-0.334,2.296c-0.149,0.962-0.312,1.915-0.475,2.87c-0.149,0.873-0.296,1.746-0.455,2.613
			c-0.276,1.498-0.567,2.982-0.87,4.457c-0.185,0.898-0.377,1.789-0.57,2.678c-0.173,0.794-0.348,1.583-0.526,2.368
			c-0.229,1.009-0.457,2.018-0.694,3.011c-0.038,0.16-0.078,0.317-0.116,0.478c-2.657,11.07-5.71,21.097-7.807,29.067
			c-5.942,22.58-17.412,76.428-25.287,142.931c-1.724,14.555-2.484,29.22-2.618,43.25c-0.488,50.093,6.992,92.096,6.992,92.096
			s23.145,4.888,66.896,4.888s61.733-6.301,61.733-6.301s1.75-24.5,1.75-36.751c0-12.25,6.126-66.18,8.751-83.68
			c0.656-4.376,0.82-8.478,0.697-12.292s-0.533-7.343-1.025-10.569c-0.37-2.42-0.785-4.67-1.16-6.746
			c-0.125-0.692-0.245-1.365-0.358-2.018c-0.338-1.958-0.608-3.74-0.721-5.34c-0.038-0.532-0.058-1.046-0.058-1.537
			c0-7.875,14.054-4.974,21.929-4.099s7.822,5.849,7.822,14.6c0,8.75-2.626,11.375-4.376,27.126
			c-0.688,6.203-0.561,16.437,0.059,28.053c0.114,2.164,0.246,4.371,0.393,6.615c0.387,5.219,0.489,12.873,1.405,21.013
			c1.826,16.235,2.942,23.75,3.505,27.039c3.404,24,4.265,37.711,4.265,37.711s28.403,4.013,61.654,5.763
			c12.085,0.636,22.924,0.891,32.971-0.471c0.007-0.001,7.999-0.941,8.007-0.942c12.878-1.746,14.594-0.616,19.076-1.86
			c0.023-0.008,0.046-0.014,0.069-0.02c0.773-0.216,1.379-0.39,1.794-0.513c0.06-0.019,0.097-0.029,0.149-0.045
			c0.12-0.036,0.22-0.066,0.298-0.089c0.063-0.021,0.096-0.029,0.132-0.041c0.025-0.009,0.031-0.01,0.047-0.015
			c0.013-0.004,0.057-0.017,0.057-0.017s0.738-2.954,1.753-7.337c0.085-0.366,0.171-0.741,0.261-1.125
			c0.176-0.77,0.358-1.574,0.546-2.408c0.094-0.417,0.188-0.841,0.285-1.271c0.286-1.292,0.582-2.642,0.877-4.025
			c1.278-5.996,2.567-12.627,3.278-17.96C338.285,683.262,336.535,593.134,334.785,566.883"/>
		<path clip-path="url(#SB_SVGID_4_)" fill="none" stroke="#A39E9C" stroke-width="0.5" stroke-miterlimit="10" d="M334.785,566.883
			c-0.272-4.103-1.102-9.87-2.326-16.771c-0.489-2.76-1.043-5.701-1.648-8.79c-1.211-6.176-2.635-12.939-4.189-20.019
			c-1.553-7.079-3.236-14.472-4.968-21.907c-1.73-7.434-3.51-14.91-5.255-22.152c-5.671-23.539-10.98-44.623-13.114-53.866
			c-0.147-0.643-0.285-1.318-0.416-2.011c-0.046-0.241-0.088-0.492-0.132-0.739c-0.08-0.456-0.158-0.92-0.23-1.395
			c-0.05-0.317-0.098-0.638-0.144-0.963c-0.059-0.413-0.113-0.837-0.167-1.262c-0.047-0.38-0.097-0.754-0.141-1.145
			c-0.03-0.27-0.057-0.552-0.085-0.827c-0.109-1.049-0.207-2.127-0.291-3.24c-0.011-0.153-0.024-0.303-0.035-0.457
			c-0.047-0.65-0.088-1.313-0.127-1.982c-0.008-0.155-0.018-0.309-0.026-0.465c-0.038-0.71-0.074-1.427-0.103-2.156
			c0-0.002-0.001-0.004-0.001-0.007c-0.133-3.284-0.178-6.77-0.145-10.398c0-0.042,0-0.085,0.001-0.129
			c0.053-5.448,0.28-11.218,0.648-17.113c0.002-0.028,0.004-0.057,0.006-0.084c0.242-3.871,0.546-7.797,0.899-11.722
			c0.012-0.131,0.022-0.261,0.034-0.391c0.352-3.863,0.75-7.721,1.188-11.526c0.015-0.127,0.029-0.255,0.044-0.382
			c0.213-1.837,0.435-3.66,0.665-5.466c0.028-0.222,0.057-0.443,0.085-0.665c0.458-3.559,0.946-7.037,1.456-10.396
			c0.046-0.306,0.093-0.613,0.139-0.917c0.248-1.607,0.5-3.19,0.757-4.734c0.034-0.207,0.069-0.408,0.104-0.615
			c0.237-1.415,0.478-2.797,0.722-4.148c0.043-0.239,0.085-0.484,0.129-0.721c0.261-1.426,0.523-2.807,0.788-4.15
			c0.058-0.289,0.114-0.573,0.172-0.858c0.271-1.349,0.542-2.666,0.815-3.916c0.002-0.007,0.003-0.016,0.005-0.023
			c2.28-10.421,5.65-28.357,8.983-46.77c0.331-1.825,0.661-3.654,0.988-5.482c0.368-2.045,0.734-4.087,1.097-6.117
			c0.049-0.274,0.098-0.548,0.146-0.822c0.226-1.261,0.449-2.516,0.67-3.765c0.048-0.269,0.097-0.539,0.145-0.808
			c0.221-1.246,0.44-2.483,0.658-3.711c0.179-1.01,0.355-2.012,0.53-3.006c0.214-1.211,0.426-2.408,0.633-3.592
			c0.551-3.124,1.079-6.146,1.582-9.023c0.191-1.091,0.377-2.162,0.561-3.21c2.451-14.07,4.133-23.948,4.133-23.948
			s-16.578-5.828-29.567-19.055c-0.352-0.359-0.713-0.701-1.059-1.07c-8.841-9.43-23.028-24.424-32.957-43.097
			c-4.813-9.051-8.63-18.961-10.344-29.531c-5.25-32.376,19.25-76.127,19.25-76.127l-17.293-13.949c0,0-29.13,45.619-70.902,45.619
			c-45.619,0-77.125-43.97-77.125-43.97l-19.51,15.8c0,0,25.033,29.753,14.691,89.708c-0.024,0.142-0.042,0.278-0.067,0.42
			c-4.353,24.89-19.291,41.946-33.43,52.898c-0.003-0.015-0.007-0.031-0.01-0.046c-14.782,11.448-28.686,16.221-28.686,16.221
			s0.008,0.036,0.011,0.05l-0.012,0.004c0,0,9.014,41.715,14.747,68.228c6.582,30.443,10.316,102.032,10.218,116.067
			c-0.003,0.436-0.01,0.819-0.021,1.138c-0.007,0.204-0.024,0.407-0.032,0.61c-0.059,1.52-0.146,3.038-0.258,4.556
			c-0.051,0.695-0.118,1.387-0.18,2.08c-0.091,1.033-0.188,2.063-0.301,3.092c-0.084,0.763-0.173,1.525-0.268,2.285
			c-0.12,0.965-0.249,1.926-0.385,2.885c-0.109,0.766-0.215,1.533-0.334,2.296c-0.149,0.962-0.312,1.915-0.475,2.87
			c-0.149,0.873-0.296,1.746-0.455,2.613c-0.276,1.498-0.567,2.982-0.87,4.457c-0.185,0.898-0.377,1.789-0.57,2.678
			c-0.173,0.794-0.348,1.583-0.526,2.368c-0.229,1.009-0.457,2.018-0.694,3.011c-0.038,0.16-0.078,0.317-0.116,0.478
			c-2.657,11.07-5.71,21.097-7.807,29.067c-5.942,22.58-17.412,76.428-25.287,142.931c-1.724,14.555-2.484,29.22-2.618,43.25
			c-0.488,50.093,6.992,92.096,6.992,92.096s23.145,4.888,66.896,4.888s61.733-6.301,61.733-6.301s1.75-24.5,1.75-36.751
			c0-12.25,6.126-66.18,8.751-83.68c0.656-4.376,0.82-8.478,0.697-12.292s-0.533-7.343-1.025-10.569
			c-0.37-2.42-0.785-4.67-1.16-6.746c-0.125-0.692-0.245-1.365-0.358-2.018c-0.338-1.958-0.608-3.74-0.721-5.34
			c-0.038-0.532-0.058-1.046-0.058-1.537c0-7.875,14.054-4.974,21.929-4.099s7.822,5.849,7.822,14.6
			c0,8.75-2.626,11.375-4.376,27.126c-0.688,6.203-0.561,16.437,0.059,28.053c0.114,2.164,0.246,4.371,0.393,6.615
			c0.387,5.219,0.489,12.873,1.405,21.013c1.826,16.235,2.942,23.75,3.505,27.039c3.404,24,4.265,37.711,4.265,37.711
			s28.403,4.013,61.654,5.763c12.085,0.636,22.924,0.891,32.971-0.471c0.007-0.001,7.999-0.941,8.007-0.942
			c12.878-1.746,14.594-0.616,19.076-1.86c0.023-0.008,0.046-0.014,0.069-0.02c0.773-0.216,1.379-0.39,1.794-0.513
			c0.06-0.019,0.097-0.029,0.149-0.045c0.12-0.036,0.22-0.066,0.298-0.089c0.063-0.021,0.096-0.029,0.132-0.041
			c0.025-0.009,0.031-0.01,0.047-0.015c0.013-0.004,0.057-0.017,0.057-0.017s0.738-2.954,1.753-7.337
			c0.085-0.366,0.171-0.741,0.261-1.125c0.176-0.77,0.358-1.574,0.546-2.408c0.094-0.417,0.188-0.841,0.285-1.271
			c0.286-1.292,0.582-2.642,0.877-4.025c1.278-5.996,2.567-12.627,3.278-17.96C338.285,683.262,336.535,593.134,334.785,566.883z"/>
	</g>
	<g clip-path="url(#SB_SVGID_2_)">
		<defs>
			<rect id="SB_SVGID_5_" width="360" height="756"/>
		</defs>
		<clipPath id="SB_SVGID_6_">
			<use xlink:href="#SB_SVGID_5_"  overflow="visible"/>
		</clipPath>
		<g opacity="0.13" clip-path="url(#SB_SVGID_6_)">
			<g>
				<defs>
					<rect id="SB_SVGID_7_" x="132.639" y="415.564" width="43.55" height="73.612"/>
				</defs>
				<clipPath id="SB_SVGID_8_">
					<use xlink:href="#SB_SVGID_7_"  overflow="visible"/>
				</clipPath>
				<g clip-path="url(#SB_SVGID_8_)">
					<defs>
						<path id="SB_SVGID_9_" d="M167.076,432.455c-5.852-5.849-34.437-16.891-34.437-16.891s21.44,29.889,19.488,38.332
							c-1.949,8.443-13.644,34.433-13.644,34.433s13.651,2.598,18.843-1.298c5.2-3.9,19.492-18.193,18.841-27.287
							C175.521,450.649,172.918,438.301,167.076,432.455"/>
					</defs>
					<clipPath id="SB_SVGID_10_">
						<use xlink:href="#SB_SVGID_9_"  overflow="visible"/>
					</clipPath>
					
						<radialGradient id="SB_SVGID_11_" cx="0" cy="756" r="1" gradientTransform="matrix(142.7848 0 0 -142.7848 65.375 108394.3281)" gradientUnits="userSpaceOnUse">
						<stop  offset="0" style="stop-color:#FFFFFF"/>
						<stop  offset="1" style="stop-color:#887F76"/>
					</radialGradient>
					<rect x="132.639" y="415.564" clip-path="url(#SB_SVGID_10_)" fill="url(#SB_SVGID_11_)" width="44.179" height="75.362"/>
				</g>
			</g>
		</g>
		<g opacity="0.13" clip-path="url(#SB_SVGID_6_)">
			<g>
				<defs>
					<rect id="SB_SVGID_12_" x="199.877" y="606.885" width="0.052" height="0.76"/>
				</defs>
				<clipPath id="SB_SVGID_13_">
					<use xlink:href="#SB_SVGID_12_"  overflow="visible"/>
				</clipPath>
				<g clip-path="url(#SB_SVGID_13_)">
					<defs>
						<path id="SB_SVGID_14_" d="M199.929,607.645c-0.015-0.257-0.031-0.511-0.052-0.761
							C199.897,607.134,199.914,607.388,199.929,607.645"/>
					</defs>
					<clipPath id="SB_SVGID_15_">
						<use xlink:href="#SB_SVGID_14_"  overflow="visible"/>
					</clipPath>
					
						<radialGradient id="SB_SVGID_16_" cx="0" cy="756" r="1" gradientTransform="matrix(0.088 0 0 -0.088 199.9074 674.1313)" gradientUnits="userSpaceOnUse">
						<stop  offset="0" style="stop-color:#FFFFFF"/>
						<stop  offset="1" style="stop-color:#887F76"/>
					</radialGradient>
					<rect x="199.877" y="606.884" clip-path="url(#SB_SVGID_15_)" fill="url(#SB_SVGID_16_)" width="0.052" height="0.761"/>
				</g>
			</g>
		</g>
		<g opacity="0.13" clip-path="url(#SB_SVGID_6_)">
			<g>
				<defs>
					<path id="SB_SVGID_17_" d="M199.835,606.406L199.835,606.406z"/>
				</defs>
				<clipPath id="SB_SVGID_18_">
					<use xlink:href="#SB_SVGID_17_"  overflow="visible"/>
				</clipPath>
			</g>
		</g>
		<g opacity="0.13" clip-path="url(#SB_SVGID_6_)">
			<g>
				<defs>
					<rect id="SB_SVGID_19_" x="205.543" y="728.837" width="1.852" height="0.504"/>
				</defs>
				<clipPath id="SB_SVGID_20_">
					<use xlink:href="#SB_SVGID_19_"  overflow="visible"/>
				</clipPath>
				<g clip-path="url(#SB_SVGID_20_)">
					<defs>
						<path id="SB_SVGID_21_" d="M205.552,728.909l1.843,0.432c-0.911-0.242-1.535-0.415-1.852-0.504L205.552,728.909z"/>
					</defs>
					<clipPath id="SB_SVGID_22_">
						<use xlink:href="#SB_SVGID_21_"  overflow="visible"/>
					</clipPath>
					
						<radialGradient id="SB_SVGID_23_" cx="0" cy="756" r="1" gradientTransform="matrix(3.0237 0 0 -3.0237 206.6191 3015.2515)" gradientUnits="userSpaceOnUse">
						<stop  offset="0" style="stop-color:#FFFFFF"/>
						<stop  offset="1" style="stop-color:#887F76"/>
					</radialGradient>
					<rect x="205.543" y="728.837" clip-path="url(#SB_SVGID_22_)" fill="url(#SB_SVGID_23_)" width="1.852" height="0.504"/>
				</g>
			</g>
		</g>
		<g opacity="0.13" clip-path="url(#SB_SVGID_6_)">
			<g>
				<defs>
					<rect id="SB_SVGID_24_" x="159.482" y="719.111" width="3.607" height="12.062"/>
				</defs>
				<clipPath id="SB_SVGID_25_">
					<use xlink:href="#SB_SVGID_24_"  overflow="visible"/>
				</clipPath>
				<g clip-path="url(#SB_SVGID_25_)">
					<defs>
						<path id="SB_SVGID_26_" d="M159.482,731.173c1.118-0.325,2.104-0.62,2.922-0.872c0.345-2.139,0.543-6.279,0.685-11.189
							c-0.366,6.063-0.684,10.526-0.684,10.526S161.482,730.248,159.482,731.173"/>
					</defs>
					<clipPath id="SB_SVGID_27_">
						<use xlink:href="#SB_SVGID_26_"  overflow="visible"/>
					</clipPath>
					
						<radialGradient id="SB_SVGID_28_" cx="0" cy="756" r="1" gradientTransform="matrix(5.9005 0 0 -5.9005 161.5781 5191.8403)" gradientUnits="userSpaceOnUse">
						<stop  offset="0" style="stop-color:#FFFFFF"/>
						<stop  offset="1" style="stop-color:#887F76"/>
					</radialGradient>
					<rect x="159.482" y="719.111" clip-path="url(#SB_SVGID_27_)" fill="url(#SB_SVGID_28_)" width="3.607" height="12.062"/>
				</g>
			</g>
		</g>
		<g opacity="0.13" clip-path="url(#SB_SVGID_6_)">
			<g>
				<defs>
					<rect id="SB_SVGID_29_" x="197.465" y="581.205" width="2.566" height="14.231"/>
				</defs>
				<clipPath id="SB_SVGID_30_">
					<use xlink:href="#SB_SVGID_29_"  overflow="visible"/>
				</clipPath>
				<g clip-path="url(#SB_SVGID_30_)">
					<defs>
						<path id="SB_SVGID_31_" d="M197.465,595.437c1.205-4.939,2.566-9.259,2.566-14.231
							C199.151,584.35,198.24,589.749,197.465,595.437"/>
					</defs>
					<clipPath id="SB_SVGID_32_">
						<use xlink:href="#SB_SVGID_31_"  overflow="visible"/>
					</clipPath>
					
						<radialGradient id="SB_SVGID_33_" cx="0" cy="756" r="1" gradientTransform="matrix(4.2141 0 0 -4.2141 198.957 3781.1587)" gradientUnits="userSpaceOnUse">
						<stop  offset="0" style="stop-color:#FFFFFF"/>
						<stop  offset="1" style="stop-color:#887F76"/>
					</radialGradient>
					<rect x="197.465" y="581.205" clip-path="url(#SB_SVGID_32_)" fill="url(#SB_SVGID_33_)" width="2.566" height="14.231"/>
				</g>
			</g>
		</g>
		<g opacity="0.13" clip-path="url(#SB_SVGID_6_)">
			<g>
				<defs>
					<rect id="SB_SVGID_34_" x="170.695" y="591.247" width="3.374" height="33.441"/>
				</defs>
				<clipPath id="SB_SVGID_35_">
					<use xlink:href="#SB_SVGID_34_"  overflow="visible"/>
				</clipPath>
				<g clip-path="url(#SB_SVGID_35_)">
					<defs>
						<path id="SB_SVGID_36_" d="M172.905,609.206c-0.798,5.322-1.527,10.445-2.21,15.482c1.931-11.497,4.099-25.41,3.139-30.207
							c-0.188-0.941-0.4-2.038-0.625-3.234C173.762,596.574,173.9,602.574,172.905,609.206"/>
					</defs>
					<clipPath id="SB_SVGID_37_">
						<use xlink:href="#SB_SVGID_36_"  overflow="visible"/>
					</clipPath>
					
						<radialGradient id="SB_SVGID_38_" cx="0" cy="756" r="1" gradientTransform="matrix(5.6168 0 0 -5.6168 172.6563 4870.7163)" gradientUnits="userSpaceOnUse">
						<stop  offset="0" style="stop-color:#FFFFFF"/>
						<stop  offset="1" style="stop-color:#887F76"/>
					</radialGradient>
					<rect x="170.695" y="591.247" clip-path="url(#SB_SVGID_37_)" fill="url(#SB_SVGID_38_)" width="4.099" height="33.441"/>
				</g>
			</g>
		</g>
		<g opacity="0.13" clip-path="url(#SB_SVGID_6_)">
			<g>
				<defs>
					<rect id="SB_SVGID_39_" x="172.017" y="564.664" width="26.153" height="3.955"/>
				</defs>
				<clipPath id="SB_SVGID_40_">
					<use xlink:href="#SB_SVGID_39_"  overflow="visible"/>
				</clipPath>
				<g clip-path="url(#SB_SVGID_40_)">
					<defs>
						<path id="SB_SVGID_41_" d="M192.156,565.455c-6.199-0.689-16.164-1.899-20.139,1.448c5.359-1.237,21.863-2.617,25.053,0.573
							c0.395,0.396,0.758,0.771,1.1,1.143C197.021,566.896,195.167,565.789,192.156,565.455"/>
					</defs>
					<clipPath id="SB_SVGID_42_">
						<use xlink:href="#SB_SVGID_41_"  overflow="visible"/>
					</clipPath>
					
						<radialGradient id="SB_SVGID_43_" cx="0" cy="756" r="1" gradientTransform="matrix(42.6861 0 0 -42.6861 187.2188 32839.2578)" gradientUnits="userSpaceOnUse">
						<stop  offset="0" style="stop-color:#FFFFFF"/>
						<stop  offset="1" style="stop-color:#887F76"/>
					</radialGradient>
					<rect x="172.017" y="563.556" clip-path="url(#SB_SVGID_42_)" fill="url(#SB_SVGID_43_)" width="26.153" height="5.063"/>
				</g>
			</g>
		</g>
		<g opacity="0.13" clip-path="url(#SB_SVGID_6_)">
			<g>
				<defs>
					<rect id="SB_SVGID_44_" x="102.074" y="534.072" width="155.284" height="200.679"/>
				</defs>
				<clipPath id="SB_SVGID_45_">
					<use xlink:href="#SB_SVGID_44_"  overflow="visible"/>
				</clipPath>
				<g clip-path="url(#SB_SVGID_45_)">
					<defs>
						<path id="SB_SVGID_46_" d="M257.358,609.749c0-3.247-13.644-22.742-16.244-22.742c-2.6,0-25.458-47.089-28.706-47.089
							c-3.247,0-40.283-5.846-42.233-5.846c-1.949,0-21.966,36.695-25.213,40.595c-3.249,3.894-18.198,14.29-21.448,20.789
							c-3.248,6.493-21.44,31.836-21.44,37.033s5.202,32.482,12.997,44.828c7.793,12.348,4.546,24.04,0.652,33.134
							c-2.589,6.041-5.81,18.625-8.592,24.3c15.613-0.475,43.386-2.338,54.323-5.338c0.288-9.675-1.325-50.134,0-54.637
							c1.138-3.87,2.137-22.271,2.833-34.435c-0.315,2.851-0.623,5.712-0.921,8.613c-1.25,12.186-2.854,36.811-2.854,36.811
							s-1.123-2.023-5.652-0.313c0.265-8.984,3.14-40.82,3.454-49.298c0.203-5.478,5.347-34.958,5.966-41.763
							c0.618-6.805,2.177-16.864,0.63-24.597c-1.547-7.733-3.093-17.012-1.856-18.249c1.237-1.237,29.693-3.093,33.405,0.619
							c3.711,3.711,7.732,12.681,5.567,20.413s-5.719,30.066-5.719,35.944c0,5.876,3.777,38.374,4.396,42.703
							c0.478,3.347,2.064,22.474,3.768,32.971c-0.871-0.212-1.657-0.354-2.373-0.457c0.696,5.335,4.186,35.556,5.827,45.674
							l10.99,1.884c6.852,1.434,15.439,1.276,25.434,2.512c-1.382-2.474-4.434-12.107-5.835-14.908
							c-6.492-12.991-2.597-38.981-1.304-46.132c1.304-7.149,9.099-27.937,10.402-31.836c1.302-3.898-3.251-21.437,0-23.385
							C250.865,615.601,257.358,612.998,257.358,609.749"/>
					</defs>
					<clipPath id="SB_SVGID_47_">
						<use xlink:href="#SB_SVGID_46_"  overflow="visible"/>
					</clipPath>
					
						<radialGradient id="SB_SVGID_48_" cx="0" cy="756" r="1" gradientTransform="matrix(253.5408 0 0 -253.5408 192.25 192409.8281)" gradientUnits="userSpaceOnUse">
						<stop  offset="0" style="stop-color:#FFFFFF"/>
						<stop  offset="1" style="stop-color:#887F76"/>
					</radialGradient>
					<rect x="102.074" y="534.072" clip-path="url(#SB_SVGID_47_)" fill="url(#SB_SVGID_48_)" width="155.284" height="200.679"/>
				</g>
			</g>
		</g>
		<g opacity="0.13" clip-path="url(#SB_SVGID_6_)">
			<g>
				<defs>
					<rect id="SB_SVGID_49_" x="195.5" y="613.726" width="0.084" height="3.376"/>
				</defs>
				<clipPath id="SB_SVGID_50_">
					<use xlink:href="#SB_SVGID_49_"  overflow="visible"/>
				</clipPath>
				<g clip-path="url(#SB_SVGID_50_)">
					<defs>
						<path id="SB_SVGID_51_" d="M195.5,616.147c0,0.223,0.018,0.563,0.043,0.954c0.012-1.078,0.026-2.205,0.041-3.376
							C195.533,614.677,195.5,615.516,195.5,616.147"/>
					</defs>
					<clipPath id="SB_SVGID_52_">
						<use xlink:href="#SB_SVGID_51_"  overflow="visible"/>
					</clipPath>
					
						<radialGradient id="SB_SVGID_53_" cx="0" cy="756" r="1" gradientTransform="matrix(0.1762 0 0 -0.1762 195.5487 750.2874)" gradientUnits="userSpaceOnUse">
						<stop  offset="0" style="stop-color:#FFFFFF"/>
						<stop  offset="1" style="stop-color:#887F76"/>
					</radialGradient>
					<rect x="195.5" y="613.726" clip-path="url(#SB_SVGID_52_)" fill="url(#SB_SVGID_53_)" width="0.084" height="3.376"/>
				</g>
			</g>
		</g>
		<g opacity="0.13" clip-path="url(#SB_SVGID_6_)">
			<g>
				<defs>
					<path id="SB_SVGID_54_" d="M197.191,599.537L197.191,599.537z"/>
				</defs>
				<clipPath id="SB_SVGID_55_">
					<use xlink:href="#SB_SVGID_54_"  overflow="visible"/>
				</clipPath>
			</g>
		</g>
		<g opacity="0.13" clip-path="url(#SB_SVGID_6_)">
			<g>
				<defs>
					<rect id="SB_SVGID_56_" x="26.054" y="194.212" width="74.361" height="539.89"/>
				</defs>
				<clipPath id="SB_SVGID_57_">
					<use xlink:href="#SB_SVGID_56_"  overflow="visible"/>
				</clipPath>
				<g clip-path="url(#SB_SVGID_57_)">
					<defs>
						<path id="SB_SVGID_58_" d="M74.17,683.239c0.649-7.144-20.793-38.333-29.237-53.278c-8.445-14.942-0.65-51.324,1.947-65.619
							c2.598-14.297,22.089-27.938,28.585-35.734c6.499-7.798,20.794-64.966,24.039-80.564c3.25-15.592-3.245-62.368-3.245-62.368
							s-6.502-11.051-6.502-13.647c0-2.597,3.899-19.495,6.5-25.341c2.601-5.847,1.949-52.626,1.949-56.525
							s-18.845-24.69-21.444-31.836c-1.838-5.055-10.135-42.581-14.834-64.114c-2.657,1.572-17.648,7.918-18.146,9.296
							c2.001,13.684,13.483,63.997,13.483,63.997c1.811,6.641,3.623,18.515,5.031,31.193c1.008,3.101,0.496,12.987,1.812,19.32
							c1.811,11.672,4.025,66.093,4.025,71.443c0,5.815-6.219,37.021-7.228,41.392c-1.753,7.597-6.963,23.031-10.701,40.609
							c-7.458,35.073-15.558,79.997-20.803,124.297c-7.876,66.502,0.62,99.831,0.62,99.831s7.88,40.259,8.784,38.452
							C41.405,728.848,73.52,690.382,74.17,683.239"/>
					</defs>
					<clipPath id="SB_SVGID_59_">
						<use xlink:href="#SB_SVGID_58_"  overflow="visible"/>
					</clipPath>
					
						<radialGradient id="SB_SVGID_60_" cx="0" cy="756" r="1" gradientTransform="matrix(219.8331 0 0 -219.8331 43.5 166588.7969)" gradientUnits="userSpaceOnUse">
						<stop  offset="0" style="stop-color:#FFFFFF"/>
						<stop  offset="1" style="stop-color:#887F76"/>
					</radialGradient>
					<rect x="21.525" y="194.212" clip-path="url(#SB_SVGID_59_)" fill="url(#SB_SVGID_60_)" width="81.229" height="541.637"/>
				</g>
			</g>
		</g>
		<g opacity="0.13" clip-path="url(#SB_SVGID_6_)">
			<g>
				<defs>
					<rect id="SB_SVGID_61_" x="254.234" y="179.621" width="82.987" height="554.438"/>
				</defs>
				<clipPath id="SB_SVGID_62_">
					<use xlink:href="#SB_SVGID_61_"  overflow="visible"/>
				</clipPath>
				<g clip-path="url(#SB_SVGID_62_)">
					<defs>
						<path id="SB_SVGID_63_" d="M336.487,693.078c1.75-13.126,0.049-99.945-1.701-126.195c-1.75-26.251-26.251-120.754-31.501-143.505
							c-5.251-22.751-0.205-74.188,5.921-102.189c5.03-22.994,16.092-86.749,19.629-107.319c-0.904-2.724,1.144-4.272,0.19-7.396
							c-5.937-2.654-17.359-8.606-26.615-18.479c-2.279-2.43-4.824-5.238-7.497-8.374c-2.91,12.031-5.001,21.389-5.183,24.131
							c-0.652,9.747-9.746,55.874-10.396,61.073c-0.648,5.2-6.503,20.144-5.2,29.889c1.299,9.743,22.089,24.687,22.737,36.383
							c0.654,11.695-3.242,29.887-4.544,31.834c-1.3,1.949-13.642,32.486-13.642,35.081c0,2.604-15.599,39.633-20.794,39.633
							c-5.196,0-4.546,20.149,0,33.793c4.546,13.641,33.136,46.775,33.785,52.623c0.65,5.853,11.048,16.246,9.747,18.846
							c-1.303,2.597-9.097,11.037-14.942,11.69c-5.847,0.652-21.449,7.145-24.044,5.847c-2.597-1.3-0.647,10.396,4.549,10.396
							c5.195,0,28.585-2.601,31.186-3.897c2.603-1.295,20.147-11.044,22.092-7.798c1.952,3.248-3.253,24.689-1.302,30.539
							c1.952,5.85-3.253,40.283-5.848,43.531c-2.597,3.247-18.191,32.488-16.243,39.632c1.954,7.145,28.125,50.367,30.901,61.196
							C328.028,735.042,336.487,693.078,336.487,693.078"/>
					</defs>
					<clipPath id="SB_SVGID_64_">
						<use xlink:href="#SB_SVGID_63_"  overflow="visible"/>
					</clipPath>
					
						<radialGradient id="SB_SVGID_65_" cx="0" cy="756" r="1" gradientTransform="matrix(292.521 0 0 -292.521 319.75 221566.6406)" gradientUnits="userSpaceOnUse">
						<stop  offset="0" style="stop-color:#FFFFFF"/>
						<stop  offset="1" style="stop-color:#887F76"/>
					</radialGradient>
					<rect x="252.695" y="179.621" clip-path="url(#SB_SVGID_64_)" fill="url(#SB_SVGID_65_)" width="85.542" height="555.421"/>
				</g>
			</g>
		</g>
		<g opacity="0.75" clip-path="url(#SB_SVGID_6_)">
			<g>
				<defs>
					<rect id="SB_SVGID_66_" x="29.366" y="688.106" width="304.094" height="9.784"/>
				</defs>
				<clipPath id="SB_SVGID_67_">
					<use xlink:href="#SB_SVGID_66_"  overflow="visible"/>
				</clipPath>
				
					<path clip-path="url(#SB_SVGID_67_)" fill="none" stroke="#7A726F" stroke-width="0.554" stroke-miterlimit="10" stroke-dasharray="1.108,1.108" d="
					M29.402,688.658c38.303,5.105,97.231,5.566,135.534,0.461"/>
				
					<path clip-path="url(#SB_SVGID_67_)" fill="none" stroke="#7A726F" stroke-width="0.554" stroke-miterlimit="10" stroke-dasharray="1.108,1.108" d="
					M29.854,693.569c38.303,5.105,95.77,5.523,134.073,0.418"/>
				
					<path clip-path="url(#SB_SVGID_67_)" fill="none" stroke="#7A726F" stroke-width="0.54" stroke-miterlimit="10" stroke-dasharray="1.08,1.08" d="
					M199.837,688.443c37.921,5.104,95.666,5.036,133.587-0.069"/>
				
					<path clip-path="url(#SB_SVGID_67_)" fill="none" stroke="#7A726F" stroke-width="0.54" stroke-miterlimit="10" stroke-dasharray="1.08,1.08" d="
					M200.888,693.567c37.921,5.104,93.739,4.872,131.661-0.233"/>
			</g>
		</g>
	</g>
	<g id="TRIM" clip-path="url(#SB_SVGID_2_)">
		<defs>
			<rect id="SB_SVGID_68_" width="360" height="756"/>
		</defs>
		<clipPath id="SB_SVGID_69_">
			<use xlink:href="#SB_SVGID_68_"  overflow="visible"/>
		</clipPath>
		<path clip-path="url(#SB_SVGID_69_)" fill="#FFFFFF" d="M93.461,41.891c0,0-7.68-3.029-6.283,6.646
			c0.837,5.797,22.186,27.465,12.662,86.343c-6.355,39.282-56.613,60.079-56.613,60.079s-4.626,1.972-3.916,5.524
			c0.945,4.724,3.916,4.296,3.916,4.296s59.765-18.281,67.011-76.253C116.593,77.69,93.461,41.891,93.461,41.891"/>
		
			<path clip-path="url(#SB_SVGID_69_)" fill="none" stroke="#887F76" stroke-width="0.501" stroke-miterlimit="10" stroke-dasharray="1.003,1.003" d="
			M93.461,41.891c0,0-7.68-3.029-6.283,6.646c0.837,5.797,22.186,27.465,12.662,86.343c-6.355,39.282-56.613,60.079-56.613,60.079
			s-4.626,1.972-3.916,5.524c0.945,4.724,3.916,4.296,3.916,4.296s59.765-18.281,67.011-76.253
			C116.593,77.69,93.461,41.891,93.461,41.891z"/>
		<path clip-path="url(#SB_SVGID_69_)" fill="#FFFFFF" d="M275.089,37.451c3.282,1.48,4.27,4.49,2.282,7.876
			c-1.493,2.543-23.436,21.295-15.204,77.422c6.355,43.325,63.064,76.485,63.064,76.485s7.907,4.24,7.033,7.82
			c-1.469,6.014-4.473,4.012-4.473,4.012s-65.429-33.05-74.17-92.227C245.598,64.497,271.335,35.758,275.089,37.451"/>
		
			<path clip-path="url(#SB_SVGID_69_)" fill="none" stroke="#887F76" stroke-width="0.501" stroke-miterlimit="10" stroke-dasharray="1.003,1.003" d="
			M275.089,37.451c3.282,1.48,4.27,4.49,2.282,7.876c-1.493,2.543-23.436,21.295-15.204,77.422
			c6.355,43.325,63.064,76.485,63.064,76.485s7.907,4.24,7.033,7.82c-1.469,6.014-4.473,4.012-4.473,4.012
			s-65.429-33.05-74.17-92.227C245.598,64.497,271.335,35.758,275.089,37.451z"/>
		<path clip-path="url(#SB_SVGID_69_)" fill="#FFFFFF" d="M106.194,29.743c0,0,33.782,48.385,79.142,47.947
			c51.487-0.497,76.831-49.68,76.831-49.68s-4.314-7.779-6.532-4.595c-2.217,3.183-27.018,44.041-69.721,44.455
			c-40.047,0.385-71.175-40.81-73.858-43.459C109.375,21.761,106.194,29.743,106.194,29.743"/>
		<path clip-path="url(#SB_SVGID_69_)" fill="none" stroke="#887F76" stroke-width="0.501" stroke-dasharray="1.003,1.003" d="
			M106.194,29.743c0,0,33.782,48.385,79.142,47.947c51.487-0.497,76.831-49.68,76.831-49.68s-4.314-7.779-6.532-4.595
			c-2.217,3.183-27.018,44.041-69.721,44.455c-40.047,0.385-71.175-40.81-73.858-43.459
			C109.375,21.761,106.194,29.743,106.194,29.743z"/>
	</g>
</g>
  <g id="CUSTOM"></g>
</svg>
