<?xml version="1.0" encoding="utf-8"?>
<!-- Generator: Adobe Illustrator 19.1.0, SVG Export Plug-In . SVG Version: 6.00 Build 0)  -->
<!DOCTYPE svg PUBLIC "-//W3C//DTD SVG 1.1//EN" "http://www.w3.org/Graphics/SVG/1.1/DTD/svg11.dtd">
<svg version="1.1" xmlns="http://www.w3.org/2000/svg" xmlns:xlink="http://www.w3.org/1999/xlink" x="0px" y="0px"
	 viewBox="33 -33 100 100" enable-background="new 33 -33 100 100" xml:space="preserve">

<g id="AREA_1">
	<g>
		<g>
			<polygon fill="#720018" points="92.9,36.1 92.7,35.9 92,36.9 92.2,37 			"/>
			<path fill="#720018" d="M121.3-18.8c-0.2-0.9-1.1-1-1.7-1.5C119.7-19.6,120.9-18.5,121.3-18.8z"/>
			<rect x="83.4" y="-20.4" fill="#720018" width="1.2" height="0.3"/>
			<polygon fill="#720018" points="87.8,-19.5 87.3,-20.1 87.2,-20 87.6,-19.4 			"/>
			<polygon fill="#720018" points="76.1,-18.8 75.6,-18.1 76.6,-18.8 			"/>
			<path fill="#720018" d="M121,10.2c-1.8,1.5-1.9,3.9-4.4,4.7c-0.8,0.2-1.3-0.3-1.4-1c0.2-0.7,1-0.2,1.4-0.7
				c-0.9-0.8,0.6-1.2,0.7-1.7l-4.9,2.2l1.2,1c-0.2,0.2-0.5,0.6-0.9,0.4c0.1,0.9-1.7,0.7-0.7,1.7c-0.2,0.3-0.6,0.4-0.5,0.7
				c0.4,0.3,0.6,1,1.2,0.8c-1.1-1.8,1.8-2.3,2.1-3.5c0.6,0.3,1.5,0.9,1.5,1.7c-0.2,0.3-0.5,0.2-0.7,0.2c-0.5,1.9,2.9,1.3,1.6,3.2
				c-1.4,0.9-2.1-1.5-2.6-1.2l0.5,0.5c0.3,0.7,0.8,1.9,0.2,2.4c-0.8,0.3-0.5-0.7-1.2-0.9v3.2c-1.4-0.5-2.1-1.8-3.2-2.7
				c0.5,1.4-1,0.4-1,1.2l0.5,0.5c-0.2,0.9,1.5,1.7,0.3,2.4c-1.1-0.8-1.1-2.6-2.4-2.6c0.6,1.8-1,1.8-1.7,2.6
				c-3.5,0.6,2.3,1.8,0.5,4.2c-1.1-0.2-0.9-1.7-1.2-2.2c-0.6,1.1,0,1.8-0.5,3c-0.8-1.8-2.5-2.4-3.5-4.4c0.7,1.9,1.7,4.4,1,6.3
				l-1.7-2.4c0.8,1.7,0.6,4.6-0.2,6.4c-1.6-0.9-0.9,2.1-2.4,0.7l0.2,0.7c-0.2,0.2-0.4,0.6-0.7,0.5l0.5,0.5c-0.7,0.9-2.7,1.7-2,3.4
				h-0.2l-0.2,3.7c2.2,2.1-1,3.8-1,5.9c-1.4,0.6-2.5,1.5-4.2,3c-1.7-1.1-3.4,1-4.9,0c-0.7,1.4-1.1-0.7-2.1,0c-0.5,0.8-1,0.3-1.5-0.2
				v1h-0.2v-1h0.2c-0.4-0.4-0.8-0.9-1.2-0.9l-0.5,0.5c-1-0.5-1.2-1.6-2.4-1.2c0.2-1.9-3.1-2-2.1-4c-0.7-1.4,0.3-3.6,0-5.1
				c0.2-1-1.1-1.5-0.3-2.4c1.4,0.9,3.7,0.5,4.5,1.7l0.4-0.5c0.5,0,0.7,0.5,1,0.7c0.4,0.8-0.6,1.9-1,1.4c0.2,1.6,1.5,1.2,2.3,1
				c-0.6-0.4-0.6-1.3-0.7-1.9c1-1.7,2.7,0.2,4.2-0.7c1.2-0.2,3.1-0.7,3.7-0.5c0.2,0,0.5-0.1,0.7,0.2c-0.3,1-0.4,2.5-1.5,2.7H90
				c0.6,0.2,1.1,0.9,0.9,1.6c-1.6,1.1-3.1,1.1-4.9,1v-0.2c-0.9,0.8-2-0.6-2.6,0.2c-0.9-0.4-2.3-0.4-3-0.7l1,1.2
				c2.9,0.9,5.1,0.3,8.6,0.5c1.2-0.6,2-1.8,2.6-3L92,46.6c-2.9-1,0.1-3.2,0-4.9c-1.6,0.2-2.7-0.5-4.2,0.2c-2.6,0.2-5.4,1-7.5-0.7
				c-3,1.2-4.1-1.8-6.6-2.1c0.1-0.4-0.2-0.8,0.2-1c0.3,0.2,0.4,0.6,0.7,0.5l-1.4-1.9c0.3-0.2,0.4-0.4,0.5-0.7
				c-0.8,0.1-1.2-1.7-2.2-1.8c0-0.7,0-1.3,0.1-1.9c-0.1,0.2-0.4,0.3-0.8,0.4c-0.2,0.4-0.8,0.4-1,0c0-0.2,0-0.6,0.3-0.7
				c-1.2-0.6-1.7-1-2.4-2.2c0.5,0,0.9-0.8,1.4-0.2v0.2c0.7-0.1,1.6,0.5,2.2-0.7c-0.3-0.5-1.2-0.7-1-1.4c0.3-0.2,0.4-0.6,0.7-0.5
				c0.3-0.8-0.7-1.1-0.7-1.2l-1.2,1.2c-0.1-0.2-0.6-0.4-0.5-0.7c-0.7,0.2-2.5,1.8-3.7,0.9c-2.4,3.2,0-1.5-1.4-1.4
				c0.3-1,2.1-0.2,1.7-0.5c-0.1-0.1-0.3-0.2-0.3-0.5c0.3-0.1,0.4-0.5,0.8-0.4c0.4,0.1,0.1,0.6,0.2,0.9l0.5-0.9
				c-0.9,0.1-1.6-0.2-2.2-0.8c-1.2,0.5-1.7,1-3,1.5c-0.7-1.5,2-0.9,1.7-2.7c-0.8-0.1-1.9,0.4-2.4-0.4c-0.3-3.3,2-3,4.2-3.3
				c-0.1,0-0.3,0-0.5-0.1c-0.1-0.2-0.6-0.4-0.5-0.7c-0.6,0.5-1.4,0.8-2.4,0.7c-0.4-0.1-0.9-0.5-0.9-1l-1.5,1.7c-1,0.9-0.8,2.9,0.8,3
				c0.3,1.6-0.5,2.9-1,4.2c-1-1.2-1.3,1.4-2.2,1.7l-0.4-0.5c0.3-1.5,1.1-3.2,2.1-4.2c-1.1-0.2-0.6,1.1-1.4,1.4
				c-1.7-1.9,2.3-3.3,0.2-5.3L55.8,20c-0.2-0.4-0.4-0.9-0.5-1.4c-0.4,0.3,0.1,1.3-0.7,1.2v-1.2h0.7c-0.5-1.7-0.5-3.8,0.6-5.4l-1,1
				c-0.4-0.1-0.9,0.2-1.2-0.3c-0.2-0.5,0.3-0.8,0.5-1.2l-1.2-0.2c0.6-0.8-0.2-1.8-0.3-2.4c-0.8-0.5-0.5-2.5-0.2-2.4
				c-1.7-0.4,0.2-2.2-1.4-2.6c-0.5,0.7-0.4,1.9-1.5,2.1c-1.4,0.8,0.8,2.5-0.9,2.7c-0.1,2.4,0.1,5.8-0.1,9c0.2-0.4,0.6-0.8,1-1
				c0,1.2,1.3-0.5,1.2,0.7c0.5-0.5,1.1-1.2,1.7-0.7c-1.4,1.4-0.6,3.8-3,4.2c0.3,1.3,1.7,3.9-0.2,5.1l-1.7-3
				c-0.4,2.3,1.4,3.8,2.2,5.6c0.6-1,2.1-0.6,2.9,0.3c1.7,2.3-2.3,1-2.6,1.7l3.9,4.4l0.3-0.3c0.1,1.3,2.3,1.1,2.1,2.4
				c0.5,2.5,2.1,4.4,4.2,5.9c0.7-1.5,0.3-2.5,0.7-4.2c2.5,0.8-0.8,5.4,2,5.4c-0.2-0.5,0.3-0.8,0.4-1.2c0.7-0.3,0.8,0.5,1.2,0.7
				c1.1-0.9-1.1-2.9,1-3c0.3,1.6,1.6,3.8,0.2,5.2l-0.9-1c-0.7,1.3,3.1,1.2,3.4,3.2l0.3-0.2l0.5,0.5c4-2.5,0.8,3.7,1.4,3.7l0.5-0.7
				c1.6,0.2,0.1,1.6,0.9,2.6h0.5c1.1,0.7,1.4-0.1,1.9-1c0.3,0,0.4,0.2,0.5,0.3c0,0.6,0.1,1.5-0.5,1.7c0.2,1,0.6,0.7,1.2,0.7l0.2,1.1
				c0.2,0.2,0.4,0.3,0.6,0.6l0.8-0.8v1.3c0.6,0.2,1.3,0.4,2,0.6l0.2-0.1c0.1,0.1,0.2,0.2,0.3,0.2c0.1,0,0.2,0,0.3,0.1
				c0.8-0.5,1.9-0.1,2.4,0.4c0,0,0,0,0,0l1.5-1.6c0.2,1.2,1.3,0.8,1.9,1.9c0,0,0,0,0.1,0c0.4-0.7,1-0.5,1.6,0c1,0,1.9-0.1,2.8-0.3
				c0.3-0.1,0.6-0.2,0.9-0.3c0.5-0.9,1.1-1.6,2.5-1.3l-0.3-0.3c-0.1-0.4,0.2-0.7,0.5-0.9l0.5,0.7c0.5-0.9,1.2-0.4,1.8,0
				c0.8-0.3,1.5-0.7,2.1-1.2c0,0,0,0,0,0c0.1-0.2,0.2-0.3,0.4-0.3c0.1-0.2,0.3-0.4,0.4-0.7c-0.2-1.1,0.1-2.4,0.9-3.2
				c1-0.1,1-1.8,0.7-2.6c0.9-1.5,1.6-0.6,2.7-2.2c2,0.2,2-2.2,3.7-2.4c0-3,3.7-3.5,5.1-5.4c0-1.1,0.5-1.1,1.1-0.8
				c0-0.1,0.1-0.1,0.1-0.2c0.3-0.4,0.7-0.6,1.1-0.8c-0.2-0.3-0.4-0.6,0.2-0.9c2.1-0.6,2.6-3.3,3.5-5.2l0.9,0.8l0.5-1
				c0.3,0,0.6-0.1,0.7,0.2c0.5-2.3,2.2-5.3-0.2-7.3h1.9c0.2-0.8-0.6-2.2,0.7-2.4l-0.5-1.9c0.3-0.1,0.4-0.6,0.8-0.5l-0.3-7.3
				C122.3,11.8,122.4,10.1,121,10.2z M117.1,17.8h-0.5v-0.7c0.2-0.1,0.4,0.1,0.5,0.2V17.8z M50.6,11.2v0.7h-0.5
				C50.1,11.6,50.2,11.1,50.6,11.2z M50.1,9.3c0.3,0.1,0.3,0.4,0.3,0.7c-0.2,0.3-0.5,0.2-0.7,0.2L50.1,9.3z M51.1,16.1l-0.5-0.7
				l-0.5,1.4c-1.3-0.6,0.6-1.6,0.3-2.4c0.7,0.3,0.8-0.7,1.4-0.7C51.8,14.3,51.7,15.5,51.1,16.1z M50.9,25.4h0.4
				c0.3,0.3,0,0.9-0.4,1.2V25.4z M51.3,28.8c-0.2-0.5-1.6-0.1-1.4-1.2C50.3,28.9,52.3,27,51.3,28.8z M52.6,11.4l-0.4,0.5l0.2-1.4
				C52.8,10.7,52.6,11.1,52.6,11.4z M55,34.9l-0.2,0.2c-0.6-1.3-3.1-1.2-2.6-3.2c1.2,0,1.7,1.4,3.2,1C56,33.9,53.7,34.2,55,34.9z
				 M64.8,30.8c1.1,0.3,0.2,1.5-0.4,1.9l-1,1C62.4,32.4,64,31.2,64.8,30.8z M60.4,23.6h0.3c0,0.3,0,0.6-0.3,0.8V23.6z M59.7,19.6
				h0.5c0,0.2,0,0.5-0.3,0.7h-0.2V19.6z M57.4,38.6L57,39.1c-0.3-1.7-0.8-3.6,0.7-4.5c2,0.9,0.1,3.3,0.7,4.7
				C58.1,39.3,57.8,38.8,57.4,38.6z M58.5,40c0.5,0.4,0,1.1,0.5,1.5C58.4,41.5,58.1,40.4,58.5,40z M59.9,43.2v-3.7l0.5,0.8
				L59.9,43.2z M60.9,31.3c-0.6-0.5,0.4-1.1,0.2-1.5l0.8,0.5C61.6,30.7,61.4,31.2,60.9,31.3z M62.3,27.6c-0.7-0.8-1.5,0.4-1.9,0.7
				c0.1-0.3-0.3-0.5-0.5-0.7c-0.6,0.6-1.2,1.3-2.1,1.2c-0.3-1.9,1.6-2.4,2.4-3.7c0.5,0.3,1,0.4,1.4,0.9c0.8-0.8,0.6,0.6,1.5,0.3
				C63.3,27,62.6,27.2,62.3,27.6z M62.8,42l-0.2-1.4l0.5,1.2L62.8,42z M63.9,40.5l-0.3-0.7c0.3-0.1,0.4,0.1,0.5,0.2
				C64.2,40.2,64,40.4,63.9,40.5z M64.6,35.1c-0.5,0.3-1.2-0.8-1.2,0.3h-0.5c-0.2-0.7,0.7-1,1-1.5l0.5,0.5C65.2,34,65,32.8,66,33
				C66,33.9,65.2,34.5,64.6,35.1z M66.3,29.7c-0.2-0.4,0.4-0.8-0.3-1.4c0.6,0.4,1.8,0.9,1,1.9C66.7,30.3,66.3,30,66.3,29.7z
				 M68.4,48.6c-0.9-1.6-2-3.6-1.9-5.8c2.2,0.4-0.5,4,2.4,4.1C69.2,47.6,68.6,48.1,68.4,48.6z M69.3,34.2h-0.5v-0.5h0.5V34.2z
				 M76.6,56.9h-0.3v-2.2h0.5L76.6,56.9z M80.3,58.7h-0.3v-0.8h0.3V58.7z M89.4,60.5c-0.6-0.6-1.1-1.3,0.1-1.6l0.3,1.5
				C89.7,60.4,89.5,60.4,89.4,60.5z M96.5,56.4l-0.4-1h0.4V56.4z M99,51l-0.2,0.3l-0.5-1.5C98.9,49.7,99.1,50.8,99,51z M102.2,44
				l-0.3-0.8h0.3V44z M104.2,42.5h-0.3v-1.2h0.3V42.5z M104.7,44.2c-0.3-0.4-0.6-1.4,0.2-1.7C105.5,43.1,104.7,43.6,104.7,44.2z
				 M106.8,30.6c-0.9,0.4-1.1-0.6-0.9-1.2c0.6-0.3,0.7,0.6,0.9,0.9V30.6z M107.9,26.1c0.9,0.3,0.3,1.5,0.5,1.7
				C108,27.5,107.1,26.7,107.9,26.1z M108.8,41.3c-0.2-0.1-0.7-0.8-0.2-1.2h0.5L108.8,41.3z M109.8,26.6l-0.2,0.3
				c-0.8-0.2-1.1-1.1-1.2-1.7C109.2,25.1,109.4,26,109.8,26.6l0.2,0.3c0.2-0.3,0.5-0.3,0.8-0.3c0.2,0.6,1.2,1.2,0.4,1.9l-1.2-1.6
				c0,0,0,0,0,0C109.9,26.8,109.9,26.7,109.8,26.6L109.8,26.6z M112.9,37.9l-2.1,1.4c-0.5-0.3-0.2-1-0.3-1.4c1.1,0,1.6-0.8,1.7-1.7
				C113.6,36.2,112.7,37,112.9,37.9z M115.7,34.9h-0.5v-0.7h0.5V34.9z M117.6,31.5h-0.5v-0.7c0.2-0.1,0.3,0.1,0.5,0.2V31.5z
				 M117.6,27.3v-0.9c0.2-0.1,0.3,0.1,0.5,0.2C118.2,27,117.7,27.1,117.6,27.3z M118.8,24.1h-0.5v-0.7h0.5V24.1z M119.6,29.7h-0.2
				v-1.6C120.1,28.3,119.9,29.3,119.6,29.7z M122,13.1h-0.5v-0.7c0.2-0.1,0.4,0.1,0.5,0.2V13.1z"/>
			<path fill="#720018" d="M64.4-16.4v-0.3c0-0.4-0.1-1.3-0.8-1.6c-2.2-1.3-3.5-1.5-5.8-2.2c-1.8-1.3-3.1-0.6-4.9-0.5l4.2,0.3
				C58.9-17.7,63.6-20.6,64.4-16.4z"/>
			<path fill="#720018" d="M49.2-13.4l0.2-0.3l-0.2-0.2c0-0.6-0.1-1.2,0.5-1.5c-0.9-2.4,3.7-3,1.6-5.1c-0.1,1.7-1.7,1.8-2.1,3.2
				c-0.6,0.5,0.2,1.8-0.7,1.9C48.3-14.7,48.6-13.7,49.2-13.4z"/>
			<path fill="#720018" d="M97.6-17.1v-0.8c-0.1-0.8-0.6-1.3-1.4-1.4C96-18.4,96.8-17.5,97.6-17.1z"/>
			<path fill="#720018" d="M51.6-12.2c-0.1,0.6,1.8,1.4,0.5,2.1c-0.2-0.3-0.5-0.2-0.8-0.2c0.8,0.2,0.3,1,0.8,1.4
				c-0.3,0.2-0.4,0.6-0.8,0.5l1,3.2c-0.2,1.3,2.4,1.6,1,2.7c0.4,0.3,0.6,1.2,1.2,1.2v-0.3c0.5-1.2,2.4-2.1,3.2-3.2
				c0-1.6,2-2,2.6-3.2c0.2-1.1,1.1-0.7,1-1.9c0.7,0,1.3-1.8,2.1-0.5c1.7-2-1.1-1.2-0.4-3.5c-0.7-2.3-3.9-0.5-3.7-3.4l-0.3,0.2
				c-1-1.5-2.2-0.1-3.4-1.2c-0.4,1.4-1.2,0.5-2,0.7l-0.2,1.2c-0.8,0.8-1.4,3-1.4,4.2C51.8-11.9,51.7-12.1,51.6-12.2z"/>
			
				<rect x="107.4" y="-18.1" transform="matrix(0.7071 0.7071 -0.7071 0.7071 19.3315 -81.0828)" fill="#720018" width="0.3" height="1.7"/>
			<path fill="#720018" d="M73.6-16.9l-0.3-0.7l-1.6,0.7C72.6-15.2,72.5-18.2,73.6-16.9z"/>
			<path fill="#720018" d="M107.9-11c0.4,1.7,1.7,0.3,2.6,1.4c-0.5,1.2,2.4,1.4,2.2,3.2c2.5,0,2.8,3.6,4.6,4.9l0.3-0.2
				c0.1,0.2,0.6,0.4,0.5,0.7c0.9-1.7,1.2-3.5,0.7-5.1c1.3-1.2,1.3-3.4,1.7-4.7c-0.6,0-1.2,0.1-1.5-0.5l1-0.9
				c0.8-0.9-0.7-1.3-0.5-2.2c1.4-1.6-2.2-0.6-1.7-2.6c-0.8-1.4-1.7,1-2.6,0.2v-0.7l-1.7,1.2c-1.7-2.2-4.4,1.8-5.9,1.9
				C106.6-13.1,108.5-12.4,107.9-11z"/>
			<path fill="#720018" d="M123-15.7c-0.2-0.6-0.4-1.4-1-1.7l0.7,1.9L123-15.7z"/>
			<path fill="#720018" d="M99.3-17.1c-0.4,0.2-0.7,0.8-0.3,1.2C99-16.4,99.8-16.6,99.3-17.1z"/>
			<path fill="#720018" d="M65.5-15.7c0.6,0.9,0.9,2.1,1.3,3C68.8-14.1,66.6-14.8,65.5-15.7z"/>
			<path fill="#720018" d="M65.5-15.7c-0.1-0.2-0.3-0.4-0.4-0.5C65.2-16,65.3-15.8,65.5-15.7z"/>
			<path fill="#720018" d="M105.1-14.7c0.1-0.3-0.1-0.4-0.2-0.5l-0.5,0.9C104.8-14.2,104.9-14.6,105.1-14.7z"/>
			<rect x="106.3" y="-13.4" fill="#720018" width="0.3" height="0.9"/>
			<polygon fill="#720018" points="82.4,-13.2 81.7,-13.2 82.4,-11.3 			"/>
			<path fill="#720018" d="M48.7-11.5l0.5-0.5l-0.7-1c-0.1,2.7-1.2,5.2,0.9,7.6c-0.5,2.2,1,3.5,1.8,5.1C50.1-4.1,48.6-7.3,48.7-11.5
				z"/>
			<path fill="#720018" d="M51.2-0.3c0.2,0.6,0.3,1.1,0.4,1.7C51.6,0.8,51.5,0.3,51.2-0.3z"/>
			<path fill="#720018" d="M81.1-10.9c-0.1-0.2-0.2-0.4-0.4-0.6C80.8-11.3,80.9-11.1,81.1-10.9z"/>
			<path fill="#720018" d="M77.5-4.7l1.5-1c0.2,0.7,0.5,1.4,0.4,2.2l2.2-0.7c0.9,0.8-0.2,1.7,0,2.1L82.4-4c1.3,0.8,1.4-1.2,2.4-1.7
				l0.5,0.5c1.1,0.5,1-0.7,1.7-0.9c1.4,1,0.9,2.6,3,3.4l0.4-0.7c0.3-0.4,0.7-0.3,1,0C91-5,94-6.3,94.1-8.3l0.8,0.2
				c1.6-0.2,3.4-1.4,4.4-0.7l-0.5-1.2c-1.5-1.5-3.7,0.7-5.1,1C93-7.4,92-6.3,90.9-4.9c-1-1.3,1.2-2.5-0.2-3.5l-0.7,1
				c-1.6-0.9,1.3-1.6,0-2.4c-0.8,1-1.1,2.3-2,3.4l-0.4-0.5c0.3-0.8,0.2-1.7,0.9-2.4c-0.6,0.3-0.6-0.4-0.9-0.7l-0.5,0.5
				c-0.9-0.3-0.4-1.4-1.2-1.9l-0.3,1.7c-2.9,2,0.6-2.6-1.9-3C83-12,84-10,82.9-8.5c-1.1-0.4-1.3-1.5-1.8-2.4
				c0.3,0.8,0.2,1.9-0.1,2.6c-1-0.3-0.7-1.6-1-2.4c-0.4,1.9,0.9,3.8-0.2,5.4c-0.7-1.8-0.7-4-1-5.9c-0.6-0.8,1.6-1.7-0.2-1.7
				C78.2-10.5,73.8-7.1,77.5-4.7z M90.2-5.7c0.1,0.8-0.1,1.4-0.5,2h-0.2c-0.8-0.7,0.6-1.9-0.5-2.2C89.4-5.8,89.7-5.6,90.2-5.7z
				 M86.1-6.6l-0.2,0.2l-0.3-0.9L86.1-6.6z M77.3-7.8c0.3,0.6,0.3,1.7,0,2.4c-0.6-0.6-0.5-1.4-0.5-2.2L77.3-7.8z"/>
			<path fill="#720018" d="M91.4-3.5c0,0.2,0.1,0.3,0.3,0.5C91.7-3.1,91.6-3.3,91.4-3.5z"/>
			<path fill="#720018" d="M122.5-7.2c-0.1,0.7-0.2,1.4-0.2,2.1C122.4-5.8,122.4-6.5,122.5-7.2z"/>
			<path fill="#720018" d="M123-13c-0.7,1.7-0.5,3.9-0.6,5.8C122.8-9.1,123.2-11.1,123-13z"/>
			<path fill="#720018" d="M73.1-7.6l1.7-1.7c0.8,1-0.5,2.5-0.5,2.7c0.9-1.5,2.2-3.4,1.7-4.9c-0.5,0.5,0,1.6-1,1.7l-0.2-3l-0.3,1.4
				L73.6-12C72-10.8,73.6-9.6,73.1-7.6z"/>
			<path fill="#720018" d="M65.1-5.9l-0.7-0.7c-1.1,0.9-2.2-1.3-2.7-0.3l0.5,0.5c0.1,0.8,0.8,1.4-0.2,1.9c-0.4,0.1-0.5-0.3-0.8-0.4
				c0.3,1,1.6,2.1,0.5,3.2c2-0.3,4.2-4.7,6.1-5.2c0.3-0.5,0-1.3,0.7-1.6l0.8,0.7c0-1.3,1.8-0.7,2.6-1.2c0.7-0.7-0.3-1.3-0.5-1.9v0.7
				c-0.9,0.3-1.6-1.1-2.6-1.2v2.6c-0.8-0.5-1.3,2.3-2.2,0.3c0,0.2,0.1,0.5-0.2,0.7c-0.5-0.1-1.1,0.2-1.5-0.3
				C64.9-7.3,65.7-6.6,65.1-5.9z"/>
			<polygon fill="#720018" points="102.7,-11.3 102.7,-10.1 103,-11.3 			"/>
			<path fill="#720018" d="M101.9-7.3c-0.7-0.3-0.4-1.1-0.5-1.7l-0.7,1.7C101.2-6.8,101.6-7,101.9-7.3z"/>
			<path fill="#720018" d="M102.5-7.8L102.2-8l-0.4,0.5l0.1,0.2C102.1-7.5,102.3-7.7,102.5-7.8z"/>
			<path fill="#720018" d="M101.9-7.3C101.9-7.3,101.9-7.3,101.9-7.3C101.9-7.3,101.9-7.3,101.9-7.3L101.9-7.3z"/>
			<path fill="#720018" d="M104.4-7.1c0.4-0.2,0.4-0.8,0-1l-0.9,1.7C103.8-6.6,104-7.1,104.4-7.1z"/>
			<path fill="#720018" d="M105.6-6.4c-0.1,0.1-0.2,0.1-0.2,0.2L105.6-6.4z"/>
			<path fill="#720018" d="M104.2-4.2c1.1,0.8,2.3,1.6,3.2,0c-0.5-0.1-1.1,0.2-1.4-0.3c-0.1-0.8,0.9-1.2,1.4-1.9
				c-0.7,0.2-1.2,1.5-1.9,1c0.1-0.2-0.1-0.5,0-0.8l-1.7,2H104.2z"/>
			<path fill="#720018" d="M72.9-5.4l-0.3,1.2c-0.2,0-0.6,0-0.7-0.3c-0.2,0.2-0.4,0.6-0.7,0.5c-0.4,0.7,0.9,1.3-0.3,1.7
				c-1.1-1.3-1.4,1.2-2.6,0.7l0.2,0.3L67,0.7l1.4,1.2l0,0c0.7-0.7,1.5-1.3,2.5-1.6C70.5-2.2,76.2-2.3,72.9-5.4z M71.7-3.5l0.9,1
				C72.2-2.2,71.6-2.7,71.7-3.5z"/>
			<path fill="#720018" d="M67.8,2.6c0.1,0,0.2-0.1,0.2-0.2L68.4,2C68.2,2.2,68,2.4,67.8,2.6z"/>
			<path fill="#720018" d="M64.6,2.9l1,1.5l-3,0.9c-0.1,0.3,0.1,0.4,0.2,0.5L61.6,7c0.6-0.2,1.7-0.3,1.7-0.9c2-0.3,3.1-2,4.5-3.5
				C66.7,3.3,65.3,1.1,64.6,2.9z"/>
			<path fill="#720018" d="M102.8,9c0,0.1-0.1,0.2-0.1,0.2C102.7,9.2,102.8,9.1,102.8,9z"/>
			<path fill="#720018" d="M96.1-5.2c-1.5,1.8,0.6,2.6,0.7,4.4C97-0.9,97.1-1.1,97.4-1c0.1,0.2,0.5,0.4,0.4,0.7c1.2,1,4.5,2.3,2,4.4
				c-0.2-0.2-0.6-0.3-0.5-0.7h-0.5c0.8,0.4,0.2,0.8,0,1.2c-0.4-0.1-0.9,0.2-1.2-0.2c0-0.5-0.1-1.1,0.2-1.5l-1.6,0.5
				c0.1-0.9-2.1-0.1-2-1.7c-0.7-0.3-0.9-0.8-1.9-0.2c0.2-1-1.4-1.6-0.5-2.6c-2.2,1.4-2.1,5.1-2.4,7.5c-0.4,0.4-0.3,1.4-1.2,1.2v0.5
				c-0.1,1,2.5,2,0.5,2.6l1.9-0.5l1,4.5c0.6-1.8-1.2-3.2-0.2-4.5c-0.3,0-0.6,0.1-0.8-0.2c0.1-0.4-0.2-0.9,0.3-1.2
				c2.2,1.6,3.7-2,5.6-2.6C98.3,5.5,99.6,7,101,7c0.5,0.4,1.8,1.3,1.7,2c0.1-0.2,0.2-0.3,0.4-0.4c-0.5-1.2-1.8-1.4-1.7-3l-0.2,0.2
				c-0.6-0.1-1.3-0.5-1.4-1.2c0-0.7,0.8-0.8,1.4-0.7c0.7,0,0.6,0.8,1,1.2l0.2-0.2c0.7,1.1,2.7,2.1,4.2,2.1V6.5
				c-0.3,0-0.6,0.1-0.7-0.2c-0.3-0.6,0.4-0.8,0.7-1.2c-1,0.3-1.5,0-2.4-0.2c-0.2-0.7,0.3-1.1,0.7-1.5c-0.1-0.4-0.6-1.1-1.2-0.9
				l-0.2-2L103,0.9c0.3,0.2,0.2,0.5,0.2,0.7c-2.6,1.8,0.1-2-1.7-2.9C98.5-0.9,98.9-5.4,96.1-5.2z M99-1.2c0.1,0.2-0.1,0.3-0.2,0.4
				h-0.5C98.5-1,98.5-1.9,99-1.2z"/>
			<path fill="#720018" d="M102.2,9.5c0.3,0,0.3-0.1,0.4-0.2C102.6,9.3,102.5,9.4,102.2,9.5z"/>
			<path fill="#720018" d="M109.1-3.5c-1.7,0.5-1.8,1.7-1.5,3.2C110-0.7,107.4-2.7,109.1-3.5z"/>
			<path fill="#720018" d="M59.7-2.7c-1.2,1.4,0.2,1,1,0.5L59.7-2.7z"/>
			<path fill="#720018" d="M64.7,18.6c0.6-0.1,1.1-0.3,1.6-0.6C65.7,17.5,65.3,18.4,64.7,18.6z"/>
			<path fill="#720018" d="M71.6,31.4c0.1-0.6,0.3-1.3,0.5-1.9C71.1,30,71.4,30.7,71.6,31.4z"/>
			<path fill="#720018" d="M74.7,35.1c0.5-0.4,1-0.7,1.5-0.6c-0.5-0.7-0.3-1.4-0.6-2.3C75.2,32.7,75.4,34.2,74.7,35.1z"/>
			<path fill="#720018" d="M82.9,45.4c0.2,0.1,0.4,0.2,0.7,0.2C83.7,45.3,83.4,45.3,82.9,45.4z"/>
			<path fill="#720018" d="M71.6,31.4c-0.1,0.3-0.1,0.6-0.1,0.9C71.7,32,71.7,31.7,71.6,31.4z"/>
			<path fill="#720018" d="M119.7,1.4L116.4,0l1,1.2c-0.3,3.3,3.5,5.2,2.4,8.6c1.3-0.7,0.2-1.4,1-2.2h-0.3c-1-0.2-0.9-1.3-1.2-1.9
				c0.3-0.2,0.4-0.6,0.7-0.5V4.4c-1.9-2.2,2.7-4.3,0.8-6.8C119.7-1.5,120.1,0.1,119.7,1.4z"/>
			<path fill="#720018" d="M58.5,2.1c-0.7-1,0.3-2.3,0.2-3.2c-1.3,0-0.1,2.3-1.9,1.4l0.7,0.8c0.1,0.3-0.3,0.4-0.4,0.7
				c-0.2-0.1-0.3-0.3-0.5-0.3v0.8c0,0.1,0,0.2-0.1,0.3C57,2.7,58,2.7,58.5,2.1z"/>
			<path fill="#720018" d="M56.5,2.7c-0.2,0-0.4,0-0.4,0.1C56.2,2.9,56.4,2.8,56.5,2.7z"/>
			<path fill="#720018" d="M60.2-0.5v0.7h-0.3v1.2l1.2-1C60.9,0.1,60.8-0.8,60.2-0.5z"/>
			<path fill="#720018" d="M114.5,2.4C114.5,2.5,114.5,2.4,114.5,2.4C114.5,2.3,114.5,2.3,114.5,2.4z"/>
			<path fill="#720018" d="M113.2,5.6l-0.5-0.5c-0.3-0.6,0.5-0.8,0.7-1.2l1,0.7c0.4-0.2,0.4-0.7,0.7-0.9c-0.7,0.6-0.7-0.8-0.7-1.2
				c-1.4-0.1-2.1,2.9-3.4,1.4c-0.3-0.6,0.5-0.8,0.7-1.2c-0.5-0.9-1.2,0.8-1.7-0.5l-0.4,0.5C110.5,3.9,111.2,6.1,113.2,5.6z"/>
			<rect x="57" y="4.4" fill="#720018" width="1.2" height="0.2"/>
			<path fill="#720018" d="M53.4,7.7c0.2,0.3,0.6,0.8,0.9,0.3C54.1,7.5,53.7,7.8,53.4,7.7z"/>
			<path fill="#720018" d="M106.3,12.6l-1.9,0.5c-0.6-0.8-2.2-0.3-2.1-1.7c0.5-0.4,0.9-1.3,1.6-1.2c0.1,0.3,0.5,0.6,0.5,0.8l0.5-1
				c-0.2-0.4-0.7-0.4-1-0.7c-0.1,0.7-1.1,1.2-1.9,1.4c-0.9-0.8-2.6-0.8-2.6-2.4c-2.2-0.1-4,1.9-5.2,3.5l1.2-0.7
				c0.3,1.1,1.2,1.9,2.4,1.9c0.6-0.3,1.5-0.9,1.5-1.7c-0.4-1.1-2.6-0.3-1.9-1.7c1.1-0.3,2.4,0.3,3.4,1.2c0.7,1.3-0.9,2.5-1.9,3.2
				c-1.3,0.7-2.7,0-3.5-1.2c-0.2,0.2-0.3,0.6-0.7,0.5c-0.5,1.5,1.7,1.8,1.5,3.2c-1.1,2.3,2.4,5.1,3.2,7.6c-0.2-1.2,0.5-2.3,1.9-2.2
				l-0.5-1.4c0.3,0.1,0.8-0.2,1,0.2V20c0.4-0.4,1.1-0.1,1.7-0.2c0-0.3-0.1-0.6,0.2-0.7c0.1,0,0.2,0.1,0.2,0.3c0,0,0,0,0,0l0.3-0.9
				l-0.5,0.4l-1-1.4C102.6,14.8,105.7,14.7,106.3,12.6z M97.8,11.4c0.1,0.3-0.1,0.4-0.2,0.5l-0.5-0.7C97.4,11.2,97.7,11.1,97.8,11.4
				z M103,18.7c0.1,0.3-0.1,0.4-0.3,0.5h-0.4v-0.7C102.5,18.5,102.8,18.4,103,18.7z"/>
			<path fill="#720018" d="M103.9,19.3C103.9,19.6,103.9,19.5,103.9,19.3L103.9,19.3z"/>
			<path fill="#720018" d="M104.4,11l-0.2,0.4C104.4,11.3,104.4,11.2,104.4,11z"/>
			<path fill="#720018" d="M57.6,8.8c-0.2-0.1-0.4-0.5-0.8-0.2V9C57.1,9.1,57.3,8.9,57.6,8.8z"/>
			<path fill="#720018" d="M57.9,8.6c-0.1,0-0.3,0.1-0.4,0.2C57.7,8.8,57.8,8.8,57.9,8.6z"/>
			<path fill="#720018" d="M115,9.6c-0.3-0.2-0.5-0.5-0.3-0.8l-2.4,0.5c0.2,0.4,0.7,0.6,0.5,1.2C113.7,11.2,114.3,10.2,115,9.6z"/>
			<path fill="#720018" d="M115.9,9.3c-0.3,0-0.6,0.1-0.9,0.3c0.1,0.1,0.1,0.1,0.2,0.2L115.9,9.3z"/>
			<path fill="#720018" d="M86.8,11.4l0.5-0.4c0.3,0.1,0.4,0.5,0.7,0.4c0.1-0.4-1-1-0.9-1.4L86.8,11.4z"/>
			<path fill="#720018" d="M82.7,10.5c-0.3,1,1.3,1,1.4,0.9c-0.5-0.2-1.3-0.3-1-1.2L82.7,10.5z"/>
			<path fill="#720018" d="M58.7,10.7h-0.7l0.5,0.5C58.6,11.1,58.8,10.9,58.7,10.7z"/>
			<path fill="#720018" d="M93.2,14.4c-2.2,1.4,0.8,3.4-0.5,5.2C95.1,18,92.3,16.6,93.2,14.4z"/>
			<path fill="#720018" d="M92,19.3c-0.5,1.4-1.2,2.1,0,3.5c1.9-0.8-0.9-2.1,0.7-3.2C92.4,19.6,92.1,19.6,92,19.3z"/>
			<polygon fill="#720018" points="59.7,15.4 58.5,15.1 59,16.1 			"/>
			<polygon fill="#720018" points="77.8,16.8 77.3,17.3 78.7,16.8 			"/>
			<path fill="#720018" d="M111.7,19H111l0.5,0.5C111.6,19.4,111.8,19.3,111.7,19z"/>
			<path fill="#720018" d="M63.6,21.2c1,0,1.1,0.2,1.2-0.7C64.2,20.4,63.8,20.7,63.6,21.2z"/>
			<path fill="#720018" d="M106.3,23.4l-0.2-1.4C105.1,22.6,107,24.1,106.3,23.4z"/>
			<path fill="#720018" d="M85.3,22.4l-0.7,1.7l-1.2-0.5v0.3c0.2,0.9,1.8,2.6,1.9,2.1c-0.4-0.2-0.5-0.7-0.5-1.2
				c0.4-0.8,0.9-0.1,1.5-0.2v-0.7C86.7,23.1,85.9,22.6,85.3,22.4z"/>
			<path fill="#720018" d="M89.7,23.4c-0.7,0.1-1.6,1-2.1,0v1.9c1.1,0.8,2.6-0.2,4.4-0.2c1.5,1,0.9,3.7,1.9,3.9l0.7-0.9
				c-1.8-1.3-0.3-3.9-2.1-5.2v1.7L90,24.9L89.7,23.4z"/>
			<path fill="#720018" d="M98.8,25.7c-0.1,0.2-0.1,0.3-0.1,0.5C98.8,26,98.9,25.9,98.8,25.7z"/>
			<path fill="#720018" d="M97.4,25.4c0.4,0.7,0,2.2,1.2,1.9c0.9-0.2,0.3-0.6,0.1-1.1c-0.1,0.1-0.3,0.3-0.5,0.4
				c-1.3-0.8-0.2-3-1.2-3.7C97.6,23.9,97.3,24.2,97.4,25.4z"/>
			<path fill="#720018" d="M79.4,25.2c-1.2-0.3-1.5,1.5-2.1,2.4h0.5C77.6,25.7,79.4,26.9,79.4,25.2z"/>
			<path fill="#720018" d="M89,28.2c0.3,0,0.5,0.1,0.7,0.2C89.5,28.2,89.2,28.2,89,28.2z"/>
			<path fill="#720018" d="M84.8,28.5c1.5-0.1,2.7-0.5,4.2-0.4c-1.3-0.2-2.8-0.1-4.2-0.1V28.5z"/>
			<path fill="#720018" d="M87.1,39.5c0-0.1,0-0.1,0-0.2C87.1,39.4,87.1,39.5,87.1,39.5z"/>
			<path fill="#720018" d="M84.2,38.2l1.2,0.9C85.3,38.3,84.7,38.3,84.2,38.2z"/>
			<path fill="#720018" d="M93.2,33.2c1.2-2.2-1.1-3.1-1.7-4.7l-0.2,0.3l0.2,0.2c0,0.6,0.1,1.2-0.5,1.5c-0.8-0.6-2.4-0.5-3.7-0.5
				c-1.9,0-3.8,1-5.6,0.5c-0.6-1.4,1.5-1.8,1.4-2L81,29.7c-1.7,1.8-0.6,4.9,0.5,5.9l0.2-0.2c0.8-0.1,1.4,0.8,1.7,1.4L83,37.3
				l0.7,0.5c0.2-1-0.3-1.4,0.3-2.1c0.7-0.1,1.2,0.2,1.6,0.7c0,0.3,0.2,0.8-0.2,1c0.7,0.4,1.7,1.1,1.7,1.9c0.1-0.7,1.1-1.1,1.4-1.2
				h-0.2c-1.2-1,0.1-2.2,0.5-3.2c0.2,0,0.5-0.1,0.7,0.2c-0.1,0.6,0.2,1.3-0.3,1.7h0.5l0.3-1.4l1.2,0.2C91.7,34.3,93,34.6,93.2,33.2z
				 M81.7,33.7c-0.8-0.5-1.1-1.6-1-2.2c0.1,0.7,0.7,1.2,1.2,1.7c1.5,0.1,2.4-2.6,4-1C85.5,33.8,83.1,33.2,81.7,33.7z M86.6,37.4
				h-0.5v-0.7c0.2-0.1,0.4,0.1,0.5,0.2V37.4z M88,32.5c-0.1-1.1,1.4-1.1,2-0.7c0.5,0.5,1,1.2,1.9,0.9v0.7
				C90.3,33.3,89.4,32.9,88,32.5z"/>
			<polygon fill="#720018" points="82.9,37.4 83,37.3 82.7,37.1 			"/>
			<path fill="#720018" d="M84.2,38.2l-0.5-0.4c0,0,0,0.1,0,0.1C83.8,38.1,84,38.1,84.2,38.2z"/>
			<path fill="#720018" d="M77.5,29c0,0.3,0.1,0.6-0.2,0.7c-0.4,0.1-0.5-0.3-0.7-0.4l0.2-0.3l-0.7-0.2c0.4,0.5,0.2,1.7-0.5,1.7
				c0.7,0.4,1.1-0.4,1.7,0C76.9,29.8,78.4,29.6,77.5,29z"/>
			<path fill="#720018" d="M99.5,30.3L100,31v-0.4C99.9,30.4,99.7,30.2,99.5,30.3z"/>
			<polygon fill="#720018" points="82.2,39.8 82.9,39.3 82.4,38.8 			"/>
			<path fill="#720018" d="M92.9,41.6c0.3,0.2,0.4,0.4,0.5,0.7v-0.7H92.9z"/>
			<path fill="#720018" d="M93.4,42.2v1.3C93.4,43.1,93.5,42.6,93.4,42.2z"/>
			<path fill="#720018" d="M93.4,44.2v-0.6C93.4,43.8,93.4,44,93.4,44.2z"/>
			<path fill="#720018" d="M85.6,44.6c-0.7,0.1-1.3,0.3-1.3,0.9h1c0.4,0.2,0.4,0.7,0.7,1c0.4-1.2-0.5-0.7-0.9-1.5
				C85.3,44.8,85.4,44.6,85.6,44.6z"/>
			<path fill="#720018" d="M85.6,44.6c0.7-0.1,1.5-0.2,2-0.6C86.9,44.2,86.2,44.2,85.6,44.6z"/>
			<path fill="#720018" d="M92.9,50.1c1.6-0.9,1.9-2.9,1.7-4.7c-0.4,2.2-2.9,4.7-5.1,5.1C90.7,51.3,91.8,50.3,92.9,50.1z"/>
			<path fill="#720018" d="M77.8,46.4c-0.3,2.1,2,3.6,2.9,3.7C79.3,49.2,78.8,47.4,77.8,46.4z"/>
			<polygon fill="#720018" points="81.5,50.5 84.6,51 84.6,50.8 81.5,50.3 			"/>
			<path fill="#720018" d="M87.1,51.5l-1.9-0.2C85.8,51.4,86.4,52,87.1,51.5z"/>
			<polygon fill="#720018" points="91.3,38.8 90.7,38.8 90.4,40.5 			"/>
			<path fill="#720018" d="M48.2,21.7c0.1-0.9,0.2-1.9,0.2-2.9C47.9,19.6,47.8,20.7,48.2,21.7z"/>
			<path fill="#720018" d="M68.4,17.8c-0.7,0.4-0.8,1.6-1.2,1.9c0.9,0,2.2-0.2,2.4,0.7c-0.2,0.8-1,0.2-1.4,0.7h1
				c0.6,2.2,2.5-0.1,3.7,0.5c0.1,0.4-0.4,0.5-0.5,0.7c1.4,0.9-0.7,2-0.5,2.4c1.3,0.1,1.6-0.8,2.6-1.4c0.8,0.9-1.3,1.6-0.7,2.4
				l1.7,0.2c-1.5-0.6-0.2-1.9-0.2-2.9c-0.3,0-0.6,0-0.8-0.3c0-0.6,0.3-1,0.8-1.4c-1.6-3.5,4.2-6.5,0.4-9.1c0.9-1.5,2,1.5,2.2,0.5
				v-0.3c0.3-0.2,0.5-0.6,1-0.4c-0.3-0.2-0.4-0.6-0.8-0.5c0.1,0.2-0.1,0.3-0.2,0.5L76.8,11c-1.7-0.9-3.4-1.2-4.9-2
				c-1.5,1.1-1.8,3.7-3.5,5.2c-0.9,0.2-1.6-1-2.1-1.2l0.5-0.5l0.2,0.2c0.2-1.2,0.3-3.1,1.7-3.4c-0.3-0.9,1.4-1.2,0.7-1.9
				c1.4-0.3,3.3-1.4,4.4,0c2.3,0.2,4.7,1.6,6.8,2.9c0.5,0.8,0.5,1.6,0,2.4l-0.2-0.2c-0.2,1-1.3,2.3-1.8,2c0.2,0.2,0.1,0.4,0.1,0.6
				h1.5l-0.3-0.2c2.1-1.5,0.7-5,3.2-5.9c-0.4-1.4,1-3.4-0.2-4.9c0.3-3.2-2.2-4.6-3.5-6.5c0.4,0.9-0.8,1.6-1.4,0.9
				c-0.4,1.1,0.6,1.6,1,2.4c-1.1,0.8-2-1.6-3-0.5l0.2,1.7c-0.5,0.4-0.7,1.9-1.7,1.9c0.1,1.8-2.7,0.4-3.2,2.2
				c-1.2-1.2-1.7,1.5-2.6-0.5l0.2-0.2c-0.3,0.1-0.8-0.2-0.9,0.2c0.6,0.5,1.2,1.4,0.4,2.2c-0.4-0.3-1.2-0.4-0.9-1.2H67
				c0.1,0.2-0.1,0.3-0.2,0.5c0.3,0.4,1.1,0.7,0.9,1.4C67.5,9.2,67.1,9,66.8,9c-0.4,0.1-0.6-0.3-0.5-0.7c-0.2,0.3-0.5,0.3-0.7,0.3
				l0.7,1.2c-0.6,1.5-2.3,1.7-3.7,2.1c0.2,0.3,0.7,0.6,0.7,1c0,0.6-0.4,1.4,0.7,1.4c0.5-0.4,1.5-0.5,1.5-1.4
				c1.8,0.9-0.5,2.2-0.3,3.7c-0.5,0.5-1.4-0.1-1.9,0.5c0.3,0.1,0.2,0.4,0.2,0.7C65.4,16.1,67,17.3,68.4,17.8z M72.6,10.5
				c0.7,0.1,1.6-0.2,2.2,0.2c-0.8,0.4-1.7,0.6-2.4,1.2c0,1,0.7,1.2,1.4,1.7c0.6-0.1,1.3,0.2,1.7-0.2v0.7c-1.8,0.8-3.6-0.4-4.7-1.5
				C70.4,11.4,71.9,10.9,72.6,10.5z M74.3,12.4h-0.5v-0.7c0.3,0,0.6-0.1,0.7,0.2C74.7,12.1,74.4,12.3,74.3,12.4z M70,18.7
				c0.2,0,0.3,0.2,0.5,0.3l-0.8,0.7C69.3,19.5,69.5,18.9,70,18.7z"/>
		</g>
		<g>
			<path fill="#720018" d="M87.6,62.2c-3.1,0-6.9-0.3-8.3-0.5c-2.1-0.3-5.5-3.1-7.4-4.6c-0.4-0.3-0.8-0.6-0.9-0.7
				c-0.8-0.5-2.2-2.4-2-3.5c0.1-0.3-0.2-1.3-0.5-2c-1-0.5-5.1-2.9-8.7-4.8c-3.8-2.1-5.1-6.4-5.4-7.6c-0.5-0.3-1.7-1-3.3-2
				c-1.5-1-2.9-4.2-4.1-7c-0.5-1.1-0.9-2.2-1.3-2.9c-1.3-2.3-0.7-4.6-0.2-6.4c0-0.1,0.1-0.3,0.1-0.4c0.5-1.7,1.1-6.3,1-8.5
				c-0.2-4.1,2.2-7.5,3.1-8.6C49,1.5,46.8-2.8,45.9-9.1c-1.2-8.2,1.5-11.4,3.2-12.6c2.1-1.5,3.2-1.7,7.4-1.7c5.1,0,9.9,5.2,11.2,6.8
				c1.7-1.2,7.5-4.6,17.9-5.3c10.6-0.7,16.1,3.6,17.7,5.1c1.3-1,4.7-3.8,6.2-4.7c4-2.6,8.5-1.4,11.6,0.1c2.2,1,3.4,3.9,3.6,8.4
				c0.2,3.3-0.3,6.6-0.4,7.5c-0.1,0.7-0.6,2.3-1.1,4.2c-0.6,1.9-1.4,4.8-1.4,5.3c0.1,0.9,1.8,5.3,2.2,6.1c0.5,1.1,0.6,11.2,0.6,11.3
				c0,2.4-2.1,10-2.7,11.1c-0.3,0.5-0.7,1.2-1.3,2c-0.6,0.8-1.1,1.7-1.5,2.3c-0.6,1.3-7,6.3-8.4,7.4c-1.2,1.4-2.6,2.9-2.7,3.1
				c-0.1,0.1-0.3,0.5-4.1,2.9c-0.2,0.3-0.7,1.2-1,2c-0.1,0.2-0.1,0.4-0.2,0.6c-0.8,2-1.6,4.3-1.9,4.9c-0.5,1-2.8,2.1-3.7,2.1
				c-0.4,0-2.4,0.9-3.5,1.4c-0.6,0.3-1.2,0.6-1.7,0.7C91.3,62.1,89.6,62.2,87.6,62.2z M56.6-22.1c-4.1,0-4.9,0.3-6.7,1.5
				c-1.5,1-3.8,3.9-2.7,11.4C48.3-2.2,51,2.5,51,2.5l0.2,0.4L51,3.3c0,0-3.3,3.7-3,8.1c0.1,2.3-0.5,7-1,8.9c0,0.1-0.1,0.3-0.1,0.4
				c-0.5,1.7-1,3.6,0,5.4c0.4,0.7,0.8,1.8,1.4,3c1,2.4,2.4,5.6,3.6,6.5c1.9,1.3,3.4,2.1,3.4,2.1l0.3,0.1l0.1,0.3c0,0,1.1,4.9,4.9,7
				c4,2.2,8.9,4.9,8.9,5l0.2,0.1l0.1,0.2c0.2,0.5,0.8,2.1,0.7,2.9c0,0.4,0.9,1.9,1.4,2.2c0.2,0.1,0.4,0.3,1,0.8c1.5,1.2,5,4,6.8,4.3
				c2.8,0.4,10.7,0.7,11.9,0.2c0.4-0.2,1-0.4,1.6-0.7c2.1-1,3.4-1.6,4.1-1.6c0.5,0,2.3-0.9,2.5-1.4c0.3-0.6,1.3-3.4,1.8-4.7
				c0.1-0.3,0.2-0.5,0.2-0.6c0.4-1,1.1-2.3,1.2-2.3l0.1-0.1l0.1-0.1c1.7-1.1,3.6-2.4,3.9-2.7c0.3-0.5,2.3-2.6,2.9-3.3l0,0l0,0
				c3.7-2.9,7.8-6.3,8.1-7c0.3-0.7,1-1.6,1.5-2.5c0.5-0.7,1-1.4,1.2-1.9c0.5-0.9,2.5-8.4,2.5-10.5c0-3.3-0.2-10-0.4-10.7
				c-0.4-0.7-2.1-5.4-2.3-6.5c-0.1-0.6,0.4-2.3,1.4-5.8c0.5-1.7,1-3.4,1.1-4c0.2-1.3,1.8-12.5-2.5-14.5c-5.1-2.4-8.4-1.4-10.4-0.2
				c-1.7,1.1-6.4,5-6.5,5l-0.5,0.4l-0.4-0.5c-0.1-0.1-5.3-5.9-17-5.1c-6.2,0.4-10.7,1.9-13.4,3c-2.9,1.2-4.3,2.4-4.3,2.4l-0.5,0.4
				l-0.4-0.5C67.1-15.4,61.9-22.1,56.6-22.1z M107,46.4C107,46.4,107,46.4,107,46.4C107,46.4,107,46.4,107,46.4z M122.9,10.6
				C122.9,10.6,122.9,10.6,122.9,10.6C122.9,10.6,122.9,10.6,122.9,10.6z"/>
		</g>
	</g>
</g>
</svg>
