<?xml version="1.0" encoding="utf-8"?>
<!-- Generator: Adobe Illustrator 19.1.0, SVG Export Plug-In . SVG Version: 6.00 Build 0)  -->
<!DOCTYPE svg PUBLIC "-//W3C//DTD SVG 1.1//EN" "http://www.w3.org/Graphics/SVG/1.1/DTD/svg11.dtd">
<svg version="1.1" xmlns="http://www.w3.org/2000/svg" xmlns:xlink="http://www.w3.org/1999/xlink" x="0px" y="0px"
	 viewBox="33 -33 100 100" enable-background="new 33 -33 100 100" xml:space="preserve">

<g id="AREA_1">
	<g>
		<path fill="#720018" d="M122.5,3.6c-2.1-2.2-3.7-5-5.9-6.6c-1.4-1.6-0.5-4.2-1.1-6.2c-0.5-0.6-1.1-1.3-1.7-1.7
			c-2.6-0.9-4.8-3.1-6.1-5.5c-1.2-2.4-3.7-2.8-5.8-3.8c-0.7-0.6-1.1-1.4-1-2.3c0.2-1.9,2-3,3.5-4l-0.1,0c-3.8,0.7-7.6,1.4-11.4,1.9
			c-5.6,0.7-10.6,3.2-14.9,7c-2.1-1.5-5.3-2.1-7.8-1l-1.6-1.2c-2.3-0.3-4.6-0.8-6.9-1.1c-0.7-0.1-1.9-0.1-2.7-0.5
			c-2.5-0.4-4.9-0.7-7.3-1c-2.8,1.2-5.6,2.3-8.4,3.5l9.2,5.5c4.3,0.2,8.6,0.3,12.7,0.8c0,0.3-0.1,0.7-0.2,1c-0.2,0-0.5,0.2-0.7,0.1
			L51.7,0c-1.3,5.2-3.1,10.3-4.5,15.5l0.9,6.5l5.8-5.8c1.4-3.9,2.9-7.7,4.4-11.6c-0.4-0.3,0.1-0.7,0.2-1.1c2.8-2.2,5.7-4.3,8.5-6.5
			c-0.8,6-2,11.3-3,17.3l-2.6,14.8l-0.1,0.1c-0.9,5.8-2,11.5-3.1,17.3c-0.5,1.9,0.4,3.7,0.3,5.5c0.6,3.8,1.1,7.5,1.7,11.3
			c0.3,0.6-0.3,2.2,1,1.8c2.1-4.6,4.5-9.2,6.6-13.8c1.6-2.4,1.3-5.7,2-8.3c0.4-3.7,1.3-7.3,1.6-10.9c1.2-6.3,2.2-12.7,3.3-18.9
			l0.2-0.4c0.2,0.8,0,1.7,0.2,2.5c1.3,7.1,2.8,13.9,4.1,20.9c-2,0.6-4.2,0.5-5.7,2.3c-0.7,1.2-0.6,2.9-0.2,4.3
			c0.4,0.8,1.3,0.7,2.1,0.7c0-1.1,0.1-2,0.6-2.9c0.8-1.2,2.2-2,3.6-2.1c0.7,3.7,1.3,7.3,2.1,11l6.4,8.5c1.1-3.1,2.2-6.2,3.2-9.2
			c-0.6-3.2-1.4-6.3-2.1-9.5l0.1-0.1c4.3,1,8.6,1.8,12.9,2.6c5.7,0.8,9.4,6.1,14.3,8.7c-2.2-3-4.5-5.9-6.3-9v-0.2
			c-1.5-2.5,0-5.3,0.5-7.8c0.6-1.9-2.1-2.6-1.4-4.6c1.7-2.5,4.2-4.3,7-5c1.3-0.4,2.8-0.1,3.9-0.9c0.7-1.7,1.2-3.5,1.2-5.4
			c-0.2-0.8-1-1.3-1.6-1.6c1-1.3,2.5-2.7,1.6-4.4c-0.3-0.3-0.8-0.3-1.2-0.5c0.2-0.2,0.4-0.5,0.5-0.7c0.5-1,0-2-0.3-2.9
			c0.6-0.5,1.5-1,1.8-1.8C122.9,5,122.8,4.1,122.5,3.6z M80.9-9.7l5.3,3.9c1.5,2.4,2.8,5,4.2,7.5c-1.9-0.6-4-1.4-5.9-2.1l-4.2-4.4
			c1.4-0.7,1.2,1.2,1.9,1.8c0,0.1,0.1,0,0.2,0c-0.1-0.6-0.5-1.3-0.7-1.9c0.6,0,1.2-0.1,1.6,0.4c0.7,1.1,1.3,2.2,2.1,3.2l0.1-0.1
			c-0.5-0.9-1.2-1.7-1.6-2.6l2.1,1.6L86-2.6l2.4,2.3l0.2-0.1L86-3c-0.5,0-0.8-0.5-1.2-0.7C85.2-4,85.9-4,86.2-4.4
			c-0.5,0.1-1.1,0.3-1.6,0.5c-0.6-0.5-1.4-0.9-1.9-1.6c0.7-0.2,1.5-0.2,2.1-0.6l-0.1-0.1c-0.7,0.2-1.4,0.3-2,0.6
			c-0.7-1.1-1.1-2.5-1.8-3.7L80.9-9.7z M82-5.3h-0.8C81.1-5.6,81-6,80.7-6.2c-0.1,0.3,0.2,0.5,0.2,0.8c-0.7,0-1.4,0.2-1.8-0.6
			c0.1-0.4,0.4-0.7,0.7-1C80.6-6.4,81.3-6,82-5.3z M80.1-7.3c0.3-0.4,0.3-1,0.6-1.4c0.4,1,0.9,1.9,1.3,2.9L80.1-7.3z M72.9-19
			c1.3,0,3.1,0.5,4.4,1.3c2.6,1.8,3.8,4.8,3.3,7.8c-0.5,2.7-3,5.4-5.7,6C72-3.1,69-4.1,67.1-6.5c-1.8-2.1-2.1-5.5-0.9-8
			C67.4-17.2,70.1-18.9,72.9-19z M65.6-19.9c1.3,0.6,2.9,0,4,1.4c-0.9,0.4-1.8,1.3-2.5,1.9c-3.2-0.5-6.5-0.9-9.5-1.4l1.2-2.8
			C61-20.5,63.6-20.1,65.6-19.9z M52.7-13.7c-2.8-1.7-5.7-3.4-8.5-5.1v-0.2c2.5-1.1,5.1-2.1,7.6-3.2c2.2,0.3,4.3,0.7,6.5,1
			c-0.2,0.9-0.7,1.8-1.1,2.7h-0.1l-2.9-2.4l-0.1,0.1c0.9,0.8,2,1.7,3,2.5v0.2c-0.7,0.1-1.2-0.2-1.9-0.2h-0.2l0,0
			c-0.6-0.8-1.6-1.5-2.2-2.1c-0.4-0.4-0.8-0.8-1.3-1.2l-0.1,0.1c1.2,1.1,2.4,2.3,3.5,3.2l-2.3-0.2c-0.9-0.8-1.8-1.5-2.7-2.2
			l-0.1,0.1c0.7,0.7,1.7,1.3,2.3,2c-1.5,0.4-2.3-1.3-3.5-1.6l0,0c0.6,0.5,1.2,0.9,1.9,1.4c-1.3,0.1-2.7-0.4-4.1-0.2
			c-0.1,0.4,0.4,0.1,0.5,0.3l8.6,0.7c-0.7,0.5-1.6,1-2.4,1.4v0.2h0.2c1.3-0.5,2.2-1.9,3.8-1.4l-0.2,0.5c1.4,1.3,2.7,2.5,4.1,3.8
			C58.2-13.4,55.5-13.5,52.7-13.7z M61.5-13.4l-4.3-3.8l0.1-0.5c3.2,0.4,6.7,1.1,9.5,1.4c-0.7,1-1.3,2-1.5,3.1
			C64-13.2,62.8-13.2,61.5-13.4z M52,0.3c4.1-3.7,8.5-7.6,12.5-11.3c0.2,0.1,0.4-0.1,0.6,0c0,1.3,0.3,2.4,0.9,3.4
			c-0.5,0.6-1,0.1-1.6,0.2c-0.8,0-1.3-0.2-2.1,0v0c1,0.2,2,0.1,3,0.3l-1.7,1.6c-1.3,0.2-3,0.4-4.3,0.7v0.1c1.3,0,2.6-0.4,3.9-0.6
			c-1.6,1.5-3.2,2.8-4.7,4.1c-1.3,0.2-2.8,0.1-4.1,0.4v0c1.3,0.1,2.5-0.2,3.8-0.1c-1.3,1.2-2.6,2.4-4,3.5l0,0
			c-0.3,0.5-0.4,1-0.5,1.5h-0.2c-0.4,0.4-0.9,1-1.3,1.4c-0.3-0.4-0.4-1-0.7-1.5h-0.3C51.3,2.6,51.8,1.5,52,0.3z M53.4,4.3l-0.8,2.5
			c-0.2-0.3-0.4-0.7-0.5-1.2L53.4,4.3z M53.4,16.2c-1.8,1.7-3.3,3.5-5.1,5.1c-0.3-1.9-0.5-3.9-0.7-5.8c1-3.8,2.3-7.6,3.4-11.4
			c0.3,0.5,0.6,1.2,0.7,1.8c-0.7,0.5-1,1.1-1.5,1.7c0,0.1,0.1,0.1,0.2,0.1l1.4-1.5c0.2,0.3,0.3,0.8,0.5,1.2c0.1,0.7-0.3,1.3-0.5,2
			c-0.8,0.6-1.7,1.2-2.3,1.9c0,0.1,0.1,0,0.2,0l1.9-1.6c-0.7,2.8-1.7,5.8-2.7,8.6c0.1,0,0.2,0.2,0.3,0.1l0.1-0.1
			c0.6-2.1,1.2-4.2,2-6.2c0.4,0.8,0.4,1.7,0.9,2.4c0-0.9-0.5-1.8-0.8-2.7c0.4-1.2,0.6-2.4,1.1-3.6c0,0.1,0.2,0.2,0.4,0.2
			c0.2,0.6,0.4,1.3,0.6,1.9c0.1,0,0.2,0,0.2-0.1c-0.1-0.8-1.3-2,0-2.5c1.4-0.9,2.6-2.1,4-3C56.3,8.4,54.9,12.3,53.4,16.2z M58.2,3.3
			c-0.3,0.5-0.3,0.9-0.9,1.2L53,7.6l-0.2-0.3L54.3,3c2.3-2.1,4.5-4,6.8-5.9c-0.2,1-0.7,2-0.7,3.1h0.1l1-3.3c1.5-1.5,3.2-2.9,4.7-4.2
			l0.3,0.6C66.8-6.2,67.5-5.6,68-5c-0.4,0.5-1.1,0.8-1,1.6L58.2,3.3z M61.8,28.6c0.5-2.3,0.8-4.8,1.3-7.1c1-1.2,2.1-2.3,3-3.4
			L66,17.9c-1,1-1.8,2-2.7,3c0.2-2.5,0.9-4.9,1.2-7.4c1.2-5.9,2-11.6,3.2-17.6l0.7-0.6c0.8,0.6,1.9,0.9,2.8,1.3
			C71-2.8,71-2,70.9-1.3c-0.9,1-2,2-2.8,3.1l0,0C69,1.1,70,0,70.7-0.9c-0.2,1.8-0.5,3.7-0.7,5.5l-0.2,0.1c-0.9,1.4-2,2.8-2.9,4.3
			C66.9,9,66.9,9,67,9c1.1-1.3,1.9-2.7,2.9-4c-0.2,1.9-0.5,4.1-0.8,6.1c-1.3,1.4-2.5,2.8-3.7,4.2l0.1,0.1c1.2-1.3,2.3-2.6,3.4-3.8
			c-0.4,3.8-1.1,7.9-1.6,11.7l-0.2,0.1c-1.2,1.8-2.4,3.6-3.7,5.4l0.1,0.1c1.3-1.8,2.4-3.6,3.7-5.3c-0.6,4.7-1.4,9.6-2.1,14.6h0
			c-1-3-2.1-6-3.1-9C61.5,29.4,61.8,28.8,61.8,28.6z M68.3,49.5L60.8,65h0c-0.8-5.7-1.7-10.9-2.4-16.6l0-0.9l2.6-15.3
			c0.2-1.1,0.2-1.7,0.5-2.8l3.3,9.6l-0.1,0.3c-1.1,0.6-2.1,1.3-3.1,2l0.1,0.1l2.9-1.9c0,0.6-0.2,1.3-0.3,1.9l-0.3,0.1
			c-1.3,1.3-2.7,2.4-3.9,3.7c0.1,0.1,0.1,0.2,0.2,0.1l3.8-3.6c-0.1,1.9-0.6,4-1,5.9c-1.4,1.1-2.8,2.3-4.1,3.5l0.1,0.1l3.9-3.4
			c-0.6,3.8-1.3,7.6-1.9,11.4c0.1,0.1,0.2,0.1,0.3,0.1c0.8-3.9,1.2-7.4,2-11.4c0.7,1.3,1.3,2.7,2,4h0c-0.1-0.7-0.5-1.4-0.9-2.1
			c-0.3-1.2-1.6-2.2-0.9-3.6l0.4-2c0.8,1.3,1.4,2.8,2.4,4l0.1-0.1l-2.4-4.4c0.2-1.3,0.5-2.6,0.7-4c0.1-0.1,0,0.2,0.2,0.1
			c0.1,0,0.1-0.2,0.2-0.2h0.1c0.6,1.3,1.5,2.6,2.2,3.9c0.1,0,0.1-0.1,0.2-0.1c-0.8-1.3-1.5-2.7-2.3-4l0.1-0.3
			c1.8-2.3,3.4-4.6,5.2-6.9L68.3,49.5z M71,32.1l-0.3,0.1c-1.7,2.3-3.5,4.6-5.2,6.9c0-1.7,0.6-3.5,0.6-5.3c0.3-1.7,0.5-3.3,0.8-4.9
			l1.9,3H69v-0.2c-0.6-1-1.3-2.1-2-3.1c0.1-1.7,0.4-3.2,0.7-5c0.1-1.3,0.4-2.7,0.6-4.1c0.5,1.5,0.8,3.1,1.3,4.6h0.1
			c-0.3-1.8-1-3.6-1.3-5.5c0.5-2.8,0.7-5.5,1.2-8.3c1,2,1.8,4.2,3,6.1V16c-1-2.1-2-4.2-2.9-6.3l1.1-7.5c0.5,0.6,0.8,1.5,1.3,2.1
			l0.1-0.1c-0.4-0.7-0.8-1.5-1.3-2.2h-0.2l0.4-2.9c0.9,1.5,1.4,3.1,2.4,4.5V3.3c-0.7-2.2-3.1-4-2.1-6.6l-0.1-0.1
			c1,0.2,1.9,0.1,2.9,0.1l0.5,14.1L71,32.1z M74.8-3.5c1.5-0.4,2.9-1,3.9-2.1c0.1,0.1,0.3,0.1,0.4,0.3c2.9,13.3,5.8,26.5,8.6,40
			c-0.4,0-0.3,0.4-0.4,0.6l-1.8,7.2l-0.8-1.1c-1.2-6.2-2.7-12.2-3.8-18.4l3.6,4.5c0.1,0,0.2,0,0.2,0l-3.8-4.7h-0.2
			c-2.2-9.2-2.8-17.1-4.2-26.6c-0.1-0.1-0.2,0-0.3,0c0,0.8,0.2,1.6,0.2,2.4c-0.4,2.2-0.9,4.4-1.1,6.6c0.4-0.2,0.2-0.7,0.3-1.1
			l0.9-4.7l0.7,4.9c-0.4,2-1,4-1.2,6.1h0.1c0.5-1.8,0.7-3.7,1.2-5.5l0.6,4.7l-1.5,8.8c0.1,0.2,0.2,0,0.3,0c0.6-2.7,0.7-5.2,1.3-8
			c0.4,2.8,0.6,5.5,1.3,8.2l-0.2,0.1c-0.3,3.6-0.6,6.4-0.7,9.9c0.1,0,0.1-0.1,0.2-0.1c0.2-3.2,0.4-6.4,0.7-9.5l3.9,18.5
			c0.1,1,0.5,1.9,0.6,2.8c-1.6-2.5-3.1-5.1-4.8-7.6c-0.1,0.1-0.2,0.1-0.4,0.2c-1.2-5.8-2.5-11.6-3.5-17.5v-0.9L74.8-3.5z M91.1,48.5
			c-0.9,2.9-2,5.7-2.9,8.6c-2-2.6-4.1-5.2-6-7.9l-2.7-14L79,32.8l5.5,8.8l0.8,3.9c-0.3,0.3-0.3,0.8-0.4,1.2c0,1.1-0.4,2.4-0.6,3.6
			c0.1,0,0.1,0.1,0.2,0.1c0.3-1.4,0.6-3.1,0.8-4.6c0.4,1.2,0.6,2.7,0.9,3.9c0.2,1.3,0.5,2.6,0.9,3.9c0.1-0.1,0.3,0,0.3-0.2
			c-0.2-1.5-0.7-2.9-0.9-4.3c0.7,0.2,1.3,0.8,2,1.1l0.1-0.1c-0.6-0.5-1.5-0.9-2.2-1.4c-0.1-0.9-0.4-1.9-0.5-2.8H86
			c1,0.5,1.9,1,2.9,1.6l0.1-0.1c-1.1-0.7-2.2-1.2-3.3-1.8l-0.6-2.8c0.2,0.2,0.3,0.6,0.6,0.7c0.8-2.9,1.4-5.8,2.2-8.7
			C89,39.3,90.1,43.9,91.1,48.5z M108.1,39.5c0.2,0.7,0.3,1.4,0.5,2.1c-5.4-0.2-9.6-3.2-14.5-4.9c-1.7-0.5-3.5-0.3-5.3-0.6
			c-0.2-0.5-0.2-1.3-0.6-1.7c-0.2-1.9-0.9-3.6-1-5.4c1.1-3.3,3.1-6.8,6.5-8.5c1.6-1.1,4.5-1.6,5.9,0.2c2.1,2.2,1,6,4.3,7.3
			c1.8,0.9,4.2,1.7,4.7,4C109.9,34.8,107.2,36.7,108.1,39.5z M120.7,5.9c-0.9,0.7-2.2,0.6-3.4,0.6c-0.3-0.1-0.7-0.3-1-0.5
			c-0.1,0.6-0.1,1.2,0.4,1.6c0.7,0.7,1.7,0.7,2.7,0.7c0.2,0.5,0.4,1.1,0.1,1.6c-0.9,1.2-2.4,1.4-3.5,2.3l-3,2.4
			c-0.4-0.1-0.8-0.3-1.2-0.1c-0.3,0.2-0.7,0.4-0.8,0.8c0.4,1,1.5,1.2,2.2,1.7c1-2.4,3.4-4.4,5.8-5.1c0.5,0.1,1.1,0.1,1.4,0.5
			c-0.2,0.9-1.2,1.3-1.6,2c-0.4,0.6-0.8,1.2-1,1.9c0.7,0.5,1.7,0.7,2.2,1.6c0,1.7-0.8,3-1.3,4.5c-4.3,0.7-7.4,1.3-12.1,1
			c-1.5-1.6-2.3-3.4-2.6-5.5c-0.4-1.7-1.6-3.8-3.5-4.3c-0.5-0.2-1.3-0.1-1.7,0c0.2,1.5,0.8,3.7-0.8,4.7c-1.2,0.3-2.3-0.6-3.1-1.3
			c-2.2-3.1-5.1-5.8-7.7-8.5c-0.6-0.9-0.9-1.8-0.7-2.9c0.4-1.4,1.9-2.5,3.2-2.8c0.5-0.1,1.1-0.2,1.6-0.1c0.8-0.2,1.6,0.2,2.4,0.1
			c-1-1.1-2.2-2.4-1.5-4c2.2-1.3,4.4-0.8,6.8-0.2h0.1c-0.1-0.6-0.5-1.3-0.9-1.8c-1.6-3.5-6.4-0.7-8.2-4c-0.6-1.1-0.4-2.5-1.2-3.5
			c-0.9-0.9-1.8-1.9-2.8-2.8c3-2.5,6.5-4.2,10.7-3.6c3.1,0.3,7.2-1.3,9.2,1.8c1.2,3.2,4.6,4.1,7.2,5.6c0.8,0.7,0.9,1.8,0.7,2.8
			c-0.2,0.4-0.3,1-0.8,1.2c-1.5,0.5-3.2-0.6-4.5,0.4c-1.1,1.1-2.3,2.3-3.5,3.2c0.7-0.1,1.6-0.2,2.3-0.6c-0.3,1.2-1.3,2.3-1.4,3.7
			c0.2,0.3,0.4-0.1,0.6,0.1c1.3,0.2,2.2-1.9,3.6-1c0.3,0.2,0.6,0.4,0.6,0.8c0,0.5-0.3,0.8-0.2,1.2c0.6-0.3,1.3-0.8,1.4-1.6
			c-0.4-1.5,0.7-2.9,1.8-3.8c2.3,2.7,5.5,4.5,7.2,7.4C121.4,4.6,121.1,5.4,120.7,5.9z M109.8-2.2c0.4,0.4,1,0.6,1.6,0.4
			c-0.3,0.3-0.8,0.5-1.3,0.3c-0.4-0.2-0.7-0.4-0.9-0.8c-0.1-0.4-0.2-1,0.2-1.3C109.3-3.1,109.4-2.6,109.8-2.2z M110.1-3.1v-0.2h0
			L110.1-3.1L110.1-3.1z M110.7-3.7h0.2v0.4c-0.1,0-0.2-0.1-0.3-0.1C110.5-3.5,110.5-3.6,110.7-3.7z"/>
		<path fill="#720018" d="M61.6-17.6c-0.8-0.7-1.9-1.3-2.7-2v0.2L61.6-17.6L61.6-17.6z"/>
		<path fill="#720018" d="M50-16.6c0.9-0.4,1.9-0.8,2.7-1.3C51.8-17.6,50.9-17,50-16.6L50-16.6z"/>
		<path fill="#720018" d="M69.7-7C71-5.8,73.2-5.5,75-6.2c1-0.3,1.9-1.2,2.7-1.9c0.1-0.3,0.2-0.7,0.5-1c0.7-1.6,0.5-3.6-0.3-5.1
			c-1.3-1.8-3.2-2.8-5.4-2.6c-1.9,0.3-3.8,1.7-4.4,3.6C67.2-11,67.9-8.5,69.7-7z M67.9-10.6c0.7-0.1,1.4-0.1,2.1-0.2l0.1,0.3v0.1
			l-2,0.6C68-10,68-10.3,67.9-10.6z M68.2-9.5c0.6-0.3,1.4-0.4,2.1-0.6l0.1,0.3l-1.9,1C68.4-9,68.2-9.3,68.2-9.5z M68.7-8.7l1.9-1
			c0.1,0.1,0.2,0.2,0.2,0.3c-0.6,0.4-1.1,0.9-1.7,1.3C68.9-8.3,68.7-8.4,68.7-8.7z M69.3-7.9c0.6-0.4,1.1-1,1.7-1.3l0.3,0.3L70-7.2
			C69.7-7.3,69.3-7.5,69.3-7.9z M70.2-6.9v-0.1l1.3-1.7c0.1,0.1,0.2,0.1,0.2,0.2c0,0.6-0.6,1.3-0.8,1.9C70.7-6.6,70.4-6.7,70.2-6.9z
			 M71.1-6.4l1-2c0.1,0.1,0.3,0,0.3,0.2c-0.3,0.6-0.3,1.3-0.5,2C71.5-6.2,71.4-6.5,71.1-6.4z M73-6.1c-0.3,0-0.6,0-0.9-0.1
			c0-0.7,0.4-1.4,0.5-2.1h0.5L73-6.1z M74.3-6.4l-0.4-2c0-0.1,0.1-0.1,0.2-0.1c0.3,0.7,0.6,1.3,0.8,2C74.7-6.5,74.4-6.1,74.3-6.4z
			 M75.2-6.5c-0.3-0.6-0.6-1.3-0.9-2c0-0.1,0.2-0.2,0.3-0.2l1.2,1.8L75.2-6.5z M76.1-7.1c-0.5-0.5-0.8-1.2-1.3-1.7
			C74.8-8.9,74.9-9,75-9c0.5,0.5,1.1,1,1.4,1.6L76.1-7.1z M76.8-7.6c-0.6-0.4-1-1-1.6-1.5l0.2-0.2l1.8,1.2C77-8,77-7.8,76.8-7.6z
			 M77.3-8.3l-1.8-1.2l0.1-0.3c0.7,0.3,1.4,0.5,2,0.9L77.3-8.3z M77.6-9.3C77-9.5,76.4-9.7,75.8-10c-0.1-0.1,0-0.2,0.1-0.3L78-9.8
			C77.8-9.7,78-9,77.6-9.3z M78.1-10.1c-0.6,0-1.4-0.2-2.1-0.4c0.1-0.1,0-0.4,0.1-0.6c0.7,0,1.4-0.1,2.2-0.2
			C78.2-10.9,78.2-10.5,78.1-10.1z M78.2-11.4l-2.1,0c-0.1-0.1,0-0.3,0-0.4c0.6-0.3,1.4-0.4,2.1-0.6C78.2-12.1,78.2-11.8,78.2-11.4z
			 M77.8-13.4l0.2,0.6v0.2c-0.7,0.2-1.4,0.3-2.1,0.5c-0.1-0.1-0.1-0.3-0.1-0.4C76.5-12.6,77.1-13.3,77.8-13.4z M77.6-13.7
			c-0.6,0.3-1.3,0.7-1.9,1l-0.2-0.2c0.5-0.5,1.2-1,1.7-1.4C77.4-14.2,77.5-13.9,77.6-13.7z M77.1-14.5c-0.5,0.6-1.1,0.7-1.6,1.3
			c-0.2,0-0.2-0.2-0.3-0.2c0.3-0.6,0.9-1.2,1.3-1.8C76.7-15,76.9-14.7,77.1-14.5z M76.2-15.4c-0.2,0.7-0.9,1.2-1.2,1.8
			c-0.2,0-0.2-0.2-0.3-0.2c0.2-0.7,0.6-1.3,0.9-1.9C75.7-15.7,76-15.6,76.2-15.4z M75-16.1c0.1,0.2,0.3,0.2,0.2,0.4L74.4-14
			c0,0.1-0.2-0.1-0.3,0c0.1-0.8,0.3-1.5,0.5-2.2C74.7-16.2,74.9-16.1,75-16.1z M73.4-16.5c0.3,0.1,0.6,0,0.9,0.2l-0.5,2.1
			c-0.1-0.1-0.3,0-0.4-0.1C73.5-14.9,73.1-15.9,73.4-16.5z M73.3-8.3c0.2,0,0.2-0.1,0.4-0.1c0.1,0.7,0.3,1.4,0.4,2.1
			c-0.3,0-0.5,0.2-0.9,0.1L73.3-8.3z M73.1-16.4c0,0.7,0,1.3,0.1,2.1c-0.1,0-0.2,0.1-0.4,0.1c0-0.7-0.4-1.4-0.4-2.1
			C72.6-16.6,72.8-16.5,73.1-16.4z M72.1-16.4l0.4,2.1c-0.2,0.1-0.3,0.1-0.5,0.1l-0.8-1.9C71.4-16.3,71.8-16.3,72.1-16.4z M70.9-16
			c0.3,0.6,0.6,1.3,0.9,2l-0.2,0.2c-0.5-0.5-0.9-1.2-1.3-1.8C70.4-15.9,70.8-15.8,70.9-16z M70.1-15.5c0.5,0.5,0.9,1.2,1.2,1.8
			l-0.4,0.3l-1.5-1.4C69.4-15.2,69.9-15.3,70.1-15.5z M69.2-14.7l1.5,1.4c0,0.2-0.1,0.2-0.2,0.4c-0.6-0.4-1.2-0.7-1.8-1.2L69.2-14.7
			z M68.6-13.8l1.7,1.1c0.2,0.2-0.1,0.3,0,0.5c-0.7-0.2-1.3-0.4-2-0.7C68.2-13.3,68.5-13.6,68.6-13.8z M68.2-12.8
			c0.6,0.2,1.3,0.5,1.9,0.8v0.5L68-12C68-12.3,68-12.6,68.2-12.8z M67.9-11.7l2.1,0.4v0.4l-2.1,0.1V-11.7z"/>
		<path fill="#720018" d="M60.1-15.6c1-0.4,2-0.6,3-1c-1,0.2-1.9,0.7-3,0.9V-15.6z"/>
		<path fill="#720018" d="M108.8,4c0.6,0.1,1.3,0.6,1.8,0.7c0.2-0.3,0.3-0.6,0.3-0.9c-3-1.4-6-2.9-9-4.3c0,0.3-0.4,0.6-0.3,0.9
			L108.8,4z"/>
		<path fill="#720018" d="M110.4,6.2c0-0.3,0.4-0.6,0.3-0.9l-9-4.3l-0.4,0.8c2.3,1.2,4.6,2.3,6.9,3.3C108.9,5.5,109.6,6.1,110.4,6.2
			z"/>
		<path fill="#720018" d="M110.5,7.1c-2.9-1.5-6.1-2.9-9.1-4.4l-0.4,0.9c2.9,1.5,6,3,9,4.3L110.5,7.1z"/>
		<path fill="#720018" d="M113.8,6c-0.6,1-1.7,2-2.8,2.2c-2,0.7-3.3-1.2-4.9-1.7c-2.5-0.3-4.6-1.6-6.3-3.6c0.4,1.3-0.1,2.9,0.5,4.2
			c0.6,2.2,3,0.9,4.5,1.3c1.3,0.9,2,2.5,3.4,3.3h0.2c0.1-0.5,0.4-0.9,0.7-1.3c0.5-0.6,1.1-0.4,1.8-0.4c0.1,0.2,0.4,0.1,0.6,0.1
			c0.7-0.1,0.7-1,1-1.5c0.4-0.8,1.5-0.8,1.7-1.7C114.5,6.5,113.9,6.3,113.8,6z"/>
		<path fill="#720018" d="M95.9,8.5c-0.6-0.4-1-0.9-0.9-1.6c0.6-0.7,1.6-0.5,2.4-0.7c0.1-0.6-0.3-1-0.8-1.3c-1.6,0.3-2.6-1.1-4.2-1
			c-1.3,0.5-3.4,0.3-3.9,2.1c-0.2,0.7,0.1,1.3,0.5,1.8c-0.2-0.4-0.3-1-0.2-1.5c1-1.2,2.4-1.9,4-1.6l0.1,0.1
			c-0.6,1.3-2.8,1.8-2.4,3.6c0.2,0.9,0.9,1.6,1.7,2.1c-0.2-0.6-0.6-1.3-0.4-2.1c0.2-0.3,0.4-0.6,0.7-0.7c0.4-0.2,0.8,0,1.2,0.3
			c0.5,1.3,0.4,3.3,2.3,3.8c0.8,0.1,1.6-0.1,2.1-0.8c0-0.3,0.4-0.7,0.1-1C97.7,8.9,96.7,8.5,95.9,8.5z"/>
		<path fill="#720018" d="M95.6,13.4l0.5,0.5c0.3,0.5,0.5,1.3,1,1.6c0.3-0.1,0.4-0.4,0.6-0.6C97.9,13.5,96.3,13.8,95.6,13.4z"/>
		<path fill="#720018" d="M83,31.9c1,1.4,1.9,3,3,4.3c-1-1.5-1.9-3-3-4.5V31.9z"/>
		<path fill="#720018" d="M83.2,47.6L83.2,47.6c0.4-1.8,0.7-3.9,1-5.7l-0.1,0.4C83.9,44.1,83.3,45.8,83.2,47.6z"/>
		<path fill="#720018" d="M63.6,45.2L63.6,45.2c-1.6,1-2.9,2.5-4.3,3.6l0,0.1C60.8,47.7,62.2,46.4,63.6,45.2z"/>
		<path fill="#720018" d="M62.5,50.9v-0.1c-1,0.9-1.8,2.1-2.8,3.1V54C60.8,53,61.6,51.9,62.5,50.9z"/>
		<path fill="#720018" d="M61.8,53.7c-0.6,1.1-1.2,2.2-1.7,3.2h0.1L61.8,53.7L61.8,53.7z"/>
	</g>
</g>
</svg>
