<?xml version="1.0" encoding="utf-8"?>
<!-- Generator: Adobe Illustrator 19.1.0, SVG Export Plug-In . SVG Version: 6.00 Build 0)  -->
<!DOCTYPE svg PUBLIC "-//W3C//DTD SVG 1.1//EN" "http://www.w3.org/Graphics/SVG/1.1/DTD/svg11.dtd">
<svg version="1.1" xmlns="http://www.w3.org/2000/svg" xmlns:xlink="http://www.w3.org/1999/xlink" x="0px" y="0px"
	 viewBox="33 -33 100 100" enable-background="new 33 -33 100 100" xml:space="preserve">

<g id="AREA_1">
	<g>
		<path fill="#720018" d="M129.3-10.7c0-0.5-0.2-0.9-0.6-1.1c-0.1,0-0.3,0-0.3-0.2h-1.1c-0.1,0.1-0.3,0.3-0.5,0.2
			c-1.8,0.9-2.7,3.2-4,4.5c-1.3,1-1.8,2.7-2.9,3.9c-0.3,0.1-0.2,0.7-0.6,0.6v0.1c-1,0.4-0.9,2.3-2.3,2.3c-0.1-0.3-0.4-0.4-0.3-0.8
			c-0.3-0.1-0.3-0.6-0.4-0.8c-0.8-0.4-0.5-1.4-1.2-2c-0.3-1.3-1.3-2.2-1.9-3.3c0-0.6-0.3-1-0.5-1.5c-0.3-0.1-0.5-0.3-0.6-0.5
			c-0.6-0.1-0.8-0.8-1.1-1.2c-0.3-0.1-0.4-0.5-0.7-0.7c-0.1-0.1-0.1-0.1-0.1-0.2H110c-0.2-0.5-0.7-0.7-1-1c-0.3-0.1-0.5-0.3-0.7-0.5
			c-0.2,0-0.4,0.1-0.6-0.1v-0.1h-0.3c-0.2-0.4-0.9,0-1.1-0.4c-0.6,0.3-0.7-0.4-1.3-0.2c-0.3-0.3-0.6-0.2-0.9-0.4
			c-0.3-0.2-0.7,0-1.1-0.1v-0.1h-2.1c-0.2,0.4-1,0-1.3,0.4c0,0-0.1-0.1-0.1-0.1c-0.1,0.3-0.6,0.1-0.7-0.1c0,0.1-0.2,0.3-0.3,0.2
			c0,0-0.1-0.1-0.1-0.1L97-14v0.1c-0.8-0.3-0.9,0.9-1.9,0.7c0,0.1,0,0.2-0.1,0.2c-0.5,0-1.1,0.5-1.6,0.6c-0.6,0-1.2,0.4-1.8,0.7
			c-0.3,0.7-1,1-1.7,1.2v0.1c-0.6,0-0.4,0.5-0.9,0.7c-0.6-0.1-0.6,0.9-1.1,1c0.1,0.4-0.5,0-0.4,0.4h-2.8v0.1
			c-0.6-0.1-0.7,0.4-1.3,0.3c-0.2-0.1-0.5-0.1-0.5-0.4h-0.2c0-0.3-0.4-0.1-0.3-0.4c-0.5,0.1-0.7-0.3-1-0.4c-0.4-0.1-0.9,0-1-0.3
			c-0.2,0-0.5,0.1-0.7-0.1c-0.1-0.3-0.6,0.1-0.6-0.3c-0.5,0-0.7-0.4-1.1-0.5c-0.1-0.2-0.5,0.1-0.5-0.3c-0.6,0.3-0.5-0.6-1-0.2
			C76-11,75.2-10.9,74.6-11v-0.1l-1.2-0.1v-0.1l-0.6-0.1c-0.1-0.4-0.7,0-0.8-0.4h-2.5l-0.4-0.1c-0.5,0.1-1.5-0.1-1.8,0.3
			c-0.2,0-0.4,0.1-0.6-0.1v-0.1c-0.6,0.1-1.3,0.1-1.8,0.1c-0.1,0.3-0.6-0.1-0.7,0.3c-0.7,0.2-1.6,0.3-2.4,0.3
			c-0.5,0-0.7,0.7-1.1,0.6v0.1c-0.1,0.1-0.3,0.1-0.5,0.1c0.1,0.4-0.6,0-0.6,0.4c-0.5-0.2-0.4,0.4-0.9,0.2v0.1
			c-0.1,0.1-0.4,0.1-0.6,0.1c-0.2,0.2-0.6,0.4-0.9,0.6c-0.5,0.6-1.4,0.8-2,1.3c-0.3-0.1-0.7,0.2-0.8-0.2h-0.6
			c-0.4-0.2-0.7-0.4-1-0.6c-0.1,0-0.7,0.1-0.7-0.3h-0.8c-0.2-0.1-0.5-0.1-0.5-0.4h-0.4c-0.1,0-0.2-0.1-0.2-0.2
			c-0.4-0.1-1,0.2-1.2-0.2c-0.6-0.2-0.6,0.4-1.1,0.2c-0.1,0-0.2-0.1-0.2-0.2h-1.6l-0.3-0.3l-3.2,0.1l-0.1,0.1
			c-0.7-0.2-1,0.4-1.6,0.5c-0.5,0.4-0.8,0.9-1.5,1V-8c-0.1,0.1-0.1,0.1-0.2,0.1v0.1c0,0.1-0.1,0.1-0.2,0.1v0.1
			c0,0.1-0.1,0.1-0.2,0.1v0.1c0,0.1-0.1,0.1-0.2,0.1c-0.3,0.8-1.1,1.2-1.1,2.1c-0.2,1.1,0,2.2,0.7,3c0.2,0.2,0.4,0.1,0.5,0.4
			c0.8,0.1,1.6,0.2,2.5,0.3v0.1h4.1c0.4,0.4,1.3,0.1,1.9,0.2c0,0.3,0.4,0.3,0.6,0.2c0.2,0.2,0.5,0.3,0.5,0.7c-0.1,0.1,0,0.4-0.3,0.3
			c0,1.2-0.7,2.1-1.2,3c0,0.7-0.2,1.5-0.6,2.1c0.4,1.1-0.9,1.7-0.5,2.9c-0.8,0.9-0.1,2.3-0.8,3.3c0.3,0.6,0.3,1.3,0.1,1.9
			c0.4,1.4-0.4,2.6-0.6,4c0.3,2.2,0.7,4.5,1.4,6.8c0.4,0.8,0.8,1.8,1.3,2.4c0.6,1.7,2,2.9,3.5,3.8v0.1c0.3,0.1,0.6,0.3,0.8,0.4
			c0.2,0.5,0.9,0.3,1.1,0.7c0.4,0.3,0.9,0.6,1.3,0.8c0.3-0.1,0.6,0.2,0.9,0.2c0.1,0.4,0.7,0,0.8,0.4h0.5c0.4,0.4,1.1,0.1,1.7,0.3V33
			h0.7c0.8-0.3,1.9-0.3,2.8-0.5c0.7-0.2,1.3-0.5,2-0.8c1.3,0.1,2-0.9,2.7-1.7c0.4-0.1,0.6-0.8,1.1-0.8c0.9-1,1.7-2.3,1.7-3.6
			c1-0.8,0.8-2.1,0.9-3.4c0.5-0.9,0.4-2,0.5-3.1c0.1-0.7,0.4-1.3,0-1.9c0.4-0.7-0.4-1.9,0.8-2c0.3,0.4,0.1,0.9,0.1,1.4
			c0.1,1,0.9,1.5,0.6,2.6c-0.8,1.5,1,2.5,0.3,4c-0.3,1.2-1.1,2.1-1.3,3.3c0.3,0.4,0.3,1.1,0.3,1.6c0.7,0.9-0.5,1.7-0.2,2.6
			c-0.1,0.3-0.2,0.7-0.4,0.9c0,0.6-0.4,1-0.7,1.5c-0.6,1.3-1.3,2.5-1.7,3.8c-0.4,0.6-0.6,1.4-0.5,2.3c0.4,0.3,0.1,1.1,0.6,1.1
			c0.6,0.6,1.6,0.8,2.2,1.3c0.8,0.4,1.4,0.4,2.1,0.9c0.3-0.1,0.4,0.4,0.7,0.4c0.6,0.1,0.9,0.4,1.3,0.7c0.5,0.2,0.8,0.4,1.4,0.4
			c0.2,0.4,0.9,0,1,0.4h2l0.1,0.2c1.2-0.2,2.3,0.4,3,0.3v0.1c0.6,0.1,1.5-0.2,1.9,0.2l3.4,0.1l0.2-0.2h3.8c0.4-0.4,1.4,0,1.8-0.4
			c0.6,0.2,0.8-0.3,1.5-0.2c0.4-0.3,1.5,0,1.9-0.4c1,0.2,1.5-0.3,2.2-0.3c0.6-0.2,1.6,0.1,2.2-0.3c0.7,0.2,1.1-0.4,1.8-0.3
			c0.3-0.3,0.5-0.1,1-0.1c0.6-0.3,1-0.5,1.7-0.6c1-0.6,2.1-0.7,2.7-1.8c-0.2-0.4-0.2-0.9-0.5-1.3c-0.4-1.7-2.2-2.7-2.7-4.4
			c0.1-1.5-0.3-2.8-0.7-4.2c-0.4-1.5,0.5-2.8,0.4-4.4c-0.2-0.4,0.4-0.8,0-1.1c0.3-0.9,0-1.9-0.2-2.7c-0.2-0.4-0.5-1.1,0-1.4
			c0.4-0.3-0.1-1.2-0.1-1.6c0,0.1,0.2,0.1,0.1,0.2c0.1,0,0.3,0.1,0.4-0.1c-0.1-0.4-0.7-0.7-0.2-1.1c0.1,0.1,0.2,0.1,0.1,0.2h0.3
			c0.4-0.6-0.6-0.8-0.7-1.3c0.1-0.1,0.3,0,0.5-0.1c0-0.4-0.3-0.7-0.5-0.9c-0.4-0.1,0-0.8-0.5-0.9v-5.3c0.1-0.5-0.8-1-0.1-1.5
			c0.5-0.2,0.6,0.3,1.1,0.3c0.7,1.8,1.8,3.4,2.3,5.3c0.3,0.5,0.5,0.7,0.8,1.3c-0.3,1,1,1.7,0.7,2.9c1,1.1,0.4,3,1.4,4.3
			c0.2,0.5,0.4,1.2,0.9,1.5c0.3,0.9,0.8,1.6,1.5,2.1c0.2,0.2,0.5-0.1,0.6,0.3h0.4c0.2,0.4,0.9,0,1.1,0.4l4.1,0.1l0.1-0.2
			c0.8,0.2,1.7-0.4,2.2-0.9c1.9-1,2.3-3.6,2-5.8c-0.6-1.4,0.3-2.8,0.1-4.2c0.2-1.5-0.1-2.7,0-4.3c0.1-0.4,0.3-1,0.1-1.3
			c0.1-0.2-0.1-0.5,0.1-0.7c0-0.2,0.1-0.5-0.1-0.6c0.3-0.6,0-1.5,0.5-2c0.2-2,0.6-3.6,0.9-5.5c0.3-0.6,0.4-1.3,0.6-2
			c0.7-2.9,2.1-4.9,3.2-7.4c0.1-0.5,0.7-0.6,0.4-1.2c0.4-0.3,0.2-0.9,0.4-1.3C129.4-10.3,129.6-10.6,129.3-10.7z M44.4-6.3
			c-0.1,0-0.1-0.3-0.1-0.4c0.2,0,0.5,0.1,0.6-0.2l0.3,0.2l0.1-0.2c-0.1,0.1,0.1,0.3,0.2,0.2h0.2C45.7-6,44.8-6.5,44.4-6.3z
			 M46.7-7.6H46C45.8-8.1,46.9-8.1,46.7-7.6z M115.5,1.8l0.3,0.4c0,0.7-0.9,0.5-1.2,1c-0.5,0.1-0.9,0.1-1.3,0.4l-0.7-0.1
			c0.3-0.6,0.9-0.6,1.2-1.1c0.2,0,0.4,0.1,0.5-0.1V2.2c0.1,0,0.3,0.1,0.4-0.1V2C115,2.1,115.1,1.7,115.5,1.8z M103.7,4.2
			c-0.1-0.2-0.2-0.2-0.3-0.4c0.2-0.4,0.4-0.3,0.7-0.3c0.1,0.1,0.5,0.3,0.5,0l0.3,0.2h3.6c0.1-0.3,0.4-0.2,0.7-0.2
			c0.3,0.4-0.3,0.3-0.3,0.5C107.3,4.4,105.4,4.1,103.7,4.2z M104,5.9c0,0.1,0,0.1-0.1,0.2l-0.1-0.2H104z M103.1,1.8
			c-0.7-0.1-1.8,0.3-2.1-0.4c-0.9,0.1-0.8,1.3-1.3,1.7c-0.2,0.2-0.3,0.4-0.6,0.5c-0.3-0.4,0.3-0.6,0.3-1c0.9-1.1,1.8-2.5,1.6-4.2
			c0.6-0.2,0.6,0.5,0.8,0.9v1.1c0.3,0.2,1.3-0.2,1.1,0.6c-0.1,0.1,0.1,0.3,0.2,0.3c0.2,0,0.6-0.1,0.6,0.1
			C103.7,1.8,103,1.3,103.1,1.8z M103.2,30.9c-0.6,0.5-0.2,2-1.3,1.9c-0.8-1.4,1-2,0.3-3.5c0.3-0.5,0.8-0.9,1.1-1.3
			C103.3,29,103,30,103.2,30.9z M103.2,26.6c-0.2,0.2-0.4,0.2-0.7,0.2c-0.1-0.6,0.1-1.1,0.5-1.4C103.3,25.6,103.3,26.2,103.2,26.6z
			 M101.9,20.2c-0.2,1-0.9,1.8-1.6,2.3H100c0.1-0.8,0.9-0.9,0.9-1.8c1.6-1.3,0-3.7,1.4-5.1l-0.1-0.5c0.9,0.7,1.3,2.3,0.9,3.5V19
			C102.2,18.8,102.7,20.2,101.9,20.2z M101.3,30.7l-0.1-0.4c0.1,0,0.2,0.1,0.1,0.1C101.3,30.5,101.4,30.7,101.3,30.7z M100.9,26.4
			c-0.4,0.5,0.5,1.1-0.2,1.7c-0.2-0.3-0.6-0.3-0.7-0.7c0.4-0.6,0.1-1.9,1.1-1.8l0.1-0.1c0.6,0.2,0.3,0.9,0.3,1.3
			C101.1,26.9,101.2,26.3,100.9,26.4z M99,30.2c-0.1-0.5-0.5-1.2,0.1-1.6c0.2,0.2,0.3,0.4,0.2,0.7C98.9,29.6,99.5,30.2,99,30.2z
			 M97.5,35c0.1-0.6,0.8-0.4,1-0.1c0.1,0.5,0.5,1,0.1,1.5c-0.6,0.3-0.5,1.1-1.1,1.3c0-0.6,0.6-1.3,0.7-2
			C98.1,35.3,97.6,35.2,97.5,35z M98.5,26.2c-0.2,0.1-0.4-0.1-0.4-0.3l0.3-0.3C98.6,25.8,98.8,25.9,98.5,26.2z M99,27.8v0.1
			c-0.2,0.1-0.4,0.1-0.6,0.1v-0.6C98.8,27.3,98.8,27.8,99,27.8z M98.6,31.7h-0.2v-0.3h0.4C98.9,31.5,98.9,31.8,98.6,31.7z
			 M97.9,22.3c-0.4-0.2-0.4,0.3-0.7,0.4c0.1,0.6,0.4,1.3,0,1.8c-0.1,0-0.2-0.1-0.3,0.1c-0.1,0.2-0.4,0.3-0.4,0.6
			c-0.1,0.5,0.2,1,0.1,1.4c-0.9-1.3,0-3,0.2-4.4c0.8-1.2,2.3-2.4,2.6-4c0.4-0.2,0.3-0.7,0.7-0.7c0.7-0.1,0.4,0.7,0.5,1.1
			C100.4,20.7,98.8,20.7,97.9,22.3z M96.5,30.3c-0.1-0.4-0.3-0.9-0.1-1.2c0.6,0.7,0.1,1.6,0.7,2.3c-0.1,0.7-0.3,1.5-0.8,2
			c-0.3,0-0.8,0-0.9-0.3C95.8,32.2,96.3,31.3,96.5,30.3z M95.3,26.8l0.1-0.3c0.4,0.3,0.6,0.9,0.6,1.4C95.6,27.8,95.6,27.2,95.3,26.8
			z M101.5,5.2c-0.1-0.2-0.5-0.4-0.3-0.8c0.3-0.1,0.3-0.5,0.4-0.8c0.2-0.2,0.4-0.2,0.6-0.4c0.4,0,0.3,0.6,0.2,0.9
			C102.3,4.6,101.9,5.1,101.5,5.2z M102.8,13.4l-0.3,0.2c-0.1-0.6,0.5-1.2,0.5-1.8C103.3,12.4,102.8,12.8,102.8,13.4z M100.6,4h-0.2
			c0-0.3,0.2-0.6,0.4-0.6C100.9,3.6,100.8,4,100.6,4z M99.4-3.3c0-0.4,0.4-0.8,0.5-1.3l0.3-0.1c0.5,0.4,0.2,1.1,0.2,1.7
			c-0.5,0.4-0.5,1.1-0.7,1.7h-0.3C99.2-2,99.8-2.8,99.4-3.3z M102.5-4.3c-0.1,0-0.2,0-0.2,0.1v0.1c-0.5-0.4-0.1-1-0.4-1.5
			c0-0.4,0.4-1.6,0.7-0.5C102.4-5.5,102.6-5,102.5-4.3z M103.7-7.1c0.3-0.1,0.6,0,0.6,0.4c0.1,1.3-0.4,2.4-0.9,3.4H103
			c-0.2-0.4,0.3-0.5,0.4-0.8c0.1-0.5,0.1-1.1,0.3-1.5C103.4-6.1,103.7-6.6,103.7-7.1z M105.5-7.1c0,0,0,0.1,0,0.1
			c0.1,1.4,0.2,3.3-1.1,3.9h-0.2c0.5-1.2,0.6-2.6,1-3.8c0.1,0,0.3,0,0.3-0.1C105.5-7.1,105.5-7.1,105.5-7.1z M108.1-6.1
			c0.4,0.4,0.1,1,0.1,1.5c-0.2,1.1-0.8,2.2-1.6,3.1c0,0.1-0.3,0.1-0.4,0.1C107.3-2.8,107.6-4.5,108.1-6.1z M106.9-6.7l-0.1,0.8
			c-0.2,0.1-0.3-0.2-0.3-0.3C106.5-6.5,106.6-6.8,106.9-6.7z M108.5,1.8v0.5c-0.1,0-0.2-0.1-0.3,0.1v0.1H108c0-0.1-0.1-0.1-0.1-0.2
			l-0.1,0.1l-0.3-0.3C107.7,1.9,108.1,1.7,108.5,1.8z M106.1-3c-0.1,0.1-0.2,0-0.3,0.1l0.3-1.1C106.3-3.7,106.3-3.3,106.1-3z
			 M109.2,1.4L109.2,1.4c0.7-1.2,2.2-1.4,2.9-2.6c0.3,0.1,0.4-0.4,0.7-0.1c-0.2,0.8-0.8,0.9-1.3,1.5c-0.5-0.2-0.3,0.6-0.8,0.4v0.1
			c-0.5,0-0.5,0.5-1.1,0.4C109.6,1.4,109.4,1.3,109.2,1.4z M111.5,4.6c0.5-0.1,0.9-0.3,1.4-0.2c0.1,0,0.1-0.1,0.1-0.2
			c0.4-0.1,1,0.2,1.1-0.2c0.3-0.1,0.8,0.2,0.8-0.2c0.2-0.1,0.2,0.2,0.3,0.3c-0.3,0.3-0.2,1-0.9,0.8c-0.1,0.4-0.7,0.1-1,0.3v0.1
			c-0.6-0.2-0.6,0.4-1.2,0.2c-0.2,0.4-0.9,0-1.1,0.4c-0.3-0.1-0.6,0.1-0.7-0.1C110.3,5.1,111.1,5.1,111.5,4.6z M113.9-3.3
			c0.1,0.3,0.5,0.3,0.7,0.6l0.5,0.9c-0.6,0.4-0.4-0.5-0.8-0.7c-0.3-0.6-1.1-0.7-1.2-1.3C113.5-3.8,113.5-3.2,113.9-3.3z M114.5,0.4
			c0,0.8-0.9,0.7-1.1,1.1c-0.7,0-0.9,0.8-1.7,0.8V2c0.3-0.1,0.5-0.5,0.8-0.6C112.9,0.7,113.6,0.5,114.5,0.4z M110.8-9.2
			c0.7,0.1,0.5,1.3,1.2,1.5c0.6,0.6,0.8,1.6,0.8,2.3c-0.2-0.1-0.5-0.4-0.7-0.6c-0.2-0.2-0.1-0.6-0.4-0.6c-0.3-0.7-0.6-1.4-0.9-2.1
			h-0.1L110.8-9.2z M110.9-3.1l0.3-0.2c0.3,0.1,0.2,0.5,0.1,0.8c-0.4,0.6-1.1,1.1-1.4,1.7c-0.5,0.3-0.9,0.8-1.3,1.2
			c-0.1,0-0.4-0.1-0.4,0.1v0.1c-0.2,0.1-0.2-0.2-0.3-0.3c0.2-0.4,0.7-0.4,0.7-0.9h0.2C109.6-1.4,110.5-2,110.9-3.1z M108.7-2.7
			c0.1-0.8,0.4-1.5,0.7-2.1c0.2,0,0.6-0.1,0.5,0.3C109.8-3.8,109.3-3,108.7-2.7z M106.3-11.9c0.3,0.2,0.6,0.2,0.9,0.2
			c0.2,0.4,0.9,0,1,0.4c0.8,0.2,1,1.1,1.5,1.7c0.3,0.8,1,1.6,0.9,2.5h-0.1c-0.7-0.9-1-2.2-1.7-3c0-0.1,0.1-0.3-0.1-0.3h-0.1
			c0-0.1,0-0.2-0.1-0.2h-0.1c0-0.1,0-0.2-0.1-0.2h-0.1c0-0.1,0-0.2-0.1-0.2c-0.2,0-0.3,0.2-0.3,0.3c0.3,0.9,0.9,1.4,1.3,2.3
			c-0.2,0.4-0.3,0.1-0.7,0c-0.5-0.4-0.4-1.4-1-1.6c-0.3-0.6-0.8-1-1.1-1.5L106.3-11.9z M90.7-9.3L91-9.1l0.2-0.2
			c0.2,0.4,0.8,0.1,1.2,0.2c0.6-0.4-0.5-1.6,0.5-1.6l0.3,0.2l0.2-0.3c0.2,0.4,0.3-0.1,0.6-0.1c0-0.7,0.8-0.7,1.1-0.9l0.1,0.1
			c0.1-0.1,0-0.2,0.2-0.1h0.2c0.1,0.4,0.6,0.1,0.9,0.2c0.3,0.2,0.6,0.4,0.9,0.5c0.2,0.2,0.6,0.1,0.8,0.2l0.4-0.4
			c-0.3-0.4-0.5-0.8-1.2-0.8l-0.1-0.4c0.4-0.1,1.1,0.2,1.4-0.2c0.5-0.3,0.4,0.4,0.9,0.2c0.3-0.2,0.4-0.6,0.8-0.6
			c0.4-0.5,1.5-0.1,2-0.1c0.3,0.3,0.7,0.1,1.1,0.1c0.1,0.1,0.2,0.3,0.3,0.2c0,0.3,0.5,0.1,0.4,0.3c0.2,0.1,0.4,0.1,0.7,0.1
			c0.1,0.8,1,0.6,1.1,1.5h0.1c0,0.1,0,0.1,0.1,0.2c0.2,0.1,0.4,0.4,0.6,0.7c0.3,0.1,0.3,0.5,0.3,0.7c-1.3,0.2-1.1-1.8-2.5-1.8
			c-0.1,0.4,0.4,0.8,0.6,1.2c-1.7,0.6-1.6-1.2-2.8-1.4c-0.3,0.1-0.4-0.6-0.8-0.1c-0.1,0.7,0.6,0.5,0.8,0.9c0.2,0.2,0.5,0.5,0.5,0.8
			c-0.1,0.1-0.3,0.1-0.4,0.1c-0.3-0.4-0.7-0.7-1.3-0.8H101c-0.4,0.9,1.3,0.7,0.6,1.5c-0.6,0.5-1.1-0.3-1.9-0.1
			c-0.3-0.2-0.6-0.4-0.9-0.5c-0.1-0.1-0.3,0-0.5-0.1c0.1-0.2-0.1-0.2-0.3-0.2h-0.2c-0.3-0.2-0.7-0.5-1.1-0.5
			c-0.2-0.2-0.7-0.1-0.9-0.4c-0.6,0.3-0.7-0.5-1.1-0.1c-0.3,0.2,0,0.3,0.1,0.5c0.1,0.1,0.3,0,0.4,0.1v0.1c0.2,0.1,0.4,0.1,0.7,0.1
			c0.4,0.1,0.5,0.6,1.1,0.4c0.4,0.1,0.6,0.5,1.1,0.5c0.5-0.1,0.5,0.7,1.1,0.4c0.2,0.3,0.7,0.2,0.7,0.7v0.3c-0.6,0.2-0.6-0.4-1.2-0.2
			c-0.3-0.2-0.5-0.4-0.9-0.5c-0.1-0.2-0.5-0.2-0.8-0.2c0-0.1-0.1-0.2-0.2-0.2c-0.4-0.1-0.8-0.3-1.3-0.2v-0.1c-0.4-0.1-0.9-0.1-1.3,0
			c0.5,0.2,0.6,1.1,1.5,0.8c0.1,0.4,0.7,0,0.8,0.4h0.7c0.3,0.2,0.6,0.4,0.9,0.6c0.3,0,0.6,0,0.5,0.3v0.3c-0.6,0.2-0.7-0.4-1.3-0.2
			c-0.1-0.4-0.7-0.1-1-0.2v-0.1c-0.7-0.1-1.3-0.1-1.9-0.3c-0.5-0.7-1.4-0.3-2-0.7c-0.1-0.4-0.5-0.1-0.8-0.2v-0.1
			c-0.4-0.1-0.8-0.1-1.1-0.4L90.7-9.3z M98.5-2.5c-0.2,0.1-0.2-0.2-0.2-0.3l0.2-0.5C98.9-3.1,98.6-2.8,98.5-2.5z M81.9-6.2
			c0.1-0.3,0.4-0.3,0.5-0.4v0.1c0.1-0.2,0.9,0.1,0.9-0.3c1.1,0.1,2.3-0.1,3.1-0.4H87c0.1,0.4,0.8-0.1,1,0.4c0.2,0,0.4,0.1,0.5-0.1
			V-7c0.4,0.1,0.9,0.4,1.2,0.8c0.5,0.1,0.1-0.9,0.7-0.6c0.3,0.4-0.6,0.9,0.1,1c0.3-0.4,0.5-0.9,1-1h0.9c0.1,0.4,0.8,0,0.9,0.4
			c0.5-0.1,1,0.1,1.1,0.6c-0.1,0.2-0.3,0.4-0.1,0.7c0.1,0.1,0.3,0,0.5,0.1c0.1-0.4,0.3-0.6,0.6-0.8c0.3,0.2,0.6,0.4,0.9,0.6
			c0.4,0.1,1-0.2,1.3,0.2c0.1,0.4-0.4,0.3-0.5,0.6C97-4.7,97-4.2,96.8-4.2c0,0.5,1.2,0,0.7,0.9c-0.5,0.3,0,1.1-0.3,1.6
			c-0.8,0.7-0.9,1.9-1.1,3c0.1,0.1,0.2,0.1,0.3,0.1c0.1-0.1,0.1-0.1,0.1-0.2c0.2-0.3,0.6-0.5,0.6-1c0.3-0.1,0.2-0.7,0.4-0.8
			c0.1-0.4,0.6-0.7,0.6-1.2c0.3,0,0.1-0.4,0.3-0.4c0.3,0.6,0.6,1.2,0.6,2c-0.5,0.5-0.7,1.5-1.3,1.9C97.6,1.9,97.8,2,98,2
			c0.6-0.3,0.9-1.1,1.1-1.8c0.2-0.1,0.2-0.3,0.5-0.2c0.3,1.3-0.9,1.5-1.3,2.3c-1.4,0.4-2.4-0.5-3.5-0.6c0-0.1-0.1-0.2-0.2-0.2h-0.4
			V1.2c0.2,0,0.4,0,0.6,0.2c0.3-0.4,0.8,0,0.9-0.5c-0.1-0.3-0.3-0.4-0.6-0.6c-0.9-0.3-1.2,0.9-1.9,1c0,0.4-0.5,0-0.4,0.4
			c-0.8,0.1-1-0.2-1.4-0.5L92.7,1c0.5-0.5,1.1-0.9,1.7-1.4c0.2-0.2,0-0.5-0.3-0.5c-0.4,0.1-0.5,0.3-0.9,0.5C93,0,92.8,0.1,92.5,0.3
			h-0.7C91.6,0,91,0.1,90.8-0.2c-0.1-0.4-0.4-0.5-0.6-0.8c0-0.4-0.6,0-0.8-0.3c-0.4,0-0.8-0.2-1.1,0c0.2,0.4,0.9,0.6,0.7,1.1
			c-0.1,0.2-0.6-0.1-0.5,0.3c-0.5,0.2,0.1,0.7,0,1.1v1.1c-0.2,0.1-0.4,0.4-0.6,0.6c-0.4,0.1-1-0.2-1.2,0.2h-0.7
			c0-0.3-0.2-0.2-0.4-0.4H85c-0.4-0.5,0.7-0.7,0.1-1c0-0.1,0-0.2-0.1-0.2c-0.3,0.4-0.9,0.1-1.3,0.2c-0.1-0.3-0.5-0.5-0.1-0.8
			c-0.1-1-1.2-0.5-1.3-1.4c-0.3-1.1-1.4-1.3-2.1-2.1c-0.2,0.1-0.4,0.1-0.5,0.3c-0.3,0.1-0.6,0.1-0.8,0.1c0-0.1-0.1-0.1-0.1-0.2
			c-0.2-0.1-0.4,0.1-0.5,0.3l0.1,0.3c-0.3,0-0.7,0.1-0.8-0.3c-0.2-0.6,0.3-0.7,0.5-0.9c0.5-0.1,1.5,0.2,1.8-0.2
			C80.7-3,81.5-3.4,82-2.5c-0.1,0.6,0.4,0.9,0.4,1.4c0.2,0.1,0.3,0.4,0.6,0.4v0.1c0.6,0.2,1.1,0,1.4-0.5c-0.1-0.3-0.1-0.8-0.6-0.7
			c-0.5-0.1,0,0.9-0.8,0.6c-0.2-0.6-0.3-1.3-0.7-1.7c-0.2-0.4-0.4-0.9-1-0.8c-0.3-0.4-0.8-0.1-1.3-0.2c-0.3,0.4-1,0.1-1.4,0.3v0.1
			c-0.2,0-0.5-0.1-0.7,0.1v0.1c-0.4-0.2-0.6,0.3-0.8,0.4c-0.3,0.2-0.7,0.1-0.8,0.4c-0.4,0.1-0.5-0.1-0.6-0.4
			c0.4-0.8,1.4-0.7,1.9-1.3c0.3,0.1,0.7-0.4,1.1-0.4c0.3-0.2,0.6-0.4,0.9-0.6c0.4,0.2,0.3-0.4,0.7-0.2C80.7-5.6,81-5.8,81.3-6
			C81.7-5.8,81.5-6.4,81.9-6.2z M96.3,3v0.1h-0.5C95.9,2.9,96.2,3,96.3,3z M90.7,2.1h-0.9c0-0.1,0-0.2-0.1-0.2
			c-0.2-0.2-0.4-0.4-0.4-0.7c-0.1-0.3,0-0.6,0.2-0.8c0.3,0.2,1.1,0,1.1,0.7c-0.3-0.1-0.2,0.2-0.3,0.3L90.7,2.1z M82.7,4
			c-0.1-0.1-0.3,0-0.4-0.1c-0.1,0-0.1,0.1-0.1,0.2l-0.8-0.1c0-0.1,0-0.1-0.1-0.1c0,0.3-0.5,0.2-0.6,0.4c-0.6-0.8,0.8-1.7,0-2.5
			c0-0.2,0.1-0.3,0.1-0.5c-1-0.6-1.7-2.4-3.1-1.8c0.2,0.1,0.3,0.4,0.7,0.3c0,0.3,0.3,0.1,0.4,0.3c0.3,0.3,0.9,0.4,0.7,1
			c-0.8,0.5-1.1-0.4-1.7-0.7c-0.3,0-0.5,0.3-0.3,0.5c0.2,0.3,0.5,0.4,0.6,0.7c-0.1,0.2-0.4,0.2-0.6,0.1c-0.9-0.4-0.5-1.4-0.9-2
			c-0.7-0.1-0.4,1-1.1,1h-1.1c0.1-0.1-0.1-0.3-0.2-0.2H74c0-0.1,0-0.1-0.1-0.2h-0.2c0.1-0.3-0.3-0.1-0.3-0.3
			c0.9-0.7-0.6-0.9,0.1-1.7c0.5-0.3,1.1-1,1.6-0.9l0.5,0.4c0.2,0.4,0.6,0.5,0.9,0.8c0.6-0.1,0.8,0.2,1.4,0.2C77.9-1,78-1,78.1-0.9
			c0.2-0.1,0.7,0.2,0.8-0.2H79v0.1h0.3l0.1,0.6h0.1v0.1c0.9,0.1,1.5,0.8,2.2,1.1c0.3,0.2,0.6,0.4,0.9,0.6c0,0.1,0,0.2,0.1,0.2
			c0.3,0.2,0.5,0.8,0.9,0.8L84,2.6l0.1-0.1c0.4,0.3,0.5,0.9,0.6,1.3c-0.3,0.6-1,0.8-1.5,1.1c-0.2-0.2-0.4,0.2-0.6-0.1
			C82.7,4.6,83,4.3,82.7,4z M77.7,7.9c0.7-0.5,1.1-0.7,1.8-1c0-0.2,0.2-0.1,0.3-0.1c0.1,0.5,0.5,0.5,0.7,0.9c0.4,0,0.7-0.4,1-0.4
			c0.1-0.1,0.2-0.1,0.1-0.2h0.1L81.8,8c-0.2,0.1-0.3,0.6-0.8,0.4c-0.3-0.8-1.4-0.3-2.1-0.4c-0.2,0.4-0.7,0.1-1.1,0.2
			C77.9,8.1,77.8,8,77.7,7.9z M77.8,5.3c0-0.4,0.4-0.5,0.5-0.9c0.3,0,0.6-0.1,0.7,0.3c-0.1,0.3-0.4,0.4-0.6,0.7H77.8z M75.2,8.6
			c0.1-0.3-0.3-0.1-0.3-0.3c0.1-0.4-0.6-0.4-0.1-0.7c0.5,0.2,1.1,0.5,1.6,0c0.1-0.2,0.2-0.5,0.1-0.7c-0.3,0-0.2-0.3-0.2-0.5
			c0.4,0,0.9-0.1,1.3,0.1c-0.7,0.8-1,2.1-1.7,2.8C75,9.5,75.7,8.6,75.2,8.6z M76.9,2.5c-0.3-0.2-0.8-0.4-0.7-0.8h0.3
			C76.7,2,76.8,2,77.1,2.2L76.9,2.5z M77.1,4.5c-0.1,0-0.3-0.1-0.4,0.1v0.1c-0.2,0-0.3-0.1-0.3-0.2C76.2,4,76.9,4.2,77,4
			C77.2,4,77.1,4.3,77.1,4.5z M64.4-10.3c0.3-0.3,0.7,0.1,0.9-0.3h0.4c0,0.3,0.5,0.2,0.6,0.5c0.6-0.2,1.1-0.1,1.6-0.5l1.9,0.1v0.1
			c0.4-0.1,1.3-0.1,1.9-0.1c0.1,0.2,0.3,0.4,0.4,0.3c0,0.2,0.2,0.1,0.3,0.1h0.2c0,0.1,0.1,0.2,0.2,0.2c0.5,0.1,1.1-0.2,1.4,0.2h1.9
			c0,0.3,0.4,0.2,0.6,0.2c0,0.3,0.3,0.1,0.4,0.3c0.1,0.6,1.2,0.7,0.6,1.4c-0.4-0.2-0.3,0.3-0.5,0.3c-0.1,0.2,0.1,0.3,0.3,0.3
			c0.4,0,0.7-0.3,1.1-0.5c0.1-0.4,0.7,0,0.8-0.4c0.3,0,0.3,0.1,0.6,0c0.1,0.4,0.5,0.1,0.8,0.2c0,0.1,0,0.2,0.1,0.2
			c0.2-0.1,0.2,0.2,0.3,0.3C80.9-7,80-7,79.6-6.8c-0.3,0.6-1,0.1-1.4,0.6c-0.5-0.1-0.6,0.6-1.3,0.4c-0.4,0.3-0.6,0.9-1.3,0.9v0.1
			c-0.1,0-0.3-0.1-0.4,0.1v0.1c-1.1-0.4-0.8,0.9-1.6,1c-0.4-0.4,0.2-0.6,0.2-1c0.5-0.1,0.6-0.6,1.1-0.8c0.2-0.5,1.1-0.7,0.6-1.3
			c-0.3,0.1-0.8-0.2-0.9,0.2c-1.2,0.4-2.4,1.7-3.6,1.4c0.2-0.9,1.1-1.3,1.6-1.8c0.2-0.2,0.6-0.1,0.8-0.4c0.1-0.1,0.1-0.2,0.1-0.3
			c-0.5-0.3-0.5,0.1-1,0.1C72-7.2,71.7-6.6,71-6.5c-0.4,0.1-0.7,0.6-1.3,0.4c-0.3-0.4,0.4-0.7,0.6-1.1c0.2-0.3,0.7-0.6,1-0.9
			c0.3-0.1,0.6-0.4,0.7-0.7c-0.4-0.4-0.6,0.1-1.1,0.1v0.1c-0.5,0.1-0.7,0.4-1.1,0.6c-0.6,0.1-0.5,0.9-1.1,0.9
			c-0.1,0.4-0.6,0-0.7,0.1v-0.5c0.1,0,0.2,0,0.2-0.1v-0.1c0.4-0.1,0.7-0.6,1.1-0.6c0.5-0.3,0.8-0.7,1.2-1c-0.3-0.1-0.6-0.1-0.9,0
			v0.1C69.3-9.4,69.4-8.7,69-9c-0.6,0.1-0.6,0.8-1.3,0.6c-0.1,0-0.1,0.1-0.1,0.2c-0.5,0.1-0.9,0.3-1.5,0.2c0.3-0.5,0.9-0.8,1.2-1.2
			C67.7-9,67.6-9.5,68-9.4L68-9.7c-0.1-0.2-0.4-0.1-0.6-0.1c-0.7,0.3-1.1,1.2-1.7,1.5c-0.3,0-0.7-0.1-0.9,0.2c0-0.1,0-0.2-0.1-0.2
			h-0.1c-0.1-0.7,1.8-1,0.4-1.5c-0.4,0.4-0.7,0.9-1.1,1.3c-0.1,0-0.1,0.1-0.1,0.2c-0.3,0.3-0.7,0.5-1.3,0.4c-0.2-0.1-0.4-0.6,0-0.7
			C63.7-8.7,63.3-10.2,64.4-10.3z M70,0.8c-0.4,0-0.1-0.5-0.3-0.8c0.4-0.9,0.6-1.9,1.2-2.7c0.2,0,0.5,0,0.4,0.3
			c-0.3,0.7-0.9,1.5-1.1,2.3C70.4,0.4,70.2,0.7,70,0.8z M66.7-1.1C67-2.3,66.6-4,67.5-4.8c0.3,0.2,0.6,0.6,0.5,1.1
			c-0.1,0.6-0.6,1-0.6,1.6l-0.2,0.1c-0.1,0.6,0.2,1.5,0,2.1C66.6,0,67.1-0.7,66.7-1.1z M67.2,3.9h0.4V4l2.1-0.1
			c0.1,0.1,0.2,0.3,0.3,0.2c0.1,0.8-0.9,0.1-1.1,0.6c-0.7-0.2-0.9,0.4-1.5,0.1C67.2,4.7,67.1,4.2,67.2,3.9z M68.5-2.5
			c0.1-0.4,0.8-1.8,1.1-0.6c-0.1,1.1-0.8,2-0.9,3C68.6,0.1,68.5,0,68.3,0C68.3-0.8,67.8-1.9,68.5-2.5z M71.6-1.2
			c0.2-0.3,0.9-1.3,0.9-0.3c-0.2,1-0.9,1.4-1.3,2.3H71C70.9,0.2,71.2-0.6,71.6-1.2z M66.1-3.1c-0.2,0.9-0.1,1.7-0.1,2.5
			C66-0.3,66.1-0.2,65.9,0c-0.8-1.3-0.7-2.6-0.6-4c0.1-0.5,0.4-0.7,0.4-1.2h0.7C66.6-4.4,65.8-3.7,66.1-3.1z M64.5-2.1
			C64.1-1.9,64-2.6,64-2.8c0.2-0.5-0.4-0.8,0-1.1c-0.3-0.5-0.2-1.7,0.7-1.6C64.7-4.4,64.1-3.2,64.5-2.1z M62.8-2.6
			c-0.4,0.1-0.6-0.3-0.7-0.6c-0.2-0.9-0.4-2.1,0.1-2.8c0.1,0,0.2,0.1,0.3,0.1c0.1-0.2,0.3-0.2,0.4-0.1C63.1-4.9,62.8-3.8,62.8-2.6z
			 M60.3-9.5c0.7-0.2,1.8-1.1,2.3-0.2c-0.1,0.7-0.8,1-1.1,1.4c-0.4-0.1-0.5,0.2-0.7,0.4h-0.7c-0.2-0.4,0.6-0.3,0.2-0.7
			c-0.1,0.1-0.4,0.1-0.5,0.1C59.5-9.1,60.4-9,60.3-9.5z M61.1-4.9c-0.3,0.1,0,0.7-0.5,0.5c-0.2-0.4-0.2-0.8,0-1.1
			C61.1-5.7,60.9-5.1,61.1-4.9z M59.4-5.3c0,0.3,0,0.6-0.2,0.8c-0.6,0-0.4-0.8-0.7-1.2C58.7-6.6,59.4-5.7,59.4-5.3z M57.8-8.3
			c0.3-0.1,0.5-0.6,1-0.4L59-9c0.2,0.3,0.1,0.8,0.1,1.2c-0.2,0.4-0.8,0.1-1.1,0.2C57.7-7.7,57.7-8.1,57.8-8.3z M56.8-7.8L57-7.4
			c0,0.3-0.2,0.4-0.3,0.7c-0.2-0.1-0.7,0.2-0.7-0.2C56.1-7.2,56.1-8.1,56.8-7.8z M49.3-8.3C49.5-7.7,49-8,48.7-7.5l-0.6-0.1
			C48.2-7.9,48.6-8.6,49.3-8.3z M48.2,6.6c0.3-0.1,0.9-0.2,1.1,0.1l0.1-0.2c0.2,0.4,0.8,0.1,1.2,0.2c0.1,0.4,0.6,0.1,0.8,0.2
			c0.1-0.1,0.2-0.2,0.1-0.3c-0.1-0.3-0.4-0.1-0.6-0.1c0-0.4-0.6,0-0.7-0.3l-0.9-0.1c0-0.1-0.1-0.2-0.2-0.2h-0.4c0-0.1,0-0.2-0.1-0.2
			c-0.2,0.1-0.2-0.2-0.3-0.3c0.5-0.5,1.4-0.1,2-0.3l0.1,0.1c0-0.2,0.3-0.1,0.3-0.1c0.2,0.2,0.7,0.1,0.9,0.4c0.5,0,0.6,0.4,1.1,0.4
			c0.1,0.1,0.2,0.3,0.3,0.2c0.2,0.7-0.2,1.1-0.6,1.4c-0.6-0.1-1.3,0.2-1.6-0.2l-2-0.1c-0.2-0.2-0.7-0.2-1.1-0.2
			c0-0.1-0.1-0.2-0.1-0.3C47.8,6.6,48.2,6.9,48.2,6.6z M51.2,3.4c0.5-0.1,0.8,0.3,1.1,0.5c0,0.3,0.4,0.1,0.6,0.3
			c0.4,0.4,1.7,0.7,1.4,1.5c-0.1,0.1-0.3,0.1-0.5,0.1c-0.2-0.2-0.4-0.4-0.8-0.4c0-0.1-0.1-0.2-0.2-0.2h-0.4V4.9
			c-0.2-0.1-0.4-0.1-0.6-0.1c0.1-0.4-0.5,0-0.5-0.3c-0.6,0-1-0.3-1.5-0.6c-0.1-0.3-0.4-0.1-0.5-0.4L49.1,3c0.4,0,0.8-0.1,1.1,0.1
			c0.1-0.1,0-0.2,0.2-0.1h0.2C50.6,3.4,51.1,3.1,51.2,3.4z M50.9,1.6c0.3,0.1,0.6,0.3,0.9,0.2c0,0.3,0.3,0.2,0.4,0.4
			c0.6,0.3,1,0.7,1.2,1.3c-1.2,0-2-0.7-2.7-1.5C50.6,2,50.9,1.8,50.9,1.6z M57,12.7c-0.5-0.2-1.3,0.4-1.3-0.4
			c0.3-0.1,0.5-0.6,0.9-0.6c0.3-0.4,1.1-0.2,0.9,0.5C57.7,12.5,57.1,12.5,57,12.7z M56.8,17.3c-0.3,0.1-0.6,0.7-0.9,0.2
			c-0.8,0.1-1.7-0.2-2.3,0.2c-0.6-0.3-0.8,0.5-1.3,0.1c-0.1-0.4,0.4-0.3,0.4-0.5c0.9-0.2,1.5-0.4,2.4-0.6c0.3-0.2,0.7-0.4,1.1-0.4
			l0.3-0.3c-0.3-0.1-0.7-0.1-1,0v0.1c-0.9-0.3-1.2,0.4-2.1,0.2c-0.2,0.4-0.7,0.1-1,0.2c0-0.3-0.3-0.3-0.5-0.3c0-0.1,0.1-0.2,0.1-0.3
			c0.8,0,1.2-0.3,2-0.3c0.1-0.1,0.1-0.3,0.3-0.2c0.3,0.2,0.6-0.1,1,0c0.4-0.3,1.3,0.1,1.6-0.4c0.3-0.1,0.3,0.2,0.5,0.3
			c0,0.2,0,0.5-0.3,0.5C57.1,16.4,56.8,16.9,56.8,17.3z M54.1,18.9c-0.1,0-0.3,0.1-0.4-0.1c0.2-0.3,0.4-0.3,0.7-0.5v0.1
			c0.6,0.2,1.3-0.7,1.8,0C55.8,19,54.6,18.5,54.1,18.9z M55.6,19.6c-0.1,0.4-0.6,0.5-0.8,0.7c-0.4,0.1-0.6-0.2-0.9-0.3v-0.2
			c0.2,0,0.4,0,0.4-0.2H55.6z M52.6,13.4c0.1-0.5,0.6-0.2,0.8-0.5h0.9v0.3c-0.6-0.2-0.7,0.5-1.3,0.2c-0.1,0.1-0.2,0.1-0.1,0.2
			C52.9,13.6,52.8,13.3,52.6,13.4z M55.9,13.8c0.2-0.3,0.8-0.1,1.1-0.1c0.1,0.1,0.1,0.2,0.2,0.3c-0.4,0.7-1.3,0.1-1.8,0.5
			c-0.4,0-0.8-0.1-1.1,0.1c-0.3-0.4-0.6,0.4-1.1,0.1c-0.1-0.6,0.7-0.1,0.8-0.5c0.7,0.1,1-0.4,1.7-0.3v-0.1L55.9,13.8z M54.6,11.6
			h-0.1c0-0.1,0-0.2-0.1-0.2h-0.1v-0.1c0.1,0,0.3,0,0.3-0.2h0.7C55.5,11.6,54.7,11.2,54.6,11.6z M54.1,9.5c0-0.5,0.7-0.2,1-0.2
			C55.1,9.7,54.5,9.5,54.1,9.5z M46.8,7.9h3.5c0.1,0.4,1,0.1,1.4,0.3c0.1,0.1,0.4,0.2,0.2,0.4h-3V8.6c-0.6-0.1-1.3-0.1-1.9-0.1
			C47,8.2,46.5,8.3,46.8,7.9z M46.8,9.6h2.9c0.3,0.4,0.9,0.1,1.4,0.2v0.5c-0.5,0.1-1.2,0.3-1.5-0.2h-0.8v-0.1
			C48.4,9.7,47,10.3,46.8,9.6z M46.9,11.1c0.8,0.2,1.8-0.1,2.5,0.3c0.5-0.1,0.7,0.1,1.3,0.1v0.3c-0.2,0.1-0.7-0.2-0.7,0.2V12
			L48.3,12v-0.1l-1.7-0.1c0.1-0.3-0.4-0.1-0.4-0.5C46.5,11.1,46.7,11,46.9,11.1z M50.6,13.2v0.2c-0.1,0-0.3-0.1-0.3,0.1v0.1
			l-0.2-0.2l-0.1,0.2c-0.1-0.2-0.1-0.3,0-0.5C50.1,13.1,50.5,13,50.6,13.2z M51.9,28.2h-0.3c0-0.1,0.1-0.4,0.3-0.3V28.2z M57.5,31.4
			h-0.2c0.1-0.2-0.1-0.2-0.3-0.2h-0.2V31c0.4,0,0.6-0.1,0.9,0C57.7,31.2,57.7,31.4,57.5,31.4z M59.3,29.7v-0.3
			c0.4,0,0.8-0.1,0.9,0.3H59.3z M61.3,21.9c-0.1-0.4-0.8,0-0.9-0.4h-0.6c-0.1,0.4,0.2,0.8,0.5,1.1c0.2,0.1,0.4,0.6,0.4,0.9l-0.1,0.6
			l-1.3,0.1c0.2,0.5,1.1,1.2,0.4,1.8c-0.2,0-0.5-0.1-0.7,0.1v0.1h-0.1c-0.2,0.4,0.1,1-0.3,1.3c-0.5,0.2-1.3-0.3-1.3,0.5
			c0.1,0.4-0.2,0.6-0.5,0.8c-0.5,0.1-0.4-0.9-1.1-0.6c-0.1,0.2,0,0.6-0.3,0.6c-0.3-0.3-0.2-0.8-0.6-1c-0.3,0.2-0.2,0.5-0.4,0.8
			c-0.1,0.3,0.4,0.5,0.1,0.8c0,0.1-0.3,0.1-0.4,0.1c-0.2-0.4-0.1-1.1-0.6-1.2c-0.4,0.1-0.1,0.6-0.4,0.8c-0.6-0.3-0.3-1.2-0.6-1.7
			h-0.2c-0.3-0.2-0.6-0.3-0.6-0.8c-0.4-0.1-0.4,0.3-0.5,0.5c0.1,0.3,0.1,0.5-0.1,0.7c-0.9,0.3-0.4-1.6-1.3-0.8
			c-0.6,0.2-0.5-0.4-0.8-0.5c-0.3-1,0.1-2.1,0.4-3c-0.1-0.1-0.1-0.2-0.3-0.1c-0.1,0-0.1,0.1-0.1,0.2c-0.4,0.1-0.5,0.8-1,0.8
			c-0.6-1.6,0.4-2.7,0.9-4.2c-0.7-0.1-0.8,0.7-1.3,1.1c-0.3,0.3-0.4,1.1-1,0.9c0-1,0.8-1.8,1-2.7c-0.9-0.3-0.7,1.3-1.7,1.1
			c-0.4-1.1,0.9-1.8,1.3-2.7c-0.2-0.3-0.4-0.1-0.7-0.1c-0.2,0.1-0.4,0.7-0.8,0.5c-0.9-0.9,0.1-2.1-0.1-3.1c0.2-0.7,0.3-1.4,0.7-2.1
			c0.3-0.1,0.6,0.1,0.5,0.4c0.1,0.8-0.6,2,0.4,2.2c0.6,0.1,0.6-0.4,1.2-0.2c0.1,0.7,1,0.1,0.9,0.9c-0.3,0.1-0.4,0.4-0.3,0.6
			c0.3,0,0.8-0.6,1.1-0.1c0.1,0.7-0.8,0.8-0.8,1.4c0.4,0,0.5-0.4,0.9-0.4c0.9,0.9-0.5,1.6-0.6,2.5l0.1,0.1c0.6-0.1,0.6-1.3,1.4-0.9
			c0.2,0.7-1.2,1-0.3,1.3c0.2-0.1,0.7-0.8,0.9-0.1c0.1,0.5-0.8,0.9-0.4,1.3c0.5-0.1,0.6-0.5,1.1-0.1c0.2,0.5-0.4,1.2,0.3,1.5
			c0.4-0.4-0.1-1.3,0.6-1.4c0.1,0.5-0.6,1,0.1,1.3c0.7-0.1,0-1.1,0.8-1.1c0,0.3,0,0.7,0.3,0.8c0.3,0.1,0.3-0.2,0.5-0.3
			c-0.2-0.2-0.2-0.6,0-0.9c0.5,0.3-0.1,0.9,0.2,1.3c0.3,0.6-0.2,1.4,0.4,1.7c0.5-0.3,0.2-0.9,0.3-1.4c-0.1-0.7,0-1.4,0.1-2.1
			c0.1-0.3,0.4-0.5,0.6-0.7c0.8-0.4,0.6,0.8,1.1,0.8c0.1,0.5,0.5,0.6,0.8,0.9c0.3-0.4-0.3-0.6-0.3-1c-0.1-0.1-0.5-0.4-0.3-0.7
			c0.3,0.1,0.5-0.1,0.6-0.3c-0.1-0.1-0.1-0.5-0.4-0.3c-0.3-0.3-0.8-0.3-0.7-0.9c0.8-0.1,0.3-2.1,1.5-1.2c0.1,0,0.7,0.1,0.6-0.3
			c-0.2-0.1-0.1-0.5-0.4-0.3c-0.2-0.3-0.6-0.3-0.8-0.5c0.1-0.3-0.1-0.6,0.1-0.7c0.4,0.2,0.4-0.6,1-0.3c0-0.2,0.3-0.3,0.1-0.5
			c-0.2-0.3-0.5-0.1-0.8-0.1c-0.2-0.4,0-0.9,0.3-1.2c0.3,0,0.8,0.1,0.8-0.3c-0.1-0.1-0.1-0.4-0.3-0.3c-0.4,0.1-0.6,0.3-1,0.2
			c-0.4-0.2,0-0.4,0-0.7c-0.2-1.3-0.3-2.5-0.9-3.6c0.1-0.4,0.1-0.8,0-1.2c-0.2-0.1-0.4-0.5-0.4-0.8c0.3-0.4,0.7-0.8,1.1-1
			c0-0.1,0.2-0.2,0.1-0.3c-0.1-0.1-0.3,0-0.4-0.1c-0.3,0.3-0.5,0.8-1.1,0.6C56.1,5.3,55.6,4,54.7,3c0-0.5-0.4-0.8-0.4-1.3
			c0.3-0.3,0.5-0.5,0.6-0.9c-0.4-0.4-0.9-0.2-1.4-0.1c0-0.3,0.1-0.6-0.2-0.8c-0.2,0-0.5,0.1-0.6-0.1c0-0.2,0.4-0.6-0.1-0.7H52
			c0-0.1,0-0.1-0.1-0.2h-0.1c0-0.1,0-0.2-0.1-0.2c-0.3,0-0.2-0.4-0.5-0.5c-0.8-0.2-0.3-1.5-1.2-1.5l-0.7,0.7
			c-0.3-0.1-0.1-0.6,0.1-0.7c0.3-0.1,0.4-0.5,0.6-0.8c-0.3-0.1-0.3-0.6-0.7-0.6h-0.9c0.1-0.7-0.8-0.7-0.5-1.5
			c-0.2-0.2,0-0.7,0.3-0.7c0,0.4-0.3,0.9,0.1,1.2c0.3,0.4,0.8-0.2,0.9,0.3h0.2c0,0.1,0.1,0.2,0.2,0.2h0.4c-0.1,0.1,0.1,0.3,0.2,0.2
			h0.2c-0.1,0.4,0.4,0.1,0.5,0.4c0.5,0.3,0.6,1.1,1.5,0.8c0,0.3,0.3,0.2,0.5,0.2c1.4,1.3,3.2,2.2,4.2,3.9c0.2,0.2,0.5,0.6,0.5,0.9
			c0.9,1.3,1.6,2.6,2.5,3.9c-0.2,0.8,0.5,1,0.7,1.7c0.7,1.4,0.3,3.2,0.8,4.6c0.4,0.8-1.1,0.9-0.1,1.1c0.3,0.2,0.1,0.5,0.1,0.8
			c-0.3,0-0.4,0.2-0.7,0.3c-0.1,0.3,0.3,0.3,0.3,0.5c0.4,0.1,0.6,0.7,0.7,1.1l-0.8,0.1v0.1h-0.1c-0.1,0.8,1.2,0.8,0.9,1.8
			c0.1,0.4-0.2,0.4-0.3,0.6c-0.3,0.1-0.8-0.2-1,0.2l0.1,0.3l0.1-0.1c0.4,0.2,0.8,0.6,0.6,1.1c-0.3,0.1-0.8,0-1,0.1
			c0,0.5,0.7,0.8,0.8,1.4c0.3,0.1,0.3,0.5,0.2,0.7C61.5,21.8,61.2,21.7,61.3,21.9z M65,28.4c-0.5,0.2-1.2-0.1-1.5,0.3h-0.2
			c0-0.1,0-0.2-0.1-0.2H63c-0.1-0.2,0.2-0.2,0.2-0.3c0.6,0,0.6,0.4,1.2,0v0.1C64.4,28.1,65,28,65,28.4L65,28.4z M65.3,27.6
			c-0.1-0.1-0.6-0.4-0.6,0h-0.1v-0.1h-0.2v-0.1c-0.3-0.1-0.6-0.1-0.9-0.1v-0.1h2C65.5,27.5,65.2,27.4,65.3,27.6z M68.9,19.5
			c-0.6,0.9,0.2,2.1-0.7,2.9c0.1,1.3-0.6,2.4-0.8,3.6c-0.1,0-0.1,0-0.2,0.1v0.1c-0.3,0.1-0.6-0.1-0.7,0.1l-3.6,0.1
			c0-0.1,0-0.1-0.1-0.2l-0.2,0.2l-0.1-0.2c-0.1,0.1-0.2,0.1-0.1,0.2c0-0.2-0.3-0.2-0.5-0.2l-0.1,0.1c-0.1-0.1-0.4-0.4-0.1-0.7
			c0.7-0.5,1.6,0.1,1.9-0.1l0.1-0.1l0.2,0.2c0.6-0.2,1.6,0.2,2.2-0.3c-0.1-0.1-0.1-0.3-0.3-0.3c-0.8,0-1.7,0.1-2.5-0.1
			c0.6-0.1,1.2-0.1,1.9-0.2v-0.1c0.1,0,0.2,0.1,0.3-0.1c-0.2-0.1-0.7-0.4-0.9-0.2c0-0.1,0-0.1-0.1-0.1L64,24.4v-0.1
			c-0.5,0-1.6,0.4-1.8-0.4c0.1-0.3,0.2-0.8,0.6-0.8c0.6-0.4,1.7-0.1,2.5-0.3v-0.1c0.8-0.2,2.2,0.4,2.3-0.5c-0.6-0.1-1.5-0.2-1.9,0.1
			L63,22.3c-0.2-0.4-0.1-1,0.1-1.3c0.4-0.1,1,0.2,1.2-0.2c0,0.1,0.1,0.1,0.1,0.2c0.1,0,0.3,0,0.3-0.1c0.4-0.2,1.4,0.3,1.5-0.4
			c-0.8-0.3-2-0.1-2.9-0.1c0-0.1,0-0.2-0.1-0.2c-0.2-0.1-0.2-0.4-0.3-0.7c0.1-0.1,0.1-0.3,0.1-0.5c0.6-0.4,1.6-0.1,2.5-0.2
			c0.1-0.4,0.7-0.1,0.5-0.6c-0.9-0.4-2.9,0.7-2.7-0.9c0.3-0.4-0.3-0.7,0-1.1c0.1,0,0.3,0.1,0.4-0.1V16h2.2l0.2-0.2
			c0.1,0.2,0.3,0.1,0.3,0c0.4,0,1.1,0.1,1.1-0.5c-0.6-0.3-1.4-0.3-2.1-0.1c-0.9,0.3-1.5,0-2.5,0.1c-0.2-0.3-0.2-0.8-0.1-1.1l1.1-0.1
			c0-0.1,0-0.1,0.1-0.1c0.1,0.3,0.3,0,0.4-0.1c1.2,0,1.8,0.1,2.6-0.6v-0.2c-0.3-0.1-0.6,0-0.9-0.1L66,13.3c-1-0.1-2.1,0.1-3,0.2
			c0-0.1,0-0.2-0.1-0.2h-0.2c-0.1-0.4,0.3-0.9-0.1-1.3c0-2.5,0-5.4-1.5-7c0-1,1.3-0.8,1.5-1.7c-0.1-0.1-0.3,0-0.5-0.1
			c-0.3,0.2-0.5,0.5-1,0.5v0.1c-0.3-0.3-0.6-0.2-0.9-0.6C60,2.5,60.8,2.7,61,2.4c0.2,0,0.4,0.1,0.5-0.1V2.2c0.3,0.1,0.3-0.1,0.3-0.3
			c-0.3-0.8-0.5,0.2-1.1-0.1C60.6,2.2,60,2,59.6,2c-0.1-0.3-0.6-0.6-0.4-1c0.3-0.1,0.6-0.1,0.7-0.4c0.3,0,0.5,0,0.6-0.3V0
			c-0.2-0.1-0.5-0.1-0.7,0v0.1C59.2,0,58.5,1,58.2-0.2c-0.1-0.3,0.3-0.4,0.4-0.6c0.3,0.1,0.3-0.3,0.5-0.3c-0.3-0.1-0.3-0.3-0.6-0.3
			c-0.1,0-0.1,0.1-0.1,0.2c-0.6,0.1-0.9-0.1-1.2-0.5c0-0.4,0.9-0.1,0.7-0.8c-0.1-0.3-0.4-0.1-0.6-0.1c-0.1,0.4-0.7,0.1-1,0.2
			c-0.2-0.3-0.7-0.4-0.8-0.9c0.2-0.3,0.7-0.2,0.6-0.7c-0.2-0.1-0.4-0.1-0.6,0v0.1C55-4,54.1-3.6,54.1-4.3c0.1-0.3,0.8-0.5,0.5-0.9
			c-0.6,0.1-0.9,0.6-1.7,0.4c0-0.3-0.5-0.3-0.2-0.6c0.3,0.1,0.3-0.3,0.5-0.4C53.2-6,53-6.1,52.9-6.2c-0.6-0.2-0.8,0.5-1.3,0.5v0.1
			c-0.2-0.1-0.5-0.2-0.6-0.4c0.1-0.3,0.3-0.4,0.2-0.7c-0.2-0.1-0.4-0.1-0.6,0v0.1c-0.1,0-0.3-0.1-0.4,0.1v0.1l-0.1-0.1
			c0,0-0.1,0.1-0.1,0.1c-0.1-0.1-0.1-0.3-0.3-0.2c-0.1,0-0.1,0.1-0.1,0.2c-0.1,0-0.2,0-0.2,0.1v0.1h-0.1c0.2-0.7-0.3-1.4,0.6-1.6
			c0-0.4,0.5-0.1,0.8-0.2c0,0.2,0.3,0.2,0.4,0.2c0.2,0.4,1.1-0.1,1.2,0.6c0.8,0.1,1.7-0.2,2,0.7c0,0.1-0.1,0.3,0.1,0.4h0.2v0.1
			c0.4,0.3,1.6-0.4,1.4,0.6c-0.3,0.3,0.2,0.4,0.3,0.7c0.4-0.3,0.4,0.1,0.7,0.1c1.1-0.3,1.1,1.2,2.1,1.2c0.4,0.2,0.5,0.6,0.8,0.8
			c0.2,0.3,0.6,0.3,0.9,0.5c0.4,1.4,2.2,1.3,2.5,2.8l1,1.3L64.5,2c0.2,0.5,0.3,1.1,0.7,1.5c1.2,0.9,1.8,2.2,2.2,3.7
			c0.3,0.1,0.2,0.4,0.2,0.7c-0.3,0.6,0.3,0.8,0.5,1.3c-0.2,1.6,0.8,2.7,0.7,4.2C69.4,15.5,68.6,17.3,68.9,19.5z M70.7,11.9
			c-0.1,0-0.2,0-0.2,0.1v0.1c-0.1,0-0.2,0-0.2,0.1v0.1c-0.4,0.2-0.3-0.3-0.7-0.2c-0.1-0.8-0.4-1.6-0.2-2.4l0.1,0.1
			c0.1-0.3,0.4-0.1,0.5-0.1v0.1c0.2-0.3,0.3,0.3,0.6,0.2C71,10.4,70.7,11.2,70.7,11.9z M72.6,41.9l-0.1-0.3c0.5,0.1,1.1,0,1.4,0.5
			C73.3,42.3,73.2,41.7,72.6,41.9z M75.1,42.7L75.1,42.7l0.5-0.1L75.1,42.7z M79.1,43.8c-0.1-0.3-0.6-0.1-1-0.2
			c-0.1-0.2,0.2-0.1,0.2-0.2c0.8,0.1,1.6-0.1,2.3,0.1C80.4,44.2,79.7,43.6,79.1,43.8z M86.7,44.5v0.1l-0.9-0.1c0-0.1,0-0.1-0.1-0.1
			c-0.1,0-0.2-0.1-0.3,0.1v0.1c-0.2-0.1-0.6,0.2-0.7-0.2h-1.9c-0.3-0.5-0.8,0-1.3-0.3v-0.1h3.8c0,0.4,0.4,0.1,0.7,0.2l0.1-0.1v0.1
			c0.5,0.3,1.4-0.3,1.6,0.2L86.7,44.5z M90.4,44.4l-0.3-0.1v0.1H90c-0.2-0.1,0.1-0.3,0.1-0.4c0.3,0,0.6-0.1,0.8,0.1
			C90.7,44.1,90.7,44.6,90.4,44.4z M93.4,44.1h-0.2v-0.1h0.2V44.1z M104.7,40.4c0.5,0.4,0.9,1.1,1.8,0.9c0-0.2,0.2-0.2,0.4-0.2
			c0.3,0.2-0.2,0.1-0.1,0.3c-0.6,0.3-1.1,0.4-1.8,0.7c-0.2,0-0.5-0.1-0.7,0.1v0.1c-0.7-0.1-0.9,0.3-1.7,0.3v0.1
			c-1.2,0.3-2.3,0.3-3.7,0.3c-0.1,0.4-0.6,0-0.8,0.3l-0.8,0.1c0.2-0.3,0.6-0.7,1.1-0.7v-0.1c0.3-0.2,0.8-0.3,0.7-0.8
			c-0.1-0.5-0.4,0.1-0.7,0c-0.8-0.2-1.3,0.3-1.9,0.5v0.1c-0.4,0.2-0.9,0.2-1.3,0.2c0-0.3-0.3-0.2-0.5-0.2c-0.4,0.4-0.7,1-1.3,0.8
			l-0.1,0.2l-2-0.1c0-0.3,0.1-0.8-0.3-0.9c-0.6,0.3-0.9,0.9-1.7,1c-0.2,0.4-0.7,0-0.9,0.4c-0.7-0.1-1.8,0.3-2.1-0.3
			c-0.3-0.4-0.1-1.4-0.8-1.3c-0.4,0.6,0.6,1.1-0.1,1.4c-0.4,0.1-0.4-0.3-0.7-0.2c-1.6,0.3-2.9-0.4-4.6-0.2c0-0.1,0-0.2-0.1-0.2
			c-0.3-0.1-0.2,0.3-0.6,0.2v-0.1c-0.7-0.3-1.8,0.3-2.2-0.4c-0.8-0.4-1.4-1-1.8-1.8c0.5-0.1,1,0.3,1.3-0.1c0.2-0.4-0.3-0.3-0.3-0.5
			c-0.5-0.2-0.8-0.6-1.1-1.1l-0.1-0.3c0.8-0.3,1.1,0.4,1.6,0.7c0.4-0.2,0.3,0.4,0.7,0.2c0.2-0.8-0.7-0.9-1.1-1.2
			c-0.2-0.4-0.6-0.7-0.9-0.9c0.5-0.3,0.6,0.4,1.1,0.4c0.4,0.4,1.1,0.5,1.7,0.7c0,0.1,0.1,0.1,0.1,0.2c0.2,0,0.3-0.1,0.3-0.2
			c-0.1-0.6-1-0.4-1.1-1c-0.3,0-0.4-0.4-0.7-0.4c0-0.1,0-0.2-0.1-0.2h-0.1c-0.2-0.2-0.4-0.4-0.5-0.7c0.8,0.1,1.4,1.2,2.3,1.3
			c0.4,0,0.8,0.5,1.1,0.1c0.1-0.4-0.3-0.3-0.5-0.5c-0.4,0.1-0.6-0.3-0.9-0.4h-0.3c-0.3-0.2-0.7-0.4-1-0.6c-0.5-0.6-1.2-1-1.5-1.8
			c0.3-0.2,0.8,0.2,0.9-0.3c-0.3-0.8-0.9-1.4-1.2-2.2c-0.2,0-0.5,0-0.5,0.3c0,0.3,0.3,0.6,0.1,0.9c-0.4,0-0.1,1-0.9,0.8
			c-0.4,0.4,0.2,0.6,0.2,1c0.3,0.3,0.4,0.7,0.5,1.1c-0.5,0.1-0.3-1-0.9-0.5c0,0.6,0.8,1.2,0.5,1.8c-0.3,0-0.4-0.3-0.7-0.4
			c-0.4,0.4,0,1,0.1,1.4c-0.2,0.4,0.6,0.7,0.1,1.1c-0.4-0.1-0.4-0.6-0.8-0.8c-0.6,0.3,0.4,1.2-0.5,1.2c-0.3-0.3-0.6-0.6-0.7-1.1
			c0.4-0.8,0.6-1.7,0.6-2.7c0.4,0.1,0.4-0.4,0.7-0.6C73,34.5,73.8,34,73,33.6l0.1-0.5l0.1,0.1c0.5-0.3,1.1-0.7,1.2-1.4
			c-0.7-1.3,0.9-1.5,0.7-2.5c-0.4-0.4-0.8-1.3-1.6-1.2c-0.1,0.8,0,1.5-0.5,2.2c-0.2,0.5-0.7,0.8-0.6,1.5c-0.3,0.8-0.1,1.9-0.9,2.5
			c0,0.3-0.1,0.5-0.3,0.7h-0.2c-0.6,0.8-0.3,1.8-0.8,2.3c0.2,0.6,0.6,1.2,1,1.5c0.5,0.3,0.8,0.7,1.3,1c0.3,0.1,0.6,0.2,0.7,0.6v0.3
			c-0.1,0-0.2,0-0.2,0.1v0.1c-0.5-0.1-0.8-0.6-1.3-0.6c0-0.1,0-0.2-0.1-0.2h-0.1c-0.1-0.2-0.5-0.5-0.8-0.6L70,38.6
			c0.1-1.2-1.2-2.8,0.1-3.7c0.6-1.9,1.8-3.5,1.9-5.6c0-2.3,0.1-4.5,1-6.7c-0.2-1,0.7-1.8-0.3-2.5c-0.1-0.8-0.1-1.4,0.3-2.1
			c-0.1-1-1.5-1.7-0.7-2.9c-0.2-0.7-0.2-1.5-0.6-2.2c0.2-0.2,0-0.6-0.1-0.9c-0.2-1,0.3-1.8,0.6-2.6c-0.5-0.5,0.1-1.4-0.6-1.7l-1,1
			c-0.7-0.1-1.9,0.4-2-0.7c0.2-0.5-0.4-0.8,0-1.3C69.2,7,70,5.7,70.5,6.4c0.3,0.4,0.6-0.2,1.1,0c0,0.2,0.3,0.1,0.4,0.3
			c0.6-0.5,1-1.1,1.3-1.9c-0.4-0.5-0.8,0-1-0.6c0-0.9,0.1-1.9-0.1-2.7c0.6-0.1,1.1,0.1,1.3,0.6c0.3,0.4-0.3,0.6,0,0.9
			c0.3,0,0.6,0.2,0.5,0.6c-0.2,0.2-0.9-0.2-0.7,0.4c0.5,0.1,0.9,0,1.2,0.3c-0.2,1,0.9,1.5,0.9,2.5c-0.2,0.3-0.4-0.1-0.6-0.1
			c-0.1-0.2-0.1-0.6-0.4-0.6c0-0.1,0-0.2-0.1-0.2h-0.1c0-0.1,0-0.2-0.1-0.2c-0.9,0.6,1.1,1.2-0.1,2.1c-0.4,0.1-0.4,0.6-0.7,0.9
			c0.1,0.6,0.8,0.2,1.1,0.3c0.2,0.4,0.3,1,1,0.8h0.2c0,0.1,0.1,0.2,0.2,0.2c0.5-0.3,0.4,0.4,0.9,0.2c0,0.3,0.3,0.2,0.5,0.2
			c0.4-0.4,1.1-0.6,1.5-1v0.1c0.7-0.4,0.8,0.3,0.9,0.9c-0.2,0.7,0.3,1.1,0.6,1.5h0.1l-0.1,0.7c0.1,0.1,0.4,0.1,0.5,0.1
			c0.2-1.1,0.6-2.1,1-3.1c0.4-0.1,0.2-0.6,0.4-0.8c-0.3-1,0.8-1.4,0.9-2.3c0.1,0,0.2,0,0.2-0.1V6.4c0.3-0.1,0.2-0.5,0.3-0.8
			c0.4-0.2,0.6-0.5,1.1-0.5V5C85,5,85.2,5,85.3,4.9V4.8c0.1,0,0.2,0,0.2-0.1V4.6c0.1,0,0.2,0,0.2-0.1V4.4c0.3-0.1,0.5-0.2,0.9-0.3V4
			h0.2c0.1,0.3,0.1,0.7-0.3,0.7c-0.5,0.8-1.1,1-1.9,1.2V6c-0.8,0.1-0.8,0.9-1.3,1.3c0,0.2,0.1,0.3,0.2,0.3c0.9,0.3,0.9-1.2,1.8-1.1
			c0-0.4,0.5,0,0.4-0.4c0.6-0.1,1-0.6,1.4-1c0.8-0.3,1-1.1,1.7-1.6c0.1,0,0.2,0.1,0.3-0.1V3.4c0.3-0.2,0.6-0.1,0.8-0.4h0.3
			c0,0.1,0.1,0.1,0.1,0.2c0.4-0.4,1.5,0,1.9-0.4v0.1c0.4-0.1,1.2-0.1,1.6-0.3c0,0.1,0,0.2,0.1,0.2H94c-0.4,0.6-1,0.6-1.7,0.5
			c-0.1,0.3-0.4,0.1-0.5,0.3c-0.6-0.2-1.1,0.1-1.5,0.4c-0.6,0-0.6,0.8-1.2,0.8c-0.2,0.4-0.8,0.3-0.8,0.8c-0.2,0.1-0.4,0.5-0.5,0.8
			c-0.2,0.2-0.6,0.4-0.6,0.8c0.1,0.4,0.7,0.2,1.1,0.3c0,0.4,0.2,0.8,0.4,1c-0.1,0.3,0.4,0.2,0.4,0.4c0.2-0.2,0.4-0.5,0.2-0.8
			c-0.3,0-0.5-0.2-0.5-0.5c0.2-0.6,0-1.8,0.9-2c0.7-0.4,1.6-0.2,1.5-1.3c0.1,0,0.3,0,0.3-0.1V4.2h0.1v0.1c0.4-0.1,1.3-0.1,1.9-0.1
			c0.3-0.4,1.2,0,1.6-0.4h0.4v0.1C95.7,4,95.9,4,96.1,4c0.3,0.2,0.4,0.5,0.9,0.5c1-0.1,2,0.5,2.6,0.9c0.2,0.4,1-0.1,1,0.7
			c0.3-0.1,0.3,0.4,0.5,0.5c1,0.8,0.2,2.2,0.9,3.1c-0.1,0.4,0.3,0.9-0.1,1.2c-0.4,0.2-0.8,0.4-1.3,0.3c-0.3-0.1-0.2-0.7-0.6-0.6
			v-0.1c-0.8-0.1-1.6-0.1-2-0.8c-0.1-0.3,0.1-0.5,0.3-0.7c0,0.1,0.1,0.2,0.2,0.2h0.3v0.1l0.8,0.1c0,0.1,0.1,0.2,0.1,0.1
			c0.1,0,0.2,0.1,0.3-0.1V9.3l0.1,0.1c0.2-0.2,0.6-0.1,0.7-0.5c0.4-0.8-0.5-1.1-0.5-1.9c-0.3-0.5-1.1-0.2-1.6-0.3
			c-0.3,1-1.6,0.1-1.7,1.3c-0.5,0.5,0.4,1.1-0.2,1.6c-0.8,0.2-1.2,0.9-2,1.1v0.1c-0.4,0.1-1.1-0.2-1.3,0.2l-0.7,0.1v0.1
			c-0.1,0-0.2,0-0.2,0.1v0.1h-0.1c-0.2,0.3,0.1,0.5,0.2,0.8c0.3,0.1,0.7,0.4,1.2,0.3v0.1c0.1-0.1,1.3,0,1.8-0.3
			c0.1,0.1,0,0.2,0.1,0.3c-0.9,0.3-1.9,0.6-2.9,0.7c-0.6,0.4-1.6,0.3-2,0.9c-0.5,0-0.8,0.8-1.5,0.5c-0.4,0.4-1,0.7-1,1.5
			c0,0.1,0.2,0.2,0.1,0.4c0,0.1-0.1,0.1-0.2,0.1c-0.7-1.1,0.4-2,0.4-2.9c-0.1-0.2-0.3-0.1-0.5-0.1c-0.7,0.9-1.4,2.3-0.9,3.5h0.1
			c0.2,0.4,0.4,0.8,0.7,1c0.1,0.2,0.3,0.6-0.1,0.6c-0.2-0.4-0.4-0.2-0.7-0.4c-0.5-0.1-0.4-1-0.9-0.5c0.2,0.8,0.8,1.3,1.5,1.7
			c0.2,0.5,0.9,0.4,1.5,0.4c0.4-0.4,1.2-0.7,1-1.5c0.2-0.3,0.1-0.8,0.5-0.9h0.9c0,0.1,0.1,0.1,0.1,0.2c0.5-0.5,1.6-0.6,1.5-1.5
			c-0.6-0.1-1,0.3-1.7,0.1c0,1.2-1.7,0.1-2,1c-0.5-0.7,0.4-1.4,0.6-2c0.4,0,0.6-0.2,0.7-0.4c0.1,0,0.3,0.1,0.4-0.1v-0.1
			c0.6,0.3,0.5-0.4,1.1-0.2c0-0.4,0.6,0,0.6-0.4c0.7,0.2,0.9-0.4,1.6-0.2c0.3-0.4,1,0.1,1.3-0.4c0.1,0.2,0.2,0,0.3,0
			c0.6-0.2,0.8,0.4,1.4,0.2c0,0.4,0.5,0,0.5,0.3c0.6-0.1,0.8,0.4,1.3,0.4c0.5,0.3,1.3-0.4,1.5,0.3c0,0.3-0.1,0.5-0.2,0.8l-1.3,0.1
			v-0.1c-0.3-0.1-0.8-0.1-1,0.1c0,0.1-0.2,0-0.3,0.1c-0.1-0.4-0.8,0-1-0.4h-1.3c0.1-0.1-0.1-0.3-0.2-0.2c-0.8,0.3-1.8,0.3-2.1,1.3
			c0.3,0.5,1,0.2,1.5,0.3c0.2,0.4,0.7,0.1,1.1,0.2c0.2,0.8-0.2,1.9,0.5,2.5c0,0.3,0,0.6-0.2,0.7c-0.4-0.3-0.4-0.9-0.5-1.5
			c-0.1-0.3-0.3-0.4-0.6-0.3c-0.2,0.6,0.8,1.6-0.4,1.7c-0.4,0.2-0.2,0.9-0.1,1.3c0.2,0.7,0.7-0.1,0.9-0.1v-0.3h0.3v0.3
			c-0.4,0.1-0.6,0.7-0.9,0.8c-0.5-0.2-0.5,0.4-1,0.2c-0.1-0.3-0.3-0.4-0.5-0.6h-0.2c0,0.8-1.4,1.5-0.4,2.2c0.8-0.1-0.1-0.9,0.4-1.2
			c0.6,0.6,0.1,1.4,0.1,2.1c0,0.4-0.2,1-0.7,1.1c-0.7-0.3,0-1.5-0.6-2c-1.5-0.4-1.3,1.5-2,2.1l-0.1,1.6c-0.4-0.2-0.4-0.9-0.5-1.3
			c0.1-0.5-0.2-0.8-0.3-1.1h-0.8c0.1-0.5-0.2-0.9-0.5-1.2h-0.3v-0.1c-0.2-0.1-0.4,0-0.6-0.1c-0.1,0.4-0.5,0.1-0.7,0.2
			c-0.7-0.5-1.5-1.2-1.4-2.3c-0.2-0.3-0.1-0.8-0.5-1c-0.4-0.1-0.4,0.4-0.8,0.2c-0.6-0.8,1.2-1.4-0.1-1.9c-0.6,0.1,0.1,0.9-0.5,0.9
			c-0.2,0.2-0.2,0.4-0.2,0.7c-0.3-0.1-0.4-0.5-0.8-0.5c-0.5,0.4,0.7,1.1-0.2,1.1c0-0.3-0.4-0.1-0.6-0.2c-0.2,0.1-0.1,0.4-0.1,0.6
			c0.3,0,0.3,0.4,0.4,0.6c0,0.4-0.5,0-0.4,0.4c-0.5,0.1-0.6-0.3-0.8-0.6c-0.6,0.1-1.2-0.1-1.3-0.6h-0.1c-0.2-0.6-0.8-1.4-0.2-2
			c0-0.2,0-0.4-0.2-0.6c-0.3,0.1-0.4-0.1-0.6,0.3c-0.1,0.8-0.1,1.6,0.1,2.3c-0.1,0.1-0.3,0-0.5,0.1c0-0.1-0.2-0.3-0.3-0.2
			c-0.1-0.3-0.3-0.3-0.5-0.4h-0.8c0-0.1,0-0.2-0.1-0.2c-0.1,0-0.2-0.1-0.3,0.1v0.1c-0.1,0-0.1,0-0.2,0.1v0.1
			c-0.7,0.3-0.9-0.4-1.1-0.8c-0.1-0.6-0.4-1.1-0.4-1.7C74.3,17.9,74,18,73.7,18c-0.3,0.2-0.3,0.4-0.3,0.7c0.5,0.4-0.4,0.8,0.2,1.1
			c0,0.7,0.8,1.2,0.4,1.8c-0.4-0.1-0.5,0.1-0.7,0.3c-0.1,0.2,0.2,0.7-0.2,0.7c0.4,1,0.1,2.2-0.2,3.1c-0.1,0.2,0.1,0.4,0.1,0.6
			c0.1,0.1,0.4,0.4,0.6,0.6c-0.1,0.4,0.2,0.8,0.5,1.1c0.5-0.3,0.7,0.7,0.9-0.1c-0.1-0.2,0.1-0.6-0.2-0.6c0.4-1.5-0.6-2.6-0.8-4
			c-0.3-0.3-0.2-0.7,0.1-0.9h0.3c0.6,0.9,1.5,1.3,2.2,2.1c0.5,0.3,0.8,0.6,1.3,0.9c0.2,0.2,0.4,0.5,0.8,0.4c1.5,1.1,3.9,1.6,4,4
			c0.2,0.6,0.7,0.9,0.8,1.5c-0.4-0.1-0.6-0.7-1-0.9c-0.1-0.1-0.3-0.1-0.4-0.1l-0.1,1.4h-0.2c-0.3-0.4-0.3-0.9-0.8-1
			c-0.7,0.8,0.4,1.3,0.5,2.1c0.4,0.3,0.4,1.3,1.3,1l0.1-0.1c0.3,0.3,0.8,0.6,1.2,0.8c0,0.1,0.1,0.2,0.2,0.2h0.4v0.1
			c0.2,0.1,0.4,0.1,0.6,0.1c0.4-0.2,0.1-0.6-0.1-0.7c-0.7-0.2-0.9-0.9-1.5-1.1c-0.1-0.2-0.2-0.3-0.1-0.5c0.1-0.1,0.2-0.1,0.3-0.1
			c0.5,0.3,0.9,0.4,1.4,0.9c0.1-0.1,0.4-0.1,0.3-0.3c0.1-0.6-0.9-0.6-0.7-1.3c0.3,0,0.7,1,1.1,0.3c0-0.7-0.7-0.8-1.1-1
			c-0.2-0.2-0.1-0.5-0.4-0.4c-0.4-0.7-1.6-0.8-1.4-2c-0.3-0.8-0.9-1.5-1.6-1.9c-0.1-0.3-0.4-0.2-0.5-0.5c-0.4-0.1-0.8-0.5-1.2-0.5
			c0-0.4-0.6-0.1-0.8-0.4c-0.6,0-0.8-0.5-1.3-0.7c-0.2-0.2-0.6-0.3-0.8-0.7c0.1-0.1,0.4,0,0.6-0.1c0,0.1,0.2,0.3,0.3,0.2
			c0.1,0.2,0.4,0.4,0.6,0.5c0.3,0.1,0.6,0.6,1,0.5c0.4,0.5,1.6-0.3,1.8,0.8h0.4v0.1c1.1-0.5,0.8,1.1,1.6,1.4
			c0.7,0.4,1.1,1.6,1.9,2.1c0.2,0.4,0.7,0.5,0.8,0.9c0.5-0.1,0.3,0.5,0.6,0.6c0.4,0.8,1.8,1.2,1.2,2.4c0.1,0.4-0.2,0.6-0.6,0.5
			c0-0.1-0.1-0.1-0.1-0.2c-0.8,0.7,0.6,1.3,0.8,2.1c0.4,1-0.3,1.9,0.4,2.8c0.9,0,0.6-1.3,1.6-1.1c0.3-0.2,0.2-0.7,0.1-0.9
			c-0.2-0.3-0.2-0.6-0.2-0.9h0.5c0.3,0.1,0.5,0.4,0.8,0.4c0.3-0.1,0.6-0.3,0.4-0.6c-0.4-0.7-0.6-1.5-0.8-2.3c0.9,0.1,1,1.2,1.5,1.9
			c0.5,1.4,0.7,2.9,0.8,4.4c-0.2,0.3-0.9,0.4-0.6,0.9c0.4,0.3,0.5,1,1,0.9c0.8-0.4-0.7-1.4,0.6-1.3l0.3-0.5c-0.2-1,0.1-2.1,0-2.9
			l0.3-0.2c0.4,0.7,0.5,1.9,1.4,2.1c0.2,0.2,0.1,0.7,0.6,0.6c0-0.3,0.4-0.2,0.6-0.1c0,0.4-0.6,0.8-0.3,1.3c0.2,0.1,0.3,0.2,0.5,0.1
			c0.9-0.4,0.6-1.6,1.3-2.1c0.4-0.6-0.1-1.8,0.7-2c0.7-1.2,0.1-2.5,0.6-3.7c0.2-0.4,0.1-0.8,0.4-1.1c0.5,0.3-0.1,0.7-0.1,1.1
			c-0.2,1.8,0.2,2.9-0.3,4.6c-0.7-0.3-0.5,0.6-0.9,0.7c-0.1,0.3-0.2,0.7-0.2,1.1c0.2,0.1,0.5,0,0.8,0.1c0-0.3,0.3-0.2,0.5-0.2
			c1-0.5,0.5-1.7,1.2-2.4c0.2-0.8,0.5-1.6,0.3-2.4c0.1-0.2,0.3-0.2,0.4-0.1c0.3,1-0.4,2.2,0.3,3c0.7-0.2,0.3-1.1,0.5-1.6
			c-0.3-1,0.8-1.9,0.2-2.8c0.1-0.1,0.2,0,0.3-0.1c0.4,1.1-0.1,2.6,0.3,3.8c-0.4,0.2,0.2,0.3,0,0.5l-0.1,1.6
			C104,38.9,104.9,39.5,104.7,40.4z M99.7,13.6c-0.3-0.1-0.8,0.2-1-0.2c-0.1,0-0.3,0.1-0.3-0.1c-0.1-0.6,0.7,0,0.8-0.5h0.7
			C100,13.1,99.8,13.4,99.7,13.6z M95.3,29.4c-0.6,0.1-0.6-0.7-1-1.1l-0.1-0.9C94.7,27.9,95.1,28.6,95.3,29.4z M89,32.7
			c-0.3-0.2-0.1-0.8-0.5-1.1c-0.4-0.8-1-1.2-1.5-1.9v-0.4c1-0.3,0.8,0.9,1.5,1.3c0.4,0.3,0.4,1,1.1,1c0.1,0.4,0.6,0.4,0.7,0.9
			c-0.2,0.5,0.4,1-0.1,1.1c-0.3-0.2-0.7-0.4-1-0.6C89.1,32.8,89.1,32.7,89,32.7z M84.7,24.9c-0.3-0.3-1.2-0.3-1-0.9
			c0.3,0.3,1.1-0.1,1.3,0.3c0.6,0,0.9,0.4,1.4,0.7c0.3,0,0.5,0.4,0.6,0.7c-0.1,0.1-0.3,0-0.4,0.1c-0.2-0.2-0.4-0.4-0.7-0.6h-0.6V25
			C85.2,24.8,84.9,24.9,84.7,24.9z M87,27L87,27c-0.2,0.2-0.4,0.1-0.6,0.1l-0.1-0.3C86.6,26.8,87,26.6,87,27z M89.2,27.1
			c-0.3,0-0.4-0.4-0.5-0.6c-0.1-0.3,0.1-0.5,0.2-0.8c0.2,0.1,0.4,0.3,0.5,0.6C89.1,26.5,89.5,26.9,89.2,27.1z M90.1,30.5h0.3
			c0.3,0.1,0.4,0.6,0.7,0.3c0.2,0.4,1,1,0.9,1.7c-0.4,0.2-0.6-0.2-0.8-0.4C90.9,31.4,89.9,31.2,90.1,30.5z M91.7,28.2
			c0.4,0,0.1,0.8,0.7,0.6c0.3-0.2,0.3-0.6,0.1-0.8c-0.4-0.3-0.6-0.8-1.2-0.7c0.2-0.3,0.2-0.4,0.5-0.3l0.1,0.1l0.4-0.5
			c0.6,0.4,0.2,1.2,0.5,1.8c0.2,0.7,0.4,1.4,0.7,2.1h-0.4C93,30,92.4,30,92.1,29.5C91.7,29.2,91.8,28.6,91.7,28.2z M93.1,32
			c0.3-0.1,0.4,0.1,0.6,0.3c-0.1,0.1-0.1,0.2-0.1,0.3C93.4,32.5,93,32.2,93.1,32z M103.8,23.7c-0.4-0.4-0.4-1.1-0.7-1.5h0.1
			c-0.1,0.3,0.2,0.4,0.3,0.5l-0.1,0.1C103.8,23,103.5,23.3,103.8,23.7z M106.5,9.7c-0.3-0.1-0.5-0.7-0.1-0.8
			c0.2,0.1,0.4,0.2,0.4,0.5C106.9,9.6,106.9,9.8,106.5,9.7z M107.3,11.6l0.1-0.3l0.1,0.3H107.3z M108.5,6.3c-0.1,0-0.2,0-0.2,0.1
			v0.1c-0.6,0.3-1,0.6-1.5,1c-0.4-0.2-0.5,0.4-0.9,0.2c-0.4,0.3-1,0.2-1.3,0.5c-0.5-0.2-1.4,0.2-1.7-0.3c0.1-0.3,0.6-0.1,0.7-0.5
			v0.1c0.3,0,0.8-0.3,1.1-0.3c0.5-0.5,0.6-1.5,1.7-1.2c0.4-0.2,0.3-0.8,0.8-0.8l0.1-0.2v0.1c0.4-0.1,1.1,0,1.3-0.5
			c0.2,0,0.4,0.1,0.5-0.1V4.2c0.1,0,0.3,0.1,0.4-0.1V4.1c0.1,0,0.1,0,0.2-0.1V3.9c0.4-0.3,1-0.7,1.3,0c-0.1,0.8-0.9,0.9-1.3,1.4
			C109.4,5.6,108.6,5.8,108.5,6.3z M109.8,18.8h-0.3l0.1-0.3C109.7,18.6,109.9,18.7,109.8,18.8z M110.2,16c0,0.1-0.1,0.1-0.2,0.1
			v-0.6C110.2,15.6,110.2,15.8,110.2,16z M111.4,15.4c0.1-0.1,0.5,0.1,0.4-0.3c0.7,0.3,1.1-0.7,1.5,0.1c0,0.3-0.4,0.4-0.6,0.7
			c-0.5-0.1-0.7,0.3-1.3,0.2C111.2,15.9,111.1,15.5,111.4,15.4z M111.9,20.3h-0.2c-0.1-0.3,0.1-0.3,0.2-0.5c0.2,0,0.4-0.1,0.4,0.2
			C112.2,20.1,112.2,20.5,111.9,20.3z M112.4,19.1c-0.4,0-0.9,0.1-0.9-0.5c0.2-0.4,0.7-0.6,0.8-1.1c-0.3-0.1-0.8,0-0.9-0.4
			c0.2-0.7,0.8-0.5,1.2-0.9c0.5-0.2,0.7,0.2,0.6,0.6C113,17.6,113.4,19,112.4,19.1z M113.5,23.1v0.2h-0.3v-0.5
			C113.5,22.7,113.5,23,113.5,23.1z M113.7,8.9c-0.2,0-0.4-0.1-0.5,0.1c-0.4,0.1-0.9,0-1.1,0.4c0.3,0,0.4,0.6,0.7,0.2h0.2V9.6
			c0.3,0,0.3,0.3,0.4,0.3c-0.1,0.3-0.2,0.8-0.5,0.9c-0.3,0.1-0.9-0.2-1.1,0.2c-0.1,0-0.3,0-0.3,0.1v0.2c0.5,0.1,1.3,0.2,1.7-0.1
			c0.3,0.2,0.1,0.3,0.1,0.7c-0.1,0.4-1.3,0.2-0.7,0.7c0.5-0.1,0.5,0.6,0.5,0.9c0,0.5-0.3,0.8-0.7,0.9c-0.6-0.3-1.8,0.4-2-0.5
			c-0.1-0.5,0.9-1.1,0.1-1.4h-0.2c-0.2-0.5,1.3-1.6-0.1-1.6c-0.6-0.2,0-0.7,0-1l0.5-0.5c-0.1-0.6-1.3-0.1-0.7-0.9
			c0.4-0.4,0.8-0.6,1.3-0.7c0.2-0.3,0.8,0.1,0.9-0.3c0.5,0.2,0.5-0.4,1.1-0.2c0.1-0.1,0.1-0.2,0.1-0.3c-0.8-0.3-0.9,0.4-1.8,0.1
			c-0.1,0.4-0.8,0-0.9,0.4c-0.3-0.3-1.3,0.4-1.3-0.4c0.1,0,0.2,0,0.2-0.1V6.9c0.2,0,0.4,0.1,0.5-0.1V6.7c0.5,0.2,0.6-0.4,1.2-0.2
			c0.3-0.3,0.8-0.4,1.2-0.6c0.3-0.2,0.9,0.1,1.1-0.3c0.4,0,0.4,0.6,0.3,1C114.3,7.6,113.3,8,113.7,8.9z M114.2,17.5h2.9l0.1,0.2
			c0.3,0,0.1-0.2,0.5,0c0.7-0.1,1.5,0.2,2-0.2h1.1c0.2,0.3-0.1,0.6-0.3,0.8c-0.2,0.1-0.5-0.1-0.7,0.1l-2.2,0.1
			c-0.4-0.4-1.1-0.1-1.6-0.2c-0.1-0.4-0.7-0.1-1-0.2C114.9,17.7,114,18.2,114.2,17.5z M115.2,19.3l0.2,0.2c0.1-0.3,0.1,0.1,0.3-0.1
			v-0.1c0.6-0.1,1.4-0.1,1.9,0c0.3-0.3,0.8,0.6,1.1,0c0.6,0.5,1.5-0.4,2.1,0.2c0.1,0.5-0.5,0.3-0.7,0.5h-5.2
			C114.8,19.9,115,19.4,115.2,19.3z M115.2,21.4l0.2-0.3c1.7,0.2,3.3-0.1,4.9,0.3c0.1,0,0.1,0.2,0.1,0.3l-0.3,0.2l-3.8-0.1v-0.1
			C115.9,21.6,115.2,22,115.2,21.4z M117,26l-0.8-0.1v-0.1l1-0.1v-0.1h1.6c0,0.1,0.1,0.2,0.1,0.3C118.2,25.9,117.4,26.4,117,26z
			 M120.4,23.6l-5.2-0.1L115,23h4.3c0.2-0.2,0.4-0.2,0.7-0.2v0.1c0.1,0,0.9-0.3,1,0.2C121,23.4,120.5,23.5,120.4,23.6z M121.4,16.3
			c-0.4,0.1-0.6,0.6-1.1,0.4l-0.1,0.1c-1.4,0.1-3,0.1-4.5,0.1c-0.1-0.4-0.5-0.1-0.7-0.2c-0.4-0.1-0.6-0.8-0.4-1.2
			c0.1-0.4,0.6-0.1,0.9-0.2c0.1,0.4,0.6,0.1,0.8,0.2c0.1,0.4,0.7,0,0.8,0.4c1.7,0.1,2.6-0.3,4.2-0.1C121.3,15.9,121.5,16,121.4,16.3
			z M123.8-2.5c-0.1,0.4-0.5,0.4-0.9,0.4c-0.2,0-0.4-0.2-0.7-0.2c-0.2,0.2-0.4,0.5-0.1,0.8c0.3,0.4,1.1,0.1,1.1,0.7
			c-0.3,0.5,0,1.4-0.7,1.5c-0.2,0.2-0.9-0.2-0.9,0.3c0,0.4,0.5,0.3,0.5,0.5c0.4-0.2,0.3,0.3,0.6,0.3v0.2c-0.4,0.1-1.2,0.2-1.4-0.1
			c-0.4-0.1-0.9,0.2-1.1-0.2c0,0.3-0.4,0.1-0.6,0.2c0.2,0.5,1,0.6,1.6,0.7v0.1c0.5,0.3,1.4-0.3,1.5,0.5c0,0.5,0.1,0.9-0.3,1.2
			c-0.1,0.1-0.3,0.1-0.4,0.1c-0.3-0.5-1.1-0.1-1.6-0.3c-0.3-0.1-0.3-0.4-0.7-0.3c-0.1,0-0.3,0-0.3,0.1c0.1,0.3,0.3,0.6,0.6,0.7h0.7
			c0.3,0.4,0.9,0.2,1.4,0.3c0.2,0.1,0.6,0.5,0.1,0.7c-0.3,0.1-0.4-0.1-0.7-0.2l-1.1,0.1c-0.3-0.5-0.7-0.3-1.1-0.2
			c-0.1,0.2-0.2,0.3-0.1,0.5c0.2,0.5,0.8,0.3,1.1,0.3c0,0.1,0.1,0.2,0.2,0.2c0.5,0.1,1.1-0.2,1.4,0.2c0.2-0.1,0.4,0.3,0.4,0.5v0.3
			c-0.4,0.1-1.1-0.2-1.3,0.2l-0.1,0.1c0.3,0.4,1.1,0.3,1.3,0.9c0.1,0.4-0.4,0.2-0.4,0.4c-0.2,0-0.3,0.1-0.3,0.2
			c0,0.2,0.1,0.5,0.4,0.4c0.3,0,0.5,0.4,0.7,0.5c-0.1,0.8-1.3,0.3-1.8,0.8l-0.5,0.4c0.1,0.4,0.8,0.3,1,0.4v0.1
			c0.2,0.1,0.5,0.1,0.7,0.1c0,0.3,0.3,0.6-0.1,0.7c-0.6,0.2-1.5-0.2-1.9,0.3c0.2,0.1,0.3,0.4,0.7,0.3c-0.1,0.4,0.4,0,0.4,0.3
			c0.4,0,0.9,0.3,1.1,0.7c0.2,0.7-0.6,0.3-0.9,0.5v0.1c-0.7,0.2-1.6-0.1-2.1,0.3c-0.5,0-1.1,0-1.3-0.1V15c-0.5-0.2-1.4,0.1-1.7-0.3
			c-0.5,0.2-0.5-0.3-0.9-0.3v-0.2c0.6-0.3,1.9,0.4,1.9-0.6c-0.7-0.3-1.7-0.1-2.1-0.8c0-0.6,0.8-0.2,1.3-0.3c0.1,0.4,0.5,0.1,0.8,0.2
			c0.1-0.1,0.1-0.2,0.1-0.3c-0.2-0.1-0.3-0.4-0.6-0.3c-0.1-0.4-0.8,0.1-1-0.4c-0.3,0.1-0.2-0.3-0.3-0.4c-0.1-0.5,0.4-0.4,0.8-0.4
			c0.2,0,0.3,0.1,0.3,0.2c0.5-0.1,1.3,0.2,1.5-0.3c-0.1-0.6-1-0.1-1.3-0.5c-0.4,0.1-0.5-0.2-0.8-0.2c-0.2-0.3-0.5-0.4-0.3-0.8
			c0.4,0.1,1.1-0.2,1.3,0.2c0.4-0.1,0.9,0.1,1.1-0.1c0.1-0.3-0.2-0.4-0.4-0.5l-0.7-0.1c-0.3-0.2-0.6-0.2-0.9-0.4
			c-0.3-0.2-0.3-0.7-0.4-1.1c0.1-0.4,0.4-0.1,0.4-0.5l0.1,0.1c0-0.1,0.1-0.1,0.1-0.1c0.1,0.4,0.9,0,1.1,0.4c0.3,0.1,0.6-0.1,0.7-0.3
			c0-0.6-0.8,0.1-0.9-0.5h-0.6c0-0.3-0.3-0.1-0.4-0.3c0.1-0.7,0.4-1.4,0.7-2.1c0.5-0.9,0.8-2,1.3-2.9c0.3-0.4,0.9-0.6,0.9-1.3
			c0.7-0.4,0.8-1.4,1.2-2c0.9-0.8,1.8-2.2,2.5-3.2h0.4c0.3,0.1,0.5,0.6,0.9,0.4C124.8-4.4,123.9-3.3,123.8-2.5z M124.1-5.5
			c-0.1-0.3-0.5,0-0.6-0.3c-0.3-0.1-0.6-0.1-0.5-0.5c0.5,0.1,1.3-0.3,1.5,0.3C124.7-5.6,124.3-5.7,124.1-5.5z M126-6.7h-0.3
			c0.3-1.2,0.9-2.2,1.9-2.6C127.5-8.2,126.3-7.8,126-6.7z"/>
		<path fill="#720018" d="M73.6-8.9c0.1-0.2,0.5-0.3,0.4-0.6c-0.6-0.2-0.8,0.3-1.3,0.4v0.3C73.1-8.8,73.4-8.8,73.6-8.9z"/>
		<path fill="#720018" d="M75.3-8.1v-0.1c0.1-0.1,0.3,0,0.4-0.1C75.8-8.6,76-8.8,76-8.9c-0.1-0.5-0.4,0-0.7,0
			c-0.1,0.3-0.7,0.3-0.5,0.7H75.3z"/>
		<path fill="#720018" d="M92.1-5.4c0.3-0.1,0.5-0.5,0.5-0.9c-0.2,0-1.1-0.3-1.1,0.2C91.6-5.7,92-5.7,92.1-5.4z"/>
		<path fill="#720018" d="M93.2-5.2l0.3-0.4c0-0.4-0.8-0.6-0.8,0C92.8-5.4,93-5.2,93.2-5.2z"/>
		<path fill="#720018" d="M96.4-4.6c0-0.1,0-0.2,0.1-0.2c-0.2,0-0.1-0.4-0.4-0.3c-0.1,0.2-0.3,0.2-0.2,0.5H96.4z"/>
		<path fill="#720018" d="M84.3-4.5c0.3,0.2,0.4-0.1,0.4-0.3c0-0.2-0.3-0.2-0.5-0.2C84.1-4.8,84.1-4.6,84.3-4.5z"/>
		<path fill="#720018" d="M83.4-4.5c-0.2-0.1-0.5-0.1-0.5,0.2h0.5V-4.5z"/>
		<path fill="#720018" d="M122.4-4.4L122.1-4l0.6,0.5c0.2,0,0.5,0.1,0.5-0.2C123.1-4.2,122.7-4.1,122.4-4.4z"/>
		<path fill="#720018" d="M82.4-3.8h0.2c0.2-0.1,0-0.3-0.1-0.4l-0.2,0.2C82.2-4,82.4-4,82.4-3.8z"/>
		<path fill="#720018" d="M85.9-1v-0.3c0-0.6-0.8-0.5-0.9-0.2C85.1-0.9,85.4-0.9,85.9-1z"/>
		<path fill="#720018" d="M74.6-0.3c-0.4,0.3,0.1,0.4,0.2,0.7c0.4-0.2,0.9-0.6,0.9-1.1C75.1-0.9,75-0.4,74.6-0.3z"/>
		<path fill="#720018" d="M85.4-0.2h0.4C85.8-0.4,85.3-0.6,85.4-0.2z"/>
		<path fill="#720018" d="M119,0.2c0.1,0.5,0.8,0.4,1.2,0.4V0.1C119.7-0.1,119.4,0.1,119,0.2z"/>
		<path fill="#720018" d="M86.4,0.8l0.1-0.5h-0.3C86,0.6,86.4,0.7,86.4,0.8z"/>
		<rect x="86.6" y="1.4" fill="#720018" width="0.5" height="0.5"/>
		<path fill="#720018" d="M56.1,1.8c0.1-0.2,0-0.4-0.3-0.4c-0.3,0.3-0.6,0.6-0.5,1.1h0.3C55.8,2.3,56.3,2.3,56.1,1.8z"/>
		<path fill="#720018" d="M56.2,2.7C56.1,3,55.8,3.2,56,3.6l0.6-0.3c0.2-0.2,0.2-0.5,0.2-0.8C56.3,2.3,56.6,2.9,56.2,2.7z"/>
		<path fill="#720018" d="M57.1,3.8c0,0.4-0.5,0.7-0.2,1l0.4-0.2c0.3-0.3,0.6-0.7,0.4-1.1C57.4,3.3,57.5,3.9,57.1,3.8z"/>
		<path fill="#720018" d="M63.5,5.7c0.1-0.1,0.4-0.1,0.5-0.1c0.1-0.2,0.6-0.1,0.4-0.4c-0.3,0-0.6,0.1-0.8-0.1c-0.2,0.6-1,0-1.3,0.5
			c0.1,0.5,0.8,0.2,1.1,0.3V5.7z"/>
		<path fill="#720018" d="M107.3,5.9h-0.2v0.3c0.1,0,0.2,0.1,0.3-0.1C107.3,6.1,107.3,6,107.3,5.9z"/>
		<path fill="#720018" d="M92.1,9l0.6-0.6c0.4,0.1,0.6,0.5,0.9,0.9c0.4,0,0.8,0.1,1.1-0.3c0.2-0.5,0.6-1.2,0.3-1.8l-0.4-0.5
			c-0.4,0.1-1.1-0.3-1.4,0.1c-0.7,0-1,0.7-1.3,1.3C91.8,8.5,91.7,8.9,92.1,9z"/>
		<path fill="#720018" d="M105.8,7.1h0.2c0.2,0,0.2-0.2,0.2-0.3h-0.4V7.1z"/>
		<path fill="#720018" d="M63.8,7.2c0.1,0.6,1,0.3,1.4,0.3c0.4-0.1,0.8-0.3,0.9-0.7c-0.6,0-1.3,0.3-1.9,0.3
			C64.2,7.2,64,7.2,63.8,7.2z"/>
		<path fill="#720018" d="M59,7.4l-0.1,0.2c-0.5-0.2-0.6,0.3-0.8,0.4v0.3c0.3,0.1,0.4-0.1,0.7-0.2C58.9,8,59.2,7.6,59,7.4z"/>
		<path fill="#720018" d="M85.6,7.9c0.4-0.4-0.3-0.6-0.5-0.2C85.3,7.8,85.4,8.2,85.6,7.9z"/>
		<path fill="#720018" d="M63.9,8.5v0.1c-0.1,0.1-0.3,0.1-0.5,0.1v0.5c0.3-0.3,1-0.1,1.5-0.3V8.8l1.3-0.1c0.2-0.3,0.7,0.1,0.8-0.3
			c-0.3-0.2-0.8-0.4-1.2-0.1C65,8,64.8,8.6,63.9,8.5z"/>
		<path fill="#720018" d="M84.8,9.4c0.1-0.2,0.4-0.2,0.3-0.5c-0.1-0.4-0.5-0.7-1-0.6c-0.5,0.3,0.3,0.3,0.1,0.7
			c-0.1,0.2-0.3,0.1-0.4,0.1v0.2C83.9,10.1,84.3,9.1,84.8,9.4z"/>
		<path fill="#720018" d="M90.6,9.4c0.3,0,0.2-0.3,0.2-0.5c-0.1-0.3-0.9-1.1-0.9-0.1C90.2,9.1,90.3,9.4,90.6,9.4z"/>
		<path fill="#720018" d="M59.6,8.6h-0.1c-0.4,0.2-1.1,0.3-1.1,0.9h0.3c0.3-0.2,0.6-0.4,0.9-0.6V8.6z"/>
		<path fill="#720018" d="M118.6,9.3c0.1,0,0.3,0.3,0.3,0.1c0.1,0.1,0.2,0.1,0.1,0.2c0.5,0.1,0.5-0.3,0.9-0.2V9.1
			c-0.3-0.1-0.4-0.4-0.8-0.3C119.2,9.1,118.7,8.9,118.6,9.3z"/>
		<path fill="#720018" d="M84.9,11.5c0.7,0.3,0.4-1,1.2-0.6c0.4-0.2,0.1-0.9,0.3-1.2c0.3-0.1,0.3,0.3,0.4,0.4c0,0.5,0.2,0.7-0.1,1.2
			c0.1,0.2,0.1,0.4,0.4,0.4v-0.1c0-0.1,0.1-0.1,0.2-0.1c0.5-0.6-0.1-1.2-0.1-1.7l0.1-0.1c0.2-0.3,0-0.6-0.3-0.7v0.1
			c-0.1,0.1-0.2,0-0.3,0.1c-0.1,0-0.1-0.1-0.1-0.2c-0.4-0.1-0.4,0.2-0.8,0.2c-0.1,0.4-0.2,0.7-0.4,1c-0.2,0-0.4-0.1-0.5,0.1
			C84.7,10.4,84.8,11.1,84.9,11.5z"/>
		<path fill="#720018" d="M89.6,9.9C89.8,9.8,90,9.9,90,9.7c-0.1-0.4-0.4-0.3-0.7-0.3c-0.1,0.1-0.4,0-0.3,0.3
			C89.2,9.8,89.4,9.9,89.6,9.9z"/>
		<path fill="#720018" d="M76,10.9l-0.2-0.4c-0.3,0-0.6,0-0.8,0.2c-0.1,0.2,0,0.5,0.1,0.7C75.7,11.7,76,11.3,76,10.9z"/>
		<path fill="#720018" d="M66.9,10.8c0,0.1-0.1,0.2,0.1,0.3c0.2,0.1,0.2-0.1,0.3-0.3C67.1,10.6,67,10.6,66.9,10.8z"/>
		<path fill="#720018" d="M59.3,11c0.1,0.1,0.1,0.3,0.3,0.2c0.1-0.4,0.6,0,0.6-0.6C59.8,10.7,59.4,10.6,59.3,11z"/>
		<path fill="#720018" d="M66.7,10.8c-0.9,0.2-1.9,0.4-2.8,0.5c-0.1,0.2-0.4,0.1-0.6,0.1l0.1,0.3l2.1-0.1c0.4-0.1,0.7-0.4,1.2-0.5
			C66.7,11,66.7,10.9,66.7,10.8z"/>
		<path fill="#720018" d="M90,11c0.3,0.2,0.3,0.2,0.5,0.5h0.2c0.1,0,0.3,0,0.3-0.1c0.3-0.1,0.6-0.1,0.5-0.5C91,10.9,90.3,10.6,90,11
			z"/>
		<path fill="#720018" d="M74.7,12.9c0.5,0.1,0.9-0.1,0.8-0.6c0.2-0.4-0.3-0.3-0.3-0.6c-0.3,0-0.5,0-0.6,0.2
			C74.5,12.3,74.4,12.7,74.7,12.9z"/>
		<path fill="#720018" d="M91.3,12c0,0.3-0.5,0.1-0.3,0.5c0,0.8,1,0.2,1.3,0.7c0.2-0.2,0.4-0.4,0.3-0.7h-0.1
			c-0.1-0.1-0.1-0.1-0.1-0.2C91.8,12.4,91.8,11.8,91.3,12z"/>
		<path fill="#720018" d="M80.5,17.8c0.3,0.7-0.1,1.8,0.6,2.3c0.2-0.1,0.6-0.3,0.5-0.7h-0.1c0.1-0.8-0.4-1.3-0.3-2
			c0.5-1,0.6-2.3,0.9-3.4c-0.3-0.8-0.8-0.6-1.3-0.1c-0.4,0.6,0.4,0.4,0.4,0.9C80.6,15.7,80.4,16.7,80.5,17.8z"/>
		<path fill="#720018" d="M75.5,15.9c0.5-0.4,0.1-1.2,0.3-1.7c-0.2-0.4-0.6-0.6-0.9-0.6c-0.4,0.4-0.7,0.8-0.8,1.4
			C74.5,15.4,74.7,16.2,75.5,15.9z"/>
		<path fill="#720018" d="M83,16.5L83,16.5c0.1-0.2,0.2-0.4,0.4-0.3c0.1,0.1,0.2,0.1,0.1,0.2h0.2c0.6-0.1,0.3-1,0.3-1.3
			c-0.1-0.6-0.8,0-0.8-0.5c-0.4,0-0.6,0.6-0.6,1C82.7,15.9,82.7,16.4,83,16.5z"/>
		<path fill="#720018" d="M86.3,15.4c-0.2-0.1-0.3-0.3-0.6-0.3c0,0.3-0.4,0.5-0.3,0.9c0.1,0.4,0.3,0.8,0.3,1.2
			C86.3,16.9,86.3,16.1,86.3,15.4z"/>
		<path fill="#720018" d="M75.1,17.3c0.3-0.1,0.7,0.1,0.7-0.3c-0.1-0.5-0.9-0.5-1.1-0.2C74.8,17,74.8,17.4,75.1,17.3z"/>
		<path fill="#720018" d="M77.1,19.1c0.4-0.6,0-1.2,0.1-1.9c-0.3,0-0.3,0-0.5,0.2C76.8,18,76.5,19,77.1,19.1z"/>
		<path fill="#720018" d="M74.6,17.8c-0.2,0.2-0.1,0.4,0.1,0.5c0,0.8,0.4,1.5,0.9,2c0.3,0.1,0.3-0.3,0.5-0.3
			c-0.4-0.5-0.4-1.1-0.5-1.8C75.3,18.1,75.1,17.7,74.6,17.8z"/>
		<path fill="#720018" d="M80.2,20.3c0.6-0.5,0-1.1,0.1-1.7c-1.2-0.2-0.6,1.2-0.6,1.7C79.9,20.4,80.1,20.4,80.2,20.3z"/>
		<path fill="#720018" d="M92.7,19.8c0.3-0.3,0.2-0.7,0.1-1.1c-0.6-0.1-1.4,0.1-1.1,0.7C92,19.6,92.2,19.9,92.7,19.8z"/>
		<path fill="#720018" d="M86.2,18.9c-0.4-0.2-0.9,0-1.3,0c-0.1,0.3,0,0.6,0.1,0.9c0.3,0.1,0.4-0.1,0.7-0.2c0.1,0,0.1,0.1,0.1,0.2
			c0.4,0.3,0.9,0.9,1.1,1.3c0.4-0.1,0.6,0.4,0.8,0.5c0.3-0.3,0.6-0.3,1-0.4c-0.1-0.3,0.3-0.1,0.4-0.3c0-0.2-0.1-0.3-0.1-0.4
			c-0.5-0.1-0.3-0.1-0.9,0c-0.1,0-0.2-0.1-0.2-0.2C87,20.2,86.7,19.4,86.2,18.9z"/>
		<path fill="#720018" d="M67.5,20.5c0.1,0,0.3,0.1,0.3-0.1C67.9,20,67.3,20.4,67.5,20.5z"/>
		<path fill="#720018" d="M90.6,23.2c0.7,0.1,0.4-0.8,0.7-1.1c0-0.8-0.6-1.1-1.2-1L90,22.5C90,23,90.4,22.9,90.6,23.2z"/>
		<path fill="#720018" d="M50.8,23.5L50.8,23.5l-0.3,0.4c0,0.3,0.3,0.2,0.5,0.2c0.3-0.2,0.4-0.5,0.3-0.9
			C51.1,23.2,50.9,23.2,50.8,23.5z"/>
		<path fill="#720018" d="M66.7,24.5c0,0.1,0.2,0.3,0.3,0.2c0.3,0.1,0.1-0.2,0.2-0.3C67,24.3,66.8,24.5,66.7,24.5z"/>
		<polygon fill="#720018" points="53.1,24.8 53.1,27.4 53.3,27.6 53.5,27.2 53.5,24.8 		"/>
		<path fill="#720018" d="M54.9,25.5c-0.1-0.3-0.1-0.7-0.4-0.7l-0.1,1.5c0.1,0.3,0.1,0.8,0.5,0.8C55.4,26.9,54.8,26.2,54.9,25.5z"/>
		<path fill="#720018" d="M77.4,25.4c-0.4-0.3-0.8,0.4-1.3,0.6c-0.1,0.3-0.4,0.8-0.1,1.1c0.2,0.3,0.6,0.5,0.7,0.9
			c0.4-0.1,0.4,0.4,0.6-0.1c-0.7-1.1,0.8-0.7,1.1-1.2c0-0.4-0.2-0.6-0.4-0.9L77.4,25.4z"/>
		<path fill="#720018" d="M79.7,34.4c-0.1,0.1,0,0.4,0.2,0.5c0.8,0.8,1.1,2.2,2.3,2.5c0.3-0.2,0-0.5,0-0.7c0.3-0.2,0.7,0.2,0.9-0.3
			c-0.7-0.4-1.5-0.9-2.1-1.3C80.4,35.1,80.3,34.3,79.7,34.4z"/>
		<path fill="#720018" d="M101.8,38l-0.3,1.1c-0.8,0.3-0.9,1.3-1.7,1.6c-0.1,0.4-0.4,1-0.1,1.5c1.3,0,1.6-1.5,2.5-2.1
			c0.3-0.6,0.5-0.9,0.1-1.5C102.1,38.5,102.3,37.7,101.8,38z"/>
	</g>
</g>
</svg>
