<?xml version="1.0" encoding="utf-8"?>
<!-- Generator: Adobe Illustrator 19.1.0, SVG Export Plug-In . SVG Version: 6.00 Build 0)  -->
<!DOCTYPE svg PUBLIC "-//W3C//DTD SVG 1.1//EN" "http://www.w3.org/Graphics/SVG/1.1/DTD/svg11.dtd">
<svg version="1.1" xmlns="http://www.w3.org/2000/svg" xmlns:xlink="http://www.w3.org/1999/xlink" x="0px" y="0px"
	 viewBox="33 -33 100 100" enable-background="new 33 -33 100 100" xml:space="preserve">

<g id="AREA_1">
	<g>
		<path fill="#720018" d="M126.2,39c0.3-1.5,0.3-3.2,0.4-4.6c0.2-3.1-1-6.3-2.4-9.2c-1.1-1.8-1.4-3.9-1.7-6
			c-1.1-0.8-2.2-1.5-3.2-2.3c0.1-0.8,0.2-1.5,0.4-2.3c1.4-0.7,2.3-2,2.6-3.5c0.4-2.3-0.9-4.2-2.7-5.5c-0.3-1.2-0.6-2.3-1.6-3.2
			c-0.5-0.4-1.1-0.4-1.8-0.4c-1.4-0.9-3-2.1-3.9-3.6c0.4-0.2,0.9-0.5,1.2-0.9c0.6-0.8,0.3-2-0.1-2.8c-0.9-1.9-2.8-2.7-4.5-3.2
			c0.4-0.8,0.9-1.5,1.6-2.2c-0.2-0.2-0.6-0.3-0.9-0.4c-2.3-1-2.8-3.7-5-4.8c-1.1-0.5-2.4-0.5-3.4,0.2c-0.7,0.4-1,1.3-1.5,2
			c-2.3,0.2-4.5,0.4-6.9,0.3c-0.3-0.7-0.5-1.5-1.1-2.1c-1.1-0.8-2.2-1.6-3.7-1.7c-1.2,0-1.8,1.4-2.2,2.3c-0.9,1.3-2.6,1.4-4.2,1.2
			c0.1,1,0.2,1.9,0.5,2.8c0.2,0.5,0.5,1,0.5,1.5C78.8-8.7,75.3-7,72.4-4.4c-2.5,1.8-4,4.5-6.1,6.8c-3.1,2.5-6.4,4.5-10.3,4.9
			c-0.8-0.9-1.4-2.1-2.5-2.6c-2.5-0.9-5.2-0.1-7.4,1c-0.2,1.6,0.9,2.6,2.1,3.3c1.1,1,2.2-0.4,3.4,0.1c0.3,0.1,0.6,0.3,0.7,0.6
			c-1.1,0.5-2.1,1-2.9,2c-1.1,2.1-3.3,3.7-3.3,6.2c-0.3,2.4-3,2.6-4.6,3.6c-1.9,1.2-2.5,3.2-2.5,5.4c-1,1.6-1.2,3.5-1.6,5.4
			c-0.5,1.6-1.5,3-1.1,4.9l1.2,1.7c2.2,2.4,5.3,4.9,8.9,3.6c1.5,0.7,3.4,1.2,5,0.5c1.2-0.7,2.8-0.7,3.7-2.1c0.9-1.5-0.2-3.1-0.8-4.4
			c-1.4-2.7-5.3-0.6-6.8-3.3C47,32,48.1,31,48.9,30c2.8,0.1,5.3-0.3,7.6-1.4c0.6-0.2,1.2-0.7,1.8-0.8c0.9,3.3,1.6,6.6,2.6,9.9
			c0.6,1.6,0.8,3.3,1.6,4.7c0.1,0.2,0.3,0.4,0.4,0.6c2.7,2.4,5.9,3.5,9.5,3.5c2.4,0.2,5.2,1.7,7.3-0.1c0.8-1,1.3-2.1,2-3.2
			c1.1,0,2.3-0.2,3-1.3c0.5,0.2,0.9,0.4,1.4,0.6c2,0.6,2.4-2.1,4-2.4c1-0.4,0.9-1.4,1-2.3c0-0.2-0.2-0.3,0-0.5c2,0,4-0.1,5.9-0.6
			c3.9-0.5,6.4-4,9.7-6c0.7-0.6,1.1-1.4,1.7-2l0.1,0.1c0.5,2.1,2.8,3.4,4.2,5.1c0.6,0.7,1.6,1.1,2,1.9c0.3,1-0.7,1.7-1.3,2.3
			l0.3,1.7c-0.4,0.6-0.7,1.2-0.9,1.8c-0.3,1.8,0.6,3.5,2.1,4.4c1.2,0.5,2.7,0.2,3.9-0.2c1.5,0.9,2.9,2.2,4.8,2.1
			c1.1-0.3,1.7-1.1,2.5-2c0.5,0.1,1.1,0.3,1.7,0.1c0.7-0.3,1-1.2,1.2-1.8C129.4,41.8,127.7,40.4,126.2,39z M120.5,8.4
			c0.3,0.5,0.6,1.1,0.3,1.7c-0.4,1.1-1.4,2.2-2.6,2.5c-2.4,0.4-4.3-0.9-5.6-2.7c-0.4-0.5-1.2-0.4-1.7-0.6c-1.5-0.3-3.5-1.2-4.6,0.5
			c1.7,0,3.5,0,4.9,0.7c1.5,1.2,3,2.6,4.7,3.3c-0.5,0.8-1.2,1.6-1.7,2.4c-0.3,0.3-0.7-0.2-1.1-0.1c-1.4-0.4-2.4,0.5-3.4,1.3
			c-3.4-0.1-6.1,1.1-9.5,1.3c0.5-2.2,0.5-4.8-0.7-6.7c0.2-0.1,0.5-0.2,0.7-0.2c2.2-0.2,3.3-2.6,4.8-3.9c2.8-2,5.7,0.4,8.2,1.4
			c1.2-0.5,2.7-1.6,4.1-0.7c0.2-0.4,0.4-0.9,0.9-1.1C118.9,7.2,119.8,7.8,120.5,8.4z M118.1,15.3c-0.1,0.6-0.7,1-1.2,1.2
			c-0.5,0.1-1,0-1.4-0.4c0.7-0.5,1-1.2,1.2-1.9C117.2,14.5,118.8,14.1,118.1,15.3z M100,20.3l-1.1,0.9c0.1,0.3,0.5,0.4,0.6,0.7
			c-2.4,0.4-5.2,0.9-7.7,0.1v-0.1l1.2-0.9c-0.3-0.4-0.7-0.6-1-0.9c1.9,1.1,4.9,0.8,6.8-0.5c4,0.2,7.2-1.6,11.1-1.4
			c0.9-0.5,1.7-1.7,2.9-1.3l1,0.3v0.1c-2.6,3.4-6.6,3.7-10.5,4.1l0.2-1.1C102.4,19.9,101,19.6,100,20.3z M103,20.5
			c-0.1,1.3-0.4,2.7-0.6,4h-0.1l-2.9-3.1v-0.1c0.7-0.6,1.5-1.2,2.6-1C102.3,20.3,102.7,20.4,103,20.5z M86.8,14c0-0.7-0.3-1.3-0.5-2
			c2.2,2.1,2.3,5.1,4.6,7.2c-0.4-0.2-0.9-0.4-1.4-0.7c-0.2,0-0.4-0.3-0.5-0.1v1.7c-1.8-1.7-3.6-4-4.9-6.2L86.8,14z M82,13.7L82,13.7
			l2.7-3.1c1,0.7,1.5,1.8,1.7,3L82,13.7z M93.3-8c0.7-0.9,1.7-1.9,2.9-1.6c1,0.7,1.5,2,2.6,2.6c2.3,0.8,4,2.9,5.2,5
			c-2.3-1.7-4.7-3.4-7.1-4.9c-0.4,0-0.9-0.2-1.3,0c0.1,0.5,0.9,0.8,0.6,1.3c-0.3,0.8-0.5,2,0.1,2.8c0.2,0.2,0.3,0.4,0.3,0.6
			c-0.4,0.5-0.9,1.2-1.5,1c-0.4,0-0.7-0.2-1.1-0.4c0.2-0.7,0.6-1.3,0.9-2C94.2-4.9,92.2-6.3,93.3-8z M101.6-2.2
			c0.1-0.1,0.3-0.1,0.4,0.1c0,0.1-0.1,0.3-0.2,0.3C101.5-1.8,101.6-2.1,101.6-2.2z M100.6-2.7c0.2-0.2,0.6-0.1,0.7,0
			c0,0.2,0.1,0.4-0.1,0.5c-0.1,0.1-0.4,0.1-0.6,0C100.6-2.2,100.7-2.5,100.6-2.7z M100.4-3.3c-0.7,0.7-1.7,1.2-2.7,1
			c-1-0.7-0.6-2.2-0.3-3.3L100.4-3.3z M94.3-0.1C94.5,0,94.8,0.1,95,0.3c0.3,1.8-0.2,3.6-0.5,5.2C95.7,3.9,96,1.9,96.2,0
			c0.3-1.2,1.3-1.8,2.4-2c3.2-0.1,5,3.6,6.7,6c-2.4-0.5-4-3.3-6.4-3.9c-0.3,0-0.6,0.3-0.7,0.5c-0.6,1.5-0.7,3.2-1.2,4.7
			c-0.7,4.7,2.3,8.2,2,12.9c0,0.2-0.2,0.4-0.2,0.7c-0.9,0.1-1.9,0.9-2.9,1.1c-1.6,0.3-3.4,0-4.6-1.2c-1.6-1.6-1.9-3.9-3.4-5.7
			c-0.7-0.9-1.5-1.8-1.2-3.1c0.4-1.4,0.6-2.9,1.7-4.1c1-1,2.3-1.7,3-2.8C92.4,2,92.8,0.4,94.3-0.1z M100.1,5.5
			c0.6,0.2,1.2,0.8,1.8,1l0.9-1.5c0.8,0.4,1.7,0.7,2.4,1.3c-1.2,0.7-2.7,1.8-3.3,3.1h-3.4V6.9L100.1,5.5z M98.4,6.4l0-3.4
			c0.3-0.7,1-0.9,1.6-1.1c1.7,0.1,2.8,1.6,4.2,2.3l0.4,1.1c-0.2,0.1-0.4-0.1-0.6-0.2l-1.8-0.8c-0.3,0.4-0.5,1-0.8,1.5
			c-0.6-0.5-1.2-1-1.8-1.5C99.3,5.1,98.9,5.8,98.4,6.4z M89.4,18.9c1.1,0.4,2,1.1,3,1.9V21l-3,2.3V18.9z M106.2,2.6
			c0.9,1.1,1.9,2,2.9,3.1c-0.6,0.5-1.3,0.9-2.1,0.8l-1-0.4C105.1,5.2,105.7,3.6,106.2,2.6z M109.8,6.3c0.2-0.3,0.6-0.5,0.9-0.7
			c0.4-0.1,0.8,0.1,0.9,0.5l0,0.7C111,6.9,110.4,6.6,109.8,6.3z M112.1,6.4c0.5-0.6,1.4-0.7,1.9-0.2l0,0.8c-0.4,0.2-1-0.1-1.6-0.1
			C112.3,6.8,112.1,6.6,112.1,6.4z M118.3,3.8c0.3,0.6,0.3,1.4,0.4,2.2c-0.5,0.1-1.1,0.3-1.7,0.2c-0.3-0.2-0.9-0.4-0.8-0.8
			c0.2-0.8,0.6-1.8,0.1-2.5c-0.1-0.2-0.3-0.3-0.3-0.5C116.9,2.4,117.9,2.8,118.3,3.8z M114.8,6.8c-0.1-0.2-0.4-0.3-0.4-0.6
			c0.3-0.2,0.6-0.7,1-0.6c0.2,0.2,0.5,0.3,0.6,0.6C115.6,6.5,115.3,6.7,114.8,6.8z M112.4-0.3h0.1c1,1.1,2.2,2,3.3,3.2
			c0.1,0.3,0.1,0.7,0.1,1.1c-1.2,2-3.3,0.3-5,0.7c-0.9,0.2-1.9,0.4-2.6-0.6c0.3,0.1,0.5-0.1,0.6-0.3c0.1-0.3-0.1-0.5-0.3-0.6
			c-0.2,0-0.3,0.1-0.4,0.1l-0.1,0.2c-0.4-0.6-1.2-1.4-1.8-1.9c-0.3,0.2-0.5,0.8-0.9,0.5c-0.7-0.5-1.2-1.4-1.5-2.2
			c0.2-0.3,0.2-0.8,0.6-0.8c0.6,0.1,1.4,0.8,1.9,0c0,0,0.1-0.1,0.1-0.1c-0.6-0.3-1.3,0-1.8-0.6c0.1-0.3,0.2-0.7,0.6-0.5
			c1.2,0.4,2.3-0.3,3.1-1.2l3.1,1.9v0.1C110-1,109-0.5,107.9,0c1.3,0.5,2.6,1.1,3.8,1.9C111.5,1,111.8,0.3,112.4-0.3z M110.9,0.6
			l-0.5-0.5h-0.7c0.4-0.4,1.1-0.4,1.7-0.7c-0.1,0.2-0.3,0.2-0.5,0.5C110.8,0.1,110.9,0.4,110.9,0.6z M102.7-15.6
			c0.6-0.1,0.9,0.3,1.3,0.6c1.2,1.7,2.8,3.3,4.6,4.3c0,0.3-0.5,0.4-0.7,0.6c-0.6,0.3-1.2,0.1-1.7-0.3c-0.9-0.7-1.3-1.8-1.6-2.8l-1,1
			c-1-0.2-2.1-0.5-2.7-1.4C101.2-14.4,101.8-15.4,102.7-15.6z M87.3-15.6c0.3-0.4,0.7-0.8,1.2-0.8c0.5,0,1.1,0,1.4,0.5
			c0.7,1.2,1.4,2.5,2.3,3.7c3.1-0.2,6.3-1,9.3,0.3l4.8,2.4c1.5,1.5,3.2,2.6,5,3.6c0.5,0.6,0.8,1.3,0.6,2c-0.2,0.7-0.9,1-1.5,1.2
			c-2.1,0-3.5-2.3-4.2-4c-0.4,1.5,2,3.7-0.6,4.5c-0.5,0.1-1,0.1-1.4-0.3c-0.9-1.2-1-3-2.6-3.8c-2-1.1-3.5-2.7-5.4-4.2
			c-1.8-0.2-3.3,1-4.4,2.4C91.2-6.4,92.9-5,94-3.7c-0.4,1-1,1.9-1,3.1c-2.7,2.6-4.9,5.2-6.9,8.1c-0.3,0-0.9,0.2-1-0.3
			c-0.2-0.8,0-1.5,0.6-2.1l1.1-1c-1.2-1.3-2.8-2.6-2.4-4.6c0.4-2,1.9-3.6,3.1-5.3c-0.6,0.1-1.3,0.2-2,0.4l-0.4,0.1
			c0.1-1-0.3-2-1.2-2.4c1.5,0.6,3.4,0.3,5,0.8c-0.3-0.8-0.6-2.2,0.3-3c0.4-0.5,1-0.9,1.4-1.3c-0.4-0.4-0.8-1.1-1.4-0.8
			C88-11.5,88.3-9.9,87-9.5c-1.2,0.2-2.4-0.2-3.2-1.2c-0.5-0.6-0.8-1.2-1.2-1.8C84.8-12.4,86.4-14,87.3-15.6z M83.3-8.1
			c-0.3-0.2-1-0.1-1-0.6C82.6-8.5,82.9-8.2,83.3-8.1z M81.9-7.6c0.9,0.2,1.9,0.4,2.3,1.3c0.2,0.5,0,1.2,0.2,1.8
			c0.4,0.1,0.8-0.1,1.2-0.1v0.1c-1.4,1.7-2.7,4-1.7,6.3c0.4,0.8,1.2,1.6,1.8,2.3c-1,0.8-1.8,1.9-1.4,3.2c0.2,0.4,0.3,0.9,0.8,1
			l1.2,0.1c-0.3,1.1-0.7,2.4-0.2,3.5c-0.3-0.6-1-1.3-1.6-1.6c-0.4,0.6-1,1.1-1.4,1.6c-0.7-2.4-1.6-4.7-2.2-7.2
			c0.5,0.3,1,0.6,1.4,0.9c0.6-0.9,1.5-1.7,1.2-2.9c-0.2-0.6-0.5-1.1-0.9-1.6l-2.1,0.8c-0.1-3,1-5.7,1.2-8.3
			C81.9-6.9,82-7.3,81.9-7.6z M79,2.7L79,2.7c1.2-0.5,2.4-1,3.7-1.4c0.4,0.6,0.7,1.3,0.6,2.1C83.1,4,82.7,4.5,82.4,5h-0.1L79,2.7z
			 M50.2,7.8c-0.7,0.2-1.2,0.5-1.8,0.1c-0.6-0.3-0.7-0.9-0.8-1.5c1.3-1.1,3.4-1.1,5-0.5c0.9,0.4,1.6,1.2,2,2.1l-2,0.7
			C51.9,8.2,51.1,7.6,50.2,7.8z M88.8,38.9c-0.2-0.7-0.1-1.7-0.9-2.1c-0.5-0.1-1.2,0-1.7,0.1c0.8,0.8,1.9,1.5,1.5,2.7
			c-0.2,0.5-0.7,0.9-1.3,1c-0.5,0-0.9-0.1-1.3-0.1c0.2-0.9,0.4-2.2-0.5-3c-0.9-0.7-2-1-3.1-1c0.9,1.4,3.8,2.4,2.3,4.4
			c-0.4,0.6-1.2,0.5-1.8,0.5c0-1.7-1.2-3.3-2.7-4c-0.4-0.9-1.2-2-2.2-2.2c-1.6-0.3-2.9,0.1-4.4,0.2c-0.6-1.2-1-3-0.4-4.3
			c3.4-0.6,5.8,1.9,8.8,2.7c2.8,0.8,5.7,1.5,8.4,2.5C89.7,37.4,89.4,38.2,88.8,38.9z M105.4,30c-3.9,3.3-8,6.5-13.5,5.8
			c-4-0.7-7.8-1.9-11.5-3.3c-2.4-1.3-4.9-2.4-7.7-2.6c-0.1-1.4,0.2-3.2,1.6-4c1.8-0.3,3,1.1,4.7,1.3c2,0.2,3.6-0.6,4.8-2.1
			c0.9-1.2,1.1-2.6,1.2-4.1c-0.3-0.2-0.6-0.5-1-0.6c-0.2,0.3-0.2,0.8-0.3,1.2c-0.5,1.2-1.7,2.3-2.2,3.5c-0.7,1-2.2,0.9-3.3,0.8
			c-1.7-0.2-2.7-2.7-4.6-1.6c-2.2,1.5-2.1,4.1-2.9,6.2c-0.7,1.9,0.4,3.5,0.5,5.4c-0.1,1.2-0.4,2.7,0.6,3.6c0.2-0.9,0.2-2,1-2.5
			c1-0.2,2,0.2,2.9-0.3c0.5-0.2,0.9,0.1,1.3,0.3c0.3,0.3,0.2,0.7,0.2,1.1c1,1.1,2.3,1.4,3.5,2c0.2,0.2,0.2,0.6,0.1,0.8
			c-0.2,0.4-0.4,0.7-0.6,1.1c-0.8-0.8-1.7-1.7-2.9-1.3c0.8,0.4,1.7,1.1,1.9,2c0,1.2-0.5,2.2-1.3,3c-2,0.8-3.8-0.5-5.8-0.6
			c-1-0.1-2.3,0.1-3.4,0c-1.8-0.3-3.3-1.6-4.5-3.1l0-0.1c0.5-0.3,1-0.8,1.5-1.2c-1.7-0.7-3.7-2.1-4.1-4c-0.8-4.3-2.4-8.2-2.5-12.8
			c-0.4-1.9-0.5-4.4,0.8-5.9c2.1-2.6,4.8-5.2,7.8-6.4c0.5-0.2,1.2-0.2,1.5-0.7c0.1-0.4,0.1-0.8-0.2-1.1c-0.4-0.1-0.8,0-1.2,0.1
			c0.6-2,1.7-3.9,3.2-5.6c-0.3-0.2-0.6-0.2-0.9-0.3c-1.7,2-3.8,4-3.7,6.7l0,0.2c-4.1,2.3-8.9,6.5-8.9,11.4c-0.1,1.4,0,3.1,0.1,4.4
			c-1.6,1.7-4,1.5-6,2.2c-1.3,0.3-2.8,0.4-4.2,0.7c-1.1,1.3-2.2,3.2-1.4,4.8c1.2,1.1,2.8,1,4.2,1.5c1.4,0.4,3.2,1.1,3.6,2.7
			c0.2,0.7-0.1,1.2-0.3,1.8h-0.1c-0.9-1-1.8-2-3.1-1.8c0.5,0.6,1.1,1.4,0.7,2.3c-0.2,0.7-0.9,1.4-1.6,1.6c-1.3-0.1-1.8-1.7-2.3-2.7
			C46.8,39,46,39.1,45.3,39c0.2,0.7,0.7,1.8-0.1,2.4c-0.6,0.4-1.3,0.7-2,0.6c-1.6-0.5-2.7-1.6-4-2.9c-1-1.2-2.1-2.4-1.7-4.1
			c0.9-2.9,2.3-5.7,2.5-8.9c0.1-1,0.5-1.9,1.1-2.7c1.9-1.7,4.9-2.3,5.7-5c1-2.8,2.3-6,5.4-7.5C57,7.4,63.4,7.8,67.3,2.7
			C70.2-1,73.7-5,77.9-7.1c1-0.4,2.1-0.8,3.1-1.2l0.2,0.2c-0.2,2.4-0.8,5-1.2,7.5c-0.1,0.8-0.2,1.7-0.1,2.6c-0.5,0.2-1,0.4-1.5,0.6
			c0.6,0.7,1.8,0.8,1.9,1.8c0.6,2.8,1.6,5.3,2.3,8c-0.4,0.5-0.9,1-1.2,1.5l1.8,0c1.6,2.6,3.4,5.4,5.9,7.4c0,0.8,0,1.7,0,2.6l1.8-1.5
			c2.8,1.2,6.3,0.6,9.3,0.2l2.4,2.6l0.1-0.1l0.4-2.8c0.2-0.2,0.3-0.1,0.6-0.1c2.3-0.3,4.9-0.6,7.1-1.5
			C109.3,23.9,108.6,27.6,105.4,30z M127.9,43.5c-0.3,0.5-0.8,0.7-1.3,0.9c0-0.7,0.1-1.7-0.7-2.2c-0.5-0.1-1.1-0.2-1.6,0
			c0.5,0.4,1,0.9,1.2,1.5c0.2,1.2-0.6,2.2-1.5,2.7c-0.6,0.3-1.5,0.3-2.2,0c-1.9-0.9-0.2-3.8-2.4-4.3c-0.6,1.2-1.5,2.5-2.9,2.9
			c-0.9,0.2-1.6-0.4-2.1-1c-0.3-0.5-0.5-1.2-0.4-1.8c0.3-1,1.2-1.9,1.9-2.8c-0.5-0.2-0.9,0-1.2-0.4c0-0.9,1-1.4,1.7-1.8
			c1.5-0.4,3.1-0.3,4.7-0.6c0.1-0.2,0.2-0.4,0.3-0.6c-1.7,0.1-3.5,0.1-5.3-0.3c-1.3-2.1-3.7-3.2-4.8-5.3c-0.7-1-1.2-2.2-1.9-3.3
			c0.8-2.5,1.9-4.9,2.7-7.4c0.7-0.6,1.2-1,1.9-1.7c1.3-0.2,2.4,0.3,3.6,0.1c0.4-0.2,0.3-0.8,0.5-1.1c1.5,0.8,3.6,2.1,3.6,4.1
			c0.9,3.8,2.8,7.2,3.7,11c0.5,1.8,0.3,4.1-0.2,5.8c-0.7,0-1.4-0.2-2.1-0.2c1.8,0.8,3.2,2.8,4.4,4.3C127.8,42.6,128,43,127.9,43.5z"
			/>
		<path fill="#720018" d="M110.2-4.6l0.9-0.6l-0.8,0.3c-1-0.2-1.8-0.9-2.7-1.5l1.3,1.5L110.2-4.6z"/>
		<path fill="#720018" d="M104.9-4.8c0.9,0.3,0.7-0.6,0.8-1.1l-0.6,0.7c-0.9,0.1-1.4-0.6-2.1-0.8l1.5,1.2H104.9z"/>
		<path fill="#720018" d="M107.3,1.1c-0.2,0.1-0.4,0.3-0.3,0.6c0.1,0.1,0.3,0.3,0.5,0.2c0.2-0.1,0.2-0.3,0.2-0.6
			C107.6,1.3,107.4,1.1,107.3,1.1z"/>
		<path fill="#720018" d="M109.2,2.2c-0.4,0-0.3,0.4-0.3,0.7C109,3,109.2,3,109.4,3c0.1-0.1,0.3-0.2,0.2-0.5
			C109.6,2.3,109.4,2.3,109.2,2.2z"/>
		<path fill="#720018" d="M90.2,8.8c1-0.4,2-0.8,2.6-1.8c0.8-1.1,0.5-2.8-0.1-3.9C92.2,5.2,91.4,7.1,90.2,8.8z"/>
		<path fill="#720018" d="M92.8,8.6c0.1,0.1,0.3,0.2,0.4,0.1c0.1-0.1,0.3-0.1,0.2-0.3C93.5,8.1,93.3,8,93.1,8
			C92.7,8,92.7,8.4,92.8,8.6z"/>
		<path fill="#720018" d="M88.9,9c0.2-0.1,0.3-0.2,0.2-0.5c0-0.2-0.3-0.2-0.5-0.3c-0.2,0.1-0.3,0.3-0.3,0.6C88.5,9,88.7,9.1,88.9,9z
			"/>
		<path fill="#720018" d="M94.9,9.3c0.3,0,0.3-0.3,0.3-0.6c-0.1-0.1-0.2-0.2-0.4-0.2c-0.4,0-0.3,0.3-0.3,0.6
			C94.6,9.3,94.8,9.3,94.9,9.3z"/>
		<path fill="#720018" d="M93.3,10.6c-0.1-0.2-0.3-0.2-0.5-0.2c-0.2,0.1-0.4,0.2-0.3,0.5c0.1,0.2,0.4,0.3,0.6,0.2
			C93.4,11.1,93.4,10.8,93.3,10.6z"/>
		<path fill="#720018" d="M89.9,10.9c-0.2,0.1-0.2,0.4-0.1,0.6c0.1,0.1,0.3,0.2,0.5,0.1c0.2-0.1,0.2-0.3,0.2-0.5
			C90.3,10.8,90.1,10.9,89.9,10.9z"/>
		<path fill="#720018" d="M95,12.1c0.1,0.2,0.3,0.2,0.4,0.2c0.2,0,0.4-0.3,0.3-0.5c-0.1-0.1-0.2-0.3-0.5-0.2
			C95,11.6,95,11.9,95,12.1z"/>
		<path fill="#720018" d="M88.8,12.9c-0.3,0-0.2,0.3-0.2,0.5c0.1,0.2,0.4,0.4,0.6,0.2c0.2-0.1,0.1-0.3,0.1-0.6
			C89.2,13,89,12.8,88.8,12.9z"/>
		<path fill="#720018" d="M91.9,13.8c-0.1-0.2-0.6-0.4-0.7-0.1c0,0.2,0,0.5,0.2,0.6c0.2,0,0.4,0,0.5-0.1C92,14.1,91.9,14,91.9,13.8z
			"/>
		<path fill="#720018" d="M94.1,14.3c0.2-0.1,0.2-0.3,0.2-0.5c-0.1-0.2-0.3-0.3-0.5-0.2c-0.3,0.1-0.3,0.3-0.2,0.6
			C93.7,14.3,93.9,14.3,94.1,14.3z"/>
		<path fill="#720018" d="M95.8,15.4c0.1,0.2,0.3,0.3,0.5,0.2c0.2-0.1,0.3-0.4,0.2-0.6c-0.1-0.1-0.3-0.1-0.4-0.2
			C95.9,15,95.7,15.1,95.8,15.4z"/>
		<path fill="#720018" d="M117.3,15.7c0.3-0.1,0.3-0.3,0.2-0.6c0-0.2-0.2-0.2-0.4-0.2c-0.3,0.1-0.4,0.3-0.3,0.6
			C117,15.5,117.1,15.7,117.3,15.7z"/>
		<path fill="#720018" d="M93.4,16.5c-0.3,0-0.3,0.4-0.3,0.6c0.1,0.1,0.3,0.1,0.5,0.1c0.2-0.1,0.3-0.3,0.2-0.5
			C93.9,16.5,93.6,16.6,93.4,16.5z"/>
	</g>
</g>
</svg>
