<?xml version="1.0" encoding="utf-8"?>
<!-- Generator: Adobe Illustrator 19.1.0, SVG Export Plug-In . SVG Version: 6.00 Build 0)  -->
<!DOCTYPE svg PUBLIC "-//W3C//DTD SVG 1.1//EN" "http://www.w3.org/Graphics/SVG/1.1/DTD/svg11.dtd">
<svg version="1.1" xmlns="http://www.w3.org/2000/svg" xmlns:xlink="http://www.w3.org/1999/xlink" x="0px" y="0px"
	 viewBox="33 -33 100 100" enable-background="new 33 -33 100 100" xml:space="preserve">

<g id="AREA_1">
	<g>
		<path fill="#720018" d="M123.7,34.1c0.5-3.4-1.3-6-2.9-8.7c-0.2-3.1-2-5.6-2.8-8.4c1.4-1.4,1.3-3.6,1.6-5.4c1-2.5,0.1-5.3-0.2-7.8
			c-0.3-1.4-0.2-2.7-0.7-4.1c-1.9-3.3-3-6.8-4.5-10.2l0.2-0.3c0.6-0.8,1.5-1.8,2.6-1.6c0.5,0.1,0.9,0.4,1.2,0.8
			c1.7,3.6,0.9,8.2,4.4,11.1h0.2c0.6-1.1,1.1-2.4,1.5-3.6c1.4-3.2,0.3-6.2,0.5-9.9c0.1-3.4-3.8-4.9-6.2-6.2
			c-0.2-0.2-0.4-0.3-0.6-0.4c-0.9-1-1.4-2.2-2.1-3.3c-0.6-1.1-1.8-1.7-2.9-1.9c-4.4-0.3-8.4,1.7-11.5,5.4c-3.7-0.5-7.6-0.3-11,0.5
			c-3.2-1.9-7.1-2.4-11-2c-3.5,0.2-6.4,1.8-9,4.2c-1-0.9-2.1-1.8-3.1-2.8c-1.7-1.6-3.3-4-5.8-3.4c-4.6,2.5-9.9,3.5-13.7,7.6
			c-1.5,3.1-2.9,6.3-5,9.2c-3,3.8-1.8,9.7,0.2,13.5c2.7-1,4.9-3.8,5.8-6.4c0-0.2,0.3-0.3,0.2-0.5c0.6-0.6,1.6-0.4,2.5-0.5
			c1.7,0.4,2.5,2.3,3.3,3.5c0.3,1.1-0.6,1.9-1.3,2.6c-2.7,2.7-3.8,6.1-4.8,9.5c-2.2,1.5-4.4,3-6.6,4.5l5.8,1.8l0.1,0.1
			c-0.2,4.7,0.6,8.9,2,12.9v0.5c-1,1.9-2.2,3.7-3.2,5.6h5.7c1.3,3.8,4.3,7.3,7.9,9.7l-0.4,5.9c1.8-0.8,3.5-1.6,5.3-2.4
			c3.1,1.5,6.4,2.7,9.8,3.1c0.5,0.2,1.1,0,1.5,0.4c0.9,1.8,1.9,3.6,2.8,5.3c1.1-1.5,2.3-3,3.4-4.5c3.5-0.2,6.9-0.8,10.2-1.4
			c1.9,1.9,3.6,3.9,5.5,5.6l0.4-6.2c0-0.4,0-0.8,0.2-1.2c1.2-1.5,3-1.3,4.5-1.3c0.9-0.2,1.7-0.8,2.5-1.4c3.5,0.3,5.7-2.4,8.5-3.9
			c1.4,0.7,3.2,1.2,4.8,0.7c2.7-0.6,4.2-3.2,4.8-5.7C125.9,39.8,123.1,37.3,123.7,34.1z M115.2-12.9c-0.9,0.6-1.4,1.2-2.3,1.8
			c-0.8-0.9-1.9-1.6-2.4-2.7c0.7,0.3,1.4,0.8,2.2,1.1c0.6-0.8,1.2-2.3,2.4-2.3c0.6-0.1,1.2,0.2,1.6,0.8c0,0.2,0.3,0.4,0.3,0.6
			C116.4-13.3,115.8-13.2,115.2-12.9z M53.6,7.8L55,6.6c-0.5,2.5-1.4,5-1.7,7.6c-1.2,8.1,2.9,14.6,5.7,21.4c1.6,4.1,5.1,7.4,8.9,9.7
			c0.2,0.7,0.1,1.5,0,2.2h-0.1c-4.7-3.6-8.4-8.1-10.7-13.1c-4.3-7.2-6.5-16.7-3.9-25.3C53.4,8.7,53.5,8.2,53.6,7.8z M44.5,18.8v-0.2
			c1.7-1.1,3.5-1.9,5.1-3c0.2,0.2,0,0.4,0.2,0.6c0.4,1.2-0.1,2.7-0.6,3.9C47.6,19.8,46.1,19.2,44.5,18.8z M53.7,38.2
			c-1.6,0.2-3.1,0.3-4.7,0.5c0.3-0.6,0.7-1,1.2-1.6l2.1-2.7c0.6,0.4,1.4,1,1.6,1.7C54,36.7,53.8,37.5,53.7,38.2z M60.6,48.4
			c-3.4-2-5.8-5.5-6.7-9c0.7-0.5,2-0.9,1.9-2.1c-0.4-1.6-1.2-3.2-2.5-4.2c-0.7-0.2-1.4,0.2-2,0.4c-1.6-3.8-2.5-8.3-2.1-12.6
			c0.8-1.2,1.9-2.4,1.6-4c-0.1-1-1.2-1.7-0.8-2.8c0.4-1.9,1.3-3.6,2.4-5.2h0.1c-1.6,7.3-1.4,14.7,1.6,21.3c2.6,6,5.3,12.1,10.8,16.8
			C63.4,46.7,61.5,46.8,60.6,48.4z M65.6,52l-4.2,2.1c0.2-1.8,0.6-3.8,0.9-5.7l0.1-0.1c1-0.1,1.8-0.4,2.7,0l0.4,0.4
			C65.9,49.6,65.8,50.9,65.6,52z M82.4,56.5l-2.6,3.9c-0.8-1.4-1.3-3-1.9-4.5c0.8-0.6,1.6-1.4,2.7-1.2c0.7,0.4,1.2,1,1.8,1.6V56.5z
			 M93.8,55.2c0.2-0.5,0.6-0.9,1-1.3c0.7-0.9,2.1-0.4,2.9-0.1l0,6.3C96.5,58.6,95.2,56.9,93.8,55.2z M97.7,53c-1-0.4-2.6-0.8-3.6,0
			c-0.9,0.5-0.9,1.7-1.9,1.9c-2.8,0.8-5.8,1.1-8.9,1c-0.1-0.6-0.4-1.2-0.9-1.6c-1.3-0.6-3.6-1-4.8,0.2C77,54.9,77,56.3,76,55.9
			c-3.4-0.3-6.5-1.6-9.4-3.2c0.3-0.9,1.1-2,0.5-3.1c-0.1-0.4-0.4-0.8-0.5-1.2c0.8,0,1.7,0.2,2.4,0.7c0.8,1.6,2.3,2.9,4.2,2.8
			c2.3,0.1,4.9-0.2,7-1.4c1.7-0.5,3.4,0.2,4.6,1.4c1.7,1.1,3.5-0.2,5.1-0.7c1.1,0,1.7,1,2.7,1.1c2.3,0,4.2-1.2,6.5-1.1
			c0.5,0.3,0.3,1,0.4,1.4L97.7,53z M113.1,47.4c-0.2,0.3-0.6,0.3-0.7,0.6c-0.4,0-0.3-0.4-0.5-0.6c-0.2-0.4-0.1-0.9-0.2-1.4
			c-0.6,1.8-1.3,3.8-3.2,4.7c-1.7,0.1-3.5,0.3-4.9,1.1c1.7-2.1,3.2-4.8,2.4-7.6c-0.1-0.8,0.4-1.9,1.2-2.3c1.9-0.2,4,0.2,5.5-1.2
			c1.1-1.1,2.5-1.8,3.9-2C117.1,42.3,116,45.3,113.1,47.4z M123.7,42.1c-0.6,2.1-2,4.9-4.6,5.1c-1,0.3-2.2,0.3-2.9-0.6
			c1.4-2.6,4.3-5.6,2.1-8.6c1-1.7,3.6-3.7,1.8-5.9c-1.7-4-6.3-3.1-9.6-4.1c-0.4-1.5-1.6-2.7-2.6-3.9c-0.2,0.3-0.2,0.7-0.2,1
			c-0.2,0.8-0.3,1.7-0.8,2.4c-1.9,0.1-3.6-0.7-5.5-1c-2.5-0.2-5.8,0.8-7.3-1.9c-1.2,1.9-3.1,4.2-5.6,3.9c-1.7,0-3.1,1-4.7,1.4
			c-1,0.2-2.5-0.3-3.4,0.5c-0.5,0.5-0.7,1.2-0.5,1.9c0.2,0.7,0.6,1.2,1,1.8c2.7-2.2,5.9-3.1,9-4.2c3.2-1,6.2,0.2,8.8,1.7
			c3.4,0.8,6.5,2.5,10.2,2.3c2.3-0.1,3.9-1.9,5.7-3.2c0.5-0.1,0.9-0.3,1.3-0.2c1.1,0.2,2.1,1.2,3,2.1c0.4,0.8,0,1.6-0.4,2.3
			c-2.5,2.8-6,3.4-9.4,4c-1.9,0.1-4.1,0.3-5.7-0.3c-1.8-0.5-3.3-1.6-5-2.6c-2.5-1.1-5.1-4.1-8-2.3c-0.4,0.2-0.8,0.5-1.1,0.8
			c1.5,0.4,1.3,3,3.1,2.2c0.4-0.1,1-0.5,1.4-0.2c0.6,0.5,0.2,1.6,1,2c0.8-0.1,1.7-0.8,2.3,0.2c0.3,1.9,2.3,1.7,3.4,2.7
			c0.8,1,1.8,2.2,3.1,2.3c0.6,0.3,1,0.9,1.1,1.5c0.1,1.7,0.1,3.6-1.4,4.7c-1.1,0.6-2.4,0.5-3.6,0.6c0-1.4,0-2.9-0.5-4.2
			c-2,0.7-1,3.6-3.2,4c-1.3,0.3-2.7,0.4-3.9,0c1.3-1.1,1.9-2.6,1.6-4.2c-0.2-1.1-0.7-2-1-3.1c-0.3,0.5-0.1,1.2-0.3,1.8
			c-0.9,1.9-3,2.6-4.9,2.9l-4.6,0.8c1.8-2.2,2.6-4.8,2.9-7.7c-0.5-0.1-1,0.2-1.4,0.4c-1.1,1.3-0.7,3.4-2.4,4.4c-1.4,1-2.6,2.1-4,3.2
			c-2.2,0.9-5.2,0.6-7.1-0.6c-1.6-1.6-0.9-4.2-1-6.4c0-3.3,1.9-5.9,2.9-8.7c1.8-3.3,6.6-3.9,7.2-7.9c0.3-1.9,1.4-3.5,2.8-5
			c-1.3,0.1-2.8,0.6-3.4,1.9c-1.1,2-1.4,4.5-3.7,5.7c-1.9,1.1-4.3,2.5-5.4,4.7c-2.1,3.2-2.9,7-2.5,11c-2.3-2.3-0.9-6.2,0-8.7
			c0.8-1.6,1.8-3,2.7-4.5c-0.3-0.1-0.6,0.4-0.9,0.4c-2.3,1.2-3.7,3.5-4.3,5.9c-0.2,0.4-0.8,0.5-1.2,0.4c-4.1-1.9-5-6.2-6.5-9.8
			c-2.1-5.8-2.9-12.4-1.8-18.9C56.3,5.2,58,1.5,55.4-1c-1.7-1.8-4.5-0.8-6.2-2.5c-0.6-1.2-0.1-2.7,0.8-3.6c0.3-0.4,0.5,0.2,0.8,0.3
			C51.5-6,51.5-5,51.7-4c0.2-0.2,0.2-0.6,0.3-0.9c0.2-0.6,0.4-1.3,1.1-1.7c0.5-0.2,1,0.1,1.4,0.3c0.7,0.7,1,1.8,1.2,2.7
			c0.2,0,0.1-0.3,0.2-0.4c0.1-1.2,0-2.4,0.9-3.2c0.9-0.3,1.7,0.2,2.3,0.8c0.4,0.5,0.8,1.1,1,1.7c0.6-1.9,2-3.4,2.8-5.2
			c0.2-1.6-0.7-2.9-2-3.8c-0.9-0.4-1.8-0.8-2.8-1c0.4-0.6,0.9-1.4,1.8-1.3c1.7,0.1,3,0.9,4.1,2.3c0.1-1-0.4-2-1.3-2.5
			c-1.4-0.8-3.5-0.9-5-0.1c-2.4,1.8-4.6,4.1-6.8,6.1c-0.4,0.3-0.8,0.5-1.2,0.6c-0.4-0.8-0.3-1.7,0.1-2.4c-0.2-0.2-0.3,0.1-0.5,0.2
			c-2.3,1.6-1.3,4.9-1.5,7.5C48.4-1.5,47,0.6,46,2.7c-0.6,0.8-1.2,1.5-2.1,2c-1.3-2.5-2.7-5.8-1.2-8.7c2-3.7,4-7.5,5.7-11.3
			c1.5-2.4,4.3-2.7,6.5-4.1c1.9-1,3.7-2.2,5.7-3.3c1-0.5,2.4-0.2,3.3,0.4c0.8,0.6,1.5,1.5,2.1,2.3c1.4,1.4,3,2.4,4.5,3.7
			c3.5-3.7,8.5-4.7,13.8-4.3c2.2,0.2,4.2,1,6,2.3c3.3,0,6.2-2.5,9.5-1l1.3,0.5c4-2.4,7.5-6.7,12.7-5.5c0.7,0.2,1.3,0.7,1.6,1.3
			c0.5,3.2,4.1,3.4,6.1,5.3c3.1,2.5,2,6.9,2.6,10.5c-0.2,1.4-0.9,2.6-1.6,3.7c-3-2-1.6-5.5-2.8-8.1c-1.1-3-4-5.6-7.3-5.7
			c-1.7-0.1-3.6,0.3-4.5,1.9c1.4,2.4,4,3.7,5.8,5.7c1.3,1.6,0.9,4,2.1,5.6c2.5,3.7,2.5,7.8,3.1,12.2c0.4,3.3-0.9,5.8-2.1,8.4
			c-0.5-1.7-0.8-3.5-2.4-4.7c-1.4-1-3.4-0.8-4.9,0c1.9,0.8,3.8,1.8,5.1,3.7c1,1.2,2,2.7,3.4,3.7c0.9,1.2,1,2.7,1.2,4.1
			c-0.7-0.1-1.3-0.5-2-0.5c3.1,2,3.5,5.6,5.6,8.2c0.4,2.5-0.6,5.6,0.6,7.9C123.4,40.2,124.1,41,123.7,42.1z M110.2,30.7l1.3,0.2
			c-0.5,0.9-1.2,2-2.3,2.2c-1.2,0.1-2.5-0.2-3.6-0.8C107.2,31.9,108.6,31.1,110.2,30.7z M104.6,31.5c-0.3-0.6-0.6-1.4-0.1-2
			c0.2-0.1,0.3-0.2,0.5-0.3c0.4,0,0.8,0.4,1,0.8c0.2,0.3,0.2,0.8,0.3,1.2C105.8,31.5,105.2,31.5,104.6,31.5z M107.2,28.7
			c0-1,0.8-1.9,0.9-2.9l0.1-0.3c1.2,1.2,2,2.7,1.9,4.5c-0.9,0.6-2.1,0.7-3.1,0.5c0-0.4,0.2-0.7,0.2-1.1
			C107.4,29.2,107.2,29,107.2,28.7z M103.8,31.7h-1.6c-0.1-0.8-0.1-1.7,0.6-2.2c0.4-0.1,0.7,0.3,1,0.6C104,30.5,104,31.3,103.8,31.7
			z M101.5,31.6c-0.7-0.1-1.4-0.4-2-0.8c-0.1-0.5,0-1,0.5-1.3c0.4-0.1,0.8,0,1,0.2C101.6,30.2,101.5,30.9,101.5,31.6z M95.4,29.3
			c-0.8-0.4-1.6-0.6-2.5-0.7c0-1.2,0.4-2.3,1.1-3.2C95.4,26.4,95.7,27.9,95.4,29.3z M52.2-9.1c0.4-1,1.4-1.1,2.2-1.6
			c0.8-0.6,1.5-1.2,2.1-2c1.1,0.9,2.3,1.3,3.6,1.6c0.2,0.1,0.3,0.3,0.5,0.4c0.3,1.4-0.7,2.4-1.2,3.4c-1.1-0.4-2.1-1-3-2
			c-1.2-0.5-1.8,1.3-3.1,0.8C52.9-8.5,52.4-8.7,52.2-9.1z"/>
		<path fill="#720018" d="M115.8-18.7c3.6,1.6,5.8,5.3,5.5,9.2c0.4-2.4,0.7-5.6-1.6-7.1c-2.9-0.9-4.6-4.5-7.6-5.2L111-21
			c-2,1-4.6,2.4-4.8,4.9c0.8-0.8,1.6-1.5,2.6-2C110.8-19.1,113.6-19.4,115.8-18.7z"/>
		<path fill="#720018" d="M67.6-4.2c1.6-1.7,1.3-4.3,3.3-5.9c1.9-1.3,4-1,5.8,0.1c0-0.6-0.1-1.1-0.3-1.6c-0.6-1.2-2-1.6-3.3-1.5
			c-1.7,0.6-3.7,0.6-4.7,2.4c-0.8,2.5-1.5,5.1-2.1,7.8C66.8-3.4,67.3-3.7,67.6-4.2z"/>
		<path fill="#720018" d="M111.2-7.5c-0.2-0.7-0.4-1.4-0.8-2c-0.6-0.9-1.6-1.5-2.6-1.8c-1.5-0.4-3.2,0-4.3,1.1
			C106.2-10.2,109.4-10.3,111.2-7.5z"/>
		<path fill="#720018" d="M87.7-7.9c3.2,0.2,4.9,2.9,7.3,4.7c2.4-0.7,4.6-1.6,6.8-2.7c0.6-0.5,1-1.2,1.1-1.9
			c-0.4-0.3-0.8-0.5-1.3-0.5c-1.6,0.8-3,2.4-5.1,1.8c-1.4-0.2-2.2-2.1-3.6-2.3l-3.4-0.8c-1.1-0.1-2.3-0.2-3.2,0.5
			C86.2-8.3,87.2-8.2,87.7-7.9z"/>
		<path fill="#720018" d="M85.3-4c2.3,1.4,4.2,3.7,6.2,5.5c0.6,1.4-0.6,2.6-1.2,3.8c0.6,0.2,1.4,0.2,1.9,0c0.6-0.2,1-0.8,1.3-1.3
			c0.5-2.6-1.3-4.7-3.1-6.6c-2-1.5-3.8-3.5-5.8-5c-1.4-0.8-3.5-0.4-4.8,0.3C81.9-6.9,83.8-5.6,85.3-4z"/>
		<path fill="#720018" d="M105.5-4.1c1.2-1.6,3-1.9,4.9-1.8V-6c-0.7-0.5-1.3-1.3-2.1-1.3c-1.4,0.3-2.6,1.2-4.1,1.5
			c-2.2,0.3-2.6,2.7-4.1,4c-1,0.9-2.4,1.1-3.4,2.1c-0.1,0.7,0.2,1.5,0.5,2.1c1.1-0.9,2.4-1.2,3.7-1.4C103.5,0.5,104.2-2.3,105.5-4.1
			z"/>
		<path fill="#720018" d="M84.5,7.5h1.7c1.1-0.1,2.3,0,3.1-0.7c0.2-0.5,0-1.1,0-1.7c-2.3-0.8-4.8-1.9-6-4.3
			c-2.1-2.4-4.1-4.9-7.1-5.6c-2.2-0.4-4,0.7-5.2,2.5c-0.2,0.4-0.6,0.9-0.7,1.3h1.2c1-0.1,1.3-1.2,2.2-1.5c0.4-0.1,0.9-0.1,1.2,0.3
			c0.5,0.8,0,1.6-0.5,2.3l1.9-1.3C76.5-1.4,77-1.3,77.1-1c0.1,0.5,0.1,0.8,0,1.3c-0.6,1.3-1.7,2.5-1.4,4.2c0.4,1.7,1.8,3.7,3.7,4
			c-0.5,0-0.9,0.3-1.2,0.6c0.4,0.1,0.7,0.2,1.1,0.2c1,0.2,2,0.3,2.9,0.5c-1.7,1.1-4.1,0.5-5.7-0.4c-2.4-0.9-2.5-3.6-3.4-5.3
			c-0.1,1-0.3,2.1-0.1,3.1c0.6,1.8,2.2,3.8,4.1,4.4c3.5,0.9,6-1.3,8.6-2.9V8.6l-1.3,0c-1.5-0.1-3,1.1-4.4,0.2L80,8.6
			C81.4,8.9,83.3,8.6,84.5,7.5z M80.9,3c0.3-0.1,0.6,0.1,0.8,0.3c0.1,0.3,0,0.8-0.3,0.9c-0.4,0.2-0.7-0.1-0.9-0.3
			C80.3,3.5,80.5,3.1,80.9,3z M79.6,2.4c0.2,0,0.4,0,0.5,0.2c0,0.3-0.1,0.6-0.3,0.6c-0.1,0-0.3,0-0.4-0.2
			C79.4,2.8,79.3,2.5,79.6,2.4z M78.8,7.8c-1.6-1-1.8-2.8-2.1-4.5c1-0.3,0.8,1,1.3,1.4c1.2,1.2,2.8,2.1,4.5,1.5
			c0.3-0.2,0.3-0.8,0.7-0.7l1,1C83.1,8.5,80.7,7.7,78.8,7.8z"/>
		<path fill="#720018" d="M97.9,3.8c-0.2,0.5-0.3,1-0.2,1.5c1.1,1,2.8,0.9,4.3,1.2l1.3,1c1.4,0.6,3.2,0.8,4.6,0.4
			c1.3-0.5,2.7-2,2.8-3.3c0.5-1.8-1.9-3.2-0.5-4.7c0.6,0,1.1,0.6,1.5,0.9c0.2,0.2,0.5,0.4,0.8,0.6c-0.3-0.5-0.6-1.1-0.4-1.7
			c0.1-0.3,0.4-0.6,0.8-0.6c0.7,0.1,1.4,0.7,1.7,1.3c0.5,0.4,1.2,0.6,1.9,0.5c-0.2-0.4-0.4-0.8-0.5-1.1c-0.5-1.2-1.9-2.4-3.2-2.7
			c-4.3-0.7-7.2,2.8-10.3,5.2C101.2,3.2,99.6,3.5,97.9,3.8z M106.8,2.2c0.1-0.2,0.3-0.3,0.5-0.3c0.3-0.1,0.6,0.1,0.7,0.4
			c0.1,0.3,0,0.8-0.4,0.9c-0.3,0.1-0.5-0.1-0.8-0.2C106.6,2.8,106.7,2.4,106.8,2.2z M106,2.3c0.1,0.1,0.3,0.1,0.4,0.2
			c0,0.2-0.1,0.4-0.2,0.5c-0.2,0-0.4,0-0.5-0.3C105.5,2.5,105.8,2.3,106,2.3z M103.7,4.9c0.2,0.3,0.4,0.8,0.8,1
			c1.3,0.2,2.8-0.1,3.9-0.9l1-1.3c0.1,0.1,0.3,0,0.5,0.1c-0.3,0.8-0.5,1.8-1,2.6c-0.5,0.6-1.3,1.3-2.2,1.1c-1.5-0.3-3.3-0.1-4.1-1.7
			C102.9,5.4,103.3,5.2,103.7,4.9z"/>
		<path fill="#720018" d="M78,13.7c-2.1,0.3-4.3,0.9-6.5,0.6c-1.4-0.3-1.6-1.8-2-2.9C68.9,9.9,67,9,67.2,7.2c0.2-2.5,0.1-5,0.1-7.5
			l-0.8,1c-1.6,1.8-1.5,4.9-0.6,7c1.9,3,2.7,6.4,4.2,9.6c0.5,1.9-1.6,2.9-2,4.5c-0.4,1.8-0.4,3.6-0.6,5.4c2.2-1.9,3.5-4.2,4.8-6.5
			c1.8-2.4,4.2-4.3,5.7-6.9V13.7z"/>
		<path fill="#720018" d="M101,8.6c0.7,0.2,1.4,0.6,2,0.6c-1.6-0.7-3-1.8-4.7-2.2c-3.5-1.1-6.7,0.9-9.5,2.7c1.4-0.6,2.9-1.4,4.5-1.6
			C95.9,8.2,98.7,7.8,101,8.6z"/>
		<path fill="#720018" d="M91.7,16.4c0.2-1,0-2.3,0.8-3c0.5-0.2,1.1,0,1.5,0.2c0.8,0.5,1.1,1.3,1.2,2.1c0.4,1.3,1.9,1.2,3.1,1.4
			c0.2-0.1,0.5-0.3,0.5-0.5c0.5-1,0.1-2.5,1.2-3.1c0.3-0.1,0.7,0,0.9,0.2c0.1,0.6,0.4,1.2,0.9,1.5c0.3,0.2,0.7,0,1,0
			c1.1-0.8,1.5-2.2,1.4-3.5c-0.7-1-1.6-1.8-2.6-2.2c-1.9-0.2-3.9-0.6-5.7-0.6c-2.1,0.4-4.3,0.5-5.8,2c-0.8,1.2-1.1,2.9-0.7,4.4
			C89.8,16.2,90.9,16.4,91.7,16.4z M95.6,9.7c2,0,3.9-0.1,5.5,0.8c0.1,0.3-0.1,0.5-0.2,0.6c-2.4,0.2-5.4-0.4-7.7,0.5l-1.6-0.1
			C92,9.7,94.1,10.1,95.6,9.7z"/>
		<path fill="#720018" d="M84.8,11.8c-2.4,0.4-3.3,3.1-5.3,4.5c-1.2,1-1.3,2.4-1.6,3.8c1.8-2.3,3.5-4,5.6-6.1
			c1.2-1.4,2.7-1.9,4.1-2.5C86.6,11.6,85.6,11.5,84.8,11.8z"/>
		<path fill="#720018" d="M107.4,14.4l0.7,1.6c1.4,3,4.8,3.1,6.5,5.9C114,18,109.8,17.1,107.4,14.4z"/>
		<path fill="#720018" d="M112.3,23.1c-3.7-2.1-8.9-0.2-12.6-2.5c2.7-1.4,5.7,0.2,8.4,0.1c-2.3-1.1-5-1.4-7.4-2
			c-2.8-0.3-5.2,0.5-7.7,1.1c-2.1,0.9-4.1,2.4-6,3.6c2,0.1,3.7-0.4,5.2-1.8c1.7-1.1,3.8-1.2,5.8-1.3v0.2c0,0.7-0.8,0.6-1.2,0.9
			c-2.2,0.2-4.1,1.4-5.8,2.7c2.1-0.6,4-1.8,6.2-2.3c3.2-0.7,5.8,1.6,9.1,1.1c3.6-0.4,6.6,1,9.3,2.7
			C114.7,24.6,113.5,23.7,112.3,23.1z"/>
		<path fill="#720018" d="M78.1,32.4c-0.2,0.1-0.4,0.2-0.5,0.4c-0.5,0.4-0.6,1-0.5,1.5c0.3,1,0.5,2.1,1.1,2.9c0.8,0.7,1.7,1,2.8,0.8
			c1.9-0.4,3.5-1.7,5.1-2.6c-1.9,0.8-4.4,1.5-6.3,0.5C78.6,35.2,78.3,33.8,78.1,32.4z"/>
		<path fill="#720018" d="M73.9,42.1c-0.8-0.8-0.5-2-0.3-3c-0.5,0.1-1,0.2-1.3,0.7c-0.4,1.5-1.2,2.9-1.3,4.5
			c0.2,0.7,0.8,1.2,1.4,1.6c1,0.5,2.5,0.5,3.5-0.3c1.4-1.4,2.9-2.8,4.3-3.9c-0.8,0.5-1.6,0.9-2.4,1.2C76.4,43.5,74.9,43,73.9,42.1z"
			/>
	</g>
</g>
</svg>
