<?xml version="1.0" encoding="utf-8"?>
<!-- Generator: Adobe Illustrator 19.1.0, SVG Export Plug-In . SVG Version: 6.00 Build 0)  -->
<!DOCTYPE svg PUBLIC "-//W3C//DTD SVG 1.1//EN" "http://www.w3.org/Graphics/SVG/1.1/DTD/svg11.dtd">
<svg version="1.1" xmlns="http://www.w3.org/2000/svg" xmlns:xlink="http://www.w3.org/1999/xlink" x="0px" y="0px"
	 viewBox="33 -33 100 100" enable-background="new 33 -33 100 100" xml:space="preserve">

<g id="AREA_1">
	<g>
		<path fill="#720018" d="M117.6,9.8c-0.2-0.9-0.1-2-0.3-2.9c0.3-2.1-1.7-3.6-3.2-4.8c-0.4-1.6-0.1-3.5-0.2-5.2
			c0.1-1.1,0.5-2,0.5-3.1c-0.4-1.6,0.6-2.8,0.8-4.3c0.1-2.8,0-5.7,0.3-8.5c-0.2-1.6-0.5-3.6,0-5.1c-0.6-0.2-1.2-0.3-1.9-0.3
			c-2.4,0.6-4.2,2.7-6.3,4c-2.6,1.6-3.5,4.7-6.2,6.4c-2,0.2-3.6-1.1-5.1-2.2c-0.2,0-0.4,0-0.6,0.1c-1.3,0.7-3.1,0.9-4.4,0.2
			c-0.9-0.2-1.8,0-2.4,0.6c-1.2,1.7-2.3-0.5-3.5-0.7c-1.8,0.2-3.1,1.5-5,1c-2.5-0.2-4.3,1.2-6.2,2.2c-0.9-1.4-1.8-2.9-3.3-4
			c-1.3-1.1-2.8-1.3-4.5-1.1l-0.1,0.1c-2.9,3.9-2.3,9.3-5,13.2c-4.1,5.7-7.4,11.8-8.1,19c-1.1,5.2-2.4,10.3-4.1,15.3
			c-0.9,2.3-0.9,5.2-0.8,7.7c0.7,4.1-1,7.6-0.6,11.7l0.6-1c0.7-3,3.6-4.7,5.6-6.9c0.1,0.5,0,1.1,0.1,1.6c0.6-0.1,0.9-0.5,1.4-0.7
			l0,0c-0.2,0.7-0.5,1.4-0.6,2.1c0.5,0.1,1.1,0.2,1.6,0.4c-0.3,1.5-1.6,2.5-1.6,4.1c0.5,0.9,0.7,2.1,0.5,3.1
			c1.2-0.9,3.1-0.3,4.5-0.5c1.5,0,2.9-0.6,4.3-0.8l-0.6,0.5c-0.1,0.3-0.1,0.6,0.2,0.8c0.3,0.4,0.6-0.3,0.9-0.3
			c0.4-0.2,0.7,0.1,0.9,0.2c0.3,0.8,0.7,1.5,1.2,2.2c0.1,0.3,0.4,0.6,0.1,0.8c-0.6,0.4-1.4,1-1.5,1.6l1-0.4c0.3-0.1,0.8-0.1,1.1,0.1
			c-0.1,0.5-0.2,1.1-0.2,1.6c1.1-0.9,2.4-1.4,3.9-1.6c0.5,0,1,0.2,1.2,0.7c0.1,0.4,0.1,0.8-0.2,1.1c-0.2,0.4-0.6,0.7-0.8,1.1
			c0.6-0.1,1.1-0.3,1.7-0.2c1.4,0.7,0.2,2.7,1.3,3.6c1.4-1.9,3.6-2.7,5.9-2.1c2.1,0.9,4.6,1,6.4,2.8c2.5,1.5,5.3-0.4,7.8-0.4
			c1.7,0.4,3.2,0.4,5.1,0.3c2.4,0.4,5.1,0.9,7.2-0.3c2.1-0.5,2.7-2.7,3-4.5c0.5-1.5,2.1-2.5,3.6-2.7c-0.6-1.8-1.7-3.3-1.5-5.5
			c-0.2-2.4,1.5-4.3,1-6.9c-0.3-0.8-1.1-1.5-0.8-2.5l1.7-3.6c0.7-2.5,2.2-4.7,3-7.2c1.8-4.4,0.6-9.8,1.4-14.4
			C118.6,13.5,117.9,11.6,117.6,9.8z M113.6-10.3c0.2,1.2,0.2,3.1-0.2,4.5c0,0.9,0.1,1.9-0.3,2.6c-1.1,0.3-2.1,1-3.3,0.8
			c-0.6-0.8-1.5-1.2-2.4-1.5c-0.1-0.1-0.2-0.3-0.2-0.5c0.9,0.2,2,0.6,3,0.7c0.5,0.1,0.9,0.5,1.4,0.3c0.5-0.1,0.4-0.6,0.7-0.9
			c-0.9-1.6-0.2-4-0.8-5.7c0-1.3,0.7-2.4,1.1-3.6c0.5-0.6,1-1.2,1.2-2C115-14,114.1-11.9,113.6-10.3z M107.6-14
			c0.7-2.6,1.4-5.2,3.6-7c0.6-1.1,1.7-1.8,2.6-2.4c-0.2,1.8,0.7,3.4,0.2,5.1c-0.2,0.9-0.6,1.8-0.9,2.7c-0.5,0-1-0.3-1.3-0.8
			c-0.1-0.3,0.2-0.5,0-0.7c-1.3,1.1-2.8,2.2-3.6,3.8c-0.4,0.4-1,0.6-1.2,1.2C107.1-12.7,107.7-13.3,107.6-14z M65.9-12.4
			c0.3-1,0.6-2,1.4-2.8c0.9,0,2.1-0.2,2.8,0.5l1.9,1.5c0.4,0.5,0.9,1,1,1.5c0.3,1.1,1.1,2.1,0.9,3.4L74.1-8c1.2,0.6,2.3,1.6,3.4,2.3
			c-0.3,0.2-0.7,0.2-1,0.6c-0.2,0.4,0,1.1-0.5,1.4C75-3.4,73.7-3.3,73.3-2c-1.1,0.3-1.9-0.6-3-0.5c0.9-1.1,2.2-1.9,3.6-1.7
			c0.1-1.6-0.9-3-0.9-4.7c-1-1.5-0.8-3.7-2.4-4.8c-0.4-0.2-0.7-0.5-1.1-0.6c-0.1,1,1.9,2.1,0.2,2.9c-0.6,1.1,0.2,2.3,0.5,3.4L71-7.2
			c-1.1,0-2.1-0.7-3.3-0.6c0.7,0.5,0.5,1.4,0.6,2.1c-0.7-0.2-0.7-1-1-1.6l-0.9-1.2C66.4-9.8,65.6-11,65.9-12.4z M76.5,0.9
			c-0.2,0.9-0.6,1.9-1.2,2.8c-1.5,1.2-2.9,2.5-4.8,2.8c1.1-0.8,1.1-2.2,1.4-3.4c1.7,0.2,2.9-1,4.2-1.7L76.5,0.9z M55.4,13
			c0.1-0.1,0.3-0.1,0.4-0.3c-1-1.3,0.2-2.5,0.5-3.8l0-2.1c1.2-1.1,1.4-2.8,1.1-4.3c0.5-0.9,1.7-0.9,2.5-1.4
			c-0.3,1.3-0.5,2.7-0.4,4.2c-0.5,0.8-1.7,0.8-2,1.8c0.8,1.6-1.6,2.7-0.2,4.1c0.3,0.4,0.7,0.4,1.1,0.4c-0.1,0.4-0.5,0.8-0.8,1.1
			c-1.8,0.9-2.6,2.5-2.6,4.4c0,1.1,0,2.3,0.2,3.3c-0.7-0.5-1.6-1-2.1-1.8c-0.1-1,0.6-1.7,1.1-2.4C54.3,15.1,54.1,13.6,55.4,13z
			 M53.5,30.8c0.2-0.2,0.3-0.3,0.5-0.3c0.4,0.1,0.7,0.3,1.1,0.3c0.1,0.6-0.9,1-1.2,1.6c-0.5,0.8-1.4,1.6-2.2,2
			C51.8,33.1,52.8,32,53.5,30.8z M54,35.1c-0.4,0.4-0.8,0.8-1.2,0.9c-0.5,0-0.9-0.2-1.3-0.5c0.1-1.4,1.9-0.9,2.5-2.1
			c0.2-0.4,0.4-0.9,0.8-1.2c0.4-0.1,0.7,0.1,1,0.3C56,34,54.6,34,54,35.1z M56.4,24.4c-0.4,0.7-1.2,0.8-1.9,0.9
			c-0.3-0.1-0.5-0.3-0.8-0.4c-0.1-0.5,0.6-0.6,0.9-0.8c0.9-0.4,1.6-1.3,2.6-1.3C57.1,23.3,56.7,23.9,56.4,24.4z M61.7,15.6
			c-0.1,3-2.1,5.2-1.5,8.4c1.4,3.2,0.2,7.5,2.2,10.5c0.5,1.8,0.8,3.6,1.7,5.2c-0.6,0-1.3-0.3-1.6-0.9c-0.5-1-0.9-2.2-1.3-3.2
			c-1-0.7-2-1.6-1.9-3c-0.1-1.6-1.9-2.5-1.4-4.3c0.3-0.6,0.8-1.2,0.9-1.9c-0.4-0.2-0.8-0.4-1-0.8c0-1.9,1-4.1-0.3-5.8
			c-0.3-0.6-0.5-1.3-0.3-1.9c0.5-1.3,2.3-2.2,2.5-3.7c0.3-1.1,1.2-2.1,2.3-2.2c0.6-0.3,0.6-0.9,0.9-1.4c-0.6-0.5-1.2-0.9-1.9-1.4
			c-0.2-0.9,0.8-1.5,0.3-2.2c-0.3-0.7-1-1.3-0.7-2.1c0.8-0.9,1.8-1.8,2-3c0.1-0.3,0.5,0,0.6-0.2c0.8-1.8-0.9-3.6,0.3-5.1
			c0.3-0.2,0.7-0.2,1.1-0.2c0-0.4-0.3-0.7-0.3-1.1c-0.2-0.7,0.1-1.7-0.5-2.3c1.6,0.4,2.8,1.6,3.9,2.9c-0.6-0.1-1.3-0.7-2.1-0.4
			c1,1.3-0.3,3.5,1.1,4.5c-0.5-0.1-0.9-0.5-1.4-0.5l-0.1,0.1c0.9,0.6,1.9,1.5,1.9,2.6c-0.7-0.2-1.5-0.6-2.2-0.5
			c-0.2,0-0.3-0.1-0.4,0c0.3,0.2,0.6,0.4,0.8,0.6c0.1,0.4,0.2,0.9-0.3,1.1c-1.2,0-2.3,0.1-3,1.2C62,4.7,61.8,4.9,62,5
			c0.7,0.6,1.7,0.4,2.6,0.6c0.1,0.1,0.3,0.2,0.3,0.4c-0.5,0.2-1.4,0.1-1.4,0.8c1,0.2,2,0.4,2.9,1v0.2C64.7,10.5,62,12.6,61.7,15.6z
			 M67,41.1c-0.5-0.3-0.7-0.9-0.5-1.5c0.1-0.3,0.3-0.6,0.2-0.9c-0.4-0.2-1,0-1.3-0.5c-0.4-1.4,1-2.3,1-3.7c0.5,0,1-0.1,1.3,0.3
			c0,0.7-0.8,1.4-0.2,2.2c1.1,0,1.7-1,2.8-1c-0.1,0.6-0.4,1.3-0.2,1.9c0.2,0.4,0.4,0.9,0.9,1c0.5,0.1,0.9-0.2,1.3-0.2
			c-1.3,1-2.8,1.6-4.2,2.4C67.7,41.2,67.3,41.3,67,41.1z M98.5,61.2c-0.7-0.1-1.7-0.3-2.4,0c0-0.6,0.4-1.5-0.2-2
			c-0.6-0.6-1.7-1.1-1.7-2.1c0-0.7,0.6-1.2,0.9-1.8c-0.5-0.2-1.2-0.3-1.4-0.9c0-0.6,0.1-1.4-0.6-1.7c-0.8-0.2-1.6,0.1-2.4,0.2
			c-0.2-0.4,0-1,0.5-1.1c0.6-0.1,1.1-0.2,1.6-0.6c-1-0.8-2,0.3-3,0.2c-1-0.7-1.9-1.8-3.1-2.1c-1.7-0.1-3.5,0-5.1-0.1v-0.1
			c1.4-0.9,3.1-1.2,4.7-1.8c0.4-0.1,0.8,0.1,0.9,0.5c1,1.9,3.6,0,4.9,1.4l1.4,0.2c0.7-1.3,2-1.2,3.1-1.7c0,0.4-0.4,1-0.2,1.4
			c0.7,0.4,1.6,0.4,2.2,1.2c0.3,0.3,0.6,0.5,0.8,0.8c-1.7,0-3.4,0.1-4.7,0.9c-0.1,0.4-0.2,1,0.3,1.2c0.9,0.4,2.4,0,2.8,1.1
			c-0.2,2,2.4,1.6,2.5,3.4C100.4,59.4,98.6,59.9,98.5,61.2z M109.8,43.5c-0.2,0.8-0.7,1.9-1.7,2c-2.8,0.5-5.9,0.6-8.6,0.2
			c-0.9-0.4-1.5-1.2-1.7-2.2c1.1,0.4,2,1.1,3.2,1.3c1.9,0.2,4.1,0.2,5.9-0.2c1.4-1,2.4-3,4.1-3.8c0.2,0.1,0.3,0.4,0.3,0.7
			C111.2,42.3,110,42.6,109.8,43.5z M108.7,33.2c-0.2,0.1-0.6,0.1-0.8-0.1c0-0.4,0.5-0.6,0.7-0.9C108.7,32.5,108.6,32.9,108.7,33.2z
			 M107.4,29.2l-1,0.9c-0.7-0.1-1.3-0.3-1.9-0.5c0.2-0.4,0.6-0.5,0.9-0.8c0.9-0.3,1.9-0.2,2.9-0.3C108.2,28.8,107.7,28.9,107.4,29.2
			z M110.7,32c0.2,0.1,0.2,0.4,0.3,0.6c0,0.2,0,0.6-0.3,0.7c-0.2,0-0.4,0.2-0.6,0.1C109.9,32.9,110,32.1,110.7,32z M106.7,26.2
			c-0.8,1.2-1.9,2.5-3.2,3c-0.9,0.6-0.8,1.6-0.7,2.4c0.5,2.1,2.5,3.4,3.8,5.1c-0.7,0.5-1.6,0.9-2.1,1.7c0.4,0.5,1.6,0,1.5,0.9
			c-1.2,2.1-4,1.3-4.9,3.7c-2,1.1-3.8-0.8-5.7-1.4c-1.9-0.9-3.9-1.7-5.6-3.4c-0.2-0.2-0.6-0.1-0.8,0c-0.2,0.1-0.6,0.4-0.6,0.6
			c0.2,0.5,0.7,0.8,1.2,0.9c0.7,0.2,1.5-0.2,2.1,0.3c0.4,0.4,1.1,0.7,0.9,1.3c-0.3,0.5-0.1,1.3-0.2,1.9c-2.7,0.2-4.8-1-6.8-2.4
			c-0.9-0.8-1.3-1.9-1.9-2.8c-0.1-0.2-0.4-0.2-0.5-0.2c-0.2,0.1-0.4,0.4-0.5,0.6c-0.2,1.4,1.5,1.8,2.2,2.7c0.3,0.3,0.7,0.8,0.9,1.3
			c-0.8,0.1-1.5,0-2.2-0.3c-1-0.9-1.9-2.1-3.2-2.3V40c1.2,1.7,3,2.9,4.7,4.3h-0.1c-1.1-0.8-2.1-2-3.5-1.8C80.7,43,81,44.9,79.8,44
			c-0.3-0.1-0.5-0.5-0.9-0.3c-0.7,0.4-1.5,0.6-2.3,0.5c-0.5-0.4-0.3-1.1-0.4-1.7c-0.8,0.2-1.5,0.6-2.4,0.6c-1.3,0-2.3-0.6-3.2-1.5
			c-0.2-0.4,0.2-0.7,0.5-0.8c0.4-0.3,0.9-0.2,1.4,0c-0.2-0.7,0.4-1.2,0.8-1.7c2-1.3,3.3,1.6,5.4,0.6c0.3-0.1,0.6-0.3,0.7-0.6
			c-0.2-1.2-1.1-2.1-1.1-3.4c0.4-0.7,1.3-0.3,2-0.3c1.6,0.6,3.5,1.3,5.3,0.7c-1.8-1.2-3.6-2.4-5.4-3.8c-0.3-0.2-0.7-0.4-1.1-0.2
			c-0.6,0.2-0.9,0.8-1.5,1.1c-2,0.8-4.5,3.3-6.5,1.1c-0.5-0.9,0.2-1.6,0.5-2.3l1.7-2.2c-1.3,0.1-2.4,1.1-3.5,1.9
			c-0.9,0.2-0.5-0.9-0.9-1.3c-0.4-0.2-0.7,0.4-0.9,0.7c-0.7,1.4-1.7,2.9-3,3.9c0.3-2.6,1-5.3,1.4-7.9c0.4-1.4,1.3-2.7,2.8-3.2
			c0.9-0.2,1.8,0.1,2.6,0.4c0.3-0.5,0.2-1.2,0.3-1.8c-0.2-1.2-1.7-2.3-0.9-3.7c0.4-0.4,1.1-0.2,1.7-0.4c2.5,0.1,5.2,0.4,7.5,0.5
			c0.2-0.7,0.3-1.4,0.5-2.1c-0.9-0.1-2.3,0.3-2.8-0.5c0-1,0.6-1.9,1.1-2.7c0.3-0.4,0.7-0.5,1.1-0.4c0.5,0.1,0.7,0.4,0.6,0.9
			c1.3,2,3.5,2.1,5,3.6c0.9,0.5,2.1,0.6,3.1,0.4l-0.5,0.6c1-0.1,2.4-0.2,3.1,0.7c0.5,0.5,1,1.1,0.9,1.9c-0.3,0.3-0.8,0.3-1.1,0.7
			c0,0.4,0.2,1.1-0.3,1.3c-0.9,0.3-2.1,0.5-2.6,1.5c0.7,0,1.5,0.2,2-0.2c0.7-0.8,1.2-2.2,2.4-2.4c1.5-1.2,0.5-4.3,2.9-4.7
			c0.6-0.1,1.2,0.3,1.7,0.1c-0.5-1.3-1.3-2.6-2.5-3.4c-0.8,0.7-1.6,1.7-2.5,2.3c-1.3-1-2.1-2.2-2.6-3.6c1.5,0.4,2.7-1.3,4-0.1l0.1,0
			c-1.7-0.9-2.3-2.7-2.3-4.5c-0.2-0.7-0.5-1.4-1.1-1.9c-0.1,0.3,0.1,0.9-0.2,1.1l-1.1,0.3C89.8,8,90.2,8.4,90.4,9
			c0.1,1.5-0.6,2.7-1.4,3.8c-0.6-0.5-1.4-0.9-2.3-0.7c-1.4,0.4-2.6,1.6-4.1,1.5c-0.6-0.9-1.2-1.9-1.6-2.9c-0.1-0.5-0.1-1.2,0.4-1.4
			c2-1,3.9-0.8,6-0.6c-0.4-0.6-1.5-1-1.2-1.9c0.8-0.6,1.2-1.4,1.7-2.1c0.6,0,0.7,0.8,1.1,1.2c1,0.9,1.3-1.2,2.4-0.7
			c0.9,1.2,1.9,2.8,3.4,3.2c0.2,0.1,0.3,0.3,0.3,0.5c0,0.4-0.2,0.6-0.2,1c0.8,1.1,2.3,1.7,2.5,3c0.2,2,1.7,3.6,1.4,5.6
			c-0.2,0.5-0.8,0.7-1.2,0.9c2,1.9,4,3.8,5.9,5.6c0.5,0.1,1.1,0.4,1.5,0.2c-0.1-0.6-0.6-1.1-0.7-1.8c0.6,0,1.1,0.7,1.7,0.8
			c-3.5-4-6.8-8.2-6.3-13.7c0.4-1.1,2-0.9,2.1-2.2c0.2-1.1,0.1-1.9,0.2-3h-0.2c-0.5,0.6-0.8,1.4-1.3,1.9c-0.3-0.4,0-1.1-0.1-1.6
			c0.2-1.7,1.8-3.1,3.3-3.8c1-0.2,1.7,0.4,2.4,0.9c0.4,0.6,0.7,1.3,0.9,2c-0.7,0.6-1.5,1.5-2.3,1.8c-0.7-0.2,0-1.1-0.5-1.4
			c-0.8,1.2-1.5,2.6-1.2,4.2c0.2,0.5,0.5,1,0.4,1.6c-0.9,0.7-2.2,1.5-1.7,3c0.5,1.2-0.1,2.9,1.3,3.7c0.8,0.5,1.7,0.9,2.5,1.3
			c0.2-0.4-0.1-0.8-0.2-1.2c-0.2-0.4-0.5-0.8-0.8-1.3c1.9-0.4,3.1-2.2,3.8-3.9c0.7-1,2.5-1.7,1.9-3.1c-0.3-0.3-0.8-0.3-1.2-0.2
			c-0.5,0.3-0.5,0.9-0.6,1.4c-1.1-0.6-2.3-1.1-3.6-0.9c0.9-1.1-0.6-2.3,0.7-3c2.1,0,4.5,0.3,5.6,2.5c0.1,0.4,0.2,0.8,0.1,1.3
			c-0.5,0.8-1.4,1-2.1,1.5c1.6,0.7,3.7-0.5,5,0.9c1.2,1.8,2.1,3.7,2.5,5.9c0,0.8,0.1,1.6,0.2,2.4c-0.8,0-1.6,0.1-2,0.9
			c-0.1,0.3-0.1,0.7-0.5,0.9c-0.4,0-0.9-0.3-1.2,0.1c-0.1,0.7,0.4,1.4,0,1.9c-0.5,0.1-1.3-0.3-1.7,0.2c0.1,0.7,0.5,1.3,0.7,2
			C110.3,26.7,108.4,26.6,106.7,26.2z M87.9,13.8c0.1,0.4,0,0.8-0.5,0.8c-0.5,0-0.8-0.3-1.1-0.7c0.1-0.1,0.2-0.1,0.3-0.2
			c-0.2-0.2-0.6-0.1-0.8-0.3c0.7-0.4,1.8-1.1,2.4,0c-0.2,0-0.5,0-0.7,0.1C87.7,13.6,87.9,13.5,87.9,13.8z M88.6,14.5
			c0.1,0.1,0.2,0,0.3,0.2c-0.1,0.1-0.1,0.3-0.2,0.3c-0.1,0-0.1-0.1-0.2,0C88.3,14.8,88.4,14.5,88.6,14.5z M106.4,11.2
			c-0.2,0.2-0.1,0.6-0.5,0.6h-0.4c0-0.1,0.2-0.2,0-0.3c-0.2-0.1-0.6,0-0.7-0.3c0.5-0.3,1.2-0.3,1.9-0.2
			C106.7,11.1,106.5,11.1,106.4,11.2z M106.7,12.4c-0.1,0-0.3,0-0.4-0.1c0-0.1,0-0.3,0.1-0.3C106.7,12,106.8,12.2,106.7,12.4z
			 M111.8,39c-0.5-1.9,1.1-3.1,1.3-4.8c-0.6-2,2-3,1.4-5.1c0.1-1.5-2.5-1.9-1.7-3.5c0.4-0.1,0.7,0.4,0.9,0.6c0.1-0.7,0-1.6,0.1-2.3
			l1.4,1.4c0.5-0.2,1-0.8,1.1-1.3c-0.1-0.6-0.4-1.1-0.2-1.7c0.3-0.2,0.6-0.4,0.9-0.4C117.4,28.2,114.7,33.8,111.8,39z"/>
		<path fill="#720018" d="M108.8,17.6c-0.2-0.8,0.7-1,1.1-1.3c0.1-0.6-0.4-0.8-0.6-1.3c-0.3-0.6,0.6-0.8,0.7-1.3
			c-0.1-0.5-0.8-0.8-1.2-0.9c-0.5,1,0.3,1.9,0.3,2.8c-0.5,0-1.1-0.1-1.4,0.3c-0.1,1,0.7,1.7,0.6,2.7c-0.3,0.4-0.8,0.6-1.2,0.6
			l2.9,2.4c0.5-1.4-0.3-2.6-1.1-3.6C108.9,17.7,108.9,17.7,108.8,17.6z"/>
		<path fill="#720018" d="M86,22.5c-0.9-0.3-0.4-1.3-0.4-1.8c-0.8,0.4-1.5,0.9-2.3,1c-0.2-0.5,0.3-0.9,0.4-1.4l-0.1-0.2
			c-1.4,0.6-2.8,1.3-4.5,1.1c0.4,0.6,1.1,1.4,2,1.2c1.5-0.7,2,0.9,2.8,1.7c1.2,0.5,2.1-0.6,3-1.4C86.6,22.5,86.2,22.5,86,22.5z"/>
		<path fill="#720018" d="M100,32.4v0.4c0.2,0,0.4,0,0.4-0.2C100.3,32.4,100.1,32.4,100,32.4z"/>
		<path fill="#720018" d="M113.6,33.5l0.3,0c0.3,0,0.3-0.4,0.2-0.6C113.7,32.7,113.3,33.1,113.6,33.5z"/>
		<path fill="#720018" d="M100.8,34c0,0.2-0.1,0.4,0.2,0.5c0.2,0.2,0.5,0,0.5-0.3C101.4,33.8,101,33.9,100.8,34z"/>
		<path fill="#720018" d="M100.7,35.8c-0.2,0.1-0.3,0.3-0.4,0.5c0.1,0.2,0.3,0.4,0.5,0.4c0.4,0,0.4-0.5,0.3-0.7
			C101.1,35.9,100.9,35.8,100.7,35.8z"/>
		<path fill="#720018" d="M102.5,36.3c0,0.2,0.2,0.3,0.4,0.3c0.1,0,0.4-0.1,0.3-0.3c0.1-0.3-0.3-0.3-0.5-0.3
			C102.6,36.1,102.4,36.1,102.5,36.3z"/>
		<path fill="#720018" d="M97.4,36.4c-0.1,0-0.2,0.1-0.2,0.3c-0.1,0.3,0.2,0.4,0.4,0.4c0.1,0,0.2-0.1,0.2-0.3
			C97.8,36.5,97.6,36.3,97.4,36.4z"/>
		<path fill="#720018" d="M99.8,38.1c-0.2,0.1-0.4,0.2-0.3,0.5c0.2,0.2,0.4,0.2,0.6,0C100.2,38.3,100.1,38.2,99.8,38.1z"/>
		<path fill="#720018" d="M101.7,38.8c-0.2,0.1-0.2,0.3-0.2,0.4c0.2,0.2,0.4,0.2,0.6,0.1v-0.4C102.1,38.7,101.9,38.9,101.7,38.8z"/>
		<path fill="#720018" d="M97.5,39.2c-0.1-0.2-0.2-0.1-0.3-0.2c-0.2,0.1-0.3,0.2-0.3,0.4c0,0.2,0.3,0.4,0.5,0.3
			C97.6,39.6,97.5,39.3,97.5,39.2z"/>
		<path fill="#720018" d="M99.3,40.2c-0.2,0-0.3,0.3-0.3,0.5c0.2,0.2,0.4,0.2,0.6,0.1l0-0.4C99.6,40.2,99.5,40.1,99.3,40.2z"/>
	</g>
</g>
</svg>
