<?xml version="1.0" encoding="utf-8"?>
<!-- Generator: Adobe Illustrator 19.1.0, SVG Export Plug-In . SVG Version: 6.00 Build 0)  -->
<!DOCTYPE svg PUBLIC "-//W3C//DTD SVG 1.1//EN" "http://www.w3.org/Graphics/SVG/1.1/DTD/svg11.dtd">
<svg version="1.1" xmlns="http://www.w3.org/2000/svg" xmlns:xlink="http://www.w3.org/1999/xlink" x="0px" y="0px"
	 viewBox="33 -33 100 100" enable-background="new 33 -33 100 100" xml:space="preserve">

<g id="AREA_1">
	<g>
		<path fill="#720018" d="M129,7.3c-0.9,1.4-1.7,3-3.2,4.2c-2.9,2-7.6,1.4-10.4-0.5c-6.2-4.4-9.6-11.3-11.9-18
			c-0.3-0.7-0.7-1.4-0.9-2.2c-1.1-2.4-2.1-4.9-3.9-7c-2.5-3.2-6-4.4-9.7-5C84-21.6,77.9-22.4,73.4-20C64.3-15.9,63-5.5,59.5,2.4
			c-1.9,4-4,8.5-8.3,10.5c-3.6,1.2-7.5,0.5-10.3-1.8c-0.5-0.3-0.9-0.7-1.4-1c-0.2,0.8-0.4,1.6-0.3,2.5c0.3,1.7,1.9,2.7,3.3,3.4
			C47,18.4,52.7,18,58,17.9c-0.1,1,0.3,1.8,0.8,2.7c-1.3,0.7-1.8,2-2.2,3.3c0.3,0.9-0.7,1.3-1.1,1.9c-1.9,2.7-0.4,6,0.4,8.7
			c1.7,4.2-1.5,8.1-0.2,12.3l-0.1,0.1c-1.5,0.1-3,0.3-4.3,0.8c-0.3-0.7-0.4-1.5-1.1-2c-1.2-0.3-2,0.7-2.7,1.5
			c-0.5,0.1-0.9,0.3-1.3,0.6c-0.5,0.5-0.6,1.2-0.4,1.9c0.2,0.4,0.5,0.8,1,1c1.4-0.4,1.1,1.3,2.2,1.6c0.5,0.1,1,0.1,1.4-0.2
			c2.1,1.7,5.1,0.6,7.7,0.7c1,2.1,1.5,4.5,2.3,6.7c1.6-2.3,3.3-4.6,4.8-7l0.2-0.1c0.5,0.8,1.4,1.3,2.4,1.2c0.7-0.2,1.4-0.3,1.8-1.1
			c1.2,0.9,2.3,1.7,3.2,2.9c1.6,3,4.4,6,7.9,6.4c4.5,1.1,9,0.3,12-3.3c1.7-2.9,4-5.2,6.4-7.7l13.2-0.1c2.2-0.7,4.5-1.2,6.5-2.3
			c-2-0.7-4.3-0.8-6.4-1.3l-11.3,0.2l-0.1-0.1c0.6-1.3,0.7-2.9,0.9-4.3l0.1-0.1c0.2,0.1,0.2,0.3,0.3,0.4c1.5,1.8,3.6,3.4,5.9,2.7
			c1.2-0.6,1.8-1.9,1.9-3.2c-0.5-2.8-2-5.4-3.8-7.6c0-1.7,0.2-3.3,0.6-4.8c0.3-2.3,1.9-4.1,2.4-6.4c0.5-1.8-0.9-3.2-2-4.6l0.5-1
			c1.7-0.3,3.4-0.5,5-0.8c4.9-1.4,10.3-1.7,14.6-4.6c1.3-1.1,3-2.2,3-4.1C130.1,8.1,129.4,7.8,129,7.3z M96.3-10.5
			c0.7-0.6,1.9-2.2,2.6-0.7c0,0.2,0.1,0.3,0.2,0.4v1.1c0.4,0.4,1.2,0.5,1.3,1.1c0.1,0.6,0.2,1.3-0.3,1.8c-0.9,0.7-2.1,0.6-3.2,0.6
			C95-5,93.1-4.1,91.3-2.9c-0.3-0.3,0.1-0.7,0-1l0.2-1.5c1.5-1,3.2-1.7,4.5-3C96.3-9.1,95.7-10,96.3-10.5z M97.5,6.3
			c-0.2,0.5-0.5,0.7-1.1,0.8h-0.7c-0.1,0.9,0,2-1.1,2.3c-0.5,0.2-0.9,0-1.3-0.3c-0.5-0.5-0.7-1.1-0.7-1.7L87.9,4L89,2.2
			c1.4,0.6,2.7,1.5,4,2.1c1.2-0.2,2.8-0.6,3.8,0.1C97.4,4.9,97.8,5.6,97.5,6.3z M77.9-16c2.6-3.4,6.7-1.7,10.1-0.9
			c0.9,0.2,1.6,0.6,2.3,1.1c2.1,2,1.9,5.1,2.1,7.6c-0.1,1.3-1.1,1.7-2,2.5c-0.7,1.7,0.5,4.7-2,5c0.3,2.7-1.7,4.3-3.7,5.5
			c-1.2,0.6-2.8,1.1-4,0.2c-1.1-1.2-2-2.6-1.7-4.3c0.2-0.3,0.2-0.8,0.6-1.1c-1.2-0.7-2.8-1.8-3-3.3c-0.3-1.1,0.4-2.4-0.4-3.4
			C75.1-10.1,75.9-13.6,77.9-16z M79,3.5l-5.1,3.4c-0.3,0.8-0.3,1.9-1,2.5C72.4,9.4,72,9.1,71.6,9c-1.2-0.6-0.5-2.3-2-2.6
			c-0.6-0.5-0.5-1.3-0.4-2c0.2-0.5,0.8-1.1,1.4-1.1C71.4,3.2,72,4,72.9,4.2l4.3-2.7C77.9,2.2,78.5,2.7,79,3.5z M67.3-7.6
			c0.4-0.2,1-0.2,1.2-0.7c0.2-0.8,0-1.8,0.9-2.1c0.4-0.2,1.1-0.2,1.4,0.3l1.4,2.9c1,0.7,2.1,1.3,3.1,1.9v2.7
			c-2.3-0.7-4.1-2.8-6.9-2.4c-0.6-0.2-1.3-0.5-1.6-1.1C66.9-6.7,66.8-7.4,67.3-7.6z M59.3,21.1l0.5,0.4c0.7,0.4,1.5,0.7,2.2,1
			c-0.2,0.7,0.3,1.3,0.1,1.8c-0.7-0.5-1.5-0.9-2.2-0.4c-0.5,0.7,0.2,1.3,0.3,2c0.3,2,1.5,3.7,2.1,5.6c0.4,0.7,1.2,0.9,1.9,1l0.7,2.2
			L64,34.1l-1.6,2.1c0.7,1.3,2,2.7,1.3,4.3c-0.9,0.1-1.3-1-1.7-1.6c0-0.3-0.3-0.5-0.1-0.8c0.8-0.6,0-1.3,0-2c-0.4-1.4-1-2.8-1.1-4.4
			c-0.9-2.3-3.8-3.7-3.7-6.5C57,23.5,57.6,21.8,59.3,21.1z M63.1,29.9c-0.8-1.6-3.2-2.9-2-5C62.6,26,63.1,28,63.1,29.9z M60.2,40.8
			c0.2,0.6,0.6,1.3,1.2,1.4c0.9,0.3,1.8,0,2.4-0.6c0.6-0.7,0.7-1.6,0.8-2.5c-0.2-0.3-0.3-0.7-0.3-1l-1.1-1.9
			c0.3-0.4,0.6-1.1,1.1-1.2c0.4,0.4,1.1,0.5,1.1,1.1c0.3,1.5,1.5,3,0.8,4.6c-0.8,1.9-2.5,4.3-4.8,4.2c-1.1-0.1-2.3-0.5-2.7-1.7
			c-0.4-2.9,0.1-5.8,2-7.9c0.3,0.7,0.4,1.3,0.7,2C60.8,38.4,60,39.5,60.2,40.8z M63.2,41.1c0,0.3-0.4,0.4-0.6,0.5
			c-0.5,0.2-0.9-0.1-1.4-0.2c-0.5-0.7-0.5-1.8,0.1-2.3C61.8,39.9,62.2,40.8,63.2,41.1z M56.4,34.3c-0.7-2.4-2-5.1-0.9-7.7l0.8-0.9
			c0.3,1.1,0.6,2.2,1.3,3.1c-0.6,1.3-1.2,2.9-0.4,4.4c0.6,0.8,1.4,1.8,2.3,2.2c-0.2-0.6-0.7-1.3-0.9-2c-0.2-0.6-0.3-1.2-0.4-1.8
			c0-0.6,0.3-1.1,0.6-1.5c1.4,1.1,1.6,3.1,1.5,4.6c-2,2.3-2.8,5.2-2.5,8.3c0.2,1.2,1.1,2.2,2.3,2.5c1.9,0.4,3.7-0.2,5-1.7
			c0.3-0.4,0.6-0.8,0.9-1.2c0.1,0.6,0.5,1.4,0.1,2.1l-1.7,2.5c-2.3-0.8-4.7-0.1-7.1-0.3c-0.6,0-1.4,0.1-1.3-0.8
			C55.2,41.9,58.2,38.3,56.4,34.3z M50.7,50.9c-0.4,0.4-0.8,0.9-1.4,0.9c-1.2-0.7-1.7-2.2-1.5-3.7c0.1-0.8,0.9-1.5,1.6-2
			c0.4-0.1,0.8,0.2,0.9,0.5c1,1.2-1.8,2.2-0.2,3.4C50.3,50.4,50.8,50.5,50.7,50.9z M60.5,58.1c-0.6-1.2-0.9-2.7-1.4-4l-0.5-1.3
			c1.7-0.2,3.7,0,5.6-0.2C63.1,54.5,61.7,56.2,60.5,58.1z M57.2,52.2c-2.1-0.1-4.6,1-6.3-0.4c0.2-0.3,0.6-0.6,0.9-0.9
			c-0.4-0.6-1.7-1.1-1.4-2.1c3.6-2.2,8.4-1.1,12.7-1.3c0.4,0,0.7,0.2,1.1,0.3c-0.5,1.5,0.3,2.8,0.7,4.1C62.4,52.2,59.8,52,57.2,52.2
			z M68.8,52.6c-0.7,0.6-1.6,0.5-2.4,0.1c-1.1-1.3-1.8-2.9-1.6-4.7c0.7-1.6,1.8-3.2,3.2-4.2c0.9-0.2,1.8,0.1,2.2,0.8
			c-0.1,1.4-1.2,2.5-1.8,3.7c0.1,0.8-0.3,1.8,0.3,2.3C68.8,51.3,69.3,52,68.8,52.6z M92.1,58.3c-2.5,3.2-6.6,4-10.5,3.3
			c-3.1-0.5-6.3-2.3-7.7-5.3c-1-1.9-2.9-3-4.3-4.5l-0.1-0.7l5.3-0.1c0.1,0.2-0.2,0.4,0,0.6l0.9-0.6c3.6,0,7.3,0,10.8,0
			c-2,1.2-3.8-0.4-6,0.2v0.1l4.9,0.8c0.9,0.1,1.5-0.6,2.1-1.1l6.8,0.1c0,0.1,0,0.1,0.1,0.1c0.1,0,0.1,0,0.1-0.1v-0.1
			c1.3,0,2.6,0,3.6,0C95.9,53.2,93.6,55.6,92.1,58.3z M112.6,47.7c1.4,0.4,3.1,0.4,4.4,0.9c-1.6,0.6-3.3,1-4.9,1.5H69.3
			c-0.3-0.6-0.2-1.1-0.1-1.8l0.3-0.1C84.6,48.1,97.8,47.9,112.6,47.7z M82.5,44.8h2.2c0.1,0.9-0.1,1.7-0.6,2.2
			c-0.6,0.1-1-0.4-1.3-0.8C82.6,45.8,82.4,45.4,82.5,44.8z M101.2,42.8c-0.2,1.3-0.3,3.1-0.9,4.4h-7.4c-0.4-0.4-1-0.6-1.4-1
			c-0.1,0.4,0.2,0.7,0.3,1.1l-4.8,0.1c-0.1-0.3,0.2-0.4,0.4-0.6c1.9-0.1,3.6-0.9,5-2.2l1.3-1.2c-1.5,0.2-2.9,0.9-4.6,0.9
			c-1.1,0.2-2.1-0.1-3.2-0.1c0.6-2.3,4.2-1.6,3.8-4.3c-0.4-1-1.5-1.7-2.4-2.3l-0.1,0.1c0.7,0.9,1.9,1.7,1.5,2.8
			c-0.5,0.7-1.3,1.2-2.2,1c-0.3-0.2-0.5-0.5-0.7-0.4c0.1,0.5,0.5,1.2,0.1,1.7c-0.5,0.7-1.4,0.8-2.2,0.7c-0.9-0.2-1.6-1-2-1.8
			c-0.2-0.6,0.1-1.3,0.2-1.8c-0.4,0.7-0.9,1.5-1.2,2.3c-0.4-0.1-0.8,0-1.1-0.3c0.6-1.3-0.3-3.7,1.8-3.8c0.2,0.3,0.3,0.6,0.6,0.9
			c1.5-2.9-0.3-6.1,0.7-9.1c-0.4-0.6-0.8-1.3-1.2-1.9c-0.8,0.4-1.5,2-2.5,1.2c-1.7-0.5-3.1-1.8-4.9-2.2c-1.7,0.4-3.5,0-4.4-1.4
			c-0.2,0.4,0.1,0.8,0.2,1.2c-0.3,0.5-0.9,1.2-0.2,1.7c1.5,2.4,4.1,3.9,6.9,3.5c0.8-0.2,1.5-0.5,2.2-0.9h2c0.3,1.2,0.4,2.3,0.6,3.6
			l0.3,2c-0.9,0.1-1.9,0.4-2.3,1.4c-0.5,1-0.5,2.2-0.7,3.3c-0.6,0.5-0.9,1.2-1.5,1.7l0.1,0.1l1.5-0.8c0.7,0.6,1.3,1.2,1.9,1.9
			c-2.2,0.5-5,0.5-7.1-0.3l-0.1,0.1c1.9,2.3,4.4,3.2,7.4,2.8l0.5,0.5c-3.7,0.2-7.6,0.2-11.5,0.2c0.4-1.1,1.7-2.1,1.1-3.4
			c-0.7-1-1.7-1.2-2.8-1c-0.3,0.1-0.6,0.3-0.9,0.6c-0.2-0.7-0.2-1.6-0.3-2.3c0.3-0.5,0.4-1.1,0.6-1.5c1,0.1,1.5,1.1,2.3,1.5v-0.2
			c-1.1-1.9-2.3-3.7-3-5.8c-1.4-4.6-2.5-9.2-3.4-14c0.4-1,1.2-1.7,1.8-2.6c4.4-1.7,8.3,1.1,11.7,3.5c2.3,2.1,4.4,5.2,7.2,6.7
			c1,0.7,0.9,1.9,1.2,2.9c0.6-0.2,1.1-0.4,1.7-0.5c0.7,2.9,2.5,6.1,5.8,6.6c2.6,0.2,4.9-1.4,6-3.7c0.9-2.2,0.9-4.3,0.5-6.6l2.3-1.5
			c0.5,3.1,1.6,7.6-1.4,9.8c-1.6,1.4-1.1,3.7-1.7,5.5c-0.2,0.4-0.2,0.9-0.2,1.3c1.4-1.1,1.7-2.7,1.6-4.5c0.1-0.2,0.4-0.5,0.7-0.4
			C100.2,39.6,101.5,41.2,101.2,42.8z M75.6,29.9c0.4-0.2,0.9-1,1.4-0.5c0.4,0.2,0.9,0.2,1.1,0.6c-1.3,1.4-3.3,1.2-5.1,1.1
			c-0.9-0.6-1.9-1.2-2.5-2.1l0.1-1.2h1.5c0.1,0.9,0.5,1.7,1.3,2.2C74.1,30.2,74.9,30.2,75.6,29.9z M74,27.8c0.2,0,0.5,0.1,0.6,0.3
			c0,0.3,0.1,0.7-0.3,0.9c-0.3,0-0.6,0-0.7-0.3C73.5,28.3,73.6,27.8,74,27.8z M75.1,28.9c0-0.1,0-0.2,0.1-0.2c0.2-0.1,0.5,0,0.4,0.3
			v0.2C75.4,29.3,75,29.3,75.1,28.9z M66.3,17.3c2.4-2.6,6.1-0.4,8.9-0.1c1.3,0.5,2.6,0.3,4,0.6c3.3,0.4,6.1,0.8,9.3,1.1
			c3.3,0.7,6.4,0.2,9.6,0.6c0.4,0.2,1.1,0.1,1.2,0.7c0.1,0.4,0.2,0.9,0.4,1.2c0.5-0.1,1.3-0.4,1.8,0c0.5,0.8,0.4,1.9,0,2.7
			c-1.4,2.3-4.1,3.2-6.2,4.5c-3.8,1.9-9.1,1.5-12.3-1.4c-4-3.8-7.8-8.2-12.8-9.4C69,17.3,67.4,17.3,66.3,17.3z M109.2,42
			c0,1.3-0.1,2.5-1.3,3.2c-2.1,0.7-3.9-1-5.2-2.6c-1.3-1.6-1.8-4-1.1-5.8c0.6-0.1,1.2,0.3,1.5,0.9c0.9,1.3,0.7,3.3,2.1,4.2
			c0.7,0,1.2-0.7,1.5-1.2c0.2-0.6,0.1-1.3-0.4-1.7c-1.5-0.4-0.5-2.1-0.9-3l0.1-0.7C107.3,37.2,108.5,39.6,109.2,42z M105.6,41
			c0.2-0.3,0.4-0.6,0.4-1.1c0.2,0.3,0,0.8-0.3,1.1H105.6z M108.2,24.9c-1.8,3-2.6,6.4-2.7,10.1l-0.7,0.2l-0.1,3.4
			c0.3,0.3,1,0.5,0.6,1.1c-0.2,0.3-0.1,0.7-0.4,0.9c-0.8-1.5-0.9-4-3-4.5c1.4-3.6,3.7-6.9,3.8-11.1c0.1-1.1,1.1-2,1.1-3.1
			c-0.6-0.4-1.4-0.1-2,0.3c-1,0.3-0.7,2.1-2,1.5c-0.4-0.5-0.2-1-0.1-1.6c0.5-1.5,2-0.5,3.1-0.7l1-1.4l0.3,0.1
			C108.2,21.4,109.1,23.1,108.2,24.9z M103.5,24.7c0.6-0.3,1.2-0.5,1.8-1c-0.5,1.2-0.9,2.7-1,4.2C103.9,26.8,103.7,25.8,103.5,24.7z
			 M105.1,20.8c0.1-0.2,0.3-0.2,0.5-0.3c-0.1,0.1-0.2,0.3-0.3,0.3H105.1z M105.8,20.2c-1.4,0.4-3.1,0.5-4.3-0.6
			c-2-2.2-4.4-4.2-7.3-4.3c1.5,1.1,3.3,1.9,4.5,3.5c-2-0.4-4.6,0-6.8-0.3l-15.6-1.7c-2.2-0.5-4.3-1.1-6.5-1.4
			c1.9-0.6,4.3-0.2,6.3-0.4L76,14.9c-2.1,0.1-4.3-0.9-6.2-0.1c-1.1,0.4-2.5,0.2-3.1,1.3c-0.9,0.4-1.2,1.8-2.4,1.7
			c-1.5,0.7-2.2,2.3-2.3,3.8c-1.5-0.2-3-1.3-3.4-2.8c0-0.8,0-1.7,0.3-2.4l3-2.4c1.6-0.2,3.2-0.6,4.8-0.9c-2.3,0.2-5-0.2-6.9,1.1
			c-0.4,0.1-0.7-0.2-1.1-0.2c-0.1-1.4,1.4-2.7,2.7-3.3c3.9-1.6,7.5-0.2,11.2-0.2c7.7,0.7,18.8-2.6,25.8,3.6l1.9,2.2
			c-0.1-0.8-0.6-1.6-1-2.3c-0.2-0.7-0.6-1.3-0.8-2.1c2.7-0.7,4.4,1.3,6.4,2.4c0.9,0.5,2.1,0.5,2.8,1.4
			C107.8,17.5,106.8,18.9,105.8,20.2z"/>
		<path fill="#720018" d="M80.2-5.5c0.3,0.1,0.8,0.4,1.1-0.1c0.1-0.5-0.1-1-0.4-1.3c-0.6-0.4-1.8-0.5-2.3,0.1
			C78.8-6.2,79.6-5.9,80.2-5.5z"/>
		<path fill="#720018" d="M86.5-5.3c0.5-0.2,1.2-0.5,1.2-1.2c-0.3-0.6-1.1-0.5-1.7-0.3c-0.5,0.3-0.9,0.8-0.6,1.3
			C85.8-5.3,86.2-5.2,86.5-5.3z"/>
		<path fill="#720018" d="M83.8-2.8l-0.4-0.4c-0.6-0.1-0.4,0.6-0.5,1l0.9-0.1V-2.8z"/>
		<rect x="81.2" y="-0.4" fill="#720018" width="4.2" height="0.3"/>
		<path fill="#720018" d="M124,11.5c2.2-0.6,3.4-2.9,4.4-4.6c-0.2-0.2-0.4-0.4-0.7-0.5L126.6,6c-4.8-0.5-10.2-0.5-14.4,1.2
			C115.3,10.7,119.5,13.1,124,11.5z"/>
		<path fill="#720018" d="M48.5,12.8c3.1-0.1,5.8-2.4,7.3-5l-1.4-0.1c-3.3,0-6.4-0.5-9.9-0.7c-1.5-0.2-2.8-0.3-4.1,0.4
			c-0.6,0.4-0.9,1.1-0.9,1.9C42.1,11.4,44.9,13.1,48.5,12.8z"/>
		<path fill="#720018" d="M85.2,21.9c-3-0.7-5.1-3.4-8.2-3.6c2.3,0.9,4.6,1.9,6.6,3.4C84.1,21.8,84.6,21.9,85.2,21.9z"/>
		<path fill="#720018" d="M85.2,21.9c0.5,0.1,1,0.2,1.6,0.2C86.2,22,85.7,22,85.2,21.9z"/>
		<path fill="#720018" d="M73.9,22.8c-1.5,0-2.1-1.6-3.4-2.1c-2.1-0.1-3.5,1.4-4.8,2.8c0.8,0.6,1.7,1.3,2.7,1.2
			c1.4-1.3,3.4-0.2,4.8,0.3l1.4,1.4c1,0.9,2.3,0.8,3.5,0.7C77.3,25,74.8,24.8,73.9,22.8z"/>
		<path fill="#720018" d="M88.2,28.6c1.9-0.1,3.8-0.5,5.7-0.8c1.1-0.3,1.5-1.4,2-2.2c1-0.9,2.5-0.2,3.5-1.1v-0.2
			c-0.7-0.7-1.3-2.1-2.7-2c-1.1,1.1-2.8,0.9-3.7,2.2C91.4,25.8,89.4,26.8,88.2,28.6z"/>
		<path fill="#720018" d="M82.5,25c1.5,0.3,2.4-0.7,3.5-1.3C84.5,23.5,83.6,24.6,82.5,25z"/>
		<path fill="#720018" d="M85.1,27.1L85.1,27.1c1.2-0.9,2.8-0.8,4.1-1.5c0.2-0.2,0.6-0.6,0.4-0.9C88.2,25.7,86,25.2,85.1,27.1z"/>
		<path fill="#720018" d="M73.2,34.1c1-0.4,2-0.8,2.8-1.5c-0.7,0.2-1.2,0.9-2,0.7c-0.9-0.1-2-0.3-2.8-0.4l0.1,0.3
			C71.6,34,72.4,34.1,73.2,34.1z"/>
		<path fill="#720018" d="M69.3,36.6c1.5,0.6,2.7-0.7,4-1.2h-0.4c-1.6,0.8-4.1-0.5-5.6,0.9C68,36.3,68.6,36.4,69.3,36.6z"/>
		<path fill="#720018" d="M73.3,41.6c-0.8,1.4-2,2.7-1.5,4.6c0.4-0.2,0.9-0.4,1-0.9c0.4-0.9,0-2,0.5-2.8c1.3-0.7,2.5-2.1,2.3-3.5
			C75.1,39.9,74.2,40.7,73.3,41.6z"/>
		<path fill="#720018" d="M50.8,49.6c4.1-0.1,8.2-0.3,12.3-0.5c0.1-0.1,0.1-0.2,0.1-0.3c-4.3,0.3-8,0.4-12.4,0.6V49.6z"/>
		<path fill="#720018" d="M85.6,53.8L84.7,54c-2.1,0.6-3.5-2.1-5.6-0.9c0.5,1.1,1.6,1.5,2.6,1.8c0.5,0.3,0.8,0.8,1.4,0.9
			c1.2-0.9,2.4-1.8,4-1.7c0.5-0.3,0.8-0.8,1-1.3C87.5,53.8,86.4,53.6,85.6,53.8z"/>
	</g>
</g>
</svg>
