<?xml version="1.0" encoding="utf-8"?>
<!-- Generator: Adobe Illustrator 19.1.0, SVG Export Plug-In . SVG Version: 6.00 Build 0)  -->
<!DOCTYPE svg PUBLIC "-//W3C//DTD SVG 1.1//EN" "http://www.w3.org/Graphics/SVG/1.1/DTD/svg11.dtd">
<svg version="1.1" xmlns="http://www.w3.org/2000/svg" xmlns:xlink="http://www.w3.org/1999/xlink" x="0px" y="0px"
	 viewBox="33 -33 100 100" enable-background="new 33 -33 100 100" xml:space="preserve">

<g id="AREA_1">
	<g>
		<path fill="#720018" d="M117.4,20l-0.1-0.3c0.2-9.1-0.5-16.9-2.5-25.2c-2.4-7.8-9.7-15-17.1-18.6c-8.7-3.4-19.1-5.8-28.9-3.7
			c-8,1.6-15,2.7-15,2.7c0.4,4.8,1.1,9.2,1.6,13.9c2.4,0,5-0.3,7.8-0.3c3.6-1.1,7.2-2.1,10.8-3.1c0.4,0.2,0.6,0.5,0.8,0.9
			c-0.1,0-0.1,0-0.2,0.1c-0.3,0.1-2.9,0.3-3.5,0.4c0,0-0.1,0-0.1,0c0,0,0,0,0,0v0c-0.3,0-0.6,0.2-0.9,0.4c-4.7,1.2-7.6,6.2-10.3,9.9
			c-3.2,1.4-6.3,4-8.2,7c-0.8,1.4-2.1,2.9-1.6,4.8c0.5,0.8,1.3,1.2,2.2,1.2l0.1,4.4l1.1,0.9l-0.9,0.9c-0.2,0.9-0.5,1.7-0.4,2.6
			c-1,0.3-1.7,1-2.5,1.7c-2.3,1.8-2.4,4.6-1.9,7.2c0.2,2.1,2.3,3.1,4.1,3.6c-0.8,1.2-1.9,2.3-2.8,3.4c-0.5,1.3-1.4-0.5-2.3-0.1
			c-2.3,0.7-4.9,2.1-5.2,4.9c0,2.6,0.4,5.2,2.8,6.7c-1,1.4-2.2,2.6-3.3,3.9c-0.7,1.3-0.6,2.8-0.6,4.3c-0.1,2.4,1.4,4.5,3.5,5.6
			c1.9,1.2,4.4,0.6,6.3-0.2c1.5,1.3,3.1,2.5,4.9,3.1c3.4,1.2,7.2,0.3,9.8-1.9c1.8-1.4,4.4-1.6,6.7-1.1c3.3,0.7,5.7-1,8.2-2.3
			l0.1-0.2c1.2,2.1,2.4,4.2,3.7,6.2c3-0.2,6.1-0.1,9.1-0.4l3.1-3.7c2-1.9,3.2-4.3,4.5-6.6c3.4,0.1,7.4,0.4,10.7-0.5
			c3.6-1.1,8.3-3.6,8.6-8c0-1.3-0.4-2.5-1.5-3.3c-1.7-1.7-4.6-0.5-6.2-2.3c-3.2-2-2.6-5.8-3.2-8.9c0.1-1.6,0.7-3.2,0.9-4.9
			c0.1-0.2,0.1-0.5,0.3-0.6c0.8,3,1.8,6,3.5,8.7c2,2.8,4,4.7,8.8,3.5C130.7,34.4,128,9,117.4,20z M57.7-13.1
			c-0.3-0.3-0.1-0.5-0.1-0.9c-0.3-1.2-0.4-2.6-0.5-3.8l5.3,0.3c0,1.5,0.4,2.9,0.6,4.3L57.7-13.1z M63.6-18.7c-0.2,0.1-0.4,0-0.6,0.1
			c-1-0.9-0.4-2.9-2.2-3c-1.5-0.5-3.6,0.3-4.4-1.4c3.6-0.7,7.4-1.1,11-1.8l-3.9,2.9V-18.7z M72.6-12c1.1-0.3,3.4,0.7,3.4,0.7
			c0.1-0.8-0.3-2,0.3-2.7c0.3-0.1,0.8-0.1,1.1,0.2c0.2,1,0,2.4,0.4,3.4c0.3-0.2,0.8-0.4,0.9-0.8c0.3-0.5-0.3-0.9-0.1-1.3
			c1,0.3,2.1,0.2,3,0.6c-0.6,1.6-2.4,2-3.7,2.8c-1.3,0.6-2.8,0-3.9-0.7c-0.6-0.6-1.6-1.2-1.7-2C72.5-11.9,72.6-11.9,72.6-12z
			 M67.9-10.2c0.7-0.3,1.4-1.1,2.3-0.8c2.8,1.1,5.2,4.7,8.5,2.9c1.4-0.5,2.7-1.6,3.8-2.8c3.4-0.5,6.3,0.2,8.8,2
			c5.8,3.1,11.1,8.6,12.5,14.9c0.8,2.7,2,5.1,1.9,8.2c-2.8-7.9-9.2-15.8-17.3-18.9c-5.7-2.7-13.5-3.7-19.8-1.5
			c-1.8,0.5-3.6,1-5.3,1.7C63.9-6.8,66.5-8.6,67.9-10.2z M100.4,30.5c-0.1,1.3,0.2,2.5,0.2,3.7c-2.1-1.4-3.4-3.8-2.8-6.2
			c0.9-3.7,2.4-7.3,5.4-10c1.1-0.5,2.2-2.1,3.5-0.8C103.2,20.9,101,25.4,100.4,30.5z M101.5,35.8V36c-2.1,3-3.5,6.3-5.4,9.4
			l-1.7,5.2c-0.6,0.1-1.1,0.2-1.7,0.3l-1.2-2.9c3.2-4.1,6.1-8.2,9-12.4C100.8,35.7,101.1,35.9,101.5,35.8z M78.9,22.4
			c0.3,0.5,0.2,1.1,0.1,1.6c-0.2,0.3-0.3,0.7-0.7,0.7c-1.1-0.7,0.1-2.4-1.4-2.7c-0.3-0.3-0.7-0.5-1.2-0.6c-1.5,0.9-1.7,2.8-1.9,4.4
			c-0.7-0.4-1.3-1.1-2-1.6c1.1-2,2.2-5,4.9-5.2c2,0,3.5,1.1,5.1,1.9c1.6,1,1.5,3.1,1.5,4.7L82,26.2c-0.5-1.6,0-3.9-2-4.6
			c-0.5-0.2-1.1-0.2-1.7-0.2C78.3,21.7,78.8,22,78.9,22.4z M75.4,11.1c-6-0.5-11.8,1.3-16.6,4.4c-1.2,0.9-2.3,1.5-3.5,2.3
			c-0.4,0-0.7,0.2-1.1,0.1c-0.4-0.3-0.3-0.7-0.3-1.2l0.5-0.9c5.2-3.4,10.8-5.9,17-6.7C77.6,9,83,11,88.2,13.2
			c4,1.8,7.7,4.6,11.3,7.5L98.7,22c-5.4-5-11.2-8.9-18.2-10.1C78.7,11.6,77.1,11.3,75.4,11.1z M53.8,9.2c1.2-2.5,3.5-4.7,5.5-6.3
			c4-4,9.6-4.3,14.9-5.2c5.2-0.7,9.6,1.8,14,3.5c6.5,2.4,11.5,8.9,14.6,14.9v0.2c-0.7,0.8-1.5,1.7-2.1,2.6
			c-5.7-3.3-11.1-7.7-17.6-9.2c-4-0.9-7.9-2.4-12.2-1.8c-5.7,0.7-11.9,3.5-16.7,6.3L53.8,9.2z M52.8,7.2c-0.3,0-0.6,0.2-0.9,0.1
			l-0.3-0.6C56.1-0.8,64.5-4.9,73.2-5.3C78.4-5.5,83.4-4.7,87.8-3c6.9,2.2,11.8,9.4,15.1,15.5l1.4,2.3c-0.2,0.2-0.5,0.2-0.8,0.2
			C101.2,9.7,96.8,4.5,91.7,1c-4.6-2.7-9.8-3.8-15.2-4.6c-7.4-0.6-13.5,2-19.2,5.9C55.6,3.7,54,5.5,52.8,7.2z M78.4,54.4
			c0.1,0.5,1.2,1.2,0.1,1.5c-1.9,1.4-4.2,2.6-6.7,1.9c-1.8-0.5-4-1.6-5.7-0.4c-3.3,1.6-6.6,3-10.6,2.8c-1.3-0.3-2.9-0.6-3.9-1.6
			c-1.3-0.9-0.8-2.5-0.9-3.9c-0.3-0.6-1-0.5-1.5-0.7c-0.7,0.8-1,2-0.7,3.1c0.3,0.6,0.5,1.1,0.8,1.7c-1.8,0-4,0.3-5-1.7
			c-1-1.7-1.6-4.3-0.4-6c1.8-2.5,4.3-4.5,7.5-3.9c2.4,0.3,4.8,1.2,7,1.5l0.2-0.2c0-0.8,0.1-1.4-0.4-2c-2-1.4-4.7-2.1-7.1-1.5
			c-1.3,0.1-2.8,0.8-4-0.1c-0.9-1.5-2.2-2.9-2.7-4.6c0-1.3,0.7-2.6,1.9-3.2c1-0.1,2.2-0.8,3.2-0.1c0.3,0.3,0.7,0.6,0.8,1
			c-0.4,0.8-2.4,1.4-1.1,2.4c0.7,0.9,1.8,0.1,2.6,0c1.8-0.2,3.6,0.1,5.4-0.3c1.7,0.3,3.2,1.2,4.9,1.9c1.3,1.2,2.7,2.7,4,4.1
			c0.8,1.2,1,3.2,2.8,3.5c0.7,0,1.4-0.4,1.6-1.1c0.6-1.9-0.5-3.6-1.7-5c-2.7-3.3-5.7-7.1-10.2-6.5c-2.2,0.4-4.7,0.3-7,0.2
			c-0.7-0.1-1.1-0.5-1.5-1.1l3.8-4.2c2.4,0.6,5.1,0.5,7.2,1.5c1.4,0.6,3.2,2.4,4.8,0.8c0.9-0.7,1.2-1.6,2-2.3
			c0.8,2.5,2.5,5.4,5.2,6.1c1.5,0.7,1.7,2.5,1.7,4c1.4-2,1.8-4.5,0.6-6.7c-1.2-2-4.4-0.6-5-3.2c-0.4-2.2-0.2-4.9-2.5-6
			c-0.8-0.4-1.6-0.5-2.5-0.4c0,1.2,1,2.2,0.7,3.6c-0.3,1-0.8,2.2-1.8,2.7c-3.1,0.5-5.1-2.3-8-2.4c-1.4-0.2-3.2,0.7-4.4-0.3
			c-1.1-1.1-1.6-2.4-2.4-3.7c-0.2-0.9-0.4-1.9,0.2-2.7c1.7-1.7,3.6-3,6.1-2.9c2.4-0.1,4.3,1,6.2,2.1c0-0.7-0.4-1.4-0.6-2
			c-0.5-0.7-1.2-1.4-1.7-2v-0.3c0.6-0.3,1.1-0.8,1.9-0.7c0.4,0.2,0.5,0.8,0.8,1.2c1.5-1.6,3.5-3.2,5.3-4.6c1.3-0.3,2.7-0.6,3.9-0.8
			c0.9-0.3,1.5-0.4,2.5-0.3l0.5,0.6c0.2,0.9-0.9,1.2-1.3,2c-0.4,1-0.8,2.1-1.3,3.1c-1.1,0.7-3.9-0.6-3.6,1.6
			c0.4,0.6,1.1,0.5,1.7,0.7c0.4,0.2,0.8,0.4,1.2,0.7c-0.6,1-1.4,2-2.1,3c1.4,2.2,3.9,3.4,6.1,4.3c2.3,0.9,5.1,0.6,7.1-0.7
			c1.1-0.3,2.3-0.5,3.4-0.5c-0.1-0.4-0.7-0.8-1-1.2c-0.7-1.8,0.9-3.9-0.7-5.5c-1.6-1.6-3.4-3.1-5.8-2.8c1.1-0.6,2.6-1.9,4.3-1.4
			c1.3,0.8,2.4,1.9,3.7,2.9c0.5-1.7-0.7-2.9-1.9-3.8c-0.8-0.5-1.6-1-2.6-1.1c0.4-0.4,1.2-0.6,1.8-0.5c1.3,0.6,2.4,1.5,3.8,1.8
			c1.4,1.1,3.8,1.2,4.1,3.4c0.2,0.9,0.6,1.6,1.1,2.4c1.3,0.1,2.5,0.8,3,2c-0.1,1.6-1.4,2.7-1.5,4.2c-0.6,1.3-2.4,2.2-2.6,3.7
			l3.3,1.9c-1.3,1.8-2.5,3.7-4,5.4c-2.6,2-4.4,5.4-7.6,5.9C81.3,47.9,79.8,51.2,78.4,54.4z M85.2,59.3c-0.2,0.2-0.3,0.5-0.5,0.7
			l-3.8-5.9c0.6-1.5,1.2-3,2-4.4c1.3,2.4,2.6,4.8,3.8,7.3C86.4,57.9,85.7,58.5,85.2,59.3z M99.6,48.1l-1.3,4l-2.9,4.6
			c-2.2,0.1-4.4-0.2-6.7-0.3c-1.5-3.4-3.1-6.8-4.4-10.2c1.1-0.7,2.3-1.3,3.4-2l5.4-5.4l4.2-5.7c0.2,0.6,1.1,1.1,1.1,1.6
			c-2.9,4.1-5.3,8.3-9.1,12.1l1.5,5.7c0.3,0.2,0.6,0.1,0.9,0l3.9-0.3c0.9-2.4,1.8-4.8,2.9-7.1l3.4-6.3
			C101.1,41.9,100.9,45.2,99.6,48.1z M112.4,44.9c0.7-0.5,1.8-0.8,2.6-0.3c0.4,0.4,0.2,0.8,0.1,1.2l-2.7,2.1c-3.5,1.1-7,2.1-11,1.3
			l0.3-1.4c0,0.1,0.1,0.2,0.2,0.3C105.8,48.7,110.1,48.3,112.4,44.9z M111.1,42.6c1.2-0.4,2.4-1.2,3.9-0.9c1.3,0.4,3.1,0.5,3.3,2.2
			c0.3,1.5-0.5,2.7-1.4,3.7c-4.1,3.3-9.3,4.6-14.7,4.2l-1.5-0.5c0.1-0.3,0.1-0.6,0.3-0.8l4.9,0.2c3.9-1.1,8.7-1.1,10.9-5.2
			c0.1-0.5,0.3-0.8,0-1.3c-2.7-2.5-5.8,0.3-8.7,0.4c-1.9,0.1-3.7-0.3-5.5-0.6c-0.2-0.2,0.1-0.4,0.1-0.6
			C105.4,44,108.4,42.9,111.1,42.6z M110.7,40.8c-2.1-0.5-3.6,1.3-5.6,1.1c-0.5,0-1.3,0-2-0.2c0.2-2.1,0.8-4.2,1.2-6.3
			c1.1-0.5,2-1.4,2.6-2.4C107.5,35.9,108.4,38.6,110.7,40.8z M105.5,28.2c-0.5-0.5,0-1.3,0.2-1.9c0.3-0.4,1-1.6,1.4-0.7
			C107,26.7,106.6,27.9,105.5,28.2z M109.1,22.8c0-0.5-0.4-1-0.8-1.2c-1-0.2-1.7,0.7-2.2,1.4c-1.5,2.2-2.2,4.8-2.1,7.6
			c0.1,0.4,0.3,0.9,0.7,1.1c0.5,0.1,0.9-0.1,1.3-0.3c-0.6,1.1-1.6,3.2-3.3,3.1c-1-1.9-0.3-4.2,0.1-6.2c0.9-3.6,2.3-7.1,5.1-9.7
			c0.4-0.2,1.2-0.5,1.3,0.2C109.3,20.1,109.5,21.5,109.1,22.8z M109.3,17.2l-2-1.2c-0.2-9.5-3.3-18.5-11.3-24c-4-2.6-8-5.1-13.3-4.6
			l-0.6-0.9l-3.5,0.1l-0.9-1.7c5.6-0.8,10.6,0.9,15.4,2.7c7.5,2.9,12.9,10.5,15.4,17.6C109.6,8.8,109.7,13.2,109.3,17.2z
			 M123.3,33.3c-0.7,1.3-2,1.9-3.4,1.8c-2.9,0-5.4-2.6-6.6-5.1c-3.8-8.2-0.6-18.2-3.9-26.7c-0.8-2.7-1.9-5.4-3.6-7.7
			c-5.5-8.2-14.5-12-23.8-13.1c-2.3,0-4.4,0.2-6.8,0.5c-3.2,0.9-6.5,1.9-9.7,2.8v-3.4c2.8-0.7,5.3-1.1,8.1-1.9c1.2-3,0.3-6.1-2-8.2
			l2.1-0.3c2.4,2.1,3.1,5.3,2.6,8.3h6c0.9-2.5,0.7-5.6-0.3-7.9c0.5-0.2,0.7,0.1,1.2,0.1c0.2,0.1,0.4,0.2,0.7,0.1
			c0.8,2.5,1.3,5.3,1,8.2c0.3,0.3,0.8,0.2,1.2,0.3c1.1,0.3,2.4,0.4,3.7,0.7c1.7-1.6,2.8-3.9,2.1-6.2l-0.4-1.2
			c0.8,0.2,1.8,0.4,2.6,0.7c0.4,2.7-0.1,5.3-1.2,7.5c2,1,3.9,2.1,5.9,3.1c1.3-2.3,2.2-5,1.9-7.5l1.9,1.4c0.5,2.2-1.4,5.8-2.2,7.6
			l3.7,3.7c2.3-1.2,3.8-3.6,4.3-6c0.4,0.4,0.9,1,1.4,1.6c-0.8,2.3-2.3,4.5-4.4,6.1v0.2l3,4.7c1.5-0.3,3.1-0.9,4.1-2.4
			c0.4-0.8,0.8-1.5,1.1-2.4c0.4,0.9,0.7,1.8,0.9,2.8c-1.2,1.6-2.9,3.1-4.8,3.3l-0.1,0.1c0.4,2,1.1,3.8,1.5,5.7
			c1.6-0.3,3.2-1,4.7-1.9c0.3,0.7,0.2,1.6,0.4,2.4c-1.5,0.5-3.1,0.8-4.4,1.6c0.3,1.5,0.6,3.4,0.9,5.1c1.3-0.2,2.6-0.8,4-1.3v2.8
			c-0.6,0.2-1.3,0.3-1.8,0.4c-0.6,0.3-1.3,0.2-1.9,0.5c0.1,5.5,0.4,10.4,2.1,15.4c0.8,1.8,2.8,3.6,4.9,3.9c1.2,0.2,2.4-0.1,3.1-1.2
			c1.3-1.7,1.8-4.6,0.6-6.5c-0.4-0.6-1-1-1.7-1.2c-0.8-0.2-1.8,0.1-2.5,0.6c-0.9,0.8-0.7,2.4-0.4,3.5c0.4,0.5,0.9,0.9,1.6,1
			c0.6,0,1-0.6,1.4-1.1c-0.5-0.3-1.5-0.2-1.9-1c-0.2-0.5,0-1,0.4-1.2c0.4-0.2,1-0.2,1.5-0.1c1.1,0.8,1.2,2.4,0.8,3.7
			c-0.3,1-1.3,1.8-2.3,1.9c-1.3,0-2.4-0.5-3.2-1.6c-0.9-2.2-1.7-4.5-2.3-6.9c0.1-1.3-0.3-2.6,1-3.4l0.7-0.9l0.4,2.1
			c-0.6,0.9-0.9,2.2-0.7,3.3l3.3-0.6c0.6-1.1,0.7-2.4,1.1-3.5c0.6-0.6,1.5-0.5,2.3-0.8l-0.7-1.3c1.1,0.6,1.6,1.8,2.2,2.8
			c-0.3,0.2-0.7,0.3-1,0.7c0.2,1.4,1.5,2.2,1.7,3.5C125.7,28.3,124.5,30.9,123.3,33.3z"/>
		<path fill="#720018" d="M76.6,6.5l1.1-0.5l0.4-6l-6.4-0.8v7l0.1,0L76.6,6.5z M72.5,0c1.7,0,3,0.5,4.7,0.5c0,1.6-0.2,3.3-0.2,5
			c-0.7,0.6-1.7,0.1-2.5,0.2c-0.6-0.1-1.3,0-2-0.2V0z"/>
		<path fill="#720018" d="M68.4,6.7l0.1,0l0-0.1l-0.1-6.6L68.2,0c-1.6,0.5-3.2,0.7-4.8,1.2l-0.1,0v6l0.2,0C65,7,66.7,6.9,68.4,6.7z
			 M64.1,1.8c1.1-0.4,2.4-0.6,3.6-0.9v5.2l-3.6,0.3V1.8z"/>
		<path fill="#720018" d="M85.3,9l0.1,0l0-0.1c0.6-2,1.6-4,2.1-6l0-0.1l-0.1,0c-2-0.8-4-1.8-6-2.5l-0.2-0.1l-1.5,6.7l0.1,0
			C81.7,7.5,83.4,8.5,85.3,9z M81.8,1.1c1.6,0.7,3.2,1.3,4.8,2v0.4l-1.7,4.6h-0.2l-4-1.7C80.9,4.7,81.5,2.9,81.8,1.1z"/>
		<path fill="#720018" d="M62,8.7L62,8.7L62,8.6V1.9l-0.3-0.1l-4,4v4.8l0.2-0.1C59.4,10,60.7,9.4,62,8.7z M61.2,3.4l0.1,4.8
			c-0.8,0.6-1.8,0.8-2.7,1.2l-0.1-3.3L61.2,3.4z"/>
		<path fill="#720018" d="M92.4,12.6l0.1,0.1l2.8-4.5l-0.1-0.1c-1.7-1.3-3.4-3-5-4.1L90,3.9l-2.4,6.1l0.1,0.1
			C89.3,10.9,90.7,11.8,92.4,12.6z M90.3,5.1c1.3,1,2.7,2.1,4,3.2v0.3c-0.7,1.1-1.4,2.1-2.1,3.2c-1.2-0.7-2.4-1.4-3.6-2.2L90.3,5.1z
			"/>
		<path fill="#720018" d="M94.3,13.7l0.1,0.1c0.9,0.8,1.9,1.3,2.8,2l0,0l0.4,0.1l2.3-2.3l-0.1-0.1c-0.7-1.3-1.8-2.4-2.7-3.5L97,9.8
			L96.9,10c-0.9,1.2-1.8,2.3-2.6,3.6L94.3,13.7z M97.1,11.1c0.6,0.7,1.4,1.6,1.9,2.5L97.4,15l-2.2-1.5L97.1,11.1z"/>
		<path fill="#720018" d="M86.4,37.3c0.4-0.4,1.3-0.8,0.9-1.5c-0.3,0-0.4,0-0.7-0.1c-0.7,0.1-1.6,0.3-2.4,0.4
			c-1.4,0.1-2,1.6-2.4,2.7c-0.4,1-1.4,1.7-1.1,2.9c0.1,0.3,0.5,0.6,0.7,0.8c0.3,0.2,0.6,0,0.7-0.2C82.9,40.3,84.3,38.2,86.4,37.3z"
			/>
		<path fill="#720018" d="M73.1,50.8c-1.2,1-2.2,2-3.5,3c-0.2,0.4,0.3,0.5,0.5,0.6c1.3,0.2,2.6,0.1,3.5-0.8c0.5-0.5,0.3-1.5,0.2-2.1
			C73.6,51.3,73.6,50.7,73.1,50.8z"/>
		<path fill="#720018" d="M54.8,12.4l1.6-1l0-4.7l-2.1,2.5l0.2,3.4L54.8,12.4z M56,7.9l0,3.3l-1.1,0.6l-0.1-2.5L56,7.9z"/>
	</g>
</g>
</svg>
