<?xml version="1.0" encoding="utf-8"?>
<!-- Generator: Adobe Illustrator 19.1.0, SVG Export Plug-In . SVG Version: 6.00 Build 0)  -->
<!DOCTYPE svg PUBLIC "-//W3C//DTD SVG 1.1//EN" "http://www.w3.org/Graphics/SVG/1.1/DTD/svg11.dtd">
<svg version="1.1" xmlns="http://www.w3.org/2000/svg" xmlns:xlink="http://www.w3.org/1999/xlink" x="0px" y="0px"
	 viewBox="33 -33 100 100" enable-background="new 33 -33 100 100" xml:space="preserve">

<g id="AREA_1">
	<path fill="#720018" d="M125.6,0.6c0-0.9-0.9-0.6-1.4-0.9c-0.1,0.2,0,0.3,0.1,0.4c0.6,0.3,0.5,0.8,0.5,1.3
		c-0.6-0.2-0.4-0.8-0.7-1.2c0-0.4-0.8-0.1-0.7-0.6c0.1-0.1,0.2,0,0.4-0.1c0-0.5,0.4-0.6,0.2-1.2c-0.1-0.4-0.9-0.7-0.1-0.9
		c0.2-1.1-1.1-0.1-0.6-1.1c-0.3-0.2-0.6-0.1-0.9,0.1c-0.2-0.4,0-1,0.2-1.2c0.1,0,0.1,0.1,0.1,0.1c0.2-0.1,0.7,0,0.5-0.3
		c-0.3-0.3-0.7-0.1-0.9,0.1c-1.1-0.5,0.7-0.1,0.4-0.9c-0.4-1.1-1.2-0.1-1.8-0.5C120-5.8,120.2-7,119.4-7c0.1-0.3,0.4,0,0.6-0.1
		c0.3-1-1-0.4-1-1.3c-1.6-1.1-1.7,1.7-3.1,1.1c0,0.2,0.1,0.6-0.3,0.7c-0.1-0.2-0.3-0.3-0.1-0.4c-0.2-0.3-0.6-0.2-0.7,0
		c-0.9,0-1.9-0.5-2.9,0c-0.1,1-1.1,1.5-2.1,1.4c0.1,0.4-0.5,1,0.2,1.1c1.1-0.5-0.3,1.2,0.8,1.4c-0.7,0.4-1.5,0-1.9,0.8
		c-1-0.3,0,1-0.8,0.7c-0.6-0.2-0.9,0.4-1.3,0.8c0.1,0.6,0.6,0.2,0.8,0.8c0.1,0.2,0,0.3-0.2,0.4c-0.1,0-0.3-0.1-0.4-0.2
		c-0.4,0.3-1.3,0.4-1.9,0.5c-0.3,0-0.4-0.3-0.1-0.4c0.2-0.4,0.6-1.4-0.1-1.3c0.3-0.6-0.5-1,0.3-1.4c0.3-0.7,0.1-1.5-0.4-2
		c0.1-0.5,0.3-0.9,0.4-1.4c0.3-0.5-1.1-1.3-0.1-1.3c0.2-0.4-0.6-0.5-0.7-0.8c-0.1-0.6,0.3-0.4,0.7-0.8c0.8-1,0.3-2.7-0.2-3.7
		c-1.6-1.1,0.9-1.4,0.7-2.5c0.2-0.6-0.4-0.7-0.4-1.3c0.6-0.7-0.8-0.9-0.3-1.6c0.5-0.7,0-1.7-0.2-2.6c-0.4-0.1-0.6,0-0.9,0.4
		c-0.8,0-0.6-0.9-1.1-1.3c-1.3-0.6-0.8-1.8-1.4-3c-0.5,0.2-0.8-0.5-1.2-0.4c-0.4,0.4-1.1-0.2-1.2,0.6c-0.3-0.1-0.8,0.2-0.7-0.3
		c-0.3-0.4-0.8-0.9-1.2-0.2c-0.9,0.3-0.1-0.5-0.7-0.9c-0.5-0.6-1.3-0.2-1.9-0.1c0.2,0.8-0.9,0.9-1.3,1.2c-0.2,0.7-0.7-0.3-1.3,0.2
		c0,0.3-0.6,0.4-0.2,0.7c-0.4,0.7-0.4,1.7-1.4,1.7c-0.5-0.8-0.2,0.7-0.8,0.4c-0.3,0.5,0.1,0.7,0.2,1c-0.6,0.2-0.1,0.9-0.7,1
		c-0.4-0.4-1.1,0.3-1.5-0.2c-0.3,0.2-0.4,0.5-0.5,0.8c0.9,0,0.3,0.9,0.4,1.4c-0.7,0-1.2,0.4-1.9,0c-0.2,0.3-1-0.1-0.7,0.4
		c0,0.4-0.2,1,0.4,0.9c0.2,1.4-1.4,1.5-2.1,2.5c-0.4,0.7,0.7,0.4,0.4,0.9c-0.2,0.2-0.2,0.7-0.6,0.5c0.5,0.3-0.7,1.1,0.3,1.1
		c-0.4,0.4,0,1.3-0.6,1.3c0.2,0.7,0.8,1.8-0.5,1.8c0.1,0.2-0.5,0.6,0,0.8c-0.2,0.7,0.2,1.5,0.3,2c-0.3,0.2-0.5,0.3-0.9,0.2
		C81.2-6,80.9-6.9,81.5-7c-0.2-0.8-1.1-0.3-1.3-0.9c-0.9-0.5,0.3-1.3-0.7-1.9c0.6-0.3-0.8-1.3,0.2-1.1c0.3-0.5-0.5-0.6-0.5-0.9
		c-0.4-0.2-0.1-0.8-0.4-1.1c0.2-0.6-0.1-1.1,0.1-1.7c-0.5-0.8-0.2-1.8-0.9-2.5c0.6-0.5-0.5-0.7-0.2-1.3c0.2-0.2,0.6-0.3,0.4-0.6
		c-0.1-0.3-0.4-0.1-0.5,0c-0.8,0.2-0.7-0.8-0.8-1.1c-0.2-0.6-1-0.4-0.8-1.1c-0.5-0.5-0.6-1.2-1.4-1.5c-0.3,0.4-0.6-0.3-0.8,0.3
		c-0.1,0,0,0.5-0.3,0.4c-0.5-0.2-0.8-0.7-1.2-0.9c-0.6-0.2-0.9,0.4-1.1,0.8c-0.8,0.8-0.8-0.7-1.2-0.9c-0.5-0.3-1.2-0.2-1.8,0
		c-0.8,0.6-0.4,1.7-0.7,2.3c-0.8,0.3-1.2-1.3-2.2-0.6c-0.1,0.3-0.3,0.7-0.2,1c-1.3,0,0.2,1.6-1.3,1.2c-0.8,0.4,0,1-0.3,1.6
		c-0.7,0.3-1.3,0.4-1.9-0.1c-0.8,0-1.3,0.7-0.5,1.2c-0.3,0.7,0.3,1.3,0.2,2.1c-0.3,1.2-1.7-0.1-1.9,1.3c-0.4,1.1,1,0,1,0.3
		c-0.9,0.5-0.4,1.4-0.1,2.1c-0.5,0.5-1.3,0.1-1.7,0.7c0,0.3-0.5,0.5-0.2,0.8c0.4,0.2,0.4-0.2,0.6-0.3c-0.8,1.5,1.7,2.6,0.4,4.1
		c-0.8,1.2,1.2,1.3,1,2.4c0.4,0.3-0.1,1,0.6,1c0.5,0.3,0.1,1,0,1.4c0.6,0.3,0.2,1,0.3,1.5c0.1,0.4-0.1,0.9-0.6,0.8
		c-0.2,0.4-0.5,0.8-0.1,1.2c-1.4,1.4,0.9,1,0.5,2.4c-2.2,0.9-0.7-2.1-1.8-2.6c0.1-0.2,0.6-0.3,0.2-0.5c-0.4-0.2-0.7-0.8,0-0.8
		c0-0.4-0.3-0.7-0.6-0.5c0-0.1,0.1-0.2,0.2-0.3c-0.7-0.3-1.4-0.3-1.9-0.6c0.7-0.7-0.8-0.2-0.6-1.1c-0.1,0.1-0.3-0.1-0.3,0.2
		c-0.1,0.2-0.2,0.1-0.2-0.1C56-1.6,55-1.3,54.4-1.5c-1.1-0.2-0.5,1.4-1.6,1.1c-0.6-0.6,0.5-0.2,0.4-0.5c-0.7-0.7-1.6,0.1-2.5-0.1
		c-0.2,0.3-0.9,0.1-0.5,0.5c-0.3,0-0.7,0.3-0.9,0c-0.2,0.8-1.9,0.3-1.4,1.4c-0.7,0.4,0,0.8,0.3,0.9c0,1-1,0.5-1.4,0.9
		c-0.6-0.3-0.5,0.5-1,0.4c-0.4,0.4-1,0.9-1,1.5c-1-0.1,0.1,1.1-0.9,0.4c0.3,1-0.6-0.2-0.6,0.6c0.7,0.5-0.6,1.1,0.4,1.5
		C43,7.2,42.7,8,42,8c-0.3,0.9-1.6,0.6-1.8,1.7c-1.2,0.1,0.4,0.1,0,0.7c0.5,0.2,0.2-0.5,0.5-0.6c0.9,0.5-0.4,0.6-0.3,1.2
		c0.3,1.2-1,1.8-1,2.9c-0.1,0.2-0.3,0.5-0.4,0.1c-0.2,0.1-0.4-0.2-0.4,0.2c0.2,0.1,0.3,0.4,0.6,0.3c0,0.3,0,0.7-0.3,0.9
		c-0.3,0.8,0.4,1.3,0.7,1.9c-1.1,0.2,0.5,1.1-0.7,1.1c0.2,0.1,0.2,0.3,0.3,0.4c0,0.2,0,0.9-0.4,0.7c-0.3,0.8,0.1,1.4,0.4,2.1
		c-1,1.3,0.8,1.7,1,2.8c0.1,1,0.5,1.3,0.2,2.5c0.1,0.1,0.3,0.2,0.5,0.3c0.2-0.3,0.6-0.3,0.7-0.7c0.3,0.6,1.2,1.2,0.6,1.9
		c-0.1,0.4,0.4,0.7,0.7,0.9c0.6,0.2,0.5-0.6,1-0.6c0.9,0.9-0.9,0.6-1.2,1.1c0.1,0.2,0.3,0.5,0.1,0.7c1,0.5,1.7,0,2.6,0.2
		c-0.2-0.6,0.7-0.5,0.7-1.1c0.5-0.5,0.9,0,0.8,0.5c-0.8-0.4-0.7,0.4-1.2,0.7c-0.1,0.5,0.4,0.6,0.6,0.8c0.5-0.4,1.1-0.5,1.9-0.4
		c0.4,0.3,0.3,0.7,0.6,1c1.3,0.3,1.1-1.6,2.2-1.5c0.3,0.6-0.7,0.8-0.5,1.3c0.3,0.3,0.8,0.5,1.2,0.3c0.3-0.1,0.4,0.3,0.3,0.6
		c0.5,0,0.4,1.7,0.9,0.5c0.5-0.1,0.5,0.2,1,0.4c0.2,0,0.6,0,0.6-0.3c1.1-0.6,2-1.2,2.6-2.4c0.2,0.1,0.5,0.1,0.7-0.1
		c-0.1-0.4-0.2-0.9-0.7-1.1c0-0.4,0.4-0.2,0.5-0.4c0-1.2,0.8-0.1,1.4-0.5c0.3-0.3,0.2-0.7,0.1-1.1c0-0.8,0.2-1.3,1-1.6
		c0.2,0.1,0.4,0,0.5,0.2c0.1,0.1,0,0.2-0.1,0.2c0,0.4-0.2,0.9,0.3,1.3c0.4,0,0.9-0.1,0.9-0.5c0.2,0.7-0.5,0.9-0.6,1.5
		c-0.5,0.1-1.4-0.7-1.8-0.1c-0.2,0.5-0.2,0.7,0.2,1.1c-0.2,0.1-0.4-0.1-0.5-0.2c-0.8,0.2,0.3,0.5,0.4,0.8c0.5,1.6-2.5-0.2-1.3,1.5
		c0,0.2-0.2,0.1-0.4,0c0,0-0.1-0.1,0-0.1c-0.4-0.5-0.6,0.3-0.6,0.5c-0.5,0.1-0.7,0.4-1.2,0.5c-0.7,1.1,1.1,0,1.3,1
		c0,0.6-0.4,0.4-0.8,0.6c-0.2-0.7-0.9-0.1-1.3-0.1c-0.4,0.6-1.4,0.6-1.2,1.6c0.2,0.8,0.4-0.2,0.7-0.1c0.3,0.2,0,0.5-0.1,0.7
		c-0.5,0.3-0.5,1.5-1.2,1c-0.6,0.6,0.2,0.8,0.5,0.7c0.5,0.3-0.1,0.6-0.4,0.7c-0.4,1.1,1.8,1.4,0.5,2.3c0.2,0.5-0.3,0.3-0.4,0.7
		c-1-0.1-0.2,1.1-0.1,1.4c-0.9,1.5,1.4,1.5,1.8,2.5c0.4,0.7-0.2,1.3,0.2,2c0.3,0.5,1,0.2,1.3,0.3c-1.2,0.7,0.5,1.3-0.1,2.1
		c0,0.3,0.1,0.8,0.5,0.6c0.4,0.7,1,0.1,1.5-0.1c0.2,0.4,0.5,0.6,0.9,0.5c0.9,0.9,1.4,2.2,2.7,2.3c0.3,1,1.2-0.2,1.5,0.8
		c0.5-0.2,0.3,0.8,0.6,0.7c-0.1-1.1,0.7-0.1,1,0c0.1,0.2,0.6,0.1,0.6,0.3c-0.4,0.1-0.7,0.5-0.5,0.9c0.3,0.4,0.8,0.9,1.2,0.7
		c0.3,0.5,0.8-0.4,1.2,0.1c0.8,0,1,0.7,1.4,1.3c0.7,0.3,1-0.6,1.4-0.9c1.5,0.6,3,0.7,4.6,1.3c0.1,0.2-0.1,0.3,0,0.5
		c0.4-0.9,1.4,0,2-0.7c0.7,0.1,1.3-0.4,1.9-0.7c0.8,0.6,0.3-0.7,1.1-0.2c0.2,0.6,0.7,1,1.2,1.1c0.7-0.1,1.6,0.1,2.2-0.6
		c0.2,0.6,0.7,0.6,1.2,0.7c0.2-0.3,0.6-0.5,0.9-0.4c0.9-0.2,0.3-1.3,1.2-1.4c0.6,0.5,1.1,0.6,1.7,1.1c0.8,0.4,1.4-0.8,2-0.9
		c0.1,0.1,0.5-0.2,0.4-0.4c0.3-0.4,0.5,0.1,0.8,0.2c0.3-0.2,1.1,0,1.1-0.2c0.6-0.2,1.3-1.3,1.8-0.4c0.8,0.3,1.5-0.7,2-0.8
		c1-0.4-0.1-0.8,0.1-1.4c0.2-0.1,0.5,0,0.6-0.3c1-0.2,1.1-1.1,2.1-1.3c0.1,0,0.4,0.1,0.4-0.1c0.1-0.3,0.4,0,0.7,0
		c0.1-0.6,0.7-0.5,1-1c-0.2,1.1,1,0.7,1.5,1.1c1.2-0.5,0.9-1.8,1.2-2.6c0.4,0,0.3-0.7,0.7-0.2c0.2-0.2,1.4,0,1.1-0.9
		c0.9,0-0.1-0.9,0.2-1.2c0.8,0.1,1-0.6,1.6-1.1c0.6,0.1,0.2-0.9,0.7-1.1c0.1-0.5,0.4-0.9,0.2-1.4c0.3-0.3,0.6-0.6,1-0.4
		c0-0.5,0.3-1-0.3-1.4c0.2-0.5,0-1.1,0.5-1.5c0.2-0.6-0.8-1.1-0.3-1.6c0.3,0,0.6-0.4,1.1-0.3c0.1-0.3,0.5-0.7,0.5-1.2
		c-1-1-0.1-2.5-1-3.2c-0.6-0.6-0.1-1.5-0.9-1.9c0.2-1-1-1.5,0.1-2.3c-0.1-0.2,0-0.4-0.3-0.4c-0.5,0.4,0-0.6-0.6-0.3
		c-0.3,0.6-1.1,0.4-1.6,0.1c-0.4,0-0.3-0.7-0.3-1c0-0.3-0.8-0.5-0.3-0.8c0.3,0.6,1.4,0.3,1.6,0.9c0.3,0.5,0.9,0.2,1.3,0.2
		c0.9-0.5,1,0.9,1.5,1c0.3,0,1.3-0.2,0.9-0.8c0.3-0.5,0.5,0.2,0.9-0.2c0.5,0.6,1.3,1.1,2.3,1.3c0.8-0.3,0.1-1,0.7-1.3
		c0.3-0.1,0.3,0.3,0.5,0.4c0.4,0.5,0.9-0.1,1-0.5c-0.8-1.6,1.3-0.5,1.6-1.5c-0.1-0.2,0-0.6,0.3-0.6c0.7,0,1-0.6,1.4-1.1
		c-0.6-1,0.5-1.2,0.8-1.9c0.2-0.7-0.4-1.7,0.1-2.4c0.5,0.2,0.1-0.9,0.9-0.8c0.3-0.4,0-0.8-0.1-1.3c0-0.3-0.8-0.3-0.1-0.4
		c0.1-0.2,0-0.4-0.1-0.5c0.7-0.3-0.2-1.1,0.2-1.5c0.6,0.5,0.8-0.3,1.2-0.5c0.2-0.8-0.7-0.7-0.7-1.4c0.8-0.8-0.2-1.8,0.2-2.7
		c0.3-0.5,0.9-0.7,1.2-1.2c0-0.6-0.7-0.4-0.9-0.9c-0.1-0.5,0.7-0.3,0.8-0.7c-0.1-0.9-0.7,0.3-1-0.4c0.1-0.5,0.4,0.1,0.6-0.2
		c0.1-0.5-0.1-1-0.3-1.5c0.5,0.2,0.5-0.6,0.8-0.7c-1.1-1,0.9-1.4,0.8-1.9C124.8,4,124.4,3.8,124,4c-0.2-0.2,0.1-0.2,0-0.4
		c0.2-0.1,0.7-0.2,0.8,0c1.7,0-1-0.7,0.5-1c-0.1-0.4,0-0.9-0.3-1.2C125,1.1,125.5,1,125.6,0.6z M73.8,13.9c-0.3,0.2-1.1,0.3-0.9,1
		c-0.4-0.2-0.5,0.4-0.4,0.6c0.1,0.3,0.4,0.5,0.7,0.3c-0.2,0.6-1.1,0-1.6,0.1c0.1-0.1,0-0.3-0.1-0.4c-0.2-0.1-0.4,0.1-0.4,0.2
		c-0.2,0.7-0.4,1.5-1.2,1.8c-0.2,0.1-0.8-0.2-0.8,0.3c0.3,0.6-0.6-0.1-0.6,0.5c0.7,0.8-0.9,1,0.2,1.5c0.2-0.1,0.3-0.4,0.6-0.6
		c0.1,0.4-0.6,0.5-0.5,1c-0.6,0-1.1,0-1.7,0.1c0.6,1-1.8-0.1-0.6,1.1c0.4,0,0.3,0,0.8,0c-0.2,0.5-1.4,0.1-1.3,1.1
		c0.2,0.3,0.7,0.6,0.9,0.1c-0.4,0.8,0.1,2-1.2,1.9c-0.3,0.1-0.5-0.1-0.9,0.2c0.1,0.5-0.4,0.6-0.7,0.9c-0.4,0.6-1.6-0.5-1.3,0.6
		c-0.3-0.2-0.7,0.2-0.9,0.2c0,0.1-0.2-1.1,0.3-0.3c0.4-0.4,1-0.6,0.8-1.3c0.8,0.2,0.6-0.8,0.7-1.2c-0.3-0.3,0.3-0.3,0.4-0.4
		c0.7-1.1-0.3-2.4,0.1-3.7c0.2-0.4-0.5-1,0.1-1.3c-0.3-0.3,0.2-0.5,0-0.8c-0.2-0.4-0.6-0.9-0.1-1.2c-0.7-0.9,1-0.9-0.1-1.6
		c-0.3-0.1-0.5,0.2-0.6,0.4c0,0.1,0.1,0.4,0,0.2c-0.1-0.1,0.2-0.6,0.3-0.9c0.1-0.5,0-1.1-0.3-1.4c0.2-0.3,1,0,1.4-0.4
		c-0.1-0.5-0.7-0.2-1-0.3c-0.3,0.2-0.2,0.1-0.5-0.1c0.1-0.6,0.8-0.7,0.6-1.3c0-0.2-0.9-0.6,0-0.4c0.2-0.1,0.1-0.3,0.2-0.4
		C64,9.9,64,9.7,63.8,9.7c-0.6,0.4,0,0,0-0.1C63.9,9.3,63.7,9,63.4,9C62.9,9,62,9.3,62.1,8.4c-0.1-0.2-0.2-0.9-0.5-1.3
		c0.1-0.2-0.1-0.6,0.2-0.6c0.8,0.4,0.7,1.5,1.8,1.4c-0.1,0.2-0.1,0.6,0,0.8c0.1,0.6,1.9,0,1,0.8c0.3,0.5,0.8,1.2,1.4,0.9
		c0.5,0,1-0.4,1,0.4c0.7,0.6,0.7,2.3,2.2,1.5c0-0.5,0.5-0.2,0.6-0.6c0.7,0.3,1.1,1.6,2,1.3c0.5-0.3,0.8-1.6,1.5-1
		C74.6,12.9,72.8,12.9,73.8,13.9z M90,9.2c-0.2,0-0.3,0.1-0.4,0.2c-0.1-0.3-0.3-0.5-0.5-0.6c-0.1,0-0.3,0-0.4-0.1
		c-0.6,0-1.3,0.5-1.7-0.6c-0.6-0.4-1-0.5-1.6-0.2c0,0.5-1.5,0.6-0.7,1.3c0,0.5-0.4-0.4-0.6-0.1c-0.1-0.9-0.7-0.1-1.1-0.4
		c-0.7-0.1-1.2-0.5-1.9,0c-0.8-0.5-1.2,0.4-1.9,0.5c-0.2,0.4-0.5,1,0,1.4c-0.4,0.4-1,0.1-1.5,0.5c0.3-0.8,0.3-1.7,1.2-2
		c0.4-0.3,1.3-0.1,1-0.8c0.6,0,0.4-0.9,1-0.8c-0.2-1.6,1.7-1.5,1.5-2.9c-0.1-0.5,0.5-0.2,0.6-0.6c-0.2-0.4-0.6-1.2,0.1-1.4
		c0.1-0.6-1.1-1.1-0.2-1.3c0-0.4,0.1-1,0.4-1.4c0.4,0.3,0.6,0.7,0.6,1.2c-1,0.7,0.2,1.6,0.2,2.3c0.3,0.4,0.6,0.9,1,1
		c0.1,0.7,0,1.6,0.7,1.8c0,0.5,0.3,0.9,0.4,1.3c0.8,0.7,2-0.4,2.4,0.9c0.1,0.1,0.2,0.1,0.3,0.2c0.1,0,0.3,0,0.4,0.1
		c0.5,0,1-0.2,1.5,0.2C90.7,9.5,90.2,9.7,90,9.2z M104.7,27.7c-0.3-0.3-0.8,0.6-0.7-0.3c0.1-0.2,0.3-0.3,0.3-0.6
		c-1.1-0.8-3.5-0.1-3.5-2.1c-0.7-0.6-0.8-1.3-1.1-2c-0.5-0.2-1.2-0.1-1.8-0.3c-0.1,0.3-0.5,0.1-0.7,0c0.1-0.8-0.5-1.6-0.2-2.2
		c-0.3-0.9-1.3-0.8-1.8-1.4c0.1,0,0.8,0.4,0.7-0.2c-0.4-1.4-2.1-0.8-2-2.4c-0.5-0.4-1.1-0.5-1.4-1c-0.5-0.4,0.5-1.2-0.4-1.4
		c0.1-0.8-0.7-1.3,0.2-2c0.2-0.3-0.3-0.4-0.4-0.4c-0.5,0.1-0.3,0.8-0.7,0.2c0.5-0.2,0.3-0.8,0.2-1.2c-0.1-0.2-0.2-0.1-0.4-0.2
		c-0.4,0.3-0.1-0.1,0-0.1c0.3,0.4,0.8,0,1.3,0.2c0.7-0.3,0.3-0.8,0.4-1.4c0.1-0.1,1.2,1.3,1.7,0.6c0.6,0.2,0.5-0.4,1-0.5
		C95.2,8,96.2,9.2,96.6,9c0.7,0,0.7-0.6,0.9-1.1c-0.8-0.8,0.3-0.6,0.7-0.5c0,0,0.7,0.6,0.8,0.2c0-0.1,0-0.1,0-0.2
		c-0.4-0.5,0.7-0.7,0.6-1.4c0.1,0.3,0.6,0.5,1,0.4c0.1,0,0.1-0.1,0.2-0.1c-0.1,0-0.1,0.1-0.2,0.1c-0.4,0.3-0.8,1.1-1.3,0.7
		C99.1,7.1,99,7.2,99,7.4c0,0,0,0,0.1,0.1c0,0,0,0.1,0,0.1c0.1,0.2,0.1,0.4-0.1,0.5c0.4,0.5,0.8,0,0.9-0.3c0,0,0-0.1,0-0.2
		c0,0,0,0.1,0,0.2c0,0.2,0.4,0.2,0.5,0.5c-0.2,0.2-0.3,0.7-0.2,1c0.2,0,0,0.1,0.1,0.2c-0.6,0.2-1.4-0.5-1.7,0.3
		c-0.2,0-0.4,0.2-0.4,0.5c0.2,0.7,1.5,0.8,0.8,1.4c0.1-0.3-0.2-0.5-0.4-0.5c-0.7,0.3-0.4,0.9-0.8,1.4c0.7,0.3,0.2,0.6,0,1
		c0,0.2,0,0.3,0,0.3c0-0.1,0-0.2,0-0.3c0-0.2,0-0.4-0.2-0.5c-0.4-0.2-0.6,0.3-0.9,0.5c0.2,0.4-0.2,1,0.4,1.2c0.2,0.1,0.4,0,0.5-0.1
		c0-0.1,0.1-0.2,0-0.2c0,0.1,0,0.2,0,0.2c-0.1,0.4-0.4,1.2,0.3,1.5c0.2,0.1,0.6-0.4,0.6,0.1c-0.5,0-1.1,0.1-1.4,0.5
		c-0.1,0.5,0.3,0.9,0.7,1.1c0.4,0-0.3,0.4,0.1,0.7c0.6,0.3,0.3,1.3,0.7,1.6c0.3-0.3,0.1,0.4,0.1,0.6c0.1,1.1,1.5,0.3,1.1,1.5
		c0.2,1.3,1.2,1.2,2.1,1.9c0.7-0.5,1,0.4,1.5,0.6c-0.5,0.5,0.1,0.9,0.2,1.3c0.3,0.3,0.9,0.2,0.6,0.7
		C104.2,27.3,105.6,27.1,104.7,27.7z"/>
</g>
</svg>
