<?xml version="1.0" encoding="utf-8"?>
<!-- Generator: Adobe Illustrator 19.1.0, SVG Export Plug-In . SVG Version: 6.00 Build 0)  -->
<!DOCTYPE svg PUBLIC "-//W3C//DTD SVG 1.1//EN" "http://www.w3.org/Graphics/SVG/1.1/DTD/svg11.dtd">
<svg version="1.1" xmlns="http://www.w3.org/2000/svg" xmlns:xlink="http://www.w3.org/1999/xlink" x="0px" y="0px"
	 viewBox="33 -33 100 100" enable-background="new 33 -33 100 100" xml:space="preserve">

<g id="AREA_1">
	<g>
		<g>
			<path fill="#720018" d="M129.5-10.1c-1.5-1.7-3.5-0.4-5.3-0.3c-2.7,0.4-4.7,2.4-7,3.7c-4.1,2-8.2,4.5-13.2,3.7
				c-3.4-0.9-6.8-1.7-10.1-2.8c-2.9-1-6.1-0.2-8.6,1c-3.5,0.6-6-1.3-9-1.8c-3-0.6-5.5,0.9-8.2,1.4c-3.8,0.8-7.5,3-11.6,1.5
				c-4.4-1.4-8.6-3.5-12.5-6.2c-1.6-0.7-3.3-1.1-5.1-1.5c-0.7,0-1.6-0.2-2.1,0.4c-0.3,0.5-0.4,1.2-0.2,1.8c0.7,1.3,2.3,1.1,3.5,1.4
				c3.5,0.3,5.7,4.1,8.4,6.2c2.4,2.2,5.1,4.3,8.6,4c3.9-0.8,7.7-1.4,11.5-0.3c0,0.3,0,0.5-0.1,0.8c-0.7,1.1-2.2,0.6-3.3,0.8
				c-2.3-0.1-4.3,1.5-5.5,3.3c-1.7,2.7-4.6,2.2-7.1,3c2.5,1.8,5.5,2.4,8.4,3.4c3.4,1.2,6.2-0.9,8.5-3c0.3,0.3,0.1,0.7,0.2,1.1
				c0,0.7-0.3,1.4-0.3,2c-0.3,1.3,1.1,1.6,1.9,2.1c0.2,1.6-0.1,3.1-0.1,4.7c0,1.5,1.4,2.6,2.5,3.5c0.2,3.2,1,6.1,2.6,8.7l-1,1.8
				c-1,2.1-0.5,4.9,1,6.6c0.6,1.1,0.6,2.3,1.5,3.2c1.5,0.5,2.8-0.4,4.1-1c2.2,0.1,3.7,1.6,5.9,1.7c0.5,0,0.7-0.5,1-0.8
				c0.5-1.4,0.9-2.8,1.8-4.1c1.2-2.2,0.5-5-0.9-6.9c1.7-2.6,2.2-5.7,2.7-8.8c0.7-0.5,1.3-1.1,1.8-1.8c1.3-1.7,0.2-4.3,0.6-6.4
				c0.7-0.4,1.5-0.7,1.8-1.5c-0.1-1.3-0.5-2.4-0.2-3.7c1.9,1.9,4.2,3.7,7.2,3.4c3.5-0.9,6.9-1.7,9.9-3.7c-2-0.6-4.3-0.6-6.1-1.7
				c-1.7-1.8-3.2-4.3-5.7-4.5C100,4,98.3,4.5,97.1,3.7c-0.2-0.3-0.4-0.8-0.2-1.2c1.3-0.1,2.7-0.3,4.1-0.5c2.6-0.4,4.8,0.6,7.2,0.9
				c6,0.5,9.4-5,13.6-8.3c2.1-2.3,5.4-1.7,7.6-3.6C129.7-9.3,129.6-9.7,129.5-10.1z M56.9,1.6c-5.4-0.3-9.2-4.9-12.9-8.5
				c-2.1-1.6-5-1.4-7.2-2.9v-0.1c2.6-1.4,5.4,0.2,7.8,1.2c1.5,0.8,2.8,2.1,4.2,2.9C51-4.9,53.2-4,55.4-3.1c4.1,1,8.6,0.1,12.7-1.2
				c3-1.1,6.9-2.5,10.1-0.9c-1.1,3.8-5.2,5.3-8.3,6.7C65.9,0.3,61.1,0.9,56.9,1.6z M69.7,9.4c-3.5,3-9.2,2.6-13.2,1
				c1.4-0.5,3.1-0.8,3.9-2.4c1.6-3.5,5.8-2.4,8.8-3.5C69.7,6,70.7,7.8,69.7,9.4z M70.3,14.1c0.5,0.1,1.3,0.3,1.8,0
				c0.4-0.2,0.5-0.6,0.7-0.9c0.6,0.2,0.5,0.9,0.2,1.3c-0.1,0.4-0.5,0.4-0.8,0.6C71.4,15.3,70.8,14.7,70.3,14.1z M72.4,20.2l-0.4-3
				c1.1-0.4,2.1-1,3-1.8c1.9,1.8,1.9,4.5,3,6.7c0.9,1.9,1.2,4,1.3,6.2c-0.7-1.7-1.4-3.6-3.1-4.8C74.8,22.8,72.8,22,72.4,20.2z
				 M78.7,40.9c-1.2-0.6-2.1-1.9-2.4-3.1c-0.1-0.6,0.1-1.3,0.4-1.7c0.6-0.9,1.6-1,2.6-1.2c0.7,1.9,1.3,3.9,1.9,5.9
				C80.4,41,79.5,41.3,78.7,40.9z M82.3,32.7c0.1-7-0.2-14-2.5-20.1c-1.6-2.9-5.2-2.2-8-3V9.5c2.1-0.8,4.3-1.3,6.6-1
				c2.9,0.4,6.4,2,9.4,0.3c2-1.3,4.9-1.1,6.9,0.1v0.1c-3.3-0.2-7,0.3-9.3,3.3c-1.5,2-1.4,4.7-1.6,7.2c-0.2,4.3-0.1,8.9,0.1,13.2
				H82.3z M87,40.7c-0.8,0.6-2,0.5-2.8,0.2c0.5-1.9,1.2-3.9,1.8-5.9c1.1,0.1,2.4,0.5,2.9,1.7C89.3,38.3,88.2,39.7,87,40.7z
				 M92.5,21.9c-1.5,1.2-3.6,1.5-4.4,3.5c-0.6,0.9-0.8,1.9-1.3,2.8c-0.2-4.3,2.1-7.5,3.1-11.3l1.1-1.6c0.9,0.8,1.8,1.4,2.9,1.9
				C93.5,18.8,93.9,20.7,92.5,21.9z M93.8,15.4c-0.5-0.1-1-0.3-1.3-0.8c-0.1-0.2-0.2-0.4-0.2-0.7l0.5-0.5c0.3,0.5,0.7,1,1.3,1
				c0.5,0,0.9-0.1,1.3-0.2C95,14.8,94.5,15.3,93.8,15.4z M104,6.8c1.5,1.2,2.1,3.5,4.2,3.8c0.5,0.1,0.9,0.3,1.4,0.3v0.1
				c-3.9,1.5-9.5,2-13.1-0.7c-1.6-1.6-0.3-3.5,0.3-5.2C99.3,5.8,101.8,5.8,104,6.8z M121.2-6.5c-4.4,4.3-9,9.8-15.2,8.3
				C102.6,1,98.6,1.1,95.2,2c-3.1-1.3-7-3-8.2-6.6c1.7-0.7,4-1.2,6-0.6c5.1,1.9,11,3.6,16.7,2.5c2.3-1,4.7-1.7,7-2.9
				c2.8-2.4,5.8-4.1,9.3-4.6c0.9-0.1,1.7,0.2,2.4,0.6C126.2-8,123.3-8.1,121.2-6.5z"/>
		</g>
	</g>
</g>
</svg>
