<?xml version="1.0" encoding="utf-8"?>
<!-- Generator: Adobe Illustrator 19.1.0, SVG Export Plug-In . SVG Version: 6.00 Build 0)  -->
<!DOCTYPE svg PUBLIC "-//W3C//DTD SVG 1.1//EN" "http://www.w3.org/Graphics/SVG/1.1/DTD/svg11.dtd">
<svg version="1.1" xmlns="http://www.w3.org/2000/svg" xmlns:xlink="http://www.w3.org/1999/xlink" x="0px" y="0px"
	 viewBox="33 -33 100 100" enable-background="new 33 -33 100 100" xml:space="preserve">

<g id="AREA_1">
	<path fill="#720018" d="M123.6,21.6c0.5,0.7,1.3,1.6,2.1,2.1l0.3-0.2c-0.3-0.4-0.6-0.9-1-1.2c-0.9-1.9-2.1-3.7-2.4-5.8
		c0.7,0.8,1.2,2.2,2.3,2.4l0.3-0.1c-0.3-0.1-0.6-0.2-0.8-0.4c-0.9-1.1-1.4-2.4-2.1-3.6c-0.3-0.6-0.7-1.1-0.8-1.9
		c0.1-0.1,0.2-0.3,0.4-0.3c0.9,0.6,1.3,1.6,2.3,2.1l0.1-0.1c-0.3-0.4-0.6-0.8-0.8-1.2c-0.6-1.5-2.6-2.4-2.7-4.1
		c0.7,0.9,1.8,1.4,2.8,1.7l0.1-0.1c-0.9-2.2-3.8-2.2-4.8-4.3c0.7,0.4,1.7,0.5,2.6,0.8l0-0.1c-1.3-1.3-2.9-2.7-3.9-4.3
		c1.1,0.1,2,1.2,3,1.4l0.1-0.1c-1.1-1-2-2.1-3.1-2.9c-0.3-0.3-0.6-0.7-0.8-1.1c0.9,0.4,1.9,0.7,3,0.8c0-0.6-0.7-0.7-1.1-0.9
		c-0.8-1.2-2.5-0.8-3-2.2c0.2-0.9-0.7-0.1-0.9-0.5c0.3-0.4,0.7-0.9,1.1-1.2c0.2-0.2,0.4-0.5,0.4-0.8c-1,0.3-2.1,0.3-3.1,0.4
		c2.2-1.7,2.7-4.4,3.8-6.7c2.1-2.3,4.3-4,6.1-6.4c0.5-0.8,1.3-1.6,1.4-2.6c0.1-1.6,2-2,3-2.8l0-0.1c-0.6,0.1-1.3-0.1-1.9-0.1
		c-0.9-0.3-2-0.3-3-0.6c-6.7,0.1-14.3-0.7-20.2,2.3c-2.2,1.1-4.9,0.6-7.5,0.8c-2.5,1-5.4-0.2-8,0.3c-2,1.1-4.5,0.4-6.6,0.1
		c-3.5,0.7-7.4,1.6-10.7,0c-5.4-1.1-10.7-2.6-16.1-3.3c-2.8-0.4-4.9,0.7-7.5,0.6c-3.1,0-5.3-0.8-8.3-0.2l0.1,0.4
		c1.9,0.1,4,0.8,5.6,1.8c3.5,2,3.6,6.2,7,8.5c1.5,1.1,1.2,3,1.9,4.6c1.1,1.4,2.7,2.8,3.2,4.5c-2.2,1.6-4.4,3-6.5,4.7l0.1,0.1
		c1.2-0.6,2.4-1.5,3.7-2c0.2,0,0.5-0.3,0.7-0.1c-0.7,1.2-2.3,2.1-2.6,3.5C49.5,5,48.4,7,47,8.9L47.1,9c1-0.4,2.1-1.2,3.1-1.7
		c0.2,0,0.4-0.3,0.7,0c-0.1,0.1-0.2,0.3-0.2,0.4c-2.4,2.8-4.5,6.2-7,9.2l0.1,0.1c1.2-0.5,2.2-1.5,3.2-2.4l0,0
		c-0.2,0.5-0.6,1-0.9,1.5c-0.3,1.7-0.3,3.6-1,5.2c-0.7,2.2-1,4.7-1.1,7l0.2,0c0.7-1.7,1.4-3.6,2.3-5.3c0.4,1.2,0.4,2.6,0,3.8
		c-0.7,2-1.7,4.2-1.9,6.2l0.1,0.1c1.5-0.4,1.5-2,2-3.1c0.3-0.6,0.9-0.9,1.4-1c-0.9,1.2-1.5,2.7-1.1,4.3c0.7,2.3-1.4,5.1,0.8,6.8
		l0.1,0l0.8-3.5l0.1-0.1c0.1,0.4,0,0.8,0.1,1.2c0.9,3.4,2.1,6.7,3.5,9.9c0.2,0.3,0.3,0.7,0.6,0.9h0.1c0.2-2-0.4-3.8-0.5-5.7
		c2.1,1.8,1.4,5.1,3.5,6.9l0.1,0c-0.7-1,0-2.2,0.5-3.1c0.3,0.1,0.3,0.4,0.5,0.6c0.4,2.2,2.6,4.3,4.4,5.6l0.1,0l-0.6-0.9
		c-0.3-0.5,0-1.2,0.2-1.6c0,1.1,0.9,1.6,1.4,2.5c0.7,0.8,1.6,1,2.6,1.3c0.4-0.9,0.5-1.9,0.7-2.9c0-1.9,1.5-3.1,2.7-4.5
		c1.4-1.5,1.6-3.5,3.2-4.7c0.3-0.3,0.7-0.7,1.2-0.7c1.2,2.7,0.7,6,1.4,8.9c0.5,1.4,0.8,2.9,1.4,4.3c0.8,1.1,2.3,0.9,3.6,0.8
		c3.2,0.5,6,0.2,9.2-0.2c1.5-0.1,3.1-0.8,3.8-2.3c1.1-3.4,1.1-7.3,1.1-11.2l0.1-0.1c1.8,0.3,3.4-0.5,5.2-0.1c1.8,0.5,2.3,2.6,3.2,4
		c0.1,0.2,0.4,0.7,0.7,0.5c0.4-1,0.3-2.2,1.1-3c0.2-0.1,0.4-0.5,0.6-0.3c0,0.6,0.2,1.3,0.3,1.9c0.4,1.2,1.3,2.4,2.7,2.5
		c0.9-0.3,1-1.3,1.4-2c1.8,1.5,1.3,3.7,1.5,5.7l0.7-0.1c0,0,0.4-1.2,0.8-1.5c1.6-1.2,1.5-3.3,2.5-4.8c1.1-1.1,2-2.3,3-3.5
		c0.1-0.1,0.3,0.1,0.3,0.2c0,1.5-0.6,3.1-1,4.6l0.1,0.2c0.6,0,1.2-0.2,1.6-0.8c1.5-2.1,1.1-5,2.1-7.3c0.4,1.2,0,2.9,0,4.2l0.3,0.1
		c1.7-3.2,1.8-7,1.8-10.9l0.1-0.1c0.8,1.3,0.2,3,0.4,4.5l0.4,0c0.8-1.7,1.2-3.9,0.9-6c-0.1-1.2-0.6-2.3-0.8-3.4
		c1,0.8,1.2,2.3,2.3,3.2l0.3-0.1c-0.7-1.5-1.1-3.2-1.6-4.8C124.3,23.6,123.8,22.6,123.6,21.6z M123.6-20.9c-1.2,3.8-5.3,6-7.7,9.1
		c-1,1.6-1.5,3.3-2.4,4.9c-0.2,0.3-0.6,0.7-1,0.5c-1.6-1.8-4.1-1.9-5.6-4.1c4.5-3.7,9-7.7,14.4-9.6
		C122.1-20.4,122.8-20.7,123.6-20.9z M122.3-22.4c-2.7,1.4-5.4,3.1-8,4.8c-3.1,1.7-6.4,3.2-9.1,6c-1.5-1.9-3-4-4.5-6.1
		C106.9-21.6,114.4-23,122.3-22.4z M50-21.3c3.2-0.6,6.8,0.2,9.7,0.5c3,0,5.2,2.1,8.1,2.4l2.3,0.3v0.1c-1.7,1.2-3.5,2.3-4.7,4.1
		h-0.2C60.2-16.5,54.8-18,50-21.2V-21.3z M54.4-11.7c-2.5-3-5.2-5.8-8.1-8.4l-0.1-0.1c6,2.4,11,6.8,17,9.4c-0.6,1.6-1.6,3-2.9,4.3
		c-0.5,0.3-0.9,0.8-1.5,0.5C56.9-7.7,56.1-10,54.4-11.7z M51.3,10.4c0.8-0.3,2-0.6,2.1-1.6c0-1.3-0.6-2.4-0.3-3.7l0.3-0.2
		c0.8-0.1,1.9,0.3,2.4-0.4c0.4-0.7,0-2.1,1.1-2.3c0.3,0,0.6,0,0.8-0.3C57.8,1.2,57,0.6,57.5,0c0.6-0.3,1.7,0.2,1.9-0.6
		c-0.1-0.6-0.3-1.1-0.4-1.7c0.6-0.5,1.6,0.2,2.3-0.2c1-1.3,0.2-3.3,1.6-4.4c2.3-1.8,5.6-1.9,8.5-1.9c0.4-0.8,0.7-1.7,1.1-2.5
		c-1.6-1.3-4.1-0.7-5.7,0.2v-0.1c1.1-1.3,1.7-3.2,3.3-3.9c1-0.1,1.9,1,2.8,0.3c0.7-0.5,1.2-1.7,2.2-1.5c0.6,0.3,1.2,0.9,2,0.7
		c1.2-0.4,2-2.5,3.4-1.4c1.2,1,2.3,2.8,4.1,2.5c1.3-1,2.1-2.8,3.9-2.6c0.7,0.3,1.1,1.5,2.2,1c1.2-0.9,3.2-1.3,4.6-0.4
		c0.4,0.3,1.4,0.3,1.1,1c-0.3,0.7-0.4,1.6-1.2,1.9c-0.9,0.1-2,0.2-2.5,1.2c-0.1,0.4-0.2,0.9-0.1,1.3c0.7,0.8,1.8,0.3,2.6,0
		c0.6-0.3,1.2-0.8,1.8-1.2c-0.4,0.8-1.5,1.7-0.8,2.6c0.2,0.3,0.5,0.5,0.8,0.8c1.2-0.6,2.3-1.3,3.6-1.7c0.1,0.7,0,1.5,0.8,1.9
		c0.7,0.4,1.7,0.1,2.5,0.1C103-8.2,102.3-8,102-7.3c-0.1,0.5,0.1,1,0.4,1.5c0.3,0.3,0.7,0.4,1.2,0.3c0.8-0.3,1.6-0.9,2.3-1.5
		c1,0.6,2,1.5,3,2.2v0.1c-0.6-0.2-1.3-0.3-2.1-0.1c-0.6,0.2-1.1,0.4-1.6,0.9l0.3,0.2c1.8,0.2,3.8,0.2,4.9,1.9c1.5,2.7,3.8,5,5.9,7.4
		c1,1.7,1.7,3.4,2.6,5.1c-0.6,0.4-1.3,0.5-2,0.8c-1.9-2.5-3.8-4.4-6.3-6.2c-1.4-0.9-3.2-0.3-4.7,0.1c-0.1-0.4-0.1-0.7-0.1-1.2
		l-0.1-1c-2.5,3.3-7,2.3-10.2,4.1c-1.2,0.5-2.3,1.3-3.4,2.1c-0.2-0.6-0.4-1.3-0.7-1.9c-0.6,1-1.1,2.3-0.6,3.5l0,0.3
		c-0.5,0.7-1.9,1.1-1.3,2.2c0.2,1.7,0.1,3.6,0.1,5.4c-1.5-0.5-3.4-0.6-4.8-0.3c0.9-0.9,1.9-1.9,1.6-3.3c-0.7-1.9,0.2-3.7,0-5.6
		c0.4,1.3,1.8,2.1,2.9,2.6c-0.2-1.6-1.4-3.4-0.6-5.1c0.4-0.6,1-1.2,0.7-2.1c-0.5-1.4-0.5-3-0.4-4.6l0-2.6h-0.2
		c-1,0.8-1.5,1.9-1.5,3.2c-0.1,1.3-1.4,2.2-1,3.5C86.5,5.5,87,6.2,86.8,7c-0.3,0.8-0.9,1.6-0.7,2.4c-0.5-1.2-1.7-2.2-1.1-3.7
		c1.1-2.1-0.3-3.9-0.8-5.7c-0.3,0-0.2,0.4-0.4,0.5C82.6,1.5,82,3,82.2,4.7l0.9,2.5c-0.3,1-1.1,1.9-1,3c-0.1,0.4-0.1,0.9-0.4,1.4
		l-1,1.9c0.3,0.7,1.2,1.1,1.3,1.9c0,1-0.2,1.8-0.6,2.7c-1.1,0.1-2,0.4-3,0.4c0.7-5.1,0.6-10.6-4-13.9c0.2,1,0.7,2,1.3,2.9
		c-3.6-0.6-6.6-3-10.3-3.7c-0.5-0.1-0.9-0.3-1.4-0.4c0,0.4,0.2,0.8,0.3,1.2c-2.2-0.8-4.7-3.2-7.1-1.2c-2.1,1-0.4,3.6-2.1,4.8
		c-0.4,0.5-0.9,1.1-0.6,1.9c0.3,0.7,1.1,0.4,1.6,0.6L55.2,12c-1.3-0.5-2.6-1-4-1.5V10.4z M116.7,18.5c-1,0-2,0.2-3,0.2
		c-0.9-1.7-2.6-3.5-4.7-3.5l-1,0v-0.1c2.1-1,4.3-1.8,6.7-2c0,1.4,0.9,2.4,1.5,3.6C116.3,17.3,116.6,17.9,116.7,18.5z M95.7,9.1
		c0.2,0,0.5,0,0.4,0.3c0,0.1,0,0.2-0.1,0.3c-0.2,0-0.6,0.1-0.5-0.3C95.5,9.3,95.6,9.2,95.7,9.1z M95.1,10.8
		c-0.2,0.2-0.6,0.3-0.9,0.1c-0.3-0.2-0.5-0.6-0.4-0.9c0.1-0.2,0.4-0.4,0.6-0.5c0.3,0,0.7,0.2,0.8,0.5C95.1,10.4,95.3,10.6,95.1,10.8
		z M85.1,25.9c-0.3,0.1-0.5-0.2-0.6-0.4c-0.2-0.6-0.1-1.4-0.5-1.8c-0.6-0.5-0.8,0.3-1.1,0.6c-0.1,0.4-0.1,0.9-0.4,1.1
		c-0.4-0.1-0.9-0.2-1.1-0.7c-0.4-0.7-0.2-1.8-1.1-2.2c-0.7-0.3-1.3,1.1-1.6-0.1c-0.2-0.3-0.2-0.8-0.1-1.2c0.4-0.8,1.2-1.3,2.1-1.4
		c1.6,0,3.4,0.4,5.2,0.2c1.1,0,2.6-0.2,3.2,0.8c0.1,0.4,0.2,1.1-0.4,1.3c-0.8,0.5-2.1-0.4-2.8,0.6C85.7,23.8,86.7,25.5,85.1,25.9z
		 M68.1,14.9l-2.2,1.4c-0.7-0.4-1.3-1-2.2-0.8c-0.6,0.6-1.2,1.1-2.1,0.9c-1.2-0.4-2.1-1.3-3-2.2c0-0.2-0.2-0.4-0.1-0.6
		c0.9-1,2.2-1.2,3.6-1c1,0.3,2.1,0.6,3,0.9c-1.3-2.8-4.8-1-6.3-3.5c-0.4-0.7-1-1.4-0.7-2.3c0.6-1,1.8-1.3,2.8-1.1
		c0.1,0.1,0.2,0,0.3,0.1c0-0.5-0.5-1-0.6-1.5c1.2-0.5,2.6-0.2,3.5,0.6C64.4,6,64.7,6.3,65,6.7l0.6,1.2c0.5,0,0.9-0.5,1.3-0.6
		c0.1,2.8,2.8,5.3,5.1,6.3c1,0.3,2.2,0.7,3.2,0.2c0.2-0.2,0.3-0.5,0.4-0.8l-0.1-0.1c-1.3,0.2-2.7,0.2-3.7-0.7
		c-1.7-1.4-2.8-3.2-3.1-5.2c1.2,0.2,2.5,0.3,3.7,0.5l0.1,0.3c-0.3,0.3-0.9,0.5-0.9,0.9c0.3-0.1,0.6-0.3,0.9-0.1
		c0.3,0.1,0.3,0.4,0.3,0.6c0,0.3-0.1,0.6-0.3,0.7c-0.3,0.1-0.7,0-0.9-0.2c-0.3-0.2,0.1-0.5-0.1-0.7c-0.2,0.7-0.1,1.6,0.5,2.1
		c0.5,0.5,1.3,0.8,2,0.5c0.6-0.2,1.3-0.7,1.3-1.4l0.1-0.8c1.4,1.1,2.3,2.6,2.4,4.3c-0.9,1.4-3,1.1-4.4,1c-2.3-0.2-4.6-0.4-6.6-1.4
		l0,0C67,13.9,67.8,14.3,68.1,14.9z M73.3,9.1C73.4,9,73.7,9,73.8,9.2c0,0.2-0.1,0.3-0.3,0.3C73.3,9.4,73.4,9.3,73.3,9.1z
		 M48.9,25.7c-0.9-1.2,0.5-2.5-0.3-3.7c0.4-0.1,0.8-0.3,1.2-0.1c0.3,0.2,0.6,0.4,0.8,0.8C50.6,24,49.2,24.6,48.9,25.7z M50.3,30.8
		c-1.2-0.8-1.3-2.2-1.2-3.5c0-0.1,0.1-0.3,0.3-0.3c0.9,0.1,1.4,1,1.7,1.8C51.1,29.5,50.9,30.2,50.3,30.8z M49.2,20.8
		c-0.8-1.6-1.2-4,0.1-5.5l2.2-2.5c0.8,0.3,1.7,0.4,2.5,0.8v0.1c-0.8,0.7-1.2,1.3-1.7,2.1c-0.3,1.5-0.6,2.9-1.3,4.2L51,20l3.9,0.3
		c1.4-1.8,3.1-3.6,5.2-4c1.4,0.4,2.7,1,4.1,1.5c-0.2,0.5-0.6,1-1,1.4c-0.4,0.5-1.2,0.5-1.8,0.3c-0.4-0.2-1-0.3-1.5-0.2
		c-0.4,0.3-0.6,0.7-0.9,1C56,21.3,52.6,20.7,49.2,20.8z M62.3,36.9V37c-1.8,0.8-3.7,1.6-5.5,2.5c-0.1-0.3-0.3-0.6-0.2-0.9l4.2-2.7
		C61.3,36.2,61.8,36.5,62.3,36.9z M53.7,24.2c-0.3-0.5,0.1-0.9,0.3-1.3c1.2-1.5,3.1-1.1,4.7-1.1c0.4,0.1,0.7,0.4,0.9,0.8
		c0.1,0.4,0,0.9-0.3,1.2c-0.3,0.4-1,0.5-1.5,0.4c-0.2,0-0.3-0.2-0.5-0.1c0.8,1.1,1.9,1.4,3,1.8c-0.3,0.1-0.8,0.3-1.2,0.2
		c-1.7,0.3-3.4,0.6-5.1,0.8c-0.1-0.4-0.2-1.2,0.1-1.7l0.8-0.7C54.5,24.2,54.2,24.4,53.7,24.2z M54.1,31.4c-0.6-0.2-0.6-0.9-0.8-1.4
		c0.1-0.6,0-1.2,0.3-1.6c2-0.7,3.9-0.9,6.1-1c0.4,0.3,0.9,0.6,1,1.1c0,0.9-1,1.1-1.6,1.6c0.1,0.3,0.4,0.2,0.7,0.3v0.1l-4.5,2.7
		c-0.3-0.7-0.4-1.7-0.8-2.4C54.4,30.9,54.3,31.2,54.1,31.4z M55.3,34.3l4.8-1.7c0.3,0.1,0.4,0.3,0.6,0.5c0.1,0.6-0.7,0.9-0.4,1.4
		c0.2,0.2,0.4,0.4,0.7,0.6c-1.3,0.7-2.8,1.4-4.3,2C56.7,36,55.9,35.2,55.3,34.3z M56.4,41.5c-0.3-0.5,0-1,0.3-1.4
		c0.5-0.4,1.1,0.1,1.6,0.2c1.5-0.4,3-1,4.5-1.4c-0.7,1.4-1.7,2.7-2.6,4C59.3,41.6,57.6,42.2,56.4,41.5z M64.3,47.7
		c-0.9-0.8-2.1-1.7-3.5-1.2c0.3-1,0.9-1.9,1.4-2.9c0.7-1.2,1.5-2.1,2.4-3.1c0.7,0.4,1.4,0.9,2,1.3C65.8,43.7,65,45.7,64.3,47.7z
		 M71.1,39.7c-0.4,0.2-0.8-0.1-1.2-0.2c-0.1-0.9,0-1.9,0.7-2.5c0.4-0.3,1-0.8,1.4-0.4C72.3,37.8,71.9,39,71.1,39.7z M91.1,43.7
		C91,44.3,91,45,90.7,45.6c-0.3,0.4-0.4,0.9-0.3,1.3c0.7,1.2,1.2,2.6,0.6,3.9c-1,1.1-2.7,0.9-3.9,1c-0.9,0.1-1.5,1.4-2.6,0.8
		c-2-0.9-4.1,1.1-5.7-0.8c-0.5-0.3-1.2-0.3-1.6-0.8c0-0.5,0.1-0.9,0.3-1.3c-0.2-0.9-1-1.9-0.4-2.9c1.8-1.8-0.9-3.5-1-5.4
		c-0.1-0.5,0.4-0.8,0.8-1.1c0.5-0.2,1.1-0.5,1.7-0.3c-0.6,0.6-1.3,1.4-0.9,2.5c0.6,1.3,0.7,3.3,2.5,3.5c1.7,0.6,3.8,0.2,5.6,0.3
		c0.3-0.2,0.6,0,1-0.2c0.8-0.1,2.1,0.2,2.5-0.9c0.6-1.6,1.2-3.4,2.1-4.9c0.2,0,0.4,0.2,0.5,0.4C91.9,41.8,90.9,42.6,91.1,43.7z
		 M83.8,36.5c1.3,0,2.3-1.8,3.6-0.7c0.4,0.4,0.6,0.9,0.7,1.4c-1.7,0.9-2.7,3.4-4.9,2.6c-1.3-0.5-2.4-1.4-3.7-2.1c0.3-1,1-2.1,2-2.6
		C82.7,35,82.8,36.7,83.8,36.5z M81.6,32.3c0.3,0,0.7,0,1,0v1.3h-1L81.6,32.3z M83.4,33.3v-1h1v1H83.4z M85.2,33.6v-1.1h0.9v1.1
		H85.2z M87,33.9v-1.3l1,0.1v1.2C87.7,33.9,87.3,33.9,87,33.9z M89.2,41.1c0.3,0.8,0.3,1.8-0.2,2.5c-0.3,0.4-0.8,0.1-1.2,0.1
		c-0.1-1.3,0.1-2.2,0.6-3.3C88.7,40.5,89.1,40.7,89.2,41.1z M88.9,35.8l0-3.3c0.3-0.3,0.7-0.6,1.2-0.4c0.3,0.1,0.5,0.4,0.8,0.6
		C90.8,34,90.1,35.3,88.9,35.8z M86.1,41c-1,0.1-2,0.4-2.9,0.6c-0.6,0-1.1-0.4-1.5-0.9c2.1,0,4.2,0,5.7-1.2
		C87.2,39.9,86.8,40.8,86.1,41z M86.8,42.4v1.3h-1l0-1.3L86.8,42.4z M85.3,43.6h-1l0-1.3h0.9L85.3,43.6z M83.5,43.7l-0.9,0l0.1-1.3
		h0.9C83.6,42.8,83.7,43.3,83.5,43.7z M82,42.4v1.2l-0.9,0.1l0-1.3H82z M79.8,40.3c-0.1,1,0.1,2.2,0.5,3.2c-0.4,0.1-1,0.2-1.3-0.1
		C77.7,42.3,79.5,41.4,79.8,40.3z M79.1,35.8c-1-0.9-2.1-1.9-2-3.2c0.1-0.3,0.5-0.3,0.8-0.4c0.5,0,1,0.1,1.5,0.3
		C79.1,33.5,79.2,34.7,79.1,35.8z M101.3,39.4c-1.2-0.7-2.3-1.3-3.5-1.8c-0.5-0.2-1,0-1.2,0.5c0,0.1-0.1,0.2-0.1,0.3
		c-0.4-0.6-1-1.3-0.7-2.1c0.4,0,1,0.4,1.5,0.3c0.3-0.3,0.5-0.6,0.7-0.9c1.3,1.2,2.4,2.4,3.5,3.8L101.3,39.4z M101.8,27.4
		c0,0.3,0.1,0.8-0.3,0.9c-1,0.3-2.6,0-3.4,1.2c0,0.6,0.7,0.5,1.2,0.7c0.5,0.1,1.3-0.2,1.6,0.3c0,0.9-0.2,1.7-0.9,2.2
		c-0.4,0.1-0.7,0.3-1.1,0.5c0.6,1,1.3,1.8,2.1,2.7c-2.2-0.3-3.4-2.9-5.4-3.5c-0.9-0.4-2.1-0.7-2.9,0c-0.9,0-1.6-0.7-2.5-0.7
		c-2.5-0.1-4.7-0.8-6.8-1.8c-1.6,1.2-4,1.1-5.8,1.1c-1.3,0-2.4,0.8-3.6,0.9c-0.8,0.3-0.8,1.5-1.8,1.6c-0.6,0-1.2-0.1-1.8-0.2
		c0.4-0.5,0.7-1.1,0.6-1.8c-0.2-0.3-0.5-0.5-0.9-0.5c-0.4,0-0.8,0.1-1,0.5c-0.1,0.4,0,0.7,0.1,1.1c-0.9-0.1-1.6,0.1-2.5,0.2
		c-0.4-0.4-0.9-0.8-1.2-1.3c1-0.1,2.3,0.2,2.9-0.9c0.3-0.5,0.2-1.2-0.1-1.7c-0.3,1.3-1.7,0.4-2.6,0.7c-0.3,0-0.9,0.2-1.1-0.3
		l-0.1-1.3c0.7-0.3,2,0.4,2.4-0.6c0.2-0.4,0.1-0.9-0.2-1.2c-0.7-0.4-1.5-0.5-2.4-0.4c-0.1-0.2,0.2-0.3,0.3-0.4
		c0.3-0.9,0.5-1.8,1.2-2.6c0.4-0.1,0.8-0.1,1.1-0.3c0-0.8,0-1.4,0.5-2c0.7,0.1,1.4,0.2,2.1,0.1c0.3-0.2,0.5-0.6,0.7-0.9
		c0.1-0.8-1-1.1-0.7-1.8c2.3-1.3,5.1-0.3,6.9,1.3c0.9,1.1,1.2,2.3,0.9,3.8l-0.5,0.8c0.3,0.6,0.8,1.4,1.5,1.5h1.4l1.5,1.7
		c1.1,0.5,2.2,1,3.2,1.6c0.5-0.8,1.4-1.6,2.2-2c1.9-0.2,3.2-2,3.8-3.6c0.3-1-0.1-2.1,0.4-3.1c1.7-0.9,3.8-0.8,5.6-1.6
		c0.6-0.1,1,0,1.5,0.3c0.3,0.3,0.7,0.6,0.7,1c0,0.3-0.1,0.7-0.5,0.9c-0.5,0.1-1.2,0.1-1.5,0.8c-0.1,0.2-0.2,0.4-0.1,0.7
		c0.5,0.3,1.2,0.4,1.7,0.9c0.7,1.2,2.3-0.2,3.1,0.8c0.1,0.2,0.3,0.3,0.4,0.4c-0.6,1.3-2.6,1.2-2.8,2.9
		C99.9,27.2,100.9,27.2,101.8,27.4z M102.5,14.5c-0.3,0.6-0.8,1.4-1.5,1.6c-0.5,0.1-1.1,0.1-1.4-0.3c-0.1-0.6,0.3-1,0.7-1.3
		l-0.1-0.1c-2.4,0-4.5,1.8-6.9,0.6c-0.7-0.3-1.4-0.8-1.9-1.5c0.4-1.5,1-2.9,2.3-4c0,0.6-0.1,1.2,0.3,1.6c0.5,0.6,1.3,0.9,2.1,0.8
		c0.8-0.1,1.4-1,1.6-1.7c0-0.7-0.4-1.3-0.8-1.8l2.8-0.9c-0.7,1.8-0.9,4.6-3.3,5.3c-1.2,0.4-2.7,0-4.1,0.3l-0.1,0.1
		c0.6,1.2,1.9,0.7,3,1c2.2,0.1,4.2-1,5.1-2.9c0.7-1.3,0.8-2.8,1.3-4.1c1-0.4,2-0.8,3-1.2v0.1c-0.9,1.1-2.1,1.9-2.1,3.3
		c0.2,0.2,0.3,0.4,0.5,0.6c0.7,0.2,1.1-0.7,1.5-1.1c0.6-1,0.8-2.3,2.1-2.6c0.3,0,0.6-0.1,1-0.1c0.2,0.6,0.2,1.2,0.8,1.5
		c0.6,0.2,1.1-0.2,1.7-0.3c-0.1,0.3-0.4,0.4-0.7,0.6c-0.1,0.2-0.4,0.4-0.3,0.6c0.9,0.8,2.1,0.9,3.1,1.6c-0.1,0.3-0.5,0.2-0.7,0.4
		l-4.7,1.7v-0.1l1.1-1.7h-0.2C105.9,11.7,103.7,12.5,102.5,14.5z M103.1,18.4c0.3-0.9,1.2-1.6,2.1-1.7c1.2-0.2,2.5-0.2,3.2,0.9
		c0.2,0.3,0.4,0.6,0.5,0.9c-1.8,0.5-3.5,1-5.4,1.2C103.3,19.3,102.7,18.9,103.1,18.4z M104.6,32.6l0.7-1.4c1.4-0.1,2.6,0.4,3.7,1.2
		c0.2,0.7,0.6,1.5,0.3,2.3l-1,0.9c-1-1.3-2.2-2.2-3.7-2.8V32.6z M103.5,35.4c-0.1-0.5-0.2-1.2,0.5-1.3c0.8-0.4,1.5,0.5,2.2,0.8
		c0.6,0.5,0.9,1.2,1.3,1.8c-0.5,0.1-1.3-0.2-1.6,0.5l0,0.8L103.5,35.4z M109.7,43.9c-0.4,0.1-0.8,0.5-1.2,0.7
		c-0.8-1.4-1.7-2.7-2.5-4.1c1.1-0.1,1.4,1.2,1.9,1.8c0.5,0.6,1.2,1,1.8,1.5V43.9z M113.5,43.2l-1.5,1.9c-1.5-1.6-3-2.9-4.4-4.4
		c0.8,0.2,1.6,0.3,2.5,0.1c0.7,0.1,1.3,0.6,1.9,1c0.6,0.4,1,0.9,1.6,1.2V43.2z M116,40.9c-0.5,0.3-1.1,0.5-1.7,0.7l-2.2-2.5
		c0.5-1.4,1.6-2.5,2.5-3.5c1.1,0.7,2.2,1.5,3.2,2.3C117.6,39,117.1,40.1,116,40.9z M120.1,32.1c0.1,1.7-0.7,3.3-2.2,4l-0.5,0.3
		c-3.7-2.2-6.7-5.6-10.9-6.5l-1.5-0.4c0-0.7,0.1-1.3,0.7-1.7c0.5-0.2,1,0.2,1.5,0c-0.1-0.3-0.2-0.6-0.1-1c0.2-0.6,0.9-1,1.5-1
		c0.9,0,1.5,0.4,2.3,0.6c0,1,0.3,1.8,0.6,2.7c0.1,0.4,0.1,0.9-0.4,1.1c-0.2,0.1-0.4,0.2-0.6,0.3c1.6,1.4,3.6,2.5,5.7,2.7
		c-1.4-1.5-0.5-3.5-0.9-5.3l-0.1-1.3c2-0.4,4.6-0.7,6.5,0.3C120.6,28.4,120.1,30.2,120.1,32.1z M121.6,25.5c-5-0.2-9.8-0.2-14.7-0.3
		c0.4-0.4,0.9-0.6,1.3-0.9c-0.8-0.1-1.9-0.1-2.2-1c-0.1-0.5-0.1-1.1,0.3-1.5c1-0.8,2.2-1.2,3.5-1c0.6,0.2,1.1,0.6,1.6,1
		c0,0.8,0,1.6-0.1,2.4l0.1,0.1c1.2-0.4,2.7,0,3.4-1.2c0.2-0.7-1.2-1-0.7-1.9c0.5-1.1,1.7-1.3,2.8-1.4c0.8,1.1,0.8,2.4,0.7,3.8
		c0.4,1.1,1.8,0.9,2.7,1.2c0.7,0.2,1.2,0.5,1.9,0.8C122.1,25.8,121.8,25.5,121.6,25.5z M119.2,18.3c0.3-0.4,0.7-0.9,0.5-1.5
		c-0.1-0.3-0.3-0.6-0.2-1c0.2-0.2,0.5-0.5,0.8-0.6c1.1,0.2,1,1.5,1.6,2.2c0.2,0.2,0.3,0.4,0.4,0.7C121.3,18.2,120.2,18.2,119.2,18.3
		z"/>
	<path fill="#720018" d="M75.7-2.7c0.2-2.2-0.4-4.8,0.5-6.6c0.2-0.2,0.4-0.5,0.8-0.4c0.8,0.4,1.3,1.3,1.4,2.2
		c0.5-0.1,1.1-0.1,1.3-0.6c0.1-1.1-0.4-2.1-1.3-2.8l-1.6-1.3c-0.8-0.4-1.5,0.4-2.1,0.9c0.4,0,0.7-0.1,0.9,0.1
		c-0.9,1.3-1.2,3-1.2,4.5C74.7-5.2,75.1-3.9,75.7-2.7z"/>
	<path fill="#720018" d="M87.2-6.3c0.6-1.9,2.7-3.2,4-4.8c-0.6-0.1-1.2-0.3-1.9-0.2c-0.7,0.1-1.1,0.8-1.3,1.4
		c-0.2,1-1.5,0.4-1.7,1.4C86-7.7,86.6-6.9,87.2-6.3z"/>
	<path fill="#720018" d="M90.9,6.2c1.5-2.8,4.6-4.6,6.9-6.6c0.5-0.3,0.9-0.6,1.5-0.5c0.7,0.3,0.5,1.2,0.8,1.7c0.5,0,0.8-0.5,1.2-0.8
		c1.3-1,2.5,1,3.8,0.3c-0.1-1.6-1.4-2.8-2.5-4c-1-1.5-0.9-3.5-2.3-4.8h-0.1c-0.4,2,0.4,3.9,1.4,5.5c-2.1,0.4-4.3,1-5.9,2.5
		c-3.2,2.1-5.6,5.3-6,9C90.1,7.7,90.5,6.9,90.9,6.2z"/>
	<path fill="#720018" d="M66.5-0.9c1.4,0.3,2.7,0.1,4.2,0.2c1.3,0.4,2.1,1.6,3,2.7c0.9,1.5,2.4,1.9,4,2.1c-1.8-2.9-4.8-4.2-6.9-6.8
		c-0.9-0.6-2.3-0.4-3.4-0.3l-0.1-0.1c-0.1-0.9,0.7-1.8,1.2-2.1c-0.7,0.3-1.5,0.7-2.2,0.9c0.1-1,0.6-1.9,1.3-2.7
		c-0.7,0.3-1.5,0.8-1.9,1.5c-0.7,2-1.6,3.9-2.7,5.7l1.1,0.6C65.7,1.4,65.1-0.9,66.5-0.9z"/>
	<path fill="#720018" d="M78.6-1.6c-0.7,1.6,1.2,2.6,0.4,4c-0.4,0.9,0.4,1.3,0.7,1.9c0,0.6-0.7,0.5-1,0.9c-0.1,0.6,0.6,0.7,0.9,1.1
		c0.1,0.4-0.3,0.6-0.5,1c-0.4,1,0.7,1.7,0.9,2.6c0.4,0.9-0.1,2-0.1,2.9c0.4-0.5,1-1.1,1.3-1.8c1.1-1.5,1.2-3.7,0.3-5.2
		c-0.4-1.3,1-2.6-0.2-3.7c-0.2-0.5,0.2-0.8,0.4-1.2c0.3-1-0.8-1.1-1.3-1.8C80-1.7,81.1-2.1,81-2.9c-0.4-1-1.6-1.5-2.5-2.1
		C78.6-3.8,78.9-2.7,78.6-1.6z"/>
	<path fill="#720018" d="M69,21.3c-0.3,0-0.4,0.4-0.4,0.6c0.1,0.3,0.5,0.5,0.8,0.3c0.3,0,0.2-0.3,0.3-0.5
		C69.6,21.4,69.3,21.3,69,21.3z"/>
	<path fill="#720018" d="M95.1,21.4c-0.3,0.2-0.2,0.4-0.2,0.7c0.1,0.2,0.3,0.3,0.6,0.3c0.3,0,0.5-0.3,0.4-0.7
		C95.7,21.4,95.4,21.2,95.1,21.4z"/>
	<path fill="#720018" d="M68.2,23.6c0-0.2,0-0.4,0-0.5c-0.2-0.2-0.7-0.3-0.9,0c0,0.2-0.1,0.5,0.2,0.7C67.6,23.9,68,24,68.2,23.6z"/>
	<path fill="#720018" d="M97.4,24.1c0.1,0,0.3,0,0.4-0.1c0.2-0.1,0.3-0.4,0.2-0.7c-0.1-0.2-0.3-0.3-0.6-0.3
		c-0.2,0.1-0.4,0.3-0.3,0.6C97.2,23.9,97.3,23.9,97.4,24.1z"/>
	<path fill="#720018" d="M70.7,24.2c0.2-0.1,0.3-0.4,0.3-0.7c-0.1-0.3-0.4-0.3-0.7-0.3C70,23.4,70,23.7,70,23.9
		C70.1,24.1,70.4,24.4,70.7,24.2z"/>
	<path fill="#720018" d="M95.3,25.1c0.3-0.1,0.2-0.4,0.3-0.7c-0.1-0.3-0.4-0.2-0.7-0.2c-0.2,0.1-0.4,0.3-0.3,0.6
		C94.8,25.1,95,25.2,95.3,25.1z"/>
	<path fill="#720018" d="M68.2,24.9C68,25,67.7,25,67.6,25.3c-0.1,0.3-0.1,0.6,0.1,0.8c0.2,0.2,0.5,0.3,0.8,0.2
		c0.3-0.2,0.4-0.6,0.3-1C68.7,25,68.5,24.9,68.2,24.9z"/>
	<path fill="#720018" d="M97.6,25.3c-0.1,0.1-0.3,0.1-0.4,0.2c-0.2,0.2-0.1,0.3-0.1,0.5c0.2,0.2,0.4,0.3,0.6,0.3
		c0.3-0.1,0.4-0.4,0.4-0.7C98.1,25.4,97.8,25.3,97.6,25.3z"/>
	<path fill="#720018" d="M72.3,25.7c0-0.3-0.3-0.3-0.5-0.4c-0.1,0-0.3,0.1-0.4,0.3c0,0.2-0.1,0.5,0.2,0.7c0.2,0.1,0.5,0,0.6-0.1
		C72.3,26.1,72.2,25.9,72.3,25.7z"/>
	<path fill="#720018" d="M73.7,26.5c-0.1,0.1-0.4,0.1-0.4,0.3c-0.1,0.2,0,0.4,0.1,0.6c0.3,0.3,0.6,0.2,0.9,0.1
		c0.1-0.3,0.1-0.5,0-0.8C74.2,26.5,73.9,26.4,73.7,26.5z"/>
	<path fill="#720018" d="M96.9,27.3c-0.1-0.2-0.3-0.3-0.6-0.3c-0.3,0.1-0.4,0.4-0.4,0.7c0.1,0.2,0.4,0.2,0.6,0.3
		C96.9,27.9,97,27.6,96.9,27.3z"/>
	<path fill="#720018" d="M93.1,27.2c-0.3,0.1-0.5,0.4-0.4,0.7c0.2,0.2,0.5,0.4,0.7,0.3c0.3-0.1,0.3-0.5,0.2-0.7
		C93.5,27.3,93.3,27.1,93.1,27.2z"/>
	<path fill="#720018" d="M70.6,28.2c-0.4,0.1-0.5,0.5-0.4,0.8c0.1,0.2,0.4,0.4,0.7,0.4c0.3-0.1,0.6-0.4,0.5-0.8
		C71.2,28.3,70.9,28,70.6,28.2z"/>
	<path fill="#720018" d="M95,28.5c-0.2,0.1-0.2,0.3-0.3,0.5c0.1,0.3,0.4,0.3,0.6,0.3c0.2-0.1,0.2-0.3,0.2-0.5
		C95.5,28.4,95.2,28.5,95,28.5z"/>
	<path fill="#720018" d="M91.4,28.8c-0.1-0.4-0.8-0.4-1,0c-0.1,0.3,0,0.6,0.3,0.7c0.2,0,0.4,0,0.6-0.1
		C91.5,29.2,91.4,28.9,91.4,28.8z"/>
	<path fill="#720018" d="M73.5,29.3c-0.2,0.1-0.3,0.3-0.3,0.6c0.1,0.2,0.3,0.4,0.6,0.3c0.4-0.1,0.4-0.5,0.3-0.8
		C74,29.3,73.8,29.2,73.5,29.3z"/>
	<path fill="#720018" d="M96.6,30.1c-0.2,0.1-0.5,0.2-0.4,0.5c0.1,0.3,0.3,0.3,0.6,0.3c0.2-0.1,0.3-0.2,0.3-0.4
		C97,30.2,96.7,30.2,96.6,30.1z"/>
</g>
</svg>
