<?xml version="1.0" encoding="utf-8"?>
<!-- Generator: Adobe Illustrator 19.1.0, SVG Export Plug-In . SVG Version: 6.00 Build 0)  -->
<!DOCTYPE svg PUBLIC "-//W3C//DTD SVG 1.1//EN" "http://www.w3.org/Graphics/SVG/1.1/DTD/svg11.dtd">
<svg version="1.1" xmlns="http://www.w3.org/2000/svg" xmlns:xlink="http://www.w3.org/1999/xlink" x="0px" y="0px"
	 viewBox="33 -33 100 100" enable-background="new 33 -33 100 100" xml:space="preserve">

<g id="AREA_1">
	<path fill="#720018" d="M119.5,3.6l-8.1-7c-4.6-3.6-7.2-9.3-13-10.2c-7-1.1-13.3-4.5-20.8-4.1c-1.6,0.2-2.7,0.3-4.4,0.5
		c-3.2,0.6-6,2.3-9.5,2.3c-3.5,0.2-6.6,3-8.2,6.1C50.3-8,45-5.8,42.5-0.7c-1,2.4-4,2.9-4.9,5.3c-0.2,0.9,0.2,1.6,0.5,2.3
		c0.6,2.3,3,3.7,3.7,6c0.8,2.7,3.7,3.7,5.7,5.3c0.2,0.4,0.2,0.9,0.2,1.3c1.1,3.1,4.2,5.1,7.1,5.9l0.1-0.3c-0.2-0.5-0.5-1.1-0.5-1.6
		c0.8,0.2,1.4,0.5,2.2,0.7l0.2-0.2c-0.8-1.6-2.1-3.7-2.2-5.7c0.2-0.7,0.1-1.8,0.9-2.1c2.9-1.6,6.6-1.1,9.3,0.7
		c-0.5,1.3-0.9,2.6-1.7,3.8c-2.5,4.4-1.8,10.1-5.7,13.8c-0.6-0.9-1-2.1-1.7-2.9l-0.3,0l-0.8,0.8c0,0.3-0.1,0.6-0.3,0.9l-0.1-0.1
		c-0.3-0.7-0.9-1.2-1.6-1.2c0,0-0.2,0.1-0.3,0.1c-0.3,1.3-0.2,2.8-0.3,4.3l-0.2,0.2c-1,0.2-1.7,1.3-1.9,2.2c1.6,1.1,1.1,3.1,1.5,4.7
		c0.6,2.2,2.8,3.6,4.8,4.1c1.6,0.5,2.9-0.5,4.1-1.3c3.6-2.7,8.4-4.3,12.9-3.1c3.6,0.8,5.8,4.3,8,7.1c2.3,2.6,5.9,3.5,9.4,2.7
		c4.1-1.2,8-2.8,11.4-5.4c3.9-2.9,3.8-7.8,8-10.2c1.6-1,3.9-0.4,5.3-1.9c2.2-2.7,3-7,7-7.7c1.5-0.8,1.6-2.5,2.2-3.8
		c0.5-1.9,2.5-2.7,3.9-3.8c1.3-1.2,1.7-2.7,2.2-4.2C127.5,11.7,123.6,7.2,119.5,3.6z M40.9,8.4c-0.5-0.3-1-1-1.3-1.6
		c-0.1-0.6,0.3-1,0.5-1.5c0.7-0.1,1.3,0,2,0.2c1.1,0.1,2.2,0.5,2.7,1.6C43.4,7.2,41.5,6.9,40.9,8.4z M53.8,36.4
		c-0.4,0-0.4-0.6-0.6-0.9c-0.2-0.8,0-1.5,0.4-2.2l1,0.7C54.3,34.8,55.3,36.6,53.8,36.4z M91.5,1c0.8,0.1,1.4,0.6,2.1,0.9
		c2.1,0.8,4.2,1.4,6.2,2.5c1.1,0.1,2.1,0.5,3.2,0.5c-0.2,0.5-0.5,1-0.9,1.2c-1.9,0-3.8-0.5-5.8-0.4c-0.9-0.2-1.7,0.4-2.3,1
		c-1-1.3-1.9-2.7-2.8-4.1C91.2,2.1,91,1.4,91.5,1z M64.3-6.9c0.8-0.6,1.8-0.1,2.4,0.5c1.4,0.8,2.8,1.3,4.3,1.9v0.1
		c-1.1,0.5-2.2,1.3-3.6,1.2c-0.6,0.7-1.3,1.7-2.3,1.3c-0.1-0.3,0.4-0.5,0.5-0.8C66-4.5,63.6-5.2,64.3-6.9z M62.9-3.5
		c-0.1-0.4-0.3-0.8-0.8-0.9c-0.4-0.2-0.8,0.1-1.1-0.1c0.2-0.5,0.6-0.8,1.1-1.1c0.8-0.1,1.4,0.4,1.8,1c0.4,0.7,0.3,1.6-0.1,2.3
		c-0.3,0.5-0.8,0.6-1.2,0.8C62.6-2,63.3-2.8,62.9-3.5z M57.7-9.1c0.7-2.1,3-2.7,4.8-3.4c0.5-0.1,0.9-0.2,1.4-0.2
		c-1,0.8-2.8,0.8-3.2,2.5c-0.5,0.6-1.4,1-1.2,1.9c-0.1,1-0.8,2.2-0.1,3.2c0.1,0.1,0.1,0.1,0.2,0.2c-0.1-0.1-0.1-0.1-0.2-0.2
		C58.6-6.1,57-7.3,57.7-9.1z M57.9,0.6c-1.6-0.5-2.9,0.2-4.5,0.3c-0.8,0-1.5,0.4-2.1,0.9c-0.3-0.2-0.3-0.5-0.2-0.7
		c0.6-0.8,1.4-1.7,2.4-1.8c1.3,0,2.7-0.3,4,0l0.3,0.3C57.8,0,58,0.3,57.9,0.6z M52.3-5.7c1.3-0.6,2.2,0.6,3.3,1
		c0.3,0.1,0.5,0.4,0.9,0.4v0.1c-2-0.7-4.2-0.1-6,0.5C50.5-4.6,51.4-5.4,52.3-5.7z M50.3-2.3c0.8-0.5,1.9-0.2,2.7,0.2V-2
		c-1.3-0.1-2.2,0.5-3.2,1C49.9-1.4,50-1.9,50.3-2.3z M50,21.5c-0.7-0.7-0.9-1.6-1.2-2.4l1.3-0.8c-0.3,2.2,2.2,3.3,3.4,4.6l0.2,1.5
		C52.4,23.7,51.2,22.4,50,21.5z M55.3,22.9c-2.4-0.9-3.1-3.4-4.5-5.2v-0.2c0.7-0.3,1.5-0.6,2.2-1l0.2,0.2
		C53.9,18.8,54.7,20.8,55.3,22.9z M61.2,31.9c0.5-0.7-0.5-2.8,1.1-2.4c0.4-0.3,0.3-1.1,0.9-1.1c0.6,0,1.4-0.1,1.9,0.3
		c0.2,0.6,0,1.2-0.3,1.7c-1.2,1.2-1.4,2.8-2.5,3.9c-0.7,0.9-1.3,2.6-2.8,2.2c-0.4,0-0.7-0.4-0.9-0.6C58.5,34.3,60.9,33.5,61.2,31.9z
		 M65.4,33.3c0.5-0.8,1.9-2.8,2.7-1c0,1.2-1,2-1.6,3c-1,0.6-1.9,1.5-3,2.3c-0.4,0.2-0.9,0.2-1.3,0c-0.1-0.2-0.5-0.1-0.5-0.4
		c0.8-0.6,1.8-0.5,2.4-1.4C64.8,34.9,65.6,34.3,65.4,33.3z M66.8,23.7c0-0.3,0.3-0.1,0.4-0.3l1.2-1c0.1,0.6,0.3,1.2,0.6,1.8
		C68.2,24.3,67.4,24,66.8,23.7z M69.5,27.5c0.2,0.8-0.2,1.4-0.5,2c-0.4-0.1-0.6-0.5-0.8-0.8C68,28,69,27.8,69.5,27.5z M55.9,33.8
		c0.7,1.5,1.9,2.9,2.7,4.4c-0.6,0-1.2-0.2-1.8-0.3C55.8,36.7,55.2,35.3,55.9,33.8z M73,32.2c-0.8,3.5-4.8,3.5-7,5.6
		c-1.6,1.6-3.1,4.5-5.8,4.1c-1.3,0-2.8,0.3-3.7-0.8c0-0.4-0.4-0.9-0.1-1.3c1.6-0.6,3.5-0.4,5.2-0.2c2.4-0.2,3.9-2.7,5.8-4.3
		c1.5-1.4,3.9-2.5,3.8-4.9c0.2-2.3-0.8-4.3-0.7-6.7c0-1.5-0.3-3.2,0.5-4.5c1.8,1.4,2.4,4.1,1.7,6.4C72,27.8,72.8,30.1,73,32.2z
		 M70.9,9.2c-1.2-0.5-2.7-0.1-3.9,0.1c-0.2,0.4-0.2,1.1-0.8,1.2c-2,0-1.7-2.4-2.8-3.4c-0.9-0.7-1.6-1.4-2.5-2.2
		c-1.6-0.2-3.6-0.6-5.1,0.3c-0.9,0.3-2.1,0-3-0.6c-0.3-0.5-0.6-0.9-0.7-1.5c0.8-1.4,2.5-1.3,3.9-1.6c1.7,0.1,3.5-0.1,5.1,0.2
		l0.6,0.8c1.2-0.4,2.8-0.2,3.7-1.3c2.7-0.5,4.8-2.2,7.4-2.8c1-0.2,1.9-0.3,2.9-0.5l4.7,0c0.6,0.1,1,0.6,1.3,1
		c-3.3-0.7-6.4,0.6-9.6,0.7c-2,0.8-4.1,1.3-6,2.2c-0.6,0.5-0.9,1.4-1.3,2.1c-0.2,0.4,0.2,0.6,0.5,0.8c0.7,0.4,1.2-0.4,1.9-0.5
		C69.4,3,72.2,3.3,75,3.4c1.5,0.3,2.9,0.3,4.2,1c1.1-0.1,1.9,0.5,2.8,1c1,0.3,2,0.6,3,0.9v0.1c-1.4-0.3-3.2-0.2-4.6-1
		c-1-0.1-2-0.4-2.9-0.8c-3.8,0-7.9-0.2-11.1,1.6c-0.3,0.2-0.6,0.6-0.5,0.9l0.2,0.5l4.2,0c0.9,0.3,2.4,0.1,3.3,0.8
		c2,1.8,4.3,3.1,6.1,5.2c1.6,0.2,1.5,2.2,3.1,2.4c0,0,0,0.1,0,0.1c-1.2-0.1-2.6,0.4-3.7-0.4c-1.5-0.6-1.6-2.3-3.2-2.6V13
		C74.9,10.9,72.8,10.1,70.9,9.2z M92.7,29.3c-0.5,1.4-1.6,2.8-3,3.7c-1.4,1.4-3,2.8-4.8,3.5c-2,1.3-4.4,1.6-6.7,2.3
		c-1.3,0.3-2.7,0.3-3.9,0.7c-0.3-0.1-0.7,0.2-0.8-0.2c0-0.7,0.7-1.1,1-1.7c0.3-1.2,1.8-0.6,2.7-1c1.9-0.6,3.9-1.1,5.7-1.9
		c1.1-0.5,2.3-0.8,3.2-1.7c2.1-0.5,3.4-2.7,4.7-4.3c0.4-0.7,0.9-1.4,1.2-2.1C92.5,27.3,93.1,28.2,92.7,29.3z M110.8,10.2
		c-2.3,2.2-5.4,2.8-8.1,4.4c-2.8,0.6-6.2,2.2-8.8,0.4c-0.2-0.3-0.6-0.5-0.7-0.8c1.6-0.3,3.8-0.1,5.4-0.7c1.6-0.3,2.8-1.6,4.4-2.2
		c2.4-1.9,6.8-2.2,7.2-6.1c-0.1-1.1-0.7-2-1.7-2.6c-0.9-0.5-2-0.6-3.1-0.8l-5.8-1.6c-1.5-0.7-3.1-2.2-3.4-3.9l0.1-1.7
		c3.4,3.5,7.5,5.4,12,6.3c1.6,0.7,3.8,1,4.5,3C113.4,6.3,112.6,8.7,110.8,10.2z"/>
</g>
</svg>
