<?xml version="1.0" encoding="utf-8"?>
<!-- Generator: Adobe Illustrator 19.1.0, SVG Export Plug-In . SVG Version: 6.00 Build 0)  -->
<!DOCTYPE svg PUBLIC "-//W3C//DTD SVG 1.1//EN" "http://www.w3.org/Graphics/SVG/1.1/DTD/svg11.dtd">
<svg version="1.1" xmlns="http://www.w3.org/2000/svg" xmlns:xlink="http://www.w3.org/1999/xlink" x="0px" y="0px"
	 viewBox="33 -33 100 100" enable-background="new 33 -33 100 100" xml:space="preserve">

<g id="AREA_1">
	<g>
		<path fill="#720018" d="M93.4-4.5c0.9-1.4,1.2-1.7,2.5-3.9c0.6-0.9,1-1.5,2.1-3.2c1.4-2.4,2.9-4.7,4.4-7c0.2-0.3,0.3-0.6,0.3-0.7
			c-0.3-0.4-0.9-1.1-1.1-1.1c-0.2,0.4-4.6,7.2-7,10.7c-0.2,0.1-2.2,3.2-2.2,3.2l-0.2,0.1c-0.8,1.4-1.8,2.7-2.7,4.1
			c-0.1,0.3-0.3,0.6-0.7,0.7c-0.1-0.1-0.2-0.2-0.2-0.4c0.1-0.5,0.4-0.6,0.8-0.9c0.4-0.8-0.1-1.7-0.2-2.4c-0.4-0.9-0.4-2-1-2.8
			c-0.9-0.7-3.4-2.6-3.7-2.8c-0.3-0.2-0.9-1.4-1.1-1.5c-0.2-0.1-0.9-0.4-1.5-0.7c-0.3-0.2-0.3-0.4-0.5-0.5c-0.1-0.2,0.1-1.1,0.4-1.4
			c0.2,0,0.2-0.1,0.4,0c0.1,0,1-0.5,1.3-0.7c0.1-0.7,0.2-1.9,0-2.6c0.1-0.2,0.2-0.3,0.1-0.5c0.1-0.2,0-0.6,0.3-0.8l0,0l0.3-0.5
			c0.1,0.1,0.2,0,0.2-0.1c0.3,0.1,1-0.4,1.2-0.4c0.7-0.2,1-1.1,1.1-1.9c0-1,0.3-2.5-0.8-3c-0.2-0.1-0.3-0.3-0.6-0.5
			c-2.3-2.6-3.4-2.4-3.8-2.5c0,0-2.7-0.4-4.8,0c-0.7,0.1-1.4,0.3-1.7,0.4c0,0-1.1,0.7-1.3,0.7c-0.8,0.7-1.7,1.4-2.3,2.3
			c-0.5,1.4-1.9,3.5-1.8,6.4c0.1,0.3,0.4,0.4,0.5,0.8c0.1,0.2,2.2,0.5,2.3,0.6c0.1,0.1,0.1,1.1,0.2,1.3c0.1,0.3,0.7,0.6,0.7,1.1
			c-0.1,0.5-0.9,1.7-0.7,1.9c0,0.2,0.4,0,0.4,0.3C73.2-12,72.1-12,72.1-12c-0.3,0.1-0.8-0.1-1.1,0.2c0.2,0.2-0.2,1-0.9,1
			c-0.6,0.9-1.2,1.9-1.8,2.9c-0.3,0.6-0.9,0.8-1.3,1.4c-0.3,0.9-0.8,1.8-0.7,2.9c-0.1,0.4-0.5,3.3-0.5,4.3c0,0.2-0.3,0.1-0.4,0.3
			c-0.9-0.1-0.8,0.8-1.1,1.4c-0.1,0.5-0.5,2,0.1,2.9c0.3,0.3,0.6,0.3,0.7,0.7c-0.1,0.4-0.4,1.2-0.2,1.4c0.2,0.2,0.2,0.3,0.6,0.7
			c0.1,0.9,0.8,1.5,1.3,2.2c0.1,0.2,5.6,4,6.7,4.6c0.3,0.2,0.6,0.1,0.5,0.6c-0.8,1.1-1.6,2.3-2.5,3.4c0,0-0.4,0.6,0.5,1.2
			c0.2,0.1,1.1,0.5,1.8,0.1c0,0,0.4,0.2-0.1,0.6c-0.3,0.3-0.3,1-0.9,0.9c-0.1-0.2-0.6-0.1-0.6-0.1c-0.5,0.1,0,0.7-0.4,0.9
			c-0.3,0-0.5-0.2-0.6-0.2c-0.1,0-0.3,0.1-0.4,0.3c-0.5,0.4,0.4,1.1,0.5,1c0.1,0,0.2,0,0.2,0.1c0,0.1-0.2,0.1-0.2,0.3
			c0.1,0.2,0.4,0.2,0.7,0.4c0.1,0.1,0.2,0.5,0.1,0.8c-0.3,0.5-0.6,0.9-0.8,1.5c0.2,0.9-0.3,1.7-0.6,2.5c-1.2,1.8-2.2,3.6-3.2,5.5
			c-0.9,1.2-1.5,2.6-2.3,3.9c-0.2,0.6-0.8,1.2-0.6,1.8c1.7,1.1,2.9,2.4,3.5,2.7c0.4,0.1,0.8-0.1,1-0.3c0.2-0.2,0.1-1.1,0.3-1.5
			c0.2-1,0.5-1.9,0.9-2.9c0.4-0.9,0.6-1.9,1.2-2.8c0.9-2.5,1.2-5.6,3-7.5c0.3,0.8,0,1.7,0,2.5l-0.4,0.4c-0.1,1-0.3,2-0.4,3
			c0.3,0.4,0.1,1-0.1,1.4c0,0.3,0.2,0.3,0.3,0.5c-0.2,0.3-0.5,0.6-0.6,1c0.2,0.3,0.7,0.2,1.1,0.6c-0.5,0.2-0.6,0.4-0.8,0.6
			c-0.3,0.2-0.4,0.4-0.5,0.8c-0.3,0.6-0.2,1.3,0.2,1.8c0.2,0.5-0.3,0.8-0.5,1.2c-0.8-0.1-1.4-0.2-1.5,0c0.3,0.5,0.2,1.2,0.4,1.6
			c-0.3,2.4-0.5,4.9-1,7.2c-0.1,0.3,0,0.8-0.4,1c-0.4,0.2-1.1-0.1-1.5,0.1c-0.3,0.3-0.1,1.4-0.9,1.9c-0.4,0.3-2.8,1.2-3,1.2
			c-0.9,1.2-2.2,1-2,1.3l0.6,0.7c0.8,1,1.3,2.6,2.3,3c0.8,0.2,1.7-0.6,2.4-0.3c0.5,0.3,0.3,0.8,0.3,0.8s-0.4,0.9-0.4,1.2
			c0.1,0.2,0.2,0.3,0.4,0.4c0.4,0.2,0.2-0.4,0.5-0.5c0.9-0.2,2.3,1.2,3.4,1.1c2.1-0.5,4.8-1.5,5.2-1.6c0.6-0.1,4.3-1,4.7-1.1
			c0.5-0.2,1-0.1,1.2,0c0.4,0.1,1.4,0,1.9-0.1c1.2-0.2,2.3-0.3,2.4-0.3c0.9-0.1,1.5-0.3,3.4,0.2c1.3,0.4,3.2,0.4,3.9,0.2
			c1-0.5,2.1,0,3.1,0c0.3,0,0.7,0.2,0.8-0.2c-0.1-0.5-1.1-3.8-1.4-5c-0.6-2.5-0.9-5.3-1.6-7.7c0,0-0.7-1-0.4-1.3
			c0.4,0,1.7-0.7,1.9-1.1c0.2-0.5-0.3-0.8-0.5-2.7c-0.1-0.5-1-2.8-1.3-3.8c0.5-1.2,0.9-2.8,1.9-3.7c0.3-0.3,1.5-0.6,1.8-0.6
			c0.3-0.1,2.3-0.7,2.5-0.7c0.2-0.3,0.1-1.5-0.1-1.6c-0.9,0.1-3.8,0.1-4.5,0.5c-0.7,0.5-2.5,2.7-3.3,4.4c0,0-1.5-1.2-1.6-1.4
			c-0.1-0.2,0.1-0.3,0.3-0.3c0.2,0,0.2-0.1,0.3-0.2c0-0.3-0.4-0.2-0.4-0.2c-0.3,0-0.4,0.2-0.7,0.2c-0.1-0.1-0.3-0.3-0.3-0.6
			c0-0.2,0-0.4,0.1-0.7c0.7-2.2,1.4-4.2,1.5-6.6c-0.1-0.4,0.2-1.2,0.1-1.3c-0.1-0.1-0.2-0.2-0.3-0.3c0-0.1,0.1-0.1,0.1-0.1
			c0.1,0.2,0.6,0.2,0.7,0.1c0.2-0.2,0.7-0.1,1.5-0.8c0.4-0.3,0.3-0.9,0.4-1.3c0-0.3,0-0.4-0.4-1c-0.1-0.2-0.2-0.5-0.8-0.4
			c-0.2,0.1-0.6,0.1-0.8,0.4c-0.1,0.3-0.7,0-0.9,0.3c-0.2-0.3-0.1-0.7,0-1.1c0.1,0,0.2,0.1,0.3,0.2c0.9,0.2,0-0.7,0.5-0.9
			c0-0.3,0.4-0.2,0.5-0.4c0-0.7,0-1.5,0-2.2c-0.2-0.6-0.4-1.2-0.5-1.8c0-0.9-0.1-1.7-0.1-2.7c-0.3-1.2-0.7-2.3-0.9-3.6
			c-0.5-2.6-1.2-5.5-1.9-8.1c-0.1-0.5,0.2-0.9,0.5-1.4C91.1-0.9,93.2-4,93.4-4.5z M98.2-14.5c1.1-1.7,2.2-3.4,3.3-5.1
			c0.3-0.3,0.6,0.4,0.3,0.6c-1.2,1.6-2.2,3.4-3.3,5.1c-0.1,0.1-0.3,0-0.4,0.1C97.9-14.1,98.1-14.4,98.2-14.5z M94-6.2
			c-0.3,0.3-0.2,1-0.7,1.1C93.3-5.5,93.7-5.9,94-6.2z M84.9-21.1c0.1-0.1,0.1,0,0.2,0c0-0.1,0.4-0.2,0.3,0.1
			c-0.1,0.3-0.3-0.1-0.4,0.1C84.8-20.9,84.8-21.1,84.9-21.1z M84.3-25.2c0.1-0.2,0.2,0,0.2,0.1c0,0.1,0,0.2-0.1,0.3
			C84.2-24.8,84.2-25.1,84.3-25.2z M84.8-20.9c-0.2,0-0.3,0.2-0.6,0.1C84.3-21,84.6-21,84.8-20.9z M94.6,23.4
			c-0.1,0-0.3,0.1-0.4-0.1c0-0.1-0.3-0.3-0.1-0.4c0.2,0.1,0.3,0.1,0.5,0.3V23.4z M94,21.7c0.2,0,0.5-0.1,0.6,0.1
			c0.2,0.1,0.3,0.5,0.2,0.8l-0.1,0.1c-0.3-0.1-0.7-0.2-0.8-0.6C93.9,22,93.9,21.9,94,21.7z M93.2,22.7c0.1,0.3,0.2,0.6,0.4,0.8
			c0,0.2-0.1,0.1-0.2,0.3c-0.2,0-0.3,0.2-0.5,0.3l-0.1-0.1C92.9,23.5,92.9,23,93.2,22.7z M85.8-9.5c0.2,0.1,0.4,0.2,0.6,0.4
			c0.1,0.1,0.2,0,0.2,0.1c0.5,0.3,0.8,0.8,1.3,1.1c0.5,0.4,0.5,1.4,0.7,2c0.2,0.9,0.5,1.9,0.4,2.9c-0.2,0.2-0.6,0.2-0.7,0.6
			c-0.1,0.3-0.1,0.5,0,0.8c0.2,0.1,0.3,0.2,0.6,0.2c0,0.6-0.5,0.9-0.8,1.4c-0.9,1.1-1.4,2.3-2.3,3.4c0,0.2-0.3,0.2-0.4,0.3
			c-0.2-0.2,0-0.6-0.2-0.9c0-0.2,0.1-0.3-0.1-0.4c-0.1-0.3-0.1-0.9-0.4-1.1c0-0.2,0.2-0.3,0.3-0.5c0.9-0.9,1.4-2,2.1-3.1
			c-0.1-1.1,0.3-2.1,0.3-3c-0.3-0.5-0.4-1.2-0.7-1.7c0-0.6-0.5-0.9-0.6-1.4c-0.1-0.1-0.2-0.3-0.1-0.5C86-8.7,86-8.8,86-8.9
			c-0.2,0-0.3-0.1-0.4-0.3C85.6-9.4,85.8-9.3,85.8-9.5z M88.1,11.2c-0.3,1.3-1.1,2.5-1.5,3.7c-0.3,0.2-0.2,0.8-0.7,0.7
			c-0.1,0.1-0.2,0.1-0.3,0.1c-0.1-0.5,0.2-0.8,0.3-1.3c0.3-0.4,0.4-1,0.7-1.4c0-0.2-0.2-0.2-0.2-0.3c0,0-0.1,0-0.1,0.1h-0.1
			c0-0.6,0.4-1.2,0.5-1.8l0.4-1.4c0,0.2,0,0.5,0.2,0.7c0.2,0.1,0.4,0.2,0.6,0.2c0.5-0.4,0.5-1.2,0.9-1.7c0.2,0.2,0.1,0.5,0.1,0.8
			c-0.4,0.3-0.2,0.9-0.5,1.2C88.4,11,88.2,11,88.1,11.2z M87,19c-0.2,0.3-0.3,1-0.8,0.9c0.1-1.3,0.2-2.6,0.7-3.7
			c0-0.2,0.6-0.6,0.6-0.1c0,0.7-0.4,1.3-0.3,2C87.1,18.3,87,18.6,87,19z M89.8,32.8l-0.2,1.5c0,0.3,0.3,0.1,0.5,0.1
			c0.1-0.1,0.2-0.1,0.4-0.1c0.1,0.5,0.3,0.9,0.3,1.4c0,0.1,0,0.3-0.1,0.4l0,0c-0.2,0.1-0.1,0.3,0,0.4c0.1,0.1,0.3,0.2,0.2,0.4
			c-0.2,0.2-0.4,0.3-0.5,0.5c-0.2,0.1-0.2-0.3-0.4-0.4v-0.1c-0.4-0.1-0.5,0.4-0.8,0.6c-0.2,0.3-0.5,0.6-0.9,0.7c-0.3-0.4-0.5-1-1-1
			c0-0.2-0.2-0.1-0.3-0.1c-0.3,0.2-0.8,0.6-0.8,1.1c-0.4,0-0.9,0.1-1.3-0.1c0-0.5,0.7-0.9,0.3-1.4c-0.7-0.5-0.5-1.6-0.5-2.4
			c0.3-0.4,0.1-0.8,0.2-1.4c0.2-0.1,0.6-0.1,0.6-0.5c0-0.2,0.2-0.3,0.3-0.4c0.2-0.5,0.3-1.2,0.7-1.6c0.2,0.1,0.4,0.1,0.5,0
			c0.1-0.2,0.3-0.1,0.4-0.3c0.1,0.2,0.4,0,0.6,0.1c0.1-0.2,0.5,0,0.7-0.1c0,0.2,0.2,0,0.3,0.1l0.1-0.1c0.1,0.2,0.6-0.1,0.7,0.2
			c0.1,0.3,0,0.7-0.1,1C89.7,32,89.5,32.6,89.8,32.8z M90.6,33.7l0-0.3c0.1,0,0.1,0.2,0.1,0.3H90.6z M85.4,40.4L85.4,40.4L85.4,40.4
			c0.4-0.2,1,0.1,1.3-0.3c0.2,0.2,0.3,0.2,0.6,0.1c0.3,0,0.7-0.1,0.9,0.1c0.2,0.1,0.3,0,0.5,0.1c0.2-0.2,0.4,0.2,0.6,0
			c0.1,0.2,0.4,0,0.4,0.3c0,0.2-0.1,0.5,0.1,0.6c0.2,0.1,0.3,0.2,0.6,0.2v0.3c-0.1,0-0.1,0.4-0.3,0.3c-0.2,0.2-0.3,0.5-0.7,0.4
			c-0.1-0.1-0.4-0.2-0.6-0.2c-0.3,0-0.5-0.2-0.7-0.2c-0.1-0.2-0.3-0.2-0.4-0.3l-2.9-0.1c-0.1-0.4,0-0.7,0.1-1.1
			C85,40.7,85.2,40.4,85.4,40.4z M85,39.6l0-0.2c0.1,0.1,0.3,0,0.3,0.1l0.5,0v0.1c-0.2,0.1-0.5,0-0.7,0.1
			C85.1,39.8,85.1,39.7,85,39.6z M87,38c0.2,0.1,0.3,0,0.4,0.2c-0.1,0.2-0.2,0.3-0.5,0.2C86.6,38.3,86.9,38.2,87,38z M83.7,38.8
			c0.7,0.9,0.1,2.2-0.2,3c-0.3,0.2-0.5,0.5-0.7,0.7c-0.1,0.2,0.1,0.2,0.2,0.3c0.1,0,0.4,0.1,0.4-0.1l0.2,0.2
			c-0.2,1.4-0.4,2.8-0.5,4.2c0.2,0.5,0.4,1,0.4,1.6c-0.1,0.2-0.4,0-0.5,0.2c-0.4,0.2-0.8,0.1-1.2,0.4c-0.2,0.2-0.7,0.1-0.9,0.4
			c-0.3-0.1-0.3,0.1-0.6,0.1c0,0.2-0.3-0.1-0.3,0.2c-0.2-0.1-0.4,0.2-0.6,0.1c0,0.2-0.2,0-0.3,0.1c-0.3,0-0.3,0.3-0.7,0.2
			c-0.2,0.1-0.2,0.2-0.5,0.2c-0.3,0.3-0.7,0.2-1,0.4c-0.1,0.1-0.3,0.1-0.4,0.2c-0.2,0-0.3,0.1-0.5,0.1c-0.1,0.1-0.2,0.1-0.4,0.1
			c-0.3-0.3,0-0.7,0.1-1c0.2-1.1,0.9-1.9,1.5-2.8c0.3-1.1,0.6-2.3,1-3.4c-0.4-1.1,0-2.1,0.2-3.2c0.2-0.1,0-0.3,0.1-0.4
			c0.2-0.6,0.7-1.2,0.7-1.9c0.3-0.5,1-1,0.6-1.7c0.1-0.6,0.6-1,0.8-1.5c0.1-2.1,0.5-4.1,1.3-5.9c0.3-1.3,0.8-2.5,1.2-3.8
			c0.2-0.2,0.6-0.3,0.7,0.1c0.2,0.4,0.1,0.9-0.2,1.2c-0.3,0.7-0.1,1.6,0.1,2.3c0.3,0.4-0.2,0.8-0.2,1.2c-0.1,0.6,0.8,1,0.2,1.5
			c0.1,0.5,0.3,0.9,0.2,1.4c-0.4,0.9-0.5,2.4,0,3.3c0.1,0.2,0.5,0.6,0.2,0.9C83.9,37.9,83.5,38.4,83.7,38.8z M80.2,34.3
			c0.1,0.1,0.1,0.5,0.1,0.7c-0.1,0.1,0,0.4-0.3,0.3C79.9,34.9,80.1,34.6,80.2,34.3z M81.8,24.6c0.1,0.2,0,0.5-0.1,0.7
			C81.6,25.2,81.7,24.9,81.8,24.6z M84.1,16.6c-0.2-0.1-0.5,0-0.7-0.1l-1.9-0.1c-0.1,0.2-0.3,0-0.4-0.1c0.1-0.1,0.2-0.2,0.4-0.2
			c0-0.5,0-1-0.4-1.4c0-0.2,0.2-0.4,0.3-0.5c0.5-0.7,0.8-1.4,1.4-2.1c0.2,0,0.3-0.3,0.5-0.4c0-0.2,0.2-0.4,0.4-0.5
			c0.3-0.3,0.3-1,0.9-1c0.1,0.2,0.4,0.1,0.5,0c0.1-0.1,0.3-0.3,0.4-0.3c0.1,0,0.2,0.3,0.4,0.1c0.2,0.3,0.5,0,0.6,0.4
			c-0.5,1.6-1.1,3.2-1.5,4.9C84.6,15.8,84.6,16.4,84.1,16.6z M78.6,13c-0.1-0.1-0.2-0.2-0.4-0.2c-0.4-0.1-0.9-0.5-1.3-0.6
			c-0.1-0.1-0.3-0.1-0.3-0.3c1-1.9,2.1-3.5,3.3-5.3L80,6.5c-0.2,0.5-0.6,0.8-0.7,1.3c-0.4,0.7-0.9,1.5-1.1,2.4l0,0.1
			c0.2-0.2,0.4-0.5,0.4-0.9c0.3-0.2,0.5-0.5,0.5-0.9c0.5-0.2,0.4-0.8,0.8-1c0.4-1,1.3-1.5,2-2.3c0.6-0.9,1.6-1.6,2-2.7
			c0-0.1,0-0.3,0.2-0.4c0.3,0.1,0.2,0.5,0.3,0.7c0.1,0.5-0.1,1.2,0.3,1.6c0.1,0,0.2,0.1,0.2,0.2c-0.2,0.3-0.3,0.6-0.6,0.7
			c-0.1-0.2,0.1-0.8-0.3-0.7c-0.3-0.1-0.3,0.2-0.5,0.4C83.4,5.9,83,6.5,83,7.2c0.2,0.1,0,0.3-0.1,0.4c-1,1.4-2.1,3.1-3,4.6
			c0.1,0.1,0,0.2,0.1,0.3c0.6-0.3,0.7-1,1.1-1.5c0.5-0.7,1-1.7,1.6-2.3c0.1-0.1,0-0.2,0.1-0.4c0.4-0.3,0.5-1.1,1-1.3
			c0.1-0.3,0.2-0.6,0.5-0.8c0.1,0.2-0.1,0.5-0.3,0.7c0.5,0.8-0.5,1.3-0.7,2.1c-0.2,0.1-0.2,0.5-0.4,0.7l0.1,0.2
			c0.2,0,0.3-0.4,0.5-0.3c-0.1,0.2-0.1,0.5-0.4,0.6c-0.2,0-0.2-0.4-0.5-0.3c-0.7,0.3-0.9,1.1-1.5,1.7c-0.2,0.6-0.7,1.1-1,1.7V14
			c-0.7,0.1-0.6-1-1.4-0.9V13C78.8,13,78.7,13,78.6,13z M78,6.4c-0.2-0.2-0.5-0.1-0.7-0.4C77,6,77,5.8,76.7,5.8
			c-0.2-0.1-0.5-0.2-0.7-0.4h-0.3c0-0.1-0.4-0.1-0.2-0.3c0.3,0,0.7-0.1,1-0.2c0.1-0.1,0.3-0.1,0.4-0.2c0.6,0,0.9-0.7,1.5-0.9
			c0.3-0.3,0.5,0.3,0.7,0.4l0.4,0.6l0.1,0c0.2,0.2,0.4,0.5,0.4,0.8c-0.8,1-1.7,2.1-2.3,3.3c-0.4,0.4-0.6,1-1,1.4l-0.1,0
			c0.4-1,0-2.1-0.2-3.1c0.6,0.1,1.1-0.1,1.4-0.4C78,6.6,78,6.5,78,6.4z M71.7,3.8c-0.1-0.1-0.5-0.2-0.6-0.4C71.2,3,71.6,3.3,71.8,3
			c0.3,0,0.6,0,0.7,0.3c0,0.3,0,0.6,0.2,0.8c0.3,0,0.5,0.6,0.7,0.8c0.1,0.2,0.2,0.3,0.4,0.5c0.3,0.1,0.8-0.1,0.7,0.5
			c0.5,0.6,0.4,1.5,1,1.9c0.1,0.4,0.4,0.9,0.3,1.4c0.1,0.2,0,0.5,0.1,0.8c0,0.5,0,0.9,0.3,1.3c0,0.1-0.2,0.3-0.3,0.3
			c-0.5-0.3-0.9-0.6-1.3-0.9c-0.3,0-0.2-0.4-0.5-0.4c-1.2-1-1.7-2.7-2.8-3.9V6.3c0.2,0.1,0.3-0.1,0.4-0.3c0.2-0.6,0.4-1.1,0.6-1.7
			C72.3,3.9,71.7,4.2,71.7,3.8z M71.8-0.1C71.7,0,71.7,0,71.6,0c0.2-0.8,0.6-1.6,0.9-2.4h0.1c0.1,0.5-0.2,1.1-0.1,1.8l-0.3,0.9
			c0,0.5,0.4,0,0.5,0.4c0,0.5,0,1.1-0.3,1.5c-0.3-0.1-0.4-0.5-0.7-0.3c-0.2-0.1-0.4-0.2-0.6-0.4C71.3,0.9,71.7,0.5,71.8-0.1
			L71.8-0.1z M71-1.3L71-1.3c-0.2-0.8-0.1-1.7,0.1-2.4C71.4-3,71.1-2.1,71-1.3z M75-5.4c0.1,0.4,0.1,0.7,0,1.1l-0.2,0.1
			c-0.3-0.4,0.1-1-0.1-1.5c0.1-0.1,0.2-0.2,0.2-0.4C75.1-6,74.9-5.6,75-5.4z M75.6-3c0.3,0,0.4,0.3,0.5,0.6c0,0.2-0.2,0.3-0.5,0.3
			C75.4-2.4,75.5-2.8,75.6-3z M76.9,0.7c0.2,0.8,0.3,1.7,0.7,2.4l0.1,0.5c-0.5,0.1-0.4-0.5-0.7-0.7C76.7,2,76.6,1,76.1,0.2l0.2-1.4
			c0.1,0.1,0.2,0.3,0.2,0.5C76.2-0.1,76.8,0.2,76.9,0.7z M76.9,4.2c-0.2,0.2-0.3,0.1-0.6,0.2c-0.1-0.2-0.1-0.4,0-0.6L76.9,4.2
			L76.9,4.2L76.9,4.2z M80.5,5.8c0-0.5,0.7-0.4,0.7-0.9c0.2-0.1,0.4-0.4,0.6-0.4c-0.4,0.4-0.7,0.9-1.2,1.3H80.5z M83.9,1.5
			c1-1.4,1.7-2.8,2.3-4.5c0.2-0.4,0.3-0.7,0.6-1.1c0.2,0.1,0.1,0.4,0.1,0.5c-0.1,0.3-0.4,0.7-0.2,1c0.2,0,0.1,0.2,0.2,0.3
			c-0.6,1.5-1.5,2.5-2.6,3.7c-0.6,0.8-1.2,1.9-1.8,2.4C82.8,3.1,83.2,2.1,83.9,1.5z M82.4-1.6c0-0.3,0.3-0.1,0.4-0.1
			c0.1,0.6,0,1.2,0,1.8C82.3-0.3,82.5-1.1,82.4-1.6z M83.7,0.9c-0.1,0.1-0.1-0.1-0.1-0.1c0-0.1,0.2-0.3,0.3-0.2
			C83.9,0.6,83.8,0.8,83.7,0.9C83.6,0.8,83.7,0.8,83.7,0.9z M84.6,8.3c0-0.2,0.2-0.4,0.3-0.5C84.9,8,84.6,8,84.6,8.3z M85.5,6.8
			c0.1-0.1,0.2-0.3,0.4-0.4C85.8,6.6,85.7,6.7,85.5,6.8L85.5,6.8z M85.8,26.4c-0.2,0.5-0.3,1.2-0.7,1.6H85c-0.1-0.7,0.1-1.3,0.4-1.9
			C85.6,26.2,85.8,26.2,85.8,26.4z M86.1,23.6c0,0.1-0.1,0.4-0.2,0.5C85.8,24,85.9,23.7,86.1,23.6z M86.3,20.7
			c0.2,0,0.1-0.1,0.3-0.2c0,0.4-0.1,1-0.4,1.2C85.9,21.3,86.2,21,86.3,20.7z M87.8,21.3c0.5-0.3,0.8-1,1.4-1.3l0.1,0l-0.1,0.3
			c-0.6,0.8-1.2,1.5-1.8,2.2h-0.2C87,21.9,87.6,21.7,87.8,21.3z M87.9,3.4l-0.1,0c0.2-0.5,0.5-0.7,0.7-1.2C88.7,1.7,89,1.4,89.3,1
			l0.1,0C89,1.8,88.3,2.5,87.9,3.4z M81.7-10c0,0,0.1,0,0.2,0c0.1,0.1,0,0.3-0.1,0.4h-0.2c0-0.2-0.2-0.1-0.2-0.2
			C81.6-9.9,81.6-10.1,81.7-10z M82.7-27.7c0.4,0.3,1,0.5,1.4,1l0,0.1c-0.2,0.1-0.4,0.3-0.6,0.2c-0.3,0-0.2-0.8-0.6-0.4
			c-0.1,0-0.3-0.2-0.3-0.4L82.7-27.7z M82.4-22.9c-0.3-0.1-0.9-0.2-1.2,0.1c-0.2-0.1-0.1,0.2-0.3,0.1c-0.2,0.1-0.5,0.1-0.6,0.4
			c0.1,0.2,0.2-0.1,0.4,0c0.2-0.3,0.7-0.2,0.9-0.5c0,0.2,0.3,0,0.3,0.2c-0.6,0-0.9,0.4-1.3,0.7c-0.1,0.4,0.4,0.2,0.6,0.2
			c0.2,0.4,0.5,0.6,1,0.7c0.4,0,0.5-0.9,1-0.5l0.1,0c0.4,0.4,0.6,0.8,0.9,1.3c0.1,0.3-0.4,0.1-0.4,0.3c-0.3,0.1-0.6,0.2-0.8,0.4
			c-0.2,0.5,1.1,0.9,0,1c-0.2,0.1-0.2-0.3-0.4-0.2c-0.1,0.2-0.4,0.3-0.3,0.6c0.1,0.4,0.2-0.1,0.4,0.1c0.1-0.2,0.3,0,0.5-0.2
			c0.1,0,0.2,0,0.1,0.1c0.1,0.1-0.1,0.1-0.1,0.1c-0.1,0.1-0.4,0.3-0.2,0.6c0.4,0,0.6,0.1,0.8,0.5c0,0.3,0.1,0.6-0.1,0.8
			c0,0.1-0.2,0.1-0.3,0.1c-0.2-0.4-0.7-0.5-0.9-0.9c-0.3,0-0.6,0.2-0.8,0.1c-0.3-0.1-0.5-0.6-0.9-0.6c-0.1-0.2-0.4,0.1-0.4-0.1
			c-0.4-0.1-0.5-0.3-0.8-0.5c-0.1,0.2-0.3,0.1-0.5,0.1c0-0.6-0.9,0.1-0.6-0.7c0-0.1,0.1-0.4-0.1-0.5c0,0.1-0.2,0-0.3,0.1
			c-0.3,0-0.5,0.6-0.8,0.1c-0.3-0.4-0.5-0.9-1-1c0.1-0.1,0.2-0.1,0.3-0.2c0.1,0,0.3,0.1,0.3-0.1c0.3,0.1,0.5,0.6,0.8,0.5
			c0-0.2-0.5-0.4-0.2-0.7c0.2-0.1,0.3-0.2,0.5-0.1c0.2,0,0.3,0.3,0.4,0.1c0.6,0.5,1.1,0.9,1.4,1.7c0,0.5,0.7,0.2,0.5,0.9
			c0.2,0.2,0.4,0.3,0.7,0c0-0.3,0-0.7,0.3-0.8c0.1,0,0.3,0,0.4,0.1c0.5-0.2,0.7-0.7,1-1c0-0.2,0-0.6-0.3-0.6
			c-0.2-0.1-0.2,0.1-0.3,0.1l0,0.2c-0.1,0.3-0.4,0.6-0.8,0.5c-0.1-0.3,0-0.8-0.4-0.9c-0.2,0-0.1,0.1-0.3,0.1c-0.2,0-0.3-0.2-0.5-0.1
			c-0.3,0-0.2,0.3-0.4,0.4c-0.2,0-0.3-0.4-0.6-0.4l-0.6-0.7c-0.1,0.1-0.2-0.1-0.2-0.1c-0.3-0.3-0.2-0.7-0.3-1.1
			c-0.1-0.2-0.3-0.1-0.5-0.1v-0.1c0.2,0,0.5,0.1,0.6-0.1c0.1,0.1,0.2,0,0.3,0c0.2-0.2,0.4-0.4,0.7-0.5c0.4-0.5,0.3-1.2,0.9-1.5
			c0.1-0.1,0.3,0.3,0.4,0c0.4,0.3,1.1-0.2,1.3,0.3c0.3,0.4,0.4,0.9,0.9,1C82.4-23,82.5-22.9,82.4-22.9z M80.2-11.9
			c0.2,0.3,0.7,0.6,0.6,1.1l-0.1,0.1c-0.2-0.1-0.4-0.6-0.5-0.9C80.2-11.7,79.9-11.8,80.2-11.9z M74.2-17.8c0.1-0.3,0.5-0.3,0.7-0.5
			c0.4,0,0.6-0.4,0.9-0.6l0.1,0.1c-0.3,0.9-0.5,2.1-1.5,2.5v0.1h-0.1C74-16.8,74.2-17.3,74.2-17.8z M77-23.9c0.3,0,0.3-0.2,0.5-0.1
			c0.4-0.1,0.7-0.1,1.2-0.2c0.3,0.1,0,0.4,0,0.6c-0.2,0.2-0.3,0.6-0.6,0.7v0.1c-0.1,0.1-0.2-0.1-0.3,0.1l-0.7,0v-0.1
			c-0.2,0-0.5-0.1-0.6-0.3C76.4-23.5,76.8-23.7,77-23.9z M76.7-25.4c0.1-0.3,0-0.8,0.3-0.8c0.1-0.1,0.2-0.1,0.4-0.1
			c0,0.3-0.3,0.6-0.5,0.9H76.7z M78.3-26.5c0.2-0.2,0.5,0,0.6,0.1c0,0.2-0.2,0.4-0.3,0.5l0,0C78.5-26.1,78.3-26.3,78.3-26.5z
			 M76.3-21.8c-0.1-0.2-0.2,0.2-0.3,0c0.2-0.4,0.7-0.1,1-0.2c0.1,0.2,0.3,0.1,0.4,0.1v0.1C76.9-21.6,76.6-22,76.3-21.8z M76.5-20.6
			c-0.1,0-0.3,0-0.4,0.1c-0.1-0.1,0.1-0.2,0.2-0.3c0.2,0,0.3-0.2,0.6-0.2l0,0.1C76.9-20.6,76.5-20.8,76.5-20.6z M76.1-22.6
			c0.1,0,0.2,0,0.3,0c0,0.1,0,0.2-0.1,0.1C76.2-22.4,76.1-22.6,76.1-22.6z M75.9-23.9c-0.1,0.1-0.4,0.1-0.3,0.4l0.2,0.2
			c-0.3,0.3-0.6,0.6-1.1,0.7c0-0.2-0.1-0.6,0.1-0.8c0-0.2,0.1-0.4,0.3-0.6c0.3-0.1,0.9-0.4,1.2-0.1h0.2C76.4-24,76.2-23.8,75.9-23.9
			z M75.1-20.3C75-20.3,75-20.2,75.1-20.3c-0.1,0-0.1-0.1,0-0.2c0.2,0,0.4-0.6,0.6-0.1C75.7-20.3,75.2-20.4,75.1-20.3z M75-19.4
			l0.1-0.3v0.1c0,0,0.2,0,0.2-0.1l0.3,0c0.1,0.1-0.1,0.2-0.2,0.3c-0.2,0.4-0.4,0.8-0.9,0.8C74.6-19,74.7-19.3,75-19.4z M74.8-13.7
			c0.2-0.1,0.4-0.3,0.6-0.5c0.1-0.1,0.3,0,0.2-0.2c0.1,0.1,0.4,0.2,0.5,0.3l0.4,0c0.2,0.1,0.3,0.4,0.6,0.3c0,0.1,0.1,0,0.2,0.1
			c0.2,0.3,0.4,0.5,0.7,0.6c0.1-0.1,0.3,0,0.4-0.2c0-0.6-0.6-0.7-0.6-1.3c-0.4-0.6-0.6-1.4-0.8-2.1c0-0.1,0-0.2,0.1-0.3l0,0
			c0.2-0.1,0.3-0.5,0.6-0.4l0.1-0.1c0.1,0.1,0.1,0.2,0.2,0.2c0.2,0.3,0.2,0.8,0.6,0.7c0,0.2,0.1,0.4,0.2,0.6c0.1,0,0.3,0.2,0.3,0.4
			c0.2,0.2,0.5,0.6,0.4,1c-0.2,0.1-0.2,0.4-0.1,0.5c0.1,0.5,0.4,1,0.6,1.4c-0.3,0-0.4,0.5-0.8,0.3c0,0.2-0.3,0-0.3,0.2
			c-0.3-0.1-0.3,0.2-0.6,0.1L77.7-11c-0.4,0-0.5-0.4-0.7-0.7c-0.2-0.1-0.5-0.4-0.8-0.4c-0.1-0.2-0.5,0-0.6-0.2
			c-0.2,0-0.2-0.1-0.4-0.1c-0.4,0-0.1-0.6-0.4-0.7C74.6-13.2,74.6-13.5,74.8-13.7z M76.5-18.1c0.1,0.1,0.1,0.3,0,0.4h-0.2
			C76.2-17.9,76.5-17.9,76.5-18.1z M79.6-27c0.1-0.2,0.5-0.2,0.6,0c0.1,0.3-0.2,0.1-0.3,0.3C79.8-26.8,79.4-26.6,79.6-27z M82-27.1
			c0.1,0,0.1,0.2,0.2,0.4c-0.1,0.2-0.3,0.1-0.4,0.1c-0.4-0.3-0.8,0.5-1.1-0.1c0-0.2,0.1-0.4,0.3-0.4C81.3-27.2,81.6-27.2,82-27.1
			C81.8-27.1,81.9-27.1,82-27.1z M81.8-27.6c-0.1,0.4,0.4,0,0.4,0.4c-0.1,0.1-0.3,0-0.4,0C81.6-27.3,81.7-27.6,81.8-27.6z
			 M76.5-27.6c0.1,0,0.2-0.1,0.3-0.1c0.1-0.2,0.5,0,0.6-0.2c0.2,0.1,0.4,0.1,0.5-0.1c0.5,0,1.4,0,1.8,0l0.1-0.1
			c0.1,0.2,0.4,0.1,0.6,0.1c0,0.2,0.3,0,0.4,0.2c0.1-0.1,0.3,0.1,0.4,0c0,0.1-0.1,0.2-0.2,0.2c-0.2,0.1-0.3-0.2-0.4,0
			c-0.3-0.1-0.6,0-0.9,0.2c-0.2,0.2-0.6,0-0.9,0.1c-0.2-0.2-0.4-0.3-0.7-0.2c-0.1,0.1-0.3,0.2-0.4,0.3c-0.1,0-0.3,0-0.3-0.2
			c-0.2-0.1-0.3-0.2-0.5,0c-0.1,0.2,0,0.4,0.1,0.6c-0.3,0-0.6-0.4-0.8-0.7C76.3-27.4,76.3-27.8,76.5-27.6z M75.6-27.2
			C75.6-27,76-27.1,76-26.9c0.2,0,0.2,0.3,0.4,0.4c-0.1,0.2-0.4,0-0.5,0.1c-0.2,0-0.4,0.6-0.6,0.2C75.2-26.6,75.6-26.9,75.6-27.2z
			 M73-17.2c-0.1,0-0.2-0.1-0.3-0.1c-0.1-0.3-0.5,0-0.4-0.3c0.2-0.1,0.2,0.1,0.3,0.1c0.2,0,0.6-0.2,0.7,0.1
			C73.2-17.3,73.1-17.2,73-17.2z M73.3-24.4c-0.1,0.2-0.1,0.5-0.4,0.5c0-0.1,0-0.6-0.3-0.4c-0.2,0-0.3-0.3-0.1-0.4
			c0.6-0.6,1-1.1,1.7-1.6c0.1,0,0.2-0.1,0.2-0.2c0.1-0.2,0.5-0.2,0.6-0.5c0,0,0.2,0,0.2-0.1c0.3,0.2-0.1,0.6-0.1,1
			c-0.1,0.3,0.1,0.8-0.3,1c-0.2-0.2-0.6,0-0.8-0.1c0,0,0-0.1-0.1-0.1C73.6-25.2,73.6-24.7,73.3-24.4z M73.8-21.7
			c0-0.1-0.2-0.1-0.1-0.2c0.1-0.1,0.2-0.5,0.6-0.3C74.1-22,73.9-21.9,73.8-21.7z M67.9-4.2c0.4-0.6,0.6-1.6,0.9-2.2
			C69-6.6,68.9-6.9,69.1-7c0.2-0.6,0.5-1.2,0.8-1.8c-0.3-0.3,0.1-0.7,0.2-1c0.2-0.7,1-0.6,1.2-1.2c0.2-0.1,0.4-0.5,0.7-0.5
			c0.1-0.3,0.5,0.1,0.7-0.2c0.1,0.1,0.2-0.1,0.3,0c0.4,0,0.5-0.2,0.9,0c0.4,0.1,0.5-0.4,0.8-0.2l0.4,0c0,0.2,0.2,0,0.2,0.2
			c0.1,0,0.3,0.1,0.4,0c0.3,0-0.1,0.7,0.4,0.6c0.2,0.2,0.3,0.1,0.4,0.3c0.4,0.3,0.8,0.3,1.2,0.5c0.1-0.2,0.2,0,0.4-0.1
			c0.2-0.3,0.3-0.5,0.6-0.7c0.3,0.4,0.9-0.2,1,0.4c0.5,0.6,1,1.4,1.6,2c0.1,0.1,0.3,0.3,0.4,0.4c0.3,0,0.2-0.4,0.3-0.6
			c0.3,0.2,0.7,0.4,1,0.6c0.5,0.3,0.9,0.6,1.3,0.8c0.2,0.1,0.3-0.1,0.4-0.2v-0.1C84-8.5,84-9.4,83.9-10.3l0.1-0.1
			c0.4,0.6,1.1,1,1.1,1.8c0.2,0.4,0.4,0.8,0.6,1.3c0.4,0.6,0.5,1.4,0.9,2c0,0.4-0.1,0.8-0.4,1.1c-0.4,1-0.9,2-1.3,3l-0.1,0.1
			c-0.5-0.3-0.1-1.2-0.8-1.2c-0.3-0.2-0.1-0.7-0.3-1.1c-0.1-0.2-0.4-0.2-0.6-0.1c-0.3,0.3-0.2,0.9-0.3,1.3c-0.4-0.3-0.7-0.8-0.9-1.3
			c0-0.3-0.2-0.5-0.4-0.6c-0.6-1.2-1.4-2-2.2-3.1c-0.5-0.4-0.9-0.9-1.6-1.2c-0.1,0-0.2,0.1-0.2,0c-0.1,0.1-0.3,0.1-0.2,0.4
			c0.5,0.4,1,1,1.4,1.5c0.2,0,0.1,0.2,0.3,0.2c0.5,0.3,0.7,0.9,1.2,1.3c0.7,0.7,1.2,1.8,1.3,2.8l0.2,1.2c-0.4,0.2-0.4-0.3-0.7-0.4
			c-0.5-0.9-1.2-1.5-1.7-2.4l-0.2-0.1c-0.5-0.8-1.2-1.4-1.5-2.4c-0.2-0.1-0.1-0.3-0.3-0.3v-0.1c-0.1,0-0.3-0.1-0.4,0.1l-0.1,0
			c0.2,0.9,0.9,1.5,0.8,2.5c0.3,0.6,0.5,1.4,1.2,1.8l0.1-0.1c-0.2-0.5-0.7-0.9-0.6-1.5l0.1-0.1c0.1,0.3,0.4,0.5,0.5,0.8
			c0.5,0.6,1,1.2,1.5,1.9h0.1c0.5,0.8,1.2,1.5,1.3,2.5c0.2,0.4,1.1,0.4,0.8,1.1c-0.5,0.8-1.1,1.6-1.7,2.3c0,0-0.1,0-0.1,0
			c-0.5-0.3-0.9-1-1.3-1.5c-0.7-1.2-1.5-2.1-2-3.5c-0.6-1-0.7-2.3-1.2-3.3c0.1,0,0.1-0.2,0.1-0.3c-0.4,0-0.1-0.4-0.3-0.6
			c-0.2-0.7-0.5-1.3-0.6-2c-0.1-0.2-0.5,0.1-0.5-0.2c0.1-1.1,0.3-2.1,0.5-3.1c-0.3-0.5-0.7-1-1.2-1.3c-0.2,0.1-0.2-0.2-0.4-0.1v-0.1
			c-0.4-0.1-0.8-0.3-1.3-0.2c-0.1,0.1,0,0.2,0,0.3c0.2,0.1,0.4,0.1,0.6,0.3H74c0.1,0.1,0.4,0.2,0.5,0.4c0.2,0,0.1,0.3,0.3,0.3
			c0.1,0.2,0.4,0.5,0.3,0.8c-0.1,1.3-0.5,2.6-0.9,3.8c-0.3,0.2-0.5,0.7-0.6,1.1h-0.1l0.1-3.3c-0.1-0.2-0.1,0.1-0.2,0
			c-0.2,0.7-0.4,1.5-0.5,2.3c-0.6,0.1-0.4,1-0.6,1.5L72-2.8h-0.1c-0.1-0.2,0.1-0.3,0-0.5c0.1-0.3-0.3-0.6-0.1-0.8
			c-0.3-1.2,0.1-2.6,0.4-3.7c0.4-0.7,0.6-1.5,1-2.2c0-0.1-0.1,0-0.2-0.1c-0.3,0.1-0.3,0.6-0.7,0.7c0,0.3,0,0.5-0.2,0.6
			c-0.3-0.1-0.5,0.1-0.7,0.1c-0.8,0.4-1.1,1.3-1.6,2c-0.8,1.1-1.5,2.1-2,3.4h0C67.7-3.5,68-3.8,67.9-4.2z M67.3-0.4
			c0.7-1.3,0.9-2.8,1.8-3.9c0-0.4,0.3-0.7,0.5-1h0.1L69.9-6c0.6-0.4,0.7-1.1,1.1-1.5c0.2,0,0.1,0.2,0.1,0.3
			c-0.4,2.2-1.3,4.5-0.8,6.8c0,0.3,0.1,0.7,0,1.1c-0.1-0.1-0.8,0.1-1.1-0.1c-0.3,0.1-0.3-0.2-0.5-0.1c-0.5,0.1-1.1,0.1-1.6,0.1
			c-0.1,0.2-0.4,0-0.6,0.1C66.7,0.2,66.9-0.1,67.3-0.4z M70.7,2.5c-0.4-0.1-0.5,0.3-0.9,0.1c0,0,0-0.1,0-0.1c0.2,0,0.3-0.2,0.5,0
			C70.5,2.4,70.5,2.5,70.7,2.5z M66.1,7c-0.1,0.1-0.2-0.1-0.2-0.2c0.1-0.2,0-0.5,0.2-0.6C66.1,6.5,66.1,6.7,66.1,7z M67.2,9
			c-0.2,0-0.3-0.4-0.3-0.6l0.1-0.1C67.1,8.6,67.2,8.9,67.2,9z M66.9,3.7C66.9,3.7,66.9,3.6,66.9,3.7c-0.6,0-0.8,0.6-1.3,1
			c0,0-0.1,0-0.1,0c-0.8-0.6-0.4-1.9-0.4-2.8c0.5,0.1,0.2-0.6,0.6-0.6c0.1,0,0.4,0.1,0.5-0.1c0.2,0.1,0.3-0.1,0.5,0
			c0.2-0.2,0.5,0,0.7-0.2c0.1,0,0.3,0.1,0.3-0.1c0.5-0.1,1.1,0.2,1.4-0.1c0.5,0,1,0.1,1.3,0.6c0,0.4-0.3,0.3-0.6,0.3
			c-0.1-0.2-0.4,0-0.5-0.2c-0.1,0-0.2,0-0.2-0.1c-0.2-0.1-0.5,0-0.6-0.1c-0.4,0-1-0.1-1.3,0.1c-0.1,0-0.3-0.1-0.4,0v0
			c-0.3,0.2-0.7,0.3-1,0.5c-0.2,0.3,0.4,0.2,0.1,0.5c0.2,0.4,0.8,0,1.1,0.3c0.6,0,1.1,0,1.5,0.1l0.1-0.1c0,0.3,0.2,0.1,0.4,0.2
			c0.4-0.1,0.8,0.1,1.1-0.1c0.1,0.2,0.2-0.1,0.4,0h0.4V3c-0.2,0-0.3,0.1-0.4,0.2c-0.3,0-0.4,0.4-0.8,0.3c0,0.2-0.3,0-0.3,0.2
			c-0.2,0-0.3,0.1-0.4,0.1c0,0.2-0.3,0-0.3,0.2c-0.2,0-0.5,0.1-0.6-0.1C67.9,4.1,67.6,4,67.4,4C67.2,3.9,67.2,3.6,66.9,3.7z
			 M69.3,2.3c-0.2,0-0.3,0.2-0.5,0.1c-0.2,0.2-0.7,0.1-1.1,0.2c-0.2-0.2-0.8,0-1-0.1l-0.5-0.1c0.4,0.1,0.6-0.5,1-0.4
			c0.1-0.1,0.6-0.1,0.7,0c0.5,0.1,0.8,0.3,1.2,0.2L69.3,2.3z M73.8,19.8c-0.3-0.1-0.6,0-1-0.1c-0.4,0-0.7-0.4-0.7-0.7
			c0-0.2,0.2-0.3,0.3-0.5c0.8-0.8,1.2-2,2-2.7l0.3,1c0.2,0.1,0.2,0.5,0.5,0.5c0.2-0.1,0.2,0.1,0.4,0.2c0.3-0.1,0.5,0.3,0.8,0
			c0.1-0.1,0-0.3-0.1-0.4c-0.2,0.1-0.2-0.2-0.5-0.1c-0.2-0.2-0.4-0.4-0.4-0.7l0-0.2c0.2,0,0.3,0.8,0.5,0.2c0.1-0.2,0-0.5-0.1-0.7
			c-0.2-0.4-0.4,0.1-0.6-0.1c0-0.4-0.2-0.8,0.1-1.1c0-0.8-0.4-1.6-0.9-2.1c-0.1-0.1,0-0.4-0.2-0.4c-0.3-0.1-0.4,0.2-0.7,0.1
			c-0.1-0.2-0.3-0.3-0.4-0.4c-0.3-0.1-0.7,0.5-0.9,0c-0.6-0.8-1.3-1.6-2-2.2c-0.1,0-0.3,0-0.4,0.1C69.2,9,69.1,8.5,68.8,8
			c-0.2,0.1-0.2-0.2-0.4-0.1c-0.2-0.4-0.6-0.6-0.9-0.9c0-0.2-0.2-0.3-0.1-0.6c0.3-0.2,0.5,0,0.8-0.2c0.2-0.5-0.3-0.7-0.5-1
			c0-0.3,0.3-0.2,0.4-0.4c0.3,0,0.4,0.2,0.7,0.2c0.1,0.1,0.2,0.2,0.4,0.2c0.1,0.3,0.5,0.1,0.6,0.4c0.4,0,0.6,0.3,1,0.2
			C70.5,6.4,71,7,71.4,7.4c0.7,0.4,0.9,1.5,1.4,2.1c0.1,0,0.2,0.3,0.4,0.3c0.2,0.6,0.8,0.6,1.2,1.1c0.3,0.3,0.6,0.6,1,0.7l0,0
			c0.2,0.2,0.5,0.3,0.6,0.7c0.1,0,0.2,0.2,0.3,0c0.1,0.2,0.4,0,0.6,0.2c0.2,0,0.3,0.4,0.5,0.3v0.1c0.2-0.1,0.2,0.1,0.4,0.1
			c0,0.2,0.3,0.1,0.4,0.3c0.1,0,0.3-0.1,0.3,0.1c0.9-0.2,1,0.8,1.5,1.1c0.3,0.1,0.5,0.5,0.5,0.9c0,0.1-0.1,0.3-0.3,0.2
			c-0.7,0-0.6-1-1.3-1.1c-0.2-0.2-0.4-0.4-0.6-0.3c0.2,0.7,0.9,1.2,1.4,1.7c0,0.5-0.6,0.7-0.6,1.2c-0.1,0.1-0.3,0-0.4,0
			c-0.1-0.2-0.5-0.3-0.7-0.4c-0.2-0.1-0.4-0.2-0.5-0.4h-0.2c0-0.1-0.1-0.1-0.1-0.1c-0.1,0-0.2,0.2-0.1,0.3c0.5,0.4,1.2,0.7,1.7,1.3
			c0.1,0.2-0.2,0.1-0.2,0.2c-0.5-0.1-0.8-0.8-1.4-0.8v0.1c-0.1,0-0.2,0.1-0.3,0.1c-0.1,0.3,0.3,0.2,0.3,0.5
			c-0.3,0.3-0.6,0.6-0.6,1.1c0,0.4,0.6,0.1,0.6,0.4c0,0.4-0.4,0.5-0.5,0.9c-0.4,0.4-0.4,1-0.9,1.3h-0.2v-0.2c0.2-0.5,0.6-1,0.5-1.6
			c-0.1-0.1-0.2-0.2-0.4-0.3c-0.1-0.2,0.1-0.4,0.2-0.6c0-0.2,0.2-0.5,0-0.7c-0.2-0.1-0.4,0.1-0.6,0.2C74.6,18.8,74.3,19.4,73.8,19.8
			z M69.3,36.8l-0.4,1.3h-0.1c0.2-0.7,0.4-1.5,0.8-2.1C69.6,36.2,69.5,36.5,69.3,36.8z M74.5,27.2c-0.1,0.1-0.3,0.2-0.5,0.2
			c-0.1-0.3,0.3-0.6,0.3-1c0.2-0.2,0.1-0.5,0.2-0.7l0.1,0.1C74.9,26.4,74.7,26.8,74.5,27.2z M74.4,31.9c-0.1-0.2,0.1-0.3,0.2-0.5
			c0.3,0,0.4-0.6,0.7-0.2c0.6,0.3,0.8,0.9,1.3,1.2c0.2,0.1,0.3,0.2,0.5,0.3c0.2,0,0.3,0.1,0.4-0.1c-0.9-0.8-1.4-2.1-2.5-2.6
			c-0.1-0.3,0-0.6,0-0.9c0.1-0.4,0-0.9-0.2-1.2c0-0.2-0.1-0.5,0.1-0.6c0.3-0.2,0.2-0.7,0.3-1c-0.1-0.5,0-1-0.4-1.4
			c-0.2,0.1,0,0.4-0.3,0.5c-0.3,0.2-0.6,0.6-0.6,1c-0.3,0.2-0.2,1-0.8,0.8c-0.6,0.5-0.6,1.5-0.9,2.2c-0.4,0.7-0.5,1.6-1,2.2
			c-0.1,0.7-0.3,1.3-0.6,1.9c-0.9,0.3-1.3,1.4-1.7,2.3c-0.6,1.5-1.1,3.1-1.5,4.7c0,0.3,0.2,0.2,0.4,0.3c0.1,0,0.2-0.1,0.3,0.1
			c0,0.2-0.1,0.6,0.1,0.7h0.2v0.1l0.4,0.1c0.1,0.2-0.1,0.3-0.3,0.4c-0.3,0.1-0.3-0.4-0.7-0.2c0,0,0-0.1-0.1-0.1h-0.1
			c-0.1-0.1-0.3-0.2-0.4-0.3c-0.6-0.4-0.8-1-1.5-1.2c-0.1-0.2-0.6-0.2-0.6-0.6l0-0.5c0.9-1.7,1.8-3.5,2.9-5.1
			c0.9-1.4,1.5-3.1,2.5-4.5c0.2-0.4,0.5-0.7,0.7-1.2c0.3,0,0.3-0.2,0.6-0.1c0.1-0.5,0.3-0.9,0.5-1.4c-0.3-0.6,0-1.3,0.4-1.8
			l-0.1-0.3l0.6-1.4c0-0.2-0.3-0.4-0.3-0.6l0.2-1.1h0.1c0,0.2,0,0.4,0.1,0.6c0.4-0.1,0.7,0.1,0.9,0.3c0.1,0.5-0.5,0.5-0.4,1
			c-0.2,0.1-0.2,0.3-0.2,0.5C73,24.5,73,25,72.7,25c-0.1,0.3,0.3,0.1,0.3,0.3c0.4,0.1,0.6,0,0.9-0.3c0.4-0.4,0.4-1.3,1.2-1.3h0.2
			c0,0,0,0.1,0,0.1l0.2-0.1c0.2,0.2-0.2,0-0.2,0.2c0,0.4-0.5,0.7-0.3,1.1c0.2,0.2,0.3-0.2,0.5-0.1c0.4-0.3,0.2-0.9,0.8-0.9
			c0.2-0.6,0.9-0.8,1.5-0.9l0.2-0.1c0.3,0.4,0.7,0.6,1.1,0.7c0.3-0.1,0.4,0.1,0.7,0.1c0.3-0.1,0.2-0.7,0.6-0.7
			c0.1,0.5-0.3,0.9,0,1.4c0.2,0.2,0.6,0.1,0.6,0.5c-0.4,1.8-1,3.6-1.6,5.3c0,0.6-0.3,1.1-0.4,1.6c-0.1,0.2-0.2,0.6-0.3,0.9
			c-0.2,0.8-0.6,1.6-1,2.3c-0.3,0.3-0.4,1.1-0.9,0.9c-0.1-0.3-0.6,0-0.6-0.4c-0.2,0.1-0.2-0.2-0.5-0.1c-0.1-0.1-0.2-0.2-0.1-0.4
			c0.1,0,0.2-0.1,0.2-0.2c-0.1-0.1-0.3-0.2-0.5-0.3C75.2,35,75,34.9,74.8,35V35c-0.1,0-0.4,0.1-0.4-0.1c0-0.3,0.5-0.3,0.3-0.6
			c-0.3-0.1-0.5-0.2-0.5-0.6C74.5,33.2,74.2,32.5,74.4,31.9z M76.2,39.9l0.4-0.6l0.1,0.2c-0.2,0.8-0.5,1.7-0.3,2.5
			c0.1,0.1,0.3,0,0.4,0.1l0.3,0c-0.2,0.3,0.5,1-0.3,0.9c-0.1,0.1-0.4,0.3-0.6,0.3c-0.1,0.2-0.4,0.3-0.6,0.4c-0.2,0.1-0.7,0.1-1,0.1
			c-0.3-0.1,0-0.3,0-0.5c0.1-0.2,0-0.6,0.3-0.7c0.2-0.3,0.2-0.8,0.6-1C75.5,40.8,76.1,40.6,76.2,39.9z M76,37c0-0.3,0.3-0.1,0.4-0.2
			c0.2,0.1,0.5,0,0.6,0.2c-0.3,0-0.3,0.2-0.7,0.1v0L76,37z M74.3,36.6c-0.1-0.2-0.4-0.1-0.6-0.1c0-0.3,0.3-0.5,0.3-0.7
			c0.1,0,0.3,0.1,0.4,0.1c0.8,0,1.6,0,2.2,0.4v0.1c-0.1,0-0.3,0-0.3,0.1c-0.2,0-0.6-0.1-0.9,0.1L74.3,36.6z M74.6,37.9
			c0.2,0,0.5,0.2,0.7,0l1,0c0,0.5-0.3,1-0.8,1.2c-0.4,0-0.5,0.4-0.9,0.3c0,0.1-0.1,0.1-0.2,0.1C74.2,39,74.5,38.4,74.6,37.9z
			 M74.4,40c0.2,0.2,0.4-0.1,0.7,0c0-0.2,0.3,0,0.3-0.2c0.1,0.1,0.2,0.2,0.2,0.3c-0.2,0.1-0.2,0.5-0.4,0.6c-0.1,0.5-0.4,0.9-0.6,1.3
			c-0.2,0-0.1-0.3-0.2-0.4c0.1-0.4,0.2-0.9,0-1.3c0-0.1-0.3-0.1-0.3-0.3C74.2,40.1,74.4,40.2,74.4,40z M72.9,42.4
			c0,0,0.1-0.1,0.1-0.1c0.1,0.2,0.2-0.1,0.4-0.1c0.1-0.1,0.2-0.2,0.1-0.4c0.2,0,0.1,0.3,0.2,0.5c0,0.3-0.1,0.7-0.5,0.5
			C73.1,42.7,72.9,42.7,72.9,42.4L72.9,42.4z M68.8,58.9c-0.1-0.1-0.2-0.1-0.3-0.1c-0.1,0.2-0.3,0.2-0.5,0.1
			c-0.2-0.2-0.5-0.4-0.9-0.4c-0.1,0.1-0.3,0.2-0.4,0.3c-0.1,0.1-0.3,0-0.4,0.2c-0.3,0-0.5,0.2-0.8,0.1c-0.5-1-1.2-1.8-1.8-2.7
			c0.1-0.3,0.2-0.3,0.3-0.4l0.1,0.1c0.5-0.4,0.9-0.7,1.4-0.9c0.1-0.3,0.5-0.2,0.7-0.4c0.1,0.1,0.2-0.2,0.4-0.1
			c0.2-0.2,0.6,0,0.8-0.2c0-0.1,0.1-0.1,0.1-0.1c0.2-0.1,0.6-0.4,0.9-0.4c0.2-0.2,0.2-0.1,0.4-0.3c0.2,0.1,0.3-0.2,0.3-0.4
			c-0.1-0.4-0.1-1,0.2-1.2l0.9,0l0.1,0.1c-0.2,0.8-0.1,1.7-0.2,2.6l0.1,0.3c-0.4,1.2-0.7,2.3-1,3.5C69.1,58.8,69,59,68.8,58.9z
			 M71.9,61.6c0-0.3-0.3-0.1-0.3-0.3c-0.3-0.2-0.7-0.1-1-0.4c-0.2,0.1-0.4-0.1-0.5,0c-0.1,0-0.2,0-0.2-0.1h-0.5v-0.1
			c0.2,0,0.3,0,0.4-0.2l0.9,0v0.1c0.7,0.2,1.3,0.2,2.1,0.1c0-0.1,0.4-0.1,0.5-0.1l0,0.2C72.9,61,72.5,61.6,71.9,61.6z M73.5,58.5
			c-0.4,0.4,0.1,1.3-0.5,1.5c-0.2,0.3-0.4,0.2-0.7,0.3h-1.5c-0.1-0.3-0.5,0-0.7-0.3c-0.1,0-0.3,0-0.4,0c-0.1,0.1-0.2,0-0.3-0.1
			c0-0.4,0.2-0.7,0.4-1c0.1-1.1,0.6-2,0.9-3.1c0.1-0.7,1.1-1.3,0.4-1.9c0-0.6-0.7-0.9-0.3-1.5c0.4-1,0.1-2.3,0.5-3.3
			c0.3-1.9,0.4-3.8,0.6-5.7c0-0.1-0.1-0.3,0-0.4c0.2-0.1,0.3-0.3,0.5-0.2c0.1,0.1,0.4,0.1,0.5,0.4l0.2,0c0.2,0,0.2,0.2,0.4,0.3l0,0
			c0.1,0.2,0.3,0.4,0.5,0.5c0.2-0.1,0.2,0.2,0.4,0.1c0.1,0.2,0.5,0.2,0.7,0.3c0.3-0.1,0.6,0.1,0.8-0.1c0.4,0,0.7-0.4,1.1-0.4
			c0.1-0.1,0.2-0.2,0.3-0.2c0,1.2-0.6,2.2-0.5,3.5c-0.4,0.8-0.9,1.4-1.3,2.3c-0.2,1.4-0.9,2.6-1.3,3.9c0.4,0.7,0,1.3,0.1,2
			c-0.4,0.4,0.3,0.8,0,1.2C73.6,57,73.8,57.9,73.5,58.5z M74.4,58.4c0-0.2,0-0.5,0.1-0.7c0.1-0.2,0.1-0.4,0.2-0.6v0
			c0.2,0,0.4-0.4,0.4-0.6c0,0,0.1,0,0.1,0C75.1,57.3,74.9,57.9,74.4,58.4z M81.3,58.4c-0.2,0-0.2,0.1-0.4,0.1
			c-0.1,0.2-0.3,0-0.4,0.1c-0.2,0-0.4,0.1-0.7,0.1c-0.5,0.1-0.9,0.4-1.5,0.4c0,0.2-0.3,0-0.3,0.2c-0.2,0.1-0.4,0-0.6,0.2
			c-0.3-0.1-0.3,0.2-0.6,0.1c-0.2,0.1-0.4,0.1-0.7,0.2c0-0.6,0.5-1,0.5-1.6c0-0.3-0.6-0.2-0.5-0.6c0.4-0.6,0.5-1.2,1-1.7
			c0.2,0,0.3-0.1,0.4-0.2c0.3,0,0.5-0.2,0.9-0.2c0.2-0.3,0.5,0.1,0.6-0.2c0.2-0.1,0.5,0,0.7-0.2C80,55,80.1,55,80.3,55
			c0.2-0.1,0.3-0.1,0.6-0.2c0.4-0.1,0.8-0.3,1.3-0.4l0.1,0.1C81.7,55.8,82,57.3,81.3,58.4z M82.2,53.7c-0.2,0-0.3,0.2-0.5,0.1
			c0,0.2-0.3,0-0.3,0.2c-0.2,0-0.3,0.1-0.5,0.1c-0.2,0.1-0.3,0.2-0.5,0.2c-0.1,0.2-0.3,0-0.4,0.2c-0.2-0.1-0.4,0-0.5,0.2
			c-0.1,0.1-0.4,0-0.6,0.1c-0.2,0.1-0.5,0.1-0.7,0.2c-0.2,0.1-0.5,0-0.6,0.2c-0.2-0.1-0.2,0.2-0.5,0.1c-0.1,0.1-0.4,0.2-0.6,0.3
			c-0.2,0-0.5,0-0.7,0.2c-0.2,0-0.2,0.3-0.5,0.2C75.3,56,75.1,56,75,56h-0.1c-0.1-0.8,0.5-1.6,0.2-2.3c0.1-0.4,0.2-0.9,0.1-1.4
			c0-0.2,0.1-0.2,0.2-0.3c0.3,0.3,0.5-0.4,0.8-0.1c0.2-0.1,0.3-0.3,0.5-0.2c0-0.1,0.1-0.1,0.2-0.1v0c0.1-0.3,0.4,0,0.6-0.2
			c0.2-0.1,0.6-0.1,0.7-0.3c0.2-0.1,0.4,0,0.6-0.2c0.2,0.1,0.2-0.1,0.3-0.1c0.2,0,0.4,0,0.5-0.1c0.2-0.1,0.3-0.1,0.5-0.3
			c0.3,0.1,0.3-0.2,0.6-0.1c0.2-0.2,0.4,0,0.6-0.3c0.3,0.1,0.8-0.5,0.8,0.1c-0.1,1-0.5,1.8-0.7,2.8c0,0.3,0.2,0.3,0.4,0.4
			c0.3,0,0.4,0,0.6,0.2C82.5,53.7,82.2,53.6,82.2,53.7z M82.2,53L82,52.9l0.6-2.9c0.1-0.2,0.4,0,0.6-0.1c0.2,0.3-0.1,0.7-0.1,1
			c-0.1,0.7-0.3,1.3-0.5,2.1C82.5,53.1,82.4,53,82.2,53z M83.3,58.1c-0.2,0-0.5,0.1-0.6-0.1c0.1-0.8,0.2-1.5,0.3-2.3
			c0.3,0.2,0.5,0.5,0.6,0.9C83.9,57.2,83.2,57.5,83.3,58.1z M83.6,53L83.6,53c-0.1-0.5,0.1-1.1,0.2-1.6c0.1,0,0,0.1,0.1,0.2
			C83.7,52.1,84,52.7,83.6,53z M95.1,58.9c-1.1,0.4-2.3,0.1-3.3,0.1c-0.7,0-0.9-0.9-1.6-0.7c0-0.2-0.2,0-0.2-0.2
			c-0.2,0-0.3-0.1-0.4,0.1l-1.3,0c-0.3,0.2-0.8,0-1.1,0.2l-0.8,0l-0.1,0.1l-0.8,0c-0.3-0.8-0.3-1.7-1-2.3c0-0.3-0.3-0.4-0.3-0.6
			c-0.1-0.5,0.1-0.9,0.3-1.3c0.1-0.9,0.4-1.5,0.5-2.4c0.3-0.6,0-1.3,0.2-1.9c-0.2-1-0.2-1.8-0.4-2.8c-0.2-0.4-0.8-0.3-0.6-1
			c0.2-0.2-0.1-0.5,0-0.7l0.5-2.3c0-0.3-0.5-0.7-0.2-0.9c0.2,0.1,0.6,0.2,0.9,0.4c0.2-0.1,0-0.3,0.1-0.4c0.1,0.1,0.3,0,0.3-0.1
			c0.4-0.1,0.7,0.3,1.3,0.1v0c0.2,0.2,0.8-0.1,1,0.2c0.2-0.1,0.4,0.1,0.6,0.1c0,0.1,0.1,0.1,0.1,0.1l0.1-0.1l0.1,0.1l0.5,0.1
			c0,0.2,0.2,0,0.3,0.1c0.2,0.1,0.2,0.3,0.3,0.4c0.1,1.8-0.2,3.5-0.4,5.4c-0.6,0.5-0.3,1.4-0.4,2.1c0.1,0.6-0.3,1-0.2,1.5
			c-0.3,0.6-0.4,1.5-0.2,2.2c-0.2,0.3-0.9,0.2-0.8,0.8c0,0.2,0.4,0.3,0.2,0.5c-0.4,0.4-0.9,0.7-1.2,1.2c0,0.2,0.2,0.1,0.2,0.2
			c0.8,0,1.3-0.6,1.8-1.1c0.5,0,0.8-0.3,1.4-0.1c0.5-0.1,0.8,0.4,1.3,0.5c0.2,0.2,0.6,0,0.8,0.2c0.3-0.1,0.3,0.2,0.6,0.1
			c0.4,0.5,0.9,0.9,1.5,0.7c0.1,0.1,0.4,0,0.5,0.2c0.2,0,0.3,0.1,0.4,0.1C95.6,58.6,95.3,58.8,95.1,58.9z M96.1,43.7
			c0.1,0.1,0.2,0,0.2,0.1c0,0.1-0.2,0.4-0.4,0.2L96.1,43.7z M94.2,35.8c0.5-0.3,0.6-1,1-1.4l0.4-0.6c0.2,0.1,0.1-0.1,0.2-0.2
			c0.5-0.3,0.7-0.9,1.2-1.2c0.2-0.3,0.5-0.4,0.8-0.6c0.2-0.1,0.6,0,0.8-0.1c0.5,0,0.9-0.2,1.4-0.1c0.1-0.2,0.3,0,0.5,0l0.1,0
			c0.1-0.2,0.5,0,0.8-0.1c0.2,0.1,0.2,0.4,0.1,0.5c-0.2,0.2-0.5,0.1-0.7,0.1c-0.2,0.1-0.6,0.2-0.8,0.2c-0.2,0.1-0.4,0.2-0.7,0.3
			c-0.1,0.3-0.5-0.1-0.6,0.2c-0.3-0.1-0.3,0.2-0.7,0.1c-0.4,0.2-0.8,0.1-1.2,0.5c-0.4,0.3-0.7,0.9-1,1.3c-0.1,0.8-0.6,1.4-1,2.1
			h-0.1c0-0.2-0.2-0.1-0.2-0.2C94.4,36.3,93.7,36.2,94.2,35.8z M91.6,36.7c0-0.6-0.3-1.4-0.1-2c1.2,0.8,2.2,1.8,3.1,3.1
			c1,1.3,0.9,3.1,1.4,4.7l-0.1,0.1c-0.6-0.8-0.3-2.1-0.9-3c-0.3-0.4-0.5-1-1-1.2c-0.2,0.3,0.3,0.6,0.4,0.8c0.5,1,0.7,2,0.9,3.1
			c0.1,0.5,0.5,1,0.2,1.5c-0.3,0.5-1,0.3-1.4,0.8c-0.1,0.1-0.3,0-0.4,0.2c-0.2,0.5,0.4,0.3,0.4,0.6c0.2,0.4,0.6,0.8,0.9,1.1
			c0.1,1,0.6,1.9,0.5,2.9c0.1,1.4,0.7,2.7,0.9,4.1c0.4,1.8,0.9,3.5,1.3,5.3l-0.1,0.1l-1.4-0.2c0.2-0.3-0.2-0.4-0.2-0.6H96
			c0-0.2-0.2,0-0.3-0.2c-0.1,0-0.3,0.1-0.3-0.1H95v-0.1c-0.4-0.1-0.8,0-1.1-0.3c0.1-0.2-0.1-0.2-0.2-0.3c-0.1,0-0.2,0-0.2-0.1
			c-0.4,0-0.6-0.3-1.1-0.2c-0.2-0.2-0.6-0.3-0.8-0.5L91.4,56l0,0c-0.4-0.3-0.8-0.9-1.3-1c0-0.4-0.5-0.2-0.6-0.5
			c-0.3-1.2,0.3-2.1,0.3-3.3c-0.1-0.8,0.2-1.5,0.3-2.2c0.2-1.7,0.1-3.5,0.3-5.2c0.2-0.5,0.8-1,0.4-1.6c-0.2-0.1-0.1-0.5-0.1-0.7
			c0.1-0.3,0.4-0.7,0.2-1.1C90.8,39,91.3,37.9,91.6,36.7z M91.6,26.9c0-0.4,0-0.8,0.1-1.1l0.2,0C91.9,26.2,92,26.8,91.6,26.9z
			 M91.9,18.8c-0.3-0.1-0.2,0.3-0.4,0.4c0.1,0.5,0,0.9,0,1.5c-0.3,1-0.3,2-0.7,3.1c-0.5,1-0.1,2.2-0.6,3.2c-0.1,0.2-0.4,0.2-0.7,0.2
			c-0.1-0.2-0.4,0-0.6-0.1c-0.2-0.1-0.4-0.2-0.7-0.3c0-0.2-0.3,0-0.4-0.2c-0.3,0-0.5,0-0.7,0.2c0,0.1-0.1,0.1-0.1,0.2h0
			c0.2-0.6,0.4-1.4,0.8-1.9c0.1-0.5,0.5-1,0.4-1.5c0.4-0.5,0.2-1.4,0.7-1.7c0.5-0.6,0.9-1.3,1.3-2c0-0.3,0.3-0.7-0.1-0.8
			c-0.1,0-0.2,0-0.2,0.1c-0.3,0-0.5,0-0.8,0.2c-0.1-0.1,0-0.4,0.1-0.5c0.4-0.4,0.7-0.9,1.1-1.4c0-0.1,0-0.3,0-0.4
			c-0.3-0.1-0.4,0.1-0.6,0.1c0,0.1,0,0.2-0.2,0.2c-0.3,0.4-0.8,0.8-1.3,1.1c0,0.2-0.2,0.1-0.2,0.2l-0.1-0.3c0.1-1.1,0.5-2.1,0.7-3.2
			c-0.1-0.3-0.2-0.3-0.5-0.3c0.1-1,0.5-1.9,0.9-2.8l0.3-0.6h0.1c0.9,2,0.8,4.2,1.9,6.1c0.4,0,0.4,0.4,0.6,0.6
			C91.9,18.3,92,18.6,91.9,18.8z M90,11.2c0.3,0.3,0.3,0.8,0.3,1.2h-0.1C90.2,12,89.7,11.6,90,11.2z M91.5,7.7
			c-0.2,0.7,0,1.6,0.2,2.3c-0.1,0.5,0.3,0.7,0.2,1.1c0.6,1.4,0.8,3,0.7,4.6c0,0.7,0.1,1.4,0.4,2c0,0.2-0.1,0.4-0.2,0.5
			c-0.4-0.6-0.1-1.4-0.4-2c-0.7-1.8-1-3.7-1.6-5.5c-0.5-2.3-0.4-4.7-1.1-6.9c-0.8-0.3-0.2-1.2-0.4-1.8c0.2-0.3,0.2-0.5,0.5-0.7
			c0.3,0.4,0.2,0.9,0.4,1.3C90.6,4.3,91.2,5.9,91.5,7.7z M90.2-1.9c-0.4,0.2-0.4,0.6-0.6,0.9l-0.8,0.8c0,0,0.1,0,0.1,0.1
			c-0.1,0.1-0.1-0.1-0.2-0.1c0.5-1.1,1.3-2,2-3.1c0.2,0,0.4,0.2,0.5,0.4c-0.1,0.4-0.3,0.6-0.5,0.9C90.5-2,90.4-1.8,90.2-1.9z"/>
		<path fill="#720018" d="M79.7,11.2c0.5,0,0.6-0.5,1-0.8c0-0.3,0.4,0.1,0.4-0.2c-0.1,0-0.1-0.2-0.1-0.3c0.3-0.3,0.4-0.8,0.7-1.1
			c0.2-0.4,0.7-0.6,0.7-1.2c-0.1-0.2-0.3-0.1-0.5-0.1c-0.7,0.8-1.2,1.9-1.8,2.8c-0.2,0.3-0.8,0.6-0.7,1.1
			C79.5,11.2,79.7,11.3,79.7,11.2z"/>
		<path fill="#720018" d="M77.9,10.6c-0.1,0-0.3,0.2-0.3,0.3c0,0.3-0.6,0.7-0.1,0.9c0.1,0,0.2,0,0.3-0.1l0.3-1.2H77.9L77.9,10.6z"/>
		<path fill="#720018" d="M78.6,16.1c0.3-0.4-0.3-0.5-0.4-0.8c-0.4-0.1-0.6-0.5-1-0.5c-0.1,0.1-0.3,0.2-0.1,0.4
			C77.7,15.5,77.9,16,78.6,16.1z"/>
	</g>
</g>
</svg>
