<?xml version="1.0" encoding="utf-8"?>
<!-- Generator: Adobe Illustrator 19.1.0, SVG Export Plug-In . SVG Version: 6.00 Build 0)  -->
<!DOCTYPE svg PUBLIC "-//W3C//DTD SVG 1.1//EN" "http://www.w3.org/Graphics/SVG/1.1/DTD/svg11.dtd">
<svg version="1.1" xmlns="http://www.w3.org/2000/svg" xmlns:xlink="http://www.w3.org/1999/xlink" x="0px" y="0px"
	 viewBox="33 -33 100 100" enable-background="new 33 -33 100 100" xml:space="preserve">

<g id="AREA_1">
	<path fill="#720018" d="M94.6,30.7c1.2-0.3,2.2-1.1,3.2-2c3-1.1,5.8-2.7,8.4-4.8c1.5-0.7,3-1.6,4.4-2.5c1.6-1.2,2.4-2.8,3.1-4.4
		c0.2-1,0.7-1.9,0.8-3c0-2.5,0.2-5.2-0.2-7.5c-0.2-1.9-0.2-3.8-1.4-5.3c-0.2-0.1-0.5-0.1-0.7,0c-0.7,1.8-0.9,3.9-1.1,5.9
		c-0.2-1.2-0.2-2.4-0.5-3.6c-0.2-0.8-0.4-1.6-1.1-2.1c-0.3,0-0.6-0.1-0.8,0.2c-0.1,0.9,0.1,1.8,0,2.7c0.3,1.7,0,3.4-0.3,4.9
		c-0.2-0.6-0.1-1.4-0.3-2c-0.1-1.1-0.5-2.1-0.9-3.1c-0.3-0.1-0.9-0.3-1.1,0.1c-0.6,1.2-0.4,2.8-0.5,4.3l-0.1,0.2
		c-0.3-0.3-0.5-0.6-0.6-1c-0.4-0.4-0.7-0.9-1.2-1.2c-0.2-0.1-0.6-0.1-0.8,0c-0.7,1.5-1.1,3.1-1.2,4.9l0.1,0.1c0,0.2,0.1,0.5-0.1,0.6
		c-0.1-0.1-0.2-0.2-0.1-0.4c-0.2-0.4-0.6-0.7-0.9-0.9c-0.3-0.1-0.6-0.1-0.8,0.2c0,0,0,0.1,0,0.1c-0.3,1,0.3,1.8,0.1,2.8
		c-0.2,0.6-0.6-0.2-1.1,0.1c-0.3,0.2-0.3,0.5-0.3,0.9c-0.8,0-1.6,0.2-2.4,0.2c-0.8,0.5-1.9,0.4-2.3,1.5c-0.9,0.1-1.6,0.5-2.5,0.8
		c-0.9,0.2-0.7,1.6-1.7,1.6c-0.9,0.3-1.4,1.6-2.3,1.8c0.1-2.5,0.9-4.6,2-6.6c0.3-0.5,0.3-1.1,0.8-1.4c0.1-0.8,0.6-1.3,0.9-2
		c1.5-2.6,2.4-6.2,1.1-9.2c-0.2-0.4-0.6-0.7-0.7-1.1c1.1-1.8,2.1-3.7,3.2-5.5c0.8-1.6,1.3-3.4,1.9-5.1c0.5-2.9,0.7-6.4-0.1-9.3
		c-0.1-0.2-0.2-0.5-0.4-0.6c-0.4,0.2-0.7,0.6-0.9,1c0,0.6-0.5,1-0.7,1.6c0.2-1,0-2.2,0.5-3.2c0.1-2.1,0.8-4,0.6-6.2H95
		c-0.6,0.4-0.9,1.1-1.5,1.6c-0.8,1.8-1.9,3.4-2.4,5.3c-0.1,1.2-1.2,1.9-1,3.2c-0.4,0.5-0.4,1.2-0.5,1.8c-0.6,1.9-1.2,3.8-1.3,5.9
		l-0.1,0.1c-0.4-0.4,0.2-1-0.1-1.5c0.2-0.9,0.2-1.9,0.3-2.8c0.5-0.6,0.2-1.5,0.6-2.1c-0.1-1.1,0.7-1.9,0.6-3
		c0.4-0.9,0.3-1.9,0.9-2.7c0.3-1.7,1-3.3,1.3-5.1c0.2-0.4,0.4-0.8,0.3-1.2c0-1-1.3-0.5-1.6-0.1c-0.6,1.2-1.9,1.9-2.3,3.2
		c-0.4,0.5-0.9,1-0.9,1.7c-0.5,0.9-1.1,1.8-1.2,2.9c-0.3,0.2-0.3,0.7-0.3,1c-1.2,3.2-1.3,7-1.1,10.5l-0.1,0.1
		c-0.1,0.1-0.1,0-0.2-0.1c-0.2-1.1-0.3-2.3-0.1-3.4l0.7-7.6c0.1-1.2,0.7-2.3,0.4-3.5c-0.1-0.2-0.3-0.5-0.6-0.5
		c-0.9,0.1-1.5,1-1.8,1.8c-1,1.1-1.2,2.5-1.6,3.9c-0.5,1.1-0.6,2.4-0.7,3.7c-0.2,1.2,0.2,2.4-0.2,3.5c-0.8-2.9-0.6-6.3-2.7-8.7
		c-1.4,0.7-1.9,2.2-2,3.6c-0.1,1.2-0.1,2.6,0.2,3.7c0,1.2,0.4,2.3,0.5,3.6L77-7.5c0,0.8,0.4,1.4,0.5,2.1c-0.3,0.1-0.6,0.4-0.7,0.7
		c-0.4-0.6-0.7-1.2-1-1.9c-0.5-1.7-1.3-3.3-1.5-5.1c-0.4-1.1-0.6-2.4-1.7-3c-0.3-0.1-0.7-0.2-0.9,0.2c-0.7,1.5-1.4,3.1-1.5,4.9
		c0,0.8,0,1.7,0.3,2.4c0,1.1,0.8,1.9,1.3,2.7c-0.5-0.3-0.9-0.7-1.4-1.1c-0.6-0.2-0.9,0.5-1.4,0.6l-0.2,1.2c-0.1,0.5,0.2,1,0.2,1.6
		c0,0.2,0.3,0.4,0.2,0.6c0.2,0.1,0.4,0.4,0.4,0.7c-0.4-0.4-1.1-0.3-1.6-0.1C67-0.9,67-0.1,66.9,0.6c-0.1,1.1,0.4,2,1.2,2.6
		c-0.5,0.1-1-0.1-1.3,0.4c-0.3,0.7-0.3,1.7,0,2.4c0.1,0.4,0.7,0.5,0.6,0.9h-0.3c-0.7,0.5-0.8,1.4-0.8,2.3c0,0.4,0.4,0.5,0.7,0.8
		c-0.2,0.1-0.3,0.3-0.5,0.3c-0.4,0.4-0.6,0.8-0.6,1.3c0,0.6,0.5,1,1,1.5c-0.5,0.3-1.2,0.4-1.3,1.1c-0.2,0.6,0.1,1.1,0.2,1.6
		c-0.6,0.7-0.8,1.7-0.5,2.6c-0.1,0.3-0.2,0.5-0.4,0.7c-0.2,0.5,0.3,0.7,0.5,1.1c-0.5,0.2-0.6,0.8-0.5,1.4c0.1,0.2,0.2,0.5,0.5,0.6
		c0,0.1,0,0.2-0.1,0.3c-0.2,0.5,0.1,1,0.4,1.4l-0.5,0.7c-0.1,0.4-0.3,0.9,0,1.2c0.7,0.4-0.4,0.7-0.2,1.2c0,0.2,0.2,0.4,0.5,0.5
		c-0.2,0.3-0.6,0.6-0.6,1c0.1,0.4,0.6,0.6,1,0.7l-0.3,0.5c-0.1,0.2-0.2,0.5,0.1,0.8c0.1,0.2,0.6,0.1,0.5,0.3c-0.2,0.3,0,0.7,0.1,1
		c-0.6,0.7,0.7,0.9,0.4,1.6c0.2,0.6,0.8,0.2,1.2,0.4c0.9-0.1,1.7-0.4,2.7-0.3c0.6,0.9,1.8,0.5,2.6,0.8l-0.1,0.1
		c-1.7,0.2-3.1,0.9-4.7,1.3c-0.3,0.4-0.8,0.3-1.1,0.6c-0.3,0.2-0.1,0.5-0.2,0.8c-0.6-0.2-1.1-0.5-1.6-0.7c-0.7-0.3-1.4-0.9-2.2-1.1
		c-2.8-1.7-5.5-3.6-8.1-5.6c-0.9-0.4-1.7-1.2-2.7-0.9c-0.9,0.2-0.2,1-0.2,1.5l-2.2,0l-0.2,0.2c-0.5,0.6,0.4,1,0.5,1.4
		c-1-0.2-2.4-0.6-3.2,0.2c0.1,0.4,0.2,0.8,0.6,1.1c0.5,0.7,1.2,1,1.7,1.5c-0.3,0.2-0.7,0.5-0.6,0.9c0.3,0.6,1,0.8,1.4,1.2
		c0.1,0.1-0.1,0.3-0.2,0.4c-0.2,0-0.2,0.3-0.2,0.5c0.3,0.7,1.1,0.9,1.6,1.2c0,0.3-0.3,0.6-0.3,0.9c0.1,0.4,0.5,0.6,0.8,0.8L51.9,41
		c0,0.5,0.5,0.6,0.9,0.9c0,0.2-0.2,0.3-0.2,0.5c0.2,0.5,0.7,1,1.3,1c0.5,0.2-0.1,0.7,0.4,1c0.9,0.2,1.6,0.9,2.5,0.8
		c0.4,0.5,0.9,0.7,1.4,0.8c1.6,0.2,3.1,0.3,4.8,0.1c1.2,0.8,2.8,0.7,4.4,0.9c0.1,0.2-0.1,0.2-0.2,0.3c0.7,1.3,2,1.4,3.3,1.4
		c0.2,0,0.4-0.2,0.7,0c0.6-0.1,1.3-0.5,1.9-0.2l-1,1L72,49.8c0,0.7,0.6,0.3,1,0.3c0.2-0.1,0.5-0.4,0.8-0.1c-0.1,0.5-0.5,1.2,0,1.6
		c0.6,0.1,0.3,0.8,0.4,1.2c0.1,0.2,0.3,0.6,0.7,0.5c0.3,0.2,0.2,0.6,0.3,0.9c0.1,0.5,0.6,0.4,1,0.5c0.1,0.6,0.3,1.4,1,1.5
		c0.4,0.1,0.7-0.1,1-0.3c0.3,0.4,0.7,0.4,1.2,0.4c0.4-0.6,0.6,0.5,1.1,0.4c0.5,0.1,0.9-0.1,1.2-0.4c0.2,0.1,0.5,0.2,0.8,0.1
		c0.3-0.1,0.6-0.2,0.7-0.5c0,0.1,0.1,0.1,0.1,0.1c0.5,0.3,0.9-0.2,1.2-0.5c0.5-0.1,1,0.1,1.5,0.3c1,0.3,0.3,1.3,0.4,2
		c0,0.2,0.2,0.5,0.2,0.7c-0.7,0.5-1.1,1.2-1.3,1.9c-0.1,1.4,0.1,2.9,1.5,3.6c0.1-0.7-0.1-1.3-0.5-1.8c-0.3-1,0.1-1.9,0.8-2.5
		c0.3,0.1,0.4,0.5,0.7,0.5c0.5-0.2,0.9,0.4,1.4,0c0.6-0.4,1-1,1-1.7c0.2-0.3,0.7-0.3,1-0.5c0.1-0.9,1.3-0.2,1.4-1
		c0.4-0.6,1.1-0.8,1.8-0.7c0.5,0,1.1,0.4,1.2,0.9c0.2-0.1,0.4-0.4,0.5-0.6c0.1-0.5,0.6-0.7,0.8-1.2c0.4-0.1,0.3-0.7,0.7-0.7
		c0.4-0.5,0.9-0.5,1.5-0.6c0.2,0.1,0.1,0.5,0.1,0.8h-0.1c0.3,0.9-0.8,1.3-1.2,2c-0.2,0.5-0.2,1.1,0,1.6L97,58.9
		c-0.2,0.8-0.3,1.8,0.3,2.4c0.5,0.4,1.2,0.3,1.8,0.2c0.3-0.1,0.4-0.5,0.4-0.9c-0.3,0.2-0.9,0.2-1.3,0.1c-0.4-0.3-0.7-0.7-0.6-1.2
		c0.2-0.4,0.4-0.7,0.7-1c0.2,0.2,0.6,0.3,0.9,0.2c0.7-0.4,1.6-0.3,2.4-0.2c0.6-0.2,1.2-0.4,1.6-0.8c0.9,0,1.9-0.1,2.7,0.2
		c0.6,0.7,1.5,0.6,2.3,0.7c0.5-0.1,0.9-0.6,1.2-1c0.3,0,0.5,0.1,0.7,0.3c0.7,0.9-0.2,1.7-0.4,2.5c0.6-0.2,1.2-0.8,1.5-1.4
		c0.3-0.9-0.4-1.5-1-2c-0.7,0.1-0.9-0.7-1.3-1.1c-0.9-0.3-1.9,0.4-2.7-0.2c0-0.1,0-0.2,0.1-0.3c0.6-0.1,1.2-0.2,1.7-0.5
		c0.6,0.1,1.3,0,2,0c0.6-0.3,1.3-0.7,1.3-1.5c0.2-0.4,0.5-0.2,0.8-0.3c0.6,0,1.1,0.4,1.5,0.8c0.2,0.2,0,0.5,0,0.7
		c0,0.3,0.4,0.3,0.6,0.3c0.3-0.8-0.1-1.5-0.4-2.1c-0.6-1-1.8-0.5-2.7-0.6c-0.2-0.1-0.4-0.3-0.5-0.5c-1.4-0.5-2.3,0.9-3.6,0.9
		c-0.2,0.1-0.5-0.3-0.6,0l-0.1-0.1c0.2-0.4,0.6-0.3,0.9-0.3c0.8-0.1,1.5-0.9,1.8-1.6c0.1-0.3,0-0.7,0.1-1c0.5-0.3,1.2-0.2,1.6,0.1
		c0.3,0.3,0.4,0.8,0.3,1.2l0.5-0.3c0.2-0.6,0.1-1.4-0.4-1.8c-1-0.8-2.1,0.2-3.2-0.2c-1-0.4-1.6,0.7-2.3,1.3c-1.3,0.5-2,2.2-3.4,2.5
		c-0.6,0.1-1.2,0-1.6-0.2c-0.5-0.3-1.4-0.4-1.2-1.2c-0.6-0.5-1.2-1.3-1.9-1.7c0-0.3-0.3-0.5-0.2-0.8l0.4,0c0.4-0.3,1-0.1,1.4,0
		c0.9,0.3,0.9,1.4,1.1,2.2c0.6-0.7,0.5-1.8,0.1-2.6c-0.2-0.4-0.6-0.5-1-0.6c-1.3-0.7-2.4,0.3-3.4,0.7c-0.1-0.4-0.2-0.8-0.6-1.1
		c-0.6-0.5-1.6-0.5-2.2-0.2c-1-0.6-1.9-1.5-2.9-1.9c-0.4-0.4-1-0.3-1.2-0.9c-0.4,0.1-0.6-0.5-1-0.4c-0.5-0.4-1.1-0.4-1.6-0.7
		c0-0.5,0.5-0.7,0.8-1.1c0.9-0.9,2.1-0.9,3.3-0.9l0.1,0.1c1-0.1,1.7,0.3,2.5,0.5c0.5,0.2,0.8,0.8,1.3,1.1c0.5,0.9,0.3,2.1,1,2.9
		c0.3,0.5,0.9,0.3,1.3,0.4c0.2-0.1,0.3-0.2,0.3-0.4c-0.3-0.3-0.4-0.8-0.2-1.2c0.2,0.1,0.4,0.3,0.6,0.5c0.2,0.1,0.5,0,0.7-0.1
		c-0.2-0.3-0.4-0.7-0.8-1c-0.1-0.2-0.1-0.5,0.1-0.7c0.4,0.1,0.8,0.5,1.1,0.8c-0.1,0.4,0.2,1-0.2,1.3c-0.1,0.2-0.1,0.5,0.1,0.6
		c0-0.1,0.1,0,0.1,0c0.9-0.2,1.9-1,2-1.9c0.8-1.6-1.4-2.5-0.6-4c0.3-3.4-2.5-5.7-4.6-8.1c-0.1-0.5-0.7-0.5-1-0.8
		C94.2,30.9,94.5,30.8,94.6,30.7z M100.1,16c0.4,0,0.8-0.1,1,0.3c0.1,0.4-0.4,0.5-0.6,0.7c-0.4,0.1-0.8,0-1,0.4
		c0,0.2,0.1,0.5-0.1,0.6c-0.8,0.1-1.7-0.2-2.3,0.5c-0.3-0.1-0.5-0.7-0.9-0.4c-0.1-0.2,0.1-0.5,0.3-0.6c0.7,0.1,1.5-0.2,2.2,0
		c0.1,0,0.1-0.1,0.2-0.1c-0.1-0.3-0.3-0.5-0.5-0.8c0.3-0.1,0.3-0.7,0.8-0.5c0-0.2,0.3-0.1,0.4,0C99.7,16.2,99.9,16,100.1,16z
		 M101,15.3c0-0.1,0.2-0.2,0.3-0.2l0,0.2v0.1H101z M97.9,16.9C98,16.9,98,17,98,17v0.1C97.9,17.1,97.9,17,97.9,16.9z M85-7.3
		c0.1,0,0,0.1,0,0.2L85-7L85-7.3z M68.6,36.5c0.4,0.1,0.9-0.6,1.2-0.1l-0.1,0.5c-0.7,0.1-1.5,0.9-2.2,0.2
		C67.7,36.7,68.2,36.6,68.6,36.5z M97,54c-0.3,0.4-0.8,0.8-1.3,1c0.1,0.3-0.2,0.6-0.3,0.8c-0.5-0.6-1.2-0.8-2-0.6
		c-0.3,0.2-0.6,0.2-1,0.2c0-0.3,0.4-0.3,0.6-0.5c0.8,0.1,1.4-0.4,2.2-0.1c0.4-0.1,1.1-0.4,1.4-0.7c0.3-0.4,0-1,0.5-1.1
		c0.5,0,1.1-0.1,1.5,0.3C98,53.4,97.5,53.6,97,54z M97.7,50.8l0.1-0.2c0.4,0.3,0.9,0.4,1,1c0.6,1.4,2.2,1.4,3.4,1.9
		c1-0.8,2.3-1.4,3.2-2.5c0.9-0.3,1.5-1.8,2.6-1.6l0.2,0.3c0.1,0.2,0.2,0.5,0.3,0.7c0.1,0.2-0.6,1-0.8,1.3c0,0,0,0,0,0
		c0,0-0.1,0.1-0.1,0.1h0c-0.3,0.2-0.6,0.3-1,0.3c0,0,0,0,0,0c-0.1,0-0.9,0.7-1,0.9c-0.1,0.2-0.3,0.4-0.3,0.5c0,0.1,0,0.2,0.1,0.3
		c0.4-0.3,0.8-0.7,1.4-0.6l0.8,0.2c0.8-0.8,1.7-1.2,2.8-1.1l0.3,0.4c0.2,0.4,0.3,0.9-0.1,1.2c-0.5,0.6-2,0.4-2.6,0.4
		c-0.6,0.7-1.6,0.3-2.3,0.8c-0.2,0-0.3-0.1-0.4-0.1c-0.1,0.1,0,0.4-0.1,0.5c0.7-0.2,0.8,0.7,1.3,0.9c0.9,0.2,2.1-0.4,2.7,0.5
		c0,0.3-0.2,0.6-0.3,0.9c-0.6,0.6-1.5,0.1-2.2-0.1c-0.7-0.7-1.8-0.5-2.7-0.6c-1.3,0-2.3,1.5-3.7,0.7c-0.5-0.2-0.8,0.4-1.2,0.4
		c-0.2-0.3-0.4-0.7-0.8-0.8c-0.1-0.3-0.1-0.6,0.1-0.9c0.4-0.8,1.4-0.8,1.8-1.5c0.2-0.3,0.6-0.4,0.9-0.7c-0.1-0.2-0.3-0.4-0.5-0.5
		c-0.2,0-0.6,0-0.6,0.3c0,0.1,0,0.2-0.1,0.3c0.2-0.5,0.3-1.6-0.3-2C98.8,52,98,51.7,97.2,52c-0.2,0.2-0.4,0.3-0.6,0.2l-0.3-0.3
		C96.9,51.7,97.1,51,97.7,50.8z M95.2,48.1c0,0.2,0.2,0.2,0.1,0.4c-0.5,0.1-0.2-0.8-0.9-0.6c-0.2-0.2-0.4-0.3-0.6-0.4
		C94.4,47.3,94.8,47.6,95.2,48.1z M93.4,47.8l1.1,0.7c-0.1,0.4-0.4,0.3-0.7,0.4c-0.3,0.2-0.5,0.7-0.9,0.5c-0.2-0.1-0.3-0.1-0.4-0.3
		C92.3,48.4,93.1,48.4,93.4,47.8z M95.3,42.6c0-0.4-0.4-0.6-0.3-1.1c0.3,0.1,0.3,0.5,0.4,0.7C95.4,42.4,95.5,42.6,95.3,42.6z
		 M92.5,30.1c1.2,1,2.2,2.4,3.5,3.3c1.4,2.2,4.3,4.1,3.1,6.9c-0.1,0.3,0.4,0.6,0,0.8c-0.2,0-0.4-0.5-0.6,0c0.3,0.2,0.5,0.6,0.9,0.4
		c0.5,0.3,0.5,0.9,0.7,1.3l0.2,0.2c-0.1,0.6,0.2,1.3-0.4,1.7c0.1-0.8,0.4-1.9-0.3-2.6c-0.1,0.4,0,0.9-0.1,1.3c0.1,0.6-0.7,1.2,0,1.6
		c0,0.2-0.2,0.2-0.3,0.3H99c0.1-0.6,0-1.2-0.3-1.8c-1-0.8-2.1-1.4-3.1-2.1c-0.1-0.1-0.1-0.2-0.1-0.3c0.3-0.2,0.4,0.7,0.6,0.1
		c-0.1-0.5-0.7-0.5-0.9-0.9c-0.2,0-0.3,0.1-0.5,0.2c0,0.1,0,0.2,0.1,0.2H95c0.2,0.4-0.4,0.5-0.3,0.9c-0.7,0.2-1-0.5-1.6-0.6
		c-1.8-0.7-4.3-0.8-6,0.4c-0.6,0.4-1.2,1-1.2,1.7c0.6,0.7,1.6,0.6,2.2,1.2c0.2,0.1,0.3,0.2,0.5,0.2c0.8,0.8,1.9,0.8,2.5,1.9
		c0.5,0.2,1.2,0.3,1.6,0.9c-0.5,0.4-0.8,1.1-1.6,1.1c-0.9-0.1-1.6,0.9-2.2,1.5c-0.5,0.9-0.6,1.9-1.4,2.7c-0.5-0.1-0.8,0-1-0.5
		c-0.1-0.7,0.4-1.6-0.5-2c-0.1-0.4-0.3-0.8-0.6-1c-0.6-1-2.3-1.6-2.3-2.9c0.1-0.1,0.2-0.2,0.3-0.2c0.1,0.2,0.1,0.4,0.2,0.6
		c0.4,0.7,1.1,1.3,1.7,1.9c0.3-0.1,0.3,0.3,0.5,0.4c0.2,0.7,0.6,1,1.2,1.5c0.2,0.2,0.1,0.5,0.1,0.8c-0.1,0.2-0.3,0.5-0.2,0.7
		c0.2,0.2,0.5,0.1,0.8,0c0.1-0.1,0.3-0.2,0.2-0.4c0.6-0.2,0.5-1,0.8-1.4c-0.2,0-0.4-0.2-0.3-0.5c0.2-0.3,0.6-0.3,0.9-0.6
		c0-0.5,0.4-1.3-0.1-1.6c-0.2,0.2,0.1,0.3,0.1,0.5c-0.3,0.1-0.3,0.6-0.6,0.5c-0.3-0.2,0.2-1.1-0.5-0.6c-0.1-0.1-0.1-0.5-0.3-0.4
		c-0.4,0.3-0.4,1.2-1.1,0.9c-0.1-0.2,0.1-0.5,0-0.6c0,0,0.1,0,0.1,0v0.1c0.3,0.1,0.4-0.3,0.6-0.5c-0.2-0.2-0.6,0.2-0.6-0.2
		c0.1-0.2,0-0.5,0.3-0.6c0.4-0.1,0.5,0.4,0.9,0.3c0.2,0.3,0.5,0.7,0.9,0.9c0.2-0.2-0.2-0.5,0.1-0.7c0.2-0.1,0.3,0.2,0.5,0.2
		c-0.1-0.2,0.1-0.7-0.3-0.7c-0.2,0.2-0.3,0.5-0.6,0.6c-0.4,0-0.2-0.5-0.6-0.6c-0.2,0-0.5,0.2-0.6-0.2c-0.1-0.3,0.5-0.4,0.2-0.7
		c-0.1-0.1-0.2-0.2-0.4-0.2c-0.3,0.5-0.8,0-1.1,0.3c-0.1,0-0.3-0.1-0.4,0.1c0,0.2,0.2,0.3,0.1,0.4c-0.1,0.1-0.2,0-0.4,0
		c-0.1-0.4,0.4-0.5,0.1-0.9c0-0.1,0.1-0.2,0.2-0.2c0.2-0.1,0.3,0.1,0.5,0.2c0.2-0.3-0.1-0.6-0.1-0.9c-0.1,0-0.5,0.2-0.5-0.2
		c0.1-0.2,0-0.4-0.2-0.5c-0.5,1.1-1.6,1.6-2.6,2.1c-0.4,0.2-0.5,0.8-0.4,1.1c0.8,1.1,1.8,2.3,2.7,3.3c-0.3,0.7,1.1,0.6,0.6,1.3
		c0.1,0.3,0.1,0.8-0.1,1.1l0.2,0.1c0.5,0.4,1.2,0.7,1.8,0.9c0.5-0.2,0.5-0.6,0.7-1c1.3-0.7,0.7-2.4,2.1-2.9c0.1-0.2,0.1-0.5,0.3-0.6
		c0.3,0,0.8-0.1,0.9,0.3v0c0.3,0.1,0.7-0.2,0.9,0.3c0.1,0.5-0.3,0.6-0.4,1c-0.5,0.1-0.3,0.5-0.9,0.5c0.1-0.2,0.2-0.1,0-0.3
		c-0.2,0-0.4,0.4-0.6,0.1c-0.1-0.2,0.1-0.6-0.3-0.5c-0.4,0.4,0,1.4-0.9,1.2c-0.2,0.2-0.1,0.6-0.2,0.9c0.1,0.2,0.3,0.1,0.4,0
		c0.4-0.3,0.5-0.9,1-0.9c0,0.3-0.1,0.5-0.2,0.8c-0.2,0.3-0.5,0.1-0.6,0.4c0.2,0.3-0.1,0.7,0.2,0.9c0.2-0.2,0.2-0.6,0.3-0.9
		c0.7-0.2,0.5-1.2,1.2-1.2c0.6-0.2,1.2-0.8,1.4-1.5c0.5-0.4,1-0.6,1.5-1c0.2,0,0.4-0.2,0.6-0.3c0.4,0.1,1,0,1.3,0.4
		c0.2-0.1,0.4-0.1,0.6-0.2c0.2,0.3,0.3,0.6,0.2,1c-0.1,0.7-0.9,1-1.5,1.2c-0.8,0.1-1.8-0.3-2.3,0.6c0,0.3-0.2,0.4-0.5,0.6
		c-0.3,0.2-0.3,0.5-0.5,0.8c0.4,0.2,0.5-0.5,0.9-0.4c0.3-0.4,0.8-0.4,1.1-0.7c-0.2-0.2-0.6,0.3-0.5-0.1l0.3-0.2
		c0.4,0.8,1.7-0.2,2,0.7c-0.5,0.5,0.4,0.8-0.1,1.3c-0.5,0.6-1.4,0-1.9,0.4c-0.5,0-1.3-0.1-1.7,0.3c-0.3,0.4-0.6,0.7-0.5,1.2
		c0.1,0.1,0.2,0.3,0.1,0.5c-0.2,0.4-0.8,0.4-1.2,0.5c-0.2,0.3-0.5,0.7-0.8,0.9c-0.3,0.1-0.6-0.2-0.7,0.2c0.2,0.3,0.1,0.8,0,1.1
		c-0.4,0.6-1.1,0.4-1.7,0.4c-0.6-0.2,0.1-1.2-0.7-1.2c0-0.6-0.4-1.3,0-1.8c0.2-0.3-0.1-0.5-0.1-0.8c-0.9-0.4-2-1-2.9-0.3
		c-0.2,0.1-0.2,0.5-0.5,0.4c-0.2-0.2-0.3-0.3-0.3-0.5c-0.6,0-0.2,0.8-0.7,0.9c-0.3,0.2-0.5-0.1-0.6-0.4c-0.3-0.2-0.2,0.3-0.5,0.4
		c-0.2,0.2-0.4,0.4-0.7,0.3c-0.3-0.2-0.3-0.7-0.7-0.7c-0.1,0.4-0.5,0.4-0.9,0.3c-0.4,0-0.2-0.4-0.4-0.6c-0.5,0.1-0.8,0.7-1.4,0.5
		c-0.7-0.3-0.1-1.2-0.7-1.5c-0.4,0-0.9,0-1-0.4l0-0.8c-0.2-0.1-0.7,0.2-0.8-0.2l-0.1-1.3c-0.1-0.2-0.5,0.1-0.5-0.3
		c-0.1-0.6,0.4-1.4-0.3-1.8c-0.1-0.5,0.1-1,0.1-1.5c-0.4-0.4-0.9,0.1-1.4-0.1c-0.5,0.5-1.3,0.2-1.9,0.4c-0.9,0.2-1.6-0.2-2.3-0.5
		c-0.2-0.2-0.4-0.4-0.3-0.7c0.1-0.1,0.3-0.2,0.4-0.3c-0.4-0.5-1.2,0-1.7-0.3c-1.1,0-2-0.3-3-0.5c-0.3-0.2-0.6-0.6-1-0.5
		c-1.4,0.6-3.2,0.3-4.6,0c-0.1-0.1-0.2-0.3-0.1-0.4l0.1-0.1c-0.2-0.2-0.5,0-0.8-0.1c-0.8-0.2-1.8-0.2-2.4-0.8c0-0.4,0.6,0,0.7-0.4
		c-0.4-0.3-1-0.1-1.4-0.6c-0.3-0.1-0.6-0.1-0.8-0.4c-0.2-0.6,0.8-0.1,0.7-0.6c-0.5-0.2-1-0.4-1.4-0.8c0-0.5,0.5-0.2,0.8-0.3
		c0-0.9-1.6-0.4-1.3-1.5c0.2-0.4,0.5,0.1,0.7-0.3c0-0.5-0.7-0.4-1-0.7c-0.2-0.5-1.1-0.3-0.9-1c0.2-0.5,1,0.1,1.1-0.5
		c-0.7-0.4-1.6-0.4-2.2-1.2c-0.1-0.1,0-0.2,0-0.4c0.2-0.3,0.9-0.1,0.7-0.6c-0.2-0.3-0.6-0.4-0.9-0.6c-0.5-0.5-1.2-1-1.6-1.6
		c0.3-0.5,1.1-0.2,1.6-0.2c0.7,0.2,1.4,0.2,1.9,0.7c0.1,0,0.3,0.1,0.4,0c0.3-0.5-0.5-0.4-0.6-0.8c-0.3-0.4-0.6-0.7-0.6-1.2
		c0.7-0.3,1.4,0.1,2.1,0.1c0.1,0.1,0.2,0.2,0.4,0.1c0.3-0.5-0.2-0.8-0.4-1.2c0-0.2-0.2-0.4,0-0.6c0.8-0.3,1.4,0.3,2,0.6
		c1.7,1.1,3.4,2.5,5.1,3.6c1.6,1.3,3.4,2,5.1,3c1,0.7,2.2,0.8,3.2,1.3c0.8,0,1.8,0.4,2.3-0.3c0.4-0.1,0.8,0.1,1.1-0.1
		c-0.3-0.5-1.8,0-1.1-0.9c0.5-0.2,1-0.3,1.6-0.3c0-0.2-0.1-0.5,0.1-0.7c0.5-0.4,1.6,0,1.6-0.9c0.3-0.1,0.7-0.3,0.8-0.7l-0.1-0.1
		c-0.7,0.2-1.4-0.2-2.1,0c-0.7,0.2-0.9-0.7-1.5-0.9c-1.3-0.2-2.3,0.5-3.5,0.3c-0.1-0.4,0.3-0.4,0.5-0.6c0.1,0.1,0.3-0.1,0.3-0.2
		c-0.2-0.5-1.4,0.3-1.2-0.6c0.2-0.2,0.8-0.1,0.7-0.5c-0.1-0.2-0.3,0.1-0.5,0c-0.2-0.1-0.3,0-0.4-0.2c-0.1-0.5,0.5-0.5,0.5-0.9
		c-0.3-0.3-1,0.2-1-0.4c-0.1-0.5,1.1-0.9,0.2-1.2c-0.2-0.1-0.6,0-0.7-0.2c0-0.5,0.5-1,1-1.2c-0.1-0.5-0.8,0.1-0.9-0.4
		c-0.1-0.5,1.4-0.9,0.3-1.2c-0.1,0-0.2-0.2-0.2-0.3c-0.1-0.5,0.3-0.9,0.6-1.3c0.1,0,0.2-0.1,0.3-0.2c0-0.6-0.8-0.3-0.9-0.9
		c-0.1-0.5,1.1-0.8,0.3-1.2c-0.3,0.1-0.4-0.1-0.6-0.3c-0.1-0.7,0.7-1,1.1-1.4c-0.3-0.4-1.4,0-1-0.9c0.4-0.4,0.8-0.6,1.3-0.7
		c-0.2-0.5-0.9,0-1.1-0.5c-0.4-0.5,0.1-0.9,0.1-1.4c0.1-0.4,0.6-0.6,1-0.8c-0.1-0.5-0.7-0.3-0.8-0.8c-0.1-0.4,0-0.9,0.2-1.2
		c0.6-0.4,1.4-0.5,2.1-0.9c-0.1-0.5-0.5-0.1-0.8-0.2c-0.3-0.3-0.8-0.4-1-0.8c0-0.4-0.1-1,0.2-1.3c0.4-0.5,1.5,0.2,1.8-0.6
		c-0.6-0.2-1.6-0.3-1.6-1.2C67,8.2,67,7.4,67.8,7.1c0.3-0.1,0.6-0.2,0.9-0.1c0.1-0.1,0.1-0.2,0.1-0.3c-0.6-0.3-1.3-0.4-1.6-1.1
		C67,5,67.1,4.3,67.4,3.7c0.7-0.1,1.6-0.1,2.3-0.1l0.1-0.1c-0.1-0.3-0.4-0.5-0.6-0.6c-0.4,0.1-0.7-0.5-1.1-0.6
		c-0.6-0.6-0.8-1.5-0.6-2.4c0.1-0.3,0.3-0.7,0.6-0.8c1.3,0.2,2.4,0.8,3.3,1.7c0.1,0,0.1-0.1,0.2-0.2c0-0.5-0.6-0.4-0.8-0.8
		c-0.3-0.8-1.3-1.2-1.5-2l-0.3-2.2c0.1-0.3,0.4-0.6,0.8-0.8c0.4,0,0.7,0.3,1,0.6c0.8,0.8,1.7,1.5,2.6,2c0.1,0,0.2-0.2,0.1-0.3
		c-0.6-0.8-1.7-1.5-1.9-2.5c-0.7-1.1-0.9-2.4-1.1-3.7c0.1-1.6,0.4-3,1-4.4c0.1-0.2,0.2-0.4,0.4-0.6c0.8-0.5,1,0.5,1.3,0.9
		c0.3,1.1,0.8,2.1,0.9,3.3c0.3,1,0.8,2,1,3.2c0.5,1.2,1.2,2.4,2.2,3.4c0.5,0.9,1.5,1.8,2.4,2.4C79.9-1,80.1-1,80.2-1.2
		c-0.2-0.8-0.8-1.4-1.3-2c-0.3-0.7-0.7-1.4-0.9-2.2c-0.3-0.2-0.1-0.5-0.2-0.7c-1-2.8-1.6-5.9-1.2-9.2c0.2-1.1,0.4-2.1,1.3-2.8
		c0.7,0.4,0.5,1.3,1.1,1.8c0.1,1.3,0.6,2.4,0.8,3.7c0.6,2.5,0.7,5.1,1.8,7.4c0.2-0.2,0.5,0,0.6-0.2C82.2-5.7,82-6,81.9-6.3
		c0-1.7-0.8-3.1-0.6-4.9c0.1-3.7,0.6-7.2,2.5-10.2c0.5-0.3,0.7-1.1,1.4-1c0.2,0.5,0.2,1.2,0,1.8c-0.3,1.8-0.7,3.6-0.7,5.5
		c-0.3,2.6-1,5.4-0.2,8c0.1,0.2,0.3,0.3,0.2,0.6C85.1-6,85-5.1,85.6-4.6c0.2-0.2,0.1-0.6,0.1-0.8c-0.3-0.9-0.1-2-0.4-2.8l0.1-5.4
		c0.6-3.6,1.5-7,3.2-10.1c0.7-1.1,1.7-2.2,2.4-3.3c0.2-0.2,0.6-0.5,0.8-0.1c-1.2,4.5-2.5,9-3.6,13.6C88-10.8,87.4-8.1,88-5.4
		c0.2,0.1,0.1,0.3,0.3,0.3c0.2-0.5,0-1.1,0.3-1.5c0-0.7-0.2-1.5,0.2-2c0.4-3.1,1.5-5.9,2-9c0.7-1,0.7-2.3,1.4-3.4
		c0.2-0.7,0.6-1.3,0.9-2c0.6-1,1.1-2,1.9-2.9c0.1-0.1,0.1,0.1,0.2,0.1c-0.2,1-0.2,2.2-0.5,3.2c-0.2,1.7-0.6,3.3-0.7,5
		c-0.4,0.6-0.3,1.5-0.6,2.2c-0.2,0.9-0.2,1.9-0.6,2.8c0,1.7-0.7,3.1-0.7,4.7l0,0c1-1.9,1.4-4,1.6-6.3c0.5-0.4,0.2-1.1,0.6-1.6
		c0.2-1.1,0.7-1.9,1-2.9c0.2-0.2,0.2-0.5,0.5-0.6c0.9,3.7,0.8,8.2-0.7,11.6c-0.4,0.9-0.5,1.9-1.2,2.6c-0.1,0.7-0.7,1.3-0.9,2
		c-0.4,0.5-0.7,0.9-0.9,1.4c-0.6,0.9-1.3,1.7-1.4,2.8c0.1,0.2,0.3,0,0.5,0.1c1.1,1.7,1,4.4,0.4,6.4c-0.1,1.2-0.9,2.1-1.3,3.2
		c-0.5,0.7-0.7,1.5-1.1,2.2c-0.6,1-1.1,2.1-1.4,3.2c-0.2,0.1-0.1,0.3-0.2,0.4c-0.2,0-0.1,0.3-0.2,0.4c-0.5,0.8-0.4,2-0.7,2.9
		c0,2.4-1.2,5.5,1,7.3c0.2,0.1,0.3,0.5,0.6,0.6c0.1,0.5,0.3,1,0.3,1.6c0.1,0.3-0.4,0.8,0.1,0.8c0.6-0.9,0.2-2.3-0.3-3.1
		c-0.8-0.7-1.8-1.6-1.5-2.8c-0.1-0.9,0-1.8,0.2-2.6c0.5-0.4,1-0.9,1.7-1c0-0.3,0.1-0.6,0.2-0.9c0.7-0.5,1.6-0.9,2.5-0.7
		c0.1-0.1,0.1-0.1,0.1-0.2c-0.2-0.2-0.5-0.1-0.8-0.3c0.4-0.8,1.3-1,2-1.4c0.6-0.1,1.3-0.1,1.9-0.4c0-0.2-0.2-0.4-0.1-0.7
		c0.1-0.1,0.2-0.2,0.4-0.2c0.6-0.4,1.4-0.5,2.2-0.7l1.6,0c0.5-0.2-0.2-0.7,0.3-0.9c0.3,0,0.5,0.3,0.7,0.4c-0.1,0.3-0.6,0.3-0.5,0.7
		c-0.2,0.2-0.5-0.3-0.7,0.1c-0.4-0.2-0.5,0.5-1,0.2c-0.2,0.5-0.8,0.1-1.1,0.5c-0.2,0-0.3,0-0.4,0.2c-0.2,0.2-0.6-0.2-0.7,0.2
		c-0.2,0.4,0.8,0.5,0.2,0.8c-0.4,0.2-0.4-0.5-0.8-0.2c-0.2-0.1-0.6-0.1-0.6,0.3c-0.2,0-0.1-0.2-0.3-0.3c-0.3,0.2-0.8,0.1-1,0.5
		c0,0.1,0.1,0.2,0.1,0.3c-0.4,0.2-0.7,0.5-1.1,0.6c0,0.2,0.5,0.4,0.2,0.7c-0.4,0.4-0.9,0.4-1.4,0.7c-0.3,0-0.6-0.3-0.7,0.1
		c0,0.1,0,0.3-0.2,0.3c-0.2-0.2-0.4,0-0.6,0c0,0.1,0,0.1,0,0.2c0.2,0.2,0.3-0.2,0.5,0c-0.1,0.1-0.1,0.2,0,0.3
		c-0.1,0.2-0.3,0.1-0.5,0.3c0.1,0.1,0.2,0.2,0.2,0.4c-0.4,0.1-0.7,0.4-1.2,0.3c-0.1,0.2-0.2,0.3-0.4,0.4c-0.1,0-0.2,0-0.3-0.1
		c0.2,0.5-0.7,0.9-0.2,1.3c0,0.1,0,0.2,0.1,0.2c0.3-0.1,0.2-0.6,0.7-0.6c0.7,0.1,1.3,0.2,1.9,0.3c0.1,0,0.1,0.2,0.1,0.2
		c-0.4,0-0.8,0.2-1.2,0.2c-0.1-0.1,0-0.4-0.2-0.4c-0.1,0-0.2,0.1-0.3,0.2c0,0.1,0.1,0.2,0.2,0.3c-0.3,0.1-0.6,0.1-0.8,0.4
		c0,0.3-0.1,0.8,0.3,0.9c0.2,0.1,0.2-0.2,0.2-0.3c-0.2-0.4,0.4-0.3,0.4-0.7c0.4-0.4,1.1-0.1,1.5-0.5c0.4-0.1,0.8,0.5,1.2,0.1
		c-0.2-0.5-1-0.2-1.1-0.9c0.6-0.6,1.5-0.6,2.3-0.4c0.2,0.1,0.5,0.2,0.8,0.1c-0.1-0.2-0.4-0.3-0.6-0.4c-0.2-0.1-0.3-0.4-0.2-0.6
		c0.6-0.7,1.5,0,2.2-0.2c0.1-0.2-0.1-0.3-0.2-0.4c-0.3-0.1-0.8,0-0.9-0.4c0-0.2,0.2-0.4,0.1-0.6c-0.2,0-0.3,0.2-0.5,0.1
		c-0.1,0.2-0.3,0.4-0.6,0.5c0.1,0.1,0.2,0.2,0.2,0.4c-0.5,0.2-0.8,0.6-1.2,0.8c-0.5-0.5-1.3,0.3-1.8-0.4c-0.1-0.1-0.2-0.3-0.1-0.4
		c0.2,0.2,0.4-0.1,0.6-0.1c0.1-0.5,0.7-0.1,0.9-0.4c0.2,0.1,0.3,0,0.4-0.1c0.1-0.2-0.3-0.6,0.1-0.8c0.4,0.1,0.7-0.3,1,0
		c0.3-0.3,0.5,0.3,0.8,0c-0.1-0.4-1-0.4-0.6-0.9c0.1-0.2,0.3-0.3,0.4-0.4c0.9-0.1,2-0.5,2.9,0c-0.2,0.2-0.2,0.9-0.8,0.8l-0.3,0.5
		c-0.4,0-0.8,0.1-1.2,0.3c-0.1,0.1-0.2,0.2-0.2,0.3c0.3,0,0.6-0.2,0.9-0.3c1-0.2,2,0.1,3-0.1c-0.3-0.6-1.5-0.1-1.2-1
		c0.7-0.8,2-0.5,3-0.6c0.1-0.3,0.5,0.1,0.6-0.2c-0.1-0.2-0.5-0.4-0.3-0.7c0.7-0.3,1.7-0.6,2.3,0c0,0.4-0.6,0.2-0.8,0.5
		c0.4,0.2,1.1,0.3,1.6,0c-0.2-0.2-0.2-0.4-0.2-0.6c0.2-0.3,0.6-0.2,0.9-0.4c0.6-0.1,1.2,0.2,1.8,0.1c-0.3-0.1-0.4-0.7-0.8-0.4
		c-0.4,0.1-0.3-0.4-0.3-0.6c0.3-0.4,0.9-0.3,1.4-0.2c0.3-0.1,0.7,0.5,0.8,0.1v-0.2c0.5-0.1,1,0.4,1.4,0.8c0.3-0.2,0-0.7,0.3-0.9
		c0.4,0,0.7,0.5,1.1,0.2c0.2-0.1,0.2-0.3,0.3-0.5v-0.1c0.3,0.4,1.1-0.3,1.1,0.5c0,0.2,0.1,0.4,0.3,0.5c0.1-0.2-0.1-0.6,0.2-0.7
		c0.1,0,0.2,0.2,0.3,0.1l0.5-0.6c-0.1-0.4-0.6-0.3-0.8-0.6c-0.2,0-0.2,0.2-0.4,0.1c-0.1-0.1,0-0.2,0-0.3c-0.5,0.1-0.2-0.7-0.8-0.5
		c-0.1-0.1,0-0.2,0-0.3c0.2-0.1,0.4,0,0.5,0.1c0.2,0.2,0.2,0.6,0.6,0.7c0.4,0.1,0.5-0.5,0.9-0.3c0.2,0.1,0.2,0.3,0.2,0.4
		c-0.2,0-0.2-0.2-0.4,0c0.1,0.1,0.2,0.2,0.4,0.2c0.1,0.3-0.1,0.6,0.2,0.9c-0.2,0.1-0.6,0.3-0.6,0.6c-0.2,0-0.3,0.1-0.3,0.2
		c0.2,0.2-0.3,0.7,0.2,0.6h0.1c0,0.2,0,0.4-0.2,0.6c-0.5,0.2-0.9,1-1.4,0.9c-0.1-0.1-0.1-0.2-0.2-0.2c-0.1,0.3,0,0.7,0.2,0.8
		c-0.8,0.6-1.5,1.4-2.4,1.8c-0.3,0.3-0.5,0.7-0.9,0.8c-0.2,0.5-0.7,0-1,0.3c-0.2,0-0.5-0.4-0.7,0c0,0.2,0.1,0.3,0.1,0.4
		c-0.2,0.2-0.3,0-0.6,0c-0.2,0.2-0.1,0.5-0.4,0.5c-0.2,0-0.3-0.2-0.4-0.2c-0.1,0.3-0.3,0.7-0.7,0.8c-0.1,0-0.3-0.2-0.4,0l0,0.2
		c-1.2,0.6-2.1,1.6-3.3,2.1c-0.9,0.8-1.9,1.2-2.9,1.8c-0.3,0.2-0.8,0-0.9,0.5c-0.6,0.4-1.4,0.2-1.9,0.8c-0.4,0.2-0.9,0-1.2,0.4
		c0,0.3,0.2,0.6,0.4,0.7c0.6,0,1.1-0.3,1.6-0.5c1.2-0.8,2.6-0.9,3.6-1.9c3.2-1.4,6-3.7,9.1-5.3c0.7-0.8,1.7-1.2,2.5-1.6
		c0.5-0.9,1.3-1.4,1.9-2.3l0.3-0.4c0.3-0.8,0.6-1.5,1-2.2c0-0.8,0.2-1.5,0-2.2c0-0.2,0.1-0.5-0.1-0.6c0.1-2.6,0.4-5.2-0.3-7.6
		c0,0,0-0.1,0.1-0.1c-0.3-0.3-0.3-0.9-0.7-1.1c-0.3,1.2-0.4,2.5-0.3,3.8c-0.3,0.8-0.2,1.7-0.5,2.5c-0.1,0-0.2,0.1-0.3,0.3v0.2
		c-0.4,0.1-0.6-0.3-0.8-0.5c-0.3-0.4-0.1-0.9-0.2-1.4c-0.4-1-0.1-2.2-0.5-3.2c0.3-0.7,0-1.5-0.4-2.1c-0.1,0-0.2,0.2-0.2,0.2
		c0.2,1,0.3,2.1,0.2,3.2c-0.3,0.4,0.2,0.8-0.1,1.2c-0.5,0.4,0.2,1.1-0.4,1.3c-0.2,0.5,0.2,1.4-0.6,1.5c-0.1,0.2-0.3,0.2-0.5,0.2
		c-0.1-0.6-0.9-1-0.6-1.7c-0.2-0.3,0.2-0.8-0.3-1c0-0.2,0.2-0.4,0.1-0.6l-0.3-0.3l0.3-0.1c-0.5-0.6,0.2-1.7-0.4-2.3
		c-0.4,0.3,0,1-0.4,1.3c0,0.2,0.3,0.4,0.2,0.6c-0.5,0.3-0.2,1-0.2,1.4c0.1,0.2,0.2,0.5,0.1,0.8c-0.3,0.6,0.2,1.4-0.4,1.9
		c0.1,0.1,0.1,0.4-0.1,0.4c-0.3-0.1-0.3-0.5-0.6-0.7c-0.7-0.5-0.6-1.3-1.2-1.7c-0.2-0.4-0.2-0.9-0.7-1.2c-0.4,0.2-0.2,0.8-0.5,1.1
		c0,0.2,0.5,0.3,0.3,0.6c-0.5,0.2-0.3,0.8-0.5,1.2c0.4,0.4-0.3,0.6,0,1c-0.1,0.6,0.1,1.4-0.5,1.7c-0.6,0.1-0.6-0.6-1-0.9
		c0-0.3-0.1-0.6-0.3-0.8c-0.5,0.1-0.1,0.6-0.2,0.9c-0.2,0.4,0.2,0.7,0.1,1.2c0.3,0.4-0.2,0.7-0.4,0.9c-0.2-0.2,0.1-0.4,0.3-0.6
		c0-0.5,0-1.1-0.3-1.6l0.1-1.5c0.8,0.1,1.1,1,1.3,1.6c0.1,0.1,0.1,0.2,0.3,0.1c0.8-0.7,0.3-1.9,0.4-2.9c0.2-1.1,0.4-2.3,1-3.2
		c0.4-0.1,0.5,0.5,0.9,0.5c0.7,0.9,0.9,2,1.5,2.9c0.1,0.1,0.2-0.1,0.2-0.2c0-2,0-4,0.5-5.7c0.2-0.1,0.3,0,0.4,0.1
		c1,1.7,0.9,3.8,1.3,5.7l0.2,0.2c0.8-1.1,0.5-2.7,1-3.9c0.1-1.6-0.4-3-0.1-4.5c0.2,0,0.5,0.2,0.5,0.4c1.1,2.2,0.7,5,1.4,7.4h0.1
		c0.3-2.3,0.4-4.7,1-6.9c-0.1-0.4,0.2-0.8,0.3-1.2c0.5-0.1,0.5,0.6,0.8,0.9c0.6,1.8,0.6,3.9,0.8,5.9l0.1,0.1
		c-0.2,2.3,0.2,4.8-0.4,6.9c-0.5,0.5-0.4,1.3-0.7,1.9c-1,2.1-3.1,4.1-5.3,4.8c-0.8,0.7-1.7,0.9-2.5,1.5c-2.4,1.8-4.8,3.5-7.6,4.3
		c-1,0.7-1.9,1.5-3.1,1.9c-0.3,0.4-0.9,0.4-1.3,0.3c-0.4-0.2-0.8-0.5-1.1-0.8C92,29.8,92.4,30,92.5,30.1z M84,45.9
		c0.1,0,0.1,0,0.1,0.1c0,0-0.1,0.1-0.1,0.1L84,45.9z M84.9,47.3c0.2,0,0.4,0,0.4,0.2c0,0.2-0.2,0.3-0.3,0.3c-0.1,0-0.2-0.1-0.3-0.2
		C84.8,47.5,84.7,47.3,84.9,47.3z M84.8,46c-0.1,0.1-0.3,0-0.3-0.1c0-0.3,0.2-0.5,0.3-0.7c0.2,0,0.2,0.2,0.4,0.3
		C85.2,45.7,85,46,84.8,46z M85.6,45l0-0.2c0,0,0,0,0.1,0C85.6,44.9,85.6,45,85.6,45z M85.6,47h-0.1c0-0.1-0.1-0.3,0.1-0.4
		c0.1-0.1,0.2,0.1,0.2,0.2C85.8,46.9,85.7,47,85.6,47z M85.8,47.1c0.2,0,0.3,0.1,0.4,0.2c0,0.2,0,0.4-0.2,0.4
		c-0.2,0.1-0.3-0.1-0.4-0.2C85.7,47.4,85.7,47.2,85.8,47.1z M85.9,48.3c0.1,0.2-0.1,0.2-0.1,0.3c-0.1-0.1-0.4-0.1-0.4-0.3
		C85.5,48.3,85.8,48.1,85.9,48.3z M86.5,46c0.2-0.2,0.4-0.4,0.7-0.3c0,0.1,0,0.3-0.1,0.4c-0.2,0.2-0.4,0.2-0.7,0.2
		C86.3,46.3,86.5,46.1,86.5,46z M87.4,48.3c0.2-0.2,0.3,0.2,0.6,0.1c0.2,0.4-0.5,0.4-0.2,0.8c-0.1,0.2-0.3,0.3-0.5,0.4
		c-0.2,0.1-0.3-0.1-0.4-0.2C86.7,48.8,87.6,48.9,87.4,48.3z M87.5,50.8c-0.1,0.1-0.2,0-0.3,0c-0.2-0.1-0.2-0.4-0.1-0.6
		c0.2-0.2,0.5-0.6,0.8-0.3C87.9,50.3,87.9,50.7,87.5,50.8z M88.1,49.2l0.2-0.3c0.1,0.1,0.2,0.1,0.3,0.2c-0.1,0.1,0,0.3-0.2,0.4
		C88.2,49.5,88.2,49.4,88.1,49.2z M81-8.9c0.2,0.3,0.1,0.8,0.3,1.1l0,0.2L81-8.9z M90.4,22.3c0.1,0.3-0.2,0.5-0.5,0.7
		c-0.2,0.1-0.3-0.1-0.5-0.2c-0.2,0.1-0.4,0.4-0.6,0.2c-0.1-0.2,0-0.5,0.3-0.6c0.3,0.2,0.4-0.3,0.7-0.2C90,22.2,90.3,22,90.4,22.3z
		 M90.6,22.3c0.3-0.3,0.7-0.1,1.1,0c-0.2,0.3-0.6,0.2-0.9,0.4C90.6,22.6,90.5,22.5,90.6,22.3z M92.1,22.4v-0.1h0.1v0.1H92.1z
		 M103.9,16.1c0.1,0,0.2-0.1,0.3-0.2c-0.1-0.5-0.7-0.4-1-0.6c-0.1,0-0.1,0.2-0.3,0.1c-0.2-0.1-0.2-0.3-0.2-0.5
		c0.3-0.1,0.6,0.2,0.9,0.2l0.5,0.4c0.3-0.1,0.3,0.2,0.3,0.3c0,0.4-0.5,0.5-0.8,0.8c-0.5,0.2-1.2-0.3-1.6,0.3
		c-0.2-0.1-0.6-0.2-0.5-0.5C102.2,15.7,103.2,16,103.9,16.1z M102,14.9c0.2,0,0.3,0.2,0.3,0.2v0.1l-0.5,0
		C101.7,15,101.8,14.9,102,14.9z M103,12.5c0.6-0.1,0.2,0.6,0.5,0.8c0,0.4,0,1-0.5,1.2c-0.2,0.1-0.2-0.2-0.3-0.3
		C103,13.6,102.6,12.9,103,12.5z M106.3,14.8c0.4-0.5,0.8,0.8,1,0c-0.1-0.2-0.5-0.2-0.4-0.5c0.5-0.3,0.7,0.7,1.2,0.2
		c0.4,0,0,0.4,0.2,0.7c-0.5-0.2-0.5,0.9-0.9,0.3c0-0.1,0.1-0.4-0.1-0.4c-0.2,0-0.2,0.2-0.2,0.3c-0.5,0.1-1,0.1-1.4-0.2
		c0-0.1,0-0.3-0.2-0.4c-0.3,0.2-0.7,0.2-1.1,0.2c-0.2-0.3,0.2-0.5,0.3-0.7c0.4,0.4,1.2-0.6,1.2,0.2l-0.1,0.1
		C105.9,14.9,106.1,14.7,106.3,14.8z M106.7,12.2c0.1,0.2,0.3,0.5,0.1,0.7h-0.1C106.5,12.7,106.7,12.4,106.7,12.2z M106.6,13.6
		c0,0.1,0,0.2-0.1,0.3c-0.2,0-0.3-0.1-0.3-0.3l0.1-0.2C106.4,13.4,106.6,13.5,106.6,13.6z M108.9,13.5c0.4-0.2,0.5,0.9,0.6,0.1
		c0.3,0.1,0.5,0.4,0.7,0.7c0.2,0.5-0.4,0.4-0.3,0.8c-0.2,0-0.4,0.4-0.6,0.3c0-0.1,0.1-0.2,0.1-0.3c-0.3,0.1-0.6-0.2-0.7-0.5
		C108.6,14.2,108.4,13.7,108.9,13.5z M109.4,12c0,0.1-0.1,0-0.1,0C109.2,11.9,109.3,11.9,109.4,12z M110.2,14.9
		c0.1-0.2,0.3-0.9,0.5-0.4l-0.1,0.4L110.2,14.9z M110.9,15.2l0-0.2c0.1,0.3,0.9,0.1,0.4,0.5C111,15.6,111.2,15.1,110.9,15.2z
		 M111.8,13.2c0.2-0.1,0.5,0,0.5,0.2c0.1,0.2-0.1,0.3-0.2,0.3c-0.2,0.1-0.4,0-0.5,0C111.4,13.6,111.6,13.3,111.8,13.2z M112.8,13.7
		l0-0.1h0.1C112.8,13.7,112.8,13.7,112.8,13.7z"/>
	<path fill="#720018" d="M80.4,44c-0.2-0.2-0.5-0.4-0.4-0.7c-0.2,0-0.2,0.3-0.3,0.4C79.8,43.7,80,44.3,80.4,44z"/>
	<path fill="#720018" d="M79.6,43.7c0,0-0.1,0-0.1,0C79.5,43.7,79.6,43.7,79.6,43.7C79.6,43.7,79.6,43.7,79.6,43.7z"/>
	<path fill="#720018" d="M91.1,39.4c-0.3-0.1-0.2-0.4-0.3-0.6L90.5,39c-0.3,0.1-0.6-0.2-0.9-0.3c0-0.2,0-0.3-0.2-0.4
		c-0.2,0-0.3,0-0.4,0.2c-0.2,0.1-0.5,0.1-0.7-0.2c-0.2-0.3,0.1-0.5,0.3-0.7c-0.4,0.1-0.8-0.2-1.2,0.1c-0.1-0.3-0.4-0.5-0.3-0.8
		c-0.2,0-0.5,0.1-0.7-0.2c-0.1-0.2-0.1-0.5,0.1-0.6c0.5-0.2,0.7,0.5,1.1,0.6c0-0.1-0.1-0.2-0.2-0.2c0-0.2,0.2-0.3,0.2-0.5H87
		c-0.6-0.3-0.8,0.9-1.2,0.3c-0.1-0.2,0.1-0.3,0.2-0.5c0.3,0.1,0.5-0.3,0.8,0.1v-0.5c0.1-0.2,0.4-0.1,0.5-0.2
		c-0.1-0.1-0.1-0.3-0.1-0.4c0.2-0.6,0.6,0.1,1-0.1c-0.1-0.2-0.2-0.3-0.4-0.5c-0.2-0.7,0.7-0.3,0.9-0.7c-0.2-0.2-0.6-0.3-0.5-0.7
		c0-0.2,0.2-0.2,0.4-0.2c0.5,0.5,0.1-0.4,0.5-0.5c0.2-0.1,0.4,0.1,0.6,0.1c0.2-0.2-0.1-0.4-0.1-0.7c0.3-0.3,0.7,0.2,1,0.1l-0.1-0.6
		c0.3-0.5,0.6,0.2,0.9,0.2c0.4-0.2-0.3-0.2-0.2-0.5c0-0.3,0.3-0.3,0.5-0.3c-0.3-0.5,0-1.6-0.9-1.4c-0.1,0.4-0.6,0.3-0.9,0.5
		c0.2,0.3-0.2,0.6-0.4,0.8c0.2,0.5-0.5,0.7-0.8,0.9c-0.4-0.1-0.9,0.4-1.3,0c0.6-0.4,0.1-1.2,0.4-1.7l-0.3-0.1
		c-0.8-1.4-1.7-2.8-1.8-4.5c0.2-0.7-0.5-1.1-0.3-1.8c0.2-0.5-0.2-1.2,0.3-1.6l-0.2-0.1c-0.1-0.2,0-0.3,0.1-0.4
		c-0.1-0.8,0.2-1.5,0.3-2.3c0.4-0.2-0.1-0.6,0.3-0.8c-0.2-0.3,0.3-0.5,0.3-0.7l-0.1-0.1c0.1-0.3,0.1-0.7,0.3-1
		c0.5-0.5,0.5-1.3,1.1-1.9c0.1-0.9,0.8-1.5,1.3-2.3c0.3-1.3,1.3-2.4,1.7-3.7c0.2-0.3,0-0.7,0.3-0.9c0.2-1.2,0.5-2.7,0.1-3.9
		c0.4-0.8-0.3-1.3-0.7-1.9c-0.1-1,0.1-2.1,0.8-2.9c0.9-1.9,2.4-3.5,2.9-5.6l0-0.4c0.5-1,0.6-2.2,0.9-3.2c0-0.8,0.2-1.5,0.4-2.2
		c0.3-0.3,0-0.8,0.3-1.2c-0.4-0.3,0.4-0.5-0.1-0.8l0.1-0.1c0.1,0,0.1-0.2,0.1-0.3c-0.2-0.2-0.2-0.7-0.1-1c0.2-0.3-0.2-0.3-0.3-0.4
		c-0.1,0.1-0.2,0.2-0.2,0.4c-0.7,0.5-0.5,1.4-0.6,2.2c-0.9,2.4-1,5.1-2.6,7.2c-0.1-0.1-0.1-0.1-0.2-0.1c-0.3,0.4-0.4,1-0.8,1.2
		c-0.2-0.3,0-0.7,0-1.1C91-6.7,91.3-7,91-7.2c0.3-0.5,0.1-1.1,0.3-1.6c0-2.2,0.4-4.2,0.9-6.2c0.4-0.7,0.1-1.6,0.8-2.2
		c-0.1-0.6,0-1.3,0.3-1.8c0.4-1.3,0.4-2.8,0.7-4.1c-0.1,0-0.2,0.1-0.3,0.2c0.1,0.5-0.6,0.7-0.6,1.2c-0.5,0.2,0,0.8-0.4,1.2
		c-0.4,2.1-1.6,3.8-1.8,6c-0.5,0.6-0.2,1.5-0.7,2c0.3,0.5-0.2,1-0.3,1.5c0.1,0.3-0.1,0.7-0.2,1c-0.1,1.5-0.7,2.8-0.6,4.4
		c-0.5,0.4,0.2,1.1-0.4,1.3l0.1,1c-0.3,0.3-0.1,0.8,0,1.1c0.2,0.3-0.2,0.8,0.2,1c-0.2,0.4,0,0.8,0,1.2c-0.1,0.2-0.2,0.4-0.4,0.3
		c-0.8-0.2,0.1-1-0.5-1.3c0.3-0.4-0.2-0.7-0.2-1.1c0.3-0.4-0.2-0.7-0.2-1.1c0,0,0.1-0.1,0.1-0.1c0.1-0.3-0.1-0.5-0.3-0.7l-0.6-3.5
		c-0.1-0.5,0.1-1.1-0.2-1.5c0.1-1.2,0.1-2.4,0.3-3.5c0.3-0.6,0.2-1.4,0.4-2c0.1-0.2,0.3-0.4,0.1-0.5c0.2-0.3,0-0.7,0.3-1
		c-0.2-0.8,0.3-1.5,0.2-2.2c0-0.2,0.4-0.3,0.2-0.5c0-0.7,0.9-1.2,0.7-2c0.3-0.4,0.3-0.9,0.4-1.4c0.1-0.2,0.3-0.3,0.2-0.6
		c-1.1,0.5-0.5,2-1.1,2.9c-0.5,0.2-0.2,1-0.7,1.3c0.1,0.1,0.3,0.2,0.2,0.4c-0.6,0-0.3,0.7-0.5,1c-0.5-0.1-0.3,0.5-0.5,0.7
		c0.2,0.5-0.2,0.9-0.1,1.5c-0.1,0.4-0.7,0.4-0.6,0.9c0.5,0.4-0.2,0.6-0.2,1l0.3,0.5l-0.4,0.2c-0.1,1.1,0,2.2-0.2,3.3
		c0.2,1.6,0.2,3.3,0.5,4.9c0.5,0.3-0.3,0.6,0.1,1c0.1,0.3-0.1,0.6-0.2,0.9l-0.7-1.1c-0.5,0-0.4-0.5-0.6-0.8c-0.5-0.4-0.9-1-1.1-1.6
		c-0.3-0.9-0.6-1.8-0.6-2.7c-0.3-0.2,0.1-0.5-0.2-0.8c-0.1-0.3-0.3-0.8,0.1-1l-0.1-0.1c0.2-1.3,0.1-2.8,0.5-4.1
		c-0.2-1.4,0.4-2.8,0.6-4.1h-0.1c-0.2,0-0.1,0.2-0.1,0.3c-0.5,0-0.1,0.7-0.5,0.9c-0.1,0.7-0.3,1.3-0.2,1.9l-0.4,0.5
		c-0.3,0.2,0.2,0.6-0.2,0.7c-0.1,0.1-0.1,0.3,0,0.4c0.1,0.2,0.1,0.5-0.1,0.6c0.2,0.4-0.3,0.7-0.1,1c-0.1,0.4,0.1,1-0.2,1.3
		c0.2,0.5-0.1,0.9-0.1,1.4c0,0.3,0,0.6,0.3,0.6c0.1,0.3-0.3,0.5-0.3,0.8c0.3,0.4,0.2,1.1,0.2,1.6c0.4,0.3,0.3,0.9,0.3,1.4
		C83.2-5,82.9-4,83.2-3.3c0.1,0.5-0.4,0.1-0.6,0.5c-0.6,0-1-0.6-1.5-0.9c-0.1-0.2,0.2-0.3,0-0.4c-0.7-0.9-0.8-2.1-1.2-3.2
		c0-0.6-0.5-1.2-0.1-1.7c-0.1-0.2-0.2-0.5-0.4-0.4c-0.1-0.5-0.6-1.1-0.1-1.5c0-0.1-0.1-0.2-0.2-0.1c-0.2-0.2-0.3-0.4-0.2-0.7
		c-0.6-1.3-0.4-3.1-1.1-4.3c-0.1,0.1-0.1,0.2-0.1,0.3c-0.1,0.6,0.3,1.3-0.1,1.8c0.1,0.8,0,1.6-0.1,2.3c0.6,0.6,0.3,1.4,0.4,2.2
		L78-9.5c0.4,0.2-0.2,0.4,0,0.7c-0.5,0.4,0.5,0.5,0.2,1c0.4,0.3-0.1,0.9,0.4,1.2c-0.1,0.9,0.6,1.4,0.7,2.3C80-4,79.4-3,80.1-2.6
		c-0.1,0.8,1.2,1.2,0.7,2c0,0.2,0.2,0.1,0.3,0.3C81,0,81.6,0.1,81.3,0.5l-0.6-0.7c-0.2-0.2-0.5-0.1-0.8,0c0.2,0.3,0.3,0.6,0.5,0.8
		c0.1,0.1,0.3,0,0.4,0.2c0,0.2,0.1,0.4,0,0.5C80,0.8,79.3,0,78.5-0.6c0-0.1,0-0.1,0-0.1C78.7-1,78.3-1,78.1-1
		c-0.3,0-0.2-0.5-0.6-0.4c-0.3-0.9-1.2-1-1.7-1.7c0-0.1-0.2-0.2-0.1-0.4c-0.2-0.1-0.3-0.1-0.4-0.2C74.8-4.4,74.5-5,74-5.5
		c-0.4,0.1-0.5-0.5-0.7-0.8c-0.4-1.6-1.4-3.1-1.2-5c-0.1,0-0.1,0.1-0.2,0.1c-0.2-0.1,0-0.4-0.1-0.5c-0.1,0-0.2-0.1-0.3,0
		c-0.2,0.3,0.2,0.6,0,0.9c-0.1,0.2-0.1,0.4,0.1,0.4c0,0.1-0.1,0.2-0.1,0.3c-0.2,0.2,0,0.2,0.1,0.3c0.1,0.1,0,0.4-0.1,0.4l0.2,0.2
		c0,0.2-0.2,0.3-0.3,0.4c-0.1,0.6,0.2,1.1,0.4,1.7c0,0.6,0.5,1.1,0.5,1.7c0.8,1,1.2,2.1,2.2,3.1c0,0.6,0.7,0.9,1.1,1.4
		c0.4,0.1,0.5,0.6,0.7,0.8c0.3,0,0.6,0.1,0.8,0.4c0.2,0.2,0.4,0.6,0.7,0.7c0.2,0.2,0.8,0.3,0.7,0.8C78.2,1.7,78,2,77.7,1.8
		c-0.2-0.6-0.8-0.8-1.2-1.2c-0.1-0.2-0.2-0.5-0.5-0.4c-0.4,0-0.2-0.8-0.7-0.4C74-0.9,72.9-2,71.7-2.8c-0.3-0.2-0.5-1-1-0.7
		c-0.1,0.3-0.5,0-0.6,0.2c0,0.5,0.1,1,0.2,1.4c0.1,0.5,0.6,0.3,0.9,0.7c0,0.1,0,0.3-0.1,0.3c0.4,0.2,0.5,0.6,0.8,1
		c0.2,0,0.4,0.1,0.5,0.2c-0.2,0.4,0.4,0.4,0.5,0.7c0.3,0.4,0.5,0.9,0.3,1.4c-0.2-0.1-0.4-0.2-0.6-0.3c-0.1-0.2-0.1-0.3,0-0.5
		c-0.2,0-0.2,0.2-0.3,0.3c-0.3-0.2-0.9-0.2-1-0.7c-0.1,0-0.1,0.1-0.2,0.2l-1.5-0.8c0.3-0.9-0.8-0.1-0.9-0.6
		c-0.3,0.1-0.5,0.2-0.8,0.4c-0.1,0.4,0.4,0.5,0.6,0.8c-0.3,0.8,0.9,0.5,0.9,1.2c0.5,0.2,0.8,0.6,1.3,0.8c0.3,0.1-0.1,0.3,0.1,0.5
		c0.1,0,0.1-0.1,0.2-0.1c0.1,0,0.2,0.1,0.2,0.2C71.2,4,71.1,4.2,71,4.1c0,0.1,0.1,0.2,0.1,0.3c0,0.1-0.1,0.1-0.2,0.1
		c-0.3,0.5-0.8,0.1-1.2,0.1c-0.3-0.2-0.6-0.3-1-0.3c-0.2,0-0.5,0.4-0.7,0c-0.1,0-0.3,0-0.4,0.2c-0.1,0.3,0.1,0.6,0.2,0.9
		c0.1,0.5,0.6,0.5,1,0.6c0.3,0.5,1,0,1.3,0.7c0.1,0.1,0,0.3-0.1,0.4c-0.8,0-1.4,0.4-1.9,0.9c-0.2,0.2-0.5,0.2-0.7,0.5
		c0.2,0.2,0.2,0.4,0.5,0.6c0.6,0.1,1,0.4,1.6,0.4c0.2,0.2,0.6,0.2,0.5,0.6l-1.1,0.3c-0.2,0.1-0.4,0.3-0.6,0.4
		c-0.2,0.1-0.5,0.2-0.5,0.5c0,0.5,0.6,0.4,0.6,0.8c0.1,0.2,0.3,0.2,0.5,0.2c0.2-0.1,0.3,0.4,0.5,0.1c0.3,0.1,0.7,0,0.8,0.4
		c-0.3,0.2-0.7,0.3-1.1,0.4c-0.5,0-0.8,0.2-1.2,0.5c-0.5-0.2-0.5,0.4-0.9,0.4c0.2,0.2,0.2,0.5,0.3,0.8l0.1-0.1
		c0.4-0.1,0.2,0.4,0.4,0.5c0.1,0.1,0.2,0,0.3,0.1c0.1,0.1,0.1,0.2-0.1,0.3c-0.6,0.1-1.1,0.5-1.6,0.9c-0.5,1.5,1.3,0.2,1.6,1.2
		c-0.2,0.3-0.5,0.4-0.8,0.6c-0.2,0.2-0.8,0.5-0.6,0.9c0.2,0,0.5,0.2,0.7-0.1l0.3,0.3c-0.2,0.9-1.2,0.7-1.4,1.5
		c0.1,0,0.1,0.2,0.2,0.1c0.1,0.2,0.5,0.2,0.4,0.5c-0.5,0.2-0.2,0.9-0.4,1.3c0.2,0.3,0.7-0.1,0.9,0.2c0,0.4-0.3,0.7-0.6,1v1
		c0.6,0.4-0.5,0.7-0.2,1.1c0.4,0.2,0.4,0.7,0.5,1c-0.1,0.3-0.4,0.2-0.5,0.3c-0.2,0.1-0.4,0.3-0.3,0.6l0.4,0.1c0.6,0.4-0.1,1-0.1,1.4
		c0.4,0,0.7-0.1,0.9,0.3c-0.1,0.1-0.3,0.2-0.3,0.4c-0.9,0.9,0.6,0.2,0.8,0.6c0.1,0.2,0,0.4-0.1,0.6c0.4,0.2,0.1,0.8,0.1,1.1h0.3
		c0.2-0.2,0.9,0,0.7-0.6c0.2-0.3,0.6,0.1,1-0.1c0.2,0.3,0.5,0.1,0.8-0.1c0.2,0.4,0.6,0,0.8,0.1c0.4,0,0.7-0.3,1.1-0.4
		c0.7,0.8-0.7,0.6-0.7,1.2c0.6,0.1,1.2-0.1,1.9,0c0.4,0.5,0.7-0.2,1.2,0c0.1,0.1,0.3,0.2,0.3,0.3c0.5,0.7-0.6,0.9-0.9,1.4
		c-0.7-0.1-1,0.8-1.4,1.2C73.3,35.8,73,35.8,73,36c-0.3,0.6-0.8,1-1.2,1.6c-0.3,0.7-1.2,0.4-1.8,0.5l-0.2,0.2c-0.3,0.1-0.6,0-0.8,0
		c-0.7,0.2-1.1-0.5-1.8-0.5c-0.3-0.1-0.5-0.3-0.8-0.3c-3.3-1.1-6.3-2.8-9.1-5c-0.7-0.6-1.4-1.2-2.1-1.7c-0.7-0.1-0.7-1.1-1.3-1.1
		c-0.1,0.1-0.2,0.2-0.1,0.3c0.4,0.3-0.1,1,0.4,1.3c-0.1,0.2-0.3,0.2-0.2,0.5c0.1,0.2,0.1,0.4,0.3,0.4c-0.1,0.7,0.8,0.7,1,1.2l-0.2,0
		c-0.3-0.1-0.6-0.4-1-0.4c-0.3-0.3-0.6-0.8-1.1-0.6c0.3,0.4,0.8,0.6,1.2,0.7c0.2,0.1,0.4,0.4,0.7,0.5c0.4,0.5,1,0.3,1.4,0.8
		c0.2,0,0.3,0.1,0.5,0c0.4,0.4,1.1,0.5,1.2,1.1c0.1,0,0.1-0.1,0.2-0.1c0.2,0.1,0.3,0.4,0.3,0.6c-0.1,0.2,0.5,0.6,0,0.7
		c-0.2,0-0.4,0-0.5-0.2c0-0.3-0.5-0.2-0.7-0.4c-0.2-0.1-0.2-0.3-0.5-0.2c-0.2-0.1-0.2-0.4-0.4-0.5l-0.1,0.3c-0.2,0-0.3-0.1-0.5-0.3
		c-1-0.3-1.8-1.1-2.9-1.1v0c0.7,0.4,1.6,0.7,2,1.5c0.1-0.1,0.2-0.2,0.2-0.2c0.3,0.2,0.7,0.3,1,0.6l-0.1,0.1l-1.8-0.1
		c-0.3-0.1-0.6-0.3-0.9-0.2c-0.1,0-0.2,0.1-0.2,0.2c0.7,0.1,1.3,0.4,1.9,0.6c0.7-0.1,1.1,0.4,1.8,0.2c0.2,0.1,0.5,0.2,0.3,0.4
		c0.1,0.6,0.7,0.2,0.9,0.1c0,0,0,0.1,0,0.1l0.2,0.1c0.2,0.2,0.2,0.4,0.2,0.6c-0.1,0.2-0.3,0.4-0.5,0.3c-0.2,0.3-0.4-0.3-0.7-0.2
		c-0.2,0.5-0.6-0.1-0.8-0.2c-0.2-0.1-0.6,0.2-0.6-0.2c-0.4,0-0.4-0.5-0.8-0.6c-0.2,0.3,0.4,0.3,0.3,0.7c-0.4,0.7-1.3,0.2-1.9,0.4
		c0,0.1,0,0.1,0.1,0.2c1.4,0,2.7,0.2,4.1,0.3l0.2,0.2c0.1,0,0.2,0,0.2,0c0.5-0.4,1.1-0.2,1.6,0c0-0.4-0.4-0.5-0.6-0.8
		c-0.2-0.4,0.2-0.6,0.5-0.8c0.3,0,0.7-0.2,1,0.1c0.3,0.5,0.8,0.7,1.3,0.7c0.1-0.2-0.2-0.2-0.2-0.4c-0.1-0.2-0.2-0.6-0.5-0.4v-0.1
		c0-0.4-0.5-0.2-0.8-0.3c-0.2-0.3-0.7-0.4-0.6-0.9c-0.1,0-0.4,0.1-0.5-0.1c-0.1-0.3,0-0.5,0.2-0.7c0.4-0.1,0.7,0.3,1,0.6
		c0,0.2-0.1,0.4,0,0.6c0.2,0,0.3,0,0.4,0v-0.2c-0.1,0.1-0.2,0-0.3-0.1c0-0.2,0.2-0.2,0.3-0.3c0.5-0.1,0.5,0.5,0.8,0.7
		c0,1.1,0.5-0.4,0.9-0.2c0.1,0.1,0.2,0.3,0.3,0.2c0.2-0.1,0.5-0.1,0.7,0.2c-0.3,0.3-0.8,0.2-1.2,0.2c0,0.2,0.2,0.4,0.3,0.5
		c0.2,0,0.3-0.1,0.4-0.2l0.1,0.1c0.3,0.8,1,0,1.4,0.4c0.4-0.4,0.6,0.3,1,0.5c0.3,0.3,0.6-0.3,0.9-0.1c0.1,0.2,0,0.5-0.2,0.6
		c0,0.4,0.5,0.2,0.7,0.2c0.2-0.2,0.4-0.1,0.6-0.1c0.1,0,0.1-0.2,0.2-0.2c0.2,0,0.3,0.1,0.4,0.2c0.2,0.3,0.6,0.2,0.8,0.6
		c0.1,0.2,0,0.5-0.2,0.6c-0.1-0.1-0.2-0.1-0.2-0.2c-0.2,0.3-0.6,0.5-0.6,0.8c-0.2,0-0.2-0.2-0.3-0.3c-0.1,0.1-0.2,0.2-0.3,0.3
		c-0.2-0.7-0.9,0-1.1-0.7c0.1-0.2,0.2-0.4,0.4-0.4l-0.3-0.2c-0.3-0.2-0.3,0.3-0.7,0.2c-0.3,0.4-0.4-0.2-0.6-0.3
		c-0.2-0.1-0.2,0.1-0.3,0.2c-0.2,0-0.3-0.1-0.5-0.1c0.3,0.1,0.3,0.5,0.4,0.7c0.2-0.1,0.3,0.1,0.4,0.1c0-0.2,0.1-0.3,0.2-0.4
		c0.1,0.2,0.5,0.3,0.4,0.6c-0.4,0-0.2,0.5-0.5,0.7c-0.1,0.3,0.3,0.9-0.1,1c-0.2-0.1-0.4,0-0.4-0.2c-0.1-0.3,0-0.7,0.4-0.8
		c0-0.7-0.5,0-0.9-0.1c-0.3-0.1-0.1-0.4-0.2-0.6l-0.4,0.3c-0.6,0,0-0.6-0.2-0.9c-0.3-0.4-0.8-0.4-1.2-0.7c-0.7-0.3,0.3,0.5-0.3,0.7
		c-0.4,0.3-0.9,0.1-1.4,0.3c-0.2-0.2,0.2-0.4-0.1-0.5c-0.2,0-0.5-0.1-0.6,0.1c0.2-0.1,0.4,0.2,0.5,0.3c-0.1,0.1-0.3,0-0.4,0.1
		c0.1,0.2,0.3,0.3,0.4,0.5c0.5,0.1,0.5,0.8,1.1,0.9c0,0.2,0.2,0.4,0,0.5c-0.4,0.1-0.7-0.1-0.9-0.4c-0.1-0.2-0.1-0.4-0.4-0.4
		c-0.2,0.1,0,0.2,0,0.4c-0.4,0.2-0.9,0-1.3,0l-0.1-0.1c-0.1-0.1-0.4-0.1-0.5,0L58,41.5c-0.2-0.1-0.5,0-0.7,0
		c-0.2-0.2-0.5-0.1-0.5-0.4c0.2-0.2,0.1-0.7,0.5-0.7c0.3,0,0.3,0.4,0.3,0.6l0.5-0.4c0.2,0,0.5-0.1,0.6,0.1c0.1,0,0.1,0.1,0,0.1
		c0,0.1,0.2,0.3,0.4,0.2c0.2-0.5,0.5,0.2,0.7,0c-0.3-1.1-1.6-0.5-2.3-0.8c-0.5,0.3-0.9-0.2-1.3-0.2c-0.6,0.4-1.2-0.1-1.8,0l-0.1,0.1
		c0.2,0.2,0.6,0.1,0.8,0.2c0.5,0.2,1.3-0.1,1.7,0.3c-0.1,0.2,0,0.6-0.3,0.8c-0.6-0.1-1.3-0.3-1.9-0.4c0,0.1-0.1,0.1-0.1,0.2
		c0.1,0.1,0.2,0.2,0.4,0.2c0.2,0.2,0.4-0.2,0.5,0.1c0.6-0.1,1.1,0.4,1.8,0.2c0.2,0.1,0.2,0.3,0.3,0.5c-0.3,0.3-0.5-0.2-0.8-0.3
		c-0.6,0.5-1.3-0.1-1.9,0.2c0.5,0.4,1.3-0.1,1.7,0.4c0.3-0.3,0.6,0.3,1.1,0c0.2,0.1,0.2,0.4,0.3,0.6c0.3,0.1,0.3-0.2,0.4-0.3
		c0.4,0,0.8,0,1.1,0.2c0,0.5,0.6,0.2,0.9,0.2c0.2,0,0.3,0.3,0.5,0.1c0.1,0.2,0.3,0.1,0.2,0.3c-0.1,0.1-0.2,0.2-0.3,0.2
		c-0.7-0.2-1.6-0.3-2.3-0.2c-0.6-0.2-1.3-0.2-1.9-0.2c0.2,0.2,0.5,0.2,0.7,0.2c0.2,0,0.3,0.3,0.6,0.2c0.3,0.2,0.7,0.2,1,0.4
		c1,0.2,1.9,0.8,3.1,0.6c0.4-0.2,0.9,0.4,1-0.3c0.4-0.1,0.7,0.2,1,0.2c0.3,0.6,1,0.5,1.5,0.7c0.5-0.2,1.2,0,1.8-0.1l0.2,0.1
		c0.3,0.2,0.6,0.2,0.9,0.1c0.4,0.1,0.9-0.1,1.2,0.3c0.1,0.4-0.3,0.2-0.5,0.6c-0.2,0.2,0.2,0.3,0.3,0.4c0.3,0.3,0.2-0.2,0.4-0.3
		c0.2-0.2,0.4,0.1,0.5,0.2c0.2,0,0.5,0.1,0.6-0.1c0.4,0.3,0.9,0.2,1.4,0.2c0.2,0,0.3,0.2,0.5,0.2c0.3-0.7,1-0.2,1.5-0.4
		c0.7,0.5-0.2,1.1,0.1,1.7c0.1,0.2,0.3,0.3,0.5,0.4c0,0.5-0.2,0.9-0.1,1.3c-0.1,0.5,0.8,0.5,0.4,0.9c-0.1,0.2-0.2,0.6,0.1,0.8
		c0.2,0.1,0.4-0.1,0.6-0.1c0.6,0.3,0,1,0.3,1.4c0.3,0.2,0.5-0.1,0.7-0.2c0.1,0.2,0.2,0.3,0.2,0.4c-0.4,0.5,0,1.1,0.3,1.5
		c0.1,0,0.2,0,0.3-0.1c0-0.3,0.3-0.1,0.4-0.4c0.2-0.4,0.6,0,0.8,0.2c0.3,0.1,0.5-0.2,0.7-0.4c0.3,0,0.5,0.4,0.7,0.5
		c0.3,0.2,0.2-0.2,0.4-0.3c-0.3,0.1-0.4-0.2-0.6-0.3c0-0.3,0.1-0.6,0.4-0.8c0.2,0.3,0.6,0.1,0.8,0.3c0,0.1,0,0.3-0.1,0.4
		c-0.2,0.2,0.1,0.5,0.3,0.6c0.5,0.5,0.6-0.5,1.1-0.4c0.3,0.6,0.5-0.2,0.9-0.2c0.4,0.4,0.7-0.2,1.1-0.2c0.3-0.1,0.4,0.2,0.7,0.3
		c0.7,0.1,1.3,0.5,1.9,0.7c0.1-0.1,0.2-0.3,0-0.5l-1.2-0.3c0-0.1,0-0.3-0.2-0.4C85.1,53.5,85.1,54,85,54c-0.7-0.1,0.1-0.6,0-0.9
		l-0.4,0c-0.3-0.2-0.4-0.5-0.4-0.8c-0.1,0.2-0.1,0.4-0.4,0.5c-0.2-0.1-0.3-0.4-0.4-0.6l-0.1,0.5c-0.2,0.2-0.3,0.5-0.5,0.5
		c-0.3-0.1-0.3-0.4-0.3-0.6c0.2-0.3,0.5-0.7,0.9-0.6c-0.1-0.2-0.3-0.5-0.3-0.8c-0.1-0.3,0.2-0.4,0.4-0.3v0c-0.1-0.1-0.3,0-0.5-0.1
		c-0.1-0.2-0.2-0.5-0.2-0.8c0.2-0.5,0.4,0,0.7-0.1c0.1,0,0.3-0.1,0.2-0.2c0-0.1-0.1-0.1-0.1-0.1c-0.2,0.1-0.4,0.1-0.5-0.1
		c-0.2,0-0.3,0.5-0.5,0.1c-0.4-0.4,0.3-0.5,0.5-0.7c-0.2,0-0.5-0.2-0.6-0.4c0,0.4-0.2,0.7-0.1,1.1c0.4,0.3,0.2,0.8,0.2,1.2
		c-0.1,0.2-0.2,0.5-0.6,0.5c-0.3-0.1-0.1-0.6-0.2-0.8c-0.1,0.5-0.6,0.6-1,0.8c-0.2-0.3-0.4-0.6-0.3-1c0.2-0.5,0.8-0.1,1.1-0.2
		c0.2,0,0.3-0.3,0.2-0.5c-0.1,0-0.2,0.1-0.3,0.2c-0.1,0.4-0.3,0-0.5-0.1c-0.1-0.3,0.1-0.5,0.1-0.8c-0.2,0-0.2,0.3-0.4,0.2
		c-0.4-0.1-0.5-0.5-0.6-0.9c-0.3-0.2-0.7,0.4-1,0c-0.3-0.2-0.4-0.6-0.4-0.9c-0.2,0.2-0.6,0-0.8,0.2c0.1,0.3,0.4,0.4,0.5,0.5
		c-0.1,0.3-0.2,0.5-0.4,0.7c-0.2,0.1-0.4,0.2-0.5,0c-0.2-0.2,0-0.5,0-0.8c0-0.2,0.4-0.4,0.2-0.5c-0.4-0.2-0.2-0.6-0.2-0.9
		c-0.8,0.4,0.2,1.4-0.5,1.9c-0.9,0.3-0.2-0.7-0.6-1c-0.1,0.2-0.3,0.4-0.5,0.4c-0.2-0.1-0.5-0.3-0.5-0.5c0.1-0.3,0.1-0.6,0.3-0.8
		c0.5-0.3,0.3,0.6,0.7,0.7c0.7-0.2-0.2-0.6-0.2-1c0.2-0.2,0.1-0.6,0.4-0.7l-0.1-0.1c-0.1-0.3,0-0.5,0.3-0.7c0.5,0.3,0.3-0.4,0.6-0.6
		c0-0.1,0.2,0,0.1-0.1c-0.1,0-0.2,0.1-0.4,0c0.1,0.2-0.1,0.4-0.2,0.6c-0.2,0-0.2-0.2-0.4-0.4c-0.2,0-0.2,0.2-0.3,0.3
		c-0.1,0-0.2-0.1-0.2-0.1c0-0.2-0.1-0.6,0-0.8c0.2-0.2,0.4-0.6,0.8-0.4c0.6,0.3,1.2,0.6,1.7,1.1c0.1-0.1,0.1-0.4,0.3-0.4
		c0.1,0.1,0,0.1,0,0.2c0.1,0.2,0.4,0.5,0.7,0.5v0c-0.3-0.1-0.3-0.4-0.3-0.6c0.1-0.2,0.1-0.3,0.2-0.3c-0.3,0.1-0.6,0.5-1,0.3
		c-0.7-0.2-0.1-0.9-0.2-1.3c-0.6,0-0.2,0.7-0.6,0.9c-0.3-0.1-0.3-0.5-0.5-0.8c-0.1,0-0.2,0-0.2,0.1c-0.2,0.1-0.5,0.1-0.7-0.1
		c-0.5-0.5,0.5-0.8,0.5-1.2c0.2-0.1,0.4-0.7,0.7-0.4v-0.1c0.1-0.2,0.2-0.4,0.4-0.4c0.1,0.1,0.3,0.2,0.3,0.4c0.1,0,0.2,0,0.3-0.1
		c0.4-0.7,0.9,0.1,1.5,0c0.5,0.1,0.1,0.9,0.7,1c0.1,0.4,0.6,0.7,0.7,1.1c0.5,0.4,0.4,1,0.9,1.3c-0.2,0.1-0.2,0.4-0.1,0.7
		c0.3-0.1,0.4,0.2,0.7,0.1c0.9-0.4,1.5-1.3,2.2-1.8c0.2-0.6,0.9-1,0.9-1.6c-0.2,0-0.2,0.3-0.5,0.3c-0.2-0.1,0-0.3,0-0.5
		c0.1-0.5,0.6-0.4,1-0.5c0.2,0.2,0.4,0,0.6-0.1c0-0.3-0.4,0.1-0.6-0.1c0-0.2-0.1-0.5,0.2-0.5c0.1,0,0.3-0.1,0.4,0
		c-0.1,0.6,0.5,0,0.7,0.3c0.2-0.3,0.5-0.3,0.8-0.3c0.3,0,0.2-0.3,0.2-0.5c0.2,0,0.6-0.1,0.5,0.2c0.1,0.1,0.2,0.3,0.4,0.2
		c0.1-0.3-0.4-0.5-0.1-0.8c0.5-0.1,0.4,0.5,0.8,0.7c0.6-0.2,1.2,0.2,1.7,0.3c0.6,0,1,0.6,1.6,0.6l0-0.4c-0.3-0.1-0.5-0.2-0.8-0.2
		c-0.1-0.2-0.3-0.3-0.4-0.4c-0.2-0.1,0-0.3,0-0.4l-0.7,0C91.8,39.3,91.4,39.4,91.1,39.4z M90.3,29.6c0.4,0,0.7-0.1,0.9,0.2
		c0,0.2-0.2,0.2-0.3,0.3c-0.2,0.1-0.1-0.1-0.2-0.2c-0.2,0-0.3,0.1-0.5,0.1C90.1,29.9,90.3,29.7,90.3,29.6z M90,31
		c0.1,0,0.1,0.2,0.1,0.3c0,0-0.1,0-0.1,0L90,31z M88.9,31.7C88.9,31.7,89,31.8,88.9,31.7L88.9,31.7L88.9,31.7z M88.4,32
		c0.1,0.1,0,0.2,0.1,0.4c-0.1,0-0.1,0-0.1-0.1L88.4,32z M89.7-5.7L89.7-5.7l0,0.2h0V-5.7z M87.9-0.9l-0.3,0l0-0.2
		C87.7-1,87.9-1,87.9-0.9z M71.6-0.7l0-0.2c0.1,0,0.1,0.1,0.1,0.2C71.7-0.6,71.6-0.6,71.6-0.7z M69.7,1.3l-0.1-0.2c0,0,0.1,0,0.1,0
		V1.3z M68,17.2h-0.1c0-0.1,0.1-0.2,0.2-0.2C68.2,17.1,68.1,17.2,68,17.2z M56.9,33.2C56.5,33,56,33,55.7,32.8l-1-0.8
		c0.1-0.2-0.2-0.9,0.4-0.7c0.1,0.2-0.4,0.5,0.1,0.6c0.1-0.1,0.2-0.2,0.4-0.1c0.1,0.3,0.5,0,0.5,0.4c0.2,0.3,0.7,0.1,0.9,0.5
		c0.1,0,0.1,0.1,0.2,0.1C57,32.9,57.1,33.1,56.9,33.2z M58.2,34.6c0,0,0.1,0,0.1,0.1C58.3,34.7,58.2,34.7,58.2,34.6z M58.7,37.3
		v-0.2h0.1C58.8,37.2,58.8,37.3,58.7,37.3z M67.4,39c-0.1,0-0.2,0-0.1-0.1c-0.1-0.1,0.2-0.2,0.2-0.1C67.4,39,67.4,39.1,67.4,39z
		 M61.6,42.5c0.1,0,0.2,0.1,0.1,0.2c0,0.1-0.2,0.1-0.2,0.1C61.5,42.7,61.5,42.6,61.6,42.5z M62.2,43.9c-0.5-0.3-1.2-0.5-1.5-1.1
		c0-0.2,0.1-0.3,0.1-0.4c0.1,0,0.3,0.1,0.4,0.2C61.4,43.2,62.5,43,62.2,43.9z M62.3,42.3c-0.1-0.1-0.2-0.1-0.4-0.2
		c0-0.4,0.9-0.3,0.5-0.8l-0.9,0.1c-0.3-0.2,0-0.7-0.4-0.9v-0.2c0.2,0,0.5,0.2,0.7-0.1c0.2,0.2,0.5,0.3,0.8,0.4
		c0.4,0.3,0.6,1,1.2,0.9c0,0.2,0.2,0.3,0.1,0.5l-0.1,0.1c-0.3-0.2-0.5-0.4-0.9-0.4c0-0.1-0.2-0.1-0.3-0.1
		C62.4,41.8,62.5,42.2,62.3,42.3z M63.8,44.3L63.8,44.3C63.6,44.2,63.8,44,63.8,44.3L63.8,44.3z M64,43.5c-0.1-0.2-0.4-0.4-0.3-0.5
		c0-0.1-0.1-0.2-0.2-0.2c-0.1,0.1,0,0.3-0.2,0.2c-0.1,0-0.1-0.2-0.2-0.1c-0.1,0.1,0,0.2,0,0.4c-0.2-0.1-0.6,0-0.6-0.4
		c-0.1-0.2,0.2-0.3,0.3-0.5c0.5-0.1,0.9,0.6,1.3,0.1l0.4,0.2l0.1-0.2c0.2,0.1,0.1,0.4,0.2,0.6C64.4,43,64.5,43.8,64,43.5z
		 M64.3,44.8c-0.2-0.3,0.2-0.4,0.3-0.5c0.1,0,0.2,0,0.2,0.1C64.9,44.7,64.5,44.6,64.3,44.8z M67.2,44.4c-0.3,0-0.6-0.4-0.9-0.1
		c-0.2-0.2-0.5-0.3-0.8-0.2c-0.2-0.2-0.6-0.4-0.4-0.8c0.2-0.2,0.5,0.1,0.7-0.2c0.6,0,1.3-0.1,1.5,0.6C67.2,43.9,67.3,44.2,67.2,44.4
		z M67.6,42c-0.5,0-0.3,0.9-0.8,0.5c-0.3-0.1-0.1-0.5-0.5-0.4c0.2-0.5-0.9-0.5-0.4-1c0.4,0.2,1,0,1.3,0.4c0.1-0.1,0.3,0,0.4,0.1V42z
		 M68.9,40.7c0.1,0,0.2-0.1,0.4-0.1c-0.2,0.4,0.5,0.3,0.4,0.7c-0.3,0.1-0.4,0.4-0.7,0.3C68.7,41.3,68.9,40.9,68.9,40.7z M68.7,44.1
		c-0.3,0.1-0.6-0.1-0.8-0.2c-0.1-0.3,0.2-0.5,0.5-0.6c0.2-0.1,0.6,0,0.7,0.2C69.1,43.8,68.9,44,68.7,44.1z M69.6,42.9L68.9,43
		c0-0.3-0.4-0.2-0.5-0.5c-0.2-0.1-0.3,0.1-0.4,0.2c-0.2-0.3,0.1-0.5,0.1-0.8c0.6-0.1,1.3,0,1.6,0.6C69.8,42.6,69.8,42.8,69.6,42.9z
		 M70,39.5c-0.1-0.1-0.1-0.4,0.1-0.4c0.3-0.1,0.7-0.1,0.8,0.3c0,0.2-0.1,0.2-0.2,0.3C70.4,39.6,70.2,39.6,70,39.5z M70.3,40.2
		c0-0.2,0.1-0.3,0.3-0.4c0.2,0,0.5,0.1,0.5,0.3c0,0.2,0,0.3-0.2,0.4C70.6,40.6,70.5,40.4,70.3,40.2z M71,45.9
		c-0.1-0.1-0.3,0.2-0.4-0.1l0-0.3c0.2,0.1,0.3-0.4,0.5,0C71.2,45.7,71.1,45.8,71,45.9z M71.2,45c-0.1,0-0.1-0.2,0-0.3
		c0,0.1,0.2,0,0.2,0.1C71.3,44.9,71.3,44.9,71.2,45z M72,41.4L72,41.4L72,41.4C71.9,41.3,71.9,41.3,72,41.4L72,41.4z M83.2,53.3
		c0.1-0.3,0.4-0.1,0.4,0.1c-0.1,0.2,0.1,0.7-0.3,0.7C83.2,53.9,83.2,53.5,83.2,53.3z M86.6,37.1c0.3,0,0.6,0.3,0.7,0.5
		c-0.2,0.2-0.5,0.2-0.8,0.1c-0.1-0.1-0.2-0.1-0.3-0.2C86.3,37.3,86.5,37.2,86.6,37.1z M86.5,38.9c-0.3,0.2-0.7,0.3-1.1,0.2
		c-0.1-0.2,0.2-0.4,0.3-0.5c0.2-0.2,0.4,0,0.7,0C86.5,38.8,86.4,38.9,86.5,38.9z M86.1,39.9c-0.2,0.2-0.4,0.4-0.7,0.3
		c-0.2-0.2,0.1-0.3,0.1-0.5l0.5-0.4C86.1,39.5,86.2,39.7,86.1,39.9z M85.9,37.6c0.2,0,0.3,0.1,0.3,0.2c0.1,0.2-0.1,0.3-0.3,0.4
		l-0.5-0.1C85.3,37.9,85.7,37.8,85.9,37.6z M85.8,36.8c0.2,0.1,0.6-0.4,0.6,0.1l0,0.1c-0.3,0.1-0.6,0.5-0.9,0.2
		C85.4,37,85.7,36.8,85.8,36.8z M86.4,35.3L86.4,35.3c-0.1-0.1-0.1-0.3,0.1-0.4c0.1,0,0.1,0.1,0.1,0.1
		C86.6,35.2,86.5,35.3,86.4,35.3z M87.3,34.4h-0.5c-0.1-0.1,0-0.3,0.1-0.4c0.2,0.1,0.5,0,0.6,0.2C87.6,34.3,87.5,34.4,87.3,34.4z
		 M88,33.2c0.1,0,0.2,0,0.2,0.1c0,0.1,0,0.2-0.1,0.2l-0.3,0C87.7,33.3,87.9,33.2,88,33.2z M86.3,32.4c-0.2-0.1-0.4-0.3-0.3-0.6
		l0.2-0.3c0.3,0.4,1,0,1,0.7c0.1,0.1,0.4-0.1,0.3,0.2c-0.2-0.1-0.6,0-0.8,0.1c0.4,0,0.3,0.4,0.3,0.7c-0.1,0.3-0.4-0.1-0.5,0.2
		c-0.1-0.2-0.6-0.3-0.5-0.6C86.1,32.7,86.4,32.6,86.3,32.4z M86.4,33.6c0,0.5,0.2,1.3-0.5,1.6c-0.1,0.1,0,0.3,0,0.5
		c-0.2,0.1-0.5,0.2-0.8,0.1c-0.3-0.1-0.2-0.5-0.1-0.7c0.3-0.4,1.4-0.1,1-0.9C85.8,33.7,86.2,33.6,86.4,33.6z M82.4,39.4h-0.4
		c0.1-0.2,0.4-0.2,0.5-0.4c0-0.3-0.1-0.8,0.1-1c0.2-0.3,0.5-0.2,0.7-0.3c-0.1-0.3-0.6-0.1-0.8-0.3c-0.1-0.1-0.3-0.2-0.3-0.3
		c-0.1-0.3,0.2-0.5,0.4-0.6c0.1,0,0.2,0,0.4,0c-0.1,0.2-0.1,0.4,0,0.6c0.2,0.2,0.6,0.3,0.7,0.6c0,0.2-0.1,0.4-0.3,0.6
		c-0.1,0-0.2-0.1-0.3,0.1C83.4,38.9,82.7,39.1,82.4,39.4z M79.7,37.5c-0.1-0.5,0.3-0.8,0.6-1h0.1c0-0.3-0.1-0.8,0.1-1.1
		c-0.6,0-0.5,1.1-1.2,0.7c-0.2-0.1-0.3-0.3-0.2-0.5c0.2-0.2,0.4-0.6,0.8-0.6c0.3-0.2,0.3-0.4,0-0.6c-0.1-0.1-0.3-0.2-0.3-0.3
		c0-0.2,0-0.5,0.2-0.5c0.2,0,0.5-0.2,0.6,0c0.1,0.2-0.2,0.3-0.3,0.4c0.2,0.4,1,0.7,0.6,1.2l0.1,0.1c0.3-0.2,0.3-0.6,0.3-0.9
		c0-0.1-0.1-0.2-0.1-0.3c0.3-0.2,0.7-0.1,0.9-0.5c-0.1-0.3-0.1-0.9,0.3-1v-0.1c0.4,0,0.9,0.1,1.2,0.4c0.1-0.2-0.2-0.4,0-0.6
		c-0.1-0.1-0.1-0.2,0-0.3c0.2-0.2,0.7-0.4,0.7,0.1c0.2,0.5-0.1,0.9-0.3,1.2c-0.1,0.3,0.1,0.8-0.4,0.9c-0.3-0.1-0.2,0.3-0.4,0.2
		c-0.2-0.2-0.5-0.3-0.5-0.6c0.1-0.1,0.2-0.1,0.3-0.3c-0.1-0.1-0.3-0.1-0.5,0c-0.5,0.1,0,0.8-0.5,0.7c-0.3,0.3-0.5,0.8-0.3,1.2
		c-0.3,0.4-1.2,0.6-0.9,1.2c0.2,0.2,0.3,0.4,0.4,0.7C80.5,37.8,80.1,37.6,79.7,37.5z M80.1,38.1v0.2c-0.5,0.2-1.1,1-1.6,0.4
		c-0.1-0.5,0.6-0.6,0.8-0.9C79.5,37.7,79.8,37.9,80.1,38.1z M78.8,34.8c-0.1,0.2-0.1,0.5-0.4,0.6c-0.1-0.2-0.3-0.5-0.1-0.7
		C78.4,34.2,78.7,34.6,78.8,34.8z M78.6,26.3c0.1,0,0.1,0.1,0.2,0.1v0.1h-0.2C78.4,26.5,78.5,26.4,78.6,26.3z M78.3,25.9
		c0,0.1,0.2,0.1,0.1,0.2c-0.4,0.2-0.9,0.1-1.2,0.4c0.1,0.1,0.1,0.2,0.2,0.3c0.2-0.1,0.4-0.2,0.7-0.1c0.1,0.1,0.2,0.2,0.2,0.4
		c-0.2,0-0.3,0.4-0.4,0.3c-0.2-0.2-0.5-0.7-0.8-0.4c0-0.1-0.1-0.1-0.2-0.2c-0.3-0.1-0.6,0.6-0.8,0.1c-0.1-0.3,0.3-0.2,0.4-0.5
		c0.1-0.3-0.1-0.8,0.3-0.8c0.2-0.1,0.3,0.2,0.4-0.1c-0.1-0.2-0.4,0-0.5-0.2c0-0.1,0.1-0.1,0.2-0.2c0.3-0.1,0.7,0.1,0.9-0.2
		c0.4,0,0.8,0,1.1-0.2c0.2,0.2-0.3,0.5-0.1,0.7l0.6,0.1v0.2C79,25.9,78.4,25.5,78.3,25.9z M78,35c-0.1,0-0.1,0-0.1-0.1
		c-0.1-0.1,0.1-0.2,0.2-0.2C78.1,34.8,78,34.9,78,35z M75.9,26.3v0.2l-0.2,0C75.7,26.3,75.8,26.3,75.9,26.3z M75.7,19.8
		c-0.1,0.1-0.2,0.1-0.4,0.1c-0.1-0.3,0.2-0.3,0.3-0.5C75.8,19.5,75.8,19.7,75.7,19.8z M75.5,19.1c-0.1,0-0.2-0.2-0.3-0.1
		c-0.1,0.1-0.1,0.2-0.1,0.3c-0.1-0.1-0.2-0.3-0.4-0.3c-0.1,0.2,0.3,0.4,0,0.6c-0.2-0.1-0.5-0.2-0.6,0.1c0,0.2-0.1,0.2-0.3,0.3
		c-0.2,0-0.4-0.2-0.5,0.1v0.4c-0.5-0.3-0.7,0.7-1.2,0.5c-0.2,0.3-0.5,0.5-0.8,0.5l-0.2-0.2c-0.2,0.1-0.3,0.5-0.6,0.4l-0.3-0.5
		c0.2,0,0.4,0.1,0.5-0.1l-0.1-0.6c0.1-0.1,0.3,0,0.3-0.1c0-0.2-0.4-0.3-0.3-0.5c0.2,0,0.5-0.4,0.6,0l0.4-0.4c0.1,0.2,0,0.6,0.3,0.7
		c0.1,0,0.2-0.2,0.2-0.3c0.1,0.1,0.3,0.4,0.6,0.2l0.1-0.1c-0.2-0.2-0.8-0.3-0.7-0.8c0.1-0.1,0.2-0.1,0.4-0.1c0.1,0.1,0,0.3,0.1,0.4
		c0.2-0.2,0.5-0.5,0.4-0.9c0.4,0.5,0.6-0.5,1.1-0.3c0.1-0.1,0.2-0.2,0.3-0.2c0.1,0.2,0.1,0.4,0.3,0.5c0.4,0,0.2-0.4,0.5-0.5
		c-0.1-0.2-0.3-0.3-0.2-0.5c0.1-0.1,0.3-0.1,0.4,0c0.2,0.3-0.6,0.5,0,0.7c0.2,0,0.3-0.1,0.5-0.2l0.5,0.5
		C76.2,19.1,75.7,18.6,75.5,19.1z M74.1,20.7l0.2,0.3c-0.4,0.1-0.8,0.4-1,0.8c0.1,0.1,0.1,0.2,0.1,0.4c-0.2-0.1-0.5-0.2-0.7,0
		c-0.2,0.2-0.3,0.4-0.3,0.7c-0.3,0.1-0.7-0.2-0.8,0.2c-0.3-0.2,0.1-0.6-0.3-0.7c-0.2,0.1-0.1,0.3-0.2,0.4c-0.2,0-0.4,0-0.4-0.2
		c0-0.2,0-0.4,0.1-0.5c0.1,0,0.2,0.1,0.2,0.1c0.1-0.1,0.1-0.3,0.3-0.3c0.8,0.3,0.9-0.7,1.5-0.8c0.2,0,0.2-0.2,0.3-0.3
		c0.4-0.3,0.9-0.3,1.2-0.7c0.3,0,0.7-0.4,0.8,0.1v0.3C74.8,20.6,74.4,20.6,74.1,20.7z M74.9,25.2L74.9,25.2l0,0.1L74.9,25.2z
		 M74.5,23.3c0.1,0,0.2,0,0.2,0.1l-0.2,0.6l-0.3,0C74.1,23.7,74.3,23.4,74.5,23.3z M74,23.3L74,23.3c-0.1-0.1-0.1-0.3,0-0.5
		c0.2,0,0.2,0.2,0.2,0.3C74.3,23.3,74.1,23.3,74,23.3z M74.6,22.6v-0.4c0.1,0,0.1,0.1,0.2,0.2C74.7,22.5,74.7,22.6,74.6,22.6z
		 M72.7,23.8c-0.2,0-0.4-0.2-0.6-0.3c0.2,0,0.7-0.4,0.7,0.1C73,23.8,72.8,23.8,72.7,23.8z M69.7,22c0.1,0,0.2,0,0.2,0.1
		c-0.1,0-0.3,0-0.5,0.1C69.5,22.1,69.6,22.1,69.7,22z M69.3,20.1L69.3,20.1l0.2,0L69.3,20.1z M69.8,21.8c-0.1-0.2,0.2-0.3,0.2-0.4
		l0.5,0.5C70.3,22,70.1,21.6,69.8,21.8z M70.5,20.2c0,0.1-0.1,0.2-0.1,0.2c-0.1,0-0.2,0-0.2-0.1c-0.1-0.1,0-0.2,0-0.3
		C70,20,70,19.8,70,19.7c0.1-0.1,0.2-0.1,0.3,0C70.3,19.8,70.4,20,70.5,20.2z M69.9,21c-0.1,0-0.2-0.2,0-0.3c0.1,0,0.1,0.1,0.1,0.1
		C70.1,20.9,70,21,69.9,21z M70.6,23.1c0.2,0.1,0.3,0.3,0.2,0.4c-0.1,0-0.1,0.1-0.2,0.1L70.6,23.1z M70.7,24.1
		c0.1,0.1,0.2,0.2,0.4,0.2c0.1-0.2,0.2-0.4,0.4-0.3l0.1-0.1c0.2,0.4-0.4,0.3-0.5,0.6c-0.2-0.2-0.5,0-0.8,0
		C70.2,24.1,70.6,24.3,70.7,24.1z M73.9,17.9c-0.2-0.1-0.2-0.3-0.1-0.5c0.1-0.1,0.3-0.1,0.3,0.1C73.9,17.6,74.1,17.9,73.9,17.9z
		 M74.3,17.5V17l0.2,0.3L74.3,17.5z M76.3,22.5v0.4l-0.2,0c-0.1-0.1,0-0.3,0.1-0.4H76.3z M76,24.7l0.1-0.1c0.1,0,0.2,0.1,0.2,0.2
		c0,0.1,0,0.3-0.2,0.3C75.9,25.1,76,24.8,76,24.7z M77.9,20.9c-0.4,0.1-0.4-0.4-0.5-0.5c0-0.2,0.1-0.3,0.2-0.3
		c0.2-0.1,0.5,0.3,0.6,0c-0.3-0.3-0.8-0.1-1-0.5c0-0.3,0.2-0.5,0.5-0.7c0.3-0.1,0.3,0.3,0.5,0.5c0,0.1-0.2,0.3,0,0.4
		c0.1-0.1,0.2-0.2,0.2-0.3c0.4,0.1,1-0.4,1.1,0.3c0.3,0,0.1,0.2,0.1,0.4c-0.1,0.2-0.2,0-0.3,0L79,20c-0.1,0.1-0.2,0.2-0.3,0.4
		c0.1,0.2,0.5-0.1,0.4,0.3c-0.3,0.1-0.1,0.5-0.5,0.5c-0.2,0-0.5,0-0.5,0.2c0.1,0.3,0.5,0.2,0.8,0.1c0.1-0.1,0.3-0.1,0.5,0
		c0.1,0.1,0.2,0.2,0.2,0.3c-0.2,0.1-0.5,0-0.6,0.2c0.3,0.5-0.3,0.9,0.1,1.4c0.2,0,0.3-0.2,0.4,0c0,0.1,0.1,0.2,0,0.4
		c-0.3,0.1-0.2-0.4-0.5-0.3c-0.2,0.1-0.1,0.4-0.3,0.4c-0.1-0.1-0.2-0.3-0.4-0.3c-0.1,0.1-0.2,0.4-0.5,0.3c-0.1-0.2,0.3-0.3,0.1-0.6
		c-0.6-0.1-0.1-0.5-0.1-0.8c0.2,0.1,0.5-0.1,0.6-0.3C78.3,22,78,22,77.8,22c-0.1,0.1-0.2,0.2-0.3,0.1c0-0.5-0.6-0.4-0.6-0.8
		c-0.1-0.1-0.2-0.3-0.1-0.5c0.2-0.2,0.4,0.3,0.6,0.3c0,0.1,0.1,0.2,0.2,0.2c0.2,0,0.4-0.1,0.6-0.2C78.2,21.1,78.1,20.9,77.9,20.9z
		 M78.9,12.8l0.3-0.5c0.3,0.2,0.8,0.2,1,0.6c0,0.5-0.7,0.7-0.7,1.1c-0.3,0-0.2-0.4-0.5-0.4c0-0.1,0.5-0.4,0.1-0.5
		c-0.1,0-0.2-0.1-0.3-0.1C78.6,12.8,78.9,12.9,78.9,12.8z M78.8,11.5c0-0.2,0.2-0.1,0.4-0.1v0.4C79,11.8,79,11.6,78.8,11.5z
		 M79.9,11.4c0,0.2,0.4,0.1,0.2,0.3c-0.1,0.1-0.2,0.2-0.4,0.2c-0.1-0.1-0.2-0.3-0.2-0.5c0.1-0.2,0.2-0.3,0.2-0.5
		c-0.1-0.1-0.2-0.1-0.2-0.2l0-0.3c0.2,0,0.5,0.4,0.7,0.1c0,0,0.1,0.1,0.1,0.1C80.3,10.9,79.7,11,79.9,11.4z M79.6,20.7L79.6,20.7
		l-0.1-0.2h0.1C79.7,20.5,79.7,20.6,79.6,20.7z M79.6,15.6v-0.2c0.1,0,0.1,0,0.1,0c0,0,0,0.1,0,0.1H79.6z M79.9,23.5
		c0,0,0,0.1,0,0.1c0,0-0.1,0-0.1,0C79.7,23.5,79.9,23.6,79.9,23.5z M80.1,28c0.1,0.1,0,0.3-0.2,0.4h-0.1C79.8,28.2,79.9,28,80.1,28z
		 M79.9,17.2c-0.1,0-0.1-0.1-0.1-0.1l0.1-0.3c0.1,0.1,0.2,0,0.2,0.1C80.1,17,80,17.1,79.9,17.2z M78.9,15.4c0.3-0.1,0.2-0.4,0.2-0.6
		c0.2,0.1,0.2,0.3,0.2,0.6c-0.1,0.1-0.2,0.2-0.3,0.2c-0.2-0.3-0.4,0.3-0.5-0.1c0.1-0.2-0.2-0.6,0.2-0.6C78.7,15,78.7,15.3,78.9,15.4
		z M79,17.1L79,17.1C78.9,17,79.1,17,79.2,17C79.2,17.1,79.1,17.1,79,17.1z M79.1,19.1c-0.2,0-0.5,0-0.7,0.2
		c-0.2-0.3,0.2-0.4,0.3-0.6C78.9,18.6,79,18.9,79.1,19.1z M78.5,16c0.1,0.1,0,0.3-0.1,0.3c-0.1,0-0.2,0-0.2-0.1
		C78.1,16,78.4,16,78.5,16z M78.2,8.4L78,8.3C78,8.2,78.1,8.4,78.2,8.4L78.2,8.4z M78.4,18.3c0,0.1,0.1,0.1,0.1,0.2
		c-0.2,0.2-0.3-0.1-0.4-0.1c0-0.4-1-0.4-0.3-0.8C78.2,17.6,77.8,18.5,78.4,18.3z M77.6,24.5L77.6,24.5L77.6,24.5
		C77.6,24.4,77.6,24.4,77.6,24.5z M76.9,22.1c-0.1,0.1,0,0.4-0.2,0.3c-0.1-0.1-0.1-0.2-0.1-0.4C76.7,22,76.8,22,76.9,22.1z
		 M77.1,24.1l-0.2,0.3l0.2,0.2c0,0.1-0.2,0.2-0.3,0.1c-0.1-0.2-0.2-0.4-0.3-0.6C76.7,24.1,77,23.8,77.1,24.1z M79.1,30.4
		c-0.1,0.1,0,0.3-0.2,0.2C78.8,30.4,79,30.1,79.1,30.4z M81.3,13.1c0.2,0,0.1-0.5,0.5-0.3c0.1,0.1,0.1,0.2,0.1,0.3
		c0,0.1-0.2,0.2-0.1,0.3c0.1,0.3,0.6-0.3,0.5,0.3c0,0-0.1,0-0.1,0.1c-0.1-0.3-0.3-0.2-0.6-0.2c-0.3,0.1-0.5-0.3-0.8-0.5
		c-0.1,0,0-0.1-0.1-0.1c0.2-0.1,0.5-0.9,0.7-0.2C81.3,12.9,81.3,13.1,81.3,13.1z M83.2,8.9c-0.1,0-0.3,0.1-0.3-0.1
		c0.2-0.3,0.5-0.3,0.7-0.4c0.2,0,0.4,0.2,0.7,0.2c0,0.3,0.5,0.6,0,0.8C83.9,9.1,83.4,9.3,83.2,8.9z M84,10.4h-0.1v-0.4
		c0.1,0,0.2,0.2,0.2,0.2C84.1,10.4,84.1,10.4,84,10.4z M83.3,10c-0.2,0.2-0.4-0.1-0.6-0.1l0-0.3C82.9,9.6,83.2,9.7,83.3,10z
		 M83.5,10.8c-0.1,0.5,0.4,0.8,0,1.2c-0.4,0-0.4-0.8-0.9-0.4c-0.4,0.2,0.2,0.9-0.4,0.8c0-0.5-0.8-0.6-0.6-1.2
		c0.3-0.3,0.9-0.2,1.1-0.6C82.9,10.5,83.1,11,83.5,10.8z M82.6,35.3c0.3-0.3,0.8-0.8,1.2-0.3c0,0.4-0.4,0.6-0.6,0.9
		c-0.2,0-0.4,0-0.6-0.1C82.5,35.6,82.5,35.4,82.6,35.3z M81.8,35.4c-0.2-0.1-0.2-0.4-0.1-0.5c0.2-0.2,1-0.7,0.9-0.1
		C82.4,35,82.3,35.7,81.8,35.4z M83.7,34.6c-0.2-0.5,0.4-0.5,0.6-0.7c0.1,0.3,0.1,0.7,0.3,1C84.3,35,84,34.7,83.7,34.6z M80.4,38.3
		c0.2-0.1,0.2-0.6,0.5-0.3c0.2,0.2,0.2,0.6,0.4,0.9c0.1,0,0.2-0.1,0.3-0.1c0.1,0,0.1,0.1,0.1,0.2c-0.3,0.3-0.8,0.2-1.2,0.2
		C80.1,38.9,80.2,38.5,80.4,38.3z M81.5,38.3c-0.1-0.2-0.3-0.5-0.3-0.8c0.1-0.1,0.2-0.2,0.2-0.4c-0.2-0.1-0.5,0-0.5-0.3
		c-0.1-0.4,0.3-0.7,0.6-0.9c0.2-0.1,0.7-0.3,0.8,0.1c0.1,0.1-0.1,0-0.2,0.1c-0.2,0.3-0.5,0.6-0.3,0.9l0.4,0.6
		C82,37.8,81.9,38.4,81.5,38.3z M83.4,36.9c-0.1-0.2,0.1-0.4,0.1-0.5l-0.3-0.1c0.1-0.1,0.1-0.3,0.3-0.4c0.2,0.1,0.2,0.2,0.2,0.4
		c0.2,0.2,0.3-0.2,0.5,0.1c-0.2,0.2-0.2,0.5-0.4,0.8C83.7,37.1,83.5,37.1,83.4,36.9z M84,37.4c0.1,0,0.2,0,0.3,0
		c0,0.2-0.1,0.1-0.2,0.1H84V37.4z M83.9,35.8c-0.1-0.1-0.2-0.3-0.1-0.4c0.3-0.5,0.8,0,1,0.3v0.2C84.5,35.8,84.2,36,83.9,35.8z
		 M84.7,34.3c0.1-0.3,0.5-0.3,0.8-0.2c0,0.2-0.1,0.5-0.4,0.6C84.9,34.7,84.8,34.4,84.7,34.3z M85.5,31.9c0.2-0.1,0.2,0.2,0.3,0.3
		c-0.3,0.5,0.1,1.4-0.7,1.5c-0.2,0-0.3,0.1-0.5,0.1c-0.2-0.2-0.6-0.3-0.4-0.7c0.2-0.2,0.5-0.5,0.9-0.5c0.2-0.1,0-0.2,0-0.3
		C85.2,32.2,85.5,32.2,85.5,31.9z M84.6,31.7L84.6,31.7l0.1,0.5c-0.1,0-0.2,0-0.2-0.1C84.5,32,84.5,31.8,84.6,31.7z M85.4,6.5
		c-0.3,0-0.4-0.4-0.7-0.4c0-0.2,0.3-0.3,0.4-0.1c0.1,0.1,0.3,0.2,0.4,0.4C85.6,6.4,85.5,6.5,85.4,6.5z M86,5.8c-0.1,0-0.2,0-0.3-0.1
		c0.1-0.2,0.3-0.4,0.5-0.3C86.3,5.6,86.2,5.8,86,5.8z M86,4.7c0-0.2,0.1-0.3,0.2-0.4l0.1,0.4H86z M87.1,4.4c0.1,0,0.2,0,0.1,0.1
		c0,0.1,0,0.1-0.1,0.2h-0.1V4.4z M86.8-0.1c0.1,0,0.1,0,0.1,0.1v0.1h-0.1V-0.1z M86.4,1.7c0.3,0.3,0.4,0.7,0.4,1.1
		C87,3,87.1,3.4,87,3.8c-0.1,0.1-0.2,0.1-0.3,0.1c-0.3-0.4-0.6-0.8-0.4-1.4c-0.4-0.1,0.1-0.6-0.1-0.9c-0.1-0.1-0.3-0.2-0.2-0.4
		c0.1,0,0.1-0.1,0.2,0C86.3,1.3,86.4,1.5,86.4,1.7z M85.8-2.5c0.1-0.1,0.2-0.1,0.3,0C86.1-2.4,86-2.2,85.9-2
		C85.8-2.1,85.7-2.3,85.8-2.5z M85.7,0.3c0.2-0.3,0.5-0.1,0.6,0.1c-0.1,0.1-0.3,0.3-0.5,0.2C85.8,0.5,85.6,0.5,85.7,0.3z M85.4-2.9
		c0.1,0,0.1,0.1,0.1,0.1c0,0-0.1,0-0.1,0V-2.9z M85.4-1.4l0,0.2L85.4-1.4z M85.1,0.1c0.2,0,0.3,0.1,0.4,0.2c0,0.1-0.1,0.2-0.2,0.2
		c-0.1,0-0.2-0.1-0.3-0.1C85,0.2,85,0.1,85.1,0.1z M84.4,3c0.2-0.1,0-0.3,0-0.5c0.3,0.2,0.5-0.1,0.6-0.3V2.2c0.1,0,0.2,0,0.3,0.1
		c0.1,0.3-0.2,0.4-0.4,0.5C84.9,3,85.1,3.1,85,3.3c-0.2-0.2-0.5-0.2-0.7,0l-0.1,0.1c0.3,0.2,0.6,0.3,1,0.3c0.2-0.2,0.6-0.1,0.9,0
		c-0.3,0.1-0.5,0.5-0.7,0.1c-0.3,0.1,0,0.6-0.4,0.6c-0.2,0-0.4,0.1-0.4,0.3c0,0,0,0,0,0.1c-0.2,0-0.3,0.2-0.4,0.1
		c-0.1-0.3-0.6-0.6-0.2-1c0,0,0,0,0.1,0c0.1,0,0.1-0.1,0.1-0.2c-0.4,0-0.2-0.5-0.1-0.6l0.1-0.2C84.2,2.9,84.3,3,84.4,3z M84,0.5
		L84,0.5c0,0.2,0.3,0.2,0.1,0.4C84,1,83.9,1,83.7,0.9c0-0.3,0.2-0.5,0.1-0.8C84,0.1,84.1,0.3,84,0.5z M83.8-1.4
		c0.1,0,0.1,0.1,0.1,0.1c0,0.2-0.1,0.3-0.2,0.3c0,0-0.1,0-0.1-0.1C83.6-1.2,83.7-1.2,83.8-1.4z M83-1.3c0.1,0,0,0.1,0,0.1H83L83-1.3
		z M81.8-2.3c0,0.1-0.1,0.1-0.2,0.2c-0.1,0-0.1-0.1-0.1-0.1C81.5-2.4,81.7-2.4,81.8-2.3z M81.2,6c0.4-0.1,1.2,0.3,1.2-0.3
		c-0.1-0.4-0.1-0.8-0.1-1.2c-0.2-0.2-0.2-0.5-0.5-0.7l0.2-0.7c0.5,0.3,0.2,1.1,0.7,1.5c0,0.2,0.1,0.3,0.2,0.4
		c0.2-0.2,0.3,0.2,0.4-0.1c0-0.2-0.1-0.3,0-0.4c0.1,0,0.2,0.2,0.4,0.3C83.6,5,83.9,5.2,84,5.4l-1.4,0.9c-0.2-0.1-0.3,0.2-0.5,0.3
		c0,0.2,0.1,0.4-0.1,0.5c-0.3,0.1-0.4-0.3-0.6-0.2c0.1-0.2,0.2-0.4,0.1-0.6C81.4,6.3,81.2,6.2,81.2,6z M80.7,5.7
		c0.2,0.1,0.4-0.1,0.5,0.1c0,0.1-0.1,0.1-0.1,0.1C80.9,6,80.7,6,80.7,5.7z M80.6,7.5c0.2-0.2,0.5-0.1,0.6,0.2
		C81,8,80.8,7.7,80.6,7.8C80.5,7.7,80.5,7.6,80.6,7.5z M80.7,8.8c0.2-0.1,0.7-0.4,0.8,0.1c0.2,0.9-1,0.8-1.2,1.5
		c-0.1,0-0.1,0-0.2-0.1c0.1-0.1,0.1-0.2,0.1-0.3c-0.1-0.2-0.4-0.1-0.5-0.3c0-0.2-0.1-0.4,0.1-0.5c0.2,0,0.5,0.2,0.6-0.1
		c0.2-0.3-0.4-0.3-0.1-0.5C80.4,8.6,80.5,8.7,80.7,8.8z M79.4,2.4c0.3,0.1,0.9,0.2,0.9,0.7c-0.1,0.2-0.3,0-0.4-0.1
		C79.7,2.9,79.1,2.8,79.4,2.4z M78.6,1.8C78.8,1.8,79,1.9,79,2c0,0.2,0.1,0.5-0.1,0.6c-0.2,0-0.3-0.4-0.6-0.3
		C78.3,2.1,78.4,1.9,78.6,1.8z M76.1,3.8L76.1,3.8L76.1,3.8C76,3.7,76.1,3.8,76.1,3.8z M75,5.2c0.2,0,0.5-0.1,0.6,0.2
		c0.3,0.3,0.9-0.1,1.2,0.2c0.5-0.2,0.7,0.5,1.2,0.3C78.2,6,78.5,6,78.7,6.2c0.2-0.1,0.2-0.4,0.5-0.3c0.1,0.1,0.1,0.3,0.1,0.4
		c-0.1,0.2-0.2-0.1-0.4,0c-0.7,0.3-1.2-0.5-1.9,0c-0.2,0-0.3-0.2-0.4-0.4c-0.3,0-0.7,0.1-0.9-0.2L75.2,6c0.1-0.3-0.2-0.3-0.4-0.4
		c-0.5,0.2-0.2-0.5-0.6-0.5l0-0.1C74.5,5.2,74.9,4.9,75,5.2z M77.2,12.5L77.2,12.5c-0.2-0.2,0-0.2,0.1-0.2
		C77.3,12.4,77.3,12.5,77.2,12.5z M77,8.1c0-0.1,0-0.3,0.2-0.4c0.1,0.1,0.1,0.2,0.1,0.3L77,8.1z M76.9,12.2c0,0.1-0.1,0-0.1,0
		c0-0.1,0.1-0.2,0.2-0.2C77,12.1,76.9,12.1,76.9,12.2z M76.3,10.4l-0.2-0.2l0.3-0.3c0.1,0.1,0.3,0.2,0.2,0.4
		C76.5,10.4,76.5,10.5,76.3,10.4z M76.5,12.6c-0.1,0-0.2-0.1-0.2-0.2c0-0.2,0.2-0.1,0.3,0C76.6,12.5,76.5,12.5,76.5,12.6z
		 M75.5,13.1L75.5,13.1c0.1,0.1,0,0.2,0,0.2V13.1z M75.5,12.1l0-0.3c0.1,0.1,0.1,0.2,0.1,0.3H75.5z M75.5,11
		c0.1-0.2-0.1-0.5,0.1-0.6c0.2,0,0.3,0.1,0.4,0.2c-0.2,0.1-0.1,0.4-0.2,0.5C75.6,11.4,75.4,11.2,75.5,11z M75.1,6.1L75.1,6.1
		C75,6.1,75,6.2,75.1,6.1L75.1,6.1L75.1,6.1z M74.5,14.5c-0.2,0.1-0.3-0.3-0.5-0.1c-0.1,0,0-0.1,0-0.2c0.3,0,0.2-0.5,0.5-0.3
		C74.6,14.2,74.5,14.3,74.5,14.5z M73.5,13.4c-0.4,0,0-0.4-0.3-0.5c0-0.2,0.5-0.6,0.5-0.1c-0.1,0.2-0.2,0.5,0,0.7
		c0.2,0,0.3-0.4,0.5-0.1c0.1,0.1,0.1,0.2,0.1,0.3c-0.4,0.1-0.8,0.4-1.2,0.2c0-0.2-0.3-0.2-0.4-0.2c0,0-0.1,0.1-0.1,0.1
		c0.1-0.1,0.1-0.5,0.4-0.4c0.1,0.2,0.3,0.4,0.5,0.4C73.5,13.6,73.5,13.5,73.5,13.4z M74,12.3c0.2-0.3,0.4,0.1,0.5,0.3
		c-0.1,0.1-0.1,0.3-0.3,0.3C74,12.8,73.9,12.5,74,12.3z M74,11.7c-0.1-0.1-0.2-0.3-0.1-0.4c0.1-0.2,0.2-0.1,0.3-0.1
		c0,0.1,0.1,0.2,0.2,0.3c0.1,0,0.1-0.1,0.2-0.1l-0.1-0.3c0.1,0.2,0.6,0.1,0.4,0.4c-0.1,0-0.1,0.2-0.2,0.2
		C74.5,11.8,74.2,11.4,74,11.7z M74.5,10.3c0.1,0,0.2,0.1,0.2,0.2c0,0.2,0,0.3-0.2,0.3c-0.1,0-0.2-0.1-0.2-0.2
		C74.3,10.5,74.4,10.3,74.5,10.3z M74.5,9.6l0.2-0.1c0.1,0.1,0.2,0.2,0.2,0.4L74.7,10L74.5,9.6z M74.4,10.2c-0.2,0-0.5-0.1-0.5-0.2
		c0-0.1,0-0.2,0.1-0.3C74.3,9.6,74.3,10,74.4,10.2z M73.5,4.7c0.2,0,0.4,0,0.4,0.2c0,0.2-0.2,0.3-0.1,0.5c-0.2,0.1-0.3-0.2-0.4-0.4
		C73.5,4.9,73.4,4.7,73.5,4.7z M73.3,4.6c0,0.3-0.4,0.1-0.4,0.4c-0.3-0.2-0.8,0.2-1.1-0.2C72.1,4.2,72.9,4.6,73.3,4.6z M71.8,6.9
		c0.4,0.2,1.1-0.1,1.4,0.4c-0.5,0-1.2-0.1-1.5,0.4h-0.1C71.8,7.4,71.4,7.1,71.8,6.9z M70.5,6.8C70.7,6.7,70.9,6.8,71,7
		c-0.1,0.1-0.3,0.1-0.5,0.1C70.5,7,70.4,6.8,70.5,6.8z M71.7,12c0.5-0.4,1.2-0.2,1.7-0.6c0.1,0,0.2,0,0.2,0.1c0,0.2-0.1,0.3-0.2,0.4
		c-0.2-0.1-0.3-0.3-0.5-0.1c-0.2,0.2-0.4,0.6-0.8,0.4c0-0.1,0.1-0.3-0.1-0.3c-0.1,0.1,0,0.3-0.1,0.4l-0.8,0.4
		c-0.1,0-0.2-0.2-0.3-0.1c-0.2,0.1-0.2,0.2-0.3,0.4l-0.2,0C70.5,12.2,71.4,12.7,71.7,12z M71.9,14c0,0.1-0.2,0.1-0.3,0
		c-0.1-0.1-0.2-0.2-0.1-0.3C71.7,13.7,71.8,13.9,71.9,14z M69.9,14.5C69.9,14.5,69.9,14.5,69.9,14.5c0.1,0.1,0,0.1,0.1,0.2h-0.1
		V14.5z M70.1,14.9c0.2-0.2,0.3-0.7,0.6-0.3c-0.1,0.3-0.5,0.4-0.9,0.5c-0.2,0-0.1-0.2-0.2-0.3C69.8,14.9,70,15,70.1,14.9z
		 M69.4,15.1c0,0.1,0,0.1-0.1,0.2c-0.1,0-0.1-0.1-0.1-0.1C69.1,15,69.3,14.9,69.4,15.1z M69,16.4c0-0.1,0.2-0.2,0.2-0.1
		c0.1,0.2-0.1,0.2-0.2,0.2C68.9,16.6,69,16.5,69,16.4z M69.4,18.2v0.1c-0.3,0.1-0.3-0.4-0.5-0.5C69.2,17.6,69.2,18,69.4,18.2z
		 M68.9,18.8c0.6,0.1,1-0.4,1.4-0.7V18c-0.2-0.1-0.3,0.2-0.5,0c-0.1-0.1-0.2-0.3-0.1-0.5c0.4-0.1,0.2-0.4,0.1-0.7
		c0-0.1,0.2,0,0.3-0.1c-0.1,0.3,0.3,0.4,0.4,0.7c0.5-0.1-0.1-0.4,0-0.7c0-0.1-0.1,0-0.2,0c0.2-0.3,0.7-0.4,1.1-0.3l0,0
		c0.2,0,0.2-0.2,0.3-0.3C71.6,16,71.5,16,71.4,16c-0.1-0.3,0.2-0.4,0.4-0.5c0.2,0,0.2,0.3,0.3,0.4c0.2-0.1,0.5-0.1,0.7-0.4
		c0-0.2-0.2-0.3-0.3-0.6c0.2-0.2,0.5,0.2,0.7-0.1c0-0.1-0.1-0.3,0.1-0.4c0.2,0,0.4,0,0.5,0.3c0,0.2,0.1,0.4,0.2,0.5
		c0.1,0,0.2-0.1,0.4-0.1l0.1,0.3c0.2,0,0.5-0.1,0.7,0l0.1-0.3c0.1,0,0.3,0.4,0.4,0.1c0-0.1-0.1-0.3,0.1-0.3c0.1,0,0.2,0.2,0.2,0.3
		c0,0.2-0.1,0.5-0.3,0.6c-0.3,0.1-0.6,0-0.8,0.3c0,0.1,0.1,0.2,0.2,0.4c0.6-0.2,1.1-0.9,1.8-0.9c0.2-0.1,0.2-0.5,0.5-0.4
		c0.2,0.2,0.2,0.4,0.1,0.7c-0.2,0-0.5,0.2-0.5,0.4c-0.1,0-0.2-0.2-0.4-0.1c-0.3,0.1-0.1,0.5-0.3,0.6c-0.3,0-0.5,0-0.7,0.1
		c0,0.1,0.2,0.2,0.2,0.4c-0.3,0.3-0.8,0-1,0.4h0c-0.2-0.3,0.2-0.8-0.1-1.1c-0.5,0-0.8,0.4-1.2,0.5l-0.2,0.2
		c-0.3-0.2-0.5,0.3-0.9,0.2c-0.1,0-0.1,0-0.2,0.1c0,0.2,0.2,0.4,0,0.5h-0.4c0.1-0.4-0.2-0.7-0.1-1.1l-0.1-0.1
		C71.4,17,71,17.1,71,17.3c0.4,0.1-0.1,0.4,0.2,0.6c-0.2,0.1-0.4,0.2-0.4,0.4c-0.1,0-0.4-0.2-0.5,0c0.1,0,0,0.1,0,0.2
		c-0.3,0.3-0.8,0.1-1,0.6c-0.2,0.1-0.3-0.1-0.5-0.1V18.8z M68.6,25.5L68.6,25.5l-0.1-0.1h0.1V25.5z M68.6,18L68.6,18v-0.2
		C68.7,17.9,68.6,18,68.6,18z M68.6,16.9c0-0.1,0-0.3,0.1-0.4c0,0,0.1,0,0.1,0.1C68.7,16.7,68.8,17,68.6,16.9z M68.9,26.7
		c0-0.2,0.3-0.2,0.2,0c0,0,0,0.1,0,0.1C69,26.9,69,26.8,68.9,26.7z M69.5,27.6c-0.1-0.1-0.3-0.2-0.3-0.3l0.1-0.3
		c0.2-0.1,0.3,0.1,0.4,0.2C69.6,27.4,69.6,27.5,69.5,27.6z M70.7,30.2c-0.2,0.1-0.5,0-0.5-0.2c-0.2,0.1-0.4,0.2-0.7,0.1
		c-0.2-0.1,0-0.2,0-0.2c0.3-0.3,1-0.1,0.9-0.7c0.2-0.1,0.2,0.1,0.2,0.2c0.1,0.1-0.1,0.2-0.2,0.3C70.6,29.8,70.8,30,70.7,30.2z
		 M70.5,27.1c0.1,0.1,0,0.3-0.1,0.4c-0.1,0-0.2,0-0.2-0.1C70.3,27.2,70.3,27,70.5,27.1z M70.3,26.4c-0.1-0.2,0.3-0.4,0-0.5
		c-0.2,0-0.1,0.3-0.3,0.3c-0.4,0.2-1-0.3-1.2,0.3l0,0c0,0-0.1,0-0.1,0c0.2-0.2,0-0.3,0-0.5c0.7,0,1-1,1.8-0.6
		c0.1-0.1,0.2-0.2,0.2-0.3c1-0.5,2.2-0.6,3-1.6c0.1,0.1,0.2,0.1,0.3,0.2c-0.2,0.3-0.2,0.8-0.6,0.8l0,0c0,0.1-0.1,0.3-0.2,0.3
		C73,24.7,73,24.9,72.9,25c-0.7-0.1-1.1,0.8-1.8,0.6c-0.3,0.2,0.1,0.5,0,0.7C70.8,25.7,70.6,26.8,70.3,26.4z M71.8,29.2h-0.2
		c0-0.1,0-0.3,0.1-0.4c0.1,0,0.1,0.1,0.1,0.2C71.9,29.1,71.9,29.2,71.8,29.2z M71.5,26.8c0,0.1-0.2,0.2-0.2,0.3
		c-0.2,0-0.2-0.2-0.3-0.3c0-0.2,0.2-0.3,0.3-0.5C71.7,26.3,71.3,26.7,71.5,26.8z M71.1,31C71,30.9,71,30.8,71,30.6
		c0.3-0.3,0.6,0,1-0.1l0.1,0.2C71.8,30.8,71.5,31.1,71.1,31z M73.4,27.9c-0.2,0.4-0.5,0.8-0.9,1l-0.6,0c0-0.5,0.7-0.6,1-0.9
		c0.3,0.1,0.2-0.5,0.5-0.2V27.9z M74.3,25.6c-0.1,0.2-0.3,0.1-0.4,0.2c-0.3,0.5-0.8,0.5-1.2,0.7c0.1,0.1,0.2,0.2,0.1,0.3
		c-0.4,0.2-0.7-0.3-1-0.5c-0.2-0.5,0.5,0,0.6-0.4c0.1,0.3-0.4,0.3-0.3,0.6c0.3,0.1,0.5-0.2,0.6-0.4c0-0.2,0.1-0.4,0.3-0.6
		c0.4-0.2,0.8,0.5,1.1,0C74.2,25.4,74.4,25.5,74.3,25.6z M74.6,29.9c-0.1,0-0.1,0-0.1-0.1c0-0.1,0.1-0.3,0.2-0.1
		C74.7,29.7,74.7,29.8,74.6,29.9z M75.2,29.8L75.2,29.8l0-0.2h0V29.8z M75.5,29.8c-0.1,0-0.2,0-0.2,0c0.3-0.2-0.1-0.5-0.2-0.7
		c-0.2,0.3-0.5,0-0.7,0.1c-0.1-0.1,0-0.3,0.1-0.3h0.2c0,0,0,0.1,0.1,0.1c0.2-0.1-0.2-0.4,0.1-0.5l0.3,0.2c0-0.4,0.5-0.6,0.8-0.9
		c0.6,0.4,1-0.9,1.5-0.2c-0.2,0.2-0.1,0.5-0.2,0.8c0.1,0,0.1,0.1,0.1,0.2c-0.1,0.1-0.3,0-0.4,0.2l0,0.1c-0.2,0-0.4-0.2-0.5-0.3
		c0.1-0.1,0.1-0.2,0.1-0.2c-0.2,0-0.5,0.5-0.7,0.1c-0.1,0-0.2,0.1-0.3,0.2c-0.1,0.2,0.1,0.4,0.2,0.5C75.8,29.3,75.8,29.6,75.5,29.8z
		 M77.4,34.5L77.4,34.5L77.4,34.5L77.4,34.5L77.4,34.5z M76.4,37.8c-0.1,0.1-0.3,0.1-0.4,0c-0.3-0.3,0-0.6,0-0.9
		c0.2,0,0.6,0.3,0.7-0.1c0.2,0,0.1,0.2,0.2,0.3C76.7,37.4,75.9,37.3,76.4,37.8z M76.7,35.5C76.6,35.5,76.6,35.5,76.7,35.5
		c-0.1-0.1-0.1-0.2,0-0.2C76.7,35.3,76.7,35.4,76.7,35.5z M76.5,34.6c0-0.1,0-0.2,0.1-0.2c0.1,0,0.1,0,0.1,0.1v0.1H76.5z M76.6,29.3
		c-0.2,0-0.5,0-0.5-0.2c0-0.4,0.5-0.3,0.6,0C76.8,29.1,76.7,29.3,76.6,29.3z M75.5,36.1c0.2,0,0.2,0,0.4-0.1l0.2,0.3
		c0.1,0.2-0.2,0.2-0.3,0.2C75.7,36.5,75.6,36.4,75.5,36.1L75.5,36.1z M75.5,38.9c-0.2,0.2-0.3,0.3-0.6,0.2h0
		c-0.1-0.3,0.1-0.5,0.2-0.8c0.2-0.1,0.6-0.7,0.7-0.1c-0.1,0.1,0,0.4-0.2,0.4c-0.1,0-0.2-0.1-0.2,0C75.5,38.6,75.6,38.8,75.5,38.9z
		 M75,41.5l-0.4,0.1c-0.2-0.4,0.3-0.4,0.5-0.7c0.1,0,0.2,0.1,0.2,0.2C75.4,41.4,75.1,41.5,75,41.5z M74.8,36.1c0.1,0.1,0,0.2,0,0.3
		c-0.1,0-0.1,0-0.2-0.1C74.6,36.2,74.7,36.1,74.8,36.1z M74.8,37.3c0.2,0,0.2,0.2,0.3,0.3c0,0.2-0.2,0.3-0.3,0.4h-0.4
		C74.4,37.7,74.6,37.5,74.8,37.3z M74.5,38.8c0,0.1-0.1,0.1-0.1,0.2c-0.2,0-0.3-0.2-0.4-0.2c-0.3,0.2-0.1,0.7-0.5,0.6
		c-0.1,0.1,0,0.3-0.1,0.5h-0.2c-0.1-0.3,0.1-0.6,0.2-0.8C73.7,39,74.4,37.7,74.5,38.8z M72.4,39C72.4,39,72.4,39,72.4,39
		c0-0.4,0.2-0.9,0.6-1.1c0.1,0,0.2,0,0.3,0.1c0.1,0.2-0.1,0.1-0.2,0.2c-0.3,0.2,0.1,0.6-0.4,0.6C72.6,38.8,72.5,38.8,72.4,39
		C72.4,39,72.4,39.1,72.4,39L72.4,39z M73,41.9C72.9,42,72.8,42,72.6,42c-0.2-0.2,0.1-0.3,0.1-0.5C72.9,41.6,73,41.7,73,41.9z
		 M73,44.9c-0.2,0.1-0.3,0.2-0.5,0.2c-0.1-0.2,0.2-0.3,0.3-0.5c0.1,0,0.1,0.1,0.2,0.1l0,0C73.1,44.7,73.1,44.9,73,44.9z M73,43.7
		h-0.2c0.1-0.1,0.1-0.3,0.3-0.2C73.1,43.6,73.1,43.7,73,43.7z M73.1,41.2c0.2,0,0.4,0.1,0.4,0.2c0,0.2-0.2,0.2-0.3,0.2
		C73,41.5,73.1,41.3,73.1,41.2z M73.6,42.7c-0.1,0-0.3,0-0.4-0.2c-0.1-0.3,0.3-0.9,0.4-0.3C73.6,42.4,73.8,42.6,73.6,42.7z
		 M73.8,40.3c-0.1-0.1,0-0.3,0-0.4c0.2-0.5,1.1-0.8,1.3-0.2l-0.5,0.8C74.4,40.6,74,40.4,73.8,40.3z M74.4,48c0.2,0,0.4-0.1,0.4,0.1
		c0,0.1-0.1,0.2-0.1,0.3C74.6,48.4,74.5,48.2,74.4,48z M75,50.5c-0.2,0-0.2-0.2-0.3-0.3c-0.1-0.3,0.1-0.5,0.4-0.4
		C74.8,50,75.7,50.4,75,50.5z M76.3,53.1c0-0.1-0.1-0.2,0-0.2c0.1,0,0.1,0,0.2,0.1L76.3,53.1z M76.8,52.2c-0.4,0.2-0.5-0.2-0.7-0.5
		c0.1-0.2,0.2-0.3,0.4-0.3c0.2,0.1,0.4,0.2,0.4,0.4C76.9,51.9,77,52.1,76.8,52.2z M77.8,53.7c-0.1-0.2-0.2-0.3-0.2-0.5l0.1-0.1
		C77.7,53.3,77.7,53.5,77.8,53.7c0-0.1,0.2-0.1,0.3-0.2C78,53.7,77.9,53.8,77.8,53.7z M77.9,52.3c0,0.1,0.2,0.1,0.1,0.2
		c-0.2,0.3-0.5-0.1-0.8,0c0.2-0.2,0.2-0.9,0.7-0.9c0.2,0,0.3,0.1,0.3,0.2C78.3,52,78,52.1,77.9,52.3z M79.3,54.1
		c-0.2-0.1-0.4-0.1-0.6-0.3c0-0.1-0.1-0.3,0.1-0.4c0.3,0.2,0.4-0.4,0.7,0l0.1,0.2C79.6,53.9,79.5,54.1,79.3,54.1z M81.5,54.6l0-0.1
		l0.1,0.1C81.6,54.7,81.5,54.6,81.5,54.6z M82.1,53.9c-0.1,0.2-0.3,0.4-0.6,0.3c-0.2-0.1-0.1-0.2,0-0.4
		C81.7,53.6,82.3,53.6,82.1,53.9z M82.5,53.8l0.2-0.3c0.3,0.2,0.1,0.5,0.1,0.8c-0.1,0.1-0.2,0.1-0.3,0.1
		C82.4,54.2,82.4,53.9,82.5,53.8z M82,51.5c0.2-0.2,0.5-0.1,0.8-0.1c0.1,0.3-0.1,0.5-0.2,0.8c-0.1,0.1-0.3,0.1-0.4,0.1
		C82,52.1,81.9,51.8,82,51.5z M80.2,49.1c0.2,0,0.4,0.1,0.5,0.2c-0.1,0.1,0,0.3-0.2,0.4c-0.2-0.1-0.4,0-0.5-0.2
		C80,49.3,80.1,49.2,80.2,49.1z M79.9,48.6c0.1,0,0.2,0,0.2,0.1v0.2h-0.2V48.6z M78.9,48.3c0.2,0.1,0.5,0.3,0.6,0.5
		c0,0.2-0.1,0.5-0.3,0.5c-0.2,0-0.4,0-0.5-0.3C78.7,48.8,78.6,48.5,78.9,48.3z M77.7,49.4c0.3,0,0.6,0.4,0.9,0.1
		c0.4,0.2,0.8-0.1,1.2,0c0.2,0.4,0.9,0.7,0.4,1.1c-0.2,0.1,0.1,0.3,0.1,0.4c0.1,0.1,0,0.3,0.1,0.4c0.3-0.3,0.8-0.1,1.2-0.1
		c0.4,0.2-0.2,0.5,0,0.8c0.3,0.2,0.5,0.6,0.8,0.8c0,0.5-0.6,0.4-0.9,0.6c-0.3-0.2,0.1-0.5-0.2-0.7c-0.1-0.2,0.2-0.5,0-0.6
		c-0.2,0-0.5,0.2-0.7,0c-0.3-0.2,0-0.6-0.4-0.6c-0.4,0.1-0.9,0.6-1.2,0.1l0,0l0.6,0.7c0.3,0,0.2-0.4,0.5-0.3c0.2,0.4,1,0.4,0.8,1
		c-0.2,0.1-0.5,0.4-0.8,0.2c-0.2-0.2-0.1-0.5-0.3-0.8c-0.4,0-0.7,0.3-1.1,0.1c-0.2-0.3-0.1-0.6,0-0.9c0.7-0.1-0.1-0.7,0.4-0.9
		c0.3-0.1,0.9,0.4,0.9-0.2c-0.3,0-0.9,0.3-1.2-0.1c0.1-0.3-0.2-0.6-0.4-0.6c-0.4,0-0.4-0.7-0.8-0.4L77.7,49.4z M77.5,50
		c0.4,0.3,0.3,0.9,0.5,1.2c-0.2,0.2-0.5,0.2-0.8,0.2c-0.2-0.3-0.2-0.8-0.1-1.2C77.2,50.2,77.3,49.8,77.5,50z M76.6,48.5
		c0.2,0,0.4,0.2,0.5,0.4c-0.3,0.3,0.5,0.6,0,0.9c-0.3,0.1-0.4-0.2-0.6-0.2C76.5,49.2,76.4,48.8,76.6,48.5z M76.2,50.4
		c0.3-0.1,0.4-0.6,0.6-0.1c-0.1,0.2-0.1,0.6-0.4,0.7c-0.2,0-0.4,0.2-0.6,0.1c-0.4-0.3,0.4-0.6-0.1-0.9c0-0.3,0.5-0.4,0.5,0
		C76.3,50.1,76.1,50.2,76.2,50.4z M76,47.9l0.1,0.3c0,0.1,0,0.2-0.1,0.2c-0.2,0.1-0.2-0.1-0.2-0.2C75.9,48.1,75.9,47.9,76,47.9z
		 M76.1,48.7c0,0.2,0,0.4-0.2,0.5c-0.3-0.1-0.6-0.2-0.7-0.5c0-0.1,0-0.2,0.1-0.2C75.6,48.4,75.9,48.5,76.1,48.7z M74.8,45.7
		c0.3,0.1,0.1,0.5,0.2,0.7c-0.1,0.1-0.3,0.1-0.3,0.2c0,0.2,0.1,0.4-0.1,0.5c-0.2,0-0.3-0.2-0.4-0.4c-0.2-0.5,0.7-0.9,0.1-1.3
		c0-0.5,0.2-1.1,0.8-1.3c0.2,0.1,0.5,0,0.6,0.3C75.3,44.8,75.4,45.4,74.8,45.7z M76,45.8c-0.1,0.1-0.2,0.2-0.3,0.2
		c-0.2-0.3,0-0.7,0.2-1C76.1,45.1,76.1,45.5,76,45.8z M76.3,43.1c0,0.3-0.4,0.2-0.5,0.4c-0.1-0.2-0.1-0.5,0.2-0.6
		C76.1,42.9,76.3,42.9,76.3,43.1z M76.1,42.6h-0.2c0-0.2,0-0.5,0.1-0.7c0.1,0,0.2,0.1,0.2,0.2C76.2,42.2,76,42.4,76.1,42.6z
		 M76.7,39.6c-0.3,0.5-1,0.1-1.2,0.5c0.1,0.2,0.5,0.1,0.4,0.4c-0.1,0.2-0.3,0.1-0.4,0.1c-0.3-0.4,0-0.9,0.2-1.2
		c0.3-0.2,1-0.8,1.3-0.1c0,0.1,0.1,0.1,0.1,0.2C77,39.7,76.9,39.4,76.7,39.6z M76.7,38.6c0-0.3,0.2-0.6,0.5-0.8
		c0.2,0,0.4,0.1,0.6,0.2c-0.2,0.3,0.2,0.5,0,0.8C77.4,38.7,76.9,39.1,76.7,38.6z M77.5,40.2c-0.1,0-0.2-0.1-0.2-0.2
		c0-0.2,0.1-0.5,0.4-0.6c0.1,0,0.2-0.1,0.3,0C77.9,39.8,77.8,40.1,77.5,40.2z M77.9,37.3c-0.1-0.2,0.1-0.4,0-0.6c0,0,0,0,0,0
		c0,0,0,0,0,0c0,0-0.1,0-0.1,0c-0.6,0.3-0.4-0.5-0.7-0.7c0-0.4,0.5-0.1,0.6-0.4c0.3,0.1,0.3,0.4,0.4,0.6c0,0.2-0.2,0.3-0.2,0.5
		c0,0,0,0,0,0c0.4,0,0.7-0.4,1.1-0.2l0.8,0c-0.1,0.4-0.7,0.6-0.9,1C78.5,37.5,78,37.7,77.9,37.3z M78.3,40.4
		c-0.3-0.3,0.2-0.3,0.3-0.5l0.3,0.4C78.8,40.5,78.5,40.5,78.3,40.4z M79.7,39.8c-0.2,0.2-0.5,0.1-0.7,0.1c-0.2-0.2-0.1-0.4-0.1-0.6
		c0.3-0.1,0.9-0.9,1-0.2C80.1,39.4,79.8,39.6,79.7,39.8z M80.9,40.3c-0.4-0.2-0.6,0.7-0.9,0.3c0.1-0.4,0.5-0.9,0.9-1
		c0.1,0,0.2,0,0.2,0.1C81.1,39.8,80.8,40,80.9,40.3z M81.4,40.4c-0.1-0.4,0.1-0.8,0.2-1.1c0.1,0,0.2,0,0.2,0.1c0,0.2,0,0.4,0.2,0.5
		C81.7,40,81.9,40.7,81.4,40.4z M82.5,42.2c-0.2-0.1-0.1-0.4-0.1-0.6c0.2-0.2,0.2,0.2,0.3,0.3C82.7,42,82.6,42.1,82.5,42.2z
		 M83,42.8c-0.1,0-0.1-0.2-0.1-0.3c0.1,0,0.2,0,0.1,0.1C83,42.8,83.1,42.8,83,42.8z M82.8,41.1c-0.2,0.2-0.4,0.4-0.7,0.4
		c-0.2-0.4,0-0.8,0.2-1.1c0.2-0.2,0.6-0.3,0.8-0.1C83,40.6,82.8,40.8,82.8,41.1z M82.7,39.8c-0.1-0.5,0.4-0.8,0.7-1
		c0.2-0.1,0.5-0.1,0.6,0.1c0.1,0.2-0.1,0.4-0.2,0.5C83.3,39.4,83.3,40.7,82.7,39.8z M83.8,41.3c-0.1,0.2-0.4,0.2-0.5,0.1
		c-0.2-0.2-0.1-0.6-0.1-0.8c0.4-0.1,0.6-1.1,1-0.4C84,40.6,83.8,41,83.8,41.3z M84.6,40c-0.2,0-0.4-0.1-0.5-0.3
		c0-0.2,0.2-0.4,0.3-0.6c0.1,0,0.2,0,0.3,0.1C84.7,39.5,84.5,39.7,84.6,40z M84.9,37.6c-0.1,0-0.2,0-0.2,0.1c0,0.4,1,0.9,0.2,1.1
		c-0.4,0-0.6-0.3-0.9-0.5c-0.1-0.6,0.6-0.8,0.9-1.3c-0.7-0.3,0-0.7,0.1-1c0.2-0.1,0.3,0.2,0.4,0.3c0.1,0.4-0.4,0.2-0.4,0.5
		C85,37.1,85.2,37.5,84.9,37.6z M85.5,41.3l-0.2-0.1c0.1-0.3,0.2-0.8,0.7-0.8c0.2,0,0.4,0,0.5,0.1C86.5,41.2,85.7,40.7,85.5,41.3z
		 M86.8,39.6c-0.1,0-0.3,0-0.3-0.1c0-0.2,0.1-0.4,0.3-0.5c0.1,0,0.2,0,0.2,0.1C86.9,39.3,87,39.5,86.8,39.6z M87.2,38.5
		c-0.2,0.1-0.5,0-0.7-0.1c0-0.3,0.4-0.2,0.5-0.4C87.2,38.1,87.2,38.3,87.2,38.5z M87.5,40.1c-0.1,0-0.2-0.1-0.3-0.2
		c-0.1-0.2,0.1-0.4,0.2-0.4c0.2,0,0.2,0.2,0.4,0.3C87.8,40,87.6,40,87.5,40.1z M87.9,39.3c-0.1,0.1-0.2,0.1-0.4,0.1
		c-0.2-0.1-0.1-0.4,0-0.5c0.2-0.2,0.6,0,0.6-0.3c-0.1-0.1-0.4,0-0.6-0.1c-0.1-0.2,0-0.4,0.1-0.6c0.3,0,0.5,0,0.6,0.3l0.1,1.1
		C88.2,39.2,88,39.1,87.9,39.3z M88.8,39.8c-0.1,0-0.2-0.1-0.3-0.1c0-0.3,0.3,0,0.4-0.1C88.9,39.7,88.9,39.8,88.8,39.8z M89.1,39.2
		c-0.3,0.1-0.3-0.2-0.4-0.4c0.1-0.3,0.5-0.1,0.7,0.1C89.4,39,89.2,39.1,89.1,39.2z M90.8,39.6L90.8,39.6l0-0.1
		C90.8,39.5,90.8,39.5,90.8,39.6z"/>
	<path fill="#720018" d="M72-12.1c0.1-0.1,0.2-0.2,0.2-0.4c-0.1-0.1-0.4-0.1-0.4,0.1C71.9-12.2,71.9-12,72-12.1z"/>
	<path fill="#720018" d="M82.3,11.1c-0.2,0.1-0.4,0.2-0.4,0.5c0.1,0.1,0.1,0.2,0.2,0.2c0-0.3,0.4-0.2,0.4-0.5
		C82.6,11.1,82.4,11.1,82.3,11.1z"/>
	<path fill="#720018" d="M67.8,12.1v0.2h0.2v-0.1C67.9,12.1,67.8,12.1,67.8,12.1z"/>
	<path fill="#720018" d="M79.3,13L79.3,13c0-0.2-0.1-0.2-0.1-0.2C79.1,12.8,79.2,12.9,79.3,13z"/>
	<path fill="#720018" d="M73.6,15l-0.1,0.1h0.2C73.7,15.1,73.6,15.1,73.6,15z"/>
	<path fill="#720018" d="M75.3,15.6C75.3,15.5,75.3,15.5,75.3,15.6c0-0.1-0.1-0.1-0.1-0.1C75.1,15.5,75.2,15.6,75.3,15.6z"/>
	<path fill="#720018" d="M73,15.9c0-0.1-0.1-0.1-0.2-0.1l0.1,0.1C72.9,15.9,73,15.9,73,15.9z"/>
	<path fill="#720018" d="M72.1,16l-0.3,0.2l0.1,0C72,16.1,72.1,16.1,72.1,16z"/>
	<path fill="#720018" d="M109.4,16.4C109.5,16.4,109.5,16.3,109.4,16.4c0-0.2-0.1-0.2-0.1-0.2C109.4,16.3,109.3,16.4,109.4,16.4z"/>
	<path fill="#720018" d="M110.9,17.2c0,0,0.1,0,0.1,0c0.3-0.3-0.2-0.3-0.3-0.5c-0.1-0.5-0.4-0.1-0.5,0.2
		C110.4,17.2,110.9,16.7,110.9,17.2z"/>
	<path fill="#720018" d="M109.3,16.6C109.3,16.6,109.3,16.6,109.3,16.6L109.3,16.6C109.2,16.7,109.3,16.7,109.3,16.6z"/>
	<path fill="#720018" d="M106.9,17.5c-0.1-0.1-0.2,0.1-0.3,0.2C106.6,17.5,106.9,17.7,106.9,17.5z"/>
	<path fill="#720018" d="M107.6,18.1c0.1-0.5-0.5-0.2-0.7-0.4l0,0.1C107.2,17.8,107.3,18.2,107.6,18.1z"/>
	<path fill="#720018" d="M102.4,19.3c-0.2-0.3-0.5-0.3-0.9-0.3c-0.3-0.1-0.3-0.5-0.3-0.8c0.1-0.2,0.3-0.2,0.3-0.4
		c-0.1,0-0.1-0.1-0.2-0.1c-0.3,0.3-0.3,0.9-0.3,1.3C101.5,19.2,102,19.3,102.4,19.3z"/>
	<path fill="#720018" d="M99.4,20.4c0.3-0.4,0.8-0.8,0.8-1.3c0-0.1-0.2-0.3-0.3-0.1c0.1,0.5-0.5,0.8-0.8,1.1
		c-0.3,0.1-0.2-0.4-0.5-0.3c-0.1,0.2,0.1,0.3,0.2,0.4c-0.1,0.3-0.5,0.2-0.6,0.4C98.6,20.5,99,20.4,99.4,20.4z"/>
	<path fill="#720018" d="M103.4,19.2c0.1,0,0.2,0,0.1-0.1c0-0.1-0.1-0.1-0.2-0.1l-0.1,0.2C103.3,19.2,103.3,19.3,103.4,19.2z"/>
	<path fill="#720018" d="M77.6,19.6l0-0.2l-0.1,0C77.5,19.5,77.6,19.6,77.6,19.6z"/>
	<path fill="#720018" d="M73,19.9v0.2c0.1-0.1,0.4,0,0.3-0.2C73.2,19.8,73.1,19.9,73,19.9z"/>
	<path fill="#720018" d="M78.4,20v0.1h0.1C78.5,20.1,78.5,20,78.4,20z"/>
	<path fill="#720018" d="M100,20.5c0.1,0.1,0.2,0,0.3,0.1v-0.1C100.3,20.2,100.1,20.4,100,20.5z"/>
	<path fill="#720018" d="M104.3,20.5L104.3,20.5l-0.1,0.1C104.3,20.6,104.4,20.6,104.3,20.5z"/>
	<path fill="#720018" d="M95.8,22.7v-0.5c0.3-0.5,0.9-0.4,1.3-0.5c0.7-0.2,1.2,0.2,1.9,0.1v-0.1c-0.3-0.5-0.9-0.1-1.4-0.2
		c-0.4-0.2,0-0.5,0-0.8L97.4,21c-0.2,1.2-1.5,0.2-2.2,0.7C95.3,22,95.3,22.6,95.8,22.7z"/>
	<path fill="#720018" d="M72,22l0,0.2l0.2,0v-0.1C72.2,22,72.1,21.9,72,22z"/>
	<path fill="#720018" d="M100.9,22.9c0-0.1,0-0.3,0-0.4c-0.2,0-0.4,0.1-0.5,0.2l0.3,0.3C100.7,23,100.9,23,100.9,22.9z"/>
	<path fill="#720018" d="M96,22.9c0.1,0,0.1,0,0.1-0.1C96.1,22.8,96,22.8,96,22.9z"/>
	<path fill="#720018" d="M93.6,24.2c0.2-0.1,0.3,0,0.5,0.1c0.4-0.2,0.8,0.2,1.3,0.1c-0.4-0.1-0.7-0.2-1-0.5
		c-0.1-0.2,0.1-0.4,0.2-0.6l-0.8-0.1c-0.2,0.3,0,0.6,0,0.9C93.8,24.1,93.7,24.1,93.6,24.2C93.6,24.1,93.6,24.2,93.6,24.2z"/>
	<path fill="#720018" d="M98.1,23.4L98.1,23.4c0.1-0.1,0-0.1,0-0.1V23.4z"/>
	<path fill="#720018" d="M88.2,24L88.2,24c0-0.1-0.1-0.1-0.1-0.1C88.2,23.9,88.1,24,88.2,24z"/>
	<path fill="#720018" d="M95.9,24c-0.1,0.1,0,0.3,0.1,0.3l0,0C96.1,24.2,96,24.1,95.9,24z"/>
	<path fill="#720018" d="M96.9,24.7c-0.3,0.2,0,0.5-0.1,0.8c0.3,0.2,0.4-0.4,0.5-0.6C97.2,24.7,97,24.7,96.9,24.7z"/>
	<path fill="#720018" d="M92.5,26.6c0.3,0,0.5-0.3,0.7-0.5c0.5-0.3,0.6,0.5,1,0.5c0.5-0.1-0.1-0.6,0.1-0.9c0.2-0.1,0.5,0.1,0.6,0.3
		c0.2-0.4,0.6-0.1,0.9-0.2c0-0.1,0-0.3,0-0.4l-0.2,0c-0.4-0.3-0.7,0.3-1.1,0.3c-0.2,0-0.4-0.2-0.5-0.4c-0.1,0.1-0.3,0.3-0.4,0.1
		c-0.3-0.1-0.6,0-0.8,0.2c-0.2,0.1-0.5-0.1-0.6-0.3c-0.1-0.2,0-0.4-0.1-0.5c-0.4,0.1-0.8,0.2-1.2,0.2c0,0.4,0.4,0,0.6,0.1
		c0.5,0.6-0.5,0.4-0.6,0.7c-0.3-0.2-0.6,0.4-0.8-0.1c-0.2,0.2,0.2,0.4,0,0.6c0.1,0.2,0.2,0.5,0.5,0.4c0.4-1,1.6-0.9,2.5-1
		C93.6,26,92.3,26.1,92.5,26.6z"/>
	<polygon fill="#720018" points="70.6,26 70.6,25.9 70.5,25.8 	"/>
	<path fill="#720018" d="M89.4,26.7v-0.2h-0.1v0.2C89.3,26.6,89.4,26.7,89.4,26.7z"/>
	<path fill="#720018" d="M91,26.8c0,0,0-0.1-0.1-0.1C90.9,26.8,90.9,26.9,91,26.8L91,26.8z"/>
	<path fill="#720018" d="M89.9,28.9C89.9,28.9,89.8,28.9,89.9,28.9L89.8,29c0,0,0,0,0.1,0V28.9z"/>
	<path fill="#720018" d="M53.7,30.7C53.7,30.6,53.7,30.6,53.7,30.7l-0.1,0.1h0.1C53.8,30.8,53.7,30.7,53.7,30.7z"/>
	<path fill="#720018" d="M52.3,31.9L52.3,31.9c0-0.1-0.1-0.2-0.1-0.2C52.2,31.8,52.2,31.9,52.3,31.9z"/>
	<path fill="#720018" d="M50,33.1L50,33.2c0.1,0.1,0.4,0.2,0.5,0.2C50.4,33.2,50.2,33.1,50,33.1z"/>
	<path fill="#720018" d="M51.2,33.6c-0.1,0-0.1,0.1-0.1,0.2c0.1,0.1,0.3,0.1,0.5,0.1v-0.1C51.5,33.7,51.4,33.6,51.2,33.6z"/>
	<path fill="#720018" d="M52.1,34.2l0.2,0.1c0.1,0,0.2,0,0.2-0.2C52.4,33.9,52.1,33.9,52.1,34.2z"/>
	<path fill="#720018" d="M57.1,35.3L57.1,35.3c0-0.2-0.1-0.3-0.2-0.3v0.2C56.9,35.3,57,35.4,57.1,35.3z"/>
	<path fill="#720018" d="M87.4,35.1L87.4,35.1l0.2,0.1v0C87.6,35.1,87.5,35.1,87.4,35.1z"/>
	<rect x="54.4" y="35.8" fill="#720018" width="0.1" height="0.2"/>
	<path fill="#720018" d="M94.9,39.8C95,40,95.3,40,95.6,40c0.4-0.4,0.7,0.2,1,0.2c0.2-0.8-0.8-0.8-1.1-1.3c-0.1-0.7-0.6-1.1-0.9-1.7
		l-0.1,0c-0.1,0.2,0.1,0.4,0.2,0.6C95.4,38.4,94.3,39.1,94.9,39.8z"/>
	<path fill="#720018" d="M53.9,37.8c-0.4,0.1-0.8-0.3-1.2-0.1l0.9,0.2C53.7,37.8,53.9,38,53.9,37.8z"/>
	<path fill="#720018" d="M56.8,37.7c-0.1-0.1-0.2-0.1-0.4-0.1C56.4,37.8,56.7,37.8,56.8,37.7z"/>
	<path fill="#720018" d="M54.4,37.9c-0.1,0.1,0,0.2,0,0.2C54.5,38,54.4,37.9,54.4,37.9C54.4,37.9,54.4,37.9,54.4,37.9z"/>
	<path fill="#720018" d="M65.2,38.7L65.2,38.7c-0.2-0.4-0.7-0.3-1.1-0.3c-0.2,0-0.3,0.4-0.5,0.3c-0.1-0.4-0.5-0.4-0.8-0.4
		c-0.1,0.1-0.1,0.4,0.1,0.5c0.3,0,0.6,0.3,0.9,0c0.3,0.1,0.2,0.4,0.4,0.5c0.5,0-0.1-0.4,0.1-0.6C64.4,38.2,64.9,38.8,65.2,38.7z"/>
	<path fill="#720018" d="M59.9,38.5c-0.2,0.2,0,0.4,0,0.5c0.4,0,0-0.4,0.2-0.6C60,38.4,59.9,38.4,59.9,38.5z"/>
	<path fill="#720018" d="M91.2,39.1h0.2c0-0.1,0.1-0.1,0.1-0.2C91.3,38.8,91.2,39,91.2,39.1z"/>
	<path fill="#720018" d="M65.6,39v0.2h0.3C65.9,39.1,65.7,39.1,65.6,39z"/>
	<path fill="#720018" d="M66.9,39.9c0.1,0,0.2,0,0.2-0.1C67,39.8,67,39.8,66.9,39.9z"/>
	<path fill="#720018" d="M67.9,39.8c-0.1-0.1-0.2,0.1-0.2,0.2h0C67.9,40,68,39.9,67.9,39.8z"/>
	<path fill="#720018" d="M98.9,39.9c0-0.1-0.1-0.1-0.2-0.1c-0.2,0.1-0.3,0.3-0.2,0.5C98.6,40.2,98.9,40.2,98.9,39.9z"/>
	<path fill="#720018" d="M97.7,40.5V40l-0.2,0.2c-0.1-0.1-0.2-0.2-0.4-0.2c-0.2,0.1-0.3,0.3-0.3,0.5C97.1,40.7,97.4,40.5,97.7,40.5z
		"/>
	<path fill="#720018" d="M98.1,40.6c-0.1,0-0.2,0-0.2,0L98.1,40.6L98.1,40.6z"/>
	<path fill="#720018" d="M79.3,42.1c-0.3,0-0.2,0.4-0.5,0.3c-0.7-0.1-0.1-0.6-0.2-0.9c-0.4,0-0.5,0.4-0.5,0.7c0.1,0.3,0.5,0,0.6,0.4
		c0.5-0.1,0.4,0.4,0.6,0.6C79.4,42.7,79.5,42.4,79.3,42.1z"/>
	<path fill="#720018" d="M79.4,41.8l0.2-0.1C79.5,41.5,79.3,41.8,79.4,41.8z"/>
	<path fill="#720018" d="M77.1,42l-0.2,0.2c-0.1,0.2,0,0.3,0.2,0.4c0.2-0.2,0.5-0.2,0.8-0.3C77.6,42.3,77.2,42.3,77.1,42z"/>
	<path fill="#720018" d="M76.6,43.8c-0.1,0.1,0,0.2,0.1,0.2v-0.2C76.6,43.8,76.6,43.7,76.6,43.8z"/>
	<path fill="#720018" d="M79.9,45c-0.1,0.1-0.2,0.5,0,0.5c0.2-0.3,0.5,0,0.7-0.1c0-0.1-0.2-0.1-0.2-0.2c-0.1-0.2-0.2-0.4-0.1-0.6
		L79.9,45z"/>
	<path fill="#720018" d="M87,45c-0.1-0.1-0.1-0.1-0.2-0.1c-0.1,0-0.1,0.2-0.1,0.3C86.9,45.2,87,45.1,87,45z"/>
	<path fill="#720018" d="M78.1,45.4c-0.4,0.2-0.6-0.2-0.9-0.3c-0.2,0.1-0.1,0.3-0.2,0.5l0.2,0c0.2,0.5,0.7,0.2,1.1,0.3
		c0.1,0.1,0.2,0.2,0.2,0.4c0.4,0.1,0.6,0.7,1.1,0.5c-0.3-0.3-0.2-1.1-0.9-0.8c-0.3-0.2-0.4-0.5-0.3-0.8
		C78.2,45.2,78.2,45.4,78.1,45.4z"/>
	<path fill="#720018" d="M88.9,46.1L88.9,46.1c-0.2-0.1-0.2,0-0.4-0.1v0.1C88.6,46.1,88.8,46.2,88.9,46.1z"/>
	<path fill="#720018" d="M80.8,46.3c0-0.1-0.1-0.2-0.2-0.2c-0.3,0.4-0.1,0.6,0,0.9C80.8,47,80.8,46.6,80.8,46.3z"/>
	<path fill="#720018" d="M90.4,47.2c0.1,0,0.2,0,0.2-0.1c-0.2-0.2-0.2-0.5-0.4-0.7c-0.1,0-0.2,0-0.2,0.1
		C90.4,46.7,90.2,47.1,90.4,47.2z"/>
	<path fill="#720018" d="M81.8,49l0.1-0.7c-0.1-0.3-0.4-0.6-0.2-1C80.6,47.8,82,48.3,81.8,49L81.8,49z"/>
	<path fill="#720018" d="M90.5,48.1c0.2-0.4,0.5,0.1,0.8,0.1c-0.1-0.2-0.2-0.5-0.3-0.6L90.6,48c-0.3,0.1-0.4-0.2-0.5-0.4
		c-0.1,0-0.3-0.3-0.4-0.1C90,47.6,90.1,48.1,90.5,48.1z"/>
	<path fill="#720018" d="M89.9,48.3l0,0.2c0,0,0.1,0,0.1,0C90,48.4,90,48.4,89.9,48.3z"/>
	<path fill="#720018" d="M95.4,50.9c0.3-0.2,0.8-0.2,1.1-0.4c0-0.1,0-0.1-0.1-0.2c-0.1,0-0.3-0.1-0.4-0.2c-0.3-0.2-0.6,0.1-0.9,0.2
		c-0.1,0.2-0.4-0.1-0.5,0.2c-0.1,0.1-0.1,0.3,0,0.4C94.9,50.7,95.1,50.9,95.4,50.9z"/>
	<path fill="#720018" d="M84.3,51.4c-0.3,0.2-0.5-0.2-0.6-0.3l-0.1,0.4h0.1c0.3,0.3,0.7-0.1,1.1-0.1c-0.4-0.3-0.3-0.8-0.6-1.1
		c-0.1,0.1-0.3,0.2-0.4,0.1l0.5,0.4C84.4,51,84.5,51.3,84.3,51.4z"/>
	<path fill="#720018" d="M93,51.4c0.1,0.1,0.2,0,0.2-0.1c0.2-0.3-0.2-0.2-0.3-0.1C92.8,51.3,92.9,51.4,93,51.4z"/>
	<path fill="#720018" d="M92.5,52.1c0.1,0,0.1-0.1,0.1-0.1c0-0.2-0.3-0.2-0.3,0C92.4,52,92.5,52.1,92.5,52.1z"/>
	<path fill="#720018" d="M84.7,52.4L84.7,52.4c0.1-0.1,0-0.2,0-0.2L84.7,52.4z"/>
	<path fill="#720018" d="M88.1,58.1c0.1,0.1,0.2,0,0.3,0c0-0.5,0.5-0.9,0.6-1.3c0.2-0.1,0.3,0,0.4,0.1c0.9,0,0.5-1,1.2-1.3
		c0.1,0.2,0.4,0.1,0.6,0.1l0-0.5c0.9-1.1,2.2-1.7,3.6-1.4c-0.1-0.2,0-0.5-0.2-0.6c-0.8,0.2-1.7,0-2.3,0.6c-0.1,0.1-0.5,0-0.6,0.3
		c-0.2,0.2-0.4,0.5-0.6,0.6c-0.1,0-0.3-0.2-0.2-0.3c0.1-0.1,0.2-0.2,0.4-0.3c-0.8-0.9,0.7-1.1,0.9-1.7c-0.2,0-0.3-0.3-0.5-0.3
		c0.3,0.6-0.6,0.4-0.5,1c-0.4-0.1-0.3,0.4-0.5,0.6c-0.5,0.2-0.6,0.9-1.2,0.9c-0.5-0.4-0.1-1-0.2-1.4c-0.4,0.2-0.3,0.5-0.4,0.9
		c-0.5,0.2-0.3,0.9-0.6,1.3c-0.5,0.1-0.2,0.7-0.3,1.1C87.7,57,87.9,57.6,88.1,58.1z"/>
	<path fill="#720018" enable-background="new    " d="M100.4,56.8c-0.4,0.3-1.2,0-1.5,0.5c0.1,0.3,0.3,0.2,0.6,0.3
		c0.2,0,0.6-0.2,0.8,0c0.4-0.3,0.9-0.2,1.3-0.3c-0.1-0.1-0.2-0.3,0-0.3c0.2,0,0.4-0.1,0.5,0c0,0.1,0.1,0.1,0.2,0.2
		c0.3-0.1,0.3-0.4,0.2-0.6c-0.2-0.1-0.1-0.2,0-0.3l0.3-0.1c0.1,0.2,0.1,0.4,0.3,0.5c0.2,0,0.5-0.1,0.5-0.3c-0.1-0.3-0.3-0.6,0.2-0.7
		c0.2,0.1,0.5-0.2,0.6-0.4c0-0.7,0.7-0.3,1.1-0.5c0.6-0.6,1.2,0.1,1.7-0.6l0.5-0.1l0.9-0.2c0.6,0,1.1,0.6,1.5-0.4
		c0-0.2,0.3-0.3,0.1-0.4c-0.3,0-0.2-0.1-0.4-0.3c-0.2,0.2-0.1,0.4-0.4,0.5c-0.2,0-0.4-0.1-0.6-0.3c-0.2,0.4-0.8,0.3-1.2,0.5
		c-0.3,0.5-0.8-0.1-1.2,0.3c-0.2,0.1-0.3,0.2-0.5,0.2c-0.2-0.2-0.5-0.2-0.7-0.1L105,54c-0.1-0.3-0.1-0.5,0.1-0.7l-0.2-0.3
		c0,0,1-0.9,1.2-1.1c0,0,0.1-0.1,0.1-0.1c0.1-0.1,0.2-0.1,0.3-0.2c0,0,0,0,0,0s0,0,0,0c0.2-0.1,0.5-0.1,0.7-0.2c0,0,0,0,0.1,0
		c0.3-0.1,0.8-0.8,0.8-0.8c-0.2-0.1-0.4-0.4-0.7-0.3c-0.3,0.1,0,0.6-0.3,0.6c-0.2-0.2-0.5,0-0.7,0.1c-0.1-0.1-0.2-0.1-0.4-0.1
		c-0.2,0.1-0.3,0.6-0.5,0.5c-0.5,0.7-1,1.4-1.7,1.9c-0.2,0.2-0.2,0.4-0.2,0.7l-0.6,0.2c-0.1-0.2-0.2-0.4-0.5-0.3
		c-0.8,0-0.2,0.8-0.6,1.1C100.8,54.8,101,56.2,100.4,56.8z"/>
</g>
</svg>
