<?xml version="1.0" encoding="utf-8"?>
<!-- Generator: Adobe Illustrator 19.1.0, SVG Export Plug-In . SVG Version: 6.00 Build 0)  -->
<!DOCTYPE svg PUBLIC "-//W3C//DTD SVG 1.1//EN" "http://www.w3.org/Graphics/SVG/1.1/DTD/svg11.dtd">
<svg version="1.1" xmlns="http://www.w3.org/2000/svg" xmlns:xlink="http://www.w3.org/1999/xlink" x="0px" y="0px"
	 viewBox="33 -33 100 100" enable-background="new 33 -33 100 100" xml:space="preserve">

<g id="AREA_1">
	<g>
		<path fill="#720018" d="M125.2-6.5c-4.8-2.9-12.2-1.7-17.1-1.9l-1.6-0.2c-2.8-0.2-5.6-0.7-8.3-1.2c-3-0.2-5.4,0.3-8,0.9
			C85.8-8.2,83-3.6,78.3-3.4c-2.8-0.5-6-0.1-8.2,1.9c-4,2.3-6.7,7-11.1,8.4c-4.4,0.9-8.3,3.7-10.9,7.7c-2.5,3.3-6,4.7-9.1,6.5
			c4.5,0.3,8.1-1.6,12.3-1.7c-2,3.3-4.9,6.3-7.9,8.7c0.4,0,0.8,0.2,1.2,0.1c2.4-0.2,4.2,1.3,6.6,1c3.4-1,6.3-3.1,9-5.7
			c1.4-1,3.3-0.8,5.1-0.8c-1.6,1.4-3.3,2.7-4.9,4c0.6,0,1.2,0.2,1.7,0.3c0,0.1-0.1,0.1-0.1,0.2c-3.4,1.3-6,4.8-10.2,4.1
			c0.9,0.7,2,1.2,3.1,1.5c4.3,0.8,6.5-3.5,10.1-4.6c1.2-0.3,2.2,0.3,3,1.1c-1.9,0.5-3.5,1.5-5.1,2.7c-1.8,1.5-4.3,1.3-5.9,3
			c2.1,0.2,4,0.7,5.7,2c1.1,0.7,2.3,1,3.5,1.4c-1.5,0.6-3,0.9-4.6,1.3c-2.4,0.4-4.2,2.2-5.9,4.1c0.5-0.3,1.2-0.3,1.7-0.6
			c5.2-1.9,9,2.7,14,2.6c1.6,0.2,2.8-0.8,4.2-0.8C74,46.3,73.7,48,74,49.8c0.5,2.1,0.3,4.7-0.2,6.7c1.6-2.9,3.8-6.1,6.7-8h0.2
			c-2.2,2.9,0.4,5.9,0.8,8.8l1.3-3c1.4-2.5,1-5.8,3.3-7.9c0.4-0.3,0.9-0.7,1.3-0.8l1.4,6.4c0-2.3-0.2-5.2,0.4-7.7
			c1.6-5.7,3.5-11.6,7.8-16.1c3.3-2.9,7.8-4.7,9.6-9c4.4-1.1,8.2,0.9,11.8,2.3c1,0.4,2.1,0.8,3.1,1.1c-0.1-1.7,0-3.7-0.8-5.2
			c-2.2-3.7-6.2-5-10.4-5.1c-0.2-0.2,0.1-0.6,0.2-0.9c1.1-4.3,5.2-8.4,9.5-9.7c2.9,1,3.2,4.3,4.6,6.5c1.4-1.9,2.5-3.8,2.9-6.1
			C127.8-0.9,127.8-4.5,125.2-6.5z M102.9,18.9c-2.2,1.8-5.8,0.5-7.4,3.4c-0.8,1.1-2.1,2-3.1,3c0.6-0.2,1.3-0.6,2-0.9
			c2.3-1.7,4.8-2.9,7.6-3.3l0.9,0.1v0.1c-1.6,0.8-2.9,2.2-4.3,3.4c-1.4,0.8-3.1,1.2-4.2,2.7c-1.6,1.9-3,3.8-4.4,5.7
			c-1,2.5-0.8,5.5-2.8,7.6c-1.1,1.4-2.5,2.6-3.9,3.7c0.3-0.6,0.6-1.4,0.9-2c0.6-1.9,0.4-4.2-0.1-6.1c-1,2.7-2.3,5.3-4.1,7.6L77.5,47
			c-0.3-1-0.7-2.7,0.2-3.6c1.7-1.4,3.2-3.1,4.4-4.9c-1.1-0.4-2.6-0.6-3.5,0.2c-1.9,1.3-3,3.9-5.2,4.6c-2.7,0.9-5.9,0.4-7.9-1.7v-0.2
			c2.9-1.5,6.5-3,9.8-1.6c0-1-0.5-2.2-1.5-2.5c-1.1-0.3-2.2-0.1-3.3,0c1.1-1.3,2.6-2.7,3.9-4.1c0.1-0.3,0.7-0.6,0.6-0.9h-0.2
			c-1.9,0.8-3.6,2.1-5.3,3.4c-1.3,0.7-3.1,0.9-4.4,0.1c-0.6-0.3-1.2-0.8-1.7-1.3c3.4-1.9,6.8-3.9,11.3-3.4l0,0
			c-0.5-0.9-1.1-2.1-2.2-2.4c-1.2-0.2-2.6,0.2-3.5-0.8c-0.2-0.8-0.4-2-1.4-2.3c-0.5-0.2-1.1-0.2-1.7-0.3C68,24,71,22.6,73.6,24
			c0.6,0.3,1.2,0.5,1.8,0.8c-0.2-1.3-0.6-2.9-2-3.6c-1-0.6-2.4-0.5-3.7-0.5c0.4-0.5,1.1-0.9,1.9-1c2.4-0.2,4.3,0.7,6.3,1.5
			c-0.1-1.2-0.4-2.5-1.6-3.3c-3.6-2.4-7.4,0.5-10.4,2.6c-0.9,0.4-1.8,0.7-2.9,0.6c0.1-0.3,0.6-0.5,0.9-0.7c1.1-1.1,1.8-2.5,2.6-3.8
			h-0.2c-2.2,1.6-4.1,3.9-6.8,4.4l-4.3,0.1c-0.9,0.3-1.5,1.2-1.7,2c1-0.2,2-0.8,3.3-0.5c-1.3,1.6-3.2,2.2-5.2,1.9
			c0,0.3,0.3,0.8,0.1,1.2c-0.3,0.5-0.9,0.5-1.4,0.8c-0.1-0.1-0.1-0.2,0-0.3c0.2-3.1,3.9-4.6,5.3-7c1.3-1.1,2.8-1.8,4.2-2.6
			c-0.9-0.1-1.9,0-2.9,0c2.3-2.4,5.3-4.5,7.4-6.8v0H64c-3.3,1.6-5.8,5-9.4,5.8c-2.2,0.6-4.4,0.9-6.4,1.9c0.9-1.1,2.1-1.9,3-3.2
			c1.5-1.7,2.9-4,5.2-4.7c6-0.6,10.4-5,15.1-8.7c1.8-1.6,4.5-1,6.7-1.8c4.9-1.8,9-5.8,14.2-6.6c4.8-0.9,9.8-0.4,14.3,0.5
			c-0.3,1.4-0.6,2.9-1.4,4.1c-1.1,0.4-2.4,0.1-3.3-0.4c-0.5,0.5-1,1.1-1.6,1.4l-0.5-1.3c1.7-0.9,3.9-0.8,5.3-2.3
			c-2-0.1-4.3-0.3-5.7,1.2c-1.7,0.8-3.3-0.6-5-0.3c-1.7,0.1-3.4,1-4.7,2.2l-0.9,1.2l0.1,0.1c0.8,0.2,1.7,0.4,2.6,0.5
			c0.6-0.8,0.7-2.3,2-2.5c-0.1,0.7-0.3,1.7-0.1,2.5c0.4,0.9,1.3,1.7,2.2,2c2,0,3.7-1.1,5-2.7c0.5-0.3,0.9-0.9,1.4-0.8
			c0.7,0.3,1.6,0.2,2.4,0.1c-3.9,3.8-8.4,6.3-12.7,9.2c-0.5,0.2-1.1,0-1.5,0.4c0,0.3-0.1,0.7,0.1,0.9c1.2-0.8,1.8,0.8,2.7,1.3
			c1.4,1.2,2.9,2.5,4.5,3.5c-1.8-0.2-3.4-1.3-4.9-2.4c0,0.7,0.4,1.3,0.8,2c2,2.5,5.3,1.8,7.9,3c0.9-0.1,1.4,0.6,2.2,0.8
			C103.7,17.5,103.3,18.3,102.9,18.9z M94.9-2.8l1-0.1c-0.1,0.6,0,1.3,0.6,1.6c0.6,0.3,1.3,0.1,1.7-0.2c0.3-0.3,0.5-0.7,0.3-1.1
			l-0.2-0.3c0.4-0.3,0.9,0,0.9,0.5v1.1c-1.1,0.6-2.2,1.7-3.6,1.3C94.7-0.5,94.9-1.8,94.9-2.8z M96.5-2.9c0.3,0,0.5,0.1,0.6,0.2
			c0.1,0.2,0.1,0.7-0.2,0.8c-0.3,0-0.5-0.1-0.7-0.2C96.2-2.4,96.1-2.8,96.5-2.9z M97.1-3c0-0.3,0.3-0.2,0.5-0.2v0.4
			C97.5-2.7,97.1-2.8,97.1-3z M114.5,15.5c1.5,0.7,2.7,2.2,4.1,3c0.2,0.2,0.4-0.1,0.5-0.2c-0.1-0.9-0.4-1.6-1.2-2.2
			c-0.7-0.5-1.5-0.7-2.3-1c1.2-0.2,2.4,0.6,3.3,1.6c0.6,0.7,0.8,1.7,0.6,2.7c-1.4-0.7-2.9-1.4-4.4-1.9c-4.7-1.3-9.8-1.7-14.1-4
			c-0.9-0.3-1.9-0.3-2.9-0.2c-2.3-1.5-4.3-3.3-6.4-5.2c3.6-0.5,5.9,3.1,8.9,4.4c2.3,1.4,5,1.8,7.8,2.1c0.7,0.2,1.4,0.5,2,0.8v-0.2
			c-1.5-2.4-4.1-2.5-6.5-2.6c-0.6-0.1-1.4-0.2-2-0.6c-1.2-0.8-2-2.1-3-3.2c-1.1-0.6-2.3-1-3.5-1.4c2-1.2,4-2.6,6.3-3.3
			c-1.2,1.3-2.6,2.5-3.7,3.9c2.8,0.3,4.2,3.3,6.9,3.7c1.6,0.4,3.2,0.9,4.9,1.1C111.1,14.1,113,14.4,114.5,15.5z M108.6,8.1
			c-1.4,0.5-2.7,1.2-4.2,1.3c0.8-0.6,1.6-0.9,2.5-1.5l-0.2-0.2l-3.5-0.2v0c1.7-0.6,3.6-0.8,5.5-0.8c0.3,0.1,0.6,0.3,0.8,0.6
			C109.5,7.9,108.9,7.8,108.6,8.1z M110.1,8.6v0.2l-1.3,3c-1.2-0.4-2.3-0.7-3.5-1C107,10.6,108.6,9.5,110.1,8.6z M110.7,7.5
			c0-0.7-0.4-1.3-1-1.6l-1.2-0.2l-6.9,0.7l-0.8,0.3c1.3-1.2,2.8-2.5,4.1-3.7c4.1-0.8,7.9-2.1,12.4-1.7C115,3.1,111.7,4.5,110.7,7.5z
			 M125,4.9c-0.5-1.1-1-2.5-2.2-3.5V1.2c-0.7-0.4-1.4-0.9-2-1.5c-0.9,0.3-2.1-0.2-3.3-0.1c-6.3,0.2-12.4,1.2-17.8,4.1
			c-2.3,1.1-4.4,2.7-7,3.3c4-2.9,8.9-5.3,12.3-9.1c0.4-0.3,0.8-0.6,1.2-0.9l-0.5-0.1c0.8-1.2,1-2.6,1.3-4c3.3-0.1,6.8-0.6,10.1,0
			c1.7,0.2,3.6,0.4,5.4,0.9c1.8,0.4,3.4,2.2,3.7,4C126.7,0.4,125.4,2.6,125,4.9z"/>
		<path fill="#720018" d="M108.5-2.2c1.3-1.2,2.4-2.6,3.7-3.8l0-0.2c-1.2,0.3-2.3,0.4-3.4,0.8C107.8-4.6,108.4-3.2,108.5-2.2z"/>
		<path fill="#720018" d="M85.1,1.5c0.9-0.8,2.3-0.6,3.3-0.4c0.5,0.1,1.1,0.4,1.6,0.5c-0.4-0.6-0.8-1.2-1.4-1.7
			C88-0.7,87-0.4,86.2-0.5c1.4-1.4,2.9-2.5,4.6-3.3c-2.8-0.6-5.1,0.7-6.9,2.9c-1.1,0.6-2.5,0.3-3.6,0.3c0.9,0.4,1.8,0.7,2.9,0.6
			c-1.2,1-2.5,2.3-3.7,3.3C81.6,3.4,83.5,2.7,85.1,1.5z"/>
		<path fill="#720018" d="M72.5,7.7c-0.9,0.1-1.8-0.2-2.5-0.9c0.4-0.3,0.7-0.8,1.1-1.1C72.7,5,74.5,4.9,75.9,4c0-0.1,0-0.3,0-0.4
			c-2.1-0.6-4.8-0.5-6.2,1.3c-1.1,1.9-2.9,3.7-5.1,3.9c1.2,0.6,2.7,0.2,3.8-0.2c1.9-0.5,3.1,0.9,4.8,0.8c1.7-0.4,2.9-2.3,3.6-3.7
			C75.4,6.4,74,7.2,72.5,7.7z"/>
		<path fill="#720018" d="M86.9,13.9c-0.7-1.8-2.6-1.6-4-2.3c1.7-1.8,4.4-1.8,6.8-1.8c-0.5-0.5-1-0.8-1.5-1.2c-1.6-1-3.3-0.9-4.8,0
			c-1.9,2.1-4.3,3-6.9,3.3c1.1,0.4,2.3,0.7,3.6,0.5c-1.2,1.6-3.5,1.2-4.5,3.3c2.1-0.3,4.1-0.9,6-1.9C83.3,13,85.3,13.6,86.9,13.9z"
			/>
		<path fill="#720018" d="M88,25c-2.3-0.2-3.9,1.7-4.9,3.4c-1.1,1.3-2.9,0.8-4.2,0.4c2.1,0.9,3.9,2.7,6.5,2.3
			c1.6-0.3,3.2-1.6,3.5-3.3c-0.8,0.7-1.5,1.4-2.3,1.9c-0.8,0.5-2,0.5-2.8-0.2c0.1-0.7,0.9-0.9,1.3-1.4c1-1.1,2.4-1.4,3.7-1.8
			c0.5-0.2,1.2-0.4,1.2-1.1C89.4,25,88.8,25,88,25z"/>
	</g>
</g>
</svg>
