<?xml version="1.0" encoding="utf-8"?>
<!-- Generator: Adobe Illustrator 19.1.0, SVG Export Plug-In . SVG Version: 6.00 Build 0)  -->
<!DOCTYPE svg PUBLIC "-//W3C//DTD SVG 1.1//EN" "http://www.w3.org/Graphics/SVG/1.1/DTD/svg11.dtd">
<svg version="1.1" xmlns="http://www.w3.org/2000/svg" xmlns:xlink="http://www.w3.org/1999/xlink" x="0px" y="0px"
	 viewBox="33 -33 100 100" enable-background="new 33 -33 100 100" xml:space="preserve">

<g id="AREA_1">
	<g>
		<path fill="#720018" d="M100-7.2C100-7.2,99.9-7.2,100-7.2C99.9-7.2,100-7.2,100-7.2z"/>
		<path fill="#720018" d="M100.4-8C100.4-8,100.4-8,100.4-8C100.4-8,100.4-8,100.4-8z"/>
		<path fill="#720018" d="M100.3-7.5C100.3-7.5,100.3-7.5,100.3-7.5C100.3-7.5,100.3-7.5,100.3-7.5z"/>
		<path fill="#720018" d="M100.2-7.3C100.2-7.3,100.2-7.3,100.2-7.3C100.2-7.3,100.2-7.3,100.2-7.3z"/>
		<path fill="#720018" d="M100.2-7.4C100.2-7.4,100.2-7.4,100.2-7.4C100.2-7.4,100.2-7.4,100.2-7.4z"/>
		<path fill="#720018" d="M100.4-8.1C100.4-8.1,100.4-8.1,100.4-8.1C100.4-8.1,100.4-8.1,100.4-8.1z"/>
		<path fill="#720018" d="M100.4-8.1C100.4-8.1,100.4-8.1,100.4-8.1C100.4-8.1,100.4-8.1,100.4-8.1z"/>
		<path fill="#720018" d="M100.4-8.4C100.4-8.4,100.4-8.4,100.4-8.4C100.4-8.4,100.4-8.4,100.4-8.4z"/>
		<path fill="#720018" d="M100.4-8.3C100.4-8.3,100.4-8.3,100.4-8.3C100.4-8.3,100.4-8.3,100.4-8.3z"/>
		<path fill="#720018" d="M100.4-8.2C100.4-8.2,100.4-8.2,100.4-8.2C100.4-8.2,100.4-8.2,100.4-8.2z"/>
		<path fill="#720018" d="M99.7-7C99.7-7,99.7-7,99.7-7C99.7-7,99.7-7,99.7-7z"/>
		<path fill="#720018" d="M100.5-8C100.5-8,100.5-8,100.5-8C100.5-8,100.5-8,100.5-8C100.5-7.9,100.5-7.9,100.5-8
			C100.5-7.9,100.5-7.9,100.5-8z"/>
		<path fill="#720018" d="M99-6.9c-0.1,0-0.2,0-0.2,0C98.8-6.9,98.9-6.9,99-6.9z"/>
		<path fill="#720018" d="M100.4-8.2C100.4-8.2,100.4-8.2,100.4-8.2C100.4-8.2,100.4-8.2,100.4-8.2z"/>
		<path fill="#720018" d="M100.5-8.4C100.5-8.4,100.5-8.4,100.5-8.4C100.5-8.4,100.5-8.4,100.5-8.4z"/>
		<path fill="#720018" d="M100.5-8.5C100.5-8.5,100.5-8.5,100.5-8.5C100.5-8.5,100.5-8.5,100.5-8.5z"/>
		<path fill="#720018" d="M100.5-8.4C100.5-8.4,100.5-8.4,100.5-8.4C100.5-8.4,100.5-8.4,100.5-8.4z"/>
		<path fill="#720018" d="M99.9-7.1C99.8-7.1,99.8-7.1,99.9-7.1C99.8-7.1,99.8-7.1,99.9-7.1z"/>
		<path fill="#720018" d="M99.6-7C99.5-7,99.5-7,99.6-7C99.5-7,99.5-7,99.6-7z"/>
		<path fill="#720018" d="M99.4-6.9c0,0-0.1,0-0.1,0C99.3-6.9,99.4-6.9,99.4-6.9z"/>
		<path fill="#720018" d="M99.2-6.9c0,0-0.1,0-0.1,0C99.1-6.9,99.2-6.9,99.2-6.9z"/>
		<path fill="#720018" d="M100.1-7.3C100.1-7.2,100.1-7.2,100.1-7.3C100.1-7.2,100.1-7.2,100.1-7.3z"/>
		<path fill="#720018" d="M122.4-18.3c-0.9-0.7-3.3-1.8-3.9-2.2c-0.6-0.5-1.5-1.5-3.1-1.6c-1.6,0-2.8,0.6-4,0.6
			c-1.1,0-4.9,0.2-7,0.5c-2.1,0.3-1.2,1.1-3.5,0.4c-2.3-0.7-2.1-1.1-2.8-1.5c-0.7-0.4-2.6-1.1-2.8-1.1c-0.2,0-3.7-0.4-6.2,0.1
			c-2.5,0.5-5.6,1.3-7,1.7c-1.4,0.4-3.4,1.1-5.2,1.1c-1.8,0-5.7,2.2-6.7,2.4c-0.9,0.2-1.9,0.7-1.9,0.7L68-16.6c0,0-0.9,0.4-1.6,0.3
			c-0.7-0.1-1.9-0.4-2-0.5c-0.1-0.1-1.4-0.4-1.6-0.4c-0.2,0-3.1,0.2-3.1,0.2s-2.1,2.3-2.5,3.3c-0.3,1-0.9,4-0.7,5.4
			c0.1,1.4,0.4,2.7,0.8,3c0.4,0.4,1.3,1,1.3,1S57.2-3,56.9-2.6c-0.3,0.4-0.2,2.1-0.6,3.5s0,4.3-1.1,5.6c-1.1,1.3-3.1,5.1-3.6,6.2
			c-0.6,1.1-2,3.5-2.1,4c-0.2,0.4-0.4,1.5-0.4,1.5s-0.8,2.9-0.9,4.1c-0.1,1.2-1,4.1-1,5c0,1-0.2,3-0.2,3s-1.3,1.6-1.3,2
			c0,0.4,0.2,1.2,0.2,1.2l0.9-0.1c0,0,0.2,1.1,0,1.5c-0.2,0.4-0.8,1.9-0.8,1.9l1.8,1.5c0,0,6.1,2.7,11.3,6.6
			c5.2,3.9,15.1,13.5,15.8,13.9c4.2,2.8,9.1,3.7,9.1,3.7s4.6-1.4,9.1-6.3c2-2.2,5.7-6.6,6.7-7.4c1.1-0.8,2.2-2.4,4.4-3.5
			c2.2-1.1,3.3-1.8,4.6-1.9c1.4,0,2.6-2.2,2.6-2.2s0.2-1.1-0.3-1.7c-0.5-0.7-1.7-4.3-1.4-5.5c0.3-1.3,1.1-2,1.1-2l-2.6-3.9
			c0,0,0.9-2.7,1.5-3.5c0.6-0.8,2.6-4.6,2.8-5c0.2-0.4,1.3-1.5,1.3-2c0-0.4,0.2-4.3,0.1-5.2c-0.1-0.9-0.7-5.7-0.6-6.7
			c0-1,0.5-3.4,0.5-3.4s3.4-1.8,4.4-2.6c1-0.8,1.9-1.9,2.2-2.9c0.3-1,1.5-4.6,1.6-4.9c0-0.3,0.2-1.8,0.2-1.8s0.3-0.9,0.2-1.9
			c-0.1-1-0.5-2.2-0.5-2.2s1-1,1.1-1.5C123.1-16,123.3-17.6,122.4-18.3z M69.2-17.3c0.5,0,1.2-0.1,1.2,0.4
			C70-17,69.1-16.7,69.2-17.3z M121.1-14.6c-0.3,0-0.3,0.3-0.3,0.7c0.2,0.3,0.3,0.1,0.7,0.4c-0.1,0.5-0.4,0.3-0.5,0.9
			c0.2,0,0.3-0.1,0.1-0.1c0.2-0.1,0.4,0.6,0.7,1c-0.4,0-0.3-0.5-0.7-0.5c0.1,0.6,0.7,0.7,0.7,1.4c-0.6,0,0,1.8-0.1,2.2
			c-0.4,0-0.4-0.3-0.4-0.5c-0.4,0.2,0.3,1.1-0.4,0.7c-0.1,0.6,0.2,0.8,0.1,1.3c-0.2-0.2-0.3-0.6-0.3-1c-0.6,0.4,0,1.3-0.1,2
			c-0.2,0-0.2-0.2-0.4-0.3c0.1,1.1-0.5,2.6-0.8,3.8c-0.7,0.1-0.9,0.7-1.1,1.3c-0.3,0.1-0.4-0.1-0.5-0.1c0,0.3,0.1,0.7-0.1,0.9
			c-0.2-0.1-0.4-0.2-0.4-0.5c-0.3,0-0.1,0.6-0.1,0.8c-0.9-0.6-1.4,0.5-2.3,0.7c0.1,0.5-0.2,0.5-0.1,0.9c-0.4,0-0.4-0.3-0.4-0.5
			c-0.3,0-0.2,0.4-0.5,0.3c0.1,0.3,0.1,0.7,0.3,0.9c-0.4,0.5-0.6-0.4-0.8-0.5c-0.7,0.6-0.2,2.4-0.1,3.7c-0.5,0.2-0.3,0.3-0.3,0.9
			c-0.5,0.1-0.4-0.3-0.7-0.4c0.1,0.9,0.9,1.1,0.8,2.2c-0.3-0.2-0.6-0.4-0.7-0.8c-0.2,0.6,0.8,1,0.7,2c-0.5,0-0.4-0.6-0.8-0.7
			c0.1,0.8,0.4,1.6,0.8,2.1c-0.8,0.7,0.3,1.5,0.4,2.1c-0.3,0.1-0.4-0.1-0.5-0.1c0.1,0.4,0.5,0.6,0.5,1c-0.3,0.1-0.4-0.1-0.5-0.1
			c-0.2,0.9,0.6,0.8,0.5,1.6c-0.2,0-0.2-0.2-0.4-0.3c0.1,0.4,0.3,0.8,0.5,1c-0.1,0.2-0.2,0-0.4,0c-0.3,1.1,0.1,1.4,0.5,2.1
			c-0.5,0.1-0.6-0.3-1-0.4c-0.3,0.1-0.1,0.7,0.1,0.8c-0.1,0.5-0.4,0.1-0.7,0c0,0.2,0,0.4,0,0.7c-0.8-0.3-0.8,0.7-0.7,1.6
			c-0.3-0.1-0.5-0.3-0.5-0.5c-0.6,0.3,0,1-0.1,1.7c-0.4,0.1-0.4-0.4-0.7-0.4c-0.1,0.6,0.1,1,0.1,1.4c-0.2,0-0.3-0.2-0.5-0.1
			c-0.1,0.7,0.2,1,0.1,1.7c-0.4-0.1-0.3-0.7-0.7-0.9c-0.3,0.1-0.1,0.6-0.1,0.9c-0.3,0-0.3-0.4-0.5-0.4c-0.4,0.6,0.1,1.9-0.3,2.5
			c-0.5,0-0.6-0.4-0.5-0.9c-0.4,1.4,0.2,1.9,0.4,3c-0.3,0-0.4-0.2-0.5-0.4c-0.2,0.3-0.2,0.4-0.5,0.1c-0.3,0.2,0.4,0.7,0.3,1.2
			c0.2,0.5,1.4,0.2,1.4,0.9c-0.2,0.2-0.6,0.1-1,0.1c0.1,0.6,0.6,0.6,1,0.9c-0.2,0.4-0.6-0.1-0.8-0.1c0.4,0.4,0.8,0.8,1.5,0.8
			c0,0.3-0.6,0.1-0.8,0.1c0.2,0.2,0.6,0.3,1,0.4c0.2,0.1,0.4,0.1,0.5,0.2c-0.2,0.2-0.4,0.2-0.6,0.1c0,0.1-0.1,0.3-0.1,0.4
			c-0.3,1.9-0.3,3.7,0.3,5.5c0.1,0.1,0.1,0.3,0.2,0.4c0.5,0.4,0.9,0.8,1.1,1.3c-0.2,0-0.4-0.1-0.6-0.2c0.1,0.3,0.5,0.8,0.5,0.8
			c0,0,0,0,0,0.1c-0.1,0-0.1,0.1-0.2,0.1c-1.7,1-5,1.6-8.2,3.8c-7.8,5.4-12.9,16-19.3,16s-19-17-31.8-22.5c-0.1-0.1-0.3-0.1-0.4-0.2
			c-0.2-0.1-0.4-0.2-0.6-0.2c-0.7-0.3-1.5-0.6-2.2-0.8c-0.2-0.1-0.5-0.2-0.7-0.3c0.5-0.8,1-1.4,1.2-2.5c-0.4,0.4-0.4,1.2-1,1.6
			c-0.4-0.7,0.4-1.3,0.5-1.8c-0.4-0.7-0.2-1.4,0-2.2c-0.8,0.1-0.8,1.4-1.8,0.9c0.9-0.8,0.9-1.7,1.9-2.5c0-0.2-0.2-0.1-0.4-0.1
			c0.3-0.5,0.6-1,0.8-1.7c-0.4-0.3-0.5,0.8-1.1,0.8c0.2-1,1.1-1.3,1.2-2.3c-0.3-0.3-0.5,0.6-1,0.5c0.4-0.7,1-1.3,1.2-2.2
			c-0.1-0.2-0.4,0.4-0.5,0.5c-0.1-0.5,0.7-1.3,0.8-2.1c0-0.2-0.7,0-0.7,0.3c0.1-0.5,0.1-2.1,0.8-2.5c-0.2-0.4-0.3,0.4-0.7,0.3
			c0.3-2.3,2-3.3,2.9-5c-0.5-0.3-1.2,0.9-1.8,0.5c0.6-1.2,2.4-1.2,2.7-2.6c-0.2-0.2-0.8,0.8-1.2,0.4c0.3-0.8,1.1-1.1,1.5-1.7
			c0-0.2-0.3-0.1-0.5-0.1c0.8-1,2.1-1.4,2.5-2.7c-0.1-0.3-0.7,0.1-0.8,0.3c-0.6-0.5,1-0.9,1-1.7c0-0.2-0.5-0.1-0.5-0.3
			c0.6-0.6,1.1-1.2,1.6-1.8c-0.8-0.7,0.8-0.9,1-1.4c0-0.3-0.2,0.2-0.5,0c1.2-1.2,1-3.1,1.4-4c0.1-0.7,0.4-1.4,0.8-2.1
			c-0.4-0.2-1,0.7-1.6,0.3c0.4-0.8,1.5-0.9,2.1-1.6c0-0.3-0.2,0.2-0.5,0c0.1-0.4,0.6-0.4,0.8-0.8c-0.5,0.2-1.1,0.6-1.6,0.1
			c0.6-0.8,1.9-0.9,2.5-1.7c-0.2-0.3-0.5-0.2-0.8-0.1c0.3-0.8-0.5-1.2-1.5-1c-0.1-0.6,0.9,0,0.8-0.5c-0.2-0.6-0.8,0.1-1.4,0
			c-0.2-0.7,0.8-0.3,0.8-0.8c-0.1-0.6-0.8,0.2-1.1-0.3c0-0.3,0.3-0.3,0.7-0.3c0-0.3-0.3-0.3-0.5-0.4c0.2-0.6,0.4-1.7-0.1-2
			c0.4-0.1,0.7-0.6,0.4-1c0.9-0.4,0.4-1.7,1.1-2.1c0-0.5-0.6-0.4-0.5-0.9c0.4-0.1,0.4,0.2,0.7,0.3c0.3-0.3-0.2-0.5-0.1-0.9
			c1.2-0.2,1.2-1.6,2.1-2.2c0.3,0,0.6,0.6,0.5-0.1c0.6,0.5,1.5,0.1,2.1,0.8c0.3-0.1,0-0.8,0.5-0.7c0.2,0.6,0.6,1.1,1.1,1.4
			c0.2-0.3-1-1-0.5-1.6c1.1,0.5,1.3,1.7,2.3,2.2c0.2-0.3-0.9-0.9-0.5-1.3c1,0.1,1.1,1.1,2.1,1.3c0.2-0.3-1.3-0.7-0.8-1.3
			c0.7-0.3,0.9,1,2.1,0.7c-0.2-0.3-0.8-0.2-0.8-0.8c0.5-0.3,1,0.3,1.8,0.1c-0.1-0.2-0.4-0.1-0.3-0.5c1,0.1,1.6-0.2,2.2-0.4
			c-0.2-0.3-1.1,0-1.1-0.5c0.6-0.1,1.6,0,2.5-0.3c-0.4-0.4-1.4-0.1-1.4-0.8c0.6-0.2,1.8,0.1,2.6-0.1c0.1-0.4-0.5-0.2-0.3-0.7
			c0.5-0.3,1.6-0.1,2.3-0.1c0.5-0.2-0.5-0.2-0.3-0.5c0.7-0.2,2,0.1,2.9,0.1c0.4-0.2-0.5-0.3-0.4-0.7c0.7-0.2,1.7,0.3,2.7,0.1
			c0.1-0.5-0.7-0.1-0.4-0.7c1,0,2,0.5,3,0.1c-0.1-0.3-0.6,0-0.4-0.5c1.4,0,2.7,0.1,3.4-0.5c-0.1-0.2-0.3-0.2-0.5-0.3
			c1.3-0.4,3.5-0.7,4.6-0.5c-0.1-0.1-0.3-0.1-0.3-0.4c1.4-0.1,2,0.5,3.3,0.5c0.2-0.1,0-0.1-0.1-0.1c1.6-1,2.4,1,4,0.9
			c1.9,2.5,6.2,0.8,9.8,0.4c1.7-0.2,3,0.1,4.4,0c1.1-0.1,2.3-0.7,3.7-0.3c0.8,0.3,1.8,1,2.7,1.6c1.8,1.1,3.8,1.1,4,3.1
			C122.7-15.9,122.5-14.6,121.1-14.6z"/>
		<g>
			<path fill="#720018" d="M101.2-18.2c-0.2-0.2-1.2-0.3-1.2,0.1C100.4-18.2,101.1-18,101.2-18.2z"/>
			<path fill="#720018" d="M103.4-17.5c-0.2-0.1-0.3-0.4-0.8-0.3C102.5-17.4,103.3-17.2,103.4-17.5z"/>
			<path fill="#720018" d="M110.4-16.9c-0.4-0.1-0.8-1.1-1.1-0.5C109.6-17.4,110-16.6,110.4-16.9z"/>
			<path fill="#720018" d="M87.4-17.2c-1.9,0.1-3.2-0.8-4.8,0C84.4-17.6,86-16.5,87.4-17.2z"/>
			<path fill="#720018" d="M109.7-16.8c-0.6-0.4-0.7-0.8-1.5-0.8C108.4-16.9,108.6-16.3,109.7-16.8z"/>
			<path fill="#720018" d="M70.5-16.9c0-0.5-0.7-0.4-1.2-0.4C69.1-16.7,70-17,70.5-16.9z"/>
			<path fill="#720018" d="M98.8-17.3c-0.2,0.2-0.4,0.3-0.4,0.7C98.6-16.7,99.1-17.2,98.8-17.3z"/>
			<path fill="#720018" d="M109-15.5c0-0.2,0-0.4,0-0.7c-0.6-0.1-0.7-0.6-1.2-0.7C108.1-16.3,108.5-15.9,109-15.5z"/>
			<path fill="#720018" d="M113.5-16c0.1-0.6,0-0.9-0.7-0.8C112.8-16.3,112.9-15.9,113.5-16z"/>
			<path fill="#720018" d="M85.6-16.3c-0.1-0.2-0.7,0-0.5-0.4c-0.9-0.1-1.4,0.2-2.3,0.1c-0.5,0-0.9,0-1.4,0
				C82.9-16.4,84.7-16.2,85.6-16.3z"/>
			<path fill="#720018" d="M102.6-15.9c0.5,0.2,1.4-0.2,1.5-0.8C103.5-16.5,102.8-16.4,102.6-15.9z"/>
			<path fill="#720018" d="M110.5-15.9c0-0.3,0-0.6-0.3-0.7C110-16.4,110.1-15.9,110.5-15.9z"/>
			<path fill="#720018" d="M106.4-16c-0.2-0.1-0.8-0.7-1.1-0.3C105.7-16.3,106.1-15.7,106.4-16z"/>
			<path fill="#720018" d="M109.3-16.4c0,0.3-0.1,0.8,0.3,0.8C109.8-15.8,109.8-16.5,109.3-16.4z"/>
			<path fill="#720018" d="M108.5-15.2c-0.2-0.6-0.8-0.7-1.4-0.9C107.3-15.6,107.9-15.4,108.5-15.2z"/>
			<path fill="#720018" d="M112.2-13.8c0-0.5,0.1-1.2-0.4-1.3C111.7-14.5,111.8-14,112.2-13.8z"/>
			<path fill="#720018" d="M80.6-14.9c-0.5-0.1-1.5-0.3-1.8,0.1C79.2-14.5,80.1-14.7,80.6-14.9z"/>
			<path fill="#720018" d="M83.3-14.7c-0.3-0.1-1.2-0.3-1.5,0C82.4-14.8,83.1-14.1,83.3-14.7z"/>
			<path fill="#720018" d="M95.1-14.2c0.2-0.5-0.8-0.5-0.8-0.1C94.7-14.4,94.7-14.1,95.1-14.2z"/>
			<path fill="#720018" d="M110-14.5c0,0.4,0.1,0.7,0.3,0.9C110.1-13.8,110.5-14.6,110-14.5z"/>
			<path fill="#720018" d="M63.1-13c-0.2-0.6-0.5-1-1.1-1.3C62.1-13.7,62.5-13.3,63.1-13z"/>
			<path fill="#720018" d="M88.4-14.1c-0.5,0.1-0.9-0.3-1,0.1c0.2,0,0.4,0,0.4,0.1c-0.5,0.1-1.6-0.3-1.5,0.4c0.3,0.1,0.9-0.2,1,0.1
				c-0.6,0.4-1,0.9-1.4,1.6C87.1-11.7,87.8-13.1,88.4-14.1z"/>
			<path fill="#720018" d="M90.7-14.2c-0.2,0.5-0.7,0.7-0.8,1.3C90.4-13,90.9-13.8,90.7-14.2z"/>
			<path fill="#720018" d="M82.6-13.9c-0.3-0.1-1.1-0.3-1.4,0C81.7-13.9,82.4-13.4,82.6-13.9z"/>
			<path fill="#720018" d="M89.5-14.1c-0.2,0.4-1.3,0.6-1,1C89-13.2,89.7-13.7,89.5-14.1z"/>
			<path fill="#720018" d="M92.1-12.9c0.1-0.4,0.4-0.5,0.4-1c-0.9,0-1,0.6-1.4,1C91.7-12.8,91.5-12.8,92.1-12.9z"/>
			<path fill="#720018" d="M94.7-13.8c-0.1-0.1-0.8-0.3-0.8,0C93.9-13.7,94.6-13.5,94.7-13.8z"/>
			<path fill="#720018" d="M106.7-13.7c0.4,0.2,0.6,0.6,1.1,0.7C107.7-13.4,107.1-14,106.7-13.7z"/>
			<path fill="#720018" d="M69-13.7c-0.4,0.2-1,0.1-1.2,0.5C68.2-13.2,68.8-13.3,69-13.7z"/>
			<path fill="#720018" d="M82.4-13c-0.2,0.6,1.4-0.1,0.8,0.5c0.5-0.4,1-0.2,1.6-0.4c-0.3,0-0.5-0.1-0.5-0.3c0.2-0.2,1.4,0,1.1-0.3
				c-0.5,0-1.9-0.3-1.9,0c0.3,0.1,0.8-0.2,0.7,0.3C83-13.1,83.6-12.8,82.4-13z"/>
			<path fill="#720018" d="M81.7-13.4c-0.5,0.1-1.3-0.2-1.5,0.1C80.5-13.2,81.6-12.9,81.7-13.4z"/>
			<path fill="#720018" d="M94-13c-0.3-0.2-1.1-0.2-1.2,0.1C93.1-13,93.8-12.7,94-13z"/>
			<path fill="#720018" d="M106.1-13c0.5,0.1,0.6,0.6,1.2,0.7C107.3-12.8,106.5-13.3,106.1-13z"/>
			<path fill="#720018" d="M80.9-12.8c-0.8,0.2-1.6-0.4-2.1-0.1C79.3-12.8,80.5-12.2,80.9-12.8z"/>
			<path fill="#720018" d="M100.7-12.9c-0.7,0-0.8,0.6-1,1C100.2-12,100.7-12.2,100.7-12.9z"/>
			<path fill="#720018" d="M60.5-12.2c-0.1,0-0.2-0.1,0-0.1c0.2,0,0.4,0,0.4-0.1c-0.1-0.1-1-0.3-1.1,0
				C59.9-12.4,60.2-11.8,60.5-12.2z"/>
			<path fill="#720018" d="M78.7-12.4c-0.2-0.1-0.3-0.1-0.7-0.3C78.3-12.1,79.7-12.1,78.7-12.4z"/>
			<path fill="#720018" d="M77.6-11.7c-0.4,0-0.5-0.4-1.1-0.3C76.5-11.6,77.4-11.5,77.6-11.7z"/>
			<path fill="#720018" d="M89.2-11.5c-0.1,0.5,0.6,0.3,0.8,0.5C90.1-11.4,89.4-11.2,89.2-11.5z"/>
			<path fill="#720018" d="M90.3-9.8c0.9-0.1,1.4-0.6,1.8-1.3C91.5-11.1,90.6-10.4,90.3-9.8z"/>
			<path fill="#720018" d="M89.5-10.5c-0.5,0-1-0.6-1.4-0.3C88.5-10.7,89.1-10.2,89.5-10.5z"/>
			<path fill="#720018" d="M87-9.8c0.8-0.4,1.2,0.2,1.9,0c-0.5-0.1-0.9-0.3-1-0.8c-0.1,0.5-0.8-0.3-0.8,0.1
				C87.6-10.2,86.9-10.1,87-9.8z"/>
			<path fill="#720018" d="M100.4-10.4c0.1,0.6,2,0.5,2.2,0.1C102-10.4,100.9-10.7,100.4-10.4z"/>
			<path fill="#720018" d="M80-10.2c-0.4-0.1-0.7-0.3-1.2-0.3C78.8-10,79.8-9.9,80-10.2z"/>
			<path fill="#720018" d="M86.5-9.9c-0.6,0-0.9,0.3-1.1,0.7C85.9-9.3,86.2-9.6,86.5-9.9z"/>
			<path fill="#720018" d="M79.2-9.6c-0.4,0.1-1.1-0.2-1.2,0.1C78.2-9.5,79.2-9.1,79.2-9.6z"/>
			<path fill="#720018" d="M84.4-9.4C84-8.9,83-9.1,83-8.2C83.7-8.3,84.5-9,84.4-9.4z"/>
			<path fill="#720018" d="M99.2-9c-0.4,0-0.9-0.5-1.2-0.1C98.3-9.1,98.9-8.7,99.2-9z"/>
			<path fill="#720018" d="M78.8-8.8c-0.5,0.1-1.3-0.2-1.5,0.1C77.7-8.7,78.6-8.3,78.8-8.8z"/>
			<path fill="#720018" d="M81-7.5c1-0.1,1.4-0.9,2.1-1.3C82-8.8,81.4-8.2,81-7.5z"/>
			<path fill="#720018" d="M79.6-7.4c0.6-0.3,1.1-0.7,1.4-1.3C80.2-8.6,79.4-8,79.6-7.4z"/>
			<path fill="#720018" d="M91.1-8.7c-0.3,0.3-0.8,0.5-1.2,0.8C90.5-7.5,91.5-8.2,91.1-8.7z"/>
			<polygon fill="#720018" points="100.5,-8 100.5,-8 100.5,-8 			"/>
			<path fill="#720018" d="M99.2-7.5c0.2,0.1,0.3,0.1,0.4,0.3c-0.2,0.2-0.9,0-0.8,0.4c0.1,0,0.2,0,0.2,0c0,0,0,0,0.1,0
				c0,0,0.1,0,0.1,0c0,0,0.1,0,0.1,0c0,0,0.1,0,0.1,0c0,0,0.1,0,0.1,0c0,0,0.1,0,0.1,0c0,0,0.1,0,0.1,0c0,0,0.1,0,0.1,0
				c0,0,0,0,0.1,0c0,0,0,0,0.1,0c0,0,0,0,0.1,0c0,0,0,0,0,0c0,0,0,0,0.1-0.1c0,0,0,0,0,0c0,0,0,0,0.1-0.1c0,0,0,0,0,0
				c0,0,0,0,0.1-0.1c0,0,0,0,0,0c0,0,0-0.1,0.1-0.1c0,0,0,0,0,0c0.1-0.2,0.2-0.3,0.2-0.5c0,0.1,0,0.1-0.1,0c0,0,0,0,0,0c0,0,0,0,0,0
				c0,0,0,0,0,0c0,0,0,0,0,0c0,0,0,0,0,0c0,0,0,0,0,0c0,0,0,0,0,0c0,0,0,0,0,0c0,0,0,0,0,0c0,0,0,0,0,0c0,0,0,0,0,0c0,0,0,0,0,0
				c0,0,0,0,0,0c0,0,0,0,0,0c0,0,0,0,0,0c0,0,0,0,0,0c0,0,0,0,0,0c0,0,0,0,0,0c0,0,0,0,0,0c0,0,0,0,0,0c0,0,0,0,0,0
				C99.9-8.8,99.3-8.1,99.2-7.5z"/>
			<path fill="#720018" d="M59-8.3C59-8,59.2-7.7,59.4-7.5C59.6-7.8,59.5-8.5,59-8.3z"/>
			<path fill="#720018" d="M65.4-7.4c0.2-0.1,0.3-0.4,0.3-0.8C65.1-8.4,64.7-7.4,65.4-7.4z"/>
			<path fill="#720018" d="M87.8-7.9C88.2-8,89-7.8,89.2-8.1C88.9-8.2,87.9-8.4,87.8-7.9z"/>
			<path fill="#720018" d="M87.4-7.4c0.1,0.7,1,0.7,1.5,0.9c0-0.5-0.8-0.3-1-0.7c1.4,0.1,3.3,0.4,3-0.5C90.1-6.7,88.7-7.8,87.4-7.4z
				"/>
			<path fill="#720018" d="M64.3-7.5c-0.2,0.2-0.2,0.8,0.1,0.8C64.6-6.9,64.8-7.7,64.3-7.5z"/>
			<path fill="#720018" d="M63.4-6C64-6.1,64-6.8,63.9-7.3c-0.1,0-0.3,0-0.4,0C63.5-6.8,63.2-6.6,63.4-6z"/>
			<path fill="#720018" d="M87.1-6.4c-0.9,0.3-1.2-0.7-1.6-0.4c0.7,0.8,2.5,1,3.4,0.4C87.6-6,87.3-7.3,86.5-7
				C86.6-6.8,87.4-6.6,87.1-6.4z"/>
			<path fill="#720018" d="M88-4.4c0.5,0.2,1.2,0.1,1.5,0.4c0.7-0.7,1.2-1.7,1.6-2.7C90.4-7,89.7-6.2,89.1-6
				c0.5,0.2,0.9-0.4,1.1-0.1c0,0.5-1.5,0.4-1.1,0.9c0.1-0.2,0.3-0.3,0.7-0.3c-0.1,0.3-0.3,0.6-0.5,0.8C88.8-4.6,88-4.8,88-4.4z"/>
			<path fill="#720018" d="M111.5-5.3c0.2-0.3,0.2-1.4-0.4-1.4C111.2-6.3,111-5.5,111.5-5.3z"/>
			<path fill="#720018" d="M99.2-6.6c-0.5,0.1-1.4-0.2-1.6,0.1C98-6.6,98.9-6.3,99.2-6.6z"/>
			<path fill="#720018" d="M98.8-6.2c-0.6,0.3-1.5,0.3-1.9,0.8C97.7-5.6,98.6-5.2,98.8-6.2z"/>
			<path fill="#720018" d="M97.3-4.5c-0.2,0.1-0.7,0-0.8,0.3c0.6,0.3,1.4-0.3,1.6-0.8c-0.7,0.1-1.5,0-1.8,0.4
				C96.6-4.6,97.2-4.8,97.3-4.5z"/>
			<path fill="#720018" d="M90-3.8c0,0.1-0.1,0.2-0.1,0.3c0.7-0.2,0.8-0.9,1.1-1.4c-0.7,0.1-0.7,0.8-1.2,1C88.6-3.7,89.1-3.5,90-3.8
				z"/>
			<path fill="#720018" d="M118.3-4.7c-0.3-0.1-0.4-0.4-0.7-0.1C117.4-4.4,118.3-4.5,118.3-4.7z"/>
			<path fill="#720018" d="M64.2-4c-0.6-0.4-1,0.4-1.2,0.9C63.5-3.3,64.1-3.4,64.2-4z"/>
			<path fill="#720018" d="M95.5-2.6c0.5,0.1,0.7-0.2,1.1-0.1c0-0.4,0.2-0.7,0.8-0.8c-0.1-0.2,0-0.6-0.4-0.5
				c-0.2,0.2-0.3,0.6-0.8,0.5C96.6-2.8,95.8-2.9,95.5-2.6z"/>
			<path fill="#720018" d="M93.4-3.8c-0.2,0-0.2-0.2-0.4-0.1c-0.3,0.3-0.4,0.7-0.4,1.2C93.1-2.8,93.4-3.2,93.4-3.8z"/>
			<path fill="#720018" d="M91-1.8C90-1.9,90.8-2.3,90.7-3c-0.3,0.1-1.5,0.1-1.2,0.3c0.2,0.1,0.7-0.2,0.7,0.1C90-2.4,90-2.2,90-1.9
				c-0.3,0-0.7,0-0.7,0.3C89.8-1.8,90.7-1.5,91-1.8z"/>
			<path fill="#720018" d="M95.1-1.3c0.6-0.2,1.1-0.5,1.2-1c-0.4,0.1-0.8,0.2-1.2,0.3C95.3-1.6,95.3-1.8,95.1-1.3z"/>
			<path fill="#720018" d="M110.8-2.2c-0.1,0.6-0.3,0.4-0.7,0.7c0,0.3,0,0.5,0,0.8C110.7-0.8,111.4-1.8,110.8-2.2z"/>
			<path fill="#720018" d="M109.6-1.1c0.1-0.4-0.1-1.1-0.4-0.7C109.4-1.7,109.2-1.2,109.6-1.1z"/>
			<path fill="#720018" d="M92.5-0.9c-0.2-0.2-0.7-0.2-0.7,0.1C92-0.6,92.5-0.6,92.5-0.9z"/>
			<path fill="#720018" d="M93.8,0c0.6-0.1,0.9-0.6,1.1-1C94.4-0.8,94-0.5,93.8,0z"/>
			<path fill="#720018" d="M86.3,4.3c1.5-1.7,3.8-3.2,4.6-5.1c-0.6,0.2-1.9,0.8-2.5,1.4c0,0.5,0.6-0.2,0.5,0.1
				c-0.8,0.4-1.5,0.9-2.3,1.2c0.2,0.5,0.8-0.1,1,0.1c-0.7,0.6-2,0.7-3,1c0.4,0,0.7,0.1,0.8,0.3c-0.4,0.1-1.1-0.2-1.2,0.1
				C85,4,86.4,3.4,86.6,3.4C86.5,3.7,86.3,3.9,86.3,4.3z"/>
			<path fill="#720018" d="M91,0.7c0.4,0.1,1-0.2,0.5-0.4C91.6,0.6,90.8,0.2,91,0.7z"/>
			<path fill="#720018" d="M88.4,6.2c0.2,0.1,0.6-0.4,0.7,0c-0.3,1.1-1.6,1.1-2.1,2.1c0.7,0.1,1.1-0.7,1.4-0.5
				c-0.4,0.3-0.4,1-0.4,1.7c1.1-1,1.1-2.5,1.9-3.7c0.5-0.7,1.3-1,1.5-1.8c0.9-1,2.2-1.7,2.5-3.3C91.2,2.3,90.6,4.4,88.4,6.2z"/>
			<path fill="#720018" d="M100,2.8c0-0.3-0.1-0.5-0.3-0.7C99.5,2.3,99.5,2.9,100,2.8z"/>
			<path fill="#720018" d="M86.7,2.2C84.9,2.1,85.4,2.6,86.7,2.2L86.7,2.2z"/>
			<path fill="#720018" d="M98.9,2.4c0,0.4-0.1,0.9,0.4,0.9C99.3,2.9,99.2,2.5,98.9,2.4z"/>
			<path fill="#720018" d="M97.9,2.5c-0.2,0.3-0.1,1.1,0.4,1C98.3,3.1,98.3,2.7,97.9,2.5z"/>
			<path fill="#720018" d="M101.4,3c-0.2,0.2-0.2,0.9,0.3,0.8C101.5,3.6,101.6,3.2,101.4,3z"/>
			<path fill="#720018" d="M97,4.3c0.2-0.2,0.2-0.8-0.1-0.8C96.9,3.8,96.7,4.3,97,4.3z"/>
			<path fill="#720018" d="M96,4.3c0.1,0.5,0,1.2,0.5,1.2C96.4,5.1,96.6,4.4,96,4.3z"/>
			<path fill="#720018" d="M98.2,4.3c0.1,0.3-0.2,0.9,0.3,0.8C98.4,4.9,98.7,4.2,98.2,4.3z"/>
			<path fill="#720018" d="M101.9,4.6c0,0.6,0,1.2,0.4,1.3C102.3,5.4,102.2,4.9,101.9,4.6z"/>
			<path fill="#720018" d="M96.8,4.7c0.1,0.4,0.1,1,0.5,1C97.3,5.3,97.4,4.7,96.8,4.7z"/>
			<path fill="#720018" d="M99.9,5.2c0,0.5,0,1,0.4,1.2C100.3,5.9,100.2,5.4,99.9,5.2z"/>
			<path fill="#720018" d="M64.2,5.6c0,0.5-0.7,1.4,0,1.7C64,6.7,64.5,6.1,64.2,5.6z"/>
			<path fill="#720018" d="M102.2,6.2c0.1,0.3,0.1,0.9,0.4,1C102.6,6.7,102.5,6.3,102.2,6.2z"/>
			<path fill="#720018" d="M59.7,6.4c-0.4,0-0.4,0.2-0.4,0.5C59.6,7,59.7,6.8,59.7,6.4z"/>
			<path fill="#720018" d="M67.6,7.1c0,0.5-0.5,1.1-0.1,1.6C67.5,8.2,67.9,7.4,67.6,7.1z"/>
			<path fill="#720018" d="M99.9,7.1c0,0.3,0,0.7,0.4,0.7C100.3,7.4,100.3,7,99.9,7.1z"/>
			<path fill="#720018" d="M61.4,7.3c0.2,0.5-0.4,1,0,1.3C61.4,8.3,61.8,7.6,61.4,7.3z"/>
			<path fill="#720018" d="M93.6,8c-0.4-0.1-0.7-0.2-0.8,0.1C93,8.3,93.4,8.2,93.6,8z"/>
			<path fill="#720018" d="M93.2,9.2c-0.1-0.4-0.1-0.8-0.5-0.9C92.5,8.3,92.8,9.1,93.2,9.2z"/>
			<path fill="#720018" d="M66.8,8.6c-0.1,0.1-0.3,0.9,0,1C66.8,9.4,67.1,8.8,66.8,8.6z"/>
			<path fill="#720018" d="M66.1,11.1c0.1-0.6,0.4-2.1,0-2.4C65.9,9.3,65.5,10.7,66.1,11.1z"/>
			<path fill="#720018" d="M92.1,8.9c0,0.3,0,0.7,0.4,0.7C92.5,9.2,92.5,8.8,92.1,8.9z"/>
			<path fill="#720018" d="M62.1,11.9c0.1-0.9,0.8-2,0.4-2.9C62.5,10,61.7,10.9,62.1,11.9z"/>
			<path fill="#720018" d="M81.8,9.2c0.2,0.1,0.4,0.8,0.7,0.4C82.3,9.5,82.1,8.8,81.8,9.2z"/>
			<path fill="#720018" d="M98.1,11c-0.1-0.3,0-0.8-0.4-0.8C97.7,10.5,97.7,11,98.1,11z"/>
			<path fill="#720018" d="M92.9,10.3c-0.2,0.2-0.2,0.7,0.3,0.7C93.4,10.8,93.4,10.3,92.9,10.3z"/>
			<path fill="#720018" d="M87.7,10.9c-0.4,0.8-1.1,1.3-1.5,2.1c0.6,0,0.8-0.9,1.1-0.7c0,0.9-0.9,1-0.8,2c0.6,0,0.5-0.8,0.8-1
				c0.1,0.3-0.3,1.1,0.3,1C87.7,13.3,88.3,11.6,87.7,10.9z"/>
			<path fill="#720018" d="M97.5,10.9c-0.2,0-0.4,0-0.5,0.1c0,0.2,0.1,0.3,0.1,0.4C97.5,11.4,97.6,11.2,97.5,10.9z"/>
			<path fill="#720018" d="M102.5,11.4c0,0.4,0,0.7,0.4,0.7C102.8,11.7,102.7,11.5,102.5,11.4z"/>
			<path fill="#720018" d="M97.9,12.7c0-0.3-0.1-0.6-0.4-0.5C97.5,12.5,97.6,12.7,97.9,12.7z"/>
			<path fill="#720018" d="M101.9,12.3c0.2,0.1,0.2,1,0.5,0.5C102.2,12.8,102.2,11.8,101.9,12.3z"/>
			<path fill="#720018" d="M94.1,12.4c-0.3,0.4,0.1,1,0.5,0.7C94.7,12.7,94.5,12.5,94.1,12.4z"/>
			<path fill="#720018" d="M101.5,12.8c0.2,0.3-0.1,1.1,0.4,1.2C101.9,13.4,102,12.9,101.5,12.8z"/>
			<path fill="#720018" d="M101.2,13.7c0,0.7,0.1,1.3,0.5,1.6C101.8,14.6,101.6,14,101.2,13.7z"/>
			<path fill="#720018" d="M97.5,14.1c0.1,0.4-0.2,1.1,0.3,1.2c0.2-0.3-0.3-0.6,0-0.7c0.3,0,0.5,0.7,0.7,0.3
				C98.2,14.7,98.1,14.2,97.5,14.1z"/>
			<path fill="#720018" d="M63.4,14.4c-0.1,0.3-0.4,1.5,0.1,1.6C63.4,15.5,63.7,14.7,63.4,14.4z"/>
			<path fill="#720018" d="M69.2,15.7c-0.1-0.4,0.3-1.3-0.3-1.3C69.1,14.8,68.7,15.7,69.2,15.7z"/>
			<path fill="#720018" d="M93.4,14.4c-0.2,0.2,0,0.5,0.3,0.7C93.6,14.8,93.9,14.3,93.4,14.4z"/>
			<path fill="#720018" d="M88.1,14.6c-0.3,0.3-0.1,0.9,0.3,1C88.7,15.4,88.5,14.7,88.1,14.6z"/>
			<path fill="#720018" d="M67.7,15.8c0.2,0.8,0.6,1.5,1.1,2C68.5,17.1,68.3,16.3,67.7,15.8z"/>
			<path fill="#720018" d="M87.7,16.2c-0.1,0.8,0.5,1,1,1.3C88.6,16.8,88.4,16.3,87.7,16.2z"/>
			<path fill="#720018" d="M99,16.3c0.4,0.4,0.8,0.9,1.5,1C100.2,16.9,99.6,16.6,99,16.3z"/>
			<path fill="#720018" d="M86.9,18.2c-0.1,0.3,0.2,0.9-0.1,0.9c-0.6-0.6-0.5-1.9-1.2-2.3c0,1.3-0.5,1.4-0.4,3c0.6,0,0.2-0.9,0.7-1
				c0.3,0.2-0.4,1.3,0.3,1.4c0-0.3,0.1-0.6,0.3-0.8c0.4,0.4,0.8,0.8,0.7,1.7C87.4,20.6,87.9,18.3,86.9,18.2z"/>
			<path fill="#720018" d="M70.3,16.9c-0.1,0.8,0.1,1.4,0.4,1.8C70.6,18.1,70.8,17.1,70.3,16.9z"/>
			<path fill="#720018" d="M99.2,17.8c0.1-0.4-0.4-0.8-0.5-0.5C98.9,17.4,98.9,17.7,99.2,17.8z"/>
			<path fill="#720018" d="M77.3,18.7c-0.2-0.7-0.8-0.9-1.4-1.3C76.2,18,76.8,18.3,77.3,18.7z"/>
			<path fill="#720018" d="M97.8,17.4c0,0.4,0.3,0.6,0.7,0.7C98.4,17.7,98.2,17.4,97.8,17.4z"/>
			<path fill="#720018" d="M72.9,20.4c-0.7-0.7-1-1.8-1.5-2.6C71.2,19,72.3,20,72.9,20.4z"/>
			<path fill="#720018" d="M88.2,17.8c-0.2,0.5,0.1,1.3,0.7,1.4c0.3-0.5-0.1-1-0.3-1.4C88.5,17.8,88.4,17.8,88.2,17.8z"/>
			<path fill="#720018" d="M79.1,19.2c-0.9-0.2-1.1-1-1.9-1.3C77.4,18.6,78.5,19.7,79.1,19.2z"/>
			<path fill="#720018" d="M78.4,18.3c0.6,0.2,0.9,1.3,1.6,0.9C79.4,19.1,79,18,78.4,18.3z"/>
			<path fill="#720018" d="M80,18.7c0.3,0.1,0.5,0.4,0.8,0.5C80.9,18.8,80.2,18.4,80,18.7z"/>
			<path fill="#720018" d="M73.6,20.4c-0.2-0.6-1.2-1.7-1.5-1.3C72.7,19.4,73,20,73.6,20.4z"/>
			<path fill="#720018" d="M75.2,19.9c-0.4-0.2-0.5-0.9-1.1-0.9C74.3,19.4,74.9,20.1,75.2,19.9z"/>
			<path fill="#720018" d="M100.8,19.3c0.2,0.2,0.7,0,0.8-0.3C101.2,19.1,100.9,19.1,100.8,19.3z"/>
			<path fill="#720018" d="M92.2,20.7c0.1-0.4-0.1-0.6-0.5-0.5C91.7,20.5,91.9,20.6,92.2,20.7z"/>
			<path fill="#720018" d="M90,22.4c0.1-0.4,0.4-1.6-0.1-1.8C89.5,20.7,89.4,22.3,90,22.4z"/>
			<path fill="#720018" d="M72.8,21.3c0.3,0.6,0.6,1.3,1.1,1.8C73.8,22.2,73.6,21.5,72.8,21.3z"/>
			<path fill="#720018" d="M70.3,23c0-0.6-0.1-1.1-0.4-1.4C70,22.1,70.1,22.7,70.3,23z"/>
			<path fill="#720018" d="M93.8,23.3c-0.3-0.5,0.1-1.6-0.8-1.7c-0.1,0.5,0.5,0.9,0.1,1.2c0-0.3,0-0.7-0.4-0.7
				C92.8,22.7,93.6,23.3,93.8,23.3z"/>
			<path fill="#720018" d="M91.5,23.4c0-0.7-0.3-1.1-0.4-1.7c-0.1,0-0.3,0-0.4,0C90.5,22.3,90.7,23.4,91.5,23.4z"/>
			<path fill="#720018" d="M71.3,23.5c0-0.7-0.2-1.2-0.5-1.6C70.8,22.6,71,23.1,71.3,23.5z"/>
			<path fill="#720018" d="M86.2,23.1c0.1-0.1,0.2-1.1-0.4-1C85.8,22.6,85.8,23,86.2,23.1z"/>
			<path fill="#720018" d="M86.6,22.5c0,0.6,0,1,0.4,1.2C87,23.2,87.1,22.5,86.6,22.5z"/>
			<path fill="#720018" d="M50.6,24.3c0.3-0.5,0.8-0.6,0.8-1.3C50.9,23.1,50.4,23.9,50.6,24.3z"/>
			<path fill="#720018" d="M87.6,23.1c0,0.8,0.2,1.4,0.5,1.8C88.1,24.1,88.1,23.4,87.6,23.1z"/>
			<path fill="#720018" d="M94.1,23.1c0.1,0.4,0.3,0.7,0.5,0.9C94.7,23.6,94.4,23.3,94.1,23.1z"/>
			<path fill="#720018" d="M97.9,24.8c0.1-0.2-0.4-0.4,0-0.5c-0.1,0.3,0.5,0.6,0.5,0.3c-0.4-0.7-0.8-0.7-1.5-1.2
				C97.3,23.9,97.2,24.7,97.9,24.8z"/>
			<path fill="#720018" d="M97.3,24.8c-0.1-0.6-0.2-1.2-0.8-1.3C96.6,24,96.6,24.7,97.3,24.8z"/>
			<path fill="#720018" d="M78.1,23.9c0.3,0.7,0.5,1.4,1.1,1.8C78.9,25.1,78.8,24.2,78.1,23.9z"/>
			<path fill="#720018" d="M88.4,23.9c-0.2,0.5,0.2,1.4,0.5,1.7C89,24.8,88.8,24.2,88.4,23.9z"/>
			<path fill="#720018" d="M80.2,26c0.2-0.7-0.3-1.4-0.7-2C79.5,24.9,79.4,25.4,80.2,26z"/>
			<path fill="#720018" d="M81.4,26.3c-0.2-0.5-0.3-1.1-0.8-1.3C80.7,25.6,81,26,81.4,26.3z"/>
			<path fill="#720018" d="M72.8,25.9c0.5,0.7,0.6,1.8,1.1,2.5C73.8,27.2,73.6,26.2,72.8,25.9z"/>
			<path fill="#720018" d="M80.9,26.7c0.4,0.1,0.5,0.5,0.8,0.7C81.6,27,81.1,26.4,80.9,26.7z"/>
			<path fill="#720018" d="M89.6,28.5c-0.1-0.5,0.3-1.5-0.3-1.6C89.4,27.4,89.1,28.4,89.6,28.5z"/>
			<path fill="#720018" d="M92.3,27.7c0.2,0.5,0.2,1,0.5,1.3C92.9,28.4,93,27.7,92.3,27.7z"/>
			<path fill="#720018" d="M94.7,28.8c0-0.5,0-1-0.4-1C94.3,28.1,94.3,28.6,94.7,28.8z"/>
			<path fill="#720018" d="M90.4,29c-0.1-0.3-0.1-0.8-0.3-1C90.3,28.3,89.9,29.1,90.4,29z"/>
			<path fill="#720018" d="M94,28.9c0-0.5-0.1-0.8-0.4-0.9C93.8,28.2,93.5,28.9,94,28.9z"/>
			<path fill="#720018" d="M85.9,28.9c0,0.6,0.3,0.8,0.7,1C86.4,29.5,86.3,29.1,85.9,28.9z"/>
			<path fill="#720018" d="M87.7,31c0.3-0.5,0.7-1,0.8-1.7C87.7,29.3,87.1,30.5,87.7,31z"/>
			<path fill="#720018" d="M79.3,32.8c0.1,0.7,0.1,1.4,0.7,1.6C79.9,33.7,79.9,33,79.3,32.8z"/>
			<path fill="#720018" d="M82.2,35.3C82,34.8,82,34.2,81.5,34C81.6,34.5,81.8,35,82.2,35.3z"/>
			<path fill="#720018" d="M83.3,34.2c0.3,0.9,0.6,1.8,1.2,2.4C84.3,35.7,84.1,34.7,83.3,34.2z"/>
			<path fill="#720018" d="M51.7,37.4c0.3-0.5,0.5-1.1,0.5-1.8C51.5,35.5,51.1,37,51.7,37.4z"/>
			<path fill="#720018" d="M53.8,35.5c-0.2,0.3-0.2,1.2,0,1.4C54.4,37,54.3,35.6,53.8,35.5z"/>
			<path fill="#720018" d="M52.7,35.8c-0.2,0.3-0.4,0.8-0.1,1.2c0.5,0,0.6-0.5,0.5-1C52.9,35.9,52.9,35.8,52.7,35.8z"/>
			<path fill="#720018" d="M95.8,35.9c-0.1,0.6-0.7,1.2-0.4,1.7C95.6,37.2,96.1,36.4,95.8,35.9z"/>
			<path fill="#720018" d="M95.1,36.1c-0.1,0.6-0.5,1-0.5,1.6C95.1,37.5,95.4,36.5,95.1,36.1z"/>
			<path fill="#720018" d="M59.4,36.8c-0.1,0.5,0.4,1.5,1.1,1.7C60.2,37.9,60.1,37,59.4,36.8z"/>
			<path fill="#720018" d="M60.5,37.6c0.1,0.4,0.2,0.8,0.8,0.8C61.2,38,60.9,37.4,60.5,37.6z"/>
			<path fill="#720018" d="M50.7,38.1c0.1,0.1,0.3,0.1,0.4,0.2c-0.1-0.2-0.2-0.4-0.3-0.5C50.7,37.9,50.7,38,50.7,38.1z"/>
			<path fill="#720018" d="M93.8,44.8c0.2-2.3,1.1-4.7,1.1-6.7C94.4,40,93.2,42.6,93.8,44.8z"/>
			<path fill="#720018" d="M90.2,38.5c-0.1,0.7-0.5,1.1-0.4,2C90.1,40.2,90.4,39.1,90.2,38.5z"/>
			<path fill="#720018" d="M104.8,41.4c-0.3-1-0.8-1.9-1.4-2.6C103.7,39.8,104,40.8,104.8,41.4z"/>
			<path fill="#720018" d="M85.6,42.6c0-1.3,0.4-2.8-0.4-3.5C85.4,40.3,85,42,85.6,42.6z"/>
			<path fill="#720018" d="M63.1,39.6c0.3,0.1,0.4,0.4,0.7,0.5C63.8,39.8,63.4,39.2,63.1,39.6z"/>
			<path fill="#720018" d="M89.3,39.5c-0.2,0.6-0.8,1.5-0.4,2.2C89.1,41,89.5,40,89.3,39.5z"/>
			<path fill="#720018" d="M66.5,44.5c0.4,0.2,0.6,0.7,1.1,0.9C67.5,45,67,44.2,66.5,44.5z"/>
			<path fill="#720018" d="M68,44.7c0.8,0.1,1.1,1.4,1.8,1.2C69.1,45.6,68.9,44.3,68,44.7z"/>
			<path fill="#720018" d="M69.4,44.9c0.3,0.6,0.7,1,1.4,1.3C70.4,45.6,70.2,45,69.4,44.9z"/>
			<path fill="#720018" d="M86.3,45.6c-0.1,0.4-0.5,1.1-0.1,1.6C86.1,46.6,86.7,46,86.3,45.6z"/>
			<path fill="#720018" d="M93.8,45.7c0.1,0.6,0.3,1.1,0.7,1.4C94.4,46.5,94.3,46,93.8,45.7z"/>
			<path fill="#720018" d="M94.7,45.7c0.2,0.3,0.1,0.9,0.5,0.9C95.2,46.1,95,45.9,94.7,45.7z"/>
			<path fill="#720018" d="M85.5,46.4c-0.1,0.5-0.4,0.7-0.3,1.3C85.6,47.6,85.7,46.6,85.5,46.4z"/>
			<path fill="#720018" d="M84.7,47.9c0-0.3,0.1-1.5-0.1-1.2C84.6,47.1,84.4,48.3,84.7,47.9z"/>
			<path fill="#720018" d="M72.1,47.9c0.4,0.3,0.4,1,0.8,1.2C72.8,48.6,72.6,47.6,72.1,47.9z"/>
			<path fill="#720018" d="M77.4,52.9c0.1,0.5-0.4,0.8,0.1,0.9C77.8,53.6,77.7,53,77.4,52.9z"/>
			<path fill="#720018" d="M110.4,41c0.1,0,0.1-0.1,0.2-0.1c0,0,0,0,0-0.1c0,0-0.2-0.1-0.3-0.2C110.3,40.7,110.3,40.9,110.4,41z"/>
			<path fill="#720018" d="M118.7-19.9c-0.9-0.6-2-1.3-2.7-1.6c-1.4-0.5-2.6,0.2-3.7,0.3c-1.3,0.1-2.7-0.2-4.4,0
				c-3.6,0.4-8,2.1-9.8-0.4c-1.6,0.1-2.4-1.9-4-0.9c0.1,0,0.3,0.1,0.1,0.1c-1.3,0-1.9-0.6-3.3-0.5c0,0.3,0.2,0.3,0.3,0.4
				c-1.1-0.2-3.4,0.1-4.6,0.5c0.3,0,0.5,0.1,0.5,0.3c-0.7,0.6-2.1,0.6-3.4,0.5c-0.2,0.5,0.4,0.3,0.4,0.5c-1,0.4-2-0.1-3-0.1
				c-0.3,0.6,0.5,0.2,0.4,0.7c-1.1,0.2-2.1-0.3-2.7-0.1c-0.1,0.4,0.8,0.4,0.4,0.7c-0.9,0-2.2-0.3-2.9-0.1c-0.2,0.4,0.7,0.3,0.3,0.5
				c-0.8,0.1-1.8-0.1-2.3,0.1c-0.2,0.5,0.4,0.3,0.3,0.7c-0.8,0.3-2,0-2.6,0.1c0,0.7,1,0.4,1.4,0.8c-0.9,0.2-1.8,0.1-2.5,0.3
				c0,0.5,0.9,0.2,1.1,0.5c-0.6,0.2-1.2,0.5-2.2,0.4c-0.2,0.4,0.2,0.3,0.3,0.5c-0.8,0.2-1.3-0.4-1.8-0.1c0,0.6,0.6,0.5,0.8,0.8
				c-1.2,0.3-1.3-0.9-2.1-0.7c-0.4,0.6,1,1,0.8,1.3c-1-0.2-1-1.2-2.1-1.3c-0.4,0.4,0.8,1,0.5,1.3c-1-0.5-1.3-1.7-2.3-2.2
				c-0.4,0.6,0.8,1.2,0.5,1.6c-0.5-0.3-0.9-0.8-1.1-1.4c-0.6-0.2-0.2,0.6-0.5,0.7c-0.6-0.7-1.4-0.2-2.1-0.8c0,0.7-0.2,0.1-0.5,0.1
				c-0.8,0.6-0.8,2-2.1,2.2c0,0.4,0.5,0.6,0.1,0.9c-0.3-0.1-0.2-0.4-0.7-0.3c0,0.5,0.6,0.4,0.5,0.9c-0.7,0.4-0.2,1.7-1.1,2.1
				c0.3,0.5,0,0.9-0.4,1c0.5,0.3,0.4,1.4,0.1,2c0.3,0.1,0.6,0,0.5,0.4c-0.3,0-0.7,0-0.7,0.3c0.3,0.4,1-0.3,1.1,0.3
				c-0.1,0.5-1,0.1-0.8,0.8c0.5,0.1,1.2-0.6,1.4,0c0.1,0.5-0.9,0-0.8,0.5c1-0.1,1.8,0.3,1.5,1c0.3-0.1,0.6-0.2,0.8,0.1
				c-0.6,0.8-1.9,0.9-2.5,1.7c0.5,0.5,1.1,0.1,1.6-0.1c-0.2,0.4-0.7,0.4-0.8,0.8c0.3,0.2,0.5-0.3,0.5,0c-0.5,0.7-1.6,0.8-2.1,1.6
				C57.4,0,58.1-1,58.4-0.8c-0.4,0.7-0.7,1.4-0.8,2.1c-0.4,1-0.2,2.8-1.4,4c0.3,0.2,0.5-0.3,0.5,0c-0.2,0.5-1.8,0.8-1,1.4
				c-0.5,0.7-1.1,1.2-1.6,1.8c0.1,0.2,0.5,0,0.5,0.3c0,0.8-1.6,1.2-1,1.7c0.1-0.1,0.7-0.6,0.8-0.3c-0.4,1.3-1.7,1.8-2.5,2.7
				c0.2,0,0.5,0,0.5,0.1c-0.4,0.6-1.2,0.9-1.5,1.7c0.4,0.4,1-0.6,1.2-0.4c-0.4,1.4-2.1,1.5-2.7,2.6c0.6,0.4,1.3-0.8,1.8-0.5
				c-0.9,1.7-2.6,2.7-2.9,5c0.4,0.2,0.5-0.6,0.7-0.3c-0.7,0.3-0.7,2-0.8,2.5c0-0.2,0.7-0.5,0.7-0.3c-0.1,0.8-0.9,1.6-0.8,2.1
				c0.2-0.1,0.5-0.8,0.5-0.5c-0.3,0.9-0.8,1.5-1.2,2.2c0.5,0.1,0.7-0.8,1-0.5c-0.1,1.1-1,1.4-1.2,2.3c0.6,0.1,0.7-1.1,1.1-0.8
				c-0.2,0.7-0.5,1.2-0.8,1.7c0.2,0,0.4,0,0.4,0.1c-1,0.7-1,1.7-1.9,2.5c0.9,0.5,1-0.8,1.8-0.9c-0.2,0.9-0.4,1.5,0,2.2
				c-0.1,0.6-1,1.2-0.5,1.8c0.5-0.3,0.5-1.1,1-1.6c-0.1,1.1-0.7,1.8-1.2,2.5c0.2,0.1,0.5,0.2,0.7,0.3c0.8,0.3,1.5,0.5,2.2,0.8
				c0-0.5,0.1-1,0.4-1.2c0.4,0-0.1,0.9,0.3,0.9c0.5-0.5,0.9-1.8,0.7-2.6c-0.5,0.2-0.6,0.7-0.7,1.2c-0.3-0.1,0.5-1.4,0.4-2.1
				c-0.1-0.6-0.5,0.2-0.5-0.1c0-0.7,0.5-1,0.4-1.7c-1.1,0.3-0.9,1.9-1.4,2.7c-0.4-1.5,0.6-2.8,0.8-4.2c-0.9,0.2-0.7,1.3-1.1,2
				c-0.2-1.4,1.1-2.5,1.2-3.9c-0.8,0.2-0.8,1.2-1.1,2c-0.5-1,0.7-1.5,0.5-2.6c-0.4,0-0.4,0.3-0.4,0.5c-0.3-0.5,0.3-1.1,0.5-1.6
				c-0.4-0.2-0.1,0.4-0.5,0.3c0-0.4,0.2-0.7,0.1-1.2c0.6,0.4,0.8-0.6,1-1c-0.5,0-0.5,0.4-0.7,0.7c-0.4-1.7,0.9-3,1.6-4
				c0-0.3-0.5,0-0.4,0.1c-0.2-0.6,1-1,1-1.8c-0.7,0-0.8,0.5-1.1,0.9c-0.2-0.9,1.2-1.4,1.4-2.3c0-0.2-0.3-0.1-0.3,0
				c-0.3-0.3,0.7-0.4,0.7-0.8c-0.2-0.4-0.5,0.1-0.8,0c0.2-0.9,1.4-0.9,1.9-1.6c-0.4-0.3-1,0.3-1.2,0.7c0.7-2.2,1.8-4.8,3.3-7
				c0.7-1.1,2-2.2,2.2-3.3c0.1-0.4-0.5-0.6,0-0.9c-0.2,0-0.3,0.2-0.5,0.1c1-3.1,1.1-7.1,3-9.4c0.6,0.1-0.4,0.5-0.4,0.8
				c0.6,0.1,0.6-0.4,0.8-0.7c0.3,0.5-0.6,1-1.1,1.2c0.1,0.4,0.2,0.1,0.5,0.1c-0.1,0.3-0.5,0.5-0.5,0.9c0.5,0,0.4-0.5,0.7-0.7
				c0.4,0.5-0.4,0.8-0.5,1.2c0.3,0.2,0.4-0.5,0.5-0.1c0,1-0.6,1-0.7,1.8c0.1,0.2,0.6-0.2,0.5-0.5c0.4,0.6-0.5,1.2-0.7,1.7
				c1.5-0.5,1.4-3.3,2.6-4.7c-0.1-0.4-0.6,0.5-0.7,0.1c0.2-1.1,1-1.5,1.2-2.5c-0.4-0.5-0.6,0.3-1.1,0.1c0.1-0.7,1.1-0.4,1.1-1.2
				c0-0.1-0.1-0.1-0.1-0.3c-1.1,0-1.2,1-2.3,1c-0.3-0.2,0-0.3,0-0.7c-0.4-0.1-0.3,0.4-0.7,0.3c-0.2-0.2-0.2-0.5,0-0.7
				c-0.1-0.4-0.5,0.2-0.7-0.1c-0.1-0.4-0.1-0.4,0-0.8c-0.8-0.2-1.5-1.6-1.2-2.9c0.2,0,0.3,0.2,0.5,0.1c-0.1-0.2-0.2-0.3-0.4-0.3
				c1-2,0.6-5.4,3.7-5.5c0.2,0.2,0.4,0.3,0.4,0.7c1.4,0,3,0.8,4.5,1.4c1.2,0,1.2-0.8,2.5-0.5c-0.1-0.4-0.3-0.1-0.7-0.1
				c0.3-0.6,1.4-0.5,2.3-0.5c0.5-0.1,0.4-0.7,1.1-0.5c0.1-0.5-0.5-0.2-0.8-0.3c1-1,3.1-1.1,4.4-1.8c-0.1-0.4-0.3,0.1-0.5,0
				c2.7-1.8,6.8-2.1,10.5-2.9c-0.6,0.6,1,0.5,1.8,0.7c0-0.2,0.4-0.4,0.5-0.8c0-0.4-0.8-0.1-1-0.4c0.4-0.4,1.1-0.5,1.6-0.8
				c0.5,1.1,2.2,1.1,3.4,1.6c-0.6,0.3-2.4-0.5-3.7-0.4c-0.3,0.2,0.1,0.5-0.4,0.5c1.3,0.7,2.5-0.2,3.6,0.3c0.1,0.4-0.3,0.3-0.4,0.4
				c0.6,0.3,1.5,0.5,2.1,0.9c-0.8,0.2-1.6-0.8-2.7-0.7c0.1,0.2,0.3,0.2,0.5,0.3c-0.4,0.3-1.1-0.1-1.6-0.1c-0.5,0.3,0.6,0.1,0.4,0.5
				c-0.1,0.1-0.5,0-0.4,0.4c-0.5,0.1-0.8-0.1-1.1-0.1c0.2,0.1,0.2,0.4,0.5,0.4c-0.8,0.7-1.7-1-2.7-0.5c0-0.1,0-0.3,0-0.4
				c-0.7-0.1-1,0.2-1.6,0.1c0.5-0.9,2.2,0,2.9-0.3c-0.1-0.3-0.5-0.3-1-0.3c0.1-0.1,0.1-0.3,0.1-0.5c-1.2-0.1-2.5-0.1-3.7,0.1
				c0.1,0.3,0.9,0,1.2,0.1c-0.1,0.2-0.4,0.1-0.3,0.5c-0.6,0.1-1.5-0.1-1.9,0.1c0.4,0.3,1.4,0,2.1,0.1c0,0.1-0.2,0.1-0.3,0.1
				c1.4,0.4,2.9,0.6,4.4,0.9c-0.2,0.3,0,0.2,0,0.5c-0.5-0.1-0.8,0.1-1.1,0.1c0.1,0.1,0.1,0.2,0.3,0.3c-1.1,1.2-3.5-0.2-5.5,0.5
				c0.5,0.4,2.1-0.2,2.5,0.4c-0.1,0.4-0.3-0.2-0.7,0c-0.1,0.5,0.6,0.1,0.7,0.4c0.1-0.3,1.1-0.7,1.2-0.1c-0.1,0.8-1.1,0.1-1.8,0.3
				c0.6,0.4,1.5,0.5,2.3,0.7c-0.4,0.5-1-0.1-1.9,0.1c0.7,0.2,1.2,0.5,2.1,0.4c0.7-1,1.8-0.9,3.4-1.2c0,0.3-0.5,0.2-0.7,0.4
				c0.7,0.5,1.2-0.3,1.6-0.5c0.2,0.2-0.8,0.4-0.1,0.8c0.4-0.4,0.7-1,1.8-0.8c-0.2,0.6-0.8,1-1.1,1.6c0.7-0.2,1.4-1.3,2.5-1.2
				c3-2.5,6.5-4.6,11.3-5.4c0.1,0.6,0.9,0.6,1.1,1.2c-0.4,0.2-0.9,0.1-1.5,0.1c0.3,0.9,1.2,0.8,1.8,0.5c0.1,0.5-0.7,0.1-0.5,0.7
				c0.7,0.6,1.3-0.5,2.2,0.1c0.1-0.4-0.3-0.2-0.5-0.3c0.3-0.5,0.9-0.6,1.5-0.3c0.5-0.2-0.5-0.2-0.3-0.5c0.5-0.1,0.8-0.2,1.2,0
				c-0.8,0.7,1.3,0.6,1.4,1.4c0.4,0.1,0.2-0.4,0.4-0.5c-0.1,0.6,0.7,1,0.7,1.8c0.3-0.1,0.1-0.7,0.1-1c0.4,0.2,0.2,1.1,0.7,1.2
				c0.3-0.4-0.7-1.1,0-1.6c-0.1-0.1-0.7-0.4-0.8-0.1c0-0.8-0.7-0.5-0.8-1c0.4,0.3,0.9,0,0.5-0.4c0.1,0,0.4,0.4,0.1,0.4
				c0,0.3,0.5,0.1,0.7,0.1c0.6,1.7,2.6,0.7,4.1,0.5c0.2,0,0.2-0.2,0.4-0.3c0.1-0.4-0.1-0.6-0.1-0.9c0.5,0.1,1,0.3,0.8,1
				c-1.5,0.3-2.6,1-4,1.4c-0.5,0.6,0.1,2.1,0.4,2.7c0.3,0,0.1-0.6,0.1-0.8c0.3,0.4,0.3,1,1,1c-0.1,0.4-0.5,0.4-0.8,0.5
				c-0.1,0.6,0.4,2.1-0.1,1.2c-0.1-0.6,0.1-1.3-0.1-1.7c-0.4,0-0.2,0.6-0.3,1c-0.3-0.1-0.2-0.6-0.4-0.8c-0.3,0-0.5,0-0.5,0.3
				c-0.4-0.1,0.2-0.4,0-0.8c0.2,0,0.3,0.2,0.5,0.1c0.1-0.8-0.1-1.3-0.3-1.8c-0.6,0.1,0,0.6-0.1,1c-0.2,0.3-0.1-0.8-0.5-0.7
				c-0.3,0.3,0.1,0.9,0.3,1.2c-0.1,0.4-0.6,0.3-0.5,0.8c-0.3-0.2-0.1-0.7-0.5-0.8c-0.3,0.3-0.1,1.2,0.1,1.4c-0.6,0.4-0.4-1.1-1-1.2
				c-0.5,0.2,0.3,1,0,1c-0.6,0-0.2-0.9-0.7-0.9c-0.4,0.4,0.2,0.9,0.1,1.4c-0.7-0.1-0.6-1.1-1-1.6c-0.5,0.4,0.5,1,0,1.4
				c-0.7-0.6-0.7-2-1.4-2.2c0-0.6,0.3,0,0.7-0.1c-0.1-0.5-0.7-0.4-1-0.7c-0.1,0.2,0.2,0.4-0.1,0.8c-0.3,0-0.2-0.4-0.5-0.3
				c0.5,0.8,1.6,1,1.8,2.1c-0.8,0.2-2.3,0.5-2.9-0.4c-0.4,0.1,0.1,0.5,0.3,0.5c-0.3,0.4-0.6-0.2-0.8-0.3c-0.4,0.2,0.4,0.3,0.1,0.8
				c-0.6,0.1-1.6-0.2-1.8,0.3c1.3,0.8,2.2-0.2,3.4-0.3c-0.9,0.4-1.8,0.8-2.9,1c0.1-0.1,0.1-0.2,0.1-0.4c-0.8,0.4-1.7-0.2-2.3,0
				c0.1,0.6,0.8,0.5,1.4,0.7c-0.9,0.4-1.8,0.8-2.5,1.4c0.8,0.5,1.3-0.3,1.9-0.5c1.7-0.6,3.7-0.9,5.5-1.4c0.3-0.1,0.6-0.4,1-0.5
				c0.9-0.2,1.9,0,2.6-0.3c0.2-0.3,0-0.5,0.3-0.8c0.2,0.6,0.6,1,0.7,1.7c0.2,0,0.1-0.3,0.1-0.5c1.3-0.1,1.5,0.9,1.9,1.6
				c0.7-0.4,0.4,0.5,1.1,0.1c0.2,0.3,0.2,0.8,0.4,1c0.5-1.1,0.9,2.2,1.6,2.5c0,0.2-0.4,0-0.4,0.3c0,0.2,0.3,0.1,0.5,0.1
				c0.4,0.7,0.3,1.9-0.3,2.4c-0.1-0.1-0.3-0.1-0.5-0.1c0.3-0.2,0.7-0.3,0.8-0.7c0-0.2-0.4,0-0.4-0.3c-0.3,0.2-0.1,0.7-0.8,0.8
				c-0.1,0.4,0.3,0.4,0.5,0.5c-0.5,0-0.6,0.1-1,0.5c0.5-1.2,0.4-3.4,0.3-4.4c-0.9-0.8-1.6-1.8-2.6-2.5c0-0.2,0.1-0.2,0.1-0.4
				c-0.2,0.1-1.1-0.1-1.4-0.7c-2.6-0.6-4.7,0.3-7,0.8c-4.2,1-5.3,3.7-7.7,6.9c-0.5,0.7-1.2,1.4-1.9,2.3c-0.5,0.7-1.2,2.3-2.3,2.5
				c0,0.2,0.2,0.1,0.4,0.1c-0.1,0.4-0.5,0.4-0.8,0.5C94.3,2.8,94,3.1,93.4,3c0.6,0.8-1.2,0.8-1,1.6c-0.4,0.1-0.3,0-0.8,0
				c-0.1,0.3,0.2,0.2,0.4,0.3C90.6,6,90.2,8,89.5,10.3c-0.4,1.4-1.1,2.2-0.8,3.7c0.2,1.1,2.5,3.8,3.3,4.7c0.3,0.3,0.5,0.6,1,0.8
				c0.1,0.4,0.1,0.3,0,0.7c0.4,1.1,2,1.3,2.7,2.1c2.3,0.3,3.5-0.3,5.3-0.7c-0.4,0.9-0.8,1.8-1.9,2.1c0,0.2,0.1,0.4,0.3,0.5
				c-0.2,0.3-0.4-0.6-0.8-0.5c-0.2,0.3,0.3,0.7,0.5,0.9c0.6-0.1,0.6-0.1,1.2-0.3c-0.6,0.8-2.3,1-3.6,0.7c-0.2-0.7-0.3-1.3-0.8-1.7
				c-0.3,0.3,0.2,1,0.4,1.3c-0.8,0.5-0.9-0.8-1.2-1.2c-0.3,0.3,0.2,0.8-0.3,1c-0.6-0.4-1.2-1.2-1.9-0.7c-0.3-0.2-0.2-0.8-0.8-0.8
				c-0.6,0.5,0.5,1.5,0.4,2.3c-0.9-0.1-0.4-1.5-1-1.8c-0.6,0.3,0.2,0.9,0,1.6c-0.2-0.2-0.2-0.5-0.4-0.7c-0.7,0.6-1.4-0.4-1.8-0.9
				c-0.9,0.5,0.2,1.5,0.3,2.3c0.5-1,0.4,0.3,1.1,0.1c0,0.4-0.2,0.8-0.1,1.3c0.4,0,0.2-0.6,0.4-0.8c0.4,0,0.2,0.5,0.4,0.7
				c0.5-0.2-0.4-0.9,0.1-1c0.5,0.1,0.4,0.8,0.7,1c0.6,0-0.2-0.6,0.3-0.8c0.7,0.1,0.5,1,1,1.3c0.4-0.2-0.1-0.7,0-1
				c0.6,0,0.4,0.8,1,0.9c0.4-0.1-0.2-0.4,0-0.8c0.5,0,0.5,0.5,0.8,0.8c0.3,0,0.1-0.5,0.1-0.7c0.5,0,0.4,0.5,0.7,0.7
				c0.5-0.1,0.1-0.4,0.1-0.8c0.4,0.1,0.8,0.9,0.4,1.3c-0.4,0.4-0.1-0.6-0.7-0.4c-0.4,1-0.2,2.6-1.5,2.7c0.2-0.5,0.6-0.7,0.5-1.4
				c-0.6,0.5-0.7,1.4-1.2,2c-0.2-0.2,0.4-0.8,0.4-1.3c-0.6,0.2-0.4,1.2-1.1,1.3c0.1-0.3,0.2-0.8,0.1-1.3c-0.5,0.5-0.2,1.7-1,2
				c-0.3-0.1,0.2-0.6,0-1c-0.1,0.5-0.5,0.6-0.8,0.9c0-0.7,0.3-2.2-0.4-2.9c-0.3,0.4,0.2,1,0,1.7c-0.3,0.2-0.3,0-0.7,0
				c0,0.4,0.1,1.1-0.1,1.3c-0.1-0.3-0.5-0.7-0.3-0.9c-0.5,0.3-0.5,0.4-1,0c-0.2,0.3,0.2,0.9-0.3,1.2c-0.5,0-0.1-0.8-0.5-0.8
				c-0.4,0.5,0.4,1.4-0.3,1.7c-0.5-0.3-0.4-1-0.7-1.4c-0.7,0.1,0.5,2.3-0.3,1.3c0-0.7-0.2-1.3-0.5-1.7c-0.4,0.2,0.3,0.6,0.1,1
				c-0.3-0.1-0.3,0.2-0.1,0.3c-0.9,0-0.3-2.5-1.1-3c-0.3,0.6,0.4,1.3,0.3,2.2c-0.7-0.5-0.9-1.5-1.4-2.4c-0.3,0-0.4-0.2-0.5,0.1
				c-0.8-0.9-0.7-1.9-1.5-2.7c-0.6,0.8,0.3,2.1,1,2.9c-1.2-0.5-2.9-1.7-4-2.7c-0.4,0.2,0.2,0.5,0.4,0.5c0.1,0.3-0.7-0.3-0.8,0.1
				c-0.5-0.3-0.7-0.9-1.2-1.2c-0.5,0.1-0.2,0.5-0.1,0.8c-0.9-0.2-0.5-1.7-1.2-2.1c-0.7,0.1-0.2,0.7-0.1,1.2
				c-1.2-0.1-0.7-1.8-1.5-2.2c-0.4,0.3,0.2,0.8-0.1,1.2c-1.7-1.4-1.2-4.4-3.1-5.4c0.9,1.1,1.2,2.8,2.1,3.9c-1.1-0.5-1.3-3-2.5-3.8
				c0.3,1,1.2,2.5,0.8,4.2c0.5,0.1,0.2-0.6,0.3-0.9c0.8,2,2.5,3.2,3.1,5.4c0.4-0.6-0.2-1.4-0.4-1.8c0.9-0.1,1.1,1.6,1.6,2.3
				c0.2,0.1,0.2-0.7,0-0.7c0.6-0.3,0.8,0.9,1.1,1.3c0.2-0.3-0.2-1.1-0.3-1.6c0.9,0.3,1.1,1.4,1.5,2.2c0.4-0.4-0.1-1-0.1-1.4
				c0.7,0.2,0.5,1.3,1.1,1.6c0.3-0.7-0.6-1.3-0.5-2.1c1.8,1.3,1.2,4.1,3,5.4c-0.6-1.3-1.4-1.9-1.4-3.7c0.9,1.3,1.1,2.8,2.3,4.2
				c-0.2-1.5-1.4-3-1.8-4.7c0.4,0.2,0.3,0.5,0.8,0.3c0.2,0.6,0.3,1.3,0.7,1.7c-0.1,0.4-0.2-0.3-0.5-0.1c0.5,1.1,1.2,2.1,1.9,3
				c0.1-0.8-0.9-1.6-1.1-2.6c1.7,2.3,2.8,5.1,3,8.7c0.5-0.1,0.2-0.9,0.3-1.3c0.7,0.3,0.4-1.4,0.8-1.8c0.4,0.3-0.1,1.4,0.4,1.6
				c0.3-0.6,0-1.9,0.3-2.6c0.5,0.2,0.2,1.3,0.3,2c0.7,0,0.3-1,0.4-1.6c0.5-0.1,0.2,0.5,0.3,0.8c0.2-0.2,0.4-0.5,0.4-0.9
				c0.4,0.3,0.9,1.1,0.4,1.6c0,0.4,0.4-0.6,0.4,0.1c0.3-0.6,0.1-1.8,0.4-2.5c0.4,0.5-0.1,1.8,0.3,2.2c0.2-0.3,0.3-0.8,0.3-1.3
				c0.2,0,0.4,0,0.4-0.1c0.3,1.3-1,2.1-0.8,3.8c0.5-0.5,0.4-1.7,0.8-2.3c0.1,0,0.1,0.2,0.1,0.3c0.7-1.1,0.2-3.3,1-4.3
				c0,0,0.1-0.1,0.1-0.1c0,0-0.1,0.1-0.1,0.1c-0.5,0.6,0.1,1.7,0,2.8c-0.1,1.3-1.5,2.3-1.2,3.9c0.6-1,0.9-2.2,1.2-3.4
				c0.5,0.5,0,1.7-0.3,2.3c1.2-0.8,1.6-2.3,2.1-3.8c0.5,0.4,0.5-1.5,0.8-2.1c0.3,0.4-0.2,1.1,0,1.8c0.4-0.6,0.5-1.6,0.7-2.3
				c0.4,0.2,0.4,1.2,0.1,1.6c0.6-0.1,0.2-1.2,0.7-1.4c0.2,0,0.1,0.3,0.1,0.5c0-0.8,0.6-1,0.7-1.8c0.3,0.1,0.1,1.8,0.1,2.5
				c0.5-0.4-0.1-1.9,0.7-2c0,0.7,0,1.4,0,2.1c0.6-0.3,0.8-1,0.8-1.8c-0.2-0.1-0.3-0.1-0.4,0.1c-0.3-0.2,0-1-0.1-1.4
				c0.5-0.1,0.2,0.6,0.3,0.9c0.4,0.1,0.2-0.3,0.3-0.5c0.2,0.4,0.3,1,0.3,1.6c0.3,0,0-0.6,0.3-0.7c0-0.5,0-1,0-1.4c0-0.1,0-0.3,0-0.4
				c0-0.1,0-0.3,0-0.4c0.1-0.2,0.1,0.1,0.1,0.3c0.1,1.1-0.3,2.6,0.3,3.3c0,0.4-0.2,0.6-0.3,0.9c-0.4-0.4,0.3-1-0.1-1.4
				c-0.3,0.8-0.5,1.8-1.1,2.4c-0.4,0,0.2-0.2,0-0.5c-0.3-0.3-0.5,0.6-1,0.7c0-0.2,0-0.3,0-0.5c-1.2,1-1.3,2.6-1.8,4.2
				c-0.4-0.4,0-1.1,0.1-1.4c-0.9,0.7-1.5,3.4-1.1,5.2c0.5-0.2,0.2-1.3,0.3-2c0.5,0.5,0.4,1.6,0.5,2.4c0.7-0.7-0.3-2.6,0.4-3.4
				c0.4,0.5,0.2,1.7,0.3,2.6c0.4,0.1,0.2-0.3,0.3-0.5c0.3,0.5,0.4,1.1,0.7,1.6c0.2-0.9-1-2.7,0.1-3.5c0.4,0.3,0.3,1.1,0.3,1.7
				c0.2-0.6,0.2-3.3,0.3-1c0.2,0.4,0.1,1,0.3,1.4c0.3-0.6,0-1.8,0.1-2.6c-0.1-0.4,0.1-1.2,0.1-0.4c0,0.4,0,0.9,0,1.3
				c0.2,0.6,0.2,1.4,0.4,2c0.3-1.2-0.4-2.5-0.1-4c0.6,0.7,0.1,2.6,0.7,3.4c0.5-1-0.7-3.4,0.4-4c-0.3,1.8,0.4,2.7,1,3.7
				c0.1-0.9-0.8-2.7-0.3-4c0.4,0.7,0.3,1.9,0.5,2.7c0.6-0.4-0.2-1.5,0-2.3c0.5,0.6,0.5,1.8,1,2.5c0.1-0.7-0.3-2-0.4-2.9
				c0.6,0.2,0.5,1,0.8,1.4c0.2-0.4,0.3-0.7,0.5-0.1c0.4-0.2-0.2-0.8,0.1-0.9c0.3,0.1,0.7,0.3,0.7-0.3c0.5,0.6,0.7,1.3,1.4,1.7
				c-0.3-0.8-1.2-2.1-1.2-3.7c0.4,1.2,1.1,2.2,1.9,3c-0.2-0.9-1-1.4-1.1-2.5c0.6,0.9,1.3,1.8,2.1,2.6c0.3-0.5-0.6-1-0.8-1.4
				c1-0.1,1.5,1.4,2.3,1.8c0.4-0.7-1.4-1.2-1.1-1.8c0.8,0.8,1.6,1.6,2.8,2.1c0,0,0.1,0,0.1,0c0,0-0.1,0-0.1,0
				c-0.4,0-0.2,0.2,0.2,0.3c0.2,0.1,0.4,0.1,0.6,0.2c-0.2-0.5-0.6-0.9-1.1-1.3c-0.9-0.8-2.2-1.5-2.7-2.5c0.9,0.6,1.7,1.3,2.6,2.1
				c-0.6-1.8-0.7-3.7-0.3-5.5c-0.3-0.1-0.5-0.3-0.6-0.6c0.2,0,0.4,0.1,0.6,0.2c0.2,0.1,0.4,0.1,0.6-0.1c-0.1-0.1-0.3-0.2-0.5-0.2
				c-0.4-0.1-0.8-0.2-1-0.4c0.2-0.1,0.8,0.2,0.8-0.1c-0.7,0-1.1-0.4-1.5-0.8c0.2,0,0.6,0.5,0.8,0.1c-0.3-0.3-0.9-0.4-1-0.9
				c0.4,0,0.8,0,1-0.1c0-0.7-1.2-0.4-1.4-0.9c0.1-0.5-0.6-0.9-0.3-1.2c0.4,0.3,0.3,0.2,0.5-0.1c0.1,0.2,0.2,0.4,0.5,0.4
				c-0.2-1.2-0.8-1.6-0.4-3c0,0.5,0.1,0.9,0.5,0.9c0.4-0.6-0.1-1.9,0.3-2.5c0.3,0,0.3,0.4,0.5,0.4c0.1-0.3-0.2-0.9,0.1-0.9
				c0.3,0.2,0.3,0.8,0.7,0.9c0.1-0.7-0.2-1-0.1-1.7c0.3,0,0.3,0.1,0.5,0.1c-0.1-0.5-0.2-0.8-0.1-1.4c0.3,0,0.3,0.5,0.7,0.4
				c0.1-0.7-0.4-1.3,0.1-1.7c0.1,0.3,0.3,0.4,0.5,0.5c-0.1-0.8-0.1-1.9,0.7-1.6c0-0.2,0-0.4,0-0.7c0.3,0.1,0.6,0.5,0.7,0
				c-0.2,0-0.5-0.7-0.1-0.8c0.4,0.1,0.4,0.5,1,0.4c-0.4-0.6-0.9-1-0.5-2.1c0.2,0,0.3,0.2,0.4,0c-0.3-0.3-0.4-0.6-0.5-1
				c0.2,0,0.2,0.2,0.4,0.3c0-0.7-0.7-0.7-0.5-1.6c0.2,0,0.3,0.2,0.5,0.1c0-0.5-0.4-0.6-0.5-1c0.2,0,0.3,0.2,0.5,0.1
				c-0.1-0.6-1.2-1.4-0.4-2.1c-0.5-0.5-0.7-1.3-0.8-2.1c0.5,0,0.3,0.7,0.8,0.7c0.2-0.9-0.9-1.4-0.7-2c0,0.4,0.4,0.6,0.7,0.8
				c0.1-1.1-0.8-1.3-0.8-2.2c0.2,0.1,0.2,0.5,0.7,0.4c0-0.6-0.3-0.7,0.3-0.9c-0.1-1.3-0.5-3,0.1-3.7c0.2,0.1,0.4,1,0.8,0.5
				c-0.2-0.2-0.2-0.6-0.3-0.9c0.4,0.1,0.3-0.3,0.5-0.3c0.1,0.2,0,0.6,0.4,0.5c-0.1-0.4,0.2-0.5,0.1-0.9c0.9-0.2,1.4-1.3,2.3-0.7
				c0.1-0.2-0.2-0.8,0.1-0.8c0,0.3,0.2,0.4,0.4,0.5c0.2-0.2,0.1-0.6,0.1-0.9c0.2,0,0.3,0.2,0.5,0.1c0.1-0.6,0.4-1.2,1.1-1.3
				c0.3-1.1,0.9-2.7,0.8-3.8c0.2,0,0.2,0.2,0.4,0.3c0.1-0.7-0.5-1.6,0.1-2c0,0.5,0,0.8,0.3,1c0-0.5-0.2-0.7-0.1-1.3
				c0.7,0.5,0-0.4,0.4-0.7c0.1,0.2,0,0.6,0.4,0.5c0.1-0.4-0.5-2.2,0.1-2.2c0-0.7-0.6-0.8-0.7-1.4c0.4,0,0.2,0.6,0.7,0.5
				c-0.3-0.4-0.5-1.2-0.7-1c0.1,0,0.1,0.2-0.1,0.1c0.2-0.6,0.4-0.4,0.5-0.9c-0.4-0.3-0.4,0-0.7-0.4c0-0.3,0-0.6,0.3-0.7
				c1.5,0,1.7-1.3,1.6-2.2C122.6-18.8,120.6-18.8,118.7-19.9z M87.1-15.2c-0.3,0-0.7,0-0.8-0.1C86.3-15.6,87.3-15.7,87.1-15.2z
				 M92.6-16.4c-0.3,0.3-0.9,0.6-1.6,0.7c-1.1,0.2-2,0.1-2.1-0.2c-0.1-0.4,0.7-0.9,1.8-1.1c0.3-0.1,0.5-0.1,0.8-0.1c0,0,0,0,0.1,0
				c0.7-0.1,1.3,0,1.3,0.3C92.9-16.7,92.8-16.5,92.6-16.4z M91.8-19c-0.1-0.2,1.4,0.2,1.6,0.5C93.3-18.1,92.4-19,91.8-19z M92.7-19
				c0.1-0.1,0.1-0.3,0.1-0.5c0.9,0.1,1.5,0.6,2.1,1C94.4-18.4,93.5-19,92.7-19z M95.6-19.7c0.6-0.2,1.2,0.8,1.9,0.9
				C96.8-18.4,96.3-19.5,95.6-19.7z M95.6-20.2c0.3-0.2,0.7,0.4,1.2,0.4C96.4-19.4,96-20.2,95.6-20.2z M95.3-20.7
				c-0.5,0.5-2.4-0.7-3.4,0c1.3,0.6,3.2,0.6,3.7,2c-1.2-1.4-4-1.3-5.7-2.1c0.5-0.4,1.3,0.5,1.9,0c-0.7-0.4-1.7-0.5-2.7-0.5
				c4-0.9,7.8,0.4,10.1,2C97.8-19.4,96.7-20.1,95.3-20.7z M106.3-18.6c0.1-0.4,0.6,0,0.8,0C107-18.2,106.5-18.5,106.3-18.6z
				 M106.6-19.8c0,0.6-0.4,0.3-0.8,0c-0.5,0.2,0.3,0.3,0.1,0.7c-0.4-0.1-0.4-0.6-1-0.7c0.8-0.5,2.2-0.5,2.6,0.3
				C107.1-19,107-19.9,106.6-19.8z M107.4-20.1c0-0.3,0.5-0.1,0.7-0.1c0,0.2,0,0.3,0,0.5c0.2,0,0.2,0,0.3,0.1
				c0.4,0.1,1.1-0.2,1.2,0.1C108.4-19.3,107.8-19.6,107.4-20.1z M113.4-19.2c0.4-0.4,1,0.1,1.5,0C114.7-18.9,113.6-19,113.4-19.2z
				 M117.5-19.3c-0.4-0.2-1-0.3-1.5-0.4c0-0.5-0.7-0.5-1-0.8c-1.5-0.1-2,1.3-3.4,0.9c0.9-1.3,3.6-1.4,5.1-0.5
				C117.1-19.9,117.7-19.5,117.5-19.3z M113-11.9c0-0.2,0-0.4,0-0.7C113.5-11.7,114.5-11.4,113-11.9z M93.3,25.5
				c-0.5-0.2-0.8-1.3-0.4-1.6C93.1,24.3,93.4,25.2,93.3,25.5z M93.7,24.7c0.1,0,0.3,0,0.4,0c0.1,0.4,0.3,0.6,0.4,1
				C93.7,26,93.9,25.1,93.7,24.7z M94.9,25.2c0.4,0,0.7,0.2,0.7,0.5C95.1,25.8,95,25.6,94.9,25.2z M85.4,33.2
				c0.4,0.2,0.7,1.1,0.5,1.4C85.6,34.2,85.3,33.9,85.4,33.2z M82.5,29.9c0.6,0.1,0.5,0.8,0.7,1.3C82.7,31,82.7,30.4,82.5,29.9z
				 M84.3,31.6c-0.4-0.6-1-1-1.1-1.8C83.1,29.8,84.4,30.7,84.3,31.6z M86.2,37.8c-0.5-0.9-0.7-2.2-1.1-3.1
				C85.7,35.4,86.2,36.3,86.2,37.8z M88.8,33.6c-0.3-0.1-0.2-1,0-1.2C89.4,32.5,88.9,33.4,88.8,33.6z M89.7,36.8
				c-0.8-0.8,0-2.1,0.3-2.6C90.2,34.9,89.6,35.8,89.7,36.8z M91.4,30.2c-0.1,0.6-0.7,1-0.3,1.7C90.3,31.7,90.9,30.4,91.4,30.2z
				 M91,35.5c-0.3-0.1-0.1-0.8,0-0.9c0.1,0.1,0.1,0.3,0.4,0.3C91.3,35.2,90.9,35.1,91,35.5z M93,36.1c-0.4-0.6,0.1-1.6,0.3-2.1
				C93.8,34.3,93.1,35.4,93,36.1z M94.4,34.1c-0.4-0.7,0.3-1.4,0.5-1.8C95.1,32.7,94.4,33.4,94.4,34.1z M97.1,28.2
				c-0.3-0.3-0.1-1.2-0.3-1.6c0.7,0.1,0.8,0.7,0.8,1.4C97.5,27.8,97.1,27.5,97.1,28.2z M98.6,29c-0.4-0.3,0.4-0.6,0.1-1.2
				C99,27.6,99,29,98.6,29z M96.7,38.9c-0.6-0.3,0-1.1,0.1-1.4C97.3,37.9,96.6,38.4,96.7,38.9z M97.5,38.9c-0.4-0.4,0.1-1,0-1.4
				C97.8,37.8,97.6,38.6,97.5,38.9z M98.2,37.6c-0.6-0.6,0.1-1.2,0.4-1.7C98.9,36.4,98,36.8,98.2,37.6z M110.4-9.8
				c1.5,0.1,2,1.1,3.3,1.4c0,0.8-1.4,0.9-1.9,0.8c-0.1-0.6,0.5-0.4,0.4-0.9c-0.5-0.3-1.1,0.5-1.8,0.4C110-8.6,110.5-9.2,110.4-9.8z
				 M106.1-8.6c0.3-0.2,1-0.1,1.4-0.4c0.7,0-0.6,1,0.4,0.7c-1.1,0.9-0.8,3.2-1.9,4C105.7-5.6,106-7.3,106.1-8.6z M93.8,4.6
				c0.1,0.3,0.6,1.5,0,1.7C94,5.5,93.3,5,93.8,4.6z M92.3,17.4c-1-0.8-1.4-2.1-1.8-3.1c0.2,1.6-1-0.5-0.8-1c0.3,0,0,0.6,0.4,0.5
				c0.3-0.2-0.1-0.8-0.3-0.9c-0.1-0.4,0.2-0.4,0.1-0.8c0.9,0.8,0.9,2.3,1.4,3.4C91.7,16.2,92.6,16.6,92.3,17.4z M94.1,19.3
				c-1.8-1-0.2-3.7,1.2-3.9c-0.2,0.8-0.5,1.5-1,2.1C94.9,18,94.6,19.1,94.1,19.3z M94.7,20.5c0.4-0.6,0.7-1.2,1.4-1.6
				c0.5,0.6-0.1,1.2-0.3,1.8C95.4,20.7,95,20.6,94.7,20.5z M97.4,20.9c-0.3,0.2-0.9,0.1-1.2,0.3c0-1,0.9-1,1-1.8
				C97.7,19.4,97.3,20.4,97.4,20.9z M97,17.9c-0.2,0.4,0.5,0.5,0.1,0.7c-0.6,0-0.1-1-0.7-1c-0.4,0.1,0.1,0.4,0,0.7
				c-0.4-0.1-0.5,0.1-0.8,0.1c-0.2-1.6,1.4-2.7,0.1-3.8c-1.7-0.2-1.8,1-2.9,1.4c-1-1.5-1.1-3.7-2.5-4.8c-0.1-0.4,0.2-0.4,0.1-0.8
				c0.3-0.3,0.3,0.1,0.5,0.1c0-0.5-0.4-0.6-0.3-1.3c0.3,0.5,0.4,0.7,1,1c0.2-0.6,0.1-1.3,0-1.8c-0.3,0.2-0.2,0.5-0.7,0.3
				c0-0.5,0.5-0.5,0.1-1c0.4,0,0.2,0.5,0.5,0.5c0.4-0.3-0.6-0.4-0.4-0.9c1.5,0,3.4-0.1,4.2,0.7c0.1,0.1,0.1,0.5,0.1,0.5
				c0.1,0.1,0.8,0.3,0.4,0.9c0.4,0.3,0.5,0.8,1,1c0.2,0,0.2-0.1,0.4-0.1c0.1-0.5-0.3-0.6-0.3-1c0.2,0.1,0.3,0.2,0.5,0.3
				c-0.2-0.5-0.1-0.5-0.3-0.9c-0.6,0-0.1,0.3-0.1,0.5c-0.5,0-0.4-0.6-0.5-0.9c3.2,0.8,1.9,5.4,3.6,7.8c0.4,0.6,0.9,0.7,1.2,1.4
				c-1.3,0.3-2.2,1-3.6,1.2c-0.2-0.6-0.7-0.9-1-1.4c-0.4,0.4,0.3,0.8,0.4,1.2C97.8,18.6,97.2,18,97,17.9z M100.1,11.8
				c0.1-0.6-0.2-0.9-0.1-1.6c0,0,0,0,0,0c0,0,0,0,0,0C100,10.4,100.9,11.7,100.1,11.8z M99.4,20.8c-0.5,0.1-0.9,0.4-1.5,0.4
				c-0.2-0.2,0.1-0.7,0-1.2c0.5,0,0.4-0.5,1-0.4c-0.1,0.4-0.5,0.7-0.1,1c0.4,0,0.2-0.6,0.7-0.5C99.4,20.4,99.4,20.6,99.4,20.8z
				 M100.5,33.8c-0.3-0.2-0.1-0.9,0-1.2C100.9,32.9,100.5,33.5,100.5,33.8z M100.8,25.9c0-0.3,0-0.5,0.1-0.7
				C101.5,25.1,101.2,26.1,100.8,25.9z M101.8,24.6c0.2,0.1,0.1,0.6,0.3,0.8c-0.1-0.1-0.3-0.1-0.5-0.1
				C101.4,24.8,101.7,24.8,101.8,24.6z M101.6,25.6c0.4,0.3,0.5,0.9,0.5,1.6C101.6,27,101.7,26.2,101.6,25.6z M100.5,20.5
				c-0.3-0.5-0.5-1.1-0.8-1.6c0.7-0.5,1.8-0.6,2.7-0.8C102,19.1,101.3,19.9,100.5,20.5z M103.1,32.3c-0.3-0.8-0.5-1.8-0.7-2.7
				C103,30.1,103.4,31.4,103.1,32.3z M103.1,20.9c-0.1-0.4-0.7-0.7-0.4-1C103,20,103.4,21.1,103.1,20.9z M103.8,16.7
				c0.3-1-0.5-1.3-0.3-1.8C103.9,15.2,104.4,16.4,103.8,16.7z M104.1,20.7c-0.2-0.6-0.5-1.2-0.7-2C103.9,19.1,104,19.8,104.1,20.7z
				 M103.5,16.9c-0.2,0-0.4,0-0.4,0.1c-0.4-0.4,0.1-0.9,0.1-1.3C103.5,16,103.5,16.4,103.5,16.9z M104,31.8
				c-0.3-0.7-0.5-1.6-0.7-2.5C103.8,29.8,104.1,30.6,104,31.8z M103.7,23.1c0.4,0.4,0.6,1,0.7,1.7C104,24.4,103.9,23.7,103.7,23.1z
				 M104.2,29.7c0.4,0.2,0.4,0.8,0.4,1.4C104.4,30.7,104.4,30.1,104.2,29.7z M103.7,21.6c0.6,0.6,0.8,1.7,1.2,2.5
				C104.5,23.7,103.9,22.5,103.7,21.6z M105.2,23.3c-0.2-0.6-0.6-1-0.7-1.7c0.2-0.4,0.2,0.4,0.1,0.5c0.2,0,0.2,0,0.3-0.1
				C105.3,22.2,105.4,22.8,105.2,23.3z M104.8,19.7c0.6,0.5,1,1.2,1,2.2C105,21.6,105,20.6,104.8,19.7z M105.6,35.8
				c0.4,0,0.3,0.6,0.5,0.8C106,36.8,105.6,36.2,105.6,35.8z M106.1,20.5c-0.5-0.2-0.6-0.7-0.7-1.2C105.7,19.6,106.4,20.2,106.1,20.5
				z M105.7,16.6c0.4,1,0.2,2.5,1.1,3.7C106.2,19.7,105.3,18.3,105.7,16.6z M106.1,16.5c0.1-0.5,0.3,1.3,0.5,2.1
				C106.5,18.4,106,17.4,106.1,16.5z M108.5,19.1c-0.6-1.3-0.9-2.6-0.8-4.2c-0.2,0.4-0.3,0.2-0.4-0.3c-0.8,1.7,1,3.7,0.4,5.6
				c-0.6-1.6-1-3.4-1.1-5.5c-0.2-0.2-0.6,0.1-0.7-0.4c-0.2,0.5-0.1,1.1-0.1,2c-0.7-0.2-0.5-1.2-0.8-1.7c-0.5,0.9,0.5,2.6,0.1,4.2
				c-0.8-1.3-0.7-3.4-1.1-5.1c0.4,0,0.3,0.4,0.4,0.7c0.4-0.7-0.3-1.7,0.3-2.4c0.3,0.6,0.2,1.5,0.5,2.1c0.4-0.6-0.1-1.3,0-2.1
				c0.7,0.8,0.7,1.7,1.2,2.4c0.2-0.2,0.3-1.4-0.1-1.4c-0.2,0-0.1,0.2-0.1,0.4c-0.2-1.1-1-2.8-0.1-3.8c0.4,0.3-0.2,1.5,0.4,1.6
				c0.8-0.5-0.3-2.7,0.7-3c-0.4,1.4-0.1,3.1,0.3,4.4c-0.5-0.2-0.2-1.1-0.5-1.4c-0.3,0.8,0.3,1.9,0.4,2.7c1-1.3-0.2-3,0-5
				c1,0.7,0.1,3.1,1.2,3.7C106.8,13.7,108.8,16.8,108.5,19.1z M107.8,6.6c0.1,0.8,0.4,1.3,0.7,2c-0.1,0.1-0.2,0.2-0.3,0.4
				C107.8,8.4,107.7,7.1,107.8,6.6z M108.5,14.9c0.3,0.7,0.4,1.5,0.5,2.2C108.6,16.6,108.5,15.8,108.5,14.9z M109.8,11.1
				c-0.3-0.1-0.3-0.5-0.3-0.9C110,10.2,109.8,10.8,109.8,11.1z M110,17.3c-0.4-0.6-0.2-1.8-0.4-2.6C109.9,15.3,110.3,16.4,110,17.3z
				 M110.8,13.6c-0.3-0.3-0.3-0.8-0.4-1.2C110.9,12.4,110.8,13.1,110.8,13.6z M101.9,16c-0.7-0.4-0.7-1.5-1.4-2
				c1.1-5.7,5.3-8.2,7.7-12.7c-0.3-0.1-0.8,0.5-0.8-0.1c-0.4,1.1-1.4,1.6-1.8,2.7c-0.6-0.1-0.4-1.1-0.7-1.4c-0.4,0.6,0.5,1.7,0,2.5
				c-0.8-0.1-0.7-1.1-1-1.7c-0.4,0.9,1,2.1,0,2.9c-0.4,0.1-0.2-0.5-0.5-0.1c-0.4,0.2,0.1,0.6,0,0.9c-0.4-0.1-0.3-0.7-0.5-0.9
				c-0.4,0.4,0.4,1.2,0,1.7c-1-0.3-0.9-1.7-1.4-2.6c-0.1,0.8,0.1,2.9,0.7,3c0.3,0.3-0.2,0.5-0.3,0.8c-0.4-0.5-0.2-1.6-0.8-1.8
				c-0.1,0.6,0.3,1.9,0.3,2.9c-0.4-0.6-0.2-1.8-0.7-2.3c-0.3,0.8,0.3,2.2,0,3c-0.3-1.6-0.8-3.1-1.8-4.2c-0.4,0.4,0.1,1.1,0,1.6
				c-1.5-0.4-0.2-1.9-1.1-2.7c-0.4,0.4,0.2,1.4,0,2.2C97.2,7.3,97.4,6.3,97,6c-0.4,0.3,0.1,0.7,0,1.2c-0.8,0.1-0.5-0.8-0.7-1.3
				C96.1,5.9,96,6,96,6.2c-0.3-0.2-0.2-0.8-0.4-1c-0.4,0.5,0.2,1.2,0.1,1.7c-1-0.1-0.2-1.9-1.1-2.1c0.2,0.6,0.2,1.2,0.4,1.8
				c-0.8-0.3-1.1-2.2-0.5-2.6c0.3-0.1,0.2,0.2,0.4,0.3c0.3-0.1,0.1-0.6,0.1-0.9c0.2,0,0.1,0.2,0.1,0.4c0.3-0.7,0.6-1.5,1.1-2.1
				c0.3,0.1,0.3,0.5,0.3,0.9c0.5-0.3-0.1-1.4,0.4-1.8c0.5,0.1,0.1,1.1,0.5,1.2C98,1.2,97,0.1,97.7-0.4C98,0,97.8,0.9,98.1,1.3
				c0.5-0.4,0-1.5-0.1-2.1c0.3-0.4,0.8,0.1,0.7-0.8C99.1-1.3,98.9-0.5,99,0c0.7-0.7-0.3-2.3,0.5-2.9c0.2,0,0.1,0.2,0.1,0.4
				c0.9-0.5,0.4-1.7,1.2-2.3c0.2,0,0.2,0.1,0.4,0.1c0.2-0.3,0.2-0.7,0.3-1.2c0.2,0.6,0.7,0.3,0.5-0.4c0.2-0.4,0.1,0.5,0.3,0.5
				c0.5,0,0.1-1.1,0.4-1.3c0.3,0,0.1,0.6,0.4,0.7c0.3-0.1,0.1-0.7,0.1-1c0.5-0.2,0.1,0.4,0.4,0.4c0.4,0,0.2-0.5,0.3-0.9
				c1.7,0.2-0.5,5.7,2.5,4.8c0.4-0.1,0.2-0.4,1-0.7c0-1,0.5-1.5,0.5-2.5c0.6,1,0-0.8,0.5-1c0.3,0.2,0,0.9,0.3,1.2
				c0.2-0.1,0.3-0.4,0.3-0.8c0.1,0,0.1,0.2,0.1,0.3c0,0.2,0.2,0,0.3-0.1c0.3,0.1,0.1,0.6,0.1,0.9c0.6,0,0.4-0.8,0.4-1.3
				c0.5,0.2,0.1,1.3,0.4,1.7c0.6-0.3,0-1.1,0.1-1.7c1.4,0.4,1.9,1.4,2.1,2.7c0.4-0.3,0-0.8,0-1.2c0.4,0.2,1.3,0.6,1.1,0.9
				c-0.4,0-0.4-0.3-0.4-0.5c-0.4,0.7-0.6,1.5-1,2.2c-0.3,0-0.1-0.5-0.4-0.5c-0.3,0-0.1,0.6-0.1,0.8c-0.8-0.8-0.2,0.9-0.7,1.7
				c-0.2,0.3-1,1-0.7,1.8c0.5-0.4,0.7-0.5,0.5-1.3c0.4,0.4,0.9,0.6,1.8,0.5C107.1,3.4,104.4,9.6,101.9,16z M112.8-1.7
				c0,0.3,0.5,0.1,0.7,0.1c-0.2,0.3-0.6,0.5-1.2,0.5c0.6-1.3,1.7-2.1,2.5-3.3c0.4,0.1,0.8,0.2,0.8,0.7C115-2.6,114.5-1.4,112.8-1.7z
				 M114.6-5.3c-0.2-0.2-0.1-0.7-0.1-1c-0.5,0.3-1.2,0.3-1.5-0.3c0.2-0.6,0.8-0.9,1.1-1.4c0.6,0.1,0.8,0.6,1.1,0.9
				c0,0.5-0.5,0.4-0.5,0.8c0.6,0.1,0.4-0.4,1-0.4C115.9-6,115.4-5.4,114.6-5.3z M115.2-15.2c0.4,0.3,1.3-0.7,1.5-1.4
				c0.5,0.5,0.5-0.3,1-0.4c0.5-0.1,1.6,0.7,1.9-0.4c0.2,0.4-0.7,0.7-0.8,1.2c-0.4-0.3-0.6-0.1-1-0.5c-1.4,0.6-1.9,1.8-2.1,3.4
				c-0.3,0-0.1-0.5-0.4-0.5c0.1-0.2,0.5-0.2,0.5-0.5C115.9-14.9,115.2-14.8,115.2-15.2z M116.8-13.5c0,0.3,0,0.7,0,1
				c-0.2,0.2-0.3-0.1-0.8,0c0-0.6,0.1-0.9,0.3-1.3C116.5-13.7,116.6-13.6,116.8-13.5z M114.9-12.4c0.3,0.3,0.6-0.1,0.8,0.1
				c-0.1,0.2-0.4,0.2-0.3,0.7C114.9-11.5,114.9-11.9,114.9-12.4z M116.3-10c-0.7,0-0.9-0.4-0.8-1c0.7,0.7,0.4-0.4,0.4-0.4
				c0.2-0.1,0.5,0.8,0.5,0c0.1,0.1,0.2,0.1,0.3,0.3c0,0.1,0,0.2,0,0.3C116.2-11.3,116.2-10.5,116.3-10z M116.9-9.5
				c-0.6,0.1-0.2-0.8-0.3-1.2C116.8-10.4,117.3-9.8,116.9-9.5z M117.4-12.4c0.5,0.5,0.2,1.7,0.1,2.3C116.7-10.1,117.2-12,117.4-12.4
				z M118.2-9.6c-0.3,0.1-0.1,0.6-0.1,0.9c-0.2-0.2-0.5-0.3-0.4-0.8c0.6,0.1-0.3-1.8,0.4-2.2c0.4,0.6,0.2,1.5,0.4,2.5
				C118.3-9.3,118.4-9.6,118.2-9.6z M119.3-12.4c0-0.2-0.2-0.2-0.3-0.4c-0.4,0.7,0.4,1.4,0.4,2.1c-0.3,0.1-0.3-0.2-0.3-0.4
				c-0.3,0.2,0,0.9-0.3,1.2c-0.3-0.2-0.3-0.7-0.4-1c0.7-0.3-0.4-1.7,0.3-2.1c0.5-0.1,0.2,0.5,0.7,0.4
				C119.6-11.5,119.8-10.6,119.3-12.4z M119.8-17.5c0.1-1.1-1.5-0.6-1.6-1.4c0.6,0.1,1.5,1,2.6,1C120.5-17.7,120.4-17.4,119.8-17.5z
				 M121.2-15.6c-0.4-0.2-0.3-1.1-1.1-0.9c0.2-0.8,1-0.4,1.4,0C121.3-16.3,121.4-15.8,121.2-15.6z"/>
			<path fill="#720018" d="M115.9-8.2c0.3,0.1,0.8-0.3,0.4-0.4c-0.5,0.6-0.4-0.6-0.8-0.5C115.3-8.6,115.8-8.6,115.9-8.2z"/>
			<path fill="#720018" d="M81.7,25.2c0.1,0.5,0.2,1.1,0.7,1.3C82.2,26,82,25.5,81.7,25.2z"/>
			<path fill="#720018" d="M104.6-17.6c0-0.4-0.4-0.6-0.8-0.7c0.3,0.9-0.4-0.2-0.7,0.3C103.6-17.5,104.2-18,104.6-17.6z"/>
			<path fill="#720018" d="M62.7-9.1c1.7-0.1,1.3-3,3-2.2c0.2-0.9,0.8,0.1,1.2-0.7c0,0.2-0.2,0.3-0.1,0.5c0.8-0.6-1.3-2.3-2.1-2.2
				c0.4,0.3,0.7,0.7,0.8,1.2c-0.1,0.1,0,0.5-0.4,0.4c-0.3-0.9-0.7-1.7-1.4-2.2c0,0.8,1.3,1.5,0.4,2.2c0.1-0.9-0.4-1.9-1.4-2.2
				c0.2,0.7,1.2,1.4,1,2.1c-0.5,0.1-0.1-0.7-0.7-0.5c-0.2,0.2,0,0.7-0.5,0.5c0-0.5,0-0.8-0.1-1.2c-0.7,0.4-0.3-0.8-1.1-0.7
				c0.1,0.5,0.5,0.8,0.5,1.4c-0.8-0.2-0.3,0.9-1.1,0.7c0,0.7-1.1,0.9-0.5,1.7c-0.3-0.1-0.3,0.2-0.7,0.1c-0.1,0.5,0.3,0.4,0.3,0.8
				c-0.4-0.4-0.7,0.3-0.8,0.7c0.6,0.5,1-0.3,1.4,0.4C60.4-8.5,60.2-9,60.5-9C60.9-9,60.5-8.3,61-8.5c0.2-0.7-0.4-1.3,0-1.7
				c0.2,0.4,0.4,0.9,0.7,1.2c0.2-0.6-0.3-1.2,0-1.6c0.2,0.7,0.4,1.4,0.8,2c-0.4,0-0.8,0.5-0.4,0.9c0.5,0,0.8-0.3,1-0.7
				C62.9-8.6,62.8-8.8,62.7-9.1z"/>
			<path fill="#720018" d="M101.1-9.8c-0.5,0.1-1.1-0.5-1.4-0.3C100-9.8,100.7-9.4,101.1-9.8z"/>
			<path fill="#720018" d="M89.9-8.5c1,0,1.5-0.5,1.8-1.3c-0.6-0.1-0.8,0.7-1.4,0.3c0.2,0.3-0.5,0.4-0.1,0.5c0-0.2,0.4-0.5,0.4-0.1
				C90.3-9,90.2-8.6,89.9-8.5z"/>
			<path fill="#720018" d="M100.3-9.1c-0.4,0-1.2-0.4-1.4-0.3C99.3-9.3,99.8-8.7,100.3-9.1z"/>
			<path fill="#720018" d="M109.4-0.2c-0.3,0-0.3,0.1-0.5,0.1c-0.1-0.2-0.1-0.5-0.4-0.5c-0.1,0.2,0.2,0.7-0.1,0.7
				c0-0.2-0.1-0.3-0.3-0.4c-0.1,0.4,0.2,0.3,0.1,0.7c0.3,0,0.4-0.2,0.5,0.1c-0.2,0.1-0.2,0.5-0.4,0.7c1.1-0.3,1.5-1.3,1.4-2.2
				C109.6-0.9,109.3-0.7,109.4-0.2z"/>
			<path fill="#720018" d="M66.6,18.4c0.2-0.5-0.4-1,0-1.2c0.6,0.8,0.5,2.2,1.5,2.6c0.2-0.5-0.4-1,0-1.3c-0.1,0.8,0.5,0.8,0.8,1.2
				c-0.2-1.4-1.5-2.9-1.9-4.6c0-0.2,0.3-0.1,0.3-0.4c-0.4-0.6-0.6-2-1.1-2.1c0.2,0.6,0.5,2,0.3,2.6c-0.6-1.9-0.7-3.7-1.1-5.9
				c-0.6,0.7,0,2.2-0.1,2.9c-0.5-0.4-0.2-1.5-0.3-2.4c-0.3,0-0.3,0.2-0.4,0.3c0-0.4,0.3-1.1,0-1.4c-0.6-0.1-0.4,0.7-0.7,0.9
				c-0.3-0.9,0.1-2.4-0.3-3.3c0,0.1,0,0.3-0.1,0.3c-0.2-0.2-0.2-0.6-0.3-0.9c-0.3-1.1,0,1.1-0.3,1.2c-0.1-0.7,0-1.7-0.4-2.1
				c-0.1,0.1-0.3,0.3-0.4,0.4C62.3,3.9,61.7,3,62,2c-1.2,1-0.5,2.9-1,4.4c0.3,0.2,0.7-0.3,0.7,0c0.6,0.5-0.1,2.8,0.1,2.9
				c0.1-0.8,0.6-1.2,0.8-1.8c0.4,1.5,0.1,3.5,0.4,4.7c0.3-0.5,0.2-1.3,0.5-1.8c0.2,2.2,1,4.1,0.4,6.3c0.8,0,0.2-1.3,0.7-1.6
				c0.4,0.4,0.1,0.8,0.1,1.6c0.6,0,0.4-0.1,0.7-0.5C65.8,17,65.8,18.1,66.6,18.4z M68,18.4c-0.3-0.2-0.4-0.6-0.4-1
				C67.9,17.6,68,18,68,18.4z M65.9,14.4c0.4,0.1,0.3,1.4,0.7,1c0.3,0.1-0.2,0.5,0,0.9C66,16,65.9,15.3,65.9,14.4z M64.6,11.9
				c-0.3,0.3,0.7,2,0.7,2.4C65.1,14,64,12.4,64.6,11.9z"/>
			<path fill="#720018" d="M101.1,6.4c-0.2-1-0.3-1.9-0.8-2.6C100.7,4.8,100.4,5.7,101.1,6.4z"/>
			<path fill="#720018" d="M60.6,4.3c-0.3,0.3-0.5,0.7-0.5,1.2C60.5,5.5,60.7,4.5,60.6,4.3z"/>
			<path fill="#720018" d="M99.2,4.7c0.4,0.2,0,1.2,0.5,1.2C99.7,5.4,99.5,4.5,99.2,4.7z"/>
			<path fill="#720018" d="M87.1,11c-0.2,0.3-0.7,0.9-0.5,1.2C86.8,11.9,87.4,10.9,87.1,11z"/>
			<path fill="#720018" d="M68,15.4c0.3,0.4,0.3,1.1,0.8,1.3C68.6,16.3,68.4,15.2,68,15.4z"/>
			<path fill="#720018" d="M75.8,18.2c-0.4-0.3-0.5-1-1.1-1.2C74.8,17.5,75.4,18.3,75.8,18.2z"/>
			<path fill="#720018" d="M74.6,20.3c-0.5-0.5-0.7-1.2-1.5-1.4C73.3,19.4,74.2,20.2,74.6,20.3z"/>
			<path fill="#720018" d="M70.1,20.5c0.2,0.3,0.2,0.8,0.5,1c0.1-0.5,0.2,0.5,0.3,0c-0.3-1-0.3-1.6-1.5-1.8c-0.1,0.5,0,0.8,0.3,1
				C69.9,20.8,69.9,20.6,70.1,20.5z"/>
			<path fill="#720018" d="M69.5,22C69.4,20.4,68.8,21,69.5,22L69.5,22z"/>
			<path fill="#720018" d="M77.3,23.7c-0.3,0.4,0.1,1.3,0.4,1C77.4,24.5,77.7,23.7,77.3,23.7z"/>
			<path fill="#720018" d="M72.5,27.4c-0.2-0.4-0.2-1.1-0.7-1.3C71.9,26.7,72.3,27.5,72.5,27.4z"/>
			<path fill="#720018" d="M82.9,26.3c0.2,0.2,0.4,0.4,0.5,0.7c-0.2,0-0.3-0.2-0.4,0c0.3,0.2,0.3,0.5,0.7,0.7
				C83.5,27,83.4,27,84,27.3C83.8,26.8,83.2,26.2,82.9,26.3z"/>
			<path fill="#720018" d="M81.3,33.2c-0.6-0.5-1.3-1.7-2.1-1.7C80,31.9,80.6,33.1,81.3,33.2z"/>
			<path fill="#720018" d="M83.3,35.5c-0.3-0.5-0.3-1.2-0.8-1.4C82.7,34.6,83.1,35.6,83.3,35.5z"/>
			<path fill="#720018" d="M93.2,42.2c0,0.7-0.7,2.1,0,2.6c0.1-2.8,1.1-4.6,1.4-6.7c-0.6,0.7-0.7,1.9-1.2,2.6
				c-0.1-0.9,0.7-1.6,0.4-2.3c-0.6,0.9-0.7,2.3-1.2,3.3c0-1,0.7-2,0.5-2.7c-0.8,1.1-0.8,3-1.5,4.2c0-0.8,0.6-2.4,0.4-2.6
				c-0.8,1-0.5,3.1-1.4,4c-0.1-0.3,0.1-0.6,0.1-0.8c0.1-1.5-0.3,1.4-0.7,1.4c-0.3-0.1,0.1-0.9-0.3-1c-0.2,0.4,0.1,1.2-0.5,1.2
				c-0.2-1,0.4-2,0.1-2.7c-0.8,0.9-0.3,3.7-1.4,3.9c0-0.4,0.4-0.5,0.3-1c-0.2,0-0.4,0-0.4-0.1c-0.1-2.2,1-4,0.5-6.1
				c-0.3,1.1-1.1,2.4-0.8,3.5c0.1-0.2,0.1-0.5,0.3-0.7c-0.2,1.3-1,2-1.4,3.1c0.4,0.2,0.5-0.6,0.7-0.3c-0.1,0.1-0.4,0.7-0.1,0.8
				c0.2-0.6,0.3-1.3,0.7-1.7c0.1,4-3.9,4.2-3.6,7.8c-0.5-0.5,0.2-1.7-0.3-2.5c-0.4,0.3,0.1,1.5-0.3,1.8c-0.1-0.4-0.1-1.5-0.3-1.3
				c0.1,1-0.5,1.7,0,2.3c-0.2-0.1-0.4-0.2-0.5-0.4c0.1-1.1-0.2-3.1-0.4-1.2c0.1,2,1.1,2.3,2.2,2.9c0.1-0.3-0.4-0.6,0-0.8
				c0.2,0.2,0.2,0.7,0.5,0.8c0.1-0.9-0.7-1.6-0.4-2.2c0.4,0.4,0.3,1.2,0.8,1.4c0.2-0.4-0.3-0.8,0-0.9c0.1,0.2,0,0.6,0.4,0.5
				c-0.1-0.8-0.8-1.8-0.7-2.3c0.4,0.6,0.4,1.5,1,2c0.1-0.3-0.2-0.9,0.1-1c0.4,1.2,1.2,2.1,2.2,2.7C88,52.4,86,51.2,87,49.4
				c0.1,0.3,0.2,0.6,0.1,1c0.8-0.1,0.9,1.2,1.6,1.6c-0.2-1.2-1.9-2.2-1-3.7c0.3,1.1,0.6,2.9,1.5,3c-0.4-0.7-1.1-2.3-0.5-3
				c0.1,1.1,0.8,1.9,0.8,2.6c0.1-0.7,0.6,0.9,0.8,0.4c-0.4-0.4,0-0.7-0.3-1.2c0.8-0.2-0.8-1.9-0.1-2.9c0.1,0.6,0.1,1.3,0.4,1.7
				c0.4-0.3-0.3-1.2,0.1-1.6c0.1,1.7,0.8,2.9,1.4,4.2c0.3-1-1.6-3.6-0.7-5.2c0.2,0.3,0.2,1,0.5,0.4c0.3,1,0.6,2,1.2,2.6
				c-0.1-1.2-0.8-2-1-3.1c0.2-0.2,0.4-0.4,0.5-0.7c0.3,0.8,0.4,1.8,1.1,2.2C93.3,46.3,91.8,43.8,93.2,42.2z M85.9,50.4
				c-0.2-0.3-0.6-0.7-0.3-1C86,49.5,85.9,50,85.9,50.4z M86.5,49.6c-0.6,0-0.2-1.1,0-1.2C86.8,48.7,86.3,49.1,86.5,49.6z M87.3,48.9
				c-0.6-0.1-0.2-1.2,0-1.4C87.3,47.7,87.1,48.2,87.3,48.9z M89.9,50c-0.6-0.8-1-2-0.7-3.3C89.7,47.6,89.6,49,89.9,50z M91.8,45.7
				c-0.6-0.2,0-0.9,0-1.3C92.1,44.7,91.6,45.2,91.8,45.7z"/>
			<path fill="#720018" d="M108.3,40.1c0.3,0.1,0.7,0.7,1,0.4C108.9,40.5,108.5,39.8,108.3,40.1z"/>
			<path fill="#720018" d="M65.5,40.1c0.2,0.8,1,1.7,1.5,1.8C66.4,41.4,66.3,40.5,65.5,40.1z"/>
			<path fill="#720018" d="M82.4,52.5c0.1,0.4,0.2,0.8,0.7,0.8c-0.9-1.1-1.1-2.9-1.2-4.7c-0.4,1.1,0.1,3-0.1,3.9
				c-0.4-1.5-0.3-3.4-0.8-4.8c-0.2,1.8,0.4,3.5,0.3,4.7c-0.7-1-0.8-3.1-1.2-3.9c-0.1,0.3,0.2,0.9-0.1,0.9c-0.7-1.3-1.4-2.6-2.6-3.4
				c0.7,1.3,2.2,2.4,1.8,4.3c-0.4-0.9-0.8-1.8-1.4-2.5c-0.3,0-0.3,0.1-0.5,0.1c-0.1-0.2-0.3-0.4-0.4-0.7c-0.2,0-0.4,0-0.5,0
				c-0.1-0.1-0.4-0.9-0.4-0.3c0.5,1.2,1.9,2.4,2.1,3.5c-1.3-1.6-2.2-3.6-3.4-5.4c-0.3,0.7-0.2,2,0.1,2.6c-1.7-1.3-2-4-4.1-4.8
				c0,0.9,0.6,1.1,0.8,1.7c-1.7-1.1-2.4-3.2-4.4-3.9c2.1,3.2,5.7,5.1,7.2,8.9c0.2-0.3-0.4-0.5,0-0.7c0.5,0.6,0.6,1.5,1.1,2
				c0-0.5-0.4-1.3,0-1.7c0.6,0.5,0.3,1.8,1.5,1.7c0.1,0.3,0.1,0.7,0.4,0.8c0-0.2,0-0.4,0.1-0.4c0.5,0.7,1.1,1.9,1.4,2.4
				c0.1-0.2-0.2-0.7,0.1-0.7c0.6,0.8,0.8,2.1,1.4,2.9c-0.1-1-0.2-2.3-0.1-3.3c0.5,0.8,0.1,1.8,0.5,2.5c0.4,0.1,0.3-0.4,0.7-0.3
				c0.2,0.2,0.2,0.7,0.5,0.8c0-0.8-0.9-1.3-0.3-2c0.2,0.6,0.5,1.3,1.1,1.6c0.1-0.8-1.2-1.4-0.5-1.8c0.3,0.7,1.2,0.9,1.5,1.6
				C83.6,53.7,81.9,53.6,82.4,52.5z M79.2,49.2c0.3,0.3,0.5,0.9,0.5,1.4C79.3,50.4,79.3,49.8,79.2,49.2z"/>
			<path fill="#720018" d="M98.5,46.2c-0.2-0.4-0.5-2.9-1-3.9C97.7,43.8,97.9,45.2,98.5,46.2z"/>
			<path fill="#720018" d="M84,53.7c0.2,0.9,0.9,2.1,1.5,2.2C85,55.2,84.7,54.2,84,53.7z"/>
			<path fill="#720018" d="M85.1,54.2c0.3,0.2,0.5,1.1,0.8,0.8C85.6,54.9,85.5,53.9,85.1,54.2z"/>
		</g>
		<path fill="#720018" d="M91.5-17.1C91.5-17.1,91.5-17.1,91.5-17.1c-0.7,0.2-1.1,0.5-1.1,0.8c0.1,0.3,0.7,0.4,1.3,0.3
			c0.3-0.1,0.6-0.2,0.8-0.4c0.2-0.1,0.3-0.3,0.3-0.5C92.8-17.2,92.2-17.3,91.5-17.1z"/>
	</g>
</g>
</svg>
