<?xml version="1.0" encoding="utf-8"?>
<!-- Generator: Adobe Illustrator 19.1.0, SVG Export Plug-In . SVG Version: 6.00 Build 0)  -->
<!DOCTYPE svg PUBLIC "-//W3C//DTD SVG 1.1//EN" "http://www.w3.org/Graphics/SVG/1.1/DTD/svg11.dtd">
<svg version="1.1" xmlns="http://www.w3.org/2000/svg" xmlns:xlink="http://www.w3.org/1999/xlink" x="0px" y="0px"
	 viewBox="33 -33 100 100" enable-background="new 33 -33 100 100" xml:space="preserve">

<g id="AREA_1">
	<g>
		<path fill="#720018" d="M101.1,32.6c0,0.1-0.1,0.2-0.1,0.2C101.1,32.8,101.1,32.7,101.1,32.6z"/>
		<path fill="#720018" d="M48.6-9.8c0.2-0.3,0.3-0.8,0-1.1c0,0-0.1,0-0.1-0.1C48.4-10.5,48.2-10.1,48.6-9.8z"/>
		<path fill="#720018" d="M48.5-9.2c-0.4,0.5-0.9,0.5-1.2,0.9C47.7-7.8,49.1-8.6,48.5-9.2z"/>
		<path fill="#720018" d="M44.1-8.1c0.1,0.2,0.3,0.7,0.7,1c0.5,0.4,2.3,1.5,2.6,1c-0.8-0.8-2.4-1.4-3.2-2.1
			C44.2-8.2,44.2-8.2,44.1-8.1z"/>
		<path fill="#720018" d="M48-5.9c0.1,0.4,0.6,1.3,1.1,1C48.9-5.2,48.6-5.7,48-5.9z"/>
		<path fill="#720018" d="M50.5-4.2c-0.3-0.1-0.8-0.3-1.1-0.1c0.2,0.5,1,0.6,1.4,0.9c1.1,0.7,1.8,2,3.1,2.4
			C53.1-1.9,51.9-3.5,50.5-4.2z"/>
		<path fill="#720018" d="M120.1,37.9c-0.2,0.5-0.3,1,0.1,1.4C120.5,38.9,120.4,38.3,120.1,37.9C120.1,38,120.1,37.9,120.1,37.9z"/>
		<path fill="#720018" d="M118.5,41.3c0.2-0.3,0.1-0.5-0.2-0.7C118.2,40.9,118.3,41.1,118.5,41.3z"/>
		<path fill="#720018" d="M110.9,39.6c-0.7-0.2-1-0.4-1.6-0.5c0.9,0.7,2.2,0.9,3.2,1.1c0.7,0.1,1.3,0.1,2,0.2c0.3,0.1,0.7,0.4,1,0.2
			c-0.2-0.4-0.7-0.6-1.1-0.6C113.3,39.8,112,39.9,110.9,39.6z"/>
		<path fill="#720018" d="M115.5,43.5c0.6,0.3,1.1-0.8,0.7-1.3C115.6,42.4,116,43.1,115.5,43.5z"/>
		<path fill="#720018" d="M119.7-10.9C119.6-10.9,119.6-10.9,119.7-10.9c-0.4,0.3-0.3,0.8-0.1,1.1C119.9-10.1,119.8-10.5,119.7-10.9
			z"/>
		<path fill="#720018" d="M120.9-8.3c-0.4-0.4-0.9-0.4-1.2-0.9C119.1-8.6,120.5-7.8,120.9-8.3z"/>
		<path fill="#720018" d="M123.3-7.1c0.4-0.3,0.5-0.7,0.7-1c0-0.1-0.1-0.1-0.1-0.1c-0.7,0.7-2.4,1.3-3.2,2.1
			C121-5.6,122.8-6.7,123.3-7.1z"/>
		<path fill="#720018" d="M120.2-5.9c-0.6,0.1-0.9,0.6-1.1,1C119.6-4.6,120.1-5.5,120.2-5.9z"/>
		<path fill="#720018" d="M118.8-4.2c-0.3-0.3-0.8-0.1-1.1,0.1c-1.4,0.7-2.6,2.3-3.4,3.2c1.3-0.4,2-1.6,3.1-2.4
			C117.8-3.6,118.6-3.7,118.8-4.2z"/>
		<path fill="#720018" d="M48,38.1c-0.2,0.4-0.3,1,0,1.3C48.3,39,48.3,38.6,48,38.1C48.1,38,48,38.1,48,38.1z"/>
		<path fill="#720018" d="M49.6,41.4c0.2-0.2,0.4-0.4,0.2-0.7C49.6,40.9,49.5,41.1,49.6,41.4z"/>
		<path fill="#720018" d="M53.7,40.1c-0.4,0.1-0.9,0.2-1.1,0.6c0.4,0.2,0.7-0.1,1-0.2c0.7-0.1,1.3-0.1,2-0.2c1-0.2,2.3-0.4,3.2-1.1
			c-0.5,0.1-0.9,0.3-1.6,0.5C56.1,40,54.8,39.9,53.7,40.1z"/>
		<path fill="#720018" d="M52,42.3c-0.4,0.4,0.1,1.6,0.7,1.3C52.2,43.2,52.6,42.5,52,42.3z"/>
		<path fill="#720018" d="M95.1,37c0.2,0.4,0.4,0.8,0.8,1c0.2-0.4-0.3-0.7-0.4-1C95.3,37,95.2,37,95.1,37z"/>
		<path fill="#720018" d="M96.6,1.9c0.6,0.5,1,1.2,1.7,1.5c-0.7-1.5-2.1-2.4-3.5-3.3c0,0.1,0,0.2,0.1,0.3C95.4,1,96.1,1.4,96.6,1.9z
			"/>
		<path fill="#720018" d="M94.2,36.1c0.1,0.4,0.4,0.7,0.8,0.8C94.9,36.4,94.7,36.1,94.2,36.1z"/>
		<path fill="#720018" d="M89-2.4c2.6-0.2,3.6,1.2,5.1,1.7c-0.1-0.5-1-1.4-1.8-1.8c-1-0.4-3.5-0.9-4.2,0.2C88.6-2.2,88.7-2.4,89-2.4
			z"/>
		<path fill="#720018" d="M92.7,36.4c0,0.5,0.1,1,0.4,1.2C93.1,37.2,93.1,36.5,92.7,36.4z"/>
		<path fill="#720018" d="M93,25.3c-0.1-0.9,0-2-0.3-2.8C92.4,23.3,92.5,24.8,93,25.3z"/>
		<path fill="#720018" d="M92,22.7c-0.1-0.5-0.6-1.3-0.8-1.9C91.2,21.6,91.5,22.3,92,22.7z"/>
		<path fill="#720018" d="M91.8,16.5c-1.1,0-1.1,2.9-0.4,3.7C91.6,18.9,91.1,17.4,91.8,16.5z"/>
		<path fill="#720018" d="M89.8,17.7c0.2,0.4,0.3,0.8,0.6,1C90.7,18.3,90.3,17.8,89.8,17.7z"/>
		<path fill="#720018" d="M89.3,14.5c-0.3-0.9-0.6-1.9-1.1-2.6c-0.1,0-0.2,0-0.2,0c0,0.1,0,0.2,0.1,0.2c0.2,0.9,0.5,1.8,0.8,2.6
			c0.3,0.9,0.4,2,1,2.5C90.3,16.4,89.6,15.4,89.3,14.5z"/>
		<path fill="#720018" d="M83.5-0.4c1.4-0.2,3.1-0.9,3.4-1.8c-0.8-0.3-1.6,0.5-2.5,0.8C83.4-1,82-0.9,81-1
			C81.3-0.1,82.6-0.2,83.5-0.4z"/>
		<path fill="#720018" d="M82.6,4c-0.2,0.6,0.2,1.2,0.8,1.2C83.2,4.7,83.1,4.2,82.6,4z"/>
		<path fill="#720018" d="M82.6,22.4c-0.1,0.1,0,0.5,0.2,0.5C82.9,22.7,82.9,22.4,82.6,22.4z"/>
		<path fill="#720018" d="M82,6.6c0.5-0.6,1.5-0.1,2.1,0.2C84.4,5.7,81.7,5.5,82,6.6z"/>
		<path fill="#720018" d="M80.9,36.1c-0.1,0.4-0.4,1.3,0.2,1.4C81.1,37.1,81.4,36.4,80.9,36.1z"/>
		<path fill="#720018" d="M79.8-1.3c-0.4-0.6-1.4-0.9-2.1-1.1c-3.7-1-6.5,1.9-8.1,3.6c2-0.9,3.3-2.8,5.7-3.1
			C77.2-2,78.2-0.8,79.8-1.3z"/>
		<path fill="#720018" d="M77.7,11.5c-0.8,1.5-1.5,3.5-1.4,5.7c1.1-1.3,1.2-3.9,1.6-5.6C77.9,11.6,77.9,11.5,77.7,11.5z"/>
		<path fill="#720018" d="M76,18.1c-0.2,0.6-0.8,1.2-0.8,1.9c0.8-0.1,0.8-1.1,1-1.8C76.2,18.2,76.2,18.1,76,18.1z"/>
		<path fill="#720018" d="M74.7,21.4c-0.1,0.3-0.2,0.7-0.2,1.2C75,22.6,75,21.6,74.7,21.4z"/>
		<path fill="#720018" d="M74.3,19.6c0.1,0.5,0.1,1.1,0.1,1.8C74.8,21.1,74.8,19.7,74.3,19.6z"/>
		<path fill="#720018" d="M71.5,34.7c0.1-0.7-0.9-0.6-0.9,0C70.9,34.7,71.2,34.7,71.5,34.7z"/>
		<path fill="#720018" d="M70.5,34.4c-0.4-0.4-1.1,0.1-1.1,0.6C69.8,35.1,70.3,34.7,70.5,34.4z"/>
		<path fill="#720018" d="M69.7,31.6c0-0.3-0.1-0.4-0.3-0.4C69.4,31.5,69.4,31.7,69.7,31.6z"/>
		<path fill="#720018" d="M70.1,33.5c0-0.3,0-1.2-0.5-1.3C69.5,32.5,69.6,33.4,70.1,33.5z"/>
		<path fill="#720018" d="M128.3,38.6c-0.5-1.5-1.8-2.9-3.7-3.8c-1.2-0.5-2.5-1-3.4-0.9c-0.7,0.1-1.3,0.8-2,1.1
			c-0.9,0.4-2,0.3-3.1,0c-1.2-0.3-2.8-0.9-4.4-1.7c-1.2-0.6-2.5-1.2-3.6-1.9c-1.2-0.8-2.9-1.5-4.1-2.4c-0.3-0.2-0.4-0.5-0.7-0.7
			c-0.3-0.2-0.6-0.4-0.9-0.6c0-0.3,0.1-0.7,0.2-1.1c0.2-0.6,0.8-1.2,0.5-2c1.1-0.9,2.4-1.6,2.4-3.4c0-1.5-1.2-2.2-1.7-3.1
			c-0.6-1.3-1.1-3-1.2-4.4c0-0.1,0-0.3,0-0.4c0.7-0.5,1.5-1.1,2.2-1.6c0.8-0.6,1.6-1.2,2.4-1.8c0.8-0.6,1.5-1.3,2.3-1.8
			c0.9-0.5,1.9-0.7,2.8-1.1c0.7-0.3,1.3-0.8,1.9-1.1c0.4-0.2,0.9-0.3,1.3-0.5c0.7-0.3,1.2-0.8,1.8-1.2c1.4-0.8,3-1.2,4.5-1.6
			c0.7-0.2,1.4-0.1,2.2-0.7c0.1-0.1,0.2-0.1,0.2-0.2c0.2-0.2,0.5-0.5,0.7-0.8c0.1-0.1,0.1-0.2,0.2-0.3c0.2-0.2,0.3-0.3,0.5-0.5
			c0.1-0.1,0.2-0.2,0.2-0.3c0.1-0.2,0.1-0.5,0.2-0.8c0.3-0.6,0.9-1.1,1.4-1.7c0.9-1.2,1.5-2.1,0.9-3.7c-0.4-0.9-1.2-1.8-1.7-2.7
			c-0.9-1.3-1.6-2.4-2.6-3.1c-0.3-0.2-0.6-0.3-0.8-0.5c-0.4-0.3-0.5-0.7-0.8-0.8c-0.6-0.2-2.3-0.1-2.9,0.6c0,0-0.1,0.1-0.1,0.1
			c-1.4-1-3.5-0.8-5.1,0.6c-0.1,0-0.1,0.1-0.1,0.1c-1.4,1.5-0.3,3.7-1.4,5.3c-0.1,0.1-0.2,0.2-0.3,0.3c-0.2,0.2-0.5,0.5-0.8,0.7
			c-0.1,0.1-0.1,0.1-0.2,0.2c-0.6,0.7-1.2,1.4-1.9,2.1c-0.1,0.1-0.2,0.2-0.3,0.3c-0.1,0.1-0.2,0.2-0.3,0.3c-0.2,0.2-0.4,0.4-0.6,0.6
			c-0.1,0.1-0.2,0.2-0.3,0.3c-1.3,1.1-2.9,1.7-4.2,2.9c0,0,0,0,0,0c0,0,0,0,0,0c-0.3,0.3-0.3,0.5-0.7,0.8c-0.3,0.3-0.8,0.5-1.1,0.8
			c-0.1,0.1-0.1,0.1-0.2,0.2c-0.2,0.2-0.3,0.4-0.5,0.6c-0.3-0.5-0.6-1.1-0.9-1.6c-0.5-1.1-0.9-2.2-1.5-3.3c-0.8-1.5-2.2-3.2-3.3-4.4
			c-0.5-0.5-0.8-1.1-1.3-1.3c-1.2-0.6-3.1-1-4.7-1.5c-1.7-0.5-3.7-1-5.3-0.9c-0.5,0-1,0.2-1.6,0.2c-0.8,0-1.7-0.2-2.2-0.1
			C78.9-8.6,77-8.5,75.3-8c-1.9,0.5-3.5,1.5-4.6,2.6c-0.9,0.9-1.4,1.3-2.1,2.2c-0.3,0.4-0.7,0.8-0.9,1.2c-1,1.6-1.7,3.2-2.3,4.8
			c-0.2-0.1-0.4-0.3-0.6-0.5c-0.3-0.3-0.3-0.5-0.7-0.8c-1.3-1.2-3-1.8-4.2-2.9c-0.4-0.4-0.7-0.8-1.1-1.2c-0.8-0.8-1.5-1.6-2.2-2.4
			c-0.4-0.4-0.9-0.8-1.2-1.2c-1.2-1.6,0.1-3.9-1.5-5.4c-1.6-1.4-3.8-1.5-5.1-0.6c-0.5-0.8-2.4-1-3-0.8c-0.2,0.1-0.4,0.4-0.8,0.8
			c-0.2,0.2-0.6,0.3-0.8,0.5c-1,0.7-1.8,1.7-2.6,3.1c-0.6,0.9-1.3,1.7-1.7,2.7c-0.7,1.5,0,2.5,0.9,3.7c0.4,0.6,1,1.1,1.4,1.7
			c0.2,0.3,0.1,0.6,0.2,0.8c0.2,0.3,0.7,0.6,0.9,1c0.3,0.4,0.6,0.8,0.9,1c0.8,0.6,1.5,0.5,2.2,0.7c1.4,0.4,3.1,0.9,4.5,1.6
			c0.6,0.3,1.1,0.9,1.8,1.2c0.4,0.2,0.8,0.3,1.3,0.5c0.6,0.3,1.2,0.8,1.9,1.1c0.9,0.4,1.9,0.6,2.8,1.1c0.8,0.5,1.5,1.2,2.3,1.8
			c0.8,0.6,1.6,1.2,2.4,1.8c0.2,0.1,0.4,0.3,0.6,0.4c0,0.9-0.1,1.7-0.2,2.7c-0.1,0.5-0.3,0.9-0.3,1.3c0,0.3,0,0.8-0.1,1.2
			c-0.2,1.2-1,2.1-1.3,3.1c-0.3,1-0.3,2.2,0.3,3.3c0.3,0.5,1.2,0.9,1.3,1.5c0.2,1-0.4,2.3-0.2,3.3c0,0.3,0.2,0.6,0.3,0.9
			c-1.1,0.7-2.5,1.3-3.6,2c-1.1,0.7-2.4,1.3-3.6,1.9c-1.6,0.8-3.2,1.3-4.4,1.7c-1.1,0.3-2.2,0.4-3.1,0c-0.7-0.3-1.3-1-2-1.1
			c-0.9-0.1-2.3,0.4-3.4,0.9c-1.9,0.8-3.2,2.3-3.7,3.8c-0.1,0.5-0.1,1.1-0.2,1.5c0,0.5-0.2,1.1-0.2,1.5c0,3.3,2.8,6.1,5.3,6.8
			c0.6,0.2,1.3,0.5,1.8,0.6c0.6,0.1,1.3-0.1,2,0.1c0.1,0.7-0.3,1.2-0.1,2c0.3,1.2,1.5,2.1,2.4,2c0.6-0.1,1.4-0.6,2.2-0.8
			c0.7-0.2,1.4-0.1,2-0.3c0.8-0.4,2.2-1.7,2.9-2.4c0.8-0.8,1.4-1.4,1.8-2.3c0.5-1.1,0.6-2.4,1.3-3.5c0.4-0.6,1.1-1.2,1.7-1.9
			c0.5-0.7,0.7-1.5,1.2-2c0.7-0.9,1.7-1.8,2.8-2.6c0.3,0.9,0.5,1.9,0.5,2.6c0,0.7-0.5,1.5-0.4,2.2c0.3,1.5,2.8,1.8,4.1,2.6
			c0.8,0.5,1.5,1.2,2.2,1.8c0.8,0.6,1.4,1.5,2.2,1.8c1.8,0.7,4.7-0.1,6.9-0.3c2.8-0.2,5.9,0.5,8.3-0.2c2.8-0.8,4.6-2.4,6.7-3.9
			c1.6-1.1,2.4-1.4,2.4-3.6c0-1.3-0.1-2.9,0-4.3c1.8,1.2,3.4,2.5,4.5,3.8c0.4,0.5,0.7,1.3,1.2,2c0.5,0.7,1.2,1.3,1.7,1.9
			c0.7,1,0.8,2.4,1.3,3.5c0.4,0.9,1,1.5,1.8,2.3c0.7,0.6,2,2,2.9,2.4c0.6,0.2,1.2,0.1,2,0.3c0.7,0.2,1.6,0.8,2.2,0.8
			c0.5,0.1,1.2-0.2,1.7-0.7c0.4-0.4,0.7-0.8,0.8-1.4c0.2-0.8-0.3-1.3-0.1-2c0.7-0.2,1.3,0,2-0.1c0.5-0.1,1.1-0.4,1.8-0.6
			c1.1-0.3,2.3-1,3.2-2c1.2-1.2,2.1-2.9,2.1-4.8c0-0.5-0.2-1-0.2-1.5C128.4,39.6,128.4,39,128.3,38.6z M102.2,4.3
			c0.2-0.2,0.3-0.5,0.5-0.7c0.3-0.3,0.8-0.5,1.1-0.9c0.3-0.3,0.6-0.8,0.9-1c1-0.8,2.1-1.2,3.1-2c0.6-0.4,1.2-1.1,1.5-1.5
			c1-1,2.1-2,2.9-2.9c0.3-0.4,0.7-0.6,1-1c1.3-1.5,0.3-3.6,1.3-5.2c0.6-1,1.6-1.2,2.7-1.4c0.2,0,0.8-0.2,0.9-0.2
			c0.5,0.1,0.8,0.7,1.3,0.9c0.3-0.1,0.4-0.5,0.8-0.7c0.6-0.3,1.7-0.3,1.8,0c0.1,0.4-0.4,0.4-0.2,0.8c0.3,0.1,0.7-0.2,1-0.2
			c0.8,0.5,1.6,0.8,2.1,2c-0.3,0.3-0.8,0.6-0.8,1.1c0.5,0,0.7-0.3,0.9-0.6c0.5,0.1,0.9,0.9,0.9,1.4c1,0.7,1.5,1.9,1.3,2.7
			c-0.1,0.3,0,0.6,0,0.8c-0.2,1-0.7,1.3-1.6,2.1c-0.4,0.3-0.5,0.9-0.9,1.3c-0.9,0.9-2.5,0.5-3.4,1.5c0.5,0.6,1.4-0.5,1.9,0.1
			c-0.9,1-2,1.1-3.1,1.5c-1.1,0.4-2.3,0.7-3.4,1.3c-0.8,0.4-1.5,1-2.3,1.4c-0.7,0.4-1.6,0.6-2.3,1c-0.2,0.1-0.4,0.3-0.7,0.5
			c-0.7,0.3-2,0.6-2.7,0.9c-0.2,0.1-0.4,0.4-0.7,0.6c-0.9,0.6-1.9,1.2-2.8,1.9c-0.2,0.2-0.3,0.4-0.5,0.6c-0.7,0.7-1.6,1.2-2.4,1.7
			c0-1,0.1-2.1,0.1-3.1c0.2-0.2,0.5-0.4,0.7-0.6c0.6-0.5,1-1.2,1.5-1.7c0.3-0.2,0.6-0.4,0.8-0.7c1.1-1,2.8-2.4,4.1-3
			c1.5-0.8,2.7-1.9,3.6-3.2c-0.9,0.2-1.3,1.2-2,1.7c-0.3,0.2-0.7,0.5-1,0.7c-1.5,1-2.9,1.7-4.2,2.8c-0.3,0.3-0.6,0.7-1,0.9
			c-0.2,0.2-0.4,0.3-0.6,0.4c-0.3,0.2-0.4,0.6-0.7,0.8c-0.4,0.4-0.8,0.7-1.2,1c0-0.9-0.1-1.8-0.4-2.6c-0.1-0.3-0.2-0.6-0.3-0.8
			C102.1,4.5,102.2,4.4,102.2,4.3z M63.1,10.2c-0.2-0.2-0.3-0.4-0.5-0.6c-0.9-0.7-1.9-1.2-2.8-1.9c-0.2-0.2-0.4-0.4-0.7-0.6
			c-0.7-0.4-1.9-0.6-2.7-0.9c-0.3-0.1-0.4-0.3-0.7-0.5c-0.7-0.4-1.5-0.6-2.3-1c-0.8-0.4-1.5-1-2.3-1.4c-1.1-0.5-2.3-0.9-3.4-1.3
			c-1.1-0.4-2.2-0.5-3.1-1.5c0.5-0.6,1.4,0.5,1.9-0.1c-0.9-1-2.5-0.6-3.4-1.5c-0.4-0.3-0.5-0.9-0.9-1.3c-0.9-0.8-1.4-1-1.6-2.1
			c0-0.2,0-0.5,0-0.8c-0.1-0.8,0.3-2,1.3-2.7c0.1-0.5,0.5-1.3,0.9-1.4c0.2,0.3,0.4,0.6,0.9,0.6c0-0.4-0.4-0.7-0.8-1.1
			c0.6-1.2,1.4-1.6,2.1-2c0.3,0,0.7,0.3,1,0.2c0.2-0.5-0.3-0.4-0.2-0.8c0.1-0.3,1.1-0.4,1.8,0c0.4,0.2,0.5,0.6,0.8,0.7
			c0.5-0.2,0.8-0.8,1.3-0.9c0.1,0,0.7,0.2,0.9,0.2c1,0.2,2.1,0.4,2.7,1.4c1,1.6,0,3.7,1.3,5.2c0.3,0.3,0.7,0.6,1,1
			c0.8,0.9,1.9,1.9,2.9,2.9c0.4,0.4,0.9,1.1,1.5,1.5c1,0.7,2.1,1.2,3.1,2c0.3,0.3,0.6,0.7,0.9,1c0.3,0.2,0.6,0.4,0.9,0.6
			c-0.2,0.6-0.4,1.3-0.6,1.9c-0.2,0.5-0.3,1.1-0.4,1.6c-0.2-0.2-0.4-0.5-0.6-0.7c-0.2-0.2-0.4-0.3-0.6-0.4c-0.3-0.3-0.6-0.7-1-0.9
			C60.6,3.7,59.2,3,57.7,2c-0.3-0.2-0.7-0.5-1-0.7c-0.7-0.5-1-1.5-2-1.7c0.9,1.3,2.1,2.5,3.6,3.2c1.3,0.6,3,2,4.1,3
			c0.3,0.2,0.6,0.4,0.8,0.7c0.3,0.3,0.6,0.6,0.9,1c-0.1,1.1-0.1,2.2-0.1,3.4C63.6,10.7,63.4,10.5,63.1,10.2z M62.8,22.7
			c-0.6-1,0-2.3,0.5-3.3c0.3-0.6,0.4-1.3,0.6-1.9c0.3-1.3,0.9-2.6,1.2-3.9c0.4-1.7,0.3-3.3,0.7-4.7c0.5-2,0.9-3.6,1.5-5.3
			c-1.4,0.4-1.5,2.6-1.9,4.3c-0.3,1-0.7,1.9-0.7,2.9c-0.2-6.2,2.3-11.2,5.2-14.6c0.2-0.3,0.6-0.5,1-0.8C71.4-5,71.8-5.7,72.2-6
			c0.4-0.3,1.1-0.6,1.7-0.8c1.9-0.7,4-1.2,6.4-1.6c1.2-0.2,2.7-0.1,4-0.1c2.5,0.1,5.4,1.1,7.7,1.8c1.7,0.5,2.3,0.7,3.3,1.9
			c1.4,1.7,2.5,3.2,3.6,5.7c0.7,1.6,1.8,3.2,2.4,4.7c0.7,2,0.1,4.8,0.3,7.4c-0.2-2.6-1.3-4.4-1.7-6.7c0.2,2.3,0.8,4.5,1,6.9
			c0.2,1.8,0.6,3.6,1.5,4.8c0.7,1,2.9,3.2,1.2,4.7c-0.7,0.6-2.7,0.8-3.8,0.3c-0.6-0.3-0.9-0.8-1.6-0.9c-2.9-0.4-5.5,1.8-5.4,4.8
			c0,0.3,0.1,1.2-0.1,1.2c0-0.4,0.1-1-0.1-1.3c-0.3,0.3,0.1,0.9-0.2,1c-0.2-1-0.3-2.2-0.6-3c-0.4,0.4-0.2,1.2-0.1,1.8
			c-0.1,0.3-0.5-0.4-0.9-0.3c0.1-1.4-0.3-2.4-0.9-3.1c-0.3,0.6,0.5,1.4,0.4,2.3c-0.2,0.2-1-0.8-1.5-0.2c-0.5-1-0.7-2.3-1-3.6
			c-0.5,1.1,0.2,2.3,0.5,3.3c-0.3,0.1-1-0.9-1.8-0.4c-0.1-0.8-0.3-1.9-0.5-2.8c-0.7,0.6,0.3,1.8-0.1,2.6c-0.7-0.5-1.7-0.2-2.5,0
			c-0.3-1.3,0.8-1.8,0.7-2.9c-0.7,0.3-0.6,1.8-1.4,1.6c0.1,0.5,0.1,1.4,0,1.9c-0.9-0.3-1.7-0.8-2.8-0.6c0.1-0.7,0.5-1.4,0.2-2.2
			c-0.5,0.6-0.5,1.7-0.7,2.6c-0.6-0.1-1.7,0.2-1.9,0.5c0.1-1,0.5-1.8,0-2.6c-0.2,1-0.3,2-0.5,3c-0.5-0.3-1.1-0.3-1.5,0
			c-0.1-0.8,0.6-1.3,0.4-2.1c-0.7,0.8-0.6,2.4-1,3.6c-0.5-0.1-0.8,0.4-1,0.3c0.1-0.8,0.7-1.4,0.5-2.1c-0.5,0.7-0.7,1.8-0.9,2.8
			c-0.8-0.5-0.1-1.8,0-2.8c0.1-0.5,0-0.9,0-1.4c-0.2-0.2-0.3,0.2-0.3,0.4c-1.6-1-2.8-3.2-5.3-2.8c-0.2,0.4,0.3,0.5,0.2,0.6
			c-0.6,0.3-1.1,0.2-1.7,0.4C65.3,22.7,63.7,24,62.8,22.7z M102,24.2c-0.2,0.6-1.8,0.7-1.8-0.1C100.7,23.9,101.3,24.3,102,24.2z
			 M92.1,31.5c-0.1,0-0.3,0-0.4,0.2c-0.2-0.1-0.2-0.5-0.3-0.8c0.4,0.1,1.2,0.3,1.4-0.2c0.2,0.8,0.9,1.2,0.6,2.2
			C92.8,32.7,92.6,31.9,92.1,31.5z M93.3,34.5c-0.3,0-0.6,0-0.8-0.1c-0.2-0.3-0.2-1-0.1-1.4C93.2,33.1,93.3,33.7,93.3,34.5z
			 M91.8,34.4c-0.2-0.7,0-1.7-0.2-2.4C92.5,32.3,91.8,33.7,91.8,34.4z M90.9,31.2c0.4,0.6,0.4,1.7,0.4,2.7c-0.4-0.1-0.6-0.3-1.2-0.2
			C90.4,32.6,89.4,31.2,90.9,31.2z M87.3,33.5c0,0.5-0.9,0.4-1.3,0.3c-0.1-0.9-0.1-2.2-0.1-3c0.6,0.1,1.1,0.1,1.5,0.4
			c0.2,0.7,0.1,1.7-0.1,2.2C87.3,33.5,87,33.6,87.3,33.5z M83.2,27.8c-0.3-1.1,0.1-2.1,0.5-2.8c0.6-0.3,1.8-0.5,2.2,0.2
			c0.1,0.8,0.1,2,0.1,2.6C85.4,28.2,83.7,28.5,83.2,27.8z M85,34.1c-0.8,0.1-1.3-0.2-1.9-0.4c-0.2-0.9,0.1-1.9,0.2-2.8
			C85.1,29.5,85.7,32.6,85,34.1z M86.8,28.2c-0.2-0.9-0.2-1.9-0.1-2.9c1.6-0.4,1.8,1.7,2.2,2.9C88.5,28.9,87.3,28.6,86.8,28.2z
			 M88.6,31.2c1.1-0.2,1.5,4.2-0.5,2.8C88.5,33.2,87.7,31.3,88.6,31.2z M88.9,26.1c1.4-1.3,1.9,2.1,0.8,2.6
			C89.3,28,89.1,27,88.9,26.1z M90.8,29.2c0.2-0.7-0.2-1.5,0.1-2.2c1,0.2,1.6,1.6,0.9,2.6C91.5,29.4,91.2,29.2,90.8,29.2z
			 M92.5,29.1c0.2,0.4,0,1.2-0.3,1.4c-0.3-0.1-0.6-0.1-0.6-0.5C92.2,30,92.4,29.5,92.5,29.1z M77.7,34c-0.3,0.3-0.8,0.5-1.3,0.3
			c-0.3-1.1,0.1-3.5,1.5-2.9C78.3,32.3,77.7,33.3,77.7,34z M74.4,34.4C74.4,34.4,74.3,34.4,74.4,34.4c-0.7-0.2-0.9-2.6-0.2-2.8
			c0,0,0,0,0.1,0C74.8,32.2,74,33.5,74.4,34.4z M74,29.6c0-0.9-0.1-2.3,0.9-2c-0.2,0.7-0.1,1.4,0.2,2C74.8,29.8,74.2,29.8,74,29.6z
			 M75.2,31.3c0.4,0,0.6,0.3,0.9,0.5c0,0.8-0.3,1.3-0.3,2.2c-0.4-0.1-0.5,0.2-0.9,0.2C74.9,33.1,74.9,32.1,75.2,31.3z M75.8,29.6
			c-0.6-0.8-0.5-4.5,1.2-3.4C75.8,26.9,77.5,29.5,75.8,29.6z M77.1,28.2c0.3-1.3,0.6-2.6,2-2.8c0,1.1-0.6,1.8-0.2,2.9
			C78.5,28.5,77.4,28.9,77.1,28.2z M78.7,31.2c0.2-0.4,0.9-0.7,1.5-0.5c-0.2,1.1,0.2,3.8-1.2,3.7C77.8,34.3,78.9,32.3,78.7,31.2z
			 M79.6,27.6c-0.1-1,0.3-1.5,0.4-2.3c0.8-0.6,1.7,0,2.5,0.3c0.2,0.8,0,1.5,0.1,2.5C81.7,28.3,79.9,28.4,79.6,27.6z M80.9,30.7
			c0.7,0.2,1.2-0.1,1.7-0.1c0.1,1.1-0.1,2.5-0.5,3.4C80.7,34.1,80.6,32.1,80.9,30.7z M73.5,28.4c0,0.4,0,1.1,0.1,1.7
			C73,29.8,72.4,28.5,73.5,28.4z M73.5,34.4c-0.2,0.1-0.3,0.2-0.5,0.2c0-0.6,0-1.2,0.3-1.5C73.6,33.3,73.5,34.2,73.5,34.4z
			 M64.9,35.7c-0.3,0.2-0.6,0.4-0.8,0.6c-0.3,0.2-0.4,0.6-0.7,0.8c-1,0.8-1.8,1-2.1,2c-0.3,0.1-0.5,0.1-0.8,0.3
			c-0.1,0.3,0,0.8,0.2,1c0.8,0.3,1.2-1,1.9-0.9c-0.3,1.5-1.6,2.4-2.5,3.6c-1.5,1.9-1.1,4.7-3.7,6.2c-0.4-0.2-0.5-0.4-0.8-0.7
			c-0.2-0.1-0.9-0.3-1.1-0.6c-0.1-0.2,0.1-0.4,0.1-0.7c0-0.2-0.2-0.4-0.2-0.6c0-0.2,0-0.4-0.1-0.5c-0.1-0.2-0.3-0.4-0.4-0.5
			c-0.2-0.5,0.2-1.4-0.6-1.6c0.1,1-0.4,2.1,0.8,3.2c-0.2,0.5-0.7,0.7-0.5,1.2c0.2,0.6,1.1,0.9,1.2,1.5c-0.5,0.2-1,0.6-1.5,0.8
			c-0.3,0.2-0.8,0.4-1.3,0.6c-1,0.4-1.7,0.9-2.1,0c-0.3-0.7,0.8-1.5,0.6-2.2c-0.4-1.5-1.9-2-2.6-3.6c-0.2-0.4-0.3-1.1-0.4-1.7
			c-0.1-0.6-0.2-1.2-0.1-1.6c0.1-0.8,1-1.4,1.4-2.1c0.3,0.1,0,0.8,0.2,0.6c0-0.2,0-0.5,0-0.7c0.4-0.3,0.9-0.4,1.1-0.7
			c0.2-0.3-0.1-0.5,0.1-0.7c0.3-0.3,0.9-0.3,1.2-0.5c0.2-0.1,0.3-0.3,0.5-0.3c0.5-0.2,1.4,0.1,1.5-0.7c-0.3-0.3-0.6,0-0.9,0.1
			c-0.3,0.1-0.6,0-0.9,0.2c-1.3,0.6-2.3,1.6-3.3,2.2c-0.9,0.5-1.8,0.9-2.2,1.6c-0.6,1,0.3,2.7-0.3,3.6c-0.2,0.3-0.8,0.9-1.3,1
			c-0.3,0.1-0.6-0.2-1-0.2c-0.3,0-0.6,0.1-0.8,0c-0.4-0.2-0.9-0.8-1.2-1.3c-0.5-0.9-0.4-1.8-0.6-2.7c-0.1-0.3-0.3-0.6-0.4-0.9
			c-0.2-1,0.4-2.8,1.1-3.4c0.4-0.4,1-0.8,1.6-1.1c0.9-0.5,2.1-1,2.8-1.1c1-0.1,1.3,0.3,2.1,0.8c1,0.6,2.8,0.6,4.3,0.1
			c1.5-0.5,2.9-1,4.3-1.7c1.5-0.7,3.2-1.7,4.6-2.6c0.7-0.4,1.8-0.8,2.7-1.4c0.3,0.4,0.5,0.8,0.6,1.2c0.1,0.8-0.3,1.4-0.2,2.2
			c0.1,0.6,0.6,1.1,1,1.6C65.3,35.4,65.1,35.5,64.9,35.7z M66.4,33.9c-0.9-0.8-0.2-2.1-0.5-3.2c-0.1-0.3-0.4-0.6-0.5-0.9
			c-0.4-1-0.4-2.4-0.3-3.6c0.4-0.3,1.2-0.1,1.7,0C66.7,28.8,67,31.5,66.4,33.9z M64.5,24c1-0.3,1.8-0.8,2.9-1
			C67.8,24.5,65.4,25.5,64.5,24z M98.5,29.8c0,0.3,0.2,0.5,0.2,0.9c0,0.4-0.2,1-0.2,1.5c-0.1,2.3,0,5,0.1,7.1
			c0.1,1.5,0.4,2.8-0.8,3.6c-0.7,0.4-1.3,0.7-1.9,1.2c-2.1,1.7-4.8,3.5-8.7,3.3c-1.1,0-2.2-0.2-3.5-0.2c-1.2,0-2.3,0.2-3.7,0.3
			c-1.1,0.1-3,0.6-4.1,0.2c-0.6-0.2-1.3-1-1.9-1.5c-0.7-0.5-1.3-0.9-1.9-1.4c-1.4-1.1-2.7-1.4-4.3-2.2c-0.4-0.4,0.1-1,0.2-1.7
			c0.2-1.1-0.4-2.1-0.3-3.4c0.1-1.1-0.3-2.3-0.2-3.3c0-0.8,0.5-1.4,0.6-2.1c0.2-1.6-0.4-3.2,0.2-4.6c0.1-0.4-0.2,0-0.2-0.3
			c0.4-0.9-0.1-2.8,0.9-3.2c0,2.8-0.2,6.3,1.8,7.3c0.1,0.3,0.3,0.5,0.5,0.9c0.3,0.1,0.7,0.1,1,0.2c0,0.2,0.1,0.3,0.1,0.5
			c0.1,0.6,0.1,1.1,0,1.8c-0.2,0-0.3-0.3-0.5-0.1c-0.1,0.4,0.5,0.5,0.4,0.8c-1.2,0.4-3.1,1.6-2.5,3.6c0.2-1,0.5-1.9,1.2-2.3
			c0.3-0.1,0,0.3,0.2,0.2c0.4-0.3,0.5-0.8,1.1-0.9c-0.2,0.5-0.2,1.3-0.2,2c0.6-0.5,0.3-2,0.9-2.6c0.1,0-0.2,0.8,0.2,0.8
			c0.4-0.1,0.2-0.7,0.4-1c0.2-0.1,0.5-0.2,0.8-0.2c0,0.4,0,1.4,0.2,1.8c0.3-0.4,0-1.4,0.3-1.8c0.3-0.2,0.6-0.4,1.2-0.3
			c-0.4,0.5-0.3,1.5-0.3,2.4c0.5-0.4,0.3-1.6,0.7-2c0.5,0,1.2,0.1,1.4-0.2c0.4,0.9-0.4,1.5-0.2,2.5c0.3-0.1,0.2-0.6,0.3-0.9
			c0.2,0,0.1,0.4,0.4,0.3c0.3-0.5-0.1-1.4,0.1-1.9c0.2-0.1,1,0.5,1.5,0c0,0.4-0.1,0.9,0.2,1c0.7-0.2-0.1-1.6,0.4-1.9
			c0.6,0.4,1.3,1.3,2.3,0.8c-0.2,1.2-0.5,2.2-0.5,3.5c0.7-0.3,0.1-2.2,0.9-2.2c0.1-0.5,0-0.7,0-1.2c0.7,0,1,0.3,1.7,0.3
			c-0.1,0.5-0.6,1-0.2,1.4c0.5-0.2,0.3-1.1,0.8-1.3c-0.1,0.8,0.2,1.4,0.4,1.9c0.3-0.5,0-1.5,0-2.3c0.5,0,1.1,0.1,1.4,0.1
			c0.2,0.5-0.1,1.2,0.1,1.6c0.8-0.1,0.4-1.3,0.2-1.8c0.5,0.2,0.9,0.5,1.7,0.4c0.8,0.3,0.2,1.8,0.6,2.5c0.8-0.7,0.1-2.2-0.2-2.9
			c1.6-0.8,1.5,1.2,1.6,2.5c0.5-0.3,0.4-1.4,0.3-2c0.8-0.3,0.9,0.8,1.2,1.2c0.3-0.1,0.1-0.8,0.1-1.1c0.5,0,0.4,0.5,0.9,0.5
			c-0.1,0.6-0.1,1.8,0.5,1.9c0.2-0.5-0.1-1.2-0.2-1.8c1.1,0.1,2,0.8,2.8,0.9c0.3,0.1,0.2,0.6,0.5,0.6c0.2-0.3-0.3-0.6-0.3-0.9
			c-0.6-0.4-1.5-0.4-1.9-1c-0.5,0.1-0.8-0.1-1.2-0.3c-0.1-0.8,0.8-1.1,1.2-1.8c0.1-0.3,0-0.7,0.2-1.1c0.3-1.1,1.3-2,1.3-2.7
			c0-0.7-0.6-1.2-0.9-1.8c-0.2-1.1-0.6-3.1,0.2-3.8c2.1-0.8,2.2,2.2,4,2.3C99.3,27.5,98.4,28.2,98.5,29.8z M99.7,33.7
			c-0.5-2.7,0.5-5.6,1.9-7.1c0.1,0,0.1,0,0.2,0c0.2,1-0.3,1.9-0.7,2.9C100.5,31,100.5,32.6,99.7,33.7z M100,34.8
			C100,34.8,100,34.8,100,34.8c0-0.1,0.1-0.2,0.1-0.2c0.3,0.2,0.6,0.4,0.8,0.7C100.6,35.1,100.3,34.9,100,34.8z M127.5,40.4
			c-0.1,0.3-0.3,0.6-0.4,0.9c-0.3,0.9-0.1,1.8-0.6,2.7c-0.2,0.4-0.7,1-1.2,1.3c-0.2,0.1-0.5,0-0.8,0c-0.5,0-0.8,0.3-1,0.2
			c-0.4-0.1-1.1-0.6-1.3-1c-0.6-1,0.3-2.6-0.3-3.6c-0.4-0.7-1.2-1-2.2-1.6c-1.1-0.6-2-1.6-3.3-2.2c-0.3-0.1-0.6-0.1-0.9-0.2
			c-0.3,0-0.6-0.3-0.9-0.1c0,0.8,1,0.5,1.5,0.7c0.2,0.1,0.3,0.3,0.5,0.3c0.4,0.2,0.9,0.1,1.2,0.5c0.2,0.3-0.1,0.5,0.1,0.7
			c0.2,0.3,0.7,0.4,1.1,0.7c0.1,0.2,0,0.5,0,0.7c0.2,0.2,0-0.5,0.2-0.6c0.4,0.7,1.3,1.3,1.4,2.1c0,0.4,0,1.1-0.1,1.6
			c-0.1,0.6-0.2,1.3-0.4,1.7c-0.7,1.6-2.3,2.1-2.6,3.6c-0.2,0.8,0.9,1.6,0.6,2.2c-0.4,0.8-1.2,0.4-2.1,0c-0.5-0.2-1-0.4-1.3-0.6
			c-0.5-0.3-1-0.6-1.5-0.8c0.2-0.6,1-0.9,1.2-1.5c0.2-0.5-0.3-0.7-0.5-1.2c1.2-1.1,0.8-2.2,0.8-3.2c-0.8,0.2-0.4,1.1-0.6,1.6
			c-0.1,0.2-0.3,0.3-0.4,0.5c-0.1,0.1,0,0.3-0.1,0.5c0,0.2-0.2,0.4-0.2,0.6c0,0.3,0.2,0.6,0.1,0.7c-0.1,0.3-0.9,0.4-1.1,0.6
			c-0.4,0.2-0.5,0.4-0.8,0.7c-2.6-1.5-2.2-4.4-3.7-6.2c-0.9-1.1-2.2-2.1-2.5-3.6c0.7-0.1,1,1.2,1.9,0.9c0.2-0.2,0.2-0.7,0.2-1
			c-0.3-0.2-0.6-0.2-0.8-0.3c-0.3-1-1.1-1.2-2.1-2c-0.3-0.2-0.5-0.6-0.7-0.8c-0.2-0.2-0.5-0.4-0.8-0.6c-0.7-0.6-1.6-1.4-2.5-2.1
			c0.2-0.3,0.3-0.5,0.4-0.8c0.2-0.7,0.2-1.5,0.4-2.2c0.2-0.6,0.5-1.1,0.7-1.6c0-0.1,0-0.1,0-0.2c0.2,0.1,0.4,0.2,0.6,0.4
			c0.2,0.1,0.4,0.4,0.6,0.6c1,0.8,2.5,1.3,3.4,1.8c1.4,0.8,3,1.8,4.6,2.6c1.5,0.7,2.8,1.2,4.3,1.7c1.5,0.5,3.3,0.5,4.3-0.1
			c0.8-0.5,1.1-1,2.1-0.8c0.8,0.1,1.9,0.5,2.8,1.1c0.6,0.3,1.2,0.7,1.6,1.1C127.1,37.6,127.7,39.4,127.5,40.4z"/>
		<path fill="#720018" d="M66.9,14.1c1.8-0.4,3.8-0.2,5.4-0.8c1.6-0.5,3.3-1.7,4.4-2.6c1.5-1.2,2.9-2.3,2.8-4.9
			c0.8-0.3,1.6-1.8,1.1-2.7c-0.5,0.8-0.6,2-1.9,2c-1-1-1-2.7-2.3-3.2c-0.5-0.2-1.3-0.1-2-0.2c-0.6-0.1-1-0.2-1.5-0.2
			c-0.8,0.1-2,0.8-2.8,1.2c-0.8,0.5-1.9,0.9-2.5,1.5c-1.3,1.5-0.8,4.9-1.1,7.4c-0.1,0.6-0.3,1,0,1.6c-0.5,0.8-1.1,2-1.2,2.9
			C66.1,15.9,66.1,14.6,66.9,14.1z"/>
		<path fill="#720018" d="M87.6,14.4c0.1-2.2-1.5-4.9-2.2-5.9c-0.8,0.2-1.2,0-1.7-0.3c-0.3,0-0.3,0.6-0.6,0.4c0-0.5-0.3-0.8-0.7-0.9
			c-0.6,0-0.4,0.3-0.9,0.6c-0.3,0.2-0.6,0.2-0.7,0.3c-0.4,0.4-0.8,1.7-1.2,2.7c-0.3,0.8-1.1,2.1-1.2,2.9c-0.1,0.4,0.2,1,0.2,1.5
			c0,0.7-0.2,1.2-0.2,1.6c0.1,0.5,0.5,1,0.6,1.6c0.1,0.5-0.1,0.9,0.2,1.2c1.1,0.5,1.4-0.9,2.6-0.8c0.3-1,1.1-1.5,1.5-2.5
			c0.3,0.6,0.5,1.3,1,1.7c0.2,0.1,0.6,0.1,0.9,0.2c0.6,0.4,1.2,1.3,2,1.1c0.7-0.2,0.5-1.4,0.5-2.2c0-0.5,0.3-1,0.2-1.2
			c0-0.4-0.4-0.8-0.4-1.2C87.3,15.2,87.6,14.8,87.6,14.4z"/>
		<path fill="#720018" d="M85.3,4.1c-0.1,0.6,0.6,0.8,0.9,1.2c0.3,0.3,0.8,0.9,0.9,1.3c0.1,0.4-0.1,0.8,0,1.4
			c0.2,1.2,1.4,2.7,2.6,3.5c0.5,0.3,1,0.5,1.5,0.9c0.5,0.4,1,0.9,1.4,1c0.9,0.3,1.8,0.1,2.6,0.3c0.7,0.1,1.7,1,2.5,0.9
			c0.8,0,1.3-0.7,1.9-1.2c0.1-1-0.3-2.1-0.3-3c0-0.3,0.1-0.7,0.2-1.1c0-1-0.1-2.4-0.5-3.3c-0.7-1.5-2.3-2.2-3.9-2.9
			c-1.1-0.5-1.9-1.1-2.8-1.2c-0.7-0.1-2,0-2.7,0.2c-1.1,0.3-1.2,2.1-2.2,2.8C86.6,4.6,86.2,3.8,85.3,4.1z"/>
	</g>
</g>
</svg>
