<?xml version="1.0" encoding="utf-8"?>
<!-- Generator: Adobe Illustrator 16.0.0, SVG Export Plug-In . SVG Version: 6.00 Build 0)  -->
<!DOCTYPE svg PUBLIC "-//W3C//DTD SVG 1.1//EN" "http://www.w3.org/Graphics/SVG/1.1/DTD/svg11.dtd">
<svg version="1.1" id="Layer_1" xmlns="http://www.w3.org/2000/svg" xmlns:xlink="http://www.w3.org/1999/xlink" x="0px" y="0px"
	 width="612px" height="792px" viewBox="0 0 475 792" enable-background="new 0 0 612 792" xml:space="preserve">
<g>
	<defs>
		<rect id="SVGID_100UNIQUEback_1_" x="34.925" y="40.121" width="547" height="707.882"/>
	</defs>
	<clipPath id="SVGID_100UNIQUEback_2_">
		<use xlink:href="#SVGID_100UNIQUEback_1_"  overflow="visible"/>
	</clipPath>
	<g clip-path="url(#SVGID_100UNIQUEback_2_)">
		<defs>
			<rect id="SVGID_100UNIQUEback_3_" x="34.925" y="40.121" width="547" height="707.882"/>
		</defs>
		<clipPath id="SVGID_100UNIQUEback_4_">
			<use xlink:href="#SVGID_100UNIQUEback_3_"  overflow="visible"/>
		</clipPath>
    <g id="XYZ">
          <g id="BODY">
      		<path clip-path="url(#SVGID_100UNIQUEback_8_)" fill="#C64421" d="M447.752,121.851c0,0-16.266-5.422-39.157-14.458
			c-13.276-5.242-25.12-12.906-33.325-18.896c-16.363-3.625-39.924-7.436-66.672-7.436c-28.954,0-53.438,4.957-69.198,9.242
			c-8.027,5.664-18.837,12.363-30.812,17.09c-22.891,9.036-39.157,14.458-39.157,14.458s-0.533,0.386-1.362,0.959v0.004
			c0.009,0.46,0.022,0.969,0.038,1.513c0.001,0.044,0.003,0.089,0.004,0.133c0.008,0.254,0.016,0.516,0.026,0.784
			c0,0.017,0,0.032,0,0.047c0.01,0.282,0.022,0.571,0.032,0.867c0.002,0.058,0.005,0.116,0.007,0.175
			c0.01,0.237,0.021,0.48,0.031,0.726c0.004,0.075,0.006,0.148,0.01,0.225c0.015,0.3,0.028,0.604,0.044,0.913
			c0.002,0.04,0.005,0.08,0.007,0.12c0.013,0.268,0.028,0.538,0.044,0.811c0.006,0.096,0.012,0.191,0.018,0.287
			c0.015,0.259,0.032,0.519,0.048,0.781c0.004,0.061,0.008,0.121,0.011,0.181c0.021,0.317,0.044,0.635,0.067,0.952
			c0.006,0.087,0.014,0.173,0.02,0.259c0.019,0.244,0.039,0.487,0.059,0.731c0.008,0.097,0.016,0.194,0.023,0.292
			c0.028,0.318,0.056,0.636,0.086,0.952c0.003,0.036,0.006,0.071,0.01,0.105c0.028,0.285,0.056,0.567,0.086,0.848
			c0.011,0.096,0.021,0.191,0.032,0.285c0.026,0.25,0.055,0.497,0.084,0.743c0.009,0.07,0.016,0.142,0.025,0.211
			c0.038,0.305,0.077,0.605,0.117,0.902c0.01,0.072,0.021,0.143,0.031,0.214c0.033,0.234,0.066,0.466,0.103,0.694
			c0.013,0.082,0.025,0.166,0.039,0.246c0.046,0.289,0.094,0.572,0.144,0.847c1.283,7.053,8.335,33.022,9.939,40.716
			c1.603,7.695,8.977,48.411,9.938,53.22c0.066,0.33,0.125,0.677,0.181,1.034c0.004,0.029,0.008,0.06,0.013,0.09
			c0.049,0.333,0.095,0.676,0.135,1.027c0.004,0.038,0.009,0.074,0.014,0.112c0.04,0.354,0.076,0.716,0.108,1.081
			c0.002,0.026,0.005,0.053,0.007,0.08c0.033,0.389,0.062,0.781,0.088,1.174c0,0.006,0,0.011,0,0.017
			c0.025,0.389,0.045,0.778,0.063,1.164c0.001,0.031,0.002,0.063,0.003,0.095c0.017,0.365,0.031,0.727,0.04,1.083l0.003,0.095
			c0.011,0.369,0.02,0.732,0.025,1.083c0,0.006,0,0.013,0.001,0.019c0.005,0.368,0.008,0.724,0.01,1.064
			c0.019-0.048,0.031-0.076,0.031-0.076s3.614,19.278,3.011,27.108c-0.602,7.833,3.616,56.629,6.627,71.689
			c3.012,15.062,6.626,53.617,3.615,69.882c-1.021,5.514-2.527,14.148-4.142,23.873c0.196-0.021,0.388-0.053,0.585-0.07
			c0.527-0.468,1.199-0.851,2.042-1.099c1.974-0.582,3.892-0.908,5.819-0.979c20.588-3.123,41.356-2.544,62.127-2.117
			c0.792-0.899,1.965-1.513,3.521-1.549c0.393-0.01,0.779,0.004,1.168,0.026c7.771,0.129,15.515,0.896,23.275,1.216
			c0.789-1.016,2.023-1.704,3.712-1.689c6.374,0.061,12.709,0.703,19.049,1.285c0.845-1.131,2.129-1.883,3.743-1.731
			c12.56,1.171,24.998-1.87,37.505,0.622c0.066,0.013,0.117,0.039,0.182,0.056c0.753-0.643,1.745-1.067,2.98-1.125
			c17.279-0.796,35.734,0.884,52.201,6.937c-0.995-9.462-1.818-17.711-2.919-23.655c-3.012-16.265,0.603-54.82,3.615-69.882
			c3.012-15.06,7.229-63.856,6.627-71.689c-0.519-6.736,2.082-21.935,2.819-26.052c-0.014-2.765,0.079-7.131,0.691-10.198
			c0.962-4.809,8.336-45.525,9.939-53.22c1.602-7.694,8.655-33.663,9.938-40.716c0.904-4.978,1.171-12.186,1.249-16
			C448.189,122.167,447.752,121.851,447.752,121.851z"/>

    </g>
    </g>
    <g id="SHORT_MASK">
          <g id="BOTTOM">
      		<path clip-path="url(#SVGID_100UNIQUEback_10_)" fill="#BF2A43" d="M456.982,619.676c-1.074-14.306-6.645-33.849-7.129-37.647
			c-0.538-4.235-5.841-36.593-5.841-36.593s-17.502-56.6-18.397-59.287c-0.896-2.688-0.449-17.027-0.896-19.269
			c-0.449-2.239-3.135-8.514-3.135-10.754c0-2.242-0.45-11.649-0.898-13.89c-0.448-2.241-1.792-7.618-1.792-7.618
			s-12.098-4.034-26.885-6.274c-14.786-2.241-140.697,0.896-155.485,0.896s-38.536,3.586-38.536,3.586v12.099
			c0,1.792-0.894,10.754-0.894,12.546s-1.792,3.137-1.792,5.825c0,2.688-2.69,7.17-2.69,11.202s-1.344,11.203-1.791,13.891
			c-0.449,2.688-2.241,13.89-2.241,17.475c0,3.586-12.547,42.568-14.787,48.842c-2.239,6.272-8.065,46.601-10.755,60.938
			c-2.688,14.34,0.896,58.7,2.689,64.526c1.793,5.826,4.032,32.261,4.032,32.261s-0.448,6.723-0.448,9.411
			c0,2.688,2.689,5.378,2.689,5.378s9.409,4.48,34.95,5.376c21.516,0.755,49.068-5.803,57.22-7.889
			c0.983-3.621,3.191-11.18,4.912-12.902c2.285-2.283,3.143-7.139,3.143-7.139s-0.286-4.854,1.427-9.138
			c1.714-4.285,19.707-46.549,21.419-55.688c1.714-9.138,7.139-25.129,7.139-25.129s4.569-1.144,7.14-1.714
			c2.57-0.572,7.997,0.57,7.997,0.57s2.854,9.14,3.142,13.994c0.285,4.854,7.424,38.552,11.138,45.69
			c3.711,7.141,11.992,26.56,11.992,28.559s-0.57,6.283,0.571,9.709c0.44,1.318,1.047,3.143,1.631,4.889
			c5.487,1.695,15.852,4.253,31.401,7.674c22.404,4.93,59.148,1.791,62.732,0.895c3.586-0.895,8.514-4.031,8.514-4.031
			s6.724-36.298,7.171-51.083C456.045,656.357,458.325,637.599,456.982,619.676"/>

    </g>
    </g>
    <g id="CUSTOM"></g>
		<path clip-path="url(#SVGID_100UNIQUEback_4_)" fill="#FDBB2D" d="M441.822,209.884c-0.005,0.019-0.007,0.031-0.007,0.031
			S441.817,209.901,441.822,209.884"/>
    <g id="SLEEVES">
      		<path clip-path="url(#SVGID_100UNIQUEback_4_)" fill="#004D86" d="M189.872,240.745v-0.019c-0.005-0.351-0.014-0.714-0.025-1.083l-0.002-0.095
			c-0.01-0.356-0.024-0.718-0.041-1.083c-0.001-0.032-0.002-0.065-0.003-0.096c-0.018-0.385-0.039-0.773-0.063-1.163
			c0-0.005,0-0.011,0-0.017c-0.026-0.393-0.055-0.785-0.089-1.174c-0.001-0.027-0.004-0.053-0.006-0.08
			c-0.033-0.365-0.068-0.726-0.108-1.08c-0.004-0.039-0.009-0.075-0.014-0.113c-0.04-0.351-0.085-0.694-0.135-1.027
			c-0.005-0.029-0.009-0.061-0.014-0.09c-0.054-0.357-0.114-0.703-0.18-1.034c-0.962-4.808-8.336-45.525-9.938-53.22
			c-1.603-7.694-8.656-33.663-9.939-40.716c-0.05-0.274-0.097-0.559-0.144-0.847c-0.012-0.081-0.025-0.164-0.039-0.246
			c-0.035-0.229-0.07-0.459-0.103-0.694c-0.01-0.071-0.021-0.142-0.031-0.214c-0.04-0.297-0.08-0.597-0.117-0.902
			c-0.009-0.07-0.016-0.142-0.025-0.211c-0.029-0.246-0.058-0.493-0.084-0.743c-0.011-0.094-0.021-0.189-0.032-0.284
			c-0.029-0.282-0.058-0.564-0.085-0.85c-0.004-0.034-0.007-0.069-0.011-0.105c-0.03-0.316-0.057-0.634-0.085-0.952
			c-0.008-0.098-0.016-0.195-0.023-0.291c-0.021-0.244-0.04-0.488-0.059-0.732c-0.006-0.086-0.013-0.173-0.02-0.258
			c-0.023-0.319-0.046-0.636-0.067-0.953c-0.004-0.061-0.007-0.12-0.011-0.181c-0.017-0.262-0.033-0.522-0.049-0.781
			c-0.005-0.095-0.01-0.191-0.017-0.287c-0.016-0.273-0.03-0.544-0.044-0.811c-0.002-0.039-0.004-0.08-0.006-0.119
			c-0.016-0.311-0.03-0.614-0.045-0.914c-0.003-0.077-0.006-0.15-0.009-0.225c-0.011-0.246-0.022-0.488-0.031-0.725
			c-0.003-0.06-0.005-0.117-0.008-0.175c-0.011-0.296-0.022-0.585-0.033-0.867c0-0.016,0-0.031,0-0.047
			c-0.011-0.269-0.019-0.53-0.026-0.784c-0.001-0.045-0.003-0.089-0.004-0.133c-0.016-0.544-0.028-1.052-0.038-1.514
			c0-0.001,0-0.002-0.001-0.004c-2.128,1.469-6.277,4.2-8.878,5.066c-3.615,1.205-24.098,16.868-30.122,37.954
			c-6.024,21.085-7.229,72.893-7.229,72.893l-1.807,9.036l-1.807,5.423c0,0,21.086,5.421,39.158,6.626
			c18.074,1.205,29.52,1.205,29.52,1.205s1.204-1.205,0.603-4.819c-0.603-3.616-1.206-4.821-0.603-6.627
			c0.563-1.689,2.705-7.063,2.982-7.756C189.881,241.47,189.877,241.113,189.872,240.745"/>
		<path clip-path="url(#SVGID_100UNIQUEback_4_)" fill="#004D86" d="M497.152,247.758l-1.808-9.036c0,0-1.205-51.809-7.229-72.894
			s-26.507-36.749-30.122-37.954c-2.689-0.896-7.044-3.793-9.098-5.217c-0.078,3.815-0.345,11.022-1.249,16
			c-1.283,7.053-8.337,33.022-9.938,40.716c-1.604,7.695-8.978,48.411-9.939,53.22c-0.612,3.065-0.705,7.433-0.691,10.197
			c0.12-0.668,0.193-1.056,0.193-1.056s2.409,6.024,3.011,7.832c0.603,1.807,0,3.012-0.602,6.627
			c-0.603,3.613,0.602,4.819,0.602,4.819s11.446,0,29.52-1.206c18.073-1.205,39.157-6.626,39.157-6.626L497.152,247.758z"/>
    </g>

	</g>
	<g id="COLLAR" clip-path="url(#SVGID_100UNIQUEback_2_)">
		<defs>
			<rect id="SVGID_100UNIQUEback_5_" x="34.925" y="40.121" width="547" height="707.882"/>
		</defs>
		<clipPath id="SVGID_100UNIQUEback_6_">
			<use xlink:href="#SVGID_100UNIQUEback_5_"  overflow="visible"/>
		</clipPath>
		<path clip-path="url(#SVGID_100UNIQUEback_6_)" fill="#FDBB2D" d="M375.27,88.496c-0.727-0.529-1.434-1.05-2.1-1.55
			c-4.798-3.6-8.044-6.377-9.156-7.265c-3.01-2.411-3.01-4.217-6.022-6.025c-3.013-1.807-4.218-7.229-10.242-10.242
			c-3.834-1.917-21.089-2.614-33.128-2.867l-0.005-0.145c0,0-2.368,0.001-6.024,0.046c-3.656-0.045-6.024-0.046-6.024-0.046
			l-0.005,0.145c-12.04,0.253-29.295,0.951-33.129,2.867c-6.025,3.013-7.229,8.435-10.241,10.242
			c-3.013,1.808-3.013,3.614-6.024,6.025c-0.885,0.708-3.128,2.615-6.425,5.179c-2.057,1.599-4.533,3.458-7.344,5.442
			c15.76-4.285,40.244-9.241,69.198-9.241C335.346,81.061,358.906,84.872,375.27,88.496"/>
	</g>
	<g clip-path="url(#SVGID_100UNIQUEback_2_)">
		<defs>
			<rect id="SVGID_100UNIQUEback_7_" x="34.925" y="40.121" width="547" height="707.882"/>
		</defs>
		<clipPath id="SVGID_100UNIQUEback_8_">
			<use xlink:href="#SVGID_100UNIQUEback_7_"  overflow="visible"/>
		</clipPath>
	</g>
	<g clip-path="url(#SVGID_100UNIQUEback_2_)">
		<defs>
			<rect id="SVGID_100UNIQUEback_9_" x="34.925" y="40.121" width="547" height="707.882"/>
		</defs>
		<clipPath id="SVGID_100UNIQUEback_10_">
			<use xlink:href="#SVGID_100UNIQUEback_9_"  overflow="visible"/>
		</clipPath>
	</g>
	<g clip-path="url(#SVGID_100UNIQUEback_2_)">
		<defs>
			<rect id="SVGID_100UNIQUEback_11_" x="34.925" y="40.121" width="547" height="707.882"/>
		</defs>
		<clipPath id="SVGID_100UNIQUEback_12_">
			<use xlink:href="#SVGID_100UNIQUEback_11_"  overflow="visible"/>
		</clipPath>
    <g id="CROTCH">
      		<path clip-path="url(#SVGID_100UNIQUEback_12_)" fill="#FDBB2D" d="M343.617,701.81c0-1.999-8.281-21.418-11.992-28.559
			c-3.714-7.138-10.853-40.836-11.138-45.69c-0.287-4.854-3.143-13.994-3.143-13.994s-5.426-1.143-7.996-0.57
			c-2.57,0.57-7.14,1.714-7.14,1.714s-5.425,15.991-7.139,25.129c-1.712,9.14-19.705,51.403-21.418,55.688
			c-1.714,4.283-1.428,9.138-1.428,9.138s-0.857,4.855-3.143,7.139c-1.721,1.723-3.929,9.281-4.912,12.902
			c1.525-0.391,2.375-0.625,2.375-0.625s2.689-0.448,4.93-0.897s3.136-8.512,3.136-8.512s1.791-2.689,2.24-4.482
			c0.447-1.793,0.896-8.514,0.896-8.514s16.581-41.222,20.165-52.874c3.585-11.648,8.064-32.263,8.064-32.263l7.17-0.896
			c0,0,2.241,5.827,2.241,12.1c0,6.273,10.753,43.015,13.44,50.185c2.689,7.169,10.308,25.539,10.308,25.539s0.447,9.86,2.24,11.203
			c0.548,0.411,2.024,0.992,4.444,1.737c-0.584-1.745-1.19-3.57-1.631-4.889C343.047,708.093,343.617,703.809,343.617,701.81"/>

    </g>
	</g>
	<g clip-path="url(#SVGID_100UNIQUEback_2_)">
		<defs>
			<rect id="SVGID_100UNIQUEback_13_" x="34.925" y="40.121" width="547" height="707.882"/>
		</defs>
		<clipPath id="SVGID_100UNIQUEback_14_">
			<use xlink:href="#SVGID_100UNIQUEback_13_"  overflow="visible"/>
		</clipPath>
		<path clip-path="url(#SVGID_100UNIQUEback_14_)" d="M168.33,129.414c0.015,0.259,0.033,0.52,0.049,0.781
			C168.362,129.934,168.345,129.673,168.33,129.414"/>
		<path clip-path="url(#SVGID_100UNIQUEback_14_)" d="M168.269,128.316c0.014,0.267,0.029,0.538,0.044,0.811
			C168.298,128.854,168.283,128.583,168.269,128.316"/>
		<path clip-path="url(#SVGID_100UNIQUEback_14_)" d="M189.872,240.727v0.019V240.727z"/>
		<path clip-path="url(#SVGID_100UNIQUEback_14_)" d="M168.217,127.283c0.015,0.3,0.028,0.605,0.044,0.915
			C168.246,127.888,168.232,127.583,168.217,127.283"/>
		<path clip-path="url(#SVGID_100UNIQUEback_14_)" d="M168.11,124.459c0.008,0.255,0.016,0.516,0.025,0.785
			C168.126,124.975,168.118,124.714,168.11,124.459"/>
		<path clip-path="url(#SVGID_100UNIQUEback_14_)" d="M168.177,126.333c0.009,0.239,0.02,0.48,0.031,0.726
			C168.197,126.813,168.186,126.57,168.177,126.333"/>
		<path clip-path="url(#SVGID_100UNIQUEback_14_)" d="M168.068,122.813c0.009,0.461,0.022,0.968,0.038,1.513
			C168.091,123.782,168.078,123.273,168.068,122.813"/>
		<path clip-path="url(#SVGID_100UNIQUEback_14_)" d="M189.883,241.81"/>
		<path clip-path="url(#SVGID_100UNIQUEback_14_)" d="M168.137,125.291c0.011,0.282,0.021,0.572,0.033,0.867
			C168.158,125.862,168.147,125.572,168.137,125.291"/>
		<path clip-path="url(#SVGID_100UNIQUEback_14_)" d="M168.39,130.376c0.021,0.317,0.044,0.634,0.067,0.953
			C168.434,131.011,168.411,130.693,168.39,130.376"/>
		<path clip-path="url(#SVGID_100UNIQUEback_14_)" d="M168.772,134.8c0.026,0.25,0.055,0.497,0.085,0.744
			C168.827,135.298,168.798,135.05,168.772,134.8"/>
		<path clip-path="url(#SVGID_100UNIQUEback_14_)" d="M169.029,136.871c0.033,0.235,0.068,0.466,0.103,0.693
			C169.097,137.336,169.062,137.105,169.029,136.871"/>
		<path clip-path="url(#SVGID_100UNIQUEback_14_)" d="M168.881,135.754c0.038,0.305,0.076,0.606,0.117,0.903
			C168.958,136.36,168.919,136.059,168.881,135.754"/>
		<path clip-path="url(#SVGID_100UNIQUEback_14_)" d="M189.642,235.936c0.002,0.027,0.004,0.053,0.007,0.08
			C189.646,235.989,189.644,235.963,189.642,235.936"/>
		<path clip-path="url(#SVGID_100UNIQUEback_14_)" d="M189.52,234.743c0.004,0.038,0.009,0.074,0.014,0.112
			C189.529,234.817,189.524,234.781,189.52,234.743"/>
		<path clip-path="url(#SVGID_100UNIQUEback_14_)" d="M169.171,137.812c0.046,0.288,0.094,0.571,0.144,0.846
			C169.265,138.382,169.217,138.099,169.171,137.812"/>
		<path clip-path="url(#SVGID_100UNIQUEback_14_)" d="M168.655,133.667c0.027,0.284,0.056,0.567,0.086,0.849
			C168.711,134.235,168.682,133.952,168.655,133.667"/>
		<path clip-path="url(#SVGID_100UNIQUEback_14_)" d="M168.477,131.587c0.019,0.244,0.038,0.488,0.059,0.731
			C168.514,132.075,168.496,131.831,168.477,131.587"/>
		<path clip-path="url(#SVGID_100UNIQUEback_14_)" d="M189.371,233.626c0.005,0.03,0.009,0.06,0.014,0.09
			C189.38,233.686,189.376,233.657,189.371,233.626"/>
		<path clip-path="url(#SVGID_100UNIQUEback_14_)" d="M189.8,238.369c0.001,0.032,0.002,0.063,0.003,0.096
			C189.802,238.433,189.801,238.401,189.8,238.369"/>
		<path clip-path="url(#SVGID_100UNIQUEback_14_)" d="M168.559,132.61c0.027,0.318,0.056,0.635,0.085,0.952
			C168.615,133.246,168.586,132.928,168.559,132.61"/>
		<path clip-path="url(#SVGID_100UNIQUEback_14_)" d="M189.736,237.19c0,0.005,0,0.012,0.001,0.017
			C189.736,237.202,189.736,237.195,189.736,237.19"/>
		<path clip-path="url(#SVGID_100UNIQUEback_14_)" d="M189.844,239.547l0.002,0.095L189.844,239.547z"/>
		<path clip-path="url(#SVGID_100UNIQUEback_14_)" d="M189.736,237.19c-0.025-0.393-0.055-0.786-0.088-1.174
			C189.682,236.404,189.711,236.798,189.736,237.19"/>
		<path clip-path="url(#SVGID_100UNIQUEback_14_)" d="M189.883,241.81c-0.002-0.34-0.005-0.696-0.012-1.064
			C189.877,241.113,189.881,241.47,189.883,241.81"/>
		<path clip-path="url(#SVGID_100UNIQUEback_14_)" d="M189.371,233.626c-0.055-0.356-0.113-0.704-0.18-1.033
			C189.258,232.923,189.316,233.27,189.371,233.626"/>
		<path clip-path="url(#SVGID_100UNIQUEback_14_)" d="M189.872,240.727c-0.005-0.352-0.014-0.714-0.025-1.084
			C189.857,240.013,189.866,240.375,189.872,240.727"/>
		<path clip-path="url(#SVGID_100UNIQUEback_14_)" d="M189.8,238.369c-0.018-0.385-0.038-0.774-0.063-1.163
			C189.762,237.595,189.782,237.984,189.8,238.369"/>
		<path clip-path="url(#SVGID_100UNIQUEback_14_)" d="M189.844,239.547c-0.011-0.356-0.023-0.717-0.04-1.082
			C189.82,238.831,189.833,239.192,189.844,239.547"/>
		<path clip-path="url(#SVGID_100UNIQUEback_14_)" d="M189.52,234.743c-0.04-0.351-0.086-0.693-0.135-1.027
			C189.434,234.05,189.48,234.393,189.52,234.743"/>
		<path clip-path="url(#SVGID_100UNIQUEback_14_)" d="M189.642,235.936c-0.032-0.365-0.068-0.726-0.108-1.08
			C189.573,235.21,189.609,235.571,189.642,235.936"/>
		<path clip-path="url(#SVGID_100UNIQUEback_14_)" d="M168.772,134.8c-0.011-0.094-0.021-0.189-0.032-0.284
			C168.751,134.612,168.761,134.706,168.772,134.8"/>
		<path clip-path="url(#SVGID_100UNIQUEback_14_)" d="M168.137,125.291c0-0.016,0-0.032,0-0.046C168.137,125.259,168.137,125.274,168.137,125.291"
			/>
		<path clip-path="url(#SVGID_100UNIQUEback_14_)" d="M168.177,126.333c-0.002-0.058-0.005-0.117-0.007-0.175
			C168.171,126.216,168.174,126.274,168.177,126.333"/>
		<path clip-path="url(#SVGID_100UNIQUEback_14_)" d="M168.269,128.316c-0.002-0.039-0.005-0.08-0.007-0.119
			C168.264,128.236,168.266,128.277,168.269,128.316"/>
		<path clip-path="url(#SVGID_100UNIQUEback_14_)" d="M168.217,127.283c-0.003-0.075-0.006-0.149-0.01-0.225
			C168.211,127.133,168.214,127.208,168.217,127.283"/>
		<polyline clip-path="url(#SVGID_100UNIQUEback_14_)" points="168.068,122.809 168.068,122.813 168.068,122.809 		"/>
		<path clip-path="url(#SVGID_100UNIQUEback_14_)" d="M168.11,124.459c0-0.045-0.002-0.089-0.003-0.132
			C168.108,124.37,168.11,124.414,168.11,124.459"/>
		<path clip-path="url(#SVGID_100UNIQUEback_14_)" d="M169.171,137.812c-0.014-0.081-0.026-0.165-0.039-0.248
			C169.145,137.647,169.157,137.729,169.171,137.812"/>
		<path clip-path="url(#SVGID_100UNIQUEback_14_)" d="M168.655,133.667c-0.003-0.036-0.007-0.071-0.011-0.105
			C168.648,133.597,168.651,133.632,168.655,133.667"/>
		<path clip-path="url(#SVGID_100UNIQUEback_14_)" d="M168.881,135.754c-0.008-0.069-0.017-0.14-0.024-0.21
			C168.865,135.614,168.873,135.685,168.881,135.754"/>
		<path clip-path="url(#SVGID_100UNIQUEback_14_)" d="M169.029,136.871c-0.01-0.071-0.021-0.142-0.031-0.214
			C169.009,136.729,169.019,136.799,169.029,136.871"/>
		<path clip-path="url(#SVGID_100UNIQUEback_14_)" d="M168.477,131.587c-0.006-0.086-0.013-0.173-0.02-0.259
			C168.463,131.415,168.471,131.5,168.477,131.587"/>
		<path clip-path="url(#SVGID_100UNIQUEback_14_)" d="M168.559,132.61c-0.008-0.097-0.017-0.194-0.024-0.291
			C168.542,132.417,168.551,132.513,168.559,132.61"/>
		<path clip-path="url(#SVGID_100UNIQUEback_14_)" d="M168.39,130.376c-0.003-0.06-0.007-0.12-0.012-0.182
			C168.383,130.256,168.386,130.315,168.39,130.376"/>
		<path clip-path="url(#SVGID_100UNIQUEback_14_)" d="M168.33,129.414c-0.005-0.095-0.012-0.192-0.017-0.288
			C168.318,129.222,168.325,129.318,168.33,129.414"/>
		<g opacity="0.03" clip-path="url(#SVGID_100UNIQUEback_14_)">
			<g>
				<defs>
					<rect id="SVGID_100UNIQUEback_15_" x="130.235" y="79.784" width="355.199" height="652.821"/>
				</defs>
				<clipPath id="SVGID_100UNIQUEback_16_">
					<use xlink:href="#SVGID_100UNIQUEback_15_"  overflow="visible"/>
				</clipPath>
				<path clip-path="url(#SVGID_100UNIQUEback_16_)" d="M257.842,79.784c-1.658,1.878-2.514,3.871-3.935,4.732
					c-2.146,1.304-2.14,2.596-4.285,4.329c-2.146,1.733-15.438,13.427-31.771,19.967c-16.333,6.54-27.941,10.474-27.941,10.474
					s-0.312,0.229-0.815,0.581c0.07,2.727,0.287,7.879,0.951,11.434c0.941,5.037,6.075,23.577,7.249,29.071
					c1.172,5.495,6.588,34.575,7.291,38.008c0.451,2.19,0.532,5.311,0.531,7.287c0.541,2.941,2.455,13.797,2.109,18.614
					c-0.404,5.602,2.783,40.469,4.989,51.224c2.206,10.756,5.881,42.466,3.786,54.104c-2.097,11.638-6.309,38.477-9.292,51.866
					c-2.915,13.092-1.175,23.261-1.175,23.261s-1.715,1.732-1.707,3.454c0.009,1.724,0.89,5.594,0.89,5.594l0.015,3.016
					c0,0,0.223,1.586,2.595,3.332l2.529-0.949c7.963-6.927,6.657-1.589,9.709-13.379c3.051-11.79,3.876-24.678,3.876-24.678
					s0.828-12.444,3.23-20.675c2.403-8.232,0.192-6,4.828-11.799c0.771-0.961,1.31-1.311,1.703-1.311
					c0.523,0,0.787,0.617,0.987,1.232c0.199,0.616,0.337,1.232,0.603,1.232c0.475,0,1.364-1.965,3.775-9.408
					c6.128-18.913,8.974-27.369,5.153-36.014c-3.818-8.646-14.782-24.365-15.063-36.359c-0.28-11.996,3.662-23.122,2.081-28.445
					c-1.581-5.325-4.06-12.421-4.06-12.421s-9.145-7.286-8.722-11.51c0.424-4.222,2.679-42.223-1.121-47.091
					s-16.679-3.472-17.612-12.576c-0.934-9.104-10.748-17.053,2.119-20.671c6.511-1.831,9.727-2.394,12.412-2.394
					c2.621,0.001,4.736,0.537,8.908,0.956c8.445,0.846,5.776,0.193,17.775,0.801c1.905,0.097,3.781,0.137,5.59,0.137
					c9.589,0,17.288-1.139,17.288-1.139s-0.85,0.114-2.062,0.114c-3.334,0-9.406-0.869-7.972-7.395
					c1.956-8.896,4.858-5.579,7.495-11.812c2.635-6.233,4.169-10.462,4.147-14.683s-0.24-3.998-0.033-6.887
					c0.055-0.751,0.41-1.731,0.903-2.769c-6.183-2.532-9.938-5.446-9.854-6.251c0.106-0.998,1.385-2.559,2.776-3.902L257.842,79.784
					"/>
				<path clip-path="url(#SVGID_100UNIQUEback_16_)" d="M480.773,163.262c0,0-36.048,48.479-37.603,50.965c-1.554,2.487-8.079,12.431-9.633,16.16
					c-1.555,3.729-3.73,12.741-3.73,12.741s10.878-15.538,16.782-24.549c5.904-9.012,18.646-21.754,24.861-27.659
					c6.215-5.904,13.983-14.294,13.983-15.537c0-0.089-0.051-0.13-0.147-0.13c-1.264,0-10.195,7.077-11.351,8.521
					c-1.243,1.553-23.929,26.414-23.929,26.414s25.172-31.697,27.658-36.98C480.152,167.923,480.773,163.262,480.773,163.262"/>
				<path clip-path="url(#SVGID_100UNIQUEback_16_)" d="M478.287,155.805c0,0-8.391,12.12-10.566,15.228c-2.175,3.106-13.672,12.741-13.672,12.741
					s7.147-2.175,13.983-8.701C474.868,168.545,478.287,155.805,478.287,155.805"/>
				<path clip-path="url(#SVGID_100UNIQUEback_16_)" d="M131.478,172.585c0,0-4.972,10.565,4.973,24.86c9.944,14.295,35.737,24.551,39.777,27.658
					c4.04,3.107,10.567,4.351,10.567,4.351s-14.295-15.849-22.064-20.2c-7.769-4.349-22.375-16.158-25.792-22.374
					C135.518,180.665,131.478,172.585,131.478,172.585"/>
				<path clip-path="url(#SVGID_100UNIQUEback_16_)" d="M136.451,219.821c0,0,4.04,9.012,18.645,14.917c7.117,2.877,13.567,3.615,18.315,3.615
					c4.993,0,8.1-0.818,8.1-0.818s-16.47-3.108-25.172-5.593C147.638,229.454,136.451,219.821,136.451,219.821"/>
				<path clip-path="url(#SVGID_100UNIQUEback_16_)" d="M147.437,178.407c-2.458,0-4.149,1.015-4.149,1.015s5.284,4.35,8.701,10.255
					c3.418,5.904,8.39,5.594,15.539,9.012c6.906,3.304,8.879,11.538,9.004,12.089c-0.143-0.637-2.929-12.793-8.072-15.818
					c-5.284-3.107-7.148-5.593-13.053-12.431C152.583,179.26,149.688,178.407,147.437,178.407"/>
				<path clip-path="url(#SVGID_100UNIQUEback_16_)" d="M387.313,428.13H371.32l0.972,27.102c0,0-1.791,21.507,0.896,23.746
					c2.69,2.24,25.094,12.099,26.886,17.476c1.794,5.378-1.344,16.58-1.792,18.82c-0.449,2.239,16.131,15.234,13.89,17.923
					c-2.24,2.689,13.443,12.546,9.411,17.477c-4.031,4.928,2.24,29.127,5.376,37.639c3.138,8.513,8.961,17.026,5.826,25.987
					c-3.137,8.963,2.238,31.814,0,43.464c-2.241,11.651-1.793,20.165-6.724,27.782c-4.927,7.617-9.856,20.164-8.96,22.852
					c0.896,2.688,2.689,6.273,4.033,9.41c1.345,3.137,5.375,8.065,5.375,8.065s10.755,0.001,13.443-0.896
					c2.69-0.896,8.514-4.032,8.514-4.032s7.62-44.811,8.065-59.596c0.45-14.786,2.241-44.36-1.344-56.458
					c-3.585-12.1-6.271-28.68-8.063-40.777s-3.585-21.956-4.931-25.987c-1.344-4.034-16.579-51.978-16.579-51.978
					s-0.843-10.214-0.843-12.007s0.883-4.7-0.054-7.262c-1.493-4.076-3.583-12.548-3.583-16.58s-2.242-15.682-2.242-15.682
					S397.333,428.13,387.313,428.13"/>
				<path clip-path="url(#SVGID_100UNIQUEback_16_)" d="M327.845,428.13c0,0-25.986,0.75-56.47,0.999c-28.865,0.236-51.472,1.249-51.472,1.249
					s7.477,24.35,9.022,25.896c1.545,1.547,3.607,11.34-13.399,21.131c-17.008,9.793-6.186,21.646-5.67,31.439
					c0.515,9.791-10.823,42.26-22.678,65.454c-11.853,23.19-8.762,42.775-7.215,68.03c1.547,25.254-3.092,20.101,3.093,46.385
					c6.184,26.285-9.422,39.033-9.422,39.033s1.447,1.258,14.54,3.378c6.708,1.087,13.584,1.479,20.02,1.479
					c16.755,0,30.524-2.66,30.524-2.66s-4.638-8.761-6.185-11.853c-1.546-3.093-10.307-8.247-10.307-8.247
					s-1.032-8.762-3.094-18.553c-2.062-9.793-11.854-26.285-14.946-31.439s4.638-14.946,13.401-28.346
					c8.76-13.401,0-21.132,6.699-46.388c2.41-9.081,5.15-11.764,8.156-11.764c2.169,0.001,4.477,1.401,6.891,2.802
					c2.416,1.4,4.94,2.8,7.548,2.8c1.212,0,2.444-0.304,3.689-1.052c2.365-1.418,5.246-1.97,8.437-1.97
					c10.717,0.001,24.93,6.211,34.855,6.608c0.152,0.006,0.303,0.009,0.455,0.009c12.647,0,21.677-21.255,19.13-30.932
					c-2.576-9.793-17.521-12.886,6.184-28.346c23.709-15.463,4.641-28.348,2.063-37.108
					C319.118,477.405,327.845,428.13,327.845,428.13"/>
			</g>
		</g>
	</g>
	<g clip-path="url(#SVGID_100UNIQUEback_2_)">
		<defs>
			<rect id="SVGID_100UNIQUEback_17_" x="34.925" y="40.121" width="547" height="707.882"/>
		</defs>
		<clipPath id="SVGID_100UNIQUEback_18_">
			<use xlink:href="#SVGID_100UNIQUEback_17_"  overflow="visible"/>
		</clipPath>
		<g opacity="0.5" clip-path="url(#SVGID_100UNIQUEback_18_)">
			<g>
				<defs>
					<rect id="SVGID_100UNIQUEback_19_" x="416.718" y="436.219" width="7.416" height="44.329"/>
				</defs>
				<clipPath id="SVGID_100UNIQUEback_20_">
					<use xlink:href="#SVGID_100UNIQUEback_19_"  overflow="visible"/>
				</clipPath>
				
					<path clip-path="url(#SVGID_100UNIQUEback_20_)" fill="none" stroke="#897F76" stroke-width="0.472" stroke-miterlimit="10" stroke-dasharray="1.706,0.853" d="
					M417.948,436.243c0,0-0.238,2.063-0.498,3.102c-0.262,1.038-0.521,2.336-0.521,3.245c0,0.907,0.132,2.204,0.391,2.983
					s1.649,4.49,1.408,5.295c-0.241,0.804-1.149,2.618-1.149,3.656s0.39,7.007,0.779,8.564c0.388,1.557,2.204,8.432,2.983,9.73
					c0.778,1.298,1.169,2.984,1.298,3.762c0.129,0.779,1.296,3.893,1.296,3.893"/>
			</g>
		</g>
		<g opacity="0.35" clip-path="url(#SVGID_100UNIQUEback_18_)">
			<g>
				<defs>
					<rect id="SVGID_100UNIQUEback_21_" x="245.185" y="73.811" width="127.662" height="13.412"/>
				</defs>
				<clipPath id="SVGID_100UNIQUEback_22_">
					<use xlink:href="#SVGID_100UNIQUEback_21_"  overflow="visible"/>
				</clipPath>
				
					<path clip-path="url(#SVGID_100UNIQUEback_22_)" fill="none" stroke="#00AB5D" stroke-width="0.61" stroke-miterlimit="10" stroke-dasharray="0.524,0.524" d="
					M245.347,86.431c0,0,16.195-12.067,63.622-12.343c47.865-0.279,63.703,12.925,63.703,12.925"/>
			</g>
		</g>
		<g opacity="0.35" clip-path="url(#SVGID_100UNIQUEback_18_)">
			<g>
				<defs>
					<rect id="SVGID_100UNIQUEback_23_" x="121.13" y="241.227" width="65.771" height="8.694"/>
				</defs>
				<clipPath id="SVGID_100UNIQUEback_24_">
					<use xlink:href="#SVGID_100UNIQUEback_23_"  overflow="visible"/>
				</clipPath>
				
					<path clip-path="url(#SVGID_100UNIQUEback_24_)" fill="none" stroke="#00AB5D" stroke-width="0.795" stroke-miterlimit="10" stroke-dasharray="0.683,0.683" d="
					M121.225,241.57c0,0,15.067,4.168,33.983,6.091c18.916,1.923,31.693,1.904,31.693,1.904"/>
			</g>
		</g>
		<g opacity="0.35" clip-path="url(#SVGID_100UNIQUEback_18_)">
			<g>
				<defs>
					<rect id="SVGID_100UNIQUEback_25_" x="121.13" y="244.073" width="65.771" height="8.694"/>
				</defs>
				<clipPath id="SVGID_100UNIQUEback_26_">
					<use xlink:href="#SVGID_100UNIQUEback_25_"  overflow="visible"/>
				</clipPath>
				
					<path clip-path="url(#SVGID_100UNIQUEback_26_)" fill="none" stroke="#00AB5D" stroke-width="0.795" stroke-miterlimit="10" stroke-dasharray="0.683,0.683" d="
					M121.225,244.416c0,0,15.067,4.168,33.983,6.091c18.916,1.924,31.693,1.905,31.693,1.905"/>
			</g>
		</g>
		<g opacity="0.35" clip-path="url(#SVGID_100UNIQUEback_18_)">
			<g>
				<defs>
					<rect id="SVGID_100UNIQUEback_27_" x="430.696" y="241.227" width="65.772" height="8.694"/>
				</defs>
				<clipPath id="SVGID_100UNIQUEback_28_">
					<use xlink:href="#SVGID_100UNIQUEback_27_"  overflow="visible"/>
				</clipPath>
				
					<path clip-path="url(#SVGID_100UNIQUEback_28_)" fill="none" stroke="#00AB5D" stroke-width="0.795" stroke-miterlimit="10" stroke-dasharray="0.683,0.683" d="
					M496.375,241.57c0,0-15.068,4.168-33.984,6.091c-18.915,1.923-31.693,1.904-31.693,1.904"/>
			</g>
		</g>
		<g opacity="0.35" clip-path="url(#SVGID_100UNIQUEback_18_)">
			<g>
				<defs>
					<rect id="SVGID_100UNIQUEback_29_" x="430.696" y="244.073" width="65.772" height="8.694"/>
				</defs>
				<clipPath id="SVGID_100UNIQUEback_30_">
					<use xlink:href="#SVGID_100UNIQUEback_29_"  overflow="visible"/>
				</clipPath>
				
					<path clip-path="url(#SVGID_100UNIQUEback_30_)" fill="none" stroke="#00AB5D" stroke-width="0.795" stroke-miterlimit="10" stroke-dasharray="0.683,0.683" d="
					M496.375,244.416c0,0-15.068,4.168-33.984,6.091c-18.915,1.924-31.693,1.905-31.693,1.905"/>
			</g>
		</g>
		<g opacity="0.35" clip-path="url(#SVGID_100UNIQUEback_18_)">
			<g>
				<defs>
					<rect id="SVGID_100UNIQUEback_31_" x="247.165" y="72.348" width="121.765" height="12.373"/>
				</defs>
				<clipPath id="SVGID_100UNIQUEback_32_">
					<use xlink:href="#SVGID_100UNIQUEback_31_"  overflow="visible"/>
				</clipPath>
				
					<path clip-path="url(#SVGID_100UNIQUEback_32_)" fill="none" stroke="#00AB5D" stroke-width="0.61" stroke-miterlimit="10" stroke-dasharray="0.524,0.524" d="
					M247.338,84.509c0,0,14.233-11.607,61.66-11.884c47.864-0.278,59.745,10.896,59.745,10.896"/>
			</g>
		</g>
		<g opacity="0.35" clip-path="url(#SVGID_100UNIQUEback_18_)">
			<g>
				<defs>
					<rect id="SVGID_100UNIQUEback_33_" x="168.71" y="435.334" width="283.804" height="285.876"/>
				</defs>
				<clipPath id="SVGID_100UNIQUEback_34_">
					<use xlink:href="#SVGID_100UNIQUEback_33_"  overflow="visible"/>
				</clipPath>
				<g opacity="0.5" clip-path="url(#SVGID_100UNIQUEback_34_)">
					<g>
						<defs>
							<rect id="SVGID_100UNIQUEback_35_" x="339.05" y="703.16" width="111.136" height="12.322"/>
						</defs>
						<clipPath id="SVGID_100UNIQUEback_36_">
							<use xlink:href="#SVGID_100UNIQUEback_35_"  overflow="visible"/>
						</clipPath>
						
							<path clip-path="url(#SVGID_100UNIQUEback_36_)" fill="none" stroke="#FFFFFF" stroke-width="0.711" stroke-miterlimit="10" stroke-dasharray="1.74,0.87" d="
							M339.135,703.467c0,0,43.677,11.998,68.523,11.691c38.854-0.477,42.318-3.516,42.318-3.516"/>
					</g>
				</g>
				<g opacity="0.5" clip-path="url(#SVGID_100UNIQUEback_34_)">
					<g>
						<defs>
							<rect id="SVGID_100UNIQUEback_37_" x="169.255" y="714.365" width="105.443" height="6.845"/>
						</defs>
						<clipPath id="SVGID_100UNIQUEback_38_">
							<use xlink:href="#SVGID_100UNIQUEback_37_"  overflow="visible"/>
						</clipPath>
						
							<path clip-path="url(#SVGID_100UNIQUEback_38_)" fill="none" stroke="#FFFFFF" stroke-width="0.711" stroke-miterlimit="10" stroke-dasharray="1.74,0.87" d="
							M274.61,714.672c0,0-21.574,6.061-75.715,6.219c-31.145,0.093-29.302-4.299-29.302-4.299"/>
					</g>
				</g>
				<g opacity="0.5" clip-path="url(#SVGID_100UNIQUEback_34_)">
					<g>
						<defs>
							<rect id="SVGID_100UNIQUEback_39_" x="168.71" y="707.387" width="109.11" height="8.38"/>
						</defs>
						<clipPath id="SVGID_100UNIQUEback_40_">
							<use xlink:href="#SVGID_100UNIQUEback_39_"  overflow="visible"/>
						</clipPath>
						
							<path clip-path="url(#SVGID_100UNIQUEback_40_)" fill="none" stroke="#FFFFFF" stroke-width="0.711" stroke-miterlimit="10" stroke-dasharray="1.74,0.87" d="
							M277.747,707.695c0,0-33.311,7.911-69.776,7.751c-36.465-0.157-39.013-3.343-39.013-3.343"/>
					</g>
				</g>
				<g opacity="0.5" clip-path="url(#SVGID_100UNIQUEback_34_)">
					<g>
						<defs>
							<rect id="SVGID_100UNIQUEback_41_" x="333.513" y="695.647" width="119.001" height="12.795"/>
						</defs>
						<clipPath id="SVGID_100UNIQUEback_42_">
							<use xlink:href="#SVGID_100UNIQUEback_41_"  overflow="visible"/>
						</clipPath>
						
							<path clip-path="url(#SVGID_100UNIQUEback_42_)" fill="none" stroke="#FFFFFF" stroke-width="0.711" stroke-miterlimit="10" stroke-dasharray="1.74,0.87" d="
							M452.244,702.319c0,0-4.459,7.166-45.701,5.573c-41.243-1.591-72.933-11.943-72.933-11.943"/>
					</g>
				</g>
				<g opacity="0.5" clip-path="url(#SVGID_100UNIQUEback_34_)">
					<g>
						<defs>
							<rect id="SVGID_100UNIQUEback_43_" x="197.899" y="443.611" width="223.216" height="10.368"/>
						</defs>
						<clipPath id="SVGID_100UNIQUEback_44_">
							<use xlink:href="#SVGID_100UNIQUEback_43_"  overflow="visible"/>
						</clipPath>
						
							<path clip-path="url(#SVGID_100UNIQUEback_44_)" fill="none" stroke="#FFFFFF" stroke-width="0.711" stroke-miterlimit="10" stroke-dasharray="1.74,0.87" d="
							M421.077,451.602c0,0-72.743-8.621-129.824-7.587c-57.082,1.035-93.28,9.655-93.28,9.655"/>
					</g>
				</g>
				<g opacity="0.5" clip-path="url(#SVGID_100UNIQUEback_34_)">
					<g>
						<defs>
							<rect id="SVGID_100UNIQUEback_45_" x="197.726" y="435.334" width="223.217" height="10.37"/>
						</defs>
						<clipPath id="SVGID_100UNIQUEback_46_">
							<use xlink:href="#SVGID_100UNIQUEback_45_"  overflow="visible"/>
						</clipPath>
						
							<path clip-path="url(#SVGID_100UNIQUEback_46_)" fill="none" stroke="#FFFFFF" stroke-width="0.711" stroke-miterlimit="10" stroke-dasharray="1.74,0.87" d="
							M420.904,443.325c0,0-72.745-8.622-129.825-7.587c-57.082,1.035-93.28,9.656-93.28,9.656"/>
					</g>
				</g>
			</g>
		</g>
		<g clip-path="url(#SVGID_100UNIQUEback_18_)">
			<g>
				<defs>
					<rect id="SVGID_100UNIQUEback_47_" x="264.062" y="612.725" width="81.748" height="112.009"/>
				</defs>
				<clipPath id="SVGID_100UNIQUEback_48_">
					<use xlink:href="#SVGID_100UNIQUEback_47_"  overflow="visible"/>
				</clipPath>
				
					<path clip-path="url(#SVGID_100UNIQUEback_48_)" fill="none" stroke="#897F76" stroke-width="0.25" stroke-miterlimit="10" stroke-dasharray="0.086,0.086" d="
					M264.17,724.706c0,0,2.629-10.616,4.913-12.902c2.284-2.283,3.141-7.139,3.141-7.139s-0.285-4.854,1.429-9.137
					c1.713-4.286,19.704-46.55,21.418-55.689c1.712-9.138,7.14-25.129,7.14-25.129s4.568-1.144,7.139-1.714
					c2.57-0.572,7.996,0.57,7.996,0.57s2.854,9.14,3.143,13.994c0.285,4.854,7.424,38.552,11.138,45.69
					c3.711,7.141,11.992,26.56,11.992,28.559s-0.57,6.283,0.571,9.709c1.143,3.428,1.514,4.709,1.514,4.709"/>
			</g>
		</g>
	</g>
</g>
</svg>
