<?xml version="1.0" encoding="utf-8"?>
<!-- Generator: Adobe Illustrator 19.1.0, SVG Export Plug-In . SVG Version: 6.00 Build 0)  -->
<!DOCTYPE svg PUBLIC "-//W3C//DTD SVG 1.1//EN" "http://www.w3.org/Graphics/SVG/1.1/DTD/svg11.dtd">
<svg version="1.1" id="Layer_1" xmlns="http://www.w3.org/2000/svg" xmlns:xlink="http://www.w3.org/1999/xlink" x="0px" y="0px"
	 viewBox="0 0 564.4 1083.1" enable-background="new 0 0 564.4 1083.1" xml:space="preserve">
<g id="SLEEVES">
	<g>
		<path fill="#C64421" d="M527.5,259.5c-2.4-11.4-25.3-62.6-36.7-80.5c-11.3-18-23.9-15-30.5-18c-1.5-0.7-4.9-2-9.2-3.7
			c4.6,4.5,24.7,25.9,32.6,58c4.1,16.9,14.6,51.7,11.3,72.8c-3,19.3-21.2,52.5-24.2,57.8c2.9,0.1,22.5,0.7,38.5-4.8
			c17.3-6,26.9-12.6,31.1-16.7c4.2-4.2,14-16.4,14-16.4S529.9,270.8,527.5,259.5z"/>
		<path fill="#C64421" d="M109.5,170.1c-2.1,1.8-4.2,3.2-6.2,3.8c-5.6,1.6-18.1,4.8-30.1,20.1s-21.7,33.7-29.7,44.6
			c-8,10.8-27.3,41.1-27.3,41.1s9.2,13.3,14.5,18.1c5.2,4.8,26.9,24.6,45.7,36.7s26.5,14.9,34.9,18.1c7.6,2.9,20.5,4.2,22.9,4.4
			c-3-6.1-17.1-35.4-21.5-62.4C105.3,249.3,108.8,181.2,109.5,170.1z"/>
	</g>
</g>
<g id="BODY">
	<path fill="#FDBB2D" d="M132.6,357.5c-0.1,0-0.1,0-0.2,0C132.5,357.5,132.5,357.5,132.6,357.5z"/>
	<path fill="#FDBB2D" d="M133.4,357.6c-0.1,0-0.2,0-0.2,0S133.3,357.6,133.4,357.6z"/>
	<path fill="#FDBB2D" d="M104,174c0.1,0,0.2-0.1,0.3-0.2C104.2,173.9,104.1,174,104,174z"/>
	<path fill="#FDBB2D" d="M107.2,172L107.2,172L107.2,172z"/>
	<path fill="#FDBB2D" d="M105.6,173.1L105.6,173.1L105.6,173.1z"/>
	<path fill="#FDBB2D" d="M470.8,346.5c-0.1,0-0.1,0-0.2,0C470.7,346.5,470.7,346.5,470.8,346.5z"/>
	<path fill="#FDBB2D" d="M471.3,346.6L471.3,346.6L471.3,346.6z"/>
	<path fill="#FDBB2D" d="M450.4,157.9c0.3,0.1,0.6,0.2,0.9,0.3l0,0c-14.3-5.6-40.9-15.3-46.1-15.8c-6.6-0.6-13.8-4.8-15.6-4.8
		s-13.8-3.6-13.8-3.6l-14.3-4c0,0-9-15.6-13.2-15.6s-31.7-0.6-58-0.6s-57.7-2.2-57.7-2.2c-4.8,0.8-16.9,5.6-18.1,6.8
		s-4.8,9.2-4.8,9.2s-22,9.7-28,11.3s-16.1,3.2-17.7,4s1.6,4.8-2,7.2s-21.3,10.4-26.9,10.4c-5.6,0-9.6-1.6-15.3,1.2
		c-3.6,1.8-7.4,5.9-11.1,9c-0.6,11.1-4.2,79.2,3.2,124.4c4.4,27.1,18.5,56.3,21.5,62.4c0.2,0,0.4,0,0.4,0s4.4,16.1,6.4,29.3
		s7.2,48.6,7.2,57s-1.6,51-6.4,67.8c-4.8,16.9-14.9,43.4-16.9,51s-10,47.8-14.1,61.4c-4,13.6-8.8,49.4-10.4,63.8
		c-1.6,14.5-6,33.3-5.2,37.7s1.6,7.2,1.6,7.2l0.4,16.5c0,0,7.2,33.7,59,41.3s110,8.4,133.3,9.6c23.3,1.2,79.9,5.2,101.6,1.6
		c21.7-3.6,46.6-12,55.8-19.7c9.2-7.6,24.9-28.5,24.9-28.5v-16.1c0,0-16.9-141.3-25.2-185.5c-8.4-44.3-3-105.9,2.4-142.4
		s21.5-63.4,21.5-63.4s0.1,0,0.4,0c2.9-5.3,21.2-38.5,24.2-57.8c3.2-21-7.2-55.8-11.3-72.8C475.2,183.8,455,162.5,450.4,157.9z"/>
	<path fill="#FDBB2D" d="M470.4,346.5c-0.1,0-0.1,0-0.2,0C470.3,346.5,470.3,346.5,470.4,346.5z"/>
</g>
<g id="CUSTOM">
</g>
<g id="COLLAR">
	<path fill="#004D86" d="M337.7,136.8c14.1-1.9,21.3-4.7,24.8-6.7c-0.7-1.2-9.1-15.4-13.1-15.4c-4.2,0-31.7-0.6-58-0.6
		s-57.7-2.2-57.7-2.2c-4.8,0.8-16.9,5.6-18.1,6.8c-1.2,1.2-4.8,9.2-4.8,9.2s-0.3,0.1-0.7,0.3c10.1,1.9,60.6,11.3,78.6,11.7
		C308.7,140.2,331.5,137.6,337.7,136.8z"/>
</g>
<g id="DETAIL">
	<g opacity="3.000000e-002">
		<path d="M214.2,126.7c0,0,26.8-7.8,45-1.7c18.2,6.1,52.8,6.1,70.1,2.6s22.5-7.8,22.5-7.8s-6.2-5-20.9-5s-55,1.3-62.8,0.5
			c-7.8-0.9-33-5-39.9-2.4C221.3,115.5,214.2,126.7,214.2,126.7z"/>
		<path d="M383,148.3c0,0,18.2,32,29.4,39c11.3,6.9,27.7,43.3,36.4,53.7c8.7,10.4,16.4,26.8,16.4,26.8s3.5,13.9,4.3,31.2
			c0.9,17.3,0.9,34.6,0.9,34.6s8.7-43.3-6.9-76.2s-34.6-69.3-40.7-75.3C416.8,176,383,148.3,383,148.3z"/>
		<path d="M475.6,336.2c0,0,13-22.5,13.9-27.7c0.9-5.2,6.9-7.8,12.1-14.7s13.9-23.4,18.2-19.9c4.3,3.5,5.2,16.4,3.5,24.2
			c-1.7,7.8-2.6,18.2-2.6,18.2s6.1,4.3,6.1,6.9s0.9,10.4-17.3,15.6s-39,7.8-39,7.8L475.6,336.2z"/>
		<path d="M492.4,296.6c0,0,5.5-16.2,8.8-14C504.5,284.8,492.4,296.6,492.4,296.6z"/>
		<path d="M507.8,270.8c0,0,4.8-6.6,4.1-17c-0.7-10.3-5.9-28-5.9-28s0,28.4,0.4,33.2C506.8,263.8,507.8,270.8,507.8,270.8z"/>
		<path d="M464.7,191.6c0,0,7.7,34.7,11.4,41.7s11.8,28.4,11.8,46.5s-1.8,32.8-1.8,32.8s9.6-56-1.1-84.8
			C474.3,198.9,464.7,191.6,464.7,191.6z"/>
		<path d="M210.8,127.6c0,0,43.8,12.9,80.2,14.2c57.8,2.1,85.3-5.9,85.3-5.9s-59.6,4.1-86.5,2.9
			C262.9,137.7,210.8,127.6,210.8,127.6z"/>
		<path d="M457.3,300.4c-2.4,0-6,29.9,0,37.7s9,10.8,9,10.8s4.2-16.7-0.6-25.1S457.3,300.4,457.3,300.4z"/>
		<path d="M435.2,452.3c-4.8-1.2-30-37.9-22.7-49.6C421.8,387.5,441.3,449.9,435.2,452.3z"/>
		<path d="M432.5,372.6c-4.2,1.8-6,4.2-1.2,13.8c4.8,9.6,8.4,15,6,17.3s-4.8,3-2.4,9s4.8,1.2,5.4,10.2s1.8,18.5,0,23.3
			s-1.8,19.7-1.8,19.7s10.8-37.7,8.4-49.6c-2.4-12-2.4-19.1-2.4-21.5s-5.4-16.7-8.4-18.5C433.1,374.4,432.5,372.6,432.5,372.6z"/>
		<path d="M447.8,558.7c0,0-31.7,1.8-42.5-13.8s-9-33.5-5.4-42.5s-1.2-31.7-1.2-38.9s-1.8-28.7-1.8-28.7s26.3,51.4,32.9,60.4
			s4.2,17.3,3,24.5s9.6,4.2,9.6,4.2L447.8,558.7z"/>
		<path d="M145.1,503.1c0,0,31.7,5.4,41.3-50.2c9.6-55.6,16.7-162.1,16.7-162.1l-21.5-62.2c0,0,8.4,89.7-4.8,126.8
			s-32.9,54.4-32.9,54.4s4.8,12.6,4.8,26.3C148.7,449.8,145.1,503.1,145.1,503.1z"/>
		<path d="M129.5,568.9c0,0,10.8-23.3,43.1-31.7s79.6-37.1,96.3-53.8c16.7-16.7,70.6-99.3,70.6-99.3s-34.7,43.1-41.9,26.3
			c-7.2-16.7,13.2-56.2,13.2-56.2s-43.7,74.2-65.8,95.7s-37.7,46.7-58,56.8s-34.1,18.5-44.3,30.5S129.5,568.9,129.5,568.9z"/>
		<path d="M137.9,597.1c0,0,20.3-12.6,25.1-19.1c4.8-6.6,25.1-9.6,34.1-5.4s53.2,13.8,87.3,4.8s84.3-7.8,84.3-7.8
			s-26.9,4.2-34.1,8.4c-7.2,4.2-12,8.4-16.7,7.8c-4.8-0.6-22.7-3.6-33.5,0.6c-10.8,4.2,12.6,4.2,30.5,10.8s55.6,22.1,76,16.2
			c20.3-6,53.2-38.3,53.2-38.3s-6.6-3.6-10.8,1.2s-12.6,28.7-48.5,25.1c-35.9-3.6-58.6-9.6-58.6-9.6s11.4-7.8,40.7-9
			c29.3-1.2,31.1-9.6,40.7-4.8s12,4.2,12,4.2s8.4-9-3.6-13.2s-19.1-0.6-30.5-5.4c-11.4-4.8-37.1-16.2-56.2-17.9
			c-19.1-1.8-61.6,7.2-94.5,5.4c-32.9-1.8-46.7,1.8-64,9c-17.3,7.2-20.9,16.2-31.7,22.1c-10.8,6-18.5,17.3-18.5,17.3
			s4.2-0.6,9.6-1.8C135.5,596.5,137.9,597.1,137.9,597.1z"/>
		<path d="M126.5,610.2c0,0,19.1,17.9,34.7,15.6c15.6-2.4,25.7-15.6,62.2-14.4c36.5,1.2,96.9,8.4,106.5,13.2s44.3,16.7,62.2,11.4
			c17.9-5.4,49.1-44.9,49.1-44.9s-30.5,42.5-56.8,38.3s-88.5-28.1-116.6-29.9s-70.6,7.2-85.5,12s-28.7,9.6-34.7,5.4
			C141.5,612.6,126.5,610.2,126.5,610.2z"/>
		<path d="M123.6,639.5c0,0,4.8,14.4,14.4,19.7c9.6,5.4,24.5,11.4,24.5,11.4s-20.3,4.2-26.9-1.8
			C128.9,662.9,123.6,639.5,123.6,639.5z"/>
		<path d="M133.7,637.1c0,0,10.2,7.2,14.4,7.2c4.2,0,25.7,7.2,25.7,7.2l19.7,4.2c0,0-28.1-13.8-36.5-17.3s-18.5-6-22.1-9.6
			c-3.6-3.6-10.8-9-10.8-9L133.7,637.1z"/>
		<path d="M111.6,646.1c0,0,3.6,22.1,15.6,29.3s40.7,10.8,40.7,10.8s-19.2,7.8-34.2,1.2S111.6,646.1,111.6,646.1z"/>
		<path d="M335.3,648.5c0,0,31.1,3,39.5,1.2s17.9-3.6,22.7-1.2c4.8,2.4,22.1,4.2,22.1,4.2l14.4-6.6c0,0,1.2,15-14.4,13.8
			s-29.3-4.2-29.3-4.2s-23.3,7.2-31.1,4.8C351.5,658.1,335.3,648.5,335.3,648.5z"/>
		<path d="M453.7,626.4c0,0-5.4,35.3-25.7,43.1s-135.8,2.4-162.7,2.4c-26.9,0-82-4.8-82-4.8s64,13.2,83.1,17.3
			c19.1,4.2,55.6,0.6,70,0s41.3-1.2,61-0.6s40.7-6,49.1-22.7C454.9,644.3,453.7,626.4,453.7,626.4z"/>
		<path d="M107.4,683.2c0,0,9.6,14.4,20.9,20.3c11.4,6,22.1,13.8,22.1,13.8s-18.5-0.6-28.1-9S107.4,683.2,107.4,683.2z"/>
		<path d="M349.1,717.9c0,0,44.3,10.8,68.2-1.8s41.9-38.3,41.9-38.3s-0.8,31.4-26.9,40.1C382,734.6,349.1,717.9,349.1,717.9z"/>
		<path d="M114.6,312.9c0,0-0.6-18.5-3-21.5S83.5,225,81.7,217.8c-1.8-7.2-6.6-19.1-6.6-19.1s10.8,47.3,15,57.4
			c4.2,10.2,13.8,35.3,16.2,41.3C108.6,303.3,114.6,312.9,114.6,312.9z"/>
		<path d="M72.1,227.4c0,0,0,25.1,9.6,44.3c9.6,19.2,19.1,34.1,19.1,34.1S73.3,277,70.3,259.7S72.1,227.4,72.1,227.4z"/>
		<path d="M134.9,353.6c0,0-0.6-22.7-4.2-34.1c-3.6-11.4-8.4-25.7-8.4-25.7s8.4,34.7,5.4,34.1c-3-0.6-9.6-29.3-9.6-29.3
			s7.8,35.9,4.2,31.1c-3.6-4.8-15.6-7.8-15.6-7.8s12,7.8,16.7,15C128.3,344,134.9,353.6,134.9,353.6z"/>
	</g>
	<g opacity="0.5">
		<path fill="none" stroke="#A39E9B" stroke-width="0.8973" stroke-miterlimit="10" d="M135.1,357.8c0,0-17.4-32.9-22.4-63.3
			c-8.1-49.3-3.2-124.5-3.2-124.5"/>
		<path fill="none" stroke="#A39E9B" stroke-width="0.8973" stroke-miterlimit="10" d="M470.5,346.6c0,0,21.4-37.5,24.6-58.6
			s-7.2-55.8-11.3-72.8c-9-36.3-32.4-57.2-32.4-57.2"/>
	</g>
	<g opacity="0.5">
		<path fill="none" stroke="#A39E9B" stroke-width="0.8973" stroke-miterlimit="10" stroke-dasharray="0.8973,0.8973" d="
			M28.1,261.6c0,0,29.1,35.6,54.2,50.1c25.1,14.6,42.8,24.7,42.8,24.7"/>
		<path fill="none" stroke="#A39E9B" stroke-width="0.8973" stroke-miterlimit="10" stroke-dasharray="0.8973,0.8973" d="
			M24.1,266.3c0,0,29.1,35.6,54.2,50.1c25.1,14.6,50.9,29.2,50.9,29.2"/>
		<path fill="none" stroke="#A39E9B" stroke-width="0.8973" stroke-miterlimit="10" stroke-dasharray="0.8973,0.8973" d="
			M543.7,291.1c0,0-9.5,16.7-30.1,25.8c-20.5,9.2-32,8.7-32,8.7"/>
		<path fill="none" stroke="#A39E9B" stroke-width="0.8973" stroke-miterlimit="10" stroke-dasharray="0.8973,0.8973" d="
			M546.8,297.7c0,0-9.5,16.7-30.1,25.8c-20.5,9.2-39.1,9.9-39.1,9.9"/>
		<g>
			<path fill="none" stroke="#A39E9B" stroke-width="0.8973" stroke-miterlimit="10" stroke-dasharray="0.8973,0.8973" d="
				M97.2,737.4c0,0,0,30.3,92.3,36.3c262.7,17,282-28.5,282-28.5"/>
			<path fill="none" stroke="#A39E9B" stroke-width="0.8973" stroke-miterlimit="10" stroke-dasharray="0.8973,0.8973" d="
				M97.3,745.1c0,0-0.1,28.9,92.2,34.9c262.7,17,282.1-28.4,282.1-28.4"/>
		</g>
	</g>
</g>
</svg>
