<?xml version="1.0" encoding="utf-8"?>
<!-- Generator: Adobe Illustrator 19.1.0, SVG Export Plug-In . SVG Version: 6.00 Build 0)  -->
<!DOCTYPE svg PUBLIC "-//W3C//DTD SVG 1.1//EN" "http://www.w3.org/Graphics/SVG/1.1/DTD/svg11.dtd">
<svg version="1.1" xmlns="http://www.w3.org/2000/svg" xmlns:xlink="http://www.w3.org/1999/xlink" x="0px" y="0px"
	 viewBox="33 -33 100 100" enable-background="new 33 -33 100 100" xml:space="preserve">

<g id="AREA_2">
	<g>
		<path fill="#FDBB2D" d="M76.4,14.4c3-2.2,5.7-5.3,6.3-9c0.2-3,1.9-5.7,1.2-8.8c-0.3-0.8-0.9-1.5-1.7-1.8c-0.3-0.1-0.6-0.3-0.9-0.2
			c0.1,2.7-0.8,4.8-1.7,7.1c1.1-1.1,2.2-1.9,3.3-3c0.1,0,0.2,0.1,0.3,0.2c-1.2,1.2-2.6,2.3-3.8,3.5c-0.2,0.9-0.5,1.9-0.6,2.8
			l3.5-2.5c0.1,0.1,0.2,0.1,0.1,0.2c-1.3,0.9-2.5,1.9-3.8,2.8c-0.5,1.4-1.5,2.7-2.5,3.8c1.3-0.4,2.5-1,3.8-1.5
			c0.1,0.1,0.2,0.2,0.2,0.3c-1.5,0.6-3,1.2-4.5,1.7l-1.8,1.5l-0.1,0l2.8-3.6c-0.1-1.4-0.3-3-0.2-4.5c0.1,0,0.2,0,0.3,0.1l0.2,3.9
			c0.6-1.1,1.2-2.1,1.4-3.2c0-0.1,0.1-0.3,0-0.3c-0.3-1.4-0.6-2.7-0.8-4.1c0.1,0,0.2,0,0.3,0c0.2,1.2,0.5,2.4,0.7,3.6
			C78.6,2.3,78.8,1,79.4,0c-0.2-0.9-0.4-1.8-0.5-2.7h0.2c0.2,0.7,0.3,1.6,0.5,2.2C80-1.2,80.2-2,80.4-2.8c0-0.8,0.4-1.8-0.3-2.3
			c-1,0-1.8,1-2.2,1.8c-1.4,3.6-2.3,7.5-4.3,10.9c0.4,3.5-1.5,6.1-3.3,8.8C72.5,16.2,74.7,15.7,76.4,14.4z"/>
		<path fill="#FDBB2D" d="M89.7,3.1C91.2,1.8,93,1.8,95,1.9l-0.1-0.5c-0.2-0.6-0.8-0.6-1.3-0.7c-1.3,0-2.6,0.1-3.8,0.3
			c-0.5,0.2-1.1,0.2-1.5,0.7C88.6,2.5,89.2,2.7,89.7,3.1z"/>
		<path fill="#FDBB2D" d="M63.4,16.3c0.8,0.6,1,1.5,0.8,2.4c-1.5,3.1-5.4,3.1-8.3,2.9c0.2,0.2,0.5,0.5,0.7,0.8
			c0.8,0.7,2.2,0.5,3.1,0.1c2.6-1.2,5.3-1.9,7.4-4.3c2.3-3.1,4.9-6.1,4.4-10.4c-0.2-1.5-1-3-2.4-3.7c-2.5-1-5.2-1.4-7.8-2.2
			c-0.9,0.6-1.8,1.2-3,1.1c-0.4,0-0.9-0.3-1-0.7l-0.1-0.8c-2.4,0.2-4.6,0.7-6.6,1.6c-4.4,2.6-8.7,6.9-9.9,11.8c-0.5,2.9,1,5.3,3.3,7
			c2,1.6,5.1,1.6,7.3,0.4c2.9-1.1,5.1-3.8,7.5-5.9C60.2,15.7,62,15.4,63.4,16.3z M45.8,9.1c0.5-0.6,1.1-0.8,1.8-0.9
			c-0.3,1.7-1.2,3.6-3,4.2C45,11.3,45.2,10.1,45.8,9.1z M44.7,21.1L44.2,20c1.3,0,2.6,0.4,3.3,1.6C46.7,21.7,45.2,22.1,44.7,21.1z
			 M53.4,17.6c-2.3,0.4-4-1.2-5.8-2.4c-1.3-0.1-2.6-0.2-3.8-0.4c1.7-0.8,4.1-0.7,4.9-2.8c0.9-2.4,1-5.6,4-6.5
			c0.8-0.3,1.8-0.5,2.7-0.6l0.2,0.1c-1.1,1.1-2.8,1.3-3.7,2.5c-0.2,2.2,2.4,2.9,2.9,4.8c0.3,1,0.2,2.1-0.5,2.9
			c-0.4,0.5-1,0.7-1.4,1.1c1.4-0.2,2.7-0.7,3.9-1.3c1-0.5,1.2-1.5,1.1-2.5c-0.2-1.6-1.9-2.9-3.4-3.5c-0.1-0.2,0.1-0.5,0.2-0.8
			c0.8-0.4,1.8-0.2,2.5,0.3c1.5,1.3,2.6,3.2,2.2,5.1C59,16.7,55.7,16.9,53.4,17.6z"/>
		<path fill="#FDBB2D" d="M92.2,2.3c-0.4,0.1-0.8,0.1-1.1,0.5c-0.2,0.5,0.1,0.9,0.2,1.4c1.6-0.6,3.1-0.8,5-0.8
			C95.5,1.9,93.6,2.4,92.2,2.3z"/>
		<path fill="#FDBB2D" d="M81.6,23.8c-0.5,0-1-0.3-1.4-0.7c-0.1-1.1,0.6-2.1,1.3-2.9c2.8-2.5,5.9-4.3,9.4-5.1
			c5.4-1.1,10.5-0.4,15.4-2.6c2.2-0.9,4.9-1.1,7.1-2c1.2-0.7,3-1.8,3.1-3.3c-0.3-0.5-0.8-0.7-1.3-0.9c-2.6-0.3-5,0.6-7.5,1.3
			c1.8,0.3,3.5,0.5,5.6,0.7l0.1,0.1c0,0.1,0,0.2-0.1,0.2c-2.1-0.3-4.2-0.5-6.3-0.8c-1.9,0.4-3.8,1-5.6,1.5l5.3,1.1
			c0,0.1-0.1,0.2-0.1,0.3c-1.9-0.5-3.9-0.8-5.8-1.1c-1.7,0.5-3.3,1.2-5.1,1.6c2.2,0.4,4.7,0.6,6.9,1.1c0,0.1,0,0.2,0,0.3
			c-2.4-0.5-5.1-0.7-7.6-1.2c-0.9,0.2-1.8,0.5-2.7,0.6c0.6-0.5,1.3-1.1,1.9-1.5c0.7-1.2,1.4-2.5,2.2-3.6l0.2,0.2l-1.8,3.1
			c1.1-0.4,2.3-0.8,3.4-1c0.8-1.2,1.6-2.5,2.5-3.7l0.2,0.1l-2.2,3.4c1.5-0.3,3-0.9,4.5-1.4l3-3l0.2,0.2l-2.5,2.5v0.1l3.6-0.9
			c1.5,0,2-1.7,3.1-2.5c0.1,0,0.2,0,0.2,0.1L109,6.1c1.5-0.3,3-0.8,4.7-0.7c0.6-0.1,0.9-0.6,1-1.1l-1.5-0.5c-3.9-0.9-8.2,0.1-12,0.9
			c-4.4,1.2-9.1,1.8-12.1,6.1c-3,2.9-6.4,5.9-8.4,9.4c-1.4,1.5-3,2.3-4.5,3.5c0.1,0.8,0.3,1.5,0.5,2.2c0.3,1-0.3,1.8-0.5,2.7
			c0.9-0.5,2-1.5,2.2-2.5c0.3-1-0.9-2.1,0.3-2.8c1.2,0.5,2.2,1.6,2.3,2.9c-0.3,1.7-1.2,3.2-1.2,4.9c1-0.6,2.1-1.1,3-1.9
			c1.8-1.6,2.5-4.3,1.7-6.7C83.2,22.2,82.7,23.8,81.6,23.8z"/>
		<path fill="#FDBB2D" d="M50.7,11.8c-0.2,0.1-0.2,0.3-0.2,0.5c0.1,0.1,0.3,0.3,0.5,0.2c0.1-0.1,0.4-0.4,0.2-0.6
			C51.1,11.7,50.9,11.8,50.7,11.8z"/>
		<path fill="#FDBB2D" d="M49.6,13.3c-0.3,0.2-0.4,0.5-0.4,0.9c0.1,0.2,0.3,0.4,0.5,0.5c0.3,0.1,0.7-0.1,0.9-0.4
			c0.2-0.3,0.1-0.7-0.1-1C50.4,13.1,50,13.1,49.6,13.3z"/>
		<path fill="#FDBB2D" d="M106.9,13.9c1.5,1,3.1,1.9,4.1,3.4c0.7,1.5,0.5,3,0.2,4.6c1.6,2.1,3.2,4.1,4.8,6.1
			c1.3-1.1,2.9-2.2,3.8-3.7c0.8-1.4,1.2-3.1,1.3-4.7c-0.9-0.8-1.8-1.7-2.8-2.3C114.9,15.2,111.1,14,106.9,13.9L106.9,13.9z"/>
		<path fill="#FDBB2D" d="M97.2,15.8c1,1,2.1,1.8,2.6,3.1c2,0.1,4.5,0,6.8,0c-0.2-1.5-1-2.8-1.9-4C102.1,15.1,99.7,15.5,97.2,15.8z"
			/>
		<path fill="#FDBB2D" d="M93.1,17.7c-0.4-0.3-0.7-0.8-1.2-1c-2,0.6-4.1,1.3-5.9,2.4c0.2,0.6,0.7,1.1,1,1.6c2.5-0.5,5-1,7.3-1.5
			C94,18.6,93.6,18.2,93.1,17.7z"/>
		<path fill="#FDBB2D" d="M63.3,18.7c0.3-0.5-0.1-1-0.4-1.4c-0.5-0.5-1.4-0.4-2-0.2c-1.5,0.9-3,2.2-4.2,3.6
			C59,20.5,61.7,20.7,63.3,18.7z"/>
		<path fill="#FDBB2D" d="M100,19.4c0.7,2.1,0.6,4.2-0.2,6.1c1.2,0.5,2.5,1.1,3.7,1.6c1.2-2.5,3.4-4.6,3.1-7.7
			C104.5,19.4,102.2,19.4,100,19.4z"/>
		<path fill="#FDBB2D" d="M92.6,24.5c1-0.1,2-0.2,3-0.3c0.1-1.5-0.1-2.9-0.7-4.1l-0.3-0.5c-2.4,0.5-4.9,1-7.3,1.5
			c0.9,1.2,2,2.4,2.6,3.6C90.7,24.8,91.8,24.6,92.6,24.5z"/>
		<path fill="#FDBB2D" d="M63.4,23.2l1.4,1.7c2.4,3.7,6.6,2.8,10.5,3.1c0.2-0.6,0.6-1.2,0.4-1.9c-0.5-0.5-1.4-0.3-2-0.5
			c-0.7-0.4-0.8-1.2-1-1.8c-1.7-1.1-4.1-0.8-5.1-3C66.2,21.8,64.8,22.4,63.4,23.2z"/>
		<path fill="#FDBB2D" d="M117.7,30.9c0.3,1.5,0.9,2.9,1.2,4.5c0,0.1,0.1,0.3,0.3,0.3c2.8-1.1,5.6-2.1,7.9-4.1
			c1.6-1.4,1.4-3.1,1.1-4.8c-1-2.3-2.8-4.5-5-6l-0.1,0.2c0.2,0.6,0.2,1.2,0.4,1.8C123.1,26.3,120.4,29.1,117.7,30.9z"/>
		<path fill="#FDBB2D" d="M115.6,28.2c-1.5-1.9-3.1-3.9-4.6-5.8c-0.8,2.5-3,4.6-5,6.4l2.3,3.9c2.7-0.8,5.1-2.6,7.3-4.4V28.2z"/>
		<path fill="#FDBB2D" d="M70.9,29.6c-3.5-0.5-6.8-2.7-8.9-5.8c-1.7,0-3.6,0.3-5.2,0.2c-0.4,0.1-0.2,0.7-0.2,1
			c1.1,0.1,2.3-0.2,3.2,0.5c0.4,0.4,0.5,1,0.5,1.5c0,0.5-0.6,0.5-0.7,0.9c0.9,0.5,1.7,1.1,2.7,1.5c4.5,2.4,10.1,1.9,14.6,0
			c-0.2-0.2-0.5-0.2-0.8-0.3C74.2,28.3,72.9,30.2,70.9,29.6z"/>
		<path fill="#FDBB2D" d="M90.3,27.4c1.4,0.1,2.9,0,4.5-0.1c0.2-0.9,0.7-1.7,0.7-2.7L90,25.2C90.3,25.8,90.4,26.6,90.3,27.4z"/>
		<path fill="#FDBB2D" d="M97.6,28.5c1,0.6,2,1.2,3,1.8c1.1-0.7,1.9-1.8,2.6-2.8c-1.2-0.6-2.4-1-3.6-1.6
			C99.1,26.8,98.3,27.8,97.6,28.5z"/>
		<path fill="#FDBB2D" d="M90.3,29.1c1.2-0.2,2.5-0.2,3.8-0.3c0.2-0.3,0.4-0.7,0.5-1.1h-4.3V29.1z"/>
		<path fill="#FDBB2D" d="M58.4,28.2c-1.7,0-3.2,0.3-4.6,1c-1,0.5-2.1,0.7-3.1,0.9c2.4,0.6,5,0.9,7.4,1.6c2.4,0.6,4.6-0.5,7-0.6
			c-1.4-0.3-2.7-0.6-3.9-1.3C60.2,29.3,59.4,28.4,58.4,28.2z"/>
		<path fill="#FDBB2D" d="M96.4,29.7c0.9,0.6,1.9,1.1,2.8,1.5l1-0.6v-0.1c-0.9-0.5-1.9-1.1-2.8-1.7h-0.2
			C96.9,29.1,96.6,29.4,96.4,29.7z"/>
		<path fill="#FDBB2D" d="M104,33.9c1.4-0.1,2.7-0.6,3.9-1c-0.7-1.3-1.5-2.5-2.3-3.8c-1.1,0.9-2.3,1.8-3.6,2.5l1.6,2.2L104,33.9z"/>
		<path fill="#FDBB2D" d="M90.3,30.6c1-0.1,2.1-0.2,2.9-0.8c0.3-0.2,0.4-0.4,0.6-0.6c-1.2,0.1-2.4,0.2-3.6,0.3
			C90.2,29.8,90.2,30.3,90.3,30.6z"/>
		<path fill="#FDBB2D" d="M95.6,30.5l2.2,1.2c0.3,0.1,0.7-0.1,1-0.2c-0.9-0.5-1.8-1-2.7-1.5C95.9,30.1,95.6,30.2,95.6,30.5z"/>
		<path fill="#FDBB2D" d="M97.3,31.8c-0.7-0.4-1.4-0.8-2.1-1.1C95,31,94.7,31,94.7,31.3C95.5,31.7,96.4,32,97.3,31.8z"/>
		<path fill="#FDBB2D" d="M117.3,31.3c-2.6,1.5-5.3,2.8-8.1,3.8c0.1,0.6,0.4,1.2,0.5,1.8c3,0.2,6.2-0.3,9-1.1
			C118.2,34.3,117.8,32.8,117.3,31.3z"/>
		<path fill="#FDBB2D" d="M103.3,33.9c-0.4-0.5-0.7-1-1.1-1.5c-0.3-1.1-1.1-0.3-1.7-0.2c0.5,0.6,1,1.1,1.5,1.7
			C102.5,34,102.9,34,103.3,33.9z"/>
		<path fill="#FDBB2D" d="M101.5,33.9l-1.4-1.5h-0.2c-0.9,0.1,0.1,0.8,0,1.3C100.4,33.8,100.9,34,101.5,33.9z"/>
		<path fill="#FDBB2D" d="M97.9,33.2c0.4,0.2,1,0.5,1.5,0.4l-0.3-0.8C98.7,32.9,98.3,33.1,97.9,33.2z"/>
		<path fill="#FDBB2D" d="M115,44.1c2.4-0.1,5-0.5,7.3-1c2-0.7,4.4-0.6,5.8-2.5c1-2.2,0.9-5,1.7-7.3c-3.4,2-7,3.7-10.9,4.6
			C117.6,40,116.3,42.1,115,44.1z"/>
		<path fill="#FDBB2D" d="M108.8,35.2c-1.9,0.7-4.6,0.6-6.4,0.8c2.2,0.4,4.7,0.9,6.8,0.9L108.8,35.2z"/>
		<path fill="#FDBB2D" d="M92.4,47.2c-0.6-1.8-1.3-3.5-1-5.7c0.2-1.8,1.9-3,2-4.9c-1,0.4-1.9,0.8-2.8,1.2c-2,1.2-1.5,3.8-1.7,5.9
			c-0.1,1.9,2,2.8,3.4,3.4H92.4z"/>
		<path fill="#FDBB2D" d="M101,40.1c-0.1,0.1-0.3,0.2-0.3,0.3c0.5,0.3,0.9,0.7,1.4,0.8l2.8-3.3c-0.5-0.2-1.2-0.3-1.7-0.4
			c0,0.6,0.2,1.3,0,1.9C102.8,40.4,101.8,40.1,101,40.1z"/>
		<path fill="#FDBB2D" d="M108.6,38.7c-1.1-0.3-2.2-0.4-3.3-0.6l-2.9,3.5c0.7,0.5,1.4,0.9,2.2,1.2L108.6,38.7z"/>
		<path fill="#FDBB2D" d="M114.5,44.1c1.2-2,2.6-4,3.8-6.1c-2.9,0.6-6,1.1-9.1,0.7l-4.1,4v0.1C107.9,44,111.7,44.2,114.5,44.1z"/>
		<path fill="#FDBB2D" d="M96.2,43.9c0.8-0.7,1.6-1.4,2.3-2.2l-1.6-0.9C96.3,41.7,95.6,42.8,96.2,43.9z"/>
		<path fill="#FDBB2D" d="M97.5,45.4c1-0.9,2-1.8,2.9-2.7L98.9,42c-0.9,0.8-1.7,1.6-2.5,2.3C96.8,44.7,97.1,45.1,97.5,45.4z"/>
		<path fill="#FDBB2D" d="M99.3,46.9c1.3-0.9,2.5-1.9,3.7-2.9c-0.8-0.3-1.5-0.7-2.3-1l-2.9,2.8C98.3,46.1,98.8,46.6,99.3,46.9z"/>
		<path fill="#FDBB2D" d="M112.1,46.1c-3.1-0.1-5.9-0.9-8.7-1.9c-1.2,1-2.5,1.9-3.7,2.9c1.9,1.1,3.9,1.9,6,2.3
			C107.9,48.4,110.1,47.3,112.1,46.1z"/>
		<path fill="#FDBB2D" d="M113,46.2c-2.2,1.2-4.5,2.4-6.7,3.5c1.9,0.5,4,0.8,6.1,0.9c2.9-0.1,5.3-0.5,8.1-0.8
			c2.2-0.9,3.4-3.3,4.8-5.1C121.5,45.5,117.3,46.3,113,46.2z"/>
		<path fill="#FDBB2D" d="M101.8,50.5c-1.7-0.7-3.4-1.5-5.1-2.2c-0.1,1.1-0.1,2.2,0.5,3.1C98.8,51.2,100.3,50.8,101.8,50.5z"/>
		<path fill="#FDBB2D" d="M102.5,50.8l-4.9,1c0.3,0.4,0.8,0.6,1.1,0.9c5.1,2.1,12.7,3.5,17.4-0.3v-0.1l-2.7,0.2
			C109.4,52.8,106,52,102.5,50.8z"/>
		<path fill="#FDBB2D" d="M95.3,53.3c-0.7,1.6-2.6,1-4.1,1.3c-3,1-6.3-0.1-9.4,0c5.1,1.2,11,1,16-0.2l0.1-0.1l-2.2-1.7
			C95.5,52.7,95.4,53,95.3,53.3z"/>
	</g>
</g>
<g id="AREA_1">
	<g>
		<path fill="#720018" d="M126.8,22.7c-0.3-0.3-0.6-0.7-0.9-1c-4.7-4.6-10.4-7.6-16.7-8.4c-0.1-0.1-0.2,0-0.2-0.1
			c0.9-0.2,1.8-0.5,2.6-0.8c2.7-0.8,6.5-2.5,6.7-5.8c-0.2-1.9-2.3-3-3.8-3.7c-5.7-1.8-11.7,0.2-16.9,1.9h-0.4c0-1.3,0-2.8-0.5-3.9
			c-0.5-1.1-1.6-2-2.8-2.1c-2.3,0.3-4.9,0-6.5,2C86,2,86.4,4.4,87,5.8c0.7,0.8-0.6,1.3-0.9,2l-7.8,9.4l-1.8,2l-2,0.9
			c-2.1,0.9-4.8,0.7-6.8-0.2c0.6-0.7,1.2-1.4,1.8-2.2c3.2-0.6,6.2-1.6,8.8-3.6c3.6-2.6,5-6.5,5.6-10.4c0.4-2.5,1.5-4.8,0.9-7.5
			c-0.5-1.5-1.9-2.3-3.3-2.7c-1.2-0.2-2.3,0.2-3.1,1.1c-3,3.5-2.6,8.4-5.2,12.1c-0.3-0.4-0.5-0.9-0.8-1.3c-3-2.8-6.9-3.4-10.6-4.3
			c2.5-1.8,5.1-3.5,7.6-5.3C73.8-7.5,79-9,83.3-12.2C74.2-9.5,65.8-5.2,58.2,0.9C56,1.2,53.9,1,52,1.6c-1.2,0.3-2.3,0.8-3.4,1
			c0.5-2.7,1-5.5,2.8-7.6c3.2-4,6.1-8,10.4-10.9C56.6-13,51.6-9,48-3.7c-2.1,2.8-2.6,6.1-2.9,9.5c-2.5,2.7-5.1,5.5-5.6,9.1
			c-0.4,3.1,0.6,6.1,3.3,7.8c3.8,2.4,9,1,12.5-0.9c0.2,0.5,0.2,0.9,0.6,1.3c-0.1,0.7-0.1,1.4-0.2,2c-0.8,1.4-2.8,0.8-4.2,0.8
			c-1.5-1.3-4.1-0.8-5.9-0.5l-0.1,0.1c0.1,0,0.2,0,0.3-0.1c0.9-0.1,2-0.1,2.5,0.9c-0.6,0.3-1.2,0.6-1.8,0.9
			c-0.2-0.2-0.3-0.6-0.5-0.8c-0.8-0.4-1.9-0.4-2.7-0.1c0.3,0.3,0.7,0.5,0.9,1c0.5,1.7-1.6,1.3-2.2,2.4c0,0.6,0.5,0.8,0.9,1
			c4.4,2.1,9.8,1.8,14.4,3.3c1.3,0.7,2.6,1.4,4,1.9c0.3,0.1,0.8,0.2,1.1,0.3c0.8,0.2,1.6-0.1,2.5-0.2c1.6-0.6,3.5-0.7,4.8-1.7
			c0.4-0.6,0.2-1.2,0.1-1.8c-0.8,0.2-1.7,0.4-2.6,0.3c-0.6-0.1-1.3,0-1.8-0.4c-0.1-0.2,0.1-0.5,0.2-0.7c0.2-0.2,0.1-0.5-0.1-0.6
			l0.1-0.1l3,0.4c2.6,0.4,4.8-0.5,7.1-1.2c1.7-0.6,3,0.8,4.2,1.8c2.6,1.7,6.1,0.1,9.1-0.3c2.4-0.4,4.6,0.1,6.3,1.7
			c0.2,0.4,0.6,0.8,0.2,1.3c-1.5,1.8-4.1,1.5-5.9,2.8c-1.4,1.1-1.9,2.7-2,4.3c-0.4,2.7,0.6,5,2.5,6.8c-0.8,0.7-1.7,1.5-2.6,2.1
			c-3.8,2.7-8.7,2.3-13.2,2.1c2.5,1.8,5.5,2.7,8.7,3c6.4,0.9,12.4,0.5,18.4-1.1c2.5,0.8,5.6,1.4,8.1,1c9.3-1.4,19-8.7,21-18.2
			C131.8,32.1,130.4,26.6,126.8,22.7z M123.2,20.8c2.2,1.5,3.9,3.7,5,6c0.3,1.7,0.5,3.4-1.1,4.8c-2.3,2-5.2,3-7.9,4.1
			c-0.2,0.1-0.2-0.2-0.3-0.3c-0.3-1.5-0.9-2.9-1.2-4.5c2.8-1.8,5.5-4.7,5.8-8.1c-0.1-0.6-0.2-1.2-0.4-1.8L123.2,20.8z M99.9,32.5
			h0.2l1.4,1.5c-0.5,0.1-1.1-0.1-1.6-0.2C100,33.3,99,32.6,99.9,32.5z M100.6,30.3c-1-0.6-2-1.2-3-1.8c0.7-0.7,1.5-1.8,2-2.6
			c1.2,0.6,2.4,1,3.6,1.6C102.5,28.5,101.7,29.6,100.6,30.3z M105.6,29.1c0.8,1.3,1.6,2.5,2.3,3.8c-1.2,0.4-2.5,0.8-3.9,1l-0.3,0
			l-1.6-2.2C103.4,30.9,104.5,30,105.6,29.1z M102.2,32.5c0.4,0.5,0.7,1,1.1,1.5c-0.4,0.1-0.8,0-1.2,0c-0.5-0.6-1.1-1.1-1.5-1.7
			C101.1,32.2,101.9,31.3,102.2,32.5z M103.2,37.6c0.5,0.1,1.2,0.2,1.7,0.4l-2.8,3.3c-0.5-0.1-1-0.5-1.4-0.8c0-0.2,0.2-0.2,0.3-0.3
			c0.8,0,1.8,0.3,2.2-0.6C103.4,38.9,103.2,38.1,103.2,37.6z M100.5,40c0,0.1-0.2,0.1-0.3,0H100.5z M100.8,43c0.8,0.3,1.5,0.7,2.3,1
			c-1.2,1-2.5,2-3.7,2.9c-0.5-0.3-1-0.8-1.5-1.1L100.8,43z M102.4,41.5l2.9-3.5c1.1,0.3,2.2,0.4,3.3,0.6l-4,4
			C103.9,42.4,103.1,42,102.4,41.5z M102.4,36c1.8-0.2,4.5-0.1,6.4-0.8l0.4,1.7C107.1,37,104.7,36.4,102.4,36z M108.3,32.7l-2.3-3.9
			c2.1-1.9,4.2-4,5-6.4c1.6,1.9,3.1,3.9,4.6,5.8v0.1C113.4,30.2,111,31.9,108.3,32.7z M103.5,27.1c-1.3-0.5-2.5-1-3.7-1.6
			c0.8-1.9,1-4.1,0.2-6.1c2.2,0,4.5,0,6.6,0C106.9,22.5,104.8,24.6,103.5,27.1z M99.8,18.9c-0.5-1.3-1.6-2.1-2.6-3.1
			c2.5-0.4,4.9-0.7,7.4-0.9c0.9,1.2,1.7,2.5,1.9,4C104.3,18.9,101.8,19.1,99.8,18.9z M97.4,28.8c0.9,0.6,1.9,1.1,2.8,1.7v0.1l-1,0.6
			c-0.9-0.5-1.9-1-2.8-1.5c0.2-0.2,0.5-0.6,0.8-0.8H97.4z M99.4,33.6c-0.5,0-1.1-0.2-1.5-0.4c0.4-0.1,0.8-0.3,1.2-0.4L99.4,33.6z
			 M98.7,31.5c-0.3,0.1-0.6,0.3-1,0.2l-2.2-1.2c0-0.2,0.3-0.3,0.4-0.5C96.9,30.5,97.8,30.9,98.7,31.5z M98.5,41.7
			c-0.7,0.7-1.5,1.5-2.3,2.2c-0.6-1.1,0.1-2.2,0.7-3L98.5,41.7z M98.9,42l1.5,0.8c-0.9,0.9-1.9,1.8-2.9,2.7
			c-0.4-0.3-0.7-0.7-1.1-1.2C97.2,43.6,98.1,42.8,98.9,42z M96.7,48.3c1.7,0.7,3.4,1.5,5.1,2.2c-1.5,0.3-3.1,0.7-4.7,0.9
			C96.6,50.5,96.6,49.4,96.7,48.3z M99.8,47.2c1.2-1,2.4-1.9,3.7-2.9c2.8,1,5.6,1.8,8.7,1.9c-2.1,1.2-4.2,2.3-6.3,3.4
			C103.6,49.1,101.6,48.2,99.8,47.2z M105.1,42.9L105.1,42.9l4.1-4.1c3.1,0.4,6.3,0,9.1-0.7c-1.2,2-2.6,4-3.8,6.1
			C111.7,44.2,107.9,44,105.1,42.9z M109.7,36.9c-0.1-0.6-0.3-1.2-0.5-1.8c2.8-1.1,5.5-2.3,8.1-3.8c0.5,1.5,0.9,3.1,1.4,4.6
			C115.8,36.6,112.7,37.2,109.7,36.9z M118.4,17.3c1,0.6,1.9,1.6,2.8,2.3c-0.2,1.6-0.5,3.3-1.3,4.7c-1,1.5-2.5,2.6-3.8,3.7
			c-1.6-2-3.2-4-4.8-6.1c0.3-1.6,0.5-3.1-0.2-4.6c-1-1.6-2.7-2.4-4.1-3.4v-0.1C111.1,14,114.9,15.2,118.4,17.3z M96.3,3.3
			c-1.9-0.1-3.4,0.2-5,0.8c-0.1-0.4-0.3-0.9-0.2-1.4c0.2-0.4,0.7-0.4,1.1-0.5C93.6,2.4,95.5,1.9,96.3,3.3z M89.9,1.1
			c1.2-0.2,2.5-0.3,3.8-0.3c0.5,0.1,1.1,0.1,1.3,0.7L95,1.9c-2-0.1-3.8-0.2-5.3,1.2c-0.5-0.4-1.1-0.6-1.3-1.3
			C88.8,1.3,89.4,1.3,89.9,1.1z M72.6,23.8c0.3,0.6,0.3,1.4,1,1.8c0.6,0.2,1.5,0,2,0.5c0.2,0.7-0.3,1.3-0.4,1.9
			c-3.9-0.3-8.1,0.5-10.5-3.1l-1.4-1.7c1.4-0.7,2.9-1.4,4.2-2.5C68.5,23,71,22.7,72.6,23.8z M73.6,7.7c2-3.4,2.9-7.3,4.3-10.9
			c0.4-0.9,1.2-1.9,2.2-1.8c0.7,0.5,0.4,1.5,0.3,2.3C80.2-2,80-1.2,79.7-0.5c-0.2-0.6-0.3-1.5-0.5-2.2h-0.2C79-1.8,79.3-0.9,79.4,0
			c-0.6,1.1-0.8,2.3-1.1,3.5c-0.2-1.2-0.5-2.4-0.7-3.6c-0.1-0.1-0.2,0-0.3,0c0.2,1.3,0.5,2.7,0.8,4.1c0.2,0,0,0.2,0,0.3
			c-0.2,1.2-0.7,2.2-1.4,3.2l-0.2-3.9c-0.1-0.1-0.2-0.1-0.3-0.1c-0.1,1.5,0.1,3.1,0.2,4.5l-2.8,3.6l0.1,0l1.8-1.5
			c1.5-0.5,3-1.1,4.5-1.7c0-0.1-0.1-0.2-0.2-0.3c-1.3,0.5-2.5,1-3.8,1.5c1-1.1,2-2.4,2.5-3.8C80,4.9,81.2,3.8,82.5,3
			c0.1-0.1-0.1-0.2-0.1-0.2l-3.5,2.5c0.2-0.9,0.4-1.9,0.6-2.8c1.2-1.2,2.6-2.3,3.8-3.5c-0.1-0.1-0.2-0.2-0.3-0.2
			c-1.2,1.2-2.2,2-3.3,3c0.9-2.3,1.8-4.4,1.7-7.1c0.3-0.1,0.6,0.1,0.9,0.2c0.8,0.3,1.4,1,1.7,1.8c0.7,3.1-1,5.8-1.2,8.8
			c-0.5,3.6-3.3,6.7-6.3,9c-1.8,1.3-3.9,1.8-6.1,2.1C72.1,13.8,74,11.1,73.6,7.7z M51.3,22.5c-2.1,1.2-5.3,1.2-7.3-0.4
			c-2.3-1.7-3.7-4.1-3.3-7c1.2-5,5.4-9.3,9.9-11.8c2-1,4.2-1.5,6.6-1.6l0.1,0.8c0.2,0.5,0.6,0.7,1,0.7c1.2,0.1,2.1-0.5,3-1.1
			c2.5,0.8,5.3,1.2,7.8,2.2c1.4,0.7,2.2,2.2,2.4,3.7c0.5,4.2-2.1,7.3-4.4,10.4c-2.1,2.4-4.8,3.1-7.4,4.3c-0.9,0.3-2.3,0.6-3.1-0.1
			c-0.2-0.3-0.5-0.5-0.7-0.8c2.9,0.2,6.8,0.2,8.3-2.9c0.2-0.9-0.1-1.8-0.8-2.4c-1.5-0.8-3.2-0.6-4.7,0.3
			C56.4,18.7,54.2,21.4,51.3,22.5z M56.6,20.8c1.2-1.5,2.7-2.7,4.2-3.6c0.6-0.2,1.5-0.4,2,0.2c0.3,0.4,0.7,0.9,0.4,1.4
			C61.7,20.7,59,20.5,56.6,20.8z M58.1,31.7c-2.4-0.7-5-1-7.4-1.6c1.1-0.2,2.2-0.4,3.1-0.9c1.4-0.7,2.9-1,4.6-1
			c1,0.2,1.8,1.1,2.7,1.6c1.2,0.6,2.6,1,3.9,1.3C62.8,31.2,60.5,32.3,58.1,31.7z M62.2,29.3c-0.9-0.4-1.8-1-2.7-1.5
			c0.1-0.3,0.8-0.4,0.7-0.9c0.1-0.5,0-1.1-0.5-1.5c-0.8-0.7-2.1-0.4-3.2-0.5c0-0.3-0.2-0.9,0.2-1c1.6,0.1,3.5-0.2,5.2-0.2
			c2.1,3.1,5.3,5.3,8.9,5.8c2,0.6,3.3-1.3,5.1-0.6c0.3,0.1,0.6,0.2,0.8,0.3C72.4,31.2,66.7,31.8,62.2,29.3z M82.7,29.1
			c-0.9,0.8-2,1.4-3,1.9c0-1.7,0.9-3.2,1.2-4.9c-0.1-1.3-1.1-2.4-2.3-2.9c-1.2,0.7,0,1.8-0.3,2.8c-0.2,1-1.2,1.9-2.2,2.5
			c0.2-0.9,0.8-1.6,0.5-2.7c-0.2-0.7-0.4-1.4-0.5-2.2c1.5-1.1,3.1-2,4.5-3.5c2-3.5,5.4-6.5,8.4-9.4c3-4.3,7.7-4.8,12.1-6.1
			c3.8-0.8,8.1-1.8,12-0.9l1.5,0.5c-0.1,0.5-0.4,1.1-1,1.1c-1.7-0.1-3.2,0.4-4.7,0.7l1.7-1.9c0-0.1-0.1-0.1-0.2-0.1
			c-1.1,0.8-1.6,2.5-3.1,2.5l-3.6,0.9V7.4l2.5-2.5l-0.2-0.2l-3,3c-1.5,0.4-3,1-4.5,1.4l2.2-3.4l-0.2-0.1c-0.8,1.2-1.6,2.5-2.5,3.7
			c-1.2,0.2-2.3,0.6-3.4,1l1.8-3.1l-0.2-0.2c-0.8,1.1-1.5,2.4-2.2,3.6c-0.6,0.4-1.3,0.9-1.9,1.5c0.9-0.1,1.8-0.4,2.7-0.6
			c2.5,0.5,5.1,0.7,7.6,1.2c0.1-0.1,0-0.2,0-0.3c-2.3-0.5-4.7-0.7-6.9-1.1c1.7-0.4,3.4-1.1,5.1-1.6c1.8,0.4,3.8,0.7,5.8,1.1
			c0.1-0.1,0.2-0.2,0.1-0.3l-5.3-1.1c1.9-0.5,3.7-1.2,5.6-1.5c2.1,0.3,4.2,0.5,6.3,0.8c0.1-0.1,0.1-0.1,0.1-0.2l-0.1-0.1
			c-2-0.2-3.8-0.4-5.6-0.7c2.4-0.7,4.8-1.6,7.5-1.3c0.5,0.2,1,0.4,1.3,0.9c-0.1,1.6-1.8,2.6-3.1,3.3c-2.2,0.9-4.9,1-7.1,2
			c-4.9,2.2-10,1.5-15.4,2.6c-3.5,0.8-6.6,2.6-9.4,5.1c-0.7,0.9-1.4,1.8-1.3,2.9c0.4,0.4,0.8,0.7,1.4,0.7c1.2,0,1.6-1.6,2.8-1.4
			C85.3,24.8,84.6,27.5,82.7,29.1z M86,19.1c1.9-1.1,3.9-1.8,5.9-2.4c0.5,0.2,0.7,0.7,1.2,1c0.5,0.5,0.8,0.9,1.2,1.5
			c-2.4,0.6-4.9,1-7.3,1.5C86.7,20.2,86.2,19.7,86,19.1z M87.3,21.1c2.5-0.5,5-1,7.3-1.5l0.3,0.5c0.6,1.2,0.8,2.7,0.7,4.1
			c-1,0.1-2.1,0.2-3,0.3c-0.8,0.1-1.8,0.2-2.7,0.2C89.3,23.4,88.1,22.3,87.3,21.1z M95.5,24.7c0,1-0.5,1.8-0.7,2.7
			c-1.6,0-3.1,0.2-4.5,0.1c0.2-0.8,0-1.5-0.3-2.2L95.5,24.7z M93.2,29.9c-0.8,0.5-2,0.6-2.9,0.8c-0.1-0.3,0-0.8-0.1-1.1
			c1.2-0.1,2.4-0.2,3.6-0.3C93.6,29.4,93.5,29.7,93.2,29.9z M94.1,28.8c-1.4,0.1-2.6,0.1-3.8,0.3v-1.4h4.3
			C94.5,28.2,94.3,28.5,94.1,28.8z M94.7,31.3c0.1-0.3,0.4-0.3,0.5-0.5c0.7,0.3,1.4,0.7,2.1,1.1C96.4,32,95.5,31.7,94.7,31.3z
			 M88.9,43.8c0.1-2.1-0.3-4.6,1.7-5.9c0.9-0.5,1.8-0.9,2.8-1.2c0,1.9-1.8,3.1-2,4.9c-0.3,2.1,0.4,3.9,1,5.7h-0.1
			C90.9,46.6,88.8,45.7,88.9,43.8z M97.8,54.3c-5,1.2-10.9,1.4-16,0.2c3.1-0.1,6.4,1,9.4,0c1.5-0.3,3.4,0.3,4.1-1.3
			c0.1-0.3,0.2-0.6,0.4-0.7l2.2,1.7L97.8,54.3z M116.1,52.3c-4.7,3.8-12.4,2.5-17.4,0.3c-0.4-0.3-0.8-0.5-1.1-0.9l4.9-1
			c3.6,1.2,6.9,2,11,1.7L116.1,52.3L116.1,52.3z M120.6,49.8c-2.9,0.3-5.2,0.6-8.1,0.8c-2.1-0.1-4.2-0.4-6.1-0.9
			c2.2-1.2,4.4-2.4,6.7-3.5c4.3,0.1,8.5-0.6,12.4-1.5C124,46.5,122.8,48.9,120.6,49.8z M128.1,40.6c-1.4,1.8-3.8,1.7-5.8,2.5
			c-2.3,0.6-5,0.9-7.3,1c1.3-2.1,2.7-4.1,3.9-6.2c3.9-0.9,7.5-2.6,10.9-4.6C129,35.7,129.1,38.4,128.1,40.6z"/>
		<path fill="#720018" d="M57.4,8.6c-0.6-0.5-1.7-0.8-2.5-0.3c-0.1,0.2-0.3,0.5-0.2,0.8c1.4,0.6,3.1,1.9,3.4,3.5
			c0.1,1-0.2,2-1.1,2.5c-1.2,0.6-2.5,1.1-3.9,1.3c0.4-0.4,1-0.7,1.4-1.1c0.7-0.8,0.8-1.9,0.5-2.9c-0.6-1.9-3.1-2.5-2.9-4.8
			c0.9-1.3,2.6-1.4,3.7-2.5L55.5,5c-0.9,0.1-1.9,0.3-2.7,0.6c-3,0.9-3.1,4.1-4,6.5c-0.8,2.1-3.2,1.9-4.9,2.8
			c1.2,0.2,2.5,0.3,3.8,0.4c1.8,1.2,3.4,2.8,5.8,2.4c2.3-0.7,5.6-0.9,6.2-3.8C60,11.8,58.9,10,57.4,8.6z M50.8,14.3
			c-0.2,0.2-0.6,0.4-0.9,0.4c-0.3-0.1-0.4-0.3-0.5-0.5c-0.1-0.4,0.1-0.7,0.4-0.9c0.3-0.2,0.8-0.1,1,0.1C50.9,13.6,50.9,14,50.8,14.3
			z M51,12.5c-0.2,0.1-0.4-0.1-0.5-0.2c0-0.2,0-0.5,0.2-0.5c0.2,0,0.4-0.1,0.5,0.2C51.4,12.2,51.1,12.4,51,12.5z"/>
		<path fill="#720018" d="M47.6,8.1c-0.7,0.2-1.3,0.3-1.8,0.9c-0.6,1-0.8,2.2-1.2,3.3C46.4,11.7,47.3,9.9,47.6,8.1z"/>
		<path fill="#720018" d="M44.2,20l0.4,1.1c0.6,1,2,0.6,2.9,0.5C46.9,20.4,45.6,20,44.2,20z"/>
	</g>
</g>
</svg>
