<?xml version="1.0" encoding="utf-8"?>
<!-- Generator: Adobe Illustrator 19.1.0, SVG Export Plug-In . SVG Version: 6.00 Build 0)  -->
<!DOCTYPE svg PUBLIC "-//W3C//DTD SVG 1.1//EN" "http://www.w3.org/Graphics/SVG/1.1/DTD/svg11.dtd">
<svg version="1.1" xmlns="http://www.w3.org/2000/svg" xmlns:xlink="http://www.w3.org/1999/xlink" x="0px" y="0px"
	 viewBox="33 -33 100 100" enable-background="new 33 -33 100 100" xml:space="preserve">

<g id="AREA_2">
	<g>
		<path fill="#FDBB2D" d="M87-9.5c1.3-0.4,1-2,2.2-2.6c0.6-0.3,1,0.4,1.4,0.8c-0.3,0.4-0.9,0.8-1.4,1.3c-0.8,0.7-0.5,2.2-0.3,3
			c-1.6-0.5-3.5-0.2-5-0.8c0.9,0.5,1.4,1.4,1.2,2.4l0.4-0.1c0.7-0.1,1.3-0.3,2-0.4c-1.2,1.7-2.7,3.3-3.1,5.3c-0.4,2,1.2,3.2,2.4,4.6
			l-1.1,1c-0.6,0.6-0.8,1.3-0.6,2.1c0.1,0.5,0.7,0.3,1,0.3c2-2.9,4.2-5.5,6.9-8.1c0-1.2,0.5-2.1,1-3.1c-1.1-1.3-2.8-2.7-1.9-4.6
			c1-1.4,2.6-2.6,4.4-2.4c1.9,1.4,3.4,3.1,5.4,4.2c1.6,0.8,1.7,2.6,2.6,3.8c0.3,0.4,0.9,0.3,1.4,0.3c2.6-0.7,0.2-3,0.6-4.5
			c0.7,1.7,2.1,3.9,4.2,4c0.6-0.2,1.3-0.5,1.5-1.2c0.1-0.7-0.2-1.5-0.6-2c-1.7-1-3.5-2.1-5-3.6l-4.8-2.4c-3-1.3-6.2-0.5-9.3-0.3
			c-0.8-1.2-1.5-2.4-2.3-3.7c-0.3-0.4-0.9-0.4-1.4-0.5c-0.5,0-1,0.5-1.2,0.8c-1,1.6-2.6,3.2-4.7,3c0.3,0.6,0.7,1.2,1.2,1.8
			C84.6-9.7,85.8-9.3,87-9.5z M110.3-4.9l0.8-0.3l-0.9,0.6l-1.3-0.3l-1.3-1.5C108.4-5.8,109.3-5.1,110.3-4.9z M105.1-5.2l0.6-0.7
			c-0.2,0.5,0.1,1.4-0.8,1.1h-0.4l-1.5-1.2C103.6-5.8,104.2-5.1,105.1-5.2z"/>
		<path fill="#FDBB2D" d="M103.6-12.2l1-1c0.3,1,0.7,2.1,1.6,2.8c0.5,0.3,1.1,0.6,1.7,0.3c0.2-0.2,0.7-0.3,0.7-0.6
			c-1.8-1-3.4-2.5-4.6-4.3c-0.4-0.3-0.8-0.7-1.3-0.6c-0.9,0.2-1.5,1.2-1.7,2C101.5-12.8,102.6-12.4,103.6-12.2z"/>
		<path fill="#FDBB2D" d="M95.2-1.2c0.6,0.2,1.1-0.5,1.5-1c-0.1-0.2-0.2-0.4-0.3-0.6c-0.6-0.7-0.4-2-0.1-2.8
			c0.3-0.5-0.4-0.8-0.6-1.3c0.4-0.3,0.9,0,1.3,0c2.4,1.5,4.7,3.2,7.1,4.9c-1.2-2.1-2.8-4.2-5.2-5c-1.1-0.6-1.6-1.9-2.6-2.6
			C95-9.9,94.1-8.8,93.3-8c-1.1,1.6,0.9,3.1,1.7,4.4c-0.3,0.7-0.7,1.3-0.9,2C94.4-1.5,94.7-1.3,95.2-1.2z"/>
		<path fill="#FDBB2D" d="M83.3-8.1c-0.3-0.2-0.7-0.4-1-0.6C82.3-8.1,82.9-8.2,83.3-8.1z"/>
		<path fill="#FDBB2D" d="M103.8,22.2c-0.3,0.1-0.4-0.1-0.6,0.1l-0.4,2.8l-0.1,0.1l-2.4-2.6c-3,0.4-6.5,1-9.3-0.2L89.1,24
			c-0.1-0.9,0-1.8,0-2.6c-2.5-2-4.3-4.8-5.9-7.4l-1.8,0c0.3-0.5,0.9-1,1.2-1.5c-0.8-2.7-1.8-5.2-2.3-8c-0.1-1-1.3-1.2-1.9-1.8
			c0.5-0.2,1-0.4,1.5-0.6c0-0.9,0-1.8,0.1-2.6c0.4-2.5,1-5.1,1.2-7.5L81-8.3c-1.1,0.4-2.1,0.7-3.1,1.2C73.7-5,70.2-1,67.3,2.7
			c-4,5.1-10.3,4.7-15.1,8.1c-3,1.5-4.4,4.7-5.4,7.5c-0.8,2.7-3.8,3.4-5.7,5c-0.7,0.8-1,1.7-1.1,2.7c-0.2,3.2-1.6,6-2.5,8.9
			c-0.4,1.7,0.7,2.9,1.7,4.1c1.2,1.3,2.4,2.4,4,2.9c0.7,0.1,1.4-0.2,2-0.6c0.7-0.6,0.2-1.7,0.1-2.4c0.7,0.1,1.4,0,1.9,0.6
			c0.5,1,1,2.6,2.3,2.7c0.7-0.2,1.4-0.9,1.6-1.6c0.4-0.9-0.2-1.7-0.7-2.3c1.3-0.1,2.2,0.9,3.1,1.8h0.1c0.2-0.6,0.5-1.1,0.3-1.8
			c-0.3-1.6-2.2-2.3-3.6-2.7c-1.4-0.5-3-0.4-4.2-1.5c-0.9-1.7,0.3-3.6,1.4-4.8c1.4-0.2,2.9-0.3,4.2-0.7c2-0.7,4.4-0.5,6-2.2
			c0-1.3-0.2-3-0.1-4.4c0-4.9,4.8-9.1,8.9-11.4l0-0.2c-0.1-2.7,1.9-4.7,3.7-6.7c0.3,0.1,0.6,0.1,0.9,0.3c-1.5,1.7-2.6,3.6-3.2,5.6
			c0.3-0.1,0.8-0.2,1.2-0.1c0.3,0.3,0.3,0.7,0.2,1.1c-0.3,0.5-1,0.5-1.5,0.7c-3,1.2-5.7,3.8-7.8,6.4c-1.3,1.5-1.2,4-0.8,5.9
			c0.2,4.6,1.8,8.5,2.5,12.8c0.3,2,2.4,3.3,4.1,4c-0.5,0.4-1,0.8-1.5,1.2l0,0.1c1.2,1.4,2.7,2.8,4.5,3.1c1.1,0.1,2.4-0.1,3.4,0
			c2,0.1,3.8,1.4,5.8,0.6c0.9-0.8,1.4-1.8,1.3-3c-0.2-0.9-1.1-1.5-1.9-2c1.2-0.4,2.2,0.5,2.9,1.3c0.2-0.4,0.5-0.7,0.6-1.1
			c0.1-0.3,0.1-0.6-0.1-0.8c-1.2-0.5-2.5-0.9-3.5-2c0-0.3,0.1-0.8-0.2-1.1c-0.4-0.2-0.8-0.5-1.3-0.3c-0.9,0.5-1.9,0.2-2.9,0.3
			c-0.9,0.5-0.8,1.6-1,2.5c-1-0.9-0.7-2.4-0.6-3.6c-0.1-1.8-1.2-3.5-0.5-5.4c0.8-2.1,0.7-4.7,2.9-6.2c1.8-1.1,2.9,1.4,4.6,1.6
			c1.2,0.2,2.6,0.2,3.3-0.8c0.5-1.3,1.7-2.3,2.2-3.5c0.1-0.4,0.1-0.8,0.3-1.2c0.3,0.2,0.6,0.4,1,0.6c-0.1,1.5-0.3,2.9-1.2,4.1
			c-1.2,1.5-2.9,2.4-4.8,2.1c-1.7-0.2-2.9-1.6-4.7-1.3c-1.4,0.8-1.7,2.6-1.6,4c2.8,0.2,5.3,1.3,7.7,2.6c3.7,1.4,7.5,2.6,11.5,3.3
			c5.5,0.7,9.6-2.5,13.5-5.8c3.2-2.4,3.8-6.1,5.4-9.3C108.7,21.7,106.1,21.9,103.8,22.2z"/>
		<path fill="#FDBB2D" d="M80.7,1.7l2.1-0.8c0.3,0.5,0.7,1,0.9,1.6c0.3,1.2-0.6,2-1.2,2.9c-0.5-0.3-1-0.6-1.4-0.9
			c0.5,2.5,1.4,4.8,2.2,7.2c0.4-0.5,1-0.9,1.4-1.6c0.6,0.3,1.3,1,1.6,1.6c-0.6-1.1-0.1-2.4,0.2-3.5l-1.2-0.1c-0.5,0-0.7-0.6-0.8-1
			c-0.4-1.3,0.4-2.4,1.4-3.2c-0.6-0.7-1.3-1.5-1.8-2.3c-1-2.3,0.3-4.5,1.7-6.3v-0.1c-0.4,0-0.8,0.2-1.2,0.1c-0.2-0.5,0-1.2-0.2-1.8
			c-0.4-0.9-1.4-1.1-2.3-1.3c0,0.3,0,0.7-0.1,1C81.7-4,80.6-1.2,80.7,1.7z"/>
		<path fill="#FDBB2D" d="M97.6-2.4c1.1,0.2,2-0.3,2.7-1l-3.1-2.3C97-4.6,96.6-3.1,97.6-2.4z"/>
		<path fill="#FDBB2D" d="M111.7,1.9c-1.2-0.8-2.5-1.4-3.8-1.9c1.1-0.5,2.2-1,3.4-1.2v-0.1l-3.1-1.9c-0.8,0.9-1.8,1.5-3.1,1.2
			c-0.4-0.2-0.5,0.2-0.6,0.5c0.4,0.6,1.2,0.3,1.8,0.6c0,0,0,0.1-0.1,0.1c-0.5,0.8-1.2,0.2-1.9,0c-0.4-0.1-0.4,0.5-0.6,0.8
			c0.3,0.8,0.8,1.7,1.5,2.2c0.4,0.3,0.6-0.3,0.9-0.5c0.7,0.5,1.4,1.3,1.8,1.9l0.1-0.2c0.1-0.1,0.3-0.2,0.4-0.1
			c0.2,0.1,0.4,0.3,0.3,0.6c-0.1,0.2-0.3,0.3-0.6,0.3c0.7,1,1.7,0.8,2.6,0.6c1.7-0.5,3.8,1.2,5-0.7c0.1-0.4,0.1-0.8-0.1-1.1
			c-1.1-1.2-2.2-2.1-3.3-3.2h-0.1C111.8,0.3,111.5,1,111.7,1.9z M107.4,1.9c-0.2,0.1-0.4-0.1-0.5-0.2c-0.1-0.3,0.1-0.5,0.3-0.6
			c0.2,0,0.3,0.1,0.4,0.2C107.7,1.6,107.7,1.8,107.4,1.9z M109.4,3c-0.2,0-0.4,0-0.5-0.1c0-0.3,0-0.7,0.3-0.7
			c0.2,0.1,0.4,0.1,0.4,0.3C109.7,2.7,109.5,2.8,109.4,3z"/>
		<path fill="#FDBB2D" d="M100.7-2.1c0.2,0.1,0.4,0.1,0.6,0c0.2-0.1,0.1-0.3,0.1-0.5c-0.2-0.2-0.6-0.3-0.7,0
			C100.7-2.5,100.6-2.2,100.7-2.1z"/>
		<path fill="#FDBB2D" d="M101.8-1.9c0.1,0,0.2-0.2,0.2-0.3c0-0.2-0.3-0.1-0.4-0.1C101.6-2.1,101.5-1.8,101.8-1.9z"/>
		<path fill="#FDBB2D" d="M91.5,3c-0.8,1.1-2,1.8-3,2.8c-1.1,1.1-1.2,2.6-1.7,4.1c-0.3,1.3,0.5,2.2,1.2,3.1c1.4,1.7,1.8,4.1,3.4,5.7
			c1.2,1.2,3,1.5,4.6,1.2c1-0.2,2-1,2.9-1.1c0-0.2,0.2-0.4,0.2-0.7c0.3-4.6-2.7-8.2-2-12.9c0.5-1.6,0.6-3.2,1.2-4.7
			C98.4,0.3,98.6-0.1,99,0c2.4,0.6,4,3.4,6.4,3.9c-1.7-2.3-3.5-6-6.7-6c-1.2,0.2-2.2,0.8-2.4,2c-0.3,2-0.5,3.9-1.7,5.5
			c0.3-1.6,0.7-3.4,0.5-5.2c-0.2-0.2-0.4-0.3-0.7-0.4C92.8,0.4,92.4,2,91.5,3z M96.1,14.8c0.1,0.1,0.3,0,0.4,0.2
			c0.1,0.2,0,0.5-0.2,0.6c-0.2,0.1-0.4-0.1-0.5-0.2C95.7,15.1,95.9,15,96.1,14.8z M95.7,11.8c0.1,0.2-0.1,0.5-0.3,0.5
			c-0.2,0-0.3-0.1-0.4-0.2c0-0.2,0-0.5,0.3-0.5C95.5,11.5,95.6,11.7,95.7,11.8z M94.8,8.6c0.2,0,0.3,0.1,0.4,0.2
			c0,0.2,0,0.6-0.3,0.6c-0.1-0.1-0.3,0-0.4-0.2C94.6,8.9,94.4,8.6,94.8,8.6z M88.4,8.8c0-0.3,0.1-0.4,0.3-0.6c0.2,0.1,0.4,0,0.5,0.3
			c0,0.2-0.1,0.4-0.2,0.5C88.7,9.1,88.5,9,88.4,8.8z M89.2,13.6c-0.2,0.1-0.5,0-0.6-0.2c0-0.1,0-0.4,0.2-0.5c0.2-0.1,0.4,0,0.5,0.1
			C89.3,13.3,89.4,13.5,89.2,13.6z M90.2,11.6c-0.2,0.1-0.4,0-0.5-0.1c-0.1-0.2-0.1-0.5,0.1-0.6c0.2,0,0.4,0,0.6,0.2
			C90.5,11.3,90.4,11.5,90.2,11.6z M91.8,14.2c-0.1,0.1-0.3,0.1-0.5,0.1c-0.2-0.1-0.2-0.3-0.2-0.6c0.2-0.3,0.6-0.2,0.7,0.1
			C91.9,14,92,14.1,91.8,14.2z M92.6,10.9c-0.1-0.3,0.1-0.3,0.3-0.5c0.2,0,0.4,0,0.5,0.2c0.1,0.2,0,0.4-0.1,0.5
			C93,11.3,92.7,11.1,92.6,10.9z M93.7,17.3c-0.2,0-0.4,0-0.5-0.1c0-0.2,0-0.6,0.3-0.6c0.2,0.1,0.4,0,0.5,0.3
			C93.9,17,93.8,17.2,93.7,17.3z M93.8,13.6c0.2,0,0.4,0,0.5,0.2c0,0.2,0,0.4-0.2,0.5c-0.2,0-0.4,0-0.5-0.2
			C93.5,13.9,93.5,13.7,93.8,13.6z M93.4,8.4c0.1,0.2-0.2,0.2-0.2,0.3c-0.2,0-0.3,0-0.4-0.1C92.7,8.4,92.7,8,93.1,8
			C93.3,8,93.5,8.1,93.4,8.4z M92.8,7c-0.6,1-1.6,1.4-2.6,1.8c1.2-1.7,2-3.7,2.5-5.7C93.3,4.3,93.6,5.9,92.8,7z"/>
		<path fill="#FDBB2D" d="M111.3-0.6c-0.6,0.2-1.2,0.2-1.7,0.7h0.7l0.5,0.5c0-0.2-0.1-0.4,0-0.7C111-0.3,111.2-0.4,111.3-0.6z"/>
		<path fill="#FDBB2D" d="M83.3,3.4c0.2-0.8-0.2-1.5-0.6-2.1c-1.2,0.4-2.5,0.8-3.7,1.3v0.1L82.2,5h0.1C82.7,4.5,83.1,4,83.3,3.4z"/>
		<path fill="#FDBB2D" d="M102.4,4.4l1.8,0.8c0.2,0.1,0.4,0.2,0.6,0.2l-0.4-1.1c-1.4-0.7-2.6-2.2-4.2-2.3c-0.6,0.1-1.3,0.4-1.6,1.1
			l0,3.4c0.4-0.7,0.9-1.4,1.3-2c0.6,0.4,1.2,1,1.8,1.5C101.9,5.4,102,4.8,102.4,4.4z"/>
		<path fill="#FDBB2D" d="M116.2,5.3c-0.1,0.4,0.5,0.6,0.8,0.8c0.6,0.2,1.1-0.1,1.7-0.2c0-0.7-0.1-1.5-0.4-2.2
			c-0.3-1-1.4-1.3-2.3-1.5c0,0.2,0.2,0.4,0.3,0.5C116.8,3.5,116.4,4.5,116.2,5.3z"/>
		<path fill="#FDBB2D" d="M109.1,5.7c-1-1.2-2-2-2.9-3.1c-0.5,1-1.1,2.5-0.2,3.5l1,0.4C107.8,6.6,108.5,6.3,109.1,5.7z"/>
		<path fill="#FDBB2D" d="M98.4,9.3h3.4c0.7-1.3,2.1-2.4,3.3-3.1c-0.7-0.6-1.6-0.9-2.4-1.3l-0.9,1.5c-0.6-0.2-1.1-0.8-1.8-1
			l-1.7,1.5V9.3z"/>
		<path fill="#FDBB2D" d="M54.6,8.1c-0.5-0.8-1.2-1.7-2-2.1c-1.5-0.7-3.6-0.6-5,0.5c0.1,0.6,0.2,1.2,0.8,1.5
			c0.7,0.4,1.2,0.1,1.8-0.1c0.9-0.3,1.7,0.4,2.4,0.9L54.6,8.1z"/>
		<path fill="#FDBB2D" d="M111.6,6.1c-0.1-0.4-0.5-0.6-0.9-0.5c-0.3,0.2-0.7,0.4-0.9,0.7c0.6,0.2,1.3,0.5,1.8,0.5L111.6,6.1z"/>
		<path fill="#FDBB2D" d="M115.4,5.7c-0.4-0.1-0.7,0.4-1,0.6c0,0.2,0.3,0.3,0.4,0.6c0.4-0.1,0.8-0.3,1.1-0.5
			C115.8,6,115.6,5.9,115.4,5.7z"/>
		<path fill="#FDBB2D" d="M114,7.1l0-0.8c-0.5-0.6-1.4-0.4-1.9,0.2c0.1,0.2,0.2,0.3,0.3,0.5C112.9,7,113.5,7.2,114,7.1z"/>
		<path fill="#FDBB2D" d="M118.1,7.5c-0.5,0.2-0.7,0.6-0.9,1.1c-1.4-0.9-2.8,0.2-4.1,0.7c-2.5-1-5.4-3.3-8.2-1.4
			c-1.6,1.3-2.7,3.7-4.8,3.9c-0.2,0.1-0.5,0.1-0.7,0.2c1.2,1.9,1.2,4.5,0.7,6.7c3.3-0.2,6.1-1.3,9.5-1.3c1-0.8,2.1-1.7,3.4-1.3
			c0.4,0,0.8,0.4,1.1,0.1c0.6-0.8,1.2-1.6,1.7-2.4c-1.7-0.7-3.2-2.1-4.7-3.3c-1.4-0.7-3.2-0.7-4.9-0.7c1.1-1.6,3.1-0.7,4.6-0.5
			c0.5,0.1,1.3,0.1,1.7,0.6c1.3,1.8,3.3,3,5.6,2.7c1.2-0.2,2.2-1.3,2.6-2.5c0.2-0.6,0-1.2-0.3-1.7C119.8,7.8,118.9,7.2,118.1,7.5z"
			/>
		<path fill="#FDBB2D" d="M84.7,10.6l-2.7,3v0.1l4.3-0.1C86.2,12.5,85.8,11.3,84.7,10.6z"/>
		<path fill="#FDBB2D" d="M89,20.3v-1.7c0.2-0.2,0.3,0.1,0.5,0.1c0.5,0.2,1,0.5,1.4,0.7c-2.3-2.1-2.4-5.1-4.6-7.2
			c0.2,0.7,0.4,1.3,0.5,2L84.1,14C85.4,16.3,87.2,18.6,89,20.3z"/>
		<path fill="#FDBB2D" d="M115.5,16.2c0.3,0.4,0.9,0.4,1.4,0.4c0.5-0.2,1.1-0.6,1.2-1.2c0.7-1.2-0.9-0.8-1.3-1.1
			C116.5,14.9,116.2,15.6,115.5,16.2z M117.2,14.9c0.1,0.1,0.3,0,0.4,0.2c0,0.2,0,0.5-0.2,0.6c-0.2,0.1-0.3-0.1-0.5-0.2
			C116.8,15.2,116.9,15,117.2,14.9z"/>
		<path fill="#FDBB2D" d="M113.8,17.3v-0.1l-1-0.3c-1.3-0.4-2,0.8-2.9,1.3c-4-0.2-7.1,1.5-11.1,1.4c-1.8,1.2-4.8,1.6-6.8,0.5
			c0.3,0.4,0.7,0.5,1,0.9l-1.2,0.9V22c2.5,0.9,5.4,0.3,7.7-0.1c-0.1-0.3-0.5-0.4-0.6-0.7l1.1-0.9c1-0.7,2.4-0.4,3.4,0.1l-0.2,1.1
			C107.2,21,111.1,20.7,113.8,17.3z"/>
		<path fill="#FDBB2D" d="M123.2,37.9c0.7,0,1.4,0.2,2.1,0.2c0.6-1.7,0.7-4,0.2-5.8c-1-3.8-2.8-7.2-3.7-11c0-2-2.1-3.3-3.6-4.1
			c-0.1,0.3,0,0.8-0.5,1.1c-1.2,0.2-2.4-0.3-3.6-0.1c-0.7,0.6-1.2,1.1-1.9,1.7c-0.8,2.5-1.9,4.9-2.7,7.4c0.7,1.1,1.2,2.2,1.9,3.3
			c1.1,2.2,3.6,3.2,4.8,5.3c1.8,0.4,3.6,0.4,5.3,0.3c0,0.2-0.2,0.4-0.3,0.6c-1.5,0.3-3.2,0.2-4.7,0.6c-0.7,0.4-1.7,0.9-1.7,1.8
			c0.4,0.3,0.8,0.2,1.2,0.4c-0.7,0.9-1.6,1.7-1.9,2.8c-0.2,0.6,0,1.3,0.4,1.8c0.5,0.6,1.2,1.2,2.1,1c1.4-0.4,2.2-1.8,2.9-2.9
			c2.2,0.5,0.5,3.3,2.4,4.3c0.7,0.3,1.5,0.3,2.2,0c0.9-0.5,1.7-1.5,1.5-2.7c-0.2-0.6-0.7-1.1-1.2-1.5c0.5-0.2,1.1,0,1.6,0
			c0.8,0.5,0.6,1.5,0.7,2.2c0.5-0.2,1-0.4,1.3-0.9c0.1-0.4-0.1-0.9-0.3-1.2C126.4,40.7,125,38.7,123.2,37.9z"/>
		<path fill="#FDBB2D" d="M92.4,20.9c-0.9-0.8-1.9-1.5-3-1.9v4.3l3-2.3V20.9z"/>
		<path fill="#FDBB2D" d="M99.4,21.2v0.1l2.9,3.1h0.1c0.1-1.3,0.5-2.6,0.6-4c-0.3-0.1-0.7-0.2-1-0.3C101,20,100.2,20.6,99.4,21.2z"
			/>
		<path fill="#FDBB2D" d="M81,34c-2.9-0.8-5.3-3.3-8.8-2.7c-0.6,1.4-0.2,3.1,0.4,4.3c1.5-0.2,2.9-0.5,4.4-0.2
			c1.1,0.2,1.8,1.3,2.2,2.2c1.6,0.6,2.7,2.3,2.7,4c0.7,0,1.4,0.1,1.8-0.5c1.4-2-1.4-2.9-2.3-4.4c1.1,0,2.2,0.2,3.1,1
			c0.8,0.8,0.6,2,0.5,3c0.5,0,0.9,0.1,1.3,0.1c0.5-0.1,1.1-0.5,1.3-1c0.4-1.2-0.7-1.9-1.5-2.7c0.5-0.2,1.1-0.2,1.7-0.1
			c0.8,0.4,0.8,1.4,0.9,2.1c0.6-0.6,0.9-1.5,0.7-2.3C86.7,35.5,83.8,34.7,81,34z"/>
	</g>
</g>
<g id="AREA_1">
	<g>
		<path fill="#720018" d="M126.2,39c0.3-1.5,0.3-3.2,0.4-4.6c0.2-3.1-1-6.3-2.4-9.2c-1.1-1.8-1.4-3.9-1.7-6
			c-1.1-0.8-2.2-1.5-3.2-2.3c0.1-0.8,0.2-1.5,0.4-2.3c1.4-0.7,2.3-2,2.6-3.5c0.4-2.3-0.9-4.2-2.7-5.5c-0.3-1.2-0.6-2.3-1.6-3.2
			c-0.5-0.4-1.1-0.4-1.8-0.4c-1.4-0.9-3-2.1-3.9-3.6c0.4-0.2,0.9-0.5,1.2-0.9c0.6-0.8,0.3-2-0.1-2.8c-0.9-1.9-2.8-2.7-4.5-3.2
			c0.4-0.8,0.9-1.5,1.6-2.2c-0.2-0.2-0.6-0.3-0.9-0.4c-2.3-1-2.8-3.7-5-4.8c-1.1-0.5-2.4-0.5-3.4,0.2c-0.7,0.4-1,1.3-1.5,2
			c-2.3,0.2-4.5,0.4-6.9,0.3c-0.3-0.7-0.5-1.5-1.1-2.1c-1.1-0.8-2.2-1.6-3.7-1.7c-1.2,0-1.8,1.4-2.2,2.3c-0.9,1.3-2.6,1.4-4.2,1.2
			c0.1,1,0.2,1.9,0.5,2.8c0.2,0.5,0.5,1,0.5,1.5C78.8-8.7,75.3-7,72.4-4.4c-2.5,1.8-4,4.5-6.1,6.8c-3.1,2.5-6.4,4.5-10.3,4.9
			c-0.8-0.9-1.4-2.1-2.5-2.6c-2.5-0.9-5.2-0.1-7.4,1c-0.2,1.6,0.9,2.6,2.1,3.3c1.1,1,2.2-0.4,3.4,0.1c0.3,0.1,0.6,0.3,0.7,0.6
			c-1.1,0.5-2.1,1-2.9,2c-1.1,2.1-3.3,3.7-3.3,6.2c-0.3,2.4-3,2.6-4.6,3.6c-1.9,1.2-2.5,3.2-2.5,5.4c-1,1.6-1.2,3.5-1.6,5.4
			c-0.5,1.6-1.5,3-1.1,4.9l1.2,1.7c2.2,2.4,5.3,4.9,8.9,3.6c1.5,0.7,3.4,1.2,5,0.5c1.2-0.7,2.8-0.7,3.7-2.1c0.9-1.5-0.2-3.1-0.8-4.4
			c-1.4-2.7-5.3-0.6-6.8-3.3C47,32,48.1,31,48.9,30c2.8,0.1,5.3-0.3,7.6-1.4c0.6-0.2,1.2-0.7,1.8-0.8c0.9,3.3,1.6,6.6,2.6,9.9
			c0.6,1.6,0.8,3.3,1.6,4.7c0.1,0.2,0.3,0.4,0.4,0.6c2.7,2.4,5.9,3.5,9.5,3.5c2.4,0.2,5.2,1.7,7.3-0.1c0.8-1,1.3-2.1,2-3.2
			c1.1,0,2.3-0.2,3-1.3c0.5,0.2,0.9,0.4,1.4,0.6c2,0.6,2.4-2.1,4-2.4c1-0.4,0.9-1.4,1-2.3c0-0.2-0.2-0.3,0-0.5c2,0,4-0.1,5.9-0.6
			c3.9-0.5,6.4-4,9.7-6c0.7-0.6,1.1-1.4,1.7-2l0.1,0.1c0.5,2.1,2.8,3.4,4.2,5.1c0.6,0.7,1.6,1.1,2,1.9c0.3,1-0.7,1.7-1.3,2.3
			l0.3,1.7c-0.4,0.6-0.7,1.2-0.9,1.8c-0.3,1.8,0.6,3.5,2.1,4.4c1.2,0.5,2.7,0.2,3.9-0.2c1.5,0.9,2.9,2.2,4.8,2.1
			c1.1-0.3,1.7-1.1,2.5-2c0.5,0.1,1.1,0.3,1.7,0.1c0.7-0.3,1-1.2,1.2-1.8C129.4,41.8,127.7,40.4,126.2,39z M120.5,8.4
			c0.3,0.5,0.6,1.1,0.3,1.7c-0.4,1.1-1.4,2.2-2.6,2.5c-2.4,0.4-4.3-0.9-5.6-2.7c-0.4-0.5-1.2-0.4-1.7-0.6c-1.5-0.3-3.5-1.2-4.6,0.5
			c1.7,0,3.5,0,4.9,0.7c1.5,1.2,3,2.6,4.7,3.3c-0.5,0.8-1.2,1.6-1.7,2.4c-0.3,0.3-0.7-0.2-1.1-0.1c-1.4-0.4-2.4,0.5-3.4,1.3
			c-3.4-0.1-6.1,1.1-9.5,1.3c0.5-2.2,0.5-4.8-0.7-6.7c0.2-0.1,0.5-0.2,0.7-0.2c2.2-0.2,3.3-2.6,4.8-3.9c2.8-2,5.7,0.4,8.2,1.4
			c1.2-0.5,2.7-1.6,4.1-0.7c0.2-0.4,0.4-0.9,0.9-1.1C118.9,7.2,119.8,7.8,120.5,8.4z M118.1,15.3c-0.1,0.6-0.7,1-1.2,1.2
			c-0.5,0.1-1,0-1.4-0.4c0.7-0.5,1-1.2,1.2-1.9C117.2,14.5,118.8,14.1,118.1,15.3z M100,20.3l-1.1,0.9c0.1,0.3,0.5,0.4,0.6,0.7
			c-2.4,0.4-5.2,0.9-7.7,0.1v-0.1l1.2-0.9c-0.3-0.4-0.7-0.6-1-0.9c1.9,1.1,4.9,0.8,6.8-0.5c4,0.2,7.2-1.6,11.1-1.4
			c0.9-0.5,1.7-1.7,2.9-1.3l1,0.3v0.1c-2.6,3.4-6.6,3.7-10.5,4.1l0.2-1.1C102.4,19.9,101,19.6,100,20.3z M103,20.5
			c-0.1,1.3-0.4,2.7-0.6,4h-0.1l-2.9-3.1v-0.1c0.7-0.6,1.5-1.2,2.6-1C102.3,20.3,102.7,20.4,103,20.5z M86.8,14c0-0.7-0.3-1.3-0.5-2
			c2.2,2.1,2.3,5.1,4.6,7.2c-0.4-0.2-0.9-0.4-1.4-0.7c-0.2,0-0.4-0.3-0.5-0.1v1.7c-1.8-1.7-3.6-4-4.9-6.2L86.8,14z M82,13.7L82,13.7
			l2.7-3.1c1,0.7,1.5,1.8,1.7,3L82,13.7z M93.3-8c0.7-0.9,1.7-1.9,2.9-1.6c1,0.7,1.5,2,2.6,2.6c2.3,0.8,4,2.9,5.2,5
			c-2.3-1.7-4.7-3.4-7.1-4.9c-0.4,0-0.9-0.2-1.3,0c0.1,0.5,0.9,0.8,0.6,1.3c-0.3,0.8-0.5,2,0.1,2.8c0.2,0.2,0.3,0.4,0.3,0.6
			c-0.4,0.5-0.9,1.2-1.5,1c-0.4,0-0.7-0.2-1.1-0.4c0.2-0.7,0.6-1.3,0.9-2C94.2-4.9,92.2-6.3,93.3-8z M101.6-2.2
			c0.1-0.1,0.3-0.1,0.4,0.1c0,0.1-0.1,0.3-0.2,0.3C101.5-1.8,101.6-2.1,101.6-2.2z M100.6-2.7c0.2-0.2,0.6-0.1,0.7,0
			c0,0.2,0.1,0.4-0.1,0.5c-0.1,0.1-0.4,0.1-0.6,0C100.6-2.2,100.7-2.5,100.6-2.7z M100.4-3.3c-0.7,0.7-1.7,1.2-2.7,1
			c-1-0.7-0.6-2.2-0.3-3.3L100.4-3.3z M94.3-0.1C94.5,0,94.8,0.1,95,0.3c0.3,1.8-0.2,3.6-0.5,5.2C95.7,3.9,96,1.9,96.2,0
			c0.3-1.2,1.3-1.8,2.4-2c3.2-0.1,5,3.6,6.7,6c-2.4-0.5-4-3.3-6.4-3.9c-0.3,0-0.6,0.3-0.7,0.5c-0.6,1.5-0.7,3.2-1.2,4.7
			c-0.7,4.7,2.3,8.2,2,12.9c0,0.2-0.2,0.4-0.2,0.7c-0.9,0.1-1.9,0.9-2.9,1.1c-1.6,0.3-3.4,0-4.6-1.2c-1.6-1.6-1.9-3.9-3.4-5.7
			c-0.7-0.9-1.5-1.8-1.2-3.1c0.4-1.4,0.6-2.9,1.7-4.1c1-1,2.3-1.7,3-2.8C92.4,2,92.8,0.4,94.3-0.1z M100.1,5.5
			c0.6,0.2,1.2,0.8,1.8,1l0.9-1.5c0.8,0.4,1.7,0.7,2.4,1.3c-1.2,0.7-2.7,1.8-3.3,3.1h-3.4V6.9L100.1,5.5z M98.4,6.4l0-3.4
			c0.3-0.7,1-0.9,1.6-1.1c1.7,0.1,2.8,1.6,4.2,2.3l0.4,1.1c-0.2,0.1-0.4-0.1-0.6-0.2l-1.8-0.8c-0.3,0.4-0.5,1-0.8,1.5
			c-0.6-0.5-1.2-1-1.8-1.5C99.3,5.1,98.9,5.8,98.4,6.4z M89.4,18.9c1.1,0.4,2,1.1,3,1.9V21l-3,2.3V18.9z M106.2,2.6
			c0.9,1.1,1.9,2,2.9,3.1c-0.6,0.5-1.3,0.9-2.1,0.8l-1-0.4C105.1,5.2,105.7,3.6,106.2,2.6z M109.8,6.3c0.2-0.3,0.6-0.5,0.9-0.7
			c0.4-0.1,0.8,0.1,0.9,0.5l0,0.7C111,6.9,110.4,6.6,109.8,6.3z M112.1,6.4c0.5-0.6,1.4-0.7,1.9-0.2l0,0.8c-0.4,0.2-1-0.1-1.6-0.1
			C112.3,6.8,112.1,6.6,112.1,6.4z M118.3,3.8c0.3,0.6,0.3,1.4,0.4,2.2c-0.5,0.1-1.1,0.3-1.7,0.2c-0.3-0.2-0.9-0.4-0.8-0.8
			c0.2-0.8,0.6-1.8,0.1-2.5c-0.1-0.2-0.3-0.3-0.3-0.5C116.9,2.4,117.9,2.8,118.3,3.8z M114.8,6.8c-0.1-0.2-0.4-0.3-0.4-0.6
			c0.3-0.2,0.6-0.7,1-0.6c0.2,0.2,0.5,0.3,0.6,0.6C115.6,6.5,115.3,6.7,114.8,6.8z M112.4-0.3h0.1c1,1.1,2.2,2,3.3,3.2
			c0.1,0.3,0.1,0.7,0.1,1.1c-1.2,2-3.3,0.3-5,0.7c-0.9,0.2-1.9,0.4-2.6-0.6c0.3,0.1,0.5-0.1,0.6-0.3c0.1-0.3-0.1-0.5-0.3-0.6
			c-0.2,0-0.3,0.1-0.4,0.1l-0.1,0.2c-0.4-0.6-1.2-1.4-1.8-1.9c-0.3,0.2-0.5,0.8-0.9,0.5c-0.7-0.5-1.2-1.4-1.5-2.2
			c0.2-0.3,0.2-0.8,0.6-0.8c0.6,0.1,1.4,0.8,1.9,0c0,0,0.1-0.1,0.1-0.1c-0.6-0.3-1.3,0-1.8-0.6c0.1-0.3,0.2-0.7,0.6-0.5
			c1.2,0.4,2.3-0.3,3.1-1.2l3.1,1.9v0.1C110-1,109-0.5,107.9,0c1.3,0.5,2.6,1.1,3.8,1.9C111.5,1,111.8,0.3,112.4-0.3z M110.9,0.6
			l-0.5-0.5h-0.7c0.4-0.4,1.1-0.4,1.7-0.7c-0.1,0.2-0.3,0.2-0.5,0.5C110.8,0.1,110.9,0.4,110.9,0.6z M102.7-15.6
			c0.6-0.1,0.9,0.3,1.3,0.6c1.2,1.7,2.8,3.3,4.6,4.3c0,0.3-0.5,0.4-0.7,0.6c-0.6,0.3-1.2,0.1-1.7-0.3c-0.9-0.7-1.3-1.8-1.6-2.8l-1,1
			c-1-0.2-2.1-0.5-2.7-1.4C101.2-14.4,101.8-15.4,102.7-15.6z M87.3-15.6c0.3-0.4,0.7-0.8,1.2-0.8c0.5,0,1.1,0,1.4,0.5
			c0.7,1.2,1.4,2.5,2.3,3.7c3.1-0.2,6.3-1,9.3,0.3l4.8,2.4c1.5,1.5,3.2,2.6,5,3.6c0.5,0.6,0.8,1.3,0.6,2c-0.2,0.7-0.9,1-1.5,1.2
			c-2.1,0-3.5-2.3-4.2-4c-0.4,1.5,2,3.7-0.6,4.5c-0.5,0.1-1,0.1-1.4-0.3c-0.9-1.2-1-3-2.6-3.8c-2-1.1-3.5-2.7-5.4-4.2
			c-1.8-0.2-3.3,1-4.4,2.4C91.2-6.4,92.9-5,94-3.7c-0.4,1-1,1.9-1,3.1c-2.7,2.6-4.9,5.2-6.9,8.1c-0.3,0-0.9,0.2-1-0.3
			c-0.2-0.8,0-1.5,0.6-2.1l1.1-1c-1.2-1.3-2.8-2.6-2.4-4.6c0.4-2,1.9-3.6,3.1-5.3c-0.6,0.1-1.3,0.2-2,0.4l-0.4,0.1
			c0.1-1-0.3-2-1.2-2.4c1.5,0.6,3.4,0.3,5,0.8c-0.3-0.8-0.6-2.2,0.3-3c0.4-0.5,1-0.9,1.4-1.3c-0.4-0.4-0.8-1.1-1.4-0.8
			C88-11.5,88.3-9.9,87-9.5c-1.2,0.2-2.4-0.2-3.2-1.2c-0.5-0.6-0.8-1.2-1.2-1.8C84.8-12.4,86.4-14,87.3-15.6z M83.3-8.1
			c-0.3-0.2-1-0.1-1-0.6C82.6-8.5,82.9-8.2,83.3-8.1z M81.9-7.6c0.9,0.2,1.9,0.4,2.3,1.3c0.2,0.5,0,1.2,0.2,1.8
			c0.4,0.1,0.8-0.1,1.2-0.1v0.1c-1.4,1.7-2.7,4-1.7,6.3c0.4,0.8,1.2,1.6,1.8,2.3c-1,0.8-1.8,1.9-1.4,3.2c0.2,0.4,0.3,0.9,0.8,1
			l1.2,0.1c-0.3,1.1-0.7,2.4-0.2,3.5c-0.3-0.6-1-1.3-1.6-1.6c-0.4,0.6-1,1.1-1.4,1.6c-0.7-2.4-1.6-4.7-2.2-7.2
			c0.5,0.3,1,0.6,1.4,0.9c0.6-0.9,1.5-1.7,1.2-2.9c-0.2-0.6-0.5-1.1-0.9-1.6l-2.1,0.8c-0.1-3,1-5.7,1.2-8.3
			C81.9-6.9,82-7.3,81.9-7.6z M79,2.7L79,2.7c1.2-0.5,2.4-1,3.7-1.4c0.4,0.6,0.7,1.3,0.6,2.1C83.1,4,82.7,4.5,82.4,5h-0.1L79,2.7z
			 M50.2,7.8c-0.7,0.2-1.2,0.5-1.8,0.1c-0.6-0.3-0.7-0.9-0.8-1.5c1.3-1.1,3.4-1.1,5-0.5c0.9,0.4,1.6,1.2,2,2.1l-2,0.7
			C51.9,8.2,51.1,7.6,50.2,7.8z M88.8,38.9c-0.2-0.7-0.1-1.7-0.9-2.1c-0.5-0.1-1.2,0-1.7,0.1c0.8,0.8,1.9,1.5,1.5,2.7
			c-0.2,0.5-0.7,0.9-1.3,1c-0.5,0-0.9-0.1-1.3-0.1c0.2-0.9,0.4-2.2-0.5-3c-0.9-0.7-2-1-3.1-1c0.9,1.4,3.8,2.4,2.3,4.4
			c-0.4,0.6-1.2,0.5-1.8,0.5c0-1.7-1.2-3.3-2.7-4c-0.4-0.9-1.2-2-2.2-2.2c-1.6-0.3-2.9,0.1-4.4,0.2c-0.6-1.2-1-3-0.4-4.3
			c3.4-0.6,5.8,1.9,8.8,2.7c2.8,0.8,5.7,1.5,8.4,2.5C89.7,37.4,89.4,38.2,88.8,38.9z M105.4,30c-3.9,3.3-8,6.5-13.5,5.8
			c-4-0.7-7.8-1.9-11.5-3.3c-2.4-1.3-4.9-2.4-7.7-2.6c-0.1-1.4,0.2-3.2,1.6-4c1.8-0.3,3,1.1,4.7,1.3c2,0.2,3.6-0.6,4.8-2.1
			c0.9-1.2,1.1-2.6,1.2-4.1c-0.3-0.2-0.6-0.5-1-0.6c-0.2,0.3-0.2,0.8-0.3,1.2c-0.5,1.2-1.7,2.3-2.2,3.5c-0.7,1-2.2,0.9-3.3,0.8
			c-1.7-0.2-2.7-2.7-4.6-1.6c-2.2,1.5-2.1,4.1-2.9,6.2c-0.7,1.9,0.4,3.5,0.5,5.4c-0.1,1.2-0.4,2.7,0.6,3.6c0.2-0.9,0.2-2,1-2.5
			c1-0.2,2,0.2,2.9-0.3c0.5-0.2,0.9,0.1,1.3,0.3c0.3,0.3,0.2,0.7,0.2,1.1c1,1.1,2.3,1.4,3.5,2c0.2,0.2,0.2,0.6,0.1,0.8
			c-0.2,0.4-0.4,0.7-0.6,1.1c-0.8-0.8-1.7-1.7-2.9-1.3c0.8,0.4,1.7,1.1,1.9,2c0,1.2-0.5,2.2-1.3,3c-2,0.8-3.8-0.5-5.8-0.6
			c-1-0.1-2.3,0.1-3.4,0c-1.8-0.3-3.3-1.6-4.5-3.1l0-0.1c0.5-0.3,1-0.8,1.5-1.2c-1.7-0.7-3.7-2.1-4.1-4c-0.8-4.3-2.4-8.2-2.5-12.8
			c-0.4-1.9-0.5-4.4,0.8-5.9c2.1-2.6,4.8-5.2,7.8-6.4c0.5-0.2,1.2-0.2,1.5-0.7c0.1-0.4,0.1-0.8-0.2-1.1c-0.4-0.1-0.8,0-1.2,0.1
			c0.6-2,1.7-3.9,3.2-5.6c-0.3-0.2-0.6-0.2-0.9-0.3c-1.7,2-3.8,4-3.7,6.7l0,0.2c-4.1,2.3-8.9,6.5-8.9,11.4c-0.1,1.4,0,3.1,0.1,4.4
			c-1.6,1.7-4,1.5-6,2.2c-1.3,0.3-2.8,0.4-4.2,0.7c-1.1,1.3-2.2,3.2-1.4,4.8c1.2,1.1,2.8,1,4.2,1.5c1.4,0.4,3.2,1.1,3.6,2.7
			c0.2,0.7-0.1,1.2-0.3,1.8h-0.1c-0.9-1-1.8-2-3.1-1.8c0.5,0.6,1.1,1.4,0.7,2.3c-0.2,0.7-0.9,1.4-1.6,1.6c-1.3-0.1-1.8-1.7-2.3-2.7
			C46.8,39,46,39.1,45.3,39c0.2,0.7,0.7,1.8-0.1,2.4c-0.6,0.4-1.3,0.7-2,0.6c-1.6-0.5-2.7-1.6-4-2.9c-1-1.2-2.1-2.4-1.7-4.1
			c0.9-2.9,2.3-5.7,2.5-8.9c0.1-1,0.5-1.9,1.1-2.7c1.9-1.7,4.9-2.3,5.7-5c1-2.8,2.3-6,5.4-7.5C57,7.4,63.4,7.8,67.3,2.7
			C70.2-1,73.7-5,77.9-7.1c1-0.4,2.1-0.8,3.1-1.2l0.2,0.2c-0.2,2.4-0.8,5-1.2,7.5c-0.1,0.8-0.2,1.7-0.1,2.6c-0.5,0.2-1,0.4-1.5,0.6
			c0.6,0.7,1.8,0.8,1.9,1.8c0.6,2.8,1.6,5.3,2.3,8c-0.4,0.5-0.9,1-1.2,1.5l1.8,0c1.6,2.6,3.4,5.4,5.9,7.4c0,0.8,0,1.7,0,2.6l1.8-1.5
			c2.8,1.2,6.3,0.6,9.3,0.2l2.4,2.6l0.1-0.1l0.4-2.8c0.2-0.2,0.3-0.1,0.6-0.1c2.3-0.3,4.9-0.6,7.1-1.5
			C109.3,23.9,108.6,27.6,105.4,30z M127.9,43.5c-0.3,0.5-0.8,0.7-1.3,0.9c0-0.7,0.1-1.7-0.7-2.2c-0.5-0.1-1.1-0.2-1.6,0
			c0.5,0.4,1,0.9,1.2,1.5c0.2,1.2-0.6,2.2-1.5,2.7c-0.6,0.3-1.5,0.3-2.2,0c-1.9-0.9-0.2-3.8-2.4-4.3c-0.6,1.2-1.5,2.5-2.9,2.9
			c-0.9,0.2-1.6-0.4-2.1-1c-0.3-0.5-0.5-1.2-0.4-1.8c0.3-1,1.2-1.9,1.9-2.8c-0.5-0.2-0.9,0-1.2-0.4c0-0.9,1-1.4,1.7-1.8
			c1.5-0.4,3.1-0.3,4.7-0.6c0.1-0.2,0.2-0.4,0.3-0.6c-1.7,0.1-3.5,0.1-5.3-0.3c-1.3-2.1-3.7-3.2-4.8-5.3c-0.7-1-1.2-2.2-1.9-3.3
			c0.8-2.5,1.9-4.9,2.7-7.4c0.7-0.6,1.2-1,1.9-1.7c1.3-0.2,2.4,0.3,3.6,0.1c0.4-0.2,0.3-0.8,0.5-1.1c1.5,0.8,3.6,2.1,3.6,4.1
			c0.9,3.8,2.8,7.2,3.7,11c0.5,1.8,0.3,4.1-0.2,5.8c-0.7,0-1.4-0.2-2.1-0.2c1.8,0.8,3.2,2.8,4.4,4.3C127.8,42.6,128,43,127.9,43.5z"
			/>
		<path fill="#720018" d="M110.2-4.6l0.9-0.6l-0.8,0.3c-1-0.2-1.8-0.9-2.7-1.5l1.3,1.5L110.2-4.6z"/>
		<path fill="#720018" d="M104.9-4.8c0.9,0.3,0.7-0.6,0.8-1.1l-0.6,0.7c-0.9,0.1-1.4-0.6-2.1-0.8l1.5,1.2H104.9z"/>
		<path fill="#720018" d="M107.3,1.1c-0.2,0.1-0.4,0.3-0.3,0.6c0.1,0.1,0.3,0.3,0.5,0.2c0.2-0.1,0.2-0.3,0.2-0.6
			C107.6,1.3,107.4,1.1,107.3,1.1z"/>
		<path fill="#720018" d="M109.2,2.2c-0.4,0-0.3,0.4-0.3,0.7C109,3,109.2,3,109.4,3c0.1-0.1,0.3-0.2,0.2-0.5
			C109.6,2.3,109.4,2.3,109.2,2.2z"/>
		<path fill="#720018" d="M90.2,8.8c1-0.4,2-0.8,2.6-1.8c0.8-1.1,0.5-2.8-0.1-3.9C92.2,5.2,91.4,7.1,90.2,8.8z"/>
		<path fill="#720018" d="M92.8,8.6c0.1,0.1,0.3,0.2,0.4,0.1c0.1-0.1,0.3-0.1,0.2-0.3C93.5,8.1,93.3,8,93.1,8
			C92.7,8,92.7,8.4,92.8,8.6z"/>
		<path fill="#720018" d="M88.9,9c0.2-0.1,0.3-0.2,0.2-0.5c0-0.2-0.3-0.2-0.5-0.3c-0.2,0.1-0.3,0.3-0.3,0.6C88.5,9,88.7,9.1,88.9,9z
			"/>
		<path fill="#720018" d="M94.9,9.3c0.3,0,0.3-0.3,0.3-0.6c-0.1-0.1-0.2-0.2-0.4-0.2c-0.4,0-0.3,0.3-0.3,0.6
			C94.6,9.3,94.8,9.3,94.9,9.3z"/>
		<path fill="#720018" d="M93.3,10.6c-0.1-0.2-0.3-0.2-0.5-0.2c-0.2,0.1-0.4,0.2-0.3,0.5c0.1,0.2,0.4,0.3,0.6,0.2
			C93.4,11.1,93.4,10.8,93.3,10.6z"/>
		<path fill="#720018" d="M89.9,10.9c-0.2,0.1-0.2,0.4-0.1,0.6c0.1,0.1,0.3,0.2,0.5,0.1c0.2-0.1,0.2-0.3,0.2-0.5
			C90.3,10.8,90.1,10.9,89.9,10.9z"/>
		<path fill="#720018" d="M95,12.1c0.1,0.2,0.3,0.2,0.4,0.2c0.2,0,0.4-0.3,0.3-0.5c-0.1-0.1-0.2-0.3-0.5-0.2
			C95,11.6,95,11.9,95,12.1z"/>
		<path fill="#720018" d="M88.8,12.9c-0.3,0-0.2,0.3-0.2,0.5c0.1,0.2,0.4,0.4,0.6,0.2c0.2-0.1,0.1-0.3,0.1-0.6
			C89.2,13,89,12.8,88.8,12.9z"/>
		<path fill="#720018" d="M91.9,13.8c-0.1-0.2-0.6-0.4-0.7-0.1c0,0.2,0,0.5,0.2,0.6c0.2,0,0.4,0,0.5-0.1C92,14.1,91.9,14,91.9,13.8z
			"/>
		<path fill="#720018" d="M94.1,14.3c0.2-0.1,0.2-0.3,0.2-0.5c-0.1-0.2-0.3-0.3-0.5-0.2c-0.3,0.1-0.3,0.3-0.2,0.6
			C93.7,14.3,93.9,14.3,94.1,14.3z"/>
		<path fill="#720018" d="M95.8,15.4c0.1,0.2,0.3,0.3,0.5,0.2c0.2-0.1,0.3-0.4,0.2-0.6c-0.1-0.1-0.3-0.1-0.4-0.2
			C95.9,15,95.7,15.1,95.8,15.4z"/>
		<path fill="#720018" d="M117.3,15.7c0.3-0.1,0.3-0.3,0.2-0.6c0-0.2-0.2-0.2-0.4-0.2c-0.3,0.1-0.4,0.3-0.3,0.6
			C117,15.5,117.1,15.7,117.3,15.7z"/>
		<path fill="#720018" d="M93.4,16.5c-0.3,0-0.3,0.4-0.3,0.6c0.1,0.1,0.3,0.1,0.5,0.1c0.2-0.1,0.3-0.3,0.2-0.5
			C93.9,16.5,93.6,16.6,93.4,16.5z"/>
	</g>
</g>
</svg>
