<?xml version="1.0" encoding="utf-8"?>
<!-- Generator: Adobe Illustrator 19.1.0, SVG Export Plug-In . SVG Version: 6.00 Build 0)  -->
<!DOCTYPE svg PUBLIC "-//W3C//DTD SVG 1.1//EN" "http://www.w3.org/Graphics/SVG/1.1/DTD/svg11.dtd">
<svg version="1.1" xmlns="http://www.w3.org/2000/svg" xmlns:xlink="http://www.w3.org/1999/xlink" x="0px" y="0px"
	 viewBox="33 -33 100 100" enable-background="new 33 -33 100 100" xml:space="preserve">

<g id="AREA_2">
	<g>
		<path fill="#FDBB2D" d="M70.7-11.4c0.3-0.9,0.7-1.9,0.7-2.8c-3-0.7-5.5-2.6-7.8-5.2L63.4-19c-0.5,1.2-0.2,2.3,0.5,3.3
			c1.8,2.2,3.7,4.6,6.4,5.3L70.7-11.4z"/>
		<path fill="#FDBB2D" d="M83.8-10.2C87-10,89.2-7,90.9-4.5c3.9-1.9,8.1-3.2,12.2-4.5c-4.9-4.7-10.5-8-16.9-9
			c-0.4,0.1-0.8-0.3-1.3-0.1l-0.3-0.1c-3.7-0.5-7.3-0.1-10.7,0.6c-0.1,3.5-1.4,6.5-1.9,9.9C75.6-9.5,79.8-11,83.8-10.2z"/>
		<path fill="#FDBB2D" d="M85.8,4.5c1.8,0.1,3.1-1.3,3.8-2.7c0.9-2,0.4-4.8-1-6.5c-2.2-3.5-6.6-4-10.1-3.2c-4.3,1.3-8.6,2.9-13,3.3
			C60.6-3.7,55.4-5.8,52-10.2c-0.4,0-0.8-0.2-1.2-0.3C51-9.7,51.1-9,51.4-8.2c1.7,6.5,8.8,10.1,14.6,11.8c3.5,1.4,7.7,0.7,11.3-0.1
			C80.4,3,82.8,4.7,85.8,4.5z"/>
		<path fill="#FDBB2D" d="M102.5-5.9c0.1,0.4,0,0.8-0.1,1.2c-0.3,0.6-0.9,0.9-1.5,0.9c-0.6-0.1-1.1-0.5-1.3-1.1
			c-0.1-0.6,0-1.1,0.3-1.5c-0.9,0.3-1.9,0.6-2.8,0.9c0.4,0,1.1,0,1.4,0.5c0.4,0.4,0.4,1,0.4,1.5c-0.2,0.4-0.5,0.8-0.9,1
			c-0.7,0.1-1.4,0-1.9-0.6c-0.2-0.4-0.4-0.8-0.2-1.2c0.1-0.4,0.6-0.9,0.8-1.1c-1,0.2-1.9,0.7-2.8,1.2c0.5,0,0.9,0.3,1.3,0.7
			c0.5,0.6,0.5,1.4,0.2,2.1c0.8-0.4,1.6-0.7,2.5-0.9c2.8-0.4,5.6-1.1,8.2-2.3c0-0.3-0.4-0.5-0.5-0.8l-0.9,0.6c-0.5,0.2-1,0-1.4-0.3
			c-0.5-0.4-0.5-1-0.5-1.6c0.1-0.5,0.8-0.7,0.8-1.1c-0.8,0.3-1.7,0.6-2.4,1C101.8-6.8,102.1-6.3,102.5-5.9z"/>
		<path fill="#FDBB2D" d="M103-5.9c0.1,0.5,0.7,0.7,1.2,0.9c0.4-0.1,0.7-0.2,1-0.5c-0.2-0.7-1-1.4-1.6-2.1l-0.5,0.3
			C102.9-6.9,102.9-6.3,103-5.9z"/>
		<path fill="#FDBB2D" d="M100.7-4.1c0.4,0,0.9,0,1.2-0.3c0.5-0.4,0.4-1,0.3-1.6c-0.2-0.2-0.3-0.6-0.6-0.6c-0.5-0.2-1.1-0.2-1.5,0.2
			c-0.3,0.4-0.4,1-0.3,1.4C99.9-4.5,100.3-4.2,100.7-4.1z"/>
		<path fill="#FDBB2D" d="M96.1-3.7c0.1,0.4,0.4,0.7,0.8,0.9c0.5,0.1,1,0.1,1.3-0.3c0.4-0.4,0.5-0.9,0.3-1.4
			c-0.2-0.6-0.8-0.8-1.3-0.9c-0.3,0-0.6,0.2-0.8,0.4C96.1-4.7,95.9-4.2,96.1-3.7z"/>
		<path fill="#FDBB2D" d="M100.4-0.7l0.3,0.8c1-0.4,2-0.7,2.9-1.3c0.9-0.9,2.1,0.1,3.2-0.4c1.1-0.5,1.5-1.7,1.9-2.7
			c-0.8,0.4-1.7,0.7-2.5,1C104.5-1.9,101.9-2.4,100.4-0.7z"/>
		<path fill="#FDBB2D" d="M92.6-1.2c0.4,0.3,0.9,0.6,1.4,0.5c0.4-0.3,1-0.4,1.2-1c0.1-0.7,0.1-1.4-0.5-1.9c-0.8-0.9-2-0.2-2.5,0.5
			C92.1-2.5,92-1.7,92.6-1.2z"/>
		<path fill="#FDBB2D" d="M72.6,7.5c0.5,1.4,0.2,2.9,0.6,4.3c0.2,0.2,0.5,0.3,0.8,0.3c2.3-0.7,4.3-2.5,5.8-4.5c1.7,1,3.5,1.9,5.7,2
			c0.8,0,1.5-0.3,2.1-0.7C90,7.4,92.8,4.9,92,1.6c0.2-0.9,1-1.6,1.7-2.2c-0.6,0.1-1.1-0.3-1.5-0.7C92-1.8,91.8-2.4,92-3l-0.5,0.4V1
			c0,2.1-1.7,4.2-3.7,5c-3.3,1.8-6.1-1.5-9.6-0.4c0.4,0.2,0.7,0.5,1,0.9c0.1,0.6,0,1.2-0.3,1.6c-0.3,0.3-0.7,0.5-1.2,0.5
			c-0.4,0-0.8-0.2-1.1-0.5c-0.4-0.4-0.5-1-0.3-1.6c0.2-0.2,0.3-0.5,0.5-0.7l-4.5,0.7C72.4,6.8,72.6,7.1,72.6,7.5z M73.2,9.4
			c0.3-0.4,0.7-0.9,1.3-0.9c0.5,0,0.8,0.2,1.2,0.5c0.3,0.3,0.4,0.8,0.3,1.2c-0.1,0.5-0.5,1.1-1,1.2c-0.5,0.1-1.1,0-1.4-0.3
			C73,10.7,73.1,10,73.2,9.4z"/>
		<path fill="#FDBB2D" d="M106,0.4c0.2,0.3,0.5,0.7,0.2,1c-1.1,0.5-0.2,1.6-0.3,2.3c-0.5-0.5-0.9-1.2-1.6-1.4
			c-0.5-0.2-1.1-0.1-1.6-0.3c0.8-0.8,1.9-1.4,2.7-2.2c-2.2-0.3-4.1,0.7-5.6,2.2h-0.1c-0.3-0.9-0.6-1.9-0.8-2.8l0,0
			c-1.1-0.1-1.4,1.2-2,1.8l0.6,1.1c2.1,3.2-0.7,6.2-2.1,8.9c-1.2,3.7,0.4,7.2,2.7,9.9c1.3,1.3,3.4,0.7,4.9,0.3
			c-0.1-3.6-0.1-7.6,1.7-10.8c0.5-1.6,2.2-2.5,3.2-3.8c0.2-0.5-0.1-1-0.2-1.5c-0.1-0.4-0.1-1,0.4-1.2c0.3-0.1,0.7-0.4,1-0.2
			c-0.1,0.4-0.5,0.7-0.4,1.3c0.1,0.2,0.4,0.5,0.7,0.6c0.6-0.2,1.1-0.4,1.5-0.9c0.1-0.5,1.1-0.9,0.4-1.4c-1.6-1.1-1.8-2.8-2.7-4.3
			C107.5-1,106.3-0.6,106,0.4z M102,13c-1.4-2.2-3.5-4.2-3-7.2c0.7,0.8,1.4,1.9,1.9,2.8c1,0.9,2.3,0,3.4-0.2
			C103.7,10,102.8,11.5,102,13z"/>
		<path fill="#FDBB2D" d="M77.9,16.8c-0.5,1.2,0.1,2.3,0.6,3.3c1.5,3.6,5.3,5.7,9.1,5.9c0.2-7.4,3.9-13.3,7.9-19.1
			c0.9-1.7,1.2-3.6,1.1-5.6c-0.5,0-1.3-0.3-1.7,0.2c-0.1,1,0.1,1.9-0.2,2.9c-1.1,3.7-4.5,6.2-7.6,8.3c-1.4,1.6-2,3.5-2.5,5.4
			l-0.1,0.1c-2-1.6-2.6-3.9-2.7-6.3C81.1,13.8,79.4,15.4,77.9,16.8z"/>
		<path fill="#FDBB2D" d="M76.6,7.3c0,0.4,0.3,0.8,0.7,1c0.5,0.2,1,0.1,1.4-0.2c0.4-0.4,0.4-1,0.3-1.6c-0.1-0.6-0.8-0.7-1.3-0.8
			c-0.3,0-0.6,0.2-0.8,0.5C76.6,6.5,76.4,7,76.6,7.3z"/>
		<path fill="#FDBB2D" d="M114.3,8.1c-0.5-0.7-1.2-1.3-1.7-1.9c-0.2-0.2-0.5-0.6-0.8-0.3c-3,1-5,3.8-6.6,6.5
			c-0.1,0.2-0.1,0.5-0.3,0.6c-0.6,2.9-0.9,6.1-0.6,9c1.3,3.7,2.1,7.6,4.2,10.9c0.7-4.9,0.7-10.1,0.6-15.3
			C109.2,13.8,111.7,10.9,114.3,8.1z"/>
		<path fill="#FDBB2D" d="M75,11.3c0.3-0.2,0.6-0.4,0.7-0.7c0.1-0.5,0.1-1.1-0.3-1.4c-0.2-0.3-0.7-0.4-1-0.4c-0.5,0.1-1,0.4-1.1,0.9
			c-0.4,0.6,0.1,1.1,0.5,1.6C74.1,11.3,74.6,11.4,75,11.3z"/>
		<path fill="#FDBB2D" d="M76.8,16.8c0.2-1.5,2-2.1,2.8-3.4c0.3-0.7,0.2-1.7-0.2-2.3c-0.7,0.7-1.4,1.3-2.1,1.9
			c-2.1,1.2-4.5,1.9-6,3.9c-2.8,4-6,7.8-8.8,11.7c-1.9,3-2.8,6.5-3.8,9.9c2.6-2.3,4.9-5.2,7.9-6.6c3.1-1.5,7.5-1.2,9.3-4.8
			c0.7-2,1.6-3.9,2.2-5.8C77.2,20,76.4,18.6,76.8,16.8z"/>
		<path fill="#FDBB2D" d="M115.7,14.2c-1.1-0.1-1.8-1.2-2.2-2.1c-1.2,1.9-2.4,3.7-2.9,5.8c-0.1,1-0.1,2.2,0,3.1
			c1-0.5,1.9-1.2,2.8-1.9c1.4-1.3,3.3-1.5,4.6-2.8c0.2-0.4,0.5-0.8,0.4-1.4C117.7,14.2,116.5,14.5,115.7,14.2z"/>
		<path fill="#FDBB2D" d="M93.7,14.4c-2.2,2-3.8,4.2-3.9,7.1c-0.1,0.5,0.1,1.1-0.2,1.7c0,1.7,0.1,3.6,0.2,5.2c0.3,0.6,0,1.3,0.2,1.9
			c1,0.3,2.1,0.7,3.1,0.9c-0.2-2.1,0.4-3.9,1.6-5.4L93.7,14.4z"/>
		<path fill="#FDBB2D" d="M99.4,23.1c-2.1-0.2-3.2-2.2-3.9-4l0.3,5.5c2.7,0.8,2.6,3.8,3.6,5.9c1.3-1.4,2.8-2.9,4.1-4.3
			c0-1-0.4-2-0.6-3C101.6,23.1,100.5,23.2,99.4,23.1z"/>
		<path fill="#FDBB2D" d="M82,26.8c-0.4-0.2-1-0.1-1.4-0.3c-0.9-0.5-1.4-1.5-1.5-2.5l-3.1,5l2.6,0.5c2,0.4,3.8,1,5.7,1.3
			C82.9,29.9,81.8,28.5,82,26.8z"/>
		<path fill="#FDBB2D" d="M97.3,36.1c0.3-0.9,0.6-1.7,0.8-2.7c0.6-2.7-0.4-5.2-2.7-6.9c-0.4,2.5-1.4,5-0.7,7.7
			C94.3,35.8,96.4,35.4,97.3,36.1z"/>
		<path fill="#FDBB2D" d="M87.9,27.4h-4.4c0.3,0.9,0.8,1.7,1.4,2.4c1.1,1.1,2.8,1.3,4.2,0.8C88.8,29.5,88.3,28.5,87.9,27.4z"/>
		<path fill="#FDBB2D" d="M93.4,34.4c-0.3-0.7-1.1-1.2-1.8-1.4c-1-0.4-2.7-0.9-3.6,0c0,0.2,0.1,0.4,0.1,0.6c1.1,1.4,2.7,2.1,4.4,1.9
			C92.9,35.2,93.5,35.1,93.4,34.4z"/>
		<path fill="#FDBB2D" d="M97.4,40.1l0.4,0.2c0.7,0.2,1.4,0.7,2.1,0.7c0.7-1.6,0.6-4-0.7-5.3C98.2,36.9,97.5,38.4,97.4,40.1z"/>
		<path fill="#FDBB2D" d="M96.7,39.4c0.3-0.5,0.5-1.3,0.2-1.8c-0.1-0.4-0.5-0.5-0.7-0.7c-1-0.4-2.7-0.5-3.6,0.3
			c0,0.7,0.6,1.3,1.2,1.7C94.5,39.3,95.7,40,96.7,39.4z"/>
		<path fill="#FDBB2D" d="M99.1,43.8c0.4-0.2,0.6-0.7,0.7-1c0.1-0.4,0.1-0.9-0.3-1.2c-1.3-0.4-2.6-0.7-4.1-0.6
			c-0.3,0.7,0.2,1.3,0.7,1.7C97,43.5,98,44.2,99.1,43.8z"/>
		<path fill="#FDBB2D" d="M100.6,45.3c0.2,0.3,0.6,0.7,1,0.7c0.4-0.4,0.4-1.1,0.3-1.6c-0.1-0.4-0.1-1.2-0.7-1.2
			c-0.3,0.2-0.6,0.6-0.7,0.9C100.2,44.5,100.5,44.9,100.6,45.3z"/>
		<path fill="#FDBB2D" d="M101,48.2c0.2-0.6-0.1-1-0.4-1.5c-0.5-0.7-1.1-1.1-1.8-1.3c-0.3-0.1-0.7-0.1-1,0c-0.3,0.1-0.3,0.6-0.3,0.9
			c0.2,0.9,1,1.9,1.9,2.2C99.9,48.5,100.6,48.6,101,48.2z"/>
		<path fill="#FDBB2D" d="M101.5,48.3c-0.4,0.8-0.7,1.9-0.3,2.8c0.3,0,0.6-0.2,0.8-0.4c0.5-0.6,0.7-1.4,0.4-2.2
			C102.4,48.2,101.8,47.7,101.5,48.3z"/>
		<path fill="#FDBB2D" d="M100.9,51.2c-0.3-0.6-0.8-1.3-1.5-1.3c-0.4,0.3-0.1,0.8-0.1,1.2c0.4,0.7,0.5,1.9,1.5,1.9
			C101,52.6,101.1,51.8,100.9,51.2z"/>
		<path fill="#FDBB2D" d="M101.7,53c-0.4-0.1-0.6,0.2-0.9,0.5c-0.6,0.7-0.8,1.8-0.5,2.7c0.2,0.2,0.4,0.4,0.6,0.3
			c0.7-0.7,1.2-1.5,1.2-2.5C101.9,53.6,102,53.1,101.7,53z"/>
		<path fill="#FDBB2D" d="M101.4,57c-0.1-0.1-0.3,0-0.5-0.1c-0.3,0-0.5,0.2-0.7,0.4c-0.2,0.5-0.2,0.9-0.1,1.5
			c0.1,0.3,0.4,0.7,0.7,0.5c0.5-0.2,0.6-0.7,0.7-1.1C101.6,57.7,101.8,57.3,101.4,57z"/>
	</g>
</g>
<g id="AREA_1">
	<g>
		<g>
			<path fill="#720018" d="M119.9,14c-1.1-1.4-2.8-1.6-4.5-1.4c-0.3-0.6-0.4-1.3-0.7-1.9c0.4-0.7,0.9-1.3,1.3-1.9
				c-0.1-0.7-0.6-1.4-0.9-2.1c-0.6-0.8-1.6-1.3-2.2-2c0.4-0.5,0.4-1.3,0.3-1.9c-0.3-0.5-0.9-0.7-1.3-1l-2.2-3.7l0-0.4
				c0.7-1.8,1.5-3.8,1.8-5.8l-0.2-0.2c-1.2,1.1-2.4,2.2-3.6,3.1c-1.3-2.1-2.7-4.4-4.5-6.2C97-16.5,90.1-20.1,82-20.1l-10,0.7
				c0,0.3,0.2,0.6,0.2,0.9c0.3,1.1-0.1,2.2-0.9,3c-1.1-0.9-2.3-1.6-3.5-2.3c-4-2.2-5.1-7.2-9.3-9.1l-0.4,0.1
				c0.6,2.5,1.7,5.5,2.2,7.9c0.8,4.4,4.7,8.4,8.7,10.4v1.2c-0.2,0.3-0.6,0.4-0.8,0.7c-2.8,2.2-6.9,0.3-9.9-0.3c-3.1-1-5.3-4.2-6.6-7
				c-1.6-3.7-2.4-8.2-3.8-12l-0.4,0.1c0.5,7,0.3,14.3,3.3,20.3c4.2,7.1,11.7,12,20.2,12.3l1.1,6.5c-2.7,4-6,7.7-9,11.5
				c-5,5.9-6.6,13.3-7.8,20.8l0.4,0c3.5-4.7,7.4-9.9,12.6-12.4c5.4-2.7,13.6-3.5,18.7,0.5c4.8,3.9,9,8.8,10.5,14.5
				c1.2,4.9,1.3,10.3,2.9,15l0.5,0c1.5-2.6,2.3-5.7,2-9.1c-0.1-2.1,0.8-3.9,1-5.9c-0.5-1.5-1.3-3-0.9-4.9c-0.1-0.9-0.7-1.6-1.2-2.4
				c-1.1-2.2,0.5-5.6-2.1-7.2c0.4-1.6,1.2-3.2,2.6-4.3c0.7-0.6,1.5-1.2,2.3-1.4c1.1,2.9,2.3,5.8,2.6,9c0.1,2.1-0.4,4.1-0.6,5.8
				l0.2,0c0,0,0.2-0.6,0.7-1.9c1.5-3.7,2.7-11.5,2.9-17.6c1.4-1.2,3-2.3,4.6-3.3c1.5-0.9,3.4-1.1,4.6-2.5
				C120.4,16.6,120.5,15.1,119.9,14z M111.1,3.3c0.7,0.5-0.3,0.9-0.4,1.4c-0.4,0.5-1,0.7-1.5,0.9c-0.3-0.1-0.5-0.4-0.7-0.6
				c-0.1-0.5,0.2-0.8,0.4-1.3c-0.3-0.1-0.7,0.1-1,0.2c-0.5,0.2-0.5,0.8-0.4,1.2c0.2,0.5,0.4,1,0.2,1.5c-1,1.3-2.7,2.2-3.2,3.8
				c-1.8,3.3-1.9,7.2-1.7,10.8c-1.5,0.3-3.6,1-4.9-0.3c-2.4-2.7-3.9-6.2-2.7-9.9c1.4-2.7,4.2-5.6,2.1-8.9l-0.6-1.1
				c0.6-0.6,0.9-1.9,2-1.8l0,0c0.2,1,0.5,1.9,0.8,2.8h0.1c1.5-1.5,3.4-2.6,5.6-2.2c-0.8,0.8-1.9,1.4-2.7,2.2
				c0.5,0.2,1.1,0.1,1.6,0.3c0.7,0.2,1.1,0.9,1.6,1.4c0.1-0.7-0.7-1.8,0.3-2.3c0.3-0.4,0-0.7-0.2-1c0.3-1.1,1.5-1.4,2.5-1.4
				C109.3,0.4,109.5,2.2,111.1,3.3z M95.4,26.5c2.3,1.7,3.3,4.2,2.7,6.9c-0.2,0.9-0.5,1.8-0.8,2.7c-0.9-0.6-3-0.2-2.7-1.9
				C94,31.4,95,28.9,95.4,26.5z M93,31.1C92,31,91,30.6,90,30.3c-0.3-0.5,0-1.2-0.2-1.9c0-1.6-0.1-3.5-0.2-5.2
				c0.2-0.6,0-1.1,0.2-1.7c0.1-2.9,1.8-5.2,3.9-7.1l1,11.3C93.5,27.3,92.8,29,93,31.1z M76.4,6.5c-0.2,0.5-0.1,1.2,0.3,1.6
				c0.3,0.2,0.7,0.5,1.1,0.5c0.5,0,0.8-0.2,1.2-0.5c0.4-0.4,0.5-1,0.3-1.6c-0.2-0.4-0.6-0.7-1-0.9c3.5-1.1,6.2,2.2,9.6,0.4
				c2-0.8,3.6-2.9,3.7-5v-3.6L92-3c-0.1,0.6,0,1.3,0.3,1.7c0.4,0.4,0.9,0.8,1.5,0.7C93,0,92.3,0.7,92,1.6C92.8,4.9,90,7.4,87.6,9
				c-0.7,0.4-1.4,0.7-2.1,0.7c-2.1-0.1-3.9-1-5.7-2c-1.5,2-3.5,3.8-5.8,4.5c-0.3,0-0.7-0.1-0.8-0.3c-0.4-1.4-0.2-2.9-0.6-4.3
				c0-0.4-0.2-0.7-0.2-1l4.5-0.7C76.7,6,76.6,6.3,76.4,6.5z M77.7,5.7c0.5,0.1,1.2,0.2,1.3,0.8c0.1,0.5,0.1,1.2-0.3,1.6
				c-0.4,0.3-0.9,0.4-1.4,0.2c-0.4-0.1-0.7-0.6-0.7-1c-0.1-0.3,0-0.8,0.3-1.1C77.1,5.9,77.4,5.7,77.7,5.7z M92.3-3.2
				c0.6-0.7,1.8-1.4,2.5-0.5c0.6,0.5,0.6,1.2,0.5,1.9c-0.2,0.6-0.8,0.7-1.2,1c-0.5,0.1-1-0.1-1.4-0.5C92-1.7,92.1-2.5,92.3-3.2z
				 M81.7,11.9c0.1,2.4,0.7,4.7,2.7,6.3l0.1-0.1c0.5-2,1.2-3.8,2.5-5.4c3.1-2.1,6.5-4.6,7.6-8.3c0.2-1,0-1.9,0.2-2.9
				C95.2,1,96,1.2,96.5,1.3c0.1,2-0.2,4-1.1,5.6c-4,5.8-7.6,11.7-7.9,19.1c-3.8-0.1-7.6-2.2-9.1-5.9c-0.5-1-1.1-2.1-0.6-3.3
				C79.4,15.4,81.1,13.8,81.7,11.9z M108.7-4.2c-0.4,1-0.8,2.2-1.9,2.7c-1.1,0.5-2.3-0.5-3.2,0.4c-0.9,0.6-1.9,0.8-2.9,1.3l-0.3-0.8
				c1.5-1.7,4.1-1.1,5.8-2.5C107-3.6,107.8-3.9,108.7-4.2z M105.3-5.5c-0.3,0.3-0.7,0.5-1,0.5c-0.5-0.1-1.1-0.3-1.2-0.9
				c-0.1-0.5-0.1-1,0.2-1.4l0.5-0.3C104.3-7,105.1-6.3,105.3-5.5z M102.7-6.8c-0.1,0.6,0,1.2,0.5,1.6c0.4,0.3,0.9,0.5,1.4,0.3
				l0.9-0.6c0.1,0.3,0.5,0.5,0.5,0.8c-2.5,1.2-5.3,1.9-8.2,2.3c-0.9,0.2-1.7,0.5-2.5,0.9c0.3-0.7,0.3-1.5-0.2-2.1
				c-0.4-0.4-0.8-0.7-1.3-0.7c0.9-0.5,1.8-0.9,2.8-1.2c-0.2,0.1-0.7,0.6-0.8,1.1c-0.1,0.4,0,0.8,0.2,1.2c0.4,0.6,1.2,0.7,1.9,0.6
				c0.4-0.2,0.7-0.6,0.9-1c0-0.5,0-1.1-0.4-1.5c-0.3-0.5-1-0.4-1.4-0.5c0.9-0.3,1.9-0.6,2.8-0.9c-0.4,0.4-0.5,1-0.3,1.5
				c0.2,0.6,0.7,0.9,1.3,1.1c0.6,0,1.2-0.3,1.5-0.9c0.1-0.4,0.3-0.8,0.1-1.2c-0.3-0.5-0.7-1-1.3-1c0.7-0.5,1.6-0.7,2.4-1
				C103.5-7.5,102.8-7.3,102.7-6.8z M97.2-5.4c0.6,0,1.2,0.3,1.3,0.9c0.1,0.5,0.1,1.1-0.3,1.4c-0.3,0.4-0.9,0.4-1.3,0.3
				c-0.4-0.2-0.7-0.5-0.8-0.9c-0.2-0.5,0-0.9,0.4-1.3C96.7-5.2,96.9-5.4,97.2-5.4z M100-6.3c0.4-0.4,1-0.4,1.5-0.2
				c0.3,0.1,0.5,0.4,0.6,0.6c0.1,0.5,0.2,1.2-0.3,1.6C101.5-4,101-4,100.7-4.1c-0.4-0.1-0.8-0.4-0.9-0.8C99.6-5.4,99.7-6,100-6.3z
				 M73.9-17.7c3.4-0.7,7-1.1,10.7-0.6l0.3,0.1c0.4-0.1,0.9,0.2,1.3,0.1c6.4,1,12,4.3,16.9,9c-4.2,1.3-8.3,2.6-12.2,4.5
				C89.2-7,87-10,83.8-10.2c-4-0.8-8.2,0.7-11.8,2.4C72.5-11.1,73.8-14.2,73.9-17.7z M63.8-15.7c-0.7-1-0.9-2.1-0.5-3.3l0.3-0.4
				c2.3,2.5,4.8,4.4,7.8,5.2c-0.1,0.9-0.5,1.9-0.7,2.8l-0.4,1C67.5-11.1,65.6-13.5,63.8-15.7z M65.9,3.6C60.1,1.9,53.1-1.8,51.4-8.2
				C51.1-9,51-9.7,50.7-10.5c0.4,0.1,0.8,0.2,1.2,0.3c3.5,4.4,8.6,6.5,13.6,5.5c4.4-0.4,8.8-2,13-3.3c3.6-0.8,7.9-0.3,10.1,3.2
				c1.4,1.7,1.9,4.5,1,6.5c-0.7,1.5-2.1,2.8-3.8,2.7c-3.1,0.2-5.5-1.5-8.6-1C73.7,4.3,69.5,5,65.9,3.6z M66.5,32
				c-3,1.4-5.4,4.3-7.9,6.6c1-3.4,1.9-6.9,3.8-9.9c2.8-3.9,6-7.7,8.8-11.7c1.5-2,4-2.8,6-3.9c0.7-0.6,1.4-1.1,2.1-1.9
				c0.4,0.6,0.5,1.6,0.2,2.3c-0.8,1.2-2.6,1.8-2.8,3.4c-0.4,1.8,0.5,3.2,1.3,4.6c-0.6,2-1.5,3.9-2.2,5.8C74,30.8,69.6,30.5,66.5,32z
				 M78.5,29.5L76,28.9l3.1-5c0.2,0.9,0.6,2,1.5,2.5c0.4,0.2,1,0.2,1.4,0.3c-0.2,1.7,0.9,3.1,2.3,3.9C82.4,30.5,80.5,29.9,78.5,29.5
				z M84.9,29.9c-0.6-0.7-1.1-1.5-1.4-2.4h4.4c0.4,1.1,0.9,2.1,1.2,3.2C87.6,31.2,86,31,84.9,29.9z M88.1,33.6
				c0-0.2-0.2-0.4-0.1-0.6c0.9-0.9,2.6-0.5,3.6,0c0.7,0.3,1.4,0.7,1.8,1.4c0.2,0.7-0.4,0.8-0.9,1C90.7,35.7,89.1,35,88.1,33.6z
				 M92.5,37.2c0.9-0.8,2.6-0.7,3.6-0.3c0.3,0.2,0.7,0.3,0.7,0.7c0.4,0.6,0.1,1.3-0.2,1.8c-1,0.6-2.1-0.1-3-0.6
				C93.1,38.4,92.5,37.9,92.5,37.2z M96.2,42.8c-0.5-0.5-1-1.1-0.7-1.7c1.4-0.2,2.8,0.2,4.1,0.6c0.4,0.3,0.4,0.7,0.3,1.2
				c-0.1,0.4-0.3,0.8-0.7,1C98,44.2,97,43.5,96.2,42.8z M97.5,46.3c0-0.4,0-0.8,0.3-0.9c0.3-0.1,0.7-0.1,1,0
				c0.7,0.3,1.3,0.7,1.8,1.3c0.2,0.5,0.6,0.9,0.4,1.5c-0.3,0.4-1,0.4-1.5,0.3C98.5,48.1,97.8,47.2,97.5,46.3z M99.2,51.2
				c0-0.4-0.2-0.9,0.1-1.2c0.8,0,1.3,0.7,1.5,1.3c0.2,0.6,0.1,1.4-0.2,1.9C99.7,53.1,99.6,51.9,99.2,51.2z M101.6,58.2
				c-0.2,0.4-0.3,0.9-0.7,1.1c-0.4,0.1-0.6-0.2-0.7-0.5c-0.1-0.6-0.1-1,0.1-1.5c0.2-0.2,0.5-0.3,0.7-0.4c0.1,0.1,0.3,0,0.5,0.1
				C101.8,57.3,101.6,57.7,101.6,58.2z M100.9,56.4c-0.3,0.1-0.5-0.1-0.6-0.3c-0.3-0.9-0.1-2,0.5-2.7c0.2-0.2,0.5-0.6,0.9-0.5
				c0.4,0.2,0.2,0.6,0.4,0.9C102.1,54.9,101.6,55.7,100.9,56.4z M102.5,48.6c0.3,0.7,0.1,1.6-0.4,2.2c-0.2,0.2-0.5,0.4-0.8,0.4
				c-0.4-0.9-0.1-2,0.3-2.8C101.8,47.7,102.4,48.2,102.5,48.6z M101.1,43.1c0.7,0,0.6,0.8,0.7,1.2c0.1,0.6,0.1,1.2-0.3,1.6
				c-0.4,0-0.7-0.4-1-0.7c-0.1-0.4-0.4-0.8-0.2-1.3C100.6,43.7,100.8,43.3,101.1,43.1z M99.9,40.9c-0.7,0-1.4-0.5-2.1-0.7l-0.4-0.2
				c0.1-1.7,0.8-3.1,1.9-4.4C100.5,36.9,100.6,39.3,99.9,40.9z M99.3,30.5c-1-2.1-0.9-5.1-3.6-5.9l-0.3-5.5c0.7,1.8,1.8,3.7,3.9,4
				c1.1,0.1,2.2,0,3.5,0c0.2,1,0.6,2,0.6,3C102.2,27.6,100.6,29.2,99.3,30.5z M108.5,33c-2.1-3.3-2.9-7.2-4.2-10.9
				c-0.2-3,0.1-6.1,0.6-9c0.1-0.2,0.2-0.4,0.3-0.6c1.6-2.7,3.6-5.5,6.6-6.5c0.3-0.3,0.6,0.1,0.8,0.3c0.6,0.6,1.3,1.2,1.7,1.9
				c-2.7,2.8-5.1,5.7-5.2,9.6C109.2,22.9,109.1,28,108.5,33z M117.9,16.3c-1.3,1.3-3.2,1.4-4.6,2.8c-0.9,0.7-1.8,1.4-2.8,1.9
				c-0.2-0.9-0.1-2.1,0-3.1c0.5-2.1,1.7-4,2.9-5.8c0.4,0.9,1.2,2,2.2,2.1c0.9,0.2,2.1,0,2.7,0.7C118.5,15.5,118.1,15.9,117.9,16.3z"
				/>
			<path fill="#720018" d="M100.9,8.6c-0.6-1-1.2-2.1-1.9-2.8c-0.5,3,1.6,4.9,3,7.2c0.9-1.5,1.8-3,2.3-4.6
				C103.2,8.6,101.9,9.5,100.9,8.6z"/>
			<path fill="#720018" d="M73.6,11.1c0.4,0.3,0.9,0.4,1.4,0.3c0.5-0.1,0.9-0.7,1-1.2c0.1-0.4,0-0.9-0.3-1.2
				c-0.3-0.2-0.7-0.5-1.2-0.5c-0.6,0-1,0.4-1.3,0.9C73.1,10,73,10.7,73.6,11.1z M73.3,9.5c0.1-0.5,0.7-0.8,1.1-0.9
				c0.4,0,0.8,0.1,1,0.4c0.4,0.3,0.4,1,0.3,1.4c-0.2,0.3-0.4,0.6-0.7,0.7c-0.4,0.1-0.9,0-1.2-0.2C73.5,10.7,73,10.1,73.3,9.5z"/>
		</g>
	</g>
</g>
</svg>
