<?xml version="1.0" encoding="utf-8"?>
<!-- Generator: Adobe Illustrator 19.1.0, SVG Export Plug-In . SVG Version: 6.00 Build 0)  -->
<!DOCTYPE svg PUBLIC "-//W3C//DTD SVG 1.1//EN" "http://www.w3.org/Graphics/SVG/1.1/DTD/svg11.dtd">
<svg version="1.1" xmlns="http://www.w3.org/2000/svg" xmlns:xlink="http://www.w3.org/1999/xlink" x="0px" y="0px"
	 viewBox="33 -33 100 100" enable-background="new 33 -33 100 100" xml:space="preserve">

<g id="AREA_2">
	<g>
		<path fill="#FDBB2D" d="M61.2,1.5v0.2c2.4-0.7,4.7-1.9,7.2-2.2c4.5-0.8,9.2-1.7,13.9-1.6c6,0.5,12.1,0.6,16.8,4.3
			c-1-1.3-2.1-2.5-2.5-4c-0.8-2,0.2-4.2,1.5-5.8c-3.9-5.5-7.9-10.9-12.8-15.7c-1.2-1-2.3-2.2-3.6-3.1c-0.6-0.4-1.5-0.1-2.1,0.2
			c-2.3,2-4.9,4.5-7.1,6.8c-3.9,4-6.6,8.5-9.4,13v0.4C64.5-3.4,62.9-0.6,61.2,1.5z M73.4-18.2c2.2-2.2,4.7-4.3,6.7-6.6
			c-0.3,1.2-1,2.4-1.6,3.6c-2.5,4.5-6.6,8.2-8.3,13C69.1-6,68.9-3,66.3-1.8c-0.7,0.3-1.4,0.4-2.1,0.6c0.5-1.6,0.8-3.8,0-5.4
			C67.4-10.3,70-14.5,73.4-18.2z"/>
		<path fill="#FDBB2D" d="M62-5.8c-1-0.4-2.3-0.2-3.3-0.6c-2.3-0.8-3.2-3.3-3.8-5.5c-1.2-4.6,0.5-9.1,1.7-13.1
			c-6.2,3.4-8.1,10.3-7.4,16.8c0.4,4.3,2.4,8.7,6.6,10.5c0.7,0.4,1.4,0.9,2.2,1.2C61,1.1,62.4-2,62-5.8z"/>
		<path fill="#FDBB2D" d="M110.1-23.1c0.2,1.4,0.6,3,0.8,4.6c0.6,3.2,0,6.8-2.7,9.1c-2.5,2.2-6.2,2.4-9.1,2.6
			c-0.8,1.3-1.8,2.7-1.6,4.1c0.6,2.6,3.3,4.4,5.5,5.4c1.4-0.7,2.8-1.3,4.2-2.1c4.1-2.3,7.2-6.5,7.8-11
			C115.5-15.2,114.1-20,110.1-23.1z"/>
		<path fill="#FDBB2D" d="M102.8,4.4c-2.4-1.1-4.8-2.1-7.3-2.9c-8.5-3-18-2.2-26.8-0.4c-4,0.5-7.7,1.6-11,3.8l2.2,5.6
			c7.9-2.7,16.8-4.3,25.5-4.2c6.1,0,10.9,3.3,16.3,5c0.5-1,0.9-2.1,1.1-3.2c-0.2,0.4-0.3,0.8-0.6,1.1c-1.3-0.5-2.7-1-4-1.6
			c0.3-0.9,0.6-1.7,1-2.6c1.2,0.6,2.5,0.9,3.7,1.4L102.8,4.4z M61.1,7.8l-0.8-2.5c1.3-0.5,2.8-0.9,4.1-1.3l0.8,2.6
			C63.9,6.8,62.5,7.3,61.1,7.8z M68,5.9l-0.6-2.6c1.4-0.4,2.8-0.7,4.2-1l0.6,2.6C70.9,5.2,69.5,5.6,68,5.9z M75.2,4.8l-0.3-2.6
			c1.5-0.2,3-0.3,4.5-0.6L79.5,2l0.2,2.3C78.2,4.5,76.6,4.6,75.2,4.8z M81.9,4.6l-0.2-2.6c1.4-0.1,2.9-0.1,4.3-0.2l0.1,2.6
			C84.8,4.3,83.5,4.6,81.9,4.6z M92.1,5.5l-4.3-0.3l0.2-2.6l0.1,0l4.2,0.3L92.1,5.5z M97.7,7.2c-1.4-0.4-2.8-0.8-4.1-1.3l0.8-2.5
			c1.4,0.3,2.7,0.9,4.1,1.2L97.7,7.2z"/>
		<path fill="#FDBB2D" d="M75.4,2.5l0.2,2L79.3,4c0.1-0.7-0.2-1.3-0.2-2C77.9,2.2,76.6,2.2,75.4,2.5z"/>
		<path fill="#FDBB2D" d="M82.2,2.2v2c1.2,0,2.3-0.1,3.5-0.1c0.3-0.7,0-1.3,0-2C84.5,2.1,83.1,2.3,82.2,2.2z"/>
		<path fill="#FDBB2D" d="M67.9,3.6c0.2,0.6,0.3,1.2,0.5,1.9c1.1-0.3,2.3-0.6,3.4-0.8l-0.4-1.9C70.2,3.1,69,3.3,67.9,3.6z"/>
		<path fill="#FDBB2D" d="M91.7,5l0.1-1.9l-3.6-0.2l-0.1,1.9C89.4,4.9,90.4,5.1,91.7,5z"/>
		<path fill="#FDBB2D" d="M97.5,6.8c0.1-0.7,0.4-1.2,0.5-1.8c-1.1-0.3-2.2-0.7-3.3-1l-0.6,1.8C95.2,6.1,96.4,6.5,97.5,6.8z"/>
		<path fill="#FDBB2D" d="M60.9,5.5c0.2,0.6,0.3,1.3,0.6,1.8c1.1-0.4,2.3-0.7,3.3-1.1c-0.2-0.7-0.3-1.3-0.6-1.8
			C63,4.6,61.9,5.1,60.9,5.5z"/>
		<path fill="#FDBB2D" d="M102.1,8.5l0.7-1.8l-3.3-1.2c-0.2,0.6-0.7,1.2-0.6,1.8C99.9,7.7,101,8.2,102.1,8.5z"/>
		<path fill="#FDBB2D" d="M80.7,10.5c-0.7-0.4-1.3-0.9-1.9-1.2c-1.2-1.8-3.1-1-4.8-1.2c-0.4,0.1-0.2,0.4-0.2,0.7l2,0.7
			c1.1,0.2,0.7,1.6,1.6,2c1.4-0.3,1.2,1.4,2,2c0.5,0.1,1.1,0.2,1.3-0.3c0.1-0.3,0-0.8,0.3-1c0.3,0.6,0.9,1,1.6,1.2
			c0.3-0.7,0.9-1.4,1.1-2.2c0.2-1.7,2.1-0.9,3.1-1.7c0.2-0.5-0.1-0.9-0.2-1.3c-0.7-0.3-1.4-0.3-2.1-0.6C82.8,7.1,81.6,8,80,7.9
			c0.1,0.3,0,0.8,0.3,1c0.5,0.5,1.2,0.2,1.8,0.3C81.6,9.6,81.1,10,80.7,10.5z"/>
		<path fill="#FDBB2D" d="M95.9,15.6c0.6-0.5,1.2-1,1.1-1.8c-0.5-1.2-1.5-2-2.5-2.8c-1.3-0.8-3-0.4-4.2,0.2
			c-1.9,1.5-5.6,1.9-5.3,5.1c-0.1,1.6,1.7,1.1,2.5,1.7c-0.1,0.2-0.1,0.5-0.2,0.8c0.4,0.4,0.9,0.9,1.4,1.2c1.5,1,3.6,0.5,5-0.4
			c0.1,0.1,0.1,0.2,0.1,0.3c-0.5,0.5-1,0.8-1.5,1.1c-2,0.7-4.3,0.3-5.9-1.3c-0.5-0.2-1,0-1.3,0.3c-0.2,0.8-0.7,1.5-0.4,2.4
			c1,3.7,5.3,5.5,7.5,8.5c2.7-1.5,2.1-4.9,2.7-7.5c0.3,0.1,0.7,0.1,1.1,0.2c0.9-1.7,1.5-3.9,0.5-5.8c-0.4-1.6-2.1-0.4-3.1-0.8
			c-1.7-0.8-4,0-5.9-0.5c-0.2-0.3-0.2-0.7-0.2-1.1c-0.6-0.6,0.2-1.2,0.3-1.7l2.1-0.7c0.7,0,1.6,0,2.2-0.2c0.6,0.4,1.6,0.4,1.9,1.2
			c-0.6-0.1-1.1-0.5-1.7-0.7l-2.4,0.3c-0.6,0.5-1.6,0.5-1.9,1.3c0.2,0,0.3-0.2,0.5-0.1c0.9-0.8,2.2-1,3.3-1.1
			C93,14.4,94.4,15.1,95.9,15.6z M89.6,17.6l2.7-0.1l0.4-0.3l0.1,0.1l-0.6,0.4c-1.4-0.1-2.9,0.3-4-0.6
			C88.7,17.4,89.2,17.4,89.6,17.6z"/>
		<path fill="#FDBB2D" d="M67.3,11.7c-0.6,0.6-1.3,1.2-1.2,2.1c0.2,0.6,0.7,0.9,1.1,1.3c0.6,0,0.6-0.9,1.1-1.3l1.7-0.6
			c0.7,0,1.6,0.1,2.3,0.2c0.1,0.1,0.2,0.2,0.2,0.3c-0.6,0-1.4,0-2-0.2c-1.1,0.4-2.3,0.6-3,1.7c1.5-0.7,3-1.6,4.7-1.4
			c1.4,0,2.3,1.7,3.7,1.6c-0.2-0.7-0.4-1.3-0.7-1.9c-0.8-1.5-2.7-1-4.1-1.4C69.9,11.8,68.5,10.7,67.3,11.7z"/>
		<path fill="#FDBB2D" d="M58.6,20.9c0.7,0.2,1.3-0.1,1.8-0.2c0,1.6,0,3.3-0.6,4.7c-0.3,0.7-1.2,1-1.8,1c0.8,0,1.6-0.1,2.3-0.4
			c1.7-1.2,2.2-3.3,2.4-5.3c0.1-2-0.8-3.9-0.3-5.9c0-0.4,0-1-0.3-1.2c-0.3,2.1-1.2,4-2.6,5.7c-0.5,0.4-1,1.2-1.7,1
			C57.8,20.6,58.2,20.8,58.6,20.9z"/>
		<path fill="#FDBB2D" d="M89.8,16.3c0.5,0.1,1,0,1.3-0.3c0.3-0.3,0.3-0.8,0.3-1.2c0-0.5-0.6-0.3-0.8-0.4c-0.3,0-0.3,0.4-0.2,0.6
			c0.2,0.3,0.5,0,0.6,0.1v0.2c-0.1,0.2-0.3,0.4-0.5,0.5c-0.4,0.1-0.7,0-1-0.3c-0.2-0.2-0.1-0.6-0.1-0.8c0,0.1-0.1,0-0.2,0
			c-0.3,0.1-0.1,0.6-0.2,0.9C89.2,16,89.5,16.2,89.8,16.3z"/>
		<path fill="#FDBB2D" d="M69.8,16.2c0.1,0.3,0.4,0.6,0.7,0.6c0.4,0.2,0.9,0,1.2-0.3c0.2-0.3,0.2-0.7,0.2-1.1
			c0.1-0.5-0.5-0.4-0.9-0.4l0,0.6c0.1,0.2,0.4,0.2,0.6,0.2c0,0.2-0.1,0.3-0.2,0.5c-0.2,0.1-0.5,0.3-0.8,0.2
			c-0.3-0.2-0.6-0.5-0.4-0.9c0.1-0.2,0.3-0.4,0.6-0.5c-0.4-0.2-0.7,0.1-1,0.3C69.8,15.7,69.7,16,69.8,16.2z"/>
		<path fill="#FDBB2D" d="M64.4,20.1c-0.7,3.8,1.7,7.4,5,9.5c0.7,0.3,1.3-0.1,1.8-0.4c1.9-1.5,1.9-4.1,3.9-5.5
			c0.4,0,0.8-0.3,1.2-0.2c-0.6,0.9-1.5,1.9-1,3.1c0.3,0.3,0.9,0.2,1.3,0.1c1.6-1.2,2.8,0.8,4.3,0.7c1,0,2-0.1,2.5-1.1
			c1.6-3.9-1.7-6.7-1.6-10.4c-0.5-0.3-1.1-1.2-1.6-0.4c-0.7,1.4-0.8,3-1,4.5c-0.3-0.8-0.6-1.6-0.8-2.5c-0.4-0.1-1,0-1.5,0
			c-0.4-0.2-0.1-0.7-0.2-1.1c-1.1,0.4-2.3,0.1-3.3-0.4c-0.6,0.3-0.9,1-1.7,1.1c-1.1,0.4-2.3-0.4-3.3,0c-0.3,0.2-0.8,0.2-0.7,0.7
			c0.9,1,2.2,1.3,3.4,1.5c1,0.3,1.8-0.7,2.7-0.7c-0.2,0.4-0.5,0.8-0.8,1.1c-2.9,1.6-5.6-0.7-8.3-0.8C64.6,19.4,64.5,19.7,64.4,20.1z
			 M72.4,18.2c-1.2,0-2.4,0.2-3.3-0.4l0.1-0.1c1.3,0.6,3,0.4,4.1-0.3l0.1,0.1C73.2,17.8,72.7,18,72.4,18.2z"/>
		<path fill="#FDBB2D" d="M101.9,21c-0.2-1.8-2.2-3-1.6-5c-1.3,1.5-0.8,3.7-0.3,5.3c0.1,2.9,1.2,5.3,3,7.5c2,3.1,1.8,6.9,2.4,10.6
			c0.2,3.5-1.5,6.4-1.3,9.8c0.2-1.4,1.3-2.6,1.8-3.9c0.3-0.3,0.3-0.8,0.7-1c0.3,1.7-0.8,3.2-0.6,4.8l0.4-0.7l1.4-5
			c0.5-1.6,0.1-3.5,0.1-5c-0.5-1.8-0.4-3.9-1.4-5.6c-0.2-2.2-0.9-4.6-3.2-5.4c-1-0.8-1.1-2.4-1.3-3.6c0.6,0.6,0.9,1.5,1.7,1.9
			c0.6,0.3,1.1,0.3,1.7,0.1c0.3-0.2,0.6-0.3,0.7-0.6c-1.4-0.3-2.3-1.9-3.3-2.9C102.6,22,102.4,21.4,101.9,21z"/>
		<path fill="#FDBB2D" d="M58.4,31.7c1.9-1.1,4.4-1,6.3-2.1c0.1-0.3-0.1-0.3-0.2-0.5c-1-0.5-1.8-1.3-1.7-2.5c-3.6,0.7-8,2-9.1,6.1
			c0.1,2.2-1.3,3.9-0.8,6.2c1.1,2.6,0.7,5.8,2.7,7.9c0.2-0.3,0.3-0.7,0.4-1c0.9-2.2-0.3-4.4-1-6.4c-0.4-1.4,0.2-2.7,0.7-3.9
			C56.7,34.3,57,32.7,58.4,31.7z"/>
		<path fill="#FDBB2D" d="M93.8,35.1c-1.8-2.4-3.4-5.3-6.1-7.2c-2.9-1.9-5.7,0.7-8.8,0.2c-1.8-0.6-4.2-1.1-5.9,0.3
			c-3.8,2-7,5.6-8.8,9.4c-1.1,1.9-1,4.4-0.3,6.4c0-0.6,0.1-1.2,0.6-1.7c0.2-0.2,0.5-0.4,0.7-0.4c-0.5,3.9,1.3,6.8,3.9,9.4
			c0.3-2.2,0.2-4,0.3-6.3c-0.3-4.3,2-7.5,4.9-10.3c1.8-2.1,4.3-2.5,6.6-3.5c1.6,1.3,4,0.6,5.5,2.1c1.4,2.1,1.8,4.7,3.8,6.5
			c1.4,1.1,1.5,3,1.6,4.3c-0.2,2.4,0.9,4.6,1.7,6.8c0.8-1.3,1.5-2.6,2-4.1c1.6-4.5-0.5-8.9-3.3-12.2C92.6,34.7,93.1,35.1,93.8,35.1z
			 M69.5,37.5l-1.8,5.1c-0.1,1.6,0.2,3.4,0.2,4.8c0.3,0.7,0.4,1.5,0.7,2.2l0,0.4h0c-1.3-2.1-1-4.9-1.2-7.4c0.6-1.9,1.3-3.7,2-5.5
			c1.3-1.3,2.3-3,3.9-3.9L69.5,37.5z M74.1,29.7l-4.4,2.8C68,35,65.6,37.2,65,40.2c-0.3,0.5-0.3,1.2-0.8,1.4
			c0.4-1.6,1.2-3.2,1.8-4.9l3.3-4.5l4.9-3c0.5,0,1,0,1.4,0L74.1,29.7z M86.3,28.9l2.5,1.1c1.2,1.4,2.4,2.6,3.6,3.9l-0.5-0.2l-3-3.2
			c-1.6-0.5-3.1-2-5-1.3c-0.5,0.1-1.1,0.3-1.6,0C83.6,29.1,85.1,28.2,86.3,28.9z M93.6,38.2L95,42c0,1.4,0.2,3-0.4,4.2
			c0,0-0.3,0-0.3-0.1c-0.1-0.6,0.3-1.1,0.4-1.7l-0.3-2.6l-2-4.2l-3-3.6l-7.2-3.7c1.4,0,2.5,0.8,3.7,1.3c1.5,0.9,3.7,1,4.6,2.7
			L93.6,38.2z"/>
		<path fill="#FDBB2D" d="M103.2,34.9c0-1.3-1-2.1-0.9-3.5c-0.1-2-2.3-2.8-3.9-3.4l-0.3,1c-0.5,0.8-1.4,1.1-2.2,1.5v0.1
			c2,0.8,4.4,1.5,5.2,3.9c1,2.8,0.2,6.4,1.1,9.2c0.3-1.2,0.6-2.5,1.3-3.5C104.4,38.4,102.7,36.9,103.2,34.9z"/>
		<path fill="#FDBB2D" d="M63.6,51c-0.6-2.4-1.5-4.6-2.6-6.8c-0.8-2.1-0.5-4.6,0-6.7c0.2-1.6,1.9-2.5,3.1-3.1c0.9-0.7,1.2-1.9,1.3-3
			c-0.8,0.2-1.7,0.3-2.4,0.6c-2,1.2-3.9,3.2-4.7,5.4c0,2-1.4,4.4,0.2,6.1c0.5,1.5-0.6,3.1,0.1,4.6c1.2,2.5,3.6,4.8,6.6,4.6
			C64.8,52.1,64,51.6,63.6,51z"/>
		<path fill="#FDBB2D" d="M85.9,35.5l-0.4-1.3c-0.4-1.3-2-1-3-1.5c-0.7-0.2-1.4,0-1.8,0.6c-0.5-0.4-1-0.9-1.7-0.7
			c-0.9,0.5-2,0.7-2.7,1.5c-0.1,0.4-0.1,0.8,0,1.1C79.6,35.8,82.5,35.7,85.9,35.5z"/>
		<path fill="#FDBB2D" d="M88.3,40.9c0.2-1.2-0.2-2.4-1-3.3c-0.7-0.4-1.3-1-2-1.3c-1.2-0.6-1.5,1.3-2.6,1c-1.1-0.9-2.8-0.7-4.1-0.3
			c-1.3-0.2-2.7-0.4-3.9-0.7c-1.6,1-3,2.6-3.3,4.4c0.1,1-0.7,2.3,0.4,3.1c0.2,0.3,0.7,0.1,1,0.2c-0.9,1.7,1.2,3.2,0.7,5.1
			c0,1-1,1-1.4,1.9c0.9-0.6,1.5-1.4,2.5-1.9c1.4-0.7,2.2-2.1,2-3.7c0.4-1.6,2.1-2,3.3-2.3c0,0.3-0.3,0.3-0.4,0.5
			c-1.1,1.7-2.3,3.5-1.8,5.7c0-0.1,0.1-0.4,0.1-0.5c0.4-2.1,3.3-3.1,3.1-5.5c0.4,0.6,0.9,1.4,1.6,1.7c0.6,0.1,0.9-0.7,1.3-1.1
			c0.7-0.1,0.5,1.3,1.4,1c0.6-0.4,0.7-1.2,0.8-1.8c0.1,0.1,0.2,0.3,0.2,0.4c1.3,1.4,1,3.6,2.4,4.7l0-0.3c-0.3-1.7-0.5-3.3-1.1-4.9
			C87.2,42,88,41.5,88.3,40.9z M75.1,39.2l-1.6,1.6c0.1-0.9,0.4-2,1.3-2.6l0.8-0.4c0.4,0.2,1,0.4,1.1,0.9
			C76.1,39,75.5,38.7,75.1,39.2z M81.6,39.2c0.4-0.3,1,0,1.3,0.4c0.4,0.6,0.3,1.5,0.6,2.2C83,41,82.6,40,81.6,39.2z"/>
		<path fill="#FDBB2D" d="M101.4,46.1c-0.4-1.1-0.9-2.1-1-3.3C99.7,41.1,99,39,97,38.5l0,3c1.5,1.3,1.6,3.3,1.8,4.9
			c1,1.6,0.7,3.7,1.1,5.5l0.1,0.2c0.5-0.6,0.3-1.7,1.2-2C102.9,49.2,101.4,47.4,101.4,46.1z"/>
	</g>
</g>
<g id="AREA_1">
	<g>
		<path fill="#720018" d="M116.4-13.4c-0.3-5.4-4.1-11-9.2-13.3c0.8,1.6,1.6,3.1,2.1,4.7c1.3,3.5,1.3,8.4-1.4,11.2
			c-2,2.4-5.1,2.6-8.2,2.4c-3.9-5.9-8.5-11.4-13.7-16.6c-1.7-1.5-3.4-3-5.9-2.9c-2.8,1.1-4.9,3.9-7.2,6.1
			c-4.5,4.6-8.2,9.4-10.9,14.7c-0.9-0.1-1.7-0.4-2.6-0.6c-2-0.5-3.1-2.6-3.5-4.5c-1.3-5.2,0.3-10.9,2.9-15.3
			c-1.7,0.9-3.3,1.7-4.9,2.9c-5.1,4.4-6.8,10.9-5.9,17.7c0.7,4.6,3.8,9.5,8.6,10.7v2.6c0.1,1.3,0.5,2.4,1.2,3.5
			c0.5,1,1.9,1.6,1.6,2.9c0.6,2.2-0.8,4-2.2,5.5c-1.2,1.1-0.7,3.2-0.2,4.5c0,2.2-1,4-2.7,5.5c-0.7,2.3-1.9,4.4-2.5,6.8
			c-0.3,4.1,1,7.8,1.7,11.5c0.4,1,0.4,2.1,1.3,2.8c0.5,0,0.9-0.4,1.1-0.8c0.3-0.3,0.7-0.9,1.1-1c1,1,1,2.4,1.6,3.6
			c0.7,1.6,2.3,2.9,3.9,3.2c5,0.3,9.6,2.3,12.6,6.6c0.8-0.7,1.7-1.4,2.7-1.7c1.9-0.5,3,1.3,4.5,1.8c2,0.3,2.9-2.1,3.9-3.2
			c1.8-2,4.5-1.7,6.8-2.4c1.6-0.5,2.8-2,4.4-2.6c1.1-0.3,2,0.6,2.8,1.2c0.7-1,0.9-2.2,2-2.8c1.1-0.3,1.8,0.6,2.6,1.2
			c2.1-2,3.9-4.6,3.9-7.8c0-6.3,0.1-12.7-3.3-17.7c0.6-0.1,1.3-0.3,1.8-0.5c0.6-0.4,0.9-1,1-1.6c-1.3-0.2-2.6-0.8-3.5-1.8
			c-1.3-1.5-2.6-3-2.4-5c0.7-0.6,1.8-0.1,2.6,0.2c-0.8-1.1-1.5-2.3-1.5-3.7c0.1,0,0.1-0.2,0.3-0.2c1.2-0.4,1.9-1.8,2-3
			c-0.7,0.3-1.4,0.6-2.2,0.4c-0.2-0.2-0.3-0.3-0.4-0.6c-0.1-2.7,0.8-5.1,0.8-7.8l0.1-0.2c2-0.8,3.9-1.8,5.7-2.9
			C114.6-2.8,116.7-8.1,116.4-13.4z M63-6.6c2.8-4.6,5.5-9,9.4-13c2.2-2.3,4.8-4.8,7.1-6.8c0.6-0.3,1.5-0.6,2.1-0.2
			c1.3,0.8,2.5,2.1,3.6,3.1c4.9,4.7,8.9,10.2,12.8,15.7C96.8-6.2,95.8-4,96.6-2c0.4,1.5,1.5,2.7,2.5,4c-4.7-3.7-10.8-3.7-16.8-4.3
			c-4.7,0-9.4,0.8-13.9,1.6c-2.5,0.3-4.8,1.5-7.2,2.2V1.5c1.7-2.1,3.3-4.9,1.8-7.6V-6.6z M55.8,2.2C51.6,0.5,49.6-4,49.2-8.3
			c-0.7-6.5,1.2-13.4,7.4-16.8c-1.2,4-2.9,8.6-1.7,13.1c0.6,2.1,1.4,4.6,3.8,5.5C59.8-6,61-6.2,62-5.8c0.3,3.8-1,6.9-4,9.2
			C57.2,3.1,56.5,2.7,55.8,2.2z M59.3,19.3c1.3-1.7,2.3-3.6,2.6-5.7c0.3,0.2,0.4,0.8,0.3,1.2c-0.5,2,0.4,3.8,0.3,5.9
			c-0.2,2-0.7,4.2-2.4,5.3c-0.7,0.3-1.5,0.3-2.3,0.4c0.7,0,1.5-0.3,1.8-1c0.6-1.4,0.7-3.1,0.6-4.7c-0.5,0-1.1,0.3-1.8,0.2
			c-0.3-0.1-0.7-0.2-0.9-0.5C58.4,20.6,58.9,19.8,59.3,19.3z M55.9,35.7c-0.5,1.2-1.1,2.4-0.7,3.9c0.6,2,1.8,4.2,1,6.4
			c-0.1,0.3-0.3,0.7-0.4,1c-2.1-2.1-1.7-5.3-2.7-7.9c-0.5-2.2,0.9-4,0.8-6.2c1.1-4.1,5.5-5.5,9.1-6.1c-0.1,1.2,0.7,2,1.7,2.5
			c0.1,0.2,0.3,0.2,0.2,0.5c-1.9,1.1-4.4,1-6.3,2.1C57,32.7,56.7,34.3,55.9,35.7z M80.3,8.9C80,8.6,80,8.2,80,7.9
			c1.6,0.2,2.8-0.8,4.5-0.4c0.7,0.3,1.4,0.3,2.1,0.6c0.2,0.4,0.4,0.8,0.2,1.3c-0.9,0.8-2.9,0-3.1,1.7c-0.2,0.8-0.7,1.5-1.1,2.2
			c-0.6-0.1-1.3-0.6-1.6-1.2c-0.3,0.2-0.2,0.6-0.3,1c-0.3,0.5-0.9,0.4-1.3,0.3c-0.9-0.6-0.6-2.2-2-2c-0.9-0.4-0.5-1.8-1.6-2l-2-0.7
			c0-0.3-0.2-0.6,0.2-0.7c1.7,0.2,3.6-0.6,4.8,1.2c0.6,0.4,1.2,0.9,1.9,1.2c0.4-0.5,0.9-0.9,1.3-1.3C81.4,9.1,80.7,9.4,80.3,8.9z
			 M89.2,14.8c0.1,0,0.1,0,0.2,0c0,0.2-0.1,0.6,0.1,0.8c0.3,0.3,0.7,0.4,1,0.3c0.2-0.1,0.3-0.3,0.5-0.5v-0.2c-0.1,0-0.4,0.2-0.6-0.1
			c-0.1-0.1-0.1-0.5,0.2-0.6c0.3,0.1,0.8-0.1,0.8,0.4c0,0.4,0.1,0.9-0.3,1.2c-0.4,0.3-0.9,0.4-1.3,0.3c-0.3-0.2-0.6-0.3-0.7-0.7
			C89.1,15.4,88.9,14.9,89.2,14.8z M88.3,14.8c-0.2,0-0.3,0.1-0.5,0.1c0.3-0.9,1.3-0.8,1.9-1.3l2.4-0.3c0.6,0.3,1.1,0.7,1.7,0.7
			c-0.3-0.8-1.3-0.7-1.9-1.2c-0.6,0.1-1.5,0.2-2.2,0.2l-2.1,0.7c-0.1,0.6-1,1.1-0.3,1.7c0,0.4,0,0.8,0.2,1.1
			c1.9,0.5,4.1-0.3,5.9,0.5c1,0.4,2.7-0.8,3.1,0.8c1,1.9,0.4,4.1-0.5,5.8c-0.3-0.2-0.7-0.2-1.1-0.2c-0.7,2.6,0,5.9-2.7,7.5
			c-2.2-3.1-6.5-4.8-7.5-8.5c-0.3-0.9,0.3-1.6,0.4-2.4c0.4-0.3,0.9-0.4,1.3-0.3c1.5,1.6,3.9,2,5.9,1.3c0.5-0.3,1-0.6,1.5-1.1
			c0-0.1,0-0.2-0.1-0.3c-1.4,0.9-3.5,1.4-5,0.4c-0.5-0.3-1-0.7-1.4-1.2c0-0.3,0-0.6,0.2-0.8c-0.8-0.6-2.6-0.2-2.5-1.7
			c-0.3-3.2,3.3-3.6,5.3-5.1c1.2-0.7,2.9-1,4.2-0.2c1,0.8,2,1.6,2.5,2.8c0.1,0.9-0.5,1.3-1.1,1.8c-1.5-0.5-2.9-1.2-4.3-2
			C90.5,13.8,89.2,13.9,88.3,14.8z M75.2,13.5c0.3,0.6,0.5,1.2,0.7,1.9c-1.4,0.1-2.2-1.6-3.7-1.6c-1.7-0.1-3.2,0.7-4.7,1.4
			c0.7-1.1,1.9-1.3,3-1.7c0.6,0.1,1.4,0.2,2,0.2c0-0.1-0.1-0.2-0.2-0.3c-0.8-0.1-1.6-0.2-2.3-0.2l-1.7,0.6c-0.5,0.4-0.5,1.2-1.1,1.3
			c-0.4-0.4-0.9-0.7-1.1-1.3c-0.1-0.9,0.6-1.6,1.2-2.1c1.2-1,2.7,0.1,3.9,0.3C72.6,12.4,74.4,12,75.2,13.5z M69.8,15.4
			c0.2-0.2,0.6-0.6,1-0.3c-0.2,0.1-0.5,0.2-0.6,0.5c-0.1,0.4,0.1,0.7,0.4,0.9c0.3,0.2,0.5,0,0.8-0.2c0.1-0.2,0.2-0.3,0.2-0.5
			c-0.2,0-0.4,0-0.6-0.2l0-0.6c0.3,0,1-0.1,0.9,0.4c0,0.4,0,0.8-0.2,1.1c-0.3,0.3-0.8,0.4-1.2,0.3c-0.3,0-0.6-0.4-0.7-0.6
			C69.7,16,69.8,15.7,69.8,15.4z M73,19.9c0.3-0.3,0.6-0.7,0.8-1.1c-0.9,0.1-1.6,1-2.7,0.7c-1.3-0.3-2.5-0.5-3.4-1.5
			c-0.1-0.5,0.4-0.6,0.7-0.7c1.1-0.4,2.2,0.4,3.3,0c0.7-0.1,1.1-0.8,1.7-1.1c0.9,0.5,2.2,0.7,3.3,0.4c0.1,0.4-0.2,0.9,0.2,1.1
			c0.5,0,1.1-0.2,1.5,0c0.3,0.8,0.5,1.6,0.8,2.5c0.1-1.6,0.3-3.2,1-4.5c0.5-0.7,1.1,0.2,1.6,0.4c0,3.7,3.2,6.5,1.6,10.4
			c-0.4,1-1.5,1.1-2.5,1.1c-1.6,0.1-2.8-1.9-4.3-0.7c-0.4,0-1,0.2-1.3-0.1c-0.5-1.2,0.4-2.2,1-3.1c-0.3-0.2-0.8,0.1-1.2,0.2
			c-1.9,1.4-1.9,4-3.9,5.5c-0.5,0.3-1.2,0.8-1.8,0.4c-3.3-2.2-5.7-5.7-5-9.5c0.1-0.3,0.2-0.7,0.2-1C67.4,19.1,70.1,21.4,73,19.9z
			 M58.6,48.1c-0.7-1.5,0.4-3.2-0.1-4.6c-1.6-1.8-0.2-4.1-0.2-6.1c0.8-2.2,2.7-4.2,4.7-5.4c0.7-0.3,1.6-0.4,2.4-0.6
			c-0.1,1.1-0.4,2.3-1.3,3c-1.2,0.7-2.9,1.5-3.1,3.1c-0.5,2.2-0.8,4.6,0,6.7c1.1,2.2,2.1,4.4,2.6,6.8c0.4,0.6,1.1,1.2,1.6,1.7
			C62.3,52.8,59.8,50.5,58.6,48.1z M88.6,48.2c-1.4-1.2-1.1-3.4-2.4-4.7c0-0.2,0-0.3-0.2-0.4c-0.1,0.7-0.2,1.4-0.8,1.8
			c-0.9,0.3-0.7-1.1-1.4-1c-0.4,0.4-0.7,1.2-1.3,1.1c-0.7-0.3-1.1-1.1-1.6-1.7c0.2,2.4-2.7,3.4-3.1,5.5c0,0.1-0.1,0.4-0.1,0.5
			c-0.5-2.2,0.7-4,1.8-5.7c0.1-0.2,0.4-0.2,0.4-0.5c-1.2,0.3-3,0.7-3.3,2.3c0.1,1.6-0.7,3-2,3.7c-0.9,0.5-1.6,1.3-2.5,1.9
			c0.4-0.8,1.5-0.9,1.4-1.9c0.5-1.9-1.6-3.4-0.7-5.1c-0.3-0.2-0.8,0.1-1-0.2c-1.2-0.7-0.4-2-0.4-3.1c0.4-1.8,1.7-3.4,3.3-4.4
			c1.2,0.2,2.6,0.5,3.9,0.7c1.2-0.4,3-0.7,4.1,0.3c1.1,0.3,1.4-1.5,2.6-1c0.7,0.3,1.3,0.9,2,1.3c0.8,0.9,1.2,2.2,1,3.3
			c-0.4,0.6-1.2,1.2-0.8,2c0.7,1.6,0.8,3.2,1.1,4.9L88.6,48.2z M76.3,34c0.7-0.8,1.8-1,2.7-1.5c0.7-0.2,1.2,0.3,1.7,0.7
			c0.5-0.5,1.1-0.7,1.8-0.6c1,0.5,2.5,0.2,3,1.5l0.4,1.3c-3.4,0.2-6.3,0.3-9.5-0.3C76.2,34.8,76.2,34.4,76.3,34z M95.3,47
			c-0.5,1.4-1.2,2.8-2,4.1c-0.8-2.2-1.9-4.4-1.7-6.8c0-1.3-0.2-3.2-1.6-4.3c-2-1.7-2.4-4.4-3.8-6.5c-1.5-1.5-3.9-0.8-5.5-2.1
			c-2.3,1-4.8,1.4-6.6,3.5c-2.9,2.9-5.2,6.1-4.9,10.3c-0.1,2.3,0,4.1-0.3,6.3c-2.6-2.6-4.3-5.6-3.9-9.4c-0.2,0-0.5,0.2-0.7,0.4
			c-0.4,0.5-0.6,1-0.6,1.7c-0.7-2-0.8-4.6,0.3-6.4c1.8-3.8,5-7.3,8.8-9.4c1.7-1.4,4-0.9,5.9-0.3c3.1,0.5,5.9-2,8.8-0.2
			c2.6,1.9,4.3,4.8,6.1,7.2c-0.7,0-1.2-0.4-1.8-0.3C94.8,38.1,97,42.5,95.3,47z M101.2,50.1c-0.9,0.3-0.7,1.4-1.2,2l-0.1-0.2
			c-0.5-1.8-0.1-3.9-1.1-5.5c-0.2-1.6-0.3-3.6-1.8-4.9l0-3c2,0.5,2.7,2.6,3.5,4.2c0.1,1.2,0.6,2.3,1,3.3
			C101.4,47.4,102.9,49.2,101.2,50.1z M103.4,40.3c-0.8,1-1,2.3-1.3,3.5c-0.9-2.9-0.1-6.4-1.1-9.2c-0.7-2.3-3.2-3.1-5.2-3.9v-0.1
			c0.8-0.4,1.6-0.6,2.2-1.5l0.3-1c1.5,0.6,3.8,1.4,3.9,3.4c-0.1,1.3,0.9,2.2,0.9,3.5C102.7,36.9,104.4,38.4,103.4,40.3z M103,22.5
			c1,1,1.8,2.6,3.3,2.9c-0.1,0.3-0.5,0.4-0.7,0.6c-0.6,0.2-1.1,0.2-1.7-0.1c-0.8-0.4-1.1-1.3-1.7-1.9c0.2,1.3,0.3,2.8,1.3,3.6
			c2.3,0.8,3,3.2,3.2,5.4c1,1.7,0.9,3.8,1.4,5.6c0,1.5,0.3,3.4-0.1,5l-1.4,5l-0.4,0.7c-0.2-1.6,0.9-3.1,0.6-4.8
			c-0.4,0.2-0.4,0.7-0.7,1c-0.5,1.3-1.6,2.4-1.8,3.9c-0.3-3.4,1.5-6.3,1.3-9.8c-0.6-3.7-0.3-7.6-2.4-10.6c-1.7-2.2-2.8-4.6-3-7.5
			c-0.5-1.7-1.1-3.9,0.3-5.3c-0.6,2,1.4,3.2,1.6,5C102.4,21.4,102.6,22,103,22.5z M99.3,5c-0.4,0.8-0.7,1.7-1,2.6
			c1.3,0.6,2.7,1.1,4,1.6c0.3-0.3,0.4-0.7,0.6-1.1c-0.2,1.1-0.7,2.2-1.1,3.2c-5.4-1.7-10.2-5-16.3-5c-8.7-0.2-17.6,1.4-25.5,4.2
			l-2.2-5.6c3.3-2.2,7-3.3,11-3.8c8.9-1.8,18.4-2.6,26.8,0.4c2.5,0.8,4.9,1.8,7.3,2.9l0.2,2C101.8,5.9,100.5,5.5,99.3,5z M102.8,6.8
			l-0.7,1.8c-1.1-0.4-2.2-0.8-3.3-1.2c0-0.6,0.5-1.2,0.6-1.8L102.8,6.8z M115-10.4c-0.6,4.5-3.7,8.7-7.8,11
			c-1.3,0.8-2.8,1.5-4.2,2.1c-2.2-1-4.9-2.9-5.5-5.4c-0.2-1.4,0.7-2.9,1.6-4.1c2.9-0.2,6.6-0.4,9.1-2.6c2.7-2.3,3.3-5.9,2.7-9.1
			c-0.2-1.5-0.7-3.1-0.8-4.6C114.1-20,115.5-15.2,115-10.4z"/>
		<path fill="#720018" d="M64.2-1.2c0.7-0.2,1.4-0.3,2.1-0.6C68.9-3,69.1-6,70.2-8.1c1.7-4.8,5.8-8.5,8.3-13
			c0.6-1.2,1.3-2.5,1.6-3.6c-2,2.3-4.5,4.4-6.7,6.6c-3.4,3.6-6,7.9-9.2,11.5C65.1-5,64.7-2.8,64.2-1.2z"/>
		<path fill="#720018" d="M79.4,1.6c-1.5,0.3-3,0.4-4.5,0.6l0.3,2.6c1.4-0.2,3-0.3,4.6-0.5L79.5,2L79.4,1.6z M79.3,4l-3.7,0.4
			l-0.2-2c1.2-0.2,2.5-0.2,3.7-0.4C79.1,2.7,79.3,3.2,79.3,4z"/>
		<path fill="#720018" d="M81.8,1.9l0.2,2.6c1.6,0,2.8-0.2,4.3-0.2l-0.1-2.6C84.7,1.8,83.2,1.8,81.8,1.9z M85.7,4.1
			c-1.2,0-2.3,0.1-3.5,0.1v-2c0.9,0,2.3-0.1,3.5-0.2C85.7,2.7,85.9,3.4,85.7,4.1z"/>
		<path fill="#720018" d="M67.4,3.3L68,5.9c1.4-0.3,2.8-0.7,4.3-1l-0.6-2.6C70.3,2.6,68.8,2.9,67.4,3.3z M68.4,5.5
			c-0.2-0.6-0.3-1.2-0.5-1.9c1.1-0.3,2.3-0.6,3.5-0.8l0.4,1.9C70.6,4.9,69.5,5.2,68.4,5.5z"/>
		<path fill="#720018" d="M87.9,2.5l-0.2,2.6l4.3,0.3l0.2-2.7l-4.2-0.3L87.9,2.5z M88.3,2.9l3.6,0.2L91.7,5
			c-1.3,0.1-2.3-0.1-3.6-0.2L88.3,2.9z"/>
		<path fill="#720018" d="M93.6,6c1.3,0.5,2.7,0.8,4.1,1.3l0.8-2.6c-1.4-0.3-2.7-0.9-4.1-1.2L93.6,6z M98,4.9c0,0.7-0.4,1.2-0.5,1.8
			c-1.1-0.2-2.3-0.7-3.4-1.1l0.6-1.8C95.8,4.2,96.9,4.6,98,4.9z"/>
		<path fill="#720018" d="M60.3,5.2l0.8,2.5c1.4-0.4,2.7-1,4.2-1.3l-0.8-2.6C63.1,4.4,61.7,4.8,60.3,5.2z M61.4,7.3
			c-0.3-0.6-0.4-1.2-0.6-1.8c1.1-0.4,2.2-0.8,3.3-1.1c0.3,0.5,0.5,1.2,0.6,1.8C63.7,6.6,62.5,6.9,61.4,7.3z"/>
		<path fill="#720018" d="M92.2,17.8l0.6-0.4l-0.1-0.1l-0.4,0.3l-2.7,0.1c-0.4-0.2-0.9-0.3-1.4-0.4C89.3,18.1,90.8,17.7,92.2,17.8z"
			/>
		<path fill="#720018" d="M69.2,17.7L69.2,17.7c0.8,0.7,2.1,0.4,3.3,0.5c0.3-0.2,0.8-0.4,1-0.7l-0.1-0.1
			C72.2,18.2,70.4,18.3,69.2,17.7z"/>
		<path fill="#720018" d="M83.9,29.2c1.9-0.7,3.4,0.8,5,1.3l3,3.2l0.5,0.2c-1.2-1.3-2.3-2.5-3.6-3.9l-2.5-1.1
			c-1.3-0.7-2.7,0.2-4.1,0.2C82.7,29.5,83.4,29.2,83.9,29.2z"/>
		<path fill="#720018" d="M74.2,29.3l-4.9,3l-3.3,4.5c-0.6,1.6-1.3,3.3-1.8,4.9c0.5-0.3,0.6-1,0.8-1.4c0.6-3,3-5.3,4.7-7.7l4.4-2.8
			l1.4-0.4C75.2,29.3,74.7,29.3,74.2,29.3z"/>
		<path fill="#720018" d="M85.9,31.7c-1.2-0.5-2.3-1.3-3.7-1.3l7.2,3.7l3,3.6l2,4.2l0.3,2.6c-0.1,0.6-0.5,1.1-0.4,1.7
			c0.1,0.1,0.3,0,0.3,0.1c0.6-1.2,0.3-2.8,0.4-4.2l-1.4-3.8l-3-3.7C89.6,32.7,87.5,32.6,85.9,31.7z"/>
		<path fill="#720018" d="M69.3,37c-0.7,1.8-1.4,3.6-2,5.5c0.2,2.6-0.1,5.3,1.2,7.4h0l0-0.4c-0.3-0.7-0.5-1.5-0.7-2.2
			c0-1.4-0.3-3.1-0.2-4.8l1.8-5.1l3.6-4.4C71.6,34,70.5,35.7,69.3,37z"/>
		<path fill="#720018" d="M75.6,37.8l-0.8,0.4c-0.9,0.5-1.3,1.7-1.3,2.6l1.6-1.6c0.5-0.5,1.1-0.2,1.6-0.5C76.6,38.2,76,38,75.6,37.8
			z"/>
		<path fill="#720018" d="M81.6,39.2c0.9,0.7,1.3,1.7,1.8,2.6c-0.3-0.7-0.1-1.5-0.6-2.2C82.7,39.2,82.1,38.9,81.6,39.2z"/>
	</g>
</g>
</svg>
