<?xml version="1.0" encoding="utf-8"?>
<!-- Generator: Adobe Illustrator 19.1.0, SVG Export Plug-In . SVG Version: 6.00 Build 0)  -->
<!DOCTYPE svg PUBLIC "-//W3C//DTD SVG 1.1//EN" "http://www.w3.org/Graphics/SVG/1.1/DTD/svg11.dtd">
<svg version="1.1" xmlns="http://www.w3.org/2000/svg" xmlns:xlink="http://www.w3.org/1999/xlink" x="0px" y="0px"
	 viewBox="33 -33 100 100" enable-background="new 33 -33 100 100" xml:space="preserve">

<g id="AREA_2">
	<g>
		<g>
			<path fill="none" stroke="#FDBB2D" stroke-width="3.1056" d="M80-19.7c1.8,4.4,1.3,9.4,2.2,14.1c0.3,1.7,0.5,3.5,0.5,5.4
				c-0.1,2.4-0.8,5.3-3,7.1c-2.4,2.1-5.8,2.8-8.7,1.8C65.2,6.3,62.2-0.1,62-6c-0.3-7.1,3-13.4,8.2-18.4c1.3-1,3-2.2,4.9-1.4
				C77.6-24.6,79-22,80-19.7L80-19.7z"/>
			<path fill="none" stroke="#FDBB2D" stroke-width="3.1056" d="M104.4-23.1c2.6,3.5,3,8.1,3.3,12.4c0.1,6.3,0.1,13.2-5.1,17.4
				c-3.1,2.3-7.5,4.2-11.2,2.1c-3.5-2.7-4.5-6.8-6-10.5c-1-3.5-1.3-7.6,0.9-10.6c2.7-3.8,6.8-6.9,10.2-9.6
				C98.7-23.4,102-25.7,104.4-23.1L104.4-23.1z"/>
			<path fill="none" stroke="#FDBB2D" stroke-width="3.1056" d="M57.7-1.3c2.5,3.5,3.1,7.9,4.6,11.8c1.3,4,2.6,9.5-0.5,13.1
				c-3.3,4.2-8.4,6.1-13.6,5.3c-3.8-0.4-6.7-4.2-7.7-7.6c-0.7-2-1-4.7-0.8-7c0-0.2,0.2-0.5,0.1-0.8c1-6.6,6.1-12.5,12.1-15.7
				C53.6-3.2,56.5-3.3,57.7-1.3L57.7-1.3z"/>
			<path fill="none" stroke="#FDBB2D" stroke-width="3.1056" d="M123.6,0.2c1.6,4.1,1,8.9,0.5,13.3c-0.8,5.4-2.9,10.2-5.2,14.9
				c-1.5,2.4-3.3,5.9-6.5,6.1c-2.3-0.3-3.8-2-5.5-3.7c-2.9-3.4-7.5-6.3-7.7-11.1c-0.2-3.5,1.1-6.9,3.8-9.5c4-4.1,8.7-7.1,13.3-10.1
				c1.5-0.8,3-1.6,4.7-1.7C122.1-1.3,123.2-0.8,123.6,0.2L123.6,0.2z"/>
			<path fill="none" stroke="#FDBB2D" stroke-width="3.1056" d="M90.8,16.9c3.2,4.4,4.9,9.4,8,13.9c4.2,2.6,8.9,6.4,9,11.7
				c-0.1,6.2-5.3,11.4-10.6,14.2c-5.2,2.7-11.5,3.7-17.8,3.2c-7.3-0.8-14.4-2.3-20.2-6.7c-4.3-3.7-7.7-8.8-5.7-14.7
				c0.5-1.6,1.4-3.1,2.5-4.5c3.3-2.7,6.9-4.6,9.4-8.3c3.3-3.6,5.9-8.1,10-11c2.7-1.8,6.4-1.7,9.7-1.4C87.5,13.7,89.3,15.2,90.8,16.9
				L90.8,16.9z"/>
		</g>
	</g>
</g>
<g id="AREA_1">
	<g>
		<g>
			<path fill="#720018" d="M80-19.7c1.8,4.4,1.3,9.4,2.2,14.1c0.3,1.7,0.5,3.5,0.5,5.4c-0.1,2.4-0.8,5.3-3,7.1
				c-2.4,2.1-5.8,2.8-8.7,1.8C65.2,6.3,62.2-0.1,62-6c-0.3-7.1,3-13.4,8.2-18.4c1.3-1,3-2.2,4.9-1.4C77.6-24.6,79-22,80-19.7
				L80-19.7z"/>
			<path fill="#720018" d="M104.4-23.1c2.6,3.5,3,8.1,3.3,12.4c0.1,6.3,0.1,13.2-5.1,17.4c-3.1,2.3-7.5,4.2-11.2,2.1
				c-3.5-2.7-4.5-6.8-6-10.5c-1-3.5-1.3-7.6,0.9-10.6c2.7-3.8,6.8-6.9,10.2-9.6C98.7-23.4,102-25.7,104.4-23.1L104.4-23.1z"/>
			<path fill="#720018" d="M57.7-1.3c2.5,3.5,3.1,7.9,4.6,11.8c1.3,4,2.6,9.5-0.5,13.1c-3.3,4.2-8.4,6.1-13.6,5.3
				c-3.8-0.4-6.7-4.2-7.7-7.6c-0.7-2-1-4.7-0.8-7c0-0.2,0.2-0.5,0.1-0.8c1-6.6,6.1-12.5,12.1-15.7C53.6-3.2,56.5-3.3,57.7-1.3
				L57.7-1.3z"/>
			<path fill="#720018" d="M123.6,0.2c1.6,4.1,1,8.9,0.5,13.3c-0.8,5.4-2.9,10.2-5.2,14.9c-1.5,2.4-3.3,5.9-6.5,6.1
				c-2.3-0.3-3.8-2-5.5-3.7c-2.9-3.4-7.5-6.3-7.7-11.1c-0.2-3.5,1.1-6.9,3.8-9.5c4-4.1,8.7-7.1,13.3-10.1c1.5-0.8,3-1.6,4.7-1.7
				C122.1-1.3,123.2-0.8,123.6,0.2L123.6,0.2z"/>
			<path fill="#720018" d="M90.8,16.9c3.2,4.4,4.9,9.4,8,13.9c4.2,2.6,8.9,6.4,9,11.7c-0.1,6.2-5.3,11.4-10.6,14.2
				c-5.2,2.7-11.5,3.7-17.8,3.2c-7.3-0.8-14.4-2.3-20.2-6.7c-4.3-3.7-7.7-8.8-5.7-14.7c0.5-1.6,1.4-3.1,2.5-4.5
				c3.3-2.7,6.9-4.6,9.4-8.3c3.3-3.6,5.9-8.1,10-11c2.7-1.8,6.4-1.7,9.7-1.4C87.5,13.7,89.3,15.2,90.8,16.9L90.8,16.9z"/>
		</g>
	</g>
</g>
</svg>
