<?xml version="1.0" encoding="utf-8"?>
<!-- Generator: Adobe Illustrator 19.1.0, SVG Export Plug-In . SVG Version: 6.00 Build 0)  -->
<!DOCTYPE svg PUBLIC "-//W3C//DTD SVG 1.1//EN" "http://www.w3.org/Graphics/SVG/1.1/DTD/svg11.dtd">
<svg version="1.1" xmlns="http://www.w3.org/2000/svg" xmlns:xlink="http://www.w3.org/1999/xlink" x="0px" y="0px"
	 viewBox="33 -33 100 100" enable-background="new 33 -33 100 100" xml:space="preserve">

<g id="AREA_2">
	<g>
		<path fill="#FDBB2D" d="M83.4-20.2c0.8-0.6,1.5-1.2,2.3-1.7c0.6-0.4,1.2-0.2,1.9,0l-0.6,0.7c-1.7,1.1-3,2.8-2.6,4.9
			c0.2,0.5,0.4,1,0.9,1.2c0.7-0.1,1.3-0.2,2-0.5c1.5-0.6,1.1-2.5,1.1-3.8c0.4,0.2,0.7,0.4,1,0.7c0.4,0.4,0.7,1.1,0.4,1.7
			c-0.7,0.6-1.6,1.1-1.8,2.1c-0.3,0.7-1.1,0.7-1.5,1.2c-0.4,0.7,0.5,1,0.6,1.6c0.5,0.5,1.1,1,1.9,0.8c1.3-1.5,3.6,0,4.9-1.2
			c1.1-0.3,1.5,1.1,2.5,0.9c0.2-0.3,0.2-0.7,0.3-1c0.5-1,1.5,0.2,2.2-0.4c1-0.8,0.9-2.2,0.9-3.6c0.4-0.6,0.9-1,0.8-1.8
			c-0.6-1-1-2-1.1-3.2c0-1.6-1.7-2.7-2.9-3.5l-0.8-0.9c-0.8-0.1-1.6,0.4-2,1c-0.5,1.4,0.9,2,1.7,2.9c0.1,0.1,0.3,0.3,0.2,0.5
			c-0.4-0.3-0.9-0.5-1.4-0.7c-1.1-0.2-2.2,0.2-2.8,1.2c0.1-1,0.7-1.9,1.5-2.5c0.3-0.5,0.6-1.3,0.1-1.9c-0.6-0.3-1.6-0.4-2.3-0.3
			c-2,0.5-4.2,0.5-6.2,1.6C82.9-23.4,83.5-21.5,83.4-20.2z"/>
		<path fill="#FDBB2D" d="M101.7-18.6c1.4,1.2-1.2,2-0.5,3.4c0,0.9-1.4,1.3-1.3,2.2l1,0.6c0.9-1.3,2.2-2.5,3.9-2.4
			c1.8,0.5,3.6,1.2,5.5,1.4c0.5-1.7-1.5-2.7-1.8-4.2c-0.8,0.3-1.8,0.6-2.6,0.8c0-0.2,0.3-0.2,0.3-0.4c0.7-1.1,0.1-2.5-0.3-3.5
			c-0.4-1-1.6-1-2-1.9c-0.1,0.4,0.3,1.2-0.2,1.8c-0.4-0.9-0.8-1.7-1.6-2.4c-0.7-0.7-1.5-1.4-2.5-1c0,1.2,0.4,2.2,1,3.2
			C100.6-20.3,100.7-19.2,101.7-18.6z"/>
		<path fill="#FDBB2D" d="M79.3,38c0.5-1.4,0.8-2.9,1-4.4c-0.5-3.4-1.2-6.7-1.2-10.4c-0.1-2.8,0.7-5.3,2-7.5c0.2-0.9,0-1.8-0.7-2.4
			c-1.4-0.9-2.9,0.1-4.4,0.4c-0.5-0.1-1,0.3-1.3-0.3c-0.2-1,0.2-2,0-3.1c-0.5-1-1.7-0.5-2.7-0.8c-1-0.3-0.8-1.4-1.1-2.1
			C70.8,7.1,70.5,7,70.3,7c-1.7,0.5-3,2.3-4.9,2.2c2.7-1.5,5.3-3.2,8-4.7l4.7,0.1c0.8,0.7,1.4,1.5,2,2.1c1.9,1.1,4.4,1.2,6.2,2.5
			L86,9.7c-1.5,0.3-3-0.3-4.2-1.1c-1.1-1.1-2.9-0.7-3.7-2.1c-0.5-0.8-1.3-1.4-2.3-1.2c-0.3,0.3-0.6,0.7-0.7,1.1c0,1.2,1,2.3,2,2.8
			c2.8,0.8,5.5,2,8.6,2.3c1.3-0.1,0.7,1.5,1.4,2.1c1.4,0.5,2.6-0.4,3.8-0.6c1.2-0.2,2.4,0.7,3.3-0.1c0.7-0.2,1.3,0.2,1.9,0.5
			c0.3,0.1,0.5,0.1,0.6-0.3c0.3-1.2,1.1-2.1,1.5-3.3c0-0.5,0.9-1.2,0-1.6c-2.2-2.1-5.2-2.3-7.1-5.1c-0.3-0.4-0.5-1-1-1.3
			C89,1.2,87.8,1,86.7,0.3c0.1,0.4,0.6,0.7,0.7,1.2c0.1,0.4,0,0.8-0.1,1.1c-0.8-0.4-1.1-1.2-1.6-1.8c-0.9-1-2.3-0.9-3.4-1.5
			c-0.8,0.2-0.9-0.7-1.4-1.1c0.2-0.2,0.4,0.2,0.6,0c-0.8-1.4-1.6-2.5-2.5-3.8c0.1-0.3,0.5-0.5,0.4-0.8l-4.7-1.5l-3.4-2.3
			c0-0.8-0.3-1.4-0.3-2.2l1.8-0.1c1.2-0.2,2-1.6,3.3-1.7c2,0,4.7-0.3,6,1.8c-0.2,0.5-0.4,1.1-0.3,1.7c0.2,0.5,0.7,0.6,1.1,0.8
			c0.6,0.2,1.1-0.3,1.5-0.7c0.3-0.7,0.7-1.3,0.5-2.1c-0.3-1.2-1.3-2.2-2.5-2.5c-0.3-0.2,0.1-0.5,0.1-0.9c0.3-0.9-0.1-1.6-0.1-2.5
			c-0.1-1.1-1.2-1.9-1-3c-0.1-0.6-0.4-1.4-1.1-1.6c-0.8-0.3-1.2,0.9-2,0.9c-0.4-0.3-0.6-0.9-1-1.2c-1,0.1-2.1,0.2-3.1,0.1
			c-0.3,0.2-0.4,0.5-0.7,0.7c-0.1,2.4,2.7,1.8,3.8,3.2c1.2,1.2,2.7,2.3,3.6,3.8c-0.8-0.4-1.7-1.1-2.5-1.6c-1.4-1.4-3.2-1.7-4.6-3
			c-0.7-0.3-1.8-0.5-2.4,0.1c-0.7,0.5-0.7,1.3-0.9,2c-0.3,0.5-0.9,0.6-1.4,0.9c-0.6,0.4-0.8,1-1.1,1.5L68-16
			c-0.5-0.7-0.7-1.9-0.3-2.6c-0.4,0.8-1.3,1.2-2.1,1.3c-0.7,0.4-0.3,1.3-1,1.8c-0.4,0.3-1,0.4-1.5,0.3c-1.4-0.7-3.1-0.2-4.2,0.8
			l0.1,1.4c0.3,0.5,0.8,0.6,1.3,0.8c2,0.4,3.7,1.4,5.8,1.6c0.2-0.1,0.4-0.3,0.4-0.5V-13c-0.1-0.2-0.2-0.5-0.2-0.8
			c0.6,0.5,1.3,1,1.9,1.5l-0.1,0c-0.3-0.2-0.7-0.4-1-0.7c-0.1,0.1,0,0.3,0,0.5c1.7,1.3,3.5,2.5,5.2,3.8c-1.1-0.1-1.9-0.4-2.9-0.5
			c-0.7-0.8-1.5-1.7-2.3-2.5l0,1.7c-1.4-0.3-2.8-0.2-4.2-0.5c-1.9-0.7-3.8-1.3-5.6-2c-1-0.7-2,0.3-3,0.5v0.1c1.2,0.3,2.3,0.7,3.5,1
			l0.3,0.5c2.5,0.7,5.7-0.1,7.6,2c-1.3,0-2.4-0.5-3.7-0.6c-2.2-0.9-4.7-1.2-6.8-2.3c-0.5-0.1-1.1-0.1-1.4,0.4
			c-0.4,0.3-0.1,0.8-0.2,1.3c-0.3,0.5-0.8,0.6-1.2,0.8c0.2,0.3,0.9,0.3,0.9,0.7c-0.7,0.7-1.5,0.9-2.1,1.7c1,0.2,1.9-0.1,2.8-0.2
			c1.2-0.1,2.1,0.7,3.3,0.6c0.4-0.2,0.6-0.6,1-1c0.6-0.7,1.5-0.4,2.3-0.4c0.1-0.1,0.3-0.3,0.5-0.4c0.7-0.2,1.5,0.1,2.1-0.3
			c1,0.1,2.1,0.3,3.1,0.4c0.1,0.2,0.4,0,0.5,0.1c0.1,0,0.2,0,0.3,0c0.3,0.1,0.8,0,1.1,0.2c-1,0.1-2.1,0.4-3,0.4
			c-0.3,0.4-0.4,1-0.4,1.4c1.1,0.4,2.2,0.9,3.3,1.3c0.4,1,0.8,1.9,1.2,2.8c0.8,1.1,1.6,1.8,2.4,2.6c-0.5,0.1-1.1,0.3-1.6,0.3
			c0-0.1,0-0.3-0.1-0.4l-1.6-1.4c-0.7-0.5-0.3-1.5-0.7-2.1c-1.2-1.2-2.7-2-4.5-1.8c0.1-0.6,0.6-0.9,1-1.3c0.3-0.2,0.3-0.6,0.2-1
			C64.2-6.7,63.9-7,63.6-7C62-6.8,60.4-6,59.7-4.4c0,0.5-1,1-0.3,1.5c0.8,0.9,0.2,2.4,0,3.2c1.3-0.5,3.3,0,4-1.7
			c0.4-0.2,0.8-0.5,1.2-0.3c0.3,0.3,0.1,0.6,0,0.9c-1.4,1.4-1.3,4.7-4.1,4.3l-0.1,0.1c0,0.1,0,0.2,0,0.3c0.5,0,1.1-0.3,1.6-0.3
			c-0.5,0.8-1.4,1.4-1.7,2.2c-0.2,0.6,0.1,1.2,0.4,1.7c0.1,0,0.3,0,0.4-0.1c1.3-0.8,2.9-0.1,4.2-0.1c0.5-0.2,0.3-0.9,0.4-1.3
			c0.3-0.5,0.8-0.5,1.2-0.8c0.9-0.9,2.3-1.2,2.8-2.5c-0.2-1.4,1.4-0.7,2-1.2c1.1,0.2,2.1,1,3.1,1.4c-0.8,0.2-1.6,0.4-2.5,0.6
			c-3.6,2.4-7.1,4.8-10.7,7.1c-0.3-0.4-0.5-0.8-0.9-1c-1-0.2-1.5,0.9-2.3,1.3c-0.2,0-0.5,0.2-0.6-0.1c-0.2-1-0.6-2.3,0-3.3
			c0.9-1.1,0.3-2.6,0.3-3.9c-0.1-0.6-0.7-1.1-1.2-1.3c-0.3-0.1-0.6,0-0.8,0.1c-0.7,1-0.8,2.2-1.3,3.1l-0.1,2.9
			c-0.1,1.1-1.2,1.5-1.7,2.4c-0.1,0.5,0,1.1,0.3,1.5c0.6,0.7-0.1,1.5-0.4,2.1c-0.2,1.1,1.2,0.5,1.7,1.2c0.5,0.7,0.2,1.5,0,2.2
			c0.3,1,0.1,2.3,0.1,3.4c0.1,1,1.3,1.5,2,2.1l0.8,1.5c0.6,0.8,1.7,0.8,2.7,0.8c1-0.1,1.3,1,2,1.5c0.7,0.8,1.9,0.5,2.7,0.3
			c-0.1,0.5-0.3,1.3,0.1,1.7c1,0.3,1.7-0.4,2.6-0.3c0.6,0.5,0.6,1.4,1.1,1.9c0.3,0.4,0.9,0.3,1.4,0.3c0.6,0.1,0.8,0.7,1.1,1.2h0.1
			c0.2-0.5,0.7-0.9,1-1.3c0.4-0.6,0.4-1.5,0.4-2.3c0.2-1,1.2-1.5,1.8-2.1c0-0.2,0-0.4-0.1-0.5c-1.7-0.5-2.1-2.4-3.2-3.6
			c-0.6-0.5-0.1-2.1-1.4-1.8c-0.7-0.2-1.4,0.2-2.1-0.1c0-0.5,0.2-0.8,0.4-1.2c0.1-0.4,0-0.8-0.5-1c-0.9-0.4-1.2,0.8-2,1
			c-0.2,0.1-0.5,0-0.7-0.1c-0.1-0.3,0-0.7,0.1-1c-0.1-1.4,0.2-3.1-1.1-3.9c-0.3-0.1-0.7-0.3-1,0c-0.5,0.2-0.9,1.3-1.4,0.8
			c-0.4-1,0-2.2,0.8-2.9c0.2-0.4-0.1-0.7-0.4-1l1.6-1h0.1c0.1,1.1,0.7,2,1,3c0.8,1.5,2.4,0.1,3.7,0.4c0.4,0.3,0,0.7,0,1
			c-0.3,0.6-0.8,1.1-1,1.7h0c0,0,0,0,0,0c0,0,0,0.1,0,0.1c0,0,0,0,0,0.1c0,0.1,0,0.1,0,0.2c0.1,0,0.2,0,0.3-0.1c0,0,0.1,0,0.1,0
			c0.1,0,0.1,0,0.2-0.1c0,0,0.1,0,0.1,0c0.1,0,0.1-0.1,0.2-0.1c0,0,0,0,0,0c0.4-0.2,0.8-0.4,1.2-0.5c0.4-0.1,0.9-0.1,1.2,0.3
			c0.5,1.1,0.4,2.4,0.7,3.7c0.9,0,1.3-1.2,2-1.7l0.1,0.1c0,1.2-0.3,2.5,0,3.7c0.5,1.1,1.8,0.2,2.5,0.8c0.1,0.7-0.2,1.3-0.4,1.9
			c-0.7,1.5,0.8,2.4,1.4,3.4c0.4,3.5-0.4,6.9,1.7,9.8C79,38.1,79.2,38.1,79.3,38z M68.4-14.1c1.5-0.5,1.8-2.7,3.5-2.8
			c2-0.6,4.4-0.3,5.9,1c-1.3,0.1-2.9-0.7-4.2,0.2c-1.1,0.7-2.5,0.9-3.4,1.8C69.6-13.4,68.9-13.9,68.4-14.1z M76.2,2.7l-0.1-0.8
			l1.4,0.5L76.2,2.7z M79.6-0.3c0.4,1.2,1.7,1.4,2.6,2.2c1.8,1.2,3.2,2.8,5.2,3.5L88.2,6c-2.3-0.4-4.7-2-6.6-3.9
			c-1.2-0.9-2.9-1.3-3.6-2.9c-0.5-0.4-1-0.6-1.6-0.8l-0.1,0.1c0.7,1,0.3,2.5,1.3,3.4l-1.7-0.6c-0.2-1.5-0.3-3-0.4-4.6
			C76.7-2.1,78.2-1.3,79.6-0.3z"/>
		<path fill="#FDBB2D" d="M117-12.7c-1.5-0.5-3.2-1.1-4.7-1.8c0.9,1.1,1.8,2.3,1.9,3.7C115.2-11.3,116.1-12.1,117-12.7z"/>
		<path fill="#FDBB2D" d="M105.4-9.4l1,0.5c0.2-0.3,0.5-0.7,0.7-1c0.6-0.8,0.2-1.9-0.1-2.7c-0.7-1.3-2.4-1.6-3.6-1.1
			c-0.9,0.5-2.1,1.2-2.1,2.3c0.2,0.2,0.4,0.4,0.7,0.5c0.9,0.8,1.1-0.8,1.9-0.8c0.2,0.2,0.2,0.5,0.4,0.7c0.2,0.3,0.7,0.3,1,0.2
			c0.2-0.1,0.4-0.3,0.6-0.4c0.1,0.1,0.2,0.2,0.2,0.3c-0.1,0-0.2,0.1-0.3,0.1c-0.2,0,0,0.3-0.1,0.3C106-10,105.3-9.7,105.4-9.4z"/>
		<path fill="#FDBB2D" d="M80.6-7.7c0.3-1.1,0.6-2.6,0-3.7c-0.3-0.6-0.7-1-1.2-1.5c-0.9-0.6-2.2-0.9-3.2-0.5
			c-1.7,0.7-2.4,2.5-2.3,4.1C74.3-9.1,74.7-9,75-8.8c0.4,0.1,0.4-0.5,0.5-0.8c0.4-0.5,1-1.1,1.6-1.2l0.2,0.6
			c0.2,0.4,0.7,0.5,1.1,0.4c0.2,0,0.3-0.3,0.5,0c-0.1,0.7,0.3,1.2,0.1,2C79.6-7.8,80.1-7.7,80.6-7.7z"/>
		<path fill="#FDBB2D" d="M107.2-8.5c-0.4,0.4,0.2,0.7,0.4,1c0.6,0.2,1.3,0,1.8-0.5c1.3-1,1.4-2.6,1.3-4.2c-0.8,0-1.6,0.1-2.4,0.1
			C108.7-10.9,108.3-9.5,107.2-8.5z"/>
		<path fill="#FDBB2D" d="M110.1-6.8c0.3,0.1,0.5,0.2,0.8,0.3c1,0.1,2,0,2.6-0.7c0.8-1.4-0.3-2.7-0.9-3.8l-0.1,0.1
			C112.2-9.4,111.3-8,110.1-6.8z"/>
		<path fill="#FDBB2D" d="M107.1-4.3c0-0.5,0.2-1.1-0.3-1.4C106.4-6,106-6,105.6-6c0.4-0.2,0.8-0.5,1.2-0.7c-0.1-0.4-0.6-0.6-1-0.7
			c-1.6,0.8-3,0.5-4.8,0.1c1.1-0.5,2.8,0.3,3.7-0.7c-2-1.4-3.9,0.4-5.9,0.2c0.9-1,2.2-1.5,3.7-1.4v-0.1c-0.6-0.5-1.5-0.8-2.3-0.5
			l-3,1.8H97c0.2-0.5,0.5-1,1-1.3c0.4-0.3,1-0.5,1.4-0.9l-1.1,0.1c-0.9,0.1-1.5,0.9-1.7,1.7c-0.3-0.7,0-1.4,0.1-2.1
			c-1,0-1.9,0.2-2.9,0.4c-1.8-0.4-3.8-0.4-5.7-0.4c-0.3,0.1-0.5,0.3-0.8,0.4c-0.3,0.4-0.8,0.8-0.9,1.3c1.4,0.2,2.6,1.1,4,1.6
			c-0.2,0.2-0.4,0-0.5-0.1c-1.9-0.2-3.7-1.3-5.7-0.8c-0.3,0.2-0.7,0.2-0.9,0.5L85-7.1c1.6,0.1,3,0.7,4.4,1.1l0,0
			c-1.7-0.3-3.4-0.6-5.2-0.8c-1.6-0.3-3,0.5-4.3,1.1c0.4,0.5,1,0.8,1.6,1c1.6-0.9,3.9-0.5,5.5,0c-1.2,0-2.6,0-3.9,0l-0.5,0.3
			c-0.2,2.5,2.8,1.4,4.3,2.1c-0.3,0.4-1.1,0.2-1.1,0.9c1.1,0.7,2.6,0.3,3.8,0.9c0.5,0.2,0.8,1.1,1.3,0.7c0.8-0.9,1.5-2.1,2.7-2.3
			c1.4-0.2,3,0.2,4.2-0.5c1.2-0.2,2.5-0.1,3.7-0.3c1.3-0.4,2.2,0.7,3.4,0.2C105.7-3.5,106.8-3.3,107.1-4.3z"/>
		<path fill="#FDBB2D" d="M118.9,6.1c0.1-0.5,0.7-0.5,1-0.9c0.3-0.3,0.1-0.7-0.1-1l0.3-0.1c1.5,0.2,2.9,0.5,4.5,0.6
			c0-0.2-0.2-0.3-0.4-0.5l-2.9-0.6c-1.1-0.3-2.6,0.3-3.3-1.1l0.1-0.1c1-0.1,2-0.2,3-0.4V2l-3.2,0c0-0.3,0.2-0.4,0.3-0.6
			c0.2,0,0.4,0,0.6,0c1.6,0.2,3.7,0.1,5.6,0.2c0.1-0.1,0.2-0.2,0.1-0.3c-1.9-0.2-3.9-0.4-5.8-0.6c0.1-0.7-0.1-1.3-0.6-1.8
			c-0.2-0.3-0.6-0.5-0.7-0.8c-0.1-0.2-0.2-0.6-0.6-0.5c0.1,0.3,0.4,0.4,0.6,0.7c0,0.8,0.1,1.6,0.1,2.4l-1.2-0.1
			c-1.4,0.3-2.9,0.7-4.3,0.9c0.4-0.4,0.7-0.9,1.1-1.2c0.6-1,0.8-2.1,1.1-3.1c-1.2,0.4-2.5,0.9-3.7,1c0.5-0.5,1-0.9,1.5-1.5
			c3-1.1,5.9-2.3,9.1-2.8c0.4,0,0.8-0.1,1-0.4c-1.8,0.2-3.6,0.4-5.5,0.6c-2.2,0.9-4.6,1.4-6.5,3h-0.2c1.7-1.8,3.9-2.5,5.9-3.7
			l3.3-2.7v-0.1c-0.1,0-0.1-0.1-0.3-0.1c-3.2,2.6-7.1,3.5-10.1,6.4c-0.1-0.1-0.2-0.1-0.3-0.2c-0.3-0.1-0.7-0.1-1,0.1
			C107.2-3,107-2.7,107-2.3c0.1,0.6,0.4,1.4,1.1,1.6c-0.5,1-1.3,1.9-2,2.9c-0.9,1.8-2.2,3.4-3,5.3c-0.7,1.2-2.4,0.7-2.6,2.2l0.9,0.4
			c0.7,0.2,1.2-0.4,1.8-0.4c0.5,0.3,0.5,0.8,0.8,1.2c0.8,1,2.1,1.2,3.4,1.3c0.6,0.2,1.1,0.7,1.8,0.7c0.3-0.1,0.4-0.3,0.5-0.5
			c0.4-0.7,1.2-0.8,1.9-1c0.2-0.4,0.2-1,0.2-1.5c0.5-1.1,0.8-1.9,0.5-3c0.2-0.2,0.5-0.4,0.7-0.6l3.4,0.5c-0.5,0.4-1.2,0.5-1.7,0.9
			l0.2,0.1c1.7-0.1,3,0.8,4.3,1.6c0.2,0.7,0.9,1.4,1.6,1.5c-0.4-1.3-1.1-2.6-1.9-3.7c3.3,0.3,6.5,1,9.7,1.7V8.6
			c-0.6-0.4-1.3-0.5-2-0.9C124.3,6.7,121.5,6.5,118.9,6.1z M116.9,5.9l-2.2-0.3c0.3-0.1,0.4-0.5,0.5-0.8l0.1-0.5
			c0.5,0,0.8-0.1,1.3-0.1C116.7,4.8,117,5.3,116.9,5.9z M114.7,2.9l2-0.3c0,0.2-0.1,0.5-0.2,0.8C115.9,3.1,114.9,3.7,114.7,2.9z
			 M115.1,2l-1.5,0.2C113.3,2.1,113,2,112.7,2c1.1-0.3,2.2-0.6,3.4-0.9l1.1,0.1C117.4,2.6,115.7,1.7,115.1,2z"/>
		<path fill="#FDBB2D" d="M49.5-2.7c0.5,0.1,1.1,0.4,1.7,0.3c0.3-0.3,1.1-0.4,1-1.1c-1.4-1.1-3.4-0.5-4.9-1.4l0.1-0.5
			c0-1.2,1.3-1,2-1.6c0.2-0.4,0.4-0.8,0.3-1.3c-1.1-0.1-1.9,0.5-2.7,1.1c-1.8-0.1-3.4,0.7-5.1,0.9c-1.2,1.1-3.1,0.5-4.3,1.7v0.1
			c1.8,1,4.1,0.7,5.9,1.6C45.5-2.8,47.5-2.6,49.5-2.7z"/>
		<path fill="#FDBB2D" d="M53.7,1.4c1.2-0.6,2.5-0.7,3.6-1.5c0.2-0.4,0-0.7-0.2-1c-0.5-0.6,0.3-1.1,0.3-1.8c0-0.4-0.4-0.7-0.7-0.9
			c-1-0.7-2.1-0.2-3,0.3c-0.2,0.8,0.4,1.3,0.5,2C53.8-0.6,53.5,0.4,53.7,1.4z"/>
		<path fill="#FDBB2D" d="M101.2,6.9c0.8-0.4,1.7-0.6,2.3-1.5c0.8-1,0.4-2.3,0.7-3.4c0.4-0.8,1.2-1.3,2-1.5c0.2-0.5,0.3-1.1,0.1-1.7
			c-1.1-1.6-3-0.4-4.1,0.4c-1.5,1.1-3.2-0.2-4.7-0.5c-1.9-0.4-4.1-0.4-5.2,1.5c-0.3,0.9,0.5,1.5,1.1,2.1l1.3-0.5
			c0.9-0.2,1.8,0.2,2.4,0.8c0.8,0.7,0.4,1.9,0.1,2.7c-0.2,0.6,0.3,1.2,0.7,1.8c0.8,0.2,1.4,0.3,2-0.1c0.6-0.7,0.3-1.5,0.5-2.4
			c0.2,0.1,0.4,0.3,0.5,0.5C101.5,5.7,101.1,6.4,101.2,6.9z"/>
		<path fill="#FDBB2D" d="M95.6,3.2C95.4,3,95.1,3,94.8,2.9c-0.3,0.1-0.7,0.1-0.8,0.4c0.3,0.8,1,1.8,1.9,1.9V5
			C95.5,4.4,96,3.8,95.6,3.2z"/>
		<path fill="#FDBB2D" d="M105.1,33.2c0.5-0.6,0-1.4-0.2-2c0-2.2,1.4-3.8,2.1-5.7c0.9-1.5,2.5-2.1,4.4-1.8c0.5-0.2,0.3-1,0.4-1.5
			c0.3-0.8,0.8,0.5,1.4,0.4c1.6-1.4,0.9-3.8,1.2-5.7c1.6,0.5,2,2.2,2.5,3.5h0c-0.1-1.3-0.2-2.6-0.3-4c-0.2-0.6-0.4-1.2-0.5-1.8
			c0.8,0.5,1.8,1.3,2.1,2.2c0.3,0.6,0.3,1.5,0.8,2c0.7-2.2-0.8-3.8-1.4-5.6c-0.2-0.5-0.6-1-0.7-1.4c0.8,0.1,1,1.2,1.8,1.4
			c0.3,0.1,0.7,0,1-0.1c0.2-0.9-0.4-1.6-0.7-2.4c-0.1-0.9-1.1-0.8-1.7-1.1c-0.9-0.1-1.6-0.8-2.5-0.8c-0.5,0.2-1,0.6-1.2,1.1
			c0.4,0.9,0.8,1.9,1.1,2.9c0.1,0.2,0.1,0.6,0,0.8c-0.9-0.2-1.9-1-2.8-0.3c0.2,1,1.2,1.4,1.9,2.1c-0.7,1.2-1.9,2.2-3,3.1
			c-0.7,0.7-1.6,0.6-2.3,1c-0.8,1.1-1.8,1.8-2.8,2.7c-0.7,0.5-0.5,1.4-0.7,2c-0.3,1-0.4,2.5-0.3,3.5c-0.2,1.1,0.1,2.3-0.1,3.4
			c-1.3,1.7-2.2,4.2-1.1,6.3c0.6-1.1,0.8-2.4,0.7-3.8C104.1,32.9,104.7,33.3,105.1,33.2z"/>
		<path fill="#FDBB2D" d="M48.7,30c1.1-1.4,0.2-3.1,0.5-4.7c1-0.8,1.4-1.9,1.7-3c-0.5,0-1,0.4-1.6,0.3c-0.2-0.5,0.2-1,0.4-1.4
			c0.4-0.7,1-1,1.1-1.7c-0.6-0.5-1.5-0.1-2-0.7c-0.2-1.4,1.4-1.8,1.5-3.1l-1-0.5c-1-0.4-1.4,0.8-2,1.2c-0.3-0.2-0.5-0.5-0.5-0.9
			c0.5-1.5,2.4-2.1,2-3.8l-0.4,0.3c-0.7,1.1-2.4,0.6-2.7,2c-0.1,1.6-1.5,2.6-2,4c-0.1,0.7-0.3,1.4-0.4,2c0.5-0.1,0.9-0.4,1.4-0.4
			c0.6,0.7,0.1,1.8,0,2.5c-0.2,1.3-1.5,2.1-1.2,3.6c0.3-0.7,0.4-1.5,1.3-1.9c0.2,0,0.5-0.1,0.7,0.1c-0.1,1.1-0.5,2.1-0.7,3.3
			c-0.2,0.4-0.5,0.7-0.5,1.2c0.3-0.4,0.2-1,0.7-1.2c0.4-0.1,0.8,0,1.1,0.2c0.3,0.2,0.4,0.5,0.3,0.9c-0.5,1.7-1.3,3.3-1.3,5.2
			c0.2,0.7,1.2,1.1,1.2,1.7c0.4-0.2,0.7-0.7,1.2-0.7c0.7,0.6,0.5,1.6,1.3,2.1c0.4,0.2,0.9,0,1.1-0.4c0.1-0.3,0-0.7-0.1-0.9
			C48.3,34,48.5,31.8,48.7,30z"/>
		<path fill="#FDBB2D" d="M101.9,24.7c2.7,0.3,2.7-2.9,3.9-4.4c1.2-1.9,1.9-4,1.8-6.4l-1.3-0.1c-0.6-0.2-1-0.7-1.6-1
			c-0.6,1.2-1.4,2.3-2.1,3.4c0.3,2.7-0.3,4.9-0.9,7.2C101.9,23.8,101.4,24.4,101.9,24.7z"/>
		<path fill="#FDBB2D" d="M125.5,15.3c-0.5-0.8-0.7-1.6-1.4-2.3c-1.3-1-2.3,0.5-3.4,0.7v0.1c0.9,0.9,2.5,1.7,2,3.3
			c-0.4,0.3-0.9,0.3-1.2,0.8c-0.4,0.8,0.6,1.3,0.2,1.9c-0.4,0.3-0.9,0.1-1.3,0.3c0.4,0.6,0.5,1.2,0.8,1.9c0.8,0.8,1.5,1.8,2.2,2.6
			l0-1.2c-0.3-1-0.9-1.9-0.9-2.9c0.9,0.3,1.5,1.1,1.9,1.9c0.1-0.4,0.3-0.7,0.5-1c0.5-1.3-1.1-1.4-1.7-2c0-0.2,0.2-0.2,0.3-0.3
			c0.8-0.2,1.4,0.3,1.9,0.8c-0.4-0.9-1.2-1.8-1.9-2.5c0.5,0,0.9,0.4,1.4,0.6c0-1-1.3-1.6-1.8-2.4c0.3-0.3,0.6-0.3,1-0.4
			C124.5,15.4,125.2,15.5,125.5,15.3z"/>
		<path fill="#FDBB2D" d="M102.4,13.3c-1.6,1.7-4.2,0.8-6.1,1.6c-1.6,0.2-3.3,0-4.7-0.2c0,0.7,0.1,1.3,0.7,1.8
			c1.4,0.5,2.7-0.1,4.1-0.2c2.3-0.3,5.2,0.4,6.6-1.8c0.2-0.5,0.1-1.2-0.1-1.6L102.4,13.3z"/>
		<path fill="#FDBB2D" d="M89.3,23.5c0.8-2.9,1.8-5.7,1.4-9.1c-0.8,0-1.5,0.2-2.1,0.6c-0.6,0.2-1-0.3-1.5-0.6
			c-0.6-0.3-1.2,0.1-1.7,0.4c0.5,2.2,1,4.4,1.2,6.8c0.3,1.2-0.2,2.7,0.8,3.6C88.4,25.2,89.1,24.2,89.3,23.5z"/>
		<path fill="#FDBB2D" d="M100.1,33.1c0.9-2.2-0.8-3.9-1.9-5.4c-1.8-2.3-1-5.8-0.1-8.2c-2.4,3-4.1,6.2-5.2,9.7
			c-0.5-0.7-1.1-1.4-1.9-1.9c-2.6-0.6-5.1-2-7.4-3.1c0,2.3,0,4.3,0.2,6.4c0.4,1.9,1,6.1,1.2,5.7c0.2-0.4,0.5-0.9,0.9-1
			c0.7-0.2,1.2,0.5,1.6,1c0.2,0.1,0.4,0.3,0.5,0.2c0.5-0.6,0.7-1.3,1.4-1.8c2.9-1.4,6.4-1.8,9.2,0C99.3,34.4,99.8,33.8,100.1,33.1z
			 M89.8,33.1c0.3-0.7,1-1.5,1.9-1.6c1.5-0.3,3.1-0.4,4.4,0.5C93.8,31.5,91.6,32.2,89.8,33.1z"/>
		<path fill="#FDBB2D" d="M119,22.2c-0.5-0.1-1-0.6-1.6-0.5c-0.3,0.3-0.4,0.8-0.3,1.2c0.8,1.1,1.6,2.4,2,3.7c0.3,1,0.3,1.8,0.5,2.8
			c0,0.4,0.1,0.9,0.3,1.2c0.5-1.2-0.4-2.2-0.6-3.3c0.1-0.3,0.3-0.8,0.7-0.8c1,0.8,0.9,2.2,1.8,3.1c0.5-1.1-0.1-2.3-0.3-3.4
			c0.6,0,1,0.5,1.5,0.7c-0.4-1.5-1.7-2.5-2.3-3.9C120.5,22.1,119.7,22.2,119,22.2z"/>
		<path fill="#FDBB2D" d="M71.6,39.3c-1.1-0.9-1.7-2.2-1.4-3.7c-0.6-0.7-1.7-0.1-2.4-0.5c0-1.1,0.2-2.4-0.9-3
			c-0.5,0.2-0.9,0.7-1.5,0.8c-1,0.3-1.6,1.3-2.3,2.1L63,34.8c0.3-1-0.2-1.8-0.5-2.6c-0.1-0.4-0.1-0.8-0.4-1.1
			c-0.4,0.7-0.6,1.9-1.5,2.1c-0.3,0.1-0.7,0.1-1-0.1c0-0.8,0.7-1.3,0.8-2c0.2-1-0.3-1.8-0.9-2.5c-1.3,0.9-0.2,3.1-1.9,3.6
			c-1.7-1.1-0.3-3.1-0.7-4.7c-0.7-0.5-2.1-0.1-2.5-1.2c-0.6-1.3-1.4-2.5-2.7-3.1c-0.2-0.1-0.2,0.1-0.3,0.3c-0.8,1.5-1,3.4-1.5,5
			c-0.1,1.5,0.3,2.8,0.4,4.3c0.2,0.9,1.1,1.5,1.8,1.9c0.1,1.2,0.3,2.6,1.2,3.4c0.5-0.6,1-1.4,1.7-1.6c0.6,0.8,0.3,2,1.3,2.6
			c1.3,0.3,2-1.1,2.7-1.9c0.1,0,0.2,0.1,0.3,0.2c0.4,1.5,0.3,3.3,1.4,4.5c1-0.7,1.9-1.8,3.2-1.8c1.1,0.7,0.7,2.1,1.4,2.9
			c1.3-0.6,3-0.1,4.3-1c0.7-0.3,1,0.8,1.6,1c0.8-0.3,1.4-1.1,2.2-1.6c0.5-0.5,1.2-1,1.3-1.7C73.7,38.5,72.6,39.4,71.6,39.3z"/>
		<path fill="#FDBB2D" d="M116.7,26.8c-1.3-0.3-2.2-1.5-3.2-2.2h-0.1c0.4,0.6,0.9,1.2,1.1,1.8c0.2,0.6,0,1.4-0.2,1.9
			c-0.8-0.9-1.3-2-1.9-3c0-0.1-0.1-0.2-0.2-0.1c-0.1,1.5-0.4,3-1.7,4.1h-0.1c-0.1-0.2-0.1-0.5-0.2-0.8c-0.3-0.4-0.2-1.1-0.8-1.2
			c-0.3,0.2-0.6,0.4-0.5,0.8c0.4,1.1,1.4,2.5,0.4,3.6c-0.5,0.7-1.2,1.2-2.1,1.2c-1.8,0.2-1.8,2.2-2.3,3.4c0,0.3-0.2,0.8,0.2,1
			c1,0.3,2.1,0.5,3.1,0.9c1.2-1,0.7-2.6,1.1-3.9l0.2-0.2c0.7,1.4,0.8,3.2,1.5,4.7c0.3-0.8,0.7-1.7,0.8-2.6c0.6-1.9-0.7-3.7-0.5-5.6
			c0.1-0.1,0.3,0,0.4,0.1c1.1,1.4,2.2,2.8,2.3,4.6c1.4-1.5,0.1-3.6,0.5-5.3l0.1-0.1c1.3,0.9,2,2.4,2.2,3.7c0.4-0.8,0.3-2-0.2-2.7
			c-0.1-0.6-0.1-1.2,0.5-1.6c0.7-0.1,0.9,0.8,1.1,1C117.9,29.3,118.1,27.5,116.7,26.8z"/>
		<path fill="#FDBB2D" d="M74.7,32.4c0.1-0.5-0.2-1-0.5-1.5l-0.4,0.3c-0.7,1-1.8,1.9-1.8,3.1c0.3,1,0.6,2,1.1,3
			c0.6,0.4,1.4,0.1,2,0.1c0.2-1-0.4-1.7-1-2.3C73.7,34.1,74.3,33.3,74.7,32.4z"/>
		<path fill="#FDBB2D" d="M99.2,41.9c2.3-1.9,2.6-4.7,2.5-7.6c-0.2-0.3-0.5-0.4-0.8-0.5c-0.3,0.1-0.5,0.4-0.8,0.7
			c-0.8,1.4-1.7,2.9-3.2,3.8C96.7,38.5,97,38.7,97,39c0.1,0.5,0,1.1-0.1,1.7h0.9C98.5,40.6,98.8,41.4,99.2,41.9z"/>
		<path fill="#FDBB2D" d="M86.2,35.7c-1.1,0.7-1.2,2.1-1.6,3.3c-0.1,1-0.3,2.3,0.3,3.1c0.7,0.8,2,0.6,2.9,0.5c0.6-0.8,0.8-1.9,0.6-3
			C87.8,38.3,87.8,36.4,86.2,35.7z"/>
		<path fill="#FDBB2D" d="M104.3,39.9c-0.1-1-1.2-1.4-1.6-2.2c-0.2,0.6-0.1,1.1-0.3,1.7c-1.1,1.3-1.4,3-1.9,4.5
			c-0.6,1.1-1.9,1.5-3.1,1.6c-2.2-0.3-4.6-0.4-6.7,0.4c-4.1-0.1-9.2,1-11.3-3.2c-0.5,0.1-1,0.1-1.4,0.3c-0.8,0.5-0.8,1.3-0.9,2.1
			c0.8,0.3,1.8,0.2,2.6,0.1c0,0.2,0.1,0.5,0.1,0.7c0.3,0.9,1.3,0.7,2,1c0.8,0.4,1,1.4,1.6,2c0.5,0.5,1.1,0.6,1.8,0.3
			c0.4-0.2,0.5-0.7,0.7-1c0.1,0.1,0.3,0.3,0.5,0.5c1.1,1.6,1.8-1.2,3.2-0.1c-0.4,0.5-1,1-1.4,1.6v0.1c-1.1,1.1-2.2-1.1-3.3,0.1
			c-0.7,0.3-1.2-0.3-1.8-0.5c-0.6-0.2-0.9,0.2-1.3,0.5c0.4,0.6,0.8,1.2,1.2,1.8c0.6,0.8,1.6,0.7,2.4,1.1c0.5,0.4-0.1,1.4,0.7,1.7
			c1,0,1.9,0,2.4,0.9c0.5,0.7,0.5,1.7,0.4,2.4c0.2,0,0.3-0.2,0.5-0.2c1-0.5,0.9-1.5,1.5-2.2l0.1,0c0.3,0.5,0,1.5,0.8,1.5
			c1-0.5,0.9-1.6,1.3-2.4c0.4,0.9,0.3,2,0.8,2.9c0.9-0.2,1.3-1.2,1.7-1.8c0.4-1.4,1.6-0.4,2.4-0.7c0.3-0.9,0.3-1.7,0.3-2.6l0.1-0.1
			c0.1,0.1,0.2,0.3,0.2,0.4c0.3,0.7,1,1.3,1.8,1.3c0.3-0.5-0.1-1,0-1.6c0.6-0.6,1.7-0.1,2.3-0.6c0.2-0.5-0.2-0.9-0.1-1.5
			c0.3-0.4,0.8-0.4,1.2-0.5c0.4-0.1,0.5-0.4,0.4-0.8c-0.4-2.2-2.4-0.5-3.5-2c-0.1-0.3-0.5-0.6,0-0.8c1.2-1.5,1.8,1.3,3,0.4
			c0.1-0.5-0.5-0.8-0.8-1.2c-0.7-0.7-0.3-1.9-0.2-2.7c-0.1-0.6-0.2-1.2-0.2-1.8C102.9,40.5,103.7,40.3,104.3,39.9z M98.2,48.5
			c-0.1,0.4-0.2,0.8-0.5,1c-0.8,0-1.3-0.7-2-0.1c-0.4,0.3-0.6,0.9-1.2,0.9c-1.4-0.8-2.9-0.1-4.1,0.7c0-0.4,0.2-1,0.7-1.2
			c0.6-0.1,1.5,0.3,1.9-0.3c0.5-1.6,2.4-0.8,3.4-1.7c0.9-0.6,2.5-1.6,3.5-0.3c0.1,0.3,0.2,0.7,0.2,1C99.4,48.6,98.6,47.3,98.2,48.5z
			"/>
		<path fill="#FDBB2D" d="M96.8,42.9c0.3,0.1,0.5-0.1,0.8-0.3c0.2-0.3,0.3-0.7,0.1-1c-0.2-0.4-0.7-0.6-1.2-0.4
			c-0.4,0.1-0.4,0.5-0.4,0.9C96.3,42.4,96.5,42.8,96.8,42.9z"/>
		<path fill="#FDBB2D" d="M94.7,41.3c-0.1,0.1-0.4,0.2-0.4,0.4c-0.1,0.4,0.2,0.6,0.4,0.9c0.2,0.1,0.5,0.2,0.7,0c0.2-0.3,0.2-0.7,0-1
			C95.2,41.4,95,41.2,94.7,41.3z"/>
		<path fill="#FDBB2D" d="M91.9,41.6c-0.2,0.2-0.7,0.4-0.5,0.8c0.2,0.5,0.7,0.8,1.2,0.8c0.3-0.1,0.7-0.1,0.8-0.4
			c0.1-0.4,0-0.8-0.3-1.1C92.8,41.4,92.3,41.5,91.9,41.6z"/>
		<path fill="#FDBB2D" d="M88.7,43.4c0.6,0.3,1.2,0.4,1.7-0.1c0.1-0.3,0.1-0.7-0.1-0.9c-0.2-0.4-0.9-0.6-1.3-0.4
			c-0.2,0.3-0.7,0.5-0.5,1C88.4,43.2,88.6,43.3,88.7,43.4z"/>
	</g>
</g>
<g id="AREA_1">
	<g>
		<path fill="#720018" d="M129.5,8.7c-1.6-0.8-3.1-1.6-4.8-2c-0.1-0.4,0-1.1-0.5-1.4c0.5-0.4,1.2-0.4,1.7-0.2c-1-1-2.3-1.3-3.6-1.6
			c-0.1-0.1-0.3-0.2-0.2-0.4c1.4-1.3,3.8-1.6,5.4-0.9c-2-1.1-4.2-1.5-6.5-1.8c0,0,0-0.1,0.1-0.1c0.4-0.4,0.8-1.1,0.4-1.7
			c-0.4-0.6-1.2-0.4-1.8-0.5c-0.2-0.1-0.4-0.4-0.3-0.6c0.2-0.6-0.1-1.1-0.6-1.3c0.9-1.9,3.1-1.8,4.6-2.6c-0.4-0.3-0.9-0.2-1.4-0.4
			c-1.6-0.4-3.5,0.7-5.2,0.3c1.4-1.5,2.7-3.2,4.7-3.7v-0.1c-0.4-0.2-0.9-0.4-1.4-0.4c-1.1,0.4-2.1,1.1-3.2,1.5c-0.5,0.3-1,0.9-1.5,1
			c0.4-0.7,1-1.4,1.5-2c0.5-1.1,2.1-1.5,1.7-3l-1.6-0.2c-1.6-0.7-3.6-0.7-4.9-2c-0.4-0.5-0.9-0.9-1.5-1.1c-0.8-1.4-1.6-2.8-2.9-3.9
			c-2.3-1.6-4.2-3.7-6.9-4.3c-1.8-0.3-3.4-1-5.1-1.5c-3.7-1.2-7.4,0-10.9,1c-2,0.3-4.1,0.4-6,0.9c-4.4,0-8.2,1.4-12,2.6
			c-1.4,0.5-2.9,0.7-4.2,1.6c-1.7,1.6-3.5,3.2-5.4,4.7c-1.1,1-2.4-0.3-3.7,0c-0.3,0.2-0.5,0.6-0.4,1c0.2,0.7,0.9,1,1.5,1.3
			c-0.2,0.5-0.5,0.9-1,1.3c-1.5,0.6-2.8,1.5-4.1,2.5c-1.2,0.2-2.3,0.4-3.1,1.4C44.5-7.4,42.5-7,40.3-7c-1.1,0.3-2.1,0.7-3.3,0.8
			c-0.6,0.1-1.2,0.2-1.7,0.5l0.5,0.9c1.1,2,3.2,2,4.7,3.1c0.8,0.5,0.9,1.4,1.2,2.1l0.9,1.2c0.2,0.6-0.2,1.5,0.4,1.9
			c1.4,1.2,2.6,2.8,3.9,4.2l0.3,0.1c-1.6,1.1-2.2,2.9-2.8,4.5c-0.3,1.2-0.5,2.5-1,3.6c-1.1,2-2.5,4.3-1.6,6.6
			c0.5-0.3,1.1-0.8,1.7-0.7c-0.3,0.5-0.6,0.8-1,1.3c-1.6,2.3,0.7,4.5,0.7,6.9c0.7,1.2,0,3,0.6,4.3c0.9,1,1.6,2.1,2.6,3
			c1.1,0.9,2.4-0.1,3.4-0.5c1.6,0.5,1.4,2.4,2.3,3.5c0.7,0.2,1.5,0.1,2.2,0.5c0.8,0.3,1.2,1.2,1.6,1.8c0.5-0.3,0.9-0.7,1.4-0.8
			c0.9-0.1,1.8,0,2.4,0.6c0.4,0.4,0.2,1,0.1,1.5c0.3-0.1,0.7-0.1,1-0.3c0.7-0.3,1.1-1,1.9-1c0.7,0.7,0.8,1.7,1.1,2.6
			c0.6-0.4,1.2-0.9,2-0.7c1.7,0.7,3.7,0.5,5.3,1.4c1.3,0.4,1.7-1.1,2.9-0.9c0.6,0.1,1.2,0.2,1.8,0.5c0.3,1.1,0.5,2.2,1.1,3.3
			c0.1,0.5,0.1,1.1,0.4,1.6c0.9,0.2,1.8-0.7,2.5,0c0.2,1.2-0.4,2.5,0.1,3.6c0.8,1.5,1-0.6,1.7-0.5c0.7,0.9,0.4,2.3,0.7,3.3
			c0.1,0.2,0.3,0.4,0.5,0.4c2.1-1.3,2.2,1.7,3.4,2.5c1,0.3,1.9-0.3,2.7-0.7c0.6-0.2,1,0.6,1.4,0.9c0.7,0.3,1-0.6,1.6-0.8
			c1.2,0.1,2.4-0.2,3.3-1.1c0.6-0.1,1.4,0.1,2-0.2c1-1.1,2.4-0.1,3.7-0.4c1.4-0.1,1.8-1.7,2.4-2.7c0.4-0.7,1.3-0.3,1.8-0.9
			c0.9-1.5,0.2-3.5,0.4-5.2c0.4,0.1,0.9,0.2,1.3,0.3c0.4,0.1,0.4-0.4,0.3-0.7c-0.9-1.5-1.8-3.1-2.2-4.8c0.4-0.8,1-1.5,1.2-2.4
			c0.1-0.5-0.1-1.2-0.5-1.6l0.1-0.1c1.4,0.7,2.8,1.2,4.5,1c2.3-0.2,3.7-2.5,5.1-4.1c1.7-2.1,4.3-2.2,6.1-4.1c2.4-1.5,3.1-4,3.6-6.4
			c1.4-3.1,2-6.5,3-9.7v-1.7c-0.4-1.6-0.3-3.7-1.8-4.7C127.1,9.2,128.8,9.8,129.5,8.7z M117-12.7c-0.9,0.7-1.8,1.4-2.8,1.9
			c-0.1-1.4-1-2.6-1.9-3.7C113.8-13.8,115.5-13.3,117-12.7z M112.5-11l0.1-0.1c0.7,1.1,1.7,2.5,0.9,3.8c-0.7,0.7-1.7,0.8-2.6,0.7
			c-0.3,0-0.5-0.2-0.8-0.3C111.3-8,112.2-9.4,112.5-11z M110.8-12.2c0.1,1.6,0,3.2-1.3,4.2c-0.5,0.4-1.2,0.7-1.8,0.5
			c-0.2-0.3-0.8-0.7-0.4-1c1.1-0.9,1.5-2.3,1.2-3.6C109.2-12.1,110-12.2,110.8-12.2z M101.1,5c-0.1-0.2-0.3-0.4-0.5-0.5
			c-0.1,0.8,0.1,1.7-0.5,2.4c-0.6,0.4-1.3,0.4-2,0.1c-0.4-0.5-0.9-1.1-0.7-1.8c0.3-0.8,0.7-2-0.1-2.7c-0.7-0.6-1.5-1-2.4-0.8
			l-1.3,0.5c-0.6-0.6-1.4-1.2-1.1-2.1c1.2-1.9,3.3-1.9,5.2-1.5c1.5,0.3,3.2,1.6,4.7,0.5c1.1-0.8,3-2,4.1-0.4
			c0.1,0.5,0.1,1.2-0.1,1.7c-0.8,0.2-1.6,0.7-2,1.5c-0.3,1.1,0.1,2.5-0.7,3.4c-0.6,0.8-1.5,1.1-2.3,1.5C101.1,6.4,101.5,5.7,101.1,5
			z M89.5,34.8c-0.7,0.4-0.9,1.2-1.4,1.8c-0.2,0.2-0.3-0.1-0.5-0.2c-0.5-0.5-0.9-1.2-1.6-1c-0.4,0.1-0.7,0.6-0.9,1
			c-0.3,0.4-0.9-3.8-1.2-5.7c-0.1-2.1-0.2-4.2-0.2-6.4c2.3,1.1,4.7,2.5,7.4,3.1c0.8,0.5,1.3,1.2,1.9,1.9c1.1-3.6,2.8-6.8,5.2-9.7
			c-0.8,2.4-1.6,6,0.1,8.2c1.2,1.5,2.8,3.2,1.9,5.4c-0.3,0.7-0.8,1.3-1.4,1.7C95.9,33,92.5,33.4,89.5,34.8z M95.4,42.5
			c-0.2,0.2-0.4,0.2-0.7,0c-0.2-0.3-0.6-0.5-0.4-0.9c0.1-0.2,0.3-0.3,0.4-0.4c0.3-0.1,0.4,0.1,0.7,0.2
			C95.5,41.9,95.5,42.2,95.4,42.5z M93.3,42.8c-0.1,0.4-0.5,0.3-0.8,0.4c-0.5,0-1-0.3-1.2-0.8c-0.2-0.4,0.3-0.6,0.5-0.8
			c0.3-0.1,0.9-0.2,1.2,0.1C93.3,42,93.5,42.4,93.3,42.8z M89,42.1c0.4-0.2,1.1-0.1,1.3,0.4c0.2,0.2,0.2,0.6,0.1,0.9
			c-0.5,0.4-1.1,0.4-1.7,0.1c-0.1-0.1-0.3-0.2-0.3-0.4C88.3,42.6,88.8,42.3,89,42.1z M87.9,42.6c-1,0.1-2.2,0.3-2.9-0.5
			c-0.5-0.9-0.4-2.1-0.3-3.1c0.3-1.2,0.5-2.6,1.6-3.3c1.6,0.7,1.6,2.6,2.2,3.9C88.7,40.7,88.4,41.8,87.9,42.6z M85.5,14.8
			c0.4-0.3,1.1-0.7,1.7-0.4c0.5,0.3,0.9,0.8,1.5,0.6c0.6-0.3,1.3-0.6,2.1-0.6c0.4,3.3-0.6,6.2-1.4,9.1c-0.3,0.7-1,1.7-1.9,1.7
			c-0.9-0.9-0.5-2.4-0.8-3.6C86.5,19.2,86.1,17,85.5,14.8z M96.6,41.2c0.4-0.1,0.9,0,1.2,0.4c0.1,0.3,0.1,0.7-0.1,1
			c-0.2,0.2-0.5,0.4-0.8,0.3c-0.3-0.1-0.5-0.5-0.7-0.8C96.2,41.7,96.2,41.3,96.6,41.2z M97.8,40.6h-0.9c0.1-0.5,0.2-1.1,0.1-1.7
			c0-0.2-0.3-0.5-0.1-0.7c1.5-1,2.3-2.5,3.2-3.8c0.3-0.2,0.5-0.6,0.8-0.7c0.3,0.1,0.6,0.2,0.8,0.5c0.1,2.9-0.2,5.7-2.5,7.6
			C98.8,41.4,98.5,40.6,97.8,40.6z M101.7,23.4c0.5-2.3,1.1-4.5,0.9-7.2c0.8-1.1,1.5-2.3,2.1-3.4c0.5,0.3,1,0.8,1.6,1l1.3,0.1
			c0.2,2.4-0.5,4.6-1.8,6.4c-1.2,1.5-1.2,4.6-3.9,4.4C101.4,24.4,101.9,23.8,101.7,23.4z M102.9,14.5c-1.4,2.2-4.3,1.5-6.6,1.8
			c-1.4,0.1-2.7,0.7-4.1,0.2c-0.5-0.5-0.7-1.1-0.7-1.8c1.5,0.2,3.1,0.4,4.7,0.2c1.9-0.8,4.5,0,6.1-1.6l0.4-0.4
			C103,13.4,103.1,14,102.9,14.5z M96,5v0.2c-1-0.1-1.7-1.1-1.9-1.9c0-0.3,0.5-0.3,0.8-0.4C95.1,3,95.4,3,95.6,3.2
			C96,3.8,95.5,4.4,96,5z M105.1-2.8c-1.2,0.5-2.2-0.6-3.4-0.2c-1.2,0.2-2.5,0.1-3.7,0.3c-1.2,0.7-2.8,0.3-4.2,0.5
			C92.4-2,91.8-0.8,91,0.1c-0.5,0.4-0.9-0.5-1.3-0.7c-1.2-0.5-2.7-0.2-3.8-0.9c0-0.7,0.8-0.5,1.1-0.9c-1.4-0.7-4.4,0.4-4.3-2.1
			l0.5-0.3c1.3-0.1,2.7,0,3.9,0c-1.6-0.5-3.9-0.9-5.5,0c-0.6-0.2-1.3-0.4-1.6-1c1.4-0.6,2.7-1.4,4.3-1.1c1.8,0.2,3.4,0.5,5.2,0.8
			l0,0c-1.4-0.4-2.9-0.9-4.4-1.1l-1.7-0.6c0.1-0.3,0.6-0.3,0.9-0.5c2-0.5,3.8,0.6,5.7,0.8c0.2,0,0.4,0.3,0.5,0.1
			c-1.3-0.5-2.5-1.4-4-1.6c0.1-0.4,0.5-0.9,0.9-1.3c0.3-0.1,0.5-0.4,0.8-0.4c1.9,0.1,3.9,0,5.7,0.4c0.9-0.2,1.9-0.4,2.9-0.4
			c-0.1,0.7-0.4,1.4-0.1,2.1c0.2-0.8,0.9-1.6,1.7-1.7l1.1-0.1c-0.4,0.4-0.9,0.6-1.4,0.9C97.5-9,97.2-8.5,97-8h0.2l3-1.8
			c0.8-0.3,1.7,0,2.3,0.5v0.1c-1.5-0.1-2.8,0.4-3.7,1.4c2,0.3,3.9-1.6,5.9-0.2c-1,0.9-2.6,0.1-3.7,0.7c1.7,0.4,3.1,0.7,4.8-0.1
			c0.4,0.1,0.8,0.4,1,0.7c-0.4,0.2-0.8,0.5-1.2,0.7c0.4,0,0.9,0,1.2,0.2c0.5,0.3,0.4,1,0.3,1.4C106.8-3.3,105.7-3.5,105.1-2.8z
			 M78.9-9.8c-0.1-0.3-0.3,0.1-0.5,0c-0.4,0-0.9,0-1.1-0.4l-0.2-0.6c-0.7,0.1-1.2,0.6-1.6,1.2c-0.1,0.3-0.1,1-0.5,0.8
			c-0.3-0.2-0.7-0.3-1.1-0.4c0-1.6,0.7-3.4,2.3-4.1c1-0.4,2.3-0.1,3.2,0.5c0.5,0.4,0.8,0.9,1.2,1.5c0.5,1.1,0.3,2.6,0,3.7
			c-0.5,0-1-0.1-1.5-0.1C79.2-8.6,78.9-9.2,78.9-9.8z M105.5-10.3c0.1-0.1,0-0.3,0.1-0.3c0.1,0,0.2-0.1,0.3-0.1
			c0-0.1-0.1-0.2-0.2-0.3c-0.2,0.1-0.4,0.3-0.6,0.4c-0.4,0.1-0.8,0.1-1-0.2c-0.3-0.2-0.2-0.5-0.4-0.7c-0.8,0-1,1.5-1.9,0.8
			c-0.2-0.1-0.5-0.3-0.7-0.5c0.1-1.1,1.2-1.8,2.1-2.3c1.2-0.5,2.9-0.2,3.6,1.1c0.3,0.8,0.7,1.9,0.1,2.7c-0.2,0.4-0.4,0.7-0.7,1
			l-1-0.5C105.3-9.7,106-10,105.5-10.3z M101.9-23.4c0.7,0.7,1.2,1.6,1.6,2.4c0.4-0.5,0.1-1.4,0.2-1.8c0.5,0.9,1.7,0.9,2,1.9
			c0.4,1,1,2.4,0.3,3.5c0,0.2-0.2,0.3-0.3,0.4c0.8-0.2,1.8-0.4,2.6-0.8c0.3,1.5,2.3,2.5,1.8,4.2c-1.9-0.1-3.7-0.9-5.5-1.4
			c-1.7-0.1-3,1.1-3.9,2.4l-1-0.6c-0.1-0.9,1.4-1.3,1.3-2.2c-0.6-1.4,2-2.1,0.5-3.4c-1-0.6-1.1-1.6-1.3-2.6c-0.6-1-1.1-2-1-3.2
			C100.4-24.8,101.2-24.1,101.9-23.4z M84.3-24.3c2-1.1,4.2-1.1,6.2-1.6c0.7-0.1,1.6,0.1,2.3,0.3c0.5,0.5,0.2,1.4-0.1,1.9
			c-0.8,0.7-1.4,1.6-1.5,2.5c0.6-1,1.7-1.3,2.8-1.2c0.5,0.2,0.9,0.5,1.4,0.7c0.1-0.2-0.1-0.4-0.2-0.5c-0.8-0.9-2.1-1.5-1.7-2.9
			c0.5-0.6,1.2-1.2,2-1l0.8,0.9c1.2,0.8,2.9,1.8,2.9,3.5c0.1,1.2,0.5,2.2,1.1,3.2c0.1,0.8-0.4,1.2-0.8,1.8c0,1.3,0.1,2.7-0.9,3.6
			c-0.7,0.6-1.7-0.6-2.2,0.4c-0.1,0.3,0,0.7-0.3,1c-1,0.2-1.5-1.2-2.5-0.9c-1.3,1.2-3.7-0.3-4.9,1.2c-0.8,0.2-1.3-0.3-1.9-0.8
			c-0.1-0.6-1.1-0.9-0.6-1.6c0.4-0.6,1.2-0.5,1.5-1.2c0.2-0.9,1.1-1.5,1.8-2.1c0.3-0.6,0-1.3-0.4-1.7c-0.3-0.3-0.7-0.5-1-0.7
			c0,1.2,0.4,3.2-1.1,3.8c-0.7,0.3-1.3,0.4-2,0.5c-0.4-0.3-0.7-0.8-0.9-1.2c-0.3-2,0.9-3.8,2.6-4.9l0.6-0.7c-0.7-0.2-1.2-0.4-1.9,0
			c-0.8,0.5-1.5,1.1-2.3,1.7C83.5-21.5,82.9-23.4,84.3-24.3z M43.4-2.9c-1.8-0.9-4.1-0.6-5.9-1.6v-0.1c1.2-1.2,3.1-0.7,4.3-1.7
			c1.8-0.2,3.3-1,5.1-0.9c0.8-0.5,1.6-1.1,2.7-1.1c0.1,0.4-0.1,0.9-0.3,1.3c-0.7,0.6-1.9,0.4-2,1.6l-0.1,0.5
			c1.5,0.9,3.5,0.3,4.9,1.4c0.1,0.6-0.6,0.8-1,1.1c-0.6,0.1-1.1-0.2-1.7-0.3C47.5-2.6,45.5-2.8,43.4-2.9z M50,36.1
			c-0.2,0.4-0.7,0.6-1.1,0.4c-0.8-0.5-0.6-1.6-1.3-2.1c-0.5,0-0.8,0.5-1.2,0.7c0-0.7-1-1.1-1.2-1.7c0-1.9,0.8-3.5,1.3-5.2
			c0-0.4-0.1-0.7-0.3-0.9C46,27,45.6,26.9,45.2,27c-0.4,0.3-0.4,0.8-0.7,1.2c0-0.5,0.3-0.8,0.5-1.2c0.1-1.2,0.5-2.2,0.7-3.3
			c-0.1-0.2-0.5-0.1-0.7-0.1c-0.8,0.3-1,1.2-1.3,1.9c-0.3-1.5,1-2.3,1.2-3.6c0.1-0.7,0.6-1.8,0-2.5c-0.5,0-1,0.3-1.4,0.4
			c0.1-0.6,0.3-1.3,0.4-2c0.5-1.4,1.9-2.5,2-4c0.3-1.4,2-1,2.7-2l0.4-0.3c0.4,1.8-1.4,2.4-2,3.8c0,0.4,0.2,0.7,0.5,0.9
			c0.7-0.4,1.1-1.6,2-1.2l1,0.5c-0.1,1.3-1.8,1.7-1.5,3.1c0.5,0.6,1.4,0.3,2,0.7c-0.1,0.8-0.7,1.1-1.1,1.7c-0.2,0.4-0.6,0.9-0.4,1.4
			c0.6,0,1-0.3,1.6-0.3c-0.3,1.2-0.7,2.3-1.7,3c-0.3,1.6,0.5,3.3-0.5,4.7c-0.1,1.8-0.4,4,1.2,5.1C50.1,35.4,50.1,35.8,50,36.1z
			 M73.4,41c-0.8,0.5-1.4,1.3-2.2,1.6c-0.6-0.2-0.9-1.2-1.6-1c-1.3,0.9-3,0.4-4.3,1c-0.6-0.9-0.3-2.2-1.4-2.9
			c-1.3,0-2.2,1.1-3.2,1.8c-1.1-1.2-1-3-1.4-4.5c-0.1-0.1-0.1-0.2-0.3-0.2c-0.7,0.8-1.4,2.3-2.7,1.9c-1-0.6-0.7-1.8-1.3-2.6
			c-0.7,0.3-1.2,1.1-1.7,1.6c-1-0.8-1.1-2.2-1.2-3.4c-0.8-0.4-1.6-1-1.8-1.9c-0.1-1.5-0.5-2.8-0.4-4.3c0.5-1.6,0.7-3.4,1.5-5
			c0-0.1,0-0.3,0.3-0.3c1.3,0.7,2.1,1.9,2.7,3.1c0.4,1.1,1.8,0.7,2.5,1.2c0.4,1.6-1.1,3.6,0.7,4.7c1.7-0.5,0.6-2.7,1.9-3.6
			c0.6,0.7,1.1,1.5,0.9,2.5c-0.1,0.8-0.8,1.2-0.8,2c0.2,0.3,0.7,0.2,1,0.1c1-0.2,1.1-1.4,1.5-2.1c0.3,0.3,0.3,0.8,0.4,1.1
			c0.3,0.8,0.8,1.7,0.5,2.6l0.1,0.1c0.6-0.8,1.3-1.8,2.3-2.1c0.6-0.1,1-0.6,1.5-0.8c1.1,0.7,0.9,1.9,0.9,3c0.7,0.5,1.8-0.2,2.4,0.5
			c-0.3,1.5,0.3,2.8,1.4,3.7c1,0.1,2-0.8,3-0.1C74.6,40.1,73.9,40.5,73.4,41z M75.1,37.5c-0.6,0.1-1.4,0.3-2-0.1
			c-0.5-0.9-0.8-2-1.1-3c0-1.3,1.1-2.2,1.8-3.1l0.4-0.3c0.3,0.4,0.7,0.9,0.5,1.5c-0.3,0.8-0.9,1.7-0.5,2.7
			C74.7,35.8,75.2,36.5,75.1,37.5z M75.7,24.8c0.1-0.7,0.5-1.2,0.4-1.9c-0.7-0.6-2,0.3-2.5-0.8c-0.3-1.2,0-2.6,0-3.7l-0.1-0.1
			c-0.7,0.5-1.1,1.7-2,1.7c-0.2-1.2-0.1-2.6-0.7-3.7c-0.3-0.4-0.8-0.3-1.2-0.3c-0.4,0.1-0.8,0.3-1.2,0.5c0,0,0,0,0,0
			c-0.1,0-0.1,0.1-0.2,0.1c0,0-0.1,0-0.1,0c-0.1,0-0.1,0-0.2,0.1c0,0-0.1,0-0.1,0c-0.1,0-0.2,0-0.3,0.1c0-0.1,0-0.1,0-0.2
			c0,0,0,0,0-0.1c0,0,0-0.1,0-0.1c0,0,0,0,0,0h0c0.2-0.6,0.7-1.1,1-1.7c0-0.3,0.4-0.7,0-1c-1.3-0.3-2.9,1.1-3.7-0.4
			c-0.3-1-0.9-1.9-1-3h-0.1l-1.6,1c0.3,0.3,0.5,0.6,0.4,1c-0.8,0.8-1.2,1.9-0.8,2.9c0.6,0.6,0.9-0.6,1.4-0.8c0.3-0.2,0.7,0,1,0
			c1.3,0.8,1,2.5,1.1,3.9c-0.1,0.3-0.2,0.7-0.1,1c0.2,0.2,0.4,0.3,0.7,0.1c0.8-0.2,1.1-1.4,2-1c0.4,0.1,0.6,0.5,0.5,1
			c-0.1,0.4-0.4,0.7-0.4,1.2c0.6,0.3,1.4-0.1,2.1,0.1c1.3-0.3,0.8,1.2,1.4,1.8c1.1,1.2,1.5,3.1,3.2,3.6c0.2,0.1,0.1,0.3,0.1,0.5
			c-0.7,0.7-1.7,1.1-1.8,2.1c-0.1,0.8,0,1.6-0.4,2.3c-0.3,0.4-0.8,0.8-1,1.3h-0.1c-0.3-0.4-0.5-1.1-1.1-1.2c-0.5,0.1-1,0.1-1.4-0.3
			c-0.5-0.6-0.5-1.4-1.1-1.9c-1,0-1.6,0.7-2.6,0.3c-0.4-0.3-0.3-1.2-0.1-1.7c-0.8,0.3-2,0.5-2.7-0.3c-0.7-0.5-1-1.6-2-1.5
			c-1,0-2.1,0-2.7-0.8l-0.8-1.5c-0.7-0.7-1.9-1.1-2-2.1c0-1.1,0.2-2.4-0.1-3.4c0.2-0.7,0.5-1.5,0-2.2c-0.4-0.7-1.9-0.1-1.7-1.2
			c0.3-0.6,1-1.4,0.4-2.1c-0.3-0.4-0.4-1-0.3-1.5c0.5-1,1.5-1.4,1.7-2.4l0.1-2.9c0.5-1,0.7-2.2,1.3-3.1c0.2-0.2,0.5-0.3,0.8-0.1
			c0.5,0.2,1.1,0.7,1.2,1.3c0,1.3,0.5,2.8-0.3,3.9c-0.6,1-0.2,2.3,0,3.3c0.1,0.3,0.4,0.1,0.6,0.1c0.8-0.4,1.4-1.5,2.3-1.3
			c0.4,0.2,0.6,0.7,0.9,1c3.6-2.4,7.1-4.8,10.7-7.1C73.1,3.4,74,3.2,74.8,3c-1.1-0.5-2-1.2-3.1-1.4c-0.6,0.5-2.2-0.2-2,1.2
			c-0.5,1.3-1.9,1.6-2.8,2.5c-0.4,0.2-0.9,0.3-1.2,0.8c-0.1,0.4,0.1,1.1-0.4,1.3c-1.3-0.1-2.9-0.8-4.2,0.1c-0.1,0.1-0.2,0.1-0.4,0.1
			c-0.3-0.5-0.5-1.1-0.4-1.7C60.6,5,61.5,4.4,62,3.6c-0.5,0-1.1,0.3-1.6,0.3c-0.1,0,0-0.2,0-0.3l0.1-0.1c2.8,0.5,2.6-2.9,4.1-4.3
			c0.1-0.3,0.3-0.7,0-0.9c-0.4-0.3-0.9,0-1.2,0.3c-0.7,1.7-2.6,1.2-4,1.7c0.3-0.9,0.9-2.3,0-3.2c-0.7-0.5,0.3-1,0.3-1.5
			C60.4-6,62-6.8,63.6-7c0.3,0,0.6,0.3,0.7,0.6c0.1,0.3,0,0.7-0.2,1c-0.4,0.4-0.9,0.7-1,1.3c1.8-0.2,3.3,0.6,4.5,1.8
			c0.4,0.7,0,1.6,0.7,2.1l1.6,1.4c0.1,0.1,0.1,0.3,0.1,0.4c0.5,0,1.1-0.2,1.6-0.3c-0.9-0.8-1.6-1.6-2.4-2.6c-0.3-1-0.8-1.9-1.2-2.8
			c-1.1-0.5-2.1-1-3.3-1.3c0-0.4,0.1-1.1,0.4-1.4c0.9,0,2-0.2,3-0.4c-0.3-0.1-0.8-0.1-1.1-0.2c-0.1,0.1-0.2,0-0.3,0
			c-0.1-0.2-0.4,0.1-0.5-0.1c-1-0.1-2-0.3-3.1-0.4c-0.6,0.4-1.4,0.1-2.1,0.3c-0.2,0.1-0.3,0.3-0.5,0.4c-0.8-0.1-1.8-0.4-2.3,0.4
			c-0.4,0.4-0.5,0.7-1,1c-1.2,0.1-2.1-0.7-3.3-0.6c-0.9,0.1-1.8,0.4-2.8,0.2c0.6-0.7,1.5-1,2.1-1.7c0-0.4-0.7-0.4-0.9-0.7
			c0.4-0.2,0.9-0.3,1.2-0.8c0.1-0.4-0.2-1,0.2-1.3c0.4-0.4,0.9-0.5,1.4-0.4c2.1,1.2,4.6,1.4,6.8,2.3c1.3,0.1,2.4,0.6,3.7,0.6
			c-1.9-2.1-5.1-1.4-7.6-2l-0.3-0.5c-1.2-0.3-2.3-0.7-3.5-1v-0.1c1-0.2,2-1.2,3-0.5c1.9,0.7,3.7,1.4,5.6,2c1.4,0.3,2.9,0.2,4.2,0.5
			l0-1.7c0.8,0.8,1.5,1.7,2.3,2.5c1,0.2,1.9,0.4,2.9,0.5c-1.7-1.3-3.5-2.5-5.2-3.8c0-0.2,0-0.4,0-0.5c0.3,0.2,0.7,0.5,1,0.7l0.1,0
			c-0.6-0.6-1.3-1-1.9-1.5c0,0.2,0.1,0.5,0.2,0.8v1.8c-0.1,0.2-0.3,0.4-0.4,0.5c-2.1-0.2-3.8-1.2-5.8-1.6c-0.5-0.2-1-0.2-1.3-0.8
			L59-14.5c1.1-1,2.8-1.5,4.2-0.8c0.5,0.1,1.1,0,1.5-0.3c0.6-0.4,0.3-1.4,1-1.8c0.8-0.1,1.7-0.5,2.1-1.3c-0.4,0.8-0.3,1.9,0.3,2.6
			l0.2,0.1c0.3-0.5,0.5-1.2,1.1-1.5c0.5-0.2,1.1-0.3,1.4-0.9c0.3-0.7,0.2-1.5,0.9-2c0.7-0.6,1.7-0.4,2.4-0.1c1.4,1.3,3.3,1.6,4.6,3
			c0.8,0.5,1.7,1.3,2.5,1.6c-0.8-1.5-2.4-2.6-3.6-3.8c-1.1-1.4-3.9-0.8-3.8-3.2c0.2-0.2,0.4-0.5,0.7-0.7c1,0.1,2.1,0,3.1-0.1
			c0.4,0.3,0.6,0.9,1,1.2c0.8,0,1.1-1.2,2-0.9c0.7,0.2,1,1,1.1,1.6c-0.3,1.1,0.9,1.9,1,3c-0.1,0.9,0.4,1.6,0.1,2.5
			c0,0.3-0.5,0.7-0.1,0.9c1.2,0.3,2.2,1.3,2.5,2.5c0.2,0.9-0.3,1.5-0.5,2.1c-0.4,0.4-0.9,0.9-1.5,0.7c-0.4-0.1-0.9-0.3-1.1-0.8
			c-0.2-0.6,0.1-1.1,0.3-1.7c-1.3-2.1-3.9-1.8-6-1.8c-1.3,0.1-2,1.5-3.3,1.7l-1.8,0.1c0.1,0.7,0.3,1.4,0.3,2.2l3.4,2.3l4.7,1.5
			c0.1,0.3-0.3,0.5-0.4,0.8c0.9,1.3,1.7,2.5,2.5,3.8c-0.2,0.2-0.4-0.2-0.6,0c0.5,0.4,0.6,1.3,1.4,1.1c1.1,0.6,2.5,0.4,3.4,1.5
			c0.5,0.6,0.8,1.4,1.6,1.8c0.2-0.3,0.3-0.7,0.1-1.1c-0.1-0.5-0.5-0.8-0.7-1.2C87.8,1,89,1.2,90.3,1.7c0.5,0.3,0.7,0.9,1,1.3
			c1.9,2.8,4.9,3,7.1,5.1c0.9,0.4,0,1.1,0,1.6c-0.4,1.1-1.2,2.1-1.5,3.3c-0.1,0.3-0.3,0.4-0.6,0.3c-0.6-0.3-1.2-0.7-1.9-0.5
			c-1,0.8-2.2-0.1-3.3,0.1c-1.3,0.3-2.5,1.2-3.8,0.6c-0.7-0.6-0.1-2.2-1.4-2.1c-3.1-0.2-5.7-1.4-8.6-2.3c-1-0.5-2-1.6-2-2.8
			c0-0.4,0.4-0.8,0.7-1.1c1-0.2,1.8,0.5,2.3,1.2c0.8,1.5,2.6,1.1,3.7,2.1C83,9.4,84.5,10,86,9.7l0.3-0.4c-1.8-1.4-4.2-1.4-6.2-2.5
			c-0.6-0.7-1.3-1.4-2-2.1l-4.7-0.1c-2.7,1.5-5.3,3.2-8,4.7c1.9,0,3.2-1.7,4.9-2.2c0.3,0,0.5,0.2,0.6,0.4C71.1,8.1,71,9.2,72,9.5
			c1,0.3,2.1-0.2,2.7,0.8c0.2,1.1-0.2,2.1,0,3.1c0.3,0.5,0.8,0.2,1.3,0.3c1.5-0.3,3-1.2,4.4-0.4c0.6,0.6,0.8,1.5,0.7,2.4
			c-1.3,2.2-2,4.7-2,7.5c0,3.6,0.7,7,1.2,10.4c-0.2,1.5-0.4,3-1,4.4c-0.1,0.1-0.3,0.2-0.5,0c-2.1-3-1.3-6.3-1.7-9.8
			C76.5,27.1,75,26.3,75.7,24.8z M53.7-3.5c0.9-0.5,2-1,3-0.3c0.3,0.2,0.7,0.5,0.7,0.9c0.1,0.7-0.8,1.2-0.3,1.8
			c0.1,0.3,0.4,0.7,0.2,1c-1.1,0.8-2.4,0.9-3.6,1.5c-0.2-1.1,0.1-2,0.5-2.9C54.1-2.2,53.5-2.7,53.7-3.5z M102.6,43
			c-0.1,0.8-0.5,2,0.2,2.7c0.3,0.4,0.9,0.6,0.8,1.2c-1.2,0.8-1.8-1.9-3-0.4c-0.5,0.2-0.1,0.5,0,0.8c1.1,1.5,3-0.1,3.5,2
			c0.1,0.4-0.1,0.7-0.4,0.8c-0.4,0.1-0.9,0.1-1.2,0.5c-0.1,0.6,0.3,1,0.1,1.5c-0.7,0.5-1.7,0-2.3,0.6c-0.1,0.6,0.3,1.1,0,1.6
			c-0.8,0.1-1.5-0.6-1.8-1.3c0-0.1-0.1-0.3-0.2-0.4l-0.1,0.1c0,0.9,0.1,1.7-0.3,2.6c-0.8,0.3-2-0.7-2.4,0.7
			c-0.4,0.7-0.8,1.6-1.7,1.8c-0.4-0.9-0.3-2-0.8-2.9c-0.4,0.8-0.4,1.9-1.3,2.4c-0.8,0-0.5-1-0.8-1.5l-0.1,0
			c-0.6,0.6-0.6,1.7-1.5,2.2c-0.2,0-0.3,0.2-0.5,0.2c0.2-0.7,0.1-1.8-0.4-2.4c-0.5-0.9-1.4-0.9-2.4-0.9c-0.8-0.2-0.2-1.3-0.7-1.7
			c-0.8-0.4-1.8-0.3-2.4-1.1c-0.5-0.6-0.9-1.2-1.2-1.8c0.4-0.3,0.7-0.7,1.3-0.5c0.6,0.2,1.1,0.8,1.8,0.5c1.1-1.2,2.2,1,3.3-0.1v-0.1
			c0.4-0.6,1-1,1.4-1.6c-1.4-1.1-2,1.8-3.2,0.1c-0.2-0.2-0.4-0.4-0.5-0.5c-0.2,0.4-0.2,0.8-0.7,1c-0.6,0.3-1.3,0.2-1.8-0.3
			c-0.6-0.6-0.7-1.6-1.6-2c-0.7-0.3-1.7-0.1-2-1c-0.1-0.2-0.1-0.5-0.1-0.7c-0.8,0.1-1.8,0.2-2.6-0.1c0.1-0.8,0.1-1.6,0.9-2.1
			c0.4-0.2,0.9-0.2,1.4-0.3c2.1,4.2,7.3,3.1,11.3,3.2c2.1-0.8,4.4-0.6,6.7-0.4c1.2-0.1,2.5-0.5,3.1-1.6c0.5-1.6,0.8-3.2,1.9-4.5
			c0.3-0.5,0.1-1.1,0.3-1.7c0.4,0.8,1.4,1.2,1.6,2.2c-0.7,0.4-1.5,0.6-1.9,1.3C102.5,41.8,102.5,42.4,102.6,43z M103.9,33.5
			c0.1,1.4-0.1,2.7-0.7,3.8c-1-2.1-0.1-4.6,1.1-6.3c0.2-1.1-0.1-2.2,0.1-3.4c0-1,0-2.5,0.3-3.5c0.2-0.7,0-1.5,0.7-2
			c1.1-0.9,2-1.6,2.8-2.7c0.7-0.4,1.7-0.4,2.3-1c1.1-0.9,2.3-1.9,3-3.1c-0.7-0.6-1.8-1.1-1.9-2.1c0.9-0.7,1.9,0.1,2.8,0.3
			c0.2-0.2,0.1-0.5,0-0.8c-0.3-1-0.6-1.9-1.1-2.9c0.3-0.5,0.7-0.8,1.2-1.1c1,0,1.6,0.7,2.5,0.8c0.6,0.3,1.6,0.2,1.7,1.1
			c0.3,0.8,0.9,1.5,0.7,2.4c-0.3,0.2-0.7,0.3-1,0.1c-0.8-0.2-1-1.3-1.8-1.4c0.1,0.5,0.4,1,0.7,1.4c0.6,1.8,2.1,3.5,1.4,5.6
			c-0.5-0.5-0.5-1.3-0.8-2c-0.3-0.9-1.3-1.7-2.1-2.2c0.1,0.6,0.3,1.2,0.5,1.8c0.1,1.3,0.2,2.6,0.3,4h0c-0.5-1.3-0.9-3-2.5-3.5
			c-0.3,1.9,0.4,4.4-1.2,5.7c-0.6,0.1-1.1-1.2-1.4-0.4c0,0.5,0.1,1.2-0.4,1.5c-1.8-0.3-3.4,0.4-4.4,1.8c-0.8,1.9-2.2,3.5-2.1,5.7
			c0.2,0.6,0.7,1.4,0.2,2C104.7,33.3,104.1,32.9,103.9,33.5z M116.9,29.4c-0.5,0.3-0.5,1-0.5,1.6c0.5,0.7,0.6,1.9,0.2,2.7
			c-0.2-1.3-0.9-2.8-2.2-3.7l-0.1,0.1c-0.3,1.7,0.9,3.8-0.5,5.3c-0.1-1.8-1.2-3.2-2.3-4.6c-0.1-0.1-0.3-0.1-0.4-0.1
			c-0.2,2,1.1,3.7,0.5,5.6c-0.1,0.9-0.5,1.7-0.8,2.6c-0.7-1.5-0.8-3.3-1.5-4.7l-0.2,0.2c-0.4,1.3,0.1,2.9-1.1,3.9
			c-1-0.4-2.1-0.6-3.1-0.9c-0.4-0.2-0.2-0.7-0.2-1c0.6-1.2,0.6-3.2,2.3-3.4c0.8,0,1.5-0.6,2.1-1.2c1-1.1-0.1-2.5-0.4-3.6
			c-0.1-0.3,0.3-0.6,0.5-0.8c0.6,0.1,0.6,0.8,0.8,1.2c0.1,0.3,0.1,0.5,0.2,0.8h0.1c1.3-1,1.6-2.5,1.7-4.1c0.1-0.1,0.2,0,0.2,0.1
			c0.6,1,1.2,2.1,1.9,3c0.2-0.6,0.4-1.3,0.2-1.9c-0.3-0.7-0.7-1.2-1.1-1.8h0.1c1.1,0.7,2,1.9,3.2,2.2c1.4,0.7,1.3,2.5,1.3,3.7
			C117.7,30.2,117.5,29.3,116.9,29.4z M121.5,26.1c0.1,1.1,0.8,2.3,0.3,3.4c-0.8-0.9-0.8-2.3-1.8-3.1c-0.4,0-0.6,0.5-0.7,0.8
			c0.1,1.1,1.1,2,0.6,3.3c-0.2-0.3-0.3-0.8-0.3-1.2c-0.2-1-0.2-1.8-0.5-2.8c-0.4-1.3-1.1-2.6-2-3.7c0-0.4,0-0.9,0.3-1.2
			c0.6,0,1,0.4,1.6,0.5c0.7,0,1.5,0,1.8,0.7c0.6,1.4,1.8,2.4,2.3,3.9C122.6,26.6,122.1,26.1,121.5,26.1z M124.7,18.1
			c-0.5-0.1-0.9-0.5-1.4-0.6c0.7,0.7,1.6,1.5,1.9,2.5c-0.5-0.5-1.1-1-1.9-0.8c-0.1,0.1-0.3,0.1-0.3,0.3c0.6,0.6,2.2,0.7,1.7,2
			c-0.1,0.3-0.3,0.7-0.5,1c-0.4-0.8-1-1.7-1.9-1.9c0,1,0.6,2,0.9,2.9l0,1.2c-0.7-0.9-1.3-1.8-2.2-2.6c-0.2-0.6-0.3-1.3-0.8-1.9
			c0.4-0.2,0.9,0,1.3-0.3c0.4-0.6-0.6-1.2-0.2-1.9c0.3-0.5,0.8-0.5,1.2-0.8c0.4-1.6-1.1-2.4-2-3.3v-0.1c1.1-0.3,2.2-1.7,3.4-0.7
			c0.8,0.6,1,1.5,1.4,2.3c-0.3,0.2-1.1,0.1-1.6,0.1c-0.4,0-0.7,0.1-1,0.4C123.4,16.6,124.7,17.1,124.7,18.1z M128.7,8.7
			c-3.2-0.6-6.4-1.4-9.7-1.7c0.8,1.2,1.4,2.4,1.9,3.7c-0.7-0.1-1.3-0.8-1.6-1.5c-1.3-0.8-2.6-1.7-4.3-1.6l-0.2-0.1
			c0.5-0.4,1.2-0.5,1.7-0.9L113,6.2c-0.1,0.3-0.4,0.4-0.7,0.6c0.2,1.1-0.1,1.9-0.5,3c0,0.5,0,1.1-0.2,1.5c-0.7,0.2-1.5,0.3-1.9,1
			c-0.1,0.3-0.3,0.4-0.5,0.5c-0.7,0.1-1.2-0.4-1.8-0.7c-1.2-0.1-2.5-0.2-3.4-1.3c-0.3-0.4-0.3-0.9-0.8-1.2c-0.7,0-1.2,0.6-1.8,0.4
			l-0.9-0.4c0.2-1.5,2-1.1,2.6-2.2c0.9-1.8,2.1-3.5,3-5.3c0.7-1,1.5-1.9,2-2.9c-0.7-0.2-1-1-1.1-1.6c0-0.4,0.2-0.8,0.4-1.1
			c0.3-0.2,0.7-0.2,1-0.1c0.1,0.1,0.2,0.1,0.3,0.2c3-3,7-3.9,10.1-6.4c0.1,0,0.2,0.1,0.3,0.1v0.1l-3.3,2.7c-2,1.2-4.2,1.9-5.9,3.7
			h0.2c1.9-1.6,4.3-2.1,6.5-3c1.8-0.2,3.7-0.4,5.5-0.6c-0.2,0.3-0.6,0.3-1,0.4c-3.2,0.5-6.1,1.7-9.1,2.8c-0.5,0.5-1,0.9-1.5,1.5
			c1.3-0.1,2.5-0.6,3.7-1c-0.3,1-0.5,2.2-1.1,3.1c-0.4,0.4-0.7,0.8-1.1,1.2c1.4-0.2,2.9-0.6,4.3-0.9l1.2,0.1c0-0.8-0.1-1.6-0.1-2.4
			c-0.1-0.3-0.5-0.4-0.6-0.7c0.3-0.1,0.4,0.3,0.6,0.5c0.1,0.3,0.5,0.5,0.7,0.8c0.5,0.5,0.7,1.1,0.6,1.8c1.9,0.2,3.9,0.4,5.8,0.6
			c0,0.1-0.1,0.2-0.1,0.3c-1.9,0-4,0-5.6-0.2c-0.2-0.1-0.4,0-0.6,0c-0.1,0.2-0.3,0.4-0.3,0.6l3.2,0v0.1c-1,0.2-2,0.3-3,0.4l-0.1,0.1
			c0.7,1.4,2.2,0.8,3.3,1.1l2.9,0.6c0.1,0.2,0.4,0.3,0.4,0.5c-1.5-0.1-3-0.4-4.5-0.6l-0.3,0.1c0.2,0.3,0.4,0.7,0.1,1
			c-0.3,0.3-0.9,0.3-1,0.9c2.7,0.4,5.5,0.5,7.9,1.6c0.6,0.4,1.3,0.5,2,0.9V8.7z"/>
		<path fill="#720018" d="M77.8-15.9c-1.6-1.3-3.9-1.6-5.9-1c-1.7,0.1-2,2.3-3.5,2.8c0.5,0.2,1.2,0.7,1.8,0.2c1-0.9,2.3-1.2,3.4-1.8
			C74.9-16.6,76.5-15.7,77.8-15.9z"/>
		<path fill="#720018" d="M77.7,2c-1-0.9-0.6-2.4-1.3-3.4l0.1-0.1c0.5,0.2,1.1,0.4,1.6,0.8c0.7,1.6,2.3,1.9,3.6,2.9
			C83.4,4,85.9,5.6,88.2,6l-0.9-0.6c-2-0.7-3.4-2.3-5.2-3.5c-0.8-0.8-2.2-1-2.6-2.2c-1.4-1-2.9-1.7-4-2.9c0.1,1.5,0.2,3.1,0.4,4.6
			L77.7,2z"/>
		<path fill="#720018" d="M116.1,1.1c-1.1,0.3-2.3,0.6-3.4,0.9c0.3,0,0.6,0.1,0.8,0.2l1.5-0.2c0.7-0.3,2.3,0.6,2.1-0.8L116.1,1.1z"
			/>
		<polygon fill="#720018" points="76.2,2.7 77.5,2.4 76.1,1.9 		"/>
		<path fill="#720018" d="M116.5,3.4c0.1-0.2,0.2-0.5,0.2-0.8l-2,0.3C114.9,3.7,115.9,3.1,116.5,3.4z"/>
		<path fill="#720018" d="M115.3,4.3l-0.1,0.5c-0.1,0.3-0.2,0.7-0.5,0.8l2.2,0.3c0.1-0.6-0.2-1.1-0.3-1.6
			C116.2,4.2,115.8,4.4,115.3,4.3z"/>
		<path fill="#720018" d="M91.7,31.5c-0.8,0.1-1.6,0.9-1.9,1.6c1.9-0.9,4-1.6,6.3-1.2C94.8,31.1,93.1,31.2,91.7,31.5z"/>
		<path fill="#720018" d="M96.3,47.8c-1,0.9-2.8,0.1-3.4,1.7c-0.4,0.5-1.3,0.2-1.9,0.3c-0.4,0.2-0.7,0.8-0.7,1.2
			c1.2-0.7,2.7-1.4,4.1-0.7c0.6,0,0.9-0.6,1.2-0.9c0.7-0.5,1.3,0.2,2,0.1c0.3-0.2,0.4-0.7,0.5-1c0.3-1.2,1.1,0,1.8,0
			c0-0.3-0.1-0.7-0.2-1C98.8,46.2,97.2,47.2,96.3,47.8z"/>
	</g>
</g>
</svg>
