<?xml version="1.0" encoding="utf-8"?>
<!-- Generator: Adobe Illustrator 19.1.0, SVG Export Plug-In . SVG Version: 6.00 Build 0)  -->
<!DOCTYPE svg PUBLIC "-//W3C//DTD SVG 1.1//EN" "http://www.w3.org/Graphics/SVG/1.1/DTD/svg11.dtd">
<svg version="1.1" xmlns="http://www.w3.org/2000/svg" xmlns:xlink="http://www.w3.org/1999/xlink" x="0px" y="0px"
	 viewBox="33 -33 100 100" enable-background="new 33 -33 100 100" xml:space="preserve">

<g id="AREA_2">
	<g>
		<path fill="#FDBB2D" d="M62.9-5.2c1.6,0.5,3.4,0.1,4.6-1c1.4-1.4,2.6-3.2,1.8-5.1c-2-2.3-4.3-4.6-6.2-7c-1.5-2.4-2.9-4.9-3.9-7.6
			c-0.8,2-1.5,4.1-1.8,6.3c-0.2,1.9-0.3,4.1,0.8,5.6c0.3,0.3,0.6,0.3,1,0.3c-0.3,0.5-0.4,1.1-0.6,1.6C59.6-9.6,60.1-6.6,62.9-5.2z
			 M58.5-19h0.1l0,1.8L58.5-19z M59.6-12.3c1.1,0.6,0.9,2,1.3,3C60.3-10.2,59.4-11.1,59.6-12.3z"/>
		<path fill="#FDBB2D" d="M105.9-5.8c1.6-2.5,2.5-5.4,2.2-8.6c-0.3-2.8-1.3-5.4-3-7.6c-0.5,4-1.2,7.8-3.6,11l4.1,4.9L105.9-5.8z
			 M103.3-10.6l0.2-0.9C103.5-11.3,103.7-10.8,103.3-10.6z M104.6-13.6v-2.1l0.4,0.6L104.6-13.6z M105.4-19.4h0.2v1.5h-0.2V-19.4z"
			/>
		<path fill="#FDBB2D" d="M108.3,16.3c-0.9-2.8-0.6-6.2-0.1-9.1c-1.4-1.5,0-3.6-0.5-5.3c-0.4-1-1.2-2.2-2.3-2.7
			c-0.8-0.4-1.8-0.3-2.6,0.1c-2.5,0.8-3.3,3.6-4.6,5.4c-0.5-2.5-1-4.9-1.7-7.3c-0.6-1.5-1-3-1.8-4.4c-0.4-0.7-1.1-1.1-1.9-1
			C93.3-6,94.2-4,94.8-1.9c0.3,2,1.7,4.3,0.4,6.3c-2.1-2.7-3-5.8-5.6-8.3c-4.5-3.2-9.4-7-15.3-5.1c-3,1.6-4.5,4.7-4.9,7.8
			c-0.4,5.2,1.5,9.6,2.2,14.5c-2.3,1.6-3.3,4.1-4,6.5h-0.4c-3.6-4.4,0-11.6-4.1-15.7c-2-1.5-3.6-3.9-6-4.4c-1.1,0.4-0.3,1.8-0.6,2.7
			c0.6,1.8,0.8,3.7,0.9,5.8L57.1,15c-0.1,4.1,0.7,8,3.9,10.6c1.4,2.1,0.7,5.1,2.9,6.9c3.2,0.4,1.7-3.4,2.8-5l0.4,0.4
			c-0.4,4.2,2.4,7.2,3.2,11c0.2,0,0.3,0,0.5,0c1.7-1.9,0.5-5,2.1-6.8c1,2.2,0.1,4.6-0.8,6.5c-1.5,3.5,2.4,5.8,4.6,7.8
			c0.1-0.1,0.1-0.1,0.2-0.1l0.5,0.5c3.5,2.5,7.9-1.7,11.1,1.6c0.8-0.1,1.3-0.8,2.1-0.7c0.4,0.1,0.6,0.4,0.8,0.7
			c1.6,0.8,2.1-1.5,3.4-1.9c0.2,0.2,0.4,0.4,0.7,0.5c0.8,0.2,1.5-0.2,2-0.8c0.4,0.4,0.8,0.8,1.2,1.2c0.4-0.7-0.2-2,0.6-2.5l1,1.6
			c0.1,0,0.2-0.1,0.3-0.1c0.9,0.4,1.8,0.8,2.5,1.6c0.5,0.5,0.5,1.4,0.3,2c0.7-1,0.9-2.2,1.4-3.4c-0.1-2,2.1-2.7,3.2-4
			c2.1-2.5-0.3-5.2-0.9-7.6c0.3-0.1,0.7,0,1-0.1c-0.4-1,0.7-2-0.1-2.8c-1.6,0-2.3,1.8-3.1,2.8c-0.5,1-1.5,0.9-2.4,0.9
			c-0.6,0-1.3-0.4-1.5-1c-2.7,1.2-3.8-2.6-6-3.3c-0.9-0.3-1.7,0.1-2.4,0.5c-1.1-0.6-1.7-1.8-2.5-2.7c-0.5,0-0.9,0.1-1.3,0.3
			c-0.3,0.1-0.6,0.4-0.6,0.8l2.3,1.4c1.8,1.4,4.3,0.8,6.1,2.1c0.3,0.8-0.4,1.3-1,1.8c-1.4,0.9-2.9-0.2-4.1-0.9
			c-0.5-0.3-1-0.5-1.5-0.8c-2.1-4.8-8.5-2.5-10.7-7.3c-1.4-1.1-2.9,0.1-4.2,0.5c-0.3,0.1-0.7,0.1-1,0.1c0-1.3,1.6-1.6,2.1-2.6
			c0.1-0.4,0-0.8-0.2-1.1c4,0.3,8,1.3,10.4,4.9c2.9,0.8,3.7-3.6,6.5-3.5c0.4,0.3,1.1,0.6,1.1,1.2c-0.7,0.9-2.1,0.8-2.5,1.9
			c-0.2,0.8,0.4,1.4,0.8,2c0.1,0.1,0.3,0.1,0.5,0.1c0.5-0.5,1.1-1,1.8-0.9c2.2,0.4,3.2,3.3,5.4,3.8c0.6,0.1,1.1-0.1,1.5-0.4
			c1.1-0.9,1-2.5,0.7-3.8c-2.2-3.2-1.2-7.6-3.6-10.6c-0.4-0.7-1.4-0.9-1.2-1.8c-0.1-0.7,0-1.3,0.5-1.7c0.7,0.2,0.1,1.1,0.6,1.5
			l0.2-0.3c0.7-0.2,1,0.6,1.5,0.9c0.6-0.2,1.2-0.5,1.7-1c1.9-1.8,2.3-4.6,4.8-5.9c0.4,0.2,1.1,0.6,1,1.2c-0.4,0.6-1.2,0.2-1.7,0.7
			c0.2,1.2,0.4,2.5,1.3,3.4c0,0.4-0.1,0.7-0.4,1c0.5,1.5-1.1,2.2-2,2.9c-0.4,0.3-0.6,0.9-1.1,1c-1.1,0.3-2.2-0.2-3-0.7
			c0.8,2.5,1.1,5.2,2.2,7.5c0.7,0.5,1.5,0.9,2.1,1.7c0.4,0.5,0.5,1.3,0.2,1.9c0.4,1.7-1.6,1.7-2.5,2.3c-0.2,0.2-0.3,0.4-0.3,0.7
			c0.5-0.1,1-0.1,1.5-0.2c1.9-2.9,4.8-5.7,7.9-7l-0.6-5.8C109.7,19.4,108.8,18,108.3,16.3z M63.5,24.7c-0.1,0.1-0.2,0-0.4,0
			c-0.8-2-1.9-3.9-3.2-5.8c-0.4-2.6,1.1-5.8-0.7-8c-0.4,0.6,0,1.6-0.3,2.2c-0.8-2.2-0.5-4.9-0.3-7.3c2.4,1.9,4.4,4.4,4.2,7.5h-0.1
			c-0.7-1-0.8-2.3-2-3.1c-0.7,1.4-0.5,3.3-0.3,4.8c0.2,1.5,0.6,2.9,0.7,4.5c0.1,0.3,0.3,0.6,0.5,0.7c0.7-0.1,0.9-0.9,1.5-1.2
			c0.2-0.1,0.4-0.3,0.6-0.3C63.2,20.7,63.6,22.8,63.5,24.7z M70.2,28.5l-0.6-5.7C70.2,24.5,71.2,26.6,70.2,28.5z M94,41.4
			c-1.4,1.1-3.5,0.7-4.9,1.6c-0.3,0.2-0.3,0.6-0.7,0.6c-0.3,0-0.7-0.1-1,0.2c0.7-1.7,2.5-2.5,4-3.3c1-0.1,1.9-0.5,2.9-0.6
			C94.5,40.4,94.4,41,94,41.4z M75.3,35c0.7-1.7,1.2-3.7,3-4.8c1.3-0.3,2.8-0.3,4,0l-0.1,0.8c0.4,0.2,0.8,0.3,1.2,0.4
			c-0.4,0.3-1.1,0.4-1.6,0.1c-0.2-0.2-0.2-0.4-0.2-0.7c-1.6,0.2-3.6-0.1-4.4,1.7c0,0.1-0.1,0.2-0.1,0.3c0.8-0.2,1.8-0.4,2.7-0.3
			c4.3,0.6,7.1,4.8,11.3,5.4c1.8,0.2,3.3-0.5,4.6-1.5c3.7-0.2,7.1,0.5,9.6,3.3c-0.1,0.7,0.3,1.7-0.6,2.1c-0.4,0-0.7-0.1-1-0.4
			c-0.7-0.7-0.9-1.9-1.9-2.2c-1.9-1.6-4.2-2-6.7-2.1c-3.3,2.8-9.2-0.1-11.6,4.4c-0.1,0.5-0.6,0.5-1,0.7c-2,0.7-4.8,1-6.6-0.4
			C74.4,40.2,75.2,37.3,75.3,35z M91.6,3.2c0,0.3,0.2,0.5,0.1,0.8l-0.6-1C91.3,2.9,91.6,3,91.6,3.2z M77.5,14.5
			c-0.6-0.3-1.6,0.1-2.1-0.6c0-0.2,0-0.5,0.2-0.6c0.2-0.1,0.4,0,0.6,0c0.4,0.2,0.9,0.3,1.2,0.7V14.5z M81,18.5
			c1.7-0.5,2.9,1,4.3,1.6l0.8,0.3C84.1,21,82.6,19.4,81,18.5z M91.9,19.2c-1.2,0.6-1.9-1.7-3-0.3c0.2,0.3,0.5,0.5,0.4,0.9
			c-5.1-0.3-9.5-3.9-12.4-8.2c-0.5-0.5-1.4-0.4-1.8-1c-0.1-0.3,0-0.6,0.2-0.9c2.5-0.3,2.6,2.9,4.6,3.6c0.7-1.6,1.7-3.1,2.4-4.8
			c-0.4-0.5-1-0.7-1.7-0.6c-0.4,0.1-0.8,0.3-1.2,0.5c-0.2-0.2-0.2-0.5-0.1-0.7c0.4-0.7,1.3-1.1,1.6-1.8c2.3,0.9,4.2,3.2,5.5,5.3l3,5
			c0.2,0.3,0.4,0.7,0.7,0.8l1.4,0.4c-0.1,0.2-0.3,0.4,0,0.5c0.5,0.4,0.7-0.5,1.2-0.3C93.2,18.4,92.2,18.7,91.9,19.2z M95.6,14.7
			c-0.6,0.8-1.6,1.1-2.5,0.9c-1.6-0.4-2.8-1.8-3.9-3c-1.9-2.4-3-5.1-4.9-7.5c-2.5-2-6-4.3-6.5-7.6c2.2,1.2,4,3.8,6.9,3.3
			c4,3.8,6.1,8.3,9.1,12.5c0.4,0.1,0.9,0,1.2-0.2c1-1,0.2-2.7,0.7-3.9c0.9-0.1,0.5,1,0.9,1.5C96.9,12.1,96.2,13.4,95.6,14.7z
			 M99.1,27.9c-1.2-1.5-0.9-3.6-1.1-5.6C99.1,23.8,98.7,26,99.1,27.9z M100.8,5.2c0.1,1-0.2,1.8-0.7,2.6c-0.2-0.2-0.2-0.4-0.2-0.7
			C100,6.4,100.6,5.9,100.8,5.2z M106.4,6.8c-2.8,2-3.5,5.1-5.8,7.5c-0.7,0.1-1.4,0-1.8-0.6l0.3-3.3c0.7,0.8-0.2,1.8,0.1,2.7
			c0.2,0.3,0.4,0.3,0.7,0.4c1.1-2.9,1.9-5.8,3.7-8.3c0.5,0.1,1.1,0,1.5-0.4c0.8-0.7,0.7-1.8,0.9-2.8C107.5,3.4,106,5.2,106.4,6.8z
			 M107.8,19.6c-0.7-0.1-1,0.8-1.7,0.8c0.2-0.9,0.5-1.9,1.3-2.5c1,0.4,1.4,1.4,1.5,2.5C108.7,19.9,108.3,19.6,107.8,19.6z"/>
		<path fill="#FDBB2D" d="M112.6,2c-1.3,0.7-1.6,2.2-2.9,3.1c-1.7,1.9,0.5,4-0.3,6.1c-0.1,0.4-0.6,1-0.2,1.4
			c0.9-1.8,0.7-4.1,1.2-6.1c0.2-0.6,0.3-1.2,0.7-1.7c0.3-0.1,0.5,0,0.7,0.2c0.8,3.8-0.3,7.6-1.4,11l0.3,0.8c1.5-0.9,1.3-2.5,1.5-3.9
			l0.1-7c0-1.4,0.3-2.7,0.6-4H112.6z"/>
		<path fill="#FDBB2D" d="M84.2,10.7c-0.4-0.3-1-0.5-1.5-0.3c-0.8,1.5-1.6,3.3-1.1,5.1c0.2,1,1.3,1.5,2,2c0.2,0.1,0.5,0.1,0.6-0.1
			c0.5-1.7-0.7-4.2,1.1-5.2C85,11.7,84.7,11.1,84.2,10.7z"/>
		<path fill="#FDBB2D" d="M105.7,14.7c-0.2-0.4-0.7-0.6-1.2-0.6c-0.1,0.1-0.3,0.1-0.3,0.2c-0.5,1.1-0.2,2.5-0.2,3.7l0.6,0
			C105.3,17.1,105.8,16,105.7,14.7z"/>
		<path fill="#FDBB2D" d="M87.4,16.6c-0.5,0.1-0.8,0.7-1,1.1c0.4-0.1,0.7,0.1,1,0.2c0.2-0.3,0.8-0.4,0.7-1
			C87.9,16.7,87.7,16.6,87.4,16.6z"/>
		<path fill="#FDBB2D" d="M102.7,16.9l-0.4,0.8c0.3,0,0.5,0,0.6-0.2C103,17.3,102.9,17,102.7,16.9z"/>
		<path fill="#FDBB2D" d="M84.4,28.9c-0.8-1.6-2.5-2.3-4.1-2.5C81.4,27.7,82.6,29.3,84.4,28.9z"/>
		<path fill="#FDBB2D" d="M110,29.4c-0.4,0.2-0.8,0.5-1,1c-0.1,0.4,0,0.9,0.3,1.2c0.6-0.7,1.5-1.2,1.8-2.1
			C110.8,29,110.4,29.6,110,29.4z"/>
		<polygon fill="#FDBB2D" points="103.5,29.4 103.1,29.4 103.3,30.9 103.5,30.9 		"/>
		<path fill="#FDBB2D" d="M76.8,36.3c0.6,0.4,1.4,0.2,2.1,0c-0.1-0.7,0.3-1.3,0.1-2c-0.1-0.2-0.2-0.4-0.4-0.5
			c-0.8,0.3-1.7,0.8-1.9,1.6C76.5,35.7,76.5,36.1,76.8,36.3z"/>
		<path fill="#FDBB2D" d="M82.5,36.2c0.3-0.4,0.4-1.1,0.1-1.5c-0.6-0.9-1.6-0.8-2.5-0.9c-0.4,0.9-0.1,2,0.4,2.7
			C81.2,36.6,82,36.7,82.5,36.2z"/>
		<path fill="#FDBB2D" d="M84.1,36.5c0.3,0,0.6,0.1,0.7-0.1c-0.4-0.3-0.6-0.9-1.1-0.8c-0.2,0.1-0.2,0.3-0.2,0.5
			C83.7,36.2,83.9,36.4,84.1,36.5z"/>
		<path fill="#FDBB2D" d="M77,41.6c0.4,0.3,0.9,0.4,1.4,0.3c0.3-0.6,0.5-1.3,0.8-1.8c0.5,0.5,0.3,1.3,0.7,1.8
			c0.2,0.2,0.5,0.2,0.7,0.1c1.4,0.2,1.6-1.3,2.1-2.1c0.4-0.1,0.3,0.4,0.5,0.6c1.6-0.1,2.2-2,3.4-2.8c-1-0.1-1.9,0.1-2.7,0.7
			c-0.6,0.4-0.8,1-1,1.6c-1.1-0.5,0.4-1.4-0.4-2.1l-1.4,0c-0.8,0.2-1.6,0.8-1.8,1.6c-0.4-0.5-0.7-1.1-1-1.6h-1.7
			c-0.2,0.1-0.5,0.1-0.4,0.4C75.9,39.4,76,40.8,77,41.6z"/>
	</g>
</g>
<g id="AREA_1">
	<path fill="#720018" d="M113.5,27c0.2-3.7-0.4-7-1-10.4c1-2.6,2-5.4,1.4-8.5c-0.1-2.5,1-4.5,1-6.9c0-0.6,0-1.2-0.4-1.6
		c-2.4-1.2-3.6,1.8-5.2,2.9c-1.1-2.1-1.5-4.5-2.2-6.8c0.8-1.6,1.7-3.1,2.2-4.8c1.7-5.9-0.1-12.1-4.8-16.1c-0.3-0.1-0.5,0-0.7,0.2
		l-0.4,2.8c-0.6,3.3-1.3,6.5-3,9.3c-5.6-3-11.4-5.4-18.1-5.9c-5.5-0.5-10.1,1.5-14.7,3.2l-0.1-0.1l-3.6-4.7
		c-1.7-2.3-3.2-4.6-3.7-7.4c-0.1-0.5-0.1-1.2-0.3-1.7c-0.3-0.2-1-0.3-1.2,0.1c-1.3,3.2-2.3,6.6-2.7,10.2c-0.5,4.3,1.7,7.6,2.9,11.3
		C59.4-6,59.3-4.1,59-2.5c-0.6,0.9-1.9,0.4-2.7,1c-1.5,1.1-0.8,3.2-0.9,4.9l0.5,6.1c0.2,2.3,0.1,4.8-0.4,6.9
		c-0.1,6.6,4.5,11.3,6.8,17c0.5,0.7,1.2,1.1,2,1.3c0.9,0.3,1.9,0.1,2.6-0.2c0.8,1,0.3,2.5,0.8,3.6l0.6,0.8l3.7,5.6
		c1.6,2.4,3.3,4.7,5.6,6.8c2.7,0.3,4.6,2.9,6.3,4.8c0.2,0.1,0.4,0.1,0.5,0c0.7-0.4,0.6-1.2,0.8-1.9c0.1,0,0.2,0,0.2,0.1l4.1,4.1
		c1.4,1.3,2.9,2.3,4.7,2.7c0.3,0.1,0.7,0.1,0.9-0.2l0.2-1.8c2.6,1.6,5,3.5,8,3.9l1.3,0c0.2-0.1,0.4-0.3,0.3-0.6
		c-0.5-2.1-1.4-4-1.5-6.3c0.3,0.7,1.1,1.2,1.7,1.5c1.2,0.2,0.8-1.2,1.2-1.8c-1.4-3.1,0.9-5.8,0.4-9l3.5-4.7l0.1-0.4
		c-2.6-4,0-8.4,2.3-11.7l0.1-0.1l1.9,0.9c0.2,0.1,0.4,0,0.6-0.2C115.9,29.1,114.5,28.1,113.5,27z M105-22.1c1.7,2.2,2.7,4.8,3,7.6
		c0.2,3.2-0.7,6.1-2.2,8.6l-0.3-0.3l-4.1-4.9C103.8-14.2,104.5-18.1,105-22.1z M58.5-12.1c0.1-0.5,0.3-1.1,0.6-1.6
		c-0.4,0-0.7-0.1-1-0.3c-1.1-1.5-1.1-3.7-0.8-5.6c0.3-2.2,1-4.3,1.8-6.3c1,2.7,2.3,5.2,3.9,7.6c1.9,2.4,4.2,4.6,6.2,7
		c0.8,2-0.4,3.7-1.8,5.1c-1.2,1.1-3,1.5-4.6,1C60.1-6.6,59.6-9.6,58.5-12.1z M109.3,31.6c-0.3-0.3-0.4-0.8-0.3-1.2
		c0.2-0.4,0.6-0.8,1-1c0.4,0.2,0.8-0.4,1,0.1C110.7,30.4,109.9,30.9,109.3,31.6z M103.7,33.4c-0.5,0-1,0.1-1.5,0.2
		c0-0.3,0.2-0.5,0.3-0.7c0.9-0.6,2.9-0.6,2.5-2.3c0.3-0.6,0.1-1.4-0.2-1.9c-0.6-0.7-1.4-1.2-2.1-1.7c-1.1-2.3-1.3-5-2.2-7.5
		c0.8,0.5,1.9,1,3,0.7c0.6-0.1,0.7-0.7,1.1-1c0.9-0.8,2.5-1.5,2-2.9c0.3-0.3,0.4-0.6,0.4-1c-0.9-1-1.1-2.2-1.3-3.4
		c0.4-0.4,1.3-0.1,1.7-0.7c0-0.6-0.6-1-1-1.2c-2.5,1.2-2.9,4.1-4.8,5.9c-0.5,0.5-1.1,0.8-1.7,1c-0.5-0.3-0.8-1.1-1.5-0.9l-0.2,0.3
		c-0.5-0.4,0.2-1.3-0.6-1.5c-0.5,0.4-0.6,1.1-0.5,1.7c-0.2,0.9,0.9,1.1,1.2,1.8c2.4,3,1.5,7.5,3.6,10.6c0.3,1.3,0.4,2.9-0.7,3.8
		c-0.4,0.4-0.9,0.5-1.5,0.4c-2.1-0.5-3.2-3.4-5.4-3.8c-0.7,0-1.3,0.4-1.8,0.9c-0.2,0-0.4,0-0.5-0.1c-0.4-0.6-1-1.2-0.8-2
		c0.5-1.1,1.8-1.1,2.5-1.9c0-0.6-0.7-0.9-1.1-1.2c-2.7-0.1-3.6,4.3-6.5,3.5c-2.4-3.6-6.4-4.7-10.4-4.9c0.2,0.3,0.2,0.7,0.2,1.1
		c-0.5,1.1-2.1,1.3-2.1,2.6c0.3,0.1,0.7,0,1-0.1c1.3-0.4,2.8-1.6,4.2-0.5c2.3,4.7,8.6,2.4,10.7,7.3c0.5,0.3,1,0.5,1.5,0.8
		c1.2,0.7,2.7,1.8,4.1,0.9c0.6-0.5,1.3-1,1-1.8c-1.8-1.3-4.3-0.7-6.1-2.1L88,30.3c0-0.3,0.3-0.6,0.6-0.8c0.4-0.2,0.8-0.3,1.3-0.3
		c0.8,0.9,1.3,2.1,2.5,2.7c0.7-0.4,1.5-0.8,2.4-0.5c2.2,0.7,3.3,4.5,6,3.3c0.2,0.6,0.9,1,1.5,1c0.9,0,1.9,0.1,2.4-0.9
		c0.8-1.1,1.4-2.9,3.1-2.8c0.9,0.9-0.2,1.9,0.1,2.8c-0.4,0-0.7,0-1,0.1c0.6,2.4,3,5.1,0.9,7.6c-1.1,1.3-3.3,2.1-3.2,4
		c-0.5,1.1-0.7,2.3-1.4,3.4c0.2-0.6,0.2-1.5-0.3-2c-0.7-0.8-1.6-1.2-2.5-1.6c-0.1,0-0.2,0.1-0.3,0.1l-1-1.6
		c-0.8,0.5-0.2,1.7-0.6,2.5c-0.4-0.3-0.8-0.8-1.2-1.2c-0.5,0.6-1.2,1-2,0.8c-0.3-0.1-0.5-0.3-0.7-0.5c-1.2,0.5-1.8,2.7-3.4,1.9
		c-0.2-0.3-0.4-0.6-0.8-0.7c-0.8-0.1-1.3,0.6-2.1,0.7c-3.2-3.2-7.6,1-11.1-1.6l-0.5-0.5c-0.1,0-0.1,0.1-0.2,0.1
		c-2.2-2.1-6.1-4.4-4.6-7.8c0.9-1.9,1.8-4.4,0.8-6.5c-1.6,1.9-0.4,5-2.1,6.8c-0.1,0.1-0.3,0-0.5,0c-0.7-3.8-3.6-6.7-3.2-11l-0.4-0.4
		c-1.1,1.6,0.4,5.4-2.8,5c-2.2-1.8-1.4-4.8-2.9-6.9c-3.3-2.7-4-6.5-3.9-10.6l0.3-6.9c0-2-0.3-4-0.9-5.8c0.2-0.9-0.5-2.2,0.6-2.7
		c2.4,0.5,4,3,6,4.4c4.1,4.1,0.6,11.4,4.1,15.7h0.4c0.7-2.4,1.7-4.9,4-6.5C70.8,8.4,69,3.9,69.3-1.2c0.4-3.1,1.9-6.2,4.9-7.8
		c6-1.9,10.8,1.9,15.3,5.1c2.6,2.5,3.5,5.7,5.6,8.3c1.3-2-0.1-4.3-0.4-6.3C94.2-4,93.3-6,92.7-8.1c0.8-0.1,1.5,0.4,1.9,1
		c0.8,1.4,1.1,3,1.8,4.4c0.7,2.4,1.2,4.9,1.7,7.3c1.4-1.8,2.1-4.6,4.6-5.4c0.7-0.3,1.8-0.5,2.6-0.1c1.1,0.5,1.9,1.6,2.3,2.7
		c0.6,1.8-0.9,3.8,0.5,5.3c-0.4,2.9-0.7,6.3,0.1,9.1c0.5,1.6,1.4,3.1,2.8,4.3l0.6,5.8C108.6,27.7,105.7,30.5,103.7,33.4z
		 M103.1,29.4h0.4v1.5h-0.2L103.1,29.4z M102.3,17.7l0.4-0.8c0.2,0.1,0.3,0.4,0.2,0.7C102.7,17.7,102.5,17.7,102.3,17.7z
		 M104.2,14.3c0.1-0.1,0.2-0.2,0.3-0.2c0.5,0,1,0.2,1.2,0.6c0.1,1.3-0.3,2.3-1,3.3l-0.6,0C104,16.8,103.6,15.4,104.2,14.3z
		 M84.4,28.9c-1.8,0.4-3-1.2-4.1-2.5C81.9,26.6,83.6,27.4,84.4,28.9z M112.2,13c-0.3,1.4-0.1,3-1.5,3.9l-0.3-0.8
		c1.1-3.4,2.1-7.2,1.4-11c-0.2-0.3-0.4-0.3-0.7-0.2c-0.5,0.4-0.5,1.1-0.7,1.7c-0.5,2-0.2,4.3-1.2,6.1c-0.4-0.4,0.1-0.9,0.2-1.4
		c0.8-2.1-1.4-4.2,0.3-6.1c1.2-0.9,1.6-2.4,2.9-3.1h0.3c-0.3,1.2-0.6,2.6-0.6,4L112.2,13z"/>
	<rect x="105.4" y="-19.4" fill="#720018" width="0.2" height="1.5"/>
	<polygon fill="#720018" points="58.5,-19 58.7,-17.2 58.6,-19 	"/>
	<polygon fill="#720018" points="104.6,-13.6 105,-15.2 104.6,-15.8 	"/>
	<path fill="#720018" d="M59.6-12.3c-0.1,1.2,0.7,2.1,1.3,3C60.5-10.3,60.7-11.7,59.6-12.3z"/>
	<path fill="#720018" d="M103.5-11.5l-0.2,0.9C103.7-10.8,103.5-11.3,103.5-11.5z"/>
	<path fill="#720018" d="M95.8,9.1C95.3,10.3,96,12,95,13c-0.3,0.3-0.8,0.3-1.2,0.2c-3-4.2-5.1-8.7-9.1-12.5
		c-2.9,0.5-4.7-2.1-6.9-3.3c0.5,3.4,4,5.6,6.5,7.6c1.9,2.4,3,5.1,4.9,7.5c1.1,1.3,2.3,2.7,3.9,3c1,0.2,1.9-0.1,2.5-0.9
		c0.5-1.3,1.2-2.6,1.1-4.1C96.3,10.1,96.7,9,95.8,9.1z"/>
	<path fill="#720018" d="M105.2,4.8c-0.4,0.4-1,0.5-1.5,0.4c-1.8,2.5-2.7,5.5-3.7,8.3c-0.3,0-0.5-0.1-0.7-0.4
		c-0.4-0.9,0.6-1.9-0.1-2.7l-0.3,3.3c0.5,0.5,1.2,0.7,1.8,0.6c2.3-2.3,3-5.5,5.8-7.5c-0.4-1.6,1.1-3.5-0.3-4.8
		C105.9,3,106,4.1,105.2,4.8z"/>
	<path fill="#720018" d="M91.6,3.2c0-0.2-0.4-0.3-0.5-0.1l0.6,1C91.8,3.7,91.6,3.5,91.6,3.2z"/>
	<path fill="#720018" d="M100.8,5.2c-0.2,0.7-0.9,1.2-0.9,1.9c0,0.3,0,0.5,0.2,0.7C100.7,7.1,100.9,6.2,100.8,5.2z"/>
	<path fill="#720018" d="M61.8,20.5c-0.3-0.2-0.4-0.5-0.5-0.7c-0.2-1.5-0.5-3-0.7-4.5c-0.2-1.6-0.4-3.5,0.3-4.8
		c1.2,0.7,1.3,2.1,2,3.1h0.1c0.2-3.1-1.7-5.7-4.2-7.5c-0.2,2.3-0.5,5.1,0.3,7.3c0.3-0.7,0-1.6,0.3-2.2c1.8,2.2,0.2,5.4,0.7,8
		c1.2,1.8,2.4,3.7,3.2,5.8c0.1,0,0.2,0,0.4,0c0.1-1.9-0.3-4.1,0.4-5.8c-0.3,0-0.4,0.1-0.6,0.3C62.7,19.6,62.5,20.4,61.8,20.5z"/>
	<path fill="#720018" d="M91.5,18c-0.3-0.1,0-0.4,0-0.5l-1.4-0.4c-0.4-0.1-0.5-0.5-0.7-0.8l-3-5c-1.3-2.1-3.2-4.4-5.5-5.3
		c-0.2,0.8-1.2,1.1-1.6,1.8c-0.1,0.2-0.1,0.5,0.1,0.7c0.4-0.2,0.8-0.4,1.2-0.5c0.6-0.1,1.3,0,1.7,0.6c-0.7,1.6-1.7,3.1-2.4,4.8
		c-2.1-0.6-2.1-3.9-4.6-3.6c-0.1,0.3-0.3,0.6-0.2,0.9c0.5,0.6,1.3,0.5,1.8,1c2.8,4.4,7.3,8,12.4,8.2c0.1-0.4-0.3-0.6-0.4-0.9
		c1-1.4,1.8,0.9,3,0.3c0.4-0.5,1.4-0.8,0.9-1.5C92.3,17.5,92,18.4,91.5,18z M84.4,17.4c-0.1,0.2-0.4,0.2-0.6,0.1c-0.7-0.5-1.8-1-2-2
		c-0.5-1.8,0.2-3.6,1.1-5.1c0.5-0.2,1.1,0,1.5,0.3c0.5,0.5,0.8,1,1.2,1.5C83.6,13.3,84.9,15.7,84.4,17.4z M87.4,17.9
		c-0.3-0.1-0.6-0.2-1-0.2c0.2-0.4,0.5-1,1-1.1c0.3,0,0.5,0.1,0.6,0.3C88.2,17.4,87.6,17.5,87.4,17.9z"/>
	<path fill="#720018" d="M76.3,13.4c-0.2,0-0.4-0.1-0.6,0c-0.2,0.1-0.3,0.4-0.2,0.6c0.4,0.7,1.4,0.3,2.1,0.6v-0.4
		C77.2,13.7,76.8,13.6,76.3,13.4z"/>
	<path fill="#720018" d="M107.5,17.9c-0.9,0.6-1.1,1.6-1.3,2.5c0.7-0.1,0.9-1,1.7-0.8c0.5,0,0.9,0.4,1.2,0.8
		C108.9,19.4,108.5,18.3,107.5,17.9z"/>
	<path fill="#720018" d="M81,18.5c1.6,0.9,3.1,2.5,5.1,1.9l-0.8-0.3C83.9,19.5,82.7,18,81,18.5z"/>
	<path fill="#720018" d="M98.1,22.3c0.1,1.9-0.2,4.1,1.1,5.6C98.7,26,99.1,23.8,98.1,22.3z"/>
	<path fill="#720018" d="M70.2,28.5c1-1.9,0-4-0.6-5.7L70.2,28.5z"/>
	<path fill="#720018" d="M82.6,42.5c0.4-0.2,0.9-0.2,1-0.7c2.3-4.5,8.2-1.6,11.6-4.4c2.5,0,4.8,0.5,6.7,2.1c1.1,0.3,1.3,1.5,1.9,2.2
		c0.3,0.2,0.6,0.4,1,0.4c0.9-0.4,0.5-1.3,0.6-2.1c-2.5-2.8-5.9-3.5-9.6-3.3c-1.3,1-2.8,1.7-4.6,1.5c-4.3-0.6-7-4.9-11.3-5.4
		c-1-0.1-1.9,0.1-2.7,0.3c0-0.1,0-0.2,0.1-0.3c0.7-1.8,2.8-1.5,4.4-1.7c0,0.3,0,0.5,0.2,0.7c0.5,0.3,1.2,0.2,1.6-0.1
		c-0.4-0.1-0.8-0.3-1.2-0.4l0.1-0.8c-1.2-0.4-2.8-0.3-4,0c-1.8,1.1-2.3,3.1-3,4.8c-0.1,2.3-0.9,5.2,0.7,7
		C77.8,43.6,80.6,43.2,82.6,42.5z M83.8,35.5c0.5,0,0.7,0.6,1.1,0.8c-0.2,0.2-0.5,0.2-0.7,0.1c-0.2-0.1-0.4-0.3-0.5-0.5
		C83.6,35.8,83.6,35.6,83.8,35.5z M80.1,33.8c0.9,0.1,2,0.1,2.5,0.9c0.3,0.4,0.2,1.1-0.1,1.5c-0.5,0.5-1.4,0.4-2,0.3
		C80,35.8,79.7,34.7,80.1,33.8z M76.6,35.4c0.3-0.8,1.2-1.3,1.9-1.6c0.2,0.1,0.3,0.3,0.4,0.5c0.1,0.7-0.2,1.3-0.1,2
		c-0.6,0.2-1.5,0.4-2.1,0C76.5,36.1,76.5,35.7,76.6,35.4z M76.7,37.8h1.7c0.3,0.5,0.7,1.1,1,1.6c0.2-0.8,1-1.4,1.8-1.6l1.4,0
		c0.8,0.6-0.7,1.6,0.4,2.1c0.2-0.6,0.5-1.2,1-1.6c0.8-0.6,1.7-0.7,2.7-0.7c-1.2,0.8-1.8,2.7-3.4,2.8c-0.2-0.2-0.1-0.7-0.5-0.6
		c-0.5,0.8-0.7,2.3-2.1,2.1c-0.3,0-0.6,0.1-0.7-0.1c-0.4-0.5-0.2-1.3-0.7-1.8c-0.3,0.6-0.5,1.2-0.8,1.8c-0.5,0.1-1,0-1.4-0.3
		c-1-0.8-1.1-2.3-0.7-3.4C76.2,37.9,76.5,37.9,76.7,37.8z"/>
	<path fill="#720018" d="M91.4,40.5c-1.4,0.9-3.3,1.6-4,3.3c0.2-0.3,0.6-0.1,1-0.2c0.4,0,0.4-0.5,0.7-0.6c1.5-0.9,3.5-0.5,4.9-1.6
		c0.3-0.4,0.4-1,0.3-1.5C93.3,40,92.4,40.4,91.4,40.5z"/>
</g>
</svg>
