<?xml version="1.0" encoding="utf-8"?>
<!-- Generator: Adobe Illustrator 19.1.0, SVG Export Plug-In . SVG Version: 6.00 Build 0)  -->
<!DOCTYPE svg PUBLIC "-//W3C//DTD SVG 1.1//EN" "http://www.w3.org/Graphics/SVG/1.1/DTD/svg11.dtd">
<svg version="1.1" xmlns="http://www.w3.org/2000/svg" xmlns:xlink="http://www.w3.org/1999/xlink" x="0px" y="0px"
	 viewBox="33 -33 100 100" enable-background="new 33 -33 100 100" xml:space="preserve">

<g id="AREA_2">
	<g>
		<path fill="#FDBB2D" d="M82.8-24.1c0.6-0.2,0.9-0.8,1.1-1.3c-0.6-0.1-1,0.4-1.5,0.7C82.1-24.3,82.6-24.2,82.8-24.1z"/>
		<path fill="#FDBB2D" d="M85.9-24.2L85.9-24.2c-1.4,0.1-2.1,1-3.2,1.6l0.1,0.3c-0.3,0.4-0.8,0.7-1.2,0.6c0.6-0.6,0.8-1.4,1.5-1.8
			l-1.1,0.2c-0.2-0.1,0.1-0.6-0.3-0.5c-0.3,0.5,0.2,1.3-0.5,1.5c0.1,1.3-1.3,0.3-1.2,1.5c-0.7-0.5,0.6-1.1,0.3-1.9
			c-0.4,0.6-0.9,0-1.3,0.4c0.3,0.3-0.2,0.6-0.3,0.7c-0.4-0.2,0.1-0.8-0.3-0.9c-0.2,0.1,0,0.4-0.2,0.6c-0.8-0.5-1.2-0.2-1.7,0.5
			c-0.2,0-0.5,0.1-0.6-0.2c-0.6-0.1-0.1,0.7-0.5,0.8c-0.2-0.2-0.3-0.4-0.4-0.6c-0.1,1.2-0.5,3,0.1,4.2c0.3,0.1,0.4-0.1,0.6-0.2
			c0.5-0.4,1.3-1.5,2.2-1c0.6-0.1,0-0.8,0.6-0.9c0.6,0.1-0.1,0.7,0,1.1l0.5,0c0.5-0.3,1-0.6,1.2-1.2c0.3,0,0.1,0.4,0.4,0.4
			c0.6-0.1,1.2,0.5,1.9,0.2C83.5-20.6,85.1-22.2,85.9-24.2z"/>
		<path fill="#FDBB2D" d="M80.4-12.9c0.1,0.5-0.6,1.2,0.2,1.5c0.4,1.5,1.3,2.9,1,4.6c1.4,0.9,2.3,2.5,4.2,2.5c0.8-0.5,1.1-1.5,2-1.9
			c0.8,0.8,2.1,0,3.1-0.2L91-6.2c-0.7,0.2-1.3,0.8-2.1,0.8c-0.4,0.5-0.9,1-1.2,1.7C87.8-3.4,88.2-3,88.6-3c0.9,0.1,2.9-1,2.9,0.6
			c0.9,0.8,1.5,2,2.4,2.2l0.1-1.2c-1-0.8-0.2-1.7-0.2-2.6c-0.9-0.1-0.2,0.9-0.7,1.4c-0.8-0.5-0.1-1.3,0-2.1
			c-0.4-0.5-0.9-0.9-1.3-1.2L91.8-6c0.4,0.1,0.9-0.2,1.2,0.3c1.1,0,0.9,1.2,1.5,1.9c0.2-0.1,0.5,0,0.7-0.2c0.1-0.6-0.6-1-0.9-1.4
			c-1-2.2-2.3-4.5-4.2-6.1c0-0.7,0-1.4-0.2-2c-0.3,0-0.7-0.5-1,0c0.2,0.4,0.6,0.8,0.4,1.3c-0.4,0.2-1.4-0.5-1.3,0.5
			c0.3,0.6,0.8,0.7,1.2,1.3c-0.5,1.2,1.2,1.8,1.9,2.5c0.1,0.4,0.6,0.5,0.2,0.8c-1-1.2-2.6-1.9-3.2-3.3c-0.1-0.2-0.5-0.2-0.6,0.1
			c-0.1,0.3,0.4,0.5,0.4,0.7c-0.4,0.4-0.8-0.4-1.3-0.4c0.2-0.2,0-0.5-0.1-0.6c-0.2-0.2-0.6-0.1-0.7,0.1c-0.7-1.2-1.3-2.4-2.5-3.3
			l0.1-0.1c0.8,0.6,1.6,0.8,2,1.7c0.5,0,1.4,0.2,1.7-0.4c0.1-0.5-0.7-0.2-0.7-0.7l1.1-0.3c0.8-1.2-0.8-1.4-1.3-2
			c-1-0.7,0.1-1.2-0.1-2.1c1.3-1-0.7-1.4,0.2-2.6C85.6-20,84.8-19,84.5-18c0.3,1.2-1.6,1.4-0.8,2.5c0.6,0.3,1.1-0.1,1.6-0.2
			c0.1,0.1,0.2,0.2,0.2,0.3c-0.7,1-1.7,0.2-2.5,0.2c-0.2,0.3,0.4,0.6-0.1,0.7c-0.4-0.3-0.5-0.8-0.7-1.2c-1,0.1-1.1,1.3-1.6,2l-0.1,0
			C80.7-13.5,80.4-13.2,80.4-12.9z M89.7-10.9c1.2,1.1,2,2.5,2.7,3.8l-0.1,0.1C91-8.1,90.8-9.8,89.7-10.9z M86.9-7l1.5-1
			C87.5-7.3,87-6,86-5.4C85.8-6,86.6-6.6,86.9-7z M82.1-9.5l-0.3,0c0.4-1.3,0-2.8-0.2-3.9C82.4-12.3,82.3-10.9,82.1-9.5z"/>
		<path fill="#FDBB2D" d="M74.1-19c-0.6-0.6-0.5-1.5-1.2-1.8c-0.7,0.9,0.9,1.3,0.2,2.1c-0.5-0.3-1.1,0-1.1,0.6
			c0.4,1.3,0.9,2.6,0.9,4.1c1-0.6-0.5-2.5,1.1-2.8C74.4-17.5,74.1-18.4,74.1-19z"/>
		<path fill="#FDBB2D" d="M88.2-17.5c0.4,0.3,0.9,0.1,1.2-0.1c0.3-0.5,0.7-1,0.4-1.6c-0.6,0.4-1,1.2-1.9,1.1
			C88-17.8,88-17.6,88.2-17.5z"/>
		<path fill="#FDBB2D" d="M80-17.9c0.2-0.1,0.5,0.1,0.7-0.2C80.4-18.2,80.1-18.1,80-17.9z"/>
		<path fill="#FDBB2D" d="M64.4,18.2c0.2,0.9,0.7,1.9,0.5,2.9c0.4,0.7,1,1.1,1.7,1.3c0.5-0.7-0.1-1.5-0.1-2.2c0.3-0.5-0.5-1.8,0.5-2
			c1.1,1.3-0.1,3.4,1.1,4.6c3.2,0.6,0.2-3,1.1-4.4c0.7,0.7,0.3,2,0.6,2.9c0.3,0.3,0.1,0.9,0.7,0.9c0.6-1.3,0.2-2.6,0.2-3.8l0.2,0
			c0.7,1.1,0.3,2.6,1,3.7c0.8,0.3,1.6,0.3,2.5,0.2l0.1-1.6c-0.8-3,1-5.9,3-8c0.2-0.1,0.6-0.2,0.7,0.1c-1.5,1.6-2.9,3.7-2.8,6
			c1-0.1,1.3-1.7,2.3-1.4c-0.6,1-1.6,1.7-2.2,2.6c-0.3,1,0.2,1.8,0.8,2.6c0.7-0.3,1.5-0.6,2.2-0.8c-0.3,0.7-1.6,0.7-1.4,1.6
			c0.5,0.2,1.3-0.4,1.7,0.3c-0.6,0.9-1.9,0.1-2.8-0.1c-1.3,0-2.1-0.5-3.4-0.6c-0.6,0.1-1.3,0.2-1.6,0.9c-0.1,0.7-0.7,1.6,0,2.3
			c-0.8,1.4-0.4,3.8-0.4,5.5l0.8-0.4c0.6,1.1-1.3,2.1-0.2,3.1c0.8-2.9,3.3-5,3.6-8.3c0-0.2,0.2-0.4,0.5-0.3c0.3,0.6,0.1,1.4,0,2.1
			c0.3,1.3,1.8,0.3,2.5,1.3c0.1,0.3,0.8,0.7,0.2,1c-1.2-0.1-1.7-1.8-3.2-1c-0.3,0.3,0.2,0.6,0.4,0.8c1.1,0.2,2.1,0.8,3,1.2
			c1.7-1,2.1-3.1,3-4.7l-0.2-0.2c0-0.5,0.1-1,0.6-1.2c0.2-0.8-0.1-1.5-0.2-2.1c0.3-0.1,0.3,0.3,0.5,0.3c0.6-0.7-0.1-1.3,0-2.1
			c-0.2-0.6-0.6-1.3-0.4-1.8c1.3,0.4,0.9,1.9,1.3,2.8c0.1,0.5-0.4,1.9,0.7,1.9c0.1,1.1-0.4,2.2-1,3.1l0-1c-1,0.7-1,2.2-1.5,3.3
			c0.5,1.2-0.7,2.2,0,3.4c1.3,0.7,3,0.6,4.4,0.9c2.2,0.2,3.9-1.7,5.3-3l-0.1-0.1l0.4-0.4c0.9-2.5,1.2-5.9-0.6-8.2
			c-0.1-0.4-0.4-1,0-1.4c0.2,0,0.2,0.2,0.3,0.3c0.2,0.2-0.1,0.3,0.1,0.5c1.3,1.3,1.3,3.3,1.5,5.1c1.1,1.2,1.3,2.8,1.7,4.4
			c0.2,0.5,0.7,0.7,1.1,0.3c0.7,2.6,2.2,4.8,3.8,7.1c0.2,0,0.4,0,0.5-0.2c-0.7-0.7-0.6-1.9-0.8-2.8c0-0.3,0.3-0.2,0.5-0.4
			c0.9,1.9,2.1,3.8,1.6,6.1c0.8,1.4,1.2-0.9,2.2-0.1c-0.1,0.4-0.6,0.3-0.8,0.6c-0.3,0.6,0.5,1.1,0.5,1.7c0.5,0.3,0.9,1.2,1.7,1
			c0.6,0,0.5-0.7,0.7-1.1c-0.3-1.1-1.1-2-1.3-3.1c-0.4-1.2-2.1-1.8-1.7-3.2c-2.2-4.1-3.6-8.6-5.8-12.8l0.2-0.8
			c-1.6-2.8-3.8-5.7-6.8-7c-1.9,0.1-2.5-2.3-4.3-2.8c-1.7,0.2-1.4-2.6-2.8-2.6c0.6,2.1,0.8,4.4,0.2,6.5l-0.3,0
			c-0.2-1.9,0.1-4-0.5-5.7c-0.3-0.8-0.4-1.6-0.8-2.4c-1.1-1.2-0.8-3.7-2.6-3.9c0.1,0.3-0.1,0.6-0.3,0.7c0,1.5-0.2,3.4-1.1,4.7
			c-0.1,0.4-0.7,1.1-0.6,1.6c0.2,0,0.1-0.2,0.3-0.3c0.2,0,0.4-0.1,0.5,0.1c-0.9,1.1-1.5,2.5-2.8,3.3c-0.4-0.7,0.7-1.1,0.5-1.8
			l-0.9,0.2c0.7-0.9,1.3-1.9,1.8-3c0.1,0,0.1-0.1,0.2-0.2c1.6-1.2,1.3-4,1.2-5.9c0.2-0.6-1.1-1.4,0.1-1.7c0.2-0.5,0.2-1.2,0.1-1.8
			c0.3-1.7,0.7-3.1,1.4-4.6C79-4,79.5-4.6,78.8-4.9c-0.7-0.3-1-0.9-1.6-1.2c-0.5,1-1.5,2.2-2.3,3L74.9-3l-0.7,0.8
			c-0.9,2.9-2.7,5.6-3.6,8.4c-0.6,1.3-0.8,2.8-0.9,4.3c0,0,0,0,0,0c-0.1,0.7-0.1,1.4-0.3,2.1l0.5,0c0.3-0.7,0.9-1.4,1.4-2.1
			c0,0,0,0,0,0c0.4-0.5,0.7-1,1-1.5l0.2,0c-0.2,0.5-0.4,1-0.7,1.5c0,0,0,0,0,0c-0.7,1.2-1.6,2.3-1.9,3.6c-0.2,0.4-0.4,1-0.8,1.1
			c-0.6-1.4-0.4-3.2-0.4-4.7c0,0,0,0,0,0c0-0.2,0-0.4,0-0.6c1.8-5.7,3.5-11.5,7.9-16c0.3-0.5,0.3-1.1,0.9-1.5
			c0.8,0.2,0.9,1.2,1.6,1.7l0.2-0.2c-0.9-0.9-1.3-2.2-1.2-3.4c0.1-0.3,0.4-0.2,0.6-0.4c0.2-0.9,0.1-1.7,0-2.5
			c-0.7,0-0.5,0.9-1.1,1.2c-1-0.1-0.7,1.7-1.9,1.5c-3.1,3-5,6.5-7,10c-0.3,1.7-1.3,3.5-0.9,5.2c-0.5,1-0.1,2.5-0.2,3.6l0.2,0
			c0.1,0.4,0.1,0.9,0.1,1.4c0,0,0,0,0,0c0,0.7-0.1,1.5,0.1,2.1c-0.1,0-0.2,0.2-0.3,0.2c-0.2-0.8-0.4-1.5-0.6-2.3c0,0,0,0,0,0
			c-1.2-6.9,1.5-13.9,6.2-19c0.2-0.7,0.8-1.4,1.4-1.8c0.7-1.2,2-2.2,2.9-3.3c-0.2-0.7,0-1.8,0.6-2.3c0.5,0.6-0.6,1.3-0.2,1.9
			c0.7-0.7,1.5-1.5,2.6-1.6c0.6-0.4,1.4-0.6,1.4-1.4c-0.8-1.2-1.8,0.5-2.7-0.1c-0.1,0.2-0.3,0.2-0.5,0.2c-1.2,0.1-1,1.5-2.3,1.4
			c-0.4,0.8-1.6,0.9-1.7,1.7C72.1-11.3,71-7.7,69-4.5c-0.2,0.3,0.2,1-0.4,1.2c-0.5-0.4,0.3-0.8-0.1-1.1c-0.4,0.6-0.9,1.2-1.1,1.9
			c0.1,0.8-0.3,1.6-0.8,2.2c-0.2,2.6-0.9,5.3-0.9,8l-0.6,0.6c0.1,0.5-0.3,1.5,0.3,1.9l0,0.2l0,0l-0.2,2.8
			C63.6,14.5,64.7,16.4,64.4,18.2z M72.2,25.4c-0.1-0.2,0.1-0.4,0.3-0.5c0.4,0.2,0.8,0.5,1.2,0.5C73.3,25.5,72.7,25.9,72.2,25.4z
			 M90.1,17.8c0.1,0.3-0.1,0.5-0.2,0.7c-0.4,0-0.3-0.6-0.4-0.8C89.5,17.2,90.1,17.5,90.1,17.8z M90.3,28.3c-1.7,0.6-2.8,2.6-4.6,3.1
			C87,30.1,88.4,28.4,90.3,28.3z M79.8,25.2c0.6,0.2,0.3,1.2,0.5,1.6c-0.1,0.5-0.3,1.1-0.5,1.5C79.6,27.3,80,26.1,79.8,25.2z
			 M73.2,10.3c0.6-0.5,1.3-1.4,2.2-1.4c-1.3,0.8-2.6,2.5-3,4.2c0.1,0.2,0.2,0.2,0.3,0c0.5-0.8,1.2-1.6,1.8-2.1
			c-1,1.4-1.9,2.8-2.4,4.4l-0.4,0.3C70.8,13.7,72,11.7,73.2,10.3z"/>
		<path fill="#FDBB2D" d="M86.2-16.3c0.1,0.4,0.6,0.7,1,0.5l0-0.3C87.1-16.5,86.4-16.6,86.2-16.3z"/>
		<path fill="#FDBB2D" d="M65.6-16c0.1,0,0.3,0.1,0.4-0.1c-0.2-0.3-0.1-0.9-0.7-0.9C65.3-16.6,65.2-16.2,65.6-16z"/>
		<path fill="#FDBB2D" d="M91.1-14.8c0.2-0.1,0.5,0,0.6-0.3c-0.2-0.8-1.2-0.2-1.8-0.3C89.9-14.8,90.7-15,91.1-14.8z"/>
		<path fill="#FDBB2D" d="M69.1-16c0.1-0.3-0.1-0.4-0.4-0.4l0.1,0.5C68.9-15.9,69-15.9,69.1-16z"/>
		<path fill="#FDBB2D" d="M72.2-15.1l-0.4-0.6c-1,0,0.1,1.3-0.8,1.4c0-0.3-0.2-0.5-0.2-0.8c-0.3-0.1-0.8-0.3-1,0
			c-0.2,0.2,0,0.5,0,0.7c-0.5,0.6,0.1,1.5-0.2,2.1c-0.4-0.5-0.7-1-0.8-1.6c-0.2-0.2-0.7-0.5-1-0.1c-0.2-0.4-0.6-0.7-0.7-1.2
			c-0.8,0.1,0.1,1-0.3,1.6c1,0.4,0.4,2,1.6,2.2c0.6,0.1,1.6,0.3,2.2,0.2c0-1-0.7-1.9-0.5-2.8c0.8,0.4,0.3,2.2,1.8,1.7
			C72.6-13.3,71.9-14.2,72.2-15.1z M71.6-12.8l-0.1-0.5c0.1,0,0.1,0,0.2,0.1C71.7-13.1,71.7-12.9,71.6-12.8z"/>
		<path fill="#FDBB2D" d="M79.8-7.2c0.6-1.1,0-2.1,0-3.3c-0.4-1.7,0.5-3.2,0.7-4.6c-0.5,0.6-0.7,1.3-1,2c-0.5,1.8,0.2,3.4-0.2,5.2
			C79.4-7.7,79.4-7.2,79.8-7.2z"/>
		<path fill="#FDBB2D" d="M86.9-11.7l0.1,0.2c0.2,0,0.4,0,0.5-0.1c0-0.1,0-0.2-0.1-0.3C87.2-12.1,87-11.8,86.9-11.7z"/>
		<path fill="#FDBB2D" d="M66.8-11.5c-0.5,0.5,0,1.2-0.2,1.7c0.2,0.5,0.7,0.7,1.1,1.1c0.4,0.1,1,0.1,1.4-0.1l-0.2-0.6
			C67.8-10,67.6-10.9,66.8-11.5z"/>
		<path fill="#FDBB2D" d="M65-10.1l0-0.3c-0.1-0.3-0.3-0.6-0.7-0.6C64.4-10.6,64.5-10,65-10.1z"/>
		<path fill="#FDBB2D" d="M65.7-7.4c0.1,0.7,1,0.6,1.5,0.9l0.2-0.2C67-7,66.2-7.5,65.7-7.4z"/>
		<path fill="#FDBB2D" d="M64.1-7L64-6.7c0.6,0.5,1,1.3,1.8,1.3l0.1-0.3C65.7-6.4,64.9-6.8,64.1-7z"/>
		<path fill="#FDBB2D" d="M68.6-5c0.4-0.2,0.4-0.7,0.4-1.1C68.6-6,68.6-5.5,68.6-5z"/>
		<path fill="#FDBB2D" d="M94.6-2.8c0.1,0.3,0.5,0.3,0.6,0.4c0.1-0.1,0.3-0.2,0.2-0.4C95.3-3.2,94.5-3.5,94.6-2.8z"/>
		<path fill="#FDBB2D" d="M96.1-1.6c0.1-0.3,0.3-0.8-0.1-1c-0.2,0.2-0.7,0.7-0.4,1.1C95.8-1.5,96-1.4,96.1-1.6z"/>
		<path fill="#FDBB2D" d="M88.5-2.2C88.6-2,88.7-2,88.9-1.9c0.2-0.1,0.7,0,0.5-0.4C89.1-2.5,88.5-2.6,88.5-2.2z"/>
		<path fill="#FDBB2D" d="M92.3-0.1c-0.4-0.4-0.6-1.2-1.3-1.3l0.5,0.8c0.4,0.2,0,1,0.7,0.9C92.2,0.2,92.4,0.1,92.3-0.1z"/>
		<path fill="#FDBB2D" d="M90.7-0.6l-0.1,0.3c0.3,0.2,0.1,0.8,0.6,0.6C91.3-0.1,91-0.4,90.7-0.6z"/>
		<path fill="#FDBB2D" d="M91.2,0.6c-0.2,0.3-0.1,0.7,0.3,0.8l0.2-0.1C91.5,1,91.6,0.4,91.2,0.6z"/>
		<path fill="#FDBB2D" d="M62.6,0.2l-0.1,0.2l0.3,0.1l0-0.2C62.7,0.4,62.6,0.3,62.6,0.2z"/>
		<path fill="#FDBB2D" d="M81.6,3.2c0.3,0,0.6-0.2,0.7-0.3c-0.1-0.2-0.2-0.4-0.5-0.3C81.8,2.8,81.3,3,81.6,3.2z"/>
		<path fill="#FDBB2D" d="M78.7,2.7c0,0.4,0.4,0.5,0.2,0.9c0.3,0.1,0.8,0.3,0.9-0.2C80.2,2.9,79.1,2.9,78.7,2.7z"/>
		<path fill="#FDBB2D" d="M81,4.2c-0.3-0.4-0.8-0.3-0.9,0.2c-0.2,0.3-0.2,0.8,0.2,0.9C81.2,5.3,80.7,4.7,81,4.2z"/>
		<polygon fill="#FDBB2D" points="79.2,4.5 79.2,4.3 78.8,4.2 		"/>
		<path fill="#FDBB2D" d="M83,5c-0.9,0-1.4,0.8-2.3,1c-0.1,0.2,0.1,0.3,0.2,0.5c0.3,0.4,0.9,0,1.3,0.1C82.6,6,83.5,5.9,83,5z"/>
		<path fill="#FDBB2D" d="M105.3,7.6c-0.1-0.1-0.2-0.3-0.3-0.2l0,0.5l0.3,0C105.4,7.9,105.3,7.7,105.3,7.6z"/>
		<path fill="#FDBB2D" d="M84.9,8.3c-0.1-0.1-0.1-0.2-0.3-0.2c-0.5,0.5-1.7,0-1.9,0.7C82.7,9,83,9.2,83.2,9.3
			C83.8,8.9,84.6,9,84.9,8.3z"/>
		<path fill="#FDBB2D" d="M104.4,10.6c0.5-0.1,0.2-0.7,0-1l-0.3,0.2C104.1,10,104.1,10.4,104.4,10.6z"/>
		<path fill="#FDBB2D" d="M107.5,10.3c0.1-0.3,0.4-0.3,0.4-0.6c-0.5-0.2-0.8,0.4-0.6,0.6L107.5,10.3z"/>
		<path fill="#FDBB2D" d="M110.8,10.5c0.1,0,0.1-0.2,0.1-0.3c-0.2-0.3-0.3,0-0.3,0.2v0c0,0,0,0.1,0,0.1L110.8,10.5z"/>
		<path fill="#FDBB2D" d="M84,9.6l0,0.2l0.3,0l0-0.1C84.2,9.6,84.1,9.6,84,9.6z"/>
		<path fill="#FDBB2D" d="M83.3,9.8l0.3,0.3c0-0.1,0.1-0.1,0.1-0.2C83.6,9.8,83.4,9.9,83.3,9.8z"/>
		<path fill="#FDBB2D" d="M109.1,13.4c0.2-0.1,0.4-0.4,0.2-0.6c-0.3-0.1-0.6,0.2-0.5,0.6L109.1,13.4z"/>
		<path fill="#FDBB2D" d="M102.1,14.7l0.8-1.6c-0.3-1.1-0.8,0.4-1.5,0c-0.1,0.7-0.8,1.3-0.7,2C101.3,15.1,101.7,15,102.1,14.7z"/>
		<path fill="#FDBB2D" d="M107.7,13.7c-0.1-0.2-0.1-0.4-0.4-0.3c-0.5,0.1-0.8,0.6-1,1.1l0.3,0C107,14.3,107.6,14.2,107.7,13.7z"/>
		<path fill="#FDBB2D" d="M102.2,16.4c1.6,0.4,0.6-1.3,1.7-1.7c-0.1-0.2-0.3-0.5-0.6-0.4c-2.2,2-4.9,2.9-7.6,3.5
			c-0.4,0.2-0.9,0.2-1,0.7c1.8,0.2,3.6-0.3,5.2-1.1C100.5,16.9,101.3,16.3,102.2,16.4z"/>
		<path fill="#FDBB2D" d="M109,15.3c-0.1-0.9-1,0.2-1.4-0.1c-0.4,0.5-1.4,0.3-1.5,1.1C107.2,16.6,108.2,16,109,15.3z"/>
		<path fill="#FDBB2D" d="M97.7,16.6c0-0.4,1.4-1,0.3-1.3c-0.6,0.2-0.9,0.8-1.1,1.4C97.1,17,97.5,16.7,97.7,16.6z"/>
		<path fill="#FDBB2D" d="M62.9,14.1l-0.3,0.1c-0.6,1.5-0.9,3.2-0.7,4.9c0.2,0.3,0.2,0.9,0.6,1c-0.1-1.2,0.1-2.5-0.2-3.7
			C62.6,15.6,63.1,14.9,62.9,14.1z"/>
		<path fill="#FDBB2D" d="M109.9,18c0.3-0.5,1.2-0.7,0.9-1.4c-0.5,0.3-1.4,0.7-1.2,1.4L109.9,18z"/>
		<path fill="#FDBB2D" d="M106.4,18c0.9,0.3,2-0.3,2.4-0.7c-0.8-0.5-1.8,0-2.5,0.4C106.3,17.8,106.2,17.9,106.4,18z"/>
		<path fill="#FDBB2D" d="M104.9,20c-0.5,0.3-1.1,0.2-1.7,0.2l0,0.4l1.2,0.1c1.2-0.5,2.8,0.2,3.6-1c-1.5-0.7-3.6-1-5.2-0.4
			C103.5,19.8,104.3,19.5,104.9,20z"/>
		<path fill="#FDBB2D" d="M104,22.1c0.5,0.4,1.4,0.6,2.1,0.3C105.4,22.1,104.3,21.4,104,22.1z"/>
		<path fill="#FDBB2D" d="M64.6,24c0.3,0.9,1.3,0.9,2,1.3c0.4-0.2,1,0.1,1-0.5c-0.9-0.7-2-0.9-3-1.4L64.6,24z"/>
		<path fill="#FDBB2D" d="M92.9,28.5c0,0.9-0.6,1.8-0.3,2.8c1.5,1,2.2,3.2,3.8,4c-0.1-0.7-0.5-1.3-0.7-1.9
			C93.4,32.4,94.1,30,92.9,28.5z"/>
		<path fill="#FDBB2D" d="M99.4,28.9c0.3,0.5,0.2,1.4,0.8,1.5C100,29.8,99.9,29.2,99.4,28.9z"/>
		<path fill="#FDBB2D" d="M63.3,30.7c-1,1-2.1,2-2.7,3.2c-0.5,0.8-0.1,1.7,0.2,2.4c-0.3,0.4-0.5-0.1-0.8,0.2l0.1,0.7
			c0.3,0.7,1,1.3,1.8,1.1c0.4-0.1,0.4-0.5,0.6-0.8c0.1-1.2,1-2.6,0.2-3.5l2.3-4.8L65,29C63.9,29.2,64.4,31,63.3,30.7z M61.7,37.3
			l0,0.3l-0.3,0l0-0.5C61.7,36.9,61.8,37.1,61.7,37.3z"/>
		<path fill="#FDBB2D" d="M62.9,30.1c-0.1-0.2-0.3-0.2-0.6-0.2c-0.2,0.3-0.3,0.7-0.3,1C62.6,31.1,62.6,30.5,62.9,30.1z"/>
		<path fill="#FDBB2D" d="M92.8,32.9c-0.2-0.2-1-0.4-0.9,0.2c0.8,0.6,1.4,1.3,2.3,1.7C94,33.8,93.3,33.4,92.8,32.9z"/>
		<path fill="#FDBB2D" d="M78.1,34.1c-0.3-0.5-1-1.4-1.6-0.8c-0.1,1.4-0.1,3.3,0.5,4.7c0.4,0.9,0.9,1.9,1.8,2.4
			c0.3-0.5,0.3-1.4,0.2-1.9C78.1,37,77.9,35.7,78.1,34.1z"/>
		<path fill="#FDBB2D" d="M69.8,35.2c-0.6,1.1-1,2.3-1.3,3.5c1-0.9,1.1-2.3,1.5-3.5L69.8,35.2z"/>
		<path fill="#FDBB2D" d="M84.3,37.7c-1.2,0.9-1.9,2.6-2.2,4c0.9-1,1.2,0.4,1.8,0.7c-0.1,0.7-0.7,0.9-0.8,1.6
			c0.1,0.8,1.1,1.3,1.7,1.7c0.1,1.5-1.8,2.2-1.9,3.7l0.3,0c1.1-1.7,3.8-2.5,3.9-4.8c-0.1-1.5-1.8-0.5-2.3-1.6
			c-0.6-0.8-0.9-1.7-0.7-2.6c0.4,0.1,0.2,0.9,0.7,0.8c0.3-0.4,0-1-0.1-1.4C84.4,39.3,84.6,38.4,84.3,37.7z"/>
		<path fill="#FDBB2D" d="M70.5,38.9c-0.8-0.7-1.6,0.6-1.2,1.3c0.9,0.5-0.1,1.3,0.2,2.1l0.2,0c0.4,0,0.2-0.3,0.2-0.5
			C70.9,41.3,70.4,39.8,70.5,38.9z"/>
		<path fill="#FDBB2D" d="M61,38.7c-0.3,0.6-0.6,1.4-0.6,2.1c0.5-0.3,0.6-1,1.1-1.4C61.8,39,61.4,38.6,61,38.7z"/>
		<path fill="#FDBB2D" d="M101,42.1c-0.6,0.2-0.1,0.7,0,0.9c0.3,0.2,0.5,0,0.6-0.2C101.6,42.4,101.3,42.1,101,42.1z"/>
		<path fill="#FDBB2D" d="M68.9,44.1l0,0.9l0.2,0c0.2-0.1,0.1-0.3,0.1-0.4C69.2,44.4,69.3,44,68.9,44.1z"/>
		<path fill="#FDBB2D" d="M67.9,45c-0.4,0.6-0.7,1.4-0.4,2.2l0.3,0c0.6-0.2,0.7-0.9,0.8-1.5C68.4,45.6,68.4,45,67.9,45z"/>
		<path fill="#FDBB2D" d="M58.9,44.7l0,0.3l0.2,0c0-0.1,0.1-0.1,0.1-0.2C59.1,44.7,59,44.7,58.9,44.7z"/>
		<path fill="#FDBB2D" d="M58.7,45.8c0.2,0.6-0.8,0.6-0.7,1.1c-0.6,0.8-0.8,1.4-1.5,2.2c-0.1,0.4,0.1,0.6,0.4,0.9
			c0.7-0.2,1.3-0.3,1.9-0.4c0-1.1,0.5-2.5,0.2-3.7L58.7,45.8z"/>
		<path fill="#FDBB2D" d="M107,48.1c-0.3,0.8,0.8,1.1,0.9,1.9c1.1,0,0,1.1,1,1.1c-0.1,0.8,1.1,1.1,1.2,1.8c0.6,0.4,0.3,1.1,0.6,1.7
			c0.6,0.5,1.2-0.1,1.7-0.4c0.1-0.3-0.1-0.4-0.2-0.7C110.4,52.1,108.4,50.1,107,48.1z"/>
		<path fill="#FDBB2D" d="M81.4,51.2l0.2,0.2c0.6-0.2,0.8-0.9,1-1.4C82.1,50,81.7,50.7,81.4,51.2z"/>
		<path fill="#FDBB2D" d="M56.4,53.9c-0.5,0.6-1.1-0.1-1.6,0.5c0.4,0.6,1.3,0.6,1.8,1.3c1.1,0,1.2-1.2,1.3-2
			C57.6,54,57,53.9,56.4,53.9z"/>
		<path fill="#FDBB2D" d="M79,54.8c-0.6,0.4-1.5,0.5-1.9,1.2c-0.6,0.7,0.2,1.4,0.3,2.1c0,0,0.1-0.1,0.2-0.1l0.1-0.9
			c0.3-0.4,0.6-1.3,1.2-0.9c0.3-0.2,0.3-0.5,0.5-0.6C79.1,55.5,79.1,55,79,54.8z"/>
		<path fill="#FDBB2D" d="M114.5,57.8l-0.2,0.5c0.3,0.1,0.4,0.6,0.8,0.4l0-0.3C115.2,58.1,114.8,57.9,114.5,57.8z"/>
		<path fill="#FDBB2D" d="M113.6,58.1c-0.1,0.7-1,0.7-1.1,1.3c-0.2,0.7,0.4,0.8,1,0.8c0.4-0.1,0.8-0.4,0.7-1
			C114.2,58.7,114.1,58.1,113.6,58.1z"/>
		<path fill="#FDBB2D" d="M74.8,60.6c-0.2,0.5-0.6,1-0.4,1.6c0.6,0.1,1.2,0,1.7-0.2c0.4-0.6,0.8-1.2,0.9-1.8
			C76.4,60.4,75.4,60,74.8,60.6z"/>
		<path fill="#FDBB2D" d="M73.5,61.9L73.5,61.9c0.5-0.1,0.6-0.6,0.4-1C73.4,60.8,73.3,61.5,73.5,61.9z"/>
	</g>
</g>
<g id="AREA_1">
	<path fill="#720018" d="M113.6,55.4c-0.1-2.6-3-3.1-4.1-4.9c-1.4-1.9-3.3-3.6-3.6-5.9c0.3-2.4-1.5-4-2.2-6.1
		c-1.5-1.2-0.9-3.3-2.2-4.9c0.2-3.3-2.2-5.8-3.1-8.8c-0.5-1.1-1.5-2.1-1.9-3.3c0.2-0.4,0.8-0.4,1.2-0.3c1.9,0,3.3,1.1,5.2,1
		c2.7,1.8,6.3,0.7,9.5,0.7l0.2-0.7l-2.1,0.1c-0.2-0.2-0.7-0.1-0.5-0.6c1-0.8,2.3-1.7,3.2-2.7l0-0.1c-1.7,1-3.2,2.9-5.4,2.4
		c-0.2,0-0.4-0.3-0.2-0.5l2.5-1.2c-0.1-0.7,0.3-1.3,0.9-1.8c0.1-0.6,1-1.6,0.2-2c0-0.2,0.4-0.4,0.5-0.6c-0.4-0.1-0.6,0.4-1,0.5
		c-0.3,0.3-0.9,0.2-1.2-0.1c0.6-1.2,1.2-2.5,2.1-3.4l0,0c-0.6,0.2-0.8,1.1-1.5,0.8c0.1-0.6,0.1-1.4,0.6-2c0.5-0.2,0.7-0.6,0.9-1h0
		c0.3-0.8,0.3-1.7,0.8-2.4l-0.2,0c-0.7,0.7-1.4,1.6-2.1,2.4l0.7,0c0-0.2,0.1-0.5,0.3-0.2c0,0.1,0,0.2-0.1,0.3l-0.2,0c0,0,0,0,0-0.1
		l-0.7,0c-0.3,0.3-0.6,0.6-0.8,0.9c-0.5-0.1-0.6,0.9-1,0.2c-0.1-0.3,0.2-0.6,0.4-0.9h0.2c1.1-2,3.3-3.7,5.2-5l-0.1-0.1
		c-0.5,0.1-1,0.7-1.5,0.5c-0.9,0.2-1.7,1.7-2.6,1c-0.2-0.5,0.3-0.6,0.3-1.1l-0.1,0c-0.6,0.5-0.6,1.4-0.9,2.1
		c-0.4,0.8-1.3,0.9-1.9,0.9L107,8c0.2-0.3,0.7-0.6,0.5-1l-0.9,0c-0.1,0.3,0,0.7-0.3,0.8c-0.2,0-0.3-0.1-0.5-0.2c0-0.7,0-1.8,0.7-2.3
		l-0.4-0.5c0.6-1,1.2-2.2,2.2-3l0,0c-0.5,0.3-1.2,0.8-1.6,1.2c-1,0.5-1.3,1.9-2.4,2c-0.8-0.9-0.9-2.1-1.2-3.2l-0.1,0
		c-0.2,1.5,0.5,2.9,1.2,4.1c-0.3,1.2-1,2.3-1.7,3.3l-1.1-0.3c-0.2,0.5-0.2,1.1-0.3,1.7h0c0,0.6,0,1.2-0.2,1.7
		c-0.4,0.6-0.4,1.7-1.2,1.8c-0.2-0.7-0.5-1.4-0.4-2.3c-0.3-0.1-0.7-0.2-0.6-0.6c-0.5-0.1-0.1,0.6-0.4,0.8c-0.4,0-0.4-0.4-0.7-0.5
		c0.2,1.5,0,2.5-0.1,3.8c-0.6,1.4-1.9,1.9-3.2,2.4c-1.5,0.2-2.3-1.3-3.6-1.9c-2.5-0.3-4-2.7-6.1-3.7c-0.4-1,0.4-1.3,1.1-1.7h0
		c0.4-0.2,0.7-0.5,0.7-0.9c-0.6-0.4-1,0.8-1.5-0.1C84.5,8.2,86,8.9,86,8c0.7-0.8,1-1.9,1.4-2.9l0-0.1c-1.6-0.1-0.7,2.1-2.2,2.5
		c-0.5,0.1-1.1,0.5-1.5,0.1c-0.3-0.4,0-1.1,0.5-0.9l0,0c-1.1-1.1,0.1-3.1,0.3-4.3l0-0.1c-0.6-0.1-0.6,1-1.1,1.3
		c0.3,0.7-0.5,0.5-0.9,0.9c-0.3-0.1-0.1-0.4-0.2-0.7c0.7-0.2,0.6-1,1.1-1.5l-0.5-0.1c0-0.3,0.5-0.5,0.6-0.8c0.9-0.3,1.1-1.1,1.8-1.8
		l0,0l-0.5,0.2c-0.3-0.4,0.1-1,0.1-1.5l-0.2,0C84.2-1.3,84-0.9,84-0.4c-0.5,0.7-0.9,1.8-1.8,2C81.9,1.5,82,1.1,82,0.8l-0.1,0
		l-1.7,1.4c-0.5-0.1-1.2,0.4-1.7-0.2c0-0.9-0.4-2,0.5-2.4l0-0.1c-0.4-1.5,0.4-3.1,1.3-4.3c1.4-0.1,2.3,1.5,3.7,1.8
		c2.2-0.9,3.6,1.7,5.3,2.7c0.7,0.8,0.6,2.7,2,2.5c0.6-0.4,1.1,0.1,1.7,0c0.2-0.4-0.4-0.7,0.1-0.9c0.1,0,0.2,0,0.3,0.1
		c0.9,0.4,1.5-0.5,2.1-1c0.1-0.7,0.1-1.4,0.8-1.7c1.3-2-0.7-2.9-1.9-4.2l-0.2-0.2c-0.3-0.4-0.3-0.7-0.6-1.2c-0.9-1.6-2.2-3-2.7-4.7
		l-0.6,0.2c-0.2-0.4,0-0.9-0.1-1.3c0.5-0.4,1.2-0.2,1.9-0.1l0-0.1l-0.5-0.3l0.2-0.3l0,0c-0.8-0.2-1.5,0-2.2-0.2
		c-0.2-0.2-0.1-0.6,0.2-0.7c0.9,0.4,1.9,0.2,2.8,0.3c0,0,0,0,0,0c-0.3-0.3-1.2-0.1-0.9-0.7l2.1-1l0-0.1c-1.3,0.3-3.2,0.2-4.6,0.7
		c-0.7,0-1.4-0.2-1.9-0.7c0-0.3-0.6-0.7,0-0.9c0.6-0.1,0.9,0.9,1.2,1c1.1-0.9,2.6,0,3.8-0.2l2.2-1.5l0-0.1c-0.7,0-1.3,0.9-2,0.9
		c-0.2-0.1-0.2-0.3-0.2-0.5c0.3-0.4,0.7-0.4,1.1-0.3l0-0.2c-0.1-0.2-0.3-0.1-0.4-0.1c-1.3,0-2,1.8-3.4,1.1c0.2-1.2,1.1-2.2,0.7-3.6
		c-0.1-0.2,0-0.7-0.4-0.7c-0.4,0.7-0.8,1.5-1.4,2c-0.3,0-0.6,0.4-0.8,0c0.3-0.5,0.4-1,0.9-1.4l0-0.1c-0.3-0.1-0.7,0.3-1,0.6
		c-0.3,0.2-0.6,0-0.8-0.3c0-0.3,0-0.6,0.2-0.8c-0.2-0.2,0-0.8-0.6-0.7c-0.5,0.9-1.5,1.8-2.3,2.2L84-20.1c1.2-2.2,3.4-3.2,6-2.8
		l0-0.1c-0.9-0.6-2-0.6-3-0.9c-0.1-0.8,0.9-0.3,1-0.8l-0.1-0.1c-0.1,0.2-0.3,0.1-0.4,0.1c-0.2-0.2-0.3-0.4-0.2-0.7l-0.1,0
		c-1.1,0-2,1-3,0.8c0.8-1.5,2.6-2,4.2-2.2l0-0.1c-3.1-1-5.8,1.7-8.3,3.2c-0.6,0.3-0.4,1.4-1.1,1.2c0-0.9,0.8-1.2,1.1-2
		C81-24.9,80.9-26,82-26c0.1-0.7,0.8-1.3,0.8-1.8c-0.9,0.1-1.5,0.9-2.1,1.4c0.3,1.3-1,0.7-1.5,1.5c-0.3,0.3-0.5-0.2-0.5-0.4
		c-1.3,0.2-1.7,1.4-2.8,1.9L75.4-24c0.5-0.2,0.4-0.7,0.5-1.1l0-0.1c-1,0.5-1.1,2-1.9,2.9c-0.1,0-0.3,0.1-0.4-0.1l0.2-0.2
		c-0.3-0.5-0.1-1.4-0.1-2l-0.2,0c0.3,0.9-1,0.6-0.7,1.6c-0.1,0.8-1.1,0.9-1.6,0.7c0.1,0.7-0.2,1.1,0,1.7c-0.2,0.2-0.5,0.4-0.7,0.1
		c-0.6-0.3-0.9-1.8-1.8-1.4c1,0.7,1.5,1.9,2.2,2.7c0.1,0.6,0.5,1.3,0.1,1.9c-0.2-0.4-0.3-0.8-0.7-1c-0.3,0.6,0.4,0.9,0,1.4
		c-0.7-0.4-0.8-1.4-1.3-1.9c-0.2,0.7,0.6,1.5-0.1,2.1c-0.6,0.7-0.3-0.6-0.9-0.3c-0.1,0.4,0.2,0.9-0.1,1.2c-1.3-1.2-0.8-3.5-0.8-5.3
		l-0.2,0c-0.3,0.7-0.4,1.4-0.4,2.2c-0.8,0.5-0.2,1.1-0.8,1.8c-0.6,0.3-0.9-0.5-1.3-0.8l-0.1,0.1c0.4,0.7,0.2,1.7,0.8,2.4
		c-0.6,0.5-1.5-0.5-2.1-0.3l-0.1,0.1c0.8,0.5,1.2,1.2,1.4,2c-0.5,0.3-1.2-0.5-1.5-0.5l0,0c0.5,0.5,1.1,0.9,1.7,1.2
		c0,0.4,0.3,0.9-0.1,1.3c-0.6,0.1-1.2,0.1-1.6-0.4l0,0.2c1.7,0.3,0.1,1.9,1.2,2.6c-0.2,0.3-0.5,0.1-0.8,0.2c0.1,0.4,0.9,0.7,0.3,1.1
		c-0.4,0.3-0.8,0-1.1-0.3l-0.1,0c0.6,0.8,0.7,1.8,1.2,2.6h0c0.4-0.4,0.7-0.3,0.9,0h0.2c0.2,0.3,0.4,0.5,0.7,0.6
		C66-4.4,66.6-5,67-4.5c-0.2,1.1-1.7,0.1-2.3,1L65-3.2c0.4,0.2,0.1,0.5-0.1,0.7c-0.4-0.3-0.7-0.7-1-1.2c-0.6-0.1-0.1,0.7-0.5,0.8
		c-0.2-0.2-0.3-0.5-0.5-0.8c-0.1-0.2-0.1,0.1-0.3,0c-0.1,1.2,1.4,1.8,1.4,2.9c-0.8,1.2-1.9-0.4-2.6-0.6l0,0c0.2,0.3,0.5,0.3,0.4,0.6
		c-0.1,0.2-0.3,0.1-0.4,0.3l0.8,0.6c-0.3,0.4-0.7,0.1-1.1,0.1L61,0.3c0.7,0.1,1.3,0.4,1.9,0.9c0.4,0.6,0.2,1.3,0.7,1.9
		c3.1,1.4-0.6,4.1-0.3,6l-0.2,0c0,0.5,0.1,0.9,0.1,1.3h2.1l0-0.2c-0.6-0.4-0.2-1.4-0.3-1.9l0.6-0.6c0-2.6,0.8-5.4,0.9-8
		c0.5-0.6,0.8-1.4,0.8-2.2c0.2-0.7,0.7-1.3,1.1-1.9c0.4,0.3-0.4,0.8,0.1,1.1c0.6-0.2,0.2-0.8,0.4-1.2c2-3.2,3.2-6.8,5.9-9.5
		c0.1-0.9,1.3-0.9,1.7-1.7c1.3,0.1,1.1-1.3,2.3-1.4c0.2,0,0.4,0,0.5-0.2c0.9,0.6,1.9-1,2.7,0.1c0,0.9-0.8,1-1.4,1.4
		c-1,0-1.8,0.9-2.6,1.6c-0.4-0.6,0.7-1.2,0.2-1.9c-0.6,0.5-0.8,1.6-0.6,2.3c-0.9,1.1-2.2,2.1-2.9,3.3c-0.6,0.4-1.2,1.1-1.4,1.8
		c-4.6,5.1-7.4,12.1-6.2,19h0.8c0-0.5,0-1-0.1-1.4l-0.2,0c0-1.1-0.3-2.6,0.2-3.6c-0.4-1.7,0.6-3.4,0.9-5.2c1.9-3.5,3.9-7.1,7-10
		c1.2,0.2,0.9-1.6,1.9-1.5c0.7-0.2,0.4-1.1,1.1-1.2c0.1,0.8,0.2,1.6,0,2.5c-0.2,0.1-0.5,0.1-0.6,0.4c-0.1,1.2,0.2,2.5,1.2,3.4
		L79-6.1c-0.7-0.4-0.8-1.5-1.6-1.7c-0.6,0.4-0.7,0.9-0.9,1.5c-4.3,4.5-6.1,10.3-7.9,16c0,0.2,0,0.4,0,0.6h1c0.2-1.5,0.3-2.9,0.9-4.3
		c0.9-2.8,2.7-5.4,3.6-8.4L74.9-3l-0.1-0.1c0.9-0.8,1.8-1.9,2.3-3c0.6,0.3,0.9,0.9,1.6,1.2c0.7,0.3,0.2,1,0.1,1.4
		c-0.7,1.5-1.1,2.9-1.4,4.6c0.1,0.5,0.1,1.3-0.1,1.8c-1.1,0.2,0.1,1.1-0.1,1.7c0.1,1.8,0.4,4.6-1.2,5.9c-0.1,0.1-0.1,0.1-0.2,0.2
		c-0.5,1.1-1.1,2.1-1.8,3l0.9-0.2c0.3,0.7-0.8,1.1-0.5,1.8c1.2-0.8,1.9-2.2,2.8-3.3c-0.1-0.2-0.3-0.1-0.5-0.1
		c-0.2,0.1-0.1,0.3-0.3,0.3c-0.1-0.5,0.6-1.2,0.6-1.6c1-1.3,1.1-3.2,1.1-4.7c0.2-0.1,0.4-0.4,0.3-0.7c1.8,0.3,1.6,2.7,2.6,3.9
		c0.4,0.8,0.6,1.6,0.8,2.4c0.6,1.7,0.3,3.9,0.5,5.7l0.3,0c0.6-2.1,0.4-4.5-0.2-6.5c1.4,0,1.2,2.8,2.8,2.6c1.7,0.5,2.3,2.9,4.3,2.8
		c3,1.3,5.2,4.2,6.8,7l-0.2,0.8c2.2,4.1,3.6,8.7,5.8,12.8c-0.3,1.4,1.3,2,1.7,3.2c0.1,1.2,1,2.1,1.3,3.1c-0.1,0.4-0.1,1.1-0.7,1.1
		c-0.8,0.2-1.2-0.7-1.7-1c-0.1-0.6-0.8-1-0.5-1.7c0.2-0.3,0.8-0.2,0.8-0.6c-1-0.8-1.4,1.5-2.2,0.1c0.4-2.3-0.7-4.2-1.6-6.1
		c-0.2,0.1-0.5,0.1-0.5,0.4c0.2,1,0.1,2.1,0.8,2.8c-0.1,0.1-0.3,0.2-0.5,0.2c-1.6-2.2-3.2-4.5-3.8-7.1c-0.4,0.4-0.9,0.2-1.1-0.3
		c-0.4-1.5-0.6-3.2-1.7-4.4c-0.2-1.8-0.2-3.8-1.5-5.1c-0.2-0.1,0.1-0.3-0.1-0.5c-0.1-0.1-0.2-0.3-0.3-0.3c-0.4,0.4-0.1,1,0,1.4
		c1.7,2.2,1.5,5.7,0.6,8.2l-0.4,0.4l0.1,0.1c-1.4,1.3-3.1,3.2-5.3,3c-1.4-0.2-3.1-0.2-4.4-0.9c-0.7-1.2,0.4-2.2,0-3.4
		c0.6-1.1,0.5-2.6,1.5-3.3l0,1c0.6-0.9,1.1-2,1-3.1c-1.1,0-0.6-1.3-0.7-1.9c-0.4-0.9,0-2.3-1.3-2.8c-0.2,0.5,0.2,1.2,0.4,1.8
		c-0.1,0.7,0.6,1.4,0,2.1c-0.2,0-0.3-0.4-0.5-0.3c0.1,0.6,0.3,1.3,0.2,2.1c-0.6,0.2-0.7,0.6-0.6,1.2l0.2,0.2c-0.9,1.5-1.3,3.7-3,4.7
		c-0.9-0.4-1.9-0.9-3-1.2c-0.2-0.2-0.7-0.5-0.4-0.8c1.4-0.9,1.9,0.9,3.2,1c0.6-0.3-0.1-0.7-0.2-1c-0.7-1-2.2-0.1-2.5-1.3
		c0.1-0.7,0.3-1.5,0-2.1c-0.3-0.1-0.4,0.2-0.5,0.3c-0.3,3.2-2.7,5.4-3.6,8.3c-1-1,0.8-2,0.2-3.1l-0.8,0.4c-0.1-1.7-0.4-4.1,0.4-5.5
		c-0.7-0.6-0.2-1.6,0-2.3c0.2-0.7,1-0.8,1.6-0.9c1.3,0.1,2.1,0.6,3.4,0.6c0.9,0.2,2.2,1.1,2.8,0.1c-0.4-0.6-1.2-0.1-1.7-0.3
		c-0.3-0.9,1.1-0.9,1.4-1.6c-0.6,0.2-1.5,0.6-2.2,0.8c-0.6-0.7-1.1-1.6-0.8-2.6c0.6-0.9,1.5-1.6,2.2-2.6c-1-0.3-1.3,1.3-2.3,1.4
		c-0.1-2.2,1.3-4.4,2.8-6c-0.1-0.3-0.5-0.2-0.7-0.1c-2,2.1-3.8,4.9-3,8l-0.1,1.6c-0.9,0.1-1.7,0.2-2.5-0.2c-0.7-1.1-0.3-2.6-1-3.7
		l-0.2,0c-0.1,1.3,0.4,2.6-0.2,3.8c-0.6,0.1-0.4-0.6-0.7-0.9c-0.3-0.9,0.1-2.3-0.6-2.9c-1,1.4,2.1,5.1-1.1,4.4
		c-1.2-1.2,0-3.3-1.1-4.6c-1,0.2-0.2,1.5-0.5,2c0,0.7,0.6,1.5,0.1,2.2c-0.7-0.1-1.3-0.6-1.7-1.3c0.2-1-0.3-2-0.5-2.9
		c0.3-1.8-0.8-3.7,0.7-5l0.2-2.8l-2.1,0c0,0.4-0.1,0.7-0.2,1.1c-1.2,3.4-2.5,7.4-0.3,10.7c-0.8,3.4-0.9,6.7-2.2,9.8
		c-2.2,3.4-1.4,8.1-2.8,11.7c-0.3,2.4-1.7,4.5-2.2,6.7c-0.5,1.2-1.4,2.3-1.9,3.4l0.6,0.6c-0.6,0.6-1,1.6-1,2.5
		c0.1,0.8,0.7,0,1.1,0.4c1.3,0.1,2.5-0.9,3.4-1.3c0.7-0.7,0.7-1.8,0.9-2.6c-0.5-0.3-1-0.5-1-1.2c0.3-0.2,0.2-0.8,0.7-0.6
		c0.6,0.3,0.9-0.5,1.3-0.8c0.3-3.2,0.2-7.1,1.9-10.1c1.7-1.5,2-3.7,2.3-5.7c-0.2-0.4-0.4-1-0.1-1.5c1.1-2.2,2.5-4.1,3.4-6.4
		c0.4-1.6,1.7-0.4,2.8-0.6c1.7,4.2-0.5,9-2.2,12.9l-0.2,2.9c-2,1.6-2.2,4.2-2.9,6.5c0.8,0.2,1.9,0.2,2.7-0.2
		c0.8-0.7,2.5-0.7,2.5-2.1c1.6-0.7-0.2-2.9,1.4-3.7c0.6-1.8,0.3-4.3,0.7-6.2c1.1-2,0.7-4.3,2.3-6c0.7,0.2,1.4,0.4,1.8,1l0.6,6
		c0.3,2.3,2.5,4.2,4.2,5.7c0.2,1.4,1.7,2.4,1.7,3.8c-1,3.1-3.7,5.6-5.9,7.8c-0.4,0.2,0,0.8-0.5,0.9c-0.2,2-1.6,3.3-3.3,4.3
		c0.1,0.9-0.6,1.5-1,2.3l4.3,0.3c1.4-0.1,1.6-1.6,2.1-2.6c-0.5-1.1,1.1-1.5,0.6-2.6c0-0.9,1.1-0.8,1.7-1.3c0.3-0.6-0.2-1.3,0.3-1.9
		c2-2.8,4.6-5.7,7.2-7.9c1-1.3-0.7-2.3-1.2-3.5c0-0.5-0.7-0.8-0.5-1.3c-1-1.6-1.1-3.5-0.4-5.2c1.3-1.3,3-3,5.1-2.4
		c2.2,0.8,3.5,3,5.1,4.5c2.5,2.1,4.2,4.5,6.4,6.9c3.2,1.6,4,5.2,6.4,7.6c0.9,1.4,1.7,2.8,3.3,3.5c-0.1,0.7-0.3,1.2-0.7,1.7l0.9,0
		c1.3,0.3-0.3,1.1,0.2,1.8c0.1,0.7,0.9,0.2,1.3,0.5c0.8-0.1,1.6,0,2.5-0.3C115.4,58.3,115.4,56.3,113.6,55.4z M110.7,16.5
		c0.3,0.7-0.6,0.9-0.9,1.4l-0.3,0C109.4,17.3,110.3,16.8,110.7,16.5z M91.7-15.1c-0.1,0.3-0.4,0.2-0.6,0.3c-0.4-0.2-1.2,0-1.2-0.6
		C90.5-15.3,91.5-15.9,91.7-15.1z M88-18.1c0.9,0.1,1.3-0.7,1.9-1.1c0.2,0.6-0.1,1.1-0.4,1.6c-0.4,0.2-0.8,0.4-1.2,0.1
		C88-17.6,88-17.8,88-18.1z M62.8,0.5l-0.3-0.1l0.1-0.2c0,0,0.1,0.1,0.2,0.1L62.8,0.5z M88.9-1.9C88.7-2,88.6-2,88.5-2.2
		c0-0.4,0.6-0.3,0.9-0.2C89.5-1.9,89-2,88.9-1.9z M90.6-0.3l0.1-0.3c0.3,0.2,0.6,0.5,0.5,1C90.7,0.5,90.8-0.1,90.6-0.3z M91.4,1.3
		c-0.3-0.1-0.4-0.5-0.3-0.8c0.5-0.1,0.3,0.4,0.4,0.6L91.4,1.3z M92.2,0.3c-0.7,0.1-0.3-0.7-0.7-0.9L91-1.4c0.7,0.1,0.9,0.9,1.3,1.3
		C92.4,0.1,92.2,0.2,92.2,0.3z M96-2.6c0.5,0.2,0.2,0.8,0.1,1c-0.1,0.2-0.4,0.1-0.5,0.1C95.3-1.9,95.7-2.4,96-2.6z M95.4-2.8
		c0.1,0.2-0.1,0.3-0.2,0.4c-0.2-0.2-0.5-0.1-0.6-0.4C94.5-3.5,95.3-3.2,95.4-2.8z M87.2-16l0,0.3c-0.4,0.2-0.9-0.1-1-0.5
		C86.4-16.6,87.1-16.5,87.2-16z M82.4-24.7c0.5-0.3,0.9-0.8,1.5-0.7c-0.2,0.5-0.5,1.1-1.1,1.3C82.6-24.2,82.1-24.3,82.4-24.7z
		 M69.1-16c-0.1,0.1-0.2,0.1-0.3,0.1l-0.1-0.5C69-16.4,69.2-16.3,69.1-16z M65.9-16c-0.1,0.2-0.2,0-0.4,0.1
		c-0.4-0.2-0.2-0.6-0.3-0.9C65.8-17,65.7-16.3,65.9-16z M65-10.4l0,0.3c-0.6,0.2-0.6-0.5-0.7-0.8C64.7-11,64.9-10.7,65-10.4z
		 M65.8-5.4c-0.8,0-1.2-0.8-1.8-1.3L64.1-7c0.7,0.1,1.5,0.5,1.8,1.2L65.8-5.4z M67.2-6.5c-0.5-0.3-1.4-0.2-1.5-0.9
		C66.2-7.5,67-7,67.4-6.6L67.2-6.5z M68.6-5c0-0.5,0-1,0.4-1.1C69.1-5.7,69.1-5.2,68.6-5z M67.7-8.8c-0.4-0.4-0.9-0.6-1.1-1.1
		c0.2-0.5-0.3-1.2,0.2-1.7c0.9,0.6,1.1,1.5,2.1,2l0.2,0.6C68.6-8.7,68.1-8.6,67.7-8.8z M72-12.4c-1.5,0.5-1-1.3-1.8-1.7
		c-0.2,1,0.5,1.8,0.5,2.8c-0.6,0.1-1.6-0.1-2.2-0.2c-1.2-0.2-0.6-1.8-1.6-2.2c0.4-0.6-0.4-1.5,0.3-1.6c0.1,0.4,0.5,0.8,0.7,1.2
		c0.3-0.4,0.8-0.1,1,0.1c0.1,0.6,0.4,1.1,0.8,1.6c0.3-0.5-0.3-1.5,0.2-2.1c0-0.2-0.3-0.5,0-0.7c0.2-0.3,0.7-0.2,1,0
		c-0.1,0.3,0.1,0.6,0.2,0.8c0.9-0.1-0.2-1.4,0.8-1.4l0.4,0.6C71.9-14.2,72.6-13.3,72-12.4z M74.1-16.8C72.5-16.5,74-14.6,73-14
		c0-1.5-0.4-2.8-0.9-4.1c0-0.6,0.5-0.9,1.1-0.6c0.7-0.7-0.9-1.2-0.2-2.1c0.6,0.4,0.6,1.3,1.2,1.8C74.1-18.4,74.4-17.5,74.1-16.8z
		 M80-17.9c0.1-0.2,0.4-0.3,0.7-0.2C80.6-17.8,80.3-17.9,80-17.9z M80.3-19c-0.3,0-0.1-0.4-0.4-0.4c-0.2,0.5-0.7,0.8-1.2,1.2l-0.5,0
		c-0.1-0.4,0.6-1,0-1.1c-0.6,0.1,0,0.8-0.6,0.9c-0.9-0.5-1.7,0.6-2.2,1c-0.2,0.1-0.3,0.4-0.6,0.2c-0.6-1.2-0.2-3-0.1-4.2
		c0.1,0.2,0.1,0.4,0.4,0.6c0.4-0.1-0.1-0.9,0.5-0.8c0.1,0.3,0.4,0.2,0.6,0.2c0.5-0.7,0.9-0.9,1.7-0.5c0.2-0.1,0-0.4,0.2-0.6
		c0.4,0.1,0,0.7,0.3,0.9c0.1-0.2,0.6-0.4,0.3-0.7c0.4-0.4,1,0.2,1.3-0.4c0.3,0.7-1,1.4-0.3,1.9c-0.1-1.2,1.3-0.3,1.2-1.5
		c0.7-0.2,0.2-0.9,0.5-1.5c0.4-0.1,0,0.4,0.3,0.5l1.1-0.2c-0.6,0.4-0.9,1.2-1.5,1.8c0.4,0.1,0.9-0.2,1.2-0.6l-0.1-0.3
		c1.2-0.5,1.9-1.5,3.2-1.6l0,0.1c-0.8,1.9-2.4,3.6-3.8,5.4C81.4-18.5,80.8-19.1,80.3-19z M80.6-13.7c0.5-0.7,0.6-1.9,1.6-2
		c0.2,0.4,0.3,1,0.7,1.2c0.5-0.2-0.1-0.4,0.1-0.7c0.8,0.1,1.8,0.9,2.5-0.2c0-0.1-0.1-0.2-0.2-0.3c-0.5,0.1-1,0.5-1.6,0.2
		c-0.8-1,1.2-1.3,0.8-2.5c0.3-1,1.1-2,1.8-2.5c-0.9,1.2,1,1.6-0.2,2.6c0.2,0.9-0.9,1.4,0.1,2.1c0.5,0.6,2.1,0.9,1.3,2l-1.1,0.3
		c0.1,0.5,0.8,0.2,0.7,0.7c-0.3,0.6-1.2,0.4-1.7,0.4c-0.4-0.8-1.2-1.1-2-1.7l-0.1,0.1c1.1,0.9,1.8,2.1,2.5,3.3
		c0.2-0.3,0.5-0.3,0.7-0.1c0.1,0.2,0.3,0.4,0.1,0.6c0.5,0,0.8,0.9,1.3,0.4c-0.1-0.2-0.5-0.4-0.4-0.7c0.1-0.2,0.4-0.2,0.6-0.1
		c0.6,1.4,2.2,2.1,3.2,3.3c0.5-0.3-0.1-0.5-0.2-0.8c-0.7-0.7-2.4-1.3-1.9-2.5c-0.4-0.6-0.9-0.6-1.2-1.3c-0.1-1,0.9-0.3,1.3-0.5
		c0.2-0.6-0.2-0.9-0.4-1.3c0.3-0.4,0.7,0,1,0c0.2,0.6,0.2,1.3,0.2,2c1.9,1.6,3.2,3.9,4.2,6.1C94.7-5,95.4-4.6,95.3-4
		c-0.2,0.1-0.5,0.1-0.7,0.2C94-4.5,94.2-5.7,93-5.7c-0.3-0.5-0.8-0.2-1.2-0.3L91.8-6c0.5,0.3,0.9,0.7,1.3,1.2
		c-0.1,0.7-0.8,1.5,0,2.1c0.5-0.4-0.2-1.4,0.7-1.4c0.1,0.9-0.7,1.8,0.2,2.6l-0.1,1.2c-1-0.2-1.6-1.4-2.4-2.2c0-1.6-1.9-0.5-2.9-0.6
		c-0.4,0-0.8-0.4-0.9-0.7c0.3-0.7,0.8-1.2,1.2-1.7c0.8,0,1.3-0.6,2.1-0.8l-0.1-0.2c-1,0.2-2.3,1-3.1,0.2c-0.9,0.4-1.1,1.4-2,1.9
		c-1.8,0-2.7-1.6-4.2-2.5c0.3-1.8-0.6-3.1-1-4.6c-0.8-0.3-0.1-1-0.2-1.5C80.4-13.2,80.7-13.5,80.6-13.7L80.6-13.7z M87.5-11.6
		c-0.1,0-0.3,0.1-0.5,0.1l-0.1-0.2c0.1-0.2,0.4-0.5,0.6-0.2C87.5-11.8,87.5-11.7,87.5-11.6z M79.2-7.9c0.5-1.8-0.3-3.4,0.2-5.2
		c0.3-0.7,0.5-1.4,1-2c-0.2,1.4-1.1,3-0.7,4.6c0,1.2,0.6,2.2,0,3.3C79.4-7.2,79.4-7.7,79.2-7.9z M81.8,2.6c0.2-0.1,0.4,0.1,0.5,0.3
		c-0.1,0.2-0.4,0.3-0.7,0.3C81.3,3,81.8,2.8,81.8,2.6z M79.2,4.5l-0.4-0.3l0.4,0.1L79.2,4.5z M79.8,3.5c-0.2,0.4-0.7,0.3-0.9,0.2
		c0.2-0.4-0.2-0.6-0.2-0.9C79.1,2.9,80.2,2.9,79.8,3.5z M80.1,4.4C80.2,4,80.8,3.8,81,4.2c-0.3,0.4,0.1,1.1-0.7,1.1
		C79.9,5.2,79.9,4.7,80.1,4.4z M82.2,6.5c-0.4,0-1,0.4-1.3-0.1c-0.1-0.2-0.3-0.2-0.2-0.5c0.9-0.2,1.3-1,2.3-1
		C83.5,5.9,82.6,6,82.2,6.5z M83.2,9.3c-0.2,0-0.5-0.3-0.4-0.5c0.2-0.7,1.4-0.2,1.9-0.7c0.1,0,0.2,0.1,0.3,0.2
		C84.6,9,83.8,8.9,83.2,9.3z M83.6,10.1l-0.3-0.3c0.2,0,0.3-0.1,0.4,0.1C83.7,10,83.6,10.1,83.6,10.1z M84.2,9.8l-0.3,0l0-0.2
		C84.1,9.6,84.2,9.6,84.2,9.8L84.2,9.8z M104,22.1c0.3-0.6,1.4,0,2.1,0.3C105.4,22.7,104.5,22.4,104,22.1z M106.3,17.7
		c0.8-0.4,1.7-0.9,2.5-0.4c-0.4,0.4-1.5,1-2.4,0.7C106.2,17.9,106.3,17.8,106.3,17.7z M109.3,12.8c0.2,0.2,0,0.4-0.2,0.6l-0.3,0
		C108.8,13.1,109,12.7,109.3,12.8z M107.9,9.7c0,0.3-0.4,0.4-0.4,0.6l-0.2,0C107.1,10,107.4,9.5,107.9,9.7z M107.3,13.4
		c0.3-0.1,0.3,0.1,0.4,0.3c-0.1,0.5-0.7,0.6-1.1,0.8l-0.3,0C106.5,14,106.8,13.5,107.3,13.4z M107.6,15.3c0.4,0.3,1.3-0.8,1.4,0.1
		c-0.8,0.7-1.8,1.3-2.8,1.1C106.3,15.6,107.2,15.8,107.6,15.3z M105,7.4c0.2-0.1,0.3,0.1,0.3,0.2c0,0.1,0.1,0.3-0.1,0.3L105,8
		L105,7.4z M108,19.7c-0.8,1.2-2.4,0.6-3.6,1l-1.2-0.1l0-0.4c0.6,0,1.2,0.1,1.7-0.2c-0.6-0.5-1.4-0.2-2.1-0.8
		C104.4,18.7,106.5,19,108,19.7z M104.2,9.7l0.3-0.2c0.1,0.3,0.5,0.9,0,1C104.1,10.4,104.1,10,104.2,9.7z M101.5,13.1
		c0.6,0.4,1.2-1.1,1.5,0l-0.8,1.6c-0.4,0.3-0.8,0.4-1.3,0.5C100.6,14.4,101.4,13.9,101.5,13.1z M98,15.3c1,0.3-0.3,0.9-0.3,1.3
		c-0.2,0.1-0.6,0.4-0.7,0C97.1,16.1,97.4,15.5,98,15.3z M94.5,18.4c0.1-0.5,0.6-0.5,1-0.7c2.8-0.6,5.5-1.5,7.6-3.5
		c0.3-0.1,0.6,0.1,0.6,0.4c-1.1,0.4-0.1,2.1-1.7,1.7c-0.8,0-1.7,0.6-2.5,1C98.1,18.2,96.3,18.6,94.5,18.4z M99.4,28.9
		c0.5,0.3,0.6,1,0.8,1.5C99.6,30.3,99.6,29.4,99.4,28.9z M57.9,53.7c-0.1,0.9-0.2,2-1.3,2c-0.5-0.7-1.4-0.8-1.8-1.3
		c0.5-0.6,1.1,0.1,1.6-0.5C57,53.9,57.6,54,57.9,53.7z M58.8,49.5c-0.6,0.1-1.2,0.2-1.9,0.4c-0.3-0.2-0.4-0.5-0.4-0.9
		c0.7-0.7,0.9-1.4,1.5-2.2c-0.1-0.5,0.9-0.5,0.7-1.1l0.2,0C59.3,47,58.8,48.4,58.8,49.5z M59.1,45l-0.2,0l0-0.3c0.1,0,0.2,0,0.3,0.1
		C59.2,44.9,59.1,45,59.1,45z M62.6,20.1c-0.4-0.1-0.4-0.6-0.6-1c-0.2-1.8,0.1-3.5,0.7-4.9l0.3-0.1c0.1,0.8-0.3,1.5-0.5,2.3
		C62.7,17.5,62.5,18.9,62.6,20.1z M62.3,29.9c0.2,0,0.5,0,0.6,0.2c-0.2,0.3-0.3,1-0.9,0.8C62,30.7,62.1,30.2,62.3,29.9z M61.4,39.3
		c-0.5,0.4-0.6,1.2-1.1,1.4c0-0.7,0.3-1.5,0.6-2.1C61.4,38.6,61.8,39,61.4,39.3z M62.7,34.1c0.8,0.9-0.1,2.3-0.2,3.5
		c-0.2,0.3-0.2,0.7-0.6,0.8c-0.9,0.2-1.5-0.4-1.8-1.1L60,36.6c0.3-0.3,0.6,0.3,0.8-0.2c-0.4-0.7-0.7-1.6-0.2-2.4
		c0.7-1.3,1.8-2.3,2.7-3.2c1.1,0.2,0.6-1.6,1.7-1.7l0.1,0.3L62.7,34.1z M66.6,25.3c-0.7-0.4-1.7-0.4-2-1.3l0-0.6
		c1,0.5,2.2,0.7,3,1.4C67.7,25.4,67,25.1,66.6,25.3z M67.8,47.3l-0.3,0c-0.2-0.8,0-1.6,0.4-2.2c0.5-0.1,0.5,0.5,0.7,0.8
		C68.6,46.4,68.4,47,67.8,47.3z M68.5,38.7c0.3-1.2,0.7-2.4,1.3-3.5l0.2,0C69.5,36.4,69.5,37.8,68.5,38.7z M69.1,45l-0.2,0l0-0.9
		c0.4-0.1,0.3,0.3,0.3,0.5C69.1,44.7,69.2,44.9,69.1,45z M69.9,41.8c0,0.2,0.1,0.5-0.2,0.5l-0.2,0c-0.2-0.8,0.7-1.5-0.2-2.1
		c-0.4-0.7,0.4-2,1.2-1.3C70.4,39.8,70.9,41.3,69.9,41.8z M78.8,40.4c-0.9-0.5-1.4-1.5-1.8-2.4c-0.6-1.4-0.6-3.3-0.5-4.7
		c0.6-0.6,1.2,0.3,1.6,0.8c-0.3,1.7-0.1,2.9,0.8,4.4C79.1,39,79.1,39.9,78.8,40.4z M73.5,61.9L73.5,61.9c-0.2-0.4-0.2-1.1,0.4-1
		C74,61.3,73.9,61.8,73.5,61.9z M76.2,61.9c-0.5,0.2-1.1,0.3-1.7,0.2c-0.2-0.6,0.2-1.1,0.4-1.6c0.6-0.6,1.5-0.2,2.2-0.4
		C76.9,60.8,76.6,61.4,76.2,61.9z M78.9,56.2c-0.6-0.4-0.9,0.5-1.2,0.9L77.6,58c-0.1,0-0.2,0-0.2,0.1c-0.1-0.7-0.9-1.4-0.3-2.1
		c0.4-0.7,1.3-0.8,1.9-1.2c0.1,0.2,0.1,0.7,0.4,0.8C79.3,55.7,79.2,56,78.9,56.2z M81.6,51.3l-0.2-0.2c0.3-0.5,0.7-1.2,1.2-1.3
		C82.4,50.4,82.2,51.1,81.6,51.3z M84.8,41.4c-0.5,0.1-0.3-0.7-0.7-0.8c-0.2,0.9,0.2,1.8,0.7,2.6c0.5,1.1,2.2,0.1,2.3,1.6
		c-0.1,2.3-2.9,3.1-3.9,4.8l-0.3,0c0.1-1.4,2-2.1,1.9-3.7c-0.6-0.5-1.6-1-1.7-1.7c0.1-0.7,0.7-0.9,0.8-1.6c-0.6-0.4-0.9-1.8-1.8-0.7
		c0.3-1.4,1-3.1,2.2-4c0.3,0.7,0.1,1.5,0.4,2.2C84.8,40.4,85.2,41,84.8,41.4z M91.8,33c0-0.6,0.7-0.4,0.9-0.2
		c0.6,0.6,1.3,0.9,1.3,1.8C93.2,34.3,92.6,33.6,91.8,33z M92.5,31.2c-0.3-1,0.3-1.9,0.3-2.8c1.3,1.6,0.6,4,2.8,4.9
		c0.2,0.6,0.6,1.2,0.7,1.9C94.7,34.5,94,32.3,92.5,31.2z M101,43c-0.2-0.3-0.6-0.8,0-0.9c0.3,0,0.6,0.3,0.6,0.7
		C101.5,43,101.3,43.2,101,43z M112.4,54.3c-0.5,0.2-1.1,0.9-1.7,0.4c-0.3-0.6,0.1-1.3-0.6-1.7c-0.1-0.7-1.3-1-1.2-1.8
		c-1,0,0-1.1-1-1.1c-0.1-0.8-1.2-1.1-0.9-1.9c1.4,1.9,3.3,4,5.2,5.4C112.3,53.8,112.5,54,112.4,54.3z M113.5,60.1
		c-0.5,0.1-1.2-0.1-1-0.8c0-0.6,1-0.6,1.1-1.3c0.5,0.1,0.6,0.7,0.6,1.1C114.3,59.7,113.9,60,113.5,60.1z M114.3,58.3l0.2-0.5
		c0.3,0.1,0.7,0.3,0.6,0.6l0,0.3C114.8,58.8,114.6,58.4,114.3,58.3z"/>
	<path fill="#720018" d="M67.7,12.7c0.2,0,0.2-0.1,0.3-0.2c-0.2-0.7-0.1-1.4-0.1-2.1h-0.8C67.3,11.2,67.5,12,67.7,12.7z"/>
	<path fill="#720018" d="M69,15.1c0.4-0.1,0.7-0.7,0.8-1.1c0.3-1.3,1.2-2.5,1.9-3.6h-0.5c-0.5,0.7-1.1,1.4-1.4,2.1l-0.5,0
		c0.1-0.7,0.2-1.4,0.3-2.1h-1C68.7,11.9,68.4,13.7,69,15.1z"/>
	<path fill="#720018" d="M72.4,8.9l-0.2,0c-0.2,0.5-0.6,1-1,1.5h0.5C72,9.9,72.3,9.4,72.4,8.9z"/>
	<path fill="#720018" d="M81.8-9.6l0.3,0c0.2-1.4,0.3-2.8-0.5-4C81.8-12.4,82.2-10.9,81.8-9.6z"/>
	<path fill="#720018" d="M71.5-13.3l0.1,0.5c0.2-0.1,0.1-0.3,0.1-0.4C71.6-13.2,71.6-13.3,71.5-13.3z"/>
	<path fill="#720018" d="M92.4-7.1L92.4-7.1c-0.6-1.4-1.5-2.8-2.6-3.9C90.8-9.8,91-8.1,92.4-7.1z"/>
	<path fill="#720018" d="M88.5-8l-1.5,1c-0.3,0.4-1.1,1-0.9,1.6C87-6,87.5-7.3,88.5-8z"/>
	<path fill="#720018" d="M72.1,15.4c0.5-1.6,1.4-3.1,2.4-4.4c-0.7,0.5-1.3,1.4-1.8,2.1c-0.1,0.2-0.2,0.1-0.3,0
		c0.3-1.7,1.7-3.3,3-4.2c-0.9,0-1.6,0.9-2.2,1.4c-1.2,1.4-2.4,3.4-1.4,5.4L72.1,15.4z"/>
	<path fill="#720018" d="M89.9,18.5c0.1-0.2,0.3-0.4,0.2-0.7c0-0.3-0.6-0.6-0.7-0.1C89.6,18,89.5,18.5,89.9,18.5z"/>
	<path fill="#720018" d="M79.8,28.4c0.2-0.5,0.4-1,0.5-1.5c-0.2-0.4,0.1-1.4-0.5-1.6C80,26.1,79.6,27.3,79.8,28.4z"/>
	<path fill="#720018" d="M72.2,25.4c0.4,0.4,1,0,1.5,0.1c-0.4-0.1-0.8-0.3-1.2-0.5C72.3,25,72.2,25.2,72.2,25.4z"/>
	<path fill="#720018" d="M85.6,31.3c1.8-0.5,3-2.5,4.6-3.1C88.4,28.4,87,30.1,85.6,31.3z"/>
	<path fill="#720018" d="M61.5,37l0,0.5l0.3,0l0-0.3C61.8,37.1,61.7,36.9,61.5,37z"/>
</g>
</svg>
