<?xml version="1.0" encoding="utf-8"?>
<!-- Generator: Adobe Illustrator 19.1.0, SVG Export Plug-In . SVG Version: 6.00 Build 0)  -->
<!DOCTYPE svg PUBLIC "-//W3C//DTD SVG 1.1//EN" "http://www.w3.org/Graphics/SVG/1.1/DTD/svg11.dtd">
<svg version="1.1" xmlns="http://www.w3.org/2000/svg" xmlns:xlink="http://www.w3.org/1999/xlink" x="0px" y="0px"
	 viewBox="33 -33 100 100" enable-background="new 33 -33 100 100" xml:space="preserve">

<g id="AREA_2">
	<g>
		<g>
			<path fill="none" stroke="#FDBB2D" stroke-width="2.0459" stroke-linejoin="round" stroke-miterlimit="10" d="M124.5,20.8
				c-0.9-2-2-4-2.5-6.2c-0.8-2.2-0.8-4.7-2.2-6.7c-1.4-1.9-0.3-4.9-2.1-6.6l-0.7,0.4L116.3,5c0,0.4-0.5,0.6-0.8,0.7
				c-2.1-1.3-4.5-2.1-7.1-2.3c-2.3,0.2-3.9-2-6.3-1.3v0c-0.1,0.3-0.4,0.7-0.8,0.7c-1.9-0.4-3.4-1.7-5.2-2.2c-0.9,0.1-2-0.7-2.6,0.3
				c-0.1,0.6-0.4,1.2,0.2,1.6c0,0.3,0,0.7-0.3,1c-1.1-0.1-2.2-0.3-3.3-0.4C90,3.3,89.9,3.7,90,4c0.5,1,1.5,1.8,1.9,2.9
				c-1.2,1-2.7,1.2-4.1,1.7C82,10.7,76.6,7,70.8,8.9c-3.1,0.8-5.1,4.5-8.4,4.7c-3.1,0.4-4.1-3.8-7.1-3.6c-3.9,0.6-8.4,0.7-11.8-1.5
				c-0.9-0.4-2.1-0.5-2.8,0.1c-0.4,1.2,0.4,2.2,1.2,3c2,1.4,3.8,3.4,6.3,3.7c3.4-0.3,6.9-0.2,9.5,1.5c1.6,0.5,3.5,0.3,5,1.3
				c1.9,4.8,6.1,9.4,10.8,12c-0.1,0.9,0.5,1.5,0.9,2.2c0.3,0.6-0.2,1.7,0.8,1.8c0,0.6,0.5,1,1,1.2c2.2,0.5,4.8,0.4,6.8,1.6
				c-1.1,1.1-2.6,1.8-4.2,2.1c-0.7,0.5-1,1.3-0.9,2.2c0.2,0.5,0.2,1.2,0.9,1.4c2.2-0.9,4.1-2.6,6.5-3.1c0.4,0.6,0.9,1.2,1.4,1.5
				c2.2,0.7,4.4,2,5.6,4.2h1c0.4-0.1,0.9-0.5,1-0.9c0.9-1.1-0.8-1.3-0.9-2.3c0-2.6-2-4.5-4.2-5.5c0-0.3,0.2-0.6,0.3-0.9
				c0.9-0.5,1.9-0.9,2.9-1.2c2.6-0.6,4.8,1.5,7.3,0.4c1-1.2,1.2-2.7,1.3-4.1c0-3.4-1.7-6.2-1.2-9.5c2.2-4,6.4-6.1,10.5-6.9
				c0.7-0.1,1.5-0.1,2.2,0c0.9,1.9,2.8,3.4,4.7,4.3c2.3,1.3,2.4,4.2,4.7,5.5c0.6,0.2,0.9,0.4,1.5,0.1
				C124.5,23.7,124.7,22.2,124.5,20.8z M91.8,27.5c-0.2,2.2-1.8,3.6-3.5,4.9c-0.3-0.3-0.5-0.6-0.8-0.7l-1,2.6l-0.3,0.1
				c-2.5,0.3-5.3-0.6-6.8-3c-1.9-2.5-2.4-5.8-1.9-9.1l2.3,0l10.6,1.8C91.3,24.8,92.1,26.1,91.8,27.5z M97.2,32.3
				c-1.3,1.3-3,0-4.4-0.3l0-0.6l1.9-3c0.6-0.4,1.1,0.2,1.6,0.4c0.5,0.3,0.8,0.9,1,1.4C97.6,30.9,97.6,31.6,97.2,32.3z"/>
		</g>
	</g>
</g>
<g id="AREA_1">
	<g>
		<g>
			<path fill="#720018" d="M124.5,20.8c-0.9-2-2-4-2.5-6.2c-0.8-2.2-0.8-4.7-2.2-6.7c-1.4-1.9-0.3-4.9-2.1-6.6l-0.7,0.4L116.3,5
				c0,0.4-0.5,0.6-0.8,0.7c-2.1-1.3-4.5-2.1-7.1-2.3c-2.3,0.2-3.9-2-6.3-1.3v0c-0.1,0.3-0.4,0.7-0.8,0.7c-1.9-0.4-3.4-1.7-5.2-2.2
				c-0.9,0.1-2-0.7-2.6,0.3c-0.1,0.6-0.4,1.2,0.2,1.6c0,0.3,0,0.7-0.3,1c-1.1-0.1-2.2-0.3-3.3-0.4C90,3.3,89.9,3.7,90,4
				c0.5,1,1.5,1.8,1.9,2.9c-1.2,1-2.7,1.2-4.1,1.7C82,10.7,76.6,7,70.8,8.9c-3.1,0.8-5.1,4.5-8.4,4.7c-3.1,0.4-4.1-3.8-7.1-3.6
				c-3.9,0.6-8.4,0.7-11.8-1.5c-0.9-0.4-2.1-0.5-2.8,0.1c-0.4,1.2,0.4,2.2,1.2,3c2,1.4,3.8,3.4,6.3,3.7c3.4-0.3,6.9-0.2,9.5,1.5
				c1.6,0.5,3.5,0.3,5,1.3c1.9,4.8,6.1,9.4,10.8,12c-0.1,0.9,0.5,1.5,0.9,2.2c0.3,0.6-0.2,1.7,0.8,1.8c0,0.6,0.5,1,1,1.2
				c2.2,0.5,4.8,0.4,6.8,1.6c-1.1,1.1-2.6,1.8-4.2,2.1c-0.7,0.5-1,1.3-0.9,2.2c0.2,0.5,0.2,1.2,0.9,1.4c2.2-0.9,4.1-2.6,6.5-3.1
				c0.4,0.6,0.9,1.2,1.4,1.5c2.2,0.7,4.4,2,5.6,4.2h1c0.4-0.1,0.9-0.5,1-0.9c0.9-1.1-0.8-1.3-0.9-2.3c0-2.6-2-4.5-4.2-5.5
				c0-0.3,0.2-0.6,0.3-0.9c0.9-0.5,1.9-0.9,2.9-1.2c2.6-0.6,4.8,1.5,7.3,0.4c1-1.2,1.2-2.7,1.3-4.1c0-3.4-1.7-6.2-1.2-9.5
				c2.2-4,6.4-6.1,10.5-6.9c0.7-0.1,1.5-0.1,2.2,0c0.9,1.9,2.8,3.4,4.7,4.3c2.3,1.3,2.4,4.2,4.7,5.5c0.6,0.2,0.9,0.4,1.5,0.1
				C124.5,23.7,124.7,22.2,124.5,20.8z M91.8,27.5c-0.2,2.2-1.8,3.6-3.5,4.9c-0.3-0.3-0.5-0.6-0.8-0.7l-1,2.6l-0.3,0.1
				c-2.5,0.3-5.3-0.6-6.8-3c-1.9-2.5-2.4-5.8-1.9-9.1l2.3,0l10.6,1.8C91.3,24.8,92.1,26.1,91.8,27.5z M97.2,32.3
				c-1.3,1.3-3,0-4.4-0.3l0-0.6l1.9-3c0.6-0.4,1.1,0.2,1.6,0.4c0.5,0.3,0.8,0.9,1,1.4C97.6,30.9,97.6,31.6,97.2,32.3z"/>
		</g>
	</g>
</g>
</svg>
