<?xml version="1.0" encoding="utf-8"?>
<!-- Generator: Adobe Illustrator 19.1.0, SVG Export Plug-In . SVG Version: 6.00 Build 0)  -->
<!DOCTYPE svg PUBLIC "-//W3C//DTD SVG 1.1//EN" "http://www.w3.org/Graphics/SVG/1.1/DTD/svg11.dtd">
<svg version="1.1" xmlns="http://www.w3.org/2000/svg" xmlns:xlink="http://www.w3.org/1999/xlink" x="0px" y="0px"
	 viewBox="33 -33 100 100" enable-background="new 33 -33 100 100" xml:space="preserve">

<g id="AREA_2">
	<g>
		<path fill="#FDBB2D" d="M94.7,18.2c0.2,0.6,0.6,1.1,1.1,1.4c1.5,1,3.2,2.3,5.2,1.6c-1.1-0.4-2.5-0.5-3.2-1.8
			c-0.2-0.9,0-1.9,0.7-2.5c0.3,0.2,0.7,0.4,0.9,0.8c-0.2,1,1,1.1,1.5,1.6c0.9,0.6,2.2,0.1,3.1,0.6c0.5-0.5,1.1-1,1.6-1.6
			c-1.6-1.5,0.9-2.7,0.8-4.2c0.4-1.4-1-2.4-1.2-3.7c-0.8-0.8-0.8-1.9-1.5-2.7c-0.9-1.1-0.1-3-0.7-4.3c-0.9-0.6-0.1-1.9-1.1-2.5
			c0-1.4,0-2.9,0.6-4c-0.1-5.1-0.3-10.2,3.4-13.8c0.3-0.6,0.2-1.2-0.1-1.8c-0.2-0.3-0.5-0.6-0.9-0.6c-0.8-0.2-1.2,0.5-2,0.3
			c-1.6,1.3-0.8,3.6-1.1,5.5c-0.8,0.6-1.1,1.6-1.1,2.6c-0.4,0.2-0.7,0.5-0.9,0.9c0.2,0.6-0.3,0.9-0.6,1.3C99.5-7.7,98-7.2,98.4-6
			c-0.1,0.6,0.5,1.3-0.4,1.6v2.7l0.1,0.1c0.1,0,0.3,0.3,0.4,0.1l1.3-2.6C100-4.4,99.7-5,100.2-5c0.6-0.3,0.3,0.5,0.6,0.7
			c0.1,0.7,0,1.4-0.5,1.8c-0.2,0.8-0.3,1.7,0.4,2.3c-0.4,0.3-0.8,0.5-1.3,0.7c-0.2-0.3,0-0.8-0.3-1c-0.2-0.2-0.4-0.1-0.7-0.1
			c-0.1,0.1,0,0.3-0.1,0.5c-0.2,2.2-0.9,5,0.6,6.9c-0.4,2.5,0.7,4.5,0.5,6.9l-0.1,0.1c-1.3,0.2-2.7,0.2-3.6,1.2
			C95.4,16.1,94.3,17,94.7,18.2z"/>
		<path fill="#FDBB2D" d="M55.7-13.8c-0.5,0.4-1,0.8-1.1,1.4c0.2,0.2,0.4,0.4,0.7,0.5c0.4-0.1,0.6-0.4,0.8-0.7
			C56-12.9,56.4-13.8,55.7-13.8z"/>
		<path fill="#FDBB2D" d="M60.5-11.7c-0.4,0.8-0.8,1.6-1.1,2.4l2.3,3c0.3,0.1,0.5,0.3,0.9,0.2c0.7-0.6,1-1.4,1.3-2.3
			c0.2-0.6,0-1.3-0.5-1.7C62.4-10.8,61.6-11.6,60.5-11.7z"/>
		<path fill="#FDBB2D" d="M59.6-7.1c-0.5,0.7-0.8,1.5-0.7,2.4c0.2,0.4,0.4,0.8,0.8,1c0.4,0.1,0.7-0.1,1-0.2
			C60.9-5.1,60.6-6.4,59.6-7.1z"/>
		<path fill="#FDBB2D" d="M82.2,6c0.3-1.4-0.3-2.6-1.4-3.4C79,1.4,77,0,75.7-1.7C74.9-3,73.5-4.1,72-4.1c-1.1,0-1.8-1.1-2.9-1.5
			l-1.5,2.9c-0.4,0.4-0.8,0.8-0.7,1.4l2.5,1.2c0.7,0.4,1.2-0.5,2-0.3c0.3,0.1,0.7,0.3,0.9,0.7c0.3,0.6,0.1,1.2,0,1.8
			c1.4,1.1,1.5,2.8,2.6,4c0.9,0.8,1,1.9,1.5,2.9c0.3,0.6,0.8,1,1.5,1C80,9.6,81.6,7.8,82.2,6z"/>
		<path fill="#FDBB2D" d="M83.6,4.3c0.6-0.2-0.1-0.7-0.1-1c-0.7-1.8-2.3-3.3-3.1-5.1L79.4-2c-0.3-0.2-0.6-0.5-0.7-0.8
			c-0.9-0.1-1.9,0-2.7-0.4l-0.2,0.5c2.3,2.2,4.5,4.2,6.6,6.2C82.9,3.7,83,4.4,83.6,4.3z"/>
		<path fill="#FDBB2D" d="M79,16.2c0.9,1.7,2.9,1.1,4.1,2.3c0.8-0.3,1.3,0.5,1.9,0.7c0.4-0.9,1.3-1.6,1.4-2.6c-0.3-2,0.8-3.4,2-4.8
			l-2.1-2.1l-0.1-0.3c-0.2-1-1.5-1.3-2-2.1C83.5,10,80.8,12,78.4,13C78.4,14,78.2,15.3,79,16.2z"/>
		<path fill="#FDBB2D" d="M116.4,13.9l0.4-0.4c-0.3-0.6-0.8-1.1-1.4-1.4c-0.4-0.2-1.2,0.2-1.2-0.5c-0.3-0.6-0.9-0.1-1.4-0.3
			c-0.1,0.2-0.2,0.3-0.2,0.5C114,12.2,115.4,12.7,116.4,13.9z"/>
		<path fill="#FDBB2D" d="M90.7,26.5c-1.1-1.8,0-3.8,0.4-5.6c0.1-0.5-0.5-0.8-0.5-1.2c0.8-1.1-0.2-3,0.9-4c0.5-0.9,0.4-2,0.7-3
			c0.2-0.4,0.7-0.5,1-0.7c-0.8-0.1-1.6-0.4-2.3-0.7c-1.5,0.8-3.3,1.9-3.7,3.7c0,2.2-0.7,4-1.3,6c-0.3,0.9-0.5,1.9-1,2.7
			c-0.2,0-0.4,0-0.6,0c0.3-0.7,0.8-1.6,0.2-2.3c-2.2,0.5-4.7,1.8-5.5,4.1c-0.2,1,0,2,0.6,2.7c1.9,1.9,3.6,4.4,6,5.3
			c0.7,0.1,1.4-0.1,1.8-0.7c0.9-1.4,2.7-2.6,2.1-4.7C89.8,27.6,90.3,27.1,90.7,26.5z"/>
		<path fill="#FDBB2D" d="M102.4,22.6c-2.2-0.8-4.9,0.6-6.7-1.1c-0.7-0.5-1.6-0.8-1.9-1.7c-0.5-1.8-0.6-4.3,1.1-5.6
			c-0.1-0.3-0.2-0.5-0.4-0.8c-0.5-0.3-0.9-0.3-1.4-0.2c-0.4,0.6-0.6,1.4-0.2,2.1c-1.7,2-1.1,5.1-1.4,7.4c0,0.7-0.2,1.6,0.2,2.2
			c2.1,1.1,4.3,2,6.5,2.9c0.3,0.2,0.6,0.1,0.9-0.1c-0.1-0.9,0.1-1.7,0.3-2.5c0.1-1.1,1.4-1.5,2.3-1.8
			C101.8,23.1,102.3,22.8,102.4,22.6z"/>
		<path fill="#FDBB2D" d="M113.2,13.9c-0.6,0.4-0.8,1.1-0.7,1.9c0,0.7-0.6,1.2-1.1,1.5c-0.2,1.6,0.2,3,1,4.2
			c0.5,0.6,1.3,1.3,2.2,1.1c0.4-0.1,0.6-0.4,0.8-0.7c0.5-1.6,2.2-2.7,1.7-4.6C116.5,15.6,114.8,14.4,113.2,13.9z"/>
		<path fill="#FDBB2D" d="M109.2,20.4c-0.1-0.3-0.3-0.5-0.6-0.5c-0.5,1.5,1.2,2.1,1.8,3.2h0.1c0,0,0-0.1,0.1-0.1
			C111.2,21.7,109.1,21.5,109.2,20.4z"/>
		<path fill="#FDBB2D" d="M107.6,21.3c-0.1-0.3,0-0.7,0.1-1c-0.1-0.1-0.3-0.2-0.5-0.2c-1,3.1-4.4,3.4-6.6,5.1
			c-0.3,0.4-0.6,0.8-0.4,1.4c1.1,1.3,2.9,1.4,4.5,1.2c-0.1-0.1-0.3-0.2-0.4-0.2c-0.4-0.3-0.3-0.7-0.4-1.1c0.4-0.3,0.8-0.6,1.2-0.9
			c0.3-0.1,0.6,0,0.9,0.1c0.6,0.2,0.1,0.7,0.2,1c0.2,0.1,0.4,0.5,0.7,0.4l1.7-1.5v-3.4c0.1-0.2,0.4-0.3,0.4-0.5l-0.7,0.1
			C108,21.6,107.7,21.6,107.6,21.3z"/>
		<path fill="#FDBB2D" d="M58.8,28.5c1.3-1,0.4-2.6,0.3-3.9h-0.4c-2,1.9-4.4,3.8-5.7,6.2c-0.4,1.6,0.8,2.7,1.5,3.9
			c0.2,0,0.4-0.2,0.5-0.3C55.7,32.3,57.5,30.5,58.8,28.5z"/>
		<path fill="#FDBB2D" d="M91.7,27.2c-0.2,0.3-0.2,0.6-0.4,0.9c-0.1,0.5-0.8,1-0.3,1.6c-0.6,0.6-1.2,1.1-1.1,2.1
			c0.1,0.2,0.1,0.4,0.3,0.5c1.5-0.8,3-2,3.6-3.6C93.6,27.4,92.1,28.1,91.7,27.2z"/>
		<path fill="#FDBB2D" d="M64.2,31.8c0.3-2.1-2.1-3.2-3.4-4.1c-1.4,2-3.1,3.8-4.2,6l-0.5,0.2c-0.8,1.4-1.8,2.9-1.4,4.9l4.5,4.5
			l0.6,0.3l1.6-1.3c0.8-0.9,1.7-2,1.3-3.3c-0.5-0.7-1.4-1.2-2.3-1c0.1-0.2,0.1-0.4,0.2-0.6c1-0.2,1.9-0.5,2.8-1.1
			c1.2-0.7,1.8-1.9,1.7-3.2C65,32.5,64.6,32,64.2,31.8z"/>
		<path fill="#FDBB2D" d="M103.3,30.3l0.2,1c-0.2,1.9-0.4,3.9,0.5,5.6c-0.3,1.7,0.4,3.1,1.6,4.3v1.4c-0.3,0.1-0.6,0.1-0.9,0
			c0.1-0.2,0.1-0.5,0-0.6c-0.2-0.1-0.3-0.3-0.5-0.2c-0.2,2.6,0.1,5.2,1.2,7.4c1,1.7,0.8,4.3,0.2,6.1l0.2,0.4l0.5-0.8
			c0.6,0.3,1.3,0.9,1.5,1.7c0,0.6,0.6,1,1,1.5l0.3-0.4c0.3-0.6-0.3-1-0.6-1.4c-0.6-0.8-0.2-1.9-1.1-2.6c0-2.1,0-4.1,0.4-6.1
			c0-1.8,0.3-3.8-0.3-5.3c-0.3-0.6-0.8-0.3-1.3-0.4c-0.4-1.1,0.4-1.9,0.9-2.6c-0.3-0.2-0.7-0.4-0.8-0.8c-0.1-0.4-0.1-0.9,0.3-1.1
			c0.5-0.5,0.5,0.5,0.8,0.5c0.1-2.5,1.8-4.8,0.7-7.3C107,29.1,104.9,30.3,103.3,30.3z"/>
		<path fill="#FDBB2D" d="M94.4,31.1c-1,0.8-0.8,2.2-0.8,3.3c0.2,1,0,2.2,0.9,2.9c0.6,0.4,1.5,0.4,2.2,0.2c0.6-0.3,0.7-0.8,0.7-1.4
			c-1,0.1-1.9-0.1-2.5-0.8c-0.2-0.6,0.3-1.1,0.7-1.6c0.3-0.1,0.6,0,0.9,0c0.2,0.2,0.3,0.4,0.4,0.6l0.6-0.8c0.4-0.5-0.5-0.6-0.6-1
			c-0.2-0.5-0.1-1.1,0-1.6c-0.2-0.2-0.3-0.2-0.5-0.4C95.7,30.1,94.9,30.7,94.4,31.1z"/>
		<path fill="#FDBB2D" d="M92,35.4l-0.4,0.4c-0.1,0.3,0,0.6,0.2,0.8c0.1-0.2,0.3-0.3,0.4-0.5C92.3,35.8,92.3,35.5,92,35.4z"/>
		<path fill="#FDBB2D" d="M93.5,38.4l1.8,0.6c0.3,0.2,0.6-0.1,0.7-0.2c-0.8-0.3-1.5-0.7-2.3-0.9L93.5,38.4z"/>
		<path fill="#FDBB2D" d="M65.5,49.2c0.5-0.4,1-0.9,1.6-0.9c0.4,0,0.8,0.4,1,0c0.2-0.3,0.2-0.7-0.1-0.9c-0.7-0.1-0.4-0.9-0.5-1.3
			c-0.1-0.4-0.5-0.8-0.9-0.8l-2.2,2.3C64.4,48.2,65,48.8,65.5,49.2z"/>
		<path fill="#FDBB2D" d="M69.2,50.8c0.5-0.3,0.5-0.9,0.4-1.3c-0.1-0.4-1-0.6-1,0c-0.2,0.6,0,1.1,0.4,1.6L69.2,50.8z"/>
		<path fill="#FDBB2D" d="M69.7,56.5c1.8-1.2-0.5-2.4-0.7-3.7C68.8,54.1,69.1,55.4,69.7,56.5z"/>
		<path fill="#FDBB2D" d="M61.4,53.3c-0.6,0.4,0.1,0.8,0.4,1.1c0.3,0.1,0.6,0,0.8-0.2l0-0.2C62.2,53.7,61.8,53.3,61.4,53.3z"/>
		<path fill="#FDBB2D" d="M69.9,59.3c0.6,0.2,1.3,0.3,1.9,0.1c0.3-0.2,0.9-0.3,0.8-0.8c-0.2-0.7-0.9,0-1.3,0.1
			c-0.4,0.1-0.9,0-1.2-0.1C70,58.8,69.9,59,69.9,59.3z"/>
	</g>
</g>
<g id="AREA_1">
	<g>
		<path fill="#720018" d="M118.9,16.9c-0.5-0.8-1.1-1.6-0.9-2.6c-0.1-1.2-1.2-2.1-2.1-3c-1.5,0.3-2.4-1.6-3.9-0.6
			c-0.5,0.2-0.9,1.3-1.5,0.6c-1.3-0.2-2.2,1.1-3.1,2h-0.2c-0.4-0.3-0.5-0.7-0.4-1.1c-1.1-1.6-2.3-3.2-2.7-5c0.2-2.9-0.4-5.5-1.6-7.8
			c0.3-0.3,0.5-0.7,0.6-1.1c0-2.3,0.3-4.7,0.4-6.9c0-0.7,0.1-1.4,0.2-2.1c0.3-0.4,0.1-0.8,0.3-1.2c0.1-1.1,0.3-2.1,1.1-2.9
			c1.3-1,2.2-2.5,1.9-4.1c0-0.5,0-0.7-0.2-1.1c-1.1-1.1,0.3-3.2-1.3-3.8c-0.3,0-0.4,0-0.4,0.3c-0.1,0.3-0.4,0.4-0.7,0.4
			c-0.7-0.7-0.6,0.4-1.3,0.4c-0.8,0.3-1,1.2-1.1,1.9c0.3,1.9-1.3,3.1-0.8,5.2c-0.1,3.9-3.9,6.2-3.9,10.1c0.1,3.6-0.1,7.6-0.2,10.7
			c0.1,2.7,1.7,4.8,1.3,7.7c-0.8,0.7-2.1,0.1-3.1,0.3L95,13.1c-1.3-0.5-1-2-1.4-3c-1.4-1.3-3.8-0.6-5.4,0c-0.9-0.8-1.6-1.7-2.1-2.7
			c-1-3.5-2.5-6.8-5-9.6c-1-1.7-2.9-1.3-4.5-1.4c-5.9-0.5-9.8-5.2-14.3-8.5c0.1-0.8-1-1.1-0.7-2c-0.9-0.2-1.8-0.6-2.3-1.5
			c-0.9-3-0.2-6.6-0.7-9.7l-1.1-0.9c-0.9,0.2-2,1.1-2.2,2c-0.3,1-0.9,1.9-1.2,2.9c0,0.6,0.5,1.5-0.2,2c-0.2,0.9-0.4,2-0.9,2.9
			c-0.8,1.1-1,2.2-0.8,3.6c-0.1,1.2,1.4,1.3,2.1,1.8c1.9-0.1,3,1.5,4.4,2.6c0.2,0.5-0.1,1-0.3,1.4c-0.6,1-0.4,2.5-0.2,3.6
			c1.8,0.6,3.7,0.9,5.8,0.9c0.5,0.5,1.1,1.1,1.6,1.6c1.9,1.6,4.8,1.2,6.4,3.4c0.7,1.1,1.6,2.2,1.6,3.6c0.2,0.3,0.6,0.3,0.9,0.6
			c0.2,1.3,1.4,1.9,1.7,3.2c0.1,1.7,2,2.8,1.3,4.6c-0.4,0.6,0.7,1,0.4,1.7c-0.2,0.1-0.3,0.4-0.6,0.3c-4.2-1.4-8.4,0.3-11.5,3.1
			c-2.3,1.6-5.2,1.9-7.3,4c-2.2,2.1-5.2,4.2-6.1,7c-0.3,1.5-0.1,3,1,4.1c1.4,1.4-0.1,3.5,0.9,5.1l5.8,5.8c0,1.4,0.2,3,0.3,4.3
			l1.5,0.2c0.6,1.8-1.9,2.5-1.8,4.3c0.3,0.6,0.9,1.2,1.6,1.3c1.1,0.3,2.4,0,3.3-0.8c0.1-0.4-0.1-1,0.4-1.3c0.2-0.2,0.5-0.2,0.8-0.2
			c0,0.3,0,0.5,0,0.8c0.4,0.6,1.1,0.6,1.8,0.7l0.3,0.8c1,1,0.7,2.4,0.7,3.7c0.1,0.7,0.9,1.1,1.4,1.3c1.3,0.2,2.5-0.3,3.3-1.3
			c1-1.5,1-3.9,0-5.5c-0.2-0.7-0.6-1.3-1-1.9c-0.7-1.2-0.7-2.6-0.6-4.1c-0.6-0.6-1.3-1.1-2.1-1.3c-0.3-0.2-0.8,0.1-1.1-0.2
			c-0.9-3.4-2.8-6.8-6-8.7c0-0.2,0-0.4,0.2-0.5c1.7-0.4,3-1.8,4.2-3.1l1.9-0.2c2.6,0,4.1-2.6,5.9-4.2c1.1-0.7,2,0.4,3,0.8
			c3.4,0.8,5.8,4,9.3,4.3l0.1,0.1c0.3,1.8,0.4,3.7,2.1,4.9c2.2,1.1,4.5,0.8,6.9,0.5c0.8,0.1,0.6-0.6,0.7-1.1c0.8-0.4,1.5-0.9,2-1.7
			c-0.8-1.2-0.7-2.8-0.6-4.3c0.6-0.1,0.5-0.8,0.4-1.2l-0.6-0.5c-0.4-0.3-0.4-0.9-0.3-1.3c-0.6-0.5-1.3-1.1-1.2-2
			c0.2-0.1,0.3-0.2,0.6-0.2c1,0.6,2,0.9,3.1,1.1c1,0.5,1.4,1.6,2.3,2.3v4.5l0.5,0.3c-0.1,1.5,0.3,2.7,0.6,4
			c-1.2,1.7-0.6,4.2,0.1,5.9c0.3,0.7-0.1,1.7,0.3,2.3c1,0.9,0.6,2.3,1.1,3.4c-0.5,1.7-0.8,3.6-0.7,5.3l1.9-0.2
			c0.6,0.7,1.3,1.3,2,1.9c0.9,0.5,2.1,0.4,3,0.1v-0.7c-1.4-1.2-2.5-3-2.9-4.8c0-0.3,0-0.5-0.1-0.7c-0.1-1.9,0.2-3.5,0.4-5.3
			c0-0.7,0.1-1.3,0.1-2l-0.1-0.3c0.1-1.2-0.5-2.3-0.5-3.5c-0.4-1.8-0.2-3.8,0.3-5.6c1-1.6,0.3-3.5,0.5-5.2c0.5-1.8,1-3.9,0.6-5.7
			c-0.1-0.5-0.2-1.2,0.3-1.6c0.4,0.1,0.8,0.2,1.3,0.2c0.2-0.1,0.5-0.1,0.5-0.4c0.2-0.6,0.7-0.4,1.1-0.3c1.5,0.5,3,0,3.9-1.3
			c0.1-0.5,0-0.9,0.3-1.3c0.9-0.8,0.6-2.1,0.7-3.1C118,17.2,118.5,17.1,118.9,16.9z M56-12.6c-0.2,0.3-0.4,0.7-0.8,0.7
			c-0.3,0-0.5-0.3-0.7-0.5c0.2-0.6,0.7-1,1.1-1.4C56.4-13.8,56-12.9,56-12.6z M60.7-3.8c-0.3,0.1-0.6,0.3-1,0.2
			c-0.4-0.2-0.6-0.6-0.8-1c-0.2-0.9,0.2-1.7,0.7-2.4C60.6-6.4,60.9-5.1,60.7-3.8z M63.8-8.4c-0.3,0.8-0.6,1.6-1.3,2.3
			c-0.3,0.1-0.6-0.1-0.9-0.2l-2.3-3c0.3-0.8,0.7-1.6,1.1-2.4c1.1,0.1,1.9,1,2.9,1.6C63.8-9.7,64-9,63.8-8.4z M53,30.9
			c1.3-2.4,3.7-4.3,5.7-6.2h0.4c0.1,1.3,1,2.8-0.3,3.9c-1.3,2-3.1,3.8-3.8,6c-0.2,0.1-0.3,0.2-0.5,0.3C53.8,33.6,52.7,32.5,53,30.9z
			 M61.8,54.4c-0.3-0.3-1-0.7-0.4-1.1c0.4,0,0.8,0.4,1.1,0.8l0,0.2C62.4,54.4,62,54.5,61.8,54.4z M71.3,58.7
			c0.4-0.2,1.1-0.8,1.3-0.1c0.1,0.5-0.5,0.6-0.8,0.8c-0.6,0.2-1.3,0.1-1.9-0.1c0-0.2,0.1-0.5,0.2-0.7C70.4,58.7,70.9,58.8,71.3,58.7
			z M69.7,56.5c-0.5-1.1-0.9-2.4-0.7-3.7C69.2,54,71.5,55.3,69.7,56.5z M68.6,49.5c0-0.6,0.9-0.4,1,0c0.1,0.5,0.1,1-0.4,1.3L69,51
			C68.7,50.6,68.4,50,68.6,49.5z M64.5,47.5l2.2-2.3c0.4,0.1,0.8,0.4,0.9,0.8c0.2,0.4-0.2,1.2,0.5,1.3c0.2,0.2,0.3,0.7,0.1,0.9
			c-0.2,0.3-0.7-0.1-1,0c-0.6,0-1.1,0.6-1.6,0.9C65,48.8,64.4,48.2,64.5,47.5z M63.3,36.2c-0.9,0.5-1.8,0.9-2.8,1.1
			c-0.2,0.2-0.2,0.4-0.2,0.6c0.9-0.1,1.9,0.3,2.3,1c0.5,1.3-0.5,2.3-1.3,3.3l-1.6,1.3l-0.6-0.3l-4.5-4.5c-0.5-1.9,0.5-3.4,1.4-4.9
			l0.5-0.2c1-2.2,2.8-3.9,4.2-6c1.4,0.9,3.7,2,3.4,4.1c0.4,0.3,0.8,0.7,0.9,1.2C65.1,34.3,64.5,35.5,63.3,36.2z M95.7,15.1
			c1-1,2.3-1,3.6-1.2l0.1-0.1c0.2-2.4-0.8-4.4-0.5-6.9C97.5,5,98.2,2.2,98.4,0c0.1-0.1,0-0.3,0.1-0.5c0.2-0.1,0.4-0.1,0.7,0.1
			c0.3,0.3,0.1,0.7,0.3,1c0.4-0.2,0.9-0.4,1.3-0.7c-0.6-0.6-0.6-1.6-0.4-2.3c0.5-0.5,0.6-1.1,0.5-1.8c-0.3-0.2,0-1-0.6-0.7
			c-0.5,0-0.3,0.6-0.4,0.9l-1.3,2.6c-0.2,0.2-0.3-0.1-0.4-0.1L98-1.7v-2.7c0.8-0.3,0.2-1,0.4-1.6c-0.3-1.2,1.1-1.7,0.8-2.9
			c0.3-0.4,0.8-0.7,0.6-1.3c0.2-0.4,0.5-0.7,0.9-0.9c0-1,0.3-2,1.1-2.6c0.4-1.8-0.5-4.2,1.1-5.5c0.7,0.2,1.2-0.4,2-0.3
			c0.4,0,0.7,0.2,0.9,0.6c0.3,0.6,0.3,1.2,0.1,1.8c-3.8,3.6-3.5,8.8-3.4,13.8c-0.6,1.1-0.7,2.6-0.6,4c1,0.6,0.3,1.9,1.1,2.5
			c0.5,1.3-0.2,3.1,0.7,4.3c0.6,0.8,0.7,1.9,1.5,2.7c0.2,1.3,1.7,2.3,1.2,3.7c0.1,1.5-2.4,2.7-0.8,4.2c-0.6,0.6-1.1,1.1-1.6,1.6
			c-0.9-0.4-2.2,0-3.1-0.6c-0.5-0.5-1.6-0.6-1.5-1.6c-0.2-0.3-0.6-0.6-0.9-0.8c-0.7,0.6-0.8,1.6-0.7,2.5c0.6,1.2,2,1.4,3.2,1.8
			c-1.9,0.8-3.7-0.5-5.2-1.6c-0.5-0.3-1-0.9-1.1-1.4C94.3,17,95.4,16.1,95.7,15.1z M76-3.3c0.8,0.4,1.8,0.3,2.7,0.4
			c0.1,0.3,0.4,0.6,0.7,0.8l0.9,0.2c0.8,1.8,2.3,3.3,3.1,5.1c0,0.3,0.7,0.8,0.1,1c-0.6,0.1-0.6-0.6-1.1-0.8c-2.1-2-4.3-4-6.6-6.2
			L76-3.3z M76.5,8.9c-0.5-1-0.6-2.1-1.5-2.9c-1.1-1.2-1.2-2.9-2.6-4c0.1-0.6,0.3-1.2,0-1.8c-0.2-0.4-0.6-0.6-0.9-0.7
			c-0.8-0.2-1.3,0.7-2,0.3l-2.5-1.2c-0.1-0.5,0.3-1,0.7-1.4l1.5-2.9c1,0.3,1.7,1.4,2.9,1.5c1.5,0,2.9,1.1,3.6,2.4
			C77,0,79,1.4,80.8,2.6c1.1,0.8,1.7,2,1.4,3.4c-0.6,1.8-2.2,3.6-4.2,4C77.4,10,76.8,9.5,76.5,8.9z M78.4,13c2.4-1,5.1-3,5.9-5.7
			c0.5,0.8,1.8,1.1,2,2.1l0.1,0.3l2.1,2.1c-1.1,1.4-2.3,2.8-2,4.8c-0.2,1-1.1,1.6-1.4,2.6c-0.7-0.2-1.1-1-1.9-0.7
			c-1.2-1.3-3.2-0.6-4.1-2.3C78.2,15.3,78.4,14,78.4,13z M87.5,33c-0.4,0.6-1.1,0.8-1.8,0.7c-2.4-0.9-4.2-3.5-6-5.3
			c-0.6-0.8-0.8-1.7-0.6-2.7c0.8-2.3,3.4-3.6,5.5-4.1c0.6,0.7,0.1,1.6-0.2,2.3c0.2,0.1,0.4,0,0.6,0c0.5-0.8,0.6-1.8,1-2.7
			c0.6-1.9,1.2-3.8,1.3-6c0.4-1.8,2.2-2.9,3.7-3.7c0.8,0.3,1.5,0.6,2.3,0.7c-0.4,0.2-0.8,0.2-1,0.7c-0.3,1-0.2,2.1-0.7,3
			c-1.1,1-0.1,2.9-0.9,4c0,0.3,0.6,0.7,0.5,1.2c-0.4,1.8-1.4,3.8-0.4,5.6c-0.4,0.6-1,1.1-1.1,1.8C90.1,30.4,88.3,31.6,87.5,33z
			 M92.3,36.1c-0.1,0.2-0.3,0.3-0.4,0.5c-0.2-0.2-0.3-0.5-0.2-0.8l0.4-0.4C92.3,35.5,92.3,35.8,92.3,36.1z M90.1,32.2
			c-0.2-0.1-0.2-0.3-0.3-0.5c-0.1-0.9,0.5-1.5,1.1-2.1c-0.5-0.6,0.2-1.1,0.3-1.6c0.1-0.3,0.2-0.6,0.4-0.9c0.5,1,1.9,0.2,2,1.4
			C93.1,30.2,91.6,31.4,90.1,32.2z M95.2,39l-1.8-0.6l0.2-0.5c0.8,0.2,1.5,0.6,2.3,0.9C95.8,39,95.5,39.2,95.2,39z M96.9,30.8
			c-0.1,0.5-0.2,1.1,0,1.6c0.1,0.4,1,0.5,0.6,1l-0.6,0.8c-0.1-0.2-0.2-0.4-0.4-0.6c-0.3,0-0.6-0.2-0.9,0c-0.3,0.5-0.9,1-0.7,1.6
			c0.6,0.7,1.5,1,2.5,0.8c0,0.6-0.2,1.1-0.7,1.4c-0.7,0.3-1.6,0.2-2.2-0.2c-0.9-0.7-0.7-1.9-0.9-2.9c0-1.1-0.2-2.5,0.8-3.3
			c0.6-0.4,1.3-1,2.1-0.7C96.6,30.5,96.8,30.6,96.9,30.8z M99.3,25.2c-0.2,0.8-0.3,1.6-0.3,2.5c-0.2,0.2-0.6,0.3-0.9,0.1
			c-2.2-0.9-4.4-1.8-6.5-2.9c-0.5-0.6-0.2-1.5-0.2-2.2c0.3-2.4-0.3-5.5,1.4-7.4c-0.4-0.6-0.2-1.5,0.2-2.1c0.6-0.1,1-0.1,1.4,0.2
			c0.2,0.2,0.3,0.5,0.4,0.8c-1.7,1.3-1.6,3.7-1.1,5.6c0.3,0.8,1.3,1.2,1.9,1.7c1.8,1.7,4.5,0.4,6.7,1.1c-0.1,0.3-0.5,0.6-0.8,0.8
			C100.6,23.6,99.4,24,99.3,25.2z M107.5,37.9c-0.3,0-0.4-1-0.8-0.5c-0.4,0.2-0.3,0.7-0.3,1.1c0.2,0.3,0.5,0.6,0.8,0.8
			c-0.6,0.8-1.3,1.5-0.9,2.6c0.4,0.1,1-0.2,1.3,0.4c0.6,1.5,0.3,3.5,0.3,5.3c-0.3,1.9-0.4,4-0.4,6.1c0.9,0.7,0.5,1.8,1.1,2.6
			c0.3,0.4,1,0.8,0.6,1.4l-0.3,0.4c-0.4-0.4-1.1-0.8-1-1.5c-0.2-0.7-0.9-1.3-1.5-1.7l-0.5,0.8l-0.2-0.4c0.5-1.8,0.8-4.4-0.2-6.1
			c-1.1-2.2-1.3-4.8-1.2-7.4c0.2-0.1,0.3,0.1,0.5,0.2c0.1,0.2,0.1,0.5,0,0.6c0.3,0.1,0.6,0.1,0.9,0v-1.4c-1.2-1.1-1.9-2.5-1.6-4.3
			c-0.9-1.6-0.6-3.7-0.5-5.6l-0.2-1c1.6,0,3.6-1.2,4.9,0.3C109.3,33.1,107.6,35.4,107.5,37.9z M108.6,22.2v3.4l-1.7,1.5
			c-0.3,0.2-0.5-0.2-0.7-0.4c-0.1-0.3,0.4-0.9-0.2-1c-0.3-0.1-0.6-0.2-0.9-0.1c-0.4,0.2-0.8,0.5-1.2,0.9c0.1,0.4,0,0.8,0.4,1.1
			c0.2,0,0.3,0.1,0.4,0.2c-1.6,0.2-3.3,0.1-4.5-1.2c-0.2-0.5,0.1-1,0.4-1.4c2.2-1.8,5.6-2,6.6-5.1c0.2,0,0.3,0.1,0.5,0.2
			c-0.1,0.3-0.2,0.7-0.1,1c0.1,0.3,0.5,0.4,0.7,0.5l0.7-0.1C109,21.9,108.7,22,108.6,22.2z M110.6,22.9
			C110.5,22.9,110.5,23,110.6,22.9l-0.2,0.1c-0.6-1-2.3-1.6-1.8-3.2c0.3,0,0.5,0.2,0.6,0.5C109.1,21.5,111.2,21.7,110.6,22.9z
			 M112.8,11.3c0.5,0.2,1.1-0.3,1.4,0.3c0,0.7,0.8,0.3,1.2,0.5c0.6,0.2,1.1,0.8,1.4,1.4l-0.4,0.4c-1-1.2-2.5-1.7-3.9-2
			C112.6,11.6,112.6,11.5,112.8,11.3z M115.4,21.9c-0.2,0.3-0.5,0.6-0.8,0.7c-0.9,0.2-1.6-0.5-2.2-1.1c-0.8-1.2-1.2-2.5-1-4.2
			c0.6-0.3,1.2-0.8,1.1-1.5c-0.1-0.8,0.1-1.5,0.7-1.9c1.6,0.5,3.3,1.7,3.9,3.4C117.6,19.2,115.9,20.3,115.4,21.9z"/>
	</g>
</g>
</svg>
