<?xml version="1.0" encoding="utf-8"?>
<!-- Generator: Adobe Illustrator 16.0.0, SVG Export Plug-In . SVG Version: 6.00 Build 0)  -->
<!DOCTYPE svg PUBLIC "-//W3C//DTD SVG 1.1//EN" "http://www.w3.org/Graphics/SVG/1.1/DTD/svg11.dtd">
<svg version="1.1" id="Layer_1" xmlns="http://www.w3.org/2000/svg" xmlns:xlink="http://www.w3.org/1999/xlink" x="0px" y="0px"
	 width="800.453px" height="1035.881px" viewBox="0 0 620 1035.881" enable-background="new 0 0 800.453 1035.881"
	 xml:space="preserve">
<g>
	<defs>
		<rect id="SVGBK_SVGID_1_" x="14.898" y="61.378" width="725.555" height="938.954"/>
	</defs>
	<clipPath id="SVGBK_SVGID_2_">
		<use xlink:href="#SVGBK_SVGID_1_"  overflow="visible"/>
	</clipPath>
	<g clip-path="url(#SVGBK_SVGID_2_)">
		<defs>
			<rect id="SVGBK_SVGID_3_" x="14.898" y="61.378" width="725.555" height="938.954"/>
		</defs>
		<clipPath id="SVGBK_SVGID_4_">
			<use xlink:href="#SVGBK_SVGID_3_"  overflow="visible"/>
		</clipPath>
    <g id="BODY">
		<path clip-path="url(#SVGBK_SVGID_4_)" fill="#BF2A43" d="M567.844,795.836c-0.345-5.427-1.393-13.057-2.938-22.186
			c-0.619-3.651-1.318-7.542-2.082-11.628c-1.531-8.171-3.329-17.12-5.292-26.484c-1.963-9.365-4.088-19.146-6.275-28.98
			c-2.185-9.836-4.432-19.726-6.637-29.307c-7.163-31.141-13.87-59.034-16.563-71.261c-0.188-0.85-0.361-1.743-0.524-2.659
			c-0.059-0.319-0.113-0.653-0.167-0.98c-0.102-0.602-0.2-1.216-0.292-1.845c-0.063-0.419-0.123-0.843-0.182-1.273
			c-0.072-0.546-0.144-1.107-0.21-1.67c-0.061-0.502-0.123-0.998-0.179-1.513c-0.038-0.356-0.07-0.73-0.107-1.094
			c-0.138-1.389-0.262-2.813-0.367-4.288c-0.015-0.203-0.031-0.4-0.045-0.604c-0.059-0.86-0.111-1.736-0.16-2.623
			c-0.011-0.205-0.021-0.41-0.032-0.616c-0.048-0.938-0.094-1.887-0.131-2.852c0-0.003-0.001-0.005-0.001-0.008
			c-0.167-4.345-0.223-8.958-0.182-13.756c0-0.058,0-0.115,0.001-0.172c0.065-7.208,0.354-14.84,0.818-22.641
			c0.003-0.037,0.005-0.072,0.007-0.11c0.307-5.122,0.69-10.315,1.136-15.507c0.016-0.174,0.031-0.346,0.046-0.519
			c0.441-5.11,0.946-10.213,1.499-15.247c0.019-0.169,0.035-0.337,0.055-0.505c0.269-2.43,0.55-4.843,0.839-7.23
			c0.036-0.295,0.073-0.587,0.109-0.881c0.577-4.709,1.193-9.309,1.838-13.753c0.059-0.404,0.117-0.811,0.176-1.212
			c0.313-2.127,0.632-4.221,0.955-6.263c0.045-0.274,0.089-0.541,0.132-0.813c0.302-1.872,0.605-3.701,0.912-5.488
			c0.055-0.317,0.109-0.641,0.162-0.953c0.33-1.888,0.662-3.714,0.996-5.491c0.072-0.382,0.146-0.758,0.217-1.135
			c0.342-1.784,0.686-3.527,1.03-5.18c0.002-0.011,0.004-0.021,0.006-0.032c2.88-13.786,7.137-37.513,11.348-61.873
			c0.417-2.415,0.834-4.834,1.248-7.251c0.464-2.707,0.927-5.406,1.385-8.093c0.063-0.363,0.124-0.724,0.186-1.087
			c0.284-1.668,0.566-3.33,0.847-4.98c0.061-0.357,0.12-0.714,0.181-1.07c0.279-1.647,0.557-3.287,0.831-4.91
			c0.227-1.336,0.45-2.661,0.671-3.977c0.271-1.6,0.537-3.186,0.801-4.75c0.693-4.134,1.361-8.13,1.996-11.937
			c0.242-1.444,0.478-2.861,0.708-4.247c3.097-18.614,5.22-31.681,5.22-31.681s-20.938-7.71-37.345-25.21
			c-0.444-0.474-0.899-0.926-1.338-1.416c-11.165-12.474-29.084-32.309-41.626-57.012c-6.078-11.975-10.899-25.085-13.064-39.068
			c-6.632-42.831,24.313-100.711,24.313-100.711L470.93,79.35c0,0-36.793,60.352-89.553,60.352c-57.62,0-97.413-58.17-97.413-58.17
			l-24.642,20.903c0,0,31.619,39.36,18.556,118.677c-0.032,0.187-0.053,0.368-0.085,0.554
			c-5.498,32.927-24.367,55.493-42.223,69.981c-0.005-0.019-0.01-0.041-0.014-0.061c-18.67,15.144-36.232,21.459-36.232,21.459
			s0.01,0.048,0.013,0.065l-0.014,0.006c0,0,11.384,55.185,18.626,90.26c8.313,40.275,13.03,134.981,12.906,153.549
			c-0.003,0.576-0.013,1.083-0.027,1.505c-0.008,0.27-0.029,0.538-0.041,0.806c-0.075,2.011-0.184,4.021-0.325,6.028
			c-0.064,0.918-0.149,1.834-0.228,2.751c-0.115,1.366-0.238,2.731-0.38,4.092c-0.106,1.009-0.218,2.017-0.338,3.023
			c-0.15,1.275-0.315,2.547-0.487,3.815c-0.136,1.013-0.271,2.028-0.421,3.037c-0.188,1.272-0.395,2.535-0.6,3.797
			c-0.189,1.155-0.374,2.312-0.575,3.456c-0.348,1.982-0.716,3.947-1.099,5.898c-0.233,1.189-0.475,2.367-0.719,3.542
			c-0.219,1.05-0.439,2.095-0.665,3.133c-0.289,1.333-0.577,2.668-0.875,3.981c-0.048,0.213-0.099,0.42-0.147,0.632
			c-3.356,14.646-7.211,27.911-9.862,38.456c-7.504,29.871-21.991,101.108-31.938,189.085c-2.177,19.256-3.137,38.657-3.308,57.217
			c-0.615,66.27,8.833,81.927,8.833,81.927s29.233,6.466,84.493,6.466c37.567,0,60.076-3.85,70.649-6.317v0.002
			c-0.014,0.008,0.086-0.016,0.266-0.063c3.996-0.94,6.215-1.666,6.85-1.885c0.087-0.024,0.147-0.042,0.147-0.042s0-0.009,0-0.01
			c0.037-0.012,0.061-0.021,0.061-0.021s0.002-0.267,0.007-0.742c0.509-5.86,3.883-44.674,5.343-58.889
			c2.147-20.943,4.597-40.507,7.913-62.61c0.828-5.526-0.46-43.492-0.604-44.315c-0.427-2.475,14.271-9.947,24.219-8.842
			c9.882,1.098,10.635,6.67,10.646,17.58v0.299c-0.021,10.979-3.323,14.332-5.528,34.172c-0.221,16.354-0.349,25.757,0.074,35.434
			c0.146,2.733,0.31,5.521,0.496,8.355c0.488,6.592,1.251,14.103,2.407,24.384c3.288,29.228,8.378,50.521,9.161,53.698
			c0.013,0.203,0.021,0.318,0.021,0.318s0.037,0.005,0.061,0.009c0.016,0.061,0.024,0.1,0.024,0.1l3.613,0.412
			c10.183,1.392,40.167,5.229,74.175,7.104c15.263,0.842,28.953,1.177,41.643-0.623c0.01-0.002,10.104-1.245,10.113-1.246
			c16.267-2.31,18.433-0.817,24.095-2.463c0.03-0.009,0.058-0.017,0.087-0.024c0.978-0.285,1.742-0.517,2.265-0.68
			c0.078-0.023,0.123-0.037,0.19-0.059c0.151-0.047,0.276-0.087,0.377-0.118c0.079-0.026,0.121-0.039,0.167-0.053
			c0.031-0.011,0.038-0.014,0.059-0.021c0.016-0.005,0.071-0.022,0.071-0.022s0.932-3.906,2.215-9.705
			c0.107-0.484,0.215-0.981,0.327-1.489c0.223-1.017,0.454-2.082,0.69-3.186c0.118-0.551,0.239-1.112,0.359-1.683
			c0.362-1.708,0.734-3.494,1.107-5.325c1.616-7.932,3.244-16.704,4.144-23.759C572.266,909.887,570.056,830.563,567.844,795.836"/>
      <path clip-path="url(#SVGBK_SVGID_69_)" fill="#BF2A43" d="M263.037,101.31c0,0-9.7-4.007-7.935,8.793
			c1.058,7.669,28.021,36.333,15.992,114.226c-8.026,51.967-71.505,79.479-71.505,79.479s-5.843,2.609-4.946,7.31
			c1.194,6.249,4.946,5.683,4.946,5.683s75.486-24.186,84.639-100.879C292.253,148.669,263.037,101.31,263.037,101.31"/>
		
			<path clip-path="url(#SVGBK_SVGID_69_)" fill="none" stroke="#898076" stroke-width="0.547" stroke-miterlimit="10" stroke-dasharray="1.093,1.093" d="
			M263.037,101.31c0,0-9.7-4.007-7.935,8.793c1.058,7.669,28.021,36.333,15.992,114.226c-8.026,51.967-71.505,79.479-71.505,79.479
			s-5.843,2.609-4.946,7.31c1.194,6.249,4.946,5.683,4.946,5.683s75.486-24.186,84.639-100.879
			C292.253,148.669,263.037,101.31,263.037,101.31z"/>
		<path clip-path="url(#SVGBK_SVGID_69_)" fill="#BF2A43" d="M492.444,95.437c4.145,1.958,5.392,5.94,2.882,10.419
			c-1.885,3.364-29.6,28.172-19.203,102.423c8.026,57.316,79.653,101.184,79.653,101.184s9.986,5.609,8.883,10.345
			c-1.854,7.957-5.647,5.308-5.647,5.308s-82.642-43.722-93.681-122.01C455.194,131.217,487.703,93.197,492.444,95.437"/>
		
			<path clip-path="url(#SVGBK_SVGID_69_)" fill="none" stroke="#898076" stroke-width="0.547" stroke-miterlimit="10" stroke-dasharray="1.093,1.093" d="
			M492.444,95.437c4.145,1.958,5.392,5.94,2.882,10.419c-1.885,3.364-29.6,28.172-19.203,102.423
			c8.026,57.316,79.653,101.184,79.653,101.184s9.986,5.609,8.883,10.345c-1.854,7.957-5.647,5.308-5.647,5.308
			s-82.642-43.722-93.681-122.01C455.194,131.217,487.703,93.197,492.444,95.437z"/>
		<path clip-path="url(#SVGBK_SVGID_69_)" fill="#BF2A43" d="M279.121,85.239c0,0,42.667,64.01,99.959,63.43
			c65.032-0.658,97.043-65.723,97.043-65.723s-5.45-10.29-8.251-6.08c-2.8,4.213-34.126,58.264-88.062,58.812
			c-50.581,0.51-89.897-53.989-93.286-57.492C283.138,74.681,279.121,85.239,279.121,85.239"/>
		<path clip-path="url(#SVGBK_SVGID_69_)" fill="none" stroke="#898076" stroke-width="0.547" stroke-dasharray="1.093,1.093" d="
			M279.121,85.239c0,0,42.667,64.01,99.959,63.43c65.032-0.658,97.043-65.723,97.043-65.723s-5.45-10.29-8.251-6.08
			c-2.8,4.213-34.126,58.264-88.062,58.812c-50.581,0.51-89.897-53.989-93.286-57.492C283.138,74.681,279.121,85.239,279.121,85.239
			z"/>
      
	</g>
    </g>
	<g clip-path="url(#SVGBK_SVGID_2_)">
		<defs>
			<rect id="SVGBK_SVGID_5_" x="14.898" y="61.378" width="725.555" height="938.954"/>
		</defs>
		<clipPath id="SVGBK_SVGID_6_">
			<use xlink:href="#SVGBK_SVGID_5_"  overflow="visible"/>
		</clipPath>
		<g opacity="0.13" clip-path="url(#SVGBK_SVGID_6_)">
			<g>
				<defs>
					<rect id="SVGBK_SVGID_7_" x="312.521" y="595.653" width="55.005" height="97.385"/>
				</defs>
				<clipPath id="SVGBK_SVGID_8_">
					<use xlink:href="#SVGBK_SVGID_7_"  overflow="visible"/>
				</clipPath>
				<g clip-path="url(#SVGBK_SVGID_8_)">
					<defs>
						<path id="SVGBK_SVGID_9_" d="M356.017,617.998c-7.391-7.737-43.495-22.345-43.495-22.345s27.08,39.541,24.614,50.71
							c-2.461,11.171-17.232,45.553-17.232,45.553s17.241,3.436,23.801-1.719c6.566-5.158,24.616-24.066,23.796-36.097
							C366.684,642.067,363.396,625.731,356.017,617.998"/>
					</defs>
					<clipPath id="SVGBK_SVGID_10_">
						<use xlink:href="#SVGBK_SVGID_9_"  overflow="visible"/>
					</clipPath>
					
						<radialGradient id="SVGBK_SVGID_11_" cx="187.5308" cy="1036.459" r="1.1853" gradientTransform="matrix(152.1198 0 0 -159.3305 -28299.6152 165779.1719)" gradientUnits="userSpaceOnUse">
						<stop  offset="0" style="stop-color:#FFFFFF"/>
						<stop  offset="1" style="stop-color:#898076"/>
					</radialGradient>
					<rect x="312.521" y="595.653" clip-path="url(#SVGBK_SVGID_10_)" fill="url(#SVGBK_SVGID_11_)" width="55.799" height="99.699"/>
				</g>
			</g>
		</g>
		<g opacity="0.13" clip-path="url(#SVGBK_SVGID_6_)">
			<g>
				<defs>
					<rect id="SVGBK_SVGID_12_" x="397.447" y="848.756" width="0.066" height="1.006"/>
				</defs>
				<clipPath id="SVGBK_SVGID_13_">
					<use xlink:href="#SVGBK_SVGID_12_"  overflow="visible"/>
				</clipPath>
				<g clip-path="url(#SVGBK_SVGID_13_)">
					<defs>
						<path id="SVGBK_SVGID_14_" d="M397.513,849.762c-0.019-0.34-0.041-0.676-0.065-1.006
							C397.472,849.086,397.494,849.422,397.513,849.762"/>
					</defs>
					<clipPath id="SVGBK_SVGID_15_">
						<use xlink:href="#SVGBK_SVGID_14_"  overflow="visible"/>
					</clipPath>
					
						<radialGradient id="SVGBK_SVGID_16_" cx="-1024.7095" cy="1638.2061" r="1.1852" gradientTransform="matrix(0.0937 0 0 -0.0981 493.5046 1010.536)" gradientUnits="userSpaceOnUse">
						<stop  offset="0" style="stop-color:#FFFFFF"/>
						<stop  offset="1" style="stop-color:#898076"/>
					</radialGradient>
					<rect x="397.447" y="848.756" clip-path="url(#SVGBK_SVGID_15_)" fill="url(#SVGBK_SVGID_16_)" width="0.065" height="1.006"/>
				</g>
			</g>
		</g>
		<g opacity="0.13" clip-path="url(#SVGBK_SVGID_6_)">
			<g>
				<defs>
					<path id="SVGBK_SVGID_17_" d="M397.395,848.123L397.395,848.123z"/>
				</defs>
				<clipPath id="SVGBK_SVGID_18_">
					<use xlink:href="#SVGBK_SVGID_17_"  overflow="visible"/>
				</clipPath>
			</g>
		</g>
		<g opacity="0.13" clip-path="url(#SVGBK_SVGID_6_)">
			<g>
				<defs>
					<rect id="SVGBK_SVGID_19_" x="404.603" y="970.18" width="2.341" height="0.665"/>
				</defs>
				<clipPath id="SVGBK_SVGID_20_">
					<use xlink:href="#SVGBK_SVGID_19_"  overflow="visible"/>
				</clipPath>
				<g clip-path="url(#SVGBK_SVGID_20_)">
					<defs>
						<path id="SVGBK_SVGID_21_" d="M404.615,970.273l2.328,0.571c-1.153-0.317-1.941-0.547-2.341-0.665L404.615,970.273z"/>
					</defs>
					<clipPath id="SVGBK_SVGID_22_">
						<use xlink:href="#SVGBK_SVGID_21_"  overflow="visible"/>
					</clipPath>
					
						<radialGradient id="SVGBK_SVGID_23_" cx="153.5767" cy="1047.7852" r="1.1857" gradientTransform="matrix(3.2214 0 0 -3.3741 -88.7646 4506.1479)" gradientUnits="userSpaceOnUse">
						<stop  offset="0" style="stop-color:#FFFFFF"/>
						<stop  offset="1" style="stop-color:#898076"/>
					</radialGradient>
					<rect x="404.603" y="970.18" clip-path="url(#SVGBK_SVGID_22_)" fill="url(#SVGBK_SVGID_23_)" width="2.34" height="0.665"/>
				</g>
			</g>
		</g>
		<g opacity="0.13" clip-path="url(#SVGBK_SVGID_6_)">
			<g>
				<defs>
					<rect id="SVGBK_SVGID_24_" x="346.425" y="957.313" width="4.558" height="15.955"/>
				</defs>
				<clipPath id="SVGBK_SVGID_25_">
					<use xlink:href="#SVGBK_SVGID_24_"  overflow="visible"/>
				</clipPath>
				<g clip-path="url(#SVGBK_SVGID_25_)">
					<defs>
						<path id="SVGBK_SVGID_26_" d="M346.425,973.269c1.414-0.429,2.657-0.818,3.691-1.153c0.436-2.828,0.687-8.308,0.864-14.802
							c-0.459,8.02-0.863,13.926-0.863,13.926S348.952,972.047,346.425,973.269"/>
					</defs>
					<clipPath id="SVGBK_SVGID_27_">
						<use xlink:href="#SVGBK_SVGID_26_"  overflow="visible"/>
					</clipPath>
					
						<radialGradient id="SVGBK_SVGID_28_" cx="169.1646" cy="1041.9268" r="1.185" gradientTransform="matrix(6.2862 0 0 -6.5842 -714.3352 7833.4155)" gradientUnits="userSpaceOnUse">
						<stop  offset="0" style="stop-color:#FFFFFF"/>
						<stop  offset="1" style="stop-color:#898076"/>
					</radialGradient>
					<rect x="346.425" y="957.313" clip-path="url(#SVGBK_SVGID_27_)" fill="url(#SVGBK_SVGID_28_)" width="4.556" height="15.955"/>
				</g>
			</g>
		</g>
		<g opacity="0.13" clip-path="url(#SVGBK_SVGID_6_)">
			<g>
				<defs>
					<rect id="SVGBK_SVGID_29_" x="394.402" y="814.783" width="3.239" height="18.828"/>
				</defs>
				<clipPath id="SVGBK_SVGID_30_">
					<use xlink:href="#SVGBK_SVGID_29_"  overflow="visible"/>
				</clipPath>
				<g clip-path="url(#SVGBK_SVGID_30_)">
					<defs>
						<path id="SVGBK_SVGID_31_" d="M394.4,833.611c1.522-6.535,3.242-12.25,3.242-18.828C396.529,818.943,395.379,826.085,394.4,833.611"
							/>
					</defs>
					<clipPath id="SVGBK_SVGID_32_">
						<use xlink:href="#SVGBK_SVGID_31_"  overflow="visible"/>
					</clipPath>
					
						<radialGradient id="SVGBK_SVGID_33_" cx="163.0913" cy="1048.9951" r="1.1855" gradientTransform="matrix(4.4896 0 0 -4.7024 -335.9276 5766.2432)" gradientUnits="userSpaceOnUse">
						<stop  offset="0" style="stop-color:#FFFFFF"/>
						<stop  offset="1" style="stop-color:#898076"/>
					</radialGradient>
					<rect x="394.4" y="814.783" clip-path="url(#SVGBK_SVGID_32_)" fill="url(#SVGBK_SVGID_33_)" width="3.242" height="18.828"/>
				</g>
			</g>
		</g>
		<g opacity="0.13" clip-path="url(#SVGBK_SVGID_6_)">
			<g>
				<defs>
					<rect id="SVGBK_SVGID_34_" x="360.588" y="828.069" width="4.262" height="44.238"/>
				</defs>
				<clipPath id="SVGBK_SVGID_35_">
					<use xlink:href="#SVGBK_SVGID_34_"  overflow="visible"/>
				</clipPath>
				<g clip-path="url(#SVGBK_SVGID_35_)">
					<defs>
						<path id="SVGBK_SVGID_36_" d="M363.38,851.827c-1.008,7.041-1.929,13.818-2.792,20.481c2.439-15.21,5.178-33.616,3.965-39.962
							c-0.238-1.245-0.506-2.696-0.789-4.278C364.463,835.115,364.637,843.054,363.38,851.827"/>
					</defs>
					<clipPath id="SVGBK_SVGID_37_">
						<use xlink:href="#SVGBK_SVGID_36_"  overflow="visible"/>
					</clipPath>
					
						<radialGradient id="SVGBK_SVGID_38_" cx="168.5566" cy="1044.7588" r="1.1856" gradientTransform="matrix(5.984 0 0 -6.2677 -645.5795 7420.1494)" gradientUnits="userSpaceOnUse">
						<stop  offset="0" style="stop-color:#FFFFFF"/>
						<stop  offset="1" style="stop-color:#898076"/>
					</radialGradient>
					<rect x="360.588" y="828.068" clip-path="url(#SVGBK_SVGID_37_)" fill="url(#SVGBK_SVGID_38_)" width="5.178" height="44.24"/>
				</g>
			</g>
		</g>
		<g opacity="0.13" clip-path="url(#SVGBK_SVGID_6_)">
			<g>
				<defs>
					<rect id="SVGBK_SVGID_39_" x="362.259" y="792.902" width="33.031" height="5.231"/>
				</defs>
				<clipPath id="SVGBK_SVGID_40_">
					<use xlink:href="#SVGBK_SVGID_39_"  overflow="visible"/>
				</clipPath>
				<g clip-path="url(#SVGBK_SVGID_40_)">
					<defs>
						<path id="SVGBK_SVGID_41_" d="M387.694,793.947c-7.828-0.911-20.416-2.513-25.436,1.916c6.769-1.636,27.614-3.463,31.644,0.759
							c0.498,0.522,0.956,1.021,1.388,1.512C393.84,795.854,391.498,794.389,387.694,793.947"/>
					</defs>
					<clipPath id="SVGBK_SVGID_42_">
						<use xlink:href="#SVGBK_SVGID_41_"  overflow="visible"/>
					</clipPath>
					
						<radialGradient id="SVGBK_SVGID_43_" cx="185.8984" cy="1037.292" r="1.1855" gradientTransform="matrix(45.4768 0 0 -47.6325 -8072.6006 50206.8438)" gradientUnits="userSpaceOnUse">
						<stop  offset="0" style="stop-color:#FFFFFF"/>
						<stop  offset="1" style="stop-color:#898076"/>
					</radialGradient>
					<rect x="362.259" y="791.435" clip-path="url(#SVGBK_SVGID_42_)" fill="url(#SVGBK_SVGID_43_)" width="33.031" height="6.699"/>
				</g>
			</g>
		</g>
		<g opacity="0.13" clip-path="url(#SVGBK_SVGID_6_)">
			<g>
				<defs>
					<rect id="SVGBK_SVGID_44_" x="273.917" y="752.43" width="196.13" height="225.573"/>
				</defs>
				<clipPath id="SVGBK_SVGID_45_">
					<use xlink:href="#SVGBK_SVGID_44_"  overflow="visible"/>
				</clipPath>
				<g clip-path="url(#SVGBK_SVGID_45_)">
					<defs>
						<path id="SVGBK_SVGID_46_" d="M470.048,852.545c0-4.295-17.231-30.085-20.517-30.085c-3.281,0-32.154-62.297-36.257-62.297
							c-4.101,0-50.88-7.733-53.343-7.733c-2.462,0-27.745,48.547-31.846,53.705c-4.104,5.151-22.985,18.904-27.089,27.502
							c-4.104,8.589-27.081,42.115-27.081,48.993c0,6.876,6.57,3.061,16.416,19.392c9.843,16.336,5.742,31.804,0.824,43.834
							c-3.27,7.993-7.339,24.64-10.852,32.147c19.719-0.628,54.797-3.093,68.612-7.062c0.363-12.799-1.673-66.323,0-72.28
							c1.438-5.12,2.699,10.447,3.577-5.644c-0.397,3.771-0.787,7.555-1.163,11.394c-1.578,16.122-3.604,8.789-3.604,8.789
							s-1.419-2.679-7.139-0.416c0.334-11.886,3.967-14.093,4.362-25.308c0.257-7.245,6.755-46.246,7.535-55.248
							c0.782-9.002,2.751-22.311,0.796-32.54c-1.954-10.229-3.906-22.504-2.343-24.141c1.563-1.638,37.503-4.093,42.19,0.817
							c4.688,4.91,9.768,16.776,7.032,27.007c-2.734,10.229-7.222,39.775-7.222,47.55s4.771,50.766,5.553,56.494
							c0.603,4.427,2.607-10.181,4.759,3.707c-1.101-0.281-2.095-0.469-2.997-0.604c0.879,7.058,5.285,47.038,7.359,60.423
							l13.882,2.492c8.653,1.896,19.5,1.688,32.125,3.323c-1.747-3.273-5.603-16.018-7.37-19.724
							c-8.202-17.186-3.281-51.57-1.647-61.027c1.647-9.46,11.492,2.951,13.137-2.206c1.646-5.16-4.105-28.36,0-30.938
							C461.848,860.286,470.048,856.844,470.048,852.545"/>
					</defs>
					<clipPath id="SVGBK_SVGID_47_">
						<use xlink:href="#SVGBK_SVGID_46_"  overflow="visible"/>
					</clipPath>
					
						<radialGradient id="SVGBK_SVGID_48_" cx="188.0269" cy="1036.0205" r="1.1845" gradientTransform="matrix(270.0911 0 0 -282.8939 -50396.5625 294059.7813)" gradientUnits="userSpaceOnUse">
						<stop  offset="0" style="stop-color:#FFFFFF"/>
						<stop  offset="1" style="stop-color:#898076"/>
					</radialGradient>
					<rect x="273.917" y="752.43" clip-path="url(#SVGBK_SVGID_47_)" fill="url(#SVGBK_SVGID_48_)" width="196.131" height="225.573"/>
				</g>
			</g>
		</g>
		<g opacity="0.13" clip-path="url(#SVGBK_SVGID_6_)">
			<g>
				<defs>
					<rect id="SVGBK_SVGID_49_" x="391.918" y="857.806" width="0.106" height="4.467"/>
				</defs>
				<clipPath id="SVGBK_SVGID_50_">
					<use xlink:href="#SVGBK_SVGID_49_"  overflow="visible"/>
				</clipPath>
				<g clip-path="url(#SVGBK_SVGID_50_)">
					<defs>
						<path id="SVGBK_SVGID_51_" d="M391.919,861.009c0,0.296,0.022,0.745,0.055,1.264c0.015-1.427,0.033-2.918,0.051-4.467
							C391.96,859.064,391.919,860.174,391.919,861.009"/>
					</defs>
					<clipPath id="SVGBK_SVGID_52_">
						<use xlink:href="#SVGBK_SVGID_51_"  overflow="visible"/>
					</clipPath>
					
						<radialGradient id="SVGBK_SVGID_53_" cx="-421.6763" cy="1326.5938" r="1.1855" gradientTransform="matrix(0.1877 0 0 -0.1966 471.1415 1123.0806)" gradientUnits="userSpaceOnUse">
						<stop  offset="0" style="stop-color:#FFFFFF"/>
						<stop  offset="1" style="stop-color:#898076"/>
					</radialGradient>
					<rect x="391.919" y="857.806" clip-path="url(#SVGBK_SVGID_52_)" fill="url(#SVGBK_SVGID_53_)" width="0.105" height="4.467"/>
				</g>
			</g>
		</g>
		<g opacity="0.13" clip-path="url(#SVGBK_SVGID_6_)">
			<g>
				<defs>
					<path id="SVGBK_SVGID_54_" d="M394.055,839.035L394.055,839.035z"/>
				</defs>
				<clipPath id="SVGBK_SVGID_55_">
					<use xlink:href="#SVGBK_SVGID_54_"  overflow="visible"/>
				</clipPath>
			</g>
		</g>
		<g opacity="0.13" clip-path="url(#SVGBK_SVGID_6_)">
			<g>
				<defs>
					<rect id="SVGBK_SVGID_56_" x="177.899" y="302.82" width="93.921" height="674.323"/>
				</defs>
				<clipPath id="SVGBK_SVGID_57_">
					<use xlink:href="#SVGBK_SVGID_56_"  overflow="visible"/>
				</clipPath>
				<g clip-path="url(#SVGBK_SVGID_57_)">
					<defs>
						<path id="SVGBK_SVGID_58_" d="M238.672,909.856c0.819-9.45-26.263-10.801-36.928-30.572c-10.667-19.768-0.821-67.897,2.459-86.808
							c3.28-18.915,27.898-36.962,36.104-47.277c8.208-10.313,26.264-85.942,30.363-106.58c4.104-20.626-4.1-82.508-4.1-82.508
							s-8.213-14.62-8.213-18.054c0-3.436,4.926-25.791,8.211-33.525c3.284-7.735,2.461-69.619,2.461-74.777
							c0-5.157-23.802-32.664-27.085-42.116c-2.321-6.688-12.801-56.333-18.735-84.819c-3.356,2.08-22.291,10.476-22.921,12.297
							c2.528,18.104,17.032,84.664,17.032,84.664c2.287,8.786,4.575,24.494,6.354,41.267c1.271,4.102,0.626,17.181,2.287,25.558
							c2.288,15.443,5.083,87.437,5.083,94.515c0,7.692-7.854,48.976-9.127,54.759c-2.215,10.048-8.795,30.468-13.517,53.723
							c-9.419,46.398-19.649,105.829-26.276,164.435c-9.947,87.978,0.784,92.158,0.784,92.158s9.953,53.262,11.095,50.871
							C197.289,970.193,237.852,919.306,238.672,909.856"/>
					</defs>
					<clipPath id="SVGBK_SVGID_59_">
						<use xlink:href="#SVGBK_SVGID_58_"  overflow="visible"/>
					</clipPath>
					
						<radialGradient id="SVGBK_SVGID_60_" cx="187.7998" cy="1036.3369" r="1.1844" gradientTransform="matrix(221.487 0 0 -231.9858 -41395.332 240968.8125)" gradientUnits="userSpaceOnUse">
						<stop  offset="0" style="stop-color:#FFFFFF"/>
						<stop  offset="1" style="stop-color:#898076"/>
					</radialGradient>
					<rect x="172.179" y="302.82" clip-path="url(#SVGBK_SVGID_59_)" fill="url(#SVGBK_SVGID_60_)" width="102.596" height="676.636"/>
				</g>
			</g>
		</g>
		<g opacity="0.13" clip-path="url(#SVGBK_SVGID_6_)">
			<g>
				<defs>
					<rect id="SVGBK_SVGID_61_" x="466.103" y="283.517" width="104.819" height="693.572"/>
				</defs>
				<clipPath id="SVGBK_SVGID_62_">
					<use xlink:href="#SVGBK_SVGID_61_"  overflow="visible"/>
				</clipPath>
				<g clip-path="url(#SVGBK_SVGID_62_)">
					<defs>
						<path id="SVGBK_SVGID_63_" d="M569.994,922.872c2.21-17.364,0.063-92.309-2.15-127.036c-2.21-34.728-33.157-159.749-39.787-189.846
							c-6.631-30.098-0.258-98.145,7.478-135.188c6.354-30.42,20.326-114.763,24.793-141.976c-1.141-3.604,1.445-5.651,0.241-9.784
							c-7.496-3.511-21.927-11.385-33.617-24.447c-2.878-3.214-6.093-6.929-9.469-11.078c-3.675,15.917-6.316,28.295-6.547,31.924
							c-0.823,12.894-12.31,73.917-13.129,80.795c-0.819,6.878-8.216,26.649-6.568,39.54c1.64,12.89,27.899,32.658,28.718,48.132
							c0.826,15.473-4.096,39.538-5.739,42.114c-1.643,2.58-17.229,42.978-17.229,46.41c0,3.443-19.703,52.432-26.264,52.432
							c-6.564,0-5.741,26.655,0,44.704c5.742,18.047,41.851,61.882,42.671,69.617c0.822,7.741,13.955,21.492,12.313,24.931
							c-1.646,3.437-11.49,14.602-18.875,15.467c-7.384,0.862-27.09,9.452-30.366,7.733c-3.279-1.719-0.819,13.753,5.744,13.753
							c6.562,0,36.103-3.44,39.389-5.156c3.287-1.713,25.447-14.609,27.903-10.315c2.466,4.297-4.107,32.663-1.646,40.402
							c2.467,7.735-4.107,53.291-7.386,57.587c-3.278,4.297-22.975,3.069-20.515,12.521c2.468,9.45,35.522,66.632,39.03,80.958
							C559.309,978.388,569.994,922.872,569.994,922.872"/>
					</defs>
					<clipPath id="SVGBK_SVGID_64_">
						<use xlink:href="#SVGBK_SVGID_63_"  overflow="visible"/>
					</clipPath>
					
						<radialGradient id="SVGBK_SVGID_65_" cx="188.1475" cy="1036.207" r="1.1849" gradientTransform="matrix(294.7418 0 0 -308.7131 -54906.0625 320475.625)" gradientUnits="userSpaceOnUse">
						<stop  offset="0" style="stop-color:#FFFFFF"/>
						<stop  offset="1" style="stop-color:#898076"/>
					</radialGradient>
					<rect x="464.159" y="283.517" clip-path="url(#SVGBK_SVGID_64_)" fill="url(#SVGBK_SVGID_65_)" width="108.045" height="694.871"/>
				</g>
			</g>
		</g>
		<g opacity="0.75" clip-path="url(#SVGBK_SVGID_6_)">
			<g>
				<defs>
					<rect id="SVGBK_SVGID_66_" x="182.079" y="916.304" width="384.094" height="12.928"/>
				</defs>
				<clipPath id="SVGBK_SVGID_67_">
					<use xlink:href="#SVGBK_SVGID_66_"  overflow="visible"/>
				</clipPath>
				
					<path clip-path="url(#SVGBK_SVGID_67_)" fill="none" stroke="#7A726F" stroke-width="0.604" stroke-miterlimit="10" stroke-dasharray="1.208,1.208" d="
					M182.128,917.025c48.379,6.754,122.808,7.364,171.188,0.609"/>
				
					<path clip-path="url(#SVGBK_SVGID_67_)" fill="none" stroke="#7A726F" stroke-width="0.604" stroke-miterlimit="10" stroke-dasharray="1.208,1.208" d="
					M182.698,923.523c48.379,6.754,120.964,7.308,169.342,0.553"/>
				
					<path clip-path="url(#SVGBK_SVGID_67_)" fill="none" stroke="#7A726F" stroke-width="0.589" stroke-miterlimit="10" stroke-dasharray="1.177,1.177" d="
					M397.397,916.741c47.896,6.754,120.83,6.662,168.727-0.091"/>
				
					<path clip-path="url(#SVGBK_SVGID_67_)" fill="none" stroke="#7A726F" stroke-width="0.589" stroke-miterlimit="10" stroke-dasharray="1.177,1.177" d="
					M398.724,923.521c47.896,6.754,118.397,6.444,166.295-0.31"/>
			</g>
		</g>
	</g>
	<g clip-path="url(#SVGBK_SVGID_2_)">
		<defs>
			<rect id="SVGBK_SVGID_68_" x="14.898" y="61.378" width="725.555" height="938.954"/>
		</defs>
		<clipPath id="SVGBK_SVGID_69_">
			<use xlink:href="#SVGBK_SVGID_68_"  overflow="visible"/>
		</clipPath>
		
    
    
	</g>
	<g id="BODY_BACK">
		<rect x="247.389" y="312.822" clip-path="url(#SVGBK_SVGID_2_)" fill="none" stroke="#FFFFFF" stroke-miterlimit="10" stroke-dasharray="3,6" width="265.188" height="197.591"/>
	
		<rect x="316.546" y="168.091" clip-path="url(#SVGBK_SVGID_2_)" fill="none" stroke="#FFFFFF" stroke-miterlimit="10" stroke-dasharray="5.463,10.925" width="126.874" height="420.675"/>
	</g>
  <g id="BOTTOM_LEFT">
		<rect x="202.244" y="785.086" clip-path="url(#SVGBK_SVGID_2_)" fill="none" stroke="#FFFFFF" stroke-miterlimit="10" stroke-dasharray="3,6" width="126.875" height="126.874"/>
	</g>
    <g id="BOTTOM_RIGHT">
		<rect x="420.458" y="784.063" clip-path="url(#SVGBK_SVGID_2_)" fill="none" stroke="#FFFFFF" stroke-miterlimit="10" stroke-dasharray="3,6" width="126.876" height="126.874"/>
</g>
  <g id="CUSTOM"></g>
  </g>
</svg>
