<?xml version="1.0" encoding="utf-8"?>
<!-- Generator: Adobe Illustrator 16.0.0, SVG Export Plug-In . SVG Version: 6.00 Build 0)  -->
<!DOCTYPE svg PUBLIC "-//W3C//DTD SVG 1.1//EN" "http://www.w3.org/Graphics/SVG/1.1/DTD/svg11.dtd">
<svg version="1.1" id="Layer_1" xmlns="http://www.w3.org/2000/svg" xmlns:xlink="http://www.w3.org/1999/xlink" x="0px" y="0px"
	 width="612px" height="792px" viewBox="0 0 612 792" enable-background="new 0 0 612 792" xml:space="preserve">
<g>
	<defs>
		<rect id="Front_SVGID_1_" width="612" height="792"/>
	</defs>
	<clipPath id="Front_SVGID_2_">
		<use xlink:href="#Front_SVGID_1_"  overflow="visible"/>
	</clipPath>
	<g id="BODY" clip-path="url(#Front_SVGID_2_)">
		<defs>
			<rect id="Front_SVGID_3_" width="612" height="792"/>
		</defs>
		<clipPath id="Front_SVGID_4_">
			<use xlink:href="#Front_SVGID_3_"  overflow="visible"/>
		</clipPath>    
		<path clip-path="url(#Front_SVGID_4_)" fill="#BF2A43" d="M471.833,609.042c-0.126-1.852-0.256-3.7-0.391-5.545
			c-0.538-7.378-1.148-14.689-1.812-21.855c-0.166-1.792-0.335-3.574-0.507-5.346c-0.861-8.861-1.798-17.464-2.777-25.655
			c-0.587-4.915-1.189-9.681-1.799-14.266c-0.611-4.586-1.228-8.989-1.845-13.178c-0.206-1.396-0.412-2.769-0.617-4.116
			c-0.411-2.694-0.821-5.289-1.228-7.773c-0.054-0.326-0.11-0.673-0.165-1.011c-0.094-0.568-0.189-1.15-0.287-1.751
			c-0.107-0.657-0.22-1.333-0.332-2.026c-0.277-1.688-0.57-3.479-0.881-5.371c-0.239-1.46-0.488-2.983-0.746-4.557
			c-0.042-0.257-0.083-0.509-0.126-0.769c-0.514-3.141-1.062-6.487-1.636-10.01c-0.022-0.142-0.046-0.283-0.068-0.424
			c-0.271-1.653-0.546-3.348-0.826-5.074c-0.079-0.484-0.158-0.972-0.238-1.462c-0.076-0.473-0.153-0.945-0.23-1.423
			c-0.074-0.457-0.149-0.92-0.225-1.381c-0.115-0.713-0.231-1.426-0.349-2.148c-0.028-0.178-0.058-0.358-0.087-0.536
			c-0.146-0.906-0.294-1.816-0.442-2.736c-0.005-0.027-0.009-0.056-0.014-0.083c-0.16-0.993-0.322-1.996-0.485-3.005
			c-0.022-0.137-0.045-0.275-0.066-0.413c-0.325-2.014-0.654-4.056-0.986-6.126c-0.021-0.132-0.043-0.265-0.064-0.396
			c-1.385-8.62-2.828-17.684-4.275-26.893c-0.017-0.099-0.031-0.197-0.046-0.296c-0.362-2.307-0.725-4.621-1.086-6.938
			c-0.005-0.031-0.01-0.061-0.015-0.091c-0.167-1.075-0.335-2.153-0.502-3.23c-0.022-0.144-0.045-0.288-0.067-0.432
			c-0.526-3.391-1.051-6.784-1.568-10.167c-0.033-0.215-0.065-0.429-0.099-0.644c-0.154-1.011-0.309-2.021-0.463-3.029
			c-0.019-0.121-0.037-0.242-0.055-0.363c-0.343-2.245-0.682-4.481-1.017-6.707c-0.02-0.127-0.039-0.255-0.059-0.383
			c-0.16-1.064-0.319-2.126-0.479-3.185c-0.012-0.078-0.022-0.155-0.034-0.233c-0.16-1.068-0.318-2.134-0.478-3.195
			c-0.018-0.119-0.035-0.237-0.053-0.357c-2.208-14.841-4.206-28.907-5.739-40.842c-0.002-0.017-0.005-0.036-0.008-0.054
			c-0.106-0.834-0.21-1.654-0.313-2.466c-0.015-0.117-0.03-0.235-0.045-0.351c-0.1-0.796-0.197-1.58-0.293-2.354
			c-0.012-0.097-0.023-0.195-0.036-0.291c-0.093-0.761-0.184-1.508-0.272-2.247c-0.015-0.121-0.029-0.242-0.044-0.361
			c-0.086-0.719-0.169-1.424-0.25-2.121c-0.016-0.129-0.03-0.259-0.046-0.387c-0.077-0.667-0.152-1.322-0.226-1.968
			c-0.019-0.161-0.036-0.322-0.054-0.481c-0.072-0.639-0.142-1.267-0.208-1.883c-0.014-0.123-0.026-0.245-0.04-0.367
			c-0.068-0.631-0.134-1.249-0.196-1.855c-0.013-0.12-0.025-0.239-0.037-0.358c-0.062-0.593-0.12-1.174-0.176-1.742
			c-0.013-0.124-0.024-0.246-0.036-0.368c-0.055-0.561-0.107-1.111-0.156-1.646c-0.011-0.112-0.021-0.221-0.031-0.333
			c-0.048-0.533-0.095-1.057-0.138-1.565c-0.009-0.101-0.017-0.199-0.024-0.299c-0.043-0.508-0.083-1.005-0.12-1.484
			c-0.007-0.088-0.013-0.171-0.02-0.258c-0.036-0.486-0.07-0.961-0.101-1.417c-0.004-0.053-0.007-0.102-0.01-0.155
			c-0.032-0.48-0.061-0.947-0.085-1.393c0-0.005-0.001-0.01-0.001-0.015c-0.035-0.647-0.061-1.247-0.081-1.819
			c-0.005-0.107-0.007-0.215-0.011-0.32c-0.018-0.572-0.028-1.113-0.028-1.598c0-4.472,0.686-10.66,1.801-17.861
			c0.186-1.2,0.384-2.429,0.592-3.682c1.876-11.279,4.621-24.573,7.365-37.508c1.22-5.749,2.439-11.427,3.583-16.826
			c0.571-2.699,1.124-5.329,1.648-7.862c0.524-2.533,1.02-4.97,1.477-7.286c0.687-3.473,1.287-6.673,1.77-9.509
			c0.804-4.727,1.28-8.448,1.28-10.755c0-3.423,0.058-6.847,0.12-10.171c0,0-1.898-4.269-4.637-12.398
			c-0.422-1.25-0.862-2.592-1.319-4.024c-0.914-2.864-1.893-6.086-2.903-9.657c-0.309-1.089-0.621-2.221-0.935-3.375
			c-1.229-4.518-2.491-9.517-3.735-14.997c-0.521-2.293-1.038-4.668-1.549-7.124c-0.255-1.228-0.508-2.477-0.759-3.745
			c-1.004-5.073-1.973-10.468-2.872-16.17c-0.007-0.045-0.014-0.103-0.021-0.148c-0.011-0.079-0.021-0.157-0.031-0.23
			c-2.582-17.332-3.044-91.706-3.044-91.706l-44.452-14.762c0,0-25.848,82.777-77.293,83.137
			c-46.619,0.325-83.342-82.982-83.342-82.982l-37.772,16.878c0,0,2.168,28.39-3.253,65.865
			c-2.179,15.059-6.634,35.068-11.183,53.619c-6.53,26.347-13.009,48.979-13.009,48.979s0.02,0.078,0.051,0.198
			c-0.507,1.804-0.795,2.813-0.795,2.813s3.252,12.492,5.42,21.577c1.571,6.581,11.671,53.68,15.061,94.252
			c1.289,15.435,1.612,29.93,0.118,40.883c-5.421,39.746-28.726,176.611-33.342,208.949c-6.088,42.654-8.673,97.01-6.505,117.45
			s11.571,73.373,11.571,73.373s19.382,8.229,61.29,8.229c38.73,0,55.806-2.721,63.064-4.664l10.294-1.713
			c2.763-14.809,5.442-33.114,5.104-47.106c-0.293-12.165-0.579-15.022,3.567-30.755c0.05-0.2,0.098-0.41,0.15-0.604
			c2.303-8.638,2.771-27.406,2.704-44.569c-0.06-15.139-0.536-29.022-0.536-33.595v-0.001v-0.026c0-9.758,15.178-4.337,17.347,1.085
			c0.062,0.153,0.133,0.335,0.2,0.533c0.073,0.273,0.145,0.582,0.212,0.922c0.005,0.038,0.013,0.071,0.016,0.109
			c0.001,0.007,0.001,0.015,0.002,0.021c0.019,0.446-0.305,4.211-0.583,10.596c-0.505,5.516-1.196,12.876-1.634,22.43
			c-1.274,27.771,11.498,85.034,16.979,108.102c1.304,6.133,2.154,10.082,2.154,10.082s38.142,7.306,66.33,7.306
			c4.774,0,11.842-0.072,16.53-0.549l2.624,0.274c4.196-0.824,6.558-1.374,6.558-1.374c20.02-2.038,26.26-1.463,30.56-2.854
			c0.043-0.014,0.087-0.027,0.127-0.041c0.105-0.034,0.196-0.063,0.283-0.092c0.048-0.017,0.092-0.03,0.134-0.043
			c0.08-0.027,0.147-0.05,0.205-0.069c0.033-0.011,0.054-0.018,0.08-0.026c0.045-0.016,0.081-0.027,0.106-0.036
			c0.04-0.014,0.062-0.021,0.062-0.021s3.512-9.616,7.38-28.423c0.516-2.508,1.038-5.179,1.559-8.012
			c0.521-2.833,1.041-5.829,1.552-8.986c0.512-3.157,1.014-6.476,1.501-9.954c0.243-1.739,0.481-3.519,0.716-5.339
			c2.343-18.194,4.188-6.803,4.604-32.864c0.056-3.488,0.079-7.025,0.072-10.599C473.871,646.365,473.088,627.558,471.833,609.042"
			/>
	</g>
	<g clip-path="url(#Front_SVGID_2_)">
		<defs>
			<rect id="Front_SVGID_5_" width="612" height="792"/>
		</defs>
		<clipPath id="Front_SVGID_6_">
			<use xlink:href="#Front_SVGID_5_"  overflow="visible"/>
		</clipPath>
		<path clip-path="url(#Front_SVGID_6_)" fill="#FFFFFF" d="M191.982,708.353c0-2.813,2.08-5.107,4.716-5.293v10.585
			C194.063,713.457,191.982,711.159,191.982,708.353"/>
		<polygon clip-path="url(#Front_SVGID_6_)" fill-rule="evenodd" clip-rule="evenodd" fill="#FFFFFF" points="201.94,707.66 
			197.533,703.046 201.94,703.046 		"/>
		<polygon clip-path="url(#Front_SVGID_6_)" fill-rule="evenodd" clip-rule="evenodd" fill="#FFFFFF" points="201.94,709.046 
			197.533,713.658 201.94,713.658 		"/>
		<polygon clip-path="url(#Front_SVGID_6_)" fill-rule="evenodd" clip-rule="evenodd" fill="#BE2943" points="207.464,707.66 
			211.864,703.046 207.464,703.046 		"/>
		<polygon clip-path="url(#Front_SVGID_6_)" fill-rule="evenodd" clip-rule="evenodd" fill="#BE2943" points="207.464,709.046 
			211.864,713.658 207.464,713.658 		"/>
		<rect x="202.874" y="703.046" clip-path="url(#Front_SVGID_6_)" fill="#BE2943" width="3.655" height="10.612"/>
		<path clip-path="url(#Front_SVGID_6_)" fill="#FFFFFF" d="M191.982,708.353c0-2.813,2.08-5.107,4.716-5.293v10.585
			C194.063,713.457,191.982,711.159,191.982,708.353"/>
		<polygon clip-path="url(#Front_SVGID_6_)" fill-rule="evenodd" clip-rule="evenodd" fill="#FFFFFF" points="201.94,707.66 
			197.533,703.046 201.94,703.046 		"/>
		<polygon clip-path="url(#Front_SVGID_6_)" fill-rule="evenodd" clip-rule="evenodd" fill="#FFFFFF" points="201.94,709.046 
			197.533,713.658 201.94,713.658 		"/>
		<polygon clip-path="url(#Front_SVGID_6_)" fill-rule="evenodd" clip-rule="evenodd" fill="#BE2943" points="207.464,707.66 
			211.864,703.046 207.464,703.046 		"/>
		<polygon clip-path="url(#Front_SVGID_6_)" fill-rule="evenodd" clip-rule="evenodd" fill="#BE2943" points="207.464,709.046 
			211.864,713.658 207.464,713.658 		"/>
		<rect x="202.874" y="703.046" clip-path="url(#Front_SVGID_6_)" fill="#BE2943" width="3.655" height="10.612"/>
		<path clip-path="url(#Front_SVGID_6_)" fill-rule="evenodd" clip-rule="evenodd" fill="#004D85" d="M196.783,700.366
			c-4.216,0-7.645,3.593-7.645,8.009c0,4.415,3.429,8.002,7.645,8.002h13.467c4.217,0,7.648-3.587,7.648-8.002
			c0-4.416-3.431-8.009-7.648-8.009H196.783z"/>
		<path clip-path="url(#Front_SVGID_6_)" fill="none" stroke="#004D85" stroke-width="0.995" d="M196.783,700.366
			c-4.216,0-7.645,3.593-7.645,8.009c0,4.415,3.429,8.002,7.645,8.002h13.467c4.217,0,7.648-3.587,7.648-8.002
			c0-4.416-3.431-8.009-7.648-8.009H196.783z"/>
		<path clip-path="url(#Front_SVGID_6_)" fill-rule="evenodd" clip-rule="evenodd" fill="#004D85" d="M210.25,701.101
			c3.838,0,6.945,3.256,6.945,7.274c0,4.018-3.107,7.273-6.945,7.273h-13.467c-3.835,0-6.945-3.256-6.945-7.273
			c0-4.019,3.11-7.274,6.945-7.274H210.25z"/>
		<path clip-path="url(#Front_SVGID_6_)" fill="none" stroke="#FFFFFF" stroke-width="0.497" stroke-miterlimit="3.864" d="
			M210.25,701.101c3.838,0,6.945,3.256,6.945,7.274c0,4.018-3.107,7.273-6.945,7.273h-13.467c-3.835,0-6.945-3.256-6.945-7.273
			c0-4.019,3.11-7.274,6.945-7.274H210.25z"/>
		<path clip-path="url(#Front_SVGID_6_)" fill="#FFFFFF" d="M191.982,708.353c0-2.813,2.08-5.107,4.716-5.293v10.585
			C194.063,713.457,191.982,711.159,191.982,708.353"/>
		<polygon clip-path="url(#Front_SVGID_6_)" fill-rule="evenodd" clip-rule="evenodd" fill="#FFFFFF" points="201.94,707.66 
			197.533,703.046 201.94,703.046 		"/>
		<polygon clip-path="url(#Front_SVGID_6_)" fill-rule="evenodd" clip-rule="evenodd" fill="#FFFFFF" points="201.94,709.046 
			197.533,713.658 201.94,713.658 		"/>
		<polygon clip-path="url(#Front_SVGID_6_)" fill-rule="evenodd" clip-rule="evenodd" fill="#BE2943" points="207.464,707.66 
			211.864,703.046 207.464,703.046 		"/>
		<polygon clip-path="url(#Front_SVGID_6_)" fill-rule="evenodd" clip-rule="evenodd" fill="#BE2943" points="207.464,709.046 
			211.864,713.658 207.464,713.658 		"/>
		<rect x="202.874" y="703.046" clip-path="url(#Front_SVGID_6_)" fill="#BE2943" width="3.655" height="10.612"/>
	</g>
	<g clip-path="url(#Front_SVGID_2_)">
		<defs>
			<rect id="Front_SVGID_7_" width="612" height="792"/>
		</defs>
		<clipPath id="Front_SVGID_8_">
			<use xlink:href="#Front_SVGID_7_"  overflow="visible"/>
		</clipPath>
		<g opacity="0.4" clip-path="url(#Front_SVGID_8_)">
			<g>
				<defs>
					<rect id="Front_SVGID_9_" x="139.25" y="118.402" width="318.568" height="657.843"/>
				</defs>
				<clipPath id="Front_SVGID_10_">
					<use xlink:href="#Front_SVGID_9_"  overflow="visible"/>
				</clipPath>
				<g opacity="0.14" clip-path="url(#Front_SVGID_10_)">
					<g>
						<defs>
							<rect id="Front_SVGID_11_" x="139.25" y="146.059" width="87.53" height="585.061"/>
						</defs>
						<clipPath id="Front_SVGID_12_">
							<use xlink:href="#Front_SVGID_11_"  overflow="visible"/>
						</clipPath>
						<g clip-path="url(#Front_SVGID_12_)">
							<defs>
								<path id="Front_SVGID_13_" d="M185.22,719.468c5.535-4.981-17.924-17.09-17.924-17.09s8.591,20.595-2.104,27.644l-7.773-1.013
									c0,0-2.947-17.008-2.111-22.171c1.84-11.388-5.531-19.816-7.379-34.769c-1.842-14.948,1.848-43.433,6.455-44.141
									c4.614-0.713,17.518-19.942,17.518-26.35c0-6.409,2.765-32.041,7.379-34.172c4.602-2.136,11.987-12.107,11.987-17.091
									c0-4.981,11.983-15.665,21.203-20.646c9.219-4.982-1.848-28.479,0-39.874c1.838-11.391,6.959-24.917,13.411-44.854
									c6.459-19.939-23.97-14.95-26.736-30.615c-2.765-15.663,11.069-24.203,17.521-24.203s0.205-28.484-0.722-54.828
									c-0.92-26.344,3.687-59.094,5.534-86.86c1.849-27.769-28.727-97.394-36.109-102.377c0,0-4.684,11.564-11.104,25.01
									c-2.516,5.267-4.835,9.771-6.978,13.663c-3.995,15.077-7.02,25.644-7.02,25.644s3.252,12.492,5.42,21.577
									c2.169,9.085,20.6,95.389,15.179,135.135c-2.411,17.681-6.059,54.912-14.189,93.499
									c-3.562,21.484,0.543,44.488-3.501,55.478c-6.233,26.98-11.992,49.624-15.652,59.973
									c-10.841,30.66-8.673,97.01-6.505,117.45c1.236,11.648,7.345-9.807,7.877,20.583c-0.036,2.201,0.359,7.631,0.9,13.873
									c0,0,24.011,3.543,24.34,3.146C177.335,727.221,181.39,722.921,185.22,719.468"/>
							</defs>
							<clipPath id="Front_SVGID_14_">
								<use xlink:href="#Front_SVGID_13_"  overflow="visible"/>
							</clipPath>
							
								<radialGradient id="Front_SVGID_15_" cx="-4.882813e-004" cy="792" r="1.0014" gradientTransform="matrix(252.1113 0 0 -264.0618 320.5 209367.9375)" gradientUnits="userSpaceOnUse">
								<stop  offset="0" style="stop-color:#FFFFFF"/>
								<stop  offset="1" style="stop-color:#64615E"/>
							</radialGradient>
							<rect x="136.684" y="146.059" clip-path="url(#Front_SVGID_14_)" fill="url(#Front_SVGID_15_)" width="95.657" height="585.427"/>
						</g>
					</g>
				</g>
				<g opacity="0.13" clip-path="url(#Front_SVGID_10_)">
					<g>
						<defs>
							<rect id="Front_SVGID_16_" x="361.903" y="151.722" width="95.915" height="434.815"/>
						</defs>
						<clipPath id="Front_SVGID_17_">
							<use xlink:href="#Front_SVGID_16_"  overflow="visible"/>
						</clipPath>
						<g clip-path="url(#Front_SVGID_17_)">
							<defs>
								<path id="Front_SVGID_18_" d="M453.001,210.376c0-14.762-3.362-17.656-5.53-24.469c-1.103-3.466-5.736-20.864-9.196-34.185
									c-9.153,11.133-31.385,45.911-31.385,57.384c0,12.362,14.572,47.991,18.219,52.355c3.64,4.362,10.927,23.265,5.462,29.08
									c-5.462,5.82-18.218,12.359-22.768,16.727c-4.552,4.36-31.123,106.878-35.682,133.058
									c-4.554,26.176-15.884,144.687-6.772,146.146c9.108,1.457,23.678-21.815,34.608-21.815c10.93,0,38.25-31.27,40.077-41.44
									c0.981-5.484,8.572-21.512,17.783-35.023c-5.873-52.192-24.332-146.261-24.332-166.527
									C433.485,297.817,453.001,225.139,453.001,210.376"/>
							</defs>
							<clipPath id="Front_SVGID_19_">
								<use xlink:href="#Front_SVGID_18_"  overflow="visible"/>
							</clipPath>
							
								<radialGradient id="Front_SVGID_20_" cx="0" cy="792" r="1" gradientTransform="matrix(150.6398 0 0 -157.7804 409.875 125331.1953)" gradientUnits="userSpaceOnUse">
								<stop  offset="0" style="stop-color:#FFFFFF"/>
								<stop  offset="1" style="stop-color:#887F76"/>
							</radialGradient>
							<rect x="356.237" y="151.722" clip-path="url(#Front_SVGID_19_)" fill="url(#Front_SVGID_20_)" width="101.58" height="436.207"/>
						</g>
					</g>
				</g>
				<g opacity="0.15" clip-path="url(#Front_SVGID_10_)">
					<g>
						<defs>
							<rect id="Front_SVGID_21_" x="286.973" y="742.729" width="0.383" height="1.85"/>
						</defs>
						<clipPath id="Front_SVGID_22_">
							<use xlink:href="#Front_SVGID_21_"  overflow="visible"/>
						</clipPath>
						<g clip-path="url(#Front_SVGID_22_)">
							<defs>
								<path id="Front_SVGID_23_" d="M287.356,742.729c-0.128,0.618-0.256,1.235-0.383,1.85
									C287.1,743.964,287.228,743.347,287.356,742.729"/>
							</defs>
							<clipPath id="Front_SVGID_24_">
								<use xlink:href="#Front_SVGID_23_"  overflow="visible"/>
							</clipPath>
							
								<radialGradient id="Front_SVGID_25_" cx="-0.3154" cy="791.8438" r="0.9988" gradientTransform="matrix(1.1904 0 0 -1.2468 287.2813 1730.1062)" gradientUnits="userSpaceOnUse">
								<stop  offset="0" style="stop-color:#FFFFFF"/>
								<stop  offset="1" style="stop-color:#64615E"/>
							</radialGradient>
							<rect x="286.973" y="742.729" clip-path="url(#Front_SVGID_24_)" fill="url(#Front_SVGID_25_)" width="0.383" height="1.85"/>
						</g>
					</g>
				</g>
				<g opacity="0.15" clip-path="url(#Front_SVGID_10_)">
					<g>
						<defs>
							<rect id="Front_SVGID_26_" x="200.873" y="606.573" width="91.253" height="168.24"/>
						</defs>
						<clipPath id="Front_SVGID_27_">
							<use xlink:href="#Front_SVGID_26_"  overflow="visible"/>
						</clipPath>
						<g clip-path="url(#Front_SVGID_27_)">
							<defs>
								<path id="Front_SVGID_28_" d="M279.088,728.993c-0.315-2.991,1.525-1.823,2.305-5.365c0.78-3.542,10.733-39.911,10.733-46.178
									c0-4.271-0.845-17.648-1.054-27.378c-4.144-1.263-9.135-2.688-11.758-3.08c-4.993-0.745-54.908-42.575-62.752-40.332
									c0,0-3.569,7.47-5.703,13.445c-2.14,5.973-9.986,13.441-9.986,20.907c0,7.478,4.278,39.59,10.697,55.276
									c6.42,15.685,23.825,70.306,27.395,78.524C238.965,774.813,283.612,771.979,279.088,728.993"/>
							</defs>
							<clipPath id="Front_SVGID_29_">
								<use xlink:href="#Front_SVGID_28_"  overflow="visible"/>
							</clipPath>
							
								<radialGradient id="Front_SVGID_30_" cx="-0.0015" cy="792" r="0.9999" gradientTransform="matrix(128.0609 0 0 -134.1312 185.0625 106848.0313)" gradientUnits="userSpaceOnUse">
								<stop  offset="0" style="stop-color:#FFFFFF"/>
								<stop  offset="1" style="stop-color:#64615E"/>
							</radialGradient>
							<rect x="200.873" y="604.417" clip-path="url(#Front_SVGID_29_)" fill="url(#Front_SVGID_30_)" width="91.253" height="170.396"/>
						</g>
					</g>
				</g>
				<g opacity="0.13" clip-path="url(#Front_SVGID_10_)">
					<g>
						<defs>
							<rect id="Front_SVGID_31_" x="317.316" y="686.409" width="0.016" height="1.351"/>
						</defs>
						<clipPath id="Front_SVGID_32_">
							<use xlink:href="#Front_SVGID_31_"  overflow="visible"/>
						</clipPath>
						<g clip-path="url(#Front_SVGID_32_)">
							<defs>
								<path id="Front_SVGID_33_" d="M317.315,687.76c0.006-0.45,0.012-0.9,0.017-1.351C317.327,686.859,317.321,687.31,317.315,687.76"
									/>
							</defs>
							<clipPath id="Front_SVGID_34_">
								<use xlink:href="#Front_SVGID_33_"  overflow="visible"/>
							</clipPath>
							
								<radialGradient id="Front_SVGID_35_" cx="-0.3462" cy="792.2656" r="1" gradientTransform="matrix(1.0629 0 0 -1.1132 317.7139 1568.6221)" gradientUnits="userSpaceOnUse">
								<stop  offset="0" style="stop-color:#FFFFFF"/>
								<stop  offset="1" style="stop-color:#000000"/>
							</radialGradient>
							<rect x="317.315" y="686.409" clip-path="url(#Front_SVGID_34_)" fill="url(#Front_SVGID_35_)" width="0.017" height="1.351"/>
						</g>
					</g>
				</g>
				<g opacity="0.13" clip-path="url(#Front_SVGID_10_)">
					<g>
						<defs>
							<rect id="Front_SVGID_36_" x="332.923" y="765.936" width="5.673" height="1.746"/>
						</defs>
						<clipPath id="Front_SVGID_37_">
							<use xlink:href="#Front_SVGID_36_"  overflow="visible"/>
						</clipPath>
						<g clip-path="url(#Front_SVGID_37_)">
							<defs>
								<path id="Front_SVGID_38_" d="M338.596,767.682c-3.57-1.055-5.673-1.746-5.673-1.746S335.024,766.627,338.596,767.682"/>
							</defs>
							<clipPath id="Front_SVGID_39_">
								<use xlink:href="#Front_SVGID_38_"  overflow="visible"/>
							</clipPath>
							
								<radialGradient id="Front_SVGID_40_" cx="0.0708" cy="792.0264" r="1" gradientTransform="matrix(4.5815 0 0 -4.7987 342.5391 4566.9727)" gradientUnits="userSpaceOnUse">
								<stop  offset="0" style="stop-color:#FFFFFF"/>
								<stop  offset="1" style="stop-color:#000000"/>
							</radialGradient>
							<rect x="332.923" y="765.936" clip-path="url(#Front_SVGID_39_)" fill="url(#Front_SVGID_40_)" width="5.673" height="1.746"/>
						</g>
					</g>
				</g>
				<g opacity="0.13" clip-path="url(#Front_SVGID_10_)">
					<g>
						<defs>
							<rect id="Front_SVGID_41_" x="316.962" y="660.217" width="0.361" height="11.991"/>
						</defs>
						<clipPath id="Front_SVGID_42_">
							<use xlink:href="#Front_SVGID_41_"  overflow="visible"/>
						</clipPath>
						<g clip-path="url(#Front_SVGID_42_)">
							<defs>
								<path id="Front_SVGID_43_" d="M317.323,672.208c-0.061-4.373-0.177-8.459-0.361-11.991
									C317.146,663.748,317.263,667.838,317.323,672.208"/>
							</defs>
							<clipPath id="Front_SVGID_44_">
								<use xlink:href="#Front_SVGID_43_"  overflow="visible"/>
							</clipPath>
							
								<radialGradient id="Front_SVGID_45_" cx="-0.0264" cy="792.0146" r="1" gradientTransform="matrix(9.4395 0 0 -9.8869 317.8438 8493.1279)" gradientUnits="userSpaceOnUse">
								<stop  offset="0" style="stop-color:#FFFFFF"/>
								<stop  offset="1" style="stop-color:#000000"/>
							</radialGradient>
							<rect x="316.962" y="660.217" clip-path="url(#Front_SVGID_44_)" fill="url(#Front_SVGID_45_)" width="0.361" height="11.991"/>
						</g>
					</g>
				</g>
				<g opacity="0.13" clip-path="url(#Front_SVGID_10_)">
					<g>
						<defs>
							<rect id="Front_SVGID_46_" x="340.503" y="768.238" width="0.558" height="0.16"/>
						</defs>
						<clipPath id="Front_SVGID_47_">
							<use xlink:href="#Front_SVGID_46_"  overflow="visible"/>
						</clipPath>
						<g clip-path="url(#Front_SVGID_47_)">
							<defs>
								<path id="Front_SVGID_48_" d="M341.061,768.398c-0.188-0.054-0.375-0.107-0.558-0.16
									C340.686,768.291,340.872,768.345,341.061,768.398"/>
							</defs>
							<clipPath id="Front_SVGID_49_">
								<use xlink:href="#Front_SVGID_48_"  overflow="visible"/>
							</clipPath>
							
								<radialGradient id="Front_SVGID_50_" cx="-0.8628" cy="791.8066" r="0.9984" gradientTransform="matrix(0.4481 0 0 -0.4693 341.866 1139.8645)" gradientUnits="userSpaceOnUse">
								<stop  offset="0" style="stop-color:#FFFFFF"/>
								<stop  offset="1" style="stop-color:#000000"/>
							</radialGradient>
							<rect x="340.503" y="768.238" clip-path="url(#Front_SVGID_49_)" fill="url(#Front_SVGID_50_)" width="0.558" height="0.16"/>
						</g>
					</g>
				</g>
				<g opacity="0.13" clip-path="url(#Front_SVGID_10_)">
					<g>
						<defs>
							<rect id="Front_SVGID_51_" x="339.52" y="767.953" width="0.69" height="0.2"/>
						</defs>
						<clipPath id="Front_SVGID_52_">
							<use xlink:href="#Front_SVGID_51_"  overflow="visible"/>
						</clipPath>
						<g clip-path="url(#Front_SVGID_52_)">
							<defs>
								<path id="Front_SVGID_53_" d="M340.21,768.153c-0.233-0.067-0.465-0.135-0.688-0.2
									C339.745,768.019,339.976,768.086,340.21,768.153"/>
							</defs>
							<clipPath id="Front_SVGID_54_">
								<use xlink:href="#Front_SVGID_53_"  overflow="visible"/>
							</clipPath>
							
								<radialGradient id="Front_SVGID_55_" cx="0.2905" cy="791.9414" r="1.001" gradientTransform="matrix(0.5543 0 0 -0.5806 340.5686 1227.7932)" gradientUnits="userSpaceOnUse">
								<stop  offset="0" style="stop-color:#FFFFFF"/>
								<stop  offset="1" style="stop-color:#000000"/>
							</radialGradient>
							<rect x="339.521" y="767.953" clip-path="url(#Front_SVGID_54_)" fill="url(#Front_SVGID_55_)" width="0.689" height="0.2"/>
						</g>
					</g>
				</g>
				<g opacity="0.13" clip-path="url(#Front_SVGID_10_)">
					<g>
						<defs>
							<rect id="Front_SVGID_56_" x="317.356" y="676.313" width="0.015" height="7.409"/>
						</defs>
						<clipPath id="Front_SVGID_57_">
							<use xlink:href="#Front_SVGID_56_"  overflow="visible"/>
						</clipPath>
						<g clip-path="url(#Front_SVGID_57_)">
							<defs>
								<path id="Front_SVGID_58_" d="M317.362,676.313c0.014,2.428,0.012,4.911-0.006,7.41
									C317.374,681.225,317.376,678.741,317.362,676.313"/>
							</defs>
							<clipPath id="Front_SVGID_59_">
								<use xlink:href="#Front_SVGID_58_"  overflow="visible"/>
							</clipPath>
							
								<radialGradient id="Front_SVGID_60_" cx="0.0225" cy="791.9961" r="1" gradientTransform="matrix(5.8306 0 0 -6.107 317.25 5514.4863)" gradientUnits="userSpaceOnUse">
								<stop  offset="0" style="stop-color:#FFFFFF"/>
								<stop  offset="1" style="stop-color:#000000"/>
							</radialGradient>
							<rect x="317.356" y="676.313" clip-path="url(#Front_SVGID_59_)" fill="url(#Front_SVGID_60_)" width="0.02" height="7.41"/>
						</g>
					</g>
				</g>
				<g opacity="0.13" clip-path="url(#Front_SVGID_10_)">
					<g>
						<defs>
							<rect id="Front_SVGID_61_" x="338.632" y="767.692" width="0.774" height="0.228"/>
						</defs>
						<clipPath id="Front_SVGID_62_">
							<use xlink:href="#Front_SVGID_61_"  overflow="visible"/>
						</clipPath>
						<g clip-path="url(#Front_SVGID_62_)">
							<defs>
								<path id="Front_SVGID_63_" d="M339.406,767.92c-0.265-0.078-0.523-0.153-0.773-0.228
									C338.883,767.767,339.141,767.842,339.406,767.92"/>
							</defs>
							<clipPath id="Front_SVGID_64_">
								<use xlink:href="#Front_SVGID_63_"  overflow="visible"/>
							</clipPath>
							
								<radialGradient id="Front_SVGID_65_" cx="0.6221" cy="792.5293" r="1" gradientTransform="matrix(0.6221 0 0 -0.6516 339.5991 1284.1487)" gradientUnits="userSpaceOnUse">
								<stop  offset="0" style="stop-color:#FFFFFF"/>
								<stop  offset="1" style="stop-color:#000000"/>
							</radialGradient>
							<rect x="338.633" y="767.692" clip-path="url(#Front_SVGID_64_)" fill="url(#Front_SVGID_65_)" width="0.773" height="0.228"/>
						</g>
					</g>
				</g>
				<g opacity="0.13" clip-path="url(#Front_SVGID_10_)">
					<g>
						<defs>
							<rect id="Front_SVGID_66_" x="317.348" y="674.391" width="0.015" height="1.737"/>
						</defs>
						<clipPath id="Front_SVGID_67_">
							<use xlink:href="#Front_SVGID_66_"  overflow="visible"/>
						</clipPath>
						<g clip-path="url(#Front_SVGID_67_)">
							<defs>
								<path id="Front_SVGID_68_" d="M317.361,676.128c-0.003-0.583-0.008-1.161-0.013-1.736
									C317.354,674.967,317.358,675.546,317.361,676.128"/>
							</defs>
							<clipPath id="Front_SVGID_69_">
								<use xlink:href="#Front_SVGID_68_"  overflow="visible"/>
							</clipPath>
							
								<radialGradient id="Front_SVGID_70_" cx="0.2881" cy="792.1895" r="1.0001" gradientTransform="matrix(1.3666 0 0 -1.4314 316.9795 1808.6697)" gradientUnits="userSpaceOnUse">
								<stop  offset="0" style="stop-color:#FFFFFF"/>
								<stop  offset="1" style="stop-color:#000000"/>
							</radialGradient>
							<rect x="317.349" y="674.392" clip-path="url(#Front_SVGID_69_)" fill="url(#Front_SVGID_70_)" width="0.013" height="1.736"/>
						</g>
					</g>
				</g>
				<g opacity="0.13" clip-path="url(#Front_SVGID_10_)">
					<g>
						<defs>
							<rect id="Front_SVGID_71_" x="317.34" y="684.24" width="0.013" height="1.466"/>
						</defs>
						<clipPath id="Front_SVGID_72_">
							<use xlink:href="#Front_SVGID_71_"  overflow="visible"/>
						</clipPath>
						<g clip-path="url(#Front_SVGID_72_)">
							<defs>
								<path id="Front_SVGID_73_" d="M317.34,685.706c0.005-0.489,0.01-0.978,0.013-1.466C317.35,684.729,317.345,685.217,317.34,685.706
									"/>
							</defs>
							<clipPath id="Front_SVGID_74_">
								<use xlink:href="#Front_SVGID_73_"  overflow="visible"/>
							</clipPath>
							
								<radialGradient id="Front_SVGID_75_" cx="0.2573" cy="792.0234" r="0.9959" gradientTransform="matrix(1.1532 0 0 -1.2079 317.0664 1641.2124)" gradientUnits="userSpaceOnUse">
								<stop  offset="0" style="stop-color:#FFFFFF"/>
								<stop  offset="1" style="stop-color:#000000"/>
							</radialGradient>
							<rect x="317.34" y="684.24" clip-path="url(#Front_SVGID_74_)" fill="url(#Front_SVGID_75_)" width="0.013" height="1.466"/>
						</g>
					</g>
				</g>
				<g opacity="0.13" clip-path="url(#Front_SVGID_10_)">
					<g>
						<defs>
							<rect id="Front_SVGID_76_" x="323.414" y="597.954" width="82.463" height="178.291"/>
						</defs>
						<clipPath id="Front_SVGID_77_">
							<use xlink:href="#Front_SVGID_76_"  overflow="visible"/>
						</clipPath>
						<g clip-path="url(#Front_SVGID_77_)">
							<defs>
								<path id="Front_SVGID_78_" d="M390.493,776.23c-3.85-2.892-16.703-54.937-16.703-59.002c0-5.976,8.556-4.512,14.262-20.193
									c5.704-15.682,17.825-41.831,17.825-53.779c0-11.95-4.823-46.035-8.388-45.29c-3.566,0.746-12.989,21.608-34.002,29.611
									c-8.738,3.328-10.238,15.715-14.518,17.206c-2.381,0.832-14.919,3.719-25.557,6.111c0.522,10.929,1.374,32.465,0.97,36.909
									c-0.521,5.722,5.566,26.808,5.566,29.532s13.282,43.471,14.063,51.1C344.012,768.436,391.05,776.648,390.493,776.23"/>
							</defs>
							<clipPath id="Front_SVGID_79_">
								<use xlink:href="#Front_SVGID_78_"  overflow="visible"/>
							</clipPath>
							
								<radialGradient id="Front_SVGID_80_" cx="-9.765625e-004" cy="791.998" r="1" gradientTransform="matrix(154.0088 0 0 -161.3091 467.875 128389.3047)" gradientUnits="userSpaceOnUse">
								<stop  offset="0" style="stop-color:#FFFFFF"/>
								<stop  offset="1" style="stop-color:#000000"/>
							</radialGradient>
							<rect x="323.413" y="597.221" clip-path="url(#Front_SVGID_79_)" fill="url(#Front_SVGID_80_)" width="82.464" height="179.428"/>
						</g>
					</g>
				</g>
				<g opacity="0.13" clip-path="url(#Front_SVGID_10_)">
					<g>
						<defs>
							<rect id="Front_SVGID_81_" x="317.326" y="672.417" width="0.02" height="1.711"/>
						</defs>
						<clipPath id="Front_SVGID_82_">
							<use xlink:href="#Front_SVGID_81_"  overflow="visible"/>
						</clipPath>
						<g clip-path="url(#Front_SVGID_82_)">
							<defs>
								<path id="Front_SVGID_83_" d="M317.346,674.128c-0.006-0.575-0.012-1.146-0.02-1.711
									C317.334,672.982,317.34,673.554,317.346,674.128"/>
							</defs>
							<clipPath id="Front_SVGID_84_">
								<use xlink:href="#Front_SVGID_83_"  overflow="visible"/>
							</clipPath>
							
								<radialGradient id="Front_SVGID_85_" cx="-0.0732" cy="792.1104" r="1.0001" gradientTransform="matrix(1.3466 0 0 -1.4104 317.46 1789.942)" gradientUnits="userSpaceOnUse">
								<stop  offset="0" style="stop-color:#FFFFFF"/>
								<stop  offset="1" style="stop-color:#000000"/>
							</radialGradient>
							<rect x="317.326" y="672.417" clip-path="url(#Front_SVGID_84_)" fill="url(#Front_SVGID_85_)" width="0.02" height="1.711"/>
						</g>
					</g>
				</g>
				<g opacity="0.15" clip-path="url(#Front_SVGID_10_)">
					<g>
						<defs>
							<rect id="Front_SVGID_86_" x="225.978" y="118.402" width="68.613" height="121.062"/>
						</defs>
						<clipPath id="Front_SVGID_87_">
							<use xlink:href="#Front_SVGID_86_"  overflow="visible"/>
						</clipPath>
						<g clip-path="url(#Front_SVGID_87_)">
							<defs>
								<path id="Front_SVGID_88_" d="M245.451,118.995c-5.852-1.228-18.134-0.614-19.304,2.449c-1.169,3.065,4.092,12.869,4.092,12.869
									s30.422,44.732,30.422,50.856c0,6.13,15.796,50.244,19.889,53.921c4.098,3.674,7.607-20.835,7.607-26.347
									c0-5.515,6.434-54.535,6.434-58.824s-5.263-18.38-8.773-22.67C282.307,126.961,251.302,120.22,245.451,118.995"/>
							</defs>
							<clipPath id="Front_SVGID_89_">
								<use xlink:href="#Front_SVGID_88_"  overflow="visible"/>
							</clipPath>
							
								<radialGradient id="Front_SVGID_90_" cx="-0.0024" cy="791.9961" r="1" gradientTransform="matrix(106.5485 0 0 -111.5991 227 88525.9219)" gradientUnits="userSpaceOnUse">
								<stop  offset="0" style="stop-color:#FFFFFF"/>
								<stop  offset="1" style="stop-color:#887F76"/>
							</radialGradient>
							<rect x="224.978" y="117.767" clip-path="url(#Front_SVGID_89_)" fill="url(#Front_SVGID_90_)" width="69.613" height="124.997"/>
						</g>
					</g>
				</g>
			</g>
		</g>
		<g opacity="0.75" clip-path="url(#Front_SVGID_8_)">
			<g>
				<defs>
					<rect id="Front_SVGID_91_" x="147.16" y="727.144" width="323.197" height="10.878"/>
				</defs>
				<clipPath id="Front_SVGID_92_">
					<use xlink:href="#Front_SVGID_91_"  overflow="visible"/>
				</clipPath>
				
					<path clip-path="url(#Front_SVGID_92_)" fill="none" stroke="#7A726F" stroke-width="0.602" stroke-miterlimit="10" stroke-dasharray="1.205,1.205" d="
					M147.202,727.751c40.708,5.683,103.337,6.196,144.045,0.513"/>
				
					<path clip-path="url(#Front_SVGID_92_)" fill="none" stroke="#7A726F" stroke-width="0.602" stroke-miterlimit="10" stroke-dasharray="1.205,1.205" d="
					M147.682,733.218c40.708,5.683,101.785,6.148,142.493,0.466"/>
				
					<path clip-path="url(#Front_SVGID_92_)" fill="none" stroke="#7A726F" stroke-width="0.587" stroke-miterlimit="10" stroke-dasharray="1.174,1.174" d="
					M328.34,727.511c40.303,5.684,101.673,5.606,141.976-0.076"/>
				
					<path clip-path="url(#Front_SVGID_92_)" fill="none" stroke="#7A726F" stroke-width="0.587" stroke-miterlimit="10" stroke-dasharray="1.174,1.174" d="
					M329.456,733.215c40.303,5.683,99.626,5.423,139.929-0.26"/>
			</g>
		</g>
	</g>
	<g clip-path="url(#Front_SVGID_2_)">
		<defs>
			<rect id="Front_SVGID_93_" width="612" height="792"/>
		</defs>
		<clipPath id="Front_SVGID_94_">
			<use xlink:href="#Front_SVGID_93_"  overflow="visible"/>
		</clipPath>
		<path clip-path="url(#Front_SVGID_94_)" fill="#BF2A43" d="M190.197,37.54c0,0-7.25-1.892-7.653,7.074
			c-0.404,8.968,3.533,33.291-5.759,83.207c-10.504,56.455-22.254,80.309-22.254,80.309s-0.225,1.319,1.928,3.931
			c2.154,2.613,4.969,1.61,4.969,1.61s13.114-32.119,22.628-84.908C192.796,80.287,190.197,37.54,190.197,37.54"/>
		<path clip-path="url(#Front_SVGID_94_)" fill="none" stroke="#887F76" stroke-miterlimit="10" stroke-dasharray="1.085,1.085" d="
			M190.197,37.54c0,0-7.25-1.892-7.653,7.074c-0.404,8.968,3.533,33.291-5.759,83.207c-10.504,56.455-22.254,80.309-22.254,80.309
			s-0.225,1.319,1.928,3.931c2.154,2.613,4.969,1.61,4.969,1.61s13.114-32.119,22.628-84.908
			C192.796,80.287,190.197,37.54,190.197,37.54z"/>
		<path clip-path="url(#Front_SVGID_94_)" fill="#BF2A43" d="M430.512,36.967c0,0,0.402-1.055,2.056-0.636
			c5.981,1.515,4.621,10.839,4.621,10.839s-4.602,34.265,2.058,83.341c7.527,55.463,18.159,78.388,18.159,78.388
			s0.133,1.238-1.724,3.685c-1.855,2.447-4.12,1.333-4.12,1.333s-14.4-34.617-20.235-86.622
			C425.968,79.538,430.512,36.967,430.512,36.967"/>
		<path clip-path="url(#Front_SVGID_94_)" fill="none" stroke="#887F76" stroke-miterlimit="10" stroke-dasharray="1.085,1.085" d="
			M430.512,36.967c0,0,0.402-1.055,2.056-0.636c5.981,1.515,4.621,10.839,4.621,10.839s-4.602,34.265,2.058,83.341
			c7.527,55.463,18.159,78.388,18.159,78.388s0.133,1.238-1.724,3.685c-1.855,2.447-4.12,1.333-4.12,1.333
			s-14.4-34.617-20.235-86.622C425.968,79.538,430.512,36.967,430.512,36.967z"/>
		<path clip-path="url(#Front_SVGID_94_)" fill="#BF2A43" d="M223.524,23.356c0,0,38.02,86.679,84.675,86.679
			c55.219,0,81.669-87.366,81.669-87.366s-5.207-4.107-7.698-1.925c-2.489,2.183-24.893,79.48-72.58,79.963
			c-44.721,0.451-75.189-77.119-78.173-78.913C228.435,19.998,223.524,23.356,223.524,23.356"/>
		<path clip-path="url(#Front_SVGID_94_)" fill="none" stroke="#887F76" stroke-dasharray="1.085,1.085" d="M223.524,23.356
			c0,0,38.02,86.679,84.675,86.679c55.219,0,81.669-87.366,81.669-87.366s-5.207-4.107-7.698-1.925
			c-2.489,2.183-24.893,79.48-72.58,79.963c-44.721,0.451-75.189-77.119-78.173-78.913
			C228.435,19.998,223.524,23.356,223.524,23.356z"/>
	</g>
	
		<rect x="198.76" y="142.035" clip-path="url(#Front_SVGID_2_)" fill="none" stroke="#FFFFFF" stroke-miterlimit="10" stroke-dasharray="3,6" width="223.686" height="166.667"/>
	
		<rect x="314.102" y="145.942" clip-path="url(#Front_SVGID_2_)" fill="none" stroke="#FFFFFF" stroke-miterlimit="10" stroke-dasharray="3,6" width="107.019" height="107.018"/>
	
		<rect x="200.086" y="145.942" clip-path="url(#Front_SVGID_2_)" fill="none" stroke="#FFFFFF" stroke-miterlimit="10" stroke-dasharray="3,6" width="107.017" height="107.018"/>
	
		<rect x="162.263" y="585.017" clip-path="url(#Front_SVGID_2_)" fill="none" stroke="#FFFFFF" stroke-miterlimit="10" stroke-dasharray="3,6" width="107.018" height="107.019"/>
	
		<rect x="342.087" y="609.579" clip-path="url(#Front_SVGID_2_)" fill="none" stroke="#FFFFFF" stroke-miterlimit="10" stroke-dasharray="3,6" width="107.019" height="107.018"/>
</g>
  <g id="CUSTOM"></g>
</svg>
