<?xml version="1.0" encoding="utf-8"?>
<!-- Generator: Adobe Illustrator 16.0.0, SVG Export Plug-In . SVG Version: 6.00 Build 0)  -->
<!DOCTYPE svg PUBLIC "-//W3C//DTD SVG 1.1//EN" "http://www.w3.org/Graphics/SVG/1.1/DTD/svg11.dtd">
<svg version="1.1" id="Layer_1" xmlns="http://www.w3.org/2000/svg" xmlns:xlink="http://www.w3.org/1999/xlink" x="0px" y="0px"
	 width="612px" height="792px" viewBox="0 0 470 792" enable-background="new 0 0 612 792" xml:space="preserve">
<rect x="105.267" y="162.261" fill="none" width="62.022" height="89.05"/>
<rect x="152.649" y="200.944" fill="none" width="27.027" height="31.185"/>
<rect x="389.068" y="231.119" fill="none" width="63.521" height="63.871"/>
<rect x="446.997" y="221.723" fill="none" width="50.608" height="20.812"/>
<rect x="452.59" y="175.209" fill="none" width="37.337" height="36.357"/>
<rect x="235.677" y="69.237" fill="none" width="137.986" height="24.583"/>
<rect x="92.122" y="250.188" fill="none" width="73.335" height="9.694"/>
<rect x="92.122" y="253.361" fill="none" width="73.335" height="9.693"/>
<rect x="167.048" y="561.172" fill="none" width="270.258" height="26.68"/>
<rect x="166.163" y="563.765" fill="none" width="272.823" height="28.082"/>
<rect x="233.835" y="70.94" fill="none" width="141.974" height="25.672"/>
<rect x="61.693" fill="none" width="488.613" height="632.322"/>
<g>
	<defs>
		<rect id="DSFB_SVGID_1_" x="70.75" y="77.677" width="484.75" height="627.323"/>
	</defs>
	<clipPath id="DSFB_SVGID_2_">
		<use xlink:href="#DSFB_SVGID_1_"  overflow="visible"/>
	</clipPath>
	<g  clip-path="url(#DSFB_SVGID_2_)">
		<defs>
			<rect id="DSFB_SVGID_3_" x="70.75" y="77.677" width="484.75" height="627.323"/>
		</defs>
		<clipPath id="DSFB_SVGID_4_">
			<use xlink:href="#DSFB_SVGID_3_"  overflow="visible"/>
		</clipPath>
    <g id="BODY">
      		<path clip-path="url(#DSFB_SVGID_4_)" fill="#BF2A43" d="M440.178,568.374c-0.23-3.625-0.93-8.723-1.962-14.822
			c-0.414-2.438-0.88-5.039-1.392-7.768c-1.022-5.46-2.224-11.439-3.535-17.695c-1.311-6.258-2.731-12.792-4.192-19.362
			c-1.46-6.571-2.961-13.179-4.435-19.581c-4.785-20.805-9.267-39.44-11.065-47.609c-0.125-0.567-0.241-1.164-0.352-1.776
			c-0.038-0.213-0.075-0.437-0.111-0.654c-0.067-0.402-0.134-0.813-0.195-1.233c-0.041-0.279-0.081-0.563-0.121-0.851
			c-0.048-0.363-0.095-0.739-0.141-1.115c-0.04-0.336-0.081-0.667-0.119-1.011c-0.025-0.238-0.046-0.488-0.071-0.731
			c-0.092-0.928-0.175-1.879-0.245-2.863c-0.01-0.136-0.021-0.268-0.03-0.404c-0.039-0.575-0.074-1.16-0.106-1.752
			c-0.009-0.137-0.015-0.274-0.021-0.411c-0.032-0.627-0.063-1.262-0.088-1.906c0-0.002-0.001-0.003-0.001-0.005
			c-0.112-2.903-0.148-5.984-0.121-9.19c0-0.039,0-0.077,0.001-0.114c0.044-4.816,0.236-9.916,0.546-15.128
			c0.003-0.024,0.004-0.048,0.006-0.073c0.205-3.422,0.461-6.892,0.759-10.36c0.01-0.116,0.02-0.231,0.03-0.347
			c0.295-3.413,0.631-6.823,1.001-10.186c0.013-0.113,0.024-0.227,0.036-0.339c0.181-1.623,0.368-3.235,0.562-4.83
			c0.024-0.198,0.048-0.392,0.072-0.589c0.386-3.146,0.798-6.219,1.229-9.189c0.04-0.27,0.078-0.541,0.117-0.809
			c0.21-1.421,0.422-2.819,0.638-4.186c0.03-0.183,0.06-0.361,0.089-0.542c0.201-1.251,0.403-2.473,0.608-3.667
			c0.036-0.211,0.073-0.427,0.109-0.636c0.221-1.261,0.441-2.482,0.666-3.668c0.047-0.256,0.096-0.507,0.145-0.759
			c0.227-1.192,0.457-2.356,0.688-3.461c0.001-0.007,0.002-0.014,0.004-0.021c1.924-9.21,4.768-25.063,7.582-41.338
			c0.277-1.614,0.557-3.229,0.833-4.845c0.311-1.809,0.62-3.612,0.926-5.407c0.042-0.243,0.082-0.484,0.123-0.727
			c0.19-1.114,0.379-2.224,0.566-3.328c0.04-0.238,0.081-0.477,0.121-0.714c0.186-1.1,0.372-2.195,0.555-3.28
			c0.151-0.893,0.3-1.778,0.448-2.657c0.182-1.069,0.359-2.128,0.535-3.174c0.464-2.762,0.91-5.432,1.334-7.976
			c0.161-0.965,0.318-1.912,0.473-2.837c2.069-12.437,3.488-21.167,3.488-21.167s-13.99-5.151-24.951-16.843
			c-0.297-0.317-0.602-0.618-0.894-0.946c-7.461-8.334-19.433-21.586-27.811-38.09c-4.063-8-7.282-16.76-8.729-26.102
			c-4.431-28.616,16.245-67.286,16.245-67.286l-14.593-12.33c0,0-24.582,40.322-59.831,40.322
			c-38.497,0-65.083-38.864-65.083-38.864l-16.464,13.966c0,0,21.125,26.296,12.397,79.289c-0.021,0.125-0.035,0.246-0.056,0.371
			c-3.673,21.999-16.28,37.074-28.21,46.755c-0.003-0.013-0.007-0.027-0.009-0.041c-12.474,10.118-24.207,14.337-24.207,14.337
			s0.006,0.032,0.009,0.043l-0.01,0.004c0,0,7.606,36.87,12.445,60.304c5.554,26.908,8.705,90.182,8.622,102.587
			c-0.002,0.385-0.008,0.725-0.019,1.005c-0.005,0.182-0.02,0.36-0.027,0.539c-0.05,1.344-0.123,2.687-0.217,4.027
			c-0.042,0.613-0.099,1.226-0.151,1.838c-0.077,0.913-0.16,1.825-0.254,2.734c-0.071,0.674-0.146,1.347-0.226,2.019
			c-0.101,0.854-0.211,1.702-0.326,2.55c-0.091,0.677-0.182,1.355-0.281,2.029c-0.125,0.851-0.264,1.693-0.401,2.537
			c-0.126,0.771-0.249,1.545-0.384,2.309c-0.233,1.324-0.479,2.637-0.735,3.94c-0.155,0.794-0.317,1.581-0.48,2.366
			c-0.146,0.703-0.293,1.399-0.443,2.094c-0.194,0.892-0.386,1.783-0.585,2.661c-0.033,0.142-0.066,0.28-0.099,0.422
			c-2.242,9.784-4.818,18.646-6.589,25.691c-5.014,19.958-14.693,67.552-21.338,126.331c-1.455,12.864-2.096,25.826-2.21,38.227
			c-0.411,44.275,5.902,54.735,5.902,54.735s19.531,4.32,56.45,4.32c25.1,0,40.138-2.572,47.202-4.222v0.002
			c-0.008,0.005,0.058-0.011,0.178-0.041c2.67-0.63,4.152-1.114,4.576-1.261c0.058-0.016,0.099-0.027,0.099-0.027s0-0.006,0-0.007
			c0.024-0.008,0.041-0.014,0.041-0.014s0.001-0.178,0.004-0.495c0.34-3.916,2.594-29.848,3.569-39.344
			c1.436-13.993,3.071-27.063,5.287-41.832c0.553-3.691-0.307-29.057-0.403-29.607c-0.285-1.653,9.535-6.645,16.18-5.907
			c6.603,0.733,7.105,4.457,7.113,11.745v0.2c-0.014,7.336-2.22,9.576-3.692,22.831c-0.149,10.926-0.234,17.209,0.049,23.674
			c0.097,1.825,0.207,3.688,0.331,5.582c0.328,4.404,0.836,9.423,1.608,16.29c2.197,19.528,5.599,33.755,6.122,35.877
			c0.008,0.137,0.012,0.213,0.012,0.213s0.026,0.003,0.041,0.006c0.011,0.041,0.017,0.067,0.017,0.067l2.414,0.274
			c6.803,0.93,26.836,3.493,49.557,4.746c10.197,0.562,19.344,0.786,27.822-0.416c0.006-0.001,6.751-0.832,6.757-0.833
			c10.867-1.543,12.315-0.546,16.098-1.645c0.02-0.006,0.038-0.013,0.059-0.018c0.652-0.189,1.164-0.345,1.514-0.453
			c0.051-0.017,0.081-0.025,0.126-0.04c0.102-0.031,0.185-0.058,0.251-0.078c0.054-0.018,0.081-0.026,0.111-0.036
			c0.022-0.007,0.026-0.008,0.04-0.013c0.011-0.004,0.048-0.016,0.048-0.016s0.623-2.609,1.479-6.484
			c0.071-0.323,0.145-0.655,0.22-0.994c0.148-0.68,0.303-1.392,0.46-2.128c0.079-0.368,0.16-0.744,0.241-1.124
			c0.241-1.142,0.49-2.336,0.739-3.559c1.08-5.299,2.167-11.16,2.768-15.874C443.132,644.573,441.655,591.577,440.178,568.374"/>

    </g>
	</g>
	<g clip-path="url(#DSFB_SVGID_2_)">
		<defs>
			<rect id="DSFB_SVGID_5_" x="70.75" y="77.677" width="484.75" height="627.323"/>
		</defs>
		<clipPath id="DSFB_SVGID_6_">
			<use xlink:href="#DSFB_SVGID_5_"  overflow="visible"/>
		</clipPath>
		<g opacity="0.13" clip-path="url(#DSFB_SVGID_6_)">
			<g>
				<defs>
					<rect id="DSFB_SVGID_7_" x="269.595" y="434.63" width="36.75" height="65.063"/>
				</defs>
				<clipPath id="DSFB_SVGID_8_">
					<use xlink:href="#DSFB_SVGID_7_"  overflow="visible"/>
				</clipPath>
				<g clip-path="url(#DSFB_SVGID_8_)">
					<defs>
						<path id="DSFB_SVGID_9_" d="M298.654,449.559c-4.937-5.169-29.06-14.929-29.06-14.929s18.093,26.418,16.445,33.881
							c-1.645,7.463-11.513,30.434-11.513,30.434s11.519,2.296,15.902-1.148c4.387-3.446,16.446-16.079,15.898-24.117
							C305.781,465.641,303.585,454.726,298.654,449.559"/>
					</defs>
					<clipPath id="DSFB_SVGID_10_">
						<use xlink:href="#DSFB_SVGID_9_"  overflow="visible"/>
					</clipPath>
					
						<radialGradient id="DSFB_SVGID_11_" cx="0.7163" cy="792.6523" r="0.7928" gradientTransform="matrix(152.1198 0 0 -159.3305 103.7969 126757.75)" gradientUnits="userSpaceOnUse">
						<stop  offset="0" style="stop-color:#FFFFFF"/>
						<stop  offset="1" style="stop-color:#877F76"/>
					</radialGradient>
					<rect x="269.595" y="434.63" clip-path="url(#DSFB_SVGID_10_)" fill="url(#DSFB_SVGID_11_)" width="37.28" height="66.61"/>
				</g>
			</g>
		</g>
		<g opacity="0.13" clip-path="url(#DSFB_SVGID_6_)">
			<g>
				<defs>
					<rect id="DSFB_SVGID_12_" x="326.336" y="603.73" width="0.043" height="0.672"/>
				</defs>
				<clipPath id="DSFB_SVGID_13_">
					<use xlink:href="#DSFB_SVGID_12_"  overflow="visible"/>
				</clipPath>
				<g clip-path="url(#DSFB_SVGID_13_)">
					<defs>
						<path id="DSFB_SVGID_14_" d="M326.378,604.402c-0.013-0.228-0.026-0.452-0.042-0.672
							C326.352,603.95,326.365,604.175,326.378,604.402"/>
					</defs>
					<clipPath id="DSFB_SVGID_15_">
						<use xlink:href="#DSFB_SVGID_14_"  overflow="visible"/>
					</clipPath>
					
						<radialGradient id="DSFB_SVGID_16_" cx="34.1206" cy="1414.9619" r="0.7913" gradientTransform="matrix(0.0937 0 0 -0.0981 323.1633 743.2685)" gradientUnits="userSpaceOnUse">
						<stop  offset="0" style="stop-color:#FFFFFF"/>
						<stop  offset="1" style="stop-color:#877F76"/>
					</radialGradient>
					<rect x="326.336" y="603.73" clip-path="url(#DSFB_SVGID_15_)" fill="url(#DSFB_SVGID_16_)" width="0.042" height="0.672"/>
				</g>
			</g>
		</g>
		<g opacity="0.13" clip-path="url(#DSFB_SVGID_6_)">
			<g>
				<defs>
					<path id="DSFB_SVGID_17_" d="M326.299,603.308L326.299,603.308z"/>
				</defs>
				<clipPath id="DSFB_SVGID_18_">
					<use xlink:href="#DSFB_SVGID_17_"  overflow="visible"/>
				</clipPath>
			</g>
		</g>
		<g opacity="0.13" clip-path="url(#DSFB_SVGID_6_)">
			<g>
				<defs>
					<rect id="DSFB_SVGID_19_" x="331.115" y="684.854" width="1.563" height="0.445"/>
				</defs>
				<clipPath id="DSFB_SVGID_20_">
					<use xlink:href="#DSFB_SVGID_19_"  overflow="visible"/>
				</clipPath>
				<g clip-path="url(#DSFB_SVGID_20_)">
					<defs>
						<path id="DSFB_SVGID_21_" d="M331.124,684.918l1.555,0.382c-0.77-0.214-1.297-0.366-1.563-0.445L331.124,684.918z"/>
					</defs>
					<clipPath id="DSFB_SVGID_22_">
						<use xlink:href="#DSFB_SVGID_21_"  overflow="visible"/>
					</clipPath>
					
						<radialGradient id="DSFB_SVGID_23_" cx="1.0166" cy="816.8994" r="0.7943" gradientTransform="matrix(3.2214 0 0 -3.3741 328.7511 3441.5811)" gradientUnits="userSpaceOnUse">
						<stop  offset="0" style="stop-color:#FFFFFF"/>
						<stop  offset="1" style="stop-color:#877F76"/>
					</radialGradient>
					<rect x="331.115" y="684.854" clip-path="url(#DSFB_SVGID_22_)" fill="url(#DSFB_SVGID_23_)" width="1.563" height="0.445"/>
				</g>
			</g>
		</g>
		<g opacity="0.13" clip-path="url(#DSFB_SVGID_6_)">
			<g>
				<defs>
					<rect id="DSFB_SVGID_24_" x="292.247" y="676.258" width="3.044" height="10.661"/>
				</defs>
				<clipPath id="DSFB_SVGID_25_">
					<use xlink:href="#DSFB_SVGID_24_"  overflow="visible"/>
				</clipPath>
				<g clip-path="url(#DSFB_SVGID_25_)">
					<defs>
						<path id="DSFB_SVGID_26_" d="M292.247,686.919c0.944-0.286,1.775-0.547,2.466-0.771c0.292-1.89,0.458-5.551,0.577-9.891
							c-0.306,5.358-0.576,9.305-0.576,9.305S293.935,686.103,292.247,686.919"/>
					</defs>
					<clipPath id="DSFB_SVGID_27_">
						<use xlink:href="#DSFB_SVGID_26_"  overflow="visible"/>
					</clipPath>
					
						<radialGradient id="DSFB_SVGID_28_" cx="2.3516" cy="805.0645" r="0.7919" gradientTransform="matrix(6.2862 0 0 -6.5842 279.2329 5987.5605)" gradientUnits="userSpaceOnUse">
						<stop  offset="0" style="stop-color:#FFFFFF"/>
						<stop  offset="1" style="stop-color:#877F76"/>
					</radialGradient>
					<rect x="292.247" y="676.258" clip-path="url(#DSFB_SVGID_27_)" fill="url(#DSFB_SVGID_28_)" width="3.042" height="10.661"/>
				</g>
			</g>
		</g>
		<g opacity="0.13" clip-path="url(#DSFB_SVGID_6_)">
			<g>
				<defs>
					<rect id="DSFB_SVGID_29_" x="324.301" y="581.033" width="2.164" height="12.579"/>
				</defs>
				<clipPath id="DSFB_SVGID_30_">
					<use xlink:href="#DSFB_SVGID_29_"  overflow="visible"/>
				</clipPath>
				<g clip-path="url(#DSFB_SVGID_30_)">
					<defs>
						<path id="DSFB_SVGID_31_" d="M324.3,593.612c1.017-4.365,2.165-8.185,2.165-12.579C325.721,583.813,324.953,588.585,324.3,593.612"
							/>
					</defs>
					<clipPath id="DSFB_SVGID_32_">
						<use xlink:href="#DSFB_SVGID_31_"  overflow="visible"/>
					</clipPath>
					
						<radialGradient id="DSFB_SVGID_33_" cx="1.2485" cy="804.8848" r="0.7918" gradientTransform="matrix(4.4896 0 0 -4.7024 319.9493 4378.3857)" gradientUnits="userSpaceOnUse">
						<stop  offset="0" style="stop-color:#FFFFFF"/>
						<stop  offset="1" style="stop-color:#877F76"/>
					</radialGradient>
					<rect x="324.3" y="581.033" clip-path="url(#DSFB_SVGID_32_)" fill="url(#DSFB_SVGID_33_)" width="2.165" height="12.579"/>
				</g>
			</g>
		</g>
		<g opacity="0.13" clip-path="url(#DSFB_SVGID_6_)">
			<g>
				<defs>
					<rect id="DSFB_SVGID_34_" x="301.708" y="589.909" width="2.848" height="29.557"/>
				</defs>
				<clipPath id="DSFB_SVGID_35_">
					<use xlink:href="#DSFB_SVGID_34_"  overflow="visible"/>
				</clipPath>
				<g clip-path="url(#DSFB_SVGID_35_)">
					<defs>
						<path id="DSFB_SVGID_36_" d="M303.574,605.782c-0.673,4.704-1.289,9.232-1.865,13.685c1.63-10.162,3.459-22.46,2.649-26.7
							c-0.159-0.83-0.338-1.8-0.527-2.858C304.298,594.618,304.414,599.921,303.574,605.782"/>
					</defs>
					<clipPath id="DSFB_SVGID_37_">
						<use xlink:href="#DSFB_SVGID_36_"  overflow="visible"/>
					</clipPath>
					
						<radialGradient id="DSFB_SVGID_38_" cx="2.0356" cy="802.8682" r="0.792" gradientTransform="matrix(5.984 0 0 -6.2677 291.1864 5651.3359)" gradientUnits="userSpaceOnUse">
						<stop  offset="0" style="stop-color:#FFFFFF"/>
						<stop  offset="1" style="stop-color:#877F76"/>
					</radialGradient>
					<rect x="301.708" y="589.908" clip-path="url(#DSFB_SVGID_37_)" fill="url(#DSFB_SVGID_38_)" width="3.459" height="29.559"/>
				</g>
			</g>
		</g>
		<g opacity="0.13" clip-path="url(#DSFB_SVGID_6_)">
			<g>
				<defs>
					<rect id="DSFB_SVGID_39_" x="302.825" y="566.414" width="22.069" height="3.495"/>
				</defs>
				<clipPath id="DSFB_SVGID_40_">
					<use xlink:href="#DSFB_SVGID_39_"  overflow="visible"/>
				</clipPath>
				<g clip-path="url(#DSFB_SVGID_40_)">
					<defs>
						<path id="DSFB_SVGID_41_" d="M319.819,567.112c-5.231-0.608-13.641-1.679-16.994,1.28c4.522-1.093,18.449-2.313,21.142,0.507
							c0.333,0.349,0.639,0.683,0.928,1.01C323.925,568.386,322.36,567.408,319.819,567.112"/>
					</defs>
					<clipPath id="DSFB_SVGID_42_">
						<use xlink:href="#DSFB_SVGID_41_"  overflow="visible"/>
					</clipPath>
					
						<radialGradient id="DSFB_SVGID_43_" cx="0.6313" cy="793.5928" r="0.7914" gradientTransform="matrix(45.4768 0 0 -47.6325 286.9756 38370.6289)" gradientUnits="userSpaceOnUse">
						<stop  offset="0" style="stop-color:#FFFFFF"/>
						<stop  offset="1" style="stop-color:#877F76"/>
					</radialGradient>
					<rect x="302.825" y="565.434" clip-path="url(#DSFB_SVGID_42_)" fill="url(#DSFB_SVGID_43_)" width="22.069" height="4.476"/>
				</g>
			</g>
		</g>
		<g opacity="0.13" clip-path="url(#DSFB_SVGID_6_)">
			<g>
				<defs>
					<rect id="DSFB_SVGID_44_" x="243.803" y="539.375" width="131.037" height="150.706"/>
				</defs>
				<clipPath id="DSFB_SVGID_45_">
					<use xlink:href="#DSFB_SVGID_44_"  overflow="visible"/>
				</clipPath>
				<g clip-path="url(#DSFB_SVGID_45_)">
					<defs>
						<path id="DSFB_SVGID_46_" d="M374.84,606.263c0-2.87-11.513-20.101-13.707-20.101c-2.192,0-21.482-41.621-24.225-41.621
							c-2.739,0-33.992-5.166-35.638-5.166c-1.645,0-18.537,32.434-21.276,35.88c-2.742,3.441-15.356,12.63-18.099,18.374
							c-2.741,5.739-18.092,28.139-18.092,32.733c0,4.593,4.39,2.045,10.968,12.955c6.576,10.915,3.836,21.249,0.549,29.287
							c-2.184,5.339-4.902,16.462-7.25,21.477c13.174-0.42,36.611-2.065,45.841-4.718c0.243-8.551-1.118-44.311,0-48.291
							c0.96-3.42,1.804,6.98,2.39-3.771c-0.265,2.519-0.526,5.048-0.776,7.612c-1.056,10.771-2.409,5.873-2.409,5.873
							s-0.948-1.79-4.77-0.278c0.224-7.94,2.65-9.415,2.915-16.908c0.171-4.841,4.513-30.898,5.034-36.912
							c0.522-6.015,1.837-14.905,0.532-21.74c-1.306-6.835-2.61-15.036-1.565-16.128c1.044-1.096,25.056-2.734,28.188,0.546
							c3.133,3.28,6.525,11.208,4.699,18.043c-1.827,6.833-4.826,26.574-4.826,31.769s3.189,33.917,3.71,37.744
							c0.403,2.958,1.742-6.801,3.179,2.477c-0.734-0.188-1.398-0.313-2.001-0.403c0.587,4.715,3.531,31.426,4.918,40.368
							l9.273,1.666c5.781,1.268,13.027,1.128,21.463,2.22c-1.167-2.187-3.743-10.701-4.924-13.178
							c-5.479-11.481-2.193-34.454-1.101-40.773c1.101-6.319,7.678,1.973,8.776-1.473c1.1-3.448-2.743-18.948,0-20.671
							C369.361,611.435,374.84,609.134,374.84,606.263"/>
					</defs>
					<clipPath id="DSFB_SVGID_47_">
						<use xlink:href="#DSFB_SVGID_46_"  overflow="visible"/>
					</clipPath>
					
						<radialGradient id="DSFB_SVGID_48_" cx="0.5176" cy="792.7939" r="0.7921" gradientTransform="matrix(270.0911 0 0 -282.8939 180.0078 224965.5156)" gradientUnits="userSpaceOnUse">
						<stop  offset="0" style="stop-color:#FFFFFF"/>
						<stop  offset="1" style="stop-color:#877F76"/>
					</radialGradient>
					<rect x="243.803" y="539.375" clip-path="url(#DSFB_SVGID_47_)" fill="url(#DSFB_SVGID_48_)" width="131.037" height="150.706"/>
				</g>
			</g>
		</g>
		<g opacity="0.13" clip-path="url(#DSFB_SVGID_6_)">
			<g>
				<defs>
					<rect id="DSFB_SVGID_49_" x="322.642" y="609.776" width="0.07" height="2.985"/>
				</defs>
				<clipPath id="DSFB_SVGID_50_">
					<use xlink:href="#DSFB_SVGID_49_"  overflow="visible"/>
				</clipPath>
				<g clip-path="url(#DSFB_SVGID_50_)">
					<defs>
						<path id="DSFB_SVGID_51_" d="M322.642,611.918c0,0.197,0.015,0.497,0.036,0.844c0.01-0.954,0.022-1.95,0.034-2.985
							C322.669,610.617,322.642,611.36,322.642,611.918"/>
					</defs>
					<clipPath id="DSFB_SVGID_52_">
						<use xlink:href="#DSFB_SVGID_51_"  overflow="visible"/>
					</clipPath>
					
						<radialGradient id="DSFB_SVGID_53_" cx="22.4272" cy="1114.3262" r="0.7922" gradientTransform="matrix(0.1877 0 0 -0.1966 318.4727 831.8442)" gradientUnits="userSpaceOnUse">
						<stop  offset="0" style="stop-color:#FFFFFF"/>
						<stop  offset="1" style="stop-color:#877F76"/>
					</radialGradient>
					<rect x="322.642" y="609.776" clip-path="url(#DSFB_SVGID_52_)" fill="url(#DSFB_SVGID_53_)" width="0.07" height="2.985"/>
				</g>
			</g>
		</g>
		<g opacity="0.13" clip-path="url(#DSFB_SVGID_6_)">
			<g>
				<defs>
					<path id="DSFB_SVGID_54_" d="M324.068,597.236L324.068,597.236z"/>
				</defs>
				<clipPath id="DSFB_SVGID_55_">
					<use xlink:href="#DSFB_SVGID_54_"  overflow="visible"/>
				</clipPath>
			</g>
		</g>
		<g opacity="0.13" clip-path="url(#DSFB_SVGID_6_)">
			<g>
				<defs>
					<rect id="DSFB_SVGID_56_" x="179.653" y="238.985" width="62.75" height="450.521"/>
				</defs>
				<clipPath id="DSFB_SVGID_57_">
					<use xlink:href="#DSFB_SVGID_56_"  overflow="visible"/>
				</clipPath>
				<g clip-path="url(#DSFB_SVGID_57_)">
					<defs>
						<path id="DSFB_SVGID_58_" d="M220.256,644.553c0.547-6.314-17.547-7.217-24.672-20.426c-7.127-13.206-0.548-45.363,1.643-57.998
							c2.192-12.637,18.639-24.693,24.122-31.585c5.484-6.892,17.547-57.419,20.286-71.208c2.741-13.78-2.739-55.124-2.739-55.124
							s-5.488-9.768-5.488-12.062c0-2.296,3.291-17.231,5.486-22.399c2.193-5.166,1.644-46.512,1.644-49.958
							c0-3.446-15.902-21.824-18.096-28.139c-1.551-4.468-8.552-37.636-12.518-56.668c-2.242,1.39-14.892,7-15.313,8.216
							c1.689,12.096,11.379,56.565,11.379,56.565c1.528,5.87,3.057,16.364,4.245,27.571c0.85,2.74,0.418,11.479,1.528,17.075
							c1.528,10.317,3.396,58.417,3.396,63.146c0,5.139-5.248,32.721-6.098,36.585c-1.48,6.713-5.877,20.355-9.031,35.893
							c-6.293,30.999-13.128,70.705-17.556,109.86c-6.646,58.778,0.523,61.572,0.523,61.572s6.65,35.584,7.413,33.986
							C192.607,684.864,219.708,650.866,220.256,644.553"/>
					</defs>
					<clipPath id="DSFB_SVGID_59_">
						<use xlink:href="#DSFB_SVGID_58_"  overflow="visible"/>
					</clipPath>
					
						<radialGradient id="DSFB_SVGID_60_" cx="0.6704" cy="792.5391" r="0.7923" gradientTransform="matrix(221.487 0 0 -231.9858 45.8516 184264.4688)" gradientUnits="userSpaceOnUse">
						<stop  offset="0" style="stop-color:#FFFFFF"/>
						<stop  offset="1" style="stop-color:#877F76"/>
					</radialGradient>
					<rect x="175.831" y="238.985" clip-path="url(#DSFB_SVGID_59_)" fill="url(#DSFB_SVGID_60_)" width="68.545" height="452.067"/>
				</g>
			</g>
		</g>
		<g opacity="0.13" clip-path="url(#DSFB_SVGID_6_)">
			<g>
				<defs>
					<rect id="DSFB_SVGID_61_" x="372.204" y="226.089" width="70.03" height="463.381"/>
				</defs>
				<clipPath id="DSFB_SVGID_62_">
					<use xlink:href="#DSFB_SVGID_61_"  overflow="visible"/>
				</clipPath>
				<g clip-path="url(#DSFB_SVGID_62_)">
					<defs>
						<path id="DSFB_SVGID_63_" d="M441.615,653.249c1.476-11.603,0.041-61.672-1.438-84.875
							c-1.476-23.201-22.152-106.729-26.581-126.838c-4.431-20.108-0.173-65.571,4.995-90.321
							c4.246-20.324,13.58-76.674,16.564-94.854c-0.762-2.408,0.966-3.776,0.16-6.538c-5.007-2.345-14.647-7.606-22.459-16.333
							c-1.922-2.147-4.07-4.629-6.326-7.401c-2.455,10.634-4.219,18.905-4.374,21.329c-0.55,8.615-8.224,49.385-8.772,53.98
							c-0.547,4.596-5.487,17.805-4.387,26.417c1.095,8.612,18.639,21.82,19.186,32.157c0.552,10.339-2.735,26.417-3.834,28.138
							c-1.098,1.724-11.512,28.714-11.512,31.008c0,2.301-13.164,35.029-17.547,35.029c-4.386,0-3.836,17.809,0,29.867
							c3.837,12.057,27.961,41.344,28.51,46.513c0.549,5.171,9.323,14.358,8.226,16.656c-1.101,2.295-7.677,9.755-12.61,10.333
							c-4.933,0.576-18.1,6.314-20.288,5.167c-2.19-1.148-0.548,9.188,3.837,9.188s24.121-2.299,26.317-3.445
							c2.195-1.144,17-9.761,18.643-6.892c1.646,2.871-2.745,21.821-1.1,26.993c1.647,5.168-2.744,35.604-4.935,38.475
							c-2.191,2.87-15.35,2.05-13.707,8.365c1.65,6.313,23.733,44.517,26.076,54.088
							C434.477,690.339,441.615,653.249,441.615,653.249"/>
					</defs>
					<clipPath id="DSFB_SVGID_64_">
						<use xlink:href="#DSFB_SVGID_63_"  overflow="visible"/>
					</clipPath>
					
						<radialGradient id="DSFB_SVGID_65_" cx="0.4204" cy="792.5479" r="0.7915" gradientTransform="matrix(294.7418 0 0 -308.7131 303.543 245097.4844)" gradientUnits="userSpaceOnUse">
						<stop  offset="0" style="stop-color:#FFFFFF"/>
						<stop  offset="1" style="stop-color:#877F76"/>
					</radialGradient>
					<rect x="370.905" y="226.089" clip-path="url(#DSFB_SVGID_64_)" fill="url(#DSFB_SVGID_65_)" width="72.186" height="464.25"/>
				</g>
			</g>
		</g>
		<g opacity="0.75" clip-path="url(#DSFB_SVGID_6_)">
			<g>
				<defs>
					<rect id="DSFB_SVGID_66_" x="182.445" y="648.86" width="256.616" height="8.637"/>
				</defs>
				<clipPath id="DSFB_SVGID_67_">
					<use xlink:href="#DSFB_SVGID_66_"  overflow="visible"/>
				</clipPath>
				
					<path clip-path="url(#DSFB_SVGID_67_)" fill="none" stroke="#7A726F" stroke-width="0.604" stroke-miterlimit="10" stroke-dasharray="1.208,1.208" d="
					M182.479,649.342c32.322,4.513,82.048,4.92,114.372,0.407"/>
				
					<path clip-path="url(#DSFB_SVGID_67_)" fill="none" stroke="#7A726F" stroke-width="0.604" stroke-miterlimit="10" stroke-dasharray="1.208,1.208" d="
					M182.859,653.683c32.322,4.513,80.816,4.883,113.139,0.37"/>
				
					<path clip-path="url(#DSFB_SVGID_67_)" fill="none" stroke="#7A726F" stroke-width="0.589" stroke-miterlimit="10" stroke-dasharray="1.177,1.177" d="
					M326.301,649.152c32.001,4.513,80.728,4.451,112.729-0.061"/>
				
					<path clip-path="url(#DSFB_SVGID_67_)" fill="none" stroke="#7A726F" stroke-width="0.589" stroke-miterlimit="10" stroke-dasharray="1.177,1.177" d="
					M327.188,653.681c32,4.513,79.103,4.307,111.104-0.206"/>
			</g>
		</g>
	</g>
	<g clip-path="url(#DSFB_SVGID_2_)">
		<defs>
			<rect id="DSFB_SVGID_68_" x="70.75" y="77.677" width="484.75" height="627.323"/>
		</defs>
		<clipPath id="DSFB_SVGID_69_">
			<use xlink:href="#DSFB_SVGID_68_"  overflow="visible"/>
		</clipPath>
		<path clip-path="url(#DSFB_SVGID_69_)" fill="#BF2A43" d="M236.534,104.355c0,0-6.48-2.677-5.301,5.875
			c0.707,5.123,18.721,24.274,10.684,76.315c-5.362,34.72-47.773,53.101-47.773,53.101s-3.904,1.743-3.304,4.883
			c0.797,4.175,3.304,3.797,3.304,3.797s50.434-16.159,56.548-67.398C256.054,135.996,236.534,104.355,236.534,104.355"/>
		
			<path clip-path="url(#DSFB_SVGID_69_)" fill="none" stroke="#877F76" stroke-width="0.547" stroke-miterlimit="10" stroke-dasharray="1.093,1.093" d="
			M236.534,104.355c0,0-6.48-2.677-5.301,5.875c0.707,5.123,18.721,24.274,10.684,76.315c-5.362,34.72-47.773,53.101-47.773,53.101
			s-3.904,1.743-3.304,4.883c0.797,4.175,3.304,3.797,3.304,3.797s50.434-16.159,56.548-67.398
			C256.054,135.996,236.534,104.355,236.534,104.355z"/>
		<path clip-path="url(#DSFB_SVGID_69_)" fill="#BF2A43" d="M389.803,100.431c2.77,1.309,3.603,3.968,1.926,6.962
			c-1.26,2.247-19.776,18.821-12.829,68.43c5.362,38.293,53.217,67.602,53.217,67.602s6.672,3.748,5.935,6.912
			c-1.238,5.316-3.772,3.546-3.772,3.546s-55.214-29.211-62.591-81.516C364.916,124.336,386.636,98.935,389.803,100.431"/>
		
			<path clip-path="url(#DSFB_SVGID_69_)" fill="none" stroke="#877F76" stroke-width="0.547" stroke-miterlimit="10" stroke-dasharray="1.093,1.093" d="
			M389.803,100.431c2.77,1.309,3.603,3.968,1.926,6.962c-1.26,2.247-19.776,18.821-12.829,68.43
			c5.362,38.293,53.217,67.602,53.217,67.602s6.672,3.748,5.935,6.912c-1.238,5.316-3.772,3.546-3.772,3.546
			s-55.214-29.211-62.591-81.516C364.916,124.336,386.636,98.935,389.803,100.431z"/>
		<path clip-path="url(#DSFB_SVGID_69_)" fill="#BF2A43" d="M247.279,93.618c0,0,28.507,42.766,66.785,42.378
			c43.448-0.439,64.835-43.91,64.835-43.91s-3.642-6.875-5.513-4.062c-1.871,2.814-22.8,38.927-58.835,39.292
			c-33.793,0.341-60.062-36.07-62.325-38.411C249.964,86.564,247.279,93.618,247.279,93.618"/>
		<path clip-path="url(#DSFB_SVGID_69_)" fill="none" stroke="#877F76" stroke-width="0.547" stroke-dasharray="1.093,1.093" d="
			M247.279,93.618c0,0,28.507,42.766,66.785,42.378c43.448-0.439,64.835-43.91,64.835-43.91s-3.642-6.875-5.513-4.062
			c-1.871,2.814-22.8,38.927-58.835,39.292c-33.793,0.341-60.062-36.07-62.325-38.411C249.964,86.564,247.279,93.618,247.279,93.618
			z"/>
	</g>
	<g id="CENTER_BODY">
    		<rect x="226.079" y="245.668" clip-path="url(#DSFB_SVGID_2_)" fill="none" stroke="#FFFFFF" stroke-miterlimit="10" stroke-dasharray="3,6" width="177.175" height="132.012"/>
  </g>
	<g id="BOX_VERTICAL">
    		<rect x="272.284" y="148.972" clip-path="url(#DSFB_SVGID_2_)" fill="none" stroke="#FFFFFF" stroke-miterlimit="10" stroke-dasharray="5.463,10.925" width="84.766" height="281.057"/>
  </g>
	<g id="BOTTOM_LEFT">
    		<rect x="195.917" y="561.191" clip-path="url(#DSFB_SVGID_2_)" fill="none" stroke="#FFFFFF" stroke-miterlimit="10" stroke-dasharray="3,6" width="84.767" height="84.767"/>
  </g>
	<g id="BOTTOM_RIGHT">
    		<rect x="341.708" y="560.509" clip-path="url(#DSFB_SVGID_2_)" fill="none" stroke="#FFFFFF" stroke-miterlimit="10" stroke-dasharray="3,6" width="84.768" height="84.767"/>
  </g>
</g>
  <g id="CUSTOM"></g>
</svg>
