<?xml version="1.0" encoding="utf-8"?>
<!-- Generator: Adobe Illustrator 19.1.0, SVG Export Plug-In . SVG Version: 6.00 Build 0)  -->
<!DOCTYPE svg PUBLIC "-//W3C//DTD SVG 1.1//EN" "http://www.w3.org/Graphics/SVG/1.1/DTD/svg11.dtd">
<svg version="1.1" xmlns="http://www.w3.org/2000/svg" xmlns:xlink="http://www.w3.org/1999/xlink" x="0px" y="0px"
	 viewBox="0 0 612 978" enable-background="new 0 0 612 978" xml:space="preserve">
<g id="BODY">
	<g>
		<path fill="#FFFFFF" stroke="#ADB0AD" stroke-width="0.25" d="M586,583.1c1.4-3,2.6-4.7,2.1-6.2c-0.5-1.4-9.7-12.9-14.2-15.6
			c-4.5-2.7-7.7-6.3-8.3-7.7c-0.7-1.4-2.7-5.6-3.6-10.9c-0.8-5.3-3.4-18.7-5.7-26.1c-2.3-7.5-5.3-18.1-5.9-19.9
			c-0.5-1.9-4.2-17.9-5.1-27.3c-0.8-9.3-6.4-34.6-14.5-51.1c-5.2-10.7-11-19.4-15.8-25.4c0-0.1,0-0.1,0-0.1s-0.5-0.5-1.3-1.4
			c-2.1-2.5-3.9-4.5-5.3-5.9c-0.2-0.1-0.3-0.3-0.4-0.4c-1.7-1.9-3.4-3.7-4.6-5c-3-3.2-4-5.1-4.5-6l-0.2-0.7l-0.8-0.7
			c-1-1.1-2.2-2.1-3.2-3c0,0-0.1-0.1-0.2-0.1l-6.4-6c-1.9-1.8-3.6-3.5-4.5-4.2l-1.2-1.2c0,0-2.8-2.3-5.2-5c-0.9-1.2-1.9-2.6-2.8-3.9
			c-2.7-4.6-10.3-17-13.4-18.6c-3.3-1.7-7.5-5-12-6.7c-4.5-1.7-7-4.6-7.5-4.9c-0.5-0.3-10-8.3-14.1-10.2s-22-11-24.1-12.5
			c-2.1-1.4-12.3-7.5-16.5-11.2c-4.2-3.7-4.4-5.6-6.8-6.3c-2.5-0.7-8.3-1.1-9.3-1.1c-1,0-4.8,0-4.8,0s-5.2-13.6-5.7-17.2
			c-0.5-3.6-2.3-10.3-2.5-12.1c-0.1-1.7-7.2-16.9-12.4-20.8c-5.2-3.9-10.8-8.9-17.6-9.9c-6.8-1-13.5-1.7-19.4-2
			c-5.9-0.3-12.9-1.6-15-1.6c-2.2,0-10.1,1.4-13.3,2.2c-3.1,0.7-12.7,1.9-18.2,3.7c-5.5,1.9-16,4.6-17.9,5.7
			c-1.9,1.1-5.7,2.9-5.7,2.9s-13,22.2-17,33c-4,10.8-4.8,22.5-4.8,22.5s-4.5,3.3-6.7,3.2c-2.2-0.1-15.9,1.9-19.8,4.3
			c-4,2.4-9.4,6.9-11.1,9c-1.6,2.2-6.7,6.3-7.8,7.7c-1.1,1.4-8.3,8.3-15.6,13.1c-7.2,4.7-24.5,16.5-26.3,17.5
			c-1.8,1-5.7,2.7-6.8,3.9c-1.1,1.1-4,7-4,7l-1.6,5.9l-0.3,2.6l-0.1,0.5l-8.2,8.4c-0.1,0.1-0.2,0.2-0.2,0.2c-1.2,1-7.9,9.3-8.6,10.5
			c-0.1,0.1-0.2,0.4-0.4,0.7c-0.3,0.5-0.6,0.9-0.7,1.2c0,0.1-0.1,0.1-0.1,0.2c-0.7,1.3-1.6,2.9-2.6,4.6c-1.6,2.6-3.4,5.6-4.7,7.3
			c-0.2,0.2-0.3,0.4-0.5,0.6c-1.9,1.9-7.6,8.2-10.3,11.3c-2,2.3-3.7,4.2-4.4,5.1c-0.1,0.1-0.2,0.2-0.2,0.2s-2.6,1.9-3.6,3.6
			c-1,1.7-12,35.9-14.2,43.8c-2.2,7.9-12.4,48.2-16.3,57c-3.8,8.8-6.3,18.8-6.7,21.2c-0.4,2.4-1.8,23.1-1.4,27.4
			c0.4,4.3,1.6,19.7,0.8,25.5c-0.8,5.9-0.1,11.3,1.1,14.6c1.2,3.3,7.4,21.4,7.4,21.4S41,625,41,627.1c0,2.2-1.4,8.9-1.4,8.9
			s-9.6,1.4-12,4c-2.5,2.6-6.2,6.9-5.7,8.6c0.4,1.7,5.7,9.8,5.6,14.3c-0.1,4.6-0.3,10.9-0.8,11c-0.5,0.1-1.5,1.1-1.5,1.1
			s3.3,6,5.5,7c2.2,1,6.8,3.3,8.1,4.5c1.1,1,3.6,2.5,4.1,2.8c0.1,0,0.1,0.1,0.1,0.1l-0.2,0.7c3.5,2,10.6,4.3,22.6,1.6
			c13.3-3,22.2-6.1,27.1-8c0.1-0.1,0.1-0.2,0.1-0.3c0.1-0.2,0.2-0.3,0.2-0.3s17-7.2,18.2-11.2c1.2-4-6.4-11.6-6.4-11.6
			s1.9-3.9,1.8-5c-0.1-1.1-1.1-0.6-1.4-2.7c-0.3-2.2,2.7-7.3,2.7-9.3c0-2-1.9-3.6-1.6-5.2s1.8-11.3,1.6-15.1
			c-0.1-3.7-0.3-7.9-0.3-7.9s10.5-15.2,11.3-17.9c0.8-2.7,1.5-7.6,1.5-7.6s3.7-8.9,6.8-20.9c3.1-12.1,5.5-29,5.5-29s3.3-2.6,4-4.9
			c0.7-2.3,1.8-2.9,1.5-4.6c-0.3-1.7-0.5-3.9-0.5-3.9s3.8-0.5,5.8-1.5l0.1,0l0.1-0.1c0.3-0.2,0.5-0.3,0.7-0.5
			c0.1-0.1,0.2-0.2,0.3-0.3l0.9-0.7c0,0,0.1-0.1,0.1-0.1l2.7-1.5c0.1-0.1,0.2-0.1,0.2-0.1l1.6-1.4c0,0-3.8,27.8-5.5,37.2
			s-6.2,16.2-6.6,30.1c-0.4,13.9-1,32.3-0.3,38c0.7,5.7,1.5,15.2,1.5,15.2s-3.1,3.3-3.7,4.6c-0.5,1.3-1.9,7.9-1.8,9.9
			c0.1,2-0.4,7.5-0.4,9c0,1.6,2.3,14.6,4,18.4c1.6,3.7,6,15.1,12.2,15.6c6.2,0.6,11.1,0.9,12.2,0.3c1.1-0.6,4.2-1.3,4.2-1.3h2.3
			c0,0,0,0,0,0c0,0,0,0.1-0.1,0.3c7.9-1.7,17.9-3.2,29.6-3.7c30.2-1.3,215.4-5.8,232.8-3.9c0.4-0.2,0.8-0.2,1.2,0.3
			c0.1,0,0.1,0.1,0.2,0.2c1.5,1,7.7,1.9,10.7,1.1c3.1-0.9,5.1-3.9,4.7-5.6c-0.4-1.7-7.1-7.5-7.1-7.5l-1-1.3c0,0,2.1-10,3-12.3
			c1-2.3,0.1-6,1.4-8.5c1.2-2.4,2.6-4.3,2.6-5.3c0-1,1.2-13.8,3.4-19.7c2.2-5.9,5.3-12.5,7.1-16.9c1.8-4.4,4-11.6,3.8-18.5
			c-0.1-6.9-6.4-22.2-6.4-22.2s2.7-10.5,3.1-12.5c0.4-2,1.6-4,2.3-6.5c0.7-2.4,1.8-4.2,1.8-4.2s6.7,11.3,7.5,12.6
			c0.8,1.3,9.7,16.8,10.1,17.8c0.4,1,0.5,6.3,0.5,7.6c0,1.3-0.1,4.4-0.1,4.4s-4.4,3.4-4.8,4.4c-0.4,1,3.4,11.2,4.4,14.8
			c1,3.6,3.8,13.1,3.8,13.9c0,0.9,3.3,3.6,4.1,4.4c0.8,0.9,4.1,3,3.8,3.9c-0.3,0.9-5.6,5-5.7,7.7c-0.1,2.7,2.2,9.5,2.7,11.9
			c4.4,20.9,14.1,27.8,17.6,29.7c6.1,0.6,15.2,0.9,24.6-1c10.2-2.1,22.7-4.8,30.7-6.6c-0.1-0.4-0.1-0.7-0.1-0.7s0.1-0.2,0.3-0.6
			c1.7-4.1,11.5-27.8,10.4-28.9c-1.2-1.3-2.3-3-2.3-3s2.7-7,1.1-9.9c-1.6-2.9-6.2-9.3-6.2-9.3l13.5-22.2
			C577.4,601.7,584.6,586.1,586,583.1z"/>
		<path fill="#FFFFFF" stroke="#ADB0AD" stroke-width="0.25" d="M432,690.6c-0.1-0.1-0.2-0.1-0.2-0.2
			C431.8,690.5,431.9,690.5,432,690.6z"/>
		<g opacity="0.2">
			<path fill="#FFFFFF" d="M248.9,692c-17.2-0.3-34.8,0.7-48.9,1.9c10.5-0.4,32.9-1.1,59.7-1.7C256.4,692.1,252.8,692.1,248.9,692z"
				/>
			<path fill="#FFFFFF" d="M175.3,696.2c-3.3,0.3-5.6,0.8-7.2,1.2c0,0,0,0.1-0.1,0.3c2.7-0.6,5.6-1.1,8.7-1.6
				C176.2,696.2,175.7,696.2,175.3,696.2z"/>
			<path fill="#FFFFFF" d="M304.6,689.9c0,0-9.5,0.9-12.6,1.5c6.6-0.1,13.3-0.3,20.1-0.4C307.9,690.5,304.6,689.9,304.6,689.9z"/>
		</g>
	</g>
</g>
<g id="SLEEVES">
	<g>
		<g>
			<path fill="#00502E" d="M585.8,582.8c1.4-3,2.6-4.7,2.1-6.2c-0.5-1.4-9.7-12.9-14.2-15.6c-4.5-2.7-7.7-6.3-8.4-7.7
				c-0.7-1.4-2.7-5.6-3.6-10.9c-0.8-5.3-3.4-18.7-5.8-26.1c-2.3-7.5-5.3-18.1-5.9-19.9c-0.5-1.9-4.2-17.9-5.1-27.3
				c-0.8-9.3-6.4-34.6-14.5-51.1c-5.2-10.7-11-19.4-15.8-25.4c0-0.1,0-0.1,0-0.1s-0.5-0.5-1.3-1.4c-2.1-2.5-3.9-4.5-5.3-5.9
				c-0.2-0.1-0.3-0.3-0.4-0.4c-1.7-1.9-3.4-3.7-4.6-5c-3-3.2-4-5.1-4.5-6l-0.2-0.7l-0.8-0.7c-1-1.1-2.2-2.1-3.3-3
				c0,0-0.1-0.1-0.2-0.1l-6.4-6c-1.9-1.8-3.6-3.5-4.5-4.2l-1.2-1.2c0,0-2.8-2.3-5.2-5c-0.9-1.2-1.9-2.6-2.8-3.9
				c-2.7-4.6-10.3-17-13.4-18.6c-3.3-1.7-7.5-5-12.1-6.7c-4.5-1.7-7-4.6-7.5-4.9c-0.5-0.3-10-8.3-14.1-10.2
				c-4.1-1.9-22.1-11-24.1-12.5c-2.1-1.4-12.3-7.5-16.6-11.2c-4.2-3.7-4.4-5.6-6.9-6.3c-1.3-0.4-3.7-0.7-5.7-0.9
				c-2.5-1-4.5-2-5.4-2.8c-0.2-0.2-0.3-0.3-0.5-0.6l-23.7,2.2c0,0,68.9,68.8,85.6,116.7c3.8,11-5.6,9.7,10.4,79.9
				c5.2,22.7,14.9,57.8,20.6,78c0.2-0.3,0.3-0.5,0.3-0.5s6.7,11.3,7.5,12.6c0.8,1.3,9.7,16.8,10.1,17.8c0.4,1,0.5,6.3,0.5,7.6
				c0,1.3-0.1,4.4-0.1,4.4s-4.4,3.4-4.8,4.4c-0.4,1,3.4,11.2,4.4,14.8c1,3.6,3.8,13.1,3.8,13.9c0,0.9,3.3,3.6,4.1,4.4
				c0.8,0.9,4.1,3,3.8,3.9c-0.3,0.9-5.6,5-5.8,7.7c-0.1,2.7,2.2,9.5,2.7,11.9c4.7,22.4,15.5,28.7,18.3,30c6.1,0.6,15.1,0.8,24.3-1.1
				c10.1-2.1,22.5-4.8,30.5-6.5c-0.1-0.6-0.2-1-0.2-1s0.1-0.2,0.3-0.6c1.7-4.1,11.6-27.8,10.4-28.9c-1.2-1.3-2.3-3-2.3-3
				s2.7-7,1.1-9.9c-1.6-2.9-6.2-9.3-6.2-9.3l13.6-22.2C577.2,601.4,584.4,585.8,585.8,582.8z"/>
		</g>
		<g>
			<path fill="#00502E" d="M163.5,379.2c7.7-43.8,62.6-92.4,62.6-92.4l-14.6-0.2c-0.7,0.2-1.3,0.3-1.7,0.3
				c-2.2-0.1-15.9,1.9-19.9,4.3c-4,2.4-9.5,6.9-11.1,9c-1.6,2.2-6.7,6.3-7.8,7.7c-1.1,1.4-8.4,8.3-15.6,13.1
				c-7.3,4.7-24.5,16.5-26.3,17.5c-1.8,1-5.8,2.7-6.9,3.9c-1.1,1.1-4,7-4,7l-1.6,5.9l-0.3,2.6l-0.1,0.5l-8.2,8.4
				c-0.1,0.1-0.2,0.2-0.2,0.2c-1.2,1-7.9,9.3-8.6,10.5c-0.1,0.1-0.2,0.4-0.4,0.7c-0.3,0.5-0.6,0.9-0.7,1.2c0,0.1-0.1,0.1-0.1,0.2
				c-0.7,1.3-1.6,2.9-2.6,4.6c-1.6,2.6-3.5,5.6-4.7,7.3c-0.2,0.2-0.3,0.4-0.5,0.6c-1.9,1.9-7.6,8.2-10.3,11.3
				c-2,2.3-3.7,4.2-4.4,5.1c-0.1,0.1-0.2,0.2-0.2,0.2s-2.6,1.9-3.6,3.6c-1,1.7-12.1,35.9-14.2,43.8c-2.2,7.9-12.5,48.2-16.3,57
				c-3.8,8.8-6.3,18.8-6.7,21.2c-0.4,2.4-1.8,23.1-1.4,27.4c0.4,4.3,1.6,19.7,0.8,25.5c-0.8,5.9-0.1,11.3,1.1,14.6
				c1.2,3.3,7.4,21.4,7.4,21.4s-1.5,1.4-1.5,3.6c0,2.2-1.4,8.9-1.4,8.9s-9.6,1.4-12.1,4c-2.5,2.6-6.2,6.9-5.8,8.6
				c0.4,1.7,5.8,9.8,5.6,14.3c-0.1,4.6-0.3,10.9-0.8,11c-0.5,0.1-1.5,1.1-1.5,1.1s3.3,6,5.5,7c2.2,1,6.9,3.3,8.1,4.5
				c1.1,1,3.6,2.5,4.1,2.8c0.1,0,0.1,0.1,0.1,0.1l-0.2,0.8c3.4,2,10.5,4.6,23,1.8C78.3,689,87,686,92,684.1c0.1-0.3,0.3-0.5,0.4-0.7
				c0.1-0.2,0.2-0.3,0.2-0.3s17-7.2,18.2-11.2c1.2-4-6.4-11.6-6.4-11.6s1.9-3.9,1.8-5c-0.1-1.1-1.1-0.6-1.4-2.7
				c-0.3-2.2,2.7-7.3,2.7-9.3c0-2-1.9-3.6-1.6-5.2c0.3-1.6,1.8-11.3,1.6-15.1c-0.1-3.7-0.3-7.9-0.3-7.9s10.6-15.2,11.4-17.9
				c0.8-2.7,1.5-7.6,1.5-7.6s3.7-8.9,6.9-20.9c3.2-12.1,5.5-29,5.5-29s3.3-2.6,4-4.9c0.7-2.3,1.8-2.9,1.5-4.6
				c-0.3-1.7-0.5-3.9-0.5-3.9s3.8-0.5,5.8-1.5l0.1,0l0.1-0.1c0.3-0.2,0.5-0.3,0.7-0.5c0.1-0.1,0.2-0.2,0.3-0.3l0.9-0.7
				c0,0,0.1-0.1,0.1-0.1l1.4-0.8c4.6-11.2,11.6-30,13.9-45.8C164.2,452.1,156.7,417.6,163.5,379.2z"/>
		</g>
	</g>
</g>
<g id="STRIPE_OUTLINE">
	<g>
		<path fill="#FCBA33" d="M367.8,274.3l-13.1,1.2c0.4,0.6,3.8,4.3,3.9,4.4c1.2,1,3.2,2.1,6.3,3.3l0.4,0.2l0.4,0
			c2.4,0.2,4.3,0.5,5.2,0.8c0.5,0.1,0.6,0.3,1.6,1.5c0.9,1,2,2.4,4.1,4.2c3.8,3.3,8.8,6.8,11.5,8.7c0.4,0.3,0.8,0.6,1.1,0.8
			c2.4,1.7,20.8,11.1,24.6,12.9c2.8,1.3,9,6.3,11.7,8.5c1.3,1.1,1.7,1.4,2.1,1.6c0.1,0.1,0.2,0.2,0.3,0.3c1.2,1.1,3.8,3.4,7.8,4.9
			c2.6,1,5.3,2.7,7.7,4.2c1.4,0.9,2.8,1.8,4.1,2.4c1.4,0.8,6.1,7.2,12.2,17.6l0.1,0.1c1.1,1.7,2.1,3.1,3,4.2l0.1,0.1
			c2.3,2.7,5,4.9,5.4,5.3l1.2,1.1l0.1,0.1c0.8,0.7,2.5,2.3,4.3,4l6.5,6.1l0.3,0.3c1,0.9,2.1,1.8,2.9,2.7l0.4,0.4l0.1,0.3
			c0.7,1.4,1.9,3.5,5,6.7c1.1,1.2,2.8,3.1,4.5,5l0.6,0.6c1,1,2.7,2.7,5.1,5.7l0.3,0.4l0,0l0.9,1.1c4,5.1,9.9,13.6,15.5,25.1
			c7.9,16.2,13.4,41.4,14.2,50.4c0.8,9.6,4.5,25.9,5.2,28.1c0.1,0.4,0.3,1,0.6,2c1.1,3.9,3.5,12.1,5.3,18.2
			c2.2,7.1,4.8,20.5,5.7,25.9c0.9,5.6,3,10,3.7,11.7l0.1,0.2c1.1,2.3,4.8,6.2,9.5,9.1c3.6,2.2,11.4,11.8,12.9,14.1
			c-0.1,0.5-0.6,1.3-0.9,2c-0.3,0.6-0.6,1.3-1,2c-1.3,2.8-7.8,17-8.5,18.6l-14.5,23.9l1.1,1.6c0,0.1,4.5,6.4,6,9.2
			c0.5,0.9-0.2,4.5-1.3,7.4l-0.5,1.4l0.8,1.3c0.1,0.2,0.8,1.3,1.8,2.5c-0.8,3.3-4.8,14.1-10.2,27l-0.6,1.4l0.1,0.6
			c4.6-1,9-1.9,12.7-2.8c-0.1-0.5-0.2-0.9-0.3-1.2c12.5-29.4,11.5-30.4,9.9-32.1c-0.4-0.4-0.8-0.9-1.2-1.4c0.9-2.8,2.2-7.9,0.4-11
			c-1.2-2.1-3.8-5.8-5.3-8l12.8-20.7l0.2-0.3c0.3-0.6,7.4-15.8,8.8-18.8c0.3-0.7,0.6-1.3,0.9-1.8c1.1-2.2,2.2-4.4,1.3-6.7
			c-0.8-2.1-10.7-14.2-15.8-17.2c-4.1-2.5-6.9-5.7-7.3-6.5l-0.1-0.2c-0.7-1.4-2.5-5.2-3.3-9.9c-0.8-5.3-3.5-18.9-6-26.7
			c-1.9-6.1-4.3-14.2-5.4-18.1l-0.6-1.9c-0.6-2-4.2-17.8-5.1-26.8c-0.9-9.6-6.6-35.4-15.1-52.4c-5.5-11.1-11.3-19.5-15.5-24.9
			l0.1-0.3l-2.3-2.5c-2-2.5-4-4.6-5.6-6.1l-0.4-0.4c-1.8-1.9-3.5-3.7-4.6-4.9c-2.7-2.8-3.6-4.5-4-5.2l-0.4-1.2l-1.2-1.1
			c-1.1-1.1-2.3-2.2-3.4-3.1l-6.7-6.2l-0.2-0.1c-1.9-1.8-3.6-3.3-4.5-4.1l-1.2-1.1L477,354c0,0-2.7-2.2-4.9-4.7
			c-0.8-0.9-1.6-2.1-2.6-3.6c-7-11.7-12-18.3-14.8-19.8c-1.1-0.6-2.4-1.4-3.7-2.2c-2.6-1.6-5.6-3.5-8.9-4.7c-3-1.1-5-2.9-6.1-3.8
			c-0.4-0.4-0.7-0.6-1.1-0.9c-0.3-0.2-0.8-0.6-1.6-1.2c-5-4-10.1-7.8-13.2-9.2c-4.4-2-22.3-11-24.1-12.3c-0.4-0.2-0.8-0.6-1.4-0.9
			c-2.6-1.8-4.7-2.8-8.2-5.8c-1.7-1.5-2.7-2.6-3.5-3.6c-1.2-1.4-1.9-2.3-4.2-3c-1.6-0.4-3.2-0.6-5.1-0.8
			C369,276,368.1,274.5,367.8,274.3"/>
		<path fill="#FCBA33" d="M224,286.6c-3.1,0-14.8,0.1-25.7,1.9c-6.4,1-15.6,7.6-17.2,9.2c-0.9,0.8-2.7,3.4-4.2,4.8
			c-1.8,1.7-3,2.6-3.7,3.5c-0.8,1-6.8,7.7-13.9,12.4c-3.4,2.2-9.5,6.4-14.7,10c-5.3,3.6-13,8.8-13.9,9.3c-0.5,0.3-1.2,0.6-1.9,1
			c-2.7,1.4-4.6,2.4-5.7,3.5c-1.3,1.3-2.1,2.9-3.2,5.3l-0.1,0.3l-1.7,6.2l-0.3,2.3l-7.4,7.6l0,0c-1.7,1.4-8.6,10.1-9.4,11.5
			c-0.1,0.1-0.2,0.4-0.4,0.7c-0.4,0.7-0.7,1.2-0.9,1.7c-0.7,1.2-1.6,2.8-2.5,4.4c-1.8,3-3.4,5.6-4.5,7l-0.2,0.2
			c-2.1,2.1-7.9,8.6-10.4,11.6c-1.9,2.2-3.5,4-4.3,5c-0.9,0.7-3.2,2.5-4.3,4.6c-1.4,2.5-12.9,38.9-14.6,44.8
			c-0.5,1.7-1.3,4.7-2.3,8.6c-3.8,14.5-10.9,41.5-13.9,48.3c-4,9.1-6.5,19.6-7,22.2c-0.5,2.7-1.9,23.7-1.4,28.5
			c0.7,7.1,1.5,20.1,0.8,24.9c-0.8,5.9-0.3,12,1.3,16.4c1,2.6,5.2,15.2,6.8,19.7c-0.6,1-1.1,2.5-1.1,4.2c0,0.9-0.4,3.5-0.9,5.9
			c-3.6,0.7-9.2,2.2-11.6,4.7c-6.6,7-7.1,9.8-6.6,11.9c0.2,0.9,0.7,1.9,1.8,3.9c1.3,2.6,3.8,7.3,3.8,9.6c-0.1,3.7-0.3,5.6-0.4,6.5
			c-0.4,0.3-0.7,0.6-1.1,1l-1.8,1.8l1.2,2.2c1.4,2.6,4.3,7.3,7.1,8.6c3.1,1.4,6.5,3.3,7.2,3.9c0.7,0.7,1.7,1.4,2.7,2l-0.1,0.3
			c2.4,1.3,6.3,2.6,12,2.6c1.8,0,3.7-0.1,5.8-0.4l1.2-6l-2.3-1.3c-1.6-0.9-3-1.9-3.5-2.4c-1.8-1.7-7.2-4.3-8.9-5.1
			c-0.5-0.4-1.5-1.6-2.5-3.2c1.1-1.7,1.3-4.8,1.5-10.5c0.1-3.8-2.1-8.4-4.6-13.1c-0.3-0.6-0.7-1.3-0.9-1.9c0.5-1,2-3,4.7-5.9
			c0.9-0.9,5.7-2.3,10-3l2.4-0.4l0.5-2.4c0.2-1.2,1.4-7.3,1.4-9.6c0-0.6,0.4-1.1,0.4-1.1l1.6-1.4l-0.8-2.2
			c-0.3-0.7-6.2-18.3-7.4-21.6c-0.9-2.5-1.7-7.3-0.9-13c1-7.2-0.8-26.3-0.8-26.5c-0.4-3.9,0.9-24.2,1.3-26.7c0.3-2,2.7-12,6.5-20.6
			c2.9-6.7,8.9-28.9,14.2-49.3c1-3.9,1.8-6.9,2.3-8.5c2.3-8.2,12.8-40.6,14-43.3c0.4-0.6,1.6-1.7,2.5-2.4l0.2-0.1l0.6-0.6
			c0.7-0.9,2.4-2.8,4.5-5.2c2.7-3.2,8.2-9.4,10.1-11.2c0.2-0.2,0.5-0.5,0.7-0.8l0.1-0.1c1.7-2.3,4-6.1,5-7.7c1-1.7,1.9-3.4,2.6-4.7
			l0.1-0.2c0.1-0.2,0.1-0.3,0.2-0.4c0,0,0.1-0.2,0.4-0.6l0.1-0.2c0.2-0.3,0.3-0.5,0.3-0.6c0.8-1.2,6.8-8.7,7.9-9.6
			c0.1-0.1,0.2-0.2,0.4-0.3l9.2-9.4l0.6-4l1.5-5.4c1.2-2.4,2.7-5.2,3.2-5.9c0.6-0.5,2.7-1.5,3.8-2.1c0.9-0.4,1.7-0.8,2.2-1.2
			c1-0.6,5.2-3.4,12.5-8.3c5.2-3.5,10.6-7.2,14-9.4c7.6-5,15.1-12.1,16.5-14c0.3-0.4,1.8-1.8,2.8-2.7c1.9-1.8,3.9-3.6,5-5.1
			c1.2-1.6,6.3-5.8,10.1-8.2c2.3-1.4,13.6-6.2,18.6-6.4l-1.3-0.2C224.8,286.6,224.5,286.6,224,286.6"/>
	</g>
</g>
<g id="SLEEVE_STRIPES-WHITE_ONLY">
	<g>
		<path fill="#FFFFFF" d="M580.8,583.3c1.4-3,2.6-4.8,2.1-6.2c-0.6-1.4-9.9-13-14.5-15.7c-4.6-2.7-7.8-6.3-8.5-7.8
			c-0.7-1.4-2.8-5.6-3.6-11c-0.8-5.3-3.5-18.7-5.9-26.2c-2.4-7.5-5.4-18.2-6-20c-0.6-1.9-4.3-18-5.2-27.4
			c-0.8-9.4-6.5-34.7-14.8-51.3c-5.3-10.7-11.2-19.5-16.1-25.5c0-0.1,0-0.1,0-0.1s-0.5-0.5-1.3-1.4c-2.1-2.6-4-4.6-5.4-5.9
			c-0.2-0.1-0.3-0.3-0.5-0.4c-1.8-1.9-3.5-3.8-4.6-5c-3.1-3.2-4.1-5.1-4.5-6l-0.3-0.7l-0.8-0.7c-1-1.1-2.2-2.1-3.3-3.1
			c0,0-0.1-0.1-0.2-0.1l-6.5-6c-1.9-1.8-3.7-3.5-4.6-4.2l-1.3-1.2c0,0-2.8-2.3-5.3-5.1c-1-1.2-2-2.6-2.9-3.9
			c-2.7-4.6-10.5-17.1-13.6-18.7c-3.3-1.7-7.7-5-12.3-6.8c-4.6-1.7-7.1-4.6-7.7-4.9c-0.6-0.3-10.2-8.4-14.3-10.2
			c-4.2-1.9-22.4-11.1-24.5-12.5c-2.1-1.4-8.4-5.5-12.7-9.2c-4.3-3.7-4.5-5.6-7-6.3c-1.4-0.4-3.8-0.7-5.8-0.9c-2.5-1-4.5-2-5.5-2.8
			c-0.2-0.2-0.4-0.4-0.5-0.6l-4.8,0.6c0.1,0.2,2.4,2.5,2.6,2.7c1,0.8,3,1.8,5.4,2.8c2,0.2,4.4,0.5,5.7,0.9c2.5,0.7,2.6,2.6,6.8,6.4
			c4.2,3.8,10.3,7.8,12.4,9.3c2.1,1.4,20,10.7,24.1,12.6c4.1,1.9,13.5,10,14.1,10.3c0.5,0.3,3,3.2,7.5,4.9c4.5,1.7,8.8,5.1,12,6.8
			c3.1,1.6,10.7,14.2,13.4,18.8c0.9,1.3,1.9,2.8,2.8,3.9c2.4,2.7,5.2,5.1,5.2,5.1l1.2,1.2c0.8,0.7,2.6,2.4,4.5,4.2l6.4,6
			c0,0,0.1,0.1,0.2,0.1c1.1,1,2.3,2,3.2,3.1l0.8,0.7l0.2,0.7c0.5,0.9,1.4,2.8,4.5,6c1.1,1.2,2.8,3.1,4.6,5c0.1,0.1,0.3,0.3,0.4,0.4
			c1.4,1.4,3.2,3.4,5.3,5.9c0.8,0.9,1.3,1.4,1.3,1.4s0,0.1,0,0.1c4.7,6.1,10.5,14.9,15.8,25.6c8.1,16.6,13.7,42.1,14.5,51.5
			c0.8,9.4,4.5,25.6,5.1,27.5c0.5,1.9,3.6,12.6,5.9,20.1c2.3,7.5,4.9,21,5.7,26.3c0.8,5.4,2.9,9.5,3.6,11c0.7,1.4,3.8,5.1,8.3,7.8
			c4.5,2.7,13.7,14.3,14.2,15.8c0.5,1.4-0.7,3.2-2.1,6.2c-1.4,3-8.6,18.8-8.6,18.8l-13.5,22.4c0,0,4.5,6.5,6.2,9.4
			c1.6,2.9-1.1,10-1.1,10s1.1,1.7,2.3,3c1.1,1.1-7.7,22.5-10.1,28.3c2.1-0.4,4.1-0.9,6-1.3c-0.2-0.8-0.2-1.2-0.2-1.2
			s0.1-0.2,0.3-0.6c1.7-4.1,11.8-27.9,10.6-29.1c-1.3-1.3-2.4-3-2.4-3s2.8-7.1,1.1-9.9c-1.7-2.9-6.3-9.4-6.3-9.4l13.8-22.3
			C572,602.1,579.4,586.4,580.8,583.3z"/>
		<path fill="#FFFFFF" d="M186.6,308.2c1.1-1.4,6.2-5.6,7.8-7.8c1.6-2.2,7.1-6.6,11.1-9.1c3.5-2.2,14.6-3.4,18.6-3.6l-12.9,0.1
			c-2.2-0.1-12.7,1-16.7,3.5c-4,2.5-9.4,6.9-11.1,9.1c-1.6,2.2-6.7,6.4-7.8,7.8c-1.1,1.4-8.3,8.4-15.6,13.1
			c-7.2,4.8-24.5,16.6-26.3,17.6c-1.8,1-5.7,2.7-6.8,3.9c-1.1,1.2-4,7.1-4,7.1l-1.6,5.9l-0.3,2.6l-0.1,0.5l-8.2,8.5
			c-0.1,0.1-0.2,0.2-0.2,0.2c-1.2,1-7.9,9.4-8.6,10.5c-0.1,0.1-0.2,0.4-0.4,0.7c-0.3,0.5-0.6,0.9-0.7,1.2c0,0.1-0.1,0.1-0.1,0.2
			c-0.7,1.3-1.6,2.9-2.6,4.6c-1.6,2.6-3.4,5.6-4.7,7.4c-0.2,0.2-0.3,0.4-0.5,0.6c-1.9,1.9-7.6,8.3-10.3,11.4c-2,2.3-3.7,4.3-4.4,5.1
			c-0.1,0.1-0.2,0.2-0.2,0.2s-2.6,1.9-3.6,3.6c-1,1.7-12,36.1-14.2,44c-2.2,7.9-12.4,48.5-16.3,57.3c-3.8,8.8-6.3,18.9-6.7,21.4
			c-0.4,2.5-1.8,23.2-1.4,27.6c0.4,4.3,1.6,19.8,0.8,25.7c-0.8,5.9-0.1,11.4,1.1,14.7c1.2,3.3,7.4,21.5,7.4,21.5s-1.5,1.4-1.5,3.6
			c0,2.2-1.4,9-1.4,9s-9.6,1.4-12,4c-2.5,2.6-6.2,6.9-5.7,8.7c0.4,1.7,5.7,9.8,5.6,14.4c-0.1,4.6-0.4,8.6-1,8.7
			c-0.5,0.1-1.5,1.2-1.5,1.2s3.3,6.1,5.5,7.1c2.2,1,6.8,3.3,8.1,4.5c1.1,1,3.6,2.5,4.1,2.8c0.1,0,0.1,0.1,0.1,0.1l-0.5,2.5
			c2.7,0.8,6.2,1.3,10.8,1.1l0.7-3.5c0,0,0,0-0.1-0.1c-0.5-0.3-3-1.8-4.1-2.8c-1.2-1.2-5.9-3.5-8.1-4.5c-2.2-1-5.5-7.1-5.5-7.1
			s1-1,1.5-1.2c0.5-0.1,0.9-4.1,1-8.7c0.1-4.6-5.2-12.7-5.6-14.4c-0.4-1.7,3.3-6.1,5.7-8.7c2.5-2.6,12-4,12-4s1.4-6.8,1.4-9
			c0-2.2,1.5-3.6,1.5-3.6s-6.2-18.2-7.4-21.5c-1.2-3.3-1.9-8.8-1.1-14.7c0.8-5.9-0.4-21.4-0.8-25.7c-0.4-4.3,1-25.1,1.4-27.6
			c0.4-2.5,2.9-12.6,6.7-21.4c3.8-8.8,14.1-49.4,16.3-57.3c2.2-7.9,13.3-42.3,14.2-44c1-1.7,3.6-3.6,3.6-3.6s0.1-0.1,0.2-0.2
			c0.7-0.9,2.4-2.8,4.4-5.1c2.7-3.2,8.3-9.5,10.3-11.4c0.2-0.2,0.3-0.3,0.5-0.6c1.3-1.7,3.2-4.8,4.7-7.4c1-1.7,1.9-3.4,2.6-4.6
			c0-0.1,0.1-0.2,0.1-0.2c0.1-0.3,0.4-0.7,0.7-1.2c0.2-0.4,0.3-0.6,0.4-0.7c0.7-1.2,7.4-9.5,8.6-10.5c0.1-0.1,0.1-0.1,0.2-0.2
			l8.2-8.5l0.1-0.5l0.3-2.6l1.6-5.9c0,0,2.9-5.9,4-7.1c1.1-1.2,5.1-2.9,6.8-3.9c1.8-1,19-12.9,26.3-17.6
			C178.2,316.6,185.5,309.7,186.6,308.2z"/>
	</g>
</g>
<g id="SHADING">
	<linearGradient id="SVGBACKID_1_" gradientUnits="userSpaceOnUse" x1="173.0732" y1="276.4414" x2="335.457" y2="276.4414">
		<stop  offset="0" style="stop-color:#ADB0AD"/>
		<stop  offset="1" style="stop-color:#000000"/>
	</linearGradient>
	<path opacity="6.000000e-002" fill="url(#SVGBACKID_1_)" d="M173.1,308.3c0,0,23.5-11.8,30.4-13.5c6.9-1.7,29.4-10.1,33.7-11.2
		c4.3-1.1,21.9-5.9,26.4-5.9c4.5,0,12.6-0.3,16-0.3c3.5,0,31.8,0.8,35.3,0.8c3.5,0,20.6-1.1,20.6-1.1s-6.7-0.6-7.5-2.2
		c-0.8-1.7-1.9-3.1-3.2-3.6c-1.3-0.6-5.6-1.4-8-1.1c-2.4,0.3-4.3-3.9-8.5-1.1c-4.3,2.8-9.1,3.4-10.1,1.4c-1.1-2-4-7.3-4-7.3
		s7.7-3.4,7.7-8.7s-3.2-9.8-3.2-9.8s-1.1,10.1-5.6,12.6c-4.5,2.5-7.2,5.6-8.3,6.7c-1.1,1.1-2.9,5.9-2.9,5.9s-0.8-0.6-8.8-0.6
		c-8,0-10.7,0.8-14.2,1.4c-3.5,0.6-12.8,2.8-12.8,2.8s16.6,0,18.2-0.3c1.6-0.3,11.2-1.4,11.2-1.4l4,1.7l-2.9,1.7
		c0,0-22.2,2-31.8,4.5c-9.6,2.5-23,5.6-23,5.6s-20.3,6.2-22.2,6.4c-1.9,0.3-8,2.8-8,2.8l12-2.2c0,0-4,1.7-4.8,2.2
		C197.9,295.1,173.1,308.3,173.1,308.3z"/>
	<linearGradient id="SVGBACKID_2_" gradientUnits="userSpaceOnUse" x1="317.4891" y1="259.3467" x2="339.1963" y2="259.3467">
		<stop  offset="0" style="stop-color:#ADB0AD"/>
		<stop  offset="1" style="stop-color:#000000"/>
	</linearGradient>
	<path opacity="6.000000e-002" fill="url(#SVGBACKID_2_)" d="M327.4,253.3c0,0-11,4.5-9.9,7.3c1.1,2.8,4.3,2,4.3,2l4.3,2l2.7,0.3
		l2.9,0.6l2.4-0.6l2.7-0.6l2.1,0.6v-1.4l-1.6-3.6l0.3-1.4l1.6-2.5c0,0-1.3-0.6-2.1-0.3c-0.8,0.3-2.7,0.3-2.7,0.3l-3.5,1.4l-2.7,1.7
		l-1.1-0.3l2.4-3.4L327.4,253.3z"/>
	<linearGradient id="SVGBACKID_3_" gradientUnits="userSpaceOnUse" x1="343.7363" y1="255.5628" x2="360.2959" y2="255.5628">
		<stop  offset="0" style="stop-color:#ADB0AD"/>
		<stop  offset="1" style="stop-color:#000000"/>
	</linearGradient>
	<path opacity="6.000000e-002" fill="url(#SVGBACKID_3_)" d="M360.3,269.6l-16.6-28c0,0,11,3.4,11.8,5.6
		C356.3,249.4,360.3,269.6,360.3,269.6z"/>
	<linearGradient id="SVGBACKID_4_" gradientUnits="userSpaceOnUse" x1="234.7681" y1="227.9578" x2="280.7061" y2="227.9578">
		<stop  offset="0" style="stop-color:#ADB0AD"/>
		<stop  offset="1" style="stop-color:#000000"/>
	</linearGradient>
	<path opacity="6.000000e-002" fill="url(#SVGBACKID_4_)" d="M234.8,234.5c0,0,13.9-4.8,15-5c1.1-0.3,2.4-1.1,6.1-2.5
		c3.7-1.4,12.8-3.6,12.8-3.6l6.7-2h5.3l-4.8,1.4c0,0-3.7,2.2-4.5,2.2s-3.7,1.4-4.8,1.4c-1.1,0-2.9,0-2.9,0l-4,1.4l-3.2,1.4
		c0,0-0.8,0.6-1.6,0.6c-0.8,0-4.5,0.8-4.5,0.8L234.8,234.5z"/>
	<linearGradient id="SVGBACKID_5_" gradientUnits="userSpaceOnUse" x1="298.8667" y1="223.8941" x2="342.4004" y2="223.8941">
		<stop  offset="0" style="stop-color:#ADB0AD"/>
		<stop  offset="1" style="stop-color:#000000"/>
	</linearGradient>
	<path opacity="6.000000e-002" fill="url(#SVGBACKID_5_)" d="M298.9,217.7c0,0,16.8,2.2,18.4,2.2c1.6,0,11.5,1.4,11.5,1.4l1.9,0.8l5.6,2
		l6.1,5l-2.1,0.8l-2.9-3.6c0,0-2.1-3.4-10.1-2.8c-8,0.6-14.4-0.3-14.4-0.3l-5.9,0.3l-4-2L298.9,217.7z"/>
	<linearGradient id="SVGBACKID_6_" gradientUnits="userSpaceOnUse" x1="328.7803" y1="347.4861" x2="467.6611" y2="347.4861">
		<stop  offset="0" style="stop-color:#ADB0AD"/>
		<stop  offset="1" style="stop-color:#000000"/>
	</linearGradient>
	<path opacity="6.000000e-002" fill="url(#SVGBACKID_6_)" d="M341.1,278c0,0,70.2,27.7,84.9,45.4c14.7,17.7,41.7,71.2,41.7,71.2l-3.2,23
		c0,0-13.9-3.4-15.2-8.1c-1.3-4.8-18.6-51.5-30.2-70.9c-19-31.9-59.3-44.3-63-45.7c-3.7-1.4-27.2-15.4-27.2-15.4L341.1,278z"/>
	<linearGradient id="SVGBACKID_7_" gradientUnits="userSpaceOnUse" x1="416.6728" y1="384.9567" x2="463.9506" y2="482.8893">
		<stop  offset="0" style="stop-color:#ADB0AD"/>
		<stop  offset="1" style="stop-color:#000000"/>
	</linearGradient>
	<path opacity="6.000000e-002" fill="url(#SVGBACKID_7_)" d="M464.5,417.5c0,0-10.9-2.7-14.8-6.5c0,0-1.7,4.3-18.5-3.1
		c-6.4-2.8,20.5,128.1,28.5,130.6c8,2.5,2.7-47.4,1.6-66.4c-1.1-19.1,1.6-38.4,2.1-44.3C463.9,422,464.5,417.5,464.5,417.5z"/>
	<linearGradient id="SVGBACKID_8_" gradientUnits="userSpaceOnUse" x1="385.9019" y1="368.2505" x2="449.5139" y2="368.2505">
		<stop  offset="0" style="stop-color:#ADB0AD"/>
		<stop  offset="1" style="stop-color:#000000"/>
	</linearGradient>
	<path opacity="4.000000e-002" fill="url(#SVGBACKID_8_)" d="M385.9,324.2c-1.1,3.1,24.3,22.7,33.9,45.4c9.6,22.7,13.9,28.9,12.6,31.4
		c-1.3,2.5-1.3,6.7-1.3,6.7s21.1,9,18.2,1.7c-2.9-7.3-14.7-41.8-30.4-58C403,335.2,385.9,324.2,385.9,324.2z"/>
	<linearGradient id="SVGBACKID_9_" gradientUnits="userSpaceOnUse" x1="508.4721" y1="419.1721" x2="478.976" y2="513.2771">
		<stop  offset="0" style="stop-color:#ADB0AD"/>
		<stop  offset="1" style="stop-color:#000000"/>
	</linearGradient>
	<path opacity="6.000000e-002" fill="url(#SVGBACKID_9_)" d="M500.8,436c2.9-1.4-0.5,17.9-5.3,28.6c-4.8,10.6-19.8,31.7-19,33.1
		c0.8,1.4,26.7,6.2,27.2,8.4c0.5,2.2-5.9,11.8-6.1,14.9c-0.3,3.1-1.1,12.3-3.5,13.2c-2.4,0.8-14.2,3.4-17.9,5.9
		c-3.7,2.5-5.9,4.5-7.5,5.3c-1.6,0.8-5.3,1.7-5.3,1.7s1.1-31.9,0.5-40.6c-0.5-8.7-1.3-14-0.5-16c0.8-2,16.8-19.1,18.4-22.7
		c1.6-3.6,10.4-9.5,13.1-18.8C497.6,439.7,500.8,436,500.8,436z"/>
	<linearGradient id="SVGBACKID_10_" gradientUnits="userSpaceOnUse" x1="496.6264" y1="413.8018" x2="500.1549" y2="535.9103">
		<stop  offset="0" style="stop-color:#ADB0AD"/>
		<stop  offset="1" style="stop-color:#000000"/>
	</linearGradient>
	<path opacity="6.000000e-002" fill="url(#SVGBACKID_10_)" d="M462.5,552.1c0,0,34.9,3,42.7-2.6c7.8-5.6,26.3-27.1,25-46.5
		c-1.2-19.4,5.7-37,6.2-43c0.4-6-1.6-32.3-4.5-37.9c-2.9-5.6-9.8-21.5-12.7-19.8c-2.9,1.7,2.9,52.9,2.5,60.3
		c-0.4,7.3,2.1,40-1.6,47.3c-3.7,7.3-11.9,18.9-19.7,21.1c-7.8,2.2-1.8,0.4-6.1,3.1c-3.3,2.1-14.1,3.7-16.7,5.1
		c-3.7,1.9-5.6,5.1-8,6c-4.5,1.6-6.5,1.7-6.5,1.7C461.3,550.8,462.5,552.1,462.5,552.1z"/>
	
		<radialGradient id="SVGBACKID_11_" cx="428.1755" cy="512.5607" r="73.5576" gradientTransform="matrix(1 0 0 1.0493 0 -17.0763)" gradientUnits="userSpaceOnUse">
		<stop  offset="0" style="stop-color:#ADB0AD"/>
		<stop  offset="1" style="stop-color:#000000"/>
	</radialGradient>
	<path opacity="6.000000e-002" fill="url(#SVGBACKID_11_)" d="M457.2,609.8c0,0-16.8-45.6-12.3-59.4c4.5-13.8,16.2,0.9,16.2,0.9
		l-6.8,22.4c0,0,6.6,18.1,6.6,21.1C460.9,597.7,457.2,609.8,457.2,609.8z"/>
	
		<radialGradient id="SVGBACKID_12_" cx="402.6234" cy="614.7748" r="45.6869" gradientTransform="matrix(1 0 0 1.0493 0 -17.0763)" gradientUnits="userSpaceOnUse">
		<stop  offset="0" style="stop-color:#ADB0AD"/>
		<stop  offset="1" style="stop-color:#000000"/>
	</radialGradient>
	<path opacity="6.000000e-002" fill="url(#SVGBACKID_12_)" d="M439.5,678.2c0,0-42.7-20.7-46.8-23.2c-4.1-2.6-24.6-19.8-24.6-27.1
		c0-7.3,5.7-10.3,11.5-6.9c5.7,3.4,31.2,20.7,39,15.5c7.8-5.2,26.7-22.8,29.5-22.8s5.2,9.5,5.2,9.5s-5.6,12.5-5.6,15.5
		c0,3-0.9,13.1-2.1,14.1c-3.3,2.6-3.4,13.3-4.2,15.1C440.6,669.5,439.5,678.2,439.5,678.2z"/>
	
		<radialGradient id="SVGBACKID_13_" cx="504.8351" cy="559.6333" r="58.1" gradientTransform="matrix(1 0 0 1.0493 0 -17.0763)" gradientUnits="userSpaceOnUse">
		<stop  offset="0" style="stop-color:#ADB0AD"/>
		<stop  offset="1" style="stop-color:#000000"/>
	</radialGradient>
	<path opacity="6.000000e-002" fill="url(#SVGBACKID_13_)" d="M479.3,581.9c0,0,21.7-6.2,24.6-7.5c2.9-1.3,39-0.9,43.1-0.9
		c4.1,0,4.1-2.6,9.8,0.9c5.7,3.4,20.5,10.8,22.6,9.9c2.1-0.9,5.2,1.4,5.2,1.4s-5.6,13.5-6.8,15.2c-1.2,1.7-7.2,11.9-7.7,13.2
		c-0.4,1.3-5.9,8.9-5.9,8.9s-9,9-14.4,9.5c-5.3,0.4-18,3-16.4,0c1.6-3-1.2-6,10.7-11.2c11.9-5.2,22.6-16.4,22.6-16.4s-2.9-5.6-7-1.7
		c-4.1,3.9-22.6,20.7-32.4,22.8c-9.8,2.2-11.5,9-20.5,5.2c-9-3.9-5.3-6.9-11.9-7.3c-6.6-0.4-9.8,1.3-9.8-1.3s3.3-7.3,3.3-7.3
		s-4.1,1.3-4.5-1.3c-0.4-2.6,0.4-4.7,0.4-4.7s-5.3-5.6-5.3-8.2c0-2.6,0.8-7.9,0.8-7.9L479.3,581.9z"/>
	<linearGradient id="SVGBACKID_14_" gradientUnits="userSpaceOnUse" x1="495.3926" y1="607.8494" x2="521.5251" y2="664.9288">
		<stop  offset="0" style="stop-color:#ADB0AD"/>
		<stop  offset="1" style="stop-color:#000000"/>
	</linearGradient>
	<path opacity="6.000000e-002" fill="url(#SVGBACKID_14_)" d="M538.8,642c-1.2-1.3-12.7,11.2-16.8,13.3c-4.1,2.2-18,6.5-18,6.5
		s10.7-8.2,5.7-8.2c-4.9,0-12.3-0.4-15.2,1.3c-2.9,1.7-4.5,1.7-4.5,1.7l11.9-6.5c0,0-2.9-2.6-5.3-3.4c-2.5-0.9-10.7-1.7-10.7-1.7
		v-3.9c0,0,17.2,6,18.9,2.6c1.6-3.4,7.4-7.3,13.5-6.9C524.5,637.3,538.8,642,538.8,642z"/>
	<radialGradient id="SVGBACKID_15_" cx="490.041" cy="663.1891" r="59.3355" gradientUnits="userSpaceOnUse">
		<stop  offset="0" style="stop-color:#ADB0AD"/>
		<stop  offset="1" style="stop-color:#000000"/>
	</radialGradient>
	<path opacity="6.000000e-002" fill="url(#SVGBACKID_15_)" d="M522.6,684.1c1.9-0.2,3.9-0.5,5.5-0.7c0.6-0.1,1.3-0.2,1.9-0.4
		c1-0.2,1.9-0.4,2.9-0.6c1.4-0.7,4.8-3,7.1-3.8c2.5-0.9,6.6-7.3,9.8-10.3c3.3-3,11.5-12.5,11.5-12.5l-7.8-3.4l4.9-14.6
		c0,0-4.5,6.9-7,9.9c-2.5,3-11.1,6-20.9,10.8c-9.8,4.7-36.1,14.6-36.1,14.6s3.5,5.8,7.2,8.2c2.9,1.9,5.3,2.7,7.9,3.1
		C513.4,684.5,517.9,684.6,522.6,684.1z"/>
	<radialGradient id="SVGBACKID_16_" cx="527.7969" cy="682.9175" r="4.1062" gradientUnits="userSpaceOnUse">
		<stop  offset="0" style="stop-color:#ADB0AD"/>
		<stop  offset="1" style="stop-color:#000000"/>
	</radialGradient>
	<path opacity="6.000000e-002" fill="url(#SVGBACKID_16_)" d="M528.1,683.4c2.3-0.4,4.1-0.7,4.5-0.8c0.1,0,0.2-0.1,0.3-0.1
		c-1,0.2-2,0.4-2.9,0.6C529.4,683.1,528.7,683.2,528.1,683.4z"/>
	<radialGradient id="SVGBACKID_17_" cx="508.7511" cy="684.4041" r="11.0442" gradientUnits="userSpaceOnUse">
		<stop  offset="0" style="stop-color:#ADB0AD"/>
		<stop  offset="1" style="stop-color:#000000"/>
	</radialGradient>
	<path opacity="6.000000e-002" fill="url(#SVGBACKID_17_)" d="M522.6,684.1c-4.7,0.5-9.2,0.5-13,0.3c1.6,0.2,3.4,0.3,5.4,0.3
		C517,684.7,519.8,684.4,522.6,684.1z"/>
	<linearGradient id="SVGBACKID_18_" gradientUnits="userSpaceOnUse" x1="230.8081" y1="661.9256" x2="447.3489" y2="661.9256">
		<stop  offset="0" style="stop-color:#ADB0AD"/>
		<stop  offset="1" style="stop-color:#000000"/>
	</linearGradient>
	<path opacity="6.000000e-002" fill="url(#SVGBACKID_18_)" d="M447.3,685.5c0,0-9-3-16.4-3.9c-7.4-0.9-14.2-6.1-27.9-11.6
		c-34-13.8-38.6-37.9-38.6-37.9s-2.5,11.2-9.4,15.5c-7,4.3-21.7,6-21.7,6l6.6,5.6c0,0,6.2,4.7,19.7,6.5
		c13.5,1.7,29.9,10.8,29.9,10.8s-18,6-19.7,5.6c-1.6-0.4-53.3-1.3-62.3-6.5c-9-5.2-24.6-1.3-28.3-0.9c-3.7,0.4-34-2.2-40.6-2.2
		c-6.6,0-12.7,10.8-1.6,5.2c11.1-5.6,13.5,5.2,15.6,7.3c2.1,2.2,15.2,4.3,18,4.3c2.9,0,14.4-3.4,21.7-8.6c7.4-5.2,9.8,1.7,15.2,6.9
		c1.2,1.2,2.7,2.3,4.5,3.3c58.6-1.2,117.5-2,119.8-0.6c0.2,0.1,0.3,0.3,0.5,0.5c1,0.2,2.2,0.5,3.2,0.7c2.5,0.4,5.8-0.1,8.8-0.9
		C447.7,689.8,447.3,685.5,447.3,685.5z"/>
	<radialGradient id="SVGBACKID_19_" cx="251.6131" cy="662.9263" r="85.7137" gradientUnits="userSpaceOnUse">
		<stop  offset="0" style="stop-color:#ADB0AD"/>
		<stop  offset="1" style="stop-color:#000000"/>
	</radialGradient>
	<path opacity="6.000000e-002" fill="url(#SVGBACKID_19_)" d="M149.5,670.5c11.1-2.6,42.2-4.3,59.9-4.7c17.6-0.4,50.9,1.3,62.8,3.4
		c11.9,2.2,26.7,1.3,37.3,0.9c10.7-0.4,9.4-3.4,20.5-1.7c11.1,1.7,39.8,7.7,39.8,7.7s-9-3-10.3-4.3c-1.2-1.3-14.4-6-16.8-6
		c-2.5,0-20.9-3.9-20.9-3.9s-15.6,2.2-27.9,1.7c-12.3-0.4-13.1,1.3-23-1.7c-9.8-3-15.6-4.7-27.5-4.7c-11.9,0-32-1.7-43.9-3
		c-11.9-1.3-13.5,0.9-22.2-3.9c-8.6-4.7-16.4-8.6-16.4-8.6l-3.3-5.6c0,0-4.5,0.9-5.3,4.7c-0.8,3.9-0.8,9.5-0.8,9.5
		s-17.4,3.6-18,10.3c-1.6,17.8,14.4,29.3,14.4,29.3S138.5,673,149.5,670.5z"/>
	
		<radialGradient id="SVGBACKID_20_" cx="232.5888" cy="576.7206" r="68.7035" gradientTransform="matrix(1 0 0 1.0493 0 -17.0763)" gradientUnits="userSpaceOnUse">
		<stop  offset="0" style="stop-color:#ADB0AD"/>
		<stop  offset="1" style="stop-color:#000000"/>
	</radialGradient>
	<path opacity="6.000000e-002" fill="url(#SVGBACKID_20_)" d="M169.6,639c0,0,36.1-5.2,52.1-14.6c16-9.5,28.7-26.7,28.7-26.7
		s-15.2,3.9-30.8,1.3c-15.6-2.6-30.8-0.9-30.8-4.7c0-3.9,7.4-12.5,7.4-15.5c0-3-0.8-12.1-0.8-12.1s-14.8,23.2-14.8,26.7
		c0,3.4-4.9,21.5-8.6,27.1c-3.7,5.6-7.8,13.7-12.3,16.7C155.3,640.3,169.6,639,169.6,639z"/>
	<linearGradient id="SVGBACKID_21_" gradientUnits="userSpaceOnUse" x1="137.2146" y1="568.8052" x2="179.0679" y2="568.8052">
		<stop  offset="0" style="stop-color:#ADB0AD"/>
		<stop  offset="1" style="stop-color:#000000"/>
	</linearGradient>
	<path opacity="6.000000e-002" fill="url(#SVGBACKID_21_)" d="M139.3,641c0,0,11.5-5,21.7-21.4c10.3-16.4,18-30.6,18-30.6
		s-9.8-2.6-15.6-9.9c-5.7-7.3-8.2-13.8-8.2-13.8s14.8,12.1,17.2,3.9c2.5-8.2,4.1-25.8,4.5-29.3c0.4-3.4,1.6-5.6,1.6-5.6
		s-11.9-1.3-13.1,0c-1.2,1.3,5.3-12.1,7.8-16.8c2.5-4.7,5.3-8.2,3.7-10.8c-1.6-2.6-8.6-2.6-11.5-3.4c-2.9-0.9-7.8-1.3-8.6-3
		c-0.8-1.7-5.7-3.9-5.7-3.9s-1.5,36-5.3,53.2c-2.1,9.5-7,28.1-7.8,35.4c-0.4,4-1.1,20.2-0.7,34.1C137.8,631.1,139.3,641,139.3,641z"
		/>
	<linearGradient id="SVGBACKID_22_" gradientUnits="userSpaceOnUse" x1="206.2664" y1="359.4242" x2="168.4572" y2="444.1449">
		<stop  offset="0" style="stop-color:#ADB0AD"/>
		<stop  offset="1" style="stop-color:#000000"/>
	</linearGradient>
	<path opacity="6.000000e-002" fill="url(#SVGBACKID_22_)" d="M204.5,386.8c0,0-6.6-7.3-11.5-5.6c-4.9,1.7-13.9,14.2-14.8,20.7
		c-0.8,6.5,1.6,12.5-2.1,12.9c-3.7,0.4-8.6-2.6-8.6-2.6s-1.6,7.7,2.1,8.2c3.7,0.4,5.7,8.2,5.7,8.2s-3.3,2.2-4.5,7.3
		c-1.2,5.2,1.6,6.5,1.6,6.5s6.6,0,10.3-6c3.7-6,10.7-14.2,10.7-14.2s-1.2-14.2,2.9-22.8C200.4,390.7,204.5,386.8,204.5,386.8z"/>
	<linearGradient id="SVGBACKID_23_" gradientUnits="userSpaceOnUse" x1="258.3072" y1="329.6901" x2="220.3102" y2="542.8966">
		<stop  offset="0" style="stop-color:#ADB0AD"/>
		<stop  offset="1" style="stop-color:#000000"/>
	</linearGradient>
	<path opacity="6.000000e-002" fill="url(#SVGBACKID_23_)" d="M277.5,332.1c0,0-41.8,62-43.9,70.6c-2.1,8.6-12.7,77.9-18,105
		s-20.9,68.9-20.9,68.9s11.5,4.3,25-28c13.5-32.3,17.6-63.7,17.2-82.2c-0.4-18.5,4.9-44.8,7.4-55.1
		C246.8,401,277.5,332.1,277.5,332.1z"/>
	<linearGradient id="SVGBACKID_24_" gradientUnits="userSpaceOnUse" x1="175.1166" y1="328.7897" x2="151.1609" y2="469.7036">
		<stop  offset="0" style="stop-color:#ADB0AD"/>
		<stop  offset="1" style="stop-color:#000000"/>
	</linearGradient>
	<path opacity="6.000000e-002" fill="url(#SVGBACKID_24_)" d="M186,333c0,0-23,26.7-24.6,56.4c-1.6,29.7,0.4,70.2-0.8,82.6
		c-1.2,12.5-4.5,25-4.5,25s-2.5-76.2-3.7-93.4c-1.2-17.2,7.4-41.3,13.5-52.1C172.1,340.8,186,333,186,333z"/>
	<linearGradient id="SVGBACKID_25_" gradientUnits="userSpaceOnUse" x1="291.4295" y1="580.3953" x2="321.4072" y2="663.3566">
		<stop  offset="0" style="stop-color:#ADB0AD"/>
		<stop  offset="1" style="stop-color:#000000"/>
	</linearGradient>
	<path opacity="6.000000e-002" fill="url(#SVGBACKID_25_)" d="M312.4,588.7c6.6,2.2,35.7,43.9,38.6,46.1c2.9,2.2,0.8,5.2-0.4,5.2
		c-1.2,0-28.7-28.4-35.7-21.1c-7,7.3-9,30.6-13.1,34.4c-4.1,3.9-21.7,7.7-21.7,7.7s15.6-27.5,18.9-42.2c3.3-14.6,7-28.8,7-28.8
		L312.4,588.7z"/>
	
		<radialGradient id="SVGBACKID_26_" cx="419.4352" cy="579.7567" r="31.3611" gradientTransform="matrix(1 0 0 1.0493 0 -17.0763)" gradientUnits="userSpaceOnUse">
		<stop  offset="0" style="stop-color:#ADB0AD"/>
		<stop  offset="1" style="stop-color:#000000"/>
	</radialGradient>
	<path opacity="6.000000e-002" fill="url(#SVGBACKID_26_)" d="M437.9,613.2c0,0-21.7-15.5-20.5-17.2c1.2-1.7,11.5-3.9,13.9-12.9
		c2.5-9,4.9-12.9,7-19.8c2.1-6.9,4.6-9.3,4.6-9.3s3.4,23.3,9,40.7c1.3,4.2,2,13.4,3.2,15.1c1.2,1.7,1.2,5.6-1.6,3.9
		c-2.9-1.7-5.3-3-7.4-3C444.1,610.6,437.9,613.2,437.9,613.2z"/>
	<linearGradient id="SVGBACKID_27_" gradientUnits="userSpaceOnUse" x1="556.5774" y1="544.9775" x2="565.0631" y2="568.3141">
		<stop  offset="0" style="stop-color:#ADB0AD"/>
		<stop  offset="0.57" style="stop-color:#343434"/>
		<stop  offset="1" style="stop-color:#000000"/>
	</linearGradient>
	<path opacity="6.000000e-002" fill="url(#SVGBACKID_27_)" d="M562.2,544.2c0,0-5.7,8.8-5.3,14.8c0.4,6,2.5,9,2.5,9s-0.8-7.3,1.6-11.2
		c2.5-3.9,3.3-6,3.3-6L562.2,544.2z"/>
	
		<radialGradient id="SVGBACKID_28_" cx="87.245" cy="429.1744" r="101.656" gradientTransform="matrix(1 0 0 1.0493 0 -17.0763)" gradientUnits="userSpaceOnUse">
		<stop  offset="0" style="stop-color:#ADB0AD"/>
		<stop  offset="1" style="stop-color:#000000"/>
	</radialGradient>
	<path opacity="6.000000e-002" fill="url(#SVGBACKID_28_)" d="M64.2,477.2c0,0,6.2,17.2,13.1,23.7c7,6.5,31.6,25,36.5,25.4
		c4.9,0.4,8.6,2.6,8.6,2.6l4.9,11.6c0,0,10.5-4.8,10.6-8.8c0.1-2.6-0.5-4.9-0.5-4.9s3-0.4,6.2-2.1c3.3-1.7,6.2-4.3,6.2-4.3l1.2-21.5
		c0,0-4.1,14.5-7.8,13.2c-3.7-1.3-15.2-6.9-19.3-12.9c-4.1-6-9.8-7.3-12.3-10.3c-2.5-3-12.3-18.5-14.4-16.8
		c-2.1,1.7-1.6,8.6,1.6,12.1c3.3,3.4,9,11.2,9,11.2s-4.5,2.2-3.7,5.2c0.8,3,4.9,3.9,4.9,3.9l6.6,4.7l9.8,9.9c0,0-4.9,3-8.2,1.3
		c-3.3-1.7-10.3-6-10.3-6l-8.2-6.5l-4.9-1.7l-7.4-3.4l-7.8-6l-6.2-3.4c0,0,1.6-11.2-0.8-15.1C69.5,474.2,64.2,477.2,64.2,477.2z"/>
	<linearGradient id="SVGBACKID_29_" gradientUnits="userSpaceOnUse" x1="73.2025" y1="469.2327" x2="100.311" y2="469.2327">
		<stop  offset="0" style="stop-color:#ADB0AD"/>
		<stop  offset="1" style="stop-color:#000000"/>
	</linearGradient>
	<path opacity="6.000000e-002" fill="url(#SVGBACKID_29_)" d="M73.2,430.3c-0.8,3.4,12.7,45.6,13.9,52.1c1.2,6.5,13.1,27.1,13.1,27.1
		s-4.9-21.5-7.8-27.5c-2.9-6-6.2-16.8-8.6-26.3c-2.5-9.5-8.2-26.7-8.2-26.7L73.2,430.3z"/>
	<linearGradient id="SVGBACKID_30_" gradientUnits="userSpaceOnUse" x1="65.0342" y1="514.4854" x2="86.6996" y2="514.4854">
		<stop  offset="0" style="stop-color:#ADB0AD"/>
		<stop  offset="1" style="stop-color:#000000"/>
	</linearGradient>
	<path opacity="6.000000e-002" fill="url(#SVGBACKID_30_)" d="M65,491l11.9,13.3c0,0,11.9,31.9,9.4,33.6c-2.5,1.7-18.5-16.4-18.5-19.4
		C67.9,515.5,65,491,65,491z"/>
	<linearGradient id="SVGBACKID_31_" gradientUnits="userSpaceOnUse" x1="36.731" y1="540.9406" x2="110.5659" y2="540.9406">
		<stop  offset="0" style="stop-color:#ADB0AD"/>
		<stop  offset="1" style="stop-color:#000000"/>
	</linearGradient>
	<path opacity="6.000000e-002" fill="url(#SVGBACKID_31_)" d="M92.5,537.9l18,23.2c0,0-5.7,2.2-15.6,3.4c-9.8,1.3-15.2,1.3-19.7-4.7
		c-4.5-6-14.8-12.5-21.7-15.1c-7-2.6-16.8-10.8-16.8-10.8s5.7-14.6,10.3-15.1c4.5-0.4,9.8-4.7,12.3-0.4c2.5,4.3,16.8,20.2,20.9,21.1
		c4.1,0.9,7.8,0.9,7.8,0.9L92.5,537.9z"/>
	<linearGradient id="SVGBACKID_32_" gradientUnits="userSpaceOnUse" x1="58.3723" y1="605.3912" x2="131.896" y2="605.3912">
		<stop  offset="0" style="stop-color:#ADB0AD"/>
		<stop  offset="1" style="stop-color:#000000"/>
	</linearGradient>
	<path opacity="6.000000e-002" fill="url(#SVGBACKID_32_)" d="M131.9,545.1c0,0-5.3,14.8-11.5,16.1c-6.2,1.3-9.8,0-9.8,0
		s-0.4,12.1-9.8,12.9c-9.4,0.9-21.7,0.9-25.8,0c-4.1-0.9-13.9-3-13.9-0.9c0,2.2,5.3,9,13.1,13.8c7.8,4.7,27.5,15.5,26.7,17.6
		c-0.8,2.2-15.6,12.5-20.9,14.6c-5.3,2.2-20.9,5.2-21.3,7.3c-0.4,2.2,0.4,6,3.3,7.7c2.9,1.7,7.8,2.2,14.4,0.4c6.6-1.7,11.1-3,11.1-3
		s4.5-3.9,6.2-3c1.6,0.9,1.6,0.9,1.6,0.9s-0.4,3.9-3.3,5.2c-2.9,1.3-9.4,1.7-9.4,1.7s-9,17.2-8.6,21.5c0.4,4.3,4.1,7.7,4.1,7.7
		s7-1.3,10.3-6.5c3.3-5.2,9-11.6,9-11.6l5.3-0.9l3.3-1.3c0,0-0.1-3.4,0.4-7.2c0.6-4.5,1.6-9.5,1.6-11.3c0-3.4-0.4-11.6-0.4-11.6
		s9-12.9,11.5-18.1c0.8-1.7,1-4.9,1.9-8c1.8-6.1,4.4-13.2,5.5-16.9c1.6-5.6,3.7-16.2,4.1-18.4C130.7,551.8,131.9,545.1,131.9,545.1z
		"/>
	<linearGradient id="SVGBACKID_33_" gradientUnits="userSpaceOnUse" x1="62.0336" y1="679.9228" x2="83.083" y2="679.9228">
		<stop  offset="0" style="stop-color:#ADB0AD"/>
		<stop  offset="1" style="stop-color:#000000"/>
	</linearGradient>
	<path opacity="6.000000e-002" fill="url(#SVGBACKID_33_)" d="M67.5,686.8c0,0,3.7-3.9,4.9-5.2c1.2-1.3,4.1-2.2,6.2-4.3
		c2.1-2.2,3.7-1.7,4.5-3.9c0,0-5.3-3-8.2-3.9c-2.9-0.9-7,3.9-8.6,6c-1.6,2.2-4.9,12.1-4.1,14.2C63,692,67.5,686.8,67.5,686.8z"/>
	<linearGradient id="SVGBACKID_34_" gradientUnits="userSpaceOnUse" x1="74.061" y1="672.3789" x2="105.2334" y2="672.3789">
		<stop  offset="0" style="stop-color:#ADB0AD"/>
		<stop  offset="1" style="stop-color:#000000"/>
	</linearGradient>
	<path opacity="6.000000e-002" fill="url(#SVGBACKID_34_)" d="M99.5,676.9c2.1-2.2,5.7-13.8,5.7-13.8l-2.5-3V655c0,0-4.5,8.6-7.8,12.9
		c-3.3,4.3-7,8.6-8.6,10.3c-1.6,1.7-6.2,6-9.4,7.3c-2.3,0.9-2.8,3-2.9,4.3c4.4-1.2,8.2-2.3,11.3-3.3c1.2-0.8,2.3-1.5,3-2.2
		C91.7,681.2,97.4,679.1,99.5,676.9z"/>
	<linearGradient id="SVGBACKID_35_" gradientUnits="userSpaceOnUse" x1="57.0391" y1="693.0914" x2="59.2144" y2="693.0914">
		<stop  offset="0" style="stop-color:#ADB0AD"/>
		<stop  offset="1" style="stop-color:#000000"/>
	</linearGradient>
	<path opacity="6.000000e-002" fill="url(#SVGBACKID_35_)" d="M58.1,693.3c0.4,0,0.8-0.1,1.2-0.4c-0.8,0.1-1.5,0.1-2.2,0.2
		C57.4,693.2,57.7,693.3,58.1,693.3z"/>
	<linearGradient id="SVGBACKID_36_" gradientUnits="userSpaceOnUse" x1="28.9375" y1="669.9302" x2="72.4175" y2="669.9302">
		<stop  offset="0" style="stop-color:#ADB0AD"/>
		<stop  offset="1" style="stop-color:#000000"/>
	</linearGradient>
	<path opacity="6.000000e-002" fill="url(#SVGBACKID_36_)" d="M62.6,685.5c0.8-2.2,3.7-9.9,3.7-9.9l6.2-9.5l-0.8-10.3
		c0,0-7.8,3.4-12.7,1.7c-4.9-1.7-10.7-10.8-10.7-10.8L44.5,667c0,0-2.5,2.2-4.9,0.4c-2.5-1.7-7.4-4.3-7.4-4.3s-3.3,11.6-3.3,13.3
		c0,1.7,4.1,6.9,8.2,8.6c3.6,1.5,13.4,6.8,15.6,7.9c0.1,0,0.3,0,0.4,0l-0.4-4.5c0,0,1.9,3.7,4.3,4.5c0.7,0,1.4-0.1,2.2-0.2
		C61.2,691.7,61.9,687.4,62.6,685.5z"/>
	<linearGradient id="SVGBACKID_37_" gradientUnits="userSpaceOnUse" x1="52.7114" y1="693.1539" x2="53.1392" y2="693.1539">
		<stop  offset="0" style="stop-color:#ADB0AD"/>
		<stop  offset="1" style="stop-color:#000000"/>
	</linearGradient>
	<path opacity="6.000000e-002" fill="url(#SVGBACKID_37_)" d="M53.1,693.3l0-0.2c-0.1,0-0.3,0-0.4,0C53,693.2,53.1,693.3,53.1,693.3z"/>
	<linearGradient id="SVGBACKID_38_" gradientUnits="userSpaceOnUse" x1="29.3477" y1="642.1938" x2="46.9689" y2="642.1938">
		<stop  offset="0" style="stop-color:#ADB0AD"/>
		<stop  offset="1" style="stop-color:#000000"/>
	</linearGradient>
	<path opacity="6.000000e-002" fill="url(#SVGBACKID_38_)" d="M33,661l12.7-9c0,0,2.1-10.3,0.8-16.4c-1.2-6-3.8-12.2-3.8-12.2
		s-1.6,1.3-1.6,3.4c0,2.2-0.8,5.6-0.8,5.6s-0.5,3.6-1,3.7c-4.2,0.9-10,2.7-10,2.7s4.9,6.2,4.5,10.5C33.4,653.7,33,661,33,661z"/>
	<linearGradient id="SVGBACKID_39_" gradientUnits="userSpaceOnUse" x1="34.6802" y1="588.8819" x2="84.7236" y2="588.8819">
		<stop  offset="0" style="stop-color:#ADB0AD"/>
		<stop  offset="1" style="stop-color:#000000"/>
	</linearGradient>
	<path opacity="6.000000e-002" fill="url(#SVGBACKID_39_)" d="M84.7,601.6c0,0-15.2,1.7-28.3-2.6s-21.7-9-21.7-11.2
		c0-2.2,12.3-14.2,17.6-11.6c5.3,2.6,6.6,6,9.4,8.2c2.9,2.2,9.8,6,13.1,8.2C78.2,594.7,84.7,601.6,84.7,601.6z"/>
	<linearGradient id="SVGBACKID_40_" gradientUnits="userSpaceOnUse" x1="54.9889" y1="636.4171" x2="76.1099" y2="636.4171">
		<stop  offset="0" style="stop-color:#ADB0AD"/>
		<stop  offset="1" style="stop-color:#000000"/>
	</linearGradient>
	<path opacity="6.000000e-002" fill="url(#SVGBACKID_40_)" d="M58.7,626c0,0-7.6,20.7-1.1,20.7c6.6,0,18.5-12.1,18.5-12.1
		s-9.3,2.7-14.4-0.4C57.2,631.5,58.7,626,58.7,626z"/>
</g>
<g id="BOX_BODY">
	<g>
		<g>
			<polyline fill="none" stroke="#000000" stroke-width="0.9214" stroke-miterlimit="10" points="433.2,478.9 433.4,480.3 
				432,480.3 			"/>
			
				<line fill="none" stroke="#000000" stroke-width="0.9214" stroke-miterlimit="10" stroke-dasharray="2.747,1.8313" x1="430.2" y1="480.3" x2="170.1" y2="480.3"/>
			<polyline fill="none" stroke="#000000" stroke-width="0.9214" stroke-miterlimit="10" points="169.2,480.3 167.8,480.3 
				167.8,478.9 			"/>
			<polyline fill="none" stroke="#000000" stroke-width="0.9214" stroke-miterlimit="10" stroke-dasharray="2.7704,1.847" points="
				167.8,477.1 167.8,382.5 211.9,310.3 			"/>
			<polyline fill="none" stroke="#000000" stroke-width="0.9214" stroke-miterlimit="10" points="212.4,309.5 213.1,308.3 
				214.5,308.3 			"/>
			
				<line fill="none" stroke="#000000" stroke-width="0.9214" stroke-miterlimit="10" stroke-dasharray="2.7278,1.8186" x1="216.3" y1="308.3" x2="365.4" y2="308.3"/>
			<polyline fill="none" stroke="#000000" stroke-width="0.9214" stroke-miterlimit="10" points="366.3,308.3 367.7,308.3 
				368.5,309.4 			"/>
			<polyline fill="none" stroke="#000000" stroke-width="0.9214" stroke-miterlimit="10" stroke-dasharray="2.7698,1.8466" points="
				369.6,310.9 418,378.5 433,478 			"/>
		</g>
	</g>
	
		<rect x="274.4" y="286.6" fill="none" stroke="#000000" stroke-miterlimit="10" stroke-dasharray="3,2" width="53.2" height="367.1"/>
</g>
<g id="BOX_NECK">
	<polygon fill="none" stroke="#000000" stroke-miterlimit="10" stroke-dasharray="3,2" points="360.3,270.5 226.4,270.5 
		226.4,260.6 244.7,233.5 344.7,233.5 	"/>
</g>
<g id="CUSTOM">
</g>
</svg>
