<?xml version="1.0" encoding="utf-8"?>
<!-- Generator: Adobe Illustrator 22.1.0, SVG Export Plug-In . SVG Version: 6.00 Build 0)  -->
<svg version="1.1" id="Layer_1" xmlns="http://www.w3.org/2000/svg" xmlns:xlink="http://www.w3.org/1999/xlink" x="0px" y="0px"
	 viewBox="0 0 634 1035.881" enable-background="new 0 0 800.453 1035.881" xml:space="preserve">
  <g id="BODY">
<path fill="#FFFFFF" stroke="#AFB1AF" d="M185.723,76.494c0,0,127.078,22.431,177.53,22.431c50.464,0,117.741-7.483,134.563-7.483
	c16.819,0,59.799-3.738,59.799-3.738s39.256,89.708,41.118,121.477c1.866,31.77,0,201.826,1.866,235.469
	c1.87,33.644,7.472,185.014,9.345,213.048c1.875,28.032,11.44,107.677,5.825,126.37c-5.605,18.697-24.509,71.719-24.509,88.538
	c0,16.823-1.875,54.204-11.22,57.941c-9.338,3.735-21.114,18.306-21.114,23.903c0,5.599-10.01,21.699-10.01,21.699
	s-23.103,8.069-50.076,7.792c-15.414-0.158-45.627-9.452-45.627-9.452l-12.239-26.158c0,0-12.312-14.057-19.784-23.396
	c-7.475-9.339-7.475-37.381-1.875-52.33c5.61-14.945,20.572-48.589,13.087-67.274c-7.477-18.685-13.087-106.528-7.477-121.476
	c5.614-14.947,1.863-72.875-1.862-85.961c-3.748-13.084-14.948-56.073-13.084-61.674c1.863-5.601,0-84.108-5.612-104.656
	c-5.611-20.547-22.42-66.915-22.42-66.915s-18.697,141.676-22.421,177.181c-3.747,35.505-18.697,112.129-33.644,140.162
	c-14.948,28.031-26.169,85.97-24.295,104.653c1.875,18.685,0.617,45.607,0.617,54.956c0,9.347,1.675,72.114-7.671,79.59
	c-9.338,7.471-24.715,26.164-26.579,35.511c-1.873,9.348-26.168,16.823-26.168,16.823l-72.886-3.738l-1.874-28.034
	c0,0-37.368-22.42-37.368-31.768c0-9.347,3.735-44.844,5.609-57.927c1.864-13.086,7.475-26.18,3.728-31.781
	c-3.728-5.598-13.23-40.497-13.23-57.308c0-16.811-9.193-71.641,0.157-97.8c9.345-26.159,24.294-113.993,24.294-134.551
	c0-20.558,3.727-177.553,3.727-199.973c0-22.422,3.737-134.563,11.222-171.931C172.639,121.347,185.723,76.494,185.723,76.494z"/>
    </g>
<radialGradient id="SVGID_1_" cx="204.8574" cy="344.7224" r="214.8653" gradientUnits="userSpaceOnUse">
	<stop  offset="0" style="stop-color:#FFFFFF"/>
	<stop  offset="1" style="stop-color:#000000"/>
</radialGradient>
<path opacity="0.06" fill="url(#SVGID_1_)" d="M156.791,309.063c0,0,38.544,120.163,49.882,141.707
	c11.339,21.544,28.339,61.22,28.339,61.22l-12.47-1.134c0,0-29.472-49.892-43.085-82.76
	C165.865,395.224,156.791,309.063,156.791,309.063z"/>
<radialGradient id="SVGID_2_" cx="159.4741" cy="413.3422" r="215.2797" gradientUnits="userSpaceOnUse">
	<stop  offset="0" style="stop-color:#FFFFFF"/>
	<stop  offset="1" style="stop-color:#000000"/>
</radialGradient>
<path opacity="0.08" fill="url(#SVGID_2_)" d="M212.337,526.726c0,0-14.736-19.278-32.881-36.28
	c-18.124-17.001-27.673-33.22-27.673-33.22l0.594-23.119c0,0,21.426,40.46,29.354,49.532
	C189.662,492.712,212.337,526.726,212.337,526.726z"/>
<linearGradient id="SVGID_3_" gradientUnits="userSpaceOnUse" x1="494.9623" y1="446.5485" x2="610.081" y2="448.7612">
	<stop  offset="0" style="stop-color:#FFFFFF"/>
	<stop  offset="1" style="stop-color:#000000"/>
</linearGradient>
<path opacity="0.1" fill="url(#SVGID_3_)" d="M532.028,143.547c0,0-12.48,259.606-15.866,309.488
	c-3.409,49.883-5.676,177.996-3.409,201.795c2.266,23.797,20.409,103.16,20.409,103.16s-5.673-112.233-5.673-134.908
	c0-22.676,12.469-120.176,12.469-164.383c0-44.209,6.798-90.681,9.071-113.357c2.277-22.676,22.687-61.231,28.34-70.291
	c5.674-9.062,9.074-17.002,9.074-17.002l-29.484,13.604c0,0-7.931-55.557-7.931-73.691c0-18.133-6.806-61.21-6.806-61.21
	L532.028,143.547z"/>
<linearGradient id="SVGID_4_" gradientUnits="userSpaceOnUse" x1="537.1316" y1="515.1869" x2="699.8391" y2="349.1608">
	<stop  offset="0" style="stop-color:#FFFFFF"/>
	<stop  offset="1" style="stop-color:#000000"/>
</linearGradient>
<path opacity="0.06" fill="url(#SVGID_4_)" d="M595.517,382.752c0,0-41.944,73.69-40.824,78.223
	c1.146,4.531,32.884-35.147,37.414-32.88c4.542,2.263-47.608,133.778-47.608,140.573c0,6.796,5.664,11.339,5.664,11.339
	s40.735-90.724,48.753-107.693c2.91-6.172,1.234-55.018,1.234-55.018l-0.232-44.291L595.517,382.752z"/>
<linearGradient id="SVGID_5_" gradientUnits="userSpaceOnUse" x1="551.701" y1="613.785" x2="682.3066" y2="554.0136">
	<stop  offset="0" style="stop-color:#FFFFFF"/>
	<stop  offset="1" style="stop-color:#000000"/>
</linearGradient>
<path opacity="0.06" fill="url(#SVGID_5_)" d="M596.649,559.596c0,0-37.412,66.881-31.749,79.353
	c5.672,12.471,39.677-63.485,39.677-63.485L596.649,559.596z"/>
<linearGradient id="SVGID_6_" gradientUnits="userSpaceOnUse" x1="530.8591" y1="712.6499" x2="735.6555" y2="773.5408">
	<stop  offset="0" style="stop-color:#FFFFFF"/>
	<stop  offset="1" style="stop-color:#000000"/>
</linearGradient>
<path opacity="0.12" fill="url(#SVGID_6_)" d="M609.724,657.455l-1.675-38.311c0,0-19.339,82.158-19.339,91.231
	c0,9.071-12.461,44.207-22.668,53.281c-10.203,9.071-45.35,47.614-48.761,53.282c-3.385,5.661,6.821,14.744,15.882,7.936
	c9.06-6.805,21.53-4.529,40.811-37.408c19.275-32.882,19.266-47.618,28.338-62.353c9.073-14.736,11.961-37.729,11.961-37.729
	L609.724,657.455z"/>
<radialGradient id="SVGID_7_" cx="439.4996" cy="745.4009" r="216.9995" gradientUnits="userSpaceOnUse">
	<stop  offset="0" style="stop-color:#FFFFFF"/>
	<stop  offset="1" style="stop-color:#000000"/>
</radialGradient>
<path opacity="0.1" fill="url(#SVGID_7_)" d="M546.766,881.553c0,0-47.615-35.145-62.35-53.281
	c-14.741-18.134-37.415-43.085-39.677-46.483c-2.267-3.4-19.853-25.459-19.853-25.459s0.912,22.482,5.994,43.583
	c2.732,11.337,7.94,22.697,11.963,28.973c9.653,15.096,30.233,16.4,32.499,22.062c2.266,5.662,21.549,30.605,31.747,32.87
	C517.281,886.086,546.766,881.553,546.766,881.553z"/>
<radialGradient id="SVGID_8_" cx="417.3619" cy="835.0551" r="122.8708" gradientUnits="userSpaceOnUse">
	<stop  offset="0" style="stop-color:#FFFFFF"/>
	<stop  offset="1" style="stop-color:#000000"/>
</radialGradient>
<path opacity="0.1" fill="url(#SVGID_8_)" d="M422.25,866.712c0,0,23.618,26.18,36.089,26.18c12.47,0,19.268-3.398,19.268-3.398
	s-6.798-19.288-17.003-28.349c-10.206-9.063-19.922-16.704-19.922-16.704L422.25,866.712z"/>
<linearGradient id="SVGID_9_" gradientUnits="userSpaceOnUse" x1="372.1429" y1="302.5626" x2="389.4771" y2="302.5626">
	<stop  offset="0" style="stop-color:#FFFFFF"/>
	<stop  offset="1" style="stop-color:#000000"/>
</linearGradient>
<path opacity="0.05" fill="url(#SVGID_9_)" d="M372.19,383.886c0,0,3.398-58.944,3.398-81.619c0-22.675-1.133-91.824-1.133-91.824
	s5.672,90.691,7.939,105.427c2.263,14.736,7.083,78.814,7.083,78.814l-14.514-30.519C371.554,361.887,372.19,383.886,372.19,383.886
	z"/>
<radialGradient id="SVGID_10_" cx="161.6878" cy="706.6584" r="93.4501" gradientUnits="userSpaceOnUse">
	<stop  offset="0" style="stop-color:#FFFFFF"/>
	<stop  offset="1" style="stop-color:#000000"/>
</radialGradient>
<path opacity="0.08" fill="url(#SVGID_10_)" d="M146.586,792.005c0,0,5.664-45.363,1.134-56.688
	c-4.532-11.328-4.532-47.608-4.532-47.608s-12.471,31.737-10.206,41.942C135.248,739.858,146.586,792.005,146.586,792.005z"/>
<radialGradient id="SVGID_11_" cx="188.2595" cy="893.7072" r="174.0797" gradientUnits="userSpaceOnUse">
	<stop  offset="0" style="stop-color:#FFFFFF"/>
	<stop  offset="1" style="stop-color:#000000"/>
</radialGradient>
<path opacity="0.1" fill="url(#SVGID_11_)" d="M151.127,891.768c0,0,36.268,39.678,65.74,40.81
	c29.483,1.134,56.691-19.276,56.691-19.276l-2.277-23.809c0,0,2.497,35.145-45.342,35.145
	C183.996,924.639,151.127,891.768,151.127,891.768z"/>
<radialGradient id="SVGID_12_" cx="221.4563" cy="839.4785" r="164.8342" gradientUnits="userSpaceOnUse">
	<stop  offset="0" style="stop-color:#FFFFFF"/>
	<stop  offset="1" style="stop-color:#000000"/>
</radialGradient>
<path opacity="0.12" fill="url(#SVGID_12_)" d="M286.026,854.358c0,0-24.941-29.471-36.277-22.676
	c-11.339,6.798-2.267,28.33-22.677,31.736c-20.399,3.411-41.942,14.736-41.942,14.736s34.013,20.413,47.617,19.281
	c13.604-1.134,21.532-20.401,29.472-17.003C270.158,883.828,286.026,854.358,286.026,854.358z"/>
<linearGradient id="SVGID_13_" gradientUnits="userSpaceOnUse" x1="270.9019" y1="136.5656" x2="57.3205" y2="119.969">
	<stop  offset="0" style="stop-color:#FFFFFF"/>
	<stop  offset="1" style="stop-color:#000000"/>
</linearGradient>
<path opacity="0.12" fill="url(#SVGID_13_)" d="M171.559,129.499l-9.571,51.726c0,0,32.213-46.738,48.082-50.137
	c15.869-3.398,44.209-27.207,44.209-27.207s-27.207,1.122-45.341-6.806c-18.134-7.93-23.248-20.252-23.248-20.252L171.559,129.499z"
	/>
<linearGradient id="SVGID_14_" gradientUnits="userSpaceOnUse" x1="384.3376" y1="87.2433" x2="592.4184" y2="161.399">
	<stop  offset="0" style="stop-color:#FFFFFF"/>
	<stop  offset="1" style="stop-color:#000000"/>
</linearGradient>
<path opacity="0.04" fill="url(#SVGID_14_)" d="M456.074,135.619c0,0,44.207,6.805,68.015-4.532
	c23.809-11.339,45.172-15.71,45.172-15.71l-10.536-25.385c0,0-8.564,13.878-21.033,18.42c-12.473,4.542-57.812,19.277-68.019,19.277
	c-10.202,0-75.954,5.675-91.824,0c-15.867-5.674-49.88-1.133-49.88-1.133s86.161,9.064,97.486,9.064
	C436.805,135.619,456.074,135.619,456.074,135.619z"/>
<g id="BOX_LEG_RIGHT">
  <rect x="197.339" y="113.972" fill="none" stroke="#010101" stroke-width="1.1065" stroke-miterlimit="10" stroke-dasharray="3.3196,2.2131" width="147.185" height="146.129"/>
  </g>
  <g id="BOX_LEG_LEFT">
<rect x="406.137" y="113.972" fill="none" stroke="#010101" stroke-width="1.1065" stroke-miterlimit="10" stroke-dasharray="3.3196,2.2131" width="147.185" height="146.129"/>
    </g>
<g id="CUSTOM"></g>
</svg>
