<?xml version="1.0" encoding="utf-8"?>
<!-- Generator: Adobe Illustrator 22.1.0, SVG Export Plug-In . SVG Version: 6.00 Build 0)  -->
<svg version="1.1" id="Layer_1" xmlns="http://www.w3.org/2000/svg" xmlns:xlink="http://www.w3.org/1999/xlink" x="0px" y="0px"
	 viewBox="0 0 634 1035.881" enable-background="new 0 0 800.453 1035.881" xml:space="preserve">
  <g id="BODY">
<path fill="#FFFFFF" stroke="#AFB1AF" d="M552.97,76.494c0,0-127.741,22.548-178.456,22.548c-50.727,0-118.355-7.522-135.264-7.522
	c-16.907,0-60.111-3.758-60.111-3.758s-39.46,90.175-41.332,122.11c-1.876,31.935,0,202.878-1.876,236.697
	c-1.88,33.818-7.511,185.977-9.394,214.158c-1.885,28.18-11.5,108.238-5.856,127.029c5.635,18.794,24.636,72.093,24.636,89.001
	c0,16.911,1.885,54.486,11.279,58.242c9.387,3.755,21.223,18.401,21.223,24.028c0,5.63,10.063,21.813,10.063,21.813
	s23.223,8.112,50.335,7.832c15.496-0.158,45.866-9.501,45.866-9.501l12.302-26.294c0,0,12.375-14.131,19.887-23.518
	c7.514-9.388,7.514-37.577,1.885-52.602c-5.64-15.023-20.679-48.843-13.155-67.625c7.514-18.784,13.155-107.084,7.514-122.11
	c-5.641-15.025-1.873-73.255,1.871-86.409c3.769-13.152,15.026-56.365,13.153-61.994c-1.874-5.63,0-84.547,5.64-105.202
	c5.641-20.654,22.538-67.264,22.538-67.264s18.794,142.415,22.539,178.104c3.765,35.692,18.793,112.715,33.818,140.894
	c15.027,28.177,26.305,86.418,24.421,105.198c-1.883,18.784-0.62,45.845-0.62,55.243c0,9.396-1.684,72.49,7.711,80.004
	c9.387,7.512,24.843,26.301,26.717,35.698c1.883,9.397,26.306,16.91,26.306,16.91l73.265-3.757l1.883-28.181
	c0,0,37.565-22.536,37.565-31.932c0-9.396-3.757-45.079-5.64-58.229c-1.873-13.155-7.514-26.316-3.747-31.947
	c3.747-5.628,13.3-40.707,13.3-57.607c0-16.898,9.239-72.014-0.158-98.31c-9.395-26.295-24.422-114.586-24.422-135.252
	c0-20.666-3.744-178.479-3.744-201.016c0-22.539-3.758-135.264-11.283-172.828C566.123,121.581,552.97,76.494,552.97,76.494z"/>
    </g>
<radialGradient id="SVGID_1_" cx="453.2573" cy="346.1205" r="215.9848" gradientTransform="matrix(-1 0 0 1 986.9921 0)" gradientUnits="userSpaceOnUse">
	<stop  offset="0" style="stop-color:#FFFFFF"/>
	<stop  offset="1" style="stop-color:#000000"/>
</radialGradient>
<path opacity="0.06" fill="url(#SVGID_1_)" d="M582.052,310.275c0,0-38.745,120.789-50.142,142.446
	c-11.397,21.656-28.487,61.538-28.487,61.538l12.535-1.14c0,0,29.626-50.151,43.311-83.192
	C572.931,396.885,582.052,310.275,582.052,310.275z"/>
<radialGradient id="SVGID_2_" cx="407.6371" cy="415.0982" r="216.4011" gradientTransform="matrix(-1 0 0 1 986.9921 0)" gradientUnits="userSpaceOnUse">
	<stop  offset="0" style="stop-color:#FFFFFF"/>
	<stop  offset="1" style="stop-color:#000000"/>
</radialGradient>
<path opacity="0.08" fill="url(#SVGID_2_)" d="M526.218,529.073c0,0,14.81-19.379,33.052-36.47
	c18.218-17.089,27.817-33.393,27.817-33.393l-0.597-23.239c0,0-21.537,40.671-29.509,49.79
	C549.011,494.882,526.218,529.073,526.218,529.073z"/>
<linearGradient id="SVGID_3_" gradientUnits="userSpaceOnUse" x1="744.874" y1="448.4781" x2="860.5924" y2="450.7024" gradientTransform="matrix(-1 0 0 1 986.9921 0)">
	<stop  offset="0" style="stop-color:#FFFFFF"/>
	<stop  offset="1" style="stop-color:#000000"/>
</linearGradient>
<path opacity="0.1" fill="url(#SVGID_3_)" d="M204.858,143.896c0,0,12.546,260.96,15.95,311.101
	c3.427,50.143,5.704,178.925,3.427,202.847c-2.278,23.92-20.516,103.699-20.516,103.699s5.703-112.82,5.703-135.612
	c0-22.795-12.534-120.803-12.534-165.241c0-44.439-6.834-91.153-9.119-113.948c-2.288-22.795-22.804-61.55-28.487-70.658
	c-5.703-9.108-9.121-17.091-9.121-17.091l29.637,13.675c0,0,7.971-55.847,7.971-74.075c0-18.228,6.842-61.529,6.842-61.529
	L204.858,143.896z"/>
<linearGradient id="SVGID_4_" gradientUnits="userSpaceOnUse" x1="787.2639" y1="517.4729" x2="950.8193" y2="350.5816" gradientTransform="matrix(-1 0 0 1 986.9921 0)">
	<stop  offset="0" style="stop-color:#FFFFFF"/>
	<stop  offset="1" style="stop-color:#000000"/>
</linearGradient>
<path opacity="0.06" fill="url(#SVGID_4_)" d="M141.04,384.349c0,0,42.162,74.074,41.036,78.63
	c-1.152,4.554-33.055-35.331-37.61-33.052c-4.566,2.275,47.857,134.475,47.857,141.306c0,6.831-5.694,11.397-5.694,11.397
	s-40.948-91.196-49.006-108.254c-2.926-6.205-1.242-55.305-1.242-55.305l0.234-44.523L141.04,384.349z"/>
<linearGradient id="SVGID_5_" gradientUnits="userSpaceOnUse" x1="801.9091" y1="616.5859" x2="933.1949" y2="556.5032" gradientTransform="matrix(-1 0 0 1 986.9921 0)">
	<stop  offset="0" style="stop-color:#FFFFFF"/>
	<stop  offset="1" style="stop-color:#000000"/>
</linearGradient>
<path opacity="0.06" fill="url(#SVGID_5_)" d="M139.901,562.115c0,0,37.607,67.229,31.915,79.766
	c-5.703,12.537-39.884-63.816-39.884-63.816L139.901,562.115z"/>
<linearGradient id="SVGID_6_" gradientUnits="userSpaceOnUse" x1="780.9592" y1="715.9658" x2="986.8195" y2="777.1732" gradientTransform="matrix(-1 0 0 1 986.9921 0)">
	<stop  offset="0" style="stop-color:#FFFFFF"/>
	<stop  offset="1" style="stop-color:#000000"/>
</linearGradient>
<path opacity="0.12" fill="url(#SVGID_6_)" d="M126.758,660.483l1.684-38.511c0,0,19.44,82.588,19.44,91.707
	c0,9.118,12.526,44.438,22.786,53.558c10.256,9.118,45.586,47.863,49.014,53.56c3.404,5.69-6.856,14.82-15.963,7.977
	c-9.108-6.841-21.643-4.553-41.023-37.604c-19.377-33.053-19.368-47.866-28.485-62.678c-9.12-14.813-12.025-37.926-12.025-37.926
	L126.758,660.483z"/>
<radialGradient id="SVGID_7_" cx="689.1229" cy="748.8867" r="218.1312" gradientTransform="matrix(-1 0 0 1 986.9921 0)" gradientUnits="userSpaceOnUse">
	<stop  offset="0" style="stop-color:#FFFFFF"/>
	<stop  offset="1" style="stop-color:#000000"/>
</radialGradient>
<path opacity="0.1" fill="url(#SVGID_7_)" d="M190.044,885.751c0,0,47.864-35.328,62.676-53.558
	c14.816-18.231,37.61-43.311,39.884-46.727c2.278-3.416,19.956-25.592,19.956-25.592s-0.916,22.601-6.025,43.811
	c-2.745,11.396-7.981,22.816-12.025,29.125c-9.703,15.174-30.391,16.486-32.669,22.177c-2.276,5.692-21.662,30.765-31.912,33.041
	C219.682,890.305,190.044,885.751,190.044,885.751z"/>
<radialGradient id="SVGID_8_" cx="666.8684" cy="839.0084" r="123.5127" gradientTransform="matrix(-1 0 0 1 986.9921 0)" gradientUnits="userSpaceOnUse">
	<stop  offset="0" style="stop-color:#FFFFFF"/>
	<stop  offset="1" style="stop-color:#000000"/>
</radialGradient>
<path opacity="0.1" fill="url(#SVGID_8_)" d="M315.21,870.83c0,0-23.741,26.318-36.278,26.318c-12.536,0-19.368-3.416-19.368-3.416
	s6.833-19.39,17.09-28.498c10.259-9.11,20.027-16.792,20.027-16.792L315.21,870.83z"/>
<linearGradient id="SVGID_9_" gradientUnits="userSpaceOnUse" x1="621.4146" y1="303.7408" x2="638.8383" y2="303.7408" gradientTransform="matrix(-1 0 0 1 986.9921 0)">
	<stop  offset="0" style="stop-color:#FFFFFF"/>
	<stop  offset="1" style="stop-color:#000000"/>
</linearGradient>
<path opacity="0.05" fill="url(#SVGID_9_)" d="M365.53,385.488c0,0-3.415-59.251-3.415-82.045c0-22.794,1.138-92.303,1.138-92.303
	s-5.701,91.164-7.979,105.977c-2.277,14.813-7.12,79.224-7.12,79.224l14.588-30.678C366.169,363.375,365.53,385.488,365.53,385.488z
	"/>
<radialGradient id="SVGID_10_" cx="409.8625" cy="709.944" r="93.936" gradientTransform="matrix(-1 0 0 1 986.9921 0)" gradientUnits="userSpaceOnUse">
	<stop  offset="0" style="stop-color:#FFFFFF"/>
	<stop  offset="1" style="stop-color:#000000"/>
</radialGradient>
<path opacity="0.08" fill="url(#SVGID_10_)" d="M592.31,795.735c0,0-5.693-45.599-1.14-56.984
	c4.556-11.387,4.556-47.855,4.556-47.855s12.536,31.902,10.259,42.161C603.708,743.315,592.31,795.735,592.31,795.735z"/>
<radialGradient id="SVGID_11_" cx="436.5721" cy="897.9677" r="174.9873" gradientTransform="matrix(-1 0 0 1 986.9921 0)" gradientUnits="userSpaceOnUse">
	<stop  offset="0" style="stop-color:#FFFFFF"/>
	<stop  offset="1" style="stop-color:#000000"/>
</radialGradient>
<path opacity="0.1" fill="url(#SVGID_11_)" d="M587.746,896.018c0,0-36.458,39.884-66.085,41.023
	c-29.637,1.14-56.985-19.377-56.985-19.377l2.288-23.932c0,0-2.511,35.328,45.578,35.328
	C554.704,929.061,587.746,896.018,587.746,896.018z"/>
<radialGradient id="SVGID_12_" cx="469.9426" cy="843.4553" r="165.6936" gradientTransform="matrix(-1 0 0 1 986.9921 0)" gradientUnits="userSpaceOnUse">
	<stop  offset="0" style="stop-color:#FFFFFF"/>
	<stop  offset="1" style="stop-color:#000000"/>
</radialGradient>
<path opacity="0.12" fill="url(#SVGID_12_)" d="M452.143,858.412c0,0,25.071-29.623,36.467-22.795
	c11.396,6.833,2.278,28.478,22.795,31.902c20.505,3.43,42.161,14.814,42.161,14.814s-34.191,20.518-47.864,19.38
	c-13.676-1.139-21.645-20.507-29.627-17.092C468.093,888.037,452.143,858.412,452.143,858.412z"/>
<linearGradient id="SVGID_13_" gradientUnits="userSpaceOnUse" x1="519.646" y1="136.8789" x2="304.9506" y2="120.1957" gradientTransform="matrix(-1 0 0 1 986.9921 0)">
	<stop  offset="0" style="stop-color:#FFFFFF"/>
	<stop  offset="1" style="stop-color:#000000"/>
</linearGradient>
<path opacity="0.12" fill="url(#SVGID_13_)" d="M567.206,129.776l9.622,51.995c0,0-32.381-46.983-48.332-50.399
	c-15.952-3.416-44.44-27.349-44.44-27.349s27.349,1.128,45.577-6.842c18.228-7.971,23.37-20.357,23.37-20.357L567.206,129.776z"/>
<linearGradient id="SVGID_14_" gradientUnits="userSpaceOnUse" x1="633.673" y1="87.2994" x2="842.8382" y2="161.8415" gradientTransform="matrix(-1 0 0 1 986.9921 0)">
	<stop  offset="0" style="stop-color:#FFFFFF"/>
	<stop  offset="1" style="stop-color:#000000"/>
</linearGradient>
<path opacity="0.04" fill="url(#SVGID_14_)" d="M281.209,135.927c0,0-44.439,6.84-68.369-4.556
	c-23.933-11.398-45.408-15.792-45.408-15.792l10.59-25.518c0,0,8.608,13.95,21.142,18.517c12.537,4.565,58.113,19.377,68.373,19.377
	c10.256,0,76.351,5.704,92.303,0c15.951-5.704,50.141-1.139,50.141-1.139s-86.609,9.111-97.995,9.111
	C300.579,135.927,281.209,135.927,281.209,135.927z"/>
<g id="BOX_LEG_RIGHT">
  <rect x="399.985" y="109.618" fill="none" stroke="#010101" stroke-width="1.1065" stroke-miterlimit="10" stroke-dasharray="3.3196,2.2131" width="148.131" height="147.067"/>
  </g>
 <g id="BOX_LEG_LEFT">
  <rect x="189.846" y="109.618" fill="none" stroke="#010101" stroke-width="1.1065" stroke-miterlimit="10" stroke-dasharray="3.3196,2.2131" width="148.131" height="147.067"/>
</g>
  <g id="CUSTOM"></g>
   </svg>
