<?xml version="1.0" encoding="utf-8"?>
<!-- Generator: Adobe Illustrator 16.0.0, SVG Export Plug-In . SVG Version: 6.00 Build 0)  -->
<!DOCTYPE svg PUBLIC "-//W3C//DTD SVG 1.1//EN" "http://www.w3.org/Graphics/SVG/1.1/DTD/svg11.dtd">
<svg version="1.1" id="Layer_1" xmlns="http://www.w3.org/2000/svg" xmlns:xlink="http://www.w3.org/1999/xlink" x="0px" y="0px"
	 width="800.453px" height="1035.881px" viewBox="0 0 620 1035.881" enable-background="new 0 0 800.453 1035.881"
	 xml:space="preserve">
    
<path fill="#897F76" stroke="#D2D3D2" stroke-width="0.75" d="M297.518,194.117c0,0-6.536,7.8-9.486,9.066
	c-2.953,1.265-8.223,2.319-10.33,2.53c-2.108,0.211-8.437,4.427-10.333,6.114c-1.896,1.686-8.01,5.69-10.75,6.536
	c-2.74,0.843-7.167,3.163-7.799,3.794s-10.964,3.162-12.44,3.162c-1.475,0-21.924,13.071-28.459,15.39
	c-6.537,2.318-45.538,18.764-59.663,28.04s-37.106,28.881-39.635,37.735c-2.531,8.854,0.071,12.6-1.827,16.605
	c-1.897,4.005-20.52,42.425-26.213,55.285c-5.693,12.86-33.31,81.165-36.262,90.863c-2.95,9.698-8.641,25.511-9.064,28.038
	c-0.422,2.531-2.53,8.013-2.53,8.013s-1.475,1.262-2.108,2.109c-0.633,0.841-0.843,3.37-1.266,4.426
	c-0.423,1.055-6.955,12.857-6.325,13.701c0.632,0.846,16.868,7.377,24.246,10.33c7.378,2.953,37.526,18.131,44.905,19.398
	c7.379,1.264,29.726,8.009,37.737,9.905c8.011,1.899,28.039,5.063,30.78,5.063c2.741,0,9.064-1.055,9.064-1.055
	s4.851-13.281,5.061-14.968c0.203-1.63,2.199-13.489,2.532-19.991c0.016-0.299,0.023-0.455,0.03-0.756
	c0.211-6.329-0.034-22.049-0.034-23.104c0-1.054,0.424-5.271,1.477-7.169c1.054-1.897,4.005-4.005,4.849-3.792
	c0.842,0.208,1.475,3.583,1.475,5.267c0,1.687-1.685,57.554-2.319,67.886c-0.632,10.333-1.896,36.472-3.372,49.332
	c-1.477,12.86-6.328,46.381-6.749,52.069c-0.421,5.693,0,61.142,0,61.142s-4.427,9.906-4.638,11.592
	c-0.209,1.685-1.896,38.791-3.162,52.916c-1.265,14.128-2.951,34.785-4.004,37.313c-1.056,2.533-1.688,7.593-1.688,8.435
	c0,0.845-0.841,12.226-0.419,13.071c0.419,0.843,11.594,7.802,19.815,9.488c8.222,1.685,27.836,5.27,93.399,5.27
	c65.565,0,240.549,0.208,251.3-0.635c10.754-0.84,48.495-6.321,53.765-8.64c5.271-2.319,7.799-3.585,7.799-4.641
	c0-1.053-0.209-16.865-0.632-18.129c-0.324-0.979-1.146-11.99-2.444-21.709c-0.381-2.858-0.792-6.047-0.889-8.444
	c-0.42-10.539-4.046-61.344-4.676-64.083c-0.634-2.741-4.428-11.597-4.428-11.597s-1.058-41.744-2.32-63.246
	c-1.262-21.503-5.902-52.912-6.325-59.66c-0.423-6.744-3.369-40.055-1.685-52.283c1.687-12.226,5.058-28.462,5.058-28.462
	s2.11,4.641,2.741,5.907c0.635,1.262,1.269,5.268,1.055,6.955c-0.209,1.686-0.42,16.02-0.42,16.02s4.639,2.324,5.271,1.899
	c0.631-0.418,3.161-2.74,5.479-1.899c2.322,0.845,12.229,3.796,18.974,3.167c6.747-0.636,38.794-6.119,56.924-13.496
	c18.132-7.377,32.468-12.015,35.84-13.279c3.374-1.267,17.081-7.17,19.609-8.223c2.524-1.055,8.012-3.796,8.22-4.85
	c0.211-1.054-1.899-4.005-2.953-5.693c-1.052-1.685-2.319-3.16-2.742-5.691c-0.418-2.53-0.63-6.746-0.63-6.746l-2.318-2.106
	c0,0-3.58-17.078-5.478-21.293c-1.898-4.216-7.8-17.707-8.855-22.559c-1.054-4.85-5.692-23.611-7.59-28.882
	c-1.899-5.271-13.704-36.684-20.872-54.602c-7.167-17.918-19.608-43.427-20.03-44.903c-0.424-1.476-4.852-14.759-5.483-16.235
	c-0.632-1.475-9.697-16.021-11.172-17.919c-1.477-1.897-6.326-10.119-10.332-13.492c-4.005-3.372-26.985-18.13-41.112-26.141
	c-14.126-8.012-35.838-20.239-37.104-21.294c-1.264-1.054-6.536-2.951-7.167-2.951c-0.632,0-10.75-1.476-10.75-1.476
	s-3.165-2.952-4.85-4.215c-1.686-1.266-7.589-2.742-8.433-3.374c-0.844-0.633-3.374-1.897-3.374-1.897s-8.437-1.687-11.178-1.687
	c-2.739,0-5.692-1.265-6.113-2.108c-0.421-0.844-3.374-1.476-3.797-2.108c-0.419-0.633-7.587-8.435-9.063-9.277
	c-1.475-0.842-6.112-0.209-7.59-0.421c-1.478-0.211-4.217-2.531-5.902-2.531c-1.689,0-3.374,0.211-4.427-0.842
	c-1.054-1.055-5.061-4.638-6.327-5.06c-1.263-0.423-49.543,0.42-74.419,0.21c-24.875-0.21-59.452-2.108-67.462-3.794
	C304.69,193.064,297.518,194.117,297.518,194.117z"/>
  <g id="mask_TD">
      <g id="BODY">
<rect x="240.364" y="333.893" fill="none" stroke="#FFFFFF" stroke-width="0.75" width="277.441" height="360.464"/>
<rect x="231.957" y="323.489" fill="none" stroke="#FFFFFF" stroke-width="0.75" width="126.109" height="132.415"/>
<rect x="400.102" y="323.489" fill="none" stroke="#FFFFFF" stroke-width="0.75" width="126.111" height="132.415"/>
           </g>
      </g>
      <g id="CUSTOM"></g>
        <g>
	<radialGradient id="SVGID_1_" cx="506.5889" cy="414.9058" r="295.4323" gradientUnits="userSpaceOnUse">
		<stop  offset="0" style="stop-color:#FFFFFF"/>
		<stop  offset="1" style="stop-color:#006052"/>
	</radialGradient>
	<path opacity="0.2" fill="url(#SVGID_1_)" d="M576.234,746.886c0,0-20.52-51.589-28.278-77.284
		c-7.757-25.697-26.182-115.88-26.182-120.244c0-4.364-12.121-73.211-13.575-77.576c-1.454-4.363-3.395-14.061-3.395-14.061
		s11.637-2.424,14.062-5.333c2.423-2.908,4.849-4.849,6.788-9.697c1.938-4.848,6.302-13.576,6.302-13.576s5.333,25.697,1.939,44.121
		c-3.395,18.425-8.241,48.485-9.212,58.183c-0.969,9.697,3.396,38.302,6.303,57.696c2.909,19.393,15.146,64.927,19.878,78.063
		c12.419,34.442,14.147,47.626,15.115,51.507C566.951,722.562,576.234,746.886,576.234,746.886z"/>
	<radialGradient id="SVGID_2_" cx="207.1309" cy="544.0156" r="128.7373" gradientUnits="userSpaceOnUse">
		<stop  offset="0" style="stop-color:#FFFFFF"/>
		<stop  offset="1" style="stop-color:#AFA9A3"/>
	</radialGradient>
	<path opacity="0.3" fill="url(#SVGID_2_)" d="M214.866,548.389c0,0-1.94,67.879-11.15,96.485
		c-9.212,28.604-36.124,109.721-36.124,109.721l0.479-7.922c0,0,1.478-4.762,4.638-11.592c9.269-20.027,17.52-60.759,18.884-64.514
		c1.94-5.329,11.039-34.79,11.638-37.331C212.926,592.025,214.866,548.389,214.866,548.389z"/>
	<radialGradient id="SVGID_3_" cx="219.6826" cy="500.0811" r="81.3684" gradientUnits="userSpaceOnUse">
		<stop  offset="0" style="stop-color:#FFFFFF"/>
		<stop  offset="1" style="stop-color:#AFA9A3"/>
	</radialGradient>
	<path opacity="0.3" fill="url(#SVGID_3_)" d="M188.708,519.221c0,0,13.18-8.896,14.169-11.863
		c0.989-2.967,3.624-19.777,4.284-27.685c0.661-7.91,8.899-27.023,7.252-35.591c-1.648-8.569-5.275-14.174-7.252-25.709
		c-1.977-11.534-5.273-15.159-5.273-15.159s-1.977,17.797-0.659,24.389c1.319,6.591,3.623,10.215,4.943,17.467
		c1.321,7.25,0.33,16.808-0.659,25.704c-0.987,8.899-4.284,35.265-5.272,37.901C199.253,511.313,188.708,519.221,188.708,519.221z"
		/>
	<path opacity="0.1" fill="#AFA9A3" d="M131.033,396.954c0,0,4.282,23.068,10.216,31.637c5.934,8.57,15.161,15.161,16.809,16.479
		c1.647,1.319,4.943,3.955,4.943,3.955s11.207,26.695,13.514,33.616c2.306,6.919,3.746,18.741,3.746,18.741s2.731-2.315,3.413-1.997
		c0.681,0.313,0.974,1.667,0.974,1.667s-6.154-24.015-8.133-27.312c-1.98-3.295-10.218-25.045-11.206-28.34
		c-0.989-3.296-2.308-7.911-4.285-14.832c-1.977-6.919-10.875-33.614-10.875-33.614s11.204,42.514,11.204,44.82
		c0,2.308-10.215-5.933-12.193-8.57c-1.977-2.636-8.24-13.182-8.24-15.489C140.92,415.408,131.033,396.954,131.033,396.954z"/>
	<path opacity="0.1" fill="#AFA9A3" d="M175.348,551.149c0,0-8.234,3.56-19.926,1.688c-6.582-1.055-19.116-2.637-19.116-2.637
		s9.23,5.272,16.809,5.934c7.58,0.658,2.308,6.262,0,7.25c-2.307,0.99-7.261,4.763-7.261,4.763c0-0.005,10.688,1.866,14.841,2.072
		c3.028,0.149,8.098-0.932,9.064-1.055c0,0,1.48-3.804,1.81-5.121c0.331-1.319,2.263-6.413,3.021-8.571
		C174.706,555.141,175.348,551.149,175.348,551.149z"/>
	<path opacity="0.1" fill="#AFA9A3" d="M30.188,509.995c0,0,17.137,9.557,26.034,12.851c8.898,3.295,34.276,12.853,40.208,14.83
		c5.932,1.978,21.423,6.593,24.718,7.251c3.294,0.66-38.229-7.248-59.981-16.808c-21.751-9.556-30.319-13.181-30.649-14.17
		C30.188,512.96,30.188,509.995,30.188,509.995z"/>
	<path opacity="0.1" fill="#AFA9A3" d="M143.556,483.3c0,0,8.899,30.319,10.876,38.228c1.978,7.91,6.262,24.059,6.262,24.059
		s-1.647,2.307-2.636,3.294c-0.989,0.99,5.602,3.625,6.592,1.978c0.988-1.646,0-10.876-0.99-12.853
		C162.671,536.03,143.556,483.3,143.556,483.3z"/>
	<path opacity="0.1" fill="#AFA9A3" d="M172.887,540.313c0,0-1.977-15.49-4.284-21.093c-2.307-5.602-9.887-23.069-11.863-29.661
		c-1.977-6.59-10.215-27.682-7.909-26.365c2.306,1.318,16.147,30.322,20.101,36.583c3.955,6.262,7.521,12.517,8.51,17.459
		l-0.061,16.606l-0.333,4.303C176.06,539.463,172.887,540.313,172.887,540.313z"/>
	<path opacity="0.1" fill="#AFA9A3" d="M131.692,294.129c0,0,0.989,14.832,2.307,19.444c1.32,4.614,5.603,20.432,5.603,26.035
		c0,5.604,1.319,21.092,1.319,21.092s-3.296-24.717-5.273-30.65c-1.977-5.932-6.92-23.07-7.25-26.036
		c-0.33-2.964-0.66-10.216,0.659-11.865C130.375,290.503,131.692,294.129,131.692,294.129z"/>
	<radialGradient id="SVGID_4_" cx="86.0928" cy="191.6563" r="275.3397" gradientUnits="userSpaceOnUse">
		<stop  offset="0" style="stop-color:#FFFFFF"/>
		<stop  offset="1" style="stop-color:#AFA9A3"/>
	</radialGradient>
	<path opacity="0.2" fill="url(#SVGID_4_)" d="M146.853,512.958c-0.208-0.729-0.653-1.035-1.157-1.153
		c-7.947-32.405-35.384-144.692-37.074-157.366c-1.978-14.83,1.648-26.364,2.307-24.716c0.66,1.647,20.104,28.013,24.059,34.274
		c3.954,6.262,6.92,20.434,6.92,20.434s-0.988-14.502-1.647-17.138c-0.66-2.637-11.863-18.456-17.137-24.718
		c-5.271-6.261-16.33-19.549-16.33-19.549l-10.371,21.916c0,0-8.232,41.136-14.496,86.286c-6.263,45.15-2.965,90.3-2.965,90.3
		l4.945-56.354c0,0,0.659,3.624,2.307,11.534c1.646,7.908,8.897,28.674,8.897,28.674s-6.92-40.868-7.91-62.288
		c-0.987-21.422,4.285-51.414,6.92-68.549c2.637-17.138,10.217-36.583,10.217-36.583s0.987,15.489,1.977,34.275
		c0.831,15.812,29.682,110.069,38.796,139.514c-0.943,0.043-1.884,0.548-1.884,0.548s0.329,7.581,1.649,10.218
		c1.317,2.635,2.635,11.205-0.331,11.533c-2.965,0.331-23.729-20.433-23.729-20.433s27.025,30.978,30.321,29.99
		C154.433,542.621,147.512,515.265,146.853,512.958z"/>
	<radialGradient id="SVGID_5_" cx="272.2168" cy="225.1987" r="30.8909" gradientUnits="userSpaceOnUse">
		<stop  offset="0" style="stop-color:#FFFFFF"/>
		<stop  offset="1" style="stop-color:#AFA9A3"/>
	</radialGradient>
	<path opacity="0.3" fill="url(#SVGID_5_)" d="M249.969,223.223c0,0,13.022-0.303,17.867,3.331s18.471,16.957,21.197,19.685
		c2.725,2.725,13.932,9.993,13.932,9.993s-20.898-22.713-25.439-26.953c-4.542-4.24-14.838-9.083-17.866-9.388
		c-3.029-0.302,5.754-2.726,7.57-3.937c1.817-1.21,6.965,6.36,6.965,6.36l1.816-6.36c0,0,3.636-4.542,6.361-4.845
		c2.725-0.304,7.268-4.542,9.084-5.754c1.817-1.211,6.068-11.189,6.068-11.189s-4.56,5.096-5.901,6.276
		c-0.489,0.433-2.751,2.452-3.647,2.79c-4.401,1.663-10.274,2.48-10.274,2.48s-3.202,0.854-4.718,2.066
		c-1.515,1.21-12.738,9.351-15.207,10.101c-3.039,0.924-7.992,3.541-9.119,4.346c-1.103,0.787-7.19,2.146-7.19,2.146
		L249.969,223.223z"/>
	<path fill="none" d="M265.11,232.61c0,0,13.628,6.663,17.565,11.507c3.935,4.846,11.811,13.022,14.536,14.537
		c2.725,1.514,9.689,2.119,9.689,2.119s-19.077-3.936-27.861-14.233C270.258,236.245,265.11,232.61,265.11,232.61z"/>
	<radialGradient id="SVGID_6_" cx="376.8066" cy="160.6738" r="135.8527" gradientUnits="userSpaceOnUse">
		<stop  offset="0" style="stop-color:#FFFFFF"/>
		<stop  offset="1" style="stop-color:#AFA9A3"/>
	</radialGradient>
	<path opacity="0.5" fill="url(#SVGID_6_)" d="M304.916,217.328c0,0-3.65-0.435,6.527,8.318
		c15.6,13.415,46.636,32.705,51.783,33.613c5.149,0.909,23.923,0.604,33.313-2.726c9.389-3.331,45.622-23.484,49.257-30.146
		c3.636-6.661,3.961-8.841,3.961-8.841s-5.763,0.834-8.08,1.224c-10.927,1.836-20.802,2.422-66.509,0.747
		C341.271,218.276,304.916,217.328,304.916,217.328z"/>
	<path opacity="0.1" fill="#AFA9A3" d="M480.727,211.715c0,0-0.604,36.338-36.34,57.538c-35.735,21.199-75.01,20.041-94.181,13.021
		c-21.5-7.872-43.305-21.501-43.305-21.501s21.479,17.656,42.698,24.228c34.222,10.598,69.765,3.594,95.997-13.324
		C487.387,244.724,480.727,211.715,480.727,211.715z"/>
	<path opacity="0.1" fill="#AFA9A3" d="M650.308,336.479c0,0,0.308,21.198-0.904,24.834c-1.215,3.632-27.259,43.909-27.259,43.909
		s23.321-23.62,27.259-37.548C653.337,353.741,650.308,336.479,650.308,336.479z"/>
	<path opacity="0.1" fill="#AFA9A3" d="M659.999,360.707c0,0,3.938,32.1,3.635,39.064c-0.304,6.966-1.817,19.08-3.635,21.501
		c-1.814,2.423,0.305,3.938,0.305,3.938l3.936,4.844c0,0,3.028-23.923,2.422-29.07c-0.604-5.149-1.208-30.889-3.027-33.311
		c-1.817-2.425-3.33-7.875-3.33-7.875L659.999,360.707z"/>
	<path opacity="0.1" fill="#AFA9A3" d="M573.693,492.134c0,0,13.629-9.386,15.143-16.352c1.513-6.967,3.027-21.803,3.027-21.803
		s2.121-1.516,2.121,0.907c0,2.422-1.463,20.45-3.331,23.925C586.41,486.685,573.693,492.134,573.693,492.134z"/>
	<path opacity="0.1" fill="#AFA9A3" d="M692.707,449.133c0,0-2.423,9.389-3.332,12.718c-0.91,3.333-2.424,10.298-2.424,12.416
		c0,2.121,1.214,5.451,1.214,5.451s0.603-13.323,3.026-17.261C693.615,458.521,692.707,449.133,692.707,449.133z"/>
	<path opacity="0.1" fill="#AFA9A3" d="M586.828,478.121c0,0-7.571-5.147-9.389-4.24c-1.818,0.908-3.633,7.572-3.633,8.48
		c0,0.907-1.515,7.268-1.515,7.268s3.329-11.506,6.357-10.902C581.678,479.331,586.828,478.121,586.828,478.121z"/>
	<path opacity="0.1" fill="#AFA9A3" d="M713.603,507.882c-0.305-2.422-2.425-1.816-2.425-1.816s-1.21,2.723-1.816,3.632
		c-0.607,0.91-25.134,11.508-47.847,19.384c-22.71,7.871-34.825,12.718-47.546,14.229c-12.719,1.516-36.038,2.122-36.038,2.122
		c-0.907-1.213,0.304-3.633,0.304-3.633s-2.119-14.84-5.753-19.988c-3.635-5.147-3.969-8.863-3.969-8.863l-2.428,16.746
		c0,0,0.244,1.223,1.215,2.313c0.302,0.339,1.045,3.719,2.201,6.138c0.335,0.697,0.621,2.586,0.621,2.586l-0.669-11.953
		c0,0,0.605-1.819,2.726,0.908c2.117,2.726,5.752,24.828,5.752,24.828s0.305-2.651,0.386-5.113c0.891,0.079,3.188,0.269,4.16,0.269
		c1.211,0,23.925-2.119,30.282-3.329c6.36-1.214,19.077-4.24,23.316-4.847c4.238-0.607,22.412-7.571,26.649-9.389
		c4.239-1.815,47.546-17.868,49.666-17.868C714.51,514.24,713.905,510.306,713.603,507.882z"/>
	<path opacity="0.2" fill="#AFA9A2" d="M159.099,848.398c0,0,21.819,10.327,31.646,12.36c9.828,2.036,30.496,5.085,30.496,5.085
		s-35.917,2.713-48.454-3.389s-14.027-8.508-14.027-8.508L159.099,848.398z"/>
	<path opacity="0.35" fill="#AFA9A2" d="M169.399,852.966c0,0,18.973,8.475,85.725,9.489c66.752,1.015,204.317,1.695,236.847,0
		c32.527-1.696,70.815-5.422,70.815-5.422s-83.353,10.161-211.433,8.133C223.274,863.134,169.399,852.966,169.399,852.966z"/>
	<path opacity="0.1" fill="#AFA9A3" d="M615.095,467.355c0,0,14.638-1.247,17.44-0.934c2.805,0.312,16.199,2.491,18.377,1.246
		c2.183-1.246,9.035-6.851,9.345-9.967c0.311-3.114,0.311-10.902,0.311-10.902s1.559,5.606,3.738,4.672
		c2.181-0.935,4.675-3.738,4.675-3.738s-1.871,7.476-2.494,9.033c-0.623,1.556-4.98,7.475-4.36,9.032
		c0.623,1.558,7.475,8.409,7.475,8.409s-6.229-2.803-10.276-2.803c-4.049,0-9.345,9.034-9.345,9.034l-1.87-5.918l-9.033,3.425
		c0,0-0.93-7.787-7.162-8.409C625.683,468.912,615.095,467.355,615.095,467.355z"/>
	<radialGradient id="SVGID_7_" cx="626.7295" cy="515.3232" r="83.6902" gradientUnits="userSpaceOnUse">
		<stop  offset="0" style="stop-color:#FFFFFF"/>
		<stop  offset="1" style="stop-color:#AFA9A3"/>
	</radialGradient>
	<path opacity="0.3" fill="url(#SVGID_7_)" d="M690.587,485.167c0.907-2.42,2.12-4.844,2.12-4.844s-4.244,2.726-4.542,4.541
		c-0.304,1.82-1.82,9.694-2.426,12.113c-0.605,2.426-2.118,7.575-2.118,7.575c-0.756,2.532-6.859,5.474-8.726,5.474
		s-4.67,3.113-4.67,4.36c0,1.247-2.181,4.048-3.428,4.362c-1.245,0.312-6.541,3.737-6.541,3.737s-1.244-4.673-0.623-5.918
		c0.623-1.247-4.361-2.18-5.919-2.18c-1.556,0-4.98,0.623-6.229,1.247c-1.246,0.624-4.357,2.802-4.357,2.802
		s0.309-6.853,4.357-7.475c4.05-0.621,11.526-1.559,12.771-2.179c1.249-0.625,4.674-5.295,4.674-5.295l-5.297-6.541
		c0,0-6.852,4.67-8.098,4.049c-1.246-0.624-6.23-7.788-6.23-7.788s1.561,9.655-0.311,11.213c-1.866,1.558-7.162,4.982-8.097,7.164
		c-0.937,2.181,0.622,12.771-1.87,16.198c-2.493,3.425-4.36,7.165-4.36,7.165s-10.898,0.31-13.08-1.247
		c-2.183-1.559-11.523-5.918-12.772-5.918c-1.245,0-5.295,3.737-10.589,2.179c-5.294-1.557-7.163,0-10.59-4.049
		c-3.426-4.048-6.854-7.163-6.854-7.163s13.705,16.818,14.33,18.374c0.621,1.56,7.782,1.56,9.965,1.56
		c2.181,0,21.179-1.868,21.179-1.868s11.525-1.558,14.329-2.804c2.802-1.247,18.689-8.411,21.492-9.035
		c2.803-0.621,14.635-5.915,16.192-6.54c1.562-0.623,6.544-1.244,8.724-1.868c2.179-0.622,5.296-3.739,5.296-5.296
		c0-1.557-3.117-4.047-3.117-5.294c0-0.649,1.953-2.47,3.141-6.917C689.141,496.752,689.731,487.457,690.587,485.167z"/>
	<path opacity="0.1" fill="#AFA9A3" d="M591.422,483.551c0,0,9.031-11.524,10.279-13.704c1.247-2.18,4.984-17.443,4.984-17.443
		l-1.559,19.936c0,0,9.349-4.05,11.213-4.05c1.866,0,4.051,2.18,4.051,2.18s-13.084,5.608-15.886,8.099
		c-2.804,2.49-4.363,5.605-2.804,5.605c1.558,0,6.229,2.492,6.229,2.492s-8.406,5.918-11.523,3.426
		C593.292,487.602,591.422,483.551,591.422,483.551z"/>
	<linearGradient id="SVGID_8_" gradientUnits="userSpaceOnUse" x1="307.5708" y1="191.7158" x2="429.1046" y2="218.8674">
		<stop  offset="0" style="stop-color:#FFFFFF"/>
		<stop  offset="1" style="stop-color:#AFA9A3"/>
	</linearGradient>
	<path opacity="0.5" fill="url(#SVGID_8_)" d="M449.757,217.636c0,0-9.948,1.451-20.465,2.618
		c-10.516,1.168-45.172-0.389-54.132-0.778c-8.956-0.388-70.555-2.197-70.555-2.197s-3.896-5.839-4.869-11.672
		c-0.97-5.833-0.407-10.546-0.407-10.546s50.188,3.807,76.008,3.936c25.82,0.13,79.246-0.661,79.246-0.661s-1.073,4.006-1.719,7.929
		C451.893,212.185,449.757,217.636,449.757,217.636z"/>
	
		<path fill="none" stroke="#676464" stroke-width="0.2346" stroke-linecap="round" stroke-linejoin="round" stroke-dasharray="1.5639,1.5639" d="
		M30.617,507.396c0,0,10.765,9.707,93.96,37.294c39.139,12.978,50.882,5.149,50.882,5.149"/>
	
		<path fill="none" stroke="#676464" stroke-width="0.2346" stroke-linecap="round" stroke-linejoin="round" stroke-dasharray="1.5639,1.5639" d="
		M274.856,207.147c0,0,9.352,31.072,34.692,50.588c31.204,24.033,57.565,28.685,86.25,26.358
		c28.683-2.325,60.083-22.288,71.325-38.375c11.241-16.087,10.853-27.135,11.241-29.46c0.388-2.326,0.467-9.069,0.467-9.069"/>
	
		<path fill="none" stroke="#676464" stroke-width="0.2346" stroke-linecap="round" stroke-linejoin="round" stroke-dasharray="1.5639,1.5639" d="
		M158.965,846.79c0,0,24.361,8.727,73.454,11.632c49.092,2.911,236.271,1.976,269.818,1.458c47.273-0.726,81.822-9.821,81.822-9.821
		"/>
	<radialGradient id="SVGID_9_" cx="439.166" cy="206.8379" r="11.8118" gradientUnits="userSpaceOnUse">
		<stop  offset="0" style="stop-color:#FFFFFF"/>
		<stop  offset="1" style="stop-color:#AFA9A3"/>
	</radialGradient>
	<path opacity="0.3" fill="url(#SVGID_9_)" d="M424.402,199.298c0,0,18.521,3.432,21.636,6.547c3.115,3.116,4.79,8.807,4.79,8.807
		s0.807-2.463,1.492-5.474c0.376-1.653,0.588-3.507,0.909-5.123c0.526-2.655,0.986-4.751,0.486-5.031L424.402,199.298z"/>
	<radialGradient id="SVGID_10_" cx="624.8467" cy="408.0962" r="27.1089" gradientUnits="userSpaceOnUse">
		<stop  offset="0" style="stop-color:#FFFFFF"/>
		<stop  offset="1" style="stop-color:#AFA9A3"/>
	</radialGradient>
	<path opacity="0.2" fill="url(#SVGID_10_)" d="M643.926,316.904c0,0-6.336,10.793-7.851,12.611
		c-1.514,1.816-10.598,13.324-10.598,13.324l-0.849,7.644c-1.261,3.568-7.188,20.525-8.54,28.091
		c-1.514,8.477-11.508,27.859-11.81,30.282s-3.633,5.149-3.633,6.964c0,1.818-5.15,6.663-6.662,8.481
		c-1.516,1.818-1.517,11.205-1.517,11.205l-14.839,17.563c0,0,1.517-10.597,1.517-12.114c0-1.514,8.174-36.037,9.387-44.817
		c1.211-8.785,6.357-46.03,8.479-45.728c2.121,0.303,1.817,29.374,1.817,29.374s2.725-28.163,1.513-32.402
		c-0.579-2.038-2.725-5.452-6.054-0.607c-5.121,7.443-19.384,116.589-19.384,116.589s0.097-0.117,0.263-0.321l-9.407,68.192
		l11.117-70.27c4.956-6.034,17.648-21.458,18.62-22.432c1.21-1.21,1.213-5.149,1.213-6.963c0-1.819,2.119-7.572,4.238-10.298
		c2.118-2.724,6.359-9.387,6.359-11.206c0-1.817,8.481-19.075,9.087-21.5c0.605-2.424,3.937-10.599,4.54-13.324
		c0.486-2.197,2.747-17.38,3.606-23.185c1.215-1.79,14.334-21.1,15.775-22.543c1.514-1.515,5.149-6.965,5.149-8.176L643.926,316.904
		z"/>
	<path opacity="0.3" fill="none" stroke="#676464" stroke-width="0.2346" stroke-dasharray="1.5639,1.5639" d="M304.916,217.328
		c0,0,61.599,1.808,70.554,2.196c8.957,0.39,43.618,1.946,54.13,0.779c10.518-1.168,19.863-2.727,19.863-2.727"/>
	<path opacity="0.25" fill="none" stroke="#676464" stroke-width="0.2346" d="M299.256,195.341c0,0-3.028,16.657,12.112,30.586
		c15.14,13.931,46.637,32.705,51.784,33.614c5.147,0.909,23.923,0.605,33.311-2.726c9.388-3.331,45.727-23.318,49.361-29.98
		c3.635-6.662,6.362-15.444,6.965-20.29c0.604-4.844,1.815-7.267,0.604-7.267c-1.209,0-44.214,0.604-78.129,0
		C341.347,198.673,299.256,195.341,299.256,195.341z"/>
	
		<path fill="none" stroke="#676464" stroke-width="0.2346" stroke-linecap="round" stroke-linejoin="round" stroke-dasharray="1.5639,1.5639" d="
		M711.504,504.554c0,0-2.104,4.787-3.137,5.659c-0.705,0.595-15.33,9.762-85.595,31.887c-12.514,3.938-52.442,3.686-52.442,3.686"/>
	<g>
		<path fill="#F06649" stroke="#232020" stroke-width="0.054" stroke-miterlimit="3.8637" d="M394.964,246.927h-35.129l0.085-28.027
			c8.443,0.388,21.56,0.985,34.925,1.172L394.964,246.927L394.964,246.927z"/>
		<polygon fill="#FFFFFF" stroke="#232020" stroke-width="0.0208" stroke-miterlimit="3.8637" points="394.935,246.896 
			359.808,246.896 359.808,241.087 394.935,241.087 394.935,246.896 		"/>
		
			<path fill-rule="evenodd" clip-rule="evenodd" fill="#FFFFFF" stroke="#232020" stroke-width="0.9798" stroke-miterlimit="3.8637" d="
			M382.847,221.162c3.204,0,5.803,2.599,5.803,5.804c0,3.204-2.599,5.801-5.803,5.801h-11.25c-3.207,0-5.806-2.597-5.806-5.801
			c0-3.205,2.599-5.804,5.801-5.804H382.847L382.847,221.162z"/>
		<path fill="#0072B8" d="M367.579,226.948c0-2.241,1.742-4.075,3.942-4.224v8.445C369.32,231.021,367.579,229.188,367.579,226.948
			L367.579,226.948z"/>
		<polygon fill-rule="evenodd" clip-rule="evenodd" fill="#0072B8" points="375.898,226.395 372.222,222.716 375.898,222.716 
			375.898,226.395 		"/>
		<polygon fill-rule="evenodd" clip-rule="evenodd" fill="#0072B8" points="375.898,227.501 372.222,231.181 375.898,231.181 
			375.898,227.501 		"/>
		<polygon fill-rule="evenodd" clip-rule="evenodd" fill="#F06649" points="380.518,226.395 384.195,222.716 380.518,222.716 
			380.518,226.395 		"/>
		<polygon fill-rule="evenodd" clip-rule="evenodd" fill="#F06649" points="380.518,227.501 384.195,231.181 380.518,231.181 
			380.518,227.501 		"/>
		<polygon fill="#F06649" points="376.682,222.716 379.736,222.716 379.736,231.181 376.682,231.181 376.682,222.716 		"/>
		<path fill="#FFFFFF" d="M363.897,236.3c0-1.148,0.171-1.51,0.432-1.51c0.241,0,0.427,0.221,0.427,1.315
			c0,0.927-0.072,1.547-0.427,1.547C363.965,237.653,363.897,237.033,363.897,236.3L363.897,236.3z M363.372,236.22
			c0,0.938,0.087,1.885,0.958,1.885c0.774,0,0.953-0.887,0.953-1.885c0-0.935-0.087-1.884-0.953-1.884
			C363.548,234.336,363.372,235.222,363.372,236.22L363.372,236.22z"/>
		<path fill="#FFFFFF" d="M367.208,238.032h-0.452v-0.359h-0.011c-0.121,0.295-0.292,0.401-0.527,0.401
			c-0.26,0-0.493-0.24-0.493-0.583v-2.108h0.479v1.914c0,0.207,0.095,0.325,0.23,0.325c0.19,0,0.295-0.18,0.295-0.374v-1.865h0.478
			V238.032L367.208,238.032z"/>
		<path fill="#FFFFFF" d="M368.555,235.813h-0.259v1.559c0,0.133,0.077,0.207,0.199,0.207h0.061v0.429
			c-0.08,0.015-0.155,0.025-0.226,0.025c-0.308,0-0.509-0.143-0.509-0.478v-1.741h-0.253v-0.429h0.253v-0.657h0.475v0.657h0.259
			V235.813L368.555,235.813z"/>
		<path fill="#FFFFFF" d="M369.485,238.032h-0.476v-2.219h-0.256v-0.429h0.256v-0.394c0-0.388,0.077-0.624,0.504-0.624
			c0.085,0,0.165,0.005,0.226,0.017v0.452c-0.018-0.011-0.043-0.015-0.087-0.015c-0.093,0-0.167,0.06-0.167,0.207v0.358h0.254v0.429
			h-0.254V238.032L369.485,238.032z"/>
		<path fill="#FFFFFF" d="M370.098,235.383h0.48v2.648h-0.48V235.383L370.098,235.383z M370.335,234.471
			c0.172,0,0.31,0.138,0.31,0.302c0,0.175-0.137,0.312-0.31,0.312c-0.166,0-0.307-0.137-0.307-0.312
			C370.028,234.609,370.169,234.471,370.335,234.471L370.335,234.471z"/>
		<path fill="#FFFFFF" d="M371.924,235.813h-0.254v1.559c0,0.133,0.072,0.207,0.196,0.207h0.058v0.429
			c-0.078,0.015-0.155,0.025-0.225,0.025c-0.305,0-0.506-0.143-0.506-0.478v-1.741h-0.258v-0.429h0.258v-0.657h0.478v0.657h0.254
			V235.813L371.924,235.813z"/>
		<path fill="#FFFFFF" d="M373.11,235.813h-0.256v1.559c0,0.133,0.075,0.207,0.199,0.207h0.058v0.429
			c-0.08,0.015-0.16,0.025-0.225,0.025c-0.305,0-0.509-0.143-0.509-0.478v-1.741h-0.255v-0.429h0.255v-0.657h0.477v0.657h0.256
			V235.813L373.11,235.813z"/>
		<path fill="#FFFFFF" d="M373.471,235.383h0.476v2.648h-0.476V235.383L373.471,235.383z M373.705,234.471
			c0.173,0,0.311,0.138,0.311,0.302c0,0.175-0.138,0.312-0.311,0.312c-0.165,0-0.303-0.137-0.303-0.312
			C373.401,234.609,373.54,234.471,373.705,234.471L373.705,234.471z"/>
		<path fill="#FFFFFF" d="M374.47,235.383h0.452v0.36h0.011c0.115-0.293,0.288-0.402,0.523-0.402c0.261,0,0.491,0.24,0.491,0.583
			v2.107h-0.477v-1.914c0-0.208-0.096-0.325-0.228-0.325c-0.194,0-0.295,0.181-0.295,0.372v1.867h-0.477V235.383L374.47,235.383z"/>
		<path fill="#FFFFFF" d="M377.502,236.708c0,0.811-0.173,0.939-0.309,0.939c-0.133,0-0.306-0.128-0.306-0.939
			c0-0.814,0.173-0.941,0.306-0.941C377.329,235.768,377.502,235.895,377.502,236.708L377.502,236.708z M377.53,235.383v0.433
			h-0.011c-0.115-0.305-0.252-0.475-0.535-0.475c-0.313,0-0.598,0.27-0.598,1.36c0,0.848,0.203,1.372,0.619,1.372
			c0.258,0,0.398-0.17,0.489-0.477h0.007v0.226c0,0.522-0.074,0.774-0.351,0.774c-0.16,0-0.286-0.098-0.356-0.221l-0.382,0.266
			c0.161,0.25,0.388,0.357,0.738,0.357c0.537,0,0.805-0.354,0.805-0.808v-2.809H377.53L377.53,235.383z"/>
		<path fill="#FFFFFF" d="M380.114,236.708c0-0.814,0.167-0.941,0.305-0.941c0.135,0,0.308,0.127,0.308,0.941
			c0,0.811-0.173,0.939-0.308,0.939C380.281,237.647,380.114,237.52,380.114,236.708L380.114,236.708z M379.657,238.971h0.457
			v-1.379l0.006,0.005c0.089,0.307,0.231,0.477,0.493,0.477c0.413,0,0.613-0.524,0.613-1.372c0-1.09-0.284-1.36-0.599-1.36
			c-0.282,0-0.418,0.17-0.532,0.475h-0.01v-0.433h-0.428V238.971L379.657,238.971z"/>
		<path fill="#FFFFFF" d="M382.014,237.269c0-0.258,0.05-0.512,0.501-0.512h0.124v0.351c0,0.393-0.224,0.565-0.367,0.565
			C382.058,237.672,382.014,237.504,382.014,237.269L382.014,237.269z M383.092,238.032v-1.998c0-0.491-0.271-0.692-0.73-0.692
			c-0.369,0-0.676,0.142-0.752,0.619l0.424,0.118c0.024-0.231,0.114-0.335,0.305-0.335c0.222,0,0.3,0.133,0.3,0.311v0.339h-0.177
			c-0.655,0-0.926,0.236-0.926,0.934c0,0.646,0.356,0.747,0.541,0.747c0.245,0,0.415-0.122,0.552-0.433h0.01v0.391H383.092
			L383.092,238.032z"/>
		<path fill="#FFFFFF" d="M383.854,237.302c0.001,0.189,0.122,0.371,0.321,0.371c0.182,0,0.271-0.139,0.271-0.267
			c0-0.128-0.067-0.266-0.292-0.443l-0.251-0.195c-0.324-0.258-0.436-0.448-0.436-0.729c0-0.431,0.308-0.697,0.706-0.697
			c0.409,0,0.609,0.224,0.725,0.516l-0.411,0.246c-0.007-0.185-0.112-0.36-0.318-0.36c-0.152,0-0.245,0.099-0.245,0.241
			c0,0.114,0.046,0.206,0.294,0.393l0.299,0.233c0.308,0.24,0.409,0.481,0.409,0.742c0,0.39-0.271,0.722-0.757,0.722
			c-0.348,0-0.58-0.147-0.729-0.509L383.854,237.302L383.854,237.302z"/>
		<path fill="#FFFFFF" d="M385.588,237.302c0.001,0.189,0.121,0.371,0.321,0.371c0.18,0,0.271-0.139,0.271-0.267
			c0-0.128-0.069-0.266-0.296-0.443l-0.25-0.195c-0.322-0.258-0.43-0.448-0.43-0.729c0-0.431,0.305-0.697,0.702-0.697
			c0.408,0,0.605,0.224,0.722,0.516l-0.408,0.246c-0.011-0.185-0.113-0.36-0.321-0.36c-0.151,0-0.246,0.099-0.246,0.241
			c0,0.114,0.05,0.206,0.294,0.393l0.304,0.233c0.307,0.24,0.406,0.481,0.406,0.742c0,0.39-0.269,0.722-0.758,0.722
			c-0.347,0-0.578-0.147-0.728-0.509L385.588,237.302L385.588,237.302z"/>
		<path fill="#FFFFFF" d="M387.04,235.383h0.479v2.648h-0.479V235.383L387.04,235.383z M387.278,234.471
			c0.172,0,0.309,0.138,0.309,0.302c0,0.175-0.137,0.312-0.309,0.312c-0.168,0-0.306-0.137-0.306-0.312
			C386.972,234.609,387.11,234.471,387.278,234.471L387.278,234.471z"/>
		<path fill="#FFFFFF" d="M388.783,237.672c-0.222,0-0.326-0.371-0.326-1.092c0-0.482,0.075-0.837,0.326-0.837
			c0.252,0,0.323,0.355,0.323,0.837C389.105,237.302,389.001,237.672,388.783,237.672L388.783,237.672z M388.783,238.074
			c0.624,0,0.826-0.609,0.826-1.365c0-0.759-0.203-1.367-0.826-1.367c-0.628,0-0.827,0.608-0.827,1.367
			C387.956,237.464,388.155,238.074,388.783,238.074L388.783,238.074z"/>
		<path fill="#FFFFFF" d="M390.047,235.383h0.454v0.36h0.01c0.116-0.293,0.288-0.402,0.524-0.402c0.263,0,0.492,0.24,0.492,0.583
			v2.107h-0.475v-1.914c0-0.208-0.101-0.325-0.231-0.325c-0.193,0-0.295,0.181-0.295,0.372v1.867h-0.479V235.383L390.047,235.383z"
			/>
		<g>
			<g>
				<text transform="matrix(1 0 0 1.1235 361.5288 245.4858)" fill="#0072B8" font-family="'Arial-Black'" font-size="2.5191">CLIFF KEEN A</text>
			</g>
		</g>
		<g>
			<g>
				<text transform="matrix(1 0 0 1.1235 380.8105 245.4858)" fill="#0072B8" font-family="'Arial-Black'" font-size="2.5191">THLETIC</text>
			</g>
		</g>
	</g>
</g>
</svg>
