<?xml version="1.0" encoding="utf-8"?>
<!-- Generator: Adobe Illustrator 16.0.0, SVG Export Plug-In . SVG Version: 6.00 Build 0)  -->
<!DOCTYPE svg PUBLIC "-//W3C//DTD SVG 1.1//EN" "http://www.w3.org/Graphics/SVG/1.1/DTD/svg11.dtd" [
	<!ENTITY ns_flows "http://ns.adobe.com/Flows/1.0/">
	<!ENTITY ns_extend "http://ns.adobe.com/Extensibility/1.0/">
	<!ENTITY ns_ai "http://ns.adobe.com/AdobeIllustrator/10.0/">
	<!ENTITY ns_graphs "http://ns.adobe.com/Graphs/1.0/">
]>
<svg version="1.1" id="Layer_1" xmlns:x="&ns_extend;" xmlns:i="&ns_ai;" xmlns:graph="&ns_graphs;"
	 xmlns="http://www.w3.org/2000/svg" xmlns:xlink="http://www.w3.org/1999/xlink" xmlns:a="http://ns.adobe.com/AdobeSVGViewerExtensions/3.0/"
	 x="0px" y="0px" width="612px" height="792px" viewBox="0 0 472 792" enable-background="new 0 0 612 792" xml:space="preserve">

<g>
	<defs>
		<rect id="TDB_SVGID_1_" x="40.03" y="48.494" width="524.5" height="678.764"/>
	</defs>
	<clipPath id="TDB_SVGID_2_">
		<use xlink:href="#TDB_SVGID_1_"  overflow="visible"/>
	</clipPath>
	<g clip-path="url(#TDB_SVGID_2_)">
		<defs>
			<rect id="TDB_SVGID_3_" x="40.03" y="48.494" width="524.5" height="678.764"/>
		</defs>
		<clipPath id="TDB_SVGID_4_">
			<use xlink:href="#TDB_SVGID_3_"  overflow="visible"/>
		</clipPath>
    <g id="mask_TD">
      <g id="BODY">
		<path clip-path="url(#TDB_SVGID_4_)" fill="#897F76" d="M352.965,165.936c0,0,4.449,5.311,6.458,6.172
			c2.01,0.861,5.599,1.579,7.032,1.723c1.436,0.143,5.743,3.013,7.034,4.162s5.453,3.875,7.319,4.449
			c1.866,0.574,4.879,2.154,5.31,2.583c0.431,0.43,7.464,2.153,8.47,2.153c1.003,0,14.925,8.898,19.375,10.477
			c4.449,1.579,31.001,12.775,40.617,19.089c9.617,6.315,25.263,19.662,26.984,25.69c1.723,6.029-0.049,8.578,1.242,11.306
			c1.293,2.726,13.972,28.882,17.848,37.637s22.678,55.256,24.686,61.859c2.009,6.603,5.883,17.367,6.172,19.088
			c0.287,1.723,1.723,5.455,1.723,5.455s1.004,0.86,1.436,1.436c0.429,0.573,0.572,2.295,0.859,3.014
			c0.289,0.718,4.736,8.752,4.306,9.328c-0.428,0.576-11.483,5.022-16.505,7.033c-5.024,2.009-25.548,12.344-30.57,13.205
			c-5.024,0.861-20.236,5.452-25.691,6.744c-5.456,1.294-19.089,3.447-20.956,3.447c-1.865,0-6.17-0.72-6.17-0.72
			s-3.302-9.04-3.446-10.189c-0.138-1.109-1.496-9.184-1.723-13.609c-0.01-0.204-0.016-0.31-0.021-0.516
			c-0.144-4.307,0.023-15.01,0.023-15.728c0-0.717-0.29-3.588-1.006-4.881c-0.718-1.291-2.728-2.725-3.301-2.582
			c-0.573,0.142-1.005,2.439-1.005,3.586c0,1.148,1.146,39.182,1.578,46.216c0.429,7.033,1.29,24.829,2.298,33.585
			c1.005,8.754,4.307,31.575,4.592,35.449c0.288,3.877,0,41.625,0,41.625s3.016,6.743,3.159,7.894
			c0.143,1.146,1.29,26.405,2.151,36.023c0.861,9.614,2.009,23.681,2.727,25.403c0.72,1.723,1.149,5.168,1.149,5.741
			c0,0.575,0.571,8.323,0.286,8.899c-0.286,0.573-7.894,5.311-13.49,6.458s-18.95,3.588-63.586,3.588
			c-44.637,0-163.764,0.141-171.084-0.432c-7.32-0.573-33.013-4.304-36.602-5.883c-3.588-1.579-5.309-2.439-5.309-3.158
			c0-0.718,0.141-11.482,0.428-12.344c0.223-0.665,0.782-8.16,1.665-14.777c0.26-1.947,0.54-4.116,0.604-5.749
			c0.287-7.177,2.754-41.763,3.185-43.628c0.431-1.867,3.015-7.896,3.015-7.896s0.719-28.418,1.578-43.057
			c0.859-14.641,4.019-36.023,4.307-40.616c0.287-4.592,2.293-27.271,1.146-35.595s-3.444-19.375-3.444-19.375
			s-1.435,3.159-1.865,4.019c-0.431,0.859-0.862,3.587-0.718,4.735c0.143,1.149,0.287,10.908,0.287,10.908s-3.157,1.58-3.588,1.291
			c-0.43-0.284-2.153-1.865-3.732-1.291c-1.58,0.575-8.324,2.583-12.917,2.153c-4.594-0.43-26.411-4.162-38.752-9.187
			c-12.344-5.023-22.103-8.18-24.4-9.041c-2.295-0.862-11.627-4.881-13.347-5.599c-1.723-0.715-5.456-2.583-5.598-3.3
			c-0.144-0.716,1.292-2.727,2.01-3.875c0.717-1.148,1.579-2.151,1.865-3.875c0.287-1.721,0.43-4.593,0.43-4.593l1.578-1.434
			c0,0,2.438-11.625,3.729-14.494c1.292-2.872,5.31-12.058,6.028-15.36c0.718-3.3,3.876-16.074,5.168-19.662
			c1.292-3.589,9.33-24.973,14.21-37.172c4.881-12.199,13.349-29.565,13.636-30.571c0.288-1.004,3.303-10.046,3.733-11.052
			c0.43-1.004,6.602-10.907,7.605-12.199c1.006-1.292,4.308-6.889,7.034-9.186c2.727-2.296,18.373-12.343,27.989-17.797
			c9.616-5.455,24.399-13.778,25.26-14.496c0.861-0.718,4.45-2.01,4.879-2.01s7.32-1.003,7.32-1.003s2.153-2.011,3.301-2.872
			c1.148-0.86,5.165-1.865,5.74-2.295c0.576-0.432,2.297-1.292,2.297-1.292s5.744-1.148,7.61-1.148c1.865,0,3.875-0.86,4.162-1.436
			c0.287-0.574,2.298-1.004,2.584-1.435c0.287-0.43,5.166-5.741,6.172-6.315c1.003-0.574,4.161-0.143,5.166-0.288
			c1.006-0.143,2.871-1.722,4.019-1.722c1.149,0,2.298,0.144,3.015-0.573c0.717-0.718,3.444-3.158,4.305-3.445
			s33.729,0.286,50.666,0.143c16.936-0.143,40.474-1.435,45.927-2.583C348.082,165.22,352.965,165.936,352.965,165.936"/>
      </g>
      </g>
		<path clip-path="url(#TDB_SVGID_4_)" fill="none" stroke="#D2D3D2" stroke-width="0.75" d="M352.965,165.936
			c0,0,4.449,5.311,6.458,6.172c2.01,0.861,5.599,1.579,7.032,1.723c1.436,0.143,5.743,3.013,7.034,4.162s5.453,3.875,7.319,4.449
			c1.866,0.574,4.879,2.154,5.31,2.583c0.431,0.43,7.464,2.153,8.47,2.153c1.003,0,14.925,8.898,19.375,10.477
			c4.449,1.579,31.001,12.775,40.617,19.089c9.617,6.315,25.263,19.662,26.984,25.69c1.723,6.029-0.049,8.578,1.242,11.306
			c1.293,2.726,13.972,28.882,17.848,37.637s22.678,55.256,24.686,61.859c2.009,6.603,5.883,17.367,6.172,19.088
			c0.287,1.723,1.723,5.455,1.723,5.455s1.004,0.86,1.436,1.436c0.429,0.573,0.572,2.295,0.859,3.014
			c0.289,0.718,4.736,8.752,4.306,9.328c-0.428,0.576-11.483,5.022-16.505,7.033c-5.024,2.009-25.548,12.344-30.57,13.205
			c-5.024,0.861-20.236,5.452-25.691,6.744c-5.456,1.294-19.089,3.447-20.956,3.447c-1.865,0-6.17-0.72-6.17-0.72
			s-3.302-9.04-3.446-10.189c-0.138-1.109-1.496-9.184-1.723-13.609c-0.01-0.204-0.016-0.31-0.021-0.516
			c-0.144-4.307,0.023-15.01,0.023-15.728c0-0.717-0.29-3.588-1.006-4.881c-0.718-1.291-2.728-2.725-3.301-2.582
			c-0.573,0.142-1.005,2.439-1.005,3.586c0,1.148,1.146,39.182,1.578,46.216c0.429,7.033,1.29,24.829,2.298,33.585
			c1.005,8.754,4.307,31.575,4.592,35.449c0.288,3.877,0,41.625,0,41.625s3.016,6.743,3.159,7.894
			c0.143,1.146,1.29,26.405,2.151,36.023c0.861,9.614,2.009,23.681,2.727,25.403c0.72,1.723,1.149,5.168,1.149,5.741
			c0,0.575,0.571,8.323,0.286,8.899c-0.286,0.573-7.894,5.311-13.49,6.458s-18.95,3.588-63.586,3.588
			c-44.637,0-163.764,0.141-171.084-0.432c-7.32-0.573-33.013-4.304-36.602-5.883c-3.588-1.579-5.309-2.439-5.309-3.158
			c0-0.718,0.141-11.482,0.428-12.344c0.223-0.665,0.782-8.16,1.665-14.777c0.26-1.947,0.54-4.116,0.604-5.749
			c0.287-7.177,2.754-41.763,3.185-43.628c0.431-1.867,3.015-7.896,3.015-7.896s0.719-28.418,1.578-43.057
			c0.859-14.641,4.019-36.023,4.307-40.616c0.287-4.592,2.293-27.271,1.146-35.595s-3.444-19.375-3.444-19.375
			s-1.435,3.159-1.865,4.019c-0.431,0.859-0.862,3.587-0.718,4.735c0.143,1.149,0.287,10.908,0.287,10.908s-3.157,1.58-3.588,1.291
			c-0.43-0.284-2.153-1.865-3.732-1.291c-1.58,0.575-8.324,2.583-12.917,2.153c-4.594-0.43-26.411-4.162-38.752-9.187
			c-12.344-5.023-22.103-8.18-24.4-9.041c-2.295-0.862-11.627-4.881-13.347-5.599c-1.723-0.715-5.456-2.583-5.598-3.3
			c-0.144-0.716,1.292-2.727,2.01-3.875c0.717-1.148,1.579-2.151,1.865-3.875c0.287-1.721,0.43-4.593,0.43-4.593l1.578-1.434
			c0,0,2.438-11.625,3.729-14.494c1.292-2.872,5.31-12.058,6.028-15.36c0.718-3.3,3.876-16.074,5.168-19.662
			c1.292-3.589,9.33-24.973,14.21-37.172c4.881-12.199,13.349-29.565,13.636-30.571c0.288-1.004,3.303-10.046,3.733-11.052
			c0.43-1.004,6.602-10.907,7.605-12.199c1.006-1.292,4.308-6.889,7.034-9.186c2.727-2.296,18.373-12.343,27.989-17.797
			c9.616-5.455,24.399-13.778,25.26-14.496c0.861-0.718,4.45-2.01,4.879-2.01s7.32-1.003,7.32-1.003s2.153-2.011,3.301-2.872
			c1.148-0.86,5.165-1.865,5.74-2.295c0.576-0.432,2.297-1.292,2.297-1.292s5.744-1.148,7.61-1.148c1.865,0,3.875-0.86,4.162-1.436
			c0.287-0.574,2.298-1.004,2.584-1.435c0.287-0.43,5.166-5.741,6.172-6.315c1.003-0.574,4.161-0.143,5.166-0.288
			c1.006-0.143,2.871-1.722,4.019-1.722c1.149,0,2.298,0.144,3.015-0.573c0.717-0.718,3.444-3.158,4.305-3.445
			s33.729,0.286,50.666,0.143c16.936-0.143,40.474-1.435,45.927-2.583C348.082,165.22,352.965,165.936,352.965,165.936z"/>
		
			<rect x="208.283" y="224.794" clip-path="url(#TDB_SVGID_4_)" fill="none" stroke="#FFFFFF" stroke-width="0.75" width="193.194" height="240.403"/>
		
			<rect x="247.895" y="211.721" clip-path="url(#TDB_SVGID_4_)" fill="none" stroke="#FFFFFF" stroke-width="0.75" width="116.934" height="44.304"/>
	</g>
	<g clip-path="url(#TDB_SVGID_2_)">
		<defs>
			<rect id="TDB_SVGID_5_" x="40.03" y="48.494" width="524.5" height="678.764"/>
		</defs>
		<clipPath id="TDB_SVGID_6_">
			<use xlink:href="#TDB_SVGID_5_"  overflow="visible"/>
		</clipPath>
		<g opacity="0.1" clip-path="url(#TDB_SVGID_6_)"  a:adobe-blending-mode="multiply">
			<g  a:adobe-blending-mode="normal">
				<defs>
					<rect id="TDB_SVGID_7_" x="429.807" y="304.025" width="36.5" height="71.095"/>
				</defs>
				<clipPath id="TDB_SVGID_8_">
					<use xlink:href="#TDB_SVGID_7_"  overflow="visible"/>
				</clipPath>
				<path clip-path="url(#TDB_SVGID_8_)" fill="#AEA8A2" d="M466.307,304.025c0,0-2.915,15.704-6.956,21.537
					c-4.038,5.835-10.32,10.322-11.443,11.221c-1.12,0.897-3.365,2.692-3.365,2.692s-7.629,18.174-9.198,22.884
					c-1.571,4.712-2.552,12.761-2.552,12.761s-1.857-1.577-2.322-1.361c-0.465,0.214-0.663,1.136-0.663,1.136
					s4.188-16.351,5.537-18.594c1.347-2.243,6.955-17.05,7.628-19.294c0.674-2.243,1.57-5.385,2.917-10.096
					c1.347-4.711,7.404-22.885,7.404-22.885s-7.628,28.943-7.628,30.513c0,1.571,6.953-4.039,8.3-5.834
					c1.348-1.794,5.61-8.975,5.61-10.545C459.575,316.589,466.307,304.025,466.307,304.025"/>
			</g>
		</g>
		<g opacity="0.1" clip-path="url(#TDB_SVGID_6_)"  a:adobe-blending-mode="multiply">
			<g  a:adobe-blending-mode="normal">
				<defs>
					<rect id="TDB_SVGID_9_" x="436.137" y="408.354" width="26.579" height="13.639"/>
				</defs>
				<clipPath id="TDB_SVGID_10_">
					<use xlink:href="#TDB_SVGID_9_"  overflow="visible"/>
				</clipPath>
				<path clip-path="url(#TDB_SVGID_10_)" fill="#AEA8A2" d="M436.137,409.001c0,0,5.605,2.424,13.566,1.148
					c4.48-0.718,13.013-1.795,13.013-1.795s-6.282,3.59-11.443,4.039c-5.159,0.447-1.569,4.265,0,4.937
					c1.571,0.673,4.945,3.241,4.945,3.241c0-0.001-7.277,1.271-10.104,1.413c-2.062,0.101-5.513-0.637-6.171-0.72
					c0,0-1.008-2.589-1.232-3.485c-0.225-0.898-1.539-4.366-2.057-5.836C436.574,411.718,436.137,409.001,436.137,409.001"/>
			</g>
		</g>
		<g opacity="0.1" clip-path="url(#TDB_SVGID_6_)"  a:adobe-blending-mode="multiply">
			<g  a:adobe-blending-mode="normal">
				<defs>
					<rect id="TDB_SVGID_11_" x="472.911" y="380.983" width="62.05" height="23.808"/>
				</defs>
				<clipPath id="TDB_SVGID_12_">
					<use xlink:href="#TDB_SVGID_11_"  overflow="visible"/>
				</clipPath>
				<path clip-path="url(#TDB_SVGID_12_)" fill="#AEA8A2" d="M534.961,380.983c0,0-11.667,6.506-17.726,8.748
					c-6.057,2.244-23.331,8.752-27.37,10.097c-4.039,1.346-14.585,4.487-16.828,4.938c-2.244,0.449,26.025-4.936,40.833-11.444
					c14.81-6.505,20.644-8.974,20.867-9.646C534.961,383.001,534.961,380.983,534.961,380.983"/>
			</g>
		</g>
		<g opacity="0.1" clip-path="url(#TDB_SVGID_6_)"  a:adobe-blending-mode="multiply">
			<g  a:adobe-blending-mode="normal">
				<defs>
					<rect id="TDB_SVGID_13_" x="443.144" y="362.809" width="14.638" height="46.354"/>
				</defs>
				<clipPath id="TDB_SVGID_14_">
					<use xlink:href="#TDB_SVGID_13_"  overflow="visible"/>
				</clipPath>
				<path clip-path="url(#TDB_SVGID_14_)" fill="#AEA8A2" d="M457.781,362.808c0,0-6.06,20.643-7.404,26.026
					c-1.347,5.384-4.264,16.38-4.264,16.38s1.122,1.57,1.794,2.242c0.675,0.675-3.813,2.469-4.486,1.347
					c-0.673-1.121,0-7.405,0.674-8.75C444.768,398.706,457.781,362.808,457.781,362.808"/>
			</g>
		</g>
		<g opacity="0.1" clip-path="url(#TDB_SVGID_6_)"  a:adobe-blending-mode="multiply">
			<g  a:adobe-blending-mode="normal">
				<defs>
					<rect id="TDB_SVGID_15_" x="434.711" y="349.081" width="19.755" height="52.542"/>
				</defs>
				<clipPath id="TDB_SVGID_16_">
					<use xlink:href="#TDB_SVGID_15_"  overflow="visible"/>
				</clipPath>
				<path clip-path="url(#TDB_SVGID_16_)" fill="#AEA8A2" d="M437.813,401.623c0,0,1.346-10.546,2.916-14.359
					c1.569-3.813,6.73-15.707,8.077-20.193c1.346-4.488,6.954-18.847,5.384-17.95c-1.572,0.897-10.993,20.643-13.687,24.906
					c-2.69,4.263-5.121,8.521-5.793,11.885l0.042,11.305l0.228,2.93C435.653,401.045,437.813,401.623,437.813,401.623"/>
			</g>
		</g>
		<g opacity="0.1" clip-path="url(#TDB_SVGID_6_)"  a:adobe-blending-mode="multiply">
			<g  a:adobe-blending-mode="normal">
				<defs>
					<rect id="TDB_SVGID_17_" x="459.575" y="232.383" width="8.726" height="46.961"/>
				</defs>
				<clipPath id="TDB_SVGID_18_">
					<use xlink:href="#TDB_SVGID_17_"  overflow="visible"/>
				</clipPath>
				<path clip-path="url(#TDB_SVGID_18_)" fill="#AEA8A2" d="M465.857,234.023c0,0-0.673,10.096-1.57,13.237
					c-0.897,3.142-3.813,13.91-3.813,17.724c0,3.815-0.898,14.36-0.898,14.36s2.244-16.826,3.589-20.866
					c1.348-4.038,4.711-15.706,4.938-17.725c0.224-2.019,0.448-6.956-0.449-8.077C466.757,231.554,465.857,234.023,465.857,234.023"
					/>
			</g>
		</g>
		<g opacity="0.2" clip-path="url(#TDB_SVGID_6_)"  a:adobe-blending-mode="multiply">
			<g  a:adobe-blending-mode="normal">
				<defs>
					<rect id="TDB_SVGID_19_" x="452.017" y="253.696" width="50.33" height="150.185"/>
				</defs>
				<clipPath id="TDB_SVGID_20_">
					<use xlink:href="#TDB_SVGID_19_"  overflow="visible"/>
				</clipPath>
				<g clip-path="url(#TDB_SVGID_20_)">
					<defs>
						<path id="TDB_SVGID_21_" d="M455.536,383c0.142-0.495,0.445-0.704,0.787-0.785c5.41-22.062,24.091-98.505,25.24-107.134
							c1.347-10.097-1.122-17.949-1.57-16.827c-0.449,1.122-13.687,19.07-16.38,23.333c-2.691,4.263-4.71,13.911-4.71,13.911
							s0.672-9.873,1.122-11.667c0.448-1.795,8.076-12.564,11.665-16.827c3.59-4.262,11.116-13.308,11.116-13.308l7.063,14.919
							c0,0,5.604,28.005,9.866,58.742c4.266,30.738,2.022,61.476,2.022,61.476l-3.367-38.365c0,0-0.45,2.467-1.573,7.852
							c-1.119,5.384-6.056,19.521-6.056,19.521s4.712-27.823,5.385-42.405c0.671-14.584-2.918-35.002-4.712-46.668
							c-1.794-11.668-6.954-24.906-6.954-24.906s-0.671,10.546-1.347,23.335c-0.566,10.764-20.207,74.934-26.412,94.98
							c0.642,0.028,1.282,0.374,1.282,0.374s-0.224,5.162-1.122,6.956c-0.897,1.795-1.795,7.628,0.225,7.852
							c2.019,0.225,16.155-13.91,16.155-13.91s-18.398,21.09-20.644,20.417C450.377,403.193,455.087,384.57,455.536,383"/>
					</defs>
					<clipPath id="TDB_SVGID_22_">
						<use xlink:href="#TDB_SVGID_21_"  overflow="visible"/>
					</clipPath>
					
						<radialGradient id="TDB_SVGID_23_" cx="0.668" cy="792.3682" r="0.8566" gradientTransform="matrix(-218.7204 0 0 -218.7204 643.043 173471.5313)" gradientUnits="userSpaceOnUse">
						<stop  offset="0" style="stop-color:#FFFFFF"/>
						<stop  offset="1" style="stop-color:#AEA8A2"/>
						<a:midPointStop  offset="0" style="stop-color:#FFFFFF"/>
						<a:midPointStop  offset="0.5" style="stop-color:#FFFFFF"/>
						<a:midPointStop  offset="1" style="stop-color:#AEA8A2"/>
					</radialGradient>
					<rect x="450.377" y="253.697" clip-path="url(#TDB_SVGID_22_)" fill="url(#TDB_SVGID_23_)" width="53.624" height="150.842"/>
				</g>
			</g>
		</g>
		<g opacity="0.15" clip-path="url(#TDB_SVGID_6_)"  a:adobe-blending-mode="multiply">
			<g  a:adobe-blending-mode="normal">
				<defs>
					<rect id="TDB_SVGID_24_" x="346.576" y="192.142" width="28.451" height="19.173"/>
				</defs>
				<clipPath id="TDB_SVGID_25_">
					<use xlink:href="#TDB_SVGID_24_"  overflow="visible"/>
				</clipPath>
				<path clip-path="url(#TDB_SVGID_25_)" fill="#AEA8A2" d="M375.027,192.142c0,0-9.278,4.535-11.957,7.834
					c-2.68,3.299-8.041,8.865-9.896,9.896c-1.856,1.031-6.597,1.444-6.597,1.444s12.988-2.68,18.968-9.691
					C371.522,194.615,375.027,192.142,375.027,192.142"/>
			</g>
		</g>
		<g opacity="0.1" clip-path="url(#TDB_SVGID_6_)"  a:adobe-blending-mode="multiply">
			<g  a:adobe-blending-mode="normal">
				<defs>
					<rect id="TDB_SVGID_26_" x="112.03" y="262.855" width="19.931" height="46.799"/>
				</defs>
				<clipPath id="TDB_SVGID_27_">
					<use xlink:href="#TDB_SVGID_26_"  overflow="visible"/>
				</clipPath>
				<path clip-path="url(#TDB_SVGID_27_)" fill="#AEA8A2" d="M112.788,262.854c0,0-0.208,14.431,0.618,16.907
					c0.825,2.472,18.555,29.892,18.555,29.892s-15.876-16.079-18.555-25.563C110.726,274.606,112.788,262.854,112.788,262.854"/>
			</g>
		</g>
		<g opacity="0.1" clip-path="url(#TDB_SVGID_6_)"  a:adobe-blending-mode="multiply">
			<g  a:adobe-blending-mode="normal">
				<defs>
					<rect id="TDB_SVGID_28_" x="101.599" y="278.73" width="5.091" height="47.83"/>
				</defs>
				<clipPath id="TDB_SVGID_29_">
					<use xlink:href="#TDB_SVGID_28_"  overflow="visible"/>
				</clipPath>
				<path clip-path="url(#TDB_SVGID_29_)" fill="#AEA8A2" d="M106.19,279.349c0,0-2.681,21.854-2.475,26.594
					c0.207,4.743,1.238,12.989,2.475,14.638c1.236,1.65-0.208,2.681-0.208,2.681l-2.678,3.298c0,0-2.063-16.287-1.65-19.792
					c0.412-3.505,0.824-21.029,2.062-22.677c1.238-1.651,2.267-5.361,2.267-5.361L106.19,279.349z"/>
			</g>
		</g>
		<g opacity="0.1" clip-path="url(#TDB_SVGID_6_)"  a:adobe-blending-mode="multiply">
			<g  a:adobe-blending-mode="normal">
				<defs>
					<rect id="TDB_SVGID_30_" x="151.132" y="342.529" width="13.813" height="26.294"/>
				</defs>
				<clipPath id="TDB_SVGID_31_">
					<use xlink:href="#TDB_SVGID_30_"  overflow="visible"/>
				</clipPath>
				<path clip-path="url(#TDB_SVGID_31_)" fill="#AEA8A2" d="M164.946,368.824c0,0-9.279-6.391-10.308-11.132
					c-1.03-4.743-2.062-14.843-2.062-14.843s-1.444-1.032-1.444,0.618c0,1.647,0.996,13.92,2.269,16.287
					C156.288,365.113,164.946,368.824,164.946,368.824"/>
			</g>
		</g>
		<g opacity="0.1" clip-path="url(#TDB_SVGID_6_)"  a:adobe-blending-mode="multiply">
			<g  a:adobe-blending-mode="normal">
				<defs>
					<rect id="TDB_SVGID_32_" x="83.81" y="339.548" width="4.03" height="20.823"/>
				</defs>
				<clipPath id="TDB_SVGID_33_">
					<use xlink:href="#TDB_SVGID_32_"  overflow="visible"/>
				</clipPath>
				<path clip-path="url(#TDB_SVGID_33_)" fill="#AEA8A2" d="M83.923,339.548c0,0,1.649,6.392,2.268,8.659
					c0.619,2.269,1.648,7.012,1.648,8.452c0,1.444-0.823,3.711-0.823,3.711s-0.412-9.071-2.061-11.751
					C83.304,345.939,83.923,339.548,83.923,339.548"/>
			</g>
		</g>
		<g opacity="0.1" clip-path="url(#TDB_SVGID_6_)"  a:adobe-blending-mode="multiply">
			<g  a:adobe-blending-mode="normal">
				<defs>
					<rect id="TDB_SVGID_34_" x="156.005" y="356.324" width="9.897" height="10.793"/>
				</defs>
				<clipPath id="TDB_SVGID_35_">
					<use xlink:href="#TDB_SVGID_34_"  overflow="visible"/>
				</clipPath>
				<path clip-path="url(#TDB_SVGID_35_)" fill="#AEA8A2" d="M156.005,359.283c0,0,5.153-3.503,6.392-2.887
					c1.237,0.619,2.474,5.155,2.474,5.776c0,0.616,1.031,4.947,1.031,4.947s-2.268-7.834-4.329-7.422
					C159.51,360.107,156.005,359.283,156.005,359.283"/>
			</g>
		</g>
		<g opacity="0.1" clip-path="url(#TDB_SVGID_6_)"  a:adobe-blending-mode="multiply">
			<g  a:adobe-blending-mode="normal">
				<defs>
					<rect id="TDB_SVGID_36_" x="69.481" y="378.262" width="100.643" height="33.031"/>
				</defs>
				<clipPath id="TDB_SVGID_37_">
					<use xlink:href="#TDB_SVGID_36_"  overflow="visible"/>
				</clipPath>
				<path clip-path="url(#TDB_SVGID_37_)" fill="#AEA8A2" d="M69.697,379.545c0.208-1.648,1.65-1.237,1.65-1.237
					s0.825,1.854,1.238,2.472c0.412,0.62,17.11,7.836,32.573,13.197c15.462,5.36,23.709,8.658,32.368,9.688
					c8.66,1.032,24.534,1.444,24.534,1.444c0.62-0.826-0.206-2.475-0.206-2.475s1.441-10.102,3.917-13.607
					c2.473-3.502,2.702-6.034,2.702-6.034l1.65,11.401c0,0-0.165,0.832-0.826,1.574c-0.207,0.231-0.711,2.53-1.498,4.179
					c-0.228,0.475-0.422,1.762-0.422,1.762l0.455-8.138c0,0-0.413-1.238-1.855,0.618c-1.442,1.855-3.917,16.904-3.917,16.904
					s-0.207-1.805-0.261-3.48c-0.606,0.053-2.171,0.182-2.832,0.182c-0.824,0-16.288-1.441-20.617-2.267
					c-4.329-0.825-12.987-2.887-15.873-3.298c-2.886-0.414-15.257-5.155-18.142-6.393c-2.888-1.235-32.368-12.165-33.813-12.165
					C69.079,383.872,69.491,381.194,69.697,379.545"/>
			</g>
		</g>
		<g opacity="0.15" clip-path="url(#TDB_SVGID_6_)"  a:adobe-blending-mode="multiply">
			<g  a:adobe-blending-mode="normal">
				<defs>
					<rect id="TDB_SVGID_38_" x="404.892" y="611.366" width="42.537" height="12.286"/>
				</defs>
				<clipPath id="TDB_SVGID_39_">
					<use xlink:href="#TDB_SVGID_38_"  overflow="visible"/>
				</clipPath>
				<path clip-path="url(#TDB_SVGID_39_)" fill="#AEA8A2" d="M447.2,611.366c0,0-14.855,7.03-21.545,8.414
					c-6.691,1.386-20.764,3.463-20.764,3.463s24.455,1.846,32.989-2.308c8.534-4.152,9.548-5.793,9.548-5.793L447.2,611.366z"/>
			</g>
		</g>
		<g opacity="0.35" clip-path="url(#TDB_SVGID_6_)"  a:adobe-blending-mode="multiply">
			<g  a:adobe-blending-mode="normal">
				<defs>
					<rect id="TDB_SVGID_40_" x="172.372" y="614.477" width="267.815" height="8.487"/>
				</defs>
				<clipPath id="TDB_SVGID_41_">
					<use xlink:href="#TDB_SVGID_40_"  overflow="visible"/>
				</clipPath>
				<path clip-path="url(#TDB_SVGID_41_)" fill="#AEA8A2" d="M440.188,614.477c0,0-12.918,5.766-58.361,6.459
					c-45.444,0.69-139.098,1.155-161.244,0c-22.145-1.155-48.21-3.692-48.21-3.692s56.747,6.921,143.942,5.539
					C403.51,621.397,440.188,614.477,440.188,614.477"/>
			</g>
		</g>
		<g opacity="0.1" clip-path="url(#TDB_SVGID_6_)"  a:adobe-blending-mode="multiply">
			<g  a:adobe-blending-mode="normal">
				<defs>
					<rect id="TDB_SVGID_42_" x="99.652" y="337.958" width="37.108" height="22.903"/>
				</defs>
				<clipPath id="TDB_SVGID_43_">
					<use xlink:href="#TDB_SVGID_42_"  overflow="visible"/>
				</clipPath>
				<path clip-path="url(#TDB_SVGID_43_)" fill="#AEA8A2" d="M136.76,351.954c0,0-9.964-0.85-11.873-0.636
					c-1.91,0.213-11.027,1.697-12.511,0.85c-1.484-0.85-6.148-4.664-6.361-6.787c-0.211-2.12-0.211-7.422-0.211-7.422
					s-1.062,3.817-2.546,3.181c-1.484-0.635-3.181-2.544-3.181-2.544s1.274,5.09,1.697,6.15c0.424,1.06,3.392,5.088,2.968,6.148
					c-0.423,1.06-5.089,5.725-5.089,5.725s4.242-1.909,6.998-1.909c2.756,0,6.361,6.151,6.361,6.151l1.273-4.03l6.149,2.332
					c0,0,0.634-5.3,4.876-5.726C129.551,353.013,136.76,351.954,136.76,351.954"/>
			</g>
		</g>
		<g opacity="0.09" clip-path="url(#TDB_SVGID_6_)"  a:adobe-blending-mode="multiply">
			<g  a:adobe-blending-mode="normal">
				<defs>
					<rect id="TDB_SVGID_44_" x="83.923" y="360.783" width="78.919" height="39.729"/>
				</defs>
				<clipPath id="TDB_SVGID_45_">
					<use xlink:href="#TDB_SVGID_44_"  overflow="visible"/>
				</clipPath>
				<g clip-path="url(#TDB_SVGID_45_)">
					<defs>
						<path id="TDB_SVGID_46_" d="M85.366,364.08c-0.617-1.647-1.443-3.297-1.443-3.297s2.889,1.855,3.094,3.092
							c0.205,1.238,1.237,6.598,1.649,8.247c0.413,1.65,1.444,5.154,1.444,5.154c0.513,1.725,4.667,3.728,5.938,3.728
							c1.271,0,3.181,2.12,3.181,2.97c0,0.849,1.484,2.755,2.333,2.969c0.848,0.212,4.454,2.544,4.454,2.544s0.848-3.18,0.424-4.029
							s2.97-1.484,4.029-1.484c1.06,0,3.393,0.423,4.242,0.849c0.848,0.423,2.967,1.907,2.967,1.907s-0.212-4.666-2.967-5.09
							c-2.758-0.421-7.847-1.059-8.695-1.483c-0.85-0.424-3.182-3.604-3.182-3.604l3.605-4.454c0,0,4.665,3.18,5.513,2.756
							c0.849-0.425,4.242-5.302,4.242-5.302s-1.062,6.575,0.21,7.634c1.273,1.062,4.877,3.393,5.514,4.878
							c0.638,1.484-0.424,8.694,1.273,11.027c1.697,2.333,2.968,4.876,2.968,4.876s7.419,0.213,8.906-0.848
							c1.484-1.061,7.845-4.029,8.694-4.029c0.847,0,3.606,2.544,7.209,1.484c3.604-1.06,4.876,0,7.208-2.757
							c2.334-2.757,4.667-4.876,4.667-4.876s-9.331,11.451-9.756,12.508c-0.423,1.062-5.298,1.062-6.784,1.062
							s-14.42-1.271-14.42-1.271s-7.844-1.06-9.754-1.908c-1.907-0.849-12.723-5.727-14.63-6.151
							c-1.909-0.422-9.964-4.027-11.026-4.453c-1.06-0.423-4.453-0.847-5.937-1.271c-1.484-0.423-3.604-2.546-3.604-3.605
							c0-1.062,2.12-2.756,2.12-3.604c0-0.442-1.329-1.684-2.137-4.711C86.351,371.968,85.949,365.639,85.366,364.08"/>
					</defs>
					<clipPath id="TDB_SVGID_47_">
						<use xlink:href="#TDB_SVGID_46_"  overflow="visible"/>
					</clipPath>
					
						<radialGradient id="TDB_SVGID_48_" cx="0.1279" cy="792.6221" r="0.857" gradientTransform="matrix(-66.48 0 0 -66.48 137.3535 53078.1016)" gradientUnits="userSpaceOnUse">
						<stop  offset="0" style="stop-color:#FFFFFF"/>
						<stop  offset="1" style="stop-color:#AEA8A2"/>
						<a:midPointStop  offset="0" style="stop-color:#FFFFFF"/>
						<a:midPointStop  offset="0.5" style="stop-color:#FFFFFF"/>
						<a:midPointStop  offset="1" style="stop-color:#AEA8A2"/>
					</radialGradient>
					<rect x="83.923" y="360.783" clip-path="url(#TDB_SVGID_47_)" fill="url(#TDB_SVGID_48_)" width="78.92" height="39.729"/>
				</g>
			</g>
		</g>
		<g opacity="0.1" clip-path="url(#TDB_SVGID_6_)"  a:adobe-blending-mode="multiply">
			<g  a:adobe-blending-mode="normal">
				<defs>
					<rect id="TDB_SVGID_49_" x="133.156" y="341.775" width="19.721" height="26.074"/>
				</defs>
				<clipPath id="TDB_SVGID_50_">
					<use xlink:href="#TDB_SVGID_49_"  overflow="visible"/>
				</clipPath>
				<path clip-path="url(#TDB_SVGID_50_)" fill="#AEA8A2" d="M152.876,362.98c0,0-6.149-7.845-6.997-9.33
					c-0.849-1.485-3.395-11.876-3.395-11.876l1.062,13.573c0,0-6.363-2.758-7.634-2.758s-2.757,1.484-2.757,1.484
					s8.906,3.818,10.815,5.514c1.909,1.695,2.97,3.816,1.909,3.816c-1.062,0-4.242,1.695-4.242,1.695s5.723,4.029,7.845,2.333
					C151.604,365.738,152.876,362.98,152.876,362.98"/>
			</g>
		</g>
		
			<path clip-path="url(#TDB_SVGID_6_)" fill="none" stroke="#676564" stroke-width="0.231" stroke-linecap="round" stroke-linejoin="round" stroke-dasharray="1.541,1.541" d="
			M534.67,379.213c0,0-7.33,6.609-63.969,25.391c-26.646,8.833-34.641,3.504-34.641,3.504"/>
		
			<path clip-path="url(#TDB_SVGID_6_)" fill="none" stroke="#676564" stroke-width="0.231" stroke-linecap="round" stroke-linejoin="round" stroke-dasharray="1.541,1.541" d="
			M71.126,376.403c0,0,1.432,3.258,2.136,3.853c0.479,0.405,10.437,6.645,58.272,21.708c8.518,2.682,35.701,2.51,35.701,2.51"/>
		
			<path clip-path="url(#TDB_SVGID_6_)" fill="none" stroke="#676564" stroke-width="0.231" stroke-linecap="round" stroke-linejoin="round" stroke-dasharray="1.541,1.541" d="
			M447.29,610.271c0,0-16.586,5.939-50.006,7.92c-33.424,1.981-160.854,1.343-183.692,0.989
			c-32.183-0.493-55.702-6.684-55.702-6.684"/>
		<g opacity="0.2" clip-path="url(#TDB_SVGID_6_)"  a:adobe-blending-mode="multiply">
			<g  a:adobe-blending-mode="normal">
				<defs>
					<rect id="TDB_SVGID_51_" x="116.085" y="249.527" width="54.264" height="145.917"/>
				</defs>
				<clipPath id="TDB_SVGID_52_">
					<use xlink:href="#TDB_SVGID_51_"  overflow="visible"/>
				</clipPath>
				<g clip-path="url(#TDB_SVGID_52_)">
					<defs>
						<path id="TDB_SVGID_53_" d="M117.132,249.527c0,0,4.314,7.349,5.346,8.585c1.029,1.237,7.214,9.072,7.214,9.072l0.577,5.204
							c0.859,2.43,4.894,13.973,5.815,19.124c1.03,5.771,7.834,18.967,8.04,20.617c0.207,1.649,2.473,3.505,2.473,4.74
							c0,1.238,3.506,4.537,4.535,5.774c1.031,1.239,1.033,7.63,1.033,7.63l10.102,11.956c0,0-1.032-7.215-1.032-8.246
							c0-1.032-5.565-24.535-6.391-30.512c-0.824-5.98-4.329-31.337-5.772-31.131c-1.444,0.207-1.236,19.998-1.236,19.998
							s-1.856-19.174-1.032-22.06c0.396-1.388,1.855-3.711,4.123-0.413c3.485,5.068,13.196,79.374,13.196,79.374
							s-0.065-0.08-0.179-0.22l6.406,46.426l-7.568-47.84c-3.375-4.108-12.017-14.609-12.678-15.271
							c-0.823-0.824-0.825-3.505-0.825-4.741c0-1.238-1.443-5.154-2.886-7.01c-1.442-1.855-4.33-6.392-4.33-7.629
							s-5.773-12.987-6.185-14.637c-0.412-1.651-2.682-7.216-3.092-9.071c-0.331-1.496-1.871-11.833-2.454-15.784
							c-0.827-1.218-9.758-14.364-10.74-15.348c-1.031-1.03-3.505-4.742-3.505-5.566L117.132,249.527z"/>
					</defs>
					<clipPath id="TDB_SVGID_54_">
						<use xlink:href="#TDB_SVGID_53_"  overflow="visible"/>
					</clipPath>
					
						<radialGradient id="TDB_SVGID_55_" cx="-0.6382" cy="792.3096" r="0.8572" gradientTransform="matrix(-21.5346 0 0 -21.5346 116.377 17373.6875)" gradientUnits="userSpaceOnUse">
						<stop  offset="0" style="stop-color:#FFFFFF"/>
						<stop  offset="1" style="stop-color:#AEA8A2"/>
						<a:midPointStop  offset="0" style="stop-color:#FFFFFF"/>
						<a:midPointStop  offset="0.5" style="stop-color:#FFFFFF"/>
						<a:midPointStop  offset="1" style="stop-color:#AEA8A2"/>
					</radialGradient>
					<rect x="116.085" y="249.527" clip-path="url(#TDB_SVGID_54_)" fill="url(#TDB_SVGID_55_)" width="54.264" height="145.917"/>
				</g>
			</g>
		</g>
		
			<path clip-path="url(#TDB_SVGID_6_)" fill="none" stroke="#676564" stroke-width="0.231" stroke-linecap="round" stroke-linejoin="round" stroke-dasharray="1.541,1.541" d="
			M229.452,175.548c0,0,21.814,12.208,80.854,8.606c53.21-3.247,57.839-9.207,57.839-9.207"/>
	</g>
</g>
  <g id="CUSTOM">
</g>
</svg>
