<?xml version="1.0" encoding="utf-8"?>
<!-- Generator: Adobe Illustrator 16.0.0, SVG Export Plug-In . SVG Version: 6.00 Build 0)  -->
<!DOCTYPE svg PUBLIC "-//W3C//DTD SVG 1.1//EN" "http://www.w3.org/Graphics/SVG/1.1/DTD/svg11.dtd">
<svg version="1.1" id="Layer_1" xmlns="http://www.w3.org/2000/svg" xmlns:xlink="http://www.w3.org/1999/xlink" x="0px" y="0px"
	 width="800.453px" height="1035.881px" viewBox="0 0 620 1035.881" enable-background="new 0 0 800.453 1035.881"
	 xml:space="preserve">
<g>
	<defs>
		<rect id="SVGF_SVGID_1_" x="-78" y="9.506" width="792.335" height="1025.375"/>
	</defs>
	<clipPath id="SVGF_SVGID_2_">
		<use xlink:href="#SVGF_SVGID_1_"  overflow="visible"/>
	</clipPath>
	<g clip-path="url(#SVGF_SVGID_2_)">
		<defs>
			<rect id="SVGF_SVGID_3_" x="-78" y="9.506" width="792.335" height="1025.375"/>
		</defs>
		<clipPath id="SVGF_SVGID_4_">
			<use xlink:href="#SVGF_SVGID_3_"  overflow="visible"/>
		</clipPath>
    <g id="MASKFRONT">
    <g id="BODY">
		<path clip-path="url(#SVGF_SVGID_4_)" fill="#FDBB2D" d="M566.678,192.251c0,0-29.624-9.874-71.316-26.332
			c-26.315-10.388-49.562-26.017-64.516-37.239c-7.411,8.08-38.398,36.101-112.301,36.832
			c-73.274,0.727-108.564-30.618-117.956-40.631c-14.439,11.23-40.04,29.414-69.49,41.038
			c-41.692,16.458-71.315,26.332-71.315,26.332s-0.971,0.704-2.482,1.747v0.006c0.018,0.839,0.041,1.766,0.069,2.756
			c0.002,0.079,0.005,0.159,0.008,0.241c0.013,0.464,0.029,0.94,0.045,1.43c0.001,0.028,0.001,0.057,0.002,0.085
			c0.018,0.513,0.038,1.042,0.06,1.58c0.004,0.104,0.007,0.212,0.012,0.318c0.018,0.434,0.037,0.874,0.057,1.322
			c0.006,0.136,0.012,0.271,0.019,0.409c0.025,0.546,0.051,1.102,0.081,1.664c0.002,0.073,0.006,0.146,0.01,0.217
			c0.026,0.489,0.053,0.981,0.082,1.477c0.01,0.175,0.021,0.35,0.031,0.524c0.027,0.471,0.057,0.945,0.088,1.421
			c0.007,0.112,0.014,0.221,0.021,0.33c0.038,0.576,0.079,1.154,0.122,1.735c0.012,0.156,0.025,0.313,0.037,0.47
			c0.034,0.446,0.069,0.889,0.104,1.334c0.016,0.176,0.03,0.353,0.045,0.528c0.049,0.581,0.1,1.159,0.156,1.736
			c0.005,0.063,0.011,0.128,0.018,0.191c0.051,0.518,0.102,1.033,0.156,1.546c0.019,0.173,0.038,0.346,0.056,0.518
			c0.05,0.454,0.102,0.907,0.155,1.353c0.015,0.128,0.03,0.256,0.045,0.385c0.068,0.554,0.14,1.104,0.214,1.644
			c0.018,0.132,0.037,0.26,0.056,0.389c0.061,0.427,0.123,0.849,0.188,1.263c0.022,0.151,0.045,0.301,0.069,0.452
			c0.084,0.522,0.171,1.039,0.261,1.54c2.335,12.846,15.182,60.141,18.101,74.154c2.919,14.014,16.349,88.168,18.101,96.927
			c0.121,0.601,0.229,1.23,0.328,1.88c0.008,0.054,0.016,0.11,0.022,0.165c0.092,0.607,0.174,1.231,0.248,1.87
			c0.01,0.068,0.018,0.136,0.025,0.204c0.072,0.646,0.139,1.305,0.196,1.968c0.005,0.048,0.01,0.096,0.014,0.146
			c0.061,0.708,0.114,1.424,0.159,2.138c0.001,0.01,0.001,0.021,0.001,0.031c0.045,0.708,0.083,1.416,0.114,2.118
			c0.004,0.06,0.005,0.117,0.007,0.174c0.031,0.665,0.055,1.324,0.073,1.97c0.003,0.059,0.004,0.117,0.006,0.176
			c0.019,0.673,0.035,1.333,0.044,1.974c0,0.01,0,0.022,0,0.034c0.012,0.669,0.019,1.318,0.021,1.938
			c0.035-0.086,0.055-0.138,0.055-0.138s6.583,35.109,5.485,49.373c-1.096,14.264,6.583,103.133,12.07,130.563
			c5.484,27.429,12.067,97.649,6.583,127.274c-5.486,29.621-18.653,108.619-21.944,142.631c-3.292,34.014-3.292,59.248-3.292,59.248
			s-4.387,4.388-4.387,8.778c0,4.389,2.195,14.263,2.195,14.263v7.681c0,0,2.192,16.457,47.179,19.749
			c44.983,3.29,98.745,4.388,115.201,7.681c4.283,0.855,9.607,1.712,15.387,2.51l-0.025,0.781c0,0,21.942,3.291,36.206,3.291
			c1.616,0,3.467-0.044,5.485-0.124c2.021,0.08,3.871,0.124,5.487,0.124c14.263,0,36.206-3.291,36.206-3.291l-0.026-0.781
			c5.781-0.798,11.105-1.654,15.387-2.51c16.457-3.293,70.219-4.391,115.204-7.681c44.985-3.292,47.179-19.749,47.179-19.749v-7.681
			c0,0,2.194-9.874,2.194-14.263c0-4.391-4.388-8.778-4.388-8.778s0-25.234-3.294-59.248
			c-3.291-34.012-16.457-113.01-21.943-142.631c-5.484-29.625,1.098-99.846,6.583-127.274
			c5.486-27.43,13.167-116.299,12.069-130.563c-0.944-12.271,3.794-39.949,5.135-47.45c-0.025-5.035,0.144-12.986,1.26-18.57
			c1.751-8.759,15.181-82.913,18.101-96.927c2.919-14.014,15.766-61.309,18.102-74.154c1.646-9.065,2.132-22.193,2.274-29.14
			C567.475,192.83,566.678,192.251,566.678,192.251"/>
	</g>
    </g>
    <g id="CUSTOM"></g>
    </g>
	<g clip-path="url(#SVGF_SVGID_2_)">
		<defs>
			<rect id="SVGF_SVGID_5_" x="-78" y="9.506" width="792.335" height="1025.375"/>
		</defs>
		<clipPath id="SVGF_SVGID_6_">
			<use xlink:href="#SVGF_SVGID_5_"  overflow="visible"/>
		</clipPath>
    <g id="SLEEVES">
		<path clip-path="url(#SVGF_SVGID_6_)" fill="#FDBB2D" d="M555.877,352.582c-0.008,0.035-0.014,0.055-0.014,0.055
			S555.87,352.613,555.877,352.582"/>
		<path clip-path="url(#SVGF_SVGID_6_)" fill="#004D86" d="M97.011,408.789c0-0.012,0-0.023,0-0.034c-0.01-0.641-0.026-1.301-0.045-1.974
			c-0.001-0.059-0.004-0.117-0.005-0.176c-0.019-0.646-0.042-1.305-0.072-1.97c-0.002-0.058-0.005-0.116-0.007-0.174
			c-0.031-0.702-0.069-1.409-0.114-2.118c0-0.009-0.001-0.021-0.001-0.03c-0.047-0.715-0.1-1.432-0.161-2.139
			c-0.003-0.048-0.008-0.098-0.014-0.146c-0.058-0.663-0.123-1.321-0.196-1.968c-0.008-0.067-0.015-0.136-0.023-0.204
			c-0.073-0.639-0.157-1.263-0.247-1.87c-0.008-0.054-0.016-0.111-0.025-0.165c-0.098-0.65-0.208-1.28-0.328-1.88
			c-1.752-8.759-15.181-82.913-18.1-96.927c-2.918-14.013-15.766-61.309-18.1-74.154c-0.092-0.501-0.178-1.018-0.263-1.54
			c-0.023-0.151-0.046-0.3-0.069-0.451c-0.065-0.416-0.127-0.837-0.187-1.264c-0.019-0.129-0.038-0.257-0.056-0.389
			c-0.075-0.54-0.147-1.089-0.214-1.644c-0.017-0.127-0.031-0.256-0.045-0.385c-0.054-0.446-0.106-0.898-0.155-1.353
			c-0.02-0.172-0.038-0.344-0.057-0.518c-0.054-0.513-0.106-1.027-0.155-1.546c-0.006-0.063-0.013-0.127-0.02-0.191
			c-0.054-0.577-0.106-1.155-0.155-1.736c-0.016-0.175-0.03-0.352-0.044-0.528c-0.036-0.445-0.072-0.889-0.105-1.334
			c-0.012-0.156-0.025-0.312-0.037-0.469c-0.043-0.582-0.083-1.159-0.122-1.736c-0.008-0.109-0.013-0.218-0.021-0.33
			c-0.031-0.476-0.062-0.951-0.089-1.421c-0.01-0.176-0.021-0.35-0.03-0.524c-0.03-0.496-0.056-0.988-0.082-1.477
			c-0.004-0.07-0.008-0.144-0.012-0.217c-0.029-0.563-0.056-1.116-0.08-1.664c-0.006-0.139-0.014-0.273-0.02-0.409
			c-0.02-0.448-0.037-0.888-0.056-1.322c-0.004-0.106-0.009-0.214-0.013-0.318c-0.021-0.539-0.042-1.067-0.059-1.58
			c-0.001-0.029-0.002-0.056-0.002-0.084c-0.017-0.492-0.032-0.967-0.046-1.431c-0.003-0.081-0.005-0.16-0.007-0.241
			c-0.03-0.992-0.053-1.916-0.07-2.756v-0.006c-3.878,2.672-11.434,7.646-16.171,9.227c-6.583,2.194-43.886,30.72-54.859,69.122
			c-10.971,38.399-13.166,132.757-13.166,132.757l-3.292,16.458l-3.291,9.874c0,0,38.402,9.874,71.316,12.068
			c32.916,2.195,53.761,2.195,53.761,2.195s2.195-2.195,1.098-8.779c-1.098-6.582-2.194-8.775-1.098-12.068
			c1.025-3.076,4.926-12.861,5.432-14.124C97.028,410.108,97.021,409.458,97.011,408.789"/>
		<path clip-path="url(#SVGF_SVGID_6_)" fill="#004D86" d="M656.645,421.56l-3.29-16.457c0,0-2.194-94.357-13.166-132.758
			c-10.972-38.401-48.276-66.928-54.859-69.123c-4.899-1.632-12.831-6.908-16.57-9.502c-0.143,6.946-0.628,20.074-2.274,29.139
			c-2.336,12.846-15.183,60.141-18.102,74.155c-2.92,14.013-16.35,88.167-18.101,96.926c-1.116,5.584-1.283,13.537-1.26,18.571
			c0.22-1.218,0.352-1.924,0.352-1.924s4.389,10.972,5.486,14.264c1.097,3.293,0,5.487-1.098,12.071
			c-1.097,6.582,1.098,8.776,1.098,8.776s20.847,0,53.761-2.194c32.916-2.195,71.317-12.069,71.317-12.069L656.645,421.56z"/>
	</g>
    </g>
	<g clip-path="url(#SVGF_SVGID_2_)">
		<defs>
			<rect id="SVGF_SVGID_7_" x="-78" y="9.506" width="792.335" height="1025.375"/>
		</defs>
		<clipPath id="SVGF_SVGID_8_">
			<use xlink:href="#SVGF_SVGID_7_"  overflow="visible"/>
		</clipPath>
    <g id="COLLAR">
		<path clip-path="url(#SVGF_SVGID_8_)" fill="#BF2A43" d="M318.547,165.513c73.902-0.731,104.888-28.752,112.299-36.832
			c-8.739-6.557-14.652-11.614-16.676-13.232c-5.486-4.389-5.486-7.681-10.971-10.972c-5.486-3.292-7.68-13.166-18.652-18.651
			c-6.983-3.492-38.408-4.762-60.336-5.223l-0.009-0.264c0,0-4.313,0-10.972,0.081c-6.659-0.081-10.973-0.081-10.973-0.081
			l-0.008,0.264c-21.927,0.461-53.352,1.731-60.336,5.223c-10.972,5.485-13.166,15.359-18.653,18.651
			c-5.486,3.292-5.486,6.583-10.97,10.972c-1.611,1.29-5.698,4.765-11.701,9.433C209.981,134.895,245.27,166.239,318.547,165.513"/>
	</g>
    </g>
	<g clip-path="url(#SVGF_SVGID_2_)">
		<defs>
			<rect id="SVGF_SVGID_9_" x="-78" y="9.506" width="792.335" height="1025.375"/>
		</defs>
		<clipPath id="SVGF_SVGID_10_">
			<use xlink:href="#SVGF_SVGID_9_"  overflow="visible"/>
		</clipPath>
		<path clip-path="url(#SVGF_SVGID_10_)" d="M57.778,206.025c0.027,0.472,0.057,0.945,0.088,1.423
			C57.835,206.971,57.805,206.497,57.778,206.025"/>
		<path clip-path="url(#SVGF_SVGID_10_)" d="M57.667,204.026c0.025,0.487,0.053,0.98,0.082,1.477
			C57.719,205.007,57.692,204.513,57.667,204.026"/>
		<path clip-path="url(#SVGF_SVGID_10_)" d="M97.01,408.755c0,0.011,0,0.023,0,0.034C97.01,408.778,97.01,408.766,97.01,408.755"/>
		<path clip-path="url(#SVGF_SVGID_10_)" d="M57.574,202.145c0.025,0.547,0.051,1.102,0.08,1.665
			C57.625,203.246,57.6,202.691,57.574,202.145"/>
		<path clip-path="url(#SVGF_SVGID_10_)" d="M57.379,197.001c0.015,0.464,0.029,0.939,0.047,1.43
			C57.408,197.941,57.394,197.465,57.379,197.001"/>
		<path clip-path="url(#SVGF_SVGID_10_)" d="M57.5,200.414c0.019,0.434,0.036,0.874,0.056,1.322
			C57.535,201.289,57.518,200.848,57.5,200.414"/>
		<path clip-path="url(#SVGF_SVGID_10_)" d="M57.302,194.004c0.018,0.84,0.041,1.765,0.071,2.756
			C57.342,195.77,57.32,194.843,57.302,194.004"/>
		<path clip-path="url(#SVGF_SVGID_10_)" d="M97.032,410.728"/>
		<path clip-path="url(#SVGF_SVGID_10_)" d="M57.428,198.517c0.018,0.513,0.037,1.041,0.059,1.579
			C57.465,199.558,57.446,199.029,57.428,198.517"/>
		<path clip-path="url(#SVGF_SVGID_10_)" d="M57.888,207.778c0.038,0.576,0.079,1.155,0.122,1.735
			C57.967,208.933,57.926,208.354,57.888,207.778"/>
		<path clip-path="url(#SVGF_SVGID_10_)" d="M58.583,215.836c0.05,0.456,0.102,0.907,0.155,1.353
			C58.685,216.743,58.633,216.29,58.583,215.836"/>
		<path clip-path="url(#SVGF_SVGID_10_)" d="M59.053,219.606c0.06,0.428,0.124,0.848,0.188,1.263
			C59.176,220.455,59.112,220.034,59.053,219.606"/>
		<path clip-path="url(#SVGF_SVGID_10_)" d="M58.783,217.573c0.069,0.555,0.139,1.104,0.214,1.645
			C58.923,218.676,58.852,218.128,58.783,217.573"/>
		<path clip-path="url(#SVGF_SVGID_10_)" d="M96.592,400.03c0.004,0.048,0.01,0.096,0.014,0.144
			C96.602,400.126,96.596,400.078,96.592,400.03"/>
		<path clip-path="url(#SVGF_SVGID_10_)" d="M96.372,397.857c0.008,0.068,0.016,0.136,0.024,0.204
			C96.387,397.993,96.379,397.926,96.372,397.857"/>
		<path clip-path="url(#SVGF_SVGID_10_)" d="M59.31,221.32c0.084,0.523,0.17,1.041,0.261,1.541
			C59.48,222.361,59.394,221.843,59.31,221.32"/>
		<path clip-path="url(#SVGF_SVGID_10_)" d="M58.371,213.772c0.051,0.518,0.102,1.033,0.156,1.546
			C58.473,214.805,58.421,214.29,58.371,213.772"/>
		<path clip-path="url(#SVGF_SVGID_10_)" d="M58.046,209.983c0.033,0.446,0.068,0.89,0.106,1.333
			C58.114,210.873,58.08,210.427,58.046,209.983"/>
		<path clip-path="url(#SVGF_SVGID_10_)" d="M96.101,395.824c0.007,0.054,0.016,0.108,0.024,0.163
			C96.116,395.932,96.108,395.877,96.101,395.824"/>
		<path clip-path="url(#SVGF_SVGID_10_)" d="M96.881,404.461c0.002,0.058,0.005,0.117,0.007,0.175
			C96.886,404.578,96.883,404.52,96.881,404.461"/>
		<path clip-path="url(#SVGF_SVGID_10_)" d="M58.196,211.845c0.049,0.581,0.102,1.159,0.155,1.735
			C58.297,213.004,58.245,212.426,58.196,211.845"/>
		<path clip-path="url(#SVGF_SVGID_10_)" d="M96.765,402.314c0,0.01,0.001,0.021,0.001,0.029
			C96.766,402.335,96.765,402.324,96.765,402.314"/>
		<path clip-path="url(#SVGF_SVGID_10_)" d="M96.96,406.606c0.001,0.059,0.004,0.116,0.005,0.176
			C96.964,406.722,96.961,406.665,96.96,406.606"/>
		<path clip-path="url(#SVGF_SVGID_10_)" d="M96.765,402.314c-0.045-0.716-0.099-1.431-0.16-2.14
			C96.666,400.883,96.72,401.598,96.765,402.314"/>
		<path clip-path="url(#SVGF_SVGID_10_)" d="M97.032,410.728c-0.003-0.62-0.009-1.269-0.021-1.939
			C97.022,409.459,97.029,410.107,97.032,410.728"/>
		<path clip-path="url(#SVGF_SVGID_10_)" d="M96.101,395.824c-0.1-0.65-0.208-1.28-0.328-1.883C95.893,394.543,96,395.173,96.101,395.824
			"/>
		<path clip-path="url(#SVGF_SVGID_10_)" d="M97.01,408.755c-0.009-0.641-0.025-1.301-0.044-1.973
			C96.985,407.454,97.001,408.114,97.01,408.755"/>
		<path clip-path="url(#SVGF_SVGID_10_)" d="M96.881,404.461c-0.031-0.702-0.07-1.408-0.114-2.117
			C96.811,403.053,96.85,403.76,96.881,404.461"/>
		<path clip-path="url(#SVGF_SVGID_10_)" d="M96.96,406.606c-0.019-0.646-0.042-1.305-0.072-1.969
			C96.918,405.301,96.941,405.959,96.96,406.606"/>
		<path clip-path="url(#SVGF_SVGID_10_)" d="M96.372,397.857c-0.074-0.639-0.157-1.263-0.247-1.87
			C96.214,396.595,96.297,397.218,96.372,397.857"/>
		<path clip-path="url(#SVGF_SVGID_10_)" d="M96.592,400.03c-0.058-0.666-0.125-1.322-0.196-1.968
			C96.467,398.708,96.534,399.366,96.592,400.03"/>
		<path clip-path="url(#SVGF_SVGID_10_)" d="M58.583,215.836c-0.02-0.172-0.038-0.345-0.056-0.518
			C58.545,215.491,58.563,215.664,58.583,215.836"/>
		<path clip-path="url(#SVGF_SVGID_10_)" d="M57.428,198.517c-0.001-0.029-0.001-0.057-0.002-0.085
			C57.427,198.46,57.427,198.488,57.428,198.517"/>
		<path clip-path="url(#SVGF_SVGID_10_)" d="M57.5,200.414c-0.004-0.106-0.009-0.214-0.013-0.318
			C57.491,200.2,57.495,200.308,57.5,200.414"/>
		<path clip-path="url(#SVGF_SVGID_10_)" d="M57.667,204.026c-0.004-0.073-0.008-0.145-0.012-0.218
			C57.658,203.882,57.663,203.954,57.667,204.026"/>
		<path clip-path="url(#SVGF_SVGID_10_)" d="M57.574,202.145c-0.007-0.137-0.012-0.273-0.019-0.409
			C57.562,201.873,57.567,202.008,57.574,202.145"/>
		<path clip-path="url(#SVGF_SVGID_10_)" d="M57.302,193.997v0.006V193.997z"/>
		<path clip-path="url(#SVGF_SVGID_10_)" d="M57.379,197.001c-0.002-0.081-0.005-0.162-0.006-0.241
			C57.374,196.841,57.376,196.92,57.379,197.001"/>
		<path clip-path="url(#SVGF_SVGID_10_)" d="M59.31,221.32c-0.024-0.149-0.047-0.3-0.07-0.451
			C59.263,221.021,59.286,221.171,59.31,221.32"/>
		<path clip-path="url(#SVGF_SVGID_10_)" d="M58.371,213.772c-0.006-0.063-0.013-0.128-0.02-0.191
			C58.357,213.645,58.364,213.709,58.371,213.772"/>
		<path clip-path="url(#SVGF_SVGID_10_)" d="M58.783,217.573c-0.016-0.127-0.03-0.257-0.045-0.383
			C58.753,217.316,58.768,217.446,58.783,217.573"/>
		<path clip-path="url(#SVGF_SVGID_10_)" d="M59.053,219.606c-0.019-0.131-0.037-0.259-0.056-0.39
			C59.016,219.347,59.034,219.476,59.053,219.606"/>
		<path clip-path="url(#SVGF_SVGID_10_)" d="M58.046,209.983c-0.012-0.156-0.025-0.313-0.037-0.47
			C58.021,209.669,58.035,209.827,58.046,209.983"/>
		<path clip-path="url(#SVGF_SVGID_10_)" d="M58.196,211.845c-0.015-0.175-0.03-0.352-0.044-0.528
			C58.166,211.494,58.181,211.67,58.196,211.845"/>
		<path clip-path="url(#SVGF_SVGID_10_)" d="M57.888,207.778c-0.008-0.109-0.014-0.218-0.022-0.33
			C57.874,207.56,57.88,207.668,57.888,207.778"/>
		<path clip-path="url(#SVGF_SVGID_10_)" d="M57.778,206.025c-0.01-0.174-0.021-0.349-0.03-0.522
			C57.757,205.676,57.768,205.852,57.778,206.025"/>
		<path clip-path="url(#SVGF_SVGID_10_)" fill="#FFFFFF" d="M318.6,129.91c45.314,0.431,79.838-22.873,79.405-26.757
			c-0.431-3.884-7.862-11.097-12.609-14.548c-4.747-3.453-27.317-5.759-72.632-5.511c-45.831,0.25-61.36,2.003-67.621,3.506
			c-6.263,1.502-16.573,12.939-15.278,15.528C231.16,104.718,273.552,129.48,318.6,129.91"/>
		<g opacity="0.35" clip-path="url(#SVGF_SVGID_10_)">
			<g>
				<defs>
					<rect id="SVGF_SVGID_11_" x="229.754" y="83.077" width="168.256" height="46.839"/>
				</defs>
				<clipPath id="SVGF_SVGID_12_">
					<use xlink:href="#SVGF_SVGID_11_"  overflow="visible"/>
				</clipPath>
				<g clip-path="url(#SVGF_SVGID_12_)">
					<defs>
						<path id="SVGF_SVGID_13_" d="M318.599,129.91c45.313,0.431,79.839-22.873,79.407-26.757c-0.433-3.884-7.863-11.097-12.61-14.548
							c-4.747-3.453-27.317-5.759-72.63-5.511c-45.834,0.25-61.362,2.003-67.623,3.506c-6.262,1.502-16.574,12.939-15.279,15.528
							S273.552,129.48,318.599,129.91"/>
					</defs>
					<clipPath id="SVGF_SVGID_14_">
						<use xlink:href="#SVGF_SVGID_13_"  overflow="visible"/>
					</clipPath>
					
						<radialGradient id="SVGF_SVGID_15_" cx="93.9146" cy="916.7969" r="1.294" gradientTransform="matrix(102.1332 0 0 -40.5422 -9276.6875 37254.4922)" gradientUnits="userSpaceOnUse">
						<stop  offset="0" style="stop-color:#FFFFFF"/>
						<stop  offset="1" style="stop-color:#FFFFFF"/>
					</radialGradient>
					<rect x="228.569" y="82.847" clip-path="url(#SVGF_SVGID_14_)" fill="url(#SVGF_SVGID_15_)" width="169.869" height="47.495"/>
				</g>
				<g clip-path="url(#SVGF_SVGID_12_)">
					<defs>
						<path id="SVGF_SVGID_16_" d="M318.599,129.91c45.313,0.431,79.839-22.873,79.407-26.757c-0.433-3.884-7.863-11.097-12.61-14.548
							c-4.747-3.453-27.317-5.759-72.63-5.511c-45.834,0.25-61.362,2.003-67.623,3.506c-6.262,1.502-16.574,12.939-15.279,15.528
							S273.552,129.48,318.599,129.91"/>
					</defs>
					<clipPath id="SVGF_SVGID_17_">
						<use xlink:href="#SVGF_SVGID_16_"  overflow="visible"/>
					</clipPath>
					
						<radialGradient id="SVGF_SVGID_18_" cx="93.9146" cy="916.7969" r="1.294" gradientTransform="matrix(102.1332 0 0 -40.5422 -9276.6875 37254.4922)" gradientUnits="userSpaceOnUse">
						<stop  offset="0" style="stop-color:#FFFFFF"/>
						<stop  offset="0.1085" style="stop-color:#EBEBEB"/>
						<stop  offset="0.3309" style="stop-color:#B7B7B7"/>
						<stop  offset="0.6481" style="stop-color:#646464"/>
						<stop  offset="1" style="stop-color:#000000"/>
					</radialGradient>
					<rect x="228.569" y="82.847" clip-path="url(#SVGF_SVGID_17_)" fill="url(#SVGF_SVGID_18_)" width="169.869" height="47.495"/>
				</g>
			</g>
		</g>
		<g opacity="0.5" clip-path="url(#SVGF_SVGID_10_)">
			<g>
				<defs>
					<rect id="SVGF_SVGID_19_" x="-6.714" y="92.468" width="646.908" height="875.201"/>
				</defs>
				<clipPath id="SVGF_SVGID_20_">
					<use xlink:href="#SVGF_SVGID_19_"  overflow="visible"/>
				</clipPath>
				<g opacity="0.1" clip-path="url(#SVGF_SVGID_20_)">
					<g>
						<defs>
							<rect id="SVGF_SVGID_21_" x="372.981" y="92.468" width="195.777" height="866.454"/>
						</defs>
						<clipPath id="SVGF_SVGID_22_">
							<use xlink:href="#SVGF_SVGID_21_"  overflow="visible"/>
						</clipPath>
						<path clip-path="url(#SVGF_SVGID_22_)" fill="#897F76" d="M530.282,393.941c1.751-8.759,15.181-82.913,18.101-96.926
							c2.919-14.014,15.766-61.309,18.102-74.155c1.646-9.065,2.132-22.193,2.274-29.139c-1.284-0.89-2.081-1.471-2.081-1.471
							s-29.625-9.875-71.316-26.332c-41.693-16.457-75.705-46.081-81.191-50.468c-5.486-4.391-5.486-7.682-10.971-10.973
							c-3.632-2.18-5.834-7.242-10.084-12.008l-2.23,0.78c3.561,3.405,6.838,7.364,7.121,9.905
							c0.229,2.051-9.306,9.521-25.024,16.05c1.271,2.638,2.189,5.128,2.337,7.045c0.566,7.357,0,6.79,0,17.545
							c0,10.753,3.961,21.505,10.754,37.353c6.791,15.847,14.148,7.357,19.242,29.998c5.095,22.638-25.469,18.677-25.469,18.677
							s27.734,3.961,58.296,2.263c30.563-1.697,23.771,0,45.278-2.263c21.507-2.265,21.507-5.66,54.333,3.396
							s7.923,29.431,5.66,52.635c-2.265,23.206-35.09,19.809-44.712,32.26c-9.623,12.452-3.396,109.234-2.264,119.987
							c1.132,10.754-22.073,29.431-22.073,29.431s-6.228,18.113-10.188,31.694c-3.962,13.584,6.226,41.884,5.659,72.445
							c-0.564,30.563-28.299,70.747-37.919,92.819c-9.622,22.074-2.265,43.58,13.582,91.69c15.848,48.105,6.227,6.223,18.11,20.938
							c11.887,14.718,6.227,9.056,12.452,29.997c6.227,20.94,8.489,52.638,8.489,52.638s2.265,32.823,10.189,62.821
							c7.922,29.996,4.526,16.413,24.902,33.958l6.453,2.39c6.023-4.479,6.57-8.522,6.57-8.522v-7.683c0,0,2.194-9.872,2.194-14.261
							c0-4.391-4.388-8.778-4.388-8.778s0-25.234-3.294-59.248c-3.291-34.012-16.457-113.008-21.943-142.631
							c-5.484-29.625,1.098-99.845,6.583-127.274c5.486-27.429,13.167-116.299,12.069-130.563
							c-0.944-12.27,3.794-39.948,5.135-47.45C528.999,407.479,529.166,399.525,530.282,393.941"/>
					</g>
				</g>
				<g opacity="0.1" clip-path="url(#SVGF_SVGID_20_)">
					<g>
						<defs>
							<rect id="SVGF_SVGID_23_" x="57.302" y="96.723" width="220.818" height="870.946"/>
						</defs>
						<clipPath id="SVGF_SVGID_24_">
							<use xlink:href="#SVGF_SVGID_23_"  overflow="visible"/>
						</clipPath>
						<path clip-path="url(#SVGF_SVGID_24_)" fill="#897F76" d="M274.563,122.705c-25.341-7.655-43.849-18.879-44.698-20.576
							c-0.415-0.829,0.369-2.57,1.821-4.597c-0.596-0.287-1.168-0.56-1.692-0.81c-2.339,3.271-4.184,6.226-6.733,7.755
							c-5.486,3.291-5.486,6.582-10.971,10.971c-5.485,4.39-39.498,34.013-81.191,50.47c-41.692,16.458-71.316,26.333-71.316,26.333
							s-0.968,0.702-2.48,1.744c0.149,7.015,0.643,19.92,2.269,28.866c2.336,12.846,15.182,60.141,18.101,74.155
							c2.919,14.013,16.349,88.167,18.101,96.926c0.992,4.96,1.234,11.793,1.259,16.787c0.035-0.088,0.055-0.141,0.055-0.141
							s6.583,35.11,5.485,49.374c-1.096,14.264,6.583,103.134,12.07,130.563c5.484,27.43,12.067,97.649,6.583,127.274
							c-5.485,29.623-18.653,108.619-21.944,142.631c-3.292,34.014-3.292,59.249-3.292,59.249s-4.387,4.387-4.387,8.777
							c0,4.389,2.192,14.263,2.192,14.263v7.681c0,0,1.561,11.601,28.686,17.27c2.319-13.186,5.764-36.371,3.81-48.49
							c-2.83-17.546,2.264-14.15,10.187-26.036c7.923-11.886,6.226-51.503,7.357-99.046c1.132-47.541,90.557-24.336,90.557-24.336
							s7.356-10.188,6.226-24.337c-1.133-14.149-45.843-76.407-54.333-90.556c-8.489-14.149,4.529-12.451,4.529-12.451
							s-12.452-5.66-17.546-33.393c-5.094-27.732,8.49-61.691,20.941-91.122s48.673-59.992,48.673-59.992
							s-39.052,6.225-76.405-10.755c-37.355-16.979-39.62-45.844-44.713-134.702c-5.095-88.857,3.396-106.403,23.77-107.536
							c20.376-1.131,92.254,22.639,103.007,27.167c0,0,6.792-14.148,4.529-22.638c-2.263-8.491,4.529-22.073,12.451-36.79
							c7.923-14.715,7.923-7.923,10.754-10.187c2.829-2.264,0.565-15.281-1.133-19.242c-1.698-3.963-0.565-5.095,2.832-14.151
							C278.592,127.418,277.215,125.206,274.563,122.705"/>
					</g>
				</g>
				<g opacity="0.12" clip-path="url(#SVGF_SVGID_20_)">
					<g>
						<defs>
							<rect id="SVGF_SVGID_25_" x="-6.714" y="266.044" width="101.31" height="145.456"/>
						</defs>
						<clipPath id="SVGF_SVGID_26_">
							<use xlink:href="#SVGF_SVGID_25_"  overflow="visible"/>
						</clipPath>
						<path clip-path="url(#SVGF_SVGID_26_)" fill="#897F76" d="M70.258,358.863c-2.831-4.527-68.483-92.819-68.483-92.819
							s1.133,8.489,5.661,18.111c4.528,9.622,50.371,67.351,50.371,67.351s-41.317-45.278-43.579-48.107
							c-2.264-2.83-20.942-17.547-20.942-15.282c0,2.264,14.15,17.545,25.468,28.298c11.32,10.754,34.523,33.959,45.278,50.372
							C74.787,383.2,94.595,411.5,94.595,411.5s-3.962-16.414-6.792-23.206C84.973,381.502,73.088,363.393,70.258,358.863"/>
					</g>
				</g>
				<g opacity="0.12" clip-path="url(#SVGF_SVGID_20_)">
					<g>
						<defs>
							<rect id="SVGF_SVGID_27_" x="6.304" y="252.46" width="44.146" height="50.937"/>
						</defs>
						<clipPath id="SVGF_SVGID_28_">
							<use xlink:href="#SVGF_SVGID_27_"  overflow="visible"/>
						</clipPath>
						<path clip-path="url(#SVGF_SVGID_28_)" fill="#897F76" d="M25.546,280.192c-3.961-5.66-19.242-27.731-19.242-27.731
							s6.224,23.205,18.676,35.09c12.451,11.885,25.469,15.847,25.469,15.847S29.509,285.853,25.546,280.192"/>
					</g>
				</g>
				<g opacity="0.12" clip-path="url(#SVGF_SVGID_20_)">
					<g>
						<defs>
							<rect id="SVGF_SVGID_29_" x="537.188" y="283.024" width="103.007" height="103.573"/>
						</defs>
						<clipPath id="SVGF_SVGID_30_">
							<use xlink:href="#SVGF_SVGID_29_"  overflow="visible"/>
						</clipPath>
						<path clip-path="url(#SVGF_SVGID_30_)" fill="#897F76" d="M637.93,283.023c0,0-7.356,14.715-13.583,26.034
							c-6.226,11.321-32.826,32.827-46.975,40.75c-14.149,7.925-40.185,36.79-40.185,36.79s11.885-2.265,19.243-7.923
							c7.357-5.661,54.332-24.337,72.444-50.372C646.986,302.265,637.93,283.023,637.93,283.023"/>
					</g>
				</g>
				<g opacity="0.12" clip-path="url(#SVGF_SVGID_20_)">
					<g>
						<defs>
							<rect id="SVGF_SVGID_31_" x="546.807" y="369.052" width="82.068" height="33.748"/>
						</defs>
						<clipPath id="SVGF_SVGID_32_">
							<use xlink:href="#SVGF_SVGID_31_"  overflow="visible"/>
						</clipPath>
						<path clip-path="url(#SVGF_SVGID_32_)" fill="#897F76" d="M592.651,391.124c-15.847,4.528-45.843,10.188-45.843,10.188
							s21.507,5.661,48.107-5.093c26.602-10.754,33.959-27.167,33.959-27.167S608.5,386.597,592.651,391.124"/>
					</g>
				</g>
				<g opacity="0.12" clip-path="url(#SVGF_SVGID_20_)">
					<g>
						<defs>
							<rect id="SVGF_SVGID_33_" x="555.878" y="293.626" width="60.546" height="58.957"/>
						</defs>
						<clipPath id="SVGF_SVGID_34_">
							<use xlink:href="#SVGF_SVGID_33_"  overflow="visible"/>
						</clipPath>
						<path clip-path="url(#SVGF_SVGID_34_)" fill="#897F76" d="M594.35,301.135c-10.754,12.451-14.148,16.978-23.771,22.638
							c-9.368,5.512-14.441,27.647-14.702,28.81c0.228-1.005,3.822-16.001,16.4-22.018c13.017-6.226,22.072-5.66,28.3-16.413
							c6.226-10.753,15.847-18.678,15.847-18.678S605.104,288.683,594.35,301.135"/>
					</g>
				</g>
			</g>
		</g>
	</g>
	<g clip-path="url(#SVGF_SVGID_2_)">
		<defs>
			<rect id="SVGF_SVGID_35_" x="-78" y="9.506" width="792.335" height="1025.375"/>
		</defs>
		<clipPath id="SVGF_SVGID_36_">
			<use xlink:href="#SVGF_SVGID_35_"  overflow="visible"/>
		</clipPath>
		<g opacity="0.35" clip-path="url(#SVGF_SVGID_36_)">
			<g>
				<defs>
					<rect id="SVGF_SVGID_37_" x="204.132" y="121.781" width="223.758" height="39.863"/>
				</defs>
				<clipPath id="SVGF_SVGID_38_">
					<use xlink:href="#SVGF_SVGID_37_"  overflow="visible"/>
				</clipPath>
				<path clip-path="url(#SVGF_SVGID_38_)" fill="none" stroke="#00AB5D" stroke-miterlimit="10" stroke-dasharray="0.859,0.859" d="
					M427.351,126.457c0,0-22.376,33.669-108.752,34.525c-87.174,0.862-113.931-38.84-113.931-38.84"/>
			</g>
		</g>
		<g opacity="0.35" clip-path="url(#SVGF_SVGID_36_)">
			<g>
				<defs>
					<rect id="SVGF_SVGID_39_" x="-28.185" y="409.667" width="119.788" height="15.833"/>
				</defs>
				<clipPath id="SVGF_SVGID_40_">
					<use xlink:href="#SVGF_SVGID_39_"  overflow="visible"/>
				</clipPath>
				<path clip-path="url(#SVGF_SVGID_40_)" fill="none" stroke="#00AB5D" stroke-miterlimit="10" stroke-dasharray="0.859,0.859" d="
					M-28.013,410.291c0,0,27.443,7.59,61.893,11.094c34.45,3.503,57.722,3.468,57.722,3.468"/>
			</g>
		</g>
		<g opacity="0.35" clip-path="url(#SVGF_SVGID_36_)">
			<g>
				<defs>
					<rect id="SVGF_SVGID_41_" x="-28.185" y="414.849" width="119.788" height="15.834"/>
				</defs>
				<clipPath id="SVGF_SVGID_42_">
					<use xlink:href="#SVGF_SVGID_41_"  overflow="visible"/>
				</clipPath>
				<path clip-path="url(#SVGF_SVGID_42_)" fill="none" stroke="#00AB5D" stroke-miterlimit="10" stroke-dasharray="0.859,0.859" d="
					M-28.013,415.474c0,0,27.443,7.59,61.893,11.094s57.722,3.469,57.722,3.469"/>
			</g>
		</g>
		<g opacity="0.35" clip-path="url(#SVGF_SVGID_36_)">
			<g>
				<defs>
					<rect id="SVGF_SVGID_43_" x="535.616" y="409.667" width="119.789" height="15.833"/>
				</defs>
				<clipPath id="SVGF_SVGID_44_">
					<use xlink:href="#SVGF_SVGID_43_"  overflow="visible"/>
				</clipPath>
				<path clip-path="url(#SVGF_SVGID_44_)" fill="none" stroke="#00AB5D" stroke-miterlimit="10" stroke-dasharray="0.859,0.859" d="
					M655.23,410.291c0,0-27.441,7.59-61.893,11.094c-34.447,3.503-57.721,3.468-57.721,3.468"/>
			</g>
		</g>
		<g opacity="0.35" clip-path="url(#SVGF_SVGID_36_)">
			<g>
				<defs>
					<rect id="SVGF_SVGID_45_" x="535.616" y="414.849" width="119.789" height="15.834"/>
				</defs>
				<clipPath id="SVGF_SVGID_46_">
					<use xlink:href="#SVGF_SVGID_45_"  overflow="visible"/>
				</clipPath>
				<path clip-path="url(#SVGF_SVGID_46_)" fill="none" stroke="#00AB5D" stroke-miterlimit="10" stroke-dasharray="0.859,0.859" d="
					M655.23,415.474c0,0-27.441,7.59-61.893,11.094c-34.447,3.503-57.721,3.469-57.721,3.469"/>
			</g>
		</g>
		<g opacity="0.35" clip-path="url(#SVGF_SVGID_36_)">
			<g>
				<defs>
					<rect id="SVGF_SVGID_47_" x="92.843" y="919.502" width="438.251" height="43.266"/>
				</defs>
				<clipPath id="SVGF_SVGID_48_">
					<use xlink:href="#SVGF_SVGID_47_"  overflow="visible"/>
				</clipPath>
				<path clip-path="url(#SVGF_SVGID_48_)" fill="none" stroke="#00AB5D" stroke-miterlimit="10" stroke-dasharray="0.859,0.859" d="
					M93.438,922.364c0,0,9.341,21.604,60.724,28.61s105.543,11.686,163.491,11.095c57.222-0.584,170.435-19.084,182.759-21.604
					c25.691-5.256,30.062-20.787,30.062-20.787"/>
			</g>
		</g>
		<g opacity="0.35" clip-path="url(#SVGF_SVGID_36_)">
			<g>
				<defs>
					<rect id="SVGF_SVGID_49_" x="91.407" y="923.708" width="442.411" height="45.537"/>
				</defs>
				<clipPath id="SVGF_SVGID_50_">
					<use xlink:href="#SVGF_SVGID_49_"  overflow="visible"/>
				</clipPath>
				<path clip-path="url(#SVGF_SVGID_50_)" fill="none" stroke="#00AB5D" stroke-miterlimit="10" stroke-dasharray="0.859,0.859" d="
					M91.984,929.075c0,0,10.794,21.372,62.177,28.379s105.543,11.686,163.491,11.094c57.222-0.584,170.435-19.085,182.759-21.604
					c25.689-5.257,32.806-22.995,32.806-22.995"/>
			</g>
		</g>
		<g opacity="0.35" clip-path="url(#SVGF_SVGID_36_)">
			<g>
				<defs>
					<rect id="SVGF_SVGID_51_" x="528.374" y="193.719" width="41.032" height="223.604"/>
				</defs>
				<clipPath id="SVGF_SVGID_52_">
					<use xlink:href="#SVGF_SVGID_51_"  overflow="visible"/>
				</clipPath>
				<path clip-path="url(#SVGF_SVGID_52_)" fill="none" stroke="#00AB5D" stroke-miterlimit="10" d="M568.759,193.721
					c0,0,0.061,16.293-2.274,29.139c-2.337,12.846-15.183,60.141-18.102,74.155c-2.92,14.013-16.35,88.167-18.101,96.926
					c-1.752,8.758-1.168,23.356-1.168,23.356"/>
			</g>
		</g>
		<g opacity="0.35" clip-path="url(#SVGF_SVGID_36_)">
			<g>
				<defs>
					<rect id="SVGF_SVGID_53_" x="56.654" y="193.995" width="41.027" height="223.329"/>
				</defs>
				<clipPath id="SVGF_SVGID_54_">
					<use xlink:href="#SVGF_SVGID_53_"  overflow="visible"/>
				</clipPath>
				<path clip-path="url(#SVGF_SVGID_54_)" fill="none" stroke="#00AB5D" stroke-miterlimit="10" d="M57.302,193.997
					c0,0-0.067,16.02,2.269,28.863c2.336,12.846,15.182,60.141,18.101,74.155c2.919,14.013,16.348,88.167,18.1,96.926
					c1.752,8.758,1.168,23.356,1.168,23.356"/>
			</g>
		</g>
		<g opacity="0.35" clip-path="url(#SVGF_SVGID_36_)">
			<g>
				<defs>
					<rect id="SVGF_SVGID_55_" x="201.146" y="124.543" width="230.225" height="41.63"/>
				</defs>
				<clipPath id="SVGF_SVGID_56_">
					<use xlink:href="#SVGF_SVGID_55_"  overflow="visible"/>
				</clipPath>
				<path clip-path="url(#SVGF_SVGID_56_)" fill="none" stroke="#00AB5D" stroke-miterlimit="10" stroke-dasharray="0.859,0.859" d="
					M430.846,128.681c0,0-25.924,35.977-112.301,36.833c-87.172,0.863-116.873-40.592-116.873-40.592"/>
			</g>
		</g>
	</g>
</g>
</svg>
