<?xml version="1.0" encoding="utf-8"?>
<!-- Generator: Adobe Illustrator 26.0.2, SVG Export Plug-In . SVG Version: 6.00 Build 0)  -->
<svg version="1.1" id="Layer_1" xmlns="http://www.w3.org/2000/svg" xmlns:xlink="http://www.w3.org/1999/xlink" x="0px" y="0px"
	 viewBox="0 0 755.5 1035.9" enable-background="new 0 0 800.5 1035.9" xml:space="preserve">
<g>
</g>
<g id="XMLID_170_">
	
		<!--<image overflow="visible" opacity="0.15" width="448" height="992" xlink:href="EA1505CF.png"  transform="matrix(1 0 0 1 155.5054 18.3864)">
	</image>-->
	<g id="BODY">
		<path fill="#FFFFFF" d="M258.8,38.9c0,0,50.8,167.4,119.3,167.4c72.9,0,112.4-166.8,112.4-166.8l37.7,17.2c0,0-6.1,72.6-4.9,131.8
			c2.2,112.7,38.6,142.4,37.9,144c-0.7,1.7-2,5-2,5s-7.3,53.2-7.9,63.4c-0.7,10.2,0,76,0,80.6c0,4.6,0,27.1,0.3,28.7
			c0.3,1.7,1,13.9,1.3,16.9c0.3,3,7.6,38,8.6,42.3c1,4.3,11.2,93.8,11.9,101.1c0.7,7.3,7.6,75,8.3,83.6c0.7,8.6,2.6,59.5,1.7,84.9
			c-1,25.4-4.3,77.3-4.6,80.6c-0.3,3.3-2.3,21.1-3.3,23.5c-1,2.3-5,13.6-5,15.2c0,1.7,1.3,9.6,1.7,10.9c0.3,1.3,1,5.6,0,7.9
			c-1,2.3-3.6,2.3-3.6,2.3s-28.4-0.3-36,0c-7.6,0.3-60.5,5.9-76.3,5.3c-15.9-0.7-34-4.3-34-4.3s0-6.6,0-10.6c0-4,0-10.2,0-10.2
			l1.6-4.6c0,0-5.3-32.7-5.9-38.3c-0.7-5.6-9.9-46.6-15.9-73.7c-6-27.1-12.6-55.5-12.6-57.8c0-2.3-4-25.4-4-25.4l-9.6-0.7
			c0,0-10.6,66.7-12.2,75.3c-1.7,8.6-12.9,46.9-14.2,50.2c-1.3,3.3-9.2,38.3-10.2,43.9c-1,5.6-5,30.4-5,33c0,2.6-1,8.6-0.7,9.6
			c0.3,1,1.7,4,1.7,4s-3.6,7.9-6.6,8.6c-3,0.7-33.4,5.9-54.8,5.9c-21.5,0-65.7-5-67.7-5c-2,0-11.2-0.7-12.6-1
			c-1.3-0.3-5.9-1.7-5.9-1.7s-2.3-10.9-1.7-12.2c0.7-1.3,0-7.3,0-7.3s-6.9-46.3-7.9-52.9c-1-6.6-3-76.7-2.6-86.9
			c0.3-10.2,1-66.4,2.3-78.3c1.3-11.9,12.6-101.1,13.9-108.7c1.3-7.6,14.2-70.4,15.5-74c1.3-3.6,10.9-37,10.9-39.3
			c0-2.3-4-82.9-4-84.9c0-2-1.6-26.1-1.6-28.1c0-2-5.6-19.8-5.6-21.5c0-1.7-4.9-25.4-5.3-28.1c-0.3-2.6-0.7-9.6-0.7-9.6l-2.6-5.9
			l-1.3-6.9c0,0,29.9-58,29.9-138.5c0-66.8-10.1-146.6-10.1-146.6L258.8,38.9z"/>
		<path fill="none" stroke="#897F76" stroke-width="0.6498" stroke-miterlimit="10" d="M258.8,38.9c0,0,50.8,167.4,119.3,167.4
			c72.9,0,112.4-166.8,112.4-166.8l37.7,17.2c0,0-6.1,72.6-4.9,131.8c2.2,112.7,38.6,142.4,37.9,144c-0.7,1.7-2,5-2,5
			s-7.3,53.2-7.9,63.4c-0.7,10.2,0,76,0,80.6c0,4.6,0,27.1,0.3,28.7c0.3,1.7,1,13.9,1.3,16.9c0.3,3,7.6,38,8.6,42.3
			c1,4.3,11.2,93.8,11.9,101.1c0.7,7.3,7.6,75,8.3,83.6c0.7,8.6,2.6,59.5,1.7,84.9c-1,25.4-4.3,77.3-4.6,80.6
			c-0.3,3.3-2.3,21.1-3.3,23.5c-1,2.3-5,13.6-5,15.2c0,1.7,1.3,9.6,1.7,10.9c0.3,1.3,1,5.6,0,7.9c-1,2.3-3.6,2.3-3.6,2.3
			s-28.4-0.3-36,0c-7.6,0.3-60.5,5.9-76.3,5.3c-15.9-0.7-34-4.3-34-4.3s0-6.6,0-10.6c0-4,0-10.2,0-10.2l1.6-4.6
			c0,0-5.3-32.7-5.9-38.3c-0.7-5.6-9.9-46.6-15.9-73.7c-6-27.1-12.6-55.5-12.6-57.8c0-2.3-4-25.4-4-25.4l-9.6-0.7
			c0,0-10.6,66.7-12.2,75.3c-1.7,8.6-12.9,46.9-14.2,50.2c-1.3,3.3-9.2,38.3-10.2,43.9c-1,5.6-5,30.4-5,33c0,2.6-1,8.6-0.7,9.6
			c0.3,1,1.7,4,1.7,4s-3.6,7.9-6.6,8.6c-3,0.7-33.4,5.9-54.8,5.9c-21.5,0-65.7-5-67.7-5c-2,0-11.2-0.7-12.6-1
			c-1.3-0.3-5.9-1.7-5.9-1.7s-2.3-10.9-1.7-12.2c0.7-1.3,0-7.3,0-7.3s-6.9-46.3-7.9-52.9c-1-6.6-3-76.7-2.6-86.9
			c0.3-10.2,1-66.4,2.3-78.3c1.3-11.9,12.6-101.1,13.9-108.7c1.3-7.6,14.2-70.4,15.5-74c1.3-3.6,10.9-37,10.9-39.3
			c0-2.3-4-82.9-4-84.9c0-2-1.6-26.1-1.6-28.1c0-2-5.6-19.8-5.6-21.5c0-1.7-4.9-25.4-5.3-28.1c-0.3-2.6-0.7-9.6-0.7-9.6l-2.6-5.9
			l-1.3-6.9c0,0,29.9-58,29.9-138.5c0-66.8-10.1-146.6-10.1-146.6L258.8,38.9z"/>
	</g>
</g>
<g id="XMLID_15_" display="none">
	<path id="XMLID_153_" display="inline" fill="#BE2A43" d="M183,970.3c0,6.9,0,13.9,0,20.8c50.5,7.7,102.9,7.7,153.5,0
		c0-6.9,0-13.9,0-20.8C286,978.1,233.6,978.1,183,970.3z"/>
	<path id="XMLID_152_" display="inline" fill="#BE2A43" d="M421.8,970.3c0,6.9,0,13.9,0,20.8c50.1,7.7,102,7.7,152.1,0
		c0-6.9,0-13.9,0-20.8C523.8,978.1,471.9,978.1,421.8,970.3z"/>
</g>
<g id="XMLID_14_" display="none">
	<path id="XMLID_151_" display="inline" fill="#FFCE2A" d="M183,947.8c0,7.5,0,15,0,22.6c50.5,7.7,102.9,7.7,153.5,0
		c0-7.5,0-15,0-22.6C286,955.5,233.6,955.5,183,947.8z"/>
	<path id="XMLID_150_" display="inline" fill="#FFCE2A" d="M421.8,947.8c0,7.5,0,15,0,22.6c50.1,7.7,102,7.7,152.1,0
		c0-7.5,0-15,0-22.6C523.8,955.5,471.9,955.5,421.8,947.8z"/>
</g>
<g id="NECK_x2F_ARM_TRIM">
	<path id="XMLID_149_" fill="#C64421" d="M183,956.5c0,2.7,0,5.4,0,8.1c50.5,7.7,102.9,7.7,153.5,0c0-2.7,0-5.4,0-8.1
		C286,964.2,233.6,964.2,183,956.5z"/>
	<path id="XMLID_148_" fill="#C64421" d="M183,974.7c0,2.6,0,5.2,0,7.8c50.5,7.7,102.9,7.7,153.5,0c0-2.6,0-5.2,0-7.8
		C286,982.4,233.6,982.4,183,974.7z"/>
	<path id="XMLID_147_" fill="#C64421" d="M421.8,956.5c0,2.7,0,5.4,0,8.1c50.1,7.7,102,7.7,152.1,0c0-2.7,0-5.4,0-8.1
		C523.8,964.2,471.9,964.2,421.8,956.5z"/>
	<path id="XMLID_146_" fill="#C64421" d="M421.8,974.7c0,2.6,0,5.2,0,7.8c50.1,7.7,102,7.7,152.1,0c0-2.6,0-5.2,0-7.8
		C523.8,982.4,471.9,982.4,421.8,974.7z"/>
</g>
<g id="BODY">
	<path id="XMLID_145_" fill="#004D2A" d="M183,964.5c0,3.4,0,6.8,0,10.1c50.5,7.7,102.9,7.7,153.5,0c0-3.4,0-6.8,0-10.1
		C286,972.3,233.6,972.3,183,964.5z"/>
	<path id="XMLID_144_" fill="#004D2A" d="M421.8,964.5c0,3.4,0,6.8,0,10.1c50.1,7.7,102,7.7,152.1,0c0-3.4,0-6.8,0-10.1
		C523.8,972.3,471.9,972.3,421.8,964.5z"/>
	<path id="XMLID_143_" fill="#004D2A" d="M183,982.5c0,2.9,0,5.8,0,8.7c50.5,7.7,102.9,7.7,153.5,0c0-2.9,0-5.8,0-8.7
		C286,990.2,233.6,990.2,183,982.5z"/>
	<path id="XMLID_141_" display="none" fill="#004D2A" d="M183,947.8c0,2.9,0,5.8,0,8.7c50.5,7.7,102.9,7.7,153.5,0
		c0-2.9,0-5.8,0-8.7C286,955.5,233.6,955.5,183,947.8z"/>
	<path id="XMLID_139_" fill="#004D2A" d="M421.8,982.5c0,2.9,0,5.8,0,8.7c50.1,7.7,102,7.7,152.1,0c0-2.9,0-5.8,0-8.7
		C523.8,990.2,471.9,990.2,421.8,982.5z"/>
	<path id="XMLID_138_" display="none" fill="#004D2A" d="M421.8,947.8c0,2.9,0,5.8,0,8.7c50.1,7.7,102,7.7,152.1,0
		c0-2.9,0-5.8,0-8.7C523.8,955.5,471.9,955.5,421.8,947.8z"/>
</g>
<g id="XMLID_9_" display="none">
	<path id="XMLID_137_" display="inline" fill="#FFFFFF" d="M183,956.5c0,2.7,0,5.4,0,8.1c50.5,7.7,102.9,7.7,153.5,0
		c0-2.7,0-5.4,0-8.1C286,964.2,233.6,964.2,183,956.5z"/>
	<path id="XMLID_136_" display="inline" fill="#FFFFFF" d="M183,974.7c0,2.6,0,5.2,0,7.8c50.5,7.7,102.9,7.7,153.5,0
		c0-2.6,0-5.2,0-7.8C286,982.4,233.6,982.4,183,974.7z"/>
	<path id="XMLID_135_" display="inline" fill="#FFFFFF" d="M421.8,956.5c0,2.7,0,5.4,0,8.1c50.1,7.7,102,7.7,152.1,0
		c0-2.7,0-5.4,0-8.1C523.8,964.2,471.9,964.2,421.8,956.5z"/>
	<path id="XMLID_134_" display="inline" fill="#FFFFFF" d="M421.8,974.7c0,2.6,0,5.2,0,7.8c50.1,7.7,102,7.7,152.1,0
		c0-2.6,0-5.2,0-7.8C523.8,982.4,471.9,982.4,421.8,974.7z"/>
</g>
<g id="XMLID_7_" display="none">
	<path id="XMLID_133_" display="inline" fill="#FDBB2D" d="M183,961.9c0,3.4,0,12,0,15.3c50.5,7.7,102.9,7.7,153.5,0
		c0-3.4,0-12,0-15.3C286,969.7,233.6,969.7,183,961.9z"/>
	<path id="XMLID_132_" display="inline" fill="#FDBB2D" d="M421.8,961.9c0,3.4,0,12,0,15.3c50.1,7.7,102,7.7,152.1,0
		c0-3.4,0-12,0-15.3C523.8,969.7,471.9,969.7,421.8,961.9z"/>
</g>
<g id="XMLID_8_" display="none">
	<path id="XMLID_131_" display="inline" fill="#3EC6EC" d="M183,982.5c0,2.9,0,5.8,0,8.7c50.5,7.7,102.9,7.7,153.5,0
		c0-2.9,0-5.8,0-8.7C286,990.2,233.6,990.2,183,982.5z"/>
	<path id="XMLID_130_" display="inline" fill="#3EC6EC" d="M183,947.8c0,2.9,0,5.8,0,8.7c50.5,7.7,102.9,7.7,153.5,0
		c0-2.9,0-5.8,0-8.7C286,955.5,233.6,955.5,183,947.8z"/>
	<path id="XMLID_129_" display="inline" fill="#3EC6EC" d="M421.8,982.5c0,2.9,0,5.8,0,8.7c50.1,7.7,102,7.7,152.1,0
		c0-2.9,0-5.8,0-8.7C523.8,990.2,471.9,990.2,421.8,982.5z"/>
	<path id="XMLID_128_" display="inline" fill="#3EC6EC" d="M421.8,947.8c0,2.9,0,5.8,0,8.7c50.1,7.7,102,7.7,152.1,0
		c0-2.9,0-5.8,0-8.7C523.8,955.5,471.9,955.5,421.8,947.8z"/>
</g>
<g id="XMLID_6_" display="none">
	<path id="XMLID_127_" display="inline" fill="#FDBB2D" d="M183,977.2c0,4.6,0,9.2,0,13.9c50.5,7.7,102.9,7.7,153.5,0
		c0-4.6,0-9.2,0-13.9C286,984.9,233.6,984.9,183,977.2z"/>
	<path id="XMLID_126_" display="inline" fill="#FDBB2D" d="M421.8,977.2c0,4.6,0,9.2,0,13.9c50.1,7.7,102,7.7,152.1,0
		c0-4.6,0-9.2,0-13.9C523.8,984.9,471.9,984.9,421.8,977.2z"/>
</g>
<g id="XMLID_4_" display="none">
	<path id="XMLID_125_" display="inline" fill="#3EC6EC" d="M183,947.7c0,4.4,0,8.9,0,13.3c50.5,7.7,102.9,7.7,153.5,0
		c0-4.4,0-8.9,0-13.3C286,955.4,233.6,955.4,183,947.7z"/>
	<path id="XMLID_124_" display="inline" fill="#3EC6EC" d="M421.8,947.7c0,4.4,0,8.9,0,13.3c50.1,7.7,102,7.7,152.1,0
		c0-4.4,0-8.9,0-13.3C523.8,955.4,471.9,955.4,421.8,947.7z"/>
</g>
<g id="XMLID_5_" display="none">
	<path id="XMLID_118_" display="inline" fill="#BE2A43" d="M183,961c0,5.4,0,10.8,0,16.2c50.5,7.7,102.9,7.7,153.5,0
		c0-5.4,0-10.8,0-16.2C286,968.7,233.6,968.7,183,961z"/>
	<path id="XMLID_117_" display="inline" fill="#BE2A43" d="M421.8,961c0,5.4,0,10.8,0,16.2c50.1,7.7,102,7.7,152.1,0
		c0-5.4,0-10.8,0-16.2C523.8,968.7,471.9,968.7,421.8,961z"/>
</g>
<g id="XMLID_2_" display="none">
	<path id="XMLID_116_" display="inline" fill="#FDBB2D" d="M183,977.2c0,4.6,0,9.2,0,13.9c50.5,7.7,102.9,7.7,153.5,0
		c0-4.6,0-9.2,0-13.9C286,984.9,233.6,984.9,183,977.2z"/>
	<path id="XMLID_115_" display="inline" fill="#FDBB2D" d="M421.8,977.2c0,4.6,0,9.2,0,13.9c50.1,7.7,102,7.7,152.1,0
		c0-4.6,0-9.2,0-13.9C523.8,984.9,471.9,984.9,421.8,977.2z"/>
	<path id="XMLID_114_" display="inline" fill="#FDBB2D" d="M183,947.7c0,4.4,0,8.9,0,13.3c50.5,7.7,102.9,7.7,153.5,0
		c0-4.4,0-8.9,0-13.3C286,955.4,233.6,955.4,183,947.7z"/>
	<path id="XMLID_113_" display="inline" fill="#FDBB2D" d="M421.8,947.7c0,4.4,0,8.9,0,13.3c50.1,7.7,102,7.7,152.1,0
		c0-4.4,0-8.9,0-13.3C523.8,955.4,471.9,955.4,421.8,947.7z"/>
</g>
<g id="XMLID_3_" display="none">
	<path id="XMLID_111_" display="inline" fill="#BE2A43" d="M183,961c0,5.4,0,10.8,0,16.2c50.5,7.7,102.9,7.7,153.5,0
		c0-5.4,0-10.8,0-16.2C286,968.7,233.6,968.7,183,961z"/>
	<path id="XMLID_109_" display="inline" fill="#BE2A43" d="M421.8,961c0,5.4,0,10.8,0,16.2c50.1,7.7,102,7.7,152.1,0
		c0-5.4,0-10.8,0-16.2C523.8,968.7,471.9,968.7,421.8,961z"/>
</g>
<g id="XMLID_1_" display="none">
	<path id="XMLID_108_" display="inline" fill="#00AB5D" d="M336.5,991.1c-50.5,7.7-102.9,7.7-153.5,0c0-14.5,0-28.9,0-43.4
		c50.5,7.7,102.9,7.7,153.5,0C336.5,962.2,336.5,976.7,336.5,991.1z"/>
	<path id="XMLID_107_" display="inline" fill="#00AB5D" d="M573.9,991.1c-50.1,7.7-102,7.7-152.1,0c0-14.5,0-28.9,0-43.4
		c50.1,7.7,102,7.7,152.1,0C573.9,962.2,573.9,976.7,573.9,991.1z"/>
</g>
<g id="XMLID_99_" display="none">
	
		<image display="inline" overflow="visible" opacity="0.15" width="421" height="346" xlink:href="EA1505CD.png"  transform="matrix(1 0 0 1 166.5054 16.3864)">
	</image>
	<g display="inline">
		<g>
			<g id="XMLID_86_">
				
					<path id="XMLID_87_" fill="#FFFFFF" stroke="#A39E9B" stroke-width="1.2996" stroke-miterlimit="10" stroke-dasharray="1.2996,1.2996" d="
					M251.3,41.2c0,0,49.8,172.9,125.1,172.9c85.4,0,122-170.8,122-170.8s-6.1-8.5-9.8-4.1c-3.7,4.4-39.7,164.1-110.5,164.1
					c-66.4,0-112.2-161.4-116.6-165.1C257.1,34.4,251.3,41.2,251.3,41.2z"/>
			</g>
			<g id="XMLID_84_">
				
					<path id="XMLID_85_" fill="#FFFFFF" stroke="#A39E9B" stroke-width="1.2996" stroke-miterlimit="10" stroke-dasharray="1.2996,1.2996" d="
					M225.2,49.5c0,0,7.9,85.1,5.7,145.1c-3.5,92-32.8,146.8-32.8,146.8s-5.3,0.9-8-2.2c-2.7-3.1-2.7-5.8-2.7-5.8
					s30.6-41.7,33.7-139.7c3.4-108.2-7.7-137-4.2-143C218.2,48.5,225.2,49.5,225.2,49.5z"/>
			</g>
			<g id="XMLID_82_">
				
					<path id="XMLID_83_" fill="#FFFFFF" stroke="#A39E9B" stroke-width="1.2996" stroke-miterlimit="10" stroke-dasharray="1.2996,1.2996" d="
					M528.8,56.5c0,0-7.9,83-5.7,141.5c3.5,89.7,32.8,143.2,32.8,143.2s5.3,0.9,8-2.2c2.7-3,2.7-5.6,2.7-5.6s-30.6-40.7-33.7-136.3
					c-3.4-105.6,7.7-133.7,4.2-139.5C535.8,55.5,528.8,56.5,528.8,56.5z"/>
			</g>
		</g>
	</g>
</g>
<g id="NECK_x2F_ARM_TRIM">
	<path fill="#FFFFFF" stroke="#897F76" stroke-width="0.5" stroke-miterlimit="10" stroke-dasharray="1,0.75" d="M250.7,41
		c0,0,49.9,173,125.2,173C461.3,214,498,43,498,43s-6.1-8.4-9.8-4.1c-3.8,4.4-39.7,164.2-110.6,164.2
		c-66.5,0-112.3-161.5-116.7-165.3C256.6,34.2,250.7,41,250.7,41z"/>
	<path fill="#FFFFFF" stroke="#897F76" stroke-width="0.5" stroke-miterlimit="10" stroke-dasharray="1,0.75" d="M224.7,49.4
		c0,0,7.9,85.1,5.6,145.2c-3.5,92-32.8,146.9-32.8,146.9s-5.3,0.9-8-2.2c-2.7-3.1-2.7-5.7-2.7-5.7s30.6-41.7,33.8-139.8
		c3.4-108.4-7.7-137.1-4.3-143.1C217.6,48.4,224.7,49.4,224.7,49.4z"/>
	<path fill="#FFFFFF" stroke="#897F76" stroke-width="0.5" stroke-miterlimit="10" stroke-dasharray="1,0.75" d="M528.5,56.4
		c0,0-7.9,83.1-5.6,141.6c3.5,89.8,32.8,143.4,32.8,143.4s5.3,0.8,8-2.2c2.7-3,2.7-5.6,2.7-5.6s-30.6-40.7-33.8-136.4
		c-3.4-105.7,7.7-133.8,4.3-139.5C535.5,55.4,528.5,56.4,528.5,56.4z"/>
</g>
<radialGradient id="XMLID_00000085251842617164828160000016725394208936743348_" cx="328.1042" cy="217.9047" r="41.1338" gradientUnits="userSpaceOnUse">
	<stop  offset="0" style="stop-color:#FFFFFF"/>
	<stop  offset="1" style="stop-color:#AFA9A2"/>
</radialGradient>
<path id="XMLID_157_" opacity="0.13" fill="url(#XMLID_00000085251842617164828160000016725394208936743348_)" d="M303,164.7
	c0,0-2.4,25.6-4.8,28.8c-2.4,3.2-5.6,22.4-4.8,25.6c0.8,3.2,12.8,16.8,12.8,16.8s10.4-16,8.8-20.8c-1.6-4.8,0.8-9.6,2.4-14.4
	c1.6-4.8,6.4-7.2,6.4-16c0-8.8-4-15.2-7.2-18.4c-3.2-3.2-11.2-11.2-11.2-11.2L303,164.7z"/>
<radialGradient id="XMLID_00000106863404617462513360000000305487626672525708_" cx="230.6321" cy="595.7968" r="175.6531" gradientUnits="userSpaceOnUse">
	<stop  offset="0" style="stop-color:#FFFFFF"/>
	<stop  offset="1" style="stop-color:#AFA9A2"/>
</radialGradient>
<path id="XMLID_156_" opacity="0.13" fill="url(#XMLID_00000106863404617462513360000000305487626672525708_)" d="M313.4,554.7
	c0,0,26.4,36.8,24,47.2c-2.4,10.4-16.8,42.4-16.8,42.4s16.8,3.2,23.2-1.6c6.4-4.8,24-22.4,23.2-33.6c-0.8-11.2-4-26.4-11.2-33.6
	C348.6,568.3,313.4,554.7,313.4,554.7z"/>
<radialGradient id="XMLID_00000079450163793934500530000001755087054124728969_" cx="198.3035" cy="545.3896" r="285.0024" gradientUnits="userSpaceOnUse">
	<stop  offset="0" style="stop-color:#FFFFFF"/>
	<stop  offset="1" style="stop-color:#AFA9A2"/>
</radialGradient>
<path id="XMLID_155_" opacity="0.13" fill="url(#XMLID_00000079450163793934500530000001755087054124728969_)" d="M268.7,518
	c0,0,8,57.5,4,76.7c-4,19.2-21.6,89.5-29.6,99.1c-8,9.6-32,26.4-35.2,44c-3.2,17.6-12.8,62.3-2.4,80.7c10.4,18.4,36.8,56.8,36,65.5
	c-0.8,8.8-23.2,40-26.4,46.4c-3.2,6.4-8.8,24.8-8.8,30.4c0,5.6-0.2,24-0.2,24l-18.5-2.6l1.2-6.9c0,0-8-39.2-8-42.4
	c0-3.2-5.6-111.1-5.6-115.1c0-4,8.8-123.9,8.8-130.3c0-6.4,14.4-87.9,16-93.5c1.6-5.6,3.1-25.7,7.2-32.1c4-6.3,21.6-15.9,25.6-18.3
	c4-2.4,8.8-11.2,5.6-14.4c-3.2-3.2-11.2-12.8-11.2-16.8c0-4-8.8-27.2-8.8-31.2c0-4,8.8-28.8,9.6-38.4c0.8-9.6-5.6-29.6-7.2-34.4
	c-1.6-4.8-14.4-34.4-13.6-37.6c0.8-3.2-7.7-35.1-7.7-35.1s8.2-10.8,14.8-20.4c6.6-9.6,17.4-30.2,17.4-30.2c0,0,9.9,67.3,13.1,76.1
	c3.2,8.8,26.4,34.4,26.4,39.2c0,4.8,0.8,62.3-2.4,69.5c-3.2,7.2-8,28-8,31.2S268.7,518,268.7,518z"/>
<radialGradient id="XMLID_00000104702330018500147060000008053823490973309340_" cx="555.176" cy="536.3162" r="415.0981" gradientUnits="userSpaceOnUse">
	<stop  offset="0" style="stop-color:#FFFFFF"/>
	<stop  offset="1" style="stop-color:#AFA9A2"/>
</radialGradient>
<path id="XMLID_154_" opacity="0.13" fill="url(#XMLID_00000104702330018500147060000008053823490973309340_)" d="M509.2,194.4
	c0,0-16.8,87.8-17.6,99.8c-0.8,12-12,68.7-12.8,75.1c-0.8,6.4-8,24.8-6.4,36.8c1.6,12,27.2,30.4,28,44.8c0.8,14.4-4,36.8-5.6,39.2
	c-1.6,2.4-16.8,40-16.8,43.2c0,3.2-19.2,48.8-25.6,48.8c-6.4,0-5.6,24.8,0,41.6c5.6,16.8,40.8,57.5,41.6,64.7
	c0.8,7.2,13.6,20,12,23.2c-1.6,3.2-11.2,13.6-18.4,14.4c-7.2,0.8-26.4,8.8-29.6,7.2c-3.2-1.6-0.8,12.8,5.6,12.8
	c6.4,0,35.2-3.2,38.4-4.8c3.2-1.6,24.8-13.6,27.2-9.6c2.4,4-4,30.4-1.6,37.6c2.4,7.2-4,49.6-7.2,53.6c-3.2,4-22.4,40-20,48.8
	c2.4,8.8,7.2,50.3,15.2,61.5c8,11.2,1.6,20,1.6,23.2c0,3.2-7.2,24.8-7.2,24.8l62.1-3.6c0,0-1-10.7-1.3-14.8
	c-0.3-4.1,3.2-18.4,4.8-22.4c1.6-4,7.2-94.3,8-113.5c0.8-19.2-4-87.1-8-98.3c-4-11.2-18.4-35.2-20.8-40.8
	c-2.4-5.6-21.6-58.3-21.6-63.9s4.8-31.2,8-25.6c3.2,5.6,11.2-1.6,8.8-8.8c-2.4-7.2-8.8-19.2-13.6-25.6c-4.8-6.4-9.6-9.6-9.6-9.6
	s12-18.4,13.6-23.2c1.6-4.8,0-38.4-2.4-43.2c-2.4-4.8-5.6-45.6-5.6-52c0-6.4,2.4-40,4-46.4c1.6-6.4,8.8-31.2,12.8-37.6
	c4-6.4,12-19.1,12-19.1s-23.3-15.3-40.1-64.3C514.9,249.9,509.2,194.4,509.2,194.4z"/>
<g>
	<path fill="none" stroke="#7A726F" stroke-width="0.7353" stroke-dasharray="4.3148,4.3148" d="M183.1,942.9c0,0,12.9,6.9,30.2,9.8
		c71.7,11.9,122.6-1.2,122.6-1.2"/>
	<path fill="none" stroke="#7A726F" stroke-width="0.7353" stroke-dasharray="4.3148,4.3148" d="M183.1,948.6
		c0,0,31.1,13.6,70.9,14.7c44,1.2,81.9-5.3,81.9-5.3"/>
	<path fill="none" stroke="#7A726F" stroke-width="0.7161" stroke-dasharray="4.2021,4.2021" d="M423.7,938.4c0,0,21.8,13.1,80.4,11
		c58.6-2,73.1-9,73.1-9"/>
	<path fill="none" stroke="#7A726F" stroke-width="0.7161" stroke-dasharray="4.2021,4.2021" d="M424.2,945.3c0,0,30,11,81.3,9.8
		c51.3-1.2,71.8-9.4,71.8-9.4"/>
</g>
<g id="BOX_BODY">
    <rect id="XMLID_16_" x="245.5" y="250.6" fill="none" stroke="#000000" stroke-width="1.2996" stroke-miterlimit="10" stroke-dasharray="1.3549,2.5993" width="266.3" height="187.5"/>
<rect id="XMLID_28_" x="245.5" y="449.4" fill="none" stroke="#000000" stroke-width="1.2996" stroke-miterlimit="10" stroke-dasharray="1.1645,2.2339" width="266.3" height="138.5"/>
<rect id="XMLID_20_" x="330.6" y="231.3" fill="none" stroke="#000000" stroke-width="1.2996" stroke-miterlimit="10" stroke-dasharray="1.3549,2.5993" width="96.2" height="96.2"/>
<rect id="XMLID_21_" x="339" y="261.9" fill="none" stroke="#000000" stroke-width="1.2996" stroke-miterlimit="10" stroke-dasharray="1.3549,2.5993" width="79.2" height="402.6"/>
  </g>
<g id="XMLID_27_">
  <g id="BOX_LEG_LEFT_LOW">
      	<rect id="XMLID_23_" x="435.4" y="813.5" fill="none" stroke="#000000" stroke-width="1.2996" stroke-miterlimit="10" stroke-dasharray="1.3549,2.5993" width="125.7" height="125.7"/>
  </g>
    <g id="BOX_LEG_RIGHT_LOW">
        <rect id="XMLID_22_" x="196.1" y="813.5" fill="none" stroke="#000000" stroke-width="1.2996" stroke-miterlimit="10" stroke-dasharray="1.3549,2.5993" width="125.7" height="125.7"/>
    </g>
</g>
<g id="XMLID_26_">
	<g id="BOX_LEG_RIGHT_HIGH">
    		<rect id="XMLID_24_" x="227.5" y="597.4" fill="none" stroke="#000000" stroke-width="1.2996" stroke-miterlimit="10" stroke-dasharray="1.3549,2.5993" width="125.7" height="125.7"/>
  </g>
	<g id="BOX_LEG_LEFT_HIGH">
    		<rect id="XMLID_25_" x="404" y="597.4" fill="none" stroke="#000000" stroke-width="1.2996" stroke-miterlimit="10" stroke-dasharray="1.3549,2.5993" width="125.7" height="125.7"/>

  </g>
</g>
  <g id="CUSTOM"></g>
</svg>
