<?xml version="1.0" encoding="utf-8"?>
<!-- Generator: Adobe Illustrator 16.0.0, SVG Export Plug-In . SVG Version: 6.00 Build 0)  -->
<!DOCTYPE svg PUBLIC "-//W3C//DTD SVG 1.0//EN" "http://www.w3.org/TR/2001/REC-SVG-20010904/DTD/svg10.dtd">
<svg version="1.0" id="Layer_1" xmlns="http://www.w3.org/2000/svg" xmlns:xlink="http://www.w3.org/1999/xlink" x="0px" y="0px"
	 width="360px" height="756px" viewBox="0 0 360 756" enable-background="new 0 0 360 756" xml:space="preserve">
<g>
	<defs>
		<rect id="SB_SVGID_1_" width="360" height="756"/>
	</defs>
	<clipPath id="SB_SVGID_2_">
		<use xlink:href="#SB_SVGID_1_"  overflow="visible"/>
	</clipPath>
	<g clip-path="url(#SB_SVGID_2_)">
		<defs>
			<rect id="SB_SVGID_3_" width="360" height="756"/>
		</defs>
		<clipPath id="SB_SVGID_4_">
			<use xlink:href="#SB_SVGID_3_"  overflow="visible"/>
		</clipPath>
      		<path clip-path="url(#SB_SVGID_4_)" fill="#FFFFFF" d="M340.558,604.403c-8.192-52.814-34.739-158.193-38.527-208.95
			c-2.726-36.518,9.139-135.615,9.139-135.615s-0.065-0.061-0.181-0.169c-2.771-3.772-49.839-68.556-53.656-122.549
			c-2.816-39.832,13.637-113.637,13.637-113.637l-11.58-2.438l-3.542-0.902c0,0-37.17,38.774-73.474,39.655
			c-36.303,0.882-78.658-41.417-78.658-41.417s-0.657,0.167-1.611,0.429c-0.05-0.41-0.075-0.629-0.075-0.629l-2.064,1.238
			c-0.772,0.228-1.572,0.476-2.303,0.724c-2.594,0.88-6.915,4.405-6.915,4.405s0.106,0.082,0.288,0.228l-0.37,0.223
			c0,0,13.35,60.789,1.515,127.273c-12.733,71.527-44.697,111.363-44.697,111.363l0.149,0.06c-0.629,0.366-0.969,0.548-0.969,0.548
			s23.549,69.846,12.966,155.983c-1.095,8.909-30.976,177.04-34.113,197.954c-6.819,45.455,5.302,89.673,5.302,98.485
			s-0.578,18.158-0.578,18.158s30.491,8.482,58.153,7.6c27.662-0.881,50-7.576,50-7.576l1.625-22.938
			c0,0,10.716-31.576,17.29-47.584c13.661-33.266,19.881-85.48,20.745-88.123c0.862-2.645,8.644-1.763,10.372,0.879
			c1.728,2.646,5.188,29.965,9.508,51.115c4.321,21.148,11.235,40.534,15.559,51.107c4.321,10.576,9.509,28.201,10.373,32.605
			c0.864,4.407,1.729,21.15,1.729,21.15s21.61,6.171,62.235,3.525c40.627-2.644,53.593-6.166,53.593-6.166s0.572-15.24,1.154-15.198
			C342.576,715.221,351.273,673.481,340.558,604.403 M136.299,128.592c0,0-14.122-17.32-20.517-41.568
			c-6.395-24.248-6.662-43.966-6.662-43.966s10.925,11.724,19.452,36.239C137.099,103.811,136.299,128.592,136.299,128.592
			 M243.75,94.5c-5,19.25-16.5,38.25-16.5,38.25s-2.25-34,5.5-52.5S252.25,45,252.25,45S248.75,75.25,243.75,94.5"/>
		<path clip-path="url(#SB_SVGID_4_)" fill="none" stroke="#897F76" stroke-width="0.25" stroke-miterlimit="10" d="M340.558,604.403
			c-8.192-52.814-34.739-158.193-38.527-208.95c-2.726-36.518,9.139-135.615,9.139-135.615s-0.065-0.061-0.181-0.169
			c-2.771-3.772-49.839-68.556-53.656-122.549c-2.816-39.832,13.637-113.637,13.637-113.637l-11.58-2.438l-3.542-0.902
			c0,0-37.17,38.774-73.474,39.655c-36.303,0.882-78.658-41.417-78.658-41.417s-0.657,0.167-1.611,0.429
			c-0.05-0.41-0.075-0.629-0.075-0.629l-2.064,1.238c-0.772,0.228-1.572,0.476-2.303,0.724c-2.594,0.88-6.915,4.405-6.915,4.405
			s0.106,0.082,0.288,0.228l-0.37,0.223c0,0,13.35,60.789,1.515,127.273c-12.733,71.527-44.697,111.363-44.697,111.363l0.149,0.06
			c-0.629,0.366-0.969,0.548-0.969,0.548s23.549,69.846,12.966,155.983c-1.095,8.909-30.976,177.04-34.113,197.954
			c-6.819,45.455,5.302,89.673,5.302,98.485s-0.578,18.158-0.578,18.158s30.491,8.482,58.153,7.6c27.662-0.881,50-7.576,50-7.576
			l1.625-22.938c0,0,10.716-31.576,17.29-47.584c13.661-33.266,19.881-85.48,20.745-88.123c0.862-2.645,8.644-1.763,10.372,0.879
			c1.728,2.646,5.188,29.965,9.508,51.115c4.321,21.148,11.235,40.534,15.559,51.107c4.321,10.576,9.509,28.201,10.373,32.605
			c0.864,4.407,1.729,21.15,1.729,21.15s21.61,6.171,62.235,3.525c40.627-2.644,53.593-6.166,53.593-6.166s0.572-15.24,1.154-15.198
			C342.576,715.221,351.273,673.481,340.558,604.403z M136.299,128.592c0,0-14.122-17.32-20.517-41.568
			c-6.395-24.248-6.662-43.966-6.662-43.966s10.925,11.724,19.452,36.239C137.099,103.811,136.299,128.592,136.299,128.592z
			 M243.75,94.5c-5,19.25-16.5,38.25-16.5,38.25s-2.25-34,5.5-52.5S252.25,45,252.25,45S248.75,75.25,243.75,94.5z"/>
		<path clip-path="url(#SB_SVGID_4_)" fill="#FFFFFF" d="M340.558,604.403c-8.192-52.814-34.739-158.193-38.527-208.95
			c-2.726-36.518,9.139-135.615,9.139-135.615s-0.065-0.061-0.181-0.169c-2.771-3.772-49.839-68.556-53.656-122.549
			c-2.816-39.832,13.637-113.637,13.637-113.637l-11.58-2.438l-3.542-0.902c0,0-37.17,38.774-73.474,39.655
			c-36.303,0.882-78.658-41.417-78.658-41.417s-0.657,0.167-1.611,0.429c-0.05-0.41-0.075-0.629-0.075-0.629l-2.064,1.238
			c-0.772,0.228-1.572,0.476-2.303,0.724c-2.594,0.88-6.915,4.405-6.915,4.405s0.106,0.082,0.288,0.228l-0.37,0.223
			c0,0,13.35,60.789,1.515,127.273c-12.733,71.527-44.697,111.363-44.697,111.363l0.149,0.06c-0.629,0.366-0.969,0.548-0.969,0.548
			s23.549,69.846,12.966,155.983c-1.095,8.909-30.976,177.04-34.113,197.954c-6.819,45.455,5.302,89.673,5.302,98.485
			s-0.578,18.158-0.578,18.158s30.491,8.482,58.153,7.6c27.662-0.881,50-7.576,50-7.576l1.625-22.938
			c0,0,10.716-31.576,17.29-47.584c13.661-33.266,19.881-85.48,20.745-88.123c0.862-2.645,8.644-1.763,10.372,0.879
			c1.728,2.646,5.188,29.965,9.508,51.115c4.321,21.148,11.235,40.534,15.559,51.107c4.321,10.576,9.509,28.201,10.373,32.605
			c0.864,4.407,1.729,21.15,1.729,21.15s21.61,6.171,62.235,3.525c40.627-2.644,53.593-6.166,53.593-6.166s0.572-15.24,1.154-15.198
			C342.576,715.221,351.273,673.481,340.558,604.403 M136.299,128.592c0,0-14.122-17.32-20.517-41.568
			c-6.395-24.248-6.662-43.966-6.662-43.966s10.925,11.724,19.452,36.239C137.099,103.811,136.299,128.592,136.299,128.592
			 M243.75,94.5c-5,19.25-16.5,38.25-16.5,38.25s-2.25-34,5.5-52.5S252.25,45,252.25,45S248.75,75.25,243.75,94.5"/>
	<g id="BODY">
        <path clip-path="url(#SB_SVGID_4_)" fill="none" stroke="#897F76" stroke-width="0.25" d="M340.558,604.403
			c-8.192-52.814-34.739-158.193-38.527-208.95c-2.726-36.518,9.139-135.615,9.139-135.615s-0.065-0.061-0.181-0.169
			c-2.771-3.772-49.839-68.556-53.656-122.549c-2.816-39.832,13.637-113.637,13.637-113.637l-11.58-2.438l-3.542-0.902
			c0,0-37.17,38.774-73.474,39.655c-36.303,0.882-78.658-41.417-78.658-41.417s-0.657,0.167-1.611,0.429
			c-0.05-0.41-0.075-0.629-0.075-0.629l-2.064,1.238c-0.772,0.228-1.572,0.476-2.303,0.724c-2.594,0.88-6.915,4.405-6.915,4.405
			s0.106,0.082,0.288,0.228l-0.37,0.223c0,0,13.35,60.789,1.515,127.273c-12.733,71.527-44.697,111.363-44.697,111.363l0.149,0.06
			c-0.629,0.366-0.969,0.548-0.969,0.548s23.549,69.846,12.966,155.983c-1.095,8.909-30.976,177.04-34.113,197.954
			c-6.819,45.455,5.302,89.673,5.302,98.485s-0.578,18.158-0.578,18.158s30.491,8.482,58.153,7.6c27.662-0.881,50-7.576,50-7.576
			l1.625-22.938c0,0,10.716-31.576,17.29-47.584c13.661-33.266,19.881-85.48,20.745-88.123c0.862-2.645,8.644-1.763,10.372,0.879
			c1.728,2.646,5.188,29.965,9.508,51.115c4.321,21.148,11.235,40.534,15.559,51.107c4.321,10.576,9.509,28.201,10.373,32.605
			c0.864,4.407,1.729,21.15,1.729,21.15s21.61,6.171,62.235,3.525c40.627-2.644,53.593-6.166,53.593-6.166s0.572-15.24,1.154-15.198
			C342.576,715.221,351.273,673.481,340.558,604.403z M136.299,128.592c0,0-14.122-17.32-20.517-41.568
			c-6.395-24.248-6.662-43.966-6.662-43.966s10.925,11.724,19.452,36.239C137.099,103.811,136.299,128.592,136.299,128.592z
			 M243.75,94.5c-5,19.25-16.5,38.25-16.5,38.25s-2.25-34,5.5-52.5S252.25,45,252.25,45S248.75,75.25,243.75,94.5z"/>

  </g>
	</g>
  <g id="CUSTOM"></g>
	<g clip-path="url(#SB_SVGID_2_)">
		<defs>
			<rect id="SB_SVGID_5_" width="360" height="756"/>
		</defs>
		<clipPath id="SB_SVGID_6_">
			<use xlink:href="#SB_SVGID_5_"  overflow="visible"/>
		</clipPath>
		<path clip-path="url(#SB_SVGID_6_)" fill="#FFFFFF" d="M90.854,24.262l-0.37,0.222c0,0,16.107,56.256,5.267,121.454
			c-0.181,1.084-0.869,5.35-1.063,6.438c-2.676,15.03-6.554,27.559-9.125,38.063c-12.375,38.813-19.229,48.995-19.229,48.995
			l0.292-0.058c4.999-4.375,28.562-24.938,53.5-73c5.55-10.698,9.875-32.625,9.875-32.813
			c-16.221-31.843-20.788-70.609-25.058-95.316C97.93,30.109,92.161,25.313,90.854,24.262"/>
		<path clip-path="url(#SB_SVGID_6_)" fill="#FFFFFF" d="M263.95,31.749c-0.254,0-1.604,1.602-6.062,8.161
			c-3.766,23.601-11.515,69.086-25.018,98.604c3.055,18.21,8.138,28.874,16.058,45.022c13.351,27.22,40.275,54.338,43.482,57.337
			c-1.675-3.351-23.055-39.061-36.434-84.095c-1.843-6.203-3.014-14.354-3.344-21.024c-1.968-39.738,10.907-101.706,10.907-101.706
			l-0.104-0.837C263.437,33.211,264.193,31.749,263.95,31.749"/>
		<g opacity="0.13" clip-path="url(#SB_SVGID_6_)">
			<g>
				<defs>
					<rect id="SB_SVGID_7_" x="108.014" y="31.345" width="201.554" height="350.293"/>
				</defs>
				<clipPath id="SB_SVGID_8_">
					<use xlink:href="#SB_SVGID_7_"  overflow="visible"/>
				</clipPath>
				<g clip-path="url(#SB_SVGID_8_)">
					<defs>
						<path id="SB_SVGID_9_" d="M108.014,205.132c0,0,32.588,0.222,42.906-11.35c10.319-11.571,26.829-50.492,30.955-54.701
							c4.127-4.207,13.414,90.467,37.146,105.195c23.732,14.726,18.573,86.258,34.051,99.934
							c15.477,13.676,48.351,37.428,48.351,37.428s2.178-49.874,4.243-70.913c2.062-21.039,4.292-39.708,3.844-42.104
							c-0.863-4.637-65.33-51.216-81.513-110.567c-13.95-51.165-1.08-83.1,5.112-93.619c3.826-6.501,2.899-8.807,21.521-33.09
							c0,0-18.066,4.647-35.608,29.895c-17.541,25.246-33.02,48.388-39.209,53.648c-6.191,5.26-20.637,13.675-22.7,5.26
							c-2.064-8.416-26.608-50.447-26.608-50.447s16.364,33.335,7.879,70.913C130.274,176.524,108.014,205.132,108.014,205.132"/>
					</defs>
					<clipPath id="SB_SVGID_10_">
						<use xlink:href="#SB_SVGID_9_"  overflow="visible"/>
					</clipPath>
					
						<radialGradient id="SB_SVGID_11_" cx="0" cy="756" r="1" gradientTransform="matrix(503.5926 0 0 -513.4127 123.75 388201.9688)" gradientUnits="userSpaceOnUse">
						<stop  offset="0" style="stop-color:#FFFFFF"/>
						<stop  offset="1" style="stop-color:#897F76"/>
					</radialGradient>
					<rect x="108.014" y="31.345" clip-path="url(#SB_SVGID_10_)" fill="url(#SB_SVGID_11_)" width="201.944" height="350.293"/>
				</g>
			</g>
		</g>
		<g opacity="0.13" clip-path="url(#SB_SVGID_6_)">
			<g>
				<defs>
					<rect id="SB_SVGID_12_" x="47.403" y="245.328" width="104.55" height="248.563"/>
				</defs>
				<clipPath id="SB_SVGID_13_">
					<use xlink:href="#SB_SVGID_12_"  overflow="visible"/>
				</clipPath>
				<g clip-path="url(#SB_SVGID_13_)">
					<defs>
						<path id="SB_SVGID_14_" d="M70.438,245.328c0,0,31.987,44.18,44.368,52.596c12.382,8.415,37.147,15.779,37.147,23.142
							c0,7.364-25.797,18.936-39.211,42.077c-13.413,23.145-14.445,63.118-25.795,79.948c-11.35,16.832-38.639,50.801-38.639,50.801
							s1.266-16.771,4.184-30.963c4.478-21.768,6.599-36.753,7.95-47.491c0.913-7.262,2.721-27.031,2.093-48.328
							c-0.906-30.724-6.086-64.919-6.696-71.131c-1.031-10.521-8.436-30.865-8.436-30.865L70.438,245.328z"/>
					</defs>
					<clipPath id="SB_SVGID_15_">
						<use xlink:href="#SB_SVGID_14_"  overflow="visible"/>
					</clipPath>
					
						<radialGradient id="SB_SVGID_16_" cx="0" cy="756" r="1" gradientTransform="matrix(290.6473 0 0 -296.3149 27.75 224495.3281)" gradientUnits="userSpaceOnUse">
						<stop  offset="0" style="stop-color:#FFFFFF"/>
						<stop  offset="1" style="stop-color:#897F76"/>
					</radialGradient>
					<rect x="47.403" y="245.328" clip-path="url(#SB_SVGID_15_)" fill="url(#SB_SVGID_16_)" width="104.55" height="248.563"/>
				</g>
			</g>
		</g>
		<g opacity="0.13" clip-path="url(#SB_SVGID_6_)">
			<g>
				<defs>
					<rect id="SB_SVGID_17_" x="62.431" y="539.87" width="107.461" height="199.159"/>
				</defs>
				<clipPath id="SB_SVGID_18_">
					<use xlink:href="#SB_SVGID_17_"  overflow="visible"/>
				</clipPath>
				<g clip-path="url(#SB_SVGID_18_)">
					<defs>
						<path id="SB_SVGID_19_" d="M62.431,539.87c0,0,37.146,33.66,57.782,35.766c20.637,2.104,49.679,0.58,49.679,0.58
							s-5.172,37.451-7.65,47.51c-4.05,16.438-16.639,50.518-20.965,61.464c-2.175,5.508-9.328,26.972-9.328,26.972
							c-1.817,9.128-2.107,24.486-2.107,24.486l-10.72,2.383c0,0,2.123-22.436,3.155-34.008
							c1.032-11.572,13.414-56.805,17.542-65.219c4.127-8.416,10.318-39.973,10.318-39.973s-12.382,1.051-39.21-8.416
							c-26.827-9.469-34.05-26.301-40.241-34.715S62.431,539.87,62.431,539.87"/>
					</defs>
					<clipPath id="SB_SVGID_20_">
						<use xlink:href="#SB_SVGID_19_"  overflow="visible"/>
					</clipPath>
					
						<radialGradient id="SB_SVGID_21_" cx="0" cy="756" r="1" gradientTransform="matrix(225.6698 0 0 -230.0703 74 174468.6719)" gradientUnits="userSpaceOnUse">
						<stop  offset="0" style="stop-color:#FFFFFF"/>
						<stop  offset="1" style="stop-color:#897F76"/>
					</radialGradient>
					<rect x="62.431" y="539.87" clip-path="url(#SB_SVGID_20_)" fill="url(#SB_SVGID_21_)" width="107.461" height="199.16"/>
				</g>
			</g>
		</g>
		<g opacity="0.75" clip-path="url(#SB_SVGID_6_)">
			<g>
				<defs>
					<rect id="SB_SVGID_22_" x="66.334" y="24.262" width="63.666" height="215.171"/>
				</defs>
				<clipPath id="SB_SVGID_23_">
					<use xlink:href="#SB_SVGID_22_"  overflow="visible"/>
				</clipPath>
				<g clip-path="url(#SB_SVGID_23_)">
					<defs>
						<path id="SB_SVGID_24_" d="M120.125,166.375c5.551-10.698,9.875-32.625,9.875-32.812c-16.221-31.843-20.787-70.609-25.058-95.316
							c-7.012-8.139-12.781-12.934-14.088-13.985l-0.37,0.221c0,0,16.107,56.256,5.266,121.455c-0.18,1.083-0.869,5.35-1.062,6.437
							c-2.676,15.03-6.554,27.559-9.125,38.063c-12.375,38.812-19.229,48.995-19.229,48.995l0.291-0.058
							C71.625,235,95.188,214.438,120.125,166.375"/>
					</defs>
					<clipPath id="SB_SVGID_25_">
						<use xlink:href="#SB_SVGID_24_"  overflow="visible"/>
					</clipPath>
					
						<linearGradient id="SB_SVGID_26_" gradientUnits="userSpaceOnUse" x1="0" y1="756.002" x2="1" y2="756.002" gradientTransform="matrix(1.365 246.3947 246.3947 -1.365 -186177.125 1070.16)">
						<stop  offset="0" style="stop-color:#FFFFFF"/>
						<stop  offset="0.2057" style="stop-color:#F7F6F5"/>
						<stop  offset="0.3937" style="stop-color:#E7E4E2"/>
						<stop  offset="0.575" style="stop-color:#D1CCC8"/>
						<stop  offset="0.7519" style="stop-color:#B6AFA9"/>
						<stop  offset="0.9241" style="stop-color:#978E86"/>
						<stop  offset="1" style="stop-color:#897F76"/>
					</linearGradient>
					<polygon clip-path="url(#SB_SVGID_25_)" fill="url(#SB_SVGID_26_)" points="129.998,23.909 131.192,239.426 66.336,239.786 
						65.142,24.269 					"/>
				</g>
			</g>
		</g>
		<g opacity="0.75" clip-path="url(#SB_SVGID_6_)">
			<g>
				<defs>
					<rect id="SB_SVGID_27_" x="232.871" y="31.749" width="59.54" height="209.124"/>
				</defs>
				<clipPath id="SB_SVGID_28_">
					<use xlink:href="#SB_SVGID_27_"  overflow="visible"/>
				</clipPath>
				<g clip-path="url(#SB_SVGID_28_)">
					<defs>
						<path id="SB_SVGID_29_" d="M257.889,39.91c-3.766,23.601-11.515,69.086-25.018,98.604c3.055,18.21,8.138,28.874,16.059,45.022
							c13.35,27.22,40.274,54.337,43.481,57.337c-1.675-3.351-23.055-39.061-36.434-84.095c-1.843-6.203-3.014-14.353-3.344-21.024
							c-1.968-39.738,10.907-101.706,10.907-101.706l-0.104-0.837C263.438,33.211,266.605,27.086,257.889,39.91"/>
					</defs>
					<clipPath id="SB_SVGID_30_">
						<use xlink:href="#SB_SVGID_29_"  overflow="visible"/>
					</clipPath>
					
						<linearGradient id="SB_SVGID_31_" gradientUnits="userSpaceOnUse" x1="0" y1="756.002" x2="1" y2="756.002" gradientTransform="matrix(1.3412 242.1043 242.1043 -1.3412 -182768.9531 1059.8167)">
						<stop  offset="0" style="stop-color:#FFFFFF"/>
						<stop  offset="0.2057" style="stop-color:#F7F6F5"/>
						<stop  offset="0.3937" style="stop-color:#E7E4E2"/>
						<stop  offset="0.575" style="stop-color:#D1CCC8"/>
						<stop  offset="0.7519" style="stop-color:#B6AFA9"/>
						<stop  offset="0.9241" style="stop-color:#978E86"/>
						<stop  offset="1" style="stop-color:#897F76"/>
					</linearGradient>
					<polygon clip-path="url(#SB_SVGID_30_)" fill="url(#SB_SVGID_31_)" points="292.409,26.756 293.596,240.867 232.873,241.203 
						231.687,27.093 					"/>
				</g>
			</g>
		</g>
	</g>
	<g clip-path="url(#SB_SVGID_2_)">
		<defs>
			<rect id="SB_SVGID_32_" width="360" height="756"/>
		</defs>
		<clipPath id="SB_SVGID_33_">
			<use xlink:href="#SB_SVGID_32_"  overflow="visible"/>
		</clipPath>
		<g clip-path="url(#SB_SVGID_33_)">
			<g>
				<defs>
					<rect id="SB_SVGID_34_" x="95.428" y="531.607" width="173" height="240"/>
				</defs>
				<clipPath id="SB_SVGID_35_">
					<use xlink:href="#SB_SVGID_34_"  overflow="visible"/>
				</clipPath>
				<g opacity="0.35" clip-path="url(#SB_SVGID_35_)">
					<g>
						<defs>
							<rect id="SB_SVGID_36_" x="95.428" y="531.607" width="173" height="240"/>
						</defs>
						<clipPath id="SB_SVGID_37_">
							<use xlink:href="#SB_SVGID_36_"  overflow="visible"/>
						</clipPath>
						<g clip-path="url(#SB_SVGID_37_)">
							<defs>
								<rect id="SB_SVGID_38_" x="95.428" y="531.607" width="173" height="240"/>
							</defs>
							<clipPath id="SB_SVGID_39_">
								<use xlink:href="#SB_SVGID_38_"  overflow="visible"/>
							</clipPath>
							<g clip-path="url(#SB_SVGID_39_)">
								
									<!--<image overflow="visible" width="173" height="240" xlink:href="A8480A19.png"  transform="matrix(1 0 0 1 95.4277 531.6074)">
								</image>-->
							</g>
						</g>
					</g>
				</g>
				
					<path clip-path="url(#SB_SVGID_35_)" fill="none" stroke="#897F76" stroke-width="0.25" stroke-miterlimit="10" stroke-dasharray="0.5,0.5" d="
					M206.697,637.912c-1.839-4.751-7.549-37.668-8.236-42.478c-1.36-9.521-6.768-29.375-6.768-29.375s-1.921,0-11.524,0.274
					c-9.603,0.274-10.1,1.625-10.1,1.625s-0.906,18.204-2.977,30.453c-0.879,5.197-4.498,31.605-16.028,61.135
					c-9.387,24.042-20.014,55.555-20.014,55.555l-0.97,21.73c5.966-1.017,8.272-1.997,8.272-1.997l1.141-22.534
					c0,0,9.381-28.129,14.833-39.648c5.462-11.521,14.488-46.087,16.913-58.215c2.426-12.129,6.477-38.196,6.477-38.196
					s2.15-1.842,4.564-1.712c4.516,0.241,6.28,2.657,6.28,2.657s3.253,11.565,5.992,32.699c2.525,19.472,8.564,40.832,11.521,49.004
					c3.158,8.732,11.666,32.081,12.587,35.022c0.976,3.111,5.342,18.811,5.342,18.811l1.634,20.687l7.628,1.011l-2.06-22.439
					C231.204,711.98,209.989,646.418,206.697,637.912z"/>
			</g>
		</g>
	</g>
	<g id="TRIM" clip-path="url(#SB_SVGID_2_)">
		<defs>
			<rect id="SB_SVGID_40_" width="360" height="756"/>
		</defs>
		<clipPath id="SB_SVGID_41_">
			<use xlink:href="#SB_SVGID_40_"  overflow="visible"/>
		</clipPath>
		<path clip-path="url(#SB_SVGID_41_)" fill="#FFFFFF" d="M100.709,18.554c0,0,2.235-3.181,6.693-2.29
			c3.129,0.626,41.904,39.229,74.668,38.784c34.146-0.465,68.531-36.648,71.325-37.446c4.681-1.338,5.979,3.148,5.979,3.148
			s-3.527,2.87-9.101,7.996c-5.571,5.127-38.56,36.331-74.891,32.766C134.594,57.508,100.709,18.554,100.709,18.554"/>
		<path clip-path="url(#SB_SVGID_41_)" fill="none" stroke="#897F76" stroke-width="0.5" stroke-dasharray="1,0.75" d="M100.709,18.554
			c0,0,2.235-3.181,6.693-2.29c3.129,0.626,41.904,39.229,74.668,38.784c34.146-0.465,68.531-36.648,71.325-37.446
			c4.681-1.338,5.979,3.148,5.979,3.148s-3.527,2.87-9.101,7.996c-5.571,5.127-38.56,36.331-74.891,32.766
			C134.594,57.508,100.709,18.554,100.709,18.554z"/>
		<path clip-path="url(#SB_SVGID_41_)" fill="#FFFFFF" d="M230.546,120.094c0.214,2.406,0.238,5.616,0.545,8.729
			c0.368,3.728,0.928,7.482,1.528,10.311c16.153-35.698,21.678-77.287,25.511-99.648c-3.814,4.657-6.277,8.808-10.294,15.896
			C243.729,76.082,239.034,96.376,230.546,120.094"/>
		<path clip-path="url(#SB_SVGID_41_)" fill="none" stroke="#897F76" stroke-width="0.5" stroke-dasharray="1,0.75" d="
			M230.546,120.094c0.214,2.406,0.238,5.616,0.545,8.729c0.368,3.728,0.928,7.482,1.528,10.311
			c16.153-35.698,21.678-77.287,25.511-99.648c-3.814,4.657-6.277,8.808-10.294,15.896
			C243.729,76.082,239.034,96.376,230.546,120.094z"/>
		<path clip-path="url(#SB_SVGID_41_)" fill="#FFFFFF" d="M112.029,53.081c-2.592-4.481-7.437-11.89-9.964-14.547
			c2.278,14.968,5.772,34.273,9.601,48.013c2.84,10.193,6.049,24.87,18.306,46.872c1.305-5.832,1.358-9.677,1.794-15.15
			C120.204,89.563,117.064,75.124,112.029,53.081"/>
		<path clip-path="url(#SB_SVGID_41_)" fill="none" stroke="#897F76" stroke-width="0.5" stroke-dasharray="1,0.75" d="M112.029,53.081
			c-2.592-4.481-7.437-11.89-9.964-14.547c2.278,14.968,5.772,34.273,9.601,48.013c2.84,10.193,6.049,24.87,18.306,46.872
			c1.305-5.832,1.358-9.677,1.794-15.15C120.204,89.563,117.064,75.124,112.029,53.081z"/>
		<path clip-path="url(#SB_SVGID_41_)" fill="#FFFFFF" d="M273.182,23.456c0,0-14.648,89.027-12.333,114.333
			c4.073,44.538,51.781,122.96,51.781,122.96l-6.448,4.04c0,0-52.283-85.873-53.515-127.455
			c-1.333-45,13.182-116.211,13.182-116.211L273.182,23.456z"/>
		<path clip-path="url(#SB_SVGID_41_)" fill="none" stroke="#897F76" stroke-width="0.5" stroke-dasharray="1,0.75" d="M273.182,23.456
			c0,0-14.648,89.027-12.333,114.333c4.073,44.538,51.781,122.96,51.781,122.96l-6.448,4.04c0,0-52.283-85.873-53.515-127.455
			c-1.333-45,13.182-116.211,13.182-116.211L273.182,23.456z"/>
		<path clip-path="url(#SB_SVGID_41_)" fill="#FFFFFF" d="M272.775,23.311c0,0-3.865-2.884-6.324-2.61
			c-2.46,0.273-91.04,78.431-12.421,187.267c29.788,41.236,55.871,59.775,55.871,59.775s3.28-1.367,3.826-3.006
			c0.546-1.64-1.64-4.919-1.64-4.919s-92.833-76.484-80.44-156.21C240.041,49.609,272.775,23.311,272.775,23.311"/>
		<path clip-path="url(#SB_SVGID_41_)" fill="none" stroke="#897F76" stroke-width="0.5" stroke-dasharray="1,0.75" d="M272.775,23.311
			c0,0-3.865-2.884-6.324-2.61c-2.46,0.273-91.04,78.431-12.421,187.267c29.788,41.236,55.871,59.775,55.871,59.775
			s3.28-1.367,3.826-3.006c0.546-1.64-1.64-4.919-1.64-4.919s-92.833-76.484-80.44-156.21
			C240.041,49.609,272.775,23.311,272.775,23.311z"/>
		<path clip-path="url(#SB_SVGID_41_)" fill="#FFFFFF" d="M87.888,144.912c-15.871,77.587-43.04,115.876-43.04,115.876
			s8.233-0.849,9.485-1.788s28.235-37.086,41-109.667C106.925,83.429,94,22.667,94,22.667l-6.704,0.622
			C87.296,23.289,96.627,102.19,87.888,144.912"/>
		<path clip-path="url(#SB_SVGID_41_)" fill="none" stroke="#897F76" stroke-width="0.5" stroke-dasharray="1,0.75" d="M87.888,144.912
			c-15.871,77.587-43.04,115.876-43.04,115.876s8.233-0.849,9.485-1.788s28.235-37.086,41-109.667
			C106.925,83.429,94,22.667,94,22.667l-6.704,0.622C87.296,23.289,96.627,102.19,87.888,144.912z"/>
		<path clip-path="url(#SB_SVGID_41_)" fill="#FFFFFF" d="M87.296,23.29c0,0,4.029-2.861,6.593-2.589
			c2.564,0.271,94.906,77.809,12.948,185.782c-31.052,40.91-58.243,59.301-58.243,59.301s-3.42-1.355-3.989-2.982
			c-0.57-1.627,1.709-4.88,1.709-4.88s96.775-75.878,83.857-154.971C121.421,49.38,87.296,23.29,87.296,23.29"/>
		<path clip-path="url(#SB_SVGID_41_)" fill="none" stroke="#897F76" stroke-width="0.5" stroke-dasharray="1,0.75" d="M87.296,23.29
			c0,0,4.029-2.861,6.593-2.589c2.564,0.271,94.906,77.809,12.948,185.782c-31.052,40.91-58.243,59.301-58.243,59.301
			s-3.42-1.355-3.989-2.982c-0.57-1.627,1.709-4.88,1.709-4.88s96.775-75.878,83.857-154.971
			C121.421,49.38,87.296,23.29,87.296,23.29z"/>
	</g>
	<g clip-path="url(#SB_SVGID_2_)">
		<defs>
			<rect id="SB_SVGID_42_" width="360" height="756"/>
		</defs>
		<clipPath id="SB_SVGID_43_">
			<use xlink:href="#SB_SVGID_42_"  overflow="visible"/>
		</clipPath>
		<path clip-path="url(#SB_SVGID_43_)" fill="#BF2A43" d="M28.822,722.454v14.779c37.523,5.489,76.434,5.489,113.957,0v-14.779
			C105.256,727.944,66.345,727.944,28.822,722.454"/>
		<path clip-path="url(#SB_SVGID_43_)" fill="#BF2A43" d="M221.183,721.453v14.779c41.38,5.49,84.291,5.49,125.671,0v-14.779
			C305.474,726.943,262.563,726.943,221.183,721.453"/>
	</g>
	<g clip-path="url(#SB_SVGID_2_)">
		<defs>
			<rect id="SB_SVGID_44_" width="360" height="756"/>
		</defs>
		<clipPath id="SB_SVGID_45_">
			<use xlink:href="#SB_SVGID_44_"  overflow="visible"/>
		</clipPath>
		<path clip-path="url(#SB_SVGID_45_)" fill="#FDBB2D" d="M28.822,706.422v16.031c37.523,5.491,76.434,5.491,113.957,0v-16.031
			C105.256,711.911,66.345,711.911,28.822,706.422"/>
		<path clip-path="url(#SB_SVGID_45_)" fill="#FDBB2D" d="M221.183,705.421v16.032c41.38,5.49,84.291,5.49,125.671,0v-16.032
			C305.474,710.911,262.563,710.911,221.183,705.421"/>
	</g>
	<g clip-path="url(#SB_SVGID_2_)">
		<defs>
			<rect id="SB_SVGID_46_" width="360" height="756"/>
		</defs>
		<clipPath id="SB_SVGID_47_">
			<use xlink:href="#SB_SVGID_46_"  overflow="visible"/>
		</clipPath>
		<path clip-path="url(#SB_SVGID_47_)" fill="#FDBB2D" d="M28.619,711.876v3.536c37.801,7.685,77.002,7.685,114.803,0v-3.536
			C105.621,719.562,66.419,719.562,28.619,711.876"/>
		<path clip-path="url(#SB_SVGID_47_)" fill="#FDBB2D" d="M28.619,725.486v3.295c37.801,7.685,77.002,7.685,114.803,0v-3.295
			C105.621,733.171,66.419,733.171,28.619,725.486"/>
		<path clip-path="url(#SB_SVGID_47_)" fill="#FDBB2D" d="M220.694,712.739v3.406c41.688,7.402,84.921,7.402,126.609,0v-3.406
			C305.615,720.142,262.383,720.142,220.694,712.739"/>
		<path clip-path="url(#SB_SVGID_47_)" fill="#FDBB2D" d="M220.694,725.848v3.174c41.688,7.402,84.921,7.402,126.609,0v-3.174
			C305.615,733.25,262.383,733.25,220.694,725.848"/>
	</g>
	<g clip-path="url(#SB_SVGID_2_)">
		<defs>
			<rect id="SB_SVGID_48_" width="360" height="756"/>
		</defs>
		<clipPath id="SB_SVGID_49_">
			<use xlink:href="#SB_SVGID_48_"  overflow="visible"/>
		</clipPath>
		<path clip-path="url(#SB_SVGID_49_)" fill="#BF2A43" d="M28.619,714.411v12.076c37.801,7.686,77.002,7.686,114.803,0v-12.076
			C105.621,722.096,66.419,722.096,28.619,714.411"/>
		<path clip-path="url(#SB_SVGID_49_)" fill="#BF2A43" d="M220.694,715.145v11.704c41.688,7.402,84.921,7.402,126.609,0v-11.704
			C305.615,722.546,262.383,722.546,220.694,715.145"/>
	</g>
	<g clip-path="url(#SB_SVGID_2_)">
		<defs>
			<rect id="SB_SVGID_50_" width="360" height="756"/>
		</defs>
		<clipPath id="SB_SVGID_51_">
			<use xlink:href="#SB_SVGID_50_"  overflow="visible"/>
		</clipPath>
		<path clip-path="url(#SB_SVGID_51_)" fill="#004D2A" d="M28.619,728.781v8.629c37.801,7.686,77.002,7.686,114.803,0v-8.629
			C105.621,736.467,66.419,736.467,28.619,728.781"/>
		<path clip-path="url(#SB_SVGID_51_)" fill="#004D2A" d="M28.619,703.225v8.651c37.801,7.686,77.002,7.686,114.803,0v-8.651
			C105.621,710.911,66.419,710.911,28.619,703.225"/>
		<path clip-path="url(#SB_SVGID_51_)" fill="#004D2A" d="M220.694,729.021v8.311c41.688,7.402,84.921,7.402,126.609,0v-8.311
			C305.615,736.424,262.383,736.424,220.694,729.021"/>
		<path clip-path="url(#SB_SVGID_51_)" fill="#004D2A" d="M220.694,704.407v8.332c41.688,7.402,84.921,7.402,126.609,0v-8.332
			C305.615,711.81,262.383,711.81,220.694,704.407"/>
	</g>
	<g clip-path="url(#SB_SVGID_2_)">
		<defs>
			<rect id="SB_SVGID_52_" width="360" height="756"/>
		</defs>
		<clipPath id="SB_SVGID_53_">
			<use xlink:href="#SB_SVGID_52_"  overflow="visible"/>
		</clipPath>
		<path clip-path="url(#SB_SVGID_53_)" fill="#FFFFFF" d="M28.822,712.602v5.721c37.523,5.49,76.434,5.49,113.957,0v-5.721
			C105.256,718.092,66.345,718.092,28.822,712.602"/>
		<path clip-path="url(#SB_SVGID_53_)" fill="#FFFFFF" d="M28.822,725.52v5.549c37.523,5.49,76.434,5.49,113.957,0v-5.549
			C105.256,731.01,66.345,731.01,28.822,725.52"/>
		<path clip-path="url(#SB_SVGID_53_)" fill="#FFFFFF" d="M221.183,711.601v5.722c41.38,5.489,84.291,5.489,125.671,0v-5.722
			C305.474,717.091,262.563,717.091,221.183,711.601"/>
		<path clip-path="url(#SB_SVGID_53_)" fill="#FFFFFF" d="M221.183,724.519v5.549c41.38,5.49,84.291,5.49,125.671,0v-5.549
			C305.474,730.009,262.563,730.009,221.183,724.519"/>
	</g>
	<g clip-path="url(#SB_SVGID_2_)">
		<defs>
			<rect id="SB_SVGID_54_" width="360" height="756"/>
		</defs>
		<clipPath id="SB_SVGID_55_">
			<use xlink:href="#SB_SVGID_54_"  overflow="visible"/>
		</clipPath>
		<path clip-path="url(#SB_SVGID_55_)" fill="#BF2A43" d="M28.822,718.322v7.197c37.523,5.49,76.434,5.49,113.957,0v-7.197
			C105.256,723.813,66.345,723.813,28.822,718.322"/>
		<path clip-path="url(#SB_SVGID_55_)" fill="#BF2A43" d="M221.183,717.322v7.196c41.38,5.49,84.291,5.49,125.671,0v-7.196
			C305.474,722.812,262.563,722.812,221.183,717.322"/>
		<path clip-path="url(#SB_SVGID_55_)" fill="#BF2A43" d="M28.822,731.068v6.164c37.523,5.491,76.434,5.491,113.957,0v-6.164
			C105.256,736.559,66.345,736.559,28.822,731.068"/>
		<path clip-path="url(#SB_SVGID_55_)" fill="#BF2A43" d="M28.822,706.422v6.18c37.523,5.49,76.434,5.49,113.957,0v-6.18
			C105.256,711.911,66.345,711.911,28.822,706.422"/>
		<path clip-path="url(#SB_SVGID_55_)" fill="#BF2A43" d="M221.183,730.067v6.164c41.38,5.491,84.291,5.491,125.671,0v-6.164
			C305.474,735.558,262.563,735.558,221.183,730.067"/>
		<path clip-path="url(#SB_SVGID_55_)" fill="#BF2A43" d="M221.183,705.421v6.18c41.38,5.49,84.291,5.49,125.671,0v-6.18
			C305.474,710.911,262.563,710.911,221.183,705.421"/>
	</g>
	<g clip-path="url(#SB_SVGID_2_)">
		<defs>
			<rect id="SB_SVGID_56_" width="360" height="756"/>
		</defs>
		<clipPath id="SB_SVGID_57_">
			<use xlink:href="#SB_SVGID_56_"  overflow="visible"/>
		</clipPath>
		<path clip-path="url(#SB_SVGID_57_)" fill="#FDBB2D" d="M28.786,727.418v9.852c37.537,5.491,76.463,5.491,113.999,0v-9.852
			C105.249,732.907,66.322,732.907,28.786,727.418"/>
		<path clip-path="url(#SB_SVGID_57_)" fill="#FDBB2D" d="M220.903,726.417v9.852c41.428,5.491,84.389,5.491,125.816,0v-9.852
			C305.292,731.906,262.331,731.906,220.903,726.417"/>
	</g>
	<g clip-path="url(#SB_SVGID_2_)">
		<defs>
			<rect id="SB_SVGID_58_" width="360" height="756"/>
		</defs>
		<clipPath id="SB_SVGID_59_">
			<use xlink:href="#SB_SVGID_58_"  overflow="visible"/>
		</clipPath>
		<path clip-path="url(#SB_SVGID_59_)" fill="#BF2A43" d="M28.786,715.923v11.495c37.537,5.49,76.463,5.49,113.999,0v-11.495
			C105.249,721.413,66.322,721.413,28.786,715.923"/>
		<path clip-path="url(#SB_SVGID_59_)" fill="#BF2A43" d="M220.903,714.922v11.495c41.428,5.49,84.389,5.49,125.816,0v-11.495
			C305.292,720.412,262.331,720.412,220.903,714.922"/>
	</g>
	<g clip-path="url(#SB_SVGID_2_)">
		<defs>
			<rect id="SB_SVGID_60_" width="360" height="756"/>
		</defs>
		<clipPath id="SB_SVGID_61_">
			<use xlink:href="#SB_SVGID_60_"  overflow="visible"/>
		</clipPath>
		<path clip-path="url(#SB_SVGID_61_)" fill="#3EC6EC" d="M28.786,706.459v9.464c37.537,5.49,76.463,5.49,113.999,0v-9.464
			C105.249,711.949,66.322,711.949,28.786,706.459"/>
		<path clip-path="url(#SB_SVGID_61_)" fill="#3EC6EC" d="M220.903,705.458v9.464c41.428,5.491,84.389,5.491,125.816,0v-9.464
			C305.292,710.948,262.331,710.948,220.903,705.458"/>
	</g>

	<g  clip-path="url(#SB_SVGID_2_)">
		<defs>
			<rect id="SB_SVGID_64_" width="360" height="756"/>
		</defs>
		<clipPath id="SB_SVGID_65_">
			<use xlink:href="#SB_SVGID_64_"  overflow="visible"/>
		</clipPath>
		<path clip-path="url(#SB_SVGID_65_)" fill="#FDBB2D" d="M28.786,727.418v9.852c37.537,5.491,76.463,5.491,113.999,0v-9.852
			C105.249,732.907,66.322,732.907,28.786,727.418"/>
		<path clip-path="url(#SB_SVGID_65_)" fill="#FDBB2D" d="M221.83,726.417v9.852c41.122,5.491,83.768,5.491,124.89,0v-9.852
			C305.598,731.906,262.952,731.906,221.83,726.417"/>
		<path clip-path="url(#SB_SVGID_65_)" fill="#FDBB2D" d="M28.786,706.459v9.464c37.537,5.49,76.463,5.49,113.999,0v-9.464
			C105.249,711.949,66.322,711.949,28.786,706.459"/>
		<path clip-path="url(#SB_SVGID_65_)" fill="#FDBB2D" d="M221.83,705.458v9.464c41.122,5.491,83.768,5.491,124.89,0v-9.464
			C305.598,710.948,262.952,710.948,221.83,705.458"/>
	</g>

   <g id="PATTERN_2_A">
    <path clip-path="url(#SB_SVGID_67_)" fill="#897F76" d="M142.779,737.232c-37.523,5.49-76.434,5.49-113.957,0
			c0-10.27,0-20.541,0-30.811c37.523,5.49,76.434,5.49,113.957,0V737.232z"/>
		<path clip-path="url(#SB_SVGID_67_)" fill="#897F76" d="M346.854,737.232c-41.176,5.49-83.877,5.49-125.053,0
			c0-10.27,0-20.541,0-30.811c41.176,5.49,83.877,5.49,125.053,0V737.232z"/>
  </g>
  	<g id="PATTERN_2_B" clip-path="url(#SB_SVGID_2_)">
		<defs>
			<rect id="SB_SVGID_62_" width="360" height="756"/>
		</defs>
		<clipPath id="SB_SVGID_63_">
			<use xlink:href="#SB_SVGID_62_"  overflow="visible"/>
		</clipPath>
		<path clip-path="url(#SB_SVGID_63_)" fill="#BF2A43" d="M28.786,715.923v11.495c37.537,5.49,76.463,5.49,113.999,0v-11.495
			C105.249,721.413,66.322,721.413,28.786,715.923"/>
		<path clip-path="url(#SB_SVGID_63_)" fill="#BF2A43" d="M221.83,714.922v11.495c41.122,5.49,83.768,5.49,124.89,0v-11.495
			C305.598,720.412,262.952,720.412,221.83,714.922"/>
	</g> 
  <g id="PATTERN_6_B">
			<g>
				<path fill="#BF2A43" d="M28.8,722.5c0,4.9,0,9.9,0,14.8c37.5,5.5,76.4,5.5,114,0c0-4.9,0-9.9,0-14.8
					C105.3,727.9,66.3,727.9,28.8,722.5z"/>
				<path fill="#BF2A43" d="M221.2,721.5c0,4.9,0,9.9,0,14.8c41.4,5.5,84.3,5.5,125.7,0c0-4.9,0-9.9,0-14.8
					C305.5,726.9,262.6,726.9,221.2,721.5z"/>
			</g>
		</g>
		<g id="PATTERN_6_A">
			<g>
				<path fill="#FDBB2D" d="M28.8,706.4c0,5.3,0,10.7,0,16c37.5,5.5,76.4,5.5,114,0c0-5.3,0-10.7,0-16
					C105.3,711.9,66.3,711.9,28.8,706.4z"/>
				<path fill="#FDBB2D" d="M221.2,705.4c0,5.3,0,10.7,0,16c41.4,5.5,84.3,5.5,125.7,0c0-5.3,0-10.7,0-16
					C305.5,710.9,262.6,710.9,221.2,705.4z"/>
			</g>
		</g>
  <g id="PATTERN_5_C" display="none">
	<g display="inline">
		<path fill="#FDBB2D" d="M28.6,711.9c0,2.7,0,0.9,0,3.5c37.8,7.7,77,7.7,114.8,0c0-2.7,0-0.9,0-3.5
			C105.6,719.6,66.4,719.6,28.6,711.9z"/>
		<path fill="#FDBB2D" d="M28.6,725.5c0,2.6,0,0.7,0,3.3c37.8,7.7,77,7.7,114.8,0c0-2.6,0-0.7,0-3.3
			C105.6,733.2,66.4,733.2,28.6,725.5z"/>
		<path fill="#FDBB2D" d="M220.7,712.7c0,2.6,0,0.8,0,3.4c41.7,7.4,84.9,7.4,126.6,0c0-2.6,0-0.8,0-3.4
			C305.6,720.1,262.4,720.1,220.7,712.7z"/>
		<path fill="#FDBB2D" d="M220.7,725.8c0,2.5,0,0.7,0,3.2c41.7,7.4,84.9,7.4,126.6,0c0-2.5,0-0.7,0-3.2
			C305.6,733.3,262.4,733.3,220.7,725.8z"/>
	</g>
</g>
<g id="PATTERN_5_B" display="none">
	<g display="inline">
		<path fill="#BF2A43" d="M28.6,714.4c0,3.4,0,8.7,0,12.1c37.8,7.7,77,7.7,114.8,0c0-3.4,0-8.7,0-12.1
			C105.6,722.1,66.4,722.1,28.6,714.4z"/>
		<path fill="#BF2A43" d="M220.7,715.1c0,3.2,0,8.5,0,11.7c41.7,7.4,84.9,7.4,126.6,0c0-3.2,0-8.5,0-11.7
			C305.6,722.5,262.4,722.5,220.7,715.1z"/>
	</g>
</g>
<g id="PATTERN_5_A" display="none">
	<g display="inline">
		<path fill="#004D2A" d="M28.6,728.8c0,2.9,0,5.8,0,8.6c37.8,7.7,77,7.7,114.8,0c0-2.9,0-5.8,0-8.6
			C105.6,736.5,66.4,736.5,28.6,728.8z"/>
		<path fill="#004D2A" d="M28.6,703.2c0,2.9,0,5.8,0,8.7c37.8,7.7,77,7.7,114.8,0c0-2.9,0-5.8,0-8.7
			C105.6,710.9,66.4,710.9,28.6,703.2z"/>
		<path fill="#004D2A" d="M220.7,729c0,2.8,0,5.5,0,8.3c41.7,7.4,84.9,7.4,126.6,0c0-2.8,0-5.5,0-8.3
			C305.6,736.4,262.4,736.4,220.7,729z"/>
		<path fill="#004D2A" d="M220.7,704.4c0,2.8,0,5.6,0,8.3c41.7,7.4,84.9,7.4,126.6,0c0-2.8,0-5.6,0-8.3
			C305.6,711.8,262.4,711.8,220.7,704.4z"/>
	</g>
</g>
<g id="PATTERN_4_B" display="none">
	<g display="inline">
		<path fill="#FFFFFF" d="M28.8,712.6c0,1.9,0,3.8,0,5.7c37.5,5.5,76.4,5.5,114,0c0-1.9,0-3.8,0-5.7
			C105.3,718.1,66.3,718.1,28.8,712.6z"/>
		<path fill="#FFFFFF" d="M28.8,725.5c0,1.8,0,3.7,0,5.5c37.5,5.5,76.4,5.5,114,0c0-1.8,0-3.7,0-5.5C105.3,731,66.3,731,28.8,725.5z
			"/>
		<path fill="#FFFFFF" d="M221.2,711.6c0,1.9,0,3.8,0,5.7c41.4,5.5,84.3,5.5,125.7,0c0-1.9,0-3.8,0-5.7
			C305.5,717.1,262.6,717.1,221.2,711.6z"/>
		<path fill="#FFFFFF" d="M221.2,724.5c0,1.8,0,3.7,0,5.5c41.4,5.5,84.3,5.5,125.7,0c0-1.8,0-3.7,0-5.5
			C305.5,730,262.6,730,221.2,724.5z"/>
	</g>
</g>
<g id="PATTERN_4_A" display="none">
	<g display="inline">
		<path fill="#BF2A43" d="M28.8,718.3c0,2.4,0,4.8,0,7.2c37.5,5.5,76.4,5.5,114,0c0-2.4,0-4.8,0-7.2
			C105.3,723.8,66.3,723.8,28.8,718.3z"/>
		<path fill="#BF2A43" d="M221.2,717.3c0,2.4,0,4.8,0,7.2c41.4,5.5,84.3,5.5,125.7,0c0-2.4,0-4.8,0-7.2
			C305.5,722.8,262.6,722.8,221.2,717.3z"/>
		<path fill="#BF2A43" d="M28.8,731.1c0,2.1,0,4.1,0,6.2c37.5,5.5,76.4,5.5,114,0c0-2.1,0-4.1,0-6.2
			C105.3,736.6,66.3,736.6,28.8,731.1z"/>
		<path fill="#BF2A43" d="M28.8,706.4c0,2.1,0,4.1,0,6.2c37.5,5.5,76.4,5.5,114,0c0-2.1,0-4.1,0-6.2
			C105.3,711.9,66.3,711.9,28.8,706.4z"/>
		<path fill="#BF2A43" d="M221.2,730.1c0,2.1,0,4.1,0,6.2c41.4,5.5,84.3,5.5,125.7,0c0-2.1,0-4.1,0-6.2
			C305.5,735.6,262.6,735.6,221.2,730.1z"/>
		<path fill="#BF2A43" d="M221.2,705.4c0,2.1,0,4.1,0,6.2c41.4,5.5,84.3,5.5,125.7,0c0-2.1,0-4.1,0-6.2
			C305.5,710.9,262.6,710.9,221.2,705.4z"/>
	</g>
</g>
  <g id="PATTERN_3_C">
			<g>
				<path fill="#FDBB2D" d="M28.8,727.4c0,3.3,0,6.6,0,9.9c37.5,5.5,76.5,5.5,114,0c0-3.3,0-6.6,0-9.9
					C105.2,732.9,66.3,732.9,28.8,727.4z"/>
				<path fill="#FDBB2D" d="M220.9,726.4c0,3.3,0,6.6,0,9.9c41.4,5.5,84.4,5.5,125.8,0c0-3.3,0-6.6,0-9.9
					C305.3,731.9,262.3,731.9,220.9,726.4z"/>
			</g>
		</g>
		<g id="PATTERN_3_B">
			<g>
				<path fill="#BF2A43" d="M28.8,715.9c0,3.8,0,7.7,0,11.5c37.5,5.5,76.5,5.5,114,0c0-3.8,0-7.7,0-11.5
					C105.2,721.4,66.3,721.4,28.8,715.9z"/>
				<path fill="#BF2A43" d="M220.9,714.9c0,3.8,0,7.7,0,11.5c41.4,5.5,84.4,5.5,125.8,0c0-3.8,0-7.7,0-11.5
					C305.3,720.4,262.3,720.4,220.9,714.9z"/>
			</g>
		</g>
		<g id="PATTERN_3_A">
			<g>
				<path fill="#3EC6EC" d="M28.8,706.5c0,3.2,0,6.3,0,9.5c37.5,5.5,76.5,5.5,114,0c0-3.2,0-6.3,0-9.5
					C105.2,711.9,66.3,711.9,28.8,706.5z"/>
				<path fill="#3EC6EC" d="M220.9,705.5c0,3.2,0,6.3,0,9.5c41.4,5.5,84.4,5.5,125.8,0c0-3.2,0-6.3,0-9.5
					C305.3,710.9,262.3,710.9,220.9,705.5z"/>
			</g>
		</g>
  	<g id="PATTERN_1_A" clip-path="url(#SB_SVGID_2_)">
		<defs>
			<rect id="SB_SVGID_66_" width="360" height="756"/>
		</defs>
		<clipPath id="SB_SVGID_67_">
			<use xlink:href="#SB_SVGID_66_"  overflow="visible"/>
		</clipPath>
		<path clip-path="url(#SB_SVGID_67_)" fill="#897F76" d="M142.779,737.232c-37.523,5.49-76.434,5.49-113.957,0
			c0-10.27,0-20.541,0-30.811c37.523,5.49,76.434,5.49,113.957,0V737.232z"/>
		<path clip-path="url(#SB_SVGID_67_)" fill="#897F76" d="M346.854,737.232c-41.176,5.49-83.877,5.49-125.053,0
			c0-10.27,0-20.541,0-30.811c41.176,5.49,83.877,5.49,125.053,0V737.232z"/>
	</g>
</g>
</svg>
