<?xml version="1.0" encoding="utf-8"?>
<!-- Generator: Adobe Illustrator 16.0.0, SVG Export Plug-In . SVG Version: 6.00 Build 0)  -->
<!DOCTYPE svg PUBLIC "-//W3C//DTD SVG 1.1//EN" "http://www.w3.org/Graphics/SVG/1.1/DTD/svg11.dtd">
<svg version="1.1" id="Layer_1" xmlns="http://www.w3.org/2000/svg" xmlns:xlink="http://www.w3.org/1999/xlink" x="0px" y="0px"
	 width="800.453px" height="1035.881px" viewBox="0 0 620 1035.881" enable-background="new 0 0 800.453 1035.881"
	 xml:space="preserve">
<g>
	<defs>
		<rect id="BKSVG_SVGID_1_" x="10.308" y="50.494" width="735.125" height="951.336"/>
	</defs>
	<clipPath id="BKSVG_SVGID_2_">
		<use xlink:href="#BKSVG_SVGID_1_"  overflow="visible"/>
	</clipPath>
	<g clip-path="url(#BKSVG_SVGID_2_)">
		<defs>
			<rect id="BKSVG_SVGID_3_" x="10.308" y="50.494" width="735.125" height="951.336"/>
		</defs>
		<clipPath id="BKSVG_SVGID_4_">
			<use xlink:href="#BKSVG_SVGID_3_"  overflow="visible"/>
		</clipPath>
    <g id="BODY">
		<path clip-path="url(#BKSVG_SVGID_4_)" fill="#FFFFFF" d="M712.441,429.937l-1.697-1.633c0,0-11.564-20.671-17.11-29.198
			c-5.545-8.528-17.723-25.391-20.654-28.113c-2.931-2.725-8.325-9.257-10.478-12.881c-2.162-3.626-6.938-12.153-8.172-13.239
			c-1.237-1.088-3.7-4.713-3.853-5.622c-0.16-0.906-1.701-6.892-2.468-8.162c-0.77-1.268-6.938-14.872-8.017-15.6
			c-1.08-0.722-6.321-4.893-6.321-4.893s-11.561-16.507-20.804-25.577c-9.251-9.069-21.427-20.495-22.506-21.041
			c-1.08-0.542-8.323-4.351-11.717-5.438c-3.39-1.087-23.885-7.072-33.9-12.333c-10.021-5.259-26.357-17.594-31.901-21.584
			c-5.552-3.99-29.595-14.69-32.986-15.598c-3.388-0.908-10.942-4.17-10.942-4.17s-3.543-2.354-4.313-2.719
			c-0.769-0.361-2.313-0.907-2.313-0.907l-3.546-0.546c0,0-2.777-2.897-3.701-3.262c-0.919-0.363-4.93-2.721-4.93-2.721
			s-27.127-1.997-32.521-2.177c-5.398-0.182-32.827-3.808-39.301-5.261c-6.473-1.449-36.063-4.17-46.081-4.353
			c-10.022-0.183-31.285-0.563-31.285-0.563s-1.698,0.725-2.773,1.634c-1.081,0.907-7.554,5.986-7.554,5.986
			s-6.166,1.632-8.017,2.357c-1.847,0.725-3.541,2.723-3.541,2.723l-45.468,19.042c0,0-15.412,9.975-20.958,14.146
			c-5.55,4.172-21.888,12.517-32.675,16.142c-10.789,3.629-19.731,2.721-21.423,3.265c-1.696,0.546-9.25,7.436-11.409,8.705
			c-2.157,1.27-21.112,19.767-25.58,25.572c-4.469,5.806-16.49,22.127-19.418,26.478c-2.93,4.355-6.784,11.427-8.327,12.881
			c-1.536,1.45-5.39,5.443-5.543,6.166c-0.157,0.724-1.853,3.082-1.853,3.082s-3.698,4.898-4.931,7.617
			c-1.232,2.72-1.388,6.532-3.853,10.338c-2.466,3.81-6.474,11.064-7.553,13.061c-1.077,1.99-9.707,20.673-15.564,29.381
			c-5.857,8.707-15.26,23.212-15.26,23.212s-1.231-0.908-2.155,0.182c-0.924,1.09-1.081,2.724-1.081,2.724l-3.234,5.803
			c0,0-1.542,2.36-2.006,3.267c-0.461,0.902-1.078,1.817-0.155,2.9c0.925,1.088,19.267,16.141,35.297,22.672
			c16.028,6.533,31.287,10.886,42.846,12.878c11.558,1.994,15.261,3.626,16.184,4.715c0.924,1.086,8.629,3.997,10.171,4.898
			c1.545,0.905,2.776,1.81,2.776,1.083c0-0.722,0.616-5.615,0.616-5.615s2.771-2.901,3.543-5.809c0.774-2.9,1.382-7.798,2.928-8.523
			c1.543-0.725,5.551-3.079,5.704-4.714c0.152-1.636,0.308-6.532,0.308-6.532s1.077-1.812,1.847-3.625
			c0.773-1.815,2.468-6.709,3.391-7.98c0.926-1.269,0.464-2.719,1.083-2.54c0.613,0.182,2.154,2.898,2.925,3.625
			c0.772,0.729,4.623,6.897,6.165,14.152c1.542,7.251,3.697,34.282,10.785,64.754c7.091,30.469,17.108,61.858,19.266,68.026
			c2.16,6.162,10.633,33.916,11.561,38.088c0.929,4.17-0.432,18.868-0.122,20.13c0.307,1.277,2.002,5.628,2.155,7.439
			c0.154,1.813,1.542,7.62,1.695,8.526c0.154,0.901,1.697,6.89,1.697,6.89s1.078,13.43,1.387,15.058
			c0.308,1.63,2.465,9.07,2.465,10.329c0,1.279-0.458,16.335,0.931,22.139c1.383,5.798,0.251,17.591,1.638,21.579
			c1.387,3.992,0.254,10.887,0.407,12.152c0.15,1.273,0.305,3.807,0.305,3.807s-18.138,105.98-12.283,106.159
			c5.854,0.185,49.165,8.922,59.956,11.28c10.79,2.355,27.184,7.105,56.313,11.282c29.131,4.175,63.608-1.007,112.621-2.823
			c49.009-1.811,64.747-6.545,68.294-5.64c3.546,0.903,22.726,0.727,23.96,0c1.231-0.72-11.021-105.377-9.011-122.785
			c2.001-17.411,1.232-35.915,0.461-47.7c-0.772-11.793-2.148-35.367,0.777-48.065c2.926-12.702,10.475-34.459,11.866-42.442
			c1.391-7.986,23.887-96.865,24.045-99.582c0.152-2.72,4.313-35.006,4.313-36.64c0-1.635,1.233-10.343,2.928-14.877
			c1.696-4.532,8.476-15.599,8.476-15.599s0.308,3.087,1.542,4.352c1.234,1.272,5.091,8.891,6.63,9.434
			c1.537,0.545,6.009,5.988,7.395,9.251c1.391,3.266,9.863,21.222,11.252,23.759c1.387,2.538,7.093,11.972,8.015,13.242
			c0.927,1.271,3.392,3.63,3.392,3.63s0.615,4.719,1.386,5.628c0.771,0.903,2.773,0.903,2.773,0.903l3.391,4.719l0.013-0.016
			c0.031,0.085,0.069,0.177,0.09,0.222c0.058,0.124,0.268,0.013,0.426-0.092l-0.102,0.202c6.379-4.367,31.828-20.791,56.259-38.208
			c28.492-20.318,46.089-33.726,46.089-33.726L712.441,429.937z"/>
		<path clip-path="url(#BKSVG_SVGID_4_)" fill="none" stroke="#897F76" stroke-width="0.25" d="M712.441,429.937l-1.697-1.633
			c0,0-11.564-20.671-17.11-29.198c-5.545-8.528-17.723-25.391-20.654-28.113c-2.931-2.725-8.325-9.257-10.478-12.881
			c-2.162-3.626-6.938-12.153-8.172-13.239c-1.237-1.088-3.7-4.713-3.853-5.622c-0.16-0.906-1.701-6.892-2.468-8.162
			c-0.77-1.268-6.938-14.872-8.017-15.6c-1.08-0.722-6.321-4.893-6.321-4.893s-11.561-16.507-20.804-25.577
			c-9.251-9.069-21.427-20.495-22.506-21.041c-1.08-0.542-8.323-4.351-11.717-5.438c-3.39-1.087-23.885-7.072-33.9-12.333
			c-10.021-5.259-26.357-17.594-31.901-21.584c-5.552-3.99-29.595-14.69-32.986-15.598c-3.388-0.908-10.942-4.17-10.942-4.17
			s-3.543-2.354-4.313-2.719c-0.769-0.361-2.313-0.907-2.313-0.907l-3.546-0.546c0,0-2.777-2.897-3.701-3.262
			c-0.919-0.363-4.93-2.721-4.93-2.721s-27.127-1.997-32.521-2.177c-5.398-0.182-32.827-3.808-39.301-5.261
			c-6.473-1.449-36.063-4.17-46.081-4.353c-10.022-0.183-31.285-0.563-31.285-0.563s-1.698,0.725-2.773,1.634
			c-1.081,0.907-7.554,5.986-7.554,5.986s-6.166,1.632-8.017,2.357c-1.847,0.725-3.541,2.723-3.541,2.723l-45.468,19.042
			c0,0-15.412,9.975-20.958,14.146c-5.55,4.172-21.888,12.517-32.675,16.142c-10.789,3.629-19.731,2.721-21.423,3.265
			c-1.696,0.546-9.25,7.436-11.409,8.705c-2.157,1.27-21.112,19.767-25.58,25.572c-4.469,5.806-16.49,22.127-19.418,26.478
			c-2.93,4.355-6.784,11.427-8.327,12.881c-1.536,1.45-5.39,5.443-5.543,6.166c-0.157,0.724-1.853,3.082-1.853,3.082
			s-3.698,4.898-4.931,7.617c-1.232,2.72-1.388,6.532-3.853,10.338c-2.466,3.81-6.474,11.064-7.553,13.061
			c-1.077,1.99-9.707,20.673-15.564,29.381c-5.857,8.707-15.26,23.212-15.26,23.212s-1.231-0.908-2.155,0.182
			c-0.924,1.09-1.081,2.724-1.081,2.724l-3.234,5.803c0,0-1.542,2.36-2.006,3.267c-0.461,0.902-1.078,1.817-0.155,2.9
			c0.925,1.088,19.267,16.141,35.297,22.672c16.028,6.533,31.287,10.886,42.846,12.878c11.558,1.994,15.261,3.626,16.184,4.715
			c0.924,1.086,8.629,3.997,10.171,4.898c1.545,0.905,2.776,1.81,2.776,1.083c0-0.722,0.616-5.615,0.616-5.615
			s2.771-2.901,3.543-5.809c0.774-2.9,1.382-7.798,2.928-8.523c1.543-0.725,5.551-3.079,5.704-4.714
			c0.152-1.636,0.308-6.532,0.308-6.532s1.077-1.812,1.847-3.625c0.773-1.815,2.468-6.709,3.391-7.98
			c0.926-1.269,0.464-2.719,1.083-2.54c0.613,0.182,2.154,2.898,2.925,3.625c0.772,0.729,4.623,6.897,6.165,14.152
			c1.542,7.251,3.697,34.282,10.785,64.754c7.091,30.469,17.108,61.858,19.266,68.026c2.16,6.162,10.633,33.916,11.561,38.088
			c0.929,4.17-0.432,18.868-0.122,20.13c0.307,1.277,2.002,5.628,2.155,7.439c0.154,1.813,1.542,7.62,1.695,8.526
			c0.154,0.901,1.697,6.89,1.697,6.89s1.078,13.43,1.387,15.058c0.308,1.63,2.465,9.07,2.465,10.329
			c0,1.279-0.458,16.335,0.931,22.139c1.383,5.798,0.251,17.591,1.638,21.579c1.387,3.992,0.254,10.887,0.407,12.152
			c0.15,1.273,0.305,3.807,0.305,3.807s-18.138,105.98-12.283,106.159c5.854,0.185,49.165,8.922,59.956,11.28
			c10.79,2.355,27.184,7.105,56.313,11.282c29.131,4.175,63.608-1.007,112.621-2.823c49.009-1.811,64.747-6.545,68.294-5.64
			c3.546,0.903,22.726,0.727,23.96,0c1.231-0.72-11.021-105.377-9.011-122.785c2.001-17.411,1.232-35.915,0.461-47.7
			c-0.772-11.793-2.148-35.367,0.777-48.065c2.926-12.702,10.475-34.459,11.866-42.442c1.391-7.986,23.887-96.865,24.045-99.582
			c0.152-2.72,4.313-35.006,4.313-36.64c0-1.635,1.233-10.343,2.928-14.877c1.696-4.532,8.476-15.599,8.476-15.599
			s0.308,3.087,1.542,4.352c1.234,1.272,5.091,8.891,6.63,9.434c1.537,0.545,6.009,5.988,7.395,9.251
			c1.391,3.266,9.863,21.222,11.252,23.759c1.387,2.538,7.093,11.972,8.015,13.242c0.927,1.271,3.392,3.63,3.392,3.63
			s0.615,4.719,1.386,5.628c0.771,0.903,2.773,0.903,2.773,0.903l3.391,4.719l0.013-0.016c0.031,0.085,0.069,0.177,0.09,0.222
			c0.058,0.124,0.268,0.013,0.426-0.092l-0.102,0.202c6.379-4.367,31.828-20.791,56.259-38.208
			c28.492-20.318,46.089-33.726,46.089-33.726L712.441,429.937z"/>
	</g>
    </g>
	<g clip-path="url(#BKSVG_SVGID_2_)">
		<defs>
			<rect id="BKSVG_SVGID_5_" x="10.308" y="50.494" width="735.125" height="951.336"/>
		</defs>
		<clipPath id="BKSVG_SVGID_6_">
			<use xlink:href="#BKSVG_SVGID_5_"  overflow="visible"/>
		</clipPath>
		<g opacity="0.1" clip-path="url(#BKSVG_SVGID_6_)">
			<g>
				<defs>
					<rect id="BKSVG_SVGID_7_" x="618.433" y="441.912" width="102.094" height="72.084"/>
				</defs>
				<clipPath id="BKSVG_SVGID_8_">
					<use xlink:href="#BKSVG_SVGID_7_"  overflow="visible"/>
				</clipPath>
				<path clip-path="url(#BKSVG_SVGID_8_)" d="M618.433,510.161l1.227,3.834c0,0,23.242-16.005,33.628-22.777
					c10.391-6.769,48.998-35.279,48.998-35.279l18.241-14.026l-10.016,1.183l-83.56,56.392L618.433,510.161z"/>
			</g>
		</g>
		<g opacity="0.15" clip-path="url(#BKSVG_SVGID_6_)">
			<g>
				<defs>
					<rect id="BKSVG_SVGID_9_" x="287.549" y="190.755" width="169.542" height="13.721"/>
				</defs>
				<clipPath id="BKSVG_SVGID_10_">
					<use xlink:href="#BKSVG_SVGID_9_"  overflow="visible"/>
				</clipPath>
				<g clip-path="url(#BKSVG_SVGID_10_)">
					<defs>
						<path id="BKSVG_SVGID_11_" d="M287.549,190.755c0,0,25.422,1.8,38.994,4.499c13.57,2.697,50.269,9.222,50.269,9.222
							s24.655-0.901,36.126-1.801c11.471-0.897,33.071-2.249,37.275-2.024c4.2,0.224,6.878-0.225,6.878-0.225s-0.19-1.347-2.1-1.573
							c-1.911-0.228-77.602,3.822-77.602,3.822l-30.583-5.398l25.229-1.125L287.549,190.755z"/>
					</defs>
					<clipPath id="BKSVG_SVGID_12_">
						<use xlink:href="#BKSVG_SVGID_11_"  overflow="visible"/>
					</clipPath>
					
						<radialGradient id="BKSVG_SVGID_13_" cx="186.3022" cy="1038.5596" r="1.2016" gradientTransform="matrix(55.283 0 0 -65.057 -9935.2041 67730.0078)" gradientUnits="userSpaceOnUse">
						<stop  offset="0" style="stop-color:#FFFFFF"/>
						<stop  offset="1" style="stop-color:#000000"/>
					</radialGradient>
					<rect x="287.549" y="190.755" clip-path="url(#BKSVG_SVGID_12_)" fill="url(#BKSVG_SVGID_13_)" width="169.542" height="13.721"/>
				</g>
			</g>
		</g>
		<g opacity="0.15" clip-path="url(#BKSVG_SVGID_6_)">
			<g>
				<defs>
					<rect id="BKSVG_SVGID_14_" x="281.048" y="193.924" width="186.94" height="14.151"/>
				</defs>
				<clipPath id="BKSVG_SVGID_15_">
					<use xlink:href="#BKSVG_SVGID_14_"  overflow="visible"/>
				</clipPath>
				<g clip-path="url(#BKSVG_SVGID_15_)">
					<defs>
						<path id="BKSVG_SVGID_16_" d="M281.048,194.801c0,0,9.75-2.247,26.186,0.452c16.441,2.697,68.623,11.472,68.623,11.472
							s5.16,0.223,5.923-0.226c0.767-0.452,4.211-1.802,6.501-1.576c2.293,0.226,52.947-1.349,56.961-1.349
							c4.017,0,14.912,0.225,17.012,0.675c2.101,0.45,5.734,1.35,5.734,1.35s-17.011-0.9-22.746-0.9
							c-5.733,0-54.861,0.902-56.771,1.348l-6.307,1.578l-6.692,0.449c0,0-58.488-10.347-68.428-11.698
							C297.109,195.028,281.048,194.801,281.048,194.801"/>
					</defs>
					<clipPath id="BKSVG_SVGID_17_">
						<use xlink:href="#BKSVG_SVGID_16_"  overflow="visible"/>
					</clipPath>
					
						<radialGradient id="BKSVG_SVGID_18_" cx="186.3032" cy="1038.5605" r="1.2008" gradientTransform="matrix(55.2849 0 0 -65.0593 -9935.5674 67732.3672)" gradientUnits="userSpaceOnUse">
						<stop  offset="0" style="stop-color:#FFFFFF"/>
						<stop  offset="1" style="stop-color:#000000"/>
					</radialGradient>
					<rect x="281.048" y="192.555" clip-path="url(#BKSVG_SVGID_17_)" fill="url(#BKSVG_SVGID_18_)" width="186.94" height="15.52"/>
				</g>
			</g>
		</g>
		<g opacity="0.05" clip-path="url(#BKSVG_SVGID_6_)">
			<g>
				<defs>
					<rect id="BKSVG_SVGID_19_" x="572.622" y="264.345" width="17.622" height="175.697"/>
				</defs>
				<clipPath id="BKSVG_SVGID_20_">
					<use xlink:href="#BKSVG_SVGID_19_"  overflow="visible"/>
				</clipPath>
				<path clip-path="url(#BKSVG_SVGID_20_)" fill="none" stroke="#000000" stroke-width="0.682" d="M589.604,264.348l0.233,22.071
					c0,0-3.751,21.797-3.751,24.553c0,2.759-0.233,24.001,0,26.208c0.232,2.208-0.47,34.482,0.469,41.656
					c0.937,7.175,0.469,30.077,0.469,32.556c0,2.48-0.238,6.62-0.705,7.724c-0.468,1.101-3.745,6.894-3.745,6.894l-9.617,13.798"/>
			</g>
		</g>
		<g opacity="0.2" clip-path="url(#BKSVG_SVGID_6_)">
			<g>
				<defs>
					<rect id="BKSVG_SVGID_21_" x="629.218" y="319.18" width="18.754" height="33.174"/>
				</defs>
				<clipPath id="BKSVG_SVGID_22_">
					<use xlink:href="#BKSVG_SVGID_21_"  overflow="visible"/>
				</clipPath>
				<g clip-path="url(#BKSVG_SVGID_22_)">
					<defs>
						<path id="BKSVG_SVGID_23_" d="M640.002,319.248l7.97,17.105c0,0-6.794-14.071-7.732-12.691c-0.94,1.38-4.455,16.553-6.101,20.139
							c-1.639,3.587-4.921,8.554-4.921,8.554s9.375-25.658,9.375-29.795C638.593,318.42,640.002,319.248,640.002,319.248"/>
					</defs>
					<clipPath id="BKSVG_SVGID_24_">
						<use xlink:href="#BKSVG_SVGID_23_"  overflow="visible"/>
					</clipPath>
					
						<radialGradient id="BKSVG_SVGID_25_" cx="183.8848" cy="1043.6328" r="1.2018" gradientTransform="matrix(15.8251 0 0 -18.623 -2267.7175 19778.7441)" gradientUnits="userSpaceOnUse">
						<stop  offset="0" style="stop-color:#FFFFFF"/>
						<stop  offset="1" style="stop-color:#000000"/>
					</radialGradient>
					<rect x="629.218" y="318.42" clip-path="url(#BKSVG_SVGID_24_)" fill="url(#BKSVG_SVGID_25_)" width="18.754" height="33.934"/>
				</g>
			</g>
		</g>
		<g opacity="0.12" clip-path="url(#BKSVG_SVGID_6_)">
			<g>
				<defs>
					<rect id="BKSVG_SVGID_26_" x="589.707" y="349.316" width="35.994" height="68.299"/>
				</defs>
				<clipPath id="BKSVG_SVGID_27_">
					<use xlink:href="#BKSVG_SVGID_26_"  overflow="visible"/>
				</clipPath>
				<g clip-path="url(#BKSVG_SVGID_27_)">
					<defs>
						<path id="BKSVG_SVGID_28_" d="M625.701,349.316c0,0-5.389,9.381-8.437,18.21c-3.051,8.829-8.205,23.724-11.958,29.518
							c-2.128,3.29-7.083,9.339-10.783,14.07l-4.816,6.501c0,0,15.365-12.02,21.462-29.399
							C617.265,370.836,625.701,349.316,625.701,349.316"/>
					</defs>
					<clipPath id="BKSVG_SVGID_29_">
						<use xlink:href="#BKSVG_SVGID_28_"  overflow="visible"/>
					</clipPath>
					
						<radialGradient id="BKSVG_SVGID_30_" cx="187.2896" cy="1037.5225" r="1.2021" gradientTransform="matrix(73.1151 0 0 -86.0418 -13127.4385 89632.2891)" gradientUnits="userSpaceOnUse">
						<stop  offset="0" style="stop-color:#FFFFFF"/>
						<stop  offset="1" style="stop-color:#000000"/>
					</radialGradient>
					<rect x="589.707" y="349.316" clip-path="url(#BKSVG_SVGID_29_)" fill="url(#BKSVG_SVGID_30_)" width="35.994" height="68.299"/>
				</g>
			</g>
		</g>
		<g opacity="0.1" clip-path="url(#BKSVG_SVGID_6_)">
			<g>
				<defs>
					<rect id="BKSVG_SVGID_31_" x="580.037" y="389.321" width="28.554" height="40.228"/>
				</defs>
				<clipPath id="BKSVG_SVGID_32_">
					<use xlink:href="#BKSVG_SVGID_31_"  overflow="visible"/>
				</clipPath>
				<g clip-path="url(#BKSVG_SVGID_32_)">
					<defs>
						<path id="BKSVG_SVGID_33_" d="M608.591,389.321c0,0-8.438,4.962-10.083,9.103c-1.639,4.14-3.277,8.827-4.92,11.863
							c-1.992,3.684-1.99,4.057-13.551,19.262c0,0,13.316-15.949,14.486-18.435c1.176-2.483,4.926-12.411,7.27-14.895
							C604.136,393.734,608.591,389.321,608.591,389.321"/>
					</defs>
					<clipPath id="BKSVG_SVGID_34_">
						<use xlink:href="#BKSVG_SVGID_33_"  overflow="visible"/>
					</clipPath>
					
						<radialGradient id="BKSVG_SVGID_35_" cx="184.3569" cy="1041.9141" r="1.2025" gradientTransform="matrix(19.2476 0 0 -22.6506 -2945.1956 23989.123)" gradientUnits="userSpaceOnUse">
						<stop  offset="0" style="stop-color:#FFFFFF"/>
						<stop  offset="1" style="stop-color:#000000"/>
					</radialGradient>
					<rect x="580.037" y="389.321" clip-path="url(#BKSVG_SVGID_34_)" fill="url(#BKSVG_SVGID_35_)" width="28.554" height="40.228"/>
				</g>
			</g>
		</g>
		<g opacity="0.1" clip-path="url(#BKSVG_SVGID_6_)">
			<g>
				<defs>
					<rect id="BKSVG_SVGID_36_" x="606.01" y="383.25" width="39.152" height="32.554"/>
				</defs>
				<clipPath id="BKSVG_SVGID_37_">
					<use xlink:href="#BKSVG_SVGID_36_"  overflow="visible"/>
				</clipPath>
				<g clip-path="url(#BKSVG_SVGID_37_)">
					<defs>
						<path id="BKSVG_SVGID_38_" d="M645.162,383.25c0,0-12.193,6.625-21.102,15.174c-8.904,8.553-18.051,17.38-18.051,17.38
							s18.756-14.343,23.208-18.481C633.672,393.183,645.162,383.25,645.162,383.25"/>
					</defs>
					<clipPath id="BKSVG_SVGID_39_">
						<use xlink:href="#BKSVG_SVGID_38_"  overflow="visible"/>
					</clipPath>
					
						<radialGradient id="BKSVG_SVGID_40_" cx="185.8604" cy="1040.0586" r="1.2013" gradientTransform="matrix(28.0045 0 0 -32.9557 -4564.4873 34658.8281)" gradientUnits="userSpaceOnUse">
						<stop  offset="0" style="stop-color:#FFFFFF"/>
						<stop  offset="1" style="stop-color:#000000"/>
					</radialGradient>
					<rect x="606.01" y="383.25" clip-path="url(#BKSVG_SVGID_39_)" fill="url(#BKSVG_SVGID_40_)" width="39.152" height="32.554"/>
				</g>
			</g>
		</g>
		<g opacity="0.12" clip-path="url(#BKSVG_SVGID_6_)">
			<g>
				<defs>
					<rect id="BKSVG_SVGID_41_" x="579.756" y="375.254" width="67.043" height="55.996"/>
				</defs>
				<clipPath id="BKSVG_SVGID_42_">
					<use xlink:href="#BKSVG_SVGID_41_"  overflow="visible"/>
				</clipPath>
				<g clip-path="url(#BKSVG_SVGID_42_)">
					<defs>
						<path id="BKSVG_SVGID_43_" d="M646.799,375.254c0,0-14.299,6.62-18.752,11.583c-4.455,4.966-27.43,28.415-29.303,30.069
							c-1.875,1.656-9.375,8.833-11.017,10.76c-1.642,1.931-7.972,3.583-7.972,3.583s7.502-1.38,8.44-2.205
							c0.937-0.826,8.908-8.825,11.956-11.86c3.045-3.033,24.383-26.211,28.601-28.969
							C632.969,385.458,646.799,375.254,646.799,375.254"/>
					</defs>
					<clipPath id="BKSVG_SVGID_44_">
						<use xlink:href="#BKSVG_SVGID_43_"  overflow="visible"/>
					</clipPath>
					
						<radialGradient id="BKSVG_SVGID_45_" cx="186.7705" cy="1038.6104" r="1.2009" gradientTransform="matrix(43.3614 0 0 -51.0277 -7460.2876 53371.2969)" gradientUnits="userSpaceOnUse">
						<stop  offset="0" style="stop-color:#FFFFFF"/>
						<stop  offset="1" style="stop-color:#000000"/>
					</radialGradient>
					<rect x="579.756" y="375.254" clip-path="url(#BKSVG_SVGID_44_)" fill="url(#BKSVG_SVGID_45_)" width="67.043" height="55.996"/>
				</g>
			</g>
		</g>
		<g opacity="0.25" clip-path="url(#BKSVG_SVGID_6_)">
			<g>
				<defs>
					<rect id="BKSVG_SVGID_46_" x="610.719" y="428.768" width="101.41" height="73.547"/>
				</defs>
				<clipPath id="BKSVG_SVGID_47_">
					<use xlink:href="#BKSVG_SVGID_46_"  overflow="visible"/>
				</clipPath>
				<path clip-path="url(#BKSVG_SVGID_47_)" fill="none" stroke="#AEB1AE" stroke-width="0.682" stroke-dasharray="2.045,1.363" d="
					M711.994,429.153c0,0-7.32,2.571-11.733,5.298c-4.413,2.727-25.583,17.518-32.313,23.1c-6.727,5.583-21.61,16.22-34.733,23.487
					c-13.124,7.269-16.765,14.022-17.976,15.577c-1.213,1.558-4.194,5.452-4.194,5.452"/>
			</g>
		</g>
		<g opacity="0.25" clip-path="url(#BKSVG_SVGID_6_)">
			<g>
				<defs>
					<rect id="BKSVG_SVGID_48_" x="615.487" y="434.967" width="100.417" height="74.606"/>
				</defs>
				<clipPath id="BKSVG_SVGID_49_">
					<use xlink:href="#BKSVG_SVGID_48_"  overflow="visible"/>
				</clipPath>
				<path clip-path="url(#BKSVG_SVGID_49_)" fill="none" stroke="#AEB1AE" stroke-width="0.682" stroke-dasharray="2.045,1.363" d="
					M715.815,435.367c0,0-4.085,0.906-13.564,6.36c-9.485,5.448-29.992,19.724-36.834,25.304
					c-6.838,5.584-21.173,15.058-30.213,20.896c-9.044,5.835-10.697,9.081-12.571,11.159c-1.878,2.077-6.797,10.277-6.797,10.277"/>
			</g>
		</g>
		<g opacity="0.05" clip-path="url(#BKSVG_SVGID_6_)">
			<g>
				<defs>
					<rect id="BKSVG_SVGID_50_" x="151.189" y="247.512" width="11.061" height="182.534"/>
				</defs>
				<clipPath id="BKSVG_SVGID_51_">
					<use xlink:href="#BKSVG_SVGID_50_"  overflow="visible"/>
				</clipPath>
				<path clip-path="url(#BKSVG_SVGID_51_)" fill="none" stroke="#000000" stroke-width="0.682" d="M158.517,247.642
					c0,0-4.758,14.244-2.243,28.75c2.518,14.506,7.798,39.963,4.53,63.647c-3.271,23.683-10.314,57.727-9.059,67.198
					c1.258,9.47,5.545,22.683,5.545,22.683"/>
			</g>
		</g>
		<g opacity="0.1" clip-path="url(#BKSVG_SVGID_6_)">
			<g>
				<defs>
					<rect id="BKSVG_SVGID_52_" x="85.152" y="325.146" width="60.138" height="106.955"/>
				</defs>
				<clipPath id="BKSVG_SVGID_53_">
					<use xlink:href="#BKSVG_SVGID_52_"  overflow="visible"/>
				</clipPath>
				<g clip-path="url(#BKSVG_SVGID_53_)">
					<defs>
						<path id="BKSVG_SVGID_54_" d="M88.5,327.035l1.509-1.889c0,0,10.423,3.049,15.703,17.259c5.286,14.212,8.804,27.824,14.338,38.779
							c5.537,10.956,22.391,38.187,23.394,42.628c1.007,4.438,2.771,8.289,1.259,8.289c-1.509,0-3.017-8.289-6.288-14.505
							c-3.27-6.218-19.37-37.001-21.633-40.555c-2.266-3.551-10.814-36.708-15.846-39.667c-5.03-2.961-15.784-5.068-15.784-5.068
							L88.5,327.035z"/>
					</defs>
					<clipPath id="BKSVG_SVGID_55_">
						<use xlink:href="#BKSVG_SVGID_54_"  overflow="visible"/>
					</clipPath>
					
						<radialGradient id="BKSVG_SVGID_56_" cx="186.8794" cy="1037.2158" r="1.1992" gradientTransform="matrix(101.5699 0 0 -119.5275 -18861.7813 124227.75)" gradientUnits="userSpaceOnUse">
						<stop  offset="0" style="stop-color:#FFFFFF"/>
						<stop  offset="1" style="stop-color:#000000"/>
					</radialGradient>
					<rect x="85.152" y="325.146" clip-path="url(#BKSVG_SVGID_55_)" fill="url(#BKSVG_SVGID_56_)" width="61.063" height="106.955"/>
				</g>
			</g>
		</g>
		<g opacity="0.15" clip-path="url(#BKSVG_SVGID_6_)">
			<g>
				<defs>
					<rect id="BKSVG_SVGID_57_" x="117.79" y="365.5" width="36.977" height="58.313"/>
				</defs>
				<clipPath id="BKSVG_SVGID_58_">
					<use xlink:href="#BKSVG_SVGID_57_"  overflow="visible"/>
				</clipPath>
				<g clip-path="url(#BKSVG_SVGID_58_)">
					<defs>
						<path id="BKSVG_SVGID_59_" d="M117.79,365.5c0,0,7.045,9.17,10.063,13.91c3.019,4.738,5.784,12.73,7.795,16.577
							c2.014,3.849,4.53,11.541,7.295,14.504c2.767,2.963,3.775,6.218,6.794,9.178c3.017,2.96,5.03,4.144,5.03,4.144
							s-12.071-8.883-14.842-14.211c-2.767-5.33-8.05-20.72-10.059-23.382C127.852,383.551,117.79,365.5,117.79,365.5"/>
					</defs>
					<clipPath id="BKSVG_SVGID_60_">
						<use xlink:href="#BKSVG_SVGID_59_"  overflow="visible"/>
					</clipPath>
					
						<radialGradient id="BKSVG_SVGID_61_" cx="186" cy="1037.7861" r="1.2012" gradientTransform="matrix(65.0153 0 0 -76.51 -11971.2646 79735.8047)" gradientUnits="userSpaceOnUse">
						<stop  offset="0" style="stop-color:#FFFFFF"/>
						<stop  offset="1" style="stop-color:#000000"/>
					</radialGradient>
					<rect x="117.79" y="365.5" clip-path="url(#BKSVG_SVGID_60_)" fill="url(#BKSVG_SVGID_61_)" width="36.977" height="58.313"/>
				</g>
			</g>
		</g>
		<g opacity="0.1" clip-path="url(#BKSVG_SVGID_6_)">
			<g>
				<defs>
					<rect id="BKSVG_SVGID_62_" x="100.936" y="311.027" width="4.025" height="12.436"/>
				</defs>
				<clipPath id="BKSVG_SVGID_63_">
					<use xlink:href="#BKSVG_SVGID_62_"  overflow="visible"/>
				</clipPath>
				<g clip-path="url(#BKSVG_SVGID_63_)">
					<defs>
						<polygon id="BKSVG_SVGID_64_" points="104.96,311.027 102.948,323.463 100.937,322.571 						"/>
					</defs>
					<clipPath id="BKSVG_SVGID_65_">
						<use xlink:href="#BKSVG_SVGID_64_"  overflow="visible"/>
					</clipPath>
					
						<radialGradient id="BKSVG_SVGID_66_" cx="184.8003" cy="1038.792" r="1.2045" gradientTransform="matrix(45.3654 0 0 -53.386 -8299.1748 55735.2109)" gradientUnits="userSpaceOnUse">
						<stop  offset="0" style="stop-color:#FFFFFF"/>
						<stop  offset="1" style="stop-color:#000000"/>
					</radialGradient>
					<rect x="100.937" y="311.027" clip-path="url(#BKSVG_SVGID_65_)" fill="url(#BKSVG_SVGID_66_)" width="4.023" height="12.436"/>
				</g>
			</g>
		</g>
		<g opacity="0.15" clip-path="url(#BKSVG_SVGID_6_)">
			<g>
				<defs>
					<rect id="BKSVG_SVGID_67_" x="58.173" y="350.695" width="25.91" height="34.041"/>
				</defs>
				<clipPath id="BKSVG_SVGID_68_">
					<use xlink:href="#BKSVG_SVGID_67_"  overflow="visible"/>
				</clipPath>
				<g clip-path="url(#BKSVG_SVGID_68_)">
					<defs>
						<path id="BKSVG_SVGID_69_" d="M84.083,350.695c0,0-8.805,7.697-11.822,11.545c-3.019,3.847-9.813,14.801-9.813,14.801l-4.274,7.695
							c0,0,14.087-19.236,18.614-23.383c4.53-4.147,7.296-6.217,7.296-6.217V350.695z"/>
					</defs>
					<clipPath id="BKSVG_SVGID_70_">
						<use xlink:href="#BKSVG_SVGID_69_"  overflow="visible"/>
					</clipPath>
					
						<radialGradient id="BKSVG_SVGID_71_" cx="180.0469" cy="1042.0488" r="1.2014" gradientTransform="matrix(20.0582 0 0 -23.6045 -3544.1843 24932.8984)" gradientUnits="userSpaceOnUse">
						<stop  offset="0" style="stop-color:#FFFFFF"/>
						<stop  offset="1" style="stop-color:#000000"/>
					</radialGradient>
					<rect x="58.174" y="350.695" clip-path="url(#BKSVG_SVGID_70_)" fill="url(#BKSVG_SVGID_71_)" width="25.91" height="34.042"/>
				</g>
			</g>
		</g>
		<g opacity="0.15" clip-path="url(#BKSVG_SVGID_6_)">
			<g>
				<defs>
					<rect id="BKSVG_SVGID_72_" x="62.953" y="398.356" width="64.647" height="29.305"/>
				</defs>
				<clipPath id="BKSVG_SVGID_73_">
					<use xlink:href="#BKSVG_SVGID_72_"  overflow="visible"/>
				</clipPath>
				<g clip-path="url(#BKSVG_SVGID_73_)">
					<defs>
						<path id="BKSVG_SVGID_74_" d="M62.954,398.356c0,0,18.864,12.73,22.89,15.984c4.025,3.255,27.418,13.32,28.173,13.32
							c0.756,0,7.795-4.44,9.559-4.144c1.76,0.295,4.024,2.665,4.024,2.665s0-7.998-5.283-7.699c-5.283,0.3-5.535,6.22-8.3,6.514
							C111.251,425.292,62.954,398.356,62.954,398.356"/>
					</defs>
					<clipPath id="BKSVG_SVGID_75_">
						<use xlink:href="#BKSVG_SVGID_74_"  overflow="visible"/>
					</clipPath>
					
						<radialGradient id="BKSVG_SVGID_76_" cx="184.9443" cy="1038.3301" r="1.2014" gradientTransform="matrix(47.7926 0 0 -56.2423 -8766.2061 58780.7266)" gradientUnits="userSpaceOnUse">
						<stop  offset="0" style="stop-color:#FFFFFF"/>
						<stop  offset="1" style="stop-color:#000000"/>
					</radialGradient>
					<rect x="62.954" y="398.356" clip-path="url(#BKSVG_SVGID_75_)" fill="url(#BKSVG_SVGID_76_)" width="64.646" height="29.305"/>
				</g>
			</g>
		</g>
		<g opacity="0.15" clip-path="url(#BKSVG_SVGID_6_)">
			<g>
				<defs>
					<rect id="BKSVG_SVGID_77_" x="127.6" y="423.665" width="29.692" height="17.908"/>
				</defs>
				<clipPath id="BKSVG_SVGID_78_">
					<use xlink:href="#BKSVG_SVGID_77_"  overflow="visible"/>
				</clipPath>
				<g clip-path="url(#BKSVG_SVGID_78_)">
					<defs>
						<path id="BKSVG_SVGID_79_" d="M155.428,423.665c0,0-4.433,0.738-5.691,2.517c-1.261,1.776-0.494,5.546-4.027,7.695
							c-7.293,4.442-18.109-9.176-18.109-9.176s14.34,16.873,18.363,16.873c4.024,0,5.532-2.075,5.532-4.443
							c0-2.362-1.004-6.215,1.258-7.104c2.267-0.886,4.539-0.106,4.539-0.106L155.428,423.665z"/>
					</defs>
					<clipPath id="BKSVG_SVGID_80_">
						<use xlink:href="#BKSVG_SVGID_79_"  overflow="visible"/>
					</clipPath>
					
						<radialGradient id="BKSVG_SVGID_81_" cx="185.0054" cy="1038.3809" r="1.2005" gradientTransform="matrix(46.5782 0 0 -54.8132 -8502.1592 57303.8047)" gradientUnits="userSpaceOnUse">
						<stop  offset="0" style="stop-color:#FFFFFF"/>
						<stop  offset="1" style="stop-color:#000000"/>
					</radialGradient>
					<rect x="127.6" y="423.665" clip-path="url(#BKSVG_SVGID_80_)" fill="url(#BKSVG_SVGID_81_)" width="29.692" height="17.908"/>
				</g>
			</g>
		</g>
		<g opacity="0.2" clip-path="url(#BKSVG_SVGID_6_)">
			<g>
				<defs>
					<rect id="BKSVG_SVGID_82_" x="49.78" y="393.322" width="93.918" height="53.58"/>
				</defs>
				<clipPath id="BKSVG_SVGID_83_">
					<use xlink:href="#BKSVG_SVGID_82_"  overflow="visible"/>
				</clipPath>
				<g clip-path="url(#BKSVG_SVGID_83_)">
					<defs>
						<path id="BKSVG_SVGID_84_" d="M49.78,398.133c0,0,8.144,7.331,12.42,9.104c4.275,1.775,14.337,5.031,14.337,5.031
							s15.345,13.916,19.116,16.281c3.773,2.366,25.657,16.577,32.7,17.463c7.044,0.89,15.345,0.89,15.345,0.89
							s-9.309,0-16.099-2.667c-6.789-2.662-25.657-13.912-31.946-18.646c-6.287-4.736-22.387-17.164-24.4-18.351
							c-2.011-1.187-9.559-7.104-11.57-8.586c-2.01-1.481-6.791-5.328-6.791-5.328L49.78,398.133z"/>
					</defs>
					<clipPath id="BKSVG_SVGID_85_">
						<use xlink:href="#BKSVG_SVGID_84_"  overflow="visible"/>
					</clipPath>
					
						<radialGradient id="BKSVG_SVGID_86_" cx="186.3608" cy="1037.3652" r="1.2015" gradientTransform="matrix(81.5717 0 0 -95.9936 -15146.6738 99934.6484)" gradientUnits="userSpaceOnUse">
						<stop  offset="0" style="stop-color:#FFFFFF"/>
						<stop  offset="1" style="stop-color:#000000"/>
					</radialGradient>
					<rect x="49.78" y="393.322" clip-path="url(#BKSVG_SVGID_85_)" fill="url(#BKSVG_SVGID_86_)" width="93.918" height="53.58"/>
				</g>
			</g>
		</g>
		<g opacity="0.03" clip-path="url(#BKSVG_SVGID_6_)">
			<g>
				<defs>
					<rect id="BKSVG_SVGID_87_" x="32.981" y="413.777" width="117.795" height="56.176"/>
				</defs>
				<clipPath id="BKSVG_SVGID_88_">
					<use xlink:href="#BKSVG_SVGID_87_"  overflow="visible"/>
				</clipPath>
				<g clip-path="url(#BKSVG_SVGID_88_)">
					<defs>
						<path id="BKSVG_SVGID_89_" d="M35.865,417.116c0.652-1.315,0.802-2.887,1.651-3.219c3.375-1.325,8.049,8.634,13.89,11.809
							c8.53,4.631,50.284,20.604,54.306,21.493c4.027,0.889,13.333,3.85,15.849,5.327c2.515,1.481,12.382,4.21,15.4,4.21
							c3.021,0,13.778-9.537,13.778-9.537s0.347,4.051-1.07,5.051c-1.599,1.131-5.375,3.61-5.468,3.831
							c-1.102,2.59-1.666,6.027-2.595,8.716c-0.93,2.683-3.119,4.845-3.119,4.845c-6.886,1.786-11.412-4.613-15.908-6.375
							c-2.669-1.046-23.841-6.453-27.868-7.935c-4.029-1.484-39.691-16.732-45.099-19.398c-7.801-3.848-16.923-12.804-16.626-13.433
							C33.183,422.098,34.692,419.491,35.865,417.116"/>
					</defs>
					<clipPath id="BKSVG_SVGID_90_">
						<use xlink:href="#BKSVG_SVGID_89_"  overflow="visible"/>
					</clipPath>
					
						<radialGradient id="BKSVG_SVGID_91_" cx="185.4287" cy="1037.8887" r="1.2018" gradientTransform="matrix(54.3928 0 0 -64.0095 -9994.1387 66872.4453)" gradientUnits="userSpaceOnUse">
						<stop  offset="0" style="stop-color:#FFFFFF"/>
						<stop  offset="1" style="stop-color:#000000"/>
					</radialGradient>
					<rect x="32.69" y="412.572" clip-path="url(#BKSVG_SVGID_90_)" fill="url(#BKSVG_SVGID_91_)" width="118.396" height="58.855"/>
				</g>
			</g>
		</g>
		<g opacity="0.08" clip-path="url(#BKSVG_SVGID_6_)">
			<g>
				<defs>
					<rect id="BKSVG_SVGID_92_" x="210.867" y="836.19" width="318.281" height="24.993"/>
				</defs>
				<clipPath id="BKSVG_SVGID_93_">
					<use xlink:href="#BKSVG_SVGID_92_"  overflow="visible"/>
				</clipPath>
				<g clip-path="url(#BKSVG_SVGID_93_)">
					<defs>
						<path id="BKSVG_SVGID_94_" d="M213.929,840.395c0,0,33.364,3.567,45.203,5.846c11.838,2.277,34.227,10.197,76.383,12.042
							c42.157,1.837,85.339,4.762,119.645,1.266c34.301-3.494,54.118-6.981,61.218-5.691c7.104,1.296,11.476,1.177,11.476,1.177
							s1.328-1.14,1.292-2.996c-0.036-1.846-6.771-1.669-12.501-1.887c-5.731-0.215-46.393,5.668-61.199,6.804
							c-14.804,1.131-99.07-0.344-120.67-1.987c-21.595-1.649-66.931-11.174-76.057-12.778c-9.131-1.611-46.433-7.108-47.227-5.798
							C209.206,840.149,213.929,840.395,213.929,840.395"/>
					</defs>
					<clipPath id="BKSVG_SVGID_95_">
						<use xlink:href="#BKSVG_SVGID_94_"  overflow="visible"/>
					</clipPath>
					
						<radialGradient id="BKSVG_SVGID_96_" cx="187.3022" cy="1036.2998" r="1.2013" gradientTransform="matrix(122.6927 -3.2514 -2.5759 -134.6907 -20086.8652 141079.7031)" gradientUnits="userSpaceOnUse">
						<stop  offset="0" style="stop-color:#FFFFFF"/>
						<stop  offset="1" style="stop-color:#000000"/>
					</radialGradient>
					<polygon clip-path="url(#BKSVG_SVGID_95_)" fill="url(#BKSVG_SVGID_96_)" points="208.672,835.095 529.02,826.605 529.716,863.029 
						209.368,871.518 					"/>
				</g>
			</g>
		</g>
		<g opacity="0.03" clip-path="url(#BKSVG_SVGID_6_)">
			<g>
				<defs>
					<rect id="BKSVG_SVGID_97_" x="151.636" y="393.286" width="165.042" height="459.25"/>
				</defs>
				<clipPath id="BKSVG_SVGID_98_">
					<use xlink:href="#BKSVG_SVGID_97_"  overflow="visible"/>
				</clipPath>
				<g clip-path="url(#BKSVG_SVGID_98_)">
					<defs>
						<path id="BKSVG_SVGID_99_" d="M152.722,393.286c0,0,40.44,49.59,45.323,53.036c4.881,3.445,36.128,1.722,41.498-0.578
							c5.367-2.297,27.827-49.982,36.125-51.708c8.299-1.722,31.731,52.858,31.244,59.179
							c-0.485,6.319-24.411,85.605-18.551,103.993c5.86,18.382,23.436,59.167,25.388,72.384c1.955,13.215,2.93,51.708,2.93,61.476
							c0,9.767-0.491,41.939-1.952,49.409c-1.467,7.476-5.767,124.985-14.154,110.886c-0.554-0.929-19.222-2.84-38.34-7.045
							c-10.09-2.219-49.053-7.208-50.74-7.927c-4.976-2.1,8.421-94.971,8.421-94.971s-1.216-26.481-2.187-35.677
							c-0.356-3.322,0.174-10.824-0.721-18.843c-0.715-6.397-4.594-30.952-6.15-37.178c-1.273-5.085,2.307-15.512-1.078-26.255
							c-3.125-9.892-5.955-20.034-8.298-26.919c-4.878-14.36-17.015-54.854-19.543-64.627c-1.028-3.971-3.955-15.059-6.48-27.077
							c-2.76-13.138-4.582-27.395-5.239-31.526c-1.196-7.499-3.339-24.666-5.627-31.564c-1.366-4.115-7.292-12.119-7.292-12.119
							c-2.623-6.186-3.938-14.947-5.29-20.528C150.864,404.396,152.722,393.286,152.722,393.286"/>
					</defs>
					<clipPath id="BKSVG_SVGID_100_">
						<use xlink:href="#BKSVG_SVGID_99_"  overflow="visible"/>
					</clipPath>
					
						<radialGradient id="BKSVG_SVGID_101_" cx="187.8613" cy="1036.3633" r="1.2017" gradientTransform="matrix(244.8866 0 0 -288.1826 -45795.6953 299038.9063)" gradientUnits="userSpaceOnUse">
						<stop  offset="0" style="stop-color:#FFFFFF"/>
						<stop  offset="1" style="stop-color:#000000"/>
					</radialGradient>
					<rect x="150.864" y="392.314" clip-path="url(#BKSVG_SVGID_100_)" fill="url(#BKSVG_SVGID_101_)" width="165.814" height="473.147"/>
				</g>
			</g>
		</g>
		<g opacity="0.03" clip-path="url(#BKSVG_SVGID_6_)">
			<g>
				<defs>
					<rect id="BKSVG_SVGID_102_" x="445.131" y="419.792" width="128.133" height="432.423"/>
				</defs>
				<clipPath id="BKSVG_SVGID_103_">
					<use xlink:href="#BKSVG_SVGID_102_"  overflow="visible"/>
				</clipPath>
				<g clip-path="url(#BKSVG_SVGID_103_)">
					<defs>
						<path id="BKSVG_SVGID_104_" d="M532.944,419.892c0,0-32.22,16.66-50.771,13.213c-18.55-3.448-41.988,0-36.125,7.47
							c5.859,7.465,16.599,18.386,20.993,28.725c4.396,10.34,15.626,46.533,14.646,59.175c-0.976,12.641-9.275,60.899-2.929,74.69
							c6.345,13.787,24.414,36.189,21.48,51.708c-2.926,15.512,12.205,23.555,13.671,35.044c1.465,11.493-2.929,45.389-7.325,56.877
							c-4.395,11.494-8.826,23.584-8.826,23.584s-3.767,80.571-0.694,80.984c1.986,0.263,8.064,0.159,9.584,0
							c0.94-0.094,22.026,1.344,22.498,0.675c1.138-1.6-12.795-89.595-10.796-97.826c2.298-9.45,3.286-20.623,3.286-26.756
							c0-5.317-0.204-17.429-0.857-30.623c-0.759-15.335-1.403-32.013-0.036-41.384c1.314-9.019,6.444-25.985,10.61-41.407
							c4.085-15.1,7.217-28.711,7.939-31.561c1.468-5.742,19.529-75.844,19.529-83.882c0-8.039,3.719-36.783,5.698-42.033
							c1.719-4.543,8.723-17.164,8.723-17.164s1.202,0.599-14.421-10.316C543.198,418.165,532.944,419.892,532.944,419.892"/>
					</defs>
					<clipPath id="BKSVG_SVGID_105_">
						<use xlink:href="#BKSVG_SVGID_104_"  overflow="visible"/>
					</clipPath>
					
						<radialGradient id="BKSVG_SVGID_106_" cx="188.0459" cy="1036.4297" r="1.202" gradientTransform="matrix(220.3934 0 0 -259.3589 -40905.3633 269163.5625)" gradientUnits="userSpaceOnUse">
						<stop  offset="0" style="stop-color:#FFFFFF"/>
						<stop  offset="1" style="stop-color:#000000"/>
					</radialGradient>
					<rect x="440.186" y="418.165" clip-path="url(#BKSVG_SVGID_105_)" fill="url(#BKSVG_SVGID_106_)" width="134.258" height="434.542"/>
				</g>
			</g>
		</g>
		<g opacity="0.25" clip-path="url(#BKSVG_SVGID_6_)">
			<g>
				<defs>
					<rect id="BKSVG_SVGID_107_" x="38.925" y="413.859" width="111.983" height="43.814"/>
				</defs>
				<clipPath id="BKSVG_SVGID_108_">
					<use xlink:href="#BKSVG_SVGID_107_"  overflow="visible"/>
				</clipPath>
				<path clip-path="url(#BKSVG_SVGID_108_)" fill="none" stroke="#AEB1AE" stroke-width="0.682" stroke-dasharray="2.045,1.363" d="
					M39.228,414.135c0,0,6.536,7.186,9.076,9.426c2.54,2.242,40.648,18.123,49.699,21.112c9.046,2.993,27.144,8.971,28.735,9.531
					c1.585,0.557,10.161,3.551,11.272,2.992c1.11-0.564,9.685-6.545,10.798-7.292c1.108-0.744,1.744-1.87,1.744-1.87"/>
			</g>
		</g>
		<g opacity="0.25" clip-path="url(#BKSVG_SVGID_6_)">
			<g>
				<defs>
					<rect id="BKSVG_SVGID_109_" x="32.465" y="422.555" width="106.036" height="47.507"/>
				</defs>
				<clipPath id="BKSVG_SVGID_110_">
					<use xlink:href="#BKSVG_SVGID_109_"  overflow="visible"/>
				</clipPath>
				<path clip-path="url(#BKSVG_SVGID_110_)" fill="none" stroke="#AEB1AE" stroke-width="0.682" stroke-dasharray="2.045,1.363" d="
					M32.757,422.843c0,0,10.628,10.806,18.249,13.798c7.62,2.992,36.833,16.252,45.406,18.868
					c8.573,2.615,25.243,6.166,27.627,7.852c2.381,1.68,7.782,5.973,10,6.164c2.224,0.186,4.447,0.116,4.447,0.116"/>
			</g>
		</g>
		<path clip-path="url(#BKSVG_SVGID_6_)" d="M380.055,226.178c6.349,0,11.49,5.506,11.49,12.293c0,6.791-5.141,12.295-11.49,12.295
			h-22.286c-6.343,0-11.49-5.504-11.49-12.295c0-6.788,5.146-12.293,11.49-12.293H380.055"/>
		<path clip-path="url(#BKSVG_SVGID_6_)" fill="none" stroke="#000000" stroke-width="6.518" d="M380.055,226.178
			c6.349,0,11.49,5.506,11.49,12.293c0,6.791-5.141,12.295-11.49,12.295h-22.286c-6.343,0-11.49-5.504-11.49-12.295
			c0-6.788,5.146-12.293,11.49-12.293H380.055"/>
		<path clip-path="url(#BKSVG_SVGID_6_)" d="M379.197,228.146c5.767,0,10.439,4.623,10.439,10.327c0,5.706-4.672,10.327-10.443,10.327
			h-20.242c-5.759,0-10.434-4.622-10.434-10.327c0-5.704,4.675-10.327,10.434-10.327H379.197"/>
		<path clip-path="url(#BKSVG_SVGID_6_)" fill="none" stroke="#FFFFFF" stroke-width="0.706" d="M379.197,228.146
			c5.767,0,10.439,4.623,10.439,10.327c0,5.706-4.672,10.327-10.443,10.327h-20.242c-5.759,0-10.434-4.622-10.434-10.327
			c0-5.704,4.675-10.327,10.434-10.327H379.197"/>
		<path clip-path="url(#BKSVG_SVGID_6_)" fill="#FFFFFE" d="M351.247,238.408c0-4.303,3.191-7.83,7.23-8.115v16.229
			C354.438,246.239,351.247,242.71,351.247,238.408"/>
		<polygon clip-path="url(#BKSVG_SVGID_6_)" fill="#FFFFFE" points="366.501,237.344 359.755,230.273 366.501,230.273 		"/>
		<polygon clip-path="url(#BKSVG_SVGID_6_)" fill="#FFFFFE" points="366.501,239.47 359.755,246.543 366.501,246.543 		"/>
		<polygon clip-path="url(#BKSVG_SVGID_6_)" fill="#FFFFFF" points="374.965,237.344 381.715,230.273 374.965,230.273 		"/>
		<polygon clip-path="url(#BKSVG_SVGID_6_)" fill="#FFFFFF" points="374.965,239.47 381.715,246.543 374.965,246.543 		"/>
		<rect x="367.934" y="230.273" clip-path="url(#BKSVG_SVGID_6_)" fill="#FFFFFF" width="5.601" height="16.269"/>
		<path clip-path="url(#BKSVG_SVGID_6_)" fill="#FFFFFF" d="M357.858,224.257v0.995h0.94v-0.336l0.345,0.073v0.189
			c0,0.292-0.084,0.37-0.372,0.37h-0.888c-0.285,0-0.371-0.079-0.371-0.37v-0.832c0-0.292,0.086-0.37,0.371-0.37h0.888
			c0.288,0,0.372,0.078,0.372,0.37v0.15l-0.345,0.059v-0.298H357.858z"/>
		<path clip-path="url(#BKSVG_SVGID_6_)" fill="#FFFFFF" d="M360.061,223.976h1.104c0.281,0,0.37,0.078,0.37,0.37v0.832
			c0,0.292-0.089,0.37-0.37,0.37h-1.104c-0.284,0-0.373-0.079-0.373-0.37v-0.832C359.688,224.054,359.777,223.976,360.061,223.976
			 M361.184,224.257h-1.146v0.994h1.146V224.257z"/>
		<path clip-path="url(#BKSVG_SVGID_6_)" fill="#FFFFFF" d="M362.12,223.977h0.283l0.703,0.951l0.692-0.951h0.279v1.571h-0.322v-0.971
			c0-0.031,0.002-0.084,0.008-0.167c-0.027,0.068-0.06,0.126-0.087,0.164l-0.558,0.783h-0.075l-0.56-0.785
			c-0.037-0.05-0.067-0.102-0.09-0.162c0.006,0.064,0.01,0.118,0.01,0.167v0.971h-0.283V223.977z"/>
		<path clip-path="url(#BKSVG_SVGID_6_)" fill="#FFFFFF" d="M364.661,223.977h1.281c0.232,0,0.34,0.086,0.34,0.304v0.351
			c0,0.218-0.108,0.306-0.34,0.306h-0.937v0.611h-0.345V223.977z M365.006,224.25v0.415h0.784c0.106,0,0.152-0.021,0.152-0.125
			v-0.166c0-0.103-0.046-0.124-0.152-0.124H365.006z"/>
		<path clip-path="url(#BKSVG_SVGID_6_)" fill="#FFFFFF" d="M366.674,223.977h1.276c0.234,0,0.34,0.086,0.34,0.304v0.37
			c0,0.219-0.105,0.305-0.34,0.305h-0.191l0.684,0.593h-0.493l-0.605-0.593h-0.324v0.593h-0.347V223.977z M367.021,224.25v0.437
			h0.776c0.112,0,0.155-0.022,0.155-0.125v-0.188c0-0.103-0.043-0.124-0.155-0.124H367.021z"/>
		<polygon clip-path="url(#BKSVG_SVGID_6_)" fill="#FFFFFF" points="368.852,223.977 370.383,223.977 370.383,224.245 369.201,224.245 
			369.201,224.592 369.891,224.592 369.891,224.863 369.201,224.863 369.201,225.25 370.403,225.25 370.403,225.548 
			368.852,225.548 		"/>
		<path clip-path="url(#BKSVG_SVGID_6_)" fill="#FFFFFF" d="M371.22,224.25v0.34h0.93c0.284,0,0.372,0.075,0.372,0.37v0.219
			c0,0.292-0.088,0.37-0.372,0.37h-0.924c-0.279,0-0.374-0.079-0.374-0.37v-0.049l0.308-0.061v0.182h1.058v-0.358h-0.934
			c-0.282,0-0.371-0.077-0.371-0.371v-0.175c0-0.292,0.089-0.37,0.371-0.37h0.85c0.267,0,0.371,0.074,0.371,0.346v0.032
			l-0.308,0.075v-0.18H371.22z"/>
		<path clip-path="url(#BKSVG_SVGID_6_)" fill="#FFFFFF" d="M373.415,224.25v0.34h0.936c0.28,0,0.373,0.075,0.373,0.37v0.219
			c0,0.292-0.093,0.37-0.373,0.37h-0.924c-0.283,0-0.373-0.079-0.373-0.37v-0.049l0.307-0.061v0.182h1.058v-0.358h-0.936
			c-0.274,0-0.371-0.077-0.371-0.371v-0.175c0-0.292,0.096-0.37,0.371-0.37h0.851c0.268,0,0.37,0.074,0.37,0.346v0.032l-0.305,0.075
			v-0.18H373.415z"/>
		<rect x="375.305" y="223.976" clip-path="url(#BKSVG_SVGID_6_)" fill="#FFFFFF" width="0.35" height="1.571"/>
		<path clip-path="url(#BKSVG_SVGID_6_)" fill="#FFFFFF" d="M376.611,223.976h1.103c0.286,0,0.375,0.078,0.375,0.37v0.832
			c0,0.292-0.089,0.37-0.375,0.37h-1.103c-0.281,0-0.369-0.079-0.369-0.37v-0.832C376.242,224.054,376.33,223.976,376.611,223.976
			 M377.738,224.257h-1.154v0.994h1.154V224.257z"/>
		<path clip-path="url(#BKSVG_SVGID_6_)" fill="#FFFFFF" d="M378.669,223.977h0.239l1.054,0.924c0.062,0.055,0.114,0.106,0.169,0.172
			c-0.006-0.129-0.012-0.223-0.012-0.27v-0.826h0.309v1.571h-0.233l-1.101-0.971c-0.042-0.041-0.084-0.08-0.125-0.128
			c0.015,0.123,0.015,0.202,0.015,0.249v0.851h-0.315V223.977z"/>
		<path clip-path="url(#BKSVG_SVGID_6_)" fill="#FFFFFF" d="M364.741,251.727v0.996h1.083v-0.349h-0.567v-0.27h0.911v0.541
			c0,0.295-0.092,0.373-0.373,0.373h-1.032c-0.286,0-0.374-0.078-0.374-0.373v-0.825c0-0.297,0.088-0.37,0.374-0.37h1.032
			c0.272,0,0.373,0.073,0.373,0.354v0.035l-0.344,0.066v-0.178H364.741z"/>
		<polygon clip-path="url(#BKSVG_SVGID_6_)" fill="#FFFFFF" points="366.758,251.449 368.289,251.449 368.289,251.718 367.108,251.718 
			367.108,252.069 367.796,252.069 367.796,252.334 367.108,252.334 367.108,252.722 368.305,252.722 368.305,253.017 
			366.758,253.017 		"/>
		<path clip-path="url(#BKSVG_SVGID_6_)" fill="#FFFFFF" d="M369.365,251.449h0.335l0.857,1.569h-0.393l-0.181-0.343h-0.945l-0.175,0.343
			h-0.347L369.365,251.449z M369.839,252.392l-0.32-0.639l-0.33,0.639H369.839z"/>
		<path clip-path="url(#BKSVG_SVGID_6_)" fill="#FFFFFF" d="M370.896,251.449h1.277c0.233,0,0.338,0.085,0.338,0.304v0.368
			c0,0.218-0.104,0.303-0.338,0.303h-0.192l0.686,0.593h-0.5l-0.599-0.593h-0.333v0.593h-0.339V251.449z M371.235,251.718v0.439
			h0.784c0.106,0,0.157-0.02,0.157-0.124v-0.189c0-0.104-0.051-0.126-0.157-0.126H371.235z"/>
		<path clip-path="url(#BKSVG_SVGID_6_)" fill="#FFFFFF" d="M374.642,251.168c0.195,0.203,0.306,0.479,0.306,0.771
			c0,0.299-0.108,0.566-0.309,0.769c-0.206,0.211-0.464,0.325-0.737,0.325c-0.278,0-0.539-0.114-0.739-0.329
			c-0.197-0.21-0.304-0.477-0.304-0.765c0-0.291,0.11-0.567,0.314-0.786c0.19-0.203,0.446-0.307,0.729-0.307
			S374.444,250.958,374.642,251.168 M374.547,251.27c-0.169-0.185-0.395-0.281-0.644-0.281c-0.245,0-0.47,0.089-0.635,0.27
			c-0.175,0.187-0.275,0.427-0.275,0.68c0,0.25,0.097,0.485,0.265,0.664c0.176,0.188,0.403,0.284,0.635,0.284
			c0.244,0,0.469-0.097,0.651-0.28c0.173-0.173,0.264-0.407,0.264-0.659C374.808,251.683,374.72,251.445,374.547,251.27
			 M374.421,251.636c0,0.178-0.096,0.299-0.269,0.336l0.261,0.564h-0.25l-0.238-0.531h-0.22v0.531h-0.223v-1.239h0.446
			C374.261,251.296,374.421,251.413,374.421,251.636 M373.706,251.449v0.411h0.188c0.203,0,0.296-0.053,0.296-0.197
			c0-0.157-0.093-0.214-0.306-0.214H373.706z"/>
	</g>
	<g id="BOX_BODY">
		<rect x="197.354" y="281.344" clip-path="url(#BKSVG_SVGID_2_)" fill="none" stroke="#000000" stroke-dasharray="5,2" width="333.98" height="235.667"/>
	
		<rect x="203.362" y="285.336" clip-path="url(#BKSVG_SVGID_2_)" fill="none" stroke="#000000" stroke-dasharray="5,2" width="143.297" height="143.299"/>
	
		<rect x="382.484" y="285.336" clip-path="url(#BKSVG_SVGID_2_)" fill="none" stroke="#000000" stroke-dasharray="5,2" width="143.299" height="143.299"/>
	
		<rect x="320.618" y="268.476" clip-path="url(#BKSVG_SVGID_2_)" fill="none" stroke="#000000" stroke-dasharray="5,2" width="87.454" height="435.166"/>
</g>
  <g id="CUSTOM"></g>
  </g>
</svg>
