<?xml version="1.0" encoding="utf-8"?>
<!-- Generator: Adobe Illustrator 16.0.0, SVG Export Plug-In . SVG Version: 6.00 Build 0)  -->
<!DOCTYPE svg PUBLIC "-//W3C//DTD SVG 1.1//EN" "http://www.w3.org/Graphics/SVG/1.1/DTD/svg11.dtd">
<svg version="1.1" id="Layer_1" xmlns="http://www.w3.org/2000/svg" xmlns:xlink="http://www.w3.org/1999/xlink" x="0px" y="0px"
	 width="800.453px" height="1035.881px" viewBox="0 0 620 1035.881" enable-background="new 0 0 800.453 1035.881"
	 xml:space="preserve">
<g>
	<defs>
		<rect id="FTSVG_SVGID_1_" x="-14.063" y="8.155" width="789.476" height="1021.675"/>
	</defs>
	<clipPath id="FTSVG_SVGID_2_">
		<use xlink:href="#FTSVG_SVGID_1_"  overflow="visible"/>
	</clipPath>
	<g clip-path="url(#FTSVG_SVGID_2_)">
		<defs>
			<rect id="FTSVG_SVGID_3_" x="-14.063" y="8.155" width="789.476" height="1021.675"/>
		</defs>
		<clipPath id="FTSVG_SVGID_4_">
			<use xlink:href="#FTSVG_SVGID_3_"  overflow="visible"/>
		</clipPath>
    <g id="BODY">
		<path clip-path="url(#FTSVG_SVGID_4_)" fill="#152048" d="M717.932,418.724l-3.28-16.399c0,0-2.187-94.017-13.118-132.278
			c-10.933-38.263-48.102-66.688-54.66-68.873c-4.884-1.629-12.787-6.884-16.511-9.468c-1.281-0.889-2.074-1.465-2.074-1.465
			s-29.518-9.839-71.061-26.237c-26.22-10.349-49.383-25.922-64.282-37.104c-8.707-6.533-14.599-11.572-16.615-13.185
			c-5.466-4.373-5.466-7.652-10.932-10.931c-5.466-3.28-7.651-13.119-18.584-18.585c-6.959-3.479-38.27-4.744-60.118-5.205
			l-0.009-0.261c0,0-4.297,0-10.933,0.082c-6.635-0.082-10.932-0.082-10.932-0.082l-0.009,0.261
			c-21.85,0.461-53.16,1.726-60.119,5.205c-10.933,5.466-13.12,15.305-18.584,18.585c-5.466,3.279-5.466,6.558-10.933,10.931
			c-1.605,1.285-5.675,4.748-11.66,9.399c-14.386,11.189-39.895,29.308-69.238,40.889c-41.542,16.398-71.058,26.237-71.058,26.237
			s-0.968,0.7-2.473,1.74c-3.863,2.663-11.392,7.619-16.112,9.193c-6.56,2.185-43.728,30.61-54.661,68.873
			c-10.931,38.261-13.118,132.278-13.118,132.278l-3.28,16.399l-3.279,9.839c0,0,38.262,9.838,71.059,12.024
			s53.567,2.187,53.567,2.187s2.187-2.187,1.093-8.746c-1.093-6.56-2.187-8.745-1.093-12.025c1.021-3.064,4.908-12.815,5.41-14.074
			c0.036-0.086,0.056-0.138,0.056-0.138s6.559,34.983,5.466,49.195s6.56,102.76,12.026,130.092
			c5.465,27.33,12.025,97.297,6.56,126.814c-5.467,29.515-18.585,108.228-21.865,142.117c-3.28,33.889-3.28,59.034-3.28,59.034
			s-4.372,4.372-4.372,8.746c0,4.372,2.187,14.211,2.187,14.211v7.652c0,0,2.186,16.399,47.008,19.678
			c44.822,3.279,98.389,4.373,114.788,7.653c4.264,0.854,9.572,1.705,15.332,2.501l-0.028,0.778c0,0,21.864,3.279,36.077,3.279
			c1.609,0,3.454-0.044,5.466-0.124c2.012,0.08,3.855,0.124,5.466,0.124c14.211,0,36.076-3.279,36.076-3.279l-0.026-0.778
			c5.759-0.796,11.065-1.647,15.331-2.501c16.398-3.28,69.967-4.374,114.787-7.653c44.823-3.278,47.009-19.678,47.009-19.678V938
			c0,0,2.188-9.839,2.188-14.211c0-4.374-4.373-8.746-4.373-8.746s0-25.146-3.28-59.034c-3.278-33.89-16.398-112.603-21.863-142.117
			c-5.468-29.518,1.092-99.484,6.559-126.814c5.466-27.332,13.119-115.88,12.026-130.092c-0.941-12.227,3.778-39.805,5.116-47.278
			c0.219-1.213,0.35-1.917,0.35-1.917s4.373,10.933,5.466,14.212c1.093,3.281,0,5.465-1.093,12.025
			c-1.095,6.559,1.093,8.746,1.093,8.746s20.771,0,53.567-2.187s71.059-12.024,71.059-12.024L717.932,418.724z M120.75,191.987
			c0.019,0.836,0.041,1.76,0.071,2.747C120.791,193.746,120.769,192.824,120.75,191.987"/>
	</g>
    </g>
	<g clip-path="url(#FTSVG_SVGID_2_)">
		<defs>
			<rect id="FTSVG_SVGID_5_" x="-14.063" y="8.155" width="789.476" height="1021.675"/>
		</defs>
		<clipPath id="FTSVG_SVGID_6_">
			<use xlink:href="#FTSVG_SVGID_5_"  overflow="visible"/>
		</clipPath>
		<path clip-path="url(#FTSVG_SVGID_6_)" d="M121.225,203.966c0.028,0.47,0.057,0.941,0.088,1.417
			C121.282,204.908,121.252,204.436,121.225,203.966"/>
		<path clip-path="url(#FTSVG_SVGID_6_)" d="M121.113,201.974c0.026,0.485,0.053,0.977,0.082,1.471
			C121.166,202.951,121.139,202.459,121.113,201.974"/>
		<path clip-path="url(#FTSVG_SVGID_6_)" d="M160.315,405.963c0,0.012,0,0.023,0,0.034C160.315,405.986,160.315,405.975,160.315,405.963"
			/>
		<path clip-path="url(#FTSVG_SVGID_6_)" d="M121.021,200.098c0.026,0.546,0.052,1.098,0.081,1.66
			C121.073,201.196,121.047,200.643,121.021,200.098"/>
		<path clip-path="url(#FTSVG_SVGID_6_)" d="M120.828,194.974c0.014,0.461,0.028,0.935,0.046,1.424
			C120.856,195.91,120.841,195.436,120.828,194.974"/>
		<path clip-path="url(#FTSVG_SVGID_6_)" d="M120.947,198.375c0.019,0.431,0.036,0.87,0.055,1.316
			C120.983,199.246,120.966,198.806,120.947,198.375"/>
		<path clip-path="url(#FTSVG_SVGID_6_)" d="M120.75,191.987c0.019,0.837,0.041,1.759,0.071,2.747
			C120.791,193.747,120.769,192.823,120.75,191.987"/>
		<path clip-path="url(#FTSVG_SVGID_6_)" d="M160.336,407.929"/>
		<path clip-path="url(#FTSVG_SVGID_6_)" d="M120.875,196.483c0.018,0.511,0.038,1.038,0.058,1.573
			C120.914,197.521,120.894,196.994,120.875,196.483"/>
		<path clip-path="url(#FTSVG_SVGID_6_)" d="M121.334,205.712c0.037,0.574,0.079,1.151,0.122,1.729
			C121.413,206.863,121.372,206.286,121.334,205.712"/>
		<path clip-path="url(#FTSVG_SVGID_6_)" d="M122.027,213.74c0.05,0.455,0.102,0.903,0.155,1.349
			C122.129,214.644,122.077,214.193,122.027,213.74"/>
		<path clip-path="url(#FTSVG_SVGID_6_)" d="M122.495,217.498c0.059,0.426,0.123,0.845,0.187,1.258
			C122.618,218.342,122.554,217.923,122.495,217.498"/>
		<path clip-path="url(#FTSVG_SVGID_6_)" d="M122.226,215.472c0.069,0.553,0.138,1.099,0.213,1.638
			C122.365,216.571,122.295,216.024,122.226,215.472"/>
		<path clip-path="url(#FTSVG_SVGID_6_)" d="M159.899,397.27c0.003,0.048,0.009,0.096,0.013,0.144
			C159.908,397.365,159.902,397.317,159.899,397.27"/>
		<path clip-path="url(#FTSVG_SVGID_6_)" d="M159.679,395.104c0.008,0.069,0.016,0.135,0.025,0.204
			C159.695,395.24,159.687,395.173,159.679,395.104"/>
		<path clip-path="url(#FTSVG_SVGID_6_)" d="M122.751,219.205c0.084,0.521,0.17,1.038,0.261,1.535
			C122.921,220.242,122.835,219.726,122.751,219.205"/>
		<path clip-path="url(#FTSVG_SVGID_6_)" d="M121.815,211.685c0.051,0.516,0.103,1.029,0.156,1.54
			C121.917,212.714,121.866,212.201,121.815,211.685"/>
		<path clip-path="url(#FTSVG_SVGID_6_)" d="M121.492,207.909c0.033,0.443,0.068,0.886,0.105,1.329
			C121.56,208.795,121.525,208.351,121.492,207.909"/>
		<path clip-path="url(#FTSVG_SVGID_6_)" d="M159.409,393.078c0.007,0.055,0.016,0.109,0.024,0.163
			C159.424,393.187,159.416,393.133,159.409,393.078"/>
		<path clip-path="url(#FTSVG_SVGID_6_)" d="M160.187,401.686c0.002,0.058,0.004,0.115,0.007,0.174
			C160.191,401.801,160.188,401.743,160.187,401.686"/>
		<path clip-path="url(#FTSVG_SVGID_6_)" d="M121.641,209.765c0.049,0.578,0.101,1.155,0.155,1.729
			C121.742,210.919,121.69,210.343,121.641,209.765"/>
		<path clip-path="url(#FTSVG_SVGID_6_)" d="M160.071,399.545c0,0.01,0.001,0.021,0.001,0.03
			C160.072,399.566,160.071,399.555,160.071,399.545"/>
		<path clip-path="url(#FTSVG_SVGID_6_)" d="M160.266,403.823c0.001,0.058,0.004,0.115,0.005,0.174
			C160.27,403.938,160.267,403.881,160.266,403.823"/>
		<path clip-path="url(#FTSVG_SVGID_6_)" d="M160.071,399.545c-0.045-0.714-0.098-1.425-0.16-2.132
			C159.973,398.12,160.025,398.832,160.071,399.545"/>
		<path clip-path="url(#FTSVG_SVGID_6_)" d="M160.336,407.929c-0.002-0.618-0.009-1.264-0.021-1.933
			C160.328,406.665,160.334,407.312,160.336,407.929"/>
		<path clip-path="url(#FTSVG_SVGID_6_)" d="M159.409,393.078c-0.099-0.647-0.207-1.275-0.326-1.875
			C159.202,391.803,159.31,392.431,159.409,393.078"/>
		<path clip-path="url(#FTSVG_SVGID_6_)" d="M160.315,405.963c-0.01-0.639-0.025-1.296-0.044-1.965
			C160.29,404.667,160.306,405.324,160.315,405.963"/>
		<path clip-path="url(#FTSVG_SVGID_6_)" d="M160.187,401.686c-0.031-0.699-0.069-1.403-0.114-2.109
			C160.118,400.282,160.155,400.986,160.187,401.686"/>
		<path clip-path="url(#FTSVG_SVGID_6_)" d="M160.266,403.823c-0.02-0.646-0.043-1.3-0.072-1.962
			C160.223,402.522,160.247,403.177,160.266,403.823"/>
		<path clip-path="url(#FTSVG_SVGID_6_)" d="M159.679,395.104c-0.074-0.636-0.156-1.257-0.246-1.863
			C159.523,393.847,159.605,394.469,159.679,395.104"/>
		<path clip-path="url(#FTSVG_SVGID_6_)" d="M159.899,397.27c-0.058-0.663-0.125-1.317-0.196-1.961
			C159.774,395.953,159.841,396.607,159.899,397.27"/>
		<path clip-path="url(#FTSVG_SVGID_6_)" d="M122.027,213.74c-0.02-0.171-0.038-0.343-0.056-0.516
			C121.989,213.397,122.007,213.569,122.027,213.74"/>
		<path clip-path="url(#FTSVG_SVGID_6_)" d="M120.875,196.483c-0.001-0.028-0.001-0.057-0.002-0.085
			C120.875,196.427,120.875,196.455,120.875,196.483"/>
		<path clip-path="url(#FTSVG_SVGID_6_)" d="M120.947,198.375c-0.004-0.106-0.009-0.213-0.013-0.318
			C120.938,198.161,120.943,198.269,120.947,198.375"/>
		<path clip-path="url(#FTSVG_SVGID_6_)" d="M121.113,201.974c-0.004-0.073-0.007-0.144-0.011-0.216
			C121.106,201.83,121.109,201.901,121.113,201.974"/>
		<path clip-path="url(#FTSVG_SVGID_6_)" d="M121.021,200.098c-0.006-0.136-0.011-0.272-0.018-0.407
			C121.01,199.827,121.015,199.962,121.021,200.098"/>
		<path clip-path="url(#FTSVG_SVGID_6_)" d="M120.75,191.98v0.006V191.98z"/>
		<path clip-path="url(#FTSVG_SVGID_6_)" d="M120.828,194.974c-0.002-0.081-0.005-0.162-0.006-0.24
			C120.822,194.813,120.825,194.894,120.828,194.974"/>
		<path clip-path="url(#FTSVG_SVGID_6_)" d="M122.751,219.205c-0.023-0.148-0.047-0.299-0.07-0.449
			C122.704,218.907,122.728,219.057,122.751,219.205"/>
		<path clip-path="url(#FTSVG_SVGID_6_)" d="M121.815,211.685c-0.006-0.063-0.013-0.127-0.02-0.191
			C121.802,211.557,121.809,211.621,121.815,211.685"/>
		<path clip-path="url(#FTSVG_SVGID_6_)" d="M122.226,215.472c-0.016-0.127-0.029-0.256-0.045-0.382
			C122.197,215.216,122.21,215.345,122.226,215.472"/>
		<path clip-path="url(#FTSVG_SVGID_6_)" d="M122.495,217.498c-0.019-0.13-0.038-0.258-0.056-0.388
			C122.458,217.239,122.476,217.368,122.495,217.498"/>
		<path clip-path="url(#FTSVG_SVGID_6_)" d="M121.492,207.909c-0.012-0.156-0.025-0.312-0.036-0.468
			C121.467,207.597,121.48,207.753,121.492,207.909"/>
		<path clip-path="url(#FTSVG_SVGID_6_)" d="M121.641,209.765c-0.016-0.175-0.029-0.351-0.044-0.526
			C121.612,209.414,121.625,209.589,121.641,209.765"/>
		<path clip-path="url(#FTSVG_SVGID_6_)" d="M121.334,205.712c-0.008-0.109-0.014-0.218-0.022-0.329
			C121.321,205.494,121.327,205.603,121.334,205.712"/>
		<path clip-path="url(#FTSVG_SVGID_6_)" d="M121.225,203.966c-0.01-0.174-0.021-0.349-0.029-0.521
			C121.204,203.618,121.214,203.792,121.225,203.966"/>
		<g opacity="0.35" clip-path="url(#FTSVG_SVGID_6_)">
			<g>
				<defs>
					<rect id="FTSVG_SVGID_7_" x="292.58" y="81.461" width="167.649" height="46.67"/>
				</defs>
				<clipPath id="FTSVG_SVGID_8_">
					<use xlink:href="#FTSVG_SVGID_7_"  overflow="visible"/>
				</clipPath>
				<g clip-path="url(#FTSVG_SVGID_8_)">
					<defs>
						<path id="FTSVG_SVGID_9_" d="M381.104,128.124c45.149,0.43,79.55-22.79,79.12-26.659c-0.431-3.87-7.834-11.057-12.564-14.496
							c-4.73-3.44-27.219-5.738-72.368-5.49c-45.669,0.249-61.14,1.996-67.378,3.494c-6.24,1.496-16.514,12.892-15.225,15.472
							C293.979,103.024,336.22,127.696,381.104,128.124"/>
					</defs>
					<clipPath id="FTSVG_SVGID_10_">
						<use xlink:href="#FTSVG_SVGID_9_"  overflow="visible"/>
					</clipPath>
					
						<radialGradient id="FTSVG_SVGID_11_" cx="187.3325" cy="1041.2754" r="1.2894" gradientTransform="matrix(102.1332 0 0 -40.5422 -18755.3105 42299.5625)" gradientUnits="userSpaceOnUse">
						<stop  offset="0" style="stop-color:#FFFFFF"/>
						<stop  offset="1" style="stop-color:#FFFFFF"/>
					</radialGradient>
					<rect x="291.4" y="81.23" clip-path="url(#FTSVG_SVGID_10_)" fill="url(#FTSVG_SVGID_11_)" width="169.254" height="47.324"/>
				</g>
				<g clip-path="url(#FTSVG_SVGID_8_)">
					<defs>
						<path id="FTSVG_SVGID_12_" d="M381.104,128.124c45.149,0.43,79.55-22.79,79.12-26.659c-0.431-3.87-7.834-11.057-12.564-14.496
							c-4.73-3.44-27.219-5.738-72.368-5.49c-45.669,0.249-61.14,1.996-67.378,3.494c-6.24,1.496-16.514,12.892-15.225,15.472
							C293.979,103.024,336.22,127.696,381.104,128.124"/>
					</defs>
					<clipPath id="FTSVG_SVGID_13_">
						<use xlink:href="#FTSVG_SVGID_12_"  overflow="visible"/>
					</clipPath>
					
						<radialGradient id="FTSVG_SVGID_14_" cx="187.3325" cy="1041.2754" r="1.2894" gradientTransform="matrix(102.1332 0 0 -40.5422 -18755.3105 42299.5625)" gradientUnits="userSpaceOnUse">
						<stop  offset="0" style="stop-color:#FFFFFF"/>
						<stop  offset="0.119" style="stop-color:#D9D8D7"/>
						<stop  offset="0.3629" style="stop-color:#969393"/>
						<stop  offset="0.7064" style="stop-color:#454343"/>
						<stop  offset="1" style="stop-color:#010101"/>
					</radialGradient>
					<rect x="291.4" y="81.23" clip-path="url(#FTSVG_SVGID_13_)" fill="url(#FTSVG_SVGID_14_)" width="169.254" height="47.324"/>
				</g>
			</g>
		</g>
		<g opacity="0.6" clip-path="url(#FTSVG_SVGID_6_)">
			<g>
				<defs>
					<rect id="FTSVG_SVGID_15_" x="56.965" y="90.818" width="644.573" height="872.041"/>
				</defs>
				<clipPath id="FTSVG_SVGID_16_">
					<use xlink:href="#FTSVG_SVGID_15_"  overflow="visible"/>
				</clipPath>
				<g opacity="0.1" clip-path="url(#FTSVG_SVGID_16_)">
					<g>
						<defs>
							<rect id="FTSVG_SVGID_17_" x="435.291" y="90.818" width="195.072" height="863.326"/>
						</defs>
						<clipPath id="FTSVG_SVGID_18_">
							<use xlink:href="#FTSVG_SVGID_17_"  overflow="visible"/>
						</clipPath>
						<path clip-path="url(#FTSVG_SVGID_18_)" d="M592.024,391.203c1.745-8.727,15.127-82.613,18.035-96.577
							c2.908-13.963,15.708-61.087,18.035-73.887c1.643-9.033,2.125-22.114,2.268-29.034c-1.281-0.887-2.074-1.465-2.074-1.465
							s-29.519-9.839-71.06-26.237c-41.541-16.397-75.432-45.915-80.898-50.287c-5.466-4.374-5.466-7.654-10.932-10.933
							c-3.618-2.171-5.813-7.216-10.046-11.965l-2.224,0.776c3.549,3.393,6.814,7.338,7.096,9.87
							c0.227,2.043-9.271,9.487-24.934,15.992c1.267,2.628,2.182,5.109,2.329,7.019c0.563,7.331,0,6.766,0,17.482
							c0,10.715,3.947,21.428,10.714,37.22c6.767,15.789,14.098,7.33,19.173,29.889c5.075,22.556-25.376,18.609-25.376,18.609
							s27.633,3.947,58.085,2.254c30.452-1.691,23.685,0,45.114-2.254c21.431-2.256,21.431-5.64,54.137,3.383
							c32.709,9.022,7.896,29.324,5.641,52.445c-2.257,23.121-34.964,19.738-44.552,32.144
							c-9.587,12.406-3.382,108.839-2.255,119.553c1.127,10.715-21.992,29.324-21.992,29.324s-6.205,18.047-10.152,31.58
							c-3.947,13.535,6.203,41.732,5.64,72.185s-28.196,70.491-37.782,92.484c-9.588,21.993-2.258,43.422,13.533,91.358
							c15.791,47.932,6.204,6.201,18.046,20.864c11.843,14.663,6.203,9.022,12.405,29.888c6.205,20.866,8.459,52.447,8.459,52.447
							s2.258,32.706,10.151,62.595c7.896,29.888,4.511,16.354,24.813,33.836l6.431,2.381c6.002-4.463,6.545-8.492,6.545-8.492
							v-7.654c0,0,2.188-9.837,2.188-14.209c0-4.374-4.371-8.746-4.371-8.746s0-25.146-3.282-59.034
							c-3.278-33.89-16.398-112.602-21.863-142.117c-5.468-29.518,1.092-99.483,6.559-126.814
							c5.466-27.33,13.119-115.88,12.026-130.092c-0.941-12.225,3.778-39.804,5.116-47.278
							C590.745,404.692,590.911,396.768,592.024,391.203"/>
					</g>
				</g>
				<g opacity="0.1" clip-path="url(#FTSVG_SVGID_16_)">
					<g>
						<defs>
							<rect id="FTSVG_SVGID_19_" x="120.75" y="95.058" width="220.021" height="867.802"/>
						</defs>
						<clipPath id="FTSVG_SVGID_20_">
							<use xlink:href="#FTSVG_SVGID_19_"  overflow="visible"/>
						</clipPath>
						<path clip-path="url(#FTSVG_SVGID_20_)" d="M337.227,120.945c-25.25-7.626-43.691-18.811-44.536-20.501
							c-0.414-0.826,0.367-2.56,1.813-4.58c-0.593-0.286-1.164-0.558-1.686-0.806c-2.33,3.258-4.168,6.204-6.708,7.727
							c-5.466,3.279-5.466,6.559-10.931,10.931c-5.466,4.373-39.355,33.89-80.898,50.288
							c-41.542,16.398-71.059,26.238-71.059,26.238s-0.965,0.699-2.472,1.737c0.147,6.989,0.641,19.848,2.261,28.762
							c2.328,12.8,15.126,59.924,18.036,73.887c2.909,13.963,16.29,87.85,18.035,96.577c0.988,4.942,1.23,11.75,1.254,16.727
							c0.035-0.088,0.056-0.14,0.056-0.14s6.56,34.983,5.465,49.195c-1.092,14.212,6.56,102.762,12.027,130.092
							c5.464,27.331,12.024,97.297,6.559,126.814c-5.465,29.516-18.585,108.228-21.864,142.117
							c-3.281,33.889-3.281,59.035-3.281,59.035s-4.371,4.371-4.371,8.745c0,4.372,2.185,14.211,2.185,14.211v7.652
							c0,0,1.555,11.559,28.582,17.207c2.311-13.136,5.744-36.238,3.796-48.315c-2.819-17.481,2.256-14.098,10.15-25.94
							c7.896-11.844,6.204-51.317,7.331-98.689c1.127-47.369,90.23-24.248,90.23-24.248s7.329-10.15,6.203-24.249
							c-1.129-14.098-45.677-76.132-54.137-90.229c-8.459-14.098,4.513-12.406,4.513-12.406s-12.407-5.64-17.484-33.271
							c-5.075-27.633,8.46-61.469,20.866-90.794c12.407-29.324,48.498-59.775,48.498-59.775s-38.911,6.202-76.129-10.717
							c-37.221-16.916-39.477-45.677-44.552-134.214c-5.076-88.537,3.384-106.019,23.684-107.148
							c20.303-1.128,91.921,22.558,102.635,27.069c0,0,6.767-14.098,4.513-22.557c-2.255-8.459,4.512-21.993,12.406-36.656
							c7.895-14.661,7.895-7.895,10.715-10.15c2.819-2.256,0.563-15.225-1.129-19.173c-1.691-3.949-0.563-5.077,2.821-14.1
							C341.242,125.642,339.87,123.438,337.227,120.945"/>
					</g>
				</g>
				<g opacity="0.12" clip-path="url(#FTSVG_SVGID_16_)">
					<g>
						<defs>
							<rect id="FTSVG_SVGID_21_" x="56.965" y="263.768" width="100.944" height="144.931"/>
						</defs>
						<clipPath id="FTSVG_SVGID_22_">
							<use xlink:href="#FTSVG_SVGID_21_"  overflow="visible"/>
						</clipPath>
						<path clip-path="url(#FTSVG_SVGID_22_)" d="M133.66,356.252c-2.82-4.511-68.236-92.484-68.236-92.484s1.129,8.458,5.64,18.046
							c4.511,9.586,50.189,67.107,50.189,67.107s-41.167-45.114-43.422-47.933c-2.256-2.821-20.866-17.483-20.866-15.228
							c0,2.256,14.099,17.483,25.377,28.197c11.279,10.715,34.399,33.837,45.114,50.189c10.716,16.354,30.452,44.552,30.452,44.552
							s-3.947-16.355-6.767-23.122C148.322,378.81,136.48,360.765,133.66,356.252"/>
					</g>
				</g>
				<g opacity="0.12" clip-path="url(#FTSVG_SVGID_16_)">
					<g>
						<defs>
							<rect id="FTSVG_SVGID_23_" x="69.936" y="250.233" width="43.987" height="50.754"/>
						</defs>
						<clipPath id="FTSVG_SVGID_24_">
							<use xlink:href="#FTSVG_SVGID_23_"  overflow="visible"/>
						</clipPath>
						<path clip-path="url(#FTSVG_SVGID_24_)" d="M89.11,277.866c-3.947-5.64-19.173-27.632-19.173-27.632s6.202,23.12,18.609,34.963
							c12.406,11.843,25.377,15.791,25.377,15.791S93.057,283.505,89.11,277.866"/>
					</g>
				</g>
				<g opacity="0.12" clip-path="url(#FTSVG_SVGID_16_)">
					<g>
						<defs>
							<rect id="FTSVG_SVGID_25_" x="598.904" y="280.686" width="102.634" height="103.2"/>
						</defs>
						<clipPath id="FTSVG_SVGID_26_">
							<use xlink:href="#FTSVG_SVGID_25_"  overflow="visible"/>
						</clipPath>
						<path clip-path="url(#FTSVG_SVGID_26_)" d="M699.283,280.685c0,0-7.331,14.663-13.533,25.94
							c-6.204,11.28-32.709,32.708-46.807,40.603c-14.1,7.896-40.039,36.657-40.039,36.657s11.842-2.256,19.173-7.895
							c7.331-5.64,54.138-24.249,72.184-50.189C708.307,299.858,699.283,280.685,699.283,280.685"/>
					</g>
				</g>
				<g opacity="0.12" clip-path="url(#FTSVG_SVGID_16_)">
					<g>
						<defs>
							<rect id="FTSVG_SVGID_27_" x="608.488" y="366.403" width="81.772" height="33.626"/>
						</defs>
						<clipPath id="FTSVG_SVGID_28_">
							<use xlink:href="#FTSVG_SVGID_27_"  overflow="visible"/>
						</clipPath>
						<path clip-path="url(#FTSVG_SVGID_28_)" d="M654.168,388.396c-15.79,4.513-45.678,10.152-45.678,10.152s21.428,5.64,47.935-5.075
							c26.505-10.717,33.836-27.069,33.836-27.069S669.96,383.885,654.168,388.396"/>
					</g>
				</g>
				<g opacity="0.12" clip-path="url(#FTSVG_SVGID_16_)">
					<g>
						<defs>
							<rect id="FTSVG_SVGID_29_" x="617.527" y="291.25" width="60.327" height="58.744"/>
						</defs>
						<clipPath id="FTSVG_SVGID_30_">
							<use xlink:href="#FTSVG_SVGID_29_"  overflow="visible"/>
						</clipPath>
						<path clip-path="url(#FTSVG_SVGID_30_)" d="M655.86,298.731c-10.714,12.406-14.098,16.917-23.685,22.557
							c-9.334,5.492-14.39,27.548-14.65,28.705c0.228-1.001,3.809-15.943,16.342-21.938c12.972-6.204,21.993-5.64,28.197-16.354
							s15.79-18.61,15.79-18.61S666.575,286.324,655.86,298.731"/>
					</g>
				</g>
			</g>
		</g>
	</g>
	<g clip-path="url(#FTSVG_SVGID_2_)">
		<defs>
			<rect id="FTSVG_SVGID_31_" x="-14.063" y="8.155" width="789.476" height="1021.675"/>
		</defs>
		<clipPath id="FTSVG_SVGID_32_">
			<use xlink:href="#FTSVG_SVGID_31_"  overflow="visible"/>
		</clipPath>
		<g opacity="0.35" clip-path="url(#FTSVG_SVGID_32_)">
			<g>
				<defs>
					<rect id="FTSVG_SVGID_33_" x="267.051" y="120.025" width="222.951" height="39.718"/>
				</defs>
				<clipPath id="FTSVG_SVGID_34_">
					<use xlink:href="#FTSVG_SVGID_33_"  overflow="visible"/>
				</clipPath>
				<path clip-path="url(#FTSVG_SVGID_34_)" fill="none" stroke="#897F76" stroke-miterlimit="10" stroke-dasharray="0.859,0.859" d="
					M489.464,124.685c0,0-22.295,33.548-108.359,34.401c-86.859,0.859-113.52-38.7-113.52-38.7"/>
			</g>
		</g>
		<g opacity="0.35" clip-path="url(#FTSVG_SVGID_32_)">
			<g>
				<defs>
					<rect id="FTSVG_SVGID_35_" x="35.572" y="406.872" width="119.355" height="15.776"/>
				</defs>
				<clipPath id="FTSVG_SVGID_36_">
					<use xlink:href="#FTSVG_SVGID_35_"  overflow="visible"/>
				</clipPath>
				<path clip-path="url(#FTSVG_SVGID_36_)" fill="none" stroke="#897F76" stroke-miterlimit="10" stroke-dasharray="0.859,0.859" d="
					M35.744,407.493c0,0,27.345,7.563,61.67,11.054c34.325,3.491,57.513,3.456,57.513,3.456"/>
			</g>
		</g>
		<g opacity="0.35" clip-path="url(#FTSVG_SVGID_32_)">
			<g>
				<defs>
					<rect id="FTSVG_SVGID_37_" x="35.572" y="412.035" width="119.355" height="15.777"/>
				</defs>
				<clipPath id="FTSVG_SVGID_38_">
					<use xlink:href="#FTSVG_SVGID_37_"  overflow="visible"/>
				</clipPath>
				<path clip-path="url(#FTSVG_SVGID_38_)" fill="none" stroke="#897F76" stroke-miterlimit="10" stroke-dasharray="0.859,0.859" d="
					M35.744,412.657c0,0,27.345,7.563,61.67,11.054s57.513,3.456,57.513,3.456"/>
			</g>
		</g>
		<g opacity="0.35" clip-path="url(#FTSVG_SVGID_32_)">
			<g>
				<defs>
					<rect id="FTSVG_SVGID_39_" x="597.338" y="406.872" width="119.355" height="15.776"/>
				</defs>
				<clipPath id="FTSVG_SVGID_40_">
					<use xlink:href="#FTSVG_SVGID_39_"  overflow="visible"/>
				</clipPath>
				<path clip-path="url(#FTSVG_SVGID_40_)" fill="none" stroke="#897F76" stroke-miterlimit="10" stroke-dasharray="0.859,0.859" d="
					M716.521,407.493c0,0-27.344,7.563-61.67,11.054c-34.323,3.491-57.513,3.456-57.513,3.456"/>
			</g>
		</g>
		<g opacity="0.35" clip-path="url(#FTSVG_SVGID_32_)">
			<g>
				<defs>
					<rect id="FTSVG_SVGID_41_" x="597.338" y="412.035" width="119.355" height="15.777"/>
				</defs>
				<clipPath id="FTSVG_SVGID_42_">
					<use xlink:href="#FTSVG_SVGID_41_"  overflow="visible"/>
				</clipPath>
				<path clip-path="url(#FTSVG_SVGID_42_)" fill="none" stroke="#897F76" stroke-miterlimit="10" stroke-dasharray="0.859,0.859" d="
					M716.521,412.657c0,0-27.344,7.563-61.67,11.054c-34.323,3.491-57.513,3.456-57.513,3.456"/>
			</g>
		</g>
		<g opacity="0.35" clip-path="url(#FTSVG_SVGID_32_)">
			<g>
				<defs>
					<rect id="FTSVG_SVGID_43_" x="156.163" y="914.868" width="436.668" height="43.107"/>
				</defs>
				<clipPath id="FTSVG_SVGID_44_">
					<use xlink:href="#FTSVG_SVGID_43_"  overflow="visible"/>
				</clipPath>
				<path clip-path="url(#FTSVG_SVGID_44_)" fill="none" stroke="#897F76" stroke-miterlimit="10" stroke-dasharray="0.859,0.859" d="
					M156.755,917.719c0,0,9.309,21.526,60.506,28.509c51.197,6.979,105.163,11.643,162.9,11.053
					c57.016-0.582,169.82-19.016,182.099-21.524c25.599-5.237,29.952-20.713,29.952-20.713"/>
			</g>
		</g>
		<g opacity="0.35" clip-path="url(#FTSVG_SVGID_32_)">
			<g>
				<defs>
					<rect id="FTSVG_SVGID_45_" x="154.733" y="919.058" width="440.814" height="45.373"/>
				</defs>
				<clipPath id="FTSVG_SVGID_46_">
					<use xlink:href="#FTSVG_SVGID_45_"  overflow="visible"/>
				</clipPath>
				<path clip-path="url(#FTSVG_SVGID_46_)" fill="none" stroke="#897F76" stroke-miterlimit="10" stroke-dasharray="0.859,0.859" d="
					M155.308,924.406c0,0,10.756,21.295,61.953,28.275c51.197,6.982,105.163,11.643,162.9,11.054
					c57.016-0.582,169.82-19.015,182.099-21.525c25.598-5.237,32.689-22.912,32.689-22.912"/>
			</g>
		</g>
		<g opacity="0.35" clip-path="url(#FTSVG_SVGID_32_)">
			<g>
				<defs>
					<rect id="FTSVG_SVGID_47_" x="590.122" y="191.704" width="40.884" height="222.797"/>
				</defs>
				<clipPath id="FTSVG_SVGID_48_">
					<use xlink:href="#FTSVG_SVGID_47_"  overflow="visible"/>
				</clipPath>
				<path clip-path="url(#FTSVG_SVGID_48_)" fill="none" stroke="#897F76" stroke-miterlimit="10" d="M630.362,191.706
					c0,0,0.06,16.234-2.268,29.034c-2.328,12.8-15.127,59.924-18.035,73.887c-2.908,13.963-16.29,87.85-18.035,96.577
					c-1.746,8.727-1.164,23.272-1.164,23.272"/>
			</g>
		</g>
		<g opacity="0.35" clip-path="url(#FTSVG_SVGID_32_)">
			<g>
				<defs>
					<rect id="FTSVG_SVGID_49_" x="120.105" y="191.978" width="40.878" height="222.523"/>
				</defs>
				<clipPath id="FTSVG_SVGID_50_">
					<use xlink:href="#FTSVG_SVGID_49_"  overflow="visible"/>
				</clipPath>
				<path clip-path="url(#FTSVG_SVGID_50_)" fill="none" stroke="#897F76" stroke-miterlimit="10" d="M120.75,191.98
					c0,0-0.066,15.961,2.261,28.759c2.328,12.799,15.127,59.924,18.036,73.887c2.908,13.963,16.29,87.85,18.035,96.577
					s1.164,23.272,1.164,23.272"/>
			</g>
		</g>
		<g opacity="0.35" clip-path="url(#FTSVG_SVGID_32_)">
			<g>
				<defs>
					<rect id="FTSVG_SVGID_51_" x="264.075" y="122.777" width="229.394" height="41.48"/>
				</defs>
				<clipPath id="FTSVG_SVGID_52_">
					<use xlink:href="#FTSVG_SVGID_51_"  overflow="visible"/>
				</clipPath>
				<path clip-path="url(#FTSVG_SVGID_52_)" fill="none" stroke="#897F76" stroke-miterlimit="10" stroke-dasharray="0.859,0.859" d="
					M492.945,126.9c0,0-25.83,35.847-111.894,36.699c-86.859,0.86-116.453-40.445-116.453-40.445"/>
			</g>
		</g>
	</g>
		<g id="BOX_BODY">
		<rect x="192.588" y="236.155" clip-path="url(#FTSVG_SVGID_2_)" fill="none" stroke="#FFFFFF" stroke-miterlimit="10" stroke-dasharray="3,6" width="160.702" height="160.703"/>
	
		<rect x="401.734" y="236.155" clip-path="url(#FTSVG_SVGID_2_)" fill="none" stroke="#FFFFFF" stroke-miterlimit="10" stroke-dasharray="3,6" width="160.702" height="160.703"/>

		<rect x="201.574" y="246.28" clip-path="url(#FTSVG_SVGID_2_)" fill="none" stroke="#FFFFFF" stroke-miterlimit="10" stroke-dasharray="5.374,10.747" width="351.879" height="235.478"/>
</g>
   <g id="CUSTOM">
</g>
  </g>
</svg>
