<?xml version="1.0" encoding="utf-8"?>
<!-- Generator: Adobe Illustrator 15.0.0, SVG Export Plug-In . SVG Version: 6.00 Build 0)  -->
<!DOCTYPE svg PUBLIC "-//W3C//DTD SVG 1.1//EN" "http://www.w3.org/Graphics/SVG/1.1/DTD/svg11.dtd">
<svg version="1.1" id="Layer_1" xmlns="http://www.w3.org/2000/svg" xmlns:xlink="http://www.w3.org/1999/xlink" x="0px" y="0px"
	 width="612px" height="792px" viewBox="0 0 620 975.1" enable-background="new 0 0 612 975.1" xml:space="preserve">
<g>
	<defs>
		<rect id="SVGID_1_" width="612" height="792"/>
	</defs>
	<clipPath id="SVGID_2_">
		<use xlink:href="#SVGID_1_"  overflow="visible"/>
	</clipPath>
	<g clip-path="url(#SVGID_2_)" id="BODY">
		<defs>
			<rect id="SVGID_3_" width="612" height="792"/>
		</defs>
		<clipPath id="SVGID_4_">
			<use xlink:href="#SVGID_3_"  overflow="visible"/>
		</clipPath>
		<path clip-path="url(#SVGID_4_)" fill="#131F48" d="M564.398,291.152c0,0-0.848-11.017-0.848-14.407
			c0-3.389,3.39-76.271-11.864-103.389c-15.254-27.119-46.61-53.39-50-54.238c-0.28-0.07-0.874-0.264-1.726-0.562
			c-9.429-3.308-51.161-19.7-64.376-28.251c-14.407-9.322-33.051-23.729-38.136-27.966c-4.385-3.654-8.768-11.077-12.608-14.143
			c-0.614-0.489-1.215-0.878-1.799-1.111C378.805,45.389,372.873,42,372.873,42l-5.933-11.017c0,0-24.576-9.322-44.915-9.322
			h-31.356c-20.339,0-44.915,9.322-44.915,9.322L239.822,42c0,0-5.933,3.389-10.17,5.085c-0.958,0.382-1.96,1.169-2.995,2.184
			c-3.542,3.478-7.476,9.79-11.412,13.07c-5.084,4.237-23.728,18.644-38.135,27.966c-14.407,9.322-62.712,27.966-66.102,28.813
			c-0.419,0.105-1.268,0.601-2.459,1.436c-8.44,5.922-34.172,29.035-47.541,52.802c-15.254,27.118-11.864,100-11.864,103.389
			c0,3.39-0.848,14.407-0.848,14.407l-2.542,5.085c0,0,28.813,7.627,53.39,7.627c24.576,0,38.135-4.237,38.135-4.237l-0.847-22.882
			c0,0,0.72,1.34,1.695,3.513c1.822,4.063,4.532,11.047,5.084,17.674c0.848,10.169,2.543,47.457,9.322,61.017
			c6.78,13.559,19.492,94.067,21.187,101.695c1.695,7.627-4.238,36.44-4.238,43.22c0,6.78-16.101,56.78-16.949,70.339
			c-0.847,13.56-4.237,32.204-4.237,45.762c0,13.561-5.932,33.899-5.932,33.899s5.085,10.17,11.865,22.882
			c6.779,12.712,18.644,33.051,22.881,44.067s21.186,36.44,55.932,48.306c4.476,1.527,9.969,2.744,16.134,3.709l-0.032,1.375
			c0,0,17.311,1.225,39.879,1.723c5.8,0.15,11.624,0.211,17.324,0.205c5.699,0.006,11.524-0.055,17.322-0.205
			c22.57-0.498,39.881-1.723,39.881-1.723l-0.032-1.375c6.165-0.965,11.658-2.182,16.134-3.709
			c34.746-11.865,51.695-37.289,55.933-48.306s16.102-31.355,22.881-44.067c6.78-12.712,11.864-22.882,11.864-22.882
			s-5.932-20.339-5.932-33.899c0-13.558-3.39-32.202-4.237-45.762c-0.848-13.559-16.95-63.559-16.95-70.339
			c0-6.779-5.932-35.593-4.236-43.22c1.694-7.628,14.406-88.136,21.187-101.695c6.779-13.56,8.475-50.848,9.322-61.017
			c0.586-7.041,3.609-14.485,5.415-18.401c0.802-1.74,1.364-2.786,1.364-2.786l-0.848,22.882c0,0,13.56,4.237,38.136,4.237
			s53.39-7.627,53.39-7.627L564.398,291.152z"/>
	</g>
	<g clip-path="url(#SVGID_2_)">
		<defs>
			<rect id="SVGID_5_" width="612" height="792"/>
		</defs>
		<clipPath id="SVGID_6_">
			<use xlink:href="#SVGID_5_"  overflow="visible"/>
		</clipPath>
		<g opacity="0.35" clip-path="url(#SVGID_6_)">
			<g>
				<defs>
					<rect id="SVGID_7_" x="48.184" y="35.827" width="516.331" height="735.051"/>
				</defs>
				<clipPath id="SVGID_8_">
					<use xlink:href="#SVGID_7_"  overflow="visible"/>
				</clipPath>
				<path clip-path="url(#SVGID_8_)" fill="none" stroke="#897F76" stroke-miterlimit="10" stroke-dasharray="0.859,0.5" d="
					M144.059,650.475c0,0,44.068,83.898,82.204,100c38.135,16.102,109.322,15.254,138.135,7.627s56.779-30.509,66.102-44.067
					c9.322-13.56,39.83-64.407,39.83-64.407"/>
				<path clip-path="url(#SVGID_8_)" fill="none" stroke="#897F76" stroke-miterlimit="10" stroke-dasharray="0.859,0.5" d="
					M144.059,657.48c0,0,44.068,83.898,82.204,100c38.135,16.102,109.322,15.254,138.135,7.627s56.779-30.509,66.102-44.068
					c9.322-13.559,39.83-64.406,39.83-64.406"/>
				<path clip-path="url(#SVGID_8_)" fill="none" stroke="#897F76" stroke-miterlimit="10" stroke-dasharray="0.859,0.5" d="
					M48.275,286.989c0,0,23.042,4.32,46.803,4.32c23.762,0,42.003-1.92,42.003-1.92"/>
				<path clip-path="url(#SVGID_8_)" fill="none" stroke="#897F76" stroke-miterlimit="10" stroke-dasharray="0.859,0.5" d="
					M48.275,282.986c0,0,23.042,4.32,46.803,4.32c23.762,0,42.003-1.92,42.003-1.92"/>
				<path clip-path="url(#SVGID_8_)" fill="none" stroke="#897F76" stroke-miterlimit="10" stroke-dasharray="0.859,0.5" d="
					M564.423,286.989c0,0-23.041,4.32-46.803,4.32c-23.761,0-42.003-1.92-42.003-1.92"/>
				<path clip-path="url(#SVGID_8_)" fill="none" stroke="#897F76" stroke-miterlimit="10" stroke-dasharray="0.859,0.5" d="
					M564.423,282.986c0,0-23.041,4.32-46.803,4.32c-23.761,0-42.003-1.92-42.003-1.92"/>
				<path clip-path="url(#SVGID_8_)" fill="none" stroke="#897F76" stroke-miterlimit="10" stroke-dasharray="0.859,0.5" d="
					M239.633,42.468c0,0,39.781-6.558,69.508-6.12c29.727,0.437,63.824,5.683,63.824,5.683"/>
				<path clip-path="url(#SVGID_8_)" fill="none" stroke="#897F76" stroke-miterlimit="10" stroke-dasharray="0.859,0.5" d="
					M225.776,49.872c0,0,53.638-8.957,83.365-8.52c29.727,0.437,76.307,6.881,76.307,6.881"/>
				<path clip-path="url(#SVGID_8_)" fill="none" stroke="#897F76" stroke-miterlimit="10" stroke-dasharray="0.859,0.5" d="
					M137.908,280.036c0,0,0.219-4.985,0.219-15.154c0-10.17-8.474-27.967-12.712-51.695c-4.237-23.729-17.535-68.439-16.688-92.168"
					/>
				<path clip-path="url(#SVGID_8_)" fill="none" stroke="#897F76" stroke-miterlimit="10" stroke-dasharray="0.859,0.5" d="
					M499.962,118.556c0,0,2.572,14.122-3.36,31.918c-5.932,17.797-16.102,90.678-18.644,108.475
					c-2.543,17.796-5.933,38.983-5.933,38.983"/>
			</g>
		</g>
	</g>
	<g clip-path="url(#SVGID_2_)">
		<defs>
			<rect id="SVGID_9_" width="612" height="792"/>
		</defs>
		<clipPath id="SVGID_10_">
			<use xlink:href="#SVGID_9_"  overflow="visible"/>
		</clipPath>
		<path clip-path="url(#SVGID_10_)" d="M317.611,55.051c4.928,0,8.92,4.275,8.92,9.544c0,5.271-3.992,9.545-8.92,9.545H300.31
			c-4.924,0-8.92-4.274-8.92-9.545c0-5.269,3.996-9.544,8.92-9.544H317.611"/>
		<path clip-path="url(#SVGID_10_)" fill="none" stroke="#000000" stroke-width="6.078" d="M317.611,55.051
			c4.928,0,8.92,4.275,8.92,9.544c0,5.271-3.992,9.545-8.92,9.545H300.31c-4.924,0-8.92-4.274-8.92-9.545
			c0-5.269,3.996-9.544,8.92-9.544H317.611"/>
		<path clip-path="url(#SVGID_10_)" d="M316.944,56.579c4.478,0,8.104,3.588,8.104,8.016c0,4.43-3.626,8.018-8.105,8.018h-15.714
			c-4.471,0-8.1-3.588-8.1-8.018c0-4.428,3.629-8.016,8.1-8.016H316.944"/>
		<path clip-path="url(#SVGID_10_)" fill="none" stroke="#FFFFFF" stroke-width="0.658" d="M316.944,56.579
			c4.478,0,8.104,3.588,8.104,8.016c0,4.43-3.626,8.018-8.105,8.018h-15.714c-4.471,0-8.1-3.588-8.1-8.018
			c0-4.428,3.629-8.016,8.1-8.016H316.944"/>
		<path clip-path="url(#SVGID_10_)" fill="#FFFFFF" d="M295.248,64.545c0-3.341,2.478-6.079,5.614-6.299v12.598
			C297.726,70.624,295.248,67.884,295.248,64.545"/>
		<polygon clip-path="url(#SVGID_10_)" fill="#FFFFFF" points="307.089,63.719 301.853,58.23 307.089,58.23 		"/>
		<polygon clip-path="url(#SVGID_10_)" fill="#FFFFFF" points="307.089,65.369 301.853,70.86 307.089,70.86 		"/>
		<polygon clip-path="url(#SVGID_10_)" fill="#FFFFFF" points="313.66,63.719 318.9,58.23 313.66,58.23 		"/>
		<polygon clip-path="url(#SVGID_10_)" fill="#FFFFFF" points="313.66,65.369 318.9,70.86 313.66,70.86 		"/>
		<rect x="308.202" y="58.23" clip-path="url(#SVGID_10_)" fill="#FFFFFF" width="4.348" height="12.63"/>
		<path clip-path="url(#SVGID_10_)" fill="#FFFFFF" d="M300.38,53.56v0.772h0.729v-0.26l0.268,0.056v0.146
			c0,0.227-0.065,0.287-0.288,0.287h-0.69c-0.221,0-0.287-0.06-0.287-0.287v-0.645c0-0.227,0.066-0.287,0.287-0.287h0.69
			c0.223,0,0.288,0.06,0.288,0.287v0.117l-0.268,0.045V53.56H300.38z"/>
		<path clip-path="url(#SVGID_10_)" fill="#FFFFFF" d="M302.09,53.342h0.857c0.218,0,0.287,0.06,0.287,0.286v0.645
			c0,0.227-0.069,0.288-0.287,0.288h-0.857c-0.221,0-0.29-0.061-0.29-0.288v-0.645C301.8,53.402,301.869,53.342,302.09,53.342
			 M302.963,53.56h-0.891v0.772h0.891V53.56z"/>
		<path clip-path="url(#SVGID_10_)" fill="#FFFFFF" d="M303.688,53.342h0.22l0.545,0.738l0.538-0.738h0.217v1.219h-0.25v-0.754
			c0-0.023,0.001-0.066,0.004-0.129c-0.019,0.054-0.045,0.099-0.066,0.127l-0.434,0.608h-0.056l-0.436-0.61
			c-0.029-0.039-0.051-0.078-0.07-0.125c0.005,0.05,0.008,0.092,0.008,0.129v0.754h-0.22V53.342z"/>
		<path clip-path="url(#SVGID_10_)" fill="#FFFFFF" d="M305.661,53.342h0.995c0.179,0,0.264,0.066,0.264,0.236v0.272
			c0,0.169-0.085,0.236-0.264,0.236h-0.727v0.475h-0.268V53.342z M305.929,53.553v0.322h0.609c0.082,0,0.118-0.016,0.118-0.097
			V53.65c0-0.08-0.036-0.097-0.118-0.097H305.929z"/>
		<path clip-path="url(#SVGID_10_)" fill="#FFFFFF" d="M307.224,53.342h0.99c0.182,0,0.265,0.066,0.265,0.236v0.287
			c0,0.169-0.083,0.236-0.265,0.236h-0.149l0.533,0.46h-0.384l-0.47-0.46h-0.251v0.46h-0.27V53.342z M307.493,53.553v0.339h0.604
			c0.086,0,0.119-0.017,0.119-0.097V53.65c0-0.08-0.033-0.097-0.119-0.097H307.493z"/>
		<polygon clip-path="url(#SVGID_10_)" fill="#FFFFFF" points="308.915,53.342 310.103,53.342 310.103,53.55 309.186,53.55 
			309.186,53.821 309.721,53.821 309.721,54.03 309.186,54.03 309.186,54.332 310.118,54.332 310.118,54.561 308.915,54.561 		"/>
		<path clip-path="url(#SVGID_10_)" fill="#FFFFFF" d="M310.753,53.553v0.264h0.722c0.221,0,0.289,0.058,0.289,0.287v0.169
			c0,0.227-0.068,0.288-0.289,0.288h-0.717c-0.217,0-0.29-0.062-0.29-0.288v-0.036l0.239-0.049v0.143h0.82v-0.279h-0.725
			c-0.218,0-0.288-0.061-0.288-0.289v-0.135c0-0.226,0.07-0.286,0.288-0.286h0.66c0.207,0,0.286,0.057,0.286,0.267v0.026
			l-0.236,0.058v-0.14H310.753z"/>
		<path clip-path="url(#SVGID_10_)" fill="#FFFFFF" d="M312.456,53.553v0.264h0.727c0.218,0,0.291,0.058,0.291,0.287v0.169
			c0,0.227-0.073,0.288-0.291,0.288h-0.717c-0.219,0-0.289-0.062-0.289-0.288v-0.036l0.238-0.049v0.143h0.82v-0.279h-0.726
			c-0.213,0-0.288-0.061-0.288-0.289v-0.135c0-0.226,0.075-0.286,0.288-0.286h0.66c0.207,0,0.286,0.057,0.286,0.267v0.026
			l-0.236,0.058v-0.14H312.456z"/>
		<rect x="313.923" y="53.342" clip-path="url(#SVGID_10_)" fill="#FFFFFF" width="0.273" height="1.219"/>
		<path clip-path="url(#SVGID_10_)" fill="#FFFFFF" d="M314.938,53.342h0.854c0.223,0,0.293,0.06,0.293,0.286v0.645
			c0,0.227-0.07,0.288-0.293,0.288h-0.854c-0.218,0-0.286-0.061-0.286-0.288v-0.645C314.651,53.402,314.72,53.342,314.938,53.342
			 M315.813,53.56h-0.896v0.772h0.896V53.56z"/>
		<path clip-path="url(#SVGID_10_)" fill="#FFFFFF" d="M316.535,53.342h0.186l0.818,0.717c0.048,0.043,0.089,0.083,0.131,0.134
			c-0.004-0.101-0.009-0.173-0.009-0.209v-0.642h0.24v1.219h-0.182l-0.854-0.754c-0.034-0.03-0.066-0.061-0.099-0.099
			c0.012,0.095,0.012,0.158,0.012,0.194v0.659h-0.244V53.342z"/>
		<path clip-path="url(#SVGID_10_)" fill="#FFFFFF" d="M305.723,74.885v0.773h0.841v-0.271h-0.44v-0.209h0.706v0.419
			c0,0.23-0.07,0.289-0.289,0.289h-0.802c-0.219,0-0.289-0.059-0.289-0.289v-0.64c0-0.231,0.07-0.288,0.289-0.288h0.802
			c0.212,0,0.289,0.057,0.289,0.275v0.027l-0.266,0.052v-0.138H305.723z"/>
		<polygon clip-path="url(#SVGID_10_)" fill="#FFFFFF" points="307.288,74.669 308.478,74.669 308.478,74.877 307.561,74.877 
			307.561,75.149 308.094,75.149 308.094,75.355 307.561,75.355 307.561,75.658 308.489,75.658 308.489,75.886 307.288,75.886 		"/>
		<path clip-path="url(#SVGID_10_)" fill="#FFFFFF" d="M309.313,74.669h0.261l0.665,1.216h-0.304l-0.141-0.266h-0.734l-0.136,0.266
			h-0.27L309.313,74.669z M309.682,75.4l-0.249-0.496l-0.256,0.496H309.682z"/>
		<path clip-path="url(#SVGID_10_)" fill="#FFFFFF" d="M310.502,74.669h0.991c0.182,0,0.262,0.065,0.262,0.235v0.286
			c0,0.169-0.08,0.235-0.262,0.235h-0.148l0.532,0.46h-0.388l-0.467-0.46h-0.258v0.46h-0.263V74.669z M310.765,74.877v0.341h0.608
			c0.081,0,0.12-0.016,0.12-0.096v-0.147c0-0.08-0.039-0.098-0.12-0.098H310.765z"/>
		<path clip-path="url(#SVGID_10_)" fill="#FFFFFF" d="M313.409,74.45c0.151,0.157,0.235,0.373,0.235,0.598
			c0,0.232-0.081,0.44-0.238,0.598c-0.16,0.163-0.361,0.252-0.573,0.252c-0.215,0-0.417-0.089-0.571-0.255
			c-0.154-0.164-0.237-0.37-0.237-0.595s0.086-0.441,0.244-0.609c0.147-0.158,0.347-0.24,0.564-0.24
			C313.054,74.199,313.256,74.287,313.409,74.45 M313.336,74.529c-0.132-0.144-0.307-0.218-0.498-0.218s-0.367,0.07-0.494,0.21
			c-0.137,0.145-0.214,0.332-0.214,0.527c0,0.194,0.075,0.377,0.204,0.516c0.137,0.146,0.313,0.22,0.493,0.22
			c0.191,0,0.364-0.074,0.505-0.218c0.135-0.134,0.204-0.315,0.204-0.511C313.536,74.85,313.471,74.666,313.336,74.529
			 M313.238,74.814c0,0.137-0.077,0.231-0.209,0.26l0.203,0.438h-0.195l-0.184-0.411h-0.171v0.411h-0.173V74.55h0.346
			C313.114,74.55,313.238,74.64,313.238,74.814 M312.683,74.669v0.319h0.145c0.158,0,0.229-0.041,0.229-0.153
			c0-0.122-0.071-0.166-0.235-0.166H312.683z"/>
	</g>
	<g clip-path="url(#SVGID_2_)">
		<defs>
			<rect id="SVGID_11_" width="612" height="792"/>
		</defs>
		<clipPath id="SVGID_12_">
			<use xlink:href="#SVGID_11_"  overflow="visible"/>
		</clipPath>
		<g opacity="0.08" clip-path="url(#SVGID_12_)">
			<g>
				<defs>
					<rect id="SVGID_13_" x="51.908" y="161.907" width="490.097" height="372.211"/>
				</defs>
				<clipPath id="SVGID_14_">
					<use xlink:href="#SVGID_13_"  overflow="visible"/>
				</clipPath>
				<path clip-path="url(#SVGID_14_)" d="M133.848,263.87c0,0-15.402-2.772-26.492-6.469c-11.089-3.697-21.255-6.469-29.88-14.17
					c-8.625-7.701-25.567-28.032-25.567-28.032s29.88,25.876,32.344,28.34C86.718,246.004,133.848,263.87,133.848,263.87"/>
				<path clip-path="url(#SVGID_14_)" d="M120.91,251.856l-18.791-8.933l-3.08-6.777c0,0,21.871,15.71,19.407,11.398
					c-2.464-4.313-32.961-39.122-38.506-46.207c-5.544-7.085-18.79-22.179-18.79-22.179s16.326,10.781,18.175,14.478
					c1.848,3.697,31.112,39.429,34.5,43.742c3.389,4.312,12.322,11.706,11.706,13.246
					C124.915,252.164,120.91,251.856,120.91,251.856"/>
				<path clip-path="url(#SVGID_14_)" d="M99.347,247.543c0,0-20.947-21.871-24.335-25.875
					c-3.389-4.005-17.559-15.095-17.559-15.095l26.492,28.956L99.347,247.543z"/>
				<path clip-path="url(#SVGID_14_)" d="M124.298,233.99c0,0-6.161-16.019-9.241-23.104c-3.081-7.084-8.318-34.192-13.554-33.576
					c-5.237,0.616-1.849,11.397,1.848,19.098c3.697,7.702,7.701,13.862,7.701,13.862s-8.933-3.08-14.17-11.397
					c-5.236-8.317-17.558-36.349-20.947-35.425c-3.388,0.924,2.156,16.018,7.701,24.951c5.545,8.934,19.099,21.871,26.184,28.956
					C116.905,224.441,124.298,233.99,124.298,233.99"/>
				<path clip-path="url(#SVGID_14_)" d="M478.548,239.842c0,0,14.479-27.108,23.411-42.202c8.934-15.094,25.26-35.733,25.26-35.733
					s-27.108,47.747-28.648,49.595S478.548,239.842,478.548,239.842"/>
				<path clip-path="url(#SVGID_14_)" d="M492.41,222.592c0,0,11.089-16.326,23.411-26.184
					c12.321-9.857,26.184-15.094,26.184-15.094s-18.482,9.858-28.032,22.179c-9.549,12.322-25.875,30.805-28.34,37.89
					c-2.464,7.085-1.849,15.094-1.849,15.094s7.394-1.848,4.313,0.924c-3.081,2.773,2.464,9.858-1.849,11.398
					s-6.776,2.156-6.776,4.004c0,1.849-6.161-1.232-6.161-1.232s3.388-24.644,4.62-27.416S492.41,222.592,492.41,222.592"/>
				<path clip-path="url(#SVGID_14_)" d="M488.713,246.619c0,0-0.308-10.781,7.701-14.17c8.01-3.388,16.635-4.621,23.411-8.009
					c6.777-3.388,11.398-7.393,11.398-7.393s-8.626,11.706-19.407,15.402c-10.781,3.697-14.786,3.697-17.25,6.777
					C492.102,242.307,488.713,246.619,488.713,246.619"/>
				<path clip-path="url(#SVGID_14_)" d="M188.557,525.618c0,0,78.5-17,113-16s122.5,24.5,122.5,24.5s-63-16.5-118-17
					S188.557,525.618,188.557,525.618"/>
			</g>
		</g>
	</g>
	<g id="BOX_BODY">
		<rect x="175.483" y="122.509" clip-path="url(#SVGID_2_)" fill="none" stroke="#FFFFFF" stroke-miterlimit="10" stroke-dasharray="3,6" width="270.339" height="202.542"/>
	
		<rect x="255.322" y="103.017" clip-path="url(#SVGID_2_)" fill="none" stroke="#FFFFFF" stroke-miterlimit="10" stroke-dasharray="3,6" width="110.661" height="348.199"/>
</g>
  </g>
    <g id="CUSTOM">
</g>
</svg>
