<?xml version="1.0" encoding="utf-8"?>
<!-- Generator: Adobe Illustrator 22.1.0, SVG Export Plug-In . SVG Version: 6.00 Build 0)  -->
<svg version="1.1" id="Layer_1" xmlns="http://www.w3.org/2000/svg" xmlns:xlink="http://www.w3.org/1999/xlink" x="0px" y="0px"
	 viewBox="0 0 630 1035.881" enable-background="new 0 0 800.453 1035.881" xml:space="preserve">
<g>
  <g id="MASKB">
    <g id="BODY">
	<path fill="#FFFFFF" stroke="#AEB1AE" stroke-width="0.4307" d="M714.999,428.422l-1.727-1.661c0,0-11.759-21.022-17.401-29.694
		c-5.638-8.672-18.024-25.822-21.004-28.592c-2.981-2.77-8.468-9.413-10.657-13.1c-2.198-3.688-7.057-12.36-8.312-13.465
		c-1.256-1.106-3.762-4.793-3.918-5.717c-0.162-0.921-1.729-7.008-2.51-8.301c-0.781-1.288-7.054-15.125-8.154-15.864
		c-1.095-0.734-6.425-4.977-6.425-4.977s-11.759-16.788-21.161-26.011c-9.406-9.224-21.789-20.843-22.886-21.399
		c-1.099-0.552-8.467-4.425-11.916-5.531c-3.448-1.105-24.292-7.191-34.479-12.541c-10.19-5.35-26.805-17.895-32.443-21.953
		c-5.646-4.057-30.099-14.94-33.548-15.863c-3.447-0.922-11.128-4.242-11.128-4.242s-3.605-2.394-4.385-2.765
		c-0.783-0.367-2.352-0.922-2.352-0.922l-3.606-0.555c0,0-2.824-2.948-3.764-3.318c-0.936-0.37-5.014-2.768-5.014-2.768
		s-27.589-2.03-33.073-2.214c-5.49-0.185-33.386-3.872-39.97-5.35c-6.584-1.475-36.676-4.242-46.865-4.428
		c-10.192-0.185-31.817-0.572-31.817-0.572s-1.726,0.737-2.821,1.661c-1.099,0.923-7.683,6.087-7.683,6.087s-6.27,1.66-8.151,2.398
		c-1.88,0.737-3.603,2.768-3.603,2.768l-46.24,19.366c0,0-15.674,10.146-21.315,14.388c-5.644,4.242-22.259,12.729-33.231,16.416
		c-10.973,3.69-20.068,2.767-21.788,3.32c-1.724,0.555-9.407,7.562-11.602,8.853c-2.194,1.291-21.471,20.103-26.016,26.007
		c-4.544,5.905-16.77,22.503-19.749,26.93c-2.98,4.428-6.9,11.62-8.467,13.098c-1.563,1.475-5.482,5.535-5.638,6.272
		c-0.159,0.737-1.884,3.134-1.884,3.134s-3.762,4.981-5.015,7.746c-1.251,2.767-1.411,6.643-3.918,10.514
		c-2.508,3.875-6.583,11.253-7.681,13.283c-1.096,2.025-9.873,21.025-15.829,29.881c-5.957,8.855-15.519,23.608-15.519,23.608
		s-1.253-0.923-2.192,0.184c-0.941,1.109-1.1,2.77-1.1,2.77l-3.29,5.902c0,0-1.567,2.4-2.039,3.322
		c-0.469,0.918-1.097,1.848-0.157,2.95c0.941,1.106,19.594,16.415,35.897,23.057c16.302,6.645,31.819,11.072,43.575,13.098
		c11.754,2.028,15.52,3.688,16.459,4.795c0.941,1.105,8.777,4.065,10.344,4.982c1.571,0.922,2.824,1.841,2.824,1.103
		c0-0.734,0.627-5.712,0.627-5.712s2.819-2.95,3.604-5.906c0.786-2.95,1.406-7.93,2.977-8.669c1.569-0.737,5.645-3.132,5.801-4.795
		c0.156-1.663,0.313-6.643,0.313-6.643s1.096-1.842,1.88-3.687c0.786-1.846,2.508-6.823,3.448-8.116
		c0.941-1.291,0.472-2.765,1.1-2.582c0.625,0.184,2.192,2.947,2.975,3.686c0.786,0.742,4.702,7.014,6.271,14.393
		c1.567,7.376,3.759,34.866,10.968,65.857c7.212,30.987,17.399,62.91,19.594,69.183c2.196,6.267,10.814,34.493,11.756,38.735
		c0.944,4.242-0.44,19.19-0.124,20.473c0.313,1.299,2.036,5.724,2.192,7.566c0.157,1.846,1.569,7.749,1.724,8.671
		c0.157,0.919,1.724,7.008,1.724,7.008s1.098,13.659,1.412,15.314c0.312,1.658,2.506,9.224,2.506,10.507
		c0,1.299-0.465,16.611,0.947,22.513c1.408,5.897,0.256,17.891,1.667,21.948c1.41,4.06,0.258,11.071,0.413,12.358
		c0.153,1.296,0.31,3.872,0.31,3.872s-18.447,107.783-12.492,107.965c5.954,0.187,50.002,9.074,60.976,11.472
		c10.972,2.396,27.645,7.226,57.271,11.474c29.626,4.246,64.691-1.024,114.537-2.872c49.844-1.841,65.849-6.656,69.456-5.736
		c3.606,0.92,23.114,0.74,24.369,0c1.251-0.731-11.209-107.169-9.166-124.874c2.036-17.706,1.255-36.527,0.47-48.512
		c-0.786-11.994-2.186-35.97,0.79-48.884c2.975-12.918,10.653-35.045,12.068-43.164c1.414-8.123,24.293-98.514,24.453-101.276
		c0.155-2.768,4.388-35.604,4.388-37.265c0-1.663,1.255-10.518,2.979-15.13c1.725-4.609,8.619-15.864,8.619-15.864
		s0.313,3.139,1.568,4.427c1.256,1.294,5.179,9.04,6.744,9.595c1.562,0.554,6.109,6.089,7.519,9.408
		c1.415,3.321,10.032,21.584,11.443,24.163c1.411,2.582,7.213,12.176,8.151,13.468c0.944,1.292,3.45,3.692,3.45,3.692
		s0.626,4.799,1.408,5.723c0.785,0.919,2.824,0.919,2.824,0.919l3.446,4.799L620.02,514c0.035,0.087,0.07,0.181,0.091,0.227
		c0.061,0.125,0.276,0.012,0.434-0.094l-0.101,0.205c6.487-4.441,32.37-21.143,57.215-38.859
		c28.979-20.663,46.874-34.299,46.874-34.299L714.999,428.422z"/>
</g>
    </g>
  <g id="CUSTOM"></g>
  </g>
<radialGradient id="SVGF_SVGID_1_" cx="360.8053" cy="221.6537" r="67.5348" gradientTransform="matrix(1 0 0 1.1768 0 -102.5244)" gradientUnits="userSpaceOnUse">
	<stop  offset="0" style="stop-color:#FFFFFF"/>
	<stop  offset="1" style="stop-color:#000000"/>
</radialGradient>
<path opacity="0.15" fill="url(#SVGF_SVGID_1_)" d="M282.878,185.17c0,0,25.853,1.83,39.656,4.576
	c13.802,2.744,51.125,9.379,51.125,9.379s25.076-0.917,36.741-1.832c11.666-0.913,33.634-2.288,37.91-2.059
	c4.272,0.228,6.996-0.229,6.996-0.229s-0.194-1.37-2.137-1.6c-1.942-0.231-78.923,3.887-78.923,3.887l-31.104-5.49l25.659-1.144
	L282.878,185.17z"/>
<radialGradient id="SVGF_SVGID_2_" cx="360.8034" cy="221.6522" r="67.5371" gradientTransform="matrix(1 0 0 1.1768 0 -102.5244)" gradientUnits="userSpaceOnUse">
	<stop  offset="0" style="stop-color:#FFFFFF"/>
	<stop  offset="1" style="stop-color:#000000"/>
</radialGradient>
<path opacity="0.15" fill="url(#SVGF_SVGID_2_)" d="M276.266,189.286c0,0,9.916-2.286,26.632,0.46
	c16.722,2.744,69.79,11.667,69.79,11.667s5.248,0.227,6.025-0.23c0.779-0.459,4.283-1.832,6.612-1.602
	c2.332,0.229,53.848-1.372,57.93-1.372c4.085,0,15.165,0.228,17.302,0.687c2.137,0.458,5.83,1.371,5.83,1.371
	s-17.299-0.914-23.132-0.914c-5.83,0-55.795,0.917-57.736,1.371l-6.415,1.604l-6.805,0.457c0,0-59.485-10.523-69.594-11.897
	C292.599,189.515,276.266,189.286,276.266,189.286z"/>
<path opacity="0.05" fill="none" stroke="#000000" stroke-width="0.6815" d="M590.072,260.016l0.236,22.446
	c0,0-3.814,22.169-3.814,24.972c0,2.806-0.237,24.41,0,26.654c0.236,2.243-0.477,35.067,0.477,42.364
	c0.952,7.297,0.476,30.588,0.476,33.11c0,2.523-0.242,6.733-0.717,7.855c-0.476,1.12-3.81,7.011-3.81,7.011l-9.779,14.033"/>
<radialGradient id="SVGF_SVGID_3_" cx="643.6384" cy="376.2169" r="19.3322" gradientTransform="matrix(1 0 0 1.1768 0 -102.5244)" gradientUnits="userSpaceOnUse">
	<stop  offset="0" style="stop-color:#FFFFFF"/>
	<stop  offset="1" style="stop-color:#000000"/>
</radialGradient>
<path opacity="0.2" fill="url(#SVGF_SVGID_3_)" d="M641.328,315.85l8.105,17.395c0,0-6.911-14.309-7.864-12.908
	c-0.956,1.404-4.531,16.835-6.204,20.482c-1.668,3.647-5.006,8.7-5.006,8.7s9.534-26.095,9.534-30.304
	C639.894,315.008,641.328,315.85,641.328,315.85z"/>
<radialGradient id="SVGF_SVGID_4_" cx="566.3802" cy="392.4689" r="89.3188" gradientTransform="matrix(1 0 0 1.1768 0 -102.5244)" gradientUnits="userSpaceOnUse">
	<stop  offset="0" style="stop-color:#FFFFFF"/>
	<stop  offset="1" style="stop-color:#000000"/>
</radialGradient>
<path opacity="0.12" fill="url(#SVGF_SVGID_4_)" d="M626.783,346.431c0,0-5.482,9.54-8.581,18.519c-3.102,8.978-8.344,24.128-12.16,30.02
	c-2.165,3.345-7.203,9.497-10.966,14.309l-4.898,6.612c0,0,15.626-12.225,21.826-29.9
	C618.202,368.315,626.783,346.431,626.783,346.431z"/>
<radialGradient id="SVGF_SVGID_5_" cx="603.947" cy="415.9134" r="23.5133" gradientTransform="matrix(1 0 0 1.1768 0 -102.5244)" gradientUnits="userSpaceOnUse">
	<stop  offset="0" style="stop-color:#FFFFFF"/>
	<stop  offset="1" style="stop-color:#000000"/>
</radialGradient>
<path opacity="0.1" fill="url(#SVGF_SVGID_5_)" d="M609.381,387.115c0,0-8.582,5.049-10.253,9.259c-1.668,4.21-3.336,8.977-5.006,12.064
	c-2.026,3.746-2.022,4.127-13.78,19.59c0,0,13.542-16.221,14.733-18.748c1.194-2.526,5.007-12.622,7.391-15.149
	C604.852,391.604,609.381,387.115,609.381,387.115z"/>
<radialGradient id="SVGF_SVGID_6_" cx="641.7727" cy="410.5852" r="34.2108" gradientTransform="matrix(1 0 0 1.1768 0 -102.5244)" gradientUnits="userSpaceOnUse">
	<stop  offset="0" style="stop-color:#FFFFFF"/>
	<stop  offset="1" style="stop-color:#000000"/>
</radialGradient>
<path opacity="0.1" fill="url(#SVGF_SVGID_6_)" d="M646.574,380.942c0,0-12.4,6.736-21.458,15.432
	c-9.058,8.699-18.358,17.676-18.358,17.676s19.072-14.588,23.602-18.796C634.891,391.043,646.574,380.942,646.574,380.942z"/>
<radialGradient id="SVGF_SVGID_7_" cx="639.6415" cy="402.327" r="52.9711" gradientTransform="matrix(1 0 0 1.1768 0 -102.5244)" gradientUnits="userSpaceOnUse">
	<stop  offset="0" style="stop-color:#FFFFFF"/>
	<stop  offset="1" style="stop-color:#000000"/>
</radialGradient>
<path opacity="0.12" fill="url(#SVGF_SVGID_7_)" d="M648.239,372.809c0,0-14.541,6.734-19.07,11.781
	c-4.532,5.05-27.898,28.899-29.802,30.581c-1.906,1.685-9.533,8.984-11.203,10.944c-1.67,1.964-8.108,3.644-8.108,3.644
	s7.629-1.404,8.585-2.243c0.952-0.841,9.06-8.975,12.158-12.062c3.098-3.085,24.797-26.657,29.087-29.462
	C634.174,383.187,648.239,372.809,648.239,372.809z"/>
<path opacity="0.25" fill="none" stroke="#AEB1AE" stroke-width="0.6815" stroke-dasharray="2.0446,1.363" d="M714.544,427.626
	c0,0-7.444,2.614-11.934,5.387c-4.487,2.773-26.019,17.817-32.862,23.494c-6.842,5.678-21.977,16.495-35.323,23.887
	c-13.347,7.392-17.051,14.26-18.283,15.841c-1.232,1.585-4.266,5.544-4.266,5.544"/>
<path opacity="0.25" fill="none" stroke="#AEB1AE" stroke-width="0.6815" stroke-dasharray="2.0446,1.363" d="M718.43,433.944
	c0,0-4.154,0.923-13.794,6.469c-9.647,5.541-30.502,20.06-37.46,25.735c-6.955,5.679-21.533,15.314-30.727,21.251
	c-9.198,5.935-10.88,9.235-12.786,11.349c-1.909,2.112-6.911,10.452-6.911,10.452"/>
<path opacity="0.05" fill="none" stroke="#000000" stroke-width="0.6815" d="M151.65,243.025c0,0-4.839,14.487-2.281,29.24
	c2.56,14.753,7.931,40.643,4.607,64.73c-3.326,24.086-10.488,58.711-9.212,68.342c1.278,9.631,5.639,23.068,5.639,23.068"/>
<radialGradient id="SVGF_SVGID_8_" cx="112.0207" cy="297.2525" r="124.0798" gradientTransform="matrix(1 0 0 1.1768 0 -102.5244)" gradientUnits="userSpaceOnUse">
	<stop  offset="0" style="stop-color:#FFFFFF"/>
	<stop  offset="1" style="stop-color:#000000"/>
</radialGradient>
<path opacity="0.1" fill="url(#SVGF_SVGID_8_)" d="M80.442,323.769l1.536-1.92c0,0,10.6,3.099,15.971,17.552
	c5.374,14.453,8.953,28.297,14.582,39.439c5.63,11.143,22.771,38.836,23.791,43.353c1.024,4.514,2.817,8.43,1.281,8.43
	c-1.535,0-3.068-8.43-6.395-14.753c-3.326-6.323-19.699-37.631-22.002-41.245c-2.304-3.613-10.999-37.333-16.116-40.343
	c-5.115-3.011-16.052-5.154-16.052-5.154L80.442,323.769z"/>
<radialGradient id="SVGF_SVGID_9_" cx="114.0672" cy="368.8839" r="79.424" gradientTransform="matrix(1 0 0 1.1768 0 -102.5244)" gradientUnits="userSpaceOnUse">
	<stop  offset="0" style="stop-color:#FFFFFF"/>
	<stop  offset="1" style="stop-color:#000000"/>
</radialGradient>
<path opacity="0.15" fill="url(#SVGF_SVGID_9_)" d="M110.23,362.887c0,0,7.165,9.327,10.233,14.147c3.07,4.818,5.883,12.948,7.927,16.859
	c2.048,3.914,4.607,11.738,7.421,14.751c2.813,3.013,3.838,6.325,6.909,9.334c3.068,3.01,5.115,4.214,5.115,4.214
	s-12.276-9.033-15.094-14.452c-2.814-5.42-8.187-21.072-10.231-23.78C120.463,381.248,110.23,362.887,110.23,362.887z"/>
<radialGradient id="SVGF_SVGID_10_" cx="76.2076" cy="320.2693" r="55.4193" gradientTransform="matrix(1 0 0 1.1768 0 -102.5244)" gradientUnits="userSpaceOnUse">
	<stop  offset="0" style="stop-color:#FFFFFF"/>
	<stop  offset="1" style="stop-color:#000000"/>
</radialGradient>
<polygon opacity="0.1" fill="url(#SVGF_SVGID_10_)" points="97.182,307.489 95.136,320.136 93.089,319.23 "/>
<radialGradient id="SVGF_SVGID_11_" cx="58.8081" cy="369.9027" r="24.5035" gradientTransform="matrix(1 0 0 1.1768 0 -102.5244)" gradientUnits="userSpaceOnUse">
	<stop  offset="0" style="stop-color:#FFFFFF"/>
	<stop  offset="1" style="stop-color:#000000"/>
</radialGradient>
<path opacity="0.15" fill="url(#SVGF_SVGID_11_)" d="M75.949,347.831c0,0-8.953,7.828-12.024,11.741
	c-3.068,3.913-9.979,15.054-9.979,15.054l-4.347,7.826c0,0,14.326-19.565,18.93-23.781c4.607-4.217,7.42-6.323,7.42-6.323V347.831z"
	/>
<radialGradient id="SVGF_SVGID_12_" cx="64.4366" cy="410.3261" r="58.3843" gradientTransform="matrix(1 0 0 1.1768 0 -102.5244)" gradientUnits="userSpaceOnUse">
	<stop  offset="0" style="stop-color:#FFFFFF"/>
	<stop  offset="1" style="stop-color:#000000"/>
</radialGradient>
<path opacity="0.15" fill="url(#SVGF_SVGID_12_)" d="M54.46,396.304c0,0,19.185,12.947,23.279,16.257
	c4.094,3.311,27.885,13.546,28.653,13.546c0.768,0,7.927-4.515,9.722-4.213c1.79,0.299,4.093,2.709,4.093,2.709s0-8.133-5.373-7.83
	c-5.373,0.305-5.629,6.325-8.442,6.626C103.579,423.698,54.46,396.304,54.46,396.304z"/>
<radialGradient id="SVGF_SVGID_13_" cx="107.416" cy="413.9092" r="56.9008" gradientTransform="matrix(1 0 0 1.1768 0 -102.5244)" gradientUnits="userSpaceOnUse">
	<stop  offset="0" style="stop-color:#FFFFFF"/>
	<stop  offset="1" style="stop-color:#000000"/>
</radialGradient>
<path opacity="0.15" fill="url(#SVGF_SVGID_13_)" d="M148.508,422.044c0,0-4.507,0.75-5.788,2.558c-1.282,1.806-0.503,5.642-4.096,7.827
	c-7.417,4.517-18.417-9.333-18.417-9.333s14.584,17.159,18.674,17.159c4.093,0,5.627-2.109,5.627-4.517
	c0-2.404-1.021-6.322,1.28-7.225c2.304-0.902,4.614-0.109,4.614-0.109L148.508,422.044z"/>
<radialGradient id="SVGF_SVGID_14_" cx="46.5302" cy="385.7629" r="99.6496" gradientTransform="matrix(1 0 0 1.1768 0 -102.5244)" gradientUnits="userSpaceOnUse">
	<stop  offset="0" style="stop-color:#FFFFFF"/>
	<stop  offset="1" style="stop-color:#000000"/>
</radialGradient>
<path opacity="0.2" fill="url(#SVGF_SVGID_14_)" d="M41.063,396.077c0,0,8.282,7.455,12.631,9.259c4.348,1.805,14.58,5.116,14.58,5.116
	s15.607,14.154,19.442,16.559c3.839,2.405,26.094,16.858,33.256,17.76c7.163,0.905,15.607,0.905,15.607,0.905s-9.468,0-16.373-2.713
	c-6.905-2.707-26.094-14.149-32.49-18.964c-6.393-4.816-22.767-17.456-24.815-18.663c-2.044-1.207-9.722-7.225-11.768-8.733
	c-2.044-1.506-6.906-5.419-6.906-5.419L41.063,396.077z"/>
<radialGradient id="SVGF_SVGID_15_" cx="83.8782" cy="457.9101" r="66.4473" gradientTransform="matrix(1 0 0 1.1768 0 -102.5244)" gradientUnits="userSpaceOnUse">
	<stop  offset="0" style="stop-color:#FFFFFF"/>
	<stop  offset="1" style="stop-color:#000000"/>
</radialGradient>
<path opacity="0.03" fill="url(#SVGF_SVGID_15_)" d="M26.912,415.383c0.664-1.337,0.815-2.937,1.68-3.274
	c3.431-1.347,8.185,8.78,14.126,12.009c8.674,4.71,51.139,20.955,55.231,21.858c4.096,0.905,13.559,3.917,16.118,5.419
	c2.558,1.506,12.592,4.282,15.663,4.282c3.07,0,14.012-9.7,14.012-9.7s0.353,4.121-1.089,5.138c-1.625,1.149-5.466,3.671-5.56,3.895
	c-1.121,2.635-1.694,6.131-2.64,8.866c-0.945,2.728-3.172,4.926-3.172,4.926c-7.004,1.817-11.607-4.693-16.178-6.484
	c-2.716-1.064-24.249-6.562-28.344-8.07c-4.097-1.508-40.365-17.017-45.866-19.727c-7.933-3.915-17.21-13.023-16.908-13.661
	C24.183,420.45,25.719,417.799,26.912,415.383z"/>
<radialGradient id="SVGF_SVGID_16_" cx="242.0785" cy="839.0742" r="139.8561" gradientTransform="matrix(1.0717 -0.0284 0.0225 1.1765 -59.7058 -83.0989)" gradientUnits="userSpaceOnUse">
	<stop  offset="0" style="stop-color:#FFFFFF"/>
	<stop  offset="1" style="stop-color:#000000"/>
</radialGradient>
<path opacity="0.08" fill="url(#SVGF_SVGID_16_)" d="M208.004,845.863c0,0,33.932,3.628,45.973,5.945
	c12.04,2.317,34.807,10.372,77.682,12.247c42.874,1.868,86.792,4.842,121.681,1.288c34.885-3.554,55.04-7.102,62.261-5.788
	c7.224,1.317,11.671,1.197,11.671,1.197s1.349-1.16,1.313-3.047c-0.037-1.878-6.887-1.698-12.714-1.919
	c-5.83-0.218-47.183,5.765-62.241,6.919c-15.055,1.15-100.757-0.348-122.723-2.021c-21.962-1.677-68.07-11.363-77.351-12.996
	c-9.287-1.638-47.222-7.228-48.031-5.896C203.201,845.615,208.004,845.863,208.004,845.863z"/>
<radialGradient id="SVGF_SVGID_17_" cx="203.0927" cy="405.9095" r="299.1583" gradientTransform="matrix(1 0 0 1.1768 0 -102.5244)" gradientUnits="userSpaceOnUse">
	<stop  offset="0" style="stop-color:#FFFFFF"/>
	<stop  offset="1" style="stop-color:#000000"/>
</radialGradient>
<path opacity="0.03" fill="url(#SVGF_SVGID_17_)" d="M145.756,391.148c0,0,41.128,50.434,46.094,53.937
	c4.963,3.504,36.742,1.752,42.204-0.587c5.458-2.337,28.301-50.833,36.74-52.588c8.439-1.752,32.271,53.758,31.775,60.185
	c-0.495,6.428-24.825,87.062-18.867,105.762c5.96,18.695,23.835,60.174,25.82,73.616c1.987,13.44,2.978,52.588,2.978,62.522
	c0,9.934-0.498,42.653-1.984,50.251c-1.491,7.601-5.865,127.11-14.396,112.772c-0.562-0.946-19.547-2.89-38.992-7.166
	c-10.262-2.256-49.887-7.33-51.604-8.061c-5.061-2.135,8.564-96.587,8.564-96.587s-1.236-26.933-2.224-36.284
	c-0.361-3.379,0.178-11.009-0.733-19.163c-0.726-6.507-4.671-31.479-6.254-37.812c-1.296-5.17,2.346-15.775-1.096-26.701
	c-3.177-10.06-6.057-20.374-8.439-27.377c-4.961-14.605-17.304-55.787-19.875-65.727c-1.046-4.038-4.023-15.316-6.591-27.537
	c-2.808-13.361-4.659-27.86-5.328-32.063c-1.216-7.627-3.396-25.087-5.724-32.103c-1.389-4.185-7.415-12.325-7.415-12.325
	c-2.669-6.291-4.005-15.2-5.38-20.877C143.866,402.447,145.756,391.148,145.756,391.148z"/>
<radialGradient id="SVGF_SVGID_18_" cx="538.4711" cy="387.6412" r="269.2368" gradientTransform="matrix(1 0 0 1.1768 0 -102.5244)" gradientUnits="userSpaceOnUse">
	<stop  offset="0" style="stop-color:#FFFFFF"/>
	<stop  offset="1" style="stop-color:#000000"/>
</radialGradient>
<path opacity="0.03" fill="url(#SVGF_SVGID_18_)" d="M532.449,418.207c0,0-32.768,16.943-51.635,13.437
	c-18.866-3.507-42.703,0-36.74,7.598c5.959,7.593,16.881,18.698,21.351,29.213c4.47,10.516,15.891,47.325,14.894,60.182
	c-0.993,12.856-9.433,61.935-2.979,75.96c6.453,14.022,24.828,36.805,21.846,52.588c-2.977,15.776,12.412,23.956,13.902,35.641
	c1.491,11.689-2.978,46.16-7.449,57.846c-4.469,11.689-8.976,23.984-8.976,23.984s-3.831,81.943-0.706,82.364
	c2.021,0.267,8.202,0.16,9.747,0c0.957-0.097,22.402,1.366,22.882,0.686c1.156-1.627-13.013-91.119-10.98-99.49
	c2.337-9.612,3.344-20.975,3.344-27.212c0-5.408-0.209-17.725-0.874-31.144c-0.771-15.596-1.426-32.558-0.035-42.087
	c1.336-9.173,6.552-26.428,10.789-42.112c4.154-15.356,7.34-29.2,8.074-32.097c1.494-5.841,19.862-77.134,19.862-85.309
	c0-8.176,3.782-37.408,5.796-42.748c1.748-4.62,8.871-17.456,8.871-17.456s1.222,0.609-14.667-10.492
	C542.876,416.45,532.449,418.207,532.449,418.207z"/>
<path opacity="0.25" fill="none" stroke="#AEB1AE" stroke-width="0.6815" stroke-dasharray="2.0446,1.363" d="M30.331,412.351
	c0,0,6.647,7.308,9.231,9.586c2.583,2.281,41.339,18.432,50.544,21.473c9.202,3.042,27.606,9.123,29.224,9.691
	c1.614,0.568,10.335,3.612,11.465,3.043c1.129-0.573,9.85-6.655,10.98-7.415c1.129-0.758,1.775-1.902,1.775-1.902"/>
<path opacity="0.25" fill="none" stroke="#AEB1AE" stroke-width="0.6815" stroke-dasharray="2.0446,1.363" d="M23.75,421.207
	c0,0,10.809,10.99,18.56,14.033c7.748,3.042,37.459,16.529,46.178,19.19c8.719,2.659,25.673,6.27,28.098,7.985
	c2.421,1.71,7.914,6.074,10.171,6.268c2.261,0.19,4.523,0.119,4.523,0.119"/>
<g>
	<path stroke="#000000" stroke-width="6.518" d="M376.957,221.196c6.457,0,11.685,5.6,11.685,12.504
		c0,6.906-5.229,12.504-11.685,12.504h-22.666c-6.45,0-11.685-5.598-11.685-12.504c0-6.904,5.233-12.504,11.685-12.504H376.957"/>
	<path stroke="#FFFFFF" stroke-width="0.7057" d="M376.084,223.198c5.866,0,10.616,4.7,10.616,10.502
		c0,5.803-4.75,10.504-10.62,10.504h-20.587c-5.857,0-10.611-4.7-10.611-10.504c0-5.801,4.754-10.502,10.611-10.502H376.084"/>
	<path fill="#FEFEFE" d="M347.659,233.635c0-4.378,3.246-7.964,7.354-8.254v16.506C350.905,241.598,347.659,238.01,347.659,233.635"
		/>
	<polyline fill="#FEFEFE" points="363.173,232.552 356.312,225.362 363.173,225.362 363.173,232.552 	"/>
	<polyline fill="#FEFEFE" points="363.173,234.715 356.312,241.908 363.173,241.908 363.173,234.715 	"/>
	<polyline fill="#FFFFFF" points="371.781,232.552 378.646,225.362 371.781,225.362 371.781,232.552 	"/>
	<polyline fill="#FFFFFF" points="371.781,234.715 378.646,241.908 371.781,241.908 371.781,234.715 	"/>
	<polyline fill="#FFFFFF" points="364.63,225.362 370.326,225.362 370.326,241.908 364.63,241.908 364.63,225.362 	"/>
	<g>
		<path fill="#FFFFFF" d="M354.383,219.243v1.011h0.957v-0.341l0.351,0.074v0.191c0,0.297-0.086,0.376-0.378,0.376h-0.904
			c-0.289,0-0.375-0.079-0.375-0.376v-0.845c0-0.297,0.086-0.376,0.375-0.376h0.904c0.292,0,0.378,0.079,0.378,0.376v0.153
			l-0.351,0.06v-0.303H354.383z"/>
		<path fill="#FFFFFF" d="M356.624,218.957h1.122c0.285,0,0.376,0.079,0.376,0.376v0.845c0,0.297-0.091,0.376-0.376,0.376h-1.122
			c-0.289,0-0.381-0.079-0.381-0.376v-0.845C356.243,219.036,356.335,218.957,356.624,218.957z M357.767,220.254v-1.011H356.6v1.011
			H357.767z"/>
		<path fill="#FFFFFF" d="M358.719,218.957h0.287l0.715,0.967l0.704-0.967h0.283v1.597h-0.328v-0.987
			c0-0.031,0.002-0.087,0.007-0.169c-0.026,0.07-0.06,0.128-0.086,0.166l-0.57,0.797h-0.073l-0.571-0.799
			c-0.038-0.052-0.067-0.103-0.091-0.164c0.006,0.065,0.01,0.12,0.01,0.169v0.987h-0.287V218.957z"/>
		<path fill="#FFFFFF" d="M361.303,218.957h1.303c0.234,0,0.345,0.088,0.345,0.31v0.357c0,0.222-0.111,0.31-0.345,0.31h-0.953v0.622
			h-0.35V218.957z M361.653,219.234v0.421h0.797c0.108,0,0.156-0.02,0.156-0.126v-0.168c0-0.106-0.047-0.128-0.156-0.128H361.653z"
			/>
		<path fill="#FFFFFF" d="M363.349,218.957h1.297c0.238,0,0.347,0.088,0.347,0.31v0.376c0,0.222-0.109,0.31-0.347,0.31h-0.194
			l0.697,0.602h-0.502l-0.614-0.602h-0.33v0.602h-0.353V218.957z M363.702,219.234v0.444h0.79c0.113,0,0.159-0.023,0.159-0.127
			v-0.19c0-0.106-0.045-0.128-0.159-0.128H363.702z"/>
		<path fill="#FFFFFF" d="M365.564,218.957h1.558v0.272h-1.203v0.355h0.702v0.275h-0.702v0.395h1.221v0.301h-1.576V218.957z"/>
		<path fill="#FFFFFF" d="M367.972,219.234v0.345h0.947c0.288,0,0.378,0.076,0.378,0.376v0.222c0,0.297-0.09,0.376-0.378,0.376
			h-0.941c-0.283,0-0.379-0.079-0.379-0.376v-0.048l0.312-0.063v0.187h1.075v-0.366h-0.95c-0.285,0-0.376-0.079-0.376-0.378v-0.177
			c0-0.297,0.092-0.376,0.376-0.376h0.865c0.273,0,0.376,0.076,0.376,0.351v0.033l-0.311,0.076v-0.183H367.972z"/>
		<path fill="#FFFFFF" d="M370.205,219.234v0.345h0.951c0.285,0,0.381,0.076,0.381,0.376v0.222c0,0.297-0.095,0.376-0.381,0.376
			h-0.939c-0.288,0-0.381-0.079-0.381-0.376v-0.048l0.313-0.063v0.187h1.077v-0.366h-0.953c-0.279,0-0.376-0.079-0.376-0.378v-0.177
			c0-0.297,0.097-0.376,0.376-0.376h0.866c0.272,0,0.376,0.076,0.376,0.351v0.033l-0.31,0.076v-0.183H370.205z"/>
		<path fill="#FFFFFF" d="M372.125,218.957h0.357v1.597h-0.357V218.957z"/>
		<path fill="#FFFFFF" d="M373.455,218.957h1.121c0.29,0,0.381,0.079,0.381,0.376v0.845c0,0.297-0.091,0.376-0.381,0.376h-1.121
			c-0.285,0-0.376-0.079-0.376-0.376v-0.845C373.078,219.036,373.17,218.957,373.455,218.957z M374.6,220.254v-1.011h-1.173v1.011
			H374.6z"/>
		<path fill="#FFFFFF" d="M375.549,218.957h0.243l1.072,0.94c0.063,0.055,0.117,0.109,0.172,0.174
			c-0.006-0.131-0.012-0.226-0.012-0.274v-0.84h0.314v1.597h-0.237l-1.119-0.987c-0.043-0.041-0.086-0.081-0.128-0.13
			c0.016,0.125,0.016,0.206,0.016,0.253v0.864h-0.32V218.957z"/>
	</g>
	<g>
		<path fill="#FFFFFF" d="M361.384,247.18v1.013h1.101v-0.355h-0.577v-0.274h0.926v0.549c0,0.301-0.093,0.378-0.38,0.378h-1.049
			c-0.29,0-0.381-0.077-0.381-0.378v-0.84c0-0.301,0.091-0.376,0.381-0.376h1.049c0.277,0,0.38,0.075,0.38,0.36v0.036l-0.349,0.067
			v-0.18H361.384z"/>
		<path fill="#FFFFFF" d="M363.434,246.898h1.556v0.273h-1.199v0.357h0.7v0.269h-0.7v0.397h1.217v0.299h-1.574V246.898z"/>
		<path fill="#FFFFFF" d="M366.086,246.898h0.341l0.872,1.594H366.9l-0.185-0.348h-0.961l-0.178,0.348h-0.353L366.086,246.898z
			 M366.567,247.856l-0.325-0.65l-0.335,0.65H366.567z"/>
		<path fill="#FFFFFF" d="M367.643,246.898h1.299c0.238,0,0.344,0.087,0.344,0.308v0.375c0,0.222-0.106,0.308-0.344,0.308h-0.194
			l0.697,0.604h-0.508l-0.61-0.604h-0.339v0.604h-0.345V246.898z M367.988,247.171v0.447h0.796c0.107,0,0.159-0.021,0.159-0.126
			V247.3c0-0.105-0.052-0.129-0.159-0.129H367.988z"/>
		<path fill="#FFFFFF" d="M371.453,246.611c0.196,0.206,0.31,0.488,0.31,0.783c0,0.305-0.109,0.577-0.313,0.783
			c-0.209,0.214-0.474,0.331-0.751,0.331c-0.282,0-0.546-0.117-0.751-0.335c-0.2-0.214-0.309-0.485-0.309-0.778
			c0-0.295,0.112-0.577,0.319-0.798c0.194-0.207,0.454-0.313,0.741-0.313C370.986,246.283,371.251,246.398,371.453,246.611z
			 M371.356,246.715c-0.171-0.188-0.401-0.286-0.654-0.286c-0.249,0-0.479,0.091-0.645,0.274c-0.18,0.19-0.281,0.435-0.281,0.691
			c0,0.254,0.099,0.494,0.268,0.676c0.178,0.191,0.411,0.289,0.647,0.289c0.249,0,0.478-0.098,0.662-0.285
			c0.177-0.177,0.268-0.414,0.268-0.67C371.62,247.135,371.532,246.893,371.356,246.715z M371.228,247.087
			c0,0.181-0.099,0.304-0.273,0.341l0.267,0.574h-0.255l-0.242-0.539H370.5v0.539h-0.227v-1.26h0.453
			C371.065,246.742,371.228,246.859,371.228,247.087z M370.5,246.898v0.417h0.191c0.206,0,0.301-0.054,0.301-0.2
			c0-0.159-0.095-0.218-0.31-0.218H370.5z"/>
	</g>
</g>
</svg>
