<?xml version="1.0" encoding="utf-8"?>
<!-- Generator: Adobe Illustrator 19.1.0, SVG Export Plug-In . SVG Version: 6.00 Build 0)  -->
<!DOCTYPE svg PUBLIC "-//W3C//DTD SVG 1.1//EN" "http://www.w3.org/Graphics/SVG/1.1/DTD/svg11.dtd">
<svg version="1.1" xmlns="http://www.w3.org/2000/svg" xmlns:xlink="http://www.w3.org/1999/xlink" x="0px" y="0px"
	 viewBox="0 0 792 1257.1" enable-background="new 0 0 792 1257.1" xml:space="preserve">
<g id="BODY">
	<g>
		<path fill="#FFFFFF" stroke="#897F76" stroke-width="0.2506" d="M778.3,820.7c-2.2-26.5-9.4-73.5-12.5-88.9
			c-3.1-15.4-20.5-90.2-21.9-97.4c-1.4-7.2-19.8-74.5-22.7-84.1c-2.9-9.6-19-53.7-28-68.5c-8.9-14.7-32.5-50.6-36.4-59.1
			c-3.9-8.4-18.6-28.7-38.8-41.7c-20.3-13-104.9-53.5-104.9-53.5s-3.6-1.9-3.6-4.8c0-2.9-0.7-13-1.7-16.9c-1-3.9-5.1-14.5-6.7-17.4
			c-1.7-2.9-6-10.4-6.3-12.3c-0.2-1.9-2.4-16.4-3.1-18.1c-0.7-1.7-8.7-11.6-9.6-12.5c-1-1-12.3-18.1-79.1-15.7
			c-66.8,2.4-76.9,22.7-76.9,22.7s-10.6,10.9-15.2,30.1c-4.6,19.3-13.3,56.9-13.3,56.9s-54,18.3-93.8,43.1
			c-39.8,24.8-52.1,58.3-67.3,79.3c-15.2,21-46.5,62.2-64.6,110.4c-18.1,48.2-16.2,36.4-20.3,62.9c-4.1,26.5-17.1,125.8-17.9,128.7
			c-0.7,2.9-8.7,58.8-10.1,66.3c-1.5,7.5-7.9,39.3-7.2,40.3c0.7,1,11.1,14,13.3,17.1c2.2,3.1,7.7,11.6,7.7,11.6s-5.5,10.4-6.3,11.8
			c-0.7,1.5-0.7,10.1-0.7,13.3c0,3.1-1.2,17.1-2.4,19c-1.2,1.9-4.6,8.2-4.3,9.4c0.2,1.2,5.5,8.4,9.2,9.2c3.6,0.7,13.8,6.9,15.9,8.7
			c0,0,0.5,8.9,5.9,13.2c44.2,35.4,90.1-17,93.2-23.8c3.1-6.7,4.8-13.5,5.3-15.7c0.5-2.2-0.5-19.5-1-20.5c-0.5-1,1-6,2.6-7.5
			c1.7-1.4,8.7-9.6,9.4-13.7c0.7-4.1-4.6-28.4-5.3-30.4c-0.7-1.9-2.9-14-1.9-17.1c1-3.1,11.3-18.3,14.9-22.2c3.6-3.9,8-10.1,8-13
			c0-1.6-0.3-6-0.5-10c-0.1-0.1-0.2-0.1-0.2-0.3c0-0.4,0-1.2,0.1-2.2c-0.1-2.2-0.1-4,0.1-4.8c0.4-2,1-5.6,1.6-6.9
			c0.7-2,1.6-3,2.7-4.7c1.5-2.2,6.3-19.7,7.5-22c1.1-2.2,1.1-20.1,1.1-24.2c0-4.1-3.4-16.8-3.4-18.6c0-1.9,6.3-3,10.8-4.1
			c4.5-1.1,8.6,0.4,9.3,3.4c0.7,3-4.1,17.5-7.5,21.6c-3.4,4.1-8.9,30.6-10.8,34.3c-1.9,3.7-6,26.8-6,26.8s-0.1,0.1-0.3,0.1
			c1,7.5,2.3,16.8,2.3,18.6c0,2.9,1.7,15.9,3.4,19.8c1.7,3.9,10.4,20.7,10.4,20.7s-19.2,53.8,182.6,53.8
			c188.7,0,210.7-26.6,211.5-27.3c0,0,9.7-20.2,15.5-26.2c5.8-6,10.4-14.2,10.4-15.7c0-1.4-0.7-5.5-0.5-6.7c0.2-1.2,1.2-6,0.5-7
			c-0.7-1-4.1-1.9-5.1-2.4c-1-0.5-2.2-1.2-2.4-2.7c-0.2-1.4,2.6-20.5,2.9-22.4c0.2-1.7,1.5-21.3,1.7-28.1c-0.3,0.1-0.6,0.1-0.6,0.1
			s-0.4-13-0.7-18.6c-0.4-5.6-2.2-27.9-3.7-31.7c-1.5-3.7-6.7-11.6-7.4-13.4c-0.7-1.9-4.8-6-4.8-12.3c0-6.3-1.1-19.4-1.1-19.4
			s10.8,1.5,11.9,4.5c1.1,3,4.1,17.9,5.2,30.2c1.1,12.3,0.4,24.2,2.6,30.6c2.2,6.3,5.2,14.9,7.5,17.5c2.2,2.6,3,3.7,5.2,6.7
			c0.2,0.3,0.1,0.5,0,0.8c1.4,2.2,2.6,4.6,2.9,5.9c0.5,1.9,17.6,38.6,17.8,41c0.2,2.4,1,8.2,0,10.8c-1,2.6-6,17.4-7,18.8
			c-1,1.4-1.2,10.6-0.5,12.3c0.7,1.7,2.9,6.8,3.9,7.7c1,1,3.4,3.6,3.4,3.6s-10.4,18.3-11.3,20.3c-1,1.9-0.2,15.4,0.5,17.4
			c0.7,1.9,5,17,16.6,26.2c49.6,39.7,87.3,1.5,90-2.1c2.7-3.6,9.1-11.3,12.3-14.5c3.1-3.1,14-21.2,16.9-38.8
			C779.9,868.6,780.4,847.2,778.3,820.7z"/>
	</g>
</g>
<g id="SHADING">
	<g>
		<path fill="#CFD4D8" d="M655.5,975.4"/>
	</g>
	
		<radialGradient id="SVGID_1_" cx="394.0184" cy="68.5197" r="243.8234" gradientTransform="matrix(0.7197 0 0 0.7197 111.6526 177.8749)" gradientUnits="userSpaceOnUse">
		<stop  offset="0" style="stop-color:#6A6D71"/>
		<stop  offset="1" style="stop-color:#000000"/>
	</radialGradient>
	<path opacity="0.4" fill="url(#SVGID_1_)" d="M401.4,425.8c0,0,16.9-38.5,19.4-43c2.5-4.6,10.6-30.3,11.3-32.8
		c0.7-2.5,16.2-28.9,19.1-33.5c2.8-4.6,29.3-50.1,30.7-55c1.4-4.9,3.2-10.9,1.4-13.1c-1.8-2.1-24.2-19.3-87.1-15.2
		c-59.6,3.9-68.1,22.2-69.1,26.5c-1.1,4.2-2.1,35.3-0.4,42c1.8,6.7,22.2,46.2,24.3,52.2c2.1,6,10.6,21.5,11.6,26.1
		c1.1,4.6,4.2,15.5,4.2,15.5s15.2,12,18.3,16.9c3.2,4.9,8.5,13.8,8.5,13.8L401.4,425.8z"/>
	<path opacity="0.2" fill="#6A6D71" d="M488,256c0,0-10.2,28.6-15.4,37.9c-5.2,9.3-19.7,34.6-19.7,34.6s-1.7-2.6-2.8-2.8
		c-1.1-0.2,0.7-2.4,0.7-2.4s14.7-22.3,18.8-29.4C473.7,286.7,488,256,488,256z"/>
	<path opacity="0.2" fill="#6A6D71" d="M478.2,323.5c0,0-23.6,21.6-27.3,27.9c-3.7,6.3-15.2,28.1-17.3,31.6
		c-2.2,3.5-8.4,14.1-8.4,14.1s9.3-6.3,10.4-7.8c1.1-1.5,16.4-22.3,18.8-25.7c2.4-3.5,5.2-7.4,6.1-6.9c0.9,0.4-2.6,8.9-2.4,10.2
		c0.2,1.3,1.7,4.3,1.7,4.3s10.8-16,13.2-23.6C475.4,340,478.2,323.5,478.2,323.5z"/>
	<path opacity="0.22" fill="#CFD4D8" d="M493.2,272.2c0,0-4.1,19.3-4.8,22.9c-0.6,3.7-2.4,14.9-2.4,14.9s2.4,1.1,2.6-1.3
		c0.2-2.4,1.9-8.2,2.6-11.5c0.7-3.2,2.2-12.5,3.2-15.8C495.6,278.3,493.2,272.2,493.2,272.2z"/>
	<path opacity="0.2" fill="#6A6D71" d="M496.6,282.2c0,0-5.6,26.6-6.1,28.8c-0.4,2.2-0.2,6.9-1.5,8.4c-1.3,1.5-3.2,1.5-3.2-0.4
		c0-1.9-1.3-5.4-1.3-5.4s-6.3,26.6-7.4,32.5c-1.1,5.8-6.7,22.3-7.6,24.9c-0.9,2.6-3.5,8.7-5,10.6c-1.5,1.9-16,12.1-18.6,13.2
		c-2.6,1.1-13.6,5.8-13.6,5.8s3,0.9,4.3,0.9c1.3,0,26.6-13.4,27.3-13.8c0.7-0.4-12.1,17.3-21.2,23.4c-9.1,6.1-24.5,16.2-24.5,16.2
		s13.6-1.5,31.2-15.4c17.5-13.9,29.2-18.8,31.8-21c2.6-2.2,9.7-8,9.7-8s-9.5-4.1-8.6-6.5c0.9-2.4,8-1.7,9.7-1.1
		c1.7,0.6,19.9,9.5,19.9,9.5s-8.7-9.5-10.2-11.9c-1.5-2.4-6.9-9.1-5-11.5c2-2.4,6.3-3.9,8.9-2.8c2.6,1.1,8.4-2.2,13.4-7.8
		c5-5.6,10.8-13.6,10.8-13.6s-8-5-10.6-5.8c-2.6-0.9-6.1,1.1-7.1,1.7c-1.1,0.6-5.4-0.9-5.4-2.6c0-1.7,0-13.2,1.1-18
		c1.1-4.8-0.4-11.5-0.6-12.8c-0.2-1.3-2.6-4.3-2.6-4.3s-3.7,21-4.5,21.6c-0.9,0.6-3.5-2.8-2.6-6.3c0.9-3.5,1.1-15.8,1.5-19.9
		C499.7,284.4,496.6,282.2,496.6,282.2z"/>
	<path opacity="0.2" fill="#6A6D71" d="M423.3,394.7l19-37.9c0,0-1.5-5.8-1.9-5c-0.4,0.9-4.3,12.8-5.4,14.9
		c-1.1,2.2-10.8,21.4-10.8,22.1C424.2,389.5,423.3,394.7,423.3,394.7z"/>
	<path opacity="0.22" fill="#CFD4D8" d="M422,404.7c0,0-2.6,5.4-4.3,7.4c-1.7,1.9-3.7,3.9-3.7,3.9s7.6-1.1,9.1-1.3
		c1.5-0.2,8.4-3.2,10.2-3.9c1.7-0.6,9.5-7.8,9.5-7.8s-7.1,2.6-7.8,3c-0.7,0.4-5.6,3.5-7.8,4.5c-2.2,1.1-6.1,1.3-6.1,1.3
		s1.3-2.4,1.3-4.1C422.4,406,422,404.7,422,404.7z"/>
	<path opacity="0.35" fill="#959A9E" d="M362.3,379.5c3.2,9.7,4.5,16,4.5,16s-20.2-24-24.7-29.9c-4.6-5.8-11.3-15.1-14.9-19.9
		c-3.7-4.8,2.8-3,3.2-5.6c0.4-2.6,1.7-12.6,1.3-17.7c-0.4-5.2,0.9-6.9,0.9-6.9s20.6,42,23.4,50C355.9,365.4,360.9,375,362.3,379.5z"
		/>
	<path opacity="0.25" fill="#CFD4D8" d="M380.7,421.1c0,0-6.7-7.1-9.9-7.4c-3.2-0.2-9.9-0.9-11.5-1.3c-1.5-0.4-6.1-3-7.6-4.1
		c-1.5-1.1-7.1-4.8-7.1-4.8s4.3-0.9,5.6,0.4c1.3,1.3,9.7,6.9,12.3,7.1c2.6,0.2,8.9-0.9,11,0.6C375.7,413.3,380.7,421.1,380.7,421.1z
		"/>
	<polygon opacity="0.25" fill="#959A9E" points="368.1,419.8 315.1,391.5 304.9,390.6 364.7,420.2 	"/>
	<polygon opacity="0.25" fill="#959A9E" points="363.1,423 351.9,423 297.4,399 303.4,398.6 	"/>
	<path opacity="0.25" fill="#959A9E" d="M269.2,355.1c0,0,20.8,1.9,22.3,2.6c1.5,0.6,17.5,9.5,20.6,11c3,1.5,9.3,2.8,9.3,2.8
		s-10.4-6.9-11.5-8.4c-1.1-1.5-11.9-7.6-15.8-8.4C290.2,353.8,269.2,355.1,269.2,355.1z"/>
	<path opacity="0.22" fill="#CFD4D8" d="M214.5,401.4c0,0,26.6,22.3,38.3,23.2c11.7,0.9,26.8-3.5,34-2.6c7.1,0.9,37,9.9,42.2,11.5
		c5.2,1.5,21,3.5,23.2,3.5c2.2,0,13-0.9,13-0.9s-17.3-6.3-20.1-8c-2.8-1.7-4.1-0.9-11.3-0.9s-20.1-3-26.4-5.8
		c-6.3-2.8-19.3-5.4-23.4-5c-4.1,0.4-12.3,3-21.6,2.4C253,418.1,214.5,401.4,214.5,401.4z"/>
	<path opacity="0.22" fill="#CFD4D8" d="M228.8,432.3c0,0,37,16.2,42,16.4c5,0.2,34.6,4.3,39.4,6.1c4.8,1.7,18.2,8.2,23.6,8.4
		c5.4,0.2,17.7,2.2,27,3.5c9.3,1.3,17.7,1.9,17.7,1.9s-39.8,0.2-44.8-0.4c-5-0.6-21.6-8.4-27.7-9.7c-6-1.3-26-1.7-32-3.7
		C267.9,452.9,228.8,432.3,228.8,432.3z"/>
	<path opacity="0.15" fill="#959A9E" d="M220.1,473c0,0,1.3,18.8-0.7,22.7c-1.9,3.9-7.3,18-7.6,23.2c-0.2,5.2-2.6,20.1-4.1,23.8
		c-1.5,3.7-4.5,18.2-4.5,18.2s-1.1-31.2-0.4-37.9c0.6-6.7,2.2-20.1,3.5-23.1c1.3-3,8.6-9.3,9.7-14.9
		C217.1,479.3,220.1,473,220.1,473z"/>
	<path opacity="0.2" fill="#6A6D71" d="M120.8,517.4c0,0,1.1,46.1,1.5,52.6c0.4,6.5,5.4,41.5,10.6,58.2
		c5.2,16.7,15.6,36.8,16.9,38.7c1.3,1.9,3.7,10.2,3.7,10.2l1.9-0.2c0,0,1.5-7.1,0.6-10.2c-0.9-3-11.9-33.1-11.9-35.5
		c0-2.4,0.2-23.8-1.1-28.3c-1.3-4.5-2.8-5.6-2.8-5.6S139,629,139,630.1c0,1.1-3.3-6.7-3.7-10c-0.4-3.2-3.2-46.7-2.6-50.8
		c0.7-4.1,1.5-39.2,1.5-39.2s-5.2,28.1-5.2,34.2c0,6.1-2.2,12.8-2.2,12.8L120.8,517.4z"/>
	<path opacity="0.2" fill="#6A6D71" d="M102.6,639.8c0,0,0,38.1,2,43.9c1.9,5.8,25.1,34.8,38.3,44.6c13.2,9.7,29.6,20.3,29.6,20.3
		s-38.9-31.6-51.3-61C108.9,658.2,102.6,639.8,102.6,639.8z"/>
	<path opacity="0.22" fill="#CFD4D8" d="M159.1,695c0,0,13.6,22.7,16.7,26.6c3,3.9,18.6,24.9,18.6,24.9s-26.6-27-29-31.2
		c-2.4-4.1-7.6-12.8-7.6-14.9S159.1,695,159.1,695z"/>
	<path opacity="0.2" fill="#6A6D71" d="M171.2,753.2c0,0-1.3,11.7,1.5,21c2.8,9.3,4.8,14.9,5.4,19.7c0.6,4.8,3.9-4.3,3.9-4.3l5-12.3
		c0,0-5.8-12.3-7.8-14.9C177.3,759.7,171.2,753.2,171.2,753.2z"/>
	<path opacity="0.2" fill="#6A6D71" d="M105.2,762.9c0,0,22.3,28.8,26.2,32.7c3.9,3.9,19.9,19.5,20.8,20.3c0.9,0.9,3,25.5,3,30.9
		c0,5.4,1.5,9.3,1.5,9.3s10-18.4,11.7-19.9c1.7-1.5,7.8-8.7,7.8-8.7s-7.4-3.5-12.1-6.9c-4.8-3.5-25.5-23.4-36.8-36.4
		c-11.3-13-12.5-20.8-14.7-24.5c-2.2-3.7-5.2-2.4-6.1-2.2C105.7,758,105.2,762.9,105.2,762.9z"/>
	<path opacity="0.22" fill="#CFD4D8" d="M119.5,870.7c0,0,13-4.3,15.8-5.8c2.8-1.5,11.9-5.2,13.9-3c1.9,2.2,5.8,16,9.1,22.5
		c3.3,6.5,5.6,13.9,5.6,16c0,2.2-1.7,3.7-1.7,3.7s-12.8-16.5-20.1-20.8c-7.4-4.3-18.8-8.9-21.2-9.7
		C118.4,872.6,119.5,870.7,119.5,870.7z"/>
	<path opacity="0.2" fill="#6A6D71" d="M47.2,909.4c0,0,19.5-10.6,27.5-11.9c8-1.3,19.9-2.2,40.7,4.5c20.8,6.7,28.1,13.4,28.1,13.4
		s-15.8-2.4-18.6-3c-2.8-0.7-14.1-2.8-15.8-5c-1.7-2.2-8.2-7.1-14.3-6.5c-6.1,0.6-10.2,3.9-15.1,4.8c-5,0.9-13,3.5-18.2,3
		C56.3,908.3,47.2,909.4,47.2,909.4z"/>
	<path opacity="0.2" fill="#6A6D71" d="M50.6,971.2c0,0,1.7-8.9,4.1-12.6c3.7-5.7,22.3-12.8,32-12.3c9.7,0.4,23.1,3.6,25.7,5.3
		c5,3.2,13.3,10.5,13.3,13.3s0.9,6.3,0.4,9.1c-0.4,2.8-11.8,14.2-11.8,14.2s17.3-8.7,22.4-15.3c2.5-3.3,8.2-11.2,8.2-11.2
		s-6.1,5.6-6.5,3.7c-0.4-1.9-1.1-6.1,0.2-5.8c1.3,0.2,4.8-0.9,4.8-0.9s-6.7,0.9-7.6-0.6c-0.9-1.5-0.2-3.7,1.1-4.3
		c1.3-0.7,5-2.2,5-2.2s-5.9,0.6-8.7-1.7c-2.8-2.4-5.4-6.3-5-7.4c0.4-1.1,8.2-7.1,9.5-12.5c1.3-5.4-0.9-10.8-0.9-10.8
		s-5.2,14.3-7.1,15.8c-2,1.5-3,1.7-3,0.2c0-1.5,3.7-8.2,3.7-10.6c0-2.4-1.3-5-1.3-5s-7.6,14.9-9.7,15.8c-2.2,0.9-37.4,1.3-38.3,0.4
		c-0.9-0.9-4.8-0.6-4.8-0.6s-1.9,4.5-3.7,4.8c-1.7,0.2-6.7,1.1-8.4,0.6c-1.7-0.4-5.2-1.3-5.2-1.3s-0.4,5.8-1.7,6.3
		c-1.3,0.4-3.7,2.6-5,2.6c-1.3,0-6.5,2.6-6.5,2.6s-2.6,7.1-2.6,8.2c0,1.1-0.4,6.7-0.4,6.7s3.9,1.7,4.5,2.8
		C48,969.5,50.6,971.2,50.6,971.2z"/>
	<path opacity="0.2" fill="#6A6D71" d="M156.7,910.1c0,0-17.3-29.6-22.1-25.7c-4.8,3.9,2.6,21.9,4.5,24.2c1.9,2.4,6.5,10.4,6.3,12.3
		c-0.2,1.9-3,13.2-2.2,17.3c0.9,4.1,0.9,6.3,3,10.4c2.2,4.1,3.7,5.2,3.7,5.2s4.3-12.3,3.9-17.5c-0.4-5.2-1.3-15.6-1.3-16.7
		c0-1.1,2-4.1,2.6-5c0.7-0.9,3-2.6,3-2.6L156.7,910.1z"/>
	<path opacity="0.22" fill="#CFD4D8" d="M55,742.2c0,0,30.3,28.3,34.8,29.6c4.5,1.3,6.1,1.3,6.1,1.3S80.1,753.8,78.4,751
		c-1.7-2.8-5.4-8-9.1-9.7c-3.7-1.7-9.1-1.5-10.8-1.3C56.8,740.2,55,742.2,55,742.2z"/>
	<path opacity="0.22" fill="#CFD4D8" d="M178.6,753.2l11.9,11.7c0,0,1.3-3,0.9-4.1c-0.4-1.1-1.7-1.3-2.8-2.6
		c-1.1-1.3-4.5-4.1-3.9-4.1c0.6,0,4.5,0.9,5.8,0.2s2.8-3.5,2.8-3.5s-7.4-8.2-8.4-8.9c-1.1-0.7-1.3,4.3-3.9,4.8
		c-2.6,0.4-4.8,1.7-7.4,0.4c-2.6-1.3-0.4,0.7-1.1,1.5c-0.6,0.8,2.2,5.2,3.2,5.2C176.8,753.8,178.6,753.2,178.6,753.2z"/>
	<path opacity="0.18" fill="#6A6D71" d="M190.5,730.7c0,0-3.5-25.1-2.4-32.7c1.1-7.6,6.1-18.4,6.3-20.1c0.2-1.7,3.5-5.8,5-6.5
		c1.5-0.7,8-3.3,8-3.3s5.8,2.8,6.5,3c0.7,0.2,2.4,3.2,1.3,4.8c-1.1,1.5-2.4,14.3-2.8,17.1c-0.4,2.8-2.4,15.6-2.4,18.2
		c0,2.6-2.2,7.4-2.2,7.4l-0.4,2.8c0,0-5,0.4-8.9,1.7c-3.9,1.3-6.9,3.2-6.9,3.2L190.5,730.7z"/>
	<path opacity="0.25" fill="none" stroke="#959A9E" stroke-width="2.2778" d="M202.6,598.5c0.6,1.5,3.7,4.1-0.4,12.3
		C198,619,189,635,189,640c0,5,3.2,17.7,7.8,20.6c4.5,2.8,21.4,11.3,22.5,13.6c1.1,2.4,3.2,5,1.3,4.5c-1.9-0.4-5.8-6.9-5.8-6.9"/>
	<path opacity="0.25" fill="#6A6D71" d="M156.1,586.1c0.9,0.2,32.7,44.4,32.7,44.4v4.5l-2.6-1.5l-29.9-43.3L156.1,586.1z"/>
	
		<radialGradient id="SVGID_2_" cx="486.0331" cy="344.1318" r="151.9745" gradientTransform="matrix(0.7197 0 0 0.7197 111.6526 177.8749)" gradientUnits="userSpaceOnUse">
		<stop  offset="0" style="stop-color:#CFD4D8"/>
		<stop  offset="1" style="stop-color:#959A9E"/>
	</radialGradient>
	<path opacity="0.12" fill="url(#SVGID_2_)" d="M509.4,409.4c0,0,3,3.9,2.4,5.4c-0.7,1.5-3.9,4.5-2.4,6.1c1.5,1.5,7.8,1.3,10.2,5.2
		c2.4,3.9,4.3,10-3.7,9.3c-8-0.6-19.5,2.4-26.8,1.3c-7.4-1.1-18-2.6-23.4-1.3c-5.4,1.3-29,8.7-31.6,8.9c-2.6,0.2,0.6,5.6,1.1,6.3
		c0.4,0.6,0-4.5,5-4.5c5,0,42.6-0.6,45.4-1.1c2.8-0.4,23.2-3.5,27.9-1.9c4.8,1.5,8,4.5,9.5,5.6c1.5,1.1-3,10.2-0.2,13.4
		c2.8,3.2,9.5,10,10.6,12.1c1.1,2.2,3.2,17.1,2.8,18.6c-0.4,1.5,4.1,15.1,4.5,18c0.4,2.8,1.1,27,1.1,27s4.1-26.6,3.2-31.4
		c-0.9-4.8-2.4-13.6-1.5-17.7c0.9-4.1,5.4-8.7,10.2-15.8c4.8-7.1,5.6-23.4,5.6-23.4s-8,15.6-11.7,17.7c-3.7,2.2-10.4-11.7-11.9-14.3
		c-1.5-2.6,1.5-9.1,0.2-16.2c-1.3-7.1,2.2-8.7-5.4-12.3c-7.6-3.7-11.9-4.1-13-8.9c-1.1-4.8-3.5-6.5-5-6.9
		C511.1,408.1,509.4,409.4,509.4,409.4z"/>
	<path opacity="6.000000e-002" fill="#6A6D71" d="M574.1,414.8c0,0-7.8,27.9-7.4,38.5c0.4,10.6,3.2,43.3,2.8,48.7
		c-0.4,5.4-0.9,22.1-0.9,24.4c0,2.4,2.4,21.6,2.4,21.6s7.3-11.3,8-12.1c0.6-0.9,1.5-3.5,5.4-1.3c3.9,2.2,10.6,4.5,10.6,4.5
		s-4.3-4.8-5.4-5.2c-1.1-0.4-4.3-2.6-5.2-4.5c-0.9-1.9-3.5-10.4-3.9-14.7c-0.4-4.3-1.7-33.5-2.8-43.7c-1.1-10.2-2.4-14.5-2.8-19.9
		c-0.4-5.4-2-8.9-2.2-13C572.6,434,574.1,414.8,574.1,414.8z"/>
	<path opacity="0.16" fill="#6A6D71" d="M600.9,475.8c0,0-5.2,2.8-5.2,5.4c0,2.6,5.6,18.6,6.1,21.4c0.4,2.8,5,25.5,5.2,28.1
		c0.2,2.6-10.8,30.5-11.7,32.7c-0.9,2.2-9.5,23.8-8.9,26.8c0.6,3,0.4,6.9,4.3,7.8c3.9,0.9,10.2-0.9,11,0
		c0.9,0.9,10.2,21.4,10.2,23.4c0,1.9-2.4,20.8-3.9,23.8c-1.5,3-6.9,18.2-11.5,18.8c-4.5,0.7-15.8,1.9-15.8,1.9s8.4,14.3,10.2,16
		c1.7,1.7,9.3,4.5,9.3,4.5s10.8,1.3,11.9,4.1c1.1,2.8,3.2,16,3.7,18.6c0.4,2.6,2.2,15.6,2.2,19.5c0,3.9,0.6,16.2,0.9,17.7
		c0.2,1.5,4.8,16,6.3,18.6c1.5,2.6,7.4,10.4,7.4,10.4s8.9,20.1,10.2,22.9c1.3,2.8,5.6-3.2,6.3-3.9c0.6-0.6,20.8-13,22.9-15.4
		c2.2-2.4,47.8-52.6,47.8-52.6l-2.4-0.6c0,0-45.2,48.5-48.7,50.8c-3.5,2.4-12.5,4.3-14.3,5.6c-1.7,1.3-5.4,0.2-6.1,2.8
		c-0.6,2.6-0.4-4.5-1.1-7.8c-0.6-3.2,2.6-6.7,4.8-13.8c2.2-7.1,23.6-18.6,27.5-23.1c3.9-4.5,20.6-15.8,21-16.4
		c0.4-0.6,17.7-2.4,18.4-4.1c0.7-1.7-1.5-6.3-7.6-5.6c-6.1,0.6-29.4,5.6-30.9,7.3c-1.5,1.7-14.1,6.3-19.7,7.4
		c-5.6,1.1-12.1-1.9-14.9-4.8c-2.8-2.8-5.6-5-4.5-12.8c1.1-7.8,0.2-19,0.2-19.7c0-0.6-2.6,21.4-4.3,22.7c-1.7,1.3-2-27-1.3-29.4
		c0.6-2.4,25.3-60.8,27-64c1-1.8-0.9-39.6,3.2-46.5c2.5-4.2,5,39.1,5.6,36.6c1.5-5.6,13.2-40.5,11.9-46.9
		c-1.3-6.5-3.9-19.7-3.5-24.2c0.4-4.5,1.5-11.9,0-14.1c-1.5-2.2-4.2-1.4-4.2-1.4s-2.8,11-4.7,15.5c-1.9,4.5,2.4,20.8,2.6,23.4
		c0.2,2.6,3.2,17.3,2.6,19.3c-0.6,1.9-2,8.7-3.5,8.9c-1.5,0.2-2.4-2.8-2.4-6.3c0-3.5,3-9.7,0.9-14.3c-2.2-4.5-2.4-10.4-3.2-14.9
		c-0.9-4.5-2.6-10-2.6-10s-3.2,11.9-1.7,14.7c1.5,2.8,0.6,10,0.2,10.8c-0.4,0.9-8.4,22.1-8.9,24.2c-0.4,2.2-9.7,30.5-11,32.9
		c-1.3,2.4-4.5,14.5-8,18.2c-3.5,3.7-5.8,8.7-5.8,8.7s-1.7-6,0.4-10.2c2.2-4.1,5.8-11.9,8.2-17.7c2.4-5.8,3-10.4,2.2-10.8
		c-0.9-0.4-3.2-1.3-4.3-0.2c-1.1,1.1-3.2,9.3-4.5,11.9c-1.3,2.6-4.1,6.1-4.1,6.1s-1.3,3.2-1.7-1.3c-0.4-4.5-1.3-23.4-0.9-24.9
		c0.4-1.5-8.9-8-9.5-9.5c-0.7-1.5-6.5-21.9-7.8-23.8c-1.3-1.9-5.8-12.5-5.8-15.6c0-3,7.6-19.9,7.8-21.4c0.2-1.5-1.7-17.1-2-18.6
		c-0.2-1.5-0.2-7.1,0.2-12.3c0.4-5.2-2.8-9.1-4.3-14.7c-1.5-5.6-3.5-11.7-3.5-12.8C600.7,478.4,600.9,475.8,600.9,475.8z"/>
	<path opacity="0.16" fill="#6A6D71" d="M608.5,629c0,0-33.6,28.6-51.6,37c-17.9,8.3-50.4,22.7-54.9,26.4
		c-4.4,3.7-27.5,23.7-27.9,30.5c-0.4,6.8,0.7,11.6,5.2,6.1c4.4-5.5,26.8-29.2,28.5-31.8c1.7-2.6,13.9-9.4,17.9-11.3
		c4.1-1.8,37.6-15.2,41.9-18.1C592.3,651.3,608.5,629,608.5,629z"/>
	<path opacity="8.000000e-002" fill="#959A9E" d="M511.1,706.3c0,0-11,25.6-12.4,27.8c-1.4,2.2-8.3,9.9-8.3,9.9s5,9.4,4.4,14.6
		c-0.6,5.2-15.4,31.1-18.5,34.4c-3,3.3-7.7,13.2-6.9,13.8c0.8,0.5,4.4,1.1,6.1-1.9c1.7-3,7.4-9.1,9.9-11
		c2.5-1.9,14.9-11.8,16.3-15.1c1.4-3.3,7.4-18.2,7.4-20.7c0-2.5,1.7-24.5,1.7-30c0-5.5,1.7-12.4,1.7-14.6
		C512.4,711.2,511.1,706.3,511.1,706.3z"/>
	<path opacity="0.1" fill="#6A6D71" d="M647.9,862.1c0,0,12.7-7.4,14.3-9.1c1.7-1.6,11-17.1,20.1-19.3c9.1-2.2,22-4.1,26.4-3.9
		c4.4,0.3,8.5,0.3,8.5,0.3s-7.4-8.3-32.2-5c-24.8,3.3-22.8,14-25.3,17.1c-2.5,3-7.4,8.5-8.5,9.6
		C650.1,853.1,647.9,862.1,647.9,862.1z"/>
	<path opacity="0.1" fill="#6A6D71" d="M772.2,897.7c0,0-38.8-40.5-39.4-42.4c-0.6-1.9-2.2-11.3-1.4-11c0.8,0.3,20.4,18.5,21.5,19.6
		c1.1,1.1,14,10.7,16.2,12.7c2.2,1.9,3.6,8.3,4.1,11.3C773.8,890.8,772.2,897.7,772.2,897.7z"/>
	<path opacity="0.22" fill="#CFD4D8" d="M751.5,803.8c0,0-24-10.7-38-8.3c-14.1,2.5-33.3,9.4-36.1,12.9c-2.8,3.6-9.9,9.6-11,8.8
		c-1.1-0.8-0.6-9.9,2.2-12.7c2.8-2.8,22.9-20.9,29.2-23.1c6.3-2.2,28.1,0,32.5,1.9c4.4,1.9,17.6,8,19.8,10.5c2.2,2.5,8,6.9,7.4,8.5
		C757,804,751.5,803.8,751.5,803.8z"/>
	<path opacity="0.1" fill="#6A6D71" d="M751.2,851.9c0,0,15.7,16.5,17.6,16.3c1.9-0.3,2.5-3.6,0.5-5.2
		C767.5,861.3,751.2,851.9,751.2,851.9z"/>
	<path opacity="0.2" fill="#6A6D71" d="M660.9,877.3c0,0,14.9-3.6,25.9-0.6c11,3,26.4,6.3,30.6,7.4c4.1,1.1,11.6,5,11.6,5
		s-22.3-2.5-23.7-3.9c-1.4-1.4-15.7-5-18.7-5.2c-3-0.3-17.9-0.8-19-0.8C666.4,879.2,660.9,877.3,660.9,877.3z"/>
	<path opacity="0.12" fill="#6A6D71" d="M731.4,834.6c0,0,27.8,17.6,29.7,18.5c1.9,0.8,11.8,10.2,12.4,12.1
		c0.6,1.9,1.1,9.4,1.9,10.2c0.8,0.8,1.9,1.1,1.9,1.1s1.1-3.3-0.3-10.2c-1.4-6.9-2.5-12.7-1.1-18.2c1.4-5.5,1.9-11.8,1.9-11.8
		s-6.9,14-8.3,14.9c-1.4,0.8,1.4-8.5,1.4-13.5c0-5-0.8-11.3-0.8-11.3s-5.5,9.4-6.9,10.5c-1.4,1.1-5,1.4-5,1.4l0.3-5.2
		c0,0-5,4.1-6.1,4.1c-1.1,0-1.1-4.1-1.1-4.1s20.1-14.6,20.9-20.7c0.8-6.1,0.6-17.9-9.6-22c-10.2-4.1-16.8-9.1-16.8-9.1
		s21.2,16.5,22.3,20.4c1.1,3.9-2.2,17.4-7.2,19.8c-5,2.5-11,4.4-16.8,4.4c-5.8,0-12.4-2.5-14-0.3c-1.7,2.2-1.4,5-0.8,6.3
		C730,833.2,731.4,834.6,731.4,834.6z"/>
	<path opacity="0.22" fill="#CFD4D8" d="M717.9,893.8c0,0,5.8,6.3,6.6,8.3c0.8,1.9,2.2,4.7,3.6,5.2c1.4,0.6,2.8-1.1,2.8-2.2
		c0-1.1-1.4-4.4-2.2-5.2c-0.8-0.8-2.8-3-4.7-4.4c-1.9-1.4-4.1-2.2-4.1-2.2L717.9,893.8z"/>
	<path opacity="0.1" fill="#959A9E" d="M755.1,704.3c0,0-8.8,25.3-12.4,30.8c-3.6,5.5-12.4,11.8-14,14.6c-1.7,2.8-8.5,16,1.9,19.6
		c10.5,3.6,30,11.8,34.4,17.6c4.4,5.8,6.6,6.9,6.6,6.9s1.7-7.2,1.7-9.4c0-2.2-4.1-34.4-5.8-44.3c-1.7-9.9-6.9-31.4-6.9-33.9
		c0-2.5-3-11.6-3-12.4C757.6,693,755.1,704.3,755.1,704.3z"/>
	<path opacity="0.22" fill="#CFD4D8" d="M603.3,713.5c0,0,6.5,53.5,6.2,60.1c-0.3,6.6-2.1,24.2-5.2,33.6c-3.1,9.3-5.2,19-5.2,20.4
		c0,1.4,8.3-6.9,11.4-9.7c3.1-2.8,6.9-10.7,6.9-16.6c0-5.9,0.8-23.2,0.1-36.3c-0.7-13.2-3.1-31.8-4.1-33.7
		C612,728.3,603.3,713.5,603.3,713.5z"/>
	<path opacity="8.000000e-002" fill="#6A6D71" d="M357.2,696.8c0,0,20.8,38.8,20.8,41.5c0,2.8-0.7,33.6,0,38.8
		c0.7,5.2,1,13.8,0,14.2c-1,0.3,2.1,13.5,2.1,13.5s2.1-17.3,3.1-20.4c1-3.1-1-19.4,0-29.8c1-10.4,2.8-12.5,1-18.7
		c-1.7-6.2-9-15.2-13.5-23.9c-4.5-8.7-10.7-14.5-10.7-14.5L357.2,696.8z"/>
	<path opacity="8.000000e-002" fill="#6A6D71" d="M369.3,644.5c0,0-2.8,14.2-2.8,17c0,2.8,8.6,4.5,8.6,4.5s5.2,6.6,5.2,10
		c0,3.5-1,9,0.3,12.1c1.4,3.1,3.1,8.6,2.8,9.7c-0.4,1-4.8,5.9-5.2,6.9c-0.3,1-0.3,6.2-0.3,6.2s5.5-5.5,6.9-7.6
		c1.4-2.1,2.1-4.5,1.4-8.3c-0.7-3.8-2.4-10.7-2.4-12.1c0-1.4,1.4-9.4,0.7-10.4c-0.7-1-6.6-10-6.6-10l-5.2-7.3l-2.4-6.6L369.3,644.5z
		"/>
	<path opacity="8.000000e-002" fill="#6A6D71" d="M379.7,662.1c0,0,2.1-3.1,1.7-6.2c-0.3-3.1-0.4-4.2-1-6.9
		c-0.7-2.8,2.1-11.1,2.1-11.1s2.4-8.3,0-16.6c-2.4-8.3-1.7-16.6-0.7-20.4c1.1-3.8,1.4-7.3,2.8-9c1.4-1.7,5.9-10.7,5.9-12.8
		c0-2.1,3.8,9.7-0.7,14.9c-4.5,5.2-3.8,8.7-3.8,11.4c0,2.8,2.1,20.8,1.7,22.1c-0.3,1.4-0.7,8-1,10.4c-0.4,2.4-1.7,8.3-1.7,9.3
		c0,1-0.3,8-0.7,9C383.8,657.3,379.7,662.1,379.7,662.1z"/>
	<path opacity="8.000000e-002" fill="#959A9E" d="M454.8,598.8c0,0,12.5,22.5,11.8,27.7c-0.7,5.2-0.7,20.1,0,21.1
		c0.7,1,18.7-4.9,27.3,2.1c8.6,6.9,18,13.2,21.1,13.9c3.1,0.7,3.8,4.8,8.6,4.8c4.9,0,27.7-8.3,27.7-8.3s-5.9-0.7-14.2-3.1
		c-8.3-2.4-16.3-5.2-19.4-10.7c-3.1-5.5-6.9-12.8-8-14.2c-1-1.4-5.5-3.8-5.5-3.8s9.7,15.2,11.4,20.8c1.7,5.5,6.2,11.1,6.2,11.1
		s-6.6-3.8-15.2-8.7c-8.6-4.8-10-9.4-19.7-10c-9.7-0.7-6.6,2.4-8-12.5c-1.4-14.9-6.6-16.6-1.7-24.2c4.8-7.6,8.3-16.1,10-26.3
		c0.3-2.1-10.7,19.4-14.9,20.4c-4.2,1-15.2-9-15.9-12.1c-0.7-3.1-5.2-15.9-5.2-15.9s-0.3,19.4,0,21.8
		C451.7,595,454.8,598.8,454.8,598.8z"/>
	<path opacity="0.18" fill="#6A6D71" d="M313.6,688.7c0,0-28.7-21.5-35-22.7c-6.3-1.2-17.1,0-27.8-5.1
		c-10.8-5.1-25.4-14.4-32.9-18.8c-7.5-4.5-12.9-5.1-15-10.2c-2.1-5.1-3.6-8.4-3.6-8.4s-9.9,16.5-8.7,19.8c1.2,3.3,20.7,2.7,23.9,4.2
		c3.3,1.5,26,12.3,27.8,13.5c1.8,1.2,6,6,15.3,7.2c9.3,1.2,17,0,21.2,2.4C283.1,672.8,313.6,688.7,313.6,688.7z"/>
	<polygon opacity="0.5" fill="#CFD4D8" points="204.7,571.3 225.9,510 226.5,511.5 	"/>
	<path opacity="0.22" fill="#CFD4D8" d="M590.9,813.9c0,0-14.6,18.4-19.7,21.5c-5.1,3.1-8.7-0.3-9.2,4.4c-0.5,4.6,2.3,24.6,2.8,29.7
		c0.5,5.1,1.8,12.8,1.8,12.8s4.1-14.1,3.6-21c-0.5-6.9-2.8-12.8,0.8-18.2c3.6-5.4,8.7-6.9,13.8-16.4
		C589.9,817.2,590.9,813.9,590.9,813.9z"/>
	<path opacity="0.22" fill="#CFD4D8" d="M611.1,833.6c0,0-5.9,12.3-9,13.8c-3.1,1.5-17.4,4.9-17.4,4.9s6.7,4.6,12.8,4.1
		c6.1-0.5,9.7,0,11.8-4.6C611.4,847.2,611.1,833.6,611.1,833.6z"/>
	<path opacity="0.22" fill="#CFD4D8" d="M649.8,869.7c0,0,9-9.7,11.3-9.2c2.3,0.5,3.6,2,2,3.1c-1.5,1-7.9,5.9-9.2,7.9
		c-1.3,2-3.3,2.3-3.8,1.3C649.5,871.7,649.8,869.7,649.8,869.7z"/>
	<path opacity="0.22" fill="#CFD4D8" d="M680,816.2c0,0,26.9,1.3,31.7,3.6c4.9,2.3,10.3,4.6,10.3,4.6s12.3-5.1,23.3-5.1
		c11,0,15.6-1.8,15.1-2.6c-0.5-0.8-7.2-0.3-12.8,0c-5.6,0.3-18.4,2.3-20.2,3.1c-1.8,0.8-5.1,3.1-5.1,3.1s-16.6-7.7-24.3-7.7
		C690.2,815.1,680,816.2,680,816.2z"/>
	<path opacity="0.22" fill="#CFD4D8" d="M738.4,629c4.9,42.3,4.1,39.7,1.5,53.8c-2.4,13.4-10.5,37.1-10.5,37.1s12.5-16.9,13.8-27.1
		c1.3-10.2,6.4-27.1,1.8-46.1C743.3,639.7,738.4,629,738.4,629z"/>
	<path opacity="0.22" fill="#CFD4D8" d="M638,682.5c0,0,24.6-48.7,25.9-52.2c1.3-3.6,18.7-47.1,20-52.7c1.3-5.6,3.3-22,3.3-22
		s3.1,23.3-18.7,71.2C656,654.1,638,682.5,638,682.5z"/>
	<path opacity="0.2" fill="#CFD4D8" d="M534.1,378c0,0,32.2-1.4,37.9,3.7c5.6,5.1,16.1,9.5,18.2,9.6c2.1,0.2,15.8-0.9,18.2,6.7
		c2.5,7.5,4.7,24.4,1.4,33.7c-3.3,9.3-5.4,25.8-5.4,30.9c0,5.1,0.5,7.9-2.8,10.3c-3.3,2.5-5.9,6.6-5.9,8.4c0.1,1.8,0.5-4.2,5.2-5.4
		c4.7-1.2,6.5,0.2,6.6,3.7c0.2,3.5,4.9,23.1,4.9,23.1s3.7-4.2,4-8.9c0.3-4.7-2.6-23.3-1.8-28.2c0.9-4.9,6-27.5,6-35.9
		c0-8.4-0.2-18.8-0.2-20.2c0-1.4,1-8.4,1.8-7.4c0.7,1.1,13.3,22.3,13.1,30.9c-0.2,8.6-1.2,9.3,1.9,15.1c3.1,5.8,6.8,8.6,8.1,9.3
		c1.2,0.7,3.3-0.3,3.3-0.3s-5.3-8.2-6.5-13.3c-1.2-5.1-1.4-21-2.1-27.7c-0.7-6.7-4.2-21.2-9.5-26.3c-5.3-5.1-32.1-22.6-36.3-22.6
		c-4.2,0-29.8,0.2-39.3,2.5c-9.5,2.3-17.2,5.4-21,4.9c-3.9-0.5-25.1-2.1-25.1-2.1s6.3,4.9,13.7,5.8C530.1,378.9,534.1,378,534.1,378
		z"/>
	<path opacity="0.25" fill="#6A6D71" d="M647.3,415.3c0,0,4.3,11.4,5.8,14.9c1.6,3.6,3.7,10,3.7,10s1.8-3.1,0.9-5.8
		c-1-2.7-3.1-6.1-3.1-8.8c0-2.7-0.4-5.7-2.1-7.5C650.8,416.2,647.3,415.3,647.3,415.3z"/>
	<path opacity="0.25" fill="#6A6D71" d="M652.6,451.5c0,0-2.4-2.6-2.4-5.8c0-3.3,1.3-2.7-0.1-8.3c-1.4-5.6-0.3-4.6-0.3-4.6
		s3.1,4.3,3,6.3c-0.1,2,0.1,4.8-0.1,7.3C652.3,448.8,652.6,451.5,652.6,451.5z"/>
	<path opacity="0.25" fill="#959A9E" d="M323.8,330.7c0,0-3.3-13.5-5.6-19.4c-2.3-5.8-7.3-13.1-7.3-13.1l0.7-4.3c0,0,4.1,7.1,5,6.5
		c0.9-0.6,2.3-8.7,2.3-8.7s4.1,8.7,5.8,14.2c1.7,5.6,1.8,12.7,1.3,16.4C325.5,326.2,323.8,330.7,323.8,330.7z"/>
	<path opacity="0.1" fill="#CFD4D8" d="M258.6,655c0,0,16.7-1.9,20.9-8.7c4.2-6.8,6.8-15.6,9.5-13.7c2.7,1.9,36.4,23.2,41.8,25.1
		c5.3,1.9,18.6,2.7,19,4.9c0.4,2.3-13.7,10.3-17.1,9.9c-3.4-0.4-25.8-8.7-29.6-11.8c-3.8-3-12.1-8.7-14-10.2
		c-1.9-1.5-5.7-3.8-7.2-1.5c-1.5,2.3-6.5,7.2-12.9,7.2C262.4,656.1,258.6,655,258.6,655z"/>
	<path opacity="0.22" fill="#CFD4D8" d="M68.9,635.6c0,0-0.7-40.4,6.7-40.9c7.4-0.5,55,46.1,55,49.3c0,3.2-1.7,4.2-1.7,4.2
		s-22.1-23-27.3-26.8c-5.2-3.7-17.1-10.2-21.3-5.2C76.1,621.3,68.9,635.6,68.9,635.6z"/>
	<path opacity="0.22" fill="#CFD4D8" d="M57,630.4c0,0,18.6,19.3,20.3,20.3c1.7,1,8.2,2,8.4,5.2c0.2,3.2-3.7,6.7-5.4,4.7
		c-1.7-2-12.6-12.6-13.6-14.1c-1-1.5-6.4-8.4-7.9-9.9C57.2,635.1,57,630.4,57,630.4z"/>
	<path opacity="0.22" fill="#CFD4D8" d="M177.2,828c0,0-3-20.8-7.2-27.3c-4.2-6.4-8.2-12.6-14.6-19.3c-6.5-6.7-11.6-9.9-15.1-14.1
		c-3.5-4.2,0.5,4.2,0,12.1c-0.5,7.9,4,22.6,4,22.6s12.1,11.5,14.6,14.1C164.3,821.8,177.2,828,177.2,828z"/>
	<path opacity="0.22" fill="#CFD4D8" d="M147.7,742.2c0,0-32.2-26.3-60.5-23.8c-21,1.8-16.4,12.4-16.1,14.6c0.2,2.2,21.3,28,21.3,28
		s-26.5-35.3-6.9-37.2C112,721.4,147.7,742.2,147.7,742.2z"/>
	<path opacity="0.22" fill="#CFD4D8" d="M128.9,656.9c0,0,6.7,21.2,14.1,29.9c7.4,8.7,11.5,14.4,11.5,14.4s-14.5-5.6-20.5-18.2
		C128,670.3,128.9,656.9,128.9,656.9z"/>
	<path opacity="0.22" fill="#CFD4D8" d="M161.5,674c0,0,0.3,8,0.6,9.7c0.3,1.7,3.1,10.8,3.1,10.8s4-4,4-4.8c0-0.9-1.7-1.7-2-5.1
		c-0.3-3.4-2-5.4-2.3-6.3C164.6,677.4,161.5,674,161.5,674z"/>
	<path opacity="0.25" fill="#959A9E" d="M179.1,679.1c0,0-5.7-12.8-6-15.7c-0.3-2.8-7.4-26.8-11.7-37.3c-4.3-10.5-8-17.7-9.7-19.9
		c-1.7-2.3-2.8-11.4-5.7-17.9c-2.8-6.5-6.3-14-6.3-18.5c0-4.6-0.6-14.2-0.6-14.2s4.6,18.5,5.4,21.1c0.9,2.6,3.4,7.4,3.4,7.4l0.6-6.5
		c0,0,1.7,7.4,2,8.8c0.3,1.4,2.8,8.5,2.8,10.5c0,2,0.6,7.1,0.6,7.1s5.4,10.8,6.5,14.2c1.1,3.4,13.7,38.4,14,40.1
		c0.3,1.7,2.6,9.4,3.1,12C178.3,672.8,179.1,679.1,179.1,679.1z"/>
	<path opacity="0.25" fill="#959A9E" d="M158.7,457.4c0,0,7.7-13.2,8-17.9c0.4-4.8,2.6-19.4,2.6-19.4s2.6,14.6,1.5,18.3
		c-1.1,3.7-7.7,16.1-8,19.4C162.4,461.1,158.7,457.4,158.7,457.4z"/>
	<path opacity="0.25" fill="#959A9E" d="M170.1,482.3c0,0,6.6-13.2,6.6-16.8c0-3.7-0.7-12.4-0.7-12.4s-1.5,9.1-2.6,13.9
		c-1.1,4.8-3.3,11.7-3.3,11.7V482.3z"/>
	<g>
		<path fill="#CFD4D8" d="M654.6,973.1"/>
	</g>
	<path opacity="0.25" fill="#959A9E" d="M38.7,897.8c0,0,32.9-25.1,32.9-28.6c0-3.5-25.4,3.8-28.9,4.9c-3.5,1.1-10.3,4-10.3,4
		s25.4-5.7,25.4-4.6c0,1.1-5.7,5.4-7,7.3c-1.3,1.9-5.7,7-6.5,8.1C43.6,889.9,38.7,897.8,38.7,897.8z"/>
	<path opacity="0.22" fill="#CFD4D8" d="M21.2,869.7c0,0,3.8,5.7,7.5,5.4c3.8-0.3,40.2-11.1,42.3-11.1c2.2,0-32.9,5.9-36.7,6.5
		c-3.8,0.5-8.1,1.3-9.2,0.5C24.2,870.3,21.2,869.7,21.2,869.7z"/>
	<path opacity="0.22" fill="#CFD4D8" d="M77.2,799.2c0,0,17.5-11.5,22.6-9.7c5.2,1.8,21.4,14.7,21.4,14.7s-18.6-5.7-25.6-5.7
		C88.7,798.4,77.2,799.2,77.2,799.2z"/>
	<path opacity="0.22" fill="#CFD4D8" d="M301.5,340.8c0,0,23.1,21.9,26.2,24.8c3.1,2.8,14.8,12.5,19.4,18.8
		c4.6,6.3,17.9,17.9,17.9,17.9s-7.4-2-8.5-3.4c-1.1-1.4-10-8.5-11.7-12.2c-1.7-3.7-13.1-10.8-15.7-13.7
		c-2.6-2.8-16.2-15.1-21.9-19.6c-5.7-4.6-15.4-6.8-15.4-6.8l8.5-1.4L301.5,340.8z"/>
	<g>
		<path opacity="0.35" fill="#FFFFFF" stroke="#000000" stroke-width="1.0923" stroke-dasharray="0.957,1.7759" d="M222.8,882.2
			c15.2,39.9,340.4,28.1,357.2,0.4c7.2-11.9,5.8-62.8-3.6-90.5c-19.1-56.2-30.2-53.2-43.5-57c-13.3-3.7-122.6,6.4-135,1.3
			c-12.4-5.2-125.1-15.4-139.6,1C194.3,809.6,211.5,852.6,222.8,882.2z"/>
		
			<radialGradient id="SVGID_3_" cx="402.763" cy="1005.5828" r="166.2254" gradientTransform="matrix(0.7197 0 0 0.7197 111.6526 177.8749)" gradientUnits="userSpaceOnUse">
			<stop  offset="0" style="stop-color:#000000"/>
			<stop  offset="1" style="stop-color:#6A6D71"/>
		</radialGradient>
		<path opacity="8.000000e-002" fill="url(#SVGID_3_)" d="M233.8,891.7l-1-0.1c0,0,5.9,6.6,10.7,8.1c4.8,1.5,13,3.6,13.8,4.1
			c0.8,0.5,11.2,4.3,12.2,4.6c1,0.3,9.2,1,12.2,1.3c3.1,0.3,26.7,1.3,27.5,1.5c0.8,0.3,27,1.5,29,1.5s40.8,1.3,41.8,1.3
			c1,0,29.3,0.3,29.3,0.3s7.6-1,8.9-1c1.3,0,10.4,0,10.4,0l32.4-1.3c0,0,12,0.3,13,0.3c1,0,22.2-1.5,22.9-1.8
			c0.8-0.3,14.3-3.1,15-3.3c0.8-0.3,8.2-3.1,9.7-3.3c1.5-0.3,13.5-2.5,14.8-2.5c1.3,0,13.5-2.5,14.5-2.5c1,0,14.3-4.1,14.3-4.1
			l5-5.7C518.4,909.6,288.2,917.4,233.8,891.7z"/>
	</g>
	<g>
		<rect x="394.3" y="432.6" fill="#5E6167" width="6.9" height="87.7"/>
		<g>
			<g opacity="0.75">
				<g>
					<g>
						<g>
							<g>
								<g>
									
										<radialGradient id="SVGID_4_" cx="345.6518" cy="493.2818" r="2.5304" gradientTransform="matrix(1.3125 0 0 1.0683 -56.7021 -48.476)" gradientUnits="userSpaceOnUse">
										<stop  offset="0" style="stop-color:#CFD4D8"/>
										<stop  offset="1" style="stop-color:#6A6D71"/>
									</radialGradient>
									<path fill="url(#SVGID_4_)" stroke="#897F76" stroke-width="8.484707e-002" d="M399.4,478.4c0,0.5-0.5,0.9-1.1,0.9h-4.1
										c-0.6,0-1.1-0.4-1.1-0.9l0,0c0-0.5,0.5-0.9,1.1-0.9h4.1C398.9,477.5,399.4,477.9,399.4,478.4L399.4,478.4z"/>
								</g>
								
									<radialGradient id="SVGID_5_" cx="345.6518" cy="496.5417" r="2.5311" gradientTransform="matrix(1.3125 0 0 1.0683 -56.7021 -48.476)" gradientUnits="userSpaceOnUse">
									<stop  offset="0" style="stop-color:#CFD4D8"/>
									<stop  offset="1" style="stop-color:#6A6D71"/>
								</radialGradient>
								<path fill="url(#SVGID_5_)" stroke="#897F76" stroke-width="8.484707e-002" d="M399.4,481.9c0,0.5-0.5,0.9-1.1,0.9h-4.1
									c-0.6,0-1.1-0.4-1.1-0.9l0,0c0-0.5,0.5-0.9,1.1-0.9h4.1C398.9,481,399.4,481.4,399.4,481.9L399.4,481.9z"/>
								
									<radialGradient id="SVGID_6_" cx="-1406.5145" cy="494.9107" r="2.5305" gradientTransform="matrix(-1.3125 0 0 1.0683 -1447.4844 -48.476)" gradientUnits="userSpaceOnUse">
									<stop  offset="0" style="stop-color:#CFD4D8"/>
									<stop  offset="1" style="stop-color:#6A6D71"/>
								</radialGradient>
								<path fill="url(#SVGID_6_)" stroke="#897F76" stroke-width="8.484707e-002" d="M396.2,480.1c0,0.5,0.5,0.9,1.1,0.9h4.1
									c0.6,0,1.1-0.4,1.1-0.9l0,0c0-0.5-0.5-0.9-1.1-0.9h-4.1C396.7,479.3,396.2,479.7,396.2,480.1L396.2,480.1z"/>
								
									<radialGradient id="SVGID_7_" cx="-1406.5145" cy="498.1724" r="2.5307" gradientTransform="matrix(-1.3125 0 0 1.0683 -1447.4844 -48.476)" gradientUnits="userSpaceOnUse">
									<stop  offset="0" style="stop-color:#CFD4D8"/>
									<stop  offset="1" style="stop-color:#6A6D71"/>
								</radialGradient>
								<path fill="url(#SVGID_7_)" stroke="#897F76" stroke-width="8.484707e-002" d="M396.2,483.6c0,0.5,0.5,0.9,1.1,0.9h4.1
									c0.6,0,1.1-0.4,1.1-0.9l0,0c0-0.5-0.5-0.9-1.1-0.9h-4.1C396.7,482.7,396.2,483.1,396.2,483.6L396.2,483.6z"/>
							</g>
							<g>
								<g>
									
										<radialGradient id="SVGID_8_" cx="345.6518" cy="486.6848" r="2.5309" gradientTransform="matrix(1.3125 0 0 1.0683 -56.7021 -48.476)" gradientUnits="userSpaceOnUse">
										<stop  offset="0" style="stop-color:#CFD4D8"/>
										<stop  offset="1" style="stop-color:#6A6D71"/>
									</radialGradient>
									<path fill="url(#SVGID_8_)" stroke="#897F76" stroke-width="8.484707e-002" d="M399.4,471.3c0,0.5-0.5,0.9-1.1,0.9h-4.1
										c-0.6,0-1.1-0.4-1.1-0.9l0,0c0-0.5,0.5-0.9,1.1-0.9h4.1C398.9,470.5,399.4,470.9,399.4,471.3L399.4,471.3z"/>
								</g>
								
									<radialGradient id="SVGID_9_" cx="345.6518" cy="489.9442" r="2.5317" gradientTransform="matrix(1.3125 0 0 1.0683 -56.7021 -48.476)" gradientUnits="userSpaceOnUse">
									<stop  offset="0" style="stop-color:#CFD4D8"/>
									<stop  offset="1" style="stop-color:#6A6D71"/>
								</radialGradient>
								<path fill="url(#SVGID_9_)" stroke="#897F76" stroke-width="8.484707e-002" d="M399.4,474.8c0,0.5-0.5,0.9-1.1,0.9h-4.1
									c-0.6,0-1.1-0.4-1.1-0.9l0,0c0-0.5,0.5-0.9,1.1-0.9h4.1C398.9,474,399.4,474.3,399.4,474.8L399.4,474.8z"/>
								
									<radialGradient id="SVGID_10_" cx="-1406.5145" cy="488.3153" r="2.5301" gradientTransform="matrix(-1.3125 0 0 1.0683 -1447.4844 -48.476)" gradientUnits="userSpaceOnUse">
									<stop  offset="0" style="stop-color:#CFD4D8"/>
									<stop  offset="1" style="stop-color:#6A6D71"/>
								</radialGradient>
								<path fill="url(#SVGID_10_)" stroke="#897F76" stroke-width="8.484707e-002" d="M396.2,473.1c0,0.5,0.5,0.9,1.1,0.9h4.1
									c0.6,0,1.1-0.4,1.1-0.9l0,0c0-0.5-0.5-0.9-1.1-0.9h-4.1C396.7,472.2,396.2,472.6,396.2,473.1L396.2,473.1z"/>
								
									<radialGradient id="SVGID_11_" cx="-1406.5145" cy="491.5756" r="2.5305" gradientTransform="matrix(-1.3125 0 0 1.0683 -1447.4844 -48.476)" gradientUnits="userSpaceOnUse">
									<stop  offset="0" style="stop-color:#CFD4D8"/>
									<stop  offset="1" style="stop-color:#6A6D71"/>
								</radialGradient>
								<path fill="url(#SVGID_11_)" stroke="#897F76" stroke-width="8.484707e-002" d="M396.2,476.6c0,0.5,0.5,0.9,1.1,0.9h4.1
									c0.6,0,1.1-0.4,1.1-0.9l0,0c0-0.5-0.5-0.9-1.1-0.9h-4.1C396.7,475.7,396.2,476.1,396.2,476.6L396.2,476.6z"/>
							</g>
							<g>
								<g>
									
										<radialGradient id="SVGID_12_" cx="345.6518" cy="480.0875" r="2.5309" gradientTransform="matrix(1.3125 0 0 1.0683 -56.7021 -48.476)" gradientUnits="userSpaceOnUse">
										<stop  offset="0" style="stop-color:#CFD4D8"/>
										<stop  offset="1" style="stop-color:#6A6D71"/>
									</radialGradient>
									<path fill="url(#SVGID_12_)" stroke="#897F76" stroke-width="8.484707e-002" d="M399.4,464.3c0,0.5-0.5,0.9-1.1,0.9h-4.1
										c-0.6,0-1.1-0.4-1.1-0.9l0,0c0-0.5,0.5-0.9,1.1-0.9h4.1C398.9,463.4,399.4,463.8,399.4,464.3L399.4,464.3z"/>
								</g>
								
									<radialGradient id="SVGID_13_" cx="345.6518" cy="483.3474" r="2.5315" gradientTransform="matrix(1.3125 0 0 1.0683 -56.7021 -48.476)" gradientUnits="userSpaceOnUse">
									<stop  offset="0" style="stop-color:#CFD4D8"/>
									<stop  offset="1" style="stop-color:#6A6D71"/>
								</radialGradient>
								<path fill="url(#SVGID_13_)" stroke="#897F76" stroke-width="8.484707e-002" d="M399.4,467.8c0,0.5-0.5,0.9-1.1,0.9h-4.1
									c-0.6,0-1.1-0.4-1.1-0.9l0,0c0-0.5,0.5-0.9,1.1-0.9h4.1C398.9,466.9,399.4,467.3,399.4,467.8L399.4,467.8z"/>
								
									<radialGradient id="SVGID_14_" cx="-1406.5145" cy="481.7169" r="2.5311" gradientTransform="matrix(-1.3125 0 0 1.0683 -1447.4844 -48.476)" gradientUnits="userSpaceOnUse">
									<stop  offset="0" style="stop-color:#CFD4D8"/>
									<stop  offset="1" style="stop-color:#6A6D71"/>
								</radialGradient>
								<path fill="url(#SVGID_14_)" stroke="#897F76" stroke-width="8.484707e-002" d="M396.2,466c0,0.5,0.5,0.9,1.1,0.9h4.1
									c0.6,0,1.1-0.4,1.1-0.9l0,0c0-0.5-0.5-0.9-1.1-0.9h-4.1C396.7,465.2,396.2,465.6,396.2,466L396.2,466z"/>
								
									<radialGradient id="SVGID_15_" cx="-1406.5145" cy="484.9766" r="2.5309" gradientTransform="matrix(-1.3125 0 0 1.0683 -1447.4844 -48.476)" gradientUnits="userSpaceOnUse">
									<stop  offset="0" style="stop-color:#CFD4D8"/>
									<stop  offset="1" style="stop-color:#6A6D71"/>
								</radialGradient>
								<path fill="url(#SVGID_15_)" stroke="#897F76" stroke-width="8.484707e-002" d="M396.2,469.5c0,0.5,0.5,0.9,1.1,0.9h4.1
									c0.6,0,1.1-0.4,1.1-0.9l0,0c0-0.5-0.5-0.9-1.1-0.9h-4.1C396.7,468.6,396.2,469,396.2,469.5L396.2,469.5z"/>
							</g>
							<g>
								<g>
									
										<radialGradient id="SVGID_16_" cx="345.6518" cy="473.4884" r="2.5313" gradientTransform="matrix(1.3125 0 0 1.0683 -56.7021 -48.476)" gradientUnits="userSpaceOnUse">
										<stop  offset="0" style="stop-color:#CFD4D8"/>
										<stop  offset="1" style="stop-color:#6A6D71"/>
									</radialGradient>
									<path fill="url(#SVGID_16_)" stroke="#897F76" stroke-width="8.484707e-002" d="M399.4,457.2c0,0.5-0.5,0.9-1.1,0.9h-4.1
										c-0.6,0-1.1-0.4-1.1-0.9l0,0c0-0.5,0.5-0.9,1.1-0.9h4.1C398.9,456.4,399.4,456.8,399.4,457.2L399.4,457.2z"/>
								</g>
								
									<radialGradient id="SVGID_17_" cx="345.6518" cy="476.7482" r="2.5315" gradientTransform="matrix(1.3125 0 0 1.0683 -56.7021 -48.476)" gradientUnits="userSpaceOnUse">
									<stop  offset="0" style="stop-color:#CFD4D8"/>
									<stop  offset="1" style="stop-color:#6A6D71"/>
								</radialGradient>
								<path fill="url(#SVGID_17_)" stroke="#897F76" stroke-width="8.484707e-002" d="M399.4,460.7c0,0.5-0.5,0.9-1.1,0.9h-4.1
									c-0.6,0-1.1-0.4-1.1-0.9l0,0c0-0.5,0.5-0.9,1.1-0.9h4.1C398.9,459.9,399.4,460.2,399.4,460.7L399.4,460.7z"/>
								
									<radialGradient id="SVGID_18_" cx="-1406.5145" cy="475.1183" r="2.5299" gradientTransform="matrix(-1.3125 0 0 1.0683 -1447.4844 -48.476)" gradientUnits="userSpaceOnUse">
									<stop  offset="0" style="stop-color:#CFD4D8"/>
									<stop  offset="1" style="stop-color:#6A6D71"/>
								</radialGradient>
								<path fill="url(#SVGID_18_)" stroke="#897F76" stroke-width="8.484707e-002" d="M396.2,459c0,0.5,0.5,0.9,1.1,0.9h4.1
									c0.6,0,1.1-0.4,1.1-0.9l0,0c0-0.5-0.5-0.9-1.1-0.9h-4.1C396.7,458.1,396.2,458.5,396.2,459L396.2,459z"/>
								
									<radialGradient id="SVGID_19_" cx="-1406.5145" cy="478.3784" r="2.5299" gradientTransform="matrix(-1.3125 0 0 1.0683 -1447.4844 -48.476)" gradientUnits="userSpaceOnUse">
									<stop  offset="0" style="stop-color:#CFD4D8"/>
									<stop  offset="1" style="stop-color:#6A6D71"/>
								</radialGradient>
								<path fill="url(#SVGID_19_)" stroke="#897F76" stroke-width="8.484707e-002" d="M396.2,462.5c0,0.5,0.5,0.9,1.1,0.9h4.1
									c0.6,0,1.1-0.4,1.1-0.9l0,0c0-0.5-0.5-0.9-1.1-0.9h-4.1C396.7,461.6,396.2,462,396.2,462.5L396.2,462.5z"/>
							</g>
							<g>
								<g>
									
										<radialGradient id="SVGID_20_" cx="345.6518" cy="466.8905" r="2.5307" gradientTransform="matrix(1.3125 0 0 1.0683 -56.7021 -48.476)" gradientUnits="userSpaceOnUse">
										<stop  offset="0" style="stop-color:#CFD4D8"/>
										<stop  offset="1" style="stop-color:#6A6D71"/>
									</radialGradient>
									<path fill="url(#SVGID_20_)" stroke="#897F76" stroke-width="8.484707e-002" d="M399.4,450.2c0,0.5-0.5,0.9-1.1,0.9h-4.1
										c-0.6,0-1.1-0.4-1.1-0.9l0,0c0-0.5,0.5-0.9,1.1-0.9h4.1C398.9,449.3,399.4,449.7,399.4,450.2L399.4,450.2z"/>
								</g>
								
									<radialGradient id="SVGID_21_" cx="345.6518" cy="470.1527" r="2.5307" gradientTransform="matrix(1.3125 0 0 1.0683 -56.7021 -48.476)" gradientUnits="userSpaceOnUse">
									<stop  offset="0" style="stop-color:#CFD4D8"/>
									<stop  offset="1" style="stop-color:#6A6D71"/>
								</radialGradient>
								<path fill="url(#SVGID_21_)" stroke="#897F76" stroke-width="8.484707e-002" d="M399.4,453.7c0,0.5-0.5,0.9-1.1,0.9h-4.1
									c-0.6,0-1.1-0.4-1.1-0.9l0,0c0-0.5,0.5-0.9,1.1-0.9h4.1C398.9,452.8,399.4,453.2,399.4,453.7L399.4,453.7z"/>
								
									<radialGradient id="SVGID_22_" cx="-1406.5145" cy="468.5217" r="2.5301" gradientTransform="matrix(-1.3125 0 0 1.0683 -1447.4844 -48.476)" gradientUnits="userSpaceOnUse">
									<stop  offset="0" style="stop-color:#CFD4D8"/>
									<stop  offset="1" style="stop-color:#6A6D71"/>
								</radialGradient>
								<path fill="url(#SVGID_22_)" stroke="#897F76" stroke-width="8.484707e-002" d="M396.2,451.9c0,0.5,0.5,0.9,1.1,0.9h4.1
									c0.6,0,1.1-0.4,1.1-0.9l0,0c0-0.5-0.5-0.9-1.1-0.9h-4.1C396.7,451.1,396.2,451.5,396.2,451.9L396.2,451.9z"/>
								
									<radialGradient id="SVGID_23_" cx="-1406.5145" cy="471.7816" r="2.5311" gradientTransform="matrix(-1.3125 0 0 1.0683 -1447.4844 -48.476)" gradientUnits="userSpaceOnUse">
									<stop  offset="0" style="stop-color:#CFD4D8"/>
									<stop  offset="1" style="stop-color:#6A6D71"/>
								</radialGradient>
								<path fill="url(#SVGID_23_)" stroke="#897F76" stroke-width="8.484707e-002" d="M396.2,455.4c0,0.5,0.5,0.9,1.1,0.9h4.1
									c0.6,0,1.1-0.4,1.1-0.9l0,0c0-0.5-0.5-0.9-1.1-0.9h-4.1C396.7,454.5,396.2,454.9,396.2,455.4L396.2,455.4z"/>
							</g>
							<g>
								<g>
									
										<radialGradient id="SVGID_24_" cx="345.6518" cy="460.2954" r="2.5311" gradientTransform="matrix(1.3125 0 0 1.0683 -56.7021 -48.476)" gradientUnits="userSpaceOnUse">
										<stop  offset="0" style="stop-color:#CFD4D8"/>
										<stop  offset="1" style="stop-color:#6A6D71"/>
									</radialGradient>
									<path fill="url(#SVGID_24_)" stroke="#897F76" stroke-width="8.484707e-002" d="M399.4,443.1c0,0.5-0.5,0.9-1.1,0.9h-4.1
										c-0.6,0-1.1-0.4-1.1-0.9l0,0c0-0.5,0.5-0.9,1.1-0.9h4.1C398.9,442.3,399.4,442.7,399.4,443.1L399.4,443.1z"/>
								</g>
								
									<radialGradient id="SVGID_25_" cx="345.6518" cy="463.5552" r="2.5313" gradientTransform="matrix(1.3125 0 0 1.0683 -56.7021 -48.476)" gradientUnits="userSpaceOnUse">
									<stop  offset="0" style="stop-color:#CFD4D8"/>
									<stop  offset="1" style="stop-color:#6A6D71"/>
								</radialGradient>
								<path fill="url(#SVGID_25_)" stroke="#897F76" stroke-width="8.484707e-002" d="M399.4,446.6c0,0.5-0.5,0.9-1.1,0.9h-4.1
									c-0.6,0-1.1-0.4-1.1-0.9l0,0c0-0.5,0.5-0.9,1.1-0.9h4.1C398.9,445.8,399.4,446.1,399.4,446.6L399.4,446.6z"/>
								
									<radialGradient id="SVGID_26_" cx="-1406.5145" cy="461.9235" r="2.5305" gradientTransform="matrix(-1.3125 0 0 1.0683 -1447.4844 -48.476)" gradientUnits="userSpaceOnUse">
									<stop  offset="0" style="stop-color:#CFD4D8"/>
									<stop  offset="1" style="stop-color:#6A6D71"/>
								</radialGradient>
								<path fill="url(#SVGID_26_)" stroke="#897F76" stroke-width="8.484707e-002" d="M396.2,444.9c0,0.5,0.5,0.9,1.1,0.9h4.1
									c0.6,0,1.1-0.4,1.1-0.9l0,0c0-0.5-0.5-0.9-1.1-0.9h-4.1C396.7,444,396.2,444.4,396.2,444.9L396.2,444.9z"/>
								
									<radialGradient id="SVGID_27_" cx="-1406.5145" cy="465.1843" r="2.5308" gradientTransform="matrix(-1.3125 0 0 1.0683 -1447.4844 -48.476)" gradientUnits="userSpaceOnUse">
									<stop  offset="0" style="stop-color:#CFD4D8"/>
									<stop  offset="1" style="stop-color:#6A6D71"/>
								</radialGradient>
								<path fill="url(#SVGID_27_)" stroke="#897F76" stroke-width="8.484707e-002" d="M396.2,448.4c0,0.5,0.5,0.9,1.1,0.9h4.1
									c0.6,0,1.1-0.4,1.1-0.9l0,0c0-0.5-0.5-0.9-1.1-0.9h-4.1C396.7,447.5,396.2,447.9,396.2,448.4L396.2,448.4z"/>
							</g>
							<g>
								<g>
									
										<radialGradient id="SVGID_28_" cx="345.6518" cy="453.6979" r="2.5317" gradientTransform="matrix(1.3125 0 0 1.0683 -56.7021 -48.476)" gradientUnits="userSpaceOnUse">
										<stop  offset="0" style="stop-color:#CFD4D8"/>
										<stop  offset="1" style="stop-color:#6A6D71"/>
									</radialGradient>
									<path fill="url(#SVGID_28_)" stroke="#897F76" stroke-width="8.484707e-002" d="M399.4,436.1c0,0.5-0.5,0.9-1.1,0.9h-4.1
										c-0.6,0-1.1-0.4-1.1-0.9l0,0c0-0.5,0.5-0.9,1.1-0.9h4.1C398.9,435.2,399.4,435.6,399.4,436.1L399.4,436.1z"/>
								</g>
								
									<radialGradient id="SVGID_29_" cx="345.6518" cy="456.9563" r="2.5311" gradientTransform="matrix(1.3125 0 0 1.0683 -56.7021 -48.476)" gradientUnits="userSpaceOnUse">
									<stop  offset="0" style="stop-color:#CFD4D8"/>
									<stop  offset="1" style="stop-color:#6A6D71"/>
								</radialGradient>
								<path fill="url(#SVGID_29_)" stroke="#897F76" stroke-width="8.484707e-002" d="M399.4,439.6c0,0.5-0.5,0.9-1.1,0.9h-4.1
									c-0.6,0-1.1-0.4-1.1-0.9l0,0c0-0.5,0.5-0.9,1.1-0.9h4.1C398.9,438.7,399.4,439.1,399.4,439.6L399.4,439.6z"/>
								
									<radialGradient id="SVGID_30_" cx="-1406.5145" cy="455.3268" r="2.5303" gradientTransform="matrix(-1.3125 0 0 1.0683 -1447.4844 -48.476)" gradientUnits="userSpaceOnUse">
									<stop  offset="0" style="stop-color:#CFD4D8"/>
									<stop  offset="1" style="stop-color:#6A6D71"/>
								</radialGradient>
								<path fill="url(#SVGID_30_)" stroke="#897F76" stroke-width="8.484707e-002" d="M396.2,437.8c0,0.5,0.5,0.9,1.1,0.9h4.1
									c0.6,0,1.1-0.4,1.1-0.9l0,0c0-0.5-0.5-0.9-1.1-0.9h-4.1C396.7,437,396.2,437.4,396.2,437.8L396.2,437.8z"/>
								
									<radialGradient id="SVGID_31_" cx="-1406.5145" cy="458.5865" r="2.5305" gradientTransform="matrix(-1.3125 0 0 1.0683 -1447.4844 -48.476)" gradientUnits="userSpaceOnUse">
									<stop  offset="0" style="stop-color:#CFD4D8"/>
									<stop  offset="1" style="stop-color:#6A6D71"/>
								</radialGradient>
								<path fill="url(#SVGID_31_)" stroke="#897F76" stroke-width="8.484707e-002" d="M396.2,441.3c0,0.5,0.5,0.9,1.1,0.9h4.1
									c0.6,0,1.1-0.4,1.1-0.9l0,0c0-0.5-0.5-0.9-1.1-0.9h-4.1C396.7,440.5,396.2,440.8,396.2,441.3L396.2,441.3z"/>
							</g>
							<g>
								<g>
									
										<radialGradient id="SVGID_32_" cx="345.6518" cy="447.1001" r="2.5315" gradientTransform="matrix(1.3125 0 0 1.0683 -56.7021 -48.476)" gradientUnits="userSpaceOnUse">
										<stop  offset="0" style="stop-color:#CFD4D8"/>
										<stop  offset="1" style="stop-color:#6A6D71"/>
									</radialGradient>
									<path fill="url(#SVGID_32_)" stroke="#897F76" stroke-width="8.484707e-002" d="M399.4,429c0,0.5-0.5,0.9-1.1,0.9h-4.1
										c-0.6,0-1.1-0.4-1.1-0.9l0,0c0-0.5,0.5-0.9,1.1-0.9h4.1C398.9,428.2,399.4,428.6,399.4,429L399.4,429z"/>
								</g>
								
									<radialGradient id="SVGID_33_" cx="345.6518" cy="450.3593" r="2.5315" gradientTransform="matrix(1.3125 0 0 1.0683 -56.7021 -48.476)" gradientUnits="userSpaceOnUse">
									<stop  offset="0" style="stop-color:#CFD4D8"/>
									<stop  offset="1" style="stop-color:#6A6D71"/>
								</radialGradient>
								<path fill="url(#SVGID_33_)" stroke="#897F76" stroke-width="8.484707e-002" d="M399.4,432.5c0,0.5-0.5,0.9-1.1,0.9h-4.1
									c-0.6,0-1.1-0.4-1.1-0.9l0,0c0-0.5,0.5-0.9,1.1-0.9h4.1C398.9,431.7,399.4,432.1,399.4,432.5L399.4,432.5z"/>
								
									<radialGradient id="SVGID_34_" cx="-1406.5145" cy="448.7294" r="2.5299" gradientTransform="matrix(-1.3125 0 0 1.0683 -1447.4844 -48.476)" gradientUnits="userSpaceOnUse">
									<stop  offset="0" style="stop-color:#CFD4D8"/>
									<stop  offset="1" style="stop-color:#6A6D71"/>
								</radialGradient>
								<path fill="url(#SVGID_34_)" stroke="#897F76" stroke-width="8.484707e-002" d="M396.2,430.8c0,0.5,0.5,0.9,1.1,0.9h4.1
									c0.6,0,1.1-0.4,1.1-0.9l0,0c0-0.5-0.5-0.9-1.1-0.9h-4.1C396.7,429.9,396.2,430.3,396.2,430.8L396.2,430.8z"/>
								
									<radialGradient id="SVGID_35_" cx="-1406.5145" cy="451.9888" r="2.5307" gradientTransform="matrix(-1.3125 0 0 1.0683 -1447.4844 -48.476)" gradientUnits="userSpaceOnUse">
									<stop  offset="0" style="stop-color:#CFD4D8"/>
									<stop  offset="1" style="stop-color:#6A6D71"/>
								</radialGradient>
								<path fill="url(#SVGID_35_)" stroke="#897F76" stroke-width="8.484707e-002" d="M396.2,434.3c0,0.5,0.5,0.9,1.1,0.9h4.1
									c0.6,0,1.1-0.4,1.1-0.9l0,0c0-0.5-0.5-0.9-1.1-0.9h-4.1C396.7,433.4,396.2,433.8,396.2,434.3L396.2,434.3z"/>
							</g>
						</g>
						<g>
							<g>
								<g>
									
										<radialGradient id="SVGID_36_" cx="345.6518" cy="532.9019" r="2.5315" gradientTransform="matrix(1.3125 0 0 1.0683 -56.7021 -48.476)" gradientUnits="userSpaceOnUse">
										<stop  offset="0" style="stop-color:#CFD4D8"/>
										<stop  offset="1" style="stop-color:#6A6D71"/>
									</radialGradient>
									<path fill="url(#SVGID_36_)" stroke="#897F76" stroke-width="8.484707e-002" d="M399.4,520.7c0,0.5-0.5,0.9-1.1,0.9h-4.1
										c-0.6,0-1.1-0.4-1.1-0.9l0,0c0-0.5,0.5-0.9,1.1-0.9h4.1C398.9,519.8,399.4,520.2,399.4,520.7L399.4,520.7z"/>
								</g>
								
									<radialGradient id="SVGID_37_" cx="345.6518" cy="536.1611" r="2.5315" gradientTransform="matrix(1.3125 0 0 1.0683 -56.7021 -48.476)" gradientUnits="userSpaceOnUse">
									<stop  offset="0" style="stop-color:#CFD4D8"/>
									<stop  offset="1" style="stop-color:#6A6D71"/>
								</radialGradient>
								<path fill="url(#SVGID_37_)" stroke="#897F76" stroke-width="8.484707e-002" d="M399.4,524.2c0,0.5-0.5,0.9-1.1,0.9h-4.1
									c-0.6,0-1.1-0.4-1.1-0.9l0,0c0-0.5,0.5-0.9,1.1-0.9h4.1C398.9,523.3,399.4,523.7,399.4,524.2L399.4,524.2z"/>
								
									<radialGradient id="SVGID_38_" cx="-1406.5145" cy="534.5312" r="2.5314" gradientTransform="matrix(-1.3125 0 0 1.0683 -1447.4844 -48.476)" gradientUnits="userSpaceOnUse">
									<stop  offset="0" style="stop-color:#CFD4D8"/>
									<stop  offset="1" style="stop-color:#6A6D71"/>
								</radialGradient>
								<path fill="url(#SVGID_38_)" stroke="#897F76" stroke-width="8.484707e-002" d="M396.2,522.5c0,0.5,0.5,0.9,1.1,0.9h4.1
									c0.6,0,1.1-0.4,1.1-0.9l0,0c0-0.5-0.5-0.9-1.1-0.9h-4.1C396.7,521.6,396.2,522,396.2,522.5L396.2,522.5z"/>
								
									<radialGradient id="SVGID_39_" cx="-1406.5145" cy="537.7916" r="2.5307" gradientTransform="matrix(-1.3125 0 0 1.0683 -1447.4844 -48.476)" gradientUnits="userSpaceOnUse">
									<stop  offset="0" style="stop-color:#CFD4D8"/>
									<stop  offset="1" style="stop-color:#6A6D71"/>
								</radialGradient>
								<path fill="url(#SVGID_39_)" stroke="#897F76" stroke-width="8.484707e-002" d="M396.2,525.9c0,0.5,0.5,0.9,1.1,0.9h4.1
									c0.6,0,1.1-0.4,1.1-0.9l0,0c0-0.5-0.5-0.9-1.1-0.9h-4.1C396.7,525.1,396.2,525.5,396.2,525.9L396.2,525.9z"/>
							</g>
							<g>
								<g>
									
										<radialGradient id="SVGID_40_" cx="345.6518" cy="526.3033" r="2.5317" gradientTransform="matrix(1.3125 0 0 1.0683 -56.7021 -48.476)" gradientUnits="userSpaceOnUse">
										<stop  offset="0" style="stop-color:#CFD4D8"/>
										<stop  offset="1" style="stop-color:#6A6D71"/>
									</radialGradient>
									<path fill="url(#SVGID_40_)" stroke="#897F76" stroke-width="8.484707e-002" d="M399.4,513.7c0,0.5-0.5,0.9-1.1,0.9h-4.1
										c-0.6,0-1.1-0.4-1.1-0.9l0,0c0-0.5,0.5-0.9,1.1-0.9h4.1C398.9,512.8,399.4,513.2,399.4,513.7L399.4,513.7z"/>
								</g>
								
									<radialGradient id="SVGID_41_" cx="345.6518" cy="529.5629" r="2.5315" gradientTransform="matrix(1.3125 0 0 1.0683 -56.7021 -48.476)" gradientUnits="userSpaceOnUse">
									<stop  offset="0" style="stop-color:#CFD4D8"/>
									<stop  offset="1" style="stop-color:#6A6D71"/>
								</radialGradient>
								<path fill="url(#SVGID_41_)" stroke="#897F76" stroke-width="8.484707e-002" d="M399.4,517.1c0,0.5-0.5,0.9-1.1,0.9h-4.1
									c-0.6,0-1.1-0.4-1.1-0.9l0,0c0-0.5,0.5-0.9,1.1-0.9h4.1C398.9,516.3,399.4,516.7,399.4,517.1L399.4,517.1z"/>
								
									<radialGradient id="SVGID_42_" cx="-1406.5145" cy="527.9341" r="2.5303" gradientTransform="matrix(-1.3125 0 0 1.0683 -1447.4844 -48.476)" gradientUnits="userSpaceOnUse">
									<stop  offset="0" style="stop-color:#CFD4D8"/>
									<stop  offset="1" style="stop-color:#6A6D71"/>
								</radialGradient>
								<path fill="url(#SVGID_42_)" stroke="#897F76" stroke-width="8.484707e-002" d="M396.2,515.4c0,0.5,0.5,0.9,1.1,0.9h4.1
									c0.6,0,1.1-0.4,1.1-0.9l0,0c0-0.5-0.5-0.9-1.1-0.9h-4.1C396.7,514.5,396.2,514.9,396.2,515.4L396.2,515.4z"/>
								
									<radialGradient id="SVGID_43_" cx="-1406.5145" cy="531.1945" r="2.5308" gradientTransform="matrix(-1.3125 0 0 1.0683 -1447.4844 -48.476)" gradientUnits="userSpaceOnUse">
									<stop  offset="0" style="stop-color:#CFD4D8"/>
									<stop  offset="1" style="stop-color:#6A6D71"/>
								</radialGradient>
								<path fill="url(#SVGID_43_)" stroke="#897F76" stroke-width="8.484707e-002" d="M396.2,518.9c0,0.5,0.5,0.9,1.1,0.9h4.1
									c0.6,0,1.1-0.4,1.1-0.9l0,0c0-0.5-0.5-0.9-1.1-0.9h-4.1C396.7,518,396.2,518.4,396.2,518.9L396.2,518.9z"/>
							</g>
							<g>
								<g>
									
										<radialGradient id="SVGID_44_" cx="345.6518" cy="519.7065" r="2.5315" gradientTransform="matrix(1.3125 0 0 1.0683 -56.7021 -48.476)" gradientUnits="userSpaceOnUse">
										<stop  offset="0" style="stop-color:#CFD4D8"/>
										<stop  offset="1" style="stop-color:#6A6D71"/>
									</radialGradient>
									<path fill="url(#SVGID_44_)" stroke="#897F76" stroke-width="8.484707e-002" d="M399.4,506.6c0,0.5-0.5,0.9-1.1,0.9h-4.1
										c-0.6,0-1.1-0.4-1.1-0.9l0,0c0-0.5,0.5-0.9,1.1-0.9h4.1C398.9,505.7,399.4,506.1,399.4,506.6L399.4,506.6z"/>
								</g>
								
									<radialGradient id="SVGID_45_" cx="345.6518" cy="522.9678" r="2.5319" gradientTransform="matrix(1.3125 0 0 1.0683 -56.7021 -48.476)" gradientUnits="userSpaceOnUse">
									<stop  offset="0" style="stop-color:#CFD4D8"/>
									<stop  offset="1" style="stop-color:#6A6D71"/>
								</radialGradient>
								<path fill="url(#SVGID_45_)" stroke="#897F76" stroke-width="8.484707e-002" d="M399.4,510.1c0,0.5-0.5,0.9-1.1,0.9h-4.1
									c-0.6,0-1.1-0.4-1.1-0.9l0,0c0-0.5,0.5-0.9,1.1-0.9h4.1C398.9,509.2,399.4,509.6,399.4,510.1L399.4,510.1z"/>
								
									<radialGradient id="SVGID_46_" cx="-1406.5145" cy="521.3355" r="2.5306" gradientTransform="matrix(-1.3125 0 0 1.0683 -1447.4844 -48.476)" gradientUnits="userSpaceOnUse">
									<stop  offset="0" style="stop-color:#CFD4D8"/>
									<stop  offset="1" style="stop-color:#6A6D71"/>
								</radialGradient>
								<path fill="url(#SVGID_46_)" stroke="#897F76" stroke-width="8.484707e-002" d="M396.2,508.4c0,0.5,0.5,0.9,1.1,0.9h4.1
									c0.6,0,1.1-0.4,1.1-0.9l0,0c0-0.5-0.5-0.9-1.1-0.9h-4.1C396.7,507.5,396.2,507.9,396.2,508.4L396.2,508.4z"/>
								
									<radialGradient id="SVGID_47_" cx="-1406.5145" cy="524.5973" r="2.5307" gradientTransform="matrix(-1.3125 0 0 1.0683 -1447.4844 -48.476)" gradientUnits="userSpaceOnUse">
									<stop  offset="0" style="stop-color:#CFD4D8"/>
									<stop  offset="1" style="stop-color:#6A6D71"/>
								</radialGradient>
								<path fill="url(#SVGID_47_)" stroke="#897F76" stroke-width="8.484707e-002" d="M396.2,511.8c0,0.5,0.5,0.9,1.1,0.9h4.1
									c0.6,0,1.1-0.4,1.1-0.9l0,0c0-0.5-0.5-0.9-1.1-0.9h-4.1C396.7,511,396.2,511.4,396.2,511.8L396.2,511.8z"/>
							</g>
							<g>
								<g>
									
										<radialGradient id="SVGID_48_" cx="345.6518" cy="513.1088" r="2.5317" gradientTransform="matrix(1.3125 0 0 1.0683 -56.7021 -48.476)" gradientUnits="userSpaceOnUse">
										<stop  offset="0" style="stop-color:#CFD4D8"/>
										<stop  offset="1" style="stop-color:#6A6D71"/>
									</radialGradient>
									<path fill="url(#SVGID_48_)" stroke="#897F76" stroke-width="8.484707e-002" d="M399.4,499.6c0,0.5-0.5,0.9-1.1,0.9h-4.1
										c-0.6,0-1.1-0.4-1.1-0.9l0,0c0-0.5,0.5-0.9,1.1-0.9h4.1C398.9,498.7,399.4,499.1,399.4,499.6L399.4,499.6z"/>
								</g>
								
									<radialGradient id="SVGID_49_" cx="345.6518" cy="516.369" r="2.5317" gradientTransform="matrix(1.3125 0 0 1.0683 -56.7021 -48.476)" gradientUnits="userSpaceOnUse">
									<stop  offset="0" style="stop-color:#CFD4D8"/>
									<stop  offset="1" style="stop-color:#6A6D71"/>
								</radialGradient>
								<path fill="url(#SVGID_49_)" stroke="#897F76" stroke-width="8.484707e-002" d="M399.4,503.1c0,0.5-0.5,0.9-1.1,0.9h-4.1
									c-0.6,0-1.1-0.4-1.1-0.9l0,0c0-0.5,0.5-0.9,1.1-0.9h4.1C398.9,502.2,399.4,502.6,399.4,503.1L399.4,503.1z"/>
								
									<radialGradient id="SVGID_50_" cx="-1406.5145" cy="514.7391" r="2.5301" gradientTransform="matrix(-1.3125 0 0 1.0683 -1447.4844 -48.476)" gradientUnits="userSpaceOnUse">
									<stop  offset="0" style="stop-color:#CFD4D8"/>
									<stop  offset="1" style="stop-color:#6A6D71"/>
								</radialGradient>
								<path fill="url(#SVGID_50_)" stroke="#897F76" stroke-width="8.484707e-002" d="M396.2,501.3c0,0.5,0.5,0.9,1.1,0.9h4.1
									c0.6,0,1.1-0.4,1.1-0.9l0,0c0-0.5-0.5-0.9-1.1-0.9h-4.1C396.7,500.4,396.2,500.8,396.2,501.3L396.2,501.3z"/>
								
									<radialGradient id="SVGID_51_" cx="-1406.5145" cy="517.999" r="2.5307" gradientTransform="matrix(-1.3125 0 0 1.0683 -1447.4844 -48.476)" gradientUnits="userSpaceOnUse">
									<stop  offset="0" style="stop-color:#CFD4D8"/>
									<stop  offset="1" style="stop-color:#6A6D71"/>
								</radialGradient>
								<path fill="url(#SVGID_51_)" stroke="#897F76" stroke-width="8.484707e-002" d="M396.2,504.8c0,0.5,0.5,0.9,1.1,0.9h4.1
									c0.6,0,1.1-0.4,1.1-0.9l0,0c0-0.5-0.5-0.9-1.1-0.9h-4.1C396.7,503.9,396.2,504.3,396.2,504.8L396.2,504.8z"/>
							</g>
							<g>
								<g>
									
										<radialGradient id="SVGID_52_" cx="345.6518" cy="506.512" r="2.5315" gradientTransform="matrix(1.3125 0 0 1.0683 -56.7021 -48.476)" gradientUnits="userSpaceOnUse">
										<stop  offset="0" style="stop-color:#CFD4D8"/>
										<stop  offset="1" style="stop-color:#6A6D71"/>
									</radialGradient>
									<path fill="url(#SVGID_52_)" stroke="#897F76" stroke-width="8.484707e-002" d="M399.4,492.5c0,0.5-0.5,0.9-1.1,0.9h-4.1
										c-0.6,0-1.1-0.4-1.1-0.9l0,0c0-0.5,0.5-0.9,1.1-0.9h4.1C398.9,491.7,399.4,492,399.4,492.5L399.4,492.5z"/>
								</g>
								
									<radialGradient id="SVGID_53_" cx="345.6518" cy="509.7707" r="2.5313" gradientTransform="matrix(1.3125 0 0 1.0683 -56.7021 -48.476)" gradientUnits="userSpaceOnUse">
									<stop  offset="0" style="stop-color:#CFD4D8"/>
									<stop  offset="1" style="stop-color:#6A6D71"/>
								</radialGradient>
								<path fill="url(#SVGID_53_)" stroke="#897F76" stroke-width="8.484707e-002" d="M399.4,496c0,0.5-0.5,0.9-1.1,0.9h-4.1
									c-0.6,0-1.1-0.4-1.1-0.9l0,0c0-0.5,0.5-0.9,1.1-0.9h4.1C398.9,495.1,399.4,495.5,399.4,496L399.4,496z"/>
								
									<radialGradient id="SVGID_54_" cx="-1406.5145" cy="508.1426" r="2.5307" gradientTransform="matrix(-1.3125 0 0 1.0683 -1447.4844 -48.476)" gradientUnits="userSpaceOnUse">
									<stop  offset="0" style="stop-color:#CFD4D8"/>
									<stop  offset="1" style="stop-color:#6A6D71"/>
								</radialGradient>
								<path fill="url(#SVGID_54_)" stroke="#897F76" stroke-width="8.484707e-002" d="M396.2,494.3c0,0.5,0.5,0.9,1.1,0.9h4.1
									c0.6,0,1.1-0.4,1.1-0.9l0,0c0-0.5-0.5-0.9-1.1-0.9h-4.1C396.7,493.4,396.2,493.8,396.2,494.3L396.2,494.3z"/>
								
									<radialGradient id="SVGID_55_" cx="-1406.5145" cy="511.4008" r="2.5308" gradientTransform="matrix(-1.3125 0 0 1.0683 -1447.4844 -48.476)" gradientUnits="userSpaceOnUse">
									<stop  offset="0" style="stop-color:#CFD4D8"/>
									<stop  offset="1" style="stop-color:#6A6D71"/>
								</radialGradient>
								<path fill="url(#SVGID_55_)" stroke="#897F76" stroke-width="8.484707e-002" d="M396.2,497.7c0,0.5,0.5,0.9,1.1,0.9h4.1
									c0.6,0,1.1-0.4,1.1-0.9l0,0c0-0.5-0.5-0.9-1.1-0.9h-4.1C396.7,496.9,396.2,497.3,396.2,497.7L396.2,497.7z"/>
							</g>
							<g>
								<g>
									
										<radialGradient id="SVGID_56_" cx="345.6518" cy="499.9145" r="2.5317" gradientTransform="matrix(1.3125 0 0 1.0683 -56.7021 -48.476)" gradientUnits="userSpaceOnUse">
										<stop  offset="0" style="stop-color:#CFD4D8"/>
										<stop  offset="1" style="stop-color:#6A6D71"/>
									</radialGradient>
									<path fill="url(#SVGID_56_)" stroke="#897F76" stroke-width="8.484707e-002" d="M399.4,485.5c0,0.5-0.5,0.9-1.1,0.9h-4.1
										c-0.6,0-1.1-0.4-1.1-0.9l0,0c0-0.5,0.5-0.9,1.1-0.9h4.1C398.9,484.6,399.4,485,399.4,485.5L399.4,485.5z"/>
								</g>
								
									<radialGradient id="SVGID_57_" cx="345.6518" cy="503.1725" r="2.5317" gradientTransform="matrix(1.3125 0 0 1.0683 -56.7021 -48.476)" gradientUnits="userSpaceOnUse">
									<stop  offset="0" style="stop-color:#CFD4D8"/>
									<stop  offset="1" style="stop-color:#6A6D71"/>
								</radialGradient>
								<path fill="url(#SVGID_57_)" stroke="#897F76" stroke-width="8.484707e-002" d="M399.4,489c0,0.5-0.5,0.9-1.1,0.9h-4.1
									c-0.6,0-1.1-0.4-1.1-0.9l0,0c0-0.5,0.5-0.9,1.1-0.9h4.1C398.9,488.1,399.4,488.5,399.4,489L399.4,489z"/>
								
									<radialGradient id="SVGID_58_" cx="-1406.5145" cy="501.5433" r="2.5303" gradientTransform="matrix(-1.3125 0 0 1.0683 -1447.4844 -48.476)" gradientUnits="userSpaceOnUse">
									<stop  offset="0" style="stop-color:#CFD4D8"/>
									<stop  offset="1" style="stop-color:#6A6D71"/>
								</radialGradient>
								<path fill="url(#SVGID_58_)" stroke="#897F76" stroke-width="8.484707e-002" d="M396.2,487.2c0,0.5,0.5,0.9,1.1,0.9h4.1
									c0.6,0,1.1-0.4,1.1-0.9l0,0c0-0.5-0.5-0.9-1.1-0.9h-4.1C396.7,486.3,396.2,486.7,396.2,487.2L396.2,487.2z"/>
								
									<radialGradient id="SVGID_59_" cx="-1406.5145" cy="504.8032" r="2.5309" gradientTransform="matrix(-1.3125 0 0 1.0683 -1447.4844 -48.476)" gradientUnits="userSpaceOnUse">
									<stop  offset="0" style="stop-color:#CFD4D8"/>
									<stop  offset="1" style="stop-color:#6A6D71"/>
								</radialGradient>
								<path fill="url(#SVGID_59_)" stroke="#897F76" stroke-width="8.484707e-002" d="M396.2,490.7c0,0.5,0.5,0.9,1.1,0.9h4.1
									c0.6,0,1.1-0.4,1.1-0.9l0,0c0-0.5-0.5-0.9-1.1-0.9h-4.1C396.7,489.8,396.2,490.2,396.2,490.7L396.2,490.7z"/>
							</g>
						</g>
					</g>
				</g>
			</g>
			<g>
				<radialGradient id="SVGID_60_" cx="397.9801" cy="430.466" r="10.1253" gradientUnits="userSpaceOnUse">
					<stop  offset="0" style="stop-color:#6A6D71"/>
					<stop  offset="1" style="stop-color:#CFD4D8"/>
				</radialGradient>
				<path fill="url(#SVGID_60_)" stroke="#897F76" stroke-width="0.2474" d="M403.4,429.4c0-1.2-0.4-2.3-2.5-2.8
					c-0.2-0.2-1-0.3-2.7-0.3c-0.1,0-0.1,0-0.2,0c-0.1,0-0.1,0-0.2,0c-1.7,0-2.5,0.1-2.7,0.3c-2.1,0.5-2.5,1.7-2.5,2.8
					c0,1.6,1.9,5.2,1.9,5.2l3.3,1.8l0,0.2l0.2-0.1l0.2,0.1l0-0.2l3.3-1.8C401.5,434.6,403.4,431,403.4,429.4z"/>
				<radialGradient id="SVGID_61_" cx="397.922" cy="438.6907" r="9.7185" gradientUnits="userSpaceOnUse">
					<stop  offset="0" style="stop-color:#CFD4D8"/>
					<stop  offset="1" style="stop-color:#6A6D71"/>
				</radialGradient>
				<path fill="url(#SVGID_61_)" stroke="#897F76" stroke-width="0.2474" d="M401.4,431.6l-2.8,0v0l-0.7,0l-0.7,0l0,0l-2.8,0
					l-0.6,16.1c0,0,0.4,0.2,1.6,0.5c1,0.3,2.3,0.3,2.6,0.3c0.2,0,1.5,0,2.6-0.3c1.2-0.3,1.6-0.5,1.6-0.5L401.4,431.6z M400.9,446.3
					c0,0-2.1,0.4-2.9,0.4l-0.1-0.1l-0.1,0.1c-0.8,0-2.9-0.4-2.9-0.4v-3.2c0,0,0.8-0.4,2.8-0.4c0.1,0,0.1,0,0.2,0c0.1,0,0.1,0,0.2,0
					c2,0,2.8,0.4,2.8,0.4V446.3z"/>
				<path fill="#5E5654" d="M399.1,436.4c0,0.7-0.5,1.2-1.2,1.2l0,0c-0.7,0-1.2-0.5-1.2-1.2v-8.2c0-0.7,0.5-1.2,1.2-1.2l0,0
					c0.7,0,1.2,0.5,1.2,1.2V436.4z"/>
			</g>
			<g>
				
					<radialGradient id="SVGID_62_" cx="332.6503" cy="525.3721" r="10.9749" gradientTransform="matrix(1.4848 -9.845750e-004 2.082808e-003 1.4247 -99.5131 -222.8134)" gradientUnits="userSpaceOnUse">
					<stop  offset="4.114850e-002" style="stop-color:#6A6D71"/>
					<stop  offset="1" style="stop-color:#CFD4D8"/>
				</radialGradient>
				<rect x="393.1" y="516.7" fill="url(#SVGID_62_)" width="4.6" height="10.5"/>
				
					<radialGradient id="SVGID_63_" cx="335.8748" cy="525.3721" r="10.9721" gradientTransform="matrix(1.4848 -9.845750e-004 2.082808e-003 1.4247 -99.5131 -222.8102)" gradientUnits="userSpaceOnUse">
					<stop  offset="4.114850e-002" style="stop-color:#6A6D71"/>
					<stop  offset="1" style="stop-color:#CFD4D8"/>
				</radialGradient>
				<rect x="397.9" y="516.7" fill="url(#SVGID_63_)" width="4.6" height="10.5"/>
			</g>
		</g>
	</g>
	<g>
		
			<ellipse transform="matrix(0.9998 -2.036554e-002 2.036554e-002 0.9998 -19.7358 2.0036)" fill="#FFFFFF" cx="88.5" cy="970" rx="38" ry="23.9"/>
		
			<radialGradient id="SVGID_64_" cx="86.5052" cy="990.9792" r="162.4964" gradientTransform="matrix(0.9998 -2.036554e-002 2.036554e-002 0.9998 -19.7358 2.0036)" gradientUnits="userSpaceOnUse">
			<stop  offset="0" style="stop-color:#897F76"/>
			<stop  offset="7.544643e-002" style="stop-color:#685F58"/>
			<stop  offset="0.1883" style="stop-color:#433C37"/>
			<stop  offset="0.306" style="stop-color:#28221E"/>
			<stop  offset="0.4271" style="stop-color:#0E0804"/>
			<stop  offset="0.5527" style="stop-color:#000000"/>
			<stop  offset="0.6848" style="stop-color:#000000"/>
			<stop  offset="0.8274" style="stop-color:#000000"/>
			<stop  offset="1" style="stop-color:#000000"/>
		</radialGradient>
		<path opacity="0.35" fill="url(#SVGID_64_)" d="M126.5,969.2c0.3,13.2-16.5,24.3-37.5,24.7c-21,0.4-38.2-9.9-38.5-23.1
			c-0.3-13.2,16.5-24.3,37.5-24.7C109,945.6,126.2,956,126.5,969.2z"/>
	</g>
	<g>
		
			<ellipse transform="matrix(0.9883 0.1525 -0.1525 0.9883 150.5859 -95.5892)" fill="#FFFFFF" cx="698.5" cy="934" rx="38" ry="23.9"/>
		
			<radialGradient id="SVGID_65_" cx="696.5052" cy="954.9792" r="162.4964" gradientTransform="matrix(0.9883 0.1525 -0.1525 0.9883 150.5859 -95.5892)" gradientUnits="userSpaceOnUse">
			<stop  offset="0" style="stop-color:#897F76"/>
			<stop  offset="7.544643e-002" style="stop-color:#685F58"/>
			<stop  offset="0.1883" style="stop-color:#433C37"/>
			<stop  offset="0.306" style="stop-color:#28221E"/>
			<stop  offset="0.4271" style="stop-color:#0E0804"/>
			<stop  offset="0.5527" style="stop-color:#000000"/>
			<stop  offset="0.6848" style="stop-color:#000000"/>
			<stop  offset="0.8274" style="stop-color:#000000"/>
			<stop  offset="1" style="stop-color:#000000"/>
		</radialGradient>
		<path opacity="0.35" fill="url(#SVGID_65_)" d="M736,939.8c-2,13.1-20.4,21-41.2,17.8S659,941.2,661,928.2s20.4-21,41.2-17.8
			S738,926.7,736,939.8z"/>
	</g>
	<path opacity="0.2" fill="#6A6D71" d="M735.1,931.9c-3.4-16.9-59.8-36.2-73.5-7.1c-6.2,13.3,16.7,29.7,16.7,29.7
		s-21.7-10.5-28.6-21.3c-2.2-3.5-6.7-12.3-6.7-12.3s3.8,7.1,4.2,5.2c0.4-1.9,1.1-6.1-0.2-5.8c-1.3,0.2-4.8-0.9-4.8-0.9
		s6.7,0.9,7.6-0.6c0.9-1.5,0.2-3.7-1.1-4.3c-1.3-0.7-5-2.2-5-2.2s5.9,0.6,8.7-1.7c2.8-2.4,5.4-6.3,5-7.4c-0.4-1.1-8.2-7.1-9.5-12.5
		c-1.3-5.4,0.9-10.8,0.9-10.8s5.2,14.3,7.1,15.8c2,1.5,3,1.7,3,0.2c0-1.5-3.7-8.2-3.7-10.6c0-2.4,1.3-5,1.3-5s7.6,14.9,9.7,15.8
		c2.2,0.9,37.4,1.3,38.3,0.4c0.9-0.9,4.8-0.6,4.8-0.6s1.9,4.5,3.7,4.8c1.7,0.2,6.7,1.1,8.4,0.6c1.7-0.4,5.2-1.3,5.2-1.3
		s0.4,5.8,1.7,6.3c1.3,0.4,3.7,2.6,5,2.6c1.3,0,6.5,2.6,6.5,2.6s2.6,7.1,2.6,8.2c0,1.1,0.4,6.7,0.4,6.7s-3.9,1.7-4.5,2.8
		C737.7,930.1,738.3,947.6,735.1,931.9z"/>
	<g>
		<path fill="#0057A4" d="M748.4,912.4l-8.5-4.5c-2.8-1.5-6.3-0.4-7.8,2.4c-1.5,2.8-0.4,6.3,2.4,7.8l8.5,4.5
			c2.8,1.5,6.3,0.4,7.8-2.4C752.3,917.4,751.2,913.9,748.4,912.4z M743.3,922.1l-8.5-4.5c-2.5-1.3-3.4-4.4-2.1-6.9
			c1.3-2.5,4.4-3.4,6.9-2.1l8.5,4.5c2.5,1.3,3.4,4.4,2.1,6.9C748.9,922.4,745.8,923.4,743.3,922.1z"/>
		<path fill="#0057A4" d="M747.9,913.3l-8.5-4.5c-2.3-1.2-5.2-0.4-6.5,2c-1.2,2.3-0.4,5.2,2,6.5l8.5,4.5c2.3,1.2,5.2,0.3,6.5-2
			C751.1,917.5,750.3,914.6,747.9,913.3z M735.5,916.2c-1.6-1-2.2-3.1-1.3-4.8c0.9-1.7,2.9-2.4,4.7-1.6L735.5,916.2z M738.8,917.9
			l-2.8-1.5l4.2-1.3L738.8,917.9z M740.7,914.3l-1.3-4.2l2.8,1.5L740.7,914.3z M741.7,919.5l-2.3-1.2l3.4-6.4l2.3,1.2L741.7,919.5z
			 M742.2,919.8l1.5-2.8l1.3,4.2L742.2,919.8z M744.2,916.2l1.5-2.8l2.8,1.5L744.2,916.2z"/>
		<path fill="#FFFFFF" d="M748.1,913l-8.5-4.5c-2.5-1.3-5.6-0.4-6.9,2.1c-1.3,2.5-0.4,5.6,2.1,6.9l8.5,4.5c2.5,1.3,5.6,0.4,6.9-2.1
			C751.5,917.5,750.6,914.4,748.1,913z M749.9,919.8c-1.2,2.3-4.1,3.2-6.5,2l-8.5-4.5c-2.3-1.2-3.2-4.1-2-6.5c1.2-2.3,4.1-3.2,6.5-2
			l8.5,4.5C750.3,914.6,751.1,917.5,749.9,919.8z"/>
		<path fill="#FFFFFF" d="M734.2,911.4c-0.9,1.7-0.3,3.8,1.3,4.8l3.4-6.4C737.1,909.1,735.1,909.7,734.2,911.4z"/>
		<polygon fill="#FFFFFF" points="740.7,914.3 742.2,911.6 739.4,910.1 		"/>
		<polygon fill="#FFFFFF" points="738.8,917.9 740.2,915.2 736,916.5 		"/>
		<polygon fill="#BF2A43" points="744.2,916.2 748.4,914.9 745.6,913.4 		"/>
		<polygon fill="#BF2A43" points="742.2,919.8 745,921.3 743.7,917 		"/>
		
			<rect x="740.9" y="912.1" transform="matrix(-0.8834 -0.4686 0.4686 -0.8834 968.8257 2072.3882)" fill="#BF2A43" width="2.6" height="7.2"/>
	</g>
</g>
<g id="BOX_BODY">
	<g>
		<g>
			<g>
				<g>
					<polyline fill="none" stroke="#000000" stroke-width="1.0471" points="374.5,597.4 374.5,598.4 373.4,598.4 					"/>
					
						<line fill="none" stroke="#000000" stroke-width="1.0471" stroke-dasharray="2.0916,2.0916" x1="371.3" y1="598.4" x2="221.8" y2="598.4"/>
					<polyline fill="none" stroke="#000000" stroke-width="1.0471" points="220.8,598.4 219.7,598.4 219.7,597.4 					"/>
					
						<line fill="none" stroke="#000000" stroke-width="1.0471" stroke-dasharray="2.0916,2.0916" x1="219.7" y1="595.3" x2="219.7" y2="445.7"/>
					<polyline fill="none" stroke="#000000" stroke-width="1.0471" points="219.7,444.7 219.7,443.6 220.8,443.6 					"/>
					
						<line fill="none" stroke="#000000" stroke-width="1.0471" stroke-dasharray="2.0916,2.0916" x1="222.8" y1="443.6" x2="372.4" y2="443.6"/>
					<polyline fill="none" stroke="#000000" stroke-width="1.0471" points="373.4,443.6 374.5,443.6 374.5,444.7 					"/>
					
						<line fill="none" stroke="#000000" stroke-width="1.0471" stroke-dasharray="2.0916,2.0916" x1="374.5" y1="446.8" x2="374.5" y2="596.3"/>
				</g>
			</g>
			<g>
				<g>
					<polyline fill="none" stroke="#000000" stroke-width="1.0471" points="576.3,597.4 576.3,598.4 575.3,598.4 					"/>
					
						<line fill="none" stroke="#000000" stroke-width="1.0471" stroke-dasharray="2.0916,2.0916" x1="573.2" y1="598.4" x2="423.7" y2="598.4"/>
					<polyline fill="none" stroke="#000000" stroke-width="1.0471" points="422.6,598.4 421.6,598.4 421.6,597.4 					"/>
					
						<line fill="none" stroke="#000000" stroke-width="1.0471" stroke-dasharray="2.0916,2.0916" x1="421.6" y1="595.3" x2="421.6" y2="445.7"/>
					<polyline fill="none" stroke="#000000" stroke-width="1.0471" points="421.6,444.7 421.6,443.6 422.6,443.6 					"/>
					
						<line fill="none" stroke="#000000" stroke-width="1.0471" stroke-dasharray="2.0916,2.0916" x1="424.7" y1="443.6" x2="574.2" y2="443.6"/>
					<polyline fill="none" stroke="#000000" stroke-width="1.0471" points="575.3,443.6 576.3,443.6 576.3,444.7 					"/>
					
						<line fill="none" stroke="#000000" stroke-width="1.0471" stroke-dasharray="2.0916,2.0916" x1="576.3" y1="446.8" x2="576.3" y2="596.3"/>
				</g>
			</g>
		</g>
		
			<rect x="210.9" y="469.1" fill="none" stroke="#000000" stroke-width="1.0471" stroke-dasharray="2.0941,2.0941" width="374.2" height="113.8"/>
	</g>
</g>
<g id="CUSTOM">
</g>
</svg>
