<?xml version="1.0" encoding="utf-8"?>
<!-- Generator: Adobe Illustrator 16.0.0, SVG Export Plug-In . SVG Version: 6.00 Build 0)  -->
<!DOCTYPE svg PUBLIC "-//W3C//DTD SVG 1.1//EN" "http://www.w3.org/Graphics/SVG/1.1/DTD/svg11.dtd">
<svg version="1.1" id="Layer_1" xmlns="http://www.w3.org/2000/svg" xmlns:xlink="http://www.w3.org/1999/xlink" x="0px" y="0px"
	 width="800.453px" height="1035.881px" viewBox="0 0 620 1035.881" enable-background="new 0 0 800.453 1035.881"
	 xml:space="preserve">
<g>
	<defs>
		<rect id="SVGID_1_" x="14" y="54.881" width="731" height="946"/>
	</defs>
	<clipPath id="SVGID_2_">
		<use xlink:href="#SVGID_1_"  overflow="visible"/>
	</clipPath>
	<g clip-path="url(#SVGID_2_)">
		<defs>
			<rect id="SVGID_3_" x="14" y="54.881" width="731" height="946"/>
		</defs>
		<clipPath id="SVGID_4_">
			<use xlink:href="#SVGID_3_"  overflow="visible"/>
		</clipPath>
		<path clip-path="url(#SVGID_4_)" fill="#152048" d="M178.985,376.924v12.71c2.177,4.854,5.415,13.195,6.074,21.111
			c1.013,12.146,3.036,56.684,11.135,72.881c8.098,16.196,23.281,112.358,25.305,121.469s-5.061,43.526-5.061,51.625
			c0,8.098-19.233,67.819-20.244,84.015c-1.012,16.198-5.062,38.466-5.062,54.66c0,16.197-7.087,40.49-7.087,40.49
			s6.075,12.148,14.172,27.332c8.097,15.185,22.27,39.477,27.33,52.636c5.063,13.159,25.307,43.525,66.809,57.698
			c5.344,1.825,11.907,3.277,19.271,4.43l-0.039,1.643c0,0,20.677,1.463,47.633,2.058c6.928,0.181,13.886,0.252,20.693,0.245
			c6.809,0.007,13.766-0.064,20.691-0.245c26.958-0.595,47.635-2.058,47.635-2.058l-0.039-1.643
			c7.363-1.152,13.925-2.604,19.271-4.43c41.502-14.173,61.747-44.539,66.807-57.698c5.063-13.159,19.232-37.451,27.33-52.636
			c8.1-15.184,14.172-27.332,14.172-27.332s-7.084-24.293-7.084-40.49c0-16.194-4.051-38.462-5.063-54.66
			c-1.012-16.195-20.244-75.917-20.244-84.015c0-8.099-7.086-42.515-5.061-51.625c2.023-9.11,17.205-105.273,25.305-121.469
			c8.098-16.197,10.123-60.735,11.135-72.881c0.701-8.411,4.313-17.302,6.469-21.978c0.486-3.17,0.994-6.524,1.504-9.937
			c-58.623,15.494-126.286,24.346-198.359,24.346C309.408,403.176,239.206,393.598,178.985,376.924"/>
	</g>
	<g clip-path="url(#SVGID_2_)">
		<defs>
			<rect id="SVGID_5_" x="14" y="54.881" width="731" height="946"/>
		</defs>
		<clipPath id="SVGID_6_">
			<use xlink:href="#SVGID_5_"  overflow="visible"/>
		</clipPath>
		<path clip-path="url(#SVGID_6_)" fill="#FDBB2D" d="M607.162,234.614c4.232-12.698,4.494-27.921,4.014-38.124
			c-11.262-3.951-61.109-23.532-76.895-33.744c-17.207-11.136-39.477-28.343-45.551-33.405c-5.237-4.364-10.471-13.23-15.059-16.892
			c-21.492-2.727-64.558-7.796-90.42-8.176c-27.605-0.406-77.625,6.406-98.521,9.457c-4.232,4.154-8.931,11.695-13.631,15.612
			c-6.073,5.062-28.343,22.269-45.551,33.405c-17.208,11.133-74.906,33.402-78.955,34.415c-0.5,0.125-1.514,0.718-2.937,1.715
			c1.529,30.664,15.507,84.671,20.144,110.644c5.063,28.341,15.184,49.599,15.184,61.747v5.657
			c60.222,16.674,130.422,26.251,205.401,26.251c72.073,0,139.736-8.852,198.359-24.346c0.73-4.865,1.467-9.857,2.15-14.647
			C587.93,342.924,600.078,255.871,607.162,234.614"/>
	</g>
	<g clip-path="url(#SVGID_2_)">
		<defs>
			<rect id="SVGID_7_" x="14" y="54.881" width="731" height="946"/>
		</defs>
		<clipPath id="SVGID_8_">
			<use xlink:href="#SVGID_7_"  overflow="visible"/>
		</clipPath>
		<path clip-path="url(#SVGID_8_)" fill="#152048" d="M163.801,309.521c-4.637-25.973-18.616-79.98-20.144-110.644
			c-10.081,7.073-40.817,34.68-56.786,63.068C68.651,294.337,72.7,381.389,72.7,385.438s-1.013,17.208-1.013,17.208l-3.037,6.074
			c0,0,34.417,9.111,63.771,9.111c29.355,0,45.551-5.063,45.551-5.063l-1.012-27.33c0,0,0.861,1.6,2.024,4.196v-18.367
			C178.985,359.12,168.862,337.863,163.801,309.521"/>
		<path clip-path="url(#SVGID_8_)" fill="#152048" d="M688.143,402.646c0,0-1.012-13.16-1.012-17.208
			c0-4.048,4.047-91.101-14.172-123.492c-18.219-32.392-55.674-63.771-59.723-64.785c-0.334-0.083-1.043-0.314-2.061-0.671
			c0.48,10.203,0.219,25.426-4.014,38.125c-7.086,21.257-19.232,108.31-22.268,129.567c-1.166,8.152-2.479,16.897-3.654,24.585
			c0.957-2.079,1.629-3.329,1.629-3.329l-1.012,27.332c0,0,16.195,5.061,45.551,5.061s63.77-9.11,63.77-9.11L688.143,402.646z"/>
	</g>
	<g clip-path="url(#SVGID_2_)">
		<defs>
			<rect id="SVGID_9_" x="14" y="54.881" width="731" height="946"/>
		</defs>
		<clipPath id="SVGID_10_">
			<use xlink:href="#SVGID_9_"  overflow="visible"/>
		</clipPath>
		<path clip-path="url(#SVGID_10_)" fill="#152048" d="M383.251,104.273c25.862,0.38,68.928,5.449,90.42,8.176
			c-0.734-0.585-1.451-1.049-2.148-1.329c-5.062-2.024-12.146-6.074-12.146-6.074l-7.086-13.159c0,0-29.355-11.133-53.648-11.133
			h-37.453c-24.295,0-53.65,11.133-53.65,11.133l-7.084,13.159c0,0-7.086,4.05-12.147,6.074c-1.144,0.458-2.341,1.397-3.577,2.609
			C305.626,110.679,355.646,103.867,383.251,104.273"/>
	</g>
	<g clip-path="url(#SVGID_2_)">
		<defs>
			<rect id="SVGID_11_" x="14" y="54.881" width="731" height="946"/>
		</defs>
		<clipPath id="SVGID_12_">
			<use xlink:href="#SVGID_11_"  overflow="visible"/>
		</clipPath>
		<g opacity="0.35" clip-path="url(#SVGID_12_)">
			<g>
				<defs>
					<rect id="SVGID_13_" x="71.553" y="97.674" width="616.729" height="877.977"/>
				</defs>
				<clipPath id="SVGID_14_">
					<use xlink:href="#SVGID_13_"  overflow="visible"/>
				</clipPath>
				<path clip-path="url(#SVGID_14_)" fill="none" stroke="#EE4D9B" stroke-miterlimit="10" stroke-dasharray="0.859,0.5" d="
					M186.071,831.836c0,0,52.636,100.213,98.189,119.444c45.55,19.233,130.578,18.221,164.994,9.11s67.821-36.44,78.956-52.636
					c11.135-16.196,47.574-76.931,47.574-76.931"/>
				<path clip-path="url(#SVGID_14_)" fill="none" stroke="#EE4D9B" stroke-miterlimit="10" stroke-dasharray="0.859,0.5" d="
					M186.071,840.204c0,0,52.636,100.212,98.189,119.445c45.55,19.232,130.578,18.219,164.994,9.109s67.821-36.44,78.956-52.637
					c11.135-16.195,47.574-76.93,47.574-76.93"/>
				<path clip-path="url(#SVGID_14_)" fill="none" stroke="#EE4D9B" stroke-miterlimit="10" stroke-dasharray="0.859,0.5" d="
					M71.662,397.673c0,0,27.522,5.16,55.904,5.16c28.381,0,50.17-2.293,50.17-2.293"/>
				<path clip-path="url(#SVGID_14_)" fill="none" stroke="#EE4D9B" stroke-miterlimit="10" stroke-dasharray="0.859,0.5" d="
					M71.662,392.893c0,0,27.522,5.159,55.904,5.159c28.381,0,50.17-2.293,50.17-2.293"/>
				<path clip-path="url(#SVGID_14_)" fill="none" stroke="#EE4D9B" stroke-miterlimit="10" stroke-dasharray="0.859,0.5" d="
					M688.172,397.673c0,0-27.52,5.16-55.902,5.16c-28.381,0-50.172-2.293-50.172-2.293"/>
				<path clip-path="url(#SVGID_14_)" fill="none" stroke="#EE4D9B" stroke-miterlimit="10" stroke-dasharray="0.859,0.5" d="
					M688.172,392.893c0,0-27.52,5.159-55.902,5.159c-28.381,0-50.172-2.293-50.172-2.293"/>
				<path clip-path="url(#SVGID_14_)" fill="none" stroke="#EE4D9B" stroke-miterlimit="10" stroke-dasharray="0.859,0.5" d="
					M300.228,105.606c0,0,47.517-7.833,83.023-7.31c35.508,0.522,76.236,6.788,76.236,6.788"/>
				<path clip-path="url(#SVGID_14_)" fill="none" stroke="#EE4D9B" stroke-miterlimit="10" stroke-dasharray="0.859,0.5" d="
					M283.677,114.45c0,0,64.067-10.699,99.574-10.177c35.508,0.522,91.146,8.219,91.146,8.219"/>
				<path clip-path="url(#SVGID_14_)" fill="none" stroke="#EE4D9B" stroke-miterlimit="10" stroke-dasharray="0.859,0.5" d="
					M178.724,389.368c0,0,0.261-5.954,0.261-18.1c0-12.147-10.121-33.406-15.184-61.747c-5.06-28.343-20.944-81.747-19.933-110.09"
					/>
				<path clip-path="url(#SVGID_14_)" fill="none" stroke="#EE4D9B" stroke-miterlimit="10" stroke-dasharray="0.859,0.5" d="
					M611.176,196.489c0,0,3.074,16.868-4.014,38.125c-7.084,21.258-19.232,108.31-22.268,129.567
					c-3.037,21.256-7.086,46.563-7.086,46.563"/>
			</g>
		</g>
	</g>
	<g clip-path="url(#SVGID_2_)">
		<defs>
			<rect id="SVGID_15_" x="14" y="54.881" width="731" height="946"/>
		</defs>
		<clipPath id="SVGID_16_">
			<use xlink:href="#SVGID_15_"  overflow="visible"/>
		</clipPath>
		<path clip-path="url(#SVGID_16_)" d="M393.369,120.636c5.887,0,10.654,5.106,10.654,11.399c0,6.297-4.768,11.402-10.654,11.402
			h-20.664c-5.881,0-10.654-5.105-10.654-11.402c0-6.293,4.773-11.399,10.654-11.399H393.369"/>
		<path clip-path="url(#SVGID_16_)" fill="none" stroke="#000000" stroke-width="6.078" d="M393.369,120.636
			c5.887,0,10.654,5.106,10.654,11.399c0,6.297-4.768,11.402-10.654,11.402h-20.664c-5.881,0-10.654-5.105-10.654-11.402
			c0-6.293,4.773-11.399,10.654-11.399H393.369"/>
		<path clip-path="url(#SVGID_16_)" d="M392.573,122.461c5.349,0,9.679,4.285,9.679,9.574c0,5.292-4.33,9.578-9.682,9.578H373.8
			c-5.34,0-9.674-4.286-9.674-9.578c0-5.289,4.334-9.574,9.674-9.574H392.573"/>
		<path clip-path="url(#SVGID_16_)" fill="none" stroke="#FFFFFF" stroke-width="0.658" d="M392.573,122.461
			c5.349,0,9.679,4.285,9.679,9.574c0,5.292-4.33,9.578-9.682,9.578H373.8c-5.34,0-9.674-4.286-9.674-9.578
			c0-5.289,4.334-9.574,9.674-9.574H392.573"/>
		<path clip-path="url(#SVGID_16_)" fill="#FFFFFF" d="M366.658,131.977c0-3.991,2.959-7.261,6.705-7.524V139.5
			C369.617,139.237,366.658,135.964,366.658,131.977"/>
		<polygon clip-path="url(#SVGID_16_)" fill="#FFFFFF" points="380.8,130.989 374.547,124.434 380.8,124.434 		"/>
		<polygon clip-path="url(#SVGID_16_)" fill="#FFFFFF" points="380.8,132.961 374.547,139.52 380.8,139.52 		"/>
		<polygon clip-path="url(#SVGID_16_)" fill="#FFFFFF" points="388.65,130.989 394.909,124.434 388.65,124.434 		"/>
		<polygon clip-path="url(#SVGID_16_)" fill="#FFFFFF" points="388.65,132.961 394.909,139.52 388.65,139.52 		"/>
		<rect x="382.13" y="124.434" clip-path="url(#SVGID_16_)" fill="#FFFFFF" width="5.193" height="15.085"/>
		<path clip-path="url(#SVGID_16_)" fill="#FFFFFF" d="M372.789,118.854v0.922h0.869v-0.311l0.32,0.067v0.174
			c0,0.271-0.077,0.343-0.343,0.343h-0.825c-0.264,0-0.343-0.072-0.343-0.343v-0.77c0-0.271,0.079-0.343,0.343-0.343h0.825
			c0.266,0,0.343,0.072,0.343,0.343v0.139l-0.32,0.054v-0.276H372.789z"/>
		<path clip-path="url(#SVGID_16_)" fill="#FFFFFF" d="M374.83,118.594h1.023c0.261,0,0.344,0.072,0.344,0.342v0.771
			c0,0.271-0.083,0.344-0.344,0.344h-1.023c-0.264,0-0.347-0.073-0.347-0.344v-0.771
			C374.483,118.667,374.566,118.594,374.83,118.594 M375.873,118.855h-1.064v0.922h1.064V118.855z"/>
		<path clip-path="url(#SVGID_16_)" fill="#FFFFFF" d="M376.74,118.594h0.262l0.65,0.882l0.645-0.882h0.259v1.457h-0.299v-0.901
			c0-0.027,0-0.079,0.005-0.154c-0.023,0.065-0.054,0.118-0.079,0.151l-0.519,0.727h-0.067l-0.521-0.729
			c-0.035-0.047-0.061-0.094-0.084-0.149c0.007,0.06,0.01,0.11,0.01,0.154v0.901h-0.262V118.594z"/>
		<path clip-path="url(#SVGID_16_)" fill="#FFFFFF" d="M379.095,118.595h1.188c0.214,0,0.315,0.079,0.315,0.282v0.325
			c0,0.202-0.102,0.283-0.315,0.283h-0.867v0.567h-0.321V118.595z M379.417,118.847v0.384h0.727c0.099,0,0.141-0.019,0.141-0.115
			v-0.152c0-0.097-0.042-0.117-0.141-0.117H379.417z"/>
		<path clip-path="url(#SVGID_16_)" fill="#FFFFFF" d="M380.961,118.595h1.183c0.217,0,0.316,0.079,0.316,0.282v0.343
			c0,0.202-0.1,0.282-0.316,0.282h-0.178l0.637,0.549h-0.459l-0.561-0.549h-0.3v0.549h-0.322V118.595z M381.284,118.847v0.405h0.722
			c0.104,0,0.143-0.021,0.143-0.116v-0.172c0-0.097-0.039-0.117-0.143-0.117H381.284z"/>
		<polygon clip-path="url(#SVGID_16_)" fill="#FFFFFF" points="382.982,118.594 384.4,118.594 384.4,118.843 383.304,118.843 
			383.304,119.167 383.945,119.167 383.945,119.416 383.304,119.416 383.304,119.777 384.419,119.777 384.419,120.051 
			382.982,120.051 		"/>
		<path clip-path="url(#SVGID_16_)" fill="#FFFFFF" d="M385.177,118.847v0.315h0.862c0.263,0,0.345,0.069,0.345,0.343v0.201
			c0,0.271-0.082,0.344-0.345,0.344h-0.856c-0.26,0-0.347-0.073-0.347-0.344v-0.043l0.286-0.058v0.169h0.98v-0.333h-0.867
			c-0.26,0-0.344-0.072-0.344-0.345v-0.161c0-0.271,0.084-0.343,0.344-0.343h0.789c0.248,0,0.342,0.069,0.342,0.32v0.031
			l-0.282,0.069v-0.167H385.177z"/>
		<path clip-path="url(#SVGID_16_)" fill="#FFFFFF" d="M387.211,118.847v0.315h0.868c0.26,0,0.348,0.069,0.348,0.343v0.201
			c0,0.271-0.088,0.344-0.348,0.344h-0.856c-0.261,0-0.345-0.073-0.345-0.344v-0.043l0.283-0.058v0.169h0.98v-0.333h-0.866
			c-0.255,0-0.345-0.072-0.345-0.345v-0.161c0-0.271,0.09-0.343,0.345-0.343h0.788c0.248,0,0.342,0.069,0.342,0.32v0.031
			l-0.281,0.069v-0.167H387.211z"/>
		<rect x="388.963" y="118.594" clip-path="url(#SVGID_16_)" fill="#FFFFFF" width="0.327" height="1.457"/>
		<path clip-path="url(#SVGID_16_)" fill="#FFFFFF" d="M390.175,118.594h1.021c0.267,0,0.351,0.072,0.351,0.342v0.771
			c0,0.271-0.084,0.344-0.351,0.344h-1.021c-0.26,0-0.342-0.073-0.342-0.344v-0.771
			C389.833,118.667,389.916,118.594,390.175,118.594 M391.22,118.855h-1.07v0.922h1.07V118.855z"/>
		<path clip-path="url(#SVGID_16_)" fill="#FFFFFF" d="M392.083,118.594h0.223l0.977,0.857c0.058,0.051,0.106,0.099,0.156,0.16
			c-0.004-0.121-0.011-0.207-0.011-0.25v-0.767h0.288v1.457h-0.218l-1.02-0.901c-0.04-0.036-0.079-0.072-0.118-0.118
			c0.015,0.113,0.015,0.188,0.015,0.231v0.788h-0.292V118.594z"/>
		<path clip-path="url(#SVGID_16_)" fill="#FFFFFF" d="M379.169,144.327v0.923h1.005v-0.324h-0.526v-0.25h0.844v0.5
			c0,0.274-0.084,0.346-0.346,0.346h-0.957c-0.263,0-0.346-0.071-0.346-0.346v-0.764c0-0.276,0.083-0.345,0.346-0.345h0.957
			c0.254,0,0.346,0.068,0.346,0.329v0.032l-0.317,0.063v-0.165H379.169z"/>
		<polygon clip-path="url(#SVGID_16_)" fill="#FFFFFF" points="381.039,144.068 382.459,144.068 382.459,144.317 381.365,144.317 
			381.365,144.642 382.001,144.642 382.001,144.888 381.365,144.888 381.365,145.25 382.473,145.25 382.473,145.522 
			381.039,145.522 		"/>
		<path clip-path="url(#SVGID_16_)" fill="#FFFFFF" d="M383.457,144.069h0.311l0.795,1.453h-0.363l-0.167-0.318h-0.877l-0.163,0.318
			h-0.321L383.457,144.069z M383.898,144.942l-0.298-0.593l-0.306,0.593H383.898z"/>
		<path clip-path="url(#SVGID_16_)" fill="#FFFFFF" d="M384.878,144.069h1.184c0.217,0,0.313,0.078,0.313,0.281v0.342
			c0,0.202-0.096,0.281-0.313,0.281h-0.178l0.635,0.55h-0.463l-0.557-0.55h-0.309v0.55h-0.313V144.069z M385.191,144.318v0.407
			h0.727c0.098,0,0.145-0.02,0.145-0.115v-0.175c0-0.096-0.047-0.117-0.145-0.117H385.191z"/>
		<path clip-path="url(#SVGID_16_)" fill="#FFFFFF" d="M388.349,143.807c0.182,0.188,0.281,0.445,0.281,0.714
			c0,0.277-0.097,0.525-0.284,0.715c-0.19,0.194-0.432,0.3-0.685,0.3c-0.256,0-0.498-0.105-0.683-0.304
			c-0.185-0.195-0.283-0.442-0.283-0.71c0-0.27,0.103-0.527,0.292-0.728c0.176-0.189,0.414-0.287,0.674-0.287
			C387.925,143.507,388.167,143.613,388.349,143.807 M388.262,143.901c-0.157-0.172-0.366-0.26-0.595-0.26s-0.438,0.083-0.59,0.25
			c-0.164,0.173-0.256,0.397-0.256,0.63c0,0.232,0.09,0.45,0.244,0.616c0.164,0.175,0.374,0.263,0.589,0.263
			c0.229,0,0.435-0.088,0.603-0.261c0.162-0.16,0.244-0.376,0.244-0.611C388.501,144.285,388.423,144.065,388.262,143.901
			 M388.146,144.242c0,0.164-0.092,0.276-0.25,0.31l0.242,0.523h-0.232l-0.219-0.49h-0.205v0.49h-0.206v-1.148h0.413
			C387.998,143.927,388.146,144.034,388.146,144.242 M387.482,144.068v0.381h0.173c0.189,0,0.274-0.049,0.274-0.183
			c0-0.146-0.085-0.199-0.281-0.199H387.482z"/>
	</g>
	<g clip-path="url(#SVGID_2_)">
		<defs>
			<rect id="SVGID_17_" x="14" y="54.881" width="731" height="946"/>
		</defs>
		<clipPath id="SVGID_18_">
			<use xlink:href="#SVGID_17_"  overflow="visible"/>
		</clipPath>
		<g opacity="0.12" clip-path="url(#SVGID_18_)">
			<g>
				<defs>
					<rect id="SVGID_19_" x="76.002" y="248.27" width="585.393" height="444.585"/>
				</defs>
				<clipPath id="SVGID_20_">
					<use xlink:href="#SVGID_19_"  overflow="visible"/>
				</clipPath>
				<path clip-path="url(#SVGID_20_)" fill="#897F76" d="M173.874,370.058c0,0-18.396-3.311-31.644-7.727
					c-13.245-4.415-25.388-7.727-35.69-16.925c-10.302-9.198-30.538-33.482-30.538-33.482s35.689,30.908,38.633,33.851
					C117.58,348.719,173.874,370.058,173.874,370.058"/>
				<path clip-path="url(#SVGID_20_)" fill="#897F76" d="M158.419,355.709l-22.444-10.67l-3.679-8.095
					c0,0,26.124,18.765,23.181,13.614c-2.943-5.152-39.37-46.729-45.993-55.191c-6.622-8.463-22.444-26.492-22.444-26.492
					s19.5,12.877,21.708,17.293c2.208,4.416,37.162,47.096,41.209,52.248c4.048,5.15,14.717,13.982,13.982,15.821
					C163.204,356.077,158.419,355.709,158.419,355.709"/>
				<path clip-path="url(#SVGID_20_)" fill="#897F76" d="M132.664,350.558c0,0-25.02-26.124-29.067-30.906
					c-4.048-4.783-20.973-18.03-20.973-18.03l31.643,34.586L132.664,350.558z"/>
				<path clip-path="url(#SVGID_20_)" fill="#897F76" d="M162.468,334.369c0,0-7.359-19.134-11.039-27.597
					c-3.68-8.461-9.935-40.84-16.188-40.104c-6.256,0.736-2.209,13.613,2.207,22.812c4.416,9.2,9.198,16.557,9.198,16.557
					s-10.669-3.679-16.925-13.613c-6.254-9.934-20.973-43.417-25.02-42.313c-4.046,1.104,2.575,19.132,9.198,29.803
					c6.623,10.67,22.813,26.123,31.275,34.585C153.637,322.963,162.468,334.369,162.468,334.369"/>
				<path clip-path="url(#SVGID_20_)" fill="#897F76" d="M585.6,341.359c0,0,17.293-32.379,27.963-50.409
					c10.672-18.028,30.172-42.681,30.172-42.681s-32.379,57.031-34.219,59.239S585.6,341.359,585.6,341.359"/>
				<path clip-path="url(#SVGID_20_)" fill="#897F76" d="M602.156,320.754c0,0,13.246-19.5,27.963-31.275
					c14.719-11.774,31.275-18.029,31.275-18.029s-22.076,11.774-33.482,26.492c-11.406,14.718-30.906,36.794-33.85,45.257
					c-2.943,8.463-2.209,18.029-2.209,18.029s8.832-2.207,5.152,1.104c-3.68,3.313,2.941,11.775-2.209,13.615
					c-5.15,1.839-8.094,2.575-8.094,4.782c0,2.208-7.359-1.472-7.359-1.472s4.047-29.436,5.518-32.747
					C586.334,343.199,602.156,320.754,602.156,320.754"/>
				<path clip-path="url(#SVGID_20_)" fill="#897F76" d="M597.74,349.454c0,0-0.367-12.877,9.199-16.925
					c9.566-4.047,19.869-5.52,27.963-9.566c8.096-4.046,13.615-8.831,13.615-8.831s-10.305,13.982-23.182,18.397
					c-12.877,4.416-17.66,4.416-20.604,8.095C601.787,344.303,597.74,349.454,597.74,349.454"/>
				<path clip-path="url(#SVGID_20_)" fill="#897F76" d="M239.221,682.702c0,0,93.763-20.306,134.972-19.111
					c41.208,1.195,146.319,29.265,146.319,29.265s-75.25-19.708-140.944-20.306S239.221,682.702,239.221,682.702"/>
			</g>
		</g>
	</g>
</g>
</svg>
