<?xml version="1.0" encoding="utf-8"?>
<!-- Generator: Adobe Illustrator 16.0.0, SVG Export Plug-In . SVG Version: 6.00 Build 0)  -->
<!DOCTYPE svg PUBLIC "-//W3C//DTD SVG 1.1//EN" "http://www.w3.org/Graphics/SVG/1.1/DTD/svg11.dtd">
<svg version="1.1" id="Layer_1" xmlns="http://www.w3.org/2000/svg" xmlns:xlink="http://www.w3.org/1999/xlink" x="0px" y="0px"
	 width="800.453px" height="1035.881px" viewBox="0 0 620 1035.881" enable-background="new 0 0 800.453 1035.881"
	 xml:space="preserve">
<g>
	<defs>
		<rect id="SVGID_1_" x="-9" y="10.314" width="789.393" height="1021.566"/>
	</defs>
	<clipPath id="SVGID_2_">
		<use xlink:href="#SVGID_1_"  overflow="visible"/>
	</clipPath>
	<g clip-path="url(#SVGID_2_)">
		<defs>
			<rect id="SVGID_3_" x="-9" y="10.314" width="789.393" height="1021.566"/>
		</defs>
		<clipPath id="SVGID_4_">
			<use xlink:href="#SVGID_3_"  overflow="visible"/>
		</clipPath>
		<path clip-path="url(#SVGID_4_)" fill="#152048" d="M633.283,192.381c0,0-29.513-9.837-71.052-26.235
			c-26.219-10.349-49.378-25.919-64.276-37.1c-7.382,8.05-38.254,35.967-111.882,36.695
			c-73.003,0.724-108.163-30.504-117.519-40.479c-14.385,11.188-39.891,29.304-69.232,40.884
			c-41.537,16.398-71.05,26.235-71.05,26.235s-0.969,0.701-2.473,1.74v0.007c0.018,0.836,0.042,1.759,0.069,2.746
			c0.003,0.079,0.006,0.158,0.008,0.239c0.012,0.462,0.029,0.937,0.044,1.424c0.001,0.029,0.001,0.057,0.002,0.085
			c0.019,0.51,0.039,1.038,0.06,1.573c0.004,0.104,0.007,0.213,0.012,0.318c0.018,0.432,0.037,0.871,0.057,1.317
			c0.006,0.135,0.011,0.269,0.018,0.408c0.025,0.544,0.052,1.097,0.081,1.657c0.003,0.072,0.006,0.146,0.01,0.217
			c0.026,0.487,0.053,0.976,0.081,1.471c0.011,0.174,0.021,0.349,0.031,0.522c0.027,0.469,0.057,0.941,0.088,1.416
			c0.008,0.112,0.014,0.22,0.021,0.33c0.038,0.573,0.079,1.15,0.122,1.727c0.012,0.158,0.025,0.313,0.036,0.469
			c0.034,0.444,0.069,0.886,0.104,1.33c0.015,0.175,0.029,0.351,0.045,0.527c0.049,0.577,0.1,1.153,0.155,1.728
			c0.005,0.063,0.011,0.128,0.018,0.191c0.05,0.516,0.102,1.029,0.156,1.54c0.018,0.174,0.038,0.345,0.056,0.516
			c0.05,0.454,0.102,0.904,0.154,1.348c0.016,0.128,0.031,0.256,0.046,0.383c0.068,0.552,0.138,1.099,0.212,1.637
			c0.018,0.131,0.037,0.258,0.056,0.388c0.061,0.426,0.123,0.846,0.187,1.257c0.023,0.152,0.046,0.301,0.069,0.451
			c0.084,0.521,0.171,1.035,0.261,1.535c2.326,12.798,15.125,59.918,18.034,73.879c2.908,13.962,16.288,87.841,18.033,96.567
			c0.12,0.599,0.228,1.226,0.326,1.874c0.009,0.054,0.017,0.11,0.024,0.164c0.091,0.604,0.173,1.227,0.247,1.863
			c0.009,0.068,0.017,0.136,0.024,0.203c0.072,0.644,0.138,1.3,0.195,1.961c0.004,0.047,0.01,0.095,0.013,0.144
			c0.061,0.706,0.114,1.419,0.159,2.131c0.001,0.009,0.001,0.021,0.001,0.03c0.045,0.706,0.083,1.41,0.113,2.11
			c0.004,0.059,0.005,0.116,0.008,0.173c0.03,0.664,0.054,1.319,0.073,1.963c0.003,0.058,0.004,0.117,0.006,0.174
			c0.018,0.671,0.034,1.329,0.044,1.967c0,0.011,0,0.022,0,0.034c0.011,0.666,0.018,1.313,0.02,1.93
			c0.035-0.085,0.056-0.137,0.056-0.137s6.559,34.979,5.464,49.189c-1.092,14.211,6.559,102.75,12.026,130.078
			c5.464,27.328,12.022,97.287,6.558,126.8c-5.466,29.514-18.584,108.219-21.862,142.103c-3.281,33.887-3.281,59.028-3.281,59.028
			s-4.371,4.371-4.371,8.744c0,4.374,2.187,14.21,2.187,14.21v7.652c0,0,2.185,16.397,47.003,19.675
			c44.817,3.279,98.38,4.375,114.774,7.654c4.266,0.852,9.57,1.706,15.33,2.498l-0.026,0.779c0,0,21.861,3.278,36.073,3.278
			c1.609,0,3.453-0.045,5.464-0.121c2.013,0.076,3.856,0.121,5.466,0.121c14.211,0,36.072-3.278,36.072-3.278l-0.025-0.779
			c5.758-0.792,11.064-1.646,15.329-2.498c16.397-3.279,69.958-4.375,114.776-7.654c44.816-3.277,47.002-19.675,47.002-19.675
			v-7.652c0,0,2.188-9.836,2.188-14.21c0-4.373-4.373-8.744-4.373-8.744s0-25.142-3.28-59.028
			c-3.278-33.884-16.396-112.589-21.86-142.103c-5.467-29.513,1.092-99.472,6.558-126.8c5.466-27.328,13.118-115.867,12.024-130.078
			c-0.941-12.225,3.779-39.801,5.117-47.272c-0.027-5.017,0.14-12.938,1.254-18.501c1.746-8.726,15.125-82.605,18.032-96.567
			c2.909-13.961,15.708-61.081,18.035-73.879c1.642-9.031,2.124-22.11,2.267-29.031
			C634.076,192.957,633.283,192.381,633.283,192.381"/>
	</g>
	<g clip-path="url(#SVGID_2_)">
		<defs>
			<rect id="SVGID_5_" x="-9" y="10.314" width="789.393" height="1021.566"/>
		</defs>
		<clipPath id="SVGID_6_">
			<use xlink:href="#SVGID_5_"  overflow="visible"/>
		</clipPath>
		<path clip-path="url(#SVGID_6_)" fill="#FDBB2D" d="M622.521,352.116c-0.008,0.035-0.013,0.055-0.013,0.055
			S622.515,352.147,622.521,352.116"/>
		<path clip-path="url(#SVGID_6_)" fill="#152048" d="M165.361,408.115c0-0.012,0-0.023,0-0.034
			c-0.01-0.638-0.026-1.295-0.045-1.967c-0.001-0.058-0.004-0.117-0.005-0.174c-0.02-0.645-0.043-1.3-0.073-1.963
			c-0.003-0.057-0.005-0.115-0.007-0.173c-0.031-0.7-0.068-1.404-0.114-2.11c0-0.01-0.001-0.021-0.001-0.029
			c-0.047-0.713-0.1-1.426-0.16-2.132c-0.004-0.048-0.008-0.097-0.013-0.144c-0.058-0.662-0.122-1.317-0.195-1.961
			c-0.008-0.066-0.016-0.135-0.023-0.203c-0.073-0.636-0.157-1.258-0.247-1.862c-0.007-0.054-0.015-0.11-0.025-0.165
			c-0.098-0.647-0.207-1.274-0.326-1.874c-1.745-8.726-15.125-82.605-18.033-96.567c-2.907-13.961-15.708-61.081-18.032-73.879
			c-0.092-0.5-0.178-1.013-0.262-1.535c-0.022-0.149-0.046-0.298-0.069-0.448c-0.064-0.414-0.126-0.834-0.186-1.26
			c-0.018-0.129-0.038-0.256-0.055-0.388c-0.076-0.538-0.146-1.085-0.213-1.637c-0.017-0.126-0.031-0.255-0.046-0.383
			c-0.054-0.444-0.105-0.895-0.154-1.348c-0.02-0.171-0.038-0.342-0.058-0.516c-0.054-0.511-0.106-1.023-0.155-1.54
			c-0.006-0.063-0.012-0.126-0.019-0.191c-0.055-0.574-0.106-1.15-0.155-1.728c-0.016-0.176-0.03-0.352-0.044-0.527
			c-0.036-0.444-0.072-0.886-0.106-1.33c-0.012-0.156-0.024-0.31-0.036-0.467c-0.043-0.579-0.083-1.154-0.122-1.729
			c-0.007-0.109-0.012-0.218-0.02-0.33c-0.031-0.475-0.061-0.947-0.09-1.416c-0.009-0.175-0.019-0.348-0.029-0.522
			c-0.03-0.495-0.055-0.984-0.081-1.471c-0.003-0.07-0.007-0.145-0.011-0.217c-0.028-0.561-0.056-1.111-0.08-1.657
			c-0.007-0.139-0.014-0.272-0.02-0.408c-0.02-0.446-0.038-0.885-0.056-1.317c-0.004-0.105-0.009-0.213-0.013-0.318
			c-0.02-0.536-0.041-1.063-0.058-1.573c-0.001-0.029-0.002-0.056-0.002-0.083c-0.016-0.49-0.033-0.964-0.046-1.426
			c-0.003-0.08-0.005-0.159-0.006-0.239c-0.03-0.989-0.053-1.909-0.071-2.746v-0.007c-3.864,2.663-11.391,7.618-16.11,9.192
			c-6.559,2.186-43.724,30.607-54.655,68.866c-10.929,38.257-13.117,132.264-13.117,132.264l-3.28,16.396l-3.278,9.838
			c0,0,38.259,9.838,71.051,12.023c32.794,2.188,53.562,2.188,53.562,2.188s2.187-2.188,1.094-8.745
			c-1.094-6.559-2.187-8.744-1.094-12.025c1.021-3.064,4.907-12.813,5.41-14.072C165.378,409.429,165.371,408.781,165.361,408.115"
			/>
		<path clip-path="url(#SVGID_6_)" fill="#152048" d="M722.916,420.838l-3.278-16.396c0,0-2.186-94.006-13.117-132.265
			c-10.931-38.259-48.096-66.679-54.654-68.865c-4.882-1.627-12.783-6.883-16.509-9.467c-0.143,6.919-0.625,20-2.267,29.031
			c-2.327,12.798-15.126,59.918-18.035,73.879c-2.907,13.961-16.286,87.841-18.032,96.566c-1.114,5.563-1.279,13.487-1.254,18.502
			c0.217-1.214,0.35-1.917,0.35-1.917s4.37,10.931,5.465,14.21c1.092,3.28,0,5.466-1.095,12.026
			c-1.093,6.557,1.095,8.743,1.095,8.743s20.769,0,53.56-2.187c32.796-2.186,71.053-12.023,71.053-12.023L722.916,420.838z"/>
	</g>
	<g clip-path="url(#SVGID_2_)">
		<defs>
			<rect id="SVGID_7_" x="-9" y="10.314" width="789.393" height="1021.566"/>
		</defs>
		<clipPath id="SVGID_8_">
			<use xlink:href="#SVGID_7_"  overflow="visible"/>
		</clipPath>
		<path clip-path="url(#SVGID_8_)" fill="#152048" d="M386.074,165.741c73.627-0.728,104.499-28.645,111.881-36.694
			c-8.707-6.533-14.598-11.57-16.613-13.183c-5.465-4.373-5.465-7.65-10.931-10.931c-5.466-3.279-7.651-13.116-18.582-18.582
			c-6.958-3.479-38.267-4.743-60.112-5.203l-0.008-0.263c0,0-4.297,0-10.932,0.082c-6.635-0.082-10.933-0.082-10.933-0.082
			l-0.007,0.263c-21.846,0.46-53.154,1.724-60.111,5.203c-10.933,5.466-13.118,15.303-18.584,18.582
			c-5.465,3.281-5.465,6.559-10.929,10.931c-1.606,1.285-5.678,4.748-11.659,9.399C277.911,135.237,313.069,166.465,386.074,165.741
			"/>
	</g>
	<g clip-path="url(#SVGID_2_)">
		<defs>
			<rect id="SVGID_9_" x="-9" y="10.314" width="789.393" height="1021.566"/>
		</defs>
		<clipPath id="SVGID_10_">
			<use xlink:href="#SVGID_9_"  overflow="visible"/>
		</clipPath>
		<path clip-path="url(#SVGID_10_)" d="M126.273,206.104c0.027,0.47,0.057,0.941,0.088,1.417
			C126.331,207.046,126.301,206.574,126.273,206.104"/>
		<path clip-path="url(#SVGID_10_)" d="M126.162,204.112c0.026,0.485,0.054,0.977,0.081,1.471
			C126.216,205.089,126.188,204.597,126.162,204.112"/>
		<path clip-path="url(#SVGID_10_)" d="M165.361,408.081c0,0.011,0,0.023,0,0.033C165.361,408.104,165.361,408.092,165.361,408.081"
			/>
		<path clip-path="url(#SVGID_10_)" d="M126.07,202.238c0.025,0.545,0.052,1.098,0.08,1.658
			C126.122,203.335,126.096,202.782,126.07,202.238"/>
		<path clip-path="url(#SVGID_10_)" d="M125.876,197.113c0.014,0.462,0.029,0.936,0.047,1.424
			C125.905,198.05,125.89,197.575,125.876,197.113"/>
		<path clip-path="url(#SVGID_10_)" d="M125.996,200.513c0.018,0.433,0.036,0.871,0.056,1.317
			C126.032,201.385,126.014,200.945,125.996,200.513"/>
		<path clip-path="url(#SVGID_10_)" d="M125.799,194.127c0.018,0.837,0.041,1.757,0.071,2.746
			C125.839,195.887,125.817,194.963,125.799,194.127"/>
		<path clip-path="url(#SVGID_10_)" d="M165.381,410.045"/>
		<path clip-path="url(#SVGID_10_)" d="M125.925,198.623c0.018,0.511,0.038,1.037,0.058,1.572
			C125.963,199.66,125.943,199.134,125.925,198.623"/>
		<path clip-path="url(#SVGID_10_)" d="M126.383,207.851c0.037,0.573,0.079,1.15,0.122,1.727
			C126.462,209,126.42,208.424,126.383,207.851"/>
		<path clip-path="url(#SVGID_10_)" d="M127.076,215.877c0.05,0.455,0.102,0.904,0.154,1.348
			C127.178,216.781,127.126,216.331,127.076,215.877"/>
		<path clip-path="url(#SVGID_10_)" d="M127.543,219.635c0.06,0.426,0.123,0.845,0.187,1.258
			C127.667,220.479,127.603,220.061,127.543,219.635"/>
		<path clip-path="url(#SVGID_10_)" d="M127.275,217.608c0.068,0.554,0.137,1.1,0.212,1.638
			C127.414,218.708,127.344,218.162,127.275,217.608"/>
		<path clip-path="url(#SVGID_10_)" d="M164.943,399.388c0.004,0.048,0.009,0.096,0.013,0.143
			C164.952,399.484,164.947,399.436,164.943,399.388"/>
		<path clip-path="url(#SVGID_10_)" d="M164.724,397.223c0.007,0.069,0.016,0.136,0.024,0.204
			C164.74,397.359,164.731,397.292,164.724,397.223"/>
		<path clip-path="url(#SVGID_10_)" d="M127.799,221.341c0.084,0.521,0.17,1.037,0.261,1.535
			C127.97,222.378,127.884,221.862,127.799,221.341"/>
		<path clip-path="url(#SVGID_10_)" d="M126.864,213.822c0.05,0.516,0.103,1.029,0.156,1.54
			C126.966,214.851,126.914,214.338,126.864,213.822"/>
		<path clip-path="url(#SVGID_10_)" d="M126.541,210.047c0.033,0.443,0.068,0.886,0.105,1.327
			C126.609,210.934,126.574,210.488,126.541,210.047"/>
		<path clip-path="url(#SVGID_10_)" d="M164.453,395.197c0.009,0.055,0.017,0.109,0.025,0.163
			C164.47,395.306,164.462,395.251,164.453,395.197"/>
		<path clip-path="url(#SVGID_10_)" d="M165.231,403.803c0.002,0.058,0.004,0.116,0.007,0.174
			C165.235,403.919,165.233,403.861,165.231,403.803"/>
		<path clip-path="url(#SVGID_10_)" d="M126.69,211.903c0.049,0.577,0.101,1.153,0.155,1.728
			C126.791,213.057,126.739,212.48,126.69,211.903"/>
		<path clip-path="url(#SVGID_10_)" d="M165.116,401.664c0,0.01,0.001,0.02,0.001,0.029
			C165.117,401.684,165.116,401.673,165.116,401.664"/>
		<path clip-path="url(#SVGID_10_)" d="M165.311,405.939c0.001,0.058,0.004,0.116,0.005,0.174
			C165.315,406.055,165.312,405.997,165.311,405.939"/>
		<path clip-path="url(#SVGID_10_)" d="M165.116,401.664c-0.045-0.714-0.098-1.425-0.16-2.132
			C165.018,400.238,165.071,400.95,165.116,401.664"/>
		<path clip-path="url(#SVGID_10_)" d="M165.381,410.045c-0.002-0.617-0.008-1.264-0.02-1.932
			C165.373,408.782,165.378,409.428,165.381,410.045"/>
		<path clip-path="url(#SVGID_10_)" d="M164.453,395.197c-0.099-0.647-0.207-1.275-0.326-1.875
			C164.247,393.922,164.354,394.55,164.453,395.197"/>
		<path clip-path="url(#SVGID_10_)" d="M165.361,408.081c-0.01-0.638-0.026-1.296-0.044-1.966
			C165.334,406.784,165.351,407.442,165.361,408.081"/>
		<path clip-path="url(#SVGID_10_)" d="M165.231,403.803c-0.031-0.7-0.069-1.403-0.114-2.109
			C165.162,402.4,165.2,403.104,165.231,403.803"/>
		<path clip-path="url(#SVGID_10_)" d="M165.311,405.939c-0.02-0.645-0.043-1.3-0.073-1.961
			C165.268,404.64,165.292,405.295,165.311,405.939"/>
		<path clip-path="url(#SVGID_10_)" d="M164.724,397.223c-0.074-0.636-0.157-1.258-0.247-1.862
			C164.567,395.965,164.65,396.587,164.724,397.223"/>
		<path clip-path="url(#SVGID_10_)" d="M164.943,399.388c-0.058-0.663-0.124-1.317-0.195-1.96
			C164.819,398.071,164.886,398.726,164.943,399.388"/>
		<path clip-path="url(#SVGID_10_)" d="M127.076,215.877c-0.02-0.171-0.038-0.343-0.056-0.516
			C127.038,215.534,127.056,215.707,127.076,215.877"/>
		<path clip-path="url(#SVGID_10_)" d="M125.925,198.623c-0.001-0.028-0.001-0.057-0.002-0.085
			C125.923,198.566,125.923,198.595,125.925,198.623"/>
		<path clip-path="url(#SVGID_10_)" d="M125.996,200.513c-0.004-0.105-0.009-0.213-0.013-0.318
			C125.987,200.3,125.992,200.408,125.996,200.513"/>
		<path clip-path="url(#SVGID_10_)" d="M126.162,204.112c-0.003-0.072-0.007-0.143-0.011-0.216
			C126.155,203.969,126.159,204.04,126.162,204.112"/>
		<path clip-path="url(#SVGID_10_)" d="M126.07,202.238c-0.007-0.138-0.012-0.272-0.018-0.408
			C126.059,201.966,126.063,202.1,126.07,202.238"/>
		<path clip-path="url(#SVGID_10_)" d="M125.799,194.121v0.006V194.121z"/>
		<path clip-path="url(#SVGID_10_)" d="M125.876,197.113c-0.002-0.08-0.004-0.16-0.006-0.239
			C125.872,196.954,125.874,197.033,125.876,197.113"/>
		<path clip-path="url(#SVGID_10_)" d="M127.799,221.341c-0.022-0.147-0.046-0.298-0.07-0.449
			C127.753,221.044,127.777,221.194,127.799,221.341"/>
		<path clip-path="url(#SVGID_10_)" d="M126.864,213.822c-0.006-0.063-0.013-0.127-0.02-0.191
			C126.851,213.694,126.857,213.759,126.864,213.822"/>
		<path clip-path="url(#SVGID_10_)" d="M127.275,217.608c-0.016-0.126-0.03-0.256-0.046-0.381
			C127.246,217.353,127.26,217.482,127.275,217.608"/>
		<path clip-path="url(#SVGID_10_)" d="M127.543,219.635c-0.019-0.13-0.037-0.258-0.056-0.389
			C127.506,219.376,127.525,219.504,127.543,219.635"/>
		<path clip-path="url(#SVGID_10_)" d="M126.541,210.047c-0.011-0.157-0.024-0.312-0.036-0.47
			C126.517,209.735,126.53,209.891,126.541,210.047"/>
		<path clip-path="url(#SVGID_10_)" d="M126.69,211.903c-0.015-0.176-0.03-0.352-0.044-0.528
			C126.66,211.551,126.675,211.727,126.69,211.903"/>
		<path clip-path="url(#SVGID_10_)" d="M126.383,207.851c-0.007-0.109-0.013-0.218-0.022-0.329
			C126.37,207.633,126.376,207.741,126.383,207.851"/>
		<path clip-path="url(#SVGID_10_)" d="M126.273,206.104c-0.01-0.173-0.02-0.348-0.03-0.521
			C126.253,205.756,126.264,205.931,126.273,206.104"/>
		<path clip-path="url(#SVGID_10_)" fill="#FFFFFF" d="M386.127,130.271c45.146,0.43,79.54-22.789,79.109-26.658
			c-0.428-3.87-7.832-11.055-12.563-14.494c-4.729-3.44-27.215-5.738-72.361-5.49c-45.661,0.25-61.132,1.995-67.369,3.493
			c-6.241,1.496-16.512,12.891-15.222,15.471C299.011,105.172,341.247,129.842,386.127,130.271"/>
		<g opacity="0.35" clip-path="url(#SVGID_10_)">
			<g>
				<defs>
					<rect id="SVGID_11_" x="297.61" y="83.611" width="167.632" height="46.667"/>
				</defs>
				<clipPath id="SVGID_12_">
					<use xlink:href="#SVGID_11_"  overflow="visible"/>
				</clipPath>
				<g clip-path="url(#SVGID_12_)">
					<defs>
						<path id="SVGID_13_" d="M386.125,130.271c45.146,0.43,79.542-22.789,79.113-26.658c-0.432-3.87-7.834-11.055-12.564-14.494
							c-4.729-3.44-27.215-5.738-72.359-5.49c-45.664,0.25-61.134,1.995-67.371,3.493c-6.239,1.496-16.513,12.891-15.224,15.471
							C299.01,105.172,341.247,129.842,386.125,130.271"/>
					</defs>
					<clipPath id="SVGID_14_">
						<use xlink:href="#SVGID_13_"  overflow="visible"/>
					</clipPath>
					
						<radialGradient id="SVGID_15_" cx="187.3848" cy="1041.2197" r="1.2893" gradientTransform="matrix(102.1332 0 0 -40.5422 -18755.5547 42299.3906)" gradientUnits="userSpaceOnUse">
						<stop  offset="0" style="stop-color:#FFFFFF"/>
						<stop  offset="1" style="stop-color:#FFFFFF"/>
					</radialGradient>
					<rect x="296.43" y="83.382" clip-path="url(#SVGID_14_)" fill="url(#SVGID_15_)" width="169.237" height="47.319"/>
				</g>
				<g clip-path="url(#SVGID_12_)">
					<defs>
						<path id="SVGID_16_" d="M386.125,130.271c45.146,0.43,79.542-22.789,79.113-26.658c-0.432-3.87-7.834-11.055-12.564-14.494
							c-4.729-3.44-27.215-5.738-72.359-5.49c-45.664,0.25-61.134,1.995-67.371,3.493c-6.239,1.496-16.513,12.891-15.224,15.471
							C299.01,105.172,341.247,129.842,386.125,130.271"/>
					</defs>
					<clipPath id="SVGID_17_">
						<use xlink:href="#SVGID_16_"  overflow="visible"/>
					</clipPath>
					
						<radialGradient id="SVGID_18_" cx="187.3848" cy="1041.2197" r="1.2893" gradientTransform="matrix(102.1332 0 0 -40.5422 -18755.5547 42299.3906)" gradientUnits="userSpaceOnUse">
						<stop  offset="0" style="stop-color:#FFFFFF"/>
						<stop  offset="0.119" style="stop-color:#D9D8D7"/>
						<stop  offset="0.3629" style="stop-color:#969393"/>
						<stop  offset="0.7064" style="stop-color:#454343"/>
						<stop  offset="1" style="stop-color:#010101"/>
					</radialGradient>
					<rect x="296.43" y="83.382" clip-path="url(#SVGID_17_)" fill="url(#SVGID_18_)" width="169.237" height="47.319"/>
				</g>
			</g>
		</g>
		<g opacity="0.5" clip-path="url(#SVGID_10_)">
			<g>
				<defs>
					<rect id="SVGID_19_" x="62.022" y="92.969" width="644.505" height="871.95"/>
				</defs>
				<clipPath id="SVGID_20_">
					<use xlink:href="#SVGID_19_"  overflow="visible"/>
				</clipPath>
				<g opacity="0.1" clip-path="url(#SVGID_20_)">
					<g>
						<defs>
							<rect id="SVGID_21_" x="440.307" y="92.969" width="195.051" height="863.236"/>
						</defs>
						<clipPath id="SVGID_22_">
							<use xlink:href="#SVGID_21_"  overflow="visible"/>
						</clipPath>
						<path clip-path="url(#SVGID_22_)" fill="#897F76" d="M597.023,393.322c1.746-8.726,15.125-82.605,18.032-96.566
							c2.909-13.961,15.708-61.081,18.035-73.879c1.642-9.031,2.124-22.111,2.267-29.031c-1.281-0.887-2.074-1.465-2.074-1.465
							s-29.515-9.837-71.052-26.234c-41.537-16.396-75.425-45.91-80.89-50.281c-5.465-4.374-5.465-7.653-10.931-10.932
							c-3.618-2.171-5.812-7.215-10.046-11.963l-2.223,0.776c3.549,3.392,6.813,7.337,7.096,9.869
							c0.226,2.042-9.271,9.485-24.932,15.99c1.267,2.627,2.182,5.108,2.328,7.018c0.563,7.33,0,6.765,0,17.48
							c0,10.714,3.947,21.426,10.714,37.215c6.767,15.788,14.097,7.33,19.171,29.886c5.075,22.555-25.373,18.607-25.373,18.607
							s27.63,3.948,58.078,2.255c30.449-1.69,23.683,0,45.11-2.255c21.429-2.256,21.429-5.639,54.131,3.383
							c32.704,9.022,7.894,29.321,5.639,52.44c-2.257,23.119-34.96,19.736-44.547,32.141c-9.586,12.405-3.383,108.828-2.255,119.541
							c1.128,10.714-21.988,29.321-21.988,29.321s-6.205,18.046-10.15,31.577c-3.949,13.533,6.201,41.728,5.638,72.176
							c-0.564,30.448-28.194,70.483-37.779,92.475c-9.585,21.992-2.255,43.418,13.533,91.35c15.789,47.928,6.202,6.201,18.043,20.86
							c11.841,14.662,6.203,9.022,12.404,29.886c6.204,20.862,8.46,52.44,8.46,52.44s2.256,32.703,10.15,62.588
							c7.894,29.888,4.51,16.354,24.811,33.834l6.429,2.382c5.999-4.466,6.544-8.493,6.544-8.493v-7.654
							c0,0,2.188-9.834,2.188-14.208c0-4.373-4.37-8.744-4.37-8.744s0-25.142-3.283-59.028
							c-3.278-33.884-16.396-112.588-21.86-142.103c-5.467-29.513,1.092-99.471,6.558-126.8
							c5.466-27.327,13.118-115.867,12.024-130.078c-0.941-12.223,3.779-39.799,5.117-47.272
							C595.744,406.809,595.909,398.885,597.023,393.322"/>
					</g>
				</g>
				<g opacity="0.1" clip-path="url(#SVGID_20_)">
					<g>
						<defs>
							<rect id="SVGID_23_" x="125.799" y="97.208" width="219.998" height="867.711"/>
						</defs>
						<clipPath id="SVGID_24_">
							<use xlink:href="#SVGID_23_"  overflow="visible"/>
						</clipPath>
						<path clip-path="url(#SVGID_24_)" fill="#897F76" d="M342.252,123.092c-25.246-7.625-43.686-18.809-44.531-20.498
							c-0.413-0.827,0.368-2.561,1.814-4.581c-0.593-0.286-1.164-0.557-1.685-0.806c-2.331,3.257-4.168,6.203-6.708,7.726
							c-5.465,3.279-5.465,6.558-10.93,10.931c-5.465,4.372-39.351,33.886-80.89,50.282c-41.537,16.397-71.051,26.235-71.051,26.235
							s-0.965,0.7-2.472,1.737c0.148,6.99,0.642,19.846,2.261,28.759c2.326,12.798,15.125,59.918,18.034,73.879
							c2.908,13.961,16.288,87.841,18.033,96.566c0.989,4.942,1.23,11.749,1.254,16.724c0.035-0.087,0.056-0.139,0.056-0.139
							s6.559,34.979,5.464,49.189c-1.092,14.211,6.559,102.751,12.026,130.078c5.464,27.329,12.022,97.287,6.558,126.8
							c-5.465,29.515-18.584,108.219-21.862,142.103c-3.281,33.887-3.281,59.028-3.281,59.028s-4.371,4.371-4.371,8.744
							c0,4.374,2.185,14.21,2.185,14.21v7.652c0,0,1.554,11.56,28.579,17.207c2.311-13.137,5.743-36.236,3.795-48.313
							c-2.818-17.479,2.255-14.095,10.149-25.938c7.895-11.842,6.204-51.313,7.331-98.679c1.127-47.364,90.22-24.245,90.22-24.245
							s7.329-10.15,6.203-24.246c-1.129-14.096-45.673-76.122-54.132-90.219c-8.458-14.098,4.512-12.406,4.512-12.406
							s-12.405-5.639-17.481-33.268c-5.074-27.63,8.459-61.461,20.864-90.784c12.405-29.321,48.492-59.769,48.492-59.769
							s-38.907,6.202-76.121-10.716c-37.216-16.915-39.472-45.672-44.546-134.2c-5.075-88.528,3.383-106.008,23.682-107.138
							c20.299-1.127,91.911,22.556,102.624,27.066c0,0,6.767-14.097,4.512-22.554c-2.255-8.459,4.512-21.992,12.405-36.653
							c7.895-14.66,7.895-7.895,10.714-10.149c2.818-2.255,0.563-15.224-1.128-19.171c-1.691-3.948-0.563-5.076,2.82-14.098
							C346.268,127.789,344.896,125.586,342.252,123.092"/>
					</g>
				</g>
				<g opacity="0.12" clip-path="url(#SVGID_20_)">
					<g>
						<defs>
							<rect id="SVGID_25_" x="62.022" y="265.899" width="100.932" height="144.916"/>
						</defs>
						<clipPath id="SVGID_26_">
							<use xlink:href="#SVGID_25_"  overflow="visible"/>
						</clipPath>
						<path clip-path="url(#SVGID_26_)" fill="#897F76" d="M138.708,358.374c-2.82-4.51-68.229-92.475-68.229-92.475
							s1.128,8.458,5.639,18.043c4.511,9.586,50.184,67.101,50.184,67.101s-41.164-45.11-43.417-47.928
							c-2.256-2.82-20.863-17.481-20.863-15.225c0,2.255,14.097,17.48,25.374,28.193c11.278,10.714,34.396,33.834,45.109,50.184
							c10.715,16.354,30.449,44.547,30.449,44.547s-3.946-16.353-6.766-23.12C153.368,380.929,141.527,362.886,138.708,358.374"/>
					</g>
				</g>
				<g opacity="0.12" clip-path="url(#SVGID_20_)">
					<g>
						<defs>
							<rect id="SVGID_27_" x="74.991" y="252.366" width="43.981" height="50.749"/>
						</defs>
						<clipPath id="SVGID_28_">
							<use xlink:href="#SVGID_27_"  overflow="visible"/>
						</clipPath>
						<path clip-path="url(#SVGID_28_)" fill="#897F76" d="M94.162,279.996c-3.947-5.639-19.171-27.628-19.171-27.628
							s6.202,23.117,18.607,34.958c12.405,11.842,25.374,15.789,25.374,15.789S98.109,285.635,94.162,279.996"/>
					</g>
				</g>
				<g opacity="0.12" clip-path="url(#SVGID_20_)">
					<g>
						<defs>
							<rect id="SVGID_29_" x="603.903" y="282.816" width="102.624" height="103.188"/>
						</defs>
						<clipPath id="SVGID_30_">
							<use xlink:href="#SVGID_29_"  overflow="visible"/>
						</clipPath>
						<path clip-path="url(#SVGID_30_)" fill="#897F76" d="M704.272,282.815c0,0-7.33,14.662-13.534,25.938
							c-6.202,11.279-32.704,32.705-46.801,40.599c-14.097,7.895-40.034,36.652-40.034,36.652s11.84-2.256,19.171-7.894
							c7.33-5.639,54.13-24.246,72.176-50.184C713.293,301.987,704.272,282.815,704.272,282.815"/>
					</g>
				</g>
				<g opacity="0.12" clip-path="url(#SVGID_20_)">
					<g>
						<defs>
							<rect id="SVGID_31_" x="613.487" y="368.524" width="81.763" height="33.623"/>
						</defs>
						<clipPath id="SVGID_32_">
							<use xlink:href="#SVGID_31_"  overflow="visible"/>
						</clipPath>
						<path clip-path="url(#SVGID_32_)" fill="#897F76" d="M659.162,390.516c-15.788,4.512-45.673,10.149-45.673,10.149
							s21.426,5.64,47.928-5.075c26.501-10.714,33.833-27.066,33.833-27.066S674.951,386.004,659.162,390.516"/>
					</g>
				</g>
				<g opacity="0.12" clip-path="url(#SVGID_20_)">
					<g>
						<defs>
							<rect id="SVGID_33_" x="622.523" y="293.379" width="60.32" height="58.738"/>
						</defs>
						<clipPath id="SVGID_34_">
							<use xlink:href="#SVGID_33_"  overflow="visible"/>
						</clipPath>
						<path clip-path="url(#SVGID_34_)" fill="#897F76" d="M660.854,300.86c-10.714,12.405-14.099,16.916-23.684,22.555
							c-9.333,5.491-14.389,27.544-14.648,28.703c0.228-1.002,3.809-15.942,16.342-21.937c12.969-6.203,21.99-5.638,28.192-16.352
							c6.203-10.712,15.788-18.608,15.788-18.608S671.567,288.453,660.854,300.86"/>
					</g>
				</g>
			</g>
		</g>
	</g>
	<g clip-path="url(#SVGID_2_)">
		<defs>
			<rect id="SVGID_35_" x="-9" y="10.314" width="789.393" height="1021.566"/>
		</defs>
		<clipPath id="SVGID_36_">
			<use xlink:href="#SVGID_35_"  overflow="visible"/>
		</clipPath>
		<g opacity="0.35" clip-path="url(#SVGID_36_)">
			<g>
				<defs>
					<rect id="SVGID_37_" x="272.085" y="122.172" width="222.927" height="39.714"/>
				</defs>
				<clipPath id="SVGID_38_">
					<use xlink:href="#SVGID_37_"  overflow="visible"/>
				</clipPath>
				<path clip-path="url(#SVGID_38_)" fill="none" stroke="#00AB5D" stroke-miterlimit="10" stroke-dasharray="0.859,0.859" d="
					M494.473,126.832c0,0-22.291,33.543-108.348,34.396c-86.85,0.859-113.506-38.695-113.506-38.695"/>
			</g>
		</g>
		<g opacity="0.35" clip-path="url(#SVGID_36_)">
			<g>
				<defs>
					<rect id="SVGID_39_" x="40.629" y="408.988" width="119.343" height="15.775"/>
				</defs>
				<clipPath id="SVGID_40_">
					<use xlink:href="#SVGID_39_"  overflow="visible"/>
				</clipPath>
				<path clip-path="url(#SVGID_40_)" fill="none" stroke="#00AB5D" stroke-miterlimit="10" stroke-dasharray="0.859,0.859" d="
					M40.802,409.61c0,0,27.341,7.562,61.663,11.052c34.322,3.491,57.507,3.457,57.507,3.457"/>
			</g>
		</g>
		<g opacity="0.35" clip-path="url(#SVGID_36_)">
			<g>
				<defs>
					<rect id="SVGID_41_" x="40.629" y="414.151" width="119.343" height="15.775"/>
				</defs>
				<clipPath id="SVGID_42_">
					<use xlink:href="#SVGID_41_"  overflow="visible"/>
				</clipPath>
				<path clip-path="url(#SVGID_42_)" fill="none" stroke="#00AB5D" stroke-miterlimit="10" stroke-dasharray="0.859,0.859" d="
					M40.802,414.774c0,0,27.341,7.563,61.663,11.053c34.322,3.49,57.507,3.456,57.507,3.456"/>
			</g>
		</g>
		<g opacity="0.35" clip-path="url(#SVGID_36_)">
			<g>
				<defs>
					<rect id="SVGID_43_" x="602.336" y="408.988" width="119.344" height="15.775"/>
				</defs>
				<clipPath id="SVGID_44_">
					<use xlink:href="#SVGID_43_"  overflow="visible"/>
				</clipPath>
				<path clip-path="url(#SVGID_44_)" fill="none" stroke="#00AB5D" stroke-miterlimit="10" stroke-dasharray="0.859,0.859" d="
					M721.507,409.61c0,0-27.341,7.562-61.662,11.052c-34.32,3.491-57.507,3.457-57.507,3.457"/>
			</g>
		</g>
		<g opacity="0.35" clip-path="url(#SVGID_36_)">
			<g>
				<defs>
					<rect id="SVGID_45_" x="602.336" y="414.151" width="119.344" height="15.775"/>
				</defs>
				<clipPath id="SVGID_46_">
					<use xlink:href="#SVGID_45_"  overflow="visible"/>
				</clipPath>
				<path clip-path="url(#SVGID_46_)" fill="none" stroke="#00AB5D" stroke-miterlimit="10" stroke-dasharray="0.859,0.859" d="
					M721.507,414.774c0,0-27.341,7.563-61.662,11.053c-34.32,3.49-57.507,3.456-57.507,3.456"/>
			</g>
		</g>
		<g opacity="0.35" clip-path="url(#SVGID_36_)">
			<g>
				<defs>
					<rect id="SVGID_47_" x="161.209" y="916.931" width="436.622" height="43.103"/>
				</defs>
				<clipPath id="SVGID_48_">
					<use xlink:href="#SVGID_47_"  overflow="visible"/>
				</clipPath>
				<path clip-path="url(#SVGID_48_)" fill="none" stroke="#00AB5D" stroke-miterlimit="10" stroke-dasharray="0.859,0.859" d="
					M161.801,919.78c0,0,9.307,21.525,60.499,28.506c51.192,6.981,105.151,11.642,162.882,11.053
					c57.01-0.583,169.804-19.015,182.08-21.523c25.598-5.236,29.949-20.71,29.949-20.71"/>
			</g>
		</g>
		<g opacity="0.35" clip-path="url(#SVGID_36_)">
			<g>
				<defs>
					<rect id="SVGID_49_" x="159.778" y="921.119" width="440.767" height="45.368"/>
				</defs>
				<clipPath id="SVGID_50_">
					<use xlink:href="#SVGID_49_"  overflow="visible"/>
				</clipPath>
				<path clip-path="url(#SVGID_50_)" fill="none" stroke="#00AB5D" stroke-miterlimit="10" stroke-dasharray="0.859,0.859" d="
					M160.353,926.466c0,0,10.754,21.295,61.947,28.275c51.192,6.979,105.151,11.642,162.882,11.053
					c57.01-0.584,169.804-19.014,182.08-21.524c25.596-5.236,32.687-22.908,32.687-22.908"/>
			</g>
		</g>
		<g opacity="0.35" clip-path="url(#SVGID_36_)">
			<g>
				<defs>
					<rect id="SVGID_51_" x="595.122" y="193.843" width="40.879" height="222.774"/>
				</defs>
				<clipPath id="SVGID_52_">
					<use xlink:href="#SVGID_51_"  overflow="visible"/>
				</clipPath>
				<path clip-path="url(#SVGID_52_)" fill="none" stroke="#00AB5D" stroke-miterlimit="10" d="M635.357,193.846
					c0,0,0.06,16.232-2.267,29.031c-2.329,12.798-15.126,59.918-18.035,73.879c-2.907,13.961-16.286,87.841-18.032,96.566
					c-1.746,8.727-1.164,23.27-1.164,23.27"/>
			</g>
		</g>
		<g opacity="0.35" clip-path="url(#SVGID_36_)">
			<g>
				<defs>
					<rect id="SVGID_53_" x="125.154" y="194.118" width="40.874" height="222.499"/>
				</defs>
				<clipPath id="SVGID_54_">
					<use xlink:href="#SVGID_53_"  overflow="visible"/>
				</clipPath>
				<path clip-path="url(#SVGID_54_)" fill="none" stroke="#00AB5D" stroke-miterlimit="10" d="M125.799,194.121
					c0,0-0.066,15.959,2.261,28.756c2.326,12.798,15.125,59.918,18.033,73.879c2.909,13.961,16.289,87.841,18.033,96.566
					c1.746,8.727,1.165,23.27,1.165,23.27"/>
			</g>
		</g>
		<g opacity="0.35" clip-path="url(#SVGID_36_)">
			<g>
				<defs>
					<rect id="SVGID_55_" x="269.108" y="124.925" width="229.37" height="41.475"/>
				</defs>
				<clipPath id="SVGID_56_">
					<use xlink:href="#SVGID_55_"  overflow="visible"/>
				</clipPath>
				<path clip-path="url(#SVGID_56_)" fill="none" stroke="#00AB5D" stroke-miterlimit="10" stroke-dasharray="0.859,0.859" d="
					M497.955,129.047c0,0-25.827,35.843-111.882,36.695c-86.851,0.86-116.441-40.44-116.441-40.44"/>
			</g>
		</g>
	</g>
</g>
</svg>
