<?xml version="1.0" encoding="utf-8"?>
<!-- Generator: Adobe Illustrator 19.1.0, SVG Export Plug-In . SVG Version: 6.00 Build 0)  -->
<!DOCTYPE svg PUBLIC "-//W3C//DTD SVG 1.1//EN" "http://www.w3.org/Graphics/SVG/1.1/DTD/svg11.dtd">
<svg version="1.1" xmlns="http://www.w3.org/2000/svg" xmlns:xlink="http://www.w3.org/1999/xlink" x="0px" y="0px"
	 viewBox="33 -33 100 100" enable-background="new 33 -33 100 100" xml:space="preserve">
<g id="AREA_3">
	<g>
		<path fill-rule="evenodd" clip-rule="evenodd" fill="none" stroke="#720018" stroke-width="4.4156" d="M109.5-14.3
			c-5.4,0.9-11.1,4.6-13.4,9.9c-5.9-5.1-14.9-6.7-22.4-3.9C69-6.5,64.1-2.2,62.3,2.6l-8.8-7.7c7.9-11.6,20-19.5,34.4-18.2
			C95.8-22.2,103-19.1,109.5-14.3z"/>
		<path fill-rule="evenodd" clip-rule="evenodd" fill="none" stroke="#720018" stroke-width="4.4156" d="M99.5,0.9
			c1,1.7,1.9,3.5,2.5,5.4l-19.2,6.9c-0.3-0.2-0.6-0.7-0.9-1.1c-0.9-1-2.2-1.3-3.5-1.5c-1.2,0.2-2.3,0.7-3.1,1.7
			c-0.9,1.1-1.2,2.8-0.8,4.3c0.7,1.7,2.3,2.8,4,2.9c1.1-0.1,2-0.4,2.8-1.1L96.9,31c-1.6,1.7-4,2.1-6.5,1.7c-2.1,1.6-2.4,4.4-1.9,7
			l1.2,3.5c-3.1,0-5.3-2.1-7.5-4.3c-3.9-3.8-6.6-10.6-12.7-10.7l-1.9-0.1c1.3-1.7,2.2-4.2,1.1-6.2c-4.6-4.1-7-9.4-6.3-15.7
			c0.8-6.6,7-12.6,13.3-14.2C84.5-10.4,94.3-7.3,99.5,0.9z"/>
		<path fill-rule="evenodd" clip-rule="evenodd" fill="none" stroke="#720018" stroke-width="4.4156" d="M114.6,15.9l-32.1-0.6
			C82,15,81.9,15.7,81.8,16l0.3,0.2l25.9,0.6l5.5,11.1c-4.4,1.7-9.3,2.9-13.8,4.2L81.4,17.2c-0.8,0.8-1.8,1.4-3,1.3
			c-0.9-0.2-1.8-0.4-2.4-1.2c-0.8-0.8-0.9-2.1-0.7-3.3c0.4-1.3,1.8-2.3,3.2-2.4c1,0,1.8,0.3,2.5,0.9c0.5,0.5,0.9,1.1,1.2,1.7
			l22.4-7.8C108.1,9.5,111.1,12.6,114.6,15.9z"/>
		<path fill-rule="evenodd" clip-rule="evenodd" fill="none" stroke="#720018" stroke-width="4.4156" d="M59.9,22.3
			c-0.6,1.8-0.6,4.2,0.8,5.6c3.6,3.2,9.3-0.4,12.9,2.7c4.7,4.3,8,11.1,14.1,13.4c1.8,0.5,3.7,0,4.9-1.5c0.8-1,1.1-2.1,1.7-3.2
			c3.1,4.6,6.7,9.3,5.9,15.2c-0.6,2.4-3.1,4-5.2,4.8c-1.6,0.4-3.5,0.6-4.9-0.2c-5-4.1-6.8-10-10.4-15c-4.6-7.7-12.8-9.6-21.1-9.6
			c-2.1-0.4-4.4-1.5-5.3-3.7c-0.5-2.1-0.1-4.2,1.5-5.7C56.2,23.5,58,22.8,59.9,22.3z"/>
	</g>
</g>
<g id="AREA_2">
	<g>
		<path fill-rule="evenodd" clip-rule="evenodd" fill="none" stroke="#FDBB2D" stroke-width="1.9429" d="M109.5-14.3
			c-5.4,0.9-11.1,4.6-13.4,9.9c-5.9-5.1-14.9-6.7-22.4-3.9C69-6.5,64.1-2.2,62.3,2.6l-8.8-7.7c7.9-11.6,20-19.5,34.4-18.2
			C95.8-22.2,103-19.1,109.5-14.3z"/>
		<path fill-rule="evenodd" clip-rule="evenodd" fill="none" stroke="#FDBB2D" stroke-width="1.9429" d="M99.5,0.9
			c1,1.7,1.9,3.5,2.5,5.4l-19.2,6.9c-0.3-0.2-0.6-0.7-0.9-1.1c-0.9-1-2.2-1.3-3.5-1.5c-1.2,0.2-2.3,0.7-3.1,1.7
			c-0.9,1.1-1.2,2.8-0.8,4.3c0.7,1.7,2.3,2.8,4,2.9c1.1-0.1,2-0.4,2.8-1.1L96.9,31c-1.6,1.7-4,2.1-6.5,1.7c-2.1,1.6-2.4,4.4-1.9,7
			l1.2,3.5c-3.1,0-5.3-2.1-7.5-4.3c-3.9-3.8-6.6-10.6-12.7-10.7l-1.9-0.1c1.3-1.7,2.2-4.2,1.1-6.2c-4.6-4.1-7-9.4-6.3-15.7
			c0.8-6.6,7-12.6,13.3-14.2C84.5-10.4,94.3-7.3,99.5,0.9z"/>
		<path fill-rule="evenodd" clip-rule="evenodd" fill="none" stroke="#FDBB2D" stroke-width="1.9429" d="M114.6,15.9l-32.1-0.6
			C82,15,81.9,15.7,81.8,16l0.3,0.2l25.9,0.6l5.5,11.1c-4.4,1.7-9.3,2.9-13.8,4.2L81.4,17.2c-0.8,0.8-1.8,1.4-3,1.3
			c-0.9-0.2-1.8-0.4-2.4-1.2c-0.8-0.8-0.9-2.1-0.7-3.3c0.4-1.3,1.8-2.3,3.2-2.4c1,0,1.8,0.3,2.5,0.9c0.5,0.5,0.9,1.1,1.2,1.7
			l22.4-7.8C108.1,9.5,111.1,12.6,114.6,15.9z"/>
		<path fill-rule="evenodd" clip-rule="evenodd" fill="none" stroke="#FDBB2D" stroke-width="1.9429" d="M59.9,22.3
			c-0.6,1.8-0.6,4.2,0.8,5.6c3.6,3.2,9.3-0.4,12.9,2.7c4.7,4.3,8,11.1,14.1,13.4c1.8,0.5,3.7,0,4.9-1.5c0.8-1,1.1-2.1,1.7-3.2
			c3.1,4.6,6.7,9.3,5.9,15.2c-0.6,2.4-3.1,4-5.2,4.8c-1.6,0.4-3.5,0.6-4.9-0.2c-5-4.1-6.8-10-10.4-15c-4.6-7.7-12.8-9.6-21.1-9.6
			c-2.1-0.4-4.4-1.5-5.3-3.7c-0.5-2.1-0.1-4.2,1.5-5.7C56.2,23.5,58,22.8,59.9,22.3z"/>
	</g>
</g>
<g id="AREA_1">
	<g>
		<path fill-rule="evenodd" clip-rule="evenodd" fill="#004D86" d="M109.5-14.3c-5.4,0.9-11.1,4.6-13.4,9.9
			c-5.9-5.1-14.9-6.7-22.4-3.9C69-6.5,64.1-2.2,62.3,2.6l-8.8-7.7c7.9-11.6,20-19.5,34.4-18.2C95.8-22.2,103-19.1,109.5-14.3z"/>
		<path fill-rule="evenodd" clip-rule="evenodd" fill="#004D86" d="M99.5,0.9c1,1.7,1.9,3.5,2.5,5.4l-19.2,6.9
			c-0.3-0.2-0.6-0.7-0.9-1.1c-0.9-1-2.2-1.3-3.5-1.5c-1.2,0.2-2.3,0.7-3.1,1.7c-0.9,1.1-1.2,2.8-0.8,4.3c0.7,1.7,2.3,2.8,4,2.9
			c1.1-0.1,2-0.4,2.8-1.1L96.9,31c-1.6,1.7-4,2.1-6.5,1.7c-2.1,1.6-2.4,4.4-1.9,7l1.2,3.5c-3.1,0-5.3-2.1-7.5-4.3
			c-3.9-3.8-6.6-10.6-12.7-10.7l-1.9-0.1c1.3-1.7,2.2-4.2,1.1-6.2c-4.6-4.1-7-9.4-6.3-15.7c0.8-6.6,7-12.6,13.3-14.2
			C84.5-10.4,94.3-7.3,99.5,0.9z"/>
		<path fill-rule="evenodd" clip-rule="evenodd" fill="#004D86" d="M114.6,15.9l-32.1-0.6C82,15,81.9,15.7,81.8,16l0.3,0.2l25.9,0.6
			l5.5,11.1c-4.4,1.7-9.3,2.9-13.8,4.2L81.4,17.2c-0.8,0.8-1.8,1.4-3,1.3c-0.9-0.2-1.8-0.4-2.4-1.2c-0.8-0.8-0.9-2.1-0.7-3.3
			c0.4-1.3,1.8-2.3,3.2-2.4c1,0,1.8,0.3,2.5,0.9c0.5,0.5,0.9,1.1,1.2,1.7l22.4-7.8C108.1,9.5,111.1,12.6,114.6,15.9z"/>
		<path fill-rule="evenodd" clip-rule="evenodd" fill="#004D86" d="M59.9,22.3c-0.6,1.8-0.6,4.2,0.8,5.6c3.6,3.2,9.3-0.4,12.9,2.7
			c4.7,4.3,8,11.1,14.1,13.4c1.8,0.5,3.7,0,4.9-1.5c0.8-1,1.1-2.1,1.7-3.2c3.1,4.6,6.7,9.3,5.9,15.2c-0.6,2.4-3.1,4-5.2,4.8
			c-1.6,0.4-3.5,0.6-4.9-0.2c-5-4.1-6.8-10-10.4-15c-4.6-7.7-12.8-9.6-21.1-9.6c-2.1-0.4-4.4-1.5-5.3-3.7c-0.5-2.1-0.1-4.2,1.5-5.7
			C56.2,23.5,58,22.8,59.9,22.3z"/>
	</g>
</g>
</svg>
