<?xml version="1.0" encoding="utf-8"?>
<!-- Generator: Adobe Illustrator 19.1.0, SVG Export Plug-In . SVG Version: 6.00 Build 0)  -->
<!DOCTYPE svg PUBLIC "-//W3C//DTD SVG 1.1//EN" "http://www.w3.org/Graphics/SVG/1.1/DTD/svg11.dtd">
<svg version="1.1" xmlns="http://www.w3.org/2000/svg" xmlns:xlink="http://www.w3.org/1999/xlink" x="0px" y="0px"
	 viewBox="33 -33 100 100" enable-background="new 33 -33 100 100" xml:space="preserve">
<g id="AREA_3">
	<g>
		<path fill="none" stroke="#720018" stroke-width="5.2662" stroke-miterlimit="10" d="M75.3-25.9c0.7,0.4-2.7,3-2.7,7.9
			c6.6,0.8,3.9,16.3,0.7,18.7c-2.2,1.7-4.3-0.3-5.6-2c-2.2-3-6.2-12.2-0.5-16c0.1-2.3,1.4-4.7,4.1-7.1
			C73.1-26.1,74.2-26.9,75.3-25.9z"/>
		<path fill="none" stroke="#720018" stroke-width="5.2662" stroke-miterlimit="10" d="M87.6-2c-1.4,0.6-4.8-0.4-4.8-0.4
			c-3-1.6-7.6-10.5-4.2-15c0.9-1.3,2.4-1.6,2.5-3.5c-0.4-3.1-2.6-4.3-2.2-5c1.1-2.2,8.5,1.6,8.4,7.4C91-15.4,91.5-4.8,87.6-2z"/>
		<path fill="none" stroke="#720018" stroke-width="5.2662" stroke-miterlimit="10" d="M100.7-16.5c4.1,4.4,5.7,9.3,3.8,15
			c0,0-1.4,4.1-7.8,0.3C95.9-2,95-3.9,94.6-6.8c-3.6-3.7-4-6.9,0.5-9.6c0.8-2.6-1-5.8-2.7-7.5c-0.1-0.6,0.1-0.9,0.7-1.1
			C97.3-25.2,100.4-21.6,100.7-16.5z"/>
		<path fill="none" stroke="#720018" stroke-width="5.2662" stroke-miterlimit="10" d="M108-21.4c4.1,1.3,4.7,2.6,6,6.8
			c0.7,0.2,1.3,0.5,1.9,1c1.3,1.1,1.3,4.7,1.3,6.3c0,4-2.8,10-3.6,11.2c-1.1,1.3-3.2,0.5-4.4-0.6c-2.8-3.1-1.2-8.4-2.3-10.5
			c-2.2-2.7-0.4-6,1.4-7.1c1.3-1.1,0.7-3.1-1.7-5.6C105-21.1,105.5-21.9,108-21.4z"/>
		<path fill="none" stroke="#720018" stroke-width="5.2662" stroke-miterlimit="10" d="M57.9-9.3c0.2,0.7,2.1,0.4,3,1
			c2.6,1.4,2.5,4.6,3.7,7.1c3.5,7.3,1.8,10.9-1.5,11.5c-5.1,1-13.8-5.1-12.7-15.9c0.1-1.2,1-1.7,1.7-3.8c1.1-3.7,3.8-7.8,6-7.8
			c0.6,0,1,1.1,1.1,1.5C59.2-14.9,57.8-11.3,57.9-9.3z"/>
		<path fill="none" stroke="#720018" stroke-width="5.2662" stroke-miterlimit="10" d="M110.5,5.9c8.6,6.1,6.2,14.7,1.6,23.6
			c-9.1,14-7.7,20.3-12.3,23.4c-5.5,4.3-7.1,6.7-16.4,6.8l-0.1-0.2c-3.9,0.1-6.6-1.7-8.5-5.3c-2-3.8,0.7-9.9-3.5-22.2
			c-1.7-4.8-7.7-10.6-6.1-16.3C67,7.6,71.9,2.1,80-0.7C88.9-3.9,106.7,3.1,110.5,5.9z"/>
	</g>
</g>
<g id="AREA_2">
	<g>
		<path fill="none" stroke="#FDBB2D" stroke-width="2.3937" stroke-miterlimit="10" d="M75.3-25.9c0.7,0.4-2.7,3-2.7,7.9
			c6.6,0.8,3.9,16.3,0.7,18.7c-2.2,1.7-4.3-0.3-5.6-2c-2.2-3-6.2-12.2-0.5-16c0.1-2.3,1.4-4.7,4.1-7.1
			C73.1-26.1,74.2-26.9,75.3-25.9z"/>
		<path fill="none" stroke="#FDBB2D" stroke-width="2.3937" stroke-miterlimit="10" d="M87.6-2c-1.4,0.6-4.8-0.4-4.8-0.4
			c-3-1.6-7.6-10.5-4.2-15c0.9-1.3,2.4-1.6,2.5-3.5c-0.4-3.1-2.6-4.3-2.2-5c1.1-2.2,8.5,1.6,8.4,7.4C91-15.4,91.5-4.8,87.6-2z"/>
		<path fill="none" stroke="#FDBB2D" stroke-width="2.3937" stroke-miterlimit="10" d="M100.7-16.5c4.1,4.4,5.7,9.3,3.8,15
			c0,0-1.4,4.1-7.8,0.3C95.9-2,95-3.9,94.6-6.8c-3.6-3.7-4-6.9,0.5-9.6c0.8-2.6-1-5.8-2.7-7.5c-0.1-0.6,0.1-0.9,0.7-1.1
			C97.3-25.2,100.4-21.6,100.7-16.5z"/>
		<path fill="none" stroke="#FDBB2D" stroke-width="2.3937" stroke-miterlimit="10" d="M108-21.4c4.1,1.3,4.7,2.6,6,6.8
			c0.7,0.2,1.3,0.5,1.9,1c1.3,1.1,1.3,4.7,1.3,6.3c0,4-2.8,10-3.6,11.2c-1.1,1.3-3.2,0.5-4.4-0.6c-2.8-3.1-1.2-8.4-2.3-10.5
			c-2.2-2.7-0.4-6,1.4-7.1c1.3-1.1,0.7-3.1-1.7-5.6C105-21.1,105.5-21.9,108-21.4z"/>
		<path fill="none" stroke="#FDBB2D" stroke-width="2.3937" stroke-miterlimit="10" d="M57.9-9.3c0.2,0.7,2.1,0.4,3,1
			c2.6,1.4,2.5,4.6,3.7,7.1c3.5,7.3,1.8,10.9-1.5,11.5c-5.1,1-13.8-5.1-12.7-15.9c0.1-1.2,1-1.7,1.7-3.8c1.1-3.7,3.8-7.8,6-7.8
			c0.6,0,1,1.1,1.1,1.5C59.2-14.9,57.8-11.3,57.9-9.3z"/>
		<path fill="none" stroke="#FDBB2D" stroke-width="2.3937" stroke-miterlimit="10" d="M110.5,5.9c8.6,6.1,6.2,14.7,1.6,23.6
			c-9.1,14-7.7,20.3-12.3,23.4c-5.5,4.3-7.1,6.7-16.4,6.8l-0.1-0.2c-3.9,0.1-6.6-1.7-8.5-5.3c-2-3.8,0.7-9.9-3.5-22.2
			c-1.7-4.8-7.7-10.6-6.1-16.3C67,7.6,71.9,2.1,80-0.7C88.9-3.9,106.7,3.1,110.5,5.9z"/>
	</g>
</g>
<g id="AREA_1">
	<g>
		<path fill="#004D86" d="M75.3-25.9c0.7,0.4-2.7,3-2.7,7.9c6.6,0.8,3.9,16.3,0.7,18.7c-2.2,1.7-4.3-0.3-5.6-2
			c-2.2-3-6.2-12.2-0.5-16c0.1-2.3,1.4-4.7,4.1-7.1C73.1-26.1,74.2-26.9,75.3-25.9z"/>
		<path fill="#004D86" d="M87.6-2c-1.4,0.6-4.8-0.4-4.8-0.4c-3-1.6-7.6-10.5-4.2-15c0.9-1.3,2.4-1.6,2.5-3.5c-0.4-3.1-2.6-4.3-2.2-5
			c1.1-2.2,8.5,1.6,8.4,7.4C91-15.4,91.5-4.8,87.6-2z"/>
		<path fill="#004D86" d="M100.7-16.5c4.1,4.4,5.7,9.3,3.8,15c0,0-1.4,4.1-7.8,0.3C95.9-2,95-3.9,94.6-6.8c-3.6-3.7-4-6.9,0.5-9.6
			c0.8-2.6-1-5.8-2.7-7.5c-0.1-0.6,0.1-0.9,0.7-1.1C97.3-25.2,100.4-21.6,100.7-16.5z"/>
		<path fill="#004D86" d="M108-21.4c4.1,1.3,4.7,2.6,6,6.8c0.7,0.2,1.3,0.5,1.9,1c1.3,1.1,1.3,4.7,1.3,6.3c0,4-2.8,10-3.6,11.2
			c-1.1,1.3-3.2,0.5-4.4-0.6c-2.8-3.1-1.2-8.4-2.3-10.5c-2.2-2.7-0.4-6,1.4-7.1c1.3-1.1,0.7-3.1-1.7-5.6
			C105-21.1,105.5-21.9,108-21.4z"/>
		<path fill="#004D86" d="M57.9-9.3c0.2,0.7,2.1,0.4,3,1c2.6,1.4,2.5,4.6,3.7,7.1c3.5,7.3,1.8,10.9-1.5,11.5
			c-5.1,1-13.8-5.1-12.7-15.9c0.1-1.2,1-1.7,1.7-3.8c1.1-3.7,3.8-7.8,6-7.8c0.6,0,1,1.1,1.1,1.5C59.2-14.9,57.8-11.3,57.9-9.3z"/>
		<path fill="#004D86" d="M110.5,5.9c8.6,6.1,6.2,14.7,1.6,23.6c-9.1,14-7.7,20.3-12.3,23.4c-5.5,4.3-7.1,6.7-16.4,6.8l-0.1-0.2
			c-3.9,0.1-6.6-1.7-8.5-5.3c-2-3.8,0.7-9.9-3.5-22.2c-1.7-4.8-7.7-10.6-6.1-16.3C67,7.6,71.9,2.1,80-0.7
			C88.9-3.9,106.7,3.1,110.5,5.9z"/>
	</g>
</g>
</svg>
