<?xml version="1.0" encoding="utf-8"?>
<!-- Generator: Adobe Illustrator 19.1.0, SVG Export Plug-In . SVG Version: 6.00 Build 0)  -->
<!DOCTYPE svg PUBLIC "-//W3C//DTD SVG 1.1//EN" "http://www.w3.org/Graphics/SVG/1.1/DTD/svg11.dtd">
<svg version="1.1" xmlns="http://www.w3.org/2000/svg" xmlns:xlink="http://www.w3.org/1999/xlink" x="0px" y="0px"
	 viewBox="33 -33 100 100" enable-background="new 33 -33 100 100" xml:space="preserve">
<g id="AREA_3">
	<path stroke="#00AB5D" stroke-width="2.2426" stroke-linejoin="round" stroke-miterlimit="2" d="M125.6-7.3
		c-1.2,0.5-2.2,1.6-3.5,1.8c-0.3-0.1-0.7-0.3-0.9-0.6l1.5-1.7c2.9-2.7,5.5-5.8,5.9-9.8c-2.1,1.3-4.5,2-7.1,2.2
		c-10.9,0.7-20.7-0.3-31.4-0.7c-8.5-0.1-17.9,0-25,4.2c-6.3,3.8-8.7,10.4-8.7,17.4C56,5.9,55.4,6,55,6.4c-6.8,4-12.1,10.6-16.2,17.2
		c2.7,2.1,5.4,4.4,8.4,5.8c5.8,2.5,11.7,4.8,17.9,6.3c1.6,1,1.3,3.1,1.5,4.8c0.5,5.1,4.7,8.9,8.6,12.2c0.3-1.6,0.9-3.1,2.3-4.3
		c4-3.3,8.1-6.2,12.3-9c3.8-2.7,8-4.5,12-6.7c6.5-3.6,9.9-10.3,11.3-17.1l0.9-0.3c2-0.5,3.5-2.6,4-4.4c-0.5,0.3-1.2,0.7-1.8,0.3
		c-0.3-0.4-0.7-0.7-0.4-1.3c0.2-0.3,0.6-0.5,1-0.7c1.9-0.5,3.8-2.2,4.7-4c-0.6,0.5-1.3,0.8-2,0.8c-0.7-0.2-1.6,0-1.9-0.7
		c0.7-1,1.7-1.4,2.7-1.9c1.2-0.6,1.9-1.9,2.4-3c-2,0.6-4.2,1.4-5.9-0.4c1-1,2.5-1,3.7-1.6C122.6-3.1,124-5.3,125.6-7.3z"/>
</g>
<g id="AREA_2">
	<g>
		<path fill="#004D86" d="M116.4-5.3c2.9-2.6,6.8-4.7,8.2-8.4v-0.2c-7.2,0.6-15.5,0.6-23,0.4l-10.8-0.3c-7.4-0.3-16.1-0.3-22.5,2
			c-4.1,1.3-6.6,5.5-8.1,9.1c0.1,0,0.2-0.1,0.4-0.2c2.2-1.2,4.2-2.8,5.8-4.8c2.9-3.9,8-4.2,12.6-3.4l0.1,0.1c-1,1.2-2.3,2-3.4,2.9
			C80-8.5,84.9-8.8,88-5v0.1c-1.6-0.1-2.5,1.3-4.1,1.3c0.6,0.1,1.1,0.5,1.7,0.6c2.1,1.1,3.9,3.3,3.5,5.9L89,3
			c-0.5-0.4-1-0.8-1.5-1.1c-0.7-0.3-1.4,0-2,0.3c1.9,1.1,3.4,3,4,5.1c0.9,2.5,1.4,5.6,0.5,8.3c-0.4,1.8,0.2,3.4,0.5,5
			c-0.8-0.1-1.7-0.1-2.4-0.6c-0.4-0.3-0.7-0.7-0.7-1.2c0,0,0,0,0,0.1c-0.7,1.2-0.2,2.7,0.2,4c1,2.8-0.3,5.6-2,7.8
			c-3.1,3-5.5,6.6-7.9,10.1c-1.3,1.8-3.2,3.4-3.8,5.5c-0.3,0.8,0.2,1.5,0.7,2.2c4.7-4.8,9.6-8.8,15.3-12l10.3-5.6l1.6-1
			c4-2.8,9.4-6.7,8.9-12.2l-2.2-0.2l0.2-1.2c0.2-0.3,0-1,0.6-0.9c1.9,0.2,3.6-0.9,4.8-2.5c-1.4-0.2-3.3-0.2-4.2-1.6
			c-0.2-0.3-0.4-0.8-0.5-1.1c2.4-0.5,5.2-0.5,7-2.4c-0.5-0.2-1.1-0.3-1.6-0.5c-1-0.4-2,0-2.7-1c-0.2-0.6,0.2-1.1,0.5-1.4
			c2-0.3,3.9-0.7,5.6-1.5V3.2c-0.4-0.1-0.8-0.1-1.2-0.2c-1.2-1-2.3-2-3.5-2.7c0.1-0.8,0.2-1.5,0.7-2.1c0.7,0,1.3,0.2,2,0.1
			c1.4-0.1,2.7-0.7,3.3-2l-2.8,0V-5.3z"/>
		<path fill="#004D86" d="M87.4,18.8C87.4,18.8,87.4,18.8,87.4,18.8C87.4,18.8,87.4,18.8,87.4,18.8z"/>
		<path fill="#004D86" d="M59.5,6.4c1.6-0.2,2.2,1.7,3.7,1.6c0.2-0.1,0.3-0.3,0.4-0.5c0.3-1.8,1.8-3.5,3.6-3.9c0.3,0,0.7-0.2,1,0.1
			C68.4,5,68,6.7,69.6,7.4c0.7-0.5,1.4-1.3,2.4-1.3c0.4,0.4,0.3,1,0.5,1.5c0.8,2.6-1.8,3.1-2.8,4.9c0.6,0.8,1.3,1.3,2.2,1.4
			c2-0.8,3.6-3,4-5.1c0.6-3.2-0.9-6.1-3.6-7.8c1.7-1.9,4.5-1.7,5.8-4.1c-1.5-1.3-3.4-1.5-5.2-0.7c-3.5,2-6.7,5-10.1,7.6
			c-1.1,0.9-2.5,1-3.4,2.4C59.3,6.3,59.4,6.3,59.5,6.4z"/>
		<path fill="#004D86" d="M66.3,5.6c-0.2,0.2-0.2,0.5-0.1,0.8c0.2,0.2,0.4,0.4,0.7,0.3c0.3-0.1,0.5-0.4,0.4-0.8
			C67.3,5.5,66.6,5.3,66.3,5.6z"/>
		<path fill="#004D86" d="M77.8,30.4c2-2.5,0.7-6.1-0.5-8.6c-1.9-3.9-6-5.2-9.8-6.2c-4.6-1-6.1-6.5-9.8-8.9
			c-6.2,3-10.6,9.5-14.7,14.9c-0.6,0.3-0.1,0.8,0.1,1.2c0.4,0.3,1,0.2,1.5,0.1c1.7-0.5,3.6-0.2,5.5,0.1c5.9,1,11.3,0.1,17.5,0.3
			c1.7-0.1,3.7-0.3,4.4-2.1c0.2-0.4,0-1,0-1.4c0.7,0.2,1.4,0.1,2,0.5c1.2,1,1.8,2.5,1.6,4.1c-0.2,1-0.1,2.1-0.9,2.8
			c-1-0.8-0.8-2.1-1.6-3c-2,0.6-4.2,1.3-6.2,1.7c-1.3,0.2-2.4,0.3-3.7,0.4c-6.4,0.8-12.1-1.9-18.4-1c4.8,3.3,10.3,4.9,15.9,6.3
			C65.9,32.7,73.4,35.4,77.8,30.4z M58.9,12.8c-0.8,1.1-2.1,1.4-3.3,1.9c0.2-0.3,0.6-0.6,0.7-1c0.1-0.5-0.3-0.9-0.6-1.2
			c-1.4,0-2.4,1.2-3.2,2.2c-0.2,0.2-0.5,0.5-0.8,0.3c-0.3-0.2-0.4-0.5-0.3-0.8c1.7-1.9,3.9-3.4,6.5-3c0.4,0,0.7,0.4,0.9,0.7
			C59.1,12.3,59,12.5,58.9,12.8z"/>
	</g>
</g>
<g id="AREA_1">
	<g>
		<path d="M125.6-7.3c-1.2,0.5-2.2,1.6-3.5,1.8c-0.3-0.1-0.7-0.3-0.9-0.6l1.5-1.7c2.9-2.7,5.5-5.8,5.9-9.8c-2.1,1.3-4.5,2-7.1,2.2
			c-10.9,0.7-20.7-0.3-31.4-0.7c-8.5-0.1-17.9,0-25,4.2c-6.3,3.8-8.7,10.4-8.7,17.4C56,5.9,55.4,6,55,6.4
			c-6.8,4-12.1,10.6-16.2,17.2c2.7,2.1,5.4,4.4,8.4,5.8c5.8,2.5,11.7,4.8,17.9,6.3c1.6,1,1.3,3.1,1.5,4.8c0.5,5.1,4.7,8.9,8.6,12.2
			c0.3-1.6,0.9-3.1,2.3-4.3c4-3.3,8.1-6.2,12.3-9c3.8-2.7,8-4.5,12-6.7c6.5-3.6,9.9-10.3,11.3-17.1l0.9-0.3c2-0.5,3.5-2.6,4-4.4
			c-0.5,0.3-1.2,0.7-1.8,0.3c-0.3-0.4-0.7-0.7-0.4-1.3c0.2-0.3,0.6-0.5,1-0.7c1.9-0.5,3.8-2.2,4.7-4c-0.6,0.5-1.3,0.8-2,0.8
			c-0.7-0.2-1.6,0-1.9-0.7c0.7-1,1.7-1.4,2.7-1.9c1.2-0.6,1.9-1.9,2.4-3c-2,0.6-4.2,1.4-5.9-0.4c1-1,2.5-1,3.7-1.6
			C122.6-3.1,124-5.3,125.6-7.3z M59.4,6.2c0.9-1.3,2.4-1.5,3.4-2.4c3.4-2.6,6.6-5.5,10.1-7.6c1.8-0.8,3.7-0.7,5.2,0.7
			c-1.3,2.4-4.1,2.2-5.8,4.1c2.7,1.7,4.2,4.6,3.6,7.8c-0.4,2.1-2,4.3-4,5.1c-0.9-0.1-1.7-0.6-2.2-1.4c1-1.8,3.7-2.3,2.8-4.9
			c-0.2-0.5-0.1-1.1-0.5-1.5c-1,0-1.7,0.8-2.4,1.3C68,6.7,68.4,5,68.2,3.7c-0.3-0.2-0.7,0-1-0.1c-1.8,0.4-3.3,2.2-3.6,3.9
			c-0.1,0.2-0.2,0.4-0.4,0.5c-1.5,0.1-2.1-1.8-3.7-1.6C59.4,6.3,59.3,6.3,59.4,6.2z M66.9,6.7c-0.3,0.1-0.6-0.1-0.7-0.3
			c-0.1-0.2-0.1-0.6,0.1-0.8c0.3-0.3,1-0.1,1,0.3C67.4,6.3,67.3,6.6,66.9,6.7z M60.5,31.8c-5.6-1.4-11.1-3-15.9-6.3
			c6.4-1,12,1.8,18.4,1c1.3-0.1,2.4-0.3,3.7-0.4c2.1-0.4,4.2-1,6.2-1.7c0.8,0.9,0.6,2.2,1.6,3c0.9-0.7,0.7-1.8,0.9-2.8
			c0.2-1.6-0.3-3.1-1.6-4.1c-0.5-0.4-1.3-0.4-2-0.5c0,0.4,0.2,0.9,0,1.4c-0.7,1.8-2.7,2-4.4,2.1C61.4,23.2,56,24,50.1,23.1
			c-1.9-0.3-3.8-0.6-5.5-0.1c-0.4,0.1-1.1,0.2-1.5-0.1C43,22.5,42.5,22,43,21.7c4.1-5.4,8.5-11.9,14.7-14.9c3.7,2.4,5.1,7.9,9.8,8.9
			c3.8,0.9,7.9,2.3,9.8,6.2c1.2,2.5,2.5,6.1,0.5,8.6C73.4,35.4,65.9,32.7,60.5,31.8z M115.8-1.7c-0.7,0-1.4-0.1-2-0.1
			c-0.5,0.6-0.6,1.3-0.7,2.1c1.3,0.7,2.4,1.7,3.5,2.7c0.3,0.1,0.8,0.1,1.2,0.2v0.1c-1.7,0.8-3.6,1.2-5.6,1.5
			c-0.3,0.3-0.7,0.8-0.5,1.4c0.7,1,1.7,0.6,2.7,1c0.5,0.2,1.1,0.3,1.6,0.5c-1.8,1.9-4.6,1.9-7,2.4c0.1,0.3,0.3,0.8,0.5,1.1
			c1,1.4,2.8,1.4,4.2,1.6c-1.2,1.6-2.9,2.7-4.8,2.5c-0.6-0.2-0.4,0.6-0.6,0.9l-0.2,1.2l2.2,0.2c0.4,5.5-4.9,9.4-8.9,12.2l-1.6,1
			l-10.3,5.6c-5.7,3.2-10.6,7.2-15.3,12c-0.5-0.6-1-1.3-0.7-2.2c0.7-2.1,2.5-3.7,3.8-5.5c2.4-3.5,4.9-7.1,7.9-10.1
			c1.7-2.2,3.1-5,2-7.8c-0.4-1.2-0.9-2.7-0.2-4c0,0,0-0.1,0-0.1c0,0,0,0,0,0c0,0,0,0,0,0c0.1,0.4,0.3,0.9,0.7,1.2
			c0.7,0.4,1.6,0.5,2.4,0.6c-0.2-1.5-0.8-3.2-0.5-5c0.9-2.7,0.3-5.7-0.5-8.3c-0.6-2-2.1-4-4-5.1c0.6-0.3,1.3-0.6,2-0.3
			c0.6,0.2,1,0.7,1.5,1.1l0.1-0.1c0.4-2.7-1.4-4.8-3.5-5.9c-0.6-0.2-1.1-0.5-1.7-0.6C85.5-3.6,86.4-5,88-4.9V-5
			c-3-3.7-8-3.5-12.4-2.9c1.1-0.9,2.4-1.8,3.4-2.9l-0.1-0.1c-4.5-0.8-9.7-0.5-12.6,3.4c-1.6,2-3.5,3.7-5.8,4.8
			c-0.1,0-0.2,0.2-0.4,0.2c1.6-3.6,4-7.8,8.1-9.1c6.4-2.3,15.1-2.3,22.5-2l10.8,0.3c7.5,0.2,15.8,0.2,23-0.4v0.2
			c-1.5,3.6-5.4,5.8-8.2,8.4v1.5l2.8,0C118.5-2.5,117.2-1.8,115.8-1.7z"/>
		<path d="M58,11.3c-2.6-0.4-4.9,1.1-6.5,3c0,0.3,0,0.6,0.3,0.8c0.3,0.2,0.6-0.1,0.8-0.3c0.7-1,1.8-2.3,3.2-2.2
			c0.3,0.3,0.7,0.7,0.6,1.2c-0.2,0.4-0.5,0.7-0.7,1c1.2-0.5,2.4-0.8,3.3-1.9c0.1-0.3,0.2-0.5,0-0.8C58.7,11.7,58.4,11.4,58,11.3z"/>
	</g>
</g>
</svg>
