<?xml version="1.0" encoding="utf-8"?>
<!-- Generator: Adobe Illustrator 19.1.0, SVG Export Plug-In . SVG Version: 6.00 Build 0)  -->
<!DOCTYPE svg PUBLIC "-//W3C//DTD SVG 1.1//EN" "http://www.w3.org/Graphics/SVG/1.1/DTD/svg11.dtd">
<svg version="1.1" xmlns="http://www.w3.org/2000/svg" xmlns:xlink="http://www.w3.org/1999/xlink" x="0px" y="0px"
	 viewBox="33 -33 100 100" enable-background="new 33 -33 100 100" xml:space="preserve">
<g id="AREA_3">
	<path fill="none" stroke="#720018" stroke-width="2.0095" stroke-linejoin="round" stroke-miterlimit="10" d="M126.6,41.5l-0.1-0.1
		l-0.1-0.1c0,0-0.1,0-0.1,0l-0.4-0.5c-1-1.4-2.3-2.8-3.4-4.2l-0.1-0.1v-0.1v-0.3l-0.3-0.2c-0.3-0.2-0.8-0.9-1.2-1.5
		c-0.2-0.3-0.5-0.6-0.8-0.9c-0.1-0.1-0.2-0.1-0.3-0.2l-4-5L91-2.6l-0.2,0.1l0,0L91-2.6l-7.1-8.7l0.2-0.1L83.6-12
		c-0.7-0.8-1.3-1.6-2-2.4l-0.1-0.1l0.1-0.2c0.7-1.5,1.9-2.4,3.3-3.1c1.4-0.7,3.1-1.2,4.6-2l0,0l0,0c1.1-0.9,1.7-2.3,1.7-3.7
		c0-0.3,0-0.6-0.1-0.8c0-0.4-0.2-0.7-0.2-1l0-0.1l0-0.1c-0.4-0.8-1.1-1.3-1.9-1.6c-0.8-0.3-1.6-0.4-2.4-0.4c-0.2,0-0.4,0-0.5,0l0,0
		l0,0c-1.5,0.2-2.5,1.1-3.2,2.1c-0.7,1-1.1,2.3-1.6,3.2l0,0.1l0,0.1c-0.1,0.7-0.5,1.3-1.1,1.9c-0.6,0.5-1.4,1-2.1,1.4
		c-0.6-0.7-1.1-1.3-1.7-2L76.1-21L75.8-21c-3.4,0.7-6.4,3.5-7.4,6.8l-0.1,0.3l0.1,0.1c-1,0.3-2,0.6-3,1.1C55.8-9.5,47.8-3,39.9,3.5
		l-0.2,0.2l0,0.3c0,1.1,0.2,2.5,0.4,3.7c0.2,1.9,1.1,3.4,2.3,4.8c1.1,1.4,2.5,2.6,3.8,3.8c3.5,3.6,7.9,5,12.3,6.1l0.6,0.2l0.1-0.6
		c0.2-1.6,0.4-3.3,0.5-4.9c0-0.1,0-0.2,0-0.3c0.1-0.9,0.2-1.8,0.4-2.6c0.2-0.9,0.4-1.7,0.6-2.7c1.5-7.1,7.7-13,13.6-18L76.1-5v0.2
		l0.1,0.1c-2.7,2.9-4.8,6.3-5.8,9.9l0.2,0.1l0.3,0.4c0.1,0,0.2,0,0.2-0.1l0.2,0.1c0,0,0.1-0.1,0.1-0.1c-0.8,2-1.7,4.1-2.4,6.2
		l-0.1,0.3l0.7,0.7l0.4-0.3c0.1,0,0.1-0.1,0.2-0.1c0,0,0,0,0,0l0,0l0,0c-0.5,2.4-1.7,4.6-2,7.3l0.2,0c0,0.1,0,0.1,0,0.2
		c0.3,0.2,0.5,0.1,0.7,0.1c0,0,0-0.1,0-0.1l0.2,0c0,0,0,0,0,0c-0.7,2.3-1.2,4.7-1.5,7.2l0.2,0.1c0,0.1,0,0.2,0.1,0.2
		c-0.1,0.3-0.2,0.5-0.3,0.9c-0.4,2.1-0.5,4.4-0.5,6.7c0,1,0,2.1,0.1,3.1l0.2,0c0,0,0,0,0,0c0.1,0,0.2,0,0.2,0.1l0.3,0.1
		c0,0,0,0,0.1,0l0.1,5.7l0.1,0.1C68.9,45,69,46,69,47.1c0,0.7,0,1.4-0.1,2.1l0,0.1l0,0.1c0.5,2.9,0.1,6.4,0.8,9.5l0.1,0
		c0.1,0.9,0.1,1.9,0,2.9h0.7v-3l0.2,0c0-0.4,0-0.7,0-1.1c0-1,0-2,0-3c0-1.2,0.1-2.3,0.3-3.4c0.1-0.6,0.2-1.2,0.2-1.8
		c0-1.2-0.2-2.4-0.2-3.5c0-1,0.1-1.9,0.7-2.6c1.8-1.6,2.3-3.6,3.1-5.4c0,0,0-0.1,0.1-0.1l0,0.1c0.1,2.2,1,4,1.9,5.6
		c0.9,1.7,1.7,3.3,1.7,5.2c0,0.3,0,0.6-0.1,0.9c-0.2,1.7-0.4,3.6-0.4,5.5c0,2.6,0.3,5.3,1.4,7.5l0.1,0c0,0.1,0.1,0.1,0.1,0.2H80
		c0.5,0.1,0.6-0.2,0.5-0.5l0.1,0c-0.1-0.2-0.1-0.5-0.1-0.7c0-0.8,0.3-1.4,0.7-2.2c0.4-0.7,0.9-1.5,1.1-2.6l0,0l0,0
		c0-0.2,0-0.4,0-0.6c0.1-0.3,0.1-0.7,0.2-1.1c0.5-2.3,1.8-4.4,2.2-7.1c0.2-0.6,0.2-1.1,0.2-1.6c0-1.5-0.5-2.8-0.9-4.1
		c0.6-0.8,0.7-1.8,0.8-2.5l0-0.1l0-0.1c0-0.2-0.1-0.5-0.1-0.7c0-0.6,0.1-1.3,0.2-1.8l0,0l0,0c0.1-0.7,0.2-1.4,0.2-2
		c0-1.8-0.4-3.6-0.4-5.3c0.3,0.4,0.7,0.9,1,1.3l1-0.2c0.1-0.2,0.1-0.4,0.1-0.6c0-0.4-0.1-0.7-0.1-1c0-0.1,0-0.1,0-0.2
		c0.1-0.4,0.1-0.8,0.1-1.1c0-1.2-0.3-2.4-0.7-3.4c0.1,0.2,0.3,0.3,0.4,0.4l0.2-0.1c0.2,0.1,0.3,0,0.6-0.2c0,0,0-0.1,0-0.1l0.2-0.1
		l-0.4-2.8l0-0.1c-0.1-0.2-0.2-0.3-0.2-0.5l0.1,0c0.2,0.2,0.4,0.2,0.8-0.1c0,0,0,0,0,0l0.1,0c0-0.3,0-0.6,0-0.8
		c0-3.5-1.7-6.3-3.7-8.8c0.4,0.2,0.8,0.4,1.2,0.5l0.2-0.2c0,0,0,0,0,0c0.3-0.1,0.4-0.3,0.4-0.4l0.1-0.1c-0.7-1.2-1.1-2.5-1.5-3.9
		l0-0.1l-0.1-0.1c-0.6-0.8-1-2-1.5-3.1c-0.2-0.3-0.3-0.7-0.6-1L91,14.7l11.6,16c2.5,3.5,5.3,7.3,7.9,10.8l0.2,0l0,0l0,0l0.1,0.2
		c0.7,1,1.2,2.2,2.1,3.2l0.2,0.2v0.1l3.3,4.6l0.2-0.1c0.1,0.1,0.1,0.2,0.2,0.2c0,0.1,0,0.2,0,0.3l0,0.1l0.1,0.1
		c0.3,0.5,0.7,0.7,1,0.8l0.1,0.1l0.2,0c0,0,0,0,0,0c3.4,0,6.4-2.5,7.8-5.4c0.4-0.8,0.9-1.9,0.9-3C127,42.6,126.9,42,126.6,41.5z"/>
</g>
<g id="AREA_2">
	<g>
		<path fill="#FDBB2D" d="M84.3-18.8c1.5-0.8,3.2-1.3,4.5-2c0.8-0.7,1.3-1.8,1.3-2.8c0-0.2,0-0.4-0.1-0.7l0,0l0,0
			c0-0.2-0.1-0.4-0.2-0.7c-0.3-0.5-0.7-0.8-1.3-1c-0.6-0.2-1.3-0.3-2-0.3c-0.2,0-0.3,0-0.5,0c-1.1,0.1-1.8,0.7-2.4,1.6
			c-0.6,0.9-1,2-1.4,3c-0.2,1-0.8,1.8-1.5,2.5c-0.6,0.5-1.2,0.9-1.8,1.3c0.5,0.7,1.2,1.5,1.8,2.2C81.7-17.3,83-18.2,84.3-18.8z"/>
		<path fill="#FDBB2D" d="M78.9-14.6c0.3-0.1,0.6-0.1,0.8-0.2c-1.4-1.7-2.8-3.4-4.1-5c-2.7,0.7-5.2,3-6.1,5.7
			c1.3,1.5,2.6,3.1,3.8,4.5c0.4-1,1-2,1.8-2.9C76.1-13.6,77.4-14.4,78.9-14.6z"/>
		<path fill="#FDBB2D" d="M77.9-8.7c1.3-1.5,2.9-2.3,4.4-3.1c-0.5-0.5-0.9-1.1-1.4-1.6c-0.9,0.1-2,0.5-3,0.7c-1,0.3-1.7,1.1-2.3,2
			c-0.5,0.8-0.8,1.8-1.2,2.7l1.7,1.7C76.7-7.2,77.2-8,77.9-8.7z"/>
		<path fill="#FDBB2D" d="M72.7-8.1c-1.5-1.6-2.6-3.1-4-4.7c-1,0.3-2,0.7-3,1.1l0,0l0,0c-9.2,3.1-17,9.4-24.9,15.8
			c0,1,0.2,2.2,0.3,3.2l0,0l0,0c0.2,1.6,0.9,2.9,2,4.2c1.1,1.3,2.4,2.5,3.7,3.7c3.1,3.2,7,4.6,11.1,5.6c0.2-1.4,0.4-2.9,0.4-4.2
			c0.1-2.2,0.6-3.9,1-5.8C61,3.4,67.2-2.4,73-7.4l-0.5-0.5L72.7-8.1z"/>
		<path fill="#FDBB2D" d="M114.9,34.7c1.1-0.8,2.4-1.2,3.4-1.6l-3.2-4l-24.9-31l0,0l-7-8.5c-2.5,0.8-4.6,3-5.9,5.3
			c1.1,1.3,2.4,2.7,3.5,4.1l0,0L91.9,14l11.6,16c2.3,3.2,4.9,6.7,7.3,10C111.7,38.1,112.8,36,114.9,34.7z"/>
		<path fill="#FDBB2D" d="M70.1,49.2c0.1,0.3,0.1,0.6,0.1,0.9c0-0.2,0-0.4,0-0.6c0-0.6-0.1-1.2-0.1-1.8
			C70.1,48.2,70.1,48.7,70.1,49.2z"/>
		<path fill="#FDBB2D" d="M74.4,25.3l0.7-0.1c0.3,0,0.7-0.3,1.4-0.3c0.1,0,0.2,0,0.3,0c-0.1-0.7-0.2-1.4-0.3-2
			c-0.3-1.1-0.7-2-1.6-2.7l-0.3-0.2l0.1-0.3c0,0,0-0.1,0-0.2c0-0.1,0-0.4,0.2-0.6l0.2-0.2l0.3,0.1c0.8,0.3,1.4,0.8,1.8,1.4
			c-0.2-1.2-0.4-2.3-0.5-3.5c-0.1-0.4-0.5-0.9-1-1.4l-0.5-0.6l0.7-0.3c0.2-0.1,0.4-0.1,0.6-0.1c0.5,0,0.8,0.2,1.1,0.2l-0.9-2.8
			c-0.3-0.5-0.8-1.2-1-1.9l0.8-0.5l0-0.1c0,0,0.1,0,0.1,0l0,0l0,0c0.4,0.2,0.7,0.4,0.8,0.5c0,0,0-0.1,0-0.1c0-0.7-0.2-1.4-0.5-2.2
			c-0.3-0.8-0.6-1.6-0.6-2.6c0-0.5,0.1-1,0.3-1.6l0.2-0.6L77.5,3c0.5,0.3,1,0.6,1.5,0.9l0-4.7L77.9-2c-1.1,2.6-2.2,5.3-3.4,7.9
			c-0.6,4.6-1.1,9.3-1.6,13.7H73L73,20c0,0.2,0,0.3,0,0.4c0,0.7-0.2,1.2-0.2,1.7c0,0.1,0,0.1,0,0.2l0,0.1l0,0.1
			c-0.3,2-0.4,4.2-0.6,6.3l-1,11.3H70l0.1-0.6c0.7-6.5,1-12.4,1.8-18.8h-0.2v-1.3l1.8-14.1l0-0.1c1.3-2.6,2.4-5.3,3.6-8L77-3
			l-0.4-0.5c-1.7,1.9-3.2,4.1-4.2,6.4l0.1-0.1l0.9,0.6l-0.1,0.4c-0.8,2.3-1.7,4.4-2.6,6.6c0.2-0.2,0.3-0.3,0.5-0.5l0.9,0.5
			c-0.2,1-0.7,1.7-0.9,2.4c-0.4,1.7-1,3.2-1.5,4.7c0.2-0.1,0.5-0.2,0.8-0.2l0.8,0L71.1,18c-1,2.6-1.6,5.4-2.1,8.3l0.5,0.3
			c-0.1,0.9-0.5,1.5-0.6,2c-0.3,2.1-0.5,4.3-0.5,6.5c0,0.4,0,0.8,0,1.2c0.1-0.2,0.2-0.3,0.3-0.5l1,0.5c-0.1,0.6-0.4,1.1-0.6,1.6
			l0.1,5.8c0.4,0.6,0.6,1.3,0.7,2c0-1,0.2-2.1,0.9-3.1l0-0.1l0.1,0c1.6-1.3,2-3.1,2.8-5l0,0l0,0c1-1.9,1.6-4.4,1.6-6.9
			c0-1.7-0.3-3.3-0.8-4.7L74.4,25.3z"/>
		<path fill="#FDBB2D" d="M80.6,2.8c0,1.1,0,2.2,0.1,3.2l0,0l-0.3,14.9h0l0.1,16.9l0.3,0.1l1.5,8.7v0c0,1.9-0.4,3.6-0.6,5.3L81,55.7
			h-1.3L81,47l-1.5-8.2l-0.4-0.1l-0.1-17.8h0l0-0.6c0-1.2,0-2.3,0.1-3.4c0,0,0,0,0,0c-0.1,0-0.2,0-0.2,0.1l-0.3,0.6l-0.2-0.3
			c0.3,1.6,0.6,3.3,0.6,5.1v0.1l0,0.1c-0.1,0.2-0.1,0.3-0.3,0.5c-0.1,0.1-0.3,0.2-0.5,0.2l0.5,3.4l-0.2,0.2L78.3,27l0,0
			c-0.2,0.2-0.4,0.3-0.7,0.3c-0.4,0-0.7-0.3-0.9-0.5c-0.1-0.1-0.1-0.2-0.2-0.2c0.4,1.3,0.5,2.8,0.6,4.2c0,2-0.4,4.1-1.1,5.8l0.2,1.4
			l0,0c0.1,1.9,0.9,3.5,1.8,5.2c0.9,1.7,1.8,3.5,1.8,5.7c0,0.3,0,0.7-0.1,1c-0.2,1.7-0.4,3.5-0.4,5.4c0,1.6,0.1,3.3,0.5,4.7
			c0.1-0.3,0.3-0.7,0.5-1c0.4-0.8,0.8-1.4,0.9-2.1c0.1-3.5,2.1-5.9,2.3-8.8l0,0l0,0c0.1-0.5,0.2-0.9,0.2-1.4c0-1.3-0.5-2.6-0.9-4.1
			l-0.1-0.3L83,42c0.5-0.5,0.6-1.2,0.7-2c0-0.3-0.1-0.5-0.1-0.8c0-0.7,0.1-1.4,0.2-2.1c0.1-0.6,0.2-1.2,0.2-1.8
			c0-1.8-0.4-3.8-0.4-5.8c0-0.5,0-1,0.1-1.5l1.1-0.2c0.3,0.5,0.5,1,0.9,1.4c0-0.1,0-0.1,0-0.2c0.1-0.3,0.1-0.6,0.1-0.9
			c0-2-1.1-3.9-1.5-6l1-0.5c0.4,0.4,0.7,0.8,1,1.2L86,22.2c-0.5-1.1-1.2-2.3-1.5-3.6l0.8-0.6c0.5,0.3,1,0.7,1.3,1.1
			c-0.5-3.5-2.8-6.3-5.1-9.1l-0.1-0.2V9.6V9.3l1-0.4c0.6,0.6,1.3,1,2.1,1.4c-0.4-0.9-0.6-1.7-0.9-2.6c-0.7-1-1.1-2.2-1.6-3.2
			C81.6,3.8,81.2,3.2,80.6,2.8z"/>
		<path fill="#FDBB2D" d="M78.6,5.5c-0.2-0.1-0.4-0.3-0.6-0.4c0,1.1,0.4,2.1,0.9,3.1l0,0.1l0,0.1c0,0.3,0.2,0.8,0.2,1.4
			c0,0.5-0.1,1.1-0.7,1.5l-0.2,0.1l-0.1,0c0.4,1,0.7,2,1,3c0-0.7,0-1.5,0-2.2c0-1.9,0-3.8,0.1-6L78.6,5.5z"/>
		<path fill="#FDBB2D" d="M120.9,36.2c-0.2-0.2-0.3-0.5-0.5-0.7c-0.3-0.5-0.6-0.9-0.9-1.1c-0.2-0.2-0.3-0.2-0.4-0.2
			c-0.1,0-0.3,0-0.6,0.3l-0.1,0.1l-0.1,0c-2.9,0.8-5.5,3.7-6.3,6.7c0.5,0.8,0.9,1.5,1.3,2.2C114.8,40.4,117.6,37.4,120.9,36.2z"/>
		<path fill="#FDBB2D" d="M124.4,40.6c-0.8-1-1.7-2.1-2.6-3.1c-0.3,0.1-0.5,0.2-0.7,0.3l-0.1,0l-0.1,0c-3.1,0.9-5.3,4.1-6.7,7l0,0
			l2.4,3.3l0.1-0.4l0,0C118.1,44.5,120.9,41.5,124.4,40.6z"/>
		<path fill="#FDBB2D" d="M125,42.1c-0.8,0-1.8,0.6-2.7,1.1c-2.3,1.7-4.3,4-4.3,6.7c0,0.1,0,0.2,0,0.3c0.1,0.1,0.2,0.2,0.3,0.2
			c2.7,0,5.5-2.2,6.7-4.8c0.4-0.8,0.7-1.7,0.7-2.5c0-0.3-0.1-0.6-0.2-0.9C125.5,42.1,125.3,42.1,125,42.1z"/>
		<rect x="70.4" y="59.5" fill="#FDBB2D" width="0.1" height="1.5"/>
	</g>
</g>
<g id="AREA_1">
	<g>
		<path d="M82.3,2.9l-2.2-3l0,1.5l0.1,0C81.1,1.7,81.8,2.2,82.3,2.9z"/>
		<path d="M126.6,41.5l-0.1-0.1l-0.1-0.1c0,0-0.1,0-0.1,0l-0.4-0.5c-1-1.4-2.3-2.8-3.4-4.2l-0.1-0.1v-0.1v-0.3l-0.3-0.2
			c-0.3-0.2-0.8-0.9-1.2-1.5c-0.2-0.3-0.5-0.6-0.8-0.9c-0.1-0.1-0.2-0.1-0.3-0.2l-4-5L91-2.6l-0.2,0.1l0,0L91-2.6l-7.1-8.7l0.2-0.1
			L83.6-12c-0.7-0.8-1.3-1.6-2-2.4l-0.1-0.1l0.1-0.2c0.7-1.5,1.9-2.4,3.3-3.1c1.4-0.7,3.1-1.2,4.6-2l0,0l0,0
			c1.1-0.9,1.7-2.3,1.7-3.7c0-0.3,0-0.6-0.1-0.8c0-0.4-0.2-0.7-0.2-1l0-0.1l0-0.1c-0.4-0.8-1.1-1.3-1.9-1.6
			c-0.8-0.3-1.6-0.4-2.4-0.4c-0.2,0-0.4,0-0.5,0l0,0l0,0c-1.5,0.2-2.5,1.1-3.2,2.1c-0.7,1-1.1,2.3-1.6,3.2l0,0.1l0,0.1
			c-0.1,0.7-0.5,1.3-1.1,1.9c-0.6,0.5-1.4,1-2.1,1.4c-0.6-0.7-1.1-1.3-1.7-2L76.1-21L75.8-21c-3.4,0.7-6.4,3.5-7.4,6.8l-0.1,0.3
			l0.1,0.1c-1,0.3-2,0.6-3,1.1C55.8-9.5,47.8-3,39.9,3.5l-0.2,0.2l0,0.3c0,1.1,0.2,2.5,0.4,3.7c0.2,1.9,1.1,3.4,2.3,4.8
			c1.1,1.4,2.5,2.6,3.8,3.8c3.5,3.6,7.9,5,12.3,6.1l0.6,0.2l0.1-0.6c0.2-1.6,0.4-3.3,0.5-4.9c0-0.1,0-0.2,0-0.3
			c0.1-0.9,0.2-1.8,0.4-2.6c0.2-0.9,0.4-1.7,0.6-2.7c1.5-7.1,7.7-13,13.6-18L76.1-5v0.2l0.1,0.1c-2.7,2.9-4.8,6.3-5.8,9.9l0.2,0.1
			l0.3,0.4c0.1,0,0.2,0,0.2-0.1l0.2,0.1c0,0,0.1-0.1,0.1-0.1c-0.8,2-1.7,4.1-2.4,6.2l-0.1,0.3l0.7,0.7l0.4-0.3
			c0.1,0,0.1-0.1,0.2-0.1c0,0,0,0,0,0l0,0l0,0c-0.5,2.4-1.7,4.6-2,7.3l0.2,0c0,0.1,0,0.1,0,0.2c0.3,0.2,0.5,0.1,0.7,0.1
			c0,0,0-0.1,0-0.1l0.2,0c0,0,0,0,0,0c-0.7,2.3-1.2,4.7-1.5,7.2l0.2,0.1c0,0.1,0,0.2,0.1,0.2c-0.1,0.3-0.2,0.5-0.3,0.9
			c-0.4,2.1-0.5,4.4-0.5,6.7c0,1,0,2.1,0.1,3.1l0.2,0c0,0,0,0,0,0c0.1,0,0.2,0,0.2,0.1l0.3,0.1c0,0,0,0,0.1,0l0.1,5.7l0.1,0.1
			C68.9,45,69,46,69,47.1c0,0.7,0,1.4-0.1,2.1l0,0.1l0,0.1c0.5,2.9,0.1,6.4,0.8,9.5l0.1,0c0.1,0.9,0.1,1.9,0,2.9h0.7v-3l0.2,0
			c0-0.4,0-0.7,0-1.1c0-1,0-2,0-3c0-1.2,0.1-2.3,0.3-3.4c0.1-0.6,0.2-1.2,0.2-1.8c0-1.2-0.2-2.4-0.2-3.5c0-1,0.1-1.9,0.7-2.6
			c1.8-1.6,2.3-3.6,3.1-5.4c0,0,0-0.1,0.1-0.1l0,0.1c0.1,2.2,1,4,1.9,5.6c0.9,1.7,1.7,3.3,1.7,5.2c0,0.3,0,0.6-0.1,0.9
			c-0.2,1.7-0.4,3.6-0.4,5.5c0,2.6,0.3,5.3,1.4,7.5l0.1,0c0,0.1,0.1,0.1,0.1,0.2H80c0.5,0.1,0.6-0.2,0.5-0.5l0.1,0
			c-0.1-0.2-0.1-0.5-0.1-0.7c0-0.8,0.3-1.4,0.7-2.2c0.4-0.7,0.9-1.5,1.1-2.6l0,0l0,0c0-0.2,0-0.4,0-0.6c0.1-0.3,0.1-0.7,0.2-1.1
			c0.5-2.3,1.8-4.4,2.2-7.1c0.2-0.6,0.2-1.1,0.2-1.6c0-1.5-0.5-2.8-0.9-4.1c0.6-0.8,0.7-1.8,0.8-2.5l0-0.1l0-0.1
			c0-0.2-0.1-0.5-0.1-0.7c0-0.6,0.1-1.3,0.2-1.8l0,0l0,0c0.1-0.7,0.2-1.4,0.2-2c0-1.8-0.4-3.6-0.4-5.3c0.3,0.4,0.7,0.9,1,1.3l1-0.2
			c0.1-0.2,0.1-0.4,0.1-0.6c0-0.4-0.1-0.7-0.1-1c0-0.1,0-0.1,0-0.2c0.1-0.4,0.1-0.8,0.1-1.1c0-1.2-0.3-2.4-0.7-3.4
			c0.1,0.2,0.3,0.3,0.4,0.4l0.2-0.1c0.2,0.1,0.3,0,0.6-0.2c0,0,0-0.1,0-0.1l0.2-0.1l-0.4-2.8l0-0.1c-0.1-0.2-0.2-0.3-0.2-0.5l0.1,0
			c0.2,0.2,0.4,0.2,0.8-0.1c0,0,0,0,0,0l0.1,0c0-0.3,0-0.6,0-0.8c0-3.5-1.7-6.3-3.7-8.8c0.4,0.2,0.8,0.4,1.2,0.5l0.2-0.2
			c0,0,0,0,0,0c0.3-0.1,0.4-0.3,0.4-0.4l0.1-0.1c-0.7-1.2-1.1-2.5-1.5-3.9l0-0.1l-0.1-0.1c-0.6-0.8-1-2-1.5-3.1
			c-0.2-0.3-0.3-0.7-0.6-1L91,14.7l11.6,16c2.5,3.5,5.3,7.3,7.9,10.8l0.2,0l0,0l0,0l0.1,0.2c0.7,1,1.2,2.2,2.1,3.2l0.2,0.2v0.1
			l3.3,4.6l0.2-0.1c0.1,0.1,0.1,0.2,0.2,0.2c0,0.1,0,0.2,0,0.3l0,0.1l0.1,0.1c0.3,0.5,0.7,0.7,1,0.8l0.1,0.1l0.2,0c0,0,0,0,0,0
			c3.4,0,6.4-2.5,7.8-5.4c0.4-0.8,0.9-1.9,0.9-3C127,42.6,126.9,42,126.6,41.5z M80.8-19.3c0.7-0.6,1.3-1.4,1.5-2.5
			c0.5-1,0.9-2.1,1.4-3c0.6-0.9,1.3-1.5,2.4-1.6c0.2,0,0.3,0,0.5,0c0.7,0,1.4,0.1,2,0.3c0.5,0.2,1,0.5,1.3,1
			c0.1,0.3,0.2,0.5,0.2,0.7l0,0l0,0c0,0.2,0.1,0.4,0.1,0.7c0,1.1-0.4,2.1-1.3,2.8c-1.3,0.7-2.9,1.2-4.5,2c-1.3,0.7-2.6,1.6-3.5,3
			c-0.6-0.8-1.3-1.5-1.8-2.2C79.6-18.4,80.2-18.8,80.8-19.3z M59.4,10.9c-0.4,1.9-0.9,3.7-1,5.8c-0.1,1.3-0.3,2.8-0.4,4.2
			c-4.1-1-8-2.4-11.1-5.6c-1.3-1.2-2.7-2.4-3.7-3.7c-1.1-1.3-1.8-2.6-2-4.2l0,0l0,0c-0.2-1-0.3-2.2-0.3-3.2
			c7.9-6.4,15.7-12.7,24.9-15.8l0,0l0,0c1-0.4,2-0.7,3-1.1c1.4,1.5,2.5,3.1,4,4.7l-0.3,0.2L73-7.4C67.2-2.4,61,3.4,59.4,10.9z
			 M73.3-9.6c-1.3-1.4-2.5-3-3.8-4.5c0.9-2.7,3.4-5,6.1-5.7c1.4,1.7,2.7,3.4,4.1,5c-0.3,0-0.5,0.1-0.8,0.2c-1.6,0.2-2.8,1-3.8,2.1
			C74.4-11.7,73.8-10.7,73.3-9.6z M74.5-8.1c0.3-0.9,0.7-1.9,1.2-2.7c0.6-0.9,1.2-1.6,2.3-2c1-0.3,2.1-0.6,3-0.7
			c0.5,0.5,0.9,1.1,1.4,1.6c-1.5,0.8-3.1,1.6-4.4,3.1c-0.7,0.7-1.2,1.6-1.7,2.3L74.5-8.1z M70.2,50.1c0-0.3-0.1-0.6-0.1-0.9
			c0-0.5,0-1,0.1-1.6c0,0.6,0.1,1.3,0.1,1.8C70.2,49.7,70.2,49.9,70.2,50.1z M70.4,61L70.4,61l-0.1-1.5h0.1V61z M73.9,37.5
			L73.9,37.5L73.9,37.5c-0.8,1.9-1.3,3.7-2.9,5l-0.1,0l0,0.1c-0.7,1-0.9,2-0.9,3.1c-0.1-0.7-0.3-1.4-0.7-2l-0.1-5.8
			c0.1-0.5,0.4-1,0.6-1.6l-1-0.5c-0.1,0.2-0.2,0.3-0.3,0.5c0-0.4,0-0.8,0-1.2c0-2.2,0.1-4.4,0.5-6.5c0.1-0.5,0.5-1.1,0.6-2L69,26.4
			c0.5-2.9,1.1-5.7,2.1-8.3l0.3-0.8l-0.8,0c-0.3,0-0.5,0.1-0.8,0.2c0.5-1.5,1.1-3,1.5-4.7c0.2-0.7,0.7-1.5,0.9-2.4l-0.9-0.5
			c-0.2,0.2-0.4,0.3-0.5,0.5c0.8-2.2,1.8-4.3,2.6-6.6l0.1-0.4l-0.9-0.6l-0.1,0.1c1-2.3,2.5-4.4,4.2-6.4L77-3L77-3
			c-1.2,2.7-2.3,5.3-3.6,8l0,0.1l-1.8,14.1v1.3h0.2c-0.8,6.5-1.1,12.3-1.8,18.8L70,40h1.3l1-11.3c0.2-2.1,0.3-4.4,0.6-6.3l0-0.1
			l0-0.1c0-0.1,0-0.1,0-0.2c0-0.5,0.2-1,0.2-1.7c0-0.1,0-0.3,0-0.4L73,19.5h-0.1c0.5-4.4,1.1-9,1.6-13.7c1.2-2.6,2.3-5.2,3.4-7.9
			L79-0.8l0,4.7C78.5,3.6,78,3.3,77.5,3l-0.6-0.3l-0.2,0.6c-0.2,0.5-0.3,1.1-0.3,1.6c0,1,0.3,1.8,0.6,2.6c0.3,0.8,0.5,1.5,0.5,2.2
			c0,0,0,0.1,0,0.1c-0.2-0.1-0.5-0.3-0.8-0.5l0,0l0,0c0,0-0.1,0-0.1,0l0,0.1l-0.8,0.5c0.2,0.8,0.7,1.4,1,1.9l0.9,2.8
			c-0.2-0.1-0.6-0.2-1.1-0.2c-0.2,0-0.4,0-0.6,0.1l-0.7,0.3l0.5,0.6c0.5,0.5,0.9,1,1,1.4c0.2,1.2,0.4,2.3,0.5,3.5
			c-0.4-0.6-1-1.1-1.8-1.4l-0.3-0.1l-0.2,0.2c-0.2,0.2-0.2,0.4-0.2,0.6c0,0.1,0,0.1,0,0.2l-0.1,0.3l0.3,0.2c0.9,0.7,1.3,1.7,1.6,2.7
			c0.2,0.6,0.2,1.3,0.3,2c-0.1,0-0.2,0-0.3,0c-0.6,0-1.1,0.3-1.4,0.3l-0.7,0.1l0.2,0.7c0.5,1.4,0.8,3.1,0.8,4.7
			C75.5,33.1,74.9,35.6,73.9,37.5z M79.2,14.3c-0.3-1-0.6-2-1-3l0.1,0l0.2-0.1c0.6-0.4,0.7-1,0.7-1.5c0-0.5-0.1-1-0.2-1.4l0-0.1
			l0-0.1c-0.4-1.1-0.8-2-0.9-3.1c0.2,0.1,0.4,0.3,0.6,0.4l0.7,0.7c-0.1,2.2-0.1,4.1-0.1,6C79.2,12.8,79.2,13.6,79.2,14.3z M83.6,7.7
			c0.3,0.9,0.5,1.7,0.9,2.6c-0.8-0.4-1.5-0.8-2.1-1.4l-1,0.4v0.3v0.2l0.1,0.2c2.3,2.8,4.7,5.6,5.1,9.1c-0.4-0.4-0.8-0.8-1.3-1.1
			l-0.8,0.6c0.3,1.3,1,2.5,1.5,3.6l0.1,0.6c-0.3-0.4-0.6-0.8-1-1.2l-1,0.5c0.5,2.1,1.5,4,1.5,6c0,0.3,0,0.6-0.1,0.9
			c0,0.1,0,0.1,0,0.2c-0.3-0.5-0.6-0.9-0.9-1.4L83.7,28c-0.1,0.5-0.1,1-0.1,1.5c0,2.1,0.4,4,0.4,5.8c0,0.6,0,1.2-0.2,1.8
			c-0.2,0.6-0.2,1.4-0.2,2.1c0,0.3,0,0.6,0.1,0.8c-0.1,0.8-0.2,1.5-0.7,2l-0.2,0.2l0.1,0.3c0.4,1.5,0.9,2.7,0.9,4.1
			c0,0.4-0.1,0.9-0.2,1.4l0,0l0,0c-0.3,2.9-2.2,5.4-2.3,8.8c-0.1,0.7-0.5,1.4-0.9,2.1c-0.2,0.3-0.3,0.6-0.5,1
			c-0.4-1.5-0.5-3.1-0.5-4.7c0-1.8,0.2-3.7,0.4-5.4c0-0.4,0.1-0.7,0.1-1c0-2.2-0.9-4-1.8-5.7c-0.9-1.7-1.7-3.3-1.8-5.2l0,0l-0.2-1.4
			c0.8-1.7,1.1-3.7,1.1-5.8c0-1.5-0.2-2.9-0.6-4.2c0,0.1,0.1,0.2,0.2,0.2c0.2,0.2,0.4,0.5,0.9,0.5c0.3,0,0.5-0.1,0.7-0.3l0,0
			l0.2-0.2l0.2-0.2l-0.5-3.4c0.2,0,0.4-0.1,0.5-0.2c0.1-0.1,0.2-0.3,0.3-0.5l0-0.1v-0.1c0-1.7-0.3-3.4-0.6-5.1l0.2,0.3l0.3-0.6
			c0.1,0,0.1,0,0.2-0.1c0,0,0,0,0,0c0,1.1,0,2.2-0.1,3.4l0,0.6h0l0.1,17.8l0.4,0.1L81,47l-1.3,8.8H81l0.6-3.8
			c0.2-1.7,0.6-3.4,0.6-5.3v0l-1.5-8.7l-0.3-0.1l-0.1-16.9h0L80.7,6l0,0c-0.1-1-0.1-2.1-0.1-3.2c0.6,0.4,1,1,1.4,1.7
			C82.5,5.5,82.9,6.7,83.6,7.7z M80.1-0.1l2.2,3c-0.5-0.7-1.2-1.2-2.1-1.5l-0.1,0L80.1-0.1z M110.8,40c-2.5-3.3-5-6.8-7.3-10
			L91.9,14L80.8-1.1l0,0c-1.2-1.3-2.4-2.8-3.5-4.1c1.4-2.3,3.5-4.5,5.9-5.3l7,8.5l0,0l24.9,31l3.2,4c-1,0.5-2.3,0.8-3.4,1.6
			C112.8,36,111.7,38.1,110.8,40z M111.9,41.3c0.9-2.9,3.4-5.8,6.3-6.7l0.1,0l0.1-0.1c0.3-0.3,0.5-0.3,0.6-0.3c0.1,0,0.2,0,0.4,0.2
			c0.3,0.2,0.6,0.7,0.9,1.1c0.2,0.2,0.3,0.5,0.5,0.7c-3.3,1.2-6.1,4.2-7.7,7.3C112.8,42.8,112.4,42.1,111.9,41.3z M116.8,47.7
			L116.8,47.7l-0.1,0.5l-2.4-3.3l0,0c1.5-2.9,3.6-6,6.7-7l0.1,0l0.1,0c0.2-0.1,0.5-0.2,0.7-0.3c0.9,1.1,1.8,2.1,2.6,3.1
			C120.9,41.5,118.1,44.5,116.8,47.7z M125.1,45.6c-1.2,2.6-4,4.7-6.7,4.8c-0.1-0.1-0.3-0.2-0.3-0.2c0-0.1,0-0.2,0-0.3
			c0-2.7,2-5,4.3-6.7c0.8-0.5,1.9-1.1,2.7-1.1c0.2,0,0.4,0,0.7,0.1c0.1,0.3,0.2,0.6,0.2,0.9C125.9,43.9,125.5,44.8,125.1,45.6z"/>
	</g>
</g>
</svg>
