<?xml version="1.0" encoding="utf-8"?>
<!-- Generator: Adobe Illustrator 19.1.0, SVG Export Plug-In . SVG Version: 6.00 Build 0)  -->
<!DOCTYPE svg PUBLIC "-//W3C//DTD SVG 1.1//EN" "http://www.w3.org/Graphics/SVG/1.1/DTD/svg11.dtd">
<svg version="1.1" xmlns="http://www.w3.org/2000/svg" xmlns:xlink="http://www.w3.org/1999/xlink" x="0px" y="0px"
	 viewBox="33 -33 100 100" enable-background="new 33 -33 100 100" xml:space="preserve">
<g id="AREA_3">
	<path fill="none" stroke="#004D86" stroke-width="1.7663" stroke-linejoin="round" stroke-miterlimit="10" d="M122.5,3.6
		c-2.1-2.2-3.7-5-5.9-6.6c-1.4-1.6-0.5-4.2-1.1-6.2c-0.5-0.6-1.1-1.3-1.7-1.7c-2.6-0.9-4.8-3.1-6.1-5.5c-1.2-2.4-3.7-2.8-5.8-3.8
		c-0.7-0.6-1.1-1.4-1-2.3c0.2-1.9,2-3,3.5-4l-0.1,0c-3.8,0.7-7.6,1.4-11.4,1.9c-5.6,0.7-10.6,3.2-14.9,7c-2.1-1.5-5.3-2.1-7.8-1
		l-1.6-1.2c-2.3-0.3-4.6-0.8-6.9-1.1c-0.7-0.1-1.9-0.1-2.7-0.5c-2.5-0.4-4.9-0.7-7.3-1c-2.8,1.2-5.6,2.3-8.4,3.5l9.2,5.5
		c4.3,0.2,8.6,0.3,12.7,0.8c0,0.3-0.1,0.7-0.2,1c-0.2,0-0.5,0.2-0.7,0.1L51.7,0c-1.3,5.2-3.1,10.3-4.5,15.5l0.9,6.5l5.8-5.8
		c1.4-3.9,2.9-7.7,4.4-11.6c-0.4-0.3,0.1-0.7,0.2-1.1c2.8-2.2,5.7-4.3,8.5-6.5c-0.8,6-2,11.3-3,17.3l-2.6,14.8l-0.1,0.1
		c-0.9,5.8-2,11.5-3.1,17.3c-0.5,1.9,0.4,3.7,0.3,5.5c0.6,3.8,1.1,7.5,1.7,11.3c0.3,0.6-0.3,2.2,1,1.8c2.1-4.6,4.5-9.2,6.6-13.8
		c1.6-2.4,1.3-5.7,2-8.3c0.4-3.7,1.3-7.3,1.6-10.9c1.2-6.3,2.2-12.7,3.3-18.9l0.2-0.4c0.2,0.8,0,1.7,0.2,2.5
		c1.3,7.1,2.8,13.9,4.1,20.9c-2,0.6-4.2,0.5-5.7,2.3c-0.7,1.2-0.6,2.9-0.2,4.3c0.4,0.8,1.3,0.7,2.1,0.7c0-1.1,0.1-2,0.6-2.9
		c0.8-1.2,2.2-2,3.6-2.1c0.7,3.7,1.3,7.3,2.1,11l6.4,8.5c1.1-3.1,2.2-6.2,3.2-9.2c-0.6-3.2-1.4-6.3-2.1-9.5l0.1-0.1
		c4.3,1,8.6,1.8,12.9,2.6c5.7,0.8,9.4,6.1,14.3,8.7c-2.2-3-4.5-5.9-6.3-9v-0.2c-1.5-2.5,0-5.3,0.5-7.8c0.6-1.9-2.1-2.6-1.4-4.6
		c1.7-2.5,4.2-4.3,7-5c1.3-0.4,2.8-0.1,3.9-0.9c0.7-1.7,1.2-3.5,1.2-5.4c-0.2-0.8-1-1.3-1.6-1.6c1-1.3,2.5-2.7,1.6-4.4
		c-0.3-0.3-0.8-0.3-1.2-0.5c0.2-0.2,0.4-0.5,0.5-0.7c0.5-1,0-2-0.3-2.9c0.6-0.5,1.5-1,1.8-1.8C122.9,5,122.8,4.1,122.5,3.6z"/>
</g>
<g id="AREA_2">
	<g>
		<path fill="#FDBB2D" d="M56.9-17.7c-1.6-0.4-2.5,1-3.8,1.4h-0.2v-0.2c0.8-0.4,1.7-0.9,2.4-1.4l-8.6-0.7c-0.1-0.2-0.6,0.1-0.5-0.3
			c1.4-0.2,2.8,0.3,4.1,0.2c-0.6-0.5-1.3-0.9-1.9-1.4l0,0c1.2,0.4,1.9,2,3.5,1.6c-0.6-0.7-1.6-1.3-2.3-2l0.1-0.1
			c0.9,0.7,1.8,1.4,2.7,2.2l2.3,0.2c-1.1-1-2.3-2.2-3.5-3.2l0.1-0.1c0.5,0.4,0.9,0.7,1.3,1.2c0.6,0.6,1.6,1.4,2.2,2.1l0,0h0.2
			c0.7,0,1.2,0.3,1.9,0.2v-0.2c-1-0.8-2.1-1.7-3-2.5l0.1-0.1l2.9,2.4h0.1c0.4-0.9,0.9-1.8,1.1-2.7c-2.2-0.2-4.4-0.6-6.5-1
			c-2.5,1.1-5.1,2.1-7.6,3.2v0.2c2.9,1.6,5.7,3.4,8.5,5.1c2.7,0.1,5.4,0.2,8.1,0.2c-1.4-1.2-2.8-2.5-4.1-3.8L56.9-17.7z M50-16.6
			L50-16.6c0.9-0.4,1.8-1,2.7-1.3C51.9-17.4,50.9-17,50-16.6z"/>
		<path fill="#FDBB2D" d="M67.1-16.6c0.8-0.6,1.6-1.5,2.5-1.9c-1.1-1.4-2.7-0.8-4-1.4c-2-0.2-4.6-0.6-6.9-1L57.5-18
			C60.6-17.5,63.8-17.1,67.1-16.6z M58.9-19.6c0.9,0.7,1.9,1.3,2.7,2l-0.1,0l-2.6-1.9V-19.6z"/>
		<path fill="#FDBB2D" d="M66.2-14.6c-1.2,2.5-0.9,5.9,0.9,8c2,2.5,5,3.4,7.8,2.7c2.7-0.6,5.2-3.2,5.7-6c0.5-3-0.7-6-3.3-7.8
			c-1.3-0.9-3.1-1.3-4.4-1.3C70.1-18.9,67.4-17.2,66.2-14.6z M72.3-16.7c2.3-0.2,4.2,0.8,5.4,2.6c0.9,1.4,1.1,3.5,0.3,5.1
			c-0.2,0.3-0.4,0.6-0.5,1C76.9-7.4,76-6.4,75-6.2C73.2-5.5,71-5.8,69.7-7c-1.8-1.5-2.5-3.9-1.7-6.1C68.6-15,70.4-16.5,72.3-16.7z"
			/>
		<path fill="#FDBB2D" d="M66.8-16.3c-2.9-0.4-6.4-1-9.5-1.4l-0.1,0.5l4.3,3.8c1.3,0.2,2.5,0.2,3.8,0.3
			C65.6-14.3,66.2-15.3,66.8-16.3z M60.1-15.6v-0.1c1-0.2,1.9-0.7,3-0.9C62.1-16.2,61-16,60.1-15.6z"/>
		<path fill="#FDBB2D" d="M113.9-3.5c-1.1,0.9-2.1,2.2-1.8,3.8c-0.1,0.7-0.8,1.3-1.4,1.6c-0.1-0.4,0.3-0.8,0.2-1.2
			c0-0.4-0.4-0.6-0.6-0.8c-1.5-1-2.3,1.2-3.6,1c-0.2-0.2-0.4,0.2-0.6-0.1c0.1-1.4,1.1-2.4,1.4-3.7c-0.6,0.5-1.5,0.5-2.3,0.6
			c1.2-0.8,2.4-2.1,3.5-3.2c1.3-1,3,0.1,4.5-0.4c0.6-0.2,0.6-0.8,0.8-1.2c0.2-1,0-2.1-0.7-2.8c-2.5-1.5-6-2.4-7.2-5.6
			c-1.9-3.2-6.1-1.5-9.2-1.8c-4.2-0.6-7.7,1.1-10.7,3.6c1,0.9,1.9,1.9,2.8,2.8c0.7,1,0.6,2.4,1.2,3.5c1.8,3.3,6.5,0.5,8.2,4
			c0.3,0.6,0.7,1.2,0.9,1.8H99c-2.4-0.6-4.6-1.1-6.8,0.2c-0.7,1.6,0.5,2.9,1.5,4c-0.8,0-1.6-0.3-2.4-0.1c-0.5-0.1-1.1,0-1.6,0.1
			c-1.4,0.3-2.8,1.4-3.2,2.8c-0.2,1.1,0,2,0.7,2.9c2.6,2.7,5.6,5.5,7.7,8.5c0.8,0.6,1.9,1.6,3.1,1.3c1.6-1,0.9-3.3,0.8-4.7
			c0.5-0.1,1.2-0.1,1.7,0c1.9,0.5,3.1,2.5,3.5,4.3c0.3,2.1,1.1,3.9,2.6,5.5c4.7,0.3,7.7-0.3,12.1-1c0.5-1.5,1.3-2.8,1.3-4.5
			c-0.5-0.8-1.5-1-2.2-1.6c0.3-0.6,0.6-1.3,1-1.9c0.5-0.7,1.4-1.1,1.6-2c-0.4-0.4-0.9-0.5-1.4-0.5c-2.4,0.7-4.8,2.8-5.8,5.1
			c-0.7-0.5-1.9-0.7-2.2-1.7c0.1-0.4,0.5-0.6,0.8-0.8c0.4-0.1,0.8,0,1.2,0.1l3-2.4c1.1-0.9,2.5-1.1,3.5-2.3c0.3-0.5,0.1-1-0.1-1.6
			c-1,0-2,0.1-2.7-0.7c-0.5-0.4-0.5-1-0.4-1.6c0.3,0.1,0.6,0.3,1,0.5c1.2,0,2.5,0.1,3.4-0.6c0.4-0.6,0.7-1.3,0.4-2
			C119.5,1,116.2-0.8,113.9-3.5z M97.7,14.8c-0.1,0.2-0.3,0.6-0.6,0.6c-0.5-0.4-0.7-1.1-1-1.6l-0.5-0.5
			C96.3,13.8,97.9,13.5,97.7,14.8z M98,10.9c-0.5,0.6-1.3,0.9-2.1,0.8c-1.8-0.5-1.8-2.4-2.3-3.8c-0.3-0.3-0.7-0.5-1.2-0.3
			c-0.3,0.1-0.5,0.5-0.7,0.7c-0.2,0.8,0.1,1.4,0.4,2.1c-0.8-0.5-1.5-1.2-1.7-2.1c-0.4-1.9,1.8-2.4,2.4-3.6l-0.1-0.1
			c-1.6-0.3-3,0.4-4,1.6c-0.1,0.5,0,1.1,0.2,1.5c-0.4-0.5-0.7-1.1-0.5-1.8c0.5-1.8,2.5-1.6,3.9-2.1c1.6-0.1,2.6,1.3,4.2,1
			c0.5,0.3,0.9,0.7,0.8,1.3c-0.8,0.3-1.8,0.1-2.4,0.7c-0.1,0.7,0.3,1.2,0.9,1.6c0.9,0.1,1.9,0.5,2.3,1.4C98.4,10.2,98,10.5,98,10.9z
			 M102-0.4c3,1.4,6,2.9,9,4.3c0,0.3-0.2,0.6-0.3,0.9c-0.6-0.1-1.2-0.6-1.8-0.7l-7.1-3.5C101.6,0.2,101.9,0,102-0.4z M101.6,1.1
			l9,4.3c0.1,0.3-0.3,0.5-0.3,0.9c-0.8-0.1-1.5-0.7-2.3-1c-2.3-1.1-4.6-2.1-6.9-3.3L101.6,1.1z M101.5,2.7c3,1.5,6.1,2.8,9.1,4.4
			l-0.5,0.8c-3-1.4-6.1-2.9-9-4.3L101.5,2.7z M114.2,6.9c-0.2,0.9-1.3,0.9-1.7,1.7c-0.3,0.5-0.3,1.3-1,1.5c-0.2,0-0.5,0.1-0.6-0.1
			c-0.7,0-1.3-0.2-1.8,0.4c-0.3,0.4-0.5,0.8-0.7,1.3h-0.2c-1.4-0.8-2.1-2.4-3.4-3.3c-1.5-0.3-3.9,0.9-4.5-1.3
			c-0.6-1.3,0-2.8-0.5-4.2c1.7,2,3.8,3.4,6.3,3.6c1.6,0.6,2.9,2.4,4.9,1.7c1.1-0.2,2.2-1.2,2.8-2.2C113.9,6.3,114.5,6.5,114.2,6.9z"
			/>
		<path fill="#FDBB2D" d="M73.1-14.3c-0.1-0.7,0-1.4-0.1-2.1c-0.2,0-0.5-0.1-0.7,0.1c0,0.7,0.4,1.4,0.4,2.1
			C72.9-14.2,73-14.3,73.1-14.3z"/>
		<path fill="#FDBB2D" d="M73.3-14.2c0.1,0,0.3,0,0.4,0.1l0.5-2.1c-0.2-0.2-0.6-0.1-0.9-0.2C73.1-15.9,73.5-14.9,73.3-14.2z"/>
		<path fill="#FDBB2D" d="M72.6-14.2l-0.4-2.1c-0.3,0-0.7,0.1-0.9,0.3l0.8,1.9C72.2-14.1,72.4-14.2,72.6-14.2z"/>
		<path fill="#FDBB2D" d="M74.4-14l0.9-1.7c0.1-0.2-0.1-0.2-0.2-0.4c-0.1,0-0.3-0.1-0.5-0.1c-0.3,0.7-0.4,1.4-0.5,2.2
			C74.2-14.1,74.3-13.9,74.4-14z"/>
		<path fill="#FDBB2D" d="M71.8-14c-0.3-0.7-0.6-1.4-0.9-2c-0.1,0.3-0.5,0.1-0.6,0.4c0.4,0.6,0.8,1.3,1.3,1.8L71.8-14z"/>
		<path fill="#FDBB2D" d="M75-13.6c0.4-0.6,1-1.1,1.2-1.8c-0.2-0.2-0.5-0.3-0.7-0.4c-0.2,0.7-0.6,1.3-0.9,1.9
			C74.7-13.8,74.8-13.5,75-13.6z"/>
		<path fill="#FDBB2D" d="M71.3-13.7c-0.3-0.6-0.7-1.3-1.2-1.8c-0.2,0.2-0.6,0.3-0.6,0.7l1.5,1.4L71.3-13.7z"/>
		<path fill="#FDBB2D" d="M75.5-13.2c0.5-0.6,1.1-0.7,1.6-1.3c-0.1-0.3-0.3-0.6-0.6-0.7c-0.4,0.6-1,1.2-1.3,1.8
			C75.3-13.4,75.3-13.1,75.5-13.2z"/>
		<path fill="#FDBB2D" d="M70.7-13.3l-1.5-1.4L68.7-14c0.6,0.4,1.2,0.8,1.8,1.2C70.6-13,70.7-13.1,70.7-13.3z"/>
		<path fill="#FDBB2D" d="M75.7-12.7c0.6-0.2,1.3-0.6,1.9-1c-0.1-0.2-0.2-0.5-0.4-0.6c-0.5,0.4-1.2,0.9-1.7,1.4L75.7-12.7z"/>
		<path fill="#FDBB2D" d="M70.2-12.3c0-0.2,0.2-0.3,0-0.5l-1.7-1.1c-0.1,0.3-0.4,0.6-0.3,0.8C68.9-12.7,69.6-12.5,70.2-12.3z"/>
		<path fill="#FDBB2D" d="M75.9-12c0.7-0.2,1.4-0.4,2.1-0.5v-0.2l-0.2-0.6c-0.7,0.1-1.3,0.7-2,0.9C75.9-12.3,75.9-12.1,75.9-12z"/>
		<path fill="#FDBB2D" d="M70.1-11.6V-12c-0.6-0.3-1.3-0.5-1.9-0.8C68-12.6,68-12.3,68-12L70.1-11.6z"/>
		<path fill="#FDBB2D" d="M76.1-11.4l2.1,0c0-0.4,0-0.7-0.1-1c-0.7,0.3-1.4,0.4-2.1,0.6C76-11.6,76-11.4,76.1-11.4z"/>
		<polygon fill="#FDBB2D" points="70.1,-11.4 67.9,-11.7 67.9,-10.9 70.1,-11 		"/>
		<path fill="#FDBB2D" d="M76-11.1c0,0.2,0,0.4-0.1,0.6c0.7,0.1,1.5,0.4,2.1,0.4c0.1-0.3,0.1-0.8,0.1-1.1
			C77.5-11.2,76.7-11.1,76-11.1z"/>
		<path fill="#FDBB2D" d="M52.1,5.3c0.4-0.4,0.9-1,1.3-1.4h0.2c0.1-0.5,0.3-1,0.5-1.5l0,0c1.4-1.1,2.7-2.3,4-3.5
			c-1.3-0.1-2.5,0.3-3.8,0.1v0c1.3-0.3,2.9-0.1,4.1-0.4c1.5-1.4,3.1-2.6,4.7-4.1c-1.3,0.2-2.6,0.6-3.9,0.6v-0.1
			c1.3-0.3,2.9-0.5,4.3-0.7l1.7-1.6c-1-0.2-2-0.1-3-0.3v0c0.8-0.2,1.3,0,2.1,0C65-7.6,65.5-7.1,66-7.7c-0.6-1-0.8-2.2-0.9-3.4
			c-0.2-0.1-0.4,0.1-0.6,0C60.5-7.4,56.1-3.4,52,0.3c-0.2,1.2-0.7,2.4-0.9,3.6h0.3C51.7,4.3,51.8,4.9,52.1,5.3z"/>
		<path fill="#FDBB2D" d="M70.2-10.5l-0.1-0.3c-0.7,0.1-1.4,0.1-2.1,0.2c0.1,0.3,0,0.6,0.2,0.8l2-0.6V-10.5z"/>
		<path fill="#FDBB2D" d="M75.8-10c0.6,0.2,1.2,0.5,1.7,0.7C78-9,77.8-9.7,78-9.8l-2.1-0.4C75.9-10.1,75.7-10.1,75.8-10z"/>
		<path fill="#FDBB2D" d="M70.3-10.1c-0.7,0.2-1.4,0.3-2.1,0.6c0,0.3,0.1,0.6,0.3,0.7l1.9-1L70.3-10.1z"/>
		<path fill="#FDBB2D" d="M75.5-9.5l1.8,1.2l0.3-0.6c-0.6-0.3-1.3-0.6-2-0.9L75.5-9.5z"/>
		<path fill="#FDBB2D" d="M70.5-9.7l-1.9,1c0,0.3,0.2,0.4,0.3,0.6c0.6-0.4,1.1-0.8,1.7-1.3C70.7-9.5,70.7-9.6,70.5-9.7z"/>
		<path fill="#FDBB2D" d="M84.7-6.2l0.1,0.1c-0.6,0.4-1.4,0.4-2.1,0.6c0.5,0.6,1.3,1,1.9,1.6c0.5-0.3,1.1-0.4,1.6-0.5
			c-0.3,0.4-1,0.4-1.4,0.7C85.2-3.5,85.5-3,86-3l2.5,2.5l-0.2,0.1L86-2.6l-0.1,0.1L83.7-4c0.4,0.9,1.1,1.7,1.6,2.6l-0.1,0.1
			c-0.7-1-1.4-2.2-2.1-3.2c-0.4-0.6-1-0.4-1.6-0.4c0.2,0.6,0.7,1.3,0.7,1.9c-0.1,0-0.1,0-0.2,0c-0.6-0.6-0.4-2.5-1.9-1.8l4.2,4.4
			c2,0.7,4,1.6,5.9,2.1c-1.4-2.5-2.7-5.1-4.2-7.5l-5.3-3.9l-0.1,0.3c0.7,1.2,1.1,2.6,1.8,3.7C83.3-5.9,84-6,84.7-6.2z"/>
		<path fill="#FDBB2D" d="M75.2-9.1c0.5,0.5,1,1.1,1.6,1.5C77-7.8,77-8,77.2-8.2l-1.8-1.2L75.2-9.1z"/>
		<path fill="#FDBB2D" d="M71-9.1c-0.6,0.3-1.2,0.8-1.7,1.3c0,0.4,0.4,0.6,0.7,0.7l1.3-1.7L71-9.1z"/>
		<path fill="#FDBB2D" d="M75-9c-0.1-0.1-0.2,0.1-0.2,0.2c0.4,0.6,0.8,1.2,1.3,1.7l0.4-0.3C76.1-8,75.5-8.5,75-9z"/>
		<path fill="#FDBB2D" d="M71.5-8.8l-1.3,1.7v0.1c0.2,0.2,0.5,0.3,0.7,0.3c0.2-0.6,0.8-1.3,0.8-1.9C71.7-8.7,71.6-8.7,71.5-8.8z"/>
		<path fill="#FDBB2D" d="M80.1-7.3L82-5.9c-0.4-1-0.8-1.9-1.3-2.9C80.4-8.3,80.3-7.7,80.1-7.3z"/>
		<path fill="#FDBB2D" d="M74.3-8.5c0.3,0.6,0.5,1.3,0.9,2l0.6-0.4l-1.2-1.8C74.5-8.7,74.4-8.7,74.3-8.5z"/>
		<path fill="#FDBB2D" d="M72.1-8.5l-1,2c0.3,0,0.4,0.3,0.7,0.2c0.2-0.7,0.2-1.4,0.5-2C72.4-8.5,72.2-8.3,72.1-8.5z"/>
		<path fill="#FDBB2D" d="M73.9-8.3l0.4,2c0.1,0.3,0.4-0.1,0.6-0.1c-0.2-0.7-0.5-1.3-0.8-2C74-8.4,73.9-8.4,73.9-8.3z"/>
		<path fill="#FDBB2D" d="M74.1-6.2c-0.1-0.7-0.3-1.4-0.4-2.1c-0.2-0.1-0.2,0.1-0.4,0.1l-0.1,2.2C73.6-6,73.8-6.2,74.1-6.2z"/>
		<path fill="#FDBB2D" d="M72.1-6.2c0.3,0.1,0.6,0.1,0.9,0.1l0-2.2h-0.5C72.5-7.6,72.1-6.9,72.1-6.2z"/>
		<path fill="#FDBB2D" d="M68-5c-0.5-0.6-1.2-1.1-1.6-1.7l-0.3-0.6c-1.5,1.3-3.2,2.7-4.7,4.2l-1,3.3h-0.1c0-1,0.5-2,0.7-3.1
			C58.8-1,56.6,0.9,54.3,3l-1.4,4.4L53,7.6l4.2-3.2c0.6-0.2,0.6-0.7,0.9-1.2l8.9-6.8C67-4.3,67.6-4.5,68-5z"/>
		<path fill="#FDBB2D" d="M79.1-5.9c0.4,0.8,1.1,0.5,1.8,0.6c0-0.3-0.4-0.5-0.2-0.8C81-6,81.1-5.6,81.2-5.3H82
			c-0.7-0.6-1.4-1.1-2.2-1.6C79.6-6.6,79.2-6.3,79.1-5.9z"/>
		<path fill="#FDBB2D" d="M79,32.7c0.1-0.1,0.2-0.1,0.4-0.2c1.7,2.5,3.2,5.1,4.8,7.6c-0.1-1-0.5-1.9-0.6-2.8l-3.9-18.5
			c-0.3,3.1-0.5,6.3-0.7,9.5c-0.1,0-0.1,0.1-0.2,0.1c0.1-3.5,0.4-6.3,0.7-9.9l0.2-0.1c-0.7-2.6-1-5.4-1.3-8.2
			c-0.6,2.7-0.8,5.3-1.3,8c-0.1,0-0.2,0.2-0.3,0l1.5-8.8l-0.6-4.7c-0.5,1.8-0.7,3.7-1.2,5.5h-0.1c0.2-2.1,0.8-4.1,1.2-6.1l-0.7-4.9
			l-0.9,4.7c-0.1,0.4,0,0.9-0.3,1.1c0.2-2.2,0.7-4.4,1.1-6.6c0-0.8-0.2-1.6-0.2-2.4c0.1,0,0.3,0,0.3,0c1.4,9.4,2,17.4,4.2,26.6h0.2
			l3.8,4.7c0,0.1-0.2,0-0.2,0L81,22.9c1.1,6.2,2.6,12.2,3.8,18.4l0.8,1.1l1.8-7.2c0.1-0.2,0-0.7,0.4-0.6C84.9,21.2,82,8,79.1-5.3
			c-0.1-0.1-0.3-0.2-0.4-0.3c-1.1,1.2-2.5,1.8-3.9,2.1l0.7,17.8v0.9C76.5,21.1,77.8,26.9,79,32.7z M83,31.9v-0.2c1.1,1.5,2,3,3,4.5
			C84.9,34.9,84,33.4,83,31.9z"/>
		<path fill="#FDBB2D" d="M62,29.2c1.1,3,2.1,6,3.1,9h0c0.6-5,1.5-9.9,2.1-14.6c-1.3,1.8-2.4,3.6-3.7,5.3l-0.1-0.1
			c1.2-1.8,2.4-3.6,3.7-5.4l0.2-0.1c0.6-3.8,1.3-7.9,1.6-11.7c-1.1,1.2-2.2,2.5-3.4,3.8l-0.1-0.1c1.2-1.4,2.4-2.8,3.7-4.2
			c0.3-2,0.6-4.2,0.8-6.1c-1,1.3-1.8,2.7-2.9,4c0,0-0.1,0-0.2-0.1c0.9-1.4,2-2.8,2.9-4.3L70,4.6c0.2-1.9,0.6-3.7,0.7-5.5
			C70,0,69,1.1,68.2,1.9l0,0c0.8-1.2,1.9-2.1,2.8-3.1C71-2,71-2.8,71.2-3.5c-1-0.4-2-0.6-2.8-1.3l-0.7,0.6c-1.2,6-2,11.7-3.2,17.6
			c-0.3,2.5-1,4.9-1.2,7.4c1-1,1.8-2,2.7-3l0.1,0.1c-0.9,1.2-2,2.3-3,3.4c-0.5,2.3-0.8,4.8-1.3,7.1C61.8,28.8,61.5,29.4,62,29.2z"/>
		<path fill="#FDBB2D" d="M110.9-3.3v-0.4h-0.2c-0.1,0-0.1,0.2-0.1,0.3C110.7-3.3,110.7-3.2,110.9-3.3z"/>
		<path fill="#FDBB2D" d="M109.2-2.3c0.2,0.4,0.5,0.6,0.9,0.8c0.5,0.2,1,0,1.3-0.3c-0.6,0.2-1.2,0-1.6-0.4c-0.4-0.4-0.5-0.9-0.4-1.4
			C109-3.3,109.1-2.7,109.2-2.3z"/>
		<path fill="#FDBB2D" d="M71.4-3.4L71.4-3.4c-0.9,2.7,1.5,4.5,2.2,6.7v0.3c-1-1.4-1.5-3-2.4-4.5L70.7,2h0.2
			c0.5,0.7,0.9,1.5,1.3,2.2l-0.1,0.1c-0.5-0.6-0.8-1.5-1.3-2.1l-1.1,7.5c0.9,2.1,1.9,4.2,2.9,6.3v0.3c-1.2-1.9-2-4.1-3-6.1
			c-0.5,2.9-0.7,5.5-1.2,8.3c0.3,1.9,1,3.7,1.3,5.5h-0.1c-0.5-1.5-0.8-3.1-1.3-4.6c-0.2,1.4-0.5,2.8-0.6,4.1c-0.3,1.8-0.6,3.3-0.7,5
			c0.6,1,1.4,2,2,3.1v0.2h-0.2l-1.9-3c-0.3,1.6-0.5,3.2-0.8,4.9c0,1.8-0.6,3.6-0.6,5.3c1.7-2.3,3.5-4.7,5.2-6.9l0.3-0.1l3.8-21.3
			L74.3-3.4C73.3-3.3,72.4-3.2,71.4-3.4z"/>
		<rect x="110.1" y="-3.3" fill="#FDBB2D" width="0" height="0.2"/>
		<path fill="#FDBB2D" d="M53.8,10.1c-0.1,0.1-0.1,0.2-0.2,0.1C53.4,9.6,53.1,9,53,8.3c-0.2,0-0.4,0-0.4-0.2
			c-0.5,1.2-0.7,2.4-1.1,3.6c0.3,0.9,0.7,1.8,0.8,2.7c-0.5-0.6-0.6-1.6-0.9-2.4c-0.8,2-1.4,4.1-2,6.2l-0.1,0.1
			c-0.1,0-0.2-0.1-0.3-0.1c1-2.8,1.9-5.8,2.7-8.6l-1.9,1.6c-0.1,0-0.1,0-0.2,0c0.6-0.7,1.5-1.3,2.3-1.9c0.2-0.7,0.6-1.3,0.5-2
			c-0.2-0.4-0.3-0.9-0.5-1.2l-1.4,1.5c-0.1,0-0.1,0-0.2-0.1C50.7,7,51,6.4,51.7,5.9c-0.1-0.6-0.4-1.3-0.7-1.8
			c-1.1,3.8-2.4,7.6-3.4,11.4c0.2,1.9,0.4,3.9,0.7,5.8c1.8-1.6,3.3-3.4,5.1-5.1c1.5-3.9,2.9-7.7,4.4-11.6c-1.4,0.9-2.7,2.1-4,3
			C52.5,8.1,53.7,9.3,53.8,10.1z"/>
		<path fill="#FDBB2D" d="M52.6,6.8l0.8-2.5l-1.3,1.3C52.3,6,52.5,6.4,52.6,6.8z"/>
		<path fill="#FDBB2D" d="M108.6,32.1c-0.5-2.3-2.9-3.1-4.7-4c-3.3-1.4-2.3-5.1-4.3-7.3c-1.4-1.8-4.3-1.3-5.9-0.2
			c-3.4,1.6-5.4,5.2-6.5,8.5c0.1,1.9,0.7,3.6,1,5.4c0.4,0.5,0.4,1.2,0.6,1.7c1.7,0.3,3.6,0.1,5.3,0.6c4.8,1.6,9.1,4.6,14.5,4.9
			c-0.2-0.7-0.3-1.4-0.5-2.1C107.2,36.7,109.9,34.8,108.6,32.1z"/>
		<path fill="#FDBB2D" d="M65.7,39.6c0.8,1.3,1.5,2.6,2.3,4c0,0-0.1,0.1-0.2,0.1c-0.7-1.3-1.6-2.6-2.2-3.9h-0.1
			c-0.1,0-0.1,0.2-0.2,0.2c-0.2,0.1-0.2-0.2-0.2-0.1c-0.2,1.3-0.5,2.6-0.7,4l2.4,4.4l-0.1,0.1c-0.9-1.2-1.5-2.7-2.4-4l-0.4,2
			c-0.6,1.4,0.6,2.4,0.9,3.6c0.3,0.7,0.8,1.4,0.9,2.1h0c-0.7-1.3-1.3-2.6-2-4c-0.8,3.9-1.2,7.5-2,11.4c-0.1,0-0.3,0-0.3-0.1
			c0.6-3.8,1.3-7.6,1.9-11.4l-3.9,3.4l-0.1-0.1c1.3-1.2,2.7-2.5,4.1-3.5c0.4-1.9,0.8-4,1-5.9l-3.8,3.6c-0.1,0-0.2,0-0.2-0.1
			c1.3-1.3,2.6-2.4,3.9-3.7l0.3-0.1c0.1-0.6,0.3-1.3,0.3-1.9l-2.9,1.9l-0.1-0.1c1-0.7,2-1.4,3.1-2l0.1-0.3l-3.3-9.6
			c-0.3,1-0.4,1.7-0.5,2.8l-2.6,15.3l0,0.9c0.6,5.7,1.5,11,2.4,16.6h0l7.5-15.5L71,32.4c-1.8,2.4-3.5,4.6-5.2,6.9L65.7,39.6z
			 M63.5,45.1L63.5,45.1c-1.4,1.3-2.8,2.6-4.2,3.8l0-0.1C60.7,47.6,62,46.2,63.5,45.1z M59.8,53.9c1-1,1.8-2.2,2.8-3.1v0.1
			c-1,1-1.8,2.1-2.8,3.1V53.9z M60.1,57H60c0.6-1.1,1.1-2.2,1.7-3.2l0,0.1L60.1,57z"/>
		<path fill="#FDBB2D" d="M85.7,43.4c-0.3-0.2-0.4-0.5-0.6-0.7l0.6,2.8c1.1,0.6,2.3,1.1,3.3,1.8l-0.1,0.1c-1-0.5-1.9-1.1-2.9-1.6
			h-0.2c0.1,0.9,0.4,1.8,0.5,2.8c0.7,0.5,1.5,0.9,2.2,1.4l-0.1,0.1c-0.7-0.3-1.3-0.8-2-1.1c0.2,1.5,0.7,2.9,0.9,4.3
			c0,0.2-0.2,0.1-0.3,0.2c-0.4-1.3-0.6-2.6-0.9-3.9c-0.3-1.2-0.5-2.7-0.9-3.9c-0.2,1.6-0.5,3.2-0.8,4.6c-0.1,0-0.1-0.1-0.2-0.1
			c0.2-1.2,0.6-2.5,0.6-3.6c0.1-0.3,0.1-0.9,0.4-1.2l-0.8-3.9L79,32.8l0.5,2.4l2.7,14c1.9,2.7,4,5.3,6,7.9c1-2.9,2-5.7,2.9-8.6
			c-1-4.6-2.1-9.2-3.2-13.7C87.1,37.6,86.5,40.6,85.7,43.4z M83.3,47.6L83.3,47.6c0-1.8,0.6-3.5,0.8-5.3l0.1-0.4
			C83.9,43.7,83.6,45.8,83.3,47.6z"/>
	</g>
</g>
<g id="AREA_1">
	<g>
		<path fill="#720018" d="M122.5,3.6c-2.1-2.2-3.7-5-5.9-6.6c-1.4-1.6-0.5-4.2-1.1-6.2c-0.5-0.6-1.1-1.3-1.7-1.7
			c-2.6-0.9-4.8-3.1-6.1-5.5c-1.2-2.4-3.7-2.8-5.8-3.8c-0.7-0.6-1.1-1.4-1-2.3c0.2-1.9,2-3,3.5-4l-0.1,0c-3.8,0.7-7.6,1.4-11.4,1.9
			c-5.6,0.7-10.6,3.2-14.9,7c-2.1-1.5-5.3-2.1-7.8-1l-1.6-1.2c-2.3-0.3-4.6-0.8-6.9-1.1c-0.7-0.1-1.9-0.1-2.7-0.5
			c-2.5-0.4-4.9-0.7-7.3-1c-2.8,1.2-5.6,2.3-8.4,3.5l9.2,5.5c4.3,0.2,8.6,0.3,12.7,0.8c0,0.3-0.1,0.7-0.2,1c-0.2,0-0.5,0.2-0.7,0.1
			L51.7,0c-1.3,5.2-3.1,10.3-4.5,15.5l0.9,6.5l5.8-5.8c1.4-3.9,2.9-7.7,4.4-11.6c-0.4-0.3,0.1-0.7,0.2-1.1c2.8-2.2,5.7-4.3,8.5-6.5
			c-0.8,6-2,11.3-3,17.3l-2.6,14.8l-0.1,0.1c-0.9,5.8-2,11.5-3.1,17.3c-0.5,1.9,0.4,3.7,0.3,5.5c0.6,3.8,1.1,7.5,1.7,11.3
			c0.3,0.6-0.3,2.2,1,1.8c2.1-4.6,4.5-9.2,6.6-13.8c1.6-2.4,1.3-5.7,2-8.3c0.4-3.7,1.3-7.3,1.6-10.9c1.2-6.3,2.2-12.7,3.3-18.9
			l0.2-0.4c0.2,0.8,0,1.7,0.2,2.5c1.3,7.1,2.8,13.9,4.1,20.9c-2,0.6-4.2,0.5-5.7,2.3c-0.7,1.2-0.6,2.9-0.2,4.3
			c0.4,0.8,1.3,0.7,2.1,0.7c0-1.1,0.1-2,0.6-2.9c0.8-1.2,2.2-2,3.6-2.1c0.7,3.7,1.3,7.3,2.1,11l6.4,8.5c1.1-3.1,2.2-6.2,3.2-9.2
			c-0.6-3.2-1.4-6.3-2.1-9.5l0.1-0.1c4.3,1,8.6,1.8,12.9,2.6c5.7,0.8,9.4,6.1,14.3,8.7c-2.2-3-4.5-5.9-6.3-9v-0.2
			c-1.5-2.5,0-5.3,0.5-7.8c0.6-1.9-2.1-2.6-1.4-4.6c1.7-2.5,4.2-4.3,7-5c1.3-0.4,2.8-0.1,3.9-0.9c0.7-1.7,1.2-3.5,1.2-5.4
			c-0.2-0.8-1-1.3-1.6-1.6c1-1.3,2.5-2.7,1.6-4.4c-0.3-0.3-0.8-0.3-1.2-0.5c0.2-0.2,0.4-0.5,0.5-0.7c0.5-1,0-2-0.3-2.9
			c0.6-0.5,1.5-1,1.8-1.8C122.9,5,122.8,4.1,122.5,3.6z M80.9-9.7l5.3,3.9c1.5,2.4,2.8,5,4.2,7.5c-1.9-0.6-4-1.4-5.9-2.1l-4.2-4.4
			c1.4-0.7,1.2,1.2,1.9,1.8c0,0.1,0.1,0,0.2,0c-0.1-0.6-0.5-1.3-0.7-1.9c0.6,0,1.2-0.1,1.6,0.4c0.7,1.1,1.3,2.2,2.1,3.2l0.1-0.1
			c-0.5-0.9-1.2-1.7-1.6-2.6l2.1,1.6L86-2.6l2.4,2.3l0.2-0.1L86-3c-0.5,0-0.8-0.5-1.2-0.7C85.2-4,85.9-4,86.2-4.4
			c-0.5,0.1-1.1,0.3-1.6,0.5c-0.6-0.5-1.4-0.9-1.9-1.6c0.7-0.2,1.5-0.2,2.1-0.6l-0.1-0.1c-0.7,0.2-1.4,0.3-2,0.6
			c-0.7-1.1-1.1-2.5-1.8-3.7L80.9-9.7z M82-5.3h-0.8C81.1-5.6,81-6,80.7-6.2c-0.1,0.3,0.2,0.5,0.2,0.8c-0.7,0-1.4,0.2-1.8-0.6
			c0.1-0.4,0.4-0.7,0.7-1C80.6-6.4,81.3-6,82-5.3z M80.1-7.3c0.3-0.4,0.3-1,0.6-1.4c0.4,1,0.9,1.9,1.3,2.9L80.1-7.3z M72.9-19
			c1.3,0,3.1,0.5,4.4,1.3c2.6,1.8,3.8,4.8,3.3,7.8c-0.5,2.7-3,5.4-5.7,6C72-3.1,69-4.1,67.1-6.5c-1.8-2.1-2.1-5.5-0.9-8
			C67.4-17.2,70.1-18.9,72.9-19z M65.6-19.9c1.3,0.6,2.9,0,4,1.4c-0.9,0.4-1.8,1.3-2.5,1.9c-3.2-0.5-6.5-0.9-9.5-1.4l1.2-2.8
			C61-20.5,63.6-20.1,65.6-19.9z M52.7-13.7c-2.8-1.7-5.7-3.4-8.5-5.1v-0.2c2.5-1.1,5.1-2.1,7.6-3.2c2.2,0.3,4.3,0.7,6.5,1
			c-0.2,0.9-0.7,1.8-1.1,2.7h-0.1l-2.9-2.4l-0.1,0.1c0.9,0.8,2,1.7,3,2.5v0.2c-0.7,0.1-1.2-0.2-1.9-0.2h-0.2l0,0
			c-0.6-0.8-1.6-1.5-2.2-2.1c-0.4-0.4-0.8-0.8-1.3-1.2l-0.1,0.1c1.2,1.1,2.4,2.3,3.5,3.2l-2.3-0.2c-0.9-0.8-1.8-1.5-2.7-2.2
			l-0.1,0.1c0.7,0.7,1.7,1.3,2.3,2c-1.5,0.4-2.3-1.3-3.5-1.6l0,0c0.6,0.5,1.2,0.9,1.9,1.4c-1.3,0.1-2.7-0.4-4.1-0.2
			c-0.1,0.4,0.4,0.1,0.5,0.3l8.6,0.7c-0.7,0.5-1.6,1-2.4,1.4v0.2h0.2c1.3-0.5,2.2-1.9,3.8-1.4l-0.2,0.5c1.4,1.3,2.7,2.5,4.1,3.8
			C58.2-13.4,55.5-13.5,52.7-13.7z M61.5-13.4l-4.3-3.8l0.1-0.5c3.2,0.4,6.7,1.1,9.5,1.4c-0.7,1-1.3,2-1.5,3.1
			C64-13.2,62.8-13.2,61.5-13.4z M52,0.3c4.1-3.7,8.5-7.6,12.5-11.3c0.2,0.1,0.4-0.1,0.6,0c0,1.3,0.3,2.4,0.9,3.4
			c-0.5,0.6-1,0.1-1.6,0.2c-0.8,0-1.3-0.2-2.1,0v0c1,0.2,2,0.1,3,0.3l-1.7,1.6c-1.3,0.2-3,0.4-4.3,0.7v0.1c1.3,0,2.6-0.4,3.9-0.6
			c-1.6,1.5-3.2,2.8-4.7,4.1c-1.3,0.2-2.8,0.1-4.1,0.4v0c1.3,0.1,2.5-0.2,3.8-0.1c-1.3,1.2-2.6,2.4-4,3.5l0,0
			c-0.3,0.5-0.4,1-0.5,1.5h-0.2c-0.4,0.4-0.9,1-1.3,1.4c-0.3-0.4-0.4-1-0.7-1.5h-0.3C51.3,2.6,51.8,1.5,52,0.3z M53.4,4.3l-0.8,2.5
			c-0.2-0.3-0.4-0.7-0.5-1.2L53.4,4.3z M53.4,16.2c-1.8,1.7-3.3,3.5-5.1,5.1c-0.3-1.9-0.5-3.9-0.7-5.8c1-3.8,2.3-7.6,3.4-11.4
			c0.3,0.5,0.6,1.2,0.7,1.8c-0.7,0.5-1,1.1-1.5,1.7c0,0.1,0.1,0.1,0.2,0.1l1.4-1.5c0.2,0.3,0.3,0.8,0.5,1.2c0.1,0.7-0.3,1.3-0.5,2
			c-0.8,0.6-1.7,1.2-2.3,1.9c0,0.1,0.1,0,0.2,0l1.9-1.6c-0.7,2.8-1.7,5.8-2.7,8.6c0.1,0,0.2,0.2,0.3,0.1l0.1-0.1
			c0.6-2.1,1.2-4.2,2-6.2c0.4,0.8,0.4,1.7,0.9,2.4c0-0.9-0.5-1.8-0.8-2.7c0.4-1.2,0.6-2.4,1.1-3.6c0,0.1,0.2,0.2,0.4,0.2
			c0.2,0.6,0.4,1.3,0.6,1.9c0.1,0,0.2,0,0.2-0.1c-0.1-0.8-1.3-2,0-2.5c1.4-0.9,2.6-2.1,4-3C56.3,8.4,54.9,12.3,53.4,16.2z M58.2,3.3
			c-0.3,0.5-0.3,0.9-0.9,1.2L53,7.6l-0.2-0.3L54.3,3c2.3-2.1,4.5-4,6.8-5.9c-0.2,1-0.7,2-0.7,3.1h0.1l1-3.3c1.5-1.5,3.2-2.9,4.7-4.2
			l0.3,0.6C66.8-6.2,67.5-5.6,68-5c-0.4,0.5-1.1,0.8-1,1.6L58.2,3.3z M61.8,28.6c0.5-2.3,0.8-4.8,1.3-7.1c1-1.2,2.1-2.3,3-3.4
			L66,17.9c-1,1-1.8,2-2.7,3c0.2-2.5,0.9-4.9,1.2-7.4c1.2-5.9,2-11.6,3.2-17.6l0.7-0.6c0.8,0.6,1.9,0.9,2.8,1.3
			C71-2.8,71-2,70.9-1.3c-0.9,1-2,2-2.8,3.1l0,0C69,1.1,70,0,70.7-0.9c-0.2,1.8-0.5,3.7-0.7,5.5l-0.2,0.1c-0.9,1.4-2,2.8-2.9,4.3
			C66.9,9,66.9,9,67,9c1.1-1.3,1.9-2.7,2.9-4c-0.2,1.9-0.5,4.1-0.8,6.1c-1.3,1.4-2.5,2.8-3.7,4.2l0.1,0.1c1.2-1.3,2.3-2.6,3.4-3.8
			c-0.4,3.8-1.1,7.9-1.6,11.7l-0.2,0.1c-1.2,1.8-2.4,3.6-3.7,5.4l0.1,0.1c1.3-1.8,2.4-3.6,3.7-5.3c-0.6,4.7-1.4,9.6-2.1,14.6h0
			c-1-3-2.1-6-3.1-9C61.5,29.4,61.8,28.8,61.8,28.6z M68.3,49.5L60.8,65h0c-0.8-5.7-1.7-10.9-2.4-16.6l0-0.9l2.6-15.3
			c0.2-1.1,0.2-1.7,0.5-2.8l3.3,9.6l-0.1,0.3c-1.1,0.6-2.1,1.3-3.1,2l0.1,0.1l2.9-1.9c0,0.6-0.2,1.3-0.3,1.9l-0.3,0.1
			c-1.3,1.3-2.7,2.4-3.9,3.7c0.1,0.1,0.1,0.2,0.2,0.1l3.8-3.6c-0.1,1.9-0.6,4-1,5.9c-1.4,1.1-2.8,2.3-4.1,3.5l0.1,0.1l3.9-3.4
			c-0.6,3.8-1.3,7.6-1.9,11.4c0.1,0.1,0.2,0.1,0.3,0.1c0.8-3.9,1.2-7.4,2-11.4c0.7,1.3,1.3,2.7,2,4h0c-0.1-0.7-0.5-1.4-0.9-2.1
			c-0.3-1.2-1.6-2.2-0.9-3.6l0.4-2c0.8,1.3,1.4,2.8,2.4,4l0.1-0.1l-2.4-4.4c0.2-1.3,0.5-2.6,0.7-4c0.1-0.1,0,0.2,0.2,0.1
			c0.1,0,0.1-0.2,0.2-0.2h0.1c0.6,1.3,1.5,2.6,2.2,3.9c0.1,0,0.1-0.1,0.2-0.1c-0.8-1.3-1.5-2.7-2.3-4l0.1-0.3
			c1.8-2.3,3.4-4.6,5.2-6.9L68.3,49.5z M71,32.1l-0.3,0.1c-1.7,2.3-3.5,4.6-5.2,6.9c0-1.7,0.6-3.5,0.6-5.3c0.3-1.7,0.5-3.3,0.8-4.9
			l1.9,3H69v-0.2c-0.6-1-1.3-2.1-2-3.1c0.1-1.7,0.4-3.2,0.7-5c0.1-1.3,0.4-2.7,0.6-4.1c0.5,1.5,0.8,3.1,1.3,4.6h0.1
			c-0.3-1.8-1-3.6-1.3-5.5c0.5-2.8,0.7-5.5,1.2-8.3c1,2,1.8,4.2,3,6.1V16c-1-2.1-2-4.2-2.9-6.3l1.1-7.5c0.5,0.6,0.8,1.5,1.3,2.1
			l0.1-0.1c-0.4-0.7-0.8-1.5-1.3-2.2h-0.2l0.4-2.9c0.9,1.5,1.4,3.1,2.4,4.5V3.3c-0.7-2.2-3.1-4-2.1-6.6l-0.1-0.1
			c1,0.2,1.9,0.1,2.9,0.1l0.5,14.1L71,32.1z M74.8-3.5c1.5-0.4,2.9-1,3.9-2.1c0.1,0.1,0.3,0.1,0.4,0.3c2.9,13.3,5.8,26.5,8.6,40
			c-0.4,0-0.3,0.4-0.4,0.6l-1.8,7.2l-0.8-1.1c-1.2-6.2-2.7-12.2-3.8-18.4l3.6,4.5c0.1,0,0.2,0,0.2,0l-3.8-4.7h-0.2
			c-2.2-9.2-2.8-17.1-4.2-26.6c-0.1-0.1-0.2,0-0.3,0c0,0.8,0.2,1.6,0.2,2.4c-0.4,2.2-0.9,4.4-1.1,6.6c0.4-0.2,0.2-0.7,0.3-1.1
			l0.9-4.7l0.7,4.9c-0.4,2-1,4-1.2,6.1h0.1c0.5-1.8,0.7-3.7,1.2-5.5l0.6,4.7l-1.5,8.8c0.1,0.2,0.2,0,0.3,0c0.6-2.7,0.7-5.2,1.3-8
			c0.4,2.8,0.6,5.5,1.3,8.2l-0.2,0.1c-0.3,3.6-0.6,6.4-0.7,9.9c0.1,0,0.1-0.1,0.2-0.1c0.2-3.2,0.4-6.4,0.7-9.5l3.9,18.5
			c0.1,1,0.5,1.9,0.6,2.8c-1.6-2.5-3.1-5.1-4.8-7.6c-0.1,0.1-0.2,0.1-0.4,0.2c-1.2-5.8-2.5-11.6-3.5-17.5v-0.9L74.8-3.5z M91.1,48.5
			c-0.9,2.9-2,5.7-2.9,8.6c-2-2.6-4.1-5.2-6-7.9l-2.7-14L79,32.8l5.5,8.8l0.8,3.9c-0.3,0.3-0.3,0.8-0.4,1.2c0,1.1-0.4,2.4-0.6,3.6
			c0.1,0,0.1,0.1,0.2,0.1c0.3-1.4,0.6-3.1,0.8-4.6c0.4,1.2,0.6,2.7,0.9,3.9c0.2,1.3,0.5,2.6,0.9,3.9c0.1-0.1,0.3,0,0.3-0.2
			c-0.2-1.5-0.7-2.9-0.9-4.3c0.7,0.2,1.3,0.8,2,1.1l0.1-0.1c-0.6-0.5-1.5-0.9-2.2-1.4c-0.1-0.9-0.4-1.9-0.5-2.8H86
			c1,0.5,1.9,1,2.9,1.6l0.1-0.1c-1.1-0.7-2.2-1.2-3.3-1.8l-0.6-2.8c0.2,0.2,0.3,0.6,0.6,0.7c0.8-2.9,1.4-5.8,2.2-8.7
			C89,39.3,90.1,43.9,91.1,48.5z M108.1,39.5c0.2,0.7,0.3,1.4,0.5,2.1c-5.4-0.2-9.6-3.2-14.5-4.9c-1.7-0.5-3.5-0.3-5.3-0.6
			c-0.2-0.5-0.2-1.3-0.6-1.7c-0.2-1.9-0.9-3.6-1-5.4c1.1-3.3,3.1-6.8,6.5-8.5c1.6-1.1,4.5-1.6,5.9,0.2c2.1,2.2,1,6,4.3,7.3
			c1.8,0.9,4.2,1.7,4.7,4C109.9,34.8,107.2,36.7,108.1,39.5z M120.7,5.9c-0.9,0.7-2.2,0.6-3.4,0.6c-0.3-0.1-0.7-0.3-1-0.5
			c-0.1,0.6-0.1,1.2,0.4,1.6c0.7,0.7,1.7,0.7,2.7,0.7c0.2,0.5,0.4,1.1,0.1,1.6c-0.9,1.2-2.4,1.4-3.5,2.3l-3,2.4
			c-0.4-0.1-0.8-0.3-1.2-0.1c-0.3,0.2-0.7,0.4-0.8,0.8c0.4,1,1.5,1.2,2.2,1.7c1-2.4,3.4-4.4,5.8-5.1c0.5,0.1,1.1,0.1,1.4,0.5
			c-0.2,0.9-1.2,1.3-1.6,2c-0.4,0.6-0.8,1.2-1,1.9c0.7,0.5,1.7,0.7,2.2,1.6c0,1.7-0.8,3-1.3,4.5c-4.3,0.7-7.4,1.3-12.1,1
			c-1.5-1.6-2.3-3.4-2.6-5.5c-0.4-1.7-1.6-3.8-3.5-4.3c-0.5-0.2-1.3-0.1-1.7,0c0.2,1.5,0.8,3.7-0.8,4.7c-1.2,0.3-2.3-0.6-3.1-1.3
			c-2.2-3.1-5.1-5.8-7.7-8.5c-0.6-0.9-0.9-1.8-0.7-2.9c0.4-1.4,1.9-2.5,3.2-2.8c0.5-0.1,1.1-0.2,1.6-0.1c0.8-0.2,1.6,0.2,2.4,0.1
			c-1-1.1-2.2-2.4-1.5-4c2.2-1.3,4.4-0.8,6.8-0.2h0.1c-0.1-0.6-0.5-1.3-0.9-1.8c-1.6-3.5-6.4-0.7-8.2-4c-0.6-1.1-0.4-2.5-1.2-3.5
			c-0.9-0.9-1.8-1.9-2.8-2.8c3-2.5,6.5-4.2,10.7-3.6c3.1,0.3,7.2-1.3,9.2,1.8c1.2,3.2,4.6,4.1,7.2,5.6c0.8,0.7,0.9,1.8,0.7,2.8
			c-0.2,0.4-0.3,1-0.8,1.2c-1.5,0.5-3.2-0.6-4.5,0.4c-1.1,1.1-2.3,2.3-3.5,3.2c0.7-0.1,1.6-0.2,2.3-0.6c-0.3,1.2-1.3,2.3-1.4,3.7
			c0.2,0.3,0.4-0.1,0.6,0.1c1.3,0.2,2.2-1.9,3.6-1c0.3,0.2,0.6,0.4,0.6,0.8c0,0.5-0.3,0.8-0.2,1.2c0.6-0.3,1.3-0.8,1.4-1.6
			c-0.4-1.5,0.7-2.9,1.8-3.8c2.3,2.7,5.5,4.5,7.2,7.4C121.4,4.6,121.1,5.4,120.7,5.9z M109.8-2.2c0.4,0.4,1,0.6,1.6,0.4
			c-0.3,0.3-0.8,0.5-1.3,0.3c-0.4-0.2-0.7-0.4-0.9-0.8c-0.1-0.4-0.2-1,0.2-1.3C109.3-3.1,109.4-2.6,109.8-2.2z M110.1-3.1v-0.2h0
			L110.1-3.1L110.1-3.1z M110.7-3.7h0.2v0.4c-0.1,0-0.2-0.1-0.3-0.1C110.5-3.5,110.5-3.6,110.7-3.7z"/>
		<path fill="#720018" d="M61.6-17.6c-0.8-0.7-1.9-1.3-2.7-2v0.2L61.6-17.6L61.6-17.6z"/>
		<path fill="#720018" d="M50-16.6c0.9-0.4,1.9-0.8,2.7-1.3C51.8-17.6,50.9-17,50-16.6L50-16.6z"/>
		<path fill="#720018" d="M69.7-7C71-5.8,73.2-5.5,75-6.2c1-0.3,1.9-1.2,2.7-1.9c0.1-0.3,0.2-0.7,0.5-1c0.7-1.6,0.5-3.6-0.3-5.1
			c-1.3-1.8-3.2-2.8-5.4-2.6c-1.9,0.3-3.8,1.7-4.4,3.6C67.2-11,67.9-8.5,69.7-7z M67.9-10.6c0.7-0.1,1.4-0.1,2.1-0.2l0.1,0.3v0.1
			l-2,0.6C68-10,68-10.3,67.9-10.6z M68.2-9.5c0.6-0.3,1.4-0.4,2.1-0.6l0.1,0.3l-1.9,1C68.4-9,68.2-9.3,68.2-9.5z M68.7-8.7l1.9-1
			c0.1,0.1,0.2,0.2,0.2,0.3c-0.6,0.4-1.1,0.9-1.7,1.3C68.9-8.3,68.7-8.4,68.7-8.7z M69.3-7.9c0.6-0.4,1.1-1,1.7-1.3l0.3,0.3L70-7.2
			C69.7-7.3,69.3-7.5,69.3-7.9z M70.2-6.9v-0.1l1.3-1.7c0.1,0.1,0.2,0.1,0.2,0.2c0,0.6-0.6,1.3-0.8,1.9C70.7-6.6,70.4-6.7,70.2-6.9z
			 M71.1-6.4l1-2c0.1,0.1,0.3,0,0.3,0.2c-0.3,0.6-0.3,1.3-0.5,2C71.5-6.2,71.4-6.5,71.1-6.4z M73-6.1c-0.3,0-0.6,0-0.9-0.1
			c0-0.7,0.4-1.4,0.5-2.1h0.5L73-6.1z M74.3-6.4l-0.4-2c0-0.1,0.1-0.1,0.2-0.1c0.3,0.7,0.6,1.3,0.8,2C74.7-6.5,74.4-6.1,74.3-6.4z
			 M75.2-6.5c-0.3-0.6-0.6-1.3-0.9-2c0-0.1,0.2-0.2,0.3-0.2l1.2,1.8L75.2-6.5z M76.1-7.1c-0.5-0.5-0.8-1.2-1.3-1.7
			C74.8-8.9,74.9-9,75-9c0.5,0.5,1.1,1,1.4,1.6L76.1-7.1z M76.8-7.6c-0.6-0.4-1-1-1.6-1.5l0.2-0.2l1.8,1.2C77-8,77-7.8,76.8-7.6z
			 M77.3-8.3l-1.8-1.2l0.1-0.3c0.7,0.3,1.4,0.5,2,0.9L77.3-8.3z M77.6-9.3C77-9.5,76.4-9.7,75.8-10c-0.1-0.1,0-0.2,0.1-0.3L78-9.8
			C77.8-9.7,78-9,77.6-9.3z M78.1-10.1c-0.6,0-1.4-0.2-2.1-0.4c0.1-0.1,0-0.4,0.1-0.6c0.7,0,1.4-0.1,2.2-0.2
			C78.2-10.9,78.2-10.5,78.1-10.1z M78.2-11.4l-2.1,0c-0.1-0.1,0-0.3,0-0.4c0.6-0.3,1.4-0.4,2.1-0.6C78.2-12.1,78.2-11.8,78.2-11.4z
			 M77.8-13.4l0.2,0.6v0.2c-0.7,0.2-1.4,0.3-2.1,0.5c-0.1-0.1-0.1-0.3-0.1-0.4C76.5-12.6,77.1-13.3,77.8-13.4z M77.6-13.7
			c-0.6,0.3-1.3,0.7-1.9,1l-0.2-0.2c0.5-0.5,1.2-1,1.7-1.4C77.4-14.2,77.5-13.9,77.6-13.7z M77.1-14.5c-0.5,0.6-1.1,0.7-1.6,1.3
			c-0.2,0-0.2-0.2-0.3-0.2c0.3-0.6,0.9-1.2,1.3-1.8C76.7-15,76.9-14.7,77.1-14.5z M76.2-15.4c-0.2,0.7-0.9,1.2-1.2,1.8
			c-0.2,0-0.2-0.2-0.3-0.2c0.2-0.7,0.6-1.3,0.9-1.9C75.7-15.7,76-15.6,76.2-15.4z M75-16.1c0.1,0.2,0.3,0.2,0.2,0.4L74.4-14
			c0,0.1-0.2-0.1-0.3,0c0.1-0.8,0.3-1.5,0.5-2.2C74.7-16.2,74.9-16.1,75-16.1z M73.4-16.5c0.3,0.1,0.6,0,0.9,0.2l-0.5,2.1
			c-0.1-0.1-0.3,0-0.4-0.1C73.5-14.9,73.1-15.9,73.4-16.5z M73.3-8.3c0.2,0,0.2-0.1,0.4-0.1c0.1,0.7,0.3,1.4,0.4,2.1
			c-0.3,0-0.5,0.2-0.9,0.1L73.3-8.3z M73.1-16.4c0,0.7,0,1.3,0.1,2.1c-0.1,0-0.2,0.1-0.4,0.1c0-0.7-0.4-1.4-0.4-2.1
			C72.6-16.6,72.8-16.5,73.1-16.4z M72.1-16.4l0.4,2.1c-0.2,0.1-0.3,0.1-0.5,0.1l-0.8-1.9C71.4-16.3,71.8-16.3,72.1-16.4z M70.9-16
			c0.3,0.6,0.6,1.3,0.9,2l-0.2,0.2c-0.5-0.5-0.9-1.2-1.3-1.8C70.4-15.9,70.8-15.8,70.9-16z M70.1-15.5c0.5,0.5,0.9,1.2,1.2,1.8
			l-0.4,0.3l-1.5-1.4C69.4-15.2,69.9-15.3,70.1-15.5z M69.2-14.7l1.5,1.4c0,0.2-0.1,0.2-0.2,0.4c-0.6-0.4-1.2-0.7-1.8-1.2L69.2-14.7
			z M68.6-13.8l1.7,1.1c0.2,0.2-0.1,0.3,0,0.5c-0.7-0.2-1.3-0.4-2-0.7C68.2-13.3,68.5-13.6,68.6-13.8z M68.2-12.8
			c0.6,0.2,1.3,0.5,1.9,0.8v0.5L68-12C68-12.3,68-12.6,68.2-12.8z M67.9-11.7l2.1,0.4v0.4l-2.1,0.1V-11.7z"/>
		<path fill="#720018" d="M60.1-15.6c1-0.4,2-0.6,3-1c-1,0.2-1.9,0.7-3,0.9V-15.6z"/>
		<path fill="#720018" d="M108.8,4c0.6,0.1,1.3,0.6,1.8,0.7c0.2-0.3,0.3-0.6,0.3-0.9c-3-1.4-6-2.9-9-4.3c0,0.3-0.4,0.6-0.3,0.9
			L108.8,4z"/>
		<path fill="#720018" d="M110.4,6.2c0-0.3,0.4-0.6,0.3-0.9l-9-4.3l-0.4,0.8c2.3,1.2,4.6,2.3,6.9,3.3C108.9,5.5,109.6,6.1,110.4,6.2
			z"/>
		<path fill="#720018" d="M110.5,7.1c-2.9-1.5-6.1-2.9-9.1-4.4l-0.4,0.9c2.9,1.5,6,3,9,4.3L110.5,7.1z"/>
		<path fill="#720018" d="M113.8,6c-0.6,1-1.7,2-2.8,2.2c-2,0.7-3.3-1.2-4.9-1.7c-2.5-0.3-4.6-1.6-6.3-3.6c0.4,1.3-0.1,2.9,0.5,4.2
			c0.6,2.2,3,0.9,4.5,1.3c1.3,0.9,2,2.5,3.4,3.3h0.2c0.1-0.5,0.4-0.9,0.7-1.3c0.5-0.6,1.1-0.4,1.8-0.4c0.1,0.2,0.4,0.1,0.6,0.1
			c0.7-0.1,0.7-1,1-1.5c0.4-0.8,1.5-0.8,1.7-1.7C114.5,6.5,113.9,6.3,113.8,6z"/>
		<path fill="#720018" d="M95.9,8.5c-0.6-0.4-1-0.9-0.9-1.6c0.6-0.7,1.6-0.5,2.4-0.7c0.1-0.6-0.3-1-0.8-1.3c-1.6,0.3-2.6-1.1-4.2-1
			c-1.3,0.5-3.4,0.3-3.9,2.1c-0.2,0.7,0.1,1.3,0.5,1.8c-0.2-0.4-0.3-1-0.2-1.5c1-1.2,2.4-1.9,4-1.6l0.1,0.1
			c-0.6,1.3-2.8,1.8-2.4,3.6c0.2,0.9,0.9,1.6,1.7,2.1c-0.2-0.6-0.6-1.3-0.4-2.1c0.2-0.3,0.4-0.6,0.7-0.7c0.4-0.2,0.8,0,1.2,0.3
			c0.5,1.3,0.4,3.3,2.3,3.8c0.8,0.1,1.6-0.1,2.1-0.8c0-0.3,0.4-0.7,0.1-1C97.7,8.9,96.7,8.5,95.9,8.5z"/>
		<path fill="#720018" d="M95.6,13.4l0.5,0.5c0.3,0.5,0.5,1.3,1,1.6c0.3-0.1,0.4-0.4,0.6-0.6C97.9,13.5,96.3,13.8,95.6,13.4z"/>
		<path fill="#720018" d="M83,31.9c1,1.4,1.9,3,3,4.3c-1-1.5-1.9-3-3-4.5V31.9z"/>
		<path fill="#720018" d="M83.2,47.6L83.2,47.6c0.4-1.8,0.7-3.9,1-5.7l-0.1,0.4C83.9,44.1,83.3,45.8,83.2,47.6z"/>
		<path fill="#720018" d="M63.6,45.2L63.6,45.2c-1.6,1-2.9,2.5-4.3,3.6l0,0.1C60.8,47.7,62.2,46.4,63.6,45.2z"/>
		<path fill="#720018" d="M62.5,50.9v-0.1c-1,0.9-1.8,2.1-2.8,3.1V54C60.8,53,61.6,51.9,62.5,50.9z"/>
		<path fill="#720018" d="M61.8,53.7c-0.6,1.1-1.2,2.2-1.7,3.2h0.1L61.8,53.7L61.8,53.7z"/>
	</g>
</g>
</svg>
