<?xml version="1.0" encoding="utf-8"?>
<!-- Generator: Adobe Illustrator 19.1.0, SVG Export Plug-In . SVG Version: 6.00 Build 0)  -->
<!DOCTYPE svg PUBLIC "-//W3C//DTD SVG 1.1//EN" "http://www.w3.org/Graphics/SVG/1.1/DTD/svg11.dtd">
<svg version="1.1" xmlns="http://www.w3.org/2000/svg" xmlns:xlink="http://www.w3.org/1999/xlink" x="0px" y="0px"
	 viewBox="33 -33 100 100" enable-background="new 33 -33 100 100" xml:space="preserve">
<g id="AREA_3">
	<path fill="none" stroke="#004D2A" stroke-width="1.9646" stroke-linejoin="round" stroke-miterlimit="10" d="M119.7,10.5
		c1.5-1.6,1.6-4,0.9-6c-1.4-2.5-2.3-5.2-4.2-7.4c-0.1-1.6-0.6-3.3-1.8-4.5c-2.1-2.7-3.2-6.2-6.6-7.8l-0.6-2.1
		c-0.9-2.1-3.3-1.8-5.2-2c-1.1-1.4-2.1-2.9-3.7-3.8c-2.1-1-4-2.6-6.5-2.6c-1.7,0.3-2.6,1.8-3.3,3.2c-0.6,0.4-1.3,0.6-1.9,0.4
		c-0.6-0.2-0.9-0.9-1.2-1.4l-2.2,1.3c-0.5-0.4-1-0.8-1.6-1c-0.7-0.2-1.3,0.1-1.8,0.4c-1.5,1-3.4,0.1-4.8-0.4c-0.9-0.4-1.8-1-2.7-1.3
		l2.9,5.2v0.2L74-19.9c-1.8-0.7-3.2,0.6-5,0.5c-1.4-0.9-1.2-2.7-1.6-4.2c-0.9,1.1-0.8,2.8-0.7,4.2c-1.5,0.1-3.1,0-4.4,0.5
		c-1,0.5-1.2,1.6-1.3,2.5c0.9-1.8,2.8-2,4.5-1.8c-0.1,1.1-0.7,1.9-0.9,2.9c-2.7,0.8-4.9,2.7-7.1,4.5l-1.2-0.8
		c-1.6-0.8-3.2,0.4-4.3,1.1l1-0.4c1.2-0.4,2.3,0.2,3.2,0.7c-1.4,0.7-2.3,2-2.7,3.4c1.1-0.7,2-1.6,3.2-2c1-0.4,2.1,0,2.9,0.6
		c-1.8,0.7-3.6,1.4-4.9,3.2C52.4-2,50.2,1.8,52.1,5.5c-0.3,1.2-0.4,2.5-0.3,3.9l-0.1,0.2c-1.7,0.4-3.2,1.7-4.2,3.2
		c1.1-0.5,2.3-1.2,3.4-1.5l-1.2,3.6c0.9-1.5,2.5-3.3,4.5-3c-0.8,1-1.3,2.2-1.4,3.5c-0.1,1.5-1.6,2.3-2.8,2.8l0.6,3.3
		c0.1-0.5,0.4-1,0.8-1.4c0.7-0.9,2-0.8,3-0.7c-0.6,0.5-1.6,0.9-2,1.8c-0.5,2.2-2.1,4-4,5.2c0.4,0.1,0.8,0.2,1.2,0.4
		c-1,1.8-0.6,4.3,0.3,6l0.6-2.3c0.8,0,1.7,0.1,2.5,0.3c0,1.3-0.2,2.8,0.1,3.9c0.7,2.4-0.4,4.3-1.3,6.2c0.6-0.5,1.2-1.2,1.8-1.4
		l0,1.2c-0.1,1.5,1.1,2.4,2.3,2.9l1.3-2.7c1.4-2.6,4.1-5.1,7.3-4.6c2.4,2.9,7.6,4.3,6.6,9c0.9,1.8-0.2,4.2,0.3,6.2
		c0.2,2.4,1.5,5,3.9,6.1v1.2l8.7,4.3c-1-2.6-2.1-5.2-2.8-7.9l1.4-0.7l8,3.2l-1.1-4.7v-0.5c2.1,1.3,4.1,3,6.1,4.4l0.3,0.1
		C95.5,54,91.6,54,92.1,51c0.1-0.5,0.7-0.8,1.1-1c1.6-0.2,2.8,0.9,3.5,2c1.6,2.1,0.9,5.4,0.6,7.8c1.2,0.8,2.5,1.7,3.9,1.5
		c2.7-0.4,4.5-3.3,5.4-5.7l-2.6-1.4c-3-2-3.2-5.5-4.5-8.3c-0.1-0.7-0.2-1.5,0.1-2.1l0.3-0.4l0.6-0.8c0.6-1.4,1.5,0.2,2.3,0.3
		c3,1.7,2.3,5.3,2.4,8.5l1.1-2.1c0.5,1.7,0.4,3.6,0.7,5.4c1.1-0.5,2.1-1.3,3.2-1.8c-0.2,3.4,1.2,6.1,3.4,8.4c0.7-1.2,1.3-2.5,2-3.6
		c1,0.5,1.9,1.3,2.8,1.8c-0.6-4-1.3-8-1.5-11.7c-0.4-7.9,0.8-16.1-0.6-23.8c1.8-1.9,2.6-4.3,3.8-6.5c0.9-2.3-0.3-4.3-1.2-6.2
		C119.2,11.1,119.4,10.7,119.7,10.5z"/>
</g>
<g id="AREA_2">
	<g>
		<path fill="#FDBB2D" d="M85.8-12.2c0.6-0.3,0.8-1.1,0.9-1.8c0.3,0.1,0.6,0.4,0.8,0.6c1.1,0.7,1.6,2.1,3,2.3
			c0.8-0.2,1.6-0.9,1.8-1.8c0.3-1.5-0.6-2.7-1.1-3.9l0.8,0.3c1,0.9,1.1,2.1,1.3,3.3c0.4,1,1.5,1.3,2.5,1.6c0.6,0.1,1.6,0.4,2-0.3
			c0.3-1.2-0.2-2.3-0.6-3.3c-0.3-0.5-0.8-1.1-0.9-1.6H97c0.7,1.2,1.9,2.2,2.3,3.5c0.1,1.1-0.5,1.8-1,2.7c0.9,0.2,2.2,0.5,3.1,0
			c0.8-0.4,1-1.2,0.8-2c-0.7-2,0.2-4.9-1.8-6.2c-0.6-0.2-1,0.3-1.5,0.4c-0.8,0.4-1.3-0.5-1.8-0.9c-1-1-2.7-0.6-3.9-0.3
			c0.2,1,0.6,2.1,0.8,3c-1.1-0.9-1.7-2-2.7-2.9c-0.8-0.5-1.9-0.7-2.8-0.3c-0.2,0.5,0.6,0.7,0.5,1.1c-0.9,0.1-1.8-0.5-2.5,0.1
			c0,0.2-0.1,0.6,0.1,0.8c0.2,0.7,0.9,1.4,1.1,2c-0.3,0-0.5-0.1-0.8-0.1c-0.3-1.4-0.8-2.9-2-3.9c-1.4-0.6-2.5,0.8-3.5,1.4l-0.1,0.2
			c1.1,1.3,2,2.8,2.8,4.3C84.6-13.2,85-12.4,85.8-12.2z"/>
		<path fill="#FDBB2D" d="M84.8-11.4c0.1-1.6-1.6-2.3-2.4-3.5c-0.8-1.1-1.2-2.9-2.8-3.3c-1-0.2-2.1,0.1-2.9,0.5c2,2.1,4,4.4,5.6,6.8
			C83.2-10.9,84.2-10.8,84.8-11.4z"/>
		<path fill="#FDBB2D" d="M58.3,2.7c2.2,1.7-1.8,2.9-0.2,4.8c0.8,1,2.1-0.2,2.9,0.6c0.1,2-0.6,3.7-0.8,5.5l0.1,0.2L73.5,7l0.3-1.3
			c0-0.4,0.6-0.7,0.4-1.1C73,4,71.9,4.7,70.4,4.7c-2.4,0.1-4.1,0.4-6.4,0.8C65.8,3,68.9,3.2,71.7,3c-0.5-1.1-1-2.5-0.4-3.7
			c0.5-0.8,1.3-1.4,2.2-1.6v-0.1c-0.8-0.2-1.6-0.4-2.4-0.8c-2-2.4-4.7-2.9-6.9-4.9c1.3,0.2,2.6,0.8,3.7,1.5c2.1,1.7,4,3.7,6.8,3.7
			c0.7-0.8,1.7-1.4,1.6-2.6c-0.8-1-2.1-1.4-2.9-2.1c0.8,0.3,1.5,0.8,2.3,0.8c1.5-0.1,3.1,0.1,4.3-0.6c0.3-0.7-0.2-1.3-0.4-1.8
			L79.9-9c0.5,0.8,1.6,0.9,2.4,0.8c-0.5-3.7-4.6-5.9-7.2-8.6c-0.4,0.8-0.8,1.9-1.8,2.2c-2,0.2-4.1-1.3-6-0.1c-0.7,2.5-3,4-4.3,6.2
			l0.4,0.2c-0.9-0.1-1.9,0.2-2.6,0.9c-0.1,0.2,0,0.4,0.1,0.5c1.1,0.6,2.3,1.2,3.1,2.2c0.2,0.4,0.1,0.8-0.1,1.2c-0.6,0-1-0.7-1.6-0.8
			c-1,0.4-1.3,1.5-2.1,2.2l1.2,1.1l-0.5,1.3c-0.8,1.2-2.2,1.3-3.4,1.5C57.7,2.2,58,2.5,58.3,2.7z M79.7-9.2c-1-1.3-2.8-2.4-3.6-3.9
			C77.6-12.1,79.1-10.8,79.7-9.2z M76.7-9.1c-2.1-1.4-5.3-1.5-6.3-4.3C72.6-12.4,74.7-11,76.7-9.1z"/>
		<path fill="#FDBB2D" d="M103.3-9.8c1,0.7,2,1.5,3.2,1.7c0.6,0.2,1,1,1.7,1.2c1.2-0.8,1.4-2.5,1-3.8l-0.9-0.5
			c-0.7-0.5-0.4-1.5-0.5-2.3c-0.8-1.6-3.2-1.4-4.7-1.5l0,0.2C104.3-13.4,103.1-11.4,103.3-9.8z"/>
		<path fill="#FDBB2D" d="M111.3-3.4c0.9,0.6,2.2,1,3.3,0.4c0.2-1.3-1.1-2.1-1.8-3.1c-0.8-1.2-0.5-2.9-0.9-4.2c-0.2-1-1.4-0.7-2-0.5
			c0,1.2,0.1,2.4-0.1,3.5c-0.2,0.8-1.1,0.9-1.7,1.2C109.3-5.7,110.3-4.4,111.3-3.4z"/>
		<path fill="#FDBB2D" d="M109.1-2.5c0.4,0.3,0.7,0.6,0.8,1c0,0.3,0.1,0.8-0.3,1c-0.6,0.4-1.4,0.4-2.1,0.1c-0.5-0.4-0.8-0.8-0.8-1.4
			c0.1-0.4,0.2-0.7,0.6-0.9c0.5-0.1,1.1,0,1.5,0.2c0.2-1,0.1-2.2-0.7-2.9c-0.9-0.6-1.9,0.2-2.7,0.6c0.5,0.4,1.2,1,1,1.9
			c-0.1,0.3-0.4,0.5-0.7,0.6c-0.8,0.3-1.8,0.4-2.4-0.3c-0.3-0.7,0.1-1.3,0.5-1.8c0.3-0.4,0.9-0.6,1.4-0.4c-0.6-1.1-0.7-2.4-1.5-3.4
			c-0.8-0.2-1.4,0.4-2,0.8l-2.2,0c-0.2-0.1-0.2-0.4-0.3-0.5c-0.4-0.8-1.2-2-2.2-1.9c-0.8,0.2-1.5,1-2,1.6h-1.4
			c-0.4-0.3-0.2-0.9-0.4-1.2c-0.3-0.6-0.9-0.9-1.5-1c-0.9,0.1-1.3,1.2-1.7,1.9l-1,0.2c-1.3-0.4-2.1-2.1-3.5-2.5
			c-0.4,0.1-0.8,0.6-1.1,1c-0.2,0.6,0.2,1.1,0.5,1.5c-0.6,1.2-2,0.5-2.8,1.1c0,2.1-1.5-0.2-2.4,0.4c-0.6,0.1-1.2,0.4-1.6,1
			c-0.2,0.6,0.3,1,0.5,1.5c0,0.5-0.1,0.9-0.4,1.3c-1.4-0.2-2.9,0-3.9,1.2C74.4-1,75-0.5,75.4,0c-0.6,0.3-1.2,0.5-1.7,1
			c-0.7,0.8-1,1.8-0.7,2.9l2,0.2l1.4-0.5C78,3,79.3,4.4,80.7,3.4c3.8-4.1,9.2-5.6,14.5-5.9c0.4,0.6,1,1.1,1.1,1.8
			c0.2,0.6,0.1,1.3-0.3,1.8c-0.4,0.4-1,0.7-1.1,1.2c1.2,0.6,2.2,1.6,3.5,2l2.7-1.5c-0.8-0.6-2.1-1.2-2.3-2.4c-0.3-1,0-2,0.5-2.8
			l1.3,0.1c3.3-0.2,5.9,1.4,8.6,2.7c0.9,0.4,1,1.3,1.1,2.1c0.3,0.8,1.2,0.7,1.9,0.8C112.3,1,111.4-1.7,109.1-2.5z M80.9,1.9
			c-1.2,0.4-2.9,0.4-4-0.2c-0.4-0.2-0.7-0.7-0.6-1.1c0.8-1.2,2.3-1.4,3.7-1.1c0.7,0.2,1.6,0.5,1.8,1.3C81.9,1.3,81.4,1.7,80.9,1.9z
			 M84-0.2c-1,0.8-2.2,0-3.1-0.5c-0.6-0.5-1.1-0.8-1.5-1.5c-0.2-0.4,0-1,0.4-1.2c1.7-0.5,3.4,0.6,4.1,2.1C84.1-1,84.2-0.6,84-0.2z
			 M86.9-1.6c-0.4,0.4-0.8,0.6-1.3,0.4C84.4-2,83.4-3.4,83.7-5c0.2-0.5,0.7-0.6,1.1-0.6c1,0.1,1.9,0.6,2.5,1.4
			C87.8-3.4,87.4-2.3,86.9-1.6z M91.5-3.2c-0.3,0.4-0.8,0.6-1.3,0.5c-0.9-0.3-1.8-1.2-1.9-2.1c-0.2-0.6,0-1.1,0.3-1.6
			c0.4-0.4,1-0.3,1.5-0.2c0.7,0.2,1.2,0.7,1.6,1.2C92.1-4.7,91.9-3.8,91.5-3.2z M96.9-3.4c-0.4,0.4-1.1,0.6-1.7,0.4
			c-0.7-0.4-1.4-1.1-1.6-2c-0.1-0.7,0.1-1.3,0.4-1.8c0.3-0.3,0.6-0.4,0.9-0.5c1.1,0,1.8,0.9,2.5,1.7C97.7-4.9,97.4-4,96.9-3.4z
			 M102.1-4.2c-0.2,0.6-0.7,1.1-1.3,1.3c-0.8,0-1.6-0.4-1.9-1.2c-0.2-0.6-0.1-1.4,0.4-1.9c0.3-0.3,0.6-0.4,1-0.5
			c0.5,0,1,0.3,1.4,0.7C102-5.4,102.2-4.8,102.1-4.2z"/>
		<path fill="#FDBB2D" d="M95.1-7c-0.4,0.1-0.8,0.5-0.9,0.9c-0.2,0.8,0,1.7,0.5,2.3c0.4,0.4,1,0.6,1.5,0.5c0.7-0.4,1-1.1,0.9-1.9
			C96.8-6.1,95.9-7.1,95.1-7z"/>
		<path fill="#FDBB2D" d="M89.3-6.3c-0.5,0-0.6,0.6-0.6,1c0,1,0.8,1.8,1.6,2.3c0.4,0.1,0.8-0.2,1-0.5c0.2-0.4,0.3-1,0.1-1.4
			C91-5.9,90.1-6.3,89.3-6.3z"/>
		<path fill="#FDBB2D" d="M99.6-5.9c-0.3,0.4-0.4,0.8-0.4,1.4c0.2,0.4,0.5,0.8,0.9,1c0.4,0.1,0.9,0.1,1.2-0.2
			c0.4-0.4,0.5-1.1,0.3-1.6C101.2-6,100.2-6.5,99.6-5.9z"/>
		<path fill="#FDBB2D" d="M85.4-5.2C85-5.3,84.3-5.4,84-4.8c-0.1,1.4,0.6,2.5,1.6,3.3c0.2,0,0.6,0.1,0.8-0.2
			c0.5-0.6,0.9-1.4,0.5-2.2C86.7-4.6,86-4.9,85.4-5.2z"/>
		<path fill="#FDBB2D" d="M103.9-3.7c-0.2,0.3-0.2,0.9,0.2,1.1c0.6,0,1.4,0.2,1.9-0.3c0.2-0.4,0-0.8-0.3-1.1c-0.2-0.3-0.6-0.5-1-0.5
			C104.4-4.4,104.1-4,103.9-3.7z"/>
		<path fill="#FDBB2D" d="M81.9-2.9c-0.6-0.2-1.5-0.6-2.1,0c0,1.2,1.4,1.7,2.1,2.3c0.5,0.2,1.2,0.5,1.7,0.2c0.1-0.2,0-0.5-0.1-0.7
			C83.2-1.9,82.7-2.6,81.9-2.9z"/>
		<path fill="#FDBB2D" d="M107.7-2.4c-0.4,0.1-0.5,0.5-0.4,0.8c0.2,0.3,0.5,0.8,0.8,0.9c0.5,0.1,1.1,0.1,1.4-0.3
			c0.1-0.4-0.1-0.6-0.3-0.9C108.8-2.3,108.2-2.5,107.7-2.4z"/>
		<path fill="#FDBB2D" d="M111.9-2.4l-0.2,0l1.5,2.2c1.4-0.1,2.5,0.2,3.7,0.3l0.1-1.1C116.2-3.2,113.6-2,111.9-2.4z"/>
		<path fill="#FDBB2D" d="M85.2,4.9c0.8-0.4,1.7-0.8,2.4-1.3L87,2.3c0.7-0.4,1.4-0.6,2.1-0.8c0.3,0.4,0.4,0.9,0.6,1.3
			c1.6-0.4,2.9-0.8,4.5-1.2l0.5-0.4c0.6-0.6,0.8-1.4,0.6-2.3c-0.4-0.6-1-0.6-1.6-0.8c-1.6,0.2-3.3,0.3-4.9,0.7
			c-3.4,0.6-5.8,3.5-8.8,5.2c1,0.7,1.9,1.7,2.2,2.9c0.4-0.1,0.7-0.5,1-0.8l-1.2-1.4c0.7-0.4,1.2-1.1,1.8-1.4
			C84.4,3.9,84.8,4.6,85.2,4.9z"/>
		<path fill="#FDBB2D" d="M111.2,4c-1.9-0.9-2.3-3.1-4.2-4.2c-2.4-0.6-4.4-2-7.2-1.4c0.1,1.1-0.4,2.4,0.6,3.1
			c0.6,0.6,1.6,0.5,2.5,0.4c0-0.5-0.1-1.1,0.1-1.5l2.4,0.5l-0.3,1.5c0.8,0.6,1.7,1,2.6,1.4l1.1-0.5l0.9,0.9
			c-0.1,0.4-0.6,0.6-0.8,0.8c0.2,0.9,0.6,1.7,0.9,2.5c0.7-0.3,1.5-0.5,2.2-0.9C112.1,5.7,111.9,4.7,111.2,4z"/>
		<path fill="#FDBB2D" d="M78.6-0.2C77.9,0,76.8,0,76.7,1c1,1,2.9,0.9,4.1,0.5c0.3-0.2,0.7-0.4,0.5-0.9C80.6-0.1,79.6-0.3,78.6-0.2z
			"/>
		<path fill="#FDBB2D" d="M112.9,3.3l2.1,0.6c2.4,0.5,2.3,3.1,3.4,4.7c0.7,0.1,1.2-0.7,1.6-1.3c0.6-1.5,0.1-3.2-0.8-4.4
			c-1.1-2.9-4.3-1.6-6.5-2.3L112.9,3.3z"/>
		<path fill="#FDBB2D" d="M81.4,6c-0.5-0.8-1.3-1.4-2.2-1.8c-1.2-0.4-2.4-0.4-3.6,0.2c-1,0.5-1.5,1.6-1.6,2.6c0,2,1,3.9,2.9,4.8
			c0.7,0.3,1.4,0.6,2.1,0.6c0.9-0.1,1.9-0.5,2.5-1.3C82.4,9.6,82.2,7.4,81.4,6z"/>
		<path fill="#FDBB2D" d="M113.7,4.6c-0.5,0.2-1.1,0.6-1.1,1.2c0.4,1.4,1.8,2.3,2.1,3.7c0.6,1.3-0.4,2.4-1.1,3.4
			c0.4,1.1,1.1,2.2,2,3.1c0.3,0.2,0.6,0.1,0.8-0.2c0.6-0.9,0.8-2.4,0.3-3.4c0.5-0.3,1-0.1,1.4-0.3c0.4-0.1,0.5-0.7,0.4-1.1
			C116.9,9,116.4,6.1,113.7,4.6z"/>
		<path fill="#FDBB2D" d="M106.9,6.6c-0.4-0.9-1.3-1.3-2.2-1.4c-0.6,0-1.4,0-2,0.1l0.7,0.3c-1.1,0-2.2,0.2-2.9,1
			c-2-0.3-4-0.7-6.3-0.5c-0.7-0.3-1.4-0.7-2.1-1c-2-0.4-3.8,0.2-5.1,1.6c-0.7,1.2-2.7,1.7-2.1,3.4H85c1.8,0.5,2.9-1.3,4.4-1.5
			c2.9-0.5,6-1.4,8.5,1c1.2-0.4,2.4-0.9,3.6-1.5c1.6-0.4,3.1,0.1,4.5,0.4c0.3-0.3,0.5-0.5,0.7-0.8C107.1,7.4,107,6.8,106.9,6.6z"/>
		<path fill="#FDBB2D" d="M72.7,18.6c-0.2-2.1,1.8-3.4,2-5.3c-0.1-0.4-0.5-0.7-0.8-0.9c-2.1,1.4-4.2,3-6.4,4.1
			c0.4-0.6,0.8-1.3,1.3-1.9c1.5-2.1,4.2-2.3,5.8-4.2c-0.5-0.6-0.8-1.4-1-2.1l-17.1,8.9c0,0.4-0.3,1.1,0.2,1.2
			c0.9-0.3,1.8-0.8,2.8-0.5c1.3,0.9,2,2.2,2.1,3.7c-0.2,1.3,0.8,2.3,1.8,2.9c3-1.6,5.5-4.1,7.9-6.6c-0.3,0.6-0.5,1.2-0.8,1.8
			c-1.2,3.5-4.9,5.4-8,6.4c0.5,1.4-1,2.1-1,3.3c0.2,0.2,0.4,0.3,0.6,0.4c1,0.4,1.9-0.3,2.6-0.9l0.6,1c0.6,0.9,0.7,2,1,3
			c1.4-0.6,2.8-1.1,4-2.1C74.1,28.1,72.8,22.8,72.7,18.6z"/>
		<path fill="#FDBB2D" d="M91.4,9.6c-1.1-0.5-2.1,0.5-2.8,1.2c1.2-0.3,2.5-0.7,3.7-0.5C92.1,10,91.7,9.8,91.4,9.6z"/>
		<path fill="#FDBB2D" d="M106.6,10.8c-0.6-0.4-0.9-1.3-1.8-1.1l1,0.6c-0.2,0.1-0.6,0-0.9-0.1c-0.4-0.1-1.1-0.1-1.3,0.4
			C104.6,10.7,105.6,10.9,106.6,10.8z"/>
		<path fill="#FDBB2D" d="M106.7,20.3c0.7-0.1,1-0.8,1.4-1.3c0.2-0.5,0.2-1.2,0-1.7c-1.4-1.2,1-1.2,1.2-2.1c0.2-0.7-0.1-1.3-0.4-1.8
			c-0.8-0.6-2-0.6-3.1-0.5c-0.9,0.3-0.7,1.3-0.8,2.1c-1.3,0-2.3-0.9-3.4-1.5c-1,2.1,0.6,3.8,1.2,5.6c0.6,0.7,1.6,1.1,2.1,1.8
			c0.4,0.6,0,1.3-0.3,1.8c-0.3-1.3-1.5-2.6-2.8-3.1c-0.8,1.3-2.2,1.9-3.7,1.9c-0.7-1.3-2.4-1.2-3.6-1.9c1.2-1,2.9-0.3,4,0.3
			c1.4,0.4,2.5-0.8,3.3-1.6c-1-1.6-1.5-3.4-1.8-5.3c-0.2-0.8,0.4-1.8-0.3-2.4l-3-0.1c-0.2,0.1-0.5,0.1-0.4,0.4
			c0.4,0.9,1,1.8,0.9,2.8c-0.2-0.6-1-1-1.4-1.5c-2.3-0.3-2.7,2.9-4.8,3.4c-0.7-0.8-0.8-2-1.9-2.6c-0.9-0.6-1.9,0-2.8,0.2l0.3-1
			c-1,0.1-1.9,0.2-2.8,0.5c-0.4,0.1-0.8,0.6-0.6,1.1l2.5,3.6c1.4,0.1,2.6-0.5,3.6-1.3l0.1,0.1c-0.6,1.2-1.9,1.8-3.2,1.9v0.4
			c0.9,2,3.1,1,4.8,1.3c-0.3,0.2-0.7,0.4-1.1,0.6c-1.1,0.8-2.3,1.3-3.4,2c-0.4,0.5,0,1.2-0.1,1.7c-0.5-0.8-1.4-1.5-2.1-2
			c0,0.3-0.2,0.6-0.2,0.9c-0.4,1.4,0.3,2.6,1.3,3.5c2.8,1.6,4.3,4.5,7.2,5.7c2.9,0.6,6.1,0.1,8.9-0.5c2.6-0.7,3-3.7,4.2-5.6
			c1.4-2.2,0.5-5.3-0.3-7.4C106.6,18.7,106.2,19.8,106.7,20.3z M89.9,24.1c-0.1-1.5,1-2.7,1.4-4c0.6-0.8,1.4-1.5,2.1-2.2
			c0.3,0,0.4,0.2,0.7,0.2c-1.4,0.4-1.3,2.2-2.2,3.1c-0.7,0.9-1.5,1.7-1.8,2.7L89.9,24.1z M103.9,24.8c-0.9-0.7-2.1-1.4-3.4-0.8
			c-0.9,0.8-2.5,0.7-3.5,0.3c-0.9,0-1.6,0.1-2.7,0.1c1.4,2.4,4.7,1.4,6.8,1.1c0.2,0,0.4-0.1,0.5-0.2c0,0.8-0.4,1.5-0.3,2.4
			c-2.2-1-4.7-0.7-7.1-0.7l-0.8,0.4c-0.3-1.1,0.5-1.9,0.4-2.9c-0.5-0.6-1.1,0-1.7,0.1c-0.4,0.2-0.8,0.6-1.2,0.9
			c-0.2-0.4-0.2-0.9,0-1.3c0.8-1.1,2.1-0.2,3.2-0.6c1.3,0,2.5-1.6,3.7-0.5c1.1-0.4,2.5-0.3,3.4,0.3c0.5-0.3,1-0.7,1.6-0.5
			c0.4,0.2,0.7,0.6,0.8,1V24.8z"/>
		<path fill="#FDBB2D" d="M91.6,10.6H91l0,0.4c0,0.2,0.2,0.1,0.3,0.2C91.6,11.1,91.7,10.8,91.6,10.6z"/>
		<path fill="#FDBB2D" d="M90.1,10.7c0,0.3,0,0.7,0.2,0.9c0.4,0.1,0.9,0.1,1.2,0c0.4-0.1,0.3-0.7,0.3-1c-0.1,0.2,0,0.5-0.2,0.6
			c-0.2,0.3-0.6,0.4-1,0.3c-0.3-0.1-0.6-0.4-0.5-0.8H90.1z"/>
		<path fill="#FDBB2D" d="M103.7,11.8h0.4c0.2-0.2,0.2-0.5,0.3-0.8c-0.2-0.2-0.5-0.2-0.8-0.2l0,0.5h0.6
			C104.1,11.5,103.9,11.7,103.7,11.8z"/>
		<path fill="#FDBB2D" d="M102.5,10.9v0.6c0,0.2,0.2,0.2,0.4,0.2c-0.3-0.2-0.4-0.5-0.3-0.8H102.5z"/>
		<path fill="#FDBB2D" d="M93.8,11.5c-1.5,0.4-3.4,0.5-4.9,0.1c0.3,0.5,0.7,1.2,1.3,1.4c1,0.3,1.9-0.1,2.7-0.5l-1.7-0.2v0
			C92.1,12.1,93.1,12.3,93.8,11.5z"/>
		<path fill="#FDBB2D" d="M102,11.9l0.8,0.8c0.3,0.7,1,0.2,1.6,0.3c0.3-0.3,0.4-0.5,0.6-0.8C104,12,103,12,102,11.9L102,11.9z"/>
		<path fill="#FDBB2D" d="M80.1,40c-0.1-3.7-0.5-7.2-0.4-11c0.3-5.4,2.8-11.1,0.3-16.3c-1.4,0.3-2.7-0.2-3.8-0.8
			c-2.6,6.1,0.6,12.5-0.2,19c-0.9,5.7-0.6,12.5,0,18.5c0.1,3.1-0.1,5.9-0.3,8.8c2.5,1.2,5,2.6,7.4,3.6l-2-5.7
			C79.3,51.3,80,45.2,80.1,40z"/>
		<path fill="#FDBB2D" d="M111.6,18.2c5.9,7.6,5,20,3.2,28.4c-0.5,2.2-0.8,4.5-1.4,6.6c-0.8-1.1-1.7-2.3-2.5-3.4
			c-0.6,3.9-0.3,8,2.6,10.7c0.7-1.1,1.2-2.4,1.9-3.4c0.8,0.5,1.6,1.2,2.4,1.5c-0.5-3.7-1.1-7.3-1.4-11c0-0.5,0.1-0.9-0.1-1.3
			c-0.1-4.3,0.3-8.5,0.3-12.7c-0.7-7.2-0.1-15-5-20.5L111.6,18.2z"/>
		<path fill="#FDBB2D" d="M75.5,30.8c0.6-4.8-1-9.6-0.8-14.5c-1.2,5.4-1.6,11.6-1.3,17.2c0.6,5.1-1.3,10-1.6,15.2
			c-0.2,3.3,0.5,6.6,3.6,8.1c0.3-4.3,0.4-8.4-0.2-12.8C74.7,39.5,75.2,34.8,75.5,30.8z"/>
		<path fill="#FDBB2D" d="M113.2,52.1c0.8-3.7,1.5-7.4,2-11.2c1.3-8.6,0.2-17.2-4.8-23.7l-0.4,3.5l-1.6,12.1
			C107.2,39.5,108.3,47.1,113.2,52.1z"/>
		<path fill="#FDBB2D" d="M96,39c-1.9-0.1-3.9-0.8-4.7-2.7c-1-1.6-2.9-2.1-4.7-2.1c1.3,1.8,2.5,3.3,4,5C92.3,40.6,94.4,39.8,96,39z"
			/>
		<path fill="#FDBB2D" d="M80.6,40.1c0,0.3,0.1,0.7,0.1,1c0,0.3-0.3,0.6-0.2,0.9c1.9,0.6,3.8,1.4,5.6,1.9c-0.6-0.8-1.2-1.6-1.8-2.3
			L80.6,40.1z"/>
		<path fill="#FDBB2D" d="M97.7,43.8l1.8-2.9c-0.4-0.3-0.9-0.5-1.3-0.7l-1.4,2.6c-0.4,0.9,0.4,1.7,0.5,2.6L95,46.9l-6.8,0
			c0.2,0.3,0.3,0.6,0.5,1l6.5-0.1c1-0.6,2-1.1,2.8-1.8L97.7,43.8z"/>
		<path fill="#FDBB2D" d="M80.7,42.4c0,0.5-0.2,0.9-0.2,1.4l6.9,2.7l-1.2-2.1L80.7,42.4z"/>
		<path fill="#FDBB2D" d="M107.7,44.6l-0.3-2c-1.4-0.1-0.5,1.6-0.7,2.3L107.7,44.6z"/>
		<path fill="#FDBB2D" d="M80.5,44.6c0,0.8,0,1.5-0.2,2.1c2.8,1,5.6,2.4,8.4,3.3l-1.2-2.9L80.5,44.6z"/>
		<path fill="#FDBB2D" d="M109.2,47.3c-0.6-0.6-0.8-1.4-1.1-2.1l-1.2,0.6l-0.1,2.4l2.1-0.6L109.2,47.3z"/>
		<path fill="#FDBB2D" d="M95.9,48.7l-0.1,1.6l1.6,0.8l1.2,1.6c-0.5,0-0.9-0.4-1.4-0.5c0.3,0.8,0.9,1.4,1.2,2.2
			c0.8,0.4,1.6,1.2,2.6,0.5c0.3-0.6,0.8-1.1,0.9-1.8c-0.4-0.8-0.9-1.7-1.2-2.5l-0.3,1.3c-0.9-1.3-0.7-3.1-0.7-4.8
			c-0.4-0.1-0.6-0.4-1.1-0.4L95.9,48.7z"/>
		<path fill="#FDBB2D" d="M80.4,49.5c2.9,1.3,5.8,2.7,8.7,3.9l-0.6-2.7l-8.1-3.2V49.5z"/>
		<path fill="#FDBB2D" d="M107,48.9l0.2,2.3l3.1-1.6c-0.1-0.6-0.4-1.2-0.8-1.7C108.6,48.1,107.8,48.5,107,48.9z"/>
		<path fill="#FDBB2D" d="M88.7,48.6c0.2,0.4,0.6,0.7,0.8,1.1c1.8,0,3.6-0.1,5.3-0.3c0.1-0.3,0.2-0.8,0.2-1.1L88.7,48.6z"/>
		<path fill="#FDBB2D" d="M80.3,50.2l0.4,2c3.2,1.4,6.3,3,9.5,4.4c-0.2-0.8-0.4-1.5-0.6-2.3L80.3,50.2z"/>
		<path fill="#FDBB2D" d="M107.7,53.8l2.3-1.7l0.2-1.9l-2.7,1.7C107.5,52.6,107.6,53.2,107.7,53.8z"/>
		<path fill="#FDBB2D" d="M99.9,55.7L98.3,55v1.8c0.8,0.4,1.5,1,2.6,0.9c1.4-0.1,2.1-1.6,2.8-2.6l-1.4-1.3l-0.9,1.4L99.9,55.7z"/>
		<path fill="#FDBB2D" d="M102,58.2l-2.1,0.2l-1.4-1h-0.2l-0.3,2.2c1.3,0.5,2.7,1.3,4.3,0.8l2-1.4c0.5-0.9,1.2-1.9,1.6-2.8
			c-0.5-0.3-1-0.6-1.6-0.9C104,56.6,102.7,57.3,102,58.2z"/>
		<path fill="#FDBB2D" d="M99.7,41.4L98.2,44c-0.1,0.7,0.2,1.4,0.2,2.1c0.3,0.2,0.6,0.4,1,0.4c0.2-1-1-2.1,0.1-2.9l0.3-0.4
			c0.3-0.5,0.7-0.9,0.9-1.4C100.3,41.6,100,41.3,99.7,41.4z"/>
	</g>
</g>
<g id="AREA_1">
	<g>
		<path fill="#720018" d="M119.7,10.5c1.5-1.6,1.6-4,0.9-6c-1.4-2.5-2.3-5.2-4.2-7.4c-0.1-1.6-0.6-3.3-1.8-4.5
			c-2.1-2.7-3.2-6.2-6.6-7.8l-0.6-2.1c-0.9-2.1-3.3-1.8-5.2-2c-1.1-1.4-2.1-2.9-3.7-3.8c-2.1-1-4-2.6-6.5-2.6
			c-1.7,0.3-2.6,1.8-3.3,3.2c-0.6,0.4-1.3,0.6-1.9,0.4c-0.6-0.2-0.9-0.9-1.2-1.4l-2.2,1.3c-0.5-0.4-1-0.8-1.6-1
			c-0.7-0.2-1.3,0.1-1.8,0.4c-1.5,1-3.4,0.1-4.8-0.4c-0.9-0.4-1.8-1-2.7-1.3l2.9,5.2v0.2L74-19.9c-1.8-0.7-3.2,0.6-5,0.5
			c-1.4-0.9-1.2-2.7-1.6-4.2c-0.9,1.1-0.8,2.8-0.7,4.2c-1.5,0.1-3.1,0-4.4,0.5c-1,0.5-1.2,1.6-1.3,2.5c0.9-1.8,2.8-2,4.5-1.8
			c-0.1,1.1-0.7,1.9-0.9,2.9c-2.7,0.8-4.9,2.7-7.1,4.5l-1.2-0.8c-1.6-0.8-3.2,0.4-4.3,1.1l1-0.4c1.2-0.4,2.3,0.2,3.2,0.7
			c-1.4,0.7-2.3,2-2.7,3.4c1.1-0.7,2-1.6,3.2-2c1-0.4,2.1,0,2.9,0.6c-1.8,0.7-3.6,1.4-4.9,3.2C52.4-2,50.2,1.8,52.1,5.5
			c-0.3,1.2-0.4,2.5-0.3,3.9l-0.1,0.2c-1.7,0.4-3.2,1.7-4.2,3.2c1.1-0.5,2.3-1.2,3.4-1.5l-1.2,3.6c0.9-1.5,2.5-3.3,4.5-3
			c-0.8,1-1.3,2.2-1.4,3.5c-0.1,1.5-1.6,2.3-2.8,2.8l0.6,3.3c0.1-0.5,0.4-1,0.8-1.4c0.7-0.9,2-0.8,3-0.7c-0.6,0.5-1.6,0.9-2,1.8
			c-0.5,2.2-2.1,4-4,5.2c0.4,0.1,0.8,0.2,1.2,0.4c-1,1.8-0.6,4.3,0.3,6l0.6-2.3c0.8,0,1.7,0.1,2.5,0.3c0,1.3-0.2,2.8,0.1,3.9
			c0.7,2.4-0.4,4.3-1.3,6.2c0.6-0.5,1.2-1.2,1.8-1.4l0,1.2c-0.1,1.5,1.1,2.4,2.3,2.9l1.3-2.7c1.4-2.6,4.1-5.1,7.3-4.6
			c2.4,2.9,7.6,4.3,6.6,9c0.9,1.8-0.2,4.2,0.3,6.2c0.2,2.4,1.5,5,3.9,6.1v1.2l8.7,4.3c-1-2.6-2.1-5.2-2.8-7.9l1.4-0.7l8,3.2
			l-1.1-4.7v-0.5c2.1,1.3,4.1,3,6.1,4.4l0.3,0.1C95.5,54,91.6,54,92.1,51c0.1-0.5,0.7-0.8,1.1-1c1.6-0.2,2.8,0.9,3.5,2
			c1.6,2.1,0.9,5.4,0.6,7.8c1.2,0.8,2.5,1.7,3.9,1.5c2.7-0.4,4.5-3.3,5.4-5.7l-2.6-1.4c-3-2-3.2-5.5-4.5-8.3
			c-0.1-0.7-0.2-1.5,0.1-2.1l0.3-0.4l0.6-0.8c0.6-1.4,1.5,0.2,2.3,0.3c3,1.7,2.3,5.3,2.4,8.5l1.1-2.1c0.5,1.7,0.4,3.6,0.7,5.4
			c1.1-0.5,2.1-1.3,3.2-1.8c-0.2,3.4,1.2,6.1,3.4,8.4c0.7-1.2,1.3-2.5,2-3.6c1,0.5,1.9,1.3,2.8,1.8c-0.6-4-1.3-8-1.5-11.7
			c-0.4-7.9,0.8-16.1-0.6-23.8c1.8-1.9,2.6-4.3,3.8-6.5c0.9-2.3-0.3-4.3-1.2-6.2C119.2,11.1,119.4,10.7,119.7,10.5z M119.2,2.9
			c0.9,1.2,1.4,2.9,0.8,4.4c-0.3,0.6-0.8,1.4-1.6,1.3c-1.1-1.6-1-4.2-3.4-4.7l-2.1-0.6l-0.3-2.7C114.9,1.3,118.1,0.1,119.2,2.9z
			 M117.1-1L117,0.1c-1.3,0-2.4-0.4-3.7-0.3l-1.5-2.2l0.2,0C113.6-2,116.2-3.2,117.1-1z M109.8,7.6c-0.3-0.8-0.7-1.6-0.9-2.5
			c0.3-0.3,0.7-0.5,0.8-0.8l-0.9-0.9l-1.1,0.5c-0.9-0.4-1.8-0.8-2.6-1.4l0.3-1.5l-2.4-0.5c-0.2,0.4-0.1,1-0.1,1.5
			c-0.8,0.1-1.8,0.2-2.5-0.4c-1-0.7-0.5-2-0.6-3.1c2.8-0.6,4.8,0.9,7.2,1.4c1.9,1,2.3,3.3,4.2,4.2c0.7,0.7,0.9,1.7,0.8,2.7
			C111.4,7.1,110.6,7.3,109.8,7.6z M110.4,17.3c5,6.4,6.1,15.1,4.8,23.7c-0.5,3.8-1.3,7.5-2,11.2c-4.9-5.1-6-12.6-4.8-19.2l1.6-12.1
			L110.4,17.3z M102.9,11.7c-0.2,0-0.4,0-0.4-0.2v-0.6h0.1C102.5,11.2,102.7,11.5,102.9,11.7z M104.9,12.2c-0.2,0.3-0.3,0.5-0.6,0.8
			c-0.6-0.1-1.2,0.5-1.6-0.3l-0.8-0.8l0.1-0.1C103,12,104,12,104.9,12.2z M103.6,11.3l0-0.5c0.3,0,0.6,0,0.8,0.2
			c-0.1,0.3,0,0.6-0.3,0.8h-0.4c0.2-0.1,0.4-0.3,0.5-0.5H103.6z M103.7,10.6c0.2-0.6,0.8-0.5,1.3-0.4c0.3,0.1,0.7,0.2,0.9,0.1
			l-1-0.6c0.9-0.2,1.2,0.7,1.8,1.1C105.6,10.9,104.6,10.7,103.7,10.6z M106.1,8.4c-1.4-0.3-3-0.8-4.5-0.4c-1.2,0.6-2.3,1.1-3.6,1.5
			c-2.5-2.3-5.7-1.4-8.5-1c-1.6,0.2-2.6,2-4.4,1.5h-0.2c-0.6-1.8,1.5-2.2,2.1-3.4c1.3-1.4,3.2-2,5.1-1.6c0.7,0.3,1.4,0.7,2.1,1
			c2.2-0.1,4.2,0.2,6.3,0.5c0.8-0.8,1.9-1,2.9-1l-0.7-0.3c0.5-0.1,1.4,0,2-0.1c0.9,0.1,1.8,0.5,2.2,1.4c0.1,0.3,0.2,0.8-0.1,1.1
			C106.6,7.9,106.3,8.1,106.1,8.4z M92.9,12.5c-0.8,0.5-1.7,0.9-2.7,0.5c-0.6-0.2-1-0.9-1.3-1.4c1.5,0.4,3.4,0.2,4.9-0.1
			c-0.6,0.7-1.6,0.6-2.6,0.8v0L92.9,12.5z M90.7,11.5c0.3,0.1,0.7,0,1-0.3c0.2-0.2,0-0.5,0.2-0.6c0.1,0.3,0.1,0.9-0.3,1
			c-0.3,0.1-0.8,0.1-1.2,0c-0.2-0.2-0.2-0.6-0.2-0.9h0.1C90.1,11.1,90.3,11.4,90.7,11.5z M91,10.9l0-0.4h0.5c0.2,0.2,0,0.6-0.3,0.6
			C91.2,11.1,91,11.1,91,10.9z M88.6,10.8c0.7-0.7,1.7-1.8,2.8-1.2c0.3,0.2,0.7,0.4,0.9,0.7C91,10.1,89.8,10.5,88.6,10.8z M83.3,6.2
			c-0.2,0.3-0.6,0.6-1,0.8c-0.3-1.2-1.2-2.2-2.2-2.9c2.9-1.8,5.4-4.6,8.8-5.2c1.6-0.4,3.3-0.4,4.9-0.7c0.6,0.2,1.2,0.2,1.6,0.8
			c0.2,0.8,0,1.7-0.6,2.3l-0.5,0.4c-1.5,0.4-2.9,0.8-4.5,1.2c-0.2-0.4-0.3-0.9-0.6-1.3c-0.7,0.3-1.4,0.5-2.1,0.8l0.6,1.2
			c-0.7,0.5-1.6,0.9-2.4,1.3c-0.4-0.3-0.9-1-1.3-1.5c-0.6,0.4-1.1,1-1.8,1.4L83.3,6.2z M80.3,46.7c0.1-0.7,0.2-1.4,0.2-2.1l7.1,2.5
			l1.2,2.9C85.9,49.1,83.1,47.8,80.3,46.7z M89.1,53.4c-2.9-1.2-5.8-2.6-8.7-3.9v-1.9l8.1,3.2L89.1,53.4z M87.4,46.6l-6.9-2.7
			c0-0.5,0.2-0.9,0.2-1.4l5.5,2L87.4,46.6z M86.7,34.1c1.8,0,3.6,0.5,4.7,2.1c0.8,2,2.7,2.6,4.7,2.7c-1.6,0.8-3.7,1.6-5.3,0.1
			C89.2,37.5,88,35.9,86.7,34.1z M80.6,42c-0.2-0.3,0.1-0.6,0.2-0.9c0-0.2-0.2-0.7-0.1-1l3.7,1.4c0.6,0.7,1.2,1.5,1.8,2.3
			C84.4,43.4,82.5,42.6,80.6,42z M79.1,12.4c-0.7,0-1.5-0.3-2.1-0.6C75.1,10.9,74,9,74,7c0.1-1.1,0.6-2.1,1.6-2.6
			c1.2-0.6,2.4-0.5,3.6-0.2C80,4.5,80.9,5.1,81.4,6c0.8,1.4,1,3.6,0.2,5.1C81,11.9,80,12.3,79.1,12.4z M110.4,2.6
			c-0.1-0.8-0.2-1.7-1.1-2.1c-2.7-1.3-5.4-2.9-8.6-2.7l-1.3-0.1c-0.5,0.8-0.8,1.8-0.5,2.8c0.2,1.1,1.6,1.8,2.3,2.4l-2.7,1.5
			c-1.2-0.5-2.3-1.4-3.5-2C95,1.9,95.7,1.5,96,1.1c0.4-0.5,0.5-1.2,0.3-1.8c-0.2-0.7-0.8-1.2-1.1-1.8c-5.3,0.3-10.7,1.8-14.5,5.9
			c-1.3,1-2.7-0.4-4.2,0.2l-1.4,0.5l-2-0.2c-0.3-1.1,0-2.1,0.7-2.9c0.5-0.5,1.1-0.7,1.7-1c-0.5-0.5-1.1-1-0.9-1.8
			c1-1.2,2.5-1.4,3.9-1.2c0.2-0.4,0.4-0.8,0.4-1.3c-0.3-0.4-0.7-0.9-0.5-1.5c0.4-0.6,0.9-0.9,1.6-1c0.9-0.7,2.4,1.7,2.4-0.4
			c0.8-0.6,2.3,0.2,2.8-1.1c-0.4-0.4-0.8-0.9-0.5-1.5c0.2-0.4,0.6-0.9,1.1-1c1.4,0.4,2.2,2,3.5,2.5l1-0.2c0.4-0.7,0.8-1.8,1.7-1.9
			c0.6,0.1,1.2,0.4,1.5,1c0.3,0.4,0.1,1,0.4,1.2h1.4c0.5-0.6,1.2-1.4,2-1.6C98.2-10,99-8.8,99.3-8c0.1,0.2,0,0.4,0.3,0.5l2.2,0
			c0.6-0.4,1.2-1,2-0.8c0.8,1,0.9,2.3,1.5,3.4c-0.5-0.2-1.1,0-1.4,0.4c-0.4,0.5-0.8,1.2-0.5,1.8c0.6,0.7,1.6,0.6,2.4,0.3
			c0.3-0.1,0.6-0.3,0.7-0.6c0.2-0.8-0.5-1.5-1-1.9c0.8-0.5,1.8-1.3,2.7-0.6c0.8,0.7,0.9,1.9,0.7,2.9c-0.4-0.2-1-0.3-1.5-0.2
			c-0.4,0.2-0.6,0.5-0.6,0.9c0,0.6,0.4,1.1,0.8,1.4c0.6,0.3,1.5,0.4,2.1-0.1c0.3-0.2,0.3-0.7,0.3-1c-0.2-0.4-0.5-0.8-0.8-1
			c2.3,0.8,3.1,3.5,3.1,5.8C111.6,3.3,110.7,3.4,110.4,2.6z M105.7-4.1c0.3,0.3,0.4,0.7,0.3,1.1c-0.4,0.5-1.2,0.4-1.9,0.3
			c-0.4-0.2-0.4-0.8-0.2-1.1c0.2-0.3,0.5-0.7,0.8-0.8C105.2-4.6,105.5-4.4,105.7-4.1z M109.2-1.8c0.2,0.3,0.4,0.5,0.3,0.9
			c-0.3,0.4-0.9,0.3-1.4,0.3c-0.4-0.1-0.7-0.5-0.8-0.9c-0.1-0.4,0-0.8,0.4-0.8C108.2-2.5,108.8-2.3,109.2-1.8z M109.7-7.3
			c0.2-1.1,0.1-2.4,0.1-3.5c0.6-0.2,1.8-0.5,2,0.5c0.4,1.4,0,3.1,0.9,4.2c0.8,1,2.1,1.8,1.8,3.1c-1,0.7-2.4,0.2-3.3-0.4
			c-0.9-1-2-2.2-3.3-2.7C108.6-6.4,109.5-6.5,109.7-7.3z M103-15c1.5,0.1,3.9-0.1,4.7,1.5c0.2,0.8-0.2,1.7,0.5,2.3l0.9,0.5
			c0.4,1.4,0.1,3-1,3.8c-0.6-0.2-1.1-0.9-1.7-1.2c-1.2-0.2-2.2-1-3.2-1.7c-0.2-1.7,1-3.7-0.3-5.1L103-15z M81.5-18.3
			c1-0.6,2.1-2.1,3.5-1.4c1.2,1,1.7,2.5,2,3.9c0.3,0,0.5,0.2,0.8,0.1c-0.2-0.7-0.8-1.3-1.1-2c-0.2-0.2-0.1-0.5-0.1-0.8
			c0.7-0.6,1.6,0,2.5-0.1c0.1-0.4-0.8-0.6-0.5-1.1c0.9-0.4,2-0.2,2.8,0.3c0.9,1,1.6,2.1,2.7,2.9c-0.2-1-0.6-2-0.8-3
			c1.2-0.3,2.9-0.7,3.9,0.3c0.4,0.4,0.9,1.3,1.8,0.9c0.5-0.2,0.9-0.6,1.5-0.4c2,1.2,1.1,4.1,1.8,6.2c0.1,0.8-0.1,1.6-0.8,2
			c-0.9,0.5-2.2,0.2-3.1,0c0.4-0.8,1-1.6,1-2.7c-0.4-1.3-1.5-2.3-2.3-3.5h-0.8c0.2,0.6,0.6,1.1,0.9,1.6c0.4,1,1,2.1,0.6,3.3
			c-0.4,0.6-1.4,0.3-2,0.3c-0.9-0.3-2.1-0.6-2.5-1.6c-0.2-1.2-0.3-2.4-1.3-3.3l-0.8-0.3c0.4,1.2,1.3,2.4,1.1,3.9
			c-0.2,0.8-1,1.6-1.8,1.8c-1.3-0.2-1.9-1.6-3-2.3c-0.2-0.2-0.5-0.5-0.8-0.6c-0.2,0.7-0.3,1.5-0.9,1.8c-0.8-0.2-1.2-1-1.6-1.6
			c-0.8-1.5-1.7-3-2.8-4.3L81.5-18.3z M79.7-18.2c1.6,0.4,2,2.2,2.8,3.3c0.8,1.2,2.5,1.9,2.4,3.5c-0.6,0.7-1.6,0.5-2.5,0.5
			c-1.6-2.4-3.6-4.7-5.6-6.8C77.6-18.1,78.6-18.4,79.7-18.2z M60.9,0.4l0.5-1.3l-1.2-1.1c0.8-0.7,1.1-1.8,2.1-2.2
			c0.6,0.1,1,0.8,1.6,0.8c0.2-0.3,0.3-0.8,0.1-1.2c-0.8-1-2-1.6-3.1-2.2c-0.1-0.1-0.2-0.4-0.1-0.5c0.7-0.7,1.7-1,2.6-0.9l-0.4-0.2
			c1.3-2.2,3.6-3.7,4.3-6.2c1.9-1.2,4,0.3,6,0.1c1-0.3,1.4-1.4,1.8-2.2c2.5,2.7,6.7,4.9,7.2,8.6c-0.8,0.2-1.9,0.1-2.4-0.8l-0.2-0.2
			c0.1,0.5,0.6,1.1,0.4,1.8c-1.2,0.7-2.9,0.5-4.3,0.6c-0.9,0-1.6-0.5-2.3-0.8c0.8,0.8,2.1,1.1,2.9,2.1c0.2,1.2-0.8,1.8-1.6,2.6
			c-2.8,0-4.7-2-6.8-3.7c-1.2-0.7-2.4-1.3-3.7-1.5c2.2,2,4.9,2.5,6.9,4.9c0.8,0.4,1.6,0.6,2.4,0.8v0.1c-0.9,0.2-1.7,0.8-2.2,1.6
			c-0.7,1.2-0.1,2.6,0.4,3.7c-2.8,0.2-5.9,0-7.6,2.5c2.2-0.4,4-0.7,6.4-0.8c1.4,0,2.5-0.7,3.8-0.1c0.2,0.4-0.4,0.7-0.4,1.1L73.5,7
			l-13.2,6.8l-0.1-0.2c0.3-1.8,1-3.5,0.8-5.5c-0.9-0.8-2.2,0.4-2.9-0.6c-1.5-1.8,2.4-3.1,0.2-4.8c-0.3-0.2-0.7-0.6-0.9-0.8
			C58.7,1.7,60.1,1.7,60.9,0.4z M70.1,30.8c-1.2,1-2.6,1.5-4,2.1c-0.3-1-0.4-2.1-1-3l-0.6-1c-0.6,0.6-1.5,1.4-2.6,0.9
			c-0.2-0.1-0.4-0.2-0.6-0.4c-0.1-1.3,1.4-2,1-3.3c3.2-0.9,6.8-2.9,8-6.4c0.3-0.6,0.5-1.2,0.8-1.8c-2.4,2.6-4.8,5-7.9,6.6
			c-1-0.6-1.9-1.6-1.8-2.9c-0.1-1.5-0.8-2.8-2.1-3.7c-0.9-0.3-1.9,0.3-2.8,0.5c-0.5-0.2-0.2-0.8-0.2-1.2l17.1-8.9
			c0.3,0.7,0.5,1.4,1,2.1c-1.6,1.9-4.3,2.1-5.8,4.2c-0.5,0.6-0.9,1.2-1.3,1.9c2.2-1.2,4.3-2.7,6.4-4.1c0.3,0.2,0.7,0.5,0.8,0.9
			c-0.2,2-2.2,3.2-2,5.3C72.8,22.8,74.1,28.1,70.1,30.8z M75.3,56.7c-3.1-1.5-3.7-4.8-3.6-8.1c0.3-5.2,2.2-10.1,1.6-15.2
			c-0.3-5.5,0.1-11.8,1.3-17.2c-0.2,4.9,1.4,9.7,0.8,14.5c-0.4,4-0.8,8.7-0.4,13.1C75.7,48.3,75.6,52.4,75.3,56.7z M83.1,61.8
			c-2.4-1.1-4.9-2.4-7.4-3.6c0.2-2.9,0.3-5.7,0.3-8.8c-0.6-6-0.9-12.7,0-18.5c0.8-6.5-2.4-12.9,0.2-19c1.2,0.5,2.5,1,3.8,0.8
			c2.5,5.2,0,10.9-0.3,16.3c-0.1,3.7,0.4,7.3,0.4,11c-0.2,5.2-0.8,11.3,1,16.2L83.1,61.8z M90.1,56.6c-3.2-1.4-6.3-3-9.5-4.4l-0.4-2
			l9.2,4.1C89.7,55.1,89.9,55.8,90.1,56.6z M94.8,49.3c-1.7,0.2-3.5,0.3-5.3,0.3c-0.2-0.4-0.6-0.7-0.8-1.1l6.2-0.3
			C95,48.5,94.9,49,94.8,49.3z M88.7,47.9c-0.2-0.3-0.3-0.6-0.5-1l6.8,0l2.3-1.6c-0.1-0.8-0.9-1.7-0.5-2.6l1.4-2.6
			c0.4,0.2,0.9,0.4,1.3,0.7l-1.8,2.9L98,46c-0.8,0.7-1.9,1.2-2.8,1.8L88.7,47.9z M104.3,55.4c0.5,0.2,1,0.6,1.6,0.9
			c-0.3,0.9-1,1.8-1.6,2.8l-2,1.4c-1.6,0.5-3-0.3-4.3-0.8l0.3-2.2h0.2l1.4,1l2.1-0.2C102.7,57.3,104,56.6,104.3,55.4z M103.7,55.1
			c-0.8,1-1.4,2.5-2.8,2.6c-1,0.1-1.7-0.5-2.6-0.9V55l1.5,0.7l1.5-0.5l0.9-1.4L103.7,55.1z M99.7,47.1c0,1.7-0.2,3.5,0.7,4.8
			l0.3-1.3c0.3,0.8,0.7,1.7,1.2,2.5c-0.1,0.7-0.6,1.2-0.9,1.8c-1,0.6-1.7-0.1-2.6-0.5c-0.3-0.8-0.9-1.4-1.2-2.2
			c0.5,0.1,0.9,0.5,1.4,0.5l-1.2-1.6l-1.6-0.8l0.1-1.6l2.7-2C99,46.7,99.3,47,99.7,47.1z M99.8,43.1l-0.3,0.4
			c-1.2,0.8,0,1.9-0.1,2.9c-0.4,0-0.6-0.3-1-0.4c-0.1-0.7-0.3-1.4-0.2-2.1l1.6-2.6c0.3,0,0.6,0.2,0.9,0.4
			C100.5,42.2,100,42.7,99.8,43.1z M105.8,26.1c-1.2,2-1.5,4.9-4.2,5.6c-2.8,0.6-6,1.1-8.9,0.5c-2.9-1.2-4.4-4.1-7.2-5.7
			c-1-0.9-1.6-2.1-1.3-3.5c0-0.3,0.2-0.6,0.2-0.9c0.8,0.6,1.6,1.3,2.1,2c0-0.5-0.3-1.2,0.1-1.7c1.1-0.7,2.3-1.2,3.4-2
			c0.4-0.2,0.7-0.3,1.1-0.6c-1.7-0.4-3.9,0.7-4.8-1.3v-0.4c1.3-0.1,2.6-0.8,3.2-1.9L89.4,16c-1,0.8-2.2,1.4-3.6,1.3l-2.5-3.6
			c-0.2-0.4,0.2-0.9,0.6-1.1c0.9-0.3,1.8-0.4,2.8-0.5l-0.3,1c0.9-0.2,1.8-0.8,2.8-0.2c1,0.6,1.2,1.8,1.9,2.6
			c2.1-0.5,2.5-3.7,4.8-3.4c0.5,0.5,1.2,0.9,1.4,1.5c0.1-1-0.5-1.9-0.9-2.8c0-0.3,0.3-0.2,0.4-0.4l3,0.1c0.8,0.6,0.1,1.6,0.3,2.4
			c0.3,1.9,0.8,3.7,1.8,5.3c-0.8,0.8-1.9,2-3.3,1.6c-1.1-0.6-2.9-1.2-4-0.3c1.2,0.7,2.9,0.5,3.6,1.9c1.5,0,2.9-0.5,3.7-1.9
			c1.2,0.5,2.5,1.8,2.8,3.1c0.2-0.5,0.7-1.2,0.3-1.8c-0.6-0.7-1.5-1.1-2.1-1.8c-0.6-1.8-2.3-3.5-1.2-5.6c1.1,0.6,2,1.5,3.4,1.5
			c0.1-0.8-0.1-1.8,0.8-2.1c1-0.1,2.2-0.2,3.1,0.5c0.3,0.5,0.6,1.1,0.4,1.8c-0.2,0.9-2.6,0.8-1.2,2.1c0.2,0.5,0.3,1.2,0,1.7
			c-0.4,0.5-0.7,1.2-1.4,1.3c-0.5-0.5-0.2-1.6-1.2-1.6C106.3,20.8,107.2,23.9,105.8,26.1z M107.5,42.6l0.3,2l-1,0.3
			C106.9,44.1,106.1,42.5,107.5,42.6z M106.8,48.2l0.1-2.4l1.2-0.6c0.3,0.7,0.5,1.5,1.1,2.1l-0.3,0.2L106.8,48.2z M110,52.1
			l-2.3,1.7c-0.1-0.5-0.2-1.2-0.2-1.9l2.7-1.7L110,52.1z M107.2,51.1l-0.2-2.3c0.8-0.4,1.6-0.8,2.5-1.1c0.4,0.5,0.7,1.1,0.8,1.7
			L107.2,51.1z M116.7,33.5c0,4.3-0.4,8.5-0.3,12.7c0.2,0.4,0.1,0.8,0.1,1.3c0.3,3.7,0.9,7.4,1.4,11c-0.8-0.3-1.6-1-2.4-1.5
			c-0.8,1-1.2,2.3-1.9,3.4c-2.9-2.7-3.3-6.8-2.6-10.7c0.8,1.1,1.7,2.3,2.5,3.4c0.6-2.1,0.9-4.5,1.4-6.6c1.8-8.5,2.7-20.8-3.2-28.4
			l0.1-5.1C116.6,18.5,115.9,26.3,116.7,33.5z M118.2,12.2c-0.5,0.2-1,0-1.4,0.3c0.5,1,0.3,2.5-0.3,3.4c-0.2,0.3-0.6,0.4-0.8,0.2
			c-0.9-0.9-1.6-2-2-3.1c0.7-1,1.7-2.1,1.1-3.4c-0.3-1.4-1.7-2.4-2.1-3.7c0-0.6,0.6-1.1,1.1-1.2c2.7,1.5,3.2,4.4,4.9,6.5
			C118.7,11.6,118.6,12.1,118.2,12.2z"/>
		<path fill="#720018" d="M76.7-9.1c-1.9-1.9-4.1-3.3-6.3-4.3C71.4-10.6,74.5-10.5,76.7-9.1z"/>
		<path fill="#720018" d="M79.7-9.2c-0.6-1.6-2.1-3-3.6-3.9C77-11.6,78.7-10.5,79.7-9.2z"/>
		<path fill="#720018" d="M95-7.4c-0.3,0.2-0.6,0.2-0.9,0.5c-0.3,0.5-0.5,1.1-0.4,1.8c0.1,0.9,0.8,1.6,1.6,2
			c0.6,0.2,1.3,0.1,1.7-0.4c0.5-0.6,0.7-1.4,0.5-2.3C96.8-6.5,96.1-7.4,95-7.4z M96.2-3.4c-0.5,0.1-1.1-0.1-1.5-0.5
			c-0.6-0.6-0.7-1.4-0.5-2.3c0.1-0.4,0.5-0.8,0.9-0.9c0.9,0,1.7,1,2.1,1.7C97.2-4.5,96.9-3.8,96.2-3.4z"/>
		<path fill="#720018" d="M90-6.6c-0.5,0-1.1-0.2-1.5,0.2c-0.3,0.4-0.4,1-0.3,1.6c0.2,0.9,1,1.8,1.9,2.1c0.5,0.1,1-0.1,1.3-0.5
			c0.4-0.6,0.6-1.5,0.2-2.2C91.2-5.9,90.7-6.4,90-6.6z M91.3-3.6c-0.2,0.4-0.6,0.7-1,0.5c-0.8-0.5-1.6-1.2-1.6-2.3
			c0-0.4,0.2-1,0.6-1c0.8,0,1.7,0.4,2.1,1.3C91.6-4.6,91.5-4,91.3-3.6z"/>
		<path fill="#720018" d="M100.3-6.5c-0.4,0.1-0.8,0.2-1,0.5c-0.4,0.5-0.6,1.2-0.4,1.9C99.2-3.4,100-3,100.8-3
			c0.6-0.2,1.1-0.7,1.3-1.3c0.1-0.6-0.1-1.1-0.4-1.6C101.3-6.3,100.8-6.5,100.3-6.5z M101.3-3.7c-0.3,0.3-0.8,0.3-1.2,0.2
			c-0.4-0.2-0.7-0.6-0.9-1c-0.1-0.5,0-1,0.4-1.4c0.6-0.7,1.6-0.1,2,0.6C101.8-4.7,101.7-4.1,101.3-3.7z"/>
		<path fill="#720018" d="M84.8-5.6c-0.4,0-1,0.2-1.1,0.6c-0.2,1.6,0.7,3,1.9,3.9c0.5,0.2,1,0,1.3-0.4c0.5-0.7,0.8-1.8,0.3-2.6
			C86.7-5,85.8-5.5,84.8-5.6z M86.4-1.7c-0.2,0.3-0.6,0.1-0.8,0.2c-1-0.8-1.8-1.9-1.6-3.3c0.2-0.5,0.9-0.5,1.3-0.3
			c0.6,0.3,1.3,0.6,1.6,1.3C87.3-3.1,86.9-2.3,86.4-1.7z"/>
		<path fill="#720018" d="M79.9-3.4c-0.4,0.2-0.6,0.7-0.4,1.2c0.4,0.7,0.9,1,1.5,1.5c0.9,0.5,2,1.3,3.1,0.5c0.2-0.3,0.1-0.8,0-1.1
			C83.3-2.8,81.6-3.9,79.9-3.4z M83.6-0.5c-0.5,0.4-1.2,0.1-1.7-0.2c-0.8-0.6-2.1-1.1-2.1-2.3c0.6-0.6,1.4-0.2,2.1,0
			c0.8,0.3,1.3,1,1.6,1.7C83.6-1,83.8-0.7,83.6-0.5z"/>
		<path fill="#720018" d="M80-0.5c-1.4-0.3-2.9-0.1-3.7,1.1c-0.1,0.4,0.2,0.9,0.6,1.1c1.1,0.5,2.8,0.6,4,0.2c0.4-0.2,1-0.5,0.9-1.1
			C81.6,0,80.7-0.3,80-0.5z M80.8,1.5c-1.3,0.4-3.1,0.5-4.1-0.5c0.1-1,1.2-1,1.9-1.2c1,0,2,0.2,2.8,0.8C81.5,1.1,81.1,1.3,80.8,1.5z
			"/>
		<path fill="#720018" d="M94.2,18.1c-0.3,0-0.4-0.3-0.7-0.2c-0.7,0.7-1.5,1.4-2.1,2.2c-0.4,1.4-1.5,2.5-1.4,4l0.3-0.1
			c0.3-1,1.1-1.8,1.8-2.7C92.8,20.2,92.7,18.5,94.2,18.1z"/>
		<path fill="#720018" d="M103,22.9c-0.6-0.2-1.2,0.3-1.6,0.5c-1-0.6-2.4-0.7-3.4-0.3c-1.3-1-2.4,0.5-3.7,0.5
			c-1,0.4-2.4-0.5-3.2,0.6c-0.2,0.4-0.2,0.9,0,1.3c0.4-0.2,0.7-0.7,1.2-0.9c0.5-0.1,1.2-0.7,1.7-0.1c0.2,1-0.7,1.7-0.4,2.9l0.8-0.4
			c2.4,0,4.9-0.4,7.1,0.7c-0.2-0.9,0.3-1.6,0.3-2.4c-0.2,0.1-0.4,0.1-0.5,0.2c-2.2,0.3-5.5,1.3-6.8-1.1c1,0,1.8-0.2,2.7-0.1
			c1,0.4,2.7,0.5,3.5-0.3c1.2-0.5,2.4,0.2,3.4,0.8v-0.8C103.7,23.5,103.5,23.2,103,22.9z"/>
	</g>
</g>
</svg>
