<?xml version="1.0" encoding="utf-8"?>
<!-- Generator: Adobe Illustrator 19.1.0, SVG Export Plug-In . SVG Version: 6.00 Build 0)  -->
<!DOCTYPE svg PUBLIC "-//W3C//DTD SVG 1.1//EN" "http://www.w3.org/Graphics/SVG/1.1/DTD/svg11.dtd">
<svg version="1.1" xmlns="http://www.w3.org/2000/svg" xmlns:xlink="http://www.w3.org/1999/xlink" x="0px" y="0px"
	 viewBox="33 -33 100 100" enable-background="new 33 -33 100 100" xml:space="preserve">
<g id="AREA_3">
	<path fill="none" stroke="#004D86" stroke-width="2.1945" stroke-linejoin="round" stroke-miterlimit="10" d="M123.7,34.1
		c0.5-3.4-1.3-6-2.9-8.7c-0.2-3.1-2-5.6-2.8-8.4c1.4-1.4,1.3-3.6,1.6-5.4c1-2.5,0.1-5.3-0.2-7.8c-0.3-1.4-0.2-2.7-0.7-4.1
		c-1.9-3.3-3-6.8-4.5-10.2l0.2-0.3c0.6-0.8,1.5-1.8,2.6-1.6c0.5,0.1,0.9,0.4,1.2,0.8c1.7,3.6,0.9,8.2,4.4,11.1h0.2
		c0.6-1.1,1.1-2.4,1.5-3.6c1.4-3.2,0.3-6.2,0.5-9.9c0.1-3.4-3.8-4.9-6.2-6.2c-0.2-0.2-0.4-0.3-0.6-0.4c-0.9-1-1.4-2.2-2.1-3.3
		c-0.6-1.1-1.8-1.7-2.9-1.9c-4.4-0.3-8.4,1.7-11.5,5.4c-3.7-0.5-7.6-0.3-11,0.5c-3.2-1.9-7.1-2.4-11-2c-3.5,0.2-6.4,1.8-9,4.2
		c-1-0.9-2.1-1.8-3.1-2.8c-1.7-1.6-3.3-4-5.8-3.4c-4.6,2.5-9.9,3.5-13.7,7.6c-1.5,3.1-2.9,6.3-5,9.2c-3,3.8-1.8,9.7,0.2,13.5
		c2.7-1,4.9-3.8,5.8-6.4c0-0.2,0.3-0.3,0.2-0.5c0.6-0.6,1.6-0.4,2.5-0.5c1.7,0.4,2.5,2.3,3.3,3.5c0.3,1.1-0.6,1.9-1.3,2.6
		c-2.7,2.7-3.8,6.1-4.8,9.5c-2.2,1.5-4.4,3-6.6,4.5l5.8,1.8l0.1,0.1c-0.2,4.7,0.6,8.9,2,12.9v0.5c-1,1.9-2.2,3.7-3.2,5.6h5.7
		c1.3,3.8,4.3,7.3,7.9,9.7l-0.4,5.9c1.8-0.8,3.5-1.6,5.3-2.4c3.1,1.5,6.4,2.7,9.8,3.1c0.5,0.2,1.1,0,1.5,0.4
		c0.9,1.8,1.9,3.6,2.8,5.3c1.1-1.5,2.3-3,3.4-4.5c3.5-0.2,6.9-0.8,10.2-1.4c1.9,1.9,3.6,3.9,5.5,5.6l0.4-6.2c0-0.4,0-0.8,0.2-1.2
		c1.2-1.5,3-1.3,4.5-1.3c0.9-0.2,1.7-0.8,2.5-1.4c3.5,0.3,5.7-2.4,8.5-3.9c1.4,0.7,3.2,1.2,4.8,0.7c2.7-0.6,4.2-3.2,4.8-5.7
		C125.9,39.8,123.1,37.3,123.7,34.1z"/>
</g>
<g id="AREA_2">
	<g>
		<path fill="#FDBB2D" d="M122.6,31.3c-2.1-2.7-2.5-6.2-5.6-8.2c0.7,0,1.3,0.4,2,0.5c-0.2-1.4-0.3-3-1.2-4.1
			c-1.3-1.1-2.3-2.6-3.4-3.7c-1.3-1.9-3.2-3-5.1-3.7c1.4-0.7,3.5-1,4.9,0c1.6,1.2,1.9,3,2.4,4.7c1.2-2.6,2.5-5.1,2.1-8.4
			c-0.6-4.3-0.6-8.5-3.1-12.2c-1.2-1.6-0.8-4-2.1-5.6c-1.8-2-4.4-3.3-5.8-5.7c0.9-1.6,2.8-2,4.5-1.9c3.3,0.1,6.2,2.7,7.3,5.7
			c1.2,2.7-0.1,6.2,2.8,8.1c0.7-1.2,1.4-2.4,1.6-3.7c-0.6-3.6,0.5-8-2.6-10.5c-2-1.9-5.5-2.1-6.1-5.3c-0.3-0.6-1-1.2-1.6-1.3
			c-5.2-1.2-8.7,3.2-12.7,5.5l-1.3-0.5c-3.3-1.5-6.2,1-9.5,1c-1.8-1.3-3.7-2.1-6-2.3c-5.2-0.4-10.2,0.6-13.8,4.3
			c-1.5-1.3-3.1-2.3-4.5-3.7c-0.5-0.8-1.2-1.7-2.1-2.3c-0.9-0.6-2.3-0.9-3.3-0.4c-1.9,1-3.8,2.2-5.7,3.3c-2.1,1.5-5,1.7-6.5,4.1
			c-1.7,3.8-3.7,7.6-5.7,11.3c-1.5,2.9-0.1,6.2,1.2,8.7c0.8-0.5,1.5-1.2,2.1-2c1.1-2.1,2.4-4.2,1.8-6.9c0.2-2.6-0.8-5.9,1.5-7.5
			c0.2-0.1,0.3-0.3,0.5-0.2c-0.4,0.7-0.5,1.6-0.1,2.4c0.4-0.1,0.8-0.3,1.2-0.6c2.3-2,4.4-4.3,6.8-6.1c1.4-0.8,3.5-0.6,5,0.1
			c1,0.5,1.4,1.5,1.3,2.5c-1.1-1.4-2.5-2.2-4.1-2.3c-0.8-0.1-1.4,0.7-1.8,1.3c1,0.2,1.9,0.6,2.8,1c1.3,0.9,2.2,2.3,2,3.8
			c-0.8,1.8-2.2,3.3-2.8,5.2c-0.2-0.6-0.6-1.1-1-1.7c-0.6-0.7-1.4-1.1-2.3-0.8c-0.9,0.8-0.8,2-0.9,3.2c-0.1,0.1,0,0.4-0.2,0.4
			c-0.2-1-0.5-2-1.2-2.7c-0.4-0.2-0.9-0.5-1.4-0.3c-0.7,0.3-0.9,1-1.1,1.7c-0.1,0.3,0,0.7-0.3,0.9c-0.2-1-0.2-2-1-2.8
			c-0.3,0-0.5-0.6-0.8-0.3c-0.8,0.9-1.4,2.4-0.8,3.6c1.7,1.6,4.5,0.7,6.2,2.5c2.6,2.5,0.9,6.2,0.2,9.1c-1.1,6.5-0.3,13.1,1.8,18.9
			c1.5,3.6,2.5,7.9,6.5,9.8c0.4,0.1,0.9,0.1,1.2-0.4c0.6-2.4,1.9-4.7,4.3-5.9c0.3-0.1,0.6-0.5,0.9-0.4c-0.9,1.5-1.9,3-2.7,4.5
			c-0.9,2.5-2.3,6.4,0,8.7c-0.4-4.1,0.4-7.9,2.5-11c1-2.3,3.4-3.6,5.4-4.7c2.3-1.2,2.6-3.7,3.7-5.7c0.6-1.3,2.1-1.8,3.4-1.9
			c-1.4,1.5-2.5,3.1-2.8,5c-0.7,3.9-5.4,4.6-7.2,7.9c-1.1,2.9-2.9,5.4-2.9,8.7c0.1,2.2-0.6,4.8,1,6.4c1.9,1.2,4.9,1.5,7.1,0.6
			c1.4-1.1,2.6-2.2,4-3.2c1.7-1,1.3-3.1,2.4-4.4c0.4-0.2,0.9-0.5,1.4-0.4c-0.2,2.9-1,5.5-2.9,7.7l4.6-0.8c1.9-0.2,4.1-1,4.9-2.9
			c0.2-0.6,0-1.2,0.3-1.8c0.3,1,0.8,2,1,3.1c0.4,1.6-0.2,3.1-1.6,4.2c1.2,0.4,2.6,0.3,3.9,0c2.2-0.4,1.1-3.2,3.2-4
			c0.5,1.4,0.6,2.8,0.5,4.2c1.2-0.1,2.6-0.1,3.6-0.6c1.4-1,1.4-3,1.4-4.7c-0.1-0.6-0.5-1.2-1.1-1.5c-1.3,0-2.3-1.2-3.1-2.3
			c-1.1-1-3.1-0.8-3.4-2.7c-0.6-0.9-1.5-0.2-2.3-0.2c-0.8-0.4-0.4-1.5-1-2c-0.4-0.3-1,0-1.4,0.2c-1.8,0.8-1.6-1.9-3.1-2.2
			c0.4-0.3,0.7-0.6,1.1-0.8c3-1.9,5.5,1.2,8,2.3c1.6,0.9,3.1,2.1,5,2.6c1.6,0.6,3.7,0.4,5.7,0.3c3.4-0.6,6.9-1.2,9.4-4
			c0.4-0.7,0.8-1.5,0.4-2.3c-0.9-0.9-1.9-1.9-3-2.1c-0.5-0.1-0.9,0-1.3,0.2c-1.9,1.3-3.4,3-5.7,3.2c-3.7,0.2-6.8-1.4-10.2-2.3
			c-2.7-1.4-5.7-2.6-8.8-1.7c-3.1,1.1-6.3,2.1-9,4.2c-0.4-0.6-0.7-1.2-1-1.8c-0.2-0.7,0-1.4,0.5-1.9c0.9-0.8,2.4-0.2,3.4-0.5
			c1.6-0.3,2.9-1.4,4.7-1.4c2.5,0.4,4.5-2,5.6-3.9c1.6,2.7,4.8,1.7,7.3,1.9c1.8,0.3,3.6,1.1,5.5,1c0.6-0.7,0.6-1.6,0.8-2.4
			c0.1-0.3,0.1-0.7,0.2-1c1,1.2,2.2,2.4,2.6,3.9c3.3,1,7.9,0.1,9.6,4.1c1.8,2.2-0.8,4.2-1.8,5.9c2.1,3.1-0.7,6-2.1,8.6
			c0.7,0.8,2,0.9,2.9,0.6c2.6-0.2,3.9-3,4.6-5.1c0.4-1.1-0.3-1.9-0.5-2.9C121.9,37,122.9,33.8,122.6,31.3z M75.8,45.6
			c-1,0.8-2.4,0.7-3.5,0.3c-0.6-0.3-1.3-0.9-1.4-1.6c0.1-1.6,1-3,1.3-4.5c0.2-0.5,0.8-0.6,1.3-0.7c-0.1,1-0.5,2.2,0.3,3
			c1,0.9,2.5,1.4,3.9,0.8c0.8-0.3,1.6-0.8,2.4-1.2C78.8,42.8,77.2,44.2,75.8,45.6z M79.9,36c1.9,1,4.4,0.3,6.3-0.5
			c-1.6,0.9-3.2,2.1-5.1,2.6C80,38.3,79,38,78.3,37.3c-0.6-0.9-0.9-1.9-1.1-2.9c-0.2-0.6,0-1.2,0.5-1.5c0.2-0.2,0.3-0.3,0.5-0.4
			C78.3,33.8,78.6,35.2,79.9,36z M114.6,21.9c-1.7-2.8-5.2-2.9-6.5-5.9l-0.7-1.6C109.8,17.1,114,18,114.6,21.9z M112.9-3
			c1.3,0.3,2.7,1.4,3.2,2.7c0.2,0.4,0.3,0.8,0.5,1.1c-0.6,0.1-1.3-0.1-1.9-0.5c-0.3-0.6-1-1.2-1.7-1.3c-0.4,0-0.7,0.3-0.8,0.6
			c-0.2,0.6,0.1,1.2,0.4,1.7c-0.2-0.2-0.6-0.4-0.8-0.6c-0.4-0.4-1-0.9-1.5-0.9c-1.4,1.5,1,2.9,0.5,4.7c-0.1,1.4-1.5,2.8-2.8,3.3
			c-1.4,0.4-3.2,0.2-4.6-0.4l-1.3-1c-1.5-0.3-3.2-0.1-4.3-1.2c-0.2-0.5,0-1,0.2-1.5c1.6-0.3,3.3-0.6,4.7-1.6
			C105.6-0.2,108.6-3.7,112.9-3z M84.3,8.6l1.3,0v0.1c-2.6,1.6-5.1,3.8-8.6,2.9c-1.9-0.6-3.5-2.6-4.1-4.4c-0.2-1,0-2.1,0.1-3.1
			c0.9,1.7,1,4.4,3.4,5.3c1.6,0.9,4,1.4,5.7,0.4c-1-0.3-2-0.4-2.9-0.5c-0.4,0-0.7-0.1-1.1-0.2c0.3-0.3,0.7-0.6,1.2-0.6
			c-1.8-0.3-3.3-2.3-3.7-4c-0.3-1.7,0.8-2.9,1.4-4.2c0.1-0.4,0.1-0.8,0-1.3c-0.1-0.4-0.6-0.5-0.9-0.3l-1.9,1.3
			c0.4-0.6,1-1.5,0.5-2.3c-0.3-0.4-0.8-0.4-1.2-0.3c-0.9,0.2-1.2,1.4-2.2,1.5h-1.2c0.1-0.4,0.4-0.8,0.7-1.3c1.2-1.8,3.1-2.9,5.2-2.5
			c3,0.7,5,3.2,7.1,5.6c1.2,2.3,3.7,3.5,6,4.3c0,0.6,0.2,1.2,0,1.7c-0.8,0.8-2,0.6-3.1,0.7h-1.7c-1.2,1-3.1,1.4-4.5,1.1l-0.1,0.1
			C81.4,9.7,82.8,8.5,84.3,8.6z M98.4,7.1c1.7,0.4,3.1,1.5,4.7,2.2c-0.6-0.1-1.3-0.5-2-0.6c-2.3-0.8-5.1-0.4-7.7-0.4
			c-1.6,0.2-3,0.9-4.5,1.6C91.7,8,94.9,5.9,98.4,7.1z M96.8,0.3c1-1,2.3-1.2,3.4-2.1c1.4-1.3,1.9-3.7,4.1-4c1.4-0.3,2.6-1.2,4.1-1.5
			c0.9,0.1,1.5,0.8,2.1,1.3v0.1c-1.9-0.1-3.7,0.2-4.9,1.8c-1.3,1.8-2,4.6-4.5,5.1c-1.3,0.3-2.6,0.6-3.7,1.4
			C97,1.8,96.7,1.1,96.8,0.3z M90.1,10.9c1.6-1.6,3.8-1.6,5.8-2c1.8,0,3.7,0.4,5.7,0.6c1.1,0.4,1.9,1.2,2.6,2.2
			c0,1.3-0.4,2.7-1.4,3.5c-0.3,0.1-0.7,0.3-1,0c-0.5-0.4-0.8-0.9-0.9-1.5c-0.2-0.2-0.6-0.3-0.9-0.2c-1.2,0.6-0.8,2.1-1.2,3.1
			c0,0.3-0.3,0.4-0.5,0.5c-1.1-0.2-2.6-0.1-3.1-1.4c-0.2-0.8-0.4-1.7-1.2-2.1c-0.4-0.2-1-0.4-1.5-0.2c-0.7,0.8-0.6,2.1-0.8,3
			c-0.8,0-1.9-0.3-2.3-1.1C89,13.8,89.3,12.1,90.1,10.9z M111-21l1.2-0.7c3,0.7,4.7,4.3,7.6,5.2c2.3,1.5,1.9,4.7,1.6,7.1
			c0.2-3.9-1.9-7.6-5.5-9.2c-2.2-0.8-5-0.4-7,0.5c-1,0.5-1.8,1.3-2.6,2C106.4-18.6,109-20,111-21z M107.8-11.3c1,0.3,2,0.9,2.6,1.8
			c0.4,0.6,0.5,1.3,0.8,2c-1.8-2.8-5-2.7-7.6-2.6C104.7-11.3,106.3-11.7,107.8-11.3z M89.4-9.6l3.4,0.8c1.4,0.3,2.2,2.1,3.6,2.3
			c2.1,0.5,3.5-1,5.1-1.8c0.5,0,1,0.2,1.3,0.5c-0.1,0.7-0.5,1.4-1.1,1.9c-2.2,1-4.4,2-6.8,2.7c-2.4-1.8-4.1-4.6-7.3-4.7
			c-0.5-0.3-1.4-0.4-1.5-1.2C87-9.7,88.3-9.6,89.4-9.6z M84.6-7.6c2,1.5,3.8,3.5,5.8,5C92.2-0.7,94,1.3,93.4,4
			c-0.3,0.6-0.7,1.1-1.3,1.3c-0.6,0.2-1.4,0.2-1.9,0c0.6-1.2,1.8-2.4,1.2-3.8c-2-1.9-3.9-4.1-6.2-5.5c-1.4-1.6-3.4-2.9-5.5-3.3
			C81.1-8,83.1-8.4,84.6-7.6z M68.4-10.8c1-1.7,3.1-1.8,4.7-2.4c1.3-0.1,2.7,0.3,3.3,1.5c0.2,0.5,0.3,1,0.3,1.6
			c-1.9-1.1-4-1.4-5.8-0.1c-2,1.6-1.7,4.2-3.3,5.9c-0.3,0.5-0.9,0.8-1.3,1.2C66.9-5.7,67.6-8.2,68.4-10.8z M72.4,20.7
			c-1.3,2.3-2.6,4.6-4.8,6.5c0.2-1.8,0.2-3.6,0.6-5.4c0.4-1.6,2.5-2.6,2-4.5c-1.5-3.2-2.3-6.6-4.2-9.6c-0.9-2.1-1-5.2,0.6-7l0.8-1
			c0,2.5,0.1,5-0.1,7.5C67,9,68.9,9.9,69.5,11.4c0.4,1.1,0.6,2.6,2,2.9c2.2,0.2,4.5-0.3,6.5-0.6v0.2C76.6,16.4,74.2,18.4,72.4,20.7z
			 M83.4,14c-2,2.1-3.8,3.7-5.6,6.1c0.3-1.4,0.4-2.8,1.6-3.8c2-1.3,2.9-4.1,5.3-4.5c0.9-0.3,1.9-0.2,2.8-0.3
			C86.1,12.2,84.6,12.7,83.4,14z M106.3,22.9c-3.3,0.4-5.9-1.9-9.1-1.1c-2.2,0.5-4,1.8-6.2,2.3c1.7-1.3,3.6-2.5,5.8-2.7
			c0.4-0.3,1.2-0.2,1.2-0.9v-0.2c-2,0-4.1,0.2-5.8,1.3c-1.4,1.3-3.2,1.9-5.2,1.8c1.9-1.2,3.9-2.7,6-3.6c2.5-0.6,4.9-1.4,7.7-1.1
			c2.5,0.7,5.1,1,7.4,2c-2.7,0-5.7-1.5-8.4-0.1c3.7,2.3,8.9,0.4,12.6,2.5c1.2,0.6,2.3,1.6,3.3,2.6C112.8,23.9,109.8,22.6,106.3,22.9
			z"/>
		<path fill="#FDBB2D" d="M115.1-14.9c-1.2,0-1.8,1.4-2.4,2.3c-0.8-0.3-1.5-0.8-2.2-1.1c0.6,1,1.6,1.8,2.4,2.7
			c0.8-0.6,1.4-1.3,2.3-1.8c0.6-0.3,1.1-0.4,1.8-0.6c0-0.3-0.3-0.4-0.3-0.6C116.3-14.7,115.7-15,115.1-14.9z"/>
		<path fill="#FDBB2D" d="M56.3-9.1c0.9,1,1.9,1.6,3,2c0.6-1.1,1.6-2.1,1.2-3.4c-0.2-0.1-0.3-0.3-0.5-0.4c-1.3-0.3-2.6-0.8-3.6-1.6
			c-0.6,0.8-1.3,1.4-2.1,2c-0.7,0.5-1.8,0.6-2.2,1.6c0.2,0.4,0.7,0.6,1.1,0.7C54.5-7.8,55.1-9.6,56.3-9.1z"/>
		<path fill="#FDBB2D" d="M107.6,3.2c0.3-0.1,0.5-0.6,0.4-0.9c-0.2-0.2-0.4-0.4-0.7-0.4c-0.2,0-0.3,0.2-0.5,0.3
			c-0.1,0.2-0.1,0.6,0,0.8C107.1,3.1,107.3,3.2,107.6,3.2z"/>
		<path fill="#FDBB2D" d="M106.1,3c0.2-0.1,0.3-0.3,0.2-0.5c-0.1-0.2-0.3-0.1-0.4-0.2c-0.2,0.1-0.5,0.2-0.4,0.5
			C105.7,3,105.9,3.1,106.1,3z"/>
		<path fill="#FDBB2D" d="M79.8,3.2c0.3,0,0.4-0.3,0.3-0.6c-0.1-0.1-0.3-0.2-0.5-0.2c-0.3,0-0.2,0.4-0.2,0.6
			C79.5,3.2,79.7,3.1,79.8,3.2z"/>
		<path fill="#FDBB2D" d="M81.4,4.2c0.3-0.2,0.4-0.6,0.3-0.9c-0.2-0.2-0.4-0.4-0.8-0.3c-0.4,0.1-0.6,0.5-0.4,0.9
			C80.6,4.1,81,4.4,81.4,4.2z"/>
		<path fill="#FDBB2D" d="M84.2,6.5l-1-1c-0.4-0.1-0.4,0.5-0.7,0.7C80.9,6.8,79.2,6,78,4.7c-0.5-0.4-0.3-1.7-1.3-1.4
			c0.3,1.7,0.5,3.5,2.1,4.5C80.7,7.7,83.1,8.5,84.2,6.5z"/>
		<path fill="#FDBB2D" d="M106.7,7.5c0.9,0.2,1.7-0.4,2.2-1.1c0.5-0.8,0.7-1.8,1-2.6c-0.2,0-0.4,0-0.5-0.1l-1,1.3
			c-1.1,0.8-2.6,1.1-3.9,0.9c-0.4-0.2-0.7-0.7-0.8-1c-0.4,0.2-0.8,0.5-1.1,0.8C103.4,7.3,105.2,7.2,106.7,7.5z"/>
		<path fill="#FDBB2D" d="M57.2,34.5c2.3,5,6,9.5,10.7,13.1H68c0.1-0.7,0.1-1.5,0-2.2c-3.8-2.3-7.4-5.6-8.9-9.7
			c-2.8-6.8-7-13.3-5.7-21.4c0.3-2.7,1.2-5.2,1.7-7.6l-1.4,1.2c-0.1,0.4-0.2,0.9-0.3,1.3C50.7,17.8,52.9,27.2,57.2,34.5z"/>
		<path fill="#FDBB2D" d="M64.9,46.9c-5.5-4.7-8.2-10.8-10.8-16.8c-3-6.6-3.2-14-1.6-21.3h-0.1c-1.1,1.6-2,3.3-2.4,5.2
			c-0.4,1.1,0.7,1.8,0.8,2.8c0.4,1.6-0.7,2.8-1.6,4c-0.4,4.3,0.5,8.8,2.1,12.6c0.6-0.2,1.3-0.6,2-0.4c1.4,1.1,2.2,2.6,2.5,4.2
			c0.1,1.2-1.2,1.6-1.9,2.1c0.9,3.5,3.3,7,6.7,9C61.5,46.8,63.4,46.7,64.9,46.9z"/>
		<path fill="#FDBB2D" d="M100.9,11.2c0.1-0.2,0.3-0.4,0.2-0.6c-1.6-0.9-3.5-0.9-5.5-0.8c-1.4,0.4-3.6,0-4.1,2l1.6,0.1
			C95.5,10.8,98.5,11.4,100.9,11.2z"/>
		<path fill="#FDBB2D" d="M49.8,16.2c-0.1-0.2,0-0.4-0.2-0.6c-1.7,1.1-3.5,1.9-5.1,3v0.2c1.6,0.4,3.1,1,4.7,1.3
			C49.7,19,50.2,17.4,49.8,16.2z"/>
		<path fill="#FDBB2D" d="M94,25.5c-0.8,0.9-1.2,2-1.1,3.2c0.9,0,1.7,0.3,2.5,0.7C95.7,27.9,95.4,26.4,94,25.5z"/>
		<path fill="#FDBB2D" d="M107,30.5c1.1,0.2,2.3,0.1,3.1-0.5c0-1.8-0.7-3.3-1.9-4.5l-0.1,0.3c0,1.1-0.9,1.9-0.9,2.9
			c0,0.2,0.2,0.5,0,0.6C107.2,29.8,107,30.1,107,30.5z"/>
		<path fill="#FDBB2D" d="M105,29.2c-0.2,0-0.4,0.2-0.5,0.3c-0.5,0.6-0.2,1.4,0.1,2c0.6,0,1.2,0,1.7-0.3c-0.1-0.4,0-0.8-0.3-1.2
			C105.8,29.6,105.5,29.2,105,29.2z"/>
		<path fill="#FDBB2D" d="M101,29.8c-0.3-0.2-0.7-0.3-1-0.2c-0.5,0.2-0.6,0.8-0.5,1.3c0.6,0.4,1.4,0.7,2,0.8
			C101.5,30.9,101.6,30.2,101,29.8z"/>
		<path fill="#FDBB2D" d="M102.8,29.5c-0.8,0.4-0.7,1.4-0.6,2.2h1.6c0.2-0.4,0.2-1.2,0-1.6C103.5,29.8,103.2,29.4,102.8,29.5z"/>
		<path fill="#FDBB2D" d="M109.2,33.1c1.1-0.2,1.8-1.3,2.3-2.2l-1.3-0.2c-1.6,0.4-3.1,1.2-4.7,1.6C106.6,32.8,108,33.2,109.2,33.1z"
			/>
		<path fill="#FDBB2D" d="M52.2,34.4L50.2,37c-0.4,0.6-0.8,1-1.2,1.6c1.6-0.2,3.1-0.3,4.7-0.5c0.1-0.7,0.3-1.5,0.2-2.1
			C53.6,35.3,52.9,34.7,52.2,34.4z"/>
		<path fill="#FDBB2D" d="M116.6,38.7c-1.4,0.3-2.8,0.9-3.9,2c-1.4,1.4-3.6,0.9-5.5,1.2c-0.8,0.4-1.3,1.5-1.2,2.3
			c0.8,2.8-0.7,5.5-2.4,7.6c1.4-0.9,3.1-1,4.9-1.1c1.9-0.9,2.7-2.9,3.2-4.7c0.1,0.5,0,1,0.2,1.4c0.2,0.2,0.1,0.6,0.5,0.6
			c0.1-0.3,0.5-0.4,0.7-0.6C116,45.3,117.1,42.3,116.6,38.7z"/>
		<path fill="#FDBB2D" d="M65.1,48.2c-0.9-0.4-1.8,0-2.7,0l-0.1,0.1c-0.3,1.9-0.7,3.9-0.9,5.7l4.2-2.1c0.2-1,0.3-2.4-0.1-3.4
			L65.1,48.2z"/>
		<path fill="#FDBB2D" d="M99.1,51.2c-2.3-0.1-4.1,1.1-6.5,1.1c-1-0.1-1.6-1.1-2.7-1.1c-1.6,0.5-3.4,1.8-5.1,0.7
			c-1.2-1.2-2.9-1.9-4.6-1.4c-2.1,1.3-4.7,1.6-7,1.4C71.3,52,69.9,50.6,69,49c-0.7-0.5-1.6-0.7-2.4-0.7c0.1,0.4,0.3,0.8,0.5,1.2
			c0.6,1.1-0.2,2.2-0.5,3.1c2.9,1.6,6,2.9,9.4,3.2c1,0.4,0.9-0.9,1.6-1.3c1.2-1.2,3.5-0.8,4.8-0.2c0.6,0.4,0.8,1,0.9,1.6
			c3.1,0,6.2-0.2,8.9-1c0.9-0.1,1-1.4,1.9-1.9c1-0.8,2.5-0.4,3.6,0l1.8-0.4C99.4,52.1,99.6,51.4,99.1,51.2z"/>
		<path fill="#FDBB2D" d="M94.8,54c-0.4,0.4-0.8,0.8-1,1.3c1.3,1.6,2.7,3.4,4,4.9l0-6.3C96.9,53.6,95.6,53.1,94.8,54z"/>
		<path fill="#FDBB2D" d="M80.6,54.7c-1.1-0.2-1.9,0.7-2.7,1.2c0.6,1.5,1.2,3.1,1.9,4.5l2.6-3.9v-0.2C81.8,55.7,81.3,55,80.6,54.7z"
			/>
	</g>
</g>
<g id="AREA_1">
	<g>
		<path fill="#720018" d="M123.7,34.1c0.5-3.4-1.3-6-2.9-8.7c-0.2-3.1-2-5.6-2.8-8.4c1.4-1.4,1.3-3.6,1.6-5.4c1-2.5,0.1-5.3-0.2-7.8
			c-0.3-1.4-0.2-2.7-0.7-4.1c-1.9-3.3-3-6.8-4.5-10.2l0.2-0.3c0.6-0.8,1.5-1.8,2.6-1.6c0.5,0.1,0.9,0.4,1.2,0.8
			c1.7,3.6,0.9,8.2,4.4,11.1h0.2c0.6-1.1,1.1-2.4,1.5-3.6c1.4-3.2,0.3-6.2,0.5-9.9c0.1-3.4-3.8-4.9-6.2-6.2
			c-0.2-0.2-0.4-0.3-0.6-0.4c-0.9-1-1.4-2.2-2.1-3.3c-0.6-1.1-1.8-1.7-2.9-1.9c-4.4-0.3-8.4,1.7-11.5,5.4c-3.7-0.5-7.6-0.3-11,0.5
			c-3.2-1.9-7.1-2.4-11-2c-3.5,0.2-6.4,1.8-9,4.2c-1-0.9-2.1-1.8-3.1-2.8c-1.7-1.6-3.3-4-5.8-3.4c-4.6,2.5-9.9,3.5-13.7,7.6
			c-1.5,3.1-2.9,6.3-5,9.2c-3,3.8-1.8,9.7,0.2,13.5c2.7-1,4.9-3.8,5.8-6.4c0-0.2,0.3-0.3,0.2-0.5c0.6-0.6,1.6-0.4,2.5-0.5
			c1.7,0.4,2.5,2.3,3.3,3.5c0.3,1.1-0.6,1.9-1.3,2.6c-2.7,2.7-3.8,6.1-4.8,9.5c-2.2,1.5-4.4,3-6.6,4.5l5.8,1.8l0.1,0.1
			c-0.2,4.7,0.6,8.9,2,12.9v0.5c-1,1.9-2.2,3.7-3.2,5.6h5.7c1.3,3.8,4.3,7.3,7.9,9.7l-0.4,5.9c1.8-0.8,3.5-1.6,5.3-2.4
			c3.1,1.5,6.4,2.7,9.8,3.1c0.5,0.2,1.1,0,1.5,0.4c0.9,1.8,1.9,3.6,2.8,5.3c1.1-1.5,2.3-3,3.4-4.5c3.5-0.2,6.9-0.8,10.2-1.4
			c1.9,1.9,3.6,3.9,5.5,5.6l0.4-6.2c0-0.4,0-0.8,0.2-1.2c1.2-1.5,3-1.3,4.5-1.3c0.9-0.2,1.7-0.8,2.5-1.4c3.5,0.3,5.7-2.4,8.5-3.9
			c1.4,0.7,3.2,1.2,4.8,0.7c2.7-0.6,4.2-3.2,4.8-5.7C125.9,39.8,123.1,37.3,123.7,34.1z M115.2-12.9c-0.9,0.6-1.4,1.2-2.3,1.8
			c-0.8-0.9-1.9-1.6-2.4-2.7c0.7,0.3,1.4,0.8,2.2,1.1c0.6-0.8,1.2-2.3,2.4-2.3c0.6-0.1,1.2,0.2,1.6,0.8c0,0.2,0.3,0.4,0.3,0.6
			C116.4-13.3,115.8-13.2,115.2-12.9z M53.6,7.8L55,6.6c-0.5,2.5-1.4,5-1.7,7.6c-1.2,8.1,2.9,14.6,5.7,21.4c1.6,4.1,5.1,7.4,8.9,9.7
			c0.2,0.7,0.1,1.5,0,2.2h-0.1c-4.7-3.6-8.4-8.1-10.7-13.1c-4.3-7.2-6.5-16.7-3.9-25.3C53.4,8.7,53.5,8.2,53.6,7.8z M44.5,18.8v-0.2
			c1.7-1.1,3.5-1.9,5.1-3c0.2,0.2,0,0.4,0.2,0.6c0.4,1.2-0.1,2.7-0.6,3.9C47.6,19.8,46.1,19.2,44.5,18.8z M53.7,38.2
			c-1.6,0.2-3.1,0.3-4.7,0.5c0.3-0.6,0.7-1,1.2-1.6l2.1-2.7c0.6,0.4,1.4,1,1.6,1.7C54,36.7,53.8,37.5,53.7,38.2z M60.6,48.4
			c-3.4-2-5.8-5.5-6.7-9c0.7-0.5,2-0.9,1.9-2.1c-0.4-1.6-1.2-3.2-2.5-4.2c-0.7-0.2-1.4,0.2-2,0.4c-1.6-3.8-2.5-8.3-2.1-12.6
			c0.8-1.2,1.9-2.4,1.6-4c-0.1-1-1.2-1.7-0.8-2.8c0.4-1.9,1.3-3.6,2.4-5.2h0.1c-1.6,7.3-1.4,14.7,1.6,21.3c2.6,6,5.3,12.1,10.8,16.8
			C63.4,46.7,61.5,46.8,60.6,48.4z M65.6,52l-4.2,2.1c0.2-1.8,0.6-3.8,0.9-5.7l0.1-0.1c1-0.1,1.8-0.4,2.7,0l0.4,0.4
			C65.9,49.6,65.8,50.9,65.6,52z M82.4,56.5l-2.6,3.9c-0.8-1.4-1.3-3-1.9-4.5c0.8-0.6,1.6-1.4,2.7-1.2c0.7,0.4,1.2,1,1.8,1.6V56.5z
			 M93.8,55.2c0.2-0.5,0.6-0.9,1-1.3c0.7-0.9,2.1-0.4,2.9-0.1l0,6.3C96.5,58.6,95.2,56.9,93.8,55.2z M97.7,53c-1-0.4-2.6-0.8-3.6,0
			c-0.9,0.5-0.9,1.7-1.9,1.9c-2.8,0.8-5.8,1.1-8.9,1c-0.1-0.6-0.4-1.2-0.9-1.6c-1.3-0.6-3.6-1-4.8,0.2C77,54.9,77,56.3,76,55.9
			c-3.4-0.3-6.5-1.6-9.4-3.2c0.3-0.9,1.1-2,0.5-3.1c-0.1-0.4-0.4-0.8-0.5-1.2c0.8,0,1.7,0.2,2.4,0.7c0.8,1.6,2.3,2.9,4.2,2.8
			c2.3,0.1,4.9-0.2,7-1.4c1.7-0.5,3.4,0.2,4.6,1.4c1.7,1.1,3.5-0.2,5.1-0.7c1.1,0,1.7,1,2.7,1.1c2.3,0,4.2-1.2,6.5-1.1
			c0.5,0.3,0.3,1,0.4,1.4L97.7,53z M113.1,47.4c-0.2,0.3-0.6,0.3-0.7,0.6c-0.4,0-0.3-0.4-0.5-0.6c-0.2-0.4-0.1-0.9-0.2-1.4
			c-0.6,1.8-1.3,3.8-3.2,4.7c-1.7,0.1-3.5,0.3-4.9,1.1c1.7-2.1,3.2-4.8,2.4-7.6c-0.1-0.8,0.4-1.9,1.2-2.3c1.9-0.2,4,0.2,5.5-1.2
			c1.1-1.1,2.5-1.8,3.9-2C117.1,42.3,116,45.3,113.1,47.4z M123.7,42.1c-0.6,2.1-2,4.9-4.6,5.1c-1,0.3-2.2,0.3-2.9-0.6
			c1.4-2.6,4.3-5.6,2.1-8.6c1-1.7,3.6-3.7,1.8-5.9c-1.7-4-6.3-3.1-9.6-4.1c-0.4-1.5-1.6-2.7-2.6-3.9c-0.2,0.3-0.2,0.7-0.2,1
			c-0.2,0.8-0.3,1.7-0.8,2.4c-1.9,0.1-3.6-0.7-5.5-1c-2.5-0.2-5.8,0.8-7.3-1.9c-1.2,1.9-3.1,4.2-5.6,3.9c-1.7,0-3.1,1-4.7,1.4
			c-1,0.2-2.5-0.3-3.4,0.5c-0.5,0.5-0.7,1.2-0.5,1.9c0.2,0.7,0.6,1.2,1,1.8c2.7-2.2,5.9-3.1,9-4.2c3.2-1,6.2,0.2,8.8,1.7
			c3.4,0.8,6.5,2.5,10.2,2.3c2.3-0.1,3.9-1.9,5.7-3.2c0.5-0.1,0.9-0.3,1.3-0.2c1.1,0.2,2.1,1.2,3,2.1c0.4,0.8,0,1.6-0.4,2.3
			c-2.5,2.8-6,3.4-9.4,4c-1.9,0.1-4.1,0.3-5.7-0.3c-1.8-0.5-3.3-1.6-5-2.6c-2.5-1.1-5.1-4.1-8-2.3c-0.4,0.2-0.8,0.5-1.1,0.8
			c1.5,0.4,1.3,3,3.1,2.2c0.4-0.1,1-0.5,1.4-0.2c0.6,0.5,0.2,1.6,1,2c0.8-0.1,1.7-0.8,2.3,0.2c0.3,1.9,2.3,1.7,3.4,2.7
			c0.8,1,1.8,2.2,3.1,2.3c0.6,0.3,1,0.9,1.1,1.5c0.1,1.7,0.1,3.6-1.4,4.7c-1.1,0.6-2.4,0.5-3.6,0.6c0-1.4,0-2.9-0.5-4.2
			c-2,0.7-1,3.6-3.2,4c-1.3,0.3-2.7,0.4-3.9,0c1.3-1.1,1.9-2.6,1.6-4.2c-0.2-1.1-0.7-2-1-3.1c-0.3,0.5-0.1,1.2-0.3,1.8
			c-0.9,1.9-3,2.6-4.9,2.9l-4.6,0.8c1.8-2.2,2.6-4.8,2.9-7.7c-0.5-0.1-1,0.2-1.4,0.4c-1.1,1.3-0.7,3.4-2.4,4.4c-1.4,1-2.6,2.1-4,3.2
			c-2.2,0.9-5.2,0.6-7.1-0.6c-1.6-1.6-0.9-4.2-1-6.4c0-3.3,1.9-5.9,2.9-8.7c1.8-3.3,6.6-3.9,7.2-7.9c0.3-1.9,1.4-3.5,2.8-5
			c-1.3,0.1-2.8,0.6-3.4,1.9c-1.1,2-1.4,4.5-3.7,5.7c-1.9,1.1-4.3,2.5-5.4,4.7c-2.1,3.2-2.9,7-2.5,11c-2.3-2.3-0.9-6.2,0-8.7
			c0.8-1.6,1.8-3,2.7-4.5c-0.3-0.1-0.6,0.4-0.9,0.4c-2.3,1.2-3.7,3.5-4.3,5.9c-0.2,0.4-0.8,0.5-1.2,0.4c-4.1-1.9-5-6.2-6.5-9.8
			c-2.1-5.8-2.9-12.4-1.8-18.9C56.3,5.2,58,1.5,55.4-1c-1.7-1.8-4.5-0.8-6.2-2.5c-0.6-1.2-0.1-2.7,0.8-3.6c0.3-0.4,0.5,0.2,0.8,0.3
			C51.5-6,51.5-5,51.7-4c0.2-0.2,0.2-0.6,0.3-0.9c0.2-0.6,0.4-1.3,1.1-1.7c0.5-0.2,1,0.1,1.4,0.3c0.7,0.7,1,1.8,1.2,2.7
			c0.2,0,0.1-0.3,0.2-0.4c0.1-1.2,0-2.4,0.9-3.2c0.9-0.3,1.7,0.2,2.3,0.8c0.4,0.5,0.8,1.1,1,1.7c0.6-1.9,2-3.4,2.8-5.2
			c0.2-1.6-0.7-2.9-2-3.8c-0.9-0.4-1.8-0.8-2.8-1c0.4-0.6,0.9-1.4,1.8-1.3c1.7,0.1,3,0.9,4.1,2.3c0.1-1-0.4-2-1.3-2.5
			c-1.4-0.8-3.5-0.9-5-0.1c-2.4,1.8-4.6,4.1-6.8,6.1c-0.4,0.3-0.8,0.5-1.2,0.6c-0.4-0.8-0.3-1.7,0.1-2.4c-0.2-0.2-0.3,0.1-0.5,0.2
			c-2.3,1.6-1.3,4.9-1.5,7.5C48.4-1.5,47,0.6,46,2.7c-0.6,0.8-1.2,1.5-2.1,2c-1.3-2.5-2.7-5.8-1.2-8.7c2-3.7,4-7.5,5.7-11.3
			c1.5-2.4,4.3-2.7,6.5-4.1c1.9-1,3.7-2.2,5.7-3.3c1-0.5,2.4-0.2,3.3,0.4c0.8,0.6,1.5,1.5,2.1,2.3c1.4,1.4,3,2.4,4.5,3.7
			c3.5-3.7,8.5-4.7,13.8-4.3c2.2,0.2,4.2,1,6,2.3c3.3,0,6.2-2.5,9.5-1l1.3,0.5c4-2.4,7.5-6.7,12.7-5.5c0.7,0.2,1.3,0.7,1.6,1.3
			c0.5,3.2,4.1,3.4,6.1,5.3c3.1,2.5,2,6.9,2.6,10.5c-0.2,1.4-0.9,2.6-1.6,3.7c-3-2-1.6-5.5-2.8-8.1c-1.1-3-4-5.6-7.3-5.7
			c-1.7-0.1-3.6,0.3-4.5,1.9c1.4,2.4,4,3.7,5.8,5.7c1.3,1.6,0.9,4,2.1,5.6c2.5,3.7,2.5,7.8,3.1,12.2c0.4,3.3-0.9,5.8-2.1,8.4
			c-0.5-1.7-0.8-3.5-2.4-4.7c-1.4-1-3.4-0.8-4.9,0c1.9,0.8,3.8,1.8,5.1,3.7c1,1.2,2,2.7,3.4,3.7c0.9,1.2,1,2.7,1.2,4.1
			c-0.7-0.1-1.3-0.5-2-0.5c3.1,2,3.5,5.6,5.6,8.2c0.4,2.5-0.6,5.6,0.6,7.9C123.4,40.2,124.1,41,123.7,42.1z M110.2,30.7l1.3,0.2
			c-0.5,0.9-1.2,2-2.3,2.2c-1.2,0.1-2.5-0.2-3.6-0.8C107.2,31.9,108.6,31.1,110.2,30.7z M104.6,31.5c-0.3-0.6-0.6-1.4-0.1-2
			c0.2-0.1,0.3-0.2,0.5-0.3c0.4,0,0.8,0.4,1,0.8c0.2,0.3,0.2,0.8,0.3,1.2C105.8,31.5,105.2,31.5,104.6,31.5z M107.2,28.7
			c0-1,0.8-1.9,0.9-2.9l0.1-0.3c1.2,1.2,2,2.7,1.9,4.5c-0.9,0.6-2.1,0.7-3.1,0.5c0-0.4,0.2-0.7,0.2-1.1
			C107.4,29.2,107.2,29,107.2,28.7z M103.8,31.7h-1.6c-0.1-0.8-0.1-1.7,0.6-2.2c0.4-0.1,0.7,0.3,1,0.6C104,30.5,104,31.3,103.8,31.7
			z M101.5,31.6c-0.7-0.1-1.4-0.4-2-0.8c-0.1-0.5,0-1,0.5-1.3c0.4-0.1,0.8,0,1,0.2C101.6,30.2,101.5,30.9,101.5,31.6z M95.4,29.3
			c-0.8-0.4-1.6-0.6-2.5-0.7c0-1.2,0.4-2.3,1.1-3.2C95.4,26.4,95.7,27.9,95.4,29.3z M52.2-9.1c0.4-1,1.4-1.1,2.2-1.6
			c0.8-0.6,1.5-1.2,2.1-2c1.1,0.9,2.3,1.3,3.6,1.6c0.2,0.1,0.3,0.3,0.5,0.4c0.3,1.4-0.7,2.4-1.2,3.4c-1.1-0.4-2.1-1-3-2
			c-1.2-0.5-1.8,1.3-3.1,0.8C52.9-8.5,52.4-8.7,52.2-9.1z"/>
		<path fill="#720018" d="M115.8-18.7c3.6,1.6,5.8,5.3,5.5,9.2c0.4-2.4,0.7-5.6-1.6-7.1c-2.9-0.9-4.6-4.5-7.6-5.2L111-21
			c-2,1-4.6,2.4-4.8,4.9c0.8-0.8,1.6-1.5,2.6-2C110.8-19.1,113.6-19.4,115.8-18.7z"/>
		<path fill="#720018" d="M67.6-4.2c1.6-1.7,1.3-4.3,3.3-5.9c1.9-1.3,4-1,5.8,0.1c0-0.6-0.1-1.1-0.3-1.6c-0.6-1.2-2-1.6-3.3-1.5
			c-1.7,0.6-3.7,0.6-4.7,2.4c-0.8,2.5-1.5,5.1-2.1,7.8C66.8-3.4,67.3-3.7,67.6-4.2z"/>
		<path fill="#720018" d="M111.2-7.5c-0.2-0.7-0.4-1.4-0.8-2c-0.6-0.9-1.6-1.5-2.6-1.8c-1.5-0.4-3.2,0-4.3,1.1
			C106.2-10.2,109.4-10.3,111.2-7.5z"/>
		<path fill="#720018" d="M87.7-7.9c3.2,0.2,4.9,2.9,7.3,4.7c2.4-0.7,4.6-1.6,6.8-2.7c0.6-0.5,1-1.2,1.1-1.9
			c-0.4-0.3-0.8-0.5-1.3-0.5c-1.6,0.8-3,2.4-5.1,1.8c-1.4-0.2-2.2-2.1-3.6-2.3l-3.4-0.8c-1.1-0.1-2.3-0.2-3.2,0.5
			C86.2-8.3,87.2-8.2,87.7-7.9z"/>
		<path fill="#720018" d="M85.3-4c2.3,1.4,4.2,3.7,6.2,5.5c0.6,1.4-0.6,2.6-1.2,3.8c0.6,0.2,1.4,0.2,1.9,0c0.6-0.2,1-0.8,1.3-1.3
			c0.5-2.6-1.3-4.7-3.1-6.6c-2-1.5-3.8-3.5-5.8-5c-1.4-0.8-3.5-0.4-4.8,0.3C81.9-6.9,83.8-5.6,85.3-4z"/>
		<path fill="#720018" d="M105.5-4.1c1.2-1.6,3-1.9,4.9-1.8V-6c-0.7-0.5-1.3-1.3-2.1-1.3c-1.4,0.3-2.6,1.2-4.1,1.5
			c-2.2,0.3-2.6,2.7-4.1,4c-1,0.9-2.4,1.1-3.4,2.1c-0.1,0.7,0.2,1.5,0.5,2.1c1.1-0.9,2.4-1.2,3.7-1.4C103.5,0.5,104.2-2.3,105.5-4.1
			z"/>
		<path fill="#720018" d="M84.5,7.5h1.7c1.1-0.1,2.3,0,3.1-0.7c0.2-0.5,0-1.1,0-1.7c-2.3-0.8-4.8-1.9-6-4.3
			c-2.1-2.4-4.1-4.9-7.1-5.6c-2.2-0.4-4,0.7-5.2,2.5c-0.2,0.4-0.6,0.9-0.7,1.3h1.2c1-0.1,1.3-1.2,2.2-1.5c0.4-0.1,0.9-0.1,1.2,0.3
			c0.5,0.8,0,1.6-0.5,2.3l1.9-1.3C76.5-1.4,77-1.3,77.1-1c0.1,0.5,0.1,0.8,0,1.3c-0.6,1.3-1.7,2.5-1.4,4.2c0.4,1.7,1.8,3.7,3.7,4
			c-0.5,0-0.9,0.3-1.2,0.6c0.4,0.1,0.7,0.2,1.1,0.2c1,0.2,2,0.3,2.9,0.5c-1.7,1.1-4.1,0.5-5.7-0.4c-2.4-0.9-2.5-3.6-3.4-5.3
			c-0.1,1-0.3,2.1-0.1,3.1c0.6,1.8,2.2,3.8,4.1,4.4c3.5,0.9,6-1.3,8.6-2.9V8.6l-1.3,0c-1.5-0.1-3,1.1-4.4,0.2L80,8.6
			C81.4,8.9,83.3,8.6,84.5,7.5z M80.9,3c0.3-0.1,0.6,0.1,0.8,0.3c0.1,0.3,0,0.8-0.3,0.9c-0.4,0.2-0.7-0.1-0.9-0.3
			C80.3,3.5,80.5,3.1,80.9,3z M79.6,2.4c0.2,0,0.4,0,0.5,0.2c0,0.3-0.1,0.6-0.3,0.6c-0.1,0-0.3,0-0.4-0.2
			C79.4,2.8,79.3,2.5,79.6,2.4z M78.8,7.8c-1.6-1-1.8-2.8-2.1-4.5c1-0.3,0.8,1,1.3,1.4c1.2,1.2,2.8,2.1,4.5,1.5
			c0.3-0.2,0.3-0.8,0.7-0.7l1,1C83.1,8.5,80.7,7.7,78.8,7.8z"/>
		<path fill="#720018" d="M97.9,3.8c-0.2,0.5-0.3,1-0.2,1.5c1.1,1,2.8,0.9,4.3,1.2l1.3,1c1.4,0.6,3.2,0.8,4.6,0.4
			c1.3-0.5,2.7-2,2.8-3.3c0.5-1.8-1.9-3.2-0.5-4.7c0.6,0,1.1,0.6,1.5,0.9c0.2,0.2,0.5,0.4,0.8,0.6c-0.3-0.5-0.6-1.1-0.4-1.7
			c0.1-0.3,0.4-0.6,0.8-0.6c0.7,0.1,1.4,0.7,1.7,1.3c0.5,0.4,1.2,0.6,1.9,0.5c-0.2-0.4-0.4-0.8-0.5-1.1c-0.5-1.2-1.9-2.4-3.2-2.7
			c-4.3-0.7-7.2,2.8-10.3,5.2C101.2,3.2,99.6,3.5,97.9,3.8z M106.8,2.2c0.1-0.2,0.3-0.3,0.5-0.3c0.3-0.1,0.6,0.1,0.7,0.4
			c0.1,0.3,0,0.8-0.4,0.9c-0.3,0.1-0.5-0.1-0.8-0.2C106.6,2.8,106.7,2.4,106.8,2.2z M106,2.3c0.1,0.1,0.3,0.1,0.4,0.2
			c0,0.2-0.1,0.4-0.2,0.5c-0.2,0-0.4,0-0.5-0.3C105.5,2.5,105.8,2.3,106,2.3z M103.7,4.9c0.2,0.3,0.4,0.8,0.8,1
			c1.3,0.2,2.8-0.1,3.9-0.9l1-1.3c0.1,0.1,0.3,0,0.5,0.1c-0.3,0.8-0.5,1.8-1,2.6c-0.5,0.6-1.3,1.3-2.2,1.1c-1.5-0.3-3.3-0.1-4.1-1.7
			C102.9,5.4,103.3,5.2,103.7,4.9z"/>
		<path fill="#720018" d="M78,13.7c-2.1,0.3-4.3,0.9-6.5,0.6c-1.4-0.3-1.6-1.8-2-2.9C68.9,9.9,67,9,67.2,7.2c0.2-2.5,0.1-5,0.1-7.5
			l-0.8,1c-1.6,1.8-1.5,4.9-0.6,7c1.9,3,2.7,6.4,4.2,9.6c0.5,1.9-1.6,2.9-2,4.5c-0.4,1.8-0.4,3.6-0.6,5.4c2.2-1.9,3.5-4.2,4.8-6.5
			c1.8-2.4,4.2-4.3,5.7-6.9V13.7z"/>
		<path fill="#720018" d="M101,8.6c0.7,0.2,1.4,0.6,2,0.6c-1.6-0.7-3-1.8-4.7-2.2c-3.5-1.1-6.7,0.9-9.5,2.7c1.4-0.6,2.9-1.4,4.5-1.6
			C95.9,8.2,98.7,7.8,101,8.6z"/>
		<path fill="#720018" d="M91.7,16.4c0.2-1,0-2.3,0.8-3c0.5-0.2,1.1,0,1.5,0.2c0.8,0.5,1.1,1.3,1.2,2.1c0.4,1.3,1.9,1.2,3.1,1.4
			c0.2-0.1,0.5-0.3,0.5-0.5c0.5-1,0.1-2.5,1.2-3.1c0.3-0.1,0.7,0,0.9,0.2c0.1,0.6,0.4,1.2,0.9,1.5c0.3,0.2,0.7,0,1,0
			c1.1-0.8,1.5-2.2,1.4-3.5c-0.7-1-1.6-1.8-2.6-2.2c-1.9-0.2-3.9-0.6-5.7-0.6c-2.1,0.4-4.3,0.5-5.8,2c-0.8,1.2-1.1,2.9-0.7,4.4
			C89.8,16.2,90.9,16.4,91.7,16.4z M95.6,9.7c2,0,3.9-0.1,5.5,0.8c0.1,0.3-0.1,0.5-0.2,0.6c-2.4,0.2-5.4-0.4-7.7,0.5l-1.6-0.1
			C92,9.7,94.1,10.1,95.6,9.7z"/>
		<path fill="#720018" d="M84.8,11.8c-2.4,0.4-3.3,3.1-5.3,4.5c-1.2,1-1.3,2.4-1.6,3.8c1.8-2.3,3.5-4,5.6-6.1
			c1.2-1.4,2.7-1.9,4.1-2.5C86.6,11.6,85.6,11.5,84.8,11.8z"/>
		<path fill="#720018" d="M107.4,14.4l0.7,1.6c1.4,3,4.8,3.1,6.5,5.9C114,18,109.8,17.1,107.4,14.4z"/>
		<path fill="#720018" d="M112.3,23.1c-3.7-2.1-8.9-0.2-12.6-2.5c2.7-1.4,5.7,0.2,8.4,0.1c-2.3-1.1-5-1.4-7.4-2
			c-2.8-0.3-5.2,0.5-7.7,1.1c-2.1,0.9-4.1,2.4-6,3.6c2,0.1,3.7-0.4,5.2-1.8c1.7-1.1,3.8-1.2,5.8-1.3v0.2c0,0.7-0.8,0.6-1.2,0.9
			c-2.2,0.2-4.1,1.4-5.8,2.7c2.1-0.6,4-1.8,6.2-2.3c3.2-0.7,5.8,1.6,9.1,1.1c3.6-0.4,6.6,1,9.3,2.7
			C114.7,24.6,113.5,23.7,112.3,23.1z"/>
		<path fill="#720018" d="M78.1,32.4c-0.2,0.1-0.4,0.2-0.5,0.4c-0.5,0.4-0.6,1-0.5,1.5c0.3,1,0.5,2.1,1.1,2.9c0.8,0.7,1.7,1,2.8,0.8
			c1.9-0.4,3.5-1.7,5.1-2.6c-1.9,0.8-4.4,1.5-6.3,0.5C78.6,35.2,78.3,33.8,78.1,32.4z"/>
		<path fill="#720018" d="M73.9,42.1c-0.8-0.8-0.5-2-0.3-3c-0.5,0.1-1,0.2-1.3,0.7c-0.4,1.5-1.2,2.9-1.3,4.5
			c0.2,0.7,0.8,1.2,1.4,1.6c1,0.5,2.5,0.5,3.5-0.3c1.4-1.4,2.9-2.8,4.3-3.9c-0.8,0.5-1.6,0.9-2.4,1.2C76.4,43.5,74.9,43,73.9,42.1z"
			/>
	</g>
</g>
</svg>
