<?xml version="1.0" encoding="utf-8"?>
<!-- Generator: Adobe Illustrator 19.1.0, SVG Export Plug-In . SVG Version: 6.00 Build 0)  -->
<!DOCTYPE svg PUBLIC "-//W3C//DTD SVG 1.1//EN" "http://www.w3.org/Graphics/SVG/1.1/DTD/svg11.dtd">
<svg version="1.1" xmlns="http://www.w3.org/2000/svg" xmlns:xlink="http://www.w3.org/1999/xlink" x="0px" y="0px"
	 viewBox="33 -33 100 100" enable-background="new 33 -33 100 100" xml:space="preserve">
<g id="Layer_1">
</g>
<g id="AREA_3">
	<path fill="none" stroke="#004D86" stroke-width="6.145" stroke-miterlimit="10" d="M58.7,59.4c1.9,1.1,1.8,1.1,3.7,0.2
		C64,58.9,73.3,57,80.8,38.5c1.8-4.5,3.5-9.9,4.9-16.5c0.5-2.7,2.3-0.4,3,0.5c0.7,0.9,17,15.4,25.8,11.8c8.8-3.5,7.6-15,3-18.7
		c4.6-3.5,8-9.7,2.5-17.1C114.5-9,99-1.7,96.1-0.3c7.1-11.1,9.4-20.3,1.6-24.6c-7.8-4.2-13.4,0.4-14.8,2.3c-2.3-2.5-9-6.9-15.7-2.7
		C60.5-21,62-12,69.1-0.1c-12.5-5.5-23-6.9-26,2.6c-3,9.5,3.4,12.7,4.4,13.4c-2.8,3.2-4.9,9-1.2,14.7c3.7,5.7,13.4,8.8,30.9-9
		c2.3-2.1,1.9-0.4,1.9,0.5c-0.3,4.3-1.4,9.2-3.6,13.9c-3.3,7-9.2,13.5-18.7,17C54.4,55.7,58.7,59.4,58.7,59.4z"/>
</g>
<g id="AREA_2">
	<path fill="none" stroke="#FDBB2D" stroke-width="2.9587" stroke-miterlimit="10" d="M58.7,59.4c1.9,1.1,1.8,1.1,3.7,0.2
		C64,58.9,73.3,57,80.8,38.5c1.8-4.5,3.5-9.9,4.9-16.5c0.5-2.7,2.3-0.4,3,0.5c0.7,0.9,17,15.4,25.8,11.8c8.8-3.5,7.6-15,3-18.7
		c4.6-3.5,8-9.7,2.5-17.1C114.5-9,99-1.7,96.1-0.3c7.1-11.1,9.4-20.3,1.6-24.6c-7.8-4.2-13.4,0.4-14.8,2.3c-2.3-2.5-9-6.9-15.7-2.7
		C60.5-21,62-12,69.1-0.1c-12.5-5.5-23-6.9-26,2.6c-3,9.5,3.4,12.7,4.4,13.4c-2.8,3.2-4.9,9-1.2,14.7c3.7,5.7,13.4,8.8,30.9-9
		c2.3-2.1,1.9-0.4,1.9,0.5c-0.3,4.3-1.4,9.2-3.6,13.9c-3.3,7-9.2,13.5-18.7,17C54.4,55.7,58.7,59.4,58.7,59.4z"/>
</g>
<g id="AREA_1">
	<path fill="#720018" d="M58.7,59.4c1.9,1.1,1.8,1.1,3.7,0.2C64,58.9,73.3,57,80.8,38.5c1.8-4.5,3.5-9.9,4.9-16.5
		c0.5-2.7,2.3-0.4,3,0.5c0.7,0.9,17,15.4,25.8,11.8c8.8-3.5,7.6-15,3-18.7c4.6-3.5,8-9.7,2.5-17.1C114.5-9,99-1.7,96.1-0.3
		c7.1-11.1,9.4-20.3,1.6-24.6c-7.8-4.2-13.4,0.4-14.8,2.3c-2.3-2.5-9-6.9-15.7-2.7C60.5-21,62-12,69.1-0.1c-12.5-5.5-23-6.9-26,2.6
		c-3,9.5,3.4,12.7,4.4,13.4c-2.8,3.2-4.9,9-1.2,14.7c3.7,5.7,13.4,8.8,30.9-9c2.3-2.1,1.9-0.4,1.9,0.5c-0.3,4.3-1.4,9.2-3.6,13.9
		c-3.3,7-9.2,13.5-18.7,17C54.4,55.7,58.7,59.4,58.7,59.4z"/>
</g>
</svg>
