<?xml version="1.0" encoding="utf-8"?>
<!-- Generator: Adobe Illustrator 19.1.0, SVG Export Plug-In . SVG Version: 6.00 Build 0)  -->
<!DOCTYPE svg PUBLIC "-//W3C//DTD SVG 1.1//EN" "http://www.w3.org/Graphics/SVG/1.1/DTD/svg11.dtd">
<svg version="1.1" xmlns="http://www.w3.org/2000/svg" xmlns:xlink="http://www.w3.org/1999/xlink" x="0px" y="0px"
	 viewBox="33 -33 100 100" enable-background="new 33 -33 100 100" xml:space="preserve">
<g id="AREA_3">
	<g>
		<g>
			<g>
				<g>
					<path fill="none" stroke="#004D86" stroke-width="4.9615" stroke-linejoin="round" stroke-miterlimit="10" d="M106.2-26.5
						c3,7,6.1,14.3,9,21.4L115-4.9c-5.1-4.8-11.2-8-17.8-9.8v0.4c2.2,4.5,4,9.3,4.2,14.6c0.2,2.4,0.2,5,0.3,7.3
						c-2-2.7-4-5.5-5.9-8.2C95.4-0.6,95-0.3,95,0l6.7,10.4c-0.4,4.5-1.6,8.9-2.9,13.1c-1.8-5.4-3.2-11-5-16.4L93,7.7
						c1.7,6.1,3.5,12.1,5.2,18.1c-1,3.5-2.5,6.8-4.9,9.7c-0.4-2.1-0.5-4.2-0.9-6.3L90,11.5L90,11.4l-1,1.2l3,23.3
						c0,0.7,0.3,1.4,0.2,2.1c-1.2,2.4-2.8,4.6-4.8,6.6c-0.7-9.3-1.3-17.1-1.9-26.5c-0.3,0-0.7,0.2-1.1,0.4L86,45l0.1,1.1
						c-1.6,2.5-3.4,4.9-5.7,6.8l0.1-31.9l-1.1,0.6c0,0.3-0.4,32.7-0.4,32.7l-8.4,8.4l-0.3-0.4c0.7-1.9,2.2-3.9,2.7-6
						c0.6-2.3,0.6-5,0.7-7.6V-1.3v-25.2l24.6-0.1H106.2L106.2-26.5z"/>
					<path fill="none" stroke="#004D86" stroke-width="4.9615" stroke-linejoin="round" stroke-miterlimit="10" d="M72-16.5
						c-3.5-0.4-7.5,1.3-10.3-1c0.2-0.5,0.4-1.1,0.7-1.6c-1.9-0.2-3.8,0.3-5.6,0.4l-0.2-0.2c0.2-0.3,0.3-0.6,0.5-1
						c1.3-2.4,3.9-3.6,6.5-3.9c1.7-1.8,4.6-1.6,6.6-1.9l1.7-0.3l0,0L72-16.5L72-16.5L72-16.5z"/>
				</g>
			</g>
			<g>
				<g>
					<path fill="none" stroke="#004D86" stroke-width="4.9615" stroke-linejoin="round" stroke-miterlimit="10" d="M71.9-10.2
						c-4.5,2.7-9.2,5.4-13.8,8.1c-1.2-0.4-6.9,1.1-3.7,5.4l0.2-0.1c1.2-5.3,6.5-2.6,4,1l0.1,0.3c0.9-0.2,1.9-0.4,2.4-1.3
						c0.8-1.3-0.5-3.7,0.1-4c1.4-0.9,3-1.2,4.5-1.7c2.1-0.8,4.4-0.1,6.2,1.1L71.9-10.2z"/>
				</g>
			</g>
		</g>
	</g>
</g>
<g id="AREA_2">
	<g>
		<g>
			<g>
				<g>
					<path fill="none" stroke="#FDBB2D" stroke-width="2.4807" stroke-miterlimit="10" d="M106.2-26.5c3,7,6.1,14.3,9,21.4L115-4.9
						c-5.1-4.8-11.2-8-17.8-9.8v0.4c2.2,4.5,4,9.3,4.2,14.6c0.2,2.4,0.2,5,0.3,7.3c-2-2.7-4-5.5-5.9-8.2C95.4-0.6,95-0.3,95,0
						l6.7,10.4c-0.4,4.5-1.6,8.9-2.9,13.1c-1.8-5.4-3.2-11-5-16.4L93,7.7c1.7,6.1,3.5,12.1,5.2,18.1c-1,3.5-2.5,6.8-4.9,9.7
						c-0.4-2.1-0.5-4.2-0.9-6.3L90,11.5L90,11.4l-1,1.2l3,23.3c0,0.7,0.3,1.4,0.2,2.1c-1.2,2.4-2.8,4.6-4.8,6.6
						c-0.7-9.3-1.3-17.1-1.9-26.5c-0.3,0-0.7,0.2-1.1,0.4L86,45l0.1,1.1c-1.6,2.5-3.4,4.9-5.7,6.8l0.1-31.9l-1.1,0.6
						c0,0.3-0.4,32.7-0.4,32.7l-8.4,8.4l-0.3-0.4c0.7-1.9,2.2-3.9,2.7-6c0.6-2.3,0.6-5,0.7-7.6V-1.3v-25.2l24.6-0.1H106.2
						L106.2-26.5z"/>
					<path fill="none" stroke="#FDBB2D" stroke-width="2.4807" stroke-miterlimit="10" d="M72-16.5c-3.5-0.4-7.5,1.3-10.3-1
						c0.2-0.5,0.4-1.1,0.7-1.6c-1.9-0.2-3.8,0.3-5.6,0.4l-0.2-0.2c0.2-0.3,0.3-0.6,0.5-1c1.3-2.4,3.9-3.6,6.5-3.9
						c1.7-1.8,4.6-1.6,6.6-1.9l1.7-0.3l0,0L72-16.5L72-16.5L72-16.5z"/>
				</g>
			</g>
			<g>
				<g>
					<path fill="none" stroke="#FDBB2D" stroke-width="2.4807" stroke-miterlimit="10" d="M71.9-10.2c-4.5,2.7-9.2,5.4-13.8,8.1
						c-1.2-0.4-6.9,1.1-3.7,5.4l0.2-0.1c1.2-5.3,6.5-2.6,4,1l0.1,0.3c0.9-0.2,1.9-0.4,2.4-1.3c0.8-1.3-0.5-3.7,0.1-4
						c1.4-0.9,3-1.2,4.5-1.7c2.1-0.8,4.4-0.1,6.2,1.1L71.9-10.2z"/>
				</g>
			</g>
		</g>
	</g>
</g>
<g id="AREA_1">
	<g>
		<g>
			<g>
				<g>
					<path fill="#720018" d="M106.2-26.5c3,7,6.1,14.3,9,21.4L115-4.9c-5.1-4.8-11.2-8-17.8-9.8v0.4c2.2,4.5,4,9.3,4.2,14.6
						c0.2,2.4,0.2,5,0.3,7.3c-2-2.7-4-5.5-5.9-8.2C95.4-0.6,95-0.3,95,0l6.7,10.4c-0.4,4.5-1.6,8.9-2.9,13.1c-1.8-5.4-3.2-11-5-16.4
						L93,7.7c1.7,6.1,3.5,12.1,5.2,18.1c-1,3.5-2.5,6.8-4.9,9.7c-0.4-2.1-0.5-4.2-0.9-6.3L90,11.5L90,11.4l-1,1.2l3,23.3
						c0,0.7,0.3,1.4,0.2,2.1c-1.2,2.4-2.8,4.6-4.8,6.6c-0.7-9.3-1.3-17.1-1.9-26.5c-0.3,0-0.7,0.2-1.1,0.4L86,45l0.1,1.1
						c-1.6,2.5-3.4,4.9-5.7,6.8l0.1-31.9l-1.1,0.6c0,0.3-0.4,32.7-0.4,32.7l-8.4,8.4l-0.3-0.4c0.7-1.9,2.2-3.9,2.7-6
						c0.6-2.3,0.6-5,0.7-7.6V-1.3v-25.2l24.6-0.1H106.2L106.2-26.5z"/>
					<path fill="#720018" d="M72-16.5c-3.5-0.4-7.5,1.3-10.3-1c0.2-0.5,0.4-1.1,0.7-1.6c-1.9-0.2-3.8,0.3-5.6,0.4l-0.2-0.2
						c0.2-0.3,0.3-0.6,0.5-1c1.3-2.4,3.9-3.6,6.5-3.9c1.7-1.8,4.6-1.6,6.6-1.9l1.7-0.3l0,0L72-16.5L72-16.5L72-16.5z"/>
				</g>
			</g>
			<g>
				<g>
					<path fill="#720018" d="M71.9-10.2c-4.5,2.7-9.2,5.4-13.8,8.1c-1.2-0.4-6.9,1.1-3.7,5.4l0.2-0.1c1.2-5.3,6.5-2.6,4,1l0.1,0.3
						c0.9-0.2,1.9-0.4,2.4-1.3c0.8-1.3-0.5-3.7,0.1-4c1.4-0.9,3-1.2,4.5-1.7c2.1-0.8,4.4-0.1,6.2,1.1L71.9-10.2z"/>
				</g>
			</g>
		</g>
	</g>
</g>
</svg>
