<?xml version="1.0" encoding="utf-8"?>
<!-- Generator: Adobe Illustrator 19.1.0, SVG Export Plug-In . SVG Version: 6.00 Build 0)  -->
<!DOCTYPE svg PUBLIC "-//W3C//DTD SVG 1.1//EN" "http://www.w3.org/Graphics/SVG/1.1/DTD/svg11.dtd">
<svg version="1.1" xmlns="http://www.w3.org/2000/svg" xmlns:xlink="http://www.w3.org/1999/xlink" x="0px" y="0px"
	 viewBox="33 -33 100 100" enable-background="new 33 -33 100 100" xml:space="preserve">
<g id="AREA_3">
	<path fill="#720018" stroke="#004D86" stroke-width="1.7072" stroke-linejoin="round" stroke-miterlimit="10" d="M127.6,20.7
		c-0.1-0.9-1.3-2.4-2.5-2.3c-0.7,0-1.4,0.7-1.6,1.4c-0.1,0.4,0,1-0.1,1.5c-0.3,1.1-1.6,1.5-2.5,2.2c-0.6,0.5-0.7,1-1.3,1.3
		c-1.7,0.5-2.9,1.4-4.9,1.2c-1.8-0.2-3.2-1.8-3.5-3.6c-0.1-0.4,0-0.7,0-1.1c-0.1-1.1-0.6-2.3-0.6-3.6c0-1,0-1.8,0-2.7
		c0-0.5,0.1-1,0.1-1.5c0-0.3-0.2-0.6-0.1-0.8c0-0.2,0.2-0.4,0.2-0.6c0-0.3-0.1-0.6-0.1-0.8c0.1-0.4,0.3-0.9,0.4-1.3
		c0.2-0.4,0.5-0.8,0.6-1.2c0.3-0.9,0.1-1.9,0.4-2.8c0.2-0.6,1-1,1.3-1.7c0.1-0.3,0.1-0.7,0.2-1c0.2-0.5,0.7-0.8,0.8-1.3
		c0.3-1.1,0.3-2.5,0.6-3.7c0.3-1.2,1-2.3,1-3.4c0-1.5-1-2.5-2.2-2.8c-0.7-0.1-1.4,0.1-1.9,0.1c-1.7-0.1-3.1-1.4-5.4-1
		c-0.7-0.3-1.2-0.9-2.1-0.9c-0.6,0-0.9,0.6-1.3,1c-0.4,0.5-0.9,0.8-1.2,1.3c-0.3,0.5-0.7,1.2-1,1.9c-0.4,0.9-0.4,2-0.8,3
		c-0.4,1.1-1.3,1.9-1.5,2.8c-1,0.4-1.3,1.3-2.4,1.5c-1.1,0.2-2.5-0.6-3.9-0.5c-0.8,0-1.5,0.3-2.4,0.3c-0.5-0.7-1.1-1.3-1.6-2
		C88.1-1,87.7-2,87.2-2.5c-0.4-0.4-1.1-0.5-1.6-0.9c-0.7-0.5-1-1.3-1.7-1.6c-0.3-0.1-0.7-0.1-1-0.2c-0.2-0.1-0.4-0.3-0.7-0.5
		C81.5-6.3,81-7,80.4-7.5c-1.2-1-2.6-1.5-4.1-2.2c-0.6-0.3-1.1-0.8-1.8-1c-0.3-0.1-0.7,0-1-0.1c-0.3-0.1-0.6-0.4-1-0.5
		c-0.7-0.2-1.7,0-2.7-0.1c-0.6,0-1.3-0.3-1.9-0.4c-3-0.3-5.8,0.2-8.1,0.7c-0.4,0.1-0.8,0.4-1.3,0.4c-0.5,0.1-0.9,0-1.3,0
		c-1.2,0.1-2.2,0.8-3.2,1.2c-0.3,0.1-0.6,0.1-0.9,0.2c-0.5,0.2-1,0.7-1.6,1c-0.6,0.4-1.1,0.7-1.6,1.1c-0.9,0.7-2.1,1.7-2.7,2.6
		c-0.5,0.8-0.7,1.7-1,2.7c-0.3,0.8-1,1.4-1.3,2.1C44.2,2,44.3,3.9,43.9,6c-0.1,0.3-0.3,0.6-0.3,0.9c-0.2,1.1-0.2,3.1-0.1,4.4
		c0.1,0.5,0.3,1,0.3,1.5c0,0.7-0.2,1.2-0.1,1.8c0.1,0.9,0.6,1.8,0.5,2.8c-0.9,0.5-1.9,2-1.3,3.7c0.2,0.7,1,0.9,1.6,1.7
		c0.3,0.4,0.4,0.8,0.6,1.1c0.9,1,2.1,1.9,2.6,3.5c0.1,0.4,0,0.8,0.2,1.3c0.1,0.3,0.4,0.8,0.7,1.2c0.6,1.2,1.1,2.1,1.5,3.2
		c0.6,1.5,1,3.1,2.5,3.4c0.7,0.1,1.4-0.3,2-0.4c1.3-0.1,2.7,0.1,3.6-0.7c0.6-0.6,1.3-2.1,1.2-3.1c-0.1-0.5-0.5-0.9-0.7-1.4
		c-0.2-0.5-0.4-1.4-0.5-2.2c-0.1-0.8-0.4-1.5-0.5-2.2c-0.5-2.6,0.2-4.9,0.1-7.6c0.4,0.1,0.7,0.3,1,0.5c0,0-0.1,0.1,0,0.2
		c0.1,0.1,0.3,0,0.4,0.1c0.9,0.5,1.6,1.3,2.8,1.6c0.4,0.1,0.7,0,1.1,0.1c0.5,0.2,1,0.6,1.6,0.8c0.6,0.3,1.2,0.3,1.9,0.5
		c0.4,0.1,0.7,0.4,1.1,0.4c0.3,0,0.5-0.1,0.8-0.1c0.6,0,1.1,0.2,1.6,0.1c0.4-0.1,0.8-0.4,1.3-0.5c1-0.2,1.6,0,2.3-0.3
		c0.7-0.3,1.6-0.9,2.1-0.9c0.5,0,0.9,0.5,1.3,0.9c0.1,2.2,0.8,4,1.4,6.2c0.5,1.7,0.7,3.5,1.5,4.7c1.1,1.6,2.7,2.2,4.4,3.1
		c0.8,0.5,1.3,1.1,2.4,1.2c0.5,1.4,0.7,2.5,1.3,3.5c0.6,1,1.6,1.6,1.9,2.5c0.2,0.6,0.1,1.2,0.2,1.8c0.1,0.6,0.7,1.7,1,2.2
		c1,1.8,3,4.1,6.3,3.7c0.5-0.1,0.9-0.6,1.9-0.5c0.6,0.1,1,0.6,1.9,0.4c0.5-0.1,1.6-1,2.2-1.6c1.2-1.2,0.5-2.7,0.4-4.6
		c-0.1-3.8,0.2-8.4,0.1-11.9c0-1.3-0.4-2.6-0.3-3.7c1.3,0.5,1.1,2.7,3.1,2.5c1.8,1.3,4.9,2.2,7.8,2.2c2,0,4.6-0.6,6-1.5
		c0.5-0.3,0.9-1,1.5-1.4c0.4-0.2,0.9-0.4,1.1-0.6c0.3-0.2,0.4-0.7,0.6-0.9c0.9-0.9,1.9-1.4,2.8-2.1c0.1-0.6,0.7-1.2,0.9-2
		c0.2-1,0.1-2.2,0.1-3.4C127.5,21.7,127.7,21.2,127.6,20.7z M75.7,13.6c-1.7,0.6-3.4-0.1-5.1-0.2c-1.8-0.1-3.8,0.4-5.7,0.4
		c-2.1,0-4.1,0.2-5.8,0.3c-0.5,0-0.7,0.3-1.3,0.2c-0.5-2,0.8-3.5,0.7-5.5c1-1.2,1.4-2.8,2.5-3.9C62,5.2,62.7,5,63.6,5.3
		c0.5,0.2,1,0.6,1.6,0.7c0.3,0.1,0.7,0,1,0.1c0.9,0.2,1.8,0.8,2.7,1.2c0.5,0.2,1.1,0.3,1.6,0.5c0.7,0.4,1.1,1.2,1.9,1.3
		c0.8,1.5,2.5,2,3.7,3.1C75.9,12.7,75.8,13.2,75.7,13.6z"/>
</g>
<g id="AREA_2">
	<g>
		<path fill="#FDBB2D" d="M114.1,27.1c-0.6-0.4-1.6-0.4-2.5-0.2C112.3,27.1,113.4,27.6,114.1,27.1z"/>
		<path fill="#FDBB2D" d="M125.4,20.7c0.1-0.4,0.6-0.4,1-0.5c-0.3-0.2-0.4-0.7-0.7-0.7c-1.1-0.2-1,0.8-1,1.4
			c-0.1,1.7-1.3,2.8-2.7,3.4c-1.2,2.1-3.9,2.7-6.9,3.1c-0.3,0.4-0.8,0.4-1,0.8c-0.1-0.1-0.2-0.4-0.4-0.1c0.2,0.1,0.3,0.8-0.1,0.7
			c0-0.3-0.1-0.5-0.1-0.7c-0.5,0.2-0.9-0.3-1.5-0.1c0,0.2,0,0.4-0.1,0.4c-0.3-0.2-0.2-0.8-0.7-0.7c0.1,0.2,0.1,0.5-0.1,0.7
			c-0.2,0-0.1-0.2-0.2-0.2c0.1,0.5,0,1.3,0.1,1.8c0.1-0.1,0-0.4,0.3-0.4c0.2,0.7-0.2,1.5-0.4,1.9c0.6,0,0.6-0.7,1.1-0.8
			c0,0.3,0,0.6-0.1,0.8c0.5,0.1,0.3-0.8,0.8-0.5c0-0.3,0-0.7,0.1-1c0.3,0.5,0,1.1,0,1.6c0.3,0.3,1.3-0.1,1.6,0.3
			c0-0.5-0.1-1.2,0-1.5c0.4,0.2,0.2,1.1,0.5,1.4c0.2-0.2,0.1-0.4,0.4-0.3c0.1-0.6-0.4-1.2,0.2-1.3c0.2,0.4-0.1,1.3,0.4,1.3
			c0.1,0,0.1-0.1,0.2-0.1c0.2-0.2-0.1-0.9,0.2-1c0.1,0.1,0.1,0.3,0.1,0.4c0.3,0.1,0.1-0.4,0.3-0.4c0.4,0.2,0.2,0.8,0.8,0.7
			c0.9-0.1,0.1-1.9,0.4-2.6c0.4,0.5,0.3,1.4,0.5,2.1c0.1,0,0.2,0,0.4,0c0.5-0.8-0.2-1.9,0-2.7c0.3,0.6,0.5,1.3,0.4,2.2
			c0.5-0.2,0.1-1.4,0.5-1.8c0.4,0.4-0.1,1.3,0.1,1.6c0.7-0.5,1.3-0.9,1.8-1.6c0.1-0.4-0.2-1.1,0.1-1.2c0.4,0.4,0.9,1.4,1.5,0.6
			c0-0.4-0.4-0.5-0.4-0.9c0-0.1,0.1-0.2,0.2-0.2c0.1,0.1,0.5,0.1,0.7,0.1c0.2-0.2-0.2-0.3-0.1-0.7c0.2-0.3,0.6-0.3,0.8-0.4
			c-0.1-0.2,0.1-0.2,0.1-0.4c-0.2-0.3-0.7-0.4-0.7-0.9c0.6-0.1,0.6,0.3,1.1,0.4c0.8-0.4,0.1-1.2-0.1-1.6c0.4,0,0.5,0.4,0.8,0.5
			c0.5-0.5-0.4-0.6-0.4-1c0.3-0.3,0.5,0.1,0.9,0.1c0.4-0.6-0.4-1-0.3-1.3c0.4-0.1,0.4,0.3,0.7,0.1c0-0.3,0-0.7-0.1-0.9
			C126.2,20.5,125.6,20.8,125.4,20.7z"/>
		<path fill="#FDBB2D" d="M110.8,2.2C110.8,2.2,110.7,2.2,110.8,2.2C110.7,2.2,110.8,2.2,110.8,2.2z"/>
		<path fill="#FDBB2D" d="M111.7,25.5c-0.8,0-1.4-0.2-2.1,0C109.8,25.9,111.4,26,111.7,25.5z"/>
		<path fill="#FDBB2D" d="M110.2,11.6c-0.2,0.3-0.9,0.6-0.8,1C109.5,12.1,110.2,11.9,110.2,11.6z"/>
		<path fill="#FDBB2D" d="M108.8,24.7c0.4,0.1,1.2,0.1,1.6-0.1C109.9,24.6,109.3,24.4,108.8,24.7z"/>
		<path fill="#FDBB2D" d="M109.9,26.8c-0.6,1.2,0.2,2.4-0.1,3.8c0.9-0.7,0.1-2.5,0.4-3.7C110.1,26.9,110.1,26.7,109.9,26.8z"/>
		<path fill="#FDBB2D" d="M109.4,21c0.1,0.1,0.5,0.1,0.5-0.1C109.7,21,109.4,20.9,109.4,21z"/>
		<path fill="#FDBB2D" d="M109.9,23.4c0.3,0.1,0.6-0.2,0.7,0.1c0,0.5-0.6,0.3-0.9,0.4c-0.1,0-0.5,0-0.2,0.1c0.1,0,0.1,0,0.2,0
			c0.4-0.1,0.7-0.1,1.1,0c0.1-0.3,0.1-0.7-0.1-0.9C110.4,23.1,110.1,23.3,109.9,23.4z"/>
		<path fill="#FDBB2D" d="M109.9,19.9c-0.1-0.1-0.7-0.1-0.8,0C109.3,20,109.8,20.4,109.9,19.9z"/>
		<path fill="#FDBB2D" d="M109.1,13.7c0.3,0,0.8-0.3,0.4-0.5C109.4,13.3,109.1,13.4,109.1,13.7z"/>
		<path fill="#FDBB2D" d="M108.9,26.4c-0.3,1.4,0.3,3.3-0.4,4.5c1.1,0.1,0.7-0.9,0.7-1.5c0-1-0.1-2.2,0.1-3
			C109.2,26.5,109.2,26.3,108.9,26.4z"/>
		<path fill="#FDBB2D" d="M108.6,26.5c-0.6,1.2-2,3-0.9,4.2c0.7-0.3,0.5-1.3,0.6-2.4C108.4,27.4,108.8,26.7,108.6,26.5z"/>
		<path fill="#FDBB2D" d="M108.2,25.4c0,0.4-0.3,0.8-0.2,1C108,26.1,108.8,25.6,108.2,25.4z"/>
		<path fill="#FDBB2D" d="M107.7,11c-0.4-1-0.9-1.8-1.4-2.6C106.7,9.3,106.4,11.2,107.7,11z"/>
		<path fill="#FDBB2D" d="M107.7,26.7c-0.4,0.9-1.7,2-1,3.2C107,28.8,107.9,27.8,107.7,26.7z"/>
		<path fill="#FDBB2D" d="M106.3,8.3c-0.1-0.3-0.1-0.6-0.4-0.7C106,7.9,106.2,8.1,106.3,8.3z"/>
		<path fill="#FDBB2D" d="M106.7,7.2c0.3,0.4,0.5,1,0.8,1.5c0.2,0.3,0.4,1,0.9,1c-0.3-1.8-1.2-2.9-2.1-4.1c-1.2-0.2-1.9-1.3-3.1-1.3
			c0.9,0.3,1.3,0.9,1.9,1.5C105.7,6.4,106.3,6.8,106.7,7.2z"/>
		<path fill="#FDBB2D" d="M101.5,46.4c0.5,0.3,0.7-0.1,1.3-0.1C102.7,45.9,101.8,46.3,101.5,46.4z"/>
		<path fill="#FDBB2D" d="M102.6,18c0,0.2-0.5,0.5-0.3,0.7C102.4,18.4,102.9,18.3,102.6,18z"/>
		<path fill="#FDBB2D" d="M101.6,47.7c0,0.2-0.4,0-0.3,0.3C101.6,48.1,101.8,47.8,101.6,47.7z"/>
		<path fill="#FDBB2D" d="M101.8,34.6c-0.1,0-0.3,0-0.3-0.1c0-0.3,0.2-0.4,0.2-0.7c-0.2,0-0.3,0.3-0.4,0c0.1-0.7,0.2-1.6-0.1-2.4
			c-0.2,0.5-0.3,1.1-0.8,1.3c0.3-0.5,0.7-1.2,0.7-1.8c-0.3,0.5-0.5,1.1-0.8,1.6c0.2,2.1,0.1,4.6,0.2,6.7c0,0.5-0.3,1.2,0.2,1.5
			C102.1,39.2,101.1,36.5,101.8,34.6z"/>
		<path fill="#FDBB2D" d="M100.5,27.1c0.2-0.3,0.4-0.7,0.6-1C100.8,26.3,100.5,26.9,100.5,27.1z"/>
		<path fill="#FDBB2D" d="M100.7,25.9c0.2-0.2,0.3-0.5,0.4-0.7C100.9,25.2,100.7,25.7,100.7,25.9z"/>
		<path fill="#FDBB2D" d="M100.1,25.4c0,0.3,0.1,0.5,0.2,0.7c0.2-0.4,0.5-1,0.5-1.3C100.6,25,100.4,25.3,100.1,25.4z"/>
		<path fill="#FDBB2D" d="M100.5,26.2c-0.1,0.3-0.5,0.5-0.4,0.7C100.2,26.8,100.7,26.2,100.5,26.2z"/>
		<path fill="#FDBB2D" d="M97.8,46.7c0.4,0.8,0.8,1.6,1.3,2.2C99,47.9,98.4,47.2,97.8,46.7z"/>
		<path fill="#FDBB2D" d="M96.4,45.4c0.1,0.4,0.2,0.8,0.1,1.2c0.2-0.1,0.3,0.3,0.4,0.5c0-0.1,0-0.2,0.1-0.1c0.1,0.1,0.1,0.3,0.1,0.5
			c1,0.3,0.7,1.9,1.8,2c-0.4-1.3-1.7-1.7-1.9-3.3c0-0.3,0.5-0.1,0.4-0.4c-0.2-0.3-0.2,0.2-0.6,0.1C96.7,45.8,96.6,45.6,96.4,45.4
			c0-0.3,0.1-0.6,0.3-0.8c1.8-0.3,2.6,1.5,4.2,1.5c-1.4-0.7-2.6-1.5-4.2-2.1C96.2,44.3,96.3,44.9,96.4,45.4z"/>
		<path fill="#FDBB2D" d="M96.2,45.9c0,0.2-0.1,0.3-0.1,0.6C96.3,46.5,96.4,45.9,96.2,45.9z"/>
		<path fill="#FDBB2D" d="M95.8,45.3c-0.2-0.1-0.4,0.1-0.4-0.1c0-0.2-0.1-0.5,0-0.8c0-0.2,0.1-0.4,0.3-0.4c0,0.2,0,0.5,0.2,0.4
			c0-0.6,0.2-1.1,0.4-1.5c0,0.2-0.2,0.6-0.1,0.7c0.2-0.3,0.3-0.5,0.5-0.7c0,0.1-0.2,0.4,0,0.4c0-0.3,0.1-0.1,0.2,0
			c0.3-0.2,0.2-0.7,0.5-0.8c-0.1,0.6,0.7,0,0.6,0.4c0.3,0.1,0.1-0.3,0.4-0.2c0,0.4,0.2,0,0.4,0.3c0.2-0.1,0.4-0.5,0.2-0.7
			c-0.1,0.1-0.1,0.3-0.3,0.3c-0.2-0.1,0.4-0.9,0.1-0.8c-0.1,0.1-0.1,0.3-0.2,0.3c0.4-1.4,0.1-4.3,0-6c0,0.1-0.1,0-0.1-0.1
			c0-0.4,0.3-1,0.2-1.2c-0.1,0.1-0.1,0.3-0.3,0.3c0.1-1.1,0.4-2,0.1-3c0,0.1-0.1,0.1-0.1,0c-0.1-0.4,0.2-0.8,0-1.1
			c-0.1,0.1,0,0.4-0.2,0.4c-0.1-0.5,0.2-0.6,0.1-1c-0.1,0-0.2,0.1-0.2,0c0.2-1.5-0.7-2.1-0.9-3.5c-0.1-0.8,0-1.8-0.1-2.5
			c0.2-0.6,0.7-1.3,0.4-1.9c0.1-0.1,0.2-0.4,0.4-0.4c0-1-0.2-2.3-1.3-2.7c0-0.1,0.1-0.2,0.1-0.3c-0.6-0.2-0.8-0.7-1.5-0.7
			c0.1-0.3-0.2-0.2-0.3-0.2c-0.3-0.1-0.5-0.7-0.9-0.6c0-0.4-0.2-0.4-0.6-0.4c0-0.1,0.1-0.2,0.1-0.3c-0.1-0.2-0.3,0.2-0.4-0.1
			c0-0.1,0.1-0.1,0.1-0.2c-0.2,0-0.2,0.2-0.4,0.1c-0.1-0.2,0.3-0.3,0.1-0.4c-0.2,0.1-0.4,0.3-0.6,0.2c0.1-0.3,0.4-0.3,0.4-0.7
			c-0.4,0.1-0.6,0.4-1,0.1c0,0.2-0.2,0.5-0.1,0.5c0.1-0.2,0.3-0.2,0.4-0.4c0.2,0.2-0.1,0.4-0.1,0.7c0.1,0,0.4-0.1,0.4,0.1
			c0,0.5-0.1,0.7-0.3,1c0.3,0,0.2-0.3,0.4-0.2c-0.2,0.4,0.2,0.5,0.1,1c0.2,0,0.3-0.2,0.4,0c-0.1,0.1-0.1,0.3-0.1,0.4
			c0.4-0.1,0.2,0.3,0.4,0.6c0.1-0.1,0.1-0.3,0.3-0.3c0,0.1,0.1,0.1,0.1,0.1c-0.2,0.3-0.2,0.4-0.1,0.8c0.2,0,0.3,0,0.3,0.1
			c0,0.2-0.1,0.8-0.1,1.1c0-0.1,0.2-0.4,0.3-0.1c-0.3,0.3-0.7,1.2-1.2,0.9c-0.1-0.1,0.2-0.2,0-0.3c0,0.2-0.5,0.4-0.6,0.3
			c0.1-0.2,0.3-0.5,0.2-0.6c0,0.1-0.2,0.4-0.3,0.2c-0.1-0.1,0.2-0.2,0-0.3c-0.3,0-0.3,0.4-0.5,0.5c-0.1-0.6,0.6-0.8,0.4-1.3
			c-0.2,0.1-0.2,0.4-0.4,0.4c0-0.5,0.5-0.6,0.3-1c-0.4,0-0.2,0.5-0.5,0.4c-0.1-0.5,0.4-0.6,0.2-0.9c-0.3,0.1-0.5,0.5-0.7,0.7
			c-0.1-0.6,0.5-0.5,0.4-1c-0.5,0.1-0.3-0.6-0.8-0.4c0.2-0.5-0.8-0.5-1.1-0.7c-0.5,0.4-1.2,0-1.6,0.4c-0.1-0.1-0.2-0.1-0.2-0.3
			c-0.3,0-0.4,0.4-0.7,0.4c0.1-0.5,0.9-0.6,0.7-1.1c-0.4,0.3-0.7,0.9-1.3,1.2c0.3-0.5,0.9-0.8,1.1-1.3c-0.4-0.1-0.4,0.1-0.7,0.1
			c-0.1-0.3,0.2-0.3,0.2-0.4c-0.4,0.1-0.4,0.4-0.8,0.4c0-0.1,0.1-0.2,0-0.2c-0.2,0.1-0.3,0.4-0.6,0.4c0.2-0.4,0.1-0.2-0.1-0.3
			c0.1-0.2,0.3-0.3,0.4-0.5c-0.5,0-0.6,0.5-1,0.6c-0.1-0.2,0.4-0.3,0.1-0.4c-0.1,0.1-0.4,0.5-0.5,0.4c0-0.2,0.2-0.2,0.2-0.4
			c-0.4,0-0.5,0.6-0.7,0.5c0-0.3,0.3-0.3,0.3-0.5c-0.3,0.1-0.4,0.3-0.7,0.4c0-0.1,0.4-0.3,0.2-0.4c-0.3,0.2-0.4,0.5-0.8,0.4
			c-0.1-0.2,0.3-0.2,0.1-0.3c-0.6,0.6-0.9,1.5-1.3,2.2c0.2,0.1,0.2-0.4,0.4-0.1c-0.1,0.2-0.2,0.3-0.3,0.5c0.3,0.2,1.2,1.1,1.8,0.5
			c0.9,0,1.5,0,2.2-0.2c0.1,0.3-0.2,0.3-0.1,0.6c0.4-0.1,0.4,0.5,0.7,0.1c0.1,0.1,0.1,0.3,0.1,0.4c0.1,0,0.3-0.2,0.4,0
			c0,0.1-0.1,0.2-0.1,0.3c0.2,0.2,0.2-0.1,0.4,0.1c-0.1,0.1-0.1,0.3,0,0.4c0.2,0.1,0.4-0.2,0.4,0c0,0.9,0.9,1.7,1.2,2.6
			c0.5-0.1,0.7-0.6,1.2-0.7c0,0.2-0.2,0.2-0.2,0.4c0.4-0.1,0.4-0.5,0.7-0.7c0.2,0.2,0.3,0.1,0.5,0c0,0.5,0.2-0.1,0.3,0.1
			c-0.2,0.2-0.1,0.3,0.1,0.3c-0.1,0.4-0.9,0.7-0.6,1c0.2-0.3,0.4-0.6,0.8-0.7c-0.2,0.4-0.5,0.5-0.7,0.9c0.4-0.1,0.4-0.6,0.8-0.7
			c-0.2,0.6-0.9,0.9-0.8,1.5c0.1-0.1,0.2-0.3,0.4-0.4c0.3,0.2-0.3,0.5-0.1,0.6c0-0.1,0.2-0.1,0.3-0.1c0,0.1-0.1,0.4,0.1,0.4
			c0.1-0.1,0.1-0.2,0.2-0.3c0,0.3-0.1,0.4-0.1,0.6c0.2,0,0.2,0,0.4,0c0,0.2,0,0.3,0.1,0.4c0.4,0,0.2,0.2,0.5,0
			c0.1,0.1-0.1,0.2,0,0.5c0.9,0.8,0.9,2.6,1.3,3.9c0.1,0.3,0.3,0.4,0.1,0.7c0.3,0,0,0.8,0.3,0.7c0,0.2-0.1,0.3-0.1,0.6
			c0.2,0.1,0.1-0.2,0.3-0.1c-0.2,0.5-0.1,1.5,0.2,1.6c-0.1,0.1-0.1,0.4-0.1,0.6c0.4,0,0.2-0.5,0.4-0.6c-0.2,0.9,0.2,1.3,0.3,2.5
			c0.2,0.1,0.1-0.2,0.3-0.1c0.1,0.3-0.1,0.7,0,0.7c0.4-0.2-0.2,0.9,0.3,0.7c0.1,0.4-0.2,1.2-0.1,1.2c0.1-0.2,0.1-0.6,0.3-0.7
			c0,0.7-0.2,1.3-0.4,1.9c-0.4-0.2-1.3-1.4-1.5-0.7c0.2,0-0.5,1.1,0,1.3c0-0.3,0-0.5,0.2-0.6c-0.1,0.3,0,0.8-0.1,1.1
			c0,0.1-0.1,0.2-0.2,0.2c0.1-0.3,0.1-0.4-0.1-0.6c-0.1,0.1,0,0.3-0.2,0.2c-0.3-0.5,0.1-1.2,0.1-1.6c-0.3,0.3-0.1,0.9-0.5,1
			c0-0.1,0-0.3-0.1-0.3c0,0.1,0,0.2-0.1,0.3c-0.2-0.1,0.2-0.5-0.1-0.6c0,0.1-0.1,0.2-0.3,0.1c0-0.2,0.1-0.2,0.1-0.4
			c-0.9,0-0.7,1-0.8,1.8c0.4-0.1,0.2,0.5,0.4,0.7c0-0.2,0-0.3,0.2-0.2c0,0.7,0.3,1.1,0.4,1.6c0-0.2-0.1-0.5,0.1-0.5
			c0.3,0.4,0,1.5,0.4,1.7c0.1-0.4-0.2-0.6,0.1-0.8c0.1,0.4,0,1.1,0.4,1.3c0-0.2-0.1-0.5,0.1-0.6c0.1,0.2,0.1,0.9,0.2,0.7
			c0-0.1-0.1-0.4,0.1-0.4c0.2,0.2,0.1,0.6,0.4,0.6c0.1-0.3-0.1-0.3-0.1-0.5c0.3,0.1,0.4,0.8,0.7,0.7c-0.2-0.3,0.2-0.1,0.3,0
			c0-0.2-0.1-0.2-0.1-0.4c0.3,0.2,0.3-0.5,0.6-0.1c0.1-0.4,0-0.9,0.2-1.2C95.8,45.9,95.8,45.6,95.8,45.3z M83,19.4
			c0.3-0.3,0.6-0.6,1.1-0.7C83.8,18.9,83.5,19.2,83,19.4z M84.6,18.6c-0.2,0.4-0.7,0.7-1.1,0.9C83.7,19,84.1,18.8,84.6,18.6z
			 M84.9,18.7c-0.3,0.3-0.6,0.6-0.9,0.8C84,19.3,84.4,18.8,84.9,18.7z M84.6,19.4c0-0.3,0.6-0.7,1-0.9C85.5,18.9,84.9,19,84.6,19.4z
			 M85.5,19.2c-0.2,0,0.5-0.3,0.5-0.5C86.2,18.9,85.7,19,85.5,19.2z M92.2,23.4c-0.2-0.2,0.2-0.4,0.2-0.6
			C92.5,23,92.2,23.2,92.2,23.4z M93.7,22.6C93.7,23.2,93.2,22.6,93.7,22.6L93.7,22.6z M96.3,41.1c0.3,0.1,0,0.6-0.1,0.7
			C96.1,41.7,96.3,41.3,96.3,41.1z M96,40.6c0.1,0.3,0,1-0.3,1.1C95.7,41.3,95.8,40.9,96,40.6z M94,43.3c0-0.1,0-0.3,0.1-0.4
			c0.1-0.2,0.2-0.3,0.2-0.5c0.1,0.1,0,0.3,0,0.4C94.2,43.1,94.1,43.2,94,43.3z M94.5,44.3c0-0.5,0.1-0.9,0.1-1.3
			c0.1,0.1,0.2,0.4,0.1,0.6C94.7,43.9,94.6,44.2,94.5,44.3z M95.2,44.9c-0.4,0,0-0.8-0.4-0.7c0.1-0.2,0.1-0.5,0.1-0.7
			c0-0.1,0-0.2,0.1-0.3c0.3,0.2,0.3,0.6,0.3,1.1C95.2,44.6,95.2,44.8,95.2,44.9z"/>
		<path fill="#FDBB2D" d="M90.4,16.2c-0.2,0-0.2,0.1-0.2,0.3C90.4,16.5,90.5,16.3,90.4,16.2z"/>
		<path fill="#FDBB2D" d="M91.6,30.4c0.2-0.3-0.2-0.4,0-0.7c-0.3,0.1-0.2-0.2-0.2-0.4c-0.4,0.1-0.1-0.5-0.4-0.1c0-0.1,0-0.3,0-0.4
			c-0.1,0-0.2,0.1-0.3,0.1c0.2-0.4-0.4-0.2-0.4-0.6c-0.6,0.1-0.7,0.4-1.2,0.7c-0.1-0.3,0.3-0.4,0.1-0.5c-0.3,0.4-0.7,1-1.1,1
			c0-0.4,0.6-0.5,0.5-0.7c-0.5,0.3-0.6,1-1.2,1.1c0.1,0.4-0.4,0.9-0.3,1.3c0-0.1,0.3-0.3,0.3-0.1c-0.1,0.4-0.8,1.2-0.3,1.3
			c0,0.5-0.3,1-0.1,1.3c0.1-0.1,0.2-0.6,0.4-0.4c-0.2,0.8,0.2,0.7,0.1,1.4c0-0.2,0.1-0.4,0.4-0.4c-0.2,0.5,0.1,0.5,0.1,0.7
			c0.2,0.7,0.4,0.6,1,0.7c0.5,0.1,1.2,0.1,1.9,0c0,0.1,0,0.2-0.1,0.2c0.4-0.2,0.7-0.4,1.1-0.6C91.9,33.4,92.3,31.4,91.6,30.4z"/>
		<path fill="#FDBB2D" d="M85.8,24.8c0,0.2-0.2,0.4,0.1,0.4C85.9,25.1,86,24.8,85.8,24.8z"/>
		<path fill="#FDBB2D" d="M85.5,24.3c0,0.2-0.2,0.4,0.1,0.4C85.6,24.6,85.7,24.2,85.5,24.3z"/>
		<path fill="#FDBB2D" d="M83.8,23.2c0.5,0.4,0.8,0.9,1.4,1.2C85.4,23.6,84.5,23,83.8,23.2z"/>
		<path fill="#FDBB2D" d="M83.9,27.4C83.9,27.4,84,27.4,83.9,27.4c0.1,0.2,0.2,0.2,0.2,0.2c0-0.1,0.1-0.2,0.1-0.2
			c0.1,0.2,0.2,0.2,0.4,0.3c0.4-0.2,1.4-0.5,1-1C85.4,27.2,84.5,27.2,83.9,27.4z"/>
		<path fill="#FDBB2D" d="M82.3,14c0.3,0.1,0.4,0.4,0.7,0.4C83,14.1,82.4,13.7,82.3,14z"/>
		<path fill="#FDBB2D" d="M79.6,12.5c2.4,0.1,3.8,1.2,5,2.4c-0.1,0.2-0.2,0.2-0.1,0.4c2,0.4,2.7-1.1,3.7-1.9c-0.1-0.3,0.2-0.6,0-0.8
			c-0.4,0.8-1,2.2-2.1,1.9c0-0.5,0.4-0.5,0.4-0.8c-0.9,0-1.1-0.7-1.3-1.3c-0.6,0.2-1.1,0-1.6,0.1c0,0.5,0.5,0.9,0.4,1.2
			C83.2,12.7,81.3,11.9,79.6,12.5z M85.4,14.3c-0.3,0.3-1-0.1-1.1-0.4C84.7,13.8,85.4,14,85.4,14.3z"/>
		<path fill="#FDBB2D" d="M77.9,12.6c0.4,0.6,1.8,0.7,2.7,0.5C79.6,13.1,78.9,12.5,77.9,12.6z"/>
		<path fill="#FDBB2D" d="M77.8,10.2c0.2,0.3,1,0.4,1.3,0.3C78.7,10.4,78.2,10,77.8,10.2z"/>
		<path fill="#FDBB2D" d="M77.7,16.5c-0.2,0.3-0.5,0.5-0.7,0.8c0.4-0.1,0.5-0.3,0.8-0.4C77.8,16.7,78,16.4,77.7,16.5z"/>
		<path fill="#FDBB2D" d="M78,14c-0.5-0.2-0.5-0.9-1-0.8c-0.1,0.3,0.1,0.3,0.4,0.3c0.8,0.8,2,1.7,3.6,1.4C80.3,14.1,78.9,14.4,78,14
			z"/>
		<path fill="#FDBB2D" d="M105,7.7c-0.7-0.8-1.9-1-2-2c-0.5-0.3-1-0.6-1.3-1c1.4,0.3,2.1,1.4,3.3,1.9c-0.9-2.2-4.1-2.2-5.4-4.2
			c0.9,0.2,1.5,1,2.2,1c-0.3-0.2-0.7-0.3-0.7-0.7c0.9,0.3,1.7,0.9,2.5,1.3c0.9,0.4,1.9,0.7,2.7,1.2c1.4,1,1.4,3,2.8,4
			c-0.5-2-1.6-3.3-2.4-5c0.1,0,0.1-0.1,0.1-0.1c1.6,0.8,2,2.9,2.9,4.5c0.6-0.7,0.1-1.9-0.2-2.6c-0.4-0.9-1.1-1.5-1.2-2.2
			c1.2,0.4,1.4,1.8,2.1,2.8c1.5-0.6-0.9-2.4-1-3c0.8,0.2,1,1,1.7,1.3c0.5-1.1-1.1-1.6-1.1-2.4c0.7,0.3,0.9,1.1,1.5,1.6
			c0.2,0,0.2-0.2,0.4-0.2c-0.3-1.5-2-1.6-2.7-2.8c0.7,0.2,1,1,1.6,1.1c-0.1-0.1-0.2-0.3,0-0.3c0.8,0.1,0.9,1.1,1.6,1.3
			c0.5-0.1,0.3-0.8,0.6-1c-0.9-0.9-1.9-1.7-2.7-2.6c0.7,0.1,1.3,0.4,1.9,0.9c0.5,0.4,0.9,1.3,1.6,1c-0.4-1-1.9-1.1-1.9-2.2
			c0.6,0.5,1.6,0.6,2.2,1.3c0.1-0.9-0.7-0.9-0.9-1.6c0.5,0,0.5,0.5,0.9,0.5c0.1-0.4-0.4-0.6-0.3-0.8c0.3,0,0.3,0.2,0.5,0.2
			c0.2-0.2-0.1-0.3-0.1-0.6c0.2-0.1,0.3,0.3,0.3,0c0-0.3-0.3-0.4-0.3-0.7c0.2-0.1,0.2,0.1,0.3,0.1c0-0.3-0.2-0.4-0.1-0.7
			c-0.6-0.3-1.4-0.4-1.7-0.9c0.9,0.1,1.5,0.6,2.2,0.9c0.5-0.8,0.9-2.9,0.1-3.4c-0.4-0.3-1.8-0.3-2.5-0.4c-0.9-0.1-2.1-0.4-3.6-0.6
			c-1.5-0.2-3.1-0.5-3.9-1.1C104-8,103.7-7.2,103-6.8c-0.1,1.1-1.1,2-1.2,3.1c-0.1,0.9-0.7,2.4-1,3c-0.2,0.4-0.7,0.6-0.8,1
			c-0.1,0.3-0.1,0.6-0.2,0.8c-0.4,0.6-1.4,0.8-1.7,1.3c0.9,0.5,2.2,1,2.2,2.1c-1-0.3-1.5-1.6-2.8-1.6c-0.2,0-0.4,0.1-0.7,0.1
			c-0.7,0-1.3-0.3-2.1-0.4c-1.5-0.2-3.1,0.1-4.6,0.1c0.1,1.3,0.6,3.1,0.1,4C90,6,90,5.3,89.9,4.9c-0.2,0.8-0.2,2.1-1,2.1
			c0.5-0.8,0.3-2.3,1-3c0-1.3-1-2.2-1.6-3c-0.2-0.3-0.4-0.8-0.6-1c-0.2-0.3-0.5-0.4-0.7-0.7c-0.1-0.2,0-0.5-0.1-0.7
			c-0.3-0.7-1-1-1.7-1.3c-0.6-0.6-0.8-1.4-1.6-1.7c-0.3-0.1-0.7,0-1-0.1c-0.6-0.2-0.7-1-1.3-1c-1.1-1.3-2-2.2-3.9-3
			C75.9-9,74.9-9.7,73.4-10c-0.3-0.1-0.6-0.4-0.9-0.5c-0.8-0.2-2,0-3-0.1c-0.5,0-0.9-0.2-1.3-0.3c-1.3-0.2-3-0.2-4.2-0.1
			c-1.8,0.2-3.4,0.8-4.8,1c-0.5,0.1-1,0-1.4,0c-1.5,0.1-2.5,0.9-3.4,1.3c-0.2,0.1-0.5,0-0.8,0.1C52.7-8.2,51-7,52.2-6.6
			c0.3-0.2,0.3-0.7,1-0.5c0.6-0.5,1.1-1.6,2.3-1c0.7-0.4,1.9,0,2.7-0.7c0.7,0.8,2.1-0.3,3,0.5c0,0.2-0.3,0.2-0.1,0.4
			c1.4,0.3,2.8,0.5,3.4,1.5c1.7,0.4,3.5,1.3,4.3,2.7c1.2,0.1,1.9,0.8,2.9,1.1c0.3-0.1,0.8-0.3,0.9,0.1c-0.1,0.3-0.6,0.3-0.8,0.5
			c0,0.4,0.3,0.5,0.5,0.7C73-1.1,73.4-2,73.8-1.6c0,0.3-0.3,0.3-0.5,0.4c0.3,0.4,0.5,0.9,1,1.1c0.7-0.2,1.1-1.4,1.8-1.1
			c-0.5,0.7-1.1,1.3-1.7,1.9c1,0.8,1.5-0.9,2.2-0.8c-0.1,0.8-0.8,1-1.2,1.5c0.8,0.1,1.5-0.5,1.9-1c0,0.1,0.2,0.1,0.2,0.2
			c-0.2,0.8-0.8,1.2-1.8,1.3C76,4.1,78,1.8,78.5,1.4c0,1.1-1,1.7-1.9,2.1c0.2,1.4,1.6,0.2,2.3,0.2c-0.1,0.6-1,0.4-1.3,0.8
			c0.4,0.1,0.5,0.6,0.9,0.7c0-0.1,0-0.3,0.1-0.3c0.4,0.2,0,0.6,0.1,0.8c0.7,0,1,0.7,1.6,0.3c0,0.3-0.4,0.3-0.4,0.7
			c0.3,0.4,0.9,0.3,1.4,0.4c0.3,0.1,0.4,0.3,0.7,0.2c0.9-0.1,0.7-1.7,1.6-1.5c-0.6,0.7-0.7,1.8-1.9,1.9c-0.5,1,0.2,1.9,1.4,1.7
			c1.3-0.3,0.7-2.5,1.6-3.2c-0.1,0.5,0.1,1.2,0,1.7c-0.1,1.1-1,1.6-1.5,2.2c0.6,0.3,0.7,1.1,1.6,1.1c0.3-0.2,0.6-0.3,1.1-0.4
			c0.4-0.5,0.4-1.4,1-1.8c0.1,1.6-1.1,1.9-1.2,3.3c0.3,0.5,1,0.7,1.6,0.3c0-0.1,0.2-0.2,0.2-0.4c0.2-0.7,0.1-2,0.7-2.4
			c0.3,0.5-0.3,1.1-0.1,1.4c0.3-0.3,0.5-0.7,0.8-0.9c0.3-0.7,0.3-1.6,0.9-1.9c0.1,1.3-0.7,2.4-1.4,3.2c0.2,0,0.3,0,0.3,0.2
			c-0.1,0.7-0.7,1.2-0.5,1.9c-0.3,1.1-1.2,1.6-2,2.2c1.6-0.1,2-1.4,2.5-2.5c0.4,0.2,0.4-0.2,0.7-0.4c0,0.1-0.1,0.2,0,0.2
			c0.2-0.2,0.5-0.6,0.7-0.5c-0.2,0.3-0.8,0.5-0.6,0.9c0.4,0.4,0.4-0.5,0.7-0.2c-0.1,0-0.2,0.2-0.1,0.2c0.1-0.1,0.1-0.3,0.4-0.2
			c0,0.1-0.3,0.3-0.1,0.4c0.2-0.2,0.4-0.5,0.7-0.6c0,0.3-0.5,0.4-0.3,0.7c0.3-0.2,0.4-0.5,0.9-0.4c0,0.1-0.1,0.2-0.2,0.1
			c0,0.3,0.3-0.2,0.5-0.1c0,0.1,0,0.2-0.1,0.3c0.4,0,0.6-0.5,0.9-0.4c0.1,0.2-0.3,0.3,0,0.3c1.1-0.2,1.5,1,2.3,0.6
			c0,0.6,0.9,0.3,0.7,0.7c0.2,0.1,0.2-0.1,0.4-0.1c0,0.1-0.1,0.1-0.1,0.2c0.4,0.1,0.6,0.2,0.9,0.1c0,0.1-0.1,0.2,0,0.2
			c0.1-0.1,0.4-0.4,0.5-0.2c0,0.2-0.3,0.1-0.3,0.3c0.7-0.1,0.7-0.1,1.3-0.2c-0.1,0.2-0.5,0.2-0.4,0.4c1.5-0.6,2.7-2,3.9-2.6
			c-0.1,0.2-0.4,0.4-0.4,0.7c0.6-0.4,1.2-0.8,2.1-1c0,0.1-0.1,0.2,0,0.2c0.3-0.2-0.2-0.8,0.3-0.9c0.2,0.1,0,0.4,0.2,0.4
			c0.2-0.1,0.2-0.4,0.4-0.4c0.4,0.1,0.4,0.6,0.7,0.7c0.3-1.1-0.3-2.1-0.7-3.1c-0.3-0.8-1-1.3-1-1.9c1.4,0.6,1.5,2.6,2.2,3.8
			c0.2-0.7-0.2-1.5-0.4-2.1C105.7,8.9,105.4,8.2,105,7.7z M112.1,2.5c-0.2-0.1-0.5-0.2-0.5-0.4C111.7,2.2,112,2.2,112.1,2.5z
			 M111.4,1.7c-0.2,0.3-0.6-0.3-0.7-0.5C111.2,1.2,111.2,1.5,111.4,1.7z M100.9,1.8c0.5-0.2,1.4,0.4,1.7,0.8
			C102,2.4,101.5,2.1,100.9,1.8z M105.9,3.3c-1.5-0.6-2.8-1.3-4.3-1.9c0,0-0.1,0-0.1-0.1c0,0,0.1,0,0.1,0.1c0.1,0,0.1-0.1,0.1-0.4
			c1.5,0.3,2.6,1.2,3.9,1.7C105.7,3,105.9,3,105.9,3.3z M104,1.6c1.1,0.2,2.7,0.5,3.4,1.4C106.4,2.7,104.9,2.3,104,1.6z M110.6,1.2
			c-1.8-1.2-5-0.9-6.9-1.9c0,0,0.1,0,0.1,0C106,0,109.6-0.6,110.6,1.2z M107.7-1.2c-0.8-0.2-1.8-0.3-2.5-0.4c-0.1,0-0.2,0-0.2-0.2
			c1.6,0.1,2.8,0.5,4.1,0.8C108.8-0.9,108.2-1.1,107.7-1.2z M109.7-0.2c-1.2-0.5-3-0.4-4.5-0.5C106.3-1.4,109-1.1,109.7-0.2z
			 M112.9-3.1c-1.1-0.2-1.8-0.9-2.8-1.1C111.1-4.5,112.2-3.6,112.9-3.1z M114.1-4.4c0,0.3,0.2,0.4,0.1,0.7c-1.6-0.9-4.2-1.8-6.6-2
			c-0.1,0-0.1,0-0.1-0.1C109.7-6.2,112.4-5.3,114.1-4.4z M106.9-5.6c-0.2,0.3-1.1,0-1.2-0.2C106.2-5.9,106.6-5.8,106.9-5.6z
			 M105.9-6.3c-0.6,0.2-1.4,0-1.9-0.1C104.3-6.9,105.7-6.7,105.9-6.3z M102.7-2.9c1.4,0,2.7,0.1,3.9,0.4c-1.1,0.3-2.2-0.1-3.5,0
			c0.1,0.3,0.7,0,0.7,0.4c-0.6,0.1-0.9-0.1-1.2-0.3C102.8-2.6,102.6-2.6,102.7-2.9z M103.7-1.1c-0.5,0-1.4-0.4-1.6-1
			C102.7-1.8,103.4-1.6,103.7-1.1z M103.4-0.3c-0.6,0.5-1.7-0.2-2.2-0.5C101.9-1,102.7-0.5,103.4-0.3z M102.2,0.3
			c1.8,0,3.8,0.7,5.4,1.3c0.3,0.6,0.8,1,1.3,1.4c-0.5,0.1-0.8-0.6-1.5-1c-0.5-0.3-1.4-0.5-2.2-0.7c-1.2-0.3-1.9-0.8-3.1-0.6
			c-0.4-0.4-1.4-0.3-1.5-1.1C101.1-0.1,101.7,0,102.2,0.3z M101.2,1.1c-0.4-0.2-1-0.2-1.2-0.7C100.6,0.4,101.1,0.5,101.2,1.1z
			 M87.5,7.8c-0.2-0.7,0.2-2.1,1-2.4C88.4,6.1,87.8,6.9,87.5,7.8z M90.1,8c0-0.3-0.2-0.7,0-1C90.4,7,90.4,8,90.1,8z M100.8,5
			c0.6,0.1,0.7,0.6,0.8,1.2C101.2,6,101.1,5.4,100.8,5z M104.3,11.6c-1-1.4-1.3-3.6-2.5-4.9c0-0.1,0.1-0.1,0.2-0.1
			C103.1,8,104.3,9.3,104.3,11.6z"/>
		<path fill="#FDBB2D" d="M77.6,15.8c-0.4-0.1-0.4,0.6-0.6,0.4c0-0.2,0.4-0.4,0.1-0.5c0,0.1-0.3,0.4-0.4,0.2c0-0.4,0.3-0.4,0.4-0.7
			c-0.6-1.3-1.9-0.3-3.1-0.2c-0.6,0-1-0.1-1.4-0.1c-1.1-0.3-2-0.3-2.9-0.1c0-0.1,0.1-0.1,0.1-0.1c-2.4,0.3-6,0.3-8.7,0.7
			c0.1,0.1,0.2,0,0.4,0c0.2,0.9,1.5,0.3,2.7,0.7c0.6,0.2,1.5,0.4,2,0.4c0.2-0.1,0.5-0.3,0.5-0.2c0,0.1-0.3,0.2-0.1,0.3
			c0.1-0.2,0.6,0,0.7-0.1c0.3,0.7,1.5,0.1,2.2-0.1c-0.1,0.4-1.1,0.3-1,0.7c0.4-0.2,1-0.8,1.4-0.5c-0.2,0.1-1.1,0.6-0.8,0.5
			c0.4-0.1,0.8-0.6,1.2-0.4c-0.1,0.3-0.8,0.4-0.7,0.6c0.3-0.2,0.5-0.4,1-0.4c-0.1,0.2-0.4,0.3-0.5,0.5c0.4,0,0.7-0.5,1-0.4
			c-0.1,0.2-0.4,0.2-0.4,0.4c0.2,0,0.4-0.3,0.6-0.1c0,0.1-0.2,0.1-0.1,0.2c0.5,0.1,1.6-0.3,1.6,0.1c0.5-0.4,1.1-0.5,1.8-0.7
			c0.3,0.3,0.8,0,1.1-0.1c0.2,0.1-0.1,0.2,0.1,0.3c0.2,0,0.4-0.4,0.5-0.2c0,0.2-0.3,0.1-0.2,0.4c0.2,0.1,0.4-0.2,0.5,0
			c0,0.1-0.2,0.1-0.2,0.2c0.4,0,0.5-0.5,0.8-0.3c-0.4,0.4-0.2,0.4,0.1,0.1C76.9,16.4,77.4,16.3,77.6,15.8z"/>
		<path fill="#FDBB2D" d="M60.1,4.4c0.7,0,0.9-0.1,1.3,0c-0.1-0.3-0.8-0.2-1-0.4C60.4,4.3,60.1,4.2,60.1,4.4z"/>
		<path fill="#FDBB2D" d="M70,21.7c-0.2-0.2-0.7-0.3-1-0.1c0.1-0.4-0.5-0.1-0.3-0.4c-0.4,0-0.6,0.6-0.9,0.4c0-0.3,0.3-0.2,0.3-0.4
			c-0.2,0-0.2,0.2-0.5,0.1c0-0.1,0.1-0.2,0-0.2c-0.2,0.2-0.7,0.1-1,0.1c-0.1-0.3,0.3-0.4,0.1-0.5c-0.1,0.1-0.3,0.2-0.5,0.2
			c0-0.2-0.1-0.3-0.3-0.4c0-0.3,0.4-0.2,0.4-0.5c-0.4-0.1-0.7,0.3-0.9,0.1c0.2-0.1,0.5-0.2,0.7-0.4c-0.1-0.5-0.6-0.8-1.1-0.8
			c0-0.2,0.4-0.1,0.3-0.4c-0.4,0-0.6,0.2-0.9,0.3c0-0.2,0.3-0.2,0.3-0.4c-0.4-0.1-0.6,0.4-0.7,0.1c0-0.2,0.3-0.1,0.3-0.3
			c-0.4,0-0.8,0.7-1.1,0.4c0.1-0.2,0.5-0.1,0.5-0.4c-1,0.1-1.5,0.5-2.2,0.6c0.1-0.3,0.4-0.3,0.5-0.5c-0.4,0-0.8,0.7-1,0.2
			c-0.3,0-0.6,0.4-0.8,0.3c0-0.2,0.2-0.2,0.2-0.4c-0.3,0-0.5,0.1-0.6,0.3c0.3,0.2,0.6,0.3,1,0.4c-0.1,0-0.2,0.1-0.2,0.1
			c0.8,0,0.9,0.7,1.9,0.6c0.2,0.6,1.4,0.7,2.2,1.1c0,0,0,0.2,0.1,0.2c0.6,0.3,1.4,0.6,2,0.4c1.2,1,4.2,1,5.1-0.3
			C71,21.1,70.5,21.5,70,21.7z"/>
		<path fill="#FDBB2D" d="M56.5,18.8c-0.3-0.7-0.9-1.4-1.4-1.9c-0.4,0-0.6-0.4-1-0.4c-0.6-0.1-1.3,0.3-2,0.2
			c-0.6-0.1-0.8-0.6-1.3-0.4c-0.1,0-0.1,0.1-0.1,0.1c0.1,0.6,0.6,1,1.2,1.1c0.8,0.1,2-0.4,2.2,0.4c-1.2,0.7-3-0.2-3.9-0.3
			c0.1,0.7,1.1,1,1.7,1c1.4,0.1,3.3-0.5,4.4,0.2c-0.4,0.2-0.8,0-1.2,0c-1.6,0-3.1,0.6-4.6,0.2c0.5,2.6,4,1,6.2,1.7
			C56.9,20.1,56.8,19.4,56.5,18.8z"/>
		<path fill="#FDBB2D" d="M55.8,21.8c-1.6,0.1-2.8-0.7-4.1-0.7C52.4,22.3,54.5,22.7,55.8,21.8z"/>
		<path fill="#FDBB2D" d="M55.5,14.1c-0.6,0-0.5,0.2,0,0.1c0.4-0.1,0.9-0.4,1-0.6C56,13.3,55.7,13.9,55.5,14.1z"/>
		<path fill="#FDBB2D" d="M53.9,21.2c0.7,0.3,2.1,0.3,2.7,0.5C56.3,20.8,54.7,21.1,53.9,21.2z"/>
		<path fill="#FDBB2D" d="M51.2,13.3c0.7,0.6,2.2,1.1,3.2,0.9C53,14.2,52.1,13.4,51.2,13.3z"/>
		<path fill="#FDBB2D" d="M56.3,24.9c0-0.3,0.3-0.6,0.4-0.9c0-0.4-0.2-0.5-0.1-0.8c-0.4-0.1-1,0.2-1.1-0.1c0-0.5,0.7-0.3,1-0.4
			c0-0.2-0.2-0.3-0.2-0.4c-1,0-1.6,0.7-2.6,0.4c0.1,0.7,1.2,0.3,1.5,0.8c-0.3,0.3-1,0.1-1.3,0.2c1.1,1.8,2,3.6,3.5,4.9
			c-0.4-0.8-0.2-1.9-0.4-2.8C56.7,25.5,56.3,25.3,56.3,24.9z"/>
		<path fill="#FDBB2D" d="M56.9,30.4c0.3-0.2,0-0.6,0.1-0.9c-0.4-1-1.3-1.6-1.9-2.3c-0.1-0.1-0.2-0.2-0.3-0.3
			c-2-4.1-4.8-7.4-9.8-8.4c-0.6,0.3-1.1,0.6-1,1.5c0.5,0.2,0.5,0.7,1.3,0.7c0.1,0.2,0.1,0.5,0.2,0.6c1.2,0.2,1.1-1.4,2.2-1.2
			c-0.4,0.6-1.2,0.9-1.2,1.9c0.3,0.3,0.6,0,0.7,0.4c0.4-0.7,1.2-1.4,2-1.3c-0.2,0.4-0.7,0.7-1,1.1c0.5-0.1,0.7-0.5,1.3-0.4
			c-0.2,0.4-0.9,0.5-1.2,0.8c0.1,0.6-0.7,0.7-0.3,1.3c0.7-0.5,1-1.4,1.9-1.6c0.1,0.8-1.3,1.2-1,2.2c0.2-0.3,0.6-1,1-0.6
			c-0.1,0.4-0.5,0.4-0.5,0.9c0.5,0.2,0.7-0.4,1,0c-0.1,0.4-0.8,0.7-0.4,1c0.4-0.3,0.7-0.7,1.1-1c0.5,0,1.8-0.5,1.9,0.1
			c-0.3,0.3-1.1,0.1-1.4,0.3c-0.3,0.6-0.8,1-1.2,1.5c0.6-0.2,2.1-1.5,2.8-0.4c-1.1,0-2.7,0.4-2.3,1.4c1-1,3.1-0.3,4.2-0.4
			c-0.1,2-3,1.3-3.7,2.8c0.1,0.2,0.4,0.1,0.4,0.4c-0.6,0.5,0.4,1,0.1,1.6c0.7,0.1,0.8,0.8,1.3,0.9c0.7,0.1,1.2-0.6,1.9-1
			c0.7-0.4,1.3-0.7,1.9-0.8C57.1,30.7,56.8,30.7,56.9,30.4z M49.7,21.6c0-0.3,0.4-0.2,0.5-0.1C50,21.7,50,21.5,49.7,21.6z"/>
		<path fill="#FDBB2D" d="M52.6-1.1c0,0.5,0.2,0.7,0.4,1C53-0.6,52.9-0.9,52.6-1.1z"/>
		<path fill="#FDBB2D" d="M53.9,12.1c-0.5,0-0.8-0.6-1.3-0.4C52.7,12,53.5,12.1,53.9,12.1z"/>
		<path fill="#FDBB2D" d="M53.9,13.4c-0.6-0.4-1.4-1-2.1-1.1C52.1,13.1,53,13.2,53.9,13.4z"/>
		<path fill="#FDBB2D" d="M51.2,14.1c-0.1,0-0.1,0.1-0.1,0.1c1.2,0.7,2.8,0.9,4.2,1.3c0.2-0.2,0.4-0.4,0.5-0.7
			C54,15.1,52.5,14.6,51.2,14.1z"/>
		<path fill="#FDBB2D" d="M51.8,2.4c-0.4-0.4-0.7-0.8-1.1-1.1C50.9,1.8,51.4,2.4,51.8,2.4z"/>
		<path fill="#FDBB2D" d="M53.8,15.7c-1.1-0.1-1.9-0.9-2.9-0.8C50.9,16.1,52.8,16.3,53.8,15.7z"/>
		<path fill="#FDBB2D" d="M49.2,4c0.5,0.3,1,0.7,1.5,0.7c-1.2-0.7-2.2-1.5-3.2-2.4C47.5,3.4,48.4,3.6,49.2,4z"/>
		<path fill="#FDBB2D" d="M49.3,3.1c0.7,0.3,1.1,0.9,1.9,1.1C50.8,3.6,50,3,49.3,3.1z"/>
		<path fill="#FDBB2D" d="M50.4-6.1c0.3,0.3-0.3,0.7-0.1,1C50.8-5.5,51-5.9,51-6.7c-0.9,0.4-1.6,1.1-2,2c0.2,0.4,0.5,0.5,0.6,1
			C50.4-4,49.4-5.9,50.4-6.1z"/>
		<path fill="#FDBB2D" d="M48.4,13.1c0.5,0,0.7,0.3,1,0.5c0.2-0.4-0.1-0.5-0.1-1C48.9,12.6,48.4,12.7,48.4,13.1z"/>
		<path fill="#FDBB2D" d="M49.4,2.3c-0.2-0.2-0.5-0.6-0.8-0.4C48.8,2,49.1,2.5,49.4,2.3z"/>
		<path fill="#FDBB2D" d="M46.8,17.2c0.1,0-0.1-0.2,0.1-0.3c1-0.3,1.4-1.1,2.2-1.6c-1.4-1-1.8,1.2-2.9,1.2c0.2-0.5,0.9-1.5,1.5-1.9
			c0.7-0.5,1.3,0,2.1,0.1c-0.6-0.5-0.9-1.1-1.4-1c-0.3,0-0.5,0.5-0.8,0.7c-0.8,0.7-2.3,2-2.4,0.5c0.3,0,0.3,0.3,0.6,0.3
			c0.5-0.5,1.4-1,1.7-1.5c-0.3,0.1-0.9,0.7-1,0.1c1.3-0.2,1.5-1.8,3-1.6c0.1-0.2,0.3-0.4,0.2-0.7c-1.6-0.8-2.4,1.5-3.6,1.3
			c-0.1,0-0.5-0.1-0.4-0.4c0.1-0.2,0.9-0.2,0.7-0.4c-1.4,0.2-2-0.7-2.3-1.7c0.2,2.2,0.1,4.9,1,6.8C45.7,17.1,46.2,17.2,46.8,17.2z
			 M45.1,13.6c0.4,0.1,0.3,0.6,0.5,0.7c0.2,0,0.3,0,0.5,0C45.8,15,44.9,14.3,45.1,13.6z"/>
		<path fill="#FDBB2D" d="M45.8,10.5c0.9,0,1.7-1,2.5-0.2c-1.3,0-1.9,1.2-3.2,0.7c0.1,0.4,0.7,0.4,1.1,0.5c0.5-0.3,0.9-0.7,1.5-1
			c0.1,0.4-0.3,0.5-0.1,0.7c0.4-0.6,1.7-0.5,2.5-0.3c0.1-0.2,0.1-0.5,0.1-0.7c-0.6-0.2-1.2,0-1.7-0.2c0.5-0.2,1.5,0.1,1.9-0.2
			c-1.2-1.5-4.4,0.7-5.4-1.1c0.9,0.4,2.2,0.7,3.1,0.1c-0.7,0-1.6,0-1.9-0.5c-0.6,0-0.9-0.2-1.1-0.6c1.2,0.4,3.2,0.7,4.8,0.8
			c0.5,0,1.4,0.1,1.6-0.4c-1.2,0.2-2.2-0.3-3.2-0.4c-1.3,0.6-3-0.3-3.2-1.3C45.8,6.8,47.1,8,48.1,7c1-0.2,1.8,0.6,2.8,0.4
			c-1.2-0.7-3.3-0.9-4.2-1.9c-0.2-0.2-0.5-0.5-0.3-0.8c0.5,0.1,0.7,0.7,1.1,0.6c-0.7-0.5-1.8-1.4-1.6-2.3c0.4,0.2,0.4,0.7,0.7,1
			C48,4.6,49.4,5.4,51,5.8c0.3,0.2,0.8,0.9,1.3,0.4c-0.8-0.4-1.6-0.8-2.4-1.2c-0.8-0.4-1.8-0.7-2.4-1.3c-0.8-0.8-0.5-2.2-1-3.4
			c0.1,0,0.1,0.1,0.2,0.1c0.1-0.4-0.1-1.1,0.4-1.1c0.1,0.5-0.2,1.7,0.4,1.6c0-0.9-0.6-2.2,0.1-2.6c0.2,0.5,0.1,1.3,0.5,1.8
			c0.3-0.6,0-1.3-0.2-1.8c0-0.4,0.5-0.3,0.6-0.6c0.3-0.6,0.2-1.8-0.3-2.2c-0.5,0.6-0.7,1.5-1.3,2c0,0.2,0,0.4,0,0.7
			c-0.7,1.3-1.8,2.7-2.2,4.5c-0.2,1.1-0.4,2.3-0.4,3.6C43.8,8,44.1,10.5,45.8,10.5z"/>
		<path fill="#FDBB2D" d="M85.3,25.9c-0.1-0.5-0.5,0.1-0.9,0.1c-0.5,0-0.9-0.2-1-0.9c0.1-0.3,0.3-0.3,0.7-0.3
			c-0.3-0.5-0.7-0.8-1.3-0.9c-0.6,1.4,0.2,2.5,1.7,2.5C84.8,26.3,85.2,26.2,85.3,25.9z"/>
	</g>
</g>
<g id="AREA_1">
	<g>
		<path fill="none" d="M70.6,13.4c1.7,0.1,3.4,0.9,5.1,0.2c0.1-0.4,0.2-0.8,0.3-1.3c-1.2-1.1-2.9-1.6-3.7-3.1
			c-0.8-0.1-1.2-1-1.9-1.3c-0.4-0.2-1-0.3-1.6-0.5c-0.9-0.4-1.8-1-2.7-1.2c-0.3-0.1-0.7,0-1-0.1c-0.6-0.1-1-0.6-1.6-0.7
			C62.7,5,62,5.2,61.1,4.9c-1.1,1-1.6,2.7-2.5,3.9c0,2-1.2,3.5-0.7,5.5c0.6,0.1,0.8-0.2,1.3-0.2c1.7-0.1,3.7-0.3,5.8-0.3
			C66.8,13.8,68.7,13.2,70.6,13.4z"/>
		<path fill="#720018" d="M112.1,2.5c0-0.3-0.3-0.3-0.5-0.4C111.6,2.3,111.9,2.3,112.1,2.5z"/>
		<path fill="#720018" d="M111.4,1.7c-0.2-0.2-0.2-0.6-0.7-0.5C110.8,1.5,111.2,2,111.4,1.7z"/>
		<path fill="#720018" d="M110-4.2c1.1,0.2,1.7,0.9,2.8,1.1C112.2-3.6,111.1-4.5,110-4.2z"/>
		<path fill="#720018" d="M103.8-0.7c1.9,1,5.1,0.8,6.9,1.9c-1-1.8-4.6-1.2-6.7-1.9C103.9-0.7,103.8-0.7,103.8-0.7z"/>
		<path fill="#720018" d="M107.7-5.7c2.3,0.2,5,1.1,6.6,2c0-0.3-0.2-0.4-0.1-0.7c-1.7-0.9-4.3-1.8-6.6-1.4
			C107.5-5.7,107.6-5.7,107.7-5.7z"/>
		<path fill="#720018" d="M105.2-0.7c1.5,0.1,3.2,0,4.5,0.5C109-1.1,106.3-1.4,105.2-0.7z"/>
		<path fill="#720018" d="M106.9-5.6c-0.3-0.2-0.8-0.3-1.2-0.2C105.9-5.5,106.7-5.3,106.9-5.6z"/>
		<path fill="#720018" d="M104,1.6c0.9,0.7,2.4,1.1,3.4,1.4C106.7,2.1,105.1,1.7,104,1.6z"/>
		<path fill="#720018" d="M105.3-1.7c0.7,0.2,1.6,0.3,2.5,0.4c0.5,0.1,1.1,0.3,1.4,0.1c-1.3-0.4-2.5-0.7-4.1-0.8
			C105-1.6,105.2-1.7,105.3-1.7z"/>
		<path fill="#720018" d="M105.9-6.3c-0.3-0.4-1.6-0.6-1.9-0.1C104.5-6.3,105.3-6.1,105.9-6.3z"/>
		<path fill="#720018" d="M101.8,6.7c1.2,1.3,1.4,3.5,2.5,4.9c0-2.4-1.2-3.6-2.2-5C102,6.7,101.9,6.6,101.8,6.7z"/>
		<path fill="#720018" d="M103.7-1.1c-0.3-0.5-1-0.7-1.6-1C102.3-1.4,103.2-1.1,103.7-1.1z"/>
		<path fill="#720018" d="M103.7-2.1c0-0.4-0.6-0.1-0.7-0.4c1.3-0.1,2.4,0.3,3.5,0c-1.2-0.2-2.5-0.4-3.9-0.4
			c-0.1,0.2,0.1,0.2-0.1,0.4C102.8-2.3,103.1-2.1,103.7-2.1z"/>
		<path fill="#720018" d="M102.1,0.7c1.2-0.2,2,0.3,3.1,0.6c0.8,0.2,1.6,0.5,2.2,0.7c0.6,0.3,1,1,1.5,1c-0.4-0.4-1-0.8-1.3-1.4
			C106,1,104,0.3,102.2,0.3c-0.5-0.3-1.1-0.5-1.6-0.7C100.7,0.4,101.7,0.3,102.1,0.7z"/>
		<path fill="#720018" d="M103.4-0.3c-0.7-0.1-1.5-0.6-2.2-0.5C101.7-0.5,102.9,0.1,103.4-0.3z"/>
		<path fill="#720018" d="M101.7,1c0,0.3,0.1,0.4-0.1,0.4c1.4,0.7,2.8,1.4,4.3,1.9c0.1-0.3-0.2-0.3-0.2-0.6
			C104.3,2.2,103.2,1.3,101.7,1z"/>
		<path fill="#720018" d="M101.6,1.4c0,0-0.1,0-0.1-0.1C101.5,1.3,101.6,1.3,101.6,1.4z"/>
		<path fill="#720018" d="M100.8,5c0.3,0.3,0.4,0.9,0.8,1.2C101.5,5.6,101.4,5.1,100.8,5z"/>
		<path fill="#720018" d="M100.9,1.8c0.6,0.3,1.1,0.6,1.7,0.8C102.3,2.2,101.3,1.6,100.9,1.8z"/>
		<path fill="#720018" d="M101.2,1.1c0-0.6-0.6-0.6-1.2-0.7C100.2,0.8,100.7,0.9,101.2,1.1z"/>
		<path fill="#720018" d="M96.3,41.1c0,0.2-0.2,0.6-0.1,0.7C96.3,41.6,96.6,41.1,96.3,41.1z"/>
		<path fill="#720018" d="M96,40.6c-0.1,0.3-0.2,0.7-0.3,1.1C95.9,41.6,96.1,40.9,96,40.6z"/>
		<path fill="#720018" d="M94.9,43.3c0,0.1-0.1,0.2-0.1,0.3c0,0.2,0,0.5-0.1,0.7c0.5-0.1,0.1,0.7,0.4,0.7c0-0.2,0-0.4,0-0.5
			C95.2,43.9,95.2,43.5,94.9,43.3z"/>
		<path fill="#720018" d="M94.6,42.9c-0.1,0.4-0.2,0.8-0.1,1.3c0.2-0.1,0.3-0.4,0.3-0.7C94.8,43.3,94.7,43,94.6,42.9z"/>
		<path fill="#720018" d="M94.2,42.5c0,0.2-0.2,0.3-0.2,0.5c0,0.1-0.1,0.2-0.1,0.4c0.1-0.1,0.2-0.2,0.3-0.4
			C94.3,42.8,94.3,42.6,94.2,42.5z"/>
		<path fill="#720018" d="M93.7,22.6C93.2,22.6,93.7,23.2,93.7,22.6L93.7,22.6z"/>
		<path fill="#720018" d="M92.2,23.4c0-0.2,0.4-0.5,0.2-0.6C92.3,23,92,23.3,92.2,23.4z"/>
		<path fill="#720018" d="M90.1,7c-0.2,0.3,0,0.6,0,1C90.4,8,90.4,7,90.1,7z"/>
		<path fill="#720018" d="M87.5,7.8c0.2-0.8,0.8-1.7,1-2.4C87.8,5.7,87.3,7,87.5,7.8z"/>
		<path fill="#720018" d="M84.6,19.4c0.3-0.3,0.8-0.5,1-0.9C85.3,18.7,84.7,19.1,84.6,19.4z"/>
		<path fill="#720018" d="M86.1,18.6c-0.1,0.2-0.7,0.6-0.5,0.5C85.7,19,86.2,18.9,86.1,18.6z"/>
		<path fill="#720018" d="M85.4,14.3c0-0.3-0.7-0.4-1.1-0.4C84.3,14.2,85.1,14.6,85.4,14.3z"/>
		<path fill="#720018" d="M84,19.5c0.3-0.3,0.6-0.6,0.9-0.8C84.4,18.8,84,19.3,84,19.5z"/>
		<path fill="#720018" d="M84.6,18.6c-0.5,0.2-0.9,0.5-1.1,0.9C83.9,19.3,84.3,19,84.6,18.6z"/>
		<path fill="#720018" d="M83,19.4c0.5-0.2,0.8-0.4,1.1-0.7C83.6,18.8,83.3,19.1,83,19.4z"/>
		<path fill="#720018" d="M49.7,21.6c0.3-0.1,0.4,0.1,0.5-0.1C50.1,21.4,49.7,21.3,49.7,21.6z"/>
		<path fill="#720018" d="M127.6,20.7c-0.1-0.9-1.3-2.4-2.5-2.3c-0.7,0-1.4,0.7-1.6,1.4c-0.1,0.4,0,1-0.1,1.5
			c-0.3,1.1-1.6,1.5-2.5,2.2c-0.6,0.5-0.7,1-1.3,1.3c-1.7,0.5-2.9,1.4-4.9,1.2c-1.8-0.2-3.2-1.8-3.5-3.6c-0.1-0.4,0-0.7,0-1.1
			c-0.1-1.1-0.6-2.3-0.6-3.6c0-1,0-1.8,0-2.7c0-0.5,0.1-1,0.1-1.5c0-0.3-0.2-0.6-0.1-0.8c0-0.2,0.2-0.4,0.2-0.6
			c0-0.3-0.1-0.6-0.1-0.8c0.1-0.4,0.3-0.9,0.4-1.3c0.2-0.4,0.5-0.8,0.6-1.2c0.3-0.9,0.1-1.9,0.4-2.8c0.2-0.6,1-1,1.3-1.7
			c0.1-0.3,0.1-0.7,0.2-1c0.2-0.5,0.7-0.8,0.8-1.3c0.3-1.1,0.3-2.5,0.6-3.7c0.3-1.2,1-2.3,1-3.4c0-1.5-1-2.5-2.2-2.8
			c-0.7-0.1-1.4,0.1-1.9,0.1c-1.7-0.1-3.1-1.4-5.4-1c-0.7-0.3-1.2-0.9-2.1-0.9c-0.6,0-0.9,0.6-1.3,1c-0.4,0.5-0.9,0.8-1.2,1.3
			c-0.3,0.5-0.7,1.2-1,1.9c-0.4,0.9-0.4,2-0.8,3c-0.4,1.1-1.3,1.9-1.5,2.8c-1,0.4-1.3,1.3-2.4,1.5c-1.1,0.2-2.5-0.6-3.9-0.5
			c-0.8,0-1.5,0.3-2.4,0.3c-0.5-0.7-1.1-1.3-1.6-2C88.1-1,87.7-2,87.2-2.5c-0.4-0.4-1.1-0.5-1.6-0.9c-0.7-0.5-1-1.3-1.7-1.6
			c-0.3-0.1-0.7-0.1-1-0.2c-0.2-0.1-0.4-0.3-0.7-0.5C81.5-6.3,81-7,80.4-7.5c-1.2-1-2.6-1.5-4.1-2.2c-0.6-0.3-1.1-0.8-1.8-1
			c-0.3-0.1-0.7,0-1-0.1c-0.3-0.1-0.6-0.4-1-0.5c-0.7-0.2-1.7,0-2.7-0.1c-0.6,0-1.3-0.3-1.9-0.4c-3-0.3-5.8,0.2-8.1,0.7
			c-0.4,0.1-0.8,0.4-1.3,0.4c-0.5,0.1-0.9,0-1.3,0c-1.2,0.1-2.2,0.8-3.2,1.2c-0.3,0.1-0.6,0.1-0.9,0.2c-0.5,0.2-1,0.7-1.6,1
			c-0.6,0.4-1.1,0.7-1.6,1.1c-0.9,0.7-2.1,1.7-2.7,2.6c-0.5,0.8-0.7,1.7-1,2.7c-0.3,0.8-1,1.4-1.3,2.1C44.2,2,44.3,3.9,43.9,6
			c-0.1,0.3-0.3,0.6-0.3,0.9c-0.2,1.1-0.2,3.1-0.1,4.4c0.1,0.5,0.3,1,0.3,1.5c0,0.7-0.2,1.2-0.1,1.8c0.1,0.9,0.6,1.8,0.5,2.8
			c-0.9,0.5-1.9,2-1.3,3.7c0.2,0.7,1,0.9,1.6,1.7c0.3,0.4,0.4,0.8,0.6,1.1c0.9,1,2.1,1.9,2.6,3.5c0.1,0.4,0,0.8,0.2,1.3
			c0.1,0.3,0.4,0.8,0.7,1.2c0.6,1.2,1.1,2.1,1.5,3.2c0.6,1.5,1,3.1,2.5,3.4c0.7,0.1,1.4-0.3,2-0.4c1.3-0.1,2.7,0.1,3.6-0.7
			c0.6-0.6,1.3-2.1,1.2-3.1c-0.1-0.5-0.5-0.9-0.7-1.4c-0.2-0.5-0.4-1.4-0.5-2.2c-0.1-0.8-0.4-1.5-0.5-2.2c-0.5-2.6,0.2-4.9,0.1-7.6
			c0.4,0.1,0.7,0.3,1,0.5c0,0-0.1,0.1,0,0.2c0.1,0.1,0.3,0,0.4,0.1c0.9,0.5,1.6,1.3,2.8,1.6c0.4,0.1,0.7,0,1.1,0.1
			c0.5,0.2,1,0.6,1.6,0.8c0.6,0.3,1.2,0.3,1.9,0.5c0.4,0.1,0.7,0.4,1.1,0.4c0.3,0,0.5-0.1,0.8-0.1c0.6,0,1.1,0.2,1.6,0.1
			c0.4-0.1,0.8-0.4,1.3-0.5c1-0.2,1.6,0,2.3-0.3c0.7-0.3,1.6-0.9,2.1-0.9c0.5,0,0.9,0.5,1.3,0.9c0.1,2.2,0.8,4,1.4,6.2
			c0.5,1.7,0.7,3.5,1.5,4.7c1.1,1.6,2.7,2.2,4.4,3.1c0.8,0.5,1.3,1.1,2.4,1.2c0.5,1.4,0.7,2.5,1.3,3.5c0.6,1,1.6,1.6,1.9,2.5
			c0.2,0.6,0.1,1.2,0.2,1.8c0.1,0.6,0.7,1.7,1,2.2c1,1.8,3,4.1,6.3,3.7c0.5-0.1,0.9-0.6,1.9-0.5c0.6,0.1,1,0.6,1.9,0.4
			c0.5-0.1,1.6-1,2.2-1.6c1.2-1.2,0.5-2.7,0.4-4.6c-0.1-3.8,0.2-8.4,0.1-11.9c0-1.3-0.4-2.6-0.3-3.7c1.3,0.5,1.1,2.7,3.1,2.5
			c1.8,1.3,4.9,2.2,7.8,2.2c2,0,4.6-0.6,6-1.5c0.5-0.3,0.9-1,1.5-1.4c0.4-0.2,0.9-0.4,1.1-0.6c0.3-0.2,0.4-0.7,0.6-0.9
			c0.9-0.9,1.9-1.4,2.8-2.1c0.1-0.6,0.7-1.2,0.9-2c0.2-1,0.1-2.2,0.1-3.4C127.5,21.7,127.7,21.2,127.6,20.7z M114.1,27.1
			c-0.8,0.4-1.8-0.1-2.5-0.2C112.5,26.7,113.6,26.7,114.1,27.1z M110.8,24c-0.4-0.1-0.7-0.1-1.1,0c-0.1,0-0.1,0-0.2,0
			c-0.2-0.1,0.1-0.1,0.2-0.1c0.3-0.2,0.9,0,0.9-0.4c-0.1-0.3-0.4,0-0.7-0.1c0.2-0.2,0.5-0.3,0.8-0.3C110.8,23.3,110.9,23.7,110.8,24
			z M109.5,13.1c0.3,0.2-0.1,0.5-0.4,0.5C109.1,13.4,109.4,13.3,109.5,13.1z M110.2,11.6c0,0.3-0.7,0.6-0.8,1
			C109.3,12.2,110,11.9,110.2,11.6z M109.9,19.9c0,0.5-0.6,0.1-0.8,0C109.2,19.8,109.8,19.8,109.9,19.9z M109.9,21
			c0,0.2-0.4,0.2-0.5,0.1C109.4,20.9,109.7,21,109.9,21z M110.4,24.5c-0.3,0.2-1.1,0.3-1.6,0.1C109.3,24.4,109.9,24.6,110.4,24.5z
			 M51.8,2.4c-0.4,0-0.9-0.6-1.1-1.1C51.1,1.6,51.4,2,51.8,2.4z M49.3,3.1C50,3,50.8,3.6,51.1,4.2C50.4,3.9,49.9,3.4,49.3,3.1z
			 M50.7,4.7c-0.5,0-1-0.4-1.5-0.7c-0.8-0.4-1.7-0.6-1.7-1.7C48.5,3.2,49.5,4,50.7,4.7z M48.6,1.9c0.3-0.2,0.6,0.2,0.8,0.4
			C49.1,2.5,48.8,2,48.6,1.9z M51-6.7c0,0.7-0.2,1.2-0.6,1.6c-0.2-0.3,0.3-0.6,0.1-1c-1,0.2-0.1,2.1-0.9,2.4c-0.1-0.5-0.4-0.6-0.6-1
			C49.4-5.6,50.1-6.2,51-6.7z M44.5,6.4c0-1.3,0.2-2.5,0.4-3.6C45.2,1,46.3-0.4,47-1.7c0-0.2,0-0.4,0-0.7c0.5-0.5,0.7-1.5,1.3-2
			c0.5,0.4,0.6,1.6,0.3,2.2C48.5-1.8,48-1.9,48-1.5c0.2,0.5,0.6,1.2,0.2,1.8c-0.4-0.5-0.3-1.3-0.5-1.8c-0.7,0.5-0.2,1.7-0.1,2.6
			c-0.5,0-0.2-1.2-0.4-1.6c-0.4,0.1-0.3,0.7-0.4,1.1c-0.1,0-0.1-0.1-0.2-0.1c0.4,1.3,0.2,2.6,1,3.4c0.6,0.5,1.6,0.9,2.4,1.3
			c0.8,0.4,1.6,0.8,2.4,1.2c-0.5,0.4-1-0.2-1.3-0.4c-1.7-0.5-3-1.3-4.5-1.9c-0.3-0.2-0.4-0.8-0.7-1c-0.2,0.9,1,1.8,1.6,2.3
			c-0.4,0.1-0.7-0.5-1.1-0.6c-0.2,0.3,0.1,0.6,0.3,0.8c0.9,0.9,3,1.2,4.2,1.9c-1,0.2-1.8-0.6-2.8-0.4c-1,1.1-2.4-0.1-3.1-0.7
			c0.2,1,1.9,1.9,3.2,1.3c1,0.2,2,0.7,3.2,0.4c-0.2,0.6-1.1,0.5-1.6,0.4c-1.6-0.1-3.6-0.4-4.8-0.8c0.2,0.4,0.6,0.6,1.1,0.6
			c0.3,0.5,1.1,0.5,1.9,0.5c-1,0.5-2.3,0.2-3.1-0.1c0.9,1.8,4.2-0.4,5.4,1.1c-0.3,0.4-1.4,0-1.9,0.2c0.5,0.2,1.1,0,1.7,0.2
			c0,0.3,0,0.5-0.1,0.7c-0.8-0.2-2.1-0.3-2.5,0.3c-0.2-0.2,0.3-0.3,0.1-0.7c-0.5,0.3-1,0.7-1.5,1c-0.4-0.1-1-0.1-1.1-0.5
			c1.3,0.5,1.9-0.7,3.2-0.7c-0.9-0.8-1.6,0.2-2.5,0.2C44.1,10.5,43.8,8,44.5,6.4z M53.9,12.1c-0.3,0-1.1-0.1-1.3-0.4
			C53.1,11.5,53.4,12.1,53.9,12.1z M52.6-1.1c0.3,0.2,0.4,0.5,0.4,1C52.8-0.4,52.6-0.6,52.6-1.1z M53.9,21.2
			c0.8-0.1,2.5-0.4,2.7,0.5C56,21.5,54.6,21.5,53.9,21.2z M55.8,21.8c-1.3,1-3.4,0.6-4.1-0.7C53,21.1,54.2,21.9,55.8,21.8z
			 M50.5,19.1c1.5,0.4,3.1-0.3,4.6-0.2c0.4,0,0.8,0.2,1.2,0c-1.1-0.7-3-0.1-4.4-0.2c-0.7-0.1-1.6-0.3-1.7-1c0.8,0.1,2.7,1,3.9,0.3
			c-0.3-0.8-1.4-0.3-2.2-0.4c-0.6-0.1-1.1-0.5-1.2-1.1c0-0.1,0-0.1,0.1-0.1c0.6-0.1,0.7,0.4,1.3,0.4c0.7,0.1,1.4-0.3,2-0.2
			c0.4,0.1,0.7,0.5,1,0.4c0.5,0.5,1.1,1.2,1.4,1.9c0.3,0.6,0.4,1.3,0.2,2C54.5,20.1,51,21.7,50.5,19.1z M50.9,14.9
			c1,0,1.8,0.7,2.9,0.8C52.8,16.3,50.9,16.1,50.9,14.9z M55.5,14.3c-0.5,0.1-0.6-0.1,0-0.1c0.2-0.2,0.5-0.8,1-0.4
			C56.4,13.9,55.9,14.2,55.5,14.3z M55.9,14.8c-0.1,0.3-0.3,0.5-0.5,0.7c-1.4-0.4-3.1-0.6-4.2-1.3c0-0.1,0-0.1,0.1-0.1
			C52.5,14.6,54,15.1,55.9,14.8z M51.2,13.3c0.9,0.1,1.8,1,3.2,0.9C53.4,14.4,51.9,13.8,51.2,13.3z M53.9,13.4
			c-0.8-0.2-1.8-0.3-2.1-1.1C52.5,12.4,53.3,13,53.9,13.4z M44.1,10.2c0.3,1.1,0.9,2,2.3,1.7c0.1,0.2-0.6,0.2-0.7,0.4
			c0,0.3,0.3,0.4,0.4,0.4c1.2,0.1,1.9-2.2,3.6-1.3c0,0.4-0.1,0.6-0.2,0.7c-1.5-0.3-1.7,1.4-3,1.6c0.1,0.6,0.7,0.1,1-0.1
			c-0.3,0.5-1.2,1-1.7,1.5c-0.3,0-0.3-0.3-0.6-0.3c0,1.5,1.5,0.2,2.4-0.5c0.3-0.3,0.5-0.7,0.8-0.7c0.6-0.1,0.9,0.6,1.4,1
			c-0.8,0-1.4-0.6-2.1-0.1c-0.5,0.4-1.3,1.4-1.5,1.9c1.1,0,1.6-2.2,2.9-1.2c-0.8,0.5-1.2,1.3-2.2,1.6c-0.2,0.1,0,0.3-0.1,0.3
			c-0.6,0-1.1-0.1-1.6-0.1C44.3,15.2,44.4,12.4,44.1,10.2z M49.4,13.7c-0.3-0.2-0.5-0.5-1-0.5c0.1-0.4,0.6-0.5,1-0.4
			C49.3,13.1,49.6,13.2,49.4,13.7z M57,31c-0.6,0.2-1.1,0.5-1.9,0.8c-0.7,0.4-1.1,1.1-1.9,1c-0.5-0.1-0.7-0.8-1.3-0.9
			c0.2-0.6-0.8-1.1-0.1-1.6c0-0.3-0.3-0.2-0.4-0.4c0.7-1.4,3.5-0.8,3.7-2.8c-1.2,0.2-3.3-0.6-4.2,0.4c-0.4-1,1.2-1.4,2.3-1.4
			c-0.7-1-2.3,0.2-2.8,0.4c0.4-0.5,0.9-0.9,1.2-1.5c0.3-0.2,1.1,0,1.4-0.3c-0.2-0.6-1.4-0.1-1.9-0.1c-0.4,0.3-0.7,0.7-1.1,1
			c-0.3-0.3,0.4-0.6,0.4-1c-0.2-0.4-0.5,0.2-1,0c0-0.5,0.4-0.5,0.5-0.9c-0.4-0.4-0.8,0.3-1,0.6c-0.3-1,1.1-1.4,1-2.2
			c-1,0.2-1.3,1.1-1.9,1.6c-0.4-0.6,0.4-0.7,0.3-1.3c0.3-0.3,1-0.4,1.2-0.8c-0.6-0.1-0.9,0.3-1.3,0.4c0.3-0.4,0.7-0.7,1-1.1
			c-0.8,0-1.6,0.7-2,1.3c0-0.5-0.4-0.2-0.7-0.4c0-1,0.8-1.3,1.2-1.9c-1.1-0.2-0.9,1.4-2.2,1.2c-0.1-0.1-0.2-0.4-0.2-0.6
			c-0.7,0.1-0.8-0.5-1.3-0.7c-0.1-0.9,0.5-1.2,1-1.5c5,1,7.8,4.4,9.8,8.4c0.1,0.1,0.2,0.2,0.3,0.3c0.6,0.8,1.5,1.3,1.9,2.3
			c-0.1,0.2,0.1,0.7-0.1,0.9C56.8,30.7,57.1,30.7,57,31z M53.7,23.7c0.3-0.1,1,0,1.3-0.2c-0.3-0.5-1.4-0.1-1.5-0.8
			c1,0.2,1.6-0.5,2.6-0.4c0,0.2,0.2,0.2,0.2,0.4c-0.3,0.2-1,0-1,0.4c0.1,0.3,0.7,0,1.1,0.1c-0.1,0.3,0.2,0.4,0.1,0.8
			c0,0.3-0.4,0.6-0.4,0.9c0,0.4,0.4,0.6,0.5,1c0.3,0.9,0,2,0.4,2.8C55.7,27.3,54.8,25.5,53.7,23.7z M57.8,14.3
			c-0.5-2,0.8-3.5,0.7-5.5c1-1.2,1.4-2.8,2.5-3.9C62,5.2,62.7,5,63.6,5.3c0.5,0.2,1,0.6,1.6,0.7c0.3,0.1,0.7,0,1,0.1
			c0.9,0.2,1.8,0.8,2.7,1.2c0.5,0.2,1.1,0.3,1.6,0.5c0.7,0.4,1.1,1.2,1.9,1.3c0.8,1.5,2.5,2,3.7,3.1c0,0.5-0.2,0.9-0.3,1.3
			c-1.7,0.6-3.4-0.1-5.1-0.2c-1.8-0.1-3.8,0.4-5.7,0.4c-2.1,0-4.1,0.2-5.8,0.3C58.6,14.1,58.4,14.4,57.8,14.3z M60.3,4
			c0.3,0.2,0.9,0,1,0.4c-0.3-0.1-0.6,0-1.3,0C60.1,4.2,60.4,4.3,60.3,4z M66.5,21.5c-0.6,0.1-1.4-0.2-2-0.4c-0.1,0,0-0.2-0.1-0.2
			c-0.7-0.4-2-0.6-2.2-1.1c-1,0.2-1-0.6-1.9-0.6c0.1-0.1,0.1-0.1,0.2-0.1c-0.4-0.1-0.8-0.2-1-0.4c0.1-0.2,0.3-0.3,0.6-0.3
			c0,0.2-0.3,0.1-0.2,0.4c0.2,0.1,0.5-0.3,0.8-0.3c0.3,0.4,0.7-0.2,1-0.2c-0.1,0.2-0.4,0.3-0.5,0.5c0.7-0.1,1.2-0.5,2.2-0.6
			c0,0.3-0.4,0.3-0.5,0.4c0.3,0.3,0.7-0.3,1.1-0.4c0,0.2-0.3,0.1-0.3,0.3c0.1,0.3,0.4-0.2,0.7-0.1c0,0.3-0.3,0.2-0.3,0.4
			c0.3-0.1,0.5-0.3,0.9-0.3c0.1,0.3-0.3,0.2-0.3,0.4c0.5,0,1,0.3,1.1,0.8c-0.2,0.2-0.4,0.3-0.7,0.4c0.2,0.2,0.5-0.2,0.9-0.1
			c0,0.3-0.3,0.2-0.4,0.5c0.2,0.1,0.3,0.2,0.3,0.4c0.2,0,0.4-0.1,0.5-0.2c0.3,0.2-0.2,0.3-0.1,0.5c0.3,0.1,0.8,0.1,1-0.1
			c0.1,0,0,0.1,0,0.2c0.3,0,0.3-0.2,0.5-0.1c0,0.2-0.3,0.2-0.3,0.4c0.3,0.2,0.5-0.4,0.9-0.4c-0.2,0.4,0.4,0,0.3,0.4
			c0.3-0.1,0.8-0.1,1,0.1c0.6-0.2,1.1-0.6,1.6-0.5C70.7,22.4,67.6,22.5,66.5,21.5z M76.9,16.9c-0.3-0.2-0.5,0.3-0.8,0.3
			c0-0.2,0.2-0.1,0.2-0.2c-0.1-0.2-0.3,0.1-0.5,0c0-0.2,0.2-0.2,0.2-0.4c-0.1-0.1-0.4,0.2-0.5,0.2c-0.2-0.1,0.1-0.2-0.1-0.3
			c-0.4,0.1-0.8,0.4-1.1,0.1c-0.7,0.3-1.3,0.4-1.8,0.7c0-0.4-1,0-1.6-0.1c0-0.2,0.1-0.1,0.1-0.2c-0.2-0.2-0.4,0.2-0.6,0.1
			c0.1-0.2,0.4-0.2,0.4-0.4c-0.3-0.1-0.7,0.3-1,0.4c0.1-0.2,0.4-0.3,0.5-0.5c-0.4,0-0.7,0.3-1,0.4c-0.1-0.2,0.6-0.3,0.7-0.6
			c-0.4-0.1-0.8,0.3-1.2,0.4c-0.3,0.1,0.6-0.4,0.8-0.5c-0.4-0.3-1,0.3-1.4,0.5c-0.1-0.4,0.9-0.3,1-0.7c-0.7,0.2-1.8,0.9-2.2,0.1
			c-0.1,0.2-0.6,0-0.7,0.1c-0.2-0.1,0.1-0.2,0.1-0.3c-0.1-0.1-0.4,0.2-0.5,0.2c-0.6,0-1.4-0.2-2-0.4c-1.1-0.4-2.4,0.1-2.7-0.7
			c-0.2,0-0.2,0.1-0.4,0c2.8-0.3,6.3-0.4,8.7-0.7c0,0.1-0.1,0.1-0.1,0.1c0.9-0.2,1.8-0.1,2.9,0.1c0.4,0.1,0.8,0.2,1.4,0.1
			c1.2-0.1,2.5-1.1,3.1,0.2c-0.1,0.3-0.4,0.4-0.4,0.7c0.1,0.2,0.4-0.1,0.4-0.2c0.2,0.2-0.2,0.3-0.1,0.5c0.2,0.2,0.2-0.5,0.6-0.4
			c-0.2,0.4-0.6,0.6-0.5,1.1C76.6,17.2,76.5,17.3,76.9,16.9z M77.9,16.9c-0.3,0.1-0.5,0.4-0.8,0.4c0.2-0.3,0.5-0.5,0.7-0.8
			C78,16.4,77.8,16.7,77.9,16.9z M77.3,13.4c-0.3,0-0.5,0-0.4-0.3c0.5-0.1,0.5,0.6,1,0.8c0.9,0.4,2.3,0.1,2.9,0.9
			C79.3,15.1,78.1,14.3,77.3,13.4z M83.6,12.5c0.6-0.1,1.1,0.1,1.6-0.1c0.3,0.6,0.5,1.3,1.3,1.3c-0.1,0.4-0.5,0.4-0.4,0.8
			c1,0.3,1.7-1,2.1-1.9c0.2,0.2-0.1,0.5,0,0.8c-0.9,0.9-1.7,2.3-3.7,1.9c-0.1-0.2-0.1-0.3,0.1-0.4c-1.2-1.2-2.6-2.3-5-2.4
			c1.6-0.6,3.5,0.2,4.3,1.1C84.1,13.3,83.6,12.9,83.6,12.5z M83,14.4c-0.4,0-0.5-0.3-0.7-0.4C82.4,13.7,83,14.1,83,14.4z M80.6,13.1
			c-0.9,0.1-2.2,0-2.7-0.5C78.9,12.5,79.6,13.1,80.6,13.1z M77.8,10.2c0.4-0.2,0.9,0.2,1.3,0.3C78.7,10.6,78,10.5,77.8,10.2z
			 M82.9,24c0.6,0.1,1.1,0.4,1.3,0.9c-0.4,0-0.7,0-0.7,0.3c0,0.7,0.4,0.9,1,0.9c0.4,0,0.8-0.6,0.9-0.1c-0.1,0.3-0.5,0.3-0.7,0.5
			C83.1,26.5,82.3,25.4,82.9,24z M83.8,23.2c0.7-0.2,1.6,0.5,1.4,1.2C84.7,24.1,84.3,23.6,83.8,23.2z M84.6,27.7
			c-0.1-0.1-0.3-0.1-0.4-0.3c-0.1,0-0.2,0.1-0.1,0.2c-0.1,0-0.1-0.1-0.1-0.1c0-0.1,0-0.1-0.1-0.1c0.6-0.2,1.5-0.2,1.8-0.7
			C86.1,27.1,85,27.4,84.6,27.7z M85.6,24.8c-0.3,0-0.1-0.2-0.1-0.4C85.7,24.2,85.6,24.6,85.6,24.8z M85.9,25.2
			c-0.3,0-0.2-0.2-0.1-0.4C86,24.8,85.9,25.1,85.9,25.2z M90.8,35.6c0-0.1,0.1-0.1,0.1-0.2c-0.7,0.1-1.3,0.1-1.9,0
			c-0.6-0.1-0.8,0-1-0.7c-0.1-0.2-0.4-0.2-0.1-0.7c-0.3,0-0.3,0.2-0.4,0.4c0-0.7-0.3-0.7-0.1-1.4c-0.1-0.2-0.3,0.3-0.4,0.4
			c-0.1-0.3,0.2-0.8,0.1-1.3c-0.5-0.1,0.2-0.8,0.3-1.3c0-0.1-0.3,0-0.3,0.1c-0.1-0.3,0.4-0.9,0.3-1.3c0.6-0.1,0.7-0.8,1.2-1.1
			c0.1,0.2-0.5,0.4-0.5,0.7c0.4,0,0.8-0.7,1.1-1c0.2,0.1-0.2,0.2-0.1,0.5c0.5-0.3,0.6-0.6,1.2-0.7c0,0.4,0.6,0.2,0.4,0.6
			c0.1,0,0.2-0.1,0.3-0.1c0,0.1,0,0.3,0,0.4c0.3-0.4,0.1,0.2,0.4,0.1c0,0.2-0.1,0.6,0.2,0.4c-0.2,0.2,0.2,0.4,0,0.7
			c0.7,1,0.4,3,0.4,4.5C91.6,35.2,91.2,35.4,90.8,35.6z M95.3,47.1c-0.1,0.2,0.1,0.2,0.1,0.4c-0.1-0.1-0.5-0.3-0.3,0
			c-0.3,0.2-0.5-0.5-0.7-0.7c0,0.2,0.1,0.3,0.1,0.5c-0.4,0-0.3-0.4-0.4-0.6c-0.2,0,0,0.3-0.1,0.4c-0.1,0.1-0.1-0.6-0.2-0.7
			c-0.2,0.1,0,0.4-0.1,0.6c-0.4-0.2-0.2-0.9-0.4-1.3c-0.3,0.2,0,0.5-0.1,0.8c-0.5-0.3-0.1-1.3-0.4-1.7c-0.2,0,0,0.4-0.1,0.5
			c-0.1-0.5-0.5-0.9-0.4-1.6c-0.2,0-0.3,0-0.2,0.2c-0.2-0.2,0-0.7-0.4-0.7c0.1-0.8-0.1-1.8,0.8-1.8c0.1,0.2-0.1,0.2-0.1,0.4
			c0.2,0,0.3,0,0.3-0.1c0.2,0.1-0.2,0.5,0.1,0.6c0.1,0,0.1-0.2,0.1-0.3c0.1,0,0.1,0.2,0.1,0.3c0.4-0.1,0.3-0.8,0.5-1
			c0,0.4-0.4,1.1-0.1,1.6c0.2,0.1,0.1-0.2,0.2-0.2c0.2,0.2,0.2,0.3,0.1,0.6c0.1,0,0.2-0.1,0.2-0.2c0.1-0.3,0-0.8,0.1-1.1
			c-0.2,0.1-0.2,0.3-0.2,0.6c-0.5-0.1,0.2-1.2,0-1.3c0.1-0.7,1.1,0.5,1.5,0.7c0.2-0.6,0.3-1.2,0.4-1.9c-0.2,0.1-0.2,0.4-0.3,0.7
			c-0.2,0,0.2-0.8,0.1-1.2c-0.5,0.2,0.1-0.8-0.3-0.7c-0.1-0.1,0.1-0.5,0-0.7c-0.2-0.1-0.1,0.2-0.3,0.1c-0.1-1.1-0.5-1.5-0.3-2.5
			c-0.2,0.1,0,0.6-0.4,0.6c0-0.2,0-0.5,0.1-0.6c-0.3-0.1-0.4-1.1-0.2-1.6c-0.2-0.1-0.1,0.2-0.3,0.1c0-0.3,0-0.4,0.1-0.6
			c-0.3,0.2,0-0.7-0.3-0.7c0.2-0.3-0.1-0.4-0.1-0.7c-0.3-1.3-0.3-3.1-1.3-3.9c-0.1-0.3,0.1-0.4,0-0.5c-0.3,0.2-0.1,0-0.5,0
			c-0.1-0.1-0.1-0.2-0.1-0.4c-0.2,0-0.2,0-0.4,0c0-0.2,0.2-0.3,0.1-0.6c-0.1,0.1-0.1,0.2-0.2,0.3c-0.2,0,0-0.3-0.1-0.4
			c-0.1,0-0.2,0-0.3,0.1c-0.2-0.1,0.4-0.4,0.1-0.6c-0.2,0-0.2,0.3-0.4,0.4c-0.1-0.6,0.7-0.9,0.8-1.5c-0.4,0.1-0.5,0.5-0.8,0.7
			c0.1-0.4,0.5-0.5,0.7-0.9c-0.5,0-0.6,0.4-0.8,0.7c-0.3-0.4,0.5-0.7,0.6-1c-0.2,0-0.3-0.1-0.1-0.3c-0.1-0.2-0.3,0.3-0.3-0.1
			c-0.2,0.1-0.4,0.2-0.5,0c-0.3,0.1-0.3,0.6-0.7,0.7c0-0.2,0.3-0.1,0.2-0.4c-0.5,0.1-0.7,0.6-1.2,0.7c-0.3-0.9-1.1-1.7-1.2-2.6
			c0-0.2-0.2,0.1-0.4,0c-0.1-0.1-0.1-0.3,0-0.4c-0.1-0.1-0.2,0.1-0.4-0.1c0-0.1,0.1-0.2,0.1-0.3c-0.1-0.2-0.2,0-0.4,0
			c0-0.2,0-0.4-0.1-0.4c-0.2,0.3-0.3-0.2-0.7-0.1c-0.1-0.3,0.2-0.3,0.1-0.6c-0.7,0.2-1.3,0.2-2.2,0.2c-0.6,0.6-1.5-0.3-1.8-0.5
			c0.1-0.2,0.2-0.4,0.3-0.5c-0.2-0.3-0.2,0.2-0.4,0.1c0.5-0.7,0.8-1.6,1.3-2.2c0.2,0.1-0.2,0.1-0.1,0.3c0.4,0,0.6-0.3,0.8-0.4
			c0.2,0.1-0.2,0.3-0.2,0.4c0.2-0.1,0.4-0.4,0.7-0.4c0,0.2-0.3,0.3-0.3,0.5c0.2,0.1,0.4-0.5,0.7-0.5c-0.1,0.1-0.2,0.2-0.2,0.4
			c0.2,0.2,0.4-0.3,0.5-0.4c0.2,0.1-0.2,0.2-0.1,0.4c0.5-0.1,0.5-0.6,1-0.6c-0.1,0.2-0.3,0.3-0.4,0.5c0.3,0.1,0.4-0.1,0.1,0.3
			c0.3,0,0.4-0.3,0.6-0.4c0.1,0,0,0.1,0,0.2c0.4,0,0.5-0.4,0.8-0.4c0,0.2-0.3,0.2-0.2,0.4c0.3-0.1,0.3-0.3,0.7-0.1
			c-0.2,0.6-0.8,0.9-1.1,1.3c0.6-0.3,0.9-0.9,1.3-1.2c0.1,0.5-0.6,0.6-0.7,1.1c0.4,0,0.4-0.4,0.7-0.4c0,0.2,0.1,0.2,0.2,0.3
			c0.4-0.4,1.1-0.1,1.6-0.4c0.4,0.2,1.3,0.2,1.1,0.7c0.5-0.2,0.3,0.6,0.8,0.4c0,0.5-0.5,0.5-0.4,1c0.3-0.2,0.4-0.5,0.7-0.7
			c0.2,0.3-0.3,0.4-0.2,0.9c0.4,0,0.2-0.5,0.5-0.4c0.2,0.4-0.3,0.6-0.3,1c0.3,0,0.3-0.3,0.4-0.4c0.2,0.4-0.5,0.7-0.4,1.3
			c0.3-0.1,0.2-0.5,0.5-0.5c0.2,0-0.1,0.2,0,0.3c0,0.2,0.2-0.1,0.3-0.2c0.1,0.1-0.1,0.4-0.2,0.6c0.1,0.1,0.6-0.1,0.6-0.3
			c0.2,0-0.1,0.2,0,0.3c0.5,0.3,0.9-0.6,1.2-0.9c-0.1-0.2-0.3,0.1-0.3,0.1c0-0.3,0.1-0.9,0.1-1.1c0-0.1-0.1-0.2-0.3-0.1
			c-0.1-0.4,0-0.5,0.1-0.8c0-0.1-0.1-0.1-0.1-0.1c-0.2,0-0.2,0.2-0.3,0.3c-0.1-0.3,0-0.7-0.4-0.6c0-0.2,0-0.4,0.1-0.4
			c-0.2-0.2-0.2,0-0.4,0c0.1-0.5-0.2-0.6-0.1-1c-0.3,0-0.2,0.3-0.4,0.2c0.2-0.3,0.3-0.6,0.3-1c0-0.2-0.3,0-0.4-0.1
			c0-0.2,0.3-0.4,0.1-0.7c-0.1,0.1-0.3,0.2-0.4,0.4c-0.1,0,0.1-0.4,0.1-0.5c0.4,0.3,0.7,0,1-0.1c0,0.4-0.3,0.4-0.4,0.7
			c0.2,0.1,0.4-0.1,0.6-0.2c0.2,0.1-0.1,0.2-0.1,0.4c0.2,0,0.2-0.2,0.4-0.1c0,0.1-0.1,0.1-0.1,0.2c0.1,0.2,0.4-0.1,0.4,0.1
			c0,0.1-0.1,0.2-0.1,0.3c0.4,0,0.6,0,0.6,0.4c0.4-0.1,0.6,0.5,0.9,0.6c0.1,0.1,0.4-0.1,0.3,0.2c0.7,0,0.9,0.6,1.5,0.7
			c0,0.1-0.1,0.2-0.1,0.3c1.1,0.4,1.2,1.7,1.3,2.7c-0.2,0.1-0.2,0.3-0.4,0.4c0.4,0.7-0.2,1.4-0.4,1.9c0,0.7,0,1.7,0.1,2.5
			c0.2,1.4,1.1,2,0.9,3.5c0,0.1,0.1,0,0.2,0c0,0.4-0.2,0.6-0.1,1c0.2,0,0.1-0.4,0.2-0.4c0.2,0.3-0.1,0.7,0,1.1c0,0.1,0.1,0.1,0.1,0
			c0.3,1,0,1.9-0.1,3c0.2,0,0.2-0.2,0.3-0.3c0.1,0.2-0.2,0.8-0.2,1.2c0,0.1,0.1,0.2,0.1,0.1c0.1,1.7,0.4,4.6,0,6
			c0.2,0,0.1-0.2,0.2-0.3c0.2-0.1-0.3,0.7-0.1,0.8c0.2,0,0.2-0.2,0.3-0.3c0.2,0.2,0,0.6-0.2,0.7c-0.2-0.3-0.4,0.1-0.4-0.3
			c-0.3-0.1-0.1,0.3-0.4,0.2c0.1-0.4-0.7,0.1-0.6-0.4c-0.4,0.1-0.2,0.7-0.5,0.8c-0.1-0.1-0.2-0.3-0.2,0c-0.2-0.1,0-0.3,0-0.4
			c-0.2,0.2-0.4,0.5-0.5,0.7c-0.2-0.1,0.1-0.5,0.1-0.7c-0.3,0.4-0.4,0.9-0.4,1.5c-0.2,0-0.2-0.2-0.2-0.4c-0.2,0.1-0.3,0.2-0.3,0.4
			c0,0.2,0.1,0.5,0,0.8c0.1,0.2,0.2,0,0.4,0.1c0,0.2,0,0.6,0.3,0.5c-0.2,0.3-0.1,0.8-0.2,1.2C95.6,46.6,95.6,47.3,95.3,47.1z
			 M90.4,16.2c0.1,0.1,0,0.3-0.2,0.3C90.1,16.3,90.2,16.2,90.4,16.2z M96.1,46.5c0-0.3,0-0.4,0.1-0.6C96.4,45.9,96.3,46.5,96.1,46.5
			z M97.8,46.7c0.6,0.6,1.2,1.2,1.3,2.2C98.6,48.2,98.2,47.5,97.8,46.7z M96.7,44.6c-0.2,0.2-0.3,0.5-0.2,0.8c0,0.2,0.2,0.4,0.3,0.5
			c0.3,0.1,0.4-0.4,0.6-0.1c0.1,0.4-0.4,0.2-0.4,0.4c0.1,1.6,1.4,2,1.9,3.3c-1.1-0.1-0.8-1.7-1.8-2c0-0.2,0-0.4-0.1-0.5
			c-0.1,0-0.1,0.1-0.1,0.1c-0.1-0.3-0.1-0.6-0.4-0.5c0.1-0.3,0-0.8-0.1-1.2c-0.1-0.5-0.2-1.1,0.3-1.4c1.5,0.6,2.8,1.4,4.2,2.1
			C99.3,46.1,98.6,44.3,96.7,44.6z M101.1,26.1c-0.2,0.4-0.3,0.7-0.6,1C100.5,26.9,100.8,26.3,101.1,26.1z M100.1,27
			c-0.1-0.2,0.3-0.5,0.4-0.7C100.7,26.2,100.2,26.8,100.1,27z M100.7,25.9c0-0.1,0.1-0.7,0.4-0.7C101,25.4,100.9,25.7,100.7,25.9z
			 M100.3,26c-0.1-0.2-0.2-0.4-0.2-0.7c0.4-0.1,0.6-0.3,0.7-0.6C100.8,25,100.5,25.7,100.3,26z M100.8,40.7c-0.6-0.3-0.2-1-0.2-1.5
			c-0.1-2.1,0-4.6-0.2-6.7c0.3-0.5,0.6-1,0.8-1.6c0,0.5-0.5,1.3-0.7,1.8c0.5-0.2,0.6-0.8,0.8-1.3c0.3,0.8,0.3,1.7,0.1,2.4
			c0.1,0.3,0.2,0,0.4,0c0,0.3-0.2,0.4-0.2,0.7c0,0.1,0.2,0.1,0.3,0.1C101.1,36.5,102.1,39.2,100.8,40.7z M101.3,48
			c-0.1-0.3,0.3-0.1,0.3-0.3C101.8,47.8,101.6,48.1,101.3,48z M101.5,46.4c0.3-0.1,1.2-0.5,1.3-0.1C102.2,46.3,102,46.7,101.5,46.4z
			 M102.6,18c0.3,0.3-0.2,0.5-0.3,0.7C102.1,18.5,102.6,18.2,102.6,18z M106.2,11.6c-0.8-1.2-0.9-3.2-2.2-3.8c0.1,0.6,0.7,1.2,1,1.9
			c0.4,0.9,1,2,0.7,3.1c-0.4-0.1-0.3-0.6-0.7-0.7c-0.3,0-0.3,0.3-0.4,0.4c-0.2,0-0.1-0.4-0.2-0.4c-0.5,0.1,0,0.7-0.3,0.9
			c-0.1-0.1,0-0.1,0-0.2c-0.9,0.1-1.5,0.6-2.1,1c0.1-0.3,0.3-0.4,0.4-0.7c-1.3,0.6-2.4,2-3.9,2.6c-0.2-0.1,0.3-0.2,0.4-0.4
			c-0.6,0.1-0.7,0.1-1.3,0.2c0-0.2,0.3-0.1,0.3-0.3c-0.1-0.2-0.4,0.2-0.5,0.2c-0.1-0.1,0-0.1,0-0.2c-0.3,0.2-0.5,0-0.9-0.1
			c0-0.1,0.1-0.1,0.1-0.2c-0.2-0.1-0.2,0.1-0.4,0.1c0.2-0.5-0.7-0.1-0.7-0.7c-0.8,0.4-1.2-0.8-2.3-0.6c-0.3,0,0.1-0.1,0-0.3
			c-0.3-0.2-0.5,0.4-0.9,0.4c0.1-0.1,0.1-0.2,0.1-0.3c-0.2,0-0.5,0.5-0.5,0.1c0.1,0,0.2-0.1,0.2-0.1c-0.5,0-0.6,0.3-0.9,0.4
			c-0.2-0.2,0.3-0.4,0.3-0.7c-0.4,0.1-0.5,0.4-0.7,0.6c-0.2-0.1,0.1-0.3,0.1-0.4c-0.2,0-0.3,0.1-0.4,0.2c-0.2,0,0-0.2,0.1-0.2
			c-0.2-0.2-0.3,0.6-0.7,0.2c-0.2-0.4,0.4-0.6,0.6-0.9c-0.2-0.1-0.5,0.3-0.7,0.5c-0.1-0.1,0-0.1,0-0.2c-0.3,0.1-0.3,0.6-0.7,0.4
			c-0.5,1.2-0.9,2.4-2.5,2.5c0.8-0.6,1.7-1.1,2-2.2c-0.2-0.8,0.4-1.2,0.5-1.9c0-0.2-0.1-0.2-0.3-0.2c0.7-0.8,1.5-1.9,1.4-3.2
			c-0.6,0.4-0.6,1.2-0.9,1.9c-0.3,0.2-0.5,0.6-0.8,0.9c-0.2-0.3,0.4-0.9,0.1-1.4c-0.6,0.4-0.5,1.7-0.7,2.4c0,0.1-0.2,0.2-0.2,0.4
			C87,13,86.3,12.9,86,12.4c0.1-1.4,1.3-1.7,1.2-3.3c-0.6,0.3-0.6,1.2-1,1.8c-0.5,0.1-0.9,0.2-1.1,0.4c-0.9,0-1-0.8-1.6-1.1
			c0.5-0.7,1.4-1.2,1.5-2.2c0.1-0.5-0.1-1.2,0-1.7c-0.9,0.7-0.4,2.9-1.6,3.2c-1.2,0.2-1.9-0.7-1.4-1.7c1.1-0.1,1.3-1.2,1.9-1.9
			c-0.9-0.2-0.8,1.3-1.6,1.5c-0.3,0.1-0.4-0.2-0.7-0.2c-0.5-0.1-1.2,0.1-1.4-0.4c-0.1-0.4,0.4-0.3,0.4-0.7c-0.6,0.4-0.9-0.3-1.6-0.3
			c-0.1-0.2,0.3-0.6-0.1-0.8c-0.1,0-0.1,0.2-0.1,0.3c-0.4-0.2-0.5-0.6-0.9-0.7c0.3-0.4,1.2-0.2,1.3-0.8c-0.7,0-2.1,1.1-2.3-0.2
			c0.9-0.4,2-1,1.9-2.1C78,1.8,76,4.1,75.8,2c0.9-0.1,1.6-0.5,1.8-1.3c0-0.2-0.2-0.1-0.2-0.2c-0.4,0.5-1.1,1.1-1.9,1
			c0.4-0.5,1.1-0.7,1.2-1.5c-0.7-0.1-1.3,1.6-2.2,0.8c0.6-0.6,1.2-1.1,1.7-1.9c-0.7-0.3-1.1,0.9-1.8,1.1c-0.4-0.3-0.7-0.7-1-1.1
			c0.2-0.1,0.5-0.1,0.5-0.4C73.4-2,73-1.1,72.3-1.2c-0.2-0.2-0.5-0.4-0.5-0.7c0.2-0.2,0.7-0.2,0.8-0.5c-0.1-0.5-0.6-0.2-0.9-0.1
			c-1-0.4-1.7-1-2.9-1.1c-0.9-1.4-2.7-2.3-4.3-2.7c-0.7-1-2.1-1.2-3.4-1.5c-0.2-0.2,0.1-0.1,0.1-0.4c-0.9-0.8-2.2,0.2-3-0.5
			c-0.7,0.6-2,0.3-2.7,0.7c-1.2-0.6-1.7,0.5-2.3,1c-0.6-0.1-0.7,0.3-1,0.5C51-7,52.7-8.2,53.5-8.5c0.3-0.1,0.6-0.1,0.8-0.1
			c1-0.4,1.9-1.2,3.4-1.3c0.5,0,1,0.1,1.4,0c1.4-0.2,3.1-0.8,4.8-1c1.2-0.1,2.8-0.1,4.2,0.1c0.4,0.1,0.9,0.2,1.3,0.3
			c1,0.1,2.2-0.1,3,0.1c0.3,0.1,0.5,0.5,0.9,0.5c1.5,0.3,2.6,0.9,3.9,1.5c1.8,0.8,2.8,1.7,3.9,3c0.6,0,0.8,0.8,1.3,1
			c0.3,0.1,0.7,0,1,0.1c0.8,0.3,1,1.1,1.6,1.7c0.7,0.2,1.4,0.5,1.7,1.3c0.1,0.2,0,0.5,0.1,0.7c0.1,0.3,0.4,0.4,0.7,0.7
			c0.2,0.3,0.4,0.7,0.6,1c0.6,0.8,1.5,1.7,1.6,3c-0.6,0.7-0.5,2.1-1,3c0.8,0.1,0.8-1.3,1-2.1C90,5.3,90,6,90.1,6.7
			c0.5-0.9,0.1-2.7-0.1-4c1.5,0,3.1-0.3,4.6-0.1c0.8,0.1,1.4,0.5,2.1,0.4c0.2,0,0.4-0.1,0.7-0.1c1.3,0,1.8,1.3,2.8,1.6
			c-0.1-1.1-1.4-1.6-2.2-2.1c0.4-0.5,1.3-0.7,1.7-1.3c0.1-0.2,0.1-0.5,0.2-0.8c0.2-0.4,0.6-0.6,0.8-1c0.4-0.6,0.9-2.1,1-3
			c0.1-1.1,1-2,1.2-3.1c0.8-0.3,1.1-1.1,1.6-1.6c0.9,0.6,2.4,0.9,3.9,1.1c1.5,0.2,2.7,0.5,3.6,0.6c0.7,0.1,2.1,0.1,2.5,0.4
			c0.8,0.6,0.4,2.7-0.1,3.4c-0.7-0.3-1.2-0.8-2.2-0.9c0.3,0.5,1.2,0.6,1.7,0.9c0,0.3,0.1,0.4,0.1,0.7c-0.1,0-0.1-0.2-0.3-0.1
			c0,0.4,0.3,0.4,0.3,0.7c0,0.3-0.1-0.1-0.3,0c-0.1,0.3,0.3,0.4,0.1,0.6c-0.2,0-0.3-0.2-0.5-0.2c-0.1,0.2,0.4,0.4,0.3,0.8
			c-0.4-0.1-0.4-0.6-0.9-0.5c0.2,0.7,1,0.7,0.9,1.6c-0.5-0.6-1.5-0.8-2.2-1.3c0,1,1.6,1.2,1.9,2.2c-0.7,0.3-1.1-0.6-1.6-1
			c-0.5-0.5-1.1-0.7-1.9-0.9c0.8,0.9,1.8,1.7,2.7,2.6c-0.3,0.3-0.1,1-0.6,1c-0.7-0.3-0.7-1.2-1.6-1.3c-0.1,0-0.1,0.2,0,0.3
			c0,0,0,0,0.1,0c0,0,0,0-0.1,0c-0.5-0.1-0.9-1-1.6-1.1c0.7,1.1,2.3,1.3,2.7,2.8c-0.1,0.1-0.2,0.2-0.4,0.2c-0.5-0.5-0.8-1.2-1.5-1.6
			c0,0.8,1.6,1.3,1.1,2.4c-0.7-0.2-0.9-1.1-1.7-1.3c0.1,0.6,2.5,2.3,1,3c-0.7-0.9-0.9-2.3-2.1-2.8c0.1,0.6,0.8,1.3,1.2,2.2
			c0.3,0.7,0.8,1.9,0.2,2.6c-0.9-1.6-1.3-3.7-2.9-4.5c-0.1,0-0.1,0.1-0.1,0.1c0.8,1.7,1.9,3,2.4,5c-1.4-1-1.4-3-2.8-4
			c-0.8-0.5-1.8-0.8-2.7-1.2c-0.9-0.4-1.6-1-2.5-1.3c0,0.5,0.5,0.5,0.7,0.7c-0.8,0-1.4-0.9-2.2-1c1.2,2,4.4,1.9,5.4,4.2
			c-1.2-0.5-1.8-1.6-3.3-1.9c0.4,0.4,0.8,0.7,1.3,1c0.2,1.1,1.3,1.3,2,2c0.5,0.5,0.7,1.2,0.9,1.9C106.1,10.2,106.5,10.9,106.2,11.6z
			 M105.2,5.9c-0.6-0.6-1-1.1-1.9-1.5c1.2,0,1.8,1.1,3.1,1.3c0.9,1.2,1.8,2.3,2.1,4.1c-0.5-0.1-0.7-0.7-0.9-1
			c-0.3-0.5-0.5-1-0.8-1.5C106.3,6.8,105.7,6.4,105.2,5.9z M106.3,8.3c-0.2-0.2-0.3-0.4-0.4-0.7C106.2,7.7,106.2,8,106.3,8.3z
			 M108.2,25.4c0.7,0.2-0.1,0.7-0.2,1C107.9,26.2,108.2,25.8,108.2,25.4z M106.3,8.4c0.5,0.8,1,1.6,1.4,2.6
			C106.4,11.2,106.7,9.3,106.3,8.4z M107.7,26.7c0.1,1.1-0.7,2.2-1,3.2C106,28.6,107.3,27.6,107.7,26.7z M107.7,30.7
			c-1.1-1.2,0.3-3,0.9-4.2c0.2,0.3-0.2,1-0.3,1.9C108.2,29.4,108.5,30.4,107.7,30.7z M109.2,29.4c0,0.5,0.4,1.6-0.7,1.5
			c0.7-1.2,0.1-3.1,0.4-4.5c0.2-0.1,0.3,0.1,0.4,0.1C109.1,27.3,109.2,28.4,109.2,29.4z M109.8,30.6c0.3-1.4-0.5-2.6,0.1-3.8
			c0.2-0.1,0.2,0.1,0.4,0.1C109.9,28,110.7,29.9,109.8,30.6z M109.6,25.5c0.7-0.2,1.3,0,2.1,0C111.4,26,109.8,25.9,109.6,25.5z
			 M126.6,21.6c-0.2,0.2-0.3-0.3-0.7-0.1c-0.1,0.3,0.7,0.7,0.3,1.3c-0.4,0-0.6-0.4-0.9-0.1c0.1,0.3,0.9,0.5,0.4,1
			c-0.3-0.1-0.4-0.5-0.8-0.5c0.2,0.5,0.9,1.2,0.1,1.6c-0.5,0-0.5-0.5-1.1-0.4c0.1,0.5,0.5,0.6,0.7,0.9c0.1,0.2-0.1,0.2-0.1,0.4
			c-0.3,0.2-0.7,0.2-0.8,0.4c-0.1,0.3,0.3,0.5,0.1,0.7c-0.3,0-0.6,0.1-0.7-0.1c-0.1,0-0.2,0.1-0.2,0.2c0,0.4,0.4,0.5,0.4,0.9
			c-0.6,0.8-1.1-0.2-1.5-0.6c-0.3,0.1,0,0.8-0.1,1.2c-0.5,0.6-1.1,1.1-1.8,1.6c-0.1-0.4,0.3-1.2-0.1-1.6c-0.4,0.4,0,1.5-0.5,1.8
			c0-0.9-0.1-1.7-0.4-2.2c-0.2,0.8,0.5,1.9,0,2.7c-0.1,0-0.2,0-0.4,0c-0.2-0.7-0.2-1.6-0.5-2.1c-0.3,0.7,0.5,2.5-0.4,2.6
			c-0.7,0.1-0.4-0.5-0.8-0.7c-0.2,0.1,0,0.5-0.3,0.4c0-0.2,0-0.4-0.1-0.4c-0.3,0.1,0,0.8-0.2,1c-0.1,0-0.1,0.1-0.2,0.1
			c-0.5-0.1-0.2-0.9-0.4-1.3c-0.6,0.1-0.1,0.7-0.2,1.3c-0.4-0.2-0.3,0.1-0.4,0.3c-0.3-0.4-0.1-1.2-0.5-1.4c-0.1,0.3,0,1,0,1.5
			c-0.3-0.4-1.3,0-1.6-0.3c0-0.5,0.3-1.2,0-1.6c-0.1,0.3-0.1,0.6-0.1,1c-0.5-0.3-0.3,0.6-0.8,0.5c0-0.3,0.1-0.5,0.1-0.8
			c-0.5,0.1-0.5,0.8-1.1,0.8c0.3-0.5,0.7-1.2,0.4-1.9c-0.3-0.1-0.2,0.3-0.3,0.4c-0.2-0.5,0-1.3-0.1-1.8c0.1,0,0.1,0.2,0.2,0.2
			c0.2-0.1,0.2-0.5,0.1-0.7c0.5,0,0.4,0.5,0.7,0.7c0.1-0.1,0.2-0.2,0.1-0.4c0.6-0.2,1,0.3,1.5,0.1c0.1,0.2,0.2,0.4,0.1,0.7
			c0.4,0.1,0.3-0.7,0.1-0.7c0.1-0.2,0.3,0.1,0.4,0.1c0.2-0.4,0.8-0.5,1-0.8c2.9-0.4,5.6-1,6.9-3.1c1.3-0.5,2.6-1.7,2.7-3.4
			c0-0.6,0-1.6,1-1.4c0.3,0.1,0.4,0.5,0.7,0.7c-0.4,0.1-0.8,0.2-1,0.5c0.2,0.2,0.8-0.1,1.1,0.1C126.6,21,126.6,21.3,126.6,21.6z"/>
		<path fill="#720018" d="M46.1,14.3c-0.2,0-0.3,0-0.5,0c-0.3-0.2-0.2-0.7-0.5-0.7C44.9,14.3,45.8,15,46.1,14.3z"/>
	</g>
</g>
</svg>
