<?xml version="1.0" standalone="no"?>
<!DOCTYPE svg PUBLIC "-//W3C//DTD SVG 1.1//EN" "http://www.w3.org/Graphics/SVG/1.1/DTD/svg11.dtd" >
<svg xmlns="http://www.w3.org/2000/svg" xmlns:xlink="http://www.w3.org/1999/xlink" version="1.1">
<metadata></metadata>
<defs>
<font id="aachen_medium_plainregular" horiz-adv-x="819" >
<font-face units-per-em="2048" ascent="1638" descent="-410" />
<missing-glyph horiz-adv-x="436" />
<glyph horiz-adv-x="0" />
<glyph horiz-adv-x="682" />
<glyph unicode=" "  horiz-adv-x="436" />
<glyph unicode="&#x09;" horiz-adv-x="436" />
<glyph unicode="&#xa0;" horiz-adv-x="436" />
<glyph unicode="!" horiz-adv-x="628" d="M137 1221q0 71 50 116t128 45q77 0 128 -45t51 -114q0 -22 -15 -117l-88 -690h-151l-90 690q0 1 -3 24t-6.5 50.5t-3.5 40.5zM158 139q0 65 45.5 110.5t111.5 45.5q65 0 110.5 -45.5t45.5 -110.5t-46 -111t-110 -46q-66 0 -111.5 46t-45.5 111z" />
<glyph unicode="&#x22;" horiz-adv-x="817" d="M109 1257q0 57 38 96.5t95 39.5q55 0 93 -38.5t38 -94.5q0 -32 -17 -82l-73 -197h-82l-74 197q-18 53 -18 79zM444 1257q0 57 38 96.5t93 39.5q57 0 95.5 -38.5t38.5 -94.5q0 -27 -19 -82l-72 -197h-83l-72 197q-19 48 -19 79z" />
<glyph unicode="#" d="M68 0v1366h684v-1366h-684zM82 14h655v1338h-655v-1338z" />
<glyph unicode="$" horiz-adv-x="1124" d="M96 129v346h314v-16q0 -96 18 -133q37 -72 135 -72q66 0 107 39t41 102q0 64 -45 102.5t-183 92.5q-151 59 -200 86q-94 49 -138.5 126.5t-44.5 190.5q0 157 82.5 256.5t237.5 130.5l6 2v95h270v-93q193 -37 314 -143v-323h-305v14v8v37q0 69 -39.5 107t-108.5 38 q-63 0 -104 -34.5t-41 -88.5q0 -46 36 -78.5t125 -66.5l132 -49q182 -69 252.5 -156t70.5 -243q0 -164 -84.5 -272.5t-241.5 -143.5l-6 -2v-94h-270v92q-173 33 -330 143z" />
<glyph unicode="%" horiz-adv-x="1454" d="M68 1040q0 121 7.5 171t30.5 81q63 84 252 84q186 0 254 -84q22 -33 29.5 -83t7.5 -169q0 -109 -5.5 -159.5t-20.5 -79.5q-58 -101 -265 -101q-204 0 -264 103q-15 28 -20.5 78t-5.5 159zM231 0l779 1366h215l-779 -1366h-215zM274 940q2 -63 21 -91t63 -28t64 28t20 91 v18v160v19q0 63 -20 90.5t-64 27.5t-64 -27.5t-20 -90.5v-19v-160v-18zM805 330q0 119 7.5 169t29.5 81q65 86 254 86q184 0 254 -86q21 -30 27.5 -78.5t8.5 -171.5q0 -107 -6.5 -158.5t-21.5 -81.5q-57 -100 -262 -100q-210 0 -265 102q-15 26 -20.5 77t-5.5 161zM1012 229 q0 -63 20 -90.5t64 -27.5q43 0 63.5 28t20.5 90v17v162v16q-2 65 -21 93t-63 28t-64 -29t-20 -92v-16v-162v-17z" />
<glyph unicode="&#x26;" horiz-adv-x="1163" d="M82 395q0 269 211 338q-189 88 -189 299q0 173 120.5 269t338.5 96q117 0 220.5 -29.5t220.5 -95.5l10 -4v-242h-305q-6 44 -41 70t-88 26q-63 0 -106.5 -41t-43.5 -102q0 -63 38.5 -100t104.5 -37h146v45h295v-45h53v-224h-53v-618h-549q-116 0 -184 27t-123 94 q-76 95 -76 274zM408 453q0 -106 67 -146q34 -20 119 -20h125v331h-125q-56 0 -82 -6t-49 -24q-55 -40 -55 -135z" />
<glyph unicode="'" horiz-adv-x="483" d="M109 1257q0 57 38 96.5t95 39.5q55 0 93 -38.5t38 -94.5q0 -32 -17 -82l-73 -197h-82l-74 197q-18 53 -18 79z" />
<glyph unicode="(" horiz-adv-x="718" d="M158 707q0 232 96.5 448.5t300.5 443.5l143 -98l-12 -22q-108 -187 -165.5 -381t-57.5 -373q0 -228 76 -459q56 -165 147 -334l12 -24l-143 -98q-202 226 -299.5 445.5t-97.5 451.5z" />
<glyph unicode=")" horiz-adv-x="718" d="M20 -92l13 24q101 184 155 363q68 217 68 430q0 177 -57.5 374t-163.5 380l-15 22l144 98q205 -227 301 -443.5t96 -448.5t-97.5 -451.5t-299.5 -445.5z" />
<glyph unicode="*" horiz-adv-x="575" d="M96 1159v88h115l-57 101l77 45l58 -101l57 101l78 -45l-57 -101h114v-88h-114l57 -100l-78 -45l-57 100l-58 -100l-77 45l57 100h-115z" />
<glyph unicode="+" d="M68 0v1366h684v-1366h-684zM82 14h655v1338h-655v-1338z" />
<glyph unicode="," horiz-adv-x="487" d="M106 133q0 62 41 104t101 42q64 0 103.5 -44.5t39.5 -115.5q0 -82 -53 -159t-148 -132l-49 66q44 32 64.5 54.5t32.5 53.5q-60 4 -96 40.5t-36 90.5z" />
<glyph unicode="-" horiz-adv-x="684" d="M96 434v197h492v-197h-492z" />
<glyph unicode="." horiz-adv-x="487" d="M96 129q0 61 43 104t105 43t104.5 -43t42.5 -104q0 -60 -43 -103.5t-104 -43.5t-104.5 43.5t-43.5 103.5z" />
<glyph unicode="/" horiz-adv-x="1024" d="M0 -90l752 1544h272l-752 -1544h-272z" />
<glyph unicode="0" horiz-adv-x="1114" d="M96 332v61v580v61q6 359 461 359q227 0 344 -91t117 -268v-61v-580v-61q-6 -359 -461 -359q-228 0 -344.5 91t-116.5 268zM410 434q0 -55 4.5 -79.5t19.5 -45.5q44 -63 123 -63q38 0 71 17t52 46q15 22 20 45.5t5 73.5v27v454v23q0 54 -5 78.5t-20 46.5q-44 63 -123 63 q-38 0 -71 -17t-52 -46q-15 -21 -19.5 -45t-4.5 -76v-27v-454v-21z" />
<glyph unicode="1" horiz-adv-x="600" d="M76 0v223q40 11 55.5 34.5t15.5 74.5v26v650v26q-2 53 -16.5 75.5t-54.5 31.5v225h385v-1008v-26q0 -53 15 -76t56 -33v-223h-456z" />
<glyph unicode="2" horiz-adv-x="1067" d="M68 0v315q0 121 37.5 182t177.5 167l245 192q84 62 110 95t26 73q0 54 -37.5 88.5t-96.5 34.5q-63 0 -102 -41.5t-39 -108.5v-102h-303v367q206 127 449 127q228 0 339 -90t111 -273q0 -97 -16.5 -152t-63 -107.5t-153.5 -135.5l-289 -225q-39 -31 -56.5 -61.5 t-17.5 -84.5h180q68 0 88 53q7 25 7 117h335v-430h-931z" />
<glyph unicode="3" horiz-adv-x="1058" d="M55 90v330h316v-25q0 -72 36.5 -110.5t102.5 -38.5q67 0 108 45.5t41 120.5q0 78 -42.5 118.5t-122.5 40.5h-31h-166v234h160h20q182 0 182 160q0 69 -41 111t-110 42q-63 0 -100 -39t-37 -104v-17h-303v314q230 121 456 121q218 0 337.5 -95.5t119.5 -269.5 q0 -127 -56 -200t-188 -119q129 -34 191.5 -116t62.5 -218q0 -198 -120.5 -300t-352.5 -102q-229 0 -463 117z" />
<glyph unicode="4" horiz-adv-x="1081" d="M41 362v291l473 713h395v-743h90v-261h-90v-30q0 -52 15.5 -75t56.5 -34v-223h-457v223q40 11 56 34.5t16 74.5v30h-555zM344 623h252v381z" />
<glyph unicode="5" horiz-adv-x="1103" d="M96 94v355h316q0 -80 8 -111q12 -40 52 -66t87 -26q89 0 127 69q21 40 21 134q0 122 -27 161q-41 54 -117 54q-73 0 -125 -64h-342v766h901v-369h-297q-2 51 -29.5 78t-78.5 27h-180v-246q114 43 223 43q103 0 192 -40t140 -109q38 -51 54.5 -119t16.5 -178 q0 -127 -17 -201.5t-58 -128.5q-56 -72 -159 -111t-239 -39q-125 0 -230.5 27.5t-238.5 93.5z" />
<glyph unicode="6" horiz-adv-x="1118" d="M96 360v33v584v47q3 369 455 369q251 0 453 -99v-286h-302q-6 63 -42 96t-99 33q-66 0 -108.5 -41.5t-42.5 -106.5v-39v-135q68 37 125.5 52.5t128.5 15.5q205 0 311 -140q35 -47 48 -111.5t13 -193.5q0 -144 -19 -214.5t-73 -127.5q-114 -123 -393 -123q-280 0 -393 146 q-62 79 -62 241zM408 438q0 -103 34.5 -147.5t114.5 -44.5q82 0 117 44.5t35 147.5t-35.5 149t-116.5 46q-79 0 -114 -46t-35 -149z" />
<glyph unicode="7" horiz-adv-x="993" d="M35 909v457h938v-238l-481 -1128h-336l469 1106h-115h-31q-84 0 -116.5 -30.5t-32.5 -108.5v-35v-23h-295z" />
<glyph unicode="8" horiz-adv-x="1114" d="M68 375q0 138 47 217.5t151 114.5q-97 43 -137.5 110.5t-40.5 186.5q0 112 31.5 185.5t99.5 117.5q127 86 336 86q212 0 336 -86q131 -89 131 -295q0 -123 -39.5 -190.5t-140.5 -114.5q106 -37 153 -115t47 -215q0 -204 -115.5 -304t-351.5 -100q-149 0 -242.5 25 t-156.5 82q-108 102 -108 295zM397 416q0 -92 39.5 -139.5t116.5 -47.5t116.5 47.5t39.5 139.5q0 188 -156 188t-156 -188zM412 969q0 -71 38.5 -113.5t104.5 -42.5q64 0 102.5 42.5t38.5 113.5t-38.5 113t-102.5 42q-66 0 -104.5 -42t-38.5 -113z" />
<glyph unicode="9" horiz-adv-x="1118" d="M82 940q0 128 18 198t64 124q113 131 407 131q291 0 396 -150q33 -45 44 -101.5t11 -180.5v-566v-55q-3 -182 -115 -274.5t-329 -92.5q-255 0 -469 105v317h305v-20q0 -63 38.5 -100t104.5 -37q74 0 113 43.5t39 126.5v36v134q-140 -74 -256 -74q-87 0 -163.5 27.5 t-119.5 74.5q-54 54 -74 144q-14 55 -14 190zM414 942q0 -86 37.5 -131t109.5 -45q148 0 148 180q0 184 -148 184q-76 0 -111.5 -45.5t-35.5 -142.5z" />
<glyph unicode=":" horiz-adv-x="487" d="M96 129q0 61 43 104t105 43t104.5 -43t42.5 -104q0 -60 -43 -103.5t-104 -43.5t-104.5 43.5t-43.5 103.5zM96 883q0 60 43.5 103.5t104.5 43.5t104 -43.5t43 -103.5q0 -62 -43 -105t-104 -43q-62 0 -105 43.5t-43 104.5z" />
<glyph unicode=";" horiz-adv-x="487" d="M96 883q0 60 43.5 103.5t104.5 43.5t104 -43.5t43 -103.5q0 -62 -43 -105t-104 -43q-62 0 -105 43.5t-43 104.5zM100 133q0 62 41.5 104t102.5 42q63 0 102 -44.5t39 -115.5q0 -83 -53 -159t-148 -132l-47 66q43 31 62.5 53.5t33.5 54.5q-60 6 -96.5 41.5t-36.5 89.5z " />
<glyph unicode="&#x3c;" d="M68 0v1366h684v-1366h-684zM82 14h655v1338h-655v-1338z" />
<glyph unicode="=" d="M68 0v1366h684v-1366h-684zM82 14h655v1338h-655v-1338z" />
<glyph unicode="&#x3e;" d="M68 0v1366h684v-1366h-684zM82 14h655v1338h-655v-1338z" />
<glyph unicode="?" horiz-adv-x="1085" d="M109 940v317q190 136 436 136q459 0 459 -383q0 -144 -52 -224q-20 -32 -54 -61.5t-103 -75.5l-90 -59q-81 -54 -99 -80t-18 -90h-303v86q0 96 19 141.5t79 87.5l166 119q91 64 116 93t25 71q0 56 -38 90.5t-99 34.5q-92 0 -129 -72q-10 -20 -13 -42t-3 -75v-14h-299z M279 139q0 64 46 110t111 46q64 0 110 -45.5t46 -110.5t-46 -111t-110 -46t-110.5 46t-46.5 111z" />
<glyph unicode="@" d="M68 0v1366h684v-1366h-684zM82 14h655v1338h-655v-1338z" />
<glyph unicode="A" horiz-adv-x="1089" d="M27 0v223q34 10 49.5 36.5t29.5 94.5l199 1012h469l209 -1022q14 -65 28.5 -88t49.5 -33v-223h-465v223q72 3 72 64q0 2 -0.5 4.5l-2 10l-3.5 17.5l-3 9l-10 57h-264l-12 -57q-4 -24 -4 -43q0 -59 75 -62v-223h-417zM422 582h186l-98 448z" />
<glyph unicode="B" horiz-adv-x="1161" d="M68 0v223q41 10 56 34t15 75v26v650v26q0 53 -15 75.5t-56 31.5v225h512h30q109 0 170 -11.5t113 -41.5q76 -44 118 -127t42 -189q0 -245 -195 -301q221 -50 221 -319q0 -109 -33 -192t-94 -126q-47 -34 -112 -46.5t-189 -12.5h-26h-557zM453 264h108h43q85 2 122.5 40 t37.5 124q0 85 -38 123.5t-122 38.5h-43h-108v-326zM453 823h110h27q81 0 117 33.5t36 106.5q0 72 -37 105.5t-116 33.5h-27h-110v-279z" />
<glyph unicode="C" horiz-adv-x="1081" d="M96 332v61v584v61q6 355 459 355q112 0 214 -22t230 -73v-385h-294v17q0 56 -5 80.5t-20 46.5q-44 63 -123 63q-38 0 -71 -17t-52 -46q-15 -23 -19.5 -47t-4.5 -78v-23v-448q0 -77 3.5 -101.5t20.5 -46.5q42 -61 123 -61q84 0 123 61q15 24 20 47.5t5 77.5v23v86h294 v-467q-99 -50 -218.5 -78.5t-229.5 -28.5q-221 0 -346 101q-109 84 -109 258z" />
<glyph unicode="D" horiz-adv-x="1144" d="M68 0v223q41 10 56 34t15 75v26v650v26q0 53 -15 75.5t-56 31.5v225h495h41q122 -2 195.5 -24t130.5 -74q64 -60 91.5 -139t27.5 -207v-43v-394v-41q0 -134 -26.5 -211t-92.5 -137q-60 -53 -133 -74.5t-193 -21.5h-41h-495zM453 268h86h30q86 2 126 34t40 101v46v469v45 q-2 71 -41 103t-125 32h-30h-86v-830z" />
<glyph unicode="E" horiz-adv-x="1116" d="M68 0v223q41 10 56 34t15 75v26v650v26q0 53 -15 75.5t-56 31.5v225h966v-422h-295v10q0 79 -28.5 111.5t-98.5 32.5h-24h-135v-275h381v-231h-381v-324h131h28q71 0 98.5 28.5t28.5 106.5v54h295v-457h-966z" />
<glyph unicode="F" horiz-adv-x="1062" d="M68 0v223q41 10 56 34t15 75v26v650v26q0 53 -15 75.5t-56 31.5v225h940v-422h-277v14q0 80 -32 109t-121 29h-125v-269h358v-233h-358v-236v-26q2 -53 16.5 -76t54.5 -33v-223h-456z" />
<glyph unicode="G" horiz-adv-x="1081" d="M96 332v61v584v61q6 355 459 355q229 0 444 -99v-362h-294v16q0 72 -25 109q-19 29 -52 46t-71 17t-71 -17t-52 -46q-15 -23 -19.5 -47t-4.5 -78v-23v-448v-33q0 -79 24 -115q39 -61 123 -61t123 61q25 40 25 115v6v68h-125v215h419v-615q-121 -73 -218.5 -101 t-231.5 -28q-221 0 -337 92t-116 267z" />
<glyph unicode="H" horiz-adv-x="1202" d="M68 0v223q41 10 56 34t15 75v26v650v26q0 53 -15 76t-56 33v223h456v-223q-40 -11 -55.5 -34.5t-15.5 -74.5v-26v-189h297v189v26q-1 52 -16.5 75t-55.5 34v223h457v-223q-41 -10 -56.5 -34t-15.5 -75v-26v-650v-26q0 -52 15.5 -75t56.5 -34v-223h-457v223q40 11 56 34.5 t16 74.5v26v228h-297v-228v-26q2 -53 16.5 -76t54.5 -33v-223h-456z" />
<glyph unicode="I" horiz-adv-x="593" d="M68 0v223q41 10 56 34t15 75v26v650v26q0 53 -15 75.5t-56 31.5v225h456v-225q-40 -9 -55.5 -32.5t-15.5 -74.5v-26v-650v-26q2 -53 16.5 -76t54.5 -33v-223h-456z" />
<glyph unicode="J" horiz-adv-x="604" d="M14 23v202q20 -2 39 -2q56 0 80 26t25 87v33v20v619v26q-1 52 -16.5 75t-55.5 34v223h457v-223q-41 -10 -56.5 -34t-15.5 -75v-26v-670v-25q-2 -83 -12 -128.5t-37 -84.5q-74 -108 -236 -108q-95 0 -172 31z" />
<glyph unicode="K" horiz-adv-x="1116" d="M68 0v223q41 10 56 34t15 75v26v650v26q0 53 -15 76t-56 33v223h456v-223q-40 -11 -55.5 -34.5t-15.5 -74.5v-26v-238l149 231q49 74 57.5 102.5t8.5 117.5v14v131h385v-219q-35 -6 -56 -24t-55 -74l-182 -285l223 -422q34 -64 54.5 -87t52.5 -32v-223h-426v129v14v52 q0 52 -7 76.5t-36 80.5l-21 39l-147 271v-304v-26q2 -53 16.5 -76t54.5 -33v-223h-456z" />
<glyph unicode="L" horiz-adv-x="1048" d="M68 0v223q41 10 56 34t15 75v26v650v26q0 53 -15 75.5t-56 31.5v225h456v-225q-40 -9 -55.5 -32.5t-15.5 -74.5v-26v-740h127q76 0 106.5 26t30.5 91v35v198h278v-618h-927z" />
<glyph unicode="M" horiz-adv-x="1456" d="M68 0v223q41 10 56 34t15 75v26v650v26q0 53 -15 76t-56 33v223h516l155 -649l158 649h492v-223q-40 -11 -56 -34.5t-16 -74.5v-26v-650v-26q2 -53 16.5 -76t55.5 -33v-223h-457v223q41 10 56.5 34t15.5 75v26v537l-232 -895h-149l-224 895v-537v-26q0 -52 16 -75t56 -34 v-223h-403z" />
<glyph unicode="N" horiz-adv-x="1202" d="M68 0v223q41 10 56 34t15 75v26v650v26q0 53 -15 76t-56 33v223h358l350 -704v346v26q-2 53 -16.5 76t-54.5 33v223h434v-223q-41 -10 -56.5 -34t-15.5 -75v-26v-1008h-287l-354 717v-359v-26q1 -52 16.5 -75t55.5 -34v-223h-430z" />
<glyph unicode="O" horiz-adv-x="1114" d="M96 332v702q0 95 24.5 155t80.5 103q124 101 356 101t354 -101q57 -46 82 -106t25 -152v-702q-2 -96 -26 -156t-81 -104q-125 -99 -354 -99q-233 0 -356 99q-57 45 -81 106t-24 154zM410 434q0 -55 4.5 -79.5t19.5 -45.5q44 -63 123 -63q38 0 71 17t52 46q15 22 20 45.5 t5 73.5v504q0 54 -5 78.5t-20 46.5q-44 63 -123 63q-38 0 -71 -17t-52 -46q-15 -21 -19.5 -45t-4.5 -76v-502z" />
<glyph unicode="P" horiz-adv-x="1107" d="M68 0v223q41 10 56 34t15 75v26v650v26q0 53 -15 75.5t-56 31.5v225h534h45q119 -2 191.5 -27.5t124.5 -85.5q57 -67 77 -161q13 -60 13 -193q0 -129 -9 -190t-36 -113q-29 -55 -79 -96t-110 -58q-66 -20 -182 -20h-33h-151v-64v-26q2 -53 16.5 -76t54.5 -33v-223h-456z M453 715h120h19q83 0 115 39t32 139t-32 140t-115 40h-19h-120v-358z" />
<glyph unicode="Q" horiz-adv-x="1114" d="M96 332v61v580v61q0 95 24.5 155t80.5 103q124 101 356 101t354 -101q57 -46 82 -106t25 -152v-61v-580v-61q-2 -80 -17.5 -131.5t-50.5 -91.5q24 -21 90 -62l-118 -203q-72 29 -140.5 69t-97.5 69q-64 -9 -131 -9q-229 0 -352 99q-57 45 -81 106t-24 154zM410 434 q0 -55 4.5 -79.5t19.5 -45.5q44 -63 123 -63q38 0 71 17t52 46q15 22 20 45.5t5 73.5v27v454v23q0 54 -5 78.5t-20 46.5q-44 63 -123 63q-38 0 -71 -17t-52 -46q-15 -21 -19.5 -45t-4.5 -76v-27v-454v-21z" />
<glyph unicode="R" horiz-adv-x="1159" d="M68 0v223q41 10 56 34t15 75v26v650v26q0 53 -15 75.5t-56 31.5v225h532h47q192 -3 283 -74q127 -98 127 -317q0 -138 -51.5 -214.5t-165.5 -105.5q100 -15 144 -63q42 -46 42 -133v-8l-2 -109v-8q0 -46 12 -69q12 -25 49 -44v-221h-344q-15 42 -19.5 85t-4.5 130v117v33 q0 58 -3.5 81t-15.5 43q-17 31 -44.5 42.5t-84.5 11.5h-116v-185v-26q2 -53 16.5 -76t54.5 -33v-223h-456zM453 784h86h22q59 0 86 6t49 23q47 38 47 137q0 91 -41.5 125.5t-148.5 34.5h-18h-82v-326z" />
<glyph unicode="S" horiz-adv-x="1097" d="M82 129v346h313v-16q0 -94 19 -133q17 -34 53.5 -54t81.5 -20q66 0 106.5 40t40.5 103q0 65 -44 103t-183 92q-160 63 -201 86q-182 98 -182 317q0 191 124 297.5t345 106.5q121 0 238.5 -42t201.5 -114v-323h-303v14v8l-2 37q1 69 -38.5 108t-108.5 39 q-63 0 -104.5 -35.5t-41.5 -89.5q0 -45 37 -78t125 -67l131 -49q183 -69 254.5 -156.5t71.5 -242.5q0 -201 -125.5 -317t-343.5 -116q-245 0 -465 156z" />
<glyph unicode="T" horiz-adv-x="1150" d="M41 811v555h1069v-555h-254v139q0 83 -29 120t-94 40v-752v-26q0 -52 15.5 -75t56.5 -34v-223h-457v223q40 11 56 34.5t16 74.5v26v752q-66 -3 -94.5 -40t-28.5 -120v-139h-256z" />
<glyph unicode="U" horiz-adv-x="1134" d="M55 1143v223h457v-223q-41 -11 -56.5 -34t-15.5 -75v-14v-12v-553v-21q0 -54 7 -81.5t26 -49.5q46 -49 115 -49q147 0 147 178v17v559v12v10q0 54 -15 78.5t-56 34.5v223h415v-223q-40 -11 -55.5 -34.5t-15.5 -74.5v-26v-476v-96q0 -113 -10.5 -169.5t-39.5 -106.5 q-53 -85 -153 -131.5t-234 -46.5q-210 0 -327 101.5t-117 283.5v79v562v26q-1 52 -16.5 75t-55.5 34z" />
<glyph unicode="V" horiz-adv-x="1089" d="M27 1143v223h467v-223q-72 -3 -72 -68q0 -21 4 -35l6 -26l146 -682l135 688q8 41 8 59q0 61 -76 64v223h416v-223q-34 -12 -48.5 -33t-23.5 -72l-4 -18l-197 -1020h-471l-213 1028q-14 66 -28 87.5t-49 27.5z" />
<glyph unicode="W" horiz-adv-x="1572" d="M27 1143v223h456v-223h-12q-23 0 -39 -16.5t-16 -41.5q0 -6 6 -36l4 -25l2 -20l98 -545l158 907h266l158 -907l90 555q0 6 2 10q6 34 6 53q0 29 -15.5 47t-43.5 19v223h397v-223q-37 -6 -52.5 -32t-27.5 -103l-166 -1008h-370l-140 657l-116 -657h-381l-185 1022l-2 12 l-6 31q-15 72 -71 78z" />
<glyph unicode="X" horiz-adv-x="1026" d="M27 0v223q34 14 61 66l229 444l-190 338q-24 41 -36 54.5t-30 17.5v223h385v-104v-17v-26v-9q0 -35 9 -61t37 -78l59 -108l55 108q30 59 37.5 86.5t7.5 79.5v14v115h332v-223q-23 -7 -36 -21t-32 -51l-204 -395l196 -359q46 -78 90 -94v-223h-407v160v14q0 53 -8.5 84.5 t-34.5 75.5l-72 119l-74 -142q-25 -47 -30.5 -68.5t-5.5 -64.5v-20v-158h-338z" />
<glyph unicode="Y" horiz-adv-x="1048" d="M27 1147v219h407v-160v-37v-16v-6v-6q0 -41 27 -97l88 -184l90 182q19 37 24 61.5t5 76.5v39v147h354v-225q-24 -4 -41 -23.5t-41 -66.5l-10 -17l-250 -497v-175v-30q1 -52 16.5 -75t55.5 -34v-223h-457v223q41 10 56.5 34t15.5 75v24v168l-254 523q-27 53 -44 73.5 t-42 26.5z" />
<glyph unicode="Z" horiz-adv-x="1040" d="M55 0v201l527 905h-121h-35q-56 -2 -82.5 -33.5t-26.5 -97.5v-23v-47h-254v461h914v-203l-516 -891h92q90 0 124 28.5t34 102.5v25v21h274v-449h-930z" />
<glyph unicode="[" horiz-adv-x="718" d="M190 -188v1740h467v-178h-180v-1384h180v-178h-467z" />
<glyph unicode="\" horiz-adv-x="1024" d="M0 1454h272l752 -1544h-272z" />
<glyph unicode="]" horiz-adv-x="718" d="M61 -10h181v1384h-181v178h467v-1740h-467v178z" />
<glyph unicode="^" d="M68 0v1366h684v-1366h-684zM82 14h655v1338h-655v-1338z" />
<glyph unicode="_" horiz-adv-x="1024" d="M0 -274h1024v-197h-1024v197z" />
<glyph unicode="`" horiz-adv-x="565" d="M137 1374h213l78 -244h-129z" />
<glyph unicode="a" horiz-adv-x="989" d="M55 258q0 154 121 238q44 31 141 69q30 11 82 29q55 22 80 29l94 32q1 0 25 7v18q0 87 -22.5 122.5t-77.5 35.5q-47 0 -75 -28t-28 -75v-33v-18h-284v248q98 49 207 77.5t200 28.5q161 0 264 -75q54 -40 78.5 -89t24.5 -120v-37v-363v-16v-37q0 -47 12 -66t49 -28v-207 h-336v98q-82 -66 -143 -91t-139 -25q-126 0 -199.5 74.5t-73.5 201.5zM365 283q0 -34 21.5 -55t55.5 -21q32 0 75 25.5t81 66.5v166q-7 -3 -29 -14l-39 -19q-1 -1 -6 -3t-15 -7l-20 -10l-40 -21q-84 -46 -84 -108z" />
<glyph unicode="b" horiz-adv-x="1021" d="M45 1159v207h348v-410q74 41 128 57.5t120 16.5q144 0 231 -84q80 -77 80 -229v-64v-295v-57q-2 -82 -26.5 -135t-79.5 -94q-125 -90 -318 -90q-108 0 -201 26.5t-221 95.5v906v22v31q0 44 -13 65t-48 31zM393 242q59 -45 135 -45q71 0 104.5 39t33.5 122v37v230v39 q0 69 -36 108t-98 39q-68 0 -139 -47v-522z" />
<glyph unicode="c" horiz-adv-x="933" d="M68 285v51v311v23v43q0 149 105 233t292 84q216 0 399 -112v-283h-268v10v29q0 73 -31 111t-90 38t-90 -38t-31 -111v-29v-278v-29q1 -73 32.5 -111.5t88.5 -38.5q58 0 89.5 39t31.5 111v43v31h268v-318q-149 -112 -393 -112q-205 0 -315 96q-88 74 -88 207z" />
<glyph unicode="d" horiz-adv-x="1028" d="M68 289v436q0 151 82 227q84 78 221 78q58 0 112 -16t142 -58l2 -2v56v22v31q0 45 -13 65.5t-49 30.5v207h348v-1012v-20v-23q0 -51 13.5 -72t50.5 -32v-207h-350v66q-125 -84 -254 -84q-143 0 -232 86q-42 42 -57.5 88.5t-15.5 132.5zM354 334q0 -65 32 -99t93 -34 q72 0 148 55v508q-71 47 -138 47q-63 0 -99 -39t-36 -108v-39v-273v-18z" />
<glyph unicode="e" horiz-adv-x="950" d="M68 336v340q0 85 12.5 133.5t46.5 89.5q50 63 140 97t210 34q115 0 207 -34.5t145 -96.5q32 -37 43 -81.5t11 -141.5v-227h-529v-82v-25q0 -75 31 -114.5t90 -39.5q58 0 89.5 37.5t31.5 106.5v8h287v-244q-191 -114 -406 -114q-246 0 -352 131q-33 42 -45 88.5t-12 134.5 zM354 627h242v18v29q0 73 -31 111t-90 38q-57 0 -89 -38.5t-32 -110.5v-29v-18z" />
<glyph unicode="f" horiz-adv-x="540" d="M57 0v207q41 12 52.5 34.5t11.5 92.5v31v432h-64v215h64v43q0 103 12 151t49 92q74 88 219 88q59 0 140 -16v-205q-28 4 -31 4q-55 0 -78.5 -33t-23.5 -108v-16h116v-215h-116v-443v-20q0 -71 10.5 -93t50.5 -34v-207h-412z" />
<glyph unicode="g" horiz-adv-x="1028" d="M68 303v31v381v33q2 71 18.5 116t54.5 80q92 86 238 86q67 0 118.5 -18.5t129.5 -71.5v72h350v-207q-37 -10 -50.5 -31t-13.5 -65v-31v-21v-665v-45q0 -84 -19.5 -135t-66.5 -91q-119 -98 -317 -98q-103 0 -192.5 24.5t-204.5 84.5v233h280q0 -63 30 -97t87 -34 q117 0 117 141v19v84q-145 -74 -254 -74q-145 0 -232 90q-40 40 -56.5 87.5t-16.5 121.5zM354 365q0 -39 6 -59.5t23 -39.5q39 -45 102 -45q65 0 142 49v484q-80 57 -144 57q-59 0 -100 -41q-29 -36 -29 -100v-13v-16v-252v-24z" />
<glyph unicode="h" horiz-adv-x="1056" d="M51 0v207q42 12 53 34t11 93v20v656v22q0 70 -11.5 92.5t-52.5 34.5v207h348v-412l4 2l23 13q107 61 225 61q141 0 218 -75t77 -212v-34v-355v-51q0 -49 14 -68.5t54 -27.5v-207h-332q-23 89 -23 233v25v371v26q0 160 -127 160q-63 0 -133 -49v-412v-20l2 -31 q0 -50 11 -67t51 -29v-207h-412z" />
<glyph unicode="i" horiz-adv-x="520" d="M57 0v207q41 12 52.5 34.5t11.5 92.5v20v303v21q0 70 -11.5 92.5t-52.5 34.5v207h351v-658v-20q0 -72 10 -93.5t51 -33.5v-207h-412zM94 1227q0 66 47.5 114t114.5 48q66 0 113 -48t47 -114q0 -67 -47 -114.5t-113 -47.5q-68 0 -115 47.5t-47 114.5z" />
<glyph unicode="j" horiz-adv-x="520" d="M16 -152q10 -2 23 -2q43 0 67 35q13 23 13 90v15v671v21q0 72 -10.5 93.5t-51.5 33.5v207h349v-1035v-28q0 -98 -11 -144t-43 -86q-38 -46 -89.5 -66t-129.5 -20q-28 0 -117 7v208zM92 1227q0 66 48 114t114 48t114 -48t48 -114q0 -67 -48 -114.5t-114 -47.5t-114 47.5 t-48 114.5z" />
<glyph unicode="k" horiz-adv-x="972" d="M51 0v207q41 12 51.5 33.5t10.5 93.5v698v11q0 61 -10 81q-11 22 -52 35v207h348v-696l109 123q53 59 53 110v109h363v-201q-40 -9 -66.5 -28.5t-73.5 -75.5l-106 -121l133 -246q29 -56 61.5 -88t73.5 -45v-207h-250q-18 18 -63 86q-12 18 -51 80l-183 317v-149 q2 -72 12.5 -93.5t51.5 -33.5v-207h-412z" />
<glyph unicode="l" horiz-adv-x="514" d="M51 0v207q41 12 51.5 34t10.5 93v20v656v22q0 71 -10.5 92.5t-51.5 34.5v207h348v-1012v-20q0 -70 11.5 -92.5t52.5 -34.5v-207h-412z" />
<glyph unicode="m" horiz-adv-x="1552" d="M57 0v207q36 10 49 30.5t15 65.5v31v20v303v21v22q0 51 -13 73t-51 32v207h340v-72q64 49 119 69.5t119 20.5q126 0 235 -100q140 100 285 100q73 0 139 -30t105 -82q47 -58 47 -164v-400v-55q0 -46 13 -65.5t50 -26.5v-207h-327q-14 41 -18.5 77.5t-4.5 119.5v39v393 q0 73 -12 110q-12 31 -41.5 48.5t-69.5 17.5q-53 0 -110 -35v-12v-29v-31v-26v-318v-55q0 -46 13 -65.5t50 -26.5v-207h-327q-23 73 -23 176v47v406v28v7q0 141 -121 141q-41 0 -100 -29l-10 -6v-416q0 -49 1 -71.5t8 -40t18 -23t34 -12.5v-207h-412z" />
<glyph unicode="n" horiz-adv-x="1062" d="M57 0v207q42 12 53 34t11 93v20v303v21q0 71 -11 93t-53 34v207h340v-68l4 2q75 47 131 65.5t125 18.5q141 0 218 -75t77 -212v-34v-355v-51q0 -49 14.5 -68.5t53.5 -27.5v-207h-330q-24 93 -24 233v25v352v27v16q0 72 -17 103q-13 27 -42.5 43t-65.5 16q-62 0 -133 -53 v-408v-20v-31q0 -49 11 -66.5t50 -29.5v-207h-412z" />
<glyph unicode="o" horiz-adv-x="950" d="M68 336v340q0 86 13 133t48 90q109 131 346 131q240 0 346 -131q36 -42 49 -89t13 -134v-340q0 -87 -13 -134t-49 -89q-106 -131 -346 -131q-237 0 -346 131q-35 43 -48 90t-13 133zM354 338q2 -72 33 -111t88 -39q58 0 89.5 39t31.5 111v29v278v29q0 73 -31 111t-90 38 q-57 0 -89 -38.5t-32 -110.5v-29v-278v-29z" />
<glyph unicode="p" horiz-adv-x="1028" d="M51 -147q40 12 52 35.5t12 91.5v22v655v23q0 68 -12 90.5t-52 34.5v207h350v-70l2 2l37 25q99 61 209 61q151 0 244 -96q68 -65 68 -201v-45v-348v-53q-2 -84 -22 -136.5t-67 -95.5q-79 -73 -219 -73q-60 0 -107 12.5t-130 50.5l-15 8v-51v-25q0 -67 11 -89.5t51 -34.5 v-207h-412v207zM401 246q71 -45 134 -45q67 0 106 45q19 22 26 49t7 76v35v251v27q-2 62 -34.5 94.5t-92.5 32.5q-68 0 -146 -57v-508z" />
<glyph unicode="q" horiz-adv-x="1021" d="M68 287v53v348v43q0 81 18.5 129t63.5 88q91 82 229 82q67 0 120 -18.5t126 -67.5l4 -2v70h284v-1010v-22v-23q0 -51 13.5 -72t50.5 -32v-207h-412v207q35 10 48.5 31t15.5 65v31v22v51l-17 -8q-80 -37 -128.5 -50t-108.5 -13q-149 0 -232 86q-41 41 -58 91.5t-17 127.5z M354 371q0 -170 140 -170q59 0 135 45v508q-81 57 -148 57q-60 0 -93.5 -33.5t-33.5 -93.5v-27v-251v-35z" />
<glyph unicode="r" horiz-adv-x="600" d="M57 0v207q41 12 52.5 34.5t11.5 92.5v20v303v21q0 71 -11 93t-53 34v207h336v-84l4 4q61 90 150 90q20 0 53 -10v-295q-40 4 -47 4q-74 0 -109.5 -41t-35.5 -127v-31v-168v-20q0 -73 10 -94t51 -33v-207h-412z" />
<glyph unicode="s" horiz-adv-x="901" d="M55 57v275h281v-15q0 -67 24 -95.5t80 -28.5q43 0 71 26t28 66q0 46 -33.5 71.5t-136.5 57.5q-101 31 -150 51.5t-82 46.5q-82 67 -82 199q0 151 104 235t290 84q149 0 346 -78l30 -12v-256h-264v10q0 65 -25 95t-79 30q-43 0 -70 -26.5t-27 -67.5q0 -54 48 -82 q33 -19 165 -61q92 -27 138.5 -49t74.5 -50q60 -66 60 -188q0 -318 -377 -318q-95 0 -187 18t-227 62z" />
<glyph unicode="t" horiz-adv-x="526" d="M41 797v215h53v188l287 84v-272h117v-215h-117v-426v-21q2 -72 25.5 -106.5t72.5 -34.5q15 0 23 2v-203q-77 -22 -137 -22q-173 0 -242 137q-17 34 -23 74t-6 125v24v451h-53z" />
<glyph unicode="u" horiz-adv-x="1062" d="M43 805v207h332q13 -52 17.5 -97.5t4.5 -136.5v-24v-353v-26q0 -84 17 -119q32 -59 108 -59q65 0 133 53v407v21l2 33q-2 47 -13.5 64.5t-49.5 29.5v207h348v-658v-20q2 -72 12.5 -93.5t51.5 -33.5v-207h-340v68q-127 -86 -260 -86q-141 0 -218 74.5t-77 211.5v35v354v54 q0 47 -15 67.5t-53 26.5z" />
<glyph unicode="v" horiz-adv-x="935" d="M14 805v207h404v-207q-43 -8 -43 -51q0 -17 6 -41l2 -8l100 -373l97 373q10 44 10 57q0 31 -37 43v207h371v-207q-28 -8 -41.5 -25.5t-26.5 -66.5l-205 -713h-358l-221 739q-9 34 -20.5 47t-37.5 19z" />
<glyph unicode="w" horiz-adv-x="1361" d="M14 805v207h402v-207q-23 -8 -32 -18.5t-9 -32.5q0 -15 4 -35l4 -17l61 -288l162 598h178l146 -598l71 305q7 28 7 39q0 33 -37 47v207h377v-207q-32 -9 -46 -25.5t-26 -60.5l-197 -719h-272l-94 334q-3 13 -15.5 65t-19.5 84q-4 -21 -35 -149l-92 -334h-268l-205 719 q-14 46 -25 61.5t-39 24.5z" />
<glyph unicode="x" horiz-adv-x="905" d="M27 0v207q20 7 61 53l207 244l-193 246q-35 45 -61 55v207h352v-144q0 -45 39 -92l49 -65l54 69q25 33 30.5 49t5.5 56v127h283v-207q-38 -10 -74 -55l-176 -213l199 -277q21 -29 36.5 -40.5t37.5 -12.5v-207h-355v121q0 53 -13 82t-67 96q-3 3 -10 13t-12 16l-21 -27 q-50 -64 -63.5 -95t-13.5 -81v-125h-295z" />
<glyph unicode="y" horiz-adv-x="931" d="M14 805v207h400v-207q-41 -8 -41 -43q0 -19 8 -51l102 -387l99 397q4 12 4 33q0 37 -37 51v207h371v-207q-28 -9 -41.5 -29t-28.5 -74l-191 -686q-59 -206 -139.5 -288t-224.5 -82q-44 0 -100 10v219q6 -2 14 -2q45 0 73.5 22t47.5 70l-250 756q-15 43 -27.5 59t-38.5 25 z" />
<glyph unicode="z" horiz-adv-x="942" d="M55 0v197l469 618h-84h-16q-70 0 -98.5 -26.5t-28.5 -90.5v-14h-242v328h832v-178l-484 -637h64h27q81 1 116 32.5t35 102.5v16h242v-348h-832z" />
<glyph unicode="{" d="M68 0v1366h684v-1366h-684zM82 14h655v1338h-655v-1338z" />
<glyph unicode="|" d="M68 0v1366h684v-1366h-684zM82 14h655v1338h-655v-1338z" />
<glyph unicode="}" d="M68 0v1366h684v-1366h-684zM82 14h655v1338h-655v-1338z" />
<glyph unicode="~" d="M68 0v1366h684v-1366h-684zM82 14h655v1338h-655v-1338z" />
<glyph unicode="&#xa1;" horiz-adv-x="628" d="M137 143q0 27 8 95q1 4 2 9t2 7.5t1 3.5l90 690h151l88 -690l4 -20q11 -70 11 -95q0 -70 -51 -115.5t-128 -45.5q-78 0 -128 45t-50 116zM158 1227q0 65 45.5 110t111.5 45q65 0 110.5 -45.5t45.5 -109.5q0 -65 -46 -111.5t-110 -46.5q-66 0 -111.5 46.5t-45.5 111.5z " />
<glyph unicode="&#xa2;" horiz-adv-x="987" d="M96 475v51v312v22v43q0 249 273 305v92h268v-94q136 -23 256 -98v-283h-268v11v28q-3 150 -123 150q-119 0 -119 -150v-28v-279v-29q0 -73 31 -111t90 -38q57 0 89 38.5t32 110.5v43v31h268v-317q-104 -76 -256 -101v-92h-268v92q-135 25 -204 98.5t-69 192.5z" />
<glyph unicode="&#xa3;" horiz-adv-x="1134" d="M96 0v223q41 11 55.5 35t14.5 82v18v224h-70v233h70v88v47q0 79 6 121t23 80q51 119 164 182.5t274 63.5q113 0 213 -31t207 -98v-336h-279v16q0 64 -14 92q-15 36 -52.5 57t-84.5 21q-77 0 -114.5 -46t-37.5 -142v-115h387v-233h-387v-322h143h25q121 0 121 113v20h293 v-393h-957z" />
<glyph unicode="&#xa4;" horiz-adv-x="1114" d="M-49 514v123h186v96h-186v123h186v182q0 355 459 355q112 0 214 -22t230 -73v-372h-288v21v25.5t-1.5 22t-3.5 25.5t-7 20t-11 21q-41 59 -127 59q-83 0 -127 -63q-15 -23 -19.5 -47t-4.5 -78v-76h493v-123h-493v-96h397v-123h-397v-53q0 -77 3.5 -101.5t20.5 -46.5 q45 -61 127 -61q86 0 127 59q7 9 11.5 21t6.5 20t3.5 24.5t1.5 20.5v25v22h288v-112q0 -359 -448 -359q-221 0 -346 101q-109 84 -109 258v182h-186z" />
<glyph unicode="&#xa5;" horiz-adv-x="1157" d="M82 485v138h293l-53 106h-240v137h174l-90 181q-28 58 -44 76.5t-40 21.5v221h403v-160v-37q0 -64 31 -125l86 -178l88 176q18 36 22.5 59t4.5 79v39v147h358v-225q-22 -4 -40.5 -24.5t-41.5 -65.5l-92 -185h174v-137h-244l-53 -106h297v-138h-340v-123v-30 q2 -53 16.5 -76t55.5 -33v-223h-457v223q41 10 56.5 34t15.5 75v24v129h-340z" />
<glyph unicode="&#xa7;" d="M68 0v1366h684v-1366h-684zM82 14h655v1338h-655v-1338z" />
<glyph unicode="&#xa8;" horiz-adv-x="856" d="M137 1255q0 48 34 81.5t83 33.5q50 0 83.5 -34t33.5 -83q0 -48 -34 -82t-83 -34t-83 34t-34 84zM485 1249q0 49 33.5 83t83.5 34t83.5 -34t33.5 -83q0 -50 -34 -84.5t-83 -34.5q-48 0 -82.5 35t-34.5 84z" />
<glyph unicode="&#xa9;" d="M68 0v1366h684v-1366h-684zM82 14h655v1338h-655v-1338z" />
<glyph unicode="&#xaa;" d="M68 0v1366h684v-1366h-684zM82 14h655v1338h-655v-1338z" />
<glyph unicode="&#xab;" horiz-adv-x="669" d="M96 524l107 269h162l-109 -269l109 -268h-162zM305 524l109 269h161l-108 -269l108 -268h-161z" />
<glyph unicode="&#xac;" d="M68 0v1366h684v-1366h-684zM82 14h655v1338h-655v-1338z" />
<glyph unicode="&#xad;" horiz-adv-x="684" d="M96 434v197h492v-197h-492z" />
<glyph unicode="&#xae;" d="M68 0v1366h684v-1366h-684zM82 14h655v1338h-655v-1338z" />
<glyph unicode="&#xaf;" d="M68 0v1366h684v-1366h-684zM82 14h655v1338h-655v-1338z" />
<glyph unicode="&#xb0;" d="M68 0v1366h684v-1366h-684zM82 14h655v1338h-655v-1338z" />
<glyph unicode="&#xb1;" d="M68 0v1366h684v-1366h-684zM82 14h655v1338h-655v-1338z" />
<glyph unicode="&#xb4;" horiz-adv-x="565" d="M137 1130l78 244h213l-160 -244h-131z" />
<glyph unicode="&#xb5;" d="M68 0v1366h684v-1366h-684zM82 14h655v1338h-655v-1338z" />
<glyph unicode="&#xb6;" d="M68 0v1366h684v-1366h-684zM82 14h655v1338h-655v-1338z" />
<glyph unicode="&#xb7;" horiz-adv-x="487" d="M96 696q0 62 43 105t105 43q61 0 104 -43t43 -105t-42.5 -104.5t-104.5 -42.5t-105 43t-43 104z" />
<glyph unicode="&#xb8;" d="M68 0v1366h684v-1366h-684zM82 14h655v1338h-655v-1338z" />
<glyph unicode="&#xba;" d="M68 0v1366h684v-1366h-684zM82 14h655v1338h-655v-1338z" />
<glyph unicode="&#xbb;" horiz-adv-x="669" d="M96 256l107 268l-107 269h160l109 -269l-109 -268h-160zM305 256l109 268l-109 269h162l108 -269l-108 -268h-162z" />
<glyph unicode="&#xbf;" horiz-adv-x="1085" d="M82 365q0 144 51 223q22 33 56 62.5t102 74.5l92 61q80 53 98.5 79t18.5 89h303v-20v-66q0 -61 -5.5 -92t-21.5 -61q-18 -35 -59 -66l-180 -129q-91 -65 -116.5 -94t-25.5 -70q0 -55 39 -90t101 -35q44 0 78 19t49 53q10 20 13 42t3 75v14h299v-317q-186 -135 -436 -135 q-459 0 -459 383zM494 1235q0 66 45.5 112t111.5 46q64 0 110 -46.5t46 -111.5t-45.5 -110.5t-110.5 -45.5q-66 0 -111.5 45.5t-45.5 110.5z" />
<glyph unicode="&#xc0;" horiz-adv-x="1089" d="M27 0v223q34 10 49.5 36.5t29.5 94.5l199 1012h469l209 -1022q14 -65 28.5 -88t49.5 -33v-223h-465v223q72 3 72 64q0 2 -0.5 4.5l-2 10l-3.5 17.5l-3 9l-10 57h-264l-12 -57q-4 -24 -4 -43q0 -59 75 -62v-223h-417zM315 1737h213l78 -244h-129zM422 582h186l-98 448z " />
<glyph unicode="&#xc1;" horiz-adv-x="1089" d="M27 0v223q34 10 49.5 36.5t29.5 94.5l199 1012h469l209 -1022q14 -65 28.5 -88t49.5 -33v-223h-465v223q72 3 72 64q0 2 -0.5 4.5l-2 10l-3.5 17.5l-3 9l-10 57h-264l-12 -57q-4 -24 -4 -43q0 -59 75 -62v-223h-417zM422 582h186l-98 448zM457 1493l78 244h213l-160 -244 h-131z" />
<glyph unicode="&#xc2;" horiz-adv-x="1089" d="M27 0v223q34 10 49.5 36.5t29.5 94.5l199 1012h469l209 -1022q14 -65 28.5 -88t49.5 -33v-223h-465v223q72 3 72 64q0 2 -0.5 4.5l-2 10l-3.5 17.5l-3 9l-10 57h-264l-12 -57q-4 -24 -4 -43q0 -59 75 -62v-223h-417zM283 1495l159 242h205l156 -242h-164l-100 156 l-97 -156h-159zM422 582h186l-98 448z" />
<glyph unicode="&#xc3;" horiz-adv-x="1089" d="M27 0v223q34 10 49.5 36.5t29.5 94.5l199 1012h469l209 -1022q14 -65 28.5 -88t49.5 -33v-223h-465v223q72 3 72 64q0 2 -0.5 4.5l-2 10l-3.5 17.5l-3 9l-10 57h-264l-12 -57q-4 -24 -4 -43q0 -59 75 -62v-223h-417zM262 1526q8 88 49 136t111 48q37 0 110 -24 q76 -25 103 -25q47 0 61 43h127q-9 -89 -47.5 -135.5t-103.5 -46.5q-33 0 -146 30q-49 15 -75 15q-25 0 -39 -9t-21 -32h-129zM422 582h186l-98 448z" />
<glyph unicode="&#xc4;" horiz-adv-x="1089" d="M27 0v223q34 10 49.5 36.5t29.5 94.5l199 1012h469l209 -1022q14 -65 28.5 -88t49.5 -33v-223h-465v223q72 3 72 64q0 2 -0.5 4.5l-2 10l-3.5 17.5l-3 9l-10 57h-264l-12 -57q-4 -24 -4 -43q0 -59 75 -62v-223h-417zM248 1622q0 48 34 81.5t83 33.5t82.5 -33.5 t33.5 -83.5q0 -48 -33.5 -82.5t-82.5 -34.5t-83 34.5t-34 84.5zM422 582h186l-98 448zM596 1616q0 50 34 83.5t83 33.5t82.5 -33.5t33.5 -83.5t-33.5 -84.5t-82.5 -34.5q-48 0 -82.5 35t-34.5 84z" />
<glyph unicode="&#xc5;" horiz-adv-x="1089" d="M27 0v223q34 10 49.5 36.5t29.5 94.5l199 1012h469l209 -1022q14 -65 28.5 -88t49.5 -33v-223h-465v223q72 3 72 64q0 2 -0.5 4.5l-2 10l-3.5 17.5l-3 9l-10 57h-264l-12 -57q-4 -24 -4 -43q0 -59 75 -62v-223h-417zM371 1616q0 71 49 120.5t119 49.5q71 0 120.5 -50 t49.5 -122q0 -69 -50 -118.5t-120 -49.5q-69 0 -118.5 50t-49.5 120zM422 582h186l-98 448zM469 1616q0 -29 20.5 -50.5t49.5 -21.5t49 21t20 51q0 29 -20 49.5t-49 20.5t-49.5 -20.5t-20.5 -49.5z" />
<glyph unicode="&#xc6;" horiz-adv-x="1685" d="M27 0v223q35 9 52.5 28t37.5 71l420 1044h1067v-422h-297v10q0 79 -28.5 111.5t-98.5 32.5h-25h-117v-275h363v-231h-363v-324h142q72 0 98.5 28.5t28.5 106.5v54h297v-457h-951v223q38 8 55 33t17 76v26v19h-297l-22 -55q-15 -36 -15 -50q0 -21 10.5 -32t36.5 -17v-223 h-411zM512 582h213v524z" />
<glyph unicode="&#xc7;" horiz-adv-x="1081" d="M96 424v57v406v61q0 133 8 174q22 131 138.5 201t312.5 70q112 0 214 -22t230 -73v-385h-294v17q0 56 -5 80.5t-20 46.5q-44 63 -123 63q-38 0 -71 -17t-52 -46q-24 -35 -24 -119v-61v-21v-395v-31q0 -48 4.5 -72t19.5 -45q39 -61 123 -61t123 61q15 24 20 47.5t5 77.5 v23v86h294v-467q-86 -43 -192.5 -72t-200.5 -33v-53h15q74 0 100 -53q12 -24 12 -96q0 -63 -16 -90q-40 -62 -137 -62q-80 0 -142 35v119h113v-13q2 -38 7 -49.5t22 -11.5q26 0 26 41v18v19v12q0 26 -8 34.5t-33 8.5h-14h-59v141h-7q-115 9 -204 51t-134 107q-40 62 -49 154 q-2 25 -2 137z" />
<glyph unicode="&#xc8;" horiz-adv-x="1116" d="M68 0v223q41 10 56 34t15 75v26v650v26q0 53 -15 75.5t-56 31.5v225h966v-422h-295v10q0 79 -28.5 111.5t-98.5 32.5h-24h-135v-275h381v-231h-381v-324h131h28q71 0 98.5 28.5t28.5 106.5v54h295v-457h-966zM336 1737h213l78 -244h-129z" />
<glyph unicode="&#xc9;" horiz-adv-x="1116" d="M68 0v223q41 10 56 34t15 75v26v650v26q0 53 -15 75.5t-56 31.5v225h966v-422h-295v10q0 79 -28.5 111.5t-98.5 32.5h-24h-135v-275h381v-231h-381v-324h131h28q71 0 98.5 28.5t28.5 106.5v54h295v-457h-966zM471 1520l78 243h213l-160 -243h-131z" />
<glyph unicode="&#xca;" horiz-adv-x="1116" d="M68 0v223q41 10 56 34t15 75v26v650v26q0 53 -15 75.5t-56 31.5v225h966v-422h-295v10q0 79 -28.5 111.5t-98.5 32.5h-24h-135v-275h381v-231h-381v-324h131h28q71 0 98.5 28.5t28.5 106.5v54h295v-457h-966zM283 1495l159 242h205l156 -242h-164l-100 156l-97 -156h-159 z" />
<glyph unicode="&#xcb;" horiz-adv-x="1116" d="M68 0v223q41 10 56 34t15 75v26v650v26q0 53 -15 75.5t-56 31.5v225h966v-422h-295v10q0 79 -28.5 111.5t-98.5 32.5h-24h-135v-275h381v-231h-381v-324h131h28q71 0 98.5 28.5t28.5 106.5v54h295v-457h-966zM254 1618q0 48 34 81.5t83 33.5t82.5 -33.5t33.5 -83.5 q0 -48 -33.5 -82.5t-82.5 -34.5t-83 34.5t-34 84.5zM602 1612q0 50 34 83.5t83 33.5t83 -33.5t34 -83.5t-34 -84.5t-83 -34.5q-48 0 -82.5 35t-34.5 84z" />
<glyph unicode="&#xcc;" horiz-adv-x="593" d="M68 0v223q41 10 56 34t15 75v26v650v26q0 53 -15 75.5t-56 31.5v225h456v-225q-40 -9 -55.5 -32.5t-15.5 -74.5v-26v-650v-26q2 -53 16.5 -76t54.5 -33v-223h-456zM68 1731h213l77 -244h-129z" />
<glyph unicode="&#xcd;" horiz-adv-x="593" d="M68 0v223q41 10 56 34t15 75v26v650v26q0 53 -15 75.5t-56 31.5v225h456v-225q-40 -9 -55.5 -32.5t-15.5 -74.5v-26v-650v-26q2 -53 16.5 -76t54.5 -33v-223h-456zM231 1493l78 244h213l-160 -244h-131z" />
<glyph unicode="&#xce;" horiz-adv-x="593" d="M37 1495l160 242h204l156 -242h-164l-100 156l-96 -156h-160zM68 0v223q41 10 56 34t15 75v26v650v26q0 53 -15 75.5t-56 31.5v225h456v-225q-40 -9 -55.5 -32.5t-15.5 -74.5v-26v-650v-26q2 -53 16.5 -76t54.5 -33v-223h-456z" />
<glyph unicode="&#xcf;" horiz-adv-x="593" d="M4 1618q0 48 34 81.5t83 33.5t83 -33.5t34 -83.5q0 -48 -34 -82.5t-83 -34.5t-83 34.5t-34 84.5zM63 0v223q41 10 56.5 34t15.5 75v26v650v26q0 52 -15.5 75t-56.5 32v225h457v-225q-40 -9 -55.5 -32.5t-15.5 -74.5v-26v-650v-26q2 -53 16.5 -76t54.5 -33v-223h-457z M352 1612q0 50 34 83.5t83 33.5t83 -33.5t34 -83.5t-34 -84.5t-83 -34.5q-48 0 -82.5 35t-34.5 84z" />
<glyph unicode="&#xd1;" horiz-adv-x="1202" d="M68 0v223q41 10 56 34t15 75v26v650v26q0 53 -15 76t-56 33v223h358l350 -704v346v26q-2 53 -16.5 76t-54.5 33v223h434v-223q-41 -10 -56.5 -34t-15.5 -75v-26v-1008h-287l-354 717v-359v-26q1 -52 16.5 -75t55.5 -34v-223h-430zM322 1526q8 88 48.5 136t110.5 48 q38 0 111 -24q76 -25 102 -25q48 0 62 43h127q-9 -89 -48 -135.5t-104 -46.5q-32 0 -145 30q-49 15 -76 15q-25 0 -38.5 -9t-20.5 -32h-129z" />
<glyph unicode="&#xd2;" horiz-adv-x="1114" d="M96 332v702q0 95 24.5 155t80.5 103q124 101 356 101t354 -101q57 -46 82 -106t25 -152v-702q-2 -96 -26 -156t-81 -104q-125 -99 -354 -99q-233 0 -356 99q-57 45 -81 106t-24 154zM322 1737h213l77 -244h-129zM410 434q0 -55 4.5 -79.5t19.5 -45.5q44 -63 123 -63 q38 0 71 17t52 46q15 22 20 45.5t5 73.5v504q0 54 -5 78.5t-20 46.5q-44 63 -123 63q-38 0 -71 -17t-52 -46q-15 -21 -19.5 -45t-4.5 -76v-502z" />
<glyph unicode="&#xd3;" horiz-adv-x="1114" d="M96 332v702q0 95 24.5 155t80.5 103q124 101 356 101t354 -101q57 -46 82 -106t25 -152v-702q-2 -96 -26 -156t-81 -104q-125 -99 -354 -99q-233 0 -356 99q-57 45 -81 106t-24 154zM410 434q0 -55 4.5 -79.5t19.5 -45.5q44 -63 123 -63q38 0 71 17t52 46q15 22 20 45.5 t5 73.5v504q0 54 -5 78.5t-20 46.5q-44 63 -123 63q-38 0 -71 -17t-52 -46q-15 -21 -19.5 -45t-4.5 -76v-502zM487 1493l78 244h213l-160 -244h-131z" />
<glyph unicode="&#xd4;" horiz-adv-x="1114" d="M96 332v702q0 95 24.5 155t80.5 103q124 101 356 101t354 -101q57 -46 82 -106t25 -152v-702q-2 -96 -26 -156t-81 -104q-125 -99 -354 -99q-233 0 -356 99q-57 45 -81 106t-24 154zM299 1495l160 242h205l155 -242h-164l-100 156l-96 -156h-160zM410 434 q0 -55 4.5 -79.5t19.5 -45.5q44 -63 123 -63q38 0 71 17t52 46q15 22 20 45.5t5 73.5v504q0 54 -5 78.5t-20 46.5q-44 63 -123 63q-38 0 -71 -17t-52 -46q-15 -21 -19.5 -45t-4.5 -76v-502z" />
<glyph unicode="&#xd5;" horiz-adv-x="1114" d="M96 332v702q0 95 24.5 155t80.5 103q124 101 356 101t354 -101q57 -46 82 -106t25 -152v-702q-2 -96 -26 -156t-81 -104q-125 -99 -354 -99q-233 0 -356 99q-57 45 -81 106t-24 154zM276 1526q8 88 49 136t111 48q38 0 111 -24q76 -25 102 -25q48 0 62 43h127 q-9 -89 -48 -135.5t-104 -46.5q-32 0 -145 30q-49 15 -76 15q-25 0 -38.5 -9t-20.5 -32h-130zM410 434q0 -55 4.5 -79.5t19.5 -45.5q44 -63 123 -63q38 0 71 17t52 46q15 22 20 45.5t5 73.5v504q0 54 -5 78.5t-20 46.5q-44 63 -123 63q-38 0 -71 -17t-52 -46 q-15 -21 -19.5 -45t-4.5 -76v-502z" />
<glyph unicode="&#xd6;" horiz-adv-x="1114" d="M96 332v702q0 95 24.5 155t80.5 103q124 101 356 101t354 -101q57 -46 82 -106t25 -152v-702q-2 -96 -26 -156t-81 -104q-125 -99 -354 -99q-233 0 -356 99q-57 45 -81 106t-24 154zM268 1618q0 48 34 81.5t83 33.5t83 -33.5t34 -83.5q0 -48 -34 -82.5t-83 -34.5 t-83 34.5t-34 84.5zM410 434q0 -55 4.5 -79.5t19.5 -45.5q44 -63 123 -63q38 0 71 17t52 46q15 22 20 45.5t5 73.5v504q0 54 -5 78.5t-20 46.5q-44 63 -123 63q-38 0 -71 -17t-52 -46q-15 -21 -19.5 -45t-4.5 -76v-502zM616 1612q0 50 34 83.5t83 33.5t83 -33.5t34 -83.5 t-34 -84.5t-83 -34.5q-48 0 -82.5 35t-34.5 84z" />
<glyph unicode="&#xd8;" horiz-adv-x="1114" d="M84 -2l66 131q-54 72 -54 203v61v580v61q1 95 26 155t81 103q128 101 350 101q105 0 199 -21l51 107l225 -109l-63 -131q55 -69 55 -205v-61v-580v-61q-1 -95 -26 -155.5t-81 -104.5q-125 -99 -352 -99q-114 0 -199 23l-53 -109zM410 434q0 -53 5 -78t19 -47 q44 -63 123 -63q81 0 125 63q25 40 25 119v27v454v23q0 52 -5.5 77t-19.5 48q-44 63 -125 63q-79 0 -123 -63q-14 -23 -19 -46.5t-5 -72.5v-29v-454v-21z" />
<glyph unicode="&#xd9;" horiz-adv-x="1134" d="M55 1143v223h457v-223q-41 -11 -56.5 -34t-15.5 -75v-14v-12v-553v-21q0 -54 7 -81.5t26 -49.5q46 -49 115 -49q147 0 147 178v17v559v12v10q0 54 -15 78.5t-56 34.5v223h415v-223q-40 -11 -55.5 -34.5t-15.5 -74.5v-26v-476v-96q0 -113 -10.5 -169.5t-39.5 -106.5 q-53 -85 -153 -131.5t-234 -46.5q-210 0 -327 101.5t-117 283.5v79v562v26q-1 52 -16.5 75t-55.5 34zM365 1737h213l77 -244h-129z" />
<glyph unicode="&#xda;" horiz-adv-x="1134" d="M55 1143v223h457v-223q-41 -11 -56.5 -34t-15.5 -75v-14v-12v-553v-21q0 -54 7 -81.5t26 -49.5q46 -49 115 -49q147 0 147 178v17v559v12v10q0 54 -15 78.5t-56 34.5v223h415v-223q-40 -11 -55.5 -34.5t-15.5 -74.5v-26v-476v-96q0 -113 -10.5 -169.5t-39.5 -106.5 q-53 -85 -153 -131.5t-234 -46.5q-210 0 -327 101.5t-117 283.5v79v562v26q-1 52 -16.5 75t-55.5 34zM496 1493l77 244h213l-159 -244h-131z" />
<glyph unicode="&#xdb;" horiz-adv-x="1134" d="M55 1143v223h457v-223q-41 -11 -56.5 -34t-15.5 -75v-14v-12v-553v-21q0 -54 7 -81.5t26 -49.5q46 -49 115 -49q147 0 147 178v17v559v12v10q0 54 -15 78.5t-56 34.5v223h415v-223q-40 -11 -55.5 -34.5t-15.5 -74.5v-26v-476v-96q0 -113 -10.5 -169.5t-39.5 -106.5 q-53 -85 -153 -131.5t-234 -46.5q-210 0 -327 101.5t-117 283.5v79v562v26q-1 52 -16.5 75t-55.5 34zM311 1495l160 242h205l155 -242h-163l-101 156l-96 -156h-160z" />
<glyph unicode="&#xdc;" horiz-adv-x="1134" d="M55 1143v223h457v-223q-41 -11 -56.5 -34t-15.5 -75v-14v-12v-553v-21q0 -54 7 -81.5t26 -49.5q46 -49 115 -49q147 0 147 178v17v559v12v10q0 54 -15 78.5t-56 34.5v223h415v-223q-40 -11 -55.5 -34.5t-15.5 -74.5v-26v-476v-96q0 -113 -10.5 -169.5t-39.5 -106.5 q-53 -85 -153 -131.5t-234 -46.5q-210 0 -327 101.5t-117 283.5v79v562v26q-1 52 -16.5 75t-55.5 34zM276 1618q0 48 34 81.5t83 33.5t83 -33.5t34 -83.5q0 -48 -34 -82.5t-83 -34.5t-83 34.5t-34 84.5zM625 1612q0 50 33.5 83.5t82.5 33.5t83 -33.5t34 -83.5t-34 -84.5 t-83 -34.5q-47 0 -81.5 35t-34.5 84z" />
<glyph unicode="&#xdf;" horiz-adv-x="987" d="M55 0v207q41 12 51.5 33.5t10.5 93.5v20v654v26q0 94 20 148.5t72 101.5q107 98 319 98q197 0 291 -83.5t94 -258.5q0 -123 -43 -186t-149 -94q114 -29 156.5 -89.5t42.5 -193.5v-141q0 -96 -11.5 -144.5t-44.5 -93.5q-41 -57 -91.5 -77.5t-151.5 -20.5h-33h-90v197h14 q65 0 89 29t24 108v33v104v29q-2 82 -29.5 115t-97.5 36v178q75 3 101 40t26 139q0 90 -24.5 126.5t-84.5 36.5q-78 0 -102 -65q-11 -28 -11 -113v-993h-348z" />
<glyph unicode="&#xe0;" horiz-adv-x="989" d="M55 258q0 154 121 238q44 31 141 69q30 11 82 29q55 22 80 29l94 32q1 0 25 7v18q0 87 -22.5 122.5t-77.5 35.5q-47 0 -75 -28t-28 -75v-33v-18h-284v248q98 49 207 77.5t200 28.5q161 0 264 -75q54 -40 78.5 -89t24.5 -120v-37v-363v-16v-37q0 -47 12 -66t49 -28v-207 h-336v98q-82 -66 -143 -91t-139 -25q-126 0 -199.5 74.5t-73.5 201.5zM299 1374h213l78 -244h-129zM365 283q0 -34 21.5 -55t55.5 -21q32 0 75 25.5t81 66.5v166q-7 -3 -29 -14l-39 -19q-1 -1 -6 -3t-15 -7l-20 -10l-40 -21q-84 -46 -84 -108z" />
<glyph unicode="&#xe1;" horiz-adv-x="989" d="M55 258q0 154 121 238q44 31 141 69q30 11 82 29q55 22 80 29l94 32q1 0 25 7v18q0 87 -22.5 122.5t-77.5 35.5q-47 0 -75 -28t-28 -75v-33v-18h-284v248q98 49 207 77.5t200 28.5q161 0 264 -75q54 -40 78.5 -89t24.5 -120v-37v-363v-16v-37q0 -47 12 -66t49 -28v-207 h-336v98q-82 -66 -143 -91t-139 -25q-126 0 -199.5 74.5t-73.5 201.5zM365 283q0 -34 21.5 -55t55.5 -21q32 0 75 25.5t81 66.5v166q-7 -3 -29 -14l-39 -19q-1 -1 -6 -3t-15 -7l-20 -10l-40 -21q-84 -46 -84 -108zM457 1130l78 244h213l-160 -244h-131z" />
<glyph unicode="&#xe2;" horiz-adv-x="989" d="M55 258q0 154 121 238q44 31 141 69q30 11 82 29q55 22 80 29l94 32q1 0 25 7v18q0 87 -22.5 122.5t-77.5 35.5q-47 0 -75 -28t-28 -75v-33v-18h-284v248q98 49 207 77.5t200 28.5q161 0 264 -75q54 -40 78.5 -89t24.5 -120v-37v-363v-16v-37q0 -47 12 -66t49 -28v-207 h-336v98q-82 -66 -143 -91t-139 -25q-126 0 -199.5 74.5t-73.5 201.5zM250 1130l160 242h204l156 -242h-164l-100 156l-96 -156h-160zM365 283q0 -34 21.5 -55t55.5 -21q32 0 75 25.5t81 66.5v166q-7 -3 -29 -14l-39 -19q-1 -1 -6 -3t-15 -7l-20 -10l-40 -21 q-84 -46 -84 -108z" />
<glyph unicode="&#xe3;" horiz-adv-x="989" d="M55 258q0 154 121 238q44 31 141 69q30 11 82 29q55 22 80 29l94 32q1 0 25 7v18q0 87 -22.5 122.5t-77.5 35.5q-47 0 -75 -28t-28 -75v-33v-18h-284v248q98 49 207 77.5t200 28.5q161 0 264 -75q54 -40 78.5 -89t24.5 -120v-37v-363v-16v-37q0 -47 12 -66t49 -28v-207 h-336v98q-82 -66 -143 -91t-139 -25q-126 0 -199.5 74.5t-73.5 201.5zM246 1161q8 88 49 136.5t111 48.5q34 0 110 -25t102 -25q48 0 62 43h127q-9 -89 -48 -135.5t-104 -46.5q-28 0 -145 31q-46 14 -76 14q-25 0 -38.5 -9t-20.5 -32h-129zM365 283q0 -34 21.5 -55t55.5 -21 q32 0 75 25.5t81 66.5v166q-7 -3 -29 -14l-39 -19q-1 -1 -6 -3t-15 -7l-20 -10l-40 -21q-84 -46 -84 -108z" />
<glyph unicode="&#xe4;" horiz-adv-x="989" d="M55 258q0 154 121 238q44 31 141 69q30 11 82 29q55 22 80 29l94 32q1 0 25 7v18q0 87 -22.5 122.5t-77.5 35.5q-47 0 -75 -28t-28 -75v-33v-18h-284v248q98 49 207 77.5t200 28.5q161 0 264 -75q54 -40 78.5 -89t24.5 -120v-37v-363v-16v-37q0 -47 12 -66t49 -28v-207 h-336v98q-82 -66 -143 -91t-139 -25q-126 0 -199.5 74.5t-73.5 201.5zM197 1255q0 48 33.5 81.5t82.5 33.5t83 -34t34 -83q0 -48 -34 -82t-83 -34t-82.5 34t-33.5 84zM365 283q0 -34 21.5 -55t55.5 -21q32 0 75 25.5t81 66.5v166q-7 -3 -29 -14l-39 -19q-1 -1 -6 -3t-15 -7 l-20 -10l-40 -21q-84 -46 -84 -108zM545 1249q0 49 33.5 83t83.5 34q49 0 82.5 -33.5t33.5 -83.5t-33.5 -84.5t-82.5 -34.5q-48 0 -82.5 35t-34.5 84z" />
<glyph unicode="&#xe5;" horiz-adv-x="989" d="M55 258q0 154 121 238q44 31 141 69q30 11 82 29q55 22 80 29l94 32q1 0 25 7v18q0 87 -22.5 122.5t-77.5 35.5q-47 0 -75 -28t-28 -75v-33v-18h-284v248q98 49 207 77.5t200 28.5q161 0 264 -75q54 -40 78.5 -89t24.5 -120v-37v-363v-16v-37q0 -47 12 -66t49 -28v-207 h-336v98q-82 -66 -143 -91t-139 -25q-126 0 -199.5 74.5t-73.5 201.5zM336 1253q0 71 49 120.5t119 49.5q71 0 120.5 -50t49.5 -122q0 -69 -50 -118.5t-120 -49.5q-69 0 -118.5 50t-49.5 120zM365 283q0 -34 21.5 -55t55.5 -21q32 0 75 25.5t81 66.5v166q-7 -3 -29 -14 l-39 -19q-1 -1 -6 -3t-15 -7l-20 -10l-40 -21q-84 -46 -84 -108zM434 1253q0 -29 20.5 -50t49.5 -21t49 21t20 50t-20 49.5t-49 20.5t-49.5 -20.5t-20.5 -49.5z" />
<glyph unicode="&#xe6;" horiz-adv-x="1474" d="M55 262q0 162 129 240q49 29 150 71q12 4 137 52q37 12 123 45v24v8v9q0 125 -105 125q-98 0 -98 -121l2 -31h-289v246q127 59 220.5 82.5t197.5 23.5q73 0 125.5 -12.5t108.5 -44.5q99 51 239 51q249 0 361 -127q49 -57 49 -158v-301h-524v-133q0 -54 32.5 -87.5 t85.5 -33.5q59 0 90 38.5t31 111.5h285v-246q-117 -63 -203.5 -86.5t-202.5 -23.5q-122 0 -206 31t-150 100q-161 -131 -317 -131q-125 0 -198 74.5t-73 203.5zM360 289q0 -34 23 -56t57 -22q65 0 154 86v170l-33 -14l-82 -41q-66 -32 -92.5 -59t-26.5 -64zM877 627h241v18 v29q0 73 -31 111t-90 38q-57 0 -88.5 -38.5t-31.5 -110.5v-29v-18z" />
<glyph unicode="&#xe7;" horiz-adv-x="933" d="M68 285v51v311v23v43q0 149 105 233t292 84q216 0 399 -112v-283h-268v10v29q0 73 -31 111t-90 38t-90 -38t-31 -111v-29v-278v-29q1 -73 32.5 -111.5t88.5 -38.5q58 0 89.5 39t31.5 111v43v31h268v-318q-138 -104 -356 -110h-6v-54h10q58 0 81 -30t23 -105 q0 -55 -14 -80q-17 -26 -50.5 -41.5t-74.5 -15.5q-66 0 -127 33v106h101q2 -42 6.5 -54.5t19.5 -12.5q25 0 25 39v16v16v11q0 24 -7 31t-30 7h-14h-52v136q-162 15 -246.5 91.5t-84.5 207.5z" />
<glyph unicode="&#xe8;" horiz-adv-x="950" d="M68 336v340q0 85 12.5 133.5t46.5 89.5q50 63 140 97t210 34q115 0 207 -34.5t145 -96.5q32 -37 43 -81.5t11 -141.5v-227h-529v-82v-25q0 -75 31 -114.5t90 -39.5q58 0 89.5 37.5t31.5 106.5v8h287v-244q-191 -114 -406 -114q-246 0 -352 131q-33 42 -45 88.5t-12 134.5 zM260 1374h213l78 -244h-129zM354 627h242v18v29q0 73 -31 111t-90 38q-57 0 -89 -38.5t-32 -110.5v-29v-18z" />
<glyph unicode="&#xe9;" horiz-adv-x="950" d="M68 336v340q0 85 12.5 133.5t46.5 89.5q50 63 140 97t210 34q115 0 207 -34.5t145 -96.5q32 -37 43 -81.5t11 -141.5v-227h-529v-82v-25q0 -75 31 -114.5t90 -39.5q58 0 89.5 37.5t31.5 106.5v8h287v-244q-191 -114 -406 -114q-246 0 -352 131q-33 42 -45 88.5t-12 134.5 zM354 627h242v18v29q0 73 -31 111t-90 38q-57 0 -89 -38.5t-32 -110.5v-29v-18zM408 1130l77 244h213l-159 -244h-131z" />
<glyph unicode="&#xea;" horiz-adv-x="950" d="M68 336v340q0 85 12.5 133.5t46.5 89.5q50 63 140 97t210 34q115 0 207 -34.5t145 -96.5q32 -37 43 -81.5t11 -141.5v-227h-529v-82v-25q0 -75 31 -114.5t90 -39.5q58 0 89.5 37.5t31.5 106.5v8h287v-244q-191 -114 -406 -114q-246 0 -352 131q-33 42 -45 88.5t-12 134.5 zM223 1130l160 242h205l155 -242h-163l-101 156l-96 -156h-160zM354 627h242v18v29q0 73 -31 111t-90 38q-57 0 -89 -38.5t-32 -110.5v-29v-18z" />
<glyph unicode="&#xeb;" horiz-adv-x="950" d="M68 336v340q0 85 12.5 133.5t46.5 89.5q50 63 140 97t210 34q115 0 207 -34.5t145 -96.5q32 -37 43 -81.5t11 -141.5v-227h-529v-82v-25q0 -75 31 -114.5t90 -39.5q58 0 89.5 37.5t31.5 106.5v8h287v-244q-191 -114 -406 -114q-246 0 -352 131q-33 42 -45 88.5t-12 134.5 zM186 1245q0 48 34 81.5t83 33.5t83 -34t34 -83q0 -48 -34 -82.5t-83 -34.5t-83 34.5t-34 84.5zM354 627h242v18v29q0 73 -31 111t-90 38q-57 0 -89 -38.5t-32 -110.5v-29v-18zM535 1239q0 50 33.5 83.5t82.5 33.5t83 -34t34 -83q0 -50 -34 -84.5t-83 -34.5q-47 0 -81.5 35 t-34.5 84z" />
<glyph unicode="&#xec;" horiz-adv-x="520" d="M10 0v207q40 12 52 29.5t12 66.5v31v20v303v21v33q0 47 -12 64.5t-52 29.5v207h350v-658v-20v-31q0 -49 11.5 -66.5t50.5 -29.5v-207h-412zM10 1374h213l78 -244h-129z" />
<glyph unicode="&#xed;" horiz-adv-x="520" d="M55 0v207q40 12 52 29.5t12 66.5v31v20v303v21v33q0 47 -12 64.5t-52 29.5v207h351v-658v-20v-31q0 -49 11 -66.5t50 -29.5v-207h-412zM178 1130l78 244h213l-160 -244h-131z" />
<glyph unicode="&#xee;" horiz-adv-x="520" d="M0 0v207q40 12 51.5 29.5t11.5 66.5v31v20v303v21v33q0 47 -11.5 64.5t-51.5 29.5v207h350v-658v-20v-31q0 -49 11.5 -66.5t50.5 -29.5v-207h-412zM0 1137l160 241h205l155 -241h-164l-100 155l-96 -155h-160z" />
<glyph unicode="&#xef;" horiz-adv-x="520" d="M-35 1249q0 48 34 81.5t83 33.5q50 0 83.5 -34t33.5 -83q0 -48 -34 -82.5t-83 -34.5t-83 34.5t-34 84.5zM66 0v207q40 12 51.5 29.5t11.5 66.5v31v20v303v21v33q0 47 -11.5 64.5t-51.5 29.5v207h350v-658v-20v-31q0 -49 11 -66.5t50 -29.5v-207h-411zM313 1243 q0 49 33.5 83t83.5 34t83.5 -34t33.5 -83q0 -50 -34 -84.5t-83 -34.5q-48 0 -82.5 35t-34.5 84z" />
<glyph unicode="&#xf1;" horiz-adv-x="1062" d="M57 0v207q42 12 53 34t11 93v20v303v21q0 71 -11 93t-53 34v207h340v-68l4 2q75 47 131 65.5t125 18.5q141 0 218 -75t77 -212v-34v-355v-51q0 -49 14.5 -68.5t53.5 -27.5v-207h-330q-24 93 -24 233v25v352v27q2 84 -17 119q-13 27 -42.5 43t-65.5 16q-62 0 -133 -53 v-408v-20v-31q0 -49 11 -66.5t50 -29.5v-207h-412zM233 1161q8 88 49 136.5t111 48.5q35 0 111 -25t102 -25q48 0 62 43h127q-9 -89 -48 -135.5t-104 -46.5q-28 0 -145 31q-45 14 -76 14q-25 0 -39 -9t-21 -32h-129z" />
<glyph unicode="&#xf2;" horiz-adv-x="950" d="M68 336v340q0 86 13 133t48 90q109 131 346 131q240 0 346 -131q36 -42 49 -89t13 -134v-340q0 -87 -13 -134t-49 -89q-106 -131 -346 -131q-237 0 -346 131q-35 43 -48 90t-13 133zM256 1374h213l78 -244h-129zM354 338q2 -72 33 -111t88 -39q58 0 89.5 39t31.5 111v29 v278v29q0 73 -31 111t-90 38q-57 0 -89 -38.5t-32 -110.5v-29v-278v-29z" />
<glyph unicode="&#xf3;" horiz-adv-x="950" d="M68 336v340q0 86 13 133t48 90q109 131 346 131q240 0 346 -131q36 -42 49 -89t13 -134v-340q0 -87 -13 -134t-49 -89q-106 -131 -346 -131q-237 0 -346 131q-35 43 -48 90t-13 133zM354 338q2 -72 33 -111t88 -39q58 0 89.5 39t31.5 111v29v278v29q0 73 -31 111t-90 38 q-57 0 -89 -38.5t-32 -110.5v-29v-278v-29zM410 1130l77 244h213l-159 -244h-131z" />
<glyph unicode="&#xf4;" horiz-adv-x="950" d="M68 336v340q0 86 13 133t48 90q109 131 346 131q240 0 346 -131q36 -42 49 -89t13 -134v-340q0 -87 -13 -134t-49 -89q-106 -131 -346 -131q-237 0 -346 131q-35 43 -48 90t-13 133zM236 1130l159 242h205l156 -242h-164l-100 156l-97 -156h-159zM354 338q2 -72 33 -111 t88 -39q58 0 89.5 39t31.5 111v29v278v29q0 73 -31 111t-90 38q-57 0 -89 -38.5t-32 -110.5v-29v-278v-29z" />
<glyph unicode="&#xf5;" horiz-adv-x="950" d="M68 336v340q0 86 13 133t48 90q109 131 346 131q240 0 346 -131q36 -42 49 -89t13 -134v-340q0 -87 -13 -134t-49 -89q-106 -131 -346 -131q-237 0 -346 131q-35 43 -48 90t-13 133zM215 1161q8 88 49 136.5t111 48.5q34 0 110 -25t103 -25q47 0 61 43h127 q-9 -89 -47.5 -135.5t-103.5 -46.5q-29 0 -146 31q-45 14 -76 14q-25 0 -38.5 -9t-20.5 -32h-129zM354 338q2 -72 33 -111t88 -39q58 0 89.5 39t31.5 111v29v278v29q0 73 -31 111t-90 38q-57 0 -89 -38.5t-32 -110.5v-29v-278v-29z" />
<glyph unicode="&#xf6;" horiz-adv-x="950" d="M68 336v340q0 86 13 133t48 90q109 131 346 131q240 0 346 -131q36 -42 49 -89t13 -134v-340q0 -87 -13 -134t-49 -89q-106 -131 -346 -131q-237 0 -346 131q-35 43 -48 90t-13 133zM182 1255q0 48 34 81.5t83 33.5t83 -34t34 -83q0 -48 -34 -82t-83 -34t-83 34t-34 84z M354 338q2 -72 33 -111t88 -39q58 0 89.5 39t31.5 111v29v278v29q0 73 -31 111t-90 38q-57 0 -89 -38.5t-32 -110.5v-29v-278v-29zM530 1249q0 49 34 83t83 34t83 -34t34 -83q0 -50 -34 -84.5t-83 -34.5q-48 0 -82.5 35t-34.5 84z" />
<glyph unicode="&#xf7;" d="M68 0v1366h684v-1366h-684zM82 14h655v1338h-655v-1338z" />
<glyph unicode="&#xf8;" horiz-adv-x="950" d="M68 336v340q0 86 13 133t48 90q109 131 346 131q75 0 152 -18l37 69l190 -100l-39 -74q40 -46 54 -93.5t14 -137.5v-340q0 -87 -13 -134t-49 -89q-104 -131 -346 -131q-75 0 -141 16h-4l-37 -66l-189 101l35 67q-41 46 -56 95.5t-15 140.5zM354 338q2 -72 33 -111t88 -39 q58 0 89.5 39t31.5 111v29v278v29q0 73 -31 111t-90 38q-57 0 -89 -38.5t-32 -110.5v-29v-278v-29z" />
<glyph unicode="&#xf9;" horiz-adv-x="1062" d="M43 805v207h332q13 -52 17.5 -97.5t4.5 -136.5v-24v-353v-26q0 -84 17 -119q32 -59 108 -59q65 0 133 53v407v21l2 33q-2 47 -13.5 64.5t-49.5 29.5v207h348v-658v-20q2 -72 12.5 -93.5t51.5 -33.5v-207h-340v68q-127 -86 -260 -86q-141 0 -218 74.5t-77 211.5v35v354v54 q0 47 -15 67.5t-53 26.5zM285 1374h213l77 -244h-129z" />
<glyph unicode="&#xfa;" horiz-adv-x="1062" d="M43 805v207h332q13 -52 17.5 -97.5t4.5 -136.5v-24v-353v-26q0 -84 17 -119q32 -59 108 -59q65 0 133 53v407v21l2 33q-2 47 -13.5 64.5t-49.5 29.5v207h348v-658v-20q2 -72 12.5 -93.5t51.5 -33.5v-207h-340v68q-127 -86 -260 -86q-141 0 -218 74.5t-77 211.5v35v354v54 q0 47 -15 67.5t-53 26.5zM438 1124l78 244h213l-160 -244h-131z" />
<glyph unicode="&#xfb;" horiz-adv-x="1062" d="M43 805v207h332q13 -52 17.5 -97.5t4.5 -136.5v-24v-353v-26q0 -84 17 -119q32 -59 108 -59q65 0 133 53v407v21l2 33q-2 47 -13.5 64.5t-49.5 29.5v207h348v-658v-20q2 -72 12.5 -93.5t51.5 -33.5v-207h-340v68q-127 -86 -260 -86q-141 0 -218 74.5t-77 211.5v35v354v54 q0 47 -15 67.5t-53 26.5zM248 1130l160 242h204l156 -242h-164l-100 156l-96 -156h-160z" />
<glyph unicode="&#xfc;" horiz-adv-x="1062" d="M43 805v207h332q13 -52 17.5 -97.5t4.5 -136.5v-24v-353v-26q0 -84 17 -119q32 -59 108 -59q65 0 133 53v407v21l2 33q-2 47 -13.5 64.5t-49.5 29.5v207h348v-658v-20q2 -72 12.5 -93.5t51.5 -33.5v-207h-340v68q-127 -86 -260 -86q-141 0 -218 74.5t-77 211.5v35v354v54 q0 47 -15 67.5t-53 26.5zM217 1255q0 48 34 81.5t83 33.5q50 0 83.5 -34t33.5 -83q0 -48 -34 -82t-83 -34t-83 34t-34 84zM565 1249q0 49 33.5 83t83.5 34t83.5 -34t33.5 -83q0 -50 -34 -84.5t-83 -34.5q-48 0 -82.5 35t-34.5 84z" />
<glyph unicode="&#xff;" horiz-adv-x="931" d="M14 805v207h400v-207q-41 -8 -41 -43q0 -19 8 -51l102 -387l99 397q4 12 4 33q0 37 -37 51v207h371v-207q-28 -9 -41.5 -29t-28.5 -74l-191 -686q-59 -206 -139.5 -288t-224.5 -82q-44 0 -100 10v219q6 -2 14 -2q45 0 73.5 22t47.5 70l-250 756q-15 43 -27.5 59t-38.5 25 zM182 1255q0 48 34 81.5t83 33.5t83 -34t34 -83q0 -48 -34 -82t-83 -34t-83 34t-34 84zM530 1249q0 49 34 83t83 34t83 -34t34 -83q0 -50 -34 -84.5t-83 -34.5q-48 0 -82.5 35t-34.5 84z" />
<glyph unicode="&#x152;" horiz-adv-x="1650" d="M96 444v41v394v43q0 128 27.5 208t91.5 138q57 53 131.5 75.5t192.5 22.5h43h987v-422h-295v10q0 78 -29.5 111t-99.5 33h-25h-116v-275h362v-231h-362v-324h143q71 0 97.5 28.5t27.5 106.5q2 39 2 54h295v-457h-987h-43q-120 0 -192.5 21.5t-131.5 74.5 q-66 60 -92.5 138t-26.5 210zM410 403q2 -71 40.5 -103t124.5 -32h31h84v830h-84h-31q-86 -1 -125.5 -33.5t-39.5 -101.5v-45v-469v-46z" />
<glyph unicode="&#x153;" horiz-adv-x="1478" d="M68 285v51v340v51q1 79 25 132t75 91q47 37 128.5 58.5t170.5 21.5q162 0 272 -61q119 61 275 61q97 0 182 -25.5t135 -68.5q80 -74 80 -209v-51v-227h-528v-82v-29q0 -78 29 -114t92 -36q120 0 120 144v8h287v-248q-108 -59 -202.5 -84.5t-204.5 -25.5q-151 0 -265 57 q-108 -57 -262 -57q-409 0 -409 303zM354 338q0 -150 121 -150q63 0 92 35.5t29 112.5v31v278v29q0 77 -29 113t-92 36q-62 0 -91.5 -36.5t-29.5 -112.5v-29v-278v-29zM883 627h241v18v29q0 77 -28.5 113t-91.5 36q-62 0 -91.5 -36.5t-29.5 -112.5v-29v-18z" />
<glyph unicode="&#x178;" horiz-adv-x="1048" d="M27 1147v219h407v-160v-37v-16v-6v-6q0 -41 27 -97l88 -184l90 182q19 37 24 61.5t5 76.5v39v147h354v-225q-24 -4 -41 -23.5t-41 -66.5l-10 -17l-250 -497v-175v-30q1 -52 16.5 -75t55.5 -34v-223h-457v223q41 10 56.5 34t15.5 75v24v168l-254 523q-27 53 -44 73.5 t-42 26.5zM231 1618q0 48 34 81.5t83 33.5q50 0 83.5 -33.5t33.5 -83.5q0 -48 -34 -82.5t-83 -34.5t-83 34.5t-34 84.5zM580 1612q0 50 33.5 83.5t82.5 33.5q50 0 83.5 -33.5t33.5 -83.5t-34 -84.5t-83 -34.5q-47 0 -81.5 35t-34.5 84z" />
<glyph unicode="&#x2c6;" horiz-adv-x="792" d="M137 1130l160 242h205l155 -242h-163l-101 156l-96 -156h-160z" />
<glyph unicode="&#x2dc;" horiz-adv-x="833" d="M137 1161q8 88 49 136.5t111 48.5q35 0 111 -25t102 -25q47 0 61 43h127q-9 -89 -47.5 -135.5t-103.5 -46.5q-29 0 -146 31q-45 14 -75 14q-25 0 -39 -9t-21 -32h-129z" />
<glyph unicode="&#x2000;" horiz-adv-x="893" />
<glyph unicode="&#x2001;" horiz-adv-x="1786" />
<glyph unicode="&#x2002;" horiz-adv-x="893" />
<glyph unicode="&#x2003;" horiz-adv-x="1786" />
<glyph unicode="&#x2004;" horiz-adv-x="595" />
<glyph unicode="&#x2005;" horiz-adv-x="446" />
<glyph unicode="&#x2006;" horiz-adv-x="297" />
<glyph unicode="&#x2007;" horiz-adv-x="297" />
<glyph unicode="&#x2008;" horiz-adv-x="223" />
<glyph unicode="&#x2009;" horiz-adv-x="357" />
<glyph unicode="&#x200a;" horiz-adv-x="99" />
<glyph unicode="&#x2010;" horiz-adv-x="684" d="M96 434v197h492v-197h-492z" />
<glyph unicode="&#x2011;" horiz-adv-x="684" d="M96 434v197h492v-197h-492z" />
<glyph unicode="&#x2012;" horiz-adv-x="684" d="M96 434v197h492v-197h-492z" />
<glyph unicode="&#x2013;" horiz-adv-x="1175" d="M96 434v197h985v-197h-985z" />
<glyph unicode="&#x2014;" horiz-adv-x="2238" d="M96 434v197h2048v-197h-2048z" />
<glyph unicode="&#x2018;" horiz-adv-x="487" d="M115 1130q0 74 48 143t134 120l43 -60q-38 -26 -56.5 -47.5t-29.5 -50.5q52 -4 84.5 -37t32.5 -80q0 -57 -36.5 -94t-90.5 -37q-58 0 -93.5 39t-35.5 104z" />
<glyph unicode="&#x2019;" horiz-adv-x="487" d="M115 1262q0 57 36.5 94t92.5 37q57 0 92 -39.5t35 -104.5q0 -74 -47.5 -142.5t-133.5 -119.5l-43 60q65 46 86 98q-54 4 -86 36.5t-32 80.5z" />
<glyph unicode="&#x201a;" d="M68 0v1366h684v-1366h-684zM82 14h655v1338h-655v-1338z" />
<glyph unicode="&#x201c;" horiz-adv-x="811" d="M115 1130q0 74 48 143t134 120l43 -60q-38 -26 -56.5 -47.5t-29.5 -50.5q52 -4 84.5 -37t32.5 -80q0 -57 -36.5 -94t-90.5 -37q-58 0 -93.5 39t-35.5 104zM440 1130q0 74 47.5 143t133.5 120l43 -60q-38 -27 -57 -48t-29 -50q52 -4 85 -37t33 -80q0 -57 -36.5 -94 t-92.5 -37q-57 0 -92 39.5t-35 103.5z" />
<glyph unicode="&#x201d;" horiz-adv-x="811" d="M115 1262q0 57 36.5 94t92.5 37q57 0 92 -39.5t35 -104.5q0 -74 -47.5 -142.5t-133.5 -119.5l-43 60q65 46 86 98q-54 4 -86 36.5t-32 80.5zM440 1262q0 57 36 94t91 37q57 0 93 -40t36 -104q0 -73 -48 -142t-134 -120l-43 60q38 26 56.5 47.5t29.5 50.5q-52 4 -84.5 37 t-32.5 80z" />
<glyph unicode="&#x201e;" horiz-adv-x="811" d="M115 125q0 56 37 93.5t92 37.5q57 0 92 -39.5t35 -103.5q0 -74 -47.5 -144t-133.5 -119l-43 58q65 49 86 98q-54 4 -86 36.5t-32 82.5zM440 125q0 56 36 93.5t91 37.5q57 0 93 -39.5t36 -103.5q0 -74 -48 -144t-134 -119l-43 58q38 28 56.5 49t29.5 49q-53 5 -85 37.5 t-32 81.5z" />
<glyph unicode="&#x2022;" horiz-adv-x="634" d="M96 692q0 91 64.5 156t156.5 65t157 -65t65 -156q0 -92 -65 -156.5t-157 -64.5t-156.5 64.5t-64.5 156.5z" />
<glyph unicode="&#x2026;" horiz-adv-x="2048" d="M195 129q0 61 42.5 104t104.5 43q60 0 103.5 -43t43.5 -104q0 -60 -43.5 -103.5t-103.5 -43.5q-61 0 -104 43.5t-43 103.5zM877 129q0 61 42.5 104t104.5 43t104.5 -43t42.5 -104q0 -60 -43 -103.5t-104 -43.5t-104 43.5t-43 103.5zM1559 129q0 61 43.5 104t103.5 43 q62 0 104.5 -43t42.5 -104q0 -60 -43 -103.5t-104 -43.5q-60 0 -103.5 43.5t-43.5 103.5z" />
<glyph unicode="&#x202f;" horiz-adv-x="357" />
<glyph unicode="&#x2039;" horiz-adv-x="458" d="M96 524l107 269h162l-109 -269l109 -268h-162z" />
<glyph unicode="&#x203a;" horiz-adv-x="458" d="M96 256l107 268l-107 269h160l109 -269l-109 -268h-160z" />
<glyph unicode="&#x205f;" horiz-adv-x="446" />
<glyph unicode="&#x20ac;" horiz-adv-x="1114" d="M-49 514v123h186v96h-186v123h186v182q0 355 459 355q112 0 214 -22t230 -73v-372h-288v21v25.5t-1.5 22t-3.5 25.5t-7 20t-11 21q-41 59 -127 59q-83 0 -127 -63q-15 -23 -19.5 -47t-4.5 -78v-76h493v-123h-493v-96h397v-123h-397v-53q0 -77 3.5 -101.5t20.5 -46.5 q45 -61 127 -61q86 0 127 59q7 9 11.5 21t6.5 20t3.5 24.5t1.5 20.5v25v22h288v-112q0 -359 -448 -359q-221 0 -346 101q-109 84 -109 258v182h-186z" />
<glyph unicode="&#x2122;" d="M68 0v1366h684v-1366h-684zM82 14h655v1338h-655v-1338z" />
<glyph unicode="&#x25fc;" horiz-adv-x="1013" d="M0 0v1014h1014v-1014h-1014z" />
<glyph unicode="&#xfb01;" horiz-adv-x="1042" d="M57 0v207q41 12 52.5 34.5t11.5 92.5v31v432h-64v215h64v43q0 103 12 151t49 92q74 88 219 88q59 0 140 -16v-205q-28 4 -31 4q-55 0 -78.5 -33t-23.5 -108v-16h520v-658v-20q0 -71 11 -93t52 -34v-207h-411v207q41 12 51 33.5t10 93.5v20v293v23q0 57 -4 75t-21 31 q-21 21 -77 21h-131v-443v-20q0 -71 10.5 -93t50.5 -34v-207h-412zM614 1227q0 66 47.5 114t114.5 48q66 0 114 -48t48 -114q0 -67 -47.5 -113.5t-114.5 -46.5q-68 0 -115 46.5t-47 113.5z" />
<glyph unicode="&#xfb02;" horiz-adv-x="1042" d="M57 0v207q41 12 52.5 34.5t11.5 92.5v31v432h-64v215h64v43q0 103 12 151t49 92q74 88 219 88q75 0 154 -20h373v-1012v-20q0 -71 11 -93t52 -34v-207h-411v207q41 12 51 33.5t10 93.5v20v656q0 65 -8 96q-11 29 -40.5 46t-72.5 17q-63 0 -87.5 -31.5t-24.5 -109.5v-16 h116v-215h-116v-443v-20q0 -71 10.5 -93t50.5 -34v-207h-412z" />
</font>
</defs>
</svg>
