<?xml version="1.0" encoding="utf-8"?>
<!-- Generator: Adobe Illustrator 16.0.0, SVG Export Plug-In . SVG Version: 6.00 Build 0)  -->
<!DOCTYPE svg PUBLIC "-//W3C//DTD SVG 1.1//EN" "http://www.w3.org/Graphics/SVG/1.1/DTD/svg11.dtd">
<svg version="1.1" id="Layer_1" xmlns="http://www.w3.org/2000/svg" xmlns:xlink="http://www.w3.org/1999/xlink" x="0px" y="0px"
	 width="612px" height="792px" viewBox="0 0 480 792" enable-background="new 0 0 612 792" xml:space="preserve">
<rect x="145.13" y="53.784" fill="none" width="136.172" height="537.09"/>
<rect x="105.654" y="158.2" fill="none" width="62.475" height="89.699"/>
<rect x="113.681" y="149.824" fill="none" width="27.224" height="31.412"/>
<rect x="441.064" y="168.671" fill="none" width="63.521" height="63.871"/>
<rect x="446.997" y="221.723" fill="none" width="50.608" height="20.812"/>
<rect x="452.59" y="175.209" fill="none" width="37.337" height="36.357"/>
<rect x="235.677" y="69.237" fill="none" width="137.986" height="24.583"/>
<rect x="92.413" y="246.769" fill="none" width="73.87" height="9.765"/>
<rect x="92.413" y="249.965" fill="none" width="73.87" height="9.764"/>
<rect x="167.048" y="561.172" fill="none" width="270.258" height="26.68"/>
<rect x="166.163" y="563.765" fill="none" width="272.823" height="28.082"/>
<rect x="233.835" y="70.94" fill="none" width="141.974" height="25.672"/>
<rect x="61.693" fill="none" width="488.613" height="632.322"/>
<g>
	<defs>
		<rect id="SF_SVGID_1_" x="61.693" y="80.676" width="488.613" height="632.324"/>
	</defs>
	<clipPath id="SF_SVGID_2_">
		<use xlink:href="#SF_SVGID_1_"  overflow="visible"/>
	</clipPath>
	<g clip-path="url(#SF_SVGID_2_)">
		<defs>
			<rect id="SF_SVGID_3_" x="61.693" y="80.676" width="488.613" height="632.324"/>
		</defs>
		<clipPath id="SF_SVGID_4_">
			<use xlink:href="#SF_SVGID_3_"  overflow="visible"/>
		</clipPath>
    <g id="MASK">
      <g id="BODY">
        		<path clip-path="url(#SF_SVGID_4_)" fill="#FDBB2D" d="M459.25,193.372c0,0-18.269-6.09-43.979-16.238
			c-16.229-6.406-30.563-16.044-39.785-22.964c-4.569,4.983-23.679,22.263-69.252,22.713c-45.187,0.448-66.95-18.881-72.741-25.056
			c-8.904,6.925-24.691,18.139-42.853,25.307c-25.711,10.148-43.979,16.238-43.979,16.238s-0.599,0.433-1.53,1.077v0.004
			c0.01,0.517,0.025,1.088,0.043,1.699c0.001,0.049,0.003,0.099,0.005,0.149c0.008,0.285,0.018,0.579,0.028,0.881
			c0.001,0.018,0.001,0.035,0.001,0.053c0.011,0.316,0.023,0.643,0.037,0.974c0.002,0.065,0.004,0.131,0.007,0.197
			c0.011,0.267,0.023,0.538,0.034,0.815c0.004,0.083,0.008,0.167,0.012,0.252c0.016,0.336,0.032,0.68,0.05,1.025
			c0.002,0.045,0.004,0.091,0.006,0.134c0.017,0.301,0.033,0.604,0.051,0.911c0.006,0.107,0.013,0.215,0.02,0.323
			c0.016,0.29,0.034,0.583,0.054,0.877c0.005,0.068,0.009,0.135,0.014,0.203c0.023,0.355,0.049,0.712,0.075,1.069
			c0.007,0.097,0.015,0.193,0.022,0.29c0.021,0.275,0.043,0.549,0.065,0.823c0.01,0.108,0.018,0.217,0.028,0.326
			c0.03,0.358,0.061,0.714,0.096,1.07c0.003,0.039,0.007,0.079,0.011,0.118c0.031,0.319,0.063,0.637,0.097,0.953
			c0.012,0.107,0.023,0.213,0.035,0.319c0.031,0.28,0.063,0.559,0.096,0.834c0.009,0.08,0.018,0.159,0.028,0.237
			c0.042,0.342,0.086,0.68,0.131,1.014c0.011,0.081,0.023,0.16,0.035,0.24c0.037,0.264,0.076,0.523,0.116,0.779
			c0.014,0.093,0.028,0.186,0.042,0.278c0.052,0.323,0.106,0.641,0.161,0.951c1.44,7.921,9.363,37.087,11.162,45.729
			c1.801,8.642,10.083,54.371,11.163,59.772c0.075,0.371,0.141,0.759,0.202,1.16c0.005,0.034,0.01,0.068,0.014,0.102
			c0.057,0.375,0.107,0.759,0.153,1.154c0.006,0.041,0.011,0.083,0.015,0.125c0.044,0.398,0.085,0.804,0.121,1.214
			c0.002,0.029,0.006,0.059,0.008,0.09c0.037,0.437,0.07,0.877,0.099,1.318c0,0.007,0,0.013,0,0.02
			c0.028,0.437,0.051,0.872,0.07,1.306c0.002,0.036,0.003,0.072,0.004,0.107c0.019,0.411,0.033,0.817,0.045,1.215
			c0.001,0.035,0.002,0.072,0.004,0.108c0.011,0.415,0.021,0.822,0.027,1.218c0,0.005,0,0.013,0,0.02
			c0.007,0.413,0.011,0.813,0.013,1.195c0.021-0.054,0.034-0.085,0.034-0.085s4.06,21.651,3.383,30.447
			c-0.677,8.796,4.06,63.6,7.444,80.516c3.381,16.914,7.441,60.217,4.059,78.485c-3.383,18.267-11.502,66.983-13.532,87.958
			c-2.03,20.975-2.03,36.536-2.03,36.536s-2.706,2.705-2.706,5.413c0,2.706,1.353,8.795,1.353,8.795v4.737
			c0,0,1.353,10.149,29.095,12.178c27.74,2.03,60.894,2.707,71.042,4.737c2.641,0.527,5.924,1.055,9.488,1.547l-0.015,0.482
			c0,0,13.531,2.03,22.327,2.03c0.996,0,2.138-0.028,3.383-0.077c1.246,0.049,2.387,0.077,3.383,0.077
			c8.795,0,22.328-2.03,22.328-2.03l-0.017-0.482c3.564-0.492,6.85-1.02,9.489-1.547c10.148-2.03,43.302-2.707,71.043-4.737
			c27.74-2.028,29.094-12.178,29.094-12.178v-4.737c0,0,1.354-6.089,1.354-8.795c0-2.708-2.707-5.413-2.707-5.413
			s0-15.562-2.03-36.536s-10.148-69.691-13.531-87.958c-3.383-18.269,0.677-61.571,4.06-78.485
			c3.383-16.916,8.119-71.72,7.441-80.516c-0.581-7.567,2.341-24.636,3.168-29.261c-0.016-3.105,0.088-8.008,0.776-11.452
			c1.08-5.401,9.362-51.13,11.162-59.772c1.801-8.642,9.722-37.808,11.162-45.729c1.017-5.591,1.315-13.687,1.403-17.97
			C459.74,193.728,459.25,193.372,459.25,193.372"/>

      </g>
       <g id="PATTERN2">
		<path clip-path="url(#SF_SVGID_6_)" fill="#7D2B47" d="M393,659.836l-0.032,0.517l-0.294-1.62c0.138-0.083,0.241,0.071,0.326,0.375
			v-2.401c-0.544,1.406-1.12,3.667-1.313-10.708c0.197,4.522,0.771,17.758,1.313,7.547v-2.451l-0.479-9.94l0.479,6.697v-10.83
			l-0.114-0.085c0.03-0.742,0.071-1.521,0.114-2.305v-7.186l-0.027,0.218c-0.047,1.64-0.08,3.174-0.141,4.931
			c-0.065-2.084,0.016-3.833,0.141-4.931c0.01-0.355,0.017-0.69,0.027-1.042v-30.924c-0.186,0.667-0.317,2.059-0.405,5.883
			c-0.384-6.776,0.131-16.636,0.405-26.97v-12.899l-0.168,0.62l0.168-2.854v-4.438l-0.323-0.275
			c-0.083-10.025-0.094-21.691,0.323-30.229v-10.062c-0.133-0.039-0.274,0.729-0.423,3.287c0.191-3.512,0.326-7.264,0.423-11.152
			v-87.63c-0.024-0.044-0.052-0.204-0.087-0.528l0.049,12.03l-0.341-8.447l0.265-4.872c0.023-3.119,0.063-6.456,0.114-9.963v-16.455
			c-0.008-0.173-0.018-0.345-0.025-0.504l-0.357,17.073l-0.423-28.011c-0.172,0.599-0.349,0.543-0.505,0.613l-0.088,0.057
			c-0.188,0.185-0.345,0.799-0.428,3.397c0.029,35.34,1.618,50.281,1.228,87.027c-0.898,3.954,0.021,18.642-0.612,28.176
			c1.574,25.762,0.171,68.57,0.4,93.842c-2.111-36.968-2.158-90.927-2.48-137.687c-0.179,1.159-0.364,0.404-0.412,3.407
			c-0.801-44.295-0.467-94.776-1.736-134.601l0.243-0.276c-0.011-16.67-0.862-15.724-1.162-29.139
			c0.25,1.67,0.406,9.384,0.818,5.949c0.041-4.952-0.48-26.957,0.085-37.399c-0.462-8.312-0.924-1.921-1.216-13.365l0.889-5.899
			c-0.229-10.564,0.111-16.835-0.425-28.009l-0.451,8.358c0.354-17.105-0.387-32.967,0.406-47.597l-0.31-0.653
			c0.096-4.361,0.183-8.864,0.263-13.464c-0.762-0.498-1.508-0.994-2.239-1.486c-0.082,5.525-0.17,10.778-0.268,15.652
			c0.173,26.327-0.357,59.315,0.513,77.018c-0.318-2.594-0.174-11.585-0.65-9.09c-0.564,25.16,1.129,21.332,0.484,41.699
			c0.641,7.149,0.54-16.318,0.963-3.02c-0.501,11.322-1.837,12.82-0.951,34.413c0.672,0.243,0.193-11.982,0.852-0.919
			c-1.97,10.983-2.514,54.799-3.379,66.571l0.85-0.951c0.124,14.586-0.992,24.688-0.838,32.365
			c0.998,19.52-1.055,53.244,0.827,64.898l-0.696,8.603l0.586,8.205l-0.552-0.378c0.077,32.335,3.007,3.546,2.857,40.049
			c-0.373-1.542-0.747-3.116-0.949-7.79c-0.478,2.489-0.313,12.123-0.095,20.755l-0.85,0.911c-0.098,5.987,0.342,8.484,0.534,11.215
			c-1.451-11.181-0.821,21.506-1.358,25.056l0.854-0.92c-0.844,2.872-1.061,9.013-1.57,18.431l0.932,3.871
			c-0.35,4.3-0.914,14.75-0.223,18.91l-1.348-0.487c0.845,11.827-0.273,7.17,0.402,22.136l0.834-4.845
			c-0.633,9.532-1.653,13.613-1.91,24.689c0,2.58,0.016,4.971,0.041,7.178c4.108-0.208,8.304-0.425,12.502-0.66
			c0.047-0.971,0.096-2.052,0.145-3.322V659.836z"/>
		<path clip-path="url(#SF_SVGID_6_)" fill="#7D2B47" d="M398.043,604.135c0.006-0.057,0.01-0.123,0.013-0.202L398.043,604.135z"/>
		<path clip-path="url(#SF_SVGID_6_)" fill="#7D2B47" d="M406.936,657.495l-0.046,0.494l0.049-1.095L406.936,657.495
			c0.311-3.07,0.738-11.005,0.567-14.575c-0.078-0.118-0.158-0.573-0.245-1.833c0.13,0.183,0.2,0.888,0.245,1.833
			c0.444,0.493,0.771-15.301,1.69-10.364c0.231-10.914-1.276-6.848-0.217-17.385c-0.774,3.963-0.546-6.964-1.222-2.485
			c0.686,3.658-0.419,15.313-0.9,20.845l-0.41-15.747c0.202,3.831,0.681-1.725,0.774-3.913l-0.634-2.091
			c1.556-2.42-1.111-27.585,0.683-35.495c-0.091,4.89,0.448,9.178-0.373,11.541c0.448,9.141,1.164-1.88,1.706,2.386
			c0.614-14.271-0.391-35.865,0.758-51.308c-0.482,2.805-0.424,9.856-1.059,10.537c-0.334-10.715,0.914-23.572,1.534-36.036v-2.031
			l-0.703,2.042c0.715-11.068-0.3-4.355-0.024-16.349c0.1,0.492,0.393,2.109,0.39-0.648c-0.063-9.761-0.685-0.969-0.888-7.431
			c1.25-12.238-0.837-5.835-0.174-21.214l-0.292,1.141c0.521-12.063-0.623-27.679-0.786-40.654
			c0.196,1.015,0.015,10.818,0.791,9.621l0.225-16.396c-0.197-1.015-0.256-8.079-0.688-3.666c-0.096,2.218,0.053,4.392,0.105,5.974
			l-0.395-2.14c0.418-15.271,1.173,0.909,1.902,0.772c-0.253-8.117,0.473-10.979,0.466-16.43c-0.735-2.582-0.815,10.535-1.603,3.576
			c-0.398-4.848,0.166-20.721,0.888-26.264c-0.918-4.224-0.95-12.966-0.982-20.225c-4.795-30.232-8.359-70.347-2.797-110.208
			c0.356-2.537,1.185-7.371,2.204-13.14c0.22-3.995-0.032-9.241-0.146-12.883l-0.293,1.094c1.548-7.896,0.08-13.041,0.162-23.412
			l-0.436,1.69c0.188-4.363,0.718-11.033,0.074-18.483l-0.532,3.894c0.301-4.771-0.154-12.757,0.036-18.418
			c-3.57-1.719-7.001-3.553-10.264-5.424v7.094l0.473,0.928c-0.296,1.71-0.392,4.999-0.473,8.547v5.065
			c0.061-0.255,0.126-0.448,0.19-0.651c0.092-1.655,0.213-3.125,0.39-4.279c0.005,3.001-0.19,3.71-0.39,4.279
			c-0.089,1.654-0.144,3.528-0.19,5.544v21.054c0.174-1.085,0.282-1.632,0.623,1.77c0.169,10.235-0.178,11.321-0.623,14.527v4.988
			c0.183,0.644,0.397,0.512,0.65-0.502c-0.198,8.684-0.44,17.65-0.65,26.681v27.261c0.07-1.012,0.131-2.022,0.157-3.067
			c-0.006-1.447-0.019-2.833-0.076-3.908c0.098,1.366,0.104,2.654,0.076,3.908c0.008,3.461-0.038,6.85,0.374,5.248
			c-0.062,3.348-0.286,5.203-0.531,6.762v6.951c0.24-1.487-0.152,9.224,0.61,6.947c-0.681,1.771-0.038,9.251-0.318,15.869
			c0.733,2.592,0.564-13.187,1.06-7.864c-0.179,12.59-1.52,29.659-1.252,45.961c0.289-1.137,0.334-4.956,0.478-5.525
			c-0.078,3.75-0.327,7.852-0.577,11.923v17.765c0.357-4.485,0.728-9.455,1.063-14.156c0.007-1.417,0.09-2.292,0.209-3.007
			c0.247-3.551,0.472-6.919,0.627-9.474c0.261,6.915-0.298,7.512-0.627,9.474l-0.209,3.007c-0.005,1.386,0.067,3.265,0.274,6.125
			l0.531-3.897c0.166,13.063-1.156,9.986-1.828,17.22l0.742,8.025c0.417,13.399,0.058,26.021-0.783,35.253l-0.001,12.014
			c0.103,0.862,0.248,0.962,0.459-0.404c0.915-7.249,1.543-10.607,1.574-25.337c-0.639-2.063-0.718,11.006-0.773,6.665
			c0.139-6.018-0.361-16.84,0.216-21.802l-0.077,15.784c0.977-0.154,0.041-6.544,0.523-9.339c0.786,4.24-0.078,13.078,0.369,19.545
			l0.047-1.074c-0.178,12.509,0.016,10.867-0.408,23.409c-0.875,0.707-0.542-4.248-0.892-10.171
			c-0.021,20.19-1.687,47.698-0.148,68.079l0.763-12.098c0.157,7.587-0.654,20.783,0.467,20.06c-0.354-8.652,0.333-4.923,0.522-9.33
			l-0.099-0.526c0.047-1.088,0.188-4.354,0.338-2.278c-0.606,6.545-0.817,17.165-1.166,24.48c0.245-3.204,0.599,3.588,0.768,4.463
			c-0.185,7.139-0.487,0.074-0.828-0.418c-0.045,3.834-0.669,9.958-0.079,13.115c0.492,5.341,0.527-6.606,0.962-8.339l-0.798,21.348
			l0.145-0.565c-0.192,1.687-0.334,4.967-0.187,7.135c0.394,2.11,0.485-2.813,0.382-6.045c0.595,11.204-1.297,19.656-0.088,29.177
			l0.171-3.104c0.053,1.664,0.005,2.721-0.141,3.317l-0.03-0.213l-0.352,6.225c0.092,0.527,0.269,1.453,0.33,0.728l0.013-0.202
			c-0.003,0.079-0.007,0.146-0.013,0.202l-0.368,5.844c-0.373,11.506,0.832,3.109,1.032,6.944l-0.007-0.569l-0.048-3.818
			l0.048,3.818c0.138,3.512,0.49,6.151,0.596,3.702l-0.519,12.067l0.019-0.054c0.146-0.964,0.307-1.56,0.515-1.105l-0.515,1.105
			c-0.718,4.684-0.888,22.397-2.183,22.181c0.102,3.205,0.338,5.746,0.528,4.332l0.012-0.572c-0.028-1.326,0.008-2.433,0.093-4.437
			c-0.056,1.932-0.078,3.28-0.093,4.437v0.528l-0.012,0.044c-0.079,8.939,1.005-2.114,0.811,12.313
			c0.244-0.049,0.192-1.651,0.284-3.868c0.029,3.786-0.059,5.313-0.195,5.944c0.121,0,0.258,0.22,0.422,0.818
			c2.971-0.18,5.919-0.369,8.817-0.574C407.148,667.069,406.882,661.425,406.936,657.495"/>
		<path clip-path="url(#SF_SVGID_6_)" fill="#7D2B47" d="M382.223,641.814l-0.834,4.948c-0.676-15.287,0.442-10.53-0.402-22.612
			l1.348,0.498c-0.691-4.251-0.127-14.925,0.223-19.318l-0.932-3.951c0.51-9.623,0.727-15.896,1.57-18.83l-0.854,0.939
			c0.537-3.625-0.093-37.016,1.358-25.594c-0.192-2.789-0.632-5.341-0.534-11.456l0.85-0.932c-0.219-8.817-0.383-18.658,0.095-21.2
			c0.202,4.773,0.576,6.382,0.949,7.957c0.149-37.289-2.78-7.881-2.857-40.91l0.552,0.383l-0.586-8.38l0.696-8.787
			c-1.882-11.906,0.173-46.357-0.827-66.296c-0.154-7.843,0.962-18.162,0.838-33.062l-0.85,0.97
			c0.865-12.023,1.41-56.783,3.379-68.003c-0.658-11.301-0.18,1.188-0.852,0.939c-0.886-22.057,0.45-23.588,0.951-35.154
			c-0.423-13.584-0.322,10.389-0.963,3.086c0.645-20.806-1.049-16.895-0.484-42.597c0.477-2.549,0.332,6.636,0.65,9.285
			c-0.87-18.083-0.34-51.78-0.513-78.675c0.03-1.506,0.058-3.059,0.085-4.632c-1.774-1.199-3.466-2.375-5.04-3.505l-0.001,515.624
			c0.028,0.641,0.059,1.428,0.089,2.281c0.344-0.018,0.687-0.036,1.029-0.053c-0.026-2.36-0.044-4.945-0.044-7.743
			C380.569,655.72,381.59,651.552,382.223,641.814"/>
		<path clip-path="url(#SF_SVGID_6_)" fill="#7D2B47" d="M412.741,176.096c-1.688-0.709-3.351-1.452-4.989-2.219
			c-0.041,25.094,0.298,53.706-0.478,69.86c0.316-2.65,0.171-11.835,0.649-9.285c0.564,25.703-1.127,21.79-0.485,42.597
			c-0.64,7.303-0.539-16.67-0.963-3.085c0.502,11.566,1.838,13.097,0.952,35.153c-0.672,0.249-0.193-12.24-0.852-0.938
			c1.969,11.22,2.515,55.98,3.38,68.003l-0.852-0.97c-0.122,14.899,0.994,25.219,0.839,33.062
			c-0.998,19.938,1.056,54.39-0.826,66.296l0.695,8.787l-0.586,8.38l0.552-0.383c-0.078,33.029-3.006,3.621-2.856,40.91
			c0.373-1.576,0.746-3.184,0.949-7.957c0.478,2.542,0.313,12.383,0.094,21.2l0.849,0.932c0.099,6.115-0.341,8.667-0.532,11.456
			c1.448-11.422,0.821,21.969,1.357,25.594l-0.854-0.939c0.845,2.934,1.061,9.207,1.57,18.829l-0.932,3.952
			c0.35,4.393,0.914,15.067,0.224,19.318l1.347-0.498c-0.844,12.082,0.273,7.325-0.402,22.612l-0.832-4.948
			c0.631,9.737,1.651,13.905,1.908,25.219c0,2.067-0.011,4.009-0.026,5.84c0.375-0.037,0.728-0.079,1.093-0.117
			c0.003-0.069,0.006-0.141,0.008-0.208L412.741,176.096z"/>
	
       </g>
       <g id="PATTERN1">

		<path clip-path="url(#SF_SVGID_8_)" fill="#FFFFFF" d="M379.493,604.134l-0.006-0.201
			C379.488,604.012,379.49,604.078,379.493,604.134"/>
		<path clip-path="url(#SF_SVGID_8_)" fill="#FFFFFF" d="M379.494,672.972c-0.07-0.631-0.116-2.158-0.102-5.944
			c0.048,2.217,0.021,3.819,0.147,3.868c-0.1-14.428,0.465-3.374,0.423-12.314l-0.006-0.043l0.001-0.528
			c-0.008-1.156-0.021-2.505-0.049-4.437c0.044,2.003,0.062,3.11,0.049,4.437l0.005,0.571c0.1,1.415,0.223-1.126,0.275-4.331
			c-0.674,0.217-0.763-17.498-1.136-22.181l-0.27-1.105c0.108-0.455,0.192,0.143,0.27,1.105l0.009,0.054l-0.271-12.067
			c0.055,2.449,0.238-0.19,0.311-3.702l0.025-3.818l-0.025,3.818l-0.003,0.569c0.104-3.835,0.731,4.563,0.538-6.944l-0.193-5.845
			c-0.003-0.056-0.005-0.122-0.006-0.201l0.006,0.201c0.033,0.727,0.125-0.199,0.172-0.727l-0.183-6.225l-0.016,0.213
			c-0.075-0.597-0.102-1.653-0.074-3.317l0.09,3.104c0.629-9.521-0.355-17.974-0.045-29.177c-0.055,3.231-0.007,8.155,0.197,6.045
			c0.077-2.168,0.004-5.448-0.096-7.135l0.074,0.565l-0.414-21.348c0.226,1.732,0.242,13.68,0.5,8.339
			c0.309-3.157-0.018-9.281-0.042-13.115c-0.177,0.492-0.335,7.557-0.43,0.418c0.086-0.875,0.271-7.667,0.399-4.464
			c-0.182-7.314-0.292-17.935-0.608-24.479c0.079-2.076,0.151,1.189,0.177,2.278l-0.052,0.526c0.099,4.407,0.457,0.678,0.272,9.33
			c0.584,0.724,0.161-12.474,0.243-20.06l0.397,12.098c0.801-20.381-0.067-47.889-0.078-68.079
			c-0.183,5.922-0.008,10.878-0.464,10.171c-0.22-12.542-0.12-10.9-0.212-23.409l0.024,1.074c0.232-6.467-0.218-15.305,0.191-19.545
			c0.251,2.795-0.235,9.185,0.271,9.338l-0.038-15.783c0.301,4.961,0.038,15.783,0.112,21.802c-0.029,4.341-0.071-8.728-0.403-6.665
			c0.017,14.729,0.344,18.088,0.82,25.337c0.109,1.366,0.185,1.267,0.237,0.404v-12.014c-0.438-9.233-0.625-21.854-0.407-35.253
			l0.387-8.025c-0.35-7.233-1.039-4.157-0.953-17.221l0.277,3.898c0.108-2.86,0.146-4.739,0.143-6.125l-0.108-3.007
			c-0.171-1.961-0.462-2.559-0.326-9.475c0.081,2.556,0.198,5.924,0.326,9.475c0.063,0.715,0.106,1.589,0.108,3.007
			c0.176,4.7,0.369,9.671,0.554,14.156v-17.765c-0.129-4.071-0.26-8.174-0.3-11.923c0.075,0.569,0.098,4.389,0.249,5.525
			c0.139-16.302-0.559-33.371-0.652-45.961c0.258-5.323,0.17,10.456,0.551,7.863c-0.146-6.617,0.189-14.097-0.164-15.868
			c0.396,2.277,0.192-8.435,0.316-6.947v-6.95c-0.127-1.56-0.243-3.415-0.276-6.763c0.215,1.602,0.191-1.785,0.195-5.247
			c-0.015-1.255-0.012-2.542,0.039-3.909c-0.029,1.075-0.036,2.461-0.039,3.909c0.014,1.044,0.045,2.054,0.081,3.066v-27.261
			c-0.109-9.031-0.234-17.997-0.338-26.681c0.132,1.014,0.244,1.146,0.338,0.502v-4.988c-0.23-3.205-0.412-4.291-0.324-14.527
			c0.178-3.4,0.235-2.854,0.324-1.768v-21.055c-0.023-2.016-0.053-3.89-0.099-5.544c-0.104-0.57-0.206-1.278-0.204-4.281
			c0.093,1.155,0.156,2.625,0.204,4.281c0.033,0.203,0.068,0.396,0.099,0.651v-5.066c-0.042-3.547-0.091-6.836-0.246-8.548
			l0.246-0.925v-15.101c-0.031,0.285-0.035-0.503-0.025-1.973c-1.046-0.739-2.056-1.465-3.013-2.166
			c-0.717,2.359-1.411,4.592-2.07,6.664c0.039,1.159,0.085,2.139,0.131,2.738c-0.032,9.791-0.459,2.015-0.536,4.171
			c0.427,5.065-0.012,16.348,0.188,22.413l-0.277-3.894c-0.335,7.45-0.06,14.12,0.038,18.484l-0.228-1.691
			c0.043,10.373-0.722,15.517,0.086,23.413l-0.153-1.094c-0.059,3.642-0.19,8.888-0.077,12.883
			c0.532,5.769,0.963,10.604,1.148,13.14c2.897,39.861,1.04,79.977-1.457,110.208c-0.017,7.259-0.032,16-0.512,20.224
			c0.377,5.544,0.67,21.417,0.463,26.265c-0.41,6.958-0.451-6.158-0.834-3.576c-0.003,5.451,0.374,8.313,0.242,16.43
			c0.381,0.136,0.773-16.043,0.99-0.771l-0.205,2.139c0.028-1.582,0.104-3.756,0.056-5.974c-0.226-4.413-0.256,2.651-0.358,3.666
			l0.115,16.396c0.406,1.196,0.312-8.606,0.413-9.621c-0.085,12.976-0.68,28.592-0.409,40.654l-0.153-1.141
			c0.346,15.379-0.74,8.977-0.09,21.214c-0.105,6.462-0.431-2.33-0.461,7.431c-0.003,2.758,0.15,1.141,0.202,0.648
			c0.144,11.993-0.385,5.28-0.013,16.349l-0.367-2.043v2.032c0.324,12.464,0.974,25.322,0.799,36.036
			c-0.33-0.681-0.3-7.732-0.551-10.537c0.599,15.442,0.075,37.037,0.395,51.308c0.282-4.266,0.655,6.755,0.891-2.386
			c-0.43-2.363-0.147-6.651-0.195-11.541c0.934,7.91-0.455,33.075,0.354,35.495l-0.329,2.091c0.048,2.188,0.299,7.744,0.403,3.912
			l-0.215,15.748c-0.25-5.531-0.825-17.187-0.468-20.845c-0.354-4.479-0.233,6.448-0.637,2.484
			c0.552,10.538-0.233,6.472-0.113,17.386c0.479-4.937,0.649,10.857,0.881,10.364c0.024-0.945,0.06-1.65,0.128-1.833
			c-0.046,1.26-0.088,1.715-0.128,1.833c-0.09,3.57,0.135,11.505,0.295,14.575l-0.001-0.601l0.026,1.095l-0.025-0.494
			c0.031,4.319-0.141,10.714-0.198,17.568c1.542-0.078,3.104-0.157,4.68-0.235c-0.027-0.449-0.063-0.72-0.108-0.734
			C379.339,673.263,379.422,672.972,379.494,672.972"/>
		<path clip-path="url(#SF_SVGID_8_)" fill="#FFFFFF" d="M376.477,202.882l0.852-0.94c-0.688,10.778,0.6,12.354,0.101,23.96
			c-0.184,0.644-0.401-3.804-0.601-7.374c0.281,10.284-0.718,9.479-0.387,19.51l-0.95-7.958c0.033,7.994,0.327,19.714-0.484,15.591
			c0.975,13.961,0.59,38.454,1.149,55.891l-0.736-1.154c0.893,9.011-0.046,33.142,1.026,40.964l-0.3,1.328l0.991,17.948
			c-0.088,8.128-1.198,5.367-0.891,6.023c0.196,17.834,0.257,31.819-0.124,43.287c0.989,2.882,1.249,21.65,1.373,36.574
			c-0.614,71.903,0.319,149.12,1.455,216.016c0.014,3.024,0.127,6.421,0.287,9.998l0.001-515.624
			c-1.15-0.825-2.231-1.62-3.262-2.389c0.349,8.398,1.188,7.506,1.814,12.769C377.075,185.163,377.512,187.675,376.477,202.882"/>
		<path clip-path="url(#SF_SVGID_8_)" fill="#FFFFFF" d="M386.748,165.012c-0.793,14.945-0.053,31.148-0.406,48.623l0.451-8.539
			c0.537,11.415,0.196,17.82,0.425,28.612l-0.889,6.025c0.292,11.69,0.754,5.164,1.216,13.653
			c-0.565,10.667-0.044,33.146-0.085,38.205c-0.412,3.509-0.568-4.371-0.818-6.078c0.3,13.705,1.151,12.738,1.162,29.767
			l-0.242,0.283c1.269,40.682,0.935,92.25,1.735,137.5c0.048-3.07,0.233-2.298,0.412-3.482c0.322,47.767,0.369,102.887,2.48,140.652
			c-0.229-25.818,1.174-69.547-0.4-95.863c0.633-9.739-0.286-24.743,0.612-28.784c0.391-37.537-1.198-52.799-1.228-88.9
			c0.083-2.653,0.239-3.28,0.428-3.469h-0.014c-1.246-34.711-0.633-63.496-1.026-99.151c-0.099-8.936-0.027-21.062,0.394-22.533
			c0.147,5.863,0.495,1.437,0.7,6.25c-0.36-12.637-1.534-1.268-1.364-19.544l1.475,2.341c-1.559-7.265,0.272-22.359-0.637-35.37
			c0.589-4.68,0.931,3.946,0.973,13.949c0.258-11.361-0.601-12.381-0.578-21.447l1.258,8.594
			c-0.914-7.337-0.305-13.516,0.219-18.462v-3.947c-0.379,0.493-0.824,0.359-0.773-8.027c0.159-5.198,0.478-2.538,0.655-3.761
			c-0.215-0.459-0.55-2.681-0.747-6.642c-1.963-1.192-3.846-2.386-5.646-3.566c-0.017,0.817-0.032,1.636-0.051,2.445
			L386.748,165.012z"/>
		<path clip-path="url(#SF_SVGID_8_)" fill="#FFFFFF" d="M396.074,519.943c-0.146,2.098-0.354,3.601-0.609,2.959
			c0.226-5.354,0.438-2.474,0.609-3.24v-73.225c-0.229-1.971-0.235-7.853-0.237-9.785c0.084-0.796,0.162-1.631,0.238-2.486V384.55
			c-0.069,0.893-0.141,1.798-0.208,2.646c-0.744-4.985-0.27-12.831,0.208-20.792v-68.76c-0.064,0.413-0.177,1.732-0.37,4.491
			c-0.27-15.593-0.003-32.19,0.37-48.575v-26.742l-0.08-0.355c0.011,8.336-0.265,20.582-0.94,25.208
			c-0.497-5.474,0.663-12.956,0.369-14.529c-0.238,2.797-0.232,8.35-0.719,8.445c-0.548-7.136,0.228-11.132,0.318-16.158
			l0.248,2.726c0.244-5.813,0.541-8.499,0.804-10.432v-16.646c-0.125,0.815-0.285,1.923-0.595,1.966
			c0.288-3.916-0.51-16.54,0.267-20.614l0.062,10.061c0.135-4.604,0.18-9.034,0.267-12.92v-4.999
			c-0.084,0.368-0.153,0.865-0.191,1.738c0.093-2.18,0.14-4.6,0.191-6.912v-5.603c-0.026-0.014-0.052-0.028-0.076-0.043
			c0.101,4.14,0.035,9.191-0.265,10.345c-0.49-0.688-0.411-6.071-0.346-10.692c-0.015-0.009-0.032-0.018-0.047-0.026
			c-0.342,14.893-1.31,16.451-0.847,31.488l0.242-2.783c0.591,10.27-0.386,20.851-0.361,29.848
			c-0.097-1.542-0.241-2.327-0.368-2.442l0.26,17.298l-0.34-17.284c-0.049,0.074-0.095,0.261-0.13,0.571
			c0.611,19.906,0.15,39.485,0.521,62.173l-0.772,6.829l0.59,0.422c0.258,11.1-0.828,2.403-0.77,9.559
			c-0.003-2.72,0.095-2.232,0.242-2.788c-0.667,12.885,0.543,7.16,0.358,14.388c0.629-3.438,0.227-13.938,1.058-10.712
			c-0.665,12.855-0.298,32.843-1.71,34.729c0.298,12.442,0.197,26.434,0.019,39.824c0.067,12.029,0.186,23.718,0.55,33.233
			c-0.616-1.616-0.587-12.908-0.723-21.456c-0.058,3.708-0.114,7.306-0.161,10.755v12.035c0.114,0.227,0.114-2.367,0.271-1.538
			c-0.818,7.933,0.57,26.619-0.161,26.745c0.201,3.839,0.738,5.443,0.935,6.482c-0.351,5.092-0.521,11.185-0.623,17.656l0.202-4.733
			l0.098,0.519l-0.283,6.714l-0.046-0.249c-0.157,12.146-0.098,25.713-0.392,37.919v8.034c0.237,0.074,0.447,2.791,0.625,2.39
			c0.04-0.3,0.078-0.614,0.12-0.889c-0.039,0.525-0.077,0.793-0.12,0.889c-0.273,2.072-0.479,4.771-0.625,7.89v31.161
			c0.106,0.076,0.208-0.037,0.311-0.921L393,556.586v2.281l0.124-0.475c0.064,4.501-0.008,9.121-0.124,13.652v21.541
			c0.104-0.384,0.226-0.536,0.366-0.758c-0.028,10.431-0.045,20.299-0.366,32.347v0.842c0.063-0.538,0.137-0.889,0.212-0.905
			c0.08,2.545-0.074,5.483-0.212,8.246v2.441l0.471,0.368c-0.184,4.348-0.108,9.555-0.184,14.835l0.211,3.015l0.333-3.491
			l-0.269,4.41l0.063,0.9c-0.031-0.162-0.063-0.277-0.096-0.367l-0.078,1.279l-0.046-1.465l-0.226,0.2
			c-0.037,1.01-0.085,2.018-0.146,3.013c0.327,1.527,0.166,6.313-0.034,11.803v3.81c0.092-0.006,0.184-0.01,0.276-0.016
			l-0.005-0.815l0.111,0.809c0.699-0.038,1.396-0.079,2.096-0.119c0.05-0.306,0.107-0.612,0.188-0.927l0.006,0.915l0.331-0.02
			c0.027-0.983,0.053-1.967,0.071-2.887V519.943z"/>
		<path clip-path="url(#SF_SVGID_8_)" fill="#FFFFFF" d="M413.028,662.55c1.137-66.895,2.07-144.112,1.456-216.015
			c0.124-14.925,0.384-33.693,1.373-36.575c-0.381-11.468-0.32-25.453-0.124-43.287c0.309-0.656-0.802,2.104-0.89-6.022
			l0.991-17.949l-0.301-1.327c1.071-7.824,0.134-31.953,1.027-40.964l-0.737,1.153c0.56-17.437,0.175-41.93,1.148-55.89
			c-0.81,4.122-0.518-7.599-0.483-15.592l-0.95,7.958c0.331-10.031-0.667-9.226-0.387-19.51c-0.2,3.57-0.416,8.018-0.6,7.374
			c-0.501-11.606,0.787-13.183,0.102-23.959l0.851,0.938c-0.817-11.996-0.718-16.098-0.992-26.059
			c-0.592-0.239-1.185-0.479-1.771-0.726l0.001,496.451C412.902,668.971,413.016,665.574,413.028,662.55"/>
		<path clip-path="url(#SF_SVGID_8_)" fill="#FFFFFF" d="M408.341,183.896v3.947c0.522,4.947,1.133,11.125,0.218,18.461l1.258-8.593
			c0.022,9.066-0.835,10.086-0.578,21.447c0.043-10.003,0.385-18.629,0.974-13.949c-0.909,13.01,0.921,28.104-0.638,35.371
			l1.477-2.342c0.169,18.276-1.005,6.907-1.366,19.544c0.205-4.813,0.554-0.387,0.701-6.25c0.421,1.472,0.491,13.597,0.393,22.533
			c-0.393,35.655,0.221,64.439-1.025,99.151h-0.015c0.189,0.188,0.345,0.815,0.428,3.47c-0.028,36.101-1.617,51.363-1.228,88.899
			c0.898,4.041-0.021,19.045,0.612,28.784c-1.574,26.316-0.17,70.045-0.401,95.863c2.111-37.766,2.158-92.886,2.482-140.652
			c0.179,1.185,0.364,0.412,0.411,3.482c0.8-45.25,0.468-96.817,1.736-137.499l-0.243-0.284c0.012-17.029,0.862-16.063,1.163-29.767
			c-0.251,1.708-0.407,9.587-0.819,6.079c-0.04-5.06,0.481-27.539-0.085-38.206c0.464-8.49,0.924-1.963,1.217-13.652l-0.889-6.026
			c0.228-10.792-0.112-17.198,0.424-28.612l0.452,8.539c-0.261-12.905,0.071-25.112-0.055-36.635
			c-1.993-0.794-3.957-1.633-5.887-2.512c0.021,0.385,0.04,0.839,0.056,1.382C409.164,184.256,408.719,184.39,408.341,183.896"/>
		<path clip-path="url(#SF_SVGID_8_)" fill="#FFFFFF" d="M408.306,658.496c-0.062-0.995-0.107-2.003-0.145-3.013l-0.227-0.2
			l-0.046,1.465l-0.078-1.279c-0.031,0.09-0.064,0.205-0.097,0.367l0.065-0.9l-0.27-4.41l0.332,3.491l0.209-3.015
			c-0.073-5.28,0-10.487-0.181-14.835l0.471-0.368v-2.441c-0.139-2.763-0.292-5.701-0.213-8.246
			c0.076,0.017,0.148,0.367,0.213,0.905v-0.842c-0.321-12.048-0.339-21.916-0.366-32.347c0.141,0.222,0.262,0.374,0.366,0.758
			v-21.541c-0.117-4.531-0.189-9.151-0.125-13.652l0.125,0.475v-2.283l-0.311-5.452c0.103,0.884,0.203,0.997,0.311,0.921v-31.162
			c-0.148-3.118-0.352-5.816-0.627-7.889c-0.041-0.096-0.08-0.363-0.118-0.889c0.042,0.274,0.08,0.589,0.118,0.889
			c0.18,0.401,0.389-2.315,0.627-2.39v-8.034c-0.296-12.206-0.235-25.772-0.394-37.919l-0.046,0.249l-0.284-6.714l0.1-0.519
			l0.202,4.733c-0.101-6.472-0.271-12.564-0.623-17.656c0.195-1.04,0.733-2.644,0.935-6.482c-0.73-0.126,0.657-18.813-0.16-26.745
			c0.156-0.829,0.156,1.765,0.271,1.538v-12.035c-0.048-3.449-0.104-7.047-0.162-10.755c-0.136,8.548-0.106,19.84-0.722,21.456
			c0.363-9.516,0.481-21.204,0.549-33.233c-0.179-13.391-0.278-27.382,0.018-39.824c-1.412-1.886-1.044-21.874-1.708-34.729
			c0.831-3.226,0.429,7.274,1.056,10.712c-0.185-7.228,1.026-1.503,0.36-14.388c0.147,0.555,0.244,0.067,0.242,2.788
			c0.058-7.156-1.028,1.541-0.77-9.559l0.589-0.422l-0.772-6.829c0.371-22.688-0.09-42.268,0.521-62.173
			c-0.035-0.311-0.08-0.498-0.129-0.571l-0.341,17.284l0.261-17.298c-0.127,0.116-0.271,0.9-0.368,2.442
			c0.025-8.997-0.952-19.579-0.361-29.848l0.24,2.783c0.396-12.841-0.251-15.847-0.663-25.726c-0.061-0.029-0.121-0.062-0.183-0.091
			c-0.012,2.575-0.102,4.639-0.394,5.047c-0.183-0.706-0.277-2.87-0.301-5.391c-0.013-0.006-0.025-0.012-0.038-0.019v0.709
			c0.051,2.313,0.097,4.732,0.191,6.912c-0.039-0.873-0.108-1.37-0.191-1.738v4.999c0.086,3.887,0.131,8.316,0.267,12.92
			l0.062-10.061c0.775,4.074-0.021,16.699,0.267,20.614c-0.31-0.043-0.47-1.151-0.595-1.966v16.646
			c0.262,1.933,0.56,4.619,0.804,10.432l0.248-2.726c0.091,5.025,0.865,9.021,0.318,16.158c-0.487-0.095-0.481-5.647-0.72-8.445
			c-0.293,1.573,0.866,9.055,0.37,14.529c-0.676-4.626-0.952-16.872-0.94-25.208l-0.08,0.355v26.742
			c0.373,16.385,0.64,32.981,0.369,48.575c-0.193-2.758-0.304-4.078-0.369-4.491v68.76c0.477,7.961,0.951,15.807,0.208,20.792
			c-0.067-0.848-0.14-1.753-0.208-2.646v49.616c0.075,0.855,0.154,1.69,0.238,2.486c-0.002,1.933-0.01,7.814-0.238,9.785v73.224
			c0.172,0.768,0.384-2.112,0.61,3.241c-0.255,0.642-0.465-0.861-0.61-2.959v151.105c0.015,0.737,0.035,1.516,0.056,2.303
			c0.116-0.008,0.234-0.016,0.352-0.023l0.002-0.288c0.023,0.096,0.039,0.188,0.062,0.283c0.872-0.06,1.74-0.12,2.604-0.183v-2.842
			C408.141,664.81,407.979,660.023,408.306,658.496"/>
	</g>
    </g>
     <g id="CUSTOM"></g>
   <g id="SLEEVES">
		<path clip-path="url(#SF_SVGID_10_)" fill="#FDBB2D" d="M169.618,326.904c0-0.007,0-0.015,0-0.02
			c-0.006-0.396-0.016-0.803-0.028-1.218c0-0.036-0.002-0.073-0.003-0.108c-0.012-0.398-0.026-0.805-0.044-1.215
			c-0.001-0.035-0.003-0.072-0.004-0.107c-0.019-0.434-0.042-0.869-0.071-1.306c0-0.007,0-0.013,0-0.019
			c-0.029-0.441-0.062-0.882-0.099-1.319c-0.002-0.03-0.005-0.061-0.008-0.09c-0.036-0.41-0.075-0.815-0.121-1.214
			c-0.005-0.041-0.009-0.084-0.014-0.125c-0.045-0.395-0.097-0.779-0.153-1.153c-0.003-0.034-0.009-0.068-0.014-0.102
			c-0.062-0.4-0.128-0.789-0.202-1.16c-1.08-5.401-9.362-51.13-11.163-59.772c-1.799-8.642-9.722-37.808-11.162-45.729
			c-0.057-0.31-0.11-0.628-0.162-0.951c-0.014-0.093-0.029-0.185-0.043-0.278c-0.04-0.256-0.079-0.516-0.115-0.779
			c-0.012-0.08-0.024-0.159-0.035-0.24c-0.046-0.333-0.09-0.672-0.132-1.014c-0.011-0.079-0.019-0.158-0.028-0.237
			c-0.034-0.275-0.065-0.554-0.096-0.834c-0.013-0.106-0.023-0.212-0.036-0.319c-0.033-0.316-0.065-0.633-0.096-0.953
			c-0.004-0.039-0.007-0.079-0.012-0.118c-0.034-0.356-0.066-0.712-0.096-1.07c-0.01-0.108-0.019-0.217-0.027-0.326
			c-0.022-0.274-0.044-0.548-0.065-0.823c-0.007-0.097-0.015-0.192-0.022-0.289c-0.026-0.358-0.051-0.714-0.075-1.07
			c-0.005-0.068-0.008-0.135-0.013-0.203c-0.019-0.294-0.038-0.587-0.055-0.877c-0.006-0.109-0.013-0.216-0.018-0.323
			c-0.019-0.306-0.034-0.609-0.051-0.911c-0.001-0.043-0.004-0.089-0.007-0.134c-0.018-0.347-0.034-0.688-0.049-1.025
			c-0.004-0.085-0.009-0.168-0.012-0.252c-0.012-0.277-0.023-0.548-0.034-0.815c-0.002-0.066-0.005-0.132-0.008-0.197
			c-0.013-0.332-0.026-0.658-0.037-0.974c0-0.018-0.001-0.034-0.001-0.052c-0.01-0.304-0.021-0.597-0.029-0.882
			c-0.002-0.05-0.003-0.099-0.004-0.149c-0.019-0.612-0.034-1.182-0.044-1.699v-0.004c-2.391,1.647-7.051,4.715-9.972,5.689
			c-4.06,1.353-27.063,18.944-33.83,42.626c-6.765,23.68-8.119,81.869-8.119,81.869l-2.03,10.148l-2.029,6.089
			c0,0,23.681,6.089,43.979,7.442c20.298,1.354,33.153,1.354,33.153,1.354s1.353-1.354,0.677-5.413
			c-0.677-4.059-1.353-5.412-0.677-7.442c0.632-1.897,3.038-7.932,3.349-8.71C169.629,327.718,169.625,327.317,169.618,326.904"/>
		<path clip-path="url(#SF_SVGID_10_)" fill="#FDBB2D" d="M514.731,334.781l-2.03-10.148c0,0-1.354-58.188-8.12-81.87
			c-6.766-23.681-29.77-41.272-33.829-42.626c-3.021-1.007-7.912-4.26-10.219-5.859c-0.088,4.283-0.387,12.379-1.403,17.97
			c-1.44,7.921-9.361,37.087-11.162,45.729c-1.8,8.641-10.082,54.37-11.162,59.771c-0.688,3.443-0.791,8.348-0.776,11.453
			c0.135-0.752,0.217-1.187,0.217-1.187s2.705,6.767,3.383,8.795c0.676,2.031,0,3.384-0.678,7.444
			c-0.676,4.059,0.678,5.412,0.678,5.412s12.855,0,33.152-1.354c20.299-1.354,43.979-7.442,43.979-7.442L514.731,334.781z"/>
	</g>

	</g>
	
	<g clip-path="url(#SF_SVGID_2_)">
		<defs>
			<rect id="SF_SVGID_9_" x="61.693" y="80.676" width="488.613" height="632.324"/>
		</defs>
		<clipPath id="SF_SVGID_10_">
			<use xlink:href="#SF_SVGID_9_"  overflow="visible"/>
		</clipPath>
		<path clip-path="url(#SF_SVGID_10_)" fill="#FDBB2D" d="M452.59,292.243c-0.005,0.021-0.008,0.035-0.008,0.035
			S452.585,292.262,452.59,292.243"/>
    </g>
	<g id="COLLAR" clip-path="url(#SF_SVGID_2_)">
		<defs>
			<rect id="SF_SVGID_11_" x="61.693" y="80.676" width="488.613" height="632.324"/>
		</defs>
		<clipPath id="SF_SVGID_12_">
			<use xlink:href="#SF_SVGID_11_"  overflow="visible"/>
		</clipPath>
		<path clip-path="url(#SF_SVGID_12_)" fill="#FDBB2D" d="M306.234,176.882c45.574-0.451,64.682-17.73,69.251-22.713
			c-5.389-4.043-9.035-7.162-10.283-8.16c-3.384-2.707-3.384-4.736-6.766-6.766c-3.383-2.03-4.735-8.119-11.502-11.501
			c-4.308-2.153-23.687-2.937-37.208-3.221l-0.005-0.163c0,0-2.66,0-6.767,0.05c-4.106-0.05-6.766-0.05-6.766-0.05l-0.005,0.163
			c-13.522,0.284-32.901,1.068-37.208,3.221c-6.766,3.382-8.119,9.471-11.502,11.501c-3.383,2.03-3.383,4.06-6.765,6.766
			c-0.993,0.796-3.514,2.938-7.216,5.817C239.284,158.001,261.046,177.33,306.234,176.882"/>
	</g>
	<g clip-path="url(#SF_SVGID_2_)">
		<defs>
			<rect id="SF_SVGID_13_" x="61.693" y="80.676" width="488.613" height="632.324"/>
		</defs>
		<clipPath id="SF_SVGID_14_">
			<use xlink:href="#SF_SVGID_13_"  overflow="visible"/>
		</clipPath>
		<g opacity="0.35" clip-path="url(#SF_SVGID_14_)">
			<g>
				<defs>
					<rect id="SF_SVGID_15_" x="235.677" y="149.914" width="137.986" height="24.582"/>
				</defs>
				<clipPath id="SF_SVGID_16_">
					<use xlink:href="#SF_SVGID_15_"  overflow="visible"/>
				</clipPath>
				<path clip-path="url(#SF_SVGID_16_)" fill="none" stroke="#FFD281" stroke-miterlimit="10" stroke-dasharray="0.859,0.859" d="
					M373.33,152.798c0,0-13.798,20.763-67.064,21.291c-53.758,0.532-70.258-23.952-70.258-23.952"/>
			</g>
		</g>
		<g opacity="0.35" clip-path="url(#SF_SVGID_14_)">
			<g>
				<defs>
					<rect id="SF_SVGID_17_" x="92.413" y="327.446" width="73.87" height="9.764"/>
				</defs>
				<clipPath id="SF_SVGID_18_">
					<use xlink:href="#SF_SVGID_17_"  overflow="visible"/>
				</clipPath>
				<path clip-path="url(#SF_SVGID_18_)" fill="none" stroke="#FFD281" stroke-miterlimit="10" stroke-dasharray="0.859,0.859" d="
					M92.519,327.831c0,0,16.924,4.681,38.168,6.841c21.245,2.16,35.596,2.139,35.596,2.139"/>
			</g>
		</g>
		<g opacity="0.35" clip-path="url(#SF_SVGID_14_)">
			<g>
				<defs>
					<rect id="SF_SVGID_19_" x="92.413" y="330.642" width="73.87" height="9.765"/>
				</defs>
				<clipPath id="SF_SVGID_20_">
					<use xlink:href="#SF_SVGID_19_"  overflow="visible"/>
				</clipPath>
				<path clip-path="url(#SF_SVGID_20_)" fill="none" stroke="#FFD281" stroke-miterlimit="10" stroke-dasharray="0.859,0.859" d="
					M92.519,331.027c0,0,16.924,4.68,38.168,6.841c21.245,2.16,35.596,2.14,35.596,2.14"/>
			</g>
		</g>
		<g opacity="0.35" clip-path="url(#SF_SVGID_14_)">
			<g>
				<defs>
					<rect id="SF_SVGID_21_" x="440.094" y="327.446" width="73.872" height="9.764"/>
				</defs>
				<clipPath id="SF_SVGID_22_">
					<use xlink:href="#SF_SVGID_21_"  overflow="visible"/>
				</clipPath>
				<path clip-path="url(#SF_SVGID_22_)" fill="none" stroke="#FFD281" stroke-miterlimit="10" stroke-dasharray="0.859,0.859" d="
					M513.858,327.831c0,0-16.923,4.681-38.167,6.841s-35.596,2.139-35.596,2.139"/>
			</g>
		</g>
		<g opacity="0.35" clip-path="url(#SF_SVGID_14_)">
			<g>
				<defs>
					<rect id="SF_SVGID_23_" x="440.094" y="330.642" width="73.872" height="9.765"/>
				</defs>
				<clipPath id="SF_SVGID_24_">
					<use xlink:href="#SF_SVGID_23_"  overflow="visible"/>
				</clipPath>
				<path clip-path="url(#SF_SVGID_24_)" fill="none" stroke="#FFD281" stroke-miterlimit="10" stroke-dasharray="0.859,0.859" d="
					M513.858,331.027c0,0-16.923,4.68-38.167,6.841c-21.244,2.16-35.596,2.14-35.596,2.14"/>
			</g>
		</g>
		<g opacity="0.35" clip-path="url(#SF_SVGID_14_)">
			<g>
				<defs>
					<rect id="SF_SVGID_25_" x="167.048" y="641.849" width="270.259" height="26.68"/>
				</defs>
				<clipPath id="SF_SVGID_26_">
					<use xlink:href="#SF_SVGID_25_"  overflow="visible"/>
				</clipPath>
				<path clip-path="url(#SF_SVGID_26_)" fill="none" stroke="#FFD281" stroke-miterlimit="10" stroke-dasharray="0.859,0.859" d="
					M167.414,643.613c0,0,5.761,13.322,37.448,17.645c31.686,4.32,65.086,7.206,100.82,6.841
					c35.288-0.36,105.104-11.769,112.703-13.323c15.843-3.24,18.537-12.818,18.537-12.818"/>
			</g>
		</g>
		<g opacity="0.35" clip-path="url(#SF_SVGID_14_)">
			<g>
				<defs>
					<rect id="SF_SVGID_27_" x="166.163" y="644.441" width="272.824" height="28.083"/>
				</defs>
				<clipPath id="SF_SVGID_28_">
					<use xlink:href="#SF_SVGID_27_"  overflow="visible"/>
				</clipPath>
				<path clip-path="url(#SF_SVGID_28_)" fill="none" stroke="#FFD281" stroke-miterlimit="10" stroke-dasharray="0.859,0.859" d="
					M166.519,647.752c0,0,6.657,13.18,38.343,17.501c31.686,4.32,65.086,7.205,100.82,6.841
					c35.288-0.36,105.104-11.769,112.703-13.322c15.843-3.241,20.231-14.181,20.231-14.181"/>
			</g>
		</g>
		<g opacity="0.35" clip-path="url(#SF_SVGID_14_)">
			<g>
				<defs>
					<rect id="SF_SVGID_29_" x="435.629" y="194.276" width="25.305" height="137.891"/>
				</defs>
				<clipPath id="SF_SVGID_30_">
					<use xlink:href="#SF_SVGID_29_"  overflow="visible"/>
				</clipPath>
				<path clip-path="url(#SF_SVGID_30_)" fill="none" stroke="#FFD281" stroke-miterlimit="10" d="M460.533,194.278
					c0,0,0.037,10.047-1.403,17.97c-1.441,7.921-9.361,37.087-11.162,45.729c-1.8,8.641-10.082,54.37-11.162,59.771
					s-0.72,14.403-0.72,14.403"/>
			</g>
		</g>
		<g opacity="0.35" clip-path="url(#SF_SVGID_14_)">
			<g>
				<defs>
					<rect id="SF_SVGID_31_" x="144.731" y="194.446" width="25.299" height="137.721"/>
				</defs>
				<clipPath id="SF_SVGID_32_">
					<use xlink:href="#SF_SVGID_31_"  overflow="visible"/>
				</clipPath>
				<path clip-path="url(#SF_SVGID_32_)" fill="none" stroke="#FFD281" stroke-miterlimit="10" d="M145.13,194.448
					c0,0-0.042,9.878,1.399,17.799c1.44,7.921,9.362,37.087,11.163,45.729c1.8,8.641,10.083,54.37,11.163,59.771
					c1.08,5.401,0.72,14.403,0.72,14.403"/>
			</g>
		</g>
		<g opacity="0.35" clip-path="url(#SF_SVGID_14_)">
			<g>
				<defs>
					<rect id="SF_SVGID_33_" x="233.835" y="151.618" width="141.973" height="25.672"/>
				</defs>
				<clipPath id="SF_SVGID_34_">
					<use xlink:href="#SF_SVGID_33_"  overflow="visible"/>
				</clipPath>
				<path clip-path="url(#SF_SVGID_34_)" fill="none" stroke="#FFD281" stroke-miterlimit="10" stroke-dasharray="0.859,0.859" d="
					M375.485,154.169c0,0-15.986,22.186-69.252,22.713c-53.757,0.533-72.074-25.031-72.074-25.031"/>
			</g>
		</g>
	</g>
	<g clip-path="url(#SF_SVGID_2_)">
		<defs>
			<rect id="SF_SVGID_35_" x="61.693" y="80.676" width="488.613" height="632.324"/>
		</defs>
		<clipPath id="SF_SVGID_36_">
			<use xlink:href="#SF_SVGID_35_"  overflow="visible"/>
		</clipPath>
		<path clip-path="url(#SF_SVGID_36_)" d="M169.618,326.884c0,0.007,0,0.014,0,0.021C169.618,326.897,169.618,326.891,169.618,326.884"
			/>
		<path clip-path="url(#SF_SVGID_36_)" d="M169.631,328.101"/>
		<path clip-path="url(#SF_SVGID_36_)" fill="#FFFFFF" d="M306.267,154.927c27.944,0.266,49.233-14.104,48.968-16.5
			c-0.267-2.396-4.849-6.843-7.777-8.971c-2.927-2.129-16.845-3.552-44.789-3.398c-28.263,0.155-37.839,1.235-41.7,2.163
			c-3.863,0.926-10.22,7.979-9.422,9.576C252.344,139.392,278.487,154.662,306.267,154.927"/>
		<g opacity="0.35" clip-path="url(#SF_SVGID_36_)">
			<g>
				<defs>
					<rect id="SF_SVGID_37_" x="251.477" y="126.046" width="103.759" height="28.884"/>
				</defs>
				<clipPath id="SF_SVGID_38_">
					<use xlink:href="#SF_SVGID_37_"  overflow="visible"/>
				</clipPath>
				<g clip-path="url(#SF_SVGID_38_)">
					<defs>
						<path id="SF_SVGID_39_" d="M306.266,154.927c27.944,0.266,49.234-14.104,48.969-16.5c-0.268-2.396-4.849-6.843-7.777-8.971
							c-2.927-2.129-16.845-3.552-44.788-3.398c-28.265,0.155-37.84,1.235-41.701,2.163c-3.862,0.926-10.221,7.979-9.423,9.576
							C252.343,139.392,278.487,154.662,306.266,154.927"/>
					</defs>
					<clipPath id="SF_SVGID_40_">
						<use xlink:href="#SF_SVGID_39_"  overflow="visible"/>
					</clipPath>
					
						<radialGradient id="SF_SVGID_41_" cx="0.5005" cy="790.8145" r="0.798" gradientTransform="matrix(102.1332 0 0 -40.5422 252.9668 32188.9707)" gradientUnits="userSpaceOnUse">
						<stop  offset="0" style="stop-color:#FFFFFF"/>
						<stop  offset="1" style="stop-color:#FFFFFF"/>
					</radialGradient>
					<rect x="250.747" y="125.904" clip-path="url(#SF_SVGID_40_)" fill="url(#SF_SVGID_41_)" width="104.753" height="29.289"/>
				</g>
				<g clip-path="url(#SF_SVGID_38_)">
					<defs>
						<path id="SF_SVGID_42_" d="M306.266,154.927c27.944,0.266,49.234-14.104,48.969-16.5c-0.268-2.396-4.849-6.843-7.777-8.971
							c-2.927-2.129-16.845-3.552-44.788-3.398c-28.265,0.155-37.84,1.235-41.701,2.163c-3.862,0.926-10.221,7.979-9.423,9.576
							C252.343,139.392,278.487,154.662,306.266,154.927"/>
					</defs>
					<clipPath id="SF_SVGID_43_">
						<use xlink:href="#SF_SVGID_42_"  overflow="visible"/>
					</clipPath>
					
						<radialGradient id="SF_SVGID_44_" cx="0.5005" cy="790.8145" r="0.798" gradientTransform="matrix(102.1332 0 0 -40.5422 252.9668 32188.9707)" gradientUnits="userSpaceOnUse">
						<stop  offset="0" style="stop-color:#FFFFFF"/>
						<stop  offset="0.1085" style="stop-color:#EBEBEB"/>
						<stop  offset="0.3308" style="stop-color:#B7B7B7"/>
						<stop  offset="0.6481" style="stop-color:#646464"/>
						<stop  offset="1" style="stop-color:#000000"/>
					</radialGradient>
					<rect x="250.747" y="125.904" clip-path="url(#SF_SVGID_43_)" fill="url(#SF_SVGID_44_)" width="104.753" height="29.289"/>
				</g>
			</g>
		</g>
		<g opacity="0.5" clip-path="url(#SF_SVGID_36_)">
			<g>
				<defs>
					<rect id="SF_SVGID_45_" x="105.654" y="131.838" width="398.931" height="539.714"/>
				</defs>
				<clipPath id="SF_SVGID_46_">
					<use xlink:href="#SF_SVGID_45_"  overflow="visible"/>
				</clipPath>
				<g opacity="0.1" clip-path="url(#SF_SVGID_46_)">
					<g>
						<defs>
							<rect id="SF_SVGID_47_" x="339.802" y="131.838" width="120.731" height="534.32"/>
						</defs>
						<clipPath id="SF_SVGID_48_">
							<use xlink:href="#SF_SVGID_47_"  overflow="visible"/>
						</clipPath>
						<path clip-path="url(#SF_SVGID_48_)" fill="#897F76" d="M436.806,317.749c1.08-5.401,9.362-51.13,11.162-59.771
							c1.801-8.642,9.722-37.809,11.162-45.729c1.017-5.59,1.315-13.687,1.403-17.97c-0.793-0.549-1.283-0.907-1.283-0.907
							s-18.27-6.089-43.979-16.238c-25.71-10.148-46.686-28.417-50.068-31.123c-3.384-2.708-3.384-4.737-6.766-6.767
							c-2.239-1.344-3.598-4.465-6.218-7.404l-1.377,0.48c2.197,2.1,4.218,4.541,4.393,6.108c0.141,1.265-5.738,5.871-15.433,9.897
							c0.785,1.627,1.351,3.163,1.442,4.344c0.349,4.537,0,4.188,0,10.82c0,6.631,2.442,13.262,6.63,23.036
							c4.188,9.772,8.726,4.537,11.868,18.498c3.141,13.961-15.706,11.518-15.706,11.518s17.102,2.443,35.949,1.396
							c18.847-1.046,14.658,0,27.921-1.396c13.264-1.396,13.264-3.491,33.506,2.094c20.243,5.584,4.887,18.149,3.49,32.458
							c-1.396,14.311-21.639,12.216-27.572,19.895c-5.934,7.678-2.094,67.361-1.396,73.993c0.697,6.631-13.611,18.148-13.611,18.148
							s-3.841,11.17-6.283,19.546c-2.443,8.376,3.839,25.827,3.489,44.675c-0.348,18.847-17.45,43.628-23.384,57.239
							c-5.933,13.612-1.396,26.875,8.376,56.542c9.773,29.666,3.84,3.839,11.169,12.914c7.329,9.074,3.839,5.584,7.679,18.498
							c3.84,12.912,5.235,32.46,5.235,32.46s1.396,20.242,6.283,38.741c4.886,18.497,2.791,10.12,15.356,20.94l3.979,1.474
							c3.714-2.763,4.052-5.256,4.052-5.256v-4.738c0,0,1.354-6.088,1.354-8.794c0-2.708-2.706-5.413-2.706-5.413
							s0-15.562-2.031-36.536c-2.03-20.975-10.148-69.69-13.531-87.958c-3.383-18.269,0.677-61.57,4.06-78.485
							c3.383-16.916,8.119-71.72,7.441-80.516c-0.581-7.567,2.341-24.635,3.168-29.261
							C436.015,326.097,436.117,321.192,436.806,317.749"/>
					</g>
				</g>
				<g opacity="0.1" clip-path="url(#SF_SVGID_46_)">
					<g>
						<defs>
							<rect id="SF_SVGID_49_" x="145.13" y="134.461" width="136.172" height="537.09"/>
						</defs>
						<clipPath id="SF_SVGID_50_">
							<use xlink:href="#SF_SVGID_49_"  overflow="visible"/>
						</clipPath>
						<path clip-path="url(#SF_SVGID_50_)" fill="#897F76" d="M279.109,150.483c-15.626-4.72-27.04-11.642-27.563-12.688
							c-0.256-0.512,0.228-1.585,1.123-2.835c-0.367-0.176-0.72-0.345-1.043-0.499c-1.442,2.017-2.58,3.839-4.152,4.782
							c-3.383,2.03-3.383,4.059-6.765,6.766c-3.383,2.707-24.357,20.974-50.069,31.124c-25.711,10.149-43.979,16.239-43.979,16.239
							s-0.597,0.433-1.529,1.075c0.092,4.325,0.396,12.284,1.399,17.801c1.44,7.921,9.363,37.087,11.162,45.729
							c1.801,8.641,10.083,54.37,11.163,59.771c0.612,3.059,0.762,7.272,0.776,10.352c0.021-0.055,0.034-0.086,0.034-0.086
							s4.06,21.651,3.383,30.447c-0.676,8.796,4.06,63.6,7.444,80.516c3.381,16.915,7.441,60.217,4.059,78.485
							c-3.383,18.268-11.502,66.983-13.532,87.958c-2.03,20.975-2.03,36.537-2.03,36.537s-2.706,2.704-2.706,5.412
							c0,2.706,1.352,8.795,1.352,8.795v4.737c0,0,0.962,7.152,17.69,10.649c1.43-8.131,3.554-22.429,2.349-29.903
							c-1.744-10.819,1.396-8.726,6.282-16.056c4.886-7.329,3.839-31.761,4.537-61.079c0.698-29.317,55.844-15.006,55.844-15.006
							s4.536-6.284,3.838-15.01c-0.698-8.725-28.27-47.118-33.506-55.842c-5.235-8.726,2.793-7.679,2.793-7.679
							s-7.68-3.491-10.821-20.593c-3.141-17.102,5.236-38.043,12.914-56.191c7.679-18.151,30.015-36.997,30.015-36.997
							s-24.082,3.839-47.117-6.633c-23.036-10.47-24.432-28.269-27.573-83.066c-3.141-54.796,2.095-65.617,14.658-66.315
							c12.566-0.698,56.891,13.962,63.522,16.753c0,0,4.189-8.726,2.793-13.96c-1.396-5.236,2.792-13.612,7.677-22.687
							c4.887-9.074,4.887-4.886,6.633-6.282c1.745-1.396,0.348-9.423-0.698-11.866c-1.048-2.444-0.349-3.142,1.745-8.727
							C281.595,153.39,280.746,152.027,279.109,150.483"/>
					</g>
				</g>
				<g opacity="0.12" clip-path="url(#SF_SVGID_46_)">
					<g>
						<defs>
							<rect id="SF_SVGID_51_" x="105.654" y="238.877" width="62.475" height="89.699"/>
						</defs>
						<clipPath id="SF_SVGID_52_">
							<use xlink:href="#SF_SVGID_51_"  overflow="visible"/>
						</clipPath>
						<path clip-path="url(#SF_SVGID_52_)" fill="#897F76" d="M153.12,296.117c-1.745-2.792-42.231-57.24-42.231-57.24
							s0.699,5.235,3.491,11.168c2.792,5.934,31.063,41.534,31.063,41.534s-25.479-27.922-26.874-29.667
							c-1.396-1.745-12.915-10.821-12.915-9.424c0,1.397,8.726,10.82,15.706,17.451c6.98,6.631,21.29,20.942,27.921,31.063
							c6.632,10.122,18.847,27.573,18.847,27.573s-2.443-10.122-4.189-14.311C162.194,310.078,154.866,298.91,153.12,296.117"/>
					</g>
				</g>
				<g opacity="0.12" clip-path="url(#SF_SVGID_46_)">
					<g>
						<defs>
							<rect id="SF_SVGID_53_" x="113.682" y="230.501" width="27.223" height="31.411"/>
						</defs>
						<clipPath id="SF_SVGID_54_">
							<use xlink:href="#SF_SVGID_53_"  overflow="visible"/>
						</clipPath>
						<path clip-path="url(#SF_SVGID_54_)" fill="#897F76" d="M125.548,247.603c-2.443-3.49-11.866-17.101-11.866-17.101
							s3.838,14.309,11.517,21.639c7.678,7.33,15.706,9.772,15.706,9.772S127.991,251.093,125.548,247.603"/>
					</g>
				</g>
				<g opacity="0.12" clip-path="url(#SF_SVGID_46_)">
					<g>
						<defs>
							<rect id="SF_SVGID_55_" x="441.064" y="249.349" width="63.521" height="63.871"/>
						</defs>
						<clipPath id="SF_SVGID_56_">
							<use xlink:href="#SF_SVGID_55_"  overflow="visible"/>
						</clipPath>
						<path clip-path="url(#SF_SVGID_56_)" fill="#897F76" d="M503.189,249.348c0,0-4.537,9.074-8.376,16.055
							c-3.84,6.981-20.243,20.243-28.969,25.129c-8.726,4.887-24.78,22.687-24.78,22.687s7.328-1.396,11.867-4.886
							c4.536-3.491,33.505-15.008,44.674-31.063C508.774,261.214,503.189,249.348,503.189,249.348"/>
					</g>
				</g>
				<g opacity="0.12" clip-path="url(#SF_SVGID_46_)">
					<g>
						<defs>
							<rect id="SF_SVGID_57_" x="446.996" y="302.399" width="50.609" height="20.812"/>
						</defs>
						<clipPath id="SF_SVGID_58_">
							<use xlink:href="#SF_SVGID_57_"  overflow="visible"/>
						</clipPath>
						<path clip-path="url(#SF_SVGID_58_)" fill="#897F76" d="M475.267,316.011c-9.772,2.792-28.27,6.283-28.27,6.283
							s13.263,3.489,29.667-3.142c16.404-6.632,20.941-16.753,20.941-16.753S485.041,313.219,475.267,316.011"/>
					</g>
				</g>
				<g opacity="0.12" clip-path="url(#SF_SVGID_46_)">
					<g>
						<defs>
							<rect id="SF_SVGID_59_" x="452.59" y="255.887" width="37.337" height="36.356"/>
						</defs>
						<clipPath id="SF_SVGID_60_">
							<use xlink:href="#SF_SVGID_59_"  overflow="visible"/>
						</clipPath>
						<path clip-path="url(#SF_SVGID_60_)" fill="#897F76" d="M476.314,260.517c-6.631,7.678-8.725,10.471-14.659,13.96
							c-5.776,3.399-8.906,17.05-9.065,17.766c0.141-0.62,2.357-9.867,10.114-13.578c8.026-3.839,13.61-3.49,17.45-10.122
							c3.839-6.631,9.772-11.518,9.772-11.518S482.946,252.838,476.314,260.517"/>
					</g>
				</g>
			</g>
		</g>
	</g>
</g>

</svg>
