<?xml version="1.0" encoding="utf-8"?>
<!-- Generator: Adobe Illustrator 16.0.0, SVG Export Plug-In . SVG Version: 6.00 Build 0)  -->
<!DOCTYPE svg PUBLIC "-//W3C//DTD SVG 1.1//EN" "http://www.w3.org/Graphics/SVG/1.1/DTD/svg11.dtd">
<svg version="1.1" id="Layer_1" xmlns="http://www.w3.org/2000/svg" xmlns:xlink="http://www.w3.org/1999/xlink" x="0px" y="0px"
	 width="800.453px" height="1035.881px" viewBox="0 0 620 1035.881" enable-background="new 0 0 800.453 1035.881"
	 xml:space="preserve">
<g>
	<defs>
		<rect id="SVGID_1_" x="-8.615" y="9.811" width="788.236" height="1020.07"/>
	</defs>
	<clipPath id="SVGID_2_">
		<use xlink:href="#SVGID_1_"  overflow="visible"/>
	</clipPath>
	<g clip-path="url(#SVGID_2_)">
		<defs>
			<rect id="SVGID_3_" x="-8.615" y="9.811" width="788.236" height="1020.07"/>
		</defs>
		<clipPath id="SVGID_4_">
			<use xlink:href="#SVGID_3_"  overflow="visible"/>
		</clipPath>
    <g id="MASK">
       <g id="BODY">
   
		<path clip-path="url(#SVGID_4_)" fill="#FDBB2D" d="M632.728,191.61c0,0-29.472-9.824-70.948-26.196
			c-26.179-10.333-49.306-25.881-64.182-37.045c-7.372,8.039-38.199,35.914-111.719,36.641
			c-72.896,0.723-108.004-30.458-117.347-40.42c-14.364,11.171-39.833,29.262-69.13,40.825
			c-41.477,16.373-70.947,26.196-70.947,26.196s-0.965,0.699-2.468,1.737v0.006c0.018,0.835,0.041,1.756,0.069,2.742
			c0.002,0.079,0.005,0.159,0.008,0.24c0.013,0.461,0.028,0.936,0.045,1.422c0.001,0.028,0.001,0.056,0.002,0.085
			c0.018,0.51,0.038,1.037,0.06,1.571c0.004,0.104,0.007,0.211,0.012,0.316c0.019,0.433,0.037,0.87,0.057,1.316
			c0.006,0.135,0.011,0.269,0.018,0.407c0.026,0.543,0.052,1.096,0.082,1.654c0.002,0.073,0.006,0.146,0.01,0.216
			c0.025,0.486,0.053,0.976,0.081,1.469c0.011,0.174,0.02,0.347,0.031,0.521c0.027,0.469,0.057,0.941,0.088,1.415
			c0.007,0.111,0.014,0.219,0.021,0.329c0.038,0.572,0.079,1.147,0.122,1.726c0.011,0.155,0.024,0.312,0.035,0.467
			c0.034,0.443,0.069,0.885,0.105,1.329c0.016,0.175,0.029,0.35,0.045,0.524c0.049,0.578,0.099,1.153,0.154,1.727
			c0.005,0.063,0.012,0.128,0.018,0.19c0.05,0.515,0.102,1.028,0.156,1.538c0.019,0.173,0.038,0.344,0.055,0.515
			c0.05,0.452,0.102,0.902,0.155,1.346c0.015,0.128,0.029,0.256,0.045,0.383c0.069,0.552,0.139,1.098,0.213,1.635
			c0.018,0.132,0.037,0.259,0.056,0.387c0.06,0.426,0.122,0.844,0.187,1.256c0.022,0.15,0.046,0.301,0.069,0.45
			c0.083,0.521,0.17,1.034,0.26,1.533c2.323,12.779,15.103,59.829,18.007,73.771c2.904,13.941,16.265,87.711,18.007,96.425
			c0.12,0.597,0.227,1.225,0.325,1.871c0.009,0.054,0.016,0.11,0.024,0.164c0.091,0.604,0.172,1.225,0.246,1.86
			c0.009,0.067,0.017,0.135,0.024,0.203c0.072,0.643,0.138,1.298,0.196,1.958c0.004,0.048,0.009,0.095,0.013,0.145
			c0.061,0.704,0.114,1.417,0.159,2.127c0.001,0.01,0.001,0.021,0.001,0.031c0.046,0.705,0.083,1.408,0.114,2.106
			c0.003,0.06,0.004,0.116,0.007,0.173c0.03,0.663,0.054,1.316,0.072,1.96c0.002,0.058,0.004,0.117,0.006,0.174
			c0.019,0.67,0.034,1.326,0.044,1.964c0,0.01,0,0.022,0,0.033c0.011,0.667,0.018,1.312,0.021,1.928
			c0.035-0.086,0.055-0.138,0.055-0.138s6.549,34.928,5.457,49.118c-1.091,14.189,6.549,102.599,12.008,129.888
			c5.456,27.287,12.005,97.143,6.548,126.615c-5.458,29.468-18.556,108.058-21.83,141.894c-3.276,33.837-3.276,58.94-3.276,58.94
			s-4.366,4.366-4.366,8.734c0,4.365,2.184,14.188,2.184,14.188v7.641c0,0,2.182,16.373,46.935,19.647
			c44.751,3.272,98.235,4.364,114.606,7.641c4.26,0.852,9.557,1.703,15.307,2.495l-0.025,0.778c0,0,21.829,3.274,36.019,3.274
			c1.607,0,3.448-0.044,5.456-0.124c2.01,0.08,3.851,0.124,5.459,0.124c14.189,0,36.02-3.274,36.02-3.274l-0.027-0.778
			c5.751-0.792,11.049-1.644,15.307-2.495c16.373-3.276,69.856-4.368,114.607-7.641c44.753-3.274,46.936-19.647,46.936-19.647
			v-7.641c0,0,2.184-9.823,2.184-14.188c0-4.368-4.366-8.734-4.366-8.734s0-25.104-3.275-58.94
			c-3.274-33.836-16.373-112.426-21.83-141.894c-5.457-29.472,1.092-99.328,6.549-126.615
			c5.459-27.289,13.099-115.698,12.007-129.888c-0.939-12.208,3.773-39.743,5.11-47.204c-0.027-5.009,0.141-12.919,1.252-18.474
			c1.742-8.714,15.103-82.484,18.007-96.425c2.903-13.942,15.684-60.992,18.007-73.771c1.64-9.019,2.121-22.078,2.264-28.988
			C633.52,192.186,632.728,191.61,632.728,191.61"/>
	</g>
       <g id="SLEEVES">
		<path clip-path="url(#SVGID_10_)" fill="#FDBB2D" d="M621.981,351.111c-0.007,0.035-0.012,0.055-0.012,0.055
			S621.976,351.142,621.981,351.111"/>
		<path clip-path="url(#SVGID_10_)" fill="#FDBB2D" d="M165.491,407.028c0-0.011,0-0.023,0-0.033
			c-0.01-0.638-0.025-1.294-0.045-1.964c-0.001-0.058-0.004-0.117-0.005-0.174c-0.02-0.644-0.043-1.298-0.072-1.96
			c-0.003-0.058-0.005-0.115-0.008-0.173c-0.031-0.698-0.067-1.401-0.113-2.106c0-0.01-0.001-0.021-0.001-0.03
			c-0.046-0.712-0.099-1.424-0.16-2.128c-0.003-0.048-0.007-0.097-0.013-0.145c-0.058-0.66-0.123-1.315-0.196-1.958
			c-0.007-0.066-0.015-0.135-0.023-0.203c-0.073-0.636-0.156-1.256-0.246-1.86c-0.008-0.054-0.016-0.11-0.025-0.165
			c-0.098-0.646-0.206-1.273-0.325-1.871c-1.743-8.714-15.103-82.484-18.007-96.425c-2.903-13.94-15.684-60.992-18.006-73.771
			c-0.091-0.499-0.178-1.012-0.261-1.533c-0.023-0.149-0.047-0.299-0.069-0.448c-0.065-0.413-0.126-0.832-0.186-1.257
			c-0.019-0.128-0.038-0.255-0.055-0.387c-0.075-0.537-0.147-1.083-0.213-1.635c-0.017-0.126-0.031-0.255-0.045-0.383
			c-0.054-0.444-0.106-0.894-0.155-1.346c-0.019-0.171-0.037-0.342-0.057-0.515c-0.054-0.51-0.105-1.021-0.154-1.538
			c-0.006-0.063-0.013-0.126-0.019-0.19c-0.054-0.573-0.105-1.149-0.155-1.727c-0.016-0.175-0.029-0.35-0.044-0.524
			c-0.036-0.444-0.072-0.885-0.106-1.329c-0.011-0.155-0.024-0.31-0.035-0.466c-0.043-0.579-0.083-1.153-0.122-1.727
			c-0.007-0.11-0.012-0.218-0.02-0.329c-0.03-0.474-0.061-0.946-0.089-1.415c-0.011-0.175-0.02-0.347-0.03-0.521
			c-0.029-0.494-0.056-0.983-0.081-1.469c-0.003-0.07-0.008-0.143-0.011-0.216c-0.028-0.559-0.055-1.109-0.08-1.654
			c-0.006-0.138-0.013-0.272-0.02-0.407c-0.019-0.446-0.036-0.883-0.055-1.316c-0.004-0.105-0.009-0.212-0.013-0.316
			c-0.021-0.536-0.042-1.062-0.059-1.571c-0.001-0.029-0.002-0.056-0.002-0.083c-0.016-0.49-0.032-0.963-0.046-1.424
			c-0.003-0.079-0.006-0.16-0.007-0.24c-0.029-0.986-0.053-1.906-0.07-2.742v-0.006c-3.858,2.659-11.375,7.606-16.088,9.179
			c-6.549,2.182-43.66,30.562-54.575,68.765c-10.914,38.2-13.097,132.07-13.097,132.07l-3.275,16.373l-3.274,9.824
			c0,0,38.203,9.823,70.947,12.006c32.746,2.183,53.482,2.183,53.482,2.183s2.184-2.183,1.093-8.733
			c-1.093-6.548-2.183-8.73-1.093-12.005c1.021-3.061,4.901-12.795,5.404-14.051C165.508,408.34,165.5,407.694,165.491,407.028"/>
		<path clip-path="url(#SVGID_10_)" fill="#FDBB2D" d="M722.229,419.733l-3.273-16.372c0,0-2.185-93.869-13.099-132.072
			c-10.915-38.203-48.025-66.582-54.575-68.765c-4.874-1.624-12.764-6.873-16.484-9.452c-0.143,6.909-0.624,19.969-2.264,28.988
			c-2.323,12.779-15.104,59.83-18.007,73.771c-2.904,13.941-16.265,87.711-18.007,96.424c-1.111,5.556-1.278,13.467-1.252,18.475
			c0.218-1.212,0.348-1.915,0.348-1.915s4.366,10.916,5.458,14.19c1.092,3.275,0,5.458-1.092,12.008
			c-1.092,6.549,1.092,8.731,1.092,8.731s20.738,0,53.483-2.182c32.745-2.184,70.947-12.007,70.947-12.007L722.229,419.733z"/>
	</g>
       <g id="PATTERN1">
		<path clip-path="url(#SVGID_8_)" fill="#FFFFFF" d="M504.063,854.257l-0.012-0.324
			C504.056,854.062,504.059,854.165,504.063,854.257"/>
		<path clip-path="url(#SVGID_8_)" fill="#FFFFFF" d="M504.065,965.306c-0.114-1.017-0.189-3.481-0.165-9.589
			c0.078,3.577,0.035,6.161,0.239,6.239c-0.162-23.274,0.748-5.442,0.681-19.865l-0.01-0.068l0.001-0.853
			c-0.013-1.863-0.032-4.04-0.078-7.157c0.071,3.231,0.102,5.019,0.078,7.157l0.009,0.921c0.16,2.283,0.359-1.816,0.444-6.986
			c-1.087,0.351-1.231-28.228-1.834-35.783l-0.433-1.781c0.175-0.735,0.31,0.229,0.433,1.781l0.017,0.089l-0.438-19.468
			c0.089,3.95,0.385-0.309,0.502-5.973l0.041-6.16l-0.041,6.16l-0.007,0.919c0.17-6.187,1.182,7.359,0.87-11.202l-0.312-9.43
			c-0.005-0.092-0.008-0.195-0.012-0.324l0.012,0.324c0.052,1.173,0.2-0.322,0.277-1.172l-0.296-10.041l-0.025,0.342
			c-0.122-0.962-0.162-2.668-0.119-5.352l0.145,5.01c1.017-15.358-0.572-28.997-0.073-47.07c-0.086,5.214-0.011,13.158,0.321,9.755
			c0.123-3.499,0.005-8.791-0.156-11.512l0.121,0.911l-0.671-34.438c0.366,2.796,0.394,22.069,0.809,13.454
			c0.495-5.093-0.028-14.973-0.067-21.16c-0.286,0.796-0.541,12.193-0.694,0.675c0.141-1.409,0.438-12.367,0.644-7.2
			c-0.292-11.8-0.47-28.932-0.98-39.489c0.127-3.35,0.245,1.918,0.285,3.674l-0.083,0.85c0.158,7.109,0.737,1.092,0.439,15.053
			c0.943,1.166,0.26-20.122,0.392-32.363l0.642,19.519c1.292-32.877-0.108-77.256-0.125-109.827
			c-0.295,9.555-0.015,17.55-0.751,16.407c-0.354-20.233-0.191-17.583-0.34-37.762l0.039,1.734
			c0.376-10.434-0.352-24.69,0.31-31.532c0.405,4.508-0.382,14.816,0.438,15.064l-0.063-25.462
			c0.485,8.003,0.063,25.462,0.181,35.172c-0.047,7.001-0.113-14.081-0.649-10.755c0.025,23.764,0.554,29.181,1.323,40.875
			c0.177,2.205,0.298,2.044,0.384,0.653v-19.38c-0.707-14.896-1.009-35.255-0.658-56.872l0.623-12.945
			c-0.563-11.67-1.674-6.708-1.535-27.782l0.446,6.291c0.175-4.615,0.235-7.647,0.229-9.883l-0.175-4.85
			c-0.275-3.165-0.746-4.127-0.525-15.284c0.129,4.123,0.317,9.557,0.525,15.284c0.1,1.153,0.172,2.563,0.175,4.85
			c0.283,7.583,0.595,15.603,0.895,22.836v-28.658c-0.209-6.568-0.42-13.185-0.484-19.233c0.121,0.918,0.157,7.079,0.401,8.914
			c0.226-26.298-0.901-53.836-1.052-74.146c0.416-8.588,0.273,16.867,0.89,12.685c-0.236-10.675,0.305-22.741-0.267-25.6
			c0.641,3.674,0.311-13.607,0.512-11.206v-11.212c-0.206-2.517-0.394-5.51-0.446-10.911c0.347,2.584,0.308-2.88,0.314-8.464
			c-0.023-2.025-0.018-4.101,0.063-6.306c-0.047,1.734-0.058,3.971-0.063,6.306c0.022,1.685,0.072,3.314,0.132,4.947v-43.978
			c-0.178-14.568-0.38-29.033-0.546-43.042c0.212,1.636,0.394,1.85,0.546,0.81v-8.047c-0.374-5.171-0.665-6.923-0.523-23.435
			c0.286-5.485,0.379-4.605,0.523-2.853V193.14c-0.038-3.253-0.086-6.276-0.159-8.944c-0.168-0.919-0.333-2.063-0.328-6.905
			c0.148,1.864,0.25,4.235,0.328,6.905c0.054,0.328,0.109,0.64,0.159,1.051v-8.173c-0.069-5.72-0.147-11.027-0.397-13.789
			l0.397-1.492v-24.362c-0.052,0.459-0.058-0.811-0.043-3.182c-1.687-1.193-3.315-2.364-4.858-3.494
			c-1.156,3.806-2.277,7.409-3.341,10.751c0.063,1.869,0.137,3.45,0.211,4.417c-0.051,15.794-0.739,3.25-0.865,6.73
			c0.69,8.17-0.018,26.372,0.304,36.156l-0.448-6.282c-0.541,12.018-0.096,22.78,0.062,29.819l-0.366-2.728
			c0.069,16.733-1.165,25.031,0.138,37.77l-0.246-1.765c-0.096,5.875-0.308,14.337-0.124,20.783
			c0.857,9.306,1.552,17.105,1.852,21.197c4.675,64.304,1.679,129.019-2.35,177.788c-0.027,11.711-0.053,25.813-0.825,32.626
			c0.605,8.943,1.08,34.549,0.746,42.37c-0.662,11.226-0.729-9.934-1.346-5.769c-0.006,8.793,0.604,13.409,0.39,26.504
			c0.613,0.219,1.247-25.881,1.599-1.244l-0.331,3.449c0.044-2.553,0.168-6.057,0.09-9.635c-0.364-7.122-0.413,4.275-0.579,5.913
			l0.188,26.449c0.654,1.931,0.501-13.882,0.666-15.52c-0.137,20.932-1.098,46.123-0.66,65.583l-0.246-1.842
			c0.558,24.811-1.195,14.483-0.146,34.224c-0.171,10.425-0.694-3.759-0.745,11.987c-0.005,4.448,0.243,1.841,0.326,1.047
			c0.231,19.349-0.621,8.518-0.02,26.373l-0.594-3.297v3.279c0.523,20.106,1.571,40.85,1.29,58.133
			c-0.532-1.098-0.483-12.473-0.889-16.996c0.966,24.911,0.12,59.749,0.637,82.77c0.455-6.881,1.057,10.896,1.436-3.85
			c-0.692-3.813-0.238-10.729-0.314-18.618c1.507,12.761-0.733,53.356,0.573,57.26l-0.533,3.374
			c0.078,3.531,0.482,12.493,0.65,6.311l-0.345,25.406c-0.404-8.924-1.332-27.727-0.756-33.628
			c-0.569-7.224-0.376,10.405-1.026,4.007c0.889,17.002-0.377,10.443-0.184,28.049c0.773-7.964,1.047,17.515,1.422,16.719
			c0.039-1.524,0.096-2.661,0.205-2.955c-0.072,2.029-0.141,2.765-0.205,2.955c-0.145,5.76,0.215,18.559,0.477,23.513l-0.002-0.968
			l0.041,1.765l-0.039-0.797c0.049,6.97-0.229,17.283-0.32,28.34c2.487-0.123,5.007-0.25,7.55-0.377
			c-0.045-0.725-0.103-1.162-0.177-1.185C503.813,965.776,503.948,965.306,504.065,965.306"/>
		<path clip-path="url(#SVGID_8_)" fill="#FFFFFF" d="M499.196,206.953l1.373-1.516c-1.108,17.387,0.969,19.93,0.162,38.653
			c-0.295,1.039-0.647-6.137-0.967-11.894c0.453,16.589-1.16,15.289-0.625,31.473l-1.533-12.838
			c0.054,12.895,0.528,31.803-0.78,25.152c1.571,22.521,0.951,62.033,1.854,90.163l-1.19-1.862
			c1.442,14.537-0.071,53.466,1.657,66.085l-0.483,2.143l1.599,28.952c-0.141,13.113-1.934,8.658-1.437,9.718
			c0.317,28.771,0.414,51.331-0.201,69.833c1.598,4.648,2.016,34.924,2.216,59.001c-0.99,115.995,0.516,240.563,2.348,348.478
			c0.021,4.88,0.205,10.358,0.463,16.132l0.001-831.811c-1.854-1.331-3.599-2.613-5.262-3.855
			c0.562,13.549,1.919,12.11,2.929,20.599C500.162,178.369,500.866,182.42,499.196,206.953"/>
		<path clip-path="url(#SVGID_8_)" fill="#FFFFFF" d="M515.767,145.86c-1.281,24.11-0.086,50.249-0.657,78.438l0.729-13.774
			c0.865,18.414,0.317,28.748,0.687,46.158l-1.436,9.72c0.473,18.859,1.216,8.329,1.962,22.026
			c-0.912,17.208-0.071,53.471-0.136,61.631c-0.665,5.661-0.917-7.05-1.32-9.805c0.483,22.109,1.855,20.549,1.874,48.021
			l-0.392,0.456c2.047,65.629,1.509,148.818,2.799,221.814c0.077-4.952,0.377-3.706,0.666-5.616
			c0.521,77.056,0.597,165.977,4.003,226.9c-0.372-41.648,1.893-112.191-0.647-154.649c1.021-15.71-0.461-39.913,0.988-46.432
			c0.63-60.557-1.934-85.175-1.98-143.415c0.133-4.281,0.386-5.293,0.69-5.597h-0.022c-2.01-55.996-1.021-102.433-1.655-159.951
			c-0.159-14.415-0.046-33.977,0.635-36.35c0.237,9.458,0.799,2.318,1.129,10.083c-0.581-20.386-2.476-2.045-2.2-31.53l2.379,3.778
			c-2.515-11.721,0.438-36.07-1.029-57.06c0.951-7.549,1.504,6.366,1.571,22.504c0.415-18.329-0.97-19.973-0.934-34.6l2.03,13.863
			c-1.475-11.835-0.491-21.803,0.351-29.783v-6.367c-0.609,0.795-1.328,0.581-1.246-12.95c0.258-8.384,0.77-4.093,1.057-6.066
			c-0.344-0.742-0.885-4.326-1.206-10.716c-3.164-1.922-6.202-3.848-9.104-5.753c-0.028,1.319-0.055,2.64-0.083,3.945
			L515.767,145.86z"/>
		<path clip-path="url(#SVGID_8_)" fill="#FFFFFF" d="M530.811,718.44c-0.235,3.384-0.572,5.808-0.982,4.771
			c0.364-8.636,0.707-3.989,0.982-5.227V599.859c-0.366-3.178-0.378-12.667-0.383-15.785c0.135-1.284,0.262-2.631,0.385-4.011
			v-80.042c-0.112,1.441-0.227,2.902-0.335,4.269c-1.199-8.042-0.435-20.699,0.335-33.543V359.823
			c-0.105,0.665-0.284,2.794-0.596,7.245c-0.437-25.155-0.005-51.93,0.596-78.36v-43.141l-0.129-0.573
			c0.017,13.447-0.428,33.202-1.519,40.664c-0.8-8.832,1.071-20.901,0.597-23.439c-0.384,4.514-0.374,13.47-1.159,13.624
			c-0.884-11.512,0.368-17.959,0.514-26.065l0.4,4.397c0.393-9.378,0.872-13.71,1.296-16.829v-26.854
			c-0.202,1.315-0.458,3.103-0.959,3.172c0.464-6.317-0.821-26.683,0.43-33.256l0.1,16.231c0.218-7.428,0.291-14.574,0.43-20.843
			v-8.064c-0.134,0.594-0.247,1.395-0.309,2.804c0.15-3.517,0.226-7.42,0.309-11.151v-9.039c-0.041-0.022-0.083-0.045-0.123-0.068
			c0.162,6.678,0.059,14.826-0.425,16.689c-0.793-1.11-0.664-9.794-0.56-17.25c-0.024-0.015-0.05-0.028-0.076-0.043
			c-0.55,24.026-2.112,26.541-1.365,50.798l0.391-4.49c0.953,16.567-0.622,33.637-0.583,48.151c-0.156-2.487-0.389-3.754-0.594-3.94
			l0.42,27.906l-0.548-27.883c-0.079,0.118-0.152,0.421-0.211,0.922c0.987,32.112,0.242,63.697,0.842,100.298l-1.245,11.016
			l0.949,0.682c0.418,17.905-1.335,3.876-1.242,15.42c-0.003-4.388,0.154-3.601,0.392-4.498c-1.076,20.787,0.879,11.552,0.58,23.211
			c1.014-5.546,0.364-22.484,1.706-17.281c-1.072,20.738-0.479,52.983-2.759,56.025c0.479,20.07,0.319,42.642,0.03,64.245
			c0.108,19.406,0.299,38.261,0.886,53.612c-0.994-2.608-0.945-20.825-1.165-34.613c-0.092,5.981-0.185,11.785-0.262,17.349v19.415
			c0.186,0.367,0.186-3.818,0.437-2.479c-1.319,12.795,0.921,42.942-0.258,43.145c0.325,6.193,1.189,8.781,1.507,10.458
			c-0.565,8.214-0.841,18.043-1.005,28.483l0.326-7.637l0.158,0.836l-0.457,10.831l-0.073-0.401
			c-0.255,19.596-0.157,41.48-0.635,61.171v12.962c0.384,0.117,0.724,4.501,1.009,3.854c0.065-0.484,0.126-0.99,0.194-1.433
			c-0.062,0.848-0.125,1.279-0.194,1.433c-0.439,3.345-0.77,7.697-1.009,12.729v50.267c0.174,0.126,0.338-0.057,0.502-1.484
			l-0.502,8.801v3.681l0.201-0.767c0.104,7.262-0.012,14.714-0.201,22.024v34.75c0.17-0.621,0.365-0.865,0.591-1.222
			c-0.045,16.827-0.07,32.744-0.591,52.182v1.357c0.104-0.869,0.221-1.434,0.344-1.461c0.128,4.107-0.119,8.846-0.344,13.304v3.938
			l0.761,0.592c-0.295,7.017-0.175,15.418-0.295,23.934l0.34,4.863l0.537-5.632l-0.435,7.114l0.101,1.455
			c-0.049-0.264-0.101-0.45-0.154-0.596l-0.124,2.064l-0.075-2.361l-0.364,0.32c-0.061,1.632-0.138,3.258-0.233,4.861
			c0.526,2.463,0.268,10.187-0.058,19.041v6.145c0.148-0.008,0.297-0.015,0.447-0.025l-0.009-1.314l0.181,1.305
			c1.127-0.062,2.254-0.128,3.38-0.191c0.081-0.493,0.176-0.99,0.303-1.496l0.01,1.477l0.535-0.03
			c0.045-1.589,0.084-3.173,0.113-4.659V718.44z"/>
		<path clip-path="url(#SVGID_8_)" fill="#FFFFFF" d="M558.163,948.493c1.833-107.913,3.34-232.482,2.347-348.477
			c0.202-24.078,0.621-54.354,2.218-59.002c-0.614-18.502-0.519-41.062-0.201-69.832c0.497-1.061-1.296,3.394-1.438-9.717
			l1.6-28.954l-0.483-2.142c1.728-12.621,0.216-51.548,1.657-66.084l-1.189,1.86c0.903-28.129,0.282-67.642,1.852-90.162
			c-1.306,6.65-0.833-12.259-0.779-25.153l-1.532,12.839c0.534-16.184-1.078-14.884-0.624-31.475
			c-0.322,5.759-0.672,12.934-0.968,11.895c-0.808-18.722,1.271-21.265,0.162-38.651l1.374,1.514
			c-1.318-19.353-1.158-25.969-1.6-42.039c-0.957-0.385-1.911-0.772-2.858-1.171l0.002,800.882
			C557.959,958.852,558.142,953.373,558.163,948.493"/>
		<path clip-path="url(#SVGID_8_)" fill="#FFFFFF" d="M550.601,176.325v6.367c0.842,7.981,1.826,17.948,0.352,29.783l2.029-13.863
			c0.035,14.627-1.349,16.271-0.933,34.6c0.067-16.138,0.619-30.053,1.57-22.504c-1.466,20.989,1.485,45.339-1.029,57.061
			l2.382-3.779c0.272,29.485-1.622,11.144-2.203,31.53c0.33-7.765,0.892-0.624,1.129-10.084c0.681,2.375,0.795,21.936,0.635,36.351
			c-0.635,57.519,0.355,103.954-1.654,159.951h-0.022c0.305,0.304,0.557,1.315,0.689,5.598c-0.047,58.239-2.61,82.858-1.979,143.414
			c1.448,6.519-0.034,30.722,0.986,46.432c-2.54,42.458-0.275,113.001-0.647,154.649c3.407-60.924,3.481-149.843,4.003-226.9
			c0.289,1.91,0.589,0.664,0.666,5.616c1.29-72.997,0.752-156.186,2.8-221.813l-0.392-0.457c0.019-27.472,1.39-25.912,1.873-48.021
			c-0.403,2.756-0.653,15.466-1.32,9.807c-0.064-8.162,0.776-44.425-0.136-61.633c0.746-13.697,1.49-3.167,1.962-22.025
			l-1.436-9.721c0.369-17.41-0.179-27.744,0.687-46.158l0.73,13.774c-0.422-20.819,0.114-40.511-0.089-59.1
			c-3.217-1.28-6.385-2.636-9.497-4.053c0.033,0.622,0.063,1.353,0.09,2.229C551.929,176.906,551.21,177.121,550.601,176.325"/>
		<path clip-path="url(#SVGID_8_)" fill="#FFFFFF" d="M550.543,941.954c-0.098-1.604-0.172-3.229-0.233-4.861l-0.364-0.32
			l-0.074,2.361l-0.125-2.064c-0.053,0.146-0.105,0.332-0.156,0.596l0.104-1.455l-0.436-7.114l0.537,5.632l0.339-4.863
			c-0.119-8.516,0-16.917-0.293-23.934l0.76-0.592v-3.938c-0.224-4.458-0.471-9.196-0.344-13.304
			c0.123,0.027,0.238,0.592,0.344,1.461v-1.357c-0.519-19.438-0.546-35.354-0.591-52.182c0.227,0.356,0.422,0.601,0.591,1.222
			v-34.75c-0.19-7.311-0.306-14.763-0.201-22.024l0.201,0.767v-3.684l-0.502-8.798c0.165,1.428,0.328,1.61,0.502,1.484v-50.27
			c-0.239-5.028-0.569-9.381-1.011-12.726c-0.067-0.153-0.13-0.585-0.192-1.433c0.069,0.442,0.13,0.948,0.192,1.433
			c0.287,0.647,0.627-3.736,1.011-3.854v-12.962c-0.477-19.69-0.38-41.575-0.634-61.171l-0.074,0.401l-0.459-10.831l0.16-0.836
			l0.326,7.637c-0.163-10.44-0.439-20.27-1.005-28.483c0.316-1.679,1.182-4.265,1.507-10.458c-1.179-0.203,1.061-30.35-0.258-43.145
			c0.251-1.34,0.251,2.845,0.437,2.479v-19.415c-0.077-5.563-0.169-11.367-0.263-17.349c-0.217,13.788-0.171,32.005-1.164,34.613
			c0.588-15.351,0.777-34.206,0.886-53.612c-0.288-21.603-0.448-44.174,0.029-64.245c-2.279-3.042-1.685-35.288-2.758-56.025
			c1.343-5.204,0.692,11.734,1.706,17.281c-0.299-11.659,1.655-2.424,0.58-23.211c0.237,0.896,0.394,0.11,0.392,4.498
			c0.092-11.544-1.658,2.484-1.242-15.42l0.949-0.682l-1.245-11.016c0.599-36.601-0.144-68.186,0.841-100.298
			c-0.057-0.5-0.13-0.804-0.208-0.922l-0.55,27.883l0.42-27.906c-0.205,0.187-0.437,1.453-0.593,3.94
			c0.038-14.514-1.537-31.584-0.584-48.151l0.39,4.49c0.64-20.715-0.407-25.565-1.07-41.501c-0.1-0.048-0.195-0.099-0.296-0.147
			c-0.019,4.154-0.163,7.483-0.634,8.143c-0.296-1.139-0.448-4.63-0.486-8.696c-0.021-0.01-0.041-0.02-0.063-0.031v1.145
			c0.084,3.73,0.16,7.634,0.31,11.151c-0.061-1.409-0.174-2.21-0.31-2.804v8.064c0.141,6.27,0.211,13.416,0.432,20.843l0.098-16.231
			c1.253,6.573-0.032,26.939,0.432,33.256c-0.5-0.07-0.758-1.857-0.961-3.172v26.854c0.425,3.118,0.903,7.451,1.297,16.829
			l0.4-4.397c0.146,8.106,1.397,14.554,0.515,26.065c-0.786-0.154-0.775-9.11-1.161-13.624c-0.473,2.539,1.397,14.608,0.598,23.439
			c-1.09-7.462-1.535-27.217-1.519-40.664l-0.13,0.573v43.141c0.602,26.431,1.033,53.205,0.597,78.36
			c-0.312-4.45-0.49-6.58-0.597-7.245v110.923c0.771,12.844,1.535,25.5,0.336,33.543c-0.108-1.367-0.223-2.827-0.336-4.269v80.042
			c0.124,1.38,0.251,2.727,0.386,4.011c-0.003,3.118-0.017,12.607-0.383,15.785v118.125c0.275,1.238,0.618-3.408,0.983,5.228
			c-0.411,1.036-0.749-1.388-0.983-4.771v243.764c0.022,1.188,0.055,2.446,0.088,3.715c0.189-0.013,0.379-0.025,0.568-0.037
			l0.002-0.465c0.039,0.153,0.064,0.305,0.099,0.457c1.408-0.096,2.81-0.195,4.203-0.294v-4.585
			C550.275,952.141,550.016,944.417,550.543,941.954"/>
	</g>
      <g id="PATTERN2">
		<path clip-path="url(#SVGID_6_)" fill="#7D2B47" d="M525.851,944.116l-0.05,0.833l-0.476-2.613
			c0.225-0.133,0.392,0.115,0.525,0.604v-3.875c-0.876,2.271-1.806,5.916-2.118-17.273c0.318,7.296,1.246,28.648,2.118,12.176
			v-3.954l-0.77-16.036l0.77,10.804v-17.471l-0.183-0.139c0.05-1.196,0.117-2.451,0.183-3.717v-11.592l-0.044,0.351
			c-0.074,2.646-0.128,5.12-0.225,7.956c-0.105-3.364,0.023-6.184,0.225-7.956c0.018-0.573,0.028-1.112,0.044-1.68v-49.888
			c-0.298,1.075-0.511,3.32-0.651,9.49c-0.621-10.933,0.212-26.836,0.651-43.507v-20.812l-0.269,1.002l0.269-4.605v-7.159
			l-0.519-0.442c-0.135-16.175-0.153-34.994,0.519-48.768v-16.231c-0.213-0.063-0.44,1.175-0.68,5.303
			c0.309-5.666,0.523-11.717,0.68-17.99V555.562c-0.038-0.072-0.082-0.329-0.139-0.853l0.079,19.407l-0.55-13.626l0.427-7.86
			c0.039-5.032,0.102-10.416,0.183-16.073V510.01c-0.012-0.276-0.026-0.555-0.039-0.812l-0.575,27.542l-0.684-45.186
			c-0.277,0.966-0.562,0.875-0.814,0.987l-0.142,0.093c-0.305,0.298-0.558,1.288-0.69,5.479c0.047,57.012,2.61,81.114,1.98,140.393
			c-1.449,6.382,0.033,30.074-0.988,45.455c2.54,41.561,0.275,110.618,0.647,151.388c-3.406-59.639-3.482-146.685-4.003-222.119
			c-0.289,1.87-0.589,0.652-0.666,5.498c-1.29-71.458-0.752-152.894-2.8-217.14l0.393-0.445
			c-0.019-26.893-1.391-25.365-1.874-47.008c0.403,2.695,0.655,15.14,1.32,9.598c0.064-7.989-0.776-43.486,0.136-60.333
			c-0.746-13.408-1.489-3.1-1.962-21.561l1.436-9.516c-0.369-17.044,0.178-27.161-0.687-45.186l-0.729,13.483
			c0.571-27.595-0.624-53.184,0.657-76.785l-0.499-1.054c0.153-7.034,0.294-14.299,0.423-21.72
			c-1.229-0.804-2.434-1.604-3.612-2.396c-0.132,8.913-0.273,17.388-0.431,25.25c0.277,42.471-0.578,95.689,0.826,124.246
			c-0.512-4.185-0.279-18.689-1.049-14.663c-0.911,40.588,1.821,34.411,0.782,67.268c1.031,11.533,0.869-26.324,1.554-4.872
			c-0.809,18.265-2.964,20.683-1.536,55.516c1.085,0.392,0.311-19.33,1.373-1.482c-3.177,17.718-4.054,88.403-5.449,107.393
			l1.37-1.534c0.2,23.53-1.601,39.828-1.352,52.211c1.61,31.489-1.701,85.895,1.334,104.696l-1.123,13.877l0.944,13.234
			l-0.889-0.607c0.124,52.162,4.851,5.721,4.609,64.606c-0.603-2.487-1.206-5.026-1.532-12.565
			c-0.771,4.016-0.506,19.557-0.152,33.481l-1.37,1.469c-0.157,9.659,0.552,13.688,0.861,18.094
			c-2.341-18.037-1.326,34.693-2.191,40.419l1.378-1.484c-1.362,4.634-1.711,14.539-2.534,29.734l1.503,6.243
			c-0.563,6.937-1.475,23.795-0.359,30.506l-2.174-0.785c1.363,19.079-0.44,11.567,0.648,35.709l1.345-7.814
			c-1.019,15.377-2.665,21.959-3.081,39.827c0.002,4.164,0.027,8.021,0.066,11.581c6.628-0.337,13.396-0.687,20.169-1.066
			c0.074-1.566,0.153-3.309,0.231-5.359V944.116z"/>
		<path clip-path="url(#SVGID_6_)" fill="#7D2B47" d="M533.988,854.259c0.008-0.094,0.015-0.197,0.021-0.326L533.988,854.259z"/>
		<path clip-path="url(#SVGID_6_)" fill="#7D2B47" d="M548.333,940.339l-0.074,0.797l0.078-1.765L548.333,940.339
			c0.502-4.954,1.19-17.752,0.915-23.513c-0.124-0.19-0.255-0.926-0.396-2.955c0.21,0.294,0.323,1.431,0.396,2.955
			c0.717,0.796,1.243-24.683,2.729-16.719c0.372-17.605-2.059-11.047-0.351-28.047c-1.249,6.396-0.88-11.232-1.971-4.009
			c1.105,5.901-0.677,24.704-1.453,33.628l-0.661-25.405c0.325,6.182,1.1-2.78,1.248-6.312l-1.022-3.374
			c2.509-3.903-1.793-44.499,1.101-57.26c-0.146,7.888,0.726,14.806-0.603,18.618c0.727,14.746,1.881-3.031,2.755,3.85
			c0.989-23.021-0.631-57.858,1.223-82.77c-0.778,4.523-0.686,15.898-1.707,16.996c-0.541-17.284,1.473-38.026,2.475-58.133v-3.278
			l-1.136,3.296c1.154-17.855-0.483-7.024-0.039-26.373c0.161,0.794,0.635,3.401,0.627-1.047
			c-0.099-15.746-1.102-1.563-1.432-11.987c2.017-19.741-1.348-9.413-0.278-34.224l-0.471,1.842
			c0.838-19.462-1.006-44.651-1.271-65.583c0.317,1.637,0.023,17.452,1.279,15.52l0.359-26.449
			c-0.318-1.637-0.411-13.034-1.11-5.913c-0.151,3.578,0.086,7.082,0.171,9.635l-0.635-3.45c0.674-24.635,1.89,1.465,3.067,1.245
			c-0.408-13.096,0.763-17.711,0.752-26.504c-1.188-4.165-1.315,16.996-2.587,5.769c-0.641-7.821,0.269-33.426,1.433-42.369
			c-1.481-6.813-1.53-20.916-1.584-32.626c-7.736-48.771-13.486-113.484-4.511-177.788c0.574-4.094,1.909-11.891,3.556-21.197
			c0.353-6.445-0.053-14.909-0.239-20.784l-0.472,1.766c2.499-12.738,0.129-21.038,0.264-37.769l-0.703,2.726
			c0.303-7.037,1.157-17.799,0.119-29.817l-0.86,6.282c0.485-7.696-0.248-20.581,0.06-29.714c-5.76-2.773-11.293-5.731-16.559-8.75
			v11.445l0.764,1.496c-0.478,2.76-0.632,8.065-0.764,13.788v8.172c0.099-0.411,0.203-0.723,0.31-1.051
			c0.147-2.669,0.342-5.042,0.628-6.903c0.008,4.841-0.308,5.984-0.628,6.903c-0.144,2.668-0.233,5.691-0.31,8.944v33.964
			c0.28-1.752,0.457-2.633,1.007,2.854c0.271,16.511-0.287,18.263-1.007,23.434v8.047c0.294,1.038,0.643,0.826,1.05-0.81
			c-0.319,14.009-0.71,28.475-1.05,43.042v43.978c0.115-1.632,0.211-3.262,0.254-4.948c-0.008-2.334-0.027-4.569-0.122-6.305
			c0.157,2.204,0.168,4.281,0.122,6.305c0.013,5.584-0.062,11.049,0.604,8.466c-0.1,5.4-0.462,8.394-0.858,10.908v11.214
			c0.389-2.399-0.245,14.88,0.984,11.207c-1.097,2.856-0.059,14.924-0.514,25.601c1.186,4.181,0.913-21.275,1.71-12.688
			c-0.287,20.312-2.451,47.849-2.021,74.147c0.469-1.835,0.54-7.997,0.771-8.914c-0.125,6.05-0.527,12.665-0.932,19.233v28.658
			c0.577-7.234,1.176-15.252,1.717-22.836c0.009-2.287,0.146-3.698,0.338-4.851c0.398-5.727,0.76-11.161,1.01-15.283
			c0.422,11.156-0.481,12.118-1.01,15.283l-0.338,4.851c-0.007,2.236,0.107,5.267,0.443,9.881l0.855-6.289
			c0.268,21.074-1.864,16.111-2.946,27.78l1.195,12.947c0.674,21.618,0.092,41.977-1.265,56.872l-0.001,19.38
			c0.167,1.391,0.401,1.552,0.74-0.653c1.478-11.694,2.489-17.111,2.54-40.875c-1.029-3.326-1.157,17.756-1.247,10.754
			c0.223-9.708-0.585-27.167,0.346-35.171l-0.123,25.463c1.576-0.249,0.067-10.558,0.845-15.065
			c1.269,6.841-0.127,21.098,0.596,31.532l0.074-1.734c-0.285,20.18,0.025,17.529-0.656,37.762
			c-1.412,1.143-0.874-6.851-1.439-16.407c-0.034,32.571-2.721,76.95-0.24,109.827l1.23-19.519
			c0.254,12.242-1.057,33.529,0.755,32.363c-0.574-13.961,0.538-7.943,0.843-15.053l-0.159-0.85
			c0.076-1.755,0.303-7.022,0.544-3.674c-0.979,10.558-1.318,27.689-1.881,39.49c0.396-5.168,0.967,5.79,1.238,7.199
			c-0.296,11.519-0.787,0.121-1.334-0.675c-0.073,6.188-1.081,16.067-0.131,21.16c0.797,8.615,0.851-10.658,1.554-13.454
			l-1.287,34.438l0.232-0.911c-0.309,2.721-0.537,8.013-0.302,11.512c0.636,3.403,0.782-4.541,0.618-9.755
			c0.958,18.077-2.093,31.712-0.142,47.07l0.277-5.01c0.083,2.685,0.006,4.39-0.229,5.352l-0.049-0.342l-0.567,10.041
			c0.148,0.85,0.432,2.345,0.532,1.174l0.021-0.326c-0.006,0.129-0.013,0.232-0.021,0.326l-0.596,9.428
			c-0.601,18.56,1.343,5.016,1.666,11.202l-0.011-0.919l-0.076-6.16l0.076,6.16c0.221,5.664,0.792,9.923,0.962,5.973l-0.839,19.468
			l0.031-0.089c0.237-1.555,0.494-2.516,0.831-1.781l-0.831,1.781c-1.158,7.557-1.432,36.134-3.521,35.783
			c0.164,5.17,0.545,9.27,0.852,6.988l0.019-0.923c-0.044-2.139,0.013-3.925,0.151-7.157c-0.091,3.117-0.129,5.292-0.151,7.157
			l0.001,0.853l-0.02,0.07c-0.128,14.421,1.621-3.411,1.31,19.863c0.392-0.078,0.309-2.662,0.459-6.239
			c0.044,6.107-0.097,8.572-0.317,9.589c0.195,0,0.415,0.355,0.681,1.322c4.792-0.29,9.548-0.597,14.225-0.927
			C548.678,955.785,548.247,946.679,548.333,940.339"/>
		<path clip-path="url(#SVGID_6_)" fill="#7D2B47" d="M508.465,915.043l-1.345,7.983c-1.089-24.662,0.715-16.988-0.648-36.479
			l2.174,0.803c-1.115-6.856-0.204-24.075,0.359-31.163l-1.503-6.374c0.823-15.525,1.172-25.646,2.534-30.379l-1.378,1.517
			c0.865-5.849-0.149-59.713,2.191-41.289c-0.31-4.499-1.019-8.616-0.861-18.481l1.37-1.5c-0.354-14.226-0.618-30.102,0.152-34.204
			c0.326,7.703,0.93,10.298,1.532,12.839c0.241-60.156-4.485-12.714-4.609-65.998l0.889,0.621l-0.944-13.521l1.123-14.175
			c-3.035-19.208,0.277-74.785-1.334-106.951c-0.249-12.651,1.552-29.3,1.352-53.335l-1.37,1.566
			c1.396-19.398,2.274-91.604,5.449-109.705c-1.063-18.231-0.288,1.916-1.373,1.515c-1.428-35.583,0.728-38.052,1.536-56.711
			c-0.685-21.914-0.522,16.758-1.554,4.978c1.039-33.564-1.693-27.254-0.782-68.718c0.77-4.112,0.537,10.706,1.049,14.979
			c-1.404-29.171-0.548-83.533-0.826-126.92c0.047-2.43,0.092-4.934,0.138-7.473c-2.865-1.934-5.593-3.832-8.133-5.654
			l-0.001,831.811c0.046,1.03,0.095,2.302,0.144,3.678c0.553-0.028,1.106-0.057,1.661-0.084c-0.042-3.808-0.07-7.978-0.072-12.49
			C505.8,937.477,507.446,930.754,508.465,915.043"/>
		<path clip-path="url(#SVGID_6_)" fill="#7D2B47" d="M557.699,163.742c-2.723-1.144-5.405-2.343-8.049-3.58
			c-0.066,40.482,0.482,86.64-0.77,112.699c0.51-4.274,0.275-19.093,1.047-14.979c0.91,41.464-1.82,35.152-0.781,68.717
			c-1.032,11.781-0.872-26.891-1.555-4.976c0.809,18.658,2.965,21.127,1.536,56.708c-1.085,0.402-0.313-19.744-1.374-1.513
			c3.176,18.1,4.056,90.306,5.45,109.705l-1.371-1.567c-0.199,24.038,1.602,40.686,1.353,53.336
			c-1.611,32.166,1.702,87.743-1.334,106.951l1.123,14.175l-0.945,13.521l0.891-0.621c-0.126,53.284-4.851,5.842-4.61,65.998
			c0.604-2.543,1.205-5.136,1.532-12.839c0.771,4.103,0.505,19.979,0.152,34.204l1.369,1.5c0.158,9.865-0.551,13.982-0.861,18.481
			c2.34-18.424,1.327,35.44,2.191,41.289l-1.376-1.517c1.362,4.733,1.711,14.854,2.533,30.378l-1.503,6.374
			c0.563,7.085,1.475,24.308,0.36,31.164l2.172-0.803c-1.362,19.49,0.442,11.816-0.648,36.479l-1.344-7.983
			c1.018,15.711,2.667,22.434,3.079,40.686c0,3.334-0.016,6.465-0.041,9.418c0.604-0.058,1.174-0.127,1.761-0.188
			c0.005-0.111,0.01-0.228,0.015-0.333L557.699,163.742z"/>
	</g>
     </g>
    <g id="CUSTOM"></g>
   </g>
	<g clip-path="url(#SVGID_2_)">
		<defs>
			<rect id="SVGID_5_" x="-8.615" y="9.811" width="788.236" height="1020.07"/>
		</defs>
		<clipPath id="SVGID_6_">
			<use xlink:href="#SVGID_5_"  overflow="visible"/>
		</clipPath>
      
    </g>
	<g clip-path="url(#SVGID_2_)">
		<defs>
			<rect id="SVGID_7_" x="-8.615" y="9.811" width="788.236" height="1020.07"/>
		</defs>
		<clipPath id="SVGID_8_">
			<use xlink:href="#SVGID_7_"  overflow="visible"/>
		</clipPath>
   
    </g>
	<g clip-path="url(#SVGID_2_)">
		<defs>
			<rect id="SVGID_9_" x="-8.615" y="9.811" width="788.236" height="1020.07"/>
		</defs>
		<clipPath id="SVGID_10_">
			<use xlink:href="#SVGID_9_"  overflow="visible"/>
		</clipPath>
    </g>
	<g id="COLLAR" clip-path="url(#SVGID_2_)">
		<defs>
			<rect id="SVGID_11_" x="-8.615" y="9.811" width="788.236" height="1020.07"/>
		</defs>
		<clipPath id="SVGID_12_">
			<use xlink:href="#SVGID_11_"  overflow="visible"/>
		</clipPath>
		<path clip-path="url(#SVGID_12_)" fill="#FDBB2D" d="M385.881,165.01c73.52-0.728,104.345-28.603,111.717-36.641
			c-8.693-6.522-14.576-11.553-16.59-13.163c-5.456-4.367-5.456-7.641-10.914-10.916c-5.457-3.274-7.641-13.097-18.555-18.554
			c-6.947-3.474-38.211-4.738-60.023-5.196l-0.01-0.263c0,0-4.29,0-10.915,0.082c-6.625-0.082-10.915-0.082-10.915-0.082
			l-0.008,0.263c-21.814,0.458-53.077,1.722-60.025,5.196c-10.915,5.457-13.097,15.28-18.555,18.554
			c-5.458,3.275-5.458,6.549-10.914,10.916c-1.603,1.282-5.669,4.739-11.641,9.384C277.876,134.551,312.981,165.732,385.881,165.01"
			/>
	</g>
	<g clip-path="url(#SVGID_2_)">
		<defs>
			<rect id="SVGID_13_" x="-8.615" y="9.811" width="788.236" height="1020.07"/>
		</defs>
		<clipPath id="SVGID_14_">
			<use xlink:href="#SVGID_13_"  overflow="visible"/>
		</clipPath>
		<g opacity="0.35" clip-path="url(#SVGID_14_)">
			<g>
				<defs>
					<rect id="SVGID_15_" x="272.057" y="121.505" width="222.601" height="39.655"/>
				</defs>
				<clipPath id="SVGID_16_">
					<use xlink:href="#SVGID_15_"  overflow="visible"/>
				</clipPath>
				<path clip-path="url(#SVGID_16_)" fill="none" stroke="#FFD281" stroke-miterlimit="10" stroke-dasharray="0.859,0.859" d="
					M494.121,126.157c0,0-22.26,33.495-108.189,34.346c-86.723,0.857-113.341-38.639-113.341-38.639"/>
			</g>
		</g>
		<g opacity="0.35" clip-path="url(#SVGID_14_)">
			<g>
				<defs>
					<rect id="SVGID_17_" x="40.942" y="407.9" width="119.167" height="15.752"/>
				</defs>
				<clipPath id="SVGID_18_">
					<use xlink:href="#SVGID_17_"  overflow="visible"/>
				</clipPath>
				<path clip-path="url(#SVGID_18_)" fill="none" stroke="#FFD281" stroke-miterlimit="10" stroke-dasharray="0.859,0.859" d="
					M41.114,408.521c0,0,27.301,7.551,61.573,11.037c34.271,3.485,57.422,3.45,57.422,3.45"/>
			</g>
		</g>
		<g opacity="0.35" clip-path="url(#SVGID_14_)">
			<g>
				<defs>
					<rect id="SVGID_19_" x="40.942" y="413.056" width="119.167" height="15.751"/>
				</defs>
				<clipPath id="SVGID_20_">
					<use xlink:href="#SVGID_19_"  overflow="visible"/>
				</clipPath>
				<path clip-path="url(#SVGID_20_)" fill="none" stroke="#FFD281" stroke-miterlimit="10" stroke-dasharray="0.859,0.859" d="
					M41.114,413.678c0,0,27.301,7.551,61.573,11.036c34.271,3.485,57.422,3.451,57.422,3.451"/>
			</g>
		</g>
		<g opacity="0.35" clip-path="url(#SVGID_14_)">
			<g>
				<defs>
					<rect id="SVGID_21_" x="601.826" y="407.9" width="119.168" height="15.752"/>
				</defs>
				<clipPath id="SVGID_22_">
					<use xlink:href="#SVGID_21_"  overflow="visible"/>
				</clipPath>
				<path clip-path="url(#SVGID_22_)" fill="none" stroke="#FFD281" stroke-miterlimit="10" stroke-dasharray="0.859,0.859" d="
					M720.822,408.521c0,0-27.301,7.551-61.572,11.037c-34.271,3.485-57.422,3.45-57.422,3.45"/>
			</g>
		</g>
		<g opacity="0.35" clip-path="url(#SVGID_14_)">
			<g>
				<defs>
					<rect id="SVGID_23_" x="601.826" y="413.056" width="119.168" height="15.751"/>
				</defs>
				<clipPath id="SVGID_24_">
					<use xlink:href="#SVGID_23_"  overflow="visible"/>
				</clipPath>
				<path clip-path="url(#SVGID_24_)" fill="none" stroke="#FFD281" stroke-miterlimit="10" stroke-dasharray="0.859,0.859" d="
					M720.822,413.678c0,0-27.301,7.551-61.572,11.036c-34.271,3.485-57.422,3.451-57.422,3.451"/>
			</g>
		</g>
		<g opacity="0.35" clip-path="url(#SVGID_14_)">
			<g>
				<defs>
					<rect id="SVGID_25_" x="161.344" y="915.1" width="435.983" height="43.04"/>
				</defs>
				<clipPath id="SVGID_26_">
					<use xlink:href="#SVGID_25_"  overflow="visible"/>
				</clipPath>
				<path clip-path="url(#SVGID_26_)" fill="none" stroke="#FFD281" stroke-miterlimit="10" stroke-dasharray="0.859,0.859" d="
					M161.935,917.945c0,0,9.294,21.492,60.41,28.464c51.117,6.97,104.998,11.624,162.645,11.036
					c56.926-0.582,169.554-18.984,181.813-21.492c25.558-5.228,29.904-20.681,29.904-20.681"/>
			</g>
		</g>
		<g opacity="0.35" clip-path="url(#SVGID_14_)">
			<g>
				<defs>
					<rect id="SVGID_27_" x="159.915" y="919.282" width="440.122" height="45.303"/>
				</defs>
				<clipPath id="SVGID_28_">
					<use xlink:href="#SVGID_27_"  overflow="visible"/>
				</clipPath>
				<path clip-path="url(#SVGID_28_)" fill="none" stroke="#FFD281" stroke-miterlimit="10" stroke-dasharray="0.859,0.859" d="
					M160.49,924.623c0,0,10.739,21.261,61.855,28.231c51.117,6.971,104.998,11.624,162.645,11.036
					c56.926-0.582,169.554-18.985,181.813-21.492c25.557-5.229,32.637-22.877,32.637-22.877"/>
			</g>
		</g>
		<g opacity="0.35" clip-path="url(#SVGID_14_)">
			<g>
				<defs>
					<rect id="SVGID_29_" x="594.621" y="193.071" width="40.82" height="222.447"/>
				</defs>
				<clipPath id="SVGID_30_">
					<use xlink:href="#SVGID_29_"  overflow="visible"/>
				</clipPath>
				<path clip-path="url(#SVGID_30_)" fill="none" stroke="#FFD281" stroke-miterlimit="10" d="M634.798,193.073
					c0,0,0.06,16.209-2.264,28.988c-2.325,12.78-15.104,59.83-18.007,73.771c-2.904,13.941-16.265,87.711-18.007,96.424
					c-1.743,8.713-1.162,23.235-1.162,23.235"/>
			</g>
		</g>
		<g opacity="0.35" clip-path="url(#SVGID_14_)">
			<g>
				<defs>
					<rect id="SVGID_31_" x="125.342" y="193.345" width="40.814" height="222.173"/>
				</defs>
				<clipPath id="SVGID_32_">
					<use xlink:href="#SVGID_31_"  overflow="visible"/>
				</clipPath>
				<path clip-path="url(#SVGID_32_)" fill="none" stroke="#FFD281" stroke-miterlimit="10" d="M125.987,193.348
					c0,0-0.066,15.936,2.257,28.713c2.324,12.779,15.103,59.83,18.007,73.771c2.904,13.941,16.265,87.711,18.007,96.424
					c1.742,8.713,1.162,23.235,1.162,23.235"/>
			</g>
		</g>
		<g opacity="0.35" clip-path="url(#SVGID_14_)">
			<g>
				<defs>
					<rect id="SVGID_33_" x="269.086" y="124.253" width="229.033" height="41.414"/>
				</defs>
				<clipPath id="SVGID_34_">
					<use xlink:href="#SVGID_33_"  overflow="visible"/>
				</clipPath>
				<path clip-path="url(#SVGID_34_)" fill="none" stroke="#FFD281" stroke-miterlimit="10" stroke-dasharray="0.859,0.859" d="
					M497.598,128.369c0,0-25.789,35.792-111.719,36.641c-86.722,0.859-116.27-40.381-116.27-40.381"/>
			</g>
		</g>
	</g>
	<g clip-path="url(#SVGID_2_)">
		<defs>
			<rect id="SVGID_35_" x="-8.615" y="9.811" width="788.236" height="1020.07"/>
		</defs>
		<clipPath id="SVGID_36_">
			<use xlink:href="#SVGID_35_"  overflow="visible"/>
		</clipPath>
		<path clip-path="url(#SVGID_36_)" d="M165.49,406.994c0,0.011,0,0.023,0,0.033C165.49,407.017,165.49,407.005,165.49,406.994"/>
		<path clip-path="url(#SVGID_36_)" d="M165.511,408.957"/>
		<path clip-path="url(#SVGID_36_)" fill="#FFFFFF" d="M385.934,129.592c45.078,0.429,79.424-22.755,78.993-26.619
			c-0.428-3.864-7.821-11.04-12.544-14.473c-4.723-3.435-27.176-5.729-72.255-5.481c-45.596,0.249-61.043,1.993-67.272,3.487
			c-6.23,1.495-16.487,12.873-15.199,15.448C298.944,104.53,341.118,129.164,385.934,129.592"/>
		<g opacity="0.35" clip-path="url(#SVGID_36_)">
			<g>
				<defs>
					<rect id="SVGID_37_" x="297.546" y="83.001" width="167.386" height="46.597"/>
				</defs>
				<clipPath id="SVGID_38_">
					<use xlink:href="#SVGID_37_"  overflow="visible"/>
				</clipPath>
				<g clip-path="url(#SVGID_38_)">
					<defs>
						<path id="SVGID_39_" d="M385.932,129.592c45.079,0.429,79.426-22.755,78.996-26.619c-0.43-3.864-7.822-11.04-12.545-14.473
							c-4.723-3.435-27.176-5.729-72.254-5.481c-45.597,0.249-61.045,1.993-67.273,3.487c-6.229,1.495-16.487,12.873-15.2,15.448
							C298.944,104.53,341.119,129.164,385.932,129.592"/>
					</defs>
					<clipPath id="SVGID_40_">
						<use xlink:href="#SVGID_39_"  overflow="visible"/>
					</clipPath>
					
						<radialGradient id="SVGID_41_" cx="187.3833" cy="1041.2344" r="1.2871" gradientTransform="matrix(102.1332 0 0 -40.5422 -18755.5547 42299.3906)" gradientUnits="userSpaceOnUse">
						<stop  offset="0" style="stop-color:#FFFFFF"/>
						<stop  offset="1" style="stop-color:#FFFFFF"/>
					</radialGradient>
					<rect x="296.368" y="82.771" clip-path="url(#SVGID_40_)" fill="url(#SVGID_41_)" width="168.989" height="47.249"/>
				</g>
				<g clip-path="url(#SVGID_38_)">
					<defs>
						<path id="SVGID_42_" d="M385.932,129.592c45.079,0.429,79.426-22.755,78.996-26.619c-0.43-3.864-7.822-11.04-12.545-14.473
							c-4.723-3.435-27.176-5.729-72.254-5.481c-45.597,0.249-61.045,1.993-67.273,3.487c-6.229,1.495-16.487,12.873-15.2,15.448
							C298.944,104.53,341.119,129.164,385.932,129.592"/>
					</defs>
					<clipPath id="SVGID_43_">
						<use xlink:href="#SVGID_42_"  overflow="visible"/>
					</clipPath>
					
						<radialGradient id="SVGID_44_" cx="187.3833" cy="1041.2344" r="1.2871" gradientTransform="matrix(102.1332 0 0 -40.5422 -18755.5547 42299.3906)" gradientUnits="userSpaceOnUse">
						<stop  offset="0" style="stop-color:#FFFFFF"/>
						<stop  offset="0.119" style="stop-color:#D9D8D7"/>
						<stop  offset="0.3629" style="stop-color:#969393"/>
						<stop  offset="0.7064" style="stop-color:#454343"/>
						<stop  offset="1" style="stop-color:#010101"/>
					</radialGradient>
					<rect x="296.368" y="82.771" clip-path="url(#SVGID_43_)" fill="url(#SVGID_44_)" width="168.989" height="47.249"/>
				</g>
			</g>
		</g>
		<g opacity="0.5" clip-path="url(#SVGID_36_)">
			<g>
				<defs>
					<rect id="SVGID_45_" x="62.302" y="92.343" width="643.562" height="870.672"/>
				</defs>
				<clipPath id="SVGID_46_">
					<use xlink:href="#SVGID_45_"  overflow="visible"/>
				</clipPath>
				<g opacity="0.2" clip-path="url(#SVGID_46_)">
					<g>
						<defs>
							<rect id="SVGID_47_" x="440.033" y="92.343" width="194.765" height="861.971"/>
						</defs>
						<clipPath id="SVGID_48_">
							<use xlink:href="#SVGID_47_"  overflow="visible"/>
						</clipPath>
						<path clip-path="url(#SVGID_48_)" fill="#897F76" d="M596.521,392.257c1.742-8.713,15.103-82.483,18.007-96.424
							c2.903-13.942,15.684-60.993,18.007-73.771c1.64-9.019,2.121-22.079,2.264-28.988c-1.278-0.887-2.07-1.463-2.07-1.463
							s-29.473-9.824-70.948-26.196c-41.477-16.372-75.313-45.843-80.771-50.208c-5.456-4.367-5.456-7.642-10.914-10.915
							c-3.612-2.168-5.804-7.205-10.031-11.946l-2.22,0.775c3.543,3.387,6.804,7.325,7.085,9.854
							c0.227,2.04-9.257,9.472-24.895,15.967c1.265,2.624,2.178,5.102,2.325,7.008c0.562,7.319,0,6.755,0,17.455
							c0,10.698,3.94,21.394,10.697,37.16c6.757,15.765,14.076,7.319,19.144,29.843c5.067,22.521-25.336,18.58-25.336,18.58
							s27.588,3.941,57.993,2.252c30.404-1.689,23.647,0,45.044-2.252c21.395-2.252,21.395-5.631,54.052,3.378
							c32.656,9.008,7.882,29.278,5.632,52.363c-2.254,23.085-34.91,19.707-44.482,32.094
							c-9.571,12.387-3.377,108.668-2.252,119.366c1.126,10.698-21.958,29.278-21.958,29.278s-6.194,18.019-10.136,31.531
							c-3.941,13.514,6.193,41.666,5.63,72.071c-0.562,30.405-28.151,70.38-37.724,92.339c-9.57,21.959-2.252,43.354,13.513,91.215
							c15.767,47.858,6.195,6.192,18.018,20.831c11.824,14.641,6.193,9.009,12.388,29.842c6.194,20.832,8.445,52.366,8.445,52.366
							s2.252,32.653,10.136,62.495c7.883,29.842,4.503,16.329,24.773,33.783l6.421,2.377c5.992-4.455,6.535-8.479,6.535-8.479
							v-7.642c0,0,2.184-9.822,2.184-14.188c0-4.368-4.365-8.734-4.365-8.734s0-25.104-3.276-58.94
							c-3.274-33.836-16.373-112.425-21.83-141.894c-5.457-29.472,1.092-99.327,6.549-126.615
							c5.459-27.288,13.099-115.698,12.007-129.888c-0.939-12.207,3.773-39.742,5.11-47.204
							C595.242,405.724,595.409,397.813,596.521,392.257"/>
					</g>
				</g>
				<g opacity="0.2" clip-path="url(#SVGID_46_)">
					<g>
						<defs>
							<rect id="SVGID_49_" x="125.987" y="96.576" width="219.674" height="866.439"/>
						</defs>
						<clipPath id="SVGID_50_">
							<use xlink:href="#SVGID_49_"  overflow="visible"/>
						</clipPath>
						<path clip-path="url(#SVGID_50_)" fill="#897F76" d="M342.123,122.423c-25.209-7.614-43.622-18.781-44.466-20.469
							c-0.413-0.825,0.368-2.557,1.812-4.573c-0.593-0.286-1.163-0.557-1.684-0.805c-2.326,3.253-4.162,6.194-6.697,7.715
							c-5.458,3.273-5.458,6.548-10.915,10.914c-5.457,4.366-39.293,33.836-80.771,50.209
							c-41.477,16.372-70.948,26.196-70.948,26.196s-0.963,0.698-2.467,1.734c0.147,6.979,0.64,19.817,2.257,28.716
							c2.324,12.78,15.103,59.83,18.007,73.771c2.904,13.941,16.265,87.711,18.007,96.424c0.986,4.935,1.228,11.732,1.252,16.7
							c0.035-0.088,0.055-0.14,0.055-0.14s6.549,34.929,5.457,49.119c-1.091,14.189,6.549,102.6,12.008,129.888
							c5.456,27.288,12.005,97.143,6.548,126.615c-5.457,29.469-18.556,108.058-21.83,141.894
							c-3.276,33.837-3.276,58.943-3.276,58.943s-4.365,4.363-4.365,8.731c0,4.365,2.182,14.188,2.182,14.188v7.641
							c0,0,1.552,11.54,28.537,17.18c2.307-13.116,5.734-36.183,3.789-48.239c-2.813-17.454,2.253-14.076,10.135-25.9
							c7.883-11.824,6.194-51.236,7.319-98.534c1.126-47.295,90.089-24.21,90.089-24.21s7.318-10.135,6.192-24.212
							c-1.126-14.074-45.605-76.011-54.052-90.087c-8.445-14.075,4.505-12.387,4.505-12.387s-12.388-5.631-17.456-33.219
							c-5.067-27.589,8.447-61.372,20.833-90.652c12.387-29.277,48.422-59.682,48.422-59.682s-38.851,6.193-76.01-10.699
							c-37.162-16.89-39.415-45.606-44.482-134.004c-5.068-88.398,3.378-105.853,23.647-106.98
							c20.271-1.126,91.776,22.522,102.474,27.027c0,0,6.757-14.077,4.504-22.522c-2.251-8.446,4.506-21.958,12.388-36.598
							c7.881-14.639,7.881-7.883,10.697-10.134c2.815-2.251,0.563-15.201-1.125-19.143c-1.691-3.942-0.563-5.068,2.815-14.078
							C346.132,127.112,344.762,124.912,342.123,122.423"/>
					</g>
				</g>
				<g opacity="0.15" clip-path="url(#SVGID_46_)">
					<g>
						<defs>
							<rect id="SVGID_51_" x="62.302" y="265.021" width="100.786" height="144.704"/>
						</defs>
						<clipPath id="SVGID_52_">
							<use xlink:href="#SVGID_51_"  overflow="visible"/>
						</clipPath>
						<path clip-path="url(#SVGID_52_)" fill="#897F76" d="M138.876,357.36c-2.816-4.504-68.128-92.339-68.128-92.339
							s1.127,8.445,5.631,18.017c4.504,9.573,50.11,67.002,50.11,67.002s-41.103-45.043-43.354-47.858
							c-2.252-2.815-20.833-17.456-20.833-15.203s14.077,17.455,25.338,28.152c11.26,10.698,34.344,33.784,45.042,50.111
							c10.699,16.328,30.405,44.482,30.405,44.482s-3.942-16.33-6.757-23.086C153.515,379.882,141.692,361.866,138.876,357.36"/>
					</g>
				</g>
				<g opacity="0.12" clip-path="url(#SVGID_46_)">
					<g>
						<defs>
							<rect id="SVGID_53_" x="75.252" y="251.508" width="43.918" height="50.673"/>
						</defs>
						<clipPath id="SVGID_54_">
							<use xlink:href="#SVGID_53_"  overflow="visible"/>
						</clipPath>
						<path clip-path="url(#SVGID_54_)" fill="#897F76" d="M94.396,279.097c-3.941-5.631-19.143-27.588-19.143-27.588
							s6.192,23.084,18.58,34.908c12.387,11.825,25.337,15.766,25.337,15.766S98.337,284.728,94.396,279.097"/>
					</g>
				</g>
				<g opacity="0.15" clip-path="url(#SVGID_46_)">
					<g>
						<defs>
							<rect id="SVGID_55_" x="603.389" y="281.913" width="102.475" height="103.037"/>
						</defs>
						<clipPath id="SVGID_56_">
							<use xlink:href="#SVGID_55_"  overflow="visible"/>
						</clipPath>
						<path clip-path="url(#SVGID_56_)" fill="#897F76" d="M703.61,281.913c0,0-7.318,14.639-13.513,25.9
							c-6.192,11.262-32.656,32.656-46.732,40.539c-14.076,7.883-39.977,36.599-39.977,36.599s11.824-2.252,19.145-7.882
							c7.318-5.631,54.053-24.211,72.069-50.11C712.62,301.056,703.61,281.913,703.61,281.913"/>
					</g>
				</g>
				<g opacity="0.12" clip-path="url(#SVGID_46_)">
					<g>
						<defs>
							<rect id="SVGID_57_" x="612.96" y="367.496" width="81.643" height="33.574"/>
						</defs>
						<clipPath id="SVGID_58_">
							<use xlink:href="#SVGID_57_"  overflow="visible"/>
						</clipPath>
						<path clip-path="url(#SVGID_58_)" fill="#897F76" d="M658.566,389.454c-15.765,4.506-45.605,10.135-45.605,10.135
							s21.396,5.631,47.858-5.067c26.463-10.699,33.783-27.026,33.783-27.026S674.333,384.95,658.566,389.454"/>
					</g>
				</g>
				<g opacity="0.12" clip-path="url(#SVGID_46_)">
					<g>
						<defs>
							<rect id="SVGID_59_" x="621.983" y="292.46" width="60.233" height="58.651"/>
						</defs>
						<clipPath id="SVGID_60_">
							<use xlink:href="#SVGID_59_"  overflow="visible"/>
						</clipPath>
						<path clip-path="url(#SVGID_60_)" fill="#897F76" d="M660.257,299.931c-10.698,12.386-14.077,16.891-23.648,22.521
							c-9.319,5.483-14.368,27.504-14.627,28.66c0.228-1,3.802-15.919,16.315-21.903c12.951-6.194,21.96-5.631,28.153-16.329
							c6.194-10.697,15.767-18.58,15.767-18.58S670.955,287.542,660.257,299.931"/>
					</g>
				</g>
			</g>
		</g>
	</g>
</g>
</svg>
