<?xml version="1.0" encoding="utf-8"?>
<!-- Generator: Adobe Illustrator 16.0.0, SVG Export Plug-In . SVG Version: 6.00 Build 0)  -->
<!DOCTYPE svg PUBLIC "-//W3C//DTD SVG 1.1//EN" "http://www.w3.org/Graphics/SVG/1.1/DTD/svg11.dtd">
<svg version="1.1" id="Layer_1" xmlns="http://www.w3.org/2000/svg" xmlns:xlink="http://www.w3.org/1999/xlink" x="0px" y="0px"
	 width="612px" height="792px" viewBox="0 0 612 792" enable-background="new 0 0 612 792" xml:space="preserve">
<g>
	<defs>
		<rect id="SVGID_1_" width="612" height="792"/>
	</defs>
	<clipPath id="SVGID_2_">
		<use xlink:href="#SVGID_1_"  overflow="visible"/>
	</clipPath>
	<g clip-path="url(#SVGID_2_)">
		<defs>
			<rect id="SVGID_3_" width="612" height="792"/>
		</defs>
		<clipPath id="SVGID_4_">
			<use xlink:href="#SVGID_3_"  overflow="visible"/>
		</clipPath>
		<path clip-path="url(#SVGID_4_)" fill="#FDBB2D" d="M497.949,141.152c0,0-22.882-7.627-55.085-20.339
			c-20.326-8.023-38.282-20.095-49.832-28.763c-5.724,6.241-29.658,27.884-86.74,28.449c-56.598,0.561-83.856-23.649-91.11-31.383
			c-11.153,8.674-30.927,22.719-53.674,31.697c-32.203,12.712-55.084,20.339-55.084,20.339s-0.75,0.543-1.917,1.349v0.005
			c0.014,0.648,0.032,1.364,0.054,2.129c0.002,0.061,0.004,0.123,0.006,0.186c0.01,0.358,0.022,0.726,0.035,1.104
			c0.001,0.022,0.001,0.044,0.002,0.066c0.014,0.396,0.029,0.805,0.046,1.22c0.003,0.081,0.006,0.164,0.009,0.246
			c0.014,0.335,0.029,0.675,0.044,1.021c0.005,0.105,0.009,0.209,0.014,0.316c0.02,0.422,0.04,0.851,0.063,1.285
			c0.002,0.056,0.005,0.113,0.008,0.168c0.02,0.377,0.041,0.757,0.063,1.14c0.008,0.135,0.016,0.27,0.024,0.405
			c0.021,0.364,0.044,0.73,0.068,1.098c0.006,0.086,0.011,0.17,0.017,0.255c0.029,0.445,0.061,0.892,0.094,1.34
			c0.009,0.121,0.019,0.242,0.028,0.363c0.026,0.344,0.053,0.687,0.081,1.031c0.012,0.136,0.023,0.272,0.035,0.408
			c0.038,0.448,0.077,0.895,0.12,1.34c0.004,0.049,0.009,0.099,0.014,0.148c0.039,0.4,0.079,0.798,0.121,1.194
			c0.014,0.134,0.029,0.267,0.043,0.4c0.039,0.351,0.079,0.7,0.12,1.045c0.012,0.099,0.023,0.198,0.035,0.297
			c0.053,0.428,0.108,0.852,0.165,1.269c0.014,0.102,0.029,0.201,0.043,0.301c0.047,0.33,0.095,0.655,0.145,0.975
			c0.018,0.117,0.036,0.233,0.054,0.349c0.065,0.404,0.132,0.803,0.202,1.19c1.804,9.922,11.726,46.453,13.981,57.277
			s12.628,68.101,13.981,74.866c0.093,0.464,0.176,0.951,0.253,1.453c0.006,0.042,0.012,0.085,0.018,0.127
			c0.071,0.469,0.134,0.951,0.191,1.444c0.007,0.053,0.013,0.105,0.019,0.158c0.056,0.499,0.107,1.007,0.152,1.52
			c0.003,0.037,0.007,0.074,0.01,0.112c0.047,0.547,0.088,1.1,0.123,1.652c0.001,0.008,0.001,0.016,0.001,0.024
			c0.035,0.547,0.064,1.093,0.088,1.635c0.003,0.046,0.004,0.09,0.006,0.135c0.023,0.514,0.042,1.022,0.056,1.522
			c0.002,0.045,0.003,0.09,0.005,0.135c0.014,0.52,0.026,1.03,0.034,1.525c0,0.008,0,0.017,0,0.026
			c0.009,0.517,0.014,1.018,0.016,1.497c0.027-0.067,0.043-0.107,0.043-0.107s5.085,27.119,4.237,38.136
			c-0.847,11.017,5.085,79.66,9.323,100.847c4.236,21.186,9.321,75.424,5.084,98.306c-4.237,22.88-14.407,83.898-16.949,110.169
			c-2.543,26.271-2.543,45.763-2.543,45.763s-3.389,3.39-3.389,6.78c0,3.39,1.695,11.017,1.695,11.017v5.933
			c0,0,1.694,12.712,36.441,15.254c34.745,2.542,76.271,3.39,88.982,5.933c3.307,0.661,7.42,1.322,11.885,1.938l-0.02,0.604
			c0,0,16.949,2.542,27.966,2.542c1.248,0,2.678-0.034,4.237-0.096c1.56,0.062,2.989,0.096,4.238,0.096
			c11.017,0,27.966-2.542,27.966-2.542l-0.021-0.604c4.465-0.616,8.578-1.277,11.885-1.938c12.712-2.543,54.237-3.391,88.983-5.933
			s36.44-15.254,36.44-15.254v-5.933c0,0,1.695-7.627,1.695-11.017c0-3.391-3.39-6.78-3.39-6.78s0-19.491-2.543-45.763
			c-2.542-26.271-12.712-87.289-16.949-110.169c-4.237-22.882,0.848-77.12,5.085-98.306c4.237-21.188,10.17-89.83,9.322-100.847
			c-0.729-9.478,2.93-30.857,3.967-36.65c-0.021-3.889,0.109-10.031,0.973-14.344c1.353-6.765,11.726-64.042,13.98-74.866
			s12.177-47.355,13.981-57.277c1.272-7.002,1.646-17.142,1.757-22.507C498.564,141.599,497.949,141.152,497.949,141.152"/>
	</g>
	<g clip-path="url(#SVGID_2_)">
		<defs>
			<rect id="SVGID_5_" width="612" height="792"/>
		</defs>
		<clipPath id="SVGID_6_">
			<use xlink:href="#SVGID_5_"  overflow="visible"/>
		</clipPath>
		<path clip-path="url(#SVGID_6_)" fill="#7D2B47" d="M414.969,725.41l-0.039,0.647l-0.369-2.029c0.174-0.104,0.304,0.09,0.408,0.47
			v-3.008c-0.681,1.762-1.402,4.593-1.645-13.412c0.247,5.664,0.967,22.242,1.645,9.453v-3.07l-0.599-12.45l0.599,8.388v-13.564
			l-0.143-0.107c0.039-0.929,0.091-1.903,0.143-2.886v-9l-0.034,0.272c-0.058,2.054-0.1,3.975-0.175,6.177
			c-0.082-2.612,0.019-4.802,0.175-6.177c0.013-0.445,0.021-0.864,0.034-1.305v-38.733c-0.231,0.835-0.396,2.578-0.507,7.368
			c-0.481-8.487,0.165-20.836,0.507-33.779v-16.158l-0.209,0.777l0.209-3.575v-5.559l-0.403-0.344
			c-0.104-12.558-0.118-27.17,0.403-37.863V543.34c-0.166-0.05-0.343,0.912-0.528,4.117c0.239-4.399,0.407-9.098,0.528-13.969
			V423.73c-0.029-0.056-0.064-0.256-0.108-0.662l0.062,15.068l-0.427-10.58l0.331-6.103c0.03-3.907,0.079-8.087,0.143-12.479
			v-20.611c-0.01-0.215-0.021-0.431-0.03-0.63l-0.447,21.384l-0.53-35.083c-0.216,0.75-0.437,0.679-0.633,0.767l-0.11,0.072
			c-0.236,0.231-0.432,1-0.535,4.254c0.036,44.265,2.026,62.978,1.537,109.003c-1.125,4.954,0.025,23.35-0.767,35.291
			c1.972,32.269,0.214,85.887,0.502,117.541c-2.645-46.305-2.703-113.889-3.107-172.457c-0.225,1.452-0.457,0.506-0.517,4.269
			c-1.002-55.481-0.585-118.71-2.175-168.591l0.305-0.346c-0.014-20.88-1.079-19.694-1.455-36.498
			c0.313,2.093,0.509,11.755,1.025,7.452c0.051-6.203-0.603-33.764,0.105-46.844c-0.579-10.41-1.156-2.406-1.523-16.74l1.114-7.388
			c-0.286-13.233,0.139-21.088-0.532-35.083l-0.566,10.469c0.443-21.425-0.484-41.293,0.51-59.617l-0.387-0.818
			c0.119-5.462,0.228-11.102,0.328-16.864c-0.954-0.624-1.89-1.245-2.805-1.861c-0.103,6.92-0.213,13.5-0.335,19.604
			c0.216,32.976-0.448,74.295,0.642,96.467c-0.397-3.249-0.217-14.511-0.814-11.385c-0.707,31.514,1.414,26.718,0.607,52.229
			c0.802,8.954,0.676-20.438,1.206-3.783c-0.627,14.181-2.301,16.058-1.192,43.103c0.843,0.305,0.242-15.008,1.066-1.151
			c-2.466,13.757-3.147,68.638-4.231,83.382l1.064-1.191c0.155,18.269-1.243,30.923-1.05,40.538
			c1.251,24.448-1.32,66.689,1.036,81.288l-0.872,10.773l0.733,10.276l-0.69-0.472c0.097,40.499,3.766,4.441,3.579,50.161
			c-0.468-1.932-0.937-3.902-1.189-9.756c-0.599,3.117-0.393,15.184-0.118,25.995l-1.064,1.141
			c-0.122,7.499,0.429,10.627,0.669,14.048c-1.817-14.004-1.029,26.937-1.701,31.382l1.069-1.152
			c-1.058,3.598-1.328,11.289-1.968,23.087l1.167,4.847c-0.438,5.386-1.145,18.475-0.278,23.686l-1.688-0.61
			c1.058,14.814-0.343,8.981,0.503,27.726l1.044-6.067c-0.791,11.939-2.069,17.05-2.392,30.923c0.001,3.232,0.021,6.227,0.051,8.991
			c5.146-0.261,10.401-0.532,15.66-0.827c0.058-1.217,0.119-2.569,0.18-4.161V725.41z"/>
		<path clip-path="url(#SVGID_6_)" fill="#7D2B47" d="M421.286,655.644c0.007-0.072,0.012-0.153,0.017-0.253L421.286,655.644z"/>
		<path clip-path="url(#SVGID_6_)" fill="#7D2B47" d="M432.424,722.479l-0.058,0.619l0.061-1.371L432.424,722.479
			c0.39-3.847,0.925-13.783,0.711-18.256c-0.097-0.147-0.198-0.719-0.308-2.295c0.164,0.229,0.251,1.111,0.308,2.295
			c0.557,0.617,0.965-19.164,2.118-12.98c0.289-13.67-1.599-8.578-0.272-21.776c-0.97,4.966-0.684-8.721-1.53-3.112
			c0.859,4.582-0.524,19.181-1.127,26.108l-0.515-19.725c0.253,4.8,0.854-2.158,0.97-4.9l-0.794-2.619
			c1.948-3.03-1.392-34.55,0.854-44.458c-0.113,6.124,0.563,11.495-0.468,14.455c0.563,11.449,1.461-2.354,2.139,2.989
			c0.769-17.874-0.489-44.923,0.949-64.264c-0.604,3.513-0.531,12.345-1.325,13.196c-0.419-13.42,1.144-29.524,1.922-45.135v-2.546
			l-0.882,2.559c0.896-13.863-0.376-5.454-0.03-20.477c0.124,0.617,0.492,2.642,0.487-0.813c-0.078-12.226-0.856-1.213-1.112-9.308
			c1.566-15.327-1.047-7.308-0.217-26.571l-0.365,1.43c0.65-15.11-0.78-34.668-0.985-50.92c0.246,1.271,0.018,13.55,0.992,12.05
			l0.279-20.535c-0.247-1.271-0.32-10.12-0.862-4.591c-0.118,2.777,0.066,5.499,0.133,7.48L433,427.082
			c0.523-19.127,1.468,1.138,2.383,0.967c-0.318-10.168,0.591-13.751,0.582-20.578c-0.921-3.234-1.021,13.195-2.007,4.479
			c-0.498-6.072,0.208-25.953,1.111-32.896c-1.149-5.29-1.188-16.239-1.229-25.331c-6.006-37.867-10.471-88.111-3.503-138.038
			c0.446-3.178,1.482-9.232,2.761-16.458c0.274-5.004-0.041-11.575-0.186-16.137l-0.366,1.371c1.94-9.89,0.101-16.334,0.204-29.325
			l-0.545,2.117c0.235-5.464,0.898-13.82,0.092-23.151l-0.667,4.877c0.376-5.975-0.192-15.979,0.046-23.07
			c-4.473-2.153-8.769-4.45-12.855-6.793V118l0.592,1.161c-0.371,2.143-0.49,6.262-0.592,10.705v6.345
			c0.075-0.319,0.157-0.561,0.239-0.816c0.114-2.072,0.266-3.914,0.487-5.36c0.007,3.759-0.238,4.647-0.487,5.36
			c-0.111,2.072-0.181,4.419-0.239,6.945v26.37c0.217-1.36,0.354-2.044,0.781,2.216c0.21,12.82-0.224,14.18-0.781,18.195v6.248
			c0.228,0.806,0.497,0.641,0.814-0.629c-0.248,10.877-0.552,22.108-0.814,33.419v34.145c0.089-1.267,0.163-2.533,0.196-3.842
			c-0.007-1.812-0.021-3.548-0.095-4.895c0.122,1.711,0.13,3.324,0.095,4.895c0.01,4.336-0.048,8.579,0.469,6.573
			c-0.077,4.193-0.357,6.517-0.665,8.47v8.706c0.301-1.863-0.191,11.553,0.764,8.701c-0.852,2.218-0.046,11.587-0.398,19.877
			c0.919,3.246,0.708-16.518,1.327-9.851c-0.224,15.77-1.903,37.15-1.568,57.569c0.363-1.425,0.419-6.209,0.599-6.921
			c-0.098,4.697-0.41,9.833-0.723,14.933v22.25c0.447-5.616,0.912-11.842,1.332-17.73c0.008-1.776,0.113-2.871,0.262-3.766
			c0.31-4.447,0.591-8.666,0.784-11.867c0.328,8.662-0.373,9.409-0.784,11.867l-0.262,3.766c-0.006,1.736,0.083,4.089,0.344,7.672
			l0.665-4.883c0.208,16.362-1.448,12.509-2.288,21.569l0.928,10.052c0.523,16.784,0.072,32.592-0.98,44.156l-0.001,15.047
			c0.129,1.08,0.311,1.205,0.574-0.507c1.146-9.079,1.933-13.285,1.972-31.736c-0.799-2.582-0.898,13.786-0.968,8.35
			c0.173-7.537-0.454-21.093,0.269-27.308l-0.096,19.771c1.224-0.193,0.052-8.197,0.655-11.697
			c0.985,5.312-0.098,16.381,0.463,24.481l0.058-1.346c-0.222,15.668,0.021,13.609-0.51,29.319
			c-1.096,0.887-0.679-5.319-1.117-12.739c-0.026,25.289-2.112,59.745-0.187,85.271l0.955-15.153
			c0.197,9.504-0.82,26.031,0.586,25.126c-0.445-10.839,0.418-6.167,0.654-11.687l-0.123-0.66c0.059-1.362,0.235-5.452,0.423-2.853
			c-0.76,8.197-1.024,21.499-1.461,30.662c0.308-4.014,0.75,4.494,0.961,5.589c-0.229,8.942-0.61,0.094-1.036-0.523
			c-0.057,4.803-0.839,12.474-0.101,16.429c0.618,6.688,0.66-8.275,1.206-10.446l-0.999,26.739l0.18-0.708
			c-0.239,2.112-0.417,6.221-0.233,8.938c0.493,2.643,0.607-3.524,0.479-7.573c0.743,14.034-1.625,24.621-0.11,36.546l0.215-3.889
			c0.065,2.084,0.005,3.407-0.177,4.154l-0.038-0.266l-0.44,7.796c0.115,0.66,0.336,1.82,0.413,0.911l0.017-0.253
			c-0.005,0.1-0.01,0.181-0.017,0.253l-0.462,7.32c-0.467,14.41,1.042,3.895,1.294,8.697l-0.009-0.713l-0.06-4.783l0.06,4.783
			c0.172,4.397,0.614,7.704,0.747,4.637l-0.651,15.115l0.023-0.068c0.185-1.207,0.385-1.954,0.646-1.384l-0.646,1.384
			c-0.898,5.866-1.111,28.054-2.733,27.782c0.128,4.015,0.424,7.197,0.662,5.426l0.014-0.717c-0.034-1.66,0.011-3.047,0.117-5.557
			c-0.069,2.42-0.1,4.108-0.117,5.557l0.001,0.662l-0.015,0.055c-0.1,11.197,1.259-2.648,1.016,15.423
			c0.305-0.061,0.24-2.067,0.356-4.845c0.035,4.742-0.074,6.655-0.246,7.445c0.152,0,0.323,0.275,0.529,1.026
			c3.72-0.226,7.413-0.464,11.044-0.72C432.691,734.471,432.356,727.4,432.424,722.479"/>
		<path clip-path="url(#SVGID_6_)" fill="#7D2B47" d="M401.47,702.838l-1.044,6.198c-0.846-19.147,0.555-13.189-0.503-28.322
			l1.688,0.623c-0.866-5.323-0.159-18.693,0.278-24.195l-1.167-4.949c0.64-12.054,0.91-19.911,1.968-23.586l-1.069,1.178
			c0.672-4.541-0.116-46.363,1.701-32.058c-0.24-3.494-0.791-6.69-0.669-14.35l1.064-1.165c-0.274-11.045-0.48-23.371,0.118-26.556
			c0.253,5.979,0.722,7.994,1.189,9.967c0.187-46.705-3.482-9.871-3.579-51.241l0.69,0.481l-0.733-10.497l0.872-11.006
			c-2.356-14.913,0.216-58.063-1.036-83.038c-0.193-9.822,1.205-22.749,1.05-41.41l-1.064,1.216
			c1.084-15.061,1.767-71.123,4.231-85.177c-0.824-14.155-0.224,1.488-1.066,1.176c-1.108-27.627,0.565-29.544,1.192-44.031
			c-0.53-17.015-0.404,13.011-1.206,3.865c0.807-26.06-1.314-21.161-0.607-53.354c0.598-3.193,0.417,8.312,0.814,11.63
			c-1.09-22.649-0.425-64.857-0.642-98.543c0.037-1.887,0.072-3.83,0.107-5.802c-2.225-1.501-4.343-2.975-6.314-4.39l-0.001,645.832
			c0.036,0.801,0.073,1.787,0.111,2.855c0.43-0.021,0.859-0.044,1.29-0.065c-0.033-2.956-0.055-6.193-0.056-9.697
			C399.4,720.255,400.679,715.035,401.47,702.838"/>
		<path clip-path="url(#SVGID_6_)" fill="#7D2B47" d="M439.696,119.515c-2.114-0.888-4.196-1.819-6.249-2.78
			c-0.052,31.432,0.374,67.269-0.599,87.502c0.396-3.319,0.215-14.824,0.813-11.63c0.707,32.193-1.413,27.293-0.607,53.353
			c-0.801,9.147-0.676-20.879-1.206-3.864c0.628,14.487,2.302,16.404,1.192,44.03c-0.842,0.312-0.242-15.33-1.066-1.175
			c2.466,14.053,3.148,70.115,4.232,85.177l-1.065-1.217c-0.154,18.663,1.244,31.589,1.05,41.411
			c-1.251,24.975,1.321,68.125-1.035,83.038l0.871,11.006l-0.733,10.497l0.691-0.481c-0.098,41.37-3.766,4.536-3.579,51.241
			c0.468-1.974,0.936-3.987,1.189-9.967c0.599,3.185,0.392,15.511,0.118,26.556l1.063,1.165c0.123,7.659-0.428,10.855-0.669,14.35
			c1.816-14.306,1.03,27.517,1.701,32.058l-1.068-1.178c1.058,3.675,1.328,11.532,1.967,23.585l-1.167,4.949
			c0.438,5.502,1.145,18.873,0.279,24.196l1.688-0.623c-1.058,15.133,0.343,9.175-0.504,28.322l-1.043-6.198
			c0.79,12.197,2.069,17.417,2.391,31.589c0,2.589-0.013,5.02-0.032,7.313c0.469-0.045,0.911-0.099,1.367-0.146
			c0.004-0.086,0.008-0.177,0.011-0.259L439.696,119.515z"/>
	</g>
	<g clip-path="url(#SVGID_2_)">
		<defs>
			<rect id="SVGID_7_" width="612" height="792"/>
		</defs>
		<clipPath id="SVGID_8_">
			<use xlink:href="#SVGID_7_"  overflow="visible"/>
		</clipPath>
		<path clip-path="url(#SVGID_8_)" fill="#FFFFFF" d="M398.053,655.643l-0.009-0.252
			C398.047,655.49,398.049,655.571,398.053,655.643"/>
		<path clip-path="url(#SVGID_8_)" fill="#FFFFFF" d="M398.054,741.863c-0.089-0.79-0.146-2.703-0.128-7.445
			c0.061,2.777,0.027,4.784,0.186,4.845c-0.126-18.071,0.581-4.226,0.529-15.424l-0.008-0.054l0.001-0.662
			c-0.01-1.447-0.025-3.137-0.062-5.557c0.056,2.509,0.079,3.896,0.062,5.557l0.007,0.716c0.124,1.772,0.278-1.41,0.345-5.425
			c-0.845,0.271-0.956-21.917-1.424-27.782l-0.336-1.384c0.136-0.571,0.24,0.178,0.336,1.384l0.013,0.068l-0.34-15.115
			c0.069,3.067,0.299-0.239,0.39-4.637l0.031-4.783l-0.031,4.783l-0.005,0.713c0.132-4.803,0.917,5.714,0.675-8.697l-0.241-7.321
			c-0.004-0.071-0.006-0.152-0.009-0.252l0.009,0.252c0.04,0.91,0.155-0.25,0.215-0.91l-0.229-7.796l-0.02,0.266
			c-0.095-0.747-0.126-2.071-0.093-4.154l0.112,3.889c0.789-11.925-0.444-22.513-0.057-36.546
			c-0.067,4.049-0.008,10.216,0.249,7.573c0.096-2.717,0.004-6.825-0.121-8.938l0.094,0.708l-0.521-26.739
			c0.284,2.171,0.306,17.135,0.628,10.446c0.385-3.955-0.022-11.626-0.053-16.429c-0.222,0.617-0.42,9.466-0.539,0.523
			c0.109-1.095,0.34-9.603,0.5-5.59c-0.227-9.162-0.365-22.464-0.761-30.661c0.098-2.601,0.189,1.489,0.221,2.853l-0.064,0.66
			c0.123,5.52,0.572,0.848,0.341,11.687c0.732,0.905,0.202-15.623,0.305-25.126l0.498,15.153
			c1.003-25.526-0.084-59.982-0.098-85.271c-0.229,7.419-0.011,13.626-0.582,12.739c-0.275-15.71-0.149-13.651-0.265-29.319
			l0.03,1.346c0.292-8.101-0.272-19.17,0.24-24.481c0.314,3.5-0.296,11.504,0.341,11.696l-0.049-19.77
			c0.376,6.214,0.049,19.77,0.14,27.309c-0.036,5.436-0.088-10.933-0.504-8.351c0.02,18.451,0.43,22.657,1.027,31.736
			c0.137,1.712,0.231,1.587,0.298,0.507v-15.047c-0.549-11.565-0.783-27.373-0.511-44.156l0.483-10.051
			c-0.438-9.061-1.3-5.208-1.191-21.57l0.346,4.884c0.136-3.583,0.183-5.937,0.179-7.673l-0.136-3.766
			c-0.214-2.457-0.579-3.205-0.408-11.867c0.101,3.201,0.247,7.42,0.408,11.867c0.077,0.895,0.133,1.99,0.136,3.766
			c0.22,5.888,0.462,12.114,0.694,17.73v-22.25c-0.162-5.1-0.326-10.237-0.376-14.933c0.094,0.713,0.122,5.496,0.312,6.921
			c0.175-20.418-0.7-41.799-0.816-57.568c0.322-6.668,0.212,13.096,0.69,9.849c-0.184-8.289,0.236-17.657-0.207-19.876
			c0.498,2.852,0.241-10.565,0.397-8.701v-8.705c-0.16-1.954-0.306-4.278-0.347-8.471c0.27,2.006,0.239-2.236,0.244-6.572
			c-0.018-1.572-0.014-3.184,0.049-4.896c-0.037,1.347-0.045,3.083-0.049,4.896c0.018,1.308,0.057,2.574,0.103,3.841v-34.145
			c-0.138-11.311-0.295-22.542-0.424-33.419c0.165,1.27,0.306,1.436,0.424,0.629v-6.248c-0.29-4.015-0.517-5.375-0.406-18.195
			c0.222-4.259,0.294-3.576,0.406-2.215V142.34c-0.03-2.526-0.066-4.873-0.124-6.945c-0.13-0.713-0.258-1.601-0.255-5.361
			c0.116,1.447,0.194,3.288,0.255,5.361c0.042,0.255,0.085,0.497,0.124,0.816v-6.345c-0.054-4.442-0.114-8.562-0.309-10.706
			l0.309-1.159V99.086c-0.04,0.357-0.045-0.63-0.033-2.47c-1.31-0.926-2.574-1.835-3.772-2.713
			c-0.897,2.955-1.768,5.752-2.594,8.347c0.049,1.452,0.106,2.679,0.164,3.43c-0.04,12.263-0.574,2.524-0.672,5.225
			c0.536,6.343-0.014,20.476,0.235,28.072l-0.348-4.877c-0.42,9.331-0.074,17.687,0.048,23.152l-0.284-2.118
			c0.054,12.992-0.904,19.435,0.106,29.325l-0.19-1.37c-0.075,4.561-0.239,11.132-0.097,16.136
			c0.666,7.226,1.205,13.281,1.438,16.458c3.63,49.927,1.304,100.172-1.824,138.038c-0.021,9.092-0.041,20.041-0.641,25.331
			c0.471,6.944,0.839,26.825,0.579,32.897c-0.514,8.716-0.565-7.713-1.045-4.479c-0.005,6.827,0.469,10.41,0.303,20.578
			c0.477,0.17,0.969-20.095,1.241-0.966l-0.257,2.678c0.034-1.981,0.13-4.703,0.069-7.48c-0.282-5.529-0.32,3.319-0.449,4.591
			l0.146,20.535c0.508,1.499,0.389-10.778,0.517-12.05c-0.106,16.252-0.852,35.811-0.513,50.92l-0.19-1.43
			c0.433,19.264-0.929,11.245-0.113,26.571c-0.133,8.095-0.539-2.918-0.579,9.308c-0.003,3.454,0.189,1.43,0.254,0.813
			c0.18,15.022-0.482,6.613-0.016,20.477l-0.46-2.56v2.547c0.406,15.61,1.22,31.716,1.001,45.135
			c-0.413-0.852-0.375-9.684-0.689-13.196c0.749,19.341,0.093,46.39,0.494,64.264c0.354-5.343,0.82,8.46,1.114-2.989
			c-0.537-2.96-0.185-8.33-0.244-14.455c1.17,9.908-0.569,41.428,0.445,44.458l-0.414,2.619c0.061,2.742,0.374,9.7,0.505,4.899
			l-0.268,19.726c-0.313-6.928-1.034-21.526-0.587-26.108c-0.441-5.608-0.292,8.078-0.797,3.111
			c0.69,13.199-0.293,8.107-0.143,21.777c0.601-6.184,0.813,13.598,1.104,12.98c0.03-1.184,0.075-2.066,0.16-2.295
			c-0.057,1.576-0.109,2.147-0.16,2.295c-0.111,4.472,0.168,14.409,0.37,18.256l-0.001-0.752l0.031,1.371l-0.03-0.619
			c0.039,5.411-0.177,13.419-0.248,22.004c1.931-0.097,3.888-0.195,5.861-0.294c-0.034-0.563-0.079-0.901-0.137-0.919
			C397.858,742.229,397.963,741.863,398.054,741.863"/>
		<path clip-path="url(#SVGID_8_)" fill="#FFFFFF" d="M394.273,153.065l1.066-1.177c-0.861,13.5,0.752,15.474,0.126,30.011
			c-0.229,0.806-0.503-4.765-0.751-9.235c0.352,12.88-0.9,11.871-0.485,24.436l-1.19-9.967c0.042,10.011,0.41,24.692-0.605,19.528
			c1.22,17.486,0.738,48.164,1.439,70.004l-0.924-1.445c1.119,11.286-0.056,41.511,1.286,51.309l-0.375,1.664l1.241,22.479
			c-0.109,10.181-1.501,6.722-1.115,7.545c0.246,22.338,0.321,39.854-0.156,54.219c1.24,3.609,1.564,27.116,1.721,45.81
			c-0.77,90.061,0.4,186.777,1.822,270.564c0.017,3.788,0.159,8.042,0.359,12.524l0.001-645.832
			c-1.439-1.033-2.794-2.029-4.085-2.993c0.436,10.52,1.489,9.402,2.273,15.993C395.023,130.871,395.57,134.017,394.273,153.065"/>
		<path clip-path="url(#SVGID_8_)" fill="#FFFFFF" d="M407.139,105.631c-0.994,18.719-0.066,39.014-0.51,60.901l0.566-10.695
			c0.672,14.297,0.246,22.321,0.532,35.838l-1.114,7.547c0.367,14.643,0.944,6.467,1.523,17.101
			c-0.708,13.361-0.055,41.516-0.105,47.852c-0.517,4.395-0.712-5.474-1.025-7.613c0.376,17.166,1.441,15.955,1.455,37.284
			l-0.304,0.354c1.589,50.955,1.172,115.545,2.174,172.221c0.06-3.845,0.292-2.877,0.517-4.36
			c0.404,59.828,0.463,128.867,3.107,176.169c-0.288-32.336,1.47-87.107-0.502-120.071c0.792-12.198-0.358-30.99,0.767-36.051
			c0.489-47.018-1.501-66.132-1.537-111.35c0.104-3.324,0.299-4.11,0.535-4.345h-0.017c-1.561-43.477-0.793-79.531-1.286-124.189
			c-0.123-11.192-0.034-26.38,0.493-28.223c0.185,7.344,0.621,1.8,0.877,7.829c-0.451-15.828-1.922-1.588-1.709-24.48l1.848,2.933
			c-1.952-9.1,0.34-28.006-0.799-44.302c0.738-5.861,1.167,4.943,1.22,17.472c0.322-14.23-0.753-15.507-0.725-26.864l1.576,10.764
			c-1.146-9.189-0.382-16.928,0.272-23.124v-4.943c-0.474,0.617-1.031,0.45-0.968-10.055c0.2-6.51,0.598-3.178,0.82-4.71
			c-0.268-0.576-0.688-3.358-0.937-8.32c-2.457-1.493-4.815-2.988-7.069-4.467c-0.021,1.024-0.042,2.05-0.063,3.063L407.139,105.631
			z"/>
		<path clip-path="url(#SVGID_8_)" fill="#FFFFFF" d="M418.82,550.192c-0.184,2.627-0.445,4.509-0.764,3.705
			c0.283-6.705,0.549-3.098,0.764-4.059v-91.715c-0.285-2.468-0.295-9.835-0.298-12.256c0.104-0.997,0.203-2.043,0.299-3.114
			v-62.146c-0.087,1.119-0.176,2.253-0.261,3.314c-0.931-6.244-0.337-16.071,0.261-26.043v-86.123
			c-0.082,0.516-0.221,2.17-0.463,5.625c-0.339-19.531-0.004-40.319,0.463-60.841v-33.495l-0.101-0.445
			c0.014,10.441-0.332,25.779-1.179,31.573c-0.621-6.857,0.831-16.228,0.464-18.199c-0.299,3.504-0.291,10.458-0.901,10.578
			c-0.686-8.938,0.286-13.944,0.399-20.238l0.311,3.414c0.306-7.281,0.678-10.645,1.007-13.066v-20.85
			c-0.157,1.021-0.356,2.409-0.745,2.463c0.36-4.904-0.638-20.717,0.334-25.82l0.077,12.602c0.169-5.767,0.226-11.315,0.334-16.183
			v-6.261c-0.104,0.461-0.192,1.083-0.239,2.177c0.116-2.731,0.175-5.761,0.239-8.658v-7.017c-0.032-0.018-0.064-0.036-0.096-0.054
			c0.126,5.185,0.045,11.512-0.33,12.958c-0.615-0.862-0.516-7.605-0.435-13.393c-0.019-0.011-0.039-0.022-0.059-0.033
			c-0.428,18.654-1.641,20.606-1.061,39.44l0.304-3.486c0.74,12.863-0.483,26.116-0.453,37.385
			c-0.121-1.931-0.302-2.914-0.461-3.059l0.326,21.667l-0.426-21.649c-0.062,0.092-0.118,0.327-0.163,0.716
			c0.766,24.932,0.188,49.455,0.653,77.873l-0.967,8.553l0.737,0.529c0.324,13.902-1.036,3.01-0.964,11.973
			c-0.003-3.407,0.119-2.796,0.304-3.492c-0.836,16.139,0.682,8.969,0.45,18.021c0.787-4.306,0.282-17.457,1.324-13.417
			c-0.833,16.101-0.372,41.137-2.142,43.499c0.372,15.583,0.247,33.108,0.023,49.881c0.084,15.067,0.231,29.706,0.688,41.625
			c-0.771-2.024-0.734-16.169-0.904-26.874c-0.072,4.644-0.144,9.15-0.203,13.47v15.074c0.144,0.284,0.144-2.965,0.339-1.925
			c-1.024,9.935,0.715,33.341-0.2,33.498c0.252,4.809,0.924,6.818,1.17,8.12c-0.439,6.377-0.653,14.009-0.78,22.114l0.253-5.929
			l0.123,0.649l-0.354,8.409l-0.058-0.312c-0.197,15.214-0.122,32.206-0.492,47.494v10.063c0.298,0.092,0.562,3.495,0.783,2.992
			c0.05-0.376,0.098-0.769,0.15-1.112c-0.048,0.658-0.097,0.993-0.15,1.112c-0.342,2.597-0.598,5.976-0.783,9.883v39.028
			c0.135,0.098,0.262-0.045,0.39-1.152l-0.39,6.832v2.857l0.156-0.595c0.08,5.638-0.01,11.424-0.156,17.101v26.979
			c0.131-0.481,0.283-0.671,0.459-0.948c-0.035,13.064-0.056,25.424-0.459,40.515v1.055c0.08-0.675,0.171-1.114,0.267-1.135
			c0.1,3.188-0.093,6.868-0.267,10.329v3.058l0.59,0.46c-0.229,5.447-0.135,11.97-0.229,18.582l0.264,3.776l0.417-4.373
			l-0.338,5.523l0.079,1.129c-0.038-0.204-0.079-0.349-0.12-0.461l-0.097,1.603l-0.058-1.834l-0.283,0.249
			c-0.047,1.267-0.106,2.529-0.182,3.774c0.409,1.912,0.208,7.908-0.044,14.783v4.771c0.115-0.007,0.23-0.013,0.347-0.02
			l-0.007-1.021l0.141,1.014c0.875-0.049,1.75-0.1,2.624-0.149c0.063-0.383,0.137-0.769,0.235-1.161l0.007,1.146l0.416-0.023
			c0.034-1.233,0.065-2.464,0.089-3.617V550.192z"/>
		<path clip-path="url(#SVGID_8_)" fill="#FFFFFF" d="M440.057,728.81c1.423-83.786,2.593-180.504,1.822-270.563
			c0.156-18.694,0.481-42.201,1.722-45.811c-0.478-14.365-0.402-31.881-0.156-54.218c0.386-0.824-1.006,2.635-1.116-7.545
			l1.242-22.48l-0.376-1.663c1.342-9.799,0.168-40.023,1.287-51.309l-0.924,1.444c0.701-21.84,0.22-52.518,1.438-70.003
			c-1.015,5.163-0.647-9.518-0.605-19.529l-1.189,9.968c0.414-12.565-0.837-11.556-0.485-24.437
			c-0.25,4.471-0.521,10.042-0.751,9.235c-0.627-14.536,0.986-16.511,0.126-30.01l1.066,1.176
			c-1.023-15.026-0.899-20.163-1.242-32.64c-0.742-0.299-1.483-0.6-2.219-0.909l0.001,621.818
			C439.898,736.852,440.04,732.598,440.057,728.81"/>
		<path clip-path="url(#SVGID_8_)" fill="#FFFFFF" d="M434.185,129.285v4.943c0.654,6.197,1.418,13.935,0.272,23.124l1.576-10.764
			c0.027,11.357-1.047,12.634-0.725,26.864c0.053-12.529,0.481-23.333,1.22-17.472c-1.139,16.296,1.153,35.202-0.799,44.303
			l1.849-2.934c0.212,22.892-1.259,8.652-1.71,24.48c0.256-6.029,0.692-0.484,0.877-7.829c0.527,1.844,0.616,17.031,0.493,28.223
			c-0.493,44.659,0.274,80.712-1.285,124.189h-0.018c0.236,0.235,0.432,1.021,0.535,4.346c-0.036,45.217-2.026,64.333-1.537,111.349
			c1.125,5.061-0.025,23.853,0.767,36.051c-1.972,32.964-0.214,87.735-0.502,120.071c2.645-47.302,2.703-116.34,3.107-176.169
			c0.225,1.483,0.457,0.516,0.517,4.36c1.002-56.676,0.585-121.266,2.174-172.22l-0.304-0.355
			c0.014-21.329,1.079-20.118,1.455-37.284c-0.313,2.14-0.509,12.008-1.026,7.614c-0.05-6.337,0.604-34.492-0.105-47.853
			c0.58-10.634,1.157-2.458,1.524-17.1l-1.114-7.548c0.286-13.517-0.14-21.541,0.532-35.838l0.566,10.695
			c-0.327-16.164,0.089-31.453-0.068-45.886c-2.497-0.994-4.957-2.046-7.373-3.146c0.025,0.482,0.049,1.05,0.069,1.73
			C435.216,129.735,434.658,129.902,434.185,129.285"/>
		<path clip-path="url(#SVGID_8_)" fill="#FFFFFF" d="M434.141,723.732c-0.076-1.245-0.135-2.508-0.182-3.774l-0.283-0.249
			l-0.058,1.834l-0.097-1.603c-0.041,0.112-0.082,0.257-0.121,0.461l0.08-1.129l-0.338-5.523l0.417,4.373l0.263-3.776
			c-0.093-6.612,0-13.135-0.228-18.582l0.59-0.46v-3.058c-0.174-3.461-0.366-7.141-0.267-10.329c0.096,0.021,0.186,0.46,0.267,1.135
			v-1.055c-0.403-15.091-0.424-27.45-0.459-40.515c0.176,0.277,0.328,0.467,0.459,0.948v-26.979
			c-0.147-5.677-0.237-11.463-0.156-17.101l0.156,0.595v-2.859l-0.39-6.83c0.128,1.107,0.255,1.25,0.39,1.152v-39.03
			c-0.186-3.905-0.441-7.284-0.784-9.881c-0.053-0.119-0.102-0.454-0.149-1.112c0.053,0.344,0.101,0.736,0.149,1.112
			c0.223,0.503,0.486-2.9,0.784-2.992v-10.063c-0.37-15.288-0.295-32.28-0.492-47.494l-0.058,0.312l-0.355-8.409l0.124-0.649
			l0.253,5.929c-0.127-8.105-0.341-15.737-0.78-22.114c0.245-1.304,0.918-3.312,1.17-8.12c-0.915-0.157,0.823-23.563-0.2-33.498
			c0.195-1.04,0.195,2.209,0.339,1.925v-15.074c-0.06-4.319-0.131-8.826-0.203-13.47c-0.169,10.705-0.134,24.85-0.904,26.874
			c0.456-11.919,0.604-26.558,0.688-41.625c-0.224-16.773-0.349-34.298,0.022-49.881c-1.769-2.362-1.309-27.398-2.141-43.499
			c1.042-4.04,0.537,9.111,1.324,13.417c-0.231-9.052,1.285-1.882,0.45-18.021c0.185,0.696,0.306,0.085,0.304,3.492
			c0.072-8.963-1.287,1.929-0.964-11.973l0.737-0.529l-0.967-8.553c0.464-28.418-0.112-52.941,0.652-77.873
			c-0.044-0.389-0.101-0.624-0.162-0.716l-0.426,21.649l0.326-21.667c-0.159,0.145-0.34,1.128-0.461,3.059
			c0.03-11.269-1.193-24.522-0.453-37.385l0.303,3.486c0.496-16.083-0.316-19.849-0.831-32.222
			c-0.077-0.037-0.152-0.077-0.229-0.114c-0.015,3.225-0.127,5.81-0.492,6.322c-0.229-0.884-0.348-3.595-0.378-6.752
			c-0.016-0.008-0.031-0.015-0.048-0.023v0.888c0.064,2.897,0.123,5.927,0.239,8.658c-0.047-1.094-0.135-1.716-0.239-2.177v6.261
			c0.108,4.868,0.164,10.416,0.334,16.183l0.077-12.602c0.972,5.103-0.026,20.916,0.334,25.82c-0.389-0.054-0.588-1.442-0.745-2.463
			v20.85c0.329,2.421,0.701,5.785,1.007,13.066l0.311-3.414c0.113,6.294,1.085,11.3,0.399,20.238
			c-0.61-0.12-0.603-7.074-0.901-10.578c-0.367,1.971,1.085,11.342,0.464,18.199c-0.847-5.794-1.192-21.132-1.179-31.573
			l-0.101,0.445v33.495c0.467,20.522,0.802,41.31,0.463,60.841c-0.242-3.455-0.381-5.109-0.463-5.625v86.123
			c0.598,9.972,1.191,19.799,0.261,26.043c-0.085-1.061-0.174-2.195-0.261-3.314v62.146c0.096,1.071,0.194,2.117,0.299,3.114
			c-0.003,2.421-0.013,9.788-0.298,12.256v91.714c0.215,0.962,0.48-2.646,0.764,4.06c-0.318,0.804-0.581-1.078-0.764-3.705v189.263
			c0.019,0.923,0.043,1.898,0.069,2.884c0.146-0.01,0.294-0.02,0.44-0.029l0.002-0.36c0.03,0.119,0.05,0.236,0.077,0.354
			c1.093-0.074,2.181-0.151,3.263-0.229v-3.56C433.933,731.641,433.73,725.645,434.141,723.732"/>
	</g>
	<g clip-path="url(#SVGID_2_)">
		<defs>
			<rect id="SVGID_9_" width="612" height="792"/>
		</defs>
		<clipPath id="SVGID_10_">
			<use xlink:href="#SVGID_9_"  overflow="visible"/>
		</clipPath>
		<path clip-path="url(#SVGID_10_)" fill="#FDBB2D" d="M489.606,264.992c-0.006,0.027-0.01,0.043-0.01,0.043
			S489.602,265.016,489.606,264.992"/>
		<path clip-path="url(#SVGID_10_)" fill="#FDBB2D" d="M135.179,308.406c0-0.009,0-0.018,0-0.026
			c-0.008-0.495-0.02-1.005-0.035-1.525c-0.001-0.045-0.003-0.09-0.004-0.135c-0.015-0.5-0.033-1.008-0.056-1.522
			c-0.002-0.045-0.004-0.09-0.006-0.135c-0.024-0.542-0.053-1.088-0.088-1.635c0-0.008-0.001-0.016-0.001-0.023
			c-0.036-0.553-0.077-1.106-0.124-1.653c-0.003-0.037-0.006-0.075-0.01-0.112c-0.045-0.513-0.095-1.021-0.152-1.52
			c-0.006-0.052-0.012-0.105-0.018-0.158c-0.057-0.493-0.121-0.975-0.191-1.444c-0.006-0.042-0.012-0.085-0.019-0.127
			c-0.076-0.502-0.16-0.989-0.253-1.453c-1.353-6.765-11.726-64.042-13.981-74.866c-2.254-10.824-12.177-47.355-13.98-57.277
			c-0.071-0.387-0.138-0.786-0.203-1.19c-0.018-0.116-0.036-0.232-0.054-0.348c-0.05-0.321-0.098-0.646-0.144-0.976
			c-0.014-0.1-0.029-0.199-0.043-0.301c-0.058-0.417-0.113-0.841-0.165-1.269c-0.013-0.098-0.024-0.198-0.035-0.297
			c-0.042-0.345-0.082-0.694-0.12-1.045c-0.015-0.133-0.029-0.266-0.044-0.4c-0.042-0.396-0.082-0.793-0.12-1.194
			c-0.005-0.049-0.01-0.098-0.015-0.148c-0.042-0.445-0.082-0.892-0.12-1.34c-0.012-0.136-0.023-0.272-0.034-0.408
			c-0.028-0.344-0.056-0.687-0.082-1.031c-0.009-0.121-0.019-0.241-0.028-0.362c-0.033-0.449-0.064-0.895-0.094-1.341
			c-0.006-0.085-0.01-0.169-0.016-0.255c-0.024-0.368-0.047-0.734-0.069-1.098c-0.008-0.136-0.016-0.27-0.023-0.405
			c-0.023-0.383-0.043-0.763-0.063-1.14c-0.003-0.055-0.006-0.112-0.009-0.168c-0.022-0.435-0.043-0.862-0.062-1.285
			c-0.005-0.107-0.01-0.211-0.015-0.316c-0.015-0.346-0.029-0.686-0.043-1.021c-0.003-0.082-0.007-0.165-0.01-0.246
			c-0.016-0.416-0.032-0.824-0.045-1.22c-0.001-0.022-0.002-0.043-0.002-0.065c-0.013-0.38-0.025-0.747-0.036-1.105
			c-0.002-0.062-0.004-0.124-0.005-0.186c-0.023-0.766-0.041-1.48-0.055-2.129v-0.005c-2.995,2.064-8.831,5.906-12.49,7.126
			c-5.085,1.695-33.898,23.729-42.373,53.39C41.17,232.677,39.475,305.56,39.475,305.56l-2.543,12.712l-2.542,7.627
			c0,0,29.661,7.627,55.085,9.322c25.424,1.695,41.525,1.695,41.525,1.695s1.695-1.695,0.848-6.78
			c-0.848-5.084-1.695-6.779-0.848-9.322c0.792-2.376,3.805-9.934,4.195-10.909C135.192,309.425,135.187,308.923,135.179,308.406"/>
		<path clip-path="url(#SVGID_10_)" fill="#FDBB2D" d="M567.44,318.271l-2.542-12.711c0,0-1.695-72.882-10.17-102.543
			s-37.288-51.695-42.373-53.39c-3.784-1.261-9.91-5.336-12.799-7.339c-0.11,5.365-0.484,15.505-1.757,22.507
			c-1.805,9.922-11.727,46.453-13.981,57.277c-2.255,10.824-12.628,68.101-13.98,74.866c-0.863,4.313-0.992,10.456-0.973,14.344
			c0.169-0.941,0.271-1.486,0.271-1.486s3.39,8.475,4.237,11.017c0.848,2.543,0,4.238-0.848,9.323
			c-0.848,5.084,0.848,6.779,0.848,6.779s16.102,0,41.525-1.695c25.424-1.695,55.085-9.322,55.085-9.322L567.44,318.271z"/>
	</g>
	<g clip-path="url(#SVGID_2_)">
		<defs>
			<rect id="SVGID_11_" width="612" height="792"/>
		</defs>
		<clipPath id="SVGID_12_">
			<use xlink:href="#SVGID_11_"  overflow="visible"/>
		</clipPath>
		<path clip-path="url(#SVGID_12_)" fill="#FDBB2D" d="M306.293,120.5c57.082-0.565,81.016-22.208,86.739-28.449
			c-6.75-5.064-11.317-8.97-12.88-10.22c-4.237-3.39-4.237-5.932-8.475-8.475c-4.237-2.542-5.932-10.169-14.406-14.406
			c-5.395-2.697-29.667-3.678-46.604-4.034l-0.007-0.204c0,0-3.331,0-8.475,0.063c-5.144-0.063-8.475-0.063-8.475-0.063
			l-0.006,0.204c-16.937,0.356-41.21,1.337-46.604,4.034c-8.475,4.237-10.169,11.864-14.407,14.406
			c-4.237,2.543-4.237,5.085-8.474,8.475c-1.244,0.996-4.401,3.68-9.038,7.286C222.437,96.851,249.693,121.061,306.293,120.5"/>
	</g>
	<g clip-path="url(#SVGID_2_)">
		<defs>
			<rect id="SVGID_13_" width="612" height="792"/>
		</defs>
		<clipPath id="SVGID_14_">
			<use xlink:href="#SVGID_13_"  overflow="visible"/>
		</clipPath>
		<g opacity="0.35" clip-path="url(#SVGID_14_)">
			<g>
				<defs>
					<rect id="SVGID_15_" x="217.919" y="86.721" width="172.831" height="30.79"/>
				</defs>
				<clipPath id="SVGID_16_">
					<use xlink:href="#SVGID_15_"  overflow="visible"/>
				</clipPath>
				<path clip-path="url(#SVGID_16_)" fill="none" stroke="#FFD281" stroke-miterlimit="10" stroke-dasharray="0.859,0.859" d="
					M390.333,90.333c0,0-17.283,26.006-84,26.667c-67.333,0.666-88-30-88-30"/>
			</g>
		</g>
		<g opacity="0.35" clip-path="url(#SVGID_14_)">
			<g>
				<defs>
					<rect id="SVGID_17_" x="38.477" y="309.084" width="92.524" height="12.23"/>
				</defs>
				<clipPath id="SVGID_18_">
					<use xlink:href="#SVGID_17_"  overflow="visible"/>
				</clipPath>
				<path clip-path="url(#SVGID_18_)" fill="none" stroke="#FFD281" stroke-miterlimit="10" stroke-dasharray="0.859,0.859" d="
					M38.61,309.566c0,0,21.197,5.863,47.806,8.569S131,320.814,131,320.814"/>
			</g>
		</g>
		<g opacity="0.35" clip-path="url(#SVGID_14_)">
			<g>
				<defs>
					<rect id="SVGID_19_" x="38.477" y="313.087" width="92.524" height="12.23"/>
				</defs>
				<clipPath id="SVGID_20_">
					<use xlink:href="#SVGID_19_"  overflow="visible"/>
				</clipPath>
				<path clip-path="url(#SVGID_20_)" fill="none" stroke="#FFD281" stroke-miterlimit="10" stroke-dasharray="0.859,0.859" d="
					M38.61,313.569c0,0,21.197,5.863,47.806,8.569S131,324.817,131,324.817"/>
			</g>
		</g>
		<g opacity="0.35" clip-path="url(#SVGID_14_)">
			<g>
				<defs>
					<rect id="SVGID_21_" x="473.957" y="309.084" width="92.524" height="12.23"/>
				</defs>
				<clipPath id="SVGID_22_">
					<use xlink:href="#SVGID_21_"  overflow="visible"/>
				</clipPath>
				<path clip-path="url(#SVGID_22_)" fill="none" stroke="#FFD281" stroke-miterlimit="10" stroke-dasharray="0.859,0.859" d="
					M566.348,309.566c0,0-21.196,5.863-47.806,8.569c-26.608,2.706-44.584,2.679-44.584,2.679"/>
			</g>
		</g>
		<g opacity="0.35" clip-path="url(#SVGID_14_)">
			<g>
				<defs>
					<rect id="SVGID_23_" x="473.957" y="313.087" width="92.524" height="12.23"/>
				</defs>
				<clipPath id="SVGID_24_">
					<use xlink:href="#SVGID_23_"  overflow="visible"/>
				</clipPath>
				<path clip-path="url(#SVGID_24_)" fill="none" stroke="#FFD281" stroke-miterlimit="10" stroke-dasharray="0.859,0.859" d="
					M566.348,313.569c0,0-21.196,5.863-47.806,8.569c-26.608,2.706-44.584,2.679-44.584,2.679"/>
			</g>
		</g>
		<g opacity="0.35" clip-path="url(#SVGID_14_)">
			<g>
				<defs>
					<rect id="SVGID_25_" x="131.959" y="702.882" width="338.505" height="33.417"/>
				</defs>
				<clipPath id="SVGID_26_">
					<use xlink:href="#SVGID_25_"  overflow="visible"/>
				</clipPath>
				<path clip-path="url(#SVGID_26_)" fill="none" stroke="#FFD281" stroke-miterlimit="10" stroke-dasharray="0.859,0.859" d="
					M132.418,705.092c0,0,7.216,16.687,46.904,22.1c39.688,5.411,81.522,9.025,126.28,8.568
					c44.198-0.451,131.644-14.74,141.163-16.687c19.844-4.06,23.219-16.057,23.219-16.057"/>
			</g>
		</g>
		<g opacity="0.35" clip-path="url(#SVGID_14_)">
			<g>
				<defs>
					<rect id="SVGID_27_" x="130.85" y="706.129" width="341.718" height="35.174"/>
				</defs>
				<clipPath id="SVGID_28_">
					<use xlink:href="#SVGID_27_"  overflow="visible"/>
				</clipPath>
				<path clip-path="url(#SVGID_28_)" fill="none" stroke="#FFD281" stroke-miterlimit="10" stroke-dasharray="0.859,0.859" d="
					M131.296,710.275c0,0,8.338,16.508,48.026,21.92s81.522,9.025,126.28,8.568c44.198-0.451,131.644-14.74,141.163-16.687
					c19.843-4.06,25.34-17.762,25.34-17.762"/>
			</g>
		</g>
		<g opacity="0.35" clip-path="url(#SVGID_14_)">
			<g>
				<defs>
					<rect id="SVGID_29_" x="468.363" y="142.286" width="31.693" height="172.712"/>
				</defs>
				<clipPath id="SVGID_30_">
					<use xlink:href="#SVGID_29_"  overflow="visible"/>
				</clipPath>
				<path clip-path="url(#SVGID_30_)" fill="none" stroke="#FFD281" stroke-miterlimit="10" d="M499.557,142.288
					c0,0,0.047,12.585-1.757,22.507c-1.806,9.922-11.727,46.453-13.981,57.277c-2.255,10.824-12.628,68.101-13.98,74.866
					c-1.354,6.765-0.902,18.04-0.902,18.04"/>
			</g>
		</g>
		<g opacity="0.35" clip-path="url(#SVGID_14_)">
			<g>
				<defs>
					<rect id="SVGID_31_" x="104.007" y="142.499" width="31.689" height="172.499"/>
				</defs>
				<clipPath id="SVGID_32_">
					<use xlink:href="#SVGID_31_"  overflow="visible"/>
				</clipPath>
				<path clip-path="url(#SVGID_32_)" fill="none" stroke="#FFD281" stroke-miterlimit="10" d="M104.507,142.501
					c0,0-0.051,12.373,1.753,22.294c1.804,9.922,11.726,46.453,13.981,57.277c2.255,10.824,12.628,68.101,13.981,74.866
					s0.902,18.04,0.902,18.04"/>
			</g>
		</g>
		<g opacity="0.35" clip-path="url(#SVGID_14_)">
			<g>
				<defs>
					<rect id="SVGID_33_" x="215.612" y="88.855" width="177.826" height="32.155"/>
				</defs>
				<clipPath id="SVGID_34_">
					<use xlink:href="#SVGID_33_"  overflow="visible"/>
				</clipPath>
				<path clip-path="url(#SVGID_34_)" fill="none" stroke="#FFD281" stroke-miterlimit="10" stroke-dasharray="0.859,0.859" d="
					M393.032,92.051c0,0-20.023,27.789-86.74,28.449c-67.333,0.667-90.274-31.353-90.274-31.353"/>
			</g>
		</g>
	</g>
	<g clip-path="url(#SVGID_2_)">
		<defs>
			<rect id="SVGID_35_" width="612" height="792"/>
		</defs>
		<clipPath id="SVGID_36_">
			<use xlink:href="#SVGID_35_"  overflow="visible"/>
		</clipPath>
		<path clip-path="url(#SVGID_36_)" d="M135.178,308.38c0,0.009,0,0.018,0,0.026C135.178,308.398,135.178,308.389,135.178,308.38"/>
		<path clip-path="url(#SVGID_36_)" d="M135.194,309.904"/>
		<path clip-path="url(#SVGID_36_)" fill="#FFFFFF" d="M306.334,93c35,0.333,61.666-17.667,61.332-20.667
			c-0.332-3-6.072-8.571-9.739-11.237c-3.667-2.667-21.1-4.448-56.1-4.256c-35.401,0.193-47.395,1.547-52.231,2.708
			c-4.837,1.16-12.801,9.994-11.801,11.994S271.539,92.668,306.334,93"/>
		<g opacity="0.35" clip-path="url(#SVGID_36_)">
			<g>
				<defs>
					<rect id="SVGID_37_" x="237.709" y="56.826" width="129.961" height="36.179"/>
				</defs>
				<clipPath id="SVGID_38_">
					<use xlink:href="#SVGID_37_"  overflow="visible"/>
				</clipPath>
				<g clip-path="url(#SVGID_38_)">
					<defs>
						<path id="SVGID_39_" d="M306.333,93c35,0.333,61.667-17.667,61.334-20.667c-0.334-3-6.073-8.571-9.74-11.237
							c-3.667-2.667-21.1-4.448-56.1-4.256c-35.402,0.193-47.396,1.547-52.232,2.708c-4.836,1.16-12.801,9.994-11.801,11.994
							S271.539,92.668,306.333,93"/>
					</defs>
					<clipPath id="SVGID_40_">
						<use xlink:href="#SVGID_39_"  overflow="visible"/>
					</clipPath>
					
						<radialGradient id="SVGID_41_" cx="0" cy="792" r="1" gradientTransform="matrix(102.1332 0 0 -40.5422 303.5625 32168.2188)" gradientUnits="userSpaceOnUse">
						<stop  offset="0" style="stop-color:#FFFFFF"/>
						<stop  offset="1" style="stop-color:#FFFFFF"/>
					</radialGradient>
					<rect x="236.794" y="56.648" clip-path="url(#SVGID_40_)" fill="url(#SVGID_41_)" width="131.206" height="36.685"/>
				</g>
				<g clip-path="url(#SVGID_38_)">
					<defs>
						<path id="SVGID_42_" d="M306.333,93c35,0.333,61.667-17.667,61.334-20.667c-0.334-3-6.073-8.571-9.74-11.237
							c-3.667-2.667-21.1-4.448-56.1-4.256c-35.402,0.193-47.396,1.547-52.232,2.708c-4.836,1.16-12.801,9.994-11.801,11.994
							S271.539,92.668,306.333,93"/>
					</defs>
					<clipPath id="SVGID_43_">
						<use xlink:href="#SVGID_42_"  overflow="visible"/>
					</clipPath>
					
						<radialGradient id="SVGID_44_" cx="0" cy="792" r="1" gradientTransform="matrix(102.1332 0 0 -40.5422 303.5625 32168.2188)" gradientUnits="userSpaceOnUse">
						<stop  offset="0" style="stop-color:#FFFFFF"/>
						<stop  offset="0.1085" style="stop-color:#EBEBEB"/>
						<stop  offset="0.3308" style="stop-color:#B7B7B7"/>
						<stop  offset="0.6481" style="stop-color:#646464"/>
						<stop  offset="1" style="stop-color:#000000"/>
					</radialGradient>
					<rect x="236.794" y="56.648" clip-path="url(#SVGID_43_)" fill="url(#SVGID_44_)" width="131.206" height="36.685"/>
				</g>
			</g>
		</g>
		<g opacity="0.5" clip-path="url(#SVGID_36_)">
			<g>
				<defs>
					<rect id="SVGID_45_" x="55.062" y="64.08" width="499.672" height="676.005"/>
				</defs>
				<clipPath id="SVGID_46_">
					<use xlink:href="#SVGID_45_"  overflow="visible"/>
				</clipPath>
				<g opacity="0.1" clip-path="url(#SVGID_46_)">
					<g>
						<defs>
							<rect id="SVGID_47_" x="348.338" y="64.08" width="151.219" height="669.249"/>
						</defs>
						<clipPath id="SVGID_48_">
							<use xlink:href="#SVGID_47_"  overflow="visible"/>
						</clipPath>
						<path clip-path="url(#SVGID_48_)" fill="#897F76" d="M469.838,296.938c1.353-6.765,11.726-64.042,13.98-74.866
							c2.255-10.824,12.177-47.355,13.981-57.277c1.272-7.002,1.646-17.142,1.757-22.507c-0.992-0.688-1.607-1.136-1.607-1.136
							s-22.883-7.627-55.085-20.339c-32.203-12.711-58.475-35.593-62.712-38.982c-4.237-3.391-4.237-5.933-8.475-8.475
							c-2.805-1.683-4.506-5.594-7.788-9.275l-1.724,0.602c2.751,2.63,5.282,5.688,5.501,7.651
							c0.176,1.584-7.188,7.354-19.329,12.397c0.982,2.037,1.691,3.961,1.806,5.441c0.437,5.683,0,5.245,0,13.552
							c0,8.306,3.06,16.611,8.306,28.852c5.246,12.24,10.929,5.683,14.863,23.17c3.935,17.486-19.672,14.426-19.672,14.426
							s21.421,3.06,45.027,1.748c23.606-1.311,18.36,0,34.973-1.748c16.612-1.749,16.612-4.372,41.967,2.623
							c25.355,6.994,6.12,22.732,4.372,40.655c-1.749,17.924-27.104,15.301-34.536,24.918c-7.432,9.618-2.622,84.372-1.748,92.678
							c0.874,8.306-17.049,22.732-17.049,22.732s-4.81,13.99-7.869,24.481c-3.061,10.492,4.809,32.351,4.371,55.957
							c-0.437,23.606-21.857,54.645-29.289,71.693c-7.432,17.05-1.749,33.661,10.491,70.821c12.241,37.157,4.81,4.808,13.989,16.174
							c9.181,11.367,4.809,6.994,9.617,23.169c4.81,16.175,6.558,40.657,6.558,40.657s1.749,25.354,7.869,48.523
							c6.12,23.169,3.497,12.678,19.235,26.229l4.984,1.846c4.652-3.46,5.074-6.583,5.074-6.583v-5.934
							c0,0,1.695-7.626,1.695-11.016c0-3.391-3.389-6.78-3.389-6.78s0-19.491-2.544-45.763
							c-2.542-26.271-12.712-87.288-16.949-110.169c-4.237-22.882,0.848-77.119,5.085-98.306s10.17-89.83,9.322-100.847
							c-0.729-9.477,2.93-30.856,3.967-36.65C468.846,307.394,468.975,301.251,469.838,296.938"/>
					</g>
				</g>
				<g opacity="0.1" clip-path="url(#SVGID_46_)">
					<g>
						<defs>
							<rect id="SVGID_49_" x="104.507" y="67.366" width="170.559" height="672.719"/>
						</defs>
						<clipPath id="SVGID_50_">
							<use xlink:href="#SVGID_49_"  overflow="visible"/>
						</clipPath>
						<path clip-path="url(#SVGID_50_)" fill="#897F76" d="M272.319,87.434c-19.573-5.912-33.869-14.582-34.525-15.892
							c-0.32-0.641,0.286-1.985,1.407-3.551c-0.46-0.221-0.903-0.432-1.307-0.625c-1.806,2.526-3.231,4.809-5.2,5.99
							c-4.237,2.542-4.237,5.084-8.474,8.474c-4.237,3.39-30.508,26.271-62.712,38.983c-32.203,12.712-55.085,20.339-55.085,20.339
							s-0.748,0.542-1.916,1.347c0.115,5.418,0.497,15.386,1.753,22.296c1.804,9.922,11.726,46.453,13.981,57.277
							c2.255,10.824,12.628,68.101,13.981,74.866c0.766,3.831,0.953,9.109,0.972,12.966c0.027-0.068,0.043-0.108,0.043-0.108
							s5.085,27.119,4.237,38.136c-0.847,11.017,5.085,79.661,9.323,100.847c4.236,21.187,9.321,75.424,5.084,98.306
							c-4.237,22.881-14.407,83.898-16.949,110.169c-2.543,26.271-2.543,45.764-2.543,45.764S131,706.406,131,709.797
							c0,3.39,1.694,11.017,1.694,11.017v5.933c0,0,1.205,8.96,22.157,13.339c1.791-10.184,4.452-28.093,2.942-37.454
							c-2.185-13.552,1.749-10.929,7.869-20.109c6.12-9.181,4.809-39.781,5.683-76.504c0.874-36.721,69.946-18.797,69.946-18.797
							s5.682-7.869,4.808-18.798s-35.409-59.017-41.967-69.945c-6.557-10.929,3.498-9.617,3.498-9.617s-9.618-4.372-13.553-25.792
							c-3.934-21.421,6.558-47.65,16.175-70.383c9.618-22.732,37.596-46.338,37.596-46.338s-30.164,4.808-59.016-8.307
							c-28.853-13.114-30.602-35.409-34.536-104.043c-3.935-68.634,2.623-82.186,18.36-83.061
							c15.738-0.874,71.257,17.487,79.563,20.984c0,0,5.246-10.929,3.497-17.486c-1.748-6.558,3.498-17.049,9.618-28.416
							c6.12-11.366,6.12-6.12,8.306-7.868c2.186-1.749,0.437-11.803-0.874-14.863c-1.312-3.061-0.437-3.935,2.186-10.93
							C275.432,91.075,274.368,89.367,272.319,87.434"/>
					</g>
				</g>
				<g opacity="0.12" clip-path="url(#SVGID_46_)">
					<g>
						<defs>
							<rect id="SVGID_51_" x="55.062" y="198.15" width="78.251" height="112.35"/>
						</defs>
						<clipPath id="SVGID_52_">
							<use xlink:href="#SVGID_51_"  overflow="visible"/>
						</clipPath>
						<path clip-path="url(#SVGID_52_)" fill="#897F76" d="M114.515,269.844c-2.186-3.497-52.896-71.694-52.896-71.694
							s0.875,6.557,4.372,13.989c3.497,7.432,38.907,52.022,38.907,52.022s-31.913-34.973-33.661-37.158
							c-1.749-2.186-16.175-13.553-16.175-11.804s10.929,13.552,19.672,21.858c8.743,8.306,26.666,26.23,34.972,38.907
							c8.307,12.678,23.607,34.536,23.607,34.536s-3.06-12.678-5.246-17.924C125.88,287.33,116.701,273.342,114.515,269.844"/>
					</g>
				</g>
				<g opacity="0.12" clip-path="url(#SVGID_46_)">
					<g>
						<defs>
							<rect id="SVGID_53_" x="65.116" y="187.658" width="34.098" height="39.344"/>
						</defs>
						<clipPath id="SVGID_54_">
							<use xlink:href="#SVGID_53_"  overflow="visible"/>
						</clipPath>
						<path clip-path="url(#SVGID_54_)" fill="#897F76" d="M79.979,209.079c-3.06-4.372-14.863-21.42-14.863-21.42
							s4.808,17.923,14.426,27.103c9.617,9.181,19.672,12.241,19.672,12.241S83.04,213.451,79.979,209.079"/>
					</g>
				</g>
				<g opacity="0.12" clip-path="url(#SVGID_46_)">
					<g>
						<defs>
							<rect id="SVGID_55_" x="475.171" y="211.265" width="79.563" height="80"/>
						</defs>
						<clipPath id="SVGID_56_">
							<use xlink:href="#SVGID_55_"  overflow="visible"/>
						</clipPath>
						<path clip-path="url(#SVGID_56_)" fill="#897F76" d="M552.984,211.265c0,0-5.683,11.366-10.491,20.109
							c-4.809,8.744-25.355,25.355-36.284,31.475c-10.929,6.121-31.038,28.416-31.038,28.416s9.18-1.749,14.863-6.12
							c5.683-4.372,41.967-18.798,55.956-38.907C559.979,226.127,552.984,211.265,552.984,211.265"/>
					</g>
				</g>
				<g opacity="0.12" clip-path="url(#SVGID_46_)">
					<g>
						<defs>
							<rect id="SVGID_57_" x="482.602" y="277.713" width="63.389" height="26.067"/>
						</defs>
						<clipPath id="SVGID_58_">
							<use xlink:href="#SVGID_57_"  overflow="visible"/>
						</clipPath>
						<path clip-path="url(#SVGID_58_)" fill="#897F76" d="M518.012,294.762c-12.24,3.498-35.409,7.869-35.409,7.869
							s16.611,4.372,37.158-3.934c20.547-8.307,26.229-20.984,26.229-20.984S530.253,291.265,518.012,294.762"/>
					</g>
				</g>
				<g opacity="0.12" clip-path="url(#SVGID_46_)">
					<g>
						<defs>
							<rect id="SVGID_59_" x="489.607" y="219.454" width="46.766" height="45.538"/>
						</defs>
						<clipPath id="SVGID_60_">
							<use xlink:href="#SVGID_59_"  overflow="visible"/>
						</clipPath>
						<path clip-path="url(#SVGID_60_)" fill="#897F76" d="M519.323,225.254c-8.306,9.617-10.929,13.114-18.36,17.486
							c-7.236,4.257-11.155,21.355-11.356,22.252c0.176-0.776,2.952-12.359,12.668-17.006c10.055-4.809,17.049-4.372,21.858-12.678
							c4.809-8.305,12.24-14.426,12.24-14.426S527.63,215.636,519.323,225.254"/>
					</g>
				</g>
			</g>
		</g>
	</g>
</g>
</svg>
