<?xml version="1.0" encoding="utf-8"?>
<!-- Generator: Adobe Illustrator 16.0.0, SVG Export Plug-In . SVG Version: 6.00 Build 0)  -->
<!DOCTYPE svg PUBLIC "-//W3C//DTD SVG 1.1//EN" "http://www.w3.org/Graphics/SVG/1.1/DTD/svg11.dtd">
<svg version="1.1" id="Layer_1" xmlns="http://www.w3.org/2000/svg" xmlns:xlink="http://www.w3.org/1999/xlink" x="0px" y="0px"
	 width="800.453px" height="1035.881px" viewBox="0 0 620 1035.881" enable-background="new 0 0 800.453 1035.881"
	 xml:space="preserve">
<g>
	<defs>
		<rect id="SVGID_1_" x="12" y="50.378" width="735.074" height="951.273"/>
	</defs>
	<clipPath id="SVGID_2_">
		<use xlink:href="#SVGID_1_"  overflow="visible"/>
	</clipPath>
	<g clip-path="url(#SVGID_2_)">
		<defs>
			<rect id="SVGID_3_" x="12" y="50.378" width="735.074" height="951.273"/>
		</defs>
		<clipPath id="SVGID_4_">
			<use xlink:href="#SVGID_3_"  overflow="visible"/>
		</clipPath>
      <g id="MASK">
       <g id="BODY">
		<path clip-path="url(#SVGID_4_)" fill="#FDBB2D" d="M612.506,192.776c-11.326-3.974-61.451-23.661-77.324-33.933
			c-17.305-11.196-39.697-28.501-45.804-33.59c-5.267-4.389-10.531-13.305-15.145-16.986c-21.611-2.743-64.917-7.84-90.922-8.223
			c-27.76-0.407-78.059,6.442-99.072,9.511c-4.255,4.176-8.98,11.758-13.706,15.698c-6.107,5.088-28.501,22.394-45.806,33.59
			c-17.304,11.197-75.321,33.59-79.395,34.607c-0.503,0.127-1.523,0.723-2.952,1.726c1.537,30.833,15.593,85.143,20.256,111.259
			c5.089,28.501,15.269,49.878,15.269,62.092v18.468c2.188,4.882,5.445,13.27,6.107,21.229c1.019,12.214,3.053,57,11.197,73.287
			c8.144,16.286,23.411,112.985,25.447,122.146s-5.089,43.769-5.089,51.911c0,8.144-19.34,68.198-20.358,84.485
			c-1.017,16.287-5.088,38.679-5.088,54.966c0,16.285-7.126,40.715-7.126,40.715s6.108,12.215,14.25,27.484
			c8.143,15.267,22.394,39.696,27.482,52.929c5.091,13.231,25.448,43.768,67.181,58.02c5.375,1.835,11.973,3.296,19.379,4.455
			l-0.039,1.651c0,0,20.792,1.471,47.899,2.069c6.966,0.182,13.963,0.253,20.808,0.246c6.846,0.007,13.842-0.064,20.808-0.246
			c27.107-0.599,47.899-2.069,47.899-2.069l-0.039-1.651c7.405-1.159,14.003-2.62,19.379-4.455
			c41.733-14.252,62.09-44.788,67.18-58.02c5.09-13.232,19.34-37.662,27.484-52.929c8.143-15.27,14.248-27.484,14.248-27.484
			s-7.125-24.43-7.125-40.715c0-16.287-4.068-38.679-5.088-54.966c-1.018-16.287-20.357-76.342-20.357-84.485
			c0-8.143-7.127-42.75-5.09-51.911c2.035-9.161,17.303-105.861,25.447-122.146c8.143-16.287,10.178-61.073,11.195-73.287
			c0.705-8.458,4.336-17.398,6.506-22.101c1.182-7.732,2.502-16.525,3.674-24.722c3.055-21.376,15.268-108.914,22.393-130.29
			C612.727,218.344,612.986,203.036,612.506,192.776"/>
	</g>
         <g id="PATTERN2">
		<path clip-path="url(#SVGID_6_)" fill="#7D2B47" d="M269.675,922.51l1.072,8.088c0.868-24.99-0.57-17.213,0.516-36.966
			l-1.731,0.813c0.889-6.947,0.163-24.398-0.286-31.58l1.198-6.461c-0.656-15.729-0.935-25.984-2.019-30.782l1.096,1.538
			c-0.689-5.928,0.119-60.514-1.746-41.842c0.248-4.563,0.812-8.733,0.687-18.729l-1.091-1.521
			c0.281-14.416,0.492-30.505-0.121-34.66c-0.262,7.805-0.742,10.433-1.222,13.007c-0.191-60.957,3.575-12.883,3.674-66.879
			l-0.708,0.628l0.753-13.7l-0.896-14.365c2.419-19.463-0.222-75.784,1.062-108.38c0.2-12.82-1.235-29.692-1.077-54.05l1.093,1.587
			c-1.112-19.658-1.813-92.83-4.343-111.172c0.846-18.475,0.229,1.941,1.095,1.534c1.138-36.059-0.581-38.561-1.225-57.469
			c0.544-22.208,0.416,16.981,1.239,5.043c-0.828-34.012,1.349-27.617,0.624-69.637c-0.615-4.167-0.428,10.849-0.836,15.181
			c1.119-29.562,0.437-84.652,0.658-128.619c-0.073-4.771-0.142-9.781-0.208-14.949c-0.866,0.688-1.822,1.439-2.859,2.251
			c0.059,3.898,0.119,7.745,0.181,11.525l-0.396,1.091c1.021,24.432,0.069,50.92,0.524,79.487l-0.583-13.959
			c-0.689,18.66-0.252,29.133-0.545,46.776l1.144,9.852c-0.376,19.11-0.97,8.44-1.564,22.318c0.727,17.44,0.057,54.187,0.109,62.458
			c0.53,5.735,0.731-7.146,1.053-9.937c-0.387,22.406-1.48,20.824-1.494,48.663l0.312,0.463
			c-1.632,66.504-1.204,150.808-2.232,224.781c-0.062-5.019-0.301-3.756-0.532-5.691c-0.413,78.088-0.474,168.198-3.188,229.935
			c0.295-42.204-1.51-113.691,0.516-156.716c-0.813-15.921,0.367-40.447-0.789-47.055c-0.5-61.364,1.542-86.314,1.579-145.333
			c-0.105-4.34-0.307-5.364-0.55-5.671l-0.112-0.098c-0.202-0.116-0.429-0.023-0.65-1.022l-0.545,46.777l-0.458-28.512
			c-0.011,0.266-0.02,0.554-0.031,0.84v27.481c0.065,5.857,0.116,11.428,0.145,16.639l0.343,8.136l-0.44,14.105l0.064-20.09
			c-0.045,0.542-0.083,0.809-0.112,0.884v146.339c0.125,6.496,0.297,12.759,0.543,18.625c-0.191-4.272-0.372-5.556-0.543-5.488
			v16.801c0.535,14.257,0.522,33.742,0.415,50.483l-0.415,0.46v7.409l0.215,4.768l-0.215-1.036v21.543
			c0.351,17.257,1.015,33.721,0.521,45.038c-0.113-6.388-0.282-8.71-0.521-9.824v51.645c0.014,0.585,0.023,1.144,0.036,1.738
			c0.16,1.833,0.263,4.752,0.179,8.236c-0.077-2.936-0.12-5.498-0.179-8.236l-0.036-0.364v12.001
			c0.054,1.31,0.105,2.608,0.145,3.845l-0.145,0.146v18.083l0.615-11.184l-0.615,16.602v4.093c0.697,17.053,1.436-5.05,1.688-12.604
			c-0.247,24.006-0.988,20.231-1.688,17.884v4.01c0.106-0.509,0.242-0.765,0.419-0.627l-0.378,2.707l-0.041-0.866v3.986
			c4.832,3.771,10.263,7.396,16.31,10.703c0-0.572,0.001-1.138,0.001-1.725C271.8,945.241,270.487,938.429,269.675,922.51"/>
		<path clip-path="url(#SVGID_6_)" fill="#7D2B47" d="M249.333,857.756c-0.006-0.097-0.011-0.205-0.017-0.338L249.333,857.756z"/>
		<path clip-path="url(#SVGID_6_)" fill="#7D2B47" d="M250.493,948.681l-0.016-0.071l0.001-0.884
			c-0.018-1.931-0.049-4.183-0.119-7.407c0.108,3.345,0.155,5.194,0.119,7.407L250.493,948.681c0.245,2.361,0.549-1.88,0.679-7.232
			c-1.665,0.361-1.884-29.222-2.806-37.044l-0.662-1.844c0.266-0.761,0.473,0.235,0.662,1.844l0.025,0.092l-0.668-20.152
			c0.136,4.09,0.59-0.317,0.767-6.182l0.06-6.377l-0.06,6.377l-0.01,0.949c0.26-6.402,1.808,7.618,1.329-11.596l-0.474-9.76
			l-0.017-0.338l0.017,0.338c0.081,1.211,0.306-0.335,0.424-1.215l-0.453-10.393l-0.038,0.354c-0.187-0.998-0.249-2.763-0.183-5.54
			l0.221,5.187c1.556-15.902-0.875-30.018-0.113-48.729c-0.13,5.399-0.013,13.621,0.492,10.1c0.189-3.623,0.008-9.103-0.239-11.919
			l0.186,0.944l-1.026-35.652c0.561,2.896,0.604,22.847,1.238,13.929c0.757-5.272-0.046-15.5-0.103-21.903
			c-0.438,0.823-0.828,12.619-1.064,0.699c0.217-1.461,0.671-12.805,0.987-7.453c-0.449-12.216-0.719-29.952-1.5-40.883
			c0.193-3.465,0.375,1.987,0.435,3.805l-0.127,0.88c0.244,7.358,1.129,1.13,0.673,15.582c1.444,1.207,0.399-20.829,0.601-33.5
			l0.98,20.203c1.977-34.034-0.163-79.974-0.191-113.692c-0.45,9.892-0.021,18.167-1.146,16.985
			c-0.543-20.946-0.294-18.201-0.522-39.091l0.059,1.794c0.577-10.801-0.535-25.56,0.476-32.641
			c0.62,4.667-0.583,15.338,0.672,15.594l-0.098-26.358c0.743,8.285,0.098,26.358,0.275,36.409
			c-0.071,7.248-0.173-14.576-0.993-11.133c0.04,24.601,0.847,30.208,2.025,42.315c0.27,2.282,0.456,2.116,0.588,0.675
			l-0.001-20.062c-1.082-15.421-1.544-36.496-1.006-58.873l0.953-13.402c-0.864-12.08-2.563-6.943-2.349-28.758l0.682,6.512
			c0.268-4.778,0.359-7.916,0.352-10.231l-0.269-5.021c-0.422-3.277-1.14-4.274-0.805-15.823c0.199,4.267,0.488,9.893,0.805,15.823
			c0.153,1.193,0.262,2.653,0.269,5.021c0.432,7.852,0.908,16.151,1.368,23.64v-29.666c-0.32-6.799-0.643-13.647-0.743-19.909
			c0.186,0.949,0.243,7.328,0.615,9.227c0.344-27.224-1.38-55.729-1.61-76.755c0.635-8.891,0.419,17.461,1.364,13.133
			c-0.363-11.053,0.463-23.543-0.41-26.501c0.981,3.803,0.474-14.084,0.784-11.602v-11.606c-0.315-2.605-0.604-5.705-0.684-11.294
			c0.533,2.674,0.472-2.981,0.482-8.763c-0.037-2.095-0.028-4.245,0.098-6.527c-0.076,1.795-0.091,4.112-0.098,6.527
			c0.034,1.745,0.11,3.433,0.202,5.122v-45.525c-0.27-15.083-0.582-30.055-0.837-44.557c0.326,1.693,0.604,1.914,0.837,0.837v-8.329
			c-0.572-5.353-1.018-7.167-0.801-24.259c0.438-5.68,0.58-4.768,0.801-2.955v-35.16c-0.061-3.368-0.131-6.498-0.246-9.259
			c-0.255-0.951-0.507-2.134-0.5-7.147c0.228,1.929,0.383,4.385,0.5,7.147c0.083,0.341,0.168,0.663,0.246,1.088v-8.459
			c-0.104-5.924-0.226-11.416-0.607-14.274l0.607-1.547v-1.188c-4.16,3.104-8.653,6.388-13.169,9.592
			c-0.076,7.104-0.229,14.443,0.02,19.564l-0.684-6.503c-0.828,12.442-0.148,23.583,0.095,30.869l-0.562-2.823
			c0.108,17.321-1.782,25.911,0.211,39.098l-0.375-1.829c-0.149,6.083-0.472,14.844-0.192,21.516
			c1.314,9.636,2.376,17.708,2.834,21.945c7.152,66.566,2.569,133.557-3.594,184.044c-0.044,12.122-0.084,26.721-1.264,33.774
			c0.928,9.258,1.652,35.765,1.142,43.859c-1.014,11.622-1.116-10.283-2.062-5.971c-0.009,9.104,0.925,13.881,0.598,27.437
			c0.94,0.228,1.91-26.791,2.446-1.288l-0.506,3.57c0.067-2.642,0.257-6.271,0.136-9.973c-0.556-7.372-0.631,4.426-0.885,6.12
			l0.287,27.379c1.001,2,0.766-14.37,1.02-16.065c-0.21,21.667-1.68,47.745-1.011,67.89l-0.375-1.904
			c0.852,25.683-1.831,14.99-0.223,35.428c-0.263,10.792-1.063-3.892-1.143,12.409c-0.005,4.606,0.375,1.906,0.5,1.082
			c0.354,20.03-0.95,8.818-0.029,27.302l-0.906-3.412v3.396c0.799,20.813,2.404,42.283,1.972,60.179
			c-0.815-1.137-0.74-12.912-1.36-17.595c1.476,25.786,0.184,61.85,0.975,85.682c0.695-7.123,1.616,11.28,2.195-3.985
			c-1.059-3.947-0.364-11.108-0.48-19.272c2.306,13.21-1.123,55.232,0.878,59.274l-0.816,3.493c0.12,3.654,0.737,12.935,0.996,6.533
			l-0.528,26.299c-0.619-9.237-2.04-28.699-1.157-34.812c-0.87-7.477-0.577,10.772-1.572,4.15
			c1.361,17.598-0.575,10.81-0.279,29.034c1.183-8.244,1.603,18.131,2.175,17.308c0.058-1.58,0.146-2.757,0.315-3.061
			c-0.113,2.102-0.216,2.863-0.315,3.061c-0.125,3.35-0.004,9,0.193,14.218c3.61,4.438,7.974,9.07,13.131,13.604
			C250.498,949.84,250.497,949.299,250.493,948.681"/>
		<path clip-path="url(#SVGID_6_)" fill="#7D2B47" d="M270.532,125.254c-0.842,0.701-2.002,1.643-3.408,2.76
			c-0.174,44.302,0.444,98.466-0.644,127.884c0.407-4.424,0.222-19.764,0.834-15.505c0.727,42.923-1.451,36.39-0.623,71.135
			c-0.823,12.195-0.692-27.838-1.237-5.152c0.645,19.316,2.361,21.872,1.225,58.706c-0.866,0.417-0.25-20.44-1.096-1.567
			c2.531,18.738,3.232,93.486,4.345,113.565l-1.094-1.621c-0.158,24.882,1.277,42.117,1.077,55.212
			c-1.284,33.299,1.356,90.831-1.062,110.714l0.895,14.675l-0.753,13.996l0.709-0.643c-0.099,55.158-3.865,6.048-3.673,68.32
			c0.479-2.632,0.96-5.317,1.221-13.289c0.614,4.246,0.403,20.682,0.122,35.406l1.09,1.553c0.126,10.213-0.438,14.473-0.686,19.132
			c1.865-19.072,1.056,36.688,1.747,42.743l-1.097-1.569c1.084,4.899,1.362,15.376,2.019,31.445l-1.198,6.601
			c0.449,7.335,1.174,25.161,0.287,32.259l1.73-0.831c-1.085,20.177,0.352,12.232-0.515,37.763l-1.072-8.264
			c0.811,16.262,2.125,23.221,2.454,42.117c0,0.904-0.001,1.786-0.004,2.665c0.461,0.253,0.917,0.508,1.385,0.756l-0.001-843.875
			C272.519,123.429,271.527,124.426,270.532,125.254"/>
		<path clip-path="url(#SVGID_6_)" fill="#7D2B47" d="M233.2,928.944c-0.869-25.53,0.569-17.586-0.517-37.763l1.732,0.831
			c-0.889-7.098-0.164-24.924,0.286-32.26l-1.198-6.6c0.656-16.069,0.933-26.546,2.02-31.445l-1.098,1.569
			c0.69-6.055-0.12-61.816,1.747-42.743c-0.248-4.659-0.814-8.919-0.687-19.132l1.092-1.553c-0.282-14.725-0.495-31.16,0.122-35.406
			c0.259,7.972,0.74,10.657,1.221,13.289c0.19-62.272-3.575-13.162-3.674-68.32l0.708,0.643l-0.752-13.996l0.896-14.675
			c-2.419-19.883,0.221-77.415-1.064-110.714c-0.199-13.096,1.238-30.33,1.078-55.212l-1.092,1.621
			c1.113-20.079,1.813-94.828,4.344-113.565c-0.845-18.874-0.23,1.984-1.093,1.567c-1.14-36.833,0.58-39.39,1.224-58.706
			c-0.544-22.686-0.416,17.347-1.239,5.152c0.827-34.745-1.349-28.213-0.623-71.135c0.615-4.258,0.427,11.082,0.836,15.506
			c-0.91-24.558-0.629-66.358-0.611-105.272c-2.157,1.514-4.307,3-6.419,4.432l-0.001,772.08c0.941,1.49,1.99,3.043,3.134,4.635
			c0.25-3.322,0.492-6.896,0.702-11.092L233.2,928.944z"/>
	</g>
         <g id="PATTERN1">
		<path clip-path="url(#SVGID_8_)" fill="#FFFFFF" d="M273.183,857.755l0.008-0.337
			C273.189,857.551,273.187,857.658,273.183,857.755"/>
		<path clip-path="url(#SVGID_8_)" fill="#FFFFFF" d="M273.122,969.243c0.108-0.052,0.13-1.27,0.15-3.154
			c-0.047-0.022-0.092-0.051-0.138-0.074C273.131,967.004,273.128,968.059,273.122,969.243"/>
		<path clip-path="url(#SVGID_8_)" fill="#FFFFFF" d="M279.137,946.867l-0.03,0.826l0.031-1.828L279.137,946.867
			c0.209-5.13,0.495-18.379,0.379-24.341c-0.051-0.197-0.104-0.958-0.163-3.059c0.086,0.302,0.135,1.479,0.163,3.059
			c0.298,0.823,0.517-25.552,1.134-17.308c0.154-18.225-0.854-11.437-0.145-29.034c-0.519,6.622-0.367-11.627-0.819-4.148
			c0.459,6.11-0.28,25.573-0.603,34.81l-0.274-26.299c0.135,6.4,0.456-2.879,0.519-6.533l-0.424-3.492
			c1.041-4.041-0.745-46.065,0.456-59.275c-0.061,8.164,0.302,15.325-0.249,19.272c0.3,15.266,0.78-3.137,1.143,3.984
			c0.411-23.831-0.262-59.896,0.507-85.681c-0.322,4.683-0.283,16.458-0.708,17.594c-0.225-17.894,0.611-39.365,1.027-60.178v-3.396
			l-0.472,3.412c0.48-18.483-0.201-7.271-0.016-27.302c0.067,0.822,0.264,3.523,0.262-1.082c-0.042-16.301-0.459-1.617-0.595-12.409
			c0.836-20.438-0.561-9.745-0.117-35.428l-0.196,1.904c0.349-20.145-0.416-46.222-0.525-67.89
			c0.132,1.695,0.01,18.065,0.531,16.065l0.149-27.379c-0.133-1.694-0.172-13.492-0.461-6.12c-0.063,3.703,0.037,7.331,0.071,9.973
			l-0.263-3.57c0.279-25.503,0.784,1.516,1.273,1.288c-0.169-13.556,0.317-18.333,0.313-27.437
			c-0.493-4.312-0.547,17.592-1.074,5.971c-0.267-8.095,0.11-34.601,0.595-43.859c-0.615-7.055-0.636-21.652-0.658-33.773
			c-3.211-50.488-5.597-117.479-1.872-184.046c0.238-4.238,0.792-12.309,1.475-21.943c0.146-6.672-0.021-15.433-0.099-21.516
			l-0.194,1.828c1.036-13.187,0.054-21.777,0.109-39.1l-0.293,2.824c0.127-7.286,0.482-18.426,0.05-30.868l-0.356,6.501
			c0.254-10.126-0.308-28.971,0.242-37.428c-0.1-3.601-0.649,9.383-0.691-6.967c0.061-1.001,0.121-2.636,0.17-4.572
			c-0.216-0.882-0.436-1.782-0.657-2.698c-1.94,2.455-3.92,4.898-5.912,6.819v16.879l0.316,1.546
			c-0.2,2.858-0.262,8.35-0.316,14.274v8.458c0.04-0.425,0.084-0.747,0.127-1.086c0.061-2.764,0.142-5.219,0.261-7.148
			c0.003,5.013-0.128,6.197-0.261,7.148c-0.061,2.762-0.096,5.891-0.127,9.259v35.16c0.115-1.815,0.188-2.726,0.417,2.955
			c0.113,17.091-0.119,18.905-0.417,24.257v8.331c0.121,1.076,0.266,0.855,0.435-0.838c-0.132,14.502-0.294,29.477-0.435,44.557
			v45.526c0.046-1.689,0.087-3.377,0.104-5.122c-0.004-2.417-0.012-4.731-0.05-6.528c0.064,2.282,0.069,4.433,0.05,6.528
			c0.006,5.781-0.025,11.437,0.251,8.761c-0.041,5.592-0.191,8.691-0.355,11.295v11.606c0.161-2.485-0.103,15.405,0.408,11.602
			c-0.454,2.957-0.024,15.447-0.213,26.501c0.492,4.329,0.378-22.023,0.71-13.133c-0.119,21.026-1.018,49.533-0.839,76.756
			c0.194-1.9,0.224-8.279,0.321-9.229c-0.053,6.263-0.221,13.111-0.387,19.911v29.666c0.238-7.489,0.488-15.789,0.712-23.64
			c0.004-2.369,0.06-3.828,0.139-5.02c0.166-5.931,0.316-11.556,0.419-15.823c0.176,11.549-0.199,12.546-0.419,15.823l-0.139,5.02
			c-0.004,2.316,0.043,5.453,0.182,10.23l0.357-6.51c0.111,21.815-0.775,16.678-1.224,28.757l0.497,13.402
			c0.28,22.377,0.039,43.453-0.524,58.874l-0.001,20.062c0.068,1.439,0.167,1.606,0.308-0.676
			c0.612-12.105,1.032-17.713,1.055-42.314c-0.428-3.442-0.481,18.381-0.52,11.133c0.094-10.051-0.243-28.124,0.144-36.41
			l-0.05,26.359c0.655-0.256,0.027-10.928,0.35-15.594c0.527,7.082-0.051,21.84,0.248,32.641l0.031-1.794
			c-0.119,20.89,0.01,18.145-0.272,39.091c-0.587,1.182-0.364-7.093-0.598-16.985c-0.014,33.718-1.128,79.658-0.099,113.692
			l0.51-20.203c0.106,12.672-0.438,34.707,0.313,33.499c-0.237-14.451,0.224-8.223,0.35-15.581l-0.066-0.88
			c0.033-1.817,0.125-7.269,0.228-3.804c-0.408,10.93-0.548,28.666-0.782,40.882c0.165-5.352,0.401,5.992,0.514,7.452
			c-0.122,11.923-0.327,0.125-0.554-0.698c-0.032,6.403-0.449,16.631-0.054,21.903c0.331,8.918,0.354-11.033,0.645-13.929
			l-0.534,35.652l0.096-0.944c-0.128,2.816-0.222,8.295-0.123,11.919c0.261,3.521,0.324-4.7,0.255-10.1
			c0.397,18.711-0.87,32.826-0.059,48.727l0.114-5.186c0.035,2.778,0.002,4.543-0.095,5.541l-0.02-0.355l-0.236,10.395
			c0.063,0.88,0.18,2.428,0.221,1.214c0.004-0.096,0.008-0.204,0.009-0.337c-0.001,0.133-0.005,0.241-0.009,0.337l-0.247,9.761
			c-0.249,19.214,0.557,5.193,0.693,11.596l-0.005-0.949l-0.033-6.379l0.033,6.379c0.091,5.864,0.329,10.271,0.398,6.182
			l-0.348,20.152l0.014-0.092c0.098-1.608,0.205-2.604,0.345-1.844l-0.345,1.844c-0.481,7.822-0.595,37.405-1.462,37.044
			c0.069,5.353,0.227,9.594,0.354,7.232l0.007-0.956c-0.018-2.212,0.006-4.062,0.063-7.407c-0.038,3.226-0.053,5.478-0.063,7.407
			v0.883l-0.007,0.073c-0.05,14.195,0.603-1.766,0.555,17.333c0.046,0.024,0.092,0.051,0.138,0.075
			c0.009-0.951,0.02-2.063,0.041-3.303c0.003,1.252,0.003,2.352,0.002,3.326c1.94,1.033,3.948,2.029,6.014,2.99
			C279.237,960.417,279.106,952.561,279.137,946.867"/>
		<path clip-path="url(#SVGID_8_)" fill="#FFFFFF" d="M275.75,594.565c0.159-24.924,0.494-56.266,1.767-61.077
			c-0.491-19.153-0.414-42.507-0.162-72.289c0.397-1.098-1.031,3.514-1.145-10.061l1.274-29.97l-0.383-2.219
			c1.376-13.064,0.172-53.363,1.32-68.41l-0.947,1.927c0.718-29.12,0.225-70.023,1.478-93.335
			c-1.044,6.884-0.666-12.69-0.624-26.039l-1.222,13.291c0.426-16.752-0.858-15.408-0.497-32.582
			c-0.257,5.962-0.536,13.389-0.772,12.315c-0.642-19.383,1.015-22.015,0.131-40.015l1.093,1.569
			c-1.33-25.396-0.769-29.59-1.692-59.414c0.463-5.059,1.018-6.715,1.491-9.881c-1.106,1.384-2.226,2.735-3.35,3.969l0,843.875
			c0.06,0.032,0.116,0.063,0.176,0.096c0.108-3.882,0.182-7.595,0.193-11.006C275.341,843.597,276.54,714.643,275.75,594.565"/>
		<path clip-path="url(#SVGID_8_)" fill="#FFFFFF" d="M256.812,142.559c0.065,14.007-0.507,14.23-0.994,13.407v6.59
			c0.671,8.261,1.455,18.579,0.279,30.83l1.619-14.351c0.027,15.142-1.075,16.845-0.745,35.817
			c0.056-16.705,0.495-31.11,1.253-23.295c-1.169,21.727,1.184,46.934-0.82,59.068l1.898-3.912
			c0.217,30.522-1.292,11.536-1.756,32.64c0.263-8.039,0.711-0.646,0.9-10.439c0.542,2.459,0.634,22.707,0.507,37.63
			c-0.507,59.544,0.281,107.613-1.32,165.582h-0.018c0.243,0.313,0.443,1.361,0.549,5.792c-0.037,60.289-2.079,85.775-1.578,148.463
			c1.154,6.747-0.026,31.802,0.788,48.066c-2.025,43.949-0.22,116.977-0.516,160.09c2.714-63.065,2.775-155.116,3.189-234.886
			c0.23,1.978,0.469,0.688,0.531,5.813c1.029-75.564,0.6-161.682,2.231-229.619l-0.311-0.474
			c0.014-28.438,1.106-26.823,1.494-49.708c-0.323,2.851-0.524,16.008-1.054,10.149c-0.051-8.448,0.62-45.987-0.108-63.801
			c0.595-14.177,1.188-3.278,1.563-22.799l-1.144-10.064c0.294-18.021-0.142-28.721,0.547-47.782l0.582,14.259
			c-0.417-26.863,0.336-51.905-0.335-75.187c-2.325,1.815-5.043,3.91-8.026,6.167C256.254,137.782,256.62,134.463,256.812,142.559"
			/>
		<path clip-path="url(#SVGID_8_)" fill="#FFFFFF" d="M255.586,943.507l-0.291-0.333l-0.059,2.444l-0.1-2.138
			c-0.042,0.151-0.082,0.345-0.123,0.617l0.082-1.506l-0.347-7.364l0.429,5.83l0.27-5.036c-0.097-8.813,0-17.512-0.234-24.773
			l0.605-0.614v-4.076c-0.179-4.616-0.377-9.521-0.274-13.773c0.098,0.03,0.191,0.615,0.274,1.515v-1.406
			c-0.414-20.121-0.434-36.599-0.471-54.019c0.181,0.37,0.337,0.622,0.471,1.265v-35.973c-0.15-7.567-0.244-15.281-0.159-22.799
			l0.159,0.792v-3.811l-0.4-9.106c0.131,1.476,0.262,1.667,0.4,1.536v-52.039c-0.19-5.207-0.453-9.711-0.804-13.173
			c-0.054-0.16-0.105-0.607-0.154-1.483c0.054,0.457,0.103,0.981,0.154,1.483c0.227,0.669,0.498-3.869,0.804-3.99v-13.42
			c-0.381-20.382-0.303-43.038-0.505-63.323l-0.059,0.417l-0.365-11.211l0.127-0.867l0.261,7.905
			c-0.131-10.807-0.351-20.983-0.801-29.485c0.252-1.737,0.941-4.416,1.201-10.826c-0.94-0.21,0.846-31.417-0.207-44.664
			c0.201-1.385,0.201,2.946,0.349,2.566v-20.097c-0.061-5.761-0.134-11.767-0.208-17.96c-0.174,14.274-0.138,33.132-0.929,35.832
			c0.468-15.893,0.619-35.41,0.707-55.499c-0.229-22.364-0.358-45.73,0.023-66.506c-1.817-3.149-1.345-36.529-2.198-57.997
			c1.071-5.387,0.551,12.148,1.359,17.888c-0.237-12.068,1.32-2.509,0.462-24.026c0.19,0.928,0.314,0.113,0.312,4.657
			c0.074-11.951-1.321,2.57-0.99-15.965l0.757-0.706l-0.993-11.403c0.477-37.89-0.115-70.587,0.67-103.828
			c-0.045-0.518-0.104-0.832-0.167-0.955l-0.437,28.866l0.334-28.89c-0.163,0.194-0.349,1.504-0.473,4.081
			c0.03-15.026-1.224-32.697-0.464-49.847l0.309,4.648c0.501-21.073-0.295-26.301-0.824-42.132
			c-0.089,0.067-0.181,0.136-0.271,0.204c-0.032,3.734-0.158,6.625-0.497,7.243c-0.19-0.946-0.305-3.467-0.359-6.602
			c-0.019,0.014-0.037,0.027-0.056,0.042c0.057,3.465,0.118,7.016,0.223,10.256c-0.048-1.458-0.138-2.289-0.246-2.902v8.347
			c0.112,6.491,0.17,13.887,0.344,21.577l0.078-16.804c0.998,6.804-0.026,27.889,0.344,34.427c-0.399-0.072-0.603-1.924-0.766-3.283
			v27.798c0.338,3.229,0.721,7.714,1.034,17.422l0.318-4.552c0.117,8.391,1.114,15.065,0.41,26.984
			c-0.625-0.162-0.617-9.433-0.925-14.104c-0.375,2.628,1.113,15.122,0.477,24.264c-0.87-7.726-1.224-28.177-1.21-42.098
			l-0.104,0.594v44.661c0.479,27.361,0.823,55.078,0.475,81.117c-0.248-4.605-0.391-6.811-0.475-7.499v114.827
			c0.614,13.297,1.223,26.399,0.269,34.724c-0.088-1.414-0.178-2.927-0.269-4.419v82.86c0.099,1.428,0.199,2.823,0.307,4.152
			c-0.003,3.228-0.013,13.052-0.306,16.342v122.281c0.219,1.282,0.494-3.528,0.784,5.413c-0.326,1.071-0.595-1.438-0.784-4.94
			v234.374c1.182,1.007,2.405,2.007,3.669,3.001c-0.006-2.78,0.058-4.898,0.239-5.997
			C255.696,946.878,255.635,945.195,255.586,943.507"/>
		<path clip-path="url(#SVGID_8_)" fill="#FFFFFF" d="M227.932,156.74c-0.151,9.141-0.303,16.718-1.048,30.93l1.094-1.569
			c-0.884,18,0.772,20.632,0.129,40.015c-0.235,1.074-0.515-6.353-0.771-12.314c0.361,17.173-0.924,15.829-0.499,32.581
			l-1.221-13.291c0.043,13.348,0.422,32.922-0.621,26.039c1.252,23.313,0.758,64.216,1.478,93.335l-0.949-1.927
			c1.15,15.047-0.057,55.346,1.321,68.41l-0.385,2.219l1.274,29.97c-0.112,13.575-1.541,8.963-1.146,10.061
			c0.253,29.782,0.33,53.136-0.16,72.289c1.274,4.812,1.606,36.153,1.767,61.077c-0.721,109.689,0.218,226.777,1.499,331.372
			c0.242,0.396,0.484,0.794,0.74,1.2l0.001-772.081C229.594,155.627,228.758,156.189,227.932,156.74"/>
		<path clip-path="url(#SVGID_8_)" fill="#FFFFFF" d="M227.533,205.627l0.581-14.261c0.691,19.063,0.252,29.76,0.546,47.783
			l-1.143,10.064c0.375,19.521,0.968,8.62,1.564,22.799c-0.727,17.815-0.057,55.352-0.108,63.802
			c-0.531,5.859-0.731-7.3-1.053-10.15c0.387,22.887,1.48,21.271,1.495,49.709l-0.313,0.472
			c1.633,67.938,1.204,154.056,2.232,229.62c0.061-5.126,0.3-3.836,0.53-5.813c0.417,79.77,0.476,171.82,3.192,234.886
			c-0.297-43.113,1.508-116.141-0.517-160.09c0.813-16.265-0.368-41.32,0.787-48.066c0.502-62.688-1.54-88.174-1.578-148.462
			c0.105-4.433,0.307-5.479,0.549-5.794h-0.016c-1.603-57.967-0.815-106.037-1.321-165.58c-0.125-14.922-0.035-35.171,0.506-37.631
			c0.19,9.794,0.638,2.401,0.899,10.44c-0.461-21.104-1.973-2.118-1.754-32.64l1.897,3.912c-2.003-12.134,0.349-37.34-0.821-59.067
			c0.758-7.815,1.199,6.589,1.253,23.295c0.33-18.972-0.773-20.676-0.745-35.819l1.619,14.352
			c-1.176-12.252-0.394-22.569,0.278-30.831v-6.591c-0.34,0.577-0.722,0.634-0.898-4.179c-2.58,1.799-5.139,3.545-7.625,5.193
			C227.593,172.487,227.797,188.691,227.533,205.627"/>
		<path clip-path="url(#SVGID_8_)" fill="#FFFFFF" d="M240.048,147.069c-0.064,0.361-0.12,0.817-0.166,1.411
			c0.055-0.038,0.111-0.078,0.166-0.118V147.069z"/>
		<path clip-path="url(#SVGID_8_)" fill="#FFFFFF" d="M236.465,936.021l0.27,5.036l0.343-4.669c-0.209-0.258-0.407-0.515-0.61-0.771
			C236.467,935.753,236.466,935.887,236.465,936.021"/>
		<path clip-path="url(#SVGID_8_)" fill="#FFFFFF" d="M239.263,722.1c0.292-8.941,0.564-4.131,0.784-5.413V594.405
			c-0.292-3.29-0.303-13.114-0.307-16.342c0.109-1.329,0.209-2.724,0.308-4.152v-82.859c-0.088,1.491-0.18,3.005-0.268,4.418
			c-0.956-8.325-0.345-21.426,0.268-34.723V345.92c-0.084,0.687-0.228,2.893-0.475,7.499c-0.348-26.039-0.004-53.756,0.475-81.117
			v-44.661l-0.104-0.594c0.016,13.921-0.34,34.372-1.208,42.098c-0.638-9.144,0.854-21.636,0.476-24.264
			c-0.306,4.672-0.298,13.942-0.925,14.104c-0.704-11.919,0.295-18.593,0.41-26.985l0.318,4.552
			c0.315-9.707,0.697-14.192,1.035-17.421v-27.798c-0.162,1.359-0.366,3.211-0.765,3.283c0.37-6.538-0.653-27.623,0.343-34.427
			l0.079,16.804c0.173-7.69,0.23-15.086,0.343-21.577v-7.055c-0.055,0.04-0.111,0.08-0.166,0.118
			c-0.033,0.417-0.06,0.892-0.08,1.492c0.015-0.477,0.027-0.975,0.041-1.464c-0.48,0.342-0.96,0.685-1.442,1.025
			c-0.416,8.938-0.755,15.853-0.385,31.428l0.311-4.648c0.759,17.149-0.496,34.82-0.465,49.846c-0.124-2.577-0.311-3.887-0.474-4.08
			l0.335,28.888l-0.437-28.865c-0.063,0.124-0.122,0.438-0.167,0.956c0.786,33.241,0.194,65.938,0.671,103.828l-0.993,11.403
			l0.758,0.706c0.33,18.537-1.064,4.014-0.991,15.965c-0.002-4.544,0.124-3.729,0.313-4.657
			c-0.857,21.518,0.701,11.958,0.461,24.026c0.809-5.739,0.291-23.274,1.36-17.889c-0.854,21.467-0.381,54.848-2.197,57.998
			c0.382,20.775,0.254,44.142,0.022,66.506c0.087,20.088,0.238,39.606,0.707,55.499c-0.792-2.7-0.755-21.559-0.928-35.832
			c-0.073,6.192-0.148,12.199-0.209,17.959v20.097c0.148,0.38,0.148-3.952,0.349-2.566c-1.052,13.247,0.734,44.454-0.207,44.664
			c0.259,6.41,0.949,9.089,1.201,10.826c-0.451,8.502-0.67,18.678-0.802,29.485l0.261-7.905l0.126,0.867l-0.364,11.211l-0.059-0.417
			c-0.204,20.285-0.125,42.939-0.506,63.323v13.42c0.307,0.121,0.578,4.659,0.805,3.99c0.05-0.502,0.099-1.026,0.154-1.483
			c-0.048,0.874-0.1,1.323-0.154,1.483c-0.353,3.462-0.614,7.966-0.805,13.173v52.039c0.14,0.131,0.269-0.062,0.4-1.536l-0.4,9.106
			v3.811l0.162-0.792c0.083,7.517-0.012,15.231-0.162,22.799v35.973c0.136-0.643,0.292-0.895,0.471-1.265
			c-0.036,17.42-0.057,33.897-0.471,54.019v1.406c0.083-0.899,0.176-1.484,0.275-1.514c0.103,4.253-0.096,9.157-0.275,13.772v4.076
			l0.606,0.612c-0.23,7.152-0.142,15.695-0.231,24.372c0.204,0.256,0.401,0.513,0.61,0.771l0.085-1.161l-0.057,1.198
			c0.927,1.148,1.912,2.311,2.94,3.48V717.159C239.86,720.661,239.59,723.171,239.263,722.1"/>
	</g>
            <g id="SLEEVES">
		<path clip-path="url(#SVGID_10_)" fill="#FDBB2D" d="M162.636,306.437c-4.663-26.118-18.719-80.426-20.256-111.26
			c-10.137,7.113-41.045,34.873-57.103,63.419c-18.322,32.573-14.25,120.11-14.25,124.183c0,4.071-1.017,17.303-1.017,17.303
			l-3.054,6.107c0,0,34.608,9.162,64.127,9.162s45.805-5.091,45.805-5.091l-1.018-27.482c0,0,0.865,1.609,2.035,4.219v-18.469
			C177.904,356.312,167.725,334.938,162.636,306.437"/>
		<path clip-path="url(#SVGID_10_)" fill="#FDBB2D" d="M689.898,400.082c0,0-1.018-13.232-1.018-17.305
			c0-4.07,4.072-91.608-14.248-124.18c-18.322-32.572-55.984-64.127-60.057-65.146c-0.336-0.083-1.049-0.316-2.072-0.674
			c0.482,10.259,0.223,25.568-4.035,38.337c-7.125,21.375-19.338,108.913-22.393,130.289c-1.172,8.197-2.492,16.99-3.674,24.721
			c0.961-2.09,1.639-3.347,1.639-3.347l-1.02,27.484c0,0,16.287,5.089,45.805,5.089c29.52,0,64.127-9.161,64.127-9.161
			L689.898,400.082z"/>
      </g>
     </g>
       </g>
	<g clip-path="url(#SVGID_2_)">
		<defs>
			<rect id="SVGID_5_" x="12" y="50.378" width="735.074" height="951.273"/>
		</defs>
		<clipPath id="SVGID_6_">
			<use xlink:href="#SVGID_5_"  overflow="visible"/>
		</clipPath>
    
    	</g>
	<g clip-path="url(#SVGID_2_)">
		<defs>
			<rect id="SVGID_7_" x="12" y="50.378" width="735.074" height="951.273"/>
		</defs>
		<clipPath id="SVGID_8_">
			<use xlink:href="#SVGID_7_"  overflow="visible"/>
		</clipPath>
    
    </g>
  <g id="CUSTOM"></g>
	<g clip-path="url(#SVGID_2_)">
		<defs>
			<rect id="SVGID_9_" x="12" y="50.378" width="735.074" height="951.273"/>
		</defs>
		<clipPath id="SVGID_10_">
			<use xlink:href="#SVGID_9_"  overflow="visible"/>
		</clipPath>
	</g>
	<g id="COLLAR" clip-path="url(#SVGID_2_)">
		<defs>
			<rect id="SVGID_11_" x="12" y="50.378" width="735.074" height="951.273"/>
		</defs>
		<clipPath id="SVGID_12_">
			<use xlink:href="#SVGID_11_"  overflow="visible"/>
		</clipPath>
		<path clip-path="url(#SVGID_12_)" fill="#FDBB2D" d="M383.311,100.045c26.005,0.382,69.311,5.479,90.922,8.222
			c-0.738-0.589-1.458-1.055-2.16-1.336c-5.09-2.036-12.214-6.107-12.214-6.107l-7.127-13.232c0,0-29.518-11.196-53.946-11.196
			h-37.661c-24.43,0-53.948,11.196-53.948,11.196l-7.125,13.232c0,0-7.126,4.072-12.215,6.107c-1.151,0.461-2.354,1.405-3.598,2.624
			C305.252,106.487,355.551,99.637,383.311,100.045"/>
	</g>
	<g clip-path="url(#SVGID_2_)">
		<defs>
			<rect id="SVGID_13_" x="12" y="50.378" width="735.074" height="951.273"/>
		</defs>
		<clipPath id="SVGID_14_">
			<use xlink:href="#SVGID_13_"  overflow="visible"/>
		</clipPath>
		<g opacity="0.35" clip-path="url(#SVGID_14_)">
			<g>
				<defs>
					<rect id="SVGID_15_" x="69.873" y="93.41" width="620.166" height="882.872"/>
				</defs>
				<clipPath id="SVGID_16_">
					<use xlink:href="#SVGID_15_"  overflow="visible"/>
				</clipPath>
				<path clip-path="url(#SVGID_16_)" fill="none" stroke="#FFCD72" stroke-miterlimit="10" stroke-dasharray="0.859,0.5" d="
					M185.029,831.664c0,0,52.93,100.771,98.736,120.111c45.803,19.34,131.306,18.321,165.914,9.159
					c34.609-9.159,68.198-36.643,79.395-52.929c11.197-16.285,47.84-77.359,47.84-77.359"/>
				<path clip-path="url(#SVGID_16_)" fill="none" stroke="#FFCD72" stroke-miterlimit="10" stroke-dasharray="0.859,0.5" d="
					M185.029,840.08c0,0,52.93,100.771,98.736,120.109c45.803,19.34,131.306,18.322,165.914,9.162
					c34.609-9.162,68.198-36.646,79.395-52.931c11.197-16.286,47.84-77.359,47.84-77.359"/>
				<path clip-path="url(#SVGID_16_)" fill="none" stroke="#FFCD72" stroke-miterlimit="10" stroke-dasharray="0.859,0.5" d="
					M69.984,395.082c0,0,27.675,5.189,56.215,5.189s50.45-2.306,50.45-2.306"/>
				<path clip-path="url(#SVGID_16_)" fill="none" stroke="#FFCD72" stroke-miterlimit="10" stroke-dasharray="0.859,0.5" d="
					M69.984,390.274c0,0,27.675,5.188,56.215,5.188s50.45-2.305,50.45-2.305"/>
				<path clip-path="url(#SVGID_16_)" fill="none" stroke="#FFCD72" stroke-miterlimit="10" stroke-dasharray="0.859,0.5" d="
					M689.93,395.082c0,0-27.676,5.189-56.215,5.189s-50.449-2.306-50.449-2.306"/>
				<path clip-path="url(#SVGID_16_)" fill="none" stroke="#FFCD72" stroke-miterlimit="10" stroke-dasharray="0.859,0.5" d="
					M689.93,390.274c0,0-27.676,5.188-56.215,5.188s-50.449-2.305-50.449-2.305"/>
				<path clip-path="url(#SVGID_16_)" fill="none" stroke="#FFCD72" stroke-miterlimit="10" stroke-dasharray="0.859,0.5" d="
					M299.824,101.386c0,0,47.781-7.877,83.487-7.351c35.705,0.524,76.658,6.826,76.658,6.826"/>
				<path clip-path="url(#SVGID_16_)" fill="none" stroke="#FFCD72" stroke-miterlimit="10" stroke-dasharray="0.859,0.5" d="
					M283.181,110.279c0,0,64.424-10.758,100.13-10.233c35.705,0.524,91.651,8.265,91.651,8.265"/>
				<path clip-path="url(#SVGID_16_)" fill="none" stroke="#FFCD72" stroke-miterlimit="10" stroke-dasharray="0.859,0.5" d="
					M177.641,386.73c0,0,0.263-5.988,0.263-18.202c0-12.215-10.178-33.592-15.269-62.091
					c-5.088-28.501-21.061-82.202-20.043-110.703"/>
				<path clip-path="url(#SVGID_16_)" fill="none" stroke="#FFCD72" stroke-miterlimit="10" stroke-dasharray="0.859,0.5" d="
					M612.506,192.776c0,0,3.09,16.962-4.037,38.336c-7.125,21.376-19.338,108.914-22.393,130.29
					c-3.055,21.374-7.125,46.823-7.125,46.823"/>
			</g>
		</g>
	</g>
	<g clip-path="url(#SVGID_2_)">
		<defs>
			<rect id="SVGID_17_" x="12" y="50.378" width="735.074" height="951.273"/>
		</defs>
		<clipPath id="SVGID_18_">
			<use xlink:href="#SVGID_17_"  overflow="visible"/>
		</clipPath>
		<path clip-path="url(#SVGID_18_)" d="M393.484,116.499c5.918,0,10.714,5.135,10.714,11.464c0,6.331-4.795,11.464-10.714,11.464
			h-20.78c-5.914,0-10.714-5.134-10.714-11.464c0-6.329,4.8-11.464,10.714-11.464H393.484"/>
		<path clip-path="url(#SVGID_18_)" fill="none" stroke="#000000" stroke-width="6.078" d="M393.484,116.499
			c5.918,0,10.714,5.135,10.714,11.464c0,6.331-4.795,11.464-10.714,11.464h-20.78c-5.914,0-10.714-5.134-10.714-11.464
			c0-6.329,4.8-11.464,10.714-11.464H393.484"/>
		<path clip-path="url(#SVGID_18_)" d="M392.682,118.334c5.378,0,9.733,4.31,9.733,9.628c0,5.321-4.354,9.63-9.735,9.63h-18.874
			c-5.369,0-9.729-4.31-9.729-9.63c0-5.319,4.359-9.628,9.729-9.628H392.682"/>
		<path clip-path="url(#SVGID_18_)" fill="none" stroke="#FFFFFF" stroke-width="0.658" d="M392.682,118.334
			c5.378,0,9.733,4.31,9.733,9.628c0,5.321-4.354,9.63-9.735,9.63h-18.874c-5.369,0-9.729-4.31-9.729-9.63
			c0-5.319,4.359-9.628,9.729-9.628H392.682"/>
		<path clip-path="url(#SVGID_18_)" fill="#FFFFFF" d="M366.623,127.903c0-4.013,2.976-7.302,6.743-7.566v15.131
			C369.599,135.204,366.623,131.914,366.623,127.903"/>
		<polygon clip-path="url(#SVGID_18_)" fill="#FFFFFF" points="380.846,126.911 374.557,120.318 380.846,120.318 		"/>
		<polygon clip-path="url(#SVGID_18_)" fill="#FFFFFF" points="380.846,128.893 374.557,135.488 380.846,135.488 		"/>
		<polygon clip-path="url(#SVGID_18_)" fill="#FFFFFF" points="388.738,126.911 395.031,120.318 388.738,120.318 		"/>
		<polygon clip-path="url(#SVGID_18_)" fill="#FFFFFF" points="388.738,128.893 395.031,135.488 388.738,135.488 		"/>
		<rect x="382.183" y="120.318" clip-path="url(#SVGID_18_)" fill="#FFFFFF" width="5.222" height="15.169"/>
		<path clip-path="url(#SVGID_18_)" fill="#FFFFFF" d="M372.788,114.708v0.927h0.875v-0.312l0.322,0.067v0.175
			c0,0.272-0.078,0.345-0.345,0.345h-0.829c-0.267,0-0.345-0.072-0.345-0.345v-0.774c0-0.272,0.079-0.345,0.345-0.345h0.829
			c0.268,0,0.345,0.072,0.345,0.345v0.141l-0.322,0.054v-0.278H372.788z"/>
		<path clip-path="url(#SVGID_18_)" fill="#FFFFFF" d="M374.841,114.447h1.03c0.262,0,0.345,0.073,0.345,0.344v0.774
			c0,0.273-0.083,0.346-0.345,0.346h-1.03c-0.265,0-0.349-0.073-0.349-0.346v-0.774C374.492,114.52,374.576,114.447,374.841,114.447
			 M375.889,114.709h-1.07v0.927h1.07V114.709z"/>
		<path clip-path="url(#SVGID_18_)" fill="#FFFFFF" d="M376.761,114.447h0.264l0.654,0.887l0.648-0.887h0.26v1.464h-0.3v-0.906
			c0-0.027,0-0.079,0.004-0.154c-0.023,0.065-0.054,0.119-0.079,0.152l-0.521,0.731h-0.068L377.1,115
			c-0.035-0.046-0.061-0.093-0.084-0.149c0.006,0.061,0.009,0.11,0.009,0.154v0.906h-0.264V114.447z"/>
		<path clip-path="url(#SVGID_18_)" fill="#FFFFFF" d="M379.13,114.447h1.195c0.215,0,0.316,0.079,0.316,0.283v0.327
			c0,0.203-0.102,0.284-0.316,0.284h-0.874v0.57h-0.322V114.447z M379.452,114.701v0.386h0.731c0.099,0,0.142-0.019,0.142-0.116
			v-0.154c0-0.096-0.043-0.116-0.142-0.116H379.452z"/>
		<path clip-path="url(#SVGID_18_)" fill="#FFFFFF" d="M381.007,114.447h1.189c0.218,0,0.318,0.079,0.318,0.283v0.345
			c0,0.203-0.1,0.284-0.318,0.284h-0.179l0.64,0.553h-0.461l-0.564-0.553h-0.302v0.553h-0.323V114.447z M381.33,114.701v0.407h0.727
			c0.104,0,0.143-0.021,0.143-0.116v-0.174c0-0.096-0.04-0.116-0.143-0.116H381.33z"/>
		<polygon clip-path="url(#SVGID_18_)" fill="#FFFFFF" points="383.039,114.447 384.465,114.447 384.465,114.697 383.364,114.697 
			383.364,115.022 384.006,115.022 384.006,115.273 383.364,115.273 383.364,115.636 384.484,115.636 384.484,115.911 
			383.039,115.911 		"/>
		<path clip-path="url(#SVGID_18_)" fill="#FFFFFF" d="M385.246,114.701v0.317h0.867c0.265,0,0.348,0.069,0.348,0.345v0.203
			c0,0.272-0.083,0.346-0.348,0.346h-0.861c-0.26,0-0.348-0.074-0.348-0.346v-0.043l0.288-0.059v0.171h0.985V115.3h-0.871
			c-0.261,0-0.346-0.073-0.346-0.348v-0.161c0-0.271,0.084-0.344,0.346-0.344h0.793c0.249,0,0.344,0.069,0.344,0.321v0.032
			l-0.284,0.069v-0.168H385.246z"/>
		<path clip-path="url(#SVGID_18_)" fill="#FFFFFF" d="M387.292,114.701v0.317h0.873c0.262,0,0.35,0.069,0.35,0.345v0.203
			c0,0.272-0.088,0.346-0.35,0.346h-0.861c-0.263,0-0.347-0.074-0.347-0.346v-0.043l0.287-0.059v0.171h0.985V115.3h-0.871
			c-0.256,0-0.346-0.073-0.346-0.348v-0.161c0-0.271,0.09-0.344,0.346-0.344h0.793c0.248,0,0.343,0.069,0.343,0.321v0.032
			l-0.284,0.069v-0.168H387.292z"/>
		<rect x="389.054" y="114.447" clip-path="url(#SVGID_18_)" fill="#FFFFFF" width="0.328" height="1.464"/>
		<path clip-path="url(#SVGID_18_)" fill="#FFFFFF" d="M390.272,114.447h1.027c0.267,0,0.352,0.073,0.352,0.344v0.774
			c0,0.273-0.085,0.346-0.352,0.346h-1.027c-0.261,0-0.344-0.073-0.344-0.346v-0.774
			C389.928,114.52,390.011,114.447,390.272,114.447 M391.323,114.709h-1.077v0.927h1.077V114.709z"/>
		<path clip-path="url(#SVGID_18_)" fill="#FFFFFF" d="M392.191,114.447h0.223l0.983,0.861c0.058,0.052,0.106,0.099,0.157,0.161
			c-0.005-0.121-0.011-0.207-0.011-0.25v-0.771h0.288v1.464h-0.218l-1.025-0.906c-0.042-0.035-0.081-0.072-0.119-0.118
			c0.015,0.113,0.015,0.189,0.015,0.232v0.792h-0.293V114.447z"/>
		<path clip-path="url(#SVGID_18_)" fill="#FFFFFF" d="M379.205,140.322v0.929h1.011v-0.325h-0.53v-0.251h0.849v0.503
			c0,0.276-0.084,0.346-0.347,0.346h-0.963c-0.264,0-0.347-0.07-0.347-0.346v-0.769c0-0.278,0.083-0.346,0.347-0.346h0.963
			c0.254,0,0.347,0.068,0.347,0.331v0.032l-0.319,0.063v-0.166H379.205z"/>
		<polygon clip-path="url(#SVGID_18_)" fill="#FFFFFF" points="381.084,140.063 382.513,140.063 382.513,140.313 381.412,140.313 
			381.412,140.64 382.052,140.64 382.052,140.887 381.412,140.887 381.412,141.25 382.527,141.25 382.527,141.524 381.084,141.524 
					"/>
		<path clip-path="url(#SVGID_18_)" fill="#FFFFFF" d="M383.516,140.063h0.314l0.798,1.46h-0.365l-0.169-0.318h-0.882l-0.163,0.318
			h-0.323L383.516,140.063z M383.959,140.941l-0.299-0.596l-0.308,0.596H383.959z"/>
		<path clip-path="url(#SVGID_18_)" fill="#FFFFFF" d="M384.944,140.063h1.191c0.218,0,0.314,0.078,0.314,0.282v0.344
			c0,0.203-0.096,0.282-0.314,0.282h-0.179l0.64,0.552h-0.466l-0.561-0.552h-0.309v0.552h-0.316V140.063z M385.26,140.313v0.409
			h0.731c0.097,0,0.144-0.02,0.144-0.115v-0.177c0-0.096-0.047-0.118-0.144-0.118H385.26z"/>
		<path clip-path="url(#SVGID_18_)" fill="#FFFFFF" d="M388.437,139.8c0.182,0.189,0.283,0.448,0.283,0.719
			c0,0.278-0.097,0.528-0.286,0.718c-0.193,0.196-0.435,0.303-0.689,0.303c-0.259,0-0.501-0.106-0.686-0.306
			c-0.186-0.197-0.285-0.444-0.285-0.714c0-0.271,0.103-0.53,0.293-0.732c0.177-0.189,0.416-0.288,0.678-0.288
			C388.01,139.498,388.253,139.604,388.437,139.8 M388.349,139.895c-0.158-0.173-0.369-0.261-0.598-0.261
			c-0.23,0-0.441,0.083-0.593,0.251c-0.165,0.174-0.258,0.399-0.258,0.633c0,0.233,0.09,0.452,0.246,0.62
			c0.164,0.175,0.376,0.264,0.592,0.264c0.23,0,0.438-0.089,0.606-0.262c0.162-0.162,0.245-0.378,0.245-0.614
			C388.589,140.28,388.51,140.059,388.349,139.895 M388.231,140.237c0,0.166-0.093,0.278-0.251,0.312l0.244,0.526h-0.235
			l-0.22-0.493h-0.205v0.493h-0.208v-1.156h0.415C388.082,139.919,388.231,140.028,388.231,140.237 M387.564,140.063v0.383h0.173
			c0.19,0,0.276-0.049,0.276-0.183c0-0.147-0.086-0.2-0.283-0.2H387.564z"/>
	</g>
	<g clip-path="url(#SVGID_2_)">
		<defs>
			<rect id="SVGID_19_" x="12" y="50.378" width="735.074" height="951.273"/>
		</defs>
		<clipPath id="SVGID_20_">
			<use xlink:href="#SVGID_19_"  overflow="visible"/>
		</clipPath>
		<g opacity="0.15" clip-path="url(#SVGID_20_)">
			<g>
				<defs>
					<rect id="SVGID_21_" x="74.347" y="244.845" width="588.657" height="447.063"/>
				</defs>
				<clipPath id="SVGID_22_">
					<use xlink:href="#SVGID_21_"  overflow="visible"/>
				</clipPath>
				<path clip-path="url(#SVGID_22_)" fill="#897F76" d="M172.765,367.312c0,0-18.5-3.329-31.82-7.77
					c-13.319-4.44-25.529-7.77-35.889-17.02c-10.359-9.249-30.708-33.669-30.708-33.669s35.889,31.08,38.849,34.039
					C116.157,345.854,172.765,367.312,172.765,367.312"/>
				<path clip-path="url(#SVGID_22_)" fill="#897F76" d="M157.225,352.883l-22.57-10.73l-3.699-8.139c0,0,26.269,18.869,23.31,13.69
					c-2.959-5.181-39.589-46.99-46.25-55.499c-6.659-8.51-22.568-26.639-22.568-26.639s19.609,12.949,21.83,17.389
					c2.22,4.44,37.369,47.358,41.438,52.538c4.07,5.179,14.799,14.061,14.06,15.91C162.035,353.253,157.225,352.883,157.225,352.883
					"/>
				<path clip-path="url(#SVGID_22_)" fill="#897F76" d="M131.326,347.703c0,0-25.16-26.27-29.229-31.079
					c-4.071-4.811-21.09-18.13-21.09-18.13l31.82,34.778L131.326,347.703z"/>
				<path clip-path="url(#SVGID_22_)" fill="#897F76" d="M161.295,331.424c0,0-7.4-19.241-11.1-27.751
					c-3.701-8.508-9.99-41.067-16.279-40.328c-6.291,0.741-2.221,13.689,2.219,22.939c4.441,9.25,9.25,16.649,9.25,16.649
					s-10.73-3.699-17.02-13.689s-21.089-43.659-25.159-42.548c-4.069,1.109,2.589,19.238,9.249,29.968
					c6.66,10.731,22.94,26.269,31.45,34.779C152.416,319.955,161.295,331.424,161.295,331.424"/>
				<path clip-path="url(#SVGID_22_)" fill="#897F76" d="M586.785,338.453c0,0,17.389-32.56,28.119-50.689
					s30.34-42.919,30.34-42.919s-32.561,57.35-34.41,59.568C608.984,306.634,586.785,338.453,586.785,338.453"/>
				<path clip-path="url(#SVGID_22_)" fill="#897F76" d="M603.436,317.733c0,0,13.318-19.61,28.119-31.449
					c14.799-11.839,31.449-18.129,31.449-18.129s-22.199,11.84-33.67,26.639c-11.469,14.8-31.078,37-34.039,45.51
					c-2.959,8.51-2.221,18.129-2.221,18.129s8.881-2.219,5.182,1.11c-3.701,3.33,2.959,11.841-2.221,13.689
					c-5.18,1.85-8.139,2.59-8.139,4.81c0,2.221-7.4-1.479-7.4-1.479s4.068-29.6,5.549-32.929
					C587.525,340.304,603.436,317.733,603.436,317.733"/>
				<path clip-path="url(#SVGID_22_)" fill="#897F76" d="M598.994,346.592c0,0-0.369-12.949,9.252-17.019
					c9.619-4.07,19.979-5.551,28.117-9.62c8.141-4.069,13.691-8.88,13.691-8.88s-10.361,14.06-23.311,18.5
					c-12.949,4.44-17.76,4.44-20.719,8.139C603.064,341.414,598.994,346.592,598.994,346.592"/>
				<path clip-path="url(#SVGID_22_)" fill="#897F76" d="M238.476,681.699c0,0,94.287-20.418,135.725-19.217
					c41.438,1.199,147.136,29.426,147.136,29.426s-75.669-19.818-141.731-20.418C313.544,670.889,238.476,681.699,238.476,681.699"
					/>
			</g>
		</g>
	</g>
</g>
</svg>
