<?xml version="1.0" encoding="utf-8"?>
<!-- Generator: Adobe Illustrator 16.0.0, SVG Export Plug-In . SVG Version: 6.00 Build 0)  -->
<!DOCTYPE svg PUBLIC "-//W3C//DTD SVG 1.1//EN" "http://www.w3.org/Graphics/SVG/1.1/DTD/svg11.dtd">
<svg version="1.1" id="Layer_1" xmlns="http://www.w3.org/2000/svg" xmlns:xlink="http://www.w3.org/1999/xlink" x="0px" y="0px"
	 width="612px" height="792px" viewBox="0 0 480 792" enable-background="new 0 0 612 792" xml:space="preserve">
<rect x="105.267" y="162.261" fill="none" width="62.022" height="89.05"/>
<rect x="113.235" y="153.945" fill="none" width="27.027" height="31.185"/>
<rect x="389.068" y="231.119" fill="none" width="63.521" height="63.871"/>
<rect x="446.997" y="221.723" fill="none" width="50.608" height="20.812"/>
<rect x="452.59" y="175.209" fill="none" width="37.337" height="36.357"/>
<rect x="235.677" y="69.237" fill="none" width="137.986" height="24.583"/>
<rect x="92.122" y="250.188" fill="none" width="73.335" height="9.694"/>
<rect x="92.122" y="253.361" fill="none" width="73.335" height="9.693"/>
<rect x="167.048" y="561.172" fill="none" width="270.258" height="26.68"/>
<rect x="166.163" y="563.765" fill="none" width="272.823" height="28.082"/>
<rect x="233.835" y="70.94" fill="none" width="141.974" height="25.672"/>
<rect x="61.693" fill="none" width="488.613" height="632.322"/>
<rect x="113.681" y="226.501" fill="none" width="27.224" height="31.411"/>
<rect x="105.653" y="127.838" fill="none" width="398.933" height="539.714"/>
<rect x="61.693" y="76.677" fill="none" width="488.613" height="632.323"/>
<g>
	<defs>
		<rect id="SB_SVGID_1_" x="40" y="107.434" width="446.301" height="577.566"/>
	</defs>
	<clipPath id="SB_SVGID_2_">
		<use xlink:href="#SB_SVGID_1_"  overflow="visible"/>
	</clipPath>
	<g clip-path="url(#SB_SVGID_2_)">
		<defs>
			<rect id="SB_SVGID_3_" x="40" y="107.434" width="446.301" height="577.566"/>
		</defs>
		<clipPath id="SB_SVGID_4_">
			<use xlink:href="#SB_SVGID_3_"  overflow="visible"/>
		</clipPath>
    <g id="MASK">
      <g id="UPPER_BOTTOM_PHASE">
              		<path clip-path="url(#SB_SVGID_4_)" fill="#004D86" d="M404.597,193.891c-6.876-2.413-37.309-14.366-46.945-20.602
			c-10.508-6.798-24.104-17.305-27.812-20.395c-3.198-2.665-6.393-8.078-9.194-10.313c-13.121-1.665-39.415-4.759-55.204-4.992
			c-16.854-0.248-47.393,3.911-60.152,5.774c-2.583,2.536-5.452,7.14-8.322,9.531c-3.708,3.089-17.304,13.597-27.811,20.395
			s-45.732,20.395-48.205,21.012c-0.306,0.076-0.925,0.438-1.792,1.048c0.933,18.72,9.467,51.694,12.299,67.551
			c3.09,17.305,9.271,30.283,9.271,37.699v11.214c1.328,2.963,3.306,8.056,3.708,12.888c0.618,7.416,1.854,34.608,6.797,44.497
			c4.945,9.888,14.214,68.598,15.45,74.162c1.236,5.562-3.09,26.573-3.09,31.517c0,4.945-11.742,41.407-12.36,51.296
			c-0.617,9.889-3.089,23.484-3.089,33.372c0,9.889-4.327,24.721-4.327,24.721s3.708,7.416,8.653,16.686
			c4.943,9.271,13.596,24.104,16.686,32.138c3.09,8.033,15.451,26.573,40.789,35.227c3.263,1.113,7.27,2.001,11.766,2.705
			l-0.024,1.003c0,0,12.624,0.892,29.082,1.256c4.229,0.108,8.478,0.153,12.633,0.149c4.157,0.004,8.404-0.041,12.633-0.149
			c16.458-0.364,29.083-1.256,29.083-1.256l-0.024-1.003c4.496-0.704,8.502-1.592,11.766-2.705
			c25.339-8.653,37.699-27.193,40.79-35.227c3.089-8.034,11.741-22.866,16.685-32.138c4.945-9.27,8.651-16.686,8.651-16.686
			s-4.324-14.832-4.324-24.721c0-9.888-2.472-23.483-3.091-33.372c-0.618-9.889-12.36-46.351-12.36-51.296
			c0-4.943-4.326-25.955-3.09-31.517c1.236-5.563,10.506-64.273,15.45-74.162c4.944-9.889,6.182-37.082,6.798-44.497
			c0.428-5.135,2.633-10.563,3.95-13.418c0.718-4.694,1.52-10.033,2.231-15.01c1.854-12.979,9.27-66.127,13.595-79.106
			C404.731,209.415,404.889,200.12,404.597,193.891"/>
      </g>
    </g>
    <g id="CUSTOM"></g>

	</g>
	<g id="SLEEVES" clip-path="url(#SB_SVGID_2_)">
		<defs>
			<rect id="SB_SVGID_5_" x="40" y="107.434" width="446.301" height="577.566"/>
		</defs>
		<clipPath id="SB_SVGID_6_">
			<use xlink:href="#SB_SVGID_5_"  overflow="visible"/>
		</clipPath>
		<path clip-path="url(#SB_SVGID_6_)" fill="#004D86" d="M131.459,262.9c-2.832-15.857-11.366-48.831-12.299-67.552
			c-6.155,4.318-24.921,21.173-34.67,38.505c-11.124,19.777-8.652,72.925-8.652,75.397s-0.618,10.506-0.618,10.506l-1.854,3.708
			c0,0,21.012,5.562,38.934,5.562c17.923,0,27.811-3.091,27.811-3.091l-0.618-16.686c0,0,0.526,0.977,1.236,2.562v-11.214
			C140.729,293.182,134.549,280.205,131.459,262.9"/>
		<path clip-path="url(#SB_SVGID_6_)" fill="#004D86" d="M451.587,319.757c0,0-0.617-8.035-0.617-10.507
			c0-2.471,2.472-55.62-8.651-75.396c-11.124-19.777-33.991-38.935-36.464-39.553c-0.203-0.051-0.637-0.192-1.258-0.41
			c0.292,6.229,0.135,15.524-2.45,23.276c-4.326,12.979-11.741,66.127-13.595,79.105c-0.712,4.977-1.514,10.316-2.231,15.009
			c0.584-1.269,0.995-2.032,0.995-2.032l-0.618,16.687c0,0,9.888,3.09,27.81,3.09s38.935-5.562,38.935-5.562L451.587,319.757z"/>
	</g>
	<g id="COLLAR" clip-path="url(#SB_SVGID_2_)">
		<defs>
			<rect id="SB_SVGID_7_" x="40" y="107.434" width="446.301" height="577.566"/>
		</defs>
		<clipPath id="SB_SVGID_8_">
			<use xlink:href="#SB_SVGID_7_"  overflow="visible"/>
		</clipPath>
		<path clip-path="url(#SB_SVGID_8_)" fill="#004D86" d="M265.442,137.589c15.789,0.232,42.083,3.326,55.204,4.992
			c-0.448-0.357-0.886-0.64-1.312-0.811c-3.09-1.236-7.416-3.708-7.416-3.708l-4.326-8.035c0,0-17.922-6.797-32.755-6.797h-22.866
			c-14.833,0-32.755,6.797-32.755,6.797l-4.326,8.035c0,0-4.326,2.472-7.416,3.708c-0.699,0.279-1.43,0.853-2.185,1.592
			C218.049,141.5,248.587,137.341,265.442,137.589"/>
	</g>
	<g clip-path="url(#SB_SVGID_2_)">
		<defs>
			<rect id="SB_SVGID_9_" x="40" y="107.434" width="446.301" height="577.566"/>
		</defs>
		<clipPath id="SB_SVGID_10_">
			<use xlink:href="#SB_SVGID_9_"  overflow="visible"/>
		</clipPath>
		<g opacity="0.35" clip-path="url(#SB_SVGID_10_)">
			<g>
				<defs>
					<rect id="SB_SVGID_11_" x="75.138" y="133.561" width="376.535" height="536.036"/>
				</defs>
				<clipPath id="SB_SVGID_12_">
					<use xlink:href="#SB_SVGID_11_"  overflow="visible"/>
				</clipPath>
				<path clip-path="url(#SB_SVGID_12_)" fill="none" stroke="#FFCD72" stroke-miterlimit="10" stroke-dasharray="0.859,0.5" d="
					M145.055,581.793c0,0,32.136,61.182,59.947,72.925c27.81,11.742,79.723,11.124,100.735,5.562
					c21.014-5.562,41.406-22.249,48.205-32.136c6.798-9.889,29.045-46.969,29.045-46.969"/>
				<path clip-path="url(#SB_SVGID_12_)" fill="none" stroke="#FFCD72" stroke-miterlimit="10" stroke-dasharray="0.859,0.5" d="
					M145.055,586.902c0,0,32.136,61.183,59.947,72.924c27.81,11.742,79.723,11.125,100.735,5.563
					c21.014-5.563,41.406-22.249,48.205-32.138c6.798-9.887,29.045-46.967,29.045-46.967"/>
				<path clip-path="url(#SB_SVGID_12_)" fill="none" stroke="#FFCD72" stroke-miterlimit="10" stroke-dasharray="0.859,0.5" d="
					M75.205,316.721c0,0,16.804,3.15,34.132,3.15s30.63-1.4,30.63-1.4"/>
				<path clip-path="url(#SB_SVGID_12_)" fill="none" stroke="#FFCD72" stroke-miterlimit="10" stroke-dasharray="0.859,0.5" d="
					M75.205,313.801c0,0,16.804,3.151,34.132,3.151s30.63-1.4,30.63-1.4"/>
				<path clip-path="url(#SB_SVGID_12_)" fill="none" stroke="#FFCD72" stroke-miterlimit="10" stroke-dasharray="0.859,0.5" d="
					M451.606,316.721c0,0-16.804,3.15-34.132,3.15c-17.327,0-30.63-1.4-30.63-1.4"/>
				<path clip-path="url(#SB_SVGID_12_)" fill="none" stroke="#FFCD72" stroke-miterlimit="10" stroke-dasharray="0.859,0.5" d="
					M451.606,313.801c0,0-16.804,3.151-34.132,3.151c-17.327,0-30.63-1.4-30.63-1.4"/>
				<path clip-path="url(#SB_SVGID_12_)" fill="none" stroke="#FFCD72" stroke-miterlimit="10" stroke-dasharray="0.859,0.5" d="
					M214.753,138.403c0,0,29.01-4.783,50.689-4.463c21.678,0.319,46.543,4.145,46.543,4.145"/>
				<path clip-path="url(#SB_SVGID_12_)" fill="none" stroke="#FFCD72" stroke-miterlimit="10" stroke-dasharray="0.859,0.5" d="
					M204.648,143.803c0,0,39.115-6.532,60.794-6.213c21.678,0.319,55.647,5.018,55.647,5.018"/>
				<path clip-path="url(#SB_SVGID_12_)" fill="none" stroke="#FFCD72" stroke-miterlimit="10" stroke-dasharray="0.859,0.5" d="
					M140.569,311.649c0,0,0.159-3.635,0.159-11.05c0-7.417-6.179-20.396-9.27-37.699c-3.089-17.304-12.787-49.909-12.169-67.214"/>
				<path clip-path="url(#SB_SVGID_12_)" fill="none" stroke="#FFCD72" stroke-miterlimit="10" stroke-dasharray="0.859,0.5" d="
					M404.597,193.891c0,0,1.877,10.299-2.45,23.276c-4.325,12.979-11.741,66.127-13.595,79.106
					c-1.854,12.978-4.327,28.428-4.327,28.428"/>
			</g>
		</g>
	</g>
	<g clip-path="url(#SB_SVGID_2_)">
		<defs>
			<rect id="SB_SVGID_13_" x="40" y="107.434" width="446.301" height="577.566"/>
		</defs>
		<clipPath id="SB_SVGID_14_">
			<use xlink:href="#SB_SVGID_13_"  overflow="visible"/>
		</clipPath>
		<path clip-path="url(#SB_SVGID_14_)" d="M271.618,147.579c3.594,0,6.505,3.118,6.505,6.96c0,3.843-2.911,6.96-6.505,6.96h-12.617
			c-3.59,0-6.505-3.117-6.505-6.96c0-3.843,2.915-6.96,6.505-6.96H271.618"/>
		<path clip-path="url(#SB_SVGID_14_)" fill="none" stroke="#000000" stroke-width="6.078" d="M271.618,147.579
			c3.594,0,6.505,3.118,6.505,6.96c0,3.843-2.911,6.96-6.505,6.96h-12.617c-3.59,0-6.505-3.117-6.505-6.96
			c0-3.843,2.915-6.96,6.505-6.96H271.618"/>
		<path clip-path="url(#SB_SVGID_14_)" d="M271.132,148.693c3.265,0,5.909,2.617,5.909,5.846c0,3.23-2.644,5.847-5.911,5.847h-11.459
			c-3.26,0-5.906-2.617-5.906-5.847c0-3.229,2.646-5.846,5.906-5.846H271.132"/>
		<path clip-path="url(#SB_SVGID_14_)" fill="none" stroke="#FFFFFF" stroke-width="0.658" d="M271.132,148.693
			c3.265,0,5.909,2.617,5.909,5.846c0,3.23-2.644,5.847-5.911,5.847h-11.459c-3.26,0-5.906-2.617-5.906-5.847
			c0-3.229,2.646-5.846,5.906-5.846H271.132"/>
		<path clip-path="url(#SB_SVGID_14_)" fill="#FFFFFF" d="M255.31,154.503c0-2.437,1.807-4.433,4.094-4.593v9.187
			C257.116,158.936,255.31,156.938,255.31,154.503"/>
		<polygon clip-path="url(#SB_SVGID_14_)" fill="#FFFFFF" points="263.945,153.9 260.127,149.898 263.945,149.898 		"/>
		<polygon clip-path="url(#SB_SVGID_14_)" fill="#FFFFFF" points="263.945,155.104 260.127,159.108 263.945,159.108 		"/>
		<polygon clip-path="url(#SB_SVGID_14_)" fill="#FFFFFF" points="268.736,153.9 272.558,149.898 268.736,149.898 		"/>
		<polygon clip-path="url(#SB_SVGID_14_)" fill="#FFFFFF" points="268.736,155.104 272.558,159.108 268.736,159.108 		"/>
		<rect x="264.756" y="149.898" clip-path="url(#SB_SVGID_14_)" fill="#FFFFFF" width="3.17" height="9.21"/>
		<path clip-path="url(#SB_SVGID_14_)" fill="#FFFFFF" d="M259.053,146.492v0.563h0.531v-0.189l0.195,0.04v0.107
			c0,0.166-0.047,0.209-0.209,0.209h-0.503c-0.161,0-0.209-0.043-0.209-0.209v-0.471c0-0.166,0.048-0.208,0.209-0.208h0.503
			c0.163,0,0.209,0.043,0.209,0.208v0.085l-0.195,0.033v-0.169H259.053z"/>
		<path clip-path="url(#SB_SVGID_14_)" fill="#FFFFFF" d="M260.299,146.333h0.625c0.159,0,0.209,0.043,0.209,0.208v0.47
			c0,0.166-0.05,0.21-0.209,0.21h-0.625c-0.161,0-0.211-0.044-0.211-0.21v-0.47C260.088,146.377,260.138,146.333,260.299,146.333
			 M260.936,146.492h-0.649v0.563h0.649V146.492z"/>
		<path clip-path="url(#SB_SVGID_14_)" fill="#FFFFFF" d="M261.465,146.333h0.16l0.397,0.539l0.393-0.539h0.158v0.889h-0.182v-0.55
			c0-0.017,0-0.048,0.002-0.094c-0.015,0.039-0.033,0.072-0.048,0.092l-0.316,0.444h-0.042l-0.317-0.445
			c-0.021-0.028-0.037-0.057-0.051-0.091c0.004,0.037,0.005,0.067,0.005,0.094v0.55h-0.16V146.333z"/>
		<path clip-path="url(#SB_SVGID_14_)" fill="#FFFFFF" d="M262.903,146.334h0.726c0.13,0,0.192,0.048,0.192,0.172v0.198
			c0,0.124-0.063,0.172-0.192,0.172h-0.53v0.346h-0.196V146.334z M263.1,146.487v0.234h0.444c0.06,0,0.086-0.011,0.086-0.07v-0.093
			c0-0.059-0.026-0.071-0.086-0.071H263.1z"/>
		<path clip-path="url(#SB_SVGID_14_)" fill="#FFFFFF" d="M264.043,146.334h0.722c0.132,0,0.193,0.048,0.193,0.172v0.209
			c0,0.123-0.061,0.172-0.193,0.172h-0.109l0.389,0.335h-0.28l-0.342-0.335h-0.184v0.335h-0.196V146.334z M264.239,146.487v0.247
			h0.441c0.062,0,0.087-0.013,0.087-0.07v-0.105c0-0.059-0.025-0.071-0.087-0.071H264.239z"/>
		<polygon clip-path="url(#SB_SVGID_14_)" fill="#FFFFFF" points="265.276,146.333 266.142,146.333 266.142,146.485 265.474,146.485 
			265.474,146.683 265.864,146.683 265.864,146.834 265.474,146.834 265.474,147.055 266.154,147.055 266.154,147.222 
			265.276,147.222 		"/>
		<path clip-path="url(#SB_SVGID_14_)" fill="#FFFFFF" d="M266.617,146.487v0.193h0.526c0.161,0,0.21,0.042,0.21,0.209v0.124
			c0,0.165-0.05,0.209-0.21,0.209h-0.522c-0.158,0-0.212-0.044-0.212-0.209v-0.026l0.175-0.035v0.104h0.598v-0.203h-0.528
			c-0.159,0-0.21-0.045-0.21-0.211v-0.099c0-0.165,0.051-0.208,0.21-0.208h0.481c0.151,0,0.208,0.041,0.208,0.194v0.019
			l-0.172,0.042v-0.103H266.617z"/>
		<path clip-path="url(#SB_SVGID_14_)" fill="#FFFFFF" d="M267.858,146.487v0.193h0.53c0.158,0,0.212,0.042,0.212,0.209v0.124
			c0,0.165-0.054,0.209-0.212,0.209h-0.522c-0.16,0-0.211-0.044-0.211-0.209v-0.026l0.174-0.035v0.104h0.598v-0.203h-0.529
			c-0.156,0-0.21-0.045-0.21-0.211v-0.099c0-0.165,0.054-0.208,0.21-0.208h0.481c0.151,0,0.208,0.041,0.208,0.194v0.019
			l-0.172,0.042v-0.103H267.858z"/>
		<rect x="268.928" y="146.333" clip-path="url(#SB_SVGID_14_)" fill="#FFFFFF" width="0.199" height="0.889"/>
		<path clip-path="url(#SB_SVGID_14_)" fill="#FFFFFF" d="M269.668,146.333h0.623c0.162,0,0.213,0.043,0.213,0.208v0.47
			c0,0.166-0.051,0.21-0.213,0.21h-0.623c-0.159,0-0.209-0.044-0.209-0.21v-0.47C269.459,146.377,269.509,146.333,269.668,146.333
			 M270.306,146.492h-0.653v0.563h0.653V146.492z"/>
		<path clip-path="url(#SB_SVGID_14_)" fill="#FFFFFF" d="M270.833,146.333h0.135l0.597,0.522c0.035,0.032,0.065,0.061,0.095,0.098
			c-0.002-0.074-0.006-0.126-0.006-0.152v-0.468h0.175v0.889h-0.132l-0.622-0.55c-0.025-0.021-0.049-0.044-0.072-0.071
			c0.009,0.068,0.009,0.115,0.009,0.141v0.48h-0.178V146.333z"/>
		<path clip-path="url(#SB_SVGID_14_)" fill="#FFFFFF" d="M262.948,162.043v0.564h0.614v-0.198h-0.321v-0.152h0.515v0.306
			c0,0.167-0.052,0.21-0.211,0.21h-0.584c-0.161,0-0.211-0.043-0.211-0.21v-0.467c0-0.168,0.051-0.209,0.211-0.209h0.584
			c0.155,0,0.211,0.041,0.211,0.2v0.02l-0.194,0.038v-0.101H262.948z"/>
		<polygon clip-path="url(#SB_SVGID_14_)" fill="#FFFFFF" points="264.09,161.886 264.958,161.886 264.958,162.038 264.289,162.038 
			264.289,162.236 264.678,162.236 264.678,162.386 264.289,162.386 264.289,162.607 264.966,162.607 264.966,162.773 
			264.09,162.773 		"/>
		<path clip-path="url(#SB_SVGID_14_)" fill="#FFFFFF" d="M265.566,161.886h0.191l0.484,0.887h-0.221l-0.103-0.194h-0.535l-0.1,0.194
			h-0.197L265.566,161.886z M265.835,162.42l-0.182-0.362l-0.187,0.362H265.835z"/>
		<path clip-path="url(#SB_SVGID_14_)" fill="#FFFFFF" d="M266.434,161.886h0.723c0.132,0,0.191,0.047,0.191,0.171v0.208
			c0,0.124-0.059,0.172-0.191,0.172h-0.108l0.388,0.335h-0.283l-0.34-0.335h-0.188v0.335h-0.192V161.886z M266.625,162.038v0.249
			h0.443c0.06,0,0.088-0.011,0.088-0.069v-0.107c0-0.058-0.028-0.072-0.088-0.072H266.625z"/>
		<path clip-path="url(#SB_SVGID_14_)" fill="#FFFFFF" d="M268.554,161.727c0.11,0.114,0.172,0.271,0.172,0.436
			c0,0.169-0.059,0.321-0.174,0.436c-0.117,0.119-0.263,0.185-0.418,0.185c-0.157,0-0.304-0.065-0.417-0.187
			c-0.113-0.119-0.173-0.27-0.173-0.434s0.063-0.321,0.178-0.444c0.107-0.115,0.253-0.175,0.412-0.175
			C268.294,161.543,268.442,161.607,268.554,161.727 M268.5,161.783c-0.096-0.104-0.224-0.158-0.363-0.158
			c-0.14,0-0.268,0.051-0.361,0.153c-0.099,0.105-0.156,0.242-0.156,0.384s0.055,0.275,0.149,0.376
			c0.1,0.107,0.228,0.161,0.359,0.161c0.14,0,0.266-0.054,0.368-0.159c0.098-0.098,0.149-0.229,0.149-0.373
			C268.646,162.018,268.599,161.884,268.5,161.783 M268.429,161.992c0,0.1-0.057,0.168-0.153,0.189l0.149,0.319h-0.143l-0.133-0.299
			h-0.125v0.299h-0.126v-0.701h0.252C268.339,161.799,268.429,161.864,268.429,161.992 M268.024,161.886v0.232h0.105
			c0.116,0,0.167-0.03,0.167-0.111c0-0.089-0.051-0.121-0.171-0.121H268.024z"/>
	</g>
	<g clip-path="url(#SB_SVGID_2_)">
		<defs>
			<rect id="SB_SVGID_15_" x="40" y="107.434" width="446.301" height="577.566"/>
		</defs>
		<clipPath id="SB_SVGID_16_">
			<use xlink:href="#SB_SVGID_15_"  overflow="visible"/>
		</clipPath>
		<g opacity="0.12" clip-path="url(#SB_SVGID_16_)">
			<g>
				<defs>
					<rect id="SB_SVGID_17_" x="77.854" y="225.505" width="357.404" height="271.435"/>
				</defs>
				<clipPath id="SB_SVGID_18_">
					<use xlink:href="#SB_SVGID_17_"  overflow="visible"/>
				</clipPath>
				<path clip-path="url(#SB_SVGID_18_)" fill="#897F76" d="M137.608,299.861c0,0-11.232-2.022-19.319-4.717
					c-8.086-2.696-15.5-4.718-21.79-10.334c-6.29-5.615-18.645-20.442-18.645-20.442s21.79,18.87,23.587,20.667
					C103.239,286.832,137.608,299.861,137.608,299.861"/>
				<path clip-path="url(#SB_SVGID_18_)" fill="#897F76" d="M128.173,291.1l-13.704-6.514l-2.246-4.942c0,0,15.95,11.457,14.153,8.313
					c-1.797-3.146-24.036-28.53-28.081-33.697c-4.042-5.167-13.703-16.174-13.703-16.174s11.906,7.862,13.254,10.558
					c1.348,2.695,22.688,28.753,25.159,31.898c2.472,3.145,8.986,8.537,8.537,9.66C131.094,291.324,128.173,291.1,128.173,291.1"/>
				<path clip-path="url(#SB_SVGID_18_)" fill="#897F76" d="M112.449,287.955c0,0-15.275-15.95-17.747-18.87
					c-2.471-2.92-12.805-11.008-12.805-11.008l19.319,21.116L112.449,287.955z"/>
				<path clip-path="url(#SB_SVGID_18_)" fill="#897F76" d="M130.645,278.071c0,0-4.494-11.682-6.74-16.849
					c-2.247-5.166-6.066-24.935-9.884-24.485c-3.819,0.449-1.348,8.311,1.347,13.927c2.697,5.617,5.617,10.108,5.617,10.108
					s-6.515-2.246-10.334-8.311c-3.818-6.065-12.804-26.508-15.275-25.834c-2.471,0.674,1.572,11.681,5.616,18.195
					c4.043,6.515,13.928,15.949,19.095,21.116C125.253,271.107,130.645,278.071,130.645,278.071"/>
				<path clip-path="url(#SB_SVGID_18_)" fill="#897F76" d="M388.981,282.339c0,0,10.559-19.769,17.072-30.776
					c6.516-11.007,18.421-26.058,18.421-26.058s-19.769,34.819-20.892,36.167C402.46,263.02,388.981,282.339,388.981,282.339"/>
				<path clip-path="url(#SB_SVGID_18_)" fill="#897F76" d="M399.09,269.759c0,0,8.087-11.906,17.073-19.095
					c8.985-7.188,19.095-11.007,19.095-11.007s-13.479,7.189-20.443,16.173c-6.963,8.987-18.869,22.465-20.666,27.632
					c-1.797,5.167-1.349,11.008-1.349,11.008s5.393-1.348,3.146,0.674c-2.246,2.022,1.796,7.188-1.349,8.312
					s-4.941,1.573-4.941,2.92c0,1.349-4.492-0.898-4.492-0.898s2.471-17.972,3.368-19.993
					C389.432,283.462,399.09,269.759,399.09,269.759"/>
				<path clip-path="url(#SB_SVGID_18_)" fill="#897F76" d="M396.395,287.281c0,0-0.226-7.862,5.615-10.334
					c5.842-2.471,12.132-3.37,17.073-5.841c4.942-2.471,8.312-5.391,8.312-5.391s-6.29,8.537-14.152,11.232
					c-7.862,2.696-10.782,2.696-12.58,4.942C398.865,284.136,396.395,287.281,396.395,287.281"/>
				<path clip-path="url(#SB_SVGID_18_)" fill="#897F76" d="M177.505,490.741c0,0,57.246-12.397,82.406-11.668
					c25.159,0.729,89.333,17.866,89.333,17.866s-45.942-12.033-86.051-12.396C223.083,484.177,177.505,490.741,177.505,490.741"/>
			</g>
		</g>
	</g>
</g>
</svg>
