<?xml version="1.0" encoding="utf-8"?>
<!-- Generator: Adobe Illustrator 16.0.0, SVG Export Plug-In . SVG Version: 6.00 Build 0)  -->
<!DOCTYPE svg PUBLIC "-//W3C//DTD SVG 1.1//EN" "http://www.w3.org/Graphics/SVG/1.1/DTD/svg11.dtd">
<svg version="1.1" id="Layer_1" xmlns="http://www.w3.org/2000/svg" xmlns:xlink="http://www.w3.org/1999/xlink" x="0px" y="0px"
	 width="800.453px" height="1035.881px" viewBox="0 0 634 1035.881" enable-background="new 0 0 800.453 1035.881"
	 xml:space="preserve">
<g>
	<defs>
		<rect id="SVGID_1_" x="-11.989" y="8.005" width="793.495" height="1026.875"/>
	</defs>
	<clipPath id="SVGID_2_">
		<use xlink:href="#SVGID_1_"  overflow="visible"/>
	</clipPath>
	<g clip-path="url(#SVGID_2_)">
		<defs>
			<rect id="SVGID_3_" x="-11.989" y="8.005" width="793.495" height="1026.875"/>
		</defs>
		<clipPath id="SVGID_4_">
			<use xlink:href="#SVGID_3_"  overflow="visible"/>
		</clipPath>
      <g id="MASK">
      <g id="UPPER_BOTTOM_PHASE">
		<path clip-path="url(#SVGID_4_)" fill="#004D86" d="M633.632,191.018c0,0-29.668-9.889-71.422-26.371
			c-26.354-10.402-49.635-26.054-64.609-37.292c-7.421,8.091-38.454,36.153-112.464,36.886
			c-73.382,0.728-108.724-30.663-118.129-40.69c-14.461,11.246-40.099,29.457-69.591,41.097
			c-41.753,16.482-71.419,26.371-71.419,26.371s-0.973,0.704-2.486,1.75v0.006c0.018,0.84,0.041,1.768,0.069,2.76
			c0.003,0.079,0.006,0.16,0.008,0.241c0.014,0.464,0.029,0.942,0.046,1.432c0.001,0.029,0.001,0.057,0.002,0.085
			c0.019,0.514,0.038,1.044,0.06,1.583c0.004,0.105,0.008,0.213,0.011,0.319c0.019,0.435,0.038,0.875,0.057,1.324
			c0.006,0.136,0.012,0.271,0.019,0.41c0.026,0.547,0.052,1.103,0.082,1.666c0.002,0.072,0.006,0.147,0.01,0.217
			c0.026,0.49,0.053,0.982,0.082,1.478c0.011,0.176,0.021,0.351,0.031,0.526c0.027,0.471,0.057,0.946,0.089,1.423
			c0.008,0.112,0.014,0.221,0.021,0.331c0.038,0.577,0.08,1.156,0.123,1.737c0.012,0.157,0.024,0.314,0.036,0.47
			c0.034,0.447,0.069,0.891,0.105,1.337c0.016,0.176,0.03,0.353,0.046,0.528c0.049,0.582,0.1,1.161,0.156,1.739
			c0.005,0.063,0.011,0.128,0.018,0.192c0.051,0.518,0.103,1.034,0.157,1.548c0.019,0.173,0.038,0.346,0.056,0.518
			c0.051,0.455,0.103,0.908,0.156,1.355c0.015,0.128,0.029,0.257,0.045,0.386c0.068,0.555,0.141,1.104,0.214,1.646
			c0.018,0.132,0.037,0.26,0.056,0.39c0.061,0.428,0.123,0.849,0.188,1.264c0.022,0.151,0.046,0.302,0.069,0.453
			c0.084,0.524,0.172,1.041,0.263,1.543c2.338,12.865,15.204,60.229,18.127,74.263s16.373,88.297,18.127,97.068
			c0.121,0.601,0.229,1.233,0.328,1.884c0.009,0.054,0.016,0.11,0.024,0.165c0.092,0.608,0.174,1.233,0.248,1.872
			c0.009,0.069,0.017,0.137,0.024,0.205c0.073,0.646,0.139,1.306,0.197,1.971c0.005,0.048,0.01,0.096,0.014,0.146
			c0.061,0.709,0.114,1.426,0.159,2.142c0.002,0.011,0.002,0.021,0.002,0.031c0.045,0.709,0.083,1.417,0.113,2.121
			c0.004,0.059,0.005,0.116,0.008,0.174c0.031,0.667,0.055,1.325,0.073,1.973c0.002,0.059,0.004,0.118,0.006,0.175
			c0.018,0.674,0.034,1.335,0.044,1.978c0,0.01,0,0.022,0,0.033c0.012,0.671,0.019,1.32,0.021,1.941
			c0.035-0.087,0.056-0.139,0.056-0.139s6.593,35.16,5.493,49.445c-1.098,14.285,6.593,103.284,12.088,130.754
			c5.492,27.468,12.085,97.792,6.591,127.459c-5.494,29.665-18.68,108.779-21.976,142.841c-3.297,34.063-3.297,59.334-3.297,59.334
			s-4.394,4.396-4.394,8.792c0,4.393,2.198,14.282,2.198,14.282v7.692c0,0,2.196,16.481,47.247,19.778
			c45.05,3.295,98.89,4.394,115.371,7.69c4.288,0.858,9.62,1.715,15.41,2.515l-0.026,0.782c0,0,21.975,3.294,36.26,3.294
			c1.618,0,3.471-0.042,5.492-0.122c2.023,0.08,3.877,0.122,5.495,0.122c14.284,0,36.259-3.294,36.259-3.294l-0.026-0.782
			c5.789-0.8,11.122-1.656,15.409-2.515c16.482-3.297,70.322-4.396,115.373-7.69c45.05-3.297,47.247-19.778,47.247-19.778v-7.692
			c0,0,2.198-9.89,2.198-14.282c0-4.396-4.396-8.792-4.396-8.792s0-25.271-3.297-59.334
			c-3.296-34.062-16.481-113.176-21.975-142.841c-5.495-29.667,1.098-99.991,6.592-127.459
			c5.494-27.471,13.186-116.47,12.087-130.754c-0.945-12.289,3.799-40.007,5.143-47.519c-0.025-5.043,0.143-13.005,1.262-18.598
			c1.754-8.771,15.202-83.034,18.127-97.068c2.924-14.034,15.788-61.398,18.127-74.263c1.65-9.079,2.135-22.226,2.278-29.182
			C634.431,191.597,633.632,191.018,633.632,191.018"/>
	</g>
                    <g id="SLEEVES">
		<path clip-path="url(#SVGID_6_)" fill="#FDBB2D" d="M622.814,351.583c-0.007,0.034-0.012,0.055-0.012,0.055
			S622.809,351.613,622.814,351.583"/>
		<path clip-path="url(#SVGID_6_)" fill="#004D86" d="M163.278,407.872c0-0.011,0-0.023,0-0.033
			c-0.01-0.642-0.026-1.303-0.045-1.978c-0.001-0.058-0.004-0.117-0.005-0.175c-0.02-0.648-0.043-1.307-0.073-1.973
			c-0.002-0.058-0.005-0.117-0.007-0.174c-0.031-0.703-0.068-1.412-0.114-2.121c0-0.01-0.001-0.021-0.001-0.03
			c-0.047-0.716-0.1-1.434-0.161-2.143c-0.003-0.048-0.007-0.098-0.013-0.146c-0.058-0.665-0.123-1.324-0.197-1.971
			c-0.007-0.067-0.016-0.136-0.023-0.205c-0.073-0.639-0.157-1.264-0.247-1.872c-0.008-0.055-0.016-0.111-0.025-0.165
			c-0.098-0.651-0.208-1.283-0.328-1.884c-1.754-8.771-15.204-83.034-18.127-97.068c-2.922-14.033-15.789-61.398-18.126-74.263
			c-0.092-0.502-0.179-1.019-0.264-1.543c-0.023-0.15-0.046-0.301-0.069-0.451c-0.065-0.417-0.127-0.837-0.187-1.266
			c-0.019-0.13-0.038-0.257-0.056-0.39c-0.075-0.541-0.147-1.091-0.214-1.646c-0.017-0.127-0.031-0.257-0.045-0.386
			c-0.054-0.447-0.106-0.9-0.156-1.355c-0.019-0.172-0.037-0.345-0.057-0.518c-0.054-0.514-0.106-1.028-0.155-1.548
			c-0.006-0.063-0.014-0.127-0.02-0.192c-0.055-0.578-0.106-1.157-0.155-1.739c-0.016-0.175-0.03-0.352-0.044-0.528
			c-0.036-0.446-0.072-0.89-0.106-1.337c-0.012-0.156-0.024-0.312-0.036-0.469c-0.043-0.583-0.083-1.161-0.123-1.739
			c-0.007-0.11-0.012-0.219-0.02-0.331c-0.031-0.477-0.062-0.952-0.09-1.423c-0.01-0.177-0.02-0.35-0.029-0.526
			c-0.03-0.496-0.056-0.988-0.082-1.478c-0.004-0.07-0.008-0.145-0.012-0.217c-0.028-0.563-0.055-1.117-0.08-1.666
			c-0.007-0.139-0.013-0.274-0.02-0.41c-0.02-0.449-0.038-0.89-0.056-1.324c-0.003-0.106-0.009-0.214-0.012-0.319
			c-0.021-0.54-0.042-1.069-0.059-1.583c-0.001-0.028-0.002-0.055-0.002-0.083c-0.017-0.493-0.033-0.969-0.046-1.433
			c-0.003-0.08-0.006-0.161-0.007-0.241c-0.03-0.994-0.053-1.919-0.071-2.76v-0.006c-3.883,2.676-11.449,7.657-16.194,9.239
			c-6.594,2.198-43.951,30.766-54.939,69.223c-10.986,38.456-13.184,132.952-13.184,132.952l-3.297,16.481l-3.296,9.889
			c0,0,38.458,9.888,71.421,12.086c32.964,2.198,53.839,2.198,53.839,2.198s2.198-2.198,1.1-8.79c-1.1-6.592-2.198-8.79-1.1-12.087
			c1.027-3.081,4.934-12.88,5.439-14.145C163.295,409.193,163.289,408.543,163.278,407.872"/>
		<path clip-path="url(#SVGID_6_)" fill="#004D86" d="M723.73,420.663l-3.295-16.48c0,0-2.197-94.496-13.186-132.954
			c-10.987-38.457-48.347-67.024-54.938-69.223c-4.907-1.635-12.85-6.918-16.596-9.515c-0.144,6.956-0.628,20.103-2.278,29.182
			c-2.339,12.864-15.203,60.229-18.127,74.263c-2.925,14.034-16.373,88.297-18.127,97.068c-1.119,5.592-1.286,13.557-1.262,18.598
			c0.219-1.22,0.352-1.927,0.352-1.927s4.395,10.988,5.494,14.284c1.099,3.298,0,5.495-1.1,12.088c-1.099,6.592,1.1,8.789,1.1,8.789
			s20.876,0,53.842-2.197c32.962-2.198,71.418-12.086,71.418-12.086L723.73,420.663z"/>
      </g>

        <g id="BODY">
        <path clip-path="url(#SVGID_10_)" fill="#FFFFFF" d="M303.154,541.188c23.932,10.213,51.398,20.386,83.104,30.669
			c31.706-10.283,59.173-20.456,83.104-30.669c47.658-37.269,96.537-99.647,130.918-164.733
			c4.649-25.183,12.826-69.946,15.03-80.519c1.718-8.249,6.869-28.006,11.301-45.51c-80.233-34.111-141.281-54.124-240.788-54.388
			v-15.212l-0.001,15.212c-104.08,0.276-166.1,22.166-251.994,59.188c4.118,16.187,8.52,33.209,10.084,40.709
			c1.076,5.175,3.586,18.546,6.415,33.8C183.232,410.362,244.132,495.031,303.154,541.188"/>
        </g>
         <g id="INNER_BODY">
		<path clip-path="url(#SVGID_12_)" fill="#FDBB2D" d="M590.779,459.12c-0.945-12.289,3.799-40.006,5.143-47.519
			c-0.024-5.043,0.143-13.006,1.262-18.598c0.431-2.163,1.576-8.309,3.097-16.549c-34.381,65.085-83.26,127.464-130.919,164.733
			c57.867-24.693,95.048-49.613,121.511-76.827C590.9,462.126,590.872,460.344,590.779,459.12"/>
		<path clip-path="url(#SVGID_12_)" fill="#FDBB2D" d="M303.154,541.188c-59.022-46.157-119.922-130.825-152.827-211.452
			c4.837,26.105,10.604,57.73,11.711,63.267c0.119,0.602,0.229,1.235,0.328,1.885c0.008,0.055,0.016,0.11,0.024,0.165
			c0.09,0.607,0.173,1.233,0.247,1.872c0.007,0.069,0.016,0.137,0.024,0.206c0.073,0.647,0.139,1.304,0.196,1.971
			c0.005,0.048,0.009,0.096,0.013,0.144c0.063,0.71,0.116,1.428,0.161,2.143c0,0.011,0.002,0.021,0.002,0.032
			c0.045,0.708,0.083,1.417,0.114,2.12c0.003,0.058,0.005,0.116,0.007,0.174c0.03,0.667,0.054,1.326,0.073,1.974
			c0.002,0.059,0.003,0.117,0.006,0.175c0.018,0.673,0.033,1.336,0.044,1.976c0,0.012,0,0.023,0,0.035
			c0.011,0.671,0.017,1.32,0.021,1.941c0.035-0.088,0.056-0.139,0.056-0.139s4.481,23.914,5.437,40.31
			C195.831,482.925,235.255,512.211,303.154,541.188"/>
		<path clip-path="url(#SVGID_12_)" fill="#FDBB2D" d="M385.823,180.825c-0.09,0-0.175,0.002-0.265,0.002
			c-0.089,0-0.173-0.002-0.264-0.002v0.005c-105.27,0.354-168.032,22.982-254.951,60.569c1.084,4.361,2.271,9.055,3.485,13.826
			c85.781-36.974,147.756-58.853,251.59-59.184c99.385,0.291,160.942,20.298,241.19,54.387c1.239-4.897,2.424-9.617,3.459-13.859
			c-81.303-34.692-143.552-55.399-244.245-55.739V180.825z"/>
	</g>

          </g>
     <g id="CUSTOM"></g>
    </g>
  
	<g clip-path="url(#SVGID_2_)">
		<defs>
			<rect id="SVGID_5_" x="-11.989" y="8.005" width="793.495" height="1026.875"/>
		</defs>
		<clipPath id="SVGID_6_">
			<use xlink:href="#SVGID_5_"  overflow="visible"/>
		</clipPath>    
	</g>
	<g id="COLLAR" clip-path="url(#SVGID_2_)">
		<defs>
			<rect id="SVGID_7_" x="-11.989" y="8.005" width="793.495" height="1026.875"/>
		</defs>
		<clipPath id="SVGID_8_">
			<use xlink:href="#SVGID_7_"  overflow="visible"/>
		</clipPath>
		<path clip-path="url(#SVGID_8_)" fill="#004D86" d="M385.138,164.24c74.01-0.732,105.042-28.794,112.463-36.885
			c-8.751-6.566-14.674-11.63-16.7-13.251c-5.494-4.396-5.494-7.691-10.988-10.988c-5.494-3.296-7.69-13.185-18.679-18.678
			c-6.994-3.497-38.465-4.769-60.423-5.23l-0.01-0.265c0,0-4.318,0-10.987,0.082c-6.668-0.082-10.989-0.082-10.989-0.082
			l-0.008,0.265c-21.959,0.461-53.431,1.733-60.425,5.23c-10.988,5.494-13.184,15.382-18.679,18.678
			c-5.494,3.297-5.494,6.593-10.987,10.988c-1.613,1.291-5.707,4.771-11.718,9.447C276.413,133.578,311.753,164.968,385.138,164.24"
			/>
	</g>
	<g clip-path="url(#SVGID_2_)">
		<defs>
			<rect id="SVGID_9_" x="-11.989" y="8.005" width="793.495" height="1026.875"/>
		</defs>
		<clipPath id="SVGID_10_">
			<use xlink:href="#SVGID_9_"  overflow="visible"/>
		</clipPath>
		
	</g>
	<g clip-path="url(#SVGID_2_)">
		<defs>
			<rect id="SVGID_11_" x="-11.989" y="8.005" width="793.495" height="1026.875"/>
		</defs>
		<clipPath id="SVGID_12_">
			<use xlink:href="#SVGID_11_"  overflow="visible"/>
		</clipPath>
    
    	</g>
	<g clip-path="url(#SVGID_2_)">
		<defs>
			<rect id="SVGID_13_" x="-11.989" y="8.005" width="793.495" height="1026.875"/>
		</defs>
		<clipPath id="SVGID_14_">
			<use xlink:href="#SVGID_13_"  overflow="visible"/>
		</clipPath>
		<g opacity="0.35" clip-path="url(#SVGID_14_)">
			<g>
				<defs>
					<rect id="SVGID_15_" x="270.556" y="120.445" width="224.086" height="39.92"/>
				</defs>
				<clipPath id="SVGID_16_">
					<use xlink:href="#SVGID_15_"  overflow="visible"/>
				</clipPath>
				<path clip-path="url(#SVGID_16_)" fill="none" stroke="#5C7BA8" stroke-miterlimit="10" stroke-dasharray="0.859,0.859" d="
					M494.102,125.128c0,0-22.409,33.718-108.912,34.575c-87.301,0.863-114.097-38.896-114.097-38.896"/>
			</g>
		</g>
		<g opacity="0.35" clip-path="url(#SVGID_14_)">
			<g>
				<defs>
					<rect id="SVGID_17_" x="37.898" y="408.751" width="119.963" height="15.857"/>
				</defs>
				<clipPath id="SVGID_18_">
					<use xlink:href="#SVGID_17_"  overflow="visible"/>
				</clipPath>
				<path clip-path="url(#SVGID_18_)" fill="none" stroke="#5C7BA8" stroke-miterlimit="10" stroke-dasharray="0.859,0.859" d="
					M38.071,409.376c0,0,27.484,7.601,61.984,11.11c34.5,3.508,57.806,3.474,57.806,3.474"/>
			</g>
		</g>
		<g opacity="0.35" clip-path="url(#SVGID_14_)">
			<g>
				<defs>
					<rect id="SVGID_19_" x="37.898" y="413.941" width="119.963" height="15.856"/>
				</defs>
				<clipPath id="SVGID_20_">
					<use xlink:href="#SVGID_19_"  overflow="visible"/>
				</clipPath>
				<path clip-path="url(#SVGID_20_)" fill="none" stroke="#5C7BA8" stroke-miterlimit="10" stroke-dasharray="0.859,0.859" d="
					M38.071,414.566c0,0,27.484,7.602,61.984,11.111c34.5,3.508,57.806,3.473,57.806,3.473"/>
			</g>
		</g>
		<g opacity="0.35" clip-path="url(#SVGID_14_)">
			<g>
				<defs>
					<rect id="SVGID_21_" x="602.524" y="408.751" width="119.963" height="15.857"/>
				</defs>
				<clipPath id="SVGID_22_">
					<use xlink:href="#SVGID_21_"  overflow="visible"/>
				</clipPath>
				<path clip-path="url(#SVGID_22_)" fill="none" stroke="#5C7BA8" stroke-miterlimit="10" stroke-dasharray="0.859,0.859" d="
					M722.314,409.376c0,0-27.482,7.601-61.983,11.11c-34.499,3.508-57.805,3.474-57.805,3.474"/>
			</g>
		</g>
		<g opacity="0.35" clip-path="url(#SVGID_14_)">
			<g>
				<defs>
					<rect id="SVGID_23_" x="602.524" y="413.941" width="119.963" height="15.856"/>
				</defs>
				<clipPath id="SVGID_24_">
					<use xlink:href="#SVGID_23_"  overflow="visible"/>
				</clipPath>
				<path clip-path="url(#SVGID_24_)" fill="none" stroke="#5C7BA8" stroke-miterlimit="10" stroke-dasharray="0.859,0.859" d="
					M722.314,414.566c0,0-27.482,7.602-61.983,11.111c-34.499,3.508-57.805,3.473-57.805,3.473"/>
			</g>
		</g>
		<g opacity="0.35" clip-path="url(#SVGID_14_)">
			<g>
				<defs>
					<rect id="SVGID_25_" x="159.104" y="919.332" width="438.891" height="43.329"/>
				</defs>
				<clipPath id="SVGID_26_">
					<use xlink:href="#SVGID_25_"  overflow="visible"/>
				</clipPath>
				<path clip-path="url(#SVGID_26_)" fill="none" stroke="#5C7BA8" stroke-miterlimit="10" stroke-dasharray="0.859,0.859" d="
					M159.699,922.199c0,0,9.355,21.634,60.813,28.653c51.458,7.015,105.698,11.701,163.729,11.109
					c57.306-0.584,170.685-19.111,183.027-21.636c25.728-5.263,30.104-20.818,30.104-20.818"/>
			</g>
		</g>
		<g opacity="0.35" clip-path="url(#SVGID_14_)">
			<g>
				<defs>
					<rect id="SVGID_27_" x="157.667" y="923.543" width="443.058" height="45.605"/>
				</defs>
				<clipPath id="SVGID_28_">
					<use xlink:href="#SVGID_27_"  overflow="visible"/>
				</clipPath>
				<path clip-path="url(#SVGID_28_)" fill="none" stroke="#5C7BA8" stroke-miterlimit="10" stroke-dasharray="0.859,0.859" d="
					M158.244,928.92c0,0,10.811,21.402,62.269,28.42c51.458,7.018,105.698,11.702,163.729,11.109
					c57.306-0.584,170.685-19.111,183.027-21.636c25.727-5.263,32.854-23.029,32.854-23.029"/>
			</g>
		</g>
		<g opacity="0.35" clip-path="url(#SVGID_14_)">
			<g>
				<defs>
					<rect id="SVGID_29_" x="595.271" y="192.488" width="41.094" height="223.931"/>
				</defs>
				<clipPath id="SVGID_30_">
					<use xlink:href="#SVGID_29_"  overflow="visible"/>
				</clipPath>
				<path clip-path="url(#SVGID_30_)" fill="none" stroke="#5C7BA8" stroke-miterlimit="10" d="M635.716,192.49
					c0,0,0.061,16.317-2.278,29.182c-2.34,12.865-15.203,60.229-18.127,74.263c-2.925,14.034-16.373,88.297-18.127,97.068
					c-1.755,8.771-1.169,23.39-1.169,23.39"/>
			</g>
		</g>
		<g opacity="0.35" clip-path="url(#SVGID_14_)">
			<g>
				<defs>
					<rect id="SVGID_31_" x="122.862" y="192.764" width="41.086" height="223.655"/>
				</defs>
				<clipPath id="SVGID_32_">
					<use xlink:href="#SVGID_31_"  overflow="visible"/>
				</clipPath>
				<path clip-path="url(#SVGID_32_)" fill="none" stroke="#5C7BA8" stroke-miterlimit="10" d="M123.51,192.766
					c0,0-0.066,16.043,2.273,28.906c2.339,12.864,15.204,60.229,18.127,74.263c2.923,14.034,16.373,88.297,18.127,97.068
					c1.754,8.771,1.17,23.39,1.17,23.39"/>
			</g>
		</g>
		<g opacity="0.35" clip-path="url(#SVGID_14_)">
			<g>
				<defs>
					<rect id="SVGID_33_" x="267.564" y="123.211" width="230.562" height="41.69"/>
				</defs>
				<clipPath id="SVGID_34_">
					<use xlink:href="#SVGID_33_"  overflow="visible"/>
				</clipPath>
				<path clip-path="url(#SVGID_34_)" fill="none" stroke="#5C7BA8" stroke-miterlimit="10" stroke-dasharray="0.859,0.859" d="
					M497.601,127.355c0,0-25.962,36.03-112.464,36.885c-87.301,0.865-117.045-40.65-117.045-40.65"/>
			</g>
		</g>
	</g>
	<g clip-path="url(#SVGID_2_)">
		<defs>
			<rect id="SVGID_35_" x="-11.989" y="8.005" width="793.495" height="1026.875"/>
		</defs>
		<clipPath id="SVGID_36_">
			<use xlink:href="#SVGID_35_"  overflow="visible"/>
		</clipPath>
		<path clip-path="url(#SVGID_36_)" d="M163.278,407.838c0,0.011,0,0.023,0,0.033C163.278,407.861,163.278,407.849,163.278,407.838"
			/>
		<path clip-path="url(#SVGID_36_)" d="M163.299,409.814"/>
		<path clip-path="url(#SVGID_36_)" fill="#FFFFFF" d="M385.191,128.585c45.379,0.432,79.954-22.906,79.521-26.796
			c-0.431-3.89-7.874-11.112-12.627-14.569c-4.754-3.457-27.357-5.767-72.738-5.519c-45.899,0.251-61.45,2.007-67.72,3.512
			c-6.272,1.504-16.598,12.958-15.301,15.551S340.078,128.155,385.191,128.585"/>
		<g opacity="0.35" clip-path="url(#SVGID_36_)">
			<g>
				<defs>
					<rect id="SVGID_37_" x="296.215" y="81.684" width="168.501" height="46.908"/>
				</defs>
				<clipPath id="SVGID_38_">
					<use xlink:href="#SVGID_37_"  overflow="visible"/>
				</clipPath>
				<g clip-path="url(#SVGID_38_)">
					<defs>
						<path id="SVGID_39_" d="M385.19,128.585c45.379,0.432,79.955-22.906,79.523-26.796c-0.433-3.89-7.875-11.112-12.628-14.569
							c-4.754-3.457-27.357-5.767-72.736-5.519c-45.901,0.251-61.452,2.007-67.722,3.512c-6.271,1.504-16.598,12.958-15.302,15.551
							C297.622,103.357,340.078,128.155,385.19,128.585"/>
					</defs>
					<clipPath id="SVGID_40_">
						<use xlink:href="#SVGID_39_"  overflow="visible"/>
					</clipPath>
					
						<radialGradient id="SVGID_41_" cx="187.3755" cy="1041.2666" r="1.2955" gradientTransform="matrix(102.1332 0 0 -40.5422 -18755.5547 42299.3906)" gradientUnits="userSpaceOnUse">
						<stop  offset="0" style="stop-color:#FFFFFF"/>
						<stop  offset="1" style="stop-color:#FFFFFF"/>
					</radialGradient>
					<rect x="295.029" y="81.453" clip-path="url(#SVGID_40_)" fill="url(#SVGID_41_)" width="170.116" height="47.564"/>
				</g>
				<g clip-path="url(#SVGID_38_)">
					<defs>
						<path id="SVGID_42_" d="M385.19,128.585c45.379,0.432,79.955-22.906,79.523-26.796c-0.433-3.89-7.875-11.112-12.628-14.569
							c-4.754-3.457-27.357-5.767-72.736-5.519c-45.901,0.251-61.452,2.007-67.722,3.512c-6.271,1.504-16.598,12.958-15.302,15.551
							C297.622,103.357,340.078,128.155,385.19,128.585"/>
					</defs>
					<clipPath id="SVGID_43_">
						<use xlink:href="#SVGID_42_"  overflow="visible"/>
					</clipPath>
					
						<radialGradient id="SVGID_44_" cx="187.3755" cy="1041.2666" r="1.2955" gradientTransform="matrix(102.1332 0 0 -40.5422 -18755.5547 42299.3906)" gradientUnits="userSpaceOnUse">
						<stop  offset="0" style="stop-color:#FFFFFF"/>
						<stop  offset="0.119" style="stop-color:#D9D8D7"/>
						<stop  offset="0.3629" style="stop-color:#969393"/>
						<stop  offset="0.7064" style="stop-color:#454343"/>
						<stop  offset="1" style="stop-color:#010101"/>
					</radialGradient>
					<rect x="295.029" y="81.453" clip-path="url(#SVGID_43_)" fill="url(#SVGID_44_)" width="170.116" height="47.564"/>
				</g>
			</g>
		</g>
		<g opacity="0.5" clip-path="url(#SVGID_36_)">
			<g>
				<defs>
					<rect id="SVGID_45_" x="59.402" y="91.089" width="647.853" height="876.48"/>
				</defs>
				<clipPath id="SVGID_46_">
					<use xlink:href="#SVGID_45_"  overflow="visible"/>
				</clipPath>
				<g opacity="0.1" clip-path="url(#SVGID_46_)">
					<g>
						<defs>
							<rect id="SVGID_47_" x="439.652" y="91.089" width="196.064" height="867.721"/>
						</defs>
						<clipPath id="SVGID_48_">
							<use xlink:href="#SVGID_47_"  overflow="visible"/>
						</clipPath>
						<path clip-path="url(#SVGID_48_)" fill="#897F76" d="M597.184,393.003c1.754-8.771,15.202-83.034,18.127-97.068
							c2.924-14.034,15.788-61.399,18.127-74.263c1.65-9.079,2.135-22.226,2.278-29.182c-1.285-0.893-2.084-1.473-2.084-1.473
							s-29.669-9.889-71.422-26.371c-41.752-16.48-75.815-46.148-81.309-50.542c-5.494-4.396-5.494-7.692-10.988-10.989
							c-3.636-2.182-5.842-7.252-10.098-12.025l-2.235,0.781c3.567,3.409,6.849,7.375,7.132,9.919
							c0.228,2.054-9.318,9.536-25.061,16.074c1.274,2.641,2.192,5.135,2.341,7.055c0.566,7.368,0,6.8,0,17.571
							c0,10.77,3.967,21.537,10.769,37.408c6.802,15.87,14.17,7.369,19.271,30.042c5.102,22.671-25.505,18.703-25.505,18.703
							s27.773,3.968,58.381,2.267c30.606-1.7,23.805,0,45.344-2.267c21.538-2.268,21.538-5.668,54.412,3.401
							c32.875,9.068,7.935,29.474,5.669,52.712c-2.268,23.24-35.141,19.838-44.777,32.308s-3.4,109.393-2.268,120.162
							c1.134,10.769-22.104,29.473-22.104,29.473s-6.236,18.139-10.203,31.741c-3.968,13.604,6.234,41.944,5.668,72.551
							s-28.34,70.849-37.976,92.955c-9.635,22.106-2.267,43.644,13.603,91.825c15.871,48.176,6.236,6.231,18.138,20.969
							c11.903,14.739,6.235,9.069,12.47,30.039c6.235,20.974,8.502,52.717,8.502,52.717s2.268,32.872,10.203,62.913
							c7.935,30.039,4.534,16.438,24.939,34.007l6.463,2.394c6.031-4.485,6.579-8.535,6.579-8.535v-7.692
							c0,0,2.198-9.89,2.198-14.282c0-4.396-4.394-8.792-4.394-8.792s0-25.271-3.299-59.334
							c-3.296-34.062-16.481-113.174-21.975-142.841c-5.495-29.667,1.098-99.989,6.592-127.459
							c5.494-27.469,13.186-116.47,12.087-130.754c-0.945-12.288,3.799-40.006,5.143-47.519
							C595.897,406.56,596.064,398.595,597.184,393.003"/>
					</g>
				</g>
				<g opacity="0.1" clip-path="url(#SVGID_46_)">
					<g>
						<defs>
							<rect id="SVGID_49_" x="123.51" y="95.349" width="221.141" height="872.22"/>
						</defs>
						<clipPath id="SVGID_50_">
							<use xlink:href="#SVGID_49_"  overflow="visible"/>
						</clipPath>
						<path clip-path="url(#SVGID_50_)" fill="#897F76" d="M341.089,121.369c-25.378-7.666-43.913-18.907-44.764-20.605
							c-0.415-0.83,0.371-2.573,1.824-4.604c-0.596-0.287-1.17-0.561-1.694-0.811c-2.341,3.276-4.189,6.236-6.742,7.766
							c-5.494,3.296-5.494,6.592-10.988,10.988c-5.493,4.396-39.555,34.062-81.309,50.543
							c-41.753,16.481-71.421,26.371-71.421,26.371s-0.97,0.703-2.484,1.746c0.149,7.024,0.645,19.949,2.273,28.908
							c2.339,12.865,15.204,60.229,18.127,74.263c2.923,14.034,16.373,88.297,18.127,97.068c0.993,4.967,1.236,11.81,1.261,16.811
							c0.035-0.088,0.056-0.14,0.056-0.14s6.593,35.161,5.493,49.445c-1.098,14.285,6.593,103.285,12.088,130.754
							c5.492,27.47,12.085,97.792,6.591,127.459c-5.493,29.667-18.68,108.779-21.976,142.841
							c-3.297,34.063-3.297,59.335-3.297,59.335s-4.394,4.395-4.394,8.791c0,4.393,2.196,14.282,2.196,14.282v7.692
							c0,0,1.563,11.616,28.728,17.295c2.322-13.204,5.772-36.424,3.815-48.562c-2.833-17.571,2.268-14.171,10.202-26.073
							c7.935-11.903,6.235-51.578,7.368-99.191c1.134-47.611,90.69-24.372,90.69-24.372s7.367-10.202,6.234-24.371
							c-1.134-14.17-45.91-76.52-54.413-90.689c-8.502-14.169,4.535-12.47,4.535-12.47s-12.47-5.668-17.573-33.44
							c-5.1-27.773,8.503-61.781,20.972-91.255c12.47-29.474,48.745-60.081,48.745-60.081s-39.11,6.234-76.517-10.77
							c-37.41-17.003-39.678-45.911-44.778-134.898c-5.102-88.988,3.401-106.559,23.805-107.693
							c20.405-1.134,92.389,22.672,103.158,27.207c0,0,6.802-14.169,4.534-22.671c-2.266-8.503,4.536-22.105,12.471-36.843
							c7.934-14.736,7.934-7.936,10.769-10.202c2.834-2.267,0.566-15.303-1.134-19.271c-1.701-3.969-0.565-5.103,2.835-14.172
							C345.125,126.09,343.746,123.875,341.089,121.369"/>
					</g>
				</g>
				<g opacity="0.12" clip-path="url(#SVGID_46_)">
					<g>
						<defs>
							<rect id="SVGID_51_" x="59.402" y="264.918" width="101.457" height="145.668"/>
						</defs>
						<clipPath id="SVGID_52_">
							<use xlink:href="#SVGID_51_"  overflow="visible"/>
						</clipPath>
						<path clip-path="url(#SVGID_52_)" fill="#897F76" d="M136.486,357.874c-2.834-4.534-68.583-92.955-68.583-92.955
							s1.134,8.501,5.669,18.137c4.534,9.637,50.444,67.449,50.444,67.449s-41.376-45.344-43.643-48.177
							c-2.268-2.834-20.972-17.573-20.972-15.305c0,2.268,14.17,17.571,25.505,28.339c11.336,10.77,34.574,34.01,45.344,50.446
							c10.771,16.437,30.608,44.778,30.608,44.778s-3.968-16.438-6.802-23.24C151.222,380.546,139.321,362.409,136.486,357.874"/>
					</g>
				</g>
				<g opacity="0.12" clip-path="url(#SVGID_46_)">
					<g>
						<defs>
							<rect id="SVGID_53_" x="72.438" y="251.315" width="44.21" height="51.012"/>
						</defs>
						<clipPath id="SVGID_54_">
							<use xlink:href="#SVGID_53_"  overflow="visible"/>
						</clipPath>
						<path clip-path="url(#SVGID_54_)" fill="#897F76" d="M91.709,279.088c-3.967-5.668-19.271-27.772-19.271-27.772
							s6.234,23.238,18.705,35.141c12.469,11.902,25.505,15.87,25.505,15.87S95.677,284.757,91.709,279.088"/>
					</g>
				</g>
				<g opacity="0.12" clip-path="url(#SVGID_46_)">
					<g>
						<defs>
							<rect id="SVGID_55_" x="604.1" y="281.923" width="103.155" height="103.725"/>
						</defs>
						<clipPath id="SVGID_56_">
							<use xlink:href="#SVGID_55_"  overflow="visible"/>
						</clipPath>
						<path clip-path="url(#SVGID_56_)" fill="#897F76" d="M704.989,281.922c0,0-7.37,14.737-13.604,26.072
							c-6.235,11.338-32.875,32.875-47.044,40.81c-14.169,7.937-40.241,36.843-40.241,36.843s11.901-2.268,19.271-7.935
							c7.367-5.668,54.411-24.372,72.55-50.445C714.057,301.193,704.989,281.922,704.989,281.922"/>
					</g>
				</g>
				<g opacity="0.12" clip-path="url(#SVGID_46_)">
					<g>
						<defs>
							<rect id="SVGID_57_" x="613.733" y="368.076" width="82.187" height="33.798"/>
						</defs>
						<clipPath id="SVGID_58_">
							<use xlink:href="#SVGID_57_"  overflow="visible"/>
						</clipPath>
						<path clip-path="url(#SVGID_58_)" fill="#897F76" d="M659.645,390.181c-15.87,4.535-45.91,10.203-45.91,10.203
							s21.537,5.669,48.177-5.101c26.641-10.771,34.009-27.207,34.009-27.207S675.515,385.647,659.645,390.181"/>
					</g>
				</g>
				<g opacity="0.12" clip-path="url(#SVGID_46_)">
					<g>
						<defs>
							<rect id="SVGID_59_" x="622.815" y="292.541" width="60.636" height="59.043"/>
						</defs>
						<clipPath id="SVGID_60_">
							<use xlink:href="#SVGID_59_"  overflow="visible"/>
						</clipPath>
						<path clip-path="url(#SVGID_60_)" fill="#897F76" d="M661.345,300.061c-10.769,12.469-14.169,17.003-23.806,22.671
							c-9.382,5.52-14.463,27.688-14.725,28.852c0.229-1.006,3.828-16.025,16.425-22.05c13.036-6.235,22.105-5.668,28.341-16.438
							c6.235-10.768,15.871-18.705,15.871-18.705S672.113,287.59,661.345,300.061"/>
					</g>
				</g>
			</g>
		</g>
	</g>
</g>
</svg>
