<?xml version="1.0" encoding="utf-8"?>
<!-- Generator: Adobe Illustrator 16.0.0, SVG Export Plug-In . SVG Version: 6.00 Build 0)  -->
<!DOCTYPE svg PUBLIC "-//W3C//DTD SVG 1.1//EN" "http://www.w3.org/Graphics/SVG/1.1/DTD/svg11.dtd">
<svg version="1.1" id="Layer_1" xmlns="http://www.w3.org/2000/svg" xmlns:xlink="http://www.w3.org/1999/xlink" x="0px" y="0px"
	 width="612px" height="792px" viewBox="0 0 480 792" enable-background="new 0 0 612 792" xml:space="preserve">
<rect x="145.13" y="53.784" fill="none" width="136.172" height="537.09"/>
<rect x="105.654" y="158.2" fill="none" width="62.475" height="89.699"/>
<rect x="113.681" y="149.824" fill="none" width="27.224" height="31.412"/>
<rect x="441.064" y="168.671" fill="none" width="63.521" height="63.871"/>
<rect x="446.997" y="221.723" fill="none" width="50.608" height="20.812"/>
<rect x="452.59" y="175.209" fill="none" width="37.337" height="36.357"/>
<rect x="235.677" y="69.237" fill="none" width="137.986" height="24.583"/>
<rect x="92.413" y="246.769" fill="none" width="73.87" height="9.765"/>
<rect x="92.413" y="249.965" fill="none" width="73.87" height="9.764"/>
<rect x="167.048" y="561.172" fill="none" width="270.258" height="26.68"/>
<rect x="166.163" y="563.765" fill="none" width="272.823" height="28.082"/>
<rect x="233.835" y="70.94" fill="none" width="141.974" height="25.672"/>
<rect x="61.693" fill="none" width="488.613" height="632.322"/>
<g>
	<defs>
		<rect id="SF_SVGID_1_" x="63.188" y="82.607" width="487.977" height="631.5"/>
	</defs>
	<clipPath id="SF_SVGID_2_">
		<use xlink:href="#SF_SVGID_1_"  overflow="visible"/>
	</clipPath>
  <g id="MASK">
      <g id="UPPER_BOTTOM_PHASE">
    		<path clip-path="url(#SF_SVGID_4_)" fill="#004D86" d="M460.228,195.155c0,0-18.244-6.081-43.922-16.217
			c-16.207-6.397-30.524-16.022-39.733-22.934c-4.563,4.977-23.648,22.233-69.162,22.684c-45.128,0.447-66.863-18.856-72.646-25.023
			c-8.893,6.916-24.659,18.115-42.797,25.273c-25.677,10.137-43.921,16.217-43.921,16.217s-0.598,0.434-1.528,1.076v0.004
			c0.011,0.517,0.025,1.087,0.043,1.697c0.001,0.048,0.003,0.098,0.005,0.148c0.008,0.286,0.018,0.579,0.028,0.88
			c0,0.018,0,0.036,0.001,0.053c0.011,0.316,0.023,0.642,0.037,0.973c0.002,0.065,0.004,0.13,0.007,0.196
			c0.011,0.267,0.022,0.538,0.035,0.814c0.004,0.083,0.007,0.167,0.011,0.252c0.016,0.336,0.032,0.678,0.05,1.024
			c0.001,0.045,0.004,0.09,0.006,0.134c0.016,0.301,0.033,0.604,0.05,0.909c0.007,0.108,0.013,0.215,0.02,0.323
			c0.017,0.29,0.035,0.582,0.054,0.875c0.005,0.069,0.009,0.136,0.013,0.204c0.023,0.354,0.049,0.711,0.076,1.068
			c0.007,0.097,0.015,0.193,0.022,0.289c0.021,0.275,0.042,0.548,0.064,0.822c0.01,0.108,0.019,0.217,0.028,0.325
			c0.03,0.357,0.062,0.714,0.095,1.069c0.003,0.039,0.007,0.079,0.011,0.118c0.031,0.319,0.063,0.637,0.097,0.952
			c0.011,0.107,0.023,0.213,0.034,0.319c0.031,0.279,0.063,0.558,0.096,0.833c0.01,0.079,0.018,0.158,0.028,0.236
			c0.042,0.342,0.086,0.68,0.132,1.013c0.011,0.081,0.023,0.16,0.034,0.239c0.037,0.264,0.076,0.523,0.116,0.778
			c0.014,0.093,0.028,0.186,0.043,0.278c0.051,0.322,0.105,0.64,0.161,0.949c1.438,7.911,9.35,37.039,11.147,45.67
			c1.798,8.63,10.069,54.3,11.147,59.694c0.075,0.369,0.141,0.757,0.202,1.158c0.005,0.034,0.009,0.068,0.015,0.102
			c0.056,0.374,0.106,0.758,0.152,1.151c0.006,0.042,0.01,0.084,0.015,0.126c0.045,0.397,0.085,0.803,0.121,1.211
			c0.002,0.029,0.006,0.06,0.008,0.09c0.038,0.436,0.07,0.876,0.098,1.316c0.001,0.006,0.001,0.013,0.001,0.019
			c0.028,0.436,0.051,0.872,0.07,1.304c0.002,0.037,0.003,0.072,0.005,0.108c0.019,0.41,0.033,0.814,0.044,1.213
			c0.001,0.036,0.002,0.072,0.004,0.107c0.011,0.415,0.021,0.821,0.027,1.216c0,0.006,0,0.013,0,0.021
			c0.007,0.413,0.011,0.812,0.013,1.194c0.021-0.054,0.034-0.086,0.034-0.086s4.055,21.624,3.378,30.408
			c-0.675,8.785,4.055,63.516,7.434,80.411c3.377,16.892,7.432,60.139,4.053,78.384c-3.378,18.243-11.487,66.896-13.514,87.843
			c-2.028,20.948-2.028,36.489-2.028,36.489s-2.702,2.702-2.702,5.405s1.352,8.785,1.352,8.785v4.73c0,0,1.351,10.135,29.056,12.161
			c27.704,2.027,60.814,2.703,70.95,4.73c2.637,0.528,5.916,1.055,9.476,1.546l-0.015,0.481c0,0,13.514,2.026,22.298,2.026
			c0.995,0,2.135-0.026,3.378-0.075c1.244,0.049,2.384,0.075,3.379,0.075c8.784,0,22.299-2.026,22.299-2.026l-0.016-0.481
			c3.56-0.491,6.84-1.018,9.476-1.546c10.136-2.027,43.246-2.703,70.95-4.73c27.705-2.026,29.057-12.161,29.057-12.161v-4.73
			c0,0,1.352-6.082,1.352-8.785s-2.703-5.405-2.703-5.405s0-15.541-2.027-36.489c-2.027-20.946-10.136-69.6-13.515-87.843
			c-3.378-18.245,0.677-61.492,4.055-78.384c3.379-16.895,8.109-71.626,7.433-80.411c-0.581-7.558,2.336-24.604,3.163-29.223
			c-0.017-3.102,0.087-7.998,0.775-11.437c1.079-5.395,9.35-51.064,11.147-59.694c1.799-8.631,9.709-37.759,11.148-45.67
			c1.015-5.583,1.313-13.668,1.401-17.946C460.718,195.511,460.228,195.155,460.228,195.155"/>

  </g>
      <g id="BODY">
      		<path clip-path="url(#SF_SVGID_10_)" fill="#FFFFFF" d="M256.993,410.5c14.718,6.281,31.609,12.537,51.105,18.86
			c19.5-6.323,36.392-12.579,51.107-18.86c29.31-22.919,59.367-61.28,80.512-101.307c2.858-15.487,7.888-43.014,9.242-49.517
			c1.057-5.073,4.225-17.224,6.949-27.987c-49.34-20.978-86.883-33.285-148.077-33.448v-9.354l-0.001,9.354
			c-64.006,0.17-102.147,13.631-154.969,36.4c2.533,9.954,5.24,20.422,6.201,25.035c0.663,3.182,2.206,11.405,3.945,20.786
			C183.244,330.045,220.695,382.114,256.993,410.5"/>

    </g>
      <g id="INNER_BODY">
		<path clip-path="url(#SF_SVGID_12_)" fill="#FDBB2D" d="M433.874,360.031c-0.581-7.558,2.336-24.603,3.163-29.223
			c-0.015-3.102,0.087-7.999,0.775-11.438c0.266-1.33,0.97-5.109,1.905-10.177c-21.145,40.026-51.202,78.387-80.513,101.307
			c35.587-15.187,58.452-30.511,74.727-47.247C433.949,361.879,433.932,360.783,433.874,360.031"/>
		<path clip-path="url(#SF_SVGID_12_)" fill="#FDBB2D" d="M256.993,410.5c-36.298-28.386-73.749-80.455-93.985-130.037
			c2.975,16.054,6.522,35.502,7.203,38.907c0.073,0.37,0.14,0.759,0.202,1.16c0.004,0.033,0.009,0.067,0.014,0.101
			c0.056,0.373,0.106,0.758,0.152,1.15c0.005,0.042,0.01,0.084,0.015,0.126c0.045,0.397,0.085,0.802,0.121,1.211
			c0.003,0.03,0.005,0.06,0.008,0.089c0.039,0.437,0.071,0.878,0.099,1.318c0,0.007,0.001,0.013,0.001,0.019
			c0.028,0.437,0.052,0.872,0.07,1.304c0.003,0.036,0.003,0.072,0.005,0.108c0.018,0.41,0.032,0.815,0.044,1.213
			c0.001,0.037,0.002,0.072,0.004,0.107c0.011,0.415,0.021,0.822,0.027,1.215c0,0.007,0,0.014,0,0.021
			c0.006,0.413,0.01,0.812,0.012,1.194c0.021-0.055,0.034-0.086,0.034-0.086s2.756,14.707,3.344,24.79
			C190.992,374.67,215.237,392.681,256.993,410.5"/>
		<path clip-path="url(#SF_SVGID_12_)" fill="#FDBB2D" d="M307.832,188.887c-0.056,0-0.107,0.002-0.163,0.002
			c-0.055,0-0.106-0.002-0.161-0.002v0.003c-64.739,0.217-103.335,14.133-156.789,37.248c0.667,2.682,1.397,5.569,2.143,8.503
			c52.753-22.738,90.866-36.192,154.721-36.396c61.12,0.179,98.976,12.482,148.326,33.446c0.763-3.011,1.49-5.914,2.127-8.522
			c-49.999-21.335-88.28-34.069-150.204-34.278V188.887z"/>
	</g>
    </g>

  <g id="CUSTOM"></g>
	<g clip-path="url(#SF_SVGID_2_)">
		<defs>
			<rect id="SF_SVGID_3_" x="63.188" y="82.607" width="487.977" height="631.5"/>
		</defs>
		<clipPath id="SF_SVGID_4_">
			<use xlink:href="#SF_SVGID_3_"  overflow="visible"/>
		</clipPath>
	</g>
	<g id="SLEEVES" clip-path="url(#SF_SVGID_2_)">
		<defs>
			<rect id="SF_SVGID_5_" x="63.188" y="82.607" width="487.977" height="631.5"/>
		</defs>
		<clipPath id="SF_SVGID_6_">
			<use xlink:href="#SF_SVGID_5_"  overflow="visible"/>
		</clipPath>
		<path clip-path="url(#SF_SVGID_6_)" fill="#FDBB2D" d="M453.575,293.898c-0.005,0.021-0.008,0.034-0.008,0.034
			S453.571,293.917,453.575,293.898"/>
		<path clip-path="url(#SF_SVGID_6_)" fill="#004D86" d="M170.973,328.515c0-0.007,0-0.014,0-0.021
			c-0.006-0.395-0.016-0.802-0.028-1.216c0-0.036-0.002-0.072-0.003-0.107c-0.012-0.399-0.026-0.804-0.044-1.213
			c-0.002-0.036-0.004-0.072-0.005-0.108c-0.019-0.432-0.042-0.868-0.07-1.304c0-0.006-0.001-0.013-0.001-0.018
			c-0.029-0.441-0.062-0.882-0.099-1.317c-0.002-0.031-0.005-0.061-0.008-0.09c-0.036-0.408-0.075-0.814-0.121-1.211
			c-0.004-0.042-0.009-0.084-0.015-0.126c-0.045-0.393-0.096-0.777-0.152-1.15c-0.005-0.034-0.01-0.069-0.015-0.103
			c-0.061-0.4-0.127-0.789-0.202-1.158c-1.078-5.395-9.35-51.064-11.147-59.694c-1.797-8.63-9.709-37.759-11.147-45.67
			c-0.057-0.309-0.11-0.627-0.162-0.949c-0.014-0.092-0.029-0.185-0.043-0.277c-0.04-0.255-0.078-0.515-0.115-0.778
			c-0.011-0.08-0.023-0.158-0.034-0.239c-0.046-0.333-0.09-0.671-0.132-1.013c-0.011-0.078-0.019-0.157-0.028-0.236
			c-0.033-0.275-0.066-0.554-0.096-0.833c-0.012-0.106-0.022-0.212-0.035-0.319c-0.033-0.315-0.065-0.632-0.096-0.952
			c-0.004-0.039-0.008-0.078-0.012-0.118c-0.033-0.355-0.065-0.711-0.095-1.069c-0.01-0.108-0.019-0.217-0.027-0.325
			c-0.022-0.274-0.044-0.547-0.065-0.822c-0.007-0.096-0.015-0.192-0.022-0.289c-0.026-0.358-0.051-0.713-0.076-1.069
			c-0.004-0.067-0.007-0.135-0.012-0.204c-0.019-0.293-0.038-0.585-0.055-0.875c-0.006-0.109-0.012-0.215-0.019-0.323
			c-0.018-0.305-0.034-0.608-0.05-0.909c-0.002-0.043-0.005-0.089-0.007-0.134c-0.018-0.347-0.034-0.687-0.049-1.024
			c-0.004-0.085-0.008-0.168-0.012-0.252c-0.012-0.276-0.023-0.547-0.034-0.814c-0.002-0.066-0.005-0.131-0.008-0.196
			c-0.013-0.332-0.026-0.657-0.036-0.973c-0.001-0.017-0.002-0.034-0.002-0.052c-0.01-0.303-0.02-0.595-0.028-0.881
			c-0.002-0.049-0.003-0.098-0.004-0.148c-0.018-0.611-0.033-1.18-0.043-1.697v-0.004c-2.389,1.646-7.042,4.709-9.959,5.682
			c-4.054,1.351-27.028,18.92-33.786,42.57c-6.756,23.649-8.108,81.762-8.108,81.762l-2.028,10.135l-2.027,6.081
			c0,0,23.65,6.082,43.922,7.433c20.272,1.352,33.11,1.352,33.11,1.352s1.352-1.352,0.676-5.406
			c-0.676-4.054-1.351-5.405-0.676-7.434c0.632-1.894,3.034-7.921,3.345-8.698C170.983,329.328,170.979,328.927,170.973,328.515"/>
		<path clip-path="url(#SF_SVGID_6_)" fill="#004D86" d="M515.637,336.381l-2.028-10.135c0,0-1.351-58.112-8.108-81.763
			c-6.757-23.65-29.731-41.218-33.785-42.57c-3.018-1.005-7.903-4.254-10.205-5.852c-0.088,4.278-0.387,12.363-1.401,17.946
			c-1.439,7.911-9.35,37.04-11.148,45.67c-1.798,8.63-10.068,54.3-11.147,59.693c-0.688,3.439-0.79,8.337-0.775,11.438
			c0.135-0.75,0.216-1.185,0.216-1.185s2.703,6.758,3.379,8.784c0.676,2.027,0,3.379-0.676,7.435
			c-0.676,4.053,0.676,5.405,0.676,5.405s12.839,0,33.11-1.352c20.271-1.351,43.922-7.433,43.922-7.433L515.637,336.381z"/>
	</g>
	<g id="COLLAR" clip-path="url(#SF_SVGID_2_)">
		<defs>
			<rect id="SF_SVGID_7_" x="63.188" y="82.607" width="487.977" height="631.5"/>
		</defs>
		<clipPath id="SF_SVGID_8_">
			<use xlink:href="#SF_SVGID_7_"  overflow="visible"/>
		</clipPath>
		<path clip-path="url(#SF_SVGID_8_)" fill="#004D86" d="M307.41,178.688c45.515-0.451,64.599-17.708,69.162-22.684
			c-5.382-4.038-9.024-7.152-10.271-8.149c-3.378-2.703-3.378-4.73-6.757-6.758c-3.379-2.026-4.73-8.108-11.487-11.486
			c-4.302-2.151-23.654-2.933-37.158-3.216l-0.006-0.163c0,0-2.656,0-6.757,0.051c-4.103-0.051-6.758-0.051-6.758-0.051
			l-0.005,0.163c-13.504,0.283-32.858,1.065-37.16,3.216c-6.757,3.378-8.108,9.46-11.487,11.486
			c-3.378,2.028-3.378,4.055-6.756,6.758c-0.992,0.794-3.51,2.934-7.207,5.81C240.548,159.831,262.281,179.135,307.41,178.688"/>
	</g>
	<g clip-path="url(#SF_SVGID_2_)">
		<defs>
			<rect id="SF_SVGID_9_" x="63.188" y="82.607" width="487.977" height="631.5"/>
		</defs>
		<clipPath id="SF_SVGID_10_">
			<use xlink:href="#SF_SVGID_9_"  overflow="visible"/>
		</clipPath>
	</g>
	<g clip-path="url(#SF_SVGID_2_)">
		<defs>
			<rect id="SF_SVGID_11_" x="63.188" y="82.607" width="487.977" height="631.5"/>
		</defs>
		<clipPath id="SF_SVGID_12_">
			<use xlink:href="#SF_SVGID_11_"  overflow="visible"/>
		</clipPath>
    </g>
	<g clip-path="url(#SF_SVGID_2_)">
		<defs>
			<rect id="SF_SVGID_13_" x="63.188" y="82.607" width="487.977" height="631.5"/>
		</defs>
		<clipPath id="SF_SVGID_14_">
			<use xlink:href="#SF_SVGID_13_"  overflow="visible"/>
		</clipPath>
		<g opacity="0.35" clip-path="url(#SF_SVGID_14_)">
			<g>
				<defs>
					<rect id="SF_SVGID_15_" x="236.946" y="151.754" width="137.806" height="24.55"/>
				</defs>
				<clipPath id="SF_SVGID_16_">
					<use xlink:href="#SF_SVGID_15_"  overflow="visible"/>
				</clipPath>
				<path clip-path="url(#SF_SVGID_16_)" fill="none" stroke="#5C7BA8" stroke-miterlimit="10" stroke-dasharray="0.859,0.859" d="
					M374.42,154.635c0,0-13.78,20.736-66.978,21.263c-53.688,0.531-70.167-23.92-70.167-23.92"/>
			</g>
		</g>
		<g opacity="0.35" clip-path="url(#SF_SVGID_14_)">
			<g>
				<defs>
					<rect id="SF_SVGID_17_" x="93.868" y="329.056" width="73.773" height="9.751"/>
				</defs>
				<clipPath id="SF_SVGID_18_">
					<use xlink:href="#SF_SVGID_17_"  overflow="visible"/>
				</clipPath>
				<path clip-path="url(#SF_SVGID_18_)" fill="none" stroke="#5C7BA8" stroke-miterlimit="10" stroke-dasharray="0.859,0.859" d="
					M93.974,329.44c0,0,16.902,4.674,38.119,6.832c21.216,2.158,35.548,2.137,35.548,2.137"/>
			</g>
		</g>
		<g opacity="0.35" clip-path="url(#SF_SVGID_14_)">
			<g>
				<defs>
					<rect id="SF_SVGID_19_" x="93.868" y="332.247" width="73.773" height="9.751"/>
				</defs>
				<clipPath id="SF_SVGID_20_">
					<use xlink:href="#SF_SVGID_19_"  overflow="visible"/>
				</clipPath>
				<path clip-path="url(#SF_SVGID_20_)" fill="none" stroke="#5C7BA8" stroke-miterlimit="10" stroke-dasharray="0.859,0.859" d="
					M93.974,332.631c0,0,16.902,4.675,38.119,6.833c21.216,2.158,35.548,2.137,35.548,2.137"/>
			</g>
		</g>
		<g opacity="0.35" clip-path="url(#SF_SVGID_14_)">
			<g>
				<defs>
					<rect id="SF_SVGID_21_" x="441.098" y="329.056" width="73.774" height="9.751"/>
				</defs>
				<clipPath id="SF_SVGID_22_">
					<use xlink:href="#SF_SVGID_21_"  overflow="visible"/>
				</clipPath>
				<path clip-path="url(#SF_SVGID_22_)" fill="none" stroke="#5C7BA8" stroke-miterlimit="10" stroke-dasharray="0.859,0.859" d="
					M514.765,329.44c0,0-16.9,4.674-38.117,6.832c-21.217,2.158-35.549,2.137-35.549,2.137"/>
			</g>
		</g>
		<g opacity="0.35" clip-path="url(#SF_SVGID_14_)">
			<g>
				<defs>
					<rect id="SF_SVGID_23_" x="441.098" y="332.247" width="73.774" height="9.751"/>
				</defs>
				<clipPath id="SF_SVGID_24_">
					<use xlink:href="#SF_SVGID_23_"  overflow="visible"/>
				</clipPath>
				<path clip-path="url(#SF_SVGID_24_)" fill="none" stroke="#5C7BA8" stroke-miterlimit="10" stroke-dasharray="0.859,0.859" d="
					M514.765,332.631c0,0-16.9,4.675-38.117,6.833c-21.217,2.158-35.549,2.137-35.549,2.137"/>
			</g>
		</g>
		<g opacity="0.35" clip-path="url(#SF_SVGID_14_)">
			<g>
				<defs>
					<rect id="SF_SVGID_25_" x="168.406" y="643.049" width="269.907" height="26.646"/>
				</defs>
				<clipPath id="SF_SVGID_26_">
					<use xlink:href="#SF_SVGID_25_"  overflow="visible"/>
				</clipPath>
				<path clip-path="url(#SF_SVGID_26_)" fill="none" stroke="#5C7BA8" stroke-miterlimit="10" stroke-dasharray="0.859,0.859" d="
					M168.772,644.812c0,0,5.753,13.305,37.398,17.621c31.645,4.313,65.001,7.196,100.689,6.832
					c35.241-0.36,104.967-11.754,112.557-13.306c15.822-3.237,18.513-12.802,18.513-12.802"/>
			</g>
		</g>
		<g opacity="0.35" clip-path="url(#SF_SVGID_14_)">
			<g>
				<defs>
					<rect id="SF_SVGID_27_" x="167.521" y="645.639" width="272.469" height="28.046"/>
				</defs>
				<clipPath id="SF_SVGID_28_">
					<use xlink:href="#SF_SVGID_27_"  overflow="visible"/>
				</clipPath>
				<path clip-path="url(#SF_SVGID_28_)" fill="none" stroke="#5C7BA8" stroke-miterlimit="10" stroke-dasharray="0.859,0.859" d="
					M167.877,648.944c0,0,6.648,13.163,38.293,17.478c31.645,4.315,65.001,7.197,100.689,6.833
					c35.241-0.36,104.967-11.754,112.557-13.306c15.821-3.237,20.204-14.162,20.204-14.162"/>
			</g>
		</g>
		<g opacity="0.35" clip-path="url(#SF_SVGID_14_)">
			<g>
				<defs>
					<rect id="SF_SVGID_29_" x="436.637" y="196.059" width="25.271" height="137.712"/>
				</defs>
				<clipPath id="SF_SVGID_30_">
					<use xlink:href="#SF_SVGID_29_"  overflow="visible"/>
				</clipPath>
				<path clip-path="url(#SF_SVGID_30_)" fill="none" stroke="#5C7BA8" stroke-miterlimit="10" d="M461.51,196.061
					c0,0,0.037,10.035-1.401,17.946c-1.439,7.912-9.35,37.04-11.148,45.67c-1.798,8.63-10.068,54.3-11.147,59.693
					c-1.079,5.395-0.719,14.384-0.719,14.384"/>
			</g>
		</g>
		<g opacity="0.35" clip-path="url(#SF_SVGID_14_)">
			<g>
				<defs>
					<rect id="SF_SVGID_31_" x="146.118" y="196.229" width="25.267" height="137.542"/>
				</defs>
				<clipPath id="SF_SVGID_32_">
					<use xlink:href="#SF_SVGID_31_"  overflow="visible"/>
				</clipPath>
				<path clip-path="url(#SF_SVGID_32_)" fill="none" stroke="#5C7BA8" stroke-miterlimit="10" d="M146.517,196.23
					c0,0-0.041,9.866,1.397,17.776c1.438,7.911,9.35,37.04,11.147,45.67c1.798,8.63,10.069,54.3,11.147,59.693
					c1.079,5.395,0.72,14.384,0.72,14.384"/>
			</g>
		</g>
		<g opacity="0.35" clip-path="url(#SF_SVGID_14_)">
			<g>
				<defs>
					<rect id="SF_SVGID_33_" x="235.106" y="153.456" width="141.79" height="25.639"/>
				</defs>
				<clipPath id="SF_SVGID_34_">
					<use xlink:href="#SF_SVGID_33_"  overflow="visible"/>
				</clipPath>
				<path clip-path="url(#SF_SVGID_34_)" fill="none" stroke="#5C7BA8" stroke-miterlimit="10" stroke-dasharray="0.859,0.859" d="
					M376.572,156.004c0,0-15.965,22.158-69.162,22.684c-53.688,0.532-71.98-24.999-71.98-24.999"/>
			</g>
		</g>
	</g>
	<g clip-path="url(#SF_SVGID_2_)">
		<defs>
			<rect id="SF_SVGID_35_" x="63.188" y="82.607" width="487.977" height="631.5"/>
		</defs>
		<clipPath id="SF_SVGID_36_">
			<use xlink:href="#SF_SVGID_35_"  overflow="visible"/>
		</clipPath>
		<path clip-path="url(#SF_SVGID_36_)" d="M170.973,328.493c0,0.007,0,0.015,0,0.021C170.973,328.508,170.973,328.5,170.973,328.493"/>
		<path clip-path="url(#SF_SVGID_36_)" d="M170.985,329.709"/>
		<path clip-path="url(#SF_SVGID_36_)" fill="#FFFFFF" d="M307.443,156.761c27.908,0.266,49.169-14.086,48.902-16.479
			c-0.264-2.392-4.842-6.834-7.765-8.96c-2.924-2.126-16.824-3.547-44.731-3.394c-28.228,0.154-37.791,1.234-41.646,2.159
			c-3.857,0.925-10.207,7.969-9.41,9.563S279.699,156.496,307.443,156.761"/>
		<g opacity="0.35" clip-path="url(#SF_SVGID_36_)">
			<g>
				<defs>
					<rect id="SF_SVGID_37_" x="252.725" y="127.917" width="103.625" height="28.847"/>
				</defs>
				<clipPath id="SF_SVGID_38_">
					<use xlink:href="#SF_SVGID_37_"  overflow="visible"/>
				</clipPath>
				<g clip-path="url(#SF_SVGID_38_)">
					<defs>
						<path id="SF_SVGID_39_" d="M307.442,156.761c27.906,0.266,49.17-14.086,48.905-16.479c-0.267-2.392-4.844-6.834-7.767-8.96
							c-2.924-2.126-16.824-3.547-44.731-3.394c-28.228,0.154-37.791,1.234-41.647,2.159c-3.856,0.925-10.207,7.969-9.41,9.563
							S279.7,156.496,307.442,156.761"/>
					</defs>
					<clipPath id="SF_SVGID_40_">
						<use xlink:href="#SF_SVGID_39_"  overflow="visible"/>
					</clipPath>
					
						<radialGradient id="SF_SVGID_41_" cx="0.5117" cy="790.7686" r="0.7972" gradientTransform="matrix(102.1332 0 0 -40.5422 252.9668 32188.9707)" gradientUnits="userSpaceOnUse">
						<stop  offset="0" style="stop-color:#FFFFFF"/>
						<stop  offset="1" style="stop-color:#FFFFFF"/>
					</radialGradient>
					<rect x="251.996" y="127.775" clip-path="url(#SF_SVGID_40_)" fill="url(#SF_SVGID_41_)" width="104.617" height="29.251"/>
				</g>
				<g clip-path="url(#SF_SVGID_38_)">
					<defs>
						<path id="SF_SVGID_42_" d="M307.442,156.761c27.906,0.266,49.17-14.086,48.905-16.479c-0.267-2.392-4.844-6.834-7.767-8.96
							c-2.924-2.126-16.824-3.547-44.731-3.394c-28.228,0.154-37.791,1.234-41.647,2.159c-3.856,0.925-10.207,7.969-9.41,9.563
							S279.7,156.496,307.442,156.761"/>
					</defs>
					<clipPath id="SF_SVGID_43_">
						<use xlink:href="#SF_SVGID_42_"  overflow="visible"/>
					</clipPath>
					
						<radialGradient id="SF_SVGID_44_" cx="0.5117" cy="790.7686" r="0.7972" gradientTransform="matrix(102.1332 0 0 -40.5422 252.9668 32188.9707)" gradientUnits="userSpaceOnUse">
						<stop  offset="0" style="stop-color:#FFFFFF"/>
						<stop  offset="0.1085" style="stop-color:#EBEBEB"/>
						<stop  offset="0.3308" style="stop-color:#B7B7B7"/>
						<stop  offset="0.6481" style="stop-color:#646464"/>
						<stop  offset="1" style="stop-color:#000000"/>
					</radialGradient>
					<rect x="251.996" y="127.775" clip-path="url(#SF_SVGID_43_)" fill="url(#SF_SVGID_44_)" width="104.617" height="29.251"/>
				</g>
			</g>
		</g>
		<g opacity="0.5" clip-path="url(#SF_SVGID_36_)">
			<g>
				<defs>
					<rect id="SF_SVGID_45_" x="107.092" y="133.702" width="398.412" height="539.011"/>
				</defs>
				<clipPath id="SF_SVGID_46_">
					<use xlink:href="#SF_SVGID_45_"  overflow="visible"/>
				</clipPath>
				<g opacity="0.1" clip-path="url(#SF_SVGID_46_)">
					<g>
						<defs>
							<rect id="SF_SVGID_47_" x="340.935" y="133.702" width="120.575" height="533.625"/>
						</defs>
						<clipPath id="SF_SVGID_48_">
							<use xlink:href="#SF_SVGID_47_"  overflow="visible"/>
						</clipPath>
						<path clip-path="url(#SF_SVGID_48_)" fill="#897F76" d="M437.813,319.37c1.079-5.394,9.35-51.063,11.147-59.693
							c1.799-8.631,9.709-37.759,11.148-45.67c1.015-5.583,1.313-13.668,1.401-17.946c-0.792-0.548-1.282-0.906-1.282-0.906
							s-18.245-6.082-43.922-16.217c-25.677-10.135-46.624-28.38-50.004-31.083c-3.378-2.703-3.378-4.73-6.757-6.757
							c-2.236-1.342-3.593-4.46-6.21-7.396l-1.374,0.48c2.193,2.097,4.212,4.535,4.387,6.1c0.14,1.263-5.731,5.864-15.413,9.885
							c0.784,1.624,1.35,3.158,1.44,4.338c0.348,4.531,0,4.183,0,10.806s2.439,13.245,6.622,23.005
							c4.184,9.76,8.714,4.531,11.852,18.475c3.138,13.942-15.685,11.502-15.685,11.502s17.079,2.44,35.901,1.394
							c18.823-1.046,14.64,0,27.886-1.394c13.245-1.395,13.245-3.486,33.463,2.091c20.217,5.577,4.879,18.125,3.485,32.417
							c-1.395,14.292-21.61,12.2-27.537,19.868c-5.926,7.668-2.091,67.274-1.395,73.896c0.697,6.623-13.594,18.125-13.594,18.125
							s-3.834,11.156-6.274,19.521c-2.44,8.365,3.834,25.794,3.485,44.616c-0.348,18.823-17.428,43.571-23.354,57.165
							c-5.926,13.595-1.395,26.841,8.365,56.47c9.761,29.627,3.835,3.834,11.154,12.896c7.32,9.063,3.834,5.577,7.669,18.475
							c3.834,12.896,5.228,32.418,5.228,32.418s1.395,20.215,6.274,38.689c4.88,18.474,2.789,10.108,15.338,20.914l3.975,1.472
							c3.709-2.759,4.046-5.248,4.046-5.248v-4.731c0,0,1.352-6.081,1.352-8.784s-2.702-5.405-2.702-5.405s0-15.541-2.028-36.489
							c-2.027-20.946-10.136-69.599-13.515-87.843c-3.378-18.245,0.677-61.491,4.055-78.384c3.379-16.894,8.109-71.626,7.433-80.411
							c-0.581-7.557,2.336-24.603,3.163-29.223C437.022,327.708,437.124,322.809,437.813,319.37"/>
					</g>
				</g>
				<g opacity="0.1" clip-path="url(#SF_SVGID_46_)">
					<g>
						<defs>
							<rect id="SF_SVGID_49_" x="146.517" y="136.322" width="135.995" height="536.391"/>
						</defs>
						<clipPath id="SF_SVGID_50_">
							<use xlink:href="#SF_SVGID_49_"  overflow="visible"/>
						</clipPath>
						<path clip-path="url(#SF_SVGID_50_)" fill="#897F76" d="M280.322,152.323c-15.606-4.714-27.005-11.627-27.528-12.671
							c-0.255-0.511,0.228-1.583,1.122-2.831c-0.367-0.176-0.72-0.345-1.042-0.499c-1.44,2.014-2.577,3.834-4.146,4.776
							c-3.378,2.027-3.378,4.054-6.757,6.757c-3.378,2.703-24.325,20.947-50.003,31.083c-25.677,10.136-43.922,16.217-43.922,16.217
							s-0.597,0.433-1.528,1.074c0.091,4.32,0.396,12.268,1.398,17.777c1.438,7.912,9.35,37.04,11.147,45.67
							c1.798,8.63,10.069,54.3,11.147,59.693c0.611,3.055,0.76,7.264,0.775,10.339c0.021-0.054,0.034-0.086,0.034-0.086
							s4.055,21.624,3.378,30.408c-0.675,8.785,4.055,63.517,7.434,80.411c3.377,16.893,7.432,60.139,4.053,78.384
							c-3.378,18.244-11.487,66.896-13.514,87.843c-2.028,20.948-2.028,36.489-2.028,36.489s-2.702,2.702-2.702,5.405
							s1.351,8.785,1.351,8.785v4.73c0,0,0.96,7.144,17.667,10.635c1.428-8.119,3.55-22.399,2.346-29.864
							c-1.742-10.805,1.395-8.714,6.274-16.034c4.879-7.319,3.834-31.719,4.531-61c0.696-29.279,55.771-14.988,55.771-14.988
							s4.53-6.274,3.833-14.987c-0.697-8.714-28.233-47.057-33.462-55.771c-5.229-8.714,2.79-7.668,2.79-7.668
							s-7.67-3.485-10.807-20.565c-3.137-17.08,5.229-37.994,12.897-56.119s29.977-36.948,29.977-36.948s-24.052,3.834-47.056-6.623
							c-23.006-10.457-24.4-28.234-27.537-82.958c-3.138-54.725,2.091-65.531,14.639-66.229
							c12.548-0.697,56.816,13.943,63.439,16.732c0,0,4.183-8.714,2.789-13.943c-1.394-5.229,2.789-13.594,7.669-22.657
							c4.879-9.063,4.879-4.88,6.623-6.274s0.349-9.411-0.697-11.851c-1.046-2.441-0.349-3.138,1.743-8.715
							C282.804,155.227,281.955,153.864,280.322,152.323"/>
					</g>
				</g>
				<g opacity="0.12" clip-path="url(#SF_SVGID_46_)">
					<g>
						<defs>
							<rect id="SF_SVGID_51_" x="107.092" y="240.602" width="62.394" height="89.582"/>
						</defs>
						<clipPath id="SF_SVGID_52_">
							<use xlink:href="#SF_SVGID_51_"  overflow="visible"/>
						</clipPath>
						<path clip-path="url(#SF_SVGID_52_)" fill="#897F76" d="M154.497,297.767c-1.743-2.788-42.176-57.165-42.176-57.165
							s0.697,5.228,3.486,11.154c2.789,5.926,31.022,41.479,31.022,41.479s-25.446-27.885-26.839-29.627
							c-1.395-1.743-12.897-10.807-12.897-9.412s8.714,10.806,15.685,17.429c6.971,6.623,21.262,20.915,27.885,31.022
							c6.624,10.109,18.823,27.537,18.823,27.537s-2.44-10.109-4.184-14.292C163.559,311.709,156.239,300.556,154.497,297.767"/>
					</g>
				</g>
				<g opacity="0.12" clip-path="url(#SF_SVGID_46_)">
					<g>
						<defs>
							<rect id="SF_SVGID_53_" x="115.109" y="232.236" width="27.188" height="31.371"/>
						</defs>
						<clipPath id="SF_SVGID_54_">
							<use xlink:href="#SF_SVGID_53_"  overflow="visible"/>
						</clipPath>
						<path clip-path="url(#SF_SVGID_54_)" fill="#897F76" d="M126.96,249.316c-2.439-3.486-11.851-17.08-11.851-17.08
							s3.833,14.291,11.502,21.611c7.668,7.32,15.686,9.76,15.686,9.76S129.4,252.802,126.96,249.316"/>
					</g>
				</g>
				<g opacity="0.12" clip-path="url(#SF_SVGID_46_)">
					<g>
						<defs>
							<rect id="SF_SVGID_55_" x="442.065" y="251.06" width="63.438" height="63.788"/>
						</defs>
						<clipPath id="SF_SVGID_56_">
							<use xlink:href="#SF_SVGID_55_"  overflow="visible"/>
						</clipPath>
						<path clip-path="url(#SF_SVGID_56_)" fill="#897F76" d="M504.109,251.059c0,0-4.531,9.063-8.364,16.034
							c-3.835,6.972-20.217,20.217-28.932,25.097c-8.714,4.88-24.748,22.658-24.748,22.658s7.319-1.395,11.851-4.88
							s33.462-14.988,44.617-31.022C509.688,262.91,504.109,251.059,504.109,251.059"/>
					</g>
				</g>
				<g opacity="0.12" clip-path="url(#SF_SVGID_46_)">
					<g>
						<defs>
							<rect id="SF_SVGID_57_" x="447.989" y="304.041" width="50.544" height="20.785"/>
						</defs>
						<clipPath id="SF_SVGID_58_">
							<use xlink:href="#SF_SVGID_57_"  overflow="visible"/>
						</clipPath>
						<path clip-path="url(#SF_SVGID_58_)" fill="#897F76" d="M476.225,317.635c-9.761,2.79-28.234,6.275-28.234,6.275
							s13.245,3.486,29.629-3.137c16.383-6.624,20.914-16.732,20.914-16.732S485.984,314.847,476.225,317.635"/>
					</g>
				</g>
				<g opacity="0.12" clip-path="url(#SF_SVGID_46_)">
					<g>
						<defs>
							<rect id="SF_SVGID_59_" x="453.576" y="257.589" width="37.289" height="36.31"/>
						</defs>
						<clipPath id="SF_SVGID_60_">
							<use xlink:href="#SF_SVGID_59_"  overflow="visible"/>
						</clipPath>
						<path clip-path="url(#SF_SVGID_60_)" fill="#897F76" d="M477.271,262.213c-6.623,7.668-8.715,10.457-14.64,13.942
							c-5.77,3.395-8.896,17.027-9.056,17.743c0.14-0.62,2.354-9.855,10.102-13.561c8.017-3.834,13.594-3.486,17.428-10.108
							c3.835-6.622,9.761-11.502,9.761-11.502S483.894,254.544,477.271,262.213"/>
					</g>
				</g>
			</g>
		</g>
	</g>
</g>  
</svg>
