<?xml version="1.0" encoding="utf-8"?>
<!-- Generator: Adobe Illustrator 22.1.0, SVG Export Plug-In . SVG Version: 6.00 Build 0)  -->
<svg version="1.1" id="Layer_1" xmlns="http://www.w3.org/2000/svg" xmlns:xlink="http://www.w3.org/1999/xlink" x="0px" y="0px"
	 viewBox="0 0 632 1035.881" enable-background="new 0 0 800.453 1035.881" xml:space="preserve">
<path opacity="0.2" d="M546.149,215.426c-0.055,0.562-0.1,1.117-0.133,1.658c0.396-0.951,0.91-1.485,0.91-1.485
	S546.642,215.535,546.149,215.426z"/>
<path d="M124.047,106.488c0,0.408,0.09,0.813,0.231,1.216c-0.058-0.581-0.116-1.162-0.173-1.743
	C124.078,106.137,124.047,106.312,124.047,106.488z"/>
<path opacity="0.2" d="M551.597,209.697c-0.055,0.567-0.101,1.125-0.134,1.67c0.399-0.958,0.917-1.496,0.917-1.496
	S552.093,209.806,551.597,209.697z"/>
<path d="M628.454,95.276c0,0.424-0.093,0.845-0.238,1.265c0.06-0.604,0.119-1.208,0.179-1.813
	C628.422,94.911,628.454,95.093628.454,95.276z"/>
<path d="M116.19,90.513c0,0.422,0.093,0.841,0.238,1.258c-0.06-0.601-0.12-1.201-0.179-1.802
	C116.222,90.15,116.19,90.331,116.19,90.513z"/>
<path fill="none" d="M274.389,206.162c0.06,0.092,0.135,0.342,0.216,0.659C274.473,206.417,274.389,206.162,274.389,206.162z"/>
<g>
	
		<image overflow="visible" opacity="0.2" width="732" height="750" xlink:href="/svg/SCKPOLO/949A4ED3.png"  transform="matrix(1 0 0 1 5.4531 157.8809)">
	</image>
	<g>
		<g>
      <g id="MASKB">
        <g id="BODYSHAPE">
			<path fill="#004D2A" d="M178.953,604.669c0-3.415-1.473-27.015-1.805-29.048c-0.332-2.049,1.555-13.599,0.556-18.377
				c-0.997-4.762,1.249-15.383,1.249-15.383s-22.395,10.594-27.04,11.62c-4.645,1.023-15.449,11.452-15.449,11.452
				s-11.782-24.395-22.071-35.301c-10.301-10.892-41.293-45.82-52.913-55.703c-11.632-9.87-40.413-26.721-40.413-26.721
				s16.279-20.777,23.917-29.621c7.641-8.86,121.507-124.367,121.507-124.367c7.315-4.567,61.875-32.077,61.875-32.077l2.746-0.783
				c20.036-10.763,36.89-21.854,36.89-21.854s12.405-13.048,15.266-15.656c2.861-2.609,9.54-7.176,9.54-7.176
				s7.315-21.854,12.405-25.442c5.086-3.588,21.624-10.437,28.939-12.069c7.315-1.631,48.975-6.848,67.738-3.913
				c18.763,2.935,47.07,16.635,48.658,17.939c1.589,1.305,9.222,12.068,10.178,15.33c0.954,3.262,2.861,10.111,2.861,10.111v2.284
				c0,0,9.224,7.502,10.494,10.111c1.272,2.609,2.863,5.219,4.135,7.175c1.271,1.958,6.997,7.176,6.997,7.176l17.481,7.871
				c20.036,10.764,72.343,37.259,75.843,38.89l27.147,23.596c9.762,11.144,35.815,35.701,52.466,59.832
				c16.653,24.114,47.056,61.231,47.056,61.231s3.61,2.232,5.063,3.348c1.45,1.116,3.247,4.82,3.247,4.82l8.326,7.423
				c0,0-22.801,20.8-41.254,38.978c-18.463,18.194-35.949,29.926-36.316,36.231c-0.361,6.31-13.983,30.543-17.975,30.914
				c-3.972,0.375-27.866-6.308-34.013-15.219c-6.152-8.911-9.415-14.848-13.749-13.357c-4.354,1.47-4.557,7.795-8.533,7.795
				c-3.974,0-7.963-2.605-8.687-4.091c-0.726-1.489-1.813-5.937-2.887-5.566c-1.087,0.371-3.628,0.745-4.352,4.821
				c-0.726,4.09,0.133,65.985-0.593,69.689l-0.306,3.622c0,3.4,1.251,49.01,1.251,60.243l2.498,57.679
				c2.861,42.405,7.016,138.364,7.016,138.364s-40.826,20.512-68.321,26.492c-27.495,5.984-169.137,8.548-230.794-5.125
				c-61.654-13.673-97.483-18.802-99.149-23.072c-1.667-4.274,2.5-39.31,2.5-39.31s9.998-134.164,9.998-140.148l2.276-55.649
				C180.669,623.05,178.953,604.669,178.953,604.669z"/>
        </g>
        </g>
    
		</g>
	</g>
</g>
  <g>
	<g>
	
	</g>
	<g>
    <g id="SLEEVES">
		<path fill="#FDBB2D" d="M178.953,541.862c0,0-22.395,10.594-27.04,11.62c-4.645,1.023-15.449,11.452-15.449,11.452
			s-11.782-24.395-22.071-35.301c-10.301-10.892-41.293-45.82-52.913-55.703c-11.632-9.87-40.413-26.721-40.413-26.721
			s16.279-20.777,23.917-29.621c7.641-8.86,121.507-124.367,121.507-124.367s2.453,36.779,4.081,81.98
			c0.97,26.951,1.649,56.897,1.341,83.828c-0.277,24.207,7.773,45.877,11.034,61.049
			C184.112,525.489,178.953,541.862,178.953,541.862z"/>
      	<path fill="#FDBB2D" d="M578.537,291.14c3.478-3.478,27.147,23.596,27.147,23.596c9.762,11.144,35.815,35.701,52.466,59.832
			c16.653,24.114,47.056,61.231,47.056,61.231s3.61,2.232,5.063,3.348c1.45,1.116,3.247,4.82,3.247,4.82l8.326,7.423
			c0,0-22.801,20.8-41.254,38.978c-18.463,18.194-35.949,29.926-36.316,36.231c-0.361,6.31-13.983,30.543-17.975,30.914
			c-3.972,0.375-27.866-6.308-34.013-15.219c-6.152-8.911-9.415-14.848-13.749-13.357c-4.354,1.47-4.557,7.795-8.533,7.795
			c-3.974,0-7.963-2.605-8.687-4.091c-0.726-1.489-1.813-5.937-2.887-5.566c-1.087,0.371-3.628,0.745-4.352,4.821l4.77-13.529
			c0,0-8.728-45.343-8.786-58.724c-0.094-21.321,9.026-70.109,7.079-90.518C554.94,346.075,572.896,296.78,578.537,291.14z"/>
	</g>
    </g>
</g>
    <g id="CUSTOM"></g>

<g>
  <g id="COLLAR">
	<path fill="#BF2A43" d="M268.003,238.507c0,0,12.405-13.048,15.266-15.656c2.861-2.609,9.54-7.176,9.54-7.176
		s7.315-21.854,12.405-25.442c5.086-3.588,21.624-10.437,28.939-12.069c7.315-1.631,48.975-6.848,67.738-3.913
		c18.763,2.935,47.07,16.635,48.658,17.939c1.589,1.305,9.222,12.068,10.178,15.33c0.954,3.262,2.861,10.111,2.861,10.111v2.284
		c0,0,9.224,7.502,10.494,10.111c1.272,2.609,2.863,5.219,4.135,7.175c1.271,1.958,6.997,7.176,6.997,7.176
		s-23.4-26.115-111.14-28.761c-38.494-1.161-55.208,1.635-71.461,6.586C275.808,230.369,268.003,238.507,268.003,238.507z"/>
</g>
  </g>
<g>
	
		<radialGradient id="SVGB_SVGID_1_" cx="154.9464" cy="439.4851" r="60.6158" gradientTransform="matrix(0.975 0 0 1 15.1597 0)" gradientUnits="userSpaceOnUse">
		<stop  offset="0" style="stop-color:#897F76"/>
		<stop  offset="1" style="stop-color:#000000"/>
	</radialGradient>
	<path opacity="0.12" fill="url(#SVGB_SVGID_1_)" d="M178.953,541.862c0,0,4.424-14.147,3.962-19.84
		c-0.462-5.695-4.627-13.761-6.94-16.609c-2.313-2.847-12.953-15.658-13.878-20.404c-0.925-4.744-3.24-77.341-7.865-77.816
		c-4.625-0.474-9.715,13.287-9.715,13.287s7.403-0.475,9.253,10.913c1.852,11.388,1.852,25.148,2.313,27.52
		c0.462,2.372,2.313,20.877,2.313,20.877s9.717,25.149,13.418,31.792c3.7,6.643,5.55,13.759,6.015,18.504
		C178.288,534.832,178.953,541.862,178.953,541.862z"/>
	
		<radialGradient id="SVGB_SVGID_2_" cx="171.8699" cy="444.6323" r="32.2832" gradientTransform="matrix(0.975 0 0 1 15.1597 0)" gradientUnits="userSpaceOnUse">
		<stop  offset="0" style="stop-color:#897F76"/>
		<stop  offset="1" style="stop-color:#000000"/>
	</radialGradient>
	<path opacity="0.1" fill="url(#SVGB_SVGID_2_)" d="M174.125,477.417c0,0-2.775-8.54-0.462-15.658
		c2.313-7.118,15.728-23.724,15.728-23.724s-12.028,29.418-12.028,37.01c0,7.592,1.852,18.03,3.702,27.52
		C182.915,512.056,174.125,477.417,174.125,477.417z"/>
	
		<radialGradient id="SVGB_SVGID_3_" cx="99.0665" cy="401.8537" r="90.366" gradientTransform="matrix(0.975 0 0 1 15.1597 0)" gradientUnits="userSpaceOnUse">
		<stop  offset="0" style="stop-color:#897F76"/>
		<stop  offset="1" style="stop-color:#000000"/>
	</radialGradient>
	<path opacity="0.1" fill="url(#SVGB_SVGID_3_)" d="M107.045,369.235c0,0,0.462,34.162,9.715,58.837
		c9.251,24.673,46.724,93.949,46.724,93.949l1.388,4.742c0,0-43.485-73.545-51.352-99.642
		C105.657,401.025,107.045,369.235,107.045,369.235z"/>
	
		<radialGradient id="SVGB_SVGID_4_" cx="539.8011" cy="409.6661" r="92.6988" gradientTransform="matrix(0.975 0 0 1 15.1597 0)" gradientUnits="userSpaceOnUse">
		<stop  offset="0" style="stop-color:#897F76"/>
		<stop  offset="1" style="stop-color:#000000"/>
	</radialGradient>
	<path opacity="0.08" fill="url(#SVGB_SVGID_4_)" d="M574.774,365.003c0,0,19.996,57.254,14.998,76.054
		c-5,18.801-27.497,63.238-29.997,73.492c-2.5,10.256-4.836,14.497-4.836,14.497s30.666-29.023,31.497-40.134
		c0.833-11.109,4.167-29.909,5.832-35.037c1.669-5.127,2.502-19.654,2.502-19.654L574.774,365.003z"/>
	
		<radialGradient id="SVGB_SVGID_5_" cx="370.7162" cy="231.5551" r="79.2847" gradientTransform="matrix(0.975 0 0 1 15.1597 0)" gradientUnits="userSpaceOnUse">
		<stop  offset="0" style="stop-color:#897F76"/>
		<stop  offset="0.148" style="stop-color:#7C736B"/>
		<stop  offset="0.4217" style="stop-color:#5A534D"/>
		<stop  offset="0.788" style="stop-color:#23201E"/>
		<stop  offset="1" style="stop-color:#000000"/>
	</radialGradient>
	<path opacity="0.12" fill="url(#SVGB_SVGID_5_)" d="M268.003,238.507c0,0,29.259-15.334,78.721-16.572
		c55.948-1.399,101.321,4.549,107.12,6.999c5.8,2.449,31.369,15.445,31.369,15.445s-18.406-15.795-48.766-21.742
		c-30.364-5.949-117.015-4.2-132.708-0.702C288.046,225.435,268.003,238.507,268.003,238.507z"/>
	
		<radialGradient id="SVGB_SVGID_6_" cx="236.5406" cy="773.7595" r="87.533" gradientTransform="matrix(0.975 0 0 1 15.1597 0)" gradientUnits="userSpaceOnUse">
		<stop  offset="0" style="stop-color:#897F76"/>
		<stop  offset="1" style="stop-color:#000000"/>
	</radialGradient>
	<path opacity="0.03" fill="url(#SVGB_SVGID_6_)" d="M264.859,864.449c0,0-0.494-24.841,7.414-31.433
		c7.908-6.589,18.289-23.322,22.739-40.052c4.448-16.729,4.941-60.329,4.941-60.329s-7.414,60.329-23.23,78.581
		c-15.818,18.252-30.647,35.489-28.176,41.574C251.02,858.871,264.859,864.449,264.859,864.449z"/>
	
		<radialGradient id="SVGB_SVGID_7_" cx="526.0889" cy="788.7243" r="58.4177" gradientTransform="matrix(0.975 0 0 1 15.1597 0)" gradientUnits="userSpaceOnUse">
		<stop  offset="0" style="stop-color:#897F76"/>
		<stop  offset="1" style="stop-color:#000000"/>
	</radialGradient>
	<path opacity="0.05" fill="url(#SVGB_SVGID_7_)" d="M519.422,746.499c-2.471,1.518-10.873,118.633-10.873,118.633
		s11.862-48.167,12.356-68.444C521.399,776.41,519.422,746.499,519.422,746.499z"/>
	
		<radialGradient id="SVGB_SVGID_8_" cx="525.6326" cy="582.0353" r="96.5257" gradientTransform="matrix(0.975 0 0 1 15.1597 0)" gradientUnits="userSpaceOnUse">
		<stop  offset="0" style="stop-color:#897F76"/>
		<stop  offset="1" style="stop-color:#000000"/>
	</radialGradient>
	<path opacity="0.05" fill="url(#SVGB_SVGID_8_)" d="M519.917,564.829c0,0,14.335,119.644,16.31,153.106
		c1.979,33.459,2.473,52.218,2.473,52.218s6.425-118.633,1.483-144.488C535.24,599.81,519.917,564.829,519.917,564.829z"/>
	
		<radialGradient id="SVGB_SVGID_9_" cx="608.0412" cy="384.7533" r="54.4318" gradientTransform="matrix(0.975 0 0 1 15.1597 0)" gradientUnits="userSpaceOnUse">
		<stop  offset="0" style="stop-color:#897F76"/>
		<stop  offset="1" style="stop-color:#000000"/>
	</radialGradient>
	<path opacity="0.08" fill="url(#SVGB_SVGID_9_)" d="M628.93,386.262c11.323-0.508-20.89,90.985-20.89,90.985s-0.991-38.122,5.451-57.945
		C619.933,399.477,628.93,386.262,628.93,386.262z"/>
	
		<radialGradient id="SVGB_SVGID_10_" cx="613.1483" cy="451.2791" r="53.1132" gradientTransform="matrix(0.975 0 0 1 15.1597 0)" gradientUnits="userSpaceOnUse">
		<stop  offset="0" style="stop-color:#897F76"/>
		<stop  offset="1" style="stop-color:#000000"/>
	</radialGradient>
	<path opacity="0.12" fill="url(#SVGB_SVGID_10_)" d="M616.463,494.02c0,0,19.329-36.597,26.267-52.862
		c6.938-16.265,8.425-22.365,8.425-22.365s-3.546,32.023-12.887,48.796C628.93,484.363,616.463,494.02,616.463,494.02z"/>
	<path fill="none" stroke="#7A726F" stroke-width="0.3298" stroke-dasharray="0.0819,1.2284" d="M152.645,552.611
		c0,0-11.197-14.555-18.384-23.556c-7.188-9.003-29.716-37.144-37.142-42.441c-7.432-5.299-21.015-19.528-28.824-26.98
		c-7.806-7.451-18.948-19.385-22.354-22.811c-3.406-3.424-8.632-10.698-8.632-10.698"/>
	<path fill="none" stroke="#7A726F" stroke-width="0.3298" stroke-dasharray="0.0819,1.2284" d="M158.887,551.046
		c0,0-9.951-14.985-17.301-24.222c-7.352-9.237-30.395-38.107-38.045-43.596c-7.643-5.484-21.574-20.12-29.585-27.794
		c-8.011-7.671-19.432-19.944-22.926-23.467c-3.494-3.526-8.829-10.979-8.829-10.979"/>
	<path fill="none" stroke="#7A726F" stroke-width="0.3298" stroke-dasharray="0.0772,1.1576" d="M704.72,435.312
		c0,0-37.879,29.954-50.298,43.147c-12.415,13.193-27.415,28.272-28.449,31.099c-1.038,2.826-3.105,12.251-4.139,18.375
		c-1.032,6.124-2.586,9.893-6.206,16.962c-3.622,7.069-5.461,8.576-5.461,8.576"/>
	<path fill="none" stroke="#7A726F" stroke-width="0.3298" stroke-dasharray="0.0772,1.1576" d="M710.269,439.148
		c-38.651,30.979-38.178,30.276-50.675,43.553c-12.412,13.192-27.415,28.271-28.447,31.098c-1.038,2.826-3.105,12.25-4.139,18.375
		c-1.034,6.124-2.588,9.895-6.206,16.964c-3.624,7.065-3.497,6.686-3.497,6.686"/>
	<path fill="none" stroke="#D7D3D0" stroke-width="0.4739" stroke-linejoin="round" stroke-dasharray="0.7108,0.2369" d="
		M166.674,292.392c0,0,2.332,16.682,2.332,40.751c1.838,24.07,2.972,50.965,2.76,73.151c-0.156,16.449-1.792,37.658,1.224,64.77
		c1.647,14.82,5.506,28.44,9.944,49.893c0.269,6.667-3.979,20.904-3.979,20.904"/>
	<path fill="none" stroke="#D7D3D0" stroke-width="0.4739" stroke-linejoin="round" stroke-dasharray="0.7108,0.2369" d="
		M578.537,291.14c0,0-22.547,49.082-22.547,73.151c1.842,24.071-4.389,49.079-4.602,71.264c-0.242,25.44-5.744,29.443,7.598,81.357
		c-0.006,4.428-4.729,13.857-4.729,13.857"/>
	<path fill="none" stroke="#7A726F" stroke-width="0.3298" stroke-dasharray="0.0819,0.9656" d="M166.227,831.868
		c0,0,16.89,5.519,29.897,9.22c11.355,3.228,23.043,11.565,49.025,15.465c43.309,6.495,114.349,15.242,148.102,13.966
		c60.087-2.276,89.967-6.499,113.025-11.37c11.195-2.365,56.188-24.684,56.188-24.684"/>
	<path fill="none" stroke="#7A726F" stroke-width="0.3298" stroke-dasharray="0.0819,0.9656" d="M166.227,838.051
		c0,0,16.89,5.519,29.897,9.22c11.355,3.228,23.043,11.565,49.025,15.465c43.309,6.495,114.349,15.242,148.102,13.966
		c60.087-2.276,89.967-6.499,113.025-11.37c11.195-2.365,56.188-24.68,56.188-24.68"/>
</g>
<g>
	<g>
		<g>
			<path d="M375.17,250.014l-0.252,0.003l-14.397-0.095c-4.329-0.028-7.826-3.572-7.799-7.898c0.027-4.263,3.384-7.688,7.643-7.795
				l0.254-0.003l14.399,0.092c4.327,0.027,7.826,3.571,7.799,7.898C382.789,246.48,379.432,249.905,375.17,250.014z
				 M360.388,235.074c-3.802,0.097-6.795,3.151-6.819,6.955c-0.027,3.86,3.095,7.022,6.956,7.048l14.626,0.091
				c3.798-0.096,6.794-3.152,6.819-6.957c0.023-3.859-3.099-7.022-6.956-7.046L360.388,235.074z"/>
		</g>
		<g>
			<path d="M355.433,242.019c0.017-2.868,2.262-5.197,5.08-5.37l-0.068,10.806C357.628,247.246,355.415,244.886,355.433,242.019z"/>
			<polygon fill-rule="evenodd" clip-rule="evenodd" points="366.083,241.38 361.411,236.643 366.114,236.673 			"/>
			<polygon fill-rule="evenodd" clip-rule="evenodd" points="366.075,242.796 361.34,247.472 366.044,247.502 			"/>
		</g>
		<g>
			<polygon fill-rule="evenodd" clip-rule="evenodd" points="371.992,241.419 376.727,236.741 372.02,236.71 			"/>
			<polygon fill-rule="evenodd" clip-rule="evenodd" points="371.981,242.833 376.661,247.569 371.949,247.54 			"/>
			<g>
				<rect x="363.618" y="240.151" transform="matrix(0.006 -1 1 0.006 124.7227 609.6833)" width="10.83" height="3.909"/>
				<path d="M369.034,242.105"/>
			</g>
		</g>
	</g>
</g>
</svg>
