<?xml version="1.0" encoding="utf-8"?>
<!-- Generator: Adobe Illustrator 19.1.0, SVG Export Plug-In . SVG Version: 6.00 Build 0)  -->
<!DOCTYPE svg PUBLIC "-//W3C//DTD SVG 1.1//EN" "http://www.w3.org/Graphics/SVG/1.1/DTD/svg11.dtd">
<svg version="1.1" xmlns="http://www.w3.org/2000/svg" xmlns:xlink="http://www.w3.org/1999/xlink" x="0px" y="0px"
	 viewBox="0 0 612 1006" enable-background="new 0 0 612 1006" xml:space="preserve">
<g id="BODY">
	<path fill="#FFFFFF" stroke="#897F76" stroke-width="0.25" d="M447.3,214.4c-72.1,9.1-141.7,3.7-141.7,3.7c0,0-122.6,0.1-149.1-4.2
		c-26.5-4.3-84.9-26.2-84.9-26.2s4.3,36.3,2.1,39.6c-2.2,3.2-17.1,47.2-17.7,51.7c-0.6,4.5-10.1,38.8-13.5,56.9
		c-3.4,18.1-9.6,48.5-9.6,48.5v24.6c0,0-10.7,63.4-10.1,80.2c0.6,16.8,1.7,42.1,0,52.4c-1.7,10.4,1.7,31.7,1.7,38.2
		c0,6.5,0,29.8-1.7,36.2c-1.7,6.5-4.5,30.4-4.5,30.4s7.3,6.5,10.1,11c2.8,4.5,31.5,37.5,46.7,42.7c15.2,5.2,52.8,20.1,106.2,25.2
		c53.4,5.2,68.6,3.2,88.2-3.2c19.7-6.5,27-14.9,29.2-16.8c2.2-1.9,9-12.9,9-12.9l5.6-11c0,0,5.6,24.6,10.1,30.4
		c4.5,5.8,14,14.9,46.1,18.8c32,3.9,73.1,8.4,114.7-2.6c41.6-11,77-28.5,86.6-37.5c9.6-9.1,14.1-16.2,14.1-16.2s0-118.4-2.2-174.7
		c-2.2-56.3-10.7-161.1-16.9-193.5c-6.2-32.4-22.4-111.4-22.4-111.4S519.4,205.4,447.3,214.4z"/>
</g>
<g id="CUSTOM">
</g>
<g id="SHADING_x2F_DETAIL">
	
		<radialGradient id="SVGBACKID_1_" cx="81.2697" cy="227.6143" r="119.5025" gradientTransform="matrix(1 0 0 1.1513 0 -19.9188)" gradientUnits="userSpaceOnUse">
		<stop  offset="0" style="stop-color:#FFFFFF"/>
		<stop  offset="1" style="stop-color:#000000"/>
	</radialGradient>
	<path opacity="0.1" fill="url(#SVGBACKID_1_)" d="M89.1,253.8c0,0-9.6,44.7-14.6,58.9c-5.1,14.2-14.1,31.7-14.1,31.7
		s15.7-48.5,17.4-57.6C79.6,277.8,89.1,253.8,89.1,253.8z"/>
	
		<radialGradient id="SVGBACKID_2_" cx="46.3536" cy="260.2782" r="137.785" gradientTransform="matrix(1 0 0 1.1513 0 -19.9188)" gradientUnits="userSpaceOnUse">
		<stop  offset="0" style="stop-color:#FFFFFF"/>
		<stop  offset="1" style="stop-color:#000000"/>
	</radialGradient>
	<path opacity="5.000000e-002" fill="url(#SVGBACKID_2_)" d="M55.4,295.9c0,0,1.1,48.5,0.6,53.7c-0.6,5.2,3.9,33,5.1,40.1
		c1.1,7.1,7.3,77.7,7.3,77.7s-18-45.3-18.5-53.1c-0.6-7.8,2.8-55.7,2.8-55.7L55.4,295.9z"/>
	
		<radialGradient id="SVGBACKID_3_" cx="39.5968" cy="351.5101" r="181.7994" gradientTransform="matrix(1 0 0 1.1513 0 -19.9188)" gradientUnits="userSpaceOnUse">
		<stop  offset="0" style="stop-color:#FFFFFF"/>
		<stop  offset="1" style="stop-color:#000000"/>
	</radialGradient>
	<path opacity="5.000000e-002" fill="url(#SVGBACKID_3_)" d="M34.6,409.1c0,0,13.5,80.9,16.9,91.2c3.4,10.4,41,100.3,41,100.3
		s-6.7,13.6-13.5,3.2c-6.7-10.4-34.8-94.5-34.8-101.6C44.2,495.2,34.6,409.1,34.6,409.1z"/>
	
		<radialGradient id="SVGBACKID_4_" cx="11.4384" cy="450.6268" r="166.0906" gradientTransform="matrix(1 0 0 1.1513 0 -19.9188)" gradientUnits="userSpaceOnUse">
		<stop  offset="0" style="stop-color:#FFFFFF"/>
		<stop  offset="1" style="stop-color:#000000"/>
	</radialGradient>
	<path opacity="0.1" fill="url(#SVGBACKID_4_)" d="M25.6,499.1c0,0,32,119.7,36.5,131.4c4.5,11.6,12.4,32.4,17.4,39.5
		c5.1,7.1,5.6,7.3,5.6,7.3s-10.7-3.4-13.5-5.4c-2.8-1.9-45.5-161.8-45.5-161.8L25.6,499.1z"/>
	
		<radialGradient id="SVGBACKID_5_" cx="246.8332" cy="261.4047" r="146.2397" gradientTransform="matrix(1 0 0 1.1513 0 -19.9188)" gradientUnits="userSpaceOnUse">
		<stop  offset="0" style="stop-color:#FFFFFF"/>
		<stop  offset="1" style="stop-color:#000000"/>
	</radialGradient>
	<path opacity="5.000000e-002" fill="url(#SVGBACKID_5_)" d="M267.3,277.8c0,0,16.9,119.1,19.1,128.1c2.2,9.1,3.4,33.6,1.7,40.1
		c-1.7,6.5-9.6,7.8-11.2,7.8c-1.7,0-12.9-176.7-12.9-176.7L267.3,277.8z"/>
	
		<radialGradient id="SVGBACKID_6_" cx="508.1312" cy="202.8356" r="104.8145" gradientTransform="matrix(1 0 0 1.1513 0 -19.9188)" gradientUnits="userSpaceOnUse">
		<stop  offset="0" style="stop-color:#FFFFFF"/>
		<stop  offset="1" style="stop-color:#000000"/>
	</radialGradient>
	<path opacity="0.1" fill="url(#SVGBACKID_6_)" d="M529.2,239.6c0,0-1.1,28.5,1.7,43.4c2.8,14.9,8.4,34.9,8.4,34.9L529.2,239.6z"/>
	
		<radialGradient id="SVGBACKID_7_" cx="575.5776" cy="440.6956" r="26.428" gradientTransform="matrix(1 0 0 1.1513 0 -19.9188)" gradientUnits="userSpaceOnUse">
		<stop  offset="0" style="stop-color:#FFFFFF"/>
		<stop  offset="1" style="stop-color:#000000"/>
	</radialGradient>
	<polygon opacity="0.1" fill="url(#SVGBACKID_7_)" points="579.9,444.8 570.8,530.1 580.4,464.1 	"/>
	
		<radialGradient id="SVGBACKID_8_" cx="568.9525" cy="441.6175" r="97.5153" gradientTransform="matrix(1 0 0 1.1513 0 -19.9188)" gradientUnits="userSpaceOnUse">
		<stop  offset="0" style="stop-color:#FFFFFF"/>
		<stop  offset="1" style="stop-color:#000000"/>
	</radialGradient>
	<path opacity="0.1" fill="url(#SVGBACKID_8_)" d="M581.5,492.6c0,0-13.5,75.1-15.7,82.8c-2.2,7.8-2.8,28.5-2.8,28.5l19.7-104.2
		L581.5,492.6z"/>
	
		<radialGradient id="SVGBACKID_9_" cx="555.4383" cy="620.7043" r="129.722" gradientTransform="matrix(1 0 0 1.1513 0 -19.9188)" gradientUnits="userSpaceOnUse">
		<stop  offset="0" style="stop-color:#FFFFFF"/>
		<stop  offset="1" style="stop-color:#000000"/>
	</radialGradient>
	<path opacity="0.1" fill="url(#SVGBACKID_9_)" d="M579.2,541.1c0,0-21.4,97.1-24.2,104.8c-2.8,7.8-18.5,33-18.5,33s18-18.1,20.2-23.9
		c2.2-5.8,24.2-106.8,24.2-106.8s4.5,78.9-1.7,93.2c-6.2,14.2-5.9,20.2-5.9,20.2l11.5-11.8l-1.7-128.8L579.2,541.1z"/>
	<path opacity="0.2" fill="none" stroke="#524B48" stroke-width="0.5" d="M20.6,627.2c0,0,6.2,3.9,9,8.4
		c2.8,4.5,20.8,25.9,34.8,33.6c14.1,7.8,86,29.8,130.4,31.7c44.4,1.9,80.9-3.2,89.4-7.1c8.4-3.9,14.6-10.4,16.3-12.9
		c1.7-2.6,7.3-14.9,7.3-14.9l4.7-10.4"/>
	<path opacity="0.2" fill="none" stroke="#524B48" stroke-width="0.5" d="M18.9,636.3c0,0,7.9,3.9,10.7,9.7
		c2.8,5.8,24.7,29.1,46.1,38.8c21.4,9.7,111.8,33,143.9,31.1c32-1.9,70.3-10.3,77.6-20.1c7.3-9.7,9-18.1,11.2-22
		c2.2-3.9,4.5-9.1,4.5-9.1"/>
	<path opacity="0.2" fill="none" stroke="#524B48" stroke-width="0.5" d="M313.8,669.2c0,0,4.1,20.8,14.8,26
		c10.7,5.2,28.1,20.1,100.6,14.2c72.5-5.8,108.5-23.3,115.8-27.8c7.3-4.5,29.2-20.1,32.6-23.9c3.4-3.9,7.3-7.8,7.3-7.8"/>
	<path opacity="0.2" fill="none" stroke="#524B48" stroke-width="0.5" d="M584.9,661.5c0,0-40,37.4-82.7,46.4
		c-42.7,9.1-120.7,15.7-153.3,4.7c-32.6-11-33.2-23.3-33.2-23.3"/>
	
		<radialGradient id="SVGBACKID_10_" cx="313.8926" cy="437.0366" r="121.834" gradientTransform="matrix(1 0 0 1.1513 0 -19.9188)" gradientUnits="userSpaceOnUse">
		<stop  offset="0" style="stop-color:#FFFFFF"/>
		<stop  offset="1" style="stop-color:#000000"/>
	</radialGradient>
	<path opacity="0.1" fill="url(#SVGBACKID_10_)" d="M309.9,284.9c0,0,4.5,166.7,4.5,180.2c0,13.6,3.5,134.2,3.5,134.2
		s-6.2,40.1-6.2,45.9c0,5.8,1.7,36.2,1.7,36.2"/>
	
		<radialGradient id="SVGBACKID_11_" cx="311.0327" cy="334.6145" r="244.4766" gradientTransform="matrix(1 0 0 1.1513 0 -19.9188)" gradientUnits="userSpaceOnUse">
		<stop  offset="0" style="stop-color:#FFFFFF"/>
		<stop  offset="1" style="stop-color:#000000"/>
	</radialGradient>
	<path opacity="0.1" fill="url(#SVGBACKID_11_)" d="M323.5,383.9c0,0-5.6,42.7-4.5,51.1c1.1,8.4-2.2,88-2.2,93.2
		c0,5.2-0.6,16.2-0.6,16.2s-0.6,25.9-2.2,32.4c-1.7,6.5-3.9,38.8-3.9,44c0,5.2-1.1,31.7-1.1,31.7l9-53.1c0,0,1.1-77,1.1-83.5
		c0-6.5,2.2-80.2,2.2-80.2L323.5,383.9z"/>
	<g opacity="0.15">
		<path fill="none" stroke="#524B48" stroke-width="0.6609" d="M296.7,282c0,0-72.3-7.3-78.1-9c-5.8-1.7-62.7-10.7-76.2-14.7
			c-13.5-4-45.8-14.1-54-18.6c-8.2-4.5-15.7-11.9-15.7-11.9"/>
		<path fill="none" stroke="#524B48" stroke-width="0.6609" d="M297.2,262.9c0,0-35.8-1.1-103.2-13.5C111.3,234,73,213.7,73,213.7"
			/>
		<path fill="none" stroke="#524B48" stroke-width="0.6609" d="M297.7,251.6c0,0-124.4-10.7-164.4-23.7c-40-13-60.9-24.3-60.9-24.3"
			/>
		<path fill="none" stroke="#524B48" stroke-width="0.6609" d="M71.8,187.3c0,0,0.2,7.4,0.4,10c0.2,2.7,1,6.5,1,6.5l0.5,10.3
			c0,0,0.7,6,0.2,8.7c-0.5,2.7-1.1,5.3-1.1,5.3s-0.6,4.2-1,5.6c-0.4,1.3-1.8,4.8-1.8,4.8"/>
		<path fill="none" stroke="#524B48" stroke-width="0.6609" d="M72.8,187.6c0,0,0.1,5.9,0.4,9.4c0.3,3.5,0.9,7.4,0.9,7.4l0.4,10
			c0,0,0.4,6,0.2,8c-0.2,1.9-1,6.2-1,6.2l-2.8,10.6"/>
		<path fill="none" stroke="#524B48" stroke-width="0.6609" d="M73.9,188.3c0,0,0.2,5.4,0.4,8.6c0.2,3.1,0.7,8,0.7,8l0.2,10
			c0,0,0.4,5.8,0.1,8.2c-0.3,2.4-0.9,6.3-0.9,6.3L71.7,240"/>
		<path fill="none" stroke="#524B48" stroke-width="0.6609" d="M75.3,188.6c0,0-0.1,4.5,0.1,8c0.2,3.5,0.8,8.9,0.8,8.9L76,215
			c0,0,0.4,5.4,0.1,8.2c-0.3,2.8-0.8,6.8-0.8,6.8l-2.8,11"/>
		<path fill="none" stroke="#524B48" stroke-width="0.6609" d="M76.4,189.1l0.7,16.7l-0.1,9.9c0,0,0.1,9.3-0.2,10.6
			c-0.3,1.3-0.9,4.3-0.9,4.3l-2.5,11.2"/>
		<path fill="none" stroke="#524B48" stroke-width="0.6609" d="M77.7,189.5c0,0,0.6,11,0.6,12.9c0,1.9-0.2,3.9-0.2,3.9L78,216
			c0,0-0.2,8.9-0.5,10.6c-0.3,1.7-0.7,4.9-0.7,4.9l-2.7,11.2"/>
		<path fill="none" stroke="#524B48" stroke-width="0.6609" d="M79.2,190.1c0,0,0.3,9.3,0.3,11.7c0,2.4-0.2,5.3-0.2,5.3l-0.4,9.4
			l-1.3,15.4L75,243.3"/>
		<polyline fill="none" stroke="#524B48" stroke-width="0.6609" points="80.4,190.5 80.3,207.2 79.7,216.7 78.1,232.4 75.7,244.1 		
			"/>
		<polyline fill="none" stroke="#524B48" stroke-width="0.6609" points="81.3,190.9 81.5,207.8 80.5,217.2 78.8,233 76.2,244.7 		
			"/>
		<polyline fill="none" stroke="#524B48" stroke-width="0.6609" points="82.2,191.3 82.3,208.2 81.2,217.7 79.3,233.5 76.9,245.3 		
			"/>
		<polyline fill="none" stroke="#524B48" stroke-width="0.6609" points="83.1,191.5 83.1,208.4 82.1,217.7 80,233.9 77.6,245.9 		
			"/>
		<polyline fill="none" stroke="#524B48" stroke-width="0.6609" points="78.2,246.5 80.6,234.6 82.9,218.3 83.8,209 84.3,192 		"/>
		<polyline fill="none" stroke="#524B48" stroke-width="0.6609" points="85.5,192.2 84.6,209.5 83.7,218.5 81.6,235.3 78.9,247.1 		
			"/>
		<path fill="none" stroke="#524B48" stroke-width="0.6609" d="M86.5,192.7c0,0-0.6,8-0.7,9.3c-0.1,1.3-0.3,7.7-0.3,7.7l-0.6,9
			c0,0-1,6.6-1.3,9.4c-0.3,2.8-1.1,7.4-1.1,7.4L79.7,248"/>
		<polyline fill="none" stroke="#524B48" stroke-width="0.6609" points="87.6,193.2 86.5,210 85.8,219.3 83.2,236.3 80.5,248.6 		
			"/>
		<polyline fill="none" stroke="#524B48" stroke-width="0.6609" points="81.2,249.1 83.9,236.9 86.7,219.8 87.3,210.6 88.8,193.6 		
			"/>
		<path fill="none" stroke="#524B48" stroke-width="0.6609" d="M89.8,193.8c0,0-0.8,7.1-1,8.8c-0.2,1.7-0.7,8.3-0.7,8.3l-0.2,9.2
			c0,0-1.4,5.2-1.8,9.4c-0.3,4.2-1.3,7.8-1.3,7.8l-2.9,12.2"/>
		<polyline fill="none" stroke="#524B48" stroke-width="0.6609" points="90.8,194.3 88.9,211.3 88.5,220.2 85.6,237.8 82.7,250 		
			"/>
		<path fill="none" stroke="#524B48" stroke-width="0.6609" d="M83.5,250.5l3.1-11.9c0,0,2-12.1,2-13.8c0-1.7,0.6-4.1,0.6-4.1
			l0.7-9.2c0,0,0.7-7.1,1.1-10.4c0.4-3.3,0.9-6.5,0.9-6.5"/>
		<path fill="none" stroke="#524B48" stroke-width="0.6609" d="M92.8,195c0,0-1.4,9.7-1.5,11.5c-0.1,1.8-0.4,5.6-0.4,5.6
			s-0.6,3.5-0.6,4.8c0,1.3-0.3,4.5-0.3,4.5s-0.8,7.8-1,9.8c-0.2,1.9-1.3,8-1.3,8s-1.3,4.2-1.6,6.6c-0.3,2.4-1.2,5.6-1.2,5.6"/>
		<polyline fill="none" stroke="#524B48" stroke-width="0.6609" points="93.9,195.4 91.6,212.4 90.7,221.4 88.5,239.5 85.9,251.6 		
			"/>
		<path fill="none" stroke="#524B48" stroke-width="0.6609" d="M95,195.8l-2.5,16.9c0,0-0.6,3.2-0.6,4.5c0,1.2-0.4,4.6-0.4,4.6
			s-1,7.4-1.1,9.8c-0.1,2.5-1.2,8.5-1.2,8.5l-2.3,12"/>
		<path fill="none" stroke="#524B48" stroke-width="0.6609" d="M96.3,196.3c0,0-1.1,5-1.4,7.5c-0.3,2.5-1.2,9.5-1.2,9.5l-1,8.9
			c0,0-0.7,9.2-0.9,9.9c-0.2,0.8-1.7,8.2-1.7,8.2l-1.8,12.1"/>
		<path fill="none" stroke="#524B48" stroke-width="0.6609" d="M97.3,196.7l-2.6,17.1l-1.2,8.6c0,0-0.9,9.3-1,10.6
			c-0.2,1.3-1.3,7.9-1.3,7.9L89,252.7"/>
		<path fill="none" stroke="#524B48" stroke-width="0.6609" d="M98.5,197c0,0-1.3,7.7-1.5,9.7c-0.2,2-1.3,7.3-1.3,7.3l-1.1,8.8
			c0,0-0.7,6.6-0.9,8.5c-0.2,1.9-1.5,10.2-1.5,10.2l-2,11.4"/>
		<path fill="none" stroke="#524B48" stroke-width="0.6609" d="M99.7,197.5c0,0-2.5,14.4-2.6,15.4c-0.1,1-0.5,1.6-0.5,1.6
			s-0.6,4.2-0.8,5.5c-0.2,1.2-0.6,3.1-0.6,3.1s-1.1,10.4-1.1,12c-0.1,1.6-1,6.8-1,6.8l-2,11.3"/>
		<path fill="none" stroke="#524B48" stroke-width="0.6609" d="M100.5,197.8c0,0-1.6,7.7-1.8,9.5c-0.2,1.8-1.2,7.4-1.2,7.4
			s-0.8,3.8-1,4.9c-0.2,1.1-0.1,3.9-0.1,3.9s-1,8.6-1.2,10.7c-0.3,2.1-1.2,8-1.2,8l-1.7,11.2"/>
		<path fill="none" stroke="#524B48" stroke-width="0.6609" d="M101.6,198c0,0-1.1,6.7-1.7,10.3c-0.6,3.6-1.2,6.8-1.2,6.8
			s-1,4.7-1,5.3c0,0.6-0.1,3.6-0.1,3.6s-1.3,9.2-1.6,11c-0.3,1.8-0.7,7.9-0.7,7.9s-1,5-1.1,5.6c-0.1,0.6-1,5.5-1,5.5"/>
		<path fill="none" stroke="#524B48" stroke-width="0.6609" d="M102.7,198.5c0,0-2.4,11.2-2.5,12.4c-0.1,1.2-0.7,4.7-0.7,4.7
			s-1,4.6-1,5.3c0,0.7-0.2,3.7-0.2,3.7s-1.1,9.6-1.4,11c-0.3,1.3-0.6,7.8-0.6,7.8l-2.2,10.8"/>
		<path fill="none" stroke="#524B48" stroke-width="0.6609" d="M103.7,198.9c0,0-2.2,10.7-2.4,11.8c-0.2,1.1-0.8,5.1-0.8,5.1
			s-0.8,3.3-1,4.6c-0.2,1.2-0.4,4-0.4,4s-1.7,12.2-1.7,12.9c0,0.7-0.2,6.4-0.2,6.4l-2,10.4"/>
		<polyline fill="none" stroke="#524B48" stroke-width="0.6609" points="104.9,199.4 101.7,216.4 100.1,224.7 98.4,244 96.3,254.6 
					"/>
		<polyline fill="none" stroke="#524B48" stroke-width="0.6609" points="106.1,199.8 102.7,216.6 101.5,225.3 99.4,244.2 97.1,255 
					"/>
		<polyline fill="none" stroke="#524B48" stroke-width="0.6609" points="107.1,200.2 103.6,217.1 102.2,225.6 100.1,244.4 98.1,255 
					"/>
		<path fill="none" stroke="#524B48" stroke-width="0.6609" d="M108.3,200.3c0,0-2.4,10.1-2.5,11.2c-0.1,1.1-1.2,6.1-1.2,6.1
			l-1.5,8.3c0,0-1.5,15.2-1.9,16.2c-0.4,1-0.5,2.8-0.5,2.8l-1.8,10.5"/>
		<path fill="none" stroke="#524B48" stroke-width="0.6609" d="M109.5,200.9c0,0-2,6.5-2.7,9.6c-0.7,3.1-1.4,7.3-1.4,7.3
			s-1,5.8-1,6.1c-0.1,0.3-0.6,2.2-0.6,2.2l-2.4,18.8l-1.6,10.6"/>
		<path fill="none" stroke="#524B48" stroke-width="0.6609" d="M110.7,201.4c0,0-2.6,9.7-3.1,12.3c-0.6,2.6-1,4.8-1,4.8l-1.6,8.2
			l-2.7,18.7l-1.4,10.5"/>
		<polyline fill="none" stroke="#524B48" stroke-width="0.6609" points="111.5,201.7 107.7,218.6 106,227 103,245.5 101.7,256.1 		
			"/>
		<polyline fill="none" stroke="#524B48" stroke-width="0.6609" points="102.6,256.4 103.9,245.9 106.9,227.2 108.9,219.3 
			112.8,201.9 		"/>
		<path fill="none" stroke="#524B48" stroke-width="0.6609" d="M113.7,202.4c0,0-2.6,10.2-3.1,12.1c-0.5,1.9-0.9,5.1-0.9,5.1
			s-1.3,4.7-1.4,5.5c-0.1,0.8-0.5,2.5-0.5,2.5s-1.1,8.9-1.7,11.2c-0.6,2.2-1.2,7.6-1.2,7.6l-1.2,10.4"/>
		<path fill="none" stroke="#524B48" stroke-width="0.6609" d="M114.8,202.6l-4.1,17.3c0,0-1,2.8-1.1,4.4c-0.2,1.6-0.6,3.6-0.6,3.6
			s-1,9.5-1.5,11.2c-0.6,1.7-1.3,7.5-1.3,7.5L105,257"/>
		<path fill="none" stroke="#524B48" stroke-width="0.6609" d="M115.8,203c0,0-2.2,8.2-2.7,10.6c-0.5,2.5-1.5,6.5-1.5,6.5
			s-1.4,4.7-1.6,5.6c-0.2,0.9-0.2,2.7-0.2,2.7l-2.9,18.5l-1,10.3"/>
		<path fill="none" stroke="#524B48" stroke-width="0.6609" d="M116.5,203.4c0,0-2.7,10.5-3.1,12.6c-0.4,2.1-0.9,4.6-0.9,4.6
			s-1,4-1.1,4.8c-0.1,0.8-0.6,3.1-0.6,3.1s-1.7,9.2-1.9,11.6c-0.2,2.5-0.9,7.2-0.9,7.2l-1.3,10.1"/>
		<path fill="none" stroke="#524B48" stroke-width="0.6609" d="M117.2,203.4c0,0-2.2,8.9-2.5,11.4c-0.3,2.5-1.2,6-1.2,6
			s-0.9,4.2-1,5.3c-0.1,1-0.6,2.8-0.6,2.8s-1.4,10.2-1.6,10.8c-0.2,0.7-1.1,7.9-1.1,7.9s-0.3,4.2-0.5,5c-0.2,0.8-1,5-1,5"/>
		<path fill="none" stroke="#524B48" stroke-width="0.6609" d="M108.8,258c0,0,1.2-8.3,1.4-8.7c0.2-0.4,0.1-1.1,0.1-1.1
			s1.1-11.3,1.6-13c0.5-1.7,1.2-5.9,1.2-5.9s1.4-5.4,1.2-6c-0.2-0.7,0.1-1.8,0.1-1.8l3.7-17.7"/>
		<path fill="none" stroke="#524B48" stroke-width="0.6609" d="M119.5,204.2c0,0-1.9,5.9-2.1,7.5c-0.2,1.6-2.1,10.1-2.1,10.1
			s-0.7,4.8-0.9,5.2c-0.2,0.5-0.5,2.6-0.5,2.6s-1.7,8.4-1.9,9.6c-0.2,1.2-1,9.4-1,9.4s-0.3,4-0.7,5c-0.4,1-0.8,4.8-0.8,4.8"/>
		<path fill="none" stroke="#524B48" stroke-width="0.6609" d="M120.4,204.4c0,0-2,7.9-2.4,10.2c-0.4,2.2-1.5,7.5-1.5,7.5
			s-0.6,3.4-0.7,4.2c-0.1,0.9-0.7,3.6-0.7,3.6s-1.6,7.2-2,9.6c-0.4,2.5-1.1,9.3-1.1,9.3s-0.9,5.4-1,6.1c-0.1,0.8-0.4,3.6-0.4,3.6"/>
		<path fill="none" stroke="#524B48" stroke-width="0.6609" d="M121.4,204.9c0,0-1.5,6.7-2.1,8.9c-0.6,2.2-1.7,8.7-1.7,8.7
			s-0.5,3.7-0.6,4.5c-0.1,0.8-0.9,3.2-0.9,3.2s-1.3,7.3-1.8,11.1c-0.5,3.8-1.1,7.9-1.1,7.9s-0.3,4.4-0.6,5.3
			c-0.3,0.9-0.6,4.4-0.6,4.4"/>
		<path fill="none" stroke="#524B48" stroke-width="0.6609" d="M113.1,259.2c0,0,0.3-2.6,0.5-4.4c0.2-1.8,0.9-5.4,0.9-5.4
			s0-6.3,0.2-6.9c0.2-0.7,2.7-11.8,2.7-11.8s1-4.6,1.1-5.5c0.1-0.9,0.2-2.3,0.2-2.3s1.3-7.6,1.8-10.2c0.5-2.6,2-7.6,2-7.6"/>
		<path fill="none" stroke="#524B48" stroke-width="0.6609" d="M114.1,259.4c0,0,0.4-3.6,0.5-4.6c0.1-1,1-4.9,1-4.9s-0.4-2.5,0-4.2
			c0.4-1.8,2.9-14.6,2.9-14.6l1.5-7.6c0,0,2-12.5,2.2-14c0.2-1.5,1-4.2,1-4.2"/>
		<polyline fill="none" stroke="#524B48" stroke-width="0.6609" points="123.9,205.5 121.1,223.6 119.2,231.1 116.2,250.1 
			115.2,259.8 		"/>
		<polyline fill="none" stroke="#524B48" stroke-width="0.6609" points="116.2,260.1 117.1,250.4 120.6,231.8 122.1,224.1 
			125.6,206.1 		"/>
		<path fill="none" stroke="#524B48" stroke-width="0.6609" d="M126.9,206.5c0,0-1.9,9.1-2.3,10.6c-0.4,1.6-1.5,7.2-1.5,7.2
			s-1.1,3.6-1.1,4.2c0.1,0.7-0.3,3.6-0.3,3.6s-1.4,9.6-1.8,10.8c-0.4,1.2-1.8,7.8-1.8,7.8l-1.2,9.3"/>
		<path fill="none" stroke="#524B48" stroke-width="0.6609" d="M128,207c0,0-2.4,10.2-2.6,11.3c-0.2,1.1-1.2,6.6-1.2,6.6
			s-1.1,3.7-1.3,4.8c-0.3,1.1-0.3,2.6-0.3,2.6s-1,7.5-1.3,9.3c-0.4,1.8-2,9.5-2,9.5s-0.6,3-0.7,3.5c-0.1,0.4-0.7,6-0.7,6"/>
		<path fill="none" stroke="#524B48" stroke-width="0.6609" d="M119,260.7l1.1-9.4l3.5-18.7c0,0,0.5-3.4,0.8-4.4c0.3-1,0.9-3,0.9-3
			l4-18.1"/>
		<path fill="none" stroke="#524B48" stroke-width="0.6609" d="M120,261.1c0,0,0.3-5.8,0.5-6.3c0.2-0.4,0.7-3.1,0.7-3.1
			s1.8-10.6,1.9-11.5c0.1-0.9,1.6-7.4,1.6-7.4s0.9-4.1,1-5.1c0.1-1,0.8-2.2,0.8-2.2s1.7-7.9,2-9c0.3-1.1,1.9-9.2,1.9-9.2"/>
		<path fill="none" stroke="#524B48" stroke-width="0.6609" d="M121.1,261.4c0,0,0.3-4.2,0.4-5.6c0.1-1.3,0.5-3.8,0.5-3.8
			s3.1-12.3,3.1-13.7c0.1-1.5,0.5-5,0.5-5s1.3-5.1,1.4-5.6c0.1-0.4,0.3-1.8,0.3-1.8l4.2-17.9"/>
		<path fill="none" stroke="#524B48" stroke-width="0.6609" d="M121.9,261.7c0,0,0.2-3.5,0.5-4.6c0.3-1.1,0.9-4.7,0.9-4.7
			s1.5-7.5,1.6-8.7c0.1-1.2,1.8-8.2,1.9-8.6c0.1-0.4,0.2-1.6,0.2-1.6s1.3-5.3,1.4-5.8c0.1-0.6,0.5-1.5,0.5-1.5s1.5-7.8,2.1-10.8
			c0.6-3,2.2-7.3,2.2-7.3"/>
		<path fill="none" stroke="#524B48" stroke-width="0.6609" d="M134,208.5c0,0-2.6,9.5-2.9,11.1c-0.3,1.6-1.2,7-1.2,7
			s-1.1,2.9-1.1,3.7c-0.1,0.8-0.8,3.8-0.8,3.8s-2.2,9.7-2.4,11.1c-0.2,1.3-1,7.6-1,7.6s-0.8,3.2-1,4.4c-0.2,1.1-0.7,4.8-0.7,4.8"/>
		<path fill="none" stroke="#524B48" stroke-width="0.6609" d="M124.4,262.3c0,0,0.5-5.7,0.7-6.6c0.2-0.9,0.7-2.5,0.7-2.5
			s1.3-8.6,1.7-10.5c0.4-1.9,1.6-8.4,1.6-8.4s1.4-3.5,1.3-4c-0.1-0.6,0.6-3.4,0.6-3.4s2.6-11.3,2.7-12.3c0.1-1,1.2-6.1,1.2-6.1"/>
		<path fill="none" stroke="#524B48" stroke-width="0.6609" d="M125.6,262.7c0,0,0.2-3.6,0.5-4.5c0.3-0.9,0.2-2,0.4-2.5
			c0.2-0.4,0.5-2.3,0.5-2.3s2.3-12,2.3-12.9c0-0.9,1.4-5.8,1.4-5.8s1.1-3.5,1.1-4.4c0-0.9,0.4-3,0.4-3s2.5-7.8,2.8-10.6
			c0.3-2.8,0.8-8,0.8-8"/>
		<path fill="none" stroke="#524B48" stroke-width="0.6609" d="M136.9,209.3c0,0-1.1,7.7-1.4,9.6c-0.3,1.9-2.3,8.8-2.3,8.8
			s-0.8,3.6-1,4.5c-0.2,0.9-0.5,2.7-0.5,2.7s-2,9-2.4,11.7c-0.4,2.7-1.3,7.3-1.3,7.3s-0.8,4.4-0.8,5.1c0,0.8-0.6,3.8-0.6,3.8"/>
		<path fill="none" stroke="#524B48" stroke-width="0.6609" d="M138.1,209.5c0,0-1.6,8.7-2,10.2c-0.4,1.5-1.8,8.3-1.8,8.3
			s-0.6,2.6-0.7,3.9c-0.1,1.3-0.8,3.2-0.8,3.2s-1.8,8-2,10.1c-0.2,2-1.4,9.2-1.4,9.2s-0.5,3.2-0.7,4.4c-0.2,1.1-0.9,4.5-0.9,4.5"/>
		<path fill="none" stroke="#524B48" stroke-width="0.6609" d="M139.3,209.9c0,0-1.6,7.1-1.8,9c-0.2,1.9-1.9,9.6-1.9,9.6
			s-0.3,2.8-0.5,3.5c-0.2,0.7-1.1,3.5-1.1,3.5s-1.4,7.7-1.6,10.7c-0.2,3-1.3,8.5-1.3,8.5s-1.2,2.9-1.1,4.1c0.1,1.2-0.6,4.6-0.6,4.6"
			/>
		<path fill="none" stroke="#524B48" stroke-width="0.6609" d="M140.4,210.2c0,0-2.4,9.2-2.4,10.7c0,1.6-1.1,7.9-1.1,7.9
			s-0.7,2.5-0.9,3.2c-0.2,0.8-0.8,3.8-0.8,3.8s-1.7,5.8-1.7,7.5c0,1.7-0.9,9.4-1,9.8c-0.2,0.4-0.8,1.8-0.8,1.8s-0.5,4.7-0.7,5.5
			c-0.2,0.8-0.8,3.4-0.8,3.4"/>
		<path fill="none" stroke="#524B48" stroke-width="0.6609" d="M141.4,210.7c0,0-1.7,10.1-2,11.1c-0.3,1-1.7,7.5-1.7,7.5
			s-0.6,3.7-0.8,4.4c-0.2,0.7-0.6,2.7-0.6,2.7s-1.1,7.4-1.3,8.8c-0.2,1.5-1.5,10.5-1.5,10.5l-1.7,8.6"/>
		<path fill="none" stroke="#524B48" stroke-width="0.6609" d="M142.6,210.9c0,0-1.2,8.9-1.8,10.6c-0.6,1.7-1.8,7.9-1.8,7.9
			s-0.9,3.5-1,4.2c-0.1,0.8-0.6,2.8-0.6,2.8s-0.8,7.8-1.3,9.6c-0.6,1.8-0.9,9.9-0.9,9.9s-0.7,1.7-1,3.2c-0.3,1.6-1,5.5-1,5.5"/>
		<path fill="none" stroke="#524B48" stroke-width="0.6609" d="M143.8,211.1c0,0-2.2,10.3-2.3,12.2c-0.1,1.9-1.1,6.5-1.1,6.5
			s-1.1,2.7-1.1,3.6c0,0.9,0,3.6,0,3.6s-1.5,9.7-1.9,11.8c-0.4,2.1-1,7.6-1,7.6s-0.9,3.9-0.9,4.8c0,0.9-0.6,3.8-0.6,3.8"/>
		<path fill="none" stroke="#524B48" stroke-width="0.6609" d="M144.6,211.1c0,0-1.9,11.3-2.1,13c-0.2,1.7-0.8,6.1-0.8,6.1
			s-0.9,1.6-1.1,2.3c-0.2,0.8-0.7,4.7-0.7,4.7s-1.1,10.4-1.7,12.9c-0.6,2.5-1.1,6.5-1.1,6.5s-0.2,4.6-0.4,5.4c-0.2,0.8-1,3.2-1,3.2"
			/>
		<path fill="none" stroke="#524B48" stroke-width="0.6609" d="M145.9,211.7c0,0-2,11-2.3,13.5c-0.3,2.6-0.9,5.4-0.9,5.4
			s-1.2,2.2-1.2,3.1c0,0.9-0.1,4-0.1,4s-0.5,7.9-1.3,10.6c-0.9,2.7-1.2,8.9-1.2,8.9s-0.4,2.8-0.7,3.8c-0.3,1-0.6,4.7-0.6,4.7"/>
		<path fill="none" stroke="#524B48" stroke-width="0.6609" d="M147,211.9c0,0-0.8,7.8-1.6,10.3c-0.9,2.5-0.9,5.1-0.9,5.5
			c0,0.3-0.7,3.1-0.7,3.1s-0.7,3.6-0.9,4.6c-0.2,1-0.5,2.6-0.5,2.6s-0.6,7.9-1,9.2c-0.4,1.2-1.4,5.9-1.4,6.6c0,0.7,0,4,0,4
			s-0.5,2.9-0.7,3.5c-0.2,0.6-0.5,5-0.5,5"/>
		<path fill="none" stroke="#524B48" stroke-width="0.6609" d="M148.6,212.2c0,0-2,9.9-2.2,11.1c-0.2,1.1-1,7.8-1,7.8
			s-0.8,2.7-0.8,3.8c0,1.1-1,3.2-1,3.2s-1,9.1-1.3,10.6c-0.3,1.6-1.1,9.4-1.1,9.4s-0.6,3.4-0.6,4.1c0,0.8-0.6,4.1-0.6,4.1"/>
		<path fill="none" stroke="#524B48" stroke-width="0.6609" d="M150,212.6c0,0-1.5,7.7-1.9,9.7c-0.4,2-1.6,8.9-1.6,8.9
			s-0.5,2.9-0.6,3.8c-0.1,0.9-0.6,3.6-0.6,3.6s-0.6,6.8-1.2,9.6c-0.7,2.8-1.7,9.9-1.7,9.9l-1.2,8.5"/>
		<path fill="none" stroke="#524B48" stroke-width="0.6609" d="M151,212.7c0,0-1.1,9.8-1.8,12c-0.7,2.1-1.5,6.9-1.5,6.9
			s-0.8,2.2-0.8,3.5c0,1.2-0.3,3.9-0.3,3.9s-1,8.2-1.5,11c-0.6,2.8-1,8.7-1,8.7s-0.7,2.6-0.8,3.7c-0.1,1.1-0.8,4.7-0.8,4.7"/>
		<path fill="none" stroke="#524B48" stroke-width="0.6609" d="M152.4,213c0,0-1.4,8.6-1.9,11.4c-0.5,2.8-1.6,7.3-1.6,7.3
			s-0.3,4.1-0.6,4.8c-0.3,0.7-0.5,2.6-0.5,2.6s-0.8,7.6-1.2,10.1c-0.5,2.5-1.4,9.8-1.4,9.8s-0.9,4.6-0.9,5.4c0,0.8-0.1,3-0.1,3"/>
		<path fill="none" stroke="#524B48" stroke-width="0.6609" d="M153.7,213.2c0,0-1.8,7-1.9,8.6c-0.1,1.6-1.6,10.3-1.6,10.3
			s-0.5,2.9-0.6,3.9c-0.1,1-0.8,3.5-0.8,3.5s-0.6,8.2-1.2,11.2c-0.7,3-1.4,8.6-1.4,8.6s-0.8,5.3-0.8,5.7c0,0.4-0.4,2.7-0.4,2.7"/>
		<path fill="none" stroke="#524B48" stroke-width="0.6609" d="M154.8,213.2c0,0-2.4,13.4-2.7,15.2c-0.3,1.8-0.6,4-0.6,4
			s-1,3.1-1,4.1c0,1-0.2,3.4-0.2,3.4s-1.5,11.5-1.8,13.3c-0.3,1.8-1,6.3-1,6.3s-0.8,3.2-0.9,4c-0.1,0.8-0.4,4.6-0.4,4.6"/>
		<path fill="none" stroke="#524B48" stroke-width="0.6609" d="M156,213.6c0,0-2.2,9.1-2.2,10.5c0,1.5-1.1,8.5-1.1,8.5
			s-0.9,3.5-1,4.3c-0.1,0.8-0.3,3.2-0.3,3.2s-0.8,8.9-1.3,11.3c-0.6,2.3-1.4,8.4-1.4,8.4s-0.6,2.9-0.7,3.9c-0.1,1-0.5,4.7-0.5,4.7"
			/>
		<path fill="none" stroke="#524B48" stroke-width="0.6609" d="M157,213.6c0,0-2,9.5-2.4,12.9c-0.4,3.4-1,6.5-1,6.5l-1.1,7.5
			c0,0-1.1,13.7-1.4,14.9c-0.3,1.1-1.5,4.7-1.5,4.7s-0.8,5.1-0.8,5.7c0,0.6-0.1,3-0.1,3"/>
		<path fill="none" stroke="#524B48" stroke-width="0.6609" d="M157.9,213.8c0,0-2.4,11.2-2.5,13.1c-0.1,1.9-0.8,6.4-0.8,6.4
			s-0.2,2.5-0.6,3.6c-0.4,1.1-0.8,3.8-0.8,3.8s-0.9,11.4-1.1,12.9c-0.2,1.5-1,6.3-1,6.7c0,0.4-1,8.8-1,8.8"/>
		<path fill="none" stroke="#524B48" stroke-width="0.6609" d="M158.9,214c0,0-1,7.7-1.6,9.4c-0.7,1.7-1.1,6-1.1,6.6
			c0,0.6-0.7,3.2-0.7,3.2s-0.2,3.1-0.3,3.8c-0.1,0.7-0.4,3.8-0.4,3.8s-1.3,8.2-1.4,10.1c-0.1,1.9-1.1,9.5-1.1,9.5s0.1,3.7-0.1,4.5
			c-0.2,0.8-0.9,4.7-0.9,4.7"/>
		<path fill="none" stroke="#524B48" stroke-width="0.6609" d="M160,213.9c0,0-2.1,10.8-2.4,13.2c-0.3,2.3-1.1,6.4-1.1,6.4
			s-0.6,2.8-0.6,4c0,1.2-0.2,3.7-0.2,3.7s-1,8.3-1.4,10.8c-0.5,2.6-1.1,8.8-1.1,8.8s0,4.1-0.2,4.7c-0.2,0.6-0.7,4-0.7,4"/>
		<path fill="none" stroke="#524B48" stroke-width="0.6609" d="M160.8,214.2c0,0-1.7,10.6-1.9,12.1c-0.2,1.5-1.1,7.5-1.1,7.5
			s-0.2,3.4-0.2,3.7c0,0.3-0.8,4-0.8,4s-1.4,8.9-1.4,10.7c0,1.8-0.8,8.7-0.8,8.7s-0.4,4-0.5,4.5c-0.1,0.4-0.7,4.5-0.7,4.5"/>
		<path fill="none" stroke="#524B48" stroke-width="0.6609" d="M161.8,214.2c0,0-0.8,7.6-1.3,10.1c-0.6,2.5-1.5,9.6-1.5,9.6
			s-0.3,3.1-0.4,3.9c-0.1,0.8-0.5,3.9-0.5,3.9s-1.2,6.8-1.2,8.2c0,1.3-0.4,8.2-0.6,8.9c-0.2,0.8-0.5,2.5-0.5,2.5l-1.3,8.8"/>
		<path fill="none" stroke="#524B48" stroke-width="0.6609" d="M163.1,214.4c0,0-1.6,8.5-1.8,10.4c-0.2,1.9-0.9,9.5-0.9,9.5
			s-0.6,3.4-0.7,4.1c-0.1,0.8-0.6,3.6-0.6,3.6s-0.7,6.6-1.1,8.9c-0.4,2.3-1.2,10.6-1.2,10.6s-0.6,3.2-0.7,4.5
			c-0.1,1.2-0.7,4.4-0.7,4.4"/>
		<path fill="none" stroke="#524B48" stroke-width="0.6609" d="M164.1,214.5c0,0-1.5,8.8-1.8,12.2c-0.3,3.4-0.7,7.9-0.7,7.9
			s-0.9,3-1,4.5c-0.1,1.5-0.5,3.1-0.5,3.1s-0.6,6.6-1.1,10.3c-0.6,3.7-1.2,9.3-1.2,9.3l-1.3,8.9"/>
		<path fill="none" stroke="#524B48" stroke-width="0.6609" d="M165.1,214.6c0,0-1,7.2-1.3,9.3c-0.4,2.1-0.8,6.3-0.8,6.7
			c0,0.4-0.3,4-0.3,4s-0.5,1.7-1,3c-0.5,1.3-1,4.7-1,4.7s-1,11.6-1.1,13.4c-0.2,1.8-0.9,6.1-0.9,6.1s-0.7,4.7-0.7,5.1
			c0,0.4-0.6,3.9-0.6,3.9"/>
		<path fill="none" stroke="#524B48" stroke-width="0.6609" d="M165.9,214.6c0,0-1.4,10.2-1.4,11.5c0,1.3-1.1,8.6-1.1,8.6
			s-1.6,5.7-1.4,6.1c0.2,0.4,0.3,1.7,0.3,1.7s-0.7,7.5-1,9.4c-0.3,1.9-1.3,10.2-1.3,10.2s-0.1,2.5-0.6,4c-0.5,1.6-1,5.1-1,5.1"/>
		<path fill="none" stroke="#524B48" stroke-width="0.6609" d="M167,214.7c0,0-1.4,10.4-1.5,11.7c-0.1,1.3-0.9,8.4-0.9,8.4
			s-0.3,2.5-0.6,2.9c-0.3,0.4-0.3,3.2-0.3,3.2l-0.3,1.9c0,0-0.3,6.5-0.7,7.7c-0.4,1.2-1.5,11.7-1.5,11.7s-0.6,1.9-0.6,2.3
			c0,0.4-0.6,7-0.6,7"/>
		<polyline fill="none" stroke="#524B48" stroke-width="0.6609" points="167.9,214.8 165.6,235.1 164.3,243.2 162.4,262.6 
			161.3,271.9 		"/>
		<polyline fill="none" stroke="#524B48" stroke-width="0.6609" points="169.2,214.8 167,235.4 165.5,243.5 163.7,262.8 
			162.6,272.2 		"/>
		<path fill="none" stroke="#524B48" stroke-width="0.6609" d="M170.3,214.8c0,0-0.9,6.6-0.9,8.2c0,1.6-1.3,12.9-1.3,12.9
			s0,2.7-0.3,3.4c-0.3,0.7-1.2,4.4-1.2,4.4s-1,7.7-1,10.3c0.1,2.6-0.8,9.2-0.8,9.2s-0.2,4.8-0.5,5.6c-0.3,0.8-0.9,4-0.9,4"/>
		<path fill="none" stroke="#524B48" stroke-width="0.6609" d="M171.3,214.9c0,0-0.5,6.6-1,9.9c-0.5,3.4-1.1,11.1-1.1,11.1
			s-0.8,3.1-0.9,4.1c-0.1,1-0.5,3.9-0.5,3.9s-0.7,4.1-1,6.4c-0.3,2.2-1,13-1,13s-0.5,2.1-0.4,3.5c0.1,1.3-0.8,6.1-0.8,6.1"/>
		<path fill="none" stroke="#524B48" stroke-width="0.6609" d="M172.3,214.9c0,0-0.6,8.6-1.1,12.3c-0.6,3.7-1.1,8.8-1.1,8.8
			s-0.6,1.9-0.6,2.9c0,1-0.5,5.4-0.5,5.4s-0.2,4.2-0.7,6c-0.5,1.8-1.3,13.2-1.3,13.2s-0.1,2.2-0.4,3.5c-0.3,1.2-1.1,6.1-1.1,6.1"/>
		<path fill="none" stroke="#524B48" stroke-width="0.6609" d="M173.3,215.1c0,0-0.4,9.5-1.1,13c-0.8,3.5-1.2,8.2-1.2,8.2
			s0,1.3-0.3,2.1c-0.3,0.8-0.5,5.9-0.5,5.9s-1.6,7.9-1.6,9.3c0,1.3,0,10.2,0,10.2l-2.2,9.5"/>
		<path fill="none" stroke="#524B48" stroke-width="0.6609" d="M174.5,215.1c0,0-0.8,5.1-1,6.9c-0.2,1.8-0.9,8-0.9,8.8
			c0,0.8-0.9,5.5-0.9,5.5s-0.3,1.8-0.6,3.5c-0.3,1.7-0.5,4.6-0.5,4.6s-0.9,7.4-1.1,9.1c-0.3,1.7-0.4,10.3-0.4,10.3s-0.2,4.4-0.7,5.1
			c-0.5,0.8-1.8,4.6-1.8,4.6"/>
		<path fill="none" stroke="#524B48" stroke-width="0.6609" d="M175.9,215.2c0,0-1.1,3.7-1.2,6.8c-0.1,3.1-1.1,7.4-1.1,9.2
			c0,1.8-0.3,5.3-0.3,5.3s-0.5,3.4-0.7,3.9c-0.2,0.6-0.8,4.4-0.8,4.4s-0.5,7.7-1,9.5c-0.5,1.8-0.6,9.7-0.6,9.7s-0.5,1.8-0.5,2.5
			c0,0.7-0.6,3.4-0.7,3.9c-0.1,0.6-1,3.4-1,3.4"/>
		<path fill="none" stroke="#524B48" stroke-width="0.6609" d="M176.5,215.2c0,0-0.9,5-1,6.8c-0.2,1.8-1.1,9.3-1.1,10.1
			c0,0.8-0.1,4.6-0.1,4.6s-1,2.5-1.1,3.6c-0.2,1.1-0.6,4.6-0.6,4.6s-0.2,5.7-0.6,7.7c-0.4,2-0.8,11.6-0.8,11.6s-0.6,2.3-0.6,3.7
			c0,1.3-1.4,5.9-1.4,5.9"/>
		<polyline fill="none" stroke="#524B48" stroke-width="0.6609" points="177.6,215.4 175.1,236.8 173.1,245.1 172.3,264.4 
			170,274.1 		"/>
		<path fill="none" stroke="#524B48" stroke-width="0.6609" d="M178.5,215.4c0,0-1.2,9.3-1.3,12.3c-0.1,3-1,9.4-1,9.4
			s-1.3,2.3-1.2,3.7c0.1,1.3-0.5,4.8-0.5,4.8s0.4,2.8,0,5.7c-0.4,2.9-1.1,13.3-1.1,13.3s-0.9,1.4-1,2.8c-0.1,1.3-0.6,7.3-0.6,7.3"/>
		<path fill="none" stroke="#524B48" stroke-width="0.6609" d="M179.7,215.5c0,0-1.2,7.9-1.2,10.3c0,2.3-1,11.5-1,11.5
			s-1.3,3-1.3,3.4c0,0.3,0.2,1.6,0.1,2.5c-0.1,0.9-0.6,2.6-0.6,2.6s0.2,3.1,0.1,4.2c-0.1,1.1-1.2,14.9-1.2,14.9s-0.7,1-1,2.9
			c-0.3,1.9-1,6.9-1,6.9"/>
		<path fill="none" stroke="#524B48" stroke-width="0.6609" d="M180.7,215.5c0,0-1.6,13.6-2,17c-0.4,3.4-0.4,4.9-0.4,4.9
			s-1.1,2.9-1.2,4.5c-0.2,1.6-0.4,4.1-0.4,4.1s-0.4,11.1-0.6,12.5c-0.2,1.5-0.7,6.5-0.7,6.5s-0.6,1.7-1.1,5.1
			c-0.6,3.5-0.7,4.8-0.7,4.8"/>
		<path fill="none" stroke="#524B48" stroke-width="0.6609" d="M181.6,215.6c0,0-1.5,13.9-1.6,14.7c-0.1,0.9-0.8,7.2-0.8,7.2
			s-1,3.8-1,4.9c-0.1,1.1-0.3,3.6-0.3,3.6s-1.1,14.2-1.2,15.5c-0.1,1.3-0.4,3.6-0.4,3.6l-1.4,9.9"/>
		<polyline fill="none" stroke="#524B48" stroke-width="0.6609" points="182.5,215.7 180.1,237.5 178.8,246.1 177.3,265.2 
			176.1,275.4 		"/>
		<polyline fill="none" stroke="#524B48" stroke-width="0.6609" points="183.7,215.8 181.5,237.7 180.2,246.4 178.5,265.4 
			177.3,275.6 		"/>
		<polyline fill="none" stroke="#524B48" stroke-width="0.6609" points="184.8,215.8 182.7,238 181.5,246.8 179.8,265.8 
			178.3,275.7 		"/>
		<polyline fill="none" stroke="#524B48" stroke-width="0.6609" points="179.7,275.9 180.7,266 182.5,247 183.6,238.3 186.1,215.9 
					"/>
		<path fill="none" stroke="#524B48" stroke-width="0.6609" d="M187,215.9c0,0-1.1,12.7-1.5,14.9c-0.4,2.1-0.9,7.6-0.9,7.6l-0.9,7
			v1.8l-2,18.9l-1,9.8"/>
		<path fill="none" stroke="#524B48" stroke-width="0.6609" d="M188.7,216c0,0-0.9,5.1-1,7c-0.2,1.8-1.1,9.5-1.1,10.3
			c0,0.8-0.1,4.7-0.1,4.7s-1,2.5-1.1,3.7c-0.2,1.1-0.6,4.7-0.6,4.7s-0.2,5.8-0.6,7.9c-0.4,2.1-0.8,11.9-0.8,11.9s-0.6,2.4-0.6,3.8
			c0,1.4-1.4,6.1-1.4,6.1"/>
		<polyline fill="none" stroke="#524B48" stroke-width="0.6609" points="189.8,216.1 187.3,238.1 185.3,246.5 184.5,266.3 
			182.2,276.2 		"/>
		<path fill="none" stroke="#524B48" stroke-width="0.6609" d="M190.7,216.1c0,0-1.2,9.5-1.3,12.6c-0.1,3.1-1,9.6-1,9.6
			s-1.3,2.4-1.2,3.8c0.1,1.4-0.5,4.9-0.5,4.9s0.4,2.9,0,5.8c-0.4,3-1.1,13.6-1.1,13.6s-0.9,1.5-1,2.9c-0.1,1.4-0.6,7.4-0.6,7.4"/>
		<path fill="none" stroke="#524B48" stroke-width="0.6609" d="M191.9,216.3c0,0-1.2,8.1-1.2,10.5c0,2.4-1,11.8-1,11.8
			s-1.3,3.1-1.3,3.4c0,0.3,0.2,1.6,0.1,2.5c-0.1,0.9-0.6,2.6-0.6,2.6s0.2,3.2,0.1,4.3c-0.1,1.1-1.2,15.2-1.2,15.2s-0.7,1-1,3
			c-0.3,1.9-1,7.1-1,7.1"/>
		<path fill="none" stroke="#524B48" stroke-width="0.6609" d="M192.9,216.3c0,0-1.6,13.9-2,17.4c-0.4,3.4-0.4,5-0.4,5
			s-1.1,3-1.2,4.6c-0.2,1.6-0.4,4.2-0.4,4.2s-0.4,11.3-0.6,12.8c-0.2,1.5-0.7,6.6-0.7,6.6s-0.6,1.7-1.1,5.3
			c-0.6,3.5-0.7,4.9-0.7,4.9"/>
		<path fill="none" stroke="#524B48" stroke-width="0.6609" d="M193.8,216.4c0,0-1.5,14.2-1.6,15.1c-0.1,0.9-0.8,7.3-0.8,7.3
			s-1,3.9-1.1,5c-0.1,1.1-0.3,3.7-0.3,3.7s-1.1,14.5-1.2,15.9c-0.1,1.4-0.4,3.7-0.4,3.7l-1.4,10.2"/>
		<polyline fill="none" stroke="#524B48" stroke-width="0.6609" points="194.8,216.5 192.4,238.8 191,247.5 189.5,267.1 
			188.4,277.5 		"/>
		<polyline fill="none" stroke="#524B48" stroke-width="0.6609" points="195.9,216.6 193.7,239 192.5,247.9 190.7,267.3 
			189.5,277.7 		"/>
		<polyline fill="none" stroke="#524B48" stroke-width="0.6609" points="197,216.6 194.9,239.3 193.7,248.2 192,267.7 190.6,277.8 
					"/>
		<polyline fill="none" stroke="#524B48" stroke-width="0.6609" points="191.9,278 192.9,267.9 194.8,248.5 195.8,239.6 
			198.3,216.7 		"/>
		<path fill="none" stroke="#524B48" stroke-width="0.6609" d="M199.2,216.7c0,0-1.1,13-1.5,15.2c-0.4,2.2-0.9,7.8-0.9,7.8l-0.9,7.2
			v1.8l-2,19.3l-1,10.1"/>
		<path fill="none" stroke="#524B48" stroke-width="0.6609" d="M200.3,216.5c0,0-0.6,11.1-1.2,13.5c-0.6,2.4-1.2,7.8-1.2,7.8
			s-0.6,2.5-0.6,3.9c0.1,1.4-0.1,4.4-0.1,4.4s-0.5,9.2-1,12.3c-0.4,3.2-0.6,9.8-0.6,9.8s-0.5,2.9-0.6,4.2c0,1.3-0.5,5.3-0.5,5.3"/>
		<path fill="none" stroke="#524B48" stroke-width="0.6609" d="M201.7,216.8c0,0-1,9.7-1.3,12.9c-0.3,3.2-1.2,8.2-1.2,8.2
			s-0.1,4.6-0.3,5.4c-0.3,0.8-0.3,2.9-0.3,2.9s-0.4,8.5-0.7,11.3c-0.3,2.8-0.9,11.1-0.9,11.1s-0.6,5.2-0.6,6c0,0.9,0.1,3.4,0.1,3.4"
			/>
		<path fill="none" stroke="#524B48" stroke-width="0.6609" d="M203,217c0,0-1.4,8-1.5,9.7c0,1.8-1.1,11.6-1.1,11.6
			s-0.3,3.3-0.4,4.4c0,1.1-0.6,3.9-0.6,3.9s-0.1,9.2-0.7,12.6c-0.5,3.4-1,9.7-1,9.7s-0.5,5.9-0.5,6.4c0,0.5-0.2,3-0.2,3"/>
		<path fill="none" stroke="#524B48" stroke-width="0.6609" d="M204,216.9c0,0-1.7,15.2-1.9,17.2c-0.2,2-0.4,4.5-0.4,4.5
			s-0.8,3.6-0.7,4.7c0.1,1.1,0,3.8,0,3.8s-0.9,13-1.1,15c-0.2,2-0.6,7.1-0.6,7.1s-0.6,3.7-0.6,4.6c-0.1,0.9-0.1,5.2-0.1,5.2"/>
		<path fill="none" stroke="#524B48" stroke-width="0.6609" d="M205.5,216.7c0,0-1.7,10.3-1.7,11.9c0.1,1.6-0.7,9.6-0.7,9.6
			s-0.7,3.9-0.7,4.8c-0.1,0.9-0.1,3.6-0.1,3.6s-0.3,10.1-0.7,12.7c-0.5,2.7-1,9.5-1,9.5s-0.4,3.3-0.5,4.4c0,1.1-0.2,5.3-0.2,5.3"/>
		<path fill="none" stroke="#524B48" stroke-width="0.6609" d="M206.5,216.7c0,0-1.5,10.8-1.7,14.5c-0.2,3.8-0.7,7.3-0.7,7.3
			l-0.8,8.4c0,0-0.4,15.4-0.7,16.7c-0.2,1.3-1.3,5.3-1.3,5.3s-0.5,5.8-0.5,6.4c0,0.6,0.1,3.4,0.1,3.4"/>
		<path fill="none" stroke="#524B48" stroke-width="0.6609" d="M207.4,216.9c0,0-1.8,12.7-1.8,14.8c0,2.1-0.4,7.2-0.4,7.2
			s-0.1,2.8-0.4,4c-0.3,1.3-0.6,4.3-0.6,4.3s-0.3,12.8-0.4,14.4c-0.1,1.6-0.7,7.1-0.7,7.6c0,0.5-0.5,9.9-0.5,9.9"/>
		<path fill="none" stroke="#524B48" stroke-width="0.6609" d="M208.4,217.1c0,0-0.6,8.7-1.1,10.6c-0.6,1.9-0.8,6.8-0.8,7.4
			c0,0.6-0.5,3.7-0.5,3.7s0,3.5-0.1,4.3c-0.1,0.8-0.2,4.3-0.2,4.3s-0.9,9.2-0.9,11.3c0,2.1-0.6,10.7-0.6,10.7s0.3,4.1,0.1,5
			c-0.1,0.9-0.6,5.3-0.6,5.3"/>
		<path fill="none" stroke="#524B48" stroke-width="0.6609" d="M209.5,216.9c0,0-1.5,12.3-1.7,14.9c-0.2,2.6-0.7,7.2-0.7,7.2
			s-0.4,3.2-0.4,4.5c0.1,1.4,0,4.1,0,4.1s-0.5,9.3-0.9,12.2c-0.3,2.9-0.7,9.9-0.7,9.9s0.2,4.6,0.1,5.3c-0.2,0.6-0.5,4.5-0.5,4.5"/>
		<path fill="none" stroke="#524B48" stroke-width="0.6609" d="M210.3,217.2c0,0-1.2,12-1.3,13.6c-0.1,1.6-0.8,8.4-0.8,8.4
			s0,3.8,0,4.1c0,0.4-0.6,4.5-0.6,4.5s-1,10.1-0.9,12.1c0.1,2-0.3,9.8-0.3,9.8s-0.2,4.5-0.2,5c-0.1,0.5-0.4,5-0.4,5"/>
		<path fill="none" stroke="#524B48" stroke-width="0.6609" d="M211.3,217.1c0,0-0.4,8.5-0.8,11.3c-0.4,2.8-1,10.8-1,10.8
			s-0.1,3.5-0.2,4.4c-0.1,0.9-0.3,4.4-0.3,4.4s-0.9,7.7-0.8,9.2c0.1,1.5,0,9.1-0.1,10c-0.2,0.9-0.3,2.8-0.3,2.8l-0.9,10"/>
		<path fill="none" stroke="#524B48" stroke-width="0.6609" d="M212.6,217.2c0,0-1.2,9.6-1.3,11.7c-0.1,2.1-0.4,10.7-0.4,10.7
			s-0.4,3.8-0.4,4.7c-0.1,0.9-0.4,4-0.4,4s-0.3,7.4-0.6,10.1c-0.3,2.6-0.7,12-0.7,12s-0.4,3.7-0.4,5c0,1.4-0.4,4.9-0.4,4.9"/>
		<path fill="none" stroke="#524B48" stroke-width="0.6609" d="M213.6,217.2c0,0-1.1,10-1.2,13.7c-0.1,3.8-0.3,8.9-0.3,8.9
			s-0.7,3.4-0.7,5.1c0,1.6-0.3,3.5-0.3,3.5s-0.2,7.4-0.6,11.6c-0.4,4.2-0.8,10.4-0.8,10.4l-0.9,10.1"/>
		<path fill="none" stroke="#524B48" stroke-width="0.6609" d="M214.6,217.3c0,0-0.6,8.1-0.9,10.5c-0.3,2.4-0.4,7.1-0.4,7.5
			c0,0.5-0.1,4.5-0.1,4.5s-0.4,1.9-0.8,3.4c-0.4,1.5-0.7,5.3-0.7,5.3s-0.3,13.1-0.4,15.1c-0.1,2-0.5,6.9-0.5,6.9s-0.4,5.3-0.4,5.8
			c0,0.5-0.4,4.4-0.4,4.4"/>
		<path fill="none" stroke="#524B48" stroke-width="0.6609" d="M215.5,217.2c0,0-0.9,11.5-0.8,13c0.1,1.5-0.7,9.7-0.7,9.7
			s-1.3,6.5-1.1,7c0.2,0.5,0.4,1.9,0.4,1.9s-0.3,8.4-0.5,10.6c-0.2,2.1-0.8,11.5-0.8,11.5s0,2.8-0.4,4.5c-0.4,1.8-0.7,5.8-0.7,5.8"
			/>
		<path fill="none" stroke="#524B48" stroke-width="0.6609" d="M216.5,217.3c0,0-0.9,11.7-0.9,13.2c0,1.5-0.4,9.4-0.4,9.4
			s-0.2,2.8-0.4,3.3c-0.3,0.5-0.1,3.6-0.1,3.6l-0.2,2.1c0,0,0.1,7.3-0.3,8.7c-0.3,1.4-0.9,13.2-0.9,13.2s-0.5,2.2-0.4,2.7
			c0,0.5-0.2,7.9-0.2,7.9"/>
		<polyline fill="none" stroke="#524B48" stroke-width="0.6609" points="217.5,217.4 216.2,240.2 215.3,249.3 214.4,271.2 
			213.9,281.6 		"/>
		<polyline fill="none" stroke="#524B48" stroke-width="0.6609" points="218.7,217.3 217.6,240.4 216.6,249.6 215.8,271.4 
			215.1,281.9 		"/>
		<polyline fill="none" stroke="#524B48" stroke-width="0.6609" points="251.4,287.8 253.8,259.4 255.1,249.8 256.8,228.8 
			258,217.6 		"/>
		<polyline fill="none" stroke="#524B48" stroke-width="0.6609" points="250.3,287.8 252.6,259 253.8,249.4 255.6,228.5 257,217.9 
					"/>
		<polyline fill="none" stroke="#524B48" stroke-width="0.6609" points="255.7,218.2 254.6,228.2 252.8,249.2 251.7,258.8 
			249.1,287.6 		"/>
		<path fill="none" stroke="#524B48" stroke-width="0.6609" d="M248.1,287.6c0,0,1.3-18.3,1.7-20.6c0.4-2.3,0.9-8.4,0.9-8.4l0.9-7.8
			v-2l2-20.8l1-10"/>
		<path fill="none" stroke="#524B48" stroke-width="0.6609" d="M246.6,286.9c0,0,0.9-9.2,1.1-11.2c0.2-2,1.1-10.5,1.1-11.3
			c0-0.9,0.1-5.2,0.1-5.2s1-2.8,1.1-4c0.2-1.3,0.6-5.2,0.6-5.2s0.2-6.4,0.6-8.7c0.4-2.3,0.8-13.1,0.8-13.1s0.6-2.6,0.6-4.2
			c0-1.5,1.3-6.1,1.3-6.1"/>
		<polyline fill="none" stroke="#524B48" stroke-width="0.6609" points="245.6,286.4 248,259 250,249.7 250.8,227.9 252.9,217.9 		
			"/>
		<path fill="none" stroke="#524B48" stroke-width="0.6609" d="M244.5,286.2c0,0,1.3-13.5,1.4-16.9c0.1-3.4,1-10.6,1-10.6
			s1.3-2.6,1.2-4.2c-0.1-1.5,0.5-5.4,0.5-5.4s-0.4-3.1,0-6.4c0.4-3.3,1.1-15,1.1-15s0.9-1.6,1-3.2c0.1-1.5,0.6-6.7,0.6-6.7"/>
		<path fill="none" stroke="#524B48" stroke-width="0.6609" d="M243.4,285.8c0,0,1.3-11.6,1.3-14.3c0-2.6,1-13,1-13s1.3-3.4,1.3-3.8
			c0-0.4-0.2-1.8-0.1-2.8c0.1-1,0.6-2.9,0.6-2.9s-0.2-3.5-0.1-4.8c0.1-1.3,1.2-16.8,1.2-16.8s0.7-1.1,1-3.3c0.3-2.1,0.8-6.3,0.8-6.3
			"/>
		<path fill="none" stroke="#524B48" stroke-width="0.6609" d="M242.4,285.8c0,0,1.6-18.1,2-21.8c0.4-3.8,0.4-5.5,0.4-5.5
			s1-3.3,1.2-5c0.2-1.8,0.4-4.7,0.4-4.7s0.4-12.5,0.6-14.1c0.2-1.6,0.7-7.3,0.7-7.3s0.6-1.9,1.1-5.8c0.6-3.9,0.8-3.5,0.8-3.5"/>
		<path fill="none" stroke="#524B48" stroke-width="0.6609" d="M241.5,285.6c0,0,1.5-18.3,1.6-19.3c0.1-1,0.8-8.1,0.8-8.1
			s1-4.3,1.1-5.5c0.1-1.3,0.3-4,0.3-4s1.1-16,1.2-17.5c0.1-1.5,0.4-4,0.4-4l1.4-8.3"/>
		<polyline fill="none" stroke="#524B48" stroke-width="0.6609" points="240.6,285.5 243,258.2 244.3,248.5 245.8,227 247.2,217.8 
					"/>
		<polyline fill="none" stroke="#524B48" stroke-width="0.6609" points="239.4,285.4 241.6,258 242.9,248.2 244.6,226.7 
			245.8,218.2 		"/>
		<polyline fill="none" stroke="#524B48" stroke-width="0.6609" points="238.3,285.4 240.4,257.6 241.6,247.8 243.3,226.4 
			244.8,218.1 		"/>
		<polyline fill="none" stroke="#524B48" stroke-width="0.6609" points="243.4,217.8 242.4,226.1 240.6,247.5 239.5,257.4 
			237.1,284.7 		"/>
		<path fill="none" stroke="#524B48" stroke-width="0.6609" d="M236.2,284.7c0,0,1.1-16.5,1.4-18.9c0.4-2.4,0.9-8.6,0.9-8.6l0.9-7.9
			v-2l2-21.3l1-8.2"/>
		<path fill="none" stroke="#524B48" stroke-width="0.6609" d="M235.1,285c0,0,0.6-14.4,1.1-17.1c0.6-2.7,1.2-8.7,1.2-8.7
			s0.6-2.8,0.6-4.3c-0.1-1.5,0.1-4.8,0.1-4.8s0.5-10.1,1-13.6c0.4-3.5,0.6-10.8,0.6-10.8s0.5-3.2,0.6-4.6c0-1.4,0.7-3.2,0.7-3.2"/>
		<path fill="none" stroke="#524B48" stroke-width="0.6609" d="M233.8,284.7c0,0,0.9-12.9,1.2-16.4c0.3-3.5,1.2-9.1,1.2-9.1
			s0.1-5.1,0.3-6c0.3-0.8,0.3-3.2,0.3-3.2s0.4-9.4,0.7-12.5c0.3-3.1,0.9-12.2,0.9-12.2s0.6-5.7,0.6-6.7c0-1-0.1-0.8-0.1-0.8"/>
		<path fill="none" stroke="#524B48" stroke-width="0.6609" d="M232.4,284.5c0,0,1.4-11,1.4-12.9c0-1.9,1.1-12.8,1.1-12.8
			s0.3-3.6,0.4-4.9c0-1.3,0.6-4.3,0.6-4.3s0.2-10.1,0.7-13.9c0.5-3.8,1-10.7,1-10.7s0.5-6.5,0.5-7.1c0-0.6,0.2-0.4,0.2-0.4"/>
		<path fill="none" stroke="#524B48" stroke-width="0.6609" d="M231.4,284.6c0,0,1.6-18.9,1.8-21.1c0.2-2.2,0.4-5,0.4-5
			s0.8-3.9,0.7-5.2c-0.1-1.2,0-4.1,0-4.1s0.9-14.3,1.1-16.5c0.2-2.2,0.6-7.8,0.6-7.8s0.6-4.1,0.6-5c0.1-1,0-1.9,0-1.9"/>
		<path fill="none" stroke="#524B48" stroke-width="0.6609" d="M229.8,284c0,0,1.8-12.7,1.7-14.5c-0.1-1.8,0.7-10.6,0.7-10.6
			s0.7-4.3,0.7-5.3c0.1-1,0.1-4,0.1-4s0.3-11.1,0.7-14c0.5-2.9,1-10.4,1-10.4s0.4-3.6,0.5-4.9c0-1.2,0.3-2.5,0.3-2.5"/>
		<path fill="none" stroke="#524B48" stroke-width="0.6609" d="M228.7,284c0,0,1.6-13.3,1.8-17.5c0.2-4.2,0.7-8.1,0.7-8.1l0.8-9.3
			c0,0,0.4-17,0.7-18.4c0.2-1.4,1.3-5.9,1.3-5.9s0.5-6.4,0.5-7.1c0-0.7-0.2,0.1-0.2,0.1"/>
		<path fill="none" stroke="#524B48" stroke-width="0.6609" d="M227.9,283.8c0,0,1.8-15.4,1.8-17.7c0-2.4,0.4-7.9,0.4-7.9
			s0.1-3,0.4-4.5c0.3-1.4,0.6-4.7,0.6-4.7s0.3-14.1,0.4-15.9c0.1-1.8,0.7-7.8,0.7-8.3c0-0.6,0.4-7.2,0.4-7.2"/>
		<path fill="none" stroke="#524B48" stroke-width="0.6609" d="M226.9,283.6c0,0,0.6-11,1.2-13.1c0.6-2.1,0.8-7.5,0.8-8.2
			c0-0.7,0.5-4,0.5-4s0-3.9,0.1-4.7c0.1-0.8,0.2-4.7,0.2-4.7s0.9-10.2,0.9-12.5c0-2.4,0.6-11.8,0.6-11.8s-0.3-4.5-0.1-5.5
			c0.1-1,0.5-1.5,0.5-1.5"/>
		<path fill="none" stroke="#524B48" stroke-width="0.6609" d="M225.8,283.8c0,0,1.6-15,1.7-17.9c0.2-2.9,0.7-7.9,0.7-7.9
			s0.4-3.5,0.4-5c-0.1-1.5,0-4.6,0-4.6s0.5-10.3,0.9-13.5c0.3-3.2,0.7-11,0.7-11s-0.2-5.1-0.1-5.8c0.2-0.7,0.4-0.7,0.4-0.7"/>
		<path fill="none" stroke="#524B48" stroke-width="0.6609" d="M225,283.5c0,0,1.2-14.6,1.3-16.5c0.1-1.8,0.8-9.3,0.8-9.3
			s0-4.2,0-4.6c0-0.4,0.6-5,0.6-5s1-11.1,0.9-13.3c-0.1-2.2,0.3-10.8,0.3-10.8s0.2-5,0.2-5.5c0.1-0.6,0.3-1.2,0.3-1.2"/>
		<path fill="none" stroke="#524B48" stroke-width="0.6609" d="M223.9,283.6c0,0,0.4-10.9,0.9-13.9c0.4-3.1,1-12,1-12
			s0.1-3.9,0.2-4.9c0.1-1,0.3-4.9,0.3-4.9s0.9-8.5,0.8-10.2c-0.1-1.7,0-10.1,0.1-11.1c0.2-1,0.3-3.1,0.3-3.1l0.4-6.3"/>
		<path fill="none" stroke="#524B48" stroke-width="0.6609" d="M222.5,282.7c0,0,1.4-11.3,1.5-13.6c0.1-2.4,0.4-11.8,0.4-11.8
			s0.4-4.2,0.5-5.2c0.1-1,0.4-4.5,0.4-4.5s0.3-8.2,0.6-11.1c0.3-2.9,0.7-13.2,0.7-13.2s0.4-4,0.4-5.6c0-1.5,0-0.5,0-0.5"/>
		<path fill="none" stroke="#524B48" stroke-width="0.6609" d="M221.5,282.7c0,0,1.3-11.7,1.4-15.8c0.1-4.2,0.3-9.8,0.3-9.8
			s0.7-3.8,0.7-5.6c0-1.8,0.3-3.9,0.3-3.9s0.2-8.2,0.6-12.8c0.4-4.6,0.8-11.5,0.8-11.5l0.4-6"/>
		<path fill="none" stroke="#524B48" stroke-width="0.6609" d="M220.5,282.6c0,0,0.8-9.6,1.1-12.2c0.3-2.7,0.4-7.8,0.4-8.3
			c0-0.6,0.1-5,0.1-5s0.4-2.1,0.8-3.8c0.4-1.7,0.7-5.9,0.7-5.9s0.4-14.4,0.5-16.6c0.1-2.2,0.5-7.6,0.5-7.6s0.4-5.2,0.3-5.8
			c0-0.6,0.2-0.3,0.2-0.3"/>
		<path fill="none" stroke="#524B48" stroke-width="0.6609" d="M219.7,282.7c0,0,1.1-13.3,1-15c-0.1-1.7,0.7-10.7,0.7-10.7
			s1.3-7.1,1.1-7.7c-0.2-0.5-0.4-2.1-0.4-2.1s0.3-9.3,0.5-11.6c0.2-2.4,0.8-12.6,0.8-12.6s0-3,0.4-5c0.4-2,0.2-0.8,0.2-0.8"/>
		<path fill="none" stroke="#524B48" stroke-width="0.6609" d="M218.6,282.6c0,0,1.1-13.6,1.1-15.2c0-1.7,0.4-10.4,0.4-10.4
			s0.2-3.1,0.4-3.6c0.3-0.6,0.1-4,0.1-4l0.2-2.4c0,0,0-8,0.3-9.6c0.3-1.5,0.9-14.6,0.9-14.6s0.5-2.4,0.4-2.9c0-0.6,0.1-2.6,0.1-2.6"
			/>
		<polyline fill="none" stroke="#524B48" stroke-width="0.6609" points="217.6,282.5 219.1,256.6 220,246.6 220.9,222.4 
			221.1,217.3 		"/>
		<polyline fill="none" stroke="#524B48" stroke-width="0.6609" points="216.6,282.1 217.7,259 218.7,249.8 219.6,228 220.2,217.4 
					"/>
		<path fill="none" stroke="#524B48" stroke-width="0.6609" d="M259.5,218.2c0,0-1.8,14.1-1.8,16.5c0,2.4-0.4,8-0.4,8
			s-0.1,3.1-0.4,4.5c-0.3,1.4-0.6,4.8-0.6,4.8s-1.5,14.3-1.7,16.1c-0.1,1.8-1.1,6.7-1,8.7c0.1,1.6-1.1,11.4-1.1,11.4"/>
		<path fill="none" stroke="#524B48" stroke-width="0.6609" d="M260.5,218.4c0,0-0.6,9.7-1.1,11.8c-0.6,2.1-0.8,7.6-0.8,8.3
			c0,0.7-0.5,4.1-0.5,4.1s0,3.9-0.1,4.8c-0.1,0.8-0.2,4.8-0.2,4.8s-1.4,10.2-1.4,12.5c0,2.4-1.3,12.3-1.3,12.3s-0.4,4.1-0.6,5.1
			c-0.1,1-0.8,6.3-0.8,6.3"/>
		<path fill="none" stroke="#524B48" stroke-width="0.6609" d="M261.6,218.2c0,0-1.5,13.7-1.7,16.6c-0.2,2.9-0.7,8-0.7,8
			s-0.4,3.5-0.4,5.1c0.1,1.5,0,4.6,0,4.6s-0.5,10.4-0.9,13.6c-0.3,3.2-0.7,11.1-0.7,11.1s-0.7,4.6-0.9,5.3c-0.2,0.7-0.8,5.8-0.8,5.8
			"/>
		<path fill="none" stroke="#524B48" stroke-width="0.6609" d="M262.4,218.6c0,0-1.2,13.4-1.3,15.2c-0.1,1.8-0.8,9.4-0.8,9.4
			s0,4.2,0,4.6c0,0.4-0.6,5.1-0.6,5.1s-1,11.3-0.9,13.5c0.1,2.2-0.3,10.9-0.3,10.9s-1.1,5.3-0.2,5.6l-1.4,5.5"/>
		<path fill="none" stroke="#524B48" stroke-width="0.6609" d="M263.5,218.5c0,0-0.4,9.5-0.8,12.7c-0.4,3.1-1,12.1-1,12.1
			s-0.1,3.9-0.2,4.9c-0.1,1-0.3,4.9-0.3,4.9s-0.9,8.6-0.8,10.3c0.1,1.7,0,10.2-0.1,11.2c-0.2,1-0.3,3.1-0.3,3.1l-0.9,11.1"/>
		<path fill="none" stroke="#524B48" stroke-width="0.6609" d="M264.7,218.5c0,0-1.2,10.7-1.3,13.1c-0.1,2.4-0.4,11.9-0.4,11.9
			s-0.4,4.2-0.5,5.2c-0.1,1-0.4,4.5-0.4,4.5s-0.3,8.3-0.6,11.2c-0.3,3-0.7,13.3-0.7,13.3s-0.4,4.1-0.4,5.6c0,1.5-0.4,5.5-0.4,5.5"/>
		<path fill="none" stroke="#524B48" stroke-width="0.6609" d="M265.8,218.6c0,0-1.1,11.1-1.2,15.3c-0.1,4.2-0.3,10-0.3,10
			s-0.7,3.8-0.7,5.7c0,1.8-0.3,3.9-0.3,3.9s-0.2,8.3-0.6,12.9c-0.4,4.6-0.8,11.7-0.8,11.7l-0.9,11.3"/>
		<path fill="none" stroke="#524B48" stroke-width="0.6609" d="M266.7,218.7c0,0-0.6,9-0.9,11.7c-0.3,2.7-0.4,7.9-0.4,8.4
			c0,0.6-0.1,5-0.1,5s-0.4,2.1-0.8,3.8c-0.4,1.7-0.7,5.9-0.7,5.9s-0.3,14.6-0.4,16.8c-0.1,2.2-0.5,7.7-0.5,7.7s-0.4,5.9-0.4,6.5
			c0,0.6-0.4,4.9-0.4,4.9"/>
		<path fill="none" stroke="#524B48" stroke-width="0.6609" d="M267.6,218.6c0,0-0.9,12.8-0.8,14.5c0.1,1.7-0.7,10.8-0.7,10.8
			s-1.3,7.2-1.1,7.8c0.2,0.5,0.4,2.1,0.4,2.1s-0.3,9.4-0.5,11.8c-0.2,2.4-0.8,12.8-0.8,12.8s0,3.1-0.4,5.1c-0.4,2-0.7,6.5-0.7,6.5"
			/>
		<path fill="none" stroke="#524B48" stroke-width="0.6609" d="M268.6,218.7c0,0-0.9,13.1-0.9,14.8c0,1.7-0.4,10.5-0.4,10.5
			s-0.2,3.1-0.4,3.7c-0.3,0.6-0.1,4.1-0.1,4.1l-0.2,2.4c0,0,0.1,8.1-0.3,9.7c-0.3,1.6-0.9,14.8-0.9,14.8s-0.5,2.4-0.4,3
			c0,0.6-0.2,8.8-0.2,8.8"/>
		<polyline fill="none" stroke="#524B48" stroke-width="0.6609" points="269.6,218.8 268.4,244.3 267.4,254.5 266.5,278.9 
			266,290.5 		"/>
		<polyline fill="none" stroke="#524B48" stroke-width="0.6609" points="270.8,218.7 269.7,244.5 268.7,254.8 267.9,279.1 
			267.2,290.9 		"/>
		<path fill="none" stroke="#524B48" stroke-width="0.6609" d="M293.6,295c1.2-15.6,1-14.5,1.6-21.6c0.1-1.1,0.8-9,0.8-9
			s1-4.8,1-6.2c0.1-1.4,0.3-4.5,0.3-4.5s1.1-17.9,1.2-19.6c0.1-1.7,0.4-4.5,0.4-4.5l1.4-9.3"/>
		<polyline fill="none" stroke="#524B48" stroke-width="0.6609" points="295.5,219.3 294.5,228.5 292.7,252.4 291.6,263.4 
			289.2,294 		"/>
		<path fill="none" stroke="#524B48" stroke-width="0.6609" d="M288.3,294c0,0,1.1-18.5,1.4-21.1c0.4-2.7,0.9-9.6,0.9-9.6l0.9-8.9
			v-2.2l2-23.8l1-9.1"/>
		<path fill="none" stroke="#524B48" stroke-width="0.6609" d="M287.2,294.3c0,0,0.6-16.1,1.1-19c0.6-3,1.2-9.7,1.2-9.7
			s0.6-3.1,0.6-4.8c-0.1-1.7,0.1-5.4,0.1-5.4s0.5-11.3,1-15.2c0.4-3.9,0.6-12.1,0.6-12.1s0.5-3.6,0.6-5.1c0-1.6,0.7-3.6,0.7-3.6"/>
		<path fill="none" stroke="#524B48" stroke-width="0.6609" d="M285.9,293.9c0,0,0.9-14.4,1.2-18.3c0.3-3.9,1.2-10.1,1.2-10.1
			s0.1-5.7,0.3-6.7c0.3-1,0.3-3.6,0.3-3.6s0.4-10.5,0.7-14c0.4-3.4,0.9-13.7,0.9-13.7s0.6-6.4,0.6-7.5c0-1.1-0.1-0.9-0.1-0.9"/>
		<path fill="none" stroke="#524B48" stroke-width="0.6609" d="M284.5,293.7c0,0,1.4-12.3,1.4-14.4c0-2.2,1.1-14.3,1.1-14.3
			s0.3-4,0.4-5.4c0-1.4,0.6-4.8,0.6-4.8s0.1-11.3,0.7-15.5c0.5-4.2,1-12,1-12s0.5-7.3,0.5-7.9c0-0.6,0.2-0.5,0.2-0.5"/>
		<path fill="none" stroke="#524B48" stroke-width="0.6609" d="M283.5,293.8c0,0,1.6-21.1,1.8-23.6c0.2-2.5,0.4-5.6,0.4-5.6
			s0.8-4.4,0.7-5.8c-0.1-1.4,0-4.6,0-4.6s0.9-16,1.1-18.5c0.2-2.5,0.6-8.7,0.6-8.7s0.6-4.5,0.6-5.6c0.1-1.1,0-2.1,0-2.1"/>
		<path fill="none" stroke="#524B48" stroke-width="0.6609" d="M281.9,293.1c0,0,1.8-14.2,1.7-16.2c-0.1-2,0.7-11.8,0.7-11.8
			s0.7-4.8,0.7-5.9c0.1-1.1,0.1-4.5,0.1-4.5s0.3-12.4,0.8-15.7c0.5-3.3,1-11.7,1-11.7s0.4-4,0.5-5.4c0-1.4,0.3-2.8,0.3-2.8"/>
		<path fill="none" stroke="#524B48" stroke-width="0.6609" d="M280.8,293.2c0,0,1.6-14.8,1.8-19.5c0.2-4.6,0.7-9,0.7-9l0.8-10.4
			c0,0,0.4-19,0.7-20.6c0.2-1.6,1.3-6.6,1.3-6.6s0.5-7.1,0.5-7.9c0-0.8-0.2,0.1-0.2,0.1"/>
		<path fill="none" stroke="#524B48" stroke-width="0.6609" d="M280,293c0,0,1.8-17.2,1.8-19.8c0-2.6,0.4-8.8,0.4-8.8s0.1-3.4,0.4-5
			c0.3-1.6,0.6-5.3,0.6-5.3s0.3-15.8,0.4-17.8c0.1-2,0.7-8.7,0.7-9.3c0-0.6,0.4-8,0.4-8"/>
		<path fill="none" stroke="#524B48" stroke-width="0.6609" d="M279,292.7c0,0,0.6-12.3,1.2-14.7c0.6-2.4,0.8-8.4,0.8-9.2
			c0-0.8,0.5-4.5,0.5-4.5s0-4.3,0.1-5.3c0.1-0.9,0.2-5.3,0.2-5.3s0.9-11.3,0.9-14c0-2.6,0.6-13.2,0.6-13.2s-0.3-5.1-0.1-6.2
			c0.1-1.1,0.5-1.7,0.5-1.7"/>
		<path fill="none" stroke="#524B48" stroke-width="0.6609" d="M277.9,293c0,0,1.6-16.7,1.7-19.9c0.2-3.3,0.7-8.9,0.7-8.9
			s0.4-3.9,0.4-5.6c-0.1-1.7,0-5.1,0-5.1s0.5-11.5,0.9-15c0.3-3.6,0.7-12.3,0.7-12.3s-0.2-5.7-0.1-6.5c0.2-0.8,0.4-0.8,0.4-0.8"/>
		<path fill="none" stroke="#524B48" stroke-width="0.6609" d="M277.1,292.6c0,0,1.2-16.3,1.3-18.4c0.1-2,0.8-10.4,0.8-10.4
			s0-4.6,0-5.1c0-0.5,0.5-5.6,0.5-5.6s1-12.4,0.9-14.9c-0.1-2.5,0.3-12.1,0.3-12.1s0.2-5.6,0.2-6.2c0.1-0.6,0.3-1.3,0.3-1.3"/>
		<path fill="none" stroke="#524B48" stroke-width="0.6609" d="M276,292.7c0,0,0.4-12.1,0.9-15.6c0.4-3.4,1-13.4,1-13.4
			s0.1-4.3,0.2-5.4c0.1-1.1,0.3-5.4,0.3-5.4s0.9-9.5,0.8-11.3c-0.1-1.8,0-11.3,0.1-12.4c0.2-1.1,0.3-3.4,0.3-3.4l0.4-7"/>
		<path fill="none" stroke="#524B48" stroke-width="0.6609" d="M274.6,291.8c0,0,1.4-12.6,1.5-15.2c0.1-2.6,0.4-13.2,0.4-13.2
			s0.4-4.7,0.5-5.7c0.1-1.1,0.4-5,0.4-5s0.3-9.1,0.6-12.4c0.3-3.3,0.7-14.7,0.7-14.7s0.4-4.5,0.4-6.2c0-1.7,0-0.6,0-0.6"/>
		<path fill="none" stroke="#524B48" stroke-width="0.6609" d="M273.6,291.7c0,0,1.3-13,1.4-17.7c0.1-4.6,0.3-11,0.3-11
			s0.7-4.2,0.7-6.2c0-2,0.3-4.3,0.3-4.3s0.2-9.1,0.6-14.3c0.4-5.1,0.8-12.9,0.8-12.9l0.4-6.7"/>
		<path fill="none" stroke="#524B48" stroke-width="0.6609" d="M272.6,291.6c0,0,0.8-10.7,1.1-13.6c0.3-3,0.4-8.7,0.4-9.3
			c0-0.6,0.1-5.6,0.1-5.6s0.4-2.3,0.8-4.2c0.4-1.9,0.7-6.5,0.7-6.5s0.3-16.1,0.4-18.6c0.1-2.5,0.5-8.5,0.5-8.5s0.4-5.9,0.3-6.5
			c0-0.6,0.2-0.4,0.2-0.4"/>
		<path fill="none" stroke="#524B48" stroke-width="0.6609" d="M271.8,291.7c0,0,1.1-14.9,1-16.7c-0.1-1.9,0.7-11.9,0.7-11.9
			s1.3-8,1.1-8.6c-0.2-0.6-0.4-2.3-0.4-2.3s0.3-10.4,0.5-13c0.2-2.6,0.8-14.1,0.8-14.1s0-3.4,0.4-5.6c0.4-2.2,0.2-0.9,0.2-0.9"/>
		<path fill="none" stroke="#524B48" stroke-width="0.6609" d="M270.7,291.6c0,0,1.1-15.2,1.1-17c0-1.9,0.4-11.6,0.4-11.6
			s0.2-3.4,0.4-4.1c0.3-0.6,0.1-4.5,0.1-4.5l0.2-2.6c0,0-0.1-8.9,0.3-10.7c0.3-1.7,0.9-16.3,0.9-16.3s0.5-2.7,0.4-3.3
			c0-0.6,0.1-2.9,0.1-2.9"/>
		<polyline fill="none" stroke="#524B48" stroke-width="0.6609" points="269.8,291.5 271.2,262.6 272.1,251.4 273,224.4 
			273.2,218.7 		"/>
		<polyline fill="none" stroke="#524B48" stroke-width="0.6609" points="268.7,291.1 269.9,265.2 270.9,254.9 271.7,230.7 
			272.3,218.9 		"/>
		<polyline fill="none" stroke="#524B48" stroke-width="0.6609" points="309.5,293.2 308,265 307.2,254.2 306.3,230.7 305.6,218.1 
					"/>
		<polyline fill="none" stroke="#524B48" stroke-width="0.6609" points="310.7,293.2 309.3,264.6 308.4,253.8 307.6,230.3 
			306.6,218.5 		"/>
		<polyline fill="none" stroke="#524B48" stroke-width="0.6609" points="307.8,218.8 308.6,230.1 309.5,253.6 310.1,264.4 
			311.9,293.1 		"/>
		<path fill="none" stroke="#524B48" stroke-width="0.6609" d="M312.9,293.2c0,0-0.9-16.9-1.2-19.5c-0.3-2.6-0.5-9.4-0.5-9.4
			l-0.5-8.7l0.1-2.2l-1.1-23.3l-0.6-11.3"/>
		<path fill="none" stroke="#524B48" stroke-width="0.6609" d="M313.9,293.6c0,0-0.3-8-0.4-10.2c-0.1-2.3-0.7-11.7-0.7-12.7
			c0-1,0.1-5.8,0.1-5.8s-0.8-3.1-1-4.6c-0.1-1.4-0.4-5.8-0.4-5.8s0.1-7.2-0.2-9.7c-0.3-2.5-0.2-14.7-0.2-14.7s-0.5-3-0.4-4.7
			c0.1-1.7-1.1-6.9-1.1-6.9"/>
		<polyline fill="none" stroke="#524B48" stroke-width="0.6609" points="314.9,293.4 313.8,264.8 312.2,254.3 312.4,229.9 
			310.7,218.7 		"/>
		<path fill="none" stroke="#524B48" stroke-width="0.6609" d="M315.6,293.7c0,0-0.2-13.4-0.1-17.2c0.1-3.8-0.5-11.9-0.5-11.9
			s-1.2-3-1.1-4.7c0.2-1.7-0.3-6.1-0.3-6.1s0.5-3.5,0.3-7.2c-0.2-3.7-0.5-16.8-0.5-16.8s-0.8-1.9-0.8-3.6c0-1.7-0.3-7.5-0.3-7.5"/>
		<path fill="none" stroke="#524B48" stroke-width="0.6609" d="M316.8,293.8c0,0-0.2-11.9-0.1-14.9c0.1-3-0.4-14.5-0.4-14.5
			s-1.2-3.9-1.2-4.3c0-0.4,0.3-2,0.2-3.1c-0.1-1.1-0.4-3.3-0.4-3.3s0.3-3.9,0.3-5.3c0-1.4-0.5-18.8-0.5-18.8s-0.6-1.3-0.8-3.7
			c-0.2-2.4-0.6-7.1-0.6-7.1"/>
		<path fill="none" stroke="#524B48" stroke-width="0.6609" d="M317.7,293.8c0,0-0.2-19.1-0.5-23.3c-0.2-4.2-0.1-6.2-0.1-6.2
			s-0.9-3.7-1-5.7c-0.1-2-0.2-5.2-0.2-5.2s0.1-13.9,0-15.8c-0.1-1.8-0.4-8.2-0.4-8.2s-0.5-2.1-0.9-6.5c-0.4-4.4-0.6-4-0.6-4"/>
		<polyline fill="none" stroke="#524B48" stroke-width="0.6609" points="319.2,293.6 318.9,264.2 318,253.3 317.4,229.2 
			316.3,218.9 		"/>
		<polyline fill="none" stroke="#524B48" stroke-width="0.6609" points="321.3,293.6 320.3,264 319.4,253 318.6,229 317.8,219.4 		
			"/>
		<polyline fill="none" stroke="#524B48" stroke-width="0.6609" points="323,293.4 321.5,263.7 320.7,252.6 319.9,228.6 
			318.8,219.3 		"/>
		<polyline fill="none" stroke="#524B48" stroke-width="0.6609" points="300.3,219.5 299.3,228.8 297.5,252.7 296.4,263.6 
			294,294.2 		"/>
		<path fill="none" stroke="#524B48" stroke-width="0.6609" d="M293.1,294.2c0,0,1.1-18.5,1.4-21.1c0.4-2.7,0.9-9.6,0.9-9.6l0.9-8.9
			v-2.2l2-23.8l1-9.1"/>
		<path fill="none" stroke="#524B48" stroke-width="0.6609" d="M292,294.5c0,0,0.6-16.1,1.1-19c0.6-3,1.2-9.7,1.2-9.7
			s0.6-3.1,0.6-4.8c-0.1-1.7,0.1-5.4,0.1-5.4s0.5-11.3,1-15.2c0.4-3.9,0.6-12.1,0.6-12.1s0.5-3.6,0.6-5.1c0-1.6,0.7-3.6,0.7-3.6"/>
		<path fill="none" stroke="#524B48" stroke-width="0.6609" d="M290.6,294.1c0,0,0.9-14.4,1.2-18.3c0.3-3.9,1.2-10.1,1.2-10.1
			s0.1-5.7,0.3-6.7c0.3-0.9,0.3-3.6,0.3-3.6s0.4-10.5,0.7-14c0.3-3.4,0.9-13.7,0.9-13.7s0.6-6.4,0.6-7.5c0-1.1-0.1-0.9-0.1-0.9"/>
		<path fill="none" stroke="#524B48" stroke-width="0.6609" d="M289.3,293.9c0,0,1.4-12.3,1.4-14.4c0-2.2,1.1-14.3,1.1-14.3
			s0.3-4,0.4-5.4c0-1.4,0.6-4.8,0.6-4.8s0.1-11.3,0.7-15.5c0.5-4.2,1-12,1-12s0.5-7.3,0.5-7.9c0-0.6,0.2-0.5,0.2-0.5"/>
		<path fill="none" stroke="#524B48" stroke-width="0.6609" d="M404.3,217.2c0,0,1.7,10.3,1.7,11.9c-0.1,1.6,0.7,9.6,0.7,9.6
			s0.7,3.9,0.7,4.8c0.1,0.9,0.1,3.6,0.1,3.6s0.3,10.1,0.8,12.7c0.5,2.7,1,9.5,1,9.5s0.4,3.3,0.5,4.4c0,1.1,0.3,11.2,0.3,11.2"/>
		<path fill="none" stroke="#524B48" stroke-width="0.6609" d="M403.3,217.1c0,0,1.5,10.8,1.7,14.5c0.2,3.8,0.7,7.3,0.7,7.3l0.8,8.5
			c0,0,0.4,15.4,0.7,16.7c0.2,1.3,1.3,5.3,1.3,5.3s0.5,5.8,0.5,6.4c0,0.6,0,9.3,0,9.3"/>
		<path fill="none" stroke="#524B48" stroke-width="0.6609" d="M402.4,217.3c0,0,1.8,12.7,1.8,14.8c0,2.1,0.4,7.2,0.4,7.2
			s0.1,2.8,0.4,4c0.3,1.3,0.6,4.3,0.6,4.3s0.3,12.8,0.4,14.4c0.1,1.6,0.7,7.1,0.7,7.6c0,0.5,0.6,15.8,0.6,15.8"/>
		<path fill="none" stroke="#524B48" stroke-width="0.6609" d="M401.4,217.5c0,0,0.6,8.7,1.1,10.6c0.6,1.9,0.8,6.8,0.8,7.4
			c0,0.6,0.5,3.7,0.5,3.7s0,3.5,0.1,4.3c0.1,0.8,0.2,4.3,0.2,4.3s0.9,9.2,0.9,11.3c0,2.1,0.6,10.7,0.6,10.7s-0.3,4.1-0.1,5
			c0.1,0.9,0.7,11.2,0.7,11.2"/>
		<path fill="none" stroke="#524B48" stroke-width="0.6609" d="M400.3,217.3c0,0,1.5,12.3,1.7,14.9c0.2,2.6,0.7,7.2,0.7,7.2
			s0.4,3.2,0.4,4.5c-0.1,1.4,0,4.1,0,4.1s0.5,9.3,0.9,12.2c0.3,2.9,0.7,9.9,0.7,9.9s-0.2,4.6-0.1,5.3c0.2,0.6,0.6,10.5,0.6,10.5"/>
		<path fill="none" stroke="#524B48" stroke-width="0.6609" d="M399.5,217.6c0,0,1.2,12,1.3,13.6c0.1,1.6,0.8,8.4,0.8,8.4
			s0,3.8,0,4.1c0,0.4,0.6,4.5,0.6,4.5s1,10.1,0.9,12.1c-0.1,2,0.3,9.8,0.3,9.8s0.2,4.5,0.2,5c0.1,0.5,0.5,10.9,0.5,10.9"/>
		<path fill="none" stroke="#524B48" stroke-width="0.6609" d="M398.5,217.6c0,0,0.4,8.6,0.8,11.3c0.4,2.8,1,10.8,1,10.8
			s0.1,3.5,0.2,4.4c0.1,0.9,0.3,4.4,0.3,4.4s0.9,7.7,0.8,9.2c-0.1,1.5-0.1,9.1,0.1,10c0.2,0.9,0.3,2.8,0.3,2.8l1,15.9"/>
		<path fill="none" stroke="#524B48" stroke-width="0.6609" d="M397.2,217.6c0,0,1.2,9.6,1.3,11.7c0.1,2.1,0.4,10.7,0.4,10.7
			s0.4,3.8,0.4,4.7c0.1,0.9,0.4,4,0.4,4s0.3,7.4,0.6,10.1c0.3,2.6,0.7,12,0.7,12s0.4,3.7,0.4,5c0,1.4,0.5,10.8,0.5,10.8"/>
		<path fill="none" stroke="#524B48" stroke-width="0.6609" d="M396.2,217.7c0,0,1.1,10,1.2,13.7c0.1,3.8,0.2,8.9,0.2,8.9
			s0.7,3.4,0.7,5.1c0,1.6,0.3,3.5,0.3,3.5s0.2,7.4,0.6,11.6c0.4,4.2,0.8,10.5,0.8,10.5l1,16"/>
		<path fill="none" stroke="#524B48" stroke-width="0.6609" d="M395.2,217.7c0,0,0.6,8.1,0.9,10.5c0.3,2.4,0.4,7.1,0.4,7.5
			c0,0.5,0.1,4.5,0.1,4.5s0.4,1.9,0.8,3.4c0.4,1.5,0.7,5.3,0.7,5.3s0.3,13.1,0.4,15.1c0.1,2,0.5,6.9,0.5,6.9s0.4,5.3,0.4,5.8
			c0,0.5,0.5,10.3,0.5,10.3"/>
		<path fill="none" stroke="#524B48" stroke-width="0.6609" d="M394.3,217.7c0,0,0.9,11.5,0.8,13c-0.1,1.5,0.7,9.7,0.7,9.7
			s1.3,6.5,1.1,7c-0.2,0.5-0.4,1.9-0.4,1.9s0.3,8.4,0.5,10.6c0.2,2.1,0.8,11.5,0.8,11.5s0,2.8,0.4,4.5c0.4,1.8,1.2,10.4,1.2,10.4"/>
		<path fill="none" stroke="#524B48" stroke-width="0.6609" d="M393.3,217.7c0,0,0.9,11.7,0.9,13.2c0,1.5,0.4,9.4,0.4,9.4
			s0.2,2.8,0.4,3.3c0.3,0.5,0.1,3.6,0.1,3.6l0.2,2.1c0,0-0.1,7.3,0.3,8.7c0.3,1.4,0.9,13.2,0.9,13.2s0.5,2.2,0.4,2.7
			c0,0.5,0.8,12.5,0.8,12.5"/>
		<polyline fill="none" stroke="#524B48" stroke-width="0.6609" points="392.3,217.8 393.6,240.7 394.5,249.8 395.4,271.6 
			396.5,286.7 		"/>
		<polyline fill="none" stroke="#524B48" stroke-width="0.6609" points="391.1,217.7 392.2,240.9 393.2,250.1 394,271.8 395.3,287 
					"/>
		<polyline fill="none" stroke="#524B48" stroke-width="0.6609" points="358.4,291.2 356,259.9 354.7,250.2 353,229.3 351.8,218 		
			"/>
		<polyline fill="none" stroke="#524B48" stroke-width="0.6609" points="359.6,291.2 357.2,259.5 356,249.9 354.3,228.9 
			352.8,218.4 		"/>
		<polyline fill="none" stroke="#524B48" stroke-width="0.6609" points="354.1,218.6 355.2,228.7 357,249.6 358.1,259.2 
			360.8,291.1 		"/>
		<path fill="none" stroke="#524B48" stroke-width="0.6609" d="M361.8,291.1c0,0-1.4-21.3-1.8-23.6c-0.4-2.3-0.9-8.4-0.9-8.4
			l-0.9-7.8v-2l-2-20.8l-1-10"/>
		<path fill="none" stroke="#524B48" stroke-width="0.6609" d="M363.3,290.3c0,0-0.9-12.2-1.1-14.3c-0.2-2-1.1-10.5-1.1-11.3
			c0-0.9-0.1-5.2-0.1-5.2s-1-2.8-1.1-4c-0.2-1.3-0.6-5.2-0.6-5.2s-0.2-6.4-0.6-8.7c-0.4-2.3-0.8-13.1-0.8-13.1s-0.6-2.6-0.6-4.2
			c0-1.5-1.3-6.1-1.3-6.1"/>
		<polyline fill="none" stroke="#524B48" stroke-width="0.6609" points="364.3,289.9 361.8,259.5 359.8,250.1 359,228.3 
			356.9,218.4 		"/>
		<path fill="none" stroke="#524B48" stroke-width="0.6609" d="M365.4,289.7c0,0-1.4-16.5-1.5-19.9c-0.1-3.4-1-10.6-1-10.6
			s-1.3-2.6-1.2-4.2c0.1-1.5-0.5-5.4-0.5-5.4s0.4-3.2,0-6.4c-0.4-3.3-1.1-15-1.1-15s-0.9-1.6-1-3.2c-0.1-1.5-0.6-6.7-0.6-6.7"/>
		<path fill="none" stroke="#524B48" stroke-width="0.6609" d="M367.2,289.7c0,0-2.1-15.2-2.1-17.8c0-2.6-1-13-1-13
			s-1.3-3.4-1.3-3.8c0-0.4,0.2-1.8,0.1-2.8c-0.1-1-0.6-2.9-0.6-2.9s0.2-3.5,0.1-4.8c-0.1-1.3-1.2-16.8-1.2-16.8s-0.7-1.1-1-3.3
			c-0.3-2.1-0.9-6.3-0.9-6.3"/>
		<path fill="none" stroke="#524B48" stroke-width="0.6609" d="M368.2,289.7c0,0-2.4-21.6-2.8-25.4c-0.4-3.8-0.4-5.5-0.4-5.5
			s-1-3.3-1.2-5c-0.2-1.8-0.4-4.7-0.4-4.7s-0.4-12.5-0.6-14.1c-0.2-1.6-0.7-7.3-0.7-7.3s-0.6-1.9-1.1-5.8c-0.6-3.9-0.7-3.5-0.7-3.5"
			/>
		<path fill="none" stroke="#524B48" stroke-width="0.6609" d="M369.1,289.6c0,0-2.3-21.8-2.4-22.8c-0.1-1-0.8-8.1-0.8-8.1
			s-1-4.3-1-5.5c-0.1-1.3-0.3-4-0.3-4s-1.1-16-1.2-17.5c-0.1-1.5-0.4-4-0.4-4l-1.4-8.3"/>
		<polyline fill="none" stroke="#524B48" stroke-width="0.6609" points="370.1,289.5 366.8,258.7 365.5,249 364,227.4 362.6,218.3 
					"/>
		<polyline fill="none" stroke="#524B48" stroke-width="0.6609" points="370.9,290.4 368.2,258.4 366.9,248.6 365.2,227.2 
			364,218.6 		"/>
		<polyline fill="none" stroke="#524B48" stroke-width="0.6609" points="372.1,290.4 369.4,258.1 368.2,248.2 366.5,226.8 
			365.1,218.5 		"/>
		<polyline fill="none" stroke="#524B48" stroke-width="0.6609" points="366.4,218.3 367.4,226.6 369.2,248 370.3,257.8 
			373.2,289.8 		"/>
		<path fill="none" stroke="#524B48" stroke-width="0.6609" d="M374.2,289.8c0,0-1.6-21.2-2-23.6c-0.4-2.4-0.9-8.6-0.9-8.6l-0.9-7.9
			v-2l-2-21.3l-1-8.2"/>
		<path fill="none" stroke="#524B48" stroke-width="0.6609" d="M375.3,290c0,0-1.1-19-1.7-21.7c-0.6-2.7-1.2-8.7-1.2-8.7
			s-0.6-2.8-0.6-4.3c0.1-1.5-0.1-4.8-0.1-4.8s-0.5-10.1-1-13.6c-0.4-3.5-0.6-10.8-0.6-10.8s-0.5-3.2-0.6-4.6c0-1.4-0.7-3.2-0.7-3.2"
			/>
		<path fill="none" stroke="#524B48" stroke-width="0.6609" d="M376.6,289.7c0,0-1.4-17.5-1.8-21c-0.3-3.5-1.2-9.1-1.2-9.1
			s-0.1-5.1-0.3-6c-0.2-0.8-0.3-3.2-0.3-3.2s-0.4-9.4-0.7-12.5c-0.4-3.1-0.9-12.2-0.9-12.2s-0.6-5.7-0.6-6.7c0-1,0.1-0.8,0.1-0.8"/>
		<path fill="none" stroke="#524B48" stroke-width="0.6609" d="M378,289.5c0,0-1.9-15.6-1.9-17.5c0-1.9-1.1-12.8-1.1-12.8
			s-0.3-3.6-0.4-4.9c0-1.2-0.6-4.3-0.6-4.3s-0.2-10.1-0.7-13.9c-0.5-3.8-1-10.7-1-10.7s-0.5-6.5-0.5-7.1c0-0.6-0.2-0.4-0.2-0.4"/>
		<path fill="none" stroke="#524B48" stroke-width="0.6609" d="M379,289.6c0,0-2.2-23.5-2.3-25.7c-0.2-2.2-0.4-5-0.4-5
			s-0.8-3.9-0.7-5.2c0.1-1.2,0-4.1,0-4.1s-0.9-14.3-1.1-16.5c-0.2-2.2-0.6-7.8-0.6-7.8s-0.6-4.1-0.7-5c-0.1-1,0-1.9,0-1.9"/>
		<path fill="none" stroke="#524B48" stroke-width="0.6609" d="M380.6,289c0,0-2.3-17.4-2.2-19.1c0.1-1.8-0.7-10.6-0.7-10.6
			s-0.7-4.3-0.7-5.3c-0.1-1-0.1-4-0.1-4s-0.3-11.1-0.7-14c-0.5-2.9-1-10.5-1-10.5s-0.4-3.6-0.5-4.9c0-1.2-0.3-2.5-0.3-2.5"/>
		<path fill="none" stroke="#524B48" stroke-width="0.6609" d="M381.6,289.1c0,0-2.1-17.9-2.3-22.1c-0.2-4.2-0.7-8.1-0.7-8.1
			l-0.8-9.3c0,0-0.4-17-0.7-18.4c-0.2-1.4-1.3-5.9-1.3-5.9s-0.5-6.4-0.5-7.1c0-0.7,0.2,0.1,0.2,0.1"/>
		<path fill="none" stroke="#524B48" stroke-width="0.6609" d="M382.5,288.9c0,0-2.4-20-2.4-22.3c0-2.4-0.4-7.9-0.4-7.9
			s-0.1-3-0.4-4.5c-0.3-1.4-0.6-4.7-0.6-4.7s-0.3-14.1-0.4-15.9c-0.1-1.8-0.7-7.8-0.7-8.3c0-0.6-0.4-7.2-0.4-7.2"/>
		<path fill="none" stroke="#524B48" stroke-width="0.6609" d="M383.5,288.7c0,0-1.2-15.6-1.7-17.7c-0.6-2.1-0.8-7.5-0.8-8.2
			c0-0.7-0.5-4-0.5-4s0-3.9-0.1-4.7c-0.1-0.8-0.2-4.7-0.2-4.7s-0.9-10.2-0.9-12.5c0-2.4-0.6-11.8-0.6-11.8s0.3-4.5,0.1-5.5
			c-0.1-1-0.5-1.5-0.5-1.5"/>
		<path fill="none" stroke="#524B48" stroke-width="0.6609" d="M384.6,288.9c0,0-2.1-19.6-2.3-22.5c-0.2-2.9-0.7-7.9-0.7-7.9
			s-0.4-3.5-0.4-5c0.1-1.5,0-4.6,0-4.6s-0.5-10.3-0.9-13.5c-0.3-3.2-0.7-11-0.7-11s0.2-5.1,0.1-5.8c-0.2-0.7-0.4-0.7-0.4-0.7"/>
		<path fill="none" stroke="#524B48" stroke-width="0.6609" d="M385.4,288.5c0,0-1.8-19.3-1.9-21.1c-0.1-1.8-0.8-9.3-0.8-9.3
			s0-4.2,0-4.6c0-0.4-0.6-5-0.6-5s-1-11.1-0.9-13.3c0.1-2.2-0.3-10.8-0.3-10.8s-0.2-5-0.2-5.6c-0.1-0.6-0.3-1.2-0.3-1.2"/>
		<path fill="none" stroke="#524B48" stroke-width="0.6609" d="M386.4,288.6c0,0-1-15.5-1.4-18.5c-0.4-3.1-1-12-1-12
			s-0.1-3.9-0.2-4.9c-0.1-1-0.3-4.9-0.3-4.9s-0.9-8.5-0.8-10.2c0.1-1.7,0-10.1-0.1-11.1c-0.2-1-0.3-3.1-0.3-3.1l-0.4-6.3"/>
		<path fill="none" stroke="#524B48" stroke-width="0.6609" d="M387.8,287.8c0,0-1.9-15.9-2-18.2c-0.1-2.4-0.4-11.8-0.4-11.8
			s-0.4-4.2-0.4-5.2c-0.1-1-0.4-4.5-0.4-4.5s-0.3-8.2-0.6-11.1c-0.3-2.9-0.7-13.2-0.7-13.2s-0.4-4-0.4-5.6c0-1.5,0-0.5,0-0.5"/>
		<path fill="none" stroke="#524B48" stroke-width="0.6609" d="M388.9,287.7c0,0-1.8-16.3-1.9-20.4c-0.1-4.2-0.3-9.8-0.3-9.8
			s-0.7-3.8-0.7-5.6c0-1.8-0.3-3.9-0.3-3.9s-0.2-8.2-0.6-12.8c-0.4-4.6-0.8-11.5-0.8-11.5l-0.4-6"/>
		<path fill="none" stroke="#524B48" stroke-width="0.6609" d="M389.8,287.7c0,0-1.3-14.2-1.6-16.8c-0.3-2.6-0.4-7.8-0.4-8.3
			c0-0.6-0.1-5-0.1-5s-0.4-2.1-0.8-3.8c-0.4-1.7-0.7-5.9-0.7-5.9s-0.3-14.4-0.5-16.6c-0.1-2.2-0.5-7.6-0.5-7.6s-0.4-5.2-0.3-5.8
			c0-0.5-0.2-0.3-0.2-0.3"/>
		<path fill="none" stroke="#524B48" stroke-width="0.6609" d="M390.7,287.7c0,0-1.7-17.9-1.6-19.6c0.1-1.7-0.7-10.7-0.7-10.7
			s-1.3-7.1-1.1-7.7c0.2-0.5,0.4-2.1,0.4-2.1s-0.3-9.3-0.5-11.7c-0.2-2.4-0.8-12.6-0.8-12.6s0-3-0.4-5c-0.4-2-0.2-0.8-0.2-0.8"/>
		<path fill="none" stroke="#524B48" stroke-width="0.6609" d="M391.8,287.6c0,0-1.7-18.2-1.7-19.9c0-1.7-0.4-10.4-0.4-10.4
			s-0.2-3.1-0.4-3.6c-0.3-0.6-0.1-4-0.1-4l-0.2-2.4c0,0,0.1-8-0.3-9.6c-0.3-1.6-0.9-14.6-0.9-14.6s-0.5-2.4-0.4-2.9
			c0-0.6-0.1-2.6-0.1-2.6"/>
		<polyline fill="none" stroke="#524B48" stroke-width="0.6609" points="392.7,287.6 390.7,257 389.8,247 388.9,222.9 388.7,217.7 
					"/>
		<polyline fill="none" stroke="#524B48" stroke-width="0.6609" points="393.7,287.2 392.1,259.4 391.1,250.2 390.3,228.5 
			389.6,217.9 		"/>
		<path fill="none" stroke="#524B48" stroke-width="0.6609" d="M350.3,218.7c0,0,1.8,14.1,1.8,16.5c0,2.4,0.4,8,0.4,8
			s0.1,3.1,0.4,4.5c0.3,1.4,0.6,4.8,0.6,4.8s1.5,14.3,1.7,16.1c0.1,1.8,1.1,6.7,1,8.7c-0.1,1.6,1.2,14.4,1.2,14.4"/>
		<path fill="none" stroke="#524B48" stroke-width="0.6609" d="M349.3,218.9c0,0,0.6,9.7,1.1,11.8c0.6,2.1,0.8,7.6,0.8,8.3
			c0,0.7,0.5,4.1,0.5,4.1s0,3.9,0.1,4.8c0.1,0.8,0.2,4.8,0.2,4.8s1.4,10.2,1.4,12.5c0,2.4,1.3,12.3,1.3,12.3s0.5,10.1,0.7,11
			c0.1,1,0.7,3.4,0.7,3.4"/>
		<path fill="none" stroke="#524B48" stroke-width="0.6609" d="M348.2,218.6c0,0,1.5,13.7,1.7,16.6c0.2,2.9,0.7,8,0.7,8
			s0.4,3.5,0.4,5.1c-0.1,1.5,0,4.6,0,4.6s0.5,10.4,0.9,13.6c0.3,3.2,0.7,11.1,0.7,11.1s0.7,4.6,0.9,5.3c0.2,0.7,0.8,8.8,0.8,8.8"/>
		<path fill="none" stroke="#524B48" stroke-width="0.6609" d="M347.4,219c0,0,1.2,13.4,1.3,15.2c0.1,1.8,0.8,9.4,0.8,9.4
			s0,4.2,0,4.6c0,0.4,0.6,5.1,0.6,5.1s1,11.3,0.9,13.5c-0.1,2.2,0.3,10.9,0.3,10.9s1.1,5.3,0.2,5.6l1.6,8.2"/>
		<path fill="none" stroke="#524B48" stroke-width="0.6609" d="M346.4,218.9c0,0,0.4,9.5,0.8,12.7c0.4,3.1,1,12.1,1,12.1
			s0.1,3.9,0.2,4.9c0.1,1,0.3,4.9,0.3,4.9s0.9,8.6,0.8,10.3c-0.1,1.7,0,10.2,0.1,11.2c0.2,1,0.4,3.1,0.4,3.1l1.5,13.9"/>
		<path fill="none" stroke="#524B48" stroke-width="0.6609" d="M345.1,219c0,0,1.2,10.7,1.3,13.1c0.1,2.4,0.4,11.9,0.4,11.9
			s0.4,4.2,0.5,5.2c0,1,0.4,4.5,0.4,4.5s0.3,8.3,0.6,11.2c0.3,3,0.7,13.3,0.7,13.3s0.4,4.1,0.4,5.6c0,1.5,0.8,8.1,0.8,8.1"/>
		<path fill="none" stroke="#524B48" stroke-width="0.6609" d="M344.1,219.1c0,0,1.1,11.1,1.2,15.3c0.1,4.2,0.3,10,0.3,10
			s0.7,3.8,0.7,5.7c0,1.8,0.3,3.9,0.3,3.9s0.2,8.3,0.6,12.9c0.4,4.6,0.8,11.7,0.8,11.7l0.9,13.5"/>
		<path fill="none" stroke="#524B48" stroke-width="0.6609" d="M343.1,219.1c0,0,0.6,9,0.8,11.7c0.3,2.7,0.4,7.9,0.4,8.4
			c0,0.6,0.1,5,0.1,5s0.4,2.1,0.8,3.8c0.4,1.7,0.7,5.9,0.7,5.9s0.4,14.6,0.4,16.8c0.1,2.2,0.5,7.7,0.5,7.7s0.4,5.9,0.4,6.5
			c0,0.6,0.7,7.2,0.7,7.2"/>
		<path fill="none" stroke="#524B48" stroke-width="0.6609" d="M342.2,219.1c0,0,0.9,12.8,0.8,14.5c-0.1,1.7,0.7,10.8,0.7,10.8
			s1.3,7.2,1.1,7.8c-0.2,0.5-0.4,2.1-0.4,2.1s0.3,9.4,0.5,11.8c0.2,2.4,0.8,12.8,0.8,12.8s0,3.1,0.4,5.1c0.4,2,0.7,8.1,0.7,8.1"/>
		<path fill="none" stroke="#524B48" stroke-width="0.6609" d="M341.2,219.1c0,0,0.9,13.1,0.9,14.8c0,1.7,0.4,10.5,0.4,10.5
			s0.2,3.1,0.4,3.7c0.3,0.6,0.1,4.1,0.1,4.1l0.2,2.4c0,0-0.1,8.1,0.3,9.7c0.3,1.6,0.9,14.8,0.9,14.8s0.5,2.4,0.4,3
			c0,0.6,0.5,10.3,0.5,10.3"/>
		<polyline fill="none" stroke="#524B48" stroke-width="0.6609" points="340.2,219.2 341.5,244.8 342.4,254.9 343.3,279.3 
			344.2,291.8 		"/>
		<polyline fill="none" stroke="#524B48" stroke-width="0.6609" points="339,219.1 340.1,244.9 341.1,255.2 341.9,279.5 
			342.6,291.3 		"/>
		<path fill="none" stroke="#524B48" stroke-width="0.6609" d="M324.2,292.9c0,0-0.2-11-0.3-13.2c0-2.2-1.1-14.3-1.1-14.3
			s-0.3-4-0.4-5.4c0-1.4-0.6-4.8-0.6-4.8s-0.1-11.3-0.7-15.5c-0.5-4.2-1-12-1-12s-0.5-7.3-0.5-7.9c0-0.6-0.2-0.5-0.2-0.5"/>
		<path fill="none" stroke="#524B48" stroke-width="0.6609" d="M326.3,294.2c0,0-1.6-21.1-1.8-23.6c-0.2-2.5-0.4-5.6-0.4-5.6
			s-0.8-4.4-0.7-5.8c0.1-1.4,0-4.6,0-4.6s-0.9-16-1.1-18.5c-0.2-2.5-0.6-8.7-0.6-8.7s-0.6-4.5-0.6-5.6c-0.1-1.1,0-2.1,0-2.1"/>
		<path fill="none" stroke="#524B48" stroke-width="0.6609" d="M327.9,293.6c0,0-1.8-14.2-1.7-16.2c0.1-2-0.7-11.8-0.7-11.8
			s-0.7-4.8-0.7-5.9c-0.1-1.1-0.1-4.5-0.1-4.5s-0.3-12.4-0.7-15.7c-0.5-3.3-1-11.7-1-11.7s-0.4-4-0.5-5.4c0-1.4-0.3-2.8-0.3-2.8"/>
		<path fill="none" stroke="#524B48" stroke-width="0.6609" d="M329,293.7c0,0-1.6-14.8-1.8-19.5c-0.2-4.6-0.7-9-0.7-9l-0.8-10.4
			c0,0-0.4-19-0.7-20.6c-0.2-1.6-1.3-6.6-1.3-6.6s-0.5-7.1-0.5-7.9c0-0.8,0.2,0.1,0.2,0.1"/>
		<path fill="none" stroke="#524B48" stroke-width="0.6609" d="M329.8,293.4c0,0-1.9-17.2-1.9-19.8c0-2.6-0.4-8.8-0.4-8.8
			s-0.1-3.4-0.4-5c-0.3-1.6-0.6-5.3-0.6-5.3s-0.3-15.8-0.4-17.8c-0.1-2-0.7-8.7-0.7-9.3c0-0.6-0.4-8-0.4-8"/>
		<path fill="none" stroke="#524B48" stroke-width="0.6609" d="M330.8,293.2c0,0-0.6-12.3-1.2-14.7c-0.6-2.4-0.8-8.4-0.8-9.2
			c0-0.8-0.5-4.5-0.5-4.5s0-4.3-0.1-5.3c-0.1-0.9-0.2-5.3-0.2-5.3s-0.9-11.3-0.9-14c0-2.6-0.6-13.2-0.6-13.2s0.3-5.1,0.1-6.2
			c-0.2-1.1-0.5-1.7-0.5-1.7"/>
		<path fill="none" stroke="#524B48" stroke-width="0.6609" d="M331.9,293.4c0,0-1.6-16.7-1.7-19.9c-0.2-3.3-0.7-8.9-0.7-8.9
			s-0.4-3.9-0.4-5.6c0.1-1.7,0-5.1,0-5.1s-0.5-11.5-0.9-15.1c-0.3-3.6-0.7-12.3-0.7-12.3s0.2-5.7,0.1-6.5c-0.2-0.8-0.4-0.8-0.4-0.8"
			/>
		<path fill="none" stroke="#524B48" stroke-width="0.6609" d="M332.7,293c0,0-1.2-16.3-1.3-18.4c-0.1-2-0.8-10.4-0.8-10.4
			s0-4.6,0-5.1c0-0.5-0.6-5.6-0.6-5.6s-1-12.4-0.9-14.9c0.1-2.5-0.3-12.1-0.3-12.1s-0.2-5.6-0.2-6.2c-0.1-0.6-0.3-1.3-0.3-1.3"/>
		<path fill="none" stroke="#524B48" stroke-width="0.6609" d="M333.8,293.1c0,0-0.4-12.1-0.9-15.6c-0.4-3.4-1-13.4-1-13.4
			s-0.1-4.3-0.2-5.4c-0.1-1.1-0.3-5.4-0.3-5.4s-0.9-9.5-0.8-11.3c0.1-1.8,0-11.3-0.1-12.4c-0.2-1.1-0.4-3.4-0.4-3.4l-0.4-7"/>
		<path fill="none" stroke="#524B48" stroke-width="0.6609" d="M335.2,292.2c0,0-1.4-12.6-1.5-15.2c-0.1-2.6-0.4-13.2-0.4-13.2
			s-0.4-4.7-0.4-5.8c-0.1-1.1-0.4-5-0.4-5s-0.3-9.1-0.6-12.4c-0.3-3.3-0.7-14.7-0.7-14.7s-0.4-4.5-0.4-6.2c0-1.7,0-0.6,0-0.6"/>
		<path fill="none" stroke="#524B48" stroke-width="0.6609" d="M336.2,292.1c0,0-1.3-13-1.4-17.7c-0.1-4.6-0.3-11-0.3-11
			s-0.7-4.2-0.7-6.2c0-2-0.3-4.3-0.3-4.3s-0.2-9.1-0.6-14.3c-0.4-5.1-0.8-12.9-0.8-12.9l-0.4-6.7"/>
		<path fill="none" stroke="#524B48" stroke-width="0.6609" d="M337.2,292.1c0,0-0.8-10.7-1.1-13.6c-0.3-3-0.4-8.7-0.4-9.3
			c0-0.6-0.1-5.6-0.1-5.6s-0.4-2.4-0.8-4.2c-0.4-1.9-0.7-6.5-0.7-6.5s-0.4-16.1-0.5-18.6c-0.1-2.5-0.5-8.5-0.5-8.5s-0.4-5.9-0.3-6.5
			c0-0.6-0.2-0.4-0.2-0.4"/>
		<path fill="none" stroke="#524B48" stroke-width="0.6609" d="M338,292.1c0,0-1.1-14.9-1-16.7c0.1-1.9-0.7-11.9-0.7-11.9
			s-1.3-8-1.1-8.6c0.2-0.6,0.4-2.3,0.4-2.3s-0.3-10.4-0.5-13c-0.2-2.6-0.8-14.1-0.8-14.1s0-3.4-0.4-5.6c-0.4-2.2-0.2-0.9-0.2-0.9"/>
		<path fill="none" stroke="#524B48" stroke-width="0.6609" d="M339.1,292c0,0-1.1-15.2-1.1-17c0-1.9-0.4-11.6-0.4-11.6
			s-0.2-3.4-0.4-4.1c-0.3-0.6-0.1-4.5-0.1-4.5l-0.2-2.6c0,0,0.1-8.9-0.3-10.7c-0.3-1.7-0.9-16.3-0.9-16.3s-0.5-2.7-0.4-3.3
			c0-0.6-0.1-2.9-0.1-2.9"/>
		<polyline fill="none" stroke="#524B48" stroke-width="0.6609" points="340.1,292 338.6,263 337.7,251.8 336.8,224.9 336.6,219.1 
					"/>
		<polyline fill="none" stroke="#524B48" stroke-width="0.6609" points="341.1,291.5 340,265.7 339,255.4 338.1,231.1 337.5,219.3 
					"/>
		<path fill="none" stroke="#524B48" stroke-width="0.6609" d="M491.7,207.4c0,0,0.6,17.6,0.5,19.1c-0.1,1.4,0.7,8.5,0.7,8.5
			s0.7,3.5,0.7,4.3c0.1,0.8,0.1,3.2,0.1,3.2s1,15.8,1.5,18.2"/>
		<path fill="none" stroke="#524B48" stroke-width="0.6609" d="M490.6,207.4c0,0,0.4,18.1,0.6,21.4c0.2,3.4,0.7,6.5,0.7,6.5l0.8,7.5
			c0,0,0.4,13.7,0.7,14.9c0.2,1.1,1,3.5,1,3.5"/>
		<path fill="none" stroke="#524B48" stroke-width="0.6609" d="M489.8,207.5c0,0,0.7,19.8,0.7,21.6c0,1.9,0.4,6.4,0.4,6.4
			s0.1,2.5,0.4,3.6c0.3,1.1,0.6,3.8,0.6,3.8s0.3,11.4,0.4,12.9c0.1,1.5,0.7,6.3,0.7,6.7"/>
		<path fill="none" stroke="#524B48" stroke-width="0.6609" d="M488.8,207.7c0,0-0.6,16.2,0,17.9c0.6,1.7,0.8,6.1,0.8,6.6
			c0,0.6,0.5,3.3,0.5,3.3s0,3.1,0.1,3.8c0.1,0.7,0.2,3.8,0.2,3.8s0.9,8.2,0.9,10.1c0,1.9,0.6,9.5,0.6,9.5"/>
		<path fill="none" stroke="#524B48" stroke-width="0.6609" d="M487.8,208.2c0,0,0.3,18.7,0.5,21.1c0.2,2.4,0.7,6.4,0.7,6.4
			s0.4,2.8,0.4,4c-0.1,1.2,0,3.7,0,3.7s0.5,8.3,0.9,10.9c0.3,2.6,0.7,8.8,0.7,8.8"/>
		<path fill="none" stroke="#524B48" stroke-width="0.6609" d="M486.9,208.4c0,0,0,18.5,0.1,20c0.1,1.5,0.8,7.5,0.8,7.5s0,3.3,0,3.7
			c0,0.3,0.6,4,0.6,4s1,9,0.9,10.8c-0.1,1.8,0.3,8.7,0.3,8.7"/>
		<path fill="none" stroke="#524B48" stroke-width="0.6609" d="M485.7,208.5c0,0-0.6,15.3-0.2,17.8c0.4,2.5,1,9.7,1,9.7
			s0.1,3.1,0.2,3.9c0.1,0.8,0.3,3.9,0.3,3.9s0.9,6.9,0.8,8.2c-0.1,1.3,0,8.1,0.1,8.9c0.1,0.8,0.3,2.5,0.3,2.5"/>
		<path fill="none" stroke="#524B48" stroke-width="0.6609" d="M484.5,208.8c0,0,0.1,16.1,0.2,18c0.1,1.9,0.4,9.5,0.4,9.5
			s0.4,3.4,0.5,4.2c0.1,0.8,0.4,3.6,0.4,3.6s0.3,6.6,0.6,9c0.3,2.4,1,11.4,1,11.4"/>
		<path fill="none" stroke="#524B48" stroke-width="0.6609" d="M483.4,209.3c0,0,0.1,15.9,0.2,19.2c0.1,3.4,0.3,7.9,0.3,7.9
			s0.7,3.1,0.7,4.5c0,1.4,0.3,3.1,0.3,3.1s0.2,6.6,0.6,10.3c0.4,3.7,1,10.4,1,10.4"/>
		<path fill="none" stroke="#524B48" stroke-width="0.6609" d="M482.4,209.4c0,0-0.4,14.2-0.1,16.3c0.3,2.1,0.4,6.3,0.4,6.7
			c0,0.4,0.1,4,0.1,4s0.4,1.7,0.8,3.1c0.4,1.4,0.7,4.7,0.7,4.7s0.4,11.6,0.5,13.4c0.1,1.8,0.6,7.7,0.6,7.7"/>
		<path fill="none" stroke="#524B48" stroke-width="0.6609" d="M481.6,209.3c0,0-0.1,17.2-0.1,18.6c-0.1,1.3,0.7,8.6,0.7,8.6
			s1.3,5.8,1.1,6.2c-0.2,0.4-0.4,1.7-0.4,1.7s0.3,7.5,0.5,9.4c0.2,1.9,1,12,1,12"/>
		<path fill="none" stroke="#524B48" stroke-width="0.6609" d="M480.5,209.4c0,0-0.1,17.4-0.1,18.8c0,1.3,0.4,8.4,0.4,8.4
			s0.2,2.5,0.4,2.9c0.3,0.5,0.1,3.2,0.1,3.2l0.2,1.9c0,0,0,6.5,0.3,7.7c0.3,1.3,0.9,11.8,0.9,11.8s0.5,1.9,0.4,2.4"/>
		<polyline fill="none" stroke="#524B48" stroke-width="0.6609" points="479.5,209.4 479.8,236.8 480.7,244.9 481.8,266.9 		"/>
		<polyline fill="none" stroke="#524B48" stroke-width="0.6609" points="477.8,210.4 478.4,237 479.5,245.2 480.6,267.3 		"/>
		<polyline fill="none" stroke="#524B48" stroke-width="0.6609" points="444.4,277.5 442.2,253.9 441,245.3 439.2,226.7 
			439.6,214.3 		"/>
		<polyline fill="none" stroke="#524B48" stroke-width="0.6609" points="445.6,277.1 443.4,253.6 442.2,245 440.5,226.3 
			440.7,214.6 		"/>
		<polyline fill="none" stroke="#524B48" stroke-width="0.6609" points="442,214.8 441.4,226.1 443.2,244.8 444.3,253.3 
			446.8,276.8 		"/>
		<path fill="none" stroke="#524B48" stroke-width="0.6609" d="M447.8,276.6c0,0-1.2-13.8-1.6-15.9c-0.4-2.1-0.9-7.5-0.9-7.5
			l-0.9-6.9v-1.8l-2-18.5l0.6-11.3"/>
		<path fill="none" stroke="#524B48" stroke-width="0.6609" d="M449.2,276.1c0,0-0.6-6-0.8-7.8c-0.2-1.8-1.1-9.3-1.1-10.1
			c0-0.8-0.1-4.6-0.1-4.6s-1-2.5-1.1-3.6c-0.2-1.1-0.6-4.6-0.6-4.6s-0.2-5.7-0.6-7.7c-0.4-2-0.8-11.7-0.8-11.7s-0.6-2.4-0.6-3.7
			c0-1.3-0.4-7.7-0.4-7.7"/>
		<polyline fill="none" stroke="#524B48" stroke-width="0.6609" points="450.3,276.1 448,253.5 446,245.2 445.3,225.8 444.4,214.2 
					"/>
		<path fill="none" stroke="#524B48" stroke-width="0.6609" d="M451.4,275.8c0,0-1.2-10.1-1.3-13.1c-0.1-3-1-9.4-1-9.4
			s-1.3-2.4-1.2-3.7c0.1-1.3-0.5-4.8-0.5-4.8s0.4-2.8,0-5.7c-0.4-2.9-1.1-13.3-1.1-13.3s-0.9-1.5-1-2.8c-0.1-1.3,0-8.7,0-8.7"/>
		<path fill="none" stroke="#524B48" stroke-width="0.6609" d="M452.4,275.5c0,0-1.1-8.5-1.1-10.8c0-2.4-1-11.6-1-11.6
			s-1.3-3-1.3-3.4c0-0.3,0.2-1.6,0.1-2.5c-0.1-0.9-0.6-2.6-0.6-2.6s0.2-3.1,0.1-4.3c-0.1-1.1-1.2-14.9-1.2-14.9s-0.7-1-1-2.9
			c-0.3-1.9-0.1-8.6-0.1-8.6"/>
		<path fill="none" stroke="#524B48" stroke-width="0.6609" d="M453.4,275.4c0,0-1.4-14.1-1.8-17.5c-0.4-3.4-0.4-4.9-0.4-4.9
			s-1.1-2.9-1.2-4.5c-0.2-1.6-0.4-4.1-0.4-4.1s-0.4-11.1-0.6-12.6c-0.2-1.5-0.7-6.5-0.7-6.5s-0.6-1.7-1.1-5.2c-0.6-3.5,0-6.1,0-6.1"
			/>
		<path fill="none" stroke="#524B48" stroke-width="0.6609" d="M454.4,275c0,0-1.4-14.1-1.5-15c-0.1-0.9-0.8-7.2-0.8-7.2
			s-1-3.8-1-4.9c-0.1-1.1-0.3-3.6-0.3-3.6s-1.1-14.2-1.2-15.6c-0.1-1.3-0.4-3.6-0.4-3.6l-1.2-10.7"/>
		<polyline fill="none" stroke="#524B48" stroke-width="0.6609" points="455.2,274.7 453.1,252.9 451.7,244.2 450.2,225 449,214.7 
					"/>
		<polyline fill="none" stroke="#524B48" stroke-width="0.6609" points="456.4,274.5 454.4,252.6 453.2,243.9 451.5,224.8 
			450.5,214.2 		"/>
		<polyline fill="none" stroke="#524B48" stroke-width="0.6609" points="457.5,274.2 455.7,252.3 454.4,243.5 452.7,224.5 
			452.4,213.8 		"/>
		<polyline fill="none" stroke="#524B48" stroke-width="0.6609" points="453.8,213.6 453.6,224.3 455.5,243.3 456.5,252.1 
			458.7,273.9 		"/>
		<path fill="none" stroke="#524B48" stroke-width="0.6609" d="M459.7,273.5c0,0-0.9-11.7-1.3-13.9c-0.4-2.1-0.9-7.6-0.9-7.6
			l-0.9-7.1v-1.8l-2-19l0.2-11"/>
		<path fill="none" stroke="#524B48" stroke-width="0.6609" d="M460.8,273.2c0,0-0.4-9.4-0.9-11.8c-0.6-2.4-1.2-7.7-1.2-7.7
			s-0.6-2.5-0.6-3.9c0.1-1.4-0.1-4.3-0.1-4.3s-0.5-9-1-12.1c-0.4-3.1-0.6-9.6-0.6-9.6s-0.5-2.9-0.6-4.1c0-1.2,0.4-6.6,0.4-6.6"/>
		<path fill="none" stroke="#524B48" stroke-width="0.6609" d="M462,272.8c0,0-0.6-7.9-0.9-11c-0.3-3.1-1.2-8.1-1.2-8.1
			s-0.1-4.6-0.3-5.3c-0.3-0.8-0.3-2.9-0.3-2.9s-0.4-8.4-0.7-11.1c-0.3-2.7-0.9-10.9-0.9-10.9s0.3-9.2,0.3-10.1
			c0-0.9,0.1-0.7,0.1-0.7"/>
		<path fill="none" stroke="#524B48" stroke-width="0.6609" d="M463,272.5c0,0-0.8-6-0.8-7.8c0-1.7-1.1-11.4-1.1-11.4
			s-0.3-3.2-0.4-4.3c0-1.1-0.6-3.8-0.6-3.8s-0.1-9-0.7-12.4c-0.5-3.4-1-9.5-1-9.5s0.4-10,0.4-10.5c0-0.5-0.2-0.4-0.2-0.4"/>
		<path fill="none" stroke="#524B48" stroke-width="0.6609" d="M464.1,272.2c0,0-1-12.8-1.2-14.8c-0.2-2-0.4-4.5-0.4-4.5
			s-0.8-3.5-0.7-4.6c0.1-1.1,0-3.7,0-3.7s-0.9-12.7-1.1-14.7c-0.2-2-0.6-6.9-0.6-6.9s-0.6-3.6-0.6-4.5c-0.1-0.9,0.9-5.8,0.9-5.8"/>
		<path fill="none" stroke="#524B48" stroke-width="0.6609" d="M465.5,272c0,0-1-7.6-1-9.2c0.1-1.6-0.7-9.4-0.7-9.4
			s-0.7-3.9-0.7-4.7c-0.1-0.9-0.1-3.6-0.1-3.6s-0.3-9.9-0.8-12.5c-0.4-2.6-1-9.3-1-9.3s-0.4-3.2-0.5-4.3c0-1.1,0.6-6.4,0.6-6.4"/>
		<path fill="none" stroke="#524B48" stroke-width="0.6609" d="M466.7,271.6c-0.7-5.6-0.9-6.3-1.1-11.3c-0.2-3.7-0.7-7.2-0.7-7.2
			l-0.8-8.3c0,0-0.4-15.2-0.7-16.4c-0.2-1.2-1.3-5.3-1.3-5.3s0.4-9.9,0.4-10.5c0-0.6,0.2,0.1,0.2,0.1"/>
		<path fill="none" stroke="#524B48" stroke-width="0.6609" d="M467.6,271.4c0,0-1.3-9.5-1.3-11.6c0-2.1-0.4-7-0.4-7s-0.1-2.7-0.4-4
			c-0.3-1.2-0.6-4.2-0.6-4.2s-0.3-12.6-0.4-14.2c-0.1-1.6-0.7-6.9-0.7-7.4c0-0.5,0.9-11.5,0.9-11.5"/>
		<path fill="none" stroke="#524B48" stroke-width="0.6609" d="M468.7,271c0,0-0.1-5.4-0.7-7.2c-0.6-1.9-0.8-6.7-0.8-7.3
			c0-0.6-0.5-3.6-0.5-3.6s0-3.4-0.1-4.2c-0.1-0.7-0.2-4.2-0.2-4.2s-0.9-9-0.9-11.1c0-2.1-0.6-10.5-0.6-10.5s0.3-4,0.1-4.9
			c-0.1-0.9,0.8-6.5,0.8-6.5"/>
		<path fill="none" stroke="#524B48" stroke-width="0.6609" d="M469.5,270.7c0,0-0.8-8.3-1-10.9c-0.2-2.6-0.7-7.1-0.7-7.1
			s-0.4-3.1-0.4-4.5c0.1-1.3,0-4.1,0-4.1s-0.5-9.1-0.9-12c-0.3-2.9-0.7-9.8-0.7-9.8s1.5-9.7,1.3-10.3c-0.2-0.6-0.4-0.6-0.4-0.6"/>
		<path fill="none" stroke="#524B48" stroke-width="0.6609" d="M470.6,270.3c-0.1-1.6-1.6-18-1.6-18s0-3.7,0-4.1
			c0-0.4-0.5-4.5-0.5-4.5s-1-9.9-0.9-11.9c0.1-2-0.3-9.6-0.3-9.6s1.1-9.6,1-10.1c-0.1-0.5-0.3-1-0.3-1"/>
		<path fill="none" stroke="#524B48" stroke-width="0.6609" d="M471.6,270c-0.4-2.7-1.4-17.7-1.4-17.7s-0.1-3.5-0.2-4.3
			c-0.1-0.9-0.3-4.3-0.3-4.3s-0.9-7.6-0.8-9c0.1-1.5,0-9-0.1-9.9c-0.2-0.9-0.3-2.7-0.3-2.7l0.9-10.7"/>
		<path fill="none" stroke="#524B48" stroke-width="0.6609" d="M472.6,269.9c-0.1-2.1-0.9-17.8-0.9-17.8s-0.4-3.7-0.5-4.6
			c-0.1-0.9-0.4-4-0.4-4s-0.3-7.3-0.6-9.9c-0.3-2.6-0.7-11.7-0.7-11.7s0.9-8.7,0.8-10.1c0-1.4,0-0.5,0-0.5"/>
		<path fill="none" stroke="#524B48" stroke-width="0.6609" d="M474.2,269.1c-0.1-3.7-1.3-17.3-1.3-17.3s-0.7-3.4-0.7-5
			c0-1.6-0.3-3.5-0.3-3.5s-0.2-7.3-0.6-11.4c-0.4-4.1-0.8-10.3-0.8-10.3l0.9-10.7"/>
		<path fill="none" stroke="#524B48" stroke-width="0.6609" d="M475.7,268.8c-0.3-2.4-1.7-12-1.7-12.5c0-0.5-0.1-4.4-0.1-4.4
			s-0.4-1.9-0.8-3.4c-0.4-1.5-0.7-5.2-0.7-5.2s-0.4-12.8-0.5-14.8c-0.1-2-0.5-6.8-0.5-6.8s1-10.1,1-10.5c0-0.5-0.2-0.3-0.2-0.3"/>
		<path fill="none" stroke="#524B48" stroke-width="0.6609" d="M476.8,268.3c0.1-1.5-2.1-16.6-2.1-16.6s-1.3-6.4-1.1-6.8
			c0.2-0.5,0.4-1.8,0.4-1.8s-0.3-8.3-0.5-10.4c-0.2-2.1-0.8-11.3-0.8-11.3s1.4-8.1,1-9.8c-0.4-1.8-0.2-0.7-0.2-0.7"/>
		<path fill="none" stroke="#524B48" stroke-width="0.6609" d="M478,268.3c0-1.5-2.1-16.6-2.1-16.6s-0.2-2.7-0.4-3.2
			c-0.3-0.5-0.1-3.6-0.1-3.6l-0.2-2.1c0,0,0-7.1-0.3-8.5c-0.3-1.4-0.9-13-0.9-13s-0.5-2.1-0.4-2.6c0-0.5,1.3-7.7,1.3-7.7"/>
		<polyline fill="none" stroke="#524B48" stroke-width="0.6609" points="479,267.8 476,242.5 475.1,221 476.3,211 		"/>
		<polyline fill="none" stroke="#524B48" stroke-width="0.6609" points="480,267.2 479,259 476.5,225.9 477.2,211.1 		"/>
		<path fill="none" stroke="#524B48" stroke-width="0.6609" d="M438.2,214.8c0,0,0.1,15,0.1,17.1c0,2.1,0.4,7.1,0.4,7.1
			s0.1,2.7,0.4,4c0.3,1.3,0.6,4.3,0.6,4.3s1.5,12.7,1.7,14.3c0.1,1.6,1.1,6,1,7.8c-0.1,1.4,1,8.4,1,8.4"/>
		<path fill="none" stroke="#524B48" stroke-width="0.6609" d="M437.2,215c0,0-1.1,11-0.5,12.9c0.6,1.9,0.8,6.8,0.8,7.4
			c0,0.6,0.5,3.6,0.5,3.6s0,3.5,0.1,4.2c0.1,0.8,0.2,4.2,0.2,4.2s1.4,9.1,1.4,11.2c0,2.1,1.3,10.9,1.3,10.9s0.4,3.7,0.6,4.6
			c0.1,0.9,0.5,3.9,0.5,3.9"/>
		<path fill="none" stroke="#524B48" stroke-width="0.6609" d="M436.1,214.8c0,0-0.1,14.6,0.1,17.2c0.2,2.6,0.7,7.1,0.7,7.1
			s0.4,3.1,0.4,4.5c-0.1,1.4,0,4.1,0,4.1s0.5,9.2,0.9,12.1c0.3,2.9,0.7,9.9,0.7,9.9s0.7,4.1,0.9,4.8c0.2,0.6,0.6,3.8,0.6,3.8"/>
		<path fill="none" stroke="#524B48" stroke-width="0.6609" d="M434.7,215.6c0,0,0.1,13.9,0.2,15.5c0.1,1.6,0.8,8.4,0.8,8.4
			s0,3.7,0,4.1c0,0.4,0.5,4.5,0.5,4.5s1,10,0.9,12c-0.1,2,0.3,9.7,0.3,9.7s1.1,4.7,0.2,5l0.9,4.1"/>
		<path fill="none" stroke="#524B48" stroke-width="0.6609" d="M433.2,215.8c0,0-0.2,10.2,0.2,12.9c0.4,2.8,1,10.8,1,10.8
			s0.1,3.5,0.2,4.4c0.1,0.9,0.3,4.4,0.3,4.4s0.9,7.7,0.8,9.1c-0.1,1.5,0,9.1,0.1,10c0.1,0.9,0.3,2.8,0.3,2.8l0.9,9.9"/>
		<path fill="none" stroke="#524B48" stroke-width="0.6609" d="M431.8,215.8c0,0,0.7,11.3,0.8,13.4c0.1,2.1,0.4,10.6,0.4,10.6
			s0.4,3.8,0.5,4.6c0.1,0.9,0.4,4,0.4,4s0.3,7.4,0.6,10c0.3,2.6,0.7,11.9,0.7,11.9s0.4,3.6,0.4,5c0,1.4,0.4,4.9,0.4,4.9"/>
		<path fill="none" stroke="#524B48" stroke-width="0.6609" d="M430.5,216c0,0,0.9,11.5,1,15.2c0.1,3.7,0.3,8.9,0.3,8.9
			s0.7,3.4,0.7,5c0,1.6,0.3,3.5,0.3,3.5s0.2,7.4,0.6,11.5c0.4,4.1,0.8,10.4,0.8,10.4l0.9,10"/>
		<path fill="none" stroke="#524B48" stroke-width="0.6609" d="M429.5,215.8c0,0,0.4,9.8,0.6,12.2c0.3,2.4,0.4,7,0.4,7.5
			c0,0.5,0.1,4.5,0.1,4.5s0.4,1.9,0.8,3.4c0.4,1.5,0.7,5.3,0.7,5.3s0.4,13,0.5,15c0.1,2,0.5,6.9,0.5,6.9s0.4,5.3,0.4,5.8
			c0,0.5,0.4,4.4,0.4,4.4"/>
		<path fill="none" stroke="#524B48" stroke-width="0.6609" d="M428.2,216.3c0,0,1.2,12.7,1.1,14.2c-0.1,1.5,0.7,9.6,0.7,9.6
			s1.3,6.4,1.1,6.9c-0.2,0.5-0.4,1.9-0.4,1.9s0.3,8.4,0.5,10.5c0.2,2.1,0.8,11.4,0.8,11.4s0,2.7,0.4,4.5c0.4,1.8,0.7,5.8,0.7,5.8"/>
		<path fill="none" stroke="#524B48" stroke-width="0.6609" d="M427.4,215.9c0,0,0.9,13.4,0.9,14.9c0,1.5,0.4,9.4,0.4,9.4
			s0.2,2.7,0.4,3.3c0.3,0.5,0.1,3.6,0.1,3.6l0.2,2.1c0,0-0.1,7.2,0.3,8.6c0.3,1.4,0.9,13.1,0.9,13.1s0.5,2.1,0.4,2.6
			c0,0.5,0.2,7.9,0.2,7.9"/>
		<polyline fill="none" stroke="#524B48" stroke-width="0.6609" points="426.5,216 427.7,240.5 428.6,249.5 429.5,271.2 
			430.1,281.6 		"/>
		<polyline fill="none" stroke="#524B48" stroke-width="0.6609" points="425.1,216.3 426.3,240.6 427.3,249.8 428.2,271.4 
			428.8,281.9 		"/>
		<path fill="none" stroke="#524B48" stroke-width="0.6609" d="M411.5,284.4c0,0-1.4-10.9-1.4-12.8c0-1.9-1.1-12.7-1.1-12.7
			s-0.3-3.6-0.4-4.8c0-1.2-0.6-4.3-0.6-4.3s-0.1-10-0.7-13.8c-0.5-3.7-1-10.7-1-10.7s-0.5-6.5-0.5-7c0-0.6-0.2-0.4-0.2-0.4"/>
		<path fill="none" stroke="#524B48" stroke-width="0.6609" d="M412.6,284.5c0,0-1.6-18.8-1.8-21c-0.2-2.2-0.4-5-0.4-5
			s-0.8-3.9-0.7-5.1c0.1-1.2,0-4.1,0-4.1s-0.9-14.2-1.1-16.4c-0.2-2.2-0.6-7.7-0.6-7.7s-0.6-4-0.6-5c-0.1-1,0-1.9,0-1.9"/>
		<path fill="none" stroke="#524B48" stroke-width="0.6609" d="M414.1,283.9c0,0-1.8-12.7-1.7-14.4c0.1-1.8-0.7-10.5-0.7-10.5
			s-0.7-4.3-0.7-5.3c-0.1-1-0.1-4-0.1-4s-0.3-11-0.7-13.9c-0.5-2.9-1-10.4-1-10.4s-0.4-3.6-0.5-4.8c0-1.2-0.3-2.5-0.3-2.5"/>
		<path fill="none" stroke="#524B48" stroke-width="0.6609" d="M415.2,284c0,0-1.6-13.2-1.8-17.3c-0.2-4.1-0.7-8-0.7-8l-0.8-9.3
			c0,0-0.4-16.9-0.7-18.3c-0.2-1.4-1.3-5.9-1.3-5.9s-0.5-6.4-0.5-7c0-0.7,0.2,0.1,0.2,0.1"/>
		<path fill="none" stroke="#524B48" stroke-width="0.6609" d="M416.1,283.8c0,0-1.8-15.3-1.8-17.6c0-2.3-0.4-7.9-0.4-7.9
			s-0.1-3-0.4-4.4c-0.3-1.4-0.6-4.7-0.6-4.7s-0.3-14-0.4-15.8c-0.1-1.8-0.7-7.7-0.7-8.3c0-0.5-0.5-7.8-0.5-7.8"/>
		<path fill="none" stroke="#524B48" stroke-width="0.6609" d="M417,283.6c0,0-0.6-10.9-1.2-13c-0.6-2.1-0.8-7.5-0.8-8.2
			c0-0.7-0.5-4-0.5-4s0-3.9-0.1-4.7c-0.1-0.8-0.2-4.7-0.2-4.7s-0.9-10.1-0.9-12.4c0-2.3-0.6-11.7-0.6-11.7s0.3-4.5,0.1-5.5
			c-0.1-1-0.5-1.5-0.5-1.5"/>
		<path fill="none" stroke="#524B48" stroke-width="0.6609" d="M418.2,283.8c0,0-1.6-14.9-1.8-17.8c-0.2-2.9-0.7-7.9-0.7-7.9
			s-0.4-3.5-0.4-5c0.1-1.5,0-4.5,0-4.5s-0.5-10.2-0.9-13.4c-0.3-3.2-0.7-10.9-0.7-10.9s0.2-5.1,0.1-5.8c-0.2-0.7-0.4-0.7-0.4-0.7"/>
		<path fill="none" stroke="#524B48" stroke-width="0.6609" d="M418.9,283.4c0,0-1.2-14.5-1.3-16.3c-0.1-1.8-0.8-9.3-0.8-9.3
			s0-4.1,0-4.5c0-0.4-0.5-5-0.5-5s-1-11.1-0.9-13.3c0.1-2.2-0.3-10.7-0.3-10.7s-0.2-5-0.2-5.5c-0.1-0.6-0.3-1.2-0.3-1.2"/>
		<path fill="none" stroke="#524B48" stroke-width="0.6609" d="M420,283.5c0,0-0.4-10.8-0.9-13.8c-0.4-3-1-11.9-1-11.9
			s-0.1-3.9-0.2-4.8c-0.1-1-0.3-4.8-0.3-4.8s-0.9-8.4-0.8-10.1c0.1-1.6,0-10-0.1-11c-0.2-1-0.3-3-0.3-3l-0.4-6.2"/>
		<path fill="none" stroke="#524B48" stroke-width="0.6609" d="M421.4,282.7c0,0-1.4-11.2-1.5-13.5c-0.1-2.3-0.4-11.7-0.4-11.7
			s-0.4-4.2-0.5-5.1c-0.1-1-0.4-4.4-0.4-4.4s-0.3-8.1-0.6-11c-0.3-2.9-0.7-13.1-0.7-13.1s-0.4-4-0.4-5.5c0-1.5-0.1-1.5-0.1-1.5"/>
		<path fill="none" stroke="#524B48" stroke-width="0.6609" d="M422.4,282.6c0,0-1.3-11.6-1.4-15.7c-0.1-4.1-0.3-9.8-0.3-9.8
			s-0.7-3.8-0.7-5.6c0-1.8-0.3-3.9-0.3-3.9s-0.2-8.1-0.6-12.7c-0.4-4.6-0.8-11.5-0.8-11.5l-0.4-6.9"/>
		<path fill="none" stroke="#524B48" stroke-width="0.6609" d="M423.4,282.5c0,0-0.8-9.5-1.1-12.1c-0.3-2.6-0.4-7.7-0.4-8.3
			c0-0.5-0.1-4.9-0.1-4.9s-0.4-2.1-0.8-3.8c-0.4-1.7-0.7-5.8-0.7-5.8s-0.4-14.3-0.5-16.5c-0.1-2.2-0.5-7.6-0.5-7.6s-0.4-5.2-0.3-5.8
			c0-0.5-0.3-1.4-0.3-1.4"/>
		<path fill="none" stroke="#524B48" stroke-width="0.6609" d="M424.3,282.6c0,0-1.1-13.2-1.1-14.9c0.1-1.6-0.7-10.6-0.7-10.6
			s-1.3-7.1-1.1-7.6c0.2-0.5,0.4-2,0.4-2s-0.3-9.2-0.5-11.6c-0.2-2.3-0.8-12.6-0.8-12.6s0-3-0.4-5c-0.5-2.5-0.5-2.5-0.2-0.8"/>
		<path fill="none" stroke="#524B48" stroke-width="0.6609" d="M425.3,282.5c0,0-1.1-13.5-1.1-15.1c0-1.6-0.4-10.3-0.4-10.3
			s-0.2-3-0.4-3.6c-0.3-0.6-0.1-4-0.1-4l-0.2-2.4c0,0,0-8-0.3-9.5c-0.3-1.5-0.9-14.5-0.9-14.5s-0.5-2.4-0.4-2.9
			c0-0.5-0.3-3.6-0.3-3.6"/>
		<polyline fill="none" stroke="#524B48" stroke-width="0.6609" points="426.3,282.5 424.8,256.7 423.9,246.7 423,222.8 
			422.5,216.4 		"/>
		<polyline fill="none" stroke="#524B48" stroke-width="0.6609" points="427.3,282 426.2,259.1 425.2,249.9 424.4,228.3 
			423.5,216.3 		"/>
		<path fill="none" stroke="#524B48" stroke-width="0.6609" d="M543.1,194.8c0,0,1.2,15,1.2,16.3c0,1.2,1.3,7,1.3,7s0.9,2.8,1,3.5
			c0.1,0.7,0.3,2.7,0.3,2.7"/>
		<path fill="none" stroke="#524B48" stroke-width="0.6609" d="M541.5,195.3c0,0,1.6,15,2.1,17.8c0.5,2.8,1.2,5.3,1.2,5.3l1.3,6.2
			c0,0,1.9,7.7,2.2,8.6"/>
		<path fill="none" stroke="#524B48" stroke-width="0.6609" d="M540.6,195.5c0,0,2,16.4,2.2,18c0.1,1.6,0.9,5.3,0.9,5.3
			s0.2,2,0.6,2.9c0.4,0.9,0.8,3.1,0.8,3.1s1,8.7,1.2,9.9"/>
		<path fill="none" stroke="#524B48" stroke-width="0.6609" d="M539.7,195.8c0,0,0.6,13.6,1.3,15c0.7,1.4,1.3,5,1.3,5.4
			c0,0.5,0.7,2.7,0.7,2.7s0.2,2.6,0.4,3.2c0.1,0.6,0.4,3.2,0.4,3.2s1.4,9.1,1.5,10.7"/>
		<path fill="none" stroke="#524B48" stroke-width="0.6609" d="M538.7,196.3c0,0,1.6,15.6,1.9,17.5c0.3,1.9,1.2,5.3,1.2,5.3
			s0.6,2.3,0.7,3.3c0,1,0.3,3.1,0.3,3.1s1.4,8.2,1.9,10.3"/>
		<path fill="none" stroke="#524B48" stroke-width="0.6609" d="M537.8,196.6c0,0,1.3,15.5,1.5,16.7c0.2,1.2,1.3,6.2,1.3,6.2
			s0.2,2.8,0.3,3.1c0,0.3,0.8,3.3,0.8,3.3s1.6,9.2,1.7,10.7"/>
		<path fill="none" stroke="#524B48" stroke-width="0.6609" d="M536.6,196.8c0,0,0.5,12.8,1.1,14.9c0.6,2,1.7,7.9,1.7,7.9
			s0.4,2.6,0.5,3.2c0.1,0.6,0.5,3.2,0.5,3.2s1.4,5.6,1.4,6.7c0,1.1,0.4,3.9,0.6,4.5"/>
		<path fill="none" stroke="#524B48" stroke-width="0.6609" d="M535.5,197.2c0,0,1.2,13.4,1.5,15c0.2,1.6,1,7.9,1,7.9
			s0.6,2.8,0.8,3.4c0.1,0.7,0.6,3,0.6,3s1.4,9.6,1.9,11.5"/>
		<path fill="none" stroke="#524B48" stroke-width="0.6609" d="M534.4,197.7c0,0,1.2,13.3,1.6,16c0.3,2.8,0.8,6.6,0.8,6.6
			s0.9,2.5,1,3.7c0.1,1.2,0.5,2.6,0.5,2.6s1.3,8.8,1.9,11.9"/>
		<path fill="none" stroke="#524B48" stroke-width="0.6609" d="M533.4,197.9c0,0,0.6,11.9,1,13.6c0.4,1.8,0.9,5.2,0.9,5.6
			c0,0.4,0.4,3.3,0.4,3.3s0.5,1.4,1,2.5c0.5,1.1,1,3.9,1,3.9s1.5,10.7,1.8,12.2"/>
		<path fill="none" stroke="#524B48" stroke-width="0.6609" d="M532.6,198c0,0,1.1,14.4,1.2,15.5c0,1.1,1.3,7.1,1.3,7.1
			s1.7,4.7,1.5,5c-0.2,0.4-0.3,1.4-0.3,1.4s1.7,11.1,2,12.7"/>
		<path fill="none" stroke="#524B48" stroke-width="0.6609" d="M531.5,198.1c0,0,1.1,14.6,1.3,15.7c0.1,1.1,1,6.9,1,6.9
			s0.3,2,0.6,2.4c0.3,0.4,0.3,2.7,0.3,2.7l0.3,1.6c0,0,0.4,5.4,0.8,6.4c0.4,1,1.3,6.8,1.3,6.8"/>
		<polyline fill="none" stroke="#524B48" stroke-width="0.6609" points="530.6,198.3 532.8,221.1 536,240.9 		"/>
		<polyline fill="none" stroke="#524B48" stroke-width="0.6609" points="529.2,198.7 531.4,221.4 534.8,241.4 		"/>
		<polyline fill="none" stroke="#524B48" stroke-width="0.6609" points="496.4,260.4 494.7,240.4 493.3,232 492.3,216.8 
			492.3,207.1 		"/>
		<polyline fill="none" stroke="#524B48" stroke-width="0.6609" points="498,259.7 496.1,240.4 494.2,230.6 492.9,216.9 
			493.5,207.1 		"/>
		<polyline fill="none" stroke="#524B48" stroke-width="0.6609" points="493.5,207.1 493.8,216.6 495.6,232.1 497.1,240.6 
			499.8,258.7 		"/>
		<path fill="none" stroke="#524B48" stroke-width="0.6609" d="M501.5,257.9c0,0-1.5-10.5-2-12.2c-0.5-1.7-1.6-6.7-1.6-6.7l-1-6.4
			l-0.6-2.6l-1.5-13.7l-0.2-9.5"/>
		<path fill="none" stroke="#524B48" stroke-width="0.6609" d="M502.9,257.4c0,0-0.5-4-0.9-5.5c-0.3-1.5-1.7-7.6-1.7-8.3
			c-0.1-0.7-0.9-4-0.9-4s-0.6-2.6-0.9-3.5c-0.3-0.9-0.6-3.9-0.6-3.9s-0.5-4.6-1-6.3c-0.5-1.6-0.5-9.7-0.5-9.7s-0.7-1.9-0.8-3
			c-0.1-1.1-0.5-6.5-0.5-6.5"/>
		<polyline fill="none" stroke="#524B48" stroke-width="0.6609" points="504.2,256.3 499.7,232 497.6,215.9 496,206.3 		"/>
		<path fill="none" stroke="#524B48" stroke-width="0.6609" d="M505.5,255.8c-0.3-2.5-2.1-17.4-2.1-17.4s-1.5-1.8-1.5-2.9
			c0-1.1-0.8-4-0.8-4s0.2-2.4-0.4-4.8c-0.6-2.4-2.1-11-2.1-11s-1-1.1-1.1-2.2c-0.2-1.1-0.6-7.2-0.6-7.2"/>
		<path fill="none" stroke="#524B48" stroke-width="0.6609" d="M507.1,255.3c-0.2-2-2.5-17.2-2.5-17.2s-1.5-2.4-1.6-2.7
			c0-0.3,0.1-1.3-0.1-2.1c-0.2-0.7-0.8-2.1-0.8-2.1s0-2.6-0.2-3.6c-0.2-0.9-2.3-12.3-2.3-12.3s-0.7-0.8-1.2-2.3
			c-0.4-1.6-0.7-7.1-0.7-7.1"/>
		<path fill="none" stroke="#524B48" stroke-width="0.6609" d="M508.4,254.6c-0.6-2.8-2.9-16.7-2.9-16.7s-1.3-2.3-1.6-3.6
			c-0.3-1.3-0.7-3.4-0.7-3.4s-1.2-9.2-1.5-10.4c-0.3-1.2-1.1-5.3-1.1-5.3s-0.7-1.3-1.5-4.2c-0.8-2.8-0.4-5.1-0.4-5.1"/>
		<path fill="none" stroke="#524B48" stroke-width="0.6609" d="M509.6,254.4c-0.2-0.7-3.3-16.7-3.3-16.7s-1.2-3.1-1.4-4
			c-0.2-0.9-0.5-3-0.5-3s-2.1-11.8-2.3-12.9c-0.2-1.1-0.6-2.9-0.6-2.9l-1.9-8.8"/>
		<polyline fill="none" stroke="#524B48" stroke-width="0.6609" points="510.6,253.6 505.4,230.5 502.5,214.7 500.6,206.2 		"/>
		<polyline fill="none" stroke="#524B48" stroke-width="0.6609" points="512.1,252.9 506.8,230.1 503.7,214.4 502,205.6 		"/>
		<polyline fill="none" stroke="#524B48" stroke-width="0.6609" points="513.3,252.3 508,229.6 504.9,213.9 503.9,205 		"/>
		<polyline fill="none" stroke="#524B48" stroke-width="0.6609" points="505.2,204.7 505.8,213.6 509,229.3 514.5,252.1 		"/>
		<path fill="none" stroke="#524B48" stroke-width="0.6609" d="M515.3,251.8c-0.5-1.7-3.6-15.5-3.6-15.5l-1.4-5.8l-0.1-1.5
			l-3.3-15.6l-0.6-9.2"/>
		<path fill="none" stroke="#524B48" stroke-width="0.6609" d="M516.3,251.1c-0.7-1.9-3.4-13.4-3.4-13.4s-0.8-2-0.9-3.2
			c0-1.1-0.4-3.6-0.4-3.6s-1.2-7.5-1.8-10c-0.6-2.5-1.3-8-1.3-8s-0.7-2.3-0.9-3.4c-0.1-1-0.1-5.6-0.1-5.6"/>
		<path fill="none" stroke="#524B48" stroke-width="0.6609" d="M517.3,250.9c-0.6-2.5-3.2-13.4-3.2-13.4s-0.4-3.8-0.7-4.4
			c-0.3-0.6-0.5-2.3-0.5-2.3s-1-7-1.5-9.2c-0.5-2.2-1.7-9-1.7-9s-0.4-7.7-0.4-8.5c0-0.7,0-0.6,0-0.6"/>
		<path fill="none" stroke="#524B48" stroke-width="0.6609" d="M518.2,250.2c-0.1-1.4-2.8-13.2-2.8-13.2s-0.6-2.6-0.7-3.6
			c-0.1-0.9-0.9-3.1-0.9-3.1s-0.8-7.5-1.5-10.2c-0.7-2.7-1.7-7.9-1.7-7.9s-0.3-8.4-0.3-8.8c0-0.4-0.3-0.3-0.3-0.3"/>
		<path fill="none" stroke="#524B48" stroke-width="0.6609" d="M519.2,250.1c-0.3-1.6-2.5-13.5-2.5-13.5s-1-2.8-1.1-3.8
			c0-0.9-0.3-3.1-0.3-3.1s-1.8-10.5-2.2-12.2c-0.3-1.6-1.1-5.7-1.1-5.7s-0.8-2.9-1-3.7c-0.1-0.7,0.4-5,0.4-5"/>
		<path fill="none" stroke="#524B48" stroke-width="0.6609" d="M520,249.5c0-1.3-2-12.8-2-12.8s-0.9-3.1-1.1-3.9
			c-0.1-0.7-0.4-3-0.4-3s-1-8.2-1.6-10.3c-0.6-2.1-1.6-7.6-1.6-7.6s-0.6-2.6-0.8-3.6c-0.1-0.9,0.2-5.4,0.2-5.4"/>
		<path fill="none" stroke="#524B48" stroke-width="0.6609" d="M520.9,248.8c-0.5-3.1-1.9-12.3-1.9-12.3l-1.3-6.8
			c0,0-1.5-12.6-1.8-13.6c-0.3-1-1.6-4.2-1.6-4.2s-0.3-8.3-0.3-8.8c0-0.5,0.2,0,0.2,0"/>
		<path fill="none" stroke="#524B48" stroke-width="0.6609" d="M521.9,248.4c-0.1-1.7-1.9-12.4-1.9-12.4s-0.2-2.3-0.7-3.3
			c-0.4-1-0.9-3.5-0.9-3.5s-1.2-10.5-1.4-11.8c-0.2-1.3-1.2-5.7-1.2-6.1c0-0.4,0.1-9.7,0.1-9.7"/>
		<path fill="none" stroke="#524B48" stroke-width="0.6609" d="M523.1,248c-0.7-1.5-1.5-8.5-1.5-9c0-0.5-0.8-2.9-0.8-2.9
			s-0.3-2.9-0.4-3.5c-0.1-0.6-0.5-3.5-0.5-3.5s-1.6-7.4-1.7-9.2c-0.1-1.8-1.3-8.7-1.3-8.7s0-3.4-0.2-4.1c-0.2-0.7,0.3-5.5,0.3-5.5"
			/>
		<path fill="none" stroke="#524B48" stroke-width="0.6609" d="M523.9,247.1c-0.3-2.1-2-11.4-2-11.4s-0.7-2.5-0.7-3.7
			c0-1.1-0.3-3.4-0.3-3.4s-1.2-7.6-1.7-9.9c-0.5-2.3-1.4-8.1-1.4-8.1s0.8-8.3,0.6-8.8c-0.2-0.5-0.4-0.5-0.4-0.5"/>
		<path fill="none" stroke="#524B48" stroke-width="0.6609" d="M525,246.9c0,0-2.2-14.6-2.2-14.9c0-0.3-0.9-3.7-0.9-3.7
			s-1.7-8.2-1.7-9.8c0-1.6-1-8-1-8s0.4-8.1,0.3-8.5c-0.1-0.4-0.4-0.8-0.4-0.8"/>
		<path fill="none" stroke="#524B48" stroke-width="0.6609" d="M526.1,246.2c0,0-2.2-13.9-2.3-14.6c-0.1-0.7-0.6-3.6-0.6-3.6
			s-1.4-6.2-1.5-7.5c0-1.2-0.6-7.5-0.8-8.2c-0.2-0.7-0.5-2.2-0.5-2.2l0.1-9"/>
		<path fill="none" stroke="#524B48" stroke-width="0.6609" d="M527.1,245.6c0,0-2-13.9-2.1-14.7c-0.1-0.7-0.7-3.3-0.7-3.3
			s-0.8-6-1.3-8.2c-0.4-2.1-1.5-9.7-1.5-9.7s0.2-7.4,0.1-8.5c-0.1-1.1,0-0.4,0-0.4"/>
		<path fill="none" stroke="#524B48" stroke-width="0.6609" d="M528.2,245.3c0,0-2.2-13.7-2.3-15c-0.1-1.3-0.6-2.8-0.6-2.8
			s-0.7-6.1-1.4-9.4c-0.7-3.4-1.5-8.5-1.5-8.5l0.2-9"/>
		<path fill="none" stroke="#524B48" stroke-width="0.6609" d="M529.2,244.6c0-0.4-1.2-10.3-1.2-10.3s-0.5-1.5-1-2.7
			c-0.5-1.2-1.1-4.3-1.1-4.3s-1.3-10.7-1.5-12.3c-0.2-1.6-1-5.6-1-5.6s0.3-8.5,0.3-8.9c0-0.4-0.2-0.2-0.2-0.2"/>
		<path fill="none" stroke="#524B48" stroke-width="0.6609" d="M530,244.1c0,0-3.1-15.1-3-15.5c0.2-0.4,0.2-1.6,0.2-1.6
			s-0.9-6.9-1.2-8.6c-0.3-1.7-1.6-9.3-1.6-9.3s0.8-6.9,0.3-8.3c-0.5-1.4-0.2-0.6-0.2-0.6"/>
		<path fill="none" stroke="#524B48" stroke-width="0.6609" d="M531.2,243.9c0,0-2-11.1-2.3-11.5c-0.3-0.4,0-4,0-4l-0.3-1.7
			c0,0-0.5-6-0.9-7.1c-0.4-1.1-1.8-10.7-1.8-10.7s-0.6-1.7-0.6-2.1c0-0.4,0.8-7.3,0.8-7.3"/>
		<polyline fill="none" stroke="#524B48" stroke-width="0.6609" points="532.3,243.1 527,208.4 527.4,199.2 		"/>
		<polyline fill="none" stroke="#524B48" stroke-width="0.6609" points="533.7,242.4 528.7,212.4 528.2,199 		"/>
	</g>
	<path opacity="0.15" fill="none" stroke="#79716F" stroke-width="0.5" d="M306.4,251.5c0,0,77,0.5,135.2-9.5
		c58.2-10,104.8-32.5,104.8-32.5"/>
	<path opacity="0.15" fill="none" stroke="#79716F" stroke-width="0.5" d="M306.9,262.7c0,0,87,1,141-13.1c54-14.2,99.5-33,99.5-33"
		/>
	<path opacity="0.15" fill="none" stroke="#79716F" stroke-width="0.5" d="M309.9,284.9c0,0,100.9-5.4,146.5-19.2
		c45.6-13.8,93-40.8,93-40.8"/>
</g>
</svg>
