<?xml version="1.0" encoding="utf-8"?>
<!-- Generator: Adobe Illustrator 24.0.2, SVG Export Plug-In . SVG Version: 6.00 Build 0)  -->
<svg version="1.1" id="Layer_1" xmlns="http://www.w3.org/2000/svg" xmlns:xlink="http://www.w3.org/1999/xlink" x="0px" y="0px"
	 viewBox="0 0 630.5 1035.9"   style="enable-background:new 0 0 800.5 1035.9;" xml:space="preserve">
	
<!--<style type="text/css">
	.st0{fill:#BF2A43;stroke:#897F76;stroke-width:0.5;stroke-miterlimit:10;}
	.st1{fill:#FDBB2D;stroke:#897F76;stroke-width:0.5;stroke-miterlimit:10;}
	.st2{fill:#FDBB2D;}
	.st3{fill:#FFFFFF;}
	.st3a{fill:#BF2A43;}
	.st4{fill:none;}
	.st5{fill:#004D86;}
	.st6{fill:none;stroke:#897F76;stroke-width:0.5;stroke-miterlimit:10;}
	.st7{fill-rule:evenodd;clip-rule:evenodd;}
	.st8{opacity:0.25;}
	.st9{opacity:0.4;}
	.st10{opacity:1.000000e-02;}
	.st11{opacity:5.000000e-02;}
	.st12{fill:#897F76;}
	.st13{fill-rule:evenodd;clip-rule:evenodd;fill:#FFFFFF;}
	.st14{fill-rule:evenodd;clip-rule:evenodd;fill:#BF2A43;}
	.st15{fill:#BF2A43;}
	.st16{fill-rule:evenodd;clip-rule:evenodd;fill:#004D86;}
	.st17{font-family:'Helvetica-Bold';}
	.st18{font-size:9.0854px;}
	.st19{opacity:0.3;fill:#64615E;}
	.st20{fill:#64615E;}
</style>-->
<g>
</g>

	<g id="MASKF">
			<g id="BODY">
				<path fill="#FDBB2D" stroke="#897F76" stroke-width=" 0.5" stroke-miterlimit="10" d="M637.9,203.4c3.3-6.3,4.7-12.8,5.1-18.6c-15.7-10.9-63.2-35.8-71.7-42.3c-9.9-7.5-26.7-15.1-40.6-26.1
					c-13.9-11-16.8-9.9-31.9-18.6c-0.3-0.2-0.7-0.4-1-0.5c2.8,3.5,4.9,6.3,5,6.8c0.4,1.6,3.5,13.2,5.5,22.6c1.9,9.3,4.3,33.5,4.3,44.4
					s-5.8,40.5-5.8,40.5s-10.5-8.2-34.3-18.7c-23.8-10.5-39-14.4-52.2-12.9c-12.5,1.5-38.5,42.4-41.2,46.8l0.4,10.8c0,0-0.4,0.2-1.7,0.6
					c-1.1,0.4-2.5,0.3-2.8,0.3c-0.3,0-1.6,0-2.8-0.3c-1.3-0.4-1.7-0.6-1.7-0.6l0.4-12.4l-7.5-15.6c0,0-20.3-39.3-46-36.2
					c-25.7,3.1-74.9,24.5-74.9,24.5s-4.7-9.7-4.3-16c0.4-6.2-1.5-41,0.1-49.2c1-5.3,7.6-19.5,13.5-32c-5.4,3.7-15.5,9.5-28.5,16.2
					c-30.2,15.7-49.3,29.6-56.8,34.2c-7.5,4.6-15.7,11.6-15.7,11.6s-33.8,21.9-42,28.7c12.5,11.2,25.9,29.6,34.4,60.1
					c20.2,72.2,41.4,210.8,45.2,225.2c3.8,14.4,19.2,77,19.2,77s2.9,26,1.9,29.8c-1,3.8-10.6,28.9-10.6,28.9l5.8,16.4
					c0,0,0,2.9-2.9,29.8c-2.9,26.9-16.4,83.7-15.4,109.7c1,26,2.9,52.9-2.9,71.2c-5.8,18.3-2.9,33.7-2.9,33.7l3,7.7
					c0.5-2.7,0.7-4.3,0.7-4.3s3.5,16.2,2.9,21.5c-0.6,5.2-1.2,13.9-1.2,13.9s146.1-1.2,217.5-3.5c71.3-2.3,131.2-1.9,144.2-1.4
					c16.3,0.6,51.3-1.9,51.3-1.9S588,872,588,867.9s2.9-13.3,2.9-13.3l4.3-6.4c-0.4-11-1.4-25.2-3.5-32.7c-3.8-13.5-1.9-39.5-3.8-52
					c-1.9-12.5-22.1-88.5-28.9-120.3c-6.7-31.8,12.5-67.4,17.3-94.3s3.8-77,5.8-104.9c1.9-27.9-2.9-124.2-1-132.8
					C583,302.5,628.2,221.7,637.9,203.4z"/>
			</g>
		<g id="ZIPPER">
		<path fill="#FFFFFF" d="M379.7,820.8c0-0.7-0.5-1.3-1.2-1.3h-3.1c0.5-0.1,1-0.6,1-1.3c0-0.7-0.5-1.3-1.2-1.3h-4.5
			c-0.7,0-1.2,0.6-1.2,1.3c0,0.7,0.5,1.3,1.2,1.3h3.1c-0.5,0.1-1,0.6-1,1.3c0,0.6,0.4,1.2,1,1.3h-3.1c-0.7,0-1.2,0.6-1.2,1.3
			c0,0.7,0.5,1.3,1.2,1.3h3.1c-0.5,0.1-0.9,0.6-0.9,1.3c0,0.7,0.5,1.3,1.2,1.3h4.5c0.7,0,1.2-0.6,1.2-1.3c0-0.7-0.5-1.3-1.2-1.3
			h-3.1c0.5-0.1,0.9-0.6,0.9-1.3c0-0.6-0.4-1.2-1-1.3h3.1C379.2,822.1,379.7,821.5,379.7,820.8z"/>
		<path fill="#FFFFFF" d="M379.7,810.2c0-0.7-0.5-1.3-1.2-1.3h-3.1c0.5-0.1,1-0.6,1-1.3c0-0.7-0.5-1.3-1.2-1.3h-4.5
			c-0.7,0-1.2,0.6-1.2,1.3c0,0.7,0.5,1.3,1.2,1.3h3.1c-0.5,0.1-1,0.6-1,1.3c0,0.6,0.4,1.1,0.9,1.3h-3.1c-0.7,0-1.2,0.6-1.2,1.3
			s0.5,1.3,1.2,1.3h3.1c-0.5,0.1-1,0.6-1,1.3c0,0.7,0.5,1.3,1.2,1.3h4.5c0.7,0,1.2-0.6,1.2-1.3c0-0.7-0.5-1.3-1.2-1.3h-3.1
			c0.5-0.1,1-0.6,1-1.3c0-0.6-0.4-1.1-0.9-1.3h3.1C379.2,811.6,379.7,811,379.7,810.2z"/>
		<path fill="#FFFFFF" d="M379.7,799.7c0-0.7-0.5-1.3-1.2-1.3h-3.1c0.5-0.1,0.9-0.6,0.9-1.3c0-0.7-0.5-1.3-1.2-1.3h-4.5
			c-0.7,0-1.2,0.6-1.2,1.3c0,0.7,0.5,1.3,1.2,1.3h3.1c-0.5,0.1-0.9,0.6-0.9,1.3c0,0.6,0.4,1.1,0.9,1.3h-3.1c-0.7,0-1.2,0.6-1.2,1.3
			c0,0.7,0.5,1.3,1.2,1.3h3.1c-0.5,0.1-1,0.6-1,1.3c0,0.7,0.5,1.3,1.2,1.3h4.5c0.7,0,1.2-0.6,1.2-1.3c0-0.7-0.5-1.3-1.2-1.3h-3.1
			c0.5-0.1,1-0.6,1-1.3c0-0.6-0.4-1.1-0.9-1.3h3.1C379.2,801,379.7,800.4,379.7,799.7z"/>
		<path fill="#FFFFFF" d="M379.7,789.2c0-0.7-0.5-1.3-1.2-1.3h-3.1c0.5-0.1,0.9-0.6,0.9-1.3c0-0.7-0.5-1.3-1.2-1.3h-4.5
			c-0.7,0-1.2,0.6-1.2,1.3c0,0.7,0.5,1.3,1.2,1.3h3.1c-0.5,0.1-0.9,0.6-0.9,1.3c0,0.6,0.4,1.1,1,1.3h-3.1c-0.7,0-1.2,0.6-1.2,1.3
			c0,0.7,0.5,1.3,1.2,1.3h3.1c-0.5,0.1-0.9,0.6-0.9,1.3c0,0.7,0.5,1.3,1.2,1.3h4.5c0.7,0,1.2-0.6,1.2-1.3c0-0.7-0.5-1.3-1.2-1.3
			h-3.1c0.5-0.1,0.9-0.6,0.9-1.3c0-0.6-0.4-1.2-1-1.3h3.1C379.2,790.5,379.7,789.9,379.7,789.2z"/>
		<path fill="#FFFFFF" d="M379.7,778.6c0-0.7-0.5-1.3-1.2-1.3h-3.1c0.5-0.1,1-0.6,1-1.3c0-0.7-0.5-1.3-1.2-1.3h-4.5
			c-0.7,0-1.2,0.6-1.2,1.3c0,0.7,0.5,1.3,1.2,1.3h3.1c-0.5,0.1-1,0.6-1,1.3c0,0.6,0.4,1.1,0.9,1.3h-3.1c-0.7,0-1.2,0.6-1.2,1.3
			c0,0.7,0.5,1.3,1.2,1.3h3.1c-0.5,0.1-1,0.6-1,1.3c0,0.7,0.5,1.3,1.2,1.3h4.5c0.7,0,1.2-0.6,1.2-1.3c0-0.7-0.5-1.3-1.2-1.3h-3.1
			c0.5-0.1,1-0.6,1-1.3c0-0.6-0.4-1.1-0.9-1.3h3.1C379.2,780,379.7,779.4,379.7,778.6z"/>
		<path fill="#FFFFFF" d="M379.7,768.1c0-0.7-0.5-1.3-1.2-1.3h-3.1c0.5-0.1,0.9-0.6,0.9-1.3c0-0.7-0.5-1.3-1.2-1.3h-4.5
			c-0.7,0-1.2,0.6-1.2,1.3c0,0.7,0.5,1.3,1.2,1.3h3.1c-0.5,0.1-0.9,0.6-0.9,1.3c0,0.6,0.4,1.2,1,1.3h-3.1c-0.7,0-1.2,0.6-1.2,1.3
			c0,0.7,0.5,1.3,1.2,1.3h3.1c-0.5,0.1-0.9,0.6-0.9,1.3c0,0.7,0.5,1.3,1.2,1.3h4.5c0.7,0,1.2-0.6,1.2-1.3c0-0.7-0.5-1.3-1.2-1.3
			h-3.1c0.5-0.1,0.9-0.6,0.9-1.3c0-0.6-0.4-1.2-1-1.3h3.1C379.2,769.4,379.7,768.8,379.7,768.1z"/>
		<path fill="#FFFFFF" d="M379.7,757.6c0-0.7-0.5-1.3-1.2-1.3h-3.1c0.5-0.1,0.9-0.6,0.9-1.3c0-0.7-0.5-1.3-1.2-1.3h-4.5
			c-0.7,0-1.2,0.6-1.2,1.3c0,0.7,0.5,1.3,1.2,1.3h3.1c-0.5,0.1-0.9,0.6-0.9,1.3c0,0.6,0.4,1.1,0.9,1.3h-3.1c-0.7,0-1.2,0.6-1.2,1.3
			c0,0.7,0.5,1.3,1.2,1.3h3.1c-0.5,0.1-1,0.6-1,1.3c0,0.7,0.5,1.3,1.2,1.3h4.5c0.7,0,1.2-0.6,1.2-1.3c0-0.7-0.5-1.3-1.2-1.3h-3.1
			c0.5-0.1,1-0.6,1-1.3c0-0.6-0.4-1.1-0.9-1.3h3.1C379.2,758.9,379.7,758.3,379.7,757.6z"/>
		<path fill="#FFFFFF" d="M378.5,903.7h-3.1c0.5-0.1,1-0.6,1-1.3c0-0.7-0.5-1.3-1.2-1.3h-4.5c-0.7,0-1.2,0.6-1.2,1.3
			c0,0.7,0.5,1.3,1.2,1.3h3.1c-0.5,0.1-1,0.6-1,1.3c0,0.6,0.4,1.1,1,1.3h-3.1c-0.7,0-1.2,0.6-1.2,1.3c0,0.7,0.5,1.3,1.2,1.3h4.5
			c0.7,0,1.2-0.6,1.2-1.3c0-0.6-0.4-1.1-1-1.3h3.1c0.7,0,1.2-0.6,1.2-1.3C379.7,904.3,379.2,903.7,378.5,903.7z"/>
		<path fill="#FFFFFF" d="M379.7,894.5c0-0.7-0.5-1.3-1.2-1.3h-3.1c0.5-0.1,1-0.6,1-1.3c0-0.7-0.5-1.3-1.2-1.3h-4.5
			c-0.7,0-1.2,0.6-1.2,1.3c0,0.7,0.5,1.3,1.2,1.3h3.1c-0.5,0.1-1,0.6-1,1.3c0,0.6,0.4,1.1,0.9,1.3h-3.1c-0.7,0-1.2,0.6-1.2,1.3
			c0,0.7,0.5,1.3,1.2,1.3h3.1c-0.5,0.1-1,0.6-1,1.3c0,0.7,0.5,1.3,1.2,1.3h4.5c0.7,0,1.2-0.6,1.2-1.3c0-0.7-0.5-1.3-1.2-1.3h-3.1
			c0.5-0.1,1-0.6,1-1.3c0-0.6-0.4-1.1-0.9-1.3h3.1C379.2,895.8,379.7,895.2,379.7,894.5z"/>
		<path fill="#FFFFFF" d="M379.7,884c0-0.7-0.5-1.3-1.2-1.3h-3.1c0.5-0.1,0.9-0.6,0.9-1.3c0-0.7-0.5-1.3-1.2-1.3h-4.5
			c-0.7,0-1.2,0.6-1.2,1.3c0,0.7,0.5,1.3,1.2,1.3h3.1c-0.5,0.1-0.9,0.6-0.9,1.3c0,0.6,0.4,1.2,1,1.3h-3.1c-0.7,0-1.2,0.6-1.2,1.3
			c0,0.7,0.5,1.3,1.2,1.3h3.1c-0.5,0.1-0.9,0.6-0.9,1.3c0,0.7,0.5,1.3,1.2,1.3h4.5c0.7,0,1.2-0.6,1.2-1.3c0-0.7-0.5-1.3-1.2-1.3
			h-3.1c0.5-0.1,0.9-0.6,0.9-1.3c0-0.6-0.4-1.2-1-1.3h3.1C379.2,885.3,379.7,884.7,379.7,884z"/>
		<path fill="#FFFFFF" d="M379.7,873.4c0-0.7-0.5-1.3-1.2-1.3h-3.1c0.5-0.1,1-0.6,1-1.3c0-0.7-0.5-1.3-1.2-1.3h-4.5
			c-0.7,0-1.2,0.6-1.2,1.3c0,0.7,0.5,1.3,1.2,1.3h3.1c-0.5,0.1-1,0.6-1,1.3c0,0.6,0.4,1.1,1,1.3h-3.1c-0.7,0-1.2,0.6-1.2,1.3
			c0,0.7,0.5,1.3,1.2,1.3h3.1c-0.5,0.1-1,0.6-1,1.3c0,0.7,0.5,1.3,1.2,1.3h4.5c0.7,0,1.2-0.6,1.2-1.3c0-0.7-0.5-1.3-1.2-1.3h-3.1
			c0.5-0.1,1-0.6,1-1.3c0-0.6-0.4-1.2-1-1.3h3.1C379.2,874.8,379.7,874.2,379.7,873.4z"/>
		<path fill="#FFFFFF" d="M379.7,862.9c0-0.7-0.5-1.3-1.2-1.3h-3.1c0.5-0.1,0.9-0.6,0.9-1.3c0-0.7-0.5-1.3-1.2-1.3h-4.5
			c-0.7,0-1.2,0.6-1.2,1.3s0.5,1.3,1.2,1.3h3.1c-0.5,0.1-0.9,0.6-0.9,1.3c0,0.6,0.4,1.1,1,1.3h-3.1c-0.7,0-1.2,0.6-1.2,1.3
			c0,0.7,0.5,1.3,1.2,1.3h3.1c-0.5,0.1-1,0.6-1,1.3c0,0.7,0.5,1.3,1.2,1.3h4.5c0.7,0,1.2-0.6,1.2-1.3c0-0.7-0.5-1.3-1.2-1.3h-3.1
			c0.5-0.1,1-0.6,1-1.3c0-0.6-0.4-1.1-1-1.3h3.1C379.2,864.2,379.7,863.7,379.7,862.9z"/>
		<path fill="#FFFFFF" d="M379.7,852.4c0-0.7-0.5-1.3-1.2-1.3h-3.1c0.5-0.1,0.9-0.6,0.9-1.3c0-0.7-0.5-1.3-1.2-1.3h-4.5
			c-0.7,0-1.2,0.6-1.2,1.3s0.5,1.3,1.2,1.3h3.1c-0.5,0.1-0.9,0.6-0.9,1.3c0,0.6,0.4,1.2,1,1.3h-3.1c-0.7,0-1.2,0.6-1.2,1.3
			c0,0.7,0.5,1.3,1.2,1.3h3.1c-0.5,0.1-0.9,0.6-0.9,1.3c0,0.7,0.5,1.3,1.2,1.3h4.5c0.7,0,1.2-0.6,1.2-1.3c0-0.7-0.5-1.3-1.2-1.3
			h-3.1c0.5-0.1,0.9-0.6,0.9-1.3c0-0.6-0.4-1.2-1-1.3h3.1C379.2,853.7,379.7,853.1,379.7,852.4z"/>
		<path fill="#FFFFFF" d="M379.7,841.9c0-0.7-0.5-1.3-1.2-1.3h-3.1c0.5-0.1,1-0.6,1-1.3c0-0.7-0.5-1.3-1.2-1.3h-4.5
			c-0.7,0-1.2,0.6-1.2,1.3c0,0.7,0.5,1.3,1.2,1.3h3.1c-0.5,0.1-1,0.6-1,1.3c0,0.6,0.4,1.2,1,1.3h-3.1c-0.7,0-1.2,0.6-1.2,1.3
			c0,0.7,0.5,1.3,1.2,1.3h3.1c-0.5,0.1-1,0.6-1,1.3c0,0.7,0.5,1.3,1.2,1.3h4.5c0.7,0,1.2-0.6,1.2-1.3c0-0.7-0.5-1.3-1.2-1.3h-3.1
			c0.5-0.1,1-0.6,1-1.3c0-0.6-0.4-1.1-1-1.3h3.1C379.2,843.2,379.7,842.6,379.7,841.9z"/>
		<path fill="#FFFFFF" d="M379.7,831.3c0-0.7-0.5-1.3-1.2-1.3h-3.1c0.5-0.1,1-0.6,1-1.3c0-0.7-0.5-1.3-1.2-1.3h-4.5
			c-0.7,0-1.2,0.6-1.2,1.3c0,0.7,0.5,1.3,1.2,1.3h3.1c-0.5,0.1-1,0.6-1,1.3c0,0.6,0.4,1.1,1,1.3h-3.1c-0.7,0-1.2,0.6-1.2,1.3
			c0,0.7,0.5,1.3,1.2,1.3h3.1c-0.5,0.1-1,0.6-1,1.3c0,0.7,0.5,1.3,1.2,1.3h4.5c0.7,0,1.2-0.6,1.2-1.3c0-0.7-0.5-1.3-1.2-1.3h-3.1
			c0.5-0.1,1-0.6,1-1.3c0-0.6-0.4-1.1-1-1.3h3.1C379.2,832.7,379.7,832.1,379.7,831.3z"/>
		<path fill="#FFFFFF" d="M379.7,652.3c0-0.7-0.5-1.3-1.2-1.3h-3.1c0.5-0.1,1-0.6,1-1.3c0-0.7-0.5-1.3-1.2-1.3h-4.5
			c-0.7,0-1.2,0.6-1.2,1.3c0,0.7,0.5,1.3,1.2,1.3h3.1c-0.5,0.1-1,0.6-1,1.3c0,0.6,0.4,1.2,1,1.3h-3.1c-0.7,0-1.2,0.6-1.2,1.3
			c0,0.7,0.5,1.3,1.2,1.3h3.1c-0.5,0.1-1,0.6-1,1.3c0,0.7,0.5,1.3,1.2,1.3h4.5c0.7,0,1.2-0.6,1.2-1.3s-0.5-1.3-1.2-1.3h-3.1
			c0.5-0.1,1-0.6,1-1.3c0-0.6-0.4-1.1-1-1.3h3.1C379.2,653.7,379.7,653.1,379.7,652.3z"/>
		<path fill="#FFFFFF" d="M379.7,641.8c0-0.7-0.5-1.3-1.2-1.3h-3.1c0.5-0.1,1-0.6,1-1.3c0-0.7-0.5-1.3-1.2-1.3h-4.5
			c-0.7,0-1.2,0.6-1.2,1.3s0.5,1.3,1.2,1.3h3.1c-0.5,0.1-1,0.6-1,1.3c0,0.6,0.4,1.1,0.9,1.3h-3.1c-0.7,0-1.2,0.6-1.2,1.3
			c0,0.7,0.5,1.3,1.2,1.3h3.1c-0.5,0.1-1,0.6-1,1.3c0,0.7,0.5,1.3,1.2,1.3h4.5c0.7,0,1.2-0.6,1.2-1.3c0-0.7-0.5-1.3-1.2-1.3h-3.1
			c0.5-0.1,1-0.6,1-1.3c0-0.6-0.4-1.1-0.9-1.3h3.1C379.2,643.1,379.7,642.5,379.7,641.8z"/>
		<path fill="#FFFFFF" d="M379.7,631.3c0-0.7-0.5-1.3-1.2-1.3h-3.1c0.5-0.1,0.9-0.6,0.9-1.3c0-0.7-0.5-1.3-1.2-1.3h-4.5
			c-0.7,0-1.2,0.6-1.2,1.3c0,0.7,0.5,1.3,1.2,1.3h3.1c-0.5,0.1-0.9,0.6-0.9,1.3c0,0.6,0.4,1.1,0.9,1.3h-3.1c-0.7,0-1.2,0.6-1.2,1.3
			c0,0.7,0.5,1.3,1.2,1.3h3.1c-0.5,0.1-1,0.6-1,1.3c0,0.7,0.5,1.3,1.2,1.3h4.5c0.7,0,1.2-0.6,1.2-1.3c0-0.7-0.5-1.3-1.2-1.3h-3.1
			c0.5-0.1,1-0.6,1-1.3c0-0.6-0.4-1.1-0.9-1.3h3.1C379.2,632.6,379.7,632,379.7,631.3z"/>
		<path fill="#FFFFFF" d="M379.7,620.8c0-0.7-0.5-1.3-1.2-1.3h-3.1c0.5-0.1,1-0.6,1-1.3c0-0.7-0.5-1.3-1.2-1.3h-4.5
			c-0.7,0-1.2,0.6-1.2,1.3c0,0.7,0.5,1.3,1.2,1.3h3.1c-0.5,0.1-1,0.6-1,1.3c0,0.6,0.4,1.2,1,1.3h-3.1c-0.7,0-1.2,0.6-1.2,1.3
			c0,0.7,0.5,1.3,1.2,1.3h3.1c-0.5,0.1-1,0.6-1,1.3c0,0.7,0.5,1.3,1.2,1.3h4.5c0.7,0,1.2-0.6,1.2-1.3c0-0.7-0.5-1.3-1.2-1.3h-3.1
			c0.5-0.1,1-0.6,1-1.3c0-0.6-0.4-1.2-1-1.3h3.1C379.2,622.1,379.7,621.5,379.7,620.8z"/>
		<path fill="#FFFFFF" d="M379.7,610.2c0-0.7-0.5-1.3-1.2-1.3h-3.1c0.5-0.1,1-0.6,1-1.3c0-0.7-0.5-1.3-1.2-1.3h-4.5
			c-0.7,0-1.2,0.6-1.2,1.3c0,0.7,0.5,1.3,1.2,1.3h3.1c-0.5,0.1-1,0.6-1,1.3c0,0.6,0.4,1.2,1,1.3h-3.1c-0.7,0-1.2,0.6-1.2,1.3
			c0,0.7,0.5,1.3,1.2,1.3h3.1c-0.5,0.1-0.9,0.6-0.9,1.3c0,0.7,0.5,1.3,1.2,1.3h4.5c0.7,0,1.2-0.6,1.2-1.3c0-0.7-0.5-1.3-1.2-1.3
			h-3.1c0.5-0.1,0.9-0.6,0.9-1.3c0-0.6-0.4-1.1-1-1.3h3.1C379.2,611.6,379.7,611,379.7,610.2z"/>
		<path fill="#FFFFFF" d="M379.7,599.7c0-0.7-0.5-1.3-1.2-1.3h-3.1c0.5-0.1,0.9-0.6,0.9-1.3c0-0.7-0.5-1.3-1.2-1.3h-4.5
			c-0.7,0-1.2,0.6-1.2,1.3c0,0.7,0.5,1.3,1.2,1.3h3.1c-0.5,0.1-0.9,0.6-0.9,1.3c0,0.6,0.4,1.2,1,1.3h-3.1c-0.7,0-1.2,0.6-1.2,1.3
			c0,0.7,0.5,1.3,1.2,1.3h3.1c-0.5,0.1-0.9,0.6-0.9,1.3c0,0.7,0.5,1.3,1.2,1.3h4.5c0.7,0,1.2-0.6,1.2-1.3c0-0.7-0.5-1.3-1.2-1.3
			h-3.1c0.5-0.1,0.9-0.6,0.9-1.3c0-0.6-0.4-1.1-1-1.3h3.1C379.2,601,379.7,600.4,379.7,599.7z"/>
		<path fill="#FFFFFF" d="M379.7,589.2c0-0.7-0.5-1.3-1.2-1.3h-3.1c0.5-0.1,0.9-0.6,0.9-1.3c0-0.7-0.5-1.3-1.2-1.3h-4.5
			c-0.7,0-1.2,0.6-1.2,1.3c0,0.7,0.5,1.3,1.2,1.3h3.1c-0.5,0.1-0.9,0.6-0.9,1.3c0,0.6,0.4,1.2,1,1.3h-3.1c-0.7,0-1.2,0.6-1.2,1.3
			c0,0.7,0.5,1.3,1.2,1.3h3.1c-0.5,0.1-1,0.6-1,1.3c0,0.7,0.5,1.3,1.2,1.3h4.5c0.7,0,1.2-0.6,1.2-1.3c0-0.7-0.5-1.3-1.2-1.3h-3.1
			c0.5-0.1,1-0.6,1-1.3c0-0.6-0.4-1.2-1-1.3h3.1C379.2,590.5,379.7,589.9,379.7,589.2z"/>
		<path fill="#FFFFFF" d="M379.7,736.6c0-0.7-0.5-1.3-1.2-1.3h-3.1c0.5-0.1,1-0.6,1-1.3c0-0.7-0.5-1.3-1.2-1.3h-4.5
			c-0.7,0-1.2,0.6-1.2,1.3c0,0.7,0.5,1.3,1.2,1.3h3.1c-0.5,0.1-1,0.6-1,1.3c0,0.6,0.4,1.1,0.9,1.3h-3.1c-0.7,0-1.2,0.6-1.2,1.3
			c0,0.7,0.5,1.3,1.2,1.3h3.1c-0.5,0.1-0.9,0.6-0.9,1.3c0,0.7,0.5,1.3,1.1,1.3h-3.3c-0.7,0-1.2,0.6-1.2,1.3c0,0.7,0.5,1.3,1.2,1.3
			h3.1c-0.5,0.1-0.9,0.6-0.9,1.3c0,0.6,0.4,1.1,0.9,1.3h-3.1c-0.7,0-1.2,0.6-1.2,1.3c0,0.7,0.5,1.3,1.2,1.3h3.1
			c-0.5,0.1-1,0.6-1,1.3c0,0.7,0.5,1.3,1.2,1.3h4.5c0.7,0,1.2-0.6,1.2-1.3c0-0.7-0.5-1.3-1.2-1.3h-3.1c0.5-0.1,1-0.6,1-1.3
			c0-0.6-0.4-1.1-0.9-1.3h3.1c0.7,0,1.2-0.6,1.2-1.3s-0.5-1.3-1.2-1.3h-3.1c0.5-0.1,0.9-0.6,0.9-1.3c0-0.7-0.5-1.3-1.1-1.3h3.3
			c0.7,0,1.2-0.6,1.2-1.3s-0.5-1.3-1.2-1.3h-3.1c0.5-0.1,0.9-0.6,0.9-1.3c0-0.6-0.4-1.1-0.9-1.3h3.1
			C379.2,737.9,379.7,737.3,379.7,736.6z"/>
		<path fill="#FFFFFF" d="M379.7,726.1c0-0.7-0.5-1.3-1.2-1.3h-3.1c0.5-0.1,1-0.6,1-1.3c0-0.7-0.5-1.3-1.2-1.3h-4.5
			c-0.7,0-1.2,0.6-1.2,1.3c0,0.7,0.5,1.3,1.2,1.3h3.1c-0.5,0.1-1,0.6-1,1.3c0,0.6,0.4,1.2,1,1.3h-3.1c-0.7,0-1.2,0.6-1.2,1.3
			c0,0.7,0.5,1.3,1.2,1.3h3.1c-0.5,0.1-1,0.6-1,1.3c0,0.7,0.5,1.3,1.2,1.3h4.5c0.7,0,1.2-0.6,1.2-1.3c0-0.7-0.5-1.3-1.2-1.3h-3.1
			c0.5-0.1,1-0.6,1-1.3c0-0.6-0.4-1.2-1-1.3h3.1C379.2,727.4,379.7,726.8,379.7,726.1z"/>
		<path fill="#FFFFFF" d="M379.7,715.6c0-0.7-0.5-1.3-1.2-1.3h-3.1c0.5-0.1,1-0.6,1-1.3c0-0.7-0.5-1.3-1.2-1.3h-4.5
			c-0.7,0-1.2,0.6-1.2,1.3c0,0.7,0.5,1.3,1.2,1.3h3.1c-0.5,0.1-1,0.6-1,1.3c0,0.6,0.4,1.2,1,1.3h-3.1c-0.7,0-1.2,0.6-1.2,1.3
			c0,0.7,0.5,1.3,1.2,1.3h3.1c-0.5,0.1-1,0.6-1,1.3c0,0.7,0.5,1.3,1.2,1.3h4.5c0.7,0,1.2-0.6,1.2-1.3c0-0.7-0.5-1.3-1.2-1.3h-3.1
			c0.5-0.1,1-0.6,1-1.3c0-0.6-0.4-1.2-1-1.3h3.1C379.2,716.9,379.7,716.3,379.7,715.6z"/>
		<path fill="#FFFFFF" d="M379.7,705c0-0.7-0.5-1.3-1.2-1.3h-3.1c0.5-0.1,1-0.6,1-1.3c0-0.7-0.5-1.3-1.2-1.3h-4.5
			c-0.7,0-1.2,0.6-1.2,1.3c0,0.7,0.5,1.3,1.2,1.3h3.1c-0.5,0.1-1,0.6-1,1.3c0,0.6,0.4,1.1,0.9,1.3h-3.1c-0.7,0-1.2,0.6-1.2,1.3
			c0,0.7,0.5,1.3,1.2,1.3h3.1c-0.5,0.1-1,0.6-1,1.3c0,0.7,0.5,1.3,1.2,1.3h4.5c0.7,0,1.2-0.6,1.2-1.3c0-0.7-0.5-1.3-1.2-1.3h-3.1
			c0.5-0.1,1-0.6,1-1.3c0-0.6-0.4-1.1-0.9-1.3h3.1C379.2,706.4,379.7,705.8,379.7,705z"/>
		<path fill="#FFFFFF" d="M379.7,694.5c0-0.7-0.5-1.3-1.2-1.3h-3.1c0.5-0.1,0.9-0.6,0.9-1.3c0-0.7-0.5-1.3-1.2-1.3h-4.5
			c-0.7,0-1.2,0.6-1.2,1.3c0,0.7,0.5,1.3,1.2,1.3h3.1c-0.5,0.1-0.9,0.6-0.9,1.3c0,0.6,0.4,1.2,1,1.3h-3.1c-0.7,0-1.2,0.6-1.2,1.3
			c0,0.7,0.5,1.3,1.2,1.3h3.1c-0.5,0.1-0.9,0.6-0.9,1.3c0,0.7,0.5,1.3,1.2,1.3h4.5c0.7,0,1.2-0.6,1.2-1.3c0-0.7-0.5-1.3-1.2-1.3
			h-3.1c0.5-0.1,0.9-0.6,0.9-1.3c0-0.6-0.4-1.2-1-1.3h3.1C379.2,695.8,379.7,695.2,379.7,694.5z"/>
		<path fill="#FFFFFF" d="M379.7,684c0-0.7-0.5-1.3-1.2-1.3h-3.1c0.5-0.1,1-0.6,1-1.3c0-0.7-0.5-1.3-1.2-1.3h-4.5
			c-0.7,0-1.2,0.6-1.2,1.3c0,0.7,0.5,1.3,1.2,1.3h3.1c-0.5,0.1-1,0.6-1,1.3c0,0.6,0.4,1.1,0.9,1.3h-3.1c-0.7,0-1.2,0.6-1.2,1.3
			s0.5,1.3,1.2,1.3h3.1c-0.5,0.1-1,0.6-1,1.3c0,0.7,0.5,1.3,1.2,1.3h4.5c0.7,0,1.2-0.6,1.2-1.3c0-0.7-0.5-1.3-1.2-1.3h-3.1
			c0.5-0.1,1-0.6,1-1.3c0-0.6-0.4-1.1-0.9-1.3h3.1C379.2,685.3,379.7,684.7,379.7,684z"/>
		<path fill="#FFFFFF" d="M379.7,673.4c0-0.7-0.5-1.3-1.2-1.3h-3.1c0.5-0.1,1-0.6,1-1.3c0-0.7-0.5-1.3-1.2-1.3h-4.5
			c-0.7,0-1.2,0.6-1.2,1.3c0,0.7,0.5,1.3,1.2,1.3h3.1c-0.5,0.1-1,0.6-1,1.3c0,0.6,0.4,1.1,0.9,1.3h-3.1c-0.7,0-1.2,0.6-1.2,1.3
			c0,0.7,0.5,1.3,1.2,1.3h3.1c-0.5,0.1-1,0.6-1,1.3c0,0.7,0.5,1.3,1.2,1.3h4.5c0.7,0,1.2-0.6,1.2-1.3c0-0.7-0.5-1.3-1.2-1.3h-3.1
			c0.5-0.1,1-0.6,1-1.3c0-0.6-0.4-1.1-0.9-1.3h3.1C379.2,674.8,379.7,674.2,379.7,673.4z"/>
		<path fill="#FFFFFF" d="M379.7,662.9c0-0.7-0.5-1.3-1.2-1.3h-3.1c0.5-0.1,1-0.6,1-1.3c0-0.7-0.5-1.3-1.2-1.3h-4.5
			c-0.7,0-1.2,0.6-1.2,1.3c0,0.7,0.5,1.3,1.2,1.3h3.1c-0.5,0.1-1,0.6-1,1.3c0,0.6,0.4,1.2,1,1.3h-3.1c-0.7,0-1.2,0.6-1.2,1.3
			c0,0.7,0.5,1.3,1.2,1.3h3.1c-0.5,0.1-0.9,0.6-0.9,1.3c0,0.7,0.5,1.3,1.2,1.3h4.5c0.7,0,1.2-0.6,1.2-1.3s-0.5-1.3-1.2-1.3h-3.1
			c0.5-0.1,0.9-0.6,0.9-1.3c0-0.6-0.4-1.2-1-1.3h3.1C379.2,664.2,379.7,663.6,379.7,662.9z"/>
		<path fill="#FFFFFF" d="M379.7,484c0-0.7-0.5-1.3-1.2-1.3h-3.1c0.5-0.1,0.9-0.6,0.9-1.3c0-0.7-0.5-1.3-1.2-1.3h-4.5
			c-0.7,0-1.2,0.6-1.2,1.3c0,0.7,0.5,1.3,1.2,1.3h3.1c-0.5,0.1-0.9,0.6-0.9,1.3c0,0.6,0.4,1.2,1,1.3h-3.1c-0.7,0-1.2,0.6-1.2,1.3
			c0,0.7,0.5,1.3,1.2,1.3h3.1c-0.5,0.1-1,0.6-1,1.3c0,0.7,0.5,1.3,1.2,1.3h4.5c0.7,0,1.2-0.6,1.2-1.3c0-0.7-0.5-1.3-1.2-1.3h-3.1
			c0.5-0.1,1-0.6,1-1.3c0-0.6-0.4-1.1-1-1.3h3.1C379.2,485.3,379.7,484.7,379.7,484z"/>
		<path fill="#FFFFFF" d="M379.7,473.5c0-0.7-0.5-1.3-1.2-1.3h-3.1c0.5-0.1,1-0.6,1-1.3c0-0.7-0.5-1.3-1.2-1.3h-4.5
			c-0.7,0-1.2,0.6-1.2,1.3c0,0.7,0.5,1.3,1.2,1.3h3.1c-0.5,0.1-1,0.6-1,1.3c0,0.6,0.4,1.1,0.9,1.3h-3.1c-0.7,0-1.2,0.6-1.2,1.3
			c0,0.7,0.5,1.3,1.2,1.3h3.1c-0.5,0.1-1,0.6-1,1.3c0,0.7,0.5,1.3,1.2,1.3h4.5c0.7,0,1.2-0.6,1.2-1.3c0-0.7-0.5-1.3-1.2-1.3h-3.1
			c0.5-0.1,1-0.6,1-1.3c0-0.6-0.4-1.1-0.9-1.3h3.1C379.2,474.8,379.7,474.2,379.7,473.5z"/>
		<path fill="#FFFFFF" d="M379.7,462.9c0-0.7-0.5-1.3-1.2-1.3h-3.1c0.5-0.1,0.9-0.6,0.9-1.3c0-0.7-0.5-1.3-1.2-1.3h-4.5
			c-0.7,0-1.2,0.6-1.2,1.3s0.5,1.3,1.2,1.3h3.1c-0.5,0.1-0.9,0.6-0.9,1.3c0,0.6,0.4,1.1,0.9,1.3h-3.1c-0.7,0-1.2,0.6-1.2,1.3
			c0,0.7,0.5,1.3,1.2,1.3h3.1c-0.5,0.1-1,0.6-1,1.3c0,0.7,0.5,1.3,1.2,1.3h4.5c0.7,0,1.2-0.6,1.2-1.3c0-0.7-0.5-1.3-1.2-1.3h-3.1
			c0.5-0.1,1-0.6,1-1.3c0-0.6-0.4-1.1-0.9-1.3h3.1C379.2,464.3,379.7,463.7,379.7,462.9z"/>
		<path fill="#FFFFFF" d="M379.7,452.4c0-0.7-0.5-1.3-1.2-1.3h-3.1c0.5-0.1,0.9-0.6,0.9-1.3c0-0.7-0.5-1.3-1.2-1.3h-4.5
			c-0.7,0-1.2,0.6-1.2,1.3c0,0.7,0.5,1.3,1.2,1.3h3.1c-0.5,0.1-0.9,0.6-0.9,1.3c0,0.6,0.4,1.1,0.9,1.3h-3.1c-0.7,0-1.2,0.6-1.2,1.3
			c0,0.7,0.5,1.3,1.2,1.3h3.1c-0.5,0.1-0.9,0.6-0.9,1.3c0,0.7,0.5,1.3,1.2,1.3h4.5c0.7,0,1.2-0.6,1.2-1.3c0-0.7-0.5-1.3-1.2-1.3
			h-3.1c0.5-0.1,0.9-0.6,0.9-1.3c0-0.6-0.4-1.1-0.9-1.3h3.1C379.2,453.7,379.7,453.2,379.7,452.4z"/>
		<path fill="#FFFFFF" d="M379.7,441.9c0-0.7-0.5-1.3-1.2-1.3h-3.1c0.5-0.1,1-0.6,1-1.3c0-0.7-0.5-1.3-1.2-1.3h-4.5
			c-0.7,0-1.2,0.6-1.2,1.3c0,0.7,0.5,1.3,1.2,1.3h3.1c-0.5,0.1-1,0.6-1,1.3c0,0.6,0.4,1.1,0.9,1.3h-3.1c-0.7,0-1.2,0.6-1.2,1.3
			c0,0.7,0.5,1.3,1.2,1.3h3.1c-0.5,0.1-1,0.6-1,1.3c0,0.7,0.5,1.3,1.2,1.3h4.5c0.7,0,1.2-0.6,1.2-1.3s-0.5-1.3-1.2-1.3h-3.1
			c0.5-0.1,1-0.6,1-1.3c0-0.6-0.4-1.1-0.9-1.3h3.1C379.2,443.2,379.7,442.6,379.7,441.9z"/>
		<path fill="#FFFFFF" d="M379.7,431.4c0-0.7-0.5-1.3-1.2-1.3h-3.1c0.5-0.1,0.9-0.6,0.9-1.3c0-0.7-0.5-1.3-1.2-1.3h-4.5
			c-0.7,0-1.2,0.6-1.2,1.3c0,0.7,0.5,1.3,1.2,1.3h3.1c-0.5,0.1-0.9,0.6-0.9,1.3c0,0.6,0.4,1.1,1,1.3h-3.1c-0.7,0-1.2,0.6-1.2,1.3
			c0,0.7,0.5,1.3,1.2,1.3h3.1c-0.5,0.1-0.9,0.6-0.9,1.3c0,0.7,0.5,1.3,1.2,1.3h4.5c0.7,0,1.2-0.6,1.2-1.3c0-0.7-0.5-1.3-1.2-1.3
			h-3.1c0.5-0.1,0.9-0.6,0.9-1.3c0-0.6-0.4-1.2-1-1.3h3.1C379.2,432.7,379.7,432.1,379.7,431.4z"/>
		<path fill="#FFFFFF" d="M379.7,420.8c0-0.7-0.5-1.3-1.2-1.3h-3.1c0.5-0.1,0.9-0.6,0.9-1.3c0-0.7-0.5-1.3-1.2-1.3h-4.5
			c-0.7,0-1.2,0.6-1.2,1.3s0.5,1.3,1.2,1.3h3.1c-0.5,0.1-0.9,0.6-0.9,1.3c0,0.6,0.4,1.1,0.9,1.3h-3.1c-0.7,0-1.2,0.6-1.2,1.3
			c0,0.7,0.5,1.3,1.2,1.3h3.1c-0.5,0.1-0.9,0.6-0.9,1.3c0,0.7,0.5,1.3,1.2,1.3h4.5c0.7,0,1.2-0.6,1.2-1.3c0-0.7-0.5-1.3-1.2-1.3
			h-3.1c0.5-0.1,0.9-0.6,0.9-1.3c0-0.6-0.4-1.1-0.9-1.3h3.1C379.2,422.2,379.7,421.6,379.7,420.8z"/>
		<path fill="#FFFFFF" d="M379.7,568.3c0-0.7-0.5-1.3-1.2-1.3h-3.1c0.5-0.1,1-0.6,1-1.3c0-0.7-0.5-1.3-1.2-1.3h-4.5
			c-0.7,0-1.2,0.6-1.2,1.3c0,0.7,0.5,1.3,1.2,1.3h3.1c-0.5,0.1-1,0.6-1,1.3c0,0.6,0.4,1.2,1,1.3h-3.1c-0.7,0-1.2,0.6-1.2,1.3
			c0,0.7,0.5,1.3,1.2,1.3h3.1c-0.5,0.1-1,0.6-1,1.3c0,0.6,0.3,1,0.8,1.2h-2.9c-0.7,0-1.2,0.6-1.2,1.3c0,0.7,0.5,1.3,1.2,1.3h3.1
			c-0.5,0.1-1,0.6-1,1.3c0,0.6,0.4,1.2,1,1.3h-3.1c-0.7,0-1.2,0.6-1.2,1.3c0,0.7,0.5,1.3,1.2,1.3h3.1c-0.5,0.1-0.9,0.6-0.9,1.3
			c0,0.7,0.5,1.3,1.2,1.3h4.5c0.7,0,1.2-0.6,1.2-1.3c0-0.7-0.5-1.3-1.2-1.3h-3.1c0.5-0.1,0.9-0.6,0.9-1.3c0-0.6-0.4-1.2-1-1.3h3.1
			c0.7,0,1.2-0.6,1.2-1.3c0-0.7-0.5-1.3-1.2-1.3h-3.1c0.5-0.1,1-0.6,1-1.3c0-0.6-0.3-1-0.8-1.2h2.9c0.7,0,1.2-0.6,1.2-1.3
			c0-0.7-0.5-1.3-1.2-1.3h-3.1c0.5-0.1,1-0.6,1-1.3c0-0.6-0.4-1.2-1-1.3h3.1C379.2,569.6,379.7,569,379.7,568.3z"/>
		<path fill="#FFFFFF" d="M379.7,557.8c0-0.7-0.5-1.3-1.2-1.3h-3.1c0.5-0.1,1-0.6,1-1.3c0-0.7-0.5-1.3-1.2-1.3h-4.5
			c-0.7,0-1.2,0.6-1.2,1.3c0,0.7,0.5,1.3,1.2,1.3h3.1c-0.5,0.1-1,0.6-1,1.3c0,0.6,0.4,1.1,0.9,1.3h-3.1c-0.7,0-1.2,0.6-1.2,1.3
			c0,0.7,0.5,1.3,1.2,1.3h3.1c-0.5,0.1-1,0.6-1,1.3c0,0.7,0.5,1.3,1.2,1.3h4.5c0.7,0,1.2-0.6,1.2-1.3c0-0.7-0.5-1.3-1.2-1.3h-3.1
			c0.5-0.1,1-0.6,1-1.3c0-0.6-0.4-1.1-0.9-1.3h3.1C379.2,559.1,379.7,558.5,379.7,557.8z"/>
		<path fill="#FFFFFF" d="M379.7,547.2c0-0.7-0.5-1.3-1.2-1.3h-3.1c0.5-0.1,0.9-0.6,0.9-1.3c0-0.7-0.5-1.3-1.2-1.3h-4.5
			c-0.7,0-1.2,0.6-1.2,1.3c0,0.7,0.5,1.3,1.2,1.3h3.1c-0.5,0.1-0.9,0.6-0.9,1.3c0,0.6,0.4,1.2,1,1.3h-3.1c-0.7,0-1.2,0.6-1.2,1.3
			c0,0.7,0.5,1.3,1.2,1.3h3.1c-0.5,0.1-0.9,0.6-0.9,1.3c0,0.7,0.5,1.3,1.2,1.3h4.5c0.7,0,1.2-0.6,1.2-1.3c0-0.7-0.5-1.3-1.2-1.3
			h-3.1c0.5-0.1,0.9-0.6,0.9-1.3c0-0.6-0.4-1.2-1-1.3h3.1C379.2,548.6,379.7,548,379.7,547.2z"/>
		<path fill="#FFFFFF" d="M379.7,536.7c0-0.7-0.5-1.3-1.2-1.3h-3.1c0.5-0.1,1-0.6,1-1.3c0-0.7-0.5-1.3-1.2-1.3h-4.5
			c-0.7,0-1.2,0.6-1.2,1.3c0,0.7,0.5,1.3,1.2,1.3h3.1c-0.5,0.1-1,0.6-1,1.3c0,0.6,0.4,1.1,1,1.3h-3.1c-0.7,0-1.2,0.6-1.2,1.3
			c0,0.7,0.5,1.3,1.2,1.3h3.1c-0.5,0.1-1,0.6-1,1.3c0,0.7,0.5,1.3,1.2,1.3h4.5c0.7,0,1.2-0.6,1.2-1.3c0-0.7-0.5-1.3-1.2-1.3h-3.1
			c0.5-0.1,1-0.6,1-1.3c0-0.6-0.4-1.2-1-1.3h3.1C379.2,538,379.7,537.4,379.7,536.7z"/>
		<path fill="#FFFFFF" d="M379.7,526.2c0-0.7-0.5-1.3-1.2-1.3h-3.1c0.5-0.1,0.9-0.6,0.9-1.3c0-0.7-0.5-1.3-1.2-1.3h-4.5
			c-0.7,0-1.2,0.6-1.2,1.3c0,0.7,0.5,1.3,1.2,1.3h3.1c-0.5,0.1-0.9,0.6-0.9,1.3c0,0.6,0.4,1.2,1,1.3h-3.1c-0.7,0-1.2,0.6-1.2,1.3
			s0.5,1.3,1.2,1.3h3.1c-0.5,0.1-1,0.6-1,1.3c0,0.7,0.5,1.3,1.2,1.3h4.5c0.7,0,1.2-0.6,1.2-1.3c0-0.7-0.5-1.3-1.2-1.3h-3.1
			c0.5-0.1,1-0.6,1-1.3c0-0.6-0.4-1.2-1-1.3h3.1C379.2,527.5,379.7,526.9,379.7,526.2z"/>
		<path fill="#FFFFFF" d="M379.7,515.6c0-0.7-0.5-1.3-1.2-1.3h-3.1c0.5-0.1,0.9-0.6,0.9-1.3c0-0.7-0.5-1.3-1.2-1.3h-4.5
			c-0.7,0-1.2,0.6-1.2,1.3c0,0.7,0.5,1.3,1.2,1.3h3.1c-0.5,0.1-0.9,0.6-0.9,1.3c0,0.6,0.4,1.2,1,1.3h-3.1c-0.7,0-1.2,0.6-1.2,1.3
			c0,0.7,0.5,1.3,1.2,1.3h3.1c-0.5,0.1-0.9,0.6-0.9,1.3c0,0.7,0.5,1.3,1.2,1.3h4.5c0.7,0,1.2-0.6,1.2-1.3c0-0.7-0.5-1.3-1.2-1.3
			h-3.1c0.5-0.1,0.9-0.6,0.9-1.3c0-0.6-0.4-1.2-1-1.3h3.1C379.2,517,379.7,516.4,379.7,515.6z"/>
		<path fill="#FFFFFF" d="M379.7,505.1c0-0.7-0.5-1.3-1.2-1.3h-3.1c0.5-0.1,1-0.6,1-1.3c0-0.7-0.5-1.3-1.2-1.3h-4.5
			c-0.7,0-1.2,0.6-1.2,1.3c0,0.7,0.5,1.3,1.2,1.3h3.1c-0.5,0.1-1,0.6-1,1.3c0,0.6,0.4,1.1,0.9,1.3h-3.1c-0.7,0-1.2,0.6-1.2,1.3
			c0,0.7,0.5,1.3,1.2,1.3h3.1c-0.5,0.1-1,0.6-1,1.3c0,0.7,0.5,1.3,1.2,1.3h4.5c0.7,0,1.2-0.6,1.2-1.3c0-0.7-0.5-1.3-1.2-1.3h-3.1
			c0.5-0.1,1-0.6,1-1.3c0-0.6-0.4-1.1-0.9-1.3h3.1C379.2,506.4,379.7,505.8,379.7,505.1z"/>
		<path fill="#FFFFFF" d="M379.7,494.6c0-0.7-0.5-1.3-1.2-1.3h-3.1c0.5-0.1,1-0.6,1-1.3c0-0.7-0.5-1.3-1.2-1.3h-4.5
			c-0.7,0-1.2,0.6-1.2,1.3c0,0.7,0.5,1.3,1.2,1.3h3.1c-0.5,0.1-1,0.6-1,1.3c0,0.6,0.4,1.1,1,1.3h-3.1c-0.7,0-1.2,0.6-1.2,1.3
			c0,0.7,0.5,1.3,1.2,1.3h3.1c-0.5,0.1-1,0.6-1,1.3c0,0.7,0.5,1.3,1.2,1.3h4.5c0.7,0,1.2-0.6,1.2-1.3s-0.5-1.3-1.2-1.3h-3.1
			c0.5-0.1,1-0.6,1-1.3c0-0.6-0.4-1.2-1-1.3h3.1C379.2,495.9,379.7,495.3,379.7,494.6z"/>
		<path fill="#FFFFFF" d="M379.7,315.6c0-0.7-0.5-1.3-1.2-1.3h-3.1c0.5-0.1,1-0.6,1-1.3c0-0.7-0.5-1.3-1.2-1.3h-4.5
			c-0.7,0-1.2,0.6-1.2,1.3c0,0.7,0.5,1.3,1.2,1.3h3.1c-0.5,0.1-1,0.6-1,1.3c0,0.6,0.4,1.2,1,1.3h-3.1c-0.7,0-1.2,0.6-1.2,1.3
			c0,0.7,0.5,1.3,1.2,1.3h3.1c-0.5,0.1-1,0.6-1,1.3c0,0.7,0.5,1.3,1.2,1.3h4.5c0.7,0,1.2-0.6,1.2-1.3c0-0.7-0.5-1.3-1.2-1.3h-3.1
			c0.5-0.1,1-0.6,1-1.3c0-0.6-0.4-1.2-1-1.3h3.1C379.2,316.9,379.7,316.3,379.7,315.6z"/>
		<path fill="#FFFFFF" d="M379.7,305.1c0-0.7-0.5-1.3-1.2-1.3h-3.1c0.5-0.1,1-0.6,1-1.3c0-0.7-0.5-1.3-1.2-1.3h-4.5
			c-0.7,0-1.2,0.6-1.2,1.3c0,0.7,0.5,1.3,1.2,1.3h3.1c-0.5,0.1-1,0.6-1,1.3c0,0.6,0.4,1.1,0.9,1.3h-3.1c-0.7,0-1.2,0.6-1.2,1.3
			c0,0.7,0.5,1.3,1.2,1.3h3.1c-0.5,0.1-1,0.6-1,1.3c0,0.7,0.5,1.3,1.2,1.3h4.5c0.7,0,1.2-0.6,1.2-1.3c0-0.7-0.5-1.3-1.2-1.3h-3.1
			c0.5-0.1,1-0.6,1-1.3c0-0.6-0.4-1.1-0.9-1.3h3.1C379.2,306.4,379.7,305.8,379.7,305.1z"/>
		<path fill="#FFFFFF" d="M379.7,294.5c0-0.7-0.5-1.3-1.2-1.3h-3.1c0.5-0.1,0.9-0.6,0.9-1.3c0-0.7-0.5-1.3-1.2-1.3h-4.5
			c-0.7,0-1.2,0.6-1.2,1.3c0,0.7,0.5,1.3,1.2,1.3h3.1c-0.5,0.1-0.9,0.6-0.9,1.3c0,0.6,0.4,1.1,0.9,1.3h-3.1c-0.7,0-1.2,0.6-1.2,1.3
			c0,0.7,0.5,1.3,1.2,1.3h3.1c-0.5,0.1-0.9,0.6-0.9,1.3c0,0.7,0.5,1.3,1.2,1.3h4.5c0.7,0,1.2-0.6,1.2-1.3c0-0.7-0.5-1.3-1.2-1.3
			h-3.1c0.5-0.1,0.9-0.6,0.9-1.3c0-0.6-0.4-1.1-0.9-1.3h3.1C379.2,295.9,379.7,295.3,379.7,294.5z"/>
		<path fill="#FFFFFF" d="M379.7,284c0-0.7-0.5-1.3-1.2-1.3h-3.1c0.5-0.1,1-0.6,1-1.3c0-0.7-0.5-1.3-1.2-1.3h-4.5
			c-0.7,0-1.2,0.6-1.2,1.3s0.5,1.3,1.2,1.3h3.1c-0.5,0.1-1,0.6-1,1.3c0,0.6,0.4,1.1,1,1.3h-3.1c-0.7,0-1.2,0.6-1.2,1.3
			c0,0.7,0.5,1.3,1.2,1.3h3.1c-0.5,0.1-1,0.6-1,1.3c0,0.7,0.5,1.3,1.2,1.3h4.5c0.7,0,1.2-0.6,1.2-1.3c0-0.7-0.5-1.3-1.2-1.3h-3.1
			c0.5-0.1,1-0.6,1-1.3c0-0.6-0.4-1.2-1-1.3h3.1C379.2,285.3,379.7,284.7,379.7,284z"/>
		<path fill="#FFFFFF" d="M379.7,273.5c0-0.7-0.5-1.3-1.2-1.3h-3.1c0.5-0.1,1-0.6,1-1.3c0-0.7-0.5-1.3-1.2-1.3h-4.5
			c-0.7,0-1.2,0.6-1.2,1.3c0,0.7,0.5,1.3,1.2,1.3h3.1c-0.5,0.1-1,0.6-1,1.3c0,0.6,0.4,1.2,1,1.3h-3.1c-0.7,0-1.2,0.6-1.2,1.3
			c0,0.7,0.5,1.3,1.2,1.3h3.1c-0.5,0.1-0.9,0.6-0.9,1.3c0,0.7,0.5,1.3,1.2,1.3h4.5c0.7,0,1.2-0.6,1.2-1.3c0-0.7-0.5-1.3-1.2-1.3
			h-3.1c0.5-0.1,0.9-0.6,0.9-1.3c0-0.6-0.4-1.2-1-1.3h3.1C379.2,274.8,379.7,274.2,379.7,273.5z"/>
		<path fill="#FFFFFF" d="M379.7,262.9c0-0.7-0.5-1.3-1.2-1.3h-3.1c0.5-0.1,0.9-0.6,0.9-1.3c0-0.7-0.5-1.3-1.2-1.3h-4.5
			c-0.7,0-1.2,0.6-1.2,1.3c0,0.7,0.5,1.3,1.2,1.3h3.1c-0.5,0.1-0.9,0.6-0.9,1.3c0,0.6,0.4,1.2,1,1.3h-3.1c-0.7,0-1.2,0.6-1.2,1.3
			c0,0.7,0.5,1.3,1.2,1.3h3.1c-0.5,0.1-0.9,0.6-0.9,1.3c0,0.7,0.5,1.3,1.2,1.3h4.5c0.7,0,1.2-0.6,1.2-1.3c0-0.7-0.5-1.3-1.2-1.3
			h-3.1c0.5-0.1,0.9-0.6,0.9-1.3c0-0.6-0.4-1.1-1-1.3h3.1C379.2,264.3,379.7,263.7,379.7,262.9z"/>
		<path fill="#FFFFFF" d="M379.7,252.4c0-0.7-0.5-1.3-1.2-1.3h-3.1c0.5-0.1,0.9-0.6,0.9-1.3c0-0.7-0.5-1.3-1.2-1.3h-4.5
			c-0.7,0-1.2,0.6-1.2,1.3c0,0.7,0.5,1.3,1.2,1.3h3.1c-0.5,0.1-0.9,0.6-0.9,1.3c0,0.6,0.4,1.2,1,1.3h-3.1c-0.7,0-1.2,0.6-1.2,1.3
			c0,0.7,0.5,1.3,1.2,1.3h3.1c-0.5,0.1-1,0.6-1,1.3c0,0.7,0.5,1.3,1.2,1.3h4.5c0.7,0,1.2-0.6,1.2-1.3c0-0.7-0.5-1.3-1.2-1.3h-3.1
			c0.5-0.1,1-0.6,1-1.3c0-0.6-0.4-1.1-1-1.3h3.1C379.2,253.7,379.7,253.1,379.7,252.4z"/>
		<path fill="#FFFFFF" d="M378.5,245.8h-3.1c0.5-0.1,0.9-0.6,0.9-1.3c0-0.6-0.4-1.1-0.9-1.3h3.1c0.7,0,1.2-0.6,1.2-1.3
			c0-0.7-0.5-1.3-1.2-1.3h-3.1c0.5-0.1,1-0.6,1-1.3c0-0.7-0.5-1.3-1.2-1.3h-4.5c-0.7,0-1.2,0.6-1.2,1.3c0,0.7,0.5,1.3,1.2,1.3h3.1
			c-0.5,0.1-1,0.6-1,1.3c0,0.6,0.4,1.1,0.9,1.3h-3.1c-0.7,0-1.2,0.6-1.2,1.3c0,0.7,0.5,1.3,1.2,1.3h3.1c-0.5,0.1-0.9,0.6-0.9,1.3
			c0,0.7,0.5,1.3,1.2,1.3h4.5c0.7,0,1.2-0.6,1.2-1.3C379.7,246.4,379.2,245.8,378.5,245.8z"/>
		<path fill="#FFFFFF" d="M379.7,399.9c0-0.7-0.5-1.3-1.2-1.3h-3.1c0.5-0.1,1-0.6,1-1.3c0-0.7-0.5-1.3-1.2-1.3h-4.5
			c-0.7,0-1.2,0.6-1.2,1.3c0,0.7,0.5,1.3,1.2,1.3h3.1c-0.5,0.1-1,0.6-1,1.3c0,0.6,0.4,1.1,0.9,1.3h-3.1c-0.7,0-1.2,0.6-1.2,1.3
			c0,0.7,0.5,1.3,1.2,1.3h3.1c-0.5,0.1-0.9,0.6-0.9,1.3c0,0.7,0.5,1.3,1.1,1.3h-3.3c-0.7,0-1.2,0.6-1.2,1.3c0,0.7,0.5,1.3,1.2,1.3
			h3.1c-0.5,0.1-0.9,0.6-0.9,1.3c0,0.6,0.4,1.1,0.9,1.3h-3.1c-0.7,0-1.2,0.6-1.2,1.3c0,0.7,0.5,1.3,1.2,1.3h3.1
			c-0.5,0.1-1,0.6-1,1.3c0,0.7,0.5,1.3,1.2,1.3h4.5c0.7,0,1.2-0.6,1.2-1.3c0-0.7-0.5-1.3-1.2-1.3h-3.1c0.5-0.1,1-0.6,1-1.3
			c0-0.6-0.4-1.1-0.9-1.3h3.1c0.7,0,1.2-0.6,1.2-1.3c0-0.7-0.5-1.3-1.2-1.3h-3.1c0.5-0.1,0.9-0.6,0.9-1.3c0-0.7-0.5-1.3-1.1-1.3h3.3
			c0.7,0,1.2-0.6,1.2-1.3c0-0.7-0.5-1.3-1.2-1.3h-3.1c0.5-0.1,0.9-0.6,0.9-1.3c0-0.6-0.4-1.1-0.9-1.3h3.1
			C379.2,401.2,379.7,400.6,379.7,399.9z"/>
		<path fill="#FFFFFF" d="M379.7,389.3c0-0.7-0.5-1.3-1.2-1.3h-3.1c0.5-0.1,1-0.6,1-1.3c0-0.7-0.5-1.3-1.2-1.3h-4.5
			c-0.7,0-1.2,0.6-1.2,1.3c0,0.7,0.5,1.3,1.2,1.3h3.1c-0.5,0.1-1,0.6-1,1.3c0,0.6,0.4,1.2,1,1.3h-3.1c-0.7,0-1.2,0.6-1.2,1.3
			c0,0.7,0.5,1.3,1.2,1.3h3.1c-0.5,0.1-1,0.6-1,1.3c0,0.7,0.5,1.3,1.2,1.3h4.5c0.7,0,1.2-0.6,1.2-1.3c0-0.7-0.5-1.3-1.2-1.3h-3.1
			c0.5-0.1,1-0.6,1-1.3c0-0.6-0.4-1.2-1-1.3h3.1C379.2,390.7,379.7,390.1,379.7,389.3z"/>
		<path fill="#FFFFFF" d="M379.7,378.8c0-0.7-0.5-1.3-1.2-1.3h-3.1c0.5-0.1,0.9-0.6,0.9-1.3c0-0.7-0.5-1.3-1.2-1.3h-4.5
			c-0.7,0-1.2,0.6-1.2,1.3c0,0.7,0.5,1.3,1.2,1.3h3.1c-0.5,0.1-0.9,0.6-0.9,1.3c0,0.6,0.4,1.1,0.9,1.3h-3.1c-0.7,0-1.2,0.6-1.2,1.3
			c0,0.7,0.5,1.3,1.2,1.3h3.1c-0.5,0.1-1,0.6-1,1.3c0,0.7,0.5,1.3,1.2,1.3h4.5c0.7,0,1.2-0.6,1.2-1.3c0-0.7-0.5-1.3-1.2-1.3h-3.1
			c0.5-0.1,1-0.6,1-1.3c0-0.6-0.4-1.1-0.9-1.3h3.1C379.2,380.1,379.7,379.5,379.7,378.8z"/>
		<path fill="#FFFFFF" d="M379.7,368.3c0-0.7-0.5-1.3-1.2-1.3h-3.1c0.5-0.1,1-0.6,1-1.3c0-0.7-0.5-1.3-1.2-1.3h-4.5
			c-0.7,0-1.2,0.6-1.2,1.3c0,0.7,0.5,1.3,1.2,1.3h3.1c-0.5,0.1-1,0.6-1,1.3c0,0.6,0.4,1.1,0.9,1.3h-3.1c-0.7,0-1.2,0.6-1.2,1.3
			c0,0.7,0.5,1.3,1.2,1.3h3.1c-0.5,0.1-1,0.6-1,1.3c0,0.7,0.5,1.3,1.2,1.3h4.5c0.7,0,1.2-0.6,1.2-1.3c0-0.7-0.5-1.3-1.2-1.3h-3.1
			c0.5-0.1,1-0.6,1-1.3c0-0.6-0.4-1.1-0.9-1.3h3.1C379.2,369.6,379.7,369,379.7,368.3z"/>
		<path fill="#FFFFFF" d="M379.7,357.8c0-0.7-0.5-1.3-1.2-1.3h-3.1c0.5-0.1,0.9-0.6,0.9-1.3c0-0.7-0.5-1.3-1.2-1.3h-4.5
			c-0.7,0-1.2,0.6-1.2,1.3c0,0.7,0.5,1.3,1.2,1.3h3.1c-0.5,0.1-0.9,0.6-0.9,1.3c0,0.6,0.4,1.2,1,1.3h-3.1c-0.7,0-1.2,0.6-1.2,1.3
			c0,0.7,0.5,1.3,1.2,1.3h3.1c-0.5,0.1-0.9,0.6-0.9,1.3c0,0.7,0.5,1.3,1.2,1.3h4.5c0.7,0,1.2-0.6,1.2-1.3c0-0.7-0.5-1.3-1.2-1.3
			h-3.1c0.5-0.1,0.9-0.6,0.9-1.3c0-0.6-0.4-1.2-1-1.3h3.1C379.2,359.1,379.7,358.5,379.7,357.8z"/>
		<path fill="#FFFFFF" d="M379.7,347.2c0-0.7-0.5-1.3-1.2-1.3h-3.1c0.5-0.1,1-0.6,1-1.3c0-0.7-0.5-1.3-1.2-1.3h-4.5
			c-0.7,0-1.2,0.6-1.2,1.3c0,0.7,0.5,1.3,1.2,1.3h3.1c-0.5,0.1-1,0.6-1,1.3c0,0.6,0.4,1.1,0.9,1.3h-3.1c-0.7,0-1.2,0.6-1.2,1.3
			c0,0.7,0.5,1.3,1.2,1.3h3.1c-0.5,0.1-0.9,0.6-0.9,1.3c0,0.7,0.5,1.3,1.2,1.3h4.5c0.7,0,1.2-0.6,1.2-1.3c0-0.7-0.5-1.3-1.2-1.3
			h-3.1c0.5-0.1,0.9-0.6,0.9-1.3c0-0.6-0.4-1.1-0.9-1.3h3.1C379.2,348.6,379.7,348,379.7,347.2z"/>
		<path fill="#FFFFFF" d="M379.7,336.7c0-0.7-0.5-1.3-1.2-1.3h-3.1c0.5-0.1,1-0.6,1-1.3c0-0.7-0.5-1.3-1.2-1.3h-4.5
			c-0.7,0-1.2,0.6-1.2,1.3c0,0.7,0.5,1.3,1.2,1.3h3.1c-0.5,0.1-1,0.6-1,1.3c0,0.6,0.4,1.1,0.9,1.3h-3.1c-0.7,0-1.2,0.6-1.2,1.3
			c0,0.7,0.5,1.3,1.2,1.3h3.1c-0.5,0.1-1,0.6-1,1.3c0,0.7,0.5,1.3,1.2,1.3h4.5c0.7,0,1.2-0.6,1.2-1.3c0-0.7-0.5-1.3-1.2-1.3h-3.1
			c0.5-0.1,1-0.6,1-1.3c0-0.6-0.4-1.1-0.9-1.3h3.1C379.2,338,379.7,337.4,379.7,336.7z"/>
		<path fill="#FFFFFF" d="M379.7,326.2c0-0.7-0.5-1.3-1.2-1.3h-3.1c0.5-0.1,0.9-0.6,0.9-1.3c0-0.7-0.5-1.3-1.2-1.3h-4.5
			c-0.7,0-1.2,0.6-1.2,1.3c0,0.7,0.5,1.3,1.2,1.3h3.1c-0.5,0.1-0.9,0.6-0.9,1.3c0,0.6,0.4,1.2,1,1.3h-3.1c-0.7,0-1.2,0.6-1.2,1.3
			c0,0.7,0.5,1.3,1.2,1.3h3.1c-0.5,0.1-0.9,0.6-0.9,1.3c0,0.7,0.5,1.3,1.2,1.3h4.5c0.7,0,1.2-0.6,1.2-1.3c0-0.7-0.5-1.3-1.2-1.3
			h-3.1c0.5-0.1,0.9-0.6,0.9-1.3c0-0.6-0.4-1.2-1-1.3h3.1C379.2,327.5,379.7,326.9,379.7,326.2z"/>
	</g>
		</g>
	<g id="CUSTOM"></g>
	<g id="SLEEVES">
	<path fill="#BF2A43" stroke="#897F76" stroke-width=" 0.5" stroke-miterlimit="10"  d="M709.4,566.8c-9.3-98.9-20.6-211.8-21.8-219.7c-1.7-12.2-5.2-46.4-5.2-48.1s0.6-43.5-5.2-53.4
		c-5.8-9.9-25.5-50.5-29.6-56.8c-0.6-0.9-2.3-2.3-4.8-4.1c-0.4,5.8-1.8,12.3-5.1,18.6c-9.6,18.3-54.9,99.1-56.8,107.8
		c-1.9,8.7,2.9,104.9,1,132.8c-1.9,27.9-1,78-5.8,104.9c-1,5.7-2.7,11.7-4.6,18c-7.2,23.7-18.1,51.2-12.8,76.3
		c6.7,31.8,26.9,107.8,28.9,120.3c1.9,12.5,0,38.5,3.8,52c2.2,7.5,3.1,21.7,3.5,32.7l1.5-2.3c0,0,5.2,29,8.7,42.3
		c3.5,13.3,5.2,22.6,7,29.6c1.7,7,5.2,11,7.5,16.8c2.2,5.5,9.7,9.5,9.9,10.4c0,0.1,0.3,18,0.3,18l-0.2,27l0.5,3.2
		c0,0,19.1,5.8,49.9,4.1c26.6-1.5,32.8-7.3,34-8.9c0.2-0.2,0.3-0.4,0.3-0.4s0.6-12.5,0-18.3c-0.6-5.8,0-21.8,0-21.8s0.1-0.4,0.3-1.2
		c1.7-6.7,10.1-41.2,10.1-62.6c0-23.8,1.7-111.3-4.1-189.6C718.7,667.4,714.3,619,709.4,566.8z"/>
	<path fill="#BF2A43" stroke="#897F76" stroke-width=" 0.5" stroke-miterlimit="10" d="M207.5,553.6c0,0-15.4-62.6-19.2-77c-3.8-14.4-25-153-45.2-225.2c-8.5-30.4-21.8-48.9-34.4-60.1
		c-0.1,0.1-0.3,0.2-0.4,0.3c-7.5,6.4-26.1,62.1-29,71.3c-2.9,9.3,0,42.9-1.2,56.8C77,333.7,57.3,508.3,56.1,524
		c-0.4,5.7-1.7,22.7-3.2,42.9c-2.7,35.7-6.3,81.1-7.8,89.9c-2.3,13.9-11.6,131.1-8.7,143.8c2.9,12.8,6.4,107.3,10.4,116
		c4.1,8.7,14.5,28.4,16.8,30.2c2.3,1.7,4.6,3.5,4.6,3.5s-0.5,28.6-0.8,34.8c-0.1,2.7,0.4,4.5,0.8,4.6c1.7,0.6,18,6.4,45.2,5.8
		s39.4-2.9,39.4-6.4c0-0.8,0.1-2.1,0.3-3.8c0.6-6.2,0.4-17.3,0.4-22.3c0-6.4,1.2-19.6,1.2-19.6s16.1-9.4,21.3-28.6
		c3.7-13.6,6.2-27.2,7.4-33.9l-3-7.7c0,0-2.9-15.4,2.9-33.7c5.8-18.3,3.8-45.2,2.9-71.2c-1-26,12.5-82.8,15.4-109.7
		c2.9-26.9,2.9-29.8,2.9-29.8l-5.8-16.4c0,0,9.6-25,10.6-28.9c0.5-2,0-9.6-0.6-16.7C208.2,559.9,207.5,553.6,207.5,553.6z"/>
</g>
<polygon fill="#FDBB2D" points="379.3,237.6 378.9,226.8 378.9,226.8 "/>
<polygon fill="#FDBB2D" points="370.7,226.2 370.7,226.2 370.3,237.6 "/>
<g>
	<!--<g id="ZIPPER">
		<path fill="#FFFFFF" d="M379.7,820.8c0-0.7-0.5-1.3-1.2-1.3h-3.1c0.5-0.1,1-0.6,1-1.3c0-0.7-0.5-1.3-1.2-1.3h-4.5
			c-0.7,0-1.2,0.6-1.2,1.3c0,0.7,0.5,1.3,1.2,1.3h3.1c-0.5,0.1-1,0.6-1,1.3c0,0.6,0.4,1.2,1,1.3h-3.1c-0.7,0-1.2,0.6-1.2,1.3
			c0,0.7,0.5,1.3,1.2,1.3h3.1c-0.5,0.1-0.9,0.6-0.9,1.3c0,0.7,0.5,1.3,1.2,1.3h4.5c0.7,0,1.2-0.6,1.2-1.3c0-0.7-0.5-1.3-1.2-1.3
			h-3.1c0.5-0.1,0.9-0.6,0.9-1.3c0-0.6-0.4-1.2-1-1.3h3.1C379.2,822.1,379.7,821.5,379.7,820.8z"/>
		<path fill="#FFFFFF" d="M379.7,810.2c0-0.7-0.5-1.3-1.2-1.3h-3.1c0.5-0.1,1-0.6,1-1.3c0-0.7-0.5-1.3-1.2-1.3h-4.5
			c-0.7,0-1.2,0.6-1.2,1.3c0,0.7,0.5,1.3,1.2,1.3h3.1c-0.5,0.1-1,0.6-1,1.3c0,0.6,0.4,1.1,0.9,1.3h-3.1c-0.7,0-1.2,0.6-1.2,1.3
			s0.5,1.3,1.2,1.3h3.1c-0.5,0.1-1,0.6-1,1.3c0,0.7,0.5,1.3,1.2,1.3h4.5c0.7,0,1.2-0.6,1.2-1.3c0-0.7-0.5-1.3-1.2-1.3h-3.1
			c0.5-0.1,1-0.6,1-1.3c0-0.6-0.4-1.1-0.9-1.3h3.1C379.2,811.6,379.7,811,379.7,810.2z"/>
		<path fill="#FFFFFF" d="M379.7,799.7c0-0.7-0.5-1.3-1.2-1.3h-3.1c0.5-0.1,0.9-0.6,0.9-1.3c0-0.7-0.5-1.3-1.2-1.3h-4.5
			c-0.7,0-1.2,0.6-1.2,1.3c0,0.7,0.5,1.3,1.2,1.3h3.1c-0.5,0.1-0.9,0.6-0.9,1.3c0,0.6,0.4,1.1,0.9,1.3h-3.1c-0.7,0-1.2,0.6-1.2,1.3
			c0,0.7,0.5,1.3,1.2,1.3h3.1c-0.5,0.1-1,0.6-1,1.3c0,0.7,0.5,1.3,1.2,1.3h4.5c0.7,0,1.2-0.6,1.2-1.3c0-0.7-0.5-1.3-1.2-1.3h-3.1
			c0.5-0.1,1-0.6,1-1.3c0-0.6-0.4-1.1-0.9-1.3h3.1C379.2,801,379.7,800.4,379.7,799.7z"/>
		<path fill="#FFFFFF" d="M379.7,789.2c0-0.7-0.5-1.3-1.2-1.3h-3.1c0.5-0.1,0.9-0.6,0.9-1.3c0-0.7-0.5-1.3-1.2-1.3h-4.5
			c-0.7,0-1.2,0.6-1.2,1.3c0,0.7,0.5,1.3,1.2,1.3h3.1c-0.5,0.1-0.9,0.6-0.9,1.3c0,0.6,0.4,1.1,1,1.3h-3.1c-0.7,0-1.2,0.6-1.2,1.3
			c0,0.7,0.5,1.3,1.2,1.3h3.1c-0.5,0.1-0.9,0.6-0.9,1.3c0,0.7,0.5,1.3,1.2,1.3h4.5c0.7,0,1.2-0.6,1.2-1.3c0-0.7-0.5-1.3-1.2-1.3
			h-3.1c0.5-0.1,0.9-0.6,0.9-1.3c0-0.6-0.4-1.2-1-1.3h3.1C379.2,790.5,379.7,789.9,379.7,789.2z"/>
		<path fill="#FFFFFF" d="M379.7,778.6c0-0.7-0.5-1.3-1.2-1.3h-3.1c0.5-0.1,1-0.6,1-1.3c0-0.7-0.5-1.3-1.2-1.3h-4.5
			c-0.7,0-1.2,0.6-1.2,1.3c0,0.7,0.5,1.3,1.2,1.3h3.1c-0.5,0.1-1,0.6-1,1.3c0,0.6,0.4,1.1,0.9,1.3h-3.1c-0.7,0-1.2,0.6-1.2,1.3
			c0,0.7,0.5,1.3,1.2,1.3h3.1c-0.5,0.1-1,0.6-1,1.3c0,0.7,0.5,1.3,1.2,1.3h4.5c0.7,0,1.2-0.6,1.2-1.3c0-0.7-0.5-1.3-1.2-1.3h-3.1
			c0.5-0.1,1-0.6,1-1.3c0-0.6-0.4-1.1-0.9-1.3h3.1C379.2,780,379.7,779.4,379.7,778.6z"/>
		<path fill="#FFFFFF" d="M379.7,768.1c0-0.7-0.5-1.3-1.2-1.3h-3.1c0.5-0.1,0.9-0.6,0.9-1.3c0-0.7-0.5-1.3-1.2-1.3h-4.5
			c-0.7,0-1.2,0.6-1.2,1.3c0,0.7,0.5,1.3,1.2,1.3h3.1c-0.5,0.1-0.9,0.6-0.9,1.3c0,0.6,0.4,1.2,1,1.3h-3.1c-0.7,0-1.2,0.6-1.2,1.3
			c0,0.7,0.5,1.3,1.2,1.3h3.1c-0.5,0.1-0.9,0.6-0.9,1.3c0,0.7,0.5,1.3,1.2,1.3h4.5c0.7,0,1.2-0.6,1.2-1.3c0-0.7-0.5-1.3-1.2-1.3
			h-3.1c0.5-0.1,0.9-0.6,0.9-1.3c0-0.6-0.4-1.2-1-1.3h3.1C379.2,769.4,379.7,768.8,379.7,768.1z"/>
		<path fill="#FFFFFF" d="M379.7,757.6c0-0.7-0.5-1.3-1.2-1.3h-3.1c0.5-0.1,0.9-0.6,0.9-1.3c0-0.7-0.5-1.3-1.2-1.3h-4.5
			c-0.7,0-1.2,0.6-1.2,1.3c0,0.7,0.5,1.3,1.2,1.3h3.1c-0.5,0.1-0.9,0.6-0.9,1.3c0,0.6,0.4,1.1,0.9,1.3h-3.1c-0.7,0-1.2,0.6-1.2,1.3
			c0,0.7,0.5,1.3,1.2,1.3h3.1c-0.5,0.1-1,0.6-1,1.3c0,0.7,0.5,1.3,1.2,1.3h4.5c0.7,0,1.2-0.6,1.2-1.3c0-0.7-0.5-1.3-1.2-1.3h-3.1
			c0.5-0.1,1-0.6,1-1.3c0-0.6-0.4-1.1-0.9-1.3h3.1C379.2,758.9,379.7,758.3,379.7,757.6z"/>
		<path fill="#FFFFFF" d="M378.5,903.7h-3.1c0.5-0.1,1-0.6,1-1.3c0-0.7-0.5-1.3-1.2-1.3h-4.5c-0.7,0-1.2,0.6-1.2,1.3
			c0,0.7,0.5,1.3,1.2,1.3h3.1c-0.5,0.1-1,0.6-1,1.3c0,0.6,0.4,1.1,1,1.3h-3.1c-0.7,0-1.2,0.6-1.2,1.3c0,0.7,0.5,1.3,1.2,1.3h4.5
			c0.7,0,1.2-0.6,1.2-1.3c0-0.6-0.4-1.1-1-1.3h3.1c0.7,0,1.2-0.6,1.2-1.3C379.7,904.3,379.2,903.7,378.5,903.7z"/>
		<path fill="#FFFFFF" d="M379.7,894.5c0-0.7-0.5-1.3-1.2-1.3h-3.1c0.5-0.1,1-0.6,1-1.3c0-0.7-0.5-1.3-1.2-1.3h-4.5
			c-0.7,0-1.2,0.6-1.2,1.3c0,0.7,0.5,1.3,1.2,1.3h3.1c-0.5,0.1-1,0.6-1,1.3c0,0.6,0.4,1.1,0.9,1.3h-3.1c-0.7,0-1.2,0.6-1.2,1.3
			c0,0.7,0.5,1.3,1.2,1.3h3.1c-0.5,0.1-1,0.6-1,1.3c0,0.7,0.5,1.3,1.2,1.3h4.5c0.7,0,1.2-0.6,1.2-1.3c0-0.7-0.5-1.3-1.2-1.3h-3.1
			c0.5-0.1,1-0.6,1-1.3c0-0.6-0.4-1.1-0.9-1.3h3.1C379.2,895.8,379.7,895.2,379.7,894.5z"/>
		<path fill="#FFFFFF" d="M379.7,884c0-0.7-0.5-1.3-1.2-1.3h-3.1c0.5-0.1,0.9-0.6,0.9-1.3c0-0.7-0.5-1.3-1.2-1.3h-4.5
			c-0.7,0-1.2,0.6-1.2,1.3c0,0.7,0.5,1.3,1.2,1.3h3.1c-0.5,0.1-0.9,0.6-0.9,1.3c0,0.6,0.4,1.2,1,1.3h-3.1c-0.7,0-1.2,0.6-1.2,1.3
			c0,0.7,0.5,1.3,1.2,1.3h3.1c-0.5,0.1-0.9,0.6-0.9,1.3c0,0.7,0.5,1.3,1.2,1.3h4.5c0.7,0,1.2-0.6,1.2-1.3c0-0.7-0.5-1.3-1.2-1.3
			h-3.1c0.5-0.1,0.9-0.6,0.9-1.3c0-0.6-0.4-1.2-1-1.3h3.1C379.2,885.3,379.7,884.7,379.7,884z"/>
		<path fill="#FFFFFF" d="M379.7,873.4c0-0.7-0.5-1.3-1.2-1.3h-3.1c0.5-0.1,1-0.6,1-1.3c0-0.7-0.5-1.3-1.2-1.3h-4.5
			c-0.7,0-1.2,0.6-1.2,1.3c0,0.7,0.5,1.3,1.2,1.3h3.1c-0.5,0.1-1,0.6-1,1.3c0,0.6,0.4,1.1,1,1.3h-3.1c-0.7,0-1.2,0.6-1.2,1.3
			c0,0.7,0.5,1.3,1.2,1.3h3.1c-0.5,0.1-1,0.6-1,1.3c0,0.7,0.5,1.3,1.2,1.3h4.5c0.7,0,1.2-0.6,1.2-1.3c0-0.7-0.5-1.3-1.2-1.3h-3.1
			c0.5-0.1,1-0.6,1-1.3c0-0.6-0.4-1.2-1-1.3h3.1C379.2,874.8,379.7,874.2,379.7,873.4z"/>
		<path fill="#FFFFFF" d="M379.7,862.9c0-0.7-0.5-1.3-1.2-1.3h-3.1c0.5-0.1,0.9-0.6,0.9-1.3c0-0.7-0.5-1.3-1.2-1.3h-4.5
			c-0.7,0-1.2,0.6-1.2,1.3s0.5,1.3,1.2,1.3h3.1c-0.5,0.1-0.9,0.6-0.9,1.3c0,0.6,0.4,1.1,1,1.3h-3.1c-0.7,0-1.2,0.6-1.2,1.3
			c0,0.7,0.5,1.3,1.2,1.3h3.1c-0.5,0.1-1,0.6-1,1.3c0,0.7,0.5,1.3,1.2,1.3h4.5c0.7,0,1.2-0.6,1.2-1.3c0-0.7-0.5-1.3-1.2-1.3h-3.1
			c0.5-0.1,1-0.6,1-1.3c0-0.6-0.4-1.1-1-1.3h3.1C379.2,864.2,379.7,863.7,379.7,862.9z"/>
		<path fill="#FFFFFF" d="M379.7,852.4c0-0.7-0.5-1.3-1.2-1.3h-3.1c0.5-0.1,0.9-0.6,0.9-1.3c0-0.7-0.5-1.3-1.2-1.3h-4.5
			c-0.7,0-1.2,0.6-1.2,1.3s0.5,1.3,1.2,1.3h3.1c-0.5,0.1-0.9,0.6-0.9,1.3c0,0.6,0.4,1.2,1,1.3h-3.1c-0.7,0-1.2,0.6-1.2,1.3
			c0,0.7,0.5,1.3,1.2,1.3h3.1c-0.5,0.1-0.9,0.6-0.9,1.3c0,0.7,0.5,1.3,1.2,1.3h4.5c0.7,0,1.2-0.6,1.2-1.3c0-0.7-0.5-1.3-1.2-1.3
			h-3.1c0.5-0.1,0.9-0.6,0.9-1.3c0-0.6-0.4-1.2-1-1.3h3.1C379.2,853.7,379.7,853.1,379.7,852.4z"/>
		<path fill="#FFFFFF" d="M379.7,841.9c0-0.7-0.5-1.3-1.2-1.3h-3.1c0.5-0.1,1-0.6,1-1.3c0-0.7-0.5-1.3-1.2-1.3h-4.5
			c-0.7,0-1.2,0.6-1.2,1.3c0,0.7,0.5,1.3,1.2,1.3h3.1c-0.5,0.1-1,0.6-1,1.3c0,0.6,0.4,1.2,1,1.3h-3.1c-0.7,0-1.2,0.6-1.2,1.3
			c0,0.7,0.5,1.3,1.2,1.3h3.1c-0.5,0.1-1,0.6-1,1.3c0,0.7,0.5,1.3,1.2,1.3h4.5c0.7,0,1.2-0.6,1.2-1.3c0-0.7-0.5-1.3-1.2-1.3h-3.1
			c0.5-0.1,1-0.6,1-1.3c0-0.6-0.4-1.1-1-1.3h3.1C379.2,843.2,379.7,842.6,379.7,841.9z"/>
		<path fill="#FFFFFF" d="M379.7,831.3c0-0.7-0.5-1.3-1.2-1.3h-3.1c0.5-0.1,1-0.6,1-1.3c0-0.7-0.5-1.3-1.2-1.3h-4.5
			c-0.7,0-1.2,0.6-1.2,1.3c0,0.7,0.5,1.3,1.2,1.3h3.1c-0.5,0.1-1,0.6-1,1.3c0,0.6,0.4,1.1,1,1.3h-3.1c-0.7,0-1.2,0.6-1.2,1.3
			c0,0.7,0.5,1.3,1.2,1.3h3.1c-0.5,0.1-1,0.6-1,1.3c0,0.7,0.5,1.3,1.2,1.3h4.5c0.7,0,1.2-0.6,1.2-1.3c0-0.7-0.5-1.3-1.2-1.3h-3.1
			c0.5-0.1,1-0.6,1-1.3c0-0.6-0.4-1.1-1-1.3h3.1C379.2,832.7,379.7,832.1,379.7,831.3z"/>
		<path fill="#FFFFFF" d="M379.7,652.3c0-0.7-0.5-1.3-1.2-1.3h-3.1c0.5-0.1,1-0.6,1-1.3c0-0.7-0.5-1.3-1.2-1.3h-4.5
			c-0.7,0-1.2,0.6-1.2,1.3c0,0.7,0.5,1.3,1.2,1.3h3.1c-0.5,0.1-1,0.6-1,1.3c0,0.6,0.4,1.2,1,1.3h-3.1c-0.7,0-1.2,0.6-1.2,1.3
			c0,0.7,0.5,1.3,1.2,1.3h3.1c-0.5,0.1-1,0.6-1,1.3c0,0.7,0.5,1.3,1.2,1.3h4.5c0.7,0,1.2-0.6,1.2-1.3s-0.5-1.3-1.2-1.3h-3.1
			c0.5-0.1,1-0.6,1-1.3c0-0.6-0.4-1.1-1-1.3h3.1C379.2,653.7,379.7,653.1,379.7,652.3z"/>
		<path fill="#FFFFFF" d="M379.7,641.8c0-0.7-0.5-1.3-1.2-1.3h-3.1c0.5-0.1,1-0.6,1-1.3c0-0.7-0.5-1.3-1.2-1.3h-4.5
			c-0.7,0-1.2,0.6-1.2,1.3s0.5,1.3,1.2,1.3h3.1c-0.5,0.1-1,0.6-1,1.3c0,0.6,0.4,1.1,0.9,1.3h-3.1c-0.7,0-1.2,0.6-1.2,1.3
			c0,0.7,0.5,1.3,1.2,1.3h3.1c-0.5,0.1-1,0.6-1,1.3c0,0.7,0.5,1.3,1.2,1.3h4.5c0.7,0,1.2-0.6,1.2-1.3c0-0.7-0.5-1.3-1.2-1.3h-3.1
			c0.5-0.1,1-0.6,1-1.3c0-0.6-0.4-1.1-0.9-1.3h3.1C379.2,643.1,379.7,642.5,379.7,641.8z"/>
		<path fill="#FFFFFF" d="M379.7,631.3c0-0.7-0.5-1.3-1.2-1.3h-3.1c0.5-0.1,0.9-0.6,0.9-1.3c0-0.7-0.5-1.3-1.2-1.3h-4.5
			c-0.7,0-1.2,0.6-1.2,1.3c0,0.7,0.5,1.3,1.2,1.3h3.1c-0.5,0.1-0.9,0.6-0.9,1.3c0,0.6,0.4,1.1,0.9,1.3h-3.1c-0.7,0-1.2,0.6-1.2,1.3
			c0,0.7,0.5,1.3,1.2,1.3h3.1c-0.5,0.1-1,0.6-1,1.3c0,0.7,0.5,1.3,1.2,1.3h4.5c0.7,0,1.2-0.6,1.2-1.3c0-0.7-0.5-1.3-1.2-1.3h-3.1
			c0.5-0.1,1-0.6,1-1.3c0-0.6-0.4-1.1-0.9-1.3h3.1C379.2,632.6,379.7,632,379.7,631.3z"/>
		<path fill="#FFFFFF" d="M379.7,620.8c0-0.7-0.5-1.3-1.2-1.3h-3.1c0.5-0.1,1-0.6,1-1.3c0-0.7-0.5-1.3-1.2-1.3h-4.5
			c-0.7,0-1.2,0.6-1.2,1.3c0,0.7,0.5,1.3,1.2,1.3h3.1c-0.5,0.1-1,0.6-1,1.3c0,0.6,0.4,1.2,1,1.3h-3.1c-0.7,0-1.2,0.6-1.2,1.3
			c0,0.7,0.5,1.3,1.2,1.3h3.1c-0.5,0.1-1,0.6-1,1.3c0,0.7,0.5,1.3,1.2,1.3h4.5c0.7,0,1.2-0.6,1.2-1.3c0-0.7-0.5-1.3-1.2-1.3h-3.1
			c0.5-0.1,1-0.6,1-1.3c0-0.6-0.4-1.2-1-1.3h3.1C379.2,622.1,379.7,621.5,379.7,620.8z"/>
		<path fill="#FFFFFF" d="M379.7,610.2c0-0.7-0.5-1.3-1.2-1.3h-3.1c0.5-0.1,1-0.6,1-1.3c0-0.7-0.5-1.3-1.2-1.3h-4.5
			c-0.7,0-1.2,0.6-1.2,1.3c0,0.7,0.5,1.3,1.2,1.3h3.1c-0.5,0.1-1,0.6-1,1.3c0,0.6,0.4,1.2,1,1.3h-3.1c-0.7,0-1.2,0.6-1.2,1.3
			c0,0.7,0.5,1.3,1.2,1.3h3.1c-0.5,0.1-0.9,0.6-0.9,1.3c0,0.7,0.5,1.3,1.2,1.3h4.5c0.7,0,1.2-0.6,1.2-1.3c0-0.7-0.5-1.3-1.2-1.3
			h-3.1c0.5-0.1,0.9-0.6,0.9-1.3c0-0.6-0.4-1.1-1-1.3h3.1C379.2,611.6,379.7,611,379.7,610.2z"/>
		<path fill="#FFFFFF" d="M379.7,599.7c0-0.7-0.5-1.3-1.2-1.3h-3.1c0.5-0.1,0.9-0.6,0.9-1.3c0-0.7-0.5-1.3-1.2-1.3h-4.5
			c-0.7,0-1.2,0.6-1.2,1.3c0,0.7,0.5,1.3,1.2,1.3h3.1c-0.5,0.1-0.9,0.6-0.9,1.3c0,0.6,0.4,1.2,1,1.3h-3.1c-0.7,0-1.2,0.6-1.2,1.3
			c0,0.7,0.5,1.3,1.2,1.3h3.1c-0.5,0.1-0.9,0.6-0.9,1.3c0,0.7,0.5,1.3,1.2,1.3h4.5c0.7,0,1.2-0.6,1.2-1.3c0-0.7-0.5-1.3-1.2-1.3
			h-3.1c0.5-0.1,0.9-0.6,0.9-1.3c0-0.6-0.4-1.1-1-1.3h3.1C379.2,601,379.7,600.4,379.7,599.7z"/>
		<path fill="#FFFFFF" d="M379.7,589.2c0-0.7-0.5-1.3-1.2-1.3h-3.1c0.5-0.1,0.9-0.6,0.9-1.3c0-0.7-0.5-1.3-1.2-1.3h-4.5
			c-0.7,0-1.2,0.6-1.2,1.3c0,0.7,0.5,1.3,1.2,1.3h3.1c-0.5,0.1-0.9,0.6-0.9,1.3c0,0.6,0.4,1.2,1,1.3h-3.1c-0.7,0-1.2,0.6-1.2,1.3
			c0,0.7,0.5,1.3,1.2,1.3h3.1c-0.5,0.1-1,0.6-1,1.3c0,0.7,0.5,1.3,1.2,1.3h4.5c0.7,0,1.2-0.6,1.2-1.3c0-0.7-0.5-1.3-1.2-1.3h-3.1
			c0.5-0.1,1-0.6,1-1.3c0-0.6-0.4-1.2-1-1.3h3.1C379.2,590.5,379.7,589.9,379.7,589.2z"/>
		<path fill="#FFFFFF" d="M379.7,736.6c0-0.7-0.5-1.3-1.2-1.3h-3.1c0.5-0.1,1-0.6,1-1.3c0-0.7-0.5-1.3-1.2-1.3h-4.5
			c-0.7,0-1.2,0.6-1.2,1.3c0,0.7,0.5,1.3,1.2,1.3h3.1c-0.5,0.1-1,0.6-1,1.3c0,0.6,0.4,1.1,0.9,1.3h-3.1c-0.7,0-1.2,0.6-1.2,1.3
			c0,0.7,0.5,1.3,1.2,1.3h3.1c-0.5,0.1-0.9,0.6-0.9,1.3c0,0.7,0.5,1.3,1.1,1.3h-3.3c-0.7,0-1.2,0.6-1.2,1.3c0,0.7,0.5,1.3,1.2,1.3
			h3.1c-0.5,0.1-0.9,0.6-0.9,1.3c0,0.6,0.4,1.1,0.9,1.3h-3.1c-0.7,0-1.2,0.6-1.2,1.3c0,0.7,0.5,1.3,1.2,1.3h3.1
			c-0.5,0.1-1,0.6-1,1.3c0,0.7,0.5,1.3,1.2,1.3h4.5c0.7,0,1.2-0.6,1.2-1.3c0-0.7-0.5-1.3-1.2-1.3h-3.1c0.5-0.1,1-0.6,1-1.3
			c0-0.6-0.4-1.1-0.9-1.3h3.1c0.7,0,1.2-0.6,1.2-1.3s-0.5-1.3-1.2-1.3h-3.1c0.5-0.1,0.9-0.6,0.9-1.3c0-0.7-0.5-1.3-1.1-1.3h3.3
			c0.7,0,1.2-0.6,1.2-1.3s-0.5-1.3-1.2-1.3h-3.1c0.5-0.1,0.9-0.6,0.9-1.3c0-0.6-0.4-1.1-0.9-1.3h3.1
			C379.2,737.9,379.7,737.3,379.7,736.6z"/>
		<path fill="#FFFFFF" d="M379.7,726.1c0-0.7-0.5-1.3-1.2-1.3h-3.1c0.5-0.1,1-0.6,1-1.3c0-0.7-0.5-1.3-1.2-1.3h-4.5
			c-0.7,0-1.2,0.6-1.2,1.3c0,0.7,0.5,1.3,1.2,1.3h3.1c-0.5,0.1-1,0.6-1,1.3c0,0.6,0.4,1.2,1,1.3h-3.1c-0.7,0-1.2,0.6-1.2,1.3
			c0,0.7,0.5,1.3,1.2,1.3h3.1c-0.5,0.1-1,0.6-1,1.3c0,0.7,0.5,1.3,1.2,1.3h4.5c0.7,0,1.2-0.6,1.2-1.3c0-0.7-0.5-1.3-1.2-1.3h-3.1
			c0.5-0.1,1-0.6,1-1.3c0-0.6-0.4-1.2-1-1.3h3.1C379.2,727.4,379.7,726.8,379.7,726.1z"/>
		<path fill="#FFFFFF" d="M379.7,715.6c0-0.7-0.5-1.3-1.2-1.3h-3.1c0.5-0.1,1-0.6,1-1.3c0-0.7-0.5-1.3-1.2-1.3h-4.5
			c-0.7,0-1.2,0.6-1.2,1.3c0,0.7,0.5,1.3,1.2,1.3h3.1c-0.5,0.1-1,0.6-1,1.3c0,0.6,0.4,1.2,1,1.3h-3.1c-0.7,0-1.2,0.6-1.2,1.3
			c0,0.7,0.5,1.3,1.2,1.3h3.1c-0.5,0.1-1,0.6-1,1.3c0,0.7,0.5,1.3,1.2,1.3h4.5c0.7,0,1.2-0.6,1.2-1.3c0-0.7-0.5-1.3-1.2-1.3h-3.1
			c0.5-0.1,1-0.6,1-1.3c0-0.6-0.4-1.2-1-1.3h3.1C379.2,716.9,379.7,716.3,379.7,715.6z"/>
		<path fill="#FFFFFF" d="M379.7,705c0-0.7-0.5-1.3-1.2-1.3h-3.1c0.5-0.1,1-0.6,1-1.3c0-0.7-0.5-1.3-1.2-1.3h-4.5
			c-0.7,0-1.2,0.6-1.2,1.3c0,0.7,0.5,1.3,1.2,1.3h3.1c-0.5,0.1-1,0.6-1,1.3c0,0.6,0.4,1.1,0.9,1.3h-3.1c-0.7,0-1.2,0.6-1.2,1.3
			c0,0.7,0.5,1.3,1.2,1.3h3.1c-0.5,0.1-1,0.6-1,1.3c0,0.7,0.5,1.3,1.2,1.3h4.5c0.7,0,1.2-0.6,1.2-1.3c0-0.7-0.5-1.3-1.2-1.3h-3.1
			c0.5-0.1,1-0.6,1-1.3c0-0.6-0.4-1.1-0.9-1.3h3.1C379.2,706.4,379.7,705.8,379.7,705z"/>
		<path fill="#FFFFFF" d="M379.7,694.5c0-0.7-0.5-1.3-1.2-1.3h-3.1c0.5-0.1,0.9-0.6,0.9-1.3c0-0.7-0.5-1.3-1.2-1.3h-4.5
			c-0.7,0-1.2,0.6-1.2,1.3c0,0.7,0.5,1.3,1.2,1.3h3.1c-0.5,0.1-0.9,0.6-0.9,1.3c0,0.6,0.4,1.2,1,1.3h-3.1c-0.7,0-1.2,0.6-1.2,1.3
			c0,0.7,0.5,1.3,1.2,1.3h3.1c-0.5,0.1-0.9,0.6-0.9,1.3c0,0.7,0.5,1.3,1.2,1.3h4.5c0.7,0,1.2-0.6,1.2-1.3c0-0.7-0.5-1.3-1.2-1.3
			h-3.1c0.5-0.1,0.9-0.6,0.9-1.3c0-0.6-0.4-1.2-1-1.3h3.1C379.2,695.8,379.7,695.2,379.7,694.5z"/>
		<path fill="#FFFFFF" d="M379.7,684c0-0.7-0.5-1.3-1.2-1.3h-3.1c0.5-0.1,1-0.6,1-1.3c0-0.7-0.5-1.3-1.2-1.3h-4.5
			c-0.7,0-1.2,0.6-1.2,1.3c0,0.7,0.5,1.3,1.2,1.3h3.1c-0.5,0.1-1,0.6-1,1.3c0,0.6,0.4,1.1,0.9,1.3h-3.1c-0.7,0-1.2,0.6-1.2,1.3
			s0.5,1.3,1.2,1.3h3.1c-0.5,0.1-1,0.6-1,1.3c0,0.7,0.5,1.3,1.2,1.3h4.5c0.7,0,1.2-0.6,1.2-1.3c0-0.7-0.5-1.3-1.2-1.3h-3.1
			c0.5-0.1,1-0.6,1-1.3c0-0.6-0.4-1.1-0.9-1.3h3.1C379.2,685.3,379.7,684.7,379.7,684z"/>
		<path fill="#FFFFFF" d="M379.7,673.4c0-0.7-0.5-1.3-1.2-1.3h-3.1c0.5-0.1,1-0.6,1-1.3c0-0.7-0.5-1.3-1.2-1.3h-4.5
			c-0.7,0-1.2,0.6-1.2,1.3c0,0.7,0.5,1.3,1.2,1.3h3.1c-0.5,0.1-1,0.6-1,1.3c0,0.6,0.4,1.1,0.9,1.3h-3.1c-0.7,0-1.2,0.6-1.2,1.3
			c0,0.7,0.5,1.3,1.2,1.3h3.1c-0.5,0.1-1,0.6-1,1.3c0,0.7,0.5,1.3,1.2,1.3h4.5c0.7,0,1.2-0.6,1.2-1.3c0-0.7-0.5-1.3-1.2-1.3h-3.1
			c0.5-0.1,1-0.6,1-1.3c0-0.6-0.4-1.1-0.9-1.3h3.1C379.2,674.8,379.7,674.2,379.7,673.4z"/>
		<path fill="#FFFFFF" d="M379.7,662.9c0-0.7-0.5-1.3-1.2-1.3h-3.1c0.5-0.1,1-0.6,1-1.3c0-0.7-0.5-1.3-1.2-1.3h-4.5
			c-0.7,0-1.2,0.6-1.2,1.3c0,0.7,0.5,1.3,1.2,1.3h3.1c-0.5,0.1-1,0.6-1,1.3c0,0.6,0.4,1.2,1,1.3h-3.1c-0.7,0-1.2,0.6-1.2,1.3
			c0,0.7,0.5,1.3,1.2,1.3h3.1c-0.5,0.1-0.9,0.6-0.9,1.3c0,0.7,0.5,1.3,1.2,1.3h4.5c0.7,0,1.2-0.6,1.2-1.3s-0.5-1.3-1.2-1.3h-3.1
			c0.5-0.1,0.9-0.6,0.9-1.3c0-0.6-0.4-1.2-1-1.3h3.1C379.2,664.2,379.7,663.6,379.7,662.9z"/>
		<path fill="#FFFFFF" d="M379.7,484c0-0.7-0.5-1.3-1.2-1.3h-3.1c0.5-0.1,0.9-0.6,0.9-1.3c0-0.7-0.5-1.3-1.2-1.3h-4.5
			c-0.7,0-1.2,0.6-1.2,1.3c0,0.7,0.5,1.3,1.2,1.3h3.1c-0.5,0.1-0.9,0.6-0.9,1.3c0,0.6,0.4,1.2,1,1.3h-3.1c-0.7,0-1.2,0.6-1.2,1.3
			c0,0.7,0.5,1.3,1.2,1.3h3.1c-0.5,0.1-1,0.6-1,1.3c0,0.7,0.5,1.3,1.2,1.3h4.5c0.7,0,1.2-0.6,1.2-1.3c0-0.7-0.5-1.3-1.2-1.3h-3.1
			c0.5-0.1,1-0.6,1-1.3c0-0.6-0.4-1.1-1-1.3h3.1C379.2,485.3,379.7,484.7,379.7,484z"/>
		<path fill="#FFFFFF" d="M379.7,473.5c0-0.7-0.5-1.3-1.2-1.3h-3.1c0.5-0.1,1-0.6,1-1.3c0-0.7-0.5-1.3-1.2-1.3h-4.5
			c-0.7,0-1.2,0.6-1.2,1.3c0,0.7,0.5,1.3,1.2,1.3h3.1c-0.5,0.1-1,0.6-1,1.3c0,0.6,0.4,1.1,0.9,1.3h-3.1c-0.7,0-1.2,0.6-1.2,1.3
			c0,0.7,0.5,1.3,1.2,1.3h3.1c-0.5,0.1-1,0.6-1,1.3c0,0.7,0.5,1.3,1.2,1.3h4.5c0.7,0,1.2-0.6,1.2-1.3c0-0.7-0.5-1.3-1.2-1.3h-3.1
			c0.5-0.1,1-0.6,1-1.3c0-0.6-0.4-1.1-0.9-1.3h3.1C379.2,474.8,379.7,474.2,379.7,473.5z"/>
		<path fill="#FFFFFF" d="M379.7,462.9c0-0.7-0.5-1.3-1.2-1.3h-3.1c0.5-0.1,0.9-0.6,0.9-1.3c0-0.7-0.5-1.3-1.2-1.3h-4.5
			c-0.7,0-1.2,0.6-1.2,1.3s0.5,1.3,1.2,1.3h3.1c-0.5,0.1-0.9,0.6-0.9,1.3c0,0.6,0.4,1.1,0.9,1.3h-3.1c-0.7,0-1.2,0.6-1.2,1.3
			c0,0.7,0.5,1.3,1.2,1.3h3.1c-0.5,0.1-1,0.6-1,1.3c0,0.7,0.5,1.3,1.2,1.3h4.5c0.7,0,1.2-0.6,1.2-1.3c0-0.7-0.5-1.3-1.2-1.3h-3.1
			c0.5-0.1,1-0.6,1-1.3c0-0.6-0.4-1.1-0.9-1.3h3.1C379.2,464.3,379.7,463.7,379.7,462.9z"/>
		<path fill="#FFFFFF" d="M379.7,452.4c0-0.7-0.5-1.3-1.2-1.3h-3.1c0.5-0.1,0.9-0.6,0.9-1.3c0-0.7-0.5-1.3-1.2-1.3h-4.5
			c-0.7,0-1.2,0.6-1.2,1.3c0,0.7,0.5,1.3,1.2,1.3h3.1c-0.5,0.1-0.9,0.6-0.9,1.3c0,0.6,0.4,1.1,0.9,1.3h-3.1c-0.7,0-1.2,0.6-1.2,1.3
			c0,0.7,0.5,1.3,1.2,1.3h3.1c-0.5,0.1-0.9,0.6-0.9,1.3c0,0.7,0.5,1.3,1.2,1.3h4.5c0.7,0,1.2-0.6,1.2-1.3c0-0.7-0.5-1.3-1.2-1.3
			h-3.1c0.5-0.1,0.9-0.6,0.9-1.3c0-0.6-0.4-1.1-0.9-1.3h3.1C379.2,453.7,379.7,453.2,379.7,452.4z"/>
		<path fill="#FFFFFF" d="M379.7,441.9c0-0.7-0.5-1.3-1.2-1.3h-3.1c0.5-0.1,1-0.6,1-1.3c0-0.7-0.5-1.3-1.2-1.3h-4.5
			c-0.7,0-1.2,0.6-1.2,1.3c0,0.7,0.5,1.3,1.2,1.3h3.1c-0.5,0.1-1,0.6-1,1.3c0,0.6,0.4,1.1,0.9,1.3h-3.1c-0.7,0-1.2,0.6-1.2,1.3
			c0,0.7,0.5,1.3,1.2,1.3h3.1c-0.5,0.1-1,0.6-1,1.3c0,0.7,0.5,1.3,1.2,1.3h4.5c0.7,0,1.2-0.6,1.2-1.3s-0.5-1.3-1.2-1.3h-3.1
			c0.5-0.1,1-0.6,1-1.3c0-0.6-0.4-1.1-0.9-1.3h3.1C379.2,443.2,379.7,442.6,379.7,441.9z"/>
		<path fill="#FFFFFF" d="M379.7,431.4c0-0.7-0.5-1.3-1.2-1.3h-3.1c0.5-0.1,0.9-0.6,0.9-1.3c0-0.7-0.5-1.3-1.2-1.3h-4.5
			c-0.7,0-1.2,0.6-1.2,1.3c0,0.7,0.5,1.3,1.2,1.3h3.1c-0.5,0.1-0.9,0.6-0.9,1.3c0,0.6,0.4,1.1,1,1.3h-3.1c-0.7,0-1.2,0.6-1.2,1.3
			c0,0.7,0.5,1.3,1.2,1.3h3.1c-0.5,0.1-0.9,0.6-0.9,1.3c0,0.7,0.5,1.3,1.2,1.3h4.5c0.7,0,1.2-0.6,1.2-1.3c0-0.7-0.5-1.3-1.2-1.3
			h-3.1c0.5-0.1,0.9-0.6,0.9-1.3c0-0.6-0.4-1.2-1-1.3h3.1C379.2,432.7,379.7,432.1,379.7,431.4z"/>
		<path fill="#FFFFFF" d="M379.7,420.8c0-0.7-0.5-1.3-1.2-1.3h-3.1c0.5-0.1,0.9-0.6,0.9-1.3c0-0.7-0.5-1.3-1.2-1.3h-4.5
			c-0.7,0-1.2,0.6-1.2,1.3s0.5,1.3,1.2,1.3h3.1c-0.5,0.1-0.9,0.6-0.9,1.3c0,0.6,0.4,1.1,0.9,1.3h-3.1c-0.7,0-1.2,0.6-1.2,1.3
			c0,0.7,0.5,1.3,1.2,1.3h3.1c-0.5,0.1-0.9,0.6-0.9,1.3c0,0.7,0.5,1.3,1.2,1.3h4.5c0.7,0,1.2-0.6,1.2-1.3c0-0.7-0.5-1.3-1.2-1.3
			h-3.1c0.5-0.1,0.9-0.6,0.9-1.3c0-0.6-0.4-1.1-0.9-1.3h3.1C379.2,422.2,379.7,421.6,379.7,420.8z"/>
		<path fill="#FFFFFF" d="M379.7,568.3c0-0.7-0.5-1.3-1.2-1.3h-3.1c0.5-0.1,1-0.6,1-1.3c0-0.7-0.5-1.3-1.2-1.3h-4.5
			c-0.7,0-1.2,0.6-1.2,1.3c0,0.7,0.5,1.3,1.2,1.3h3.1c-0.5,0.1-1,0.6-1,1.3c0,0.6,0.4,1.2,1,1.3h-3.1c-0.7,0-1.2,0.6-1.2,1.3
			c0,0.7,0.5,1.3,1.2,1.3h3.1c-0.5,0.1-1,0.6-1,1.3c0,0.6,0.3,1,0.8,1.2h-2.9c-0.7,0-1.2,0.6-1.2,1.3c0,0.7,0.5,1.3,1.2,1.3h3.1
			c-0.5,0.1-1,0.6-1,1.3c0,0.6,0.4,1.2,1,1.3h-3.1c-0.7,0-1.2,0.6-1.2,1.3c0,0.7,0.5,1.3,1.2,1.3h3.1c-0.5,0.1-0.9,0.6-0.9,1.3
			c0,0.7,0.5,1.3,1.2,1.3h4.5c0.7,0,1.2-0.6,1.2-1.3c0-0.7-0.5-1.3-1.2-1.3h-3.1c0.5-0.1,0.9-0.6,0.9-1.3c0-0.6-0.4-1.2-1-1.3h3.1
			c0.7,0,1.2-0.6,1.2-1.3c0-0.7-0.5-1.3-1.2-1.3h-3.1c0.5-0.1,1-0.6,1-1.3c0-0.6-0.3-1-0.8-1.2h2.9c0.7,0,1.2-0.6,1.2-1.3
			c0-0.7-0.5-1.3-1.2-1.3h-3.1c0.5-0.1,1-0.6,1-1.3c0-0.6-0.4-1.2-1-1.3h3.1C379.2,569.6,379.7,569,379.7,568.3z"/>
		<path fill="#FFFFFF" d="M379.7,557.8c0-0.7-0.5-1.3-1.2-1.3h-3.1c0.5-0.1,1-0.6,1-1.3c0-0.7-0.5-1.3-1.2-1.3h-4.5
			c-0.7,0-1.2,0.6-1.2,1.3c0,0.7,0.5,1.3,1.2,1.3h3.1c-0.5,0.1-1,0.6-1,1.3c0,0.6,0.4,1.1,0.9,1.3h-3.1c-0.7,0-1.2,0.6-1.2,1.3
			c0,0.7,0.5,1.3,1.2,1.3h3.1c-0.5,0.1-1,0.6-1,1.3c0,0.7,0.5,1.3,1.2,1.3h4.5c0.7,0,1.2-0.6,1.2-1.3c0-0.7-0.5-1.3-1.2-1.3h-3.1
			c0.5-0.1,1-0.6,1-1.3c0-0.6-0.4-1.1-0.9-1.3h3.1C379.2,559.1,379.7,558.5,379.7,557.8z"/>
		<path fill="#FFFFFF" d="M379.7,547.2c0-0.7-0.5-1.3-1.2-1.3h-3.1c0.5-0.1,0.9-0.6,0.9-1.3c0-0.7-0.5-1.3-1.2-1.3h-4.5
			c-0.7,0-1.2,0.6-1.2,1.3c0,0.7,0.5,1.3,1.2,1.3h3.1c-0.5,0.1-0.9,0.6-0.9,1.3c0,0.6,0.4,1.2,1,1.3h-3.1c-0.7,0-1.2,0.6-1.2,1.3
			c0,0.7,0.5,1.3,1.2,1.3h3.1c-0.5,0.1-0.9,0.6-0.9,1.3c0,0.7,0.5,1.3,1.2,1.3h4.5c0.7,0,1.2-0.6,1.2-1.3c0-0.7-0.5-1.3-1.2-1.3
			h-3.1c0.5-0.1,0.9-0.6,0.9-1.3c0-0.6-0.4-1.2-1-1.3h3.1C379.2,548.6,379.7,548,379.7,547.2z"/>
		<path fill="#FFFFFF" d="M379.7,536.7c0-0.7-0.5-1.3-1.2-1.3h-3.1c0.5-0.1,1-0.6,1-1.3c0-0.7-0.5-1.3-1.2-1.3h-4.5
			c-0.7,0-1.2,0.6-1.2,1.3c0,0.7,0.5,1.3,1.2,1.3h3.1c-0.5,0.1-1,0.6-1,1.3c0,0.6,0.4,1.1,1,1.3h-3.1c-0.7,0-1.2,0.6-1.2,1.3
			c0,0.7,0.5,1.3,1.2,1.3h3.1c-0.5,0.1-1,0.6-1,1.3c0,0.7,0.5,1.3,1.2,1.3h4.5c0.7,0,1.2-0.6,1.2-1.3c0-0.7-0.5-1.3-1.2-1.3h-3.1
			c0.5-0.1,1-0.6,1-1.3c0-0.6-0.4-1.2-1-1.3h3.1C379.2,538,379.7,537.4,379.7,536.7z"/>
		<path fill="#FFFFFF" d="M379.7,526.2c0-0.7-0.5-1.3-1.2-1.3h-3.1c0.5-0.1,0.9-0.6,0.9-1.3c0-0.7-0.5-1.3-1.2-1.3h-4.5
			c-0.7,0-1.2,0.6-1.2,1.3c0,0.7,0.5,1.3,1.2,1.3h3.1c-0.5,0.1-0.9,0.6-0.9,1.3c0,0.6,0.4,1.2,1,1.3h-3.1c-0.7,0-1.2,0.6-1.2,1.3
			s0.5,1.3,1.2,1.3h3.1c-0.5,0.1-1,0.6-1,1.3c0,0.7,0.5,1.3,1.2,1.3h4.5c0.7,0,1.2-0.6,1.2-1.3c0-0.7-0.5-1.3-1.2-1.3h-3.1
			c0.5-0.1,1-0.6,1-1.3c0-0.6-0.4-1.2-1-1.3h3.1C379.2,527.5,379.7,526.9,379.7,526.2z"/>
		<path fill="#FFFFFF" d="M379.7,515.6c0-0.7-0.5-1.3-1.2-1.3h-3.1c0.5-0.1,0.9-0.6,0.9-1.3c0-0.7-0.5-1.3-1.2-1.3h-4.5
			c-0.7,0-1.2,0.6-1.2,1.3c0,0.7,0.5,1.3,1.2,1.3h3.1c-0.5,0.1-0.9,0.6-0.9,1.3c0,0.6,0.4,1.2,1,1.3h-3.1c-0.7,0-1.2,0.6-1.2,1.3
			c0,0.7,0.5,1.3,1.2,1.3h3.1c-0.5,0.1-0.9,0.6-0.9,1.3c0,0.7,0.5,1.3,1.2,1.3h4.5c0.7,0,1.2-0.6,1.2-1.3c0-0.7-0.5-1.3-1.2-1.3
			h-3.1c0.5-0.1,0.9-0.6,0.9-1.3c0-0.6-0.4-1.2-1-1.3h3.1C379.2,517,379.7,516.4,379.7,515.6z"/>
		<path fill="#FFFFFF" d="M379.7,505.1c0-0.7-0.5-1.3-1.2-1.3h-3.1c0.5-0.1,1-0.6,1-1.3c0-0.7-0.5-1.3-1.2-1.3h-4.5
			c-0.7,0-1.2,0.6-1.2,1.3c0,0.7,0.5,1.3,1.2,1.3h3.1c-0.5,0.1-1,0.6-1,1.3c0,0.6,0.4,1.1,0.9,1.3h-3.1c-0.7,0-1.2,0.6-1.2,1.3
			c0,0.7,0.5,1.3,1.2,1.3h3.1c-0.5,0.1-1,0.6-1,1.3c0,0.7,0.5,1.3,1.2,1.3h4.5c0.7,0,1.2-0.6,1.2-1.3c0-0.7-0.5-1.3-1.2-1.3h-3.1
			c0.5-0.1,1-0.6,1-1.3c0-0.6-0.4-1.1-0.9-1.3h3.1C379.2,506.4,379.7,505.8,379.7,505.1z"/>
		<path fill="#FFFFFF" d="M379.7,494.6c0-0.7-0.5-1.3-1.2-1.3h-3.1c0.5-0.1,1-0.6,1-1.3c0-0.7-0.5-1.3-1.2-1.3h-4.5
			c-0.7,0-1.2,0.6-1.2,1.3c0,0.7,0.5,1.3,1.2,1.3h3.1c-0.5,0.1-1,0.6-1,1.3c0,0.6,0.4,1.1,1,1.3h-3.1c-0.7,0-1.2,0.6-1.2,1.3
			c0,0.7,0.5,1.3,1.2,1.3h3.1c-0.5,0.1-1,0.6-1,1.3c0,0.7,0.5,1.3,1.2,1.3h4.5c0.7,0,1.2-0.6,1.2-1.3s-0.5-1.3-1.2-1.3h-3.1
			c0.5-0.1,1-0.6,1-1.3c0-0.6-0.4-1.2-1-1.3h3.1C379.2,495.9,379.7,495.3,379.7,494.6z"/>
		<path fill="#FFFFFF" d="M379.7,315.6c0-0.7-0.5-1.3-1.2-1.3h-3.1c0.5-0.1,1-0.6,1-1.3c0-0.7-0.5-1.3-1.2-1.3h-4.5
			c-0.7,0-1.2,0.6-1.2,1.3c0,0.7,0.5,1.3,1.2,1.3h3.1c-0.5,0.1-1,0.6-1,1.3c0,0.6,0.4,1.2,1,1.3h-3.1c-0.7,0-1.2,0.6-1.2,1.3
			c0,0.7,0.5,1.3,1.2,1.3h3.1c-0.5,0.1-1,0.6-1,1.3c0,0.7,0.5,1.3,1.2,1.3h4.5c0.7,0,1.2-0.6,1.2-1.3c0-0.7-0.5-1.3-1.2-1.3h-3.1
			c0.5-0.1,1-0.6,1-1.3c0-0.6-0.4-1.2-1-1.3h3.1C379.2,316.9,379.7,316.3,379.7,315.6z"/>
		<path fill="#FFFFFF" d="M379.7,305.1c0-0.7-0.5-1.3-1.2-1.3h-3.1c0.5-0.1,1-0.6,1-1.3c0-0.7-0.5-1.3-1.2-1.3h-4.5
			c-0.7,0-1.2,0.6-1.2,1.3c0,0.7,0.5,1.3,1.2,1.3h3.1c-0.5,0.1-1,0.6-1,1.3c0,0.6,0.4,1.1,0.9,1.3h-3.1c-0.7,0-1.2,0.6-1.2,1.3
			c0,0.7,0.5,1.3,1.2,1.3h3.1c-0.5,0.1-1,0.6-1,1.3c0,0.7,0.5,1.3,1.2,1.3h4.5c0.7,0,1.2-0.6,1.2-1.3c0-0.7-0.5-1.3-1.2-1.3h-3.1
			c0.5-0.1,1-0.6,1-1.3c0-0.6-0.4-1.1-0.9-1.3h3.1C379.2,306.4,379.7,305.8,379.7,305.1z"/>
		<path fill="#FFFFFF" d="M379.7,294.5c0-0.7-0.5-1.3-1.2-1.3h-3.1c0.5-0.1,0.9-0.6,0.9-1.3c0-0.7-0.5-1.3-1.2-1.3h-4.5
			c-0.7,0-1.2,0.6-1.2,1.3c0,0.7,0.5,1.3,1.2,1.3h3.1c-0.5,0.1-0.9,0.6-0.9,1.3c0,0.6,0.4,1.1,0.9,1.3h-3.1c-0.7,0-1.2,0.6-1.2,1.3
			c0,0.7,0.5,1.3,1.2,1.3h3.1c-0.5,0.1-0.9,0.6-0.9,1.3c0,0.7,0.5,1.3,1.2,1.3h4.5c0.7,0,1.2-0.6,1.2-1.3c0-0.7-0.5-1.3-1.2-1.3
			h-3.1c0.5-0.1,0.9-0.6,0.9-1.3c0-0.6-0.4-1.1-0.9-1.3h3.1C379.2,295.9,379.7,295.3,379.7,294.5z"/>
		<path fill="#FFFFFF" d="M379.7,284c0-0.7-0.5-1.3-1.2-1.3h-3.1c0.5-0.1,1-0.6,1-1.3c0-0.7-0.5-1.3-1.2-1.3h-4.5
			c-0.7,0-1.2,0.6-1.2,1.3s0.5,1.3,1.2,1.3h3.1c-0.5,0.1-1,0.6-1,1.3c0,0.6,0.4,1.1,1,1.3h-3.1c-0.7,0-1.2,0.6-1.2,1.3
			c0,0.7,0.5,1.3,1.2,1.3h3.1c-0.5,0.1-1,0.6-1,1.3c0,0.7,0.5,1.3,1.2,1.3h4.5c0.7,0,1.2-0.6,1.2-1.3c0-0.7-0.5-1.3-1.2-1.3h-3.1
			c0.5-0.1,1-0.6,1-1.3c0-0.6-0.4-1.2-1-1.3h3.1C379.2,285.3,379.7,284.7,379.7,284z"/>
		<path fill="#FFFFFF" d="M379.7,273.5c0-0.7-0.5-1.3-1.2-1.3h-3.1c0.5-0.1,1-0.6,1-1.3c0-0.7-0.5-1.3-1.2-1.3h-4.5
			c-0.7,0-1.2,0.6-1.2,1.3c0,0.7,0.5,1.3,1.2,1.3h3.1c-0.5,0.1-1,0.6-1,1.3c0,0.6,0.4,1.2,1,1.3h-3.1c-0.7,0-1.2,0.6-1.2,1.3
			c0,0.7,0.5,1.3,1.2,1.3h3.1c-0.5,0.1-0.9,0.6-0.9,1.3c0,0.7,0.5,1.3,1.2,1.3h4.5c0.7,0,1.2-0.6,1.2-1.3c0-0.7-0.5-1.3-1.2-1.3
			h-3.1c0.5-0.1,0.9-0.6,0.9-1.3c0-0.6-0.4-1.2-1-1.3h3.1C379.2,274.8,379.7,274.2,379.7,273.5z"/>
		<path fill="#FFFFFF" d="M379.7,262.9c0-0.7-0.5-1.3-1.2-1.3h-3.1c0.5-0.1,0.9-0.6,0.9-1.3c0-0.7-0.5-1.3-1.2-1.3h-4.5
			c-0.7,0-1.2,0.6-1.2,1.3c0,0.7,0.5,1.3,1.2,1.3h3.1c-0.5,0.1-0.9,0.6-0.9,1.3c0,0.6,0.4,1.2,1,1.3h-3.1c-0.7,0-1.2,0.6-1.2,1.3
			c0,0.7,0.5,1.3,1.2,1.3h3.1c-0.5,0.1-0.9,0.6-0.9,1.3c0,0.7,0.5,1.3,1.2,1.3h4.5c0.7,0,1.2-0.6,1.2-1.3c0-0.7-0.5-1.3-1.2-1.3
			h-3.1c0.5-0.1,0.9-0.6,0.9-1.3c0-0.6-0.4-1.1-1-1.3h3.1C379.2,264.3,379.7,263.7,379.7,262.9z"/>
		<path fill="#FFFFFF" d="M379.7,252.4c0-0.7-0.5-1.3-1.2-1.3h-3.1c0.5-0.1,0.9-0.6,0.9-1.3c0-0.7-0.5-1.3-1.2-1.3h-4.5
			c-0.7,0-1.2,0.6-1.2,1.3c0,0.7,0.5,1.3,1.2,1.3h3.1c-0.5,0.1-0.9,0.6-0.9,1.3c0,0.6,0.4,1.2,1,1.3h-3.1c-0.7,0-1.2,0.6-1.2,1.3
			c0,0.7,0.5,1.3,1.2,1.3h3.1c-0.5,0.1-1,0.6-1,1.3c0,0.7,0.5,1.3,1.2,1.3h4.5c0.7,0,1.2-0.6,1.2-1.3c0-0.7-0.5-1.3-1.2-1.3h-3.1
			c0.5-0.1,1-0.6,1-1.3c0-0.6-0.4-1.1-1-1.3h3.1C379.2,253.7,379.7,253.1,379.7,252.4z"/>
		<path fill="#FFFFFF" d="M378.5,245.8h-3.1c0.5-0.1,0.9-0.6,0.9-1.3c0-0.6-0.4-1.1-0.9-1.3h3.1c0.7,0,1.2-0.6,1.2-1.3
			c0-0.7-0.5-1.3-1.2-1.3h-3.1c0.5-0.1,1-0.6,1-1.3c0-0.7-0.5-1.3-1.2-1.3h-4.5c-0.7,0-1.2,0.6-1.2,1.3c0,0.7,0.5,1.3,1.2,1.3h3.1
			c-0.5,0.1-1,0.6-1,1.3c0,0.6,0.4,1.1,0.9,1.3h-3.1c-0.7,0-1.2,0.6-1.2,1.3c0,0.7,0.5,1.3,1.2,1.3h3.1c-0.5,0.1-0.9,0.6-0.9,1.3
			c0,0.7,0.5,1.3,1.2,1.3h4.5c0.7,0,1.2-0.6,1.2-1.3C379.7,246.4,379.2,245.8,378.5,245.8z"/>
		<path fill="#FFFFFF" d="M379.7,399.9c0-0.7-0.5-1.3-1.2-1.3h-3.1c0.5-0.1,1-0.6,1-1.3c0-0.7-0.5-1.3-1.2-1.3h-4.5
			c-0.7,0-1.2,0.6-1.2,1.3c0,0.7,0.5,1.3,1.2,1.3h3.1c-0.5,0.1-1,0.6-1,1.3c0,0.6,0.4,1.1,0.9,1.3h-3.1c-0.7,0-1.2,0.6-1.2,1.3
			c0,0.7,0.5,1.3,1.2,1.3h3.1c-0.5,0.1-0.9,0.6-0.9,1.3c0,0.7,0.5,1.3,1.1,1.3h-3.3c-0.7,0-1.2,0.6-1.2,1.3c0,0.7,0.5,1.3,1.2,1.3
			h3.1c-0.5,0.1-0.9,0.6-0.9,1.3c0,0.6,0.4,1.1,0.9,1.3h-3.1c-0.7,0-1.2,0.6-1.2,1.3c0,0.7,0.5,1.3,1.2,1.3h3.1
			c-0.5,0.1-1,0.6-1,1.3c0,0.7,0.5,1.3,1.2,1.3h4.5c0.7,0,1.2-0.6,1.2-1.3c0-0.7-0.5-1.3-1.2-1.3h-3.1c0.5-0.1,1-0.6,1-1.3
			c0-0.6-0.4-1.1-0.9-1.3h3.1c0.7,0,1.2-0.6,1.2-1.3c0-0.7-0.5-1.3-1.2-1.3h-3.1c0.5-0.1,0.9-0.6,0.9-1.3c0-0.7-0.5-1.3-1.1-1.3h3.3
			c0.7,0,1.2-0.6,1.2-1.3c0-0.7-0.5-1.3-1.2-1.3h-3.1c0.5-0.1,0.9-0.6,0.9-1.3c0-0.6-0.4-1.1-0.9-1.3h3.1
			C379.2,401.2,379.7,400.6,379.7,399.9z"/>
		<path fill="#FFFFFF" d="M379.7,389.3c0-0.7-0.5-1.3-1.2-1.3h-3.1c0.5-0.1,1-0.6,1-1.3c0-0.7-0.5-1.3-1.2-1.3h-4.5
			c-0.7,0-1.2,0.6-1.2,1.3c0,0.7,0.5,1.3,1.2,1.3h3.1c-0.5,0.1-1,0.6-1,1.3c0,0.6,0.4,1.2,1,1.3h-3.1c-0.7,0-1.2,0.6-1.2,1.3
			c0,0.7,0.5,1.3,1.2,1.3h3.1c-0.5,0.1-1,0.6-1,1.3c0,0.7,0.5,1.3,1.2,1.3h4.5c0.7,0,1.2-0.6,1.2-1.3c0-0.7-0.5-1.3-1.2-1.3h-3.1
			c0.5-0.1,1-0.6,1-1.3c0-0.6-0.4-1.2-1-1.3h3.1C379.2,390.7,379.7,390.1,379.7,389.3z"/>
		<path fill="#FFFFFF" d="M379.7,378.8c0-0.7-0.5-1.3-1.2-1.3h-3.1c0.5-0.1,0.9-0.6,0.9-1.3c0-0.7-0.5-1.3-1.2-1.3h-4.5
			c-0.7,0-1.2,0.6-1.2,1.3c0,0.7,0.5,1.3,1.2,1.3h3.1c-0.5,0.1-0.9,0.6-0.9,1.3c0,0.6,0.4,1.1,0.9,1.3h-3.1c-0.7,0-1.2,0.6-1.2,1.3
			c0,0.7,0.5,1.3,1.2,1.3h3.1c-0.5,0.1-1,0.6-1,1.3c0,0.7,0.5,1.3,1.2,1.3h4.5c0.7,0,1.2-0.6,1.2-1.3c0-0.7-0.5-1.3-1.2-1.3h-3.1
			c0.5-0.1,1-0.6,1-1.3c0-0.6-0.4-1.1-0.9-1.3h3.1C379.2,380.1,379.7,379.5,379.7,378.8z"/>
		<path fill="#FFFFFF" d="M379.7,368.3c0-0.7-0.5-1.3-1.2-1.3h-3.1c0.5-0.1,1-0.6,1-1.3c0-0.7-0.5-1.3-1.2-1.3h-4.5
			c-0.7,0-1.2,0.6-1.2,1.3c0,0.7,0.5,1.3,1.2,1.3h3.1c-0.5,0.1-1,0.6-1,1.3c0,0.6,0.4,1.1,0.9,1.3h-3.1c-0.7,0-1.2,0.6-1.2,1.3
			c0,0.7,0.5,1.3,1.2,1.3h3.1c-0.5,0.1-1,0.6-1,1.3c0,0.7,0.5,1.3,1.2,1.3h4.5c0.7,0,1.2-0.6,1.2-1.3c0-0.7-0.5-1.3-1.2-1.3h-3.1
			c0.5-0.1,1-0.6,1-1.3c0-0.6-0.4-1.1-0.9-1.3h3.1C379.2,369.6,379.7,369,379.7,368.3z"/>
		<path fill="#FFFFFF" d="M379.7,357.8c0-0.7-0.5-1.3-1.2-1.3h-3.1c0.5-0.1,0.9-0.6,0.9-1.3c0-0.7-0.5-1.3-1.2-1.3h-4.5
			c-0.7,0-1.2,0.6-1.2,1.3c0,0.7,0.5,1.3,1.2,1.3h3.1c-0.5,0.1-0.9,0.6-0.9,1.3c0,0.6,0.4,1.2,1,1.3h-3.1c-0.7,0-1.2,0.6-1.2,1.3
			c0,0.7,0.5,1.3,1.2,1.3h3.1c-0.5,0.1-0.9,0.6-0.9,1.3c0,0.7,0.5,1.3,1.2,1.3h4.5c0.7,0,1.2-0.6,1.2-1.3c0-0.7-0.5-1.3-1.2-1.3
			h-3.1c0.5-0.1,0.9-0.6,0.9-1.3c0-0.6-0.4-1.2-1-1.3h3.1C379.2,359.1,379.7,358.5,379.7,357.8z"/>
		<path fill="#FFFFFF" d="M379.7,347.2c0-0.7-0.5-1.3-1.2-1.3h-3.1c0.5-0.1,1-0.6,1-1.3c0-0.7-0.5-1.3-1.2-1.3h-4.5
			c-0.7,0-1.2,0.6-1.2,1.3c0,0.7,0.5,1.3,1.2,1.3h3.1c-0.5,0.1-1,0.6-1,1.3c0,0.6,0.4,1.1,0.9,1.3h-3.1c-0.7,0-1.2,0.6-1.2,1.3
			c0,0.7,0.5,1.3,1.2,1.3h3.1c-0.5,0.1-0.9,0.6-0.9,1.3c0,0.7,0.5,1.3,1.2,1.3h4.5c0.7,0,1.2-0.6,1.2-1.3c0-0.7-0.5-1.3-1.2-1.3
			h-3.1c0.5-0.1,0.9-0.6,0.9-1.3c0-0.6-0.4-1.1-0.9-1.3h3.1C379.2,348.6,379.7,348,379.7,347.2z"/>
		<path fill="#FFFFFF" d="M379.7,336.7c0-0.7-0.5-1.3-1.2-1.3h-3.1c0.5-0.1,1-0.6,1-1.3c0-0.7-0.5-1.3-1.2-1.3h-4.5
			c-0.7,0-1.2,0.6-1.2,1.3c0,0.7,0.5,1.3,1.2,1.3h3.1c-0.5,0.1-1,0.6-1,1.3c0,0.6,0.4,1.1,0.9,1.3h-3.1c-0.7,0-1.2,0.6-1.2,1.3
			c0,0.7,0.5,1.3,1.2,1.3h3.1c-0.5,0.1-1,0.6-1,1.3c0,0.7,0.5,1.3,1.2,1.3h4.5c0.7,0,1.2-0.6,1.2-1.3c0-0.7-0.5-1.3-1.2-1.3h-3.1
			c0.5-0.1,1-0.6,1-1.3c0-0.6-0.4-1.1-0.9-1.3h3.1C379.2,338,379.7,337.4,379.7,336.7z"/>
		<path fill="#FFFFFF" d="M379.7,326.2c0-0.7-0.5-1.3-1.2-1.3h-3.1c0.5-0.1,0.9-0.6,0.9-1.3c0-0.7-0.5-1.3-1.2-1.3h-4.5
			c-0.7,0-1.2,0.6-1.2,1.3c0,0.7,0.5,1.3,1.2,1.3h3.1c-0.5,0.1-0.9,0.6-0.9,1.3c0,0.6,0.4,1.2,1,1.3h-3.1c-0.7,0-1.2,0.6-1.2,1.3
			c0,0.7,0.5,1.3,1.2,1.3h3.1c-0.5,0.1-0.9,0.6-0.9,1.3c0,0.7,0.5,1.3,1.2,1.3h4.5c0.7,0,1.2-0.6,1.2-1.3c0-0.7-0.5-1.3-1.2-1.3
			h-3.1c0.5-0.1,0.9-0.6,0.9-1.3c0-0.6-0.4-1.2-1-1.3h3.1C379.2,327.5,379.7,326.9,379.7,326.2z"/>
	</g>-->
	<g>
		<path fill="#FFFFFF" d="M380.7,214.5c0-1.5-0.5-2.9-2.7-3.6c-0.3-0.2-1.1-0.4-3-0.4c-0.1,0-0.2,0-0.2,0c-0.1,0-0.1,0-0.2,0
			c-1.9,0-2.7,0.2-3,0.4c-2.3,0.7-2.7,2.1-2.7,3.6c0,2,2.1,6.6,2.1,6.6l3.6,2.2l0,0.3l0.2-0.1l0.2,0.1l0-0.3l3.6-2.2
			C378.6,221.1,380.7,216.5,380.7,214.5z"/>
		<path fill="#FFFFFF" d="M378.6,217.3l-3.1,0l0,0l-0.7,0l-0.7,0l0,0l-3.1,0l-0.7,20.4c0,0,0.4,0.2,1.7,0.6c1.1,0.4,2.5,0.3,2.8,0.3
			c0.3,0,1.6,0,2.8-0.3c1.3-0.4,1.7-0.6,1.7-0.6L378.6,217.3z"/>
	</g>
</g>
<path fill="none" d="M380.7,214.5c0-1.5-0.5-2.9-2.7-3.6c-0.3-0.2-1.1-0.4-3-0.4c-0.1,0-0.2,0-0.2,0c-0.1,0-0.1,0-0.2,0
	c-1.9,0-2.7,0.2-3,0.4c-2.3,0.7-2.7,2.1-2.7,3.6c0,1.9,1.7,5.8,2,6.4l-0.6,16.7c0,0,0.4,0.2,1.7,0.6c1.1,0.4,2.5,0.3,2.8,0.3
	c0.3,0,1.6,0,2.8-0.3c1.3-0.4,1.7-0.6,1.7-0.6l-0.6-16.7C379,220.3,380.7,216.4,380.7,214.5z"/>
<g>
	<g>
		
			<image style="overflow:visible;opacity:0.2;" width="308" height="219" xlink:href="/SVG/WSJR24/61F16F96.png"  transform="matrix(1 0 0 1 221 24.881)">
		</image>
		<g id="COLLAR">
			<path  fill="#004D86" d="M509.2,127.4c-1.9-9.3-5.1-21-5.5-22.6c-0.4-1.6-17.1-21.4-20.3-26.5c-3.1-5.1-20.3-27.3-24.2-29.6
				c-3.9-2.3-17.6-2.3-30.5-1.1c-12.9,1.2-45-0.1-63.3-0.5c-18.3-0.4-33-0.5-43.6-3.2c-10.5-2.7-23.9-4.8-32.1-0.5
				c-8.2,4.3-26.3,29.5-31.8,41.2c-5.5,11.7-18.8,41.3-20.4,49.5c-1.6,8.2,0.8,41.7,0.4,47.9c-0.4,6.2,4.3,16,4.3,16
				s50.2-20.6,76-23.8c25.7-3.1,45,36.1,45,36.1l7.4,14.9l0.1-4.3c-0.3-0.6-2-4.6-2-6.4c0-1.5,0.5-2.9,2.7-3.6
				c0.3-0.2,1.1-0.4,3-0.4c0.1,0,0.2,0,0.2,0c0.1,0,0.1,0,0.2,0c1.9,0,2.7,0.2,3,0.4c2.3,0.7,2.7,2.1,2.7,3.6c0,1.9-1.7,5.8-2,6.4
				l0.2,7.3l0.7-0.3c0,0,28.2-45.6,41.5-47.1c13.2-1.6,28.4,2.3,52.2,12.9c23.8,10.5,34.3,18.7,34.3,18.7s5.8-29.6,5.8-40.5
				S511.1,136.8,509.2,127.4z"/>
			<path fill="none" stroke="#897F76" stroke-width=" 0.5" stroke-miterlimit="10" d="M509.2,127.4c-1.9-9.3-5.1-21-5.5-22.6c-0.4-1.6-17.1-21.4-20.3-26.5c-3.1-5.1-20.3-27.3-24.2-29.6
				c-3.9-2.3-17.6-2.3-30.5-1.1c-12.9,1.2-45-0.1-63.3-0.5c-18.3-0.4-33-0.5-43.6-3.2c-10.5-2.7-23.9-4.8-32.1-0.5
				c-8.2,4.3-26.3,29.5-31.8,41.2c-5.5,11.7-18.8,41.3-20.4,49.5c-1.6,8.2,0.8,41.7,0.4,47.9c-0.4,6.2,4.3,16,4.3,16
				s50.2-20.6,76-23.8c25.7-3.1,45,36.1,45,36.1l7.4,14.9l0.1-4.3c-0.3-0.6-2-4.6-2-6.4c0-1.5,0.5-2.9,2.7-3.6
				c0.3-0.2,1.1-0.4,3-0.4c0.1,0,0.2,0,0.2,0c0.1,0,0.1,0,0.2,0c1.9,0,2.7,0.2,3,0.4c2.3,0.7,2.7,2.1,2.7,3.6c0,1.9-1.7,5.8-2,6.4
				l0.2,7.3l0.7-0.3c0,0,28.2-45.6,41.5-47.1c13.2-1.6,28.4,2.3,52.2,12.9c23.8,10.5,34.3,18.7,34.3,18.7s5.8-29.6,5.8-40.5
				S511.1,136.8,509.2,127.4z"/>
		</g>
	</g>
</g>
<g>
	<g>
		<g>
			<rect x="184.3" y="876.3" transform="matrix(1 -3.906220e-03 3.906220e-03 1 -3.4226 0.7298)" width="1.7" height="0.6"/>
		</g>
		<g>
			<path d="M329.5,877.1H329v-0.6l3.4,0l0,0.6L329.5,877.1z M327.3,877.1l-3.4,0l0-0.6l3.3,0l0.1,0.3L327.3,877.1z M334.1,877l0-0.6
				l3.4,0l0,0.6L334.1,877z M322.3,877l-3.4,0l0-0.6l3.4,0L322.3,877z M339.1,877l0-0.6l3.4,0l0,0.6L339.1,877z M317.2,877l-3.4,0
				l0-0.6l3.4,0L317.2,877z M344.2,877l0-0.6l3.4,0l0,0.6L344.2,877z M312.2,877l-3.4,0l0-0.6l3.4,0L312.2,877z M349.2,877l0-0.6
				c1.2,0,2.3,0,3.4,0l0,0.6C351.5,876.9,350.4,877,349.2,877z M307.1,877l-3.4,0l0-0.6l3.4,0L307.1,877z M302.1,876.9l-3.4,0l0-0.6
				l3.4,0L302.1,876.9z M354.3,876.9l0-0.6c1.2,0,2.3,0,3.4,0l0,0.6C356.6,876.9,355.4,876.9,354.3,876.9z M297,876.9l-3.4,0l0-0.6
				l3.4,0L297,876.9z M292,876.9l-3.4,0l0-0.6l3.4,0L292,876.9z M359.3,876.8l0-0.6c1.2,0,2.3,0,3.4-0.1l0,0.6
				C361.6,876.8,360.5,876.8,359.3,876.8z M286.9,876.8l-3.4,0l0-0.6l3.4,0L286.9,876.8z M187.6,876.8l0-0.6l3.4,0l0,0.6
				L187.6,876.8z M281.9,876.8l-3.4,0l0-0.6l3.4,0L281.9,876.8z M192.7,876.8l0-0.6l3.4,0l0,0.6L192.7,876.8z M276.9,876.8l-3.4,0
				l0-0.6l3.4,0L276.9,876.8z M197.7,876.8l0-0.6l3.4,0l0,0.6L197.7,876.8z M271.8,876.8l-3.4,0l0-0.6l3.4,0L271.8,876.8z
				 M202.8,876.8l0-0.6l3.4,0l0,0.6L202.8,876.8z M207.8,876.8l0-0.6l3.4,0l0,0.6L207.8,876.8z M266.7,876.8l-3.4,0l0-0.6l3.4,0
				L266.7,876.8z M213,876.8l-0.1-0.6l3.4,0l0,0.6L213,876.8z M261.7,876.8l-3.4,0l0-0.3l0-0.3l3.4,0L261.7,876.8z M217.9,876.8
				l0-0.6l3.4,0v0.6L217.9,876.8z M256.6,876.8l-3.4,0l0-0.6l3.4,0V876.8z M223,876.8l0-0.6l3.4,0v0.6L223,876.8z M364.4,876.8
				l0-0.6c1.3,0,2.4-0.1,3.4-0.1l0,0.6C366.8,876.7,365.7,876.7,364.4,876.8z M251.6,876.8l-3.4,0l0-0.6l3.4,0V876.8z M228,876.8
				l0-0.6l3.4,0v0.6L228,876.8z M246.6,876.8l-3.4,0v-0.6l3.4,0V876.8z M233.1,876.8v-0.6l3.4,0l0,0.6L233.1,876.8z M241.5,876.8
				h-3.4v-0.6h3.4V876.8z M258.3,876.5v-0.3V876.5z"/>
		</g>
		<g>
			<path d="M369.4,876.6l0-0.6c1.1,0,1.7,0,1.7,0l0,0.6C371.1,876.6,370.5,876.6,369.4,876.6z"/>
		</g>
	</g>
	<g>
		<g>
			<rect x="185.9" y="888.8" transform="matrix(1 -3.906220e-03 3.906220e-03 1 -3.4715 0.7362)" width="1.7" height="0.6"/>
		</g>
		<g>
			<path d="M329.9,889.6h-1.6v-0.6l3.4,0l0,0.6L329.9,889.6z M326.5,889.6l-3.4,0l0-0.6l3.4,0L326.5,889.6z M333.4,889.6l0-0.6
				l3.4,0l0,0.6L333.4,889.6z M321.4,889.6l-3.4,0l0-0.6l3.4,0L321.4,889.6z M338.5,889.6l0-0.6c1.2,0,2.3,0,3.4,0l0,0.6
				C340.8,889.6,339.7,889.6,338.5,889.6z M316.2,889.6l-3.4,0l0-0.6l3.4,0L316.2,889.6z M343.7,889.6l0-0.6c1.2,0,2.3,0,3.4,0
				l0,0.6C346,889.6,344.9,889.6,343.7,889.6z M311.1,889.6l-3.4,0l0-0.6l3.4,0L311.1,889.6z M348.8,889.5l0-0.6l3.4,0l0,0.6
				L348.8,889.5z M305.9,889.5l-3.4,0l0-0.6l3.4,0L305.9,889.5z M354,889.5l0-0.6c1.2,0,2.4,0,3.4-0.1l0,0.6
				C356.3,889.4,355.2,889.5,354,889.5z M300.8,889.5l-3.4,0l0-0.6l3.4,0L300.8,889.5z M295.6,889.4l-3.4,0l0-0.6l3.4,0L295.6,889.4
				z M290.5,889.4l-3.4,0l0-0.6l3.4,0L290.5,889.4z M359.1,889.4l0-0.6c1.2,0,2.4,0,3.4-0.1l0,0.6
				C361.5,889.4,360.3,889.4,359.1,889.4z M285.4,889.4l-3.4,0l0-0.6l3.4,0L285.4,889.4z M189.3,889.4l0-0.6l3.4,0l0,0.6
				L189.3,889.4z M280.2,889.4l-3.4,0l0-0.6l3.4,0L280.2,889.4z M194.4,889.3l0-0.6l3.4,0l0,0.6L194.4,889.3z M199.6,889.3l0-0.6
				l3.4,0l0,0.6L199.6,889.3z M275.1,889.3l-3.4,0l0-0.6l3.4,0L275.1,889.3z M204.7,889.3l0-0.6l3.4,0l0,0.6L204.7,889.3z
				 M269.9,889.3l-3.4,0l0-0.6l3.4,0L269.9,889.3z M209.9,889.3l0-0.6l3.4,0l0,0.6L209.9,889.3z M264.8,889.3l-3.4,0l0-0.6l3.4,0
				L264.8,889.3z M215,889.3l0-0.6l3.4,0v0.6L215,889.3z M259.6,889.3l-3.4,0l0-0.3l0-0.3l3.4,0L259.6,889.3z M220.2,889.3l-0.1-0.6
				l3.4,0l0,0.6L220.2,889.3z M364.3,889.3l0-0.6c1.3,0,2.5-0.1,3.4-0.1l0,0.6C366.7,889.2,365.6,889.3,364.3,889.3z M225.3,889.3
				v-0.6l3.4,0l0,0.6L225.3,889.3z M254.5,889.3l-3.4,0l0-0.6l3.4,0V889.3z M230.5,889.3l0-0.6l3.4,0v0.6L230.5,889.3z M249.3,889.3
				l-3.4,0v-0.6l3.4,0V889.3z M235.6,889.3v-0.6l3.4,0l0,0.6L235.6,889.3z M244.2,889.3h-3.4v-0.6h3.4V889.3z M256.2,889v-0.3V889z"
				/>
		</g>
		<g>
			<path d="M369.4,889.2l0-0.6c1.1,0,1.7-0.1,1.7-0.1l0,0.6C371.1,889.1,370.5,889.1,369.4,889.2z"/>
		</g>
	</g>
	<g>
		<g>
			<polygon points="383.9,876.6 382.2,876.6 382.2,876 383.9,876 			"/>
		</g>
		<g>
			<path d="M531.8,878.4c-0.5,0-0.9,0-1.3,0l-0.3,0l0-0.6l0.3,0c0.8,0,1.8,0,3.1,0l0,0.6C532.9,878.4,532.3,878.4,531.8,878.4z
				 M528.4,878.3c-0.9,0-2.1,0-3.5-0.1l0-0.6c1.4,0,2.5,0,3.5,0.1L528.4,878.3z M535.3,878.3l0-0.6c1,0,2.2-0.1,3.4-0.1l0,0.6
				C537.5,878.2,536.4,878.3,535.3,878.3z M523.2,878.2l-3.5-0.1l0-0.6l3.5,0.1L523.2,878.2z M518.1,878.2l-3.4,0l0-0.6l3.4,0
				L518.1,878.2z M540.5,878.1l0-0.6c1.1-0.1,2.2-0.1,3.4-0.2l0,0.6C542.7,878,541.6,878,540.5,878.1z M512.9,878.1l-3.4,0l0-0.6
				l3.4,0L512.9,878.1z M507.7,878l-3.4,0l0-0.6l3.4,0L507.7,878z M502.6,877.9l-3.4,0l0-0.6l3.4,0L502.6,877.9z M497.4,877.9
				l-3.4,0l0-0.6l3.4,0L497.4,877.9z M492.3,877.8l-3.4,0l0-0.6l3.4,0L492.3,877.8z M545.7,877.8l0-0.6c1.1-0.1,2.3-0.1,3.4-0.2
				l0,0.6C547.9,877.6,546.8,877.7,545.7,877.8z M487.1,877.8l-3.4,0l0-0.6l3.4,0L487.1,877.8z M481.9,877.7l-3.4,0l0-0.6l3.4,0
				L481.9,877.7z M476.8,877.6l-3.4,0l0-0.6l3.4,0L476.8,877.6z M471.6,877.6l-3.4,0l0-0.6l3.4,0L471.6,877.6z M466.5,877.5l-3.4,0
				l0-0.6l3.4,0L466.5,877.5z M461.3,877.5l-3.4,0l0-0.6h0l3.4,0L461.3,877.5z M550.8,877.4l0-0.6c1.1-0.1,2.3-0.2,3.4-0.2l0,0.6
				C553.1,877.3,551.9,877.4,550.8,877.4z M456.1,877.4l-3.4,0l0-0.6l3.4,0L456.1,877.4z M451,877.3l-3.4,0l0-0.6l3.4,0L451,877.3z
				 M445.8,877.3l-3.4,0l0-0.6l3.4,0L445.8,877.3z M440.7,877.2l-3.4,0l0-0.6l3.4,0L440.7,877.2z M435.5,877.2l-3.4,0l0-0.6l3.4,0
				L435.5,877.2z M430.3,877.1l-3.4,0l0-0.6l3.4,0L430.3,877.1z M555.9,877.1l0-0.6l3.4-0.3l0,0.6L555.9,877.1z M425.2,877.1l-3.4,0
				l0-0.6l3.4,0L425.2,877.1z M420,877l-3.4,0l0-0.6l3.4,0L420,877z M414.9,876.9l-3.4,0l0-0.6l3.4,0L414.9,876.9z M409.7,876.9
				l-3.4,0l0-0.6l3.4,0L409.7,876.9z M404.5,876.8l-3.4,0l0-0.6l3.4,0L404.5,876.8z M399.4,876.8l-3.4,0l0-0.6l3.4,0L399.4,876.8z
				 M394.2,876.7l-3.4,0l0-0.6l3.4,0L394.2,876.7z M561.1,876.7l0-0.6l3.4-0.3l0,0.6L561.1,876.7z M389,876.7l-3.5,0l0-0.6l3.5,0
				L389,876.7z M566.2,876.3l0-0.6l3.4-0.3l0,0.6L566.2,876.3z M571.4,875.9l0-0.6l3.4-0.3l0,0.6L571.4,875.9z M576.5,875.4l0-0.6
				c1.2-0.1,2.4-0.2,3.4-0.3l0,0.6C578.9,875.2,577.7,875.3,576.5,875.4z M581.7,875l0-0.6l3.4-0.3l0,0.6L581.7,875z"/>
		</g>
		<g>
			<polygon points="586.5,874.6 586.4,874 588.1,873.9 588.2,874.4 			"/>
		</g>
	</g>
	<g>
		<g>
			<polygon points="383.9,888 382.2,888 382.2,887.4 383.9,887.4 			"/>
		</g>
		<g>
			<path d="M532.3,889.8c-0.7,0-1.4,0-1.9,0c-0.3,0-0.7,0-1.2,0l0-0.6c0.5,0,0.9,0,1.2,0c0.5,0,1.1,0,1.9,0l0.3,0l0,0.6L532.3,889.8
				z M534.4,889.8l0-0.6c1,0,2.2,0,3.4-0.1l0,0.6C536.6,889.7,535.4,889.7,534.4,889.8z M527.5,889.7c-1,0-2.1,0-3.4-0.1l0-0.6
				c1.3,0,2.5,0,3.4,0.1L527.5,889.7z M539.5,889.6l0-0.6c1.1,0,2.2-0.1,3.4-0.1l0,0.6C541.7,889.6,540.6,889.6,539.5,889.6z
				 M522.4,889.6l-3.4-0.1l0-0.6l3.4,0.1L522.4,889.6z M517.2,889.5l-3.4,0l0-0.6l3.4,0L517.2,889.5z M544.6,889.4l0-0.6l3.4-0.1
				l0,0.6L544.6,889.4z M512.1,889.4l-3.4,0l0-0.6l3.4,0L512.1,889.4z M507,889.4l-3.4,0l0-0.6l3.4,0L507,889.4z M501.8,889.3
				l-3.4,0l0-0.6l3.4,0L501.8,889.3z M496.7,889.2l-3.4,0l0-0.6l3.4,0L496.7,889.2z M549.8,889.2l0-0.6l3.4-0.2l0,0.6L549.8,889.2z
				 M491.6,889.2l-3.4,0l0-0.6l3.4,0L491.6,889.2z M486.5,889.1l-3.4,0l0-0.6l3.4,0L486.5,889.1z M481.3,889l-3.4,0l0-0.6l3.4,0
				L481.3,889z M554.9,889l0-0.6c1.1-0.1,2.3-0.1,3.4-0.2l0,0.6C557.2,888.9,556,888.9,554.9,889z M476.2,889l-3.4,0l0-0.6l3.4,0
				L476.2,889z M471.1,888.9l-3.4,0l0-0.6l3.4,0L471.1,888.9z M466,888.9l-3.4,0l0-0.6l3.4,0L466,888.9z M460.8,888.8l-3.4,0l0-0.6
				l3.4,0L460.8,888.8z M455.7,888.8l-3.4,0l0-0.6l3.4,0L455.7,888.8z M560,888.7l0-0.6l3.4-0.2l0,0.6L560,888.7z M450.6,888.7
				l-3.4,0l0-0.6l3.4,0L450.6,888.7z M445.4,888.6l-3.4,0l0-0.6l3.4,0L445.4,888.6z M440.3,888.6l-3.4,0l0-0.6l3.4,0L440.3,888.6z
				 M435.2,888.5l-3.4,0l0-0.6l3.4,0L435.2,888.5z M565.2,888.5l0-0.6l3.4-0.2l0,0.6L565.2,888.5z M430.1,888.5l-3.4,0l0-0.6l3.4,0
				L430.1,888.5z M424.9,888.4l-3.4,0l0-0.6l3.4,0L424.9,888.4z M419.8,888.4l-3.4,0l0-0.6l3.4,0L419.8,888.4z M414.7,888.3l-3.4,0
				l0-0.6l3.4,0L414.7,888.3z M409.5,888.2l-3.4,0l0-0.6l3.4,0L409.5,888.2z M570.3,888.2l0-0.6l3.4-0.2l0,0.6L570.3,888.2z
				 M404.4,888.2l-3.4,0l0-0.6l3.4,0L404.4,888.2z M399.3,888.1l-3.4,0l0-0.6l3.4,0L399.3,888.1z M394.1,888.1l-3.4,0l0-0.6l3.4,0
				L394.1,888.1z M389,888l-3.4,0l0-0.6l3.4,0L389,888z M575.4,887.9l0-0.6l3.4-0.2l0,0.6L575.4,887.9z M580.5,887.6l0-0.6l3.4-0.2
				l0,0.6L580.5,887.6z M585.6,887.4l0-0.6l3.4-0.2l0,0.6L585.6,887.4z"/>
		</g>
		<g>
			
				<rect x="590.4" y="886.5" transform="matrix(0.9983 -5.849342e-02 5.849342e-02 0.9983 -50.8567 36.1015)" width="1.7" height="0.6"/>
		</g>
	</g>
</g>
<g>
	<g>
		<g>
			<path d="M280.1,309.2l-0.4,0l-25-0.2c-7.5,0-13.6-6.2-13.5-13.7c0-7.4,5.9-13.3,13.3-13.5l0.4,0l25,0.2c7.5,0,13.6,6.2,13.5,13.7
				C293.3,303,287.5,309,280.1,309.2z M254.4,283.2c-6.6,0.2-11.8,5.5-11.8,12.1c0,6.7,5.4,12.2,12.1,12.2l25.4,0.2
				c6.6-0.2,11.8-5.5,11.8-12.1c0-6.7-5.4-12.2-12.1-12.2L254.4,283.2z"/>
		</g>
		<g>
			<path d="M245.8,295.3c0-5,3.9-9,8.8-9.3l-0.1,18.7C249.7,304.4,245.8,300.3,245.8,295.3z"/>
			<polygon fill-rule="evenodd" clip-rule="evenodd" points="264.3,294.2 256.2,286 264.4,286 			"/>
			<polygon fill-rule="evenodd" clip-rule="evenodd" points="264.3,296.6 256.1,304.7 264.2,304.8 			"/>
		</g>
		<g>
			<polygon fill-rule="evenodd" clip-rule="evenodd" points="274.6,294.3 282.8,286.1 274.6,286.1 			"/>
			<polygon fill-rule="evenodd" clip-rule="evenodd" points="274.5,296.7 282.7,304.9 274.5,304.9 			"/>
			<g>
				<rect x="260" y="292.1" transform="matrix(5.984242e-03 -1 1 5.984242e-03 -27.6231 563.0953)" width="18.8" height="6.8"/>
				<path d="M269.4,295.4"/>
			</g>
		</g>
	</g>
</g>
<path opacity="0.25" d="M362.9,91.9c52.8,2.3,69,4.1,79.4,4.1c2.1,0,6.8-0.2,13.1-0.6c-0.7-15.9-1.9-44.8-1.9-44.8s-26.3,2.5-42.7,2.9
	c-52.2,1.2-93.8-5.8-113-5.4c-12.5,0.2-11.5,8-11.5,8s2.7,17.7,6.7,36.2C317.6,91.4,343.3,91.1,362.9,91.9z"/>
<path opacity="0.4" d="M442.3,96c-10.4,0-26.7-1.7-79.4-4.1c-19.6-0.9-45.3-0.5-69.9,0.2c3.4,16,7.7,32.6,12.1,39.1
	c9.3,14,11.3,17.5,15.6,23c4.3,5.5,8.2,7.8,10.5,9.3c2.3,1.6,15.2,13.2,23,17.9c7.8,4.7,16.4,29.2,16.4,29.2l7.3-0.2
	c0,0,6.7-12.7,13-19.3c6.2-6.6,7.8-7.4,11.7-10.9c3.9-3.5,11.7-10.5,15.6-16.4c3.9-5.8,9-8.6,10.5-11.7c1.6-3.1,17.9-18.7,19.9-21.4
	c1.9-2.7,3.5-8.2,3.9-12.5c0.4-4.3,3.5-10.5,3.5-12.9c0-0.6-0.2-4.6-0.4-10.2C449.2,95.7,444.4,96,442.3,96z"/>
<g opacity="1.000000e-02">
	<path d="M175.4,256.3c12.6-23.9,18.3-81.9,18.3-81.9s-12,22.7-22.7,42.2c-10.7,19.5-25.8,34-25.8,34l9.5,32.8
		C154.6,283.4,162.8,280.3,175.4,256.3z"/>
	<path d="M213.9,330.1c-4.4-23.3-4.4-54.2-3.8-58.6c0,0-6.3,6.9-10.1,18.3c-3.8,11.3-27.7,57.3-25.2,73.1
		c2.5,15.8,14.5,94.5,14.5,94.5s18.3-49.2,25.8-82.6C222.7,341.4,218.3,353.4,213.9,330.1z"/>
	<path d="M271.2,334.5c0,0-37.8,101.5-40.3,121c-2.5,19.5,5.7,65.5,5.7,70.6c0,5-11.3,42.2-15.8,52.9c-4.4,10.7-11.3,46.6-11.3,46.6
		s54.8-165.7,59.9-202.9C274.4,385.5,271.2,334.5,271.2,334.5z"/>
	<path d="M293.3,346.5c0,0-30.2,147.5-39.7,175.8c-9.5,28.4-34,83.8-35.9,135.5c-1.9,51.7-3.8,127.3,3.8,129.2
		c7.6,1.9,25.2-87.6,54.8-93.3s51-18.9,54.8-65.5c3.8-46.6,4.4-231.9-2.5-245.1S293.3,346.5,293.3,346.5z"/>
	<path d="M402.9,281.5c0,0,105.2,233.2,107.1,257.7s37.8,78.8,37.8,78.8s-26.5,12.6-35.3-8.2c-8.8-20.8-17.6-64.3-27.1-93.9
		c-9.5-29.6-83.2-237.6-83.2-237.6"/>
	<path d="M171.2,927.6c0,0,0.6-1.3,1.6-3.7c-0.6,1.2-1.2,2.4-1.8,3.5L171.2,927.6z"/>
	<path d="M176.1,914.8c3.7-13.6,6.2-27.2,7.4-33.9l-3-7.7c0,0-2.9-15.4,2.9-33.7c5.8-18.3,3.8-45.2,2.9-71.2
		c-1-26,12.5-82.8,15.4-109.7c2.9-26.9,2.9-29.8,2.9-29.8l-5.8-16.4c0,0,9.6-25,10.6-28.9c0.7-2.9-0.8-18.9-1.5-26.2
		c-4.5-2.4-9.8-7-15.8-15.9c-20-29.6-27-68.7-50.5-107c-23.5-38.3-60.9-120.9-60.9-120.9s30.4,121.8,42.6,159.2S194.7,617,194.7,617
		s-50.5-82.6-60.9-93.1c-10.4-10.4-21.7-30.4-32.2-20c-10.4,10.4-23.5,26.1-9.6,48.7c13.9,22.6,55.7,73.1,63.5,95.7
		c7.8,22.6,8.7,57.4-1.7,60c-10.4,2.6-33.9,14.8-27,20c7,5.2,29.6,15.7,22.6,27.8c-7,12.2-28.7,5.2-28.7,17.4s43.5,16.5,33.1,34.8
		c-10.4,18.3-31.3,27-20.9,38.3c10.4,11.3,31.3,19.1,30.4,37.4c-0.9,18.3,1.7,37.4,1.7,37.4l5.9,5.9c0.6-1.1,1.2-2.3,1.8-3.5
		c0.5-1.3,1.2-2.8,2-4.7C175.3,917.8,175.7,916.3,176.1,914.8z"/>
	<path d="M653.2,447.2c2.2-1.2,3.4-2.4,3.4-2.4S655.3,445.6,653.2,447.2z"/>
	<path d="M657.3,666.6c7.6-15,13.3-27,13.3-27S664.7,650.8,657.3,666.6z"/>
	<path d="M643.6,841.5c-5.9-48.6,2.8-82.6,3.4-85.1c-0.6,2.3-8.3,29.4-20,10.3c-8.2-13.5,14.6-66.9,30.2-100
		c-13.2,25.9-32.3,60.8-38.9,59.1c-10.4-2.6-30.4-52.2-17.4-93.9c13-41.8,7-76.5,7-76.5s11.3-60,22.6-80.9
		c7.9-14.7,17.6-23.3,22.7-27.2c-6.5,3.6-21.4,7.1-35.7-21.5c-19.1-38.3-8.7-87-8.7-87s-22.6-11.3-12.2-38.3
		c4.6-11.8,6.3-24,6.8-33.9c-11.5,21.4-21.6,40.6-22.4,44.6c-1.9,8.7,2.9,104.9,1,132.8c-1.9,27.9-1,78-5.8,104.9
		c-4.8,26.9-24.1,62.6-17.3,94.3c6.7,31.8,26.9,107.8,28.9,120.3c1.9,12.5,0,38.5,3.8,52c2.2,7.5,3.1,21.7,3.5,32.7l1.5-2.3
		c0,0,5.2,29,8.7,42.3c2.9,11,4.6,19.3,6,25.8c4.6-1.8,8.7-4.6,8.7-4.6C620.1,906.7,649.7,891.9,643.6,841.5z"/>
	<path d="M647,756.4c0-0.1,0-0.2,0-0.2S647,756.3,647,756.4z"/>
</g>
<g>
	
		<image style="overflow:visible;opacity:0.2;" width="108" height="66" xlink:href="61F16F91.png"  transform="matrix(1 0 0 1 615.9429 931.8239)">
	</image>
	<g>
		<g id="SLEEVES">
			<path fill="#BF2A43" d="M624.5,948.7C624.5,948.7,624.5,948.7,624.5,948.7L624.5,948.7C624.5,948.7,624.5,948.7,624.5,948.7z"/>
			<polygon fill="#BF2A43" points="630.3,946.6 630.3,946.6 630.3,946.6 			"/>
			<path fill="#BF2A43" d="M631.8,946.1v42.3c0.5-0.2,1-0.3,1.5-0.5v-42.3c-0.4,0.1-0.8,0.2-1.2,0.3C632.1,946.1,632,946.1,631.8,946.1
				z"/>
			<path fill="#BF2A43" d="M632.2,946c0.4-0.1,0.8-0.2,1.2-0.3l0,0C633,945.8,632.6,945.9,632.2,946z"/>
			<path fill="#BF2A43" d="M634.5,987.7c0.5-0.1,1-0.3,1.5-0.4V945c-0.5,0.1-1.1,0.3-1.5,0.4V987.7z"/>
			<path fill="#BF2A43" d="M634.5,945.4L634.5,945.4c0.5-0.1,1-0.3,1.5-0.4l0,0C635.6,945.1,635,945.2,634.5,945.4z"/>
			<path fill="#BF2A43" d="M637.1,944.7C637.1,944.7,637.1,944.7,637.1,944.7l0,42.4c0.5-0.1,1-0.2,1.6-0.3v-42.4c0,0,0,0,0,0
				C638.2,944.5,637.6,944.6,637.1,944.7z"/>
			<polygon fill="#BF2A43" points="637.1,944.7 637.1,944.7 637.1,944.7 			"/>
			<polygon fill="#BF2A43" points="638.7,944.4 638.7,944.4 638.7,944.4 			"/>
			<path fill="#BF2A43" d="M639.5,986.6c0.5-0.1,1-0.2,1.5-0.3v-42.5c-0.5,0.1-1,0.2-1.5,0.3V986.6z"/>
			<path fill="#BF2A43" d="M641.9,986.2c0.5-0.1,1-0.2,1.6-0.2v-42.7c-0.5,0.1-1,0.2-1.6,0.3V986.2z"/>
			<path fill="#BF2A43" d="M641.9,943.7L641.9,943.7c0.5-0.1,1-0.2,1.6-0.3l0,0C643,943.5,642.4,943.6,641.9,943.7z"/>
			<path fill="#BF2A43" d="M644.4,985.9c0.5-0.1,1-0.1,1.5-0.2v-42.8c-0.5,0.1-1,0.2-1.5,0.3V985.9z"/>
			<path fill="#BF2A43" d="M647.2,942.7C647.2,942.7,647.2,942.7,647.2,942.7l0,42.9c0.5,0,1-0.1,1.6-0.1v-43c0,0,0,0,0,0
				C648.2,942.5,647.7,942.6,647.2,942.7z"/>
			<polygon fill="#BF2A43" points="647.2,942.7 647.2,942.7 647.2,942.7 			"/>
			<polygon fill="#BF2A43" points="648.8,942.5 648.8,942.5 648.8,942.5 			"/>
			<path fill="#BF2A43" d="M649.6,985.4c0.5,0,1-0.1,1.5-0.1v-43.2c-0.5,0.1-1,0.1-1.5,0.2V985.4z"/>
			<path fill="#BF2A43" d="M652,942v43.3c0.5,0,1-0.1,1.6-0.1v-43.4c0,0,0,0,0,0C653.1,941.9,652.5,941.9,652,942z"/>
			<polygon fill="#BF2A43" points="653.6,941.8 653.6,941.8 653.6,941.8 			"/>
			<path fill="#BF2A43" d="M654.6,985.1c0.5,0,1,0,1.6-0.1v-43.5c-0.2,0-0.4,0-0.6,0.1c-0.3,0-0.6,0.1-0.9,0.1V985.1z"/>
			<path fill="#BF2A43" d="M654.6,941.7c0.3,0,0.6-0.1,0.9-0.1C655.2,941.6,654.9,941.7,654.6,941.7L654.6,941.7z"/>
			<path fill="#BF2A43" d="M657.2,941.4v43.6c0.5,0,1,0,1.6,0v-43.7c-0.2,0-0.5,0-0.7,0.1C657.8,941.4,657.5,941.4,657.2,941.4z"/>
			<path fill="#BF2A43" d="M658.1,941.4c0.2,0,0.5,0,0.7-0.1l0,0C658.5,941.3,658.3,941.4,658.1,941.4z"/>
			<path fill="#BF2A43" d="M659.9,941.2V985c0.5,0,1,0,1.6,0v-43.9c0,0,0,0,0,0C660.9,941.1,660.4,941.2,659.9,941.2z"/>
			<polygon fill="#BF2A43" points="661.5,941.1 661.5,941.1 661.5,941.1 			"/>
			<path fill="#BF2A43" d="M662.6,985c0.5,0,1,0,1.6,0v-44c-0.4,0-0.8,0-1.1,0.1c-0.1,0-0.3,0-0.4,0V985z"/>
			<path fill="#BF2A43" d="M662.6,941c0.1,0,0.3,0,0.4,0C662.9,941,662.8,941,662.6,941L662.6,941z"/>
			<path fill="#BF2A43" d="M665.3,985c0.5,0,1,0,1.5,0v-44.1c-0.5,0-1,0-1.5,0.1c0,0,0,0,0,0V985z"/>
			<polygon fill="#BF2A43" points="665.3,940.9 665.3,940.9 665.3,940.9 			"/>
			<path fill="#BF2A43" d="M667.9,984.9c0.4,0,0.8,0,1.2,0c0.1,0,0.2,0,0.4,0v-44.2c-0.5,0-1,0-1.6,0V984.9z"/>
			<path fill="#BF2A43" d="M667.9,940.8L667.9,940.8c0.5,0,1,0,1.6,0l0,0C668.9,940.8,668.4,940.8,667.9,940.8z"/>
			<path fill="#BF2A43" d="M670.8,984.9c0.5,0,1,0,1.5,0v-44.2c-0.5,0-1,0-1.5,0c0,0,0,0,0,0V984.9z"/>
			<polygon fill="#BF2A43" points="670.8,940.8 670.8,940.8 670.8,940.8 			"/>
			<path fill="#BF2A43" d="M673.3,940.8v44.2c0.5,0,1,0,1.5,0v-44.2c-0.1,0-0.2,0-0.3,0C674.2,940.8,673.7,940.8,673.3,940.8z"/>
			<path fill="#BF2A43" d="M674.6,940.8c0.1,0,0.2,0,0.3,0l0,0C674.8,940.8,674.7,940.8,674.6,940.8z"/>
			<path fill="#BF2A43" d="M676.2,984.9c0.5,0,1,0,1.5,0v-44.1c-0.5,0-1,0-1.5,0c0,0,0,0,0,0V984.9z"/>
			<polygon fill="#BF2A43" points="676.2,940.8 676.2,940.8 676.2,940.8 			"/>
			<path fill="#BF2A43" d="M678.6,984.9c0.5,0,1,0,1.5,0v-44c-0.5,0-1,0-1.5-0.1V984.9z"/>
			<path fill="#BF2A43" d="M678.6,940.9L678.6,940.9c0.5,0,1,0,1.5,0.1l0,0C679.7,940.9,679.1,940.9,678.6,940.9z"/>
			<path fill="#BF2A43" d="M681.2,985c0.5,0,1,0,1.5,0v-44c-0.5,0-1-0.1-1.5-0.1c0,0,0,0,0,0V985z"/>
			<polygon fill="#BF2A43" points="681.2,940.9 681.2,940.9 681.2,940.9 			"/>
			<path fill="#BF2A43" d="M684.2,985c0.5,0,1,0,1.5,0v-43.8c-0.5,0-1-0.1-1.5-0.1V985z"/>
			<path fill="#BF2A43" d="M684.2,941.1L684.2,941.1c0.5,0,1,0.1,1.5,0.1l0,0C685.2,941.2,684.7,941.2,684.2,941.1z"/>
			<path fill="#BF2A43" d="M686.9,941.3v43.8c0.5,0,1,0,1.6,0v-43.7c0,0,0,0,0,0C687.9,941.4,687.4,941.3,686.9,941.3z"/>
			<polygon fill="#BF2A43" points="688.4,941.4 688.4,941.4 688.4,941.4 			"/>
			<path fill="#BF2A43" d="M689.7,985.2c0.5,0,1,0,1.6,0.1v-43.6c-0.4,0-0.7-0.1-1.1-0.1c-0.1,0-0.3,0-0.4,0V985.2z"/>
			<path fill="#BF2A43" d="M689.7,941.5c0.1,0,0.3,0,0.4,0C690,941.6,689.9,941.6,689.7,941.5L689.7,941.5z"/>
			<path fill="#BF2A43" d="M692.4,985.3c0.5,0,1,0.1,1.6,0.1V942c-0.2,0-0.5-0.1-0.7-0.1c-0.3,0-0.5,0-0.8-0.1V985.3z"/>
			<path fill="#BF2A43" d="M695.1,942.1v43.3c0.5,0,1,0.1,1.5,0.1v-43.2c0,0-0.1,0-0.1,0C696.1,942.2,695.6,942.2,695.1,942.1z"/>
			<path fill="#BF2A43" d="M696.6,942.3c0,0,0.1,0,0.1,0v0C696.7,942.3,696.6,942.3,696.6,942.3z"/>
			<path fill="#BF2A43" d="M697.6,942.5v43.2c0.5,0,1,0.1,1.6,0.1v-43c-0.1,0-0.2,0-0.3,0C698.5,942.6,698,942.5,697.6,942.5z"/>
			<path fill="#BF2A43" d="M698.9,942.7c0.1,0,0.2,0,0.3,0v0C699.1,942.7,699,942.7,698.9,942.7z"/>
			<path fill="#BF2A43" d="M699.8,985.8c0.5,0,1,0.1,1.6,0.1v-42.8c-0.4-0.1-0.8-0.2-1.2-0.2c-0.1,0-0.2,0-0.4-0.1V985.8z"/>
			<path fill="#BF2A43" d="M699.8,942.9c0.1,0,0.2,0,0.4,0.1C700.1,942.9,699.9,942.9,699.8,942.9L699.8,942.9z"/>
			<path fill="#BF2A43" d="M702.4,986c0.5,0.1,1,0.1,1.6,0.2v-42.5c-0.3-0.1-0.5-0.1-0.8-0.2c-0.2-0.1-0.5-0.1-0.7-0.2V986z"/>
			<path fill="#BF2A43" d="M702.4,943.4c0.2,0.1,0.5,0.1,0.7,0.2C702.9,943.5,702.7,943.4,702.4,943.4L702.4,943.4z"/>
			<path fill="#BF2A43" d="M705.4,986.4c0.5,0.1,1,0.1,1.6,0.2v-42.1c-0.3-0.1-0.6-0.1-0.8-0.2c-0.2-0.1-0.5-0.1-0.7-0.2V986.4z"/>
			<path fill="#BF2A43" d="M705.4,944.1c0.2,0.1,0.5,0.1,0.7,0.2C705.8,944.2,705.6,944.1,705.4,944.1L705.4,944.1z"/>
			<path fill="#BF2A43" d="M708.1,986.7c0.5,0.1,1,0.2,1.6,0.2v-41.7c-0.3-0.1-0.5-0.1-0.8-0.2c-0.3-0.1-0.5-0.1-0.8-0.2V986.7z"/>
			<path fill="#BF2A43" d="M708.1,944.8c0.3,0.1,0.5,0.1,0.8,0.2C708.6,944.9,708.3,944.8,708.1,944.8L708.1,944.8z"/>
			<path fill="#BF2A43" d="M710.9,987.1c0.5,0.1,1,0.2,1.6,0.3V946c-0.3-0.1-0.6-0.2-0.9-0.3c-0.2-0.1-0.5-0.1-0.7-0.2V987.1z"/>
			<path fill="#BF2A43" d="M710.9,945.6c0.2,0.1,0.5,0.1,0.7,0.2C711.4,945.7,711.1,945.6,710.9,945.6L710.9,945.6z"/>
			<path fill="#BF2A43" d="M713.9,946.5c0.2,0.1,0.4,0.1,0.5,0.2C714.2,946.6,714,946.5,713.9,946.5L713.9,946.5z"/>
		</g>
	</g>
</g>
<g>
	
		<image style="overflow:visible;opacity:0.2;" width="103" height="65" xlink:href="61F16F90.png"  transform="matrix(1 0 0 1 59.9429 928.8239)">
	</image>
	<g>
		<g id="SLEEVES">
			<path fill="#BF2A43" d="M68.8,984.9c0.5-0.2,0.9-0.3,1.4-0.5l0-0.1c-0.5,0.1-1,0.3-1.4,0.4C68.7,984.7,68.7,984.8,68.8,984.9z"/>
			<path fill="#BF2A43" d="M69.4,942.5L68.6,984c0,0.2,0.1,0.5,0.1,0.7c0.5-0.1,0.9-0.3,1.4-0.4l0.8-42.2
				C70.4,942.2,69.9,942.4,69.4,942.5z"/>
			<path fill="#BF2A43" d="M71.7,983.9c0.3-0.1,0.7-0.2,1-0.3C72.4,983.7,72,983.8,71.7,983.9L71.7,983.9z"/>
			<path fill="#BF2A43" d="M74,941.2c-0.5,0.1-1.1,0.3-1.6,0.4l-0.8,42.3c0.3-0.1,0.7-0.2,1-0.2c0.2,0,0.3-0.1,0.5-0.1L74,941.2z"/>
			<path fill="#BF2A43" d="M74.4,983.2c0.5-0.1,1-0.2,1.6-0.4l0.8-42.3c-0.5,0.1-1.1,0.2-1.6,0.4L74.4,983.2z"/>
			<path fill="#BF2A43" d="M77,982.7c0.5-0.1,1-0.2,1.6-0.3l0.8-42.4c-0.5,0.1-1.1,0.2-1.6,0.3L77,982.7z"/>
			<path fill="#BF2A43" d="M79.4,982.2c0.5-0.1,1-0.2,1.6-0.2l0.8-42.5c-0.5,0.1-1,0.2-1.6,0.3L79.4,982.2z"/>
			<path fill="#BF2A43" d="M81.8,981.9c0.5-0.1,1-0.1,1.6-0.2l0.8-42.7c-0.5,0.1-1,0.2-1.6,0.3L81.8,981.9z"/>
			<path fill="#BF2A43" d="M84.3,981.6c0.5-0.1,1-0.1,1.6-0.2l0.8-42.8c-0.5,0.1-1,0.2-1.6,0.2L84.3,981.6z"/>
			<path fill="#BF2A43" d="M87.1,981.3c0.5,0,1-0.1,1.6-0.1l0.8-43c-0.5,0.1-1,0.1-1.6,0.2L87.1,981.3z"/>
			<path fill="#BF2A43" d="M89.5,981.2c0.5,0,1,0,1.6-0.1l0.8-43.2c-0.5,0.1-1,0.1-1.6,0.2L89.5,981.2z"/>
			<path fill="#BF2A43" d="M92,981.1c0.5,0,1,0,1.6-0.1l0.8-43.3c-0.5,0.1-1,0.1-1.6,0.2L92,981.1z"/>
			<path fill="#BF2A43" d="M94.5,981c0.5,0,1,0,1.6,0l0-0.1C95.6,980.9,95.1,980.9,94.5,981L94.5,981z"/>
			<path fill="#BF2A43" d="M95.3,937.6L94.5,981c0.5,0,1-0.1,1.6-0.1l0.8-43.4C96.3,937.5,95.8,937.5,95.3,937.6z"/>
			<path fill="#BF2A43" d="M97.1,981c0.5,0,1,0,1.6,0l0-0.2c-0.5,0-1,0-1.6,0.1L97.1,981z"/>
			<path fill="#BF2A43" d="M97.9,937.4l-0.8,43.5c0.5,0,1,0,1.6-0.1l0.8-43.5C98.9,937.3,98.4,937.3,97.9,937.4z"/>
			<path fill="#BF2A43" d="M99.8,981c0.5,0,1,0,1.6,0l0-0.3c-0.5,0-1,0-1.6,0L99.8,981z"/>
			<path fill="#BF2A43" d="M100.6,937.2l-0.8,43.5c0.5,0,1,0,1.6,0l0.8-43.6C101.6,937.1,101.1,937.2,100.6,937.2z"/>
			<path fill="#BF2A43" d="M102.6,981c0.5,0,1,0,1.6,0l0-0.4c-0.5,0-1,0-1.6,0L102.6,981z"/>
			<path fill="#BF2A43" d="M103.3,937.1l-0.8,43.6c0.5,0,1,0,1.6,0l0.8-43.6C104.4,937,103.8,937,103.3,937.1z"/>
			<path fill="#BF2A43" d="M105.3,981c0.5,0,1,0,1.5,0l0-0.5c-0.5,0-1,0-1.6,0L105.3,981z"/>
			<path fill="#BF2A43" d="M106,937l-0.8,43.6c0.5,0,1,0,1.6,0l0.8-43.6C107.1,936.9,106.6,937,106,937z"/>
			<path fill="#BF2A43" d="M107.8,981.1c0.4,0,0.8,0,1.2,0c0.1,0,0.2,0,0.4,0l0-0.5c-0.5,0-1,0-1.6,0L107.8,981.1z"/>
			<path fill="#BF2A43" d="M108.6,936.9l-0.8,43.6c0.5,0,1,0,1.6,0l0.8-43.6C109.7,936.9,109.1,936.9,108.6,936.9z"/>
			<path fill="#BF2A43" d="M110.7,981.1c0.5,0,1,0,1.5,0l0-0.6c-0.5,0-1,0-1.5,0L110.7,981.1z"/>
			<path fill="#BF2A43" d="M111.5,936.9l-0.8,43.6c0.5,0,1,0,1.5,0l0.8-43.6C112.5,936.9,112,936.9,111.5,936.9z"/>
			<path fill="#BF2A43" d="M113.3,981.1c0.5,0,1,0,1.5,0l0-0.6c-0.5,0-1,0-1.5,0L113.3,981.1z"/>
			<path fill="#BF2A43" d="M114.1,937l-0.8,43.6c0.5,0,1,0,1.5,0l0.8-43.6C115.1,937,114.6,937,114.1,937z"/>
			<path fill="#BF2A43" d="M116.1,981.2c0.5,0,1,0,1.5,0l0-0.6c-0.5,0-1,0-1.5,0L116.1,981.2z"/>
			<path fill="#BF2A43" d="M116.9,937l-0.8,43.6c0.5,0,1,0,1.5,0l0.8-43.5C117.9,937.1,117.4,937.1,116.9,937z"/>
			<path fill="#BF2A43" d="M118.6,981.2c0.5,0,1,0,1.5,0l0-0.6c-0.5,0-1,0-1.5,0L118.6,981.2z"/>
			<path fill="#BF2A43" d="M119.3,937.2l-0.8,43.5c0.5,0,1,0,1.5,0l0.8-43.5C120.4,937.2,119.9,937.2,119.3,937.2z"/>
			<path fill="#BF2A43" d="M121.1,981.3c0.5,0,1,0,1.5,0.1l0-0.5c-0.5,0-1,0-1.5-0.1L121.1,981.3z"/>
			<path fill="#BF2A43" d="M121.9,937.3l-0.8,43.5c0.5,0,1,0,1.5,0.1l0.8-43.4C123,937.4,122.4,937.3,121.9,937.3z"/>
			<path fill="#BF2A43" d="M124.1,981.4c0.5,0,1,0,1.5,0.1l0-0.5c-0.5,0-1-0.1-1.5-0.1L124.1,981.4z"/>
			<path fill="#BF2A43" d="M124.9,937.5l-0.8,43.4c0.5,0,1,0.1,1.5,0.1l0.8-43.3C125.9,937.6,125.4,937.6,124.9,937.5z"/>
			<path fill="#BF2A43" d="M126.8,981.5c0.5,0,1,0,1.5,0.1l0-0.5c-0.5,0-1-0.1-1.5-0.1L126.8,981.5z"/>
			<path fill="#BF2A43" d="M127.6,937.7l-0.8,43.3c0.5,0,1,0.1,1.5,0.1l0.8-43.3C128.6,937.8,128.1,937.8,127.6,937.7z"/>
			<path fill="#BF2A43" d="M129.6,981.7c0.5,0,1,0.1,1.5,0.1l0-0.4c-0.5,0-1-0.1-1.5-0.1L129.6,981.7z"/>
			<path fill="#BF2A43" d="M130.4,938l-0.8,43.2c0.5,0,1,0.1,1.5,0.1l0.8-43.2C131.4,938.2,130.9,938.1,130.4,938z"/>
			<path fill="#BF2A43" d="M132.3,981.8c0.5,0,1,0.1,1.5,0.1l0-0.3c-0.5-0.1-1-0.1-1.5-0.1L132.3,981.8z"/>
			<path fill="#BF2A43" d="M133.9,938.4c-0.3,0-0.5-0.1-0.8-0.1l-0.8,43.1c0.5,0,1,0.1,1.5,0.1l0.8-43.1
				C134.4,938.5,134.2,938.5,133.9,938.4z"/>
			<path fill="#BF2A43" d="M135.1,982c0.5,0,1,0.1,1.5,0.1l0-0.3c-0.5-0.1-1-0.1-1.5-0.2L135.1,982z"/>
			<path fill="#BF2A43" d="M135.8,938.7l-0.8,43c0.5,0.1,1,0.1,1.5,0.2l0.8-43C136.9,938.9,136.3,938.8,135.8,938.7z"/>
			<path fill="#BF2A43" d="M137.5,982.3c0.5,0,1,0.1,1.6,0.1l0-0.2c-0.5-0.1-1-0.1-1.5-0.2L137.5,982.3z"/>
			<path fill="#BF2A43" d="M138.3,939.1l-0.8,42.9c0.5,0.1,1,0.1,1.5,0.2l0.8-42.8C139.3,939.3,138.8,939.2,138.3,939.1z"/>
			<path fill="#BF2A43" d="M139.7,982.5c0.5,0.1,1,0.1,1.5,0.2l0-0.1c-0.5-0.1-1-0.1-1.5-0.2L139.7,982.5z"/>
			<path fill="#BF2A43" d="M140.5,939.5l-0.8,42.8c0.5,0.1,1,0.1,1.5,0.2l0.8-42.7C141.5,939.8,141,939.6,140.5,939.5z"/>
			<path fill="#BF2A43" d="M142.3,982.8c0.5,0.1,1,0.1,1.5,0.2l0,0C143.4,982.9,142.8,982.8,142.3,982.8L142.3,982.8z"/>
			<path fill="#BF2A43" d="M143.1,940.1l-0.8,42.6c0.5,0.1,1,0.2,1.5,0.3l0.8-42.5C144.1,940.4,143.6,940.2,143.1,940.1z"/>
			<path fill="#BF2A43" d="M145.3,983.1c0.5,0.1,1,0.1,1.5,0.2l0.8-42.1c-0.5-0.1-1-0.3-1.5-0.4L145.3,983.1z"/>
			<path fill="#BF2A43" d="M148,983.5c0.5,0.1,1,0.2,1.5,0.3l0.7-41.7c-0.5-0.2-1-0.3-1.5-0.5L148,983.5z"/>
			<path fill="#BF2A43" d="M150.8,984c0.5,0.1,1,0.2,1.5,0.3l0.7-41.3c-0.5-0.2-1-0.3-1.5-0.5L150.8,984z"/>
		</g>
	</g>
</g>
<path opacity="5.000000e-02" d="M67.5,985.1c0.2,2.7,0.4,4.5,0.8,4.6c1.7,0.6,18,6.4,45.2,5.8s39.4-2.9,39.4-6.4c0-0.8,0.1-2.1,0.3-3.8
	c-7.6-2.8-24-4.7-43.1-4.7C91.4,980.5,75.3,982.4,67.5,985.1z"/>
<path opacity="5.000000e-02" d="M629.8,989.9l0.5,3.2c0,0,19.1,5.8,49.9,4.1c26.6-1.5,32.8-7.3,34-8.9c-8.5-2.2-23.1-3.7-39.7-3.7
	C653.9,984.6,636.5,986.8,629.8,989.9z"/>
<g>
	<rect x="369.6" y="893.4" fill="#897F76" width="4.9" height="16.4"/>
	<rect x="374.7" y="893.4" fill="#897F76" width="4.9" height="16.4"/>
</g>
<g>
	<g>
		<path d="M390.3,122.6H361l0.1-30.5c7,0.4,18,1.1,29.1,1.3L390.3,122.6L390.3,122.6z"/>
		<path fill="#FFFFFF" d="M389.1,121.5h-29.3l0.1-29c7,0.4,18,1,29.1,1.2L389.1,121.5L389.1,121.5z"/>
	</g>
	<g>
		<g>
			<g>
				<path  fill="#004D86" d="M363.3,108.4c0,0.3-0.3,0.6-0.6,0.6c-0.3,0-0.6-0.1-0.6-0.6v-1.5c0-0.4,0.3-0.6,0.6-0.6
					c0.4,0,0.6,0.3,0.6,0.6v0.2h-0.4v-0.1c0-0.2-0.1-0.3-0.2-0.3c-0.2,0-0.2,0.1-0.2,0.3v1.4c0,0.2,0.1,0.3,0.2,0.3
					c0.1,0,0.2-0.1,0.2-0.3v-0.1h0.4V108.4z"/>
				<polygon  fill="#004D86" points="363.6,106.3 364,106.3 364,108.6 364.8,108.6 364.8,109 363.6,109 				"/>
				<rect x="365.1" y="106.3"  fill="#004D86" width="0.4" height="2.7"/>
				<polygon  fill="#004D86" points="365.8,106.3 367,106.3 367,106.6 366.2,106.6 366.2,107.4 366.9,107.4 366.9,107.8 366.2,107.8 
					366.2,109 365.8,109 				"/>
				<polygon  fill="#004D86" points="367.2,106.3 368.4,106.3 368.4,106.6 367.6,106.6 367.6,107.4 368.3,107.4 368.3,107.8 
					367.6,107.8 367.6,109 367.2,109 				"/>
				<polygon  fill="#004D86" points="369.3,106.3 369.7,106.3 369.7,107.5 369.7,107.5 370.3,106.3 370.7,106.3 370.2,107.3 370.8,109 
					370.4,109 369.9,107.8 369.7,108.2 369.7,109 369.3,109 				"/>
				<polygon  fill="#004D86" points="371,106.3 372.1,106.3 372.1,106.6 371.4,106.6 371.4,107.4 372,107.4 372,107.8 371.4,107.8 
					371.4,108.6 372.1,108.6 372.1,109 371,109 				"/>
				<polygon  fill="#004D86" points="372.4,106.3 373.5,106.3 373.5,106.6 372.8,106.6 372.8,107.4 373.4,107.4 373.4,107.8 
					372.8,107.8 372.8,108.6 373.5,108.6 373.5,109 372.4,109 				"/>
				<polygon  fill="#004D86" points="373.8,106.3 374.1,106.3 374.7,107.9 374.7,107.9 374.7,106.3 375.1,106.3 375.1,109 374.8,109 
					374.2,107.3 374.2,107.3 374.2,109 373.8,109 				"/>
				<path  fill="#004D86" d="M376.6,106.3h0.3l0.6,2.7h-0.4l-0.1-0.6h-0.5l-0.1,0.6H376L376.6,106.3z M376.8,107L376.8,107l-0.2,1h0.4
					L376.8,107z"/>
				<polygon  fill="#004D86" points="378,106.6 377.5,106.6 377.5,106.3 378.8,106.3 378.8,106.6 378.4,106.6 378.4,109 378,109 				"/>
				<polygon  fill="#004D86" points="379,106.3 379.4,106.3 379.4,107.4 379.9,107.4 379.9,106.3 380.2,106.3 380.2,109 379.9,109 
					379.9,107.8 379.4,107.8 379.4,109 379,109 				"/>
				<polygon  fill="#004D86" points="380.6,106.3 381,106.3 381,108.6 381.8,108.6 381.8,109 380.6,109 				"/>
				<polygon  fill="#004D86" points="382,106.3 383.2,106.3 383.2,106.6 382.4,106.6 382.4,107.4 383.1,107.4 383.1,107.8 382.4,107.8 
					382.4,108.6 383.2,108.6 383.2,109 382,109 				"/>
				<polygon  fill="#004D86" points="383.7,106.6 383.2,106.6 383.2,106.3 384.5,106.3 384.5,106.6 384.1,106.6 384.1,109 383.7,109 
									"/>
				<rect x="384.7" y="106.3"  fill="#004D86" width="0.4" height="2.7"/>
				<path  fill="#004D86" d="M386.7,108.4c0,0.3-0.3,0.6-0.6,0.6c-0.3,0-0.6-0.1-0.6-0.6v-1.5c0-0.4,0.3-0.6,0.6-0.6
					c0.4,0,0.6,0.3,0.6,0.6v0.2h-0.4v-0.1c0-0.2-0.1-0.3-0.2-0.3c-0.2,0-0.2,0.1-0.2,0.3v1.4c0,0.2,0.1,0.3,0.2,0.3
					c0.1,0,0.2-0.1,0.2-0.3v-0.1h0.4V108.4z"/>
			</g>
			<g>
				<g>
					<g>
						<g>
							<path fill-rule="evenodd" clip-rule="evenodd" fill="#FFFFFF" d="M379,95.2c2.6,0,4.8,2.1,4.8,4.8c0,2.6-2.1,4.8-4.8,4.8h-9.3c-2.6,0-4.8-2.1-4.8-4.8
								c0-2.6,2.1-4.8,4.8-4.8H379z"/>
							<g>
								<polygon fill-rule="evenodd" clip-rule="evenodd" fill="#BF2A43" points="377.1,99.5 380.1,96.5 377.1,96.5 								"/>
								<polygon fill-rule="evenodd" clip-rule="evenodd" fill="#BF2A43" points="377.1,100.4 380.1,103.5 377.1,103.5 								"/>
								<g>
									<rect x="373.9" y="96.5" fill="#BF2A43" width="2.5" height="7"/>
									<path fill="#BF2A43" d="M375.2,100"/>
								</g>
							</g>
						</g>
					</g>
				</g>
				<path fill-rule="evenodd" clip-rule="evenodd" fill="#004D86" d="M369.7,94.9c-2.8,0-5.1,2.3-5.1,5.1c0,2.8,2.3,5.1,5.1,5.1h9.3c2.8,0,5.1-2.3,5.1-5.1
					c0-2.8-2.3-5.1-5.1-5.1H369.7z M365.2,100c0-2.5,2-4.5,4.5-4.5h9.3c2.5,0,4.5,2,4.5,4.5c0,2.5-2,4.5-4.5,4.5h-9.3
					C367.2,104.5,365.2,102.5,365.2,100z"/>
				<path  fill="#004D86" d="M366.4,100c0-1.8,1.4-3.4,3.3-3.5v7C367.9,103.3,366.4,101.8,366.4,100z"/>
				<polygon fill-rule="evenodd" clip-rule="evenodd" fill="#004D86" points="373.3,99.5 370.3,96.5 373.3,96.5 				"/>
				<polygon fill-rule="evenodd" clip-rule="evenodd" fill="#004D86" points="373.3,100.4 370.3,103.5 373.3,103.5 				"/>
			</g>
		</g>
		<text transform="matrix(1 0 0 1 370.1211 118.4658)" class="st17 st18">M</text>
	</g>
</g>
<path fill="#64615E" opacity="0.3" d="M378,236c0,0-2.3,0.5-3.2,0.5l-0.1-0.1l-0.1,0.1c-0.9,0-3.2-0.5-3.2-0.5v-4.1c0,0,0.9-0.6,3-0.6
	c0.1,0,0.2,0,0.2,0c0.1,0,0.2,0,0.2,0c2.1,0,3,0.6,3,0.6V236z"/>
<path fill="#64615E" d="M378.6,217.2l0-0.5l-3.1,0l0,0.5l0.5,0l0,0l0-0.6l-1.3,0l-0.7,0l-0.6,0l0,0l-2.5,0l-0.5,0l-0.7,21.2l0.3,0.2
	c0,0,0.5,0.3,1.8,0.7c1.1,0.3,2.2,0.4,2.8,0.4l0.2,0l0-0.5l0,0.5l0.2,0c0.5,0,1.7,0,2.8-0.4c1.3-0.4,1.7-0.6,1.8-0.7l0.3-0.2
	l-0.7-21.2l-0.5,0L378.6,217.2l-0.5,0l0.7,20.4l0.5,0L379,237l0,0c-0.1,0-0.5,0.2-1.6,0.6c-0.9,0.3-2,0.3-2.4,0.3l-0.2,0l0,0l0,0
	l-0.2,0c-0.4,0-1.6,0-2.4-0.3c-0.6-0.2-1-0.3-1.3-0.4l-0.3-0.1l-0.1,0l-0.3,0.5l0.5,0l0.7-19.8l2.5,0l0.6,0l0,0l0.1,0l0,0l0.7,0
	l0-0.5l-0.5,0l0,0l0,0.6l3.6,0L378.6,217.2l-0.5,0L378.6,217.2z"/>
<path fill="#64615E" d="M374.1,217.1l0.5,0l0,0L374.1,217.1l0,0.5l0.7,0l0,0l0.7,0l0-0.5l-0.5,0l0,0l0,0.6l3.1,0l0.2,5.5l1-2.1
	c0.1-0.3,0.7-1.5,1.1-2.8c0.5-1.3,0.9-2.8,0.9-3.9c0-0.8-0.1-1.6-0.6-2.4c-0.5-0.8-1.3-1.4-2.5-1.7l-0.2,0.5l0.4-0.4
	c-0.3-0.2-0.6-0.3-1.1-0.4c-0.5-0.1-1.2-0.1-2.2-0.1h0l-0.2,0l-0.2,0h0c-1,0-1.7,0-2.2,0.1c-0.5,0.1-0.9,0.2-1.1,0.4l0.4,0.4
	l-0.2-0.5c-1.2,0.4-2,1-2.5,1.7c-0.5,0.8-0.6,1.6-0.6,2.4c0,1.1,0.5,2.5,0.9,3.9c0.5,1.3,1,2.5,1.1,2.8l1,2.1l0.2-5.5l2.5,0l0.6,0
	l0-0.6L374.1,217.1l0-0.5l-3.6,0l-0.1,4.2l0.5,0l0.5-0.2c-0.1-0.3-0.6-1.4-1.1-2.7c-0.5-1.3-0.9-2.7-0.9-3.5c0-0.7,0.1-1.3,0.4-1.8
	c0.3-0.5,0.9-0.9,1.9-1.2l0.1,0l0.1-0.1l0,0c0.2-0.1,1-0.3,2.6-0.3h0l0.2,0l0,0l0.2,0h0c0.9,0,1.6,0,2,0.1c0.2,0,0.4,0.1,0.5,0.1
	l0.1,0l0,0l0.1,0.1l0.1,0c1,0.3,1.6,0.8,1.9,1.2c0.3,0.5,0.4,1.1,0.4,1.8c0,0.8-0.4,2.2-0.9,3.5c-0.5,1.3-1,2.4-1.1,2.7l0.5,0.2
	l0.5,0l-0.1-4.2l-3.6,0l0,0.5l0.5,0l0,0l0-0.6l-1.3,0l-0.7,0l-0.6,0l0,0.6L374.1,217.1l0-0.5L374.1,217.1z"/>
<path fill="#64615E" d="M376.1,223.3c0,0.8-0.6,1.5-1.3,1.5l0,0c-0.7,0-1.3-0.7-1.3-1.5v-10.4c0-0.8,0.6-1.5,1.3-1.5l0,0
	c0.7,0,1.3,0.7,1.3,1.5V223.3z"/>
</svg>
