<?xml version="1.0" encoding="utf-8"?>
<!-- Generator: Adobe Illustrator 16.0.0, SVG Export Plug-In . SVG Version: 6.00 Build 0)  -->
<!DOCTYPE svg PUBLIC "-//W3C//DTD SVG 1.1//EN" "http://www.w3.org/Graphics/SVG/1.1/DTD/svg11.dtd">
<svg version="1.1" id="Layer_1" xmlns="http://www.w3.org/2000/svg" xmlns:xlink="http://www.w3.org/1999/xlink" x="0px" y="0px"
	 width="800.453px" height="1035.881px" viewBox="0 0 620 1035.881" enable-background="new 0 0 800.453 1035.881"
	 xml:space="preserve">
<g>
	<defs>
		<rect id="SVGLEFT_SVGID_1_" x="-42.712" y="56.995" width="728.166" height="942.332"/>
	</defs>
	<clipPath id="SVGLEFT_SVGID_2_">
		<use xlink:href="#SVGLEFT_SVGID_1_"  overflow="visible"/>
	</clipPath>
	<g clip-path="url(#SVGLEFT_SVGID_2_)">
		<defs>
			<rect id="SVGLEFT_SVGID_3_" x="-42.712" y="56.995" width="728.166" height="942.332"/>
		</defs>
		<clipPath id="SVGLEFT_SVGID_4_">
			<use xlink:href="#SVGLEFT_SVGID_3_"  overflow="visible"/>
		</clipPath>
    <g id="MASKL">
    <g id="BODY">
		<path clip-path="url(#SVGLEFT_SVGID_4_)" fill="#FDBB2D" d="M146.406,354.382c2.989-32.876,54.885-122.435,61.271-130.013
			c4.538-5.386,44.274-51.857,74.36-87.95c17.008-9.056,43.876-22.098,62.626-25.097c19.49-3.118,51.372-1.585,70.65-0.197
			c1.874,2.979,3.074,5.519,3.074,7.141c0,7.472,38.854,62.766,50.811,112.08c11.953,49.316-2.988,147.947-10.463,174.846
			c-7.471,26.899-34.37,98.631-34.37,119.553s45.406,455.379,42.307,455.423c-2.599,0.039-10.955-81.389-85.588-149.41v-425.33
			H273.419v368.441c-55.916-9.643-109.212,3.842-109.212,3.842c-7.472-37.359-10.33-152.841-14.813-187.212
			s1.495-127.025-2.989-144.957C141.923,427.608,143.417,387.259,146.406,354.382"/>
		<path clip-path="url(#SVGLEFT_SVGID_4_)" fill="none" stroke="#897F76" stroke-width="0.302" d="M146.406,354.382
			c2.989-32.876,54.885-122.435,61.271-130.013c4.538-5.386,44.274-51.857,74.36-87.95c17.008-9.056,43.876-22.098,62.626-25.097
			c19.49-3.118,51.372-1.585,70.65-0.197c1.874,2.979,3.074,5.519,3.074,7.141c0,7.472,38.854,62.766,50.811,112.08
			c11.953,49.316-2.988,147.947-10.463,174.846c-7.471,26.899-34.37,98.631-34.37,119.553s45.406,455.379,42.307,455.423
			c-2.599,0.039-10.955-81.389-85.588-149.41v-425.33H273.419v368.441c-55.916-9.643-109.212,3.842-109.212,3.842
			c-7.472-37.359-10.33-152.841-14.813-187.212s1.495-127.025-2.989-144.957C141.923,427.608,143.417,387.259,146.406,354.382z"/>
	</g>
        <g id="INSERT_COLOR">
		<path clip-path="url(#SVGLEFT_SVGID_6_)" fill="#BF2A43" d="M381.084,405.428v425.33c-14.396-13.123-31.244-25.748-51.008-37.19
			c-17.814-10.313-37.392-16.376-56.657-19.698V405.428H381.084z"/>
      </g>
    </g>
 
    </g>
	<g clip-path="url(#SVGLEFT_SVGID_2_)">
		<defs>
			<rect id="SVGLEFT_SVGID_5_" x="-42.712" y="56.995" width="728.166" height="942.332"/>
		</defs>
		<clipPath id="SVGLEFT_SVGID_6_">
			<use xlink:href="#SVGLEFT_SVGID_5_"  overflow="visible"/>
		</clipPath>
  
		<path clip-path="url(#SVGLEFT_SVGID_6_)" fill="none" stroke="#897F76" stroke-width="0.302" d="M381.084,405.428v425.33
			c-14.396-13.123-31.244-25.748-51.008-37.19c-17.814-10.313-37.392-16.376-56.657-19.698V405.428H381.084z"/>
	</g>
	<g clip-path="url(#SVGLEFT_SVGID_2_)">
		<defs>
			<rect id="SVGLEFT_SVGID_7_" x="-42.712" y="56.995" width="728.166" height="942.332"/>
		</defs>
		<clipPath id="SVGLEFT_SVGID_8_">
			<use xlink:href="#SVGLEFT_SVGID_7_"  overflow="visible"/>
		</clipPath>
		<g opacity="0.2" clip-path="url(#SVGLEFT_SVGID_8_)">
			<g>
				<defs>
					<rect id="SVGLEFT_SVGID_9_" x="229.754" y="127.193" width="216.546" height="309.352"/>
				</defs>
				<clipPath id="SVGLEFT_SVGID_10_">
					<use xlink:href="#SVGLEFT_SVGID_9_"  overflow="visible"/>
				</clipPath>
				<g clip-path="url(#SVGLEFT_SVGID_10_)">
					<defs>
						<rect id="SVGLEFT_SVGID_11_" x="229.754" y="127.193" width="216.546" height="309.352"/>
					</defs>
					<clipPath id="SVGLEFT_SVGID_12_">
						<use xlink:href="#SVGLEFT_SVGID_11_"  overflow="visible"/>
					</clipPath>
					<g clip-path="url(#SVGLEFT_SVGID_12_)">
						
							<!--<image overflow="visible" width="182" height="260" xlink:href="5719DE1E.png"  transform="matrix(1.1898 0 0 1.1898 229.7544 127.1934)">
						</image>-->
					</g>
				</g>
			</g>
		</g>
     <g id="MASKL">
    <g id="SLEEVES">
		<path clip-path="url(#SVGLEFT_SVGID_8_)" fill="#004D86" d="M248.264,241.814c1.241-35.968,10.71-83.643,59.957-92.872
			c49.244-9.229,78.934,5.837,78.934,5.837s15.798,6.381,23.907,26.9c8.108,20.522,16.608,53.353,17.068,68.364
			c1.074,34.925-7.54,80.233-7.281,90.797c0.254,10.563,3.196,62.075,3.196,62.075s-9.704,12.914-82.908,15.238
			c-74.062,2.351-82.291-14.106-82.291-14.106s1.625-68.613-0.291-77.868C256.639,316.923,247.025,277.782,248.264,241.814"/>
		<path clip-path="url(#SVGLEFT_SVGID_8_)" fill="none" stroke="#897F76" stroke-width="0.302" d="M248.264,241.814
			c1.241-35.968,10.71-83.643,59.957-92.872c49.244-9.229,78.934,5.837,78.934,5.837s15.798,6.381,23.907,26.9
			c8.108,20.522,16.608,53.353,17.068,68.364c1.074,34.925-7.54,80.233-7.281,90.797c0.254,10.563,3.196,62.075,3.196,62.075
			s-9.704,12.914-82.908,15.238c-74.062,2.351-82.291-14.106-82.291-14.106s1.625-68.613-0.291-77.868
			C256.639,316.923,247.025,277.782,248.264,241.814z"/>
	</g>
       </g>
    </g>
	<g clip-path="url(#SVGLEFT_SVGID_2_)">
		<defs>
			<rect id="SVGLEFT_SVGID_13_" x="-42.712" y="56.995" width="728.166" height="942.332"/>
		</defs>
		<clipPath id="SVGLEFT_SVGID_14_">
			<use xlink:href="#SVGLEFT_SVGID_13_"  overflow="visible"/>
		</clipPath>
    <g id="COLLAR">
      <path clip-path="url(#SVGLEFT_SVGID_14_)" fill="#BF2A43" d="M344.663,111.323c-18.75,3-45.618,16.042-62.626,25.096
			c15.946-19.13,29.555-34.933,34.73-39.074c14.945-11.956,76.216-13.45,76.216-13.45s15.569,16.485,22.33,27.23
			C396.035,109.738,364.153,108.204,344.663,111.323"/>
    </g>
		
		<path clip-path="url(#SVGLEFT_SVGID_14_)" fill="none" stroke="#897F76" stroke-width="0.25" d="M344.663,111.323
			c-18.75,3-45.618,16.042-62.626,25.096c15.946-19.13,29.555-34.933,34.73-39.074c14.945-11.956,76.216-13.45,76.216-13.45
			s15.569,16.485,22.33,27.23C396.035,109.738,364.153,108.204,344.663,111.323z"/>
	</g>
	<g clip-path="url(#SVGLEFT_SVGID_2_)">
		<defs>
			<rect id="SVGLEFT_SVGID_15_" x="-42.712" y="56.995" width="728.166" height="942.332"/>
		</defs>
		<clipPath id="SVGLEFT_SVGID_16_">
			<use xlink:href="#SVGLEFT_SVGID_15_"  overflow="visible"/>
		</clipPath>
		<g opacity="0.35" clip-path="url(#SVGLEFT_SVGID_16_)">
			<g>
				<defs>
					<rect id="SVGLEFT_SVGID_17_" x="258.954" y="374.492" width="163.3" height="10.958"/>
				</defs>
				<clipPath id="SVGLEFT_SVGID_18_">
					<use xlink:href="#SVGLEFT_SVGID_17_"  overflow="visible"/>
				</clipPath>
				<path clip-path="url(#SVGLEFT_SVGID_18_)" fill="none" stroke="#000000" stroke-miterlimit="10" stroke-dasharray="0.859,0.859" d="
					M259.028,379.654c0,0,47.346,6.024,79.157,5.105c31.809-0.918,83.971-9.682,83.971-9.682"/>
			</g>
		</g>
		<g opacity="0.35" clip-path="url(#SVGLEFT_SVGID_16_)">
			<g>
				<defs>
					<rect id="SVGLEFT_SVGID_19_" x="259.572" y="379.214" width="163.3" height="10.959"/>
				</defs>
				<clipPath id="SVGLEFT_SVGID_20_">
					<use xlink:href="#SVGLEFT_SVGID_19_"  overflow="visible"/>
				</clipPath>
				<path clip-path="url(#SVGLEFT_SVGID_20_)" fill="none" stroke="#000000" stroke-miterlimit="10" stroke-dasharray="0.859,0.859" d="
					M259.647,384.377c0,0,47.346,6.024,79.156,5.106c31.81-0.918,83.971-9.682,83.971-9.682"/>
			</g>
		</g>
		<path clip-path="url(#SVGLEFT_SVGID_16_)" fill="none" stroke="#000000" stroke-width="0.75" stroke-dasharray="0.859,0.859" d="
			M162.97,768.911c0,0,57.691-20.846,137.149,0.898c42.717,11.691,81.496,42.104,111.966,78.242
			c38.671,45.866,52.609,97.128,52.609,97.128"/>
		<path clip-path="url(#SVGLEFT_SVGID_16_)" fill="none" stroke="#000000" stroke-width="0.75" stroke-dasharray="0.859,0.859" d="
			M162.97,761.767c0,0,57.691-20.846,137.149,0.899c42.717,11.692,81.496,42.104,111.966,78.242
			c38.671,45.866,52.609,97.126,52.609,97.126"/>
		
			<line clip-path="url(#SVGLEFT_SVGID_16_)" fill="none" stroke="#000000" stroke-dasharray="0.859,0.859" x1="273.347" y1="412.657" x2="273.347" y2="773.087"/>
		
			<line clip-path="url(#SVGLEFT_SVGID_16_)" fill="none" stroke="#000000" stroke-dasharray="0.859,0.859" x1="380.518" y1="416.229" x2="380.518" y2="827.863"/>
		<path clip-path="url(#SVGLEFT_SVGID_16_)" fill="none" stroke="#000000" stroke-dasharray="0.859,0.859" d="M417.802,117.108
			c0,0-35.233-4.6-68.097-0.622c-39.445,4.775-74.954,29.192-74.954,29.192"/>
		<path clip-path="url(#SVGLEFT_SVGID_16_)" fill="none" stroke="#000000" stroke-dasharray="0.859,0.859" d="M414.681,111.363
			c0,0-32.112-3.618-64.976,0.361c-39.445,4.774-68.229,25.351-68.229,25.351"/>
	</g>
	<g clip-path="url(#SVGLEFT_SVGID_2_)">
		<defs>
			<rect id="SVGLEFT_SVGID_21_" x="-42.712" y="56.995" width="728.166" height="942.332"/>
		</defs>
		<clipPath id="SVGLEFT_SVGID_22_">
			<use xlink:href="#SVGLEFT_SVGID_21_"  overflow="visible"/>
		</clipPath>
		<g opacity="0.05" clip-path="url(#SVGLEFT_SVGID_22_)">
			<g>
				<defs>
					<rect id="SVGLEFT_SVGID_23_" x="330.939" y="197.906" width="94.143" height="466.406"/>
				</defs>
				<clipPath id="SVGLEFT_SVGID_24_">
					<use xlink:href="#SVGLEFT_SVGID_23_"  overflow="visible"/>
				</clipPath>
				<path clip-path="url(#SVGLEFT_SVGID_24_)" d="M425.082,275.682c0,0-0.604-24.812-8.718-39.908c-8.111-15.098-27.336-37.87-27.336-37.87
					s23.825,7.763,29.068,23.228C423.337,236.597,425.082,275.682,425.082,275.682"/>
				<path clip-path="url(#SVGLEFT_SVGID_24_)" d="M422.298,263.336c0,0-1.387-12.181-14.792-24.369
					c-13.405-12.188-24.845-17.074-24.845-17.074L422.298,263.336z"/>
				<path clip-path="url(#SVGLEFT_SVGID_24_)" d="M419.133,361.928c0,0-29.055-47.26-41.763-59.365
					c-12.707-12.105-26.359-22.201-26.359-22.201s23.609,27.531,30.124,38.197C387.651,329.227,419.133,361.928,419.133,361.928"/>
				<path clip-path="url(#SVGLEFT_SVGID_24_)" d="M376.116,349.069c0,0-21.689-13.873-28.001-20.274c-6.313-6.4-17.176-16.167-17.176-16.167
					s7.004,18.5,15.408,25.148C354.752,344.425,376.116,349.069,376.116,349.069"/>
				<path clip-path="url(#SVGLEFT_SVGID_24_)" d="M407.418,664.313c0,0-18.474-26.224-21.454-41.719s-1.192-36.95-1.192-36.95
					L407.418,664.313z"/>
				<path clip-path="url(#SVGLEFT_SVGID_24_)" d="M394.903,660.737c0,0-14.899-14.899-17.879-25.627c-2.98-10.729-1.789-19.072-1.789-19.072
					s-5.959,22.646-2.979,26.819C375.235,647.028,394.903,660.737,394.903,660.737"/>
			</g>
		</g>
	</g>
	<g clip-path="url(#SVGLEFT_SVGID_2_)">
		<defs>
			<path id="SVGLEFT_SVGID_25_" d="M164.207,777.713c0,0-3.692,13.783,79.275,19.512c108.432,7.49,189.919,88.464,216.115,158.289
				c-11.554-37.906-42.252-111.422-129.521-161.946c-31.429-18.196-68.333-23.181-99.348-23.179
				C193.141,770.389,164.207,777.713,164.207,777.713"/>
		</defs>
		<clipPath id="SVGLEFT_SVGID_26_">
			<use xlink:href="#SVGLEFT_SVGID_25_"  overflow="visible"/>
		</clipPath>
		
			<radialGradient id="SVGLEFT_SVGID_27_" cx="95.125" cy="914.3115" r="1.1902" gradientTransform="matrix(-221.9814 131.418 -66.2415 -111.8902 82001.4141 90686.8203)" gradientUnits="userSpaceOnUse">
			<stop  offset="0" style="stop-color:#FFFFFF"/>
			<stop  offset="1" style="stop-color:#000000"/>
		</radialGradient>
		<polygon clip-path="url(#SVGLEFT_SVGID_26_)" fill="url(#SVGLEFT_SVGID_27_)" points="381.978,639.276 79.359,818.432 238.135,1086.626 
			540.754,907.468 		"/>
	</g>
</g>
     <g id="CUSTOM"></g>
</svg>
