<?xml version="1.0" encoding="utf-8"?>
<!-- Generator: Adobe Illustrator 16.0.0, SVG Export Plug-In . SVG Version: 6.00 Build 0)  -->
<!DOCTYPE svg PUBLIC "-//W3C//DTD SVG 1.1//EN" "http://www.w3.org/Graphics/SVG/1.1/DTD/svg11.dtd">
<svg version="1.1" id="Layer_1" xmlns="http://www.w3.org/2000/svg" xmlns:xlink="http://www.w3.org/1999/xlink" x="0px" y="0px"
	 width="800.453px" height="1035.881px" viewBox="0 0 620 1035.881" enable-background="new 0 0 800.453 1035.881"
	 xml:space="preserve">
<g>
	<defs>
		<rect id="SVGBACK_SVGID_1_" x="-58.489" y="53.007" width="736.942" height="953.69"/>
	</defs>
	<clipPath id="SVGBACK_SVGID_2_">
		<use xlink:href="#SVGBACK_SVGID_1_"  overflow="visible"/>
	</clipPath>
	<g clip-path="url(#SVGBACK_SVGID_2_)">
		<defs>
			<rect id="SVGBACK_SVGID_3_" x="-58.489" y="53.007" width="736.942" height="953.69"/>
		</defs>
		<clipPath id="SVGBACK_SVGID_4_">
			<use xlink:href="#SVGBACK_SVGID_3_"  overflow="visible"/>
		</clipPath>
     <g id="MASKB">
      <g id="BODY">
		<path clip-path="url(#SVGBACK_SVGID_4_)" fill="#FDBB2D" d="M543.542,195.767c-11.355-3.983-61.607-23.721-77.52-34.018
			c-17.35-11.226-39.799-28.573-45.922-33.676c-5.279-4.4-10.558-13.338-15.183-17.029c-21.666-2.749-65.082-7.859-91.153-8.244
			c-27.831-0.407-78.257,6.458-99.323,9.535c-4.267,4.188-9.004,11.789-13.742,15.738c-6.123,5.103-28.573,22.45-45.922,33.676
			c-17.348,11.225-75.514,33.675-79.597,34.695c-0.504,0.126-1.527,0.724-2.959,1.73c1.54,30.912,15.632,85.358,20.308,111.542
			c5.102,28.573,15.307,50.004,15.307,62.25v18.516c1.106,2.466,2.484,5.828,3.664,9.578c4.083,6.37,7.561,12.53,7.561,15.786
			c2.194,4.894,5.459,17.533,6.124,25.511c1.02,12.247,4.082,36.738,12.246,53.064c8.164,16.329,22.267,124.824,24.308,134.009
			c2.041,9.184-5.104,43.881-5.104,52.044c0,8.164-19.388,68.371-20.409,84.699c-1.02,16.327-5.102,38.777-5.102,55.104
			c0,9.525-4.081,27.514-7.484,40.863c1.138,2.167,2.337,4.434,3.586,6.774c8.163,15.305,22.45,39.798,27.552,53.062
			c5.103,13.268,25.513,43.882,67.352,58.169c5.388,1.84,12.003,3.305,19.427,4.466l-0.038,1.656c0,0,20.844,1.475,48.02,2.074
			c6.982,0.182,13.998,0.255,20.861,0.247c6.864,0.008,13.877-0.065,20.859-0.247c27.178-0.6,48.021-2.074,48.021-2.074
			l-0.038-1.656c7.424-1.161,14.038-2.626,19.428-4.466c41.84-14.287,62.248-44.901,67.352-58.169
			c5.103-13.264,19.389-37.757,27.552-53.062c1.429-2.682,2.794-5.263,4.076-7.705c-3.464-10.546-8.505-27.743-8.505-38.462
			c0-16.328-4.081-38.778-5.103-55.105c-1.021-16.328-20.409-76.535-20.409-84.699s-7.143-42.86-5.103-52.044
			c2.042-9.184,13.766-109.657,21.931-125.984c8.162-16.328,14.316-56.254,15.337-68.498c0.707-8.478,2.311-16.389,3.782-23.112
			c0.723-4.724,8.63-18.607,14.7-28.74c0.924-6.118,1.886-12.597,2.765-18.743c3.061-21.43,15.307-109.19,22.449-130.621
			C543.764,221.4,544.023,206.053,543.542,195.767"/>
	 </g>
        <g id="INSERT_COLOR">
		<path clip-path="url(#SVGBACK_SVGID_6_)" fill="#BF2A43" d="M495.799,435.417c-1.021,12.244-7.175,52.17-15.337,68.498
			c-8.165,16.327-19.889,116.801-21.931,125.984c-2.04,9.184,5.103,43.88,5.103,52.043c0,8.165,19.389,68.372,20.409,84.7
			c1.021,16.327,5.103,38.777,5.103,55.105c0,10.719,5.041,27.916,8.505,38.462c6.041-11.513,10.21-19.85,10.21-19.85
			s-7.143-24.49-7.143-40.819c0-16.326-4.081-38.777-5.103-55.104c-1.021-16.327-20.409-76.535-20.409-84.698
			c0-8.164-7.144-42.86-5.103-52.044c2.042-9.186,17.348-106.129,25.512-122.457s10.205-61.229,11.226-73.474
			c0.705-8.479,4.347-17.442,6.521-22.156c0.298-1.956,0.606-3.98,0.919-6.044c-6.07,10.134-13.978,24.018-14.7,28.741
			C498.111,419.028,496.506,426.938,495.799,435.417"/>
		<path clip-path="url(#SVGBACK_SVGID_6_)" fill="#BF2A43" d="M136.226,765.173c1.021-16.328,20.409-76.535,20.409-84.699
			s7.144-42.86,5.104-52.044c-2.041-9.186-16.145-117.681-24.308-134.009c-8.163-16.327-11.226-40.818-12.245-53.064
			c-0.666-7.979-3.93-20.618-6.123-25.512c0-3.256-3.479-9.415-7.563-15.786c1.161,3.687,2.13,7.749,2.46,11.704
			c1.02,12.247,3.061,57.146,11.226,73.474c8.163,16.327,23.47,113.272,25.511,122.458c2.041,9.184-5.103,43.88-5.103,52.044
			c0,8.163-19.389,68.371-20.409,84.698c-1.021,16.327-5.103,38.778-5.103,55.104c0,16.329-7.144,40.819-7.144,40.819
			s4.395,8.788,10.701,20.78c3.403-13.35,7.484-31.341,7.484-40.863C131.125,803.95,135.206,781.5,136.226,765.173"/>
	</g>
        </g>
       
      </g>
	<g clip-path="url(#SVGBACK_SVGID_2_)">
		<defs>
			<rect id="SVGBACK_SVGID_5_" x="-58.489" y="53.007" width="736.942" height="953.69"/>
		</defs>
		<clipPath id="SVGBACK_SVGID_6_">
			<use xlink:href="#SVGBACK_SVGID_5_"  overflow="visible"/>
		</clipPath>
   
    </g>
	<g clip-path="url(#SVGBACK_SVGID_2_)">
		<defs>
			<rect id="SVGBACK_SVGID_7_" x="-58.489" y="53.007" width="736.942" height="953.69"/>
		</defs>
		<clipPath id="SVGBACK_SVGID_8_">
			<use xlink:href="#SVGBACK_SVGID_7_"  overflow="visible"/>
		</clipPath>
   <g id="MASKB">
    <g id="SLEEVES">
		<path clip-path="url(#SVGBACK_SVGID_8_)" fill="#004D86" d="M92.53,309.716c-4.675-26.184-18.768-80.629-20.308-111.543
			c-10.163,7.131-41.15,34.963-57.248,63.581C-3.395,294.41,0.688,382.169,0.688,386.252c0,4.082-1.02,17.348-1.02,17.348
			l-3.062,6.123c0,0,34.696,9.185,64.29,9.185c29.593,0,45.921-5.104,45.921-5.104l-1.02-27.552c0,0,0.868,1.613,2.041,4.23v-18.517
			C107.837,359.719,97.631,338.29,92.53,309.716"/>
		<path clip-path="url(#SVGBACK_SVGID_8_)" fill="#004D86" d="M621.133,403.6c0,0-1.02-13.267-1.02-17.349
			c0-4.081,4.081-91.841-14.287-124.496c-18.368-32.656-56.126-64.291-60.208-65.311c-0.337-0.084-1.052-0.318-2.077-0.677
			c0.482,10.286,0.223,25.633-4.046,38.435c-7.144,21.43-19.389,109.19-22.449,130.62c-1.175,8.219-2.499,17.035-3.684,24.784
			c0.965-2.094,1.642-3.354,1.642-3.354l-1.021,27.554c0,0,16.328,5.102,45.922,5.102c29.593,0,64.289-9.184,64.289-9.184
			L621.133,403.6z"/>
	</g>
     </g>
    </g>
	<g clip-path="url(#SVGBACK_SVGID_2_)">
		<defs>
			<rect id="SVGBACK_SVGID_9_" x="-58.489" y="53.007" width="736.942" height="953.69"/>
		</defs>
		<clipPath id="SVGBACK_SVGID_10_">
			<use xlink:href="#SVGBACK_SVGID_9_"  overflow="visible"/>
		</clipPath>
    <g id="COLLAR">
		<path clip-path="url(#SVGBACK_SVGID_10_)" fill="#BF2A43" d="M313.765,102.801c26.071,0.383,69.487,5.494,91.153,8.243
			c-0.739-0.59-1.463-1.057-2.166-1.339c-5.103-2.042-12.245-6.123-12.245-6.123l-7.144-13.267c0,0-29.594-11.223-54.084-11.223
			h-37.757c-24.492,0-54.086,11.223-54.086,11.223l-7.142,13.267c0,0-7.144,4.082-12.246,6.123c-1.153,0.461-2.36,1.408-3.606,2.63
			C235.508,109.259,285.934,102.392,313.765,102.801"/>
	</g>
    </g>
	<g clip-path="url(#SVGBACK_SVGID_2_)">
		<defs>
			<rect id="SVGBACK_SVGID_11_" x="-58.489" y="53.007" width="736.942" height="953.69"/>
		</defs>
		<clipPath id="SVGBACK_SVGID_12_">
			<use xlink:href="#SVGBACK_SVGID_11_"  overflow="visible"/>
		</clipPath>
		<path clip-path="url(#SVGBACK_SVGID_12_)" fill="none" stroke="#000000" stroke-miterlimit="10" stroke-dasharray="0.859,0.5" d="
			M114.98,836.279c0,0,53.064,101.027,98.987,120.416c45.92,19.389,131.641,18.367,166.336,9.184
			c34.696-9.184,68.37-36.738,79.597-53.064c11.226-16.327,47.961-77.556,47.961-77.556"/>
		<path clip-path="url(#SVGBACK_SVGID_12_)" fill="none" stroke="#000000" stroke-miterlimit="10" stroke-dasharray="0.859,0.5" d="
			M114.98,844.716c0,0,53.064,101.026,98.987,120.415c45.92,19.389,131.641,18.368,166.336,9.184
			c34.696-9.184,68.37-36.738,79.597-53.064c11.226-16.327,47.961-77.555,47.961-77.555"/>
		<path clip-path="url(#SVGBACK_SVGID_12_)" fill="none" stroke="#000000" stroke-miterlimit="10" stroke-dasharray="0.859,0.5" d="
			M-0.358,398.587c0,0,27.746,5.201,56.358,5.201c28.613,0,50.578-2.312,50.578-2.312"/>
		<path clip-path="url(#SVGBACK_SVGID_12_)" fill="none" stroke="#000000" stroke-miterlimit="10" stroke-dasharray="0.859,0.5" d="
			M-0.358,393.767c0,0,27.746,5.201,56.358,5.201c28.613,0,50.578-2.312,50.578-2.312"/>
		<path clip-path="url(#SVGBACK_SVGID_12_)" fill="none" stroke="#000000" stroke-miterlimit="10" stroke-dasharray="0.859,0.5" d="
			M621.163,398.587c0,0-27.745,5.201-56.357,5.201s-50.579-2.312-50.579-2.312"/>
		<path clip-path="url(#SVGBACK_SVGID_12_)" fill="none" stroke="#000000" stroke-miterlimit="10" stroke-dasharray="0.859,0.5" d="
			M621.163,393.767c0,0-27.745,5.201-56.357,5.201s-50.579-2.312-50.579-2.312"/>
		<path clip-path="url(#SVGBACK_SVGID_12_)" fill="none" stroke="#000000" stroke-miterlimit="10" stroke-dasharray="0.859,0.5" d="
			M230.066,104.145c0,0,47.902-7.897,83.699-7.37c35.796,0.526,76.854,6.843,76.854,6.843"/>
		<path clip-path="url(#SVGBACK_SVGID_12_)" fill="none" stroke="#000000" stroke-miterlimit="10" stroke-dasharray="0.859,0.5" d="
			M213.38,113.06c0,0,64.588-10.786,100.384-10.259c35.796,0.526,91.885,8.286,91.885,8.286"/>
		<path clip-path="url(#SVGBACK_SVGID_12_)" fill="none" stroke="#000000" stroke-miterlimit="10" stroke-dasharray="0.859,0.5" d="
			M107.573,390.213c0,0,0.264-6.002,0.264-18.248c0-12.246-10.204-33.677-15.307-62.25c-5.102-28.573-21.115-82.411-20.095-110.984"
			/>
		<path clip-path="url(#SVGBACK_SVGID_12_)" fill="none" stroke="#000000" stroke-miterlimit="10" stroke-dasharray="0.859,0.5" d="
			M543.542,195.767c0,0,3.097,17.005-4.047,38.434c-7.143,21.431-19.389,109.191-22.449,130.621
			c-3.063,21.429-3.282,23.048-3.282,23.048"/>
		<path clip-path="url(#SVGBACK_SVGID_12_)" fill="none" stroke="#000000" stroke-miterlimit="10" stroke-dasharray="0.859,0.5" d="
			M110.659,397.22c0,0,7.052,10.797,8.404,18.626c2.192,4.894,5.457,17.532,6.122,25.511c1.021,12.247,4.082,36.738,12.246,53.064
			c8.163,16.329,22.266,124.824,24.307,134.009c2.041,9.184-5.102,43.88-5.102,52.044s-19.389,68.371-20.411,84.699
			c-1.02,16.327-5.101,38.777-5.101,55.106c0,16.327-7.464,41.271-7.464,41.271"/>
		<path clip-path="url(#SVGBACK_SVGID_12_)" fill="none" stroke="#000000" stroke-miterlimit="10" stroke-dasharray="0.859,0.5" d="
			M498.079,860.449c0,0-8.934-22.375-8.934-38.701c0-16.328-4.081-38.778-5.103-55.105c-1.021-16.328-20.409-76.535-20.409-84.7
			c0-8.162-7.143-42.859-5.103-52.043c2.042-9.184,13.766-109.657,21.931-125.984c8.162-16.328,14.316-56.252,15.336-68.499
			c0.708-8.477,2.313-16.388,3.783-23.112c1.187-7.75,14.586-27.867,14.586-27.867"/>
	</g>
	<g clip-path="url(#SVGBACK_SVGID_2_)">
		<defs>
			<rect id="SVGBACK_SVGID_13_" x="-58.489" y="53.007" width="736.942" height="953.69"/>
		</defs>
		<clipPath id="SVGBACK_SVGID_14_">
			<use xlink:href="#SVGBACK_SVGID_13_"  overflow="visible"/>
		</clipPath>
		<g opacity="0.12" clip-path="url(#SVGBACK_SVGID_14_)">
			<g>
				<defs>
					<rect id="SVGBACK_SVGID_15_" x="4.017" y="247.969" width="590.151" height="448.198"/>
				</defs>
				<clipPath id="SVGBACK_SVGID_16_">
					<use xlink:href="#SVGBACK_SVGID_15_"  overflow="visible"/>
				</clipPath>
				<path clip-path="url(#SVGBACK_SVGID_16_)" fill="#897F76" d="M102.684,370.747c0,0-18.546-3.338-31.9-7.79
					c-13.353-4.452-25.594-7.79-35.98-17.063C24.417,336.621,4.017,312.14,4.017,312.14s35.98,31.158,38.947,34.125
					C45.933,349.234,102.684,370.747,102.684,370.747"/>
				<path clip-path="url(#SVGBACK_SVGID_16_)" fill="#897F76" d="M87.104,356.28l-22.627-10.756l-3.709-8.161
					c0,0,26.336,18.917,23.369,13.725c-2.967-5.194-39.69-47.109-46.368-55.641c-6.676-8.531-22.625-26.706-22.625-26.706
					s19.658,12.981,21.885,17.433c2.226,4.452,37.463,47.479,41.543,52.672c4.081,5.192,14.837,14.096,14.096,15.951
					C91.927,356.652,87.104,356.28,87.104,356.28"/>
				<path clip-path="url(#SVGBACK_SVGID_16_)" fill="#897F76" d="M61.14,351.087c0,0-25.224-26.336-29.303-31.157
					c-4.081-4.822-21.144-18.176-21.144-18.176l31.9,34.867L61.14,351.087z"/>
				<path clip-path="url(#SVGBACK_SVGID_16_)" fill="#897F76" d="M91.185,334.767c0,0-7.419-19.289-11.127-27.82
					c-3.71-8.53-10.017-41.172-16.321-40.431c-6.307,0.742-2.227,13.724,2.225,22.997c4.452,9.275,9.273,16.692,9.273,16.692
					s-10.757-3.709-17.063-13.724c-6.305-10.015-21.143-43.77-25.223-42.657c-4.08,1.112,2.595,19.288,9.272,30.044
					c6.677,10.758,22.998,26.336,31.53,34.868C82.283,323.269,91.185,334.767,91.185,334.767"/>
				<path clip-path="url(#SVGBACK_SVGID_16_)" fill="#897F76" d="M517.757,341.814c0,0,17.434-32.643,28.189-50.818
					c10.758-18.175,30.417-43.027,30.417-43.027s-32.643,57.495-34.497,59.72C540.012,309.914,517.757,341.814,517.757,341.814"/>
				<path clip-path="url(#SVGBACK_SVGID_16_)" fill="#897F76" d="M534.448,321.042c0,0,13.353-19.659,28.19-31.53
					c14.837-11.869,31.529-18.175,31.529-18.175s-22.256,11.871-33.755,26.707c-11.499,14.838-31.158,37.094-34.126,45.625
					c-2.967,8.531-2.226,18.175-2.226,18.175s8.902-2.225,5.193,1.113c-3.71,3.339,2.968,11.871-2.225,13.725
					c-5.193,1.854-8.161,2.597-8.161,4.822c0,2.227-7.418-1.484-7.418-1.484s4.079-29.675,5.563-33.013
					C518.498,343.669,534.448,321.042,534.448,321.042"/>
				<path clip-path="url(#SVGBACK_SVGID_16_)" fill="#897F76" d="M529.996,349.975c0,0-0.37-12.982,9.273-17.063
					c9.645-4.08,20.03-5.564,28.19-9.645c8.161-4.079,13.726-8.902,13.726-8.902s-10.387,14.096-23.369,18.547
					s-17.805,4.451-20.771,8.16C534.077,344.782,529.996,349.975,529.996,349.975"/>
				<path clip-path="url(#SVGBACK_SVGID_16_)" fill="#897F76" d="M168.562,685.933c0,0,94.526-20.471,136.069-19.267
					s147.509,29.501,147.509,29.501s-75.861-19.867-142.089-20.47C243.821,675.096,168.562,685.933,168.562,685.933"/>
			</g>
		</g>
	</g>
	<g clip-path="url(#SVGBACK_SVGID_2_)">
		<defs>
			<rect id="SVGBACK_SVGID_17_" x="-58.489" y="53.007" width="736.942" height="953.69"/>
		</defs>
		<clipPath id="SVGBACK_SVGID_18_">
			<use xlink:href="#SVGBACK_SVGID_17_"  overflow="visible"/>
		</clipPath>
		<path clip-path="url(#SVGBACK_SVGID_18_)" d="M323.964,119.297c5.934,0,10.741,5.147,10.741,11.492c0,6.347-4.808,11.494-10.741,11.494
			h-20.833c-5.929,0-10.741-5.146-10.741-11.494c0-6.345,4.813-11.492,10.741-11.492H323.964"/>
		<path clip-path="url(#SVGBACK_SVGID_18_)" fill="none" stroke="#000000" stroke-width="6.078" d="M323.964,119.297
			c5.934,0,10.741,5.147,10.741,11.492c0,6.347-4.808,11.494-10.741,11.494h-20.833c-5.929,0-10.741-5.146-10.741-11.494
			c0-6.345,4.813-11.492,10.741-11.492H323.964"/>
		<path clip-path="url(#SVGBACK_SVGID_18_)" d="M323.16,121.137c5.392,0,9.758,4.32,9.758,9.652c0,5.334-4.366,9.655-9.76,9.655h-18.922
			c-5.383,0-9.753-4.321-9.753-9.655c0-5.332,4.371-9.652,9.753-9.652H323.16"/>
		<path clip-path="url(#SVGBACK_SVGID_18_)" fill="none" stroke="#FFFFFF" stroke-width="0.658" d="M323.16,121.137
			c5.392,0,9.758,4.32,9.758,9.652c0,5.334-4.366,9.655-9.76,9.655h-18.922c-5.383,0-9.753-4.321-9.753-9.655
			c0-5.332,4.371-9.652,9.753-9.652H323.16"/>
		<path clip-path="url(#SVGBACK_SVGID_18_)" fill="#FFFFFF" d="M297.035,130.729c0-4.023,2.982-7.32,6.759-7.584v15.169
			C300.018,138.049,297.035,134.75,297.035,130.729"/>
		<polygon clip-path="url(#SVGBACK_SVGID_18_)" fill="#FFFFFF" points="311.293,129.734 304.989,123.125 311.293,123.125 		"/>
		<polygon clip-path="url(#SVGBACK_SVGID_18_)" fill="#FFFFFF" points="311.293,131.722 304.989,138.334 311.293,138.334 		"/>
		<polygon clip-path="url(#SVGBACK_SVGID_18_)" fill="#FFFFFF" points="319.206,129.734 325.516,123.125 319.206,123.125 		"/>
		<polygon clip-path="url(#SVGBACK_SVGID_18_)" fill="#FFFFFF" points="319.206,131.722 325.516,138.334 319.206,138.334 		"/>
		<rect x="312.634" y="123.125" clip-path="url(#SVGBACK_SVGID_18_)" fill="#FFFFFF" width="5.235" height="15.208"/>
		<path clip-path="url(#SVGBACK_SVGID_18_)" fill="#FFFFFF" d="M303.215,117.501v0.929h0.878v-0.313l0.321,0.067v0.176
			c0,0.273-0.076,0.346-0.345,0.346h-0.831c-0.268,0-0.346-0.073-0.346-0.346v-0.777c0-0.273,0.078-0.345,0.346-0.345h0.831
			c0.269,0,0.345,0.072,0.345,0.345v0.142l-0.321,0.054v-0.278H303.215z"/>
		<path clip-path="url(#SVGBACK_SVGID_18_)" fill="#FFFFFF" d="M305.273,117.239h1.032c0.263,0,0.346,0.072,0.346,0.345v0.776
			c0,0.273-0.083,0.347-0.346,0.347h-1.032c-0.266,0-0.35-0.074-0.35-0.347v-0.776C304.924,117.311,305.008,117.239,305.273,117.239
			 M306.324,117.502h-1.072v0.929h1.072V117.502z"/>
		<path clip-path="url(#SVGBACK_SVGID_18_)" fill="#FFFFFF" d="M307.198,117.239h0.265l0.656,0.889l0.649-0.889h0.261v1.468h-0.301v-0.908
			c0-0.027,0-0.08,0.004-0.155c-0.023,0.065-0.054,0.119-0.079,0.153l-0.522,0.733h-0.068l-0.524-0.735
			c-0.034-0.047-0.062-0.094-0.085-0.15c0.006,0.061,0.01,0.111,0.01,0.155v0.908h-0.265V117.239z"/>
		<path clip-path="url(#SVGBACK_SVGID_18_)" fill="#FFFFFF" d="M309.574,117.239h1.198c0.215,0,0.317,0.08,0.317,0.285v0.327
			c0,0.204-0.103,0.285-0.317,0.285h-0.876v0.572h-0.322V117.239z M309.896,117.494v0.387h0.732c0.1,0,0.144-0.019,0.144-0.116
			v-0.154c0-0.096-0.044-0.117-0.144-0.117H309.896z"/>
		<path clip-path="url(#SVGBACK_SVGID_18_)" fill="#FFFFFF" d="M311.455,117.239h1.193c0.218,0,0.318,0.08,0.318,0.285v0.345
			c0,0.204-0.101,0.284-0.318,0.284h-0.181l0.642,0.555h-0.461l-0.566-0.555h-0.302v0.555h-0.325V117.239z M311.78,117.494v0.408
			h0.728c0.104,0,0.144-0.021,0.144-0.116v-0.175c0-0.096-0.04-0.117-0.144-0.117H311.78z"/>
		<polygon clip-path="url(#SVGBACK_SVGID_18_)" fill="#FFFFFF" points="313.492,117.239 314.922,117.239 314.922,117.489 313.818,117.489 
			313.818,117.815 314.463,117.815 314.463,118.067 313.818,118.067 313.818,118.431 314.941,118.431 314.941,118.707 
			313.492,118.707 		"/>
		<path clip-path="url(#SVGBACK_SVGID_18_)" fill="#FFFFFF" d="M315.705,117.494v0.318h0.869c0.266,0,0.348,0.069,0.348,0.346v0.204
			c0,0.272-0.082,0.347-0.348,0.347h-0.863c-0.262,0-0.35-0.075-0.35-0.347v-0.044l0.289-0.058v0.171h0.987v-0.335h-0.872
			c-0.263,0-0.348-0.074-0.348-0.349v-0.162c0-0.272,0.085-0.345,0.348-0.345h0.795c0.249,0,0.344,0.069,0.344,0.322v0.032
			l-0.285,0.07v-0.169H315.705z"/>
		<path clip-path="url(#SVGBACK_SVGID_18_)" fill="#FFFFFF" d="M317.756,117.494v0.318h0.875c0.262,0,0.351,0.069,0.351,0.346v0.204
			c0,0.272-0.089,0.347-0.351,0.347h-0.863c-0.264,0-0.348-0.075-0.348-0.347v-0.044l0.287-0.058v0.171h0.987v-0.335h-0.874
			c-0.256,0-0.347-0.074-0.347-0.349v-0.162c0-0.272,0.091-0.345,0.347-0.345h0.795c0.25,0,0.345,0.069,0.345,0.322v0.032
			l-0.284,0.07v-0.169H317.756z"/>
		<rect x="319.521" y="117.239" clip-path="url(#SVGBACK_SVGID_18_)" fill="#FFFFFF" width="0.33" height="1.468"/>
		<path clip-path="url(#SVGBACK_SVGID_18_)" fill="#FFFFFF" d="M320.744,117.239h1.029c0.268,0,0.352,0.072,0.352,0.345v0.776
			c0,0.273-0.084,0.347-0.352,0.347h-1.029c-0.263,0-0.345-0.074-0.345-0.347v-0.776
			C320.399,117.311,320.481,117.239,320.744,117.239 M321.798,117.502h-1.079v0.929h1.079V117.502z"/>
		<path clip-path="url(#SVGBACK_SVGID_18_)" fill="#FFFFFF" d="M322.668,117.239h0.223l0.986,0.863c0.057,0.052,0.107,0.1,0.157,0.162
			c-0.005-0.122-0.011-0.208-0.011-0.251v-0.773h0.289v1.468h-0.219l-1.027-0.908c-0.041-0.036-0.08-0.073-0.119-0.119
			c0.015,0.114,0.015,0.19,0.015,0.234v0.793h-0.294V117.239z"/>
		<path clip-path="url(#SVGBACK_SVGID_18_)" fill="#FFFFFF" d="M309.647,143.18v0.931h1.015v-0.326h-0.531v-0.251h0.851v0.504
			c0,0.277-0.085,0.348-0.348,0.348h-0.966c-0.265,0-0.348-0.071-0.348-0.348v-0.771c0-0.278,0.083-0.347,0.348-0.347h0.966
			c0.255,0,0.348,0.068,0.348,0.331v0.033l-0.319,0.063v-0.167H309.647z"/>
		<polygon clip-path="url(#SVGBACK_SVGID_18_)" fill="#FFFFFF" points="311.533,142.92 312.965,142.92 312.965,143.171 311.861,143.171 
			311.861,143.498 312.503,143.498 312.503,143.746 311.861,143.746 311.861,144.111 312.979,144.111 312.979,144.385 
			311.533,144.385 		"/>
		<path clip-path="url(#SVGBACK_SVGID_18_)" fill="#FFFFFF" d="M313.971,142.921h0.314l0.801,1.464h-0.366l-0.169-0.32h-0.885l-0.164,0.32
			h-0.324L313.971,142.921z M314.415,143.801l-0.3-0.597l-0.309,0.597H314.415z"/>
		<path clip-path="url(#SVGBACK_SVGID_18_)" fill="#FFFFFF" d="M315.402,142.921h1.193c0.22,0,0.316,0.078,0.316,0.283v0.344
			c0,0.204-0.097,0.283-0.316,0.283h-0.178l0.641,0.554h-0.467l-0.563-0.554h-0.311v0.554h-0.316V142.921z M315.719,143.171v0.41
			h0.732c0.098,0,0.145-0.019,0.145-0.115v-0.177c0-0.096-0.047-0.118-0.145-0.118H315.719z"/>
		<path clip-path="url(#SVGBACK_SVGID_18_)" fill="#FFFFFF" d="M318.903,142.656c0.183,0.189,0.284,0.449,0.284,0.72
			c0,0.279-0.098,0.53-0.287,0.72c-0.193,0.196-0.436,0.304-0.69,0.304c-0.259,0-0.503-0.107-0.688-0.307
			c-0.186-0.198-0.285-0.446-0.285-0.717s0.104-0.531,0.294-0.733c0.177-0.191,0.417-0.29,0.68-0.29
			C318.476,142.354,318.719,142.46,318.903,142.656 M318.815,142.751c-0.159-0.173-0.369-0.262-0.6-0.262s-0.442,0.084-0.595,0.253
			c-0.165,0.175-0.258,0.399-0.258,0.634c0,0.234,0.09,0.454,0.246,0.622c0.164,0.176,0.377,0.265,0.594,0.265
			c0.23,0,0.438-0.089,0.607-0.262c0.162-0.162,0.246-0.379,0.246-0.616C319.057,143.138,318.979,142.917,318.815,142.751
			 M318.697,143.095c0,0.166-0.092,0.278-0.251,0.313l0.245,0.527h-0.236l-0.221-0.494h-0.205v0.494h-0.209v-1.159h0.416
			C318.549,142.776,318.697,142.885,318.697,143.095 M318.029,142.92v0.384h0.174c0.189,0,0.276-0.049,0.276-0.184
			c0-0.147-0.087-0.2-0.284-0.2H318.029z"/>
	</g>
</g>
   <g id="CUSTOM"></g>
</svg>
