<?xml version="1.0" encoding="utf-8"?>
<!-- Generator: Adobe Illustrator 16.0.0, SVG Export Plug-In . SVG Version: 6.00 Build 0)  -->
<!DOCTYPE svg PUBLIC "-//W3C//DTD SVG 1.1//EN" "http://www.w3.org/Graphics/SVG/1.1/DTD/svg11.dtd">
<svg version="1.1" id="Layer_1" xmlns="http://www.w3.org/2000/svg" xmlns:xlink="http://www.w3.org/1999/xlink" x="0px" y="0px"
	 width="800.453px" height="1035.881px" viewBox="0 0 620 1035.881" enable-background="new 0 0 800.453 1035.881"
	 xml:space="preserve">
<g>
	<defs>
		<rect id="SVGRIGHT_SVGID_1_" x="-41.949" y="55.795" width="731.402" height="946.521"/>
	</defs>
	<clipPath id="SVGRIGHT_SVGID_2_">
		<use xlink:href="#SVGRIGHT_SVGID_1_"  overflow="visible"/>
	</clipPath>
	<g clip-path="url(#SVGRIGHT_SVGID_2_)">
		<defs>
			<rect id="SVGRIGHT_SVGID_3_" x="-41.949" y="55.795" width="731.402" height="946.521"/>
		</defs>
		<clipPath id="SVGRIGHT_SVGID_4_">
			<use xlink:href="#SVGRIGHT_SVGID_3_"  overflow="visible"/>
		</clipPath>
     <g id="MASKR">
    <g id="BODY">
		<path clip-path="url(#SVGRIGHT_SVGID_4_)" fill="#FDBB2D" d="M473.893,354.505c-3.003-33.022-55.13-122.979-61.545-130.59
			c-4.558-5.411-44.471-52.088-74.688-88.341c-17.085-9.095-44.072-22.196-62.906-25.21c-19.576-3.131-51.6-1.59-70.964-0.197
			c-1.883,2.993-3.087,5.544-3.087,7.173c0,7.505-39.029,63.044-51.036,112.579c-12.009,49.535,3.001,148.604,10.508,175.623
			c7.504,27.019,34.522,99.069,34.522,120.083c0,21.017-45.606,457.404-42.495,457.448c2.611,0.04,11.004-81.749,85.97-150.072
			V405.778h108.143v370.079c56.163-9.687,109.697,3.859,109.697,3.859c7.506-37.527,10.375-153.521,14.878-188.046
			c4.505-34.523-1.501-127.589,3.003-145.602C478.395,428.056,476.894,387.528,473.893,354.505"/>
		<path clip-path="url(#SVGRIGHT_SVGID_4_)" fill="none" stroke="#897F76" stroke-width="0.302" d="M473.893,354.505
			c-3.003-33.022-55.13-122.979-61.545-130.59c-4.558-5.411-44.471-52.088-74.688-88.341c-17.085-9.095-44.072-22.196-62.906-25.21
			c-19.576-3.131-51.6-1.59-70.964-0.197c-1.883,2.993-3.087,5.544-3.087,7.173c0,7.505-39.029,63.044-51.036,112.579
			c-12.009,49.535,3.001,148.604,10.508,175.623c7.504,27.019,34.522,99.069,34.522,120.083c0,21.017-45.606,457.404-42.495,457.448
			c2.611,0.04,11.004-81.749,85.97-150.072V405.778h108.143v370.079c56.163-9.687,109.697,3.859,109.697,3.859
			c7.506-37.527,10.375-153.521,14.878-188.046c4.505-34.523-1.501-127.589,3.003-145.602
			C478.395,428.056,476.894,387.528,473.893,354.505z"/>
	</g>
         <g id="INSERT_COLOR">
		<path clip-path="url(#SVGRIGHT_SVGID_6_)" fill="#BF2A43" d="M238.17,405.778V833c14.461-13.184,31.383-25.865,51.237-37.357
			c17.894-10.359,37.556-16.449,56.908-19.785V405.778H238.17z"/>
      </g>
	</g>
 
       	</g>
	<g clip-path="url(#SVGRIGHT_SVGID_2_)">
		<defs>
			<rect id="SVGRIGHT_SVGID_5_" x="-41.949" y="55.795" width="731.402" height="946.521"/>
		</defs>
		<clipPath id="SVGRIGHT_SVGID_6_">
			<use xlink:href="#SVGRIGHT_SVGID_5_"  overflow="visible"/>
		</clipPath>
  
		<path clip-path="url(#SVGRIGHT_SVGID_6_)" fill="none" stroke="#897F76" stroke-width="0.302" d="M238.17,405.778V833
			c14.461-13.184,31.383-25.865,51.237-37.357c17.894-10.359,37.556-16.449,56.908-19.785V405.778H238.17z"/>
	</g>
	<g clip-path="url(#SVGRIGHT_SVGID_2_)">
		<defs>
			<rect id="SVGRIGHT_SVGID_7_" x="-41.949" y="55.795" width="731.402" height="946.521"/>
		</defs>
		<clipPath id="SVGRIGHT_SVGID_8_">
			<use xlink:href="#SVGRIGHT_SVGID_7_"  overflow="visible"/>
		</clipPath>
		<g opacity="0.2" clip-path="url(#SVGRIGHT_SVGID_8_)">
			<g>
				<defs>
					<rect id="SVGRIGHT_SVGID_9_" x="171.974" y="126.305" width="218.703" height="310.728"/>
				</defs>
				<clipPath id="SVGRIGHT_SVGID_10_">
					<use xlink:href="#SVGRIGHT_SVGID_9_"  overflow="visible"/>
				</clipPath>
				<g clip-path="url(#SVGRIGHT_SVGID_10_)">
					<defs>
						<rect id="SVGRIGHT_SVGID_11_" x="171.974" y="126.305" width="218.703" height="310.728"/>
					</defs>
					<clipPath id="SVGRIGHT_SVGID_12_">
						<use xlink:href="#SVGRIGHT_SVGID_11_"  overflow="visible"/>
					</clipPath>
					<g clip-path="url(#SVGRIGHT_SVGID_12_)">
						
							<!--<image overflow="visible" width="183" height="260" xlink:href="52CBC799.png"  transform="matrix(1.1951 0 0 1.1951 171.9741 126.3052)">
						</image>-->
					</g>
				</g>
			</g>
		</g>   
      <g id="MASKR">
    <g id="SLEEVES">
		<path clip-path="url(#SVGRIGHT_SVGID_8_)" fill="#004D86" d="M371.58,241.437c-1.244-36.128-10.759-84.015-60.223-93.286
			c-49.461-9.271-79.282,5.864-79.282,5.864s-15.871,6.409-24.015,27.02c-8.145,20.613-16.683,53.59-17.146,68.668
			c-1.078,35.08,7.575,80.589,7.317,91.201c-0.258,10.609-3.213,62.351-3.213,62.351s9.748,12.971,83.278,15.306
			c74.392,2.362,82.657-14.169,82.657-14.169s-1.634-68.918,0.291-78.214C363.168,316.88,372.825,277.564,371.58,241.437"/>
      </g>
        </g>
		<path clip-path="url(#SVGRIGHT_SVGID_8_)" fill="none" stroke="#897F76" stroke-width="0.302" d="M371.58,241.437
			c-1.244-36.128-10.759-84.015-60.223-93.286c-49.461-9.271-79.282,5.864-79.282,5.864s-15.871,6.409-24.015,27.02
			c-8.145,20.613-16.683,53.59-17.146,68.668c-1.078,35.08,7.575,80.589,7.317,91.201c-0.258,10.609-3.213,62.351-3.213,62.351
			s9.748,12.971,83.278,15.306c74.392,2.362,82.657-14.169,82.657-14.169s-1.634-68.918,0.291-78.214
			C363.168,316.88,372.825,277.564,371.58,241.437z"/>
	</g>
	<g clip-path="url(#SVGRIGHT_SVGID_2_)">
		<defs>
			<rect id="SVGRIGHT_SVGID_13_" x="-41.949" y="55.795" width="731.402" height="946.521"/>
		</defs>
		<clipPath id="SVGRIGHT_SVGID_14_">
			<use xlink:href="#SVGRIGHT_SVGID_13_"  overflow="visible"/>
		</clipPath>
    <g id="COLLAR">
		<path clip-path="url(#SVGRIGHT_SVGID_14_)" fill="#BF2A43" d="M274.753,110.365c18.833,3.012,45.821,16.113,62.906,25.208
			c-16.02-19.215-29.687-35.088-34.887-39.248c-15.011-12.009-76.553-13.51-76.553-13.51s-15.638,16.56-22.43,27.351
			C223.154,108.773,255.177,107.231,274.753,110.365"/>
      </g>
		<path clip-path="url(#SVGRIGHT_SVGID_14_)" fill="none" stroke="#897F76" stroke-width="0.25" d="M274.753,110.365
			c18.833,3.012,45.821,16.113,62.906,25.208c-16.02-19.215-29.687-35.088-34.887-39.248c-15.011-12.009-76.553-13.51-76.553-13.51
			s-15.638,16.56-22.43,27.351C223.154,108.773,255.177,107.231,274.753,110.365z"/>
	</g>
	<g clip-path="url(#SVGRIGHT_SVGID_2_)">
		<defs>
			<rect id="SVGRIGHT_SVGID_15_" x="-41.949" y="55.795" width="731.402" height="946.521"/>
		</defs>
		<clipPath id="SVGRIGHT_SVGID_16_">
			<use xlink:href="#SVGRIGHT_SVGID_15_"  overflow="visible"/>
		</clipPath>
		<g opacity="0.35" clip-path="url(#SVGRIGHT_SVGID_16_)">
			<g>
				<defs>
					<rect id="SVGRIGHT_SVGID_17_" x="196.816" y="374.704" width="164.027" height="11.007"/>
				</defs>
				<clipPath id="SVGRIGHT_SVGID_18_">
					<use xlink:href="#SVGRIGHT_SVGID_17_"  overflow="visible"/>
				</clipPath>
				<path clip-path="url(#SVGRIGHT_SVGID_18_)" fill="none" stroke="#000000" stroke-miterlimit="10" stroke-dasharray="0.859,0.859" d="
					M360.77,379.889c0,0-47.558,6.051-79.509,5.129c-31.952-0.922-84.345-9.725-84.345-9.725"/>
			</g>
		</g>
		<g opacity="0.35" clip-path="url(#SVGRIGHT_SVGID_16_)">
			<g>
				<defs>
					<rect id="SVGRIGHT_SVGID_19_" x="196.197" y="379.447" width="164.026" height="11.008"/>
				</defs>
				<clipPath id="SVGRIGHT_SVGID_20_">
					<use xlink:href="#SVGRIGHT_SVGID_19_"  overflow="visible"/>
				</clipPath>
				<path clip-path="url(#SVGRIGHT_SVGID_20_)" fill="none" stroke="#000000" stroke-miterlimit="10" stroke-dasharray="0.859,0.859" d="
					M360.146,384.633c0,0-47.556,6.05-79.507,5.129c-31.953-0.923-84.345-9.726-84.345-9.726"/>
			</g>
		</g>
		<path clip-path="url(#SVGRIGHT_SVGID_16_)" fill="none" stroke="#000000" stroke-width="0.75" stroke-dasharray="0.859,0.859" d="
			M457.255,770.878c0,0-57.949-20.939-137.758,0.901c-42.909,11.743-81.86,42.291-112.464,78.591
			c-38.843,46.068-52.844,97.559-52.844,97.559"/>
		<path clip-path="url(#SVGRIGHT_SVGID_16_)" fill="none" stroke="#000000" stroke-width="0.75" stroke-dasharray="0.859,0.859" d="
			M457.255,763.702c0,0-57.949-20.94-137.758,0.901c-42.909,11.743-81.86,42.291-112.464,78.591
			c-38.843,46.069-52.844,97.557-52.844,97.557"/>
		
			<line clip-path="url(#SVGRIGHT_SVGID_16_)" fill="none" stroke="#000000" stroke-dasharray="0.859,0.859" x1="346.385" y1="413.039" x2="346.385" y2="775.071"/>
		
			<line clip-path="url(#SVGRIGHT_SVGID_16_)" fill="none" stroke="#000000" stroke-dasharray="0.859,0.859" x1="238.74" y1="416.627" x2="238.74" y2="830.09"/>
		<path clip-path="url(#SVGRIGHT_SVGID_16_)" fill="none" stroke="#000000" stroke-dasharray="0.859,0.859" d="M201.29,116.177
			c0,0,35.388-4.622,68.397-0.626c39.623,4.796,75.289,29.322,75.289,29.322"/>
		<path clip-path="url(#SVGRIGHT_SVGID_16_)" fill="none" stroke="#000000" stroke-dasharray="0.859,0.859" d="M204.424,110.405
			c0,0,32.253-3.634,65.263,0.362c39.623,4.796,68.534,25.463,68.534,25.463"/>
	</g>
	<g clip-path="url(#SVGRIGHT_SVGID_2_)">
		<defs>
			<rect id="SVGRIGHT_SVGID_21_" x="-41.949" y="55.795" width="731.402" height="946.521"/>
		</defs>
		<clipPath id="SVGRIGHT_SVGID_22_">
			<use xlink:href="#SVGRIGHT_SVGID_21_"  overflow="visible"/>
		</clipPath>
		<g opacity="0.05" clip-path="url(#SVGRIGHT_SVGID_22_)">
			<g>
				<defs>
					<rect id="SVGRIGHT_SVGID_23_" x="193.979" y="197.333" width="94.56" height="468.48"/>
				</defs>
				<clipPath id="SVGRIGHT_SVGID_24_">
					<use xlink:href="#SVGRIGHT_SVGID_23_"  overflow="visible"/>
				</clipPath>
				<path clip-path="url(#SVGRIGHT_SVGID_24_)" d="M193.978,275.455c0,0,0.605-24.922,8.754-40.086c8.149-15.164,27.457-38.038,27.457-38.038
					s-23.929,7.798-29.194,23.331C195.73,236.196,193.978,275.455,193.978,275.455"/>
				<path clip-path="url(#SVGRIGHT_SVGID_24_)" d="M196.773,263.054c0,0,1.395-12.235,14.859-24.477
					c13.464-12.243,24.955-17.149,24.955-17.149L196.773,263.054z"/>
				<path clip-path="url(#SVGRIGHT_SVGID_24_)" d="M199.954,362.084c0,0,29.182-47.47,41.947-59.63
					c12.764-12.158,26.477-22.299,26.477-22.299s-23.715,27.654-30.259,38.368C231.576,329.238,199.954,362.084,199.954,362.084"/>
				<path clip-path="url(#SVGRIGHT_SVGID_24_)" d="M243.16,349.169c0,0,21.787-13.935,28.126-20.365c6.341-6.428,17.252-16.239,17.252-16.239
					s-7.035,18.583-15.477,25.261S243.16,349.169,243.16,349.169"/>
				<path clip-path="url(#SVGRIGHT_SVGID_24_)" d="M211.718,665.813c0,0,18.557-26.339,21.551-41.903c2.994-15.564,1.197-37.115,1.197-37.115
					L211.718,665.813z"/>
				<path clip-path="url(#SVGRIGHT_SVGID_24_)" d="M224.289,662.222c0,0,14.967-14.966,17.959-25.741s1.796-19.157,1.796-19.157
					s5.987,22.748,2.995,26.939C244.044,648.452,224.289,662.222,224.289,662.222"/>
			</g>
		</g>
	</g>
	<g clip-path="url(#SVGRIGHT_SVGID_2_)">
		<defs>
			<path id="SVGRIGHT_SVGID_25_" d="M289.407,795.643c-87.658,50.749-118.494,124.592-130.099,162.666
				c26.313-70.135,108.164-151.469,217.077-158.992c83.338-5.754,79.627-19.598,79.627-19.598s-29.063-7.359-66.816-7.359
				C358.042,772.358,320.975,777.366,289.407,795.643"/>
		</defs>
		<clipPath id="SVGRIGHT_SVGID_26_">
			<use xlink:href="#SVGRIGHT_SVGID_25_"  overflow="visible"/>
		</clipPath>
		
			<radialGradient id="SVGRIGHT_SVGID_27_" cx="94.5947" cy="913.665" r="1.1958" gradientTransform="matrix(221.9814 131.418 66.2415 -111.8902 -81221.4609 90686.8203)" gradientUnits="userSpaceOnUse">
			<stop  offset="0" style="stop-color:#FFFFFF"/>
			<stop  offset="1" style="stop-color:#000000"/>
		</radialGradient>
		<polygon clip-path="url(#SVGRIGHT_SVGID_26_)" fill="url(#SVGRIGHT_SVGID_27_)" points="237.275,640.665 541.237,820.617 381.756,1090.003 
			77.792,910.05 		"/>
	</g>
</g>
      <g id="CUSTOM"></g>
</svg>
