<?xml version="1.0" encoding="utf-8"?>
<!-- Generator: Adobe Illustrator 16.0.0, SVG Export Plug-In . SVG Version: 6.00 Build 0)  -->
<!DOCTYPE svg PUBLIC "-//W3C//DTD SVG 1.1//EN" "http://www.w3.org/Graphics/SVG/1.1/DTD/svg11.dtd">
<svg version="1.1" id="Layer_1" xmlns="http://www.w3.org/2000/svg" xmlns:xlink="http://www.w3.org/1999/xlink" x="0px" y="0px"
	 width="800.453px" height="1035.881px" viewBox="0 0 620 1035.881" enable-background="new 0 0 800.453 1035.881"
	 xml:space="preserve">
<g>
	<defs>
		<rect id="SVGFRONT_SVGID_1_" x="-77" y="9.008" width="790.393" height="1022.863"/>
	</defs>
	<clipPath id="SVGFRONT_SVGID_2_">
		<use xlink:href="#SVGFRONT_SVGID_1_"  overflow="visible"/>
	</clipPath>
	<g clip-path="url(#SVGFRONT_SVGID_2_)">
		<defs>
			<rect id="SVGFRONT_SVGID_3_" x="-77" y="9.008" width="790.393" height="1022.863"/>
		</defs>
		<clipPath id="SVGFRONT_SVGID_4_">
			<use xlink:href="#SVGFRONT_SVGID_3_"  overflow="visible"/>
		</clipPath>
    <g id="MASKF">
      <g id="BODY">
		<path clip-path="url(#SVGFRONT_SVGID_4_)" fill="#FDBB2D" d="M566.097,191.305c0,0-29.55-9.85-71.141-26.268
			c-26.251-10.362-49.441-25.953-64.357-37.147c-7.393,8.061-38.304,36.012-112.024,36.742
			c-73.096,0.725-108.3-30.542-117.668-40.531c-14.404,11.202-39.942,29.341-69.319,40.937
			c-41.59,16.417-71.141,26.268-71.141,26.268s-0.969,0.701-2.476,1.743v0.006c0.018,0.837,0.041,1.762,0.069,2.75
			c0.002,0.079,0.006,0.159,0.009,0.241c0.012,0.462,0.028,0.938,0.045,1.425c0.001,0.029,0.001,0.057,0.002,0.085
			c0.018,0.511,0.037,1.04,0.06,1.576c0.004,0.104,0.007,0.211,0.011,0.318c0.019,0.432,0.037,0.871,0.057,1.318
			c0.007,0.136,0.012,0.27,0.019,0.408c0.025,0.545,0.052,1.099,0.082,1.659c0.002,0.073,0.006,0.146,0.01,0.217
			c0.026,0.488,0.053,0.978,0.082,1.473c0.011,0.175,0.021,0.349,0.031,0.523c0.027,0.47,0.057,0.942,0.088,1.417
			c0.007,0.111,0.014,0.22,0.021,0.33c0.038,0.575,0.079,1.151,0.122,1.73c0.012,0.157,0.025,0.313,0.036,0.469
			c0.034,0.444,0.069,0.887,0.105,1.332c0.016,0.175,0.029,0.352,0.045,0.526c0.049,0.579,0.099,1.156,0.155,1.731
			c0.005,0.063,0.011,0.127,0.018,0.191c0.05,0.516,0.103,1.03,0.156,1.542c0.019,0.174,0.038,0.345,0.056,0.517
			c0.05,0.454,0.102,0.904,0.155,1.35c0.016,0.128,0.03,0.256,0.045,0.384c0.068,0.552,0.14,1.101,0.213,1.639
			c0.018,0.132,0.037,0.259,0.055,0.388c0.061,0.426,0.123,0.847,0.188,1.26c0.023,0.151,0.046,0.301,0.069,0.451
			c0.084,0.521,0.171,1.036,0.261,1.536c2.33,12.814,15.144,59.993,18.056,73.973c2.912,13.98,16.309,87.952,18.056,96.689
			c0.121,0.599,0.228,1.228,0.327,1.876c0.008,0.054,0.016,0.11,0.023,0.164c0.092,0.606,0.173,1.229,0.247,1.865
			c0.01,0.068,0.018,0.136,0.025,0.204c0.073,0.645,0.138,1.301,0.196,1.963c0.004,0.048,0.01,0.096,0.014,0.145
			c0.061,0.706,0.113,1.421,0.159,2.133c0.001,0.01,0.001,0.021,0.001,0.031c0.045,0.707,0.083,1.412,0.114,2.112
			c0.003,0.06,0.005,0.116,0.007,0.174c0.03,0.664,0.054,1.32,0.072,1.965c0.002,0.059,0.003,0.117,0.007,0.175
			c0.018,0.653,0.032,1.295,0.044,1.918c7.138,24.503,20.583,72.392,19.776,82.872c-1.094,14.229,14.25,86.925,19.723,114.286
			c5.473,27.363,12.04,97.408,6.567,126.96c-5.472,29.552-18.606,108.354-21.889,142.284c-3.284,33.93-3.284,59.103-3.284,59.103
			s-4.378,4.377-4.378,8.755s2.188,14.229,2.188,14.229l-0.59,7.272c6.448,1.928,14.822,3.507,25.742,4.307
			c44.873,3.283,98.503,4.378,114.919,7.662c4.271,0.854,9.583,1.707,15.349,2.504l-0.025,0.779c0,0,21.889,3.283,36.117,3.283
			c1.613,0,3.459-0.045,5.473-0.124c2.015,0.079,3.861,0.124,5.473,0.124c14.229,0,36.118-3.283,36.118-3.283l-0.026-0.779
			c5.766-0.797,11.078-1.65,15.349-2.504c16.417-3.284,70.047-4.379,114.921-7.662c12.668-0.927,21.932-2.901,28.705-5.256
			l0.211-7.222c0,0,2.19-9.85,2.19-14.228c0-4.379-4.378-8.757-4.378-8.757s0-25.173-3.285-59.102
			c-3.281-33.93-16.416-112.732-21.89-142.283c-5.473-29.552,1.097-99.599,6.567-126.961c5.473-27.362,18.147-90.403,17.052-104.632
			c-0.764-9.923,12.496-64.289,18.259-88.509c-0.008-5.035,0.188-12.511,1.256-17.846c1.747-8.737,15.144-82.709,18.056-96.689
			c2.912-13.979,15.728-61.159,18.057-73.973c1.643-9.043,2.127-22.139,2.269-29.068
			C566.893,191.882,566.097,191.305,566.097,191.305"/>
	</g>
       <g id="INSERT_COLOR">
		<path clip-path="url(#SVGFRONT_SVGID_6_)" fill="#BF2A43" d="M114.098,941.487c0-4.378,4.378-8.755,4.378-8.755s0-25.173,3.284-59.103
			c3.283-33.93,16.417-112.732,21.889-142.284c5.474-29.55-1.093-99.597-6.567-126.96c-5.472-27.361-20.816-100.058-19.723-114.285
			c0.806-10.48-12.639-58.37-19.778-82.873c0,0.017,0.002,0.035,0.002,0.05c0,0.012,0,0.023,0,0.036
			c0.012,0.667,0.018,1.314,0.021,1.933c0.035-0.088,0.056-0.139,0.056-0.139s6.567,35.023,5.472,49.252
			c-1.093,14.229,6.567,102.881,12.041,130.243c5.471,27.362,12.038,97.41,6.566,126.961s-18.607,108.354-21.89,142.282
			c-3.284,33.93-3.284,59.103-3.284,59.103s-4.376,4.377-4.376,8.757c0,4.378,2.188,14.228,2.188,14.228v7.662
			c0,0,1.269,9.396,21.321,15.394l0.59-7.272C116.286,955.717,114.098,945.865,114.098,941.487"/>
		<path clip-path="url(#SVGFRONT_SVGID_6_)" fill="none" stroke="#897F76" stroke-width="0.25" stroke-miterlimit="10" d="M114.098,941.487
			c0-4.378,4.378-8.755,4.378-8.755s0-25.173,3.284-59.103c3.283-33.93,16.417-112.732,21.889-142.284
			c5.474-29.55-1.093-99.597-6.567-126.96c-5.472-27.361-20.816-100.058-19.723-114.285c0.806-10.48-12.639-58.37-19.778-82.873
			c0,0.017,0.002,0.035,0.002,0.05c0,0.012,0,0.023,0,0.036c0.012,0.667,0.018,1.314,0.021,1.933
			c0.035-0.088,0.056-0.139,0.056-0.139s6.567,35.023,5.472,49.252c-1.093,14.229,6.567,102.881,12.041,130.243
			c5.471,27.362,12.038,97.41,6.566,126.961s-18.607,108.354-21.89,142.282c-3.284,33.93-3.284,59.103-3.284,59.103
			s-4.376,4.377-4.376,8.757c0,4.378,2.188,14.228,2.188,14.228v7.662c0,0,1.269,9.396,21.321,15.394l0.59-7.272
			C116.286,955.717,114.098,945.865,114.098,941.487z"/>
		<path clip-path="url(#SVGFRONT_SVGID_6_)" fill="#BF2A43" d="M510.278,498.856c1.096,14.229-11.579,77.27-17.052,104.632
			c-5.471,27.362-12.04,97.409-6.567,126.961c5.474,29.551,18.608,108.355,21.89,142.283c3.285,33.929,3.285,59.102,3.285,59.102
			s4.378,4.378,4.378,8.757c0,4.378-2.19,14.228-2.19,14.228l-0.211,7.222c17.229-5.987,18.357-14.444,18.357-14.444v-7.662
			c0,0,2.189-9.85,2.189-14.228c0-4.38-4.377-8.756-4.377-8.756s0-25.174-3.283-59.104c-3.283-33.928-16.419-112.731-21.892-142.282
			c-5.471-29.551,1.096-99.599,6.568-126.961c5.472-27.362,13.134-116.015,12.04-130.243c-0.944-12.24,3.782-39.851,5.123-47.333
			c-0.002-0.212,0-0.456,0-0.678C522.774,434.569,509.517,488.934,510.278,498.856"/>
		<path clip-path="url(#SVGFRONT_SVGID_6_)" fill="none" stroke="#897F76" stroke-width="0.25" stroke-miterlimit="10" d="M510.278,498.856
			c1.096,14.229-11.579,77.27-17.052,104.632c-5.471,27.362-12.04,97.409-6.567,126.961c5.474,29.551,18.608,108.355,21.89,142.283
			c3.285,33.929,3.285,59.102,3.285,59.102s4.378,4.378,4.378,8.757c0,4.378-2.19,14.228-2.19,14.228l-0.211,7.222
			c17.229-5.987,18.357-14.444,18.357-14.444v-7.662c0,0,2.189-9.85,2.189-14.228c0-4.38-4.377-8.756-4.377-8.756
			s0-25.174-3.283-59.104c-3.283-33.928-16.419-112.731-21.892-142.282c-5.471-29.551,1.096-99.599,6.568-126.961
			c5.472-27.362,13.134-116.015,12.04-130.243c-0.944-12.24,3.782-39.851,5.123-47.333c-0.002-0.212,0-0.456,0-0.678
			C522.774,434.569,509.517,488.934,510.278,498.856z"/>
	</g>
    </g>
   
  </g>
	<g clip-path="url(#SVGFRONT_SVGID_2_)">
		<defs>
			<rect id="SVGFRONT_SVGID_5_" x="-77" y="9.008" width="790.393" height="1022.863"/>
		</defs>
		<clipPath id="SVGFRONT_SVGID_6_">
			<use xlink:href="#SVGFRONT_SVGID_5_"  overflow="visible"/>
		</clipPath>
   
    </g>
	<g clip-path="url(#SVGFRONT_SVGID_2_)">
		<defs>
			<rect id="SVGFRONT_SVGID_7_" x="-77" y="9.008" width="790.393" height="1022.863"/>
		</defs>
		<clipPath id="SVGFRONT_SVGID_8_">
			<use xlink:href="#SVGFRONT_SVGID_7_"  overflow="visible"/>
		</clipPath>
     <g id="MASKF">
    <g id="SLEEVES">
		<path clip-path="url(#SVGFRONT_SVGID_8_)" fill="#FDBB2D" d="M555.325,351.243c-0.008,0.034-0.014,0.055-0.014,0.055
			S555.317,351.273,555.325,351.243"/>
		<path clip-path="url(#SVGFRONT_SVGID_8_)" fill="#004D86" d="M97.583,407.313c0-0.012,0-0.023,0-0.033c-0.01-0.64-0.026-1.298-0.045-1.97
			c-0.001-0.058-0.004-0.116-0.005-0.175c-0.02-0.646-0.043-1.301-0.072-1.965c-0.002-0.058-0.005-0.116-0.007-0.174
			c-0.031-0.7-0.068-1.405-0.114-2.112c0-0.01-0.001-0.021-0.001-0.03c-0.046-0.713-0.1-1.428-0.16-2.134
			c-0.004-0.048-0.008-0.097-0.014-0.145c-0.058-0.662-0.122-1.319-0.196-1.963c-0.008-0.067-0.015-0.135-0.024-0.204
			c-0.073-0.637-0.156-1.259-0.246-1.864c-0.008-0.055-0.016-0.111-0.024-0.165c-0.099-0.648-0.207-1.277-0.327-1.876
			c-1.747-8.737-15.144-82.709-18.056-96.689c-2.911-13.979-15.727-61.159-18.055-73.973c-0.092-0.5-0.179-1.015-0.263-1.536
			c-0.023-0.15-0.046-0.3-0.069-0.45c-0.065-0.414-0.126-0.834-0.186-1.261c-0.018-0.129-0.038-0.256-0.056-0.388
			c-0.075-0.539-0.146-1.087-0.213-1.639c-0.017-0.127-0.03-0.256-0.045-0.384c-0.054-0.445-0.105-0.896-0.155-1.35
			c-0.019-0.171-0.037-0.343-0.057-0.517c-0.054-0.512-0.106-1.024-0.155-1.542c-0.006-0.063-0.013-0.127-0.019-0.191
			c-0.054-0.576-0.106-1.152-0.155-1.731c-0.016-0.175-0.03-0.351-0.044-0.526c-0.036-0.445-0.072-0.888-0.106-1.332
			c-0.011-0.156-0.024-0.311-0.036-0.468c-0.042-0.581-0.082-1.156-0.121-1.732c-0.008-0.109-0.013-0.218-0.021-0.33
			c-0.031-0.475-0.061-0.948-0.089-1.417c-0.01-0.176-0.02-0.349-0.03-0.523c-0.03-0.495-0.056-0.985-0.081-1.473
			c-0.004-0.071-0.008-0.144-0.011-0.217c-0.029-0.561-0.056-1.113-0.081-1.659c-0.006-0.138-0.013-0.272-0.02-0.408
			c-0.02-0.447-0.037-0.886-0.056-1.318c-0.003-0.106-0.009-0.213-0.012-0.318c-0.021-0.538-0.042-1.065-0.059-1.576
			c-0.001-0.029-0.002-0.056-0.002-0.084c-0.017-0.491-0.032-0.965-0.046-1.427c-0.003-0.081-0.006-0.161-0.007-0.241
			c-0.03-0.989-0.053-1.912-0.071-2.75v-0.006c-3.868,2.665-11.405,7.627-16.131,9.203c-6.567,2.189-43.779,30.646-54.725,68.954
			c-10.943,38.305-13.133,132.432-13.133,132.432l-3.284,16.417l-3.283,9.85c0,0,38.307,9.85,71.142,12.039
			c32.835,2.189,53.629,2.189,53.629,2.189s2.189-2.189,1.095-8.756c-1.095-6.566-2.188-8.755-1.095-12.039
			c1.022-3.069,4.915-12.83,5.418-14.089C97.6,408.628,97.593,407.98,97.583,407.313"/>
		<path clip-path="url(#SVGFRONT_SVGID_8_)" fill="#004D86" d="M655.847,420.053l-3.285-16.416c0,0-2.189-94.126-13.134-132.434
			c-10.945-38.307-48.156-66.764-54.725-68.953c-4.887-1.628-12.8-6.891-16.529-9.478c-0.142,6.928-0.626,20.024-2.269,29.067
			c-2.329,12.814-15.145,59.994-18.057,73.973c-2.912,13.979-16.309,87.952-18.056,96.688c-1.115,5.57-1.281,13.504-1.256,18.526
			c0.218-1.215,0.35-1.919,0.35-1.919s4.377,10.945,5.471,14.228c1.094,3.284,0,5.473-1.094,12.041
			c-1.096,6.566,1.094,8.755,1.094,8.755s20.796,0,53.629-2.189c32.836-2.189,71.144-12.039,71.144-12.039L655.847,420.053z"/>
	</g>
       </g>
    </g>
	<g clip-path="url(#SVGFRONT_SVGID_2_)">
		<defs>
			<rect id="SVGFRONT_SVGID_9_" x="-77" y="9.008" width="790.393" height="1022.863"/>
		</defs>
		<clipPath id="SVGFRONT_SVGID_10_">
			<use xlink:href="#SVGFRONT_SVGID_9_"  overflow="visible"/>
		</clipPath>
    <g id="COLLAR">
		<path clip-path="url(#SVGFRONT_SVGID_10_)" fill="#BF2A43" d="M318.575,164.632c73.722-0.729,104.631-28.681,112.023-36.741
			c-8.718-6.541-14.616-11.585-16.634-13.199c-5.473-4.378-5.473-7.661-10.945-10.945c-5.473-3.283-7.66-13.133-18.605-18.605
			c-6.967-3.483-38.314-4.75-60.188-5.21l-0.01-0.264c0,0-4.302,0-10.945,0.081c-6.643-0.081-10.946-0.081-10.946-0.081
			l-0.007,0.264c-21.874,0.459-53.222,1.727-60.188,5.21c-10.945,5.472-13.133,15.322-18.606,18.605
			c-5.473,3.284-5.473,6.567-10.944,10.945c-1.606,1.287-5.684,4.753-11.673,9.41C210.275,134.089,245.478,165.356,318.575,164.632"
			/>
	</g>
    </g>
	<g clip-path="url(#SVGFRONT_SVGID_2_)">
		<defs>
			<rect id="SVGFRONT_SVGID_11_" x="-77" y="9.008" width="790.393" height="1022.863"/>
		</defs>
		<clipPath id="SVGFRONT_SVGID_12_">
			<use xlink:href="#SVGFRONT_SVGID_11_"  overflow="visible"/>
		</clipPath>
		<path clip-path="url(#SVGFRONT_SVGID_12_)" d="M58.445,205.046c0.027,0.47,0.057,0.943,0.087,1.419
			C58.502,205.989,58.473,205.517,58.445,205.046"/>
		<path clip-path="url(#SVGFRONT_SVGID_12_)" d="M58.334,203.052c0.025,0.485,0.053,0.978,0.081,1.472
			C58.387,204.029,58.359,203.537,58.334,203.052"/>
		<path clip-path="url(#SVGFRONT_SVGID_12_)" d="M97.582,407.278c0,0.012,0,0.023,0,0.033C97.582,407.302,97.582,407.29,97.582,407.278"/>
		<path clip-path="url(#SVGFRONT_SVGID_12_)" d="M58.242,201.174c0.025,0.547,0.052,1.1,0.08,1.662
			C58.293,202.273,58.267,201.719,58.242,201.174"/>
		<path clip-path="url(#SVGFRONT_SVGID_12_)" d="M58.048,196.044c0.014,0.462,0.028,0.936,0.046,1.425
			C58.076,196.981,58.062,196.506,58.048,196.044"/>
		<path clip-path="url(#SVGFRONT_SVGID_12_)" d="M58.167,199.448c0.019,0.432,0.036,0.872,0.056,1.319
			C58.203,200.32,58.186,199.88,58.167,199.448"/>
		<path clip-path="url(#SVGFRONT_SVGID_12_)" d="M57.97,193.054c0.019,0.838,0.041,1.76,0.071,2.75
			C58.011,194.815,57.988,193.891,57.97,193.054"/>
		<path clip-path="url(#SVGFRONT_SVGID_12_)" d="M97.603,409.247"/>
		<path clip-path="url(#SVGFRONT_SVGID_12_)" d="M58.096,197.555c0.018,0.511,0.037,1.039,0.058,1.575
			C58.133,198.594,58.114,198.066,58.096,197.555"/>
		<path clip-path="url(#SVGFRONT_SVGID_12_)" d="M58.555,206.794c0.037,0.575,0.079,1.152,0.122,1.73
			C58.634,207.946,58.592,207.369,58.555,206.794"/>
		<path clip-path="url(#SVGFRONT_SVGID_12_)" d="M59.248,214.832c0.05,0.455,0.102,0.904,0.155,1.35
			C59.35,215.736,59.298,215.286,59.248,214.832"/>
		<path clip-path="url(#SVGFRONT_SVGID_12_)" d="M59.716,218.594c0.06,0.426,0.124,0.846,0.188,1.259
			C59.84,219.439,59.776,219.02,59.716,218.594"/>
		<path clip-path="url(#SVGFRONT_SVGID_12_)" d="M59.448,216.565c0.069,0.554,0.138,1.1,0.213,1.64
			C59.587,217.665,59.517,217.119,59.448,216.565"/>
		<path clip-path="url(#SVGFRONT_SVGID_12_)" d="M97.164,398.575c0.004,0.048,0.009,0.096,0.014,0.143
			C97.173,398.67,97.168,398.623,97.164,398.575"/>
		<path clip-path="url(#SVGFRONT_SVGID_12_)" d="M96.944,396.407c0.008,0.069,0.016,0.136,0.025,0.205
			C96.96,396.543,96.952,396.476,96.944,396.407"/>
		<path clip-path="url(#SVGFRONT_SVGID_12_)" d="M59.973,220.303c0.084,0.521,0.17,1.038,0.261,1.537
			C60.144,221.341,60.057,220.824,59.973,220.303"/>
		<path clip-path="url(#SVGFRONT_SVGID_12_)" d="M59.036,212.774c0.05,0.516,0.103,1.03,0.157,1.542
			C59.139,213.804,59.086,213.29,59.036,212.774"/>
		<path clip-path="url(#SVGFRONT_SVGID_12_)" d="M58.712,208.994c0.034,0.443,0.068,0.887,0.106,1.33
			C58.781,209.881,58.746,209.437,58.712,208.994"/>
		<path clip-path="url(#SVGFRONT_SVGID_12_)" d="M96.674,394.379c0.008,0.054,0.016,0.108,0.024,0.162
			C96.689,394.487,96.682,394.433,96.674,394.379"/>
		<path clip-path="url(#SVGFRONT_SVGID_12_)" d="M97.452,402.995c0.002,0.058,0.005,0.116,0.007,0.175
			C97.457,403.111,97.455,403.053,97.452,402.995"/>
		<path clip-path="url(#SVGFRONT_SVGID_12_)" d="M58.862,210.852c0.049,0.579,0.101,1.156,0.155,1.73
			C58.963,212.007,58.912,211.431,58.862,210.852"/>
		<path clip-path="url(#SVGFRONT_SVGID_12_)" d="M97.336,400.853c0,0.01,0.001,0.021,0.001,0.03
			C97.338,400.874,97.336,400.863,97.336,400.853"/>
		<path clip-path="url(#SVGFRONT_SVGID_12_)" d="M97.532,405.135c0.001,0.059,0.004,0.116,0.005,0.175
			C97.536,405.251,97.533,405.193,97.532,405.135"/>
		<path clip-path="url(#SVGFRONT_SVGID_12_)" d="M97.336,400.853c-0.045-0.714-0.098-1.427-0.16-2.135
			C97.238,399.426,97.291,400.139,97.336,400.853"/>
		<path clip-path="url(#SVGFRONT_SVGID_12_)" d="M97.603,409.247c-0.002-0.619-0.009-1.266-0.021-1.935
			C97.594,407.981,97.6,408.628,97.603,409.247"/>
		<path clip-path="url(#SVGFRONT_SVGID_12_)" d="M96.674,394.379c-0.1-0.648-0.207-1.277-0.327-1.878
			C96.467,393.102,96.574,393.73,96.674,394.379"/>
		<path clip-path="url(#SVGFRONT_SVGID_12_)" d="M97.582,407.278c-0.01-0.639-0.026-1.298-0.044-1.968
			C97.556,405.98,97.572,406.639,97.582,407.278"/>
		<path clip-path="url(#SVGFRONT_SVGID_12_)" d="M97.452,402.995c-0.031-0.7-0.069-1.405-0.114-2.111
			C97.383,401.59,97.421,402.295,97.452,402.995"/>
		<path clip-path="url(#SVGFRONT_SVGID_12_)" d="M97.532,405.135c-0.02-0.646-0.043-1.301-0.072-1.964
			C97.489,403.833,97.512,404.489,97.532,405.135"/>
		<path clip-path="url(#SVGFRONT_SVGID_12_)" d="M96.944,396.407c-0.073-0.637-0.156-1.259-0.246-1.864
			C96.788,395.148,96.871,395.771,96.944,396.407"/>
		<path clip-path="url(#SVGFRONT_SVGID_12_)" d="M97.164,398.575c-0.058-0.664-0.124-1.319-0.196-1.963
			C97.041,397.256,97.106,397.912,97.164,398.575"/>
		<path clip-path="url(#SVGFRONT_SVGID_12_)" d="M59.248,214.832c-0.019-0.171-0.037-0.344-0.055-0.517
			C59.211,214.488,59.229,214.661,59.248,214.832"/>
		<path clip-path="url(#SVGFRONT_SVGID_12_)" d="M58.096,197.555c-0.001-0.029-0.001-0.057-0.002-0.085
			C58.095,197.499,58.095,197.526,58.096,197.555"/>
		<path clip-path="url(#SVGFRONT_SVGID_12_)" d="M58.167,199.448c-0.003-0.106-0.009-0.213-0.012-0.318
			C58.158,199.234,58.164,199.342,58.167,199.448"/>
		<path clip-path="url(#SVGFRONT_SVGID_12_)" d="M58.334,203.052c-0.004-0.073-0.008-0.145-0.011-0.217
			C58.326,202.907,58.33,202.979,58.334,203.052"/>
		<path clip-path="url(#SVGFRONT_SVGID_12_)" d="M58.242,201.174c-0.006-0.137-0.011-0.272-0.019-0.407
			C58.23,200.903,58.235,201.037,58.242,201.174"/>
		<path clip-path="url(#SVGFRONT_SVGID_12_)" d="M57.97,193.047v0.006V193.047z"/>
		<path clip-path="url(#SVGFRONT_SVGID_12_)" d="M58.048,196.044c-0.002-0.081-0.006-0.162-0.007-0.241
			C58.042,195.883,58.045,195.963,58.048,196.044"/>
		<path clip-path="url(#SVGFRONT_SVGID_12_)" d="M59.973,220.303c-0.023-0.148-0.046-0.299-0.07-0.45
			C59.927,220.004,59.95,220.154,59.973,220.303"/>
		<path clip-path="url(#SVGFRONT_SVGID_12_)" d="M59.036,212.774c-0.006-0.063-0.013-0.128-0.02-0.191
			C59.023,212.646,59.03,212.71,59.036,212.774"/>
		<path clip-path="url(#SVGFRONT_SVGID_12_)" d="M59.448,216.565c-0.016-0.127-0.029-0.256-0.045-0.382
			C59.418,216.309,59.432,216.438,59.448,216.565"/>
		<path clip-path="url(#SVGFRONT_SVGID_12_)" d="M59.716,218.594c-0.018-0.13-0.037-0.259-0.055-0.389
			C59.68,218.335,59.698,218.463,59.716,218.594"/>
		<path clip-path="url(#SVGFRONT_SVGID_12_)" d="M58.712,208.994c-0.011-0.157-0.024-0.313-0.036-0.47
			C58.688,208.681,58.702,208.837,58.712,208.994"/>
		<path clip-path="url(#SVGFRONT_SVGID_12_)" d="M58.862,210.852c-0.015-0.175-0.03-0.351-0.044-0.527
			C58.833,210.5,58.847,210.677,58.862,210.852"/>
		<path clip-path="url(#SVGFRONT_SVGID_12_)" d="M58.555,206.794c-0.007-0.109-0.014-0.218-0.022-0.329
			C58.541,206.576,58.548,206.685,58.555,206.794"/>
		<path clip-path="url(#SVGFRONT_SVGID_12_)" d="M58.445,205.046c-0.01-0.174-0.021-0.349-0.029-0.522
			C58.425,204.697,58.435,204.872,58.445,205.046"/>
		<path clip-path="url(#SVGFRONT_SVGID_12_)" fill="#FFFFFF" d="M318.628,129.117c45.202,0.43,79.642-22.817,79.21-26.691
			c-0.428-3.875-7.842-11.069-12.578-14.513c-4.736-3.444-27.25-5.745-72.453-5.497c-45.72,0.25-61.21,1.999-67.456,3.497
			c-6.248,1.499-16.532,12.908-15.24,15.491C231.402,103.987,273.691,128.688,318.628,129.117"/>
		<g opacity="0.35" clip-path="url(#SVGFRONT_SVGID_12_)">
			<g>
				<defs>
					<rect id="SVGFRONT_SVGID_13_" x="230" y="82.398" width="167.844" height="46.725"/>
				</defs>
				<clipPath id="SVGFRONT_SVGID_14_">
					<use xlink:href="#SVGFRONT_SVGID_13_"  overflow="visible"/>
				</clipPath>
				<g clip-path="url(#SVGFRONT_SVGID_14_)">
					<defs>
						<path id="SVGFRONT_SVGID_15_" d="M318.627,129.117c45.202,0.43,79.643-22.817,79.213-26.691c-0.432-3.875-7.844-11.069-12.58-14.513
							c-4.736-3.444-27.25-5.745-72.452-5.497c-45.722,0.25-61.211,1.999-67.457,3.497c-6.247,1.499-16.533,12.908-15.242,15.491
							S273.691,128.688,318.627,129.117"/>
					</defs>
					<clipPath id="SVGFRONT_SVGID_16_">
						<use xlink:href="#SVGFRONT_SVGID_15_"  overflow="visible"/>
					</clipPath>
					
						<radialGradient id="SVGFRONT_SVGID_17_" cx="93.915" cy="916.8125" r="1.2911" gradientTransform="matrix(102.1332 0 0 -40.5422 -9276.6875 37254.4922)" gradientUnits="userSpaceOnUse">
						<stop  offset="0" style="stop-color:#FFFFFF"/>
						<stop  offset="1" style="stop-color:#FFFFFF"/>
					</radialGradient>
					<rect x="228.818" y="82.168" clip-path="url(#SVGFRONT_SVGID_16_)" fill="url(#SVGFRONT_SVGID_17_)" width="169.452" height="47.378"/>
				</g>
				<g clip-path="url(#SVGFRONT_SVGID_14_)">
					<defs>
						<path id="SVGFRONT_SVGID_18_" d="M318.627,129.117c45.202,0.43,79.643-22.817,79.213-26.691c-0.432-3.875-7.844-11.069-12.58-14.513
							c-4.736-3.444-27.25-5.745-72.452-5.497c-45.722,0.25-61.211,1.999-67.457,3.497c-6.247,1.499-16.533,12.908-15.242,15.491
							S273.691,128.688,318.627,129.117"/>
					</defs>
					<clipPath id="SVGFRONT_SVGID_19_">
						<use xlink:href="#SVGFRONT_SVGID_18_"  overflow="visible"/>
					</clipPath>
					
						<radialGradient id="SVGFRONT_SVGID_20_" cx="93.915" cy="916.8125" r="1.2911" gradientTransform="matrix(102.1332 0 0 -40.5422 -9276.6875 37254.4922)" gradientUnits="userSpaceOnUse">
						<stop  offset="0" style="stop-color:#FFFFFF"/>
						<stop  offset="0.1085" style="stop-color:#EBEBEB"/>
						<stop  offset="0.3309" style="stop-color:#B7B7B7"/>
						<stop  offset="0.6481" style="stop-color:#646464"/>
						<stop  offset="1" style="stop-color:#000000"/>
					</radialGradient>
					<rect x="228.818" y="82.168" clip-path="url(#SVGFRONT_SVGID_19_)" fill="url(#SVGFRONT_SVGID_20_)" width="169.452" height="47.378"/>
				</g>
			</g>
		</g>
		<g opacity="0.5" clip-path="url(#SVGFRONT_SVGID_12_)">
			<g>
				<defs>
					<rect id="SVGFRONT_SVGID_21_" x="-5.888" y="91.767" width="645.324" height="873.056"/>
				</defs>
				<clipPath id="SVGFRONT_SVGID_22_">
					<use xlink:href="#SVGFRONT_SVGID_21_"  overflow="visible"/>
				</clipPath>
				<g opacity="0.1" clip-path="url(#SVGFRONT_SVGID_22_)">
					<g>
						<defs>
							<rect id="SVGFRONT_SVGID_23_" x="372.876" y="91.767" width="195.298" height="864.331"/>
						</defs>
						<clipPath id="SVGFRONT_SVGID_24_">
							<use xlink:href="#SVGFRONT_SVGID_23_"  overflow="visible"/>
						</clipPath>
						<path clip-path="url(#SVGFRONT_SVGID_24_)" fill="#897F76" d="M529.793,392.501c1.747-8.737,15.144-82.709,18.056-96.688
							c2.912-13.979,15.728-61.159,18.057-73.973c1.643-9.043,2.127-22.139,2.269-29.067c-1.281-0.889-2.077-1.468-2.077-1.468
							s-29.552-9.85-71.141-26.268c-41.59-16.416-75.52-45.967-80.991-50.344c-5.473-4.38-5.473-7.663-10.945-10.946
							c-3.622-2.174-5.82-7.224-10.059-11.979l-2.227,0.777c3.553,3.396,6.822,7.346,7.105,9.881
							c0.227,2.046-9.283,9.498-24.964,16.011c1.269,2.631,2.185,5.116,2.332,7.027c0.563,7.339,0,6.774,0,17.502
							c0,10.728,3.951,21.453,10.727,37.263c6.776,15.808,14.114,7.338,19.196,29.923c5.082,22.583-25.406,18.631-25.406,18.631
							s27.665,3.952,58.153,2.258c30.487-1.694,23.712,0,45.167-2.258c21.455-2.259,21.455-5.646,54.199,3.388
							c32.746,9.033,7.905,29.358,5.646,52.506c-2.261,23.148-35.005,19.761-44.604,32.182
							c-9.597,12.421-3.386,108.966-2.257,119.693c1.13,10.727-22.018,29.357-22.018,29.357s-6.213,18.068-10.164,31.617
							c-3.952,13.551,6.212,41.781,5.646,72.269c-0.563,30.487-28.228,70.572-37.827,92.592c-9.598,22.02-2.258,43.473,13.55,91.465
							c15.809,47.988,6.212,6.209,18.067,20.889c11.856,14.68,6.21,9.032,12.421,29.922c6.211,20.891,8.468,52.509,8.468,52.509
							s2.261,32.744,10.164,62.668c7.903,29.922,4.518,16.373,24.843,33.875l6.437,2.384c6.008-4.469,6.553-8.502,6.553-8.502
							v-7.663c0,0,2.189-9.849,2.189-14.227c0-4.38-4.375-8.757-4.375-8.757s0-25.173-3.285-59.103
							c-3.283-33.928-16.419-112.731-21.892-142.282c-5.471-29.551,1.096-99.599,6.568-126.961
							c5.472-27.362,13.134-116.015,12.04-130.243c-0.942-12.24,3.782-39.851,5.123-47.333
							C528.512,406.005,528.678,398.071,529.793,392.501"/>
					</g>
				</g>
				<g opacity="0.1" clip-path="url(#SVGFRONT_SVGID_22_)">
					<g>
						<defs>
							<rect id="SVGFRONT_SVGID_25_" x="57.97" y="96.011" width="220.277" height="868.812"/>
						</defs>
						<clipPath id="SVGFRONT_SVGID_26_">
							<use xlink:href="#SVGFRONT_SVGID_25_"  overflow="visible"/>
						</clipPath>
						<path clip-path="url(#SVGFRONT_SVGID_26_)" fill="#897F76" d="M274.699,121.928c-25.279-7.635-43.742-18.833-44.588-20.524
							c-0.414-0.827,0.368-2.563,1.816-4.586c-0.594-0.286-1.166-0.558-1.688-0.807c-2.333,3.262-4.173,6.211-6.716,7.736
							c-5.473,3.283-5.473,6.566-10.944,10.944c-5.472,4.379-39.401,33.929-80.992,50.346
							c-41.59,16.418-71.142,26.269-71.142,26.269s-0.966,0.7-2.474,1.739c0.148,6.998,0.642,19.871,2.264,28.795
							c2.33,12.814,15.144,59.994,18.056,73.973c2.912,13.979,16.309,87.952,18.056,96.688c0.99,4.948,1.231,11.764,1.256,16.746
							c0.035-0.088,0.056-0.14,0.056-0.14s6.567,35.024,5.472,49.253c-1.093,14.229,6.567,102.881,12.041,130.243
							c5.471,27.362,12.038,97.41,6.566,126.961s-18.607,108.354-21.89,142.282c-3.284,33.93-3.284,59.104-3.284,59.104
							s-4.376,4.376-4.376,8.756c0,4.378,2.188,14.228,2.188,14.228v7.662c0,0,1.556,11.572,28.615,17.227
							c2.313-13.151,5.75-36.281,3.8-48.371c-2.822-17.502,2.259-14.114,10.163-25.972c7.904-11.856,6.21-51.377,7.339-98.804
							c1.129-47.425,90.335-24.276,90.335-24.276s7.338-10.163,6.21-24.277c-1.13-14.113-45.731-76.22-54.201-90.334
							c-8.469-14.115,4.517-12.421,4.517-12.421s-12.421-5.646-17.503-33.31c-5.081-27.665,8.47-61.54,20.89-90.899
							c12.421-29.358,48.554-59.845,48.554-59.845s-38.956,6.209-76.217-10.729c-37.264-16.937-39.522-45.731-44.603-134.372
							c-5.082-88.64,3.387-106.143,23.712-107.273c20.326-1.128,92.027,22.584,102.754,27.101c0,0,6.775-14.115,4.518-22.583
							c-2.258-8.47,4.517-22.019,12.42-36.699c7.904-14.679,7.904-7.904,10.728-10.162c2.823-2.258,0.564-15.243-1.129-19.195
							c-1.694-3.953-0.564-5.082,2.824-14.116C278.718,126.631,277.345,124.425,274.699,121.928"/>
					</g>
				</g>
				<g opacity="0.12" clip-path="url(#SVGFRONT_SVGID_22_)">
					<g>
						<defs>
							<rect id="SVGFRONT_SVGID_27_" x="-5.888" y="264.917" width="101.061" height="145.1"/>
						</defs>
						<clipPath id="SVGFRONT_SVGID_28_">
							<use xlink:href="#SVGFRONT_SVGID_27_"  overflow="visible"/>
						</clipPath>
						<path clip-path="url(#SVGFRONT_SVGID_28_)" fill="#897F76" d="M70.895,357.509c-2.823-4.517-68.315-92.592-68.315-92.592
							s1.13,8.469,5.646,18.067s50.248,67.186,50.248,67.186s-41.216-45.167-43.473-47.989c-2.258-2.823-20.89-17.504-20.89-15.245
							s14.115,17.503,25.406,28.229c11.292,10.727,34.439,33.876,45.167,50.248c10.729,16.374,30.488,44.604,30.488,44.604
							s-3.952-16.374-6.775-23.149C85.574,380.093,73.718,362.027,70.895,357.509"/>
					</g>
				</g>
				<g opacity="0.12" clip-path="url(#SVGFRONT_SVGID_22_)">
					<g>
						<defs>
							<rect id="SVGFRONT_SVGID_29_" x="7.097" y="251.367" width="44.037" height="50.812"/>
						</defs>
						<clipPath id="SVGFRONT_SVGID_30_">
							<use xlink:href="#SVGFRONT_SVGID_29_"  overflow="visible"/>
						</clipPath>
						<path clip-path="url(#SVGFRONT_SVGID_30_)" fill="#897F76" d="M26.293,279.032c-3.952-5.647-19.195-27.664-19.195-27.664
							s6.209,23.147,18.631,35.003c12.421,11.857,25.406,15.809,25.406,15.809S30.245,284.678,26.293,279.032"/>
					</g>
				</g>
				<g opacity="0.12" clip-path="url(#SVGFRONT_SVGID_22_)">
					<g>
						<defs>
							<rect id="SVGFRONT_SVGID_31_" x="536.682" y="281.855" width="102.754" height="103.319"/>
						</defs>
						<clipPath id="SVGFRONT_SVGID_32_">
							<use xlink:href="#SVGFRONT_SVGID_31_"  overflow="visible"/>
						</clipPath>
						<path clip-path="url(#SVGFRONT_SVGID_32_)" fill="#897F76" d="M637.175,281.855c0,0-7.338,14.679-13.548,25.97
							c-6.211,11.293-32.746,32.746-46.862,40.65c-14.112,7.906-40.083,36.699-40.083,36.699s11.854-2.259,19.194-7.904
							c7.339-5.646,54.201-24.277,72.267-50.248C646.21,301.05,637.175,281.855,637.175,281.855"/>
					</g>
				</g>
				<g opacity="0.12" clip-path="url(#SVGFRONT_SVGID_22_)">
					<g>
						<defs>
							<rect id="SVGFRONT_SVGID_33_" x="546.276" y="367.672" width="81.866" height="33.666"/>
						</defs>
						<clipPath id="SVGFRONT_SVGID_34_">
							<use xlink:href="#SVGFRONT_SVGID_33_"  overflow="visible"/>
						</clipPath>
						<path clip-path="url(#SVGFRONT_SVGID_34_)" fill="#897F76" d="M592.008,389.691c-15.808,4.518-45.729,10.163-45.729,10.163
							s21.453,5.647,47.99-5.081c26.535-10.729,33.874-27.101,33.874-27.101S607.818,385.174,592.008,389.691"/>
					</g>
				</g>
				<g opacity="0.12" clip-path="url(#SVGFRONT_SVGID_22_)">
					<g>
						<defs>
							<rect id="SVGFRONT_SVGID_35_" x="555.325" y="292.432" width="60.396" height="58.812"/>
						</defs>
						<clipPath id="SVGFRONT_SVGID_36_">
							<use xlink:href="#SVGFRONT_SVGID_35_"  overflow="visible"/>
						</clipPath>
						<path clip-path="url(#SVGFRONT_SVGID_36_)" fill="#897F76" d="M593.704,299.921c-10.729,12.421-14.116,16.938-23.714,22.583
							c-9.347,5.499-14.406,27.58-14.665,28.739c0.227-1.002,3.811-15.962,16.359-21.964c12.985-6.21,22.02-5.646,28.229-16.373
							c6.21-10.726,15.809-18.631,15.809-18.631S604.431,287.5,593.704,299.921"/>
					</g>
				</g>
			</g>
		</g>
	</g>
	<g clip-path="url(#SVGFRONT_SVGID_2_)">
		<defs>
			<rect id="SVGFRONT_SVGID_37_" x="-77" y="9.008" width="790.393" height="1022.863"/>
		</defs>
		<clipPath id="SVGFRONT_SVGID_38_">
			<use xlink:href="#SVGFRONT_SVGID_37_"  overflow="visible"/>
		</clipPath>
		<g opacity="0.35" clip-path="url(#SVGFRONT_SVGID_38_)">
			<g>
				<defs>
					<rect id="SVGFRONT_SVGID_39_" x="204.441" y="121.008" width="223.209" height="39.765"/>
				</defs>
				<clipPath id="SVGFRONT_SVGID_40_">
					<use xlink:href="#SVGFRONT_SVGID_39_"  overflow="visible"/>
				</clipPath>
				<path clip-path="url(#SVGFRONT_SVGID_40_)" fill="none" stroke="#000000" stroke-miterlimit="10" stroke-dasharray="0.859,0.859" d="
					M427.113,125.673c0,0-22.322,33.586-108.486,34.44c-86.96,0.86-113.651-38.745-113.651-38.745"/>
			</g>
		</g>
		<g opacity="0.35" clip-path="url(#SVGFRONT_SVGID_38_)">
			<g>
				<defs>
					<rect id="SVGFRONT_SVGID_41_" x="-27.307" y="408.188" width="119.494" height="15.794"/>
				</defs>
				<clipPath id="SVGFRONT_SVGID_42_">
					<use xlink:href="#SVGFRONT_SVGID_41_"  overflow="visible"/>
				</clipPath>
				<path clip-path="url(#SVGFRONT_SVGID_42_)" fill="none" stroke="#000000" stroke-miterlimit="10" stroke-dasharray="0.859,0.859" d="
					M-27.135,408.81c0,0,27.376,7.572,61.742,11.067c34.365,3.495,57.58,3.46,57.58,3.46"/>
			</g>
		</g>
		<g opacity="0.35" clip-path="url(#SVGFRONT_SVGID_38_)">
			<g>
				<defs>
					<rect id="SVGFRONT_SVGID_43_" x="-27.307" y="413.357" width="119.494" height="15.795"/>
				</defs>
				<clipPath id="SVGFRONT_SVGID_44_">
					<use xlink:href="#SVGFRONT_SVGID_43_"  overflow="visible"/>
				</clipPath>
				<path clip-path="url(#SVGFRONT_SVGID_44_)" fill="none" stroke="#000000" stroke-miterlimit="10" stroke-dasharray="0.859,0.859" d="
					M-27.135,413.98c0,0,27.376,7.572,61.742,11.067c34.365,3.495,57.58,3.46,57.58,3.46"/>
			</g>
		</g>
		<g opacity="0.35" clip-path="url(#SVGFRONT_SVGID_38_)">
			<g>
				<defs>
					<rect id="SVGFRONT_SVGID_45_" x="535.111" y="408.188" width="119.497" height="15.794"/>
				</defs>
				<clipPath id="SVGFRONT_SVGID_46_">
					<use xlink:href="#SVGFRONT_SVGID_45_"  overflow="visible"/>
				</clipPath>
				<path clip-path="url(#SVGFRONT_SVGID_46_)" fill="none" stroke="#000000" stroke-miterlimit="10" stroke-dasharray="0.859,0.859" d="
					M654.433,408.81c0,0-27.372,7.572-61.739,11.067c-34.365,3.495-57.58,3.46-57.58,3.46"/>
			</g>
		</g>
		<g opacity="0.35" clip-path="url(#SVGFRONT_SVGID_38_)">
			<g>
				<defs>
					<rect id="SVGFRONT_SVGID_47_" x="535.111" y="413.357" width="119.497" height="15.795"/>
				</defs>
				<clipPath id="SVGFRONT_SVGID_48_">
					<use xlink:href="#SVGFRONT_SVGID_47_"  overflow="visible"/>
				</clipPath>
				<path clip-path="url(#SVGFRONT_SVGID_48_)" fill="none" stroke="#000000" stroke-miterlimit="10" stroke-dasharray="0.859,0.859" d="
					M654.433,413.98c0,0-27.372,7.572-61.739,11.067c-34.365,3.495-57.58,3.46-57.58,3.46"/>
			</g>
		</g>
		<g opacity="0.35" clip-path="url(#SVGFRONT_SVGID_38_)">
			<g>
				<defs>
					<rect id="SVGFRONT_SVGID_49_" x="93.424" y="916.774" width="437.176" height="43.158"/>
				</defs>
				<clipPath id="SVGFRONT_SVGID_50_">
					<use xlink:href="#SVGFRONT_SVGID_49_"  overflow="visible"/>
				</clipPath>
				<path clip-path="url(#SVGFRONT_SVGID_50_)" fill="none" stroke="#000000" stroke-miterlimit="10" stroke-dasharray="0.859,0.859" d="
					M94.017,919.63c0,0,9.319,21.55,60.576,28.541c51.257,6.988,105.285,11.656,163.09,11.066
					c57.081-0.583,170.018-19.037,182.312-21.552c25.627-5.242,29.986-20.736,29.986-20.736"/>
			</g>
		</g>
		<g opacity="0.35" clip-path="url(#SVGFRONT_SVGID_38_)">
			<g>
				<defs>
					<rect id="SVGFRONT_SVGID_51_" x="91.992" y="920.969" width="441.327" height="45.427"/>
				</defs>
				<clipPath id="SVGFRONT_SVGID_52_">
					<use xlink:href="#SVGFRONT_SVGID_51_"  overflow="visible"/>
				</clipPath>
				<path clip-path="url(#SVGFRONT_SVGID_52_)" fill="none" stroke="#000000" stroke-miterlimit="10" stroke-dasharray="0.859,0.859" d="
					M92.568,926.323c0,0,10.768,21.32,62.025,28.311c51.257,6.989,105.285,11.655,163.09,11.065
					c57.081-0.583,170.018-19.037,182.312-21.55c25.627-5.243,32.727-22.94,32.727-22.94"/>
			</g>
		</g>
		<g opacity="0.35" clip-path="url(#SVGFRONT_SVGID_38_)">
			<g>
				<defs>
					<rect id="SVGFRONT_SVGID_53_" x="527.888" y="192.77" width="40.932" height="223.056"/>
				</defs>
				<clipPath id="SVGFRONT_SVGID_54_">
					<use xlink:href="#SVGFRONT_SVGID_53_"  overflow="visible"/>
				</clipPath>
				<path clip-path="url(#SVGFRONT_SVGID_54_)" fill="none" stroke="#000000" stroke-miterlimit="10" d="M568.174,192.772
					c0,0,0.06,16.253-2.269,29.067c-2.333,12.814-15.145,59.994-18.057,73.973c-2.912,13.979-16.309,87.952-18.056,96.688
					c-1.749,8.738-1.165,23.299-1.165,23.299"/>
			</g>
		</g>
		<g opacity="0.35" clip-path="url(#SVGFRONT_SVGID_38_)">
			<g>
				<defs>
					<rect id="SVGFRONT_SVGID_55_" x="57.324" y="193.044" width="40.926" height="222.781"/>
				</defs>
				<clipPath id="SVGFRONT_SVGID_56_">
					<use xlink:href="#SVGFRONT_SVGID_55_"  overflow="visible"/>
				</clipPath>
				<path clip-path="url(#SVGFRONT_SVGID_56_)" fill="none" stroke="#000000" stroke-miterlimit="10" d="M57.97,193.047
					c0,0-0.066,15.979,2.264,28.792c2.33,12.814,15.144,59.994,18.056,73.973c2.912,13.979,16.309,87.952,18.056,96.688
					c1.748,8.738,1.166,23.299,1.166,23.299"/>
			</g>
		</g>
		<g opacity="0.35" clip-path="url(#SVGFRONT_SVGID_38_)">
			<g>
				<defs>
					<rect id="SVGFRONT_SVGID_57_" x="201.461" y="123.763" width="229.66" height="41.528"/>
				</defs>
				<clipPath id="SVGFRONT_SVGID_58_">
					<use xlink:href="#SVGFRONT_SVGID_57_"  overflow="visible"/>
				</clipPath>
				<path clip-path="url(#SVGFRONT_SVGID_58_)" fill="none" stroke="#000000" stroke-miterlimit="10" stroke-dasharray="0.859,0.859" d="
					M430.599,127.891c0,0-25.86,35.89-112.024,36.742c-86.96,0.861-116.588-40.492-116.588-40.492"/>
			</g>
		</g>
		<path clip-path="url(#SVGFRONT_SVGID_38_)" fill="none" stroke="#000000" stroke-miterlimit="10" stroke-dasharray="0.859,0.859" d="
			M98.44,410.351c0,0,20.014,65.521,18.918,79.75c-1.093,14.229,14.25,86.924,19.723,114.285
			c5.474,27.363,12.041,97.41,6.567,126.96c-5.472,29.552-18.606,108.354-21.889,142.284c-3.284,33.93-3.284,59.104-3.284,59.104
			s-4.378,4.376-4.378,8.754c0,4.379,2.188,14.229,2.188,14.229l-0.59,7.272"/>
		<path clip-path="url(#SVGFRONT_SVGID_38_)" fill="none" stroke="#000000" stroke-miterlimit="10" stroke-dasharray="0.859,0.859" d="
			M513.811,962.04l0.211-7.222c0,0,2.19-9.85,2.19-14.228s-4.378-8.757-4.378-8.757s0-25.173-3.285-59.102
			c-3.281-33.928-16.416-112.73-21.89-142.283c-5.473-29.552,1.097-99.598,6.567-126.961c5.473-27.36,18.147-90.403,17.052-104.633
			c-0.939-12.239,16.938-81.316,18.278-88.798"/>
	</g>
</g>
   <g id="CUSTOM"></g>
</svg>
