<?xml version="1.0" encoding="utf-8"?>
<!-- Generator: Adobe Illustrator 18.1.1, SVG Export Plug-In . SVG Version: 6.00 Build 0)  -->
<!DOCTYPE svg PUBLIC "-//W3C//DTD SVG 1.1//EN" "http://www.w3.org/Graphics/SVG/1.1/DTD/svg11.dtd">
<svg version="1.1" xmlns="http://www.w3.org/2000/svg" xmlns:xlink="http://www.w3.org/1999/xlink" x="0px" y="0px"
	 viewBox="0 0 100 100" enable-background="new 0 0 100 100" xml:space="preserve">
<g id="AREA_3">
	<g>
		<path fill="none" stroke="#FDBB2D" stroke-width="2" stroke-linecap="round" stroke-linejoin="round" stroke-miterlimit="10" d="
			M91.7,24.3l-1.6,1.8c0.3,0.3,0.6,0.6,1,0.7c1.4-0.2,2.4-1.4,3.7-1.9c-1.7,2.1-3.2,4.5-5.4,6.1c-1.2,0.7-2.9,0.6-3.9,1.7
			c1.8,1.9,4.1,1.1,6.2,0.4c-0.5,1.2-1.3,2.6-2.5,3.2c-1,0.5-2.2,0.9-2.9,2c0.3,0.8,1.3,0.6,2,0.8c0.7,0,1.5-0.3,2.1-0.9
			c-0.9,2-2.9,3.7-4.9,4.3c-0.4,0.1-0.8,0.4-1,0.7c-0.3,0.6,0.2,0.9,0.4,1.3c0.6,0.5,1.3,0,1.9-0.3c-0.6,2-2.1,4.2-4.2,4.7l-0.9,0.3
			c-1.5,7.2-5.1,14.3-12,18.1c-4.3,2.3-8.7,4.3-12.7,7.1c-4.4,3-8.9,6-13,9.6c-1.5,1.2-2.1,2.8-2.4,4.5c-4.2-3.5-8.6-7.5-9.1-12.9
			c-0.2-1.8,0.2-4-1.5-5.1c-6.5-1.7-12.8-4.1-18.9-6.7c-3.2-1.5-6-3.9-8.9-6.2c4.3-6.9,9.9-13.9,17.1-18.2c0.4-0.4,1-0.5,1.4-1
			c0-7.4,2.5-14.4,9.2-18.4c7.6-4.5,17.5-4.5,26.5-4.4c11.4,0.4,21.8,1.5,33.3,0.8c2.7-0.2,5.3-0.9,7.5-2.3
			C97.6,18.1,94.7,21.4,91.7,24.3z"/>
	</g>
</g>
<g id="AREA_2">
	<g>
		<path d="M91.7,24.3l-1.6,1.8c0.3,0.3,0.6,0.6,1,0.7c1.4-0.2,2.4-1.4,3.7-1.9c-1.7,2.1-3.2,4.5-5.4,6.1c-1.2,0.7-2.9,0.6-3.9,1.7
			c1.8,1.9,4.1,1.1,6.2,0.4c-0.5,1.2-1.3,2.6-2.5,3.2c-1,0.5-2.2,0.9-2.9,2c0.3,0.8,1.3,0.6,2,0.8c0.7,0,1.5-0.3,2.1-0.9
			c-0.9,2-2.9,3.7-4.9,4.3c-0.4,0.1-0.8,0.4-1,0.7c-0.3,0.6,0.2,0.9,0.4,1.3c0.6,0.5,1.3,0,1.9-0.3c-0.6,2-2.1,4.2-4.2,4.7l-0.9,0.3
			c-1.5,7.2-5.1,14.3-12,18.1c-4.3,2.3-8.7,4.3-12.7,7.1c-4.4,3-8.9,6-13,9.6c-1.5,1.2-2.1,2.8-2.4,4.5c-4.2-3.5-8.6-7.5-9.1-12.9
			c-0.2-1.8,0.2-4-1.5-5.1c-6.5-1.7-12.8-4.1-18.9-6.7c-3.2-1.5-6-3.9-8.9-6.2c4.3-6.9,9.9-13.9,17.1-18.2c0.4-0.4,1-0.5,1.4-1
			c0-7.4,2.5-14.4,9.2-18.4c7.6-4.5,17.5-4.5,26.5-4.4c11.4,0.4,21.8,1.5,33.3,0.8c2.7-0.2,5.3-0.9,7.5-2.3
			C97.6,18.1,94.7,21.4,91.7,24.3z"/>
	</g>
</g>
<g id="AREA_1">
	<g>
		<path fill="#FFFFFF" d="M58,18.3l11.4,0.4c7.9,0.2,16.7,0.2,24.3-0.4v0.2c-1.6,3.8-5.7,6.1-8.7,8.9v1.6l2.9,0
			c-0.6,1.4-2.1,2.1-3.5,2.2c-0.8,0-1.5-0.1-2.2-0.1c-0.5,0.6-0.6,1.4-0.7,2.2c1.4,0.7,2.5,1.8,3.8,2.9c0.4,0.1,0.8,0.1,1.2,0.2v0.1
			c-1.8,0.9-3.8,1.3-5.9,1.5c-0.3,0.4-0.7,0.9-0.5,1.5c0.7,1.1,1.8,0.6,2.9,1c0.6,0.2,1.2,0.4,1.7,0.6c-1.9,2.1-4.9,2-7.4,2.6
			c0.1,0.4,0.3,0.8,0.6,1.2c1,1.5,3,1.5,4.5,1.7c-1.3,1.7-3,2.9-5,2.7c-0.7-0.2-0.5,0.6-0.7,0.9l-0.2,1.3l2.4,0.2
			c0.5,5.9-5.2,10-9.5,13l-1.7,1l-10.9,5.9c-6.1,3.4-11.2,7.6-16.2,12.7c-0.5-0.7-1-1.4-0.7-2.3c0.7-2.2,2.7-3.9,4-5.8
			c2.6-3.8,5.2-7.5,8.4-10.7c1.8-2.4,3.3-5.3,2.1-8.3c-0.5-1.3-1-2.9-0.2-4.2c0,0,0.1-0.1,0-0.1c0,0.5,0.3,1,0.8,1.3
			c0.7,0.5,1.7,0.5,2.5,0.6c-0.3-1.6-0.9-3.4-0.5-5.3c1-2.9,0.4-6.1-0.6-8.8c-0.6-2.1-2.2-4.2-4.2-5.4c0.6-0.3,1.4-0.6,2.1-0.3
			c0.6,0.3,1.1,0.8,1.6,1.2l0.1-0.1c0.4-2.8-1.5-5.1-3.7-6.3c-0.6-0.2-1.2-0.6-1.8-0.7c1.6,0.1,2.7-1.4,4.3-1.3v-0.1
			c-3.2-3.9-8.5-3.7-13.1-3c1.2-0.9,2.5-1.9,3.6-3.1l-0.1-0.1c-4.8-0.9-10.2-0.5-13.3,3.5c-1.7,2.1-3.8,3.9-6.1,5.1
			c-0.1,0-0.3,0.2-0.4,0.2c1.7-3.8,4.3-8.3,8.6-9.6C41,18,50.1,18,58,18.3z"/>
		<path fill="#FFFFFF" d="M44.6,29.6c-1.4,2.5-4.3,2.3-6.2,4.3c2.9,1.8,4.4,4.9,3.8,8.3c-0.4,2.2-2.1,4.5-4.3,5.4
			c-1-0.1-1.8-0.7-2.4-1.5c1.1-1.9,3.9-2.4,3-5.1c-0.2-0.5-0.1-1.2-0.6-1.6c-1,0-1.8,0.8-2.5,1.4c-1.6-0.7-1.2-2.6-1.5-4
			c-0.3-0.2-0.7,0-1-0.1c-1.9,0.4-3.5,2.3-3.8,4.1c-0.1,0.2-0.2,0.4-0.4,0.5c-1.6,0.1-2.2-1.9-3.9-1.7c-0.1-0.1-0.1-0.2-0.1-0.3
			c0.9-1.4,2.5-1.5,3.6-2.5c3.6-2.8,7-5.9,10.7-8C41,28.1,43,28.2,44.6,29.6z"/>
		<path fill="#FFFFFF" d="M33.2,39.2c0.1,0.4-0.1,0.7-0.4,0.8c-0.3,0.1-0.6-0.1-0.8-0.3c-0.1-0.3-0.1-0.6,0.1-0.8
			C32.4,38.5,33.1,38.7,33.2,39.2z"/>
		<path fill="#FFFFFF" d="M43.7,56.1c-2-4.1-6.4-5.5-10.4-6.5c-4.9-1-6.4-6.8-10.4-9.4c-6.6,3.2-11.2,10.1-15.6,15.8
			c-0.6,0.3-0.1,0.9,0.1,1.2c0.4,0.4,1.1,0.2,1.6,0.1c1.8-0.6,3.8-0.2,5.8,0.1c6.3,1,12,0.1,18.5,0.3c1.8-0.1,3.9-0.3,4.6-2.3
			c0.3-0.5,0-1,0-1.5c0.7,0.2,1.5,0.1,2.1,0.6c1.3,1.1,1.9,2.7,1.7,4.4c-0.2,1-0.1,2.2-1,2.9c-1.1-0.9-0.8-2.2-1.7-3.2
			c-2.2,0.7-4.4,1.4-6.6,1.8c-1.4,0.2-2.6,0.4-3.9,0.4c-6.8,0.9-12.8-2.1-19.5-1c5.1,3.5,10.9,5.2,16.9,6.7c5.7,1,13.6,3.9,18.3-1.4
			C46.3,62.5,44.9,58.7,43.7,56.1z M24.2,46.5c-0.9,1.2-2.2,1.5-3.5,2c0.2-0.3,0.6-0.7,0.8-1.1c0.1-0.5-0.3-0.9-0.6-1.2
			c-1.5,0-2.6,1.3-3.4,2.4c-0.2,0.3-0.5,0.5-0.8,0.3c-0.3-0.2-0.4-0.5-0.3-0.8c1.8-2,4.1-3.6,6.9-3.2c0.4,0,0.7,0.4,0.9,0.7
			C24.4,45.9,24.3,46.2,24.2,46.5z"/>
	</g>
</g>
</svg>
