<?xml version="1.0" encoding="utf-8"?>
<!-- Generator: Adobe Illustrator 18.1.1, SVG Export Plug-In . SVG Version: 6.00 Build 0)  -->
<!DOCTYPE svg PUBLIC "-//W3C//DTD SVG 1.1//EN" "http://www.w3.org/Graphics/SVG/1.1/DTD/svg11.dtd">
<svg version="1.1" xmlns="http://www.w3.org/2000/svg" xmlns:xlink="http://www.w3.org/1999/xlink" x="0px" y="0px"
	 viewBox="0 0 100 100" enable-background="new 0 0 100 100" xml:space="preserve">
<g id="AREA_3">
	<path fill="none" stroke="#FDBB2D" stroke-width="2" stroke-linecap="round" stroke-linejoin="round" d="M94.1,47.9
		c-0.3-0.4-0.7-0.7-0.9-1c-4.9-4.8-10.8-7.9-17.4-8.7c-0.1-0.1-0.3,0-0.2-0.1c0.9-0.3,1.8-0.5,2.7-0.8c2.8-0.8,6.7-2.6,6.9-6
		c-0.2-2-2.4-3.1-4-3.9c-5.9-1.9-12.1,0.3-17.5,2h-0.4c0-1.4,0-2.9-0.6-4c-0.5-1.1-1.7-2.1-2.9-2.2c-2.4,0.3-5,0-6.7,2.1
		c-1.4,1.3-0.9,3.7-0.3,5.2c0.7,0.9-0.6,1.4-1,2.1l-8.1,9.7l-1.9,2.1l-2.1,0.9c-2.2,1-5,0.7-7-0.2c0.7-0.7,1.3-1.5,1.9-2.2
		C37.9,42,41,41,43.7,39c3.7-2.7,5.1-6.7,5.8-10.8c0.4-2.6,1.6-5,1-7.7c-0.5-1.5-1.9-2.4-3.4-2.8c-1.3-0.2-2.4,0.2-3.2,1.1
		c-3.1,3.6-2.7,8.8-5.4,12.5c-0.3-0.4-0.5-0.9-0.9-1.3c-3.1-3-7.1-3.5-11-4.4c2.6-1.8,5.3-3.6,7.9-5.5c4.5-3.5,10-5,14.4-8.4
		c-9.4,2.8-18.1,7.3-26,13.7c-2.3,0.2-4.4,0.1-6.4,0.7c-1.2,0.3-2.4,0.8-3.5,1.1c0.5-2.8,1.1-5.7,3-7.9c3.3-4.1,6.3-8.3,10.8-11.3
		C21.2,10.9,16,15,12.3,20.5c-2.2,2.9-2.7,6.4-3,9.9c-2.6,2.8-5.3,5.7-5.8,9.5C3,43.1,4.1,46.2,6.9,48c3.9,2.5,9.3,1.1,13-0.9
		c0.2,0.5,0.2,1,0.6,1.3c-0.1,0.7-0.1,1.4-0.2,2.1c-0.8,1.4-2.9,0.8-4.3,0.8c-1.6-1.3-4.2-0.8-6.1-0.5l-0.1,0.1c0.1,0,0.2,0,0.3-0.1
		c0.9-0.1,2.1-0.1,2.6,0.9c-0.6,0.4-1.3,0.6-1.9,0.9c-0.2-0.3-0.3-0.6-0.5-0.8c-0.8-0.4-1.9-0.4-2.8-0.1c0.3,0.3,0.7,0.6,0.9,1
		c0.5,1.7-1.6,1.4-2.3,2.5c0,0.6,0.5,0.8,0.9,1c4.5,2.2,10.1,1.8,14.9,3.4c1.3,0.7,2.7,1.5,4.1,2c0.3,0.1,0.8,0.2,1.1,0.3
		c0.8,0.2,1.7-0.1,2.5-0.2c1.7-0.6,3.6-0.7,5-1.8c0.4-0.6,0.2-1.2,0.1-1.9c-0.9,0.2-1.7,0.4-2.7,0.3c-0.7-0.1-1.4,0-1.9-0.4
		c-0.1-0.3,0.1-0.5,0.2-0.7c0.2-0.2,0.1-0.6-0.1-0.7l0.1-0.1l3.1,0.4c2.7,0.4,5-0.5,7.3-1.2c1.7-0.6,3.1,0.8,4.4,1.8
		c2.7,1.8,6.4,0.1,9.4-0.3c2.5-0.4,4.8,0.1,6.5,1.7c0.2,0.4,0.6,0.9,0.2,1.3c-1.6,1.9-4.2,1.5-6.1,2.9c-1.5,1.1-2,2.8-2.1,4.5
		c-0.4,2.8,0.6,5.2,2.6,7c-0.8,0.8-1.7,1.5-2.7,2.2c-3.9,2.8-9,2.4-13.7,2.2c2.6,1.9,5.7,2.8,9,3.1c6.7,0.9,12.9,0.5,19.1-1.1
		c2.6,0.8,5.8,1.5,8.5,1c9.7-1.4,19.7-9,21.7-18.9C99.2,57.6,97.8,52,94.1,47.9z"/>
</g>
<g id="AREA_2">
	<g>
		<path fill="#FFFFFF" d="M41.8,39.3c3.1-2.3,5.9-5.5,6.5-9.3c0.2-3.1,2-5.9,1.2-9.1c-0.3-0.8-0.9-1.5-1.7-1.8
			c-0.3-0.1-0.6-0.3-0.9-0.2c0.1,2.8-0.8,5-1.7,7.4c1.2-1.1,2.2-2,3.5-3.1c0.1,0,0.2,0.1,0.3,0.2c-1.3,1.2-2.7,2.4-4,3.6
			c-0.2,1-0.5,2-0.7,2.9l3.6-2.6c0.1,0.1,0.2,0.1,0.1,0.2c-1.3,0.9-2.6,2-3.9,2.9c-0.5,1.4-1.5,2.8-2.6,3.9c1.3-0.4,2.6-1,3.9-1.5
			c0.1,0.1,0.2,0.2,0.2,0.3c-1.5,0.6-3.1,1.2-4.7,1.8l-1.9,1.5l-0.1,0l2.9-3.8c-0.1-1.5-0.3-3.1-0.2-4.7c0.1,0,0.2,0,0.3,0.1
			l0.2,4.1c0.7-1.1,1.2-2.1,1.4-3.3c0-0.1,0.1-0.3,0-0.3c-0.3-1.4-0.6-2.8-0.8-4.2c0.1,0,0.2,0,0.3,0c0.2,1.2,0.5,2.5,0.7,3.7
			c0.3-1.3,0.5-2.5,1.2-3.6c-0.2-0.9-0.4-1.9-0.5-2.8h0.2c0.2,0.7,0.3,1.7,0.5,2.3c0.4-0.7,0.6-1.6,0.8-2.4c0-0.8,0.4-1.9-0.3-2.3
			c-1,0-1.9,1-2.2,1.9c-1.5,3.8-2.4,7.8-4.5,11.3c0.4,3.6-1.6,6.4-3.4,9.2C37.8,41.1,39.9,40.6,41.8,39.3z"/>
		<path fill="#FFFFFF" d="M55.6,27.6c1.5-1.4,3.4-1.3,5.5-1.2L61,25.9c-0.2-0.6-0.8-0.6-1.3-0.7c-1.3,0-2.7,0.1-3.9,0.3
			c-0.5,0.2-1.1,0.2-1.5,0.7C54.4,26.9,55,27.1,55.6,27.6z"/>
		<path fill="#FFFFFF" d="M28.3,41.2c0.8,0.6,1.1,1.6,0.8,2.5c-1.6,3.2-5.6,3.2-8.6,3.1c0.2,0.3,0.5,0.5,0.7,0.8
			c0.9,0.7,2.3,0.5,3.2,0.1c2.7-1.2,5.5-2,7.7-4.4c2.4-3.2,5-6.4,4.5-10.7c-0.2-1.5-1-3.1-2.5-3.9c-2.6-1.1-5.4-1.4-8.1-2.2
			c-0.9,0.6-1.9,1.2-3.1,1.1c-0.4,0-0.9-0.3-1.1-0.7L21.9,26c-2.5,0.2-4.8,0.7-6.9,1.7c-4.6,2.7-9,7.1-10.2,12.3
			c-0.5,3,1,5.5,3.4,7.2c2.1,1.7,5.3,1.6,7.6,0.4c3.1-1.2,5.3-3.9,7.8-6.1C25,40.6,26.8,40.3,28.3,41.2z M10,33.8
			c0.5-0.6,1.2-0.8,1.8-1c-0.3,1.8-1.2,3.7-3.1,4.4C9.2,36,9.4,34.8,10,33.8z M8.8,46.3l-0.4-1.2c1.4,0,2.7,0.4,3.4,1.6
			C10.9,46.8,9.4,47.3,8.8,46.3z M17.9,42.5c-2.4,0.4-4.1-1.3-6-2.4C10.6,40,9.3,39.9,8,39.7c1.7-0.9,4.2-0.7,5.1-2.9
			c0.9-2.4,1-5.8,4.2-6.7c0.9-0.3,1.8-0.5,2.8-0.6l0.2,0.1c-1.2,1.2-2.9,1.3-3.8,2.6c-0.2,2.3,2.4,3,3.1,4.9c0.3,1,0.2,2.2-0.5,3
			c-0.4,0.5-1.1,0.7-1.5,1.2c1.4-0.2,2.8-0.7,4-1.3c1-0.5,1.3-1.6,1.2-2.6c-0.3-1.7-2-3-3.5-3.7c-0.1-0.3,0.1-0.5,0.2-0.8
			c0.8-0.4,1.9-0.2,2.5,0.3c1.5,1.4,2.7,3.3,2.2,5.3C23.7,41.6,20.3,41.8,17.9,42.5z"/>
		<path fill="#FFFFFF" d="M58.1,26.7c-0.4,0.1-0.9,0.1-1.1,0.5c-0.2,0.5,0.1,1,0.2,1.4c1.6-0.6,3.3-0.9,5.2-0.8
			C61.5,26.3,59.6,26.8,58.1,26.7z"/>
		<path fill="#FFFFFF" d="M47.1,49c-0.6,0-1-0.3-1.4-0.7c-0.1-1.2,0.6-2.2,1.3-3.1c2.9-2.6,6.1-4.4,9.7-5.3c5.6-1.1,10.9-0.4,16-2.7
			c2.3-1,5.1-1.1,7.4-2c1.3-0.7,3.1-1.8,3.2-3.5c-0.3-0.5-0.8-0.7-1.4-0.9c-2.7-0.3-5.2,0.6-7.7,1.4c1.9,0.3,3.7,0.5,5.8,0.7
			l0.1,0.1c0,0.1,0,0.2-0.1,0.2c-2.2-0.3-4.4-0.6-6.5-0.8c-2,0.4-3.9,1.1-5.8,1.6l5.5,1.1c0,0.1-0.1,0.2-0.1,0.3c-2-0.5-4-0.8-6-1.2
			c-1.8,0.5-3.5,1.2-5.3,1.6c2.3,0.4,4.8,0.6,7.2,1.1c0,0.1,0,0.2,0,0.3c-2.5-0.5-5.3-0.7-7.8-1.2c-0.9,0.2-1.9,0.5-2.8,0.6
			c0.6-0.6,1.3-1.1,2-1.5c0.8-1.3,1.5-2.5,2.3-3.7l0.2,0.2l-1.9,3.2c1.2-0.4,2.3-0.8,3.6-1c0.9-1.3,1.7-2.6,2.5-3.8l0.2,0.1
			l-2.2,3.6c1.6-0.3,3.1-1,4.7-1.4l3.1-3.1l0.2,0.2L70.2,32v0.1l3.8-1c1.5,0,2.1-1.7,3.2-2.5c0.1,0,0.2,0,0.2,0.1l-1.8,2
			c1.5-0.4,3.1-0.8,4.9-0.7c0.6-0.1,0.9-0.6,1-1.2l-1.6-0.6c-4-1-8.5,0.1-12.4,0.9C63,30.4,58.1,31,55,35.4c-3.1,3-6.6,6.1-8.7,9.8
			c-1.4,1.5-3.1,2.4-4.7,3.6c0.1,0.8,0.3,1.6,0.6,2.3c0.3,1.1-0.3,1.9-0.6,2.8c1-0.6,2.1-1.5,2.2-2.6c0.3-1-0.9-2.2,0.3-2.9
			c1.3,0.5,2.2,1.7,2.3,3.1c-0.3,1.8-1.2,3.3-1.3,5.1c1.1-0.6,2.1-1.2,3.1-2c1.9-1.7,2.6-4.5,1.7-6.9C48.8,47.4,48.3,49,47.1,49z"/>
		<path fill="#FFFFFF" d="M15.1,36.5c-0.3,0.1-0.2,0.3-0.2,0.6c0.1,0.1,0.3,0.3,0.6,0.2c0.1-0.1,0.4-0.4,0.2-0.6
			C15.5,36.5,15.3,36.5,15.1,36.5z"/>
		<path fill="#FFFFFF" d="M14,38.1c-0.3,0.2-0.4,0.5-0.4,0.9c0.1,0.3,0.3,0.4,0.6,0.6c0.4,0.1,0.7-0.1,1-0.4c0.2-0.3,0.1-0.7-0.1-1
			C14.8,38,14.3,37.9,14,38.1z"/>
		<path fill="#FFFFFF" d="M73.4,38.7c1.5,1.1,3.2,1.9,4.3,3.6c0.8,1.5,0.5,3.1,0.2,4.7c1.7,2.2,3.3,4.3,5,6.3c1.4-1.1,3-2.3,4-3.8
			c0.8-1.5,1.2-3.2,1.4-4.9c-0.9-0.8-1.9-1.8-2.9-2.4C81.7,40.1,77.7,38.9,73.4,38.7L73.4,38.7z"/>
		<path fill="#FFFFFF" d="M63.3,40.8c1.1,1,2.2,1.9,2.7,3.2c2,0.1,4.7,0,7,0c-0.2-1.6-1.1-2.9-2-4.1C68.4,40,65.9,40.4,63.3,40.8z"
			/>
		<path fill="#FFFFFF" d="M59.1,42.7c-0.4-0.3-0.7-0.8-1.2-1c-2.1,0.7-4.2,1.4-6.1,2.5c0.2,0.6,0.7,1.1,1,1.7c2.5-0.5,5.1-1,7.6-1.6
			C60,43.7,59.6,43.2,59.1,42.7z"/>
		<path fill="#FFFFFF" d="M28.1,43.7c0.3-0.6-0.1-1.1-0.4-1.5c-0.5-0.6-1.4-0.4-2.1-0.2c-1.6,1-3.1,2.2-4.4,3.8
			C23.7,45.6,26.5,45.8,28.1,43.7z"/>
		<path fill="#FFFFFF" d="M66.3,44.4c0.8,2.1,0.6,4.4-0.2,6.4c1.3,0.6,2.5,1.2,3.9,1.6c1.3-2.6,3.6-4.8,3.2-8
			C70.9,44.4,68.5,44.4,66.3,44.4z"/>
		<path fill="#FFFFFF" d="M58.5,49.8c1-0.1,2.1-0.2,3.1-0.3c0.1-1.5-0.1-3-0.7-4.3l-0.3-0.6c-2.5,0.5-5.1,1-7.6,1.5
			c0.9,1.3,2.1,2.4,2.7,3.8C56.6,50,57.7,49.8,58.5,49.8z"/>
		<path fill="#FFFFFF" d="M28.2,48.4l1.5,1.8c2.5,3.8,6.9,3,10.9,3.2c0.2-0.6,0.6-1.2,0.4-2c-0.5-0.5-1.4-0.3-2.1-0.6
			c-0.7-0.4-0.8-1.2-1.1-1.9c-1.7-1.1-4.3-0.8-5.3-3.1C31.2,46.9,29.7,47.6,28.2,48.4z"/>
		<path fill="#FFFFFF" d="M84.6,56.4c0.3,1.6,0.9,3.1,1.3,4.6c0,0.1,0.1,0.4,0.3,0.3c2.9-1.2,5.8-2.2,8.2-4.3
			c1.7-1.4,1.4-3.2,1.1-4.9c-1.1-2.3-2.9-4.7-5.2-6.2l-0.1,0.2c0.2,0.6,0.3,1.3,0.4,1.9C90.2,51.6,87.4,54.5,84.6,56.4z"/>
		<path fill="#FFFFFF" d="M82.4,53.6c-1.6-2-3.2-4-4.8-6c-0.9,2.6-3.1,4.7-5.2,6.7l2.4,4c2.8-0.8,5.2-2.7,7.6-4.6V53.6z"/>
		<path fill="#FFFFFF" d="M36.1,55c-3.7-0.5-7-2.8-9.2-6c-1.8,0-3.7,0.3-5.4,0.2c-0.4,0.1-0.2,0.7-0.2,1c1.1,0.1,2.4-0.3,3.3,0.5
			c0.4,0.4,0.5,1,0.5,1.6c0,0.5-0.6,0.5-0.7,0.9c0.9,0.5,1.8,1.1,2.8,1.5c4.7,2.5,10.5,1.9,15.2,0c-0.3-0.2-0.5-0.2-0.8-0.3
			C39.5,53.7,38.1,55.6,36.1,55z"/>
		<path fill="#FFFFFF" d="M56.2,52.7c1.4,0.1,3,0,4.7-0.1c0.2-0.9,0.7-1.8,0.7-2.8l-5.7,0.5C56.1,51.1,56.3,51.9,56.2,52.7z"/>
		<path fill="#FFFFFF" d="M63.8,53.9c1,0.6,2.1,1.2,3.1,1.8c1.1-0.7,2-1.9,2.7-2.9c-1.2-0.6-2.5-1-3.7-1.6
			C65.3,52.1,64.5,53.2,63.8,53.9z"/>
		<path fill="#FFFFFF" d="M56.1,54.5c1.3-0.2,2.5-0.2,4-0.3c0.2-0.4,0.4-0.7,0.5-1.1h-4.5V54.5z"/>
		<path fill="#FFFFFF" d="M23.1,53.6c-1.7,0-3.3,0.3-4.8,1c-1,0.5-2.1,0.7-3.2,0.9c2.5,0.7,5.2,1,7.6,1.7c2.5,0.6,4.8-0.5,7.2-0.6
			c-1.4-0.3-2.8-0.7-4.1-1.3C25,54.8,24.1,53.8,23.1,53.6z"/>
		<path fill="#FFFFFF" d="M62.5,55.1c1,0.6,1.9,1.1,2.9,1.6l1-0.7V56c-1-0.5-2-1.1-2.9-1.7h-0.2C63,54.5,62.8,54.9,62.5,55.1z"/>
		<path fill="#FFFFFF" d="M70.3,59.5c1.4-0.1,2.8-0.6,4.1-1c-0.7-1.3-1.6-2.6-2.3-4c-1.2,0.9-2.4,1.9-3.7,2.6l1.7,2.3L70.3,59.5z"/>
		<path fill="#FFFFFF" d="M56.1,56.1c1-0.1,2.2-0.2,3.1-0.8c0.3-0.2,0.4-0.4,0.6-0.7c-1.2,0.1-2.5,0.2-3.7,0.3
			C56.1,55.3,56,55.8,56.1,56.1z"/>
		<path fill="#FFFFFF" d="M61.7,55.9l2.2,1.3c0.3,0.1,0.7-0.1,1-0.2c-0.9-0.5-1.9-1-2.8-1.5C61.9,55.6,61.7,55.7,61.7,55.9z"/>
		<path fill="#FFFFFF" d="M63.4,57.4c-0.7-0.4-1.4-0.8-2.2-1.2c-0.1,0.3-0.4,0.3-0.5,0.6C61.6,57.2,62.5,57.5,63.4,57.4z"/>
		<path fill="#FFFFFF" d="M84.2,56.8c-2.7,1.6-5.5,2.9-8.4,4c0.1,0.6,0.4,1.2,0.5,1.9c3.1,0.3,6.4-0.3,9.3-1.1
			C85.1,59.9,84.7,58.3,84.2,56.8z"/>
		<path fill="#FFFFFF" d="M69.6,59.5c-0.4-0.5-0.7-1-1.1-1.5c-0.3-1.2-1.1-0.3-1.7-0.2c0.5,0.6,1.1,1.2,1.6,1.7
			C68.8,59.6,69.2,59.6,69.6,59.5z"/>
		<path fill="#FFFFFF" d="M67.8,59.5L66.4,58h-0.2c-1,0.1,0.1,0.9,0,1.3C66.7,59.4,67.2,59.6,67.8,59.5z"/>
		<path fill="#FFFFFF" d="M64.1,58.7c0.4,0.2,1,0.5,1.5,0.4l-0.3-0.8C64.9,58.4,64.5,58.6,64.1,58.7z"/>
		<path fill="#FFFFFF" d="M81.7,70.1c2.5-0.1,5.2-0.5,7.6-1.1c2.1-0.7,4.5-0.6,6-2.5c1.1-2.3,1-5.2,1.7-7.6
			c-3.5,2.1-7.2,3.8-11.3,4.8C84.5,65.8,83.1,67.9,81.7,70.1z"/>
		<path fill="#FFFFFF" d="M75.4,60.8c-2,0.7-4.7,0.6-6.6,0.8c2.3,0.4,4.9,1,7,0.9L75.4,60.8z"/>
		<path fill="#FFFFFF" d="M58.4,73.3c-0.6-1.8-1.4-3.7-1.1-5.9c0.2-1.9,2-3.1,2.1-5.1c-1,0.4-2,0.8-2.9,1.3c-2.1,1.3-1.6,4-1.7,6.1
			c-0.1,2,2.1,2.9,3.5,3.6H58.4z"/>
		<path fill="#FFFFFF" d="M67.3,65.9c-0.1,0.1-0.3,0.2-0.3,0.3c0.5,0.3,1,0.7,1.5,0.8l2.9-3.4c-0.5-0.2-1.2-0.3-1.7-0.4
			c0,0.6,0.2,1.4,0,2C69.1,66.2,68.1,65.9,67.3,65.9z"/>
		<path fill="#FFFFFF" d="M75.2,64.5c-1.1-0.3-2.3-0.4-3.4-0.7l-3,3.6c0.7,0.5,1.5,0.9,2.3,1.2L75.2,64.5z"/>
		<path fill="#FFFFFF" d="M81.3,70.1c1.3-2.1,2.7-4.2,4-6.3c-3,0.7-6.2,1.1-9.5,0.7l-4.2,4.2v0.1C74.5,70,78.3,70.2,81.3,70.1z"/>
		<path fill="#FFFFFF" d="M62.3,69.9c0.8-0.7,1.6-1.5,2.4-2.2l-1.6-0.9C62.4,67.6,61.7,68.7,62.3,69.9z"/>
		<path fill="#FFFFFF" d="M63.7,71.4c1-0.9,2.1-1.8,3-2.8l-1.5-0.8c-0.9,0.8-1.8,1.7-2.6,2.4C62.9,70.7,63.3,71.2,63.7,71.4z"/>
		<path fill="#FFFFFF" d="M65.6,73c1.3-0.9,2.6-2,3.9-3c-0.8-0.3-1.5-0.8-2.3-1L64,71.8C64.5,72.2,65,72.7,65.6,73z"/>
		<path fill="#FFFFFF" d="M78.8,72.2c-3.2-0.1-6.2-1-9-2c-1.3,1.1-2.5,2-3.8,3.1c2,1.1,4,2,6.2,2.4C74.4,74.5,76.7,73.3,78.8,72.2z"
			/>
		<path fill="#FFFFFF" d="M79.7,72.2c-2.3,1.2-4.6,2.4-6.9,3.7c2,0.5,4.1,0.8,6.3,0.9c3.1-0.1,5.5-0.5,8.5-0.8
			c2.3-0.9,3.5-3.4,4.9-5.3C88.5,71.6,84.2,72.3,79.7,72.2z"/>
		<path fill="#FFFFFF" d="M68.1,76.7c-1.8-0.7-3.6-1.5-5.3-2.2c-0.1,1.1-0.1,2.2,0.5,3.2C64.9,77.4,66.6,77,68.1,76.7z"/>
		<path fill="#FFFFFF" d="M68.8,77l-5.1,1c0.3,0.4,0.8,0.6,1.2,0.9c5.2,2.2,13.2,3.7,18.1-0.3v-0.1l-2.8,0.2
			C76,79.1,72.5,78.3,68.8,77z"/>
		<path fill="#FFFFFF" d="M61.4,79.6c-0.8,1.7-2.7,1.1-4.3,1.3c-3.1,1-6.6-0.1-9.8,0c5.3,1.2,11.4,1,16.6-0.2l0.1-0.1l-2.2-1.8
			C61.6,79,61.5,79.3,61.4,79.6z"/>
	</g>
</g>
<g id="AREA_1">
	<g>
		<path d="M94.1,47.9c-0.3-0.4-0.7-0.7-0.9-1c-4.9-4.8-10.8-7.9-17.4-8.7c-0.1-0.1-0.3,0-0.2-0.1c0.9-0.3,1.8-0.5,2.7-0.8
			c2.8-0.8,6.7-2.6,6.9-6c-0.2-2-2.4-3.1-4-3.9c-5.9-1.9-12.1,0.3-17.5,2h-0.4c0-1.4,0-2.9-0.6-4c-0.5-1.1-1.7-2.1-2.9-2.2
			c-2.4,0.3-5,0-6.7,2.1c-1.4,1.3-0.9,3.7-0.3,5.2c0.7,0.9-0.6,1.4-1,2.1l-8.1,9.7l-1.9,2.1l-2.1,0.9c-2.2,1-5,0.7-7-0.2
			c0.7-0.7,1.3-1.5,1.9-2.2C37.9,42,41,41,43.7,39c3.7-2.7,5.1-6.7,5.8-10.8c0.4-2.6,1.6-5,1-7.7c-0.5-1.5-1.9-2.4-3.4-2.8
			c-1.3-0.2-2.4,0.2-3.2,1.1c-3.1,3.6-2.7,8.8-5.4,12.5c-0.3-0.4-0.5-0.9-0.9-1.3c-3.1-3-7.1-3.5-11-4.4c2.6-1.8,5.3-3.6,7.9-5.5
			c4.5-3.5,10-5,14.4-8.4c-9.4,2.8-18.1,7.3-26,13.7c-2.3,0.2-4.4,0.1-6.4,0.7c-1.2,0.3-2.4,0.8-3.5,1.1c0.5-2.8,1.1-5.7,3-7.9
			c3.3-4.1,6.3-8.3,10.8-11.3C21.2,10.9,16,15,12.3,20.5c-2.2,2.9-2.7,6.4-3,9.9c-2.6,2.8-5.3,5.7-5.8,9.5C3,43.1,4.1,46.2,6.9,48
			c3.9,2.5,9.3,1.1,13-0.9c0.2,0.5,0.2,1,0.6,1.3c-0.1,0.7-0.1,1.4-0.2,2.1c-0.8,1.4-2.9,0.8-4.3,0.8c-1.6-1.3-4.2-0.8-6.1-0.5
			l-0.1,0.1c0.1,0,0.2,0,0.3-0.1c0.9-0.1,2.1-0.1,2.6,0.9c-0.6,0.4-1.3,0.6-1.9,0.9c-0.2-0.3-0.3-0.6-0.5-0.8
			c-0.8-0.4-1.9-0.4-2.8-0.1c0.3,0.3,0.7,0.6,0.9,1c0.5,1.7-1.6,1.4-2.3,2.5c0,0.6,0.5,0.8,0.9,1c4.5,2.2,10.1,1.8,14.9,3.4
			c1.3,0.7,2.7,1.5,4.1,2c0.3,0.1,0.8,0.2,1.1,0.3c0.8,0.2,1.7-0.1,2.5-0.2c1.7-0.6,3.6-0.7,5-1.8c0.4-0.6,0.2-1.2,0.1-1.9
			c-0.9,0.2-1.7,0.4-2.7,0.3c-0.7-0.1-1.4,0-1.9-0.4c-0.1-0.3,0.1-0.5,0.2-0.7c0.2-0.2,0.1-0.6-0.1-0.7l0.1-0.1l3.1,0.4
			c2.7,0.4,5-0.5,7.3-1.2c1.7-0.6,3.1,0.8,4.4,1.8c2.7,1.8,6.4,0.1,9.4-0.3c2.5-0.4,4.8,0.1,6.5,1.7c0.2,0.4,0.6,0.9,0.2,1.3
			c-1.6,1.9-4.2,1.5-6.1,2.9c-1.5,1.1-2,2.8-2.1,4.5c-0.4,2.8,0.6,5.2,2.6,7c-0.8,0.8-1.7,1.5-2.7,2.2c-3.9,2.8-9,2.4-13.7,2.2
			c2.6,1.9,5.7,2.8,9,3.1c6.7,0.9,12.9,0.5,19.1-1.1c2.6,0.8,5.8,1.5,8.5,1c9.7-1.4,19.7-9,21.7-18.9C99.2,57.6,97.8,52,94.1,47.9z
			 M90.3,45.9c2.2,1.5,4.1,3.9,5.2,6.2c0.3,1.7,0.6,3.5-1.1,4.9c-2.4,2.1-5.4,3.1-8.2,4.3c-0.2,0.1-0.2-0.2-0.3-0.3
			c-0.4-1.6-1-3-1.3-4.6c2.9-1.9,5.7-4.8,6-8.5c-0.1-0.6-0.2-1.3-0.4-1.9L90.3,45.9z M66.2,58h0.2l1.4,1.5c-0.5,0.1-1.1-0.1-1.6-0.2
			C66.3,58.9,65.2,58.1,66.2,58z M66.9,55.7c-1-0.6-2.1-1.2-3.1-1.8c0.7-0.7,1.5-1.8,2.1-2.7c1.2,0.6,2.5,1,3.7,1.6
			C68.9,53.9,68,55,66.9,55.7z M72.1,54.5c0.8,1.3,1.6,2.6,2.3,4c-1.3,0.4-2.6,0.9-4.1,1l-0.3,0l-1.7-2.3
			C69.7,56.4,70.9,55.4,72.1,54.5z M68.5,58c0.4,0.5,0.8,1,1.1,1.5c-0.4,0.1-0.8,0-1.3,0c-0.5-0.6-1.1-1.1-1.6-1.7
			C67.4,57.7,68.2,56.8,68.5,58z M69.5,63.3c0.5,0.1,1.2,0.2,1.7,0.4l-2.9,3.4c-0.5-0.1-1-0.5-1.5-0.8c0-0.2,0.2-0.2,0.3-0.3
			c0.8,0,1.9,0.3,2.3-0.6C69.8,64.7,69.5,63.9,69.5,63.3z M66.7,65.8c0,0.1-0.3,0.1-0.3,0H66.7z M67.1,68.9c0.8,0.3,1.5,0.8,2.3,1
			c-1.2,1-2.5,2.1-3.9,3c-0.5-0.3-1-0.8-1.5-1.2L67.1,68.9z M68.7,67.4l3-3.6c1.1,0.3,2.3,0.4,3.4,0.7L71,68.6
			C70.2,68.3,69.5,67.8,68.7,67.4z M68.7,61.7c1.9-0.2,4.6-0.1,6.6-0.8l0.4,1.8C73.6,62.7,71.1,62.1,68.7,61.7z M74.8,58.3l-2.4-4
			c2.1-1.9,4.3-4.1,5.2-6.7c1.6,2,3.2,4,4.8,6v0.1C80.1,55.6,77.6,57.4,74.8,58.3z M69.9,52.4c-1.3-0.5-2.6-1.1-3.9-1.6
			c0.9-2,1-4.2,0.2-6.4c2.3,0,4.7,0,6.8,0C73.4,47.6,71.2,49.9,69.9,52.4z M66,44c-0.5-1.3-1.6-2.2-2.7-3.2c2.5-0.4,5.1-0.8,7.7-0.9
			c0.9,1.3,1.8,2.6,2,4.1C70.7,44,68.1,44.1,66,44z M63.5,54.2c1,0.6,1.9,1.2,2.9,1.7v0.1l-1,0.7c-1-0.5-2-1-2.9-1.6
			c0.3-0.3,0.5-0.6,0.8-0.9H63.5z M65.6,59.2c-0.5,0-1.1-0.2-1.5-0.4c0.4-0.1,0.8-0.3,1.2-0.4L65.6,59.2z M64.9,57
			c-0.3,0.1-0.7,0.3-1,0.2l-2.2-1.3c0-0.2,0.3-0.4,0.4-0.5C63,55.9,64,56.4,64.9,57z M64.7,67.6c-0.7,0.8-1.6,1.5-2.4,2.2
			c-0.6-1.1,0.1-2.3,0.7-3.1L64.7,67.6z M65.1,67.8l1.5,0.8c-1,0.9-2,1.8-3,2.8c-0.4-0.3-0.8-0.8-1.1-1.2
			C63.4,69.5,64.2,68.7,65.1,67.8z M62.8,74.5c1.8,0.7,3.6,1.5,5.3,2.2c-1.5,0.3-3.2,0.7-4.8,0.9C62.7,76.7,62.7,75.6,62.8,74.5z
			 M66,73.2c1.3-1.1,2.5-2,3.8-3.1c2.9,1,5.8,1.8,9,2c-2.1,1.2-4.4,2.3-6.6,3.5C70,75.2,67.9,74.4,66,73.2z M71.5,68.8L71.5,68.8
			l4.2-4.3c3.2,0.4,6.5,0,9.5-0.7c-1.3,2.1-2.7,4.2-4,6.3C78.3,70.2,74.5,70,71.5,68.8z M76.3,62.6c-0.1-0.6-0.3-1.2-0.5-1.9
			c2.9-1.1,5.7-2.4,8.4-4c0.5,1.6,0.9,3.2,1.4,4.8C82.6,62.3,79.4,62.9,76.3,62.6z M85.3,42.3c1,0.7,2,1.6,2.9,2.4
			c-0.2,1.7-0.5,3.4-1.4,4.9c-1,1.5-2.6,2.7-4,3.8c-1.7-2.1-3.3-4.2-5-6.3c0.4-1.6,0.6-3.2-0.2-4.7c-1-1.6-2.8-2.5-4.3-3.6v-0.1
			C77.7,38.9,81.7,40.1,85.3,42.3z M62.4,27.8c-1.9-0.1-3.6,0.2-5.2,0.8c-0.1-0.4-0.4-0.9-0.2-1.4c0.3-0.4,0.7-0.4,1.1-0.5
			C59.6,26.8,61.5,26.3,62.4,27.8z M55.7,25.5c1.3-0.3,2.6-0.3,3.9-0.3c0.5,0.1,1.2,0.1,1.3,0.7l0.1,0.5c-2.1-0.1-3.9-0.2-5.5,1.2
			c-0.5-0.4-1.2-0.6-1.3-1.3C54.6,25.7,55.2,25.7,55.7,25.5z M37.9,49c0.3,0.7,0.3,1.5,1.1,1.9c0.7,0.3,1.6,0,2.1,0.6
			c0.2,0.7-0.3,1.3-0.4,2c-4-0.3-8.4,0.6-10.9-3.2l-1.5-1.8c1.5-0.8,3-1.5,4.3-2.5C33.5,48.2,36.1,47.8,37.9,49z M38.9,32.3
			c2.1-3.5,3-7.6,4.5-11.3c0.4-0.9,1.2-2,2.2-1.9c0.7,0.5,0.4,1.6,0.3,2.3c-0.2,0.8-0.4,1.6-0.8,2.4c-0.2-0.6-0.3-1.5-0.5-2.3h-0.2
			c0.1,0.9,0.4,1.9,0.5,2.8c-0.6,1.1-0.9,2.4-1.2,3.6c-0.2-1.3-0.5-2.5-0.7-3.7c-0.1-0.1-0.2,0-0.3,0c0.2,1.4,0.5,2.8,0.8,4.2
			c0.2,0,0,0.2,0,0.3c-0.2,1.2-0.7,2.2-1.4,3.3L42,28c-0.1-0.1-0.2-0.1-0.3-0.1c-0.1,1.5,0.1,3.2,0.2,4.7L39,36.3l0.1,0l1.9-1.5
			c1.6-0.5,3.1-1.2,4.7-1.8c0-0.1-0.1-0.2-0.2-0.3c-1.3,0.5-2.6,1.1-3.9,1.5c1.1-1.2,2.1-2.5,2.6-3.9c1.3-0.9,2.6-2,3.9-2.9
			c0.1-0.1-0.1-0.2-0.1-0.2l-3.6,2.6c0.2-0.9,0.4-1.9,0.7-2.9c1.3-1.2,2.7-2.4,4-3.6c-0.1-0.1-0.2-0.2-0.3-0.2
			c-1.2,1.2-2.3,2-3.5,3.1c0.9-2.4,1.8-4.6,1.7-7.4c0.3-0.1,0.6,0.1,0.9,0.2c0.8,0.3,1.4,1,1.7,1.8c0.7,3.2-1,6-1.2,9.1
			c-0.6,3.8-3.4,7-6.5,9.3c-1.9,1.3-4,1.8-6.3,2.2C37.3,38.7,39.3,35.9,38.9,32.3z M15.7,47.7c-2.2,1.2-5.5,1.3-7.6-0.4
			C5.8,45.5,4.3,43,4.8,40c1.2-5.1,5.6-9.6,10.2-12.3c2.1-1,4.4-1.5,6.9-1.7l0.1,0.8c0.2,0.5,0.6,0.7,1.1,0.7
			c1.2,0.1,2.2-0.5,3.1-1.1c2.6,0.8,5.5,1.2,8.1,2.2c1.5,0.7,2.3,2.3,2.5,3.9c0.5,4.4-2.2,7.5-4.5,10.7c-2.2,2.5-5,3.2-7.7,4.4
			c-1,0.4-2.4,0.6-3.2-0.1c-0.2-0.3-0.6-0.5-0.7-0.8c3,0.2,7,0.2,8.6-3.1c0.2-0.9-0.1-1.9-0.8-2.5c-1.5-0.9-3.3-0.6-4.8,0.3
			C21,43.7,18.7,46.5,15.7,47.7z M21.2,45.9c1.3-1.5,2.8-2.8,4.4-3.8c0.6-0.2,1.6-0.4,2.1,0.2c0.3,0.4,0.7,0.9,0.4,1.5
			C26.5,45.8,23.7,45.6,21.2,45.9z M22.8,57.2c-2.5-0.7-5.1-1-7.6-1.7c1.1-0.2,2.2-0.4,3.2-0.9c1.4-0.8,3-1,4.8-1
			c1,0.2,1.9,1.2,2.8,1.6c1.3,0.7,2.7,1,4.1,1.3C27.6,56.7,25.3,57.9,22.8,57.2z M27.1,54.7c-1-0.4-1.8-1-2.8-1.5
			c0.1-0.4,0.8-0.4,0.7-0.9c0.1-0.5,0-1.2-0.5-1.6c-0.9-0.7-2.2-0.4-3.3-0.5c0-0.3-0.2-1,0.2-1c1.7,0.1,3.6-0.2,5.4-0.2
			c2.2,3.2,5.5,5.5,9.2,6c2.1,0.6,3.4-1.3,5.3-0.6c0.3,0.1,0.6,0.2,0.8,0.3C37.6,56.7,31.7,57.3,27.1,54.7z M48.3,54.5
			c-1,0.8-2,1.4-3.1,2c0-1.8,1-3.3,1.3-5.1c-0.1-1.4-1.1-2.5-2.3-3.1c-1.3,0.7,0,1.9-0.3,2.9c-0.2,1.1-1.3,2-2.2,2.6
			c0.3-0.9,0.9-1.7,0.6-2.8c-0.3-0.7-0.4-1.5-0.6-2.3c1.6-1.2,3.3-2,4.7-3.6c2.1-3.7,5.6-6.8,8.7-9.8c3.1-4.4,8-5,12.5-6.3
			c3.9-0.8,8.4-1.9,12.4-0.9l1.6,0.6c-0.1,0.5-0.4,1.1-1,1.2c-1.8-0.1-3.3,0.4-4.9,0.7l1.8-2c0-0.1-0.1-0.1-0.2-0.1
			c-1.1,0.8-1.7,2.6-3.2,2.5l-3.8,1V32l2.6-2.6l-0.2-0.2l-3.1,3.1c-1.6,0.4-3.1,1.1-4.7,1.4l2.2-3.6l-0.2-0.1
			c-0.9,1.3-1.7,2.6-2.5,3.8c-1.2,0.3-2.4,0.6-3.6,1l1.9-3.2l-0.2-0.2c-0.8,1.2-1.5,2.5-2.3,3.7c-0.7,0.4-1.3,1-2,1.5
			c0.9-0.1,1.9-0.4,2.8-0.6c2.6,0.5,5.3,0.7,7.8,1.2c0.1-0.1,0-0.2,0-0.3c-2.3-0.5-4.9-0.7-7.2-1.1c1.8-0.4,3.5-1.1,5.3-1.6
			c1.9,0.4,4,0.7,6,1.2c0.1-0.1,0.2-0.2,0.1-0.3l-5.5-1.1c1.9-0.5,3.8-1.2,5.8-1.6c2.2,0.3,4.3,0.6,6.5,0.8c0.1-0.1,0.1-0.1,0.1-0.2
			L79.9,33c-2.1-0.3-3.9-0.4-5.8-0.7c2.5-0.7,5-1.7,7.7-1.4c0.5,0.2,1.1,0.4,1.4,0.9c-0.1,1.6-1.9,2.7-3.2,3.5c-2.3,0.9-5,1.1-7.4,2
			c-5.1,2.3-10.4,1.5-16,2.7c-3.6,0.8-6.8,2.7-9.7,5.3c-0.7,0.9-1.4,1.9-1.3,3.1c0.4,0.4,0.8,0.7,1.4,0.7c1.2,0,1.7-1.6,3-1.4
			C51,50,50.2,52.8,48.3,54.5z M51.8,44.1c1.9-1.1,4-1.8,6.1-2.5c0.5,0.2,0.8,0.7,1.2,1c0.5,0.5,0.9,1,1.3,1.5
			c-2.5,0.6-5.1,1.1-7.6,1.6C52.4,45.3,52,44.7,51.8,44.1z M53,46.2c2.5-0.5,5.1-1,7.6-1.5l0.3,0.6c0.6,1.3,0.8,2.8,0.7,4.3
			c-1.1,0.1-2.2,0.2-3.1,0.3c-0.8,0.1-1.9,0.3-2.8,0.2C55.1,48.6,53.9,47.4,53,46.2z M61.6,49.9c0,1-0.5,1.8-0.7,2.8
			c-1.7,0-3.2,0.2-4.7,0.1c0.2-0.8,0-1.6-0.3-2.3L61.6,49.9z M59.2,55.3c-0.9,0.6-2,0.7-3.1,0.8c-0.1-0.3,0-0.8-0.1-1.2
			c1.3-0.1,2.5-0.2,3.7-0.3C59.6,54.9,59.4,55.2,59.2,55.3z M60.1,54.2c-1.4,0.1-2.7,0.1-4,0.3v-1.4h4.5
			C60.5,53.5,60.3,53.9,60.1,54.2z M60.7,56.8c0.1-0.3,0.4-0.3,0.5-0.6c0.7,0.4,1.5,0.7,2.2,1.2C62.5,57.5,61.6,57.2,60.7,56.8z
			 M54.7,69.8c0.1-2.2-0.4-4.8,1.7-6.1c0.9-0.5,1.9-0.9,2.9-1.3c0,2-1.8,3.2-2.1,5.1c-0.3,2.2,0.4,4,1.1,5.9h-0.1
			C56.8,72.7,54.6,71.7,54.7,69.8z M63.9,80.7c-5.2,1.3-11.3,1.4-16.6,0.2c3.2-0.1,6.6,1,9.8,0c1.6-0.3,3.5,0.4,4.3-1.3
			c0.1-0.3,0.2-0.6,0.4-0.8l2.2,1.8L63.9,80.7z M82.9,78.6c-4.9,4-12.8,2.5-18.1,0.3c-0.4-0.3-0.9-0.5-1.2-0.9l5.1-1
			c3.7,1.3,7.2,2.1,11.4,1.7L82.9,78.6L82.9,78.6z M87.6,76c-3,0.3-5.4,0.7-8.5,0.8c-2.2-0.1-4.3-0.4-6.3-0.9
			c2.3-1.2,4.6-2.4,6.9-3.7c4.5,0.1,8.8-0.6,12.8-1.5C91.1,72.6,89.9,75.1,87.6,76z M95.4,66.5c-1.5,1.9-4,1.8-6,2.5
			c-2.4,0.6-5.1,1-7.6,1.1c1.3-2.2,2.8-4.3,4.1-6.4c4-1,7.7-2.7,11.3-4.8C96.3,61.3,96.4,64.2,95.4,66.5z"/>
		<path d="M22.1,33.3c-0.7-0.5-1.8-0.8-2.5-0.3c-0.1,0.3-0.3,0.5-0.2,0.8c1.5,0.6,3.2,2,3.5,3.7c0.1,1-0.2,2.1-1.2,2.6
			c-1.3,0.6-2.6,1.2-4,1.3c0.4-0.4,1-0.7,1.5-1.2c0.7-0.8,0.8-2,0.5-3c-0.6-1.9-3.3-2.6-3.1-4.9c0.9-1.3,2.7-1.4,3.8-2.6l-0.2-0.1
			c-1,0.1-1.9,0.3-2.8,0.6c-3.1,0.9-3.2,4.3-4.2,6.7c-0.9,2.2-3.3,2-5.1,2.9c1.3,0.2,2.6,0.3,3.9,0.4c1.8,1.2,3.5,2.9,6,2.4
			c2.4-0.7,5.8-0.9,6.4-4C24.8,36.6,23.6,34.7,22.1,33.3z M15.2,39.2c-0.2,0.3-0.6,0.4-1,0.4c-0.3-0.1-0.4-0.3-0.6-0.6
			c-0.1-0.4,0.1-0.7,0.4-0.9c0.3-0.2,0.8-0.1,1.1,0.1C15.3,38.5,15.4,38.9,15.2,39.2z M15.4,37.3c-0.3,0.1-0.4-0.1-0.6-0.2
			c0-0.2,0-0.5,0.2-0.6c0.2,0,0.4-0.1,0.6,0.2C15.8,37,15.6,37.2,15.4,37.3z"/>
		<path d="M11.9,32.8c-0.7,0.2-1.3,0.4-1.8,1c-0.6,1-0.8,2.2-1.3,3.4C10.6,36.5,11.5,34.6,11.9,32.8z"/>
		<path d="M8.4,45.1l0.4,1.2c0.6,1,2.1,0.6,3,0.5C11.2,45.5,9.8,45.1,8.4,45.1z"/>
	</g>
</g>
</svg>
