<?xml version="1.0" encoding="utf-8"?>
<!-- Generator: Adobe Illustrator 18.1.1, SVG Export Plug-In . SVG Version: 6.00 Build 0)  -->
<!DOCTYPE svg PUBLIC "-//W3C//DTD SVG 1.1//EN" "http://www.w3.org/Graphics/SVG/1.1/DTD/svg11.dtd">
<svg version="1.1" xmlns="http://www.w3.org/2000/svg" xmlns:xlink="http://www.w3.org/1999/xlink" x="0px" y="0px"
	 viewBox="0 0 100 100" enable-background="new 0 0 100 100" xml:space="preserve">
<g id="AREA_3">
	<path fill="none" stroke="#FDBB2D" stroke-width="2" stroke-linejoin="round" d="M59,9.7c5.7,2.3,10.2,6.8,13.5,12.1l0-0.1l0.1-0.1
		l0.1,0.1l-0.1,0.1l2.6,4.7c3.7-2.6,7.7-5.8,11.4-8.6c1.2-1,0.3-2.9,1.8-3.7c1.2-1,2.8-0.6,4.2,0.1c1.2,1.6,1.6,3.5,4,3.4
		c1.7,0.7,1.4,1.8,1.5,3.3c-0.1,2.4-1.6,3.8-3.5,4.6c-0.6-0.1-1,0.2-1.6,0.1c-0.4,0.9-0.8,0.7-1.5,1.3L77,37.6
		c-1.1-0.5-0.5,1.1-1.1,1.5c-1.2,2.2-1.6,4.8-1.7,7.3c-0.4,0.3-0.4,0.9-0.4,1.4h-0.2c0.2,2.7,1.9,5.4,1.1,8.3
		c-0.4,2.6-2.1,4.7-3.9,6.8c4.7,3.7,9.6,7.2,14.4,10.7c0.5,0.4,1.1,0,1.7,0c2.1,0,3.6,1.8,4.6,3.3c0.5,1.5-0.5,2.8-1.3,3.9
		c-1.1,0.8-2.1,1.4-2.7,2.7c0.6,2.1-0.9,3-2.1,4.2c-0.8,0.4-1.8,0.7-2.5,0.3c-3.6-1.4-1.9-5.7-5.5-7.1c-3-2.4-6.5-4.9-9.7-7.3
		c-1,1.7-0.7,4-2.1,5.5c-0.1,1.2-1.7,1.6-2.6,2.4c-3.2,2.8-5.7,6.2-10.1,6.6c-2.1,1.1-4.3-0.7-6.4-0.7c-1.5-0.1-2.8-1.8-3.8-2.8
		c-2.5-2.8-4.8-5.6-7.2-7.9c-0.7-2-0.8-4-1.8-5.9c-5.5,3.9-11,8.3-16.3,12.4c-0.7,1.8-1.7,4.3-4.1,4.4c-1.5-0.2-3-0.5-3.9-2
		c-0.6-1,0-2.6-1.4-3c-0.9-0.4-2.1-0.6-2.2-1.8c-0.2-1.6,0.6-2.9,1.4-4.1c1.1-1.3,3.2-0.4,4.5-0.8l15.6-12.1
		c0.4-0.6,1.1-0.7,1.4-1.4c-2.9-3.3-2.5-8.2-2.2-12.6l-0.7-0.5c-1.1-2.8-3.1-5.1-2-8.5v-0.3c-4.7-4-9.4-7.3-14.2-11
		c-2.2-0.4-5,0.3-6.4-2.1c-0.6-1.3-0.2-2.9,0.8-3.9c3.3-0.6,2-4.3,3.7-6.2c0.8-0.9,2.3-0.8,3.3-0.5c1.7,0.4,2.8,2.1,3.2,3.7L14,20.9
		c3.6,2.8,7.1,5.4,10.8,7.9c1.1-3.4,0.6-6.8,2.9-9.5c2.1-3,5-5.7,8-7.4c6-5.3,14.5-5.5,21.6-3.2L59,9.7z"/>
</g>
<g id="AREA_2">
	<g>
		<polygon points="72.5,21.6 72.4,21.7 72.5,21.8 72.6,21.7 		"/>
		<path d="M96.3,17.5c-2.3,0.2-2.8-1.8-4-3.4c-1.4-0.6-3-1.1-4.2-0.1c-1.5,0.8-0.6,2.7-1.8,3.7c-3.7,2.8-7.7,6-11.4,8.6l-2.6-4.7
			c-3.3-5.3-7.7-9.7-13.5-12.1l-1.7-1.1c-7-2.3-15.6-2.1-21.6,3.2c-3,1.7-5.9,4.5-8,7.4c-2.3,2.8-1.8,6.2-2.9,9.5
			c-3.6-2.5-7.2-5.1-10.8-7.9l0.1-0.4c-0.4-1.6-1.5-3.3-3.2-3.7c-1.1-0.3-2.5-0.4-3.3,0.5c-1.7,1.9-0.4,5.6-3.7,6.2
			c-1,1-1.4,2.6-0.8,3.9c1.4,2.4,4.2,1.6,6.4,2.1c4.8,3.7,9.5,6.9,14.2,11v0.3c-1.1,3.4,0.9,5.7,2,8.5l0.7,0.5
			c-0.3,4.4-0.7,9.4,2.2,12.6c-0.3,0.7-0.9,0.7-1.4,1.4L11.7,75.9c-1.3,0.4-3.4-0.5-4.5,0.8c-0.8,1.2-1.5,2.5-1.4,4.1
			C6,81.9,7.1,82.2,8,82.6c1.4,0.4,0.8,2.1,1.4,3c0.9,1.5,2.4,1.8,3.9,2c2.3-0.1,3.4-2.6,4.1-4.4c5.3-4.2,10.8-8.5,16.3-12.4
			c1.1,1.9,1.1,3.9,1.8,5.9c2.4,2.3,4.7,5.1,7.2,7.9c1.1,1,2.3,2.7,3.8,2.8c2.1,0,4.3,1.8,6.4,0.7c4.4-0.4,6.9-3.8,10.1-6.6
			c0.8-0.9,2.5-1.2,2.6-2.4c1.5-1.5,1.1-3.9,2.1-5.5c3.2,2.4,6.8,4.9,9.7,7.3c3.6,1.4,1.9,5.7,5.5,7.1c0.7,0.4,1.7,0.1,2.5-0.3
			c1.2-1.1,2.7-2,2.1-4.2c0.6-1.3,1.6-1.9,2.7-2.7c0.8-1.1,1.8-2.4,1.3-3.9c-1-1.5-2.5-3.4-4.6-3.3c-0.6,0-1.2,0.4-1.7,0
			c-4.9-3.4-9.8-7-14.4-10.7c1.8-2.1,3.4-4.2,3.9-6.8c0.8-2.9-0.9-5.6-1.1-8.3h0.2c0-0.5,0-1.1,0.4-1.4c0-2.5,0.5-5.1,1.7-7.3
			c0.6-0.4-0.1-1.9,1.1-1.5l14.2-10.9c0.7-0.6,1.1-0.4,1.5-1.3c0.6,0.1,1-0.2,1.6-0.1c1.9-0.7,3.4-2.2,3.5-4.6
			C97.8,19.3,98.1,18.3,96.3,17.5z M16.5,33.8l-6.8-5.2c-0.1-0.2-0.2-0.4-0.4-0.6c-1.6,0-3.5,0.4-4.9-0.7c-0.8-0.7-0.7-1.7-0.3-2.6
			C6.8,23.9,7.5,21,8,18.6c0.8-1.1,2.6-0.6,3.7,0.1c1.1,0.8,0.7,2.6,2,2.9c3.4,2.9,7.6,5.5,10.9,8.5c0.2,2.8-0.2,6.2-0.8,9
			C21.4,37.5,18.9,35.6,16.5,33.8z M16.3,83.1c-0.9,1.2-1.1,2.9-2.6,3.6c-1.1,0-1.8-0.3-2.7-0.8c-0.9-1.1-0.5-2.8-1.7-3.8
			c-0.6-0.8-1.9-0.4-2.2-1.4c0.1-1.1,0.4-2.1,1.1-3c1-0.8,2.3-0.4,3.4-0.4c5.5-4.7,11.5-9,17.2-13.4c0.4-0.1,0.6-0.1,0.8-0.5
			c1.9,0.3,1.5,2.1,2.8,3.1c0.6,1.1,0.9,2.2,1.2,3.4L16.3,83.1z M67.1,70.9c-0.7,1.1-0.5,2.5-1,3.6c-0.4,1.2-0.2,2.7-1.5,3.4
			c0,1.4-1.3,1.9-2.2,2.7c-0.7-0.2-0.4,1.1-1.3,0.7c-1.3,2.4-3.9,3.3-5.7,5c-2,0-3.4,2.1-5.4,0.6c-2-0.6-4.4-0.4-5.7-2.5
			c0.1,0,0.2,0,0.3-0.1c-1.7-1.6-3.5-3.5-5.2-5.5c-1.1-1.5-2.7-1.8-3.3-3.7c-0.5-2.8-1.2-5.6-2.4-8.2c0-0.5-0.2-1.2-0.7-1.3V65
			c0.6-0.2,1.1,0.2,1.5,0.6c0,0.6,0.6,1,0.9,1.5c0.2,1,0.8,2,1.3,2.8c1.2,0.8,1.3,2.6,1.9,3.9c1.1,0.5,1.8,1.4,3,1.6
			c0.6-0.3,0.2-1.7,1.3-1.1c0.6,1.1,0.4,2.5,1.9,2.7c0.8,0.2,1.5,0.4,2.1,0.2c0.2,0.2,0.5,0.1,0.8,0.1c0.6-0.4,0.1-1.1,0.4-1.6
			c0.4-0.1,0.7,0.2,1.2,0.1c0.2,0.5,0.2,1.2,0.8,1.5l0.1-1.3c0.2,0,0.3-0.2,0.4-0.3c0.3,0.2,0.6,0.3,1.1,0.3c-0.1,1,0.2,1.3,0.6,2
			c1.1-0.6-0.4-2.4,1.5-2.1c0.4,0.6,0.4,1.8,1.2,1.9c0.3,0.4,0.7,0.5,1.3,0.3l0.6-0.5c0.1,0.2,0.2,0.3,0.4,0.5
			c0.7-0.6,0.2-1.5,0.1-2.1c0.3-0.4,0.6,0,0.9-0.1c0.7,0.5,0.3,2,1.5,1.7c0.7-0.4,0.3-1.3,0.4-1.9h1.5c0,0.2-0.1,0.5,0.2,0.5
			c2.3-0.4,2.1-3.2,3.5-4.7c0.2-0.8,0.2-2,1.2-2.4l0.9-4.2c0.2-0.2,0.8,0,0.9-0.5C68.2,66.6,67.5,68.8,67.1,70.9z M84.8,74.2
			c0.9,2.3,3.2-0.1,4.5,1.6c0.7,0.6,1.4,1.3,1.5,2.1c-0.3,2.6-3.6,2.7-4,5.3c0.2,1.4-0.7,2.5-1.8,3.3C84.3,87,83.7,87,83,86.6
			c-0.8-1-1.9-1.7-1.9-3l-0.9-1.7l-12.3-9.2c0.5-2.5,1.4-4.9,1.5-7.4c0.3-0.6,0.4-1.5,1.3-1.7C75.2,67,80.1,70.5,84.8,74.2z
			 M75.1,38.3c-0.8,1.5-1.3,3.2-1.7,4.9c-0.1,0.1,0.2-0.7-0.4-0.8c-0.5-0.1-0.9,0.3-1,0.7c-0.7,3.4,0.8,6.6,1.7,9.6
			c0.6,3.6-1.2,6.5-3.1,8.9c-1.6,1-3.6,2-5.1,3.5c-1,0.3-2.3,0.7-2.8,1.8c-0.4,1.4,1,3.4-1.1,3.7c-0.5-0.3,0.7-2.1-0.8-1.7
			c-0.4,0.4-0.5,0.9-0.5,1.5c-1.1,0.2-2.1,0.6-2.3-0.8c-0.2-0.1-0.2-0.4-0.5-0.3c-0.5,0.2-0.3,0.9-0.1,1.2c0.2,0.2,0.1,0.4,0.1,0.6
			c-0.5,0.6-1.1,0-1.7,0.2c-0.1-0.7-0.6-1.3-1.2-1.8c-1.7,0.2-3.4,0.6-5.3,0.8c-0.6,0.4,0.1,1.8-1,1.7c-0.3-0.1-0.5-0.2-0.9-0.2
			v-1.3c-0.8-0.4-2-0.3-3-0.5c-0.5,0.4,0.2,1.1-0.2,1.6c-0.7-0.1-1.7-0.1-2-0.8c-0.8-0.4,0.1-2.7-1.4-1.6c-1.3,0.2-1.6-1.2-2.1-2.1
			c0.1-1,0-2.2-1.3-2.4c-1.2-0.3-1.7,0.4-2.7-0.6c-0.7,0.2-0.9-0.8-1.5-0.3c-2.9-0.7-5.1-3.6-5.8-6.4c-0.6-3.9,0.3-7.9-0.4-11.5
			c-0.2-0.2-0.4-0.5-0.6-0.2c-0.7,0.4-0.3,1.5-0.3,2.1H26l-1.7-3.5c-0.2-4.9,1.5-9.6,1.3-14.6c0.4-5.2,1.7-10.2,5.7-13.7
			c6-5.1,13.2-9.7,21.1-7.5c1.9,0.1,3.6,0.4,5.4,1.5c7.7,3,13,10.2,16.2,17.3C75.4,30.9,75.5,34.7,75.1,38.3z M96.6,20.9
			c-0.7,2.2-2,3.2-4,3.4c-0.4-0.2-1.2,1.1-1.2,1.1c-4.9,4.1-9.8,7.7-14.9,11.5c0-3.2,0.1-6.3-1.2-8.9l0.1-0.6
			c3.7-2.7,7-5.5,10.6-8.1c1,0.1,1.1-0.2,1.5-1.1c-0.1-1.4,0.6-2.6,1.7-3.2c0.6-0.2,1.3-0.4,1.8-0.2l1.4,2.1
			C93.8,19.1,97.8,17.2,96.6,20.9z"/>
		<path d="M45.7,80.8h0.2l1-2.1h-0.1C45.9,79,45.7,80.2,45.7,80.8z"/>
		<path d="M53.5,79.7c-0.2,0.2-0.5,0.7-0.1,0.9c0.3,0.5-0.2,1.1-0.6,1.4h0.4c0.9,0,0.7-1,0.9-1.6C54,80,54,79.7,53.5,79.7z"/>
		<path d="M60.8,65.9c-0.6-0.4-0.7-3.2-1.5-1.5c0.6,0.8,0.9,2.2,2.1,2.2C61.6,66.3,61,66.2,60.8,65.9z"/>
		<path d="M49.6,66.6c-0.8,0.3-0.4,1.7-0.8,2.1c0.2,0.2,0.5-0.3,0.7-0.3c0.2-0.4,0.3-1,0.3-1.5L49.6,66.6z"/>
		<path d="M42.9,65.4c0,0.2-0.1,0.5,0.1,0.6c0.2,1.1-1.3,1.9-0.6,2.6c0.4-0.4,0.8-1.1,1.1-1.7C43.7,66.4,44.2,64.5,42.9,65.4z"/>
		<path d="M57.8,66.3l0.2,0.2c0.2,0.4,0.3,1.1,0.9,0.8L58,64.9C57,65.1,58,65.9,57.8,66.3z"/>
		<path d="M49.6,54.7C49.2,54.6,49.4,54,49,54l-0.4,0.3c-0.6,1.5-0.6,3.3-1.4,4.8C47,60,47.3,60.7,47,61.5c0,0.4,0.3,0.7,0.6,0.9
			c0.9,0.3,1.8,0,2.6-0.5c0.3,0.3,0.4,0.5,0.8,0.7c0.9,0.7,1.6-0.4,2.3-0.8c0.5-2.8-1.7-4.9-2.4-7.4C50.4,54.1,50.1,54.6,49.6,54.7z
			"/>
		<path d="M43.3,44.4c-2.8-0.9-4.8-4.3-8.3-2.5c-0.8,0-1.6,0.5-2.3,1.1c-0.4,0.4-0.7,1.2-1.5,1.1l-0.2,1.6c0,1.8,0.4,3.4,1,4.9
			c0.3,2.4,3.2,1.8,4.9,2.4l0.7-0.3c1.9,0.4,3.1-1.5,4.7-1c1.7,0,3-1.3,3.8-2.7C47.2,46.6,44,46.2,43.3,44.4z"/>
		<path d="M59.5,42.2c-1.3,1.9-3.7,1.7-5.3,3.3c-1.2,0.8-0.5,2.1-0.6,3.3c0.8,2.6,3.8,3.2,5.9,4.1l4.3-0.5c1.1,0.4,2,0,3-0.2
			c1.3-0.5,1.4-2,1.6-3.3c-0.4-2.5-1.1-4.8-2.6-6.8C64.1,41,61.2,40.8,59.5,42.2z"/>
	</g>
</g>
<g id="AREA_1">
	<g>
		<path fill="#FFFFFF" d="M57.9,10.2c-1.8-1.1-3.6-1.5-5.4-1.5c-7.9-2.2-15.1,2.3-21.1,7.5c-4,3.5-5.3,8.5-5.7,13.7
			c0.2,5-1.5,9.7-1.3,14.6l1.7,3.5h0.2c0-0.7-0.4-1.8,0.3-2.1c0.2-0.3,0.4,0,0.6,0.2c0.7,3.6-0.2,7.7,0.4,11.5
			c0.7,2.8,2.9,5.7,5.8,6.4c0.6-0.5,0.8,0.5,1.5,0.3c1,0.9,1.5,0.2,2.7,0.6c1.3,0.2,1.4,1.4,1.3,2.4c0.5,0.8,0.8,2.2,2.1,2.1
			c1.5-1.1,0.6,1.3,1.4,1.6c0.3,0.7,1.3,0.7,2,0.8c0.4-0.5-0.3-1.1,0.2-1.6c1,0.2,2.3,0,3,0.5v1.3c0.3,0,0.6,0.1,0.9,0.2
			c1.1,0.1,0.4-1.3,1-1.7c1.8-0.1,3.5-0.5,5.3-0.8c0.6,0.5,1.1,1.1,1.2,1.8c0.6-0.2,1.3,0.5,1.7-0.2c0-0.2,0.1-0.4-0.1-0.6
			c-0.2-0.3-0.4-0.9,0.1-1.2c0.2-0.1,0.3,0.2,0.5,0.3c0.2,1.5,1.3,1.1,2.3,0.8c0-0.6,0-1.2,0.5-1.5c1.5-0.4,0.3,1.3,0.8,1.7
			c2.1-0.3,0.8-2.3,1.1-3.7c0.5-1.1,1.9-1.5,2.8-1.8c1.5-1.5,3.5-2.5,5.1-3.5c1.9-2.4,3.7-5.3,3.1-8.9c-0.9-3-2.3-6.3-1.7-9.6
			c0.1-0.4,0.5-0.8,1-0.7c0.6,0,0.2,0.9,0.4,0.8c0.3-1.7,0.9-3.4,1.7-4.9c0.4-3.6,0.3-7.4-1.1-10.8C70.9,20.4,65.5,13.2,57.9,10.2z
			 M43.5,67c-0.2,0.6-0.6,1.3-1.1,1.7c-0.7-0.8,0.8-1.6,0.6-2.6c-0.2-0.2,0-0.4-0.1-0.6C44.2,64.5,43.7,66.4,43.5,67z M46.1,49
			c-0.8,1.4-2.1,2.7-3.8,2.7c-1.7-0.5-2.9,1.4-4.7,1L36.9,53c-1.7-0.6-4.6,0-4.9-2.4c-0.5-1.5-1-3.1-1-4.9l0.2-1.6
			c0.8,0.1,1.1-0.7,1.5-1.1c0.7-0.6,1.5-1.1,2.3-1.1c3.5-1.8,5.5,1.6,8.3,2.5C44,46.2,47.2,46.6,46.1,49z M49.5,68.4
			c-0.2,0-0.4,0.4-0.7,0.3c0.4-0.4,0-1.8,0.8-2.1l0.2,0.3C49.9,67.4,49.8,68,49.5,68.4z M53.4,61.8c-0.7,0.4-1.4,1.5-2.3,0.8
			c-0.4-0.2-0.4-0.4-0.8-0.7c-0.7,0.4-1.6,0.8-2.6,0.5c-0.4-0.1-0.6-0.4-0.6-0.9c0.3-0.9-0.1-1.6,0.2-2.4c0.8-1.5,0.8-3.2,1.4-4.8
			L49,54c0.4,0,0.2,0.5,0.6,0.7c0.4-0.1,0.8-0.6,1.3-0.3C51.6,56.9,53.8,59.1,53.4,61.8z M58,66.5l-0.2-0.2c0.2-0.4-0.8-1.1,0.2-1.3
			l0.9,2.3C58.3,67.5,58.2,66.8,58,66.5z M61.5,66.7c-1.3,0-1.5-1.5-2.1-2.2c0.8-1.7,0.9,1,1.5,1.5C61,66.2,61.6,66.3,61.5,66.7z
			 M66.8,52.2c-1,0.2-1.9,0.6-3,0.2l-4.3,0.5c-2.1-0.9-5.1-1.5-5.9-4.1c0-1.2-0.6-2.5,0.6-3.3c1.5-1.6,3.9-1.5,5.3-3.3
			c1.7-1.3,4.6-1.2,6.4-0.1c1.5,2,2.2,4.3,2.6,6.8C68.3,50.2,68.1,51.7,66.8,52.2z"/>
		<path fill="#FFFFFF" d="M92.5,17l-1.4-2.1c-0.5-0.2-1.3,0-1.8,0.2c-1.1,0.6-1.7,1.8-1.7,3.2c-0.4,0.9-0.6,1.2-1.5,1.1
			c-3.6,2.6-6.9,5.3-10.6,8.1l-0.1,0.6c1.3,2.6,1.2,5.8,1.2,8.9c5.1-3.8,10-7.4,14.9-11.5c0,0,0.7-1.3,1.2-1.1c2-0.2,3.3-1.2,4-3.4
			C97.8,17.2,93.8,19.1,92.5,17z"/>
		<path fill="#FFFFFF" d="M24.6,30c-3.3-3-7.4-5.5-10.9-8.5c-1.3-0.4-0.9-2.1-2-2.9c-1.1-0.7-2.9-1.1-3.7-0.1
			c-0.4,2.4-1.2,5.3-3.8,6.2c-0.4,0.9-0.5,1.9,0.3,2.6c1.4,1.1,3.3,0.7,4.9,0.7c0.2,0.2,0.3,0.4,0.4,0.6l6.8,5.2
			c2.3,1.7,4.9,3.7,7.3,5.2C24.4,36.2,24.8,32.9,24.6,30z"/>
		<path fill="#FFFFFF" d="M29.4,63.4c-0.2,0.4-0.4,0.4-0.8,0.5C23,68.3,17,72.6,11.5,77.2c-1.1,0-2.4-0.4-3.4,0.4
			c-0.6,0.9-0.9,1.9-1.1,3c0.4,1,1.6,0.6,2.2,1.4c1.2,1,0.9,2.7,1.7,3.8c0.9,0.5,1.6,0.9,2.7,0.8c1.6-0.7,1.8-2.4,2.6-3.6l17.1-13.2
			c-0.3-1.2-0.6-2.3-1.2-3.4C30.9,65.5,31.4,63.6,29.4,63.4z"/>
		<path fill="#FFFFFF" d="M69.4,65.2c-0.1,2.5-1,4.9-1.5,7.4l12.3,9.2l0.9,1.7c0,1.4,1.1,2,1.9,3c0.7,0.4,1.3,0.4,2.1-0.1
			c1.1-0.8,2-1.9,1.8-3.3c0.4-2.6,3.7-2.7,4-5.3c-0.1-0.9-0.9-1.6-1.5-2.1c-1.3-1.7-3.6,0.6-4.5-1.6c-4.7-3.6-9.6-7.1-14.2-10.6
			C69.8,63.7,69.7,64.6,69.4,65.2z"/>
		<path fill="#FFFFFF" d="M67.4,64.7l-0.9,4.2c-1,0.4-0.9,1.6-1.2,2.4c-1.3,1.5-1.1,4.2-3.5,4.7c-0.3,0-0.2-0.3-0.2-0.5h-1.5
			c-0.1,0.6,0.3,1.5-0.4,1.9c-1.3,0.2-0.8-1.3-1.5-1.7c-0.2,0.1-0.6-0.3-0.9,0.1c0.2,0.7,0.6,1.6-0.1,2.1c-0.2-0.2-0.3-0.3-0.4-0.5
			l-0.6,0.5c-0.5,0.2-0.9,0.1-1.3-0.3c-0.8-0.1-0.8-1.2-1.2-1.9c-1.9-0.2-0.4,1.6-1.5,2.1c-0.4-0.8-0.7-1.1-0.6-2
			c-0.4,0-0.8,0-1.1-0.3c-0.1,0.1-0.2,0.3-0.4,0.3l-0.1,1.3c-0.5-0.3-0.6-1-0.8-1.5c-0.4,0.1-0.7-0.2-1.2-0.1
			c-0.3,0.5,0.2,1.3-0.4,1.6c-0.2,0-0.6,0.1-0.8-0.1c-0.6,0.2-1.4,0-2.1-0.2c-1.5-0.2-1.3-1.7-1.9-2.7c-1.1-0.6-0.7,0.7-1.3,1.1
			c-1.3-0.2-1.9-1.1-3-1.6c-0.6-1.3-0.8-3.1-1.9-3.9c-0.5-0.7-1.1-1.7-1.3-2.8c-0.3-0.5-0.9-0.8-0.9-1.5c-0.4-0.4-0.9-0.7-1.5-0.6
			v0.7c0.5,0.2,0.6,0.8,0.7,1.3c1.3,2.6,1.9,5.3,2.4,8.2c0.6,1.9,2.2,2.2,3.3,3.7c1.7,1.9,3.5,3.8,5.2,5.5c-0.1,0.1-0.2,0.1-0.3,0.1
			c1.3,2.1,3.8,1.9,5.7,2.5c2,1.5,3.4-0.7,5.4-0.6c1.8-1.7,4.4-2.6,5.7-5c0.8,0.4,0.5-0.9,1.3-0.7c0.9-0.9,2.2-1.3,2.2-2.7
			c1.3-0.7,1-2.2,1.5-3.4c0.5-1.1,0.2-2.6,1-3.6c0.4-2.1,1.1-4.3,1.2-6.7C68.3,64.7,67.6,64.5,67.4,64.7z M45.9,80.8h-0.2
			c0-0.6,0.2-1.8,1.1-2.1h0.1L45.9,80.8z M53.2,81.9h-0.4c0.3-0.3,0.8-0.8,0.6-1.4c-0.4-0.2-0.1-0.7,0.1-0.9c0.4,0,0.5,0.4,0.6,0.7
			C54,81,54.1,81.9,53.2,81.9z"/>
	</g>
</g>
</svg>
