<?xml version="1.0" encoding="utf-8"?>
<!-- Generator: Adobe Illustrator 18.1.1, SVG Export Plug-In . SVG Version: 6.00 Build 0)  -->
<!DOCTYPE svg PUBLIC "-//W3C//DTD SVG 1.1//EN" "http://www.w3.org/Graphics/SVG/1.1/DTD/svg11.dtd">
<svg version="1.1" xmlns="http://www.w3.org/2000/svg" xmlns:xlink="http://www.w3.org/1999/xlink" x="0px" y="0px"
	 viewBox="0 0 100 100" enable-background="new 0 0 100 100" xml:space="preserve">
<g id="AREA_3">
	<path fill="none" stroke="#FDBB2D" stroke-width="2.6389" d="M85.9,4.1c0.7,1.2,1.3,2.5,2.2,3.5c0.2,0.1,0.4,0.3,0.7,0.5
		c2.6,1.4,6.8,3.1,6.7,6.8c-0.2,4,1,7.3-0.5,10.7c-0.5,1.3-1,2.7-1.7,3.9h-0.2c-3.9-3.1-2.9-8.1-4.8-12c-0.3-0.5-0.8-0.8-1.3-0.9
		c-1.2-0.3-2.2,0.8-2.8,1.7l-0.2,0.3c1.7,3.7,2.9,7.5,4.9,11c0.5,1.5,0.4,2.9,0.7,4.5c0.4,2.7,1.3,5.7,0.2,8.4
		c-0.3,2-0.2,4.3-1.7,5.8c0.9,3,2.8,5.7,3.1,9c1.7,2.8,3.7,5.6,3.1,9.4c-0.7,3.5,2.3,6.2,0.6,9.5c-0.7,2.6-2.3,5.5-5.2,6.1
		c-1.8,0.5-3.7,0-5.2-0.8c-3,1.6-5.4,4.5-9.2,4.2c-0.8,0.7-1.7,1.3-2.7,1.5c-1.6,0-3.7-0.2-4.9,1.4c-0.1,0.5-0.2,0.8-0.2,1.3
		L67,96.6c-2-1.9-3.9-4.1-5.9-6.1c-3.6,0.7-7.3,1.4-11,1.6c-1.2,1.6-2.4,3.2-3.6,4.9c-1-1.9-2-3.8-3-5.7c-0.4-0.4-1.1-0.2-1.6-0.4
		c-3.6-0.4-7.3-1.6-10.6-3.3c-2,0.8-3.8,1.7-5.7,2.6l0.5-6.4c-3.8-2.6-7.1-6.4-8.5-10.5h-6.2c1.1-2,2.3-4,3.5-6v-0.5
		c-1.6-4.3-2.4-8.9-2.2-13.9l-0.1-0.1l-6.2-2c2.3-1.7,4.8-3.3,7.1-4.9c1.1-3.7,2.3-7.3,5.2-10.3c0.7-0.8,1.8-1.6,1.4-2.8
		c-0.9-1.4-1.7-3.4-3.6-3.8c-0.9,0.1-2-0.1-2.7,0.5c0,0.2-0.2,0.4-0.2,0.6c-0.9,2.8-3.4,5.8-6.2,6.9C5,32.6,3.7,26.2,6.9,22.1
		c2.3-3.1,3.7-6.6,5.4-10c4.1-4.5,9.8-5.6,14.8-8.2c2.7-0.6,4.4,2,6.2,3.7c1,1.1,2.2,2.1,3.4,3.1c2.8-2.5,6-4.2,9.7-4.5
		c4.3-0.4,8.5,0.1,11.9,2.2c3.7-0.9,7.9-1,11.9-0.5C73.6,3.9,78,1.7,82.8,2C84,2.3,85.2,2.9,85.9,4.1z"/>
</g>
<g id="AREA_2">
	<g>
		<path fill="#FFFFFF" d="M22.2,67.1c2.5,5.4,6.5,10.3,11.6,14.2H34c0.1-0.7,0.1-1.6,0-2.4c-4.2-2.5-8-6.1-9.7-10.5
			c-3-7.3-7.5-14.4-6.2-23.2c0.4-2.9,1.3-5.6,1.9-8.3l-1.5,1.3c-0.1,0.5-0.2,1-0.4,1.4C15.2,49.1,17.6,59.3,22.2,67.1z"/>
		<path fill="#FFFFFF" d="M67.6,85.2c-2.5-0.1-4.5,1.2-7,1.2c-1.1-0.1-1.8-1.2-3-1.2c-1.7,0.6-3.6,1.9-5.5,0.7c-1.3-1.3-3.1-2-5-1.5
			c-2.2,1.4-5.1,1.7-7.5,1.6c-2,0.1-3.6-1.4-4.5-3.1c-0.8-0.5-1.8-0.8-2.6-0.7c0.1,0.5,0.4,0.9,0.5,1.3c0.7,1.2-0.2,2.4-0.5,3.4
			c3.2,1.7,6.5,3.1,10.2,3.5c1.1,0.5,1-1,1.7-1.4c1.3-1.3,3.8-0.8,5.2-0.2c0.6,0.4,0.8,1.1,1,1.7c3.3,0,6.7-0.2,9.7-1.1
			c1-0.1,1.1-1.5,2-2c1.1-0.8,2.8-0.5,3.9,0l1.9-0.5C67.9,86.2,68.2,85.5,67.6,85.2z"/>
		<path fill="#FFFFFF" d="M30.6,80.5c-6-5.1-8.9-11.7-11.7-18.2c-3.2-7.2-3.5-15.2-1.7-23.1h-0.1c-1.2,1.7-2.2,3.5-2.6,5.6
			c-0.5,1.2,0.7,2,0.8,3.1c0.4,1.8-0.8,3-1.7,4.3c-0.5,4.7,0.6,9.5,2.3,13.7c0.7-0.2,1.4-0.7,2.2-0.4c1.5,1.2,2.3,2.8,2.7,4.6
			c0.1,1.3-1.3,1.7-2.1,2.3c1,3.8,3.5,7.6,7.2,9.8C26.9,80.5,28.9,80.3,30.6,80.5z"/>
		<path fill="#FFFFFF" d="M93,63.7c-2.3-2.9-2.7-6.8-6-8.9c0.7,0,1.4,0.4,2.1,0.5c-0.2-1.6-0.3-3.2-1.3-4.5
			c-1.4-1.2-2.5-2.8-3.6-4.1c-1.4-2.1-3.5-3.2-5.5-4.1c1.6-0.8,3.8-1.1,5.3,0c1.8,1.3,2.1,3.2,2.6,5c1.3-2.8,2.8-5.5,2.3-9.1
			c-0.7-4.7-0.7-9.2-3.4-13.2c-1.3-1.8-0.8-4.4-2.3-6.1c-2-2.1-4.7-3.6-6.3-6.1c1-1.8,3-2.2,4.8-2.1c3.5,0.1,6.7,2.9,7.9,6.1
			c1.4,2.9-0.1,6.7,3.1,8.8c0.8-1.3,1.6-2.6,1.8-4.1c-0.7-3.9,0.6-8.7-2.8-11.4c-2.1-2.1-6-2.3-6.6-5.7c-0.4-0.7-1.1-1.3-1.8-1.4
			c-5.6-1.3-9.5,3.4-13.8,6L68.2,9c-3.6-1.6-6.7,1-10.3,1c-1.9-1.4-4.1-2.3-6.5-2.5c-5.6-0.5-11.1,0.7-14.9,4.6
			c-1.6-1.4-3.3-2.5-4.9-4.1c-0.6-0.8-1.4-1.9-2.2-2.5c-1-0.7-2.4-1-3.5-0.4c-2.1,1.1-4.1,2.4-6.1,3.5c-2.3,1.6-5.4,1.9-7,4.5
			c-1.9,4.1-4,8.2-6.2,12.2c-1.6,3.1-0.1,6.7,1.3,9.4c0.9-0.5,1.6-1.4,2.2-2.2c1.2-2.2,2.6-4.6,1.9-7.5c0.2-2.8-0.9-6.4,1.6-8.2
			c0.2-0.1,0.3-0.4,0.5-0.2c-0.4,0.8-0.5,1.8-0.1,2.6c0.5-0.1,0.9-0.3,1.3-0.6c2.4-2.2,4.8-4.7,7.4-6.6c1.6-0.8,3.8-0.7,5.4,0.1
			c1,0.6,1.5,1.7,1.4,2.7c-1.2-1.5-2.7-2.4-4.5-2.5c-0.9-0.1-1.5,0.8-1.9,1.4c1.1,0.2,2.1,0.6,3,1.1c1.4,0.9,2.3,2.4,2.1,4.1
			c-0.8,2-2.4,3.6-3,5.6c-0.3-0.6-0.7-1.2-1.1-1.8c-0.6-0.7-1.5-1.2-2.5-0.9c-1,0.9-0.9,2.1-1,3.5c-0.1,0.1,0,0.4-0.2,0.4
			c-0.3-1.1-0.5-2.2-1.3-3c-0.5-0.2-1-0.6-1.6-0.3c-0.7,0.3-0.9,1.1-1.2,1.8c-0.1,0.3,0,0.7-0.3,0.9c-0.2-1.1-0.3-2.2-1-3
			c-0.3,0-0.6-0.7-0.9-0.3c-0.9,1-1.5,2.6-0.8,3.9c1.9,1.7,4.9,0.7,6.7,2.7c2.8,2.7,1,6.8,0.2,9.8c-1.2,7.1-0.3,14.2,1.9,20.4
			c1.6,3.9,2.7,8.6,7,10.6c0.5,0.1,1,0.1,1.3-0.4c0.7-2.6,2.1-5.1,4.6-6.4c0.4-0.1,0.6-0.6,1-0.5c-1,1.6-2.1,3.2-2.9,4.9
			c-1,2.8-2.5,7,0,9.5c-0.4-4.4,0.4-8.5,2.7-11.9c1.1-2.5,3.7-3.9,5.8-5.1c2.5-1.3,2.8-4,4-6.2c0.7-1.4,2.3-2,3.7-2.1
			c-1.5,1.6-2.7,3.3-3,5.4c-0.7,4.3-5.9,4.9-7.8,8.5c-1.2,3.1-3.1,5.9-3.2,9.4c0.1,2.4-0.7,5.2,1.1,6.9c2.1,1.4,5.4,1.6,7.7,0.7
			c1.5-1.2,2.8-2.3,4.3-3.5c1.8-1.1,1.4-3.4,2.6-4.8c0.5-0.2,1-0.5,1.6-0.4c-0.2,3.1-1.1,5.9-3.1,8.3l5-0.8c2.1-0.3,4.4-1,5.3-3.1
			c0.2-0.6,0-1.4,0.3-1.9c0.4,1.1,0.8,2.1,1.1,3.3c0.4,1.8-0.3,3.4-1.7,4.6c1.4,0.5,2.8,0.3,4.2,0c2.4-0.4,1.2-3.5,3.4-4.3
			c0.5,1.5,0.6,3,0.6,4.6c1.4-0.1,2.8-0.1,3.9-0.7c1.6-1.1,1.6-3.2,1.5-5c-0.1-0.7-0.5-1.3-1.2-1.6c-1.4,0-2.5-1.3-3.4-2.4
			c-1.2-1.1-3.4-0.9-3.7-2.9c-0.6-1-1.6-0.3-2.4-0.2c-0.9-0.4-0.4-1.6-1-2.1c-0.5-0.3-1.1,0-1.6,0.2c-2,0.9-1.7-2-3.4-2.4
			c0.4-0.3,0.8-0.6,1.2-0.8c3.2-2,5.9,1.3,8.7,2.4c1.8,1,3.4,2.3,5.4,2.8c1.8,0.6,4.1,0.5,6.2,0.3c3.7-0.6,7.5-1.3,10.2-4.3
			c0.4-0.7,0.9-1.6,0.5-2.5c-0.9-1-2-2.1-3.2-2.3c-0.5-0.1-0.9,0-1.4,0.2c-2,1.4-3.7,3.3-6.2,3.4c-4.1,0.2-7.4-1.6-11.1-2.5
			c-2.9-1.6-6.1-2.8-9.6-1.8c-3.4,1.2-6.8,2.2-9.7,4.6c-0.4-0.6-0.8-1.3-1-2c-0.2-0.8,0-1.5,0.6-2.1c0.9-0.9,2.6-0.3,3.6-0.5
			c1.7-0.4,3.2-1.5,5-1.5c2.7,0.4,4.8-2.1,6.1-4.2c1.7,3,5.2,1.8,7.9,2.1c2,0.3,3.9,1.2,5.9,1.1c0.6-0.7,0.7-1.7,0.9-2.6
			c0.1-0.4,0.1-0.8,0.2-1.1c1.1,1.4,2.4,2.6,2.8,4.2c3.6,1.1,8.5,0.1,10.4,4.5c1.9,2.4-0.9,4.5-2,6.4c2.3,3.3-0.7,6.5-2.3,9.3
			c0.8,0.9,2.1,0.9,3.2,0.6c2.8-0.2,4.3-3.2,5-5.5c0.5-1.2-0.3-2.1-0.5-3.1C92.3,69.8,93.4,66.4,93,63.7z M42.5,79.1
			c-1.1,0.9-2.6,0.8-3.8,0.3c-0.7-0.4-1.4-0.9-1.6-1.7c0.1-1.8,1-3.2,1.4-4.8c0.2-0.6,0.9-0.6,1.4-0.7c-0.1,1-0.5,2.4,0.4,3.2
			c1.1,1,2.8,1.5,4.2,0.9c0.9-0.3,1.8-0.8,2.6-1.3C45.6,76.1,43.9,77.6,42.5,79.1z M46.8,68.7c2.1,1.1,4.8,0.3,6.8-0.5
			c-1.7,1-3.5,2.3-5.5,2.8c-1.2,0.2-2.2-0.1-3.1-0.8c-0.7-0.9-0.9-2.1-1.2-3.2c-0.2-0.6,0-1.3,0.5-1.7c0.2-0.2,0.4-0.3,0.6-0.4
			C45.2,66.4,45.5,67.9,46.8,68.7z M84.4,53.4c-1.9-3-5.6-3.1-7.1-6.4l-0.7-1.7C79.2,48.3,83.8,49.3,84.4,53.4z M82.5,26.6
			c1.4,0.3,2.9,1.5,3.5,2.9c0.2,0.4,0.3,0.8,0.6,1.2c-0.7,0.1-1.4-0.1-2-0.5c-0.4-0.7-1.1-1.3-1.8-1.4c-0.4,0-0.7,0.4-0.9,0.7
			c-0.2,0.7,0.1,1.3,0.5,1.9c-0.2-0.2-0.6-0.5-0.8-0.7c-0.4-0.4-1-1-1.7-1c-1.5,1.6,1,3.2,0.5,5.1c-0.1,1.5-1.6,3-3,3.6
			c-1.5,0.5-3.5,0.2-5-0.4l-1.4-1c-1.6-0.3-3.5-0.1-4.7-1.3c-0.2-0.5,0-1.1,0.2-1.6c1.8-0.3,3.6-0.7,5-1.7
			C74.7,29.6,77.9,25.8,82.5,26.6z M51.7,39.1l1.4,0v0.1c-2.8,1.8-5.5,4.2-9.3,3.2c-2-0.7-3.8-2.8-4.4-4.8c-0.2-1.1,0-2.2,0.1-3.3
			c1,1.8,1.1,4.8,3.6,5.7c1.8,1,4.3,1.6,6.2,0.4c-1-0.3-2.1-0.4-3.2-0.6c-0.4,0-0.8-0.1-1.2-0.2c0.3-0.3,0.7-0.7,1.3-0.6
			c-2-0.4-3.5-2.5-4-4.3c-0.3-1.9,0.9-3.1,1.6-4.6c0.1-0.5,0.1-0.9,0-1.4c-0.1-0.4-0.7-0.5-1-0.3l-2.1,1.4c0.5-0.7,1.1-1.6,0.5-2.5
			C41,27,40.5,27,40,27.1c-1,0.3-1.3,1.5-2.4,1.6h-1.3c0.1-0.5,0.5-0.9,0.7-1.4c1.3-1.9,3.3-3.1,5.7-2.7c3.2,0.8,5.4,3.5,7.6,6.1
			c1.4,2.5,4.1,3.8,6.5,4.6c0,0.6,0.3,1.3,0,1.8c-0.9,0.8-2.2,0.7-3.4,0.8h-1.8c-1.3,1.1-3.4,1.5-4.8,1.2l-0.1,0.1
			C48.4,40.3,50,39,51.7,39.1z M66.8,37.5c1.8,0.5,3.4,1.6,5,2.4c-0.7-0.1-1.4-0.5-2.2-0.7c-2.5-0.9-5.5-0.4-8.3-0.4
			c-1.8,0.2-3.3,1-4.8,1.7C59.6,38.4,63,36.2,66.8,37.5z M65.1,30.2c1-1.1,2.5-1.3,3.7-2.3c1.6-1.4,2.1-4,4.4-4.3
			c1.6-0.3,2.8-1.4,4.4-1.7c0.9,0.1,1.6,0.9,2.3,1.4v0.1c-2.1-0.1-4,0.2-5.3,1.9c-1.4,1.9-2.2,5-4.9,5.5c-1.4,0.3-2.8,0.6-4,1.6
			C65.4,31.8,65,30.9,65.1,30.2z M57.9,41.6c1.7-1.7,4.1-1.7,6.3-2.2c1.9,0,4,0.4,6.1,0.7c1.2,0.4,2.1,1.4,2.8,2.4
			c0,1.4-0.4,2.9-1.6,3.8c-0.3,0.1-0.7,0.3-1,0c-0.5-0.4-0.9-1-1-1.7c-0.2-0.2-0.7-0.3-1-0.2c-1.3,0.7-0.8,2.3-1.3,3.4
			c0,0.3-0.3,0.5-0.6,0.6c-1.2-0.2-2.8-0.1-3.3-1.5c-0.2-0.9-0.5-1.8-1.3-2.3c-0.5-0.2-1.1-0.5-1.7-0.2c-0.8,0.8-0.6,2.2-0.8,3.3
			c-0.9,0-2-0.3-2.5-1.2C56.7,44.7,57,42.9,57.9,41.6z M80.5,7l1.3-0.8C85,7,86.9,10.9,90,11.9c2.5,1.6,2.1,5.1,1.7,7.7
			c0.3-4.3-2.1-8.2-6-10c-2.4-0.8-5.4-0.5-7.6,0.6c-1.1,0.5-2,1.4-2.8,2.2C75.5,9.6,78.4,8.2,80.5,7z M77.1,17.6
			c1.1,0.3,2.1,0.9,2.8,1.9c0.4,0.7,0.6,1.4,0.8,2.1c-2-3-5.4-2.9-8.3-2.8C73.7,17.6,75.4,17.1,77.1,17.6z M57.1,19.5l3.6,0.9
			c1.5,0.3,2.4,2.3,3.9,2.5c2.2,0.6,3.8-1.1,5.5-2c0.6,0,1,0.2,1.4,0.5c-0.1,0.8-0.5,1.5-1.2,2c-2.4,1.1-4.8,2.2-7.3,2.9
			c-2.6-2-4.4-4.9-7.9-5.1c-0.6-0.4-1.5-0.4-1.6-1.3C54.6,19.3,55.9,19.4,57.1,19.5z M51.9,21.6c2.1,1.6,4.1,3.8,6.2,5.4
			c2,2,3.9,4.3,3.4,7.1c-0.3,0.6-0.7,1.2-1.4,1.4c-0.6,0.2-1.5,0.2-2.1,0c0.6-1.3,2-2.6,1.3-4.1c-2.1-2-4.2-4.4-6.7-6
			c-1.5-1.8-3.6-3.1-6-3.5C48.1,21.1,50.3,20.8,51.9,21.6z M34.4,18.1c1.1-1.9,3.3-2,5.1-2.6c1.4-0.1,2.9,0.3,3.6,1.6
			c0.2,0.6,0.3,1.1,0.4,1.7c-2-1.2-4.3-1.5-6.3-0.1c-2.2,1.7-1.8,4.6-3.6,6.4c-0.4,0.5-0.9,0.9-1.4,1.3
			C32.8,23.7,33.5,20.9,34.4,18.1z M38.7,52.2c-1.4,2.5-2.8,5-5.2,7c0.2-2,0.2-3.9,0.6-5.9c0.5-1.7,2.7-2.8,2.1-4.8
			c-1.6-3.4-2.5-7.1-4.6-10.4c-1-2.3-1.1-5.6,0.6-7.6l0.8-1.1c0,2.7,0.1,5.4-0.1,8.1c-0.2,2,1.8,3,2.5,4.6c0.4,1.2,0.6,2.8,2.1,3.1
			c2.4,0.3,4.8-0.3,7.1-0.7v0.2C43.2,47.6,40.6,49.7,38.7,52.2z M50.7,45c-2.2,2.2-4.1,4-6,6.6c0.3-1.5,0.4-3.1,1.7-4.1
			c2.2-1.4,3.1-4.4,5.7-4.8c0.9-0.3,2-0.2,3-0.3C53.6,43,51.9,43.5,50.7,45z M75.4,54.6c-3.6,0.5-6.3-2-9.8-1.2
			c-2.3,0.6-4.3,1.9-6.7,2.5c1.9-1.4,3.9-2.7,6.2-2.9c0.4-0.3,1.3-0.2,1.3-1v-0.2c-2.2,0-4.4,0.2-6.3,1.4c-1.6,1.4-3.4,2.1-5.6,1.9
			c2.1-1.3,4.2-3,6.5-3.9c2.7-0.7,5.3-1.6,8.3-1.2c2.7,0.7,5.5,1,8.1,2.2c-2.9,0-6.2-1.6-9.1-0.1c4,2.5,9.7,0.4,13.7,2.7
			c1.3,0.6,2.5,1.7,3.5,2.8C82.5,55.7,79.3,54.2,75.4,54.6z"/>
		<path fill="#FFFFFF" d="M69.6,41.9c0.1-0.2,0.3-0.4,0.2-0.7c-1.7-1-3.8-1-6-0.9c-1.6,0.4-3.9,0-4.4,2.1l1.8,0.1
			C63.7,41.5,66.9,42.1,69.6,41.9z"/>
		<path fill="#FFFFFF" d="M75.2,33.1c0.2-0.1,0.3-0.3,0.2-0.6c-0.1-0.2-0.3-0.1-0.4-0.2c-0.2,0.1-0.5,0.3-0.4,0.5
			C74.7,33,75,33.1,75.2,33.1z"/>
		<path fill="#FFFFFF" d="M76.8,33.2c0.4-0.1,0.5-0.6,0.4-1c-0.2-0.2-0.4-0.5-0.8-0.4c-0.2,0-0.4,0.2-0.5,0.3
			c-0.1,0.2-0.1,0.6,0,0.8C76.2,33.1,76.5,33.3,76.8,33.2z"/>
		<path fill="#FFFFFF" d="M75.8,37.9c1,0.2,1.8-0.5,2.4-1.2c0.6-0.9,0.8-1.9,1.1-2.8c-0.2,0-0.4,0-0.5-0.1l-1,1.4
			c-1.2,0.9-2.8,1.2-4.2,1c-0.5-0.2-0.7-0.7-0.9-1.1c-0.4,0.2-0.9,0.5-1.2,0.9C72.3,37.7,74.2,37.6,75.8,37.9z"/>
		<path fill="#FFFFFF" d="M51.5,36.8l-1-1c-0.4-0.1-0.4,0.6-0.7,0.8c-1.8,0.6-3.6-0.3-4.9-1.7c-0.5-0.5-0.3-1.8-1.4-1.5
			c0.3,1.8,0.6,3.8,2.3,4.9C47.7,38.1,50.3,39,51.5,36.8z"/>
		<path fill="#FFFFFF" d="M46.7,33.2c0.3,0,0.4-0.3,0.4-0.6c-0.1-0.1-0.3-0.2-0.5-0.2c-0.3,0-0.2,0.4-0.2,0.6
			C46.4,33.2,46.6,33.2,46.7,33.2z"/>
		<path fill="#FFFFFF" d="M48.4,34.3c0.3-0.2,0.4-0.7,0.3-1c-0.2-0.2-0.5-0.4-0.8-0.3c-0.4,0.1-0.7,0.6-0.5,1
			C47.6,34.3,48,34.5,48.4,34.3z"/>
		<path fill="#FFFFFF" d="M62.1,57.4c-0.8,1-1.3,2.2-1.2,3.4c1,0,1.9,0.4,2.7,0.7C63.9,60,63.6,58.3,62.1,57.4z"/>
		<path fill="#FFFFFF" d="M68.6,61.8C68,62,67.9,62.6,68,63.2c0.6,0.4,1.5,0.8,2.2,0.9c0-0.7,0.1-1.5-0.5-2
			C69.4,61.7,69,61.7,68.6,61.8z"/>
		<path fill="#FFFFFF" d="M71.6,61.7c-0.8,0.5-0.8,1.5-0.7,2.4h1.7c0.3-0.5,0.3-1.3,0-1.7C72.4,62,72.1,61.7,71.6,61.7z"/>
		<path fill="#FFFFFF" d="M74,61.4c-0.2,0-0.4,0.2-0.6,0.3c-0.6,0.6-0.2,1.5,0.1,2.1c0.7,0,1.4,0,1.9-0.4c-0.1-0.4,0-0.9-0.3-1.3
			C74.9,61.8,74.5,61.4,74,61.4z"/>
		<path fill="#FFFFFF" d="M76.1,62.8c1.2,0.2,2.4,0.1,3.4-0.5c0-2-0.7-3.6-2.1-4.9l-0.1,0.3c0,1.2-1,2.1-1,3.2c0,0.2,0.2,0.5,0,0.7
			C76.3,62.1,76.2,62.4,76.1,62.8z"/>
		<path fill="#FFFFFF" d="M81.1,63.2L79.7,63c-1.8,0.4-3.3,1.3-5,1.8c1.1,0.6,2.6,0.9,3.9,0.8C79.7,65.4,80.5,64.2,81.1,63.2z"/>
		<path fill="#FFFFFF" d="M86.6,71.7c-1.6,0.3-3,1-4.2,2.2c-1.5,1.5-3.9,1-5.9,1.3c-0.9,0.5-1.4,1.6-1.3,2.5c0.9,3-0.8,5.9-2.6,8.2
			c1.5-0.9,3.4-1.1,5.3-1.2c2.1-0.9,2.9-3.1,3.5-5.1c0.1,0.5,0,1,0.2,1.5c0.2,0.2,0.1,0.7,0.5,0.7c0.1-0.4,0.6-0.4,0.8-0.7
			C85.9,78.8,87.1,75.6,86.6,71.7z"/>
		<path fill="#FFFFFF" d="M63,88.2c-0.5,0.4-0.9,0.9-1.1,1.4c1.4,1.8,2.9,3.7,4.3,5.3l0-6.8C65.3,87.8,63.8,87.2,63,88.2z"/>
		<path fill="#FFFFFF" d="M47.6,89c-1.2-0.2-2.1,0.7-2.9,1.4c0.7,1.6,1.3,3.3,2.1,4.8l2.8-4.2v-0.2C48.9,90.1,48.4,89.4,47.6,89z"/>
		<path fill="#FFFFFF" d="M30.8,82c-1-0.4-1.9,0-2.9,0l-0.1,0.1c-0.3,2.1-0.7,4.2-1,6.2l4.6-2.3c0.2-1.1,0.4-2.6-0.1-3.6L30.8,82z"
			/>
		<path fill="#FFFFFF" d="M16.9,67l-2.2,2.9c-0.5,0.7-0.9,1-1.3,1.7c1.8-0.2,3.3-0.3,5.1-0.5c0.1-0.7,0.3-1.6,0.2-2.3
			C18.4,68,17.6,67.4,16.9,67z"/>
		<path fill="#FFFFFF" d="M14.3,47.4c-0.1-0.2,0-0.5-0.2-0.7c-1.8,1.2-3.7,2.1-5.6,3.3v0.2c1.7,0.4,3.4,1.1,5.1,1.4
			C14.2,50.3,14.7,48.6,14.3,47.4z"/>
	</g>
</g>
<g id="AREA_1">
	<g>
		<path d="M94.3,66.7c0.6-3.7-1.4-6.5-3.1-9.4c-0.2-3.4-2.1-6-3.1-9c1.5-1.5,1.4-3.9,1.7-5.8c1.1-2.7,0.1-5.7-0.2-8.4
			c-0.3-1.5-0.2-2.9-0.7-4.5c-2-3.5-3.3-7.3-4.9-11l0.2-0.3c0.6-0.9,1.6-2,2.8-1.7c0.5,0.1,1,0.5,1.3,0.9c1.9,3.9,0.9,8.9,4.8,12
			h0.2c0.7-1.2,1.2-2.6,1.7-3.9c1.5-3.5,0.3-6.8,0.5-10.7c0.1-3.7-4.1-5.4-6.7-6.8c-0.2-0.2-0.5-0.4-0.7-0.5c-1-1.1-1.5-2.3-2.2-3.5
			C85.2,2.9,84,2.3,82.8,2C78,1.7,73.6,3.9,70.3,7.8c-4-0.5-8.2-0.4-11.9,0.5C55,6.3,50.8,5.8,46.5,6.1c-3.8,0.3-6.9,2-9.7,4.5
			c-1.1-1-2.3-2-3.4-3.1c-1.9-1.7-3.5-4.3-6.2-3.7c-5,2.7-10.7,3.8-14.8,8.2c-1.7,3.4-3.1,6.9-5.4,10C3.7,26.2,5,32.6,7.2,36.7
			c2.9-1.1,5.3-4.1,6.2-6.9c0-0.2,0.3-0.3,0.2-0.6c0.7-0.7,1.7-0.5,2.7-0.5c1.9,0.4,2.7,2.4,3.6,3.8c0.3,1.2-0.7,2-1.4,2.8
			c-2.9,3-4.1,6.6-5.2,10.3c-2.4,1.6-4.8,3.3-7.1,4.9l6.2,2l0.1,0.1c-0.2,5,0.6,9.7,2.2,13.9v0.5c-1.1,2-2.3,4-3.5,6h6.2
			c1.4,4.1,4.7,7.9,8.5,10.5l-0.5,6.4c1.9-0.8,3.8-1.8,5.7-2.6c3.3,1.7,6.9,2.9,10.6,3.3c0.5,0.2,1.2,0,1.6,0.4c1,1.9,2,3.9,3,5.7
			c1.2-1.6,2.4-3.3,3.6-4.9c3.7-0.2,7.4-0.9,11-1.6c2.1,2,3.9,4.2,5.9,6.1l0.5-6.7c0-0.5,0-0.8,0.2-1.3c1.3-1.6,3.3-1.4,4.9-1.4
			c1-0.2,1.9-0.8,2.7-1.5c3.8,0.3,6.2-2.6,9.2-4.2c1.5,0.7,3.5,1.3,5.2,0.8c2.9-0.6,4.5-3.5,5.2-6.1C96.6,72.9,93.6,70.2,94.3,66.7z
			 M18.4,38.2l1.5-1.3c-0.5,2.7-1.5,5.4-1.9,8.3C16.7,54,21.2,61,24.3,68.4c1.7,4.4,5.5,8,9.7,10.5c0.2,0.7,0.1,1.6,0,2.4h-0.1
			c-5.1-3.9-9.1-8.8-11.6-14.2c-4.6-7.8-7-18-4.2-27.4C18.2,39.2,18.3,38.7,18.4,38.2z M8.5,50.1V50c1.8-1.2,3.7-2.1,5.6-3.3
			c0.2,0.2,0,0.5,0.2,0.7c0.5,1.3-0.1,2.9-0.7,4.2C11.9,51.2,10.2,50.5,8.5,50.1z M18.5,71.1c-1.8,0.2-3.3,0.3-5.1,0.5
			c0.4-0.7,0.8-1.1,1.3-1.7l2.2-2.9c0.7,0.4,1.5,1.1,1.7,1.9C18.8,69.5,18.6,70.4,18.5,71.1z M26,82.2c-3.7-2.2-6.2-5.9-7.2-9.8
			c0.8-0.6,2.1-1,2.1-2.3c-0.4-1.7-1.3-3.4-2.7-4.6c-0.7-0.2-1.5,0.2-2.2,0.4c-1.7-4.2-2.7-9-2.3-13.7c0.9-1.3,2.1-2.6,1.7-4.3
			c-0.1-1.1-1.3-1.9-0.8-3.1c0.4-2.1,1.4-3.9,2.6-5.6h0.1c-1.8,7.9-1.5,15.9,1.7,23.1c2.8,6.5,5.7,13.1,11.7,18.2
			C28.9,80.3,26.9,80.5,26,82.2z M31.3,86l-4.6,2.3c0.2-2,0.7-4.1,1-6.2l0.1-0.1c1-0.1,1.9-0.4,2.9,0l0.4,0.4
			C31.7,83.4,31.6,84.9,31.3,86z M49.5,91l-2.8,4.2c-0.8-1.5-1.4-3.2-2.1-4.8c0.9-0.6,1.8-1.6,2.9-1.4c0.8,0.4,1.3,1.1,1.9,1.7V91z
			 M61.9,89.6c0.2-0.5,0.7-1,1.1-1.4c0.8-1,2.3-0.4,3.2-0.1l0,6.8C64.8,93.3,63.4,91.4,61.9,89.6z M66.1,87.2
			c-1.1-0.5-2.8-0.8-3.9,0c-0.9,0.5-1,1.9-2,2c-3,0.9-6.3,1.2-9.7,1.1c-0.1-0.7-0.4-1.3-1-1.7c-1.4-0.6-3.9-1-5.2,0.2
			c-0.7,0.4-0.6,1.9-1.7,1.4c-3.7-0.4-7-1.8-10.2-3.5c0.3-1,1.2-2.2,0.5-3.4c-0.1-0.5-0.4-0.9-0.5-1.3c0.8,0,1.8,0.2,2.6,0.7
			c0.9,1.7,2.5,3.2,4.5,3.1c2.5,0.1,5.3-0.2,7.5-1.6c1.9-0.5,3.7,0.2,5,1.5c1.9,1.2,3.8-0.2,5.5-0.7c1.2,0,1.9,1.1,3,1.2
			c2.5,0,4.5-1.3,7-1.2c0.6,0.3,0.3,1,0.5,1.6L66.1,87.2z M82.8,81.1c-0.2,0.3-0.7,0.3-0.8,0.7c-0.4,0-0.3-0.5-0.5-0.7
			c-0.2-0.5-0.1-1-0.2-1.5c-0.6,2-1.4,4.2-3.5,5.1c-1.9,0.1-3.7,0.3-5.3,1.2c1.8-2.3,3.5-5.2,2.6-8.2c-0.1-0.9,0.5-2,1.3-2.5
			c2.1-0.3,4.4,0.2,5.9-1.3c1.2-1.2,2.7-1.9,4.2-2.2C87.1,75.6,85.9,78.8,82.8,81.1z M94.2,75.4c-0.7,2.3-2.2,5.3-5,5.5
			c-1.1,0.3-2.4,0.3-3.2-0.6c1.6-2.8,4.6-6,2.3-9.3c1.1-1.9,3.9-4,2-6.4c-1.9-4.4-6.8-3.3-10.4-4.5c-0.4-1.6-1.8-2.9-2.8-4.2
			c-0.2,0.3-0.2,0.7-0.2,1.1c-0.2,0.9-0.3,1.9-0.9,2.6c-2,0.1-3.9-0.7-5.9-1.1c-2.8-0.3-6.2,0.9-7.9-2.1c-1.3,2-3.4,4.6-6.1,4.2
			c-1.9,0-3.3,1.1-5,1.5c-1,0.3-2.7-0.3-3.6,0.5c-0.5,0.6-0.8,1.3-0.6,2.1c0.2,0.7,0.6,1.4,1,2c2.9-2.3,6.3-3.4,9.7-4.6
			c3.4-1,6.7,0.2,9.6,1.8c3.6,0.9,7,2.7,11.1,2.5c2.5-0.1,4.2-2,6.2-3.4c0.5-0.1,0.9-0.3,1.4-0.2c1.2,0.2,2.3,1.4,3.2,2.3
			c0.5,0.9,0,1.8-0.5,2.5c-2.7,3-6.5,3.7-10.2,4.3c-2.1,0.1-4.4,0.3-6.2-0.3c-2-0.5-3.6-1.8-5.4-2.8c-2.8-1.2-5.5-4.4-8.7-2.4
			c-0.4,0.2-0.8,0.5-1.2,0.8c1.6,0.4,1.4,3.3,3.4,2.4c0.5-0.1,1.1-0.5,1.6-0.2c0.6,0.6,0.2,1.8,1,2.1c0.8-0.1,1.8-0.8,2.4,0.2
			c0.3,2,2.5,1.8,3.7,2.9c0.9,1.1,1.9,2.4,3.4,2.4c0.7,0.3,1.1,1,1.2,1.6c0.1,1.8,0.1,3.9-1.5,5c-1.2,0.6-2.6,0.6-3.9,0.7
			c0-1.6,0-3.1-0.6-4.6c-2.2,0.8-1.1,3.9-3.4,4.3c-1.4,0.3-2.9,0.5-4.2,0c1.4-1.2,2.1-2.8,1.7-4.6c-0.3-1.2-0.7-2.2-1.1-3.3
			c-0.3,0.6-0.1,1.3-0.3,1.9c-0.9,2.1-3.2,2.8-5.3,3.1l-5,0.8c2-2.4,2.8-5.2,3.1-8.3c-0.6-0.1-1.1,0.2-1.6,0.4
			c-1.2,1.4-0.8,3.7-2.6,4.8c-1.5,1.1-2.8,2.3-4.3,3.5c-2.3,1-5.6,0.7-7.7-0.7c-1.8-1.7-1-4.6-1.1-6.9c0-3.5,2-6.3,3.2-9.4
			c2-3.6,7.1-4.2,7.8-8.5c0.3-2.1,1.5-3.8,3-5.4c-1.4,0.1-3,0.7-3.7,2.1c-1.2,2.2-1.5,4.8-4,6.2c-2.1,1.2-4.7,2.7-5.8,5.1
			c-2.2,3.4-3.1,7.6-2.7,11.9c-2.5-2.5-1-6.7,0-9.5c0.8-1.7,1.9-3.3,2.9-4.9c-0.4-0.1-0.6,0.4-1,0.5c-2.5,1.3-4,3.8-4.6,6.4
			c-0.3,0.5-0.8,0.5-1.3,0.4c-4.4-2-5.5-6.7-7-10.6c-2.2-6.2-3.1-13.4-1.9-20.4c0.7-3.1,2.6-7.1-0.2-9.8c-1.8-1.9-4.8-0.9-6.7-2.7
			c-0.7-1.3-0.1-2.9,0.8-3.9c0.3-0.4,0.6,0.2,0.9,0.3c0.8,0.8,0.9,1.9,1,3c0.3-0.2,0.2-0.6,0.3-0.9c0.2-0.7,0.4-1.4,1.2-1.8
			c0.6-0.2,1.1,0.1,1.6,0.3c0.8,0.8,1.1,1.9,1.3,3c0.2,0,0.1-0.3,0.2-0.4c0.1-1.4,0-2.6,1-3.5c1-0.3,1.9,0.2,2.5,0.9
			c0.4,0.6,0.8,1.2,1.1,1.8c0.6-2,2.2-3.7,3-5.6c0.2-1.7-0.8-3.2-2.1-4.1c-0.9-0.5-2-0.8-3-1.1c0.4-0.7,1-1.5,1.9-1.4
			c1.8,0.1,3.3,1,4.5,2.5c0.1-1.1-0.4-2.1-1.4-2.7c-1.5-0.8-3.8-0.9-5.4-0.1c-2.6,1.9-5,4.4-7.4,6.6c-0.4,0.3-0.8,0.6-1.3,0.6
			c-0.4-0.8-0.3-1.8,0.1-2.6c-0.2-0.2-0.3,0.1-0.5,0.2c-2.5,1.8-1.4,5.4-1.6,8.2c0.7,2.9-0.8,5.2-1.9,7.5c-0.6,0.8-1.4,1.7-2.2,2.2
			c-1.4-2.8-3-6.3-1.3-9.4c2.1-4.1,4.3-8.1,6.2-12.2c1.6-2.6,4.7-2.9,7-4.5c2.1-1.1,4.1-2.4,6.1-3.5C27,4.7,28.5,5,29.4,5.7
			c0.9,0.6,1.7,1.6,2.2,2.5c1.5,1.5,3.3,2.6,4.9,4.1c3.8-4,9.2-5.1,14.9-4.6c2.4,0.2,4.6,1,6.5,2.5c3.6,0,6.7-2.7,10.3-1l1.4,0.5
			c4.3-2.6,8.1-7.3,13.8-6c0.7,0.2,1.4,0.8,1.8,1.4c0.6,3.5,4.4,3.7,6.6,5.7c3.4,2.7,2.1,7.5,2.8,11.4c-0.2,1.5-1,2.8-1.8,4.1
			c-3.2-2.1-1.7-5.9-3.1-8.8c-1.2-3.2-4.3-6.1-7.9-6.1c-1.9-0.1-3.9,0.3-4.8,2.1c1.6,2.6,4.3,4,6.3,6.1c1.4,1.7,1,4.3,2.3,6.1
			c2.7,4,2.7,8.4,3.4,13.2c0.4,3.5-1,6.2-2.3,9.1c-0.5-1.8-0.8-3.8-2.6-5c-1.5-1.1-3.7-0.8-5.3,0c2.1,0.8,4.1,2,5.5,4.1
			c1.1,1.3,2.2,2.9,3.6,4.1c0.9,1.3,1,2.9,1.3,4.5c-0.7-0.1-1.4-0.5-2.1-0.5c3.3,2.2,3.8,6.1,6,8.9c0.4,2.7-0.7,6.1,0.7,8.6
			C93.9,73.3,94.7,74.2,94.2,75.4z M79.7,63l1.4,0.2c-0.6,1-1.3,2.2-2.5,2.4c-1.3,0.1-2.8-0.3-3.9-0.8C76.4,64.3,77.9,63.4,79.7,63z
			 M73.5,63.9c-0.3-0.6-0.7-1.5-0.1-2.1c0.2-0.1,0.3-0.3,0.6-0.3c0.5,0,0.9,0.4,1.1,0.8c0.3,0.3,0.2,0.8,0.3,1.3
			C74.9,63.9,74.2,63.9,73.5,63.9z M76.3,60.9c0-1.1,0.9-2,1-3.2l0.1-0.3c1.4,1.3,2.1,3,2.1,4.9c-0.9,0.6-2.2,0.8-3.4,0.5
			c0-0.4,0.2-0.8,0.2-1.2C76.6,61.4,76.3,61.1,76.3,60.9z M72.7,64.1h-1.7c-0.1-0.8-0.1-1.9,0.7-2.4c0.5-0.1,0.8,0.3,1,0.6
			C72.9,62.8,72.9,63.6,72.7,64.1z M70.2,64c-0.7-0.1-1.6-0.4-2.2-0.9c-0.1-0.6,0-1.1,0.6-1.4c0.4-0.1,0.8,0,1.1,0.2
			C70.3,62.5,70.2,63.3,70.2,64z M63.6,61.6c-0.8-0.4-1.7-0.7-2.7-0.7c0-1.3,0.4-2.5,1.2-3.4C63.6,58.3,63.9,60,63.6,61.6z"/>
		<path d="M44.8,44.6c-2.2,0.4-4.7,0.9-7.1,0.7c-1.5-0.3-1.7-2-2.1-3.1c-0.7-1.6-2.7-2.6-2.5-4.6c0.2-2.7,0.1-5.4,0.1-8.1l-0.8,1.1
			c-1.7,2-1.6,5.3-0.6,7.6c2,3.2,2.9,6.9,4.6,10.4c0.5,2.1-1.7,3.1-2.1,4.8c-0.4,2-0.4,3.9-0.6,5.9c2.4-2,3.8-4.5,5.2-7
			c2-2.6,4.5-4.6,6.1-7.5V44.6z"/>
		<path d="M85.7,9.6c3.9,1.7,6.2,5.7,6,10c0.4-2.6,0.8-6.1-1.7-7.7c-3.1-1-5-4.9-8.2-5.6L80.5,7c-2.1,1.1-5,2.6-5.2,5.3
			c0.9-0.8,1.8-1.7,2.8-2.2C80.3,9.1,83.3,8.8,85.7,9.6z"/>
		<path d="M33.6,25.2c1.8-1.9,1.4-4.7,3.6-6.4c2-1.4,4.3-1.1,6.3,0.1c0-0.6-0.1-1.2-0.4-1.7c-0.7-1.3-2.2-1.8-3.6-1.6
			c-1.8,0.6-4,0.7-5.1,2.6c-0.9,2.8-1.7,5.5-2.2,8.4C32.6,26.2,33.2,25.8,33.6,25.2z"/>
		<path d="M80.7,21.6c-0.3-0.7-0.4-1.5-0.8-2.1c-0.7-1-1.7-1.6-2.8-1.9c-1.6-0.5-3.4,0-4.6,1.2C75.3,18.8,78.8,18.6,80.7,21.6z"/>
		<path d="M55.2,21.2c3.4,0.2,5.3,3.2,7.9,5.1c2.6-0.7,4.9-1.8,7.3-2.9c0.7-0.5,1.1-1.3,1.2-2c-0.4-0.4-0.9-0.5-1.4-0.5
			c-1.7,0.8-3.3,2.6-5.5,2c-1.6-0.2-2.4-2.2-3.9-2.5l-3.6-0.9c-1.2-0.1-2.5-0.2-3.5,0.5C53.7,20.8,54.7,20.9,55.2,21.2z"/>
		<path d="M52.6,25.5c2.4,1.5,4.5,4,6.7,6c0.7,1.5-0.7,2.8-1.3,4.1c0.6,0.2,1.5,0.2,2.1,0c0.7-0.2,1.1-0.8,1.4-1.4
			c0.6-2.8-1.4-5.1-3.4-7.1c-2.2-1.6-4.1-3.8-6.2-5.4c-1.6-0.8-3.8-0.5-5.2,0.3C49,22.3,51.1,23.7,52.6,25.5z"/>
		<path d="M74.6,25.4c1.3-1.7,3.2-2.1,5.3-1.9v-0.1c-0.7-0.6-1.4-1.4-2.3-1.4c-1.6,0.3-2.8,1.4-4.4,1.7c-2.3,0.3-2.8,3-4.4,4.3
			c-1.1,1-2.6,1.2-3.7,2.3c-0.1,0.8,0.2,1.6,0.6,2.3c1.2-0.9,2.6-1.3,4-1.6C72.4,30.3,73.1,27.3,74.6,25.4z"/>
		<path d="M51.8,37.9h1.8c1.2-0.1,2.5,0,3.4-0.8c0.3-0.6,0-1.2,0-1.8c-2.5-0.8-5.2-2.1-6.5-4.6c-2.2-2.6-4.4-5.3-7.6-6.1
			c-2.4-0.4-4.3,0.8-5.7,2.7c-0.3,0.5-0.7,0.9-0.7,1.4h1.3c1.1-0.1,1.4-1.4,2.4-1.6c0.5-0.1,1-0.1,1.3,0.3c0.6,0.9,0,1.8-0.5,2.5
			l2.1-1.4c0.3-0.2,0.8-0.1,1,0.3c0.1,0.5,0.1,0.9,0,1.4c-0.7,1.4-1.9,2.7-1.6,4.6c0.4,1.8,2,4,4,4.3c-0.5,0-0.9,0.3-1.3,0.6
			c0.4,0.1,0.7,0.2,1.2,0.2c1.1,0.2,2.1,0.3,3.2,0.6c-1.9,1.2-4.4,0.6-6.2-0.4c-2.6-1-2.7-3.9-3.6-5.7c-0.1,1.1-0.3,2.2-0.1,3.3
			c0.7,2,2.4,4.1,4.4,4.8c3.8,1,6.5-1.4,9.3-3.2v-0.1l-1.4,0c-1.7-0.1-3.2,1.2-4.8,0.2l0.1-0.1C48.4,39.4,50.5,39.1,51.8,37.9z
			 M47.9,33c0.4-0.1,0.7,0.1,0.8,0.3c0.1,0.3,0,0.8-0.3,1c-0.4,0.2-0.8-0.1-1-0.4C47.2,33.6,47.5,33.1,47.9,33z M46.6,32.4
			c0.2,0,0.4,0,0.5,0.2c0,0.3-0.1,0.6-0.4,0.6c-0.1,0-0.3,0-0.4-0.2C46.3,32.8,46.2,32.5,46.6,32.4z M45.7,38.3
			c-1.7-1.1-1.9-3.1-2.3-4.9c1.1-0.3,0.9,1,1.4,1.5c1.3,1.3,3.1,2.2,4.9,1.7c0.4-0.2,0.3-0.9,0.7-0.8l1,1
			C50.3,39,47.7,38.1,45.7,38.3z"/>
		<path d="M66.4,33.9c-0.2,0.5-0.3,1.1-0.2,1.6c1.2,1.1,3.1,1,4.7,1.3l1.4,1c1.5,0.6,3.4,0.9,5,0.4c1.4-0.6,2.9-2.1,3-3.6
			c0.5-1.9-2-3.5-0.5-5.1c0.6,0,1.2,0.6,1.7,1c0.2,0.2,0.6,0.5,0.8,0.7c-0.4-0.5-0.7-1.2-0.5-1.9c0.1-0.3,0.5-0.7,0.9-0.7
			c0.8,0.1,1.5,0.8,1.8,1.4c0.6,0.4,1.3,0.6,2,0.5c-0.2-0.4-0.4-0.8-0.6-1.2c-0.5-1.4-2.1-2.6-3.5-2.9c-4.6-0.8-7.8,3-11.1,5.6
			C69.9,33.3,68.2,33.6,66.4,33.9z M75.9,32.2c0.1-0.2,0.3-0.3,0.5-0.3c0.3-0.1,0.6,0.1,0.8,0.4c0.1,0.4,0,0.9-0.4,1
			c-0.3,0.1-0.6-0.1-0.8-0.2C75.8,32.8,75.9,32.4,75.9,32.2z M75.1,32.2c0.1,0.1,0.3,0.1,0.4,0.2c0,0.2-0.1,0.5-0.2,0.6
			c-0.3,0-0.5,0-0.6-0.3C74.5,32.5,74.8,32.3,75.1,32.2z M72.6,35.1c0.2,0.3,0.5,0.9,0.9,1.1c1.4,0.2,3.1-0.1,4.2-1l1-1.4
			c0.1,0.1,0.4,0,0.5,0.1c-0.3,0.9-0.5,2-1.1,2.8c-0.6,0.7-1.4,1.4-2.4,1.2c-1.6-0.3-3.5-0.1-4.4-1.9C71.7,35.6,72.2,35.4,72.6,35.1
			z"/>
		<path d="M69.7,39.1c0.7,0.2,1.5,0.6,2.2,0.7c-1.7-0.8-3.2-1.9-5-2.4c-3.8-1.2-7.2,1-10.3,3c1.6-0.7,3.1-1.5,4.8-1.7
			C64.1,38.7,67.2,38.2,69.7,39.1z"/>
		<path d="M59.6,47.6c0.2-1.1,0-2.5,0.8-3.3c0.6-0.3,1.2,0,1.7,0.2c0.8,0.5,1.2,1.4,1.3,2.3c0.5,1.4,2.1,1.4,3.3,1.5
			c0.3-0.1,0.5-0.3,0.6-0.6c0.5-1.1,0.1-2.7,1.3-3.4c0.3-0.1,0.7,0,1,0.2c0.1,0.7,0.5,1.3,1,1.7c0.3,0.2,0.7,0,1,0
			c1.2-0.9,1.6-2.4,1.6-3.8c-0.7-1-1.7-2-2.8-2.4c-2.1-0.3-4.2-0.7-6.1-0.7c-2.2,0.5-4.6,0.5-6.3,2.2c-0.9,1.4-1.2,3.1-0.8,4.8
			C57.6,47.3,58.7,47.6,59.6,47.6z M63.8,40.3c2.1,0,4.3-0.1,6,0.9c0.1,0.3-0.1,0.5-0.2,0.7c-2.6,0.3-5.8-0.4-8.3,0.6l-1.8-0.1
			C59.9,40.3,62.2,40.7,63.8,40.3z"/>
		<path d="M52.1,42.6c-2.6,0.4-3.5,3.4-5.7,4.8c-1.3,1.1-1.4,2.6-1.7,4.1c1.9-2.5,3.8-4.3,6-6.6c1.3-1.5,2.9-2,4.5-2.7
			C54.1,42.4,53,42.3,52.1,42.6z"/>
		<path d="M76.6,45.3l0.7,1.7c1.5,3.2,5.2,3.3,7.1,6.4C83.8,49.3,79.2,48.3,76.6,45.3z"/>
		<path d="M81.9,54.8c-4-2.3-9.6-0.2-13.7-2.7c2.9-1.5,6.2,0.2,9.1,0.1C74.9,51,72,50.7,69.3,50c-3-0.4-5.7,0.5-8.3,1.2
			c-2.3,1-4.4,2.6-6.5,3.9c2.2,0.1,4.1-0.5,5.6-1.9c1.9-1.2,4.1-1.4,6.3-1.4V52c0,0.7-0.8,0.7-1.3,1c-2.4,0.2-4.4,1.5-6.2,2.9
			c2.3-0.6,4.3-2,6.7-2.5c3.5-0.8,6.3,1.7,9.8,1.2c3.9-0.4,7.1,1.1,10.1,2.9C84.5,56.5,83.2,55.4,81.9,54.8z"/>
		<path d="M44.9,64.9c-0.2,0.1-0.4,0.2-0.6,0.4c-0.5,0.4-0.7,1-0.5,1.7c0.3,1.1,0.6,2.2,1.2,3.2c0.8,0.7,1.9,1.1,3.1,0.8
			c2-0.5,3.8-1.8,5.5-2.8c-2,0.8-4.7,1.6-6.8,0.5C45.5,67.9,45.2,66.4,44.9,64.9z"/>
		<path d="M40.3,75.3c-0.9-0.8-0.5-2.2-0.4-3.2c-0.5,0.1-1.1,0.2-1.4,0.7c-0.4,1.6-1.3,3.1-1.4,4.8c0.2,0.7,0.9,1.3,1.6,1.7
			c1.1,0.5,2.7,0.6,3.8-0.3c1.5-1.5,3.2-3,4.7-4.2c-0.8,0.5-1.7,1-2.6,1.3C43.1,76.8,41.4,76.3,40.3,75.3z"/>
	</g>
</g>
</svg>
