<?xml version="1.0" encoding="utf-8"?>
<!-- Generator: Adobe Illustrator 18.1.1, SVG Export Plug-In . SVG Version: 6.00 Build 0)  -->
<!DOCTYPE svg PUBLIC "-//W3C//DTD SVG 1.1//EN" "http://www.w3.org/Graphics/SVG/1.1/DTD/svg11.dtd">
<svg version="1.1" xmlns="http://www.w3.org/2000/svg" xmlns:xlink="http://www.w3.org/1999/xlink" x="0px" y="0px"
	 viewBox="0 0 100 100" enable-background="new 0 0 100 100" xml:space="preserve">
<g id="AREA_3">
	<g>
		<path fill="none" stroke="#FDBB2D" stroke-width="1.3164" stroke-miterlimit="10" d="M95,35.5c0.3,0.1,0.5,0.3,0.7,0.5
			c-1,1.8-2.3,4.2-4.6,4.8c-4.7,1.7-9.1-0.9-12.3-4.5c4.4-1.8,10-1.8,15-1.2L95,35.5z"/>
		<path fill="none" stroke="#FDBB2D" stroke-width="1.3164" stroke-miterlimit="10" d="M20.2,37c-1.6,2.7-4.4,5.1-7.6,5.2
			c-3.7,0.3-6.6-1.5-9.3-3.7c-0.1-0.8,0.3-1.5,0.9-1.9c1.4-0.8,2.7-0.7,4.2-0.5C12,36.4,15.2,37,18.7,37L20.2,37z"/>
		
			<path fill="none" stroke="#FDBB2D" stroke-width="1.8429" stroke-linecap="round" stroke-linejoin="round" stroke-miterlimit="10" d="
			M97.8,37.9c-0.2-0.5-0.5-0.8-0.9-1.1c-0.2-0.1-0.3-0.3-0.5-0.4l-0.1-0.1l-0.1,0.1c-0.2,0.3-0.3,0.5-0.5,0.8
			c-0.7,1.2-1.5,2.5-2.8,3.5c-1.2,0.8-2.8,1.3-4.6,1.3h0c-2.2,0-4.4-0.7-6-1.8C79,37.8,74,33.3,70,21.6c-0.1-0.3-0.2-0.5-0.3-0.7
			c-0.2-0.5-0.4-1-0.6-1.5c-0.1-0.3-0.2-0.5-0.4-0.8c-1-2.2-2.1-4.5-3.7-6.5c-2.8-3.7-6.9-4.7-10.1-5.2l-1-0.1
			c-2.2-0.2-4.5-0.4-6.8-0.4c-3.6,0-6.3,0.5-8.5,1.7c-7.3,3.3-9.8,10.4-12.2,17.2c-0.7,2.1-1.5,4.2-2.4,6.2
			c-1.8,3.9-4.1,8.8-8.5,10.9c-1.2,0.4-2.4,0.6-3.6,0.6c-2.6,0-5.1-0.9-7-2.4c-0.2-0.1-0.4-0.3-0.6-0.5c-0.3-0.2-0.5-0.4-0.8-0.6
			l-0.1-0.1l0,0.1c-0.2,0.9-0.4,1.7-0.3,2.6c0.3,1.9,2.2,3,3.5,3.6c3.4,1.8,7.3,2,10.7,2c1.3,0,2.6,0,3.8-0.1c0.5,0,1,0,1.5,0
			c0,0.8,0.2,1.7,0.8,2.7c-1.3,0.8-1.8,1.9-2.3,3.4l0,0l0,0c0.2,0.6-0.2,0.9-0.6,1.3c-0.2,0.2-0.4,0.3-0.5,0.5
			c-1.8,2.5-0.8,5.5,0.1,8.1c0.1,0.3,0.2,0.7,0.3,1c0.9,2.2,0.4,4.4,0,6.5c-0.4,2-0.9,4.1-0.2,6.2l-0.1,0.1
			c-1.4,0.1-2.9,0.2-4.4,0.8c0-0.1-0.1-0.2-0.1-0.3c-0.2-0.6-0.4-1.3-1-1.7l0,0c-0.2,0-0.3-0.1-0.5-0.1c-0.9,0-1.7,0.8-2.2,1.5
			l-0.1,0.2c-0.5,0.1-1,0.3-1.4,0.6c-0.5,0.5-0.7,1.2-0.5,2.1c0.2,0.5,0.6,0.9,1.1,1.1l0,0l0,0c0.1,0,0.2-0.1,0.4-0.1
			c0.5,0,0.6,0.3,0.8,0.8c0.2,0.4,0.4,0.9,1,1c0.5,0.1,1,0.1,1.4-0.2c0.9,0.7,1.9,1,3.4,1c0.7,0,1.5-0.1,2.3-0.2
			c0.8-0.1,1.6-0.2,2.3-0.2c0.6,1.4,1.1,2.9,1.6,4.3c0.3,0.8,0.5,1.7,0.9,2.6l0.1,0.2l0.1-0.2c1.6-2.2,3.3-4.7,4.9-7.2l0.1,0
			c0.5,0.8,1.5,1.3,2.5,1.3l0.1,0l0.2,0c0.6-0.2,1.3-0.4,1.7-1c0.2,0.2,0.5,0.4,0.7,0.5c0.9,0.7,1.8,1.4,2.5,2.4
			c2,3.9,5.2,6.4,8.3,6.7c1.3,0.3,2.6,0.5,3.8,0.5c3.6,0,6.7-1.4,8.8-4c1.5-2.6,3.6-4.8,5.7-7.1c0.3-0.3,0.6-0.6,0.9-0.9l13.7-0.1
			l0,0c0.7-0.2,1.5-0.5,2.2-0.7c1.6-0.4,3.2-0.9,4.6-1.7l0.2-0.1l-0.2-0.1c-1.2-0.4-2.6-0.6-3.9-0.9c-0.9-0.2-1.9-0.3-2.7-0.5l0,0
			L67.3,78l0,0c0.5-1.1,0.6-2.4,0.8-3.6c0-0.3,0.1-0.5,0.1-0.8l0,0c0.1,0.1,0.1,0.1,0.1,0.2c0,0.1,0.1,0.1,0.1,0.2
			c1.1,1.4,2.9,3,5,3c0.4,0,0.9-0.1,1.3-0.2c1.2-0.6,1.9-1.9,2-3.4c-0.4-2.6-1.8-5.2-4-7.9c0-1.6,0.2-3.3,0.6-4.9
			c0.2-1.3,0.7-2.4,1.3-3.5c0.5-1,1-2,1.2-3.1c0.5-1.7-0.6-3.1-1.6-4.3c-0.1-0.2-0.3-0.3-0.4-0.5l0.5-1c0.6-0.1,1.2-0.2,1.9-0.3
			c1.1-0.2,2.2-0.3,3.3-0.6c1.5-0.4,3.1-0.8,4.7-1.1c3.6-0.8,7.4-1.6,10.5-3.7c0.1-0.1,0.2-0.2,0.4-0.3C96.3,41,97.8,39.8,97.8,37.9
			L97.8,37.9z"/>
	</g>
</g>
<g id="AREA_2">
	<path fill="#FFFFFF" d="M97.8,37.9c-0.2-0.5-0.5-0.8-0.9-1.1c-0.2-0.1-0.3-0.3-0.5-0.4l-0.1-0.1l-0.1,0.1c-0.2,0.3-0.3,0.5-0.5,0.8
		c-0.7,1.2-1.5,2.5-2.8,3.5c-1.2,0.8-2.8,1.3-4.6,1.3h0c-2.2,0-4.4-0.7-6-1.8C79,37.8,74,33.3,70,21.6c-0.1-0.3-0.2-0.5-0.3-0.7
		c-0.2-0.5-0.4-1-0.6-1.5c-0.1-0.3-0.2-0.5-0.4-0.8c-1-2.2-2.1-4.5-3.7-6.5c-2.8-3.7-6.9-4.7-10.1-5.2l-1-0.1
		c-2.2-0.2-4.5-0.4-6.8-0.4c-3.6,0-6.3,0.5-8.5,1.7c-7.3,3.3-9.8,10.4-12.2,17.2c-0.7,2.1-1.5,4.2-2.4,6.2
		c-1.8,3.9-4.1,8.8-8.5,10.9c-1.2,0.4-2.4,0.6-3.6,0.6c-2.6,0-5.1-0.9-7-2.4c-0.2-0.1-0.4-0.3-0.6-0.5c-0.3-0.2-0.5-0.4-0.8-0.6
		l-0.1-0.1l0,0.1c-0.2,0.9-0.4,1.7-0.3,2.6c0.3,1.9,2.2,3,3.5,3.6c3.4,1.8,7.3,2,10.7,2c1.3,0,2.6,0,3.8-0.1c0.5,0,1,0,1.5,0
		c0,0.8,0.2,1.7,0.8,2.7c-1.3,0.8-1.8,1.9-2.3,3.4l0,0l0,0c0.2,0.6-0.2,0.9-0.6,1.3c-0.2,0.2-0.4,0.3-0.5,0.5
		c-1.8,2.5-0.8,5.5,0.1,8.1c0.1,0.3,0.2,0.7,0.3,1c0.9,2.2,0.4,4.4,0,6.5c-0.4,2-0.9,4.1-0.2,6.2l-0.1,0.1c-1.4,0.1-2.9,0.2-4.4,0.8
		c0-0.1-0.1-0.2-0.1-0.3c-0.2-0.6-0.4-1.3-1-1.7l0,0c-0.2,0-0.3-0.1-0.5-0.1c-0.9,0-1.7,0.8-2.2,1.5l-0.1,0.2
		c-0.5,0.1-1,0.3-1.4,0.6c-0.5,0.5-0.7,1.2-0.5,2.1c0.2,0.5,0.6,0.9,1.1,1.1l0,0l0,0c0.1,0,0.2-0.1,0.4-0.1c0.5,0,0.6,0.3,0.8,0.8
		c0.2,0.4,0.4,0.9,1,1c0.5,0.1,1,0.1,1.4-0.2c0.9,0.7,1.9,1,3.4,1c0.7,0,1.5-0.1,2.3-0.2c0.8-0.1,1.6-0.2,2.3-0.2
		c0.6,1.4,1.1,2.9,1.6,4.3c0.3,0.8,0.5,1.7,0.9,2.6l0.1,0.2l0.1-0.2c1.6-2.2,3.3-4.7,4.9-7.2l0.1,0c0.5,0.8,1.5,1.3,2.5,1.3l0.1,0
		l0.2,0c0.6-0.2,1.3-0.4,1.7-1c0.2,0.2,0.5,0.4,0.7,0.5c0.9,0.7,1.8,1.4,2.5,2.4c2,3.9,5.2,6.4,8.3,6.7c1.3,0.3,2.6,0.5,3.8,0.5
		c3.6,0,6.7-1.4,8.8-4c1.5-2.6,3.6-4.8,5.7-7.1c0.3-0.3,0.6-0.6,0.9-0.9l13.7-0.1l0,0c0.7-0.2,1.5-0.5,2.2-0.7
		c1.6-0.4,3.2-0.9,4.6-1.7l0.2-0.1l-0.2-0.1c-1.2-0.4-2.6-0.6-3.9-0.9c-0.9-0.2-1.9-0.3-2.7-0.5l0,0L67.3,78l0,0
		c0.5-1.1,0.6-2.4,0.8-3.6c0-0.3,0.1-0.5,0.1-0.8l0,0c0.1,0.1,0.1,0.1,0.1,0.2c0,0.1,0.1,0.1,0.1,0.2c1.1,1.4,2.9,3,5,3
		c0.4,0,0.9-0.1,1.3-0.2c1.2-0.6,1.9-1.9,2-3.4c-0.4-2.6-1.8-5.2-4-7.9c0-1.6,0.2-3.3,0.6-4.9c0.2-1.3,0.7-2.4,1.3-3.5
		c0.5-1,1-2,1.2-3.1c0.5-1.7-0.6-3.1-1.6-4.3c-0.1-0.2-0.3-0.3-0.4-0.5l0.5-1c0.6-0.1,1.2-0.2,1.9-0.3c1.1-0.2,2.2-0.3,3.3-0.6
		c1.5-0.4,3.1-0.8,4.7-1.1c3.6-0.8,7.4-1.6,10.5-3.7c0.1-0.1,0.2-0.2,0.4-0.3C96.3,41,97.8,39.8,97.8,37.9L97.8,37.9z"/>
</g>
<g id="AREA_1">
	<g>
		<g>
			<path d="M27.8,79.7c0,0.1,0,0.2-0.1,0.3c-4.3,0.2-8.5,0.4-12.8,0.5v-0.2C19.5,80.1,23.4,80,27.8,79.7z"/>
			<path d="M51.1,84.8c0.8-0.2,2.1,0,2.6-0.9c-0.2,0.5-0.5,1.1-1.1,1.4c-1.7-0.1-2.9,0.8-4.1,1.7c-0.6-0.1-0.9-0.7-1.4-1
				c-1-0.3-2.2-0.8-2.7-1.9c2.2-1.3,3.7,1.5,5.8,0.9L51.1,84.8z"/>
			<path d="M38.4,65.6c-1.3,0.6-2.6,1.9-4.1,1.3c-0.8-0.2-1.3-0.2-2.1-0.4c1.5-1.4,4.1,0,5.8-0.9H38.4z"/>
			<path d="M38.4,73.1c-0.6,0.8-0.2,2-0.6,2.9c-0.2,0.5-0.6,0.8-1,1c-0.5-2,0.8-3.3,1.6-4.8c0.9-0.9,1.8-1.7,2.4-2.7
				C41,70.9,39.7,72.4,38.4,73.1z"/>
			<path d="M41.2,62.8c-0.9,0.7-1.9,1.1-3,1.6c-0.8,0-1.6-0.1-1.9-0.9l-0.1-0.3c0.8,0.1,1.9,0.3,2.9,0.4C40,63.7,40.5,63,41.2,62.8z
				"/>
			<path d="M46.1,21.7c0.3,0.4,0.6,0.9,0.5,1.4c-0.2,0.5-0.8,0.1-1.1,0.1c-0.6-0.4-1.4-0.8-1.7-1.3C44.3,21.2,45.5,21.3,46.1,21.7z"
				/>
			<path d="M53.4,22.1c0,0.6-0.8,1-1.3,1.2c-0.3,0.1-0.8,0.1-1.1-0.1c-0.3-0.5,0.1-1.1,0.6-1.4C52.2,21.6,53.1,21.5,53.4,22.1z"/>
			<path d="M49.3,26v0.6l-1,0.1c0.1-0.4,0-1.2,0.6-1L49.3,26z"/>
			<path d="M95,35.5c0.3,0.1,0.5,0.3,0.7,0.5c-1,1.8-2.3,4.2-4.6,4.8c-4.7,1.7-9.1-0.9-12.3-4.5c4.4-1.8,10-1.8,15-1.2L95,35.5z"/>
			<path d="M20.2,37c-1.6,2.7-4.4,5.1-7.6,5.2c-3.7,0.3-6.6-1.5-9.3-3.7c-0.1-0.8,0.3-1.5,0.9-1.9c1.4-0.8,2.7-0.7,4.2-0.5
				C12,36.4,15.2,37,18.7,37L20.2,37z"/>
			<path d="M52.3,51.9c-1.2-0.1-2.2-0.2-3.3-0.4c-2.1-1.5-4.5-2.6-6.9-3.5C46,48.2,48.3,52,52.3,51.9z"/>
			<path d="M39,52.6c0.9,2.1,3.5,2.3,4.4,4.4c-1.2,0.2-2.6,0.2-3.6-0.7l-1.4-1.5c-1.5-0.5-3.5-1.7-5-0.3c-1.1,0.1-2-0.6-2.8-1.2
				c1.4-1.5,2.8-3,5-2.9C36.8,50.9,37.5,52.6,39,52.6z"/>
			<path d="M65.5,54.1v0.2c-1,1-2.6,0.2-3.6,1.2c-0.5,0.9-1,2-2.1,2.3c-2,0.3-4,0.8-5.9,0.8c1.3-1.9,3.4-2.8,5-4.3
				c1-1.3,2.7-1.2,3.9-2.3C64.1,51.9,64.7,53.3,65.5,54.1z"/>
			<path d="M51.6,53.6c-1.1,0.6-2.1,1.7-3.6,1.3C49.1,54.5,50.1,53.3,51.6,53.6z"/>
			<path d="M55.4,54.5c0.2,0.4-0.2,0.7-0.4,1c-1.3,0.7-3,0.6-4.2,1.6L50.7,57C51.6,55.1,53.9,55.6,55.4,54.5z"/>
			<rect x="46.6" y="28.5" width="4.4" height="0.3"/>
		</g>
		<path d="M97.8,37.9c-0.2-0.5-0.5-0.8-0.9-1.1c-0.2-0.1-0.3-0.3-0.5-0.4l-0.1-0.1l-0.1,0.1c-0.2,0.3-0.3,0.5-0.5,0.8
			c-0.7,1.2-1.5,2.5-2.8,3.5c-1.2,0.8-2.8,1.3-4.6,1.3h0c-2.2,0-4.4-0.7-6-1.8C79,37.8,74,33.3,70,21.6c-0.1-0.3-0.2-0.5-0.3-0.7
			c-0.2-0.5-0.4-1-0.6-1.5c-0.1-0.3-0.2-0.5-0.4-0.8c-1-2.2-2.1-4.5-3.7-6.5c-2.8-3.7-6.9-4.7-10.1-5.2l-1-0.1
			c-2.2-0.2-4.5-0.4-6.8-0.4c-3.6,0-6.3,0.5-8.5,1.7c-7.3,3.3-9.8,10.4-12.2,17.2c-0.7,2.1-1.5,4.2-2.4,6.2
			c-1.8,3.9-4.1,8.8-8.5,10.9c-1.2,0.4-2.4,0.6-3.6,0.6c-2.6,0-5.1-0.9-7-2.4c-0.2-0.1-0.4-0.3-0.6-0.5c-0.3-0.2-0.5-0.4-0.8-0.6
			l-0.1-0.1l0,0.1c-0.2,0.9-0.4,1.7-0.3,2.6c0.3,1.9,2.2,3,3.5,3.6c3.4,1.8,7.3,2,10.7,2c1.3,0,2.6,0,3.8-0.1c0.5,0,1,0,1.5,0
			c0,0.8,0.2,1.7,0.8,2.7c-1.3,0.8-1.8,1.9-2.3,3.4l0,0l0,0c0.2,0.6-0.2,0.9-0.6,1.3c-0.2,0.2-0.4,0.3-0.5,0.5
			c-1.8,2.5-0.8,5.5,0.1,8.1c0.1,0.3,0.2,0.7,0.3,1c0.9,2.2,0.4,4.4,0,6.5c-0.4,2-0.9,4.1-0.2,6.2l-0.1,0.1
			c-1.4,0.1-2.9,0.2-4.4,0.8c0-0.1-0.1-0.2-0.1-0.3c-0.2-0.6-0.4-1.3-1-1.7l0,0c-0.2,0-0.3-0.1-0.5-0.1c-0.9,0-1.7,0.8-2.2,1.5
			l-0.1,0.2c-0.5,0.1-1,0.3-1.4,0.6c-0.5,0.5-0.7,1.2-0.5,2.1c0.2,0.5,0.6,0.9,1.1,1.1l0,0l0,0c0.1,0,0.2-0.1,0.4-0.1
			c0.5,0,0.6,0.3,0.8,0.8c0.2,0.4,0.4,0.9,1,1c0.5,0.1,1,0.1,1.4-0.2c0.9,0.7,1.9,1,3.4,1c0.7,0,1.5-0.1,2.3-0.2
			c0.8-0.1,1.6-0.2,2.3-0.2c0.6,1.4,1.1,2.9,1.6,4.3c0.3,0.8,0.5,1.7,0.9,2.6l0.1,0.2l0.1-0.2c1.6-2.2,3.3-4.7,4.9-7.2l0.1,0
			c0.5,0.8,1.5,1.3,2.5,1.3l0.1,0l0.2,0c0.6-0.2,1.3-0.4,1.7-1c0.2,0.2,0.5,0.4,0.7,0.5c0.9,0.7,1.8,1.4,2.5,2.4
			c2,3.9,5.2,6.4,8.3,6.7c1.3,0.3,2.6,0.5,3.8,0.5c3.6,0,6.7-1.4,8.8-4c1.5-2.6,3.6-4.8,5.7-7.1c0.3-0.3,0.6-0.6,0.9-0.9l13.7-0.1
			l0,0c0.7-0.2,1.5-0.5,2.2-0.7c1.6-0.4,3.2-0.9,4.6-1.7l0.2-0.1l-0.2-0.1c-1.2-0.4-2.6-0.6-3.9-0.9c-0.9-0.2-1.9-0.3-2.7-0.5l0,0
			L67.3,78l0,0c0.5-1.1,0.6-2.4,0.8-3.6c0-0.3,0.1-0.5,0.1-0.8l0,0c0.1,0.1,0.1,0.1,0.1,0.2c0,0.1,0.1,0.1,0.1,0.2
			c1.1,1.4,2.9,3,5,3c0.4,0,0.9-0.1,1.3-0.2c1.2-0.6,1.9-1.9,2-3.4c-0.4-2.6-1.8-5.2-4-7.9c0-1.6,0.2-3.3,0.6-4.9
			c0.2-1.3,0.7-2.4,1.3-3.5c0.5-1,1-2,1.2-3.1c0.5-1.7-0.6-3.1-1.6-4.3c-0.1-0.2-0.3-0.3-0.4-0.5l0.5-1c0.6-0.1,1.2-0.2,1.9-0.3
			c1.1-0.2,2.2-0.3,3.3-0.6c1.5-0.4,3.1-0.8,4.7-1.1c3.6-0.8,7.4-1.6,10.5-3.7c0.1-0.1,0.2-0.2,0.4-0.3C96.3,41,97.8,39.8,97.8,37.9
			L97.8,37.9z M62.3,17.9c0.8-0.6,1.9-2.3,2.7-0.7c0,0.2,0.1,0.3,0.2,0.5v1.1c0.5,0.4,1.2,0.5,1.4,1.2c0.1,0.6,0.2,1.4-0.3,1.9
			c-1,0.8-2.2,0.6-3.4,0.6c-1.9,1.2-3.9,2.2-5.8,3.4c-0.3-0.3,0.1-0.7,0-1l0.2-1.6c1.6-1,3.3-1.8,4.7-3.1
			C62.3,19.4,61.7,18.5,62.3,17.9z M63.5,35.4c-0.2,0.5-0.6,0.8-1.1,0.9h-0.7c-0.1,0.9,0,2.1-1.1,2.4c-0.5,0.2-1,0-1.3-0.3
			c-0.5-0.5-0.8-1.1-0.7-1.8l-5.1-3.5l1.2-1.9c1.5,0.6,2.8,1.6,4.2,2.2c1.2-0.2,2.9-0.7,4,0.1C63.4,34,63.8,34.7,63.5,35.4z
			 M43.2,12.2c2.7-3.5,7-1.8,10.5-1c0.9,0.2,1.7,0.6,2.4,1.1c2.2,2.1,2,5.3,2.2,7.9c-0.1,1.4-1.1,1.8-2.1,2.6
			c-0.7,1.7,0.6,4.9-2.1,5.2c0.3,2.8-1.8,4.5-3.9,5.7c-1.3,0.6-2.9,1.2-4.2,0.2c-1.2-1.2-2.1-2.7-1.8-4.4c0.2-0.3,0.2-0.8,0.6-1.1
			c-1.2-0.7-2.9-1.8-3.2-3.4c-0.3-1.2,0.4-2.5-0.4-3.5C40.2,18.4,41,14.7,43.2,12.2z M44.3,32.5L39,36c-0.3,0.9-0.3,1.9-1,2.6
			c-0.5,0.1-1-0.2-1.4-0.3c-1.2-0.7-0.5-2.4-2.1-2.7c-0.6-0.5-0.6-1.3-0.5-2.1c0.2-0.5,0.8-1.1,1.4-1.2c0.9-0.1,1.6,0.7,2.4,0.9
			l4.5-2.8C43.1,31.1,43.8,31.7,44.3,32.5z M32.1,20.9c0.4-0.2,1-0.2,1.2-0.8c0.2-0.8,0-1.8,1-2.2c0.5-0.2,1.1-0.2,1.5,0.3l1.5,3
			c1,0.8,2.2,1.3,3.2,2v2.8c-2.4-0.8-4.2-2.9-7.1-2.5c-0.6-0.2-1.4-0.5-1.7-1.2C31.7,21.9,31.6,21.2,32.1,20.9z M23.8,50.8l0.5,0.4
			c0.7,0.4,1.6,0.7,2.3,1c-0.2,0.7,0.3,1.3,0.1,1.8c-0.7-0.5-1.6-0.9-2.3-0.5c-0.5,0.7,0.2,1.4,0.3,2.1c0.3,2.1,1.6,3.8,2.2,5.8
			c0.4,0.8,1.2,0.9,1.9,1.1l0.8,2.3l-0.9-0.5L27,66.5c0.8,1.4,2.1,2.8,1.4,4.5c-0.9,0.1-1.4-1-1.8-1.7c0-0.3-0.3-0.5-0.1-0.8
			c0.9-0.6,0-1.4,0-2.1c-0.4-1.5-1-2.9-1.1-4.6c-0.9-2.4-4-3.9-3.9-6.8C21.4,53.3,22.1,51.5,23.8,50.8z M27.8,59.9
			c-0.8-1.7-3.3-3.1-2.1-5.2C27.2,56,27.8,58,27.8,59.9z M24.7,71.4c0.2,0.6,0.6,1.3,1.3,1.5c0.9,0.3,1.8,0,2.5-0.6
			c0.6-0.7,0.7-1.6,0.8-2.6c-0.2-0.3-0.3-0.7-0.3-1.1l-1.1-1.9c0.3-0.5,0.6-1.2,1.1-1.3c0.4,0.4,1.1,0.5,1.2,1.2
			c0.3,1.6,1.6,3.2,0.8,4.8c-0.8,2-2.6,4.4-5,4.4c-1.1-0.1-2.4-0.6-2.8-1.8c-0.4-3,0.1-6.1,2.1-8.2c0.3,0.7,0.4,1.4,0.7,2.1
			C25.3,68.8,24.5,70,24.7,71.4z M27.8,71.7c0,0.3-0.4,0.4-0.6,0.5c-0.5,0.2-1-0.1-1.4-0.2c-0.5-0.7-0.5-1.8,0.1-2.4
			C26.4,70.3,26.8,71.3,27.8,71.7z M20.8,64.5c-0.8-2.5-2-5.3-0.9-8.1l0.9-1c0.3,1.1,0.6,2.3,1.4,3.2c-0.6,1.4-1.3,3-0.4,4.6
			c0.6,0.9,1.5,1.8,2.4,2.3c-0.2-0.7-0.7-1.4-1-2.1c-0.2-0.6-0.3-1.2-0.4-1.9c0-0.6,0.3-1.1,0.6-1.6c1.5,1.2,1.6,3.2,1.6,4.8
			c-2.1,2.4-2.9,5.4-2.6,8.6c0.2,1.2,1.1,2.3,2.4,2.6c2,0.4,3.9-0.2,5.2-1.7c0.3-0.4,0.7-0.8,1-1.3c0.1,0.7,0.5,1.5,0.1,2.1
			l-1.8,2.6c-2.4-0.8-4.9-0.1-7.4-0.3c-0.6,0-1.5,0.1-1.4-0.9C19.5,72.5,22.6,68.8,20.8,64.5z M14.9,81.9c-0.5,0.4-0.9,0.9-1.5,0.9
			c-1.3-0.8-1.8-2.3-1.6-3.8c0.1-0.9,0.9-1.6,1.7-2c0.4-0.1,0.8,0.2,0.9,0.5c1,1.3-1.9,2.3-0.2,3.5C14.4,81.4,15,81.4,14.9,81.9z
			 M25.1,89.3c-0.6-1.2-0.9-2.8-1.5-4.1l-0.5-1.4c1.8-0.2,3.9,0,5.8-0.2C27.7,85.6,26.3,87.4,25.1,89.3z M21.6,83.2
			c-2.1-0.1-4.8,1.1-6.6-0.4c0.2-0.3,0.6-0.6,0.9-1c-0.5-0.7-1.8-1.2-1.4-2.1c3.7-2.3,8.7-1.2,13.2-1.3c0.4,0,0.8,0.2,1.2,0.3
			c-0.5,1.6,0.3,2.9,0.8,4.2C27.1,83.2,24.3,83,21.6,83.2z M33.7,83.6c-0.8,0.6-1.6,0.5-2.5,0.1c-1.2-1.4-1.9-3-1.7-4.9
			c0.7-1.6,1.9-3.4,3.4-4.4c0.9-0.2,1.9,0.1,2.3,0.9c-0.1,1.5-1.3,2.6-1.9,3.9c0.1,0.8-0.3,1.8,0.3,2.4C33.7,82.2,34.2,83,33.7,83.6
			z M57.9,89.5c-2.6,3.3-6.8,4.2-11,3.4c-3.2-0.5-6.5-2.4-8-5.6c-1-1.9-3-3.1-4.5-4.7l-0.1-0.8l5.6-0.1c0.1,0.2-0.2,0.4,0,0.6l1-0.6
			c3.7,0,7.5,0,11.2,0c-2.1,1.2-4-0.5-6.2,0.2v0.1l5.1,0.8c0.9,0.1,1.5-0.6,2.2-1.1l7.1,0.1c0,0.1,0,0.1,0.1,0.1
			c0.1,0,0.1,0,0.1-0.1v-0.1c1.3,0,2.7,0,3.7,0C61.9,84.2,59.5,86.7,57.9,89.5z M79.2,78.5c1.5,0.4,3.2,0.5,4.6,1
			c-1.7,0.6-3.4,1.1-5.1,1.6H34.2C33.8,80.4,34,80,34,79.2l0.3-0.1C50.1,78.9,63.9,78.7,79.2,78.5z M47.9,75.5h2.3
			c0.1,0.9-0.1,1.7-0.6,2.3c-0.6,0.1-1-0.4-1.3-0.8C48,76.5,47.8,76.1,47.9,75.5z M67.4,73.4c-0.2,1.3-0.3,3.2-1,4.6h-7.7
			c-0.4-0.5-1-0.6-1.4-1.1c-0.1,0.4,0.2,0.8,0.3,1.2l-5,0.1c-0.1-0.3,0.2-0.4,0.5-0.6c2-0.1,3.8-0.9,5.2-2.3l1.4-1.2
			C58,74.3,56.5,75,54.8,75c-1.1,0.2-2.2-0.1-3.4-0.1c0.6-2.4,4.4-1.7,3.9-4.5c-0.4-1.1-1.6-1.8-2.5-2.4l-0.1,0.1
			c0.7,0.9,2,1.7,1.6,2.9c-0.6,0.7-1.4,1.3-2.3,1c-0.3-0.2-0.5-0.5-0.8-0.5c0.1,0.5,0.6,1.2,0.1,1.7c-0.5,0.8-1.4,0.9-2.3,0.7
			c-0.9-0.2-1.7-1-2.1-1.9c-0.2-0.6,0.1-1.3,0.2-1.9c-0.5,0.8-0.9,1.6-1.3,2.4c-0.4-0.1-0.9,0-1.2-0.3c0.6-1.3-0.3-3.9,1.9-3.9
			c0.2,0.3,0.3,0.6,0.6,0.9c1.5-3-0.3-6.3,0.7-9.5c-0.4-0.7-0.8-1.3-1.3-2c-0.8,0.4-1.6,2.1-2.6,1.3c-1.8-0.5-3.2-1.9-5-2.3
			c-1.7,0.4-3.6,0-4.6-1.5c-0.2,0.4,0.1,0.8,0.2,1.2c-0.3,0.6-0.9,1.2-0.2,1.8c1.6,2.5,4.2,4.1,7.1,3.7c0.8-0.2,1.6-0.5,2.3-0.9h2.1
			c0.3,1.2,0.4,2.4,0.6,3.8l0.3,2.1c-0.9,0.1-2,0.4-2.4,1.4c-0.5,1-0.5,2.3-0.8,3.4c-0.6,0.6-1,1.2-1.6,1.8l0.1,0.1l1.6-0.8
			c0.8,0.7,1.4,1.3,2,2c-2.3,0.5-5.2,0.5-7.4-0.3l-0.1,0.1c1.9,2.4,4.6,3.3,7.7,3l0.5,0.5c-3.9,0.2-7.9,0.2-11.9,0.2
			c0.5-1.2,1.8-2.2,1.2-3.5c-0.7-1-1.8-1.3-3-1c-0.3,0.1-0.7,0.3-1,0.6c-0.2-0.8-0.2-1.6-0.3-2.4c0.3-0.5,0.5-1.1,0.6-1.6
			c1,0.1,1.6,1.1,2.4,1.6v-0.2c-1.2-2-2.4-3.9-3.1-6c-1.5-4.8-2.6-9.6-3.5-14.6c0.4-1,1.2-1.7,1.9-2.7c4.6-1.7,8.7,1.1,12.2,3.7
			c2.4,2.2,4.5,5.5,7.5,7c1,0.8,0.9,2,1.3,3c0.6-0.2,1.2-0.4,1.8-0.5c0.8,3,2.6,6.4,6,6.9c2.7,0.2,5.1-1.5,6.3-3.9
			c1-2.3,0.9-4.5,0.5-6.9l2.4-1.6c0.5,3.2,1.7,7.9-1.4,10.2c-1.6,1.4-1.2,3.8-1.8,5.7c-0.2,0.4-0.2,0.9-0.2,1.3
			c1.4-1.1,1.8-2.8,1.7-4.7c0.1-0.2,0.4-0.5,0.7-0.5C66.4,70.1,67.7,71.7,67.4,73.4z M40.8,59.9c0.5-0.2,0.9-1,1.4-0.5
			c0.4,0.2,1,0.2,1.2,0.6c-1.3,1.5-3.5,1.2-5.3,1.1c-0.9-0.6-2-1.2-2.6-2.1l0.1-1.3h1.6c0.1,0.9,0.5,1.8,1.4,2.3
			C39.2,60.3,40,60.3,40.8,59.9z M39.1,57.8c0.2,0,0.5,0.1,0.6,0.3c0,0.3,0.1,0.8-0.3,0.9c-0.3,0-0.7,0-0.8-0.3
			C38.5,58.3,38.6,57.9,39.1,57.8z M40.2,59c0-0.1,0-0.2,0.1-0.2c0.2-0.1,0.5,0,0.4,0.3v0.2C40.6,59.4,40.1,59.3,40.2,59z
			 M31.1,46.9c2.5-2.7,6.3-0.5,9.2-0.1c1.4,0.5,2.7,0.3,4.1,0.6c3.4,0.4,6.4,0.8,9.7,1.1c3.4,0.7,6.6,0.2,9.9,0.6
			c0.5,0.2,1.2,0.1,1.3,0.8c0.1,0.4,0.2,0.9,0.5,1.3c0.6-0.1,1.3-0.4,1.9,0c0.5,0.8,0.4,2,0,2.8c-1.5,2.4-4.2,3.3-6.5,4.6
			c-3.9,2-9.5,1.5-12.8-1.5c-4.1-3.9-8.1-8.5-13.3-9.8C33.9,46.8,32.3,46.9,31.1,46.9z M75.7,72.6c0,1.3-0.1,2.6-1.4,3.4
			c-2.2,0.7-4-1-5.4-2.7c-1.3-1.7-1.9-4.1-1.2-6c0.6-0.1,1.2,0.3,1.5,0.9c0.9,1.4,0.7,3.4,2.2,4.3c0.8,0,1.3-0.7,1.6-1.3
			c0.2-0.6,0.1-1.3-0.5-1.7c-1.6-0.4-0.5-2.1-0.9-3.1l0.1-0.7C73.7,67.6,74.9,70,75.7,72.6z M71.9,71.5c0.2-0.3,0.5-0.7,0.5-1.1
			c0.2,0.3,0,0.8-0.3,1.1H71.9z M74.7,54.8c-1.8,3.1-2.7,6.7-2.8,10.5l-0.7,0.2l-0.1,3.5c0.3,0.3,1,0.5,0.6,1.1
			c-0.2,0.3-0.1,0.7-0.4,1c-0.9-1.6-1-4.2-3.2-4.6c1.5-3.8,3.8-7.2,3.9-11.5c0.1-1.2,1.1-2.1,1.1-3.2c-0.6-0.4-1.5-0.1-2.1,0.3
			c-1,0.3-0.7,2.2-2.1,1.5c-0.5-0.5-0.2-1.1-0.1-1.7c0.5-1.5,2.1-0.5,3.2-0.7l1-1.5l0.3,0.1C74.7,51.2,75.6,52.9,74.7,54.8z
			 M69.7,54.5c0.6-0.3,1.3-0.6,1.9-1c-0.5,1.2-0.9,2.8-1,4.3C70.2,56.8,69.9,55.7,69.7,54.5z M71.5,50.5c0.1-0.2,0.3-0.2,0.5-0.3
			c-0.1,0.1-0.2,0.3-0.3,0.3H71.5z M72.2,49.9c-1.5,0.4-3.3,0.5-4.5-0.6c-2.1-2.3-4.6-4.4-7.6-4.5c1.6,1.1,3.4,2,4.6,3.7
			c-2.1-0.4-4.8,0-7.1-0.3l-16.2-1.8c-2.3-0.5-4.4-1.1-6.8-1.4c2-0.6,4.4-0.2,6.6-0.4l-0.1-0.1c-2.2,0.1-4.5-1-6.5-0.1
			c-1.1,0.4-2.6,0.2-3.2,1.4c-1,0.4-1.3,1.9-2.5,1.8c-1.5,0.8-2.3,2.4-2.4,3.9c-1.5-0.2-3.1-1.3-3.5-2.9c0-0.9,0-1.7,0.3-2.5
			l3.1-2.5c1.7-0.2,3.3-0.6,5-0.9c-2.4,0.2-5.2-0.2-7.1,1.1c-0.5,0.1-0.7-0.2-1.1-0.2c-0.1-1.5,1.5-2.8,2.8-3.4
			c4.1-1.6,7.8-0.2,11.7-0.2c8.1,0.8,19.5-2.7,26.9,3.7l1.9,2.3c-0.1-0.8-0.7-1.6-1-2.4c-0.2-0.8-0.6-1.4-0.8-2.1
			c2.8-0.7,4.6,1.3,6.7,2.5c1,0.5,2.2,0.5,2.9,1.4C74.3,47.1,73.2,48.5,72.2,49.9z"/>
	</g>
</g>
</svg>
