<?xml version="1.0" encoding="utf-8"?>
<!-- Generator: Adobe Illustrator 18.1.1, SVG Export Plug-In . SVG Version: 6.00 Build 0)  -->
<!DOCTYPE svg PUBLIC "-//W3C//DTD SVG 1.1//EN" "http://www.w3.org/Graphics/SVG/1.1/DTD/svg11.dtd">
<svg version="1.1" xmlns="http://www.w3.org/2000/svg" xmlns:xlink="http://www.w3.org/1999/xlink" x="0px" y="0px"
	 viewBox="0 0 100 100" enable-background="new 0 0 100 100" xml:space="preserve">
<g id="AREA_3">
	<g>
		<path fill="#004D86" d="M42.8,2.1c7.6,0,15.2,2,21.8,4.6c7.7,3.7,15.2,11.1,17.6,19.2c2,8.5,2.8,16.6,2.5,26l0.1,0.3
			c1.9-2,3.6-2.8,5-2.8c6.5,0,7.2,18.1,0,19.9c-1.1,0.3-2,0.4-2.8,0.4c-3,0-4.7-1.7-6.3-4c-1.8-2.8-2.8-5.8-3.6-9
			c-0.2,0.1-0.2,0.4-0.3,0.6c-0.2,1.7-0.8,3.3-1,5c0.6,3.3,0,7.2,3.3,9.2c1.7,1.9,4.7,0.6,6.4,2.4c1.2,0.7,1.6,2,1.6,3.4
			c-0.3,4.5-5.1,7.1-8.9,8.3c-1.9,0.5-4,0.7-6.1,0.7c-1.7,0-3.4-0.1-5-0.1c-1.3,2.3-2.5,4.8-4.6,6.8l-3.2,3.8
			c-3.1,0.3-6.3,0.2-9.4,0.4c-1.3-2.1-2.5-4.3-3.8-6.4l-0.1,0.2c-2.2,1.2-4.3,2.6-6.9,2.6c-0.5,0-1-0.1-1.6-0.2
			c-0.7-0.2-1.5-0.3-2.3-0.3c-1.7,0-3.3,0.4-4.6,1.4c-1.9,1.6-4.3,2.5-6.8,2.5c-1.1,0-2.2-0.2-3.3-0.6c-1.9-0.6-3.5-1.8-5-3.2
			c-1.1,0.5-2.5,0.9-3.9,0.9c-0.9,0-1.8-0.2-2.6-0.7c-2.1-1.2-3.7-3.3-3.6-5.8c0-1.6-0.1-3.2,0.6-4.5c1.1-1.4,2.4-2.7,3.4-4.1
			c-2.5-1.5-2.9-4.2-2.9-6.9c0.3-2.8,3-4.3,5.4-5c0.1,0,0.2,0,0.2,0c0.6,0,1.1,0.7,1.6,0.7c0.2,0,0.4-0.1,0.5-0.5
			c1-1.2,2-2.3,2.9-3.5c-1.8-0.5-4-1.5-4.2-3.7c-0.5-2.7-0.4-5.5,1.9-7.4c0.8-0.7,1.5-1.5,2.5-1.8c-0.2-1,0.2-1.8,0.4-2.7l0.9-1
			l-1.2-0.9l-0.1-4.6c-0.9,0-1.8-0.4-2.3-1.2c-0.5-1.9,0.8-3.4,1.6-4.9c2-3.1,5.1-5.7,8.5-7.2c2.8-3.8,5.7-8.9,10.6-10.2
			c0.3-0.3,0.6-0.4,1-0.4v0c0,0,0,0,0,0c0,0,0.1,0,0.1,0c0.6-0.1,3.4-0.3,3.7-0.4c0.1,0,0.1,0,0.2-0.1c-0.2-0.3-0.4-0.6-0.8-0.9
			c-3.7,1.1-7.4,2.1-11.1,3.2c-2.9,0-5.6,0.3-8.1,0.3c-0.6-4.9-1.2-9.4-1.6-14.4c0,0,7.2-1.1,15.5-2.8C37.4,2.3,40.1,2.1,42.8,2.1
			 M44.8,17.7l3.6-0.1l0.6,1c0.5,0,1-0.1,1.4-0.1c4.7,0,8.5,2.4,12.3,4.8c8.2,5.6,11.5,15,11.6,24.7l2.1,1.3
			c0.5-4.1,0.3-8.6-0.8-12.4c-2.7-7.3-8.2-15.2-15.9-18.1c-4.1-1.5-8.4-3-13-3c-1,0-2,0.1-3,0.2L44.8,17.7 M72,74.8
			c0.1,0,0.2,0,0.3,0c0.1,0,0.2,0,0.3,0c1.6,0,3-1.2,4.7-1.2c0.2,0,0.5,0,0.7,0.1c-2.3-2.3-3.3-5.1-3.8-8c-0.6,1.1-1.6,2-2.7,2.5
			c-0.4,2.2-1,4.3-1.2,6.5C70.8,74.7,71.4,74.8,72,74.8 M42.8,0.8l0,1.3L42.8,0.8c-2.9,0-5.6,0.3-8.3,0.8
			c-8.1,1.6-15.3,2.7-15.4,2.7l-1.2,0.2L18,5.8c0.3,3.3,0.7,6.4,1.1,9.4c0.2,1.6,0.4,3.3,0.6,5l0.1,1.2H21c1.3,0,2.6-0.1,4-0.2
			c1.3-0.1,2.7-0.2,4.1-0.2l0.2,0l0.2-0.1l0,0c-1.5,1.6-2.7,3.4-3.9,5.1c-0.3,0.5-0.6,0.9-1,1.3c-3.5,1.6-6.7,4.4-8.7,7.5l0,0l0,0
			c-0.1,0.2-0.3,0.5-0.4,0.7c-0.9,1.4-1.9,3-1.3,5.2l0,0.2l0.1,0.2c0.5,0.8,1.2,1.4,2.1,1.6l0,3.5l0,0.6l0.5,0.4l0,0l-0.2,0.2
			l-0.1,0.4c0,0.2-0.1,0.5-0.2,0.7c-0.1,0.4-0.2,0.9-0.3,1.4c-0.7,0.4-1.3,1-1.9,1.5l-0.2,0.2c-2.3,1.9-3.1,4.8-2.4,8.6
			c0.1,1.3,0.9,3,3.3,4.1c-0.2,0.3-0.5,0.6-0.7,0.9c-0.3,0.3-0.5,0.6-0.8,0.9c-0.3-0.2-0.8-0.4-1.3-0.4c-0.2,0-0.4,0-0.7,0.1
			c-3.8,1.2-6,3.3-6.3,6.1l0,0.1v0.1c0,2.4,0.3,5.2,2.3,7.1c-0.4,0.5-0.9,1-1.3,1.5c-0.4,0.5-0.8,1-1.2,1.4l-0.1,0.1L5,82.5
			c-0.9,1.6-0.8,3.4-0.8,5l0,0.1c0,2.8,1.6,5.5,4.3,6.9c0.9,0.6,2,0.9,3.3,0.9c1.1,0,2.3-0.2,3.6-0.7c1.3,1.1,2.9,2.3,4.9,2.9
			c1.2,0.4,2.4,0.6,3.7,0.6c2.8,0,5.6-1,7.7-2.8c1.1-0.9,2.6-1.1,3.7-1.1c0.7,0,1.4,0.1,2,0.2c0.6,0.1,1.2,0.2,1.8,0.2
			c2.6,0,4.7-1.2,6.6-2.2c0,0,0,0,0,0c0.3,0.5,0.6,1,0.8,1.4c0.7,1.2,1.4,2.5,2.2,3.8l0.4,0.7l0.8-0.1c1.3-0.1,2.7-0.1,4.1-0.1
			c1.8,0,3.6-0.1,5.4-0.2l0.5-0.1l0.3-0.4l3.2-3.8c2-1.8,3.2-4,4.3-6.2c0-0.1,0.1-0.1,0.1-0.2l0.3,0c1.3,0.1,2.6,0.1,3.9,0.1
			c2.7,0,4.7-0.2,6.5-0.7l0,0l0,0c2.8-0.9,9.4-3.6,9.8-9.5l0,0l0,0c0-1.9-0.7-3.5-2.1-4.4c-1.2-1.1-2.6-1.3-3.8-1.4
			c-1.2-0.1-1.9-0.3-2.4-0.8l-0.1-0.1L80,70.4c-2-1.2-2.2-3.4-2.4-5.9c-0.1-0.7-0.1-1.5-0.3-2.3c0-0.2,0.1-0.4,0.1-0.7
			c0.6,1.6,1.4,3.2,2.3,4.7l0,0l0,0c1.6,2.2,3.5,4.5,7.4,4.5c1,0,2-0.1,3.2-0.4c4.8-1.2,6.7-8.1,6-14c-0.6-5.2-3-8.5-6.3-8.5
			c-1.2,0-2.5,0.5-3.8,1.4c0-8.5-0.8-16.1-2.6-23.7l0,0l0,0c-2.4-7.8-9.8-15.9-18.3-20l0,0l0,0C57.2,2.3,49.7,0.8,42.8,0.8L42.8,0.8
			z M75.4,43.2c-0.5-3.8-1.4-7.1-2.6-9.8c0.7,1.3,1.2,2.6,1.7,3.8C75,39,75.3,41,75.4,43.2L75.4,43.2z M72.6,69
			c0.3-0.2,0.6-0.4,0.8-0.6c0.5,1.6,1.1,3,1.9,4.2c-0.4,0.1-0.7,0.3-1,0.4c-0.7,0.3-1.3,0.5-1.8,0.5c-0.1,0-0.1,0-0.2,0l-0.1,0
			l-0.1,0c-0.1,0-0.1,0-0.2,0c-0.1,0-0.2,0-0.3,0c0.1-0.9,0.4-1.8,0.6-2.8C72.4,70.1,72.5,69.5,72.6,69L72.6,69z"/>
	</g>
</g>
<g id="AREA_2">
	<g>
		<path fill="#FFFFFF" d="M59.8,18.7c-4.9-1.9-10.2-3.7-15.9-2.8l1,1.8l3.6-0.1l0.6,1c5.4-0.5,9.6,2,13.7,4.7
			c8.2,5.6,11.5,15,11.6,24.7l2.1,1.3c0.5-4.1,0.3-8.6-0.8-12.4C73,29.5,67.5,21.7,59.8,18.7z"/>
		<path fill="#FFFFFF" d="M40.2,21.5c1.1,0.7,2.6,1.3,4,0.7c1.3-0.8,3.2-1.2,3.8-2.9c-0.9-0.5-2.1-0.4-3.1-0.6
			c-0.3,0.4,0.4,0.8,0.1,1.3c-0.1,0.4-0.6,0.6-0.9,0.8c-0.4-1.1-0.2-2.5-0.4-3.6c-0.3-0.3-0.7-0.3-1.1-0.2c-0.6,0.7-0.2,2-0.3,2.8
			c0,0-2.4-1-3.5-0.7c-0.1,0.1-0.2,0.1-0.2,0.2C38.6,20.3,39.6,20.8,40.2,21.5z"/>
		<path fill="#FFFFFF" d="M92.9,57.7c-0.2-1.4-1.6-2.2-1.8-3.6c0.3-0.4,0.7-0.5,1-0.7c-0.6-1-1.1-2.2-2.2-2.9l0.7,1.3
			c-0.8,0.3-1.7,0.2-2.4,0.8c-0.4,1.2-0.5,2.5-1.1,3.6L83.8,57c-0.2-1.1,0.1-2.4,0.7-3.4l-0.4-2.2l-0.8,0.9c-1.3,0.8-1,2.3-1,3.6
			c0.6,2.5,1.4,4.8,2.4,7.1c0.8,1.1,2,1.6,3.3,1.6c1.1-0.1,2.1-0.9,2.4-2c0.4-1.3,0.3-3-0.9-3.8C89,58.8,88.4,58.8,88,59
			c-0.5,0.3-0.6,0.8-0.5,1.3c0.4,0.8,1.4,0.7,1.9,1c-0.4,0.4-0.8,1.1-1.4,1.1c-0.7-0.1-1.2-0.5-1.6-1c-0.2-1.1-0.5-2.8,0.5-3.6
			c0.7-0.5,1.8-0.9,2.6-0.6c0.7,0.2,1.3,0.6,1.7,1.2c1.3,2,0.7,4.9-0.6,6.7c-0.7,1.1-1.9,1.4-3.2,1.2c-2.1-0.3-4.2-2.2-5-4
			C80.6,57,80.3,52,80.2,46.3c0.5-0.3,1.3-0.2,1.9-0.5c0.5-0.2,1.3-0.2,1.9-0.5v-2.9c-1.4,0.5-2.7,1.1-4.1,1.3
			c-0.3-1.7-0.6-3.6-1-5.2c1.4-0.8,3.1-1.1,4.6-1.7c-0.2-0.8-0.1-1.8-0.4-2.4c-1.5,0.9-3.2,1.6-4.9,1.9c-0.5-2-1.1-3.9-1.6-5.9
			l0.1-0.1c2-0.3,3.7-1.7,5-3.4c-0.2-1-0.5-2-1-2.9c-0.2,0.9-0.6,1.7-1.1,2.5c-1,1.5-2.7,2.1-4.2,2.4L72.4,24v-0.2
			c2.2-1.7,3.7-4,4.6-6.3c-0.5-0.7-1.1-1.3-1.5-1.6c-0.5,2.5-2.1,5-4.4,6.2l-3.8-3.8c0.8-1.9,2.8-5.6,2.3-7.9L67.7,9
			c0.3,2.7-0.6,5.4-1.9,7.8c-2-1-4.1-2.1-6.1-3.2c1.2-2.3,1.7-5,1.3-7.7c-0.8-0.3-1.9-0.6-2.7-0.8l0.4,1.2c0.8,2.4-0.4,4.7-2.1,6.4
			c-1.3-0.3-2.7-0.4-3.8-0.7c-0.4-0.1-0.9,0-1.2-0.3c0.3-3-0.2-5.8-1-8.5c-0.3,0.1-0.5-0.1-0.7-0.1c-0.6,0.1-0.8-0.2-1.3-0.1
			c1.1,2.4,1.2,5.7,0.3,8.2h-6.2c0.5-3-0.3-6.4-2.7-8.5l-2.2,0.3c2.4,2.2,3.3,5.4,2.1,8.5c-2.9,0.8-5.4,1.2-8.3,1.9V17
			c3.3-1,6.7-1.9,10-2.9c2.5-0.4,4.7-0.6,7-0.6C58,14.7,67.4,18.7,73,27.1c1.7,2.4,2.8,5.1,3.7,8c3.4,8.8,0.1,19,4,27.5
			c1.2,2.6,3.7,5.2,6.8,5.2c1.5,0.1,2.9-0.5,3.6-1.9C92.3,63.5,93.5,60.7,92.9,57.7z"/>
		<path fill="#FFFFFF" d="M22,7.9c0.8,1.7,3,0.9,4.5,1.4c1.8,0.1,1.2,2.1,2.2,3.1c0.2-0.1,0.5,0,0.6-0.1V9.1l4-3
			C29.6,6.8,25.8,7.2,22,7.9z"/>
		<path fill="#FFFFFF" d="M22.7,13.2c0.1,1.2,0.2,2.7,0.5,4c0.1,0.4-0.1,0.6,0.1,0.9l5.5-0.1c-0.1-1.5-0.6-2.9-0.6-4.5L22.7,13.2z"
			/>
		<path fill="#FFFFFF" d="M54.9,26.8c8.3,3.2,15,11.4,17.8,19.5c0.1-3.2-1.1-5.7-1.9-8.5c-1.5-6.6-6.9-12.2-12.9-15.4
			c-2.6-1.9-5.6-2.7-9.1-2.1c-1.1,1.2-2.4,2.3-3.9,2.9c-3.4,1.9-5.9-1.9-8.7-2.9c-0.9-0.3-1.6,0.5-2.4,0.8c-1.5,1.7-4.1,3.5-4.8,5.9
			c1.8-0.7,3.6-1.2,5.5-1.7C41,22.9,49,23.9,54.9,26.8z"/>
		<path fill="#FFFFFF" d="M23,33.8c5.8-4,12.2-6.7,19.8-6c5.5,0.9,10.9,2,15.7,4.8c5.3,3.6,9.7,8.9,12.2,14.6
			c0.3-0.1,0.6-0.1,0.8-0.2L70,44.5c-3.4-6.3-8.5-13.7-15.6-16c-4.6-1.8-9.7-2.6-15.1-2.5c-8.9,0.5-17.7,4.7-22.3,12.5l0.3,0.6
			c0.3,0.2,0.6-0.1,0.9-0.1C19.5,37.2,21.2,35.3,23,33.8z"/>
		<path fill="#FFFFFF" d="M36.9,39.6c4.4-0.6,8.5,1,12.6,1.9c6.7,1.5,12.3,6.1,18.1,9.5c0.6-0.9,1.5-1.8,2.2-2.7v-0.2
			c-3.2-6.1-8.3-12.9-15-15.3c-4.6-1.8-9.1-4.4-14.5-3.6c-5.5,0.9-11.2,1.3-15.4,5.4c-2,1.7-4.5,4-5.7,6.5l0.4,5.1
			C24.6,43.2,31,40.4,36.9,39.6z M63.8,41.8l0.1-0.2l0.1,0.2c0.9,1.1,2,2.3,2.7,3.6l0.1,0.1l-2.4,2.4l-0.4-0.1l0,0
			c-0.9-0.8-1.9-1.3-2.9-2.1L61,45.7l0.1-0.1C61.9,44.3,62.9,43.1,63.8,41.8z M56.7,35.5l0.2,0.1c1.7,1.2,3.5,2.9,5.2,4.3l0.1,0.1
			l-2.9,4.6l-0.1-0.1c-1.7-0.8-3.2-1.8-4.8-2.7l-0.1-0.1L56.7,35.5z M47.6,31.7l0.2,0.1c2.2,0.7,4.2,1.8,6.2,2.6l0.1,0l0,0.1
			c-0.5,2.1-1.5,4.1-2.2,6.2l0,0.1l-0.1,0c-1.9-0.5-3.7-1.6-5.6-2.2l-0.1,0L47.6,31.7z M37.8,30.6l6.6,0.8L44,37.6l-1.2,0.6L38,37.9
			l-0.1,0V30.6z M29.1,32.8l0.1,0c1.6-0.5,3.4-0.8,5-1.3l0.2-0.1l0.1,6.8l0,0.1l-0.1,0c-1.8,0.2-3.5,0.3-5,0.5l-0.2,0V32.8z
			 M23.4,37.5l4.1-4.1l0.3,0.1v7v0.1l-0.1,0c-1.3,0.7-2.7,1.3-4.1,1.8l-0.2,0.1V37.5z M22,38.4l0,4.9l-1.7,1L20,44.5L19.8,41
			L22,38.4z"/>
		<path fill="#FFFFFF" d="M43.3,37.2c0-1.8,0.2-3.5,0.2-5.2c-1.8,0-3.1-0.5-4.8-0.5v5.7c0.7,0.2,1.5,0.1,2.1,0.2
			C41.5,37.3,42.6,37.8,43.3,37.2z"/>
		<path fill="#FFFFFF" d="M33.6,32.4c-1.2,0.3-2.5,0.5-3.7,1v4.7l3.7-0.3V32.4z"/>
		<path fill="#FFFFFF" d="M51.4,39.9l1.8-4.7v-0.4c-1.6-0.7-3.3-1.4-5-2.1c-0.3,1.8-1,3.7-1.1,5.4l4.1,1.8H51.4z"/>
		<path fill="#FFFFFF" d="M27.1,40L27,35.1l-2.7,2.8l0.1,3.4C25.2,40.8,26.2,40.6,27.1,40z"/>
		<path fill="#FFFFFF" d="M61,40.3V40c-1.3-1.1-2.7-2.3-4.1-3.3l-1.8,4.6c1.2,0.8,2.5,1.5,3.7,2.2C59.6,42.5,60.3,41.4,61,40.3z"/>
		<path fill="#FFFFFF" d="M65.6,54.2l0.8-1.4c-3.7-2.9-7.5-5.8-11.6-7.7c-5.4-2.3-10.9-4.3-17.3-4.1c-6.5,0.8-12.2,3.3-17.6,6.9
			l-0.6,1c0,0.4-0.1,0.9,0.3,1.2c0.4,0.2,0.8,0,1.1-0.1c1.3-0.8,2.4-1.4,3.6-2.4c5-3.2,10.9-5.1,17.1-4.6c1.8,0.2,3.5,0.5,5.3,0.8
			C54.1,45,60.1,49.1,65.6,54.2z"/>
		<path fill="#FFFFFF" d="M65.8,45.5c-0.5-1-1.3-1.8-1.9-2.6l-1.9,2.5l2.2,1.5L65.8,45.5z"/>
		<path fill="#FFFFFF" d="M57.3,71.5c1.5-1.8,2.8-3.7,4.1-5.6L58.1,64c0.3-1.5,2.1-2.4,2.7-3.8c0.2-1.6,1.5-2.8,1.6-4.4
			c-0.5-1.3-1.7-2-3.1-2.1c-0.5-0.8-0.9-1.5-1.1-2.4c-0.3-2.2-2.8-2.4-4.2-3.5c-1.4-0.3-2.6-1.2-3.9-1.8c-0.6-0.1-1.4,0.1-1.8,0.5
			c1,0.2,1.9,0.6,2.7,1.1c1.2,1,2.5,2.2,2,3.9c-1.2-1-2.4-2.2-3.8-3c-1.7-0.5-3.4,0.7-4.5,1.4c2.4-0.3,4.2,1.2,5.9,2.9
			c1.6,1.6,0,3.8,0.7,5.7c0.3,0.4,0.9,0.8,1,1.2c-1.2,0.1-2.4,0.3-3.6,0.6c-2,1.4-5,1.7-7.3,0.8c-2.3-0.9-4.8-2.1-6.3-4.5
			c0.7-1,1.5-2,2.1-3.1c-0.4-0.3-0.8-0.5-1.3-0.7c-0.6-0.3-1.3-0.2-1.7-0.8c-0.3-2.3,2.5-1,3.7-1.7c0.5-1.1,0.9-2.1,1.3-3.2
			c0.4-0.8,1.6-1.1,1.4-2l-0.5-0.6c-1-0.1-1.7,0.1-2.6,0.3c-1.2,0.3-2.7,0.5-4,0.9c-1.9,1.5-3.9,3.1-5.5,4.8c-0.3-0.4-0.5-1-0.8-1.2
			c-0.7,0-1.3,0.4-1.9,0.8v0.3c0.6,0.7,1.3,1.3,1.8,2.1c0.2,0.7,0.6,1.4,0.6,2.1c-2-1.1-4-2.3-6.4-2.2c-2.6-0.2-4.6,1.2-6.3,2.9
			c-0.6,0.8-0.5,1.9-0.2,2.8c0.8,1.3,1.4,2.6,2.5,3.8c1.3,1.1,3.2,0.1,4.6,0.3c3,0.2,5.1,3,8.3,2.5c1-0.6,1.5-1.8,1.8-2.8
			c0.3-1.4-0.8-2.4-0.7-3.7c0.9-0.1,1.7,0,2.5,0.5c2.4,1.2,2.2,4,2.6,6.2c0.6,2.7,3.9,1.3,5.1,3.3c1.2,2.3,0.8,4.9-0.6,6.9
			c0-1.5-0.2-3.4-1.8-4.1c-2.8-0.7-4.6-3.7-5.4-6.3c-0.8,0.7-1.1,1.6-2.1,2.3c-1.6,1.6-3.4-0.2-4.9-0.9c-2.2-1-5-0.9-7.5-1.5
			l-3.9,4.3c0.5,0.6,0.9,1,1.6,1.1c2.4,0.1,5,0.1,7.2-0.2c4.7-0.6,7.7,3.3,10.5,6.7c1.2,1.5,2.4,3.2,1.8,5.2
			c-0.2,0.7-0.9,1.1-1.6,1.1c-1.9-0.3-2-2.4-2.9-3.6c-1.3-1.4-2.7-3-4.1-4.2c-1.7-0.6-3.2-1.6-5-1.9c-1.9,0.5-3.7,0.2-5.5,0.3
			c-0.9,0.1-2,1-2.7,0c-1.3-1.1,0.7-1.7,1.1-2.5c-0.1-0.4-0.5-0.7-0.8-1.1c-1-0.7-2.3,0-3.3,0.1c-1.3,0.6-1.9,2-2,3.3
			c0.6,1.8,1.9,3.2,2.8,4.8c1.2,0.9,2.8,0.2,4.1,0.1c2.5-0.6,5.3,0.1,7.3,1.5c0.5,0.6,0.3,1.2,0.4,2L24,81.7
			c-2.4-0.3-4.8-1.2-7.3-1.5c-3.3-0.6-5.9,1.5-7.7,4c-1.3,1.8-0.6,4.5,0.4,6.2c1,2,3.3,1.7,5.1,1.7c-0.3-0.6-0.5-1.1-0.8-1.7
			c-0.3-1.2,0-2.4,0.7-3.2c0.6,0.2,1.2,0.1,1.6,0.7c0.1,1.4-0.4,3.1,1,4c1.1,1.1,2.7,1.4,4.1,1.7c4.1,0.2,7.5-1.3,10.9-2.9
			c1.8-1.2,4-0.1,5.9,0.5c2.6,0.8,4.9-0.5,6.9-1.9c1.1-0.3,0-1-0.1-1.5c1.5-3.4,3.1-6.8,4.8-10.1C52.7,77.1,54.6,73.6,57.3,71.5z
			 M39.7,86.9c-0.9,0.9-2.3,1-3.6,0.8c-0.2-0.1-0.7-0.2-0.5-0.6c1.3-1,2.3-2,3.6-3.1c0.5-0.1,0.5,0.5,0.7,0.7
			C40,85.4,40.2,86.4,39.7,86.9z M47.9,75.5c-0.3-0.2-0.6-0.5-0.8-0.8c-0.3-1.2,0.7-2,1.1-3c0.5-1.1,1-2.7,2.5-2.8
			c0.8-0.1,1.7-0.3,2.5-0.5c0.3,0.1,0.4,0.1,0.7,0.1c0.3,0.7-0.6,1.2-1,1.6c-2.2,0.8-3.7,3.1-4.3,5.2C48.4,75.5,48.1,75.7,47.9,75.5
			z"/>
		<path fill="#FFFFFF" d="M70.3,50c-3.1,2.8-4.6,6.5-5.5,10.3c-0.6,2.6,0.7,5,2.9,6.4c-0.1-1.3-0.3-2.5-0.2-3.8
			c0.6-5.2,2.8-9.9,6.5-13.8C72.6,47.8,71.4,49.4,70.3,50z"/>
		<path fill="#FFFFFF" d="M75.1,50.7c-2.9,2.7-4.4,6.3-5.3,10c-0.4,2-1,4.5-0.1,6.4c1.7,0.2,2.8-2.1,3.4-3.2
			c-0.4,0.2-0.8,0.4-1.3,0.3c-0.4-0.2-0.6-0.7-0.7-1.2c-0.2-2.9,0.6-5.5,2.1-7.8c0.5-0.7,1.3-1.7,2.3-1.5c0.5,0.3,0.8,0.7,0.8,1.3
			c0.4-1.3,0.2-2.8,0.1-4.1C76.3,50.2,75.5,50.5,75.1,50.7z"/>
		<path fill="#FFFFFF" d="M48.4,58.5l1.4-0.6c0.1-1.6,0.2-3.8-1.5-4.8c-1.7-0.8-3.2-2-5.3-2c-2.8,0.1-4,3.3-5.1,5.3
			c0.7,0.5,1.3,1.2,2,1.7c0.2-1.8,0.4-3.7,1.9-4.6c0.5,0.1,0.9,0.3,1.2,0.6c1.6,0.3,0.3,2,1.5,2.8c0.5-0.1,0.5-0.4,0.8-0.7
			c0.2-0.6,0.2-1.1-0.1-1.7c-0.1-0.4-0.6-0.7-0.6-1c0.6,0.1,1.2,0.1,1.8,0.2C48.4,54.6,47.8,56.9,48.4,58.5z"/>
		<path fill="#FFFFFF" d="M72.8,58.7c-0.2,0.6-0.7,1.5-0.2,2c1.1-0.4,1.5-1.6,1.6-2.7C73.8,57.1,73.1,58.3,72.8,58.7z"/>
		<path fill="#FFFFFF" d="M71.4,68.1c-0.4,2.2-1,4.3-1.2,6.5c0.7,0.2,1.5,0.2,2,0.2c2,0.2,3.6-1.6,5.7-1.1c-2.3-2.3-3.3-5.1-3.8-8
			C73.5,66.7,72.5,67.6,71.4,68.1z"/>
		<path fill="#FFFFFF" d="M65.3,78.1c-1.1,2.4-2,4.9-2.9,7.4l-4.1,0.3c-0.3,0.1-0.6,0.2-0.9,0l-1.6-5.9c3.9-3.9,6.4-8.2,9.4-12.5
			c0-0.6-0.8-1.1-1.1-1.7l-4.4,5.9l-5.5,5.6c-1.2,0.7-2.4,1.3-3.5,2c1.4,3.5,3,7,4.6,10.5c2.3,0.1,4.6,0.4,6.9,0.3l3-4.7l1.3-4.1
			c1.3-3,1.5-6.4,2.4-9.6L65.3,78.1z"/>
		<path fill="#FFFFFF" d="M58.2,81.2l1.2,3c0.7-0.1,1.2-0.2,1.8-0.3l1.8-5.4c1.9-3.2,3.4-6.6,5.5-9.7v-0.2c-0.4,0.1-0.7-0.1-1-0.1
			C64.5,72.7,61.4,76.9,58.2,81.2z"/>
		<path fill="#FFFFFF" d="M69.8,76.3c0,0.2-0.2,0.4-0.1,0.6c1.9,0.3,3.7,0.7,5.7,0.6c3-0.2,6.2-3.1,9-0.5c0.3,0.5,0.1,0.8,0,1.3
			c-2.3,4.3-7.2,4.3-11.2,5.4l-5.1-0.2c-0.2,0.2-0.2,0.6-0.3,0.9l1.5,0.5c5.5,0.4,10.9-1,15.1-4.4c0.9-1,1.8-2.3,1.4-3.8
			c-0.2-1.8-2.1-1.9-3.4-2.3c-1.5-0.3-2.7,0.5-4,1C75.7,75.8,72.6,76.9,69.8,76.3z"/>
		<path fill="#FFFFFF" d="M68.7,80.9l-0.3,1.4c4.1,0.8,7.7-0.2,11.3-1.3l2.8-2.2c0.1-0.4,0.3-0.9-0.1-1.3c-0.8-0.5-2-0.2-2.7,0.3
			c-2.4,3.5-6.8,3.9-10.9,3.3C68.8,81.1,68.7,81,68.7,80.9z"/>
		<path fill="#FFFFFF" d="M47.3,87.5l4,6c0.2-0.2,0.3-0.6,0.5-0.8c0.5-0.8,1.2-1.5,1.5-2.4c-1.3-2.5-2.6-5-4-7.5
			C48.5,84.4,47.9,85.9,47.3,87.5z"/>
		<polygon fill="#FFFFFF" points="21.5,43 21.5,39.7 20.3,41.1 20.4,43.7 		"/>
	</g>
</g>
<g id="AREA_1">
	<g>
		<path d="M42.9,38.2l1.2-0.6l0.4-6.2l-6.6-0.8v7.2l0.1,0L42.9,38.2z M38.6,31.5c1.8,0,3.1,0.5,4.8,0.5c0,1.7-0.2,3.4-0.2,5.2
			c-0.7,0.6-1.8,0.1-2.5,0.2c-0.6-0.1-1.4,0-2.1-0.2V31.5z"/>
		<path d="M34.3,38.5l0.1,0l0-0.1l-0.1-6.8l-0.2,0.1c-1.6,0.5-3.3,0.8-5,1.3l-0.1,0V39l0.2,0C30.9,38.8,32.6,38.7,34.3,38.5z
			 M29.9,33.4c1.2-0.5,2.5-0.6,3.7-1v5.4l-3.7,0.3V33.4z"/>
		<path d="M51.8,40.8l0.1,0l0-0.1c0.6-2.1,1.6-4.1,2.2-6.2l0-0.1l-0.1,0c-2.1-0.8-4.1-1.9-6.2-2.6l-0.2-0.1l-1.5,6.9l0.1,0
			C48.1,39.2,49.9,40.3,51.8,40.8z M48.2,32.7c1.6,0.7,3.3,1.4,5,2.1v0.4l-1.8,4.7h-0.2L47,38.1C47.2,36.4,47.9,34.5,48.2,32.7z"/>
		<path d="M27.7,40.6L27.7,40.6l0.1-0.1v-7l-0.3-0.1l-4.1,4.1v4.9l0.2-0.1C25,41.8,26.4,41.2,27.7,40.6z M27,35.1l0.1,4.9
			c-0.9,0.6-1.9,0.8-2.8,1.3l-0.1-3.4L27,35.1z"/>
		<path d="M59.1,44.5l0.1,0.1l2.9-4.6L62,39.9c-1.7-1.3-3.5-3.1-5.2-4.3l-0.2-0.1l-2.5,6.3l0.1,0.1C56,42.7,57.4,43.7,59.1,44.5z
			 M57,36.8c1.4,1,2.8,2.2,4.1,3.3v0.3c-0.7,1.1-1.5,2.2-2.2,3.3c-1.2-0.8-2.5-1.4-3.7-2.2L57,36.8z"/>
		<path d="M61,45.7l0.1,0.1c1,0.8,2,1.3,2.9,2.1l0,0l0.4,0.1l2.4-2.4l-0.1-0.1c-0.7-1.3-1.9-2.5-2.7-3.6l-0.1-0.2l-0.1,0.2
			c-0.9,1.2-1.9,2.4-2.7,3.7L61,45.7z M63.9,42.9c0.6,0.8,1.5,1.6,1.9,2.6L64.3,47l-2.2-1.5L63.9,42.9z"/>
		<path d="M20.3,44.3l1.7-1l0-4.9L19.8,41l0.2,3.5L20.3,44.3z M21.5,39.7l0,3.4l-1.1,0.7l-0.1-2.6L21.5,39.7z"/>
		<path d="M53,70.1c0.4-0.4,1.3-0.8,1-1.6c-0.3,0-0.4,0-0.7-0.1c-0.8,0.1-1.6,0.3-2.5,0.5c-1.5,0.1-2,1.7-2.5,2.8
			c-0.5,1-1.4,1.8-1.1,3c0.1,0.3,0.5,0.6,0.8,0.8c0.3,0.2,0.6,0,0.8-0.2C49.3,73.1,50.8,70.9,53,70.1z"/>
		<path d="M39.2,84c-1.2,1.1-2.3,2.1-3.6,3.1c-0.2,0.5,0.3,0.5,0.5,0.6c1.3,0.2,2.7,0.1,3.6-0.8c0.5-0.5,0.3-1.5,0.2-2.2
			C39.7,84.4,39.7,83.9,39.2,84z"/>
		<g>
			<g>
				<path d="M84.9,52.1l-0.1-0.3c0.2-9.3-0.6-17.5-2.5-26c-2.5-8-10-15.5-17.6-19.2c-9-3.6-19.7-6-29.8-3.8
					c-8.2,1.6-15.5,2.8-15.5,2.8c0.5,5,1.1,9.5,1.6,14.4c2.5,0,5.2-0.3,8.1-0.3c3.7-1.1,7.4-2.2,11.1-3.2c0.4,0.2,0.6,0.5,0.8,0.9
					c-0.1,0-0.1,0-0.2,0.1c-0.3,0.1-3,0.3-3.7,0.4c0,0-0.1,0-0.1,0c0,0,0,0,0,0v0c-0.3,0-0.7,0.2-1,0.4c-4.9,1.3-7.8,6.4-10.6,10.2
					c-3.3,1.5-6.5,4.1-8.5,7.2c-0.9,1.5-2.2,3-1.6,4.9c0.5,0.8,1.4,1.2,2.3,1.2l0.1,4.6l1.2,0.9l-0.9,1c-0.2,0.9-0.5,1.8-0.4,2.7
					c-1,0.3-1.8,1.1-2.5,1.8c-2.3,1.9-2.4,4.7-1.9,7.4c0.2,2.1,2.4,3.2,4.2,3.7c-0.9,1.2-1.9,2.3-2.9,3.5c-0.5,1.4-1.4-0.5-2.4-0.1
					c-2.4,0.7-5.1,2.2-5.4,5c0,2.7,0.4,5.4,2.9,6.9c-1,1.4-2.3,2.7-3.4,4.1c-0.7,1.3-0.7,2.9-0.6,4.5c-0.1,2.5,1.5,4.6,3.6,5.8
					c1.9,1.3,4.6,0.6,6.5-0.2c1.5,1.4,3.2,2.6,5,3.2c3.5,1.2,7.4,0.3,10.1-1.9c1.8-1.5,4.5-1.7,6.9-1.2c3.4,0.7,5.9-1,8.5-2.4
					l0.1-0.2c1.3,2.1,2.4,4.3,3.8,6.4c3.1-0.2,6.3-0.1,9.4-0.4l3.2-3.8c2.1-1.9,3.3-4.5,4.6-6.8c3.5,0.1,7.6,0.4,11.1-0.5
					c3.7-1.2,8.6-3.7,8.9-8.3c0-1.4-0.4-2.6-1.6-3.4c-1.8-1.8-4.7-0.5-6.4-2.4c-3.3-2.1-2.7-5.9-3.3-9.2c0.1-1.7,0.7-3.3,1-5
					c0.1-0.2,0.1-0.5,0.3-0.6c0.9,3.1,1.9,6.2,3.6,9c2.1,2.9,4.1,4.9,9.1,3.6C98.6,67.1,95.8,40.8,84.9,52.1z M23.3,18.1
					c-0.3-0.3-0.1-0.5-0.1-0.9c-0.3-1.3-0.4-2.7-0.5-4l5.5,0.3c0,1.6,0.5,2.9,0.6,4.5L23.3,18.1z M29.4,12.2c-0.2,0.1-0.5,0-0.6,0.1
					c-1-0.9-0.4-2.9-2.2-3.1C25,8.9,22.8,9.6,22,7.9c3.7-0.7,7.6-1.1,11.4-1.9l-4,3V12.2z M38.7,19.2c1.2-0.3,3.5,0.7,3.5,0.7
					c0.1-0.8-0.3-2.1,0.3-2.8c0.3-0.1,0.8-0.1,1.1,0.2c0.2,1.1,0,2.5,0.4,3.6c0.3-0.2,0.8-0.5,0.9-0.8c0.3-0.5-0.3-0.9-0.1-1.3
					c1,0.3,2.2,0.2,3.1,0.6c-0.6,1.6-2.5,2-3.8,2.9c-1.4,0.6-2.9,0-4-0.7c-0.6-0.6-1.6-1.2-1.7-2.1C38.6,19.3,38.6,19.2,38.7,19.2z
					 M33.9,21c0.8-0.3,1.5-1.1,2.4-0.8c2.9,1.1,5.3,4.8,8.7,2.9c1.5-0.5,2.8-1.6,3.9-2.9c3.5-0.6,6.5,0.2,9.1,2.1
					c6,3.2,11.4,8.8,12.9,15.4c0.8,2.8,2,5.3,1.9,8.5c-2.9-8.1-9.5-16.3-17.8-19.5C49,23.9,41,22.9,34.5,25.2
					c-1.9,0.5-3.7,1.1-5.5,1.7C29.7,24.6,32.4,22.7,33.9,21z M67.4,63c-0.1,1.4,0.2,2.5,0.2,3.8c-2.2-1.5-3.5-3.9-2.9-6.4
					c0.9-3.8,2.4-7.5,5.5-10.3c1.2-0.6,2.3-2.2,3.6-0.8C70.3,53.1,68,57.7,67.4,63z M68.5,68.5v0.2c-2.2,3.1-3.6,6.5-5.5,9.7
					l-1.8,5.4c-0.6,0.1-1.1,0.2-1.8,0.3l-1.2-3c3.3-4.2,6.3-8.4,9.3-12.8C67.8,68.4,68.1,68.5,68.5,68.5z M45.2,54.6
					c0.3,0.5,0.2,1.1,0.1,1.7C45,56.6,44.9,57,44.5,57c-1.2-0.7,0.1-2.4-1.5-2.8c-0.3-0.3-0.8-0.6-1.2-0.6c-1.5,0.9-1.8,2.8-1.9,4.6
					c-0.7-0.4-1.3-1.1-2-1.7c1.1-2,2.3-5.2,5.1-5.3c2,0,3.6,1.1,5.3,2c1.7,1,1.6,3.2,1.5,4.8l-1.4,0.6c-0.5-1.6,0-4-2-4.7
					c-0.6-0.2-1.2-0.2-1.8-0.2C44.6,53.9,45,54.2,45.2,54.6z M41.5,43c-6.2-0.5-12.1,1.4-17.1,4.6c-1.3,0.9-2.3,1.5-3.6,2.4
					c-0.4,0-0.8,0.2-1.1,0.1c-0.4-0.3-0.3-0.8-0.3-1.2l0.6-1c5.4-3.6,11.1-6.1,17.6-6.9c6.4-0.2,11.9,1.9,17.3,4.1
					c4.2,1.9,7.9,4.8,11.6,7.7l-0.8,1.4c-5.6-5.1-11.5-9.2-18.8-10.4C45,43.5,43.4,43.2,41.5,43z M19.3,41c1.2-2.6,3.7-4.8,5.7-6.5
					c4.2-4.1,9.9-4.4,15.4-5.4c5.3-0.8,9.9,1.8,14.5,3.6c6.7,2.4,11.8,9.2,15,15.3v0.2c-0.7,0.9-1.6,1.7-2.2,2.7
					c-5.9-3.4-11.4-8-18.1-9.5c-4.1-0.9-8.2-2.5-12.6-1.9c-5.9,0.7-12.3,3.6-17.3,6.5L19.3,41z M18.3,39c-0.3,0-0.6,0.2-0.9,0.1
					L17,38.5c4.6-7.8,13.3-12,22.3-12.5c5.4-0.1,10.5,0.7,15.1,2.5c7.1,2.3,12.2,9.7,15.6,16l1.4,2.4c-0.2,0.2-0.6,0.2-0.8,0.2
					c-2.4-5.6-6.9-11-12.2-14.6c-4.7-2.8-10.1-3.9-15.7-4.8c-7.6-0.7-14,2-19.8,6C21.2,35.3,19.5,37.2,18.3,39z M44.6,87.7
					c0.1,0.5,1.2,1.3,0.1,1.5c-2,1.4-4.3,2.7-6.9,1.9c-1.9-0.6-4.1-1.7-5.9-0.5c-3.4,1.6-6.8,3.1-10.9,2.9c-1.3-0.3-2.9-0.6-4.1-1.7
					c-1.3-0.9-0.8-2.6-1-4c-0.3-0.6-1-0.6-1.6-0.7c-0.7,0.8-1.1,2.1-0.7,3.2c0.3,0.6,0.5,1.2,0.8,1.7c-1.9,0-4.1,0.3-5.1-1.7
					c-1-1.7-1.7-4.4-0.4-6.2c1.9-2.5,4.4-4.6,7.7-4c2.5,0.3,4.9,1.2,7.3,1.5l0.2-0.2c0-0.8,0.1-1.4-0.4-2c-2.1-1.4-4.8-2.1-7.3-1.5
					c-1.3,0.1-2.9,0.8-4.1-0.1c-0.9-1.6-2.2-3-2.8-4.8c0-1.4,0.7-2.7,2-3.3c1.1-0.1,2.3-0.8,3.3-0.1c0.3,0.3,0.7,0.6,0.8,1.1
					c-0.4,0.8-2.5,1.4-1.1,2.5c0.7,1,1.9,0.1,2.7,0c1.9-0.2,3.7,0.1,5.5-0.3c1.8,0.3,3.3,1.3,5,1.9c1.4,1.2,2.8,2.8,4.1,4.2
					c0.9,1.2,1,3.3,2.9,3.6c0.7,0,1.4-0.4,1.6-1.1c0.6-2-0.6-3.7-1.8-5.2c-2.8-3.4-5.8-7.3-10.5-6.7c-2.3,0.4-4.8,0.3-7.2,0.2
					c-0.7-0.1-1.1-0.5-1.6-1.1l3.9-4.3c2.5,0.6,5.3,0.6,7.5,1.5c1.5,0.7,3.3,2.5,4.9,0.9c1-0.7,1.3-1.7,2.1-2.3
					c0.8,2.5,2.6,5.6,5.4,6.3c1.5,0.8,1.8,2.6,1.8,4.1c1.5-2,1.9-4.7,0.6-6.9c-1.3-2-4.6-0.6-5.1-3.3c-0.4-2.3-0.2-5-2.6-6.2
					C33,58,32.2,58,31.3,58c0,1.2,1,2.3,0.7,3.7c-0.3,1.1-0.8,2.2-1.8,2.8C27,65,24.9,62.2,21.9,62c-1.4-0.2-3.3,0.7-4.6-0.3
					c-1.1-1.1-1.6-2.5-2.5-3.8c-0.2-0.9-0.4-2,0.2-2.8c1.7-1.8,3.7-3.1,6.3-2.9c2.5-0.1,4.5,1,6.4,2.2c0-0.7-0.4-1.4-0.6-2.1
					c-0.5-0.8-1.2-1.4-1.8-2.1v-0.3c0.6-0.3,1.2-0.8,1.9-0.8c0.4,0.2,0.6,0.8,0.8,1.2c1.6-1.7,3.6-3.3,5.5-4.8
					c1.3-0.3,2.8-0.6,4-0.9c0.9-0.3,1.6-0.4,2.6-0.3l0.5,0.6c0.2,0.9-0.9,1.3-1.4,2c-0.4,1.1-0.9,2.1-1.3,3.2
					c-1.2,0.7-4-0.6-3.7,1.7c0.5,0.6,1.1,0.5,1.7,0.8c0.5,0.2,0.9,0.4,1.3,0.7c-0.6,1.1-1.4,2.1-2.1,3.1c1.5,2.3,4,3.5,6.3,4.5
					c2.4,0.9,5.3,0.6,7.3-0.8c1.1-0.3,2.3-0.5,3.6-0.6c-0.1-0.4-0.7-0.8-1-1.2c-0.7-1.9,1-4.1-0.7-5.7c-1.7-1.6-3.5-3.2-5.9-2.9
					c1.1-0.7,2.7-1.9,4.5-1.4c1.4,0.8,2.5,2,3.8,3c0.5-1.7-0.7-2.9-2-3.9c-0.8-0.6-1.7-1-2.7-1.1c0.5-0.5,1.2-0.6,1.8-0.5
					c1.3,0.6,2.5,1.5,3.9,1.8c1.4,1.1,3.9,1.3,4.2,3.5c0.2,0.9,0.6,1.7,1.1,2.4c1.4,0.1,2.6,0.8,3.1,2.1c-0.1,1.6-1.4,2.8-1.6,4.4
					c-0.6,1.3-2.4,2.3-2.7,3.8l3.4,1.9c-1.3,1.9-2.6,3.8-4.1,5.6c-2.7,2.1-4.6,5.6-7.9,6.1C47.7,80.9,46.2,84.3,44.6,87.7z
					 M51.7,92.7c-0.2,0.2-0.3,0.5-0.5,0.8l-4-6c0.7-1.6,1.2-3.1,2-4.6c1.4,2.5,2.7,5,4,7.5C53,91.3,52.2,91.9,51.7,92.7z M66.5,81.2
					l-1.3,4.1l-3,4.7c-2.3,0.1-4.6-0.2-6.9-0.3c-1.6-3.5-3.2-7-4.6-10.5c1.1-0.7,2.3-1.4,3.5-2l5.5-5.6l4.4-5.9
					c0.2,0.6,1.1,1.1,1.1,1.7c-3,4.2-5.5,8.6-9.4,12.5l1.6,5.9c0.3,0.2,0.6,0.1,0.9,0l4.1-0.3c1-2.5,1.9-5,2.9-7.4l3.6-6.5
					C68.1,74.8,67.8,78.2,66.5,81.2z M79.8,77.8c0.7-0.6,1.9-0.8,2.7-0.3c0.4,0.4,0.2,0.9,0.1,1.3L79.7,81
					c-3.7,1.1-7.2,2.1-11.3,1.3l0.3-1.4c0,0.1,0.1,0.2,0.2,0.3C72.9,81.8,77.3,81.3,79.8,77.8z M78.4,75.5c1.3-0.5,2.5-1.2,4-1
					c1.3,0.4,3.2,0.6,3.4,2.3c0.3,1.5-0.5,2.8-1.4,3.8c-4.3,3.4-9.6,4.7-15.1,4.4l-1.5-0.5c0.1-0.3,0.1-0.6,0.3-0.9l5.1,0.2
					c4-1.1,8.9-1.1,11.2-5.4c0.1-0.5,0.3-0.8,0-1.3c-2.8-2.6-6,0.3-9,0.5c-1.9,0.1-3.8-0.3-5.7-0.6c-0.2-0.2,0.1-0.4,0.1-0.6
					C72.6,76.9,75.7,75.8,78.4,75.5z M78,73.6c-2.1-0.5-3.7,1.3-5.7,1.1c-0.6,0-1.4,0-2-0.2c0.2-2.2,0.8-4.3,1.2-6.5
					c1.1-0.5,2.1-1.4,2.7-2.5C74.7,68.5,75.7,71.4,78,73.6z M72.6,60.6c-0.5-0.5,0-1.4,0.2-2c0.3-0.4,1-1.6,1.4-0.7
					C74.2,59.1,73.7,60.3,72.6,60.6z M76.4,55c0-0.5-0.4-1-0.8-1.3c-1-0.2-1.8,0.7-2.3,1.5c-1.5,2.3-2.3,4.9-2.1,7.8
					c0.1,0.5,0.3,1,0.7,1.2c0.5,0.1,1-0.1,1.3-0.3c-0.6,1.1-1.7,3.3-3.4,3.2c-1-1.9-0.3-4.3,0.1-6.4c0.9-3.7,2.4-7.3,5.3-10
					c0.4-0.2,1.2-0.5,1.4,0.2C76.6,52.2,76.8,53.7,76.4,55z M76.5,49.3L74.4,48c-0.2-9.8-3.4-19.1-11.6-24.7
					c-4.1-2.7-8.3-5.2-13.7-4.7l-0.6-1l-3.6,0.1l-1-1.8c5.7-0.8,11,1,15.9,2.8c7.7,3,13.3,10.8,15.9,18.1
					C76.8,40.6,77,45.1,76.5,49.3z M91,65.9c-0.7,1.4-2.1,1.9-3.6,1.9c-3,0-5.6-2.7-6.8-5.2c-3.9-8.5-0.6-18.8-4-27.5
					c-0.8-2.8-2-5.5-3.7-8c-5.6-8.4-15-12.4-24.6-13.5c-2.3,0-4.5,0.2-7,0.6c-3.3,1-6.7,1.9-10,2.9v-3.6c2.9-0.7,5.5-1.1,8.3-1.9
					C41,8.5,40,5.3,37.7,3.1l2.2-0.3c2.4,2.1,3.2,5.5,2.7,8.5h6.2c0.9-2.5,0.7-5.8-0.3-8.2c0.5-0.2,0.7,0.1,1.3,0.1
					c0.2,0.1,0.5,0.2,0.7,0.1c0.8,2.6,1.4,5.4,1,8.5c0.3,0.3,0.8,0.2,1.2,0.3c1.2,0.3,2.5,0.4,3.8,0.7c1.7-1.7,2.9-4,2.1-6.4
					l-0.4-1.2c0.8,0.2,1.8,0.4,2.7,0.8c0.4,2.8-0.1,5.5-1.3,7.7c2,1.1,4.1,2.2,6.1,3.2c1.3-2.3,2.2-5.1,1.9-7.8l1.9,1.4
					c0.5,2.3-1.5,6-2.3,7.9l3.8,3.8c2.3-1.3,3.9-3.7,4.4-6.2c0.4,0.4,1,1,1.5,1.6c-0.9,2.4-2.4,4.6-4.6,6.3V24l3.1,4.9
					c1.5-0.3,3.2-0.9,4.2-2.4c0.5-0.8,0.9-1.6,1.1-2.5c0.4,0.9,0.7,1.9,1,2.9c-1.2,1.7-2.9,3.2-5,3.4l-0.1,0.1
					c0.5,2,1.1,3.9,1.6,5.9c1.6-0.3,3.3-1,4.9-1.9c0.3,0.7,0.2,1.6,0.4,2.4c-1.5,0.6-3.2,0.8-4.6,1.7c0.3,1.6,0.6,3.5,1,5.2
					c1.4-0.2,2.7-0.8,4.1-1.3v2.9c-0.6,0.2-1.3,0.3-1.9,0.5c-0.6,0.3-1.4,0.2-1.9,0.5c0.1,5.7,0.4,10.7,2.2,15.9
					c0.8,1.8,2.9,3.7,5,4c1.2,0.2,2.5-0.1,3.2-1.2c1.3-1.8,1.9-4.7,0.6-6.7c-0.4-0.6-1.1-1-1.7-1.2c-0.8-0.2-1.9,0.1-2.6,0.6
					c-0.9,0.9-0.7,2.5-0.5,3.6c0.4,0.6,0.9,1,1.6,1c0.6,0,1-0.7,1.4-1.1c-0.6-0.3-1.5-0.2-1.9-1c-0.2-0.5,0-1,0.5-1.3
					c0.4-0.2,1-0.2,1.5-0.1c1.1,0.8,1.2,2.5,0.9,3.8c-0.3,1.1-1.3,1.9-2.4,2c-1.3,0-2.5-0.5-3.3-1.6c-1-2.3-1.8-4.6-2.4-7.1
					c0.1-1.3-0.3-2.7,1-3.6l0.8-0.9l0.4,2.2c-0.6,1-1,2.2-0.7,3.4l3.4-0.6c0.6-1.1,0.7-2.4,1.1-3.6c0.6-0.6,1.6-0.5,2.4-0.8
					l-0.7-1.3c1.1,0.6,1.6,1.8,2.2,2.9c-0.3,0.2-0.7,0.3-1,0.7c0.2,1.4,1.6,2.3,1.8,3.6C93.5,60.7,92.3,63.5,91,65.9z"/>
			</g>
		</g>
	</g>
</g>
</svg>
