<?xml version="1.0" encoding="utf-8"?>
<!-- Generator: Adobe Illustrator 18.1.1, SVG Export Plug-In . SVG Version: 6.00 Build 0)  -->
<!DOCTYPE svg PUBLIC "-//W3C//DTD SVG 1.1//EN" "http://www.w3.org/Graphics/SVG/1.1/DTD/svg11.dtd">
<svg version="1.1" xmlns="http://www.w3.org/2000/svg" xmlns:xlink="http://www.w3.org/1999/xlink" x="0px" y="0px"
	 viewBox="0 0 100 100" enable-background="new 0 0 100 100" xml:space="preserve">
<g id="AREA_3">
	<path fill="none" stroke="#8C813B" stroke-width="2" stroke-linecap="square" stroke-miterlimit="2" d="M54.2,5.5
		c5.5,5.6,10.4,11.5,14.6,17.8c3.3,0.2,6.6,0,8.7-2.6c2.9-3,3-8.2,1.5-11.9c-0.6-1.8-1.4-3.4-2.3-5.1c5.5,2.5,9.5,8.5,9.9,14.2
		c0.3,5.7-1.9,11.3-6.9,14.6c-2,1.2-4,2.3-6.1,3.1l-0.1,0.2c0,2.9-0.9,5.5-0.8,8.3c0.1,0.2,0.2,0.4,0.4,0.6c0.8,0.2,1.6-0.1,2.3-0.4
		c-0.1,1.3-0.9,2.8-2.2,3.2c-0.1-0.1-0.2,0.1-0.3,0.2c0,1.5,0.8,2.8,1.6,4c-0.8-0.2-2-0.8-2.7-0.2c-0.1,2.1,1.2,3.8,2.6,5.4
		c1,1,2.3,1.7,3.7,1.9c-0.1,0.7-0.4,1.3-1.1,1.7c-0.6,0.3-1.3,0.4-2,0.5c3.7,5.3,3.5,12.1,3.6,18.8c0,3.3-2,6.1-4.2,8.3
		c-0.9-0.6-1.7-1.5-2.8-1.2c-1.2,0.7-1.4,2-2.2,3c-0.9-0.7-1.8-1.6-3-1.3c-1.7,0.7-3,2.3-4.7,2.8c-2.4,0.7-5.3,0.4-7.2,2.6
		c-1.2,1.2-2.1,3.8-4.2,3.4c-1.6-0.6-2.8-2.5-4.8-2c-1.1,0.3-2,1.1-2.9,1.8c-3.2-4.6-8.2-6.7-13.5-7.1c-1.8-0.3-3.5-1.7-4.2-3.4
		c-0.6-1.3-0.6-2.9-1.7-3.9c-0.5,0.1-0.9,0.6-1.2,1c-0.2,0.4-0.6,0.9-1.1,0.8c-0.9-0.7-1-2-1.4-3c-0.8-3.9-2.1-7.9-1.9-12.2
		c0.6-2.5,1.8-4.8,2.6-7.2c1.8-1.5,2.9-3.5,2.9-5.8c-0.5-1.4-1.1-3.6,0.2-4.8c1.5-1.6,3-3.5,2.4-5.9c0.3-1.4-1.2-2.1-1.7-3.1
		c-0.7-1.1-1.2-2.4-1.3-3.7v-2.8c-5.2-1.3-8.5-6.5-9.2-11.4c-1-7.2,0.8-14.1,6.2-18.8c1.7-1.3,3.4-2.2,5.2-3.1
		c-2.8,4.7-4.4,10.8-3.1,16.3c0.4,2,1.6,4.2,3.7,4.8c0.9,0.2,1.8,0.5,2.7,0.7c2.9-5.7,6.9-10.8,11.7-15.7c2.5-2.4,4.6-5.3,7.7-6.5
		C50.5,2.3,52.4,3.9,54.2,5.5L54.2,5.5z"/>
</g>
<g id="AREA_2">
	<path fill="#FFFFFF" d="M54.2,5.5c5.5,5.6,10.4,11.5,14.6,17.8c3.3,0.2,6.6,0,8.7-2.6c2.9-3,3-8.2,1.5-11.9
		c-0.6-1.8-1.4-3.4-2.3-5.1c5.5,2.5,9.5,8.5,9.9,14.2c0.3,5.7-1.9,11.3-6.9,14.6c-2,1.2-4,2.3-6.1,3.1l-0.1,0.2
		c0,2.9-0.9,5.5-0.8,8.3c0.1,0.2,0.2,0.4,0.4,0.6c0.8,0.2,1.6-0.1,2.3-0.4c-0.1,1.3-0.9,2.8-2.2,3.2c-0.1-0.1-0.2,0.1-0.3,0.2
		c0,1.5,0.8,2.8,1.6,4c-0.8-0.2-2-0.8-2.7-0.2c-0.1,2.1,1.2,3.8,2.6,5.4c1,1,2.3,1.7,3.7,1.9c-0.1,0.7-0.4,1.3-1.1,1.7
		c-0.6,0.3-1.3,0.4-2,0.5c3.7,5.3,3.5,12.1,3.6,18.8c0,3.3-2,6.1-4.2,8.3c-0.9-0.6-1.7-1.5-2.8-1.2c-1.2,0.7-1.4,2-2.2,3
		c-0.9-0.7-1.8-1.6-3-1.3c-1.7,0.7-3,2.3-4.7,2.8c-2.4,0.7-5.3,0.4-7.2,2.6c-1.2,1.2-2.1,3.8-4.2,3.4c-1.6-0.6-2.8-2.5-4.8-2
		c-1.1,0.3-2,1.1-2.9,1.8c-3.2-4.6-8.2-6.7-13.5-7.1c-1.8-0.3-3.5-1.7-4.2-3.4c-0.6-1.3-0.6-2.9-1.7-3.9c-0.5,0.1-0.9,0.6-1.2,1
		c-0.2,0.4-0.6,0.9-1.1,0.8c-0.9-0.7-1-2-1.4-3c-0.8-3.9-2.1-7.9-1.9-12.2c0.6-2.5,1.8-4.8,2.6-7.2c1.8-1.5,2.9-3.5,2.9-5.8
		c-0.5-1.4-1.1-3.6,0.2-4.8c1.5-1.6,3-3.5,2.4-5.9c0.3-1.4-1.2-2.1-1.7-3.1c-0.7-1.1-1.2-2.4-1.3-3.7v-2.8
		c-5.2-1.3-8.5-6.5-9.2-11.4c-1-7.2,0.8-14.1,6.2-18.8c1.7-1.3,3.4-2.2,5.2-3.1c-2.8,4.7-4.4,10.8-3.1,16.3c0.4,2,1.6,4.2,3.7,4.8
		c0.9,0.2,1.8,0.5,2.7,0.7c2.9-5.7,6.9-10.8,11.7-15.7c2.5-2.4,4.6-5.3,7.7-6.5C50.5,2.3,52.4,3.9,54.2,5.5L54.2,5.5z"/>
</g>
<g id="AREA_1">
	<g id="DETAIL_1_">
		<path d="M86.6,18c-0.3-5.8-4.4-11.7-9.9-14.2C77.6,5.4,78.4,7,79,8.8c1.4,3.7,1.4,8.9-1.5,11.9c-2.1,2.6-5.4,2.8-8.7,2.6
			C64.6,17,59.6,11.2,54.2,5.5c-1.8-1.6-3.7-3.2-6.2-3.1c-3,1.1-5.2,4.1-7.7,6.5c-4.8,4.9-8.8,10.1-11.7,15.7
			c-0.9-0.1-1.8-0.4-2.7-0.7c-2.1-0.5-3.3-2.8-3.7-4.8c-1.3-5.5,0.3-11.6,3.1-16.3c-1.8,0.9-3.5,1.8-5.2,3.1
			c-5.5,4.7-7.3,11.7-6.2,18.8c0.7,4.9,4,10.2,9.2,11.4V39c0.1,1.4,0.6,2.6,1.3,3.7c0.5,1,2,1.7,1.7,3.1c0.6,2.3-0.9,4.3-2.4,5.9
			c-1.3,1.2-0.7,3.4-0.2,4.8c0,2.3-1.1,4.3-2.9,5.8c-0.8,2.5-2,4.7-2.6,7.2c-0.3,4.4,1.1,8.3,1.9,12.2c0.4,1,0.5,2.2,1.4,3
			c0.5,0,0.9-0.4,1.1-0.8c0.3-0.4,0.7-0.9,1.2-1c1.1,1,1,2.6,1.7,3.9c0.7,1.7,2.4,3,4.2,3.4c5.3,0.4,10.3,2.5,13.5,7.1
			c0.9-0.7,1.8-1.5,2.9-1.8c2-0.5,3.1,1.3,4.8,2c2.2,0.3,3-2.3,4.2-3.4c1.9-2.1,4.8-1.8,7.2-2.6c1.7-0.5,3-2.1,4.7-2.8
			c1.1-0.3,2.1,0.6,3,1.3c0.7-1,0.9-2.3,2.2-3c1.1-0.3,1.9,0.6,2.8,1.2c2.2-2.2,4.1-5,4.2-8.3c0-6.8,0.1-13.5-3.6-18.8
			c0.7-0.1,1.3-0.3,2-0.5c0.6-0.4,1-1,1.1-1.7c-1.4-0.2-2.7-0.9-3.7-1.9c-1.4-1.6-2.7-3.2-2.6-5.4c0.8-0.7,1.9-0.1,2.7,0.2
			c-0.8-1.2-1.6-2.5-1.6-4c0.1,0,0.1-0.2,0.3-0.2c1.3-0.5,2.1-1.9,2.2-3.2c-0.7,0.3-1.5,0.6-2.3,0.4c-0.2-0.2-0.3-0.4-0.4-0.6
			c-0.1-2.9,0.8-5.5,0.8-8.3l0.1-0.2c2.1-0.8,4.2-1.9,6.1-3.1C84.7,29.3,86.9,23.7,86.6,18z M29.7,25.3c3-4.9,5.9-9.6,10-13.9
			c2.4-2.4,5.1-5.1,7.6-7.2c0.6-0.3,1.6-0.6,2.3-0.2c1.4,0.9,2.6,2.2,3.9,3.3c5.2,5.1,9.5,10.9,13.7,16.7c-1.4,1.7-2.5,4.1-1.6,6.2
			c0.4,1.6,1.6,2.9,2.7,4.3c-5-3.9-11.5-4-17.9-4.5c-5,0-10,0.9-14.8,1.7c-2.7,0.4-5.2,1.6-7.7,2.4v-0.2c1.8-2.2,3.5-5.2,2-8.1V25.3
			z M22,34.7c-4.5-1.9-6.7-6.6-7.1-11.2c-0.8-6.9,1.3-14.3,7.9-17.9c-1.3,4.3-3,9.2-1.8,14c0.6,2.3,1.5,5,4,5.8
			c1.2,0.5,2.5,0.3,3.6,0.7c0.4,4-1.1,7.4-4.3,9.8C23.5,35.7,22.7,35.2,22,34.7z M25.7,53c1.4-1.8,2.4-3.8,2.7-6.1
			c0.4,0.2,0.4,0.8,0.4,1.3c-0.5,2.1,0.4,4.1,0.3,6.2c-0.2,2.2-0.7,4.5-2.6,5.7c-0.7,0.3-1.6,0.4-2.4,0.4c0.7,0,1.6-0.3,2-1.1
			c0.7-1.5,0.7-3.3,0.6-5.1c-0.5,0-1.2,0.4-1.9,0.2c-0.3-0.1-0.8-0.2-0.9-0.5C24.7,54.2,25.3,53.4,25.7,53z M22.1,70.4
			c-0.5,1.3-1.2,2.6-0.8,4.1c0.6,2.1,2,4.4,1,6.8c-0.1,0.4-0.3,0.7-0.5,1.1c-2.2-2.3-1.8-5.7-2.9-8.5c-0.5-2.4,0.9-4.3,0.8-6.6
			c1.2-4.4,5.9-5.8,9.7-6.5c-0.1,1.2,0.8,2.2,1.8,2.7c0.1,0.2,0.3,0.2,0.2,0.5c-2.1,1.2-4.7,1-6.7,2.2
			C23.2,67.2,22.9,68.9,22.1,70.4z M48.1,41.8c-0.2-0.3-0.2-0.7-0.3-1.1c1.7,0.2,3-0.8,4.8-0.4c0.8,0.3,1.5,0.3,2.3,0.6
			c0.2,0.4,0.4,0.9,0.2,1.4c-1,0.9-3.1,0-3.3,1.8c-0.2,0.8-0.8,1.6-1.1,2.3c-0.7-0.1-1.4-0.6-1.7-1.3c-0.3,0.2-0.2,0.7-0.3,1
			c-0.3,0.6-0.9,0.4-1.4,0.3c-0.9-0.6-0.6-2.4-2.2-2.1c-0.9-0.4-0.5-1.9-1.7-2.1l-2.1-0.7c0-0.3-0.2-0.6,0.2-0.7
			c1.9,0.2,3.9-0.7,5.1,1.3c0.7,0.4,1.3,0.9,2,1.3c0.4-0.5,1-1,1.4-1.4C49.3,42,48.6,42.4,48.1,41.8z M57.6,48.1c0.1,0,0.1,0,0.2,0
			c0,0.2-0.1,0.6,0.1,0.8c0.3,0.3,0.7,0.5,1.1,0.3c0.2-0.1,0.4-0.3,0.5-0.5v-0.2c-0.1,0-0.5,0.2-0.6-0.1c-0.1-0.1-0.1-0.5,0.2-0.6
			c0.3,0.1,0.9-0.1,0.9,0.4c0,0.4,0.1,0.9-0.3,1.3c-0.4,0.3-0.9,0.4-1.4,0.3c-0.3-0.2-0.7-0.4-0.8-0.7
			C57.5,48.7,57.3,48.2,57.6,48.1z M56.6,48.1c-0.2,0-0.3,0.1-0.5,0.1c0.3-0.9,1.4-0.9,2-1.4l2.6-0.4c0.6,0.3,1.2,0.7,1.8,0.8
			c-0.3-0.8-1.4-0.8-2-1.2c-0.7,0.1-1.6,0.2-2.3,0.2L56,46.8c-0.1,0.6-1,1.2-0.3,1.8c0,0.4,0,0.8,0.2,1.2c2,0.5,4.4-0.3,6.2,0.5
			c1.1,0.5,2.9-0.8,3.3,0.9c1.1,2,0.4,4.4-0.5,6.2c-0.3-0.2-0.8-0.2-1.1-0.2c-0.7,2.8,0,6.3-2.9,8c-2.4-3.3-6.9-5.2-8-9.1
			c-0.3-1,0.3-1.7,0.5-2.6c0.4-0.3,0.9-0.5,1.4-0.3c1.6,1.7,4.1,2.1,6.2,1.4c0.5-0.3,1.1-0.7,1.6-1.2c0-0.1,0-0.2-0.1-0.3
			c-1.5,0.9-3.7,1.5-5.4,0.4c-0.5-0.3-1.1-0.8-1.5-1.2c0-0.3,0-0.6,0.2-0.8c-0.9-0.6-2.8-0.2-2.7-1.8c-0.4-3.4,3.6-3.8,5.6-5.4
			c1.3-0.7,3.1-1.1,4.5-0.2c1.1,0.9,2.2,1.8,2.7,3c0.1,0.9-0.5,1.4-1.1,2c-1.6-0.5-3.1-1.3-4.6-2.1C59,47.1,57.6,47.2,56.6,48.1z
			 M42.7,46.7c0.3,0.6,0.6,1.3,0.8,2c-1.5,0.1-2.4-1.7-3.9-1.7c-1.8-0.1-3.4,0.7-5,1.5c0.7-1.2,2.1-1.4,3.2-1.8
			c0.7,0.1,1.5,0.2,2.1,0.2c0-0.1-0.1-0.2-0.2-0.3c-0.8-0.1-1.7-0.2-2.5-0.2l-1.9,0.7c-0.5,0.4-0.6,1.3-1.2,1.4
			c-0.4-0.4-1-0.8-1.2-1.4c-0.1-1,0.6-1.7,1.3-2.3c1.3-1.1,2.9,0.1,4.2,0.4C39.9,45.6,41.8,45.1,42.7,46.7z M36.9,48.7
			c0.2-0.2,0.6-0.6,1-0.4c-0.2,0.1-0.5,0.2-0.6,0.5c-0.1,0.4,0.1,0.7,0.5,0.9c0.3,0.2,0.6,0,0.8-0.2c0.1-0.2,0.2-0.3,0.2-0.5
			c-0.2,0-0.4,0-0.6-0.2l0-0.6c0.4,0,1-0.1,0.9,0.5c0,0.4,0,0.8-0.2,1.1c-0.4,0.3-0.8,0.5-1.3,0.3c-0.3,0-0.6-0.4-0.7-0.7
			C36.8,49.3,36.9,49,36.9,48.7z M40.3,53.5c0.4-0.4,0.7-0.8,0.9-1.2c-1,0.1-1.8,1-2.9,0.8c-1.3-0.3-2.7-0.5-3.7-1.6
			c-0.1-0.5,0.4-0.6,0.7-0.8c1.2-0.5,2.4,0.4,3.6,0c0.8-0.1,1.1-0.8,1.8-1.2c1,0.5,2.3,0.8,3.5,0.4c0.1,0.4-0.2,1,0.2,1.2
			c0.5,0,1.2-0.2,1.6,0c0.3,0.9,0.5,1.8,0.9,2.6c0.1-1.7,0.3-3.4,1-4.8c0.5-0.8,1.2,0.2,1.7,0.5c0,4,3.4,7,1.7,11.1
			c-0.4,1-1.6,1.2-2.6,1.2c-1.7,0.1-3-2-4.6-0.7c-0.4,0-1,0.2-1.4-0.1c-0.5-1.2,0.4-2.3,1.1-3.3c-0.4-0.2-0.8,0.1-1.2,0.2
			c-2.1,1.5-2.1,4.3-4.1,5.9c-0.5,0.3-1.2,0.8-2,0.5c-3.5-2.3-6.1-6.1-5.3-10.2c0.1-0.4,0.2-0.7,0.2-1.1
			C34.4,52.7,37.2,55.2,40.3,53.5z M25,83.6c-0.8-1.6,0.4-3.4-0.1-4.9c-1.7-1.9-0.2-4.4-0.2-6.5c0.8-2.3,2.9-4.5,5-5.8
			c0.8-0.4,1.7-0.4,2.6-0.6c-0.1,1.1-0.4,2.4-1.4,3.2c-1.3,0.7-3.1,1.6-3.3,3.3c-0.5,2.3-0.9,5,0,7.2c1.2,2.3,2.2,4.7,2.8,7.3
			c0.4,0.6,1.2,1.3,1.7,1.8C28.8,88.7,26.3,86.2,25,83.6z M57,83.7c-1.5-1.2-1.2-3.6-2.6-5.1c0-0.2,0-0.3-0.2-0.5
			c-0.1,0.7-0.2,1.5-0.8,2c-0.9,0.3-0.8-1.2-1.5-1c-0.5,0.4-0.8,1.3-1.4,1.2c-0.7-0.4-1.2-1.2-1.7-1.8c0.2,2.5-2.9,3.6-3.3,5.9
			c0,0.1-0.1,0.4-0.1,0.5c-0.5-2.4,0.7-4.3,1.9-6.1c0.1-0.2,0.5-0.2,0.5-0.5c-1.3,0.3-3.1,0.8-3.6,2.5c0.1,1.7-0.7,3.2-2.2,3.9
			c-1,0.5-1.7,1.4-2.6,2c0.4-0.9,1.6-0.9,1.5-2c0.5-2.1-1.7-3.6-0.8-5.5c-0.3-0.2-0.8,0.1-1.1-0.2c-1.2-0.8-0.4-2.2-0.5-3.3
			c0.4-1.9,1.8-3.6,3.6-4.7c1.3,0.2,2.8,0.5,4.2,0.7c1.3-0.5,3.2-0.7,4.3,0.3c1.2,0.3,1.5-1.6,2.8-1c0.7,0.3,1.4,1,2.1,1.4
			c0.9,1,1.2,2.3,1.1,3.6c-0.4,0.7-1.3,1.2-0.8,2.2c0.7,1.7,0.8,3.4,1.2,5.3L57,83.7z M43.8,68.6c0.7-0.8,1.9-1.1,2.9-1.6
			c0.8-0.2,1.2,0.4,1.8,0.8c0.5-0.6,1.2-0.8,2-0.6c1,0.6,2.7,0.2,3.1,1.6l0.5,1.4c-3.6,0.2-6.7,0.4-10.2-0.4
			C43.8,69.4,43.7,69,43.8,68.6z M64.1,82.5c-0.5,1.5-1.2,3-2.1,4.3c-0.9-2.3-2-4.7-1.8-7.3c0-1.4-0.2-3.4-1.7-4.6
			c-2.1-1.9-2.5-4.7-4-6.9c-1.6-1.6-4.1-0.9-5.8-2.3c-2.4,1.1-5.1,1.5-7,3.7c-3.1,3-5.6,6.5-5.2,11c-0.1,2.5,0,4.3-0.3,6.7
			c-2.8-2.8-4.6-5.9-4.1-10.1c-0.2,0-0.5,0.2-0.8,0.4c-0.4,0.5-0.6,1.1-0.6,1.8c-0.7-2.1-0.8-4.9,0.3-6.8c2-4,5.4-7.8,9.4-10
			c1.8-1.5,4.3-1,6.2-0.3c3.3,0.6,6.3-2.2,9.4-0.2c2.8,2,4.5,5.1,6.5,7.7c-0.7,0-1.3-0.4-2-0.3C63.6,73,65.9,77.7,64.1,82.5z
			 M70.4,85.8c-0.9,0.3-0.7,1.5-1.2,2.1l-0.1-0.2c-0.5-1.9-0.1-4.2-1.2-5.9c-0.2-1.8-0.3-3.9-1.9-5.2l0-3.1c2.1,0.5,2.9,2.7,3.7,4.5
			c0.1,1.3,0.6,2.4,1.1,3.6C70.6,82.9,72.2,84.8,70.4,85.8z M72.8,75.3c-0.8,1.1-1,2.5-1.4,3.7c-0.9-3-0.1-6.8-1.1-9.9
			c-0.8-2.5-3.4-3.3-5.5-4.1v-0.1c0.8-0.4,1.8-0.7,2.3-1.6l0.3-1.1c1.6,0.6,4,1.5,4.1,3.6c-0.1,1.4,1,2.3,1,3.7
			C72,71.7,73.8,73.3,72.8,75.3z M72.3,56.4c1.1,1.1,2,2.8,3.5,3.1c-0.1,0.3-0.5,0.4-0.8,0.6c-0.6,0.2-1.2,0.2-1.8-0.1
			c-0.8-0.5-1.2-1.4-1.8-2c0.2,1.3,0.3,3,1.4,3.9c2.5,0.8,3.2,3.4,3.4,5.7c1,1.8,0.9,4,1.5,6c0,1.6,0.4,3.6-0.1,5.4L76,84.1
			l-0.5,0.7c-0.2-1.8,0.9-3.3,0.6-5.1c-0.4,0.2-0.5,0.7-0.8,1c-0.6,1.4-1.7,2.6-1.9,4.1c-0.3-3.7,1.6-6.8,1.4-10.5
			c-0.7-3.9-0.4-8.1-2.6-11.4c-1.9-2.4-3-4.9-3.1-8c-0.5-1.8-1.1-4.1,0.3-5.7c-0.6,2.1,1.5,3.4,1.7,5.4
			C71.7,55.1,71.9,55.8,72.3,56.4z M68.3,37.6c-0.4,0.9-0.8,1.8-1.1,2.7c1.4,0.6,2.9,1.1,4.3,1.7c0.3-0.3,0.4-0.8,0.6-1.2
			c-0.2,1.2-0.7,2.3-1.2,3.4C65.2,42.4,60.1,39,53.5,39c-9.3-0.2-18.8,1.5-27.2,4.5l-2.3-6c3.5-2.3,7.5-3.5,11.8-4
			c9.4-1.9,19.6-2.7,28.6,0.5c2.7,0.8,5.2,1.9,7.8,3.1l0.2,2.1C71,38.6,69.7,38.2,68.3,37.6z M72.1,39.5l-0.7,1.9
			c-1.2-0.4-2.3-0.9-3.5-1.3c0-0.7,0.5-1.3,0.7-2L72.1,39.5z M85.1,21.2c-0.7,4.8-3.9,9.2-8.3,11.7c-1.4,0.9-3,1.6-4.5,2.3
			c-2.4-1.1-5.3-3-5.9-5.8c-0.2-1.5,0.8-3.1,1.7-4.4c3.1-0.2,7.1-0.4,9.7-2.8c2.9-2.4,3.6-6.3,2.9-9.7c-0.2-1.6-0.7-3.3-0.9-4.9
			C84.2,11,85.6,16.1,85.1,21.2z"/>
		<g>
			<path d="M44.2,73.6c-0.6,0.3-1.2,0-1.7,0.5l-1.7,1.7c0.1-0.9,0.4-2.2,1.4-2.7l0.8-0.5C43.5,72.9,44.1,73.1,44.2,73.6L44.2,73.6z"
				/>
			<path d="M50.9,74.6c0.5,0.7,0.3,1.6,0.6,2.3c-0.5-0.9-1-2-2-2.8C50,73.9,50.7,74.1,50.9,74.6L50.9,74.6z"/>
			<path d="M34.7,77.7c-0.1,1.8,0.2,3.6,0.2,5.1c0.3,0.8,0.4,1.6,0.8,2.3l0,0.4h0c-1.4-2.2-1-5.2-1.3-7.9c0.6-2,1.4-3.9,2.1-5.9
				c1.4-1.4,2.5-3.2,4.1-4.2l-3.9,4.7L34.7,77.7L34.7,77.7z"/>
			<path d="M57.2,64.3c1.3,1.5,2.5,2.8,3.8,4.2l-0.5-0.2l-3.2-3.4c-1.8-0.6-3.3-2.1-5.4-1.4c-0.5,0.1-1.2,0.3-1.7,0
				c1.5,0,3-1,4.4-0.2L57.2,64.3L57.2,64.3z"/>
			<path d="M43.1,63.6L41.5,64l-4.7,3c-1.9,2.6-4.4,5-5.1,8.2c-0.3,0.5-0.3,1.2-0.9,1.5c0.5-1.7,1.3-3.4,1.9-5.2l3.5-4.8l5.3-3.2
				C42.1,63.6,42.6,63.6,43.1,63.6L43.1,63.6z"/>
			<path d="M54.1,66.2c1.6,1,3.9,1.1,4.9,2.9l3.2,4l1.5,4.1c0,1.5,0.2,3.1-0.4,4.5c0,0-0.3,0-0.3-0.1c-0.1-0.6,0.4-1.2,0.5-1.8
				L63.2,77L61,72.5l-3.1-3.8l-7.7-3.9C51.7,64.8,52.8,65.6,54.1,66.2L54.1,66.2z"/>
			<path d="M58.1,51.1l2.9-0.1l0.4-0.3l0.1,0.1l-0.6,0.5c-1.5-0.1-3.1,0.3-4.2-0.6C57.1,50.9,57.6,50.9,58.1,51.1L58.1,51.1z"/>
			<path d="M40.7,51c-0.2,0.3-0.7,0.5-1.1,0.8c-1.2,0-2.6,0.2-3.6-0.4l0.1-0.1c1.3,0.6,3.2,0.5,4.4-0.4L40.7,51L40.7,51z"/>
			<path d="M63.4,36.5c0.6,0.2,1.2,0.4,1.8,0.6c0.6,0.2,1.2,0.4,1.8,0.6l-0.6,1.9c-0.5-0.1-0.9-0.3-1.4-0.4
				c-0.8-0.2-1.5-0.4-2.3-0.7L63.4,36.5 M63.1,36l-0.8,2.7c1.4,0.5,2.9,0.9,4.4,1.4l0.8-2.7C66,37,64.6,36.3,63.1,36L63.1,36z"/>
			<path d="M31,37l0.6,2c-0.9,0.2-1.7,0.5-2.5,0.8c-0.4,0.1-0.8,0.3-1.2,0.4l-0.6-1.9c0.7-0.2,1.4-0.4,2-0.7
				C29.9,37.3,30.4,37.2,31,37 M31.2,36.5c-1.5,0.5-3,0.9-4.4,1.4l0.8,2.7c1.5-0.4,2.9-1,4.5-1.4L31.2,36.5L31.2,36.5z"/>
			<path d="M46.9,34.5L46.9,34.5l0.2,2.1c-1.1,0.1-2.1,0.2-3.2,0.4L43,37l-0.2-2c0.4,0,0.8-0.1,1.2-0.1C45,34.7,45.9,34.6,46.9,34.5
				 M47.2,34c-1.6,0.3-3.2,0.4-4.8,0.6l0.3,2.8c1.5-0.2,3.2-0.4,4.9-0.5l-0.2-2.4L47.2,34L47.2,34z"/>
			<path d="M53.9,34.6l0.1,2c-0.7,0-1.3,0.1-1.9,0.1c-0.6,0-1.2,0.1-1.9,0.1l-0.1-2c0.9-0.1,1.8-0.1,2.7-0.1
				C53.1,34.6,53.5,34.6,53.9,34.6 M54.3,34.2c-1.5,0.1-3.1,0.1-4.6,0.2l0.2,2.8c1.6,0,2.9-0.2,4.4-0.2c0.1,0,0.1,0,0.2,0L54.3,34.2
				L54.3,34.2z"/>
			<path d="M38.6,35.2l0.5,2c-1.2,0.3-2.5,0.6-3.8,0.9l-0.5-2c0.8-0.2,1.7-0.4,2.6-0.6C37.8,35.4,38.2,35.3,38.6,35.2 M38.9,34.8
				c-1.5,0.4-3,0.7-4.5,1.1l0.6,2.8c1.5-0.4,3-0.7,4.5-1.1L38.9,34.8L38.9,34.8z"/>
			<path d="M56.6,35.3l3.8,0.3l-0.1,2.1l-3.8-0.3L56.6,35.3 M56.4,34.9l-0.1,0l-0.2,2.8l4.6,0.4l0.2-2.9L56.4,34.9L56.4,34.9z"/>
			<path d="M46.2,9.8c-2.7,4.8-7.1,8.7-8.9,13.9c-1.2,2.3-1.3,5.5-4.1,6.8c-0.7,0.3-1.5,0.4-2.2,0.6c0.5-1.7,0.9-4.1,0-5.8
				c3.4-3.9,6.2-8.4,9.8-12.3c2.3-2.3,5-4.6,7.1-7C47.5,7.1,46.8,8.5,46.2,9.8L46.2,9.8z"/>
		</g>
	</g>
</g>
</svg>
