<?xml version="1.0" encoding="utf-8"?>
<!-- Generator: Adobe Illustrator 18.1.1, SVG Export Plug-In . SVG Version: 6.00 Build 0)  -->
<!DOCTYPE svg PUBLIC "-//W3C//DTD SVG 1.1//EN" "http://www.w3.org/Graphics/SVG/1.1/DTD/svg11.dtd">
<svg version="1.1" xmlns="http://www.w3.org/2000/svg" xmlns:xlink="http://www.w3.org/1999/xlink" x="0px" y="0px"
	 viewBox="0 0 100 100" enable-background="new 0 0 100 100" xml:space="preserve">
<g id="AREA_3">
	<g>
		<path fill="#004D86" d="M4,20.1c0.3,0,0.6,0,0.8,0c1.8,0.4,3.5,0.8,5.2,1.5c4,2.8,8.2,4.9,12.8,6.3c1,0.4,2,0.5,2.9,0.5
			c3.1,0,6-1.5,8.9-2.1c2.3-0.5,4.5-1.6,6.9-1.6c0.5,0,0.9,0,1.4,0.1c2.7,0.4,5,2,7.9,2c0.4,0,0.9,0,1.3-0.1
			c1.8-0.8,3.9-1.4,5.9-1.4c0.9,0,1.9,0.1,2.8,0.4c3.4,1.1,6.9,1.9,10.3,2.9c0.7,0.1,1.3,0.1,1.9,0.1c4.3,0,8-2.1,11.6-3.9
			c2.4-1.3,4.4-3.4,7.1-3.7c1.1-0.1,2.3-0.5,3.4-0.5c0.7,0,1.4,0.2,2,0.9c0.1,0.4,0.2,0.7-0.1,1.1c-2.3,1.9-5.6,1.3-7.8,3.6
			c-4,3.2-7.5,8.5-13.1,8.5c-0.2,0-0.5,0-0.8,0c-2.1-0.2-3.9-1-6.1-1c-0.4,0-0.9,0-1.3,0.1c-1.5,0.2-2.9,0.4-4.2,0.5
			c-0.1,0.4,0,0.8,0.2,1.2c0.7,0.4,1.5,0.5,2.4,0.5c0.2,0,0.4,0,0.6,0c0.5,0,0.9,0,1.4,0.1c2.5,0.3,4.1,2.8,5.8,4.6
			c1.8,1.1,4.1,1.2,6.2,1.8c-3.1,2-6.6,2.9-10.1,3.8c-0.2,0-0.5,0-0.7,0c-2.7,0-4.8-1.7-6.6-3.5c-0.3,1.4,0.1,2.5,0.2,3.8
			c-0.3,0.8-1.2,1.2-1.8,1.6c-0.4,2.2,0.7,4.8-0.6,6.5c-0.5,0.7-1.2,1.3-1.8,1.8c-0.5,3.2-1,6.3-2.7,9c1.4,1.9,2.1,4.8,0.9,7
			c-0.9,1.3-1.4,2.7-1.9,4.2c-0.2,0.3-0.5,0.8-1,0.8c-2.2-0.1-3.8-1.6-6-1.7c-1,0.4-2.1,1.1-3.3,1.1c-0.3,0-0.6,0-0.9-0.2
			c-0.9-0.9-0.9-2.2-1.5-3.3c-1.5-1.8-2.1-4.6-1-6.8l1-1.8c-1.6-2.6-2.4-5.6-2.7-8.8c-1.1-0.9-2.5-2-2.6-3.6c0-1.6,0.3-3.2,0.1-4.8
			c-0.8-0.6-2.2-0.9-1.9-2.2c0-0.6,0.3-1.3,0.3-2c-0.1-0.3,0.1-0.8-0.2-1.1c-1.9,1.7-4.1,3.4-6.6,3.4c-0.7,0-1.3-0.1-2-0.4
			c-2.9-1-6-1.6-8.5-3.5c2.5-0.9,5.6-0.4,7.3-3.1c1.2-1.8,3.2-3.4,5.4-3.4c0.1,0,0.1,0,0.2,0c0.2,0,0.5-0.1,0.8-0.1
			c0.2,0,0.4,0,0.7,0c0.8,0,1.5-0.1,1.9-0.8c0.1-0.2,0.1-0.5,0.1-0.8c-1.5-0.4-3-0.6-4.4-0.6c-2.4,0-4.9,0.4-7.3,0.9
			c-0.2,0-0.4,0-0.7,0c-3.2,0-5.8-2-8.1-4.2c-2.7-2.2-5-6-8.6-6.3c-1.3-0.3-2.9-0.1-3.6-1.4c-0.2-0.6-0.1-1.3,0.2-1.8
			C3,20.2,3.5,20.1,4,20.1 M4,19.3c-0.3,0-1.3,0-2,0.8l0,0.1l0,0.1c-0.5,0.8-0.6,1.7-0.3,2.5l0,0.1l0,0.1c0.7,1.4,2.1,1.6,3.2,1.7
			c0.3,0,0.6,0.1,0.9,0.1l0,0l0,0c2.2,0.2,3.9,2,5.7,3.8c0.8,0.8,1.6,1.7,2.5,2.4c2.4,2.3,5.2,4.3,8.6,4.3c0.2,0,0.5,0,0.7,0l0,0
			l0,0c2.6-0.5,4.9-0.9,7.2-0.9c1.2,0,2.4,0.1,3.5,0.4c-0.2,0.1-0.5,0.2-1.1,0.2l-0.3,0l-0.3,0c-0.2,0-0.5,0-0.8,0.1
			c0,0-0.1,0-0.1,0c-2.3,0-4.6,1.4-6.1,3.8c-1,1.6-2.6,1.9-4.4,2.2c-0.8,0.1-1.7,0.3-2.5,0.6L17,41.8l1.2,0.9
			c2.1,1.5,4.4,2.2,6.7,2.9c0.7,0.2,1.3,0.4,2,0.6c0.7,0.3,1.5,0.4,2.3,0.4c2.3,0,4.2-1.2,5.9-2.6c0,0.1,0,0.2-0.1,0.3
			c-0.1,0.3-0.2,0.7-0.2,1c-0.3,1.5,1,2.2,1.7,2.6c0.1,0,0.2,0.1,0.2,0.1c0,0.7,0,1.5-0.1,2.3c0,0.7-0.1,1.4-0.1,2.1
			c0,1.8,1.4,3,2.6,4c0.3,3.2,1.1,6,2.5,8.5l-0.8,1.4c-1.1,2.4-0.7,5.4,1,7.6c0.2,0.3,0.3,0.7,0.4,1.1c0.2,0.8,0.5,1.6,1.2,2.3
			l0.1,0.1l0.2,0.1c0.4,0.1,0.8,0.2,1.2,0.2c1,0,2-0.4,2.8-0.8c0.2-0.1,0.4-0.2,0.7-0.3c0.9,0.1,1.7,0.4,2.6,0.8
			c1,0.4,2,0.9,3.3,0.9l0,0l0,0c0.8-0.1,1.2-0.7,1.5-1.1l0.1-0.1l0.1-0.1l0-0.1l0-0.1c0.5-1.4,0.9-2.7,1.7-3.8l0,0l0,0
			c1.4-2.5,0.6-5.5-0.6-7.4c1.5-2.6,2.1-5.5,2.5-8.5c0.6-0.5,1.2-1.1,1.7-1.8c1-1.3,0.9-2.9,0.7-4.4c-0.1-0.8-0.1-1.5,0-2.1
			c0.7-0.4,1.6-0.8,1.9-1.8l0.1-0.2l0-0.2c0-0.4-0.1-0.7-0.2-1.1c0-0.3-0.1-0.6-0.1-0.9c1.6,1.4,3.6,2.5,5.9,2.5c0.3,0,0.5,0,0.8,0
			l0.1,0l0.1,0l0.5-0.1c3.4-0.9,6.8-1.8,9.8-3.8l1.5-1l-1.7-0.5c-0.7-0.2-1.4-0.3-2.1-0.5c-1.4-0.3-2.7-0.5-3.8-1.2
			c-0.3-0.3-0.6-0.7-0.9-1.1c-1.4-1.6-2.9-3.4-5.3-3.7c-0.5-0.1-0.9-0.1-1.5-0.1l-0.3,0l-0.3,0c-0.6,0-1.1,0-1.6-0.2
			c1.1-0.1,2.3-0.3,3.3-0.4c0.4-0.1,0.8-0.1,1.2-0.1c1.2,0,2.3,0.2,3.5,0.5c0.8,0.2,1.6,0.4,2.5,0.5c0.3,0,0.6,0,0.8,0
			c4.5,0,7.5-3,10.5-5.9c1-1,2-2,3-2.8l0,0l0,0c1-1.1,2.3-1.4,3.7-1.8c1.4-0.4,2.7-0.7,3.9-1.8l0.1-0.1l0.1-0.1
			c0.5-0.7,0.3-1.5,0.2-1.8l-0.1-0.2L97.8,21c-0.7-0.8-1.5-1.2-2.6-1.2c-0.7,0-1.3,0.1-2,0.3c-0.5,0.1-1,0.2-1.5,0.3l0,0l0,0
			c-2,0.3-3.7,1.4-5.3,2.5c-0.7,0.5-1.4,1-2.1,1.4c-0.3,0.2-0.7,0.3-1,0.5c-3.2,1.6-6.5,3.3-10.2,3.3c-0.6,0-1.2,0-1.7-0.1
			c-1.1-0.3-2.3-0.6-3.5-0.9c-2.2-0.6-4.6-1.2-6.8-1.9c-0.9-0.3-2-0.5-3-0.5c-1.9,0-4,0.5-6.2,1.4c-0.4,0.1-0.7,0.1-1.1,0.1
			c-1.5,0-2.9-0.5-4.3-1c-1.1-0.4-2.2-0.8-3.4-1c-0.5-0.1-1-0.1-1.5-0.1c-1.7,0-3.2,0.5-4.6,0.9c-0.8,0.3-1.6,0.5-2.5,0.7
			c-1.1,0.2-2.2,0.6-3.3,0.9c-1.8,0.6-3.6,1.1-5.5,1.1c-0.9,0-1.8-0.1-2.7-0.5c-4.5-1.5-8.7-3.6-12.6-6.2l-0.1,0l-0.1,0
			c-1.8-0.8-3.6-1.2-5.3-1.6l-0.1,0l-0.1,0l-0.2,0C4.5,19.3,4.3,19.3,4,19.3L4,19.3z"/>
	</g>
</g>
<g id="AREA_2">
	<path id="FILL_ONE" fill="#FFFFFF" d="M10,21.7c4,2.8,8.2,4.9,12.8,6.3c4.2,1.5,8-0.8,11.8-1.6c2.7-0.5,5.3-2,8.3-1.5
		c3.1,0.5,5.7,2.5,9.2,1.9c2.6-1.1,5.8-2,8.7-1c3.4,1.1,6.9,1.9,10.3,2.9c5.1,0.8,9.3-1.7,13.5-3.8c2.4-1.3,4.4-3.4,7.1-3.7
		c1.9-0.1,3.9-1.4,5.4,0.3c0.1,0.4,0.2,0.7-0.1,1.1c-2.3,1.9-5.6,1.3-7.8,3.6c-4.2,3.4-7.8,9-13.8,8.5c-2.5-0.3-4.7-1.3-7.4-0.9
		c-1.5,0.2-2.9,0.4-4.2,0.5c-0.1,0.4,0,0.8,0.2,1.2c1.2,0.8,2.9,0.3,4.3,0.6c2.5,0.3,4.1,2.8,5.8,4.6c1.8,1.1,4.1,1.2,6.2,1.8
		c-3.1,2-6.6,2.9-10.1,3.8c-3,0.3-5.4-1.5-7.3-3.4c-0.3,1.4,0.1,2.5,0.2,3.8c-0.3,0.8-1.2,1.2-1.8,1.6c-0.4,2.2,0.7,4.8-0.6,6.5
		c-0.5,0.7-1.2,1.3-1.8,1.8c-0.5,3.2-1,6.3-2.7,9c1.4,1.9,2.1,4.8,0.9,7c-0.9,1.3-1.4,2.7-1.9,4.2c-0.2,0.3-0.5,0.8-1,0.8
		c-2.2-0.1-3.8-1.6-6-1.7c-1.3,0.5-2.7,1.5-4.2,1c-0.9-0.9-0.9-2.2-1.5-3.3c-1.5-1.8-2.1-4.6-1-6.8l1-1.8c-1.6-2.6-2.4-5.6-2.7-8.8
		c-1.1-0.9-2.5-2-2.6-3.6c0-1.6,0.3-3.2,0.1-4.8c-0.8-0.6-2.2-0.9-1.9-2.2c0-0.6,0.3-1.3,0.3-2c-0.1-0.3,0.1-0.8-0.2-1.1
		c-2.3,2.2-5.2,4.3-8.6,3.1c-2.9-1-6-1.6-8.5-3.5c2.5-0.9,5.6-0.4,7.3-3.1c1.2-1.9,3.3-3.5,5.6-3.4c1.2-0.2,2.7,0.3,3.4-0.8
		c0.1-0.2,0.1-0.5,0.1-0.8c-3.9-1.1-7.8-0.4-11.7,0.3c-3.6,0.3-6.3-1.9-8.8-4.1c-2.7-2.2-5-6-8.6-6.3c-1.3-0.3-2.9-0.1-3.6-1.4
		c-0.2-0.6-0.1-1.3,0.2-1.8c0.5-0.6,1.5-0.5,2.2-0.4C6.6,20.5,8.4,20.9,10,21.7L10,21.7z"/>
</g>
<g id="AREA_1">
	<path d="M97.2,21.6c-1.5-1.7-3.5-0.4-5.4-0.3c-2.7,0.4-4.8,2.5-7.1,3.7c-4.1,2.1-8.4,4.5-13.5,3.8c-3.4-1-7-1.8-10.3-2.9
		c-2.9-1-6.2-0.2-8.7,1c-3.5,0.6-6.1-1.4-9.2-1.9c-3-0.6-5.6,0.9-8.3,1.5c-3.8,0.8-7.6,3.1-11.8,1.6c-4.5-1.5-8.8-3.6-12.8-6.3
		c-1.6-0.7-3.4-1.2-5.2-1.5c-0.7,0-1.7-0.2-2.2,0.4c-0.3,0.5-0.4,1.2-0.2,1.8c0.7,1.3,2.3,1.1,3.6,1.4c3.6,0.3,5.8,4.1,8.6,6.3
		c2.4,2.2,5.2,4.4,8.8,4.1c3.9-0.8,7.8-1.5,11.7-0.3c0,0.3,0,0.5-0.1,0.8c-0.7,1.2-2.2,0.6-3.4,0.8c-2.4-0.1-4.4,1.5-5.6,3.4
		c-1.7,2.7-4.7,2.2-7.3,3.1c2.5,1.8,5.6,2.5,8.5,3.5c3.4,1.2,6.3-0.9,8.6-3.1c0.3,0.3,0.1,0.7,0.2,1.1c0,0.7-0.3,1.4-0.3,2
		c-0.3,1.3,1.1,1.6,1.9,2.2c0.2,1.6-0.1,3.2-0.1,4.8c0,1.5,1.4,2.6,2.6,3.6c0.2,3.2,1.1,6.2,2.7,8.8l-1,1.8c-1.1,2.2-0.5,5,1,6.8
		c0.6,1.1,0.6,2.4,1.5,3.3c1.5,0.5,2.9-0.4,4.2-1c2.2,0.1,3.8,1.6,6,1.7c0.5,0,0.7-0.5,1-0.8c0.5-1.5,1-2.9,1.9-4.2
		c1.3-2.2,0.5-5.1-0.9-7c1.7-2.7,2.3-5.8,2.7-9c0.7-0.5,1.3-1.2,1.8-1.8c1.3-1.7,0.2-4.3,0.6-6.5c0.7-0.4,1.6-0.7,1.8-1.6
		c-0.1-1.3-0.5-2.4-0.2-3.8c2,1.9,4.3,3.8,7.3,3.4c3.5-0.9,7.1-1.8,10.1-3.8c-2.1-0.6-4.3-0.6-6.2-1.8c-1.7-1.8-3.3-4.3-5.8-4.6
		c-1.4-0.3-3.1,0.2-4.3-0.6c-0.2-0.3-0.4-0.8-0.2-1.2c1.3-0.1,2.7-0.3,4.2-0.5c2.7-0.4,4.9,0.6,7.4,0.9c6.1,0.5,9.6-5.1,13.8-8.5
		c2.1-2.3,5.5-1.7,7.8-3.6C97.4,22.3,97.4,21.9,97.2,21.6z M23.4,33.4c-5.5-0.3-9.4-5-13.1-8.7c-2.2-1.6-5.1-1.4-7.3-2.9v-0.1
		c2.7-1.4,5.5,0.2,7.9,1.2c1.5,0.8,2.9,2.1,4.3,3c2.2,1,4.4,1.8,6.6,2.7c4.2,1.1,8.7,0.1,13-1.2c3.1-1.2,7-2.5,10.3-0.9
		c-1.2,3.8-5.3,5.4-8.4,6.9C32.5,32.1,27.5,32.7,23.4,33.4z M36.3,41.4c-3.6,3.1-9.4,2.6-13.5,1c1.4-0.5,3.2-0.8,4-2.4
		c1.6-3.6,5.9-2.5,8.9-3.6C36.3,37.9,37.3,39.8,36.3,41.4z M36.9,46.2c0.5,0.1,1.3,0.3,1.9,0c0.4-0.2,0.5-0.6,0.7-0.9
		c0.6,0.2,0.5,0.9,0.2,1.4C39.7,47,39.2,47,39,47.2C38.1,47.4,37.5,46.8,36.9,46.2z M39.1,52.4l-0.4-3.1c1.1-0.4,2.1-1,3-1.8
		c1.9,1.9,1.9,4.6,3.1,6.9c0.9,1.9,1.2,4,1.3,6.3c-0.7-1.7-1.4-3.7-3.2-4.9C41.5,55,39.6,54.2,39.1,52.4z M45.5,73.5
		c-1.3-0.6-2.1-1.9-2.5-3.2c-0.1-0.6,0.1-1.3,0.4-1.7c0.6-0.9,1.7-1,2.6-1.2c0.7,2,1.3,4,1.9,6C47.2,73.6,46.3,73.9,45.5,73.5z
		 M49.2,65.1c0.1-7.1-0.2-14.3-2.6-20.4c-1.7-3-5.3-2.2-8.1-3.1v-0.1c2.1-0.8,4.4-1.4,6.7-1c2.9,0.4,6.5,2,9.5,0.3
		c2.1-1.3,5-1.1,7,0.1v0.1c-3.4-0.2-7.2,0.3-9.5,3.4c-1.6,2-1.4,4.8-1.7,7.4c-0.2,4.4-0.1,9,0.1,13.4H49.2z M53.9,73.3
		c-0.8,0.6-2,0.5-2.9,0.2c0.5-1.9,1.2-4,1.8-6c1.1,0.1,2.4,0.5,2.9,1.7C56.3,70.9,55.2,72.2,53.9,73.3z M59.5,54.2
		c-1.5,1.2-3.7,1.5-4.5,3.6c-0.6,0.9-0.8,1.9-1.3,2.9c-0.2-4.3,2.2-7.7,3.2-11.5l1.1-1.7c0.9,0.8,1.9,1.4,3,1.9
		C60.6,50.9,61,52.9,59.5,54.2z M60.9,47.5c-0.5-0.1-1-0.3-1.3-0.8c-0.1-0.2-0.2-0.4-0.2-0.7l0.5-0.5c0.3,0.5,0.7,1,1.3,1
		c0.5,0,1-0.1,1.4-0.2C62.1,46.9,61.6,47.4,60.9,47.5z M71.3,38.8c1.5,1.2,2.2,3.6,4.3,3.9c0.5,0.1,0.9,0.3,1.4,0.3v0.1
		c-4,1.5-9.7,2.1-13.3-0.7c-1.6-1.6-0.3-3.6,0.3-5.3C66.5,37.7,69,37.7,71.3,38.8z M88.8,25.2c-4.5,4.4-9.1,9.9-15.5,8.4
		c-3.4-0.7-7.5-0.6-10.9,0.3c-3.2-1.3-7.1-3.1-8.4-6.8c1.8-0.7,4.1-1.2,6.1-0.6c5.2,1.9,11.2,3.7,17,2.6c2.4-1,4.8-1.8,7.1-2.9
		c2.8-2.4,5.9-4.1,9.5-4.7c0.9-0.1,1.7,0.2,2.4,0.6C93.9,23.7,91,23.5,88.8,25.2z"/>
</g>
</svg>
