<?xml version="1.0" encoding="utf-8"?>
<!-- Generator: Adobe Illustrator 18.1.1, SVG Export Plug-In . SVG Version: 6.00 Build 0)  -->
<!DOCTYPE svg PUBLIC "-//W3C//DTD SVG 1.1//EN" "http://www.w3.org/Graphics/SVG/1.1/DTD/svg11.dtd">
<svg version="1.1" xmlns="http://www.w3.org/2000/svg" xmlns:xlink="http://www.w3.org/1999/xlink" x="0px" y="0px"
	 viewBox="0 0 100 100" enable-background="new 0 0 100 100" xml:space="preserve">
<g id="AREA_3">
	<g>
		<path fill="#BF2A43" d="M60.4,6.9c1.1,0,2.2,0.1,3.4,0.5C65.5,8,67.2,8.6,68.9,9c2.8,0.6,4.6,2.7,7,4.3c1.3,1.1,2.1,2.6,2.9,3.9
			c0.6,0.1,1,0.6,1.5,1.1c1.4,1.3,3.3,1.4,5,2l1.6,0.2c0.4,1.5-1.1,1.9-1.7,3c-0.5,0.6-1.1,1.3-1.5,2c0.6-0.1,1-0.7,1.5-1
			c1.1-0.4,2.1-1.1,3.2-1.5c0.5,0,0.9,0.2,1.4,0.4v0.1c-2,0.5-3.3,2.2-4.7,3.8c0.3,0.1,0.5,0.1,0.8,0.1c1.2,0,2.4-0.5,3.6-0.5
			c0.3,0,0.6,0,0.8,0.1c0.4,0.2,1,0.2,1.4,0.4c-1.6,0.8-3.7,0.7-4.7,2.7c0.6,0.2,0.8,0.8,0.6,1.3c-0.1,0.2,0,0.5,0.3,0.6
			c0.6,0.1,1.3-0.1,1.8,0.5c0.3,0.7-0.1,1.3-0.4,1.7c-0.1,0-0.1,0.1-0.1,0.1c2.3,0.3,4.6,0.7,6.5,1.8c-0.6-0.3-1.2-0.4-1.9-0.4
			c-1.3,0-2.6,0.5-3.5,1.3c-0.1,0.2,0.1,0.2,0.2,0.4c1.3,0.3,2.6,0.7,3.6,1.6C94,39.1,93.7,39,93.5,39c-0.4,0-0.7,0.1-1.1,0.3
			c0.5,0.3,0.4,0.9,0.5,1.4c1.7,0.4,3.2,1.3,4.8,2c-0.7,1.2-2.4,0.5-3.3,0.9c1.5,1.1,1.4,3.1,1.8,4.8v1.7c-1,3.2-1.7,6.7-3.1,9.8
			c-0.5,2.4-1.2,5-3.6,6.4c-1.8,1.9-4.5,2-6.2,4.1c-1.4,1.6-2.9,3.9-5.2,4.1c-0.3,0-0.5,0.1-0.8,0.1c-1.4,0-2.6-0.5-3.7-1l-0.1,0.1
			c0.4,0.4,0.7,1,0.6,1.6c-0.2,0.9-0.7,1.6-1.2,2.4c0.5,1.7,1.3,3.3,2.3,4.8c0.1,0.2,0.1,0.7-0.2,0.7c0,0-0.1,0-0.1,0
			c-0.4-0.1-0.9-0.2-1.3-0.3c-0.1,1.7,0.5,3.8-0.4,5.3c-0.5,0.5-1.4,0.2-1.8,0.9c-0.6,1-1,2.6-2.4,2.7c-0.1,0-0.3,0-0.5,0
			c-0.7,0-1.3-0.2-2-0.2c-0.5,0-0.9,0.1-1.3,0.5c-0.3,0.1-0.6,0.2-0.9,0.2c-0.2,0-0.3,0-0.5,0c-0.2,0-0.4,0-0.6,0.1
			c-0.8,0.7-1.8,1.1-2.9,1.1c-0.1,0-0.3,0-0.4,0c-0.5,0.1-0.8,0.8-1.4,0.8c-0.1,0-0.2,0-0.3-0.1c-0.4-0.2-0.8-0.9-1.3-0.9
			c-0.1,0-0.1,0-0.2,0c-0.7,0.3-1.4,0.8-2.2,0.8c-0.2,0-0.4,0-0.6-0.1c-1-0.7-1.2-2.9-2.4-2.9c-0.3,0-0.6,0.1-0.9,0.3
			c0,0-0.1,0-0.1,0c-0.2,0-0.4-0.2-0.4-0.4c-0.2-1,0.1-2.5-0.7-3.3c0,0,0,0,0,0c-0.5,0-0.8,1.1-1.2,1.1c-0.1,0-0.3-0.1-0.5-0.5
			c-0.6-1.1,0.1-2.4-0.1-3.6c-0.2-0.2-0.4-0.3-0.7-0.3c-0.5,0-1,0.3-1.5,0.3c-0.1,0-0.2,0-0.3,0c-0.3-0.5-0.3-1.1-0.4-1.6
			c-0.5-1-0.8-2.2-1.1-3.3c-0.5-0.3-1.2-0.4-1.8-0.5c-0.1,0-0.1,0-0.2,0c-0.9,0-1.4,1-2.3,1c-0.1,0-0.3,0-0.4-0.1
			c-1.6-0.9-3.7-0.7-5.4-1.4c-0.1,0-0.3-0.1-0.4-0.1c-0.6,0-1.1,0.4-1.7,0.8c-0.3-0.9-0.4-1.9-1.1-2.6c-0.8,0-1.3,0.7-1.9,1
			c-0.3,0.2-0.6,0.2-1,0.3c0-0.4,0.2-1.1-0.1-1.5c-0.5-0.5-1.2-0.7-1.8-0.7c-0.2,0-0.4,0-0.6,0c-0.5,0.1-1,0.5-1.4,0.8
			c-0.4-0.6-0.8-1.5-1.6-1.8c-0.6-0.4-1.4-0.3-2.2-0.5c-0.9-1.1-0.7-3-2.3-3.5c-0.8,0.3-1.6,0.9-2.5,0.9c-0.3,0-0.7-0.1-1-0.4
			c-1-0.9-1.7-2.1-2.6-3.1c-0.7-1.2,0.1-3.1-0.6-4.3c0-2.4-2.3-4.6-0.7-6.9c0.4-0.4,0.7-0.8,1-1.3c-0.1,0-0.2,0-0.2,0
			c-0.6,0-1,0.5-1.5,0.7c-1-2.3,0.5-4.7,1.6-6.7c0.5-1.1,0.7-2.4,1-3.6c0.6-1.7,1.2-3.5,2.9-4.6l-0.3-0.1c-1.3-1.4-2.5-3-3.9-4.2
			c-0.6-0.4-0.2-1.3-0.4-1.9l-0.9-1.2c-0.3-0.8-0.4-1.6-1.2-2.1c-1.5-1.2-3.6-1.2-4.7-3.2l-0.6-0.9c0.5-0.2,1.1-0.4,1.7-0.5
			c1.2-0.1,2.1-0.5,3.3-0.8c2.2,0,4.3-0.5,6.2-1.2c0.8-1,2-1.2,3.2-1.4c1.3-1,2.6-1.9,4.1-2.5c0.4-0.4,0.8-0.8,1-1.3
			c-0.6-0.3-1.3-0.6-1.5-1.3c-0.1-0.4,0.1-0.8,0.4-1c0.1,0,0.3-0.1,0.4-0.1c0.8,0,1.6,0.4,2.3,0.4c0.4,0,0.7-0.1,1-0.4
			c1.9-1.5,3.7-3.1,5.4-4.7c1.3-0.8,2.8-1,4.2-1.6c3.9-1.2,7.7-2.7,12-2.7c0,0,0.1,0,0.1,0c2-0.4,4-0.6,6.1-0.9
			C55.2,7.7,57.8,6.9,60.4,6.9 M60.4,5.9L60.4,5.9c-2.4,0-4.8,0.6-7.1,1.3l-0.8,0.2c-0.7,0.1-1.4,0.2-2,0.3c-1.3,0.2-2.7,0.3-4,0.6
			c-3.9,0-7.3,1.1-10.6,2.2c-0.6,0.2-1.1,0.4-1.7,0.5l0,0l0,0c-0.4,0.2-0.9,0.3-1.4,0.4c-1,0.3-2.1,0.6-3,1.2l-0.1,0.1l-0.1,0.1
			c-1.6,1.5-3.3,3-5.3,4.6l0,0l0,0c-0.1,0.1-0.2,0.1-0.3,0.1c-0.2,0-0.5-0.1-0.8-0.2c-0.4-0.1-0.9-0.3-1.4-0.3c-0.2,0-0.5,0-0.7,0.1
			l-0.2,0l-0.2,0.1c-0.6,0.5-0.9,1.2-0.8,2l0,0l0,0c0.2,0.7,0.6,1.1,1,1.4c0,0,0,0-0.1,0.1c-1.3,0.5-2.6,1.3-4,2.4
			c-1.1,0.2-2.4,0.5-3.3,1.5c-2,0.7-3.8,1-5.6,1H7.7l-0.1,0c-0.4,0.1-0.9,0.2-1.3,0.3c-0.6,0.2-1.2,0.4-1.9,0.4l0,0l0,0
			c-0.6,0.1-1.4,0.2-2,0.6l-1,0.5l0.6,1l0.5,0.8c0.9,1.6,2.2,2.1,3.3,2.6c0.6,0.3,1.2,0.5,1.6,0.8c0.4,0.3,0.5,0.6,0.7,1.2
			c0,0.2,0.1,0.3,0.2,0.5l0,0.1L8.4,35l0.7,1c0,0.1,0,0.2,0,0.3c0,0.5-0.1,1.4,0.7,2c0.9,0.7,1.6,1.6,2.4,2.5c0.3,0.3,0.6,0.7,0.9,1
			c-1.1,1.1-1.7,2.6-2.1,3.9L10.9,46l0,0.1l0,0.1l0,0.1c-0.2,1.1-0.5,2.3-0.9,3.3l-0.1,0.2c-1.2,2.1-2.6,4.6-1.5,7.3l0.3,0.7
			c-0.5,1.5,0,3,0.5,4.2c0.3,0.8,0.6,1.6,0.6,2.3l0,0.3l0.1,0.2c0.2,0.4,0.2,1,0.2,1.7c0,0.8,0,1.8,0.4,2.6l0.1,0.1l0.1,0.1
			c0.4,0.4,0.7,0.8,1.1,1.3c0.5,0.6,1,1.3,1.6,1.8c0.5,0.4,1.1,0.6,1.7,0.6c0.8,0,1.6-0.3,2.2-0.7c0.1,0,0.2-0.1,0.3-0.1
			c0.3,0.2,0.5,0.6,0.7,1.3c0.2,0.6,0.4,1.2,0.9,1.7l0.2,0.3l0.3,0.1c0.3,0.1,0.6,0.1,0.9,0.1c0.4,0,0.8,0.1,1,0.2l0.1,0l0.1,0
			c0.3,0.1,0.6,0.6,0.9,1c0.1,0.2,0.2,0.3,0.3,0.4l0.5,0.8l0.8-0.5c0.2-0.1,0.3-0.2,0.5-0.3c0.2-0.2,0.4-0.3,0.6-0.4
			c0.1,0,0.3,0,0.4,0c0.5,0,0.8,0.1,1.1,0.3c0,0.1,0,0.3,0,0.4c0,0.1,0,0.2,0,0.3l-0.1,1.5l1.4-0.4c0.1,0,0.2,0,0.2-0.1
			c0.3-0.1,0.6-0.2,0.9-0.3c0.3-0.1,0.6-0.3,0.8-0.5C29.9,78.1,30,78,30,78c0.1,0.3,0.2,0.6,0.3,0.9c0.1,0.3,0.2,0.6,0.3,0.9
			l0.4,1.1l1-0.6c0.1-0.1,0.2-0.1,0.3-0.2c0.3-0.2,0.6-0.4,0.8-0.4c0,0,0,0,0.1,0c0.8,0.3,1.7,0.5,2.6,0.6c1,0.2,1.9,0.3,2.6,0.7
			l0.1,0l0.1,0c0.3,0.1,0.5,0.1,0.8,0.1c0.8,0,1.3-0.4,1.7-0.7c0.3-0.2,0.4-0.3,0.6-0.3c0,0,0,0,0.1,0l0.2,0
			c0.3,0.1,0.7,0.1,0.9,0.2c0.3,1,0.5,2,1,2.9c0,0.1,0.1,0.3,0.1,0.4c0.1,0.4,0.1,0.9,0.4,1.4l0.2,0.4l0.4,0.1
			c0.2,0,0.4,0.1,0.6,0.1c0.4,0,0.8-0.1,1.1-0.2c0.1,0,0.1,0,0.2-0.1c0,0.2,0,0.4-0.1,0.7c-0.1,0.8-0.2,1.7,0.3,2.6
			c0.1,0.3,0.6,1.1,1.4,1.1c0.3,0,0.6-0.1,0.8-0.3c0,0.1,0,0.3,0,0.4c0,0.4,0,0.9,0.1,1.3l0,0l0,0c0.2,0.6,0.8,1.1,1.4,1.1
			c0.1,0,0.3,0,0.4-0.1l0.1,0l0.1-0.1c0.3-0.2,0.4-0.2,0.4-0.2c0.2,0.1,0.5,0.7,0.6,1c0.3,0.6,0.6,1.3,1.2,1.7l0.1,0.1l0.2,0
			c0.3,0.1,0.6,0.1,0.8,0.1c0.9,0,1.6-0.3,2.2-0.7c0,0,0.1,0,0.1-0.1c0,0,0.1,0.1,0.1,0.1c0.2,0.2,0.4,0.4,0.7,0.6l0.1,0l0.1,0
			c0.2,0.1,0.4,0.1,0.6,0.1c0.7,0,1.1-0.4,1.4-0.7c0,0,0.1-0.1,0.1-0.1c0.1,0,0.1,0,0.2,0c1.3,0,2.4-0.4,3.3-1.1c0.1,0,0.1,0,0.2,0
			l0.2,0l0.2,0c0.4,0,0.9,0,1.4-0.3l0.2-0.1l0.1-0.1c0.1-0.1,0.3-0.2,0.6-0.2c0.2,0,0.5,0,0.8,0.1c0.4,0.1,0.7,0.1,1.2,0.1
			c0.2,0,0.4,0,0.6,0c1.6-0.2,2.3-1.6,2.8-2.6c0.1-0.2,0.2-0.4,0.3-0.5c0.1,0,0.2-0.1,0.3-0.1c0.4-0.1,1-0.2,1.4-0.7l0.1-0.1
			l0.1-0.1c0.8-1.3,0.6-2.7,0.6-4.1c0-0.2,0-0.3,0-0.5c0,0,0,0,0,0l0,0l0,0c0.1,0,0.2,0,0.3,0c0.4,0,0.8-0.2,1-0.5
			c0.3-0.5,0.3-1.1,0.1-1.5l0-0.1l0-0.1c-0.8-1.3-1.6-2.7-2-4.2c0-0.1,0.1-0.2,0.1-0.2c0.4-0.6,0.8-1.3,0.9-2.1c0-0.1,0-0.1,0-0.2
			c0.7,0.2,1.4,0.4,2.3,0.4c0.3,0,0.6,0,1-0.1c2.3-0.2,3.7-2,5.1-3.6c0.2-0.3,0.5-0.6,0.7-0.8l0,0l0,0c0.7-0.9,1.8-1.4,2.9-1.9
			c1.1-0.5,2.2-1,3.1-2c2.6-1.7,3.4-4.4,3.9-6.9c0.9-2.1,1.5-4.3,2.1-6.5c0.3-1.1,0.6-2.2,0.9-3.3l0-0.1v-0.2v-1.7v-0.1l0-0.1
			c-0.1-0.3-0.1-0.7-0.2-1.1c-0.1-0.8-0.3-1.7-0.7-2.6c0.8-0.1,1.7-0.3,2.2-1.2l0.6-0.9l-1-0.5c-0.2-0.1-0.5-0.2-0.7-0.4
			c-1.1-0.6-2.3-1.1-3.6-1.6l1-1.5c-0.7-0.7-1.5-1.1-2.3-1.4c0.4-0.1,0.9-0.2,1.3-0.2c0.6,0,1.1,0.1,1.5,0.3l0.9-1.8
			c-1.7-1-3.7-1.4-5.5-1.7c0.2-0.6,0-1.2-0.1-1.5l0-0.1L90.6,32c-0.5-0.7-1.2-0.8-1.8-0.8c0-0.3-0.1-0.6-0.2-0.9
			c0-0.1-0.1-0.2-0.2-0.3c0.5-0.5,1.1-0.7,2-0.9c0.6-0.2,1.2-0.4,1.7-0.6l0.1-1.7c-0.4-0.2-0.7-0.3-1-0.4c-0.2,0-0.3-0.1-0.4-0.1
			l-0.1,0l-0.1,0c-0.3-0.1-0.7-0.1-1.1-0.1c-0.7,0-1.3,0.1-2,0.3c0,0,0,0-0.1,0c0.8-0.8,1.6-1.4,2.6-1.7l0.7-0.2v-0.8v-0.1v-0.7
			l-0.6-0.3l-0.1,0c-0.5-0.2-1-0.4-1.7-0.5l-0.2,0l-0.2,0.1c-0.2,0.1-0.3,0.1-0.5,0.2c0.3-0.5,0.5-1.1,0.3-2l-0.2-0.6L87,19.6
			l-1.5-0.2c-0.6-0.2-1.1-0.4-1.7-0.5c-1.1-0.3-2.1-0.6-2.8-1.3c-0.4-0.4-0.9-0.9-1.5-1.2l0-0.1c-0.8-1.3-1.6-2.7-2.9-3.8l0,0l0,0
			c-0.6-0.4-1.3-0.9-1.9-1.4C73,9.8,71.4,8.5,69.2,8c-1.2-0.2-2.4-0.6-3.6-1c-0.5-0.2-1-0.3-1.5-0.5C62.9,6.1,61.7,5.9,60.4,5.9
			L60.4,5.9z"/>
	</g>
</g>
<g id="AREA_2">
	<path fill="#FFFFFF" d="M68.9,9c2.8,0.6,4.6,2.7,7,4.3c1.3,1.1,2.1,2.6,2.9,3.9c0.6,0.1,1,0.6,1.5,1.1c1.4,1.3,3.3,1.4,5,2l1.6,0.2
		c0.4,1.5-1.1,1.9-1.7,3c-0.5,0.6-1.1,1.3-1.5,2c0.6-0.1,1-0.7,1.5-1c1.1-0.4,2.1-1.1,3.2-1.5c0.5,0,0.9,0.2,1.4,0.4v0.1
		c-2,0.5-3.3,2.2-4.7,3.8c1.8,0.4,3.6-0.7,5.3-0.3c0.4,0.2,1,0.2,1.4,0.4c-1.6,0.8-3.7,0.7-4.7,2.7c0.6,0.2,0.8,0.8,0.6,1.3
		c-0.1,0.2,0,0.5,0.3,0.6c0.6,0.1,1.3-0.1,1.8,0.5c0.3,0.7-0.1,1.3-0.4,1.7c-0.1,0-0.1,0.1-0.1,0.1c2.3,0.3,4.6,0.7,6.5,1.8
		c-1.6-0.8-4-0.4-5.4,0.9c-0.1,0.2,0.1,0.2,0.2,0.4c1.3,0.3,2.6,0.7,3.6,1.6c-0.5-0.2-1.2-0.2-1.7,0.2c0.5,0.3,0.4,0.9,0.5,1.4
		c1.7,0.4,3.2,1.3,4.8,2c-0.7,1.2-2.4,0.5-3.3,0.9c1.5,1.1,1.4,3.1,1.8,4.8v1.7c-1,3.2-1.7,6.7-3.1,9.8c-0.5,2.4-1.2,5-3.6,6.4
		c-1.8,1.9-4.5,2-6.2,4.1c-1.4,1.6-2.9,3.9-5.2,4.1c-1.7,0.2-3.2-0.3-4.5-1l-0.1,0.1c0.4,0.4,0.7,1,0.6,1.6
		c-0.2,0.9-0.7,1.6-1.2,2.4c0.5,1.7,1.3,3.3,2.3,4.8c0.1,0.2,0.1,0.8-0.3,0.7c-0.4-0.1-0.9-0.2-1.3-0.3c-0.1,1.7,0.5,3.8-0.4,5.3
		c-0.5,0.5-1.4,0.2-1.8,0.9c-0.6,1-1,2.6-2.4,2.7c-1.3,0.2-2.7-0.7-3.7,0.4c-0.6,0.3-1.4,0.1-2,0.2c-0.9,0.8-2.1,1.2-3.3,1.1
		c-0.6,0.1-0.9,1-1.6,0.8c-0.5-0.3-0.8-1-1.4-0.9c-0.9,0.4-1.7,1-2.7,0.7c-1.2-0.9-1.2-3.9-3.4-2.6c-0.3,0.1-0.5-0.1-0.6-0.4
		c-0.2-1,0.1-2.5-0.7-3.3c-0.8,0-1,2-1.7,0.6c-0.6-1.1,0.1-2.4-0.1-3.6c-0.7-0.8-1.6,0.2-2.5,0c-0.3-0.5-0.3-1.1-0.4-1.6
		c-0.5-1-0.8-2.2-1.1-3.3c-0.5-0.3-1.2-0.4-1.8-0.5c-1.2-0.2-1.6,1.4-2.9,0.9c-1.6-0.9-3.7-0.7-5.4-1.4c-0.8-0.2-1.4,0.3-2,0.7
		c-0.3-0.9-0.4-1.9-1.1-2.6c-0.8,0-1.3,0.7-1.9,1c-0.3,0.2-0.6,0.2-1,0.3c0-0.4,0.2-1.1-0.1-1.5c-0.6-0.6-1.6-0.7-2.5-0.6
		c-0.5,0.1-1,0.5-1.4,0.8c-0.4-0.6-0.8-1.5-1.6-1.8c-0.6-0.4-1.4-0.3-2.2-0.5c-0.9-1.1-0.7-3-2.3-3.5c-1.1,0.4-2.4,1.4-3.5,0.5
		c-1-0.9-1.7-2.1-2.6-3.1c-0.7-1.2,0.1-3.1-0.6-4.3c0-2.4-2.3-4.6-0.7-6.9c0.4-0.4,0.7-0.8,1-1.3c-0.7-0.1-1.2,0.4-1.7,0.7
		c-1-2.3,0.5-4.7,1.6-6.7c0.5-1.1,0.7-2.4,1-3.6c0.6-1.7,1.2-3.5,2.9-4.6l-0.3-0.1c-1.3-1.4-2.5-3-3.9-4.2c-0.6-0.4-0.2-1.3-0.4-1.9
		l-0.9-1.2c-0.3-0.8-0.4-1.6-1.2-2.1c-1.5-1.2-3.6-1.2-4.7-3.2l-0.6-0.9c0.5-0.2,1.1-0.4,1.7-0.5c1.2-0.1,2.1-0.5,3.3-0.8
		c2.2,0,4.3-0.5,6.2-1.2c0.8-1,2-1.2,3.2-1.4c1.3-1,2.6-1.9,4.1-2.5c0.4-0.4,0.8-0.8,1-1.3c-0.6-0.3-1.3-0.6-1.5-1.3
		c-0.1-0.4,0.1-0.8,0.4-1c1.3-0.3,2.6,1,3.8,0c1.9-1.5,3.7-3.1,5.4-4.7c1.3-0.8,2.8-1,4.2-1.6c3.9-1.2,7.7-2.7,12.1-2.7
		c2-0.4,4-0.6,6.1-0.9c3.5-1,7.3-2.2,11-1C65.5,8,67.2,8.6,68.9,9L68.9,9z"/>
</g>
<g id="AREA_1">
	<g>
		<path d="M97.8,42.8c-1.6-0.8-3.1-1.6-4.8-2c-0.1-0.4,0-1.1-0.5-1.4c0.5-0.4,1.2-0.4,1.7-0.2c-1-1-2.3-1.3-3.6-1.6
			c-0.1-0.1-0.3-0.2-0.2-0.4c1.4-1.3,3.8-1.7,5.4-0.9c-2-1.1-4.2-1.5-6.5-1.8c0,0,0-0.1,0.1-0.1c0.4-0.4,0.8-1.1,0.4-1.7
			c-0.4-0.6-1.2-0.4-1.8-0.5c-0.2-0.1-0.4-0.4-0.3-0.6c0.2-0.6-0.1-1.2-0.6-1.3c0.9-2,3.1-1.9,4.7-2.7c-0.4-0.3-0.9-0.2-1.4-0.4
			c-1.7-0.4-3.5,0.7-5.3,0.3c1.4-1.6,2.7-3.2,4.7-3.8v-0.1c-0.4-0.2-0.9-0.4-1.4-0.4c-1.1,0.4-2.1,1.1-3.2,1.5c-0.5,0.3-1,0.9-1.5,1
			c0.4-0.7,1-1.4,1.5-2c0.6-1.1,2.1-1.5,1.7-3l-1.6-0.2c-1.7-0.7-3.6-0.7-5-2c-0.4-0.5-0.9-0.9-1.5-1.1c-0.8-1.4-1.6-2.8-2.9-3.9
			c-2.3-1.6-4.2-3.8-7-4.3c-1.8-0.3-3.5-1-5.2-1.5c-3.8-1.2-7.5,0-11,1c-2,0.3-4.1,0.4-6.1,0.9c-4.4,0-8.2,1.4-12.1,2.7
			c-1.4,0.5-3,0.7-4.2,1.6c-1.7,1.6-3.5,3.2-5.4,4.7c-1.1,1-2.4-0.3-3.8,0c-0.3,0.2-0.5,0.6-0.4,1c0.2,0.7,0.9,1,1.5,1.3
			c-0.2,0.5-0.6,0.9-1,1.3c-1.5,0.6-2.8,1.5-4.1,2.5c-1.2,0.2-2.3,0.4-3.2,1.4C12,26.5,10,27,7.8,27c-1.2,0.3-2.1,0.7-3.3,0.8
			c-0.6,0.1-1.2,0.2-1.7,0.5l0.6,0.9c1.1,2,3.2,2,4.7,3.2c0.8,0.6,0.9,1.4,1.2,2.1l0.9,1.2c0.2,0.6-0.2,1.5,0.4,1.9
			c1.4,1.2,2.6,2.8,3.9,4.2l0.3,0.1c-1.6,1.1-2.2,2.9-2.9,4.6c-0.3,1.2-0.5,2.5-1,3.6c-1.1,2-2.5,4.3-1.6,6.7
			c0.5-0.3,1.1-0.9,1.7-0.7c-0.3,0.5-0.6,0.8-1,1.3c-1.6,2.4,0.7,4.6,0.7,6.9c0.7,1.2,0,3.1,0.6,4.3c0.9,1,1.6,2.2,2.6,3.1
			c1.1,0.9,2.4-0.1,3.5-0.5c1.6,0.5,1.4,2.4,2.3,3.5c0.7,0.2,1.6,0.1,2.2,0.5c0.8,0.3,1.2,1.2,1.6,1.8c0.5-0.3,0.9-0.7,1.4-0.8
			c0.9-0.1,1.8,0,2.5,0.6c0.4,0.4,0.2,1,0.1,1.5c0.3-0.1,0.7-0.1,1-0.3c0.7-0.3,1.2-1,1.9-1c0.7,0.7,0.8,1.7,1.1,2.6
			c0.6-0.4,1.2-0.9,2-0.7c1.7,0.7,3.8,0.5,5.4,1.4c1.3,0.4,1.7-1.1,2.9-0.9c0.6,0.1,1.3,0.2,1.8,0.5c0.3,1.1,0.6,2.3,1.1,3.3
			c0.1,0.6,0.1,1.2,0.4,1.6c0.9,0.2,1.8-0.7,2.5,0c0.2,1.2-0.4,2.5,0.1,3.6c0.8,1.5,1-0.6,1.7-0.6c0.7,0.9,0.4,2.3,0.7,3.3
			c0.1,0.2,0.3,0.4,0.6,0.4c2.2-1.3,2.2,1.7,3.4,2.6c1,0.3,1.9-0.3,2.7-0.7c0.6-0.2,1,0.6,1.4,0.9c0.7,0.3,1-0.6,1.6-0.8
			c1.2,0.1,2.4-0.2,3.3-1.1c0.6-0.1,1.4,0.1,2-0.2c1-1.1,2.5-0.1,3.7-0.4c1.4-0.1,1.8-1.7,2.4-2.7c0.4-0.7,1.3-0.3,1.8-0.9
			c0.9-1.5,0.2-3.6,0.4-5.3c0.4,0.1,0.9,0.2,1.3,0.3c0.4,0.1,0.4-0.4,0.3-0.7c-0.9-1.5-1.8-3.1-2.3-4.8c0.4-0.8,1-1.5,1.2-2.4
			c0.1-0.5-0.1-1.2-0.6-1.6l0.1-0.1c1.4,0.7,2.9,1.2,4.5,1c2.3-0.2,3.7-2.5,5.2-4.1c1.7-2.1,4.3-2.2,6.2-4.1c2.4-1.5,3.1-4,3.6-6.4
			c1.4-3.1,2-6.5,3.1-9.8v-1.7c-0.4-1.7-0.3-3.7-1.8-4.8C95.4,43.3,97,43.9,97.8,42.8z M85.2,21.2c-0.9,0.7-1.8,1.4-2.8,1.9
			c-0.1-1.4-1-2.6-1.9-3.7C81.9,20.1,83.6,20.6,85.2,21.2z M80.6,22.9l0.1-0.1c0.7,1.2,1.7,2.5,0.9,3.9c-0.7,0.7-1.7,0.8-2.7,0.7
			c-0.3,0-0.5-0.2-0.8-0.3C79.4,25.9,80.3,24.6,80.6,22.9z M78.9,21.7c0.1,1.6,0,3.2-1.3,4.2c-0.5,0.4-1.2,0.7-1.9,0.5
			c-0.2-0.3-0.8-0.7-0.4-1c1.1-0.9,1.5-2.3,1.2-3.6C77.3,21.8,78,21.7,78.9,21.7z M69.1,39.1c-0.1-0.2-0.3-0.4-0.5-0.6
			c-0.1,0.9,0.1,1.7-0.5,2.4c-0.6,0.4-1.3,0.4-2,0.1c-0.4-0.5-0.9-1.2-0.7-1.8c0.3-0.9,0.7-2-0.1-2.8c-0.7-0.6-1.5-1-2.5-0.8
			l-1.3,0.6c-0.6-0.6-1.4-1.2-1.1-2.1c1.2-1.9,3.3-1.9,5.3-1.5c1.5,0.3,3.2,1.6,4.8,0.5c1.1-0.8,3-2,4.1-0.4
			c0.1,0.6,0.1,1.2-0.1,1.7c-0.8,0.2-1.6,0.7-2,1.5c-0.3,1.1,0.1,2.5-0.7,3.5c-0.6,0.9-1.5,1.1-2.3,1.5
			C69.1,40.4,69.5,39.7,69.1,39.1z M57.4,69.1c-0.7,0.4-0.9,1.2-1.4,1.8c-0.2,0.2-0.3-0.1-0.5-0.2c-0.5-0.5-1-1.2-1.7-1
			c-0.4,0.1-0.7,0.6-0.9,1c-0.3,0.4-0.9-3.8-1.3-5.8c-0.1-2.1-0.2-4.2-0.2-6.5c2.3,1.2,4.8,2.5,7.4,3.1c0.8,0.5,1.3,1.2,1.9,1.9
			c1.1-3.6,2.8-6.8,5.2-9.8c-0.9,2.5-1.6,6,0.1,8.3c1.2,1.5,2.8,3.2,2,5.4c-0.3,0.7-0.8,1.3-1.4,1.7C63.9,67.3,60.4,67.7,57.4,69.1z
			 M63.3,76.9c-0.2,0.2-0.4,0.2-0.7,0c-0.2-0.3-0.6-0.5-0.4-0.9c0.1-0.2,0.3-0.3,0.4-0.4c0.3-0.1,0.4,0.1,0.7,0.2
			C63.5,76.2,63.5,76.6,63.3,76.9z M61.3,77.2c-0.1,0.4-0.5,0.3-0.8,0.4c-0.5,0-1-0.3-1.2-0.8c-0.2-0.4,0.3-0.6,0.5-0.8
			c0.3-0.1,0.9-0.2,1.2,0.1C61.3,76.3,61.4,76.8,61.3,77.2z M56.9,76.4c0.4-0.2,1.1-0.1,1.3,0.4c0.2,0.2,0.2,0.6,0.1,0.9
			c-0.5,0.4-1.1,0.4-1.7,0.1c-0.1-0.1-0.3-0.2-0.3-0.4C56.2,77,56.7,76.7,56.9,76.4z M55.8,77c-1,0.1-2.2,0.3-3-0.5
			c-0.6-0.9-0.4-2.2-0.3-3.2c0.3-1.2,0.5-2.6,1.6-3.3c1.7,0.7,1.6,2.6,2.3,3.9C56.6,75.1,56.3,76.2,55.8,77z M53.4,49
			c0.4-0.3,1.1-0.7,1.7-0.4c0.5,0.3,0.9,0.8,1.5,0.6c0.6-0.3,1.3-0.6,2.1-0.6c0.4,3.4-0.6,6.2-1.4,9.2c-0.3,0.7-1,1.7-1.9,1.7
			c-0.9-0.9-0.5-2.4-0.8-3.6C54.4,53.4,53.9,51.2,53.4,49z M64.6,75.6c0.4-0.1,0.9,0,1.2,0.4c0.1,0.3,0.1,0.7-0.1,1
			c-0.2,0.2-0.5,0.4-0.8,0.3c-0.3-0.1-0.6-0.5-0.7-0.8C64.1,76.1,64.1,75.7,64.6,75.6z M65.7,75h-0.9c0.1-0.5,0.2-1.1,0.1-1.7
			c0-0.2-0.3-0.5-0.1-0.7c1.5-1,2.4-2.5,3.2-3.9c0.3-0.2,0.5-0.6,0.8-0.7c0.3,0.1,0.6,0.2,0.8,0.5c0.1,2.9-0.2,5.7-2.5,7.7
			C66.8,75.8,66.5,75,65.7,75z M69.7,57.6c0.5-2.3,1.1-4.6,0.9-7.3c0.8-1.1,1.5-2.3,2.2-3.5c0.5,0.3,1,0.8,1.6,1l1.3,0.1
			c0.2,2.4-0.5,4.6-1.8,6.5c-1.3,1.5-1.2,4.7-3.9,4.4C69.4,58.6,69.9,58,69.7,57.6z M71,48.7c-1.4,2.2-4.3,1.5-6.7,1.8
			c-1.4,0.1-2.8,0.7-4.1,0.2c-0.6-0.5-0.7-1.1-0.7-1.8c1.5,0.2,3.2,0.4,4.8,0.2c1.9-0.8,4.6,0,6.1-1.6l0.4-0.4
			C71.1,47.5,71.1,48.2,71,48.7z M63.9,39.1v0.2c-1-0.1-1.7-1.1-1.9-1.9c0-0.3,0.5-0.3,0.8-0.4c0.3,0.1,0.6,0.1,0.8,0.3
			C64,37.8,63.5,38.5,63.9,39.1z M73.1,31.2c-1.2,0.5-2.2-0.6-3.5-0.2c-1.2,0.2-2.5,0.1-3.8,0.3c-1.2,0.7-2.8,0.3-4.2,0.5
			c-1.3,0.2-1.9,1.4-2.7,2.3c-0.5,0.4-0.9-0.5-1.3-0.7c-1.2-0.5-2.7-0.2-3.8-0.9c0-0.7,0.8-0.5,1.1-0.9c-1.4-0.7-4.5,0.4-4.3-2.1
			l0.5-0.3c1.3-0.1,2.7,0,3.9,0c-1.7-0.5-4-0.9-5.6,0c-0.6-0.2-1.3-0.4-1.6-1c1.4-0.6,2.7-1.4,4.3-1.1c1.8,0.2,3.5,0.6,5.2,0.9l0,0
			c-1.4-0.4-2.9-0.9-4.5-1.1l-1.7-0.6c0.1-0.3,0.6-0.3,0.9-0.5c2-0.5,3.8,0.6,5.7,0.8c0.2,0,0.4,0.3,0.6,0.1c-1.3-0.5-2.5-1.4-4-1.6
			c0.1-0.4,0.5-0.9,0.9-1.3c0.3-0.1,0.5-0.4,0.8-0.4c1.9,0.1,3.9,0,5.7,0.4c0.9-0.2,1.9-0.4,2.9-0.4c-0.1,0.7-0.4,1.4-0.1,2.1
			c0.2-0.8,0.9-1.6,1.7-1.7l1.1-0.1c-0.4,0.4-0.9,0.6-1.4,0.9c-0.5,0.3-0.8,0.8-1,1.3h0.2l3-1.8c0.9-0.3,1.7,0,2.4,0.6v0.1
			c-1.5-0.1-2.8,0.4-3.7,1.4c2,0.3,3.9-1.6,6-0.2c-1,0.9-2.6,0.1-3.8,0.7c1.7,0.4,3.2,0.7,4.8-0.1c0.4,0.1,0.8,0.4,1,0.7
			c-0.4,0.2-0.8,0.5-1.2,0.7c0.4,0,0.9,0,1.2,0.2c0.5,0.3,0.4,1,0.3,1.4C74.8,30.6,73.7,30.5,73.1,31.2z M46.8,24.1
			c-0.1-0.3-0.3,0.1-0.5,0c-0.4,0-0.9,0-1.1-0.4L45,23.1c-0.7,0.1-1.3,0.6-1.6,1.2c-0.1,0.3-0.1,1-0.6,0.8c-0.3-0.2-0.7-0.3-1.1-0.4
			c0-1.7,0.7-3.5,2.4-4.2c1-0.4,2.3-0.1,3.2,0.5c0.5,0.4,0.9,0.9,1.2,1.5c0.6,1.1,0.3,2.6,0,3.7c-0.5,0-1-0.1-1.5-0.1
			C47,25.4,46.7,24.8,46.8,24.1z M73.5,23.7c0.1-0.1,0-0.3,0.1-0.3c0.1,0,0.2-0.1,0.3-0.1c0-0.1-0.1-0.2-0.2-0.3
			c-0.2,0.1-0.4,0.3-0.6,0.4c-0.4,0.1-0.8,0.1-1-0.2c-0.3-0.2-0.2-0.5-0.4-0.7c-0.8,0-1,1.6-1.9,0.8c-0.2-0.1-0.5-0.3-0.7-0.5
			c0.1-1.1,1.3-1.9,2.2-2.3c1.2-0.5,2.9-0.2,3.6,1.1c0.3,0.8,0.7,1.9,0.1,2.7c-0.2,0.4-0.4,0.7-0.7,1l-1-0.6
			C73.4,24.2,74,24,73.5,23.7z M69.9,10.4c0.7,0.7,1.2,1.6,1.6,2.5c0.4-0.6,0.1-1.4,0.2-1.8c0.5,0.9,1.7,0.9,2,1.9
			c0.4,1,1,2.4,0.3,3.5c0,0.2-0.2,0.3-0.3,0.4c0.9-0.2,1.8-0.4,2.7-0.8c0.3,1.5,2.3,2.5,1.8,4.2c-1.9-0.1-3.7-0.9-5.5-1.4
			c-1.7-0.1-3,1.1-3.9,2.4l-1-0.6c-0.1-0.9,1.4-1.3,1.3-2.2c-0.6-1.4,2-2.2,0.6-3.4c-1-0.6-1.1-1.6-1.3-2.6c-0.6-1-1.1-2-1-3.2
			C68.4,9,69.2,9.7,69.9,10.4z M52.2,9.5c2-1.1,4.3-1.1,6.3-1.6c0.7-0.1,1.7,0.1,2.3,0.3c0.5,0.6,0.2,1.4-0.1,1.9
			c-0.9,0.7-1.4,1.6-1.5,2.6c0.6-1,1.7-1.3,2.8-1.2c0.5,0.2,0.9,0.5,1.4,0.7c0.1-0.2-0.1-0.4-0.2-0.5c-0.8-0.9-2.2-1.5-1.7-2.9
			c0.5-0.6,1.2-1.2,2-1l0.8,0.9c1.2,0.8,2.9,1.9,3,3.5c0.1,1.2,0.5,2.2,1.1,3.2c0.1,0.8-0.4,1.2-0.8,1.9c0,1.3,0.1,2.7-0.9,3.6
			c-0.7,0.6-1.7-0.6-2.2,0.4c-0.1,0.3,0,0.7-0.3,1c-1,0.2-1.5-1.3-2.6-0.9c-1.3,1.2-3.7-0.3-5,1.2c-0.8,0.2-1.3-0.3-1.9-0.8
			c-0.1-0.6-1.1-0.9-0.6-1.6c0.4-0.6,1.2-0.5,1.5-1.2c0.2-0.9,1.2-1.5,1.8-2.1c0.3-0.6,0-1.3-0.4-1.7c-0.3-0.3-0.7-0.5-1-0.7
			c0,1.2,0.4,3.2-1.1,3.8c-0.7,0.3-1.3,0.4-2,0.5c-0.4-0.3-0.7-0.8-0.9-1.2c-0.3-2.1,0.9-3.8,2.7-4.9l0.6-0.7
			c-0.7-0.2-1.2-0.4-1.9,0c-0.8,0.5-1.5,1.2-2.3,1.7C51.3,12.3,50.8,10.4,52.2,9.5z M11,31.1c-1.8-0.9-4.2-0.6-5.9-1.6v-0.1
			c1.2-1.2,3.1-0.7,4.3-1.7c1.8-0.2,3.3-1,5.2-0.9c0.8-0.5,1.6-1.2,2.7-1.1c0.1,0.4-0.1,0.9-0.3,1.3c-0.7,0.6-2,0.4-2,1.6l-0.1,0.6
			c1.5,0.9,3.5,0.3,4.9,1.4c0.1,0.6-0.6,0.8-1,1.1c-0.6,0.1-1.1-0.2-1.7-0.3C15,31.4,13,31.2,11,31.1z M17.6,70.4
			c-0.2,0.4-0.7,0.6-1.1,0.4c-0.8-0.5-0.6-1.6-1.3-2.2c-0.5,0-0.8,0.5-1.2,0.7c0-0.7-1-1.1-1.2-1.7c0-1.9,0.8-3.5,1.3-5.3
			c0-0.4-0.1-0.7-0.3-0.9c-0.3-0.2-0.7-0.3-1.1-0.2c-0.4,0.3-0.4,0.9-0.7,1.2c0-0.5,0.3-0.8,0.5-1.2c0.1-1.2,0.5-2.2,0.7-3.3
			c-0.1-0.2-0.5-0.1-0.7-0.1c-0.8,0.3-1,1.2-1.3,1.9c-0.3-1.5,1-2.3,1.2-3.6c0.1-0.7,0.6-1.9,0-2.5c-0.5,0-1,0.3-1.4,0.4
			c0.1-0.6,0.3-1.3,0.4-2c0.5-1.4,1.9-2.5,2-4c0.3-1.4,2-1,2.7-2l0.4-0.3c0.4,1.8-1.4,2.4-2,3.9c0,0.4,0.2,0.7,0.5,0.9
			c0.7-0.4,1.1-1.6,2-1.2l1,0.5c-0.1,1.3-1.8,1.7-1.5,3.1c0.5,0.6,1.4,0.3,2,0.7c-0.1,0.8-0.7,1.1-1.1,1.7c-0.2,0.4-0.6,0.9-0.4,1.4
			c0.6,0,1-0.3,1.6-0.3c-0.3,1.2-0.7,2.3-1.7,3.1c-0.3,1.6,0.6,3.4-0.6,4.8c-0.1,1.8-0.4,4,1.2,5.2C17.6,69.7,17.7,70.1,17.6,70.4z
			 M41.1,75.4c-0.8,0.5-1.4,1.3-2.2,1.6c-0.6-0.2-0.9-1.2-1.6-1c-1.3,0.9-3,0.4-4.3,1c-0.6-0.9-0.3-2.3-1.4-3
			c-1.3,0-2.2,1.1-3.2,1.8c-1.1-1.2-1-3-1.4-4.5c-0.1-0.1-0.1-0.2-0.3-0.2c-0.7,0.8-1.4,2.3-2.7,2c-1-0.6-0.7-1.9-1.3-2.7
			c-0.7,0.3-1.2,1.1-1.7,1.6c-1-0.8-1.1-2.2-1.2-3.4c-0.8-0.4-1.7-1-1.9-1.9c-0.1-1.5-0.5-2.8-0.4-4.3c0.5-1.6,0.7-3.5,1.5-5
			c0-0.1,0-0.3,0.3-0.3c1.3,0.7,2.1,1.9,2.7,3.2c0.4,1.2,1.8,0.7,2.6,1.2c0.4,1.6-1.1,3.6,0.7,4.8c1.7-0.6,0.6-2.7,1.9-3.6
			c0.6,0.7,1.2,1.5,0.9,2.5c-0.1,0.8-0.8,1.3-0.8,2c0.2,0.3,0.7,0.2,1,0.1c1-0.2,1.1-1.4,1.5-2.1c0.3,0.3,0.3,0.8,0.4,1.1
			c0.3,0.8,0.8,1.7,0.6,2.7l0.1,0.1c0.6-0.8,1.3-1.9,2.3-2.2c0.6-0.1,1-0.6,1.5-0.8c1.2,0.7,0.9,2,0.9,3.1c0.7,0.5,1.8-0.2,2.4,0.6
			c-0.3,1.5,0.3,2.9,1.4,3.8c1,0.1,2.1-0.8,3-0.1C42.4,74.4,41.7,74.8,41.1,75.4z M42.9,71.8c-0.6,0.1-1.4,0.3-2-0.1
			c-0.6-0.9-0.8-2-1.1-3c0-1.3,1.1-2.2,1.8-3.2l0.4-0.3c0.3,0.4,0.7,0.9,0.5,1.5c-0.3,0.8-0.9,1.7-0.6,2.7
			C42.5,70.1,43,70.8,42.9,71.8z M43.5,59c0.1-0.7,0.5-1.3,0.4-1.9c-0.7-0.6-2,0.3-2.5-0.8c-0.3-1.2,0-2.6,0-3.8l-0.1-0.1
			c-0.7,0.5-1.2,1.7-2,1.7c-0.2-1.2-0.1-2.6-0.7-3.7c-0.3-0.4-0.8-0.3-1.2-0.3c-0.4,0.1-0.8,0.3-1.2,0.5c0,0,0,0,0,0
			c-0.1,0-0.1,0.1-0.2,0.1c0,0-0.1,0-0.1,0c-0.1,0-0.1,0-0.2,0.1c0,0-0.1,0-0.1,0c-0.1,0-0.2,0-0.3,0.1c0-0.1,0-0.1,0-0.2
			c0,0,0,0,0-0.1c0,0,0-0.1,0-0.1c0,0,0,0,0,0h0c0.2-0.6,0.7-1.2,1-1.8c0-0.3,0.4-0.7,0-1c-1.3-0.3-2.9,1.1-3.7-0.4
			c-0.3-1-0.9-1.9-1-3h-0.1l-1.6,1c0.3,0.3,0.6,0.6,0.4,1c-0.8,0.8-1.2,1.9-0.8,3c0.6,0.6,0.9-0.6,1.4-0.8c0.3-0.2,0.7,0,1,0
			c1.3,0.9,1,2.5,1.1,3.9c-0.1,0.3-0.2,0.7-0.1,1c0.2,0.2,0.4,0.3,0.7,0.1c0.8-0.2,1.1-1.4,2-1c0.4,0.1,0.6,0.5,0.5,1
			c-0.1,0.4-0.4,0.7-0.4,1.2c0.6,0.3,1.4-0.1,2.1,0.1c1.3-0.3,0.8,1.3,1.4,1.8c1.1,1.2,1.5,3.1,3.2,3.6c0.2,0.1,0.1,0.3,0.1,0.5
			c-0.7,0.7-1.7,1.1-1.9,2.2c-0.1,0.8,0,1.7-0.4,2.3c-0.3,0.4-0.9,0.8-1,1.3H39c-0.3-0.4-0.5-1.1-1.1-1.2c-0.5,0.1-1,0.1-1.4-0.3
			c-0.6-0.6-0.6-1.4-1.1-1.9c-1,0-1.6,0.7-2.7,0.3c-0.4-0.3-0.3-1.2-0.1-1.7c-0.8,0.3-2,0.5-2.7-0.3c-0.7-0.5-1-1.6-2-1.5
			c-1,0-2.1,0-2.7-0.8l-0.8-1.5c-0.7-0.7-1.9-1.1-2-2.2c0-1.1,0.2-2.4-0.1-3.4c0.2-0.7,0.5-1.5,0-2.2c-0.4-0.7-1.9-0.1-1.7-1.2
			c0.3-0.6,1-1.4,0.4-2.1c-0.3-0.4-0.4-1-0.3-1.5c0.5-1,1.6-1.4,1.7-2.5l0.1-2.9c0.6-1,0.7-2.2,1.3-3.2c0.2-0.2,0.5-0.3,0.8-0.1
			c0.6,0.2,1.1,0.7,1.2,1.3c0,1.3,0.6,2.8-0.3,3.9c-0.6,1-0.2,2.3,0,3.3c0.1,0.3,0.4,0.1,0.6,0.1c0.8-0.4,1.4-1.5,2.3-1.3
			c0.4,0.2,0.6,0.7,0.9,1c3.6-2.4,7.1-4.8,10.8-7.2c0.9-0.2,1.7-0.3,2.5-0.6c-1.1-0.5-2.1-1.2-3.2-1.4c-0.6,0.5-2.2-0.2-2,1.2
			c-0.5,1.3-1.9,1.6-2.8,2.5c-0.4,0.2-0.9,0.3-1.2,0.8c-0.1,0.4,0.1,1.1-0.4,1.3c-1.3-0.1-2.9-0.8-4.3,0.1c-0.1,0.1-0.2,0.1-0.4,0.1
			c-0.3-0.5-0.5-1.1-0.4-1.7c0.4-0.8,1.3-1.4,1.7-2.2c-0.5,0-1.1,0.3-1.6,0.3c-0.1,0,0-0.2,0-0.3l0.1-0.1c2.8,0.5,2.6-2.9,4.1-4.3
			c0.1-0.3,0.3-0.7,0-0.9c-0.4-0.3-0.9,0-1.2,0.3c-0.7,1.7-2.6,1.2-4,1.7c0.3-0.9,0.9-2.3,0-3.3c-0.7-0.5,0.3-1,0.3-1.5
			c0.7-1.6,2.3-2.4,3.9-2.7c0.3,0,0.6,0.3,0.7,0.6c0.1,0.3,0,0.7-0.2,1c-0.4,0.4-0.9,0.7-1,1.3c1.8-0.2,3.3,0.6,4.6,1.8
			c0.4,0.7,0,1.6,0.7,2.2l1.6,1.4c0.1,0.1,0.1,0.3,0.1,0.4c0.5,0,1.1-0.2,1.6-0.3c-0.9-0.9-1.6-1.6-2.5-2.7c-0.3-1-0.8-1.9-1.2-2.9
			c-1.1-0.5-2.2-1-3.3-1.3c0-0.4,0.1-1.1,0.4-1.4c0.9,0,2-0.2,3-0.4c-0.3-0.1-0.8-0.1-1.1-0.2c-0.1,0.1-0.2,0-0.3,0
			c-0.1-0.2-0.4,0.1-0.5-0.1c-1-0.1-2.1-0.3-3.1-0.4c-0.6,0.4-1.4,0.1-2.1,0.3c-0.2,0.1-0.3,0.3-0.5,0.4c-0.8-0.1-1.8-0.4-2.3,0.4
			c-0.4,0.4-0.5,0.7-1,1c-1.2,0.1-2.1-0.7-3.3-0.6c-0.9,0.1-1.9,0.4-2.8,0.2c0.6-0.7,1.5-1,2.2-1.7c0-0.4-0.7-0.4-0.9-0.7
			c0.4-0.2,0.9-0.3,1.2-0.8c0.1-0.4-0.2-1,0.2-1.3c0.4-0.4,0.9-0.5,1.4-0.4c2.1,1.2,4.6,1.4,6.8,2.4c1.3,0.1,2.4,0.6,3.7,0.6
			c-1.9-2.1-5.1-1.4-7.7-2l-0.3-0.6c-1.2-0.3-2.3-0.7-3.5-1V22c1-0.2,2-1.2,3-0.5c1.9,0.7,3.8,1.4,5.7,2c1.4,0.3,2.9,0.2,4.3,0.5
			l0-1.7c0.8,0.8,1.6,1.7,2.3,2.5c1,0.2,1.9,0.4,3,0.6c-1.7-1.3-3.5-2.5-5.3-3.8c0-0.2,0-0.4,0-0.5c0.3,0.2,0.7,0.5,1,0.7l0.1,0
			c-0.6-0.6-1.3-1-1.9-1.5c0,0.2,0.1,0.5,0.2,0.8v1.8c-0.1,0.2-0.3,0.4-0.4,0.5c-2.1-0.2-3.9-1.2-5.9-1.6c-0.5-0.2-1-0.2-1.3-0.8
			l-0.1-1.4c1.1-1,2.8-1.5,4.2-0.8c0.5,0.1,1.1,0,1.5-0.3c0.6-0.4,0.3-1.4,1-1.8c0.9-0.1,1.7-0.5,2.1-1.3c-0.4,0.8-0.3,2,0.3,2.7
			l0.2,0.1c0.3-0.5,0.5-1.2,1.1-1.5c0.5-0.2,1.1-0.3,1.4-0.9c0.3-0.7,0.2-1.6,0.9-2c0.7-0.6,1.7-0.4,2.5-0.1
			c1.4,1.3,3.3,1.6,4.6,3.1c0.9,0.6,1.7,1.3,2.6,1.6c-0.9-1.5-2.5-2.6-3.6-3.8c-1.2-1.4-3.9-0.8-3.9-3.2c0.2-0.2,0.4-0.6,0.7-0.7
			c1,0.1,2.1,0,3.1-0.1c0.4,0.3,0.6,0.9,1,1.2c0.8,0,1.2-1.2,2-0.9c0.7,0.2,1,1,1.1,1.6c-0.3,1.1,0.9,1.9,1,3
			c-0.1,0.9,0.4,1.7,0.1,2.6c0,0.3-0.5,0.7-0.1,0.9c1.2,0.3,2.2,1.3,2.5,2.5c0.2,0.9-0.3,1.5-0.6,2.2c-0.4,0.4-0.9,0.9-1.5,0.7
			c-0.4-0.1-0.9-0.3-1.1-0.8c-0.2-0.6,0.1-1.2,0.3-1.7c-1.3-2.2-4-1.8-6-1.8c-1.3,0.1-2,1.5-3.3,1.7l-1.8,0.1
			c0.1,0.7,0.3,1.4,0.3,2.2l3.4,2.4l4.7,1.5c0.1,0.3-0.3,0.5-0.4,0.8c0.9,1.3,1.7,2.5,2.5,3.8c-0.2,0.2-0.4-0.2-0.6,0
			c0.5,0.4,0.6,1.3,1.4,1.1c1.1,0.6,2.5,0.4,3.4,1.5c0.5,0.6,0.9,1.4,1.6,1.8c0.2-0.3,0.3-0.7,0.1-1.1c-0.1-0.5-0.6-0.8-0.7-1.2
			c1.1,0.7,2.4,0.9,3.6,1.4c0.5,0.3,0.7,0.9,1,1.3c1.9,2.8,4.9,3.1,7.1,5.2c0.9,0.4,0,1.1,0,1.6c-0.4,1.1-1.2,2.1-1.5,3.3
			c-0.1,0.3-0.3,0.4-0.6,0.3c-0.6-0.3-1.2-0.7-1.9-0.5c-1,0.8-2.2-0.1-3.4,0.1c-1.3,0.3-2.5,1.2-3.9,0.6c-0.7-0.6-0.1-2.3-1.4-2.1
			c-3.1-0.2-5.8-1.4-8.7-2.3c-1-0.5-2.1-1.6-2-2.8c0-0.4,0.4-0.8,0.7-1.1c1-0.2,1.8,0.5,2.3,1.2c0.8,1.5,2.6,1.1,3.8,2.2
			c1.2,0.8,2.7,1.5,4.2,1.1l0.3-0.4C52.4,42,49.9,42,48,40.9c-0.6-0.7-1.3-1.4-2-2.2l-4.8-0.1c-2.7,1.6-5.4,3.2-8.1,4.8
			c1.9,0,3.2-1.7,4.9-2.3c0.3,0,0.5,0.2,0.6,0.4c0.3,0.7,0.1,1.8,1.1,2.1c1,0.3,2.2-0.2,2.7,0.8c0.2,1.1-0.2,2.1,0,3.1
			c0.3,0.6,0.8,0.2,1.3,0.3c1.5-0.3,3.1-1.2,4.5-0.4c0.6,0.6,0.9,1.5,0.7,2.4c-1.3,2.3-2,4.8-2,7.6c0,3.7,0.7,7.1,1.2,10.4
			c-0.2,1.6-0.4,3.1-1,4.5c-0.1,0.1-0.3,0.2-0.5,0c-2.1-3-1.3-6.4-1.7-9.9C44.3,61.4,42.7,60.5,43.5,59z M21.3,30.5
			c0.9-0.5,2-1,3-0.3c0.3,0.2,0.7,0.5,0.7,0.9c0.1,0.7-0.8,1.2-0.3,1.8c0.1,0.3,0.4,0.7,0.2,1c-1.1,0.8-2.5,0.9-3.6,1.5
			c-0.2-1.1,0.1-2.1,0.5-3C21.7,31.8,21.1,31.3,21.3,30.5z M70.7,77.4c-0.1,0.8-0.6,2,0.2,2.7c0.3,0.4,0.9,0.6,0.8,1.2
			c-1.2,0.9-1.8-2-3-0.4c-0.5,0.2-0.1,0.5,0,0.8c1.1,1.5,3-0.1,3.5,2c0.1,0.4-0.1,0.7-0.4,0.8c-0.4,0.1-0.9,0.1-1.2,0.5
			c-0.1,0.6,0.3,1,0.1,1.5c-0.7,0.5-1.7,0-2.4,0.6c-0.1,0.6,0.3,1.1,0,1.6c-0.8,0.1-1.5-0.6-1.8-1.3c0-0.1-0.1-0.3-0.2-0.4l-0.1,0.1
			c0,0.9,0.1,1.7-0.3,2.7c-0.8,0.3-2-0.7-2.4,0.7c-0.4,0.7-0.8,1.6-1.7,1.9c-0.4-0.9-0.3-2-0.8-2.9c-0.4,0.8-0.4,1.9-1.3,2.5
			c-0.8,0-0.6-1-0.8-1.5l-0.1,0c-0.6,0.6-0.6,1.7-1.5,2.2c-0.2,0-0.3,0.2-0.6,0.2c0.2-0.7,0.1-1.8-0.4-2.5c-0.5-0.9-1.4-0.9-2.4-0.9
			c-0.8-0.2-0.2-1.3-0.7-1.7c-0.8-0.4-1.8-0.3-2.4-1.1c-0.5-0.6-0.9-1.2-1.2-1.9c0.4-0.3,0.7-0.7,1.3-0.5c0.6,0.2,1.1,0.8,1.8,0.5
			c1.2-1.2,2.2,1,3.4-0.1v-0.1c0.4-0.6,1-1,1.4-1.6c-1.4-1.1-2.1,1.8-3.2,0.1c-0.2-0.2-0.4-0.4-0.5-0.5c-0.2,0.4-0.2,0.8-0.7,1
			c-0.6,0.3-1.3,0.2-1.8-0.3c-0.6-0.6-0.7-1.6-1.6-2c-0.7-0.3-1.7-0.1-2-1c-0.1-0.2-0.1-0.5-0.1-0.7c-0.8,0.1-1.9,0.2-2.7-0.1
			c0.1-0.8,0.1-1.6,0.9-2.1c0.4-0.2,0.9-0.2,1.4-0.3c2.2,4.2,7.4,3.2,11.4,3.3c2.1-0.8,4.5-0.6,6.7-0.4c1.2-0.1,2.5-0.5,3.1-1.6
			c0.6-1.6,0.9-3.2,1.9-4.6c0.3-0.6,0.1-1.1,0.3-1.7c0.4,0.8,1.4,1.2,1.6,2.2c-0.7,0.4-1.5,0.6-1.9,1.3
			C70.5,76.2,70.5,76.8,70.7,77.4z M71.9,67.8c0.1,1.4-0.1,2.7-0.7,3.8c-1-2.2-0.1-4.6,1.1-6.4c0.2-1.1-0.1-2.3,0.1-3.4
			c0-1,0-2.5,0.3-3.5c0.2-0.7,0-1.6,0.7-2c1.1-0.9,2-1.6,2.9-2.7c0.7-0.4,1.7-0.4,2.4-1c1.1-0.9,2.3-1.9,3.1-3.1
			c-0.7-0.6-1.8-1.1-1.9-2.1c0.9-0.7,1.9,0.1,2.9,0.3c0.2-0.2,0.1-0.5,0-0.8c-0.3-1-0.6-2-1.1-2.9c0.3-0.5,0.7-0.9,1.2-1.1
			c1,0,1.6,0.7,2.6,0.8c0.6,0.3,1.6,0.2,1.7,1.1c0.3,0.8,0.9,1.5,0.7,2.4c-0.3,0.2-0.7,0.3-1,0.1c-0.8-0.2-1-1.3-1.8-1.4
			c0.1,0.5,0.4,1,0.7,1.4c0.6,1.9,2.1,3.5,1.4,5.7c-0.5-0.5-0.5-1.3-0.8-2c-0.3-0.9-1.3-1.7-2.1-2.3c0.1,0.6,0.3,1.2,0.5,1.8
			c0.1,1.3,0.2,2.7,0.3,4h0c-0.5-1.3-0.9-3-2.5-3.5c-0.3,2,0.4,4.4-1.2,5.8c-0.6,0.1-1.1-1.2-1.4-0.4c0,0.5,0.1,1.2-0.4,1.5
			c-1.9-0.3-3.5,0.4-4.4,1.9c-0.8,1.9-2.2,3.5-2.1,5.7c0.2,0.6,0.7,1.4,0.2,2C72.7,67.6,72.1,67.2,71.9,67.8z M85,63.7
			c-0.6,0.3-0.6,1-0.5,1.6c0.5,0.7,0.6,1.9,0.2,2.7c-0.2-1.3-0.9-2.8-2.2-3.7l-0.1,0.1c-0.3,1.7,0.9,3.8-0.5,5.3
			c-0.1-1.9-1.3-3.3-2.3-4.7c-0.1-0.1-0.3-0.1-0.4-0.1c-0.2,2,1.2,3.8,0.5,5.7c-0.1,0.9-0.5,1.7-0.8,2.6c-0.7-1.5-0.8-3.3-1.5-4.7
			l-0.2,0.2c-0.4,1.3,0.1,3-1.1,3.9c-1-0.4-2.1-0.6-3.1-0.9c-0.4-0.2-0.2-0.7-0.2-1c0.6-1.2,0.6-3.2,2.4-3.4c0.9,0,1.5-0.6,2.1-1.2
			c1-1.1-0.1-2.5-0.4-3.6c-0.1-0.3,0.3-0.6,0.5-0.8c0.6,0.1,0.6,0.8,0.9,1.2c0.1,0.3,0.1,0.5,0.2,0.8h0.1c1.3-1,1.6-2.5,1.7-4.1
			c0.1-0.1,0.2,0,0.2,0.1c0.6,1,1.2,2.1,1.9,3c0.2-0.6,0.4-1.3,0.2-1.9c-0.3-0.7-0.7-1.3-1.1-1.8h0.1c1.1,0.7,2,1.9,3.3,2.2
			c1.4,0.7,1.3,2.5,1.3,3.7C85.9,64.5,85.7,63.6,85,63.7z M89.7,60.3c0.1,1.1,0.8,2.3,0.3,3.4c-0.9-0.9-0.8-2.3-1.8-3.1
			c-0.4,0-0.6,0.5-0.7,0.8c0.1,1.1,1.1,2.1,0.6,3.3c-0.2-0.3-0.3-0.8-0.3-1.2c-0.2-1-0.2-1.8-0.5-2.8c-0.4-1.3-1.1-2.6-2-3.7
			c0-0.4,0-0.9,0.3-1.2c0.6,0,1,0.4,1.6,0.6c0.7,0,1.5,0,1.8,0.7c0.6,1.4,1.9,2.5,2.3,3.9C90.8,60.9,90.3,60.3,89.7,60.3z
			 M92.9,52.3c-0.5-0.1-0.9-0.6-1.4-0.6c0.7,0.7,1.6,1.6,1.9,2.5c-0.5-0.5-1.1-1-1.9-0.8c-0.1,0.1-0.3,0.1-0.3,0.3
			c0.6,0.6,2.2,0.7,1.7,2c-0.1,0.3-0.3,0.7-0.5,1c-0.4-0.8-1-1.7-1.9-1.9c0,1,0.6,2,0.9,3l0,1.2c-0.7-0.9-1.3-1.8-2.2-2.7
			c-0.2-0.6-0.3-1.3-0.8-1.9c0.4-0.2,0.9,0,1.3-0.3c0.4-0.6-0.6-1.2-0.2-1.9c0.3-0.5,0.8-0.5,1.2-0.8c0.4-1.6-1.2-2.4-2-3.3v-0.1
			c1.2-0.3,2.2-1.7,3.5-0.7c0.8,0.6,1,1.5,1.4,2.3c-0.3,0.2-1.1,0.1-1.6,0.1c-0.4,0-0.7,0.1-1,0.4C91.6,50.7,92.9,51.3,92.9,52.3z
			 M96.9,42.8c-3.2-0.6-6.5-1.4-9.8-1.7c0.8,1.2,1.4,2.5,1.9,3.8c-0.7-0.1-1.3-0.9-1.6-1.5c-1.3-0.8-2.6-1.7-4.3-1.6l-0.2-0.1
			c0.5-0.4,1.2-0.5,1.7-0.9l-3.5-0.5c-0.1,0.3-0.4,0.4-0.7,0.6c0.2,1.1-0.1,1.9-0.6,3c0,0.5,0,1.1-0.2,1.5c-0.7,0.2-1.5,0.3-1.9,1
			c-0.1,0.3-0.3,0.4-0.5,0.5c-0.7,0.1-1.2-0.4-1.8-0.7C74.1,46.2,72.8,46,72,45c-0.3-0.4-0.3-0.9-0.9-1.2c-0.7,0-1.2,0.6-1.9,0.4
			l-0.9-0.4c0.2-1.5,2-1.1,2.7-2.3c0.9-1.8,2.2-3.5,3.1-5.3c0.7-1,1.5-1.9,2-2.9c-0.7-0.2-1-1-1.1-1.6c0-0.4,0.2-0.8,0.4-1.1
			c0.3-0.2,0.7-0.2,1-0.1c0.1,0.1,0.2,0.1,0.3,0.2c3.1-3,7-3.9,10.2-6.5c0.1,0,0.2,0.1,0.3,0.1v0.1l-3.4,2.7c-2,1.2-4.2,1.9-6,3.7
			h0.2c1.9-1.7,4.3-2.1,6.6-3.1c1.9-0.2,3.8-0.4,5.5-0.6c-0.2,0.3-0.6,0.3-1,0.4c-3.2,0.5-6.2,1.7-9.2,2.8c-0.5,0.6-1,0.9-1.5,1.5
			c1.3-0.1,2.5-0.6,3.8-1c-0.3,1-0.5,2.2-1.1,3.2c-0.4,0.4-0.7,0.8-1.1,1.2c1.4-0.2,2.9-0.6,4.3-0.9l1.2,0.1c0-0.8-0.1-1.6-0.1-2.4
			c-0.1-0.3-0.5-0.4-0.6-0.7c0.3-0.1,0.4,0.3,0.6,0.5c0.1,0.3,0.5,0.5,0.7,0.8c0.5,0.5,0.7,1.2,0.6,1.8c2,0.2,3.9,0.4,5.9,0.6
			c0,0.1-0.1,0.2-0.1,0.3c-1.9,0-4,0-5.6-0.2c-0.2-0.1-0.4,0-0.6,0c-0.1,0.2-0.3,0.4-0.3,0.6l3.3,0v0.1c-1,0.2-2,0.3-3,0.4L86,36.6
			c0.7,1.4,2.2,0.8,3.4,1.1l2.9,0.6c0.1,0.2,0.4,0.3,0.4,0.5c-1.6-0.1-3-0.4-4.5-0.6l-0.3,0.1c0.2,0.3,0.4,0.7,0.1,1
			c-0.3,0.3-0.9,0.3-1,0.9c2.7,0.4,5.5,0.6,7.9,1.6c0.6,0.4,1.3,0.5,2,0.9V42.8z"/>
		<g>
			<path d="M84.7,37.4c-0.6-0.2-1.6,0.3-1.8-0.5l2-0.3C84.8,36.9,84.8,37.2,84.7,37.4L84.7,37.4z"/>
			<path d="M84.8,38.3c0.1,0.5,0.4,1,0.3,1.6l-2.2-0.3c0.3-0.1,0.4-0.5,0.5-0.8l0.1-0.5C83.9,38.4,84.3,38.3,84.8,38.3L84.8,38.3z"
				/>
			<path d="M64,66.3c-2.3-0.5-4.4,0.2-6.3,1.2c0.3-0.7,1-1.6,1.9-1.6C61.1,65.5,62.7,65.4,64,66.3L64,66.3z"/>
			<path d="M67.8,81.9c0.1,0.3,0.2,0.7,0.2,1c-0.6,0.1-1.4-1.1-1.8,0c-0.1,0.4-0.2,0.8-0.5,1c-0.8,0-1.3-0.7-2-0.1
				c-0.4,0.3-0.6,0.9-1.2,0.9c-1.4-0.8-2.9-0.1-4.1,0.7c0-0.4,0.2-1,0.7-1.2c0.6-0.1,1.5,0.3,1.9-0.3c0.6-1.6,2.4-0.8,3.4-1.7
				C65.2,81.6,66.8,80.6,67.8,81.9L67.8,81.9z"/>
			<path d="M45.6,18c-1.3,0.1-3-0.7-4.2,0.2C40.3,18.9,39,19.1,38,20c-0.6,0.5-1.3,0-1.8-0.2c1.5-0.5,1.8-2.7,3.5-2.8
				C41.7,16.4,44,16.7,45.6,18L45.6,18z"/>
			<path d="M47.4,33.7c0.4,1.3,1.7,1.4,2.6,2.2c1.8,1.2,3.2,2.8,5.2,3.5l0.9,0.6c-2.3-0.4-4.8-2-6.6-3.9c-1.2-0.9-2.9-1.3-3.6-2.9
				c-0.5-0.4-1-0.6-1.6-0.8l-0.1,0.1c0.7,1,0.3,2.5,1.3,3.4l-1.7-0.6c-0.2-1.5-0.3-3-0.4-4.6C44.5,31.9,46,32.7,47.4,33.7L47.4,33.7
				z"/>
			<path d="M85.3,35.3c0.2,1.3-1.4,0.4-2.1,0.8l-1.5,0.2c-0.2-0.1-0.5-0.3-0.8-0.2c1.1-0.3,2.3-0.6,3.4-0.9L85.3,35.3L85.3,35.3z"/>
			<polygon points="43.9,36.7 43.8,35.9 45.3,36.4 43.9,36.7 			"/>
		</g>
	</g>
</g>
</svg>
