<?xml version="1.0" encoding="utf-8"?>
<!-- Generator: Adobe Illustrator 18.1.1, SVG Export Plug-In . SVG Version: 6.00 Build 0)  -->
<!DOCTYPE svg PUBLIC "-//W3C//DTD SVG 1.1//EN" "http://www.w3.org/Graphics/SVG/1.1/DTD/svg11.dtd">
<svg version="1.1" xmlns="http://www.w3.org/2000/svg" xmlns:xlink="http://www.w3.org/1999/xlink" x="0px" y="0px"
	 viewBox="0 0 100 100" enable-background="new 0 0 100 100" xml:space="preserve">

<g id="AREA_2">
	<path fill-rule="evenodd" clip-rule="evenodd" fill="#FFFFFF" d="M91.3,33.1c-0.1-1.1,2.5-9.1,2.8-10.9c0.3-1.8,2.1-14.6-3.2-17.1
		c-6.4-3-10.5-1.4-12.4-0.1c-2,1.3-7.4,5.7-7.4,5.7s-6-7-19.8-6C37.5,5.7,30.9,11,30.9,11S24.8,3,18.4,3c-4.6,0-5.7,0.3-7.9,1.8
		c-2.2,1.5-4.6,5.3-3.3,13.5c1.3,8.2,4.5,13.5,4.5,13.5s-3.9,4.3-3.6,9.6c0.1,2.5-0.6,7.7-1.1,9.8c-0.6,2.1-1.4,4.6,0,7.1
		c1.4,2.5,3.6,9.3,5.9,10.9c2.2,1.5,3.9,2.4,3.9,2.4s1.3,5.9,5.9,8.4c4.6,2.5,10,5.6,10,5.6s0.8,2.1,0.7,2.9c-0.1,0.8,1.3,2.8,2,3.2
		c0.7,0.4,6.3,5.4,9.1,5.9c2.8,0.4,12.1,0.8,13.8,0.1c1.7-0.7,5.3-2.5,6.1-2.5c0.8,0,3.1-1.1,3.5-2c0.4-0.8,2-5,2.4-6.1
		c0.4-1.1,1.3-2.5,1.3-2.5s4.3-2.8,4.6-3.2c0.3-0.4,3.2-3.6,3.2-3.6s8.6-6.7,9.3-8.1c0.7-1.4,2.5-3.8,3.1-4.9
		c0.6-1.1,2.9-9.6,2.9-12.1c0-2.5-0.1-11.6-0.6-12.4C93.4,39.4,91.4,34.2,91.3,33.1z"/>
</g>
<g id="AREA_1">
	<g>
		<g>
			<g>
				<path fill-rule="evenodd" clip-rule="evenodd" d="M19.3,5.3c2.6,0.8,4,1,6.5,2.5c0.8,0.3,0.9,1.4,0.9,1.8V10
					c-0.9-4.7-6.2-1.5-8.3-4.9l-4.7-0.3C15.9,4.6,17.3,3.8,19.3,5.3z"/>
				<path fill-rule="evenodd" clip-rule="evenodd" d="M10.3,11c-0.7,0.3-0.6,1-0.6,1.7l0.2,0.2l-0.2,0.3c-0.7-0.3-1-1.4-0.8-2.3
					c1-0.1,0.1-1.6,0.8-2.2c0.5-1.5,2.3-1.6,2.4-3.6C14.4,7.7,9.2,8.2,10.3,11z"/>
				<path d="M90.9,7.2c-0.5,0.3-1.8-0.9-2-1.7C89.7,6.1,90.7,6.2,90.9,7.2z"/>
				<rect x="48.3" y="5.5" fill-rule="evenodd" clip-rule="evenodd" width="1.4" height="0.3"/>
				<polygon points="53.4,6.1 53.2,6.4 53,6.5 52.5,5.9 52.6,5.8 53.2,6.4 				"/>
				<path fill-rule="evenodd" clip-rule="evenodd" d="M64.2,8.2v0.9c-0.9-0.5-1.7-1.5-1.6-2.5C63.5,6.7,64.1,7.3,64.2,8.2z"/>
				<polygon fill-rule="evenodd" clip-rule="evenodd" points="39.4,8 40,7.2 40.6,7.2 				"/>
				<path fill-rule="evenodd" clip-rule="evenodd" d="M21,9.4l0.3-0.2c-0.2,3.2,3.3,1.1,4.1,3.8c-0.8,2.5,2.4,1.6,0.5,3.9
					c-0.9-1.5-1.6,0.6-2.4,0.6c0.1,1.4-0.9,0.9-1.1,2.2c-0.7,1.3-3,1.7-3,3.6c-0.8,1.1-3,2.2-3.6,3.6v0.3c-0.7,0-0.9-1-1.4-1.4
					c1.6-1.3-1.4-1.6-1.1-3.1L12.1,19c0.5,0.1,0.6-0.3,0.9-0.6c-0.6-0.5,0-1.4-0.9-1.6c0.3,0,0.7-0.1,0.9,0.2
					c1.5-0.8-0.7-1.7-0.6-2.4c0.1,0.1,0.2,0.3,0.6,0.2c0-1.4,0.7-3.8,1.6-4.7l0.2-1.4c0.9-0.2,1.8,0.8,2.3-0.8
					C18.4,9.3,19.8,7.7,21,9.4z"/>
				
					<rect x="75.3" y="8.1" transform="matrix(-0.7071 -0.7071 0.7071 -0.7071 122.4018 68.7858)" fill-rule="evenodd" clip-rule="evenodd" width="0.3" height="1.9"/>
				<path fill-rule="evenodd" clip-rule="evenodd" d="M37.2,9.4c-1.3-1.5-1.1,2-2.2,0l1.8-0.8L37.2,9.4z"/>
				<path d="M84.1,9.4c1,0.9,2.1-1.8,3-0.2c-0.6,2.3,3.6,1.1,2,3c-0.2,1,1.5,1.5,0.6,2.5l-1.1,1c0.3,0.7,1,0.6,1.7,0.6
					c-0.5,1.5-0.5,3.9-2,5.3c0.6,1.8,0.2,3.8-0.8,5.7c0.1-0.3-0.5-0.6-0.6-0.8l-0.3,0.2c-2.1-1.5-2.3-5.5-5.2-5.5
					c0.2-2-3.1-2.2-2.5-3.6c-1-1.3-2.5,0.3-3-1.6c0.7-1.6-1.4-2.4-0.3-3.9c1.7-0.1,4.7-4.7,6.7-2.2l2-1.4V9.4z"/>
				<path fill-rule="evenodd" clip-rule="evenodd" d="M92.9,10.8L92.5,11l-0.8-2.2C92.4,9.2,92.7,10.1,92.9,10.8z"/>
				<path d="M65.8,10.5c-0.5-0.5-0.1-1.1,0.3-1.4C66.7,9.7,65.8,10,65.8,10.5z"/>
				<path d="M29.6,14.1c-0.6-1.1-0.9-3-2-3.9C28.2,11.5,32.2,12.3,29.6,14.1z"/>
				<path fill-rule="evenodd" clip-rule="evenodd" d="M72.7,11.9c-0.2,0.1-0.3,0.6-0.8,0.5l0.6-1C72.6,11.5,72.8,11.6,72.7,11.9z"/>
				<polygon points="14.9,12.1 14.1,11.6 14.4,11.6 				"/>
				<rect x="74.1" y="13.3" fill-rule="evenodd" clip-rule="evenodd" width="0.3" height="1"/>
				<polygon points="47.1,15.7 46.3,13.5 47.1,13.5 				"/>
				<path d="M9.1,15.5C9,20.9,11.3,24.9,12.5,30c0-2.9-3.3-4.5-2.5-7.7c-2.4-2.8-1.1-5.5-1-8.6l0.8,1.1L9.1,15.5z"/>
				<path d="M45.6,16.1c-0.1-0.2-0.2-0.5-0.4-0.6C45.3,15.7,45.5,15.9,45.6,16.1z"/>
				<path d="M57.3,24.5c0,0.2,0.1,0.4,0.3,0.6C57.5,24.9,57.4,24.7,57.3,24.5z"/>
				<path d="M65.6,17.1c-1.7-1.7-4.1,0.8-5.7,1.1c-0.8,1.8-2,3.1-3.1,4.7c-1.1-1.5,1.4-2.9-0.2-3.9l-0.8,1.1c-1.8-1,1.5-1.8,0-2.8
					c-0.9,1.1-1.3,2.6-2.3,3.8L53,20.6c0.3-0.9,0.2-2,1-2.8c-0.7,0.3-0.7-0.5-1-0.8l-0.6,0.6c-1-0.3-0.5-1.6-1.4-2.2l-0.3,2
					c-3.2,2.3,0.7-3-2.2-3.3c-0.7,0.8,0.5,3.1-0.8,4.7c-1.2-0.5-1.5-1.7-2.1-2.7c0.4,0.9,0.2,2.1-0.1,2.9c-1.1-0.3-0.8-1.8-1.1-2.8
					c-0.5,2.2,1,4.2-0.2,6.1c-0.8-2.1-0.8-4.5-1.1-6.7c-0.7-0.9,1.8-2-0.2-2c-0.3,2.9-5.3,6.7-1.1,9.4l1.7-1.1
					c0.2,0.8,0.6,1.6,0.5,2.5l2.5-0.8c1,0.9-0.2,2,0,2.4l0.8-2.2c1.5,0.9,1.6-1.4,2.8-2l0.6,0.6c1.3,0.6,1.1-0.8,2-1
					c1.6,1.1,1,3,3.3,3.8l0.5-0.8c0.3-0.4,0.8-0.3,1.1,0c-0.4-1.8,2.9-3.2,3-5.5l0.9,0.2c1.8-0.2,3.8-1.6,4.9-0.8L65.6,17.1z
					 M46.5,19.3l-0.5-1c0.2-0.1,0.3,0.1,0.5,0.2V19.3z M51,21.2l-0.3-1l0.6,0.8L51,21.2z M55.4,24.3h-0.2c-0.9-0.8,0.7-2.2-0.6-2.5
					c0.5,0.1,0.8,0.3,1.4,0.2C56.1,22.9,55.8,23.6,55.4,24.3z"/>
				<path d="M46.1,18.2l0.5,1v-0.8C46.4,18.3,46.3,18.1,46.1,18.2z"/>
				<path d="M92,22.6c0.7-2.4-0.2-6.2,0.9-8.8C93.2,16.7,92.1,19.9,92,22.6z"/>
				<path fill-rule="evenodd" clip-rule="evenodd" d="M38.8,17.4c1.1-0.1,0.6-1.4,1.1-2c0.6,1.7-0.9,3.8-2,5.5c0-0.2,1.5-2,0.6-3.1
					l-2,2c0.6-2.2-1.3-3.6,0.6-4.9l1,0.8l0.3-1.6L38.8,17.4z"/>
				<path fill-rule="evenodd" clip-rule="evenodd" d="M34.7,16v0.8c-1,0.3-1.8-1.3-3-1.4v3c-0.9-0.6-1.5,2.6-2.5,0.3
					c0,0.2,0.1,0.6-0.2,0.8c-0.6-0.1-1.3,0.2-1.7-0.3c0.1,0.9,1,1.7,0.3,2.5L26.8,21c-1.3,1-2.5-1.5-3.1-0.3l0.6,0.6
					c0.1,0.9,0.9,1.6-0.2,2.2c-0.5,0.1-0.6-0.3-0.9-0.5c0.3,1.1,1.8,2.4,0.6,3.6c2.3-0.3,4.7-5.3,6.9-5.9c0.3-0.6,0-1.5,0.8-1.8
					l0.9,0.8c0-1.5,2.1-0.8,3-1.4C36.1,17.4,34.9,16.7,34.7,16z"/>
				<polygon fill-rule="evenodd" clip-rule="evenodd" points="69.9,17.1 69.9,15.7 70.3,15.7 				"/>
				<path d="M69.1,20.2L69,19.9l0.5-0.6l0.2,0.2c-0.7,0.6-1.1,1.5-2,0.6l0.8-2C68.7,18.9,68.3,19.8,69.1,20.2z"/>
				<path fill-rule="evenodd" clip-rule="evenodd" d="M71.9,20.4c-0.5,0-0.7,0.6-1,0.8l1-2C72.3,19.5,72.3,20.2,71.9,20.4z"/>
				<path d="M73,22.4c0.8,0.6,1.4-0.9,2.2-1.1c-0.6,0.8-1.7,1.3-1.6,2.2c0.3,0.6,1,0.2,1.6,0.3c-0.9,1.8-2.3,0.9-3.6,0h-0.6l2.2-2.5
					C72.8,21.4,73.2,22,73,22.4z"/>
				<path d="M30.7,31.4c0.1,0,0.2-0.1,0.3-0.2l0.4-0.5C31.1,30.9,30.9,31.1,30.7,31.4z"/>
				<path d="M27,31.6l1.1,1.7l-3.3,1c-0.1,0.3,0.1,0.5,0.2,0.6l-1.4,1.4c0.7-0.2,2-0.3,2-1c2.2-0.3,3.5-2.3,5-3.9
					C29.4,32.1,27.9,29.7,27,31.6z"/>
				<path d="M36.4,22.4l-0.3,1.4c-0.2,0-0.7,0-0.8-0.3c-0.2,0.2-0.5,0.7-0.8,0.6c-0.5,0.8,1,1.5-0.3,2c-1.3-1.5-1.6,1.4-3,0.8
					l0.2,0.3l-1.6,2.2l1.6,1.4l0,0c0.8-0.8,1.7-1.5,2.8-1.8C33.7,25.9,40.1,25.8,36.4,22.4z"/>
				<path d="M70.1,38.6c0,0.1-0.1,0.2-0.1,0.3C70,38.7,70.1,38.7,70.1,38.6z"/>
				<path d="M73.6,35.5c-0.3-0.7,0.5-0.9,0.8-1.4c-1.1,0.3-1.7,0-2.8-0.2c-0.2-0.8,0.3-1.3,0.8-1.7c-0.1-0.5-0.7-1.3-1.4-1l-0.2-2.3
					l-0.6,0.6c0.3,0.2,0.2,0.6,0.2,0.8c-3,2.1,0.1-2.3-2-3.2c-3.3,0.3-2.9-4.7-6-4.5c-1.7,2.1,0.7,3,0.8,4.9
					c0.1-0.1,0.2-0.3,0.6-0.2c0.1,0.2,0.6,0.5,0.5,0.8c1.4,1.1,5,2.6,2.3,4.9c-0.2-0.2-0.7-0.3-0.6-0.8h-0.6c0.9,0.5,0.2,0.9,0,1.4
					c-0.5-0.1-1,0.2-1.4-0.2c0-0.6-0.1-1.3,0.2-1.7l-1.8,0.6c0.1-1-2.4-0.1-2.3-2c-0.8-0.3-1-0.9-2.2-0.2c0.2-1.1-1.6-1.8-0.6-3
					c-2.5,1.6-2.4,5.7-2.8,8.5c-0.5,0.5-0.3,1.6-1.4,1.4v0.6c-0.1,1.1,2.9,2.3,0.6,3l2.2-0.6l1.1,5c0.7-2.1-1.4-3.6-0.2-5
					c-0.3,0-0.7,0.1-0.9-0.2c0.1-0.5-0.2-1,0.3-1.4c2.5,1.8,4.1-2.3,6.3-3c2.2-0.7,3.7,1,5.3,1c0.6,0.4,2,1.5,2,2.2
					c0.1-0.2,0.2-0.4,0.5-0.5c-0.6-1.4-2.1-1.6-2-3.3L68.3,35c-0.7-0.1-1.5-0.6-1.6-1.4c0-0.8,0.9-0.9,1.6-0.8
					c0.8,0,0.7,0.9,1.1,1.4l0.2-0.2c0.8,1.3,3.1,2.4,4.7,2.4v-0.6C74.1,35.8,73.7,35.9,73.6,35.5z M65.6,27.5H65
					c0.2-0.2,0.2-1.3,0.8-0.5C65.9,27.3,65.7,27.4,65.6,27.5z"/>
				<path d="M69.5,39.1c0.3,0,0.4-0.1,0.5-0.3C69.9,38.9,69.7,39,69.5,39.1z"/>
				<path d="M75.4,28.1c-0.3-1.6-0.2-3,1.7-3.6C75.3,25.3,78.2,27.6,75.4,28.1z"/>
				<path d="M22.7,25.9c-0.9,0.6-2.5,1-1.1-0.6L22.7,25.9z"/>
				<path d="M47.7,33c0.3-3.6-2.5-5.2-3.9-7.3c0.5,1-0.9,1.8-1.6,1c-0.5,1.3,0.7,1.8,1.1,2.8c-1.3,0.9-2.3-1.8-3.3-0.6l0.2,2
					c-0.6,0.5-0.8,2.2-2,2.2c0.1,2.1-3.1,0.5-3.6,2.5c-1.4-1.4-2,1.7-3-0.6l0.2-0.2c-0.3,0.1-0.9-0.2-1,0.2c0.7,0.6,1.4,1.6,0.5,2.5
					c-0.5-0.3-1.4-0.5-1-1.4h-0.6c0.1,0.2-0.1,0.3-0.2,0.6c0.3,0.5,1.3,0.8,1,1.6c-0.2,0.5-0.7,0.2-1,0.2c-0.5,0.1-0.7-0.3-0.6-0.8
					c-0.2,0.3-0.6,0.3-0.8,0.3l0.8,1.4c-0.7,1.7-2.6,2-4.1,2.4c0.2,0.3,0.8,0.7,0.8,1.1c0,0.7-0.5,1.6,0.8,1.6
					c0.6-0.5,1.7-0.6,1.7-1.6c2.1,1-0.6,2.5-0.3,4.1c-0.6,0.6-1.6-0.1-2.2,0.6c0.3,0.1,0.2,0.5,0.2,0.8c2.1-2,3.9-0.6,5.5,0
					c-0.7,0.4-0.9,1.8-1.4,2.2c1,0,2.4-0.3,2.8,0.8c-0.2,0.9-1.1,0.2-1.6,0.8h1.1c0.7,2.5,2.9-0.1,4.1,0.6c0.1,0.5-0.5,0.6-0.6,0.8
					c1.6,1-0.8,2.3-0.6,2.8c1.5,0.1,1.8-0.9,3-1.6c0.9,1-1.5,1.8-0.8,2.8l2,0.2c-1.7-0.7-0.2-2.2-0.2-3.2c-0.3,0-0.7,0-0.9-0.3
					c0-0.7,0.3-1.1,0.9-1.6c-1.8-3.9,4.7-7.3,0.5-10.2c1-1.7,2.3,1.7,2.5,0.6v-0.3c0.3-0.2,0.6-0.7,1.1-0.5
					c-0.3-0.2-0.5-0.7-0.9-0.6c0.1,0.2-0.1,0.3-0.2,0.6l-1.4-1.4c-2-1-3.8-1.4-5.5-2.3c-1.7,1.3-2.1,4.1-3.9,5.9
					c-1,0.2-1.8-1.1-2.4-1.4l0.6-0.6l0.2,0.2c0.2-1.4,0.3-3.4,2-3.8c-0.3-1,1.6-1.4,0.8-2.2c1.6-0.3,3.7-1.6,4.9,0
					c2.6,0.2,5.3,1.8,7.7,3.2c0.6,0.9,0.6,1.8,0,2.8l-0.2-0.2c-0.2,1.2-1.5,2.6-2.1,2.3c0.2,0.2,0.1,0.5,0.1,0.7h1.7l-0.3-0.2
					c2.4-1.7,0.8-5.6,3.6-6.7C47.5,36.9,49.1,34.7,47.7,33z M36.1,40.3c0.8,0.1,1.8-0.2,2.5,0.2c-0.9,0.5-2,0.7-2.8,1.4
					c0,1.1,0.8,1.4,1.6,2c0.7-0.1,1.5,0.2,2-0.2v0.8c-2.1,0.9-4-0.5-5.3-1.7C33.6,41.3,35.3,40.7,36.1,40.3z M38,42.4h-0.6v-0.8
					c0.3,0,0.7-0.1,0.8,0.2C38.4,42.1,38.2,42.3,38,42.4z M33.1,49.5c0.2,0,0.3,0.2,0.6,0.3l-0.9,0.8C32.3,50.3,32.5,49.8,33.1,49.5
					z"/>
				<path d="M27.2,49.4c0.6-0.1,1.2-0.3,1.8-0.7C28.3,48.1,27.9,49.2,27.2,49.4z"/>
				<path d="M8.6,52.9c0.1-1,0.2-2.1,0.3-3.3C8.3,50.6,8.1,51.8,8.6,52.9z"/>
				<path d="M34.9,63.8c0.1-0.7,0.3-1.4,0.6-2.1C34.4,62.2,34.8,63,34.9,63.8z"/>
				<path d="M40.1,67.3c-0.6-0.8-0.3-1.6-0.7-2.6c-0.4,0.6-0.2,2.3-0.9,3.2C39,67.5,39.7,67.1,40.1,67.3z"/>
				<path d="M47.7,79.6c0.2,0.1,0.4,0.2,0.8,0.2C48.6,79.4,48.2,79.5,47.7,79.6z"/>
				<path d="M34.9,63.8c-0.1,0.3-0.1,0.7-0.2,1C35,64.5,35,64.2,34.9,63.8z"/>
				<path d="M92.9,50.9l-0.3-8.3c-0.5-0.9-0.3-2.9-2-2.8c-2.1,1.7-2.2,4.4-4.9,5.3c-0.9,0.2-1.5-0.3-1.6-1.1
					c0.2-0.8,1.1-0.2,1.6-0.8c-1-0.9,0.7-1.4,0.8-2L81,43.8l1.4,1.1c-0.2,0.2-0.6,0.7-1,0.5c0.1,1-2,0.8-0.8,2
					c-0.2,0.3-0.7,0.5-0.6,0.8c0.5,0.3,0.7,1.1,1.4,0.9c-1.3-2.1,2.1-2.6,2.4-3.9c0.7,0.3,1.7,1,1.7,2c-0.2,0.3-0.6,0.2-0.8,0.2
					c-0.6,2.2,3.2,1.5,1.8,3.6c-1.6,1-2.4-1.7-3-1.4l0.6,0.6c0.3,0.8,0.9,2.2,0.2,2.8c-0.9,0.3-0.6-0.8-1.4-1v3.6
					c-1.6-0.6-2.4-2.1-3.6-3.1c0.6,1.6-1.1,0.5-1.1,1.4l0.6,0.6c-0.2,1,1.7,2,0.3,2.8c-1.3-0.9-1.3-3-2.8-3c0.7,2.1-1.1,2.1-2,3
					c-3.9,0.7,2.6,2.1,0.6,4.7c-1.3-0.2-1-2-1.4-2.5c-0.7,1.3,0,2.1-0.6,3.3c-0.9-2.1-2.9-2.8-3.9-4.9c0.8,2.2,2,4.9,1.1,7.1l-2-2.8
					c0.9,2,0.7,5.2-0.2,7.2c-1.8-1-1,2.4-2.8,0.8l0.2,0.8c-0.2,0.2-0.5,0.7-0.8,0.6l0.6,0.6c-0.8,1-3.1,2-2.3,3.8h-0.2l-0.2,4.1
					c2.5,2.4-1.1,4.2-1.1,6.7c-1.6,0.7-2.9,1.7-4.7,3.3c-2-1.3-3.8,1.1-5.5,0c-0.8,1.6-1.3-0.8-2.4,0c-0.6,0.9-1.1,0.4-1.7-0.3v1.1
					h-0.2v-1.1h0.2c-0.4-0.5-0.8-1-1.3-1L45.2,89c-1.1-0.6-1.4-1.8-2.8-1.4c0.2-2.2-3.4-2.3-2.4-4.5c-0.8-1.6,0.3-4,0-5.7
					c0.2-1.1-1.3-1.7-0.3-2.8c1.6,1,4.1,0.6,5,2l0.5-0.6c0.6,0,0.8,0.6,1.1,0.8c0.5,0.9-0.7,2.2-1.1,1.6c0.2,1.8,1.6,1.4,2.6,1.2
					c-0.6-0.5-0.7-1.5-0.8-2.2c1.1-2,3.1,0.2,4.7-0.8c1.4-0.2,3.4-0.8,4.1-0.6c0.2,0,0.6-0.1,0.8,0.2c-0.3,1.1-0.5,2.9-1.7,3.1h0.9
					c0.7,0.2,1.3,1,1,1.8c-1.8,1.3-3.4,1.3-5.5,1.1v-0.2c-1,0.9-2.3-0.7-3,0.2c-1-0.5-2.6-0.5-3.3-0.8l1.1,1.4
					c3.2,1,5.7,0.3,9.6,0.6c1.4-0.7,2.3-2.1,3-3.3L57.9,81c-3.2-1.1,0.1-3.6,0-5.5c-1.8,0.2-3.1-0.6-4.7,0.2c-3,0.2-6.1,1.1-8.5-0.8
					c-3.3,1.4-4.6-2.1-7.5-2.4c0.1-0.5-0.2-0.9,0.2-1.1c0.3,0.2,0.5,0.7,0.8,0.6l-1.6-2.2c0.3-0.2,0.4-0.5,0.5-0.8
					c-0.9,0.1-1.3-1.9-2.5-2c0-0.8,0-1.5,0.1-2.2c-0.2,0.2-0.4,0.3-0.9,0.5c-0.2,0.5-0.9,0.5-1.1,0c0-0.2,0-0.7,0.3-0.8
					c-1.4-0.7-2-1.1-2.8-2.5c0.6,0,1-0.9,1.6-0.2v0.2c0.8-0.1,1.8,0.6,2.5-0.8c-0.3-0.6-1.4-0.8-1.1-1.6c0.3-0.2,0.5-0.7,0.8-0.6
					c0.3-0.9-0.8-1.3-0.8-1.4L32,59c-0.1-0.2-0.7-0.5-0.6-0.8c-0.8,0.2-2.9,2.1-4.1,1c-2.8,3.6,0-1.7-1.6-1.6c0.3-1.1,2.4-0.2,2-0.6
					c-0.1-0.1-0.3-0.2-0.3-0.6c0.3-0.1,0.5-0.6,0.9-0.5c0.5,0.1,0.1,0.7,0.2,1l0.6-1c-1,0.1-1.8-0.2-2.5-0.9c-1.4,0.6-2,1.1-3.3,1.7
					c-0.8-1.7,2.3-1,2-3.1c-0.9-0.1-2.2,0.5-2.8-0.5c-0.4-3.7,2.3-3.3,4.7-3.8c-0.2,0-0.3,0-0.6-0.1c-0.1-0.2-0.7-0.5-0.6-0.8
					c-0.7,0.6-1.6,0.9-2.8,0.8c-0.5-0.1-1-0.6-1-1.1l-1.7,2c-1.1,1-0.9,3.2,0.9,3.3c0.3,1.8-0.6,3.2-1.1,4.7c-1.1-1.4-1.5,1.6-2.5,2
					l-0.5-0.6c0.3-1.7,1.3-3.6,2.4-4.7c-1.3-0.2-0.7,1.3-1.6,1.6c-2-2.2,2.6-3.7,0.2-6l-1,0.5c-0.2-0.5-0.4-1-0.6-1.6
					c-0.5,0.4,0.1,1.5-0.8,1.3v-1.4h0.8c-0.6-1.9-0.6-4.3,0.6-6.1L16,44.4c-0.5-0.1-1,0.2-1.4-0.3c-0.2-0.6,0.3-0.9,0.6-1.4
					l-1.4-0.2c0.7-0.9-0.2-2.1-0.3-2.8c-0.9-0.6-0.6-2.9-0.2-2.8c-2-0.5,0.2-2.5-1.6-3c-0.6,0.8-0.5,2.2-1.7,2.4
					c-1.6,0.9,0.9,2.9-1,3.1C8.8,42.2,9,46,8.8,49.6c0.3-0.5,0.7-0.8,1.1-1.1c0,1.4,1.5-0.6,1.4,0.8c0.6-0.6,1.3-1.4,2-0.8
					c-1.6,1.6-0.7,4.2-3.3,4.7c0.3,1.5,2,4.4-0.2,5.7l-2-3.3c-0.5,2.6,1.6,4.2,2.5,6.3c0.7-1.1,2.4-0.7,3.2,0.3c2,2.6-2.6,1.1-3,2
					l4.4,4.9l0.3-0.3c0.1,1.5,2.6,1.3,2.4,2.8c0.6,2.9,2.4,4.9,4.7,6.7c0.8-1.7,0.3-2.9,0.8-4.7c2.9,0.9-0.9,6.1,2.3,6.1
					c-0.2-0.6,0.3-0.9,0.5-1.4c0.8-0.3,0.9,0.6,1.4,0.8c1.3-1-1.3-3.2,1.1-3.3c0.3,1.8,1.8,4.2,0.2,5.9l-1-1.1
					c-0.8,1.5,3.4,1.4,3.8,3.6l0.3-0.2l0.6,0.6c4.5-2.9,0.9,4.1,1.6,4.1l0.6-0.8c1.8,0.2,0.1,1.8,1,3h0.6c1.3,0.8,1.6-0.1,2.2-1.1
					c0.3,0,0.5,0.2,0.6,0.3c0,0.7,0.1,1.7-0.6,2c0.2,1.1,0.7,0.8,1.4,0.8l0.2,1.3c0.3,0.2,0.5,0.4,0.7,0.6l0.9-0.9v1.5
					c0.7,0.3,1.5,0.5,2.2,0.6l0.2-0.2c0.1,0.1,0.2,0.2,0.3,0.3c0.1,0,0.2,0.1,0.4,0.1c0.9-0.6,2.1-0.1,2.7,0.4c0,0,0,0,0,0l1.7-1.8
					c0.2,1.4,1.4,0.9,2.1,2.1c0,0,0,0,0.1,0c0.5-0.8,1.1-0.5,1.8,0c1.1,0,2.2-0.1,3.2-0.3c0.3-0.1,0.7-0.2,1-0.3
					c0.5-1,1.2-1.8,2.9-1.5l-0.3-0.3c-0.1-0.5,0.2-0.8,0.6-1l0.6,0.8c0.6-1,1.3-0.4,2,0c0.9-0.3,1.7-0.8,2.4-1.3c0,0,0,0,0,0
					c0.1-0.2,0.3-0.3,0.4-0.3c0.2-0.3,0.3-0.5,0.5-0.7c-0.2-1.2,0.1-2.7,1-3.6c1.1-0.1,1.1-2.1,0.8-3c1-1.7,1.8-0.7,3.1-2.5
					c2.3,0.2,2.3-2.5,4.1-2.8c0-3.3,4.1-3.9,5.7-6.1c-0.1-1.3,0.5-1.2,1.2-0.9c0-0.1,0.1-0.1,0.1-0.2c0.4-0.4,0.8-0.7,1.2-0.9
					c-0.2-0.4-0.4-0.6,0.2-1c2.4-0.7,3-3.7,3.9-5.9l1,0.9l0.6-1.1c0.3,0,0.7-0.1,0.8,0.2c0.6-2.6,2.5-6-0.2-8.3h2.2
					c0.2-0.9-0.7-2.5,0.8-2.8L92,51.5C92.3,51.4,92.4,50.8,92.9,50.9z M86.2,48.5h-0.6v-0.8c0.2-0.1,0.5,0.1,0.6,0.2V48.5z
					 M11.3,41.1v0.8h-0.6C10.7,41.5,10.9,40.9,11.3,41.1z M10.7,38.9c0.3,0.1,0.3,0.5,0.3,0.8c-0.2,0.3-0.6,0.2-0.8,0.2L10.7,38.9z
					 M11.9,46.6l-0.6-0.8l-0.6,1.6c-1.5-0.7,0.7-1.8,0.3-2.8c0.8,0.3,0.9-0.8,1.6-0.8C12.7,44.5,12.6,45.9,11.9,46.6z M11.7,57h0.5
					c0.3,0.3,0,1-0.5,1.4V57z M12.1,60.9c-0.2-0.6-1.8-0.1-1.6-1.4C11,61,13.3,58.8,12.1,60.9z M13.5,41.3L13,41.9l0.2-1.6
					C13.7,40.5,13.5,40.9,13.5,41.3z M16.2,67.8L16,68c-0.7-1.5-3.4-1.4-3-3.6c1.4,0,2,1.6,3.6,1.1C17.4,66.6,14.8,67,16.2,67.8z
					 M27.3,63.1c1.3,0.3,0.2,1.7-0.5,2.2l-1.1,1.1C24.6,64.9,26.3,63.5,27.3,63.1z M22.3,55h0.3c0,0.3,0,0.7-0.3,0.9V55z M21.5,50.5
					h0.6c0,0.2,0,0.6-0.3,0.8h-0.2V50.5z M19,71.9l-0.5,0.6c-0.3-2-0.9-4,0.8-5c2.3,1,0.1,3.7,0.8,5.3C19.7,72.7,19.5,72.1,19,71.9z
					 M20.1,73.5c0.6,0.5,0,1.3,0.6,1.7C20,75.1,19.7,74,20.1,73.5z M21.8,77.1v-4.1l0.6,0.9L21.8,77.1z M22.9,63.7
					c-0.6-0.5,0.5-1.2,0.2-1.7l-0.5-0.3c0.3,0.1,0.4,0.2,0.5,0.3l0.9,0.5C23.7,63,23.5,63.5,22.9,63.7z M24.5,59.5
					c-0.8-0.9-1.7,0.5-2.2,0.8c0.1-0.3-0.3-0.6-0.6-0.8c-0.7,0.7-1.4,1.5-2.4,1.4c-0.3-2.2,1.8-2.8,2.8-4.1c0.6,0.3,1.1,0.5,1.6,1
					c0.9-0.9,0.7,0.7,1.7,0.3C25.7,58.8,24.9,59.1,24.5,59.5z M25.1,75.7l-0.2-1.6l0.6,1.4L25.1,75.7z M26.2,74.1l-0.3-0.8
					c0.3-0.1,0.5,0.1,0.6,0.2C26.6,73.8,26.3,74,26.2,74.1z M27,68c-0.6,0.3-1.4-0.9-1.4,0.3h-0.6c-0.2-0.8,0.8-1.1,1.1-1.7l0.6,0.6
					c0.9-0.5,0.7-1.8,1.8-1.6C28.6,66.6,27.7,67.3,27,68z M29,61.9c-0.2-0.5,0.5-0.9-0.3-1.6c0.7,0.5,2.1,1,1.1,2.2
					C29.4,62.5,29,62.3,29,61.9z M31.4,83.2c-1-1.8-2.3-4-2.2-6.5c2.5,0.5-0.6,4.5,2.8,4.6C32.2,82,31.6,82.6,31.4,83.2z M32.3,67
					h-0.6v-0.6h0.6V67z M40.6,92.6h-0.3V90h0.6L40.6,92.6z M44.7,94.5h-0.3v-0.9h0.3V94.5z M55,96.5c-0.6-0.6-1.2-1.5,0.2-1.8
					l0.4,1.7C55.3,96.5,55.2,96.5,55,96.5z M63.1,92l-0.5-1.1h0.5V92z M65.8,85.9l-0.2,0.3L65,84.5C65.7,84.4,65.9,85.7,65.8,85.9z
					 M69.5,78l-0.3-0.9h0.3V78z M71.7,76.3h-0.3v-1.4h0.3V76.3z M72.2,78.2c-0.3-0.5-0.7-1.6,0.2-2C73.2,77,72.2,77.5,72.2,78.2z
					 M74.6,62.9c-1,0.5-1.3-0.7-1-1.4c0.7-0.3,0.8,0.7,1,1V62.9z M75.8,57.8c1,0.3,0.3,1.7,0.6,2C75.9,59.4,75,58.5,75.8,57.8z
					 M76.8,74.9c-0.2-0.1-0.8-0.9-0.2-1.4h0.6L76.8,74.9z M78.2,58.7c-0.1-0.1-0.2-0.2-0.2-0.3l0,0l-0.2,0.3c-0.9-0.2-1.3-1.3-1.4-2
					c1-0.1,1.2,0.9,1.6,1.6L78.2,58.7c0.2-0.3,0.6-0.3,0.9-0.3c0.2,0.7,1.4,1.4,0.5,2.2L78.2,58.7C78.2,58.7,78.2,58.7,78.2,58.7z
					 M81.5,71.1l-2.4,1.6c-0.6-0.3-0.2-1.1-0.3-1.6c1.3,0,1.8-0.9,2-2C82.2,69.2,81.3,70.1,81.5,71.1z M84.6,67.8h-0.6V67h0.6V67.8z
					 M86.8,63.9h-0.6v-0.8c0.2-0.1,0.3,0.1,0.6,0.2V63.9z M86.8,59.2v-1c0.2-0.1,0.3,0.1,0.6,0.2C87.5,58.8,86.9,59,86.8,59.2z
					 M88.2,55.6h-0.6v-0.8h0.6V55.6z M89,61.9h-0.2v-1.8C89.6,60.3,89.3,61.5,89,61.9z M91.7,43.2h-0.6v-0.8
					c0.2-0.1,0.5,0.1,0.6,0.2V43.2z"/>
				<path d="M22.7,61.7l0.5,0.3C23.1,61.9,23,61.8,22.7,61.7z"/>
				<path d="M78.2,58.7C78.2,58.7,78.2,58.7,78.2,58.7L78,58.4C78,58.5,78.1,58.6,78.2,58.7z"/>
				<path fill-rule="evenodd" clip-rule="evenodd" d="M89.6,33.4v0.8c-0.3-0.1-0.5,0.3-0.8,0.6c0.3,0.7,0.2,2,1.4,2.2h0.3
					c-0.9,0.9,0.3,1.7-1.1,2.5c1.1-3.8-3.1-6-2.8-9.6l-1.1-1.4l3.7,1.6c0.5-1.5,0-3.3,1.4-4.4C92.7,28.5,87.4,30.8,89.6,33.4z"/>
				<path d="M20.1,30.8c-0.7,0.9-2.4,0.5-2.8,0.8c0.3,0.1,0.7-0.2,0.6-0.5v-0.9c0.2,0,0.3,0.2,0.6,0.3c0.1-0.3,0.6-0.5,0.5-0.8
					l-0.8-0.9c2.1,1,0.7-1.6,2.2-1.6C20.5,28.2,19.3,29.7,20.1,30.8z"/>
				<path fill-rule="evenodd" clip-rule="evenodd" d="M23.1,28.9L21.8,30v-1.4h0.3v-0.8C22.8,27.5,22.9,28.5,23.1,28.9z"/>
				<path d="M80.1,31.4c-0.2,0.5-1.1,0.7-0.8,1.4c1.5,1.7,2.3-1.7,3.9-1.6c0-0.7-0.2,2.2,0.8,1.4c-0.3,0.2-0.3,0.8-0.8,1l-1.1-0.8
					c-0.2,0.5-1.1,0.7-0.8,1.4l0.6,0.6c-2.3,0.6-3.1-2-4.1-3.3l0.5-0.6C78.8,32.3,79.6,30.4,80.1,31.4z"/>
				<rect x="18.5" y="33.4" fill-rule="evenodd" clip-rule="evenodd" width="1.4" height="0.2"/>
				<path d="M15.4,37.5c-0.3,0.6-0.8,0-1-0.3C14.8,37.3,15.2,36.9,15.4,37.5z"/>
				<path d="M71.9,40.9l-0.2,0.4C71.9,41.1,71.9,41,71.9,40.9z"/>
				<path d="M71.3,50.2C71.3,50.5,71.4,50.4,71.3,50.2L71.3,50.2z"/>
				<path d="M74.1,42.7l-2.2,0.6c-0.7-0.9-2.5-0.3-2.4-2c0.6-0.5,1-1.5,1.8-1.4c0.2,0.4,0.5,0.7,0.6,0.9l0.6-1.2
					c-0.2-0.5-0.8-0.5-1.1-0.8c-0.1,0.8-1.3,1.4-2.2,1.6c-1-0.9-3-0.9-3-2.8c-2.5-0.1-4.5,2.2-5.9,3.9l1.4-0.8
					c0.3,1.3,1.4,2.2,2.8,2.2c0.7-0.3,1.7-1,1.7-2c-0.5-1.3-3-0.3-2.2-2c1.3-0.3,2.8,0.3,3.8,1.4c0.8,1.5-1,2.9-2.2,3.6
					c-1.5,0.8-3.1,0-3.9-1.4c-0.2,0.2-0.3,0.7-0.8,0.6c-0.6,1.7,2,2.1,1.7,3.6c-1.3,2.6,2.8,5.7,3.6,8.6c-0.2-1.4,0.6-2.6,2.2-2.5
					l-0.6-1.6c0.3,0.1,0.9-0.2,1.1,0.2v-0.6c0.5-0.5,1.3-0.1,2-0.2c0-0.3-0.1-0.7,0.2-0.8c0.1,0,0.2,0.2,0.2,0.3c0,0,0,0,0-0.1
					l0.3-1l-0.6,0.5l-1.1-1.6C69.8,45.1,73.4,45,74.1,42.7z M64.4,41.3c0.1,0.3-0.1,0.5-0.2,0.6l-0.6-0.8
					C64,41.1,64.3,40.9,64.4,41.3z M70.3,49.5c0.1,0.3-0.1,0.5-0.3,0.6h-0.5v-0.8C69.7,49.3,70.1,49.2,70.3,49.5z"/>
				<path fill-rule="evenodd" clip-rule="evenodd" d="M19.6,38.1c-0.5,0.1-0.7,0.7-1.4,0.5v-0.5C18.9,37.6,19.1,38.9,19.6,38.1z"/>
				<path d="M84.1,39.4l0.8-0.6c-1.4-0.1-2.1,2.4-3.6,1.4c0.2-0.7-0.3-0.9-0.6-1.4l2.8-0.6C83.2,38.8,83.7,39.1,84.1,39.4z"/>
				<path fill-rule="evenodd" clip-rule="evenodd" d="M53.4,41.3c-0.3,0.1-0.5-0.3-0.8-0.5L52,41.3l0.3-1.6
					C52.3,40.1,53.5,40.8,53.4,41.3z"/>
				<path fill-rule="evenodd" clip-rule="evenodd" d="M49.1,41.3c-0.1,0.1-2,0.1-1.6-1l0.5-0.3C47.6,40.9,48.5,41.1,49.1,41.3z"/>
				<path fill-rule="evenodd" clip-rule="evenodd" d="M20.4,40.5c0.1,0.2-0.1,0.5-0.2,0.6l-0.6-0.6H20.4z"/>
				<path d="M59.3,44.6c-1,2.5,2.2,4.1-0.6,5.9c-1.8,1.1,1.4,2.6-0.8,3.6c-1.4-1.5-0.6-2.3,0-3.9c0.1,0.3,0.5,0.3,0.8,0.3
					C60.2,48.4,56.7,46.2,59.3,44.6z"/>
				<polygon fill-rule="evenodd" clip-rule="evenodd" points="20.7,46.6 20.1,45.4 21.5,45.8 				"/>
				<polygon fill-rule="evenodd" clip-rule="evenodd" points="41.4,47.9 41.9,47.4 43,47.4 				"/>
				<path fill-rule="evenodd" clip-rule="evenodd" d="M80.1,49.9c0.1,0.2-0.1,0.3-0.2,0.6l-0.6-0.6H80.1z"/>
				<path d="M27.3,51.5c-0.1,1-0.2,0.8-1.4,0.8C26.1,51.7,26.6,51.4,27.3,51.5z"/>
				<path d="M74.1,54.8c0.8,0.8-1.4-0.9-0.2-1.6L74.1,54.8z"/>
				<path fill-rule="evenodd" clip-rule="evenodd" d="M51.6,55.4v0.8c-0.7,0.1-1.3-0.7-1.7,0.2c0,0.6,0.1,1.1,0.6,1.4
					c-0.1,0.6-2-1.4-2.2-2.4V55l1.4,0.6l0.8-2C51,53.9,51.9,54.5,51.6,55.4z"/>
				<path fill-rule="evenodd" clip-rule="evenodd" d="M60.9,60.1l-0.8,1c-1.1-0.2-0.5-3.2-2.2-4.4c-2,0-3.7,1.1-4.9,0.2v-2.2
					c0.6,1.1,1.6,0.1,2.4,0l0.3,1.6l2.8-0.2v-2C60.5,55.7,58.8,58.6,60.9,60.1z"/>
				<path d="M65,58.4c0.3-0.3,0.8-0.6,0.6-1c-0.5,0.8,1,1.6-0.2,1.8C64,59.5,64.4,57.8,64,57c-0.1-1.3,0.2-1.6-0.3-2.8
					C64.8,55,63.5,57.5,65,58.4z"/>
				<path fill-rule="evenodd" clip-rule="evenodd" d="M43.8,56.8c0,2-2.1,0.6-1.8,2.8h-0.6C42.1,58.5,42.4,56.4,43.8,56.8z"/>
				<path fill-rule="evenodd" clip-rule="evenodd" d="M55.4,60.3c-2-0.6-3.6,0.1-5.5,0.2v-0.5C51.7,60.1,53.8,59.9,55.4,60.3z"/>
				<path d="M49.1,71.5l1.3,1C50.4,71.6,49.7,71.6,49.1,71.5z"/>
				<path d="M49.1,71.5L48.5,71c0,0,0,0.1,0,0.1C48.6,71.3,48.9,71.4,49.1,71.5z"/>
				<path d="M52.4,72.9c0-0.1,0-0.1,0-0.2C52.4,72.8,52.4,72.9,52.4,72.9z"/>
				<path d="M57.3,60.6l-0.2,0.3l0.2,0.2c0,0.7,0.1,1.4-0.6,1.7c-0.9-0.7-2.8-0.6-4.1-0.6c-2.2,0-4.2,1.1-6.3,0.6
					c-0.7-1.6,1.7-2.1,1.6-2.3l-2.4,1.4c-2,2.1-0.7,5.5,0.6,6.7l0.2-0.2c0.9-0.1,1.6,0.9,2,1.6l-0.5,0.5l0.7,0.6
					c0.3-1.1-0.3-1.5,0.3-2.4c0.8-0.1,1.4,0.2,1.8,0.8c0,0.3,0.2,0.9-0.2,1.1c0.7,0.4,1.9,1.2,2,2.2c0.1-0.8,1.2-1.3,1.6-1.4h-0.2
					c-1.4-1.1,0.1-2.5,0.6-3.6c0.2,0,0.6-0.1,0.8,0.2c-0.1,0.7,0.2,1.5-0.3,2h0.6l0.3-1.6l1.4,0.2c0.5-1.5,2-1.1,2.2-2.8
					C60.6,63.3,58,62.4,57.3,60.6z M46.3,66.4c-0.9-0.6-1.3-1.8-1.1-2.5c0.1,0.8,0.8,1.4,1.4,2c1.7,0.1,2.8-3,4.5-1.1
					C50.7,66.5,47.9,65.8,46.3,66.4z M51.8,70.5h-0.6v-0.8c0.2-0.1,0.5,0.1,0.6,0.2V70.5z M57.9,66.1c-1.8-0.1-2.9-0.6-4.5-1
					c-0.1-1.3,1.6-1.3,2.3-0.8c0.6,0.6,1.1,1.4,2.2,1V66.1z"/>
				<polygon points="47.7,70.5 47.8,70.4 47.5,70.2 				"/>
				<path d="M40.6,61.5c0.2,0.1,0.3,0.6,0.8,0.5c0.3-0.1,0.2-0.5,0.2-0.8c1,0.7-0.7,0.9-0.2,1.7c-0.7-0.5-1.1,0.5-2,0
					c0.8,0,1-1.4,0.6-2l0.8,0.2L40.6,61.5z"/>
				<path fill-rule="evenodd" clip-rule="evenodd" d="M67,62.9v0.5l-0.6-0.8C66.6,62.4,66.8,62.6,67,62.9z"/>
				<polygon fill-rule="evenodd" clip-rule="evenodd" points="58.7,68.8 58.9,69 58.1,70.1 57.9,70 				"/>
				<polygon fill-rule="evenodd" clip-rule="evenodd" points="46.9,73.3 47.1,72.1 47.7,72.7 				"/>
				<polygon fill-rule="evenodd" clip-rule="evenodd" points="56.2,74.1 56.5,72.1 57.1,72.1 				"/>
				<path d="M59.5,78.2c-0.1-1,0.5-2.4-0.6-3h0.6V78.2z"/>
				<path fill-rule="evenodd" clip-rule="evenodd" d="M53,78c-0.9,0.3-2.1,0.2-2.8,1c0.5,0.9,1.5,0.3,1,1.7
					c-0.3-0.3-0.3-0.9-0.8-1.1h-1.1C49.2,78.2,51.9,78.9,53,78z"/>
				<path fill-rule="evenodd" clip-rule="evenodd" d="M58.9,84.9c-1.3,0.2-2.4,1.4-3.8,0.5c2.5-0.5,5.3-3.2,5.7-5.7
					C61.1,81.7,60.8,83.8,58.9,84.9z"/>
				<path d="M45.2,84.9c-0.9-0.1-3.6-1.7-3.2-4.1C43.1,81.8,43.7,83.8,45.2,84.9z"/>
				<polygon fill-rule="evenodd" clip-rule="evenodd" points="46.1,85.3 46.1,85.1 49.6,85.7 49.6,85.9 				"/>
				<path d="M52.4,86.5c-0.8,0.6-1.5-0.1-2.2-0.2L52.4,86.5z"/>
			</g>
		</g>
	</g>
</g>
</svg>
