<?xml version="1.0" encoding="utf-8"?>
<!-- Generator: Adobe Illustrator 18.1.1, SVG Export Plug-In . SVG Version: 6.00 Build 0)  -->
<!DOCTYPE svg PUBLIC "-//W3C//DTD SVG 1.1//EN" "http://www.w3.org/Graphics/SVG/1.1/DTD/svg11.dtd">
<svg version="1.1" xmlns="http://www.w3.org/2000/svg" xmlns:xlink="http://www.w3.org/1999/xlink" x="0px" y="0px"
	 viewBox="0 0 100 100" enable-background="new 0 0 100 100" xml:space="preserve">

<g id="AREA_2">
	<g>
		<path fill="#FFFFFF" d="M43.5,25.7c1.5-2.5,3.6-4.7,6.2-5.6l7.3,9l0,0l26.1,32.5l3.4,4.2c-1.1,0.5-2.4,0.9-3.6,1.7
			c-2.2,1.4-3.3,3.5-4.2,5.6c-2.6-3.5-5.2-7.1-7.7-10.5L58.9,45.8L47.2,30l0,0C45.9,28.5,44.6,27,43.5,25.7z"/>
		<path fill="#FFFFFF" d="M48,41.6c2.4,2.9,4.9,5.9,5.4,9.5c-0.4-0.5-0.9-0.9-1.4-1.1l-0.8,0.6c0.3,1.4,1,2.6,1.5,3.8l0.1,0.7
			c-0.3-0.4-0.7-0.9-1-1.3l-1,0.5c0.5,2.2,1.6,4.2,1.6,6.3c0,0.3,0,0.6-0.1,1c0,0.1,0,0.1,0,0.2c-0.3-0.5-0.6-1-0.9-1.5l-1.1,0.2
			c-0.1,0.5-0.1,1-0.1,1.5c0,2.2,0.5,4.2,0.5,6.1c0,0.6,0,1.3-0.2,1.9c-0.2,0.7-0.3,1.4-0.3,2.2c0,0.3,0,0.6,0.1,0.9
			c-0.1,0.9-0.2,1.6-0.7,2.1l-0.2,0.2l0.1,0.3c0.4,1.5,1,2.9,1,4.3c0,0.5-0.1,0.9-0.2,1.4l0,0l0,0.1c-0.3,3.1-2.4,5.6-2.5,9.3
			c-0.1,0.8-0.5,1.5-1,2.3c-0.2,0.3-0.4,0.7-0.5,1c-0.4-1.6-0.5-3.3-0.5-5c0-1.9,0.2-3.8,0.4-5.6c0-0.4,0.1-0.7,0.1-1.1
			c0-2.3-1-4.2-1.9-6c-0.9-1.8-1.8-3.5-1.9-5.5l0,0l-0.2-1.5c0.8-1.8,1.2-3.9,1.2-6c0-1.5-0.2-3.1-0.6-4.4c0,0.1,0.1,0.2,0.2,0.2
			c0.2,0.2,0.5,0.5,0.9,0.5c0.3,0,0.5-0.1,0.7-0.3l0,0l0.2-0.2l0.2-0.2l-0.6-3.6c0.2,0,0.4-0.1,0.5-0.2c0.2-0.2,0.2-0.3,0.3-0.5
			l0-0.1v-0.1c0-1.8-0.3-3.6-0.6-5.3l0.2,0.3l0.3-0.6c0.1,0,0.1,0,0.2-0.1c0,0,0,0,0,0c0,1.1,0,2.3-0.1,3.6l0,0.6h0l0.1,18.6
			l0.4,0.1l1.5,8.6L46,89.6h1.4l0.6-4c0.2-1.8,0.7-3.6,0.7-5.5v0l-1.5-9.1l-0.3-0.1l-0.1-17.7h0l0.3-15.6l0,0
			C47,36.4,47,35.3,47,34.1c0.6,0.4,1.1,1,1.5,1.8c0.5,1,0.9,2.3,1.7,3.3c0.3,0.9,0.6,1.8,0.9,2.7c-0.8-0.4-1.6-0.8-2.2-1.5l-1,0.4
			v0.3v0.2L48,41.6z"/>
		<path fill="#FFFFFF" d="M40.6,22.6c0.3-1,0.7-2,1.2-2.8c0.6-0.9,1.3-1.7,2.4-2.1c1.1-0.3,2.2-0.6,3.1-0.8c0.5,0.6,1,1.1,1.5,1.7
			c-1.5,0.8-3.2,1.7-4.6,3.3c-0.7,0.8-1.2,1.6-1.8,2.4L40.6,22.6z"/>
		<path fill="#FFFFFF" d="M46.1,15.6c-0.3,0-0.6,0.1-0.9,0.2c-1.6,0.2-3,1-4,2.2c-0.8,0.9-1.4,1.9-1.9,3c-1.3-1.4-2.6-3.2-4-4.7
			c1-2.8,3.6-5.2,6.4-5.9C43.2,12.1,44.7,13.9,46.1,15.6z"/>
		<path fill="#FFFFFF" d="M53.3,3.4c0.8,0,1.5,0.1,2.1,0.3c0.6,0.2,1,0.6,1.3,1.1c0.1,0.3,0.2,0.6,0.2,0.7l0,0l0,0
			c0,0.2,0.1,0.5,0.1,0.7c0,1.1-0.5,2.2-1.4,3c-1.4,0.8-3.1,1.3-4.7,2.1c-1.4,0.7-2.8,1.6-3.7,3.2c-0.6-0.8-1.3-1.6-1.9-2.3
			c0.6-0.4,1.3-0.8,1.9-1.3c0.7-0.7,1.4-1.5,1.6-2.6c0.5-1.1,0.9-2.2,1.5-3.1c0.6-0.9,1.3-1.6,2.5-1.7C53,3.4,53.1,3.4,53.3,3.4z"/>
		<path fill="#FFFFFF" d="M39,23.4C33,28.6,26.4,34.7,24.8,42.6c-0.5,2-1,3.9-1,6.1c-0.1,1.4-0.3,2.9-0.4,4.4
			c-4.3-1.1-8.4-2.6-11.7-5.9c-1.4-1.3-2.8-2.6-3.9-3.9c-1.1-1.3-1.9-2.7-2.1-4.4l0,0l0,0c-0.2-1.1-0.3-2.3-0.4-3.4
			c8.3-6.7,16.5-13.4,26.1-16.6l0,0l0,0c1-0.4,2.1-0.7,3.1-1.1c1.5,1.6,2.6,3.2,4.2,4.9l-0.3,0.2L39,23.4z"/>
		<path fill="#FFFFFF" d="M86.5,67.4l0.1,0l0.1-0.1c0.3-0.3,0.5-0.3,0.6-0.3c0.1,0,0.2,0,0.4,0.2c0.3,0.2,0.6,0.7,1,1.2
			c0.2,0.2,0.3,0.5,0.5,0.7c-3.5,1.3-6.4,4.4-8,7.6c-0.5-0.7-0.9-1.5-1.4-2.3C80.8,71.4,83.4,68.3,86.5,67.4z"/>
		<path fill="#FFFFFF" d="M82.3,78.2c1.5-3.1,3.8-6.3,7-7.3l0.1,0l0.1,0c0.2-0.1,0.5-0.3,0.8-0.3c0.9,1.1,1.9,2.2,2.7,3.3
			c-3.7,0.9-6.7,4-8,7.4l0,0l-0.1,0.5L82.3,78.2L82.3,78.2z"/>
		<path fill="#FFFFFF" d="M90.8,76.4c0.9-0.6,1.9-1.2,2.8-1.2c0.2,0,0.5,0,0.7,0.1c0.1,0.3,0.2,0.6,0.2,1c0,0.8-0.4,1.8-0.8,2.6
			c-1.3,2.7-4.2,5-7,5c-0.2-0.1-0.3-0.2-0.4-0.3c0-0.1,0-0.2,0-0.3C86.3,80.6,88.4,78.2,90.8,76.4z"/>
		<path fill="#FFFFFF" d="M37,75.8L37,75.8l-0.1,0.1c-0.7,1-0.9,2.1-1,3.2c-0.1-0.7-0.3-1.4-0.8-2.1L35,70.9
			c0.1-0.5,0.4-1.1,0.6-1.7l-1-0.5c-0.1,0.2-0.2,0.3-0.4,0.5c0-0.4,0-0.9,0-1.3c0-2.3,0.1-4.6,0.5-6.8c0.1-0.5,0.5-1.2,0.6-2.1
			l-0.5-0.3c0.5-3,1.2-6,2.2-8.8l0.3-0.8l-0.9,0c-0.3,0-0.6,0.1-0.8,0.2c0.5-1.6,1.1-3.2,1.5-4.9c0.2-0.7,0.8-1.5,1-2.5l-1-0.5
			c-0.2,0.2-0.4,0.4-0.6,0.5c0.9-2.3,1.9-4.5,2.7-6.9l0.1-0.4l-0.9-0.6l-0.1,0.1c1.1-2.4,2.6-4.7,4.4-6.7l0.5,0.5l0,0.1
			c-1.3,2.8-2.5,5.6-3.8,8.4l0,0.1l-1.9,14.8v1.4h0.3c-0.8,6.8-1.2,12.9-1.9,19.8l-0.1,0.6h1.4l1.1-11.8c0.2-2.2,0.4-4.6,0.6-6.7
			l0-0.1l0-0.1c0-0.1,0-0.1,0-0.2c0-0.5,0.2-1.1,0.2-1.8c0-0.1,0-0.3,0-0.5L39,51.6h-0.1c0.5-4.6,1.1-9.5,1.7-14.3
			c1.2-2.7,2.4-5.5,3.6-8.2l1.1,1.3l0,4.9c-0.6-0.3-1.1-0.6-1.6-0.9l-0.6-0.4l-0.2,0.7c-0.2,0.6-0.3,1.1-0.3,1.6
			c0,1,0.3,1.9,0.6,2.7c0.3,0.8,0.5,1.5,0.5,2.3c0,0,0,0.1,0,0.1c-0.2-0.1-0.5-0.4-0.9-0.5l0,0l0,0c0,0-0.1,0-0.1,0l0,0.1l-0.8,0.5
			c0.2,0.8,0.8,1.5,1.1,2l0.9,2.9c-0.3-0.1-0.6-0.2-1.1-0.2c-0.2,0-0.4,0-0.6,0.1l-0.8,0.3l0.5,0.6c0.5,0.6,0.9,1,1,1.5
			c0.2,1.3,0.4,2.5,0.6,3.7c-0.4-0.6-1.1-1.2-1.9-1.5l-0.3-0.1L41,50.9c-0.2,0.2-0.2,0.5-0.2,0.6c0,0.1,0,0.1,0,0.2L40.7,52l0.3,0.2
			c0.9,0.8,1.4,1.7,1.7,2.9c0.2,0.7,0.3,1.4,0.4,2.1c-0.1,0-0.2,0-0.3,0c-0.7,0-1.1,0.3-1.4,0.3l-0.7,0.1l0.3,0.7
			c0.6,1.5,0.8,3.2,0.8,4.9c0,2.6-0.6,5.2-1.6,7.2l0,0l0,0C39.1,72.5,38.6,74.4,37,75.8z"/>
	</g>
</g>
<g id="AREA_1">
	<path d="M46.5,32.6L46.5,32.6c1.1,0.3,1.8,0.9,2.3,1.6L46.5,31L46.5,32.6z"/>
	<path d="M95.3,74.7l-0.1-0.2L95,74.4c0,0-0.1,0-0.1,0l-0.4-0.6c-1.1-1.4-2.4-2.9-3.5-4.4l-0.1-0.1v-0.1V69l-0.3-0.2
		c-0.3-0.2-0.8-0.9-1.3-1.6c-0.2-0.3-0.5-0.7-0.8-0.9c-0.1-0.1-0.2-0.2-0.3-0.2L84,60.9L57.9,28.3l-0.2,0.1l0,0l0.2-0.1l-7.5-9.2
		l0.2-0.1l-0.5-0.6c-0.7-0.8-1.4-1.7-2.1-2.5l-0.1-0.1l0.1-0.2c0.7-1.6,2-2.5,3.5-3.3c1.5-0.8,3.2-1.3,4.8-2.1l0,0l0,0
		c1.2-1,1.8-2.4,1.8-3.9c0-0.3,0-0.6-0.1-0.9c0-0.4-0.2-0.8-0.3-1l0-0.1l0-0.1c-0.5-0.8-1.2-1.4-2-1.7c-0.8-0.3-1.7-0.4-2.5-0.4
		c-0.2,0-0.4,0-0.6,0l0,0l0,0c-1.6,0.2-2.7,1.1-3.4,2.2c-0.7,1.1-1.2,2.4-1.6,3.4l0,0.1l0,0.1c-0.1,0.7-0.5,1.4-1.2,2
		c-0.6,0.6-1.5,1.1-2.2,1.5c-0.6-0.7-1.2-1.4-1.7-2.1l-0.2-0.3l-0.4,0.1c-3.6,0.7-6.7,3.7-7.8,7.1L34,16.6l0.1,0.1
		c-1,0.3-2.1,0.7-3.1,1.1C21,21.1,12.6,28,4.3,34.7l-0.2,0.2l0,0.3c0,1.2,0.2,2.6,0.4,3.8c0.2,2,1.2,3.6,2.4,5c1.2,1.4,2.7,2.7,4,4
		c3.7,3.8,8.3,5.3,12.9,6.4l0.7,0.2l0.1-0.7c0.2-1.7,0.4-3.4,0.5-5.2c0-0.1,0-0.2,0-0.4c0.1-0.9,0.2-1.9,0.4-2.8
		c0.2-0.9,0.4-1.8,0.6-2.8c1.5-7.5,8.1-13.7,14.3-18.9l2,2v0.2l0.1,0.1c-2.8,3-5,6.6-6.1,10.4l0.2,0.1l0.3,0.4c0.1,0,0.2,0,0.2-0.1
		l0.2,0.1c0,0,0.1-0.1,0.1-0.1c-0.8,2.1-1.7,4.3-2.5,6.5l-0.1,0.3l0.8,0.8l0.4-0.4c0.1,0,0.1-0.1,0.2-0.1c0,0,0,0,0,0.1l0,0l0,0
		c-0.5,2.5-1.8,4.8-2.1,7.6l0.2,0c0,0.1,0,0.1,0,0.2c0.3,0.2,0.6,0.1,0.8,0.1c0,0,0-0.1,0-0.1l0.2,0c0,0,0,0,0,0
		c-0.7,2.4-1.2,5-1.6,7.5l0.2,0.2c0,0.1,0,0.2,0.1,0.2c-0.1,0.3-0.2,0.6-0.3,0.9c-0.4,2.2-0.5,4.6-0.5,7c0,1.1,0,2.2,0.1,3.2l0.2,0
		c0,0,0,0,0,0c0.1,0,0.2,0,0.2,0.1l0.3,0.1c0,0,0,0,0.1,0l0.1,6l0.1,0.2c0.6,0.8,0.7,1.8,0.7,3c0,0.7-0.1,1.5-0.1,2.2l0,0.1l0,0.1
		c0.6,3.1,0.1,6.8,0.8,9.9l0.1,0c0.1,1,0.1,2,0.1,3.1h0.8v-3.2l0.2,0c0-0.4,0-0.8,0-1.1c0-1,0-2.1,0-3.1c0-1.3,0.1-2.5,0.3-3.6
		c0.1-0.6,0.2-1.3,0.2-1.9c0-1.3-0.2-2.5-0.2-3.7c0-1.1,0.2-2,0.7-2.7c1.9-1.6,2.5-3.8,3.2-5.6c0,0,0-0.1,0.1-0.1l0,0.1
		c0.1,2.3,1.1,4.2,2,5.9c0.9,1.8,1.8,3.5,1.8,5.5c0,0.3,0,0.6-0.1,0.9c-0.2,1.8-0.4,3.8-0.4,5.8c0,2.8,0.4,5.5,1.4,7.9l0.1,0
		c0,0.1,0.1,0.1,0.1,0.2h0.3c0.6,0.1,0.6-0.2,0.6-0.5l0.1,0c-0.1-0.3-0.1-0.5-0.1-0.7c0-0.8,0.3-1.5,0.8-2.3c0.4-0.8,1-1.6,1.1-2.7
		l0,0l0,0c0-0.2,0-0.4,0-0.6c0.1-0.4,0.1-0.7,0.2-1.1c0.5-2.4,1.9-4.6,2.3-7.5c0.2-0.6,0.2-1.2,0.2-1.7c0-1.6-0.5-2.9-0.9-4.3
		c0.7-0.9,0.7-1.9,0.8-2.6l0-0.1l0-0.1c0-0.2-0.1-0.5-0.1-0.8c0-0.6,0.1-1.3,0.2-1.9l0,0l0,0c0.1-0.7,0.2-1.4,0.2-2.1
		c0-1.9-0.4-3.8-0.4-5.6c0.3,0.5,0.7,0.9,1.1,1.4l1-0.2c0.1-0.2,0.1-0.4,0.1-0.6c0-0.4-0.1-0.8-0.1-1.1c0-0.1,0-0.1,0-0.2
		c0.1-0.4,0.1-0.8,0.1-1.2c0-1.3-0.3-2.5-0.7-3.6c0.1,0.2,0.3,0.3,0.4,0.5l0.2-0.1c0.2,0.1,0.4,0,0.6-0.2c0,0,0-0.1,0-0.1l0.2-0.1
		l-0.4-2.9l0-0.1c-0.1-0.2-0.2-0.4-0.3-0.5l0.1,0c0.2,0.2,0.4,0.2,0.8-0.1c0,0,0,0,0,0l0.1,0c0-0.3,0-0.6,0-0.9
		c0-3.7-1.8-6.6-3.9-9.2c0.4,0.2,0.8,0.4,1.2,0.5l0.2-0.2c0,0,0,0,0,0c0.3-0.1,0.4-0.3,0.4-0.5l0.1-0.1c-0.7-1.3-1.1-2.6-1.6-4.1
		l0-0.1l-0.1-0.1c-0.6-0.8-1-2.1-1.6-3.3c-0.2-0.3-0.4-0.7-0.6-1l9,12.2l12.1,16.8c2.6,3.7,5.5,7.6,8.3,11.4l0.2,0l0,0l0,0l0.1,0.2
		c0.7,1.1,1.2,2.3,2.2,3.4l0.2,0.3v0.1l3.5,4.8l0.3-0.1c0.1,0.1,0.1,0.2,0.2,0.3c0,0.1,0,0.2,0,0.3l0,0.1l0.1,0.1
		c0.3,0.5,0.8,0.7,1,0.9l0.1,0.1l0.2,0c0,0,0,0,0,0c3.5,0,6.7-2.6,8.2-5.7c0.4-0.9,0.9-2,0.9-3.1C95.7,75.8,95.5,75.2,95.3,74.7z
		 M36.3,95.1L36.3,95.1l-0.1-1.6h0.1V95.1z M48,41.6c2.4,2.9,4.9,5.9,5.4,9.5c-0.4-0.5-0.9-0.9-1.4-1.1l-0.8,0.6
		c0.3,1.4,1,2.6,1.5,3.8l0.1,0.7c-0.3-0.4-0.7-0.9-1-1.3l-1,0.5c0.5,2.2,1.6,4.2,1.6,6.3c0,0.3,0,0.6-0.1,1c0,0.1,0,0.1,0,0.2
		c-0.3-0.5-0.6-1-0.9-1.5l-1.1,0.2c-0.1,0.5-0.1,1-0.1,1.5c0,2.2,0.5,4.2,0.5,6.1c0,0.6,0,1.3-0.2,1.9c-0.2,0.7-0.3,1.4-0.3,2.2
		c0,0.3,0,0.6,0.1,0.9c-0.1,0.9-0.2,1.6-0.7,2.1l-0.2,0.2l0.1,0.3c0.4,1.5,1,2.9,1,4.3c0,0.5-0.1,0.9-0.2,1.4l0,0l0,0.1
		c-0.3,3.1-2.4,5.6-2.5,9.3c-0.1,0.8-0.5,1.5-1,2.3c-0.2,0.3-0.4,0.7-0.5,1c-0.4-1.6-0.5-3.3-0.5-5c0-1.9,0.2-3.8,0.4-5.6
		c0-0.4,0.1-0.7,0.1-1.1c0-2.3-1-4.2-1.9-6c-0.9-1.8-1.8-3.5-1.9-5.5l0,0l-0.2-1.5c0.8-1.8,1.2-3.9,1.2-6c0-1.5-0.2-3.1-0.6-4.4
		c0,0.1,0.1,0.2,0.2,0.2c0.2,0.2,0.5,0.5,0.9,0.5c0.3,0,0.5-0.1,0.7-0.3l0,0l0.2-0.2l0.2-0.2l-0.6-3.6c0.2,0,0.4-0.1,0.5-0.2
		c0.2-0.2,0.2-0.3,0.3-0.5l0-0.1v-0.1c0-1.8-0.3-3.6-0.6-5.3l0.2,0.3l0.3-0.6c0.1,0,0.1,0,0.2-0.1c0,0,0,0,0,0c0,1.1,0,2.3-0.1,3.6
		l0,0.6h0l0.1,18.6l0.4,0.1l1.5,8.6L46,89.6h1.4l0.6-4c0.2-1.8,0.7-3.6,0.7-5.5v0l-1.5-9.1l-0.3-0.1l-0.1-17.7h0l0.3-15.6l0,0
		C47,36.4,47,35.3,47,34.1c0.6,0.4,1.1,1,1.5,1.8c0.5,1,0.9,2.3,1.7,3.3c0.3,0.9,0.6,1.8,0.9,2.7c-0.8-0.4-1.6-0.8-2.2-1.5l-1,0.4
		v0.3v0.2L48,41.6z M37,75.8L37,75.8l-0.1,0.1c-0.7,1-0.9,2.1-1,3.2c-0.1-0.7-0.3-1.4-0.8-2.1L35,70.9c0.1-0.5,0.4-1.1,0.6-1.7
		l-1-0.5c-0.1,0.2-0.2,0.3-0.4,0.5c0-0.4,0-0.9,0-1.3c0-2.3,0.1-4.6,0.5-6.8c0.1-0.5,0.5-1.2,0.6-2.1l-0.5-0.3c0.5-3,1.2-6,2.2-8.8
		l0.3-0.8l-0.9,0c-0.3,0-0.6,0.1-0.8,0.2c0.5-1.6,1.1-3.2,1.5-4.9c0.2-0.7,0.8-1.5,1-2.5l-1-0.5c-0.2,0.2-0.4,0.4-0.6,0.5
		c0.9-2.3,1.9-4.5,2.7-6.9l0.1-0.4l-0.9-0.6l-0.1,0.1c1.1-2.4,2.6-4.7,4.4-6.7l0.5,0.5l0,0.1c-1.3,2.8-2.5,5.6-3.8,8.4l0,0.1
		l-1.9,14.8v1.4h0.3c-0.8,6.8-1.2,12.9-1.9,19.8l-0.1,0.6h1.4l1.1-11.8c0.2-2.2,0.4-4.6,0.6-6.7l0-0.1l0-0.1c0-0.1,0-0.1,0-0.2
		c0-0.5,0.2-1.1,0.2-1.8c0-0.1,0-0.3,0-0.5L39,51.6h-0.1c0.5-4.6,1.1-9.5,1.7-14.3c1.2-2.7,2.4-5.5,3.6-8.2l1.1,1.3l0,4.9
		c-0.6-0.3-1.1-0.6-1.6-0.9l-0.6-0.4l-0.2,0.7c-0.2,0.6-0.3,1.1-0.3,1.6c0,1,0.3,1.9,0.6,2.7c0.3,0.8,0.5,1.5,0.5,2.3
		c0,0,0,0.1,0,0.1c-0.2-0.1-0.5-0.4-0.9-0.5l0,0l0,0c0,0-0.1,0-0.1,0l0,0.1l-0.8,0.5c0.2,0.8,0.8,1.5,1.1,2l0.9,2.9
		c-0.3-0.1-0.6-0.2-1.1-0.2c-0.2,0-0.4,0-0.6,0.1l-0.8,0.3l0.5,0.6c0.5,0.6,0.9,1,1,1.5c0.2,1.3,0.4,2.5,0.6,3.7
		c-0.4-0.6-1.1-1.2-1.9-1.5l-0.3-0.1L41,50.9c-0.2,0.2-0.2,0.5-0.2,0.6c0,0.1,0,0.1,0,0.2L40.7,52l0.3,0.2c0.9,0.8,1.4,1.7,1.7,2.9
		c0.2,0.7,0.3,1.4,0.4,2.1c-0.1,0-0.2,0-0.3,0c-0.7,0-1.1,0.3-1.4,0.3l-0.7,0.1l0.3,0.7c0.6,1.5,0.8,3.2,0.8,4.9
		c0,2.6-0.6,5.2-1.6,7.2l0,0l0,0C39.1,72.5,38.6,74.4,37,75.8z M36.1,83c0,0.2,0,0.4,0,0.6c0-0.3-0.1-0.6-0.1-0.9
		c0-0.5,0-1.1,0.1-1.6C36,81.8,36.1,82.4,36.1,83z M39,23.4C33,28.6,26.4,34.7,24.8,42.6c-0.5,2-1,3.9-1,6.1
		c-0.1,1.4-0.3,2.9-0.4,4.4c-4.3-1.1-8.4-2.6-11.7-5.9c-1.4-1.3-2.8-2.6-3.9-3.9c-1.1-1.3-1.9-2.7-2.1-4.4l0,0l0,0
		c-0.2-1.1-0.3-2.3-0.4-3.4c8.3-6.7,16.5-13.4,26.1-16.6l0,0l0,0c1-0.4,2.1-0.7,3.1-1.1c1.5,1.6,2.6,3.2,4.2,4.9l-0.3,0.2L39,23.4z
		 M53.3,3.4c0.8,0,1.5,0.1,2.1,0.3c0.6,0.2,1,0.6,1.3,1.1c0.1,0.3,0.2,0.6,0.2,0.7l0,0l0,0c0,0.2,0.1,0.5,0.1,0.7
		c0,1.1-0.5,2.2-1.4,3c-1.4,0.8-3.1,1.3-4.7,2.1c-1.4,0.7-2.8,1.6-3.7,3.2c-0.6-0.8-1.3-1.6-1.9-2.3c0.6-0.4,1.3-0.8,1.9-1.3
		c0.7-0.7,1.4-1.5,1.6-2.6c0.5-1.1,0.9-2.2,1.5-3.1c0.6-0.9,1.3-1.6,2.5-1.7C53,3.4,53.1,3.4,53.3,3.4z M46.1,15.6
		c-0.3,0-0.6,0.1-0.9,0.2c-1.6,0.2-3,1-4,2.2c-0.8,0.9-1.4,1.9-1.9,3c-1.3-1.4-2.6-3.2-4-4.7c1-2.8,3.6-5.2,6.4-5.9
		C43.2,12.1,44.7,13.9,46.1,15.6z M40.6,22.6c0.3-1,0.7-2,1.2-2.8c0.6-0.9,1.3-1.7,2.4-2.1c1.1-0.3,2.2-0.6,3.1-0.8
		c0.5,0.6,1,1.1,1.5,1.7c-1.5,0.8-3.2,1.7-4.6,3.3c-0.7,0.8-1.2,1.6-1.8,2.4L40.6,22.6z M45.5,46.1c-0.3-1-0.7-2.1-1.1-3.1l0.1,0
		l0.2-0.1c0.6-0.4,0.7-1.1,0.7-1.6c0-0.6-0.1-1.1-0.2-1.4l0-0.1l0-0.1c-0.4-1.1-0.9-2.1-0.9-3.3c0.2,0.1,0.4,0.3,0.6,0.4l0.7,0.7
		c-0.1,2.3-0.1,4.3-0.1,6.3C45.5,44.6,45.5,45.4,45.5,46.1z M43.5,25.7c1.5-2.5,3.6-4.7,6.2-5.6l7.3,9l0,0l26.1,32.5l3.4,4.2
		c-1.1,0.5-2.4,0.9-3.6,1.7c-2.2,1.4-3.3,3.5-4.2,5.6c-2.6-3.5-5.2-7.1-7.7-10.5L58.9,45.8L47.2,30l0,0C45.9,28.5,44.6,27,43.5,25.7
		z M86.5,67.4l0.1,0l0.1-0.1c0.3-0.3,0.5-0.3,0.6-0.3c0.1,0,0.2,0,0.4,0.2c0.3,0.2,0.6,0.7,1,1.2c0.2,0.2,0.3,0.5,0.5,0.7
		c-3.5,1.3-6.4,4.4-8,7.6c-0.5-0.7-0.9-1.5-1.4-2.3C80.8,71.4,83.4,68.3,86.5,67.4z M82.3,78.2c1.5-3.1,3.8-6.3,7-7.3l0.1,0l0.1,0
		c0.2-0.1,0.5-0.3,0.8-0.3c0.9,1.1,1.9,2.2,2.7,3.3c-3.7,0.9-6.7,4-8,7.4l0,0l-0.1,0.5L82.3,78.2L82.3,78.2z M90.8,76.4
		c0.9-0.6,1.9-1.2,2.8-1.2c0.2,0,0.5,0,0.7,0.1c0.1,0.3,0.2,0.6,0.2,1c0,0.8-0.4,1.8-0.8,2.6c-1.3,2.7-4.2,5-7,5
		c-0.2-0.1-0.3-0.2-0.4-0.3c0-0.1,0-0.2,0-0.3C86.3,80.6,88.4,78.2,90.8,76.4z M46.5,32.6L46.5,32.6L46.5,31l2.3,3.1
		C48.3,33.5,47.5,32.9,46.5,32.6z"/>
</g>
</svg>
