<?xml version="1.0" encoding="utf-8"?>
<!-- Generator: Adobe Illustrator 18.1.1, SVG Export Plug-In . SVG Version: 6.00 Build 0)  -->
<!DOCTYPE svg PUBLIC "-//W3C//DTD SVG 1.1//EN" "http://www.w3.org/Graphics/SVG/1.1/DTD/svg11.dtd">
<svg version="1.1" xmlns="http://www.w3.org/2000/svg" xmlns:xlink="http://www.w3.org/1999/xlink" x="0px" y="0px"
	 viewBox="0 0 100 100" enable-background="new 0 0 100 100" xml:space="preserve">

<g id="AREA_2">
	<path fill="#FFFFFF" d="M71,2.1c-1.5,1.1-3.3,2.2-3.6,4.2c-0.1,0.9,0.4,1.7,1.1,2.3c2.1,1,4.7,1.4,6,3.9c1.4,2.5,3.6,4.7,6.3,5.7
		c0.7,0.5,1.3,1.1,1.8,1.8c0.6,2-0.3,4.7,1.1,6.4c2.3,1.7,3.9,4.6,6.1,6.9c0.3,0.6,0.4,1.5,0.1,2.1c-0.3,0.8-1.2,1.3-1.9,1.8
		c0.2,0.9,0.8,2,0.3,3c-0.1,0.3-0.4,0.5-0.5,0.8c0.4,0.2,0.9,0.2,1.2,0.5c0.9,1.7-0.7,3.2-1.7,4.5c0.6,0.4,1.4,0.9,1.6,1.7
		c0.1,2-0.5,3.9-1.2,5.6c-1.1,0.8-2.7,0.5-4,0.9c-2.9,0.8-5.5,2.6-7.2,5.2c-0.7,2,2,2.8,1.4,4.7c-0.5,2.5-2.1,5.5-0.5,8.1v0.2
		c1.8,3.2,4.2,6.2,6.5,9.3c-5.1-2.6-8.9-8.1-14.8-9c-4.4-0.8-8.8-1.7-13.3-2.7l-0.1,0.1c0.8,3.3,1.6,6.5,2.2,9.8
		c-1.1,3.2-2.2,6.4-3.3,9.6l-6.6-8.8c-0.8-3.8-1.5-7.6-2.2-11.3c-1.4,0.1-2.8,1-3.7,2.2c-0.6,0.9-0.6,1.9-0.7,3
		c-0.8,0-1.7,0.1-2.2-0.7c-0.4-1.4-0.5-3.1,0.2-4.4c1.5-1.9,3.8-1.8,5.8-2.4c-1.3-7.3-2.9-14.4-4.2-21.7c-0.1-0.8,0-1.8-0.2-2.6
		l-0.2,0.4c-1.1,6.4-2.2,13.1-3.5,19.6c-0.3,3.8-1.2,7.5-1.7,11.3c-0.7,2.7-0.4,6.1-2.1,8.6c-2.2,4.8-4.7,9.5-6.9,14.3
		c-1.4,0.4-0.7-1.2-1.1-1.9c-0.6-3.9-1.1-7.8-1.7-11.6c0-1.9-0.9-3.7-0.3-5.7c1-5.9,2.2-11.9,3.2-17.9l0.1-0.1l2.7-15.4
		c1-6.2,2.2-11.7,3.1-17.9c-2.9,2.2-5.9,4.4-8.8,6.7c-0.1,0.4-0.6,0.8-0.2,1.1c-1.6,4-3.1,8-4.6,12l-6,6l-0.9-6.7
		c1.5-5.4,3.3-10.6,4.7-16.1l13.1-11.8c0.2,0,0.5-0.1,0.8-0.1c0-0.3,0.1-0.7,0.2-1.1c-4.3-0.5-8.8-0.6-13.2-0.8L7.9,9.9
		c2.9-1.2,5.8-2.4,8.7-3.6C19,6.7,21.6,7,24.1,7.4c0.8,0.3,2,0.3,2.8,0.5C29.2,8.2,31.6,8.7,34,9l1.6,1.2c2.6-1.1,5.8-0.4,8.1,1.1
		c4.4-4,9.6-6.5,15.4-7.2C63.1,3.5,67,2.8,71,2.1L71,2.1z"/>
</g>
<g id="AREA_1">
	<g>
		<g>
			<path d="M26.8,11.3L26.8,11.3L24,9.3V9.2C24.9,9.9,25.9,10.5,26.8,11.3z"/>
			<path d="M17.6,11c-0.8,0.5-1.9,0.9-2.8,1.3l-0.1-0.1C15.8,11.9,16.7,11.3,17.6,11z"/>
			<path d="M28.3,12.3c-1,0.5-2.1,0.6-3.1,1.1v-0.1C26.3,13,27.2,12.5,28.3,12.3z"/>
			<path d="M43.5,14.9c-1.3-1.8-3.3-2.9-5.6-2.7c-2,0.3-3.9,1.8-4.5,3.7c-0.8,2.2-0.1,4.8,1.8,6.3c1.4,1.3,3.7,1.6,5.5,0.9
				c1.1-0.3,2-1.2,2.8-2c0.1-0.3,0.2-0.7,0.5-1C44.6,18.5,44.4,16.4,43.5,14.9z M44,17.7l-2.2,0c-0.1-0.1,0-0.3,0-0.4
				c0.7-0.3,1.4-0.4,2.1-0.7C44,17,44,17.3,44,17.7z M43.6,15.7l0.2,0.6v0.2c-0.7,0.2-1.4,0.3-2.2,0.5c-0.1-0.1-0.1-0.3-0.1-0.4
				C42.3,16.4,42.8,15.8,43.6,15.7z M43.4,15.4c-0.7,0.3-1.3,0.8-2,1l-0.2-0.2c0.5-0.5,1.2-1,1.7-1.4C43.2,14.8,43.2,15.2,43.4,15.4
				z M42.8,14.5c-0.5,0.6-1.1,0.7-1.6,1.3c-0.2,0-0.2-0.2-0.3-0.2c0.3-0.6,0.9-1.3,1.4-1.8C42.5,14,42.6,14.3,42.8,14.5z M41.9,13.6
				c-0.2,0.7-0.9,1.2-1.3,1.9c-0.2,0-0.2-0.2-0.3-0.2c0.2-0.7,0.6-1.3,0.9-2C41.4,13.3,41.7,13.4,41.9,13.6z M40.7,12.8
				c0.1,0.2,0.3,0.2,0.2,0.4L40,15c0,0.1-0.2-0.1-0.3,0c0.1-0.8,0.3-1.6,0.5-2.3C40.4,12.7,40.6,12.8,40.7,12.8z M39,12.5
				c0.3,0.1,0.7,0,0.9,0.2l-0.5,2.2c-0.1-0.1-0.3,0-0.4-0.1C39.1,14,38.7,13,39,12.5z M37.7,12.6l0.4,2.2c-0.2,0.1-0.3,0.1-0.5,0.1
				l-0.8-2C37,12.7,37.4,12.6,37.7,12.6z M36.4,12.9c0.3,0.6,0.6,1.4,0.9,2.1l-0.2,0.2c-0.5-0.5-0.9-1.2-1.3-1.8
				C35.9,13,36.3,13.2,36.4,12.9z M35.5,13.5c0.5,0.5,0.9,1.2,1.3,1.9l-0.4,0.3l-1.5-1.5C34.9,13.8,35.3,13.7,35.5,13.5z M34.6,14.3
				l1.6,1.5c0,0.2-0.1,0.2-0.2,0.4c-0.6-0.4-1.3-0.7-1.9-1.2L34.6,14.3z M34.1,15.2l1.7,1.1c0.2,0.2-0.1,0.3-0.1,0.5
				c-0.7-0.2-1.4-0.4-2-0.8C33.7,15.8,34,15.5,34.1,15.2z M33.6,16.3c0.7,0.2,1.3,0.5,2,0.8v0.5l-2.1-0.4
				C33.4,16.8,33.4,16.5,33.6,16.3z M33.4,17.4l2.2,0.4v0.4l-2.2,0.1V17.4z M33.4,18.5c0.7-0.1,1.5-0.1,2.2-0.2l0.1,0.3v0.1
				l-2.1,0.6C33.4,19.2,33.4,18.8,33.4,18.5z M33.7,19.6c0.7-0.3,1.4-0.4,2.1-0.6l0.1,0.3l-1.9,1C33.8,20.2,33.7,19.9,33.7,19.6z
				 M34.1,20.5l1.9-1c0.1,0.1,0.2,0.2,0.2,0.3c-0.6,0.4-1.1,0.9-1.7,1.3C34.4,20.9,34.1,20.8,34.1,20.5z M34.7,21.3
				c0.6-0.4,1.1-1,1.8-1.3l0.3,0.3l-1.3,1.7C35.2,22,34.8,21.7,34.7,21.3z M35.7,22.3v-0.1l1.4-1.7c0.1,0.1,0.2,0.1,0.2,0.2
				c0,0.6-0.6,1.3-0.8,2C36.2,22.6,35.9,22.5,35.7,22.3z M36.6,22.8l1-2.1c0.1,0.1,0.3,0,0.3,0.2c-0.3,0.6-0.3,1.4-0.5,2.1
				C37.1,23.1,36.9,22.8,36.6,22.8z M38.6,23.2c-0.3,0-0.6,0-0.9-0.1c-0.1-0.7,0.4-1.4,0.5-2.2h0.5L38.6,23.2z M38.4,14.8
				c0-0.8-0.4-1.4-0.4-2.2c0.2-0.2,0.5-0.1,0.7-0.1c0,0.7,0,1.4,0.1,2.2C38.6,14.7,38.5,14.8,38.4,14.8z M38.8,23.2l0.1-2.3
				c0.2,0,0.2-0.1,0.4-0.1c0.1,0.7,0.3,1.4,0.4,2.2C39.4,23.1,39.2,23.2,38.8,23.2z M39.9,22.9l-0.4-2c0-0.1,0.1-0.1,0.2-0.1
				c0.3,0.7,0.6,1.4,0.8,2.1C40.3,22.8,40.1,23.2,39.9,22.9z M40.9,22.7c-0.3-0.7-0.6-1.4-0.9-2c0-0.1,0.2-0.2,0.3-0.2l1.2,1.8
				L40.9,22.7z M41.8,22.2c-0.5-0.5-0.9-1.2-1.3-1.8c0-0.1,0.1-0.2,0.2-0.2c0.5,0.5,1.1,1,1.5,1.6L41.8,22.2z M42.5,21.6
				c-0.6-0.4-1.1-1-1.6-1.5l0.2-0.2l1.9,1.2C42.8,21.2,42.7,21.4,42.5,21.6z M43.1,20.9l-1.9-1.2l0.1-0.3c0.7,0.3,1.4,0.5,2.1,0.9
				L43.1,20.9z M43.3,19.9c-0.6-0.2-1.2-0.5-1.8-0.7c-0.1-0.1,0-0.2,0.1-0.3l2.2,0.4C43.6,19.5,43.8,20.2,43.3,19.9z M41.6,18.6
				c0.1-0.1,0-0.4,0.1-0.6c0.7,0,1.5-0.1,2.3-0.2c0,0.3,0,0.8-0.1,1.1C43.2,19,42.4,18.8,41.6,18.6z"/>
			<path d="M77.9,33.5c0,0.3-0.2,0.6-0.3,0.9c-0.6-0.1-1.2-0.6-1.9-0.8l-7.4-3.6c-0.1-0.3,0.2-0.6,0.3-1
				C71.7,30.5,74.8,32.1,77.9,33.5z"/>
			<path d="M77.5,35c0.1,0.3-0.3,0.5-0.3,0.9c-0.8-0.1-1.5-0.7-2.3-1c-2.4-1.1-4.8-2.2-7.1-3.5l0.4-0.8L77.5,35z"/>
			<path d="M77.4,36.9l-0.5,0.8c-3.1-1.4-6.3-3-9.3-4.5l0.4-0.9C71.1,33.9,74.4,35.3,77.4,36.9z"/>
			<path d="M72.8,36.3c1.7,0.6,3,2.5,5.1,1.8c1.2-0.2,2.3-1.2,2.9-2.3c0.2,0.2,0.7,0.5,0.4,0.9c-0.2,0.9-1.4,0.9-1.7,1.8
				c-0.3,0.5-0.3,1.4-1.1,1.5c-0.2,0-0.5,0.1-0.6-0.1c-0.7,0-1.4-0.2-1.9,0.4c-0.3,0.4-0.5,0.8-0.7,1.3H75c-1.4-0.9-2.2-2.5-3.5-3.4
				c-1.5-0.3-4,0.9-4.7-1.3c-0.6-1.3,0-2.9-0.5-4.3C68,34.6,70.2,36,72.8,36.3z"/>
			<path d="M63,34.5c0.5,0.3,0.9,0.7,0.8,1.4c-0.8,0.3-1.9,0.1-2.5,0.8c-0.1,0.7,0.3,1.2,0.9,1.6c0.9,0.1,1.9,0.5,2.3,1.4
				c0.3,0.4-0.1,0.7-0.1,1.1c-0.5,0.7-1.3,0.9-2.1,0.8c-1.9-0.5-1.8-2.5-2.3-3.9c-0.3-0.3-0.8-0.5-1.2-0.3c-0.3,0.1-0.5,0.5-0.7,0.8
				c-0.2,0.8,0.1,1.5,0.4,2.1c-0.8-0.5-1.5-1.2-1.7-2.1c-0.4-1.9,1.9-2.4,2.5-3.8l-0.1-0.1c-1.7-0.3-3.1,0.4-4.1,1.7
				c-0.1,0.5,0,1.1,0.2,1.5c-0.4-0.5-0.7-1.2-0.5-1.9c0.5-1.8,2.6-1.7,4-2.2C60.3,33.3,61.3,34.7,63,34.5z"/>
			<path d="M64.1,44.8c-0.1,0.2-0.3,0.6-0.6,0.6c-0.5-0.4-0.7-1.1-1-1.7l-0.5-0.5C62.7,43.8,64.3,43.5,64.1,44.8z"/>
			<path d="M52,67c-1.1-1.4-2.1-3-3.1-4.5v-0.2C50,63.9,51,65.5,52,67z"/>
			<path d="M49.2,78.7L49.2,78.7c0-1.8,0.6-3.6,0.8-5.4l0.1-0.4C49.9,74.7,49.6,76.8,49.2,78.7z"/>
			<path d="M28.9,76.2c-1.5,1.3-2.9,2.6-4.4,3.8l0-0.1C25.9,78.8,27.3,77.2,28.9,76.2L28.9,76.2z"/>
			<path d="M27.8,82.1c-1,1-1.8,2.2-2.9,3.2v-0.1c1-1,1.9-2.3,2.9-3.2V82.1z"/>
			<path d="M25.3,88.4h-0.1c0.6-1.1,1.1-2.3,1.8-3.4l0,0.1L25.3,88.4z"/>
		</g>
		<path d="M89.8,33.2c-2.2-2.3-3.8-5.1-6.1-6.9c-1.5-1.7-0.5-4.4-1.1-6.4c-0.5-0.6-1.1-1.3-1.8-1.8c-2.7-1-5-3.2-6.3-5.7
			c-1.3-2.4-3.9-2.9-6-3.9c-0.7-0.6-1.1-1.4-1.1-2.3c0.2-2,2.1-3.1,3.6-4.2l-0.1,0C67,2.8,63.1,3.5,59.1,4c-5.8,0.7-11,3.3-15.4,7.2
			c-2.2-1.5-5.4-2.2-8.1-1.1L34,9c-2.4-0.3-4.8-0.8-7.1-1.1c-0.8-0.1-1.9-0.1-2.8-0.5C21.6,7,19,6.7,16.5,6.3
			c-2.9,1.2-5.8,2.4-8.7,3.6l9.6,5.7c4.4,0.2,8.9,0.3,13.2,0.8c0,0.3-0.1,0.7-0.2,1.1c-0.2,0-0.5,0.2-0.8,0.1L16.6,29.5
			c-1.4,5.4-3.2,10.7-4.7,16.1l0.9,6.7l6-6c1.5-4,3-8,4.6-12c-0.4-0.3,0.1-0.7,0.2-1.1c2.9-2.3,5.8-4.5,8.8-6.7
			c-0.9,6.2-2.1,11.7-3.1,17.9l-2.7,15.4l-0.1,0.1c-1,6-2.1,11.9-3.2,17.9c-0.5,2,0.4,3.8,0.3,5.7c0.6,3.9,1.1,7.7,1.7,11.6
			c0.3,0.6-0.3,2.3,1.1,1.9c2.2-4.8,4.7-9.5,6.9-14.3c1.7-2.5,1.4-5.9,2.1-8.6c0.4-3.8,1.3-7.5,1.7-11.3c1.2-6.5,2.3-13.1,3.5-19.6
			l0.2-0.4c0.2,0.8,0.1,1.8,0.2,2.6c1.3,7.3,2.9,14.4,4.2,21.7c-2.1,0.6-4.3,0.5-5.8,2.4c-0.7,1.3-0.6,3-0.2,4.4
			c0.4,0.8,1.3,0.7,2.2,0.7c0-1.2,0.1-2.1,0.7-3c0.9-1.2,2.3-2.1,3.7-2.2c0.7,3.8,1.4,7.6,2.2,11.3l6.6,8.8c1.1-3.2,2.2-6.4,3.3-9.6
			c-0.6-3.3-1.4-6.5-2.2-9.8l0.1-0.1c4.5,1,8.9,1.8,13.3,2.7c5.9,0.8,9.7,6.3,14.8,9c-2.3-3.1-4.6-6.1-6.5-9.3v-0.2
			c-1.5-2.6,0-5.5,0.5-8.1c0.6-1.9-2.1-2.7-1.4-4.7c1.7-2.6,4.4-4.4,7.2-5.2c1.3-0.4,2.9-0.1,4-0.9c0.7-1.7,1.3-3.6,1.2-5.6
			c-0.2-0.8-1-1.3-1.6-1.7c1-1.3,2.5-2.8,1.7-4.5c-0.3-0.3-0.8-0.3-1.2-0.5c0.2-0.2,0.4-0.5,0.5-0.8c0.5-1,0-2-0.3-3
			c0.6-0.5,1.6-1,1.9-1.8C90.2,34.6,90.1,33.7,89.8,33.2z M46.8,19.5l5.5,4c1.5,2.5,2.9,5.2,4.3,7.8c-2-0.6-4.1-1.5-6.1-2.2
			l-4.4-4.6c1.5-0.7,1.3,1.2,1.9,1.9c0,0.1,0.1,0,0.2,0c-0.1-0.6-0.5-1.3-0.8-2c0.6,0,1.3-0.1,1.7,0.4c0.7,1.1,1.4,2.3,2.1,3.3
			l0.1-0.1c-0.5-0.9-1.2-1.7-1.6-2.7l2.2,1.6l0.1-0.1l2.4,2.3l0.2-0.1L52,26.4c-0.5,0-0.8-0.5-1.3-0.8c0.4-0.3,1.2-0.3,1.5-0.7
			c-0.5,0.1-1.1,0.3-1.7,0.5c-0.6-0.5-1.5-1-2-1.6c0.7-0.2,1.6-0.2,2.1-0.6l-0.1-0.1c-0.7,0.2-1.4,0.3-2.1,0.6
			c-0.8-1.2-1.1-2.6-1.9-3.8L46.8,19.5z M47.9,24h-0.8c-0.1-0.3-0.2-0.7-0.5-0.8c-0.1,0.3,0.2,0.5,0.2,0.8c-0.7,0-1.5,0.2-1.9-0.6
			c0.1-0.4,0.4-0.7,0.7-1.1C46.4,22.8,47.2,23.3,47.9,24z M45.9,21.9c0.3-0.4,0.3-1,0.6-1.5c0.4,1,0.9,2,1.3,3L45.9,21.9z M38.5,9.9
			c1.4,0,3.2,0.5,4.6,1.4c2.7,1.9,3.9,5,3.4,8.1c-0.5,2.8-3.1,5.6-5.9,6.2c-3,0.8-6.1-0.2-8.1-2.8c-1.8-2.2-2.1-5.7-0.9-8.3
			C32.8,11.7,35.5,9.9,38.5,9.9z M31,8.9c1.3,0.6,3,0,4.1,1.4c-0.9,0.4-1.8,1.3-2.6,2c-3.4-0.5-6.7-0.9-9.9-1.5l1.2-2.9
			C26.2,8.2,28.9,8.7,31,8.9z M17.6,15.4c-2.9-1.7-5.8-3.6-8.8-5.2V9.9c2.6-1.1,5.2-2.2,7.8-3.3c2.2,0.3,4.5,0.7,6.7,1
			c-0.2,0.9-0.8,1.8-1.1,2.8h-0.1l-3-2.5L19,8c0.9,0.8,2.1,1.8,3.1,2.6v0.2c-0.7,0.1-1.3-0.2-2-0.2h-0.2l0.1,0
			c-0.6-0.8-1.6-1.6-2.3-2.2c-0.4-0.4-0.8-0.8-1.4-1.2l-0.1,0.1c1.2,1.1,2.5,2.3,3.6,3.3l-2.4-0.2c-0.9-0.8-1.8-1.5-2.8-2.3
			l-0.1,0.1c0.7,0.7,1.8,1.3,2.4,2.1c-1.6,0.4-2.4-1.3-3.6-1.7l0,0c0.6,0.5,1.3,0.9,1.9,1.4c-1.4,0.1-2.8-0.4-4.3-0.2
			c-0.1,0.4,0.4,0.1,0.5,0.3l8.9,0.8c-0.8,0.5-1.6,1-2.5,1.4v0.2H18c1.3-0.5,2.3-1.9,3.9-1.5l-0.2,0.5c1.4,1.3,2.8,2.6,4.3,3.9
			C23.3,15.6,20.5,15.5,17.6,15.4z M26.7,15.6l-4.5-3.9l0.1-0.5c3.3,0.4,6.9,1.1,9.9,1.5c-0.7,1-1.3,2.1-1.5,3.2
			C29.3,15.8,28.1,15.8,26.7,15.6z M16.9,29.8c4.2-3.8,8.8-7.9,13-11.7c0.2,0.1,0.4-0.1,0.6,0c0,1.3,0.3,2.5,0.9,3.5
			c-0.5,0.6-1,0.1-1.7,0.2c-0.8,0-1.4-0.2-2.2,0v0c1,0.2,2.1,0.1,3.1,0.3l-1.7,1.6c-1.4,0.2-3.1,0.4-4.4,0.8v0.1
			c1.3,0,2.7-0.4,4.1-0.6c-1.7,1.5-3.3,2.9-4.9,4.3c-1.3,0.2-2.9,0.1-4.3,0.4v0c1.3,0.1,2.6-0.2,3.9-0.1c-1.3,1.2-2.7,2.5-4.1,3.6
			l0,0c-0.3,0.5-0.4,1-0.5,1.5h-0.2C17.9,34,17.4,34.6,17,35c-0.3-0.4-0.4-1-0.7-1.5h-0.3C16.1,32.2,16.6,31,16.9,29.8z M18.4,33.9
			l-0.8,2.6c-0.2-0.3-0.4-0.8-0.5-1.2L18.4,33.9z M18.4,46.2c-1.8,1.8-3.4,3.6-5.2,5.2c-0.3-2-0.5-4-0.8-6c1.1-4,2.3-7.8,3.5-11.8
			c0.3,0.5,0.6,1.2,0.7,1.9c-0.7,0.5-1,1.1-1.5,1.7c0,0.1,0.1,0.1,0.2,0.1l1.4-1.6c0.2,0.3,0.3,0.8,0.5,1.3c0.1,0.7-0.3,1.4-0.5,2.1
			c-0.8,0.6-1.7,1.2-2.4,2c0,0.1,0.1,0,0.2,0l2-1.6c-0.8,2.9-1.8,6-2.8,8.9c0.1,0,0.2,0.2,0.3,0.1l0.1-0.1c0.6-2.2,1.3-4.4,2.1-6.4
			c0.4,0.8,0.4,1.8,0.9,2.4c-0.1-0.9-0.5-1.9-0.8-2.8c0.4-1.2,0.6-2.5,1.1-3.7c0,0.1,0.2,0.2,0.4,0.2c0.2,0.7,0.4,1.3,0.6,2
			c0.1,0,0.2-0.1,0.2-0.1c-0.1-0.8-1.4-2.1,0-2.6c1.4-1,2.7-2.2,4.2-3.1C21.3,38.2,19.9,42.2,18.4,46.2z M23.3,32.9
			c-0.3,0.5-0.3,1-0.9,1.2l-4.4,3.3l-0.2-0.3l1.5-4.5c2.3-2.1,4.6-4.1,7-6.1c-0.2,1.1-0.7,2.1-0.8,3.2h0.1l1-3.5
			c1.6-1.5,3.3-3,4.9-4.3l0.3,0.6c0.4,0.6,1.1,1.2,1.7,1.8c-0.4,0.5-1.1,0.8-1,1.6L23.3,32.9z M27,59c0.5-2.4,0.8-4.9,1.4-7.3
			c1-1.2,2.1-2.3,3.1-3.5L31.3,48c-1,1-1.8,2.1-2.8,3.1c0.2-2.6,0.9-5.1,1.3-7.7c1.2-6.1,2.1-12,3.3-18.2l0.8-0.6
			c0.8,0.6,1.9,0.9,2.9,1.3c-0.2,0.7-0.2,1.5-0.3,2.3c-0.9,1.1-2.1,2-2.9,3.2l0.1,0c0.9-0.8,1.9-1.9,2.7-2.9
			c-0.2,1.9-0.5,3.8-0.8,5.7l-0.2,0.1c-0.9,1.5-2.1,2.9-3,4.4c0,0.1,0.1,0.1,0.2,0.1c1.1-1.4,1.9-2.8,3-4.2c-0.2,2-0.5,4.2-0.8,6.3
			c-1.3,1.4-2.6,2.9-3.8,4.4l0.1,0.1c1.2-1.3,2.4-2.7,3.5-3.9c-0.4,4-1.1,8.2-1.7,12.1l-0.2,0.1c-1.3,1.9-2.5,3.7-3.8,5.6l0.1,0.1
			c1.3-1.8,2.5-3.7,3.8-5.5c-0.6,4.9-1.5,10-2.2,15.1h0c-1.1-3.1-2.1-6.2-3.2-9.4C26.7,59.9,27,59.3,27,59z M33.8,80.7l-7.8,16h0
			c-0.8-5.8-1.8-11.3-2.4-17.2l0.1-0.9l2.7-15.8c0.2-1.1,0.2-1.8,0.5-2.9l3.4,10l-0.1,0.3c-1.1,0.6-2.1,1.3-3.2,2.1l0.1,0.1l3-2
			c0,0.6-0.2,1.3-0.3,2l-0.3,0.1c-1.3,1.3-2.8,2.5-4.1,3.8c0.1,0.1,0.1,0.2,0.2,0.1l4-3.8c-0.1,2-0.6,4.1-1,6.1
			c-1.5,1.1-2.9,2.4-4.3,3.6l0.1,0.1l4.1-3.5c-0.6,3.9-1.3,7.8-2,11.7c0.1,0.1,0.2,0.1,0.3,0.1c0.8-4,1.2-7.7,2.1-11.8
			c0.7,1.4,1.3,2.8,2,4.1h0c-0.1-0.7-0.5-1.5-0.9-2.2c-0.3-1.2-1.6-2.3-0.9-3.7l0.4-2.1c0.9,1.4,1.5,2.9,2.4,4.2l0.1-0.1l-2.5-4.6
			c0.2-1.4,0.5-2.7,0.7-4.1c0.1-0.1,0,0.2,0.2,0.1c0.1,0,0.1-0.2,0.2-0.2H31c0.6,1.4,1.5,2.7,2.3,4.1c0.1,0,0.1-0.1,0.2-0.1
			c-0.8-1.4-1.5-2.8-2.4-4.1l0.1-0.3c1.8-2.4,3.5-4.7,5.4-7.2L33.8,80.7z M36.6,62.7l-0.3,0.1c-1.8,2.3-3.6,4.8-5.4,7.2
			c0-1.8,0.6-3.6,0.6-5.4c0.3-1.7,0.5-3.4,0.8-5.1l1.9,3.1h0.2v-0.2c-0.6-1.1-1.4-2.1-2-3.2c0.1-1.8,0.4-3.3,0.7-5.2
			c0.1-1.4,0.4-2.8,0.6-4.3c0.5,1.6,0.8,3.2,1.4,4.8h0.1c-0.3-1.9-1.1-3.7-1.4-5.7c0.5-2.9,0.7-5.6,1.2-8.6c1.1,2.1,1.9,4.4,3.1,6.3
			v-0.3c-1-2.2-2.1-4.3-3-6.5l1.1-7.8c0.5,0.6,0.8,1.6,1.4,2.2l0.1-0.1c-0.4-0.8-0.8-1.6-1.3-2.3h-0.2l0.4-3
			c0.9,1.5,1.5,3.2,2.5,4.7v-0.3C38.5,30.6,36,28.7,37,26l-0.1-0.1c1,0.2,2,0.1,3,0.1l0.5,14.6L36.6,62.7z M40.4,25.9
			c1.5-0.4,3-1,4.1-2.2c0.1,0.1,0.3,0.1,0.4,0.3c3,13.8,6,27.4,8.9,41.3c-0.4,0-0.3,0.4-0.4,0.6l-1.8,7.4l-0.8-1.1
			c-1.2-6.4-2.8-12.6-3.9-19l3.8,4.7c0.1,0,0.2,0,0.2,0L47,52.9h-0.2c-2.2-9.5-2.9-17.7-4.3-27.5c-0.1-0.1-0.2,0-0.3,0
			c0,0.8,0.2,1.6,0.2,2.5c-0.4,2.3-0.9,4.6-1.1,6.8c0.4-0.2,0.2-0.7,0.3-1.1l0.9-4.9l0.7,5.1c-0.4,2.1-1,4.2-1.2,6.3h0.1
			c0.5-1.9,0.7-3.8,1.2-5.7l0.6,4.9l-1.5,9.1c0.1,0.2,0.2,0,0.3,0c0.6-2.8,0.7-5.4,1.4-8.3c0.4,2.9,0.6,5.7,1.4,8.4l-0.2,0.1
			c-0.3,3.7-0.6,6.6-0.7,10.3c0.1,0,0.1-0.1,0.2-0.1c0.2-3.3,0.4-6.6,0.8-9.9l4.1,19.1c0.1,1,0.5,1.9,0.6,2.9
			c-1.7-2.6-3.2-5.3-5-7.9c-0.1,0.1-0.2,0.1-0.4,0.2c-1.2-6-2.5-12-3.6-18.1v-0.9L40.4,25.9z M57.3,79.7c-1,3-2,5.9-3,8.9
			c-2.1-2.7-4.2-5.4-6.2-8.2l-2.8-14.5l-0.5-2.5l5.7,9.1l0.8,4.1c-0.3,0.3-0.3,0.8-0.4,1.2c0,1.2-0.4,2.5-0.6,3.7
			c0.1,0,0.1,0.1,0.2,0.1c0.3-1.4,0.6-3.2,0.8-4.8c0.4,1.3,0.6,2.8,0.9,4.1c0.2,1.3,0.5,2.7,0.9,4.1c0.1-0.1,0.3,0,0.3-0.2
			c-0.2-1.5-0.7-3-0.9-4.5c0.7,0.2,1.3,0.8,2,1.1l0.1-0.1c-0.7-0.5-1.5-0.9-2.3-1.4c-0.1-1-0.4-2-0.5-2.9H52c1,0.5,2,1.1,3,1.6
			l0.1-0.1c-1.1-0.7-2.3-1.2-3.5-1.9l-0.6-2.9c0.2,0.2,0.3,0.6,0.6,0.8c0.8-3,1.4-6,2.3-9C55.1,70.1,56.3,74.9,57.3,79.7z
			 M74.9,70.4c0.2,0.7,0.3,1.5,0.5,2.2c-5.6-0.2-10-3.4-15-5c-1.7-0.5-3.7-0.3-5.4-0.6c-0.2-0.5-0.2-1.3-0.6-1.8
			c-0.2-1.9-0.9-3.7-1-5.6c1.1-3.4,3.2-7.1,6.7-8.8c1.7-1.1,4.7-1.7,6.1,0.2c2.1,2.3,1.1,6.2,4.5,7.6c1.9,0.9,4.3,1.7,4.9,4.1
			C76.8,65.5,74,67.4,74.9,70.4z M87.9,35.6c-0.9,0.7-2.3,0.6-3.5,0.6c-0.3-0.1-0.7-0.3-1-0.5c-0.1,0.6-0.1,1.2,0.4,1.6
			c0.7,0.8,1.7,0.7,2.8,0.7c0.2,0.5,0.4,1.1,0.1,1.6c-1,1.2-2.4,1.4-3.6,2.3L80,44.5c-0.4-0.1-0.8-0.3-1.2-0.1
			c-0.3,0.2-0.8,0.4-0.8,0.8c0.4,1,1.5,1.2,2.3,1.7c1-2.4,3.5-4.6,6-5.3c0.5,0.1,1.1,0.1,1.5,0.5c-0.2,0.9-1.2,1.3-1.7,2.1
			c-0.4,0.6-0.8,1.2-1.1,1.9c0.7,0.5,1.7,0.8,2.3,1.6c0,1.7-0.8,3.1-1.3,4.7c-4.5,0.7-7.6,1.3-12.5,1.1c-1.5-1.6-2.4-3.5-2.7-5.7
			c-0.4-1.8-1.6-4-3.6-4.4c-0.5-0.2-1.3-0.1-1.8,0c0.2,1.5,0.8,3.9-0.8,4.9c-1.2,0.3-2.3-0.6-3.2-1.3c-2.3-3.2-5.3-6-8-8.8
			c-0.7-0.9-0.9-1.9-0.7-3c0.4-1.4,1.9-2.6,3.4-2.9c0.5-0.1,1.1-0.2,1.6-0.1c0.8-0.2,1.7,0.2,2.5,0.1c-1-1.1-2.3-2.5-1.6-4.1
			c2.3-1.3,4.6-0.8,7-0.2h0.1c-0.1-0.6-0.5-1.3-0.9-1.9c-1.7-3.6-6.6-0.7-8.4-4.1c-0.6-1.1-0.4-2.6-1.2-3.6c-0.9-1-1.8-2-2.9-2.9
			c3.1-2.5,6.7-4.3,11.1-3.7c3.2,0.3,7.5-1.4,9.5,1.9c1.2,3.3,4.8,4.3,7.4,5.8c0.8,0.7,0.9,1.8,0.8,2.9c-0.2,0.4-0.3,1-0.8,1.2
			c-1.6,0.5-3.3-0.6-4.7,0.4c-1.1,1.1-2.3,2.4-3.6,3.3c0.7-0.1,1.7-0.2,2.3-0.7c-0.3,1.3-1.3,2.4-1.4,3.8c0.2,0.3,0.4-0.1,0.6,0.1
			c1.3,0.2,2.2-2,3.8-1c0.3,0.2,0.6,0.4,0.7,0.8c0,0.5-0.3,0.8-0.2,1.3c0.7-0.3,1.4-0.9,1.5-1.6c-0.4-1.6,0.7-3,1.8-3.9
			c2.4,2.8,5.7,4.7,7.4,7.7C88.6,34.3,88.3,35,87.9,35.6z M76.6,27.2c0.4,0.4,1,0.6,1.7,0.4c-0.3,0.3-0.8,0.5-1.3,0.3
			c-0.4-0.2-0.8-0.4-0.9-0.8c-0.1-0.4-0.2-1,0.2-1.3C76.2,26.3,76.2,26.8,76.6,27.2z M77,26.2v-0.2h0L77,26.2L77,26.2z M77.5,25.7
			h0.2v0.4c-0.1,0-0.2-0.1-0.3-0.1C77.4,25.9,77.4,25.8,77.5,25.7z"/>
	</g>
</g>
</svg>
