<?xml version="1.0" encoding="utf-8"?>
<!-- Generator: Adobe Illustrator 18.1.1, SVG Export Plug-In . SVG Version: 6.00 Build 0)  -->
<!DOCTYPE svg PUBLIC "-//W3C//DTD SVG 1.1//EN" "http://www.w3.org/Graphics/SVG/1.1/DTD/svg11.dtd">
<svg version="1.1" xmlns="http://www.w3.org/2000/svg" xmlns:xlink="http://www.w3.org/1999/xlink" x="0px" y="0px"
	 viewBox="0 0 100 100" enable-background="new 0 0 100 100" xml:space="preserve">

<g id="AREA_2">
	<path fill="#FFFFFF" d="M15.8,55.3c0.3,0.1,0.5,0.4,0.9,0.5c0.8-0.1,1.6-0.2,2.1-1c0.3-0.6,0.8-1.2,0.9-1.8c-1.1,0-1.9,0.9-2.8,1.4
		C16.4,54.6,15.7,54.7,15.8,55.3z"/>
	<path fill="#FFFFFF" d="M49.3,76.2L49.3,76.2c-1.6-1.5-3.6-2.9-4.9-4.7v-0.2c1.4,0.2,2.3,1.5,3.4,2.4c0.7,0.3,1.5,0.4,2.3,0.3
		c-0.2-0.5-0.7-1-1-1.4c-0.8-1-2.6-1.4-2.4-2.9c0.1-0.3,0.3-0.5,0.5-0.7c0.1-0.1,0.4,0,0.5,0.2c0.7,1,1.1,2.1,2.1,3
		c2.2,1.5,4.4,2.8,7.3,2.6c0.2-0.6-0.1-1.4,0.2-2c0.2-0.7-0.5-1-0.9-1.4c-0.6-0.5-1.4-0.1-2.2-0.3c-0.5-0.1-1.1-0.5-1.3-1
		c0.1-0.3,0.4-0.5,0.7-0.7c0.3-0.1,0.7-0.1,0.9,0c1.8,1.8,3.9,2.6,6,3.6c2,0.7,3.9,2.6,6.1,1.5c1-2.6,3.9-1.7,5.2-3.9
		c0.1-1-1.1-0.5-1.6-0.9c0.5-0.9,1.5-1.3,2.3-1.8c-1.4-1.8-3.6-3.2-4.1-5.5c-0.1-0.9-0.2-2,0.7-2.6c1.4-0.5,2.6-1.9,3.5-3.2
		c1.8,0.4,3.8,0.5,5.7,0.8c-0.2-0.7-0.7-1.3-0.7-2.1c0.4-0.5,1.2,0,1.8-0.2c0.4-0.6-0.1-1.3,0-2c0.4-0.4,0.9,0,1.3-0.1
		c0.4-0.2,0.4-0.6,0.6-0.9c0.4-0.9,1.3-0.9,2.2-0.9c0-0.9-0.1-1.7-0.2-2.6c-0.4-2.3-1.4-4.4-2.7-6.3c-1.4-1.5-3.7-0.2-5.4-0.9
		c0.8-0.5,1.7-0.7,2.2-1.6c0.1-0.5,0-0.9-0.1-1.4c-1.2-2.3-3.8-2.7-6-2.7c-1.3,0.8,0.2,2.1-0.7,3.2c1.4-0.3,2.7,0.3,3.9,0.9
		c0-0.6,0-1.2,0.6-1.5c0.4-0.1,0.9-0.1,1.3,0.2c0.7,1.4-1.3,2.2-2,3.3c-0.7,1.8-2,3.8-4.1,4.2c0.3,0.5,0.6,0.9,0.8,1.4
		c0.1,0.4,0.4,0.9,0.2,1.3c-0.9-0.5-1.8-0.9-2.7-1.4c-1.5-0.9-0.9-2.7-1.4-4c-0.6-1.5,0.9-2.4,1.8-3.2c0.1-0.7-0.2-1.2-0.4-1.8
		c-0.3-1.7,0.4-3.2,1.3-4.5c0.5,0.3-0.1,1.3,0.6,1.5c0.9-0.4,1.8-1.3,2.5-1.9c-0.3-0.7-0.6-1.5-1-2.2c-0.7-0.6-1.5-1.2-2.6-1
		c-1.6,0.7-3.3,2.3-3.5,4.1c0,0.6-0.3,1.3,0.1,1.8c0.6-0.6,0.9-1.4,1.4-2h0.2c-0.1,1.1,0,2-0.2,3.2c-0.1,1.4-1.9,1.3-2.3,2.4
		c-0.5,5.9,3,10.5,6.8,14.7c-0.6-0.1-1.1-0.9-1.8-0.9c0.1,0.7,0.7,1.2,0.8,1.9c-0.5,0.3-1.1,0-1.6-0.2c-2-1.9-4.2-4-6.3-6
		c0.5-0.3,1.1-0.5,1.3-1c0.4-2.2-1.2-3.9-1.5-6c-0.3-1.4-1.9-2-2.7-3.2c0-0.4,0.2-0.7,0.2-1.1c0-0.2-0.1-0.5-0.3-0.6
		c-1.7-0.4-2.7-2.2-3.7-3.4c-1.2-0.5-1.5,1.8-2.6,0.8c-0.4-0.4-0.5-1.2-1.1-1.3c-0.6,0.8-1,1.7-1.9,2.3c-0.3,1,0.9,1.4,1.3,2
		c-2.2-0.1-4.3-0.4-6.4,0.7c-0.6,0.3-0.6,1-0.5,1.5c0.5,1.1,1.1,2.2,1.8,3.1c1.7,0.1,2.9-1.2,4.4-1.6c1-0.3,1.8,0.2,2.4,0.7
		c0.9-1.2,1.6-2.5,1.5-4.1c-0.2-0.6-0.6-1.1-1-1.6l1.1-0.4c0.3-0.3,0.1-0.9,0.2-1.2c0.6,0.5,0.9,1.3,1.1,2c0,1.9,0.6,3.9,2.4,4.8
		l-0.1,0c-1.4-1.3-2.7,0.6-4.3,0.1c0.5,1.5,1.4,2.8,2.7,3.9c0.9-0.7,1.8-1.8,2.7-2.5c1.3,0.9,2.1,2.3,2.6,3.7
		c-0.6,0.2-1.3-0.2-1.9-0.1c-2.6,0.5-1.5,3.7-3.1,5.1c-1.3,0.3-1.8,1.7-2.6,2.6c-0.6,0.5-1.5,0.3-2.2,0.2c0.5-1.1,1.7-1.4,2.7-1.7
		c0.5-0.2,0.4-0.9,0.3-1.4c0.3-0.4,0.8-0.4,1.2-0.7c0.2-0.8-0.4-1.4-0.9-2c-0.8-0.9-2.2-0.8-3.3-0.7l0.6-0.7
		c-1.1,0.2-2.4,0.2-3.3-0.4c-1.6-1.7-4-1.8-5.4-3.9c0-0.5-0.2-0.8-0.7-0.9c-0.4-0.1-0.9,0-1.2,0.4c-0.5,0.9-1.1,1.8-1.2,2.9
		c0.6,0.9,2.1,0.5,3.1,0.6c-0.2,0.7-0.3,1.5-0.5,2.2c-2.5-0.1-5.4-0.5-8.1-0.6c-0.6,0.1-1.3-0.1-1.8,0.4c-0.8,1.4,0.7,2.6,1,3.9
		c-0.1,0.6,0,1.4-0.3,1.9c-0.9-0.3-1.9-0.6-2.8-0.4c-1.5,0.5-2.6,1.9-3,3.4c-0.4,2.9-1.2,5.7-1.5,8.5c1.4-1.1,2.5-2.6,3.2-4.1
		c0.2-0.3,0.5-0.9,1-0.7c0.4,0.4,0,1.6,1,1.4c1.2-0.9,2.4-1.9,3.8-2l-1.8,2.4c-0.4,0.8-1.1,1.6-0.6,2.5c2.2,2.4,4.8-0.3,7-1.1
		c0.6-0.3,1-0.9,1.6-1.2c0.4-0.2,0.8,0,1.1,0.2c1.8,1.5,3.8,2.8,5.8,4.1c-1.9,0.7-4,0-5.7-0.7c-0.7,0-1.7-0.4-2.1,0.3
		c0,1.4,1,2.3,1.2,3.7c-0.1,0.3-0.4,0.6-0.7,0.7c-2.3,1.1-3.7-2.1-5.8-0.6c-0.5,0.5-1.1,1-0.9,1.8c-0.5-0.2-1-0.2-1.5,0
		c-0.3,0.2-0.8,0.5-0.6,0.9c1,0.9,2.1,1.6,3.5,1.6c0.9,0,1.8-0.5,2.6-0.7c0,0.7-0.2,1.4,0.4,1.9c0.9,0.1,1.7-0.1,2.4-0.6
		c0.4-0.2,0.6,0.2,1,0.3c1.3,0.9,1-1.1,1.8-1.6C47.1,74,48.2,75.3,49.3,76.2z M73.7,45.4c0.4-0.4,1-0.3,1.5-0.3c0-0.9-0.9-1.9-0.4-3
		c0.5,0.2,1.2,0.5,1.3,1c-0.1,0.5-1.1,0.8-0.7,1.4c0.3,0.5,0.8,0.7,0.7,1.4c-0.5,0.4-1.4,0.6-1.2,1.4c0.1,0.1,0.1,0.2,0.1,0.3
		c0.9,1.1,1.7,2.4,1.1,3.9L73,49c0.5-0.1,1-0.2,1.3-0.7C74.5,47.2,73.6,46.5,73.7,45.4z M68.4,67.2c0.2,0,0.6,0,0.5,0.3
		c0.1,0.2-0.1,0.3-0.3,0.3c-0.2,0-0.4-0.1-0.4-0.3C68.1,67.3,68.3,67.3,68.4,67.2z M67.3,70.2c0.2,0,0.4-0.1,0.5,0.1v0.5
		c-0.2,0.1-0.5,0.1-0.7-0.1C67.2,70.5,67.2,70.3,67.3,70.2z M66.4,65.1c0.2-0.2,0.6-0.2,0.7,0.2c0,0.3-0.3,0.5-0.5,0.3
		C66.3,65.5,66.4,65.2,66.4,65.1z M66.3,67c0.2,0,0.4,0.1,0.5,0.2c0.1,0.3,0.1,0.8-0.4,0.8c-0.3,0-0.5-0.2-0.6-0.5
		C66,67.3,66.1,67.1,66.3,67z M65.5,63.4c0.2,0,0.4,0,0.4,0.2c0,0.3-0.2,0.2-0.4,0.2V63.4z M65.4,69.4c0.3,0.1,0.4,0.2,0.4,0.6
		c-0.2,0.2-0.5,0.2-0.7,0C64.9,69.7,65.1,69.5,65.4,69.4z M64.8,71.7c0.2,0,0.3,0,0.4,0.2l0,0.5c-0.2,0.1-0.5,0-0.6-0.1
		C64.5,71.9,64.5,71.7,64.8,71.7z M62.5,67.9c0-0.1,0.1-0.3,0.2-0.3c0.2-0.1,0.5,0.1,0.4,0.4c0,0.1,0,0.2-0.2,0.3
		C62.7,68.4,62.4,68.2,62.5,67.9z M62.5,70.4c0.1,0.1,0.3,0,0.4,0.2c0,0.2,0.1,0.5-0.2,0.5c-0.2,0.2-0.5-0.1-0.5-0.3
		C62.2,70.6,62.3,70.5,62.5,70.4z M48.1,54.4c-0.9-0.9-1.4-2.5-3-1.8c-0.9,0.2-1.7-0.7-2.2-1.3c1.9,0.2,3.4-0.5,4.9-1.1l0.1,0.2
		c-0.1,0.5-0.7,1-0.5,1.5c0.9-0.1,1.7-0.7,2.5-1c0.1,0.5-0.5,1.6,0.5,1.9c0.3,0.1,0.7,0,0.9,0.3C50.4,53.7,49.4,54.9,48.1,54.4z"/>
	<path fill="#FFFFFF" d="M29.3,37c-0.9-0.6-2-0.9-3.1-1.1c0-0.8,1-0.7,1.5-0.9c0-0.2-0.2-0.3-0.3-0.4c-0.9-0.2-2-0.1-2.7-0.7
		c-0.1-0.2,0-0.3,0.1-0.5c0.7-1.2,2-1.3,3.2-1.3c0.5-0.1,0.4-0.8,0.3-1.1c-0.2-0.3-0.5-0.5-0.8-0.7c0.2-0.1,0.3,0,0.5,0
		c0.7-0.2,1.6,0.3,2.4,0.5c-0.1-1.2-1.1-2.2-2.1-2.8l0.1-0.1c0.6,0,1,0.4,1.5,0.5c-1.5-1.2-0.1-3.5-1.2-4.9c0.9-0.3,1.6,0.3,2.3,0.4
		c-1.1-1.4-2.4-2.6-4.1-3.1c0.7,0.6,0.3,1.7,0.6,2.4c0,0.4,0.4,0.8,0.4,1.1c-0.4-0.1-0.9-0.1-1.1,0.2c-1.3,1.7,0.6,3.6-0.3,5.5
		c-0.2,0.2-0.5-0.1-0.7,0.2c-0.2,1.3-1.3,2.3-2.2,3.2c-0.3,0.9,0.5,1.5,0.8,2.3c0.6,0.8-0.6,1.4-0.3,2.3c0.7,0.5,1.4,1,2,1.5
		c-0.4,0.5-0.4,1.1-1,1.5c-1.2,0.2-2.2,1.2-2.5,2.4c-0.2,1.6-2.1,2.5-2.7,3.9c-0.3,0.7-0.1,1.5,0.3,2.1c1.4,1.8,0.3,4.2,0.3,6.2
		c0.2,0.5,0.6,0.6,1.1,0.9c-0.1,0.8-0.6,1.4-1,2.1c-0.5,1.9,1.4,2.9,1.5,4.6c-0.1,1.4,0.9,2.5,2,3.2c0.5,1.1,0.9,2.3,1.4,3.5
		c0.3,0.7,1.1,1,1.7,1c-1-1.7-1.3-3.7-1.9-5.6c-2.2-3.2-0.9-7.8-2.4-11.3c-0.6-3.4,1.5-5.8,1.6-9c0.4-3.2,3.2-5.4,4.9-8.1V37z"/>
	<path fill="#FFFFFF" d="M16.9,63.2c-0.5,0.3-0.7,0.8-0.9,1.3c-0.6,1.3-2.6,0.7-2.7,2.2c0.4,0.3,0.9,0.5,1.4,0.5
		c0.5-0.2,0.9-0.6,1.3-1c0.7-1.1,2.2-1.2,1.9-2.7C17.7,63.3,17.4,63.1,16.9,63.2z"/>
	<path fill="#FFFFFF" d="M34.3,70.3c-0.6-0.1-0.7-0.6-0.9-1.1c-0.2-0.7,0.1-1.5,0.2-2.1c-1.1,0-1.9,1-3,1.1
		c-0.6-0.8,0.2-1.5,0.2-2.3c-0.3-0.5-0.9-0.3-1.4-0.4c0,1.5-1.6,2.4-1.1,4c0.3,0.6,0.9,0.3,1.4,0.6c0.1,0.3-0.1,0.7-0.2,1
		c-0.2,0.6,0,1.3,0.6,1.6c0.3,0.2,0.8,0.1,1.1,0c1.5-0.8,3.2-1.5,4.6-2.6C35.3,70.1,34.9,70.5,34.3,70.3z"/>
	<path fill="#FFFFFF" d="M74.4,14.2c0.8-1.7,2.4-2.8,3.8-4c0.2,0.2,0,0.5,0,0.8c0.3,0.6,0.9,0.8,1.4,0.9c0.3-1,0.7-1.9,1-2.9
		c0.5-1.8-0.5-3.5-0.2-5.5c-1,0.7-2.2,1.4-2.8,2.6c-2.4,1.9-3.2,4.7-3.9,7.5c0.1,0.8-0.5,1.4-0.6,1.9C73.3,14.8,74,14.6,74.4,14.2z"
		/>
	<path fill="#FFFFFF" d="M16,63.4c0.3-0.6,1.3-1.1,1.3-1.7c-0.4,0-0.7-0.3-1.1-0.4c-0.2,0.1-0.4,0.2-0.5,0.4c-0.7,1.3-1.8,2.4-2,3.9
		C14.5,65.1,15.4,64.2,16,63.4z"/>
	<path fill="#FFFFFF" d="M79.1,13.9c-0.4,1.3-1.1,2.4-1.1,3.8c0.6,1.9-0.1,4.4,0.9,6.1c-0.3,0.3-0.3,0.9-0.8,1
		c-0.6,0.3-1-0.2-1.5-0.3c-1.1-0.1-2.2-0.5-3.2-0.7c0.1,0.2,0.1,0.4,0.2,0.5c0.9,0.3,1.9,0.8,2.6,1.6c1.3,0.3,2.4-0.5,3.5-0.8
		c0.4-0.8,0.3-1.8,0.3-2.8c0.3-1.5,0.3-3.6,0.2-4.8c0.6-1.7,1.5-4,0.3-5.7C80.2,12.6,79.6,13.2,79.1,13.9z"/>
	<path fill="#FFFFFF" d="M30.4,20.8c0.3,0.6,0.4,1.5,1.1,1.7c-0.1-0.8,0.1-1.7-0.6-2.3c1.2-0.1,2.3,0.7,3.5,0.6l-0.9-1
		c-0.4-1.1-1.2-2.5-0.6-3.6c1.8-0.9-0.3-2.1-0.2-3.1c0.5,0.1,0.8,0.5,1.2,0.7c1.8,1.2,1.6,3.5,2.6,5.2c0,1.8,1.1,3.3,1,5
		c-1.6-0.2-2.9,0.7-3.9,1.9c1.2-0.1,2.1,0.8,3.2,0.5c0.4-1.4,1.9-1.4,3.1-1.8c0.5-0.3,0.3-1,0.5-1.5c0.3-0.4,0.7-0.4,1.1-0.6
		c-1.3-0.7-2.4-1.8-3.7-2.4l-0.2-0.4c0.2-1.4-0.7-2.4-1-3.6c-0.1-0.6-0.7-1.1-1.1-1.7l-2-1.7c-0.8-0.7-1.9-0.5-3-0.5
		c-0.9,0.9-1.2,2-1.5,3.1c-0.4,1.6,0.5,2.8,0.4,4.3L30.4,20.8z"/>
	<path fill="#FFFFFF" d="M15.3,48.5c0.5,0.8,1.5,1.3,2.2,1.9c-0.2-1.1-0.2-2.3-0.2-3.5c0.1-2.1,0.9-3.8,2.8-4.7
		c0.2-0.4,0.7-0.7,0.8-1.2c-0.5,0-0.9,0-1.2-0.4c-1.5-1.6,1-2.7,0.2-4.4c0.4-1,1.6-1,2.2-1.9c-0.1-1.6,0.1-3,0.5-4.5
		c-0.9,0.5-2.1,0.6-2.7,1.5c0.3,1.7,0.1,3.5-1.2,4.7l0,2.3c-0.4,1.4-1.7,2.7-0.6,4.1c-0.1,0.2-0.3,0.2-0.4,0.3
		c-1.4,0.6-1.1,2.2-1.1,3.4C15.9,46.7,15.1,47.4,15.3,48.5z"/>
	<path fill="#FFFFFF" d="M35.4,31.8c-0.4,1.3-0.3,2.9-1.5,3.7c2.1-0.3,3.5-1.7,5.2-3c0.7-0.9,1.1-2,1.3-3L39.9,30
		C38.5,30.8,37.2,32,35.4,31.8z"/>
	<path fill="#FFFFFF" d="M76.4,64.4c0.2,0.1,0.5-0.1,0.7-0.1c0.3-0.1,0.3-0.5,0.3-0.8c-0.1-0.2,0-0.6-0.3-0.7
		C76.3,63,76.2,63.9,76.4,64.4z"/>
	<path fill="#FFFFFF" d="M74.8,64.2c0-0.4,0-0.8-0.1-1.1c-0.3,0.4-0.8,0.6-0.8,1C74.1,64.3,74.5,64.3,74.8,64.2z"/>
	<path fill="#FFFFFF" d="M74.5,59.1c-1.1,0-2.2-0.1-3.1,0.3c-0.3,0.3-0.8,0.5-0.9,0.9c0.6,0.2,1.3,0.4,2,0.5l1.1-0.9
		C73.8,59.6,74.3,59.5,74.5,59.1z"/>
	<path fill="#FFFFFF" d="M72.3,41.7c0.1,0.2,0.3,0.1,0.4,0.1c0.2-0.2,0-0.5-0.3-0.5C72.3,41.5,72.3,41.6,72.3,41.7z"/>
	<path fill="#FFFFFF" d="M70.7,40.5c0.1,0.3,0.5,0.2,0.7,0.3c0.2,0.1,0,0.2,0,0.4h0.4c0.4,0,0.4-0.4,0.5-0.6c0.1-0.1,0.4,0,0.3-0.2
		C72,40.2,71.3,40.2,70.7,40.5z"/>
	<path fill="#FFFFFF" d="M62.8,87c-0.5-1.2-2-0.8-3-1.2c-0.5-0.2-0.4-0.9-0.3-1.3c1.4-0.9,3.2-1,5-1c-0.2-0.3-0.5-0.6-0.8-0.9
		c-0.6-0.9-1.6-0.8-2.3-1.3c-0.2-0.5,0.2-1.1,0.2-1.5c-1.1,0.5-2.6,0.5-3.3,1.8l-1.5-0.2c-1.4-1.5-4.2,0.5-5.2-1.5
		c-0.2-0.4-0.6-0.6-1-0.5c-1.7,0.6-3.5,0.9-5,1.9v0.1c1.8,0.1,3.7,0,5.5,0.1c1.3,0.3,2.2,1.5,3.3,2.2c1.1,0.1,2.2-1,3.2-0.2
		c-0.5,0.5-1.1,0.5-1.7,0.6c-0.5,0.2-0.7,0.7-0.5,1.2c0.9-0.1,1.8-0.4,2.6-0.2c0.8,0.3,0.7,1.2,0.7,1.8c0.2,0.7,1,0.8,1.5,1
		c-0.4,0.6-0.9,1.1-1,1.9c0.1,1,1.2,1.5,1.9,2.2c0.6,0.6,0.2,1.5,0.2,2.2c0.8-0.4,1.8-0.1,2.6,0c0.2-1.4,2.1-1.9,1.6-3.5
		C65.4,88.7,62.5,89.1,62.8,87z"/>
	<path fill="#FFFFFF" d="M53,42.9c-0.7-1.2-1.8-0.5-2.6,0c0.2,0.2,0.6,0.1,0.9,0.3c-0.1,0.1-0.2,0.2-0.4,0.2
		c0.3,0.4,0.6,0.7,1.1,0.7c0.5,0,0.6-0.4,0.5-0.9c0-0.3-0.2-0.2-0.3-0.3C52.4,42.9,52.7,42.9,53,42.9z"/>
	<path fill="#FFFFFF" d="M53.3,44.6c0.1,0,0.1-0.2,0.2-0.3c0-0.2-0.1-0.1-0.3-0.2c-0.2,0-0.3,0.3-0.2,0.5
		C53.2,44.5,53.2,44.7,53.3,44.6z"/>
	<path fill="#FFFFFF" d="M77.3,72.3c-1.8,0.8-2.8,3-4.4,4c-1.9,0.5-4.3,0.5-6.3,0.2c-1.2-0.2-2.3-0.9-3.4-1.4c0.2,1,0.8,1.8,1.8,2.3
		c2.9,0.5,6.2,0.4,9.2-0.2c1.1-0.1,1.6-1.2,1.8-2.1c0.3-0.9,1.6-1.3,1.7-2.2C77.6,72.7,77.5,72.4,77.3,72.3z"/>
	<path fill="#FFFFFF" d="M82.8,52.5c-0.2,0.7,0.1,1.2,0.2,1.8c-0.1,0.5-0.6,1.1-1.1,1.4l-1.5-1.5c-0.1,0.8,0,1.8-0.1,2.5
		c-0.3-0.3-0.6-0.7-1-0.7c-0.8,1.8,1.9,2.2,1.8,3.8c0.6,2.3-2.1,3.3-1.5,5.5c-0.2,1.8-1.9,3.1-1.4,5.1c3.1-5.6,6-11.7,5.6-18.3
		C83.4,52.2,83.1,52.4,82.8,52.5z M80.4,64.5l-0.3,0c-0.3-0.4,0.2-0.8,0.6-0.6C80.8,64.1,80.8,64.5,80.4,64.5z"/>
</g>
<g id="AREA_1">
	<g>
		<path d="M84.9,40.4c-0.1-0.4-0.2-0.9-0.3-1.3c-0.1-0.5-0.1-0.9-0.1-1.5c0-0.5-0.1-1.1-0.2-1.6c0.3-2.5-2.1-4.3-3.5-5.3
			c-0.2-1.1-0.2-2.3-0.2-3.5c0-0.7,0-1.3,0-2c0-0.5,0.1-0.9,0.2-1.4c0.1-0.6,0.3-1.2,0.3-1.9v0l0,0c-0.2-1,0.1-1.8,0.4-2.7
			c0.2-0.6,0.4-1.2,0.5-1.9l0,0l0,0c0-1,0-2.1,0.1-3.1c0-2,0-4.1,0.2-6l0,0l0,0l0-0.2c-0.2-1.6-0.5-3.7,0.1-5.1l0.1-0.3l-0.3-0.1
			c-0.6-0.2-1.2-0.3-1.8-0.3c-0.1,0-0.2,0-0.4,0l0,0l0,0c-1.7,0.4-3.1,1.5-4.5,2.6c-0.8,0.6-1.5,1.2-2.3,1.7
			c-1.5,0.9-2.4,2.2-3.4,3.5c-0.9,1.2-1.8,2.5-3.2,3.4c-0.1,0-0.2,0-0.3,0c-1.8,0-3.3-1.1-4.7-2.1L61.2,11l-0.1,0h-0.1
			c-0.2,0-0.5,0-0.8,0.1l0,0l0,0c-0.7,0.4-1.6,0.6-2.5,0.6c-0.7,0-1.4-0.2-2-0.5l0,0l0,0c-0.3,0-0.5-0.1-0.8-0.1
			c-0.9,0-1.6,0.3-2.1,0.8l0,0l0,0c-0.3,0.4-0.6,0.6-0.8,0.6c-0.4,0-0.8-0.3-1.2-0.6c-0.4-0.3-0.9-0.7-1.4-0.8l0,0l0,0
			c-0.7,0.1-1.4,0.4-2.1,0.6c-0.8,0.3-1.5,0.6-2.3,0.6c-0.3,0-0.6,0-0.8-0.1l0,0l0,0c-0.1,0-0.3,0-0.4,0c-2,0-3.7,0.9-5.3,1.8
			c-0.3,0.2-0.6,0.3-0.9,0.5l-0.1-0.2c-0.9-1.4-1.9-2.9-3.4-4c-1-0.9-2.3-1.3-3.8-1.3c-0.4,0-0.8,0-1.2,0.1l-0.1,0l-0.1,0.1
			l-0.1,0.1c-1.6,2.2-2.2,4.8-2.8,7.3c-0.6,2.4-1.1,4.9-2.6,6.9C17.9,31,15.2,37.3,14.5,44c-1.4,6.2-2.8,11.6-4.3,16.4
			c-1,2.5-1,5.5-0.9,8.4l0,0l0,0c0.4,2.2,0,4.4-0.3,6.5c-0.3,1.9-0.6,3.9-0.4,6l0.5,0.1l0.7-1.1l0,0l0,0c0.5-2.3,2.2-3.8,4-5.4
			c0.5-0.5,1.1-1,1.6-1.5c0,0.1,0,0.2,0,0.3c0,0.3,0,0.6,0.1,0.9l0.1,0.2l0.2,0c0.4-0.1,0.8-0.3,1.1-0.5c0,0,0,0,0,0
			c0,0.1-0.1,0.2-0.1,0.3c-0.1,0.5-0.3,0.9-0.4,1.5l0,0.2l0.2,0.1c0.2,0.1,0.4,0.1,0.6,0.1c0.3,0.1,0.6,0.1,0.8,0.2
			c-0.2,0.6-0.4,1-0.8,1.6c-0.5,0.8-0.9,1.6-1,2.6l0,0.1l0,0.1c0.5,0.9,0.7,2.1,0.5,3.2l0.4,0.3c0.6-0.4,1.4-0.5,2-0.5
			c0.3,0,0.7,0,1,0c0.3,0,0.7,0,1,0c0.3,0,0.5,0,0.7,0c1,0,2-0.3,2.9-0.5c0.3-0.1,0.5-0.1,0.8-0.2l0,0l0,0.1c-0.2,0.5,0,0.9,0.3,1.1
			c0.1,0.2,0.3,0.2,0.4,0.2c0.2,0,0.4-0.1,0.5-0.3c0.1-0.1,0.2-0.2,0.3-0.2h0.1l0.1,0c0.1,0,0.1,0,0.2,0c0.1,0,0.3,0.1,0.5,0.2
			c0,0,0,0,0.1,0c0.3,0.8,0.7,1.5,1.3,2.3c0,0.1,0.1,0.2,0.1,0.2c0,0.1,0.1,0.2,0.1,0.3h0c0,0,0,0,0,0c-0.8,0.4-1.6,1.1-1.7,1.9
			l0.4,0.3l1.1-0.4c0.1,0,0.3-0.1,0.5-0.1c0.1,0,0.2,0,0.3,0c-0.1,0.5-0.1,1.2-0.1,1.6l0.4,0.2c1.1-0.9,2.4-1.4,4-1.6
			c0.6,0.1,0.9,0.2,1,0.6c0.1,0.3,0,0.7-0.1,0.9l0,0l0,0c-0.1,0.2-0.2,0.3-0.3,0.5c-0.2,0.2-0.4,0.4-0.5,0.7l-0.2,0.4l0.4-0.1
			c0.2,0,0.4-0.1,0.6-0.1c0.3-0.1,0.6-0.1,0.8-0.1c0.1,0,0.1,0,0.2,0c0.6,0.3,0.6,1,0.6,1.8c0,0.7,0,1.5,0.6,2l0.2,0.2l0.2-0.2
			c1.2-1.5,2.8-2.4,4.5-2.4c0.5,0,1,0.1,1.5,0.2c0.8,0.3,1.6,0.6,2.4,0.8c1.6,0.5,3.1,0.9,4.4,2.1l0,0l0,0c0.7,0.5,1.6,0.7,2.5,0.7
			c1,0,2.1-0.3,3.1-0.5c1-0.3,2-0.5,2.9-0.5l0,0c1.2,0.2,2.3,0.3,3.6,0.3c0.6,0,1.2,0,1.9-0.1c1.3,0.2,2.7,0.5,4.2,0.5
			c1.5,0,2.7-0.3,3.7-0.8c2.5-0.7,3.1-3.6,3.4-5c0.6-1.6,2.3-2.5,3.6-2.7l0.3,0L79.9,88c-0.2-0.6-0.4-1.1-0.6-1.7
			c-0.6-1.3-1.1-2.5-0.9-4.1l0,0l0,0c-0.1-1.1,0.2-2.1,0.6-3.2c0.4-1.3,0.8-2.7,0.5-4.2l0,0l0,0c-0.1-0.3-0.3-0.6-0.4-0.9
			c-0.3-0.5-0.6-1-0.5-1.6l1.9-3.8l0,0l0,0c0.4-1.5,1.1-2.9,1.8-4.3c0.5-1.1,1.1-2.2,1.5-3.4c1.2-2.9,1.2-6.2,1.2-9.4
			c0-2,0-4.2,0.3-6.1C85.6,43.5,85.3,41.9,84.9,40.4z M80.1,17.5c0.2,1.3,0.2,3.3-0.2,4.8c0,1,0.1,2-0.3,2.8
			c-1.2,0.3-2.3,1.1-3.5,0.8c-0.7-0.8-1.6-1.3-2.6-1.6c-0.1-0.1-0.2-0.3-0.2-0.5c1,0.3,2.1,0.7,3.2,0.7c0.5,0.1,0.9,0.5,1.5,0.3
			c0.5-0.1,0.5-0.7,0.8-1c-1-1.8-0.2-4.2-0.9-6.1c0-1.4,0.8-2.5,1.1-3.8c0.5-0.7,1.1-1.3,1.3-2.1C81.6,13.5,80.7,15.8,80.1,17.5z
			 M73.7,13.5c0.7-2.7,1.5-5.6,3.9-7.5c0.6-1.1,1.8-1.9,2.8-2.6c-0.3,1.9,0.8,3.6,0.2,5.5c-0.2,1-0.7,1.9-1,2.9
			c-0.5,0-1.1-0.3-1.4-0.9c-0.1-0.3,0.2-0.6,0-0.8c-1.4,1.2-3,2.3-3.8,4c-0.4,0.4-1.1,0.6-1.3,1.3C73.1,14.9,73.7,14.3,73.7,13.5z
			 M28.9,15.2c0.3-1.1,0.7-2.2,1.5-3.1c1,0,2.2-0.2,3,0.5l2,1.7c0.4,0.5,1,1,1.1,1.7c0.3,1.2,1.2,2.3,1,3.6l0.2,0.4
			c1.3,0.7,2.4,1.8,3.7,2.4c-0.4,0.2-0.8,0.3-1.1,0.6c-0.2,0.5,0,1.2-0.5,1.5c-1.1,0.3-2.6,0.4-3.1,1.8c-1.2,0.3-2.1-0.6-3.2-0.5
			c1-1.2,2.3-2.1,3.9-1.9c0.1-1.7-1-3.2-1-5c-1-1.7-0.8-4-2.6-5.2c-0.4-0.2-0.8-0.6-1.2-0.7c-0.1,1,2,2.3,0.2,3.1
			c-0.7,1.2,0.2,2.5,0.6,3.6l0.9,1c-1.2,0-2.3-0.8-3.5-0.6c0.7,0.5,0.5,1.5,0.6,2.3c-0.7-0.2-0.8-1.1-1.1-1.7l-1-1.3
			C29.4,18,28.6,16.8,28.9,15.2z M40.3,29.6c-0.2,0.9-0.6,2.1-1.3,3c-1.7,1.3-3.1,2.7-5.2,3c1.2-0.8,1.2-2.4,1.5-3.7
			c1.8,0.2,3.1-1.1,4.6-1.9L40.3,29.6z M17.6,42.5c0.1-0.1,0.3-0.1,0.4-0.3c-1.1-1.4,0.2-2.7,0.6-4.1l0-2.3c1.3-1.2,1.5-3,1.2-4.7
			c0.6-0.9,1.8-1,2.7-1.5c-0.3,1.4-0.5,2.9-0.5,4.5c-0.5,0.9-1.8,0.9-2.2,1.9c0.8,1.7-1.7,2.9-0.2,4.4c0.3,0.4,0.7,0.5,1.2,0.4
			c-0.1,0.5-0.6,0.8-0.8,1.2c-1.9,0.9-2.7,2.6-2.8,4.7c0,1.2,0,2.4,0.2,3.5c-0.8-0.6-1.7-1.1-2.2-1.9c-0.1-1.1,0.6-1.8,1.2-2.6
			C16.5,44.7,16.3,43.2,17.6,42.5z M15.6,61.6c0.2-0.2,0.3-0.3,0.5-0.4c0.4,0.1,0.7,0.3,1.1,0.4c0.1,0.6-0.9,1.1-1.3,1.7
			c-0.5,0.8-1.5,1.7-2.4,2.2C13.8,64,14.9,62.9,15.6,61.6z M16.1,66.2c-0.4,0.4-0.8,0.9-1.3,1c-0.5,0-1-0.2-1.4-0.5
			c0.1-1.5,2-0.9,2.7-2.2c0.2-0.5,0.5-1,0.9-1.3c0.5-0.1,0.8,0.1,1.1,0.3C18.3,65,16.8,65.1,16.1,66.2z M18.7,54.8
			c-0.5,0.8-1.3,0.9-2.1,1c-0.3-0.1-0.6-0.3-0.9-0.5c-0.1-0.5,0.6-0.6,0.9-0.9c0.9-0.5,1.7-1.4,2.8-1.4C19.5,53.6,19,54.2,18.7,54.8
			z M24.4,45.3c-0.1,3.2-2.2,5.6-1.6,9c1.5,3.5,0.2,8.1,2.4,11.3c0.5,1.9,0.9,3.9,1.9,5.6c-0.6,0-1.4-0.3-1.7-1
			c-0.5-1.1-0.9-2.3-1.4-3.5c-1.1-0.7-2.2-1.8-2-3.2c-0.1-1.7-2-2.7-1.5-4.6c0.4-0.7,0.9-1.3,1-2.1c-0.4-0.3-0.9-0.4-1.1-0.9
			c0-2,1.1-4.4-0.3-6.2c-0.4-0.6-0.5-1.4-0.3-2.1c0.6-1.4,2.4-2.3,2.7-3.9c0.4-1.2,1.3-2.2,2.5-2.4c0.6-0.4,0.6-1,1-1.5
			c-0.6-0.5-1.3-1-2-1.5c-0.2-0.9,0.9-1.6,0.3-2.3c-0.3-0.7-1.1-1.4-0.8-2.3c0.9-0.9,1.9-2,2.2-3.2c0.1-0.3,0.5,0,0.7-0.2
			c0.9-1.9-1-3.8,0.3-5.5c0.3-0.2,0.8-0.3,1.1-0.2c0-0.4-0.3-0.7-0.4-1.1c-0.3-0.8,0.1-1.8-0.6-2.4c1.7,0.5,3.1,1.7,4.1,3.1
			c-0.6-0.1-1.4-0.7-2.3-0.4c1.1,1.4-0.3,3.7,1.2,4.9c-0.5-0.1-0.9-0.5-1.5-0.5L28.3,28c1,0.6,2,1.6,2.1,2.8
			c-0.8-0.3-1.7-0.7-2.4-0.5c-0.2,0-0.3-0.1-0.5,0c0.3,0.2,0.6,0.4,0.8,0.7c0.1,0.4,0.2,1-0.3,1.1c-1.3,0-2.5,0.1-3.2,1.3
			c0,0.2-0.2,0.4-0.1,0.5c0.8,0.6,1.8,0.5,2.7,0.7c0.1,0.1,0.3,0.2,0.3,0.4c-0.6,0.2-1.5,0.1-1.5,0.9c1.1,0.2,2.2,0.5,3.1,1.1v0.2
			C27.6,39.9,24.7,42,24.4,45.3z M30.1,72.7c-0.5-0.3-0.8-1-0.6-1.6c0.1-0.3,0.3-0.6,0.2-1c-0.4-0.2-1.1,0-1.4-0.6
			c-0.5-1.5,1.1-2.5,1.1-4c0.5,0,1.1-0.1,1.4,0.4c0,0.8-0.9,1.5-0.2,2.3c1.1,0,1.9-1,3-1.1c-0.1,0.6-0.5,1.4-0.2,2.1
			c0.2,0.5,0.4,1,0.9,1.1c0.6,0.1,1-0.2,1.4-0.2c-1.4,1.1-3,1.7-4.6,2.6C30.9,72.8,30.4,72.9,30.1,72.7z M43.8,75.8
			c-0.3-0.1-0.6-0.6-1-0.3c-0.7,0.4-1.6,0.7-2.4,0.6c-0.6-0.5-0.4-1.2-0.4-1.9c-0.8,0.2-1.6,0.6-2.6,0.7c-1.4,0-2.5-0.7-3.5-1.6
			c-0.2-0.4,0.3-0.7,0.6-0.9c0.5-0.3,1-0.2,1.5,0c-0.2-0.8,0.4-1.3,0.9-1.8c2.1-1.4,3.6,1.7,5.8,0.6c0.3-0.1,0.6-0.4,0.7-0.7
			c-0.2-1.3-1.2-2.3-1.2-3.7c0.4-0.7,1.4-0.3,2.1-0.3c1.7,0.7,3.7,1.4,5.7,0.7c-2-1.3-3.9-2.6-5.8-4.1c-0.3-0.2-0.7-0.4-1.1-0.2
			c-0.6,0.3-1,0.9-1.6,1.2c-2.2,0.8-4.8,3.6-7,1.1c-0.5-0.9,0.2-1.8,0.6-2.5l1.8-2.4c-1.4,0.1-2.6,1.1-3.8,2c-0.9,0.2-0.6-0.9-1-1.4
			c-0.4-0.2-0.8,0.5-1,0.7c-0.8,1.5-1.9,3.1-3.2,4.1c0.4-2.8,1.1-5.6,1.5-8.5c0.4-1.5,1.4-2.9,3-3.4c0.9-0.2,2,0.1,2.8,0.4
			c0.3-0.6,0.3-1.3,0.3-1.9c-0.3-1.3-1.8-2.5-1-3.9c0.5-0.5,1.2-0.3,1.8-0.4c2.7,0.1,5.5,0.5,8.1,0.6c0.2-0.7,0.3-1.5,0.5-2.2
			c-1-0.1-2.4,0.3-3.1-0.6c0-1.1,0.7-2,1.2-2.9c0.3-0.4,0.8-0.5,1.2-0.4c0.5,0.1,0.7,0.4,0.7,0.9c1.4,2.1,3.7,2.3,5.4,3.9
			c0.9,0.6,2.2,0.6,3.3,0.4l-0.6,0.7c1.1-0.1,2.5-0.2,3.3,0.7c0.5,0.6,1.1,1.2,0.9,2c-0.4,0.3-0.9,0.3-1.2,0.7
			c0,0.5,0.2,1.2-0.3,1.4c-1,0.3-2.3,0.5-2.7,1.7c0.7,0,1.6,0.2,2.2-0.2c0.8-0.9,1.3-2.3,2.6-2.6c1.7-1.3,0.5-4.6,3.1-5.1
			c0.6-0.1,1.3,0.3,1.9,0.1c-0.5-1.4-1.4-2.8-2.6-3.7c-0.9,0.7-1.7,1.8-2.7,2.5c-1.4-1.1-2.2-2.4-2.7-3.9c1.6,0.5,2.9-1.4,4.3-0.1
			l0.1,0c-1.9-0.9-2.4-2.9-2.4-4.8c-0.3-0.7-0.5-1.5-1.1-2c-0.1,0.3,0.1,0.9-0.2,1.2l-1.1,0.4c0.3,0.5,0.8,1,1,1.6
			c0.1,1.6-0.7,2.9-1.5,4.1c-0.7-0.5-1.5-1-2.4-0.7c-1.5,0.4-2.7,1.7-4.4,1.6c-0.7-1-1.3-2-1.8-3.1c-0.1-0.5-0.1-1.3,0.5-1.5
			c2.1-1.1,4.2-0.8,6.4-0.7c-0.4-0.6-1.6-1.1-1.3-2c0.9-0.6,1.3-1.5,1.9-2.3c0.7,0,0.7,0.9,1.1,1.3c1.1,1,1.4-1.3,2.6-0.8
			c1,1.3,2,3,3.7,3.4c0.2,0.1,0.3,0.4,0.3,0.6c0,0.4-0.2,0.7-0.2,1.1c0.8,1.2,2.4,1.8,2.7,3.2c0.2,2.1,1.8,3.8,1.5,6
			c-0.2,0.6-0.8,0.7-1.3,1c2.1,2,4.3,4.1,6.3,6c0.5,0.1,1.2,0.5,1.6,0.2c-0.1-0.7-0.7-1.2-0.8-1.9c0.7,0,1.2,0.7,1.8,0.9
			c-3.8-4.3-7.3-8.8-6.8-14.7c0.4-1.1,2.2-1,2.3-2.4c0.2-1.2,0.1-2.1,0.2-3.2h-0.2c-0.5,0.7-0.8,1.5-1.4,2c-0.4-0.5,0-1.2-0.1-1.8
			c0.3-1.8,1.9-3.4,3.5-4.1c1.1-0.2,1.8,0.4,2.6,1c0.5,0.7,0.8,1.4,1,2.2c-0.7,0.7-1.6,1.6-2.5,1.9c-0.7-0.2,0-1.2-0.6-1.5
			c-0.9,1.3-1.6,2.8-1.3,4.5c0.2,0.5,0.5,1.1,0.4,1.8c-0.9,0.8-2.4,1.7-1.8,3.2c0.5,1.3-0.1,3.1,1.4,4c0.9,0.6,1.8,0.9,2.7,1.4
			c0.2-0.4-0.1-0.9-0.2-1.3c-0.2-0.5-0.5-0.9-0.8-1.4c2.1-0.4,3.4-2.3,4.1-4.2c0.7-1.1,2.7-1.8,2-3.3c-0.3-0.3-0.8-0.3-1.3-0.2
			c-0.6,0.3-0.6,0.9-0.6,1.5c-1.2-0.6-2.5-1.2-3.9-0.9c0.9-1.2-0.6-2.4,0.7-3.2c2.3,0,4.9,0.3,6,2.7c0.1,0.4,0.3,0.9,0.1,1.4
			c-0.5,0.9-1.5,1.1-2.2,1.6c1.7,0.7,4-0.6,5.4,0.9c1.3,1.9,2.3,4,2.7,6.3c0,0.9,0.1,1.7,0.2,2.6c-0.8,0-1.8,0.1-2.2,0.9
			c-0.1,0.3-0.1,0.8-0.6,0.9c-0.5,0-0.9-0.3-1.3,0.1c-0.1,0.7,0.4,1.5,0,2c-0.6,0.1-1.4-0.3-1.8,0.2c0.1,0.8,0.5,1.4,0.7,2.1
			c-1.9-0.3-3.9-0.4-5.7-0.8c-0.9,1.3-2,2.6-3.5,3.2c-0.9,0.6-0.8,1.7-0.7,2.6c0.5,2.3,2.7,3.7,4.1,5.5c-0.8,0.5-1.7,1-2.3,1.8
			c0.5,0.5,1.7,0,1.6,0.9c-1.3,2.2-4.3,1.4-5.2,3.9c-2.2,1.2-4.1-0.8-6.1-1.5c-2.1-1-4.2-1.8-6-3.6c-0.2-0.2-0.6-0.1-0.9,0
			c-0.3,0.1-0.6,0.4-0.7,0.7c0.2,0.5,0.7,0.9,1.3,1c0.8,0.2,1.6-0.2,2.2,0.3c0.4,0.5,1.1,0.8,0.9,1.4c-0.3,0.6-0.1,1.4-0.2,2
			c-2.9,0.2-5.2-1.1-7.3-2.6c-1-0.9-1.4-2-2.1-3c-0.1-0.2-0.4-0.3-0.5-0.2c-0.2,0.1-0.5,0.4-0.5,0.7c-0.2,1.5,1.6,1.9,2.4,2.9
			c0.3,0.4,0.8,0.9,1,1.4c-0.9,0.1-1.6,0-2.3-0.3c-1.1-0.9-2-2.2-3.4-2.4v0.2c1.3,1.8,3.3,3.1,5,4.7h-0.1c-1.2-0.9-2.2-2.1-3.8-1.9
			C44.8,74.7,45.1,76.7,43.8,75.8z M52.5,43.3c0.1,0.4,0,0.9-0.5,0.9c-0.5,0-0.8-0.3-1.1-0.7c0.1-0.1,0.3-0.1,0.4-0.2
			c-0.3-0.2-0.6-0.1-0.9-0.3c0.8-0.5,1.9-1.2,2.6,0c-0.3,0-0.6,0-0.8,0.1C52.3,43.2,52.5,43.1,52.5,43.3z M53.2,44.1
			c0.1,0.1,0.3,0,0.3,0.2c-0.1,0.1-0.1,0.3-0.2,0.3c-0.1,0-0.1-0.1-0.2,0C53,44.4,53,44.1,53.2,44.1z M72.4,40.5
			c-0.2,0.2-0.1,0.7-0.5,0.6h-0.4c0-0.1,0.2-0.3,0-0.4c-0.2-0.1-0.7,0-0.7-0.3c0.6-0.3,1.3-0.3,2-0.2C72.7,40.5,72.5,40.5,72.4,40.5
			z M72.7,41.9c-0.1,0-0.3,0-0.4-0.1c0-0.1,0-0.3,0.1-0.4C72.7,41.4,72.9,41.6,72.7,41.9z M77.3,63.6c0,0.3,0,0.6-0.3,0.8
			c-0.2,0-0.5,0.2-0.7,0.1c-0.2-0.6,0-1.4,0.7-1.5C77.3,63,77.2,63.3,77.3,63.6z M74.7,63.1c0.1,0.3,0,0.7,0.1,1.1
			c-0.3,0.1-0.7,0.1-0.9-0.1C74,63.7,74.5,63.5,74.7,63.1z M73.5,59.9l-1.1,0.9c-0.7-0.1-1.4-0.3-2-0.5c0.2-0.4,0.7-0.5,0.9-0.9
			c0.9-0.4,2.1-0.3,3.1-0.3C74.3,59.5,73.8,59.6,73.5,59.9z M63.9,94.2c-0.7-0.1-1.8-0.4-2.6,0c0-0.6,0.4-1.6-0.2-2.2
			c-0.6-0.7-1.8-1.2-1.9-2.2c0-0.8,0.6-1.3,1-1.9c-0.6-0.2-1.3-0.3-1.5-1c0-0.6,0.1-1.5-0.7-1.8c-0.8-0.2-1.7,0.1-2.6,0.2
			c-0.2-0.5,0-1,0.5-1.2c0.6-0.1,1.2-0.2,1.7-0.6c-1.1-0.8-2.2,0.3-3.2,0.2c-1.1-0.7-2-1.9-3.3-2.2c-1.8-0.1-3.7,0-5.5-0.1v-0.1
			c1.5-1,3.3-1.3,5-1.9c0.4-0.1,0.8,0.1,1,0.5c1,2.1,3.8,0,5.2,1.5l1.5,0.2c0.7-1.4,2.2-1.3,3.3-1.8c0,0.5-0.5,1.1-0.2,1.5
			c0.8,0.5,1.7,0.4,2.3,1.3c0.3,0.3,0.6,0.5,0.8,0.9c-1.8,0-3.6,0.1-5,1c-0.1,0.4-0.2,1.1,0.3,1.3c1,0.4,2.6,0,3,1.2
			c-0.3,2.1,2.6,1.7,2.7,3.7C65.9,92.3,64,92.9,63.9,94.2z M76,75.2c-0.3,0.9-0.7,2-1.8,2.1c-3,0.6-6.3,0.6-9.2,0.2
			c-0.9-0.5-1.6-1.3-1.8-2.3c1.1,0.5,2.2,1.2,3.4,1.4c2,0.3,4.4,0.3,6.3-0.2c1.5-1.1,2.5-3.2,4.4-4c0.2,0.1,0.3,0.5,0.4,0.7
			C77.6,74,76.3,74.3,76,75.2z M78.2,70.5c-0.6-2,1.2-3.3,1.4-5.1c-0.6-2.1,2.1-3.2,1.5-5.5c0.1-1.6-2.7-2-1.8-3.8
			c0.4-0.1,0.7,0.4,1,0.7c0.1-0.7,0-1.7,0.1-2.5l1.5,1.5c0.5-0.2,1-0.8,1.1-1.4c-0.1-0.6-0.5-1.2-0.2-1.8c0.3-0.2,0.6-0.4,1-0.4
			C84.2,58.8,81.3,64.8,78.2,70.5z"/>
		<path d="M65.9,63.5c0-0.2-0.2-0.2-0.4-0.2v0.4C65.7,63.8,65.9,63.8,65.9,63.5z"/>
		<path d="M80.1,64.5l0.3,0c0.3,0,0.3-0.4,0.2-0.6C80.3,63.7,79.8,64.1,80.1,64.5z"/>
		<path d="M66.6,65.6c0.2,0.2,0.5,0,0.5-0.3c0-0.4-0.4-0.3-0.7-0.2C66.4,65.2,66.3,65.5,66.6,65.6z"/>
		<path d="M66.5,68c0.5,0,0.5-0.5,0.4-0.8c-0.2-0.1-0.3-0.2-0.5-0.2c-0.2,0.1-0.3,0.3-0.4,0.5C66,67.7,66.2,68,66.5,68z"/>
		<path d="M68.6,67.8c0.1,0,0.4-0.1,0.3-0.3c0.1-0.4-0.3-0.4-0.5-0.3c-0.1,0.1-0.2,0.2-0.2,0.3C68.2,67.8,68.4,67.8,68.6,67.8z"/>
		<path d="M62.9,68.3c0.1,0,0.2-0.1,0.2-0.3c0.1-0.3-0.1-0.5-0.4-0.4c-0.1,0-0.2,0.1-0.2,0.3C62.4,68.2,62.7,68.4,62.9,68.3z"/>
		<path d="M65.7,70c0-0.3-0.1-0.5-0.4-0.6c-0.3,0.1-0.4,0.2-0.3,0.6C65.3,70.2,65.5,70.2,65.7,70z"/>
		<path d="M67.9,70.8v-0.5c-0.1-0.2-0.3-0.1-0.5-0.1c-0.2,0.1-0.2,0.3-0.2,0.5C67.3,70.9,67.7,70.9,67.9,70.8z"/>
		<path d="M62.7,71.1c0.3,0,0.1-0.3,0.2-0.5c-0.1-0.2-0.3-0.1-0.4-0.2c-0.2,0.1-0.3,0.2-0.3,0.4C62.2,71,62.5,71.3,62.7,71.1z"/>
		<path d="M65.1,72.3l0-0.5c-0.1-0.1-0.2-0.2-0.4-0.2c-0.3,0-0.3,0.3-0.3,0.5C64.7,72.3,64.9,72.4,65.1,72.3z"/>
		<path d="M50.5,52.7c-0.9-0.3-0.4-1.4-0.5-1.9c-0.8,0.4-1.6,0.9-2.5,1c-0.3-0.5,0.4-1,0.5-1.5l-0.1-0.2c-1.5,0.6-3,1.4-4.9,1.1
			c0.5,0.6,1.2,1.5,2.2,1.3c1.6-0.7,2.2,0.9,3,1.8c1.3,0.5,2.3-0.7,3.2-1.5C51.2,52.7,50.8,52.7,50.5,52.7z"/>
		<path d="M73,49l3.1,2.6c0.5-1.5-0.3-2.8-1.1-3.9c0-0.1,0-0.2-0.1-0.3c-0.3-0.9,0.7-1.1,1.2-1.4c0.1-0.6-0.4-0.9-0.7-1.4
			c-0.4-0.6,0.6-0.9,0.7-1.4c-0.1-0.6-0.8-0.8-1.3-1c-0.6,1.1,0.3,2,0.4,3c-0.5,0-1.1-0.1-1.5,0.3c-0.1,1.1,0.8,1.8,0.7,2.9
			C74.1,48.8,73.5,48.9,73,49z"/>
	</g>
</g>
</svg>
