<?xml version="1.0" encoding="utf-8"?>
<!-- Generator: Adobe Illustrator 18.1.1, SVG Export Plug-In . SVG Version: 6.00 Build 0)  -->
<!DOCTYPE svg PUBLIC "-//W3C//DTD SVG 1.1//EN" "http://www.w3.org/Graphics/SVG/1.1/DTD/svg11.dtd">
<svg version="1.1" xmlns="http://www.w3.org/2000/svg" xmlns:xlink="http://www.w3.org/1999/xlink" x="0px" y="0px"
	 viewBox="0 0 100 100" enable-background="new 0 0 100 100" xml:space="preserve">
<g id="AREA_2">
	<g>
		<path fill="#004D86" d="M43.3,3c0.2,0,0.4,0,0.6,0.1c0.9,0.5,1.8,0.6,2.6,0.6c0.8,0,1.6-0.1,2.4-0.1c0.5,0,1,0,1.5,0.1
			C50.7,3.9,51,4,51,4.3c0.1,0.2-0.1,0.4,0.1,0.5c0,0,0.1,0,0.1,0c0.7,0,1.4-0.3,2.2-0.3c0.3,0,0.6,0,0.8,0.2c0,0,0,0,0.1,0
			c1.2,0,1.7,1.5,2.8,1.5c0.1,0,0.3,0,0.5-0.1c0.1,0,0.3,0,0.4,0c1.7,0,3,1.2,4.2,2.3c0.1,0,0.1,0,0.2,0c0.5,0,0.9-0.3,1.3-0.3
			c0.1,0,0.2,0,0.3,0.1c1.3,1,2.5,3,4.2,3.4c1.4,0.1,2.8,0.6,3.6,1.9c0.4,0.6,0.6,1.5,1.3,1.9c1,0.7,2.3,0.7,3.3,1.6
			c0.4,1.6,1.8,2.7,3,3.7c0.5,0.3,1,0.6,1.3,1c-0.2,2.3,2.2,3.4,3.5,4.8c1.1,1.3,2.4,2.6,3.7,3.9c1.1,1.7,0.5,3.8,1.2,5.5
			c0.8,1.3,2,2.6,1.7,4.3c-0.6,1.2-0.3,2.8,0.4,3.9c0.5,1.2,0.1,2.8-0.4,4.1c-0.5,1.3,1.3,2.2,0.8,3.5c-0.7,1.4-1.2,3.4-0.2,4.9
			c0.1,1.4-1.4,2.2-1.7,3.5c0.2,2-0.4,3.6-2,4.8c-0.5,1.7-0.6,3.5-0.6,5.4c-0.6,0.7-1.4,0.2-2.1,0.6c0,0.8,0.4,1.8-0.3,2.4
			c-0.5,0.4-1.1,0.4-1.5,0.9c-0.2,0.8,0.4,1.4-0.1,2.1c-0.3,0.7-1.6,1.4-1,2.5c0.5,1.2,1.4,2.7,0.4,4c-0.6,1-1.8,1.8-1.6,3.1
			c0.5,1.1,1.2,2.1,1.6,3.2c0.4,2,1.6,4.3,0.4,6.3c-0.6,0.7-1.3,1.5-2.2,1.5c-0.4,0.3,0.2,1.1-0.6,1.1c-3.4-0.2-6.3-1.7-9.5-2.4
			c-2.8-1-3.8-4.1-5.1-6.5l-1.4-14.8c-0.1,0-0.2,0-0.4,0c-0.3,0-0.7,0-1,0c-0.6,0-1.1-0.1-1.3-0.8c0-0.2-0.1-0.5-0.2-0.6
			c-0.4,0.8-1.2,1.1-2,1.4c0.8,5.5,1.6,11.1,2.4,16.8c1.3,0.6,2.8,1.5,2.9,3.1c0,0.6-0.2,1.1-0.6,1.5c-1.2,0.7-2.5,1-3.7,1
			c-3.5,0-6.8-2.2-9.6-4.1c-1-0.9-2.3-1.8-3.1-2.7c-1.4,0.7-3.1,0.8-4.6,1.2c-1.2,0.5-2.7,0.6-4.1,0.6c-0.8,0-1.5,0-2.2-0.1
			c-0.1-0.1-0.1-0.1-0.2-0.1c-0.1,0-0.2,0.1-0.4,0.1c-0.1,0-0.1,0-0.2,0c-0.7-0.2-1.5-0.3-2.2-0.3c-1.9,0-3.7,0.7-5.1,2.2
			c-1.5,0.7-3.3,0.6-4.8,1.3c-0.1,0-0.3,0-0.4,0c-0.7,0-1.3-0.4-1.7-1c0.1-1.6,1.9-1.9,3-2.4c1.5-1.6,0.2-3.9,0.2-5.8
			c-0.5-0.8-0.6-2.2-1.7-2.2c0,0-0.1,0-0.1,0c-1.9-0.1-3.9-0.8-5.8-1.5c-1.4-0.7-2.7-1.6-4-2.3l1.6-1.4c-1.4-0.2-3.2-0.1-4.2-1.2
			c-0.6-1.1-0.8-2.6-0.8-3.8c0.7-0.7,1.5-1.2,2-2.1c0.4-0.1,0.9-0.2,1-0.6c-0.6-0.4-1.3-0.6-1.7-1.2c0.1-0.8-0.4-2.1,0.7-2.3
			c0.3-0.7-1.1-0.5-0.8-1.2c0.7-0.5,1.4-1.2,1.2-2.1c-0.7-1.3-2.6-0.6-3.4-1.8c-0.1-0.7,0.1-1.3,0.4-1.9c1.9-2.7,3.6-5.4,5.6-8.1
			c-0.5-0.2-1-0.3-1.5-0.5c-2.1-0.9-4.3-1.6-5.9-3.3C7,47.5,7,47,7,46.5c0.6-0.9,1.7-1.2,2.6-1.6c3-2.7,6.2-5.3,9-7.9
			c0.4-0.6-0.3-1.9,0.8-2.1c1.1-0.3,2.3-0.5,3.4-0.7c1.9-1.3,3.8-2.4,5.7-3.8c-0.1,0-0.3-0.1-0.4-0.1c-0.3,0-0.5,0.1-0.8,0.1
			c-0.1,0-0.1,0-0.2,0c0,0-0.1,0-0.1,0c-1,0-1.9-0.5-2.6-1.4c-0.8-1.4-0.3-3.1-0.5-4.6c-3.6-2.5-7.2-5-10.8-7.4
			c-0.6-1.1-1.4-2.1-1.3-3.4c0-0.4,0.5-0.9,0.5-0.9c2.1-2.4,4.6-3.5,7.3-4.3c0.9-0.9,0.9-2.5,2.3-2.8c0.1,0,0.3,0,0.4,0
			c0.1,0,0.3,0,0.4,0c0.4,0,0.7,0,1.1-0.2c0.4-0.4,0.5-1.1,1.1-1.2c0.2,0,0.3-0.1,0.5-0.1c0.8,0,1.5,0.7,2.3,0.7
			c0.2,0,0.4,0,0.6-0.1c0.7-0.5,1.5-0.7,2.3-0.7c1,0,2.1,0.3,2.9,0.8c0.1,0,0.1,0,0.2,0c1,0,1.6-0.9,2.3-1.5c0.1,0,0.2,0,0.3,0
			c0.4,0,0.7,0.1,1.1,0.1c0.1,0,0.2,0,0.3,0c0.1,0,0.3,0,0.4,0c1.1,0,2,0.2,2.9,0.6C41.7,3.5,42.5,3,43.3,3 M43.3,2L43.3,2
			c-0.7,0-1.3,0.2-1.8,0.5c-0.2,0.1-0.4,0.2-0.6,0.2c-1-0.4-2-0.6-3-0.6c-0.2,0-0.3,0-0.5,0l0,0l0,0c0,0-0.1,0-0.1,0
			c-0.1,0-0.3,0-0.5,0C36.6,2,36.4,2,36.1,2c-0.2,0-0.3,0-0.5,0l-0.3,0.1l-0.2,0.2c-0.2,0.1-0.3,0.3-0.5,0.5
			c-0.5,0.5-0.8,0.8-1.1,0.8c-1-0.5-2.1-0.8-3.2-0.8c-1,0-2,0.3-2.7,0.8c0,0-0.1,0-0.1,0c-0.2,0-0.4-0.1-0.7-0.2
			c-0.4-0.2-0.9-0.4-1.5-0.4c-0.2,0-0.5,0-0.7,0.1c-0.8,0.2-1.2,0.8-1.4,1.2c0,0.1-0.1,0.1-0.1,0.2c-0.1,0.1-0.3,0.1-0.5,0.1l-0.2,0
			l-0.2,0c-0.1,0-0.3,0-0.5,0l-0.1,0l-0.1,0c-1.4,0.2-1.9,1.3-2.3,2.1c-0.1,0.3-0.3,0.6-0.4,0.8c-2.5,0.7-5.3,1.9-7.5,4.5
			c-0.1,0.2-0.7,0.8-0.7,1.5c-0.1,1.5,0.6,2.5,1.2,3.5c0.1,0.2,0.2,0.3,0.3,0.5l0.1,0.2l0.2,0.1c2.9,2,5.9,4,8.8,6l1.6,1.1
			c0,0.3,0,0.7,0,1.1c0,1.1-0.1,2.3,0.6,3.5l0,0.1l0,0.1c0.6,0.7,1.2,1.2,2,1.5c-0.2,0.1-0.4,0.3-0.6,0.4c-0.8,0.5-1.7,1.1-2.6,1.7
			c-0.4,0.1-0.7,0.1-1.1,0.2c-0.7,0.1-1.5,0.3-2.2,0.5c-1.4,0.4-1.4,1.7-1.4,2.2c0,0.1,0,0.2,0,0.3c-1.5,1.4-3.2,2.8-4.8,4.2
			c-1.3,1.1-2.6,2.2-3.9,3.4c-0.2,0.1-0.3,0.1-0.5,0.2C7.7,44.6,6.7,45,6.1,46L6,46.2v0.3c0,0.6,0,1.3,0.4,2l0,0.1l0.1,0.1
			C8,50.2,10,51,11.9,51.8c0.3,0.1,0.6,0.2,0.8,0.3l0,0l0,0c0.1,0,0.1,0,0.2,0.1c-1,1.5-2.1,3-3,4.4c-0.6,0.8-1.1,1.7-1.7,2.5l0,0.1
			l0,0.1c-0.4,0.8-0.5,1.6-0.4,2.5l0,0.2l0.1,0.2c0.6,1,1.6,1.2,2.3,1.4c0.5,0.1,0.8,0.2,0.9,0.3c0,0.2-0.3,0.5-0.8,1L10.1,65
			L10,65.3c-0.1,0.3-0.2,0.9,0.3,1.5C9.9,67.3,10,68,10,68.4c0,0.2,0,0.4,0,0.5l-0.1,0.4l0.2,0.3c0.2,0.3,0.4,0.5,0.7,0.7l0,0.1
			c-0.3,0.4-0.6,0.8-1,1.1c-0.3,0.2-0.6,0.5-0.8,0.8l-0.3,0.3V73c0,1.8,0.3,3.2,0.9,4.3l0.1,0.1l0.1,0.1c0.7,0.8,1.7,1.1,2.6,1.3
			l-1,0.8l1.2,0.7c0.5,0.3,1,0.6,1.5,0.9c0.8,0.5,1.7,1,2.6,1.5l0.1,0l0.1,0l0.3,0.1c1.8,0.6,3.8,1.4,5.8,1.4l0.1,0l0.1,0
			c0.1,0.1,0.3,0.6,0.4,0.8c0.1,0.2,0.2,0.4,0.3,0.6c0,0.6,0.2,1.2,0.3,1.8c0.3,1.4,0.4,2.3-0.1,3c-0.2,0.1-0.3,0.1-0.5,0.2
			c-1.1,0.4-2.8,1.1-2.9,3l0,0.3l0.2,0.3c0.6,1,1.5,1.5,2.6,1.5c0.2,0,0.4,0,0.6-0.1l0.2,0l0.1-0.1c0.6-0.3,1.4-0.5,2.2-0.6
			c0.8-0.2,1.7-0.3,2.5-0.7l0.2-0.1l0.1-0.1c1.2-1.2,2.7-1.9,4.4-1.9c0.6,0,1.3,0.1,1.9,0.3c0.2,0.1,0.3,0.1,0.5,0.1
			c0,0,0.1,0,0.1,0l0,0l0.4,0c0.8,0,1.5,0.1,2.3,0.1c1.8,0,3.2-0.2,4.4-0.6c0.3-0.1,0.7-0.1,1.1-0.2c1-0.2,2-0.4,3-0.7
			c0.5,0.5,1.1,0.9,1.6,1.4c0.4,0.3,0.8,0.6,1.1,0.9l0,0l0.1,0c3.1,2.2,6.5,4.3,10.1,4.3c1.5,0,2.9-0.4,4.2-1.1l0.1-0.1l0.1-0.1
			c0.6-0.6,0.9-1.3,0.9-2.2c-0.1-1.6-1.1-2.8-3-3.8c-0.6-4-1.1-8-1.7-11.8L60.3,75c0.2-0.1,0.4-0.2,0.6-0.3c0.3,0.4,0.9,0.6,1.7,0.6
			c0.1,0,0.3,0,0.4,0l1.4,13.9l0,0.2l0.1,0.2c0.3,0.5,0.5,1,0.8,1.5c1,2.1,2.2,4.5,4.8,5.4l0.1,0l0.1,0c1.2,0.2,2.4,0.6,3.7,1
			c1.9,0.6,3.8,1.2,5.9,1.4l0,0l0,0c0.4,0,0.8-0.2,1.1-0.4c0.2-0.3,0.3-0.6,0.3-0.8c0.9-0.3,1.6-1.1,2.1-1.7l0-0.1l0-0.1
			c1.1-1.9,0.5-4,0-5.6c-0.1-0.5-0.3-0.9-0.3-1.3l0-0.1l0-0.1c-0.3-0.8-0.7-1.5-1.1-2.2c-0.2-0.3-0.3-0.6-0.5-0.9
			c0-0.4,0.3-0.7,0.8-1.3c0.2-0.3,0.5-0.6,0.7-0.9c1.3-1.5,0.5-3.3-0.1-4.5c-0.1-0.2-0.1-0.3-0.2-0.5c-0.1-0.2-0.1-0.2,0.4-0.8
			c0.2-0.2,0.4-0.5,0.6-0.8c0.4-0.7,0.3-1.4,0.2-1.8c0-0.1,0-0.2,0-0.3c0.1,0,0.2-0.1,0.3-0.1c0.2-0.1,0.5-0.2,0.8-0.4l0.1,0
			l0.1-0.1c0.7-0.7,0.7-1.7,0.7-2.4c0.5,0,1.2-0.1,1.8-0.7l0.3-0.3l0-0.4c0-1.6,0.1-3.3,0.5-4.8c1.5-1.3,2.3-3.1,2.1-5.3
			c0.1-0.3,0.3-0.6,0.6-1c0.5-0.7,1.1-1.5,1-2.7l0-0.3l-0.1-0.2c-0.8-1.2-0.2-2.9,0.3-3.9l0,0l0,0c0.4-1.1-0.1-2-0.5-2.6
			c-0.3-0.5-0.4-0.7-0.3-0.9c0.7-1.9,0.8-3.5,0.4-4.8l0-0.1l-0.1-0.1c-0.5-0.8-0.8-2-0.4-2.9l0.1-0.1l0-0.1c0.3-1.7-0.5-3-1.3-4.1
			c-0.2-0.3-0.3-0.5-0.5-0.8c-0.3-0.6-0.3-1.4-0.4-2.2c-0.1-1.1-0.2-2.4-0.9-3.5l-0.1-0.1l-0.1-0.1l-0.6-0.6c-1-1.1-2.1-2.2-3-3.2
			c-0.4-0.5-0.9-0.9-1.4-1.3c-1.2-1-2-1.8-1.9-2.9l0-0.3l-0.2-0.3c-0.4-0.6-1-1-1.4-1.2l-0.1-0.1l-0.3-0.2c-1-0.9-2.1-1.8-2.4-2.9
			l-0.1-0.3L77,16.3c-0.7-0.7-1.5-1-2.3-1.2c-0.4-0.1-0.8-0.3-1.2-0.5c-0.2-0.1-0.4-0.5-0.6-0.8c-0.1-0.2-0.3-0.5-0.4-0.8
			c-0.9-1.4-2.3-2.3-4.3-2.4c-0.8-0.2-1.6-1.1-2.3-1.8c-0.5-0.5-0.9-1-1.5-1.4l-0.1-0.1l-0.1-0.1c-0.2-0.1-0.4-0.1-0.6-0.1
			c-0.4,0-0.7,0.1-1,0.2c0,0-0.1,0-0.1,0.1c-1.2-1.1-2.7-2.3-4.5-2.3c-0.2,0-0.3,0-0.5,0l-0.1,0l-0.1,0c-0.1,0-0.1,0-0.1,0
			c-0.2,0-0.5-0.3-0.7-0.5c-0.5-0.4-1.1-1-1.9-1c-0.3-0.1-0.7-0.2-1.1-0.2c-0.5,0-0.9,0.1-1.3,0.2c-0.1,0-0.2,0-0.2,0.1
			c-0.2-0.4-0.6-0.6-0.7-0.7l-0.1,0l-0.2-0.1l-0.2-0.1c-0.5-0.1-1.1-0.2-1.7-0.2c-0.5,0-0.9,0-1.3,0.1c-0.4,0-0.7,0-1.1,0
			c-0.9,0-1.5-0.1-2.2-0.5l-0.1,0l-0.1,0C44,2,43.6,2,43.3,2L43.3,2z"/>
	</g>
	<path fill="#FFFFFF" d="M90.7,48.3c0.5-1.3,0.8-2.8,0.4-4.1c-0.7-1.1-1-2.7-0.4-3.9c0.3-1.7-0.9-2.9-1.7-4.3
		c-0.8-1.8-0.2-3.9-1.2-5.5c-1.3-1.3-2.6-2.6-3.7-3.9c-1.3-1.4-3.6-2.5-3.5-4.8c-0.3-0.5-0.8-0.7-1.3-1c-1.2-1-2.7-2.2-3-3.7
		c-0.9-0.9-2.2-0.9-3.3-1.6c-0.7-0.4-0.9-1.3-1.3-1.9c-0.8-1.3-2.2-1.9-3.6-1.9c-1.7-0.4-2.9-2.4-4.2-3.4c-0.6-0.2-1.1,0.4-1.8,0.3
		c-1.3-1.2-2.7-2.5-4.6-2.3c-1.4,0.5-2-1.5-3.4-1.4c-1-0.5-2,0.2-3.1,0.1C50.9,4.7,51,4.4,51,4.3c0-0.3-0.3-0.4-0.5-0.5
		c-2.5-0.5-4.3,0.6-6.6-0.7c-1.1-0.4-2,0.4-3,0.6c-1-0.4-2.1-0.7-3.4-0.6c-0.6,0.1-1.2-0.2-1.7-0.1c-0.7,0.7-1.4,1.7-2.5,1.5
		c-1.5-0.8-3.7-1.2-5.2-0.1c-1.3,0.5-2-0.9-3.3-0.5c-0.7,0.1-0.7,0.8-1.1,1.2c-0.7,0.4-1.2,0.2-1.9,0.3c-1.4,0.3-1.4,1.9-2.3,2.8
		c-2.7,0.8-5.3,1.9-7.3,4.3c0,0-0.5,0.5-0.5,0.9c-0.1,1.4,0.7,2.4,1.3,3.4c3.6,2.4,7.2,4.9,10.8,7.4c0.2,1.5-0.3,3.2,0.5,4.6
		c0.7,0.9,1.7,1.4,2.7,1.4c0.5,0.1,0.9-0.2,1.3,0c-1.9,1.3-3.8,2.5-5.7,3.8c-1.1,0.3-2.3,0.4-3.4,0.7c-1.1,0.3-0.4,1.5-0.8,2.1
		c-2.8,2.6-6,5.2-9,7.9c-0.9,0.4-2,0.7-2.6,1.6c0,0.5,0,1,0.3,1.4c1.6,1.7,3.8,2.4,5.9,3.3c0.5,0.2,1,0.3,1.5,0.5
		c-1.9,2.6-3.7,5.4-5.6,8.1c-0.3,0.6-0.4,1.2-0.4,1.9c0.7,1.3,2.7,0.5,3.4,1.8c0.2,0.9-0.5,1.6-1.2,2.1c-0.3,0.8,1.1,0.5,0.8,1.2
		c-1.1,0.3-0.6,1.5-0.7,2.3c0.4,0.6,1.1,0.8,1.7,1.2c-0.1,0.4-0.7,0.5-1,0.6c-0.5,0.9-1.3,1.3-2,2.1c0,1.2,0.2,2.7,0.8,3.8
		c1,1.2,2.8,1,4.2,1.2l-1.6,1.4c1.3,0.8,2.7,1.6,4,2.3c1.9,0.7,3.9,1.4,5.8,1.5c1.2-0.1,1.3,1.4,1.8,2.2c0,1.9,1.3,4.3-0.2,5.8
		c-1.1,0.6-2.9,0.9-3,2.4c0.5,0.8,1.2,1.2,2.1,1c1.4-0.8,3.3-0.7,4.8-1.3c2-2.1,4.8-2.6,7.4-1.9c0.3,0.2,0.6-0.2,0.8,0.1
		c2.1,0.1,4.4,0.2,6.3-0.5c1.6-0.3,3.2-0.5,4.6-1.2c0.8,1,2.1,1.8,3.1,2.7c3.8,2.6,8.6,5.7,13.3,3.2c0.4-0.4,0.6-0.8,0.6-1.5
		c-0.1-1.6-1.6-2.5-2.9-3.1c-0.8-5.8-1.6-11.3-2.4-16.8c0.8-0.3,1.6-0.6,2-1.4c0.2,0.1,0.2,0.4,0.2,0.6c0.4,1.2,1.8,0.6,2.6,0.7
		l1.4,14.8c1.3,2.3,2.3,5.5,5.1,6.5c3.2,0.6,6.1,2.1,9.5,2.4c0.8,0,0.2-0.8,0.6-1.1c0.9-0.1,1.7-0.8,2.2-1.5c1.1-2,0-4.3-0.4-6.3
		c-0.4-1.1-1.1-2.1-1.6-3.2c-0.2-1.3,1-2.1,1.6-3.1c1.1-1.2,0.1-2.8-0.4-4c-0.5-1.1,0.7-1.8,1-2.5c0.5-0.7-0.1-1.3,0.1-2.1
		c0.4-0.5,1-0.6,1.5-0.9c0.7-0.7,0.3-1.6,0.3-2.4c0.7-0.5,1.4,0.1,2.1-0.6c0-1.9,0.1-3.7,0.6-5.4c1.6-1.2,2.2-2.8,2-4.8
		c0.3-1.3,1.8-2.1,1.7-3.5c-1-1.5-0.5-3.4,0.2-4.9C92,50.4,90.2,49.6,90.7,48.3z"/>
</g>
<g id="AREA_1">
	<g>
		<path d="M18.1,58.7c0.1,1,0.1,2,0.1,3c-0.1-1.2-1.3-2.2-2.4-2.8v-0.1C16.6,58.8,17.2,58.6,18.1,58.7z"/>
		<path d="M15.3,61.7c0.1,0.4,0.1,0.9-0.3,1c-0.5-0.1-0.9-0.7-1-1.1C14.3,61.3,15,61.2,15.3,61.7z"/>
		<path d="M20.6,63.2c1.5,0.9,1.5,2.6,3,3.6c0.2,0.7,0.4,1.4,0.1,2.1c-0.5-0.1-0.7-0.8-1-1.2c-1.2-1-2.1-2.5-3.3-3.7
			c-0.4-0.7-0.4-1.8,0-2.5C19.9,61.9,19.9,62.8,20.6,63.2z"/>
		<path d="M90.7,48.3c0.5-1.3,0.8-2.8,0.4-4.1c-0.7-1.1-1-2.7-0.4-3.9c0.3-1.7-0.9-2.9-1.7-4.3c-0.8-1.8-0.2-3.9-1.2-5.5
			c-1.3-1.3-2.6-2.6-3.7-3.9c-1.3-1.4-3.6-2.5-3.5-4.8c-0.3-0.5-0.8-0.7-1.3-1c-1.2-1-2.7-2.2-3-3.7c-0.9-0.9-2.2-0.9-3.3-1.6
			c-0.7-0.4-0.9-1.3-1.3-1.9c-0.8-1.3-2.2-1.9-3.6-1.9c-1.7-0.4-2.9-2.4-4.2-3.4c-0.6-0.2-1.1,0.4-1.8,0.3c-1.3-1.2-2.7-2.5-4.6-2.3
			c-1.4,0.5-2-1.5-3.4-1.4c-1-0.5-2,0.2-3.1,0.1C50.9,4.7,51,4.4,51,4.3c0-0.3-0.3-0.4-0.5-0.5c-2.5-0.5-4.3,0.6-6.6-0.7
			c-1.1-0.4-2,0.4-3,0.6c-1-0.4-2.1-0.7-3.4-0.6c-0.6,0.1-1.2-0.2-1.7-0.1c-0.7,0.7-1.4,1.7-2.5,1.5c-1.5-0.8-3.7-1.2-5.2-0.1
			c-1.3,0.5-2-0.9-3.3-0.5c-0.7,0.1-0.7,0.8-1.1,1.2c-0.7,0.4-1.2,0.2-1.9,0.3c-1.4,0.3-1.4,1.9-2.3,2.8c-2.7,0.8-5.3,1.9-7.3,4.3
			c0,0-0.5,0.5-0.5,0.9c-0.1,1.4,0.7,2.4,1.3,3.4c3.6,2.4,7.2,4.9,10.8,7.4c0.2,1.5-0.3,3.2,0.5,4.6c0.7,0.9,1.7,1.4,2.7,1.4
			c0.5,0.1,0.9-0.2,1.3,0c-1.9,1.3-3.8,2.5-5.7,3.8c-1.1,0.3-2.3,0.4-3.4,0.7c-1.1,0.3-0.4,1.5-0.8,2.1c-2.8,2.6-6,5.2-9,7.9
			c-0.9,0.4-2,0.7-2.6,1.6c0,0.5,0,1,0.3,1.4c1.6,1.7,3.8,2.4,5.9,3.3c0.5,0.2,1,0.3,1.5,0.5c-1.9,2.6-3.7,5.4-5.6,8.1
			c-0.3,0.6-0.4,1.2-0.4,1.9c0.7,1.3,2.7,0.5,3.4,1.8c0.2,0.9-0.5,1.6-1.2,2.1c-0.3,0.8,1.1,0.5,0.8,1.2c-1.1,0.3-0.6,1.5-0.7,2.3
			c0.4,0.6,1.1,0.8,1.7,1.2c-0.1,0.4-0.7,0.5-1,0.6c-0.5,0.9-1.3,1.3-2,2.1c0,1.2,0.2,2.7,0.8,3.8c1,1.2,2.8,1,4.2,1.2l-1.6,1.4
			c1.3,0.8,2.7,1.6,4,2.3c1.9,0.7,3.9,1.4,5.8,1.5c1.2-0.1,1.3,1.4,1.8,2.2c0,1.9,1.3,4.3-0.2,5.8c-1.1,0.6-2.9,0.9-3,2.4
			c0.5,0.8,1.2,1.2,2.1,1c1.4-0.8,3.3-0.7,4.8-1.3c2-2.1,4.8-2.6,7.4-1.9c0.3,0.2,0.6-0.2,0.8,0.1c2.1,0.1,4.4,0.2,6.3-0.5
			c1.6-0.3,3.2-0.5,4.6-1.2c0.8,1,2.1,1.8,3.1,2.7c3.8,2.6,8.6,5.7,13.3,3.2c0.4-0.4,0.6-0.8,0.6-1.5c-0.1-1.6-1.6-2.5-2.9-3.1
			c-0.8-5.8-1.6-11.3-2.4-16.8c0.8-0.3,1.6-0.6,2-1.4c0.2,0.1,0.2,0.4,0.2,0.6c0.4,1.2,1.8,0.6,2.6,0.7l1.4,14.8
			c1.3,2.3,2.3,5.5,5.1,6.5c3.2,0.6,6.1,2.1,9.5,2.4c0.8,0,0.2-0.8,0.6-1.1c0.9-0.1,1.7-0.8,2.2-1.5c1.1-2,0-4.3-0.4-6.3
			c-0.4-1.1-1.1-2.1-1.6-3.2c-0.2-1.3,1-2.1,1.6-3.1c1.1-1.2,0.1-2.8-0.4-4c-0.5-1.1,0.7-1.8,1-2.5c0.5-0.7-0.1-1.3,0.1-2.1
			c0.4-0.5,1-0.6,1.5-0.9c0.7-0.7,0.3-1.6,0.3-2.4c0.7-0.5,1.4,0.1,2.1-0.6c0-1.9,0.1-3.7,0.6-5.4c1.6-1.2,2.2-2.8,2-4.8
			c0.3-1.3,1.8-2.1,1.7-3.5c-1-1.5-0.5-3.4,0.2-4.9C92,50.4,90.2,49.6,90.7,48.3z M24,13.1c0.2-0.6,0.4-1.1,0.7-1.7
			c0.6-0.6,1.4-0.3,2.1-0.2l2,6.8C27.2,16.6,25.6,14.7,24,13.1z M36.5,17c-0.5-0.2-1.1-0.4-1.6-0.1l-1.5-5.2
			c0.7-0.2,1.3-0.7,1.8-1.3L36.5,17z M36.2,9.8c1.1,0.1,2.2,0.7,3.4-0.1c-0.1,2.3-0.3,4.6-0.5,6.9c-0.4,0.3-0.8,1.2-1.4,0.9
			L36.2,9.8z M33.9,17.2c-1.1,0.1-0.3,2.1-1.7,1.3c-0.8-0.2-1.5-1.6-2.4-0.7c-0.6-2.1-1.2-4.2-1.8-6.4c1.4,0.2,2.9,0.6,4.4,0.4
			C32.9,13.7,33.4,15.4,33.9,17.2z M20.3,36.3c1.8-1.4,3.9,0.2,5.5,1l3,1.8c6.3,2.7,12,6.9,17.8,10.7l0.1,0.5
			c-0.9,0.4-1.8,0.7-2.5,1.3C39,47.8,33.6,44.2,28,41.2c-2.3-1.5-4.9-2.5-7.4-3.7C20.4,37.2,20.1,36.7,20.3,36.3z M59.1,58.5H60
			c-0.3,1.7-1,3.4-2,4.8c-0.8-1.1-1.7-2.3-2.5-3.5C56.7,60,58.1,59.4,59.1,58.5z M55.4,58.9c-0.1-0.4,0.2-0.9,0.3-1.3
			c0.6,0.2,1.2,0.1,1.9,0.3c-0.1,0.4,0,0.8-0.5,1L55.4,58.9z M58,57.4c-0.8-0.3-1.7-0.3-2.4-0.7c-0.1-0.5-0.1-1-0.3-1.4l0.1-0.1
			c1.9,0.4,3.8,0.8,5.7,1.3C60.5,57.6,59.1,57.5,58,57.4z M55.1,54.1c-0.6-0.7-1-1.6-1.6-2.2l11.7,2.7c0.1,0.6,0,1.2-0.6,1.4
			c-0.9,0.5-2.2,0.2-3-0.4L55.1,54.1z M54.3,54.1c0.9,1.9,0.9,4.6-0.3,6.3c-1.5,2.1-4,3.3-6.5,2.7c-2.3-0.5-4.3-2.5-4.8-4.8
			c-0.3-2.3,0.3-4.6,2.1-6.1c2.2-1.7,5-2,7.4-0.5C53,52.3,53.7,53,54.3,54.1z M54,71.6v15.6c-0.4-0.2-0.8-0.5-1.1-0.9v-17
			c-0.4-0.2-1-0.2-1.3,0v15.5c-0.4-0.3-0.7-0.7-1-1.1l-0.1-14.6v-1.7c-0.4-0.3-0.9-0.2-1.3-0.1l-0.1,14.4c-1.9-3-3.4-6.4-3.4-10
			c0-0.6-0.2-1.2-0.1-1.9l4.8-6c0.3,0,0.5-0.3,0.8-0.3l6,9.1l0.5,4c-0.3,0.1-0.7,0-1,0.1l-0.1,12.4c-0.5-0.2-1-0.4-1.4-0.8V71.6
			C55,71.4,54.4,71.4,54,71.6z M16.4,46.9l7.2-6.3c6.9,3.2,13.6,7.2,19.9,11.9c-0.4,0.7-0.9,1.4-1.2,2.2c-1.9-2.2-3.4-5-5.8-6.6
			c-1.7-0.8-3.4-1.7-5-2.6c-4-1.5-6.7,2.4-10.8,1.4c-1.4-0.1-2.9-0.1-4.3,0.2V46.9z M15.2,46.7c-0.6-0.1-1.2-0.3-1.7-0.6
			c2.7-2.3,5.4-4.4,8-6.8c0.3,0.2,0.6,0.3,1,0.5V40L15.2,46.7z M44.6,62.4c-3.1,3.9-6.2,7.6-9.3,11.5c-3.5,1.9-7.4,3.5-11.7,2.8
			l-0.1-0.1l14.8-12.4c1.4-1.3,3-2.4,4.4-3.7C43.3,61.1,43.8,62,44.6,62.4z M19.3,38.5c0.3,0.1,0.6,0.1,0.8,0.3
			c-2.6,2.5-5.4,4.6-7.9,7.1l-1-0.2L19.3,38.5z M10.7,48.8c-0.8-0.5-1.5-0.9-2.2-1.5L8.9,47c2.8-0.7,4.7,1.2,7.2,1.4
			c2,0.4,4.5-0.2,6.6-0.2c3-0.3,6-2.3,9.2-0.9c3.8,1.4,7.3,4.6,9.6,8.2L39.7,57c-1.3-1.4-2.3-3.2-3.5-4.6c-2.4-1.9-4.5-4.9-7.9-4
			c-2.7,0.6-5.2,2-8.3,1.9C16.7,50.3,13.8,49.4,10.7,48.8z M15.4,76.7c-1.4-0.4-3.5,0.6-4.1-1.1c-0.4-1.3,0.6-2.7,1.8-3.7
			c0.7-0.3,1.4-0.9,1.3-1.7c-0.2-1-1.4-0.4-1.7-1.3c-0.2-0.3-0.3-0.7-0.2-1c0.8-0.6,2-0.7,3-0.4c1,0.4,2,1.1,2.9,1.8
			c0.2,0.1,0.4-0.1,0.6-0.2c0.1-0.5,0.1-1.1-0.3-1.4c-1.5-1.1-3.7-0.8-5.5-1.2c-0.7-0.1-0.5-0.7-0.4-1.2c0.4-0.6,0.9-1.3,0.8-2.1
			c-0.5-0.6-0.7-1.7-1.6-1.8c-0.6-0.2-1.2,0.4-1.7-0.2c-0.3-0.3-0.5-0.6-0.3-1c1.4-2,2.8-4.1,4.1-6.2l1.8-2.1
			c1.7,0.2,3.2-0.1,4.7-0.2c-0.6,0.4-1.3,1-1.5,1.7c0.7,0.4,1.6-0.1,2.2-0.6c0.5,0.6,1.1,1.1,1.9,0.9c0.5-0.2,0.7-0.6,1-0.9
			c0.6,0.5,1.3,1.2,2.1,1.2c0.5-0.2,0.3-0.7,0.4-1c-0.7-0.5-1.6-0.9-1.7-1.8c0.9-0.2,1.9-0.4,2.8-0.4c0.9,0.7,1.8,1.3,2.7,1.8
			c0.3-0.2-0.1-0.4,0.1-0.7c-0.6-0.5-1.8-0.4-1.7-1.5c0.6-0.3,1.7-0.4,2.2,0.1c1.1,1,2.5,1.8,3.9,2.4c1.2,1.6,2.3,3.3,3.5,4.9
			l-2.8,2.4L17.8,75.4C17,75.8,16.4,77.2,15.4,76.7z M22,80.8c-1.9-0.3-3.8-0.8-5.4-1.7l1-0.9l10.4-8.4c4.7-3.9,9.5-7.9,14.1-11.6
			c0.1,0.3,0.1,0.6,0.2,0.9c-2.3,1.8-4.5,3.9-6.7,5.7l-14,11.9c-0.2,0.1-0.5,0.4-0.6,0.6c3.7,1.6,8.6,1.1,12.1-0.6
			c1.7-1,4-1,4.9-3.2l8.1-10.3c0.6,0.2,1.1,0.5,1.8,0.5v0.1c-3,4-6,8-9,12C33.9,79.3,28.5,82.3,22,80.8z M27.9,83.2
			c1.2-0.1,2.4-0.9,3.6-0.3v0.1l-2.7,3.3C28.3,85.4,28,84.4,27.9,83.2z M43.4,88.9c-1.3,0.7-3,0.3-4.5,0.2c-1.4-0.1-3.2-0.3-4.6-0.1
			l-4.2,0.5v-0.2c2.3-2.9,4.5-5.9,6.8-8.8c1.1-0.4,2.1-1.7,3.4-1.3l0.1,0.6c-0.4,3.3,1.1,5.9,2.9,8.3C43.5,88.3,43.5,88.6,43.4,88.9
			z M62.5,93.9c-2.1,1.8-5,0.3-7.2-0.4c-3.5-1.4-6.4-4.7-8.9-7.4C44,82.9,43,79,41.8,75.2l2.3-3.7c0.1,4.6,1.8,8.6,4.5,12.2
			c2.4,3.3,5.2,6.7,9.1,7.6C59.6,91.8,61.7,91.8,62.5,93.9z M59.4,90c-0.4-0.2-0.8-0.3-1.3-0.4L58.1,79L59.4,90z M60.4,72.3
			c-0.4,0-0.8,0.2-1.2,0.1c-1.9-3.4-4.2-6.7-6-10.2c0.5-0.3,0.8-0.8,1.1-1.2c3,3,5.2,6.4,6.4,10.2C60.7,71.6,61,72.1,60.4,72.3z
			 M60.2,66.6h-0.1L59,64.7c0.6-2.2,1.5-4.2,2.1-6.4c0.8-0.6,1.7-1,2.7-0.7c-0.5,2.4-1.1,4.8-2.3,6.9C61,65.2,60.6,65.9,60.2,66.6z
			 M61.4,69.2l-0.4-0.9c2-3.5,3.4-7.2,4.2-11.1c-0.1-0.1-0.2-0.1-0.3-0.2c0.6-0.6,1.9-1.1,1.4-2.2c-0.1-1.5-1.7-1.1-2.7-1.5
			c-5.3-1.3-10.3-2.6-15.6-3.8c-6-5.1-12.8-8.3-19.3-12.2v-0.1c1-0.6,1.8-1.7,3-1.7c0.4-0.2,0.9-0.1,1.2-0.4c-0.1-0.4-0.4-0.7-0.6-1
			l-2.7,0.9l-2.3,1.8L26.1,36c1.1-1.6,3.2-2,4.9-2.7c-0.1-0.4-0.3-0.7-0.6-1c-1.9,0.8-3.9,1.2-5.4,2.9l-0.7-0.2
			c2.3-1.6,4.7-3.4,7-4.9c6,0,12.5-1.1,18,0.8c4.7,1.6,9.1,4.1,12.7,7.8c4.4,5,5.9,11.3,5.3,17.9c-0.1,1.7-0.7,3.5-1.3,5.1
			C64.8,64.4,63.1,66.8,61.4,69.2z M69.3,66.2c-1.5,2.6-3.4,4.5-5.8,6.6c-0.4,0.1-0.8-0.1-1.1-0.2c-0.8-1.6,0.6-2.8,1.3-4
			c5.4-4.5,5.6-11.6,5.5-18.4C68.4,43.4,65,37.1,59,33c-6.9-5-16.6-6.3-24.6-5.3l-7,0.9c-0.6-0.1-1.2-0.4-1.5-1
			c-0.2-1.2,0.7-2.1,1.6-2.7c7-1.1,15.2-1.9,22-0.1c6.6,1.7,13,4.8,17.6,10.8C73.4,43.7,74.4,57.2,69.3,66.2z M40.1,16.4
			c0.2-2.4,0.4-4.9,0.6-7.2c0.7-0.2,1.2,0,1.8,0.2c-0.1,2.3-0.3,4.8-0.5,7.2C41.5,16.6,40.9,16.3,40.1,16.4z M43,17.4
			c0.2-2.5,0.4-5.1,0.5-7.5c0.5,0,0.8,0.3,1.2,0.4l-0.1,0.2l-0.6,6.8C43.8,17.4,43.4,17.5,43,17.4z M53.1,9.7c0.5,0.2,0.9,0.6,1.3,1
			c-0.6,2.6-1.1,5.3-1.9,7.8c-0.2,0.2-0.3,0.3-0.5,0.3l-0.3-0.3c0.5-2.6,0.7-5.1,1.3-7.7C53,10.5,53.2,10.1,53.1,9.7z M79.4,76.1
			c-1-1.3-2-2.7-2.9-4.1c0-0.7,0.2-1.5,0.3-2.3l2.7,2.5C79.4,73.5,79.8,74.9,79.4,76.1z M79,76.9c-0.1,0.8-0.9,1.6-1.4,2.3l-0.2-0.1
			c-1.1-1.8-2.3-3.5-3.5-5.2c0-0.3,0-0.6,0.2-0.8c0.6-0.4,1.3-0.1,2-0.3l2.9,4.1L79,76.9z M74.9,66.6c-0.2-0.5,0-1,0.3-1.3
			c2,1,3.9,2.2,5.9,3.2c-0.3,1-0.9,1.8-1.3,2.7L74.9,66.6z M77,65.3c0.2-0.5,0.5-1.1,0.2-1.6c1.6,0.5,3.1,1,4.7,1.4
			c0.3,0.8,0.1,1.8-0.3,2.6h-0.3C79.9,66.9,78.5,66,77,65.3z M82,64.2c-2.2-0.6-4.4-1.4-6.6-2.1V62c0.5-0.4,1.2-0.9,1.3-1.4
			l-0.1-0.1c2,0.7,4,1.3,6,2.1C82.2,63,81.9,63.5,82,64.2z M75.6,59.1l-0.3-0.6c1.1,0.1,2.4,0.5,3.6,0.8l4.3,1.1
			c0.2-0.2,0.4-0.5,0.6-0.7c-2.7-0.8-5.5-1.3-8.1-2.1c0.7-0.4,1.6-0.4,2.3-0.8c2.1,0.1,4.2,0.7,6.4,0.9c-0.2,1.4-0.7,2.8-1.4,4.1
			C80.6,60.9,78.1,60,75.6,59.1z M78,55.4c-0.3-0.3-0.4-0.8-0.4-1.2l0.5-0.8l6.2,0.9l0.3,2.1C82.5,56,80.2,55.8,78,55.4z M78.6,52.1
			c-0.1-0.2-0.1-0.5-0.1-0.7c1.8,0,3.8-0.1,5.7,0.1c0.1-0.4-0.3-0.7-0.4-1.1c-1.7-0.2-3.6-0.2-5.3-0.1c-0.3-0.3-0.4-0.8-0.7-1.1
			c2.3-0.4,4.5-0.8,6.8-1c0.4,0.9,0.9,1.9,1.5,2.7c0.2,0.9-0.8,1.5-1.2,2.3C82.9,52.7,80.7,52.4,78.6,52.1z M84.4,46.9
			c-2.5,0.4-4.6,0.7-7.1,1.1C77,48,76.9,47.7,77,47.4c0.1-0.3,0.3,0.1,0.5-0.1l6-1.1l0.1-0.1c-0.6-2.1-2.6-0.3-4-0.5
			c-0.5,0.1-1.2,0.3-1.8,0.3c0-0.2,0.2-0.4,0.3-0.5c2.4-0.5,4.7-1,7.1-1.5C85.2,45.1,84.4,45.9,84.4,46.9z M78,44.3
			c-0.3-0.8-1.1-1-1.8-1.4c2.7-0.7,5.6-1.1,8.3-1.8l0.5,1l0.2,0.7C82.8,43.3,80.4,44,78,44.3z M75.9,41.9c0.3-1.1,1.6-0.8,2.4-1.2
			c1.5-0.4,3-0.8,4.6-1.3l0.7,0.9L75.9,41.9z M82.9,38.2c-2.1,0.7-4.3,1.2-6.5,1.8c-0.1-0.4-0.5-0.9-0.9-1.1l0.2-0.2
			c2.5-0.7,5-1.3,7.5-2C83.1,37.3,83.1,37.8,82.9,38.2z M73.8,38.2c-0.2-0.2-0.1-0.6-0.1-0.9l0.3-0.2c2.2-0.7,4.3-1.3,6.5-2.1
			l-0.8-0.7c-1.8,0.5-3.5,1.2-5.3,1.6c0.1-0.4-0.2-1,0.4-0.9c2.3-0.7,4.4-1.6,6.7-2.3c0.6,1,1.2,1.9,1.6,3
			C80,36.5,76.9,37.4,73.8,38.2z M73.3,34.3l-0.8-0.2c1.9-0.9,3.9-1.8,5.9-2.8c-0.9-2-2.2,0.2-3.4,0.3c-1.3,0.5-2.5,1.2-3.7,1.7
			c-0.1-0.4,0.2-0.9,0.3-1.3l6.8-4.2c1,0.4,1.8,1.4,2.3,2.3c0.2,0.5,0.2,1.1,0.2,1.6L73.3,34.3z M77.7,27l-6.6,4
			c-0.3,0.1-0.7,0.1-1,0.1c-0.3-0.2-0.1-0.7-0.1-0.9l4-2.5c-0.2-0.4-0.7-0.5-1-0.8l-4.1,2.5c-0.4-0.3-0.5-0.7-0.4-1.2l6-3.7
			c1.1,0.2,2.5,0.3,3.2,1.3V27z M73.7,23.7c-1.6,1-3.3,1.9-4.9,3c-0.1-0.4,0.1-1.2-0.6-1.2c1.3-1.3,3-2.6,4.6-4
			c0.5,0.1,1,0.4,1.2,0.9C74,22.8,74.2,23.4,73.7,23.7z M66.7,25.1c0.1,0.1,0.1,0.2,0.2,0.3v-0.1H67v0.1c-0.3,0.1-0.7-0.1-1-0.3
			l3.8-5c0.7,0.2,1.5,0.1,2,0.6C70.2,22.3,68.3,23.5,66.7,25.1z M68.7,19.5c-1.2,1.6-2.4,3.1-3.6,4.6c-0.4-0.4-0.8-0.8-1.3-0.9
			l3.7-5.1c0.3-0.2,0.9-0.3,1.1,0.2C68.7,18.7,69.1,19.1,68.7,19.5z M66.1,18.5l-3.5,4.8c-0.2,0-0.4-0.1-0.6-0.2
			c1-1.9,2.2-3.6,3.2-5.4c-0.4,0-0.8-0.2-1.2-0.1c-0.9,1.5-1.8,3-2.7,4.5c-1.1-0.8,0.3-1.7,0.4-2.4l2.1-3.7c1.1,0.5,1.3,1.8,2.3,2.4
			V18.5z M60.2,20.1l-0.8-0.7l1.8-4.8l1.6,0.6C61.9,16.9,61.1,18.5,60.2,20.1z M58.3,19.5c-0.4,0.3-0.8,0.7-1.3,0.7
			c-0.4-0.6-0.7-1.6-0.2-2.3c0.2-0.5,0.4-1,0.6-1.6c0.3-0.9,0.6-1.8,1-2.6c-0.4,0-0.8-0.2-1.2-0.1c-0.5,1.3-1,2.6-1.5,4
			c-0.4-0.4-1.1-0.3-1.5-0.3l1.3-5.7c1,1.4,2.9,0.3,4.3,1l0.7,1.4L58.3,19.5z M51.2,16C51,16.4,51,17,50.9,17.4
			c-0.2-0.2-0.3-0.1-0.5-0.1l-0.9,0.5l1.2-7c0.4-0.4,0.9-0.8,1.3-1L51.2,16z M48.5,17.8c-0.4-0.1-0.7-0.5-1-0.7
			c0.4-2.3,0.8-4.6,1.2-6.9c0.4,0.2,0.6,0.5,1,0.6C49.2,13.1,49,15.5,48.5,17.8z M46.6,16.6c-0.4,0.3-1,0.1-1.4,0.3
			c0.3-2.2,0.2-4.3,0.5-6.4c0.9,0.4,1.4-0.7,2.1-0.8C47.3,12,47,14.3,46.6,16.6z M74.9,88c-0.9-1.4-1.7-2.9-2.2-4.6l-0.1-0.9
			c0.9,1.6,2,3.1,2.8,4.8C75.3,87.5,75,87.7,74.9,88z M73.1,81.3c0.2-0.5,0.7-0.8,0.7-1.4l2.1,3.4c0,0.6-0.2,1.4-0.1,2.1
			c0.1,0.3,0.2,0.6,0.2,1C75,84.7,73.9,83.1,73.1,81.3z M72.2,75.5c0.4-0.3,1-0.2,1.5-0.3c1.1,1.5,2.1,3.1,3.2,4.6
			c-0.4,0.7-0.8,1.4-0.8,2.3C74.8,79.9,73.6,77.7,72.2,75.5z M89.6,57.2c-1.5,1.2-0.5,3.5-1.6,4.9c-2.2,1.3-1.7,4-1.8,6.2
			c-0.8,1.2-2.6,1.9-2.7,3.5c-1.8,1.5-1,4-2.5,5.7c-0.8,1.8,1.8,3.1,0.3,4.8c-1.7,1.6-1.7,4.3-0.9,6.3c0.5,1.6,2.1,3,1.5,4.9
			c-0.5,0.8-0.7,2.3-2,2.2c-0.5-1.2-1.8-2.1-1.6-3.4c-0.4-1.4-2.5-2.3-2-4l0.8-1.5c0.2-0.8-0.2-1.6,0.1-2.4c0.5-0.2-0.2-0.7,0.2-1.1
			c0.6-1.6,1.1-3.3,2.6-4.5c0.9-1.7,0.9-4.1,0.7-6.1c0.7-2.3,2.2-4.4,2.5-6.9c0.1-2.7,2.2-4.6,2.4-7.3c0.1-1.9-0.4-4.1,1.2-5.5
			c0.7-0.9,1.1-2.2,0.6-3.4c-0.7-1.2-2.2-2.1-1.5-3.7c0.5-1.6,1.9-3.5,0.7-5.2c-0.4-0.6-1.1-1.2-1.6-1.7c1.2-3-1.6-4.8-2-7.4
			c-0.4-1.1-0.7-2.1-1.3-3c-1-1.2-2.7-2.2-2.6-3.9c-0.5-1.9-3.1-0.3-3.7-2.1C75,21.7,75,20.4,74,19.9c-1.1-0.6-2.2-0.5-3.4-0.9
			c0-0.1,0.1-0.1,0.1-0.2c-1.1-0.3-1.1-1.7-2.1-2.1c-0.7-0.1-1.7,0.2-2.3-0.3l-1.8-1.9c0.2-0.5-0.5-0.5-0.7-0.7l-0.2,0.2
			c-0.9-0.4-2.1-0.3-2.3-1.5c-1.1-1.8-3.5-0.8-5.1-1.8c-1.1-1.2-2.3-2.9-4-2.6c-0.6,0.2-0.8,0.8-1.2,1.2c-0.4,0.1-0.6-0.5-1-0.3
			l-0.1,0.9c-0.7-0.1-0.9-1-1.6-1.4c-1.3-0.3-2.1,1.3-3.4,0.9c-1.6-0.4-3.1-2.4-4.9-1.1c-0.7,0.3-1.4,1.1-2.4,0.7
			c-0.8,0.1-1.7-1.7-2.3-0.1C35.1,8.7,35,9,35,9.1c-1.4,0.6-2.8,1.8-4.6,1.2c-1.5-0.5-3.2-0.4-4.6-0.8c-0.4,0.1-1.1,0.1-1.5,0.5
			c-0.8,0.8-0.7,2.2-1.7,2.8c-1.4,0.2-3.1-0.3-4,1.1c-0.2,0.7-1,1.3-1.6,1.4c-1-0.1-1.6-1.3-2.7-1.3c-0.3-0.2-0.5-0.2-0.8-0.4
			c1.4-2.7,4.4-2.4,6.2-4.5c0.9-1.2,2.1-2.5,3.7-2.4c0.8-0.3,1.2-1.6,2.1-1.4c0.9,0.3,1.6,1.2,2.7,0.9c1.1-0.3,2-1.4,3.4-1l2.3,1
			c1.3-0.4,1.8-2.1,3.2-2.2C39,4.1,41,5.7,42.8,4.4c1.8,1,3.9,0.4,5.8,0.5c1.1,0.7,2.3,1.7,3.7,1.1c0.6,0.2,1.3-0.6,1.8,0
			c0.5,0.5,1.1,0.9,1.8,1.1c0.8,0,1.8-0.5,2.5,0c1.1,2.3,3.2,1.9,5.2,2.3c1.2,2.3,3.7,3.3,6,3.6c1,1,1.2,2.5,2.5,3.4
			c1.5,0.5,3.6,1.2,3.8,3.2c0.2,0.5,0.3,1.2,1,1.4c0.9,0.2,2,0.4,2.3,1.4c-0.4,2.6,2.5,3.5,4,5.1c0.8,1.6,2,3.3,3.7,4.2
			c0.7,0.9,0,2,0.1,3c0,1.6,1,2.7,1.8,4c-0.8,2.6,1.2,4.3,0.9,6.7c-0.9,1.7-0.4,3.7,0.3,5.3c0.3,1.3-0.8,2.3-0.5,3.6
			C89.8,55,90.6,56.3,89.6,57.2z"/>
	</g>
</g>
</svg>
