<?xml version="1.0" encoding="utf-8"?>
<!-- Generator: Adobe Illustrator 18.1.1, SVG Export Plug-In . SVG Version: 6.00 Build 0)  -->
<!DOCTYPE svg PUBLIC "-//W3C//DTD SVG 1.1//EN" "http://www.w3.org/Graphics/SVG/1.1/DTD/svg11.dtd">
<svg version="1.1" xmlns="http://www.w3.org/2000/svg" xmlns:xlink="http://www.w3.org/1999/xlink" x="0px" y="0px"
	 viewBox="0 0 100 100" enable-background="new 0 0 100 100" xml:space="preserve">
<g id="AREA_2">
	<path fill="none" stroke="#004D86" stroke-width="1.974" stroke-linecap="round" stroke-linejoin="round" d="M52.7,5.3
		c2.9-0.4,5.4-1.5,8.4-1.1c3.1,0.4,6.1,2.8,8.2,5.1c4.4,4.7,4.6,11.1,2.8,17c-1.2,4.1-5,7.5-5.5,11.7c-0.1,0.8,0.9,0.7,1.3,1.2
		c5.7-1.9,11.4-3.6,17.5-2.6c2.2,1.1,4.8,1.5,6.4,3.9l0.2-0.2c0.1-0.1,2.9,3.9,3,4.2c1,1.8,1.8,3.7,2.2,5.6c0.4,1.9,0.4,3.8-0.4,5.6
		c-0.9,2-1.7,4-2.5,6.1c-0.2,2.9,1,6,0,9.1c0.2,1.8-1.3,3.2-1.7,4.9l-1.1,1.3l-0.1-0.2c0.3,0.4-2.7,2.8-3,3
		c-1.3,0.9-2.7,1.6-4.2,1.9c-3.2,0.8-6.4,0-9.3-1.2C66,77,59.7,68,56.4,59.6c-0.9-1.2-1.9-2.4-3.2-3.3c-0.4-0.1-0.5,0.3-0.8,0.5
		c0,0,3.1,7.6,3.3,8.5c0.6,3.3,0.7,6.7,0.1,10c-1.3,7.3-5.9,14.2-3.6,21.8v1.1c-2.4,0.1-5.2,0.2-8.2,0.2c-0.5-0.3-1.8-0.1-1.8-1.2
		c0-2.7-1.6-4.9-0.8-7.8c0.7-2.6,2.8-4.4,4.2-6.6c1.6-2.4,3.3-4.8,4.3-7.4c1.8-4.5,3.3-10.7,1.4-15.4c-0.6-1.6-2.1-4.4-4.1-3
		c-1.2,0.8-1.6,3.6-1.9,5c-0.5,2.6-1.6,4.9-2.8,7.3c-2.4,4.8-5.6,9.2-10.3,11.9c-4.6,2.7-10.9,3-15.7,0.8c-7-3.1-8.5-7.6-9-14.9
		c-0.2-2.4-2.7-4.5-3.7-6.5c-1.2-2.4-1.6-4.8-1.5-7.5c0.4-8.5,6.1-14.8,14.9-15.1c3.6-0.1,6.9,1.1,10.3,2.1c1.9,0.5,7.9,2.4,9.5,0.5
		c0.4-0.5-5.2-9-5.6-10.2c-2.2-6-4.4-12.2-1.3-18.3c1.1-2.1,2.5-3,4-4.6c2.5-2.6,6.7-4.6,10.7-3.7C47.3,5,49.7,5.7,52.7,5.3z"/>
</g>
<g id="AREA_1">
	<path d="M52.7,5.3c2.9-0.4,5.4-1.5,8.4-1.1c3.1,0.4,6.1,2.8,8.2,5.1c4.4,4.7,4.6,11.1,2.8,17c-1.2,4.1-5,7.5-5.5,11.7
		c-0.1,0.8,0.9,0.7,1.3,1.2c5.7-1.9,11.4-3.6,17.5-2.6c2.2,1.1,4.8,1.5,6.4,3.9l0.2-0.2c0.1-0.1,2.9,3.9,3,4.2
		c1,1.8,1.8,3.7,2.2,5.6c0.4,1.9,0.4,3.8-0.4,5.6c-0.9,2-1.7,4-2.5,6.1c-0.2,2.9,1,6,0,9.1c0.2,1.8-1.3,3.2-1.7,4.9l-1.1,1.3
		l-0.1-0.2c0.3,0.4-2.7,2.8-3,3c-1.3,0.9-2.7,1.6-4.2,1.9c-3.2,0.8-6.4,0-9.3-1.2C66,77,59.7,68,56.4,59.6c-0.9-1.2-1.9-2.4-3.2-3.3
		c-0.4-0.1-0.5,0.3-0.8,0.5c0,0,3.1,7.6,3.3,8.5c0.6,3.3,0.7,6.7,0.1,10c-1.3,7.3-5.9,14.2-3.6,21.8v1.1c-2.4,0.1-5.2,0.2-8.2,0.2
		c-0.5-0.3-1.8-0.1-1.8-1.2c0-2.7-1.6-4.9-0.8-7.8c0.7-2.6,2.8-4.4,4.2-6.6c1.6-2.4,3.3-4.8,4.3-7.4c1.8-4.5,3.3-10.7,1.4-15.4
		c-0.6-1.6-2.1-4.4-4.1-3c-1.2,0.8-1.6,3.6-1.9,5c-0.5,2.6-1.6,4.9-2.8,7.3c-2.4,4.8-5.6,9.2-10.3,11.9c-4.6,2.7-10.9,3-15.7,0.8
		c-7-3.1-8.5-7.6-9-14.9c-0.2-2.4-2.7-4.5-3.7-6.5c-1.2-2.4-1.6-4.8-1.5-7.5c0.4-8.5,6.1-14.8,14.9-15.1c3.6-0.1,6.9,1.1,10.3,2.1
		c1.9,0.5,7.9,2.4,9.5,0.5c0.4-0.5-5.2-9-5.6-10.2c-2.2-6-4.4-12.2-1.3-18.3c1.1-2.1,2.5-3,4-4.6c2.5-2.6,6.7-4.6,10.7-3.7
		C47.3,5,49.7,5.7,52.7,5.3z"/>
</g>
</svg>
