<?xml version="1.0" encoding="utf-8"?>
<!-- Generator: Adobe Illustrator 18.1.1, SVG Export Plug-In . SVG Version: 6.00 Build 0)  -->
<!DOCTYPE svg PUBLIC "-//W3C//DTD SVG 1.1//EN" "http://www.w3.org/Graphics/SVG/1.1/DTD/svg11.dtd">
<svg version="1.1" xmlns="http://www.w3.org/2000/svg" xmlns:xlink="http://www.w3.org/1999/xlink" x="0px" y="0px"
	 viewBox="0 0 100 100" enable-background="new 0 0 100 100" xml:space="preserve">
<g id="AREA_2">
	<g>
		<path fill="#00B288" d="M65.3,4c0.3,0,0.6,0.1,0.8,0.4c0.5,0.3-0.1,1.1,0.4,1.1c0.1,0,0.2,0,0.3-0.1C66.9,5.1,67.1,5,67.3,5
			c0.3,0,0.6,0.3,0.8,0.6c-0.1,0.3,0.1,0.4,0.2,0.4c0.1,0,0.3,0,0.4,0c0,0,0.1,0,0.1,0c0.1-0.5,0.3-0.6,0.6-0.6c0.1,0,0.2,0,0.3,0
			c0.2,0,0.4,0,0.5-0.1c0,0,0.1,0,0.1,0c0.4,0,0.7,0.5,1.1,0.5c0.1,0,0.1,0,0.2,0C72.2,7,71.6,8.4,73.1,9c0.5,0.4,0.3,1.4,1.2,1.4
			c0,0,0,0,0,0c0.2-0.3,0.4-0.4,0.7-0.4c0.1,0,0.1,0,0.2,0c0.2,0.9,0.8,2,0.2,2.8c-0.5,0.8,1,0.9,0.4,1.7c0,0.6,0.6,0.8,0.4,1.4
			c0.2,1.3-2.6,1.6-0.8,2.8c0.5,1.1,1,2.9,0.2,4c-0.4,0.4-1,0.2-0.8,0.9c0.1,0.3,1,0.5,0.8,0.9c-1.1,0,0.5,0.8,0.2,1.4
			c-0.1,0.5-0.3,1-0.4,1.6c0.5,0.5,0.7,1.4,0.4,2.2c-0.9,0.4,0,0.9-0.3,1.5c0,0,0,0,0,0c0.8,0,0.4,1,0.1,1.5c-0.4,0.2-0.3,0.5,0,0.5
			c0,0,0,0,0,0c0.6-0.1,1.6-0.2,2-0.5c0.1,0.2,0.2,0.3,0.4,0.3c0.2-0.1,0.3-0.2,0.2-0.4c-0.2-0.6-0.8-0.1-0.9-0.8
			c0.3-0.4,0.6-0.9,1.2-0.9c0.1,0,0.2,0,0.2,0c0.1,0,0.1,0,0.2,0c0.4,0-0.2-0.9,0.4-0.9c0.1,0,0.2,0,0.3,0.1
			c0.4-0.9,1.3-0.4,2.1-0.9c-1.1-0.2-0.1-1.6-0.5-1.6c-0.1,0-0.2,0-0.3,0.1c-0.7,0-0.1-0.8-0.2-1.2c0.1,0,0.2,0,0.3,0
			c1,0,1.9-0.5,2-1.6c0.4-0.2,0.8-0.3,1.2-0.3c0.7,0,1.4,0.2,2,0.2c0,0,0,0,0,0c0-0.1,0.2-0.2,0.4-0.2c0.1,0,0.3,0.1,0.4,0.2
			c-0.2,0.2,0.1,0.3,0.1,0.5c0.4-0.1,0.3-0.5,0.3-0.8c0.2,0.1,0.3,0.1,0.4,0.1c0.9,0,1.3-1.6,2.2-1.6c0.2,0,0.5,0.1,0.7,0.3
			c0,0.9,1.4,0.3,1.1,1.4c0,0-0.1,0-0.1,0c-0.1,0-0.2,0-0.3,0c-0.1,0-0.2,0-0.2,0.2c0,0,0,0,0.1,0c0.7,0,0.6,0.9,1.2,0.9
			c0.1,0,0.2,0,0.4-0.1c0.1,0.1,0.3,0.2,0.4,0.2c0.3,0,0.6-0.1,0.9-0.1c0.3,0,0.5,0.1,0.6,0.6c0.3,0.8-1.6,0.5-0.4,1
			c0.1-0.1,0.4-0.3,0.6-0.3c0.1,0,0.3,0,0.4,0.2c0.2,0.3-0.3,0.3-0.5,0.3c-0.1,0-0.1-0.1-0.1-0.2c-0.2,0.3-0.4,0.9-0.2,1.3
			c0.2-0.1,0.4-0.2,0.6-0.2c0.1,0,0.2,0,0.4,0.1c-0.5,1.1,0.9,0.1,0.7,1.2c-0.9,0.2-0.1,0.5,0.1,0.9c0.3,0.6-0.3,0.8-0.2,1.3
			c-0.2,0-0.3,0-0.4,0.1c-0.1,0.5,0.8,0.3,0.8,0.7c0.3,0.4,0.1,1.1,0.7,1.3c-0.1-0.6,0.1-1.1-0.6-1.4c0-0.2-0.2-0.3-0.1-0.5
			c0.5,0.3,1.6,0,1.6,1c-0.1,0.4-0.7,0.6-0.8,0.9c0.4,0.3,0.2,0.9,0.4,1.3c-1.6,0.4,1.3,1.1-0.6,1.1c0-0.1-0.2-0.2-0.3-0.2
			c-0.2,0-0.4,0.1-0.5,0.1c0,0.2-0.3,0.2,0,0.4c0.1,0,0.2-0.1,0.3-0.1c0.3,0,0.6,0.3,0.7,0.7c0,0.5-2.1,0.9-0.9,2
			c-0.3,0-0.3,0.8-0.7,0.8c-0.1,0-0.1,0-0.2,0c0.2,0.5,0.5,1.1,0.4,1.6c-0.1,0.1-0.1,0.1-0.2,0.1c-0.1,0-0.2-0.1-0.3-0.1
			c-0.1,0-0.1,0.1-0.2,0.2c0.1,0.2,0.2,0.3,0.3,0.3c0.2,0,0.4-0.2,0.6-0.2c0.1,0,0.2,0.1,0.2,0.4c-0.1,0.4-1,0.2-0.8,0.8
			c0.2,0.5,0.9,0.3,0.9,1c-0.2,0.6-0.9,0.8-1.3,1.3c-0.5,1,0.6,2.1-0.3,3c0,0.8,0.9,0.7,0.8,1.6c-0.3,0.2-0.5,0.7-0.9,0.7
			c-0.1,0-0.2-0.1-0.4-0.2c-0.4,0.5,0.5,1.3-0.3,1.7c0.1,0.2,0.2,0.3,0.1,0.6c-0.7,0.1,0.1,0.2,0.1,0.5c0.1,0.5,0.4,0.9,0.1,1.4
			c-0.1,0-0.1,0-0.2,0c-0.6,0-0.4,0.9-0.7,0.9c0,0-0.1,0-0.1,0c-0.5,0.7,0.1,1.8-0.1,2.6c-0.3,0.7-1.6,1-0.9,2
			c-0.4,0.6-0.7,1.2-1.5,1.2c0,0,0,0,0,0c-0.4,0.1-0.5,0.4-0.4,0.7c-0.3,1.1-2.6-0.1-1.7,1.7c-0.1,0.3-0.4,0.7-0.7,0.7
			c-0.1,0-0.2-0.1-0.3-0.2c-0.1-0.1-0.2-0.5-0.4-0.5c0,0,0,0-0.1,0c-0.7,0.3,0.1,1.1-0.7,1.4c-1-0.2-1.9-0.7-2.5-1.4
			c-0.1,0.1-0.2,0.1-0.2,0.1c-0.2,0-0.3-0.1-0.4-0.1c-0.1,0-0.2,0-0.3,0.2c0.4,0.7-0.6,0.9-1,0.9c-0.5,0-0.6-1.2-1.2-1.2
			c-0.1,0-0.2,0-0.4,0.1c-0.2,0-0.6,0.1-0.8,0.1c-0.2,0-0.5-0.1-0.6-0.3c-0.2-0.7-1.4-0.3-1.7-1c-0.6,0.3,0.3,0.5,0.3,0.9
			c0,0.3-0.1,1,0.4,1.1c0.3,0.2,0.7,0.3,1,0.3c0.3,0,0.6-0.1,0.7-0.4c0.1,0,0.1-0.1,0.2-0.1c0.3,0,0.1,0.5,0.3,0.5
			c0,0,0.1,0,0.2-0.1c0,0,0,0,0,0c0.3,0,0.2,0.3,0.3,0.4c-1.2,0.9,0.1,1.5-0.1,2.5c0.9,0.5,0.3,1.4,1,2.1c0.9,0.9-0.1,2.4,1.1,3.5
			c0,0.5-0.4,0.9-0.5,1.3c0,0-0.1,0-0.1,0c-0.4,0-0.8,0.3-1.1,0.3c0,0,0,0,0,0c-0.5,0.5,0.6,1.1,0.4,1.7c-0.5,0.4-0.2,1-0.5,1.6
			c0.7,0.5,0.4,0.9,0.4,1.5c-0.1,0-0.2,0-0.2,0c-0.3,0-0.6,0.3-0.9,0.5c0.2,0.6-0.2,1-0.2,1.6c-0.5,0.1-0.1,1.2-0.7,1.2
			c0,0-0.1,0-0.1,0c-0.5,0.6-0.8,1.3-1.5,1.3c-0.1,0-0.1,0-0.2,0c-0.3,0.4,0.8,1.3-0.2,1.3c0.3,0.9-1,0.8-1.2,1
			c-0.1-0.1-0.1-0.2-0.2-0.2c-0.2,0-0.2,0.4-0.5,0.4c0,0,0,0,0,0c-0.3,0.9,0,2.3-1.3,2.8c-0.5-0.4-1.8,0-1.6-1.2
			c-0.3,0.6-1,0.4-1.1,1.1c0,0,0,0,0,0c-0.2,0-0.4-0.1-0.5-0.1c-0.1,0-0.1,0-0.2,0.1c0,0.1-0.1,0.2-0.2,0.2c-0.1,0-0.1,0-0.2,0
			c-1,0.2-1.2,1.2-2.3,1.4c-0.1,0.4-0.4,0.2-0.7,0.4c-0.3,0.7,1,1.2-0.2,1.6c-0.5,0.1-1.1,1-1.8,1c-0.1,0-0.2,0-0.3-0.1
			c-0.2-0.3-0.3-0.4-0.5-0.4c-0.4,0-0.9,0.7-1.4,0.8c0,0.1-0.1,0.1-0.3,0.1c-0.1,0-0.2,0-0.4,0c-0.2,0-0.4,0-0.5,0.1
			c-0.2-0.1-0.4-0.4-0.6-0.4c-0.1,0-0.2,0-0.3,0.2c0.2,0.2-0.1,0.5-0.3,0.5c0,0-0.1,0-0.1,0c-0.6,0-1.1,1-1.8,1
			c-0.1,0-0.2,0-0.3-0.1c-0.6-0.6-1.3-0.7-1.9-1.3c-1,0.1-0.3,1.3-1.3,1.6c-0.1,0-0.2,0-0.2,0c-0.3,0-0.7,0.2-0.8,0.5
			c-0.5-0.2-1.2-0.2-1.3-0.8c-0.7,0.8-1.7,0.6-2.5,0.7c-0.5-0.1-1.1-0.6-1.3-1.2c-0.1-0.1-0.2-0.1-0.3-0.1c-0.3,0-0.2,0.6-0.5,0.6
			c-0.1,0-0.2-0.1-0.4-0.2c-0.5,0.4-1.1,0.8-1.8,0.8c-0.1,0-0.1,0-0.2,0c-0.2,0.3-0.5,0.3-0.8,0.3c-0.2,0-0.4,0-0.6,0
			c-0.3,0-0.6,0.1-0.8,0.5c-0.1-0.2,0.1-0.4,0-0.6c-1.8-0.7-3.4-0.7-5.1-1.4c-0.4,0.4-0.7,1.1-1.3,1.1c-0.1,0-0.2,0-0.3-0.1
			c-0.4-0.7-0.6-1.5-1.5-1.5c0,0,0,0,0,0C35.2,95,35.1,95,35,95c-0.3,0-0.5,0.2-0.7,0.2c-0.1,0-0.2,0-0.2-0.2c-0.1,0-0.1,0-0.2,0
			c-0.4,0-0.9-0.5-1.2-0.8c-0.2-0.4,0.1-0.9,0.5-1c0.1-0.3-0.5-0.1-0.6-0.4c-0.2-0.1-0.7-0.5-0.9-0.5c-0.1,0-0.2,0.1-0.2,0.6
			c0,0,0,0,0,0c-0.3,0-0.1-0.8-0.5-0.8c0,0-0.1,0-0.2,0c-0.1-0.3-0.3-0.4-0.5-0.4c-0.2,0-0.4,0.1-0.7,0.1c-0.2,0-0.4-0.1-0.5-0.5
			c-1.5-0.1-2-1.6-2.9-2.5c-0.1,0-0.1,0-0.2,0c-0.4,0-0.7-0.2-0.8-0.6c-0.3,0.2-0.7,0.5-1.1,0.5c-0.2,0-0.4-0.1-0.5-0.4
			c0,0-0.1,0-0.1,0c-0.3,0-0.4-0.4-0.4-0.7c0.7-0.8-1.2-1.5,0.2-2.3c-0.1,0-0.2,0-0.3,0c-0.2,0-0.4,0-0.5,0c-0.2,0-0.5-0.1-0.7-0.3
			c-0.5-0.8,0.2-1.4-0.3-2.1c-0.5-1-2.9-1-2-2.7c-0.1-0.3-1-1.5,0-1.5c0,0,0.1,0,0.1,0c0.1-0.4,0.6-0.2,0.4-0.7c1.4-1-1-1.3-0.5-2.5
			c0.3-0.1,0.9-0.5,0.4-0.8c-0.1,0-0.1,0-0.2,0c-0.4,0-1-0.3-0.4-0.8c0.1,0.1,0.2,0.1,0.3,0.1c0.5,0,0.6-1,1-1.2
			c0-0.3,0.3-0.6,0.1-0.8c0,0,0,0-0.1,0c-0.2,0-0.4,0.5-0.6,0.5c-0.1,0-0.1-0.1-0.2-0.4c-0.2-1,0.9-1.1,1.3-1.7c0,0,0,0,0.1,0
			c0.3,0,0.7-0.3,1-0.3c0.2,0,0.3,0.1,0.4,0.4c0.4-0.3,0.9,0,0.8-0.7c-0.1-0.4-0.4-0.5-0.8-0.5c-0.2,0-0.3,0-0.5,0
			c-0.3,0-0.5-0.1-0.2-0.6c0.6-0.1,0.8-0.5,1.3-0.6c-0.1-0.1,0.1-0.7,0.3-0.7c0.1,0,0.2,0.1,0.3,0.2c-0.1,0.1,0,0.1,0,0.2
			c0.1,0,0.2,0.1,0.3,0.1c0.1,0,0.1,0,0.1-0.1c-0.5-0.7-0.3-0.9,0.1-0.9c0.2,0,0.5,0,0.7,0c0.5,0,0.8-0.1,0.6-0.8
			c-0.1-0.3-1.4-0.6-0.5-0.8c0.1,0.1,0.3,0.3,0.5,0.3c0,0,0.1,0,0.1,0c-0.5-0.4-0.4-0.6-0.3-1.2c0.1-0.2,0.3-0.3,0.5-0.3
			c0.4,0,0.9,0.4,1.3,0.4c0,0,0.1,0,0.1,0c0.2-0.6,0.9-0.9,0.7-1.6c0,0.4-0.6,0.5-1,0.6c-0.6-0.4-0.3-1-0.3-1.4
			c0.1,0,0.2-0.2,0.1-0.2c-0.1-0.2-0.4-0.2-0.6-0.3c-0.9,0.3-1,0.9-1.1,1.8c0.1,0.4,0.2,0.8-0.2,1.2c-0.1,0.1-0.2,0.1-0.3,0.1
			c-0.3,0-0.6-0.2-0.9-0.2c-0.2,0-0.3,0.1-0.3,0.6c-0.2,0.2-0.6,0.1-0.6,0.5c0.5,0.2,0.7,0.7,0.8,1.2c-0.1,0.1-0.2,0.1-0.4,0.1
			c-0.1,0-0.2,0-0.4-0.1c-0.7,1.3-1.7,1.9-2.9,2.6c0,0.3-0.4,0.3-0.7,0.3C19.1,69.3,19,69,18.6,69c-0.1,0-0.1,0-0.2,0
			c-0.1,0.3-0.2,0.5-0.3,0.5c-0.2,0-0.3-1-0.7-1c0,0,0,0,0,0c0.1-0.2,0-0.6-0.2-0.6c0,0-0.1,0-0.1,0C17,68,16.8,68,16.7,68
			c-0.3,0-0.6-0.2-0.9-0.4c-0.2-0.6,0.9-0.9,0.6-1.5c0,0,0,0,0,0c-1.1,0-1.1,1.7-2.1,1.7c-0.1,0-0.2,0-0.3,0
			c-0.3-0.4-0.2-0.8-0.6-1.1c-0.2,0-0.4,0-0.6,0c-0.6,0-1,0.2-1.5,0.5c-0.2-0.3-0.8-0.4-0.7-0.9c0.4-0.3,0.5-0.9,0.9-0.9
			c0.1,0,0.2,0,0.4,0.1c0.1-0.3-0.1-0.7-0.4-0.7c-0.1,0-0.3,0.1-0.4,0.2c0,0.6-1,0.5-0.8,1.2c-0.1,0-0.3,0-0.4,0
			c-0.5,0-0.9,0.1-1.3,0.1c-0.3,0-0.7-0.1-1.1-0.3c0.2-0.3,0-0.5-0.1-0.8c0.3-0.6,2.3-0.2,1.3-1.2c0,0,0,0,0,0
			c-0.5,0-0.5,0.6-0.9,0.6c-0.1,0-0.1,0-0.2,0c-0.3-0.2-0.8-0.6-0.7-1c0.6-0.7-0.3-1.4-0.6-2.1C6.1,62,5.6,62,5.4,62.3
			c-0.2-0.1-0.4-0.2-0.6-0.3c0.3-1.3-0.2-1.6-0.3-2.7c-0.2-1.2-2.2-1.6-1.1-3c-0.4-0.8-0.8-1.4-0.5-2.3c0,0,0.1,0,0.1,0
			c0.3,0,0.3-0.6,0.3-0.8c-0.1-0.1-0.2-0.4-0.3-0.5c1.4,0-0.4-1.1,0.8-1.2c-0.4-0.7-1.1-1.2-0.8-2.1c0.4-0.3,0.3-0.7,0.4-1
			c-0.1,0-0.1,0-0.1,0c-0.2,0-0.3-0.2-0.5-0.3c0-0.2,0-0.2,0.1-0.2c0.1,0,0.1,0,0.2,0c0,0,0.1,0,0.1,0c0.1,0.2,0.1,0.3,0.2,0.3
			c0.1,0,0.2-0.2,0.3-0.3c0-1.2,1.5-1.8,1.1-3.1c-0.1-0.6,1.4-0.8,0.3-1.3c-0.2,0.1,0,0.7-0.3,0.7c0,0-0.1,0-0.2,0
			c0.5-0.6-1.3-0.7,0-0.8c0.2-1.2,1.6-0.9,1.9-1.9c0.7,0,1.1-0.9,1.8-1.2c-1.2-0.4,0.3-1-0.5-1.6c0-0.2,0.1-0.3,0.2-0.3
			c0.1,0,0.3,0.1,0.5,0.1c0.1,0,0.1-0.1,0-0.5c0.2,0.2,0.4,0.2,0.4,0.2c0.2,0-0.3-0.6,0.4-0.6c0,0,0.1,0,0.2,0
			c0-0.6,0.7-1.1,1.1-1.6c0,0,0.1,0,0.1,0c0.4,0,0.4-0.5,0.8-0.5c0.1,0,0.2,0,0.3,0.1c0.5-0.4,1.6,0.2,1.5-0.9
			c-0.3-0.1-1.1-0.6-0.3-1c-0.6-1.1,1.3-0.6,1.5-1.5c0.1,0.1,0.2,0.1,0.3,0.1c0.2,0,0.5-0.1,0.7-0.1c-0.4-0.5,0.3-0.3,0.5-0.6
			c0.1,0,0.2,0,0.3,0c0.5,0,1.1-0.3,1.6-0.3c0.3,0,0.5,0.1,0.8,0.3c0.2,0.3-1.1-0.1-0.4,0.5c0.1,0,0.2,0,0.3,0
			c0.8,0,0.5-1.2,1.3-1.2c0.1,0,0.1,0,0.2,0c0.7,0.3,1.7-0.1,2,0.8c0,0.1,0.1,0.2,0.2,0.2c0,0,0.1,0,0.1-0.1c0-0.3,0.2-0.1,0.3-0.2
			c-0.2,1,1.5,0.4,0.7,1.2c0.6,0.4,1.4,0.3,2.1,0.6c0,0.1-0.2,0.2-0.2,0.3c0.1-0.1,0.2-0.1,0.2-0.1c0.2,0,0.4,0.3,0.4,0.6
			c-0.8,0-0.4,0.7,0,0.9c0.3,0.3-0.2,0.4-0.3,0.6c1.1,0.4-0.1,3,1.2,3c0.2,0,0.4-0.1,0.7-0.2c0.5-1.6-2-1.1-0.5-2.7
			c-0.5-0.4-0.2-0.8,0.1-1.3c0.1,0,0.1,0,0.2,0c0.4,0,0.5-0.5,0.5-0.9c-0.1-0.5,0.3-1.3-0.3-1.6c0.1-0.4,0.5-1.1-0.1-1.5
			c-0.7,0-0.2-0.7-0.6-1.1c0.2-1.2-2-1.3-1.1-2.6c1.4-1.6-1.3-2.8-0.4-4.5c-0.2,0.1-0.2,0.4-0.4,0.4c-0.1,0-0.1,0-0.2-0.1
			c-0.3-0.4,0.2-0.6,0.2-0.9c0.4-0.7,1.2-0.3,1.8-0.8c-0.3-0.7-0.8-1.8,0.2-2.3c0,0,0-0.1-0.1-0.1c-0.2,0-0.7,0.3-0.9,0.3
			c-0.2,0-0.3-0.1-0.1-0.6c0.2-1.5,1.7-0.1,2.1-1.4c0.2-0.9-0.5-1.5-0.2-2.3c-0.8-0.6-0.3-1.3,0.6-1.4c0.4,0.3,0.7,0.4,1.1,0.4
			c0.3,0,0.7-0.1,1.1-0.3c0.2-0.6-0.5-1.4,0.3-1.7c0.2,0.1,0.3,0.1,0.5,0.1c0.8,0-0.3-1.4,1-1.4c0,0,0,0,0,0
			c-0.1-0.4,0.1-0.8,0.2-1.1c0.2-0.2,0.4-0.2,0.5-0.2c0.6,0,1,0.9,1.6,0.9c0.1,0,0.1,0,0.2,0c0.3-0.7-0.1-1.8,0.8-2.5
			c0.4-0.1,0.7-0.2,1.1-0.2c0.3,0,0.6,0,0.8,0.2c0.3,0.2,0.4,1.2,0.9,1.2c0.1,0,0.3-0.1,0.4-0.2c0.2-0.4,0.5-0.9,1-0.9
			c0.1,0,0.1,0,0.2,0c0.4,0.2,0.8,0.8,1.3,1c0,0,0,0,0.1,0c0.2,0,0.2-0.4,0.3-0.5c0.1-0.2,0.1-0.3,0.2-0.3C41.7,7.9,41.9,8,42,8
			c0.1,0,0.2,0,0.3-0.2c0.9,0.3,1,1.1,1.5,1.6c-0.3,0.8,0.6,0.6,0.8,1.2c0.2,0.3,0.1,1.2,0.7,1.2c0.1,0,0.1,0,0.2,0
			c0.1,0,0.3-0.1,0.4-0.1c0.1,0,0.1,0,0.2,0.1c0.2,0.3-0.2,0.4-0.4,0.6c-0.3,0.6,0.9,0.9,0.2,1.4c0.7,0.8,0.4,1.9,0.9,2.7
			c-0.2,0.7,0.1,1.2-0.2,1.8c0.2,0.4,0,1,0.4,1.2c0,0.3,1,0.4,0.6,0.9c-0.1,0-0.2,0-0.3,0c-0.6,0,0.6,0.9,0,1.2
			c1.1,0.7-0.2,1.6,0.7,2.1c0.2,0.7,1.2,0.2,1.5,1c-0.7,0.1-0.4,1.1,0.2,1.4c0.1,0,0.2,0,0.3,0c0.2,0,0.4-0.1,0.7-0.2
			c-0.1-0.6-0.5-1.5-0.3-2.2c-0.5-0.1,0.1-0.6,0-0.8c1.4,0,0.8-1.2,0.5-1.9c0,0,0,0,0,0c0.6,0,0.1-1,0.6-1.4c-1,0,0.2-0.8-0.3-1.2
			c0.1,0,0.1,0,0.2,0c0.3,0,0.3-0.4,0.5-0.6c0.3-0.6-0.8-0.2-0.4-0.9c0.7-1.1,2.5-1.1,2.3-2.7c-0.1,0-0.1,0-0.1,0
			c-0.5,0-0.3-0.6-0.3-1c-0.2-0.3-0.1-0.3,0.1-0.3c0.1,0,0.1,0,0.2,0c0.2,0,0.3,0,0.4-0.1c0.2,0.1,0.5,0.2,0.7,0.2
			c0.4,0,0.9-0.2,1.3-0.2c0,0,0,0,0,0c-0.1-0.5,0.5-1.5-0.4-1.5c0.1-0.4,0.2-0.7,0.5-0.9c0.1,0.1,0.3,0.2,0.5,0.2
			c0.3,0,0.6-0.1,0.9-0.1c0.1,0,0.3,0,0.4,0.1c0.7-0.1,0.1-0.9,0.7-1c-0.1-0.4-0.6-0.6-0.2-1.1c0.1,0,0.1,0,0.2,0
			c0.3,0,0.3-0.7,0.5-0.7c0.1,0,0.1,0.1,0.3,0.3c0,0,0,0,0.1,0c1.1,0,1.1-1.1,1.5-1.9c-0.4-0.3,0.3-0.4,0.3-0.7
			c0.1-0.1,0.2-0.2,0.4-0.2c0.3,0,0.6,0.3,0.8,0.3c0.1,0,0.2-0.1,0.3-0.3c0.5-0.3,1.6-0.4,1.4-1.3C64.4,4.2,64.9,4,65.3,4
			 M48.9,40.9C48.9,40.9,48.9,40.9,48.9,40.9c-0.6,0-0.4,0.9-1.1,0.9c0.4,0.8-0.6,0.6-1.1,0.9c-1,0.3-1,1.3-1.3,2.2
			c0.5-0.4,1.2-0.1,1.6-0.5c-0.6-0.5-0.3-1.1,0-1.6c0.5-0.1,1-0.7,1.5-0.7c0.2,0,0.3,0,0.5,0.1c0.3-0.2,0.5-0.3,0.8-0.3
			c0.4,0,0.8,0.2,1.3,0.3c0.1,0.1,0.2,0.1,0.3,0.1c0.2,0,0.5-0.1,0.7-0.1c0.2,0,0.3,0.1,0.3,0.5c0-0.1,0.1-0.1,0.1-0.1
			c0.2,0,0.4,0.4,0.5,0.4c0,0,0.1,0,0.1-0.2c-0.9-0.8,0.8-0.9,0.8-1.5c0.3-0.1,0.5-0.2,0.7-0.2c0.3,0,0.7,0.2,1.1,0.4
			c0.2,0.6,0.5,0.8,0.8,0.8c0.3,0,0.7-0.1,1-0.2c0.2,0.1,0.3,0.1,0.5,0.1c0.2,0.1,0.4,0.3,0.5,0.6c0.1-0.1,0.2-0.2,0.4-0.2
			c0,0,0,0,0.1,0c0.1,0.2,0.2,0.3,0.3,0.3c0.2,0,0.4-0.2,0.3-0.4c-0.3-0.3-0.6-0.3-0.9-0.3c-0.2,0-0.5,0-0.7,0c0,0,0,0,0,0
			c-0.1-0.1-0.3-0.1-0.4-0.1c0,0,0,0-0.1,0c-0.1,0-0.2-0.1-0.3-0.2c-0.2-0.6-0.6-0.8-1-0.8c-0.3,0-0.6,0-0.8,0c-0.3,0-0.5,0-0.8-0.2
			c-0.1-0.4-0.4-0.9-0.4-1.5c-0.7-0.3-0.7-1.2-0.7-2c-0.4-0.2-0.7-0.7-1.1-1.1c0-0.8-1.4-1.7-0.2-2.5c0.1-0.5-0.2-0.9-0.6-1.3
			c-0.3,0.4-0.4,1-0.4,1.5c-0.9,0.3,0.4,0.8,0.3,1.4c-0.7,0.2-0.3,1.1-0.1,1.5c-0.1,0.4-0.7,0.1-0.6,0.6
			C50.8,39.3,48.8,39.2,48.9,40.9 M68.5,41c-0.3,0-0.6-0.3-0.7-0.3c0,0,0,0,0,0c0,0,0,0,0,0c0,0,0,0,0,0c0,0,0,0,0,0c0,0,0,0,0,0
			c0,0,0,0,0,0c0,0,0,0,0,0c0,0,0,0,0,0c0,0,0,0,0,0c0,0,0,0,0,0c0,0,0,0,0,0c0,0,0,0,0,0c0,0,0,0,0,0c0,0,0,0,0,0c0,0,0,0,0,0
			c0,0,0,0,0,0c0,0,0,0,0,0l0,0l0,0c0,0,0,0,0,0c0,0,0,0,0,0c0,0,0,0,0,0c-0.2,0-0.5-0.1-0.8-0.1c-0.4,0-0.6,0.1,0,0.7
			c-0.2,0.6-0.2,1.2-1,1.2c0,0-0.1,0-0.1,0c-0.3,0-0.8-0.4-1.1-0.4c-0.1,0-0.2,0.1-0.2,0.5c-0.5,0.1-0.4,0.6-0.8,0.6
			c-0.1,0-0.1,0-0.2,0c-0.1,0.2-0.3,0.2-0.4,0.2c-0.5,0-1.2-0.9-1.4-0.9c0,0,0,0,0,0c-0.2,0.6,0.3,1.2-0.5,1.5
			c-0.1,0-0.2-0.1-0.3-0.1c-0.2,0-0.4,0.1-0.6,0.1c-0.1,0-0.3,0-0.4-0.2c0,0,0,0,0,0c-0.1,0-0.3,0.3-0.3,0.3c0,0,0.1,0,0.2-0.1
			c0.1,0.1,0.3,0,0.4,0.2c0.1,0.4,0.4,1.1-0.2,1.3c0.1,0.2,0.2,0.3,0.3,0.3c0.2,0,0.2-0.4,0.5-0.5c0.1,0,0.7,0.1,0.5,0.5
			c-0.9,0.7,0,1.3-0.2,2.1c1,0.3,0,1.1,0.5,1.6c0.3,0.5,1,0.6,1.5,1.1c-0.1,1.7,1.8,1,2.2,2.6c0.1,0.3-0.1,0.3-0.2,0.3
			c-0.2,0-0.5-0.2-0.6-0.2c0.5,0.7,1.6,0.6,1.9,1.6c-0.3,0.7,0.3,1.6,0.2,2.4c0.1,0.1,0.3,0.2,0.4,0.2c0.1,0,0.2-0.1,0.3-0.2
			c0.6,0.2,1.3,0.1,1.9,0.3c0.4,0.7,0.5,1.5,1.2,2.1c0,2.2,2.6,1.4,3.8,2.3c0,0.3-0.2,0.4-0.4,0.6c0,0.3,0,0.4,0.1,0.4
			c0.1,0,0.3-0.2,0.5-0.2c0.1,0,0.1,0,0.2,0.1c1-0.7-0.5-0.5-0.3-1.1c0.3-0.5-0.4-0.4-0.7-0.8c-0.2-0.5-0.8-0.9-0.3-1.4
			c-0.4-0.2-0.7-0.9-1.2-0.9c-0.1,0-0.3,0.1-0.4,0.2c-1-0.8-2.1-0.6-2.3-2.1c0.5-1.3-1.1-0.5-1.2-1.7c0-0.2,0.1-0.8,0-0.8
			c0,0-0.1,0-0.1,0.1c-0.5-0.4-0.1-1.4-0.8-1.8c-0.4-0.3,0.4-0.7-0.1-0.7c-0.4-0.3-0.9-0.7-0.8-1.2c0.3-0.3,0.9-0.5,1.4-0.5
			c0,0,0.1,0,0.1,0c0-0.1,0-0.2-0.1-0.2c-0.1,0-0.3,0.2-0.4,0.2c0,0-0.1,0-0.1,0c-0.8-0.3-0.5-1.2-0.4-1.6c0.1-0.1,0.1-0.1,0.1-0.2
			c0,0,0,0.1-0.1,0.2c-0.1,0.1-0.2,0.1-0.3,0.1c-0.1,0-0.2,0-0.2,0c-0.7-0.2-0.2-0.9-0.4-1.4c0.3-0.2,0.4-0.5,0.7-0.5
			c0.1,0,0.1,0,0.2,0c0.1,0.2,0.2,0.4,0.2,0.6c0,0.1-0.1,0.2,0,0.3c0,0,0,0,0,0c0,0,0-0.1,0-0.3c0.2-0.4,0.7-0.7,0-1.1
			c0.5-0.6,0.1-1.3,0.9-1.6c0,0,0,0,0,0c0.2,0,0.6,0.2,0.5,0.6c0.8-0.7-0.6-0.9-0.8-1.6c0-0.3,0.2-0.5,0.5-0.5
			c0.1-0.3,0.3-0.4,0.6-0.4c0.3,0,0.6,0.1,1,0.1c0.1,0,0.2,0,0.3,0c0-0.1,0.1-0.2,0-0.2c0,0,0,0,0,0c-0.1-0.3,0-0.8,0.2-1
			c-0.1-0.3-0.5-0.3-0.6-0.5c0-0.1,0-0.1,0-0.2c0,0.1,0,0.1,0,0.2c-0.1,0.2-0.3,0.6-0.6,0.6c-0.1,0-0.3-0.1-0.4-0.2
			c0.2-0.1,0.1-0.4,0.1-0.6c0,0,0-0.1,0-0.1c0,0,0-0.1-0.1-0.1c0-0.1,0.1-0.2,0.3-0.3c0.1,0.1,0.2,0.1,0.3,0.1
			c0.4,0,0.7-0.7,1.1-0.9c0.1,0,0.2,0,0.2-0.1c-0.1,0-0.1,0-0.2,0.1c-0.1,0-0.1,0-0.2,0c-0.4,0-0.7-0.2-0.9-0.4
			c0.1,0.7-1.1,0.9-0.7,1.5c0,0.1,0,0.1,0,0.2C68.7,41,68.6,41,68.5,41 M29.1,42.5c0.2,0,0.4,0,0.6,0c0.1,0,0.1,0,0.2,0
			c0.3,0,0.6,0.3,0.5,0.6c0,0.1-0.3,0.3-0.3,0.3c0,0,0.1,0,0.3-0.2c0,0,0,0,0,0c0.2,0,0.2,0.3,0.3,0.4c-0.1,0.1,0,0.4-0.2,0.5
			c-0.2,0-0.3,0-0.4,0c-0.3,0,0.4,0.3,0.4,0.5c0.2,0.7-0.6,0.8-0.7,1.4c0.2,0.1,0.2,0.2,0.3,0.2c0.1,0,0.1,0,0.2-0.1
			c0.1,0,0.1,0,0.2,0c0.1,0,0.3,0,0.4,0c0.2,0,0.4,0.1,0.5,0.4c-0.4,0.5-1.3,0.1-1.5,0.4c0.3,0.3,0.4,1,0.3,1.5
			c-0.1,0.4-0.4,0.9-0.3,1c0,0.1,0,0.1,0.1,0.1c0,0,0-0.2,0-0.3c0.1-0.2,0.3-0.5,0.6-0.5c0,0,0.1,0,0.1,0c1.2,0.7-0.6,0.7,0.1,1.7
			c-0.6,0.3-0.1,0.8,0.1,1.3c0.1,0.3-0.4,0.6-0.1,0.9c-0.7,0.4,0.1,1-0.1,1.4c-0.5,1.4,0.7,2.8-0.1,4.1c-0.1,0.1-0.8,0.2-0.5,0.5
			c-0.1,0.4,0.1,1.3-0.6,1.3c-0.1,0-0.1,0-0.2,0c0.2,0.7-0.4,0.9-0.8,1.4c-0.1-0.2-0.2-0.3-0.3-0.3c-0.2,0-0.1,0.6-0.1,0.6
			c0,0,0,0,0,0c0,0,0,0,0,0c0.2,0,0.5-0.2,0.8-0.2c0.1,0,0.1,0,0.2,0c-0.1-0.4,0-0.6,0.2-0.6c0.2,0,0.5,0.1,0.8,0.1
			c0.2,0,0.3-0.1,0.4-0.2c0.2-0.3,0.9-0.4,0.7-1c0.2-0.2,0.3-0.2,0.4-0.2c0.1,0,0.2,0,0.3,0c0.1,0,0.1,0,0.2,0c0,0,0.1,0,0.1,0
			c1.3,0,0.8-1.2,1.2-2c0,0,0,0,0-0.1c0,0,0,0.1,0,0.1c-0.1,0.1-0.2,0.2-0.3,0.2c-0.2,0-0.5-0.2-0.6-0.4c-0.1-1.1,1.2-0.6,1.4-1.2
			c-0.1,0-0.2,0-0.2,0c0,0-0.1,0-0.1,0c-0.1,0-0.2,0-0.5,0c-0.6-0.6-0.3-0.7,0-0.7c0.1,0,0.2,0,0.3,0c0.4,0,0.7,0,0.4-0.5
			c0.5,0,1-0.1,1.5-0.1c0.1,0,0.2,0,0.4,0c-0.1-0.6,0.7-0.7,0.6-1.1c-0.3,0.1-0.4,0.5-0.6,0.6c-1.2-0.6,0.5-0.8-0.2-1.7
			c0-0.2,0.1-0.3,0.3-0.3c0.1,0,0.2,0,0.3,0c0.1,0,0.2,0,0.1-0.3c0-0.3,0.2-0.3,0.3-0.3c0.1,0,0.3,0,0.4,0c0.1,0,0.1,0,0.1,0
			c0.9-0.3,1.1-1.2,1.3-2c0-0.2,0.1-0.3,0.3-0.3c0,0,0.1,0,0.1,0c0,0.1,0.2,0.3,0.1,0.4c0,0,0.1,0,0.1,0c0.3,0,0.8,0.2,1.2,0.2
			c0.2,0,0.4-0.1,0.4-0.3c-0.1,0.1-0.2,0.1-0.3,0.1c-0.2,0-0.4-0.1-0.5-0.4c0-0.2,0-0.7,0.3-0.7c0,0,0.1,0,0.2,0
			c-0.3-0.8,0.6-0.8,0.9-1.1c-1.1-1.1,0.9-1.1-0.5-2.1c-0.1-0.1-0.3-0.2-0.4-0.2c-0.5,0-0.8,1-1.3,1.3c-0.1,0-0.2,0-0.3,0
			c-0.9,0-1.3-1.2-1.9-1.5c-0.1,0.4-0.6,0.1-0.6,0.7c-0.3,0.1-0.5,0.2-0.7,0.2c-0.9,0-1.1-1.3-1.7-1.9c0-0.5-0.1-0.6-0.3-0.6
			c-0.2,0-0.5,0.1-0.7,0.1c-0.1,0.1-0.2,0.1-0.3,0.1c-0.5,0-1-0.6-1.2-1c0.9-0.8-1-0.2-1.1-0.8c-0.2-0.2-0.1-0.6,0-0.8
			c-0.1,0-0.1,0-0.2,0c-1,0-1-1.1-1.8-1.5c-0.4,0-0.1,0.4-0.2,0.7c0.3,0.4,0.4,1.1,0.5,1.4C28.3,42.4,28.7,42.5,29.1,42.5 M65.3,3
			L65.3,3c-0.4,0-0.8,0.1-1.1,0.2c-0.1,0-0.2,0.1-0.4,0.1c-0.3,0-0.5,0.2-0.7,0.4C63,3.9,63,4.1,63,4.3c-0.1,0-0.2,0.1-0.3,0.1
			c-0.2,0.1-0.4,0.2-0.6,0.3c-0.2-0.1-0.3-0.1-0.5-0.1c-0.4,0-0.8,0.2-1.1,0.4c-0.1,0.1-0.2,0.2-0.2,0.3c-0.2,0.2-0.5,0.5-0.5,1.1
			c0,0,0,0.1,0,0.1c0,0.1-0.1,0.2-0.1,0.2c0,0.1-0.1,0.2-0.1,0.3c-0.1,0-0.3-0.1-0.4-0.1c-0.4,0-0.8,0.1-1.1,0.8
			c-0.2,0.1-0.3,0.2-0.4,0.3c-0.4,0.5-0.4,1-0.2,1.6c-0.2,0-0.3,0-0.4,0.1c0,0-0.1,0-0.1,0c-0.2-0.1-0.4-0.2-0.6-0.2
			c-0.2,0-0.4,0-0.5,0.1c-0.7,0.4-0.9,1.1-1,1.5c-0.1,0.3,0,0.6,0.1,0.9c0,0,0,0,0,0c-0.1,0-0.1,0-0.2,0C54.5,12,54.3,12,54.1,12
			c-0.2,0-0.4,0.1-0.5,0.1l-0.1,0c-0.7,0-1,0.3-1.1,0.6c-0.1,0.2-0.2,0.5-0.1,0.9c0,0.4,0,0.9,0.3,1.4c-0.1,0.1-0.3,0.2-0.5,0.3
			c-0.5,0.3-1,0.6-1.4,1.2c0,0,0,0,0,0.1c-0.3,0.5-0.3,1-0.2,1.2c0,0,0,0,0,0.1c-0.1,0.1-0.1,0.1-0.2,0.2c-0.1,0.3-0.2,0.5-0.1,0.8
			c-0.1,0.3-0.3,0.8,0,1.3c0,0,0,0,0,0c0,0,0,0.1,0,0.1c-0.1,0.1-0.1,0.1-0.2,0.2c-0.2,0.3-0.3,0.6-0.2,1c0,0.1,0.1,0.2,0.1,0.3
			c0,0.1,0.1,0.2,0.1,0.3c-0.2,0.1-0.4,0.2-0.6,0.4c-0.1,0.1-0.2,0.3-0.2,0.4c-0.1,0.1-0.2,0.3-0.2,0.5c0,0-0.1,0-0.1,0c0,0,0,0,0,0
			c0-0.1-0.1-0.1-0.2-0.2c0.1-0.3,0.2-1-0.2-1.6c0-0.2,0-0.3-0.1-0.4c0.3-0.4,0.3-0.8,0.2-1.1c-0.1-0.6-0.6-0.8-0.8-1
			c0,0-0.1-0.1-0.1-0.1c0-0.2,0-0.4-0.1-0.6c0.1-0.4,0-0.7,0-0.9c0-0.3,0-0.4,0-0.5c0.1-0.3,0.1-0.7-0.1-1c-0.1-0.2-0.2-0.5-0.2-0.8
			c-0.1-0.4-0.1-0.9-0.4-1.4c0.1-0.3,0-0.6-0.2-1c0.4-0.6,0.3-1.1,0.1-1.4c-0.2-0.5-0.6-0.8-1.1-0.8c-0.1,0-0.1,0-0.2,0
			c0-0.1-0.1-0.3-0.1-0.5c-0.2-0.5-0.5-0.7-0.8-0.9c0-0.2-0.1-0.4-0.3-0.6c-0.1-0.1-0.2-0.3-0.3-0.4c-0.3-0.5-0.7-1.2-1.7-1.5
			c-0.1,0-0.2,0-0.3,0c-0.1,0-0.3,0-0.4,0.1c-0.1,0-0.2,0-0.3,0c-0.1,0-0.5,0-0.8,0.3c-0.2-0.1-0.3-0.3-0.5-0.4
			c-0.1,0-0.1-0.1-0.2-0.1c-0.2-0.1-0.4-0.1-0.6-0.1c-0.6,0-1,0.3-1.3,0.6c-0.1-0.2-0.2-0.3-0.4-0.4c0,0-0.1,0-0.1-0.1
			c-0.4-0.2-0.8-0.3-1.3-0.3c-0.5,0-1,0.1-1.4,0.2c-0.1,0-0.3,0.1-0.4,0.2c-0.7,0.5-0.9,1.2-0.9,1.7c-0.3-0.2-0.6-0.3-1-0.3
			c-0.4,0-0.8,0.1-1.2,0.4c-0.2,0.1-0.3,0.3-0.4,0.6c0,0.1,0,0.1-0.1,0.2c0,0.1-0.1,0.2-0.1,0.3c-0.1,0.1-0.2,0.2-0.3,0.3
			c-0.2,0.3-0.4,0.5-0.4,0.8c-0.1,0-0.1,0-0.2,0.1c-0.8,0.4-1.1,1-0.9,1.9c-0.1,0-0.2,0-0.4-0.2c-0.2-0.1-0.4-0.2-0.6-0.2
			c0,0,0,0,0,0c-0.9,0-1.7,0.6-1.9,1.3c-0.1,0.4-0.1,0.9,0.3,1.4c0,0.5,0.1,0.8,0.2,1.1c0,0.2,0.1,0.3,0.1,0.4c0,0,0,0,0,0
			c-0.4,0-1.8,0-2.1,1.6c-0.1,0.3-0.2,0.9,0.1,1.4c0.1,0.1,0.2,0.3,0.4,0.4c0,0.2,0,0.3,0.1,0.5c-0.4,0.1-1,0.3-1.4,0.9
			c0,0.1-0.1,0.1-0.1,0.2l0,0c-0.8,0.9-0.3,1.7,0,2c0.1,0.1,0.2,0.1,0.2,0.2c0.1,0.5,0.4,1,0.6,1.4c0.5,0.8,0.4,0.9,0.2,1.1
			c0,0-0.1,0.1-0.1,0.1c-1,1.5,0.2,2.5,0.6,2.9c0.1,0.1,0.2,0.2,0.3,0.3c0,0.3,0,0.5,0.2,0.7c0,0,0,0,0,0c0,0.7,0.3,1.1,0.6,1.3
			c0,0,0,0,0,0c-0.1,0.2-0.1,0.3-0.1,0.4c-0.1,0.4,0.1,0.8,0.4,1c0,0.1,0,0.1,0,0.2c0,0.1,0,0.3,0,0.4c-0.1-0.2-0.2-0.3-0.3-0.5
			c0,0,0,0-0.1-0.1c-0.1-0.2-0.3-0.4-0.5-0.5c-0.4-0.2-0.8-0.3-1.2-0.3c0,0-0.1,0-0.1,0c-0.2-0.5-0.6-0.7-0.9-0.8
			c-0.1-0.2-0.2-0.4-0.4-0.6c-0.2-0.1-0.4-0.2-0.6-0.2c0,0-0.1,0-0.1,0C22,30.1,21.2,30,20.9,30c-0.2,0-0.4,0-0.4-0.1
			c-0.1,0-0.1,0-0.2-0.1c-0.1,0-0.2,0-0.4,0c-0.6,0-0.9,0.2-1.2,0.5c-0.2-0.1-0.5-0.1-0.8-0.1c-0.4,0-0.7,0.1-1,0.2
			c-0.2,0.1-0.4,0.1-0.6,0.1c0,0-0.1,0-0.1,0c-0.1,0-0.2,0-0.2,0c-0.2,0-0.5,0.1-0.6,0.2c-0.1,0-0.5,0.1-0.7,0.4c-0.1,0-0.1,0-0.2,0
			c-0.1,0-0.2,0-0.3,0c-0.3,0.1-0.6,0.3-0.7,0.6c-0.1,0-0.2,0.1-0.2,0.1c-0.4,0.1-1.1,0.3-1.4,1c-0.1,0.2-0.1,0.4-0.1,0.6
			c-0.2,0.3-0.2,0.6-0.2,0.8c0,0.1,0,0.2,0.1,0.3c0,0,0,0,0,0c-0.1,0-0.1,0-0.2,0c-0.6,0-0.9,0.3-1.1,0.6c-0.2,0-0.3,0.1-0.5,0.3
			l-0.1,0.1c-0.4,0.3-0.8,0.8-1.1,1.3c-0.2,0.1-0.3,0.2-0.4,0.3c-0.1,0-0.2,0.1-0.3,0.2c-0.1,0.1-0.1,0.1-0.2,0.2
			c-0.5,0.1-0.9,0.6-0.9,1.3c0,0.2,0,0.4,0.1,0.5c-0.1,0.2-0.2,0.5-0.1,0.9c0,0,0,0,0,0c-0.1,0.1-0.3,0.3-0.4,0.3
			c-0.4,0-0.7,0.3-0.9,0.7c0,0.1-0.2,0.1-0.4,0.3c-0.4,0.2-1,0.5-1.3,1.1c-0.3,0.1-0.7,0.3-0.7,0.8c0,0.2-0.1,0.7,0.5,1.1
			c0,0,0,0.1,0,0.1c0,0.1,0.1,0.2,0.1,0.3c0,0.1,0,0.1,0,0.2c0,0.1,0,0.1,0,0.2c0.1,0.2,0,0.4-0.4,0.9c-0.2,0.3-0.4,0.6-0.6,0.9
			c-0.3,0-0.6,0.1-0.8,0.3c-0.2,0.2-0.4,0.6-0.4,1c0,0.3,0.2,0.6,0.4,0.8c0,0,0,0.1,0,0.1c-0.3,1,0,1.7,0.4,2.3
			c-0.1,0.2-0.1,0.4-0.1,0.6C2.2,52,2.1,52.2,2,52.4C2,52.7,2,53,2.2,53.2c-0.1,0.1-0.1,0.2-0.2,0.3c-0.4,1.1-0.1,2,0.3,2.7
			c-0.6,1.3,0.4,2.3,0.8,2.7c0.2,0.2,0.4,0.4,0.5,0.5c0,0.4,0.1,0.8,0.2,1c0.1,0.4,0.2,0.7,0.1,1.3c-0.1,0.3,0,0.7,0.3,0.9
			C4.4,63,4.7,63.1,5,63.2c0.1,0.1,0.3,0.1,0.4,0.1c0.1,0,0.2,0,0.3-0.1c0,0,0,0.1,0,0.1C5.6,64,6,64.6,6.3,65c0,0.2,0,0.4,0.1,0.6
			c0,0,0,0.1,0.1,0.1c0,0.2,0,0.3,0,0.5c0.1,0.3,0.3,0.5,0.5,0.7c0.5,0.3,1,0.4,1.6,0.4c0.3,0,0.6,0,0.8-0.1c0.2,0,0.3,0,0.4,0
			c0.2,0.3,0.5,0.5,0.6,0.6c0,0,0,0,0.1,0c0.2,0.2,0.4,0.3,0.6,0.4c0.1,0,0.1,0,0.2,0c0.2,0,0.4-0.1,0.6-0.2
			c0.3-0.2,0.5-0.3,0.8-0.3c0.1,0.2,0.1,0.4,0.3,0.7c0.1,0.2,0.4,0.4,0.6,0.5c0.2,0,0.4,0.1,0.5,0.1c0.4,0,0.8-0.1,1.1-0.3
			c0.4,0.3,0.8,0.5,1.3,0.5c0,0,0,0,0,0c0.1,0.1,0.2,0.2,0.3,0.3c0,0,0,0,0,0.1c0.1,0.3,0.4,1.1,1.2,1.1c0.3,0,0.5-0.1,0.7-0.2
			c0.1,0,0.1,0.1,0.2,0.1c0.1,0.1,0.2,0.1,0.3,0.1c-0.4,0.4-0.7,1-0.5,1.8c0,0.2,0.1,0.4,0.2,0.5c-0.2,0-0.3,0.1-0.5,0.2
			c-0.8,0.7-0.6,1.4-0.5,1.7c0.1,0.2,0.2,0.4,0.4,0.5c-0.3,1,0.3,1.7,0.7,2.1c-0.1,0.1-0.1,0.2-0.2,0.4c-0.4,0.1-0.7,0.4-0.8,0.6
			c-0.4,0.7-0.1,1.4,0.2,1.9c-0.1,0.4-0.1,0.8,0,1.1c0.2,0.9,1,1.3,1.6,1.6c0.2,0.1,0.6,0.3,0.7,0.4c0,0,0,0.1,0,0.1
			c0,0,0,0.1,0,0.4c-0.1,0.4-0.2,1.1,0.3,1.8c0,0,0,0,0,0c0.2,0.2,0.4,0.5,0.8,0.6c0.1,0.4,0.2,0.7,0.4,0.9c0,0,0,0.1,0,0.1
			C22,87.4,22,87.6,22,87.7c0.1,1.1,0.6,1.5,1.1,1.7c0.4,0.3,0.8,0.4,1,0.4c0.3,0,0.6-0.1,0.9-0.2c0.2,0.1,0.5,0.2,0.7,0.3
			c0.1,0.1,0.2,0.3,0.4,0.5c0.5,0.7,1.2,1.6,2.3,1.9c0.3,0.4,0.7,0.6,1.2,0.6c0.1,0,0.2,0,0.4,0c0.1,0.1,0.2,0.2,0.3,0.2
			c0.3,0.8,0.8,0.9,1.2,0.9c0,0,0.1,0,0.1,0c0,0.2,0,0.5,0.1,0.7c0,0.1,0.1,0.2,0.2,0.3c0.4,0.4,1,1.1,1.8,1.2
			c0.2,0.1,0.4,0.1,0.6,0.1c0.3,0,0.5-0.1,0.7-0.2c0.1,0,0.2,0.1,0.4,0.1c0,0,0,0,0,0c0.1,0,0.2,0.3,0.3,0.5
			c0.1,0.1,0.1,0.3,0.2,0.4c0.1,0.2,0.3,0.4,0.5,0.4c0.2,0.1,0.5,0.1,0.7,0.1c0.8,0,1.3-0.5,1.6-0.9c0.7,0.2,1.3,0.4,1.9,0.5
			c0.6,0.1,1.1,0.2,1.7,0.4c0,0.2,0.1,0.3,0.2,0.4c0.2,0.3,0.5,0.4,0.8,0.4c0,0,0.1,0,0.1,0c0.3,0,0.6-0.2,0.8-0.5
			c0.1,0,0.1,0,0.2,0c0.1,0,0.2,0,0.3,0c0.2,0,0.7,0,1.2-0.3c0.7,0,1.3-0.3,1.8-0.7c0.1,0,0.2,0,0.3,0c0.1,0,0.3,0,0.5-0.1
			c0.4,0.4,0.9,0.7,1.4,0.8c0.1,0,0.2,0,0.3,0c0,0,0.1,0,0.1,0c0.1,0,0.3,0,0.5,0c0.5,0,1.1,0,1.7-0.3c0.3,0.2,0.6,0.3,0.9,0.3
			c0.1,0,0.2,0,0.3,0.1c0.1,0,0.2,0.1,0.3,0.1c0.3,0,0.7-0.2,0.9-0.5c0.1,0,0.1,0,0.2,0c0.1,0,0.2,0,0.2,0c0.8-0.2,1.2-0.7,1.3-1.2
			c0.1,0,0.1,0.1,0.2,0.1c0.3,0.2,0.5,0.3,0.7,0.5c0.1,0.1,0.2,0.1,0.3,0.2c0.2,0.1,0.5,0.2,0.8,0.2c0.8,0,1.4-0.5,1.7-0.8
			c0.1-0.1,0.1-0.1,0.2-0.2c0.3,0,0.6-0.1,0.8-0.3c0,0,0,0,0,0c0.1,0,0.2,0,0.3,0c0.2,0,0.3,0,0.5-0.1c0,0,0,0,0,0c0,0,0,0,0,0
			c0.1,0,0.1,0,0.2,0c0.1,0,0.1,0,0.2,0c0.2,0,0.6,0,1-0.4c0.2-0.1,0.4-0.3,0.6-0.4c0,0,0,0,0,0c0.1,0.1,0.2,0.1,0.3,0.1
			c0.2,0.1,0.4,0.1,0.7,0.1c0.8,0,1.4-0.5,1.8-0.8c0.1-0.1,0.2-0.2,0.3-0.2c0,0,0,0,0.1,0c0.2-0.1,0.9-0.3,1.1-1
			c0.1-0.4,0.1-0.7,0-1c0,0,0,0,0.1-0.1c0.6-0.2,0.9-0.6,1.2-0.8c0.2-0.2,0.3-0.3,0.5-0.4c0,0,0.1,0,0.1,0c0.3,0,0.5-0.1,0.7-0.2
			c0.1,0,0.1,0,0.2,0c0.3,0,0.7-0.2,0.9-0.4c0.3,0.2,0.7,0.2,1,0.3c0.1,0,0.2,0,0.3,0.1c0.2,0.1,0.4,0.2,0.6,0.2
			c0.1,0,0.3,0,0.4-0.1c1.5-0.6,1.7-2,1.8-2.9c0-0.1,0-0.1,0-0.2c0.1,0,0.2,0,0.2-0.1c0,0,0.1,0,0.1,0c0.4-0.1,1.2-0.2,1.6-0.9
			c0-0.1,0.1-0.2,0.1-0.3c0.1-0.1,0.2-0.2,0.3-0.3c0.2-0.3,0.2-0.7,0.2-1c0.4-0.3,0.7-0.6,0.9-0.9c0,0,0.1-0.1,0.1-0.1
			c0.4-0.1,0.8-0.5,0.9-1.3c0.2-0.2,0.3-0.4,0.3-0.7c0-0.1,0.1-0.2,0.1-0.4c0.1-0.2,0.1-0.5,0.2-0.8c0,0,0,0,0,0
			c0.2,0,0.4-0.1,0.6-0.2c0.3-0.2,0.4-0.5,0.5-0.8c0-0.1,0-0.2,0-0.3c0.1-0.4,0.2-1.1-0.3-1.7c0-0.1,0-0.2,0-0.3c0-0.1,0-0.1,0-0.2
			c0.1-0.1,0.2-0.3,0.3-0.5c0.2-0.5,0.1-1-0.1-1.3c0.4,0,0.8-0.3,0.9-0.8c0,0,0.1-0.1,0.1-0.2c0.2-0.3,0.4-0.8,0.5-1.3
			c0-0.3-0.1-0.6-0.3-0.8c-0.2-0.2-0.3-0.5-0.3-1.2c0-0.7,0-1.7-0.8-2.4c0,0,0-0.2,0-0.3c0-0.4-0.1-1-0.6-1.5
			c-0.1-0.4-0.2-0.7-0.3-1c0,0,0-0.1-0.1-0.2c0,0,0,0,0.1,0c0.1-0.1,0.2-0.2,0.3-0.3c0.1,0,0.2,0.1,0.4,0.1c0,0,0,0,0.1,0
			c0,0,0,0,0.1,0c0.4,0,1.3-0.1,1.8-0.8c0.6,0.5,1.4,0.8,2.3,1c0.1,0,0.2,0,0.2,0c0.1,0,0.3,0,0.4-0.1c0.4-0.2,0.7-0.4,0.9-0.7
			c0.1,0,0.2,0,0.3,0c1,0,1.6-0.9,1.7-1.5c0-0.1,0-0.2,0-0.3c0.6-0.1,1.4-0.3,1.7-1.3c0,0,0,0,0,0c0.9-0.2,1.3-1,1.6-1.4l0.1-0.2
			c0.2-0.3,0.2-0.7,0-1.1c0,0,0.1-0.1,0.1-0.1c0.3-0.2,0.6-0.5,0.8-1c0-0.1,0-0.1,0.1-0.2c0.1-0.5,0-1,0-1.4c0-0.1-0.1-0.4-0.1-0.6
			c0.2-0.1,0.3-0.3,0.5-0.7c0.2-0.1,0.5-0.2,0.6-0.4c0.5-0.8,0.3-1.5,0.1-1.9c0-0.1-0.1-0.2-0.1-0.2c0-0.1-0.1-0.3-0.1-0.4
			c0-0.1,0-0.2,0-0.3C95,52.6,95,52.3,95,52c0.3-0.2,0.6-0.4,0.7-0.6c0,0,0.1-0.1,0.1-0.1c0.2-0.1,0.4-0.4,0.5-0.7
			c0.2-0.9-0.2-1.5-0.6-1.8c0.3-0.7,0.1-1.4,0-1.9c-0.1-0.3-0.1-0.5-0.1-0.7c0.1-0.1,0.2-0.2,0.3-0.3c0.3-0.3,0.8-0.6,1-1.2
			c0.1-0.1,0.1-0.3,0.1-0.4c0-0.5-0.2-0.8-0.3-1c0.1-0.1,0.2-0.3,0.2-0.4c0-0.1,0-0.3,0-0.4c0-0.4-0.2-0.8-0.4-1
			c0-0.3-0.1-0.6-0.1-0.8c0.1-0.2,0.2-0.3,0.2-0.4c0.2-0.1,0.3-0.3,0.4-0.6c0.1-0.3,0-0.6-0.1-0.9c0,0,0.1-0.1,0.1-0.1
			c0.4-0.3,1-0.7,1-1.4c0,0,0-0.1,0-0.1c0,0,0-0.1,0-0.1c0.2-0.1,0.4-0.3,0.4-0.6c0.1-0.4,0-0.7-0.1-0.9c0.1-0.2,0.1-0.5,0-0.8
			c0,0,0-0.1,0-0.2c0-0.1,0-0.3-0.1-0.5c0.2-0.2,0.4-0.4,0.5-0.8c0-0.1,0-0.2,0-0.2c0-1.1-0.5-1.7-1.8-1.9c0-0.3,0-0.6-0.1-1
			c0-0.1,0-0.1-0.1-0.1c0-0.1,0-0.1,0.1-0.2c0.1-0.5,0-1-0.3-1.3c-0.1-0.2-0.3-0.3-0.4-0.4c0-0.1-0.1-0.3-0.2-0.4c0,0,0-0.1,0-0.1
			c0.2-0.4,0.2-0.8-0.1-1.2c0,0,0-0.1-0.1-0.1c-0.1-0.1-0.2-0.2-0.3-0.3c0-0.1,0-0.2-0.1-0.3c-0.4-1.2-1.3-1.3-1.6-1.3
			c-0.3,0-0.5,0.1-0.7,0.1c0,0-0.1,0-0.1,0c-0.1-0.1-0.2-0.1-0.3-0.1c0.1-0.5-0.1-1.3-1.2-1.6c-0.1-0.2-0.2-0.4-0.4-0.5
			c-0.5-0.3-0.9-0.5-1.4-0.5c-1,0-1.5,0.7-1.9,1.2c-0.1,0.1-0.2,0.3-0.3,0.4c-0.1-0.1-0.3-0.1-0.4-0.1c-0.2,0-0.3,0-0.5,0.1
			c-0.1,0-0.2,0-0.3,0c-0.2,0-0.5,0.1-0.7,0.2c-0.1,0-0.3,0-0.5-0.1c-0.4-0.1-0.8-0.1-1.2-0.1c-0.6,0-1.1,0.1-1.7,0.4
			c-0.3,0.2-0.5,0.5-0.6,0.8c-0.1,0.6-0.7,0.6-1,0.6c-0.1,0-0.1,0-0.2,0c0,0-0.1,0-0.1,0c-0.3,0-0.7,0.2-0.9,0.4
			c-0.2,0.2-0.2,0.5-0.2,0.8c0,0,0,0,0,0.1c-0.1,0.3-0.3,0.9,0.1,1.4c0.1,0.1,0.2,0.2,0.4,0.4c-0.3,0.1-0.6,0.2-0.8,0.5
			c-0.3,0-0.6,0.2-0.8,0.4c-0.1,0.1-0.2,0.3-0.2,0.4c-0.7,0.2-1.1,0.7-1.4,1c0,0,0,0,0,0c-0.1-0.1-0.1-0.2-0.2-0.3
			c0-0.1,0-0.1,0-0.2c0.1-0.1,0.2-0.2,0.2-0.4c0.3-0.9,0.2-1.9-0.2-2.7l0.3-1c0.2-0.5,0.1-1-0.2-1.4c0.1-0.3,0.2-0.9-0.2-1.4
			c0,0,0.1-0.1,0.1-0.2c1.3-1.7,0.3-4.1-0.1-5.1c-0.1-0.1-0.1-0.2-0.2-0.3c0.5-0.4,1.2-1,1.1-1.9c0.1-0.7-0.2-1.1-0.3-1.4
			c0.1-0.4,0.1-1-0.4-1.6c0.4-0.9,0.1-1.9-0.1-2.6c-0.1-0.2-0.1-0.4-0.2-0.6C76.1,9.4,75.8,9,75.4,9c-0.1,0-0.3,0-0.4,0
			c-0.2,0-0.4,0-0.6,0.1c-0.1-0.3-0.3-0.6-0.6-0.8C73.7,8.1,73.6,8,73.5,8c-0.3-0.1-0.4-0.3-0.5-1.1c-0.1-0.5-0.2-1.1-0.5-1.8
			c-0.2-0.4-0.6-0.6-0.9-0.6c0,0-0.1,0-0.1,0c-0.2-0.2-0.6-0.5-1.2-0.5c-0.1,0-0.2,0-0.3,0c-0.1,0-0.2,0.1-0.4,0.1l-0.1,0
			c-0.1,0-0.1,0-0.2,0c-0.3,0-0.6,0.1-0.9,0.2c-0.3-0.3-0.7-0.6-1.3-0.6c0,0-0.1,0-0.2,0c-0.1-0.1-0.2-0.2-0.3-0.4
			C66.4,3.2,65.9,3,65.3,3L65.3,3L65.3,3z M51.7,38.2c0.2-0.1,0.3-0.2,0.4-0.4c0.1,0.1,0.2,0.2,0.3,0.3c0,0.6,0.2,1.5,0.8,2.1
			c0,0.1,0.1,0.3,0.1,0.4c-0.1,0.1-0.2,0.3-0.3,0.4c0,0-0.1,0-0.1,0.1c-0.1,0.1-0.2,0.1-0.4,0.2c-0.2,0-0.3,0-0.3,0
			c-0.2,0-0.4,0.1-0.6,0.1c0,0,0,0,0,0c0,0-0.1,0-0.1,0c-0.1,0-0.3-0.1-0.4-0.1c-0.3-0.1-0.6-0.2-1-0.2c0,0,0-0.1,0-0.1
			c0-0.3,0-0.4,0.5-0.7C50.9,39.7,51.6,39.2,51.7,38.2L51.7,38.2z M65.1,43.5c0.1,0,0.2-0.1,0.3-0.1c0.2,0.1,0.4,0.1,0.7,0.1
			c0.1,0,0.2,0,0.3,0c0.1,0,0.3,0,0.4-0.1c0,0.1,0,0.1,0,0.2c0,0.1,0,0.3,0.1,0.4c0,0.1,0.1,0.2,0.1,0.3c-0.3,0.4-0.4,0.7-0.4,1
			c0,0.2-0.1,0.3-0.1,0.3c0,0.1-0.1,0.1-0.1,0.2c-0.3,0.1-0.5,0.4-0.6,0.5c0,0,0,0.1-0.1,0.1c-0.4,0.3-0.6,0.8-0.4,1.3
			c0,0,0,0.1,0,0.1c0,0.3-0.1,1.2,0.8,1.7c0,0.2,0,0.3,0.1,0.4c0,0-0.1,0.1-0.1,0.1c-0.1,0.1-0.2,0.3-0.2,0.5c0,0.2-0.1,0.6,0.1,0.9
			c-0.3-0.3-0.7-0.4-0.9-0.6c-0.1-0.1-0.3-0.2-0.4-0.2c0,0,0-0.1,0-0.2c0-0.3-0.1-0.6-0.4-0.9c-0.3-0.3-0.7-0.5-1-0.6
			c-0.1-0.1-0.2-0.1-0.3-0.2c0.2-0.8,0-1.4-0.4-1.7c0-0.2-0.1-0.4-0.2-0.6c0,0,0-0.1,0-0.1c0.1-0.1,0.2-0.2,0.3-0.4
			c0.2-0.4,0.2-0.8,0-1.1c-0.1-0.1-0.1-0.2-0.2-0.3c0.2-0.1,0.3-0.3,0.4-0.4c0.2,0.1,0.4,0.1,0.6,0.1c0.3,0,0.5-0.1,0.7-0.2
			C64.6,44.1,64.9,43.7,65.1,43.5L65.1,43.5z M31.5,45.1c0-0.1,0-0.2,0-0.3c0.3,0.2,0.6,0.3,1,0.3c0.2,0,0.3,0,0.5-0.1
			c0,0.1,0.1,0.1,0.2,0.2c0.1,0.1,0.2,0.3,0.3,0.5c0.3,0.6,0.8,1.6,2.1,1.6c0.4,0,0.8-0.1,1.2-0.3c0.1,0,0.1-0.1,0.2-0.1
			c0.4,0.5,1,1.1,1.9,1.1c0.2,0,0.4,0,0.5-0.1c0,0,0,0,0,0c-0.1,0.1-0.1,0.3-0.2,0.4c0,0-0.1,0.1-0.1,0.1c-0.1,0.1-0.1,0.1-0.1,0.2
			c-0.1,0-0.2,0-0.4,0c-0.4,0-0.8,0.2-1,0.5c-0.2,0.2-0.3,0.5-0.3,0.7c-0.2,0.7-0.3,1-0.5,1.1c-0.1,0-0.2,0-0.3,0
			c-0.5,0-1,0.3-1.2,0.7c-0.5,0.2-0.8,0.6-0.8,1.2c0,0.1,0,0.3,0.1,0.4c-0.1,0.2-0.3,0.4-0.3,0.8c-0.1,0-0.2,0-0.4,0
			c-0.3,0-0.6,0.2-0.8,0.5c-0.6,0.1-0.9,0.3-1.1,0.7c-0.1,0.2-0.1,0.3-0.1,0.4c-0.1-0.4-0.1-0.8,0-1.1c0.2-0.5,0.1-0.9,0-1.2
			c0.1-0.1,0.2-0.3,0.2-0.5c0-0.1,0-0.3,0-0.4c0.1-0.3,0.2-0.7,0-1.1c-0.1-0.1-0.1-0.2-0.2-0.3c0.1-0.1,0.1-0.2,0.1-0.3
			c0-0.2,0-0.4,0-0.5c0.2-0.2,0.4-0.6,0.4-1c-0.1-0.6-0.5-1-0.8-1.2c0-0.1,0-0.2,0-0.3c0.3-0.1,0.6-0.2,0.9-0.5
			c0.2-0.2,0.3-0.6,0.2-0.9C32.4,45.6,32,45.2,31.5,45.1L31.5,45.1z M31.6,58.4c0.1-0.1,0.1-0.3,0.2-0.4c0.1,0.1,0.2,0.2,0.4,0.4
			c0,0,0,0,0,0.1c0,0,0,0-0.1,0c-0.1,0-0.1,0-0.2,0l0,0C31.9,58.4,31.8,58.4,31.6,58.4C31.7,58.4,31.7,58.4,31.6,58.4L31.6,58.4z
			 M72,59.9c0.1,0,0.2,0,0.4-0.1c0,0.1,0,0.3,0,0.4c-0.4-0.1-0.6-0.2-0.6-0.4C71.8,59.9,71.9,59.9,72,59.9L72,59.9z"/>
	</g>
</g>
<g id="AREA_1">
	<path d="M97.8,33.3c0-1-1-0.7-1.6-1c-0.1,0.2,0,0.3,0.1,0.5c0.7,0.3,0.5,0.9,0.6,1.4c-0.7-0.2-0.4-0.9-0.7-1.3
		c0-0.4-0.9-0.1-0.8-0.7c0.1-0.1,0.2,0,0.4-0.1c0-0.5,0.5-0.7,0.2-1.3c-0.2-0.4-1-0.8-0.1-0.9c0.2-1.2-1.2-0.1-0.7-1.2
		c-0.4-0.2-0.7-0.1-1,0.1c-0.2-0.4,0.1-1,0.2-1.3c0.1,0.1,0.1,0.1,0.1,0.2c0.2-0.1,0.7,0,0.5-0.3c-0.3-0.4-0.8-0.1-1,0.1
		c-1.2-0.5,0.8-0.2,0.4-1c-0.4-1.2-1.3-0.1-2-0.6c-1,0.5-0.7-0.9-1.6-0.8c0.1-0.3,0.5,0,0.7-0.2c0.3-1-1.1-0.4-1.1-1.4
		c-1.7-1.2-1.9,1.9-3.4,1.2c0,0.3,0.2,0.7-0.3,0.8c-0.1-0.2-0.3-0.3-0.1-0.5c-0.2-0.3-0.7-0.2-0.8,0c-0.9,0-2.1-0.5-3.2,0.1
		c-0.2,1.1-1.2,1.6-2.3,1.5c0.2,0.4-0.5,1.1,0.2,1.2c1.2-0.6-0.3,1.3,0.9,1.5c-0.8,0.4-1.6,0-2.1,0.9c-1.1-0.4-0.1,1-0.8,0.8
		c-0.7-0.2-1,0.4-1.4,0.8c0.1,0.7,0.7,0.2,0.9,0.8c0.1,0.2,0,0.3-0.2,0.4c-0.2,0-0.3-0.1-0.4-0.3c-0.5,0.4-1.4,0.5-2,0.5
		c-0.3,0-0.5-0.3-0.1-0.5c0.2-0.4,0.7-1.5-0.1-1.5c0.3-0.6-0.6-1.1,0.3-1.5c0.3-0.8,0.1-1.6-0.4-2.2c0.1-0.5,0.3-1,0.4-1.6
		c0.3-0.6-1.3-1.4-0.2-1.4c0.2-0.5-0.6-0.6-0.8-0.9c-0.2-0.7,0.4-0.5,0.8-0.9c0.8-1.1,0.3-2.9-0.2-4c-1.8-1.2,1-1.5,0.8-2.8
		c0.2-0.6-0.4-0.8-0.4-1.4c0.6-0.8-0.9-1-0.4-1.7c0.6-0.8,0-1.9-0.2-2.8c-0.4-0.1-0.7,0-0.9,0.4c-0.8,0-0.7-1-1.2-1.4
		c-1.5-0.6-0.9-2-1.5-3.3c-0.5,0.2-0.8-0.5-1.4-0.4c-0.5,0.4-1.3-0.3-1.4,0.7c-0.3-0.1-0.9,0.2-0.7-0.3c-0.3-0.4-0.9-1-1.3-0.2
		c-1,0.3-0.1-0.6-0.7-1c-0.6-0.7-1.4-0.2-2.1-0.1c0.2,0.9-0.9,1-1.4,1.3c-0.3,0.8-0.8-0.4-1.4,0.2c0,0.3-0.7,0.5-0.3,0.7
		c-0.4,0.7-0.4,1.9-1.5,1.9c-0.6-0.9-0.2,0.7-0.9,0.4c-0.4,0.5,0.1,0.7,0.2,1.1c-0.6,0.2-0.1,1-0.7,1c-0.4-0.4-1.2,0.3-1.7-0.2
		c-0.3,0.2-0.4,0.5-0.5,0.9c0.9,0,0.4,1,0.4,1.5c-0.7,0-1.4,0.4-2.1,0c-0.2,0.4-1.1-0.1-0.8,0.4c0,0.4-0.2,1.1,0.5,1
		c0.3,1.6-1.5,1.6-2.3,2.7c-0.4,0.7,0.7,0.4,0.4,0.9c-0.2,0.2-0.2,0.7-0.7,0.5c0.5,0.3-0.7,1.2,0.3,1.2c-0.5,0.4,0,1.4-0.6,1.4
		c0.3,0.7,0.8,1.9-0.5,1.9c0.1,0.2-0.6,0.7,0,0.8c-0.2,0.8,0.2,1.6,0.3,2.2c-0.3,0.2-0.6,0.3-1,0.2c-0.5-0.3-0.8-1.3-0.2-1.4
		c-0.2-0.8-1.2-0.3-1.5-1c-1-0.5,0.3-1.4-0.7-2.1c0.7-0.4-0.9-1.4,0.3-1.2c0.4-0.6-0.6-0.6-0.6-0.9c-0.4-0.2-0.2-0.8-0.4-1.2
		c0.2-0.7-0.1-1.2,0.2-1.8c-0.5-0.8-0.2-2-0.9-2.7c0.6-0.5-0.5-0.8-0.2-1.4c0.2-0.2,0.6-0.3,0.4-0.6c-0.1-0.3-0.4-0.1-0.6,0
		c-0.9,0.2-0.7-0.9-0.9-1.2c-0.2-0.7-1.1-0.4-0.8-1.2c-0.5-0.5-0.6-1.3-1.5-1.6c-0.4,0.5-0.7-0.3-0.9,0.3c-0.1,0.1,0,0.5-0.3,0.4
		c-0.5-0.2-0.9-0.8-1.3-1c-0.6-0.2-1,0.5-1.2,0.9c-0.8,0.8-0.9-0.7-1.3-1c-0.6-0.3-1.3-0.2-1.9,0c-0.9,0.7-0.4,1.8-0.8,2.5
		c-0.9,0.3-1.3-1.4-2.4-0.6c-0.1,0.4-0.3,0.8-0.2,1.1c-1.4,0,0.2,1.8-1.4,1.3c-0.8,0.4,0,1.1-0.3,1.7c-0.8,0.4-1.4,0.4-2.1-0.1
		c-0.9,0-1.4,0.8-0.6,1.4c-0.3,0.8,0.4,1.4,0.2,2.3c-0.3,1.3-1.9-0.1-2.1,1.4c-0.4,1.2,1.1,0,1.1,0.3c-1,0.5-0.5,1.6-0.2,2.3
		c-0.6,0.5-1.4,0.1-1.8,0.8c0,0.3-0.6,0.5-0.2,0.9c0.5,0.2,0.4-0.2,0.6-0.4c-0.9,1.6,1.8,2.8,0.4,4.5c-0.9,1.3,1.3,1.4,1.1,2.6
		c0.4,0.4-0.1,1.1,0.6,1.1c0.5,0.4,0.1,1.1,0.1,1.5c0.7,0.3,0.3,1.1,0.3,1.6c0.1,0.5-0.1,1-0.7,0.9c-0.2,0.5-0.5,0.9-0.1,1.3
		c-1.5,1.5,1,1.1,0.5,2.7c-2.4,0.9-0.7-2.3-2-2.8c0.1-0.2,0.6-0.3,0.3-0.6c-0.4-0.3-0.8-0.9,0-0.9c0-0.5-0.3-0.8-0.6-0.5
		c0-0.2,0.2-0.2,0.2-0.3c-0.7-0.3-1.5-0.3-2.1-0.6c0.8-0.8-0.9-0.2-0.7-1.2c-0.1,0.1-0.4-0.1-0.3,0.2c-0.1,0.2-0.2,0.1-0.2-0.1
		c-0.2-0.9-1.3-0.6-2-0.8c-1.2-0.2-0.6,1.5-1.8,1.2c-0.7-0.6,0.6-0.3,0.4-0.5c-0.8-0.7-1.7,0.1-2.7-0.1c-0.2,0.3-0.9,0.1-0.5,0.6
		c-0.4,0-0.8,0.3-1,0c-0.2,0.9-2.1,0.4-1.5,1.5c-0.8,0.4,0,0.9,0.3,1c0,1.1-1,0.5-1.5,0.9c-0.7-0.3-0.5,0.5-1.1,0.5
		c-0.5,0.4-1.1,1-1.1,1.6c-1.1-0.1,0.1,1.2-0.9,0.4c0.3,1.1-0.7-0.2-0.7,0.6c0.8,0.6-0.7,1.2,0.5,1.6c-0.7,0.3-1.1,1.2-1.8,1.2
		c-0.4,1-1.7,0.7-1.9,1.9c-1.3,0.1,0.4,0.2,0,0.8c0.5,0.2,0.2-0.5,0.5-0.7c1,0.5-0.4,0.7-0.3,1.3c0.4,1.3-1.1,2-1.1,3.1
		c-0.1,0.2-0.3,0.6-0.5,0.1C3,47.9,2.8,47.6,2.8,48c0.2,0.1,0.4,0.4,0.7,0.3c0,0.3,0,0.7-0.4,1c-0.3,0.9,0.4,1.4,0.8,2.1
		c-1.2,0.2,0.6,1.2-0.8,1.2c0.2,0.1,0.2,0.3,0.3,0.5c0,0.3,0,1-0.4,0.8c-0.4,0.9,0.1,1.5,0.5,2.3c-1.1,1.5,0.9,1.8,1.1,3
		c0.1,1,0.5,1.4,0.3,2.7c0.1,0.2,0.3,0.2,0.6,0.3C5.6,62,6.1,62,6.1,61.5c0.4,0.7,1.3,1.3,0.6,2.1c-0.1,0.4,0.4,0.8,0.7,1
		c0.6,0.2,0.6-0.6,1.1-0.6c1,1-1,0.6-1.3,1.2c0.1,0.3,0.3,0.5,0.1,0.8c1.1,0.6,1.8,0,2.8,0.2c-0.2-0.7,0.8-0.5,0.8-1.2
		c0.6-0.5,0.9,0,0.9,0.5c-0.8-0.4-0.8,0.4-1.3,0.7c-0.1,0.5,0.5,0.6,0.7,0.9c0.6-0.4,1.2-0.6,2-0.4c0.4,0.3,0.3,0.7,0.6,1.1
		c1.4,0.3,1.2-1.7,2.5-1.7c0.3,0.6-0.8,0.9-0.6,1.5c0.4,0.4,0.9,0.6,1.4,0.3c0.3-0.1,0.4,0.3,0.3,0.6c0.5,0,0.5,1.9,1,0.5
		c0.5-0.1,0.6,0.2,1.1,0.5c0.3,0,0.6,0,0.7-0.3c1.2-0.7,2.2-1.3,2.9-2.6c0.3,0.1,0.6,0.1,0.7-0.1c-0.1-0.5-0.3-1-0.8-1.2
		c0-0.4,0.4-0.3,0.6-0.5c0-1.3,0.9-0.1,1.5-0.5c0.3-0.3,0.3-0.8,0.2-1.2c0.1-0.9,0.2-1.5,1.1-1.8c0.2,0.1,0.5,0.1,0.6,0.3
		c0.1,0.1,0,0.2-0.1,0.2c0,0.4-0.2,1,0.3,1.4c0.4,0,0.9-0.2,1-0.6c0.2,0.7-0.5,1-0.7,1.6c-0.6,0.1-1.5-0.8-1.9-0.1
		c-0.2,0.6-0.2,0.8,0.3,1.2c-0.2,0.1-0.4-0.1-0.6-0.2c-0.9,0.3,0.3,0.5,0.5,0.8c0.6,1.7-2.7-0.2-1.4,1.6c0,0.2-0.2,0.1-0.4,0
		c0,0-0.1-0.1,0-0.2c-0.4-0.6-0.7,0.4-0.6,0.6c-0.5,0.1-0.7,0.5-1.3,0.6c-0.7,1.2,1.2,0,1.4,1.1c0.1,0.7-0.4,0.4-0.8,0.7
		c-0.2-0.8-0.9-0.1-1.4-0.1c-0.4,0.6-1.5,0.7-1.3,1.7c0.2,0.9,0.4-0.3,0.8-0.1c0.3,0.2,0,0.5-0.1,0.8c-0.5,0.3-0.5,1.6-1.4,1.1
		c-0.7,0.6,0.2,0.9,0.6,0.8c0.5,0.3-0.1,0.7-0.4,0.8C19,76.7,21.4,77,20,78c0.2,0.5-0.3,0.3-0.4,0.7c-1.1-0.1-0.2,1.2-0.1,1.5
		c-0.9,1.7,1.5,1.7,2,2.7c0.5,0.8-0.2,1.4,0.3,2.1c0.4,0.6,1.1,0.2,1.5,0.3c-1.3,0.8,0.5,1.5-0.2,2.3c0,0.3,0.1,0.8,0.5,0.7
		c0.5,0.8,1.1,0.1,1.6-0.1c0.2,0.4,0.6,0.6,1,0.5c0.9,1,1.5,2.4,2.9,2.5c0.3,1.1,1.3-0.2,1.7,0.8c0.6-0.3,0.3,0.9,0.7,0.8
		c-0.1-1.2,0.8-0.2,1.1,0c0.2,0.3,0.7,0.1,0.6,0.4c-0.4,0.1-0.7,0.6-0.5,1c0.3,0.4,0.9,1,1.3,0.8c0.3,0.5,0.9-0.4,1.3,0.1
		c0.9,0,1.1,0.8,1.5,1.5c0.7,0.3,1.1-0.6,1.6-1c1.6,0.7,3.2,0.7,5.1,1.4c0.1,0.2-0.1,0.4,0,0.6c0.5-1,1.6,0,2.2-0.8
		c0.8,0.1,1.5-0.4,2-0.8c0.9,0.7,0.3-0.7,1.2-0.3c0.2,0.6,0.8,1,1.3,1.2c0.7-0.1,1.8,0.1,2.5-0.7c0.2,0.6,0.8,0.6,1.3,0.8
		c0.2-0.3,0.6-0.6,1-0.4c1-0.2,0.3-1.4,1.3-1.6c0.6,0.6,1.2,0.7,1.9,1.3c0.9,0.4,1.5-0.9,2.1-1c0.1,0.2,0.6-0.2,0.4-0.5
		c0.4-0.5,0.6,0.2,0.8,0.2c0.4-0.2,1.2,0,1.2-0.2c0.7-0.3,1.4-1.4,1.9-0.5c0.9,0.3,1.6-0.8,2.1-0.9c1.1-0.4-0.1-0.9,0.2-1.6
		c0.3-0.2,0.6,0,0.7-0.4c1-0.2,1.2-1.2,2.3-1.4c0.1,0,0.4,0.1,0.4-0.2c0.1-0.3,0.5,0,0.7,0c0.1-0.6,0.8-0.5,1.1-1.1
		c-0.2,1.2,1.1,0.7,1.6,1.2c1.3-0.5,1-2,1.3-2.8c0.4,0,0.3-0.7,0.7-0.3c0.2-0.2,1.5,0,1.2-1c1,0-0.1-0.9,0.2-1.3
		c0.9,0.1,1.1-0.6,1.7-1.2c0.7,0.1,0.2-1,0.8-1.2c0.1-0.5,0.4-1,0.2-1.6c0.3-0.3,0.6-0.6,1.1-0.5c0-0.6,0.3-1.1-0.4-1.5
		c0.3-0.6,0-1.2,0.5-1.6c0.2-0.7-0.8-1.2-0.4-1.7c0.3,0,0.7-0.4,1.2-0.3c0.1-0.4,0.5-0.8,0.5-1.3c-1.1-1.1-0.1-2.7-1.1-3.5
		c-0.7-0.6-0.1-1.6-1-2.1c0.2-1-1.1-1.6,0.1-2.5c-0.1-0.2,0-0.5-0.3-0.4c-0.6,0.4,0-0.7-0.7-0.4c-0.4,0.6-1.2,0.4-1.7,0.1
		c-0.5-0.1-0.3-0.8-0.4-1.1c0-0.4-0.9-0.6-0.3-0.9c0.3,0.7,1.5,0.4,1.7,1c0.3,0.5,1,0.2,1.4,0.2c0.9-0.6,1,1,1.6,1.1
		c0.3,0,1.4-0.2,1-0.9c0.4-0.5,0.6,0.2,1-0.2c0.5,0.7,1.5,1.1,2.5,1.4c0.8-0.3,0.1-1.1,0.7-1.4c0.4-0.1,0.4,0.3,0.5,0.5
		c0.4,0.6,0.9-0.2,1-0.5c-0.9-1.7,1.4-0.6,1.7-1.7c-0.1-0.2,0-0.6,0.4-0.7c0.8,0,1.1-0.6,1.5-1.2c-0.7-1.1,0.6-1.3,0.9-2
		c0.2-0.8-0.4-1.9,0.1-2.6c0.6,0.2,0.1-1,1-0.8c0.3-0.5,0-0.9-0.1-1.4c0-0.3-0.8-0.4-0.1-0.5c0.1-0.2,0-0.4-0.1-0.6
		c0.7-0.4-0.2-1.2,0.3-1.7c0.6,0.6,0.9-0.3,1.3-0.6c0.2-0.9-0.7-0.8-0.8-1.6c0.9-0.9-0.2-2,0.3-3c0.3-0.5,1-0.7,1.3-1.3
		c0-0.7-0.7-0.5-0.9-1c-0.1-0.5,0.7-0.4,0.8-0.8c-0.1-0.9-0.8,0.4-1.1-0.5c0.1-0.6,0.4,0.1,0.7-0.3c0.1-0.5-0.2-1.1-0.4-1.6
		c0.6,0.3,0.6-0.7,0.9-0.7c-1.2-1.1,0.9-1.6,0.9-2c-0.1-0.6-0.6-0.9-1-0.7c-0.2-0.2,0.1-0.2,0-0.4c0.2-0.1,0.7-0.3,0.8,0
		c1.8,0-1-0.7,0.6-1.1c-0.2-0.4,0-1-0.4-1.3C97.1,33.8,97.6,33.7,97.8,33.3z M41.2,47.8c-0.3,0.3-1.2,0.3-0.9,1.1
		c-0.4-0.2-0.5,0.4-0.4,0.7c0.1,0.4,0.5,0.5,0.7,0.3c-0.2,0.6-1.2,0-1.7,0.1c0.1-0.1,0-0.3-0.1-0.4c-0.2-0.1-0.5,0.1-0.4,0.3
		c-0.2,0.8-0.4,1.7-1.3,2c-0.2,0.1-0.8-0.3-0.8,0.3c0.3,0.6-0.7-0.1-0.7,0.5c0.7,0.8-1,1.1,0.2,1.7c0.3-0.2,0.3-0.5,0.6-0.6
		c0.1,0.4-0.7,0.5-0.6,1.1c-0.6,0-1.2,0-1.8,0.1c0.7,1.1-2-0.1-0.7,1.2c0.4,0,0.4,0,0.8,0c-0.2,0.6-1.5,0.1-1.4,1.2
		c0.2,0.3,0.7,0.6,0.9,0.1c-0.4,0.8,0.1,2.2-1.4,2.1c-0.3,0.1-0.6-0.2-1,0.2c0.1,0.6-0.5,0.7-0.7,1c-0.4,0.7-1.7-0.6-1.4,0.6
		c-0.3-0.2-0.8,0.2-1,0.2c0,0.1-0.2-1.2,0.4-0.3c0.5-0.5,1.1-0.7,0.8-1.4c0.9,0.2,0.6-0.8,0.8-1.3c-0.4-0.3,0.3-0.4,0.5-0.5
		c0.8-1.2-0.4-2.7,0.1-4.1c0.2-0.4-0.6-1.1,0.1-1.4c-0.4-0.3,0.2-0.6,0.1-0.9c-0.2-0.5-0.7-0.9-0.1-1.3c-0.8-1,1.1-0.9-0.1-1.7
		c-0.3-0.1-0.5,0.2-0.7,0.5c-0.1,0.1,0.1,0.4,0,0.2c-0.1-0.2,0.2-0.7,0.3-1c0.1-0.5,0-1.2-0.3-1.5c0.2-0.4,1.1,0,1.5-0.4
		c-0.1-0.6-0.7-0.3-1.1-0.4c-0.3,0.2-0.3,0.1-0.5-0.1c0.1-0.6,0.8-0.8,0.7-1.4c0-0.3-1-0.6,0-0.5c0.2-0.1,0.1-0.3,0.2-0.5
		c-0.1-0.1-0.1-0.4-0.3-0.4c-0.6,0.4,0,0,0-0.1c0.1-0.3-0.2-0.6-0.5-0.6c-0.5-0.1-1.6,0.3-1.4-0.7c-0.1-0.3-0.3-1-0.5-1.4
		c0.1-0.3-0.1-0.6,0.2-0.7c0.8,0.4,0.7,1.7,2,1.5c-0.1,0.2-0.1,0.6,0,0.8c0.1,0.6,2.1,0,1.1,0.8c0.3,0.5,0.9,1.3,1.6,0.9
		c0.5,0,1.1-0.4,1,0.5c0.7,0.6,0.8,2.5,2.4,1.7c0-0.6,0.6-0.2,0.6-0.7c0.7,0.3,1.2,1.7,2.2,1.4c0.6-0.3,0.9-1.8,1.7-1.1
		C42.1,46.7,40.1,46.6,41.2,47.8z M58.9,42.7c-0.2,0-0.3,0.1-0.4,0.2c-0.2-0.3-0.3-0.5-0.5-0.6c-0.2,0-0.3,0-0.5-0.1
		c-0.7,0-1.5,0.6-1.8-0.6c-0.7-0.4-1.1-0.6-1.8-0.2c0,0.6-1.6,0.7-0.8,1.5c0,0.6-0.4-0.4-0.7-0.1c-0.1-0.9-0.7-0.1-1.2-0.4
		c-0.7-0.2-1.3-0.6-2.1,0c-0.9-0.5-1.4,0.4-2,0.6c-0.2,0.4-0.5,1.1,0,1.6c-0.4,0.5-1.1,0.1-1.6,0.5c0.3-0.9,0.3-1.9,1.3-2.2
		c0.5-0.3,1.5-0.1,1.1-0.9c0.7-0.1,0.5-1,1.1-0.9c-0.2-1.7,1.9-1.6,1.6-3.2c-0.1-0.5,0.5-0.2,0.6-0.6c-0.2-0.4-0.7-1.3,0.1-1.5
		c0.1-0.6-1.2-1.2-0.3-1.4c0-0.5,0.1-1.1,0.4-1.5c0.4,0.4,0.7,0.8,0.6,1.3c-1.1,0.8,0.2,1.7,0.2,2.5c0.3,0.4,0.7,0.9,1.1,1.1
		c0.1,0.8,0,1.7,0.7,2c0,0.5,0.3,1,0.4,1.5c0.8,0.7,2.1-0.5,2.6,1c0.1,0.1,0.2,0.2,0.3,0.2c0.2,0,0.3,0,0.5,0.1
		c0.5,0,1.1-0.2,1.6,0.3C59.7,42.9,59.1,43.2,58.9,42.7z M74.9,62.8c-0.3-0.3-0.9,0.7-0.8-0.3c0.1-0.2,0.4-0.3,0.4-0.6
		c-1.2-0.9-3.8-0.1-3.8-2.3c-0.7-0.6-0.8-1.4-1.2-2.1c-0.6-0.3-1.3-0.1-1.9-0.3c-0.1,0.3-0.6,0.1-0.7,0c0.2-0.9-0.5-1.7-0.2-2.4
		c-0.3-1-1.4-0.8-1.9-1.6c0.1,0,0.9,0.5,0.8-0.2c-0.4-1.5-2.3-0.9-2.2-2.6c-0.5-0.5-1.2-0.5-1.5-1.1c-0.5-0.5,0.5-1.3-0.5-1.6
		c0.2-0.9-0.7-1.4,0.2-2.1c0.2-0.4-0.3-0.4-0.5-0.5c-0.5,0.1-0.3,0.9-0.8,0.2c0.6-0.2,0.3-0.9,0.2-1.3c-0.1-0.2-0.3-0.1-0.4-0.2
		c-0.5,0.3-0.1-0.1,0-0.1c0.4,0.4,0.8,0,1.4,0.2c0.8-0.3,0.3-0.9,0.5-1.5c0.2-0.1,1.3,1.5,1.8,0.6c0.7,0.2,0.5-0.4,1-0.5
		c-0.1-1.2,0.9,0.1,1.4-0.1c0.8,0,0.8-0.7,1-1.2c-0.9-0.9,0.3-0.6,0.8-0.6c0,0,0,0,0,0c0,0,0,0,0,0c0,0,0.7,0.6,0.9,0.2
		c0-0.1,0-0.1,0-0.2c-0.4-0.6,0.7-0.8,0.7-1.5c0.1,0.3,0.7,0.5,1.1,0.4c0.1,0,0.1-0.1,0.2-0.1c-0.1,0-0.1,0.1-0.2,0.1
		c-0.5,0.3-0.9,1.2-1.4,0.8c-0.3,0.1-0.3,0.2-0.3,0.3c0,0,0,0,0.1,0.1c0,0,0,0.1,0,0.1c0.1,0.2,0.2,0.4-0.1,0.6c0.5,0.5,0.9,0,1-0.4
		c0,0,0-0.1,0-0.2c0,0,0,0.1,0,0.2c0,0.2,0.5,0.2,0.6,0.5c-0.2,0.2-0.3,0.7-0.2,1c0.2,0,0,0.1,0.1,0.2c-0.7,0.2-1.5-0.5-1.8,0.3
		c-0.2,0-0.5,0.2-0.5,0.5c0.3,0.7,1.6,0.9,0.8,1.6c0.1-0.3-0.3-0.6-0.5-0.6c-0.8,0.3-0.4,0.9-0.9,1.6c0.8,0.3,0.2,0.7,0,1.1
		c0,0.2,0,0.3,0,0.3c0-0.1,0-0.2,0-0.3c0-0.2-0.1-0.4-0.2-0.6c-0.4-0.2-0.6,0.3-0.9,0.5c0.2,0.4-0.2,1.1,0.4,1.4
		c0.2,0.1,0.5,0.1,0.6-0.1c0-0.1,0.1-0.2,0.1-0.2c0,0.1,0,0.2-0.1,0.2c-0.1,0.4-0.5,1.3,0.4,1.6c0.3,0.1,0.6-0.4,0.6,0.1
		c-0.5,0-1.2,0.1-1.5,0.5c-0.1,0.5,0.4,1,0.8,1.2c0.5,0-0.3,0.4,0.1,0.7c0.7,0.3,0.3,1.4,0.8,1.8c0.3-0.3,0.1,0.4,0.2,0.7
		c0.1,1.2,1.7,0.4,1.2,1.7c0.2,1.4,1.3,1.3,2.3,2.1c0.7-0.6,1.1,0.4,1.6,0.7c-0.6,0.5,0.1,1,0.3,1.4c0.3,0.3,1,0.2,0.7,0.8
		C74.3,62.4,75.9,62.2,74.9,62.8z"/>
</g>
</svg>
