<?xml version="1.0" encoding="utf-8"?>
<!-- Generator: Adobe Illustrator 18.1.1, SVG Export Plug-In . SVG Version: 6.00 Build 0)  -->
<!DOCTYPE svg PUBLIC "-//W3C//DTD SVG 1.1//EN" "http://www.w3.org/Graphics/SVG/1.1/DTD/svg11.dtd">
<svg version="1.1" xmlns="http://www.w3.org/2000/svg" xmlns:xlink="http://www.w3.org/1999/xlink" x="0px" y="0px"
	 viewBox="0 0 100 100" enable-background="new 0 0 100 100" xml:space="preserve">

	 
<g id="AREA_2">
	<path fill="#FFFFFF" d="M59.8,5.2c0.6,0.4,1.3,0.6,1.9,1c0-0.3-0.5-0.8-0.7-1.1L61,5c3.1,0.2,5.1,2.8,7.7,4.3
		c2.7,2.5,2.6,6.2,3.6,9.5c0.9,2.3,2.8,4.3,3.3,6.8c1.1,1.2,4.1,1.6,3,4c0.1,0.2-0.1,0.6,0,0.9c1.8,3,5.6,3,6.9,6.2
		c0.8,1.8,1.3,4,0.8,6.2c0,0.6,0,1.3-0.1,2c0.2,1.5,1.6,3.1,0.5,4.7c-1.2,1.9-3.3,3.3-4.9,4.6c0,3.1,0.4,6.6,0.4,9.5L82,63.7
		c-0.7-0.7-1.3-1.6-2-2.2c-0.6,3.7,0,7.8,0.7,11.3L80.5,73c-0.8-0.7-2-1.7-2.6-2.7l-0.1,0.1c-0.2,4.3-2.5,11.8-3.4,13.2l-0.3,0
		c0.8-1.7,1.3-3.8,0.3-5.7c-1.6,1.7-0.4,4.3-1.1,6.2c-1.4,1.8-1.5,4.1-1.1,6.4L72,90.6c-0.4-0.5-0.7-1.1-1.1-1.6
		c-0.7,1.6-1.2,3.4-1.8,5c-0.6,0.7-1.4,1.4-2.3,1.8l-0.1-0.3c0.6-1.8,2.5-3.5,1.6-5.5C67.7,89.3,67.1,88,66,88
		c-0.9,0.5-1.5,1.7-2.6,1.8c-1,0.1-2,0.3-3,0.1c0-0.1,0-0.2,0-0.2c-1.3,2.1-2.2,5.1-5,6c-2.3,0.7-4.5,1.8-6.7,2.4l-0.1-0.2
		c2.7-2.6,4.6-8.9,4.6-8.9c-0.1-0.5,0.2-0.4-1.4-1.8c-1.6-1-4.1-0.8-4.7-3.2c-0.2-0.4-0.1-1-0.6-1.2c-1,0-1.9,0.5-2.7,1
		c-2.1,1.9-4.3,4-6.5,5.7c-1.1,1.1-1.6,2.8-2.3,4.1l-0.3,0.1c-3-1.9-3.5-5.2-5.6-7.6c-1.3-1.8-1.5-4.1-1.4-6.4l-0.1-0.1
		c-1,1.1-1.7,2.4-2.5,3.6l-0.1-0.1c-0.1-0.3,0.1-0.8-0.1-1.2c-0.6-3-1-6.5-0.3-9.6c-0.4,0-0.7,0.5-1.1,0.7c-2.3,0.9-4.5,2.1-6.7,3.2
		l-0.1-0.1c3-2.3,4-5.7,5.4-8.7c-0.6,0.1-1.3,0.6-1.9,0.9c-1,0.7-1.5,1.7-2.3,2.6l-0.2-0.1c-0.1-2.9,2.1-5,2.4-7.8l1-4.1l-0.1-0.1
		c-0.9,0.3-1.5,1.3-1.9,2.2l-0.2,0c-0.1-4.9,0.6-9.7,3.8-13.4c-0.5-0.5-1.2-0.8-2-0.6c-1.7,1-4.1,0.5-5.5,2.3L14.7,49
		c0.4-2.4,3-4.4,3-7.1c0.2-1.7,0.7-3.4,1.6-4.7c-1.9,1.7-4.4,2.6-6.2,4.8L13,41.9c0.5-0.7,1.6-2,1.9-2.8c0.6-4.2,3.9-7.4,6.9-10.6
		c-1.1,0.2-2.1,0.9-3.2,1.4c-1,0.7-2.1,1.1-3.2,1.5c-0.7-3.2,2.5-5,3.5-7.6c1.9-2,3.9-4,6.1-5.4c1.3-0.7,2.8-0.8,4-1.5
		c-1.1-0.7-2.7-0.2-3.9-0.4l-3.1-0.2l0-0.2c2.1-1.9,4.5-3.9,7.6-3.7h2.2c-1.5-1.3-3.6-2.9-5.2-4.3l0.2-0.2c1.3,0.3,2.9,0.6,4.5,0.4
		c3-1,6.4-1.2,9.8-1.1c-1.4-0.8-3.1-1.6-4.5-2.4l0-0.2c4.5,1.1,8.5-1.4,13.1-0.3c0.5,0.1,1,0.2,1.5,0.3c0-0.4-0.6-0.9-0.9-1.3
		l0.1-0.1C53,5.2,57.1,3.6,59.8,5.2L59.8,5.2z"/>
</g>
<g id="AREA_1">
	<g>
		<path d="M86.2,44.8c0.1-0.7,0.1-1.4,0.1-2c0.5-2.2,0-4.3-0.8-6.2c-1.2-3.2-5-3.2-6.9-6.2c-0.1-0.3,0.1-0.6,0-0.9
			c1.1-2.4-2-2.8-3-4c-0.5-2.5-2.4-4.5-3.3-6.8c-1-3.3-0.9-7-3.6-9.5C66.1,7.8,64.1,5.1,61,5L61,5.1c0.3,0.4,0.7,0.8,0.7,1.1
			c-0.6-0.4-1.3-0.6-1.9-1c-2.7-1.6-6.8,0-9.2-2.1l-0.1,0.1c0.2,0.4,0.9,0.9,0.9,1.3c-0.5-0.1-1-0.1-1.5-0.3
			c-4.5-1-8.6,1.5-13.1,0.3l0,0.2c1.4,0.8,3.2,1.5,4.5,2.4c-3.5,0-6.8,0.1-9.8,1.1c-1.6,0.2-3.2-0.1-4.5-0.4l-0.2,0.2
			c1.6,1.4,3.7,3,5.2,4.3h-2.2c-3.1-0.2-5.5,1.8-7.6,3.7l0,0.2l3.1,0.2c1.3,0.2,2.8-0.3,3.9,0.4c-1.3,0.7-2.8,0.8-4,1.5
			c-2.2,1.4-4.3,3.4-6.1,5.4c-1,2.6-4.2,4.3-3.5,7.6c1.1-0.4,2.2-0.8,3.2-1.5c1-0.5,2.1-1.2,3.2-1.4c-3,3.2-6.2,6.4-6.9,10.6
			c-0.3,0.8-1.4,2-1.9,2.8l0.1,0.1c1.8-2.2,4.3-3.1,6.2-4.8c-0.9,1.3-1.4,3-1.6,4.7c0,2.7-2.6,4.6-3,7.1l0.2,0.3
			c1.4-1.7,3.8-1.2,5.5-2.3c0.7-0.2,1.5,0.1,2,0.6c-3.1,3.7-3.9,8.5-3.8,13.4l0.2,0c0.4-0.9,1-1.9,1.9-2.2l0.1,0.1l-1,4.1
			c-0.2,2.8-2.5,4.9-2.4,7.8l0.2,0.1c0.8-0.9,1.3-1.9,2.3-2.6c0.6-0.3,1.3-0.8,1.9-0.9c-1.4,3-2.4,6.5-5.4,8.7l0.1,0.1
			c2.2-1.1,4.4-2.2,6.7-3.2c0.4-0.2,0.7-0.6,1.1-0.7c-0.7,3.1-0.3,6.6,0.3,9.6c0.1,0.4,0,0.8,0.1,1.2l0.1,0.1
			c0.8-1.2,1.5-2.5,2.5-3.6l0.1,0.1c-0.2,2.2,0.1,4.6,1.4,6.4c2.1,2.5,2.7,5.7,5.6,7.6l0.3-0.1c0.6-1.3,1.1-3,2.3-4.1
			c2.2-1.7,4.4-3.8,6.5-5.7c0.8-0.5,1.7-1,2.7-1c0.5,0.2,0.4,0.8,0.6,1.2c0.6,2.3,3.1,2.1,4.7,3.2c1.7,1.3,1.4,1.3,1.4,1.8
			c0,0-1.9,6.4-4.6,8.9l0.1,0.2c2.3-0.6,4.5-1.6,6.7-2.4c2.8-0.8,3.7-3.9,5-6c0.1,0,0,0.1,0,0.2c1,0.1,2.1,0,3-0.1
			c1.1-0.1,1.7-1.3,2.6-1.8c1.1,0,1.7,1.3,2.3,2.1c0.8,2-1,3.7-1.6,5.5l0.1,0.3c0.8-0.4,1.6-1.2,2.3-1.8c0.6-1.7,1.1-3.4,1.8-5
			c0.4,0.5,0.7,1.1,1.1,1.6l0.1-0.1c-0.3-2.2-0.3-4.5,1.1-6.4c0.7-1.9-0.5-4.5,1.1-6.2c1,1.8,0.5,3.9-0.3,5.7l0.3,0
			c0.9-1.4,3.2-8.9,3.4-13.2l0.1-0.1c0.6,1,1.7,2,2.6,2.7l0.2-0.2c-0.7-3.5-1.3-7.6-0.7-11.3c0.7,0.6,1.3,1.5,2,2.2l0.2-0.1
			c0-2.9-0.4-6.4-0.4-9.5c1.6-1.3,3.6-2.6,4.9-4.6C87.8,47.9,86.4,46.3,86.2,44.8z M82.6,50.8c-1,2.3-2.8,4.6-5.1,5.9v-0.3
			c0.8-1.8,1.4-3.7,2.3-5.6l2.9-0.3V50.8z M85.5,49.5c-0.6,1-1.7,2-2.7,2.7c0.5-0.8,0.9-1.7,1.4-2.5c-5.7,0-11.5-0.1-16.9-0.9
			c-4.7-0.3-9.4,0.6-12,4.8c-3.6,6.3-2,15.4,2.3,20.9c1.4,1.9,3.3,3.6,5.7,3.5c1.5-0.1,2.9-0.8,3.9-2c0.6-1.4,1-2.8,2.2-4
			c1-1.4,0.7-3.4,1.2-4.9c-0.2,0.1-0.3,0.3-0.5,0.4l-0.2-0.8c-1.6,1.7-3.2,3.5-4.8,5.3c1.4-5.9,2.9-12.1,4.6-18.1
			c0.6-0.5,1.2-1.3,1.9-1.4h0.2c0,1.3-0.5,2.5-1,3.6c-0.6,1.3-1,2.6-1.6,3.9h0.3c3.5-1.9,5.2-5.5,6.8-8.6l2.5-0.5l-2.9,7.2
			c0.1,0.2,0.3,0,0.5,0v0.1c0.2,0.1,0.4-0.3,0.7-0.3c1.5-0.1,2.8-1.5,3.8-2.5c0,1.7-0.2,3.3,0,4.9c-0.6-0.5-1.1-1.1-1.7-1.6
			c-0.1,3.4,0,7.3-0.4,10.8c-0.6-1.5-1.2-3.1-2.3-4.4c0.1,3.5,0.6,7.5-0.1,10.9l-0.8,1.5c-0.2-1.9-0.8-3.6-2.3-4.9
			c-0.3-0.3,0.4-0.7-0.2-0.8c-0.1,0-0.3,0-0.3,0.2c-0.1,0.2,0.2,0.2,0.2,0.4c-0.3,1.9,0.5,4.1-0.6,5.7c-0.5-1-0.9-2.1-2-2.8
			c0.1,0.7,0.5,1.5,0.8,2.2c0,0.5,0.4,0.9,0.4,1.4c0.2,0.7,0.2,1.6,0.2,2.3c-0.4,2.3-1.7,4.1-2.6,6.2c-0.3,0-0.3-0.4-0.5-0.6
			c-0.7-1.1-2.2-1-3.2-0.8c-0.6,0.1-1,0.8-1.4,1.2c-0.1-1.4,0.1-2.4,0-3.9l-0.2,0.2c-0.6,1.7-0.7,3.5-1.5,5.1
			c-0.3,0.4-0.9,0.1-1.3,0c0.2-1,0.5-2,0.6-3c-0.2-0.1-0.4,0.1-0.6,0.2c-1.2,3.9-3.5,8.2-7.8,9.5c1.4-2.4,2.2-5.6,1.2-8.5
			c-0.4-2-0.5-4-0.3-5.8l-0.1-0.1c-0.9,1.2-1.2,2.7-1,4.3c-1.4-0.4-3.3-1.1-3.5-2.9c-0.2-2.5,0.3-4.3,0.5-6.8
			c0.4-1.9,1.3-3.5,1.8-5.4c-0.2-0.2-0.5-0.1-0.8-0.1c-1.1,0.7-1.1,2.2-1.3,3.3c-0.3,2.1-1.4,4.1-0.8,6.5c0.1,0.5,0.1,1.1-0.2,1.5
			c-0.7,0.1-1.2-0.3-1.6-0.8c-0.4-1.3,0.1-2.7,0-4c-0.4-1.9,0.7-4.4-0.9-5.8c-0.1,2.2,0.5,4.2,0.2,6.5c-0.1,1.8-0.5,3.9,0.1,5.5
			c-1.3-0.2-2.5-0.7-3.8,0c-2.6,1.5-5.1,3.2-7.5,5.2c-0.4-0.9-0.8-1.9-1.1-3c0.1-3.7-0.3-7.8,0.4-11.6c0.7-2.6,1.6-5,2-7.8
			c-0.8-3.4-1.2-7.9,0.5-11.1c1.4-3.9,5.1-7.6,3-12.1c-1.4,3.6-2.1,7.4-4.7,10.4c-2,3.9-0.7,8.9,1,12.6c-0.3,0-0.7-0.1-1-0.2
			c-0.6,1.9,0.2,4.4-1,6.1c-2.3,3.3-1.5,8.1-1.8,11.8c-0.3,1.6,0.2,3.2,0.9,4.5c-3.9-2.7-3-7.5-4-11.3c-0.1-1.3,0.9-2.1,1.5-3.2
			c0.2-0.6,0.6-1.2,0.6-1.8c-2,1.1-2.7,3.4-4.5,4.8l-0.1-0.1c-0.6-2.5,0.4-4.8,0.3-7.3c0.4-2.3,2-4.1,2.7-6.4h-0.2
			c-1.8,1.6-3.3,3.4-3.8,5.6c-0.7,0.8-1.5,1.6-2.3,2.3c0.7-1.7,0.6-4.3,2-6c0.4-0.7,0.3-1.5,0.4-2.2l-0.1-0.1
			c-1.1,1.1-2.3,2.1-3.5,3c1-1.5,1.1-3.5,1.1-5.4c0.1-1.5,0.2-2.9,0.5-4.3l-0.1-0.1c-0.7,0.3-1.4,0.6-2.1,0.8c0.8-1.7,1-3.7,1.8-5.4
			l2.5-3.3C24,45.7,22,45,20,44.6c0.4-0.3,0.8-0.8,1-1.3c0.2-0.5,0.6-1.1,0.5-1.7c-0.8,0.8-1.3,1.9-2.3,2.3c-0.3-0.6,0-1.2,0-1.8
			c0.6-2.7,1.8-5.1,3-7.5c-1.4,0.1-2.9,0.5-4.1,1.3c1.3-1.6,1.9-3.5,3.6-4.8c1.7-1.2,3.7-2.9,4-4.9l-0.1-0.1
			c-2.6,0.3-4.8,0.8-7.2,1.4v-0.2c2.9-3.5,5.9-6.9,9.8-8.8c1.1-0.6,2.3-1.4,3.3-2.3c-0.3-0.1-0.7,0.2-1,0.3
			c-1.2-0.3-2.5-0.6-3.8-0.9c0.2-0.4,0.7-0.8,1.1-1.1c1.8-1.2,4.3-0.6,6.6-0.8l0.1-0.1c-1.2-1.3-2.3-2.7-3.3-4c1.2,0.1,2,0.1,3.3,0
			C36.2,9.5,38.1,9,39.8,9c2.7-0.3,5.6,0.5,8,1.2c0.1,0,0-0.1,0-0.2c-1.7-1-3.4-2.3-4.8-4c2.2-0.7,4.3-1.4,6.6-0.3
			c1.7,0.7,3.5,1.4,5.3,2.1c0.3,0.1,0.5,0.3,0.8,0.3c-0.2-0.7-0.7-1.4-1.1-2c4.3-0.4,7.8,3,9.5,6.4C64.2,11,64.2,9.3,64,7.7
			c3.1,2.6,5.4,5.7,5.7,9.5c1.1,2,2.5,3.9,2.9,6.1c0.7,2.9,5.4,4.3,4.2,7.5h-1.1c0.5-0.3,0-1,0-1.5c-0.3-0.8-0.4-1.6-1.2-2.1
			c-1.2-0.2-2.5,0.7-3.5-0.4c-2.5-2.2-3.2-7.1-7.4-6.8c-1,0-2-0.1-2.9,0.1l0.2,0.2c1.3,0.5,2.9,0.4,4.2,1.2
			c-0.2,0.8-1.2,0.8-1.5,1.6c0.7,0.4,1.2,0,2,0c0.7,0.1,1.9,0.1,2.2,1.2c0.4,2.5,3,3.9,5.1,4.6c0.5,0.9,0,1.8-0.2,2.7
			c0.9,0,1.7-0.5,2.6-0.6c2.7,1.5,5.3,3.1,7.9,4.9c0.7,0.7,1.1,1.6,1.4,2.5c-0.5,0.6-1.1,1.2-2,0.9c-0.1,0-0.3-0.2-0.2-0.4l0.5-0.6
			c-1.4,0.1-2.4,1.5-3.9,1.4c-0.9-0.5-1.9-1-2.9-0.8c1.5,1,1,3.1,2.6,4c1.1,0.6,3,0.5,3.4,2.2c0,1.3-0.6,2.6-1.8,3.2
			c-0.9,0.4-1.9,0.7-2.8,1.1c2.1-0.2,4.6-0.6,5.9-2.7c0-0.6,0.4-1,0.4-1.6c0.3-0.1,1.1-0.2,1.5,0C86,46.4,85.9,48.2,85.5,49.5z
			 M75.6,51.1c-1.1,2.4-2.4,4.5-4.3,6.4c1-2.2,1.5-4.6,1.4-6.9C73.6,50.8,74.6,50.8,75.6,51.1z M63.3,66.7l-4.6,5.5
			c-1.2-1.7-2.3-3.5-3.1-5.4c-1.8-4-0.3-8.6,0.9-12.4H57c1.2,0.4,2.4,0.9,3.7,1.3c0-0.8-0.2-1.7-0.2-2.6c2,0.1,4.2,0.1,5.2,2.2
			c1.7,4.7,0.2,10.1-1.2,14.5C64,68.8,63.8,67.7,63.3,66.7z M69.7,68.4c-0.1,2.4-1.4,4.4-3.3,5.9c-0.8,0.2-1.6-0.3-2.1-1L69.7,68.4z
			 M61.9,74.2c-0.5,0.1-1.1,0.4-1.7,0.2c-0.5-0.3-0.8-0.9-1.2-1.4l4.3-5.5l0.1,0.2C63.9,70.2,63.2,72.4,61.9,74.2z"/>
		<g>
			<path d="M42.8,57.1c-2,2.7-3.9,5.7-4.5,9.1c-0.7,2.2-1.1,5.2,0.4,7.2c0.8-0.8,1.6-1.5,1.6-2.6c-0.1-1.8-1-3.5-0.1-5.2
				c1.4-2.2,2-4.7,3.2-6.9c0.4-0.6,1.1-0.8,1.7-1c-1.9,4.2-5.7,8.1-4.1,13.3c0.6,2.5,0.4,5.4,2.9,6.9c0.2-1.5,0.3-3,0.6-4.5
				c1.1,2,0.6,4.9,1.1,7.1c0,0.2,0.2,0.5,0,0.7c-3.1-1.4-3.9-4.8-5.4-7.3c-0.1-0.3-0.4-0.2-0.6-0.1c-1,1.5-1.3,3.5-1,5.4
				c-1.5-3.4-0.9-7.7-1.5-11.6c0.2-5.1,4-8.7,5.7-13.2c0.2-0.9,0.3-1.7,0.5-2.6C43.7,53.5,43.6,55.4,42.8,57.1L42.8,57.1z"/>
			<path d="M50.7,63.6c-0.3,0.6-0.9,0.9-1.4,1.2c0.7-1,1.1-2.3,0.8-3.6c-0.4,0.8-1.3,1.2-2,1.9c1.1-2,3-3.8,2.3-6.4
				C51.1,58.7,51.4,61.4,50.7,63.6L50.7,63.6z"/>
			<path d="M69.6,46.6c-6.6,2-13.1,4-19.6,6.1c0.3,0.7,0.2,1.5,0,2.2c-2.4,5.5-6.2,10.4-5.4,17.2V73c-2.1-2.9,0.1-6.3,0-9.5
				c0.8-3.9,4.6-6.4,4.8-10.6c-0.5-0.1-1.1,0.4-1.6,0.3v-0.1l1.5-0.5v-1.5c0.2,0.4,0.4,0.9,0.6,1.3l6.2-1.9l12.9-4
				C69.3,46.5,69.6,46.1,69.6,46.6L69.6,46.6z"/>
			<path d="M68.6,39.4c-3,0.6-6,1.4-8.8,2.3c4.1-0.1,7.8-0.1,12.1-0.4v0.2c-2.8,0.4-6.4-0.4-8.8,1.2c-4.1,0.7-8.2,1.3-11.2,4.9
				c-0.1,0.3-0.4,0.4-0.6,0.7c1.9-0.3,4-0.8,5.9-1.2c4.1-2.6,8.5-4.2,13.3-5c-2.9,1.3-5.9,2.5-8.7,3.8c0.8-0.1,1.7-0.3,2.6-0.5
				c3.4-0.8,6.7-1.5,10-2.3c0.1,0,0,0.1,0.1,0.2l-15.3,3.5c-1.4,0.5-2.9,1.1-4.3,1.6c0.2-0.3,0.9-0.5,1.2-0.8
				c-1.7,0.2-3.5,0.7-5.3,1.1c-1.5,1.8-3.6,3.4-4.4,5.5c-0.6,0.9-1.4,1.7-2.2,2.6c0.8-2.5,3.1-4.5,2.8-7.4c-0.1-0.2-0.4-0.2-0.5-0.1
				c-0.3,0.1-0.5,0.4-0.8,0.5c1.1-2.4,2.3-4.8,1.8-7.8c-0.1-0.2,0-0.5,0-0.7c0.8,0.3,1.5,1,1.6,1.9c0.2,2-0.6,3.7-0.8,5.6
				c-0.1,1.1-0.5,2-0.7,3l0.1,0c2.5-4.1,6.7-8,11.3-9c1.4-0.4,2.9-0.6,4.2-0.9V42c-1.7,0-3.4,0-5.1,0.2c-2,0.6-4,1.2-6.1,1.6
				c1.1-0.5,2.4-1,3.6-1.5c-2-0.1-4,0.3-6,0.1v-0.1c2.3-0.3,5-0.1,7.3-0.4C60.8,40.3,64.2,39.8,68.6,39.4L68.6,39.4z"/>
			<path d="M46.9,43.2c-0.2,2.3-0.4,4.9-2.8,6.1c-0.3,0.2-0.6,0.4-0.9,0.7v-0.4c1.1-3,2.6-6,2-9.6l-0.5-3
				C46.6,38.6,47.7,40.8,46.9,43.2L46.9,43.2z"/>
			<path d="M61.9,34.8l1.7-0.3c-0.9,0.6-1.8,1.5-3.1,1.1c-1.2-0.5-1.9-1.8-2.1-2.9C59.5,33.6,60.5,34.8,61.9,34.8L61.9,34.8z"/>
			<path d="M75.9,34.1c0.6,0.6,1.7,0.1,2.4,0.6c0,0.6-1.5,1.2-0.5,1.6c1.1,0.2,2.4,0.1,3.5,0.8c-0.4,0.8-1.4,0.8-2.1,1.2
				c-1.8-0.7-3.3-1.8-4.7-3.2c-0.5-0.5-1.3-0.4-2-0.3l-3.6,1.1c-1.3,0.7-2.5,1.5-3.7,2.2c0.3,0.2,0.7,0.1,1,0.2
				c2.6,0.5,5.4,0.8,8,1.4v0.1c-3.2-0.3-6.3-1-9.5-1.5c-0.6,0.2-1.1,0.6-1.6,0.8l0.9-0.9c-0.9-0.1-1.9-0.4-2.9-0.5
				c-1.9,1.3-4-0.2-6.1,0.3c-1,0.3-2,0.8-3,1c1.2-0.9,2.5-1.9,4.1-2.1v-0.1c-2.3-0.4-4.8-0.7-7.1-1.2v-0.1h0.5l11.8,1.9
				c0.5,0,0.9-0.4,1.4-0.4L62,37.5l0.1,0.1l2.3,0.3c3.2-3.3,7.7-3.1,11.5-5C76,33.3,75.7,33.7,75.9,34.1L75.9,34.1z"/>
			<path d="M43.4,32.6c0.4,0.9,1.4,1.6,0.9,2.8c-0.6,1.8-2.4,3.1-2.4,5.1c-0.1,0.2-0.1,0.5-0.4,0.6c-0.3,0.1-0.5-0.3-0.7-0.5
				c-0.5-1,0.7-1.6,0.8-2.4c-2.1,3.3-5.8,4.2-8,7c-0.3,0.8-0.8,1.7-0.6,2.6l0.2,1.3c-0.5-0.9-1-1.9-0.7-3.1c1.4-2.5,4.1-4.1,6.1-6.1
				c0.7-0.5,1.5-0.8,2.1-1.5c0.4-1.2,0.8-2.5,1.1-3.8l0,0c-1.6,1.8-3.3,3.3-5.5,3.9c-1.6,0.9-3.2,1.7-4.8,2.6
				c-1.3,0.7-0.6,2.4-1.1,3.6c-0.8,2-1.3,4-2.3,6c-0.4,0.5-1.1,0.8-1.7,1.1c2.5-2.3,3.2-5.6,3.6-8.9c0.3-1.6,2-2.7,3.3-3.5
				c3.7-2.5,8.7-4.4,10.6-8.8C43.6,31,43.2,31.8,43.4,32.6L43.4,32.6z"/>
			<path d="M36.9,33.5c-1.7,0.6-3.5,1.1-5.4,1.2c-1.4,0.4-2.7,1.9-3.4,3c2.6-1.8,5.4-3.1,8.9-2.7c-0.8,0.6-1.8,0.8-2.6,1.3
				c-2.5,1.3-5.3,1.8-7.6,3.7c-1.5,1.5-3.4,2.7-4.9,4.4c2-2.3,1.8-5.7,4.6-7.6c1.3-0.9,2.7-2,4.1-2.6c4.3-0.7,8.6-1.7,11.9-4.9
				l0.9-0.8C42.8,31.2,39.5,32.8,36.9,33.5L36.9,33.5z"/>
			<path d="M61.2,26.4c0.3,0.2,0.7,0.3,1.1,0.2c0.5-0.7,0.5-1.6,1.3-2.1c1.5,1.4,4.1,1.7,4.5,4c0.9,1.5,3,0.9,3.8,2.6
				c0.2,0.4,0.4,0.8,0.5,1.2c-1.8,0.1-3.2-0.8-4.8-1.2L66.7,31c0,0.7,0.3,1.4,1,1.8c1.3,0.7,2.7,0.6,4.2,0.8c-1.2,0.1-2.5,0-3.6,0.5
				c-1.4,1-2.7,2.2-4.3,2.7c0.1-0.8,0.4-1.6,1.2-2c0.5-0.1,1.1-0.1,1.4-0.6c0.1-0.3,0-0.6-0.1-0.9c-1.9,0-3.7,1.4-5.5,0.3
				c-0.3-0.2-0.5-0.5-0.6-0.8c0-0.4,0-0.8,0.5-0.9c0.3,0.7,0.9,1.4,1.6,1.7c0.6,0.1,1-0.5,1.2-0.9c-0.3-0.2-0.7-0.1-1.1-0.3
				c-0.5-0.5-0.4-1.3-0.4-2.1c-0.4,0.1-1.1,0.1-1.5,0.3l0,0.5c-0.6,0.2-1.2-0.3-1.9-0.3C57,31,55.3,31,53.8,30.1
				c0.8-0.2,1.8-0.1,2.6-0.5c0.7-0.2,1.4-0.7,2.2-0.8c2.7,0.6,5.9,0,8.6,0.6c0.1-0.8,0-1.9-0.9-2.3C64.4,26,62.8,28,61,27.7
				c-1.3-0.4-2.8-1.2-4.2-0.6c-1.5,0.8-3.2,2.9-5,1.3c-0.3-0.2-0.6-0.4-0.9-0.6c0.2-0.3,0.6-0.4,0.9-0.6c0.9-0.5,0.9-1.5,0.8-2.4
				c1.7-0.2,3.7,0,5.3-0.6C59.5,24.2,59.8,25.8,61.2,26.4L61.2,26.4z"/>
			<path d="M43.1,24.6l2,1c-0.1,0.3-0.4,0.7-0.6,1c-0.4,1.7-2.4,0.3-3.5,0.9c-2.9,1.1-5.8,2-8.5,3.6L26.3,35
				c0.1-0.4,0.5-0.9,0.8-1.4c1.6-1.2,3.5-1.8,5-3.5c2.1-1,4.5-1.5,6.7-2.6c1-0.3,2.1-0.3,3.1-0.9c-1.9-1-4,0-5.8,0.6
				c-2.8,1.6-5.8,2.5-8.8,3.7c3.3-2.8,7.7-3.1,11.1-5.6c1.1-0.5,2.2,0,3.4-0.3c-1.3-1-3.2-0.8-4.7-0.4l-5.4,0.5
				c1.9-1.7,4-0.9,6.1-1.4C39.6,23.7,41.3,24.1,43.1,24.6L43.1,24.6z"/>
			<path d="M46.6,22.1c0,0.9-0.4,2-1.4,2.4c-1.7-1.7-4.3-1-6.4-1.5c-2.5,0.3-5,0.7-7.6,0.6c2.1-1.7,5.2-1,7.8-1.5
				c1.8-0.2,3.7,1.5,5.4,0.1c0-0.5-0.6-0.8-0.9-1c-1.7,0.1-3.7,0.1-4.9-1.1C41.3,20.6,44.4,20.2,46.6,22.1L46.6,22.1z"/>
			<path d="M52.5,11.1c0.4,0.4,0.7,0.9,1.4,0.8c0.5,0,1-0.3,1.6-0.1c1.6,0.9,2,3.4,4.2,3.1c0.2-0.1,0.2-0.4,0.1-0.6
				c-1.4-1.9-3.5-3-5.2-4.7c1.5,0.5,3.1,0.8,4.5,1.7c0.7,0.6,0.9,1.6,1.6,2.1c0.2-0.5,0-1.2,0.4-1.6c0.4-0.1,0.5,0.4,0.7,0.6
				c0.7,1,0.6,2.9,2.2,3.1c0.5-0.1,1-0.1,1.4-0.7c-0.1-1-0.5-1.9-0.6-2.9l2,2.9c-1.4,0.7-2.7,2.2-2.6,3.8c-1.6-1.2-3.1-2.7-5.1-2.6
				c-0.8,0.1-0.9,1.5-1.9,1.1c-1-0.6-1.7-1.8-3-1.6c-0.7,0.3-0.4,1.7-1.4,1.2c-0.3-0.1-0.6-0.6-0.9-0.3c0.1,0.9,0.8,1.9,0.1,2.8
				c-0.3,0.2-0.3,0.4-0.7,0.5c-2.6-2.4-5.5-4.8-9.1-5.2l-3.7-0.4c1-0.5,2-0.8,3.2-0.4c1.1,0.1,2.5,0.1,3.7,0.5
				c1.3,0.8,2.7,1.6,4,2.4c0.2-0.4,0.5-1,0.2-1.5c-1.1-1-1.3-2.8-2.8-3.4c-1.3-0.6-2.7-1.3-4.1-1.7c2.7,0.1,5.2,1.3,7.2,3.5
				c0.8,0.5,2.1,0.8,3.1,0.2c0.3-0.4,0.9-0.5,1.1-0.9l-3.7-3.7c-1.2-0.4-2.5-0.6-3.5-1.2C49.1,8.2,51.7,8.8,52.5,11.1L52.5,11.1z"/>
		</g>
	</g>
</g>
</svg>
