<?xml version="1.0" encoding="utf-8"?>
<!-- Generator: Adobe Illustrator 18.1.1, SVG Export Plug-In . SVG Version: 6.00 Build 0)  -->
<!DOCTYPE svg PUBLIC "-//W3C//DTD SVG 1.1//EN" "http://www.w3.org/Graphics/SVG/1.1/DTD/svg11.dtd">
<svg version="1.1" xmlns="http://www.w3.org/2000/svg" xmlns:xlink="http://www.w3.org/1999/xlink" x="0px" y="0px"
	 viewBox="0 0 100 100" enable-background="new 0 0 100 100" xml:space="preserve">
<g id="AREA_2">
	<g>
		<g>
			<path fill="#95A496" d="M41,3c0.5,0,0.9,0.1,1.4,0.3c2.7,1.3,4.3,4.2,5.4,6.7c2,4.9,1.4,10.3,2.4,15.6c0.3,1.9,0.5,3.9,0.6,5.9
				c-0.1,2.7-0.9,5.8-3.3,7.8c-1.8,1.6-4.2,2.5-6.6,2.5c-1,0-2-0.2-3-0.5c-6.4-2.6-9.7-9.7-9.9-16.2c-0.4-7.8,3.3-14.8,9-20.3
				C38.1,4,39.5,3,41,3 M41,1.7L41,1.7c-2,0-3.7,1.2-4.8,2l-0.1,0.1l-0.1,0.1c-6.5,6.3-9.7,13.7-9.4,21.3c0.3,9.8,6,15.5,10.7,17.4
				l0,0l0,0c1.1,0.4,2.2,0.6,3.4,0.6c2.7,0,5.4-1,7.5-2.8c2.9-2.4,3.7-6.1,3.8-8.8l0,0l0,0c-0.1-1.9-0.3-4-0.6-6.1
				c-0.4-2-0.5-4-0.7-5.9c-0.2-3.3-0.5-6.8-1.8-10c-1.3-2.9-3-6-6.1-7.4l0,0l0,0C42.3,1.8,41.7,1.7,41,1.7L41,1.7z"/>
		</g>
		<g>
			<path fill="#95A496" d="M72,5c1,0,2,0.4,2.9,1.3c2.9,3.8,3.3,8.9,3.6,13.7c0.2,6.9,0.1,14.5-5.6,19.2c-2.4,1.7-5.5,3.3-8.5,3.3
				c-1.3,0-2.6-0.3-3.8-1c-3.9-3-5-7.5-6.6-11.6c-1.1-3.8-1.4-8.4,1-11.7c2.9-4.1,7.5-7.6,11.3-10.6C67.7,6.4,69.9,5,72,5 M72,3.6
				L72,3.6c-2.4,0-4.7,1.5-6.4,2.6l-0.2,0.1l-0.1,0l0,0l-0.9,0.7c-3.7,2.9-7.8,6.2-10.6,10.1c-2.3,3.2-2.7,7.7-1.1,12.8l0,0.1l0,0.1
				c0.3,0.7,0.5,1.4,0.8,2.1c1.3,3.6,2.7,7.4,6.3,10.1l0.1,0.1l0.1,0c1.4,0.8,2.9,1.1,4.5,1.1c3.9,0,7.5-2.2,9.3-3.6l0,0l0,0
				c6.5-5.2,6.3-13.9,6.1-20.2l0,0l0,0c-0.3-4.3-0.6-10.1-3.9-14.4l0-0.1l-0.1-0.1C74.7,4.2,73.4,3.6,72,3.6L72,3.6z"/>
		</g>
		<g>
			<path fill="#95A496" d="M19.7,28.6c1.4,0,2.7,0.5,3.5,1.8c2.8,3.9,3.5,8.7,5,13c1.5,4.4,2.9,10.5-0.5,14.5
				c-3.1,3.9-7.7,6.1-12.5,6.1c-0.8,0-1.7-0.1-2.5-0.2c-4.2-0.4-7.4-4.6-8.5-8.4c-0.8-2.3-1.1-5.2-0.9-7.8c0.1-0.2,0.2-0.6,0.1-0.9
				c1.1-7.3,6.8-13.8,13.4-17.3C17.6,28.9,18.7,28.6,19.7,28.6 M19.7,27.3L19.7,27.3c-1.2,0-2.5,0.3-3.6,0.9
				c-7.6,4.1-12.9,11.1-14,18.3l0,0.2l0,0.2c0,0,0,0.1-0.1,0.2c0,0.1,0,0.1,0,0.2l0,0.1l0,0.1c-0.2,2.8,0.2,5.9,1,8.2
				c1.2,4.3,4.9,8.8,9.6,9.3c0.9,0.1,1.8,0.2,2.7,0.2c5.3,0,10.3-2.4,13.5-6.5c3.9-4.5,2.3-11.1,0.8-15.7c-0.5-1.3-0.9-2.6-1.2-3.9
				c-0.9-3.2-1.9-6.5-4-9.4C23.4,28.1,21.7,27.3,19.7,27.3L19.7,27.3z"/>
		</g>
		<g>
			<path fill="#95A496" d="M93.2,30.3c1.2,0.1,2.3,0.6,2.8,1.7c1.7,4.6,1.1,9.8,0.5,14.7c-0.9,5.9-3.2,11.3-5.8,16.5
				c-1.6,2.7-3.6,6.5-7.2,6.8c-2.5-0.4-4.2-2.2-6.1-4c-3.2-3.8-8.3-7-8.5-12.2c-0.2-3.8,1.3-7.6,4.2-10.5c4.4-4.5,9.7-7.8,14.7-11.1
				C89.7,31.4,91.3,30.5,93.2,30.3 M93.2,29L93.2,29c-2.1,0.2-3.8,1-5.4,1.8L87.4,31l-0.1,0l-0.1,0l-0.9,0.6
				c-4.9,3.1-9.9,6.4-14.1,10.7c-3.2,3-4.8,7.1-4.6,11.5c0.2,4.4,3.3,7.5,6.1,10.2c1,1,1.9,1.9,2.7,2.8l0,0l0,0l0.4,0.4
				c1.8,1.8,3.7,3.6,6.4,4l0.1,0l0.1,0c3.9-0.2,6.1-3.9,7.7-6.6c0.2-0.3,0.3-0.6,0.5-0.8l0-0.1l0-0.1c2.5-5.1,4.9-10.6,5.9-16.9l0,0
				l0,0l0-0.3c0.6-5.1,1.2-10.3-0.6-15.1l0,0l0,0C96.6,30,95.1,29.1,93.2,29L93.2,29L93.2,29z"/>
		</g>
		<g>
			<path fill="#95A496" d="M50.3,46.2c1.1,0,2.3,0.1,3.4,0.2c2.4,0.5,4.5,2.2,6.1,4c3.5,4.9,5.5,10.4,8.9,15.4
				c4.6,2.8,9.8,7.1,9.9,12.9c-0.1,6.9-5.9,12.6-11.7,15.7C62.1,96.9,56.5,98,50.8,98c-1.2,0-2.3,0-3.5-0.1
				c-8-0.9-15.9-2.5-22.4-7.4c-4.8-4-8.5-9.7-6.2-16.3c0.5-1.8,1.5-3.4,2.8-4.9c3.6-2.9,7.6-5.1,10.4-9.2c3.7-4,6.6-8.9,11.1-12.1
				C45,46.6,47.7,46.2,50.3,46.2 M50.3,44.9L50.3,44.9c-3.4,0-6.1,0.6-8.1,2c-3.2,2.3-5.6,5.3-7.9,8.2c-1.1,1.4-2.2,2.8-3.4,4.2
				l-0.1,0.1l-0.1,0.1c-1.9,2.7-4.4,4.6-7.1,6.5c-1,0.7-2.1,1.5-3.1,2.3l-0.1,0.1l-0.1,0.1c-1.6,1.9-2.6,3.6-3.1,5.4
				c-2.1,6,0.3,12.3,6.7,17.7l0,0l0,0c6.8,5.2,15.1,6.7,23,7.7c1.2,0.1,2.4,0.1,3.6,0.1c6.2,0,12-1.3,16.8-3.8
				c5.9-3.2,12.3-9.3,12.4-16.9c-0.1-5.1-3.4-9.6-10.3-13.9c-1.5-2.2-2.8-4.7-4-7c-1.4-2.7-2.9-5.5-4.8-8.1l0-0.1l0-0.1
				c-2.3-2.5-4.5-4-6.8-4.4l-0.1,0l-0.1,0C52.5,45,51.4,44.9,50.3,44.9L50.3,44.9z"/>
		</g>
	</g>
</g>
<g id="AREA_1">
	<g>
		<path d="M47.8,10c2,4.9,1.4,10.3,2.4,15.6c0.3,1.9,0.5,3.9,0.6,5.9c-0.1,2.7-0.9,5.8-3.3,7.8c-2.6,2.3-6.4,3.1-9.6,2
			c-6.4-2.6-9.7-9.7-9.9-16.2c-0.4-7.8,3.3-14.8,9-20.3c1.5-1.1,3.4-2.4,5.5-1.5C45.2,4.6,46.7,7.5,47.8,10L47.8,10z"/>
		<path d="M74.8,6.3c2.9,3.8,3.3,8.9,3.6,13.7c0.2,6.9,0.1,14.5-5.6,19.2c-3.4,2.5-8.2,4.6-12.3,2.3c-3.9-3-5-7.5-6.6-11.6
			c-1.1-3.8-1.4-8.4,1-11.7c2.9-4.1,7.5-7.6,11.3-10.6C68.5,5.9,72.1,3.4,74.8,6.3L74.8,6.3z"/>
		<path d="M23.2,30.3c2.8,3.9,3.5,8.7,5,13c1.5,4.4,2.9,10.5-0.5,14.5c-3.6,4.6-9.3,6.7-15,5.9c-4.2-0.4-7.4-4.6-8.5-8.4
			c-0.8-2.3-1.1-5.2-0.9-7.8c0.1-0.2,0.2-0.6,0.1-0.9c1.1-7.3,6.8-13.8,13.4-17.3C18.7,28.3,21.9,28.1,23.2,30.3L23.2,30.3z"/>
		<path d="M96,32c1.7,4.6,1.1,9.8,0.5,14.7c-0.9,5.9-3.2,11.3-5.8,16.5c-1.6,2.7-3.6,6.5-7.2,6.8c-2.5-0.4-4.2-2.2-6.1-4
			c-3.2-3.8-8.3-7-8.5-12.2c-0.2-3.8,1.3-7.6,4.2-10.5c4.4-4.5,9.7-7.8,14.7-11.1c1.7-0.8,3.3-1.7,5.2-1.9
			C94.4,30.4,95.5,30.9,96,32L96,32z"/>
		<path d="M59.8,50.4c3.5,4.9,5.5,10.4,8.9,15.4c4.6,2.8,9.8,7.1,9.9,12.9c-0.1,6.9-5.9,12.6-11.7,15.7c-5.8,3-12.7,4.1-19.7,3.5
			c-8-0.9-15.9-2.5-22.4-7.4c-4.8-4-8.5-9.7-6.2-16.3c0.5-1.8,1.5-3.4,2.8-4.9c3.6-2.9,7.6-5.1,10.4-9.2c3.7-4,6.6-8.9,11.1-12.1
			c3-2,7.1-1.9,10.7-1.6C56.1,46.9,58.2,48.6,59.8,50.4L59.8,50.4z"/>
	</g>
</g>
</svg>
