<?xml version="1.0" encoding="utf-8"?>
<!-- Generator: Adobe Illustrator 18.1.1, SVG Export Plug-In . SVG Version: 6.00 Build 0)  -->
<!DOCTYPE svg PUBLIC "-//W3C//DTD SVG 1.1//EN" "http://www.w3.org/Graphics/SVG/1.1/DTD/svg11.dtd">
<svg version="1.1" xmlns="http://www.w3.org/2000/svg" xmlns:xlink="http://www.w3.org/1999/xlink" x="0px" y="0px"
	 viewBox="0 0 100 100" enable-background="new 0 0 100 100" xml:space="preserve">

<g id="AREA_2">
	<path id="FILL_ONE_1_" fill="#FFFFFF" d="M85.5,37.3l-8.3-7.2c-4.7-3.6-7.3-9.4-13.3-10.4c-7.2-1.1-13.5-4.6-21.2-4.2
		c-1.7,0.2-2.7,0.3-4.4,0.5c-3.3,0.6-6.2,2.3-9.7,2.3c-3.6,0.2-6.7,3.1-8.4,6.2C15,25.5,9.7,27.7,7.1,33c-1,2.5-4.1,3-5,5.4
		c-0.2,0.9,0.2,1.6,0.5,2.4c0.6,2.3,3.1,3.8,3.7,6.1c0.8,2.7,3.8,3.8,5.8,5.4c0.2,0.4,0.2,0.9,0.2,1.3c1.1,3.1,4.3,5.2,7.3,6
		l0.1-0.3c-0.2-0.6-0.5-1.1-0.5-1.7c0.8,0.2,1.5,0.5,2.2,0.7l0.2-0.2c-0.8-1.6-2.1-3.8-2.2-5.8c0.2-0.7,0.1-1.8,1-2.2
		c3-1.7,6.8-1.1,9.5,0.7c-0.5,1.3-0.9,2.7-1.7,3.9c-2.5,4.4-1.8,10.3-5.8,14.1c-0.6-0.9-1-2.1-1.8-3l-0.3,0l-0.8,0.8
		c0,0.3-0.1,0.6-0.3,0.9l-0.1-0.1c-0.3-0.8-0.9-1.2-1.7-1.2c0,0-0.2,0.1-0.3,0.1c-0.3,1.4-0.2,2.9-0.3,4.3L17,70.7
		c-1,0.2-1.7,1.3-2,2.3c1.7,1.1,1.2,3.1,1.5,4.8c0.6,2.2,2.9,3.6,4.9,4.2c1.6,0.5,3-0.5,4.2-1.3c3.6-2.8,8.5-4.3,13.1-3.2
		c3.7,0.9,5.9,4.3,8.1,7.3c2.3,2.6,6,3.5,9.6,2.7c4.2-1.2,8.1-2.9,11.7-5.5c3.9-2.9,3.9-7.9,8.2-10.4c1.6-1,4-0.4,5.4-1.9
		c2.3-2.7,3.1-7.1,7.1-7.9c1.5-0.8,1.6-2.5,2.2-3.9c0.5-1.9,2.5-2.8,4-3.9c1.3-1.2,1.8-2.8,2.2-4.3C93.7,45.5,89.7,41,85.5,37.3z"/>
</g>
<g id="AREA_1">
	<path d="M85.5,37.3l-8.3-7.2c-4.7-3.6-7.3-9.4-13.3-10.4c-7.2-1.1-13.5-4.6-21.2-4.2c-1.7,0.2-2.7,0.3-4.4,0.5
		c-3.3,0.6-6.2,2.3-9.7,2.3c-3.6,0.2-6.7,3.1-8.4,6.2C15,25.5,9.7,27.7,7.1,33c-1,2.5-4.1,3-5,5.4c-0.2,0.9,0.2,1.6,0.5,2.4
		c0.6,2.3,3.1,3.8,3.7,6.1c0.8,2.7,3.8,3.8,5.8,5.4c0.2,0.4,0.2,0.9,0.2,1.3c1.1,3.1,4.3,5.2,7.3,6l0.1-0.3
		c-0.2-0.6-0.5-1.1-0.5-1.7c0.8,0.2,1.5,0.5,2.2,0.7l0.2-0.2c-0.8-1.6-2.1-3.8-2.2-5.8c0.2-0.7,0.1-1.8,1-2.2c3-1.7,6.8-1.1,9.5,0.7
		c-0.5,1.3-0.9,2.7-1.7,3.9c-2.5,4.4-1.8,10.3-5.8,14.1c-0.6-0.9-1-2.1-1.8-3l-0.3,0l-0.8,0.8c0,0.3-0.1,0.6-0.3,0.9l-0.1-0.1
		c-0.3-0.8-0.9-1.2-1.7-1.2c0,0-0.2,0.1-0.3,0.1c-0.3,1.4-0.2,2.9-0.3,4.3L17,70.7c-1,0.2-1.7,1.3-2,2.3c1.7,1.1,1.2,3.1,1.5,4.8
		c0.6,2.2,2.9,3.6,4.9,4.2c1.6,0.5,3-0.5,4.2-1.3c3.6-2.8,8.5-4.3,13.1-3.2c3.7,0.9,5.9,4.3,8.1,7.3c2.3,2.6,6,3.5,9.6,2.7
		c4.2-1.2,8.1-2.9,11.7-5.5c3.9-2.9,3.9-7.9,8.2-10.4c1.6-1,4-0.4,5.4-1.9c2.3-2.7,3.1-7.1,7.1-7.9c1.5-0.8,1.6-2.5,2.2-3.9
		c0.5-1.9,2.5-2.8,4-3.9c1.3-1.2,1.8-2.8,2.2-4.3C93.7,45.5,89.7,41,85.5,37.3z M5.5,42.2c-0.5-0.3-1-1-1.3-1.6
		c-0.1-0.6,0.3-1,0.5-1.5c0.7-0.1,1.3,0,2,0.2c1.1,0.1,2.2,0.5,2.7,1.6C8,41,6.1,40.7,5.5,42.2z M18.6,70.7c-0.4,0-0.4-0.6-0.6-0.9
		c-0.2-0.8,0-1.6,0.4-2.2l1.1,0.7C19.2,69.1,20.1,70.9,18.6,70.7z M57.1,34.7c0.8,0.1,1.4,0.7,2.2,0.9c2.1,0.9,4.3,1.5,6.3,2.5
		c1.1,0.1,2.1,0.5,3.3,0.5c-0.2,0.5-0.5,1-0.9,1.3c-2,0-3.9-0.5-6-0.4c-1-0.2-1.7,0.4-2.4,1.1c-1-1.3-1.9-2.7-2.8-4.2
		C56.7,35.8,56.5,35,57.1,34.7z M29.3,26.6c0.8-0.6,1.8-0.1,2.5,0.5c1.4,0.8,2.9,1.4,4.4,2v0.1c-1.2,0.5-2.3,1.3-3.7,1.2
		c-0.6,0.7-1.3,1.7-2.4,1.4c-0.1-0.3,0.4-0.5,0.5-0.8C31,29,28.6,28.4,29.3,26.6z M27.9,30.1c-0.1-0.4-0.3-0.8-0.8-0.9
		C26.8,29,26.3,29.2,26,29c0.2-0.5,0.6-0.9,1.1-1.1c0.8-0.1,1.4,0.4,1.8,1.1c0.4,0.7,0.3,1.6-0.1,2.3c-0.3,0.5-0.8,0.6-1.3,0.8
		C27.6,31.6,28.3,30.8,27.9,30.1z M22.6,24.4c0.7-2.2,3.1-2.7,4.9-3.4c0.5-0.1,0.9-0.2,1.5-0.2c-1,0.8-2.9,0.9-3.2,2.5
		c-0.5,0.6-1.5,1-1.2,2c-0.1,1-0.8,2.3-0.1,3.3c0.1,0.1,0.1,0.1,0.2,0.2c-0.1-0.1-0.1-0.1-0.2-0.2C23.5,27.4,21.9,26.2,22.6,24.4z
		 M22.8,34.2c-1.6-0.5-3,0.2-4.6,0.4c-0.8,0-1.5,0.4-2.2,0.9c-0.3-0.2-0.3-0.5-0.2-0.7c0.7-0.8,1.4-1.7,2.5-1.8c1.3,0,2.8-0.3,4.1,0
		l0.3,0.3C22.7,33.6,22.9,33.9,22.8,34.2z M17.1,27.8c1.3-0.6,2.2,0.6,3.3,1c0.3,0.1,0.5,0.4,0.9,0.4v0.1c-2-0.7-4.3-0.1-6.1,0.5
		C15.3,28.9,16.2,28.1,17.1,27.8z M15.1,31.3c0.9-0.5,1.9-0.2,2.8,0.2v0.1c-1.3-0.1-2.2,0.5-3.3,1.1C14.6,32.2,14.8,31.7,15.1,31.3z
		 M14.7,55.5c-0.7-0.7-0.9-1.6-1.2-2.4l1.3-0.8c-0.3,2.2,2.2,3.4,3.4,4.7l0.2,1.5C17.1,57.7,16,56.5,14.7,55.5z M20.2,57
		c-2.4-0.9-3.1-3.5-4.6-5.3v-0.2c0.7-0.3,1.5-0.6,2.2-1l0.2,0.2C18.8,52.7,19.5,54.8,20.2,57z M26.2,66.1c0.5-0.7-0.5-2.9,1.2-2.4
		c0.4-0.3,0.3-1.1,0.9-1.1c0.7,0,1.4-0.1,1.9,0.3c0.2,0.6,0,1.3-0.3,1.8c-1.2,1.2-1.4,2.8-2.6,4c-0.7,1-1.3,2.6-2.8,2.3
		c-0.4,0-0.7-0.4-0.9-0.6C23.4,68.5,25.8,67.7,26.2,66.1z M30.5,67.5c0.5-0.8,1.9-2.9,2.8-1c0,1.3-1,2-1.6,3c-1,0.7-2,1.6-3,2.3
		c-0.4,0.2-0.9,0.2-1.3,0c-0.1-0.2-0.5-0.1-0.5-0.4c0.8-0.6,1.9-0.5,2.5-1.4C29.8,69.2,30.7,68.6,30.5,67.5z M31.8,57.8
		c0-0.3,0.3-0.1,0.4-0.3l1.2-1c0.1,0.6,0.3,1.3,0.6,1.8C33.3,58.4,32.5,58.1,31.8,57.8z M34.6,61.7c0.2,0.8-0.2,1.4-0.5,2
		c-0.4-0.1-0.6-0.5-0.8-0.8C33.1,62.2,34.1,61.9,34.6,61.7z M20.7,68.1c0.7,1.5,1.9,2.9,2.8,4.4c-0.7,0-1.2-0.2-1.8-0.3
		C20.6,71,20.1,69.6,20.7,68.1z M38.2,66.5C37.3,70,33.3,70,31,72.2c-1.6,1.6-3.1,4.6-5.9,4.2c-1.3,0-2.9,0.3-3.7-0.8
		c0-0.4-0.4-1-0.1-1.3c1.6-0.7,3.5-0.4,5.3-0.2c2.5-0.2,4-2.8,5.9-4.3c1.5-1.4,4-2.6,3.8-5c0.2-2.4-0.8-4.4-0.7-6.9
		c0-1.6-0.3-3.3,0.5-4.6c1.8,1.5,2.4,4.1,1.7,6.5C37.1,62,38,64.3,38.2,66.5z M36,43c-1.2-0.5-2.7-0.1-4,0.1
		c-0.2,0.4-0.2,1.1-0.8,1.3c-2.1,0-1.7-2.4-2.9-3.5c-0.9-0.7-1.6-1.5-2.5-2.3c-1.7-0.2-3.7-0.6-5.2,0.3c-0.9,0.3-2.2,0-3.1-0.6
		c-0.3-0.5-0.6-1-0.7-1.5c0.8-1.4,2.6-1.3,4-1.6c1.7,0.1,3.6-0.1,5.2,0.2l0.6,0.9c1.3-0.4,2.8-0.2,3.7-1.3c2.7-0.5,4.9-2.2,7.5-2.9
		c1-0.2,2-0.3,3-0.5l4.7,0c0.6,0.1,1,0.6,1.4,1.1c-3.3-0.7-6.5,0.6-9.8,0.7c-2,0.8-4.2,1.3-6.1,2.3c-0.6,0.5-0.9,1.4-1.3,2.2
		c-0.2,0.4,0.2,0.7,0.5,0.9c0.7,0.4,1.3-0.4,1.9-0.5c2.4-1.6,5.3-1.2,8.1-1.1c1.5,0.3,2.9,0.4,4.3,1c1.2-0.1,2,0.5,2.9,1.1
		c1,0.3,2,0.6,3,0.9v0.1C49,40,47.1,40,45.8,39.2c-1.1-0.1-2-0.4-3-0.8c-3.9,0-8-0.2-11.3,1.6c-0.4,0.2-0.6,0.6-0.5,0.9l0.2,0.5
		l4.3,0c1,0.4,2.4,0.1,3.4,0.8c2,1.8,4.4,3.1,6.2,5.3c1.6,0.2,1.6,2.3,3.2,2.4c0,0,0,0.1,0,0.1c-1.2-0.1-2.7,0.4-3.8-0.4
		c-1.5-0.6-1.6-2.3-3.3-2.7v-0.1C40.1,44.7,37.9,44,36,43z M58.2,63.5c-0.5,1.5-1.6,2.9-3,3.7c-1.4,1.4-3,2.9-4.9,3.5
		c-2,1.4-4.5,1.6-6.9,2.4c-1.3,0.3-2.7,0.3-4,0.7c-0.3-0.1-0.7,0.2-0.8-0.2c0-0.7,0.7-1.1,1-1.7c0.4-1.3,1.9-0.6,2.7-1.1
		c1.9-0.6,3.9-1.1,5.8-2c1.1-0.5,2.3-0.8,3.3-1.8c2.2-0.5,3.5-2.7,4.8-4.4c0.4-0.7,0.9-1.4,1.2-2.1C58,61.4,58.6,62.4,58.2,63.5z
		 M76.7,44c-2.4,2.3-5.5,2.9-8.2,4.5c-2.8,0.6-6.3,2.3-9,0.4c-0.2-0.3-0.6-0.5-0.7-0.8c1.6-0.3,3.8-0.1,5.5-0.7
		c1.6-0.3,2.9-1.7,4.4-2.3c2.5-2,6.9-2.3,7.3-6.2c-0.1-1.1-0.7-2.1-1.7-2.6c-1-0.5-2.1-0.6-3.2-0.8L65.3,34c-1.5-0.7-3.2-2.3-3.5-4
		l0.1-1.7c3.5,3.6,7.7,5.5,12.2,6.4c1.7,0.7,3.9,1,4.6,3.1C79.3,40.1,78.5,42.5,76.7,44z"/>
</g>
</svg>
