<?xml version="1.0" encoding="utf-8"?>
<!-- Generator: Adobe Illustrator 18.1.1, SVG Export Plug-In . SVG Version: 6.00 Build 0)  -->
<!DOCTYPE svg PUBLIC "-//W3C//DTD SVG 1.1//EN" "http://www.w3.org/Graphics/SVG/1.1/DTD/svg11.dtd">
<svg version="1.1" xmlns="http://www.w3.org/2000/svg" xmlns:xlink="http://www.w3.org/1999/xlink" x="0px" y="0px"
	 viewBox="0 0 100 100" enable-background="new 0 0 100 100" xml:space="preserve">

<g id="AREA_2">
	<path id="FILL_1_" fill="#FFFFFF" d="M30.8,5.4c2.8,1.2,5.4,2.9,7.8,5.2c1.7,1,3.7,1.2,5.6,1.3c-0.5-0.7-1.3-1.4-0.9-2.4
		c0.3-0.6,0.8-0.6,1.3-0.8C55.9,13,66.2,20,77.4,24.9c2.5,1.3,5.1,3.5,5.4,6.5c0,4.1-3.7,6.2-5.9,9.4c-2,2.8-4.1,5.5-6.3,8.2
		c4.2,2.9,8.6,5.3,12.9,8.1c1.7,1.6,4.3,3.2,3.4,6l-0.2,0.5c1.5,1.6,1.4,3.7,0.8,5.5c-0.3,0.9-1.5,2-2.4,2.2L85,71.3
		c0.4-0.6,0.7-1.3,0.5-2c-0.1-0.5-0.4-1-0.8-1.4l0.2,1.9L84,69.4L83.3,69c0,0-2.2-2.3-2.8-3.6c-4.1,0.6-7.7,3.2-10.6,6.5
		c1.2,3.2,1.9,6.5,2.8,9.8c0.7-0.8,1.6-1.7,2.8-1.5c0.8,0.1,1.8-0.1,2.2,0.9c-0.4,1.5,1.6,1.2,1.7,2.4c0.1,0.5-0.1,1-0.5,1.3
		c0.3,0.4,0.7,0.5,0.7,1c0.1,0.6,0,1.3-0.1,2l-0.1,0c-0.4-0.6-0.9-1.5-1.8-1.5c-0.4,0.1-0.7,0.4-0.8,0.7l-0.1,0.2
		c1.2,0.6,2.1,1.4,3,2.4c1.5,0.3,1.7-1.9,3.1-2c1-0.3,2.4-0.3,3.3,0.2c0.4,0.6,0.7,1.2,0.7,1.9c1.3,1.1,3.2,2,2.6,4.1l-0.1,0
		c-0.3-0.3-0.8-0.4-1.2-0.2c-0.6,0.3,0.2,0.7,0.3,1.1c0.2,1-0.5,1.9-1.1,2.7l-0.1,0c-0.1-0.5,0-1-0.3-1.5c-1-0.9-1.8,0.5-2.8-0.1
		L83.1,95c-0.9,0.1-2.1,0.8-2.7-0.5c-0.4,0.2-0.3,0.8-0.9,0.9c-0.5,0-0.9-0.2-1.4-0.1c-0.3,0.3-0.6,1.2-1.2,0.9
		C76.7,96,76.3,96,76.1,96c-0.4,0.2-0.4,0.7-0.3,1c0,0.2,0.2,0.3,0.3,0.4l0,0.1c-0.6,0-1.2-0.1-1.5-0.7c-0.2-1.8,0.1-3.5,1.4-4.7
		c-1.7-1.2-3.4-2.4-5.2-3.3c-0.6,0-1.4-0.1-1.7,0.6c0,0.4,0.3,0.7,0.4,1l0,0.1c-0.7-0.4-1.9-1.1-1.9-2.2c-0.1-0.8,0.2-1.4,0.3-2.1
		c-0.7-0.9-1.5-1.9-2.7-2c-0.6-0.1-1.6,0.3-1.7-0.6c-0.1-0.3-0.2-0.8-0.6-0.9c-0.5,0.2-0.9,0.6-1.5,0.6c-0.5-0.4-0.2-1.3-1-1.5
		c-0.6,0-1.6,0.4-2.2-0.1c-0.8-1.1-0.4-2.9-2-3.4c-1.8,2-4.2,3.1-6.6,3.9c-0.1-0.7,0.1-1.4-0.1-2c-2.8,1.8-5.8,3.3-8.9,4.3
		c0-0.6,0.4-1.1,0.4-1.7c-2.6,1.5-5.3,2.6-8.4,2.9c0.2-0.7,0.5-1.5,0.7-2.2c-4,0.2-6.9,3.6-11.1,3.7c-0.3,0-0.2-0.4-0.1-0.6
		c1-1.3,2.2-2.6,3.3-3.9c-3,0.5-5.5,2.8-8.2,4.1c-0.4,0.1-0.7-0.1-0.9-0.4v-1.2c0.1,0.2,0.1-0.3,0.1-0.3s2.1-1.7,3.1-2.6
		c-1.4,0.1-2.8,0.9-4.2,1.4c-1.3,0.3-2.8,1-3.9,0.6c-0.3-0.4-0.4-1-0.2-1.4c0.8-1.3,2.3-1.4,3.5-2.2c5-3.5,11-4.5,16.1-7.8l3.6-2.4
		c0.1-0.4-0.4-1-0.1-1.5l0.8-0.7c1.6-0.6,3.3-1.2,4.9-1.9c-0.5-0.3-1.6-0.3-1.5-1.1c2.2-1.4,5-1.8,6.9-3.9c-1.4,0.2-3.3,0.8-4.6-0.3
		c-0.6-0.4-1.3-1.3-2.1-0.6c-0.4,0.3-0.7,0.9-1.2,0.7c-0.3-0.5-0.1-1.3-0.7-1.5c-0.6,0.1-1.2,0.4-1.9,0.4c-0.3-0.5,0.5-1.2,0.1-1.8
		c-0.9-0.1-1.6,0.6-2.3,0.1c-0.4-1.3-1.8-1.6-3-2c-0.1-0.1-0.4-0.5,0-0.5c0.4-0.4,1-0.5,1.3-1l-0.2-0.2c-2,0.6-3.1-1.3-4-2.6
		c0.1-0.6,0.9-1,1.4-1.3c-0.8-0.2-2.1,0.4-2.7-0.5c-0.1-0.6,0.7-1.3,0-1.7c-0.7-0.2-1.7,0-2.3-0.6c-0.3-0.5-0.9-1-0.6-1.7
		c1.3-1.3,3.3-0.7,5-0.9c-1.5-1.3-4.1-0.3-5.4-2c0-0.5-0.1-1.1,0.3-1.5c0.6-0.7,1.6-0.2,2.3-0.1c2.1-0.2,4.7-0.1,7-0.4
		c-0.9-0.4-1.8-0.6-2.8-0.7c-2.7-1-5.9-0.9-8.5-2.3c-0.2-0.1-0.1-0.4-0.1-0.6c0.9-1.6,3.3-0.5,4.5-0.9c-1.7-2.1-4.4-1-6.6-2.2
		c-0.5-0.9-0.3-2.1-1.5-2.6c-0.7-0.4-1.5-0.7-2.1-1.2v-0.2l1.8-0.6v-0.4c-0.9-1-2.6-1.9-1.5-3.4c-0.5-1.5-2.7-1.8-2.2-3.8
		c0.7-0.2,1.5,0,2.2-0.1c-1.6-1.8-3.9-2.2-5.5-4c-0.2-0.8,0.5-1.1,1.1-1.6h0.4c1.3,0.5,2.6,1.1,3.8,1.5c-2-1.9-3.5-3.9-5.4-6.1
		c0-0.6-0.1-1.4,0.5-1.7c1.9-0.3,4.1-0.2,6-0.7c-1.1-0.1-2.2-0.4-3.1-0.9C12,8.2,9.4,7.7,11,6.4c1.5-1.9,4.6-0.9,6.8-1.5
		c2.3,0.2,4.6,0.6,6.9,0.8V5.5l-1.6-2.7C26,1.5,28.3,4.4,30.8,5.4z"/>
</g>
<g id="AREA_1">
	<g id="DETAIL">
		<path d="M86.9,89.7c-0.1-0.7-0.4-1.3-0.7-1.9c-0.9-0.5-2.3-0.5-3.3-0.2c-1.4,0.1-1.6,2.3-3.1,2c-1-0.9-1.9-1.8-3-2.4l0.1-0.2
			c0.1-0.4,0.4-0.7,0.8-0.7c0.8,0,1.3,0.9,1.8,1.5l0.1,0c0.1-0.6,0.3-1.4,0.1-2c0-0.5-0.5-0.6-0.7-1c0.4-0.3,0.7-0.8,0.5-1.3
			c-0.1-1.3-2-1-1.7-2.4c-0.4-0.9-1.4-0.7-2.2-0.9c-1.2-0.2-2,0.7-2.8,1.5c-0.9-3.3-1.6-6.7-2.8-9.8c2.9-3.2,6.5-5.8,10.6-6.5
			c0.7,1.3,2.8,3.6,2.8,3.6l0.7,0.4l0.9,0.4l-0.2-1.9c0.4,0.4,0.7,0.9,0.8,1.4c0.1,0.7-0.1,1.4-0.5,2l0.1,0.1c0.8-0.3,2-1.3,2.4-2.2
			c0.7-1.8,0.8-3.9-0.8-5.5l0.2-0.5c0.9-2.8-1.7-4.4-3.4-6c-4.3-2.8-8.7-5.2-12.9-8.1c2.2-2.8,4.3-5.4,6.3-8.2
			c2.2-3.2,5.9-5.3,5.9-9.4c-0.3-3-3-5.1-5.4-6.5C66.2,20,55.9,13,44.6,8.7c-0.5,0.2-1,0.2-1.3,0.8c-0.4,1,0.4,1.7,0.9,2.4
			c-1.9-0.1-3.9-0.4-5.6-1.3c-2.4-2.2-5-3.9-7.8-5.2c-2.5-1-4.7-3.9-7.7-2.5l1.6,2.7v0.3c-2.3-0.2-4.6-0.6-6.9-0.8
			c-2.2,0.6-5.3-0.4-6.8,1.5c-1.5,1.3,1,1.7,1.5,2.5c1,0.5,2.1,0.8,3.1,0.9c-1.9,0.5-4.1,0.5-6,0.7c-0.6,0.3-0.5,1.1-0.5,1.7
			c1.9,2.1,3.4,4.2,5.4,6.1c-1.3-0.4-2.6-1-3.8-1.5h-0.4c-0.5,0.5-1.2,0.8-1.1,1.6c1.6,1.8,3.9,2.2,5.5,4c-0.7,0.1-1.5,0-2.2,0.1
			c-0.5,1.9,1.7,2.3,2.2,3.8c-1.1,1.5,0.6,2.5,1.5,3.4v0.4l-1.8,0.6V31c0.6,0.5,1.4,0.9,2.1,1.2c1.2,0.5,1,1.7,1.5,2.6
			c2.2,1.2,4.9,0.1,6.6,2.2c-1.2,0.4-3.6-0.7-4.5,0.9c0.1,0.2-0.1,0.5,0.1,0.6c2.6,1.4,5.8,1.3,8.5,2.3c1,0.2,1.9,0.4,2.8,0.7
			c-2.3,0.3-4.9,0.2-7,0.4c-0.7-0.2-1.7-0.7-2.3,0.1c-0.4,0.4-0.3,1-0.3,1.5c1.2,1.7,3.8,0.7,5.4,2c-1.7,0.2-3.7-0.5-5,0.9
			c-0.3,0.7,0.3,1.2,0.6,1.7c0.6,0.6,1.5,0.4,2.3,0.6c0.7,0.5-0.1,1.1,0,1.7c0.5,0.9,1.9,0.3,2.7,0.5c-0.5,0.4-1.3,0.7-1.4,1.3
			c1,1.3,2,3.2,4,2.6l0.2,0.2c-0.3,0.5-0.9,0.6-1.3,1c-0.4,0-0.1,0.4,0,0.5c1.1,0.4,2.6,0.6,3,2c0.8,0.5,1.5-0.2,2.3-0.1
			c0.5,0.5-0.3,1.2-0.1,1.8c0.6-0.1,1.2-0.4,1.9-0.4c0.6,0.3,0.4,1.1,0.7,1.5c0.5,0.1,0.8-0.5,1.2-0.7c0.7-0.7,1.5,0.2,2.1,0.6
			c1.3,1.1,3.2,0.5,4.6,0.3c-1.9,2.1-4.6,2.5-6.9,3.9c-0.2,0.8,1,0.8,1.5,1.1c-1.6,0.7-3.3,1.3-4.9,1.9l-0.8,0.7
			c-0.2,0.5,0.2,1,0.1,1.5l-3.6,2.4c-5.1,3.3-11.1,4.3-16.1,7.8c-1.1,0.8-2.6,1-3.5,2.2c-0.2,0.4-0.2,1.1,0.2,1.4
			c1.1,0.4,2.6-0.3,3.9-0.6c1.4-0.4,2.8-1.2,4.2-1.4c-1,0.9-3.1,2.6-3.1,2.6s0,0.5-0.1,0.3v1.2c0.2,0.2,0.5,0.5,0.9,0.4
			c2.8-1.3,5.2-3.6,8.2-4.1c-1,1.3-2.2,2.6-3.3,3.9c-0.1,0.2-0.2,0.5,0.1,0.6c4.2-0.1,7-3.5,11.1-3.7c-0.2,0.7-0.5,1.5-0.7,2.2
			c3.1-0.3,5.8-1.4,8.4-2.9c0.1,0.5-0.3,1.1-0.4,1.7c3.1-1,6.1-2.5,8.9-4.3c0.2,0.6,0.1,1.3,0.1,2c2.4-0.8,4.9-1.9,6.6-3.9
			c1.6,0.5,1.2,2.3,2,3.4c0.6,0.5,1.5,0.1,2.2,0.1c0.8,0.2,0.6,1.1,1,1.5c0.6,0,1-0.4,1.5-0.6c0.4,0.1,0.4,0.6,0.6,0.9
			c0.1,0.9,1.1,0.5,1.7,0.6c1.1,0.1,2,1.1,2.7,2c-0.1,0.7-0.4,1.3-0.3,2.1c0,1,1.1,1.8,1.9,2.2l0-0.1c-0.1-0.3-0.4-0.6-0.4-1
			c0.3-0.7,1.1-0.6,1.7-0.6c1.8,0.9,3.6,2.1,5.2,3.3c-1.3,1.2-1.5,3-1.4,4.7c0.3,0.6,0.9,0.7,1.5,0.7l0-0.1
			c-0.1-0.1-0.2-0.2-0.3-0.4c-0.1-0.3-0.1-0.8,0.3-1c0.2,0,0.6,0,0.8,0.2c0.6,0.3,0.9-0.5,1.2-0.9c0.4-0.2,0.9,0,1.4,0.1
			c0.5-0.1,0.4-0.8,0.9-0.9c0.6,1.3,1.8,0.6,2.7,0.5l1.1,0.7c1,0.7,1.8-0.8,2.8,0.1c0.3,0.4,0.2,1,0.3,1.5l0.1,0
			c0.6-0.8,1.3-1.7,1.1-2.7c-0.1-0.4-0.9-0.8-0.3-1.1c0.4-0.2,0.9-0.1,1.2,0.2l0.1,0C90.1,91.7,88.1,90.8,86.9,89.7z M84.8,88.3
			c0.5,0.1,1.1,0.3,1.3,0.8l0.1,0.4c-0.5,0.1-1.2,0-1.7,0.1L84.8,88.3z M78.7,86c-0.6-0.2-1.1-0.3-1.8-0.3c-0.2-0.4,0.1-0.7,0.2-1
			c0.6-0.4,1.4,0.1,1.5,0.7V86z M78.4,83.9v0.3c-0.8,0.1-1.5-0.4-2.1-0.9c0-0.1-0.1-0.4,0.1-0.4C77.1,83,77.8,83.3,78.4,83.9z
			 M76.4,84.8c0,0.4-0.2,0.9-0.6,0.9c-1.3,0.4-0.9-1.1-1.4-1.5C75.2,84.2,76.3,83.7,76.4,84.8z M75.5,81.2c0.7,0,1.4,0.2,1.7,0.7
			c-0.4,0.2-1,0.1-1.5,0.1C75.5,81.9,75.2,81.5,75.5,81.2z M75.1,81.8c0.3,1-1,0.9-1.5,1.5l-0.6-1.2C73.5,81.7,74.6,80.7,75.1,81.8z
			 M82.8,67.5c-0.5-0.6-1.2-1.7-1.2-1.7s0.2-0.3,0.6-0.5c0.2-0.1,0.3-0.2,0.6-0.2c0,0,0.3,0.3,0.4,0.6c0.1,0.3,0.3,0.7,0.5,1.1
			c0.2,0.4,0.6,0.9,0.6,0.9l0.1,0.4l0.1,1.1C84.5,69.1,83.3,68.1,82.8,67.5z M86.8,68.2c-0.1,0.4-0.6,1-0.6,1
			c0.6-2.3-3.3-2.2-2.2-4.5c0.2-0.3,0.4-0.6,0.7-0.7c0.6-0.1,1.1,0.1,1.5,0.4C87.1,65.3,87,67.5,86.8,68.2z M85.1,59.6
			c0.7,0.7,1.4,1.4,1.3,2.5c0,0.5-0.2,0.9-0.6,1.1c-1.8-0.3-2.1-2.3-3.2-3.5c-1-1.2-2.5-1.6-3.8-1.7c1.6,1-0.4,3.7,1.7,4.3
			c0.9,0.5,2.1,0.5,3.2,0.5c0.3,0.2,0.8,0.5,0.5,0.9c-0.7,1.3-2.3,0.3-3,1.5c-0.3-0.3-0.3-0.7-0.7-0.9c-2,0.1-3.8,0.7-5.6,1.3
			c-1.1,0.5-2.1,1.2-3,2.2c-0.2-0.4-0.5-0.9-1.1-0.6l-1,0.5c0.4-0.5,1.2-0.9,1-1.8c-0.6-0.5-1.4-0.5-2-0.9c0.4-0.5,1.3-0.3,1.8-0.7
			c-0.5-0.4-1.7-0.3-1.7-1.1c0.5-0.5,1.2-0.5,1.7-1c-0.5-0.4-1.4-0.3-2-0.6c0-0.6,0.7-0.8,0.8-1.4c-0.5-0.6-1.7-0.2-1.9-1.1
			c0.6-0.5,1.3-0.9,2.1-1.2c-0.2-1.3-0.8-2.8-0.4-4.3c0.4-1.1,0.7-2.3,1.4-3.3C75.3,53.9,80.5,56,85.1,59.6z M81.9,60.4
			c-0.4,0.3-0.8,0.4-0.9,0.9c-0.2,0.1-0.3-0.1-0.3-0.3c-0.1-0.5-0.1-1.2,0.4-1.3C81.4,60,81.9,60,81.9,60.4z M60.9,60.8
			c-0.5,0.4-1.2,0.1-1.8,0c-0.5-0.2-1.1-0.5-1.3-1.1c-0.1-0.4-0.2-0.8,0.1-1.2c0.3-1,2.3,0.2,1.6-1.2c-0.2-0.5-0.7-0.8-0.6-1.4
			c0.4-0.8,1.1,0,1.6-0.4c0-0.6-0.8-1.4,0-1.7c0.7-0.1,1.6,0.1,1.9,0.9c0.2,0.4-0.1,0.8-0.3,1.1l-1.1,0.8c0.2,1.1,0.1,2.2-0.9,2.9
			c0.1,0.2,0.1,0.4,0.2,0.5c0.7-0.5,1.2-1.4,1.2-2.3l1.9,0.9c-0.4,0.8-0.9,1.6-1.4,2.3c-0.5-0.1-1-0.6-1.5-0.7
			C60.8,60.3,61,60.5,60.9,60.8z M60.7,62c-0.6,0.3-1.5,0.2-2.3,0.1c-0.4-0.2-0.6-0.6-0.6-1l0.2-0.1l2.8,0.4
			C61.1,61.6,60.8,61.8,60.7,62z M42.4,67.4c1.9-1.2,3.9-2.3,5.9-3.4c1.1-0.2,2.2-0.2,3.3-0.4c-2,1.5-4.3,3.1-6.5,4.6
			C44.2,67.9,42.5,68.9,42.4,67.4z M44.4,68.8c-2.6,1.5-5.3,2.9-7.9,4.5c-0.1-0.5,0.2-1.2,0.2-1.8l5-2.7H44.4z M44.3,51.7
			c-1.8-0.8-4.4,0.6-5.8-0.9c-0.1-0.6,0.3-1,0.7-1.2c0.7-0.2,1.4,0.4,2.2,0.5c0.9,0.4,1.7-0.3,2.6-0.1c0.5,0,0.7,0.6,0.8,0.9
			C44.8,51.3,44.7,51.7,44.3,51.7z M44.3,54.1c-0.1,0.5-0.5,0.7-0.9,0.9c-2,0-3.8-0.7-5.3-2c-0.1-0.6,0.5-0.8,0.9-0.9
			c1.3,0,2.3,1.1,3.7,0.5c0.3-0.2,0.9-0.1,1.2-0.1C44.4,52.9,44.5,53.5,44.3,54.1z M39,47.8c-0.2-0.5,0.5-0.5,0.7-0.7
			c1.9,0,3.3,1.2,5,1.5c-0.2,0.5-0.8,0.4-1.2,0.6C41.9,49.6,40.2,49.2,39,47.8z M44,48.1c-1.7-1.1-3.7-1.7-5.1-3.2
			c1.8,0.7,3.9,0.7,5.8,1c0.3,0.2,0.7,0.3,0.9,0.7c0.2,0.6,0,1.1-0.2,1.6C44.9,48.3,44.4,48.3,44,48.1z M32.5,18.2
			c3.8,0.5,6.8,3,10.1,4.8c3.4,0.6,7.3,0.3,10.7,1l0.6,2.7l-0.1,0.1c-4.1,0.2-7.8-1.2-11.3-2.8C38.6,23.3,34.5,21.8,32.5,18.2z
			 M38.1,24.8c-4.8,0.2-8.6-2.3-12.7-3.8l0.1-0.1l7.7,0.2c1.4,1.2,3.2,1.4,4.8,2.1C38.3,23.7,38.2,24.4,38.1,24.8z M55.1,24.9
			c4.5,2,8.6,5.3,13.2,7.1c-1.1,0.6-0.9,1.9-0.9,2.8c-3.6-2.5-7.3-5-11.3-6.6c-0.7-0.4-1.3-1.1-1.5-1.8
			C54.4,25.8,54.6,25.3,55.1,24.9z M48.9,18.6l5.6,2.5l13.7,7.5c-0.1,0.7-0.3,1.4-0.5,2.2c-3.9-2.2-7.9-4.6-11.9-6.6
			C53.3,22.7,50.4,21.3,48.9,18.6z M74,37.3L68.3,35c-0.2-0.5,0-1.2-0.2-1.8l0.9-0.7l4.7,2.3c0.1,0.3,0,0.6-0.2,0.9
			C73.5,36.3,74.1,36.7,74,37.3z M72.1,39.6c-1.7-0.4-3.6-1-5.3-1.6c-0.2-0.3-0.3-0.6-0.4-0.9l1.1-0.9c1.7,0.4,3.2,1.2,4.8,1.7
			C72.3,38.5,72.5,39,72.1,39.6z M55.8,29.2c4.1,1.6,7.7,4.1,11.3,6.8c-0.5,0.1-1.3-0.1-1.5,0.6l0.1,0.7c-2.9-2.8-6.5-4.4-9.6-6.9
			C55.9,30,55.6,29.6,55.8,29.2z M65.6,38.1c0.4,0.9,0.3,1.9,0.1,2.8c-2.9-2.8-6.7-4.3-8.8-7.9l-0.2-1.2
			C60.1,33.1,62.2,36.5,65.6,38.1z M57.8,35.4c0.4,0.5,0.6,1.3,0.7,1.9c-4.3-1.6-9.6-1.1-13-4.7L57.8,35.4z M58.8,38.1
			c0.2,0.5,0.2,1,0.4,1.5c-2.6-0.3-5.3-1-7.7-2.1c-1.1-0.5-2.1-1.3-3-2C52,36.3,55.4,37.5,58.8,38.1z M62.9,42.7
			c-3.5-0.1-6.3-2.2-9.8-2.5C52.5,40,52,39.5,52,38.9C55.6,40.2,59.9,39.9,62.9,42.7z M61.5,40.8c-0.7-0.9-1.2-1.9-1.7-2.9
			c3.4,1.3,6.1,4.5,8.9,7.2c-0.2,0.4-0.5,0.6-0.8,0.9C65.9,44.2,63.5,42.7,61.5,40.8z M67.1,41.8l2.3,0.5l-0.5,1.5L67.1,41.8z
			 M68.9,41.5l-2.7-1.2l0.3-1.7c1.6,0.6,3.2,1.2,4.8,2C70.4,40.9,69.6,41.2,68.9,41.5z M72.5,40.2c0.5-0.6,0.9-1.3,1.1-2l1.2,1.4
			c-1.2,1.1-2.5,2.3-3.4,3.8c-0.1,0.9-1,1.1-1.5,1.7C69.2,42.9,71.8,41.9,72.5,40.2z M74.1,36.6l0.5-1.2c-0.1,1.1,1,1.5,1.8,2
			c-0.3,0.4-0.7,1-1.2,1.2C74.4,38.2,74.5,37.3,74.1,36.6z M76.2,36.4c-0.5-1-0.6-2-0.5-3.2c0.1-0.4,0.5-0.7,0.8-1.1l0.9,1.9v2.6
			L76.2,36.4z M70.2,28.4c0.1-0.5,0.1-0.9,0.2-1.5l3.5,0.5l3.5,1.7c-0.2,0.7-0.5,1.3-0.9,1.8L70.2,28.4z M75.2,31.5
			c0.2,0.5-0.7,0.8-0.4,1.4c0.2,0.4,0.3,0.9,0.4,1.4c-2.2-0.9-4.5-1.9-6.5-3.2v-1.9l1,0.1L75.2,31.5z M69.3,28.1
			c0.1,0.1,0.1,0.2,0.1,0.4c-6.5-3.2-12.6-7.5-19.3-10.4c-1.8-1.2-3.3-2.4-4.6-4.2l6.4,3l11.6,5.1c2.2,1.2,4.2,2.7,6.2,4
			C69.2,26.5,68.9,27.4,69.3,28.1z M45.9,17.1c-4.7-1.6-9.2-4.2-13.9-5.9c-1.7-0.9-3.4-1.8-5.3-2.3l-0.5-0.6c2.7-1.2,5,0.9,7,2.3
			l1.8,0.9c3.1,1,5.9,3.1,9.1,3.9L45.9,17.1z M39.5,15.5c2.3,1.5,5.1,2.5,7.9,2.5c0.4,0.7,1.2,1.6,0.9,2.4c-2.1,0.4-3.7-0.8-5.5-1.5
			c-4.9-2.3-9.5-5.4-14.7-7L28,11.8C32.5,11.3,35.8,14,39.5,15.5z M29.7,16.3c0.3,0.5,0.7,1,0.9,1.6c-3.8-0.4-7.6-1.4-10.3-3.7
			L29.7,16.3z M30.1,15.1c-0.4-0.4-0.9-0.5-1.2-0.9c6.5,0.6,11.1,5.8,17.5,6.7l3.1,0.1c0.7,0.6,1.5,1.2,2.1,1.9
			C43.1,24.4,37,18.3,30.1,15.1z M54.8,28.5l0.3,2.2c-4.8,0.3-8.4-2.5-12.6-3.6c-1.1-0.4-2.2-1.5-2.8-2.6
			C44.8,25.5,49.7,27.6,54.8,28.5z M40.6,27.5c4.7,2.1,9.8,3.4,14.8,4.6l0.6,2.2c-3.4-1.4-7.2-2.1-10.9-2.7
			C43,31.2,42.2,28.7,40.6,27.5L40.6,27.5z M43.8,32.2v0.2c-5.8,0.1-11-1.5-15.7-4.2c4.4,0.8,8.9,1.9,13.6,1.9L43.8,32.2z M46.3,35
			l1.9,1.5L48,36.6c-7.4-1.5-15.1-2.6-22.2-4.8C33,32.4,39.5,33.5,46.3,35z M48.9,38c0.2,0.3,0.4,0.6,0.5,1c-3.1-0.4-7.5,1.2-10-1.3
			l-1.2-1.4C41.7,36.5,45.4,37.2,48.9,38z M49.8,39.5l0.5,0.9c-2.4-0.4-4.5,0.5-6.7,1.1c-0.9-0.2-1.7-0.7-2.3-1.2
			C44.3,40,46.7,39.8,49.8,39.5z M45.9,41.4c7.8-1.7,14.9,1.8,21.6,4.6c0.2,0.4,0.1,0.9,0,1.4c0.7,0,1-0.9,1.4-1.4
			c0.4,0.4,0.8,1.1,0.4,1.7c-0.1,0.3-0.2,0.7-0.3,1h-2c-0.1-0.6,0-1.1,0.6-1.2c-0.5-0.1-1.1,0.4-1.7,0.1c-0.5-0.4,0-1.2-0.6-1.5
			c-0.9,0-1.7,0.9-2.6,0.4C62,46,62,45.2,61.3,44.9c-0.6-0.1-1.2,0.6-1.9,0.2c-0.8-0.5-0.8-2.1-2.1-1.5c-0.6,0.2-1.1,0.7-1.8,0.5
			c-0.4-0.4-0.3-1.3-1.1-1.4c-0.7-0.1-1.1,0.3-1.9,0.1c-0.5-0.3-0.5-0.9-1-1.1c-1.9,1.2-3.9-0.5-5.8-0.1V41.4z M65.4,54.9
			c-0.6-0.6-1.7,0-2.5,0l-0.5-1.1c1.1-0.5,2.5-0.3,3.8-0.4C66.1,53.9,65.7,54.4,65.4,54.9z M64.8,58.2c-0.7-0.1-1.2-0.7-1.7-1.2
			l1.2-0.9h1.7C66,57.1,65.4,57.5,64.8,58.2z M54,56c-1,0.2-1.4-0.3-2.1-0.6c-0.5-0.5-0.5-1.2-0.4-1.9c0.2-0.4,0.4-0.9,0.9-0.9
			c0.7-0.2,1.3,0.3,1.9,0.2c-0.3-0.9-1.5-1.3-1.5-2.3c0.9-0.4,1.7,0.4,2.7,0.4c0.4-0.6-0.4-1.7,0.5-1.9c0.9,0.1,1.9,0.5,2.3,1.4v0.4
			c-1.7,0.2-2.3,2.3-4,2.3C53.1,54,56,55.5,54,56z M53.2,60.3c-0.2,0.3-0.3,0.6-0.1,0.9c0.2,0.3,0.7,0.6,0.5,1
			C53,62.4,52,62.5,51.4,62c-0.6-0.6-0.9-1.4-0.7-2.3c0.6-0.7,1.4-0.3,2.2-0.5c-0.6-0.3-1.2-0.7-1.7-1.3c-0.2,0.3,0.1,0.5-0.1,0.8
			c-0.6,0.5-1.5,0.4-2.2,0.1c-0.3-0.3-0.9-0.7-0.6-1.3c0.5-0.5,1.1-0.9,1.7-0.6c0.2,0.1,0.4,0.2,0.6,0.4c0-0.4-0.4-1.1,0.4-1.2
			c1,0.1,2.1,0.2,2.6,1.2c0.2,0.5,0.4,1,0.2,1.6c-0.2,0.4-0.7,0.2-1,0.3C53.5,59.3,53.2,59.9,53.2,60.3z M49.8,61.2
			c-0.4,0.1-0.6-0.2-0.9-0.4c0-0.3-0.1-0.6,0.3-0.7c0.3-0.1,0.7,0,0.9,0.3C50.1,60.6,50.2,61.1,49.8,61.2z M50.1,62.1
			c0.4,0.2,0.4,0.6,0.5,1h-2.3L50.1,62.1z M46.6,52.1c-0.3-0.3-1-0.8-0.5-1.2c0.9,0.3,2,0.6,2.3,1.7C47.7,52.7,47.2,52.5,46.6,52.1z
			 M53.1,44.5c0.3,0.4-0.1,0.7-0.2,1.1c-0.8,1.6-2.3,0-3.4,0.1l-0.6-0.2C49.3,43.3,51.6,44.7,53.1,44.5z M50.3,42.7
			c0.5-0.1,1.4-0.1,1.7,0.5c-0.1,0.4-0.4,0.6-0.7,0.7c-0.5,0.2-0.9-0.3-1.2-0.6C49.9,43,50.1,42.8,50.3,42.7z M54.3,46.6
			c0.5,0.4,1.1,0.6,1.5,1.2c0.2,0.6-0.4,0.9-0.8,1.1c-0.8,0.3-1.7,0-2.3-0.5c-0.4-0.4-0.4-0.9-0.1-1.4C53,46.5,53.7,46.3,54.3,46.6z
			 M51.6,46.9c0.2,0.6-0.5,0.9-0.8,1.1c-1.2,0.3-2-0.9-2.8-1.4c0.1-0.4,0.4-0.6,0.8-0.7C49.8,46.1,50.8,46.4,51.6,46.9z M51.1,48.5
			c0.6-0.1,1.2,0.2,1.5,0.6c0,0.4-0.3,0.5-0.6,0.7c-0.7,0.2-1.3-0.4-1.9-0.6C50.3,48.8,50.7,48.7,51.1,48.5z M51.1,51.3
			c0.1,0.6-0.4,1-0.7,1.3c-0.6,0.3-1.1-0.3-1.4-0.8c-0.1-0.6-0.1-1.2,0.4-1.6C50,50.4,50.9,50.5,51.1,51.3z M49.3,53.5
			c0.5,0,1-0.1,1.2,0.5c0,0.7-0.2,1.4-0.9,1.7c-0.5,0.1-0.9-0.5-1.1-0.9C48.5,54.2,48.8,53.7,49.3,53.5z M56.3,46.9
			c0.6-0.1,0.9,0.5,1.2,0.9c0.1,0.2,0.2,0.8-0.2,0.8c-0.4,0.1-0.9-0.4-1.1-0.7C56.1,47.7,56,47.2,56.3,46.9z M57.8,51.8
			c1.2,0.1,2.3,0.6,3.3,0.9v0.1c-0.7,0.1-1.5,0.2-1.9,0.8c-0.1,0.4-0.1,1-0.4,1.2c-0.9-0.2-1.7-1.2-1.9-2.1
			C57,52.3,57.4,51.9,57.8,51.8z M59.7,51.5c-1.1-0.3-0.7-1.7-1.6-2.3c-0.1-0.4,0.2-0.5,0.4-0.6c1-0.1,2.1,0.1,2.6,1.1
			c0.2,0.4,0.3,1,0.2,1.5C61,51.7,60.2,51.5,59.7,51.5z M55.9,45.6c-0.2-0.4,0.3-0.5,0.5-0.6c0.7-0.3,1.4,0.4,1.5,1
			c0.1,0.4,0.2,0.7,0.4,1.1c0.5-0.4,0.3-1.8,1.2-1.4c0.5,0.7,0.5,1.3,1.1,1.9c0.3-0.2,0.2-0.7,0.5-0.9c0.3,0.5,0.4,1.2,1,1.6
			c0.9,0.1,1.5-0.7,2.3-0.7c0.2,0.6-0.1,1.2-0.4,1.8c-0.5,0.4-1.2,0.5-1.9,0.2C60.1,48.3,57.8,47.3,55.9,45.6z M61.8,51.3
			c0.1-0.3,0.3-0.5,0.6-0.6c0.5-0.1,1,0.1,1.4,0.4c0.1,0.2,0.3,0.5,0.1,0.7c-0.4,0.5-1,0.8-1.6,0.5C61.9,52.2,61.6,51.7,61.8,51.3z
			 M65.7,52.4c-0.5,0.3-1.3,0.1-1.8,0.1l0.5-1.2l1.8,0.3C66.1,51.9,65.9,52.2,65.7,52.4z M63.6,49.9c0.2-0.3,0.7-0.6,1.1-1
			c0.8,0.3,1.6,0.6,2.4,0.9L66.8,51L63.6,49.9z M47.9,42.7c0.4-0.1,0.8,0,1,0.4c0.1,0.4-0.2,0.6-0.5,0.7c-0.4,0.1-0.6-0.2-0.8-0.4
			C47.5,43.1,47.6,42.8,47.9,42.7z M49.7,48.2l0.2,0.3c-0.9,1-2-0.1-2.9-0.4c-0.2-0.1-0.2-0.3-0.3-0.4C47.7,46.8,48.8,48,49.7,48.2z
			 M48.3,49.5c0,0.5-0.5,0.9-1,1.1c-0.6,0.2-1.2,0.1-1.6-0.4c-0.2-0.4-0.5-0.9-0.1-1.2C46.5,48.3,47.8,48.7,48.3,49.5z M45.7,52.8
			c0.7-0.1,1.4,0.1,1.9,0.6c0.4,0.4,0.6,1.1,0.5,1.7c-0.5,0.4-1.3,0.3-1.9,0.1c-0.5-0.3-1-0.7-1.2-1.3
			C44.8,53.4,45.2,52.9,45.7,52.8z M46.3,55.9c0.6-0.1,1.2,0.1,1.7,0.3c0.1,0.1,0.1,0.3,0.1,0.4c-0.2,0.4-0.6,0.4-0.9,0.4
			C46.7,56.8,46.1,56.5,46.3,55.9z M47.4,58.5c0.3,0,0.6,0.2,0.7,0.4c0.1,0.4-0.1,0.6-0.4,0.6c-0.3,0-0.6-0.2-0.6-0.5
			C47,58.7,47.2,58.7,47.4,58.5z M48.2,62c-0.6,0.9-1.7-0.1-2.5-0.1C46.4,61.8,48.2,59.9,48.2,62z M53.7,63.6c0.9-0.1,1.9,0,2.9-0.1
			c-1.1,0.9-2.5,1.9-3.8,2.8h-3.5L53.7,63.6z M54.1,60.8l0.1-1c0.8,0.4,1.9,0.4,2.7,0.7c0,0.9,0.2,1.7,0.4,2.5l-0.1,0.1
			C56.1,62.6,54.6,62.1,54.1,60.8z M56.5,59.6c-1-0.9-2-1.9-2-3.2c0.8-0.3,1.8-0.1,2.4,0.5c-0.3,1-0.4,2.1,0.4,2.9
			C57,60.1,56.7,59.7,56.5,59.6z M56,55.5c0.2-0.8-0.4-1.5,0-2.2c0.6,0.6,1.3,0.9,2,1.3c0.3,0.4-0.3,0.6-0.5,0.7
			c-0.1,0-0.2,0.2-0.3,0.2c0.1,0.4,0.5,0.6,0.6,1C57.1,56.7,56.5,56.2,56,55.5z M63.9,59.1l1.7-0.6c1.7-2.9,0.7-6.6,2.7-9.3l0.8,0.1
			c-1.3,3-1.9,6.3-2.6,9.6l-1.4,1.7l-1.8-0.1L63.9,59.1z M69.8,48.6l0.2-2.1c2.5-3.2,4.7-6.3,7.7-9.3l0.6-3.3
			c0.5,0.1,0.9-0.4,1.5-0.3l0.3,1.9L69.8,48.6z M80.1,32.8l-1.5,0.3c-0.4-0.3-0.9-0.5-1.2-0.9l0.5-2.3c1.2,0,1.7,0.9,2.4,1.7
			L80.1,32.8z M70.8,22.7c3,1.5,6.3,2.3,9,4.6l2.1,2.4l0.2,2.5L81,34.5c0.2-1.6,0.3-3.3-0.7-4.6C77.2,28.2,74,27,70.7,26
			C70.7,24.9,69.4,23.6,70.8,22.7z M60.1,17l9.9,5c-0.1,0.4-0.7,0.7-0.9,1.1c0,0.6,0.3,1.1,0.6,1.7c-4.7-2.6-9.2-5.9-14.2-8l-7.6-3
			c-1.4-0.9-3-2.3-3.5-3.9C50.1,10.8,54.9,14.4,60.1,17z M24.6,3.1c3.3,1.8,6.9,2.6,10,4.8c2.6,2.5,5.7,5.2,9.7,5
			c-0.1,2.5-2.6,0.5-3.8,0.5c-4.3-1.9-7.7-5.5-12.2-7C26.6,5.9,25.2,4.6,24.6,3.1z M25.7,9.6c-2.2,1.8-4.5-0.7-6.7-0.3
			c-0.4-0.1-0.7-0.1-1-0.4c1.6-1.8,3.8-0.2,5.7-0.1l1.9,0.3C25.8,9.3,25.9,9.4,25.7,9.6z M13.2,6.3l0.1-0.2c1.1-0.2,2.5-0.3,3.6-0.1
			c2.1,0.1,4.6,0.4,6.8,0c0.5,0,1,0.3,1.4,0.6c0.2,0.4,0.6,0.8,0.4,1.4c-1,1-2.7,0.3-3.8,0.1L19,6.9C17.2,6.8,14.9,7.1,13.2,6.3z
			 M11.4,11.6c3.7-0.4,6.8-0.8,10.6-0.4l4.4,0.6l1.2,2.4c-5.2-1.3-10.8-1.8-16.3-2.6L11.4,11.6z M11.6,13.5h2.7l4.7,3.2
			c1.9,0.3,3.7,0.2,5.5,0.5v0.1c-1.2,0.3-2.6,0.4-3.8,0.7c0.7,0.4,1.4,0.8,2.2,1l-0.6-0.7c2.9-0.2,6.3,0.1,9.2,0.5l0.3,1.3
			c-2.2-0.9-4.7-0.4-6.8-0.4c0.3,0.4,1,0.2,1.2,0.6l-1.4,0.6l-8.2-2.3L11.6,13.5z M11.6,18.9v-0.7c5.5,1.7,11.1,2.9,16.7,4.3
			c-0.8,0.5-1.9,0.5-2.7,1L26,24c4.7-0.2,8.9,1.2,13.3,1.8v1.8c-4.7,0.4-8.6-2-12.8-3.3c0.1,0.3,0.5,0.5,0.7,0.7
			c-2.7-0.4-5.7-1.3-8.6-1.9L11.6,18.9z M13.3,23.3c3-0.6,5.8,1.2,8.8,1.6c0.2,0.4-1.3,0.9-0.3,1.2c0.7-0.3,1.6,0.1,2.4-0.2
			c5.8-0.4,10.3,2.1,15.6,2.4l1.3,1.2l-0.1,0.1c-6.5-0.3-12.3-3.6-18.8-3.3l1.4,0.7c-2.8,0-5.7-1.2-8.5-1.6L13.3,23.3z M15.6,26.6
			c5.4,1,11.2,1.5,16.2,3.8l0.9,1.1c-2.3-0.6-4.7-1.4-7.1-2c-2.1,0.1-4.5-0.2-6.9-0.2C17.7,28.3,16.5,27.4,15.6,26.6z M17.3,31.3
			c3.4-0.4,7.6-0.4,11.4-0.7v0.1l-3.6,1.1c2.9,1.3,6.2,1.9,9.2,2.9c-0.8,0.2-1.5,0.2-2.4,0C26.8,34,22.1,32.7,17.3,31.3z M18.3,32.5
			l8.3,2.1l10.8,1.6l1.1,2l-12.8-2.4C23.2,34.9,20.5,34.2,18.3,32.5z M22.1,37.8l3.7-0.7c4.8,0.9,9.8,1.4,14.5,2.8
			c0.4,0.6,0.8,1.2,1.2,1.8l-9.6-1.5L22.1,37.8z M24,42.6v-0.1c1.8-0.2,3.7-0.1,5.5-0.4c2.6,0.2,5.7,0.4,8.4,0.5
			c1-0.3,1.6,0.7,2.4,1.1c0.1-0.4-0.4-1.1,0.2-1.4c1.4-0.1,2.6,0.6,4,0.8c1,0.3,2.8-0.2,3.3,1.3c0.1,0.6-0.1,1.1-0.3,1.5
			c-0.9,0.9-1.5-0.8-2.4-0.9c-1.5-0.5-3.4,0-4.6-1.1c-0.8,0.1-1.7,0.2-2.5,0.3c0.4,0.5,1.1,0.9,1.5,1.4l-10.8-0.5
			C27.1,44.3,25.5,43.5,24,42.6z M23.6,47.3l0.5-1.5c4.7,0.4,9.6,0.5,14.4,0.8l-0.7,1.2c0.5,0.4,1.2,0.7,1.6,1.2L31.8,49
			C29.1,48.4,26,48.6,23.6,47.3z M29,53.2l-0.9-1.4c0.5-0.7,1.3-1.1,2-1.7h7.7c1.3,0.8-0.2,1.6-0.5,2.3l2.3,2
			C35.9,54.5,32.5,53.8,29,53.2z M32.4,56.1l-1.3-0.8c0.5-0.3,1.1-0.5,1.7-0.7l5.8,1.1c0.8-0.7,2.2-0.2,3.3-0.4
			c0.7-0.2,1.7-0.3,2.3,0.3c0.5,0.4,1,1,0.9,1.5c-2.2-0.4-5.4,1.8-6.2-1.2l-0.1-0.1c-0.2,0.2-0.2,0.5-0.3,0.8
			C36.4,56.5,34.4,56.4,32.4,56.1z M35.8,59.1c-0.2-0.4-0.2-0.8-0.2-1.2c1.1-0.1,2.5-0.3,3.5-0.4c0.2,0.2,0.5,0.4,0.6,0.7
			C38.4,58.7,37,58.9,35.8,59.1z M41.6,60c-0.5-0.1-0.8-0.6-1-1.1c-0.1-0.3,0-0.7,0.3-0.9c1.3-0.1,2.7,0.3,4-0.1
			c0.7-0.2,1.3,0.4,1.7,1c0.3,0.4,0.4,0.8,0.4,1.3C45.2,60,43.2,60,41.6,60z M39.7,65.6c1.4-0.9,3.2-1.4,4.8-2.2
			c1,0,1.8-0.3,2.8-0.3c-1.9,1.4-3.9,2.6-6.1,3.4C40.7,66.3,40.2,65.8,39.7,65.6z M34.6,69.3c1.1-0.7,2.5-0.8,3.6-1.4
			c1.1-0.2,2.1-1.5,3.2-0.3v0.1c-2.1,1.3-4.2,2.7-6.4,3.8C34.2,71.1,34.5,70.1,34.6,69.3z M12.2,83.6h-0.7c-0.1-0.3,0.2-0.6,0.2-0.9
			c4.9-3.4,10.3-5.2,15.7-7.4l6.8-4l-0.6,1.2l-12.6,7.9C18.2,82.1,15.2,82.8,12.2,83.6z M24.8,82.1l-5.9,3l-2.2,0.7l0.1-1l4-2.7l0,0
			c2.2-2.7,14-9.3,14.9-9.7l0,1.8l-9,6.5L24.8,82.1z M32.8,82.8l-9.7,3.4c1.1-1.6,2.5-3.4,3.8-4.9c4.5-3.2,9-6.4,13.6-9.5l0.6,2.3
			C38.4,77,35.3,79.7,32.8,82.8z M40.6,81.9c-2.4,1-4.7,2.2-7.2,3c-0.1-0.6,0.3-1.1,0.2-1.8l7.9-8.4l3,1.8
			C43.3,78.3,41.9,80.2,40.6,81.9z M50.1,72.5v0.1c-1.8,1.1-4.3,1.2-5.3,3.5c-0.7-0.2-1.2-1.5-2.1-1.7c1.6-1.5,3.8-3.1,5.6-4.6
			c0.1,0,0.2,0.2,0.3,0.3l-0.8,2C48.6,72.3,49.4,72.5,50.1,72.5z M41.3,83.7l0.2-1.5l3.6-5.4l1,0.3c0.2,0.9-0.3,1.7-0.1,2.6
			c0.8-0.5,1.5-1.1,2.3-1.7l1,1.8C46.7,81.2,44.1,82.6,41.3,83.7z M49.3,76.7l-2,1.2c-0.1-0.2,0.1-0.6,0.2-0.8
			c-0.4-0.5-1.2-0.5-1.7-0.9l0.1-0.1c1.7-1.8,4-2,6.1-3c0.5,0,1,0.1,1.3,0.3c-0.9,0.3-1.8,0.4-2.7,0.7L49.3,76.7z M51.6,74.9
			c0.7-0.1,1.4-0.3,2.1-0.3c-1.1,1.6-2.3,3.3-3.6,4.7l-0.6-1.1L51.6,74.9z M50,81.8L50,80.3c2.1-1.6,3.7-3.7,5-5.9v1.9l1,1.3
			C54.4,79.8,52.1,80.6,50,81.8z M68.5,88.9v0.2c-0.4-0.8-0.5-2-0.1-2.8c0.5,0.3,1.1,0.7,1.5,1.2C69.4,87.8,68.6,88.1,68.5,88.9z
			 M76.3,95.3c-0.3,0.1-0.4,0.5-0.7,0.7c-0.2-0.4,0-0.9-0.1-1.4C75.8,94.7,76.4,94.8,76.3,95.3z M85.1,94.6
			c-1.8,0.6-2.9-0.9-4.6-0.8l-1-0.7c0,0.7-0.1,1.5-0.9,1.8c-1.1,0.7-1.8-1-2.8-1.2c-0.1-0.6,0.7-0.7,1.1-1c0.6-0.2,1.2,0,1.7,0.2
			c-1.1-3-4.8-3-7-4.9c0.1,0,0.4,0.2,0.6,0.1c-1.2-0.9-2.6-2.1-4-3c-1.5-1-3.4-1.3-4.7-2.7l-1.3-0.1c-0.9-0.8-1.8-1.7-2.8-2.1
			c-0.3-1.8-1.5-3.6-3.4-4.2c0.1-0.4,0.5-0.7,0.7-1.1c0.5-0.1,1.2-0.2,1.7,0.1c0.4,0.5-0.5,1.2,0.1,1.6c0.8,0.3,2-0.5,2.4,0.4
			c-0.1,0.6-0.2,1.1-0.2,1.7c0.8,0.6,2.1,0.1,2.6,1.1c0.1,0.8,0,1.8,0.5,2.3c0.7,0.5,1.6,0.4,2.4,0.5c0.1-0.3,0.3-0.5,0.3-0.8
			c-1-0.2-2.1-0.2-2.7-1.2c-0.2-1,0.5-1.8,0.6-2.7c-0.9-0.2-1.7,0.5-2.6,0.2c-0.3-0.8,0.5-2.3-0.7-2.6c-0.6-0.1-1.1,0.2-1.6,0
			c-0.2-0.8,0.7-1.2,1-1.9c-0.9-0.1-2.1,1.9-2.6,0.1c0.9-0.9,2.3-1.5,2.6-2.8V71c-1.5,1.3-3.2,2.5-5.3,2.4c-0.3-0.4-0.1-1-0.2-1.5
			c-1-0.2-1.7,0.6-2.6,0.7c-0.3-0.3,0-0.6,0.2-0.8c0.3-0.3,0.5-0.7,0.9-1c-1.4-0.6-2.8,0.3-4.1,0.4c-0.1-0.3,0-0.6,0.2-0.8l0.4-0.3
			c-0.4-0.5-0.9-1.2-1.7-1c-2,1.5-4,3.1-6.1,4.6l-0.3-2.3l3.2-2.1c0.9,0.5,1.9,0.1,2.8-0.1l-2.1-0.2V69l2.9-2
			c1.3,0.6,2.1,1.5,3.8,1.1h0.1c-0.1,0.6-0.5,1.2-0.8,1.9c-0.3,0.1-0.6,0-0.8,0.2c0.6,0.1,1.2,0.1,1.7-0.2c0.7-0.5,0.9-1.4,0.7-2.1
			l-2.6-0.5c1.4-0.3,3.2-0.5,4.4-1.5c2.1-1.8,4.4-3.8,7.4-3.3c-0.3,0.5-0.8,0.9-1.2,1.2c-2.1,1.2-4.5,2.2-6.1,4.2
			c-0.2,0.5,0,1.2,0.3,1.7c0.4,0.1,0.7-0.1,0.7-0.5c-0.5-2.7,2.5-2.7,4-3.7l2.9-2.3c0.3,0,0.5,0.3,0.7,0.2c-0.2-0.4-0.7-0.6-0.7-1.1
			c0.2,0.1,0.4,0.4,0.6,0.5c0.2-0.4,0.5-0.7,0.9-0.9c0.9-0.1,1.6,0.1,2.1,0.7c0,0.7-1.1,0.8-1.2,1.4c1.1,0.9,2.4,1.1,3.6,1.7
			c0.4,1.1-0.5,1.8-0.5,2.7c0.7,0.4,2.3-0.6,2.7,0.6l0.1,0.1c-0.6,0.7-1.3,1-2,1.6c-0.5-1.3-2.8-1.9-2.1-3.6c0.1-0.5,0.5-1,0.1-1.5
			c-1-0.9-2.4-1-3.2-2.1c-0.1,0.6-0.5,1.5,0.1,2c0.6,0.1,1.1-0.3,1.7-0.3c0.1,0.5-0.6,1-0.8,1.5c0.5,0.2,0.9-0.4,1.5-0.3
			c-0.1,0.9-0.7,2,0.1,2.8c3.1,2.7,3.1,6.7,4.5,10.2c1.3,4.2,4.1,8.2,7.8,10.9c0.6,0.3,1.3,0.5,2,0.3c0.7-0.9,1.4-1.9,2.5-2.2
			c0.4-0.1,1,0.1,0.9,0.5c0,0.4,0,1.1-0.6,1.1c-0.8-0.1-1.6,0.3-2.2,0.8c1.7,0.2,3.3-0.1,4.9-0.3c0.2,0,0.5,0.2,0.6,0.4
			c-0.2,0.6-0.9,1.3-1.5,1.7c-1.5,0.5-2.6-0.9-4-0.1c1.4,0.9,3.4,0.9,5.1,0.8C86.5,93.8,85.6,94.2,85.1,94.6z M87.6,95.9
			c-0.1-0.3-0.1-0.7-0.4-0.9L86.4,95c0.2-0.4,0.5-0.8,0.8-1.2c0.3,0,0.5,0.3,0.7,0.5C87.9,94.8,87.9,95.4,87.6,95.9z M88.5,92.8
			c-0.4,0-0.8-0.3-1.2-0.3l0.5-1.2C88.3,91.6,88.6,92.1,88.5,92.8z"/>
		<g>
			<path d="M64.8,67.9c0.3,0.7,0.2,1.7-0.3,2.3c-0.9,0.9-2.1-0.1-3-0.4c0.9-0.4,2.1-0.3,2.7-1.4v-1.5C64.4,67,64.6,67.5,64.8,67.9z"
				/>
			<path d="M73.7,88.1l0.8-1.2C74.4,87.3,74.3,87.9,73.7,88.1z"/>
		</g>
	</g>
</g>
</svg>
