<?xml version="1.0" encoding="utf-8"?>
<!-- Generator: Adobe Illustrator 25.3.1, SVG Export Plug-In . SVG Version: 6.00 Build 0)  -->
<svg version="1.1" xmlns="http://www.w3.org/2000/svg" xmlns:xlink="http://www.w3.org/1999/xlink" x="0px" y="0px"
	 viewBox="0 0 625.6 1017.8" enable-background="new 0 0 761.6 1017.8" xml:space="preserve">
<g id="MASKF">
<g id="BODY">
	<!--<path fill="#FFFFFF" stroke="#897F76" stroke-width="0.5" d="M230.4,658.7c28.7-2.2,58.7-5.6,84-8.7c3.8-18.4,7.3-35.2,8.8-41.3
		c3.7-14.9,6-35.7,21.6-40.6c15.6-4.8,49-1,62.9,12.7c17.2,16.9,23.2,43.7,27.5,64.5c46,3.5,110.5,7.6,142.8,5.4
		c33.5-2.2,67-7.3,87.3-10.7c0.2-4.1,0.4-8.2,0.5-11.9c0.7-18.9,0.5-45.9-0.2-51.4c-0.7-5.5-9.2-61.3-9.9-67.3
		c-0.7-6-7.9-48.1-8.4-51.6c-0.5-3.5-7.9-25.3-11.9-38.7c-4-13.4-15.6-51.7-17-57.4c-1.4-5.7-3.7-18-4-20.1c-0.3-2.1-0.8-9.8-1-11.3
		c-0.1-1.5-2.2-8.6-2.2-8.6s-0.5-3.6-1.3-7.9c-0.8-4.3-1.2-9.7-1.2-9.7s0.1-2.5,0.1-4.7c0-2.2-1.2-5.3-1.2-5.3s0-2.9-0.4-7
		c-0.4-4-2.4-6.8-2.4-6.8l-4.4-17c0,0-0.2-0.4-1-2.6c-0.8-2.1-0.5-6.9-0.4-7.4c0.1-0.5,0.3-5.1,0.3-6.5c0-1.5,0.3-9.1-0.2-10.4
		c-0.5-1.3-1-4.6-1.4-6.8c-0.4-2.2-0.3-7.6-0.1-8.3c0.1-0.4-0.4-1.9-0.8-2.8c0-0.2,0.1-0.4,0.1-0.6c1-9.5-38.7-15-233.3-17.5
		c-182-2.3-195.3,15.2-196.2,17.4c-0.3-0.1-0.4-0.2-0.4-0.2s1,3.8,1,8.6c0,4.7-2,7.2-2.5,9.7c-0.5,2.5,1,7.4,1,8.9
		c0,1.5-1,3.7-1.2,5c-0.2,1.2,0.2,3.2,0.2,4.7c0,1.5-0.7,6.7-1.5,8.2c-0.7,1.5-3.2,11.4-4,15.6c-0.7,4.2-3,21.6-3.5,24.3
		c-0.5,2.7-1.2,18.1-2,21.1c-0.7,3-7.2,21.6-7.4,23.8c-0.2,2.2-5.5,19.4-6,20.8C140.6,370,130.2,402,128,407c-2.2,5-8.2,27.5-8.7,29
		c-0.5,1.5-4.2,33.7-6.9,49.9c-2.7,16.1-9.4,46.9-11.7,57.6c-2.2,10.7-5,44.7-5.2,60.3c-0.1,8.7,1,28.9,2,45.4
		C123.7,654,179.9,662.6,230.4,658.7z"/> -->
<path fill="#FFFFFF" stroke="#897F76" stroke-width="0.5" d="M665.7,576.7c-0.7-5.5-9.2-61.4-10-67.3c-0.7-6-7.9-48.1-8.4-51.6
			c-0.5-3.5-7.9-25.3-11.9-38.8c-4-13.4-15.7-51.7-17-57.5c-1.4-5.7-3.8-18-4.1-20c-0.3-2.1-0.8-9.9-0.9-11.3
			c-0.1-1.4-2.2-8.5-2.2-8.5s-0.5-3.6-1.3-7.9c-0.8-4.4-1.2-9.7-1.2-9.7s0.1-2.4,0.1-4.7c0-2.2-1.2-5.3-1.2-5.3s0-3-0.4-6.9
			c-0.4-4.1-2.4-6.8-2.4-6.8l-4.4-17c0,0-0.2-0.4-1-2.5c-0.8-2.1-0.5-6.9-0.4-7.4c0.1-0.5,0.3-5.1,0.3-6.5s0.3-9.1-0.2-10.4
			c-0.5-1.3-1-4.6-1.4-6.8s-0.3-7.6-0.1-8.2c0.1-0.4-0.4-1.8-0.8-2.7c0-0.2,0.1-0.4,0.1-0.6c0.9-9.6-38.8-15-233.4-17.5
			c-182.1-2.3-195.3,15.2-196.3,17.4c-0.2-0.1-0.4-0.2-0.4-0.2s1,3.9,1,8.5c0,4.7-2,7.2-2.4,9.7c-0.5,2.4,1,7.4,1,9
			c0,1.5-1,3.8-1.2,5c-0.2,1.2,0.2,3.3,0.2,4.7c0,1.5-0.7,6.7-1.5,8.2c-0.7,1.5-3.3,11.4-4,15.7c-0.7,4.2-3,21.6-3.5,24.3
			c-0.5,2.7-1.2,18.1-2,21.1c-0.7,3-7.2,21.6-7.4,23.8c-0.2,2.2-5.5,19.3-6,20.9s-10.9,33.5-13.1,38.5c-2.2,5-8.2,27.6-8.7,29
			c-0.5,1.5-4.2,33.8-6.9,49.9c-2.7,16.2-9.5,46.9-11.7,57.6s-5,44.7-5.2,60.3c-0.2,15.7,3.5,68,3.5,70.5c0,2.4,3.5,33.3,3.8,35
			c0.2,1.7,1.2,9.2,1.2,10c0,0.7,2.4,20.6,2.7,23.1c0.2,2.4,4,25.3,4,25.3s0,3.5,0.7,5.2c0.7,1.7,2.2,3,4.5,3.8
			c2.2,0.7,11.9,3.3,37.8,6.2c25.8,3,71.2,0.2,93.6-3c22.4-3.3,44.2-10.4,44.2-10.4s0.7,0,1.7,0.1c2.3-15.7,7.9-52.4,9.1-58.3
			c1.5-7.4,17.5-87.5,21.3-102.4c3.8-14.9,6-35.7,21.6-40.6c15.7-4.9,48.9-1,62.9,12.6c22,21.6,25.6,59.2,30.9,80.1
			c5.2,20.9,13.4,56.3,13.7,61.5c0.4,5.2,5.2,21.6,5.2,21.6l-1.5,2.6c0,0-0.4,3.4,1.1,5.2s2.2,4.1,1.1,5.6s-1.8,3.8-1.1,5.2
			c0.7,1.5,3.8,6.3,3.8,7.4c0,0.6,0.1,5,0.2,8.8c1.4,0.2,2.7,0.3,2.7,0.3s28.3,8.7,65.3,12.9c36.9,4.2,78.7-0.7,89.4-1.5
			c10.7-0.7,24.3-3,27.6-3.8c3.3-0.7,4-2.7,5-4.2c1-1.5,1.7-15.2,1.7-16.2c0-1,0-4.2,0-4.2s-0.7-2-0.7-3c0-1,1.7-2,2.4-3.3
			s-0.5-4-0.5-4s-0.5-3.5-0.5-4.5c0-1,0.7-8.2,0.7-10.2c0-2,2-14.3,2.4-17.1c0.5-2.7,4-28.6,5.5-37.2s3-36,3.8-54.9
			C666.7,609.3,666.4,582.2,665.7,576.7z"/>
</g>
</g>	
<g id="SHORT_LEG_STRIPE">
	<g>
		<path fill="#897F76" d="M230.4,658.7c-50.5,3.9-106.7-4.7-133-9.5c0.5,8.7,1,16.4,1.3,20.9c26.8,4.9,82,13.1,131.7,9.3
			c27-2.1,55.3-5.2,79.7-8.1c1.4-7,2.9-14.2,4.3-21.2C289.1,653.1,259.1,656.4,230.4,658.7z"/>
		<path fill="#897F76" d="M578.1,671.4c32.9-2.2,65.7-7.1,86.2-10.5c0.4-6.7,0.8-13.9,1.2-20.9c-20.4,3.4-53.8,8.5-87.3,10.7
			c-32.3,2.2-96.8-1.9-142.8-5.4c1.2,5.8,2.2,11.1,3.4,15.6c0.4,1.7,0.9,3.6,1.4,5.5C485.6,669.7,546.9,673.4,578.1,671.4z"/>
	</g>
</g>	
<g id="STITCHING">
	<g>
		
			<path opacity="0.5" fill="none" stroke="#897F76" stroke-width="1.1949" stroke-miterlimit="10" stroke-dasharray="2.8792,1.4396" d="
			M167.9,226.3c0,0,13.2,9.4,24.6,14.2c11.4,4.8,56.3,18.8,86.4,22.3c30.2,3.5,96.1,2.3,143.4,0.5c47.4-1.8,112.3-7.1,118.9-7.6
			c6.6-0.5,18.5-1.3,20.8-1.8c2.3-0.5,19.8-4.6,24.6-8.4c4.8-3.8,6.3-5.6,7.3-7.1c1-1.5,1.9-4.6,1.9-4.6l1.5-8"/>
		
			<path opacity="0.5" fill="none" stroke="#897F76" stroke-width="1.1949" stroke-miterlimit="10" stroke-dasharray="2.8792,1.4396" d="
			M166.4,244.9c0.3,1.1,1,4.7,2,6c1,1.3,14.4,9.1,38.8,17c24.3,7.9,70.5,18.8,100.9,20.5c30.4,1.8,92-3,136.6-2.5
			c44.6,0.5,109-8.6,127-12.7c18-4.1,25.8-15.7,25.8-15.7"/>
		
			<path opacity="0.5" fill="none" stroke="#897F76" stroke-width="1.1949" stroke-miterlimit="10" stroke-dasharray="2.8792,1.4396" d="
			M164.6,260c0,0,15.5,12.4,56,24.6c40.5,12.2,77.3,19.8,159.4,16.2c82.1-3.5,130-4.1,163.7-9.9c33.7-5.8,37.8-8.6,40.8-9.9
			c3-1.3,8.1-3.5,9.4-4.8c1.3-1.3,3.5-4.7,3.5-4.7"/>
		
			<path opacity="0.5" fill="none" stroke="#897F76" stroke-width="1.1949" stroke-miterlimit="10" stroke-dasharray="2.8792,1.4396" d="
			M106.6,742.2c0,0,28.8,5.7,58.9,6.9c30.1,1.1,41.8,4,82-2.7c40.3-6.7,56.3-9.7,62-12.2c5.7-2.5,11.8-4.6,14.7-6.5
			c2.9-1.9,6.3-4.2,6.5-5c0.2-0.8,2.1-4.8,2.1-4.8"/>
		
			<path opacity="0.5" fill="none" stroke="#897F76" stroke-width="1.1949" stroke-miterlimit="10" stroke-dasharray="2.8792,1.4396" d="
			M107.7,749.8c0,0,38.2,8.6,71,8.6c32.8,0,65.1-2.3,97.1-9c32.1-6.7,43.5-9.9,45.4-11.1c1.9-1.1,4.6-2.3,4.6-2.3"/>
		
			<path opacity="0.5" fill="none" stroke="#897F76" stroke-width="1.1949" stroke-miterlimit="10" stroke-dasharray="2.8792,1.4396" d="
			M445.3,753.1c0,0,2.9,2.9,8.1,3.8c2.9,0.5,4.9,0.3,4.9,0.3s43.2,6.2,54.9,7.8c11.7,1.7,37.6,6.7,74.9,3.6
			c37.3-3.1,64.6-6.6,64.6-6.6"/>
		
			<path opacity="0.5" fill="none" stroke="#897F76" stroke-width="1.1949" stroke-miterlimit="10" stroke-dasharray="2.8792,1.4396" d="
			M442.5,743.1c0,0-1.4,5,24.9,8.6c26.3,3.6,60.6,11.7,111.5,8.4c51-3.4,73.7-6.3,75.2-8.2"/>
	</g>
	
		<path opacity="0.5" fill="none" stroke="#897F76" stroke-width="0.7966" stroke-miterlimit="10" stroke-dasharray="2.8792,1.4396" d="
		M597.5,224.8c0,0-0.5,4-1,6.1c-0.5,2-1,4.6-1,6.3c0,1.8,0.3,4.3,0.8,5.8c0.5,1.5,3.2,8.8,2.8,10.3c-0.5,1.6-2.2,5.1-2.2,7.1
		c0,2,0.8,13.7,1.5,16.7c0.8,3,4.3,16.5,5.8,19c1.5,2.5,2.3,5.8,2.5,7.3c0.3,1.5,2.5,7.6,2.5,7.6"/>
	
		<path opacity="0.5" fill="none" stroke="#897F76" stroke-width="0.7966" stroke-miterlimit="10" stroke-dasharray="2.8792,1.4396" d="
		M461,779.2c0,0,0-8.2,0-9.3c0-1.1-3-6-3.7-7.4c-0.7-1.5,0-3.7,1.1-5.2c1.1-1.5,0.4-3.7-1.1-5.6c-1.5-1.9-1.1-5.2-1.1-5.2l1.5-2.6
		c0,0-4.8-16.4-5.2-21.6c-0.4-5.2-8.6-40.6-13.8-61.4c-5.2-20.8-8.9-58.4-30.9-80c-13.9-13.7-47.3-17.5-62.9-12.7
		c-15.6,4.8-17.9,25.7-21.6,40.6c-3.7,14.9-19.7,94.9-21.2,102.4c-1.5,7.4-8.6,57.7-8.6,57.7"/>
	<path fill="none" stroke="#897F76" stroke-width="1.1949" stroke-miterlimit="10" stroke-dasharray="2.8792,1.4396" d="
		M184.1,226.3c0,0,2.9-19.2,200.4-17.2c208.8,2.1,206.7,17.2,206.7,17.2"/>
	<path fill="none" stroke="#897F76" stroke-width="1.1949" stroke-miterlimit="10" stroke-dasharray="2.8792,1.4396" d="
		M193.4,230.1c0,0-6.3-16.8,191.1-14.8c208.8,2.1,202,16.5,202,16.5"/>
</g>
<g id="SHORT_LOWER_LEG">
	<g>
		<path stroke="#897F76" stroke-width="0.5" d="M98.7,670.1c0.1,2.3,0.2,3.7,0.2,4.1c0,2.5,3.5,33.3,3.7,35c0.2,1.7,1.2,9.2,1.2,9.9
			c0,0.7,2.5,20.6,2.7,23.1c0.2,2.5,4,25.3,4,25.3s0,3.5,0.7,5.2c0.7,1.7,2.2,3,4.5,3.7c2.2,0.7,11.9,3.2,37.7,6.2
			c25.8,3,71.2,0.3,93.6-3c22.3-3.2,44.2-10.4,44.2-10.4s0.7,0,1.7,0.1c2.4-15.6,7.9-52.4,9.1-58.3c0.7-3.3,4.1-20.4,8-39.8
			c-24.4,3-52.6,6-79.7,8.1C180.7,683.2,125.5,675,98.7,670.1z"/>
		<path stroke="#897F76" stroke-width="0.5" d="M578.1,671.4c-31.2,2.1-92.5-1.6-138.1-5c5.2,21,12.1,51.1,12.4,55.9
			c0.4,5.2,5.2,21.6,5.2,21.6l-1.5,2.6c0,0-0.4,3.4,1.1,5.2c1.5,1.9,2.2,4.1,1.1,5.6c-1.1,1.5-1.9,3.7-1.1,5.2
			c0.7,1.5,3.7,6.3,3.7,7.4c0,0.6,0.1,5,0.2,8.8c1.4,0.2,2.8,0.3,2.8,0.3s28.3,8.7,65.3,12.9c37,4.2,78.7-0.7,89.3-1.5
			c10.7-0.7,24.3-3,27.5-3.7c3.2-0.7,4-2.7,5-4.2c1-1.5,1.7-15.1,1.7-16.1c0-1,0-4.2,0-4.2s-0.7-2-0.7-3c0-1,1.7-2,2.5-3.2
			c0.7-1.2-0.5-4-0.5-4s-0.5-3.5-0.5-4.5c0-1,0.7-8.2,0.7-10.2c0-2,2-14.4,2.5-17.1c0.5-2.7,4-28.5,5.5-37.2
			c0.7-4.1,1.4-12.4,2-22.1C643.8,664.3,611,669.2,578.1,671.4z"/>
	</g>
</g>
		
<g id="CUSTOM"></g>	
<g id="CROTCH">
	<path fill="#FFFFFF" stroke="#897F76" stroke-width="0.5" d="M457.3,762.4c-0.7-1.5,0-3.7,1.1-5.2c1.1-1.5,0.4-3.7-1.1-5.6
		c-1.5-1.9-1.1-5.2-1.1-5.2l1.5-2.6c0,0-4.8-16.4-5.2-21.6c-0.4-5.2-8.6-40.6-13.8-61.4c-5.2-20.8-8.9-58.4-30.9-80
		c-13.9-13.7-47.3-17.5-62.9-12.7c-15.6,4.8-17.9,25.7-21.6,40.6c-3.7,14.9-19.7,94.9-21.2,102.4c-1.2,5.8-6.7,42.6-9.1,58.3
		c1.3,0,3.1,0.1,4.2-0.1c2-0.2,3.7-2.7,3.7-2.7s4.2-1,8.2-2c4-1,7.9-3.2,11.4-6.7c3.5-3.5,2.2-10.2,2.2-10.2s2.5-9.4,3.2-12.2
		c0.7-2.7,5.2-11.9,6.2-14.1c1-2.2,0.7-5,0.7-5s11.9-28.5,19.1-50.9c7.2-22.3,23.1-97.3,23.1-97.3l14.6,4.5c0,0,3.2,11.2,3.5,14.6
		c0.3,3.5,6.5,27,7.7,32c1.2,5,9.9,35.2,12.9,43.9c3,8.7,16.9,45.9,19.4,51.9c2.5,6,8.4,18.1,8.7,19.4c0.2,1.2,0.2,3.5,0.2,4.7
		c0,1.2,0.7,5,0.7,5l1.5,2c0,0,0,2.5,0.2,3.7c0.3,1.2,1.2,3.7,1.5,4.5c0.3,0.7,2.2,9.7,2.2,9.7v2.7l0.5,2.5c0,0,2.2,3.5,3,4.7
		c0.7,1.2,6,4.2,7.7,4.5c0.5,0.1,1.1,0.1,1.7,0.2c-0.1-3.8-0.2-8.2-0.2-8.8C461,768.8,458,763.9,457.3,762.4z"/>
</g>
<g id="SHADING">
	<g opacity="5.000000e-02">
		<g>
			
				<image overflow="visible" opacity="0.6" width="448" height="71" xlink:href="DE6D7B07.png"  transform="matrix(1 0 0 1 158.112 190.9692)">
			</image>
			<g>
				<g>
					<path d="M167.2,218.2c0,0,1.7-20.2,196.3-17.7c194.6,2.5,234.3,8,233.3,17.5c-1.3,12.5-25.4,22.5-62.5,25
						c-52.5,3.5-178.8,16.5-277.6,2.7c-40.1-5.6-70.5-18.5-75.2-20.6C179.1,224.1,167.2,218.2,167.2,218.2z"/>
				</g>
			</g>
		</g>
	</g>
	<g>
		<g>
			<polygon fill-rule="evenodd" clip-rule="evenodd" points="239.3,356.4 246.5,349.2 239.3,349.2 			"/>
			<polygon fill-rule="evenodd" clip-rule="evenodd" points="239.3,358.6 246.5,365.7 239.3,365.7 			"/>
			<rect x="231.8" y="349.2" width="6" height="16.5"/>
			<path fill-rule="evenodd" clip-rule="evenodd" d="M221.9,345.6c-6.6,0-12,5.4-12,12c0,6.6,5.4,12,12,12h21.9c6.6,0,12-5.4,12-12
				c0-6.6-5.4-12-12-12H221.9z M211.2,357.5c0-5.9,4.8-10.7,10.7-10.7h21.9c5.9,0,10.7,4.8,10.7,10.7c0,5.9-4.8,10.7-10.7,10.7
				h-21.9C216,368.2,211.2,363.4,211.2,357.5z"/>
			<path d="M214.1,357.5c0-4.4,3.4-7.9,7.7-8.2v16.5C217.5,365.4,214.1,361.9,214.1,357.5z"/>
			<polygon fill-rule="evenodd" clip-rule="evenodd" points="230.3,356.4 223.1,349.2 230.3,349.2 			"/>
			<polygon fill-rule="evenodd" clip-rule="evenodd" points="230.3,358.6 223.1,365.7 230.3,365.7 			"/>
		</g>
	</g>
	<g opacity="2.000000e-02">
		<path d="M596.9,218.7L596.9,218.7c0,0-2.6,5.6-4.6,7.8c-4.7,5.1-15.9,9-15.9,9s2.5,7.5,3,9c0.5,1.5,3.5,3.5,3.5,3.5
			s1.3,11.1,1.7,14.7c0,0.2,0.1,0.4,0.1,0.7c0.2,2.5-3.7,7.4-3.7,7.4v9.9l3.7,0.4c0,0,15.1,42.7,17.1,50.2
			c2,7.4,11.9,39.7,11.9,45.2c0,5.5,7.9,26.3,8.4,28.8c0.5,2.5,13.9,55.6,15.9,59.6c2,4,6.5,42.2,8.9,49.6
			c2.5,7.4,3.5,13.9,5.5,24.3c2,10.4,0.5,24.3,3.5,30.8c3,6.5,9.9,44.7,9.9,44.7s1.5-28.8-0.5-41.2c-2-12.4-8.4-49.1-8.4-54.1
			c0-5-6-46.7-8.4-55.6c-2.5-8.9-22.3-73-23.8-77.4c-1.5-4.5-9.8-40.4-10.1-44.3c-0.3-3.9-2.8-19.3-3.8-22.2c-1-3-2-10.5-1.9-15.2
			c0.1-4.7-1-10-1-10l-0.4-7l-2.4-6.8c0,0-3.2-8.7-3.2-10.7c0-2-2-6.4-2.3-8.9c-0.2-2.5-0.2-5.5-0.2-5.5s-0.1-6.4,0-8.9
			c0,0,0.2-6.9-0.2-9.9c-0.4-3-1.7-8.2-1.7-10.7C597.4,224.4,597.8,218.7,596.9,218.7"/>
		<path d="M158.1,781l-0.1,1.4l48.6,1c0,0,0.1-0.2,0.3-0.7C196.7,782.6,176.8,782,158.1,781 M196.8,473c-1.9,0-3.4,0.8-4.1,2.6
			c-3,7.9-4,29.8-3,64.5c1,34.7-5,31.8-6.9,59.6c-2,27.8,3,32.8,7.9,47.6c5,14.9,19.9,50.6,26.8,73.5c6.4,21.1-8.3,56.5-10.6,61.9
			c1.1,0,2.1,0,2.9,0c17.9,0,84.3-13.2,84.3-13.2s2.9-23.7,7.1-52.5c4.6-31.8,12.6-74.5,20.6-105.1c1.8-8,3.8-15.8,5.9-22.3
			c2-6.4,4.9-11,7.4-14.1c0.2-0.3,0.4-0.5,0.6-0.7c2.2-2.7,3.9-3.9,3.9-3.9s-17.9-9.9-20.8-9.9c-3,0-21.8-9.9-36.7-24.8
			c-14.9-14.9-57.6-44.7-63.5-50.6C214,481.1,203.1,473,196.8,473 M166.9,217.7l-1.5,36.8c0,0-2.5,10.7-4.5,15.6
			c-2,5-3,27.8-4.5,32.5c-1.5,4.7-0.5,16.1-2.5,25.1c-2,8.9-26.1,79.2-30.8,90.3c-4.7,11.2-6,35.7-7.9,48.6
			c-2,12.9-16.9,99.3-20.8,132c-4,32.8,14.9,155.8,14.9,155.8l1.2,12.9c0,0,0.7,5.2,5.2,8.9c2.2,1.9,21.5,3.4,42.3,4.6l2.9-31.4
			c0,0,0-8.9,0-13.9c0-5-6.9-8.9-8.9-29.8c-2-20.8-7.9-41.7-7.9-54.6c0-12.9-2-64.5,7.9-106.2c9.9-41.7,9.9-126.1,20.8-141
			c10.9-14.9,29.8-8.9,38.7-24.8c8.9-15.9-6-31.8-6-38.7c0-6.9,6.9-14.9,12.9-17.9c6-3,20.8-10.9,32.8-20.8
			c11.9-9.9,11.9-16.9,11.9-16.9s0,0-13.9-6.9c-13.9-6.9-11.1-35.8-11.1-35.8s-18.7-4.9-31.6-8.9
			C193.7,229.5,166.9,217.7,166.9,217.7"/>
		<path d="M361.9,565.3c-9.6,0-19.2,2.4-25.9,9.3c-0.1,0.1-0.2,0.2-0.3,0.3c-0.2,0.2-0.4,0.5-0.6,0.7c-4,5.3-8.6,18.9-13.2,36.3
			c-4.4,19.4-7.9,40.6-10.1,50.3c-5,21.8-12.9,67.5-12.9,74.4c0,6.9-4.8,32.8-4.8,32.8s9.7-3.4,15-5c5-1.5,11.4-6.7,11.4-6.7
			s1.3-1.9,1.9-3.9c0.6-2.1,0.3-3.9,0.3-6.2c0.1-2.3,1.4-5.7,2.3-9.3c0.9-3.6,4.5-12.3,5.6-15.6c1.1-3.3,2.1-4.8,2.1-4.8
			s1.8-7.7,4.8-11.9c3-4.2,14.4-40.5,19.4-57.1c5.1-16.6,16.4-79.8,18-80.7c0.1-0.1,0.3-0.1,0.5-0.1c2.9,0,14.1,4.6,14.1,4.6
			s2.6,10.2,3.2,12.5c0.6,2.4,10.2,44,19.7,74.5c12.3,39.2,27.5,70.3,28.1,71.8c0.6,1.5,1.3,7.8,0.9,9c-0.4,1.2,2.7,4.5,2.7,4.5
			s0,3,1.2,7.2c1.2,4.2,3,10.5,2.7,11.9c-0.3,1.5,0.5,5.2,0.5,5.2s3.7,5.3,4.5,6.2c0.9,0.9,4.8,2.1,6.1,3c0.7,0.5,1.9,0.6,2.8,0.6
			c0.9,0,1.6-0.1,1.6-0.1l-3-9.1c0,0-1.3-9.4-1.3-17.5c0-8.1-2.7-14.1-3-18.8c-0.3-4.8-7.8-37.1-9.6-50.8
			c-1.8-13.8-14.1-54.2-14.1-54.2c-10.9-42.7-27.8-50.1-36.7-55C390.9,570.6,376.3,565.3,361.9,565.3"/>
		<path d="M321.9,612c-8,30.6-16,73.4-20.6,105.1c-4.2,28.9-7.1,52.5-7.1,52.5s4.8-25.9,4.8-32.8c0-6.9,7.9-52.6,12.9-74.4
			C314.1,652.5,317.6,631.4,321.9,612 M335.7,574.9c-0.2,0.2-0.4,0.5-0.6,0.7C335.3,575.4,335.5,575.1,335.7,574.9"/>
		<path d="M582.3,261.2c-1.9,0-4.5,0.9-6.6,1.3c-3.7,0.7-23.8,8.2-34.2,9.7c-10.4,1.5-61.8,6-61.8,6l6,0.7c0,0,16.4,43.2,12.7,64
			c-3.7,20.8-8.9,36.5-24.6,76.7c-15.6,40.2,36.5,46.2,40.9,49.9c4.5,3.7,40.9,17.1,43.9,18.6c3,1.5-3.7,25.3-8.9,52.9
			c-5.2,27.5,23.8,53.6,32.8,76.7c8.9,23.1-10.4,27.5-19.4,41.7c-8.9,14.1-6.7,63.3-12.7,79.7c-6,16.4,0.7,52.9,0.7,52.9
			s15.6,0.7,25.3,0.7c9.7,0,21.6-1.5,21.6-1.5s0.7-15.6,2.2-22.3c1.5-6.7,4.5-11.2,8.2-17.9c3.7-6.7,17.1-30.5,17.1-35.7
			c0-5.2,3-62.5,3.7-73c0.7-10.4,3-44.7,4.5-58.1c1.5-13.4-12.7-70.7-20.1-89.3c-7.4-18.6-21.6-62.5-24.6-82.6
			c-3-20.1-7.4-41.7-15.6-69.2c-8.2-27.5-21.6-20.8-27.5-30.5c-6-9.7-9.7-17.9-9.7-24.6c0-6.7,4.5-8.9,4.5-8.9s29-6.7,32-8.2
			c3-1.5,11.9-3.7,11.9-7.4c0-0.2,0-0.4-0.1-0.7C584.3,261.5,583.4,261.2,582.3,261.2"/>
		<path d="M584.5,262.6c0,0.3,0.1,0.5,0.1,0.7C584.6,263,584.5,262.8,584.5,262.6"/>
	</g>
</g>	
</svg>
