<?xml version="1.0" encoding="utf-8"?>
<!-- Generator: Adobe Illustrator 25.3.1, SVG Export Plug-In . SVG Version: 6.00 Build 0)  -->
<svg version="1.1" xmlns="http://www.w3.org/2000/svg" xmlns:xlink="http://www.w3.org/1999/xlink" x="0px" y="0px"
	 viewBox="0 0 620.1 1000.6" enable-background="new 0 0 739.1 1000.6" xml:space="preserve">
<g id="MASKR">
<g id="BODY">
	<path fill="#FFFFFF" stroke="#897F76" stroke-width="0.5" stroke-miterlimit="10" d="M108.3,403.9c18.6-70.4,62.8-145.3,67.4-162.9
		s16.3-59.4,16.3-59.4s-0.3-11.1,1.8-26.1c1.2-8.7,8.8-28.1,8.8-28.1s58.3-3.1,234.4,13.7c170.8,16.4,189.7,36,189.7,36
		s1.4,19.2-0.9,30.2c-2.3,11-8.4,24.8-8.4,24.8s-11.6,79.3-20.9,105.7c-9.3,26.4-25.6,90.3-23.2,127.7c2,32.1,33,150,46.3,205.1
		c-42.3,6.9-186.6,29.5-272.4,30.3c-101.4,0.9-121.1-0.9-121.1-0.9s-1.8-11.7-6.3-17c-3.6-4.3-38.3-11.4-52.4-14.1
		c0.8-5.5,1.3-9.6,1.3-11.8c0-17.6-16.3-41.8-25.6-57.2S89.7,474.4,108.3,403.9z"/>
</g>

<g id="STITCHING">
	<g>
		<g opacity="0.5">
			<g>
				<path opacity="0.5" fill="none" stroke="#7A726F" stroke-width="0.5324" d="M408.1,851.6c1.8-14.9,2.6-33.2,3.4-49.6"/>
				<path opacity="0.5" fill="none" stroke="#7A726F" stroke-width="0.5324" d="M392.1,851.8c1.6-18.5,2.5-33.6,3.2-50.7"/>
				<path opacity="0.5" fill="none" stroke="#7A726F" stroke-width="0.5324" d="M402.8,851.6c1.7-16.1,2.5-33.3,3.3-50"/>
				<path opacity="0.5" fill="none" stroke="#7A726F" stroke-width="0.5324" d="M397.5,851.7c1.7-17.3,2.5-33.5,3.3-50.4"/>
				<path opacity="0.5" fill="none" stroke="#7A726F" stroke-width="0.5324" d="M412.9,801.8c-0.1,1.6-1.6,1.6-1.6,1.6l-16-1
					c0,0-1-0.8-1.1,1.1c-0.1,1.9,1,2.4,1,2.4l16.1,1c0,0,1.2-0.1,1.1,1.7c-0.1,1.7-1.5,1.8-1.5,1.8l-15.9-1c0,0-1.2,0-1.2,1.7
					c-0.1,1.7,1.3,1.9,1.3,1.9l16,1.1c0,0,1,0.3,1,1.8c-0.1,1.5-1.3,1.9-1.3,1.9l-16.3-1.1c0,0-1-0.1-1.1,1.6
					c-0.1,1.8,0.9,2.1,0.9,2.1l16.3,1.2c0,0,1.3,0,1.2,1.9c-0.1,2-1.6,1.8-1.6,1.8l-16-1.2c0,0-1-0.1-1.2,1.6c-0.1,1.7,1,2.3,1,2.3
					l16,1.3c0,0,1.3,0.4,1.2,2.1c-0.1,1.7-1.4,1.7-1.4,1.7l-15.7-1.3c0,0-1.5-0.4-1.6,1.3c-0.1,1.7,1.5,2.1,1.5,2.1l15.6,1.4
					c0,0,1.2-0.4,1,1.6c-0.1,2-1.4,2.1-1.4,2.1l-15.4-1.5c0,0-1.7-0.2-1.9,1.6c-0.1,1.8,1.6,2.1,1.6,2.1L409,844
					c0,0,1.4-0.2,1.2,1.6c-0.2,1.7-1.5,1.8-1.5,1.8l-15.5-1.7c0,0-1.6-0.2-1.8,1.5c-0.2,1.6,1.4,1.9,1.4,1.9l15.7,2l1.1,0.5"/>
				<path opacity="0.5" fill="none" stroke="#7A726F" stroke-width="0.5324" d="M391,851.3c0.3-3.5,1.7-2,1.7-2.4l15.9,2
					c0,0,1,0.9,1.2-1.1c0.2-2-0.9-2.5-0.9-2.5l-16-1.8c0,0-1.2,0-1-1.7c0.1-1.7,1.5-1.8,1.5-1.8l15.8,1.6c0,0,1.2,0,1.3-1.7
					c0.1-1.7-1.2-2-1.2-2l-16-1.5c0,0-1-0.3-0.9-1.8c0.1-1.4,1.3-1.8,1.3-1.8l16.3,1.4c0,0,1,0.1,1.2-1.6c0.1-1.8-0.9-2.2-0.9-2.2
					l-16.3-1.4c0,0-1.3,0-1.2-1.9c0.1-1.9,1.6-1.8,1.6-1.8l16,1.3c0,0,1,0.1,1.2-1.6c0.1-1.7-1-2.3-1-2.3l-16-1.2c0,0-1.3-0.3-1.2-2
					c0.1-1.7,1.4-1.7,1.4-1.7l15.8,1.1c0,0,1.5,0.4,1.6-1.4c0.1-1.7-1.5-2.1-1.5-2.1l-15.6-1.1c0,0-1.2,0.4-1.1-1.5
					c0.1-1.9,1.4-2.1,1.4-2.1l15.4,1c0,0,1.7,0.1,1.8-1.7c0.1-1.8-1.6-2.1-1.6-2.1l-15.5-1c0,0-1.4,0.2-1.3-1.5
					c0.1-1.7,1.4-1.9,1.4-1.9l15.5,1c0,0,1.6,0.1,1.7-1.6c0.1-1.7-1.5-1.9-1.5-1.9l-15.7-1l-1.1-0.4"/>
				<line opacity="0.5" fill="none" stroke="#7A726F" stroke-width="0.5324" x1="409.8" y1="850.9" x2="392.2" y2="845.6"/>
				<line opacity="0.5" fill="none" stroke="#7A726F" stroke-width="0.5324" x1="410.1" y1="847.6" x2="392.5" y2="842.4"/>
				<line opacity="0.5" fill="none" stroke="#7A726F" stroke-width="0.5324" x1="410.4" y1="843.4" x2="392.8" y2="838.4"/>
				<line opacity="0.5" fill="none" stroke="#7A726F" stroke-width="0.5324" x1="410.7" y1="839.8" x2="393.1" y2="834.9"/>
				<line opacity="0.5" fill="none" stroke="#7A726F" stroke-width="0.5324" x1="411" y1="836.7" x2="393.3" y2="831.9"/>
				<line opacity="0.5" fill="none" stroke="#7A726F" stroke-width="0.5324" x1="411.2" y1="833.2" x2="393.5" y2="828.4"/>
				<line opacity="0.5" fill="none" stroke="#7A726F" stroke-width="0.5324" x1="411.4" y1="829.5" x2="393.7" y2="824.8"/>
				<line opacity="0.5" fill="none" stroke="#7A726F" stroke-width="0.5324" x1="411.7" y1="825.5" x2="394" y2="820.8"/>
				<line opacity="0.5" fill="none" stroke="#7A726F" stroke-width="0.5324" x1="411.9" y1="821.8" x2="394.2" y2="817.2"/>
				<line opacity="0.5" fill="none" stroke="#7A726F" stroke-width="0.5324" x1="412.1" y1="818.3" x2="394.4" y2="813.8"/>
				<line opacity="0.5" fill="none" stroke="#7A726F" stroke-width="0.5324" x1="412.3" y1="814.7" x2="394.5" y2="810.3"/>
				<line opacity="0.5" fill="none" stroke="#7A726F" stroke-width="0.5324" x1="412.5" y1="810.7" x2="394.7" y2="806.3"/>
				<line opacity="0.5" fill="none" stroke="#7A726F" stroke-width="0.5324" x1="412.7" y1="806.9" x2="394.9" y2="802.5"/>
			</g>
			<g>
				<line opacity="0.5" fill="none" stroke="#7A726F" stroke-width="0.5324" x1="411.5" y1="801.7" x2="413.1" y2="751.3"/>
				<line opacity="0.5" fill="none" stroke="#7A726F" stroke-width="0.5324" x1="395.3" y1="800.8" x2="397" y2="750.7"/>
				<line opacity="0.5" fill="none" stroke="#7A726F" stroke-width="0.5324" x1="406.1" y1="801.4" x2="407.8" y2="751.1"/>
				<line opacity="0.5" fill="none" stroke="#7A726F" stroke-width="0.5324" x1="400.7" y1="801.1" x2="402.4" y2="750.9"/>
				<path opacity="0.5" fill="none" stroke="#7A726F" stroke-width="0.5324" d="M414.6,751.1c0,1.6-1.5,1.6-1.5,1.6l-16-0.6
					c0,0-1-0.8-1.1,1.2c0,1.9,1.1,2.3,1.1,2.3l16.1,0.6c0,0,1.2-0.1,1.1,1.6c0,1.7-1.4,1.9-1.4,1.9l-15.9-0.6c0,0-1.2,0.1-1.2,1.8
					c0,1.7,1.3,1.9,1.3,1.9l16,0.7c0,0,1,0.3,1,1.7c0,1.5-1.2,1.9-1.2,1.9l-16.3-0.7c0,0-1,0-1.1,1.6c-0.1,1.8,1,2.1,1,2.1l16.3,0.7
					c0,0,1.3-0.1,1.2,1.9c-0.1,2-1.6,1.9-1.6,1.9l-16-0.7c0,0-1,0-1.1,1.6c0,1.7,1.1,2.2,1.1,2.2l16,0.8c0,0,1.3,0.3,1.2,2
					c-0.1,1.7-1.3,1.8-1.3,1.8l-15.8-0.8c0,0-1.5-0.3-1.6,1.4c-0.1,1.7,1.5,2,1.5,2l15.6,0.8c0,0,1.2-0.4,1.1,1.5
					c-0.1,1.9-1.4,2.1-1.4,2.1l-15.4-0.8c0,0-1.7-0.1-1.8,1.7c-0.1,1.8,1.7,2.1,1.7,2.1l15.5,0.9c0,0,1.3-0.2,1.3,1.5
					c-0.1,1.7-1.4,1.9-1.4,1.9l-15.5-0.9c0,0-1.6-0.1-1.7,1.6c-0.1,1.7,1.5,1.9,1.5,1.9l15.8,0.9l1.2,0.4"/>
				<path opacity="0.5" fill="none" stroke="#7A726F" stroke-width="0.5324" d="M394.3,800.5c0.1-1.6,1.6-1.6,1.6-1.6l16,0.9
					c0,0,1,0.8,1.1-1.2c0.1-2-1.1-2.4-1.1-2.4l-16.1-0.9c0,0-1.2,0.1-1.1-1.6c0.1-1.7,1.5-1.9,1.5-1.9l15.9,0.9c0,0,1.2-0.1,1.2-1.8
					c0.1-1.7-1.3-1.9-1.3-1.9l-16-0.9c0,0-1-0.3-1-1.7c0.1-1.5,1.2-1.9,1.2-1.9l16.3,0.8c0,0,1.1,0.1,1.1-1.6c0.1-1.8-1-2.1-1-2.1
					l-16.3-0.8c0,0-1.3,0.1-1.2-1.9c0.1-1.9,1.6-1.9,1.6-1.9l16,0.8c0,0,1,0.1,1.1-1.7c0.1-1.7-1.1-2.2-1.1-2.2l-16-0.7
					c0,0-1.3-0.3-1.2-2c0.1-1.7,1.3-1.8,1.3-1.8l15.8,0.7c0,0,1.5,0.3,1.5-1.4c0.1-1.7-1.6-2-1.6-2l-15.7-0.7c0,0-1.2,0.4-1.1-1.5
					c0-1.9,1.3-2.1,1.3-2.1l15.4,0.6c0,0,1.7,0.1,1.8-1.7c0.1-1.8-1.7-2.1-1.7-2.1l-15.5-0.6c0,0-1.3,0.3-1.3-1.4
					c0-1.7,1.3-1.9,1.3-1.9l15.5,0.6c0,0,1.6,0.1,1.7-1.6c0-1.7-1.6-1.9-1.6-1.9l-15.8-0.6l-1.2-0.4"/>
				<line opacity="0.5" fill="none" stroke="#7A726F" stroke-width="0.5324" x1="413" y1="799.9" x2="395.2" y2="795.6"/>
				<line opacity="0.5" fill="none" stroke="#7A726F" stroke-width="0.5324" x1="413.1" y1="796.6" x2="395.3" y2="792.4"/>
				<line opacity="0.5" fill="none" stroke="#7A726F" stroke-width="0.5324" x1="413.3" y1="792.5" x2="395.5" y2="788.3"/>
				<line opacity="0.5" fill="none" stroke="#7A726F" stroke-width="0.5324" x1="413.4" y1="789" x2="395.6" y2="784.8"/>
				<line opacity="0.5" fill="none" stroke="#7A726F" stroke-width="0.5324" x1="413.6" y1="785.9" x2="395.7" y2="781.7"/>
				<line opacity="0.5" fill="none" stroke="#7A726F" stroke-width="0.5324" x1="413.7" y1="782.4" x2="395.8" y2="778.2"/>
				<line opacity="0.5" fill="none" stroke="#7A726F" stroke-width="0.5324" x1="413.8" y1="778.7" x2="396" y2="774.6"/>
				<line opacity="0.5" fill="none" stroke="#7A726F" stroke-width="0.5324" x1="413.9" y1="774.7" x2="396.1" y2="770.6"/>
				<line opacity="0.5" fill="none" stroke="#7A726F" stroke-width="0.5324" x1="414" y1="771" x2="396.2" y2="767"/>
				<line opacity="0.5" fill="none" stroke="#7A726F" stroke-width="0.5324" x1="414.1" y1="767.5" x2="396.3" y2="763.5"/>
				<line opacity="0.5" fill="none" stroke="#7A726F" stroke-width="0.5324" x1="414.2" y1="764" x2="396.4" y2="760"/>
				<line opacity="0.5" fill="none" stroke="#7A726F" stroke-width="0.5324" x1="414.4" y1="760" x2="396.5" y2="756"/>
				<line opacity="0.5" fill="none" stroke="#7A726F" stroke-width="0.5324" x1="414.4" y1="756.2" x2="396.6" y2="752.2"/>
			</g>
			<g>
				<line opacity="0.5" fill="none" stroke="#7A726F" stroke-width="0.5324" x1="413.2" y1="751" x2="414" y2="700.6"/>
				<line opacity="0.5" fill="none" stroke="#7A726F" stroke-width="0.5324" x1="397" y1="750.4" x2="397.8" y2="700.2"/>
				<line opacity="0.5" fill="none" stroke="#7A726F" stroke-width="0.5324" x1="407.8" y1="750.8" x2="408.6" y2="700.5"/>
				<line opacity="0.5" fill="none" stroke="#7A726F" stroke-width="0.5324" x1="402.4" y1="750.6" x2="403.2" y2="700.3"/>
				<path opacity="0.5" fill="none" stroke="#7A726F" stroke-width="0.5324" d="M415.4,700.4c0,1.6-1.5,1.7-1.5,1.7l-16-0.4
					c0,0-1-0.7-1.1,1.2c0,1.9,1.1,2.3,1.1,2.3l16.1,0.4c0,0,1.2-0.1,1.1,1.6c0,1.7-1.4,1.9-1.4,1.9l-15.9-0.4c0,0-1.2,0.1-1.2,1.8
					c0,1.7,1.4,1.8,1.4,1.8l16,0.4c0,0,1,0.3,1,1.7c0,1.5-1.2,1.9-1.2,1.9l-16.4-0.4c0,0-1,0-1.1,1.7c0,1.8,1,2.1,1,2.1l16.3,0.5
					c0,0,1.3-0.1,1.3,1.9c0,2-1.5,1.9-1.5,1.9l-16-0.5c0,0-1,0-1.1,1.7c0,1.7,1.1,2.2,1.1,2.2l16,0.5c0,0,1.3,0.3,1.2,2
					c0,1.7-1.3,1.8-1.3,1.8l-15.8-0.5c0,0-1.5-0.3-1.5,1.4c0,1.7,1.6,2,1.6,2l15.7,0.5c0,0,1.2-0.4,1.1,1.5c0,2-1.3,2.2-1.3,2.2
					l-15.4-0.5c0,0-1.7-0.1-1.8,1.8c0,1.8,1.7,2.1,1.7,2.1l15.5,0.5c0,0,1.3-0.3,1.3,1.4c0,1.7-1.3,1.9-1.3,1.9l-15.5-0.6
					c0,0-1.6-0.1-1.7,1.6c0,1.7,1.6,1.9,1.6,1.9l15.8,0.6l1.2,0.4"/>
				<path opacity="0.5" fill="none" stroke="#7A726F" stroke-width="0.5324" d="M395.9,750.2c0-1.6,1.6-1.6,1.6-1.6l16,0.6
					c0,0,1,0.8,1.1-1.2c0-2-1.1-2.4-1.1-2.4l-16.1-0.6c0,0-1.2,0.1-1.1-1.6c0-1.7,1.4-1.9,1.4-1.9l15.9,0.6c0,0,1.2-0.1,1.2-1.8
					c0-1.7-1.4-1.9-1.4-1.9l-16-0.5c0,0-1-0.3-1-1.7c0-1.5,1.2-1.9,1.2-1.9l16.4,0.5c0,0,1.1,0,1.1-1.7c0-1.8-1-2.1-1-2.1l-16.3-0.5
					c0,0-1.3,0.1-1.2-1.9c0-1.9,1.5-1.9,1.5-1.9l16,0.5c0,0,1,0,1.1-1.7c0-1.7-1.1-2.2-1.1-2.2l-16-0.5c0,0-1.3-0.3-1.2-2
					c0-1.7,1.3-1.8,1.3-1.8l15.8,0.4c0,0,1.5,0.3,1.5-1.4c0-1.7-1.6-2-1.6-2l-15.7-0.4c0,0-1.2,0.5-1.1-1.5c0-1.9,1.3-2.1,1.3-2.1
					l15.4,0.4c0,0,1.7,0,1.8-1.8c0-1.8-1.7-2.1-1.7-2.1l-15.5-0.4c0,0-1.3,0.3-1.3-1.4c0-1.7,1.3-1.9,1.3-1.9l15.5,0.4
					c0,0,1.6,0,1.6-1.7c0-1.7-1.6-1.9-1.6-1.9l-15.8-0.4l-1.2-0.4"/>
				<line opacity="0.5" fill="none" stroke="#7A726F" stroke-width="0.5324" x1="414.6" y1="749.2" x2="396.8" y2="745.3"/>
				<line opacity="0.5" fill="none" stroke="#7A726F" stroke-width="0.5324" x1="414.7" y1="745.9" x2="396.8" y2="742"/>
				<line opacity="0.5" fill="none" stroke="#7A726F" stroke-width="0.5324" x1="414.8" y1="741.8" x2="396.9" y2="737.9"/>
				<line opacity="0.5" fill="none" stroke="#7A726F" stroke-width="0.5324" x1="414.9" y1="738.3" x2="397" y2="734.4"/>
				<line opacity="0.5" fill="none" stroke="#7A726F" stroke-width="0.5324" x1="414.9" y1="735.2" x2="397" y2="731.3"/>
				<line opacity="0.5" fill="none" stroke="#7A726F" stroke-width="0.5324" x1="415" y1="731.6" x2="397.1" y2="727.8"/>
				<line opacity="0.5" fill="none" stroke="#7A726F" stroke-width="0.5324" x1="415" y1="728" x2="397.2" y2="724.2"/>
				<line opacity="0.5" fill="none" stroke="#7A726F" stroke-width="0.5324" x1="415.1" y1="724" x2="397.2" y2="720.2"/>
				<line opacity="0.5" fill="none" stroke="#7A726F" stroke-width="0.5324" x1="415.2" y1="720.3" x2="397.3" y2="716.5"/>
				<line opacity="0.5" fill="none" stroke="#7A726F" stroke-width="0.5324" x1="415.2" y1="716.8" x2="397.3" y2="713"/>
				<line opacity="0.5" fill="none" stroke="#7A726F" stroke-width="0.5324" x1="415.3" y1="713.3" x2="397.4" y2="709.5"/>
				<line opacity="0.5" fill="none" stroke="#7A726F" stroke-width="0.5324" x1="415.3" y1="709.3" x2="397.4" y2="705.5"/>
				<line opacity="0.5" fill="none" stroke="#7A726F" stroke-width="0.5324" x1="415.4" y1="705.5" x2="397.5" y2="701.8"/>
			</g>
			<g>
				<line opacity="0.5" fill="none" stroke="#7A726F" stroke-width="0.5324" x1="414" y1="700.3" x2="414.3" y2="649.9"/>
				<line opacity="0.5" fill="none" stroke="#7A726F" stroke-width="0.5324" x1="397.8" y1="699.9" x2="398.1" y2="649.7"/>
				<line opacity="0.5" fill="none" stroke="#7A726F" stroke-width="0.5324" x1="408.6" y1="700.2" x2="408.9" y2="649.9"/>
				<line opacity="0.5" fill="none" stroke="#7A726F" stroke-width="0.5324" x1="403.2" y1="700.1" x2="403.5" y2="649.8"/>
				<path opacity="0.5" fill="none" stroke="#7A726F" stroke-width="0.5324" d="M415.7,649.7c0,1.6-1.5,1.7-1.5,1.7l-16-0.2
					c0,0-1-0.7-1,1.2c0,1.9,1.2,2.3,1.2,2.3l16.1,0.2c0,0,1.2-0.1,1.2,1.6c0,1.7-1.4,1.9-1.4,1.9l-15.9-0.2c0,0-1.2,0.1-1.2,1.8
					c0,1.7,1.4,1.8,1.4,1.8l16,0.3c0,0,1,0.3,1,1.7c0,1.5-1.2,1.9-1.2,1.9l-16.3-0.3c0,0-1,0-1,1.7c0,1.8,1,2.1,1,2.1l16.3,0.3
					c0,0,1.3-0.1,1.3,1.8c0,2-1.5,1.9-1.5,1.9l-16-0.3c0,0-1,0-1.1,1.7c0,1.7,1.1,2.2,1.1,2.2l16,0.3c0,0,1.3,0.3,1.3,2
					c0,1.7-1.3,1.8-1.3,1.8l-15.8-0.3c0,0-1.5-0.3-1.5,1.4c0,1.7,1.6,2,1.6,2l15.7,0.3c0,0,1.2-0.5,1.2,1.5c0,2-1.3,2.2-1.3,2.2
					l-15.4-0.3c0,0-1.7,0-1.8,1.8c0,1.8,1.7,2,1.7,2l15.5,0.3c0,0,1.3-0.3,1.3,1.4c0,1.7-1.3,1.9-1.3,1.9l-15.5-0.3
					c0,0-1.6,0-1.6,1.7c0,1.7,1.6,1.8,1.6,1.8l15.8,0.4l1.2,0.4"/>
				<path opacity="0.5" fill="none" stroke="#7A726F" stroke-width="0.5324" d="M396.8,699.8c0-1.6,1.5-1.7,1.5-1.7l16,0.4
					c0,0,1,0.7,1.1-1.2c0-1.9-1.1-2.3-1.1-2.3l-16.1-0.4c0,0-1.2,0.1-1.1-1.6c0-1.7,1.4-1.9,1.4-1.9l15.9,0.3c0,0,1.2-0.1,1.2-1.8
					c0-1.7-1.4-1.9-1.4-1.9l-16-0.3c0,0-1-0.3-1-1.7c0-1.4,1.2-1.9,1.2-1.9l16.4,0.3c0,0,1,0,1.1-1.7c0-1.8-1-2.1-1-2.1l-16.4-0.3
					c0,0-1.3,0.1-1.3-1.8c0-1.9,1.5-1.9,1.5-1.9l16,0.3c0,0,1,0,1.1-1.7c0-1.7-1.1-2.2-1.1-2.2l-16-0.3c0,0-1.3-0.3-1.3-2
					c0-1.7,1.3-1.8,1.3-1.8l15.8,0.3c0,0,1.5,0.3,1.5-1.4c0-1.7-1.6-2-1.6-2l-15.7-0.3c0,0-1.1,0.5-1.1-1.5c0-1.9,1.3-2.2,1.3-2.2
					l15.4,0.3c0,0,1.7,0,1.7-1.8c0-1.8-1.7-2-1.7-2l-15.5-0.2c0,0-1.3,0.3-1.3-1.4c0-1.7,1.3-1.9,1.3-1.9l15.5,0.2
					c0,0,1.6,0,1.6-1.7c0-1.7-1.6-1.8-1.6-1.8l-15.8-0.2l-1.2-0.4"/>
				<line opacity="0.5" fill="none" stroke="#7A726F" stroke-width="0.5324" x1="415.5" y1="698.5" x2="397.5" y2="694.8"/>
				<line opacity="0.5" fill="none" stroke="#7A726F" stroke-width="0.5324" x1="415.5" y1="695.2" x2="397.6" y2="691.5"/>
				<line opacity="0.5" fill="none" stroke="#7A726F" stroke-width="0.5324" x1="415.5" y1="691.1" x2="397.6" y2="687.5"/>
				<line opacity="0.5" fill="none" stroke="#7A726F" stroke-width="0.5324" x1="415.5" y1="687.6" x2="397.6" y2="683.9"/>
				<line opacity="0.5" fill="none" stroke="#7A726F" stroke-width="0.5324" x1="415.6" y1="684.5" x2="397.6" y2="680.9"/>
				<line opacity="0.5" fill="none" stroke="#7A726F" stroke-width="0.5324" x1="415.6" y1="681" x2="397.7" y2="677.3"/>
				<line opacity="0.5" fill="none" stroke="#7A726F" stroke-width="0.5324" x1="415.6" y1="677.3" x2="397.7" y2="673.7"/>
				<line opacity="0.5" fill="none" stroke="#7A726F" stroke-width="0.5324" x1="415.6" y1="673.3" x2="397.7" y2="669.7"/>
				<line opacity="0.5" fill="none" stroke="#7A726F" stroke-width="0.5324" x1="415.7" y1="669.6" x2="397.7" y2="666.1"/>
				<line opacity="0.5" fill="none" stroke="#7A726F" stroke-width="0.5324" x1="415.7" y1="666.1" x2="397.7" y2="662.6"/>
				<line opacity="0.5" fill="none" stroke="#7A726F" stroke-width="0.5324" x1="415.7" y1="662.6" x2="397.8" y2="659"/>
				<line opacity="0.5" fill="none" stroke="#7A726F" stroke-width="0.5324" x1="415.7" y1="658.6" x2="397.8" y2="655"/>
				<line opacity="0.5" fill="none" stroke="#7A726F" stroke-width="0.5324" x1="415.7" y1="654.8" x2="397.8" y2="651.3"/>
			</g>
			<g>
				<line opacity="0.5" fill="none" stroke="#7A726F" stroke-width="0.5324" x1="414.3" y1="649.7" x2="414.2" y2="599.3"/>
				<line opacity="0.5" fill="none" stroke="#7A726F" stroke-width="0.5324" x1="398.1" y1="649.4" x2="398" y2="599.2"/>
				<line opacity="0.5" fill="none" stroke="#7A726F" stroke-width="0.5324" x1="408.9" y1="649.6" x2="408.8" y2="599.3"/>
				<line opacity="0.5" fill="none" stroke="#7A726F" stroke-width="0.5324" x1="403.5" y1="649.5" x2="403.4" y2="599.2"/>
				<path opacity="0.5" fill="none" stroke="#7A726F" stroke-width="0.5324" d="M415.6,599c0,1.6-1.5,1.7-1.5,1.7l-16-0.1
					c0,0-1.1-0.7-1,1.2c0,1.9,1.2,2.3,1.2,2.3l16.1,0.1c0,0,1.2-0.1,1.2,1.6c0,1.7-1.4,1.9-1.4,1.9l-15.9-0.1c0,0-1.2,0.1-1.2,1.8
					c0,1.7,1.4,1.8,1.4,1.8l16,0.1c0,0,1,0.2,1,1.7c0,1.5-1.2,1.9-1.2,1.9l-16.3-0.1c0,0-1,0-1,1.7c0,1.8,1.1,2.1,1.1,2.1l16.3,0.1
					c0,0,1.3-0.1,1.3,1.8c0,2-1.5,1.9-1.5,1.9l-16-0.1c0,0-1,0-1,1.7c0,1.7,1.2,2.2,1.2,2.2l16,0.2c0,0,1.3,0.3,1.3,2
					c0,1.7-1.3,1.8-1.3,1.8l-15.8-0.2c0,0-1.5-0.3-1.5,1.4c0,1.7,1.6,2,1.6,2l15.7,0.2c0,0,1.2-0.5,1.2,1.5c0,2-1.3,2.2-1.3,2.2
					l-15.4-0.2c0,0-1.7,0-1.7,1.8c0,1.8,1.7,2,1.7,2l15.5,0.2c0,0,1.3-0.3,1.3,1.4c0,1.7-1.3,1.9-1.3,1.9l-15.5-0.2
					c0,0-1.6,0-1.6,1.7c0,1.7,1.6,1.8,1.6,1.8l15.8,0.2l1.2,0.4"/>
				<path opacity="0.5" fill="none" stroke="#7A726F" stroke-width="0.5324" d="M397.1,649.3c0-1.6,1.5-1.7,1.5-1.7l16,0.2
					c0,0,1,0.7,1.1-1.2c0-2-1.2-2.3-1.2-2.3l-16.1-0.2c0,0-1.2,0.1-1.2-1.6c0-1.7,1.4-1.9,1.4-1.9l15.9,0.2c0,0,1.2-0.1,1.2-1.8
					c0-1.7-1.4-1.8-1.4-1.8l-16-0.2c0,0-1-0.3-1-1.7c0-1.5,1.2-1.9,1.2-1.9l16.4,0.2c0,0,1,0,1-1.7c0-1.8-1.1-2.1-1.1-2.1l-16.4-0.2
					c0,0-1.3,0.1-1.3-1.8c0-1.9,1.5-1.9,1.5-1.9l16,0.2c0,0,1,0,1-1.7c0-1.7-1.2-2.2-1.2-2.2l-16-0.2c0,0-1.3-0.2-1.3-1.9
					c0-1.7,1.3-1.8,1.3-1.8l15.8,0.1c0,0,1.5,0.3,1.5-1.4c0-1.7-1.6-2-1.6-2l-15.7-0.1c0,0-1.1,0.5-1.2-1.5c0-1.9,1.3-2.2,1.3-2.2
					l15.4,0.1c0,0,1.7,0,1.7-1.8c0-1.8-1.7-2-1.7-2l-15.5-0.1c0,0-1.3,0.3-1.3-1.4c0-1.7,1.3-1.9,1.3-1.9l15.5,0.1
					c0,0,1.6,0,1.6-1.7c0-1.7-1.6-1.8-1.6-1.8l-15.8-0.1L397,600"/>
				<line opacity="0.5" fill="none" stroke="#7A726F" stroke-width="0.5324" x1="415.7" y1="647.8" x2="397.8" y2="644.3"/>
				<line opacity="0.5" fill="none" stroke="#7A726F" stroke-width="0.5324" x1="415.7" y1="644.5" x2="397.8" y2="641"/>
				<line opacity="0.5" fill="none" stroke="#7A726F" stroke-width="0.5324" x1="415.7" y1="640.4" x2="397.8" y2="637"/>
				<line opacity="0.5" fill="none" stroke="#7A726F" stroke-width="0.5324" x1="415.7" y1="636.9" x2="397.8" y2="633.4"/>
				<line opacity="0.5" fill="none" stroke="#7A726F" stroke-width="0.5324" x1="415.7" y1="633.8" x2="397.8" y2="630.4"/>
				<line opacity="0.5" fill="none" stroke="#7A726F" stroke-width="0.5324" x1="415.7" y1="630.3" x2="397.8" y2="626.8"/>
				<line opacity="0.5" fill="none" stroke="#7A726F" stroke-width="0.5324" x1="415.7" y1="626.7" x2="397.7" y2="623.2"/>
				<line opacity="0.5" fill="none" stroke="#7A726F" stroke-width="0.5324" x1="415.7" y1="622.6" x2="397.7" y2="619.2"/>
				<line opacity="0.5" fill="none" stroke="#7A726F" stroke-width="0.5324" x1="415.7" y1="619" x2="397.7" y2="615.6"/>
				<line opacity="0.5" fill="none" stroke="#7A726F" stroke-width="0.5324" x1="415.7" y1="615.5" x2="397.7" y2="612"/>
				<line opacity="0.5" fill="none" stroke="#7A726F" stroke-width="0.5324" x1="415.7" y1="611.9" x2="397.7" y2="608.5"/>
				<line opacity="0.5" fill="none" stroke="#7A726F" stroke-width="0.5324" x1="415.7" y1="607.9" x2="397.7" y2="604.5"/>
				<line opacity="0.5" fill="none" stroke="#7A726F" stroke-width="0.5324" x1="415.6" y1="604.1" x2="397.7" y2="600.8"/>
			</g>
			<g>
				<line opacity="0.5" fill="none" stroke="#7A726F" stroke-width="0.5324" x1="414.2" y1="599" x2="414" y2="548.7"/>
				<line opacity="0.5" fill="none" stroke="#7A726F" stroke-width="0.5324" x1="398" y1="598.9" x2="397.8" y2="548.6"/>
				<line opacity="0.5" fill="none" stroke="#7A726F" stroke-width="0.5324" x1="408.8" y1="599" x2="408.6" y2="548.7"/>
				<line opacity="0.5" fill="none" stroke="#7A726F" stroke-width="0.5324" x1="403.4" y1="599" x2="403.2" y2="548.6"/>
				<path opacity="0.5" fill="none" stroke="#7A726F" stroke-width="0.5324" d="M415.4,548.5c0,1.6-1.5,1.7-1.5,1.7l-16-0.1
					c0,0-1-0.7-1,1.2c0,1.9,1.2,2.3,1.2,2.3l16.1,0.1c0,0,1.2-0.1,1.2,1.6c0,1.7-1.4,1.9-1.4,1.9l-15.9-0.1c0,0-1.2,0.1-1.2,1.8
					c0,1.7,1.4,1.8,1.4,1.8l16,0.1c0,0,1,0.2,1.1,1.7c0,1.5-1.2,1.9-1.2,1.9l-16.3-0.1c0,0-1,0-1,1.7c0,1.8,1.1,2.1,1.1,2.1
					l16.4,0.1c0,0,1.3-0.1,1.3,1.8c0,1.9-1.5,1.9-1.5,1.9l-16-0.1c0,0-1.1,0-1,1.7c0,1.7,1.2,2.2,1.2,2.2l16,0.1c0,0,1.3,0.2,1.3,2
					c0,1.7-1.3,1.8-1.3,1.8l-15.8-0.1c0,0-1.5-0.3-1.5,1.4c0,1.7,1.6,2,1.6,2l15.7,0.1c0,0,1.2-0.5,1.2,1.5c0,1.9-1.3,2.2-1.3,2.2
					l-15.4-0.1c0,0-1.7,0-1.7,1.8c0,1.8,1.8,2,1.8,2l15.5,0.1c0,0,1.3-0.3,1.3,1.4c0,1.7-1.3,1.9-1.3,1.9l-15.5-0.1
					c0,0-1.6,0-1.6,1.7c0,1.7,1.6,1.8,1.6,1.8l15.8,0.1l1.2,0.4"/>
				<path opacity="0.5" fill="none" stroke="#7A726F" stroke-width="0.5324" d="M396.9,598.8c0-1.6,1.5-1.7,1.5-1.7l16,0.1
					c0,0,1,0.7,1-1.2c0-2-1.2-2.3-1.2-2.3l-16.1-0.1c0,0-1.2,0.1-1.2-1.6c0-1.7,1.4-1.9,1.4-1.9l15.9,0.1c0,0,1.2-0.1,1.2-1.8
					c0-1.7-1.4-1.8-1.4-1.8l-16-0.1c0,0-1.1-0.2-1.1-1.7c0-1.5,1.2-1.9,1.2-1.9l16.3,0.1c0,0,1,0,1-1.7c0-1.8-1.1-2.1-1.1-2.1
					l-16.4-0.1c0,0-1.3,0.1-1.3-1.8c0-1.9,1.5-1.9,1.5-1.9l16,0.1c0,0,1,0,1-1.7c0-1.7-1.2-2.2-1.2-2.2l-16-0.1c0,0-1.3-0.2-1.3-1.9
					c0-1.7,1.3-1.8,1.3-1.8l15.8,0.1c0,0,1.5,0.3,1.5-1.4c0-1.7-1.6-2-1.6-2l-15.7-0.1c0,0-1.1,0.5-1.2-1.5c0-1.9,1.3-2.2,1.3-2.2
					l15.4,0.1c0,0,1.8,0,1.7-1.8c0-1.8-1.8-2-1.8-2l-15.5-0.1c0,0-1.3,0.3-1.3-1.4c0-1.7,1.3-1.9,1.3-1.9l15.5,0.1
					c0,0,1.6,0,1.6-1.7c0-1.7-1.6-1.8-1.6-1.8l-15.8-0.1l-1.2-0.4"/>
				<line opacity="0.5" fill="none" stroke="#7A726F" stroke-width="0.5324" x1="415.6" y1="597.2" x2="397.6" y2="593.8"/>
				<line opacity="0.5" fill="none" stroke="#7A726F" stroke-width="0.5324" x1="415.6" y1="593.9" x2="397.6" y2="590.5"/>
				<line opacity="0.5" fill="none" stroke="#7A726F" stroke-width="0.5324" x1="415.6" y1="589.8" x2="397.6" y2="586.4"/>
				<line opacity="0.5" fill="none" stroke="#7A726F" stroke-width="0.5324" x1="415.6" y1="586.3" x2="397.6" y2="582.9"/>
				<line opacity="0.5" fill="none" stroke="#7A726F" stroke-width="0.5324" x1="415.5" y1="583.2" x2="397.6" y2="579.8"/>
				<line opacity="0.5" fill="none" stroke="#7A726F" stroke-width="0.5324" x1="415.5" y1="579.7" x2="397.6" y2="576.3"/>
				<line opacity="0.5" fill="none" stroke="#7A726F" stroke-width="0.5324" x1="415.5" y1="576" x2="397.5" y2="572.6"/>
				<line opacity="0.5" fill="none" stroke="#7A726F" stroke-width="0.5324" x1="415.5" y1="572" x2="397.5" y2="568.6"/>
				<line opacity="0.5" fill="none" stroke="#7A726F" stroke-width="0.5324" x1="415.5" y1="568.4" x2="397.5" y2="565"/>
				<line opacity="0.5" fill="none" stroke="#7A726F" stroke-width="0.5324" x1="415.5" y1="564.9" x2="397.5" y2="561.5"/>
				<line opacity="0.5" fill="none" stroke="#7A726F" stroke-width="0.5324" x1="415.4" y1="561.3" x2="397.5" y2="557.9"/>
				<line opacity="0.5" fill="none" stroke="#7A726F" stroke-width="0.5324" x1="415.4" y1="557.3" x2="397.4" y2="553.9"/>
				<line opacity="0.5" fill="none" stroke="#7A726F" stroke-width="0.5324" x1="415.4" y1="553.6" x2="397.4" y2="550.2"/>
			</g>
			<g>
				<line opacity="0.5" fill="none" stroke="#7A726F" stroke-width="0.5324" x1="414" y1="548.5" x2="413.8" y2="498.2"/>
				<line opacity="0.5" fill="none" stroke="#7A726F" stroke-width="0.5324" x1="397.8" y1="548.3" x2="397.6" y2="498"/>
				<line opacity="0.5" fill="none" stroke="#7A726F" stroke-width="0.5324" x1="408.6" y1="548.4" x2="408.4" y2="498.1"/>
				<line opacity="0.5" fill="none" stroke="#7A726F" stroke-width="0.5324" x1="403.2" y1="548.4" x2="403" y2="498.1"/>
				<path opacity="0.5" fill="none" stroke="#7A726F" stroke-width="0.5324" d="M415.2,497.9c0,1.6-1.5,1.7-1.5,1.7l-16-0.2
					c0,0-1.1-0.7-1,1.2c0,2,1.2,2.3,1.2,2.3l16.1,0.2c0,0,1.2-0.1,1.2,1.6c0,1.7-1.4,1.9-1.4,1.9l-15.9-0.2c0,0-1.2,0.1-1.2,1.8
					c0,1.7,1.4,1.8,1.4,1.8l16,0.1c0,0,1,0.3,1.1,1.7c0,1.5-1.2,1.9-1.2,1.9l-16.4-0.1c0,0-1,0-1,1.7c0,1.8,1,2.1,1,2.1l16.3,0.1
					c0,0,1.3-0.1,1.3,1.8c0,1.9-1.5,1.9-1.5,1.9l-16-0.1c0,0-1,0-1,1.7c0,1.7,1.2,2.2,1.2,2.2l16,0.1c0,0,1.3,0.3,1.3,2
					c0,1.7-1.3,1.8-1.3,1.8l-15.8-0.1c0,0-1.5-0.3-1.5,1.5c0,1.7,1.6,2,1.6,2l15.7,0.1c0,0,1.2-0.5,1.2,1.5c0,1.9-1.3,2.2-1.3,2.2
					l-15.4-0.1c0,0-1.7,0-1.7,1.8c0,1.8,1.8,2,1.8,2l15.5,0.1c0,0,1.3-0.3,1.3,1.4c0,1.7-1.3,1.9-1.3,1.9l-15.5-0.1
					c0,0-1.6,0-1.6,1.7c0,1.7,1.6,1.8,1.6,1.8l15.8,0.1l1.2,0.4"/>
				<path opacity="0.5" fill="none" stroke="#7A726F" stroke-width="0.5324" d="M396.7,548.2c0-1.6,1.5-1.7,1.5-1.7l16,0.1
					c0,0,1.1,0.7,1-1.2c0-1.9-1.2-2.3-1.2-2.3l-16.1-0.1c0,0-1.2,0.1-1.2-1.6c0-1.7,1.4-1.9,1.4-1.9l15.9,0.1c0,0,1.2-0.1,1.2-1.8
					c0-1.7-1.4-1.8-1.4-1.8l-16-0.1c0,0-1-0.3-1.1-1.7c0-1.5,1.2-1.9,1.2-1.9l16.3,0.1c0,0,1,0,1-1.7c0-1.8-1.1-2.1-1.1-2.1
					l-16.4-0.1c0,0-1.3,0.1-1.3-1.8c0-1.9,1.5-1.9,1.5-1.9l16,0.1c0,0,1,0,1-1.7c0-1.7-1.2-2.2-1.2-2.2l-16-0.1c0,0-1.3-0.2-1.3-1.9
					c0-1.7,1.3-1.8,1.3-1.8l15.8,0.1c0,0,1.5,0.3,1.5-1.4c0-1.7-1.6-2-1.6-2l-15.7-0.1c0,0-1.2,0.5-1.2-1.5c0-1.9,1.3-2.2,1.3-2.2
					l15.4,0.1c0,0,1.7,0,1.7-1.8c0-1.8-1.7-2-1.7-2l-15.5-0.1c0,0-1.3,0.3-1.3-1.4c0-1.7,1.3-1.9,1.3-1.9l15.5,0.1
					c0,0,1.6,0,1.6-1.7c0-1.7-1.6-1.8-1.6-1.8l-15.8-0.2l-1.2-0.4"/>
				<line opacity="0.5" fill="none" stroke="#7A726F" stroke-width="0.5324" x1="415.4" y1="546.6" x2="397.4" y2="543.2"/>
				<line opacity="0.5" fill="none" stroke="#7A726F" stroke-width="0.5324" x1="415.4" y1="543.3" x2="397.4" y2="539.9"/>
				<line opacity="0.5" fill="none" stroke="#7A726F" stroke-width="0.5324" x1="415.4" y1="539.2" x2="397.4" y2="535.8"/>
				<line opacity="0.5" fill="none" stroke="#7A726F" stroke-width="0.5324" x1="415.3" y1="535.7" x2="397.4" y2="532.3"/>
				<line opacity="0.5" fill="none" stroke="#7A726F" stroke-width="0.5324" x1="415.3" y1="532.6" x2="397.4" y2="529.2"/>
				<line opacity="0.5" fill="none" stroke="#7A726F" stroke-width="0.5324" x1="415.3" y1="529.1" x2="397.4" y2="525.7"/>
				<line opacity="0.5" fill="none" stroke="#7A726F" stroke-width="0.5324" x1="415.3" y1="525.5" x2="397.3" y2="522"/>
				<line opacity="0.5" fill="none" stroke="#7A726F" stroke-width="0.5324" x1="415.3" y1="521.5" x2="397.3" y2="518"/>
				<line opacity="0.5" fill="none" stroke="#7A726F" stroke-width="0.5324" x1="415.3" y1="517.8" x2="397.3" y2="514.4"/>
				<line opacity="0.5" fill="none" stroke="#7A726F" stroke-width="0.5324" x1="415.3" y1="514.3" x2="397.3" y2="510.9"/>
				<line opacity="0.5" fill="none" stroke="#7A726F" stroke-width="0.5324" x1="415.3" y1="510.8" x2="397.3" y2="507.3"/>
				<line opacity="0.5" fill="none" stroke="#7A726F" stroke-width="0.5324" x1="415.2" y1="506.8" x2="397.3" y2="503.3"/>
				<line opacity="0.5" fill="none" stroke="#7A726F" stroke-width="0.5324" x1="415.2" y1="503" x2="397.3" y2="499.6"/>
			</g>
			<g>
				<line opacity="0.5" fill="none" stroke="#7A726F" stroke-width="0.5324" x1="413.8" y1="497.9" x2="413.7" y2="447.6"/>
				<line opacity="0.5" fill="none" stroke="#7A726F" stroke-width="0.5324" x1="397.6" y1="497.7" x2="397.5" y2="447.4"/>
				<line opacity="0.5" fill="none" stroke="#7A726F" stroke-width="0.5324" x1="408.4" y1="497.8" x2="408.3" y2="447.5"/>
				<line opacity="0.5" fill="none" stroke="#7A726F" stroke-width="0.5324" x1="403" y1="497.8" x2="403" y2="447.5"/>
				<path opacity="0.5" fill="none" stroke="#7A726F" stroke-width="0.5324" d="M415.2,447.3c0,1.6-1.5,1.7-1.5,1.7l-16-0.2
					c0,0-1-0.7-1,1.2c0,1.9,1.2,2.3,1.2,2.3l16.1,0.2c0,0,1.2-0.1,1.2,1.6c0,1.7-1.4,1.9-1.4,1.9l-15.9-0.2c0,0-1.2,0.1-1.2,1.8
					c0,1.7,1.4,1.8,1.4,1.8l16,0.2c0,0,1,0.2,1,1.7c0,1.5-1.2,1.9-1.2,1.9l-16.3-0.2c0,0-1.1,0-1,1.7c0,1.8,1.1,2.1,1.1,2.1
					l16.3,0.2c0,0,1.3-0.1,1.3,1.8c0,1.9-1.5,1.9-1.5,1.9l-16-0.2c0,0-1,0-1,1.7c0,1.7,1.2,2.2,1.2,2.2l16,0.2c0,0,1.3,0.3,1.3,2
					c0,1.7-1.3,1.8-1.3,1.8l-15.8-0.2c0,0-1.5-0.3-1.5,1.4c0,1.7,1.6,2,1.6,2l15.7,0.2c0,0,1.2-0.5,1.2,1.5c0,1.9-1.3,2.2-1.3,2.2
					l-15.4-0.2c0,0-1.7,0-1.7,1.8c0,1.8,1.7,2,1.7,2l15.5,0.2c0,0,1.3-0.3,1.3,1.4c0,1.7-1.3,1.9-1.3,1.9l-15.5-0.1
					c0,0-1.6,0-1.6,1.7c0,1.7,1.6,1.8,1.6,1.8l15.8,0.1l1.2,0.4"/>
				<path opacity="0.5" fill="none" stroke="#7A726F" stroke-width="0.5324" d="M396.6,497.6c0-1.6,1.5-1.7,1.5-1.7l16,0.2
					c0,0,1.1,0.7,1-1.2c0-2-1.2-2.3-1.2-2.3l-16.1-0.2c0,0-1.2,0.1-1.2-1.6c0-1.7,1.4-1.9,1.4-1.9l15.9,0.2c0,0,1.2-0.1,1.2-1.8
					c0-1.7-1.4-1.8-1.4-1.8l-16-0.2c0,0-1-0.3-1-1.7c0-1.5,1.1-1.9,1.1-1.9l16.4,0.2c0,0,1.1,0,1-1.7c0-1.8-1.1-2.1-1.1-2.1
					l-16.4-0.2c0,0-1.3,0.1-1.3-1.8c0-1.9,1.5-1.9,1.5-1.9l16,0.2c0,0,1,0,1-1.7c0-1.7-1.2-2.2-1.2-2.2l-16-0.2c0,0-1.3-0.3-1.3-2
					c0-1.7,1.3-1.8,1.3-1.8l15.8,0.2c0,0,1.5,0.3,1.5-1.4c0-1.7-1.6-2-1.6-2l-15.7-0.2c0,0-1.2,0.5-1.2-1.5c0-1.9,1.3-2.2,1.3-2.2
					l15.4,0.2c0,0,1.7,0,1.7-1.8c0-1.8-1.7-2-1.7-2l-15.5-0.2c0,0-1.3,0.3-1.3-1.4c0-1.7,1.3-1.9,1.3-1.9l15.5,0.2
					c0,0,1.6,0,1.6-1.7c0-1.7-1.6-1.8-1.6-1.8l-15.8-0.2l-1.2-0.4"/>
				<line opacity="0.5" fill="none" stroke="#7A726F" stroke-width="0.5324" x1="415.2" y1="496" x2="397.3" y2="492.6"/>
				<line opacity="0.5" fill="none" stroke="#7A726F" stroke-width="0.5324" x1="415.2" y1="492.8" x2="397.3" y2="489.3"/>
				<line opacity="0.5" fill="none" stroke="#7A726F" stroke-width="0.5324" x1="415.2" y1="488.7" x2="397.3" y2="485.2"/>
				<line opacity="0.5" fill="none" stroke="#7A726F" stroke-width="0.5324" x1="415.2" y1="485.1" x2="397.3" y2="481.7"/>
				<line opacity="0.5" fill="none" stroke="#7A726F" stroke-width="0.5324" x1="415.2" y1="482.1" x2="397.2" y2="478.6"/>
				<line opacity="0.5" fill="none" stroke="#7A726F" stroke-width="0.5324" x1="415.2" y1="478.5" x2="397.2" y2="475.1"/>
				<line opacity="0.5" fill="none" stroke="#7A726F" stroke-width="0.5324" x1="415.2" y1="474.9" x2="397.2" y2="471.4"/>
				<line opacity="0.5" fill="none" stroke="#7A726F" stroke-width="0.5324" x1="415.2" y1="470.9" x2="397.2" y2="467.4"/>
				<line opacity="0.5" fill="none" stroke="#7A726F" stroke-width="0.5324" x1="415.2" y1="467.3" x2="397.2" y2="463.8"/>
				<line opacity="0.5" fill="none" stroke="#7A726F" stroke-width="0.5324" x1="415.2" y1="463.7" x2="397.2" y2="460.3"/>
				<line opacity="0.5" fill="none" stroke="#7A726F" stroke-width="0.5324" x1="415.2" y1="460.2" x2="397.2" y2="456.7"/>
				<line opacity="0.5" fill="none" stroke="#7A726F" stroke-width="0.5324" x1="415.2" y1="456.2" x2="397.2" y2="452.7"/>
				<line opacity="0.5" fill="none" stroke="#7A726F" stroke-width="0.5324" x1="415.2" y1="452.4" x2="397.2" y2="449"/>
			</g>
			<g>
				<line opacity="0.5" fill="none" stroke="#7A726F" stroke-width="0.5324" x1="413.7" y1="447.3" x2="413.7" y2="397"/>
				<line opacity="0.5" fill="none" stroke="#7A726F" stroke-width="0.5324" x1="397.6" y1="447.1" x2="397.5" y2="396.8"/>
				<line opacity="0.5" fill="none" stroke="#7A726F" stroke-width="0.5324" x1="408.3" y1="447.3" x2="408.3" y2="396.9"/>
				<line opacity="0.5" fill="none" stroke="#7A726F" stroke-width="0.5324" x1="402.9" y1="447.2" x2="402.9" y2="396.9"/>
				<path opacity="0.5" fill="none" stroke="#7A726F" stroke-width="0.5324" d="M415.2,396.8c0,1.6-1.5,1.7-1.5,1.7l-16-0.2
					c0,0-1.1-0.7-1.1,1.2c0,2,1.2,2.3,1.2,2.3l16.1,0.2c0,0,1.2-0.1,1.2,1.6c0,1.7-1.4,1.9-1.4,1.9l-15.9-0.2c0,0-1.2,0.1-1.2,1.8
					c0,1.7,1.4,1.8,1.4,1.8l16,0.2c0,0,1,0.3,1,1.7c0,1.5-1.2,1.9-1.2,1.9l-16.3-0.2c0,0-1,0-1,1.7c0,1.8,1,2.1,1,2.1l16.4,0.2
					c0,0,1.3-0.1,1.3,1.8c0,1.9-1.5,1.9-1.5,1.9l-16-0.2c0,0-1.1,0-1.1,1.7c0,1.7,1.2,2.2,1.2,2.2l16,0.2c0,0,1.3,0.3,1.3,2
					c0,1.7-1.3,1.8-1.3,1.8l-15.8-0.2c0,0-1.5-0.3-1.5,1.4c0,1.7,1.6,2,1.6,2l15.7,0.2c0,0,1.2-0.5,1.2,1.5c0,1.9-1.3,2.2-1.3,2.2
					l-15.4-0.2c0,0-1.8,0-1.7,1.8c0,1.8,1.7,2,1.7,2l15.5,0.2c0,0,1.3-0.3,1.3,1.4c0,1.7-1.3,1.9-1.3,1.9l-15.5-0.2
					c0,0-1.6,0-1.6,1.7c0,1.7,1.6,1.8,1.6,1.8l15.8,0.2l1.2,0.4"/>
				<path opacity="0.5" fill="none" stroke="#7A726F" stroke-width="0.5324" d="M396.5,447c0-1.6,1.5-1.7,1.5-1.7l16,0.2
					c0,0,1,0.7,1-1.2c0-1.9-1.2-2.3-1.2-2.3l-16.1-0.2c0,0-1.2,0.1-1.2-1.6c0-1.7,1.4-1.9,1.4-1.9l15.9,0.2c0,0,1.2-0.1,1.2-1.8
					c0-1.7-1.4-1.8-1.4-1.8l-16-0.2c0,0-1.1-0.3-1.1-1.7c0-1.5,1.2-1.9,1.2-1.9l16.4,0.2c0,0,1,0,1-1.7c0-1.8-1-2.1-1-2.1l-16.4-0.2
					c0,0-1.3,0.1-1.3-1.8c0-2,1.5-1.9,1.5-1.9l16,0.2c0,0,1,0,1-1.7c0-1.7-1.2-2.2-1.2-2.2l-16-0.2c0,0-1.3-0.2-1.3-1.9
					c0-1.7,1.3-1.8,1.3-1.8l15.8,0.2c0,0,1.5,0.3,1.5-1.4c0-1.7-1.6-2-1.6-2l-15.7-0.2c0,0-1.2,0.5-1.2-1.5c0-2,1.3-2.2,1.3-2.2
					l15.4,0.2c0,0,1.8,0,1.8-1.8c0-1.8-1.7-2-1.7-2l-15.5-0.2c0,0-1.3,0.3-1.3-1.4c0-1.7,1.3-1.9,1.3-1.9l15.5,0.2
					c0,0,1.6,0,1.6-1.7c0-1.7-1.6-1.8-1.6-1.8l-15.8-0.2l-1.2-0.4"/>
				<line opacity="0.5" fill="none" stroke="#7A726F" stroke-width="0.5324" x1="415.2" y1="445.5" x2="397.2" y2="442"/>
				<line opacity="0.5" fill="none" stroke="#7A726F" stroke-width="0.5324" x1="415.1" y1="442.2" x2="397.2" y2="438.7"/>
				<line opacity="0.5" fill="none" stroke="#7A726F" stroke-width="0.5324" x1="415.2" y1="438.1" x2="397.2" y2="434.6"/>
				<line opacity="0.5" fill="none" stroke="#7A726F" stroke-width="0.5324" x1="415.1" y1="434.6" x2="397.2" y2="431.1"/>
				<line opacity="0.5" fill="none" stroke="#7A726F" stroke-width="0.5324" x1="415.1" y1="431.5" x2="397.2" y2="428"/>
				<line opacity="0.5" fill="none" stroke="#7A726F" stroke-width="0.5324" x1="415.1" y1="428" x2="397.2" y2="424.5"/>
				<line opacity="0.5" fill="none" stroke="#7A726F" stroke-width="0.5324" x1="415.1" y1="424.3" x2="397.2" y2="420.8"/>
				<line opacity="0.5" fill="none" stroke="#7A726F" stroke-width="0.5324" x1="415.1" y1="420.3" x2="397.2" y2="416.8"/>
				<line opacity="0.5" fill="none" stroke="#7A726F" stroke-width="0.5324" x1="415.1" y1="416.7" x2="397.2" y2="413.2"/>
				<line opacity="0.5" fill="none" stroke="#7A726F" stroke-width="0.5324" x1="415.1" y1="413.2" x2="397.2" y2="409.7"/>
				<line opacity="0.5" fill="none" stroke="#7A726F" stroke-width="0.5324" x1="415.1" y1="409.6" x2="397.2" y2="406.1"/>
				<line opacity="0.5" fill="none" stroke="#7A726F" stroke-width="0.5324" x1="415.1" y1="405.6" x2="397.2" y2="402.1"/>
				<line opacity="0.5" fill="none" stroke="#7A726F" stroke-width="0.5324" x1="415.1" y1="401.9" x2="397.2" y2="398.4"/>
			</g>
			<g>
				<line opacity="0.5" fill="none" stroke="#7A726F" stroke-width="0.5324" x1="413.7" y1="396.8" x2="413.8" y2="346.4"/>
				<line opacity="0.5" fill="none" stroke="#7A726F" stroke-width="0.5324" x1="397.5" y1="396.5" x2="397.6" y2="346.2"/>
				<line opacity="0.5" fill="none" stroke="#7A726F" stroke-width="0.5324" x1="408.3" y1="396.7" x2="408.4" y2="346.4"/>
				<line opacity="0.5" fill="none" stroke="#7A726F" stroke-width="0.5324" x1="402.9" y1="396.6" x2="403" y2="346.3"/>
				<path opacity="0.5" fill="none" stroke="#7A726F" stroke-width="0.5324" d="M415.2,346.2c0,1.6-1.5,1.7-1.5,1.7l-16-0.2
					c0,0-1-0.7-1.1,1.2c0,1.9,1.2,2.3,1.2,2.3l16.1,0.2c0,0,1.2-0.1,1.2,1.6c0,1.7-1.4,1.9-1.4,1.9l-15.9-0.2c0,0-1.2,0.1-1.2,1.8
					c0,1.7,1.4,1.8,1.4,1.8l16,0.2c0,0,1,0.3,1,1.7c0,1.5-1.2,1.9-1.2,1.9l-16.4-0.2c0,0-1,0-1,1.7c0,1.8,1,2.1,1,2.1l16.3,0.2
					c0,0,1.3-0.1,1.3,1.8c0,1.9-1.5,1.9-1.5,1.9l-16-0.2c0,0-1.1,0-1,1.7c0,1.7,1.2,2.2,1.2,2.2l16,0.2c0,0,1.3,0.3,1.3,2
					c0,1.7-1.3,1.8-1.3,1.8l-15.8-0.2c0,0-1.5-0.3-1.5,1.4c0,1.7,1.6,2,1.6,2l15.7,0.2c0,0,1.2-0.5,1.2,1.5c0,1.9-1.3,2.2-1.3,2.2
					l-15.4-0.2c0,0-1.7,0-1.7,1.8c0,1.8,1.7,2,1.7,2l15.5,0.2c0,0,1.3-0.3,1.3,1.4c0,1.7-1.3,1.9-1.3,1.9l-15.5-0.2
					c0,0-1.6,0-1.6,1.7c0,1.7,1.6,1.8,1.6,1.8l15.8,0.2l1.2,0.4"/>
				<path opacity="0.5" fill="none" stroke="#7A726F" stroke-width="0.5324" d="M396.5,396.4c0-1.6,1.5-1.7,1.5-1.7l16,0.2
					c0,0,1,0.7,1-1.2c0-1.9-1.2-2.3-1.2-2.3l-16.1-0.2c0,0-1.2,0.1-1.2-1.6c0-1.7,1.4-1.9,1.4-1.9l15.9,0.2c0,0,1.2-0.1,1.2-1.8
					c0-1.7-1.4-1.8-1.4-1.8l-16-0.2c0,0-1-0.3-1-1.7c0-1.5,1.2-1.9,1.2-1.9l16.3,0.2c0,0,1.1,0,1.1-1.7c0-1.8-1-2.1-1-2.1l-16.4-0.2
					c0,0-1.3,0.1-1.3-1.9c0-1.9,1.5-1.9,1.5-1.9l16,0.2c0,0,1,0,1-1.7c0-1.7-1.2-2.2-1.2-2.2l-16-0.2c0,0-1.3-0.3-1.3-2
					c0-1.7,1.3-1.8,1.3-1.8l15.8,0.2c0,0,1.5,0.3,1.5-1.4c0-1.7-1.6-2-1.6-2l-15.7-0.2c0,0-1.2,0.5-1.2-1.5c0-1.9,1.3-2.2,1.3-2.2
					l15.4,0.2c0,0,1.7,0,1.7-1.8c0-1.8-1.7-2-1.7-2l-15.5-0.2c0,0-1.3,0.3-1.3-1.4c0-1.7,1.3-1.9,1.3-1.9l15.5,0.2
					c0,0,1.6,0,1.6-1.7c0-1.7-1.6-1.8-1.6-1.8l-15.8-0.2l-1.2-0.4"/>
				<line opacity="0.5" fill="none" stroke="#7A726F" stroke-width="0.5324" x1="415.2" y1="394.9" x2="397.2" y2="391.4"/>
				<line opacity="0.5" fill="none" stroke="#7A726F" stroke-width="0.5324" x1="415.2" y1="391.6" x2="397.2" y2="388.1"/>
				<line opacity="0.5" fill="none" stroke="#7A726F" stroke-width="0.5324" x1="415.2" y1="387.5" x2="397.2" y2="384"/>
				<line opacity="0.5" fill="none" stroke="#7A726F" stroke-width="0.5324" x1="415.2" y1="384" x2="397.2" y2="380.5"/>
				<line opacity="0.5" fill="none" stroke="#7A726F" stroke-width="0.5324" x1="415.2" y1="380.9" x2="397.2" y2="377.4"/>
				<line opacity="0.5" fill="none" stroke="#7A726F" stroke-width="0.5324" x1="415.2" y1="377.4" x2="397.2" y2="373.9"/>
				<line opacity="0.5" fill="none" stroke="#7A726F" stroke-width="0.5324" x1="415.2" y1="373.8" x2="397.2" y2="370.2"/>
				<line opacity="0.5" fill="none" stroke="#7A726F" stroke-width="0.5324" x1="415.2" y1="369.8" x2="397.2" y2="366.2"/>
				<line opacity="0.5" fill="none" stroke="#7A726F" stroke-width="0.5324" x1="415.2" y1="366.1" x2="397.2" y2="362.6"/>
				<line opacity="0.5" fill="none" stroke="#7A726F" stroke-width="0.5324" x1="415.2" y1="362.6" x2="397.2" y2="359.1"/>
				<line opacity="0.5" fill="none" stroke="#7A726F" stroke-width="0.5324" x1="415.2" y1="359.1" x2="397.2" y2="355.5"/>
				<line opacity="0.5" fill="none" stroke="#7A726F" stroke-width="0.5324" x1="415.2" y1="355.1" x2="397.2" y2="351.5"/>
				<line opacity="0.5" fill="none" stroke="#7A726F" stroke-width="0.5324" x1="415.2" y1="351.3" x2="397.3" y2="347.8"/>
			</g>
			<g>
				<line opacity="0.5" fill="none" stroke="#7A726F" stroke-width="0.5324" x1="413.8" y1="346.2" x2="413.9" y2="295.9"/>
				<line opacity="0.5" fill="none" stroke="#7A726F" stroke-width="0.5324" x1="397.6" y1="346" x2="397.7" y2="295.6"/>
				<line opacity="0.5" fill="none" stroke="#7A726F" stroke-width="0.5324" x1="408.4" y1="346.1" x2="408.5" y2="295.8"/>
				<line opacity="0.5" fill="none" stroke="#7A726F" stroke-width="0.5324" x1="403" y1="346" x2="403.1" y2="295.7"/>
				<path opacity="0.5" fill="none" stroke="#7A726F" stroke-width="0.5324" d="M415.3,295.6c0,1.6-1.5,1.7-1.5,1.7l-16-0.2
					c0,0-1-0.7-1.1,1.2c0,1.9,1.2,2.3,1.2,2.3l16.1,0.2c0,0,1.2-0.1,1.2,1.6c0,1.7-1.4,1.9-1.4,1.9l-15.9-0.2c0,0-1.2,0.1-1.2,1.8
					c0,1.7,1.4,1.8,1.4,1.8l16,0.2c0,0,1,0.3,1,1.7c0,1.5-1.2,1.9-1.2,1.9l-16.3-0.2c0,0-1,0-1,1.7c0,1.8,1,2.1,1,2.1l16.4,0.2
					c0,0,1.3-0.1,1.3,1.8c0,2-1.5,1.9-1.5,1.9l-16-0.2c0,0-1,0-1,1.7c0,1.7,1.2,2.2,1.2,2.2l16,0.2c0,0,1.3,0.3,1.3,2
					c0,1.7-1.3,1.8-1.3,1.8l-15.8-0.2c0,0-1.5-0.3-1.5,1.4c0,1.7,1.6,2,1.6,2l15.7,0.2c0,0,1.2-0.5,1.2,1.5c0,1.9-1.3,2.2-1.3,2.2
					l-15.4-0.2c0,0-1.7,0-1.7,1.8c0,1.8,1.7,2,1.7,2l15.5,0.2c0,0,1.3-0.3,1.3,1.4c0,1.7-1.3,1.9-1.3,1.9l-15.5-0.2
					c0,0-1.6,0-1.6,1.7c0,1.7,1.6,1.8,1.6,1.8l15.8,0.2l1.2,0.4"/>
				<path opacity="0.5" fill="none" stroke="#7A726F" stroke-width="0.5324" d="M396.5,345.8c0-1.6,1.5-1.7,1.5-1.7l16,0.2
					c0,0,1,0.8,1.1-1.2c0-2-1.2-2.3-1.2-2.3l-16.1-0.2c0,0-1.2,0.1-1.2-1.6c0-1.7,1.4-1.9,1.4-1.9l15.9,0.2c0,0,1.2-0.1,1.2-1.8
					c0-1.7-1.4-1.8-1.4-1.8l-16-0.2c0,0-1-0.3-1-1.7c0-1.5,1.2-1.9,1.2-1.9l16.3,0.2c0,0,1,0,1-1.7c0-1.8-1-2.1-1-2.1l-16.3-0.2
					c0,0-1.3,0.1-1.3-1.8c0-1.9,1.5-1.9,1.5-1.9l16,0.2c0,0,1,0,1.1-1.7c0-1.7-1.2-2.2-1.2-2.2l-16-0.2c0,0-1.3-0.3-1.3-2
					c0-1.7,1.3-1.8,1.3-1.8l15.8,0.2c0,0,1.5,0.3,1.5-1.4c0-1.7-1.6-2-1.6-2l-15.7-0.2c0,0-1.2,0.5-1.2-1.5c0-1.9,1.3-2.2,1.3-2.2
					l15.4,0.2c0,0,1.7,0,1.7-1.8c0-1.8-1.7-2-1.7-2l-15.5-0.2c0,0-1.3,0.3-1.3-1.4c0-1.7,1.3-1.9,1.3-1.9l15.6,0.2
					c0,0,1.6,0,1.6-1.7c0-1.7-1.6-1.8-1.6-1.8l-15.8-0.2l-1.2-0.4"/>
				<line opacity="0.5" fill="none" stroke="#7A726F" stroke-width="0.5324" x1="415.2" y1="344.3" x2="397.3" y2="340.8"/>
				<line opacity="0.5" fill="none" stroke="#7A726F" stroke-width="0.5324" x1="415.2" y1="341.1" x2="397.3" y2="337.5"/>
				<line opacity="0.5" fill="none" stroke="#7A726F" stroke-width="0.5324" x1="415.2" y1="337" x2="397.3" y2="333.4"/>
				<line opacity="0.5" fill="none" stroke="#7A726F" stroke-width="0.5324" x1="415.2" y1="333.4" x2="397.3" y2="329.9"/>
				<line opacity="0.5" fill="none" stroke="#7A726F" stroke-width="0.5324" x1="415.2" y1="330.4" x2="397.3" y2="326.8"/>
				<line opacity="0.5" fill="none" stroke="#7A726F" stroke-width="0.5324" x1="415.2" y1="326.8" x2="397.3" y2="323.3"/>
				<line opacity="0.5" fill="none" stroke="#7A726F" stroke-width="0.5324" x1="415.2" y1="323.2" x2="397.3" y2="319.7"/>
				<line opacity="0.5" fill="none" stroke="#7A726F" stroke-width="0.5324" x1="415.3" y1="319.2" x2="397.3" y2="315.7"/>
				<line opacity="0.5" fill="none" stroke="#7A726F" stroke-width="0.5324" x1="415.3" y1="315.5" x2="397.3" y2="312"/>
				<line opacity="0.5" fill="none" stroke="#7A726F" stroke-width="0.5324" x1="415.3" y1="312" x2="397.3" y2="308.5"/>
				<line opacity="0.5" fill="none" stroke="#7A726F" stroke-width="0.5324" x1="415.3" y1="308.5" x2="397.3" y2="304.9"/>
				<line opacity="0.5" fill="none" stroke="#7A726F" stroke-width="0.5324" x1="415.3" y1="304.5" x2="397.4" y2="300.9"/>
				<line opacity="0.5" fill="none" stroke="#7A726F" stroke-width="0.5324" x1="415.3" y1="300.7" x2="397.4" y2="297.2"/>
			</g>
			<g>
				<line opacity="0.5" fill="none" stroke="#7A726F" stroke-width="0.5324" x1="413.9" y1="295.6" x2="414.1" y2="245.3"/>
				<line opacity="0.5" fill="none" stroke="#7A726F" stroke-width="0.5324" x1="397.7" y1="295.4" x2="397.9" y2="245"/>
				<line opacity="0.5" fill="none" stroke="#7A726F" stroke-width="0.5324" x1="408.5" y1="295.5" x2="408.7" y2="245.2"/>
				<line opacity="0.5" fill="none" stroke="#7A726F" stroke-width="0.5324" x1="403.1" y1="295.4" x2="403.3" y2="245.1"/>
				<path opacity="0.5" fill="none" stroke="#7A726F" stroke-width="0.5324" d="M415.5,245.1c0,1.6-1.5,1.7-1.5,1.7l-16-0.3
					c0,0-1-0.7-1.1,1.2c0,1.9,1.2,2.3,1.2,2.3l16.1,0.3c0,0,1.2-0.1,1.2,1.6c0,1.7-1.4,1.9-1.4,1.9l-15.9-0.3c0,0-1.2,0.1-1.2,1.8
					c0,1.7,1.4,1.8,1.4,1.8l16,0.3c0,0,1,0.3,1,1.7c0,1.5-1.2,1.9-1.2,1.9l-16.3-0.3c0,0-1,0-1.1,1.7c0,1.8,1,2.1,1,2.1l16.3,0.3
					c0,0,1.3-0.1,1.3,1.8c0,1.9-1.5,1.9-1.5,1.9l-16-0.2c0,0-1,0-1.1,1.7c0,1.7,1.2,2.2,1.2,2.2l16,0.2c0,0,1.3,0.3,1.3,2
					c0,1.7-1.3,1.8-1.3,1.8l-15.8-0.2c0,0-1.5-0.3-1.5,1.4c0,1.7,1.6,2,1.6,2l15.7,0.2c0,0,1.2-0.5,1.1,1.5c0,2-1.3,2.2-1.3,2.2
					l-15.4-0.2c0,0-1.7,0-1.7,1.8c0,1.8,1.7,2,1.7,2l15.5,0.2c0,0,1.3-0.3,1.3,1.4c0,1.7-1.3,1.9-1.3,1.9l-15.5-0.2
					c0,0-1.6,0-1.6,1.7c0,1.7,1.6,1.8,1.6,1.8l15.8,0.2l1.2,0.4"/>
				<path opacity="0.5" fill="none" stroke="#7A726F" stroke-width="0.5324" d="M396.7,295.2c0-1.6,1.5-1.7,1.5-1.7l16,0.2
					c0,0,1,0.7,1.1-1.2c0-1.9-1.2-2.3-1.2-2.3l-16.1-0.2c0,0-1.2,0.1-1.2-1.6c0-1.7,1.4-1.9,1.4-1.9l15.9,0.2c0,0,1.2-0.1,1.2-1.8
					c0-1.7-1.4-1.8-1.4-1.8l-16-0.2c0,0-1-0.3-1-1.7c0-1.5,1.2-1.9,1.2-1.9l16.4,0.3c0,0,1,0,1.1-1.7c0-1.8-1-2.1-1-2.1l-16.3-0.3
					c0,0-1.3,0.1-1.3-1.8c0-1.9,1.5-1.9,1.5-1.9l16,0.3c0,0,1,0,1-1.7c0-1.7-1.2-2.2-1.2-2.2l-16-0.3c0,0-1.3-0.3-1.3-2
					c0-1.7,1.3-1.8,1.3-1.8l15.8,0.2c0,0,1.5,0.3,1.5-1.4c0-1.7-1.6-2-1.6-2l-15.7-0.2c0,0-1.2,0.5-1.1-1.5c0-1.9,1.3-2.2,1.3-2.2
					l15.4,0.2c0,0,1.7,0,1.7-1.8c0-1.8-1.7-2-1.7-2l-15.5-0.2c0,0-1.3,0.3-1.3-1.4c0-1.7,1.3-1.9,1.3-1.9l15.5,0.2
					c0,0,1.6,0,1.6-1.7c0-1.7-1.6-1.8-1.6-1.8l-15.8-0.3l-1.2-0.4"/>
				<line opacity="0.5" fill="none" stroke="#7A726F" stroke-width="0.5324" x1="415.3" y1="293.8" x2="397.4" y2="290.2"/>
				<line opacity="0.5" fill="none" stroke="#7A726F" stroke-width="0.5324" x1="415.3" y1="290.5" x2="397.4" y2="286.9"/>
				<line opacity="0.5" fill="none" stroke="#7A726F" stroke-width="0.5324" x1="415.4" y1="286.4" x2="397.4" y2="282.8"/>
				<line opacity="0.5" fill="none" stroke="#7A726F" stroke-width="0.5324" x1="415.4" y1="282.9" x2="397.4" y2="279.3"/>
				<line opacity="0.5" fill="none" stroke="#7A726F" stroke-width="0.5324" x1="415.4" y1="279.8" x2="397.4" y2="276.2"/>
				<line opacity="0.5" fill="none" stroke="#7A726F" stroke-width="0.5324" x1="415.4" y1="276.3" x2="397.4" y2="272.7"/>
				<line opacity="0.5" fill="none" stroke="#7A726F" stroke-width="0.5324" x1="415.4" y1="272.6" x2="397.4" y2="269.1"/>
				<line opacity="0.5" fill="none" stroke="#7A726F" stroke-width="0.5324" x1="415.4" y1="268.6" x2="397.5" y2="265.1"/>
				<line opacity="0.5" fill="none" stroke="#7A726F" stroke-width="0.5324" x1="415.4" y1="265" x2="397.5" y2="261.4"/>
				<line opacity="0.5" fill="none" stroke="#7A726F" stroke-width="0.5324" x1="415.4" y1="261.5" x2="397.5" y2="257.9"/>
				<line opacity="0.5" fill="none" stroke="#7A726F" stroke-width="0.5324" x1="415.4" y1="257.9" x2="397.5" y2="254.4"/>
				<line opacity="0.5" fill="none" stroke="#7A726F" stroke-width="0.5324" x1="415.5" y1="253.9" x2="397.5" y2="250.4"/>
				<line opacity="0.5" fill="none" stroke="#7A726F" stroke-width="0.5324" x1="415.5" y1="250.2" x2="397.5" y2="246.6"/>
			</g>
			<g>
				<line opacity="0.5" fill="none" stroke="#7A726F" stroke-width="0.5324" x1="414.1" y1="245" x2="414.3" y2="194.7"/>
				<line opacity="0.5" fill="none" stroke="#7A726F" stroke-width="0.5324" x1="397.9" y1="244.8" x2="398.1" y2="194.5"/>
				<line opacity="0.5" fill="none" stroke="#7A726F" stroke-width="0.5324" x1="408.7" y1="244.9" x2="408.9" y2="194.6"/>
				<line opacity="0.5" fill="none" stroke="#7A726F" stroke-width="0.5324" x1="403.3" y1="244.9" x2="403.5" y2="194.5"/>
				<path opacity="0.5" fill="none" stroke="#7A726F" stroke-width="0.5324" d="M415.7,194.5c0,1.6-1.5,1.7-1.5,1.7l-16-0.3
					c0,0-1-0.7-1.1,1.2c0,1.9,1.2,2.3,1.2,2.3l16.1,0.3c0,0,1.2-0.1,1.2,1.6c0,1.7-1.4,1.9-1.4,1.9l-15.9-0.3c0,0-1.2,0.1-1.2,1.8
					c0,1.7,1.4,1.8,1.4,1.8l16,0.3c0,0,1,0.3,1,1.7c0,1.4-1.2,1.9-1.2,1.9l-16.3-0.3c0,0-1,0-1.1,1.7c0,1.8,1,2.1,1,2.1l16.4,0.3
					c0,0,1.3-0.1,1.3,1.8c0,2-1.5,1.9-1.5,1.9l-16-0.3c0,0-1,0-1.1,1.7c0,1.7,1.2,2.2,1.2,2.2l16,0.3c0,0,1.3,0.3,1.3,2
					c0,1.7-1.3,1.8-1.3,1.8l-15.8-0.3c0,0-1.5-0.3-1.5,1.4c0,1.7,1.6,2,1.6,2l15.7,0.3c0,0,1.2-0.5,1.2,1.5c0,1.9-1.3,2.2-1.3,2.2
					l-15.4-0.3c0,0-1.7,0-1.8,1.8c0,1.8,1.7,2,1.7,2l15.5,0.3c0,0,1.3-0.3,1.3,1.4c0,1.7-1.3,1.9-1.3,1.9l-15.5-0.2
					c0,0-1.6,0-1.6,1.7c0,1.7,1.6,1.8,1.6,1.8l15.8,0.3l1.2,0.4"/>
				<path opacity="0.5" fill="none" stroke="#7A726F" stroke-width="0.5324" d="M396.8,244.6c0-1.6,1.5-1.7,1.5-1.7l16,0.3
					c0,0,1,0.7,1-1.2c0-1.9-1.1-2.3-1.1-2.3l-16.1-0.3c0,0-1.2,0.1-1.1-1.6c0-1.7,1.4-1.9,1.4-1.9l15.9,0.3c0,0,1.2-0.1,1.2-1.8
					c0-1.7-1.4-1.8-1.4-1.8l-16-0.3c0,0-1-0.3-1-1.7c0-1.5,1.2-1.9,1.2-1.9l16.4,0.3c0,0,1.1,0,1.1-1.7c0-1.8-1-2.1-1-2.1l-16.3-0.3
					c0,0-1.3,0.1-1.3-1.8c0-1.9,1.5-1.9,1.5-1.9l16,0.3c0,0,1,0,1.1-1.7c0-1.7-1.2-2.2-1.2-2.2l-16-0.3c0,0-1.3-0.3-1.3-2
					c0-1.7,1.3-1.8,1.3-1.8l15.8,0.3c0,0,1.5,0.3,1.5-1.4c0-1.7-1.6-2-1.6-2l-15.7-0.3c0,0-1.2,0.5-1.2-1.5c0-1.9,1.3-2.2,1.3-2.2
					l15.4,0.3c0,0,1.7,0,1.8-1.8c0-1.8-1.7-2-1.7-2l-15.5-0.3c0,0-1.3,0.3-1.3-1.4c0-1.7,1.3-1.9,1.3-1.9l15.5,0.3
					c0,0,1.6,0,1.6-1.7c0-1.7-1.6-1.9-1.6-1.9l-15.8-0.3l-1.2-0.4"/>
				<line opacity="0.5" fill="none" stroke="#7A726F" stroke-width="0.5324" x1="415.5" y1="243.2" x2="397.6" y2="239.6"/>
				<line opacity="0.5" fill="none" stroke="#7A726F" stroke-width="0.5324" x1="415.5" y1="239.9" x2="397.6" y2="236.4"/>
				<line opacity="0.5" fill="none" stroke="#7A726F" stroke-width="0.5324" x1="415.5" y1="235.8" x2="397.6" y2="232.2"/>
				<line opacity="0.5" fill="none" stroke="#7A726F" stroke-width="0.5324" x1="415.5" y1="232.3" x2="397.6" y2="228.7"/>
				<line opacity="0.5" fill="none" stroke="#7A726F" stroke-width="0.5324" x1="415.6" y1="229.2" x2="397.6" y2="225.6"/>
				<line opacity="0.5" fill="none" stroke="#7A726F" stroke-width="0.5324" x1="415.6" y1="225.7" x2="397.6" y2="222.1"/>
				<line opacity="0.5" fill="none" stroke="#7A726F" stroke-width="0.5324" x1="415.6" y1="222.1" x2="397.6" y2="218.5"/>
				<line opacity="0.5" fill="none" stroke="#7A726F" stroke-width="0.5324" x1="415.6" y1="218.1" x2="397.7" y2="214.5"/>
				<line opacity="0.5" fill="none" stroke="#7A726F" stroke-width="0.5324" x1="415.6" y1="214.4" x2="397.7" y2="210.8"/>
				<line opacity="0.5" fill="none" stroke="#7A726F" stroke-width="0.5324" x1="415.6" y1="210.9" x2="397.7" y2="207.3"/>
				<line opacity="0.5" fill="none" stroke="#7A726F" stroke-width="0.5324" x1="415.7" y1="207.4" x2="397.7" y2="203.8"/>
				<line opacity="0.5" fill="none" stroke="#7A726F" stroke-width="0.5324" x1="415.7" y1="203.4" x2="397.7" y2="199.8"/>
				<line opacity="0.5" fill="none" stroke="#7A726F" stroke-width="0.5324" x1="415.7" y1="199.6" x2="397.8" y2="196"/>
			</g>
		</g>
		<path opacity="0.5" fill="none" stroke="#3C3533" stroke-width="0.647" stroke-dasharray="2.5879,2.5879" d="M196.3,148
			c0,0,7.9-7.2,54.6-4.8c64,3.3,189.8,14.5,218.7,15.6s90.8,13,102.5,14.2S605,184.9,610,186c5.1,1.1,17.5,7.5,17.5,7.5"/>
		<path opacity="0.5" fill="none" stroke="#3C3533" stroke-width="0.647" stroke-dasharray="2.5879,2.5879" d="M188.4,194
			c0,0,2.5-10.5,66.6-10.1c64.1,0.5,194.8,15.9,223.8,16.4c29,0.5,81.9,7.2,93.6,8.2c11.7,1,33.1,11.1,38.1,12s9.7,3.5,9.7,3.5"/>
		<path opacity="0.5" fill="none" stroke="#3C3533" stroke-width="0.6572" stroke-dasharray="2.6289,2.6289" d="M246.6,808.3
			c0,0,49.1,8.2,70.3,5.6c21.2-2.6,66.1-9.5,99.6-10.4c33.5-0.9,105.7,0.4,115.6-1.3c9.9-1.7,56.1-7.8,71.2-11.3
			c15.1-3.5,27.8-4.8,27.8-4.8"/>
		<path opacity="0.5" fill="none" stroke="#3C3533" stroke-width="0.6572" stroke-dasharray="2.6289,2.6289" d="M246.6,818.7
			c0,0,49.1,8.2,70.3,5.6c21.2-2.6,66.1-9.5,99.6-10.4c33.5-0.9,105.7,0.4,115.6-1.3s56.1-7.8,71.2-11.3c15.1-3.5,27.8-4.8,27.8-4.8
			"/>
		<path opacity="0.5" fill="none" stroke="#3C3533" stroke-width="0.5285" stroke-dasharray="2.1138,2.1138" d="M147.4,756.8
			c0,0,4.6,9.1,15.9,9.1c11.3,0,35.7,1.7,48.5,3.5s29.6,3.9,29.6,3.9"/>
		<path opacity="0.5" fill="none" stroke="#3C3533" stroke-width="0.5285" stroke-dasharray="2.1138,2.1138" d="M147.4,767.2
			c0,0,4.6,9.1,15.9,9.1c11.3,0,35.7,1.7,48.5,3.5s29.6,3.9,29.6,3.9"/>
	</g>
</g>	
<g id="SHORT_LEG_STRIPE">
	<g>
		<path stroke="#897F76" stroke-width="0.5" stroke-miterlimit="10" d="M162.4,697.1c18.6,3.6,63.2,12.6,66.8,16.9
			c4.5,5.4,6.3,17,6.3,17s19.7,1.8,121.1,0.9c84.1-0.7,224.3-22.5,269.7-29.9c5.2,33.1,5.2,69.5,5.2,69.5v46.2
			c0,0-14,17.6-140.2,30.6c-25.8,2.7-53,1-82.3,3.5c-121.6,10.4-161.1-3.2-161.1-3.2l-2.3-30.8c0,0-30.2,2.2-53.5,0
			c-23.2-2.2-53.5-8.8-53.5-8.8S153.5,742.6,162.4,697.1z"/>
	</g>
</g>	
<g id="SHORT_LOWER_LEG">
	<g>
		<path fill="#897F76" d="M235.4,731c0,0-1.8-11.7-6.3-17c-3.5-4.3-48.2-13.3-66.8-16.9c2.2-11,3.9-20.9,5.1-28.2
			c14.1,2.7,48.8,9.8,52.4,14.1c4.5,5.4,6.3,17,6.3,17s19.7,1.8,121.1,0.9c85.8-0.8,230.1-23.4,272.4-30.3
			c2.2,9.2,3.9,16.6,4.9,21.6c0.6,3.2,1.2,6.5,1.7,9.8c-45.4,7.4-185.6,29.1-269.7,29.9C255.1,732.8,235.4,731,235.4,731z"/>
	</g>
</g>
	</g>
<g id="CUSTOM"></g>		

<g id="SHADING">
	<polygon points="245.6,818.8 245.6,818.8 245.5,817.8 	"/>
	<g opacity="2.000000e-02">
		<path d="M103.8,445.3c0,0,0,0.1,0,0.1C103.8,445.3,103.8,445.3,103.8,445.3 M103.8,445.3L103.8,445.3L103.8,445.3L103.8,445.3
			 M103.8,444.9C103.8,444.9,103.8,445,103.8,444.9L103.8,444.9C103.8,445,103.8,444.9,103.8,444.9"/>
		<path d="M106.2,413.7c-0.2,1.2-0.4,2.4-0.6,3.6C105.8,416,106,414.9,106.2,413.7"/>
		<path d="M104.9,422.9c-0.1,0.4-0.1,0.8-0.2,1.3C104.8,423.7,104.8,423.3,104.9,422.9"/>
		<polyline points="104.5,460 104.5,460 104.5,460 104.5,460 		"/>
		<polyline points="104,452.5 104,452.6 104,452.5 		"/>
		<path d="M115.4,380.4c-4.3,17.7-7,43.6-10.9,79.6l0,0c-0.2-2.5-0.3-4.9-0.4-7.3l0-0.1c-0.1-2.4-0.2-4.8-0.2-7.1c0,0,0-0.1,0-0.1
			l0,0c0-0.1,0-0.2,0-0.3l0,0c0,0,0,0,0-0.1c0-2.2,0-4.5,0-6.7c0-0.3,0-0.7,0-1c0.1-2,0.1-4.1,0.3-6.1c0-0.6,0.1-1.1,0.1-1.7
			c0.1-1.8,0.3-3.6,0.4-5.3l0,0c0-0.4,0.1-0.8,0.2-1.3c0.1-0.4,0.1-0.8,0.2-1.3c0.2-1.5,0.3-2.9,0.6-4.4l0,0
			c0.2-1.2,0.4-2.4,0.6-3.6l0,0c0.2-1.1,0.3-2.1,0.6-3.2c0.5-2.2,1-4.4,1.5-6.6c1-3.8,2.1-7.6,3.2-11.4c0.1-0.2,0.1-0.4,0.2-0.5
			C112.9,388.1,114.1,384.2,115.4,380.4"/>
		<path d="M161,630.6c0.2,0.4,0.4,0.8,0.6,1.2C161.4,631.4,161.2,631,161,630.6"/>
		<path d="M162.8,634.6c0.1,0.3,0.3,0.6,0.4,0.9C163.1,635.1,162.9,634.9,162.8,634.6"/>
		<path d="M159.1,626.9c0.2,0.4,0.5,0.9,0.7,1.3C159.6,627.8,159.3,627.4,159.1,626.9"/>
		<path d="M168.5,652.9c0,0.3,0.1,0.7,0.1,1C168.6,653.6,168.5,653.2,168.5,652.9"/>
		<path d="M167.9,649.4c0.1,0.4,0.2,0.8,0.3,1.2C168.1,650.2,168,649.8,167.9,649.4"/>
		<path d="M166,642.5c0.1,0.4,0.2,0.8,0.4,1.2C166.2,643.3,166.1,642.9,166,642.5"/>
		<path d="M150.4,611.7c0.3,0.5,0.6,1,0.9,1.5C151,612.7,150.7,612.2,150.4,611.7"/>
		<path d="M148,607.7c2.4,3.1,4.4,5.4,6,6.5c13,9.7,34.3,30.7,60.3,59.7c26,29,31.5,144.9,31.5,144.9l-0.2,0l-0.1-1
			c0,0-13.4,1-29.3,1c-7.9,0-16.4-0.2-24.2-1c-23.2-2.2-53.5-8.8-53.5-8.8s30.2-134.3,30.2-151.9c0-1-0.1-2.1-0.2-3.1
			c0-0.3-0.1-0.7-0.1-1c-0.1-0.7-0.2-1.5-0.3-2.2c-0.1-0.4-0.2-0.8-0.3-1.2c-0.2-0.7-0.3-1.4-0.5-2.2c-0.1-0.4-0.2-0.8-0.3-1.3
			c-0.2-0.8-0.5-1.5-0.7-2.3c-0.1-0.4-0.2-0.8-0.4-1.2c-0.3-1-0.7-1.9-1-2.9c-0.1-0.2-0.1-0.4-0.2-0.6c-0.5-1.2-1-2.4-1.5-3.6
			c-0.1-0.3-0.3-0.6-0.4-0.9c-0.4-0.9-0.8-1.8-1.3-2.7c-0.2-0.4-0.4-0.8-0.6-1.2c-0.4-0.8-0.8-1.6-1.2-2.4c-0.2-0.4-0.5-0.9-0.7-1.3
			c-0.4-0.8-0.8-1.5-1.2-2.3c-0.2-0.4-0.5-0.9-0.7-1.3c-0.4-0.8-0.9-1.6-1.3-2.4c-0.2-0.4-0.4-0.8-0.6-1.1c-0.6-1.1-1.3-2.2-1.9-3.3
			c-0.3-0.4-0.5-0.8-0.8-1.3c-0.4-0.7-0.8-1.4-1.2-2c-0.4-0.6-0.7-1.2-1.1-1.8c-0.3-0.4-0.5-0.9-0.8-1.3
			C149,609.3,148.5,608.5,148,607.7L148,607.7"/>
		<path d="M532.3,285.2c0,0,20.2,70.9,31.4,106.4c2.7,8.7,7.5,17.5,13.3,25.9c-2.8,17.5-4.4,34.5-3.6,48.1
			c0.6,9.3,3.6,25.6,7.9,45.6c-4.2-12.4-22.3-68.7-31.7-104.3C539.4,368.6,532.3,285.2,532.3,285.2"/>
	</g>
</g>

</svg>
