<?xml version="1.0" encoding="utf-8"?>
<!-- Generator: Adobe Illustrator 25.3.1, SVG Export Plug-In . SVG Version: 6.00 Build 0)  -->
<svg version="1.1" xmlns="http://www.w3.org/2000/svg" xmlns:xlink="http://www.w3.org/1999/xlink" x="0px" y="0px"
	 viewBox="0 0 605.1 986" enable-background="new 0 0 739.1 986" xml:space="preserve">
<g id="MASKB">
<g id="BODY">
	<path fill="#FFFFFF" stroke="#897F76" stroke-width="0.5" d="M653,592.2c-0.2-15.6-3-49.4-5.2-60c-2.2-10.6-8.9-41.3-11.6-57.3
		c-2.7-16.1-6.4-48.2-6.9-49.7c-0.5-1.5-6.4-24-8.6-28.9c-2.2-4.9-12.6-36.8-13.1-38.3c-0.5-1.5-5.7-18.5-5.9-20.8
		c-0.2-2.2-6.7-20.8-7.4-23.7c-0.7-3-1.5-18.3-2-21c-0.5-2.7-2.7-20-3.5-24.2c-0.7-4.2-3.2-14.1-4-15.6c-0.7-1.5-1.5-6.7-1.5-8.2
		c0-1.5,0.5-3.5,0.2-4.7c-0.2-1.2-1.2-3.5-1.2-4.9c0-1.5,1.5-6.4,1-8.9c-0.5-2.5-2.5-4.9-2.5-9.6c0-4.7,1-8.5,1-8.5
		s-41.5-23.4-242.7-24.9c-201.1-1.4-185.4,25.8-185.4,25.8l0,0.1c-0.4,0.9-0.8,2.2-0.7,2.6c0.1,0.7,0.2,6.1-0.1,8.2
		c-0.4,2.2-0.9,5.5-1.4,6.8c-0.5,1.3-0.2,8.9-0.2,10.4c0,1.5,0.2,6,0.3,6.5c0.1,0.5,0.4,5.3-0.4,7.4c-0.8,2.1-1,2.6-1,2.6l-4.4,16.9
		c0,0-2,2.8-2.4,6.8c-0.4,4-0.4,6.9-0.4,6.9s-1.2,3.1-1.2,5.3c0,2.2,0.1,4.7,0.1,4.7s-0.4,5.3-1.2,9.6c-0.8,4.3-1.3,7.9-1.3,7.9
		s-2,7.1-2.2,8.5c-0.1,1.5-0.7,9.1-0.9,11.2c-0.3,2.1-2.6,14.3-4,20c-1.4,5.7-13,43.8-16.9,57.2c-4,13.3-11.4,35.1-11.9,38.5
		c-0.5,3.5-7.7,45.5-8.4,51.4c-0.7,5.9-9.1,61.5-9.9,67c-0.7,5.4-1,32.4-0.2,51.1c0.7,18.8,2.2,46,3.7,54.6
		c1.5,8.6,4.9,34.3,5.4,37.1c0.5,2.7,2.5,15.1,2.5,17c0,2,0.7,9.1,0.7,10.1c0,1-0.5,4.4-0.5,4.4s-1.2,2.7-0.5,4
		c0.7,1.2,2.5,2.2,2.5,3.2c0,1-0.7,3-0.7,3s0,3.2,0,4.2c0,1,0.7,14.6,1.7,16.1c1,1.5,1.7,3.5,4.9,4.2c3.2,0.7,16.8,3,27.4,3.7
		c10.6,0.7,52.1,5.7,88.9,1.5c36.8-4.2,65-12.8,65-12.8s1.7-0.2,3.3-0.3c-0.2-3.9-0.3-8.1-0.3-8.7c0-1.1,3-5.9,3.7-7.4
		c0.7-1.5,0-3.7-1.1-5.2c-1.1-1.5-0.4-3.7,1.1-5.6c1.5-1.9,1.1-5.2,1.1-5.2l-1.5-2.6c0,0,4.8-16.3,5.2-21.5
		c0.4-5.2,8.5-40.4,13.7-61.1c5.2-20.8,8.9-58.2,30.8-79.7c13.9-13.6,47.1-17.4,62.6-12.6c15.6,4.8,17.8,25.6,21.5,40.4
		c3.7,14.8,19.6,94.5,21.1,101.9c1.2,5.9,5.2,43.2,6.8,58.1c1.9,0,3.9-0.1,3.9-0.1s21.7,7.2,44,10.4c22.2,3.2,67.5,5.9,93.1,3
		c25.7-3,35.3-5.4,37.6-6.2c2.2-0.7,3.7-2,4.4-3.7c0.7-1.7,0.7-5.2,0.7-5.2s3.7-22.7,4-25.2c0.2-2.5,2.7-22.2,2.7-23
		c0-0.7,1-8.2,1.2-9.9c0.2-1.7,3.7-32.4,3.7-34.8C649.6,659.9,653.3,607.8,653,592.2z"/>
</g>
</g>	
<g id="SHORT_LEG_STRIPE">
	<g>
		<path fill="#897F76" d="M518.2,646.5c50.2,3.9,106.2-4.6,132.4-9.4c-0.5,8.7-1,16.4-1.3,20.8c-26.7,4.8-81.7,13.1-131.1,9.2
			c-26.9-2.1-55.1-5.2-79.3-8.1c-1.4-6.9-2.9-14.1-4.3-21.1C459.7,640.9,489.7,644.2,518.2,646.5z"/>
		<path fill="#897F76" d="M172,659.1c-32.7-2.2-65.4-7-85.8-10.5c-0.4-6.6-0.8-13.9-1.2-20.8c20.3,3.4,53.6,8.4,86.9,10.7
			c32.2,2.1,96.4-1.9,142.2-5.4c-1.2,5.7-2.2,11-3.4,15.5c-0.4,1.7-0.9,3.6-1.4,5.5C264.1,657.5,203.1,661.1,172,659.1z"/>
	</g>
</g>
<g id="STITCHING">
	<g>
		
			<path opacity="0.5" fill="none" stroke="#897F76" stroke-width="1.201" stroke-miterlimit="10" stroke-dasharray="2.8938,1.4469" d="
			M152.1,273.5c0,0,13.3-9.4,24.7-14.2c11.5-4.8,56.6-18.7,86.9-22.2c30.3-3.5,96.6-2.3,144.3-0.5c47.7,1.8,112.9,7.1,119.6,7.6
			c6.6,0.5,18.6,1.3,20.9,1.8c2.3,0.5,19.9,4.5,24.7,8.3c4.8,3.8,6.4,5.6,7.4,7.1c1,1.5,2.5,2.3,2.5,2.3l7.1,10.7"/>
		
			<path opacity="0.5" fill="none" stroke="#897F76" stroke-width="1.201" stroke-miterlimit="10" stroke-dasharray="2.8938,1.4469" d="
			M150.6,255c0.3-1.1,1-4.7,2-6c1-1.3,14.5-9.1,39-16.9c24.5-7.8,70.9-18.7,101.5-20.4c30.6-1.8,92.5,3,137.4,2.5
			c44.9-0.5,109.6,8.6,127.7,12.6c18.1,4,26,15.6,26,15.6"/>
		
			<path opacity="0.5" fill="none" stroke="#897F76" stroke-width="1.201" stroke-miterlimit="10" stroke-dasharray="2.8938,1.4469" d="
			M155.2,227.3c0,0,4.2-5.1,45-17.2c40.8-12.1,82.7-14.4,165.3-10.8c82.6,3.5,130.8,4,164.7,9.8c33.9,5.8,38,8.6,41,9.8
			c3.1,1.3,8.2,3.5,9.4,4.8c1.3,1.3,3.5,4.7,3.5,4.7"/>
		
			<path opacity="0.5" fill="none" stroke="#897F76" stroke-width="1.1949" stroke-miterlimit="10" stroke-dasharray="2.8792,1.4396" d="
			M641.9,730.1c0,0-28.6,5.7-58.6,6.8c-30,1.1-41.6,4-81.7-2.7c-40.1-6.6-56-9.7-61.7-12.2c-5.7-2.5-11.8-4.6-14.6-6.5
			c-2.9-1.9-6.3-4.2-6.5-4.9c-0.2-0.8-2.1-4.7-2.1-4.7"/>
		
			<path opacity="0.5" fill="none" stroke="#897F76" stroke-width="1.1949" stroke-miterlimit="10" stroke-dasharray="2.8792,1.4396" d="
			M640.8,737.7c0,0-38,8.5-70.7,8.5c-32.7,0-64.8-2.3-96.7-8.9c-31.9-6.6-43.3-9.9-45.2-11c-1.9-1.1-4.6-2.3-4.6-2.3"/>
		
			<path opacity="0.5" fill="none" stroke="#897F76" stroke-width="1.1949" stroke-miterlimit="10" stroke-dasharray="2.8792,1.4396" d="
			M304.7,741c0,0-2.9,2.9-8.1,3.8c-2.9,0.5-4.9,0.3-4.9,0.3s-43,6.1-54.7,7.8c-11.7,1.7-37.4,6.7-74.6,3.6
			c-37.2-3.1-64.3-6.6-64.3-6.6"/>
		
			<path opacity="0.5" fill="none" stroke="#897F76" stroke-width="1.1949" stroke-miterlimit="10" stroke-dasharray="2.8792,1.4396" d="
			M307.5,730.9c0,0,1.4,5-24.8,8.6c-26.2,3.6-60.3,11.7-111.1,8.3c-50.8-3.3-73.4-6.2-74.8-8.1"/>
	</g>
	
		<path opacity="0.5" fill="none" stroke="#897F76" stroke-width="0.7966" stroke-miterlimit="10" stroke-dasharray="2.8792,1.4396" d="
		M153.2,215c0,0,0.5,4,1,6c0.5,2,1,4.5,1,6.3c0,1.8-0.3,4.3-0.8,5.8c-0.5,1.5-3.2,8.7-2.7,10.3c0.5,1.6,2.2,5.1,2.2,7.1
		c0,2-0.8,13.6-1.5,16.7c-0.8,3-4.3,16.4-5.8,18.9c-1.5,2.5-2.3,5.8-2.5,7.3c-0.3,1.5-2.5,7.6-2.5,7.6"/>
	
		<path opacity="0.5" fill="none" stroke="#897F76" stroke-width="0.7966" stroke-miterlimit="10" stroke-dasharray="2.8792,1.4396" d="
		M289.1,766.9c0,0,0-8.2,0-9.3c0-1.1,3-5.9,3.7-7.4c0.7-1.5,0-3.7-1.1-5.2c-1.1-1.5-0.4-3.7,1.1-5.6c1.5-1.9,1.1-5.2,1.1-5.2
		l-1.5-2.6c0,0,4.8-16.3,5.2-21.5c0.4-5.2,8.5-40.4,13.7-61.1c5.2-20.8,8.9-58.2,30.8-79.7c13.9-13.6,47.1-17.4,62.6-12.6
		c15.6,4.8,17.8,25.6,21.5,40.4c3.7,14.8,19.6,94.5,21.1,101.9c1.5,7.4,8.5,57.4,8.5,57.4"/>
</g>	

<g id="SHORT_LOWER_LEG">
	<g>
		<path stroke="#897F76" stroke-width="0.5" d="M649.3,657.9c-0.1,2.3-0.2,3.7-0.2,4.1c0,2.5-3.5,33.1-3.7,34.8
			c-0.2,1.7-1.2,9.1-1.2,9.9c0,0.7-2.5,20.5-2.7,23c-0.2,2.5-4,25.2-4,25.2s0,3.5-0.7,5.2c-0.7,1.7-2.2,3-4.4,3.7
			c-2.2,0.7-11.9,3.2-37.6,6.2c-25.7,3-70.9,0.2-93.1-3c-22.2-3.2-44-10.4-44-10.4s-0.7,0-1.7,0.1c-2.3-15.6-7.9-52.2-9-58
			c-0.6-3.2-4.1-20.3-8-39.7c24.3,2.9,52.4,6,79.3,8.1C567.6,670.9,622.6,662.7,649.3,657.9z"/>
		<path stroke="#897F76" stroke-width="0.5" d="M172,659.1c31.1,2.1,92.1-1.6,137.5-5c-5.1,20.9-12,50.9-12.4,55.7
			c-0.4,5.2-5.2,21.5-5.2,21.5l1.5,2.6c0,0,0.4,3.3-1.1,5.2c-1.5,1.9-2.2,4.1-1.1,5.6c1.1,1.5,1.9,3.7,1.1,5.2
			c-0.7,1.5-3.7,6.3-3.7,7.4c0,0.6-0.1,5-0.2,8.7c-1.4,0.2-2.8,0.3-2.8,0.3s-28.2,8.6-65,12.8c-36.8,4.2-78.3-0.7-88.9-1.5
			c-10.6-0.7-24.2-3-27.4-3.7c-3.2-0.7-4-2.7-4.9-4.2c-1-1.5-1.7-15.1-1.7-16.1c0-1,0-4.2,0-4.2s0.7-2,0.7-3c0-1-1.7-2-2.5-3.2
			c-0.7-1.2,0.5-4,0.5-4s0.5-3.5,0.5-4.4c0-1-0.7-8.2-0.7-10.1c0-2-2-14.3-2.5-17c-0.5-2.7-4-28.4-5.4-37.1c-0.7-4.1-1.4-12.4-2-22
			C106.6,652,139.3,656.9,172,659.1z"/>
	</g>
</g>	
	
	<g id="CUSTOM"></g>	
<g id="CROTCH">
	<path fill="#FFFFFF" stroke="#897F76" stroke-width="0.5" d="M426.2,597.2c-3.7-14.8-5.9-35.6-21.5-40.4
		c-15.6-4.8-48.8-1-62.6,12.6c-21.9,21.5-25.6,58.9-30.8,79.7c-5.2,20.8-13.3,56-13.7,61.1c-0.4,5.2-5.2,21.5-5.2,21.5l1.5,2.6
		c0,0,0.4,3.3-1.1,5.2c-1.5,1.9-2.2,4.1-1.1,5.6c1.1,1.5,1.9,3.7,1.1,5.2c-0.7,1.5-3.7,6.3-3.7,7.4c0,0.6,0.2,4.8,0.3,8.7
		c0.4,0,0.8-0.1,1.2-0.1c1.7-0.2,6.9-3.2,7.7-4.4c0.7-1.2,3-4.7,3-4.7l0.5-2.5v-2.7c0,0,2-8.9,2.2-9.6c0.2-0.7,1.2-3.2,1.5-4.4
		c0.2-1.2,0.2-3.7,0.2-3.7l1.5-2c0,0,0.7-3.7,0.7-4.9c0-1.2,0-3.5,0.2-4.7c0.2-1.2,6.2-13.3,8.6-19.3c2.5-5.9,16.3-43,19.3-51.6
		c3-8.6,11.6-38.8,12.8-43.7c1.2-4.9,7.4-28.4,7.7-31.9c0.2-3.5,3.5-14.6,3.5-14.6l14.6-4.4c0,0,15.8,74.6,23,96.9
		c7.2,22.2,19,50.7,19,50.7s-0.2,2.7,0.7,4.9c1,2.2,5.4,11.4,6.2,14.1c0.7,2.7,3.2,12.1,3.2,12.1s-1.2,6.7,2.2,10.1
		c3.5,3.5,7.4,5.7,11.4,6.7c4,1,8.2,2,8.2,2s1.7,2.5,3.7,2.7c0.6,0.1,1.3,0.1,2,0.1c-1.6-14.8-5.6-52.1-6.8-58.1
		C445.9,691.7,429.9,612,426.2,597.2z"/>
</g>	
<g id="SHADING">
	<g opacity="2.000000e-02">
		<path d="M153.8,208.8c-0.9,0-0.5,5.7-0.5,7.1c0,2.5-1.3,7.6-1.7,10.6c-0.3,3-0.2,9.9-0.2,9.9c0.1,2.5,0,8.9,0,8.9s0,3-0.2,5.5
			c-0.2,2.5-2.2,6.9-2.2,8.9c0,2-3.2,10.6-3.2,10.6l-2.4,6.8L143,284c0,0-1.2,5.3-1,9.9c0.1,4.7-0.9,12.2-1.9,15.2
			c-1,3-3.5,18.3-3.7,22.1c-0.3,3.9-8.6,39.6-10.1,44.1c-1.5,4.4-21.2,68.2-23.7,77.1c-2.5,8.9-8.4,50.4-8.4,55.3
			c0,4.9-6.4,41.5-8.4,53.9c-2,12.4-0.5,41-0.5,41s6.9-38.1,9.9-44.5c3-6.4,1.5-20.3,3.5-30.6c2-10.4,3-16.8,5.4-24.2
			c2.5-7.4,6.9-45.5,8.9-49.4c2-4,15.3-56.8,15.8-59.3c0.5-2.5,8.4-23.2,8.4-28.7c0-5.4,9.9-37.6,11.9-45c2-7.4,17-50,17-50l3.7-0.4
			v-9.9c0,0-4-4.9-3.7-7.4l0,0l0,0c0-0.3,0-0.5,0.1-0.7c0.4-3.6,1.7-14.6,1.7-14.6s3-2,3.5-3.5c0.5-1.5,2.9-9,2.9-9
			s-11.2-3.8-15.8-8.9C156.4,214.4,153.8,208.8,153.8,208.8C153.8,208.8,153.8,208.8,153.8,208.8"/>
		<path d="M590.7,768.7c-18.6,1-38.4,1.6-48.6,1.7c0.2,0.4,0.3,0.7,0.3,0.7l48.4-1L590.7,768.7 M552.1,462.1
			c-6.2,0-17.1,8-21.6,12.5c-5.9,5.9-48.4,35.6-63.3,50.4c-14.8,14.8-33.6,24.7-36.6,24.7c-3,0-20.8,9.9-20.8,9.9s1.7,1.2,3.9,3.9
			c0.2,0.2,0.4,0.5,0.6,0.7c2.4,3,5.3,7.6,7.3,14c2.1,6.5,4,14.2,5.8,22.2c8,30.5,15.9,73,20.5,104.7c4.2,28.7,7.1,52.3,7.1,52.3
			l0,0l0,0c0,0,66.1,13.1,83.9,13.1c0.9,0,1.8,0,2.9,0c-2.3-5.3-17-40.6-10.6-61.6c6.9-22.7,21.7-58.3,26.7-73.1
			c4.9-14.8,9.9-19.8,7.9-47.4c-2-27.7-7.9-24.7-6.9-59.3c1-34.6,0-56.3-3-64.2C555.5,462.9,554,462.1,552.1,462.1 M581.9,207.9
			c0,0-26.7,11.7-39.5,15.7c-12.8,4-31.5,8.9-31.5,8.9s2.8,28.7-11,35.6C486,275,486,275,486,275s0,6.9,11.9,16.8
			c11.9,9.9,26.7,17.8,32.6,20.8c5.9,3,12.8,10.9,12.8,17.8c0,6.9-14.8,22.7-5.9,38.5c8.9,15.8,27.7,9.9,38.5,24.7
			c10.9,14.8,10.9,98.8,20.8,140.3c9.9,41.5,7.9,92.9,7.9,105.7c0,12.8-5.9,33.6-7.9,54.4c-2,20.8-8.9,24.7-8.9,29.7
			c0,4.9,0,13.8,0,13.8l2.8,31.2c20.8-1.1,39.9-2.7,42.1-4.5c4.4-3.7,5.2-8.9,5.2-8.9l1.2-12.9c0,0,18.8-122.5,14.8-155.2
			c-4-32.6-18.8-118.6-20.8-131.4c-2-12.9-3.2-37.3-7.9-48.4c-4.7-11.1-28.7-81-30.6-89.9c-2-8.9-1-20.3-2.5-25
			c-1.5-4.7-2.5-27.4-4.4-32.4c-2-4.9-4.4-15.6-4.4-15.6L581.9,207.9"/>
		<path d="M387.8,553.9c-14.4,0-28.9,5.3-34.2,8.3c-8.9,4.9-25.7,12.3-36.6,54.8c0,0-12.3,40.3-14.1,53.9
			c-1.8,13.7-9.2,45.8-9.5,50.6c-0.3,4.8-3,10.7-3,18.8s-1.3,17.4-1.3,17.4l-3,9c0,0,0.7,0.1,1.6,0.1c1,0,2.1-0.1,2.8-0.6
			c1.3-0.9,5.2-2.1,6.1-3c0.9-0.9,4.5-6.1,4.5-6.1s0.7-3.7,0.5-5.2c-0.3-1.5,1.5-7.7,2.7-11.9c1.2-4.2,1.2-7.1,1.2-7.1
			s3.1-3.3,2.7-4.5c-0.4-1.2,0.3-7.4,0.9-8.9c0.6-1.5,15.8-32.4,28-71.4c9.5-30.4,19.1-71.7,19.6-74.1c0.6-2.4,3.2-12.5,3.2-12.5
			s11.1-4.5,14-4.5c0.2,0,0.4,0,0.5,0.1c1.6,0.9,12.9,63.8,17.9,80.3c5,16.5,16.4,52.7,19.4,56.9c3,4.2,4.8,11.9,4.8,11.9
			s1,1.4,2.1,4.7c1.1,3.3,4.7,12,5.6,15.5c0.9,3.6,2.3,6.9,2.3,9.3c0,2.3-0.2,4.1,0.3,6.2c0.6,2.1,1.9,3.9,1.9,3.9s6.4,5.1,11.4,6.7
			c5.2,1.6,14.9,5,14.9,5s-4.8-25.8-4.8-32.7c0-6.9-7.9-52.4-12.8-74.1c-2.2-9.7-5.7-30.8-10-50.1c-4.6-17.4-9.1-30.9-13.2-36.2
			c-0.2-0.2-0.4-0.5-0.6-0.7c-0.1-0.1-0.2-0.2-0.3-0.3C406.8,556.3,397.3,553.9,387.8,553.9"/>
		<path d="M427.6,600.4c4.4,19.3,7.8,40.4,10,50.1c4.9,21.7,12.8,67.2,12.8,74.1c0,6.9,4.8,32.7,4.8,32.7l0,0c0,0-2.9-23.5-7.1-52.3
			C443.5,673.5,435.6,630.9,427.6,600.4 M413.8,563.5c0.2,0.2,0.4,0.5,0.6,0.7C414.2,564,414,563.8,413.8,563.5"/>
		<path d="M168.4,251.2c-1.1,0-2,0.4-2.2,1.4c0,0.3-0.1,0.5-0.1,0.7c0,3.7,8.9,5.9,11.9,7.4c3,1.5,31.9,8.2,31.9,8.2
			s4.4,2.2,4.4,8.9c0,6.7-3.7,14.8-9.6,24.5c-5.9,9.6-19.3,3-27.4,30.4c-8.2,27.4-12.6,48.9-15.6,68.9c-3,20-17,63.7-24.5,82.3
			c-7.4,18.5-21.5,75.6-20,88.9c1.5,13.3,3.7,47.4,4.4,57.8c0.7,10.4,3.7,67.5,3.7,72.6c0,5.2,13.3,28.9,17,35.6
			c3.7,6.7,6.7,11.1,8.2,17.8c1.5,6.7,2.2,22.2,2.2,22.2s11.9,1.5,21.5,1.5c9.6,0,25.2-0.7,25.2-0.7s6.7-36.3,0.7-52.6
			c-5.9-16.3-3.7-65.2-12.6-79.3c-8.9-14.1-28.2-18.5-19.3-41.5c8.9-23,37.8-48.9,32.6-76.3c-5.2-27.4-11.9-51.1-8.9-52.6
			c3-1.5,39.3-14.8,43.7-18.5c4.4-3.7,56.3-9.6,40.8-49.7c-15.6-40-20.8-55.6-24.5-76.3c-3.7-20.8,12.6-63.7,12.6-63.7l5.9-0.7
			c0,0-51.1-4.4-61.5-5.9c-10.4-1.5-30.4-8.9-34.1-9.6C172.8,252.1,170.2,251.2,168.4,251.2"/>
		<path d="M166.1,252.6c0,0.2-0.1,0.4-0.1,0.7l0,0C166.1,253.1,166.1,252.8,166.1,252.6"/>
	</g>
</g>

</svg>
