<?xml version="1.0" encoding="utf-8"?>
<!-- Generator: Adobe Illustrator 25.3.1, SVG Export Plug-In . SVG Version: 6.00 Build 0)  -->
<svg version="1.1" xmlns="http://www.w3.org/2000/svg" xmlns:xlink="http://www.w3.org/1999/xlink" x="0px" y="0px"
	 viewBox="0 0 610.6 988.9" enable-background="new 0 0 740.6 988.9" xml:space="preserve">
<g id="MASKL">
  <g id="BODY">
	<path fill="#FFFFFF" stroke="#897F76" stroke-width="0.5" stroke-miterlimit="10" d="M632.5,429.7C614,359.5,570,285,565.4,267.4
		c-4.6-17.5-16.2-59.2-16.2-59.2s0.3-11.1-1.8-26c-1.2-8.7-8.8-27.9-8.8-27.9s-58-3.1-233.4,13.7c-170,16.3-188.9,35.9-188.9,35.9
		s-1.4,19.1,0.9,30.1c2.3,11,8.4,24.7,8.4,24.7s11.6,78.9,20.8,105.2c9.3,26.3,25.5,89.9,23.1,127.1c-2,32-32.9,149.3-46.1,204.2
		c42.1,6.9,185.8,29.4,271.2,30.2c100.9,0.9,120.6-0.9,120.6-0.9s1.8-11.6,6.3-17c3.5-4.3,38.1-11.3,52.2-14.1
		c-0.8-5.4-1.3-9.5-1.3-11.8c0-17.5,16.2-41.6,25.5-57S651.1,499.8,632.5,429.7z"/>
</g>

<g id="SHORT_LEG_STRIPE">
	<g>
		<path stroke="#897F76" stroke-width="0.5" stroke-miterlimit="10" d="M578.8,721.6c-18.5,3.6-63,12.6-66.5,16.8
			c-4.5,5.4-6.3,17-6.3,17s-19.6,1.8-120.6,0.9c-83.7-0.7-223.3-22.4-268.5-29.7c-5.2,32.9-5.2,69.2-5.2,69.2v46
			c0,0,13.9,17.5,139.6,30.4c25.7,2.6,52.8,1,81.9,3.4c121.1,10.3,160.4-3.2,160.4-3.2l2.3-30.7c0,0,30.1,2.2,53.2,0
			c23.1-2.2,53.2-8.8,53.2-8.8S587.6,766.9,578.8,721.6z"/>
	</g>
</g>	
<g id="STITCHING">
	<g>
		<g opacity="0.5">
			<g>
				<path opacity="0.5" fill="none" stroke="#7A726F" stroke-width="0.5324" d="M334,875.4c-1.8-14.8-2.5-33.1-3.4-49.4"/>
				<path opacity="0.5" fill="none" stroke="#7A726F" stroke-width="0.5324" d="M350,875.6c-1.6-18.4-2.4-33.5-3.2-50.5"/>
				<path opacity="0.5" fill="none" stroke="#7A726F" stroke-width="0.5324" d="M339.4,875.4c-1.7-16-2.5-33.2-3.3-49.8"/>
				<path opacity="0.5" fill="none" stroke="#7A726F" stroke-width="0.5324" d="M344.7,875.5c-1.6-17.2-2.5-33.3-3.2-50.1"/>
				<path opacity="0.5" fill="none" stroke="#7A726F" stroke-width="0.5324" d="M329.3,825.8c0.1,1.6,1.6,1.6,1.6,1.6l15.9-1
					c0,0,1-0.8,1.1,1.1c0.1,1.9-1,2.3-1,2.3l-16,1c0,0-1.2-0.1-1.1,1.7c0.1,1.7,1.5,1.8,1.5,1.8l15.8-1c0,0,1.2,0,1.2,1.7
					c0.1,1.7-1.3,1.9-1.3,1.9l-15.9,1.1c0,0-1,0.3-0.9,1.8c0.1,1.5,1.3,1.9,1.3,1.9l16.2-1.1c0,0,1-0.1,1.1,1.6
					c0.1,1.8-0.9,2.1-0.9,2.1l-16.3,1.2c0,0-1.3,0-1.2,1.9c0.1,1.9,1.6,1.8,1.6,1.8l15.9-1.2c0,0,1-0.1,1.1,1.6c0.1,1.7-1,2.3-1,2.3
					l-15.9,1.3c0,0-1.2,0.4-1.1,2.1c0.1,1.7,1.4,1.7,1.4,1.7l15.7-1.3c0,0,1.5-0.4,1.6,1.3c0.1,1.7-1.5,2.1-1.5,2.1l-15.5,1.4
					c0,0-1.2-0.4-1,1.6c0.1,2,1.4,2.1,1.4,2.1l15.3-1.5c0,0,1.7-0.2,1.9,1.6c0.1,1.8-1.6,2.1-1.6,2.1l-15.4,1.6c0,0-1.3-0.2-1.2,1.5
					c0.2,1.7,1.5,1.8,1.5,1.8l15.4-1.7c0,0,1.6-0.2,1.8,1.5c0.2,1.6-1.4,1.9-1.4,1.9l-15.6,1.9l-1.1,0.5"/>
				<path opacity="0.5" fill="none" stroke="#7A726F" stroke-width="0.5324" d="M351.1,875.1c-0.3-3.5-1.7-2-1.7-2.4l-15.9,2
					c0,0-1,0.9-1.2-1.1c-0.2-2,0.9-2.5,0.9-2.5l16-1.8c0,0,1.2,0,1-1.6c-0.1-1.6-1.5-1.8-1.5-1.8l-15.8,1.6c0,0-1.2,0-1.3-1.7
					c-0.1-1.7,1.2-2,1.2-2l15.9-1.5c0,0,1-0.3,0.9-1.8c-0.1-1.4-1.3-1.8-1.3-1.8l-16.2,1.4c0,0-1,0.1-1.2-1.6
					c-0.1-1.8,0.9-2.2,0.9-2.2l16.2-1.4c0,0,1.3,0,1.2-1.9c-0.1-1.9-1.6-1.8-1.6-1.8l-15.9,1.3c0,0-1,0.1-1.2-1.6
					c-0.1-1.7,1-2.3,1-2.3l15.9-1.2c0,0,1.2-0.3,1.2-2c-0.1-1.7-1.4-1.7-1.4-1.7l-15.7,1.1c0,0-1.5,0.4-1.6-1.3
					c-0.1-1.7,1.5-2.1,1.5-2.1l15.6-1.1c0,0,1.2,0.4,1.1-1.5c-0.1-1.9-1.4-2.1-1.4-2.1l-15.3,1c0,0-1.7,0.1-1.8-1.7
					c-0.1-1.8,1.6-2.1,1.6-2.1l15.4-1c0,0,1.3,0.2,1.3-1.5c-0.1-1.7-1.4-1.8-1.4-1.8l-15.5,1c0,0-1.6,0.1-1.7-1.6
					c-0.1-1.7,1.5-1.9,1.5-1.9l15.7-0.9l1.1-0.4"/>
				<line opacity="0.5" fill="none" stroke="#7A726F" stroke-width="0.5324" x1="332.4" y1="874.8" x2="349.9" y2="869.4"/>
				<line opacity="0.5" fill="none" stroke="#7A726F" stroke-width="0.5324" x1="332.1" y1="871.4" x2="349.6" y2="866.3"/>
				<line opacity="0.5" fill="none" stroke="#7A726F" stroke-width="0.5324" x1="331.7" y1="867.3" x2="349.3" y2="862.3"/>
				<line opacity="0.5" fill="none" stroke="#7A726F" stroke-width="0.5324" x1="331.4" y1="863.7" x2="349" y2="858.8"/>
				<line opacity="0.5" fill="none" stroke="#7A726F" stroke-width="0.5324" x1="331.2" y1="860.6" x2="348.8" y2="855.8"/>
				<line opacity="0.5" fill="none" stroke="#7A726F" stroke-width="0.5324" x1="331" y1="857.1" x2="348.6" y2="852.3"/>
				<line opacity="0.5" fill="none" stroke="#7A726F" stroke-width="0.5324" x1="330.7" y1="853.4" x2="348.4" y2="848.7"/>
				<line opacity="0.5" fill="none" stroke="#7A726F" stroke-width="0.5324" x1="330.5" y1="849.4" x2="348.1" y2="844.8"/>
				<line opacity="0.5" fill="none" stroke="#7A726F" stroke-width="0.5324" x1="330.3" y1="845.8" x2="347.9" y2="841.2"/>
				<line opacity="0.5" fill="none" stroke="#7A726F" stroke-width="0.5324" x1="330.1" y1="842.2" x2="347.7" y2="837.7"/>
				<line opacity="0.5" fill="none" stroke="#7A726F" stroke-width="0.5324" x1="329.9" y1="838.7" x2="347.6" y2="834.2"/>
				<line opacity="0.5" fill="none" stroke="#7A726F" stroke-width="0.5324" x1="329.7" y1="834.7" x2="347.4" y2="830.3"/>
				<line opacity="0.5" fill="none" stroke="#7A726F" stroke-width="0.5324" x1="329.5" y1="830.9" x2="347.2" y2="826.6"/>
			</g>
			<g>
				<line opacity="0.5" fill="none" stroke="#7A726F" stroke-width="0.5324" x1="330.7" y1="825.7" x2="329" y2="775.5"/>
				<line opacity="0.5" fill="none" stroke="#7A726F" stroke-width="0.5324" x1="346.8" y1="824.8" x2="345.1" y2="774.9"/>
				<line opacity="0.5" fill="none" stroke="#7A726F" stroke-width="0.5324" x1="336" y1="825.4" x2="334.4" y2="775.3"/>
				<line opacity="0.5" fill="none" stroke="#7A726F" stroke-width="0.5324" x1="341.4" y1="825.1" x2="339.8" y2="775.1"/>
				<path opacity="0.5" fill="none" stroke="#7A726F" stroke-width="0.5324" d="M327.6,775.3c0,1.6,1.5,1.6,1.5,1.6l15.9-0.6
					c0,0,1-0.8,1.1,1.2c0,1.9-1.1,2.3-1.1,2.3l-16,0.6c0,0-1.2-0.1-1.1,1.6c0,1.7,1.4,1.9,1.4,1.9l15.8-0.6c0,0,1.2,0.1,1.2,1.8
					c0,1.7-1.3,1.9-1.3,1.9l-15.9,0.7c0,0-1,0.3-1,1.7c0,1.4,1.2,1.9,1.2,1.9l16.3-0.7c0,0,1,0,1.1,1.6c0.1,1.8-1,2.1-1,2.1
					l-16.3,0.7c0,0-1.3-0.1-1.2,1.9c0.1,1.9,1.6,1.9,1.6,1.9l15.9-0.7c0,0,1,0,1.1,1.6c0,1.7-1.1,2.2-1.1,2.2l-15.9,0.8
					c0,0-1.3,0.3-1.2,2c0.1,1.7,1.3,1.8,1.3,1.8l15.7-0.8c0,0,1.5-0.3,1.5,1.4c0.1,1.7-1.5,2-1.5,2l-15.6,0.8c0,0-1.2-0.4-1.1,1.5
					c0.1,1.9,1.3,2.1,1.3,2.1l15.3-0.8c0,0,1.7-0.1,1.8,1.7c0.1,1.8-1.7,2.1-1.7,2.1l-15.4,0.8c0,0-1.3-0.2-1.3,1.5
					c0.1,1.7,1.4,1.9,1.4,1.9l15.5-0.9c0,0,1.6-0.1,1.7,1.6c0.1,1.7-1.5,1.9-1.5,1.9l-15.7,0.9l-1.2,0.4"/>
				<path opacity="0.5" fill="none" stroke="#7A726F" stroke-width="0.5324" d="M347.8,824.5c-0.1-1.6-1.6-1.6-1.6-1.6l-15.9,0.9
					c0,0-1,0.8-1.1-1.2c-0.1-1.9,1.1-2.4,1.1-2.4l16-0.9c0,0,1.2,0.1,1.1-1.6c-0.1-1.7-1.5-1.9-1.5-1.9l-15.8,0.9
					c0,0-1.2-0.1-1.2-1.8c-0.1-1.7,1.3-1.9,1.3-1.9l15.9-0.9c0,0,1-0.3,1-1.7c-0.1-1.4-1.2-1.9-1.2-1.9l-16.3,0.8c0,0-1,0.1-1.1-1.6
					c-0.1-1.8,1-2.1,1-2.1l16.3-0.8c0,0,1.3,0.1,1.2-1.9c-0.1-1.9-1.6-1.9-1.6-1.9l-15.9,0.8c0,0-1,0.1-1.1-1.7
					c-0.1-1.7,1.1-2.2,1.1-2.2l15.9-0.7c0,0,1.3-0.3,1.2-2c-0.1-1.7-1.3-1.8-1.3-1.8l-15.7,0.7c0,0-1.5,0.3-1.5-1.4
					c-0.1-1.7,1.6-2,1.6-2l15.6-0.7c0,0,1.2,0.4,1.1-1.5c0-1.9-1.3-2.1-1.3-2.1l-15.4,0.6c0,0-1.7,0.1-1.8-1.7
					c-0.1-1.8,1.7-2.1,1.7-2.1l15.4-0.6c0,0,1.3,0.3,1.3-1.4c0-1.7-1.3-1.9-1.3-1.9l-15.5,0.6c0,0-1.6,0.1-1.7-1.6
					c0-1.7,1.6-1.9,1.6-1.9l15.7-0.6l1.1-0.4"/>
				<line opacity="0.5" fill="none" stroke="#7A726F" stroke-width="0.5324" x1="329.2" y1="823.9" x2="346.9" y2="819.7"/>
				<line opacity="0.5" fill="none" stroke="#7A726F" stroke-width="0.5324" x1="329.1" y1="820.7" x2="346.8" y2="816.4"/>
				<line opacity="0.5" fill="none" stroke="#7A726F" stroke-width="0.5324" x1="328.9" y1="816.6" x2="346.6" y2="812.4"/>
				<line opacity="0.5" fill="none" stroke="#7A726F" stroke-width="0.5324" x1="328.8" y1="813.1" x2="346.5" y2="808.9"/>
				<line opacity="0.5" fill="none" stroke="#7A726F" stroke-width="0.5324" x1="328.6" y1="810" x2="346.4" y2="805.8"/>
				<line opacity="0.5" fill="none" stroke="#7A726F" stroke-width="0.5324" x1="328.5" y1="806.5" x2="346.3" y2="802.3"/>
				<line opacity="0.5" fill="none" stroke="#7A726F" stroke-width="0.5324" x1="328.4" y1="802.8" x2="346.2" y2="798.7"/>
				<line opacity="0.5" fill="none" stroke="#7A726F" stroke-width="0.5324" x1="328.3" y1="798.8" x2="346" y2="794.8"/>
				<line opacity="0.5" fill="none" stroke="#7A726F" stroke-width="0.5324" x1="328.2" y1="795.2" x2="345.9" y2="791.1"/>
				<line opacity="0.5" fill="none" stroke="#7A726F" stroke-width="0.5324" x1="328" y1="791.7" x2="345.8" y2="787.7"/>
				<line opacity="0.5" fill="none" stroke="#7A726F" stroke-width="0.5324" x1="327.9" y1="788.2" x2="345.7" y2="784.2"/>
				<line opacity="0.5" fill="none" stroke="#7A726F" stroke-width="0.5324" x1="327.8" y1="784.2" x2="345.6" y2="780.2"/>
				<line opacity="0.5" fill="none" stroke="#7A726F" stroke-width="0.5324" x1="327.7" y1="780.4" x2="345.5" y2="776.4"/>
			</g>
			<g>
				<line opacity="0.5" fill="none" stroke="#7A726F" stroke-width="0.5324" x1="329" y1="775.3" x2="328.2" y2="725.1"/>
				<line opacity="0.5" fill="none" stroke="#7A726F" stroke-width="0.5324" x1="345.1" y1="774.6" x2="344.3" y2="724.7"/>
				<line opacity="0.5" fill="none" stroke="#7A726F" stroke-width="0.5324" x1="334.4" y1="775" x2="333.6" y2="724.9"/>
				<line opacity="0.5" fill="none" stroke="#7A726F" stroke-width="0.5324" x1="339.8" y1="774.8" x2="338.9" y2="724.8"/>
				<path opacity="0.5" fill="none" stroke="#7A726F" stroke-width="0.5324" d="M326.8,724.8c0,1.6,1.5,1.7,1.5,1.7l15.9-0.4
					c0,0,1-0.7,1.1,1.2c0,1.9-1.1,2.3-1.1,2.3l-16,0.4c0,0-1.2-0.1-1.1,1.6c0,1.7,1.4,1.9,1.4,1.9l15.8-0.4c0,0,1.2,0.1,1.2,1.8
					c0,1.7-1.4,1.8-1.4,1.8l-15.9,0.4c0,0-1,0.3-1,1.7c0,1.5,1.2,1.9,1.2,1.9l16.3-0.4c0,0,1,0,1.1,1.7c0,1.8-1,2.1-1,2.1l-16.3,0.5
					c0,0-1.3-0.1-1.3,1.9c0,1.9,1.5,1.9,1.5,1.9l15.9-0.5c0,0,1,0,1.1,1.7c0,1.7-1.1,2.2-1.1,2.2l-15.9,0.5c0,0-1.3,0.3-1.2,2
					c0,1.7,1.3,1.8,1.3,1.8l15.7-0.5c0,0,1.5-0.3,1.5,1.4c0,1.7-1.6,2-1.6,2l-15.6,0.5c0,0-1.2-0.4-1.1,1.5c0,1.9,1.3,2.1,1.3,2.1
					l15.3-0.5c0,0,1.7-0.1,1.8,1.7c0,1.8-1.7,2.1-1.7,2.1l-15.4,0.5c0,0-1.3-0.3-1.3,1.4c0,1.7,1.3,1.9,1.3,1.9l15.5-0.6
					c0,0,1.6-0.1,1.7,1.6c0,1.7-1.6,1.9-1.6,1.9l-15.7,0.6l-1.2,0.4"/>
				<path opacity="0.5" fill="none" stroke="#7A726F" stroke-width="0.5324" d="M346.2,774.4c0-1.6-1.5-1.6-1.5-1.6l-15.9,0.6
					c0,0-1,0.8-1.1-1.2c0-1.9,1.1-2.3,1.1-2.3l16.1-0.6c0,0,1.2,0.1,1.1-1.6c0-1.7-1.4-1.9-1.4-1.9l-15.8,0.6c0,0-1.2-0.1-1.2-1.8
					c0-1.7,1.4-1.9,1.4-1.9l15.9-0.5c0,0,1-0.3,1-1.7c0-1.4-1.2-1.9-1.2-1.9l-16.3,0.5c0,0-1,0-1.1-1.7c0-1.8,1-2.1,1-2.1l16.3-0.5
					c0,0,1.3,0.1,1.2-1.9c0-1.9-1.5-1.9-1.5-1.9l-15.9,0.5c0,0-1,0-1.1-1.7c0-1.7,1.1-2.2,1.1-2.2l15.9-0.5c0,0,1.3-0.3,1.2-2
					c0-1.7-1.3-1.8-1.3-1.8l-15.7,0.4c0,0-1.5,0.3-1.5-1.4c0-1.7,1.6-2,1.6-2l15.6-0.4c0,0,1.2,0.4,1.1-1.5c0-1.9-1.3-2.1-1.3-2.1
					l-15.4,0.4c0,0-1.7,0-1.8-1.8c0-1.8,1.7-2,1.7-2l15.4-0.4c0,0,1.3,0.3,1.3-1.4c0-1.7-1.3-1.9-1.3-1.9l-15.5,0.4
					c0,0-1.6,0-1.6-1.7c0-1.7,1.6-1.9,1.6-1.9l15.7-0.4l1.2-0.4"/>
				<line opacity="0.5" fill="none" stroke="#7A726F" stroke-width="0.5324" x1="327.6" y1="773.4" x2="345.4" y2="769.5"/>
				<line opacity="0.5" fill="none" stroke="#7A726F" stroke-width="0.5324" x1="327.5" y1="770.2" x2="345.3" y2="766.3"/>
				<line opacity="0.5" fill="none" stroke="#7A726F" stroke-width="0.5324" x1="327.4" y1="766.1" x2="345.2" y2="762.2"/>
				<line opacity="0.5" fill="none" stroke="#7A726F" stroke-width="0.5324" x1="327.3" y1="762.6" x2="345.2" y2="758.7"/>
				<line opacity="0.5" fill="none" stroke="#7A726F" stroke-width="0.5324" x1="327.3" y1="759.5" x2="345.1" y2="755.6"/>
				<line opacity="0.5" fill="none" stroke="#7A726F" stroke-width="0.5324" x1="327.2" y1="756" x2="345" y2="752.2"/>
				<line opacity="0.5" fill="none" stroke="#7A726F" stroke-width="0.5324" x1="327.2" y1="752.3" x2="345" y2="748.5"/>
				<line opacity="0.5" fill="none" stroke="#7A726F" stroke-width="0.5324" x1="327.1" y1="748.3" x2="344.9" y2="744.6"/>
				<line opacity="0.5" fill="none" stroke="#7A726F" stroke-width="0.5324" x1="327" y1="744.7" x2="344.9" y2="740.9"/>
				<line opacity="0.5" fill="none" stroke="#7A726F" stroke-width="0.5324" x1="327" y1="741.2" x2="344.8" y2="737.4"/>
				<line opacity="0.5" fill="none" stroke="#7A726F" stroke-width="0.5324" x1="326.9" y1="737.7" x2="344.8" y2="733.9"/>
				<line opacity="0.5" fill="none" stroke="#7A726F" stroke-width="0.5324" x1="326.9" y1="733.7" x2="344.7" y2="730"/>
				<line opacity="0.5" fill="none" stroke="#7A726F" stroke-width="0.5324" x1="326.8" y1="729.9" x2="344.7" y2="726.2"/>
			</g>
			<g>
				<line opacity="0.5" fill="none" stroke="#7A726F" stroke-width="0.5324" x1="328.2" y1="724.8" x2="327.9" y2="674.6"/>
				<line opacity="0.5" fill="none" stroke="#7A726F" stroke-width="0.5324" x1="344.3" y1="724.4" x2="344" y2="674.4"/>
				<line opacity="0.5" fill="none" stroke="#7A726F" stroke-width="0.5324" x1="333.5" y1="724.7" x2="333.3" y2="674.6"/>
				<line opacity="0.5" fill="none" stroke="#7A726F" stroke-width="0.5324" x1="338.9" y1="724.5" x2="338.6" y2="674.5"/>
				<path opacity="0.5" fill="none" stroke="#7A726F" stroke-width="0.5324" d="M326.5,674.4c0,1.6,1.5,1.7,1.5,1.7l15.9-0.2
					c0,0,1-0.7,1,1.2c0,1.9-1.2,2.3-1.2,2.3l-16,0.2c0,0-1.2-0.1-1.2,1.6c0,1.7,1.4,1.9,1.4,1.9l15.8-0.2c0,0,1.2,0.1,1.2,1.8
					c0,1.7-1.4,1.8-1.4,1.8l-15.9,0.3c0,0-1,0.3-1,1.7c0,1.5,1.2,1.9,1.2,1.9l16.3-0.3c0,0,1,0,1,1.7c0,1.8-1,2.1-1,2.1l-16.3,0.3
					c0,0-1.3-0.1-1.3,1.8c0,1.9,1.5,1.9,1.5,1.9l15.9-0.3c0,0,1,0,1.1,1.7c0,1.7-1.1,2.2-1.1,2.2l-15.9,0.3c0,0-1.3,0.3-1.3,2
					c0,1.7,1.3,1.8,1.3,1.8l15.7-0.3c0,0,1.5-0.3,1.5,1.4c0,1.7-1.6,2-1.6,2l-15.6,0.3c0,0-1.2-0.5-1.2,1.5c0,1.9,1.3,2.2,1.3,2.2
					l15.4-0.3c0,0,1.7,0,1.7,1.8c0,1.8-1.7,2-1.7,2l-15.4,0.3c0,0-1.3-0.3-1.3,1.4c0,1.7,1.3,1.9,1.3,1.9l15.5-0.3
					c0,0,1.6,0,1.6,1.7c0,1.7-1.6,1.8-1.6,1.8l-15.7,0.4l-1.2,0.4"/>
				<path opacity="0.5" fill="none" stroke="#7A726F" stroke-width="0.5324" d="M345.4,724.2c0-1.6-1.5-1.6-1.5-1.6l-15.9,0.4
					c0,0-1,0.7-1-1.2c0-1.9,1.1-2.3,1.1-2.3l16.1-0.4c0,0,1.2,0.1,1.1-1.6c0-1.7-1.4-1.9-1.4-1.9l-15.8,0.3c0,0-1.2-0.1-1.2-1.8
					c0-1.7,1.4-1.8,1.4-1.8l15.9-0.3c0,0,1-0.3,1-1.7c0-1.4-1.2-1.9-1.2-1.9l-16.3,0.3c0,0-1,0-1.1-1.7c0-1.8,1-2.1,1-2.1l16.3-0.3
					c0,0,1.3,0.1,1.2-1.8c0-1.9-1.5-1.9-1.5-1.9l-15.9,0.3c0,0-1,0-1.1-1.7c0-1.7,1.1-2.2,1.1-2.2l15.9-0.3c0,0,1.3-0.3,1.3-1.9
					c0-1.7-1.3-1.8-1.3-1.8l-15.7,0.3c0,0-1.5,0.3-1.5-1.4c0-1.7,1.6-2,1.6-2l15.6-0.3c0,0,1.1,0.5,1.1-1.5c0-1.9-1.3-2.1-1.3-2.1
					l-15.4,0.3c0,0-1.7,0-1.7-1.8c0-1.8,1.7-2,1.7-2l15.4-0.2c0,0,1.3,0.3,1.3-1.4c0-1.7-1.3-1.9-1.3-1.9l-15.5,0.2
					c0,0-1.6,0-1.6-1.7c0-1.7,1.6-1.8,1.6-1.8l15.7-0.2l1.2-0.4"/>
				<line opacity="0.5" fill="none" stroke="#7A726F" stroke-width="0.5324" x1="326.7" y1="723" x2="344.6" y2="719.3"/>
				<line opacity="0.5" fill="none" stroke="#7A726F" stroke-width="0.5324" x1="326.7" y1="719.7" x2="344.6" y2="716"/>
				<line opacity="0.5" fill="none" stroke="#7A726F" stroke-width="0.5324" x1="326.7" y1="715.6" x2="344.5" y2="712"/>
				<line opacity="0.5" fill="none" stroke="#7A726F" stroke-width="0.5324" x1="326.7" y1="712.1" x2="344.5" y2="708.5"/>
				<line opacity="0.5" fill="none" stroke="#7A726F" stroke-width="0.5324" x1="326.6" y1="709" x2="344.5" y2="705.4"/>
				<line opacity="0.5" fill="none" stroke="#7A726F" stroke-width="0.5324" x1="326.6" y1="705.5" x2="344.5" y2="701.9"/>
				<line opacity="0.5" fill="none" stroke="#7A726F" stroke-width="0.5324" x1="326.6" y1="701.9" x2="344.4" y2="698.3"/>
				<line opacity="0.5" fill="none" stroke="#7A726F" stroke-width="0.5324" x1="326.6" y1="697.9" x2="344.4" y2="694.3"/>
				<line opacity="0.5" fill="none" stroke="#7A726F" stroke-width="0.5324" x1="326.5" y1="694.2" x2="344.4" y2="690.7"/>
				<line opacity="0.5" fill="none" stroke="#7A726F" stroke-width="0.5324" x1="326.5" y1="690.7" x2="344.4" y2="687.2"/>
				<line opacity="0.5" fill="none" stroke="#7A726F" stroke-width="0.5324" x1="326.5" y1="687.2" x2="344.4" y2="683.7"/>
				<line opacity="0.5" fill="none" stroke="#7A726F" stroke-width="0.5324" x1="326.5" y1="683.2" x2="344.4" y2="679.7"/>
				<line opacity="0.5" fill="none" stroke="#7A726F" stroke-width="0.5324" x1="326.5" y1="679.5" x2="344.4" y2="675.9"/>
			</g>
			<g>
				<line opacity="0.5" fill="none" stroke="#7A726F" stroke-width="0.5324" x1="327.9" y1="674.4" x2="328" y2="624.2"/>
				<line opacity="0.5" fill="none" stroke="#7A726F" stroke-width="0.5324" x1="344" y1="674.1" x2="344.1" y2="624.1"/>
				<line opacity="0.5" fill="none" stroke="#7A726F" stroke-width="0.5324" x1="333.3" y1="674.3" x2="333.4" y2="624.2"/>
				<line opacity="0.5" fill="none" stroke="#7A726F" stroke-width="0.5324" x1="338.6" y1="674.2" x2="338.7" y2="624.1"/>
				<path opacity="0.5" fill="none" stroke="#7A726F" stroke-width="0.5324" d="M326.6,623.9c0,1.6,1.5,1.7,1.5,1.7l15.9-0.1
					c0,0,1-0.7,1,1.2c0,1.9-1.2,2.3-1.2,2.3l-16,0.1c0,0-1.2-0.1-1.2,1.6c0,1.7,1.4,1.9,1.4,1.9l15.8-0.1c0,0,1.2,0.1,1.2,1.8
					c0,1.7-1.4,1.8-1.4,1.8l-15.9,0.1c0,0-1,0.2-1,1.7c0,1.5,1.2,1.9,1.2,1.9l16.3-0.1c0,0,1,0,1,1.7c0,1.8-1.1,2.1-1.1,2.1
					l-16.3,0.1c0,0-1.3-0.1-1.3,1.8c0,1.9,1.5,1.9,1.5,1.9l15.9-0.1c0,0,1,0,1,1.7c0,1.7-1.2,2.2-1.2,2.2l-15.9,0.2
					c0,0-1.3,0.3-1.3,2c0,1.7,1.3,1.8,1.3,1.8l15.7-0.2c0,0,1.5-0.3,1.5,1.4c0,1.7-1.6,1.9-1.6,1.9l-15.6,0.2c0,0-1.2-0.5-1.2,1.5
					c0,1.9,1.3,2.2,1.3,2.2l15.4-0.2c0,0,1.7,0,1.7,1.8c0,1.8-1.7,2-1.7,2l-15.4,0.2c0,0-1.3-0.3-1.3,1.4c0,1.7,1.3,1.9,1.3,1.9
					l15.5-0.2c0,0,1.6,0,1.6,1.7c0,1.7-1.6,1.8-1.6,1.8l-15.7,0.2l-1.2,0.4"/>
				<path opacity="0.5" fill="none" stroke="#7A726F" stroke-width="0.5324" d="M345.1,674c0-1.6-1.5-1.7-1.5-1.7l-15.9,0.2
					c0,0-1,0.7-1-1.2c0-1.9,1.2-2.3,1.2-2.3l16.1-0.2c0,0,1.2,0.1,1.2-1.6c0-1.7-1.4-1.9-1.4-1.9l-15.8,0.2c0,0-1.2-0.1-1.2-1.8
					c0-1.7,1.4-1.8,1.4-1.8l15.9-0.2c0,0,1-0.3,1-1.7c0-1.5-1.2-1.9-1.2-1.9l-16.3,0.2c0,0-1,0-1-1.7c0-1.8,1-2.1,1-2.1l16.3-0.2
					c0,0,1.3,0.1,1.3-1.8c0-1.9-1.5-1.9-1.5-1.9l-15.9,0.2c0,0-1,0-1-1.7c0-1.7,1.2-2.2,1.2-2.2l15.9-0.2c0,0,1.3-0.2,1.3-1.9
					c0-1.7-1.3-1.8-1.3-1.8l-15.7,0.1c0,0-1.5,0.3-1.5-1.4c0-1.7,1.6-2,1.6-2l15.6-0.1c0,0,1.1,0.5,1.1-1.5c0-1.9-1.3-2.2-1.3-2.2
					l-15.4,0.1c0,0-1.7,0-1.7-1.8c0-1.8,1.7-2,1.7-2l15.4-0.1c0,0,1.3,0.3,1.3-1.4c0-1.7-1.3-1.9-1.3-1.9l-15.5,0.1
					c0,0-1.6,0-1.6-1.7c0-1.7,1.6-1.8,1.6-1.8l15.7-0.1l1.2-0.4"/>
				<line opacity="0.5" fill="none" stroke="#7A726F" stroke-width="0.5324" x1="326.5" y1="672.5" x2="344.3" y2="669"/>
				<line opacity="0.5" fill="none" stroke="#7A726F" stroke-width="0.5324" x1="326.5" y1="669.2" x2="344.3" y2="665.8"/>
				<line opacity="0.5" fill="none" stroke="#7A726F" stroke-width="0.5324" x1="326.5" y1="665.2" x2="344.3" y2="661.7"/>
				<line opacity="0.5" fill="none" stroke="#7A726F" stroke-width="0.5324" x1="326.5" y1="661.6" x2="344.3" y2="658.2"/>
				<line opacity="0.5" fill="none" stroke="#7A726F" stroke-width="0.5324" x1="326.5" y1="658.6" x2="344.3" y2="655.1"/>
				<line opacity="0.5" fill="none" stroke="#7A726F" stroke-width="0.5324" x1="326.5" y1="655.1" x2="344.4" y2="651.6"/>
				<line opacity="0.5" fill="none" stroke="#7A726F" stroke-width="0.5324" x1="326.5" y1="651.4" x2="344.4" y2="648"/>
				<line opacity="0.5" fill="none" stroke="#7A726F" stroke-width="0.5324" x1="326.5" y1="647.4" x2="344.4" y2="644"/>
				<line opacity="0.5" fill="none" stroke="#7A726F" stroke-width="0.5324" x1="326.5" y1="643.8" x2="344.4" y2="640.4"/>
				<line opacity="0.5" fill="none" stroke="#7A726F" stroke-width="0.5324" x1="326.5" y1="640.3" x2="344.4" y2="636.9"/>
				<line opacity="0.5" fill="none" stroke="#7A726F" stroke-width="0.5324" x1="326.5" y1="636.8" x2="344.4" y2="633.4"/>
				<line opacity="0.5" fill="none" stroke="#7A726F" stroke-width="0.5324" x1="326.5" y1="632.8" x2="344.4" y2="629.4"/>
				<line opacity="0.5" fill="none" stroke="#7A726F" stroke-width="0.5324" x1="326.6" y1="629" x2="344.4" y2="625.7"/>
			</g>
			<g>
				<line opacity="0.5" fill="none" stroke="#7A726F" stroke-width="0.5324" x1="328" y1="623.9" x2="328.2" y2="573.8"/>
				<line opacity="0.5" fill="none" stroke="#7A726F" stroke-width="0.5324" x1="344.1" y1="623.8" x2="344.3" y2="573.7"/>
				<line opacity="0.5" fill="none" stroke="#7A726F" stroke-width="0.5324" x1="333.4" y1="623.9" x2="333.6" y2="573.8"/>
				<line opacity="0.5" fill="none" stroke="#7A726F" stroke-width="0.5324" x1="338.7" y1="623.9" x2="339" y2="573.8"/>
				<path opacity="0.5" fill="none" stroke="#7A726F" stroke-width="0.5324" d="M326.8,573.6c0,1.6,1.5,1.7,1.5,1.7l15.9-0.1
					c0,0,1-0.7,1,1.2c0,1.9-1.2,2.3-1.2,2.3l-16.1,0.1c0,0-1.2-0.1-1.2,1.6c0,1.7,1.4,1.9,1.4,1.9l15.8-0.1c0,0,1.2,0.1,1.1,1.8
					c0,1.7-1.4,1.8-1.4,1.8l-15.9,0.1c0,0-1,0.2-1,1.7c0,1.5,1.2,1.9,1.2,1.9l16.3-0.1c0,0,1,0,1,1.7c0,1.8-1,2.1-1,2.1l-16.3,0.1
					c0,0-1.3-0.1-1.3,1.8c0,1.9,1.5,1.9,1.5,1.9l15.9-0.1c0,0,1,0,1,1.7c0,1.7-1.2,2.2-1.2,2.2l-15.9,0.1c0,0-1.3,0.2-1.3,1.9
					c0,1.7,1.3,1.8,1.3,1.8l15.7-0.1c0,0,1.5-0.3,1.5,1.4c0,1.7-1.6,2-1.6,2L328,608c0,0-1.1-0.5-1.2,1.5c0,1.9,1.2,2.2,1.2,2.2
					l15.4-0.1c0,0,1.7,0,1.7,1.8c0,1.8-1.7,2-1.7,2l-15.4,0.1c0,0-1.3-0.3-1.3,1.4c0,1.7,1.3,1.9,1.3,1.9l15.5-0.1
					c0,0,1.6,0,1.6,1.7c0,1.7-1.6,1.8-1.6,1.8l-15.7,0.1l-1.2,0.4"/>
				<path opacity="0.5" fill="none" stroke="#7A726F" stroke-width="0.5324" d="M345.2,623.7c0-1.6-1.5-1.7-1.5-1.7l-15.9,0.1
					c0,0-1,0.7-1-1.2c0-1.9,1.2-2.3,1.2-2.3l16-0.1c0,0,1.2,0.1,1.2-1.6c0-1.7-1.4-1.9-1.4-1.9l-15.8,0.1c0,0-1.2-0.1-1.2-1.8
					c0-1.7,1.4-1.8,1.4-1.8l15.9-0.1c0,0,1-0.2,1-1.7c0-1.4-1.1-1.9-1.1-1.9l-16.3,0.1c0,0-1,0-1-1.7c0-1.8,1.1-2.1,1.1-2.1
					l16.3-0.1c0,0,1.3,0.1,1.3-1.8c0-1.9-1.5-1.9-1.5-1.9l-15.9,0.1c0,0-1,0-1-1.7c0-1.7,1.2-2.2,1.2-2.2l15.9-0.1
					c0,0,1.3-0.2,1.3-1.9c0-1.7-1.3-1.8-1.3-1.8l-15.7,0.1c0,0-1.5,0.3-1.5-1.4c0-1.7,1.6-1.9,1.6-1.9l15.6-0.1c0,0,1.1,0.5,1.2-1.5
					c0-1.9-1.3-2.2-1.3-2.2l-15.4,0.1c0,0-1.7,0-1.7-1.8c0-1.8,1.7-2,1.7-2l15.4-0.1c0,0,1.3,0.3,1.3-1.4c0-1.7-1.3-1.9-1.3-1.9
					l-15.5,0.1c0,0-1.6,0-1.6-1.7c0-1.7,1.6-1.8,1.6-1.8l15.7-0.1l1.2-0.4"/>
				<line opacity="0.5" fill="none" stroke="#7A726F" stroke-width="0.5324" x1="326.6" y1="622.1" x2="344.5" y2="618.7"/>
				<line opacity="0.5" fill="none" stroke="#7A726F" stroke-width="0.5324" x1="326.6" y1="618.8" x2="344.5" y2="615.5"/>
				<line opacity="0.5" fill="none" stroke="#7A726F" stroke-width="0.5324" x1="326.6" y1="614.7" x2="344.5" y2="611.4"/>
				<line opacity="0.5" fill="none" stroke="#7A726F" stroke-width="0.5324" x1="326.6" y1="611.2" x2="344.5" y2="607.8"/>
				<line opacity="0.5" fill="none" stroke="#7A726F" stroke-width="0.5324" x1="326.7" y1="608.2" x2="344.5" y2="604.8"/>
				<line opacity="0.5" fill="none" stroke="#7A726F" stroke-width="0.5324" x1="326.7" y1="604.7" x2="344.6" y2="601.3"/>
				<line opacity="0.5" fill="none" stroke="#7A726F" stroke-width="0.5324" x1="326.7" y1="601" x2="344.6" y2="597.6"/>
				<line opacity="0.5" fill="none" stroke="#7A726F" stroke-width="0.5324" x1="326.7" y1="597" x2="344.6" y2="593.7"/>
				<line opacity="0.5" fill="none" stroke="#7A726F" stroke-width="0.5324" x1="326.7" y1="593.4" x2="344.6" y2="590"/>
				<line opacity="0.5" fill="none" stroke="#7A726F" stroke-width="0.5324" x1="326.7" y1="589.9" x2="344.6" y2="586.5"/>
				<line opacity="0.5" fill="none" stroke="#7A726F" stroke-width="0.5324" x1="326.8" y1="586.4" x2="344.7" y2="583"/>
				<line opacity="0.5" fill="none" stroke="#7A726F" stroke-width="0.5324" x1="326.8" y1="582.4" x2="344.7" y2="579"/>
				<line opacity="0.5" fill="none" stroke="#7A726F" stroke-width="0.5324" x1="326.8" y1="578.7" x2="344.7" y2="575.3"/>
			</g>
			<g>
				<line opacity="0.5" fill="none" stroke="#7A726F" stroke-width="0.5324" x1="328.2" y1="573.6" x2="328.4" y2="523.5"/>
				<line opacity="0.5" fill="none" stroke="#7A726F" stroke-width="0.5324" x1="344.3" y1="573.4" x2="344.5" y2="523.3"/>
				<line opacity="0.5" fill="none" stroke="#7A726F" stroke-width="0.5324" x1="333.6" y1="573.5" x2="333.7" y2="523.4"/>
				<line opacity="0.5" fill="none" stroke="#7A726F" stroke-width="0.5324" x1="339" y1="573.5" x2="339.1" y2="523.4"/>
				<path opacity="0.5" fill="none" stroke="#7A726F" stroke-width="0.5324" d="M327,523.2c0,1.6,1.5,1.7,1.5,1.7l15.9-0.2
					c0,0,1-0.7,1,1.2c0,1.9-1.2,2.3-1.2,2.3l-16,0.2c0,0-1.2-0.1-1.2,1.6c0,1.7,1.4,1.9,1.4,1.9l15.8-0.2c0,0,1.2,0.1,1.1,1.8
					c0,1.7-1.4,1.8-1.4,1.8l-15.9,0.1c0,0-1,0.3-1.1,1.7c0,1.5,1.2,1.9,1.2,1.9l16.3-0.1c0,0,1,0,1,1.7c0,1.8-1,2.1-1,2.1l-16.3,0.1
					c0,0-1.3-0.1-1.3,1.8c0,1.9,1.5,1.9,1.5,1.9l15.9-0.1c0,0,1,0,1,1.7c0,1.7-1.2,2.2-1.2,2.2l-15.9,0.1c0,0-1.3,0.3-1.3,2
					c0,1.7,1.3,1.8,1.3,1.8l15.7-0.1c0,0,1.5-0.3,1.5,1.4c0,1.7-1.6,2-1.6,2l-15.6,0.1c0,0-1.2-0.5-1.2,1.5c0,1.9,1.3,2.2,1.3,2.2
					l15.4-0.1c0,0,1.7,0,1.7,1.8c0,1.8-1.7,2-1.7,2l-15.4,0.1c0,0-1.3-0.3-1.3,1.4c0,1.7,1.3,1.9,1.3,1.9l15.5-0.1
					c0,0,1.6,0,1.6,1.7c0,1.7-1.6,1.8-1.6,1.8L328,572l-1.2,0.4"/>
				<path opacity="0.5" fill="none" stroke="#7A726F" stroke-width="0.5324" d="M345.4,573.3c0-1.6-1.5-1.7-1.5-1.7l-15.9,0.1
					c0,0-1.1,0.7-1-1.2c0-1.9,1.2-2.3,1.2-2.3l16.1-0.1c0,0,1.2,0.1,1.2-1.6c0-1.7-1.4-1.9-1.4-1.9l-15.8,0.1c0,0-1.2-0.1-1.2-1.8
					c0-1.7,1.4-1.8,1.4-1.8l15.9-0.1c0,0,1-0.3,1-1.7c0-1.5-1.1-1.9-1.1-1.9l-16.3,0.1c0,0-1,0-1-1.7c0-1.8,1.1-2.1,1.1-2.1
					l16.3-0.1c0,0,1.3,0.1,1.3-1.8c0-1.9-1.5-1.9-1.5-1.9l-15.9,0.1c0,0-1,0-1-1.7c0-1.7,1.2-2.2,1.2-2.2l15.9-0.1
					c0,0,1.3-0.2,1.3-1.9c0-1.7-1.3-1.8-1.3-1.8l-15.7,0.1c0,0-1.5,0.3-1.5-1.4c0-1.7,1.6-2,1.6-2l15.6-0.1c0,0,1.1,0.5,1.2-1.5
					c0-1.9-1.3-2.2-1.3-2.2l-15.4,0.1c0,0-1.7,0-1.7-1.8c0-1.8,1.7-2,1.7-2l15.4-0.1c0,0,1.3,0.3,1.3-1.4c0-1.7-1.3-1.9-1.3-1.9
					l-15.5,0.1c0,0-1.6,0-1.6-1.7c0-1.7,1.6-1.8,1.6-1.8l15.7-0.2l1.2-0.4"/>
				<line opacity="0.5" fill="none" stroke="#7A726F" stroke-width="0.5324" x1="326.8" y1="571.7" x2="344.7" y2="568.3"/>
				<line opacity="0.5" fill="none" stroke="#7A726F" stroke-width="0.5324" x1="326.8" y1="568.5" x2="344.7" y2="565.1"/>
				<line opacity="0.5" fill="none" stroke="#7A726F" stroke-width="0.5324" x1="326.8" y1="564.4" x2="344.7" y2="561"/>
				<line opacity="0.5" fill="none" stroke="#7A726F" stroke-width="0.5324" x1="326.9" y1="560.9" x2="344.7" y2="557.5"/>
				<line opacity="0.5" fill="none" stroke="#7A726F" stroke-width="0.5324" x1="326.9" y1="557.8" x2="344.7" y2="554.4"/>
				<line opacity="0.5" fill="none" stroke="#7A726F" stroke-width="0.5324" x1="326.9" y1="554.3" x2="344.8" y2="550.9"/>
				<line opacity="0.5" fill="none" stroke="#7A726F" stroke-width="0.5324" x1="326.9" y1="550.7" x2="344.8" y2="547.3"/>
				<line opacity="0.5" fill="none" stroke="#7A726F" stroke-width="0.5324" x1="326.9" y1="546.7" x2="344.8" y2="543.3"/>
				<line opacity="0.5" fill="none" stroke="#7A726F" stroke-width="0.5324" x1="326.9" y1="543.1" x2="344.8" y2="539.6"/>
				<line opacity="0.5" fill="none" stroke="#7A726F" stroke-width="0.5324" x1="326.9" y1="539.6" x2="344.8" y2="536.1"/>
				<line opacity="0.5" fill="none" stroke="#7A726F" stroke-width="0.5324" x1="326.9" y1="536.1" x2="344.8" y2="532.6"/>
				<line opacity="0.5" fill="none" stroke="#7A726F" stroke-width="0.5324" x1="327" y1="532.1" x2="344.8" y2="528.6"/>
				<line opacity="0.5" fill="none" stroke="#7A726F" stroke-width="0.5324" x1="327" y1="528.3" x2="344.8" y2="524.9"/>
			</g>
			<g>
				<line opacity="0.5" fill="none" stroke="#7A726F" stroke-width="0.5324" x1="328.4" y1="523.2" x2="328.4" y2="473.1"/>
				<line opacity="0.5" fill="none" stroke="#7A726F" stroke-width="0.5324" x1="344.5" y1="523.1" x2="344.6" y2="472.9"/>
				<line opacity="0.5" fill="none" stroke="#7A726F" stroke-width="0.5324" x1="333.7" y1="523.2" x2="333.8" y2="473.1"/>
				<line opacity="0.5" fill="none" stroke="#7A726F" stroke-width="0.5324" x1="339.1" y1="523.1" x2="339.2" y2="473"/>
				<path opacity="0.5" fill="none" stroke="#7A726F" stroke-width="0.5324" d="M327,472.9c0,1.6,1.5,1.7,1.5,1.7l15.9-0.2
					c0,0,1-0.7,1,1.2c0,1.9-1.2,2.3-1.2,2.3l-16.1,0.2c0,0-1.2-0.1-1.2,1.6c0,1.7,1.4,1.9,1.4,1.9l15.8-0.2c0,0,1.2,0.1,1.2,1.8
					c0,1.7-1.4,1.8-1.4,1.8l-15.9,0.2c0,0-1,0.2-1,1.7c0,1.5,1.2,1.9,1.2,1.9l16.3-0.2c0,0,1,0,1,1.7c0,1.8-1,2.1-1,2.1l-16.3,0.2
					c0,0-1.3-0.1-1.3,1.8c0,1.9,1.5,1.9,1.5,1.9l15.9-0.2c0,0,1,0,1,1.7c0,1.7-1.2,2.2-1.2,2.2l-15.9,0.2c0,0-1.3,0.3-1.3,1.9
					c0,1.7,1.3,1.8,1.3,1.8l15.7-0.2c0,0,1.5-0.3,1.5,1.4c0,1.7-1.6,2-1.6,2l-15.6,0.2c0,0-1.2-0.5-1.2,1.5c0,1.9,1.3,2.2,1.3,2.2
					l15.4-0.2c0,0,1.7,0,1.7,1.8c0,1.8-1.7,2-1.7,2l-15.4,0.1c0,0-1.3-0.3-1.3,1.4c0,1.7,1.3,1.9,1.3,1.9l15.5-0.1
					c0,0,1.6,0,1.6,1.7c0,1.7-1.6,1.8-1.6,1.8l-15.7,0.1L327,522"/>
				<path opacity="0.5" fill="none" stroke="#7A726F" stroke-width="0.5324" d="M345.5,522.9c0-1.6-1.5-1.7-1.5-1.7l-15.9,0.2
					c0,0-1.1,0.7-1-1.2c0-1.9,1.2-2.3,1.2-2.3l16.1-0.2c0,0,1.2,0.1,1.2-1.6c0-1.7-1.4-1.9-1.4-1.9l-15.8,0.2c0,0-1.2-0.1-1.2-1.8
					c0-1.7,1.4-1.8,1.4-1.8l15.9-0.2c0,0,1-0.3,1-1.7c0-1.4-1.1-1.9-1.1-1.9l-16.3,0.2c0,0-1,0-1-1.7c0-1.8,1.1-2.1,1.1-2.1
					l16.3-0.2c0,0,1.3,0.1,1.3-1.8c0-1.9-1.5-1.9-1.5-1.9l-15.9,0.2c0,0-1,0-1-1.7c0-1.7,1.2-2.2,1.2-2.2l15.9-0.2
					c0,0,1.3-0.3,1.3-2c0-1.7-1.3-1.8-1.3-1.8l-15.7,0.2c0,0-1.5,0.3-1.5-1.4c0-1.7,1.6-1.9,1.6-1.9l15.6-0.2c0,0,1.1,0.5,1.2-1.5
					c0-1.9-1.3-2.2-1.3-2.2l-15.4,0.2c0,0-1.7,0-1.7-1.8c0-1.8,1.7-2,1.7-2l15.4-0.2c0,0,1.3,0.3,1.3-1.4c0-1.7-1.3-1.9-1.3-1.9
					l-15.5,0.2c0,0-1.6,0-1.6-1.7c0-1.7,1.6-1.8,1.6-1.8l15.7-0.2l1.2-0.4"/>
				<line opacity="0.5" fill="none" stroke="#7A726F" stroke-width="0.5324" x1="327" y1="521.4" x2="344.8" y2="517.9"/>
				<line opacity="0.5" fill="none" stroke="#7A726F" stroke-width="0.5324" x1="327" y1="518.1" x2="344.8" y2="514.7"/>
				<line opacity="0.5" fill="none" stroke="#7A726F" stroke-width="0.5324" x1="327" y1="514" x2="344.9" y2="510.6"/>
				<line opacity="0.5" fill="none" stroke="#7A726F" stroke-width="0.5324" x1="327" y1="510.5" x2="344.9" y2="507.1"/>
				<line opacity="0.5" fill="none" stroke="#7A726F" stroke-width="0.5324" x1="327" y1="507.5" x2="344.9" y2="504"/>
				<line opacity="0.5" fill="none" stroke="#7A726F" stroke-width="0.5324" x1="327" y1="504" x2="344.9" y2="500.5"/>
				<line opacity="0.5" fill="none" stroke="#7A726F" stroke-width="0.5324" x1="327" y1="500.3" x2="344.9" y2="496.9"/>
				<line opacity="0.5" fill="none" stroke="#7A726F" stroke-width="0.5324" x1="327" y1="496.3" x2="344.9" y2="492.9"/>
				<line opacity="0.5" fill="none" stroke="#7A726F" stroke-width="0.5324" x1="327" y1="492.7" x2="344.9" y2="489.3"/>
				<line opacity="0.5" fill="none" stroke="#7A726F" stroke-width="0.5324" x1="327" y1="489.2" x2="344.9" y2="485.7"/>
				<line opacity="0.5" fill="none" stroke="#7A726F" stroke-width="0.5324" x1="327" y1="485.7" x2="344.9" y2="482.2"/>
				<line opacity="0.5" fill="none" stroke="#7A726F" stroke-width="0.5324" x1="327" y1="481.7" x2="344.9" y2="478.2"/>
				<line opacity="0.5" fill="none" stroke="#7A726F" stroke-width="0.5324" x1="327" y1="478" x2="344.9" y2="474.5"/>
			</g>
			<g>
				<line opacity="0.5" fill="none" stroke="#7A726F" stroke-width="0.5324" x1="328.4" y1="472.9" x2="328.4" y2="422.8"/>
				<line opacity="0.5" fill="none" stroke="#7A726F" stroke-width="0.5324" x1="344.6" y1="472.7" x2="344.6" y2="422.6"/>
				<line opacity="0.5" fill="none" stroke="#7A726F" stroke-width="0.5324" x1="333.8" y1="472.8" x2="333.8" y2="422.7"/>
				<line opacity="0.5" fill="none" stroke="#7A726F" stroke-width="0.5324" x1="339.2" y1="472.7" x2="339.2" y2="422.6"/>
				<path opacity="0.5" fill="none" stroke="#7A726F" stroke-width="0.5324" d="M327,422.5c0,1.6,1.5,1.7,1.5,1.7l15.9-0.2
					c0,0,1-0.7,1,1.2c0,1.9-1.2,2.3-1.2,2.3l-16.1,0.2c0,0-1.2-0.1-1.2,1.6c0,1.7,1.4,1.9,1.4,1.9l15.8-0.2c0,0,1.2,0.1,1.2,1.8
					c0,1.7-1.4,1.8-1.4,1.8l-15.9,0.2c0,0-1,0.3-1,1.7c0,1.5,1.2,1.9,1.2,1.9l16.3-0.2c0,0,1,0,1,1.7c0,1.8-1,2.1-1,2.1l-16.3,0.2
					c0,0-1.3-0.1-1.3,1.8c0,1.9,1.5,1.9,1.5,1.9l15.9-0.2c0,0,1.1,0,1,1.7c0,1.7-1.2,2.2-1.2,2.2l-15.9,0.2c0,0-1.3,0.3-1.3,1.9
					c0,1.7,1.3,1.8,1.3,1.8l15.7-0.2c0,0,1.5-0.3,1.5,1.4c0,1.7-1.6,1.9-1.6,1.9l-15.6,0.2c0,0-1.2-0.5-1.2,1.5
					c0,1.9,1.3,2.1,1.3,2.1l15.4-0.2c0,0,1.7,0,1.7,1.8c0,1.8-1.7,2-1.7,2l-15.4,0.2c0,0-1.3-0.3-1.3,1.4c0,1.7,1.3,1.9,1.3,1.9
					l15.5-0.2c0,0,1.6,0,1.6,1.7c0,1.7-1.6,1.8-1.6,1.8l-15.7,0.2l-1.2,0.4"/>
				<path opacity="0.5" fill="none" stroke="#7A726F" stroke-width="0.5324" d="M345.6,472.5c0-1.6-1.5-1.7-1.5-1.7l-15.9,0.2
					c0,0-1,0.7-1-1.2c0-1.9,1.2-2.3,1.2-2.3l16.1-0.2c0,0,1.2,0.1,1.2-1.6c0-1.7-1.4-1.9-1.4-1.9l-15.8,0.2c0,0-1.2-0.1-1.2-1.8
					c0-1.7,1.4-1.8,1.4-1.8l15.9-0.2c0,0,1-0.3,1-1.7c0-1.5-1.2-1.9-1.2-1.9l-16.3,0.2c0,0-1,0-1-1.7c0-1.8,1-2.1,1-2.1l16.3-0.2
					c0,0,1.3,0.1,1.3-1.8c0-1.9-1.5-1.9-1.5-1.9l-15.9,0.2c0,0-1,0-1-1.7c0-1.7,1.2-2.2,1.2-2.2l15.9-0.2c0,0,1.3-0.2,1.3-1.9
					c0-1.7-1.3-1.8-1.3-1.8l-15.7,0.2c0,0-1.5,0.3-1.5-1.4c0-1.7,1.6-2,1.6-2l15.6-0.2c0,0,1.2,0.5,1.2-1.5c0-1.9-1.3-2.2-1.3-2.2
					l-15.4,0.2c0,0-1.7,0-1.7-1.8c0-1.8,1.7-2,1.7-2l15.4-0.2c0,0,1.3,0.3,1.3-1.4c0-1.7-1.3-1.9-1.3-1.9l-15.5,0.2
					c0,0-1.6,0-1.6-1.7c0-1.7,1.6-1.8,1.6-1.8l15.7-0.2l1.2-0.4"/>
				<line opacity="0.5" fill="none" stroke="#7A726F" stroke-width="0.5324" x1="327" y1="471" x2="344.9" y2="467.6"/>
				<line opacity="0.5" fill="none" stroke="#7A726F" stroke-width="0.5324" x1="327" y1="467.8" x2="344.9" y2="464.3"/>
				<line opacity="0.5" fill="none" stroke="#7A726F" stroke-width="0.5324" x1="327" y1="463.7" x2="344.9" y2="460.2"/>
				<line opacity="0.5" fill="none" stroke="#7A726F" stroke-width="0.5324" x1="327" y1="460.2" x2="344.9" y2="456.7"/>
				<line opacity="0.5" fill="none" stroke="#7A726F" stroke-width="0.5324" x1="327" y1="457.1" x2="344.9" y2="453.6"/>
				<line opacity="0.5" fill="none" stroke="#7A726F" stroke-width="0.5324" x1="327.1" y1="453.6" x2="344.9" y2="450.1"/>
				<line opacity="0.5" fill="none" stroke="#7A726F" stroke-width="0.5324" x1="327" y1="450" x2="344.9" y2="446.5"/>
				<line opacity="0.5" fill="none" stroke="#7A726F" stroke-width="0.5324" x1="327" y1="446" x2="344.9" y2="442.5"/>
				<line opacity="0.5" fill="none" stroke="#7A726F" stroke-width="0.5324" x1="327.1" y1="442.4" x2="344.9" y2="438.9"/>
				<line opacity="0.5" fill="none" stroke="#7A726F" stroke-width="0.5324" x1="327.1" y1="438.8" x2="344.9" y2="435.4"/>
				<line opacity="0.5" fill="none" stroke="#7A726F" stroke-width="0.5324" x1="327.1" y1="435.4" x2="344.9" y2="431.9"/>
				<line opacity="0.5" fill="none" stroke="#7A726F" stroke-width="0.5324" x1="327" y1="431.4" x2="344.9" y2="427.9"/>
				<line opacity="0.5" fill="none" stroke="#7A726F" stroke-width="0.5324" x1="327" y1="427.6" x2="344.9" y2="424.1"/>
			</g>
			<g>
				<line opacity="0.5" fill="none" stroke="#7A726F" stroke-width="0.5324" x1="328.5" y1="422.5" x2="328.4" y2="372.4"/>
				<line opacity="0.5" fill="none" stroke="#7A726F" stroke-width="0.5324" x1="344.6" y1="422.3" x2="344.5" y2="372.2"/>
				<line opacity="0.5" fill="none" stroke="#7A726F" stroke-width="0.5324" x1="333.8" y1="422.4" x2="333.8" y2="372.4"/>
				<line opacity="0.5" fill="none" stroke="#7A726F" stroke-width="0.5324" x1="339.2" y1="422.4" x2="339.1" y2="372.3"/>
				<path opacity="0.5" fill="none" stroke="#7A726F" stroke-width="0.5324" d="M327,372.2c0,1.6,1.5,1.7,1.5,1.7l15.9-0.2
					c0,0,1-0.7,1,1.2c0,1.9-1.2,2.3-1.2,2.3l-16,0.2c0,0-1.1-0.1-1.2,1.6c0,1.7,1.4,1.9,1.4,1.9l15.8-0.2c0,0,1.2,0.1,1.2,1.8
					c0,1.7-1.4,1.8-1.4,1.8l-15.9,0.2c0,0-1,0.3-1,1.7c0,1.4,1.2,1.9,1.2,1.9l16.3-0.2c0,0,1,0,1,1.7c0,1.8-1,2.1-1,2.1l-16.3,0.2
					c0,0-1.3-0.1-1.3,1.8c0,1.9,1.5,1.9,1.5,1.9l15.9-0.2c0,0,1,0,1,1.7c0,1.7-1.2,2.2-1.2,2.2l-15.9,0.2c0,0-1.3,0.3-1.3,2
					c0,1.7,1.3,1.8,1.3,1.8l15.7-0.2c0,0,1.5-0.3,1.5,1.4c0,1.7-1.6,2-1.6,2l-15.6,0.2c0,0-1.2-0.5-1.2,1.5c0,1.9,1.3,2.2,1.3,2.2
					l15.4-0.2c0,0,1.7,0,1.7,1.8c0,1.8-1.7,2-1.7,2l-15.4,0.2c0,0-1.3-0.3-1.3,1.4c0,1.7,1.3,1.9,1.3,1.9l15.5-0.2
					c0,0,1.6,0,1.6,1.7c0,1.7-1.6,1.8-1.6,1.8l-15.7,0.2l-1.2,0.4"/>
				<path opacity="0.5" fill="none" stroke="#7A726F" stroke-width="0.5324" d="M345.6,422.1c0-1.6-1.5-1.7-1.5-1.7l-15.9,0.2
					c0,0-1,0.7-1-1.2c0-1.9,1.2-2.3,1.2-2.3l16.1-0.2c0,0,1.2,0.1,1.2-1.6c0-1.7-1.4-1.9-1.4-1.9l-15.8,0.2c0,0-1.2-0.1-1.2-1.8
					c0-1.7,1.4-1.8,1.4-1.8l15.9-0.2c0,0,1-0.3,1-1.7c0-1.5-1.2-1.9-1.2-1.9l-16.3,0.2c0,0-1,0-1.1-1.7c0-1.8,1-2.1,1-2.1l16.3-0.2
					c0,0,1.3,0.1,1.3-1.8c0-1.9-1.5-1.9-1.5-1.9l-15.9,0.2c0,0-1,0-1-1.7c0-1.7,1.2-2.2,1.2-2.2l15.9-0.2c0,0,1.3-0.3,1.3-1.9
					c0-1.7-1.3-1.8-1.3-1.8l-15.7,0.2c0,0-1.5,0.3-1.5-1.4c0-1.7,1.6-2,1.6-2l15.6-0.2c0,0,1.2,0.5,1.1-1.5c0-1.9-1.3-2.2-1.3-2.2
					l-15.4,0.2c0,0-1.7,0-1.7-1.8c0-1.8,1.7-2,1.7-2l15.4-0.2c0,0,1.3,0.3,1.3-1.4c0-1.7-1.3-1.9-1.3-1.9l-15.5,0.2
					c0,0-1.6,0-1.6-1.7c0-1.7,1.6-1.8,1.6-1.8l15.7-0.2l1.2-0.4"/>
				<line opacity="0.5" fill="none" stroke="#7A726F" stroke-width="0.5324" x1="327" y1="420.7" x2="344.9" y2="417.2"/>
				<line opacity="0.5" fill="none" stroke="#7A726F" stroke-width="0.5324" x1="327" y1="417.4" x2="344.9" y2="413.9"/>
				<line opacity="0.5" fill="none" stroke="#7A726F" stroke-width="0.5324" x1="327" y1="413.3" x2="344.9" y2="409.8"/>
				<line opacity="0.5" fill="none" stroke="#7A726F" stroke-width="0.5324" x1="327" y1="409.8" x2="344.9" y2="406.3"/>
				<line opacity="0.5" fill="none" stroke="#7A726F" stroke-width="0.5324" x1="327" y1="406.8" x2="344.9" y2="403.3"/>
				<line opacity="0.5" fill="none" stroke="#7A726F" stroke-width="0.5324" x1="327" y1="403.3" x2="344.9" y2="399.8"/>
				<line opacity="0.5" fill="none" stroke="#7A726F" stroke-width="0.5324" x1="327" y1="399.6" x2="344.9" y2="396.1"/>
				<line opacity="0.5" fill="none" stroke="#7A726F" stroke-width="0.5324" x1="327" y1="395.6" x2="344.9" y2="392.1"/>
				<line opacity="0.5" fill="none" stroke="#7A726F" stroke-width="0.5324" x1="327" y1="392" x2="344.9" y2="388.5"/>
				<line opacity="0.5" fill="none" stroke="#7A726F" stroke-width="0.5324" x1="327" y1="388.5" x2="344.9" y2="385"/>
				<line opacity="0.5" fill="none" stroke="#7A726F" stroke-width="0.5324" x1="327" y1="385" x2="344.9" y2="381.5"/>
				<line opacity="0.5" fill="none" stroke="#7A726F" stroke-width="0.5324" x1="327" y1="381" x2="344.9" y2="377.5"/>
				<line opacity="0.5" fill="none" stroke="#7A726F" stroke-width="0.5324" x1="327" y1="377.3" x2="344.9" y2="373.7"/>
			</g>
			<g>
				<line opacity="0.5" fill="none" stroke="#7A726F" stroke-width="0.5324" x1="328.4" y1="372.2" x2="328.3" y2="322.1"/>
				<line opacity="0.5" fill="none" stroke="#7A726F" stroke-width="0.5324" x1="344.5" y1="371.9" x2="344.4" y2="321.8"/>
				<line opacity="0.5" fill="none" stroke="#7A726F" stroke-width="0.5324" x1="333.8" y1="372.1" x2="333.7" y2="322"/>
				<line opacity="0.5" fill="none" stroke="#7A726F" stroke-width="0.5324" x1="339.1" y1="372" x2="339" y2="321.9"/>
				<path opacity="0.5" fill="none" stroke="#7A726F" stroke-width="0.5324" d="M326.9,321.8c0,1.6,1.5,1.7,1.5,1.7l15.9-0.2
					c0,0,1-0.7,1.1,1.2c0,1.9-1.2,2.3-1.2,2.3l-16,0.2c0,0-1.2-0.1-1.2,1.6c0,1.7,1.4,1.9,1.4,1.9l15.8-0.2c0,0,1.1,0.1,1.2,1.8
					c0,1.7-1.4,1.8-1.4,1.8l-15.9,0.2c0,0-1,0.3-1,1.7c0,1.5,1.2,1.9,1.2,1.9l16.3-0.2c0,0,1,0,1,1.7c0,1.8-1,2.1-1,2.1l-16.3,0.2
					c0,0-1.3-0.1-1.3,1.8c0,1.9,1.5,1.9,1.5,1.9l15.9-0.2c0,0,1,0,1,1.7c0,1.7-1.2,2.2-1.2,2.2l-15.9,0.2c0,0-1.3,0.3-1.3,2
					c0,1.7,1.3,1.8,1.3,1.8l15.7-0.2c0,0,1.5-0.3,1.5,1.4c0,1.7-1.6,2-1.6,2l-15.6,0.2c0,0-1.2-0.5-1.2,1.5c0,1.9,1.3,2.2,1.3,2.2
					l15.4-0.2c0,0,1.7,0,1.7,1.8c0,1.8-1.7,2-1.7,2l-15.4,0.2c0,0-1.3-0.3-1.3,1.4c0,1.7,1.3,1.9,1.3,1.9l15.5-0.2
					c0,0,1.6,0,1.6,1.7c0,1.7-1.6,1.8-1.6,1.8l-15.7,0.2l-1.2,0.4"/>
				<path opacity="0.5" fill="none" stroke="#7A726F" stroke-width="0.5324" d="M345.6,371.7c0-1.6-1.5-1.7-1.5-1.7l-15.9,0.2
					c0,0-1,0.7-1-1.2c0-1.9,1.2-2.3,1.2-2.3l16.1-0.2c0,0,1.2,0.1,1.2-1.6c0-1.7-1.4-1.9-1.4-1.9l-15.8,0.2c0,0-1.2-0.1-1.2-1.8
					c0-1.7,1.4-1.8,1.4-1.8l15.9-0.2c0,0,1-0.3,1-1.7c0-1.5-1.2-1.9-1.2-1.9L328,356c0,0-1,0-1-1.7c0-1.8,1-2.1,1-2.1l16.3-0.2
					c0,0,1.3,0.1,1.3-1.8c0-1.9-1.5-1.9-1.5-1.9l-15.9,0.2c0,0-1,0-1-1.7c0-1.7,1.2-2.2,1.2-2.2l15.9-0.2c0,0,1.3-0.3,1.3-1.9
					c0-1.7-1.3-1.8-1.3-1.8l-15.7,0.2c0,0-1.5,0.3-1.5-1.4c0-1.7,1.6-2,1.6-2l15.6-0.2c0,0,1.2,0.5,1.1-1.5c0-1.9-1.3-2.2-1.3-2.2
					l-15.4,0.2c0,0-1.7,0-1.7-1.8c0-1.8,1.7-2,1.7-2l15.4-0.2c0,0,1.3,0.3,1.3-1.4c0-1.7-1.3-1.9-1.3-1.9l-15.5,0.2
					c0,0-1.6,0-1.6-1.7c0-1.7,1.6-1.8,1.6-1.8l15.7-0.2l1.2-0.4"/>
				<line opacity="0.5" fill="none" stroke="#7A726F" stroke-width="0.5324" x1="327" y1="370.3" x2="344.9" y2="366.8"/>
				<line opacity="0.5" fill="none" stroke="#7A726F" stroke-width="0.5324" x1="327" y1="367.1" x2="344.8" y2="363.5"/>
				<line opacity="0.5" fill="none" stroke="#7A726F" stroke-width="0.5324" x1="327" y1="363" x2="344.8" y2="359.5"/>
				<line opacity="0.5" fill="none" stroke="#7A726F" stroke-width="0.5324" x1="327" y1="359.5" x2="344.8" y2="355.9"/>
				<line opacity="0.5" fill="none" stroke="#7A726F" stroke-width="0.5324" x1="327" y1="356.4" x2="344.8" y2="352.9"/>
				<line opacity="0.5" fill="none" stroke="#7A726F" stroke-width="0.5324" x1="326.9" y1="352.9" x2="344.8" y2="349.4"/>
				<line opacity="0.5" fill="none" stroke="#7A726F" stroke-width="0.5324" x1="326.9" y1="349.3" x2="344.8" y2="345.7"/>
				<line opacity="0.5" fill="none" stroke="#7A726F" stroke-width="0.5324" x1="326.9" y1="345.3" x2="344.8" y2="341.8"/>
				<line opacity="0.5" fill="none" stroke="#7A726F" stroke-width="0.5324" x1="326.9" y1="341.7" x2="344.8" y2="338.1"/>
				<line opacity="0.5" fill="none" stroke="#7A726F" stroke-width="0.5324" x1="326.9" y1="338.2" x2="344.8" y2="334.6"/>
				<line opacity="0.5" fill="none" stroke="#7A726F" stroke-width="0.5324" x1="326.9" y1="334.6" x2="344.8" y2="331.1"/>
				<line opacity="0.5" fill="none" stroke="#7A726F" stroke-width="0.5324" x1="326.9" y1="330.7" x2="344.8" y2="327.1"/>
				<line opacity="0.5" fill="none" stroke="#7A726F" stroke-width="0.5324" x1="326.9" y1="326.9" x2="344.7" y2="323.4"/>
			</g>
			<g>
				<line opacity="0.5" fill="none" stroke="#7A726F" stroke-width="0.5324" x1="328.3" y1="321.8" x2="328.1" y2="271.7"/>
				<line opacity="0.5" fill="none" stroke="#7A726F" stroke-width="0.5324" x1="344.4" y1="321.6" x2="344.2" y2="271.5"/>
				<line opacity="0.5" fill="none" stroke="#7A726F" stroke-width="0.5324" x1="333.7" y1="321.7" x2="333.5" y2="271.6"/>
				<line opacity="0.5" fill="none" stroke="#7A726F" stroke-width="0.5324" x1="339" y1="321.6" x2="338.9" y2="271.5"/>
				<path opacity="0.5" fill="none" stroke="#7A726F" stroke-width="0.5324" d="M326.7,271.5c0,1.6,1.5,1.7,1.5,1.7l15.9-0.3
					c0,0,1-0.7,1.1,1.2c0,1.9-1.2,2.3-1.2,2.3l-16,0.3c0,0-1.2-0.1-1.2,1.6c0,1.7,1.4,1.9,1.4,1.9l15.8-0.3c0,0,1.2,0.1,1.2,1.8
					c0,1.7-1.4,1.8-1.4,1.8l-15.9,0.3c0,0-1,0.3-1,1.7c0,1.5,1.2,1.9,1.2,1.9l16.3-0.3c0,0,1,0,1,1.7c0,1.8-1,2.1-1,2.1l-16.3,0.3
					c0,0-1.3-0.1-1.3,1.8c0,1.9,1.5,1.9,1.5,1.9l15.9-0.2c0,0,1,0,1.1,1.7c0,1.7-1.2,2.2-1.2,2.2l-15.9,0.2c0,0-1.3,0.3-1.3,2
					c0,1.7,1.3,1.8,1.3,1.8l15.7-0.2c0,0,1.5-0.3,1.5,1.4c0,1.7-1.6,2-1.6,2l-15.6,0.2c0,0-1.2-0.5-1.1,1.5c0,1.9,1.3,2.2,1.3,2.2
					l15.4-0.2c0,0,1.7,0,1.7,1.8c0,1.8-1.7,2-1.7,2l-15.4,0.2c0,0-1.3-0.3-1.3,1.4c0,1.7,1.3,1.9,1.3,1.9l15.5-0.2
					c0,0,1.6,0,1.6,1.7c0,1.7-1.6,1.8-1.6,1.8l-15.7,0.2l-1.2,0.4"/>
				<path opacity="0.5" fill="none" stroke="#7A726F" stroke-width="0.5324" d="M345.5,321.4c0-1.6-1.5-1.7-1.5-1.7L328,320
					c0,0-1,0.7-1.1-1.2c0-1.9,1.2-2.3,1.2-2.3l16.1-0.2c0,0,1.2,0.1,1.1-1.6c0-1.7-1.4-1.9-1.4-1.9l-15.8,0.2c0,0-1.2-0.1-1.2-1.8
					c0-1.7,1.4-1.8,1.4-1.8l15.9-0.2c0,0,1-0.3,1-1.7c0-1.5-1.2-1.9-1.2-1.9l-16.3,0.3c0,0-1,0-1.1-1.7c0-1.8,1-2.1,1-2.1l16.3-0.3
					c0,0,1.3,0.1,1.3-1.8c0-1.9-1.5-1.9-1.5-1.9l-15.9,0.3c0,0-1,0-1-1.7c0-1.7,1.1-2.2,1.1-2.2l15.9-0.3c0,0,1.3-0.3,1.3-2
					c0-1.7-1.3-1.8-1.3-1.8l-15.7,0.2c0,0-1.5,0.3-1.5-1.4c0-1.7,1.6-2,1.6-2l15.6-0.2c0,0,1.2,0.5,1.1-1.5c0-1.9-1.3-2.1-1.3-2.1
					l-15.4,0.2c0,0-1.7,0-1.7-1.8c0-1.8,1.7-2,1.7-2l15.4-0.2c0,0,1.3,0.3,1.3-1.4c0-1.7-1.3-1.9-1.3-1.9l-15.5,0.2
					c0,0-1.6,0-1.6-1.7c0-1.7,1.6-1.8,1.6-1.8l15.7-0.3l1.2-0.4"/>
				<line opacity="0.5" fill="none" stroke="#7A726F" stroke-width="0.5324" x1="326.9" y1="320" x2="344.7" y2="316.4"/>
				<line opacity="0.5" fill="none" stroke="#7A726F" stroke-width="0.5324" x1="326.9" y1="316.7" x2="344.7" y2="313.2"/>
				<line opacity="0.5" fill="none" stroke="#7A726F" stroke-width="0.5324" x1="326.8" y1="312.6" x2="344.7" y2="309.1"/>
				<line opacity="0.5" fill="none" stroke="#7A726F" stroke-width="0.5324" x1="326.8" y1="309.1" x2="344.7" y2="305.6"/>
				<line opacity="0.5" fill="none" stroke="#7A726F" stroke-width="0.5324" x1="326.8" y1="306.1" x2="344.7" y2="302.5"/>
				<line opacity="0.5" fill="none" stroke="#7A726F" stroke-width="0.5324" x1="326.8" y1="302.5" x2="344.7" y2="299"/>
				<line opacity="0.5" fill="none" stroke="#7A726F" stroke-width="0.5324" x1="326.8" y1="298.9" x2="344.7" y2="295.4"/>
				<line opacity="0.5" fill="none" stroke="#7A726F" stroke-width="0.5324" x1="326.8" y1="294.9" x2="344.7" y2="291.4"/>
				<line opacity="0.5" fill="none" stroke="#7A726F" stroke-width="0.5324" x1="326.8" y1="291.3" x2="344.6" y2="287.8"/>
				<line opacity="0.5" fill="none" stroke="#7A726F" stroke-width="0.5324" x1="326.8" y1="287.8" x2="344.6" y2="284.2"/>
				<line opacity="0.5" fill="none" stroke="#7A726F" stroke-width="0.5324" x1="326.7" y1="284.3" x2="344.6" y2="280.7"/>
				<line opacity="0.5" fill="none" stroke="#7A726F" stroke-width="0.5324" x1="326.7" y1="280.3" x2="344.6" y2="276.7"/>
				<line opacity="0.5" fill="none" stroke="#7A726F" stroke-width="0.5324" x1="326.7" y1="276.6" x2="344.6" y2="273"/>
			</g>
			<g>
				<line opacity="0.5" fill="none" stroke="#7A726F" stroke-width="0.5324" x1="328.1" y1="271.4" x2="327.9" y2="221.4"/>
				<line opacity="0.5" fill="none" stroke="#7A726F" stroke-width="0.5324" x1="344.2" y1="271.2" x2="344" y2="221.1"/>
				<line opacity="0.5" fill="none" stroke="#7A726F" stroke-width="0.5324" x1="333.5" y1="271.4" x2="333.3" y2="221.3"/>
				<line opacity="0.5" fill="none" stroke="#7A726F" stroke-width="0.5324" x1="338.9" y1="271.3" x2="338.6" y2="221.2"/>
				<path opacity="0.5" fill="none" stroke="#7A726F" stroke-width="0.5324" d="M326.5,221.1c0,1.6,1.5,1.7,1.5,1.7l15.9-0.3
					c0,0,1-0.7,1.1,1.2c0,1.9-1.1,2.3-1.1,2.3l-16,0.3c0,0-1.2-0.1-1.2,1.6c0,1.7,1.4,1.9,1.4,1.9l15.8-0.3c0,0,1.2,0.1,1.2,1.8
					c0,1.7-1.4,1.8-1.4,1.8l-15.9,0.3c0,0-1,0.3-1,1.7c0,1.4,1.2,1.9,1.2,1.9l16.3-0.3c0,0,1,0,1.1,1.7c0,1.8-1,2.1-1,2.1l-16.3,0.3
					c0,0-1.3-0.1-1.3,1.8c0,1.9,1.5,1.9,1.5,1.9l15.9-0.3c0,0,1,0,1,1.7c0,1.7-1.1,2.2-1.1,2.2l-15.9,0.3c0,0-1.3,0.3-1.3,2
					c0,1.7,1.3,1.8,1.3,1.8l15.7-0.3c0,0,1.5-0.3,1.5,1.4c0,1.7-1.6,2-1.6,2l-15.6,0.3c0,0-1.2-0.5-1.1,1.5c0,1.9,1.3,2.2,1.3,2.2
					l15.4-0.3c0,0,1.7,0,1.7,1.8c0,1.8-1.7,2-1.7,2l-15.4,0.3c0,0-1.3-0.3-1.3,1.4c0,1.7,1.3,1.9,1.3,1.9l15.5-0.2
					c0,0,1.6,0,1.6,1.7c0,1.7-1.6,1.8-1.6,1.8l-15.7,0.3l-1.2,0.4"/>
				<path opacity="0.5" fill="none" stroke="#7A726F" stroke-width="0.5324" d="M345.3,271c0-1.6-1.5-1.7-1.5-1.7l-15.9,0.3
					c0,0-1,0.7-1-1.2c0-1.9,1.1-2.3,1.1-2.3l16.1-0.3c0,0,1.2,0.1,1.1-1.6c0-1.7-1.4-1.9-1.4-1.9l-15.8,0.3c0,0-1.2-0.1-1.2-1.8
					c0-1.7,1.4-1.8,1.4-1.8l15.9-0.3c0,0,1-0.3,1-1.7c0-1.5-1.2-1.9-1.2-1.9l-16.3,0.3c0,0-1.1,0-1-1.7c0-1.8,1-2.1,1-2.1l16.3-0.3
					c0,0,1.3,0.1,1.3-1.8c0-1.9-1.5-1.9-1.5-1.9l-15.9,0.3c0,0-1,0-1-1.7c0-1.7,1.2-2.2,1.2-2.2l15.9-0.3c0,0,1.3-0.3,1.3-1.9
					c0-1.7-1.3-1.8-1.3-1.8l-15.7,0.3c0,0-1.5,0.3-1.5-1.4c0-1.7,1.6-2,1.6-2l15.6-0.3c0,0,1.2,0.5,1.1-1.5c0-1.9-1.3-2.2-1.3-2.2
					l-15.4,0.3c0,0-1.7,0-1.7-1.8c0-1.8,1.7-2,1.7-2l15.4-0.3c0,0,1.3,0.3,1.3-1.4c0-1.7-1.3-1.9-1.3-1.9l-15.5,0.3
					c0,0-1.6,0-1.6-1.7c0-1.7,1.6-1.8,1.6-1.8l15.7-0.3l1.2-0.4"/>
				<line opacity="0.5" fill="none" stroke="#7A726F" stroke-width="0.5324" x1="326.7" y1="269.6" x2="344.5" y2="266.1"/>
				<line opacity="0.5" fill="none" stroke="#7A726F" stroke-width="0.5324" x1="326.7" y1="266.4" x2="344.5" y2="262.8"/>
				<line opacity="0.5" fill="none" stroke="#7A726F" stroke-width="0.5324" x1="326.7" y1="262.3" x2="344.5" y2="258.7"/>
				<line opacity="0.5" fill="none" stroke="#7A726F" stroke-width="0.5324" x1="326.7" y1="258.8" x2="344.5" y2="255.2"/>
				<line opacity="0.5" fill="none" stroke="#7A726F" stroke-width="0.5324" x1="326.6" y1="255.7" x2="344.5" y2="252.1"/>
				<line opacity="0.5" fill="none" stroke="#7A726F" stroke-width="0.5324" x1="326.6" y1="252.2" x2="344.5" y2="248.6"/>
				<line opacity="0.5" fill="none" stroke="#7A726F" stroke-width="0.5324" x1="326.6" y1="248.6" x2="344.5" y2="245"/>
				<line opacity="0.5" fill="none" stroke="#7A726F" stroke-width="0.5324" x1="326.6" y1="244.6" x2="344.5" y2="241"/>
				<line opacity="0.5" fill="none" stroke="#7A726F" stroke-width="0.5324" x1="326.6" y1="241" x2="344.4" y2="237.4"/>
				<line opacity="0.5" fill="none" stroke="#7A726F" stroke-width="0.5324" x1="326.6" y1="237.4" x2="344.4" y2="233.9"/>
				<line opacity="0.5" fill="none" stroke="#7A726F" stroke-width="0.5324" x1="326.5" y1="233.9" x2="344.4" y2="230.4"/>
				<line opacity="0.5" fill="none" stroke="#7A726F" stroke-width="0.5324" x1="326.5" y1="229.9" x2="344.4" y2="226.4"/>
				<line opacity="0.5" fill="none" stroke="#7A726F" stroke-width="0.5324" x1="326.5" y1="226.2" x2="344.4" y2="222.6"/>
			</g>
		</g>
		<path opacity="0.5" fill="none" stroke="#3C3533" stroke-width="0.647" stroke-dasharray="2.5879,2.5879" d="M544.9,174.8
			c0,0-7.9-7.2-54.4-4.7c-63.7,3.3-189,14.5-217.8,15.6c-28.8,1.1-90.5,12.9-102.1,14.2c-11.6,1.2-32.6,11.7-37.7,12.8
			c-5,1.1-17.4,7.5-17.4,7.5"/>
		<path opacity="0.5" fill="none" stroke="#3C3533" stroke-width="0.647" stroke-dasharray="2.5879,2.5879" d="M552.9,220.7
			c0,0-2.5-10.5-66.3-10c-63.8,0.5-193.9,15.8-222.8,16.3c-28.9,0.5-81.5,7.2-93.2,8.2c-11.6,1-32.9,11-38,12
			c-5.1,1-9.6,3.5-9.6,3.5"/>
		<path opacity="0.5" fill="none" stroke="#3C3533" stroke-width="0.6572" stroke-dasharray="2.6289,2.6289" d="M494.8,832.3
			c0,0-48.9,8.2-70,5.6c-21.1-2.6-65.8-9.5-99.1-10.3s-105.2,0.4-115.1-1.3c-9.9-1.7-55.9-7.8-70.9-11.2c-15-3.4-27.7-4.7-27.7-4.7"
			/>
		<path opacity="0.5" fill="none" stroke="#3C3533" stroke-width="0.6572" stroke-dasharray="2.6289,2.6289" d="M494.8,842.7
			c0,0-48.9,8.2-70,5.6c-21.1-2.6-65.8-9.5-99.1-10.3c-33.4-0.9-105.2,0.4-115.1-1.3c-9.9-1.7-55.9-7.8-70.9-11.2
			s-27.7-4.7-27.7-4.7"/>
		<path opacity="0.5" fill="none" stroke="#3C3533" stroke-width="0.5285" stroke-dasharray="2.1138,2.1138" d="M593.6,781
			c0,0-4.6,9.1-15.8,9.1s-35.5,1.7-48.3,3.4s-29.5,3.9-29.5,3.9"/>
		<path opacity="0.5" fill="none" stroke="#3C3533" stroke-width="0.5285" stroke-dasharray="2.1138,2.1138" d="M593.6,791.4
			c0,0-4.6,9.1-15.8,9.1s-35.5,1.7-48.3,3.4c-12.8,1.7-29.5,3.9-29.5,3.9"/>
	</g>
</g>
<g id="SHORT_LOWER_LEG">
	<g>
		<path fill="#897F76" d="M506,755.4c0,0,1.8-11.6,6.3-17c3.5-4.2,48-13.2,66.5-16.8c-2.1-11-3.9-20.8-5.1-28.1
			c-14,2.7-48.6,9.8-52.2,14.1c-4.5,5.4-6.3,17-6.3,17s-19.6,1.8-120.6,0.9c-85.4-0.8-229.1-23.3-271.2-30.2
			c-2.2,9.1-3.9,16.5-4.9,21.5c-0.6,3.2-1.2,6.4-1.7,9.7c45.2,7.4,184.8,29,268.5,29.7C486.4,757.2,506,755.4,506,755.4z"/>
	</g>
</g>
	</g>
<g id="CUSTOM"></g>
<g id="SHADING">
	<polygon points="495.9,842.7 495.9,842.7 496,841.7 	"/>
	<g opacity="2.000000e-02">
		<path d="M637,470.8c0,0,0,0.1,0,0.1C637,470.9,637,470.9,637,470.8 M637,470.8L637,470.8L637,470.8L637,470.8 M637,470.5
			C637,470.5,637,470.5,637,470.5L637,470.5C637,470.5,637,470.5,637,470.5"/>
		<path d="M634.6,439.4c0.2,1.2,0.4,2.4,0.6,3.6C635.1,441.7,634.8,440.5,634.6,439.4"/>
		<path d="M636,448.5c0.1,0.4,0.1,0.8,0.1,1.3C636.1,449.4,636,448.9,636,448.5"/>
		<polyline points="636.4,485.5 636.4,485.5 636.4,485.5 636.4,485.5 		"/>
		<polyline points="636.8,478 636.8,478.2 636.8,478 		"/>
		<path d="M625.5,406.2c4.3,17.6,7,43.4,10.9,79.3l0,0c0.2-2.4,0.3-4.9,0.4-7.3l0-0.1c0.1-2.4,0.2-4.7,0.2-7.1c0,0,0-0.1,0-0.1l0,0
			c0-0.1,0-0.2,0-0.3l0,0c0,0,0,0,0-0.1c0-2.2,0-4.5,0-6.7c0-0.3,0-0.7,0-1c-0.1-2-0.1-4-0.3-6c0-0.6-0.1-1.1-0.1-1.7
			c-0.1-1.8-0.3-3.5-0.4-5.3l0,0c0-0.4-0.1-0.8-0.1-1.3c-0.1-0.4-0.1-0.8-0.2-1.2c-0.2-1.5-0.3-2.9-0.6-4.4l0,0
			c-0.2-1.2-0.4-2.4-0.6-3.6l0,0c-0.2-1-0.3-2.1-0.6-3.1c-0.5-2.2-1-4.4-1.5-6.6c-1-3.8-2.1-7.6-3.2-11.4c-0.1-0.2-0.1-0.4-0.2-0.5
			C628,413.9,626.8,410.1,625.5,406.2"/>
		<path d="M580.1,655.4c-0.2,0.4-0.4,0.8-0.6,1.2C579.7,656.2,580,655.8,580.1,655.4"/>
		<path d="M578.3,659.3c-0.1,0.3-0.3,0.6-0.4,0.9C578,659.9,578.2,659.6,578.3,659.3"/>
		<path d="M582,651.7c-0.2,0.4-0.5,0.9-0.7,1.3C581.5,652.6,581.8,652.1,582,651.7"/>
		<path d="M572.7,677.6c0,0.3-0.1,0.7-0.1,1C572.6,678.3,572.6,677.9,572.7,677.6"/>
		<path d="M573.3,674.1c-0.1,0.4-0.2,0.8-0.2,1.2C573.1,674.9,573.2,674.5,573.3,674.1"/>
		<path d="M575.2,667.2c-0.1,0.4-0.2,0.8-0.4,1.1C574.9,668,575,667.6,575.2,667.2"/>
		<path d="M590.6,636.5c-0.3,0.5-0.6,1-0.9,1.5C590,637.5,590.3,637,590.6,636.5"/>
		<path d="M593.1,632.5c-2.3,3.1-4.4,5.3-6,6.5c-12.9,9.6-34.2,30.6-60,59.4s-31.4,144.2-31.4,144.2l0.2,0l0.1-1c0,0,13.4,1,29.2,1
			c7.9,0,16.4-0.2,24.1-1c23.1-2.2,53.2-8.8,53.2-8.8s-30.1-133.7-30.1-151.2c0-1,0.1-2.1,0.2-3.1c0-0.3,0.1-0.7,0.1-1
			c0.1-0.7,0.2-1.5,0.3-2.2c0.1-0.4,0.2-0.8,0.2-1.2c0.2-0.7,0.3-1.4,0.5-2.2c0.1-0.4,0.2-0.8,0.3-1.2c0.2-0.8,0.5-1.5,0.7-2.3
			c0.1-0.4,0.2-0.8,0.4-1.1c0.3-0.9,0.7-1.9,1-2.9c0.1-0.2,0.1-0.4,0.2-0.6c0.5-1.2,1-2.4,1.5-3.6c0.1-0.3,0.3-0.6,0.4-0.9
			c0.4-0.9,0.8-1.8,1.2-2.7c0.2-0.4,0.4-0.8,0.6-1.2c0.4-0.8,0.8-1.6,1.2-2.4c0.2-0.4,0.4-0.9,0.7-1.3c0.4-0.8,0.8-1.5,1.2-2.3
			c0.2-0.4,0.5-0.9,0.7-1.3c0.4-0.8,0.9-1.6,1.3-2.4c0.2-0.4,0.4-0.8,0.6-1.1c0.6-1.1,1.3-2.2,1.9-3.3c0.3-0.4,0.5-0.8,0.7-1.3
			c0.4-0.7,0.8-1.4,1.2-2c0.4-0.6,0.7-1.2,1.1-1.8c0.3-0.4,0.5-0.9,0.8-1.3C592.1,634.1,592.6,633.3,593.1,632.5L593.1,632.5"/>
		<path d="M210.4,311.4c0,0-20.2,70.6-31.2,105.9c-2.7,8.7-7.5,17.5-13.2,25.8c2.8,17.4,4.4,34.4,3.6,47.9
			c-0.6,9.2-3.6,25.5-7.8,45.4c4.1-12.4,22.2-68.4,31.5-103.8C203.4,394.5,210.4,311.4,210.4,311.4"/>
	</g>
</g>	

</svg>
