<?xml version="1.0" encoding="utf-8"?>
<!-- Generator: Adobe Illustrator 22.1.0, SVG Export Plug-In . SVG Version: 6.00 Build 0)  -->
<svg version="1.1" id="Layer_1" xmlns="http://www.w3.org/2000/svg" xmlns:xlink="http://www.w3.org/1999/xlink" x="0px" y="0px"
	 viewBox="0 0 620 1035.881" enable-background="new 0 0 800.453 1035.881" xml:space="preserve">
<path fill="#897F76" stroke="#AFB1AF" stroke-width="0.1042" d="M188.209,76.494c0,0,127.078,22.431,177.529,22.431
	c50.465,0,117.741-7.482,134.563-7.482c16.821,0,59.8-3.738,59.8-3.738s39.256,89.707,41.118,121.476
	c1.865,31.77,0,201.827,1.865,235.47c1.871,33.643,7.474,185.012,9.347,213.048c1.874,28.032,11.441,107.675,5.825,126.368
	c-5.607,18.696-24.51,71.72-24.51,88.539c0,16.824-1.876,54.204-11.221,57.94c-9.336,3.738-21.112,18.306-21.112,23.903
	c0,5.603-10.011,21.701-10.011,21.701s-23.102,8.071-50.074,7.791c-15.416-0.159-45.627-9.451-45.627-9.451l-12.24-26.158
	c0,0-12.312-14.058-19.782-23.396c-7.476-9.336-7.476-37.381-1.876-52.329c5.612-14.946,20.572-48.589,13.087-67.274
	c-7.475-18.686-13.087-106.529-7.475-121.477c5.61-14.948,1.862-72.875-1.863-85.96c-3.749-13.084-14.948-56.074-13.084-61.673
	c1.862-5.601,0-84.109-5.612-104.657c-5.611-20.548-22.423-66.916-22.423-66.916s-18.695,141.675-22.42,177.182
	c-3.746,35.506-18.696,112.13-33.643,140.163c-14.948,28.03-26.17,85.969-24.295,104.653c1.874,18.686,0.617,45.605,0.617,54.956
	c0,9.345,1.675,72.114-7.672,79.588c-9.338,7.473-24.715,26.166-26.579,35.514c-1.872,9.348-26.168,16.822-26.168,16.822
	l-72.885-3.736l-1.874-28.035c0,0-37.369-22.419-37.369-31.766c0-9.348,3.736-44.845,5.61-57.928
	c1.864-13.087,7.475-26.18,3.729-31.781c-3.729-5.598-13.231-40.496-13.231-57.307c0-16.811-9.192-71.643,0.156-97.8
	c9.346-26.16,24.295-113.993,24.295-134.551c0-20.56,3.726-177.554,3.726-199.974c0-22.423,3.738-134.563,11.223-171.932
	C175.125,121.348,188.209,76.494,188.209,76.494z"/>
<radialGradient id="SVGF_SVGID_1_" cx="207.3446" cy="344.7226" r="214.8649" gradientUnits="userSpaceOnUse">
	<stop  offset="0" style="stop-color:#FFFFFF"/>
	<stop  offset="1" style="stop-color:#000000"/>
</radialGradient>
<path opacity="0.06" fill="url(#SVGF_SVGID_1_)" d="M159.278,309.063c0,0,38.544,120.163,49.882,141.707
	c11.339,21.544,28.34,61.219,28.34,61.219l-12.471-1.133c0,0-29.473-49.891-43.085-82.761
	C168.351,395.224,159.278,309.063,159.278,309.063z"/>
<radialGradient id="SVGF_SVGID_2_" cx="161.9605" cy="413.3425" r="215.2777" gradientUnits="userSpaceOnUse">
	<stop  offset="0" style="stop-color:#FFFFFF"/>
	<stop  offset="1" style="stop-color:#000000"/>
</radialGradient>
<path opacity="0.08" fill="url(#SVGF_SVGID_2_)" d="M214.823,526.725c0,0-14.735-19.277-32.88-36.28
	c-18.125-17.001-27.674-33.22-27.674-33.22l0.594-23.118c0,0,21.425,40.46,29.355,49.531
	C192.148,492.712,214.823,526.725,214.823,526.725z"/>
<linearGradient id="SVGF_SVGID_3_" gradientUnits="userSpaceOnUse" x1="497.4491" y1="446.5488" x2="612.5666" y2="448.7615">
	<stop  offset="0" style="stop-color:#FFFFFF"/>
	<stop  offset="1" style="stop-color:#000000"/>
</linearGradient>
<path opacity="0.1" fill="url(#SVGF_SVGID_3_)" d="M534.516,143.547c0,0-12.48,259.606-15.867,309.487
	c-3.409,49.883-5.676,177.997-3.409,201.796c2.264,23.795,20.41,103.16,20.41,103.16s-5.674-112.234-5.674-134.907
	c0-22.678,12.47-120.177,12.47-164.385c0-44.209,6.798-90.68,9.072-113.357c2.275-22.676,22.685-61.232,28.338-70.292
	c5.673-9.062,9.073-17.002,9.073-17.002l-29.483,13.604c0,0-7.928-55.556-7.928-73.691c0-18.134-6.808-61.21-6.808-61.21
	L534.516,143.547z"/>
<linearGradient id="SVGF_SVGID_4_" gradientUnits="userSpaceOnUse" x1="539.6185" y1="515.187" x2="702.3254" y2="349.1614">
	<stop  offset="0" style="stop-color:#FFFFFF"/>
	<stop  offset="1" style="stop-color:#000000"/>
</linearGradient>
<path opacity="0.06" fill="url(#SVGF_SVGID_4_)" d="M598.002,382.753c0,0-41.943,73.69-40.822,78.222
	c1.145,4.53,32.882-35.147,37.413-32.881c4.542,2.263-47.608,133.777-47.608,140.573c0,6.796,5.664,11.339,5.664,11.339
	s40.735-90.724,48.753-107.694c2.91-6.172,1.235-55.018,1.235-55.018l-0.234-44.292L598.002,382.753z"/>
<linearGradient id="SVGF_SVGID_5_" gradientUnits="userSpaceOnUse" x1="554.1876" y1="613.785" x2="684.79" y2="554.0151">
	<stop  offset="0" style="stop-color:#FFFFFF"/>
	<stop  offset="1" style="stop-color:#000000"/>
</linearGradient>
<path opacity="0.06" fill="url(#SVGF_SVGID_5_)" d="M599.135,559.596c0,0-37.412,66.881-31.748,79.354
	c5.673,12.47,39.676-63.486,39.676-63.486L599.135,559.596z"/>
<linearGradient id="SVGF_SVGID_6_" gradientUnits="userSpaceOnUse" x1="533.3474" y1="712.6501" x2="738.1378" y2="773.5393">
	<stop  offset="0" style="stop-color:#FFFFFF"/>
	<stop  offset="1" style="stop-color:#000000"/>
</linearGradient>
<path opacity="0.12" fill="url(#SVGF_SVGID_6_)" d="M612.212,657.455l-1.676-38.311c0,0-19.34,82.159-19.34,91.231
	c0,9.072-12.46,44.208-22.667,53.279c-10.202,9.072-45.35,47.618-48.759,53.283c-3.387,5.662,6.82,14.743,15.88,7.936
	c9.06-6.803,21.531-4.528,40.81-37.408c19.28-32.882,19.27-47.619,28.338-62.354c9.074-14.737,11.963-37.73,11.963-37.73
	L612.212,657.455z"/>
<radialGradient id="SVGF_SVGID_7_" cx="441.9869" cy="745.4002" r="217.0004" gradientUnits="userSpaceOnUse">
	<stop  offset="0" style="stop-color:#FFFFFF"/>
	<stop  offset="1" style="stop-color:#000000"/>
</radialGradient>
<path opacity="0.1" fill="url(#SVGF_SVGID_7_)" d="M549.253,881.554c0,0-47.616-35.145-62.352-53.28
	c-14.739-18.137-37.415-43.085-39.677-46.484c-2.268-3.399-19.852-25.46-19.852-25.46s0.911,22.484,5.993,43.583
	c2.732,11.338,7.941,22.698,11.964,28.974c9.651,15.095,30.233,16.4,32.5,22.061c2.265,5.663,21.55,30.606,31.746,32.871
	C519.769,886.085,549.253,881.554,549.253,881.554z"/>
<radialGradient id="SVGF_SVGID_8_" cx="419.8466" cy="835.0544" r="122.8751" gradientUnits="userSpaceOnUse">
	<stop  offset="0" style="stop-color:#FFFFFF"/>
	<stop  offset="1" style="stop-color:#000000"/>
</radialGradient>
<path opacity="0.1" fill="url(#SVGF_SVGID_8_)" d="M424.735,866.711c0,0,23.62,26.181,36.09,26.181c12.47,0,19.27-3.399,19.27-3.399
	s-6.799-19.288-17.003-28.348c-10.205-9.063-19.921-16.706-19.921-16.706L424.735,866.711z"/>
<linearGradient id="SVGF_SVGID_9_" gradientUnits="userSpaceOnUse" x1="374.6308" y1="302.5626" x2="391.9619" y2="302.5626">
	<stop  offset="0" style="stop-color:#FFFFFF"/>
	<stop  offset="1" style="stop-color:#000000"/>
</linearGradient>
<path opacity="0.05" fill="url(#SVGF_SVGID_9_)" d="M374.678,383.886c0,0,3.395-58.944,3.395-81.619c0-22.676-1.131-91.825-1.131-91.825
	s5.671,90.691,7.938,105.427c2.264,14.737,7.081,78.814,7.081,78.814l-14.513-30.52C374.04,361.887,374.678,383.886,374.678,383.886
	z"/>
<radialGradient id="SVGF_SVGID_10_" cx="164.174" cy="706.6597" r="93.4499" gradientUnits="userSpaceOnUse">
	<stop  offset="0" style="stop-color:#FFFFFF"/>
	<stop  offset="1" style="stop-color:#000000"/>
</radialGradient>
<path opacity="0.08" fill="url(#SVGF_SVGID_10_)" d="M149.072,792.007c0,0,5.664-45.363,1.134-56.69
	c-4.532-11.327-4.532-47.606-4.532-47.606s-12.47,31.737-10.207,41.941C137.733,739.857,149.072,792.007,149.072,792.007z"/>
<radialGradient id="SVGF_SVGID_11_" cx="190.7461" cy="893.7071" r="174.0795" gradientUnits="userSpaceOnUse">
	<stop  offset="0" style="stop-color:#FFFFFF"/>
	<stop  offset="1" style="stop-color:#000000"/>
</radialGradient>
<path opacity="0.1" fill="url(#SVGF_SVGID_11_)" d="M153.614,891.769c0,0,36.267,39.678,65.74,40.812
	c29.484,1.133,56.69-19.278,56.69-19.278l-2.277-23.809c0,0,2.499,35.146-45.341,35.146
	C186.483,924.64,153.614,891.769,153.614,891.769z"/>
<radialGradient id="SVGF_SVGID_12_" cx="223.943" cy="839.478" r="164.8344" gradientUnits="userSpaceOnUse">
	<stop  offset="0" style="stop-color:#FFFFFF"/>
	<stop  offset="1" style="stop-color:#000000"/>
</radialGradient>
<path opacity="0.12" fill="url(#SVGF_SVGID_12_)" d="M288.512,854.358c0,0-24.94-29.471-36.277-22.677
	c-11.338,6.798-2.267,28.332-22.677,31.738c-20.399,3.41-41.941,14.735-41.941,14.735s34.012,20.411,47.616,19.281
	c13.605-1.134,21.532-20.401,29.473-17.003C272.644,883.828,288.512,854.358,288.512,854.358z"/>
<linearGradient id="SVGF_SVGID_13_" gradientUnits="userSpaceOnUse" x1="273.3882" y1="136.5661" x2="59.8066" y2="119.9695">
	<stop  offset="0" style="stop-color:#FFFFFF"/>
	<stop  offset="1" style="stop-color:#000000"/>
</linearGradient>
<path opacity="0.12" fill="url(#SVGF_SVGID_13_)" d="M174.046,129.499l-9.571,51.725c0,0,32.213-46.739,48.083-50.137
	c15.868-3.4,44.208-27.207,44.208-27.207s-27.207,1.122-45.341-6.806c-18.133-7.929-23.248-20.251-23.248-20.251L174.046,129.499z"
	/>
<linearGradient id="SVGF_SVGID_14_" gradientUnits="userSpaceOnUse" x1="386.824" y1="87.2435" x2="594.9047" y2="161.3991">
	<stop  offset="0" style="stop-color:#FFFFFF"/>
	<stop  offset="1" style="stop-color:#000000"/>
</linearGradient>
<path opacity="0.04" fill="url(#SVGF_SVGID_14_)" d="M458.56,135.619c0,0,44.211,6.806,68.015-4.531
	c23.811-11.339,45.174-15.711,45.174-15.711l-10.535-25.385c0,0-8.564,13.878-21.034,18.421
	c-12.471,4.54-57.813,19.275-68.017,19.275c-10.202,0-75.954,5.676-91.825,0c-15.868-5.673-49.881-1.132-49.881-1.132
	s86.161,9.063,97.487,9.063C439.291,135.619,458.56,135.619,458.56,135.619z"/>
<g opacity="0.5">
	<g>
		<image overflow="visible" width="420" height="66" xlink:href="/content/images/70126555.png"  transform="matrix(1 0 0 1 165.0166 69.4444)">
		</image>
		<g>
			<g>
				<g>
					<path fill="#4C4441" d="M366.015,116.88l-0.001-1.584l1.583-0.004l0.004,1.584L366.015,116.88z M364.428,116.878l-1.584-0.005
						l0.006-1.584l1.584,0.006L364.428,116.878z M369.189,116.866l-0.012-1.584l1.582-0.014l0.018,1.583L369.189,116.866z
						 M361.258,116.864l-1.584-0.015l0.018-1.584l1.578,0.016L361.258,116.864z M372.492,116.829l-0.157-1.582l1.54-0.023
						l0.072,1.582L372.492,116.829z M358.095,116.827l-1.582-0.025l0.028-1.583l1.576,0.024L358.095,116.827z M375.533,116.779
						l-0.026-1.584l1.582-0.03l0.03,1.584L375.533,116.779z M354.928,116.773l-1.588-0.034l0.037-1.584l1.581,0.034L354.928,116.773
						z M378.704,116.715l-0.034-1.584l1.441-0.033l0.16,0.788l0.019,0.792L378.704,116.715z M351.757,116.699l-1.587-0.043
						l0.047-1.584l1.579,0.043L351.757,116.699z M381.965,116.637l-0.131-1.582l1.583-0.043l0.043,1.584L381.965,116.637z
						 M348.584,116.607l-1.587-0.053l0.055-1.582l1.579,0.052L348.584,116.607z M385.047,116.553L385,114.969l1.582-0.047
						l0.049,1.582L385.047,116.553z M345.414,116.496l-1.588-0.062l0.065-1.583l1.579,0.062L345.414,116.496z M388.215,116.454
						l-0.053-1.582l1.482-0.049l0.128,0.788l0.025,0.791L388.215,116.454z M342.242,116.369l-1.585-0.071l0.074-1.582l1.581,0.07
						L342.242,116.369z M391.385,116.347l-0.055-1.582l1.474-0.053l0.138,0.786l0.03,0.791L391.385,116.347z M394.556,116.23
						l-0.063-1.583l1.469-0.057l0.147,0.786l0.03,0.792L394.556,116.23z M339.073,116.223l-1.586-0.079l0.082-1.583l1.579,0.079
						L339.073,116.223z M397.723,116.104l-0.065-1.582l1.459-0.061l0.157,0.786l0.034,0.791L397.723,116.104z M335.907,116.061
						l-1.585-0.088l0.091-1.581l1.578,0.087L335.907,116.061z M400.889,115.969l-0.07-1.582l1.583-0.07l0.072,1.582L400.889,115.969
						z M332.735,115.881l-1.581-0.097l0.098-1.581l1.581,0.096L332.735,115.881z M404.059,115.827l-0.074-1.583l1.582-0.074
						l0.074,1.583L404.059,115.827z M329.572,115.684l-1.582-0.104l0.106-1.581l1.579,0.105L329.572,115.684z M407.227,115.676
						l-0.077-1.582l1.582-0.078l0.077,1.582L407.227,115.676z M410.391,115.519l-0.079-1.583l1.582-0.081l0.081,1.582
						L410.391,115.519z M326.406,115.47l-1.582-0.113l0.115-1.579l1.579,0.113L326.406,115.47z M413.56,115.353l-0.083-1.583
						l1.581-0.084l0.087,1.581L413.56,115.353z M323.243,115.241l-1.582-0.121l0.124-1.579l1.576,0.121L323.243,115.241z
						 M416.716,115.181l-0.089-1.581l1.577-0.088l0.089,1.581L416.716,115.181z M419.871,115.002l-0.089-1.581l1.574-0.091
						l0.094,1.581L419.871,115.002z M320.08,114.994l-1.58-0.128l0.13-1.579l1.577,0.128L320.08,114.994z M423.027,114.818
						l-0.093-1.581l1.578-0.094l0.096,1.581L423.027,114.818z M316.918,114.733l-1.581-0.137l0.139-1.577l1.576,0.137
						L316.918,114.733z M426.188,114.626l-0.096-1.581l1.579-0.098l0.098,1.581L426.188,114.626z M313.758,114.456l-1.581-0.143
						l0.147-1.578l1.574,0.144L313.758,114.456z M429.353,114.43l-0.098-1.581l1.581-0.1l0.102,1.581L429.353,114.43z
						 M432.523,114.227l-0.103-1.581l1.583-0.104l0.104,1.581L432.523,114.227z M310.6,114.163l-1.579-0.152l0.153-1.576
						l1.576,0.151L310.6,114.163z M435.693,114.018l-0.106-1.581l1.588-0.107l0.106,1.581L435.693,114.018z M307.441,113.857
						l-1.578-0.159l0.161-1.576l1.574,0.159L307.441,113.857z M438.867,113.803l-0.107-1.581l1.581-0.109l0.108,1.581
						L438.867,113.803z M442.032,113.584l-0.111-1.58l1.581-0.111l0.111,1.579L442.032,113.584z M304.287,113.533l-1.576-0.166
						l0.167-1.574l1.574,0.165L304.287,113.533z M445.195,113.36l-0.113-1.579l1.581-0.114l0.115,1.579L445.195,113.36z
						 M301.133,113.196l-1.578-0.174l0.177-1.574l1.573,0.174L301.133,113.196z M448.356,113.132l-0.116-1.58l1.578-0.116
						l0.118,1.579L448.356,113.132z M451.517,112.898l-0.118-1.579l1.578-0.118l0.121,1.579L451.517,112.898z M297.98,112.844
						l-1.577-0.182l0.184-1.573l1.571,0.181L297.98,112.844z M454.679,112.66l-0.121-1.579l1.578-0.122l0.125,1.579L454.679,112.66z
						 M294.829,112.476l-1.575-0.188l0.19-1.573l1.571,0.188L294.829,112.476z M457.84,112.418l-0.125-1.579l1.579-0.123
						l0.124,1.579L457.84,112.418z M460.999,112.169l-0.126-1.579l1.578-0.125l0.127,1.579L460.999,112.169z M291.677,112.096
						l-1.573-0.197l0.198-1.571l1.571,0.196L291.677,112.096z M464.157,111.919l-0.127-1.579l1.579-0.127l0.127,1.579
						L464.157,111.919z M288.533,111.7l-1.572-0.204l0.204-1.57l1.571,0.203L288.533,111.7z M467.317,111.664l-0.13-1.579
						l1.581-0.13l0.127,1.579L467.317,111.664z M470.476,111.404l-0.13-1.58l1.577-0.13l0.131,1.579L470.476,111.404z
						 M285.387,111.289l-1.572-0.21l0.211-1.571l1.569,0.21L285.387,111.289z M473.636,111.14l-0.133-1.578l1.578-0.133l0.136,1.578
						L473.636,111.14z M476.795,110.872l-0.133-1.577l1.578-0.135l0.137,1.578L476.795,110.872z M282.243,110.866l-1.571-0.218
						l0.219-1.568l1.567,0.216L282.243,110.866z M479.952,110.601l-0.135-1.578l1.578-0.137l0.136,1.578L479.952,110.601z
						 M279.102,110.428l-1.57-0.225l0.226-1.569l1.565,0.225L279.102,110.428z M483.11,110.325l-0.138-1.577l1.581-0.139
						l0.136,1.578L483.11,110.325z M486.268,110.047l-0.142-1.578l1.581-0.14l0.138,1.577L486.268,110.047z M275.962,109.975
						l-1.57-0.231l0.233-1.567l1.564,0.23L275.962,109.975z M489.424,109.765l-0.142-1.577l1.577-0.143l0.145,1.578L489.424,109.765
						z M272.826,109.509l-1.57-0.238l0.24-1.565l1.563,0.237L272.826,109.509z M492.58,109.479l-0.142-1.577l1.577-0.144
						l0.145,1.578L492.58,109.479z M495.74,109.19l-0.145-1.577l1.577-0.147l0.146,1.577L495.74,109.19z M269.688,109.03
						l-1.568-0.246l0.248-1.564l1.563,0.244L269.688,109.03z M498.896,108.898l-0.15-1.577l1.581-0.148l0.145,1.577L498.896,108.898
						z M502.051,108.601l-0.149-1.578l1.576-0.148l0.152,1.576L502.051,108.601z M266.555,108.537l-1.566-0.252l0.254-1.564
						l1.563,0.252L266.555,108.537z M505.21,108.301l-0.152-1.577l1.578-0.15l0.152,1.576L505.21,108.301z M263.423,108.029
						l-1.564-0.259l0.26-1.562l1.562,0.258L263.423,108.029z M508.362,107.999l-0.15-1.576l1.573-0.153l0.155,1.576L508.362,107.999
						z M511.518,107.692l-0.155-1.576l1.578-0.154l0.156,1.576L511.518,107.692z M260.295,107.508l-1.563-0.266l0.266-1.561
						l1.562,0.265L260.295,107.508z M514.672,107.382l-0.154-1.576l1.574-0.155l0.159,1.576L514.672,107.382z M517.828,107.071
						l-0.159-1.576l1.577-0.157l0.157,1.576L517.828,107.071z M257.167,106.973l-1.562-0.273l0.274-1.561l1.562,0.272
						L257.167,106.973z M520.983,106.754l-0.157-1.576l1.576-0.159l0.157,1.577L520.983,106.754z M524.136,106.436l-0.161-1.576
						l1.578-0.161l0.161,1.577L524.136,106.436z M254.041,106.424l-1.561-0.279l0.282-1.559l1.557,0.279L254.041,106.424z
						 M527.291,106.113l-0.162-1.576l1.576-0.162l0.162,1.575L527.291,106.113z M250.921,105.861l-1.561-0.287l0.287-1.558
						l1.556,0.286L250.921,105.861z M530.443,105.789l-0.164-1.577l1.576-0.162l0.165,1.575L530.443,105.789z M533.598,105.458
						l-0.165-1.576l1.576-0.165l0.166,1.576L533.598,105.458z M247.802,105.285l-1.56-0.294l0.296-1.556l1.555,0.293
						L247.802,105.285z M536.75,105.127l-0.167-1.576l1.578-0.167l0.167,1.574L536.75,105.127z M539.905,104.792l-0.17-1.574
						l1.574-0.17l0.171,1.575L539.905,104.792z M244.683,104.693l-1.558-0.302l0.303-1.554l1.554,0.301L244.683,104.693z
						 M543.058,104.454l-0.171-1.575l1.576-0.17l0.172,1.574L543.058,104.454z M546.209,104.112l-0.169-1.576l1.572-0.172
						l0.176,1.575L546.209,104.112z M241.57,104.085l-1.557-0.309l0.311-1.553l1.552,0.307L241.57,104.085z M549.364,103.766
						l-0.174-1.574l1.577-0.174l0.176,1.574L549.364,103.766z M238.457,103.465l-1.556-0.317l0.319-1.552l1.551,0.316
						L238.457,103.465z M552.539,103.414l-0.174-1.574l1.552-0.173l0.174,1.575L552.539,103.414z M555.67,103.065l-0.176-1.574
						l1.487-0.167l0.179,0.776l0.089,0.788L555.67,103.065z M235.35,102.828l-1.555-0.325l0.326-1.55l1.548,0.323L235.35,102.828z
						 M558.825,102.707l-0.18-1.573l1.577-0.181l0.182,1.573L558.825,102.707z M561.984,102.343l-0.182-1.572l1.581-0.184
						l0.182,1.573L561.984,102.343z M232.243,102.174l-1.552-0.333l0.334-1.548l1.548,0.331L232.243,102.174z M565.154,101.974
						l-0.084-0.701l0.497-0.147l0.079,0.789L565.154,101.974z M229.139,101.506l-1.551-0.342l0.344-1.547l1.546,0.341
						L229.139,101.506z M565.07,101.273l-0.104-0.872l0.215-0.026c0.359-0.045,0.956-0.114,1.145,0.524L565.07,101.273z
						 M226.037,100.817l-1.548-0.352l0.353-1.544l1.545,0.351L226.037,100.817z M222.938,100.107l-1.547-0.362l0.364-1.542
						l1.542,0.363L222.938,100.107z M219.844,99.373l-1.551-0.378l0.382-1.538l1.54,0.378L219.844,99.373z M216.747,98.604
						l-1.543-0.391l0.39-1.536l1.54,0.391L216.747,98.604z M213.664,97.821l-1.541-0.393l0.39-1.535l1.54,0.391L213.664,97.821z
						 M210.583,97.037l-1.441-0.367l0.293-1.56l1.538,0.392L210.583,97.037z M207.506,96.25l-1.479-0.378l0.332-1.549l1.537,0.393
						L207.506,96.25z M204.43,95.463l-1.538-0.393l0.391-1.535l1.538,0.393L204.43,95.463z M201.354,94.677l-1.538-0.394
						l0.393-1.533l1.536,0.393L201.354,94.677z M198.277,93.889l-1.538-0.393l0.393-1.535l1.538,0.394L198.277,93.889z
						 M195.2,93.103l-1.538-0.395l0.393-1.534l1.538,0.394L195.2,93.103z M192.123,92.315l-1.537-0.394l0.391-1.535l1.541,0.394
						L192.123,92.315z M189.045,91.525l-1.54-0.395l0.393-1.534l1.54,0.394L189.045,91.525z M185.965,90.736l-1.548-0.397
						l0.393-1.534l1.549,0.397L185.965,90.736z"/>
				</g>
			</g>
		</g>
	</g>
</g>
<path fill="#C4C5C3" d="M383.379,97.987c-0.049,0.082-1.051,0.842-1.197,0.877c-0.288,0.216-0.56,0.403-0.853,0.643
	c-0.325,0.266-0.654,0.549-0.988,0.846c0,0-12.992,17.155-25.315,22.151c0,0-5.332,3-8.163,2.834c0,0,16.991-21.656,19.654-25.652
	c0,0,7.497-10.16,13.493-1.664c0,0,1.202,0.719,2.172,0.843C382.585,98.56,382.986,98.249,383.379,97.987
	c0.021-0.469-0.13-1.151-0.54-2.132c0,0-5.829-12.659-18.155-0.665l-24.15,30.646c0,0-18.155,0.167-22.818,2.831
	c0,0-14.326,5.331-7.331,17.988c0,0,6.996,9.993,17.823,3.665c0,0,5.164-3.665,14.324-19.819c0,0,8.493,1.163,21.817-7.663
	c0,0,20.489-20.155,23.488-24.319l9.493-0.332l0,0C397.33,98.188,392.001,92.691,383.379,97.987z M329.874,142.325
	c-3.666,8.493-11.991,5.664-11.991,5.664c-7.663-2.5-4.332-11.161-4.332-11.161c4.665-8.994,23.15-5.83,23.15-5.83
	C335.702,131.666,329.874,142.325,329.874,142.325z"/>
<g>
	<rect x="190.748" y="93.312" transform="matrix(0.2115 -0.9774 0.9774 0.2115 57.2387 274.7953)" width="16.372" height="17.22"/>
	<g>
		<path fill-rule="evenodd" clip-rule="evenodd" fill="#FFFFFF" d="M196.543,98.759c-1.856-0.402-3.69,0.782-4.092,2.638
			c-0.401,1.854,0.781,3.688,2.635,4.091l6.173,1.335c1.854,0.403,3.692-0.782,4.093-2.633c0.401-1.857-0.781-3.694-2.638-4.096
			L196.543,98.759z M192.815,101.475c0.356-1.657,1.993-2.711,3.651-2.353l6.171,1.336c1.655,0.357,2.711,1.997,2.352,3.65
			c-0.358,1.657-1.997,2.711-3.65,2.351l-6.174-1.336C193.51,104.766,192.456,103.129,192.815,101.475z"/>
		<g>
			<path fill="#FFFFFF" d="M193.616,101.638c0.265-1.228,1.439-2.03,2.663-1.848l-1.002,4.63
				C194.087,104.079,193.349,102.865,193.616,101.638z"/>
			<polygon fill-rule="evenodd" clip-rule="evenodd" fill="#FFFFFF" points="198.244,102.322 196.664,99.868 198.681,100.306 			"/>
			<polygon fill-rule="evenodd" clip-rule="evenodd" fill="#FFFFFF" points="198.113,102.93 195.66,104.509 197.677,104.947 			"/>
		</g>
		<g>
			<polygon fill-rule="evenodd" clip-rule="evenodd" fill="#FFFFFF" points="200.776,102.87 203.231,101.288 201.213,100.852 			"/>
			<polygon fill-rule="evenodd" clip-rule="evenodd" fill="#FFFFFF" points="200.646,103.478 202.225,105.932 200.21,105.494 			"/>
			<g>
				
					<rect x="197.069" y="102.042" transform="matrix(0.2112 -0.9775 0.9775 0.2112 56.7524 276.1186)" fill="#FFFFFF" width="4.75" height="1.712"/>
				<path fill="#FFFFFF" d="M199.445,102.898"/>
			</g>
		</g>
	</g>
</g>
  <g id="BOXLEG_RIGHT">
<rect x="187.04" y="154.18" fill="none" stroke="#000000" stroke-miterlimit="10" stroke-dasharray="1.801,0.4765" width="167.09" height="146.34"/>
</g>
  <g id="BOXLEG_LEFT">
    <rect x="406.55" y="154.18" fill="none" stroke="#000000" stroke-miterlimit="10" stroke-dasharray="1.801,0.4765" width="167.09" height="146.34"/>
</g>
  <g id="CUSTOM"></g>
</svg>
