<?xml version="1.0" encoding="utf-8"?>
<!-- Generator: Adobe Illustrator 22.1.0, SVG Export Plug-In . SVG Version: 6.00 Build 0)  -->
<svg version="1.1" id="Layer_1" xmlns="http://www.w3.org/2000/svg" xmlns:xlink="http://www.w3.org/1999/xlink" x="0px" y="0px"
	 viewBox="0 0 620 1035.881" enable-background="new 0 0 800.453 1035.881" xml:space="preserve">
<path fill="#897F76" stroke="#AFB1AF" stroke-width="0.1042" d="M557.675,76.494c0,0-127.078,22.431-177.53,22.431
	c-50.464,0-117.741-7.482-134.562-7.482c-16.821,0-59.8-3.738-59.8-3.738s-39.257,89.707-41.118,121.476
	c-1.865,31.77,0,201.827-1.865,235.47c-1.871,33.643-7.474,185.012-9.347,213.048c-1.874,28.032-11.441,107.675-5.825,126.368
	c5.606,18.696,24.51,71.72,24.51,88.539c0,16.824,1.876,54.204,11.221,57.94c9.337,3.738,21.112,18.306,21.112,23.903
	c0,5.603,10.011,21.701,10.011,21.701s23.102,8.071,50.074,7.791c15.416-0.159,45.627-9.451,45.627-9.451l12.24-26.158
	c0,0,12.312-14.058,19.782-23.396c7.477-9.336,7.477-37.381,1.876-52.329c-5.612-14.946-20.572-48.589-13.087-67.274
	c7.475-18.686,13.087-106.529,7.475-121.477c-5.61-14.948-1.863-72.875,1.863-85.96c3.749-13.084,14.948-56.074,13.084-61.673
	c-1.862-5.601,0-84.109,5.612-104.657c5.611-20.548,22.423-66.916,22.423-66.916s18.694,141.675,22.42,177.182
	c3.748,35.506,18.697,112.13,33.644,140.163c14.948,28.03,26.17,85.969,24.296,104.653c-1.875,18.686-0.618,45.605-0.618,54.956
	c0,9.345-1.675,72.114,7.672,79.588c9.338,7.473,24.715,26.166,26.58,35.514c1.871,9.348,26.167,16.822,26.167,16.822l72.885-3.736
	l1.874-28.035c0,0,37.369-22.419,37.369-31.766c0-9.348-3.735-44.845-5.609-57.928c-1.864-13.087-7.474-26.18-3.729-31.781
	c3.729-5.598,13.232-40.496,13.232-57.307c0-16.811,9.192-71.643-0.156-97.8c-9.347-26.16-24.296-113.993-24.296-134.551
	c0-20.56-3.725-177.554-3.725-199.974c0-22.423-3.738-134.563-11.223-171.932C570.76,121.348,557.675,76.494,557.675,76.494z"/>
<radialGradient id="SVGB_SVGID_1_" cx="448.9798" cy="344.7226" r="214.8648" gradientTransform="matrix(-1 0 0 1 987.5195 0)" gradientUnits="userSpaceOnUse">
	<stop  offset="0" style="stop-color:#FFFFFF"/>
	<stop  offset="1" style="stop-color:#000000"/>
</radialGradient>
<path opacity="0.06" fill="url(#SVGB_SVGID_1_)" d="M586.606,309.063c0,0-38.544,120.163-49.88,141.707
	c-11.339,21.544-28.341,61.219-28.341,61.219l12.471-1.133c0,0,29.473-49.891,43.085-82.761
	C577.534,395.224,586.606,309.063,586.606,309.063z"/>
<radialGradient id="SVGB_SVGID_2_" cx="403.5956" cy="413.3425" r="215.2777" gradientTransform="matrix(-1 0 0 1 987.5195 0)" gradientUnits="userSpaceOnUse">
	<stop  offset="0" style="stop-color:#FFFFFF"/>
	<stop  offset="1" style="stop-color:#000000"/>
</radialGradient>
<path opacity="0.08" fill="url(#SVGB_SVGID_2_)" d="M531.061,526.725c0,0,14.735-19.277,32.88-36.28
	c18.124-17.001,27.674-33.22,27.674-33.22l-0.594-23.118c0,0-21.425,40.46-29.355,49.531
	C553.736,492.712,531.061,526.725,531.061,526.725z"/>
<linearGradient id="SVGB_SVGID_3_" gradientUnits="userSpaceOnUse" x1="739.0841" y1="446.5488" x2="854.2016" y2="448.7615" gradientTransform="matrix(-1 0 0 1 987.5195 0)">
	<stop  offset="0" style="stop-color:#FFFFFF"/>
	<stop  offset="1" style="stop-color:#000000"/>
</linearGradient>
<path opacity="0.1" fill="url(#SVGB_SVGID_3_)" d="M211.369,143.547c0,0,12.48,259.606,15.867,309.487
	c3.409,49.883,5.676,177.997,3.409,201.796c-2.264,23.795-20.41,103.16-20.41,103.16s5.675-112.234,5.675-134.907
	c0-22.678-12.47-120.177-12.47-164.385c0-44.209-6.798-90.68-9.072-113.357c-2.275-22.676-22.685-61.232-28.338-70.292
	c-5.673-9.062-9.073-17.002-9.073-17.002l29.483,13.604c0,0,7.928-55.556,7.928-73.691c0-18.134,6.808-61.21,6.808-61.21
	L211.369,143.547z"/>
<linearGradient id="SVGB_SVGID_4_" gradientUnits="userSpaceOnUse" x1="781.2535" y1="515.187" x2="943.9604" y2="349.1614" gradientTransform="matrix(-1 0 0 1 987.5195 0)">
	<stop  offset="0" style="stop-color:#FFFFFF"/>
	<stop  offset="1" style="stop-color:#000000"/>
</linearGradient>
<path opacity="0.06" fill="url(#SVGB_SVGID_4_)" d="M147.882,382.753c0,0,41.943,73.69,40.822,78.222
	c-1.145,4.53-32.882-35.147-37.413-32.881c-4.542,2.263,47.608,133.777,47.608,140.573c0,6.796-5.664,11.339-5.664,11.339
	s-40.735-90.724-48.753-107.694c-2.91-6.172-1.235-55.018-1.235-55.018l0.234-44.292L147.882,382.753z"/>
<linearGradient id="SVGB_SVGID_5_" gradientUnits="userSpaceOnUse" x1="795.8226" y1="613.785" x2="926.425" y2="554.0151" gradientTransform="matrix(-1 0 0 1 987.5195 0)">
	<stop  offset="0" style="stop-color:#FFFFFF"/>
	<stop  offset="1" style="stop-color:#000000"/>
</linearGradient>
<path opacity="0.06" fill="url(#SVGB_SVGID_5_)" d="M146.749,559.596c0,0,37.412,66.881,31.748,79.354
	c-5.673,12.47-39.676-63.486-39.676-63.486L146.749,559.596z"/>
<linearGradient id="SVGB_SVGID_6_" gradientUnits="userSpaceOnUse" x1="774.9824" y1="712.6501" x2="979.7728" y2="773.5394" gradientTransform="matrix(-1 0 0 1 987.5195 0)">
	<stop  offset="0" style="stop-color:#FFFFFF"/>
	<stop  offset="1" style="stop-color:#000000"/>
</linearGradient>
<path opacity="0.12" fill="url(#SVGB_SVGID_6_)" d="M133.673,657.455l1.676-38.311c0,0,19.34,82.159,19.34,91.231
	c0,9.072,12.46,44.208,22.667,53.279c10.202,9.072,45.35,47.618,48.759,53.283c3.386,5.662-6.82,14.743-15.881,7.936
	c-9.06-6.803-21.531-4.528-40.809-37.408c-19.28-32.882-19.27-47.619-28.338-62.354c-9.073-14.737-11.963-37.73-11.963-37.73
	L133.673,657.455z"/>
<radialGradient id="SVGB_SVGID_7_" cx="683.6219" cy="745.4002" r="217.0004" gradientTransform="matrix(-1 0 0 1 987.5195 0)" gradientUnits="userSpaceOnUse">
	<stop  offset="0" style="stop-color:#FFFFFF"/>
	<stop  offset="1" style="stop-color:#000000"/>
</radialGradient>
<path opacity="0.1" fill="url(#SVGB_SVGID_7_)" d="M196.631,881.554c0,0,47.616-35.145,62.352-53.28
	c14.739-18.137,37.415-43.085,39.677-46.484c2.268-3.399,19.852-25.46,19.852-25.46s-0.911,22.484-5.993,43.583
	c-2.732,11.338-7.941,22.698-11.964,28.974c-9.651,15.095-30.233,16.4-32.5,22.061c-2.265,5.663-21.55,30.606-31.746,32.871
	C226.116,886.085,196.631,881.554,196.631,881.554z"/>
<radialGradient id="SVGB_SVGID_8_" cx="661.4816" cy="835.0544" r="122.8751" gradientTransform="matrix(-1 0 0 1 987.5195 0)" gradientUnits="userSpaceOnUse">
	<stop  offset="0" style="stop-color:#FFFFFF"/>
	<stop  offset="1" style="stop-color:#000000"/>
</radialGradient>
<path opacity="0.1" fill="url(#SVGB_SVGID_8_)" d="M321.15,866.711c0,0-23.62,26.181-36.09,26.181c-12.47,0-19.27-3.399-19.27-3.399
	s6.799-19.288,17.003-28.348c10.205-9.063,19.922-16.706,19.922-16.706L321.15,866.711z"/>
<linearGradient id="SVGB_SVGID_9_" gradientUnits="userSpaceOnUse" x1="616.2658" y1="302.5626" x2="633.5969" y2="302.5626" gradientTransform="matrix(-1 0 0 1 987.5195 0)">
	<stop  offset="0" style="stop-color:#FFFFFF"/>
	<stop  offset="1" style="stop-color:#000000"/>
</linearGradient>
<path opacity="0.05" fill="url(#SVGB_SVGID_9_)" d="M371.206,383.886c0,0-3.395-58.944-3.395-81.619c0-22.676,1.131-91.825,1.131-91.825
	s-5.671,90.691-7.938,105.427c-2.264,14.737-7.081,78.814-7.081,78.814l14.513-30.52
	C371.844,361.887,371.206,383.886,371.206,383.886z"/>
<radialGradient id="SVGB_SVGID_10_" cx="405.8082" cy="706.6597" r="93.4498" gradientTransform="matrix(-1 0 0 1 987.5195 0)" gradientUnits="userSpaceOnUse">
	<stop  offset="0" style="stop-color:#FFFFFF"/>
	<stop  offset="1" style="stop-color:#000000"/>
</radialGradient>
<path opacity="0.08" fill="url(#SVGB_SVGID_10_)" d="M596.812,792.007c0,0-5.663-45.363-1.134-56.69
	c4.532-11.327,4.532-47.606,4.532-47.606s12.47,31.737,10.206,41.941C608.151,739.857,596.812,792.007,596.812,792.007z"/>
<radialGradient id="SVGB_SVGID_11_" cx="432.3812" cy="893.7071" r="174.0793" gradientTransform="matrix(-1 0 0 1 987.5195 0)" gradientUnits="userSpaceOnUse">
	<stop  offset="0" style="stop-color:#FFFFFF"/>
	<stop  offset="1" style="stop-color:#000000"/>
</radialGradient>
<path opacity="0.1" fill="url(#SVGB_SVGID_11_)" d="M592.27,891.769c0,0-36.268,39.678-65.739,40.812
	c-29.485,1.133-56.69-19.278-56.69-19.278l2.277-23.809c0,0-2.498,35.146,45.341,35.146
	C559.401,924.64,592.27,891.769,592.27,891.769z"/>
<radialGradient id="SVGB_SVGID_12_" cx="465.5776" cy="839.478" r="164.835" gradientTransform="matrix(-1 0 0 1 987.5195 0)" gradientUnits="userSpaceOnUse">
	<stop  offset="0" style="stop-color:#FFFFFF"/>
	<stop  offset="1" style="stop-color:#000000"/>
</radialGradient>
<path opacity="0.12" fill="url(#SVGB_SVGID_12_)" d="M457.372,854.358c0,0,24.94-29.471,36.276-22.677
	c11.339,6.798,2.268,28.332,22.677,31.738c20.4,3.41,41.942,14.735,41.942,14.735s-34.014,20.411-47.616,19.281
	c-13.605-1.134-21.532-20.401-29.473-17.003C473.24,883.828,457.372,854.358,457.372,854.358z"/>
<linearGradient id="SVGB_SVGID_13_" gradientUnits="userSpaceOnUse" x1="515.0231" y1="136.5661" x2="301.4416" y2="119.9695" gradientTransform="matrix(-1 0 0 1 987.5195 0)">
	<stop  offset="0" style="stop-color:#FFFFFF"/>
	<stop  offset="1" style="stop-color:#000000"/>
</linearGradient>
<path opacity="0.12" fill="url(#SVGB_SVGID_13_)" d="M571.839,129.499l9.57,51.725c0,0-32.213-46.739-48.082-50.137
	c-15.869-3.4-44.209-27.207-44.209-27.207s27.207,1.122,45.341-6.806c18.132-7.929,23.248-20.251,23.248-20.251L571.839,129.499z"/>
<linearGradient id="SVGB_SVGID_14_" gradientUnits="userSpaceOnUse" x1="628.4591" y1="87.2435" x2="836.5399" y2="161.3991" gradientTransform="matrix(-1 0 0 1 987.5195 0)">
	<stop  offset="0" style="stop-color:#FFFFFF"/>
	<stop  offset="1" style="stop-color:#000000"/>
</linearGradient>
<path opacity="0.04" fill="url(#SVGB_SVGID_14_)" d="M287.325,135.619c0,0-44.211,6.806-68.015-4.531
	c-23.811-11.339-45.174-15.711-45.174-15.711l10.535-25.385c0,0,8.564,13.878,21.034,18.421
	c12.471,4.54,57.813,19.275,68.017,19.275c10.202,0,75.954,5.676,91.825,0c15.868-5.673,49.881-1.132,49.881-1.132
	s-86.161,9.063-97.487,9.063C306.593,135.619,287.325,135.619,287.325,135.619z"/>
<g opacity="0.5">
	<g>
		<image overflow="visible" width="420" height="66" xlink:href="/content/images/94B11759.png"  transform="matrix(1 0 0 1 161.0166 69.4444)">
		</image>
		<g>
			<g>
				<g>
					<path fill="#4C4441" d="M378.284,116.876l0.004-1.584l1.583,0.004l-0.001,1.584L378.284,116.876z M381.452,115.295l1.583-0.006
						l0.006,1.584l-1.584,0.005L381.452,115.295z M375.108,116.851l0.019-1.583l1.581,0.014l-0.011,1.584L375.108,116.851z
						 M384.614,115.28l1.578-0.016l0.019,1.584l-1.584,0.015L384.614,115.28z M371.938,116.807l0.072-1.582l1.54,0.023l-0.157,1.582
						L371.938,116.807z M387.768,115.243l1.577-0.024l0.028,1.583l-1.583,0.025L387.768,115.243z M368.766,116.749l0.03-1.584
						l1.582,0.03l-0.026,1.584L368.766,116.749z M390.925,115.189l1.582-0.034l0.036,1.584l-1.588,0.034L390.925,115.189z
						 M365.595,116.679l0.019-0.792l0.16-0.788l1.441,0.033l-0.034,1.584L365.595,116.679z M394.089,115.115l1.579-0.043
						l0.047,1.584l-1.588,0.043L394.089,115.115z M362.425,116.597l0.043-1.584l1.583,0.043l-0.131,1.582L362.425,116.597z
						 M397.253,115.023l1.578-0.052l0.055,1.582l-1.586,0.053L397.253,115.023z M359.253,116.504l0.049-1.582l1.582,0.047
						l-0.047,1.584L359.253,116.504z M400.414,114.914l1.578-0.062l0.065,1.583l-1.588,0.062L400.414,114.914z M356.086,116.402
						l0.025-0.791l0.128-0.788l1.482,0.049l-0.053,1.582L356.086,116.402z M403.573,114.786l1.581-0.07l0.073,1.582l-1.584,0.071
						L403.573,114.786z M352.912,116.289l0.03-0.791l0.138-0.786l1.474,0.053l-0.055,1.582L352.912,116.289z M349.746,116.168
						l0.03-0.792l0.147-0.786l1.469,0.057l-0.063,1.583L349.746,116.168z M406.735,114.641l1.579-0.079l0.083,1.583l-1.586,0.079
						L406.735,114.641z M346.577,116.037l0.034-0.791l0.157-0.786l1.459,0.061l-0.065,1.582L346.577,116.037z M409.894,114.479
						l1.578-0.087l0.091,1.581l-1.584,0.088L409.894,114.479z M343.411,115.899l0.072-1.582l1.583,0.07l-0.07,1.582L343.411,115.899
						z M413.052,114.3l1.581-0.096l0.098,1.581l-1.581,0.097L413.052,114.3z M340.243,115.753l0.074-1.583l1.582,0.074l-0.074,1.583
						L340.243,115.753z M416.21,114.103l1.578-0.105l0.106,1.581l-1.582,0.104L416.21,114.103z M337.076,115.598l0.077-1.582
						l1.582,0.078l-0.077,1.582L337.076,115.598z M333.911,115.437l0.081-1.582l1.582,0.081l-0.079,1.583L333.911,115.437z
						 M419.366,113.891l1.579-0.113l0.114,1.579l-1.582,0.113L419.366,113.891z M330.741,115.267l0.087-1.581l1.581,0.084
						l-0.083,1.583L330.741,115.267z M422.525,113.662l1.576-0.121l0.123,1.579l-1.583,0.121L422.525,113.662z M327.592,115.092
						l0.089-1.581l1.577,0.088l-0.089,1.581L327.592,115.092z M324.434,114.911l0.094-1.581l1.574,0.091l-0.089,1.581
						L324.434,114.911z M425.679,113.416l1.576-0.128l0.131,1.579l-1.581,0.128L425.679,113.416z M321.277,114.723l0.096-1.581
						l1.578,0.094l-0.093,1.581L321.277,114.723z M428.831,113.156l1.577-0.137l0.138,1.577l-1.581,0.137L428.831,113.156z
						 M318.114,114.529l0.098-1.581l1.579,0.098l-0.096,1.581L318.114,114.529z M431.986,112.879l1.573-0.144l0.147,1.578
						l-1.581,0.143L431.986,112.879z M314.947,114.33l0.102-1.581l1.581,0.1l-0.098,1.581L314.947,114.33z M311.777,114.123
						l0.105-1.581l1.583,0.104l-0.103,1.581L311.777,114.123z M435.135,112.587l1.576-0.151l0.154,1.576l-1.579,0.152
						L435.135,112.587z M308.603,113.911l0.106-1.581l1.588,0.107l-0.106,1.581L308.603,113.911z M438.286,112.28l1.574-0.159
						l0.161,1.576l-1.578,0.159L438.286,112.28z M305.435,113.695l0.108-1.581l1.581,0.109l-0.107,1.581L305.435,113.695z
						 M302.272,113.472l0.111-1.579l1.581,0.111l-0.111,1.58L302.272,113.472z M441.434,111.958l1.574-0.165l0.166,1.574
						l-1.576,0.166L441.434,111.958z M299.108,113.246l0.114-1.579l1.581,0.114l-0.113,1.579L299.108,113.246z M444.58,111.622
						l1.572-0.174l0.177,1.574l-1.577,0.174L444.58,111.622z M295.948,113.014l0.118-1.579l1.578,0.116l-0.116,1.58L295.948,113.014
						z M292.787,112.779l0.121-1.579l1.578,0.118l-0.118,1.579L292.787,112.779z M447.726,111.27l1.571-0.181l0.185,1.573
						l-1.578,0.182L447.726,111.27z M289.624,112.538l0.125-1.579l1.578,0.122l-0.121,1.579L289.624,112.538z M450.87,110.903
						l1.572-0.188l0.189,1.573l-1.574,0.188L450.87,110.903z M286.465,112.295l0.125-1.579l1.579,0.123l-0.125,1.579
						L286.465,112.295z M283.307,112.045l0.127-1.579l1.578,0.125l-0.126,1.579L283.307,112.045z M454.011,110.524l1.57-0.196
						l0.198,1.571l-1.572,0.197L454.011,110.524z M280.148,111.792l0.127-1.579l1.579,0.127l-0.127,1.579L280.148,111.792z
						 M457.151,110.129l1.571-0.203l0.204,1.57l-1.573,0.204L457.151,110.129z M276.989,111.534l0.127-1.579l1.581,0.13l-0.13,1.579
						L276.989,111.534z M273.83,111.273l0.131-1.579l1.577,0.13l-0.13,1.58L273.83,111.273z M460.289,109.719l1.568-0.21
						l0.211,1.571l-1.57,0.21L460.289,109.719z M270.668,111.006l0.136-1.578l1.578,0.133l-0.133,1.578L270.668,111.006z
						 M267.508,110.738l0.137-1.578l1.578,0.135l-0.134,1.577L267.508,110.738z M463.425,109.296l1.568-0.216l0.219,1.568
						l-1.571,0.218L463.425,109.296z M264.353,110.464l0.136-1.578l1.578,0.137l-0.135,1.578L264.353,110.464z M466.561,108.859
						l1.566-0.225l0.227,1.569l-1.571,0.225L466.561,108.859z M261.197,110.187l0.136-1.578l1.581,0.139l-0.139,1.577
						L261.197,110.187z M258.039,109.906l0.139-1.577l1.581,0.14l-0.142,1.578L258.039,109.906z M469.695,108.408l1.564-0.23
						l0.233,1.567l-1.57,0.231L469.695,108.408z M254.882,109.623l0.145-1.578l1.577,0.143l-0.142,1.577L254.882,109.623z
						 M472.825,107.943l1.563-0.237l0.24,1.565l-1.57,0.238L472.825,107.943z M251.725,109.335l0.145-1.578l1.577,0.144
						l-0.142,1.577L251.725,109.335z M248.567,109.044l0.146-1.577l1.577,0.147l-0.145,1.577L248.567,109.044z M475.953,107.465
						l1.563-0.244l0.248,1.564l-1.568,0.246L475.953,107.465z M245.413,108.749l0.145-1.577l1.581,0.148l-0.15,1.577
						L245.413,108.749z M242.254,108.451l0.152-1.576l1.576,0.148l-0.148,1.578L242.254,108.451z M479.079,106.973l1.563-0.252
						l0.253,1.564l-1.566,0.252L479.079,106.973z M239.097,108.15l0.152-1.576l1.578,0.15l-0.152,1.577L239.097,108.15z
						 M482.204,106.466l1.561-0.258l0.26,1.562l-1.564,0.259L482.204,106.466z M235.944,107.845l0.155-1.576l1.573,0.153
						l-0.15,1.576L235.944,107.845z M232.787,107.537l0.156-1.576l1.578,0.154l-0.155,1.576L232.787,107.537z M485.325,105.946
						l1.562-0.265l0.266,1.561l-1.563,0.266L485.325,105.946z M229.633,107.226l0.159-1.576l1.574,0.155l-0.153,1.576
						L229.633,107.226z M226.481,106.913l0.157-1.576l1.577,0.157l-0.159,1.576L226.481,106.913z M488.443,105.412l1.563-0.272
						l0.273,1.561l-1.562,0.273L488.443,105.412z M223.326,106.596l0.157-1.577l1.576,0.159l-0.157,1.576L223.326,106.596z
						 M220.171,106.275l0.161-1.577l1.578,0.161l-0.161,1.576L220.171,106.275z M491.565,104.864l1.558-0.279l0.282,1.559
						l-1.56,0.279L491.565,104.864z M217.018,105.95l0.162-1.575l1.576,0.162l-0.162,1.576L217.018,105.95z M494.681,104.302
						l1.555-0.286l0.288,1.558l-1.562,0.287L494.681,104.302z M213.864,105.625l0.165-1.575l1.576,0.162l-0.164,1.577
						L213.864,105.625z M210.71,105.293l0.166-1.576l1.576,0.165l-0.165,1.576L210.71,105.293z M497.793,103.727l1.554-0.293
						l0.297,1.556l-1.56,0.294L497.793,103.727z M207.556,104.959l0.167-1.574l1.578,0.167l-0.167,1.576L207.556,104.959z
						 M204.403,104.623l0.171-1.575l1.574,0.17l-0.17,1.574L204.403,104.623z M500.902,103.138l1.553-0.301l0.305,1.554
						l-1.558,0.302L500.902,103.138z M201.25,104.283l0.172-1.574l1.576,0.17l-0.171,1.575L201.25,104.283z M198.096,103.939
						l0.176-1.575l1.572,0.172l-0.169,1.576L198.096,103.939z M504.009,102.531l1.552-0.307l0.311,1.553l-1.557,0.309
						L504.009,102.531z M194.941,103.593l0.176-1.574l1.577,0.174l-0.174,1.574L194.941,103.593z M507.114,101.912l1.55-0.316
						l0.32,1.552l-1.557,0.317L507.114,101.912z M191.794,103.242l0.174-1.575l1.552,0.173l-0.174,1.574L191.794,103.242z
						 M188.635,102.887l0.089-0.788l0.179-0.776l1.488,0.167l-0.176,1.574L188.635,102.887z M510.215,101.277l1.548-0.323
						l0.327,1.55l-1.555,0.325L510.215,101.277z M185.48,102.526l0.182-1.573l1.577,0.181l-0.18,1.573L185.48,102.526z
						 M182.32,102.16l0.182-1.573l1.581,0.184l-0.182,1.572L182.32,102.16z M513.312,100.624l1.549-0.331l0.332,1.548l-1.552,0.333
						L513.312,100.624z M180.238,101.915l0.079-0.789l0.497,0.147l-0.084,0.701L180.238,101.915z M516.406,99.958l1.545-0.341
						l0.345,1.547l-1.55,0.342L516.406,99.958z M179.559,100.9c0.189-0.638,0.786-0.569,1.145-0.524l0.215,0.026l-0.104,0.872
						L179.559,100.9z M519.497,99.272l1.545-0.351l0.352,1.544l-1.548,0.352L519.497,99.272z M522.588,98.565l1.54-0.363
						l0.365,1.542l-1.548,0.362L522.588,98.565z M525.669,97.835l1.54-0.378l0.383,1.538l-1.552,0.378L525.669,97.835z
						 M528.75,97.068l1.54-0.391l0.39,1.536l-1.543,0.391L528.75,97.068z M531.83,96.285l1.54-0.391l0.39,1.535l-1.54,0.393
						L531.83,96.285z M534.911,95.501l1.538-0.392l0.293,1.56l-1.441,0.367L534.911,95.501z M537.989,94.715l1.535-0.393
						l0.332,1.549l-1.479,0.378L537.989,94.715z M541.064,93.929l1.538-0.393l0.391,1.535l-1.538,0.393L541.064,93.929z
						 M544.139,93.142l1.537-0.393l0.393,1.533l-1.538,0.394L544.139,93.142z M547.214,92.355l1.538-0.394l0.394,1.535l-1.539,0.393
						L547.214,92.355z M550.291,91.568l1.539-0.394l0.393,1.534l-1.538,0.395L550.291,91.568z M553.366,90.78l1.542-0.394
						l0.39,1.535l-1.537,0.394L553.366,90.78z M556.446,89.991l1.54-0.394l0.393,1.534l-1.54,0.395L556.446,89.991z M559.527,89.201
						l1.549-0.397l0.393,1.534l-1.549,0.397L559.527,89.201z"/>
				</g>
			</g>
		</g>
	</g>
</g>
  <g id="BOXLEG_RIGHT">
<rect x="400.482" y="154.18" fill="none" stroke="#000000" stroke-miterlimit="10" stroke-dasharray="1.801,0.4765" width="167.09" height="146.34"/>
</g>
  <g id="BOXLEG_LEFT">
  <rect x="180.972" y="154.18" fill="none" stroke="#000000" stroke-miterlimit="10" stroke-dasharray="1.801,0.4765" width="167.09" height="146.34"/>
</g>
  <g id="CUSTOM"></g>
</svg>
