<?xml version="1.0" encoding="utf-8"?>
<!-- Generator: Adobe Illustrator 18.1.1, SVG Export Plug-In . SVG Version: 6.00 Build 0)  -->
<!DOCTYPE svg PUBLIC "-//W3C//DTD SVG 1.1//EN" "http://www.w3.org/Graphics/SVG/1.1/DTD/svg11.dtd">
<svg version="1.1" xmlns="http://www.w3.org/2000/svg" xmlns:xlink="http://www.w3.org/1999/xlink" x="0px" y="0px"
	 viewBox="0 0 100 100" enable-background="new 0 0 100 100" xml:space="preserve">
<g id="AREA_1">
	<g>
		<path d="M39.7,3.7c0.7,0.4-3,3.3-2.9,8.7c7.3,0.9,4.3,18,0.8,20.6c-2.4,1.9-4.8-0.3-6.2-2.2c-2.4-3.3-6.9-13.5-0.6-17.6
			c0.1-2.6,1.5-5.2,4.5-7.9C37.3,3.4,38.4,2.6,39.7,3.7z"/>
		<path d="M53.3,30c-1.5,0.7-5.3-0.5-5.3-0.5c-3.3-1.8-8.4-11.5-4.6-16.5c1-1.5,2.7-1.8,2.7-3.9c-0.4-3.4-2.8-4.8-2.4-5.5
			c1.2-2.5,9.4,1.8,9.3,8.2C57,15.3,57.5,26.9,53.3,30z"/>
		<path d="M67.7,14c4.6,4.8,6.3,10.2,4.2,16.5c0,0-1.6,4.5-8.6,0.3c-0.9-0.7-2-2.9-2.3-6c-3.9-4.1-4.4-7.7,0.5-10.6
			c0.9-2.9-1.1-6.3-3-8.3c-0.1-0.6,0.1-1,0.8-1.2C63.9,4.5,67.4,8.4,67.7,14z"/>
		<path d="M75.7,8.7c4.5,1.4,5.2,2.9,6.6,7.5c0.8,0.2,1.5,0.6,2,1.1c1.4,1.3,1.4,5.2,1.4,6.9c0,4.4-3.1,11-4,12.3
			c-1.2,1.5-3.5,0.6-4.9-0.6c-3.1-3.4-1.3-9.3-2.6-11.5c-2.5-2.9-0.5-6.7,1.5-7.8c1.5-1.2,0.8-3.4-1.9-6.2C72.5,9,73,8.1,75.7,8.7z"
			/>
		<path d="M20.5,22c0.3,0.8,2.3,0.4,3.3,1.2c2.9,1.5,2.8,5.1,4.1,7.9c3.9,8,2,12-1.6,12.7c-5.6,1.1-15.2-5.7-14-17.6
			c0.1-1.3,1.2-1.9,1.9-4.2c1.2-4.1,4.2-8.6,6.6-8.6c0.6,0,1.1,1.2,1.2,1.7C22,15.8,20.4,19.8,20.5,22z"/>
		<path d="M78.5,38.7c9.5,6.8,6.8,16.2,1.8,26C70.3,80,71.7,87,66.7,90.4c-6,4.8-7.9,7.4-18.1,7.5l-0.1-0.2
			c-4.3,0.2-7.3-1.9-9.4-5.8c-2.2-4.2,0.8-10.9-3.9-24.5c-1.8-5.3-8.5-11.7-6.7-18c2.1-8.9,7.6-14.9,16.5-18
			C54.7,28,74.3,35.7,78.5,38.7z"/>
	</g>
</g>
</svg>
