<?xml version="1.0" encoding="utf-8"?>
<!-- Generator: Adobe Illustrator 18.1.1, SVG Export Plug-In . SVG Version: 6.00 Build 0)  -->
<!DOCTYPE svg PUBLIC "-//W3C//DTD SVG 1.1//EN" "http://www.w3.org/Graphics/SVG/1.1/DTD/svg11.dtd">
<svg version="1.1" xmlns="http://www.w3.org/2000/svg" xmlns:xlink="http://www.w3.org/1999/xlink" x="0px" y="0px"
	 viewBox="0 0 100 100" enable-background="new 0 0 100 100" xml:space="preserve">

<g id="AREA_1">
	<g>
		<path d="M91.7,24.3l-1.6,1.8c0.3,0.3,0.6,0.6,1,0.7c1.4-0.2,2.4-1.4,3.7-1.9c-1.7,2.1-3.2,4.5-5.4,6.1c-1.2,0.7-2.9,0.6-3.9,1.7
			c1.8,1.9,4.1,1.1,6.2,0.4c-0.5,1.2-1.3,2.6-2.5,3.2c-1,0.5-2.2,0.9-2.9,2c0.3,0.8,1.3,0.6,2,0.8c0.7,0,1.5-0.3,2.1-0.9
			c-0.9,2-2.9,3.7-4.9,4.3c-0.4,0.1-0.8,0.4-1,0.7c-0.3,0.6,0.2,0.9,0.4,1.3c0.6,0.5,1.3,0,1.9-0.3c-0.6,2-2.1,4.2-4.2,4.7l-0.9,0.3
			c-1.5,7.2-5.1,14.3-12,18.1c-4.3,2.3-8.7,4.3-12.7,7.1c-4.4,3-8.9,6-13,9.6c-1.5,1.2-2.1,2.8-2.4,4.5c-4.2-3.5-8.6-7.5-9.1-12.9
			c-0.2-1.8,0.2-4-1.5-5.1c-6.5-1.7-12.8-4.1-18.9-6.7c-3.2-1.5-6-3.9-8.9-6.2c4.3-6.9,9.9-13.9,17.1-18.2c0.4-0.4,1-0.5,1.4-1
			c0-7.4,2.5-14.4,9.2-18.4c7.6-4.5,17.5-4.5,26.5-4.4c11.4,0.4,21.8,1.5,33.3,0.8c2.7-0.2,5.3-0.9,7.5-2.3
			C97.6,18.1,94.7,21.4,91.7,24.3z"/>
	</g>
</g>
</svg>
