<?xml version="1.0" encoding="utf-8"?>
<!-- Generator: Adobe Illustrator 18.1.1, SVG Export Plug-In . SVG Version: 6.00 Build 0)  -->
<!DOCTYPE svg PUBLIC "-//W3C//DTD SVG 1.1//EN" "http://www.w3.org/Graphics/SVG/1.1/DTD/svg11.dtd">
<svg version="1.1" xmlns="http://www.w3.org/2000/svg" xmlns:xlink="http://www.w3.org/1999/xlink" x="0px" y="0px"
	 viewBox="0 0 100 100" enable-background="new 0 0 100 100" xml:space="preserve">

<g id="AREA_1">
	<g>
		<g>
			<path d="M87.3,41.2c1.6-1.7,1.8-4.3,1-6.4c-1.5-2.7-2.5-5.6-4.5-7.9c-0.1-1.8-0.6-3.6-2-4.8c-2.2-2.9-3.4-6.7-7.1-8.4l-0.7-2.2
				c-0.9-2.3-3.5-2-5.6-2.1c-1.1-1.5-2.3-3.1-4-4.1c-2.3-1.1-4.3-2.8-7-2.8c-1.8,0.3-2.8,1.9-3.5,3.4c-0.6,0.4-1.4,0.7-2.1,0.4
				c-0.7-0.3-1-1-1.3-1.5l-2.3,1.4C47.5,5.7,47,5.2,46.4,5c-0.7-0.2-1.4,0.1-1.9,0.4c-1.6,1.1-3.6,0.1-5.2-0.5c-1-0.4-2-1.1-2.9-1.4
				l3.1,5.6v0.2l-1.4-0.7c-1.9-0.8-3.5,0.7-5.4,0.5c-1.5-1-1.3-2.9-1.7-4.5c-0.9,1.2-0.8,3-0.7,4.5c-1.6,0.1-3.4,0-4.8,0.6
				c-1.1,0.6-1.2,1.8-1.4,2.7c1-1.9,3-2.1,4.9-2c-0.1,1.1-0.7,2.1-1,3.2c-2.9,0.9-5.3,2.9-7.6,4.8L19,17.6c-1.7-0.9-3.4,0.4-4.6,1.2
				l1.1-0.5c1.3-0.4,2.5,0.2,3.4,0.8c-1.5,0.7-2.5,2.2-2.9,3.7c1.1-0.7,2.2-1.7,3.4-2.1c1.1-0.5,2.3,0,3.1,0.7
				c-1.9,0.8-3.9,1.6-5.3,3.4c-2.3,3.1-4.7,7.2-2.7,11.1c-0.3,1.3-0.4,2.7-0.3,4.1l-0.1,0.2c-1.8,0.5-3.4,1.8-4.5,3.4
				c1.2-0.6,2.4-1.2,3.6-1.6L12,45.9c1-1.6,2.7-3.6,4.9-3.3c-0.9,1.1-1.4,2.3-1.6,3.7c-0.1,1.6-1.8,2.4-3,3l0.7,3.5
				c0.1-0.6,0.5-1.1,0.8-1.6c0.8-1,2.1-0.9,3.3-0.7c-0.7,0.6-1.7,1-2.1,1.9c-0.6,2.3-2.3,4.3-4.3,5.6c0.4,0.1,0.9,0.2,1.2,0.4
				c-1.1,2-0.6,4.7,0.4,6.5l0.7-2.5c0.9,0,1.8,0.1,2.6,0.3c0,1.4-0.2,3,0.1,4.2c0.7,2.6-0.5,4.6-1.4,6.7c0.7-0.6,1.2-1.3,1.9-1.6
				l0,1.3c-0.1,1.6,1.2,2.5,2.4,3.2l1.4-2.9c1.5-2.8,4.4-5.4,7.9-5c2.6,3.1,8.2,4.7,7.1,9.7c1,2-0.2,4.5,0.3,6.6
				c0.3,2.6,1.6,5.4,4.2,6.5v1.2l9.4,4.7c-1.1-2.8-2.3-5.6-3-8.5l1.6-0.8l8.6,3.4l-1.2-5.1v-0.6c2.2,1.4,4.4,3.3,6.6,4.8l0.3,0.1
				c-0.5-2.8-4.7-2.8-4.2-6c0.1-0.6,0.7-0.9,1.2-1c1.7-0.3,3,1,3.8,2.1c1.7,2.3,0.9,5.8,0.6,8.3c1.3,0.9,2.7,1.8,4.2,1.7
				c2.9-0.4,4.9-3.6,5.8-6.1l-2.8-1.6c-3.2-2.1-3.4-5.9-4.9-9c-0.2-0.7-0.2-1.6,0.1-2.3l0.3-0.4l0.7-0.8c0.6-1.5,1.6,0.2,2.4,0.3
				c3.2,1.8,2.5,5.7,2.6,9.1l1.2-2.3c0.5,1.8,0.4,3.9,0.7,5.8c1.2-0.6,2.3-1.4,3.4-1.9c-0.2,3.6,1.3,6.6,3.7,9.1
				c0.8-1.2,1.4-2.6,2.2-3.9c1,0.6,2.1,1.4,3,1.9c-0.6-4.3-1.4-8.6-1.6-12.6c-0.4-8.5,0.9-17.3-0.6-25.5c1.9-2,2.8-4.6,4.1-7
				c0.9-2.4-0.4-4.6-1.3-6.6C86.7,41.9,86.9,41.5,87.3,41.2z M84.4,28.9L84.3,30c-1.4,0-2.6-0.4-4-0.3l-1.7-2.3l0.2,0
				C80.7,27.8,83.5,26.5,84.4,28.9z M76.6,38.2c-0.3-0.9-0.7-1.8-1-2.7c0.3-0.3,0.8-0.5,0.9-0.9l-1-1l-1.2,0.5
				c-0.9-0.4-1.9-0.8-2.8-1.5l0.3-1.6l-2.5-0.6c-0.2,0.5-0.1,1.1-0.1,1.7c-0.9,0.1-2,0.2-2.7-0.5c-1.1-0.7-0.6-2.2-0.7-3.3
				c3-0.6,5.2,1,7.7,1.6c2,1.1,2.5,3.5,4.5,4.5c0.8,0.7,1,1.8,0.9,2.9C78.3,37.6,77.4,37.9,76.6,38.2z M77.3,48.5
				c5.3,6.9,6.6,16.3,5.2,25.5c-0.6,4.1-1.4,8-2.2,12c-5.2-5.5-6.5-13.6-5.2-20.6l1.8-13.1L77.3,48.5z M69.2,42.5
				c-0.2,0-0.4,0-0.5-0.2v-0.6h0.1C68.8,42,68.9,42.3,69.2,42.5z M71.4,43.1c-0.2,0.4-0.4,0.6-0.7,0.9c-0.6-0.1-1.3,0.5-1.7-0.3
				l-0.8-0.9l0.1-0.1C69.3,42.8,70.4,42.9,71.4,43.1z M69.9,42.1l0-0.5c0.3,0,0.7,0,0.9,0.2c-0.1,0.3,0,0.6-0.3,0.8H70
				c0.2-0.1,0.4-0.3,0.5-0.5H69.9z M70,41.3c0.2-0.6,0.9-0.6,1.4-0.5c0.3,0.1,0.7,0.2,1,0.1l-1.1-0.6c0.9-0.2,1.2,0.7,1.9,1.2
				C72.1,41.7,71,41.5,70,41.3z M72.6,39c-1.6-0.3-3.2-0.8-4.9-0.5c-1.2,0.6-2.5,1.2-3.9,1.6c-2.7-2.5-6.1-1.6-9.1-1
				c-1.7,0.2-2.8,2.2-4.8,1.6h-0.2c-0.6-1.9,1.6-2.4,2.3-3.7c1.4-1.5,3.4-2.2,5.5-1.8c0.8,0.3,1.5,0.8,2.3,1.1
				c2.4-0.1,4.5,0.2,6.7,0.6c0.8-0.8,2-1.1,3.2-1L69,35.6c0.6-0.1,1.5,0,2.1-0.1c1,0.1,1.9,0.6,2.4,1.5c0.1,0.3,0.2,0.9-0.1,1.1
				C73.2,38.5,72.9,38.7,72.6,39z M58.4,43.4c-0.9,0.5-1.9,0.9-2.9,0.6c-0.7-0.2-1.1-0.9-1.4-1.5c1.7,0.4,3.7,0.3,5.3-0.1
				c-0.7,0.8-1.8,0.6-2.8,0.8v0L58.4,43.4z M56.1,42.4c0.4,0.1,0.8,0,1-0.3c0.2-0.2,0-0.5,0.2-0.7c0.1,0.3,0.1,1-0.3,1.1
				c-0.3,0.1-0.9,0.1-1.3,0c-0.3-0.2-0.2-0.6-0.2-1h0.1C55.4,41.9,55.7,42.2,56.1,42.4z M56.4,41.7l0-0.4H57c0.2,0.2,0,0.6-0.3,0.6
				C56.6,41.9,56.4,41.9,56.4,41.7z M53.8,41.6c0.8-0.7,1.8-1.9,3-1.3c0.3,0.2,0.7,0.4,1,0.7C56.4,40.9,55.1,41.3,53.8,41.6z
				 M48.1,36.7c-0.3,0.3-0.6,0.7-1,0.8c-0.3-1.3-1.2-2.3-2.3-3.1c3.1-1.9,5.8-5,9.4-5.6c1.7-0.4,3.5-0.5,5.3-0.7
				c0.6,0.2,1.3,0.2,1.7,0.9c0.2,0.9,0,1.8-0.7,2.4l-0.6,0.4c-1.7,0.5-3.1,0.9-4.8,1.3c-0.2-0.5-0.3-1-0.7-1.4
				c-0.7,0.3-1.5,0.5-2.3,0.9l0.6,1.3c-0.8,0.6-1.7,1-2.6,1.4c-0.5-0.4-0.9-1.1-1.4-1.6c-0.7,0.4-1.2,1.1-1.9,1.6L48.1,36.7z
				 M44.9,80.2c0.1-0.7,0.2-1.5,0.2-2.3l7.6,2.7l1.3,3.1C51,82.7,47.9,81.3,44.9,80.2z M54.4,87.3c-3.1-1.3-6.2-2.8-9.4-4.2V81
				l8.7,3.4L54.4,87.3z M52.5,80l-7.4-2.9c0-0.6,0.2-1,0.2-1.6l5.9,2.1L52.5,80z M51.8,66.7c1.9,0,3.9,0.6,5,2.3
				c0.8,2.1,2.9,2.8,5,2.9c-1.7,0.8-4,1.7-5.7,0.1C54.4,70.2,53.2,68.6,51.8,66.7z M45.2,75.1c-0.2-0.3,0.1-0.6,0.2-0.9
				c0-0.3-0.2-0.7-0.1-1l4,1.6c0.7,0.7,1.3,1.6,2,2.4C49.3,76.6,47.2,75.7,45.2,75.1z M46.2,41.8c-0.6,0.9-1.7,1.3-2.6,1.4
				c-0.8,0-1.6-0.3-2.3-0.6c-2-1-3.2-3-3.1-5.2c0.1-1.1,0.6-2.3,1.7-2.8c1.3-0.6,2.5-0.6,3.9-0.2c0.9,0.3,1.8,1,2.3,1.9
				C47,37.9,47.2,40.2,46.2,41.8z M77.2,32.8c-0.1-0.9-0.3-1.8-1.2-2.3c-2.9-1.4-5.8-3.2-9.3-2.9l-1.4-0.1c-0.6,0.9-0.9,1.9-0.6,3
				c0.3,1.2,1.7,1.9,2.5,2.5l-2.9,1.7c-1.3-0.5-2.5-1.5-3.7-2.2c0.1-0.5,0.8-0.9,1.2-1.3c0.4-0.5,0.5-1.3,0.3-1.9
				c-0.2-0.8-0.8-1.3-1.2-2c-5.7,0.3-11.4,1.9-15.6,6.3c-1.4,1.1-2.9-0.4-4.5,0.2l-1.6,0.6l-2.2-0.2c-0.3-1.1,0-2.3,0.8-3.1
				c0.5-0.5,1.2-0.7,1.8-1c-0.5-0.6-1.1-1.1-0.9-1.9c1.1-1.2,2.7-1.5,4.2-1.3c0.3-0.4,0.4-0.9,0.4-1.4c-0.3-0.5-0.7-1-0.6-1.6
				c0.4-0.6,1-0.9,1.7-1c1-0.7,2.6,1.8,2.6-0.5c0.9-0.6,2.4,0.2,3-1.1c-0.4-0.5-0.8-1-0.6-1.7c0.2-0.5,0.7-1,1.1-1.1
				c1.5,0.4,2.3,2.2,3.7,2.7l1-0.2c0.4-0.8,0.8-1.9,1.8-2.1c0.6,0.1,1.3,0.4,1.6,1c0.3,0.4,0.1,1,0.5,1.3h1.5
				c0.6-0.7,1.3-1.6,2.1-1.8c1.1-0.1,2,1.1,2.4,2.1c0.1,0.2,0,0.5,0.3,0.6l2.4,0c0.7-0.4,1.3-1,2.2-0.9c0.8,1.1,1,2.5,1.6,3.7
				c-0.6-0.2-1.1,0-1.5,0.5c-0.5,0.6-0.9,1.2-0.5,2c0.7,0.8,1.7,0.6,2.6,0.3c0.3-0.1,0.6-0.3,0.7-0.7c0.2-0.9-0.5-1.6-1.1-2
				c0.8-0.5,1.9-1.4,2.9-0.7c0.9,0.7,1,2,0.7,3.1C75.2,27,74.6,26.9,74,27c-0.4,0.2-0.6,0.6-0.7,1c0,0.6,0.4,1.2,0.9,1.6
				c0.7,0.3,1.6,0.4,2.3-0.1c0.4-0.2,0.3-0.7,0.3-1.1c-0.2-0.4-0.5-0.8-0.9-1.1c2.4,0.9,3.4,3.7,3.4,6.3
				C78.5,33.5,77.5,33.6,77.2,32.8z M76.5,22.1c0.2-1.2,0.1-2.5,0.1-3.8c0.6-0.3,1.9-0.6,2.1,0.5c0.4,1.5,0,3.3,1,4.6
				c0.8,1.1,2.2,1.9,2,3.3c-1.1,0.7-2.5,0.2-3.5-0.4c-1-1-2.2-2.4-3.5-2.9C75.3,23.1,76.3,22.9,76.5,22.1z M69.3,13.9
				c1.6,0.1,4.1-0.1,5.1,1.7c0.2,0.8-0.2,1.9,0.6,2.4l1,0.5c0.4,1.5,0.1,3.2-1.1,4.1c-0.7-0.2-1.1-1-1.8-1.2
				c-1.3-0.2-2.3-1.1-3.4-1.8c-0.2-1.8,1.1-4-0.3-5.5L69.3,13.9z M46.2,10.3C47.3,9.6,48.5,8,50,8.7c1.3,1.1,1.8,2.6,2.1,4.2
				c0.3,0,0.6,0.2,0.9,0.1c-0.2-0.7-0.9-1.4-1.1-2.2c-0.2-0.2-0.1-0.6-0.1-0.8c0.8-0.6,1.8,0,2.7-0.1c0.1-0.4-0.8-0.7-0.6-1.2
				c1-0.5,2.2-0.2,3,0.3c1,1,1.7,2.2,2.9,3.2c-0.2-1-0.6-2.2-0.9-3.3c1.3-0.3,3.1-0.7,4.2,0.3c0.5,0.5,1,1.4,1.9,1
				c0.5-0.2,1-0.6,1.6-0.5c2.2,1.3,1.2,4.4,2,6.6c0.1,0.9-0.1,1.7-0.9,2.1c-1,0.5-2.3,0.3-3.4,0c0.5-0.9,1.1-1.7,1.1-2.9
				c-0.4-1.4-1.6-2.5-2.4-3.8H62c0.2,0.6,0.6,1.2,1,1.8c0.5,1.1,1,2.3,0.7,3.6c-0.4,0.7-1.5,0.4-2.1,0.3c-1-0.3-2.3-0.6-2.6-1.7
				c-0.2-1.3-0.4-2.6-1.4-3.6l-0.9-0.3c0.5,1.3,1.4,2.6,1.1,4.1c-0.2,0.9-1,1.7-1.9,1.9c-1.4-0.2-2.1-1.7-3.2-2.5
				c-0.3-0.2-0.6-0.5-0.9-0.6c-0.2,0.7-0.3,1.6-1,1.9c-0.8-0.2-1.2-1.1-1.7-1.7c-0.9-1.6-1.8-3.2-3-4.6L46.2,10.3z M44.2,10.4
				c1.7,0.5,2.1,2.3,3,3.5c0.9,1.2,2.7,2.1,2.6,3.7c-0.7,0.7-1.7,0.6-2.7,0.6c-1.7-2.6-3.9-5-6-7.3C42,10.5,43.1,10.2,44.2,10.4z
				 M24,30.4l0.6-1.4l-1.3-1.2c0.8-0.8,1.1-1.9,2.3-2.4c0.7,0.1,1.1,0.8,1.8,0.9c0.2-0.4,0.3-0.9,0.1-1.3c-0.9-1-2.2-1.7-3.3-2.4
				C24,22.4,23.9,22.2,24,22c0.7-0.7,1.8-1,2.8-1l-0.4-0.2c1.4-2.3,3.8-3.9,4.6-6.7c2.1-1.3,4.3,0.3,6.4,0.1c1.1-0.4,1.5-1.5,2-2.4
				c2.7,2.9,7.2,5.3,7.7,9.2c-0.9,0.2-2,0.1-2.6-0.8l-0.2-0.2c0.1,0.6,0.7,1.2,0.4,2c-1.3,0.7-3.1,0.5-4.7,0.6
				c-0.9,0-1.7-0.6-2.5-0.9c0.9,0.8,2.3,1.2,3.2,2.3c0.2,1.2-0.9,1.9-1.7,2.8c-3,0-5.1-2.1-7.4-4c-1.3-0.7-2.6-1.4-4-1.6
				c2.3,2.1,5.3,2.7,7.4,5.2c0.8,0.4,1.7,0.7,2.6,0.9v0.1c-1,0.2-1.9,0.8-2.4,1.7c-0.7,1.2-0.1,2.8,0.4,4c-3,0.2-6.3,0-8.2,2.7
				c2.4-0.4,4.3-0.8,6.8-0.9c1.5,0,2.7-0.7,4.1-0.1c0.2,0.4-0.4,0.7-0.5,1.2l-0.4,1.4l-14.2,7.3l-0.1-0.2c0.3-1.9,1-3.8,0.9-5.9
				c-1-0.8-2.3,0.5-3.2-0.6c-1.7-2,2.6-3.3,0.2-5.1c-0.3-0.3-0.7-0.6-0.9-0.9C21.7,31.8,23.2,31.7,24,30.4z M34,63
				c-1.3,1.1-2.8,1.6-4.3,2.3c-0.3-1.1-0.4-2.3-1-3.2L28,61c-0.7,0.7-1.6,1.5-2.8,1c-0.2-0.1-0.4-0.2-0.6-0.5
				c-0.1-1.4,1.6-2.1,1-3.6c3.4-1,7.4-3.1,8.6-6.8c0.3-0.6,0.6-1.3,0.9-1.9c-2.6,2.8-5.2,5.3-8.5,7.1c-1-0.6-2.1-1.7-1.9-3.1
				c-0.1-1.6-0.9-3-2.3-4c-1-0.3-2,0.3-3,0.6c-0.5-0.2-0.2-0.9-0.2-1.3l18.4-9.6c0.3,0.7,0.6,1.6,1.1,2.3c-1.8,2-4.6,2.2-6.3,4.5
				c-0.6,0.6-1,1.3-1.4,2c2.3-1.2,4.6-2.9,6.8-4.4c0.3,0.2,0.8,0.6,0.9,0.9c-0.2,2.1-2.4,3.4-2.2,5.7C36.9,54.5,38.3,60.1,34,63z
				 M39.5,90.9c-3.3-1.6-4-5.2-3.8-8.7c0.3-5.6,2.4-10.9,1.8-16.3c-0.3-6,0.1-12.7,1.4-18.4c-0.2,5.3,1.6,10.4,0.9,15.6
				c-0.4,4.3-0.9,9.3-0.5,14C39.9,81.8,39.8,86.3,39.5,90.9z M47.9,96.4c-2.6-1.1-5.3-2.6-7.9-3.9c0.2-3.1,0.4-6.1,0.3-9.4
				c-0.7-6.4-1-13.7,0-19.8c0.8-7-2.6-13.8,0.2-20.4c1.2,0.6,2.6,1.1,4.1,0.8c2.7,5.6,0,11.7-0.3,17.5c-0.1,4,0.4,7.8,0.5,11.8
				c-0.2,5.6-0.9,12.1,1,17.4L47.9,96.4z M55.5,90.8c-3.4-1.5-6.8-3.2-10.2-4.7l-0.4-2.1l9.9,4.4C55,89.2,55.2,89.9,55.5,90.8z
				 M60.5,83c-1.8,0.2-3.8,0.3-5.7,0.3c-0.2-0.4-0.6-0.7-0.8-1.1l6.7-0.3C60.7,82.1,60.6,82.6,60.5,83z M53.9,81.5
				c-0.2-0.3-0.4-0.7-0.5-1l7.3,0l2.5-1.7c-0.1-0.9-1-1.8-0.6-2.8l1.6-2.8c0.5,0.2,1,0.4,1.4,0.7l-1.9,3.1l0.3,2.3
				c-0.9,0.7-2,1.3-3,2L53.9,81.5z M70.6,89.5c0.6,0.3,1.1,0.6,1.7,0.9c-0.4,1-1.1,2-1.7,3L68.5,95c-1.7,0.5-3.2-0.3-4.6-0.9
				l0.3-2.4h0.2l1.5,1l2.3-0.2C69,91.5,70.4,90.8,70.6,89.5z M70.1,89.2c-0.8,1-1.5,2.7-3,2.8c-1.1,0.1-1.9-0.6-2.8-1V89l1.7,0.7
				l1.6-0.5l1-1.5L70.1,89.2z M65.7,80.6c0,1.8-0.2,3.8,0.8,5.2l0.3-1.4c0.3,0.9,0.8,1.8,1.3,2.7c-0.1,0.7-0.7,1.2-1,1.9
				c-1,0.7-1.8-0.1-2.8-0.6c-0.3-0.8-0.9-1.5-1.3-2.3c0.6,0.1,1,0.5,1.5,0.5l-1.3-1.7l-1.8-0.8l0.1-1.8l2.9-2.1
				C65,80.1,65.3,80.5,65.7,80.6z M65.8,76.3l-0.3,0.5c-1.3,0.9,0,2.1-0.2,3.2c-0.4,0-0.7-0.3-1-0.5c-0.1-0.7-0.3-1.5-0.2-2.2
				l1.7-2.8c0.3,0,0.7,0.2,1,0.4C66.6,75.3,66.1,75.8,65.8,76.3z M72.3,58c-1.3,2.1-1.7,5.2-4.5,6c-3,0.6-6.4,1.2-9.6,0.5
				c-3.1-1.3-4.7-4.4-7.8-6.2c-1.1-1-1.8-2.3-1.4-3.8c0-0.4,0.2-0.6,0.2-1c0.8,0.6,1.7,1.4,2.3,2.2c0-0.6-0.3-1.3,0.1-1.8
				c1.2-0.8,2.5-1.3,3.7-2.1c0.4-0.2,0.8-0.4,1.1-0.6c-1.8-0.4-4.2,0.7-5.2-1.4v-0.5c1.4-0.1,2.8-0.8,3.4-2.1l-0.1-0.1
				c-1.1,0.9-2.4,1.5-3.9,1.4l-2.7-3.9c-0.2-0.5,0.2-1,0.6-1.1c0.9-0.3,1.9-0.5,3-0.6l-0.3,1.1c0.9-0.2,2-0.8,3-0.2
				c1.1,0.6,1.3,1.9,2,2.8c2.3-0.6,2.7-4,5.2-3.7c0.5,0.5,1.3,1,1.6,1.6c0.1-1.1-0.6-2-1-3c0-0.3,0.3-0.3,0.5-0.4l3.3,0.1
				c0.8,0.6,0.1,1.7,0.4,2.6c0.3,2.1,0.9,4,1.9,5.7c-0.9,0.9-2,2.1-3.5,1.7c-1.2-0.6-3.1-1.3-4.3-0.3c1.2,0.7,3.1,0.6,3.8,2
				c1.7,0,3.2-0.6,4-2c1.3,0.6,2.7,1.9,3,3.3c0.3-0.5,0.7-1.3,0.3-2c-0.6-0.7-1.6-1.1-2.3-1.9c-0.6-1.9-2.4-3.8-1.3-6
				c1.1,0.7,2.2,1.7,3.6,1.7c0.1-0.8-0.1-1.9,0.9-2.2c1.1-0.1,2.4-0.2,3.3,0.5c0.3,0.6,0.6,1.2,0.4,1.9c-0.2,0.9-2.8,0.9-1.3,2.2
				c0.2,0.6,0.3,1.3,0,1.8c-0.4,0.5-0.7,1.3-1.5,1.4c-0.6-0.5-0.2-1.7-1.3-1.7C72.8,52.4,73.8,55.7,72.3,58z M74.1,75.7l0.3,2.2
				l-1,0.3C73.5,77.4,72.6,75.6,74.1,75.7z M73.4,81.7l0.1-2.5l1.3-0.6c0.3,0.8,0.5,1.6,1.1,2.3L75.7,81L73.4,81.7z M76.9,85.9
				l-2.5,1.8c-0.1-0.6-0.2-1.3-0.2-2l2.9-1.8L76.9,85.9z M73.8,84.9l-0.2-2.4c0.9-0.4,1.7-0.8,2.6-1.1c0.4,0.6,0.8,1.1,0.9,1.8
				L73.8,84.9z M84,66c0,4.6-0.4,9.1-0.3,13.7c0.2,0.5,0.1,0.9,0.1,1.4c0.3,4,0.9,7.9,1.5,11.8c-0.9-0.4-1.7-1.1-2.6-1.6
				c-0.8,1.1-1.3,2.5-2.1,3.7c-3.2-2.8-3.5-7.3-2.8-11.5c0.9,1.2,1.8,2.5,2.7,3.7c0.7-2.3,1-4.8,1.5-7.1c2-9.1,2.9-22.4-3.4-30.6
				l0.1-5.5C83.9,49.8,83.2,58.2,84,66z M85.6,43.1c-0.5,0.2-1,0-1.6,0.4c0.5,1.1,0.3,2.7-0.3,3.7c-0.2,0.3-0.6,0.4-0.9,0.2
				c-1-0.9-1.7-2.1-2.2-3.3c0.7-1.1,1.8-2.3,1.2-3.7c-0.3-1.5-1.8-2.6-2.3-4c0-0.7,0.6-1.1,1.2-1.3c2.9,1.6,3.4,4.7,5.2,7
				C86.1,42.4,86.1,43,85.6,43.1z M85.9,39.2c-1.2-1.7-1.1-4.5-3.6-5.1L80,33.5l-0.3-2.9c2.4,0.7,5.8-0.6,7,2.5
				c1,1.3,1.5,3.1,0.9,4.8C87.2,38.5,86.6,39.4,85.9,39.2z"/>
		</g>
		<path d="M49.7,23.9c-0.5,0-1,0.2-1.2,0.7c-0.3,1.7,0.8,3.2,2.1,4.1c0.6,0.2,1.1,0,1.4-0.5c0.5-0.8,0.9-1.9,0.3-2.8
			C51.8,24.6,50.8,24.1,49.7,23.9z"/>
		<path d="M44.4,26.3c-0.5,0.2-0.6,0.8-0.5,1.3c0.4,0.7,1,1.1,1.6,1.6c1,0.5,2.2,1.4,3.3,0.6c0.2-0.3,0.1-0.8,0-1.1
			C48.1,27,46.3,25.8,44.4,26.3z"/>
		<path d="M44.6,29.4c-1.5-0.3-3.1-0.1-4,1.1c-0.1,0.5,0.2,0.9,0.6,1.2c1.2,0.6,3,0.6,4.3,0.2c0.5-0.2,1-0.6,1-1.1
			C46.3,29.9,45.4,29.6,44.6,29.4z"/>
		<path d="M66.4,22.9c-0.4,0.1-0.8,0.2-1.1,0.5c-0.5,0.5-0.6,1.3-0.4,2c0.3,0.9,1.2,1.3,2.1,1.3c0.6-0.2,1.2-0.7,1.4-1.4
			c0.1-0.6-0.1-1.2-0.5-1.7C67.5,23.2,67,23,66.4,22.9z"/>
		<path d="M55.4,22.9c-0.5,0-1.2-0.2-1.6,0.2c-0.3,0.5-0.5,1.1-0.3,1.7c0.2,1,1.1,2,2.1,2.3c0.5,0.1,1-0.1,1.4-0.5
			c0.4-0.6,0.7-1.7,0.2-2.3C56.7,23.6,56.1,23.1,55.4,22.9z"/>
		<path d="M60.7,22c-0.3,0.2-0.7,0.3-1,0.6c-0.4,0.6-0.5,1.2-0.5,2c0.1,1,0.9,1.7,1.7,2.1c0.6,0.2,1.4,0.1,1.8-0.4
			c0.5-0.6,0.8-1.5,0.6-2.4C62.7,23,61.9,22,60.7,22z"/>
		<path d="M69.3,54.6c-0.7-0.2-1.2,0.3-1.8,0.6c-1-0.6-2.5-0.7-3.7-0.3c-1.4-1.1-2.6,0.6-4,0.6c-1.1,0.5-2.6-0.5-3.4,0.6
			c-0.2,0.4-0.2,1,0,1.4c0.5-0.2,0.8-0.7,1.3-0.9c0.6-0.1,1.3-0.8,1.8-0.1c0.2,1.1-0.7,1.9-0.4,3.1L60,59c2.6,0,5.2-0.4,7.6,0.7
			c-0.2-1,0.3-1.7,0.3-2.6c-0.2,0.1-0.4,0.1-0.6,0.2c-2.3,0.3-5.9,1.4-7.4-1.2c1.1,0,1.9-0.2,2.9-0.1c1.1,0.4,2.8,0.6,3.8-0.3
			c1.3-0.6,2.6,0.2,3.6,0.9v-0.9C70.1,55.2,69.8,54.9,69.3,54.6z"/>
		<path d="M59.8,49.4c-0.3,0-0.5-0.3-0.8-0.2c-0.8,0.7-1.6,1.5-2.3,2.4c-0.5,1.5-1.7,2.7-1.5,4.3l0.3-0.1c0.3-1.1,1.2-2,1.9-2.9
			C58.4,51.7,58.2,49.8,59.8,49.4z"/>
		<path d="M34.2,15.5c1.1,3,4.5,3.2,6.8,4.7C38.9,18.1,36.6,16.7,34.2,15.5z"/>
		<path d="M44.3,20.1c-0.7-1.7-2.3-3.2-3.9-4.2C41.3,17.5,43.2,18.7,44.3,20.1z"/>
	</g>
</g>
</svg>
