<?xml version="1.0" encoding="utf-8"?>
<!-- Generator: Adobe Illustrator 18.1.1, SVG Export Plug-In . SVG Version: 6.00 Build 0)  -->
<!DOCTYPE svg PUBLIC "-//W3C//DTD SVG 1.1//EN" "http://www.w3.org/Graphics/SVG/1.1/DTD/svg11.dtd">
<svg version="1.1" xmlns="http://www.w3.org/2000/svg" xmlns:xlink="http://www.w3.org/1999/xlink" x="0px" y="0px"
	 viewBox="0 0 100 100" enable-background="new 0 0 100 100" xml:space="preserve">

<g id="AREA_1">
	<path d="M23.8,97.1c2.1,1.2,1.9,1.2,4,0.2c1.7-0.8,11.9-2.8,20-23c2-4.9,3.8-10.8,5.4-18c0.6-2.9,2.5-0.4,3.3,0.6
		c0.8,1,18.5,16.7,28.1,12.9c9.6-3.9,8.3-16.4,3.3-20.4c5-3.8,8.7-10.6,2.7-18.7c-6-8.1-22.9-0.2-26,1.3
		c7.7-12.1,10.2-22.1,1.7-26.8c-8.5-4.6-14.6,0.4-16.2,2.5C47.7,5.1,40.4,0.3,33,4.9c-7.3,4.6-5.6,14.4,2.1,27.3
		c-13.7-6-25-7.5-28.3,2.9C3.6,45.5,10.5,49,11.7,49.8c-3.1,3.5-5.4,9.8-1.3,16c4,6.2,14.6,9.6,33.7-9.8c2.5-2.3,2.1-0.4,2.1,0.6
		c-0.3,4.7-1.5,10.1-3.9,15.2c-3.6,7.6-10,14.7-20.3,18.5C19.2,93.1,23.8,97.1,23.8,97.1z"/>
</g>
</svg>
