<?xml version="1.0" encoding="utf-8"?>
<!-- Generator: Adobe Illustrator 18.1.1, SVG Export Plug-In . SVG Version: 6.00 Build 0)  -->
<!DOCTYPE svg PUBLIC "-//W3C//DTD SVG 1.1//EN" "http://www.w3.org/Graphics/SVG/1.1/DTD/svg11.dtd">
<svg version="1.1" xmlns="http://www.w3.org/2000/svg" xmlns:xlink="http://www.w3.org/1999/xlink" x="0px" y="0px"
	 viewBox="0 0 100 100" enable-background="new 0 0 100 100" xml:space="preserve">

	 
<g id="AREA_1">
	<g>
		<path d="M95.6,40.2c-1.5-1.8-3.2-5.1-6.1-4.7c0.3,0.1,0.5,0.3,0.8,0.5c1.6,1.2,0.5,3.1,0.3,4.6c-0.8,2.8,2.4,3.8,3.6,5.7
			c0.3,1.6,0.1,2.8-0.5,4.2c-1.5,3.3-4.9,5.1-8.3,5.4c-2.6,0.2-5-0.2-7.2-1.1c-2.4-1.9,0.3-4.1,0.2-6.2c0.8-3.6-1.2-6.4-2.3-9.4
			c-0.6-3.1,0.7-7.3-2.3-9.2c-1.2-0.8-3.1-0.8-4.3,0c-0.8,0.6-1.3,1.9-2.4,1.7c-1.7-1.9-3.6-4-5.3-5.9c-3-3.7-6.8-6-10.8-7.8
			c0.1-0.3,0.3-0.5,0.2-0.9c-0.8-1.1-2,0.2-3-0.3c-0.8-0.2-0.5-1.1-0.7-1.7c-0.1-0.3-0.4-0.5-0.7-0.6c-0.6-0.2-0.8,0.4-1.2,0.6
			l-0.1-0.1c-0.1-0.7-0.8-0.7-1.4-0.8c-1.3-0.1-0.9-1.6-1.6-2.3c-0.3-0.2-0.6,0.1-0.9,0.1c-1,0.4-1.5-0.6-2.3-1
			c-0.5-0.1-0.7,0.3-1.1,0.4c-0.6,0.2-1-0.2-1.5-0.4c-1.1,0.6-2.7,1.1-3.9,0.2c-0.9-0.4-1.7,0.5-2.7,0.5c-0.5,0-0.9-0.5-1.3-0.8
			c-0.8-0.3-1,0.9-2,0.6c-1.4-0.6-3.1-0.5-4.7-0.4L22,11.2c-0.2,0.8,0.2,1.6,0.8,2.2c0.5,1,1.9,1.2,2,2.3c-0.1,0.6-0.5,1.3-1.1,1.4
			c-0.3,0.1-0.8-0.1-0.8,0.4c-0.4,0-0.5-0.5-0.7-0.7c-0.3-1.3-1.4-2.1-2.5-2.7c-1.1-0.2-1.9,0.8-2.8,1.2C16.6,15.1,16.3,15,16,15
			c-0.6,0.1-1.1,0.7-1.4,1.2c0.1,1.4-1.4,1.8-2.1,2.9c-0.9,0.2-1.9,0.4-2.8,0.7c-0.5,0.4-1.4,0.4-1.3,1.2c0.5,0.6,1.3,0.3,2,0.3
			c1.7-0.8,3.8-0.8,5.8-0.7l0.2,0.2c0,0.3-0.4,0.3-0.5,0.5c-0.2,0.1-0.4,0.1-0.6-0.1c-0.4-0.2-0.8,0-1.1,0.2c-0.8,0.8-2.1,0.1-3,0.6
			c-0.6,0.3-1.2,1-1.3,1.7c0.1,0.4-0.2,1,0.1,1.4c0.3,0.5-0.3,0.6-0.6,0.7c-0.7,0.2-1.4-0.2-2-0.3c-0.4,0.2-0.6,0.7-0.7,1
			C6.1,28,7.9,29,7.1,30.4c-0.5,0.7,0.6,0.7,0.9,1.2c-0.1,0.4-0.2,0.8-0.5,1.2c-0.2,0.9-1.8,1.9-0.5,2.7c-0.1,0.4-0.2,0.7-0.4,1
			C5.8,35.9,5,35.4,4,35c0.2,1.2,1.6,1.6,2.4,2.4l0.1,0.6c-0.5,1-1.4,2.1-0.7,3.3c0.3,1.2-1.2,1.7-0.8,3c0.1,0.9-0.7,1.5-1.1,2.3
			c-0.6,1,0.8,0.9,0.9,1.7c-0.5,1.4-2.1,1.9-3,3c1.1-0.2,2.1-0.8,3.3-0.7c-0.4,0.7-0.5,1.5-0.7,2.2c0.5,0.1,1.1,0.1,1.5,0.6
			c-0.2,0.9-1.1,1.6-1.5,2.4v0.1c0.4,0,0.9-0.1,1.3,0.1c-0.1,2-0.6,4.2-0.4,6.1c0.6,2.7,0.2,5,0.5,8c0.3,1.7,1.6,3.3,0.8,5.1l-1,0.9
			c-0.5,0.5-0.3,1.2-0.1,1.7c-0.9,0.9-1.5,2-1.7,3.2v6.2l0.3,0.6c0.9,0.3,1.6-0.7,2.4-1c0.7,0.2,1.4,0.3,2.2,0.3
			c0.8,0.3,1.1,1.3,1.8,1.8c0.9,0.3,1.5-1,2.4-1.1c1.3-0.5,1.1,1.5,2.3,1.4c0.4-0.3,0.8-0.8,1-1.3c0.8-0.1,1.7-0.2,2.5-0.1
			c0.4,0.4,0.7,1.1,1.4,1c0.5-0.5,0.6-1.1,0.7-1.7c0.6-0.2,1.2-0.5,1.6-1c0.5-1.2,0-2.5-0.5-3.6c-0.3-1.3,1-2.2,0.6-3.6
			c-0.5-0.8-0.5-1.8,0-2.6c0.3-0.8,0-1.5-0.5-2.1c-0.1-0.2,0.2-0.4,0.4-0.6c0.3,0.3,0.5,0.5,0.8,0.7l2-1.6c1.6-0.5,3.3-0.3,4.7-1.1
			c1.3-0.6,2-2.3,3.3-3c2.7-0.9,2.7,2.9,5,3.2c0.4,0.9,0.9,1.7,1.8,2.3c1.1,0.7,2.4-0.2,3.4-0.6c0.5,0.6,0.9,1.4,1.6,1.7
			c1.3,0.2,2.2-0.8,3.1-1.5c0.6,0.7,1.1,1.6,2.1,1.7c0.7-0.1,1.2-0.7,1.8-1.3c0.6,0.4,1.2,1,2.1,0.7c1.5-0.4,2.1-2.1,2.7-3.3
			c0.7-1.4-0.1-3,0.1-4.5c0-1.2,1-1.8,1.4-2.9c0.3-1.1-0.8-1.7-1.2-2.6c-0.3-0.7,0.4-1.2,0.8-1.8c2.3-0.3,4.9-0.2,7.3,0.1
			c2.1,0.3,4-0.2,5.6-1.1c2.6-1.7,6.1-0.7,8.7,0.3c3.4,0.8,7.2,0.3,10.2-0.9c3.6-1.4,6.4-5.1,6.9-8.8C96.6,46.1,97.3,42.6,95.6,40.2
			z M52.5,19.4c3.3,1.3,6.3,4,8.9,6.7c2.4,3.4,4,7.1,4.4,11.3c-2.5-0.8-2.5-3.5-4.1-5.1c-1.6-2.3-4.2-4.3-5.6-6.6
			c-1.1-1.5-2.2-3.1-3.6-4.3V19.4z M24.7,14c0.1-0.5-0.2-1.5,0.6-1.7c0.5-0.1,1,0.2,1.5,0.3c0.4,0.5,0.7,0.9,1,1.4
			c1.5,1.3,2.8,2.8,2.5,4.8c0.1,0.1-0.1,0.2,0.1,0.2l0.5-2.8c-0.5-0.5-0.7-1.2-0.5-1.9c0.1-0.4,0.5-0.8,0.8-0.9
			c0.8-0.1,1.2,0.7,2,0.5c1.4-1,2.8,0.3,4.3,0c0.7-0.2,1.5-1.1,2.2-0.4c0.3,0.5,0.4,1.2,1,1.6c0.5,0.3,1.3,0.1,1.6,0.8
			c0.4,1.3,1.9,1.2,2.8,1.9c0.4,0.7-0.8,1.5,0.2,2h2c0,0.5-0.6,0.6-0.9,0.9c0.7-0.1,1.5-0.4,2.3-0.6c0.9-0.2,2-0.3,2.9-0.3
			c-0.4,0.7-1,1.6-0.4,2.4c0.3,0.6,1.7,0.3,1.1,1.2c-0.1,0.2-0.4,0.5-0.2,0.7l0.6,0.6c-0.5,0.2-1.1,0.3-1.7,0.3
			c-0.5-0.1-1.3-0.2-1.5-0.8l0-0.7c-0.7-0.1-1.3,0.1-1.9-0.2c0-0.2,0.2-0.3,0.3-0.3l2.3-0.6c-0.2-0.3-0.2-0.8-0.6-0.9
			c-0.3-0.1-0.8,0.1-1.2,0.2c-3.3,1.1-6.4,2.6-9.5,4.2c-0.3-0.7-0.2-1.6-0.3-2.3c-0.5-0.2-1.1,0-1.5,0.2c-0.9,0.3-1.1-0.9-1.9-1
			c-0.7,0-1.7-0.2-2.1-1c0-1,0.3-2,0.2-2.9c-0.4,0.6-0.5,1.6-1.3,1.6c-0.3-0.3-0.5-0.6-0.6-1c-0.6,1.1-1.4,2.2-1.6,3.5
			c-0.2,0.4-0.5,0.8-1,0.9c-0.8-0.2-1.2-1.1-1.3-1.8c-0.4-2.3,0.2-5.1-1.9-6.9C25.1,15,24.9,14.5,24.7,14z M47,42.5
			c0.4,0.4,1.2,0.5,1,1.2c0,0.9-1.4,0.7-1,1.6c0.6,0.8,0.8,2,0.4,2.9c-0.3,0.4-0.8,0.6-1.1,1c0.2,0.7,0.6,1.4,0.4,2.2
			c-1.2-0.2-2.3-0.8-3.7-0.9c-0.7-0.3-1.5-0.5-2.2-0.8c0.7-0.9,0.9-2,0.8-3.1c0.3-0.8,1.4-0.9,1.8-1.6c0.1-0.3-0.1-0.6-0.4-0.8
			c-0.8-0.3-1.7,0.3-2.3-0.6c-0.1-0.4,0-0.9,0.1-1.2c0.4-0.1,0.9-0.1,1.3-0.2c-0.4-0.1-0.5-0.5-0.3-0.8c0.2-0.6,0.5-1.4,0-2
			c-0.3-0.3-0.8-0.4-1.1-0.8c-0.3-0.7,0.7-1.5-0.3-1.9c-0.5-1.6-2.9-2-2.7-3.8c-0.5-0.7-1.3-0.9-2-1.3c-0.9-0.1-1.7-0.1-2.6,0
			c0,0.1-0.1,0.2-0.1,0.2l0.1,0.1c1.5-0.1,3,0.1,4.2,1.1c0.7,0.6,0.1,1.9,1.3,2.1c0.6,0.6-0.1,1.5,0.5,2.2c0.1,1.1,0.5,2.3-0.1,3.4
			c-0.4,0.3-0.9,0-1.2-0.1c-0.2-0.3-0.2-0.7-0.3-1c-0.5-0.6-1-1.3-1.5-2c-0.7,0.8-1.9,0.3-2.6,1.2c-0.2-0.8,0.3-1.9-0.5-2.3
			c-0.3,0-0.6-0.1-0.8,0c0.9,0.3,0.5,1.4,0.7,2.1c-0.2,0.6-0.9,0.6-1.3,1.1c-0.3,0.3-0.7,0.6-1.1,0.4c-0.9-0.5-2.3-1-2.2-2.3
			c0.3-0.4,0.7-0.6,1.2-0.7c-0.3-0.3-1.1-0.5-1-1.1c1-0.7,2.1-1.4,3.4-1.3c0.1,0,0-0.1,0-0.2l-0.1-0.1c-0.8,0.1-1.7,0-2.4,0.2
			c-0.4-0.1-0.8-0.1-1.1-0.5c0.2-1,1.4-1.2,2.1-1.6c-0.4-0.1-0.9,0.4-1.4,0c0-0.8,0.5-1.5,1.1-1.9c1.2-0.6,2.3-0.7,3.6-1
			c-0.1-0.5-0.3-1.2,0-1.7c0.4-0.6,1-0.9,1.7-0.7c0.5,0.4,0.5,1.1,0.6,1.7c0.1,0.4,0,0.9,0.3,1.2c0.3-0.2,0.4-0.8,0.8-0.6
			c0.3,0.6,0.8,1.1,0.9,1.8c-0.3,0-0.8-0.1-1.1,0.1c1.1,0.2,1.2,1.5,1.9,2.1c0.5-0.1,0.8-0.6,1.2-0.7l0.1-0.1
			c-0.3-0.2-0.6-0.5-0.8-0.8c0.6-0.4,1.3-0.7,2-0.9c0.8-0.2,2,0.6,2.4-0.5c0.2-0.6,0.1-1.3-0.1-1.8c-0.5-0.4-1.4-0.5-2-0.3
			c0.4,0.1,0.4,0.6,0.3,0.9c-0.2,0.2-0.2,0.6-0.6,0.5c-0.3-0.1-0.5-0.6-0.8-0.3c-0.5,0.4-0.7,1.2-1.4,1.2c-0.3-0.1-0.6,0-0.8-0.2
			c-0.3-2,1.8-3.2,3.1-4.2c0.9-0.4,2-1.1,3-0.4l1.5,1.7c0.7,0.6,0.9,1.5,0.6,2.3c-0.3,0.7-0.4,1.6-0.9,2.2l-2.5,2
			c-0.2,0.1-0.5,0-0.7,0.1c0.6,0.5,1.5,0.3,2.1,0.6c0.3,0.7-0.9,1.4-0.1,2c1,1.1,2.9,0.4,3.8,1.6c0.6,1.4-1.1,2.1-1.5,3.1
			C46.6,41.7,46.6,42.1,47,42.5z M39.1,53.9c-2.6-0.2-5.6,0-7.7-0.1c0.1-0.2-0.1-0.4-0.3-0.4c-0.1,0.1-0.3,0.1-0.3,0.2
			c0,0.2,0,0.5,0.2,0.5c1.9-0.2,3-0.1,4.8,0c0.6,0.1,1,0,1.7,0.1c-0.2,0.5-0.4,1.2-0.6,1.7c-0.6,0-1-0.4-1.6-0.2l0.1,0.1
			c2.5,0.4,4.8,1.4,6.6,3.1c-1.6-0.9-3.5-1.4-5.2-2.1c-1.3-0.3-2.5-0.7-3.8-1c-0.1-0.1,0-0.2-0.2-0.2c-0.2,0-0.3,0-0.4,0.1
			c0,0.2-0.1,0.4,0.1,0.5c0.1,0,0.3,0.1,0.4-0.1c1.3,0.1,2.4,0.5,3.6,1c-0.3,1.3-1.8,1.1-2.7,1.6c0.2,0.4,0.5,0.8,0.5,1.3v1.4
			c-0.5-1-2-1.2-2-2.6c-0.1-0.3,0.2-0.9-0.3-1c-1.2-0.7-2.7,0.6-3.8-0.4c-0.7-0.8-2.7-0.7-2.1-2.2c0.1-0.8,1.6-1.4,0.5-2.2
			c-0.2-0.4,0.3-0.6,0.5-0.7c0.7-0.2,1.5,0,2,0.6c0.7-0.8,2.1-0.4,2.4-1.6c-0.1-2,2.2-2.8,3.6-3.6c1.1-0.6,0.2-2,1.2-2.5
			c1-1.1,1.9-2.1,2.9-3.3c0,1.3,0.8,2.5,0.1,3.7c-1.3,0.8-2,2-3.6,2.3c-0.3,0.2-0.5,0.5-0.6,0.8c0.4,0.1,1-0.1,1.2,0.3
			c0.1,0.2-0.1,0.5-0.1,0.6c0.2-0.1,0.4-0.3,0.7-0.3c0.2,0.8,0.1,1.7,1,2.1c0.2,0.1,0.6,0.3,0.7,0.5c0.1,0.3,0,0.6,0,0.9
			c-0.7,0-1.5,0.1-2.1,0.1c0.2-0.1,0.1-0.3,0.2-0.5c-0.1-0.2-0.3-0.2-0.5-0.1c-0.2,0.1-0.1,0.3-0.2,0.5l0.2,0.1
			c-0.4,0.1-1,0.2-1.5,0.1c-0.4,0.1-0.8,0.1-1.2,0.1c0,0.1-0.1,0.1-0.1,0.2c1.9-0.1,3.9-0.2,5.7-0.2c1.6-0.6,2.8,0.7,4.3,0.8
			c1,0.7,2.3,1,3,2.2c-0.8-0.4-1.7-0.5-2.4-1.2C42.5,54.1,40.7,54.2,39.1,53.9z M42.8,59.1c-1.1-0.5-1.6-1.7-2.4-2.6
			c0.3-0.1,0.8,0,1-0.4l0.1-0.8c1.2,0.5,0.8,1.9,1.8,2.6C43.5,58.3,43.2,58.8,42.8,59.1z M18.4,55.1c-0.5,0.3-1,0.3-1.6,0.3
			c-1.4,0.7-3,0.9-4.3,1.9c0.6-1.4,2.2-1.9,3.3-2.7c0.2,0,0.5-0.1,0.7-0.2c-0.8-0.5-2-0.5-3-0.4v0c1.3,0,2.3-0.8,3.6-0.8
			c-0.4-2.2-2.8-2.8-4.2-4.5c-0.4-0.1-0.9-0.3-1.4-0.2c0-0.1-0.1-0.1-0.1-0.2c0.4-0.2,0.8-0.1,1.2,0.2c0.9,0.3,1.9,0.5,2.7,1.3
			c0.5,0.1,0.8,0.7,1.3,1c0.2,0.1,0.5,0.5,0.7,0.4c-0.4-0.6-1.1-1.1-1.4-1.6c-0.3-1.3,1.3-1.3,1.7-2.2c0.2-0.1,0.5,0,0.6,0.1
			l0.2,0.2c0.2-0.3,0.5-1.2,0.9-0.6c0.2,1.7,1.7,2.8,2.7,4.2c0.8,0.8,2.2,0.2,3,1.1c0.2,1.2,0.6,3.4-0.7,4.3c-1.3,1-3,0.2-4.3,0
			c0.2-0.4,0.2-0.9,0.6-1.1c0.2,0.1,0.5,0.1,0.6-0.1c0-0.2,0-0.3-0.2-0.4c-0.2-0.1-0.3,0-0.5,0.1c0.1,0.4-0.3,0.4-0.5,0.6
			c-0.7,1.3-1.7,2.5-2.4,3.8c-0.5-1.4-0.1-2.9,0.7-3.9c0.5-0.2,1.2-0.3,1.7-0.5C19.5,54.8,18.9,55.1,18.4,55.1z M18,36.6
			c1.2,0,2.6-0.2,3.8,0c0.3,0.1,0.6,0.3,0.8,0.6c0.2,0.5,0.4,1,0.4,1.5c-0.3-0.3-1-0.9-1.4-1.4C20.5,36.8,18.6,38.3,18,36.6z
			 M21.5,38.6c-0.2,0.2-0.5,0.2-0.7,0.1c-0.2-0.2-0.4-0.4-0.2-0.7c0-0.3,0.3-0.3,0.5-0.5c0.2,0,0.6,0,0.6,0.3
			C21.7,38.2,21.7,38.5,21.5,38.6z M19.1,38c0.3,0.1,1-0.3,0.8,0.3c0,0.5,0.4,0.9,0.9,1c0.6,0.2,1-0.6,1.5-0.9
			c0.9,0.6-0.1,1.2-0.3,1.8c-0.3,0.2-0.7,0.3-1,0.2c-0.7-0.3-1.5-0.8-1.9-1.5V38z M21.9,42.6c-0.6,0.2-1.4,0-2.2,0
			c-0.2-0.6-0.3-1.1-0.2-1.8c0.6,0.3,1.3,0.8,2.1,0.6c0.1-0.1,0.3-0.1,0.5-0.2C22.1,41.7,22.1,42.2,21.9,42.6z M20.3,42.9
			c0.6-0.2,0.8,1.2,1.4,0.4c0.1-0.3,0.3-0.7,0.7-0.8c0.7,0.1,1.3,0.6,2,0.6c-0.9-0.7-1.4-1.7-2-2.6c-0.1-0.2,0-0.5,0.1-0.7
			c0.8-1.1,1.5,0.6,2.3,0.7c0.4,0.5-0.3,1.3,0.4,1.6c0.6,0.3,1.3,0.2,1.8-0.1c0.1-0.5-0.1-1.2,0.2-1.5c1,0.5,2.2-0.1,3.4-0.1
			c0.5,0.1,1,0,1.4,0.2c0.1,0.6-0.7,1.1-0.9,1.7c-0.5,1.1-1.8,1.4-2.7,2.1c0,0.3,0,0.6,0.2,0.7c0.4-0.5,0.9-1.2,1.7-0.8
			c0.7,0.3,1.5,0.3,2,1c0.1,0.7,0.6,1.3,0.4,2.1c-0.2,0.2-0.4,0.1-0.7,0.1C32,47,31.7,46.1,30.9,46c-1.5-0.5-3.1,0.4-4.6,0
			c-1-0.7-2.2-1.4-3.6-0.9c-0.7,0.2-1.5,0.3-1.9,1.1c-0.2,0.6-0.4,1.2-0.5,1.8c-0.8-0.3-0.3-1.3-0.4-1.9c0-0.8,0.5-1.4,0.8-2l-0.1,0
			c-0.8,0.6-1.5,1.3-1.9,2.2c-0.3,0.1-0.6,0.2-0.9,0.1c-0.3-0.2-0.5-0.6-0.4-1C18.7,44.8,19,43.4,20.3,42.9z M25.8,40.3
			c0.3-0.2,0.8-0.2,1,0.1c0.1,0.6-0.1,1.1-0.3,1.5c-0.5,0-0.7-0.6-0.9-1C25.6,40.7,25.5,40.4,25.8,40.3z M35.2,40.5
			c-0.1,0.3-0.5,0.2-0.7,0.1c-0.1-0.1-0.2-0.2-0.2-0.5c0.2-0.2,0.6-0.6,0.8-0.2C35.2,40.1,35.1,40.3,35.2,40.5z M35.5,41l0.2-0.1
			l0.4-1.3c0.2,0.3,1,0.6,0.5,1c-0.4,0.6-0.5,1.6-1.4,1.8c-0.5,0.2-1,0.2-1.5,0.1c-0.4-0.2-0.7-0.6-1-0.9c0.2-0.4,0.1-0.9,0.5-1.1
			c0.2,0,0.7-0.4,0.7,0.1C34.2,41.5,35,40.9,35.5,41z M35.3,43c1.5-0.2,1.6-2.9,3.3-1.9c0.1,0.2,0.4,0.4,0.4,0.7
			c-1.6,0.4-1.6,2.3-3.1,2.9c-0.7,0.5-0.6,1.4-0.9,2.2c-0.2,0.3-0.5,0.3-0.8,0.3c-1,0-0.8-1.2-1.1-1.9c-0.2-0.5-0.7-1-1.2-1.1
			l-1.1-0.1C31.9,43,33.6,42.9,35.3,43z M26.6,51.7c-0.1,0-0.4,0.1-0.5-0.1c0-0.7,0-1.6,0-2.1c-0.1,0-0.2,0-0.2,0.1
			c-0.1,0.7-0.1,1.4-0.1,2c-0.1-0.1-0.2,0-0.3-0.1c0.1-0.8,0.3-1.9-0.3-2.6c-0.7-0.8-1.5-1.7-2.6-1.5c-0.5,0.2-1,0.5-1.5,0.6
			c0-0.5-0.2-1.1,0.1-1.5c1.1-1.4,3.3-1.2,4.4-0.2c1.5,0.3,3.1,0,4.5-0.3c0.9,0.2,1.5,1.1,2,1.9c0.1,0.3-0.2,0.5-0.3,0.7
			c-0.7,0.3-1.2-0.8-1.9-0.8c-0.9-0.1-1.9,0.1-2.5,0.8C26.5,49.4,26.5,50.6,26.6,51.7z M19.1,57.8c0.1-0.1,0.4-0.2,0.6-0.1
			c0.2,1.9,0.5,3.8,0.9,5.6c-0.2,0.4-0.5,0.8-0.9,0.9c-0.4-0.5-0.3-1.2-0.4-1.9C18.9,61,19.1,59.3,19.1,57.8z M20.4,57.3
			c0.4,0.2,0.9,0.2,1.4,0.2c0,0.5-0.2,0.9-0.3,1.3c-0.4,0.1-0.6-0.5-0.8-0.7C20.5,57.8,20.3,57.6,20.4,57.3z M20.9,59.1
			c0.6,0.5,1.3,1,2,1.4v0.3l-1,1.7c-0.3-0.2-0.7-0.7-0.9-1.2c-0.3-0.6-0.2-1.4-0.2-2.2H20.9z M23.5,61.5c0.3,0.2,0.2,0.6,0.5,0.7
			c0.2-0.1,0.2-0.4,0.5-0.4l0.5,0.6c0.2-0.1,0.4-0.7,0.7-0.5c0.3,0.4,0.5,0.9,0.6,1.3c-1.1-0.5-2.9,0.4-3.7-0.9
			C22.9,62.2,23,61.6,23.5,61.5z M23.7,60.4c-0.8-0.6-1.1-1.6-1.1-2.6c0.4-0.2,1-0.3,1.5-0.3c0.8-0.1,0.3,1.1,1,1.1
			c0.3-0.3,0.7-0.8,0.7-1.3c0.7,0,1.4,0.3,1.9,0.8c0,0.9-0.3,2-1.3,2.5C25.5,61.1,24.4,61,23.7,60.4z M27.1,61.9
			c0.3-0.9,1.2-1.8,2.2-1.8l0.1,0.1c0,0.9,0,1.8-0.5,2.6c-0.4,0.3-0.8,0.6-1.2,0.7C27.4,63.2,26.9,62.6,27.1,61.9z M41.6,50.8
			c0-0.1,0-0.2,0.1-0.3c1.1,0.1,2.1,0.7,3.2,0.9c0.7,0.2,0.5,1,0.7,1.5c0.1,0.4,0.2,0.9,0.1,1.4c-1.7,0.5-2.6-1.5-4.1-1.5
			C41.8,52.2,42.1,51.4,41.6,50.8z M28.4,30.9c-0.8-0.6,0-2.2-1.4-2.4c-0.3-0.2-0.3-0.6-0.3-0.9c0.8-0.1,2-0.7,2.4,0.3
			c0.2,0.5,0.2,1,0.1,1.6C29.1,30,28.7,30.4,28.4,30.9z M30.7,27.5c0.6,0.4,1.5,0.2,2.1,0.7c0.1,0.5-0.3,0.8-0.6,1
			c-0.8,0.2-1.9,0.1-2.4,0.8c0.1-0.5,0.3-0.8,0.6-1.2c-0.3-0.3-0.7-0.4-0.8-0.8c0-0.4-0.2-1.1,0.2-1.4l0.6-0.4
			C30.3,26.5,30.1,27.3,30.7,27.5z M45.8,33.9c0.4-0.9,1-1.7,1.2-2.6h0.1c2,1.8,4.7,3.1,5.8,5.7c0.4,1,0.8,2.1,1.1,3.1
			c-1.1-0.8-2.1-1.9-2.6-3.1l-0.1,1.6C49,37.8,48,35,45.8,33.9z M14.7,24.3c0.2-0.8,1-1.3,1.7-1.6c1.6-0.5,3.4,0.1,4.3,1.4
			c0.1,0.4,0.5,0.7,0.5,1.1c-1.7,0.9-2.6-1.5-4.2-1.1c-0.7,0.5-1.2,1.3-1.1,2.1c0.8,1.7,3,0.1,4.2,1.3c0,0.5-0.4,0.6-0.6,0.9
			c-1.6,0.3-3.2,0.4-4.3-0.9C14.3,26.8,14.4,25.3,14.7,24.3z M5.4,50.6v-0.1c0.7-0.7,1.6-1.6,1.4-2.7c-0.2-0.6-1.1-0.9-0.7-1.7
			c0.7-1.2,2.2-1.4,3.2-2.3c-1.4,0.2-2.6-0.3-3.4-1.5c0-1.5,2-1.5,2.2-2.9c0.7-1.6-1.2-1.7-1.8-2.5v-0.1c0.4-0.1,0.7,0.1,1.1,0.2
			c1-0.2,2.1-0.1,2.9-0.8c0.1-0.7-0.5-1.3-0.2-2.1c0.1-0.3,0.5-0.5,0.7-0.8c-0.3-0.3-1,0.1-1.2-0.5c-0.1-0.9,0.7-1.6,1.3-2.2
			c-0.6-0.3-1.2-0.5-1.6-1c-0.2-1,0.8-1.6,1.2-2.4c0.4-0.5,0.3-1.2,0.9-1.6c2.1-0.2,2.5,2.3,4.2,3.1c0.2,0.1,0.1,0.4,0,0.6l-0.5,0.4
			c1.4,0,2.8-0.2,4.1-0.6c-0.4,0.4-0.8,0.9-0.7,1.6c-0.7,0.8-1.7,0.8-2.5,1.5c0.6,0,1,0.2,1.3,0.6c0,0.3-0.4,0.6-0.7,0.8
			c-1.3,1-2.6,1.8-4.2,2c-0.2,0.2-0.5,0.3-0.8,0.6c1.6-0.1,3.1-0.7,4.5-1.3c0.1,1.5-1.5,2.8-2.7,3.4c-0.9,0.3-2.1-0.2-3,0.2
			c1.2,0.3,2.3,0.3,3.4,0.6c0.5,0.3,0.5,1,0.4,1.4c0,0.2-0.1,0.3-0.1,0.5c0.1,0,0.3-0.1,0.5-0.1c0.2,0.2,0.2,0.6,0.5,0.8l0.7-0.9
			c-0.1,0.7,0,1.5,0.5,1.9c0.5-2.6-0.6-5.4,0.4-7.9c1.4-1.8,1.9-4.1,3.9-5.6c0.8-1,1.3-2.4,2.5-2.8c-1-0.6-1.3-1.7-1.8-2.7
			c-0.5-1.3-0.9-2.7-1.3-4c1.3,0.4,2,1.6,2.3,2.8c0.3-0.6,0-1.5-0.5-2.1c-1.3-1.5-3.3-1.7-4.5-3.4c-0.3-0.3-0.6-0.7-0.9-1
			c1.3,0.4,1.8-1.2,2.9-1.4c1.4,0.3,2.3,1.8,2.9,3c1.7,3,2.7,6.3,3,9.8c0.7,1,2.1,1.6,2.9,2.8c0,0.6,0,1.2-0.3,1.7
			c-0.1,0.1-0.2-0.1-0.2,0c0.3,0.5,1,0.8,1,1.3c-0.1,0.3-0.2,0.8-0.5,0.9c-0.2,0.1-0.3-0.1-0.5,0c0.1,0.6,0.7,1.3,0.6,2
			c-0.1,0.2-0.5,0.1-0.7,0.1c-0.2-0.1-0.5-0.3-0.7-0.5c0.2,0.9,1.4,1.8,0.5,2.8c-0.2,0.4-0.7,0.5-1,0.7c-1,0.1-2-0.1-2.5-0.9
			c-0.3-0.9,0.4-1.7,0.8-2.5c-0.6,0.1-0.4-0.6-0.6-0.8c-1-1.1-2.7-1.2-4.1-0.8c-0.1,0.2-0.3,0.1-0.3,0.3c0.3,0.1,0.7-0.1,1-0.2
			c0.9,0.1,1.9-0.2,2.6,0.7c0.4,0.5,1,1,0.4,1.6c-0.2,0.1-0.3,0.4-0.6,0.2c-0.8-0.4-0.7-2-1.9-1.6c-0.7,0.3-0.9,1.5-1.8,1.2
			c-0.5-0.2-1.2-0.5-1.6-0.2v0.4c0.3,0.7,1.5,1.4,0.8,2.3c-0.2,1.5,0.7,2.6,1.2,3.7c0.2,0.7-0.2,1.1-0.6,1.5c-0.1,0.1-0.4,0.1-0.6,0
			c-0.6-0.3-0.8-0.8-1.1-1.3c-0.2,0.8,0.1,1.5,0.6,2.1c0,0.4-0.2,0.7-0.2,1.1h-0.1c-1.5-1.5-2.5-3.4-4.5-4.1
			c-0.7-0.6-1.5-0.9-2.3-1.4c-0.1,0-0.2,0.2-0.2,0.3c0.3,0.2,0.7,0.2,1,0.4c1.5,0.8,3.7,1.9,3.5,4c-1.6-0.9-3.1-1.9-4.8-2.6
			c-0.1,0.1-0.2,0.1-0.3,0.2c1.6,1.5,3.9,1.5,5.5,3.1c-0.2,1.1-0.7,2.4-2,2.7c-1.2-0.3-2.6-1.7-3.9-0.5C8,49,6.8,50.1,5.4,50.6z
			 M4.6,85.3c-0.5-0.5-0.4-1.4-0.2-2c0.2-0.7,0.8-1.3,1.5-1.5c0.1,0,0.3-0.1,0.4,0.1C6,83,5.4,84,4.9,85C4.8,85.1,4.7,85.3,4.6,85.3
			z M10.9,87.4c0,0.1,0,0.2-0.1,0.2c-0.6-0.3-0.8-1-1-1.7c-0.3-1.3,0-2.6,0.7-3.5c0.2,0,0.2,0.2,0.3,0.3
			C10.9,84.3,11.1,85.9,10.9,87.4z M15.1,87.7c-0.1,0.1-0.2,0.2-0.4,0.2c-1-1.3-0.8-3.2-0.3-4.6c0.2-0.5,0.8-0.4,0.9,0.1
			C15.8,84.7,15.9,86.5,15.1,87.7z M19.6,87.4c-0.3,0.1-0.6-0.1-0.7-0.3c-0.8-1.4-0.8-3.6,0.2-4.9c0.1-0.1,0.3-0.2,0.5-0.1
			c0.3,0.4,0.5,0.9,0.6,1.4C20.3,84.8,20.4,86.4,19.6,87.4z M21,73c-0.6-0.1-0.8-0.8-1.2-1.2c-0.2-0.2-0.3-0.4-0.6-0.5
			c0.1,0.8-0.1,1.6-0.2,2.3c-0.4,0.1-0.8,0.1-1.2-0.1c-0.5-0.6-0.3-2-1.6-1.6c0.1,0.7,0.6,1.5,1.1,2.1c0.6,0.7,1.5-0.7,1.7,0.5
			c0.1,1.7,1.4,3.1,2,4.6c0.2,0.7,0,1.4-0.2,2.1c-0.2-0.1-0.5-0.3-0.7-0.3L20.1,81c0.3,0.3,1,0.3,1.1,0.9c0,0.8-0.5,1.4-0.3,2.2
			c-0.3-0.9-0.2-2.4-1.5-2.8c-1.3,0.4-1.5,1.8-1.7,3c-0.1-1-0.4-2.4,0.4-3.2c0.3-0.3,0.7-0.5,0.9-0.7c-0.3-0.2-0.7-0.2-1.2-0.2
			c0.2-0.8,0.3-1.8-0.3-2.5c-0.5-0.5-0.9-1.4-1.7-1.2c-0.1,0-0.2,0.1-0.3,0.2c0.9,1.1,2.1,2.3,1.6,3.9c-0.2,0.6-0.9,0.4-1.4,0.4
			c-0.2,0.2-0.1,0.3-0.1,0.6c2.1,0.4,0.8,2.9,1.1,4.4c-0.2,0.3-0.2,1-0.8,1c0.3-1.3,0.3-2.8-0.2-4.1c-0.2-0.2-0.4-0.6-0.7-0.7
			c-0.5-0.2-0.9,0.2-1.2,0.6c-0.2,0.5-0.4,1-0.5,1.5l-0.1-0.1c0-0.8-0.6-1.9,0.3-2.5c0.4-0.1,0.8-0.1,1.1-0.3
			c0.1-0.2,0.2-0.3,0.2-0.6c-0.3-0.1-0.8,0.1-1-0.2c-0.7-1.1,0.6-2,0.2-3.1c-0.1-0.8-0.3-1.5-0.5-2.3c-0.1,0-0.1,0.2-0.2,0.2
			c-0.2,0.6-0.5,1.1-0.8,1.6c-0.3,0.4-0.7,0.6-1.1,0.9c1.2,0.8,1.2,2.2,1.5,3.5c-0.2,0.2-0.4,0-0.6,0c-0.5-0.2-1.1-0.6-1.6-0.4
			c1.3,0.7,1.7,2,1.7,3.5c0.1,0.6,0.1,1.3-0.2,1.7c-0.3,0.3-0.5,0.6-0.9,0.5c0-1.6,0.1-3.1-0.4-4.6c-0.2-0.2-0.6-0.5-0.9-0.2
			c-0.9,0.9-1.2,2.2-1.1,3.5c0,0.3,0.1,0.5,0.1,0.8c-0.4-0.1-0.8-0.3-1-0.7c-0.3-1.2,0-2.4,0-3.7c0.1-0.5,0.5-0.8,1-0.9
			c0.2-0.1,0.6,0,0.8-0.1c-0.4-0.3-0.9-0.4-1.4-0.3c0.3-1.7,1.4-3.2,1.4-5c-1.7,1.9-2,4.6-2.5,7.1c-0.1,1,0.1,1.6,0.2,2.5
			c0.1,0.3-0.4,0.5-0.6,0.6c-0.6,0-1.1-0.3-1.4-0.8c0.4-1.1,1.1-2,1.1-3.2c-0.1-0.2-0.3-0.5-0.6-0.5c-0.6-0.1-1,0.3-1.4,0.5
			c-0.2-0.6,0-1.3,0-1.9c0.2-0.5,0.3-1,0.8-1.3c0.6-0.1,1,0.9,1.6,0.2c-0.5-0.5-1.6-0.9-1.3-1.8c0.7-0.9,1.4-1.7,1.8-2.8
			c0.7-1.5,1.1-3.1,2.6-4.1l2.3-1.5c0.9,0.4,1.6,1,2.4,1.6c-0.1-0.7-0.7-1.4-1-2c-0.4-0.5-0.9-1-1.4-1.4c-1.2,1.6-2.7,3.8-4.7,4.5
			c-0.1-2.1,0-4.5-0.1-6.5L7.1,71c-0.5-1.7-0.6-3.5-0.8-5.3c-0.1-1,0.3-1.7,0.8-2.5c-0.8-2.2-1.5-4.4-0.7-6.8c0.2-0.7,0.6-1.3,0.9-2
			c-0.4,0-0.8,0.6-1.3,0.4c0.2-1,0.9-1.9,1.3-2.8c0.6-0.9,1.4-1.8,2.1-2.7l-0.7,0c0.3-0.6,0.8-1.3,1.4-1.4c0.8-0.1,1.3,0.6,1.8,1.2
			C10.2,50,9,51.7,8.4,53.3c0,1.3,1.2,2.1,2.1,2.9c-0.2,0.9-0.1,2,0.6,2.7c1,1,2.2,1.7,3.5,2.1c0.8,0.2,1.3-1,1.9-0.2
			c0.6,1.3,0.5,2.9,0.8,4.4c0.8,2.6,2.3,4.9,4.2,7C21.5,72.5,21.3,72.7,21,73z M29,66.9c0,0.5,0.4,0.8,0.5,1.2
			c-0.5-0.2-0.8-0.6-1.3-0.6c-0.2,0.4,0.3,0.9-0.2,1.2c-1.2,0.1-2-0.6-3-1.1c-0.1,0.4,0.3,1-0.2,1.2L21.8,69
			c-0.6-0.2-1.4-0.7-1.4-1.4c-0.1-0.4,0-0.9,0.1-1.2c0.1,0.1,0.3,0.4,0.5,0.5c0.4,0.3,0.5,0.8,1,0.7c0.3-0.2,0.1-0.7,0.5-0.9
			c0.2-0.1,0.6,0,0.8,0c0.1-0.5,0.1-1.1-0.4-1.4c-0.8-0.2-1.4-1-2.3-0.9c2.3-2.1,5.4-0.1,7.9,0.5c0.8,0.2,1,1,1.2,1.7
			C29.4,66.7,29.2,66.8,29,66.9z M29.1,59.7c-0.6,0-0.6-0.7-0.8-1.2c0-0.2-0.2-0.4-0.1-0.6c0.5,0.3,1.2,0.2,1.7,0.2
			C29.8,58.8,29.5,59.3,29.1,59.7z M31,68.4c-1.2-0.6-1.1-2-1-3.2c0-0.2,0.2-0.3,0.3-0.3c0.2,0,0.4,0,0.6,0.1c0,1-0.1,2,0.1,3
			C31,68,30.9,68.2,31,68.4z M31,64c0,0.5-0.5,0.4-0.8,0.5l-0.1-0.1c-0.2-1.7,0.5-3.2,0.9-4.7C32.1,61,30.5,62.4,31,64z M37.7,61.5
			c-0.1,0.4,0.3,1.1-0.4,1.1c-0.3,0-0.5,0.1-0.7,0.2c0,0.4,0.5,1,0,1.3l-0.8,0.2c-0.2,1.2,0.6,2.1,0.6,3.4c0.2,0.4,0.5,0.7,0.9,1.1
			c-0.5,0-1.2-0.3-1.5-0.8c-0.4-0.5-0.3-1.2-0.5-1.8c-0.2-0.5-0.7-0.9-0.7-1.5l-0.1-0.1c-0.2,0.2-0.5,0.4-0.7,0.3
			c-0.1-0.1-0.2-0.2-0.4-0.2c-0.2,0.4,0,1-0.2,1.3c-0.8-0.1-1.4-1-1.7-1.7c0-0.3,0.4-0.3,0.6-0.5c0.8-0.3,0.6-1.5,1.5-1.3
			c0.5,0.4,0.7,1,0.9,1.5l0.1-0.1c-0.3-1.4,0.3-2.7,0.2-4.2c1.2,0.2,1.4-1.5,2.6-1.4c0.1-0.1,0.3-0.1,0.2-0.3l-0.6-0.7
			c0.3-0.2,0.5-0.1,0.8,0c0.7,0.2,1.4,0.6,2.1,1c0.3,0.4,0.7,0.8,0.7,1.3c-0.4,0.5-1.2,0.2-1.5,0.7c0,0.4,0.3,0.9-0.1,1.1
			C38.5,61.5,38.1,61.2,37.7,61.5z M40.9,72.5c-0.4,0-0.5-0.4-0.6-0.7v-1.5c0.4-0.6,0.4-1.5,1.1-1.8c0.3,0.2,0.3,0.6,0.4,0.8
			C41.8,70.5,41.8,71.7,40.9,72.5z M45.5,72.9c-0.3,0.1-0.6-0.1-0.7-0.4c-0.3-0.9-0.3-2.3,0.2-3.1c0.2-0.4,0.8-0.6,1-0.1
			C46.6,70.5,46.4,72,45.5,72.9z M50.3,73.3c-0.1,0.2-0.3,0.3-0.6,0.2c-0.7-0.6-0.5-1.6-0.6-2.4c0.2-0.6,0.2-1.3,0.7-1.7
			c0.4,0,0.5,0.2,0.7,0.5C51.2,71,51,72.4,50.3,73.3z M53.8,73.3c-0.3,0.2-0.5-0.2-0.6-0.5c-0.3-1.2,0.1-2.7,1-3.5
			c0.1,0,0.4-0.1,0.4,0.2C54.9,70.9,54.5,72.3,53.8,73.3z M58.2,52.2c0.3,0.6,1,1.1,0.8,1.9c-0.6,1-1.3,2-1.1,3.4
			c-0.2,0.4-0.2,0.8-0.4,1.2c-0.2,0-0.3-0.4-0.6-0.6c-0.5-0.9-1.1-1.7-1.8-2.5c0,0.1,0.1,0.4,0.2,0.5l1,2.2
			c-0.4,0.2-1.1,0.1-1.4,0.6c0.1,2,2.6,3.3,1.9,5.5c-0.4,0.2-0.8-0.2-1.1-0.4c-0.8,1.5-0.8,3.6-0.2,5.2c0.2,1,0.2,2.3-0.5,3.1
			c0.2-1,0.5-2.2-0.1-3c-0.2-0.3-0.5-0.3-0.8-0.2c-1.1,0.6-1.5,1.9-1.6,3c-0.6-0.4-0.4-0.9-0.3-1.5l0.3-2.3c0.3-0.4,0.8-0.5,1.2-0.8
			c-0.7-0.4-0.7-1.2-0.5-1.8c0.5-1,0.1-2.3-0.2-3.2c-0.3,1-1.2,2-1,3.1c0.2,0.7,0.2,1.4,0,2.1c-0.4,0-0.8-0.4-1.2-0.4
			c0.1,0.3,0.4,0.7,0.6,1c0.6,1.2,1,3,0.2,4.2c0.2-1,0-2.2-0.6-2.9c-0.2-0.3-0.6-0.4-0.9-0.3c-1.2,0.7-1.3,2.1-1.2,3.4
			c-0.3-0.1-0.6-0.3-0.8-0.6c-0.2-0.8-0.4-2,0.2-2.7c0.6-0.6,1.3-1,1.9-1.7c-0.4-0.1-0.9-0.1-1.3-0.2c0-1,0.3-2.1,0.1-3.2
			c-1,0.8-1.4,2-1.1,3.3c0,0,0.1,0.1,0.1,0.1c-0.5-0.1-1.1-0.4-1.6-0.6c0.1,0.6,0.8,0.8,1.2,1.2c0.6,0.6-0.2,1.4-0.4,2
			c-0.2-0.6-0.4-1.4-1.1-1.5c-0.5,0-1,0.3-1.3,0.8c-0.5,0.9-0.5,1.9-0.4,2.8c-0.2,0.1-0.6,0.1-0.7-0.2c0-0.8,0.1-1.6,0.1-2.5
			c0.1-0.8,0.4-1.7,1-2.2c0.4-0.2,0.7,0.1,1,0.1c0.1-0.2-0.1-0.3-0.1-0.5c-0.3,0-0.9,0.2-1.1-0.1c-0.1-1.2,1.5-2.2,0.2-3.3l-0.7-0.6
			c0,0.7,0.5,1.5,0.2,2.2c-1.2,1.8-1.2,4.1-1.1,6.5c-0.2,0.5-0.3,1.2-1,1.3c-0.2,0-0.5,0.1-0.7,0.1c1.2-1.2,1.5-3.1,0.8-4.4
			c-0.2-0.3-0.4-0.5-0.8-0.5c-0.3,0-0.6,0.3-0.7,0.6c-0.8,1-1,2.7-0.6,3.9c-0.9-0.3-0.9-1.4-1.2-2.2c0-1.2,0.3-2.3,1-3.2
			c0.7-0.7,1.8-0.7,2.7-0.3c0.2-0.3-0.2-0.5-0.3-0.8c-0.9-0.6-1.7,0.3-2.5,0.4c-0.6,0.4-0.6,1.2-1,1.7c-0.2-0.6-0.4-1.9,0-2.6
			c1.5-0.5,1.1-2.1,1.6-3.1c0.4-0.8,0.9-1.6,1.6-2.1c0.5-0.3,1,0.1,1.5,0.2c0.1-0.6,0.6-0.9,1-1.1c0.2,0,0.6,0,0.6,0.3
			c0,0.3,0,0.6-0.1,0.8c0.5-0.1,1.2-0.2,1.5-0.8c0.3-0.4,0.3-0.9,0.8-1.2c0.6,0.2,0.6,1.2,1.3,1.1l0.1-0.1c-0.4-0.3-0.6-0.8-0.4-1.3
			c0.4-1.1,1.6-0.8,2.2-1.5c0.4-0.8,1-1.8,2-1.9c-0.3-0.3-0.5-0.6-0.3-1c0.2-0.4,0.7-0.7,0.6-1.2c-0.2-0.6-1-1.1-0.6-1.9
			c0.8-1.3,1.9-2.7,2.1-4.3c0.2-0.3,0.4-0.2,0.6-0.1c0.3,0.2,0.5,0.7,0.8,0.5c0.2-0.3,0.3-0.9,0.9-0.8c0.5,0.3,0.8,0.8,1.2,1.2
			c-0.1-2.1-2.8-3.5-1.8-5.7c0.6-0.8,1.7-0.4,2.3-1.2c0.3-0.3,0.5-0.6,0.6-0.8h-0.1c-1.3,0.6-2.4,1.5-4,1.2c0.2-1.6-0.6-2.8-1.6-3.9
			c1.3-0.3,2,1.5,3.2,1.8c0.4,0,0.9,0.1,1.2-0.1c-0.7-0.5-1.6-1-1.6-1.9v-1.4l0.1-0.1c-0.1-1.5-0.7-2.9-2.2-3.5
			c-0.2-0.1-0.4-0.3-0.7-0.2c0.8,0.5,1,1.4,1.3,2.2c-1.8-0.4-3-2.1-4.8-2.3c-0.7-0.3-0.1-1.2-0.5-1.7c-1-0.5-0.6-1.6-0.9-2.4
			l-0.7-0.6c0.6-0.6,1-1.5,2-1.3c0.7,0.5,1.5,0.8,2.3,1c1.5,0.9-0.1,3.3,1.7,3.8c0.6,0.3,1.3,0.7,1.6,1.3c0.4,0.7,1.1,0.9,1.7,1.4
			c1.8,1.9,4.4,3.4,4.6,6c0.5-0.7,0.2-1.7-0.1-2.4c-1.5-1.8-3.3-3.2-5.1-4.6C56,31.5,55.9,31.2,56,31c0.2-0.3,0.5-0.7,0.3-1.1
			c-0.8-0.7-2.3-1.2-1.9-2.5c0.1-0.2,0.2-0.5,0.2-0.7c-0.4-0.3-0.5-0.8-0.3-1.2c0.1-0.2,0.4-0.2,0.5-0.2c1.4,0.9,0.9,2.8,2.6,3.5
			c1.5,1.1,2.7,2.6,3.8,3.9c0.8,1.7,1.3,3.6,2.4,5.2c-0.4,3-0.6,6.2-2,8.9c-0.8,1.3-1.8,2.6-1.8,4.2C59.5,51.6,58.8,51.8,58.2,52.2z
			 M72.3,52.4c-0.2,0.8-0.6,1.5-1.4,2.1c-0.3,0-0.2-0.3-0.3-0.5c-0.2-0.9,0.2-1.7,0.9-2.2c-0.4-0.2-1-0.1-1.3,0.2
			c-0.7,0.6,0,1.3,0.2,2c0.1,1.1-0.2,2.5,0.2,3.6h-0.1c-1.6-1.6-2.4-3.6-3.9-5.2c-0.1-0.1-0.1-0.2-0.2-0.3c0.2,2,2.6,3.3,3.2,5.3
			l0.4,0.9c-2.8,1.8-6.5,0.6-9.7,0.5c-0.3-0.4-0.5-0.8-0.3-1.3c0.4-0.5,1.1-0.8,1.3-1.4c-0.1-0.8-0.8-1.6-0.1-2.3
			c0.9-0.9,2.2-0.9,3.3-1.3c-0.1-0.8-0.7-1.6-0.2-2.3c0.8-0.1,1.5,0.7,1.9,1.3c-0.5-2.9,1-5.2,2.2-7.5l0.6-1.4
			c-0.4-0.7-0.8-1.4-1.3-2.1c-1.7,1-1.2,3.2-2.4,4.5c-0.8,0.9-1.7,2-2.1,3.3c-0.3,0.7-1,1.1-1.6,1.7c0.5-1.3,0.7-2.8,1.5-3.9
			c0.4-0.5,0.8-0.7,1.3-1c-0.3-0.2-0.7-0.5-0.8-0.8c0.1-0.9,0.8-1.6,0.5-2.7c-0.2-0.5-0.2-1.2-0.1-1.8c0.2-0.4,0.6-0.4,0.9-0.6
			c0.4,0.1,0.9,0.2,1,0.6c0.1,0.2,0,0.5,0.1,0.6c0.9-0.5,1.9-1.1,2.8-1.6c-0.7-1.6,0.5-2.9,1.1-4.3c0.4-0.9,1.5-1,2.2-1.6
			c-0.7-0.3-1.4-0.1-2,0.3c-1,0.5-0.5,2.2-1.9,2.3c0.2-2,1.6-4,3.6-4.5c1.1-0.2,2.1,0.4,2.8,1.3c1.5,1.9,0.4,4.8,1,7.1
			c0.5,0.8,0.7,1.7,0.9,2.7c-0.8,1.2-1,2.6-2.3,3.6C71.2,46.8,73.4,50.1,72.3,52.4z M77,49.3c-0.4-0.5-0.7-1.4-1.4-1.2
			c-1,0.7-1.6,1.8-2.2,2.8c0.6-1.1,0.5-2.5,0.3-3.8c0.7-1.8,2.2-3.2,3-4.9c1,1.9,2.3,4.8,0.6,6.8L77,49.3z M95.4,45.1
			c-0.3,0-0.7,0.2-1,0.1c-1.2-1.2-3.7-1.7-3.1-3.9c0.3-0.8,0.3-1.6,0.3-2.5c0.8,1-0.6,2.4,0.3,3.5c0.5,0.4,1,0.7,1.6,0.9
			c0.1-1.2-0.4-2.2-1.1-3.1c0.4,0,0.9,0.3,1.4,0.5c-0.2-0.6-0.6-1.3-0.9-1.9c-0.6-0.8-1.4-1.6-1.9-2.5c2.2,1,4.3,3.1,4.6,5.6
			C95.7,42.8,96.6,44.3,95.4,45.1z"/>
		<g>
			<path d="M19.1,51.4c-0.1,0.1-0.4,0.1-0.5,0c0-0.2,0-0.5,0.2-0.5C19.1,50.8,19.2,51.1,19.1,51.4L19.1,51.4z"/>
			<path d="M18,52.1c0.1,0.2-0.1,0.3-0.2,0.3c-0.1,0-0.4-0.1-0.3-0.3c-0.1-0.1,0.1-0.2,0.2-0.3C17.9,51.7,18,51.9,18,52.1L18,52.1z"
				/>
			<path d="M20.6,52.2c0.1,0.2-0.1,0.3-0.2,0.3c-0.1-0.1-0.3-0.1-0.3-0.2c0-0.2,0-0.3,0.2-0.4C20.5,51.8,20.6,52,20.6,52.2
				L20.6,52.2z"/>
			<path d="M33.1,52.5c-0.2,0-0.3,0.2-0.5,0.1c-0.2-0.1,0-0.3,0-0.5C32.9,51.9,33.3,52.1,33.1,52.5L33.1,52.5z"/>
			<path d="M22.1,53.6c-0.1,0.1-0.2,0.2-0.4,0.1c-0.3,0-0.1-0.3-0.1-0.5C21.8,53,22.3,53.3,22.1,53.6L22.1,53.6z"/>
			<path d="M19.1,54.1c0.1,0.2,0,0.4-0.2,0.5c-0.3,0-0.3-0.2-0.3-0.5C18.7,53.8,19,54,19.1,54.1L19.1,54.1z"/>
			<path d="M29.4,54.3c0.1,0.2-0.1,0.3-0.3,0.4c-0.3-0.1-0.3-0.2-0.2-0.5C29,54.1,29.3,54.1,29.4,54.3L29.4,54.3z"/>
			<path d="M35.1,54.7c0,0.2,0,0.3-0.2,0.4c-0.1-0.1-0.4,0-0.3-0.3c0-0.1,0-0.2,0.1-0.2C34.9,54.6,35,54.6,35.1,54.7L35.1,54.7z"/>
			<path d="M23.1,55.3c-0.1,0.1,0,0.5-0.3,0.4c-0.1,0-0.2-0.1-0.3-0.1c0-0.2,0-0.3,0.2-0.4C22.8,55.1,23,55.2,23.1,55.3L23.1,55.3z"
				/>
			<path d="M30.1,56.1l0,0.4c-0.2,0.1-0.6,0.1-0.5-0.2c0-0.1,0-0.2,0.1-0.2C29.8,56,30.1,55.9,30.1,56.1L30.1,56.1z"/>
			<path d="M34.9,50.8c-0.2,0.1-0.5,0.1-0.5-0.2c0-0.1,0-0.2,0.1-0.2C34.8,50.2,35.2,50.5,34.9,50.8L34.9,50.8z"/>
			<path d="M17.9,49.7c0,0.1,0.1,0.3-0.1,0.4c-0.2,0-0.5,0-0.4-0.2c-0.1-0.1,0.1-0.2,0.2-0.3C17.7,49.6,17.8,49.6,17.9,49.7
				L17.9,49.7z"/>
			<path d="M30.4,42.8c-1.2,0.8-2.6,1-3.9,1.4c-0.5-0.3-1-0.6-1.5-1c0.4,0,0.9,0.4,1.3,0.6c1.6,0.2,2.7-0.8,4-1.2
				C30.3,42.6,30.5,42.7,30.4,42.8L30.4,42.8z"/>
			<path d="M25.4,44.1c0.1,0.2,0.2,0.5,0.5,0.6c0.5,0.1,1.2-0.2,1.7,0.1c-1,0.5-2-0.1-2.8-0.8c-1-0.3-1.9,0.2-2.9,0.2
				c0.9-0.4,2-0.8,3-0.6L25.4,44.1L25.4,44.1z"/>
			<path d="M31.6,38.3c0,0.4-0.5,0.5-0.7,0.6c-0.7,0-1.1-0.4-1.7-0.6l0.1-0.2l1.1,0.5L31.6,38.3L31.6,38.3z"/>
			<path d="M73.8,40.7l-0.6,1.1L73,43.5c-0.5,0.9-1.4,1.7-1.4,2.9c-0.2,1.2-1.5,2-2.3,2.9c0.7-2.1,2.3-4.2,2.9-6.5l0.2-2.4
				c0.6-0.5,1.3-0.7,2-1.2C74.3,39.7,74.1,40.3,73.8,40.7L73.8,40.7z"/>
			<path d="M26.3,37.6c-0.3,0.5-0.8,0.5-1.3,0.6c-0.5-0.1-1-0.3-1.3-0.8c0.3-0.3,0.6,0.2,0.8,0.2c0.6-0.1,1.3,0.2,1.6-0.4
				C26.3,37.4,26.3,37.5,26.3,37.6L26.3,37.6z"/>
			<path d="M33.9,32.5c-0.4,0.3-0.8,0.7-0.6,1.2c0.1,0.3,0.4,0.5,0.6,0.6c-0.7-0.1-1.4,0.2-1.7-0.5c0-0.3,0.2-0.6,0.3-0.9
				C33,32.7,33.4,32.5,33.9,32.5L33.9,32.5z"/>
			<path d="M37.1,36c0.3,0.6,0.7,1.1,1.3,1.5v0.4c-0.8-0.5-1.4-1.5-2.5-1.2c-0.6,0-1.1,0.4-1.6,0.6c0-0.2,0-0.6,0.1-0.9
				c0.6-0.7,1.6-0.7,2.5-0.6L37.1,36L37.1,36z"/>
			<path d="M23.8,29.4c0.4,1.4-1.2,3,0.5,3.9c-0.9-0.8-2.3-1.3-3.5-0.8L20,33.1c-0.1-1.2,1.3-0.6,1.8-1.2c0.3-0.1,0.6,0,0.9,0
				C22.6,30.8,23.1,30,23.8,29.4L23.8,29.4z"/>
			<path d="M31.2,19.3c0-0.3,0.2-0.7,0.4-1C31.6,18.5,31.4,18.9,31.2,19.3L31.2,19.3z"/>
		</g>
	</g>
</g>
</svg>
