<?xml version="1.0" encoding="utf-8"?>
<!-- Generator: Adobe Illustrator 18.1.1, SVG Export Plug-In . SVG Version: 6.00 Build 0)  -->
<!DOCTYPE svg PUBLIC "-//W3C//DTD SVG 1.1//EN" "http://www.w3.org/Graphics/SVG/1.1/DTD/svg11.dtd">
<svg version="1.1" xmlns="http://www.w3.org/2000/svg" xmlns:xlink="http://www.w3.org/1999/xlink" x="0px" y="0px"
	 viewBox="0 0 100 100" enable-background="new 0 0 100 100" xml:space="preserve">

	 
<g id="AREA_1">
	<g>
		<path d="M92.8,57.1c0.6,0.7,1.4,1.6,2.2,2.2l0.3-0.2c-0.3-0.4-0.6-0.9-1-1.3c-0.9-2-2.2-4-2.5-6.1c0.8,0.8,1.3,2.4,2.4,2.6
			l0.3-0.2c-0.3-0.1-0.6-0.2-0.9-0.4c-1-1.2-1.5-2.5-2.2-3.8c-0.3-0.7-0.8-1.2-0.8-2c0.1-0.1,0.2-0.3,0.4-0.3
			c0.9,0.6,1.4,1.7,2.4,2.2l0.1-0.1c-0.3-0.4-0.6-0.8-0.8-1.2c-0.6-1.6-2.7-2.6-2.9-4.3c0.8,1,1.9,1.5,2.9,1.8l0.1-0.1
			c-0.9-2.3-4-2.3-5.1-4.5c0.8,0.5,1.8,0.5,2.7,0.9l0-0.1c-1.4-1.4-3.1-2.9-4.1-4.5c1.1,0.1,2.1,1.3,3.2,1.4l0.1-0.1
			c-1.1-1.1-2.1-2.3-3.3-3.1c-0.3-0.4-0.7-0.7-0.9-1.1c1,0.4,2.1,0.7,3.2,0.8c0-0.6-0.8-0.7-1.2-1c-0.9-1.2-2.6-0.8-3.1-2.3
			c0.2-0.9-0.7-0.2-1-0.5c0.3-0.5,0.7-0.9,1.2-1.3c0.2-0.2,0.5-0.5,0.4-0.8c-1.1,0.3-2.2,0.3-3.3,0.5c2.3-1.8,2.8-4.6,4-7
			c2.2-2.5,4.5-4.2,6.4-6.8c0.5-0.9,1.4-1.7,1.5-2.8c0.1-1.7,2.1-2.1,3.2-3l0-0.1c-0.7,0.1-1.4-0.1-2-0.2c-1-0.4-2.1-0.4-3.1-0.7
			c-7.1,0.1-15.1-0.8-21.4,2.4c-2.4,1.2-5.2,0.7-8,0.9c-2.7,1.1-5.7-0.2-8.5,0.3c-2.1,1.2-4.7,0.5-6.9,0.1c-3.7,0.7-7.8,1.7-11.3,0
			c-5.7-1.2-11.3-2.7-17-3.5c-2.9-0.5-5.2,0.8-7.9,0.6c-3.3,0-5.6-0.9-8.7-0.2l0.1,0.5c2,0.1,4.2,0.8,6,1.9c3.7,2.1,3.8,6.6,7.4,8.9
			c1.6,1.2,1.3,3.2,2,4.8c1.2,1.5,2.9,2.9,3.4,4.8c-2.3,1.6-4.6,3.2-6.8,5l0.1,0.1c1.2-0.7,2.6-1.5,3.9-2.1c0.2,0,0.5-0.3,0.7-0.1
			c-0.8,1.3-2.4,2.2-2.7,3.8c-1.6,1.9-2.8,4-4.3,6l0.1,0.1c1.1-0.4,2.2-1.2,3.3-1.8c0.2,0,0.5-0.3,0.7,0c-0.1,0.1-0.2,0.3-0.2,0.4
			c-2.6,3-4.8,6.6-7.4,9.8l0.2,0.1c1.2-0.5,2.3-1.6,3.4-2.5l0,0c-0.2,0.6-0.7,1-0.9,1.6c-0.3,1.8-0.4,3.8-1,5.5
			c-0.7,2.3-1,4.9-1.2,7.4l0.2,0c0.8-1.8,1.5-3.9,2.5-5.6c0.4,1.3,0.4,2.7,0,4c-0.7,2.1-1.8,4.4-2,6.6l0.1,0.1
			c1.5-0.5,1.6-2.1,2.1-3.3c0.3-0.6,1-1,1.5-1c-1,1.3-1.6,2.8-1.1,4.5c0.8,2.5-1.4,5.4,0.9,7.2l0.1,0l0.8-3.7l0.1-0.1
			c0.1,0.4,0,0.9,0.1,1.2c1,3.6,2.2,7.1,3.7,10.5c0.2,0.3,0.3,0.8,0.6,1h0.1c0.2-2.1-0.4-4-0.5-6c2.2,1.9,1.5,5.3,3.7,7.3l0.1,0
			c-0.8-1.1,0-2.3,0.5-3.3c0.3,0.1,0.3,0.4,0.5,0.6c0.5,2.4,2.8,4.6,4.7,5.9l0.1,0l-0.7-0.9c-0.3-0.6,0-1.2,0.2-1.7
			c0,1.1,1,1.7,1.5,2.6c0.8,0.8,1.7,1.1,2.7,1.4c0.4-1,0.5-2,0.7-3.1c0-2,1.6-3.3,2.8-4.8c1.4-1.5,1.7-3.7,3.4-5
			c0.3-0.3,0.8-0.8,1.2-0.8c1.3,2.8,0.8,6.4,1.5,9.4c0.6,1.5,0.8,3.1,1.5,4.6c0.8,1.2,2.5,0.9,3.8,0.8c3.4,0.5,6.4,0.2,9.7-0.2
			c1.6-0.2,3.3-0.8,4-2.4c1.1-3.6,1.2-7.8,1.2-11.8l0.1-0.1c1.9,0.3,3.6-0.5,5.5-0.2c1.9,0.5,2.4,2.7,3.4,4.2
			c0.1,0.2,0.4,0.7,0.7,0.5c0.4-1.1,0.3-2.3,1.2-3.2c0.2-0.1,0.4-0.5,0.7-0.3c0,0.7,0.2,1.4,0.4,2c0.4,1.2,1.4,2.6,2.8,2.6
			c0.9-0.3,1.1-1.3,1.5-2.1c1.9,1.6,1.4,3.9,1.6,6.1l0.7-0.1c0,0,0.5-1.2,0.9-1.6c1.7-1.2,1.6-3.5,2.6-5.1c1.1-1.1,2.1-2.5,3.1-3.8
			c0.1-0.2,0.3,0.1,0.3,0.2c0,1.6-0.7,3.3-1.1,4.8l0.1,0.3c0.7,0,1.3-0.2,1.7-0.8c1.6-2.2,1.2-5.3,2.2-7.7c0.5,1.2,0,3.1,0,4.5
			l0.3,0.1c1.8-3.4,1.9-7.4,1.9-11.5l0.1-0.1c0.9,1.4,0.2,3.1,0.4,4.8l0.4,0c0.9-1.8,1.3-4.1,1-6.3c-0.1-1.3-0.7-2.4-0.9-3.6
			c1.1,0.8,1.3,2.5,2.4,3.3l0.3-0.1c-0.8-1.6-1.2-3.3-1.7-5C93.5,59.2,93,58.2,92.8,57.1z M92.7,12.1c-1.2,4-5.6,6.4-8.2,9.6
			c-1,1.6-1.6,3.5-2.6,5.2c-0.2,0.3-0.6,0.7-1,0.5c-1.7-1.9-4.4-2-5.9-4.3c4.8-3.9,9.6-8.1,15.3-10.1C91.1,12.7,91.9,12.3,92.7,12.1
			z M91.4,10.5c-2.8,1.5-5.7,3.2-8.5,5c-3.3,1.8-6.8,3.4-9.6,6.3c-1.6-2-3.1-4.3-4.7-6.4C75.1,11.5,83,9.9,91.4,10.5z M14.9,11.8
			c3.4-0.6,7.2,0.2,10.3,0.5c3.2,0,5.5,2.2,8.6,2.6l2.4,0.3v0.1c-1.8,1.3-3.7,2.4-5,4.4h-0.2c-5.2-2.9-11-4.4-16-7.8V11.8z
			 M19.6,21.9c-2.7-3.1-5.5-6.1-8.6-8.9l-0.1-0.2c6.3,2.5,11.7,7.2,18,9.9c-0.6,1.7-1.7,3.1-3.1,4.5c-0.5,0.3-1,0.8-1.6,0.5
			C22.2,26.1,21.4,23.7,19.6,21.9z M16.2,45.3c0.9-0.3,2.1-0.6,2.2-1.7c0-1.4-0.7-2.6-0.3-3.9l0.3-0.2c0.8-0.1,2,0.4,2.5-0.4
			c0.4-0.8,0-2.3,1.2-2.4c0.3,0,0.6,0,0.9-0.3c0.1-0.7-0.7-1.3-0.1-2c0.7-0.3,1.8,0.2,2.1-0.6c-0.1-0.6-0.4-1.2-0.4-1.8
			c0.7-0.6,1.7,0.2,2.4-0.2c1.1-1.3,0.2-3.5,1.7-4.6c2.4-1.9,5.9-2,8.9-2.1c0.5-0.8,0.7-1.8,1.1-2.6c-1.7-1.3-4.3-0.8-6,0.2v-0.2
			c1.2-1.4,1.8-3.3,3.5-4.1c1.1-0.1,2,1.1,3,0.3c0.7-0.6,1.3-1.8,2.3-1.5c0.7,0.3,1.3,1,2.1,0.7c1.2-0.4,2.1-2.6,3.6-1.5
			c1.3,1.1,2.5,2.9,4.3,2.6c1.4-1,2.2-2.9,4.1-2.7c0.8,0.3,1.2,1.6,2.3,1.1c1.3-1,3.4-1.3,4.8-0.5c0.4,0.3,1.4,0.3,1.2,1
			c-0.3,0.7-0.5,1.7-1.3,2c-1,0.1-2.1,0.2-2.6,1.2c-0.1,0.4-0.2,0.9-0.1,1.4c0.7,0.8,1.9,0.3,2.8,0c0.7-0.3,1.2-0.8,1.9-1.2
			C64,22.1,62.8,23,63.6,24c0.2,0.3,0.5,0.6,0.8,0.9c1.3-0.6,2.4-1.4,3.8-1.8c0.1,0.7,0,1.6,0.8,2.1c0.8,0.5,1.8,0.1,2.6,0.1
			c-0.6,0.4-1.4,0.5-1.8,1.3c-0.1,0.6,0.1,1.1,0.5,1.5c0.3,0.3,0.8,0.5,1.2,0.3c0.9-0.4,1.6-0.9,2.4-1.6c1.1,0.6,2.1,1.6,3.1,2.3
			v0.1c-0.7-0.2-1.4-0.3-2.2-0.2c-0.6,0.2-1.2,0.5-1.7,0.9l0.3,0.2c1.9,0.2,4,0.2,5.2,2c1.6,2.8,4,5.3,6.2,7.9
			c1,1.8,1.8,3.6,2.7,5.4c-0.6,0.4-1.4,0.6-2.1,0.9c-2-2.6-4-4.6-6.6-6.6c-1.5-0.9-3.4-0.3-5,0.1c-0.2-0.4-0.1-0.7-0.1-1.2l-0.2-1.1
			c-2.7,3.5-7.4,2.4-10.8,4.3c-1.3,0.6-2.4,1.4-3.6,2.2c-0.2-0.7-0.5-1.4-0.7-2c-0.6,1-1.1,2.4-0.6,3.7l0,0.3
			c-0.6,0.8-2,1.2-1.4,2.3c0.2,1.8,0.1,3.8,0.1,5.7c-1.6-0.5-3.6-0.6-5.1-0.3c0.9-1,2.1-2,1.7-3.5c-0.7-2,0.2-3.9,0-5.9
			c0.5,1.4,1.9,2.2,3.1,2.8c-0.2-1.7-1.4-3.6-0.6-5.4c0.4-0.7,1-1.3,0.7-2.2c-0.5-1.4-0.5-3.2-0.4-4.8l0-2.7h-0.2
			c-1.1,0.9-1.6,2-1.5,3.4c-0.1,1.4-1.5,2.3-1,3.8c0.3,0.8,0.8,1.5,0.6,2.4c-0.3,0.8-0.9,1.7-0.7,2.6c-0.5-1.3-1.8-2.3-1.2-3.9
			c1.2-2.2-0.3-4.1-0.8-6.1c-0.3,0-0.2,0.4-0.5,0.5c-1.2,1.1-1.9,2.7-1.6,4.5l1,2.6c-0.3,1.1-1.2,2-1,3.2c-0.1,0.4-0.2,1-0.4,1.5
			l-1,2c0.3,0.7,1.3,1.2,1.4,2c0,1-0.2,1.9-0.6,2.8c-1.1,0.1-2.1,0.4-3.2,0.4c0.7-5.4,0.6-11.3-4.2-14.7c0.2,1.1,0.8,2.1,1.4,3.1
			c-3.8-0.6-7-3.2-10.8-3.9c-0.5-0.1-0.9-0.3-1.4-0.4c0,0.4,0.2,0.8,0.4,1.2c-2.3-0.9-4.9-3.4-7.5-1.3c-2.2,1.1-0.4,3.8-2.2,5
			c-0.4,0.5-0.9,1.2-0.7,2c0.3,0.7,1.1,0.5,1.7,0.6L20.4,47c-1.4-0.5-2.8-1.1-4.2-1.6V45.3z M85.5,53.9c-1,0-2.1,0.2-3.2,0.2
			c-0.9-1.8-2.8-3.7-4.9-3.7l-1.1,0v-0.1c2.2-1.1,4.5-1.9,7.1-2.1c0,1.5,1,2.5,1.6,3.8C85,52.6,85.3,53.2,85.5,53.9z M63.2,43.9
			c0.2,0,0.5,0,0.5,0.3c0,0.1,0,0.2-0.1,0.3c-0.2,0-0.6,0.1-0.5-0.3C63,44.1,63.1,44,63.2,43.9z M62.6,45.7
			c-0.2,0.2-0.6,0.3-0.9,0.2c-0.3-0.2-0.6-0.6-0.4-1c0.1-0.2,0.4-0.4,0.7-0.5c0.3,0,0.7,0.2,0.8,0.5C62.6,45.3,62.8,45.5,62.6,45.7z
			 M52,61.7c-0.3,0.1-0.5-0.2-0.6-0.4c-0.2-0.6-0.1-1.4-0.5-1.9c-0.6-0.5-0.8,0.3-1.1,0.6c-0.2,0.4-0.1,0.9-0.5,1.1
			c-0.5-0.1-0.9-0.2-1.2-0.7c-0.4-0.8-0.2-1.9-1.2-2.3c-0.7-0.3-1.4,1.2-1.7-0.2c-0.2-0.3-0.2-0.8-0.2-1.2c0.5-0.8,1.3-1.4,2.2-1.5
			c1.7,0,3.6,0.5,5.5,0.2c1.2,0,2.7-0.2,3.4,0.9c0.1,0.5,0.2,1.2-0.4,1.4c-0.8,0.5-2.3-0.4-2.9,0.6C52.7,59.4,53.7,61.3,52,61.7z
			 M34,50.1l-2.3,1.5c-0.7-0.4-1.4-1.1-2.3-0.9c-0.6,0.7-1.3,1.2-2.2,0.9c-1.3-0.4-2.3-1.4-3.2-2.4c0-0.2-0.2-0.5-0.1-0.7
			c0.9-1.1,2.3-1.3,3.8-1.1c1.1,0.3,2.2,0.7,3.1,1c-1.4-3-5.1-1-6.7-3.8c-0.4-0.7-1-1.5-0.7-2.5c0.6-1,1.9-1.4,3-1.2
			c0.1,0.1,0.2,0,0.3,0.1c0-0.5-0.5-1-0.7-1.6c1.2-0.6,2.7-0.2,3.7,0.7c0.4,0.4,0.7,0.7,0.9,1.1l0.6,1.3c0.5,0,0.9-0.5,1.4-0.7
			c0.1,3,2.9,5.6,5.4,6.7c1,0.3,2.3,0.8,3.4,0.2c0.2-0.2,0.3-0.5,0.4-0.8l-0.1-0.1c-1.4,0.2-2.8,0.2-3.9-0.7c-1.8-1.5-3-3.3-3.3-5.5
			c1.2,0.2,2.6,0.3,4,0.5l0.2,0.3c-0.3,0.3-1,0.5-1,1c0.3-0.1,0.6-0.3,0.9-0.2c0.3,0.1,0.3,0.4,0.4,0.7c0,0.3-0.1,0.6-0.4,0.7
			c-0.4,0.2-0.7,0-1-0.2c-0.3-0.2,0.1-0.5-0.2-0.8c-0.2,0.8-0.1,1.7,0.5,2.2c0.6,0.5,1.3,0.9,2.1,0.5c0.6-0.2,1.3-0.8,1.4-1.5
			l0.1-0.8c1.5,1.2,2.4,2.7,2.6,4.6c-1,1.5-3.1,1.2-4.6,1.1c-2.5-0.2-4.9-0.4-7-1.5l0,0C32.9,49,33.7,49.4,34,50.1z M39.6,43.9
			c0.1-0.2,0.4-0.2,0.5,0.1c0,0.2-0.1,0.3-0.3,0.3C39.5,44.2,39.6,44.1,39.6,43.9z M13.7,61.5c-0.9-1.2,0.5-2.6-0.3-4
			c0.4-0.1,0.9-0.3,1.3-0.1c0.4,0.2,0.6,0.5,0.8,0.8C15.6,59.6,14,60.3,13.7,61.5z M15.2,66.9c-1.3-0.8-1.3-2.3-1.2-3.7
			c0-0.1,0.1-0.3,0.3-0.4c0.9,0.1,1.5,1.1,1.8,1.9C16.1,65.5,15.8,66.3,15.2,66.9z M14,56.2c-0.9-1.7-1.3-4.3,0.2-5.9l2.3-2.7
			c0.9,0.3,1.8,0.4,2.6,0.8v0.1c-0.8,0.7-1.3,1.4-1.8,2.2c-0.3,1.5-0.7,3.1-1.4,4.4l0.1,0.1l4.1,0.3c1.4-1.9,3.2-3.8,5.5-4.2
			c1.5,0.5,2.9,1.1,4.3,1.6c-0.2,0.6-0.6,1.1-1,1.5c-0.5,0.5-1.3,0.5-1.9,0.3c-0.5-0.2-1-0.3-1.6-0.2c-0.4,0.3-0.6,0.8-0.9,1.1
			C21.2,56.8,17.6,56.1,14,56.2z M27.9,73.3v0.1C26,74.2,24,75.1,22.1,76c-0.1-0.3-0.3-0.6-0.2-0.9l4.4-2.8
			C26.8,72.6,27.4,72.9,27.9,73.3z M18.8,59.8c-0.3-0.5,0.1-1,0.3-1.4c1.2-1.5,3.2-1.2,5-1.2c0.5,0.1,0.7,0.5,1,0.8
			c0.1,0.5,0,0.9-0.3,1.3c-0.4,0.5-1,0.5-1.6,0.4c-0.2,0-0.4-0.2-0.5-0.1c0.9,1.1,2.1,1.4,3.2,1.9c-0.4,0.1-0.9,0.3-1.3,0.2
			c-1.8,0.3-3.6,0.6-5.4,0.8c-0.1-0.5-0.2-1.3,0.1-1.8l0.8-0.7C19.7,59.9,19.3,60.1,18.8,59.8z M19.2,67.5c-0.6-0.2-0.7-1-0.8-1.5
			c0.1-0.6,0-1.3,0.3-1.7c2.1-0.8,4.1-0.9,6.5-1c0.4,0.3,0.9,0.7,1.1,1.2c0,1-1.1,1.2-1.7,1.7c0.1,0.3,0.5,0.2,0.7,0.3v0.2l-4.8,2.8
			c-0.3-0.8-0.5-1.8-0.9-2.6C19.5,67,19.4,67.3,19.2,67.5z M20.5,70.6l5-1.8c0.3,0.1,0.4,0.3,0.6,0.5c0.2,0.6-0.7,0.9-0.5,1.5
			c0.2,0.2,0.5,0.5,0.7,0.6c-1.4,0.8-3,1.5-4.5,2.1C22,72.4,21.1,71.5,20.5,70.6z M21.6,78.2c-0.3-0.5,0-1.1,0.3-1.5
			c0.6-0.4,1.2,0.1,1.7,0.2c1.6-0.4,3.2-1.1,4.8-1.5c-0.8,1.5-1.8,2.8-2.7,4.3C24.7,78.3,22.9,78.9,21.6,78.2z M30,84.8
			c-0.9-0.8-2.2-1.8-3.7-1.3c0.3-1.1,1-2.1,1.5-3.1c0.7-1.2,1.6-2.2,2.6-3.3c0.7,0.4,1.5,0.9,2.1,1.4C31.6,80.5,30.8,82.6,30,84.8z
			 M37.2,76.3c-0.5,0.2-0.9-0.1-1.2-0.2c-0.1-0.9,0-2,0.7-2.7c0.4-0.4,1.1-0.9,1.5-0.4C38.5,74.2,38.1,75.5,37.2,76.3z M58.4,80.5
			c-0.1,0.7-0.1,1.4-0.4,2c-0.3,0.4-0.5,0.9-0.3,1.4c0.8,1.2,1.2,2.8,0.6,4.1c-1,1.2-2.9,0.9-4.2,1c-1,0.1-1.6,1.4-2.7,0.9
			c-2.1-0.9-4.4,1.2-6-0.8c-0.6-0.3-1.3-0.3-1.7-0.8c0-0.5,0.2-0.9,0.3-1.4c-0.2-1-1.1-2.1-0.4-3.1c1.9-1.9-0.9-3.7-1.1-5.7
			c-0.1-0.5,0.4-0.9,0.8-1.2c0.6-0.2,1.2-0.5,1.8-0.3c-0.7,0.7-1.3,1.5-1,2.6c0.6,1.3,0.8,3.5,2.6,3.7c1.8,0.6,4,0.2,6,0.3
			c0.3-0.2,0.7,0,1-0.2c0.8-0.1,2.2,0.2,2.6-1c0.6-1.7,1.3-3.5,2.2-5.2c0.2,0,0.4,0.2,0.5,0.4C59.2,78.5,58.2,79.4,58.4,80.5z
			 M50.7,72.9c1.4,0,2.4-1.9,3.8-0.7c0.5,0.4,0.7,0.9,0.7,1.5c-1.8,1-2.8,3.5-5.2,2.8c-1.4-0.5-2.6-1.5-3.9-2.2
			c0.3-1.1,1-2.2,2.1-2.7C49.5,71.3,49.5,73.1,50.7,72.9z M48.4,68.4c0.4,0,0.7,0,1.1,0v1.4h-1L48.4,68.4z M50.3,69.5v-1.1h1v1.1
			H50.3z M52.1,69.9v-1.2h1v1.2H52.1z M54,70.1v-1.4l1,0.1v1.3C54.7,70.2,54.3,70.1,54,70.1z M56.4,77.7c0.3,0.8,0.3,1.9-0.2,2.6
			c-0.3,0.4-0.9,0.1-1.3,0.1c-0.1-1.4,0.2-2.3,0.6-3.5C55.8,77.1,56.2,77.3,56.4,77.7z M56.1,72.2l0-3.5c0.3-0.3,0.8-0.6,1.3-0.4
			c0.3,0.1,0.5,0.4,0.8,0.7C58,70.2,57.3,71.6,56.1,72.2z M53,77.6c-1.1,0.1-2.1,0.5-3.1,0.6c-0.7,0-1.2-0.5-1.6-1
			c2.2,0,4.4,0,6.1-1.3C54.2,76.5,53.8,77.5,53,77.6z M53.8,79.1v1.4h-1l0-1.4L53.8,79.1z M52.3,80.4h-1.1l0-1.4h1L52.3,80.4z
			 M50.3,80.5l-1,0l0.1-1.4h1C50.4,79.5,50.5,80.1,50.3,80.5z M48.8,79.1v1.3l-1,0.1l0-1.4H48.8z M46.4,77c-0.1,1.1,0.1,2.4,0.5,3.4
			c-0.4,0.1-1.1,0.2-1.4-0.2C44.2,79,46.1,78,46.4,77z M45.7,72.1c-1-0.9-2.2-2-2.1-3.4c0.2-0.3,0.5-0.3,0.8-0.4
			c0.6,0,1.1,0.1,1.6,0.3C45.7,69.7,45.8,71,45.7,72.1z M69.2,76c-1.2-0.7-2.4-1.4-3.8-1.9c-0.5-0.2-1.1,0-1.2,0.5
			c0,0.1-0.1,0.2-0.2,0.3c-0.5-0.6-1.1-1.4-0.7-2.2c0.5,0,1,0.4,1.6,0.3c0.4-0.3,0.5-0.6,0.8-1c1.4,1.3,2.6,2.5,3.7,4L69.2,76z
			 M69.7,63.2c0,0.3,0.1,0.8-0.3,1c-1.1,0.3-2.8,0-3.6,1.2c0,0.7,0.8,0.6,1.2,0.7c0.5,0.1,1.3-0.2,1.7,0.3c0,0.9-0.2,1.8-1,2.3
			c-0.4,0.2-0.8,0.3-1.1,0.5c0.6,1,1.4,1.9,2.3,2.8c-2.3-0.4-3.5-3.1-5.7-3.8c-0.9-0.4-2.2-0.8-3,0c-0.9,0-1.6-0.7-2.6-0.8
			c-2.6-0.1-5-0.8-7.2-1.9c-1.7,1.3-4.2,1.2-6.1,1.1c-1.4,0-2.5,0.8-3.8,1c-0.9,0.4-0.9,1.6-1.9,1.7c-0.7,0-1.3-0.1-1.9-0.2
			c0.5-0.5,0.8-1.2,0.6-1.9c-0.2-0.4-0.6-0.5-1-0.5c-0.4,0-0.9,0.1-1.1,0.5c-0.1,0.4,0,0.8,0.1,1.2c-0.9-0.1-1.7,0.1-2.6,0.2
			c-0.4-0.5-0.9-0.9-1.3-1.4c1.1-0.1,2.5,0.2,3-1c0.3-0.5,0.2-1.3-0.1-1.8c-0.4,1.3-1.8,0.4-2.8,0.7c-0.4,0-1,0.2-1.1-0.3l-0.1-1.4
			c0.7-0.3,2.1,0.4,2.6-0.6c0.2-0.4,0.1-1-0.2-1.3c-0.7-0.4-1.6-0.6-2.5-0.5c-0.1-0.2,0.2-0.3,0.3-0.5c0.3-0.9,0.6-1.9,1.2-2.8
			c0.4-0.1,0.8-0.1,1.1-0.3c0-0.9,0-1.5,0.5-2.1c0.7,0.1,1.5,0.2,2.2,0.1c0.4-0.2,0.6-0.6,0.7-1c0.2-0.8-1.1-1.2-0.7-1.9
			c2.4-1.4,5.4-0.3,7.3,1.4c1,1.1,1.3,2.5,1,4l-0.5,0.9c0.3,0.6,0.8,1.5,1.6,1.6h1.5l1.6,1.8c1.1,0.6,2.3,1,3.4,1.7
			c0.5-0.9,1.5-1.7,2.4-2.1c2-0.2,3.4-2.1,4-3.8c0.4-1.1-0.1-2.2,0.4-3.3c1.8-0.9,4.1-0.8,5.9-1.7c0.7-0.2,1.1,0,1.6,0.3
			c0.3,0.3,0.8,0.6,0.8,1.1c0,0.4-0.2,0.7-0.5,0.9c-0.5,0.1-1.2,0.2-1.6,0.8c-0.1,0.2-0.2,0.5-0.1,0.7c0.6,0.4,1.3,0.4,1.8,0.9
			c0.8,1.3,2.4-0.2,3.3,0.9c0.1,0.2,0.3,0.3,0.5,0.4c-0.7,1.4-2.7,1.3-2.9,3.1C67.6,63,68.7,63.1,69.7,63.2z M70.5,49.6
			c-0.3,0.6-0.8,1.5-1.6,1.7c-0.5,0.1-1.2,0.1-1.5-0.3c-0.1-0.6,0.4-1,0.7-1.4L68,49.5c-2.5,0-4.8,1.9-7.3,0.6
			c-0.8-0.3-1.5-0.8-2.1-1.6c0.4-1.6,1.1-3.1,2.4-4.2c0,0.6-0.1,1.3,0.3,1.7c0.6,0.7,1.4,1,2.2,0.8c0.9-0.2,1.5-1,1.7-1.8
			c0-0.7-0.4-1.4-0.9-1.9l2.9-1c-0.7,1.9-0.9,4.9-3.5,5.6c-1.3,0.4-2.9,0-4.3,0.3l-0.2,0.2c0.7,1.2,2.1,0.8,3.1,1
			c2.3,0.1,4.4-1,5.4-3c0.7-1.4,0.8-3,1.4-4.4c1.1-0.4,2.1-0.9,3.2-1.3v0.1c-1,1.2-2.2,2-2.2,3.5c0.2,0.2,0.3,0.5,0.5,0.6
			c0.7,0.2,1.2-0.7,1.6-1.2c0.6-1,0.9-2.5,2.2-2.7c0.3,0,0.7-0.1,1-0.1c0.2,0.6,0.2,1.2,0.8,1.6c0.7,0.2,1.2-0.2,1.8-0.3
			c-0.1,0.3-0.5,0.4-0.7,0.6c-0.2,0.2-0.5,0.4-0.3,0.7c1,0.9,2.3,1,3.3,1.7c-0.1,0.3-0.5,0.2-0.8,0.4l-5,1.8v-0.2l1.2-1.8h-0.2
			C74,46.6,71.7,47.4,70.5,49.6z M71,53.7c0.3-1,1.2-1.7,2.2-1.8c1.3-0.2,2.6-0.2,3.4,0.9c0.2,0.3,0.5,0.6,0.5,1
			c-1.9,0.5-3.8,1-5.7,1.3C71.2,54.7,70.7,54.2,71,53.7z M72.6,68.7l0.8-1.5c1.5-0.1,2.8,0.5,3.9,1.3c0.2,0.7,0.7,1.6,0.3,2.4
			l-1,0.9c-1.1-1.4-2.3-2.3-3.9-2.9V68.7z M71.5,71.8c-0.1-0.5-0.2-1.2,0.5-1.4c0.9-0.4,1.6,0.5,2.4,0.9c0.7,0.6,0.9,1.3,1.4,1.9
			c-0.5,0.1-1.4-0.2-1.7,0.5l0,0.8L71.5,71.8z M78,80.7c-0.5,0.2-0.8,0.5-1.3,0.7c-0.9-1.4-1.8-2.8-2.6-4.3c1.2-0.1,1.4,1.3,2.1,1.9
			c0.5,0.6,1.2,1.1,1.9,1.6V80.7z M82,79.9L80.4,82c-1.6-1.6-3.2-3-4.7-4.6c0.9,0.2,1.7,0.4,2.6,0.1c0.8,0.1,1.4,0.6,2,1
			c0.6,0.4,1.1,0.9,1.7,1.3V79.9z M84.7,77.5c-0.6,0.4-1.2,0.6-1.8,0.8l-2.3-2.7c0.5-1.4,1.7-2.6,2.7-3.8c1.2,0.7,2.3,1.6,3.4,2.4
			C86.4,75.5,85.8,76.7,84.7,77.5z M89,68.2c0.1,1.8-0.8,3.5-2.4,4.2l-0.5,0.3c-3.9-2.3-7.1-6-11.6-6.9l-1.6-0.4
			c0-0.7,0.1-1.4,0.7-1.8c0.5-0.2,1.1,0.2,1.6,0c-0.1-0.3-0.2-0.7-0.1-1c0.2-0.6,0.9-1,1.5-1.1c0.9,0,1.6,0.5,2.4,0.7
			c0,1.1,0.3,1.9,0.6,2.9c0.1,0.4,0.1,0.9-0.4,1.2c-0.2,0.1-0.4,0.2-0.7,0.3c1.7,1.5,3.8,2.6,6.1,2.8c-1.5-1.5-0.6-3.7-1-5.6
			l-0.2-1.4c2.1-0.4,4.9-0.7,6.9,0.3C89.6,64.3,89,66.2,89,68.2z M90.6,61.3c-5.3-0.2-10.4-0.2-15.5-0.4c0.5-0.4,1-0.6,1.4-1
			c-0.9-0.1-2-0.1-2.3-1.1c-0.1-0.5-0.1-1.2,0.3-1.6c1-0.8,2.3-1.3,3.7-1.1c0.6,0.2,1.2,0.7,1.7,1c0,0.9,0,1.7-0.1,2.6l0.1,0.1
			c1.3-0.4,2.8,0,3.6-1.3c0.2-0.8-1.3-1.1-0.8-2c0.6-1.2,1.8-1.4,2.9-1.5c0.8,1.2,0.8,2.5,0.7,4c0.5,1.2,1.9,1,2.9,1.3
			c0.7,0.2,1.3,0.5,2,0.9C91.1,61.5,90.8,61.3,90.6,61.3z M88.1,53.6c0.3-0.5,0.7-1,0.5-1.6c-0.1-0.3-0.3-0.6-0.2-1
			c0.2-0.2,0.5-0.5,0.8-0.6c1.2,0.2,1.1,1.6,1.7,2.3c0.2,0.2,0.3,0.4,0.4,0.7C90.3,53.5,89.1,53.5,88.1,53.6z"/>
		<g>
			<path d="M43.7,22.8c0.9,0.7,1.5,1.8,1.4,2.9c-0.2,0.5-0.9,0.5-1.4,0.7c0-1-0.6-1.9-1.4-2.4c-0.4-0.1-0.6,0.2-0.9,0.4
				c-1,1.9-0.4,4.6-0.5,6.9c-0.6-1.2-1.1-2.6-1.3-4.1c0-1.6,0.2-3.4,1.2-4.8c-0.2-0.3-0.5-0.1-0.9-0.2c0.6-0.5,1.3-1.4,2.2-1
				L43.7,22.8L43.7,22.8z"/>
			<path d="M57.2,22.5c-1.4,1.7-3.6,3-4.3,5.1c-0.7-0.6-1.3-1.4-1-2.4c0.2-1.1,1.6-0.4,1.8-1.4c0.3-0.6,0.6-1.4,1.4-1.5
				C55.9,22.2,56.6,22.4,57.2,22.5L57.2,22.5z"/>
			<path d="M66.6,25.3c1.5,1.4,1.5,3.5,2.5,5.1c1.2,1.2,2.5,2.5,2.7,4.2c-1.4,0.7-2.6-1.4-4-0.3c-0.4,0.3-0.8,0.9-1.3,0.9
				c-0.3-0.5-0.1-1.5-0.8-1.8c-0.7-0.1-1.1,0.3-1.6,0.5c-2.4,2.1-5.7,4-7.3,6.9c-0.4,0.8-0.9,1.6-1.3,2.4c0.4-3.8,2.9-7.3,6.3-9.5
				c1.7-1.6,4-2.2,6.2-2.6c-1.1-1.7-2-3.7-1.5-5.8H66.6L66.6,25.3z"/>
			<path d="M32,26.8c-0.7,0.8-1.2,1.8-1.4,2.8c0.8-0.1,1.6-0.6,2.3-0.9c-0.5,0.4-1.3,1.3-1.2,2.2l0.1,0.1c1.2-0.1,2.6-0.3,3.6,0.3
				c2.2,2.8,5.4,4.1,7.3,7.2c-1.6-0.2-3.3-0.6-4.2-2.2c-0.9-1.2-1.8-2.4-3.1-2.9c-1.6-0.1-2.9,0.1-4.5-0.2c-1.5,0-0.9,2.4-2.6,1.8
				l-1.2-0.6c1.2-1.9,2.1-4,2.8-6.1C30.5,27.7,31.3,27.2,32,26.8L32,26.8z"/>
			<path d="M46.3,31.2c0.1,0.8-1,1.2-0.8,2c0.5,0.7,1.7,0.8,1.4,1.9c-0.2,0.4-0.6,0.8-0.4,1.3c1.3,1.1-0.2,2.5,0.2,3.9
				c1,1.6,0.9,4-0.3,5.5c-0.4,0.7-1,1.3-1.4,1.9c0.1-0.9,0.6-2,0.2-3c-0.2-0.9-1.4-1.7-1-2.8c0.2-0.3,0.6-0.6,0.5-1
				c-0.3-0.5-1-0.6-0.9-1.2c0.3-0.4,1-0.4,1-1c-0.3-0.6-1.2-1.1-0.8-2c0.9-1.4-1.2-2.5-0.4-4.2c0.4-1.1,0-2.3-0.1-3.5
				C44.6,29.7,45.8,30.1,46.3,31.2L46.3,31.2z"/>
			<path d="M34.3,57.3c-0.1,0.2,0,0.5-0.3,0.5c-0.3,0.2-0.7,0-0.8-0.3c0-0.2,0.1-0.6,0.4-0.6C33.9,56.8,34.2,57,34.3,57.3L34.3,57.3
				z"/>
			<path d="M62,57.2c0.1,0.3-0.1,0.7-0.4,0.7c-0.2,0-0.5-0.1-0.6-0.3c0-0.3-0.1-0.5,0.2-0.7C61.5,56.7,61.9,56.9,62,57.2L62,57.2z"
				/>
			<path d="M32.7,58.7c0.1,0.1,0,0.4,0,0.5c-0.2,0.4-0.6,0.3-0.9,0.2c-0.2-0.2-0.1-0.5-0.2-0.7C31.9,58.4,32.5,58.5,32.7,58.7
				L32.7,58.7z"/>
			<path d="M64.4,58.9c0.1,0.3,0,0.6-0.2,0.7c-0.1,0.1-0.3,0-0.5,0.1c-0.2-0.1-0.3-0.2-0.4-0.4c-0.1-0.3,0.2-0.5,0.4-0.7
				C64,58.6,64.2,58.8,64.4,58.9L64.4,58.9z"/>
			<path d="M35.7,59.2c0,0.3,0,0.6-0.3,0.7c-0.3,0.2-0.6-0.1-0.8-0.3c0-0.3,0-0.6,0.3-0.7C35.3,58.9,35.6,58.9,35.7,59.2L35.7,59.2z
				"/>
			<path d="M61.8,60.1c0,0.3,0.1,0.7-0.3,0.7c-0.3,0.1-0.6,0-0.8-0.3c-0.1-0.3,0.1-0.5,0.3-0.7C61.3,59.9,61.6,59.8,61.8,60.1
				L61.8,60.1z"/>
			<path d="M33.5,61c0.1,0.4,0,0.8-0.3,1c-0.3,0.1-0.6,0-0.9-0.2c-0.2-0.2-0.3-0.5-0.2-0.8c0.1-0.3,0.4-0.3,0.6-0.4
				C33.1,60.6,33.4,60.8,33.5,61L33.5,61z"/>
			<path d="M64.5,61.3c0,0.3,0,0.7-0.4,0.7c-0.3,0-0.5-0.1-0.7-0.3c0-0.2-0.1-0.4,0.1-0.5c0.1-0.2,0.2-0.1,0.4-0.2
				C64.1,61,64.4,61.1,64.5,61.3L64.5,61.3z"/>
			<path d="M37.1,61.5c0,0.2,0.1,0.4-0.1,0.5c-0.1,0.1-0.4,0.2-0.7,0.1c-0.4-0.2-0.2-0.5-0.2-0.7c0.1-0.2,0.3-0.3,0.4-0.3
				C36.8,61.2,37,61.2,37.1,61.5L37.1,61.5z"/>
			<path d="M39.3,62.5c0.1,0.3,0.1,0.5,0,0.8c-0.3,0.1-0.7,0.2-1-0.1c-0.1-0.2-0.2-0.4-0.1-0.7c0-0.2,0.3-0.2,0.4-0.4
				C38.8,62.2,39.1,62.3,39.3,62.5L39.3,62.5z"/>
			<path d="M63.2,63.1c0.1,0.3,0,0.7-0.4,0.8c-0.3,0-0.5-0.1-0.7-0.3c0-0.3,0-0.7,0.4-0.8C62.8,62.8,63,62.9,63.2,63.1L63.2,63.1z"
				/>
			<path d="M59.6,63.3c0.1,0.3,0.1,0.6-0.2,0.8c-0.3,0.1-0.6,0-0.8-0.3c-0.1-0.3,0.1-0.7,0.4-0.8C59.3,63,59.5,63.1,59.6,63.3
				L59.6,63.3z"/>
			<path d="M36.1,64.4c0.1,0.5-0.1,0.7-0.5,0.9c-0.3,0-0.6-0.2-0.7-0.4c-0.1-0.4,0-0.8,0.4-0.9C35.7,63.9,35.9,64.2,36.1,64.4
				L36.1,64.4z"/>
			<path d="M61.8,64.6c0,0.2,0,0.5-0.2,0.5c-0.2,0-0.6,0-0.6-0.3c0-0.2,0-0.4,0.3-0.5C61.4,64.4,61.7,64.3,61.8,64.6L61.8,64.6z"/>
			<path d="M57.3,64.7c0,0.2,0.1,0.5-0.1,0.6c-0.1,0.1-0.4,0.2-0.6,0.2c-0.3-0.1-0.4-0.4-0.3-0.7C56.4,64.3,57.1,64.3,57.3,64.7
				L57.3,64.7z"/>
			<path d="M39.1,65.5c0.1,0.3,0.1,0.7-0.3,0.8c-0.3,0.1-0.5-0.1-0.7-0.3c-0.1-0.3,0.1-0.5,0.3-0.7C38.7,65.2,39,65.3,39.1,65.5
				L39.1,65.5z"/>
			<path d="M63.3,66.5c0.1,0.2-0.1,0.4-0.3,0.5c-0.2,0-0.5,0-0.6-0.3c-0.1-0.3,0.2-0.4,0.4-0.5C63,66.2,63.3,66.2,63.3,66.5
				L63.3,66.5z"/>
		</g>
	</g>
</g>
</svg>
