<?xml version="1.0" encoding="utf-8"?>
<!-- Generator: Adobe Illustrator 18.1.1, SVG Export Plug-In . SVG Version: 6.00 Build 0)  -->
<!DOCTYPE svg PUBLIC "-//W3C//DTD SVG 1.1//EN" "http://www.w3.org/Graphics/SVG/1.1/DTD/svg11.dtd">
<svg version="1.1" xmlns="http://www.w3.org/2000/svg" xmlns:xlink="http://www.w3.org/1999/xlink" x="0px" y="0px"
	 viewBox="0 0 100 100" enable-background="new 0 0 100 100" xml:space="preserve">

	 
<g id="AREA_1">
	<g>
		<g>
			<path d="M80.9,37.5c0-0.3-0.1-0.6-0.1-1c-0.2-1.6-0.3-3.3-1.4-4.6l0,0l0,0c-0.1-0.1-0.3-0.1-0.4-0.1c-0.2,0-0.3,0.1-0.4,0.2
				l0,0.1c-0.6,1.6-0.8,3.3-1,5c0-0.1,0-0.3,0-0.4c-0.1-0.7-0.1-1.5-0.3-2.2l0-0.1c-0.2-0.8-0.5-1.6-1.1-2.1l0,0l0,0
				c-0.1,0-0.2,0-0.4,0c-0.3,0-0.5,0.1-0.6,0.3l0,0l0,0c-0.1,0.5,0,1,0,1.5c0,0.4,0.1,0.8,0,1.3l0,0l0,0c0.3,1.4,0.1,2.8-0.2,4.1
				c0-0.4-0.1-0.8-0.2-1.1c-0.1-1-0.4-1.9-0.8-2.7c-0.1-0.2-0.1-0.3-0.2-0.5l0-0.1l-0.1,0c-0.1,0-0.1,0-0.2,0
				c-0.2,0-0.4-0.1-0.6-0.1c-0.3,0-0.4,0.1-0.6,0.3l0,0c-0.5,0.9-0.5,2.1-0.5,3.2c0,0.4,0,0.8-0.1,1.3c-0.2-0.2-0.4-0.5-0.5-0.8
				l0-0.1l0,0c-0.2-0.1-0.3-0.3-0.4-0.5c-0.2-0.3-0.4-0.6-0.8-0.7c-0.1-0.1-0.3-0.1-0.5-0.1c-0.2,0-0.4,0.1-0.5,0.2l0,0
				c-0.8,1.7-1.2,3.3-1.2,5.1l0,0c-0.3-0.4-0.7-0.6-0.9-0.6C66.5,42,66.4,42,66.3,42c-0.3,0-0.5,0.1-0.7,0.3l-0.1,0.1l0,0.1
				c0,0,0,0,0,0c0,0.1,0,0.1,0,0.1c-0.2,0.6,0,1.1,0.1,1.6c0.1,0.4,0.2,0.8,0.1,1.3c0,0,0,0.1-0.1,0.1c0,0-0.1,0-0.2-0.1
				c-0.1-0.1-0.3-0.1-0.5-0.1c-0.1,0-0.2,0-0.3,0.1c-0.3,0.2-0.4,0.5-0.4,0.9c-0.4,0-0.8,0.1-1.1,0.1c-0.4,0.1-0.8,0.1-1.2,0.1l0,0
				l0,0c-0.2,0.1-0.5,0.2-0.8,0.3c-0.6,0.2-1.3,0.5-1.6,1.2c-0.6,0.1-1.1,0.3-1.7,0.5c-0.3,0.1-0.6,0.2-0.8,0.3
				c-0.5,0.1-0.7,0.5-0.9,0.9c-0.2,0.5-0.4,0.7-0.9,0.7l0,0l0,0c-0.5,0.2-0.9,0.6-1.2,1c-0.3,0.3-0.6,0.6-0.9,0.8
				c0.1-2.6,1.1-4.7,2-6.5c0.1-0.2,0.2-0.4,0.3-0.6c0.1-0.3,0.2-0.6,0.5-0.8l0,0l0-0.1c0-0.5,0.3-0.8,0.5-1.2
				c0.1-0.2,0.3-0.5,0.4-0.8c1.4-2.4,2.6-6.4,1.1-9.6c-0.1-0.2-0.2-0.3-0.3-0.5c-0.1-0.2-0.3-0.4-0.3-0.6c0.7-1.2,1.4-2.4,2.1-3.6
				c0.4-0.7,0.7-1.3,1.1-2c0.8-1.7,1.4-3.5,1.9-5.3l0,0c0.4-2.7,0.8-6.5-0.1-9.7c-0.1-0.2-0.2-0.6-0.5-0.7l-0.1,0l-0.1,0
				c-0.5,0.3-0.8,0.7-1,1.1l0,0l0,0c0,0.3-0.1,0.5-0.3,0.8c0-0.1,0-0.2,0-0.3c0-0.7,0.1-1.5,0.4-2.1l0-0.1c0.1-0.8,0.2-1.6,0.3-2.3
				c0.2-1.3,0.4-2.7,0.3-4.1l0-0.1h-0.5l0,0c-0.4,0.3-0.7,0.7-1,1c-0.2,0.2-0.3,0.5-0.5,0.7l0,0c-0.3,0.6-0.6,1.2-0.9,1.8
				c-0.6,1.1-1.2,2.3-1.5,3.7c-0.1,0.5-0.3,0.9-0.5,1.3c-0.3,0.6-0.6,1.2-0.5,2c-0.4,0.5-0.4,1.2-0.5,1.8l0,0.1
				c-0.4,1.3-0.8,2.7-1.1,4.2c0.1-0.5,0.1-1,0.1-1.5c0-0.3,0-0.6,0.1-0.9c0.3-0.3,0.3-0.8,0.3-1.2c0-0.4,0.1-0.7,0.2-1l0,0l0-0.1
				c0-0.5,0.1-1,0.3-1.5c0.2-0.5,0.4-1,0.3-1.5c0.2-0.4,0.2-0.8,0.3-1.2c0.1-0.6,0.2-1.1,0.5-1.5l0,0l0,0c0.2-0.9,0.4-1.8,0.7-2.6
				c0.3-0.8,0.5-1.7,0.7-2.6l0.1-0.1c0.2-0.4,0.3-0.7,0.3-1.2c0-0.5-0.3-0.8-0.7-0.8c-0.5,0-1,0.3-1.3,0.6l0,0
				c-0.3,0.5-0.7,1-1.1,1.4c-0.5,0.6-1,1.1-1.3,1.9c-0.1,0.1-0.2,0.2-0.3,0.3c-0.3,0.4-0.7,0.9-0.7,1.5c-0.6,0.9-1.1,1.9-1.3,3
				c-0.3,0.3-0.3,0.7-0.3,1.1c-0.3,0.7-0.5,1.5-0.7,2.4l0.3-2.8c0-0.5,0.1-0.9,0.3-1.3c0.2-0.7,0.4-1.5,0.2-2.4
				c-0.2-0.4-0.4-0.6-0.7-0.6c0,0,0,0,0,0c-1,0.2-1.7,1.2-2,1.9c-0.9,1-1.2,2.2-1.5,3.4C47.1,12.5,47,12.8,47,13
				c-0.5,1-0.6,2.2-0.7,3.4c0,0.2,0,0.3-0.1,0.5c-0.1,0.5,0,1.1,0,1.6c0,0.5,0,1,0,1.4c-0.2-0.7-0.3-1.4-0.4-2.1
				c-0.4-2.2-0.7-4.5-2.2-6.3l-0.1-0.1l-0.1,0.1c-1.2,0.6-1.9,1.8-2.2,3.8c-0.1,1.1-0.2,2.6,0.2,3.8c0,0.7,0.2,1.4,0.3,2
				c0.1,0.5,0.2,1.1,0.3,1.7l0,0l0.2,0.3c0,0.5,0.2,1,0.3,1.4c0.1,0.2,0.2,0.4,0.2,0.7c-0.3,0.1-0.5,0.3-0.6,0.5
				c-0.2-0.4-0.4-0.8-0.6-1.1c-0.1-0.2-0.2-0.4-0.3-0.6c-0.2-0.6-0.4-1.2-0.6-1.7c-0.4-1.1-0.8-2.3-1-3.5l0,0
				c-0.1-0.2-0.1-0.4-0.2-0.6c-0.3-1-0.6-2.1-1.7-2.6c-0.1,0-0.3-0.1-0.5-0.1c-0.3,0-0.5,0.1-0.6,0.4c-0.7,1.4-1.4,3.1-1.6,5.1
				c0,0.2,0,0.3,0,0.5c0,0.7,0,1.4,0.3,2c0,0.8,0.5,1.5,0.9,2.1c0,0,0,0-0.1,0c-0.2-0.2-0.5-0.4-0.8-0.6l0,0c-0.1,0-0.1,0-0.2,0
				c-0.3,0-0.6,0.2-0.8,0.3c-0.2,0.1-0.3,0.2-0.5,0.3l-0.1,0l-0.3,1.3c-0.1,0.4,0,0.7,0.1,1c0.1,0.2,0.1,0.4,0.1,0.7
				c0,0.2,0.1,0.3,0.2,0.4c0,0,0.1,0.1,0.1,0.1l-0.1,0.1l0.2,0.1c0.1,0,0.2,0.1,0.2,0.2c-0.4-0.2-0.9-0.1-1.4,0.1
				c-0.8,0.2-0.9,1-1,1.6c0,0.1,0,0.2,0,0.3c-0.1,1,0.3,1.9,1,2.5c-0.4,0-0.8,0-1.1,0.5l0,0c-0.3,0.7-0.4,1.8,0,2.6
				c0.1,0.2,0.2,0.4,0.4,0.5c0.1,0.1,0.2,0.2,0.2,0.2h-0.1l0,0c-0.9,0.6-0.9,1.7-0.9,2.5c0,0.3,0.3,0.5,0.5,0.7c0,0,0.1,0.1,0.1,0.1
				c0,0,0,0,0,0c-0.1,0.1-0.2,0.1-0.3,0.1h0l-0.1,0l0,0c-0.4,0.4-0.6,0.8-0.7,1.5c0,0.6,0.4,1,0.8,1.4c0,0,0.1,0,0.1,0.1
				c-0.1,0-0.1,0.1-0.2,0.1c-0.4,0.2-0.9,0.4-1,1c-0.2,0.4-0.1,0.8,0,1.1c0.1,0.2,0.1,0.3,0.1,0.5c-0.6,0.8-0.8,1.9-0.5,2.8
				c-0.1,0.2-0.2,0.4-0.4,0.6l0,0c-0.2,0.4,0.1,0.7,0.3,0.9c0.1,0.1,0.1,0.1,0.2,0.2c-0.5,0.3-0.6,1-0.5,1.5
				c0.1,0.2,0.2,0.5,0.5,0.6c0,0,0,0,0,0.1c0,0,0,0.1,0,0.1c-0.2,0.6,0.1,1.1,0.4,1.5L29.8,56l0,0c0,0.1,0,0.2-0.1,0.3
				c-0.1,0.3-0.2,0.7,0.1,1.1l0,0c0.1,0.1,0.2,0.1,0.2,0.1c0,0.1-0.1,0.2-0.2,0.2c-0.2,0.2-0.4,0.4-0.3,0.7c0,0.2,0.2,0.4,0.4,0.6
				c0,0-0.1,0.1-0.1,0.1c-0.2,0.2-0.5,0.5-0.4,0.9c0.1,0.5,0.5,0.6,0.9,0.8l-0.2,0.3l0,0c-0.1,0.2-0.2,0.6,0.1,0.9
				c0.1,0.1,0.2,0.1,0.4,0.2c0,0,0.1,0,0.1,0c-0.2,0.3-0.1,0.7,0.1,1c0,0,0,0.1,0,0.1c-0.3,0.4,0,0.8,0.2,1c0.2,0.2,0.3,0.4,0.2,0.6
				l0,0.1l0,0.1c0.1,0.5,0.6,0.5,0.8,0.5l0.2,0c0.1,0,0.3,0,0.3,0l0,0l0,0c0.4,0,0.7-0.1,1-0.2c0.4-0.1,0.8-0.2,1.3-0.2
				c0.1,0,0.3,0,0.4,0c0.4,0.6,1.1,0.7,1.7,0.7c0.1,0,0.3,0,0.4,0c-0.8,0.2-1.6,0.4-2.4,0.7c-0.6,0.2-1.3,0.4-1.9,0.6l-0.1,0l0,0
				c-0.1,0.2-0.3,0.2-0.5,0.3c-0.2,0.1-0.4,0.1-0.6,0.3c-0.3,0.2-0.2,0.5-0.2,0.7c0,0,0,0,0,0c-0.2-0.1-0.4-0.2-0.6-0.3
				c-0.3-0.1-0.6-0.3-0.9-0.4c-0.3-0.1-0.6-0.3-0.9-0.5C29,67.4,28.5,67.1,28,67c-2.5-1.5-4.9-3.2-7.2-4.9c-0.4-0.3-0.8-0.6-1.2-0.8
				l0,0c-0.2-0.1-0.5-0.3-0.7-0.4c-0.5-0.3-1.1-0.6-1.7-0.6c-0.2,0-0.3,0-0.5,0.1c-0.3,0.1-0.4,0.2-0.5,0.3c-0.1,0.3,0,0.6,0.1,0.9
				c0,0.1,0.1,0.2,0.1,0.3l-2.1,0l-0.2,0.2c-0.4,0.5-0.1,0.9,0.2,1.2c0,0.1,0.1,0.1,0.1,0.2c-0.5-0.1-1-0.2-1.5-0.2
				c-0.7,0-1.2,0.2-1.6,0.5l-0.1,0.1l0,0.1c0.1,0.5,0.3,0.9,0.6,1.2c0.4,0.5,0.8,0.9,1.3,1.2c0.1,0.1,0.2,0.2,0.4,0.2
				c-0.3,0.2-0.6,0.5-0.5,1l0,0c0.2,0.5,0.6,0.7,1,1c0.2,0.1,0.3,0.2,0.5,0.3c0,0-0.1,0.1-0.1,0.1c0,0,0,0,0,0c-0.1,0-0.1,0-0.2,0.1
				c-0.1,0.2-0.1,0.5,0,0.6c0.2,0.6,0.8,0.9,1.2,1.1c0.2,0.1,0.3,0.1,0.4,0.2c0,0.1-0.1,0.2-0.1,0.3c-0.1,0.2-0.2,0.4-0.2,0.6l0,0
				c0.1,0.4,0.5,0.6,0.8,0.8l-0.1,0.4l0,0c0,0.5,0.4,0.7,0.7,0.9c0.1,0,0.1,0.1,0.2,0.1c0,0,0,0,0,0.1c-0.1,0.1-0.1,0.2-0.1,0.4
				c0.2,0.6,0.8,1.1,1.5,1.1c0.1,0,0.1,0.1,0.1,0.3c0,0.2-0.1,0.5,0.3,0.7l0,0c0.3,0.1,0.6,0.2,0.9,0.4c0.4,0.2,0.9,0.4,1.4,0.4
				c0.1,0,0.2,0,0.3,0c0.4,0.4,0.9,0.7,1.5,0.8c1.6,0.2,3.2,0.3,4.9,0.1c1,0.7,2.3,0.7,3.5,0.8c0.3,0,0.5,0,0.8,0
				c0,0-0.1,0.1-0.1,0.1l0,0.1l0,0.1c0.7,1.4,2.2,1.5,3.5,1.6c0.1,0,0.3,0,0.4-0.1c0.1,0,0.1,0,0.2,0c0,0,0,0,0.1,0l0.1,0l0.1,0
				c0.2,0,0.4-0.1,0.6-0.1c0.4-0.1,0.8-0.2,1.1-0.1L37,81.9l-0.1,0.4l0,0c0,0.5,0.3,0.6,0.5,0.6c0.1,0,0.2,0,0.4-0.1
				c0.1,0,0.2,0,0.3,0l0,0l0,0c0.1,0,0.1-0.1,0.2-0.1c0.1-0.1,0.2-0.1,0.3-0.1c0,0,0,0,0.1,0c0,0.1-0.1,0.2-0.1,0.4
				c-0.1,0.4-0.3,0.9,0.1,1.3l0,0l0,0c0.3,0.1,0.3,0.2,0.2,0.7c0,0.2,0,0.3,0,0.5l0,0.1c0.1,0.2,0.3,0.6,0.7,0.6c0,0,0.1,0,0.1,0
				c0.1,0.1,0.1,0.2,0.1,0.4c0,0.1,0,0.3,0.1,0.4c0.1,0.4,0.5,0.5,0.8,0.5c0.1,0,0.1,0,0.2,0c0.1,0.5,0.3,1.4,1.1,1.6
				c0.3,0.1,0.7,0,1.1-0.2c0.2,0.2,0.5,0.3,1,0.3c0.1,0,0.2,0,0.3,0l0.1,0l0-0.1c0.1-0.1,0.1-0.1,0.1-0.1c0,0,0.2,0.1,0.2,0.2
				c0.1,0.2,0.3,0.4,0.6,0.4c0,0,0.1,0,0.1,0c0.4,0.1,0.8-0.1,1.2-0.4c0.1,0,0.3,0.1,0.5,0.1c0.1,0,0.2,0,0.3,0
				c0.3-0.1,0.5-0.2,0.7-0.4l0,0c0.1,0.1,0.3,0.1,0.4,0.1c0.3,0,0.6-0.2,0.8-0.4c0.1-0.1,0.1-0.1,0.2-0.2c0.4,0,0.9,0.1,1.4,0.3
				c0.5,0.1,0.5,0.5,0.3,1.2c-0.1,0.3-0.1,0.5-0.1,0.7c0,0.2,0.1,0.3,0.1,0.4c0,0.1,0.1,0.1,0.1,0.2c-0.7,0.5-1.1,1.2-1.3,2l0,0
				c-0.1,1.3,0.1,3.1,1.6,3.8l0.2,0.1l0-0.2c0.1-0.7-0.1-1.3-0.5-2c-0.3-1.1,0.3-1.9,0.7-2.3c0.1,0,0.1,0.1,0.2,0.2
				c0.1,0.1,0.3,0.3,0.5,0.3l0,0l0,0c0.2-0.1,0.4,0,0.6,0.1c0.1,0,0.3,0.1,0.5,0.1c0.2,0,0.3,0,0.4-0.1c0.7-0.4,1.1-1.1,1.1-1.9
				c0.1-0.1,0.3-0.2,0.5-0.3c0.1,0,0.3-0.1,0.4-0.2l0.1,0l0-0.1c0-0.3,0.2-0.3,0.6-0.4c0.3,0,0.8-0.1,0.9-0.6c0.4-0.5,1-0.7,1.5-0.7
				c0.1,0,0.2,0,0.2,0c0.5,0,1,0.4,1.2,0.8l0.1,0.2l0.2-0.1c0.3-0.2,0.5-0.5,0.6-0.7l0,0c0-0.2,0.2-0.4,0.4-0.6
				c0.1-0.1,0.3-0.3,0.4-0.5c0.3-0.1,0.3-0.3,0.4-0.5c0.1-0.2,0.1-0.2,0.2-0.3l0.1,0l0-0.1c0.3-0.4,0.8-0.5,1.4-0.5
				c0.1,0.1,0,0.3,0,0.4c0,0,0,0,0,0h-0.2l0.1,0.2c0.2,0.5-0.2,0.9-0.6,1.3c-0.2,0.2-0.4,0.4-0.6,0.7c-0.3,0.6-0.2,1.3,0,1.7
				l-0.5,0.7l0,0c-0.2,0.5-0.4,1.8,0.4,2.7c0.3,0.2,0.6,0.4,1.1,0.4c0.3,0,0.5,0,0.7-0.1l0.1,0l0,0c0.2-0.1,0.5-0.4,0.5-1v-0.3
				l-0.2,0.1c-0.2,0.1-0.7,0.2-1.2,0.1c-0.4-0.3-0.6-0.6-0.6-1c0.1-0.3,0.3-0.6,0.6-0.9c0.3,0.2,0.6,0.2,1,0.2l0,0
				c0.3-0.2,0.7-0.3,1.3-0.3c0.3,0,0.6,0,0.9,0.1l0.3,0l0,0c0.5-0.1,1.2-0.4,1.7-0.8c0.2,0,0.4,0,0.6,0c0.7,0,1.4,0,2.1,0.2
				c0.5,0.6,1.3,0.6,2,0.7c0.1,0,0.3,0,0.4,0l0,0l0,0c0.5-0.1,0.9-0.6,1.3-1c0.2,0,0.4,0.1,0.5,0.3c0.5,0.6,0.2,1.1-0.2,1.7
				c-0.1,0.2-0.2,0.5-0.3,0.7l-0.1,0.3l0.3-0.1c0.7-0.2,1.3-0.9,1.6-1.6c0.3-1-0.4-1.7-1.1-2.3l0,0l-0.1,0c-0.4,0-0.6-0.2-0.8-0.6
				c-0.1-0.2-0.3-0.3-0.4-0.5l0,0c-0.2-0.1-0.4-0.1-0.6-0.1c-0.2,0-0.5,0-0.7,0.1c-0.2,0-0.5,0.1-0.7,0.1c-0.3,0-0.5-0.1-0.7-0.2
				c0,0,0,0,0-0.1c0,0,0,0,0,0c0.6-0.1,1.2-0.2,1.7-0.5c0.4,0,0.9,0,1.4,0c0.2,0,0.4,0,0.6,0l0.1,0c1-0.4,1.4-1,1.5-1.6
				c0.1-0.1,0.1-0.1,0.3-0.2c0.1,0,0.2,0,0.3,0h0c0.7,0,1.1,0.5,1.3,0.8c0.1,0.1,0,0.2,0,0.4c0,0.1,0,0.2,0,0.3
				c0,0.3,0.2,0.5,0.6,0.5c0.1,0,0.2,0,0.3,0l0.1,0l0-0.1c0.3-0.7,0-1.4-0.2-1.9c0-0.1-0.1-0.2-0.1-0.3l0,0c-0.4-0.7-1-0.7-1.5-0.7
				c-0.2,0-0.5,0-0.7,0c-0.3,0-0.5,0.1-0.8,0c-0.2-0.1-0.3-0.3-0.4-0.5l0-0.1l-0.1,0c-0.2-0.1-0.5-0.1-0.7-0.1
				c-0.6,0-1.1,0.3-1.6,0.5c-0.5,0.3-1,0.5-1.5,0.5l-0.1,0c0,0-0.1,0-0.1,0c0.1,0,0.1,0,0.2,0c0.1,0,0.2,0,0.3,0
				c0.9-0.2,1.7-1,2-1.8c0-0.2,0-0.3,0-0.5c0-0.2,0-0.3,0-0.5c0.4-0.2,1-0.1,1.5,0.2c0.2,0.3,0.3,0.6,0.3,1.2l0,0.3l0.8-0.4l0-0.1
				c0.2-0.6,0.2-1.5-0.5-2c-0.3-0.3-0.7-0.4-1.1-0.4c-0.3,0-0.6,0.1-0.9,0.1c-0.3,0.1-0.6,0.1-0.9,0.1c-0.2,0-0.4,0-0.5-0.1
				c-0.2-0.1-0.3-0.1-0.5-0.1c-0.6,0-1.1,0.5-1.6,1c-0.2,0.2-0.3,0.3-0.4,0.4c-0.6,0.2-1.2,0.8-1.7,1.3c-0.6,0.6-1.1,1.1-1.8,1.3
				c-0.5,0.1-1,0-1.6-0.2c-0.1-0.1-0.3-0.2-0.4-0.2c-0.5-0.2-0.8-0.4-0.7-0.9l0-0.1l-0.1-0.1c-0.2-0.2-0.3-0.3-0.5-0.5
				c-0.4-0.5-0.9-1-1.4-1.2c0-0.1-0.1-0.2-0.1-0.3c-0.1-0.1-0.1-0.2-0.1-0.3l0.4,0l0,0c0.1-0.1,0.3-0.1,0.5-0.1c0.2,0,0.4,0,0.6,0.1
				c0.1,0,0.1,0,0.2,0c0.7,0.2,0.8,0.9,0.9,1.6c0,0.2,0.1,0.4,0.1,0.6l0.1,0.3l0.2-0.2c0.6-0.8,0.5-2.1,0.1-2.9
				c-0.2-0.5-0.7-0.6-1.1-0.7c-0.3-0.2-0.6-0.2-1-0.2c-0.7,0-1.3,0.3-1.9,0.6c-0.2,0.1-0.4,0.2-0.6,0.3c-0.1-0.4-0.3-0.7-0.6-1
				c-0.3-0.3-0.8-0.4-1.3-0.4c-0.4,0-0.8,0.1-1.1,0.2c-0.4-0.2-0.8-0.5-1.2-0.8c-0.5-0.4-1.1-0.9-1.7-1.1c-0.2-0.2-0.4-0.3-0.6-0.4
				c-0.3-0.1-0.5-0.2-0.6-0.5l0-0.1l-0.1,0c-0.1,0-0.3-0.1-0.4-0.2c-0.2-0.1-0.3-0.2-0.6-0.2c-0.3-0.2-0.6-0.3-0.9-0.4
				c-0.2-0.1-0.4-0.1-0.6-0.2c0-0.2,0.2-0.4,0.4-0.6c0.1-0.1,0.3-0.2,0.4-0.4c0.7-0.7,1.7-0.8,2.6-0.8c0.2,0,0.5,0,0.7,0l0.1,0.1
				l0,0c0.1,0,0.2,0,0.3,0c0.5,0,0.9,0.1,1.4,0.3c0.3,0.1,0.5,0.2,0.8,0.2c0.2,0.1,0.4,0.3,0.6,0.5c0.2,0.2,0.4,0.4,0.6,0.6
				c0.2,0.4,0.3,0.8,0.4,1.3c0.1,0.6,0.2,1.3,0.7,1.8c0.3,0.5,0.8,0.5,1.2,0.4c0.1,0,0.1,0,0.2,0l0.1,0l0,0c0.2-0.1,0.4-0.3,0.4-0.6
				v-0.1l0,0c-0.2-0.2-0.3-0.5-0.3-0.9c0,0,0.1,0.1,0.1,0.1c0.1,0.1,0.2,0.2,0.3,0.2c0.1,0.1,0.2,0.1,0.3,0.1c0.2,0,0.5-0.1,0.6-0.2
				l0.1-0.1l-0.2-0.3c-0.2-0.3-0.4-0.7-0.8-0.9c0-0.1,0-0.3,0-0.4c0.3,0.1,0.6,0.4,0.9,0.7l0.1,0.1c0,0.1,0,0.3,0,0.4
				c0,0.3,0,0.6-0.2,0.7l0,0c-0.1,0.2-0.1,0.6,0.1,0.8l0.2,0.1l0.1-0.1c0,0,0,0,0,0l0.1,0c0.9-0.2,2-1.1,2.2-2.1
				c0.4-0.9,0-1.6-0.3-2.2c-0.4-0.6-0.7-1.2-0.3-1.9l0-0.1c0.2-3-1.8-5.2-3.8-7.3c-0.3-0.4-0.7-0.7-1-1.1c-0.1-0.4-0.4-0.5-0.6-0.6
				c-0.2-0.1-0.3-0.1-0.4-0.2c0,0,0,0,0,0c0,0,0.1-0.1,0.2-0.2c0,0,0,0,0,0c1.2-0.4,2.2-1.1,3.3-2c3.1-1.1,6-2.8,8.7-5
				c1.4-0.7,2.9-1.5,4.5-2.6c1.6-1.2,2.4-2.8,3.3-4.6l0,0c0.1-0.4,0.2-0.9,0.4-1.3c0.2-0.6,0.4-1.2,0.5-1.9c0-0.7,0-1.5,0-2.2
				C81.2,41.2,81.2,39.3,80.9,37.5z M33.6,68.6c0.5,0.1,0.9-0.6,1.3-0.1L34.8,69c-0.8,0.1-1.6,0.9-2.3,0.2
				C32.6,68.8,33.2,68.7,33.6,68.6z M62.9,86.7c-0.3,0.4-0.9,0.8-1.4,1c0.1,0.3-0.2,0.6-0.3,0.9c-0.5-0.6-1.3-0.8-2-0.6
				c-0.3,0.2-0.6,0.3-1,0.2c0-0.3,0.5-0.3,0.6-0.6c0.8,0.1,1.4-0.4,2.3-0.1c0.4-0.1,1.1-0.4,1.4-0.7c0.3-0.4,0-1.1,0.6-1.2
				c0.6,0,1.2-0.1,1.6,0.3C64,86.1,63.5,86.3,62.9,86.7z M63.7,83.4l0.1-0.2c0.4,0.4,1,0.4,1,1c0.6,1.4,2.2,1.5,3.5,1.9
				c1.1-0.9,2.3-1.4,3.3-2.6c1-0.3,1.5-1.8,2.7-1.6l0.2,0.3c0.1,0.2,0.2,0.5,0.3,0.7c0.1,0.2-0.6,1-0.8,1.3c0,0,0,0,0,0
				c0,0-0.1,0.1-0.1,0.1h0c-0.3,0.2-0.7,0.3-1.1,0.3c0,0,0,0,0,0c-0.1,0-1,0.7-1.1,1c-0.1,0.2-0.3,0.4-0.3,0.6c0,0.1,0,0.2,0.1,0.3
				c0.4-0.3,0.8-0.7,1.4-0.6l0.8,0.2c0.8-0.8,1.8-1.2,2.9-1.1l0.3,0.4c0.2,0.4,0.3,1-0.1,1.2c-0.5,0.6-2,0.5-2.7,0.4
				c-0.6,0.7-1.6,0.3-2.4,0.8c-0.2,0-0.3-0.1-0.5-0.1c-0.1,0.1,0,0.4-0.1,0.6c0.7-0.2,0.8,0.8,1.4,0.9c0.9,0.2,2.2-0.4,2.8,0.5
				c0,0.4-0.2,0.6-0.3,0.9c-0.7,0.6-1.6,0.1-2.3-0.1C72.1,89.8,70.9,90,70,90c-1.4,0-2.4,1.5-3.8,0.7c-0.6-0.2-0.8,0.4-1.3,0.5
				c-0.2-0.3-0.4-0.7-0.8-0.8c-0.1-0.3-0.1-0.7,0.1-0.9c0.5-0.8,1.5-0.8,1.8-1.6c0.2-0.4,0.6-0.4,0.9-0.8c-0.1-0.2-0.3-0.4-0.5-0.5
				c-0.3,0-0.6,0-0.6,0.3c0,0.1,0,0.2-0.1,0.3c0.2-0.6,0.3-1.6-0.3-2.1c-0.6-0.5-1.4-0.7-2.2-0.4c-0.2,0.2-0.4,0.3-0.7,0.2l-0.3-0.4
				C62.9,84.3,63.1,83.6,63.7,83.4z M61,80.6c0,0.2,0.2,0.2,0.1,0.5c-0.5,0.1-0.2-0.9-0.9-0.6c-0.2-0.2-0.4-0.3-0.6-0.4
				C60.2,79.7,60.7,80.1,61,80.6z M59.2,80.3l1.1,0.7c-0.1,0.4-0.4,0.3-0.7,0.4c-0.3,0.2-0.5,0.7-1,0.5c-0.2-0.1-0.3-0.1-0.4-0.3
				C58.1,80.9,58.9,80.8,59.2,80.3z M61.2,74.9c0-0.4-0.4-0.7-0.3-1.1c0.3,0.1,0.3,0.5,0.4,0.7C61.3,74.7,61.4,74.9,61.2,74.9z
				 M80.2,47.1c-0.5,0.6-0.5,1.3-0.7,2c-1.1,2.1-3.2,4.2-5.5,5c-0.8,0.7-1.7,1-2.6,1.6c-2.5,1.9-5,3.6-7.9,4.4c-1,0.7-2,1.6-3.2,2
				c-0.3,0.4-0.9,0.4-1.3,0.3c-0.4-0.3-0.8-0.5-1.2-0.9c-0.2,0.2,0.2,0.4,0.2,0.6c1.3,1.1,2.3,2.5,3.6,3.4c1.4,2.2,4.5,4.2,3.2,7.1
				c-0.1,0.3,0.4,0.6,0,0.8c-0.2,0-0.5-0.5-0.6,0c0.3,0.2,0.5,0.7,0.9,0.4c0.5,0.3,0.5,0.9,0.7,1.4l0.2,0.2
				c-0.1,0.6,0.2,1.4-0.4,1.7c0.1-0.9,0.5-2-0.3-2.7c-0.1,0.4,0,1-0.1,1.4c0.1,0.6-0.7,1.2,0,1.7c0,0.2-0.2,0.2-0.3,0.3H65
				c0.1-0.7,0-1.3-0.3-1.8c-1-0.9-2.2-1.4-3.2-2.2c-0.1-0.1-0.1-0.2-0.1-0.3c0.3-0.2,0.4,0.7,0.7,0.1c-0.1-0.5-0.7-0.5-1-0.9
				c-0.2,0-0.4,0.1-0.5,0.2c0,0.1,0,0.2,0.1,0.2h0.3c0.3,0.4-0.4,0.5-0.3,0.9c-0.7,0.2-1.1-0.5-1.7-0.6c-1.9-0.7-4.5-0.8-6.2,0.4
				c-0.6,0.4-1.2,1.1-1.3,1.8c0.6,0.7,1.6,0.6,2.3,1.3c0.2,0.1,0.3,0.2,0.5,0.2c0.8,0.8,2,0.9,2.6,1.9c0.6,0.2,1.2,0.3,1.6,0.9
				c-0.6,0.4-0.8,1.2-1.7,1.1c-0.9-0.1-1.6,1-2.2,1.6c-0.5,1-0.6,2-1.5,2.8c-0.5-0.1-0.8,0-1-0.5c-0.1-0.7,0.4-1.7-0.6-2
				c-0.1-0.4-0.3-0.8-0.7-1c-0.7-1.1-2.4-1.6-2.3-3c0.1-0.1,0.2-0.2,0.3-0.2c0.1,0.2,0.1,0.5,0.2,0.6c0.4,0.8,1.2,1.4,1.8,2
				c0.3-0.1,0.3,0.3,0.5,0.4c0.2,0.7,0.7,1.1,1.2,1.5c0.2,0.2,0.1,0.5,0.1,0.8c-0.1,0.3-0.3,0.5-0.2,0.8c0.2,0.2,0.6,0.1,0.8,0
				c0.1-0.1,0.3-0.2,0.2-0.4c0.6-0.2,0.5-1,0.9-1.5c-0.3,0-0.4-0.2-0.3-0.5c0.3-0.3,0.7-0.3,0.9-0.6c0-0.5,0.4-1.3-0.1-1.7
				c-0.2,0.2,0.1,0.3,0.1,0.5c-0.3,0.1-0.3,0.6-0.6,0.5c-0.3-0.2,0.2-1.2-0.5-0.7c-0.1-0.1-0.1-0.5-0.3-0.4
				c-0.4,0.3-0.5,1.2-1.2,0.9c-0.1-0.2,0.1-0.5,0-0.7c0,0,0.1,0,0.1,0v0.1c0.3,0.1,0.4-0.3,0.7-0.5c-0.2-0.2-0.6,0.2-0.6-0.2
				c0.1-0.2,0-0.6,0.3-0.6c0.4-0.1,0.5,0.4,1,0.3c0.2,0.4,0.5,0.7,0.9,0.9c0.2-0.2-0.2-0.5,0.1-0.7c0.2-0.1,0.3,0.2,0.5,0.2
				c-0.1-0.2,0.1-0.8-0.3-0.8c-0.2,0.2-0.3,0.6-0.6,0.6c-0.4,0-0.2-0.6-0.6-0.6c-0.2,0-0.6,0.2-0.6-0.2c-0.1-0.3,0.6-0.4,0.2-0.8
				c-0.1-0.1-0.2-0.2-0.4-0.2c-0.3,0.5-0.8,0-1.2,0.3c-0.1,0-0.3-0.1-0.4,0.1c0,0.2,0.2,0.3,0.1,0.4c-0.1,0.1-0.3,0-0.4,0
				c-0.1-0.4,0.4-0.6,0.1-0.9c0-0.1,0.1-0.2,0.2-0.2c0.2-0.1,0.3,0.1,0.5,0.2c0.3-0.3-0.1-0.6-0.1-0.9c-0.1,0-0.6,0.2-0.5-0.2
				c0.1-0.2,0-0.4-0.2-0.5c-0.5,1.1-1.7,1.6-2.7,2.2c-0.5,0.2-0.6,0.8-0.5,1.1c0.8,1.1,1.9,2.4,2.8,3.4c-0.3,0.7,1.2,0.6,0.6,1.3
				c0.1,0.3,0.1,0.8-0.1,1.1l0.2,0.2c0.6,0.4,1.2,0.7,1.8,1c0.5-0.2,0.5-0.6,0.7-1c1.3-0.7,0.8-2.5,2.2-3c0.1-0.2,0.1-0.5,0.3-0.6
				c0.3,0,0.8-0.1,0.9,0.3v0c0.3,0.1,0.8-0.2,0.9,0.3c0.1,0.5-0.3,0.6-0.4,1c-0.5,0.1-0.4,0.5-0.9,0.5c0.1-0.2,0.2-0.1,0-0.3
				c-0.2,0-0.4,0.4-0.6,0.1c-0.1-0.2,0.1-0.6-0.3-0.5c-0.4,0.4,0,1.5-0.9,1.2c-0.2,0.2-0.1,0.6-0.2,0.9c0.1,0.3,0.3,0.1,0.4,0
				c0.4-0.3,0.5-0.9,1-0.9c0,0.3-0.1,0.6-0.2,0.8c-0.2,0.3-0.5,0.1-0.7,0.4c0.2,0.3-0.1,0.7,0.2,1c0.2-0.2,0.2-0.7,0.3-1
				c0.7-0.2,0.5-1.3,1.3-1.3c0.7-0.2,1.3-0.9,1.4-1.6c0.5-0.4,1.1-0.6,1.6-1c0.2,0,0.4-0.3,0.6-0.3c0.4,0.1,1,0,1.3,0.4
				c0.2-0.1,0.4-0.1,0.6-0.2c0.2,0.3,0.3,0.7,0.2,1c-0.1,0.7-0.9,1.1-1.5,1.2c-0.8,0.1-1.9-0.3-2.3,0.6c0,0.3-0.3,0.4-0.5,0.6
				c-0.3,0.2-0.4,0.6-0.5,0.9c0.4,0.2,0.5-0.5,0.9-0.4c0.3-0.4,0.8-0.4,1.1-0.7c-0.2-0.2-0.6,0.3-0.6-0.1l0.3-0.2
				c0.4,0.8,1.7-0.2,2.1,0.7c-0.5,0.6,0.4,0.8-0.1,1.4c-0.6,0.6-1.4,0-2,0.4c-0.5,0-1.3-0.1-1.8,0.3c-0.3,0.4-0.6,0.7-0.5,1.3
				c0.1,0.1,0.2,0.3,0.1,0.5c-0.2,0.5-0.8,0.4-1.2,0.5c-0.2,0.3-0.5,0.8-0.9,0.9c-0.3,0.1-0.6-0.2-0.7,0.2c0.2,0.3,0.1,0.8,0,1.1
				c-0.4,0.7-1.1,0.5-1.8,0.4c-0.6-0.2,0.1-1.3-0.7-1.3c0-0.6-0.4-1.3,0-1.9c0.2-0.3-0.1-0.5-0.1-0.8c-0.9-0.4-2.1-1-3-0.3
				c-0.2,0.1-0.2,0.5-0.6,0.4c-0.2-0.2-0.3-0.3-0.3-0.6c-0.6,0-0.2,0.8-0.8,0.9c-0.3,0.2-0.6-0.1-0.6-0.4c-0.3-0.2-0.2,0.3-0.5,0.4
				c-0.2,0.2-0.4,0.4-0.7,0.3c-0.3-0.2-0.3-0.8-0.7-0.8c-0.1,0.4-0.6,0.4-0.9,0.3c-0.4,0-0.2-0.4-0.4-0.6c-0.5,0.1-0.9,0.7-1.4,0.5
				c-0.7-0.3-0.1-1.3-0.7-1.6c-0.4,0-0.9,0-1.1-0.5l0-0.9c-0.2-0.1-0.7,0.2-0.8-0.2l-0.1-1.4c-0.1-0.2-0.5,0.1-0.5-0.3
				c-0.1-0.7,0.4-1.4-0.3-1.9c-0.1-0.6,0.1-1.1,0.1-1.6c-0.4-0.4-0.9,0.1-1.4-0.1c-0.5,0.5-1.3,0.3-2,0.4c-0.9,0.2-1.6-0.2-2.4-0.5
				c-0.2-0.2-0.4-0.4-0.3-0.7c0.1-0.1,0.3-0.2,0.4-0.3c-0.5-0.6-1.2,0-1.8-0.3c-1.1,0-2.1-0.3-3.1-0.5c-0.3-0.2-0.6-0.6-1-0.5
				c-1.5,0.6-3.3,0.3-4.8,0c-0.1-0.1-0.2-0.3-0.1-0.4l0.1-0.1c-0.2-0.2-0.5,0-0.8-0.1c-0.8-0.3-1.9-0.2-2.5-0.9c0-0.4,0.7,0,0.7-0.4
				c-0.4-0.3-1.1-0.1-1.4-0.6c-0.3-0.1-0.6-0.1-0.8-0.4c-0.2-0.6,0.9-0.1,0.8-0.7c-0.5-0.2-1.1-0.4-1.5-0.8c0-0.5,0.5-0.2,0.8-0.3
				c0-1-1.7-0.4-1.4-1.6c0.2-0.4,0.5,0.1,0.8-0.3c0-0.6-0.7-0.5-1.1-0.7c-0.2-0.5-1.1-0.3-1-1.1c0.3-0.5,1,0.1,1.2-0.5
				c-0.8-0.4-1.7-0.5-2.3-1.3c-0.1-0.1,0-0.3,0-0.4c0.2-0.3,0.9-0.1,0.7-0.6c-0.2-0.3-0.6-0.4-0.9-0.6c-0.6-0.6-1.3-1-1.7-1.7
				c0.3-0.5,1.1-0.2,1.6-0.2c0.7,0.2,1.4,0.2,2,0.7c0.1,0,0.3,0.1,0.4,0c0.3-0.5-0.5-0.4-0.7-0.8c-0.3-0.4-0.6-0.8-0.6-1.3
				c0.7-0.3,1.4,0.1,2.2,0.1c0.1,0.1,0.2,0.2,0.4,0.1c0.3-0.5-0.2-0.8-0.4-1.2c0-0.2-0.2-0.4,0-0.6c0.8-0.3,1.4,0.3,2.1,0.6
				c1.8,1.2,3.5,2.6,5.3,3.7c1.6,1.4,3.5,2.1,5.3,3.1c1,0.7,2.2,0.8,3.3,1.4c0.8,0,1.8,0.4,2.4-0.3c0.4-0.1,0.8,0.1,1.2-0.1
				c-0.3-0.5-1.8,0-1.1-1c0.5-0.2,1.1-0.3,1.6-0.3c0-0.2-0.1-0.5,0.1-0.7c0.5-0.4,1.7,0,1.6-1c0.4-0.1,0.8-0.3,0.9-0.7l-0.1-0.1
				c-0.7,0.2-1.5-0.2-2.1,0c-0.7,0.3-1-0.7-1.5-0.9c-1.3-0.2-2.3,0.5-3.6,0.3c-0.1-0.4,0.3-0.4,0.5-0.6c0.1,0.1,0.3-0.1,0.3-0.2
				c-0.3-0.5-1.4,0.3-1.2-0.6c0.2-0.3,0.8-0.1,0.7-0.5c-0.1-0.2-0.3,0.1-0.5,0c-0.2-0.1-0.4,0-0.5-0.2c-0.1-0.5,0.5-0.5,0.5-1
				c-0.3-0.3-1,0.2-1-0.4c-0.1-0.5,1.1-1,0.2-1.2c-0.2-0.1-0.6,0-0.7-0.2c0-0.5,0.5-1,1-1.3c-0.1-0.5-0.8,0.1-0.9-0.4
				c-0.1-0.5,1.5-1,0.3-1.3c-0.1,0-0.2-0.2-0.2-0.3c-0.1-0.6,0.4-0.9,0.6-1.3c0.1,0,0.2-0.1,0.3-0.2c0-0.6-0.8-0.3-0.9-0.9
				c-0.1-0.5,1.1-0.9,0.3-1.3c-0.3,0.1-0.5-0.1-0.6-0.3c-0.1-0.7,0.7-1.1,1.2-1.4c-0.3-0.5-1.5,0-1-0.9c0.4-0.4,0.9-0.6,1.4-0.7
				c-0.2-0.5-0.9,0-1.2-0.5c-0.4-0.5,0.1-0.9,0.1-1.4c0.1-0.5,0.6-0.7,1.1-0.8c-0.1-0.5-0.7-0.3-0.8-0.8c-0.1-0.4,0-0.9,0.2-1.3
				c0.7-0.4,1.5-0.5,2.1-0.9c-0.1-0.5-0.6-0.1-0.8-0.2c-0.4-0.3-0.9-0.4-1.1-0.9c0-0.5-0.1-1,0.2-1.4c0.5-0.6,1.6,0.2,1.8-0.6
				c-0.6-0.2-1.7-0.3-1.6-1.3c0.1-0.6,0.1-1.4,0.9-1.7c0.3-0.1,0.6-0.2,1-0.1c0.1-0.1,0.1-0.2,0.1-0.3c-0.6-0.3-1.3-0.4-1.7-1.1
				c-0.2-0.6-0.1-1.4,0.2-2c0.7-0.1,1.6-0.1,2.4-0.1l0.1-0.1c-0.1-0.3-0.4-0.5-0.6-0.6c-0.5,0.1-0.7-0.5-1.2-0.6
				c-0.6-0.7-0.8-1.6-0.6-2.5c0.1-0.3,0.3-0.7,0.6-0.9c1.3,0.2,2.5,0.8,3.5,1.8c0.1,0,0.1-0.1,0.2-0.2c0-0.5-0.6-0.4-0.8-0.8
				c-0.4-0.8-1.3-1.3-1.6-2.1l-0.3-2.3c0.1-0.4,0.5-0.6,0.8-0.8c0.4,0,0.8,0.3,1.1,0.6c0.8,0.8,1.7,1.5,2.7,2.1
				c0.1,0,0.2-0.2,0.1-0.3c-0.6-0.9-1.7-1.6-2-2.6c-0.7-1.1-0.9-2.5-1.1-3.8c0.1-1.6,0.4-3.2,1-4.6c0.1-0.2,0.2-0.5,0.4-0.6
				c0.8-0.5,1.1,0.5,1.3,1c0.3,1.1,0.8,2.1,0.9,3.4c0.3,1.1,0.8,2.1,1,3.3c0.5,1.3,1.2,2.5,2.3,3.5c0.5,1,1.5,1.9,2.5,2.5
				c0.2-0.1,0.4-0.1,0.5-0.3c-0.2-0.8-0.9-1.4-1.4-2.1c-0.3-0.8-0.8-1.5-0.9-2.3c-0.3-0.2-0.1-0.5-0.2-0.7c-1-2.9-1.6-6.1-1.3-9.5
				c0.2-1.1,0.4-2.1,1.4-2.9c0.8,0.4,0.5,1.4,1.2,1.9c0.1,1.4,0.6,2.5,0.8,3.8c0.6,2.5,0.7,5.3,1.9,7.6c0.2-0.2,0.5,0,0.6-0.2
				c-0.1-0.3-0.3-0.6-0.4-0.9c0-1.8-0.8-3.2-0.6-5.1c0.1-3.8,0.7-7.4,2.6-10.5c0.5-0.3,0.7-1.1,1.4-1c0.2,0.5,0.2,1.3,0,1.8
				c-0.3,1.9-0.7,3.7-0.7,5.7c-0.3,2.6-1,5.6-0.2,8.3c0.1,0.2,0.3,0.4,0.2,0.6c0.7,0.5,0.5,1.4,1.1,2c0.2-0.2,0.1-0.6,0.1-0.9
				c-0.3-0.9-0.1-2-0.4-2.9l0.1-5.6c0.6-3.7,1.5-7.3,3.3-10.4c0.7-1.2,1.8-2.2,2.5-3.4c0.2-0.3,0.6-0.6,0.8-0.1
				c-1.2,4.7-2.6,9.3-3.7,14.1c-0.2,2.8-0.8,5.6-0.1,8.3c0.2,0.1,0.1,0.3,0.3,0.3c0.2-0.5,0-1.1,0.3-1.6c0-0.7-0.2-1.5,0.2-2.1
				c0.4-3.2,1.5-6.1,2-9.3c0.8-1,0.7-2.4,1.4-3.5c0.2-0.8,0.6-1.4,0.9-2.1c0.6-1,1.1-2.1,2-3c0.1-0.1,0.1,0.1,0.2,0.1
				c-0.2,1.1-0.2,2.3-0.5,3.3c-0.2,1.8-0.7,3.4-0.8,5.2c-0.4,0.7-0.3,1.5-0.6,2.2c-0.3,0.9-0.2,2-0.6,2.9c0,1.7-0.7,3.2-0.7,4.9l0,0
				c1.1-1.9,1.4-4.2,1.6-6.5c0.5-0.4,0.2-1.2,0.6-1.6c0.2-1.1,0.7-2,1.1-3c0.3-0.2,0.2-0.6,0.5-0.6c1,3.8,0.8,8.5-0.8,12
				c-0.4,0.9-0.5,1.9-1.2,2.7c-0.1,0.8-0.7,1.3-1,2c-0.4,0.5-0.7,0.9-0.9,1.5c-0.6,0.9-1.3,1.8-1.5,2.9c0.1,0.2,0.3,0,0.5,0.1
				c1.1,1.8,1.1,4.6,0.5,6.6c-0.1,1.2-0.9,2.2-1.3,3.3c-0.5,0.7-0.7,1.5-1.1,2.3c-0.6,1.1-1.1,2.2-1.5,3.3c-0.2,0.1-0.1,0.3-0.2,0.4
				c-0.3,0-0.1,0.3-0.2,0.4c-0.5,0.9-0.5,2-0.8,3c0,2.5-1.2,5.7,1,7.5c0.2,0.1,0.3,0.5,0.6,0.6c0.1,0.6,0.3,1.1,0.3,1.7
				c0.1,0.3-0.4,0.8,0.1,0.8c0.6-1,0.2-2.3-0.3-3.2c-0.8-0.7-1.8-1.6-1.6-2.9c-0.1-0.9,0-1.9,0.2-2.7c0.6-0.4,1.1-1,1.8-1
				c0-0.3,0.1-0.6,0.2-0.9c0.8-0.5,1.6-0.9,2.6-0.7c0.1-0.1,0.1-0.1,0.1-0.2c-0.2-0.2-0.6-0.1-0.8-0.3c0.4-0.9,1.3-1,2.1-1.4
				c0.6-0.1,1.3-0.1,1.9-0.4c0-0.2-0.2-0.4-0.1-0.7c0.1-0.1,0.2-0.2,0.4-0.2c0.7-0.4,1.5-0.5,2.3-0.7l1.7,0c0.6-0.2-0.3-0.8,0.3-1
				c0.3,0,0.5,0.3,0.7,0.4c-0.1,0.3-0.7,0.3-0.5,0.7c-0.3,0.2-0.5-0.3-0.7,0.1c-0.4-0.2-0.6,0.5-1,0.2c-0.3,0.5-0.8,0.1-1.2,0.5
				c-0.2,0-0.4,0-0.4,0.2c-0.2,0.2-0.6-0.2-0.7,0.2c-0.2,0.4,0.8,0.5,0.2,0.8c-0.4,0.2-0.4-0.6-0.8-0.2c-0.3-0.1-0.7-0.1-0.6,0.3
				c-0.2,0-0.1-0.2-0.3-0.3c-0.3,0.2-0.8,0.1-1,0.5c0,0.1,0.1,0.2,0.1,0.3c-0.4,0.2-0.7,0.6-1.1,0.6c0,0.3,0.5,0.4,0.2,0.7
				c-0.4,0.4-1,0.4-1.4,0.7c-0.3,0-0.6-0.3-0.8,0.1c0,0.1,0,0.3-0.2,0.3c-0.2-0.3-0.4,0-0.6,0c0,0.1,0,0.1,0,0.2
				c0.2,0.2,0.3-0.2,0.5,0c-0.1,0.1-0.1,0.2,0,0.3c-0.1,0.2-0.4,0.1-0.5,0.3c0.1,0.1,0.2,0.2,0.2,0.4c-0.4,0.1-0.7,0.4-1.2,0.3
				c-0.1,0.2-0.2,0.4-0.4,0.4c-0.1,0-0.2,0-0.3-0.1c0.2,0.5-0.7,0.9-0.2,1.4c0,0.1,0,0.2,0.1,0.2c0.4-0.1,0.2-0.7,0.7-0.7
				c0.7,0.1,1.4,0.2,2,0.3c0.1,0,0.1,0.2,0.1,0.2c-0.4,0-0.8,0.2-1.2,0.2c-0.1-0.1,0-0.4-0.2-0.4c-0.1,0-0.3,0.1-0.3,0.2
				c0,0.1,0.1,0.2,0.2,0.3c-0.3,0.1-0.7,0.1-0.8,0.4c0,0.3-0.1,0.8,0.3,1c0.2,0.1,0.2-0.2,0.2-0.3c-0.2-0.5,0.4-0.3,0.4-0.7
				c0.4-0.4,1.1-0.1,1.6-0.5c0.5-0.1,0.9,0.5,1.2,0.1c-0.2-0.5-1.1-0.2-1.1-0.9c0.6-0.6,1.6-0.7,2.4-0.4c0.3,0.1,0.5,0.3,0.8,0.1
				c-0.1-0.2-0.4-0.3-0.6-0.4c-0.2-0.1-0.3-0.4-0.2-0.6c0.6-0.7,1.6,0,2.3-0.2c0.1-0.2-0.1-0.3-0.2-0.4c-0.3-0.1-0.8,0-0.9-0.4
				c0-0.2,0.3-0.4,0.1-0.6c-0.2,0-0.4,0.2-0.6,0.1c-0.1,0.3-0.3,0.4-0.6,0.6c0.1,0.1,0.2,0.2,0.2,0.4c-0.5,0.2-0.8,0.6-1.3,0.8
				c-0.5-0.5-1.4,0.3-1.8-0.4c-0.1-0.1-0.2-0.3-0.1-0.4c0.2,0.2,0.4-0.1,0.6-0.1c0.1-0.5,0.7-0.1,1-0.4c0.2,0.1,0.3,0,0.4-0.1
				c0.1-0.2-0.3-0.7,0.1-0.8c0.4,0.1,0.7-0.3,1.1,0c0.3-0.3,0.5,0.3,0.8,0c-0.1-0.4-1-0.4-0.6-1c0.1-0.2,0.3-0.3,0.5-0.4
				c1-0.1,2.1-0.5,3,0c-0.2,0.2-0.2,1-0.8,0.8l-0.3,0.5c-0.4,0-0.8,0.1-1.2,0.3c-0.1,0.1-0.2,0.2-0.2,0.3c0.3,0,0.6-0.2,0.9-0.3
				c1-0.2,2.1,0.1,3.1-0.1c-0.3-0.6-1.5-0.1-1.3-1.1c0.7-0.9,2-0.5,3.1-0.6c0.1-0.3,0.5,0.1,0.6-0.2c-0.1-0.3-0.5-0.4-0.3-0.7
				c0.7-0.3,1.8-0.6,2.4,0c0,0.5-0.6,0.2-0.8,0.5c0.5,0.2,1.2,0.4,1.6,0c-0.2-0.2-0.3-0.4-0.2-0.6c0.2-0.4,0.6-0.2,0.9-0.4
				c0.6-0.1,1.2,0.2,1.8,0.1c-0.3-0.1-0.4-0.7-0.8-0.4c-0.4,0.1-0.3-0.4-0.3-0.6c0.3-0.4,1-0.3,1.5-0.2c0.3-0.1,0.7,0.5,0.8,0.1
				v-0.2c0.6-0.1,1,0.4,1.4,0.8c0.4-0.2,0-0.7,0.3-0.9c0.4,0,0.7,0.5,1.1,0.2c0.2-0.1,0.3-0.3,0.3-0.5v-0.1c0.3,0.5,1.1-0.3,1.2,0.6
				c0,0.2,0.1,0.4,0.3,0.5c0.1-0.2-0.1-0.6,0.2-0.7c0.1,0,0.2,0.2,0.3,0.1l0.5-0.6c-0.1-0.4-0.6-0.3-0.8-0.6c-0.2,0-0.2,0.2-0.4,0.1
				c-0.1-0.1,0-0.2,0-0.3c-0.5,0.1-0.3-0.7-0.8-0.5c-0.1-0.1,0-0.2,0-0.3c0.2-0.1,0.4,0,0.6,0.1c0.2,0.2,0.2,0.6,0.6,0.7
				c0.4,0.1,0.5-0.5,0.9-0.3c0.2,0.1,0.3,0.3,0.2,0.5c-0.2,0-0.3-0.2-0.4,0c0.1,0.1,0.3,0.2,0.4,0.2c0.1,0.3-0.1,0.7,0.2,0.9
				c-0.3,0.1-0.6,0.3-0.6,0.6c-0.2,0-0.3,0.1-0.3,0.2c0.2,0.2-0.3,0.7,0.2,0.6h0.1c0,0.2,0,0.5-0.2,0.6c-0.5,0.2-0.9,1-1.5,0.9
				c-0.1-0.1-0.1-0.2-0.2-0.2c-0.1,0.3,0,0.7,0.2,0.9c-0.8,0.7-1.6,1.4-2.5,1.9c-0.3,0.3-0.5,0.7-0.9,0.8c-0.2,0.5-0.8,0-1.1,0.3
				c-0.2,0-0.5-0.4-0.7,0c0,0.2,0.1,0.3,0.1,0.4c-0.2,0.2-0.4,0-0.6,0c-0.2,0.2-0.1,0.6-0.4,0.5c-0.2,0-0.3-0.2-0.4-0.2
				c-0.1,0.3-0.3,0.7-0.7,0.8c-0.1,0-0.3-0.2-0.4,0l0,0.2c-1.2,0.6-2.2,1.7-3.5,2.2c-0.9,0.9-2,1.2-3,1.8c-0.3,0.2-0.8,0-1,0.5
				c-0.6,0.5-1.4,0.2-2,0.8c-0.4,0.2-1,0-1.3,0.4c0,0.3,0.2,0.6,0.4,0.8c0.6,0,1.1-0.3,1.6-0.6c1.2-0.8,2.7-1,3.7-2
				c3.3-1.4,6.2-3.8,9.4-5.5c0.8-0.8,1.7-1.2,2.6-1.7c0.5-0.9,1.4-1.4,1.9-2.3l0.3-0.4c0.3-0.8,0.6-1.6,1-2.3c0-0.8,0.2-1.5,0-2.3
				c0-0.2,0.1-0.5-0.1-0.6c0.1-2.7,0.4-5.4-0.3-7.9c0,0,0-0.1,0.1-0.1c-0.3-0.4-0.3-0.9-0.7-1.2c-0.3,1.3-0.4,2.5-0.3,3.9
				c-0.3,0.8-0.2,1.8-0.5,2.6c-0.1,0-0.3,0.1-0.3,0.3v0.2c-0.4,0.1-0.7-0.3-0.8-0.5c-0.3-0.4-0.1-1-0.2-1.4c-0.5-1-0.1-2.3-0.5-3.3
				c0.3-0.8,0-1.6-0.4-2.2c-0.1,0-0.2,0.2-0.2,0.2c0.2,1,0.3,2.2,0.2,3.3c-0.3,0.4,0.2,0.8-0.1,1.3c-0.5,0.4,0.2,1.1-0.4,1.4
				c-0.2,0.5,0.2,1.4-0.6,1.6c-0.1,0.2-0.4,0.2-0.6,0.2c-0.1-0.6-0.9-1-0.7-1.8c-0.2-0.3,0.3-0.9-0.3-1c0-0.2,0.2-0.4,0.1-0.6
				L73,38.7l0.3-0.1c-0.5-0.7,0.2-1.7-0.5-2.3c-0.4,0.3,0,1.1-0.4,1.4c0,0.2,0.3,0.4,0.2,0.6c-0.6,0.3-0.2,1-0.2,1.5
				c0.1,0.2,0.2,0.5,0.1,0.8c-0.3,0.6,0.2,1.4-0.4,1.9c0.1,0.1,0.1,0.4-0.1,0.4c-0.3-0.1-0.3-0.5-0.6-0.7c-0.8-0.5-0.6-1.4-1.3-1.8
				c-0.2-0.4-0.3-1-0.7-1.3c-0.4,0.2-0.3,0.8-0.5,1.1c0,0.2,0.5,0.3,0.3,0.6c-0.6,0.2-0.3,0.8-0.5,1.2c0.4,0.4-0.3,0.6,0,1.1
				c-0.1,0.6,0.1,1.4-0.5,1.8c-0.6,0.1-0.7-0.6-1-0.9c0-0.3-0.1-0.6-0.3-0.8c-0.5,0.1-0.1,0.6-0.2,1c-0.2,0.4,0.2,0.8,0.1,1.2
				c0.3,0.4-0.2,0.7-0.4,1c-0.2-0.3,0.1-0.4,0.3-0.6c0-0.6,0-1.1-0.3-1.6l0.1-1.5c0.8,0.1,1.1,1,1.3,1.6c0.1,0.1,0.1,0.2,0.3,0.1
				c0.8-0.8,0.3-2,0.4-3c0.2-1.2,0.4-2.3,1-3.3c0.5-0.1,0.5,0.5,0.9,0.6c0.8,0.9,1,2,1.6,3c0.1,0.1,0.2-0.1,0.2-0.2
				c0-2,0-4.1,0.5-5.9c0.2-0.1,0.3,0,0.5,0.1c1,1.7,1,3.9,1.4,5.9l0.2,0.2c0.8-1.1,0.5-2.8,1-4c0.1-1.6-0.4-3.1-0.1-4.7
				c0.2,0,0.5,0.2,0.6,0.4c1.2,2.3,0.7,5.2,1.5,7.6h0.1c0.3-2.4,0.4-4.9,1-7.1c-0.1-0.5,0.2-0.8,0.3-1.2c0.6-0.1,0.5,0.6,0.8,0.9
				c0.6,1.9,0.6,4.1,0.8,6.1l0.1,0.1C80.4,42.3,80.8,44.8,80.2,47.1z M49.5,78.3c0.1,0,0.1,0,0.1,0.1c0,0-0.1,0.1-0.1,0.1L49.5,78.3
				z M50.4,79.7c0.2,0,0.4,0,0.4,0.2c0,0.2-0.2,0.3-0.3,0.3c-0.1,0-0.2-0.1-0.3-0.2C50.3,80,50.2,79.8,50.4,79.7z M51.1,77.4l0-0.2
				c0,0,0,0,0.1,0C51.1,77.3,51.2,77.4,51.1,77.4z M51.2,79.4h-0.1c0-0.1-0.1-0.3,0.1-0.4c0.1-0.1,0.2,0.1,0.2,0.2
				C51.4,79.3,51.2,79.4,51.2,79.4z M51.4,79.6c0.2,0,0.3,0.1,0.4,0.2c0,0.2,0,0.4-0.2,0.4c-0.2,0.1-0.3-0.1-0.4-0.2
				C51.3,79.9,51.2,79.7,51.4,79.6z M51.5,80.8c0.1,0.2-0.1,0.2-0.1,0.3C51.2,81,50.9,81,51,80.8C51.1,80.7,51.3,80.6,51.5,80.8z
				 M53.1,80.8c0.2-0.2,0.3,0.2,0.6,0.1c0.2,0.4-0.5,0.4-0.2,0.8c-0.1,0.2-0.3,0.3-0.5,0.4c-0.2,0.1-0.3-0.1-0.4-0.2
				C52.3,81.3,53.3,81.4,53.1,80.8z M53.1,83.4c-0.1,0.1-0.2,0-0.3,0c-0.2-0.1-0.2-0.4-0.1-0.6c0.2-0.2,0.5-0.6,0.8-0.3
				C53.5,82.9,53.6,83.2,53.1,83.4z M53.7,81.8l0.2-0.3c0.1,0.1,0.3,0.1,0.3,0.2c-0.1,0.1,0,0.3-0.2,0.4
				C53.9,82.1,53.8,81.9,53.7,81.8z M50.6,23.5L50.6,23.5l0-0.2C50.6,23.3,50.6,23.5,50.6,23.5z M50.2,22.1
				c-0.1-0.8-0.2-1.7-0.1-2.6C50.1,20.4,50.2,21.2,50.2,22.1z M67.2,47.7c0.1,0.4-0.4,0.5-0.6,0.7c-0.4,0.1-0.8,0-1.1,0.4
				c0,0.2,0.1,0.5-0.1,0.6c-0.8,0.1-1.8-0.2-2.4,0.5c-0.3-0.1-0.5-0.7-0.9-0.4c-0.1-0.3,0.1-0.5,0.3-0.6c0.8,0.1,1.5-0.2,2.3,0
				c0.1,0,0.1-0.1,0.2-0.1c-0.1-0.3-0.3-0.5-0.6-0.8c0.3-0.1,0.3-0.7,0.8-0.5c0-0.2,0.3-0.1,0.4,0c0.2,0.1,0.4-0.1,0.7-0.1
				C66.6,47.4,67,47.3,67.2,47.7z M67.1,46.7c0-0.1,0.2-0.2,0.3-0.2l0,0.2v0.1H67.1z M63.9,48.3c0.1,0,0.1,0.1,0.1,0.1v0.1
				C63.9,48.6,63.8,48.4,63.9,48.3z M56.1,53.9c0.1,0.3-0.2,0.6-0.5,0.7c-0.2,0.1-0.3-0.1-0.5-0.2c-0.2,0.1-0.4,0.4-0.7,0.2
				c-0.1-0.3,0-0.5,0.3-0.6c0.3,0.3,0.5-0.3,0.8-0.2C55.8,53.8,56,53.6,56.1,53.9z M56.3,54c0.3-0.3,0.8-0.1,1.1,0
				c-0.3,0.3-0.7,0.2-1,0.4C56.4,54.2,56.3,54.1,56.3,54z M57.9,54v-0.1H58V54H57.9z M70.1,47.5c0.1,0,0.2-0.1,0.3-0.2
				c-0.1-0.5-0.7-0.4-1.1-0.6c-0.1,0-0.1,0.2-0.3,0.1c-0.2-0.1-0.2-0.3-0.2-0.5c0.3-0.1,0.6,0.2,1,0.2l0.5,0.4
				c0.3-0.1,0.3,0.2,0.3,0.3c0,0.5-0.5,0.6-0.8,0.9c-0.6,0.2-1.2-0.3-1.6,0.3c-0.2-0.1-0.6-0.2-0.5-0.6
				C68.4,47.1,69.4,47.4,70.1,47.5z M67.9,46.6c0-0.2,0.1-0.3,0.2-0.3c0.2,0,0.3,0.2,0.3,0.2v0.1L67.9,46.6z M69.2,43.8
				c0.6-0.1,0.2,0.6,0.5,0.9c0,0.4,0,1-0.5,1.2c-0.3,0.1-0.2-0.2-0.3-0.3C69.1,44.9,68.8,44.2,69.2,43.8z M72.5,46.1
				c0.4-0.5,0.8,0.9,1.1,0c-0.1-0.2-0.5-0.2-0.4-0.5c0.5-0.3,0.7,0.7,1.2,0.2c0.4,0,0,0.5,0.2,0.7c-0.5-0.2-0.5,0.9-1,0.3
				c0-0.1,0.1-0.4-0.1-0.4c-0.2,0-0.2,0.2-0.2,0.3c-0.5,0.1-1.1,0.1-1.5-0.2c0-0.1,0-0.3-0.2-0.4c-0.3,0.2-0.8,0.2-1.1,0.2
				c-0.2-0.3,0.2-0.5,0.3-0.7c0.4,0.4,1.2-0.7,1.3,0.2L72,46C72.1,46.2,72.4,46.1,72.5,46.1z M73,43.5c0.1,0.2,0.3,0.5,0.1,0.7h-0.1
				C72.8,43.9,73,43.7,73,43.5z M72.9,45c0,0.1,0,0.2-0.1,0.3c-0.2,0-0.3-0.1-0.3-0.3l0.1-0.2C72.7,44.7,72.8,44.8,72.9,45z
				 M75.2,44.9c0.4-0.2,0.5,1,0.6,0.1c0.3,0.1,0.6,0.4,0.7,0.7c0.3,0.5-0.5,0.4-0.3,0.8c-0.2,0-0.4,0.4-0.6,0.3
				c0-0.1,0.1-0.2,0.1-0.3c-0.3,0.1-0.6-0.2-0.7-0.5C74.9,45.5,74.8,45,75.2,44.9z M75.7,43.2c0,0.1-0.1,0-0.1,0
				C75.5,43.2,75.7,43.1,75.7,43.2z M76.6,46.3c0.1-0.2,0.3-0.9,0.5-0.4L77,46.3L76.6,46.3z M77.3,46.6l0-0.2
				c0.1,0.3,0.9,0.1,0.4,0.5C77.4,46.9,77.6,46.4,77.3,46.6z M78.2,44.5c0.2-0.1,0.5,0,0.6,0.2c0.1,0.2-0.1,0.3-0.2,0.3
				c-0.2,0.1-0.4,0-0.6,0C77.9,44.9,78,44.6,78.2,44.5z M79.3,45.1l0-0.1h0.1C79.3,45,79.3,45,79.3,45.1z"/>
			<path d="M61.5,16L61.5,16c0.2-0.1,0.2-0.2,0.2-0.4c-0.2-0.2-0.2-0.7-0.1-1.1c0.2-0.3-0.2-0.3-0.3-0.4c-0.1,0.1-0.2,0.2-0.2,0.4
				c-0.7,0.6-0.5,1.5-0.7,2.2c-0.9,2.5-1.1,5.3-2.7,7.4c-0.1-0.1-0.1-0.1-0.2-0.1c-0.3,0.4-0.4,1-0.8,1.3c-0.2-0.3,0-0.8,0-1.2
				c0-0.3,0.3-0.6,0.1-0.9c0.3-0.5,0.1-1.2,0.3-1.7c0-2.2,0.4-4.3,0.9-6.4c0.4-0.7,0.1-1.7,0.8-2.3c-0.1-0.7,0-1.4,0.3-1.9
				c0.4-1.3,0.4-2.9,0.7-4.3c-0.1,0-0.2,0.1-0.3,0.2c0.1,0.5-0.7,0.7-0.6,1.2c-0.5,0.3,0,0.9-0.4,1.2c-0.5,2.1-1.7,4-1.8,6.2
				c-0.5,0.6-0.2,1.5-0.7,2.1c0.3,0.6-0.2,1.1-0.3,1.5c0.1,0.3-0.1,0.7-0.2,1c-0.1,1.5-0.7,2.9-0.6,4.5c-0.6,0.4,0.2,1.1-0.4,1.4
				l0.1,1.1c-0.3,0.3-0.1,0.8,0,1.1c0.2,0.3-0.2,0.9,0.2,1.1c-0.2,0.4,0,0.8,0,1.2c-0.1,0.2-0.2,0.4-0.4,0.3
				c-0.8-0.2,0.1-1.1-0.5-1.4c0.3-0.4-0.2-0.7-0.2-1.1c0.4-0.4-0.2-0.7-0.2-1.2c0,0,0.1-0.1,0.1-0.1c0.1-0.3-0.1-0.5-0.3-0.7
				L52.5,23c-0.1-0.5,0.1-1.1-0.2-1.5c0.1-1.2,0.1-2.4,0.3-3.6c0.3-0.6,0.2-1.4,0.4-2.1c0.1-0.2,0.3-0.4,0.1-0.6
				c0.2-0.3,0-0.7,0.3-1c-0.2-0.8,0.3-1.5,0.2-2.3c0-0.2,0.5-0.3,0.2-0.5c0-0.8,1-1.2,0.7-2c0.3-0.4,0.3-1,0.4-1.5
				c0.1-0.2,0.3-0.4,0.2-0.6c-1.1,0.6-0.5,2.1-1.1,3c-0.6,0.2-0.2,1-0.8,1.3c0.1,0.1,0.3,0.2,0.2,0.4c-0.6,0-0.3,0.7-0.5,1.1
				c-0.5-0.1-0.3,0.5-0.6,0.7c0.2,0.5-0.2,0.9-0.1,1.5c-0.1,0.4-0.8,0.4-0.6,0.9c0.5,0.4-0.2,0.7-0.2,1l0.3,0.5l-0.4,0.2
				c-0.1,1.1,0,2.3-0.2,3.4c0.2,1.7,0.2,3.4,0.5,5c0.5,0.3-0.3,0.7,0.1,1c0.1,0.3-0.1,0.6-0.2,0.9L50.9,27c-0.5,0-0.4-0.5-0.6-0.9
				c-0.5-0.4-0.9-1-1.1-1.6c-0.3-0.9-0.6-1.9-0.7-2.8c-0.3-0.2,0.1-0.5-0.2-0.8c-0.1-0.3-0.3-0.9,0.1-1.1l-0.1-0.1
				c0.2-1.4,0.1-2.9,0.5-4.2c-0.2-1.5,0.5-2.9,0.7-4.3h-0.1c-0.2,0-0.1,0.2-0.1,0.3c-0.6,0-0.1,0.7-0.5,0.9c-0.1,0.7-0.3,1.3-0.2,2
				l-0.4,0.5c-0.3,0.2,0.2,0.6-0.2,0.7c-0.1,0.1-0.1,0.3,0,0.4c0.1,0.2,0.1,0.5-0.1,0.6c0.2,0.4-0.4,0.7-0.1,1.1
				c-0.1,0.5,0.1,1-0.2,1.4c0.2,0.5-0.1,1-0.1,1.4c0,0.3,0,0.6,0.3,0.6c0.1,0.3-0.3,0.5-0.3,0.8c0.3,0.4,0.2,1.1,0.2,1.6
				c0.4,0.4,0.3,0.9,0.3,1.4c0.6,0.6,0.3,1.6,0.6,2.4c0.1,0.6-0.4,0.1-0.6,0.5c-0.6,0-1-0.7-1.6-1c-0.1-0.2,0.2-0.3,0-0.4
				c-0.8-1-0.9-2.2-1.3-3.4c0-0.6-0.5-1.2-0.1-1.8c-0.1-0.2-0.2-0.5-0.5-0.4c-0.1-0.5-0.6-1.1-0.1-1.5c0-0.1-0.1-0.2-0.2-0.1
				c-0.2-0.2-0.3-0.5-0.2-0.8c-0.6-1.4-0.4-3.2-1.2-4.5c-0.1,0.1-0.1,0.2-0.1,0.3c-0.1,0.6,0.3,1.3-0.1,1.8c0.1,0.8,0,1.6-0.1,2.4
				c0.6,0.6,0.3,1.5,0.4,2.3l0.3-0.1c0.4,0.2-0.2,0.5,0,0.7c-0.5,0.4,0.5,0.6,0.2,1c0.4,0.3-0.1,1,0.4,1.3c-0.1,0.9,0.7,1.5,0.7,2.3
				c0.8,0.3,0.2,1.3,0.9,1.8c-0.1,0.9,1.3,1.2,0.7,2.1c0,0.2,0.2,0.1,0.3,0.3c-0.1,0.4,0.6,0.5,0.2,0.8l-0.6-0.8
				c-0.2-0.2-0.6-0.1-0.8,0c0.2,0.3,0.3,0.6,0.6,0.9c0.1,0.1,0.3,0,0.4,0.2c0,0.2,0.1,0.4,0,0.5c-0.8-0.5-1.6-1.4-2.4-1.9
				c0-0.1,0-0.1,0-0.1c0.2-0.3-0.2-0.4-0.4-0.4c-0.4,0-0.3-0.5-0.7-0.4c-0.3-0.9-1.3-1.1-1.8-1.8c0-0.1-0.2-0.3-0.1-0.4
				c-0.2-0.1-0.3-0.1-0.5-0.2c-0.4-0.6-0.7-1.2-1.2-1.8c-0.5,0.1-0.5-0.5-0.7-0.8c-0.4-1.7-1.4-3.2-1.3-5.1c-0.1,0-0.1,0.1-0.2,0.1
				c-0.2-0.1,0-0.4-0.1-0.6c-0.1,0-0.2-0.1-0.3,0c-0.2,0.3,0.2,0.7,0,1c-0.1,0.2-0.1,0.4,0.1,0.5c0,0.1-0.1,0.2-0.1,0.3
				c-0.2,0.2,0,0.2,0.1,0.3c0.1,0.1,0,0.4-0.1,0.4l0.2,0.2c0,0.2-0.2,0.3-0.3,0.4c-0.1,0.7,0.2,1.2,0.4,1.7c0,0.6,0.5,1.1,0.5,1.7
				c0.8,1,1.3,2.2,2.2,3.2c0,0.7,0.8,1,1.2,1.4c0.5,0.1,0.5,0.6,0.8,0.9c0.3,0,0.6,0.1,0.8,0.4c0.2,0.2,0.4,0.6,0.7,0.7
				c0.2,0.2,0.9,0.3,0.7,0.8c-0.2,0.1-0.5,0.3-0.8,0.1c-0.2-0.6-0.9-0.8-1.3-1.2c-0.1-0.2-0.2-0.5-0.5-0.4c-0.4,0-0.3-0.8-0.7-0.4
				c-1.3-0.8-2.5-1.9-3.8-2.7c-0.3-0.2-0.5-1-1-0.7c-0.1,0.4-0.5,0-0.7,0.2c0,0.5,0.1,1,0.2,1.5c0.1,0.5,0.6,0.4,0.9,0.7
				c0,0.1,0,0.3-0.1,0.3c0.4,0.3,0.6,0.7,0.8,1c0.2,0,0.4,0.1,0.5,0.2c-0.2,0.5,0.4,0.4,0.5,0.8c0.3,0.4,0.5,1,0.3,1.5
				c-0.2-0.1-0.4-0.2-0.6-0.3c-0.1-0.2-0.1-0.3,0-0.5c-0.2,0-0.2,0.2-0.3,0.3c-0.3-0.2-0.9-0.2-1-0.7c-0.1,0-0.1,0.1-0.2,0.2
				l-1.5-0.9c0.3-0.9-0.8-0.1-0.9-0.7c-0.3,0.1-0.6,0.2-0.8,0.4c-0.1,0.5,0.4,0.6,0.6,0.9c-0.3,0.8,0.9,0.5,0.9,1.2
				c0.5,0.2,0.8,0.7,1.4,0.8c0.3,0.1-0.1,0.3,0.1,0.5c0.1,0,0.1-0.1,0.2-0.1c0.1,0,0.2,0.1,0.2,0.2c-0.1,0.1-0.1,0.3-0.3,0.2
				c0,0.1,0.1,0.2,0.1,0.3c0,0.1-0.1,0.1-0.2,0.1c-0.3,0.5-0.8,0.1-1.2,0.1c-0.3-0.2-0.6-0.3-1-0.3c-0.3,0-0.5,0.5-0.7,0
				c-0.1,0-0.4,0-0.5,0.2c-0.1,0.3,0.1,0.7,0.2,1c0.1,0.5,0.7,0.5,1.1,0.6c0.3,0.5,1.1,0,1.3,0.8c0.1,0.1,0,0.3-0.1,0.4
				c-0.8,0-1.4,0.4-2,1c-0.2,0.2-0.6,0.2-0.7,0.5c0.2,0.2,0.2,0.5,0.5,0.6c0.6,0.1,1,0.4,1.6,0.4c0.2,0.2,0.7,0.3,0.5,0.6l-1.2,0.3
				c-0.2,0.1-0.4,0.3-0.6,0.4c-0.2,0.1-0.6,0.2-0.5,0.5c0,0.5,0.7,0.5,0.6,0.9c0.1,0.2,0.4,0.2,0.6,0.2c0.2-0.1,0.3,0.4,0.5,0.1
				c0.3,0.1,0.8,0,0.8,0.4c-0.4,0.2-0.8,0.3-1.1,0.4c-0.5,0-0.9,0.2-1.2,0.5c-0.5-0.2-0.5,0.4-0.9,0.4c0.2,0.2,0.2,0.5,0.3,0.8
				l0.1-0.1c0.4-0.1,0.2,0.4,0.4,0.6c0.1,0.1,0.3,0,0.3,0.1c0.1,0.1,0.1,0.3-0.1,0.3c-0.6,0.1-1.2,0.5-1.6,0.9
				c-0.5,1.6,1.4,0.2,1.7,1.2c-0.2,0.3-0.5,0.4-0.8,0.6c-0.2,0.3-0.9,0.5-0.6,1c0.3,0,0.6,0.2,0.7-0.1l0.3,0.3
				c-0.2,0.9-1.2,0.7-1.5,1.5c0.1,0,0.1,0.2,0.2,0.1c0.1,0.2,0.5,0.2,0.4,0.5c-0.5,0.3-0.2,0.9-0.4,1.4c0.2,0.3,0.7-0.1,0.9,0.2
				c0,0.5-0.3,0.8-0.6,1.1v1c0.6,0.4-0.5,0.7-0.2,1.1c0.4,0.2,0.5,0.7,0.6,1.1c-0.1,0.3-0.4,0.2-0.6,0.3c-0.2,0.1-0.4,0.3-0.3,0.6
				l0.5,0.1c0.7,0.4-0.1,1-0.1,1.5c0.4,0,0.8-0.1,1,0.3c-0.1,0.1-0.3,0.3-0.3,0.4c-0.9,0.9,0.7,0.2,0.9,0.7c0.1,0.2,0,0.4-0.1,0.6
				c0.5,0.2,0.1,0.8,0.1,1.1h0.3c0.2-0.2,0.9,0,0.7-0.6c0.2-0.3,0.6,0.1,1-0.1c0.2,0.3,0.6,0.1,0.8-0.1c0.2,0.4,0.6,0,0.9,0.1
				c0.4,0,0.7-0.4,1.1-0.4c0.7,0.8-0.7,0.7-0.7,1.3c0.6,0.1,1.3-0.1,1.9,0c0.4,0.5,0.8-0.2,1.2,0c0.1,0.1,0.3,0.2,0.3,0.3
				c0.5,0.7-0.6,0.9-0.9,1.4c-0.8-0.1-1,0.8-1.5,1.2c-0.1,0.2-0.4,0.1-0.4,0.4c-0.3,0.6-0.8,1.1-1.2,1.7c-0.3,0.8-1.2,0.4-1.8,0.6
				l-0.2,0.2c-0.3,0.1-0.6,0-0.9,0c-0.7,0.2-1.1-0.5-1.8-0.5c-0.3-0.1-0.5-0.3-0.8-0.3c-3.4-1.1-6.5-2.9-9.4-5.2
				c-0.7-0.6-1.4-1.2-2.1-1.8c-0.7-0.1-0.7-1.1-1.3-1.1c-0.1,0.1-0.2,0.2-0.1,0.3c0.4,0.3-0.1,1,0.4,1.3c-0.1,0.2-0.3,0.3-0.2,0.5
				c0.1,0.2,0.1,0.4,0.3,0.4C18.9,65,19.8,65,20,65.5l-0.2,0c-0.3-0.1-0.6-0.4-1-0.4c-0.3-0.3-0.7-0.8-1.1-0.7
				c0.3,0.4,0.8,0.6,1.2,0.8c0.2,0.1,0.4,0.4,0.7,0.5c0.4,0.5,1.1,0.3,1.4,0.9c0.2,0,0.3,0.1,0.5,0c0.4,0.4,1.1,0.5,1.2,1.2
				c0.1,0,0.1-0.1,0.2-0.1c0.3,0.1,0.3,0.4,0.3,0.7c-0.1,0.3,0.5,0.6,0,0.7c-0.2,0-0.4,0-0.5-0.2c0-0.3-0.5-0.2-0.7-0.4
				c-0.2-0.1-0.2-0.3-0.5-0.2c-0.3-0.1-0.2-0.4-0.4-0.5L21,67.9c-0.2,0-0.3-0.1-0.5-0.3c-1.1-0.3-1.9-1.1-3-1.1v0
				c0.8,0.4,1.6,0.8,2,1.6c0.1-0.1,0.2-0.2,0.2-0.2c0.4,0.2,0.7,0.3,1.1,0.6l-0.1,0.1L19,68.5c-0.3-0.1-0.6-0.3-1-0.2
				c-0.1,0-0.3,0.1-0.2,0.2c0.7,0.1,1.3,0.4,2,0.6c0.7-0.1,1.1,0.4,1.9,0.2c0.2,0.1,0.5,0.2,0.3,0.4c0.1,0.7,0.7,0.2,0.9,0.1
				c0,0,0,0.1,0,0.1L23,70c0.2,0.2,0.2,0.4,0.2,0.7c-0.1,0.2-0.3,0.4-0.6,0.3c-0.3,0.3-0.4-0.3-0.7-0.2c-0.2,0.6-0.6-0.1-0.9-0.2
				c-0.2-0.1-0.6,0.2-0.6-0.2c-0.4,0-0.5-0.6-0.8-0.6c-0.2,0.3,0.4,0.4,0.3,0.7c-0.4,0.7-1.3,0.2-2,0.4c0,0.1,0,0.1,0.1,0.2
				c1.5,0,2.8,0.3,4.3,0.3l0.2,0.2c0.1,0,0.2,0,0.2,0c0.5-0.5,1.1-0.2,1.6,0c0-0.4-0.4-0.5-0.6-0.9c-0.2-0.4,0.3-0.6,0.5-0.8
				c0.3,0,0.8-0.2,1.1,0.1c0.3,0.6,0.8,0.7,1.4,0.8c0.1-0.3-0.2-0.2-0.2-0.4c-0.1-0.2-0.2-0.6-0.5-0.4v-0.1c0-0.4-0.5-0.2-0.8-0.3
				c-0.2-0.3-0.8-0.4-0.7-0.9c-0.1,0-0.4,0.1-0.5-0.1c-0.1-0.3,0-0.6,0.2-0.8c0.5-0.1,0.7,0.3,1.1,0.6c0,0.2-0.1,0.4,0,0.7
				c0.2,0,0.3,0,0.4,0v-0.2c-0.1,0.1-0.2,0-0.3-0.1c0-0.2,0.2-0.2,0.3-0.3c0.5-0.1,0.5,0.5,0.8,0.7c0,1.2,0.5-0.4,1-0.2
				c0.1,0.1,0.2,0.3,0.3,0.2c0.3-0.1,0.6-0.1,0.7,0.2c-0.3,0.3-0.8,0.2-1.2,0.2c0,0.2,0.2,0.4,0.3,0.6c0.2,0,0.3-0.1,0.4-0.2
				l0.1,0.1c0.3,0.9,1,0,1.5,0.4c0.4-0.4,0.7,0.3,1,0.5c0.4,0.3,0.6-0.4,0.9-0.1c0.1,0.2,0,0.5-0.2,0.6c0,0.4,0.5,0.3,0.8,0.2
				c0.2-0.2,0.4-0.1,0.6-0.1c0.1,0,0.1-0.2,0.2-0.2c0.2,0,0.3,0.1,0.4,0.2c0.2,0.3,0.6,0.2,0.8,0.6c0.1,0.2,0,0.5-0.2,0.6
				c-0.1-0.1-0.2-0.1-0.2-0.2c-0.2,0.3-0.6,0.5-0.7,0.8c-0.2,0-0.2-0.2-0.3-0.3c-0.1,0.1-0.2,0.2-0.3,0.3c-0.3-0.7-1,0-1.2-0.7
				c0.1-0.2,0.2-0.4,0.4-0.4l-0.3-0.2c-0.3-0.2-0.4,0.3-0.7,0.2c-0.3,0.4-0.4-0.2-0.6-0.3c-0.2-0.1-0.2,0.1-0.3,0.2
				c-0.2,0-0.3-0.1-0.5-0.1c0.3,0.1,0.3,0.5,0.4,0.7c0.2-0.1,0.3,0.1,0.4,0.1c0-0.2,0.1-0.3,0.2-0.4c0.1,0.2,0.5,0.3,0.4,0.6
				c-0.4,0-0.3,0.6-0.5,0.7c-0.1,0.3,0.4,0.9-0.1,1c-0.2-0.1-0.4,0-0.4-0.2c-0.1-0.3,0-0.7,0.4-0.8c0-0.8-0.6,0-0.9-0.1
				c-0.3-0.1-0.1-0.4-0.2-0.6l-0.4,0.3c-0.7,0,0-0.6-0.2-1c-0.3-0.4-0.8-0.5-1.2-0.8c-0.7-0.3,0.3,0.6-0.3,0.8
				c-0.4,0.4-1,0.1-1.4,0.3c-0.2-0.2,0.2-0.4-0.1-0.5c-0.2,0-0.5-0.1-0.6,0.1c0.2-0.1,0.4,0.2,0.5,0.3c-0.1,0.1-0.3,0-0.4,0.1
				c0.1,0.2,0.4,0.3,0.4,0.6c0.5,0.1,0.6,0.8,1.1,0.9c0,0.2,0.2,0.4,0,0.6c-0.4,0.1-0.7-0.1-1-0.5c-0.1-0.2-0.1-0.4-0.4-0.4
				c-0.2,0.1,0,0.3,0,0.4c-0.4,0.2-0.9,0-1.4,0l-0.1-0.1c-0.1-0.1-0.4-0.1-0.5,0l-0.1-0.3c-0.2-0.1-0.5,0-0.7,0
				c-0.2-0.2-0.5-0.1-0.5-0.4c0.3-0.2,0.1-0.7,0.5-0.7c0.3,0,0.3,0.4,0.3,0.6l0.6-0.4c0.2,0,0.5-0.1,0.6,0.1c0.1,0,0.1,0.1,0,0.1
				c0,0.1,0.2,0.3,0.4,0.2c0.2-0.5,0.5,0.2,0.7,0c-0.3-1.2-1.6-0.5-2.4-0.9c-0.5,0.3-0.9-0.2-1.3-0.2c-0.6,0.4-1.2-0.1-1.9,0
				l-0.1,0.1c0.2,0.2,0.6,0.1,0.9,0.2c0.6,0.2,1.3-0.1,1.8,0.3c-0.1,0.2,0,0.6-0.3,0.8c-0.7-0.1-1.3-0.3-2-0.4
				c0,0.1-0.1,0.1-0.1,0.2c0.1,0.1,0.3,0.2,0.4,0.2c0.2,0.2,0.4-0.2,0.5,0.1c0.7-0.1,1.2,0.4,1.8,0.2c0.2,0.1,0.2,0.3,0.3,0.5
				c-0.4,0.4-0.6-0.2-0.9-0.3c-0.6,0.5-1.4-0.1-2,0.2c0.5,0.4,1.3-0.1,1.7,0.4c0.4-0.3,0.7,0.3,1.1,0c0.2,0.1,0.2,0.4,0.3,0.6
				c0.3,0.1,0.3-0.2,0.4-0.3c0.4,0,0.8,0,1.2,0.2c0,0.5,0.6,0.2,0.9,0.2c0.2,0,0.3,0.3,0.5,0.1c0.1,0.2,0.3,0.1,0.2,0.3
				c-0.1,0.1-0.2,0.2-0.3,0.2c-0.7-0.2-1.6-0.3-2.4-0.2c-0.6-0.2-1.4-0.2-2-0.2c0.2,0.2,0.5,0.2,0.8,0.2c0.2,0,0.4,0.3,0.6,0.2
				c0.3,0.2,0.7,0.2,1,0.4c1.1,0.2,2,0.8,3.2,0.7c0.4-0.2,1,0.4,1.1-0.3c0.4-0.1,0.7,0.2,1.1,0.2c0.3,0.6,1,0.5,1.6,0.7
				c0.6-0.2,1.3,0,1.9-0.1l0.2,0.1c0.3,0.3,0.6,0.2,1,0.1c0.4,0.1,1-0.1,1.2,0.3c0.1,0.4-0.4,0.3-0.5,0.6c-0.2,0.2,0.2,0.3,0.3,0.4
				c0.3,0.3,0.3-0.2,0.4-0.3c0.2-0.2,0.4,0.1,0.5,0.2c0.2,0,0.5,0.1,0.6-0.1c0.4,0.3,0.9,0.2,1.4,0.2c0.2,0,0.3,0.2,0.5,0.2
				c0.3-0.8,1-0.2,1.6-0.4c0.7,0.5-0.2,1.1,0.1,1.7c0.1,0.2,0.4,0.3,0.5,0.4c0,0.5-0.2,0.9-0.1,1.4c-0.1,0.5,0.9,0.6,0.5,1
				c-0.1,0.2-0.2,0.6,0.1,0.8c0.2,0.1,0.4-0.1,0.6-0.1c0.6,0.4,0,1,0.3,1.5c0.3,0.2,0.5-0.1,0.7-0.2c0.1,0.2,0.2,0.3,0.2,0.4
				c-0.4,0.5,0,1.1,0.3,1.5c0.1,0,0.2,0,0.3-0.1c0-0.4,0.3-0.1,0.4-0.4c0.3-0.4,0.6,0,0.9,0.2c0.3,0.1,0.6-0.2,0.8-0.4
				c0.4,0,0.5,0.4,0.7,0.6c0.3,0.2,0.2-0.2,0.4-0.3c-0.3,0.1-0.4-0.3-0.6-0.3c0-0.3,0.1-0.6,0.4-0.8c0.2,0.3,0.6,0.1,0.9,0.3
				c0,0.1,0,0.3-0.1,0.4c-0.2,0.3,0.1,0.5,0.3,0.7c0.5,0.5,0.6-0.5,1.1-0.4c0.3,0.7,0.5-0.2,0.9-0.2c0.4,0.4,0.7-0.2,1.1-0.2
				c0.3-0.1,0.4,0.2,0.7,0.3c0.7,0.1,1.3,0.6,2,0.7c0.1-0.1,0.2-0.3,0-0.5l-1.3-0.3c0-0.1,0-0.3-0.2-0.4c-0.3-0.3-0.2,0.2-0.4,0.3
				c-0.7-0.1,0.1-0.6,0-0.9l-0.4,0c-0.3-0.2-0.4-0.5-0.5-0.9c-0.1,0.2-0.1,0.4-0.4,0.5c-0.2-0.1-0.3-0.4-0.4-0.6l-0.1,0.5
				c-0.2,0.2-0.3,0.5-0.6,0.5c-0.3-0.1-0.3-0.4-0.3-0.7c0.2-0.3,0.5-0.7,0.9-0.6c-0.1-0.3-0.3-0.5-0.3-0.8c-0.1-0.3,0.2-0.4,0.4-0.3
				v0c-0.1-0.1-0.3,0-0.5-0.1c-0.1-0.3-0.2-0.5-0.2-0.8c0.2-0.5,0.5,0,0.8-0.1c0.1,0,0.3-0.1,0.2-0.2c0-0.1-0.1-0.1-0.1-0.1
				c-0.2,0.1-0.4,0.1-0.5-0.1c-0.2,0-0.4,0.5-0.6,0.1c-0.4-0.4,0.4-0.5,0.5-0.7c-0.3,0-0.5-0.2-0.6-0.4c0,0.4-0.2,0.7-0.1,1.1
				c0.4,0.3,0.3,0.8,0.2,1.2c-0.1,0.2-0.3,0.6-0.6,0.5c-0.3-0.1-0.1-0.6-0.2-0.8c-0.1,0.5-0.6,0.7-1,0.8c-0.2-0.3-0.4-0.6-0.3-1
				c0.2-0.5,0.8-0.1,1.2-0.2c0.2,0,0.3-0.3,0.2-0.5c-0.1,0-0.3,0.1-0.3,0.2c-0.1,0.4-0.3,0-0.5-0.1c-0.1-0.3,0.1-0.6,0.1-0.8
				c-0.2,0-0.2,0.3-0.4,0.2c-0.4-0.1-0.6-0.5-0.6-0.9c-0.4-0.2-0.7,0.4-1.1,0c-0.3-0.2-0.4-0.6-0.4-0.9c-0.2,0.2-0.6,0-0.9,0.2
				c0.1,0.3,0.4,0.4,0.6,0.6c-0.1,0.3-0.2,0.5-0.4,0.7c-0.2,0.1-0.4,0.2-0.5,0c-0.2-0.2,0-0.5,0-0.8c0-0.2,0.4-0.4,0.2-0.6
				c-0.4-0.2-0.2-0.6-0.2-1c-0.8,0.5,0.2,1.4-0.6,1.9c-0.9,0.3-0.2-0.7-0.6-1c-0.1,0.2-0.3,0.4-0.6,0.5c-0.2-0.1-0.5-0.3-0.5-0.5
				c0.1-0.3,0.1-0.6,0.3-0.8c0.5-0.3,0.3,0.6,0.8,0.7c0.8-0.2-0.3-0.6-0.2-1c0.2-0.2,0.1-0.6,0.4-0.7l-0.1-0.1
				c-0.1-0.3,0-0.6,0.3-0.7c0.5,0.3,0.3-0.5,0.7-0.6c0-0.1,0.2,0,0.1-0.1c-0.1,0-0.2,0.1-0.4,0c0.1,0.3-0.1,0.4-0.2,0.6
				c-0.2,0-0.3-0.2-0.4-0.4c-0.2,0-0.2,0.2-0.3,0.3c-0.1,0-0.2-0.1-0.2-0.1c0-0.3-0.1-0.6,0-0.9c0.2-0.2,0.4-0.6,0.8-0.4
				c0.6,0.3,1.2,0.6,1.7,1.1c0.1-0.1,0.1-0.4,0.3-0.4c0.1,0.1,0,0.1,0,0.2c0.1,0.2,0.4,0.6,0.7,0.5v0c-0.3-0.1-0.3-0.4-0.3-0.7
				c0.1-0.2,0.1-0.3,0.2-0.3c0,0,0.1,0,0.2,0c0.2,0.1,0.4,0.7,0.8,0.4c-0.2-0.2-0.6-0.4-0.4-0.8c-0.2,0-0.2,0.3-0.3,0.4
				c-0.1,0-0.1,0-0.2,0c0,0,0,0,0,0c-0.4,0.1-0.6,0.5-1,0.3c-0.7-0.3-0.1-0.9-0.2-1.3c-0.6,0-0.2,0.7-0.6,1
				c-0.3-0.1-0.3-0.5-0.5-0.8c-0.1,0-0.2,0-0.2,0.1c-0.2,0.1-0.6,0.1-0.8-0.1c-0.5-0.5,0.5-0.8,0.6-1.3c0.2-0.1,0.4-0.7,0.7-0.4
				v-0.1c0.1-0.2,0.2-0.4,0.4-0.4c0.1,0.1,0.3,0.3,0.3,0.4c0.1,0,0.2,0,0.3-0.1c0.5-0.7,1,0.1,1.6,0c0.6,0.1,0.1,1,0.8,1
				c0.1,0.5,0.6,0.7,0.7,1.2c0.5,0.4,0.4,1,1,1.4c-0.2,0.1-0.2,0.5-0.1,0.7c0.3-0.1,0.4,0.2,0.8,0.1c0.9-0.4,1.5-1.3,2.3-1.8
				c0.2-0.6,0.9-1,0.9-1.7c-0.2,0-0.2,0.3-0.5,0.3c-0.2-0.1,0-0.3,0-0.5c0.1-0.5,0.6-0.4,1-0.5c0.2,0.2,0.4,0,0.6-0.1
				c0-0.4-0.4,0.1-0.6-0.1c0-0.2-0.1-0.5,0.2-0.6c0.1,0,0.3-0.1,0.5,0c-0.1,0.6,0.5,0,0.7,0.3c0.2-0.3,0.5-0.3,0.8-0.3
				c0.3,0,0.2-0.3,0.2-0.5c0.2,0,0.6-0.1,0.5,0.2c0.1,0.1,0.3,0.3,0.4,0.2c0.1-0.3-0.4-0.5-0.1-0.8c0.6-0.1,0.4,0.5,0.8,0.7
				c0.7-0.2,1.2,0.3,1.8,0.3c0.6,0,1,0.6,1.6,0.6l0-0.4c-0.3-0.1-0.5-0.2-0.9-0.2c-0.1-0.2-0.3-0.3-0.4-0.4c-0.2-0.1,0-0.3,0-0.4
				l-0.7,0c0-0.4-0.5-0.3-0.8-0.3c-0.3-0.1-0.2-0.4-0.3-0.6l-0.2,0.2c-0.3,0.1-0.6-0.2-0.9-0.3c0-0.2,0-0.3-0.2-0.4
				c-0.2,0-0.3,0-0.4,0.2c-0.2,0.1-0.5,0.1-0.7-0.2c-0.2-0.3,0.1-0.5,0.3-0.7c-0.4,0.1-0.8-0.2-1.2,0.1c-0.1-0.3-0.4-0.5-0.3-0.9
				c-0.3,0-0.5,0.1-0.7-0.2c-0.1-0.2-0.1-0.5,0.1-0.6c0.5-0.2,0.7,0.5,1.1,0.6c0-0.1-0.1-0.2-0.2-0.2c0-0.2,0.2-0.3,0.2-0.5h-0.8
				c-0.6-0.3-0.9,0.9-1.3,0.3c-0.1-0.2,0.1-0.4,0.2-0.5c0.4,0.1,0.6-0.3,0.8,0.1v-0.6c0.1-0.2,0.4-0.1,0.5-0.2
				c-0.1-0.1-0.1-0.3-0.1-0.4c0.2-0.6,0.7,0.1,1-0.1c-0.1-0.2-0.2-0.4-0.4-0.5c-0.2-0.7,0.8-0.3,0.9-0.7c-0.2-0.2-0.6-0.3-0.5-0.7
				c0-0.2,0.2-0.2,0.4-0.2c0.5,0.5,0.1-0.4,0.6-0.5c0.3-0.1,0.4,0.1,0.6,0.1c0.2-0.2-0.1-0.5-0.1-0.7c0.3-0.3,0.7,0.2,1,0.1L56.1,63
				c0.3-0.5,0.6,0.2,0.9,0.2c0.4-0.2-0.3-0.3-0.2-0.6c0-0.3,0.3-0.3,0.5-0.3c-0.3-0.5,0-1.6-0.9-1.5c-0.1,0.5-0.6,0.3-0.9,0.5
				c0.2,0.4-0.2,0.6-0.4,0.9c0.2,0.5-0.5,0.7-0.8,1c-0.5-0.1-1,0.4-1.3,0c0.6-0.4,0.1-1.2,0.4-1.8l-0.3-0.1
				c-0.8-1.5-1.7-2.9-1.9-4.7c0.2-0.7-0.6-1.1-0.3-1.8c0.2-0.6-0.2-1.2,0.3-1.6L51,53c-0.1-0.2,0-0.3,0.1-0.4
				c-0.1-0.9,0.2-1.6,0.3-2.4c0.4-0.2-0.1-0.6,0.3-0.8c-0.2-0.3,0.3-0.5,0.3-0.7l-0.1-0.1c0.1-0.3,0.1-0.7,0.3-1
				c0.6-0.6,0.5-1.4,1.1-1.9c0.1-0.9,0.8-1.6,1.3-2.3c0.3-1.4,1.3-2.5,1.8-3.8c0.2-0.3,0-0.7,0.3-1c0.2-1.3,0.5-2.7,0.1-4
				c0.4-0.8-0.3-1.4-0.7-2c-0.1-1.1,0.1-2.2,0.9-3c1-1.9,2.5-3.6,3-5.8l0-0.4c0.5-1,0.6-2.2,1-3.3c0-0.8,0.2-1.5,0.4-2.3
				c0.3-0.3,0-0.8,0.3-1.2C61.2,16.5,62,16.2,61.5,16z M36.6,30.2l0-0.2c0.1,0,0.1,0.1,0.1,0.2C36.8,30.3,36.7,30.2,36.6,30.2z
				 M34.8,32.2L34.6,32c0,0,0.1,0,0.1,0V32.2z M33,48.6h-0.1c0-0.1,0.1-0.2,0.2-0.2C33.1,48.5,33.1,48.6,33,48.6z M21.5,65.2
				c-0.4-0.2-0.9-0.1-1.3-0.4l-1-0.9c0.1-0.2-0.2-0.9,0.4-0.7c0.1,0.2-0.4,0.5,0.1,0.6c0.1-0.1,0.2-0.2,0.4-0.1
				c0.1,0.3,0.5,0,0.5,0.4c0.2,0.3,0.8,0.1,0.9,0.6c0.1,0,0.1,0.1,0.2,0.1C21.5,64.9,21.6,65,21.5,65.2z M22.8,66.6
				c0,0,0.1,0,0.1,0.1C22.9,66.7,22.8,66.7,22.8,66.6z M23.4,69.4v-0.2h0.1C23.5,69.3,23.5,69.4,23.4,69.4z M32.3,71.2
				c-0.1,0-0.2,0-0.1-0.1c-0.1-0.1,0.2-0.2,0.2-0.1C32.4,71.2,32.4,71.2,32.3,71.2z M26.4,74.8c0.1,0,0.2,0.1,0.1,0.2
				c0,0.1-0.2,0.1-0.2,0.1C26.2,75,26.3,74.9,26.4,74.8z M27,76.2c-0.6-0.3-1.3-0.5-1.6-1.1c0-0.2,0.1-0.3,0.1-0.4
				c0.1,0,0.3,0.1,0.5,0.2C26.2,75.5,27.3,75.3,27,76.2z M27.1,74.6c-0.1-0.1-0.3-0.1-0.4-0.2c0-0.4,0.9-0.3,0.5-0.8l-0.9,0.1
				c-0.3-0.2,0-0.8-0.4-0.9v-0.2c0.2,0,0.6,0.2,0.7-0.1c0.2,0.3,0.5,0.3,0.8,0.4c0.4,0.3,0.6,1,1.2,1c0,0.2,0.2,0.3,0.1,0.5
				l-0.1,0.1c-0.3-0.2-0.6-0.4-1-0.4c0-0.1-0.2-0.1-0.3-0.1C27.2,74.1,27.3,74.5,27.1,74.6z M28.6,76.7L28.6,76.7
				C28.4,76.6,28.6,76.3,28.6,76.7L28.6,76.7z M28.9,75.8c-0.1-0.2-0.4-0.4-0.3-0.6c0-0.1-0.1-0.2-0.2-0.2c-0.1,0.1,0,0.3-0.2,0.2
				c-0.1,0-0.1-0.2-0.2-0.1c-0.1,0.1,0,0.3,0,0.4c-0.2-0.1-0.6,0-0.6-0.4c-0.1-0.2,0.3-0.3,0.3-0.5c0.5-0.1,0.9,0.6,1.3,0.1l0.4,0.2
				l0.1-0.2c0.2,0.1,0.1,0.4,0.2,0.6C29.2,75.3,29.3,76.1,28.9,75.8z M29.2,77.2c-0.3-0.3,0.3-0.4,0.3-0.6c0.1,0,0.2,0,0.2,0.1
				C29.8,77.1,29.4,77,29.2,77.2z M32.1,76.8c-0.3,0-0.7-0.4-1-0.1c-0.2-0.2-0.5-0.3-0.9-0.2c-0.2-0.2-0.6-0.5-0.4-0.8
				c0.2-0.2,0.6,0.1,0.7-0.2c0.6,0,1.3-0.1,1.5,0.6C32.2,76.3,32.3,76.6,32.1,76.8z M32.5,74.2c-0.5,0-0.3,0.9-0.8,0.5
				c-0.3-0.1-0.1-0.6-0.5-0.4c0.2-0.5-1-0.6-0.4-1c0.4,0.2,1.1,0,1.3,0.5c0.1-0.1,0.3,0,0.4,0.1V74.2z M33.9,72.9
				c0.1,0,0.2-0.1,0.4-0.1c-0.2,0.4,0.5,0.3,0.4,0.8c-0.3,0.1-0.4,0.5-0.8,0.3C33.7,73.6,33.9,73.2,33.9,72.9z M33.7,76.5
				c-0.3,0.1-0.6-0.1-0.9-0.2c-0.1-0.3,0.2-0.5,0.5-0.6c0.3-0.1,0.6,0,0.7,0.2C34.1,76.2,33.9,76.4,33.7,76.5z M34.6,75.2l-0.7,0.1
				c0-0.3-0.4-0.2-0.5-0.5c-0.2-0.1-0.3,0.1-0.4,0.2c-0.2-0.3,0.1-0.5,0.1-0.9c0.6-0.1,1.4,0,1.6,0.6C34.8,74.9,34.8,75.2,34.6,75.2
				z M35,71.7c-0.1-0.1-0.1-0.4,0.1-0.4c0.3-0.1,0.7-0.1,0.8,0.3c0,0.2-0.1,0.3-0.2,0.3C35.5,71.8,35.2,71.8,35,71.7z M35.3,72.5
				c0-0.2,0.1-0.3,0.3-0.4c0.2,0,0.5,0.1,0.6,0.3c0,0.2,0,0.3-0.2,0.4C35.7,72.8,35.6,72.7,35.3,72.5z M36,78.3
				c-0.1-0.1-0.3,0.2-0.4-0.1l0-0.3c0.2,0.1,0.4-0.4,0.6,0C36.3,78.1,36.1,78.2,36,78.3z M36.3,77.4c-0.1,0-0.1-0.2,0-0.3
				c0,0.1,0.2,0,0.2,0.1C36.4,77.3,36.4,77.3,36.3,77.4z M37,73.6L37,73.6L37,73.6C37,73.5,37,73.6,37,73.6L37,73.6z M48.7,85.9
				c0.1-0.3,0.4-0.1,0.4,0.1c-0.1,0.2,0.1,0.7-0.3,0.7C48.6,86.6,48.7,86.2,48.7,85.9z M56.5,71.6c0.1,0,0,0.1,0,0.1h-0.1L56.5,71.6
				z M55.1,71c0,0.1-0.2,0.3-0.3,0.3c-0.3,0.1-0.3-0.2-0.4-0.4C54.5,70.6,55,70.8,55.1,71z M54.5,71.8c0,0.1,0,0.2-0.1,0.2
				c-0.1,0-0.2-0.1-0.3-0.1C54.1,71.6,54.4,71.9,54.5,71.8z M56.1,61.5c0.4,0,0.7-0.1,1,0.2c0,0.2-0.2,0.2-0.3,0.3
				c-0.2,0.1-0.1-0.1-0.2-0.2c-0.2,0-0.3,0.1-0.5,0.1C55.8,61.7,56,61.6,56.1,61.5z M55.7,62.9c0.1,0,0.1,0.2,0.1,0.3
				c0,0-0.1,0-0.1,0L55.7,62.9z M54.6,63.6C54.6,63.7,54.7,63.7,54.6,63.6L54.6,63.6L54.6,63.6z M54.1,63.9c0.1,0.1,0,0.3,0.1,0.4
				c-0.1,0-0.1,0-0.1-0.1L54.1,63.9z M52.4,30.8c0.1,0,0.1,0,0.1,0.1v0.1h-0.1V30.8z M51.3,28.3c0.1-0.1,0.2-0.1,0.3,0
				c0.1,0.2-0.1,0.4-0.1,0.5C51.3,28.7,51.3,28.4,51.3,28.3z M51.3,31.2c0.2-0.3,0.5-0.1,0.6,0.1c-0.1,0.1-0.3,0.3-0.5,0.2
				C51.4,31.4,51.2,31.3,51.3,31.2z M50.9,27.8c0.1,0,0.1,0.1,0.1,0.1c0,0-0.1,0-0.1,0V27.8z M50.6,30.9c0.2,0,0.3,0.1,0.4,0.2
				c0,0.1-0.1,0.2-0.2,0.2c-0.1,0-0.2-0.1-0.3-0.1C50.5,31,50.5,31,50.6,30.9z M49.5,31.4L49.5,31.4c0,0.2,0.3,0.2,0.1,0.4
				c-0.1,0.1-0.3,0.1-0.4,0.1c0-0.3,0.2-0.6,0.1-0.8C49.5,31,49.6,31.2,49.5,31.4z M49.3,29.4c0.1,0,0.1,0.1,0.1,0.1
				c0,0.2-0.1,0.3-0.2,0.3c0,0-0.1,0-0.1-0.1C49.1,29.6,49.2,29.6,49.3,29.4z M48.5,29.5c0.1,0,0,0.1,0,0.1h-0.1L48.5,29.5z
				 M47.2,28.4c0,0.1-0.1,0.1-0.2,0.2c-0.1,0-0.1-0.1-0.1-0.1C46.9,28.4,47.1,28.3,47.2,28.4z M46.7,37.1c0.4-0.1,1.2,0.3,1.3-0.3
				c-0.1-0.4-0.1-0.8-0.1-1.3c-0.2-0.2-0.2-0.5-0.5-0.7l0.2-0.8c0.6,0.4,0.2,1.2,0.7,1.5c0,0.2,0.1,0.3,0.2,0.4
				c0.2-0.2,0.3,0.2,0.4-0.1c0-0.2-0.1-0.3,0-0.4c0.1,0,0.3,0.2,0.4,0.3c-0.1,0.3,0.2,0.5,0.2,0.7l-1.4,1c-0.2-0.1-0.3,0.2-0.5,0.3
				c0,0.2,0.1,0.4-0.1,0.5c-0.3,0.1-0.4-0.3-0.6-0.2c0.1-0.2,0.2-0.4,0.1-0.6C46.8,37.3,46.6,37.3,46.7,37.1z M50.3,67.7v0.2
				c-0.3,0-0.7,0.2-1,0c-0.1-0.1-0.2-0.3-0.1-0.4C49.6,67,50.1,67.4,50.3,67.7z M50.2,66.3c0.1-0.3,0.5-0.3,0.8-0.2
				c0,0.2-0.1,0.6-0.4,0.6C50.4,66.7,50.3,66.5,50.2,66.3z M47.9,71.6h-0.4c0.1-0.3,0.4-0.2,0.5-0.4c0-0.3-0.1-0.8,0.1-1.1
				c0.2-0.3,0.5-0.2,0.8-0.3c-0.1-0.3-0.6-0.1-0.9-0.3c-0.1-0.1-0.3-0.2-0.3-0.3c-0.1-0.3,0.2-0.5,0.4-0.6c0.1,0,0.3,0,0.4,0
				c-0.1,0.2-0.1,0.4,0,0.7c0.2,0.3,0.6,0.3,0.7,0.6c0,0.3-0.1,0.5-0.3,0.6c-0.1,0-0.3-0.1-0.3,0.1C48.9,71.1,48.2,71.3,47.9,71.6z
				 M46.9,70.4c-0.1-0.3-0.4-0.5-0.3-0.8c0.1-0.1,0.2-0.2,0.2-0.4c-0.2-0.1-0.5,0-0.5-0.3c-0.1-0.4,0.3-0.7,0.6-0.9
				c0.2-0.1,0.7-0.3,0.8,0.1c0.1,0.1-0.1,0-0.2,0.1c-0.2,0.3-0.5,0.6-0.3,1l0.4,0.7C47.4,70,47.4,70.6,46.9,70.4z M47,71.1
				c-0.3,0.4-0.8,0.2-1.2,0.2c-0.3-0.2-0.2-0.6-0.1-0.8c0.2-0.1,0.2-0.6,0.6-0.3c0.2,0.3,0.2,0.6,0.4,0.9c0.1,0,0.2-0.1,0.3-0.1
				C47,71,47,71,47,71.1z M48.1,66.8c-0.2,0.2-0.4,1-0.9,0.6c-0.2-0.1-0.2-0.4-0.1-0.5C47.4,66.7,48.2,66.2,48.1,66.8z M49.2,67
				c0,0.4-0.4,0.6-0.6,0.9c-0.2,0-0.4,0-0.6-0.1c-0.1-0.1-0.1-0.4,0-0.5C48.3,67,48.9,66.5,49.2,67z M48.9,69
				c-0.1-0.2,0.1-0.4,0.1-0.6l-0.3-0.1c0.1-0.1,0.1-0.3,0.3-0.4c0.2,0.1,0.3,0.2,0.2,0.4c0.2,0.2,0.3-0.2,0.5,0.1
				c-0.2,0.2-0.3,0.5-0.4,0.8C49.2,69.2,49,69.2,48.9,69z M49.5,69.5c0.1,0,0.2,0,0.3,0c0,0.2-0.1,0.1-0.2,0.1h-0.1V69.5z
				 M49.2,66.7c-0.2-0.5,0.4-0.5,0.6-0.7c0.1,0.3,0.1,0.7,0.3,1C49.8,67,49.5,66.7,49.2,66.7z M48.9,66.3c-0.3-0.1-0.2,0.3-0.4,0.2
				c-0.2-0.3-0.6-0.3-0.6-0.6c0.1-0.1,0.3-0.1,0.3-0.3c-0.1-0.1-0.3-0.1-0.5,0c-0.5,0.1,0,0.8-0.6,0.7c-0.3,0.3-0.5,0.8-0.3,1.3
				c-0.3,0.4-1.3,0.6-1,1.3c0.2,0.2,0.4,0.5,0.4,0.8c-0.4,0.2-0.9,0-1.3-0.1c-0.1-0.5,0.3-0.9,0.6-1.1h0.1c0-0.3-0.1-0.8,0.1-1.1
				c-0.6,0-0.5,1.2-1.3,0.7c-0.2-0.1-0.3-0.3-0.2-0.6c0.3-0.2,0.4-0.7,0.8-0.6c0.3-0.2,0.3-0.4,0-0.6c-0.1-0.1-0.3-0.2-0.3-0.3
				c0-0.2,0-0.5,0.2-0.6c0.2,0,0.5-0.2,0.7,0c0.1,0.2-0.2,0.3-0.3,0.4c0.2,0.4,1,0.7,0.6,1.3l0.1,0.1c0.4-0.2,0.3-0.6,0.3-1
				c0-0.1-0.1-0.2-0.1-0.3c0.3-0.2,0.7-0.1,1-0.5c-0.1-0.4-0.1-0.9,0.3-1v-0.1c0.5,0,0.9,0.1,1.2,0.4c0.1-0.2-0.2-0.4,0-0.6
				c-0.1-0.1-0.1-0.2,0-0.3c0.2-0.2,0.8-0.5,0.8,0.1c0.2,0.5-0.1,0.9-0.3,1.3C49.2,65.7,49.4,66.3,48.9,66.3z M45.4,70.2v0.2
				c-0.5,0.3-1.1,1-1.7,0.4c-0.1-0.6,0.6-0.6,0.8-1C44.9,69.8,45.2,70,45.4,70.2z M44.1,66.8C44,67,44,67.3,43.7,67.4
				c-0.1-0.2-0.3-0.5-0.1-0.8C43.7,66.2,44.1,66.6,44.1,66.8z M43.9,58.1c0.1,0,0.1,0.1,0.2,0.1v0.1h-0.2
				C43.8,58.3,43.8,58.1,43.9,58.1z M43.6,57.7c0,0.1,0.2,0.1,0.1,0.2c-0.4,0.2-0.9,0.1-1.2,0.4c0.1,0.1,0.1,0.2,0.2,0.3
				c0.3-0.1,0.5-0.2,0.8-0.1c0.1,0.1,0.2,0.2,0.2,0.4c-0.2,0-0.3,0.4-0.4,0.3c-0.3-0.2-0.5-0.7-0.9-0.5c0-0.1-0.1-0.1-0.2-0.2
				c-0.3-0.1-0.7,0.6-0.8,0.1c-0.1-0.3,0.4-0.2,0.4-0.5c0.1-0.3-0.1-0.8,0.3-0.9c0.2-0.1,0.4,0.2,0.4-0.1c-0.1-0.2-0.4,0-0.5-0.2
				c0-0.1,0.1-0.1,0.2-0.2c0.3-0.1,0.7,0.1,0.9-0.2c0.4,0,0.8,0,1.1-0.2c0.2,0.2-0.4,0.5-0.1,0.7l0.6,0.1v0.2
				C44.3,57.6,43.7,57.2,43.6,57.7z M43.3,67c-0.1,0-0.1,0-0.1-0.1c-0.1-0.1,0.1-0.2,0.2-0.2C43.4,66.8,43.3,66.9,43.3,67z M41.1,58
				v0.2l-0.2,0C41,58.1,41.1,58,41.1,58z M40.9,51.3c-0.1,0.1-0.2,0.1-0.4,0.1c-0.1-0.3,0.2-0.3,0.3-0.5C41,51,41,51.2,40.9,51.3z
				 M40.8,50.6c-0.1,0-0.2-0.2-0.3-0.1c-0.1,0.1-0.1,0.2-0.1,0.3c-0.1-0.1-0.2-0.3-0.4-0.3c-0.1,0.2,0.3,0.4,0,0.6
				c-0.2-0.1-0.5-0.3-0.6,0.1c0,0.2-0.1,0.3-0.3,0.3c-0.2,0-0.4-0.2-0.5,0.1V52c-0.5-0.3-0.7,0.7-1.2,0.5c-0.2,0.3-0.5,0.5-0.8,0.6
				l-0.2-0.2c-0.2,0.1-0.3,0.5-0.6,0.4l-0.3-0.5c0.2,0,0.4,0.1,0.5-0.1L35.8,52c0.1-0.1,0.3,0,0.3-0.1c0-0.2-0.4-0.3-0.3-0.6
				c0.2,0,0.6-0.4,0.6,0l0.4-0.4c0.1,0.2,0,0.6,0.3,0.7c0.1,0,0.2-0.2,0.2-0.3c0.1,0.1,0.3,0.4,0.6,0.2l0.1-0.1
				c-0.2-0.2-0.8-0.3-0.7-0.8c0.1-0.1,0.2-0.1,0.4-0.1c0.1,0.1,0,0.3,0.1,0.4c0.2-0.3,0.5-0.5,0.4-0.9c0.4,0.5,0.6-0.5,1.1-0.3
				c0.1-0.1,0.2-0.2,0.3-0.2c0.1,0.2,0.1,0.4,0.3,0.5c0.4,0,0.2-0.4,0.5-0.5c-0.1-0.2-0.3-0.3-0.2-0.5c0.1-0.1,0.4-0.1,0.4,0
				c0.2,0.4-0.6,0.5,0,0.7c0.2,0,0.4-0.1,0.5-0.2l0.6,0.5C41.4,50.6,40.9,50.1,40.8,50.6z M39.3,52.3l0.2,0.3
				c-0.4,0.1-0.8,0.5-1,0.8c0.1,0.1,0.1,0.2,0.1,0.4c-0.2-0.1-0.5-0.2-0.8,0c-0.3,0.2-0.3,0.4-0.3,0.7c-0.3,0.1-0.7-0.2-0.8,0.2
				c-0.3-0.2,0.1-0.6-0.3-0.7c-0.2,0.1-0.1,0.3-0.2,0.5c-0.2,0-0.4,0-0.5-0.2c0-0.2,0-0.4,0.1-0.6c0.1,0,0.2,0.1,0.2,0.1
				c0.1-0.1,0.1-0.3,0.3-0.3c0.8,0.3,0.9-0.8,1.6-0.8c0.2,0,0.2-0.2,0.3-0.3c0.4-0.3,0.9-0.3,1.2-0.8c0.3,0,0.7-0.4,0.9,0.1v0.3
				C40,52.2,39.6,52.1,39.3,52.3z M40.1,57L40.1,57l0,0.1L40.1,57z M39.6,54.9c0.1,0,0.2,0,0.2,0.1l-0.2,0.6l-0.3,0
				C39.3,55.3,39.4,55.1,39.6,54.9z M39.2,54.9L39.2,54.9c-0.1-0.1-0.1-0.4,0-0.5c0.2,0,0.2,0.2,0.2,0.3
				C39.5,54.9,39.3,54.9,39.2,54.9z M39.7,54.2v-0.4c0.1,0,0.1,0.1,0.2,0.2C39.8,54.1,39.9,54.3,39.7,54.2z M37.9,55.5
				c-0.2,0-0.4-0.2-0.6-0.3c0.3,0,0.7-0.4,0.8,0.1C38.1,55.4,38,55.5,37.9,55.5z M34.7,53.6c0.1,0,0.2,0,0.2,0.1
				c-0.1,0-0.3,0-0.5,0.1C34.5,53.7,34.6,53.7,34.7,53.6z M34.3,51.6L34.3,51.6l0.2,0L34.3,51.6z M34.8,53.3
				c-0.1-0.2,0.2-0.3,0.2-0.4l0.5,0.5C35.3,53.6,35.1,53.2,34.8,53.3z M35.6,51.7c0,0.1-0.1,0.2-0.1,0.2c-0.1,0-0.2,0-0.2-0.1
				c-0.1-0.1,0-0.2,0-0.3c-0.2,0-0.1-0.2-0.1-0.4c0.1-0.1,0.2-0.1,0.3,0C35.3,51.3,35.4,51.6,35.6,51.7z M35,52.6
				c-0.1,0-0.2-0.2,0-0.3c0.1,0,0.1,0.1,0.1,0.1C35.1,52.4,35,52.5,35,52.6z M35.7,54.7c0.2,0.1,0.3,0.3,0.2,0.4
				c-0.1,0-0.1,0.1-0.2,0.1L35.7,54.7z M35.7,55.8c0.1,0.1,0.2,0.2,0.4,0.2c0.1-0.2,0.2-0.5,0.5-0.3l0.1-0.1
				c0.2,0.4-0.4,0.3-0.5,0.6c-0.3-0.2-0.5,0-0.8,0C35.2,55.8,35.6,55.9,35.7,55.8z M39,49.4c-0.2-0.1-0.2-0.3-0.1-0.5
				c0.1-0.1,0.3-0.1,0.3,0.1C39.1,49.1,39.3,49.4,39,49.4z M39.5,48.9v-0.5l0.2,0.3L39.5,48.9z M41.5,54.1v0.4l-0.2,0
				c-0.1-0.1,0-0.3,0.1-0.4H41.5z M41.2,56.3l0.1-0.1c0.1,0,0.2,0.1,0.2,0.2c0,0.1,0,0.3-0.2,0.3C41.2,56.8,41.2,56.5,41.2,56.3z
				 M43.2,52.5c-0.4,0.1-0.4-0.4-0.6-0.6c0-0.2,0.1-0.3,0.2-0.3c0.2-0.1,0.5,0.3,0.6,0c-0.3-0.3-0.8-0.1-1-0.5
				c0-0.3,0.3-0.5,0.5-0.7c0.3-0.1,0.3,0.3,0.5,0.5c0,0.1-0.2,0.3,0,0.4c0.1-0.1,0.3-0.2,0.2-0.3c0.4,0.1,1-0.4,1.1,0.3
				c0.3,0,0.1,0.2,0.1,0.4c-0.1,0.2-0.2,0-0.3,0l-0.2-0.2c-0.1,0.1-0.3,0.2-0.3,0.4c0.1,0.3,0.6-0.1,0.4,0.3
				c-0.3,0.1-0.1,0.6-0.5,0.5c-0.2,0-0.5,0-0.6,0.2c0.1,0.3,0.6,0.2,0.8,0.1c0.1-0.1,0.3-0.1,0.5,0c0.1,0.1,0.2,0.2,0.2,0.3
				c-0.2,0.1-0.5,0-0.6,0.2c0.3,0.5-0.4,1,0.1,1.5c0.2,0,0.4-0.3,0.4,0c0,0.1,0.1,0.3,0,0.4c-0.3,0.1-0.2-0.4-0.5-0.3
				c-0.2,0.1-0.1,0.5-0.3,0.4c-0.1-0.1-0.2-0.3-0.4-0.3c-0.1,0.1-0.2,0.4-0.5,0.3c-0.1-0.2,0.3-0.4,0.1-0.6
				c-0.6-0.1-0.1-0.5-0.1-0.9c0.2,0.1,0.5-0.1,0.6-0.3c-0.1-0.3-0.4-0.3-0.7-0.3c-0.1,0.1-0.2,0.2-0.3,0.1c0-0.5-0.6-0.4-0.6-0.8
				c-0.1-0.1-0.2-0.3-0.1-0.5c0.2-0.2,0.4,0.3,0.6,0.3c0,0.1,0.1,0.2,0.2,0.2c0.2,0,0.4-0.1,0.6-0.2C43.5,52.6,43.4,52.5,43.2,52.5z
				 M44.2,44.1l0.3-0.6c0.3,0.2,0.8,0.2,1,0.7c0,0.5-0.7,0.7-0.8,1.2c-0.3,0-0.3-0.4-0.5-0.4c0-0.1,0.5-0.4,0.1-0.5
				c-0.1,0-0.2-0.1-0.3-0.1C44,44.1,44.2,44.2,44.2,44.1z M44.2,42.7c0-0.2,0.2-0.1,0.4-0.1V43C44.3,43.1,44.3,42.8,44.2,42.7z
				 M45.2,42.6c0,0.2,0.4,0.1,0.2,0.3c-0.1,0.1-0.2,0.2-0.4,0.2c-0.1-0.1-0.2-0.3-0.2-0.5c0.1-0.2,0.2-0.3,0.2-0.5
				C45,42,44.9,42,44.9,41.9l0-0.3c0.2,0,0.5,0.4,0.7,0.1c0,0,0.1,0.1,0.1,0.1C45.7,42.1,45.1,42.2,45.2,42.6z M45,52.2L45,52.2
				L44.9,52H45C45,52.1,45.1,52.2,45,52.2z M45,47v-0.2c0.1,0,0.1,0,0.1,0c0,0,0,0.1,0,0.1H45z M45.3,55.2c0,0,0,0.1,0,0.1
				c0,0-0.1,0-0.1,0C45.1,55.2,45.2,55.2,45.3,55.2z M45.5,59.8c0.1,0.1,0,0.3-0.2,0.4h-0.1C45.2,60,45.3,59.8,45.5,59.8z
				 M45.3,48.6c-0.1,0-0.1-0.1-0.1-0.1l0.1-0.3c0.1,0.1,0.2,0,0.2,0.1C45.5,48.4,45.4,48.5,45.3,48.6z M44.2,46.8
				c0.3-0.1,0.2-0.4,0.2-0.6c0.2,0.1,0.2,0.3,0.2,0.6c-0.1,0.1-0.2,0.2-0.3,0.2c-0.2-0.3-0.4,0.3-0.6-0.1c0.1-0.2-0.3-0.6,0.2-0.6
				C44.1,46.4,44,46.7,44.2,46.8z M44.4,48.6L44.4,48.6c-0.2-0.1,0.1-0.2,0.1-0.1C44.5,48.6,44.4,48.6,44.4,48.6z M44.4,50.6
				c-0.2,0-0.5,0-0.7,0.2c-0.2-0.3,0.2-0.4,0.3-0.6C44.3,50.1,44.4,50.4,44.4,50.6z M43.8,47.3c0.1,0.1,0,0.3-0.1,0.3
				c-0.1,0-0.2,0-0.2-0.1C43.4,47.3,43.7,47.4,43.8,47.3z M43.5,39.5l-0.2-0.1C43.4,39.4,43.4,39.5,43.5,39.5L43.5,39.5z M43.7,49.8
				c0,0.1,0.1,0.1,0.1,0.2c-0.2,0.2-0.3-0.1-0.4-0.1c0-0.4-1-0.4-0.3-0.8C43.5,49.1,43.1,50,43.7,49.8z M42.9,56.2L42.9,56.2
				L42.9,56.2C42.9,56.1,42.9,56.1,42.9,56.2z M42.1,53.7c-0.1,0.1,0,0.4-0.2,0.3c-0.1-0.1-0.1-0.3-0.1-0.4
				C41.9,53.6,42.1,53.6,42.1,53.7z M42.4,55.8l-0.2,0.3l0.2,0.2c0,0.1-0.2,0.2-0.3,0.1c-0.1-0.2-0.3-0.4-0.3-0.7
				C42,55.8,42.2,55.4,42.4,55.8z M44.4,62.2c-0.1,0.1,0,0.3-0.2,0.2C44.2,62.3,44.3,62,44.4,62.2z M46.8,44.4
				c0.2,0,0.1-0.5,0.5-0.3c0.1,0.1,0.1,0.2,0.1,0.3c0,0.1-0.3,0.2-0.1,0.3c0.1,0.3,0.7-0.3,0.5,0.3c0,0-0.1,0-0.1,0.1
				c-0.1-0.3-0.3-0.2-0.6-0.2c-0.4,0.1-0.6-0.3-0.8-0.5c-0.1,0,0-0.1-0.1-0.1c0.2-0.1,0.6-0.9,0.7-0.2
				C46.7,44.2,46.7,44.4,46.8,44.4z M48.9,42c-0.1,0.5,0.4,0.8,0,1.2c-0.4,0-0.5-0.8-1-0.4c-0.4,0.2,0.2,0.9-0.4,0.8
				c0-0.5-0.8-0.7-0.6-1.2c0.3-0.3,0.9-0.2,1.1-0.6C48.4,41.7,48.6,42.2,48.9,42z M48.1,40.8c0.2,0.1,0.5,0.1,0.6,0.4
				c-0.2,0.2-0.4-0.1-0.6-0.1L48.1,40.8z M49.4,41.6v-0.4c0.1,0,0.2,0.2,0.2,0.2c0,0.1,0,0.2-0.1,0.2H49.4z M48.7,40
				c-0.1,0-0.3,0.1-0.3-0.1c0.2-0.3,0.5-0.3,0.7-0.4c0.2,0,0.4,0.3,0.7,0.2c0,0.3,0.5,0.7,0,0.8C49.4,40.2,48.9,40.5,48.7,40z
				 M46.1,36.8c0.2,0.1,0.4-0.1,0.5,0.1c0,0.1-0.1,0.1-0.1,0.1C46.3,37.1,46.1,37,46.1,36.8z M46,38.6c0.2-0.2,0.5-0.1,0.6,0.2
				c-0.1,0.3-0.4-0.1-0.6,0.1C45.9,38.8,45.9,38.7,46,38.6z M46.1,39.9c0.2-0.1,0.8-0.4,0.8,0.1c0.2,1-1,0.8-1.2,1.5
				c-0.1,0-0.1,0-0.2-0.1c0.1-0.1,0.1-0.2,0.1-0.3c-0.1-0.2-0.4-0.1-0.6-0.3c0-0.2-0.1-0.4,0.1-0.5c0.2,0,0.5,0.2,0.6-0.1
				c0.2-0.3-0.4-0.3-0.1-0.5C45.7,39.7,45.9,39.8,46.1,39.9z M44.8,33.4c0.3,0.1,0.9,0.3,0.9,0.8c-0.1,0.2-0.3,0-0.4-0.1
				C45.1,33.8,44.4,33.7,44.8,33.4z M44,32.8c0.2,0,0.3,0.1,0.3,0.2c0,0.2,0.1,0.5-0.1,0.6c-0.2,0-0.3-0.4-0.6-0.3
				C43.6,33,43.8,32.8,44,32.8z M41.3,34.8L41.3,34.8L41.3,34.8C41.3,34.7,41.3,34.7,41.3,34.8z M40.2,36.3c0.2,0,0.6-0.1,0.6,0.2
				c0.3,0.3,0.9-0.1,1.2,0.2c0.5-0.2,0.7,0.5,1.2,0.3c0.3,0.1,0.5,0.1,0.8,0.3c0.2-0.1,0.2-0.4,0.5-0.3c0.1,0.1,0.1,0.3,0.1,0.5
				c-0.1,0.2-0.2-0.1-0.4,0c-0.8,0.3-1.3-0.5-1.9,0c-0.2,0-0.3-0.2-0.4-0.4c-0.3,0-0.8,0.1-1-0.2L40.5,37c0.1-0.3-0.2-0.3-0.4-0.4
				c-0.5,0.2-0.2-0.5-0.6-0.5l0-0.1C39.7,36.2,40.1,35.9,40.2,36.3z M42.5,43.8L42.5,43.8c-0.2-0.2,0-0.2,0.1-0.2
				C42.5,43.6,42.6,43.8,42.5,43.8z M42.2,39.2c0-0.1,0-0.3,0.2-0.4c0.1,0.1,0.1,0.2,0.1,0.3L42.2,39.2z M42.1,43.5
				c0,0.1-0.1,0-0.1,0c0-0.1,0.1-0.2,0.2-0.2C42.2,43.3,42.1,43.4,42.1,43.5z M41.6,41.6l-0.2-0.2l0.3-0.3c0.1,0.1,0.3,0.2,0.2,0.4
				C41.8,41.6,41.7,41.7,41.6,41.6z M41.7,43.9c-0.1,0-0.2-0.1-0.2-0.2c0-0.2,0.3-0.1,0.3,0C41.9,43.8,41.8,43.8,41.7,43.9z
				 M40.8,44.3L40.8,44.3c0.1,0.1,0,0.2,0,0.2V44.3z M40.7,43.3l0-0.3c0.1,0.1,0.1,0.2,0.1,0.3H40.7z M40.7,42.3
				c0.1-0.2-0.1-0.5,0.1-0.6c0.2,0,0.3,0.1,0.4,0.2C41,42,41.1,42.3,41,42.5C40.9,42.6,40.6,42.4,40.7,42.3z M40.3,37.2L40.3,37.2
				C40.2,37.2,40.2,37.2,40.3,37.2L40.3,37.2L40.3,37.2z M39.7,45.8c-0.2,0.1-0.3-0.3-0.5-0.1c-0.1,0,0-0.1,0-0.2
				c0.3,0,0.2-0.5,0.5-0.3C39.7,45.5,39.6,45.6,39.7,45.8z M38.6,44.7c-0.4,0,0-0.4-0.3-0.5c0-0.3,0.5-0.6,0.5-0.1
				c-0.1,0.2-0.2,0.5,0,0.7c0.2,0,0.3-0.4,0.5-0.1c0.1,0.1,0.1,0.2,0.1,0.3c-0.4,0.1-0.8,0.4-1.3,0.2c0-0.3-0.3-0.3-0.4-0.2
				c0,0-0.1,0.1-0.1,0.1c0.1-0.1,0.1-0.6,0.4-0.4c0.1,0.2,0.4,0.4,0.6,0.4C38.6,44.9,38.7,44.8,38.6,44.7z M39.2,43.6
				c0.3-0.3,0.5,0.1,0.5,0.3c-0.1,0.1-0.1,0.4-0.3,0.3C39.1,44.1,39.1,43.8,39.2,43.6z M39.2,43c-0.1-0.1-0.2-0.3-0.1-0.4
				c0.1-0.2,0.2-0.1,0.3-0.1c0,0.1,0.1,0.2,0.2,0.3c0.1,0,0.1-0.1,0.2-0.1l-0.1-0.3c0.1,0.2,0.6,0.1,0.4,0.4c-0.1,0-0.1,0.2-0.2,0.2
				C39.6,43,39.4,42.7,39.2,43z M39.7,41.5c0.1,0,0.2,0.1,0.2,0.2c0,0.2,0,0.3-0.2,0.3c-0.1,0-0.2-0.1-0.2-0.2
				C39.5,41.7,39.6,41.5,39.7,41.5z M39.6,40.8l0.2-0.1c0.1,0.1,0.2,0.2,0.2,0.4l-0.1,0.1L39.6,40.8z M39.6,41.3
				c-0.2,0-0.5-0.1-0.6-0.2c0-0.1,0-0.2,0.1-0.3C39.5,40.7,39.4,41.2,39.6,41.3z M38.7,35.7c0.2,0,0.4,0,0.5,0.2
				c0,0.2-0.2,0.3-0.1,0.5c-0.2,0.1-0.3-0.3-0.4-0.4C38.6,35.9,38.6,35.7,38.7,35.7z M38.5,35.5c0,0.3-0.4,0.1-0.4,0.4
				c-0.4-0.2-0.8,0.2-1.1-0.2C37.2,35.2,38,35.5,38.5,35.5z M36.8,38c0.4,0.2,1.1-0.1,1.4,0.4c-0.5,0-1.2-0.1-1.5,0.4h-0.1
				C36.9,38.5,36.4,38.1,36.8,38z M35.6,37.8c0.2-0.1,0.3,0.1,0.4,0.2c-0.1,0.1-0.3,0.1-0.5,0.1C35.5,38.1,35.5,37.9,35.6,37.8z
				 M36.8,43.2c0.5-0.4,1.2-0.2,1.8-0.6c0.1,0,0.2,0,0.2,0.1c0,0.2-0.1,0.3-0.2,0.4c-0.2-0.1-0.3-0.3-0.5-0.1
				c-0.2,0.2-0.5,0.7-0.9,0.5c0-0.1,0.1-0.3-0.1-0.3c-0.1,0.1,0,0.3-0.1,0.4l-0.8,0.4c-0.1,0-0.2-0.2-0.3-0.1
				c-0.2,0.1-0.2,0.3-0.3,0.4l-0.2,0C35.5,43.5,36.5,43.9,36.8,43.2z M37,45.4c0,0.1-0.3,0.1-0.3,0c-0.1-0.1-0.2-0.2-0.1-0.3
				C36.8,45,36.9,45.2,37,45.4z M34.9,45.8C35,45.8,35,45.9,34.9,45.8C35,46,34.9,46,35,46h-0.1V45.8z M35.2,46.3
				c0.2-0.2,0.3-0.8,0.6-0.3c-0.1,0.3-0.5,0.5-0.9,0.5c-0.2,0-0.1-0.2-0.2-0.3C34.8,46.2,35,46.4,35.2,46.3z M34.4,46.4
				c0,0.1,0,0.1-0.1,0.2c-0.1,0-0.1-0.1-0.1-0.1C34.1,46.3,34.4,46.3,34.4,46.4z M34,47.8c0-0.1,0.2-0.2,0.2-0.1
				c0.1,0.2-0.1,0.2-0.2,0.2C33.9,48,34,47.9,34,47.8z M34.4,49.6v0.1c-0.4,0.1-0.3-0.4-0.5-0.6C34.2,49.1,34.2,49.5,34.4,49.6z
				 M33.9,50.2c0.7,0.1,1-0.4,1.5-0.7v-0.1c-0.2-0.1-0.3,0.2-0.5,0c-0.1-0.1-0.2-0.3-0.1-0.5c0.5-0.1,0.2-0.5,0.1-0.7
				c0-0.1,0.2,0,0.3-0.1c-0.1,0.3,0.3,0.4,0.4,0.7c0.5-0.1-0.1-0.4,0-0.7c0-0.1-0.1,0-0.2,0c0.2-0.4,0.7-0.4,1.2-0.3l0,0
				c0.2,0,0.2-0.2,0.3-0.3c-0.1-0.2-0.2-0.2-0.4-0.1c-0.1-0.3,0.2-0.4,0.4-0.5c0.2,0,0.2,0.3,0.3,0.4c0.2-0.1,0.6-0.1,0.8-0.4
				c0-0.3-0.3-0.4-0.3-0.6c0.2-0.2,0.5,0.2,0.7-0.1c0-0.1-0.1-0.4,0.1-0.4c0.2,0,0.5,0,0.5,0.3c0,0.2,0.1,0.4,0.2,0.5
				c0.1,0,0.2-0.1,0.4-0.1l0.1,0.3c0.2,0,0.5-0.1,0.7,0l0.1-0.3c0.1,0,0.3,0.4,0.4,0.1c0-0.1-0.1-0.3,0.1-0.3c0.1,0,0.2,0.2,0.2,0.3
				c0,0.3-0.1,0.5-0.3,0.6c-0.3,0.1-0.7,0-0.8,0.3c0,0.1,0.1,0.3,0.2,0.4c0.7-0.2,1.1-0.9,1.9-0.9c0.2-0.1,0.2-0.6,0.5-0.4
				c0.2,0.2,0.2,0.5,0.1,0.7c-0.2,0-0.5,0.2-0.5,0.4c-0.1,0-0.2-0.3-0.4-0.1c-0.3,0.1-0.1,0.5-0.3,0.6c-0.3,0-0.5,0-0.8,0.1
				c0,0.1,0.2,0.3,0.2,0.4c-0.3,0.3-0.9,0-1.1,0.4h0c-0.2-0.4,0.2-0.8-0.1-1.1c-0.5,0-0.8,0.4-1.3,0.5l-0.2,0.2
				c-0.3-0.3-0.5,0.3-1,0.2c-0.1,0-0.1,0-0.2,0.1c0,0.2,0.3,0.4,0,0.5h-0.4c0.1-0.4-0.2-0.7-0.1-1.1l-0.1-0.1
				c-0.2,0.2-0.5,0.3-0.5,0.6c0.4,0.1-0.1,0.4,0.2,0.6c-0.2,0.1-0.5,0.2-0.4,0.4c-0.1,0-0.4-0.2-0.5,0c0.1,0,0,0.1,0,0.2
				c-0.3,0.3-0.8,0.1-1,0.6c-0.2,0.1-0.4-0.1-0.6-0.1V50.2z M33.6,57.2L33.6,57.2l-0.1-0.1h0.1V57.2z M33.6,49.5L33.6,49.5v-0.2
				C33.7,49.4,33.6,49.4,33.6,49.5z M33.5,48.4c0-0.1,0-0.3,0.1-0.4c0,0,0.1,0,0.1,0.1C33.7,48.2,33.8,48.4,33.5,48.4z M33.9,58.5
				c0-0.2,0.3-0.2,0.2,0c0,0,0,0.1,0,0.1C34,58.6,34,58.5,33.9,58.5z M34.5,59.4c-0.1-0.1-0.3-0.2-0.3-0.3l0.1-0.3
				c0.2-0.1,0.3,0.1,0.4,0.2C34.6,59.2,34.6,59.3,34.5,59.4z M35.8,62.1c-0.2,0.1-0.5,0-0.5-0.2c-0.2,0.1-0.4,0.2-0.7,0.1
				c-0.2-0.1,0-0.2,0-0.2c0.3-0.3,1-0.1,0.9-0.7c0.2-0.1,0.2,0.1,0.2,0.2c0.1,0.1-0.1,0.2-0.2,0.3C35.7,61.7,35.9,61.8,35.8,62.1z
				 M35.6,58.8c0.1,0.1,0,0.3-0.1,0.4c-0.1,0-0.2,0-0.2-0.1C35.3,59,35.4,58.8,35.6,58.8z M35.3,58.2c-0.1-0.2,0.3-0.4,0-0.6
				c-0.2,0-0.1,0.3-0.3,0.3c-0.4,0.2-1.1-0.3-1.2,0.3l0,0c0,0-0.1,0-0.1,0c0.2-0.2,0-0.3,0-0.5c0.7,0,1.1-1,1.9-0.6
				c0.1-0.1,0.2-0.2,0.2-0.3c1-0.5,2.3-0.7,3.1-1.6c0.1,0.1,0.2,0.1,0.3,0.2c-0.2,0.3-0.2,0.8-0.6,0.8l0,0c0,0.1-0.1,0.3-0.2,0.3
				c-0.2-0.1-0.2,0.2-0.2,0.2c-0.7-0.1-1.1,0.8-1.9,0.6c-0.4,0.2,0.1,0.5,0,0.8C35.9,57.4,35.6,58.5,35.3,58.2z M36.8,61h-0.2
				c0-0.1,0-0.3,0.1-0.4c0.1,0,0.1,0.1,0.1,0.2C37,60.9,36.9,61,36.8,61z M36.6,58.6c0,0.1-0.2,0.2-0.2,0.3c-0.2,0-0.2-0.2-0.3-0.3
				c0-0.2,0.2-0.3,0.3-0.5C36.8,58.1,36.4,58.4,36.6,58.6z M36.2,62.9c-0.1-0.1-0.2-0.3-0.1-0.4c0.3-0.3,0.6,0,1-0.1l0.1,0.2
				C36.9,62.7,36.6,63,36.2,62.9z M38.6,59.6c-0.2,0.4-0.5,0.9-0.9,1l-0.7,0c0-0.6,0.7-0.6,1.1-1c0.3,0.1,0.2-0.5,0.5-0.2V59.6z
				 M39.5,57.3c-0.1,0.2-0.3,0.1-0.5,0.2c-0.3,0.5-0.8,0.5-1.2,0.7c0.1,0.1,0.2,0.2,0.1,0.3c-0.4,0.2-0.7-0.3-1-0.5
				c-0.2-0.6,0.6,0,0.6-0.4c0.1,0.3-0.4,0.3-0.3,0.6c0.3,0.1,0.5-0.2,0.6-0.4c0-0.2,0.1-0.5,0.3-0.6c0.5-0.2,0.8,0.5,1.2,0
				C39.4,57.1,39.6,57.2,39.5,57.3z M39.8,61.7c-0.1,0-0.1,0-0.1-0.1c0-0.1,0.1-0.3,0.2-0.1C39.9,61.6,39.9,61.7,39.8,61.7z
				 M40.4,61.7L40.4,61.7l0-0.2h0V61.7z M40.7,61.6c-0.1,0-0.2,0-0.2,0c0.3-0.3-0.1-0.5-0.2-0.7c-0.2,0.3-0.5,0-0.8,0.1
				c-0.1-0.1,0-0.3,0.1-0.3h0.2c0,0,0,0.1,0.1,0.1c0.2-0.1-0.2-0.4,0.1-0.5l0.3,0.2c0-0.5,0.6-0.6,0.8-0.9c0.6,0.4,1-0.9,1.5-0.2
				c-0.2,0.2-0.1,0.6-0.2,0.9c0.1,0,0.1,0.1,0.1,0.2c-0.1,0.1-0.3,0-0.4,0.2l0,0.1c-0.2,0-0.4-0.2-0.6-0.3c0.1-0.1,0.1-0.2,0.1-0.2
				c-0.2,0-0.5,0.6-0.7,0.1c-0.1,0-0.3,0.1-0.3,0.2c-0.1,0.2,0.1,0.4,0.2,0.5C41,61.1,41,61.5,40.7,61.6z M42.7,66.5L42.7,66.5
				L42.7,66.5L42.7,66.5L42.7,66.5z M41.6,70c-0.1,0.1-0.3,0.1-0.4,0c-0.3-0.3,0-0.6,0-1c0.2,0,0.6,0.3,0.7-0.1
				c0.2,0,0.1,0.2,0.2,0.3C42,69.5,41.2,69.4,41.6,70z M41.9,67.5C41.9,67.5,41.8,67.5,41.9,67.5c-0.1-0.1-0.1-0.2,0-0.2
				C41.9,67.4,42,67.5,41.9,67.5z M41.7,66.7c0-0.1,0-0.2,0.1-0.2c0.1,0,0.1,0,0.1,0.1v0.1H41.7z M41.9,61.1c-0.2,0-0.5,0-0.5-0.2
				c0-0.4,0.5-0.3,0.7,0C42,61,42,61.1,41.9,61.1z M40.7,68.2c0.2,0,0.2,0,0.4-0.1l0.2,0.3c0.1,0.2-0.2,0.2-0.3,0.2
				C40.9,68.6,40.8,68.5,40.7,68.2L40.7,68.2z M40.7,71.1c-0.2,0.2-0.3,0.3-0.6,0.2h0c-0.1-0.3,0.1-0.6,0.2-0.8
				c0.2-0.1,0.6-0.7,0.8-0.1c-0.1,0.1,0,0.4-0.2,0.4c-0.1,0-0.2-0.1-0.2,0C40.7,70.8,40.8,71,40.7,71.1z M40.2,73.8l-0.4,0.1
				c-0.2-0.4,0.4-0.5,0.5-0.7c0.1,0,0.2,0.1,0.2,0.2C40.6,73.6,40.3,73.7,40.2,73.8z M40,68.2c0.1,0.1,0,0.2,0,0.3
				c-0.1,0-0.1,0-0.2-0.1C39.8,68.3,39.9,68.1,40,68.2z M40,69.5c0.2,0,0.2,0.2,0.3,0.3c0,0.2-0.2,0.3-0.3,0.4h-0.4
				C39.6,69.9,39.8,69.6,40,69.5z M39.7,70.9c0,0.1-0.1,0.1-0.1,0.2c-0.2,0-0.3-0.2-0.4-0.2c-0.3,0.2-0.1,0.7-0.6,0.7
				c-0.1,0.1,0,0.3-0.1,0.5h-0.2c-0.1-0.3,0.1-0.6,0.2-0.8C38.9,71.2,39.6,69.8,39.7,70.9z M37.5,71.2c0,0,0,0.1,0,0.1L37.5,71.2
				C37.5,71.2,37.5,71.2,37.5,71.2c0-0.4,0.2-0.9,0.6-1.1c0.1,0,0.2,0,0.3,0.1c0.1,0.2-0.1,0.1-0.2,0.2c-0.3,0.2,0.1,0.6-0.4,0.6
				C37.7,71,37.6,71,37.5,71.2z M38.1,74.2c-0.1,0.1-0.2,0.2-0.4,0.1c-0.2-0.2,0.1-0.3,0.1-0.5C38,73.9,38.1,74,38.1,74.2z
				 M38.2,77.3c-0.2,0.1-0.3,0.2-0.6,0.2c-0.1-0.3,0.2-0.3,0.3-0.5c0.1,0,0.1,0.1,0.2,0.1l0,0C38.2,77.1,38.2,77.2,38.2,77.3z
				 M38.2,76.1H38c0.1-0.1,0.1-0.3,0.3-0.2C38.3,76,38.3,76,38.2,76.1z M38.3,73.4c0.2,0,0.4,0.1,0.4,0.2c0,0.2-0.2,0.3-0.3,0.2
				C38.2,73.8,38.2,73.6,38.3,73.4z M38.8,75c-0.1,0-0.3,0-0.4-0.2c-0.1-0.3,0.3-0.9,0.4-0.3C38.8,74.7,38.9,74.9,38.8,75z M39,72.5
				c-0.1-0.1,0-0.3,0-0.5c0.3-0.5,1.1-0.8,1.4-0.2l-0.5,0.8C39.6,72.8,39.2,72.7,39,72.5z M39.6,80.5c0.2,0,0.4-0.1,0.4,0.1
				c0,0.1-0.1,0.2-0.1,0.3C39.7,80.9,39.7,80.7,39.6,80.5z M40.2,83.1c-0.2,0-0.2-0.2-0.3-0.3c-0.1-0.3,0.1-0.5,0.4-0.5
				C40,82.6,40.9,83,40.2,83.1z M41.5,85.8c0-0.1-0.1-0.2,0-0.2c0.1,0,0.1,0,0.2,0.1L41.5,85.8z M42.1,84.8
				c-0.5,0.2-0.5-0.2-0.7-0.5c0.1-0.2,0.2-0.3,0.4-0.3c0.2,0.1,0.4,0.2,0.5,0.4C42.2,84.6,42.3,84.8,42.1,84.8z M43.1,86.4
				c-0.1-0.2-0.2-0.3-0.2-0.5l0.1-0.1C43,86,43,86.1,43.1,86.4c0-0.1,0.2-0.1,0.3-0.2C43.3,86.4,43.2,86.5,43.1,86.4z M43.2,84.9
				c0,0.1,0.2,0.1,0.1,0.2c-0.3,0.3-0.6-0.1-0.9,0c0.2-0.2,0.2-0.9,0.7-0.9c0.2,0,0.3,0.1,0.3,0.2C43.6,84.7,43.3,84.7,43.2,84.9z
				 M44.6,86.8c-0.2-0.1-0.5-0.1-0.6-0.3c0-0.1-0.1-0.4,0.1-0.4c0.3,0.2,0.4-0.4,0.7,0l0.1,0.2C44.9,86.5,44.8,86.8,44.6,86.8z
				 M46.9,87.4l0-0.1l0.1,0.1C47,87.4,47,87.3,46.9,87.4z M47.6,86.6c-0.1,0.2-0.3,0.4-0.6,0.3c-0.2-0.1-0.1-0.3,0-0.4
				C47.1,86.3,47.7,86.2,47.6,86.6z M47.9,86.4l0.2-0.3c0.3,0.2,0.1,0.6,0.1,0.8C48.1,87,48,87,47.9,87.1
				C47.8,86.9,47.8,86.6,47.9,86.4z M47.4,84.1c0.2-0.2,0.5-0.1,0.8-0.1c0.1,0.3-0.1,0.6-0.2,0.8c-0.1,0.1-0.3,0.1-0.4,0.1
				C47.5,84.7,47.3,84.4,47.4,84.1z M45.6,81.6c0.2,0,0.4,0.1,0.5,0.2c-0.1,0.1,0,0.3-0.2,0.4c-0.2-0.1-0.4,0-0.5-0.2
				C45.4,81.8,45.5,81.7,45.6,81.6z M45.3,81.1c0.1,0,0.2,0,0.2,0.1v0.2h-0.2V81.1z M43,81.9c0.3,0,0.6,0.4,1,0.1
				c0.4,0.2,0.8-0.1,1.2,0c0.2,0.4,0.9,0.7,0.5,1.2c-0.2,0.1,0.1,0.3,0.1,0.4c0.1,0.1,0,0.4,0.1,0.4c0.3-0.3,0.8-0.1,1.2-0.1
				c0.4,0.2-0.2,0.5,0,0.8c0.3,0.3,0.5,0.6,0.8,0.8c0,0.5-0.6,0.4-1,0.6c-0.4-0.2,0.1-0.5-0.2-0.7c-0.1-0.2,0.2-0.5,0-0.7
				c-0.2,0-0.5,0.2-0.7,0c-0.3-0.2,0-0.6-0.4-0.6c-0.4,0.1-0.9,0.7-1.3,0.1l0,0l0.7,0.7c0.3,0,0.2-0.4,0.5-0.3
				c0.2,0.4,1.1,0.4,0.8,1.1c-0.3,0.1-0.5,0.4-0.8,0.2c-0.2-0.2-0.1-0.6-0.3-0.8c-0.4,0-0.7,0.3-1.2,0.1c-0.2-0.3-0.1-0.6,0-0.9
				c0.8-0.1-0.1-0.7,0.4-0.9c0.3-0.1,1,0.5,1-0.2c-0.4,0-0.9,0.3-1.2-0.1c0.1-0.3-0.2-0.6-0.4-0.7c-0.4,0-0.4-0.7-0.8-0.4L43,81.9z
				 M42.8,82.6c0.4,0.3,0.3,0.9,0.6,1.3c-0.2,0.2-0.5,0.2-0.8,0.2c-0.2-0.3-0.3-0.8-0.1-1.2C42.5,82.7,42.6,82.3,42.8,82.6z
				 M41.8,81c0.2,0,0.4,0.2,0.5,0.4c-0.3,0.3,0.5,0.7,0,0.9c-0.3,0.1-0.4-0.2-0.6-0.2C41.7,81.7,41.6,81.3,41.8,81z M41.5,82.9
				c0.3-0.1,0.4-0.7,0.7-0.1C42,83,42,83.4,41.7,83.5c-0.2,0-0.4,0.2-0.6,0.1c-0.4-0.3,0.4-0.7-0.1-1c0-0.3,0.5-0.4,0.5,0
				C41.5,82.7,41.3,82.8,41.5,82.9z M41.2,80.4l0.1,0.3c0,0.1,0,0.2-0.1,0.2c-0.2,0.1-0.2-0.1-0.2-0.2
				C41.1,80.6,41.1,80.4,41.2,80.4z M41.3,81.2c0,0.2,0,0.4-0.2,0.5c-0.3-0.1-0.6-0.3-0.7-0.6c0-0.1,0-0.2,0.1-0.2
				C40.9,80.9,41.1,81,41.3,81.2z M40,78.1c0.3,0.1,0.1,0.5,0.2,0.8c-0.1,0.1-0.3,0.1-0.3,0.2c0,0.2,0.1,0.4-0.1,0.5
				c-0.2,0-0.3-0.2-0.4-0.4c-0.2-0.5,0.7-0.9,0.1-1.3c0-0.5,0.2-1.1,0.8-1.4c0.2,0.1,0.6,0,0.6,0.3C40.6,77.2,40.6,77.8,40,78.1z
				 M41.2,78.2c-0.1,0.1-0.2,0.3-0.3,0.2c-0.3-0.3,0-0.8,0.2-1C41.3,77.5,41.3,77.9,41.2,78.2z M41.5,75.4c0,0.4-0.4,0.3-0.5,0.4
				c-0.1-0.2-0.1-0.6,0.2-0.7C41.3,75.3,41.5,75.2,41.5,75.4z M41.3,74.9h-0.2c0-0.2,0-0.5,0.1-0.7c0.1,0,0.2,0.1,0.2,0.2
				C41.4,74.5,41.3,74.7,41.3,74.9z M42,71.8c-0.3,0.5-1,0.1-1.2,0.5c0.1,0.2,0.5,0.1,0.4,0.4c-0.1,0.2-0.3,0.1-0.5,0.1
				c-0.3-0.4,0-0.9,0.2-1.3c0.4-0.3,1.1-0.9,1.3-0.1c0,0.1,0.1,0.1,0.1,0.2C42.3,71.9,42.1,71.5,42,71.8z M41.9,70.8
				c0-0.4,0.2-0.6,0.5-0.8c0.2,0,0.4,0.1,0.6,0.2c-0.2,0.3,0.2,0.5,0,0.8C42.7,70.8,42.2,71.2,41.9,70.8z M42.8,72.5
				c-0.1,0-0.2-0.1-0.2-0.2c0-0.3,0.1-0.5,0.4-0.6c0.1,0,0.2-0.1,0.3,0C43.2,72,43.1,72.3,42.8,72.5z M43.2,69.4
				c-0.1-0.2,0.1-0.5,0-0.6c0,0,0,0,0,0c0,0,0,0,0,0c0,0-0.1,0-0.1,0c-0.6,0.3-0.4-0.5-0.7-0.7c0-0.4,0.6-0.1,0.6-0.5
				c0.3,0.1,0.3,0.4,0.4,0.6c0,0.2-0.2,0.3-0.2,0.6c0,0,0,0,0,0c0.4,0,0.7-0.4,1.2-0.2l0.8,0c-0.1,0.5-0.7,0.6-0.9,1.1
				C43.9,69.6,43.3,69.8,43.2,69.4z M43.7,72.7c-0.3-0.3,0.3-0.3,0.3-0.5l0.3,0.4C44.1,72.7,43.9,72.7,43.7,72.7z M45.1,72
				c-0.2,0.2-0.5,0.1-0.7,0.1c-0.2-0.2-0.1-0.4-0.1-0.7c0.3-0.1,1-1,1.1-0.2C45.4,71.6,45.1,71.7,45.1,72z M46.3,72.5
				c-0.4-0.2-0.6,0.7-1,0.3c0.1-0.5,0.5-1,1-1.1c0.1,0,0.2,0,0.2,0.1C46.5,72,46.2,72.2,46.3,72.5z M46.8,72.7
				c-0.1-0.4,0.1-0.8,0.2-1.2c0.1,0,0.2,0,0.2,0.1c0,0.2,0,0.4,0.2,0.5C47.2,72.2,47.3,73,46.8,72.7z M48,74.5
				c-0.2-0.1-0.1-0.4-0.1-0.6c0.2-0.2,0.2,0.2,0.3,0.3C48.2,74.3,48,74.4,48,74.5z M48.5,75.1c-0.1,0-0.1-0.2-0.1-0.3
				c0.1,0,0.2,0,0.1,0.1C48.5,75.1,48.5,75.1,48.5,75.1z M48.2,73.3c-0.2,0.2-0.4,0.4-0.8,0.4c-0.3-0.4,0-0.8,0.2-1.1
				c0.2-0.2,0.6-0.3,0.8-0.1C48.5,72.8,48.2,73,48.2,73.3z M48.2,72c-0.1-0.5,0.4-0.8,0.7-1c0.2-0.1,0.5-0.1,0.7,0.1
				c0.1,0.3-0.1,0.4-0.2,0.6C48.8,71.6,48.8,72.9,48.2,72z M49.3,73.6c-0.1,0.2-0.4,0.2-0.6,0.1c-0.2-0.2-0.1-0.6-0.1-0.9
				c0.4-0.1,0.7-1.1,1-0.4C49.5,72.8,49.3,73.2,49.3,73.6z M50.1,72.2c-0.2,0-0.5-0.1-0.5-0.3c0-0.2,0.2-0.4,0.3-0.6
				c0.1,0,0.2,0,0.3,0.1C50.2,71.7,50,71.9,50.1,72.2z M50.4,69.8c-0.1,0-0.2,0-0.2,0.1c0,0.5,1,0.9,0.2,1.2c-0.4,0-0.6-0.3-0.9-0.5
				c-0.1-0.6,0.6-0.9,0.9-1.3c-0.8-0.3,0-0.7,0.1-1.1c0.2-0.1,0.3,0.2,0.4,0.3c0.1,0.4-0.4,0.2-0.4,0.6
				C50.6,69.2,50.8,69.7,50.4,69.8z M52,71.1c-0.3,0.2-0.7,0.4-1.1,0.2c-0.1-0.2,0.2-0.4,0.3-0.5c0.2-0.2,0.5,0,0.7,0
				C52.1,70.9,52,71.1,52,71.1z M51.7,72.1c-0.2,0.2-0.5,0.4-0.8,0.3c-0.2-0.2,0.1-0.3,0.1-0.5l0.5-0.4
				C51.7,71.7,51.8,71.9,51.7,72.1z M51.5,70.4L51,70.3c-0.1-0.3,0.3-0.4,0.5-0.6c0.2,0,0.3,0.1,0.3,0.2
				C51.9,70.2,51.6,70.3,51.5,70.4z M51.1,73.5l-0.2-0.1c0.1-0.3,0.2-0.9,0.7-0.9c0.2,0,0.4,0,0.5,0.1
				C52.1,73.5,51.2,72.9,51.1,73.5z M52.4,71.8c-0.1,0-0.3,0-0.3-0.1c0-0.2,0.1-0.5,0.3-0.5c0.1,0,0.2,0,0.2,0.1
				C52.6,71.5,52.6,71.7,52.4,71.8z M52.8,70.7c-0.2,0.1-0.5,0-0.7-0.1c0-0.3,0.4-0.2,0.6-0.4C52.8,70.3,52.8,70.5,52.8,70.7z
				 M53.2,72.3c-0.1,0-0.2-0.1-0.3-0.2c-0.1-0.2,0.1-0.4,0.2-0.4c0.2,0,0.3,0.2,0.4,0.3C53.5,72.2,53.3,72.2,53.2,72.3z M53.1,71
				c0.2-0.2,0.6,0,0.7-0.3c-0.1-0.1-0.4,0-0.6-0.1c-0.1-0.2,0-0.4,0.1-0.6c0.3,0,0.5,0,0.6,0.3l0.1,1.1c-0.1-0.1-0.3-0.2-0.4,0
				c-0.1,0.1-0.2,0.1-0.4,0.1C53,71.4,53,71.2,53.1,71z M52.2,69.2c0.3,0,0.6,0.3,0.8,0.6c-0.2,0.2-0.6,0.2-0.9,0.1
				c-0.1-0.1-0.2-0.1-0.3-0.2C51.9,69.5,52.1,69.3,52.2,69.2z M51.4,68.9c0.2,0.1,0.7-0.4,0.7,0.1l0,0.1c-0.3,0.1-0.6,0.5-0.9,0.2
				C51,69.1,51.2,68.9,51.4,68.9z M52,67.4L52,67.4c-0.1-0.1-0.1-0.3,0.1-0.4c0.1,0,0.1,0.1,0.1,0.1C52.2,67.3,52.1,67.3,52,67.4z
				 M53,66.4h-0.5c-0.1-0.1,0-0.3,0.1-0.4c0.2,0.1,0.5,0,0.7,0.2C53.3,66.3,53.1,66.4,53,66.4z M53.6,65.2c0.1,0,0.2,0,0.2,0.1
				c0,0.1,0,0.2-0.1,0.2l-0.3,0C53.3,65.3,53.5,65.2,53.6,65.2z M51.9,64.4c-0.2-0.1-0.4-0.3-0.3-0.6l0.2-0.3c0.3,0.4,1,0,1,0.7
				c0.1,0.1,0.4-0.1,0.3,0.2c-0.2-0.1-0.6,0-0.9,0.1c0.4,0,0.3,0.4,0.3,0.7c-0.1,0.3-0.4-0.1-0.5,0.2c-0.1-0.2-0.6-0.3-0.6-0.6
				C51.7,64.7,52,64.6,51.9,64.4z M52,65.5c0,0.6,0.2,1.4-0.6,1.6c-0.1,0.1,0,0.3,0,0.5c-0.2,0.1-0.6,0.2-0.8,0.1
				c-0.3-0.1-0.2-0.5-0.1-0.8c0.3-0.4,1.4-0.1,1.1-0.9C51.4,65.7,51.7,65.5,52,65.5z M51.1,63.9c0.2-0.1,0.2,0.2,0.3,0.3
				c-0.3,0.5,0.1,1.5-0.7,1.6c-0.2,0-0.3,0.1-0.5,0.1c-0.2-0.2-0.6-0.3-0.4-0.7c0.3-0.2,0.5-0.5,0.9-0.5c0.2-0.1,0-0.2,0-0.3
				C50.8,64.2,51.1,64.1,51.1,63.9z M50.1,63.7L50.1,63.7l0.1,0.5c-0.1,0-0.2,0-0.2-0.1C50,63.9,50,63.8,50.1,63.7z M51,37.6
				c-0.3,0-0.4-0.4-0.7-0.4c0-0.2,0.3-0.3,0.4-0.1c0.1,0.1,0.3,0.2,0.4,0.4C51.1,37.5,51.1,37.6,51,37.6z M51,34.7
				c-0.3,0.1,0,0.6-0.4,0.7c-0.2,0-0.4,0.1-0.4,0.3c0,0,0,0,0,0.1c-0.2,0-0.3,0.2-0.4,0.1c-0.1-0.3-0.6-0.7-0.2-1c0,0,0,0,0.1,0
				c0.1,0,0.1-0.1,0.1-0.2c-0.5,0-0.2-0.5-0.1-0.7l0.1-0.2c0.1,0,0.2,0.2,0.3,0.2c0.2-0.1,0-0.3,0-0.5c0.3,0.2,0.5-0.1,0.7-0.3v-0.1
				c0.1,0,0.2,0,0.3,0.1c0.1,0.3-0.2,0.4-0.4,0.5c-0.1,0.2,0.2,0.4,0.1,0.6c-0.2-0.2-0.5-0.2-0.7,0l-0.1,0.1
				c0.3,0.3,0.6,0.4,1.1,0.3c0.2-0.3,0.6-0.1,0.9,0C51.4,34.7,51.2,35.1,51,34.7z M51.6,36.8c-0.1,0-0.2,0-0.3-0.1
				c0.1-0.2,0.3-0.5,0.6-0.3C51.9,36.6,51.8,36.8,51.6,36.8z M51.6,35.7c0-0.2,0.1-0.3,0.2-0.4l0.1,0.4H51.6z M52.7,34.8
				c-0.1,0.1-0.2,0.1-0.3,0.1c-0.3-0.4-0.7-0.9-0.4-1.4c-0.4-0.1,0.1-0.6-0.1-1c-0.1-0.1-0.3-0.2-0.2-0.4c0.1,0,0.1-0.1,0.2,0
				c0.1,0.1,0.2,0.3,0.2,0.5c0.3,0.3,0.4,0.7,0.4,1.1C52.6,33.9,52.7,34.3,52.7,34.8z M52.8,35.6L52.8,35.6l-0.1-0.2
				c0.1,0,0.2,0,0.1,0.1C52.9,35.5,52.9,35.6,52.8,35.6z M53.2,30l0-0.2c0.1,0.1,0.3,0,0.4,0.2L53.2,30z M55.5,25.2L55.5,25.2l0-0.2
				h0V25.2z"/>
		</g>
		<g>
			<path d="M37.4,18c0,0.2-0.1,0.3-0.2,0.4c-0.2,0.1-0.2-0.2-0.2-0.2C36.9,17.9,37.2,17.9,37.4,18z"/>
			<path d="M48.1,42.5c0,0.3-0.4,0.2-0.4,0.5c-0.1,0-0.1-0.1-0.2-0.2c-0.1-0.3,0.2-0.4,0.4-0.5C47.9,42.3,48,42.4,48.1,42.5z"/>
			<path d="M32.9,43.4L32.9,43.4l-0.2,0.1v-0.2C32.8,43.3,32.8,43.4,32.9,43.4z"/>
			<path d="M44.7,44.1L44.7,44.1c-0.2,0.1-0.2,0-0.2-0.1C44.5,44,44.6,44.1,44.7,44.1z"/>
			<path d="M38.8,46.5h-0.2l0.1-0.1C38.8,46.4,38.9,46.4,38.8,46.5z"/>
			<path d="M40.5,46.9C40.5,46.9,40.5,46.9,40.5,46.9c-0.1,0.1-0.2,0-0.2,0C40.4,46.8,40.5,46.8,40.5,46.9z"/>
			<path d="M38.1,47.2c0,0.1-0.1,0-0.1,0l-0.1-0.1C38,47.2,38.1,47.1,38.1,47.2z"/>
			<path d="M37,47.6l-0.1,0l0.3-0.2C37.2,47.5,37.1,47.5,37,47.6z"/>
			<path d="M75.9,47.7C75.9,47.7,75.9,47.8,75.9,47.7c-0.2,0.1-0.1,0-0.2-0.1C75.8,47.6,75.8,47.6,75.9,47.7z"/>
			<path d="M77.1,48.1c0.1,0.2,0.7,0.2,0.3,0.5c0,0.1-0.1,0-0.1,0c0-0.5-0.6,0-0.7-0.4C76.7,48,77,47.5,77.1,48.1z"/>
			<path d="M75.7,48C75.7,48.1,75.6,48.1,75.7,48L75.7,48C75.6,48,75.6,48,75.7,48z"/>
			<path d="M73.1,48.9c0.1,0.3-0.3,0.1-0.3,0.2C72.9,49,73,48.8,73.1,48.9z"/>
			<path d="M67.6,49.4c0,0.2-0.2,0.3-0.3,0.4c0,0.3,0,0.6,0.3,0.8c0.3,0,0.7,0,0.9,0.3c-0.5,0-0.9-0.2-1.4-0.1c0-0.4,0-1,0.3-1.4
				C67.5,49.3,67.6,49.3,67.6,49.4z"/>
			<path d="M73.9,49.6c-0.3,0.1-0.4-0.3-0.7-0.3l0-0.1C73.4,49.4,74.1,49.1,73.9,49.6z"/>
			<path d="M66.3,50.5c-0.1,0.6-0.5,1-0.9,1.4c-0.4,0-0.8,0.1-1.2,0.2c0.1-0.2,0.5-0.1,0.6-0.4c-0.1-0.1-0.3-0.3-0.2-0.4
				c0.3-0.1,0.2,0.4,0.5,0.3c0.4-0.3,0.9-0.6,0.8-1.1C66.1,50.3,66.2,50.4,66.3,50.5z"/>
			<path d="M69.7,50.6c0,0.1-0.1,0.1-0.1,0.1c-0.1,0-0.1,0-0.2-0.1l0.1-0.2C69.6,50.5,69.7,50.5,69.7,50.6z"/>
			<path d="M42.9,51.2c-0.1,0-0.2-0.2-0.1-0.2l0.1,0L42.9,51.2z"/>
			<path d="M38.5,51.4c0,0.2-0.2,0.1-0.3,0.2v-0.2C38.3,51.4,38.4,51.4,38.5,51.4z"/>
			<path d="M43.9,51.7h-0.1v-0.1C43.8,51.6,43.8,51.6,43.9,51.7z"/>
			<path d="M66.4,52L66.4,52c-0.1,0.1-0.2,0.2-0.3,0C66.1,51.9,66.4,51.8,66.4,52z"/>
			<path d="M70.5,52c0,0.1-0.1,0.1-0.1,0.1L70.5,52L70.5,52z"/>
			<path d="M63.6,53.1c0.5,0.1,1.1-0.3,1.4,0.2v0.1c-0.6,0.1-1.2-0.4-1.9-0.1c-0.5,0.1-1.1,0-1.4,0.5v0.5c-0.5-0.1-0.4-0.7-0.6-1.1
				c0.7-0.5,2.1,0.6,2.3-0.7l0.2-0.2C63.6,52.6,63.2,52.9,63.6,53.1z"/>
			<path d="M37.3,53.7L37.3,53.7l-0.2,0l0-0.2C37.2,53.5,37.3,53.6,37.3,53.7z"/>
			<path d="M67,54.2c0.1,0.1,0,0.3,0,0.4c-0.1,0.1-0.2,0-0.3,0l-0.3-0.3C66.6,54.3,66.8,54.2,67,54.2z"/>
			<path d="M62.1,54.5c0,0-0.1,0.1-0.1,0.1C61.9,54.5,62,54.4,62.1,54.5z"/>
			<path d="M60.5,54.8c-0.1,0.2-0.4,0.4-0.2,0.6c0.3,0.3,0.6,0.4,1,0.6c-0.5,0.1-0.9-0.3-1.3-0.1c-0.1-0.1-0.3-0.1-0.5-0.1
				c0,0,0-0.1,0-0.1c0.1,0,0.2,0,0.3-0.1c0-0.3-0.2-0.6,0-0.9L60.5,54.8z"/>
			<path d="M64.2,55.1L64.2,55.1l-0.1-0.1C64.1,55,64.2,55,64.2,55.1z"/>
			<path d="M53.9,55.6L53.9,55.6c-0.1,0.1-0.1,0-0.1,0C53.8,55.5,53.9,55.5,53.9,55.6z"/>
			<path d="M62,56L62,56c-0.2,0-0.3-0.2-0.1-0.3C61.9,55.7,62,55.8,62,56z"/>
			<path d="M63.3,56.5c-0.1,0.2-0.2,0.8-0.5,0.6c0-0.3-0.2-0.6,0.1-0.8C63,56.4,63.2,56.4,63.3,56.5z"/>
			<path d="M57.8,57c0.1,0.2,0.4,0.4,0.6,0.3c0.3-0.1,0.5-0.3,0.9-0.2c0.1,0.3,0.3,0,0.4-0.1c0.1,0.2,0.3,0.4,0.5,0.4
				c0.4,0,0.8-0.6,1.1-0.3l0.2,0c0.1,0.1,0,0.3,0,0.4c-0.3,0.1-0.8-0.1-0.9,0.2c-0.1-0.2-0.4-0.4-0.6-0.3c-0.2,0.3,0.4,0.8-0.1,0.9
				c-0.4,0-0.5-0.8-1-0.6c-0.2,0.2-0.4,0.5-0.7,0.5c-0.2-0.5,1.1-0.6,0.4-1.1c-1,0.1-2.2,0-2.6,1.1c-0.3,0.1-0.4-0.2-0.5-0.4
				c0.1-0.2-0.3-0.4,0-0.7c0.2,0.5,0.5-0.2,0.8,0.1c0.1-0.3,1.2-0.1,0.7-0.7c-0.2-0.1-0.5,0.3-0.6-0.1c0.5,0,0.9-0.1,1.3-0.2
				C57.8,56.6,57.7,56.8,57.8,57z"/>
			<polygon points="35.6,57.7 35.6,57.5 35.6,57.6 			"/>
			<path d="M55.1,58.4c-0.1,0-0.1-0.1-0.1,0v-0.2h0.1V58.4z"/>
			<path d="M56.8,58.6L56.8,58.6c-0.1,0.1-0.2,0-0.1-0.1C56.8,58.4,56.8,58.5,56.8,58.6z"/>
			<path d="M55.6,60.7v0.1c0,0-0.1,0-0.1,0L55.6,60.7C55.6,60.7,55.6,60.7,55.6,60.7z"/>
			<path d="M18.2,62.6c0,0,0,0.1,0,0.1h-0.1L18.2,62.6C18.1,62.5,18.2,62.5,18.2,62.6z"/>
			<path d="M16.7,63.7L16.7,63.7C16.7,63.8,16.6,63.7,16.7,63.7C16.7,63.6,16.7,63.7,16.7,63.7z"/>
			<path d="M14.9,65.4c-0.2,0-0.4-0.1-0.6-0.2l0.1-0.2C14.6,65,14.7,65.2,14.9,65.4z"/>
			<path d="M16,65.8v0.1c-0.2,0.1-0.4,0-0.5-0.1c0-0.1,0-0.2,0.1-0.2C15.7,65.6,15.9,65.7,16,65.8z"/>
			<path d="M16.9,66.1c0.1,0.2-0.1,0.1-0.2,0.2l-0.2-0.1C16.5,65.9,16.9,65.9,16.9,66.1z"/>
			<path d="M21.7,67.3L21.7,67.3c-0.1,0.1-0.2,0-0.2,0v-0.2C21.6,67,21.6,67.2,21.7,67.3z"/>
			<path d="M53.3,67.2L53.3,67.2l-0.2,0v-0.1C53.2,67.1,53.3,67.1,53.3,67.2z"/>
			<rect x="18.9" y="67.9" width="0.1" height="0.2"/>
			<path d="M60.5,69.2c0.3,0.6,0.9,1.1,0.9,1.8c0.3,0.6,1.3,0.6,1.1,1.3c-0.4,0-0.7-0.6-1.1-0.2c-0.2,0-0.6,0-0.8-0.2
				c-0.6-0.8,0.6-1.4-0.1-2.2C60.5,69.7,60.3,69.4,60.5,69.2L60.5,69.2z"/>
			<path d="M18.4,69.9c0,0.2-0.2,0-0.3,0.1l-0.9-0.2C17.5,69.6,18,70,18.4,69.9z"/>
			<path d="M21.4,69.9c-0.1,0.1-0.4,0-0.4-0.1C21.1,69.7,21.3,69.8,21.4,69.9z"/>
			<path d="M19,70c0,0.1,0,0.1,0,0.1C18.9,70.2,18.8,70.1,19,70C18.9,70,18.9,70,19,70z"/>
			<path d="M28.5,70.9c0.2,0.1,0.3-0.3,0.5-0.3c0.4,0,0.9-0.2,1.1,0.2v0.1c-0.3,0.1-0.8-0.6-1,0c-0.1,0.3,0.5,0.6-0.1,0.6
				c-0.2-0.2-0.1-0.5-0.4-0.6c-0.3,0.3-0.6,0-0.9,0c-0.1-0.1-0.2-0.3-0.1-0.5C27.9,70.5,28.4,70.5,28.5,70.9z"/>
			<path d="M24.8,70.5c-0.2,0.2,0.2,0.6-0.2,0.6c0-0.2-0.2-0.4,0-0.6C24.6,70.6,24.7,70.6,24.8,70.5z"/>
			<path d="M57.2,71.1c0,0.1-0.1,0.1-0.1,0.2h-0.2C56.9,71.1,57.1,71,57.2,71.1z"/>
			<path d="M30.8,71.4h-0.3v-0.2C30.6,71.2,30.8,71.3,30.8,71.4z"/>
			<path d="M32,72c0,0.1-0.1,0.1-0.2,0.1C31.9,72,32,72,32,72z"/>
			<path d="M32.9,72c0.1,0.1-0.1,0.2-0.1,0.2h0C32.7,72.1,32.8,71.9,32.9,72z"/>
			<path d="M64.9,72.1c0,0.3-0.3,0.3-0.4,0.4c0-0.2,0-0.4,0.2-0.5C64.8,72.1,64.9,72.1,64.9,72.1z"/>
			<path d="M63.5,72.4l0.2-0.2v0.5c-0.3,0-0.6,0.2-0.9,0c0-0.2,0.1-0.4,0.3-0.5C63.3,72.2,63.4,72.3,63.5,72.4z"/>
			<path d="M64.1,72.9h-0.2C64,72.8,64.1,72.8,64.1,72.9L64.1,72.9z"/>
			<path d="M44,73.6c0.1,0.3-0.5,0.9,0.2,1c0.3,0.2,0.2-0.3,0.5-0.3c0.2,0.3,0.1,0.6,0.1,1c-0.2-0.2-0.2-0.7-0.7-0.6
				c-0.1-0.3-0.5,0-0.6-0.4C43.5,74.1,43.6,73.6,44,73.6z"/>
			<path d="M44.9,74l-0.2,0.1C44.6,74,44.9,73.7,44.9,74z"/>
			<path d="M43.1,74.6c-0.3,0.1-0.6,0.1-0.8,0.3c-0.1-0.1-0.3-0.3-0.2-0.5l0.2-0.2C42.5,74.6,42.8,74.6,43.1,74.6z"/>
			<path d="M42,76.3c-0.1,0-0.2-0.1-0.1-0.2c0-0.1,0.1,0,0.1,0V76.3z"/>
			<path d="M45.7,77.7c0,0.1,0.2,0.1,0.2,0.2c-0.2,0.1-0.6-0.2-0.8,0.1c-0.1,0-0.1-0.4,0-0.5l0.4-0.3C45.6,77.3,45.6,77.5,45.7,77.7
				z"/>
			<path d="M52.6,77.4c0,0.1-0.2,0.2-0.3,0.2c-0.1-0.1,0-0.2,0.1-0.3C52.5,77.3,52.6,77.3,52.6,77.4z"/>
			<path d="M43.4,77.8c0.1-0.1,0.1-0.3,0.3-0.3c0,0.3,0,0.7,0.3,0.9c0.7-0.4,0.6,0.5,0.9,0.8c-0.4,0.3-0.7-0.4-1.1-0.5
				c0-0.2-0.1-0.3-0.2-0.4c-0.4-0.1-0.9,0.2-1.1-0.3l-0.2,0c0.1-0.2,0-0.4,0.2-0.5C42.8,77.6,43,78,43.4,77.8z"/>
			<path d="M54.5,78.5L54.5,78.5c-0.1,0.1-0.2,0.1-0.4,0.1v-0.1C54.3,78.6,54.4,78.5,54.5,78.5z"/>
			<path d="M46.2,78.8c-0.1,0.3,0,0.7-0.2,0.8c-0.1-0.4-0.4-0.6,0-1C46.1,78.5,46.2,78.6,46.2,78.8z"/>
			<path d="M56.3,79.6c0,0-0.1,0.1-0.2,0.1c-0.2-0.2-0.1-0.6-0.4-0.7c0-0.1,0.1-0.1,0.2-0.1C56,79.1,56.1,79.4,56.3,79.6z"/>
			<path d="M47,79.8c-0.2,0.4,0.2,0.7,0.2,1l-0.1,0.7h-0.1C47.4,80.8,46,80.3,47,79.8z"/>
			<path d="M56.3,80.5l0.4-0.4c0.2,0.2,0.3,0.4,0.3,0.6c-0.3-0.1-0.6-0.5-0.8-0.1c-0.4,0-0.5-0.5-0.8-0.6c0.1-0.2,0.3,0.1,0.4,0.1
				C55.9,80.3,56.1,80.6,56.3,80.5z"/>
			<path d="M55.7,81C55.7,81,55.6,81,55.7,81l-0.1-0.2C55.7,80.9,55.7,80.9,55.7,81z"/>
			<path d="M62.3,82.9c0.1,0,0.1,0.1,0.1,0.2c-0.3,0.2-0.8,0.2-1.1,0.4c-0.2,0-0.5-0.2-0.7,0c-0.1-0.1-0.1-0.3,0-0.4
				c0.1-0.3,0.4,0,0.5-0.2c0.3-0.1,0.6-0.5,0.9-0.2C62.1,82.8,62.2,82.8,62.3,82.9z"/>
			<path d="M50.3,84c-0.4,0.1-0.8,0.5-1.1,0.1h-0.1l0.1-0.4c0.2,0.1,0.4,0.5,0.7,0.3c0.2-0.1,0.2-0.4,0.1-0.5L49.3,83
				c0.2,0,0.3,0,0.4-0.1C50,83.2,49.9,83.7,50.3,84z"/>
			<path d="M59,83.9C59,84,58.9,84.1,58.8,84c-0.1-0.1-0.2-0.1-0.1-0.2C58.8,83.7,59.2,83.7,59,83.9z"/>
			<path d="M64.2,84c-0.1,0.1-0.2,0.1-0.3,0.1c-0.1-0.1-0.1-0.1-0.1-0.2C63.9,83.8,64.1,83.9,64.2,84z"/>
			<path d="M63.3,84.1c0,0.1,0,0.2-0.1,0.2c0,0-0.1,0-0.1,0C63,84.2,63.2,84.1,63.3,84.1z"/>
			<path d="M58.5,84.6c0,0.1-0.1,0.1-0.1,0.1c-0.1,0-0.1-0.1-0.2-0.1C58.2,84.4,58.5,84.4,58.5,84.6z"/>
			<path d="M50.3,85L50.3,85l-0.1-0.2C50.2,84.8,50.3,84.9,50.3,85z"/>
			<path d="M58,85.1c-0.1,0.7-1.7,0.9-0.9,1.8c-0.1,0.1-0.3,0.1-0.4,0.3c-0.1,0.2,0.1,0.3,0.2,0.3c0.1-0.1,0.4-0.4,0.6-0.6
				c0-0.2,0.4-0.1,0.6-0.3c0.6-0.6,1.6-0.4,2.4-0.6c0.3,0.1,0.2,0.4,0.2,0.6c-1.5-0.4-2.8,0.3-3.7,1.4l0,0.5c-0.2,0-0.5,0.1-0.6-0.1
				c-0.7,0.3-0.4,1.3-1.3,1.4c-0.1-0.2-0.3-0.2-0.4-0.1c-0.2,0.5-0.6,0.8-0.6,1.4c-0.1,0-0.2,0.1-0.3,0c-0.2-0.5-0.4-1.2,0-1.7
				c0.1-0.4-0.2-1,0.3-1.1c0.3-0.4,0.1-1.1,0.6-1.4c0.1-0.3,0-0.7,0.4-0.9c0.1,0.5-0.3,1.1,0.2,1.5c0.6,0,0.8-0.8,1.2-1
				c0.2-0.2,0.1-0.7,0.5-0.6c-0.1-0.6,0.9-0.4,0.5-1C57.7,84.8,57.8,85.1,58,85.1z"/>
			<path d="M71.8,89.3c0,0.4-0.5,0.1-0.6,0.3c-0.2,0-0.6,0-0.8-0.1c0.1-0.2,0.3-0.2,0.4-0.3C71.1,89.1,71.4,89.4,71.8,89.3z"/>
			<path d="M67.3,86.3C67.4,86.3,67.4,86.4,67.3,86.3c-0.3,0.3-0.7,0.1-1,0c0-0.2,0.3-0.2,0.4-0.1C66.9,86.4,67.1,86.4,67.3,86.3z"
				/>
			<path d="M73.3,90.1c0.6-0.1,1.1,0.2,1.6,0c0.1,0.1,0.1,0.1,0.1,0.2c-0.6,0.2-1.2,0.3-1.7,0c-0.4-0.1-0.8-0.1-1.1-0.5
				C72.6,89.4,73,90,73.3,90.1z"/>
			<path enable-background="new    " d="M75,86.5l-0.9,0.2l-0.5,0.1c-0.5,0.7-1.1,0-1.7,0.6c-0.4,0.2-1.2-0.2-1.2,0.6
				c-0.1,0.2-0.3,0.5-0.6,0.4c-0.5,0-0.3,0.4-0.2,0.7c0,0.2-0.3,0.3-0.5,0.3c-0.2-0.1-0.2-0.3-0.3-0.5L68.8,89c0,0.1-0.1,0.2,0,0.3
				c0.1,0.2,0.1,0.5-0.2,0.6c0-0.1-0.1-0.1-0.2-0.2c-0.2-0.1-0.4,0-0.5,0c-0.2,0-0.1,0.2,0,0.3c-0.5,0.1-1,0-1.4,0.3
				c-0.2-0.2-0.7-0.1-0.9,0c-0.3-0.1-0.5,0-0.6-0.3c0.3-0.4,1.2-0.2,1.5-0.5c0.6-0.6,0.3-2.1,1.7-1.7c0.4-0.3-0.2-1.2,0.6-1.2
				c0.4-0.1,0.4,0.1,0.5,0.3l0.6-0.2c-0.1-0.3,0-0.5,0.2-0.7c0.8-0.5,1.2-1.3,1.8-2c0.3,0.2,0.3-0.4,0.5-0.5c0.1-0.1,0.3,0,0.4,0.1
				c0.2-0.2,0.5-0.4,0.7-0.1c0.4,0,0-0.5,0.3-0.6c0.3-0.1,0.5,0.2,0.7,0.3c0,0-0.6,0.7-0.8,0.8c0,0-0.1,0-0.1,0
				c-0.2,0.1-0.5,0.1-0.7,0.2c0,0,0,0,0,0s0,0,0,0c-0.1,0-0.2,0.1-0.3,0.2c-0.1,0-0.1,0.1-0.1,0.1c-0.2,0.1-1.2,1.1-1.2,1.1l0.2,0.3
				c-0.2,0.2-0.2,0.5-0.1,0.8l0.3-0.1c0.2-0.1,0.6-0.1,0.7,0.1c0.2,0,0.4-0.1,0.5-0.2c0.4-0.4,0.9,0.3,1.2-0.3
				c0.4-0.2,1-0.1,1.2-0.5c0.1,0.2,0.3,0.4,0.6,0.3c0.3-0.2,0.2-0.4,0.4-0.6c0.2,0.2,0.2,0.3,0.4,0.3c0.3,0.1,0,0.2-0.1,0.4
				C76.2,87.1,75.6,86.5,75,86.5z"/>
		</g>
	</g>
</g>
</svg>
