<?xml version="1.0" encoding="utf-8"?>
<!-- Generator: Adobe Illustrator 18.1.1, SVG Export Plug-In . SVG Version: 6.00 Build 0)  -->
<!DOCTYPE svg PUBLIC "-//W3C//DTD SVG 1.1//EN" "http://www.w3.org/Graphics/SVG/1.1/DTD/svg11.dtd">
<svg version="1.1" xmlns="http://www.w3.org/2000/svg" xmlns:xlink="http://www.w3.org/1999/xlink" x="0px" y="0px"
	 viewBox="0 0 100 100" enable-background="new 0 0 100 100" xml:space="preserve">

	 
<g id="AREA_1">
	<g>
		<g>
			<path d="M54,38.6c-0.8-1.9-2.8-1.7-4.3-2.4c1.8-1.9,4.7-1.9,7.3-1.9c-0.5-0.5-1-0.8-1.6-1.2c-1.7-1-3.5-1-5.1-0.1
				c-2,2.3-4.6,3.2-7.3,3.5c1.2,0.5,2.5,0.7,3.8,0.5c-1.3,1.7-3.8,1.3-4.8,3.5c2.3-0.3,4.4-1,6.4-2.1C50.2,37.7,52.3,38.3,54,38.6z"
				/>
			<path d="M55.2,50.5c-2.4-0.2-4.2,1.8-5.2,3.7c-1.2,1.4-3.1,0.8-4.5,0.4c2.2,1,4.2,2.9,6.9,2.5c1.7-0.3,3.4-1.7,3.7-3.5
				c-0.8,0.8-1.6,1.5-2.5,2.1c-0.9,0.5-2.2,0.5-3-0.2c0.1-0.7,1-1,1.4-1.5c1.1-1.1,2.6-1.5,4-2c0.5-0.3,1.3-0.5,1.3-1.1
				C56.7,50.5,56,50.4,55.2,50.5z"/>
			<path d="M77.2,21.4c1.4-1.2,2.6-2.8,4-4.1l0.1-0.2c-1.3,0.3-2.4,0.4-3.6,0.9C76.4,18.7,77,20.3,77.2,21.4z"/>
			<path d="M52.1,25.4c0.9-0.9,2.4-0.7,3.5-0.4c0.5,0.2,1.1,0.4,1.7,0.5c-0.4-0.6-0.9-1.2-1.5-1.8c-0.7-0.6-1.7-0.4-2.5-0.4
				c1.5-1.5,3.1-2.7,4.9-3.6c-3-0.6-5.5,0.7-7.3,3.1c-1.2,0.7-2.7,0.3-3.9,0.3c0.9,0.4,1.9,0.7,3.1,0.7c-1.3,1.1-2.7,2.4-4,3.6
				C48.4,27.4,50.4,26.6,52.1,25.4z"/>
			<path d="M38.6,31.9c-1,0.2-2-0.2-2.6-0.9c0.4-0.3,0.7-0.9,1.2-1.2c1.7-0.7,3.6-0.9,5.2-1.8c0-0.1,0.1-0.3-0.1-0.4
				C40,26.9,37.1,27,35.6,29c-1.2,2-3.1,3.9-5.5,4.2c1.2,0.6,2.9,0.2,4.1-0.2c2-0.6,3.3,1,5.2,0.8c1.9-0.4,3.1-2.4,3.8-4
				C41.7,30.6,40.2,31.5,38.6,31.9z"/>
		</g>
		<path d="M95,16.8c-5.2-3.1-13-1.8-18.3-2.1l-1.7-0.2c-3-0.2-5.9-0.8-8.9-1.2c-3.2-0.2-5.8,0.3-8.5,1c-4.8,0.8-7.9,5.6-12.9,5.9
			c-3-0.5-6.5-0.1-8.8,2.1c-4.3,2.4-7.2,7.5-11.9,9c-4.8,1-8.9,4-11.7,8.3c-2.6,3.5-6.4,5-9.7,7c4.8,0.3,8.7-1.7,13.2-1.8
			c-2.1,3.6-5.3,6.8-8.4,9.3c0.4,0.1,0.8,0.2,1.3,0.1c2.6-0.2,4.5,1.4,7,1.1c3.6-1.1,6.7-3.3,9.6-6.1c1.5-1.1,3.6-0.9,5.4-0.8
			c-1.7,1.5-3.6,2.9-5.3,4.2c0.7,0.1,1.2,0.2,1.9,0.3c0,0.1-0.1,0.1-0.1,0.2c-3.7,1.4-6.4,5.1-10.9,4.4c1,0.7,2.1,1.3,3.3,1.6
			c4.6,0.9,7-3.7,10.8-4.9c1.3-0.3,2.4,0.3,3.2,1.2c-2,0.5-3.8,1.6-5.4,2.9c-1.9,1.6-4.6,1.4-6.4,3.2c2.2,0.3,4.3,0.8,6,2.2
			c1.1,0.8,2.5,1.1,3.7,1.5c-1.6,0.6-3.2,1-4.9,1.4c-2.5,0.4-4.5,2.4-6.4,4.4c0.6-0.3,1.2-0.4,1.8-0.7c5.6-2.1,9.6,2.9,15,2.8
			c1.7,0.3,3-0.8,4.5-0.8c-1.4,1.3-1.7,3.1-1.4,5c0.6,2.3,0.3,5-0.3,7.2c1.7-3.1,4.1-6.5,7.2-8.5h0.2c-2.4,3.1,0.4,6.4,0.9,9.5
			l1.4-3.2c1.5-2.7,1-6.3,3.6-8.5c0.5-0.3,1-0.7,1.4-0.8l1.5,6.8c-0.1-2.5-0.3-5.6,0.4-8.3c1.7-6.1,3.7-12.4,8.3-17.2
			c3.5-3.1,8.4-5,10.3-9.7c4.7-1.2,8.7,1,12.7,2.4c1.1,0.4,2.2,0.9,3.3,1.2c-0.1-1.8,0-3.9-0.8-5.6c-2.4-3.9-6.7-5.3-11.1-5.4
			c-0.2-0.3,0.1-0.6,0.2-0.9c1.2-4.6,5.5-9,10.2-10.3c3.1,1.1,3.4,4.6,4.9,7c1.5-2,2.7-4.1,3.1-6.5C97.8,22.7,97.8,18.9,95,16.8z
			 M71.1,44c-2.3,2-6.3,0.5-8,3.6c-0.9,1.2-2.2,2.2-3.3,3.2c0.7-0.2,1.4-0.6,2.1-1c2.5-1.8,5.1-3.1,8.2-3.5l0.9,0.1v0.1
			c-1.7,0.9-3.1,2.4-4.6,3.7c-1.5,0.9-3.3,1.3-4.5,2.9c-1.7,2-3.2,4.1-4.7,6.1c-1.1,2.7-0.9,5.9-3,8.2c-1.2,1.5-2.7,2.8-4.1,4
			c0.3-0.6,0.6-1.5,1-2.1c0.6-2.1,0.5-4.5-0.1-6.5c-1.1,2.9-2.5,5.7-4.4,8.2L44,74c-0.4-1.1-0.8-2.9,0.2-3.8
			c1.8-1.5,3.4-3.3,4.7-5.3c-1.1-0.4-2.8-0.6-3.8,0.2c-2.1,1.4-3.2,4.2-5.6,4.9c-2.9,1-6.4,0.4-8.5-1.8V68c3.1-1.6,6.9-3.2,10.5-1.7
			c-0.1-1-0.5-2.3-1.6-2.7c-1.2-0.4-2.4-0.2-3.6,0.1c1.2-1.4,2.8-2.9,4.1-4.4c0.1-0.3,0.8-0.6,0.7-0.9h-0.2c-2,0.9-3.9,2.2-5.7,3.7
			c-1.4,0.8-3.3,1-4.7,0.1c-0.7-0.4-1.3-0.9-1.8-1.4c3.7-2,7.3-4.2,12-3.6l0.1-0.1c-0.5-1-1.2-2.3-2.4-2.6c-1.3-0.2-2.8,0.2-3.7-0.8
			c-0.3-0.9-0.4-2.1-1.5-2.4c-0.6-0.2-1.2-0.2-1.9-0.3c2.4-1.4,5.6-3,8.4-1.4c0.6,0.3,1.3,0.5,1.9,0.9c-0.2-1.4-0.6-3.1-2.1-3.9
			c-1.1-0.6-2.5-0.6-3.9-0.6c0.4-0.5,1.2-1,2.1-1.1c2.5-0.2,4.6,0.7,6.7,1.6c-0.1-1.3-0.4-2.7-1.7-3.5c-3.9-2.5-7.9,0.6-11.1,2.8
			c-1,0.4-1.9,0.8-3.1,0.6c0.2-0.4,0.6-0.5,0.9-0.8c1.2-1.1,1.9-2.6,2.8-4h-0.2c-2.3,1.7-4.4,4.2-7.2,4.7l-4.6,0.1
			c-1,0.3-1.6,1.3-1.8,2.2c1.1-0.3,2.2-0.9,3.5-0.5c-1.4,1.7-3.4,2.4-5.5,2.1c0,0.4,0.3,0.8,0.1,1.2c-0.4,0.5-1,0.5-1.5,0.8
			c-0.1-0.1-0.1-0.2,0-0.4c0.3-3.3,4.2-4.9,5.7-7.5c1.4-1.2,3-1.9,4.5-2.8c-1-0.1-2.1-0.1-3.1-0.1c2.5-2.6,5.7-4.8,7.9-7.2v-0.1
			h-0.4c-3.5,1.7-6.2,5.3-10.1,6.2c-2.3,0.6-4.7,1-6.8,2.1c1-1.2,2.2-2.1,3.2-3.4c1.6-1.9,3.1-4.3,5.5-5c6.4-0.6,11.1-5.4,16.2-9.3
			c2-1.7,4.9-1.1,7.2-1.9c5.3-1.9,9.6-6.2,15.2-7.1c5.1-0.9,10.4-0.5,15.3,0.6c-0.3,1.5-0.6,3.1-1.5,4.4c-1.2,0.4-2.5,0.1-3.5-0.4
			c-0.5,0.5-1.1,1.1-1.8,1.5l-0.5-1.4c1.9-0.9,4.2-0.8,5.7-2.5c-2.2-0.1-4.6-0.3-6.1,1.2c-1.9,0.8-3.6-0.6-5.4-0.3
			c-1.9,0.1-3.6,1-5,2.4l-1,1.3l0.1,0.1c0.9,0.2,1.8,0.4,2.8,0.6c0.6-0.9,0.8-2.4,2.2-2.7c-0.1,0.7-0.3,1.8-0.1,2.7
			c0.4,0.9,1.4,1.8,2.3,2.2c2.2,0,3.9-1.2,5.3-2.9c0.5-0.3,0.9-0.9,1.5-0.8c0.8,0.3,1.7,0.2,2.6,0.1c-4.1,4-9,6.7-13.6,9.8
			c-0.5,0.2-1.2,0-1.6,0.4c0.1,0.3-0.1,0.7,0.1,0.9c1.3-0.9,1.9,0.9,2.9,1.4c1.5,1.2,3.1,2.7,4.8,3.8c-2-0.3-3.7-1.4-5.2-2.6
			c-0.1,0.8,0.4,1.4,0.8,2.1c2.2,2.7,5.7,2,8.4,3.2c0.9-0.1,1.5,0.6,2.3,0.8C72,42.5,71.6,43.3,71.1,44z M62.6,20.7l1.1-0.1
			c-0.2,0.7-0.1,1.4,0.6,1.8c0.6,0.4,1.4,0.1,1.9-0.3c0.3-0.3,0.6-0.7,0.4-1.2l-0.2-0.3c0.4-0.3,1,0,1,0.5v1.2
			c-1.2,0.7-2.4,1.8-3.8,1.4C62.3,23.2,62.6,21.8,62.6,20.7z M64.3,20.6c0.3-0.1,0.5,0.1,0.6,0.3c0.1,0.3,0.1,0.7-0.2,0.8
			c-0.3,0.1-0.5-0.1-0.8-0.2C63.9,21.2,63.9,20.7,64.3,20.6z M65,20.5c0-0.3,0.3-0.3,0.5-0.3v0.4C65.3,20.8,65,20.7,65,20.5z
			 M83.6,40.3c1.6,0.8,2.9,2.3,4.4,3.2c0.2,0.2,0.4-0.1,0.5-0.2c-0.1-0.9-0.5-1.8-1.3-2.3c-0.8-0.5-1.6-0.8-2.4-1.1
			c1.3-0.2,2.6,0.6,3.5,1.7c0.6,0.8,0.8,1.8,0.6,2.9c-1.5-0.7-3.1-1.5-4.7-2c-5-1.4-10.5-1.9-15.1-4.3c-0.9-0.4-2.1-0.4-3.1-0.3
			c-2.4-1.6-4.6-3.6-6.9-5.5c3.9-0.5,6.3,3.3,9.5,4.7c2.5,1.5,5.4,1.9,8.3,2.2c0.8,0.2,1.5,0.5,2.2,0.8v-0.2
			c-1.6-2.5-4.3-2.7-6.9-2.8c-0.7-0.1-1.5-0.2-2.1-0.7c-1.3-0.9-2.1-2.3-3.2-3.4c-1.2-0.6-2.5-1.1-3.7-1.5c2.1-1.3,4.3-2.8,6.7-3.5
			c-1.3,1.4-2.8,2.7-4,4.2c3,0.3,4.5,3.5,7.4,4c1.7,0.4,3.4,0.9,5.2,1.1C80,38.8,82,39.1,83.6,40.3z M77.3,32.4
			c-1.5,0.5-2.9,1.3-4.5,1.4c0.8-0.6,1.8-1,2.6-1.6L75.2,32l-3.8-0.2v-0.1c1.8-0.6,3.9-0.8,5.9-0.8c0.3,0.1,0.6,0.3,0.8,0.6
			C78.3,32.1,77.5,32.1,77.3,32.4z M78.9,32.9v0.2l-1.4,3.2c-1.2-0.4-2.5-0.8-3.7-1.1C75.6,35.1,77.3,33.9,78.9,32.9z M79.5,31.7
			c0-0.8-0.4-1.4-1.1-1.8l-1.3-0.2l-7.4,0.8l-0.9,0.4c1.4-1.3,3-2.7,4.4-3.9c4.3-0.8,8.4-2.3,13.3-1.9
			C84.1,27.1,80.5,28.5,79.5,31.7z M94.8,29c-0.5-1.2-1.1-2.7-2.4-3.8V25c-0.8-0.4-1.5-1-2.1-1.6c-1,0.4-2.3-0.2-3.5-0.1
			c-6.7,0.2-13.3,1.3-19,4.4c-2.5,1.2-4.8,2.9-7.5,3.5c4.3-3.1,9.5-5.7,13.2-9.8c0.4-0.3,0.9-0.6,1.3-0.9l-0.6-0.1
			c0.8-1.3,1.1-2.8,1.4-4.2c3.5-0.1,7.3-0.6,10.9-0.1c1.9,0.2,3.9,0.5,5.7,1c1.9,0.5,3.7,2.3,4,4.3C96.7,24.2,95.2,26.5,94.8,29z"/>
	</g>
</g>
</svg>
