<?xml version="1.0" encoding="utf-8"?>
<!-- Generator: Adobe Illustrator 18.1.1, SVG Export Plug-In . SVG Version: 6.00 Build 0)  -->
<!DOCTYPE svg PUBLIC "-//W3C//DTD SVG 1.1//EN" "http://www.w3.org/Graphics/SVG/1.1/DTD/svg11.dtd">
<svg version="1.1" xmlns="http://www.w3.org/2000/svg" xmlns:xlink="http://www.w3.org/1999/xlink" x="0px" y="0px"
	 viewBox="0 0 100 100" enable-background="new 0 0 100 100" xml:space="preserve">

<g id="AREA_1">
	<g>
		<g>
			<g>
				<g>
					<path d="M75.9,3c3.2,7.4,6.5,15.3,9.6,22.7L85.2,26c-5.4-5.1-12-8.5-18.9-10.5V16c2.4,4.8,4.3,9.8,4.5,15.6
						c0.2,2.6,0.2,5.4,0.3,7.8c-2.1-2.9-4.2-5.8-6.3-8.8c-0.3,0.1-0.7,0.4-0.8,0.7l7.1,11c-0.4,4.8-1.7,9.5-3.1,13.9
						c-1.9-5.7-3.4-11.7-5.3-17.5l-0.8,0.8c1.8,6.4,3.7,12.8,5.6,19.3c-1.1,3.7-2.7,7.2-5.2,10.4c-0.4-2.2-0.5-4.5-0.9-6.7l-2.6-19
						l-0.1-0.1l-1.1,1.3l3.2,24.8c0,0.7,0.3,1.5,0.2,2.2c-1.3,2.6-3,4.8-5.1,7c-0.8-9.9-1.3-18.2-2-28.1c-0.4,0-0.8,0.2-1.1,0.4
						l1.8,28.2l0.1,1.2c-1.7,2.6-3.6,5.3-6.1,7.3l0.1-34l-1.2,0.7c0,0.3-0.4,34.8-0.4,34.8l-8.9,9l-0.3-0.4c0.7-2,2.4-4.2,2.9-6.4
						c0.7-2.4,0.7-5.3,0.7-8.1V29.9V3.1L67.7,3H75.9L75.9,3z"/>
					<path d="M39.4,13.7c-3.8-0.4-8,1.3-10.9-1c0.2-0.6,0.4-1.1,0.7-1.7c-2-0.2-4,0.3-6,0.5L23,11.3c0.2-0.4,0.3-0.7,0.6-1.1
						C25,7.6,27.8,6.4,30.5,6c1.8-1.9,4.9-1.7,7.1-2l1.8-0.3l0,0.1L39.4,13.7L39.4,13.7L39.4,13.7z"/>
				</g>
			</g>
			<g>
				<g>
					<path d="M39.4,20.4c-4.8,2.9-9.8,5.7-14.7,8.6c-1.3-0.4-7.3,1.1-3.9,5.8l0.2-0.1c1.3-5.7,7-2.8,4.2,1.1l0.1,0.3
						c0.9-0.2,2-0.4,2.6-1.4c0.9-1.4-0.5-4,0.1-4.3c1.5-0.9,3.2-1.3,4.8-1.8c2.3-0.8,4.7-0.1,6.6,1.1L39.4,20.4z"/>
				</g>
			</g>
		</g>
	</g>
</g>
</svg>
