<?xml version="1.0" encoding="utf-8"?>
<!-- Generator: Adobe Illustrator 18.1.1, SVG Export Plug-In . SVG Version: 6.00 Build 0)  -->
<!DOCTYPE svg PUBLIC "-//W3C//DTD SVG 1.1//EN" "http://www.w3.org/Graphics/SVG/1.1/DTD/svg11.dtd">
<svg version="1.1" xmlns="http://www.w3.org/2000/svg" xmlns:xlink="http://www.w3.org/1999/xlink" x="0px" y="0px"
	 viewBox="0 0 100 100" enable-background="new 0 0 100 100" xml:space="preserve">

	 
<g id="AREA_1">
	<g>
		<path d="M78.7,60c0.2-3.8-0.4-7.2-1-10.7c1-2.7,2-5.6,1.4-8.7c-0.1-2.5,1-4.6,1-7.1c0-0.6,0-1.3-0.4-1.7c-2.4-1.3-3.7,1.8-5.4,3
			c-1.1-2.2-1.6-4.6-2.3-7c0.8-1.6,1.7-3.2,2.3-4.9c1.8-6.1-0.1-12.4-5-16.5c-0.3-0.1-0.5,0-0.7,0.2l-0.4,2.9
			c-0.6,3.4-1.3,6.7-3.1,9.6c-5.8-3.1-11.8-5.6-18.6-6.1c-5.6-0.5-10.3,1.5-15.1,3.3l-0.1-0.1l-3.7-4.8c-1.7-2.3-3.2-4.8-3.8-7.6
			c-0.1-0.6-0.1-1.2-0.3-1.7c-0.3-0.2-1-0.3-1.3,0.1c-1.4,3.3-2.4,6.8-2.8,10.5c-0.5,4.4,1.7,7.8,3,11.6c0.6,1.6,0.5,3.6,0.1,5.2
			c-0.6,0.9-2,0.4-2.8,1c-1.6,1.1-0.9,3.3-1,5l0.5,6.3c0.2,2.4,0.1,4.9-0.4,7.1c-0.1,6.8,4.6,11.6,6.9,17.4c0.5,0.7,1.3,1.1,2.1,1.3
			c0.9,0.3,1.9,0.1,2.7-0.2c0.8,1,0.3,2.5,0.8,3.7l0.6,0.9l3.8,5.8c1.7,2.4,3.4,4.9,5.7,6.9c2.7,0.3,4.7,3,6.5,5
			c0.2,0.1,0.4,0.1,0.5,0c0.7-0.4,0.6-1.3,0.8-1.9c0.1,0,0.2,0,0.2,0.1l4.2,4.3c1.4,1.3,3,2.4,4.8,2.8c0.3,0.1,0.8,0.1,0.9-0.2
			l0.2-1.9c2.6,1.6,5.1,3.6,8.3,4l1.3,0c0.2-0.1,0.4-0.3,0.3-0.6c-0.5-2.1-1.4-4.1-1.5-6.4c0.3,0.8,1.1,1.2,1.8,1.5
			c1.2,0.2,0.8-1.3,1.3-1.9c-1.5-3.2,1-6,0.4-9.2l3.6-4.9l0.1-0.4c-2.7-4.1,0-8.7,2.3-12l0.1-0.1l1.9,0.9c0.2,0.1,0.5,0,0.6-0.2
			C81.1,62.1,79.7,61.1,78.7,60z M70,9.5c1.8,2.3,2.8,4.9,3.1,7.8c0.2,3.3-0.7,6.3-2.3,8.9L70.5,26l-4.2-5.1
			C68.7,17.6,69.4,13.6,70,9.5z M22.1,19.8c0.1-0.6,0.3-1.1,0.6-1.6c-0.4,0-0.7-0.1-1-0.3c-1.2-1.6-1.1-3.8-0.9-5.8
			c0.3-2.3,1-4.4,1.9-6.5c1,2.8,2.4,5.3,4,7.8c2,2.4,4.3,4.7,6.4,7.2c0.9,2-0.4,3.9-1.8,5.3c-1.2,1.1-3.1,1.6-4.7,1
			C23.8,25.4,23.3,22.3,22.1,19.8z M74.3,64.8c-0.3-0.3-0.4-0.8-0.3-1.3c0.2-0.4,0.6-0.8,1.1-1c0.4,0.2,0.8-0.4,1,0.1
			C75.8,63.5,74.9,64,74.3,64.8z M68.6,66.6c-0.5,0-1,0.1-1.5,0.2c0-0.3,0.2-0.5,0.3-0.7c0.9-0.6,3-0.6,2.6-2.4
			c0.3-0.6,0.1-1.5-0.2-2c-0.6-0.8-1.4-1.2-2.2-1.7c-1.1-2.4-1.4-5.2-2.2-7.7c0.8,0.5,2,1.1,3.1,0.7c0.6-0.1,0.7-0.7,1.2-1
			c0.9-0.8,2.6-1.5,2.1-3c0.3-0.3,0.4-0.6,0.4-1c-0.9-1-1.1-2.3-1.3-3.5c0.4-0.4,1.3-0.1,1.7-0.7c0-0.6-0.6-1-1-1.2
			c-2.6,1.3-3,4.2-5,6.1c-0.5,0.5-1.1,0.8-1.7,1c-0.5-0.3-0.8-1.1-1.5-0.9l-0.2,0.3c-0.5-0.4,0.2-1.3-0.6-1.5
			c-0.5,0.4-0.6,1.1-0.5,1.8c-0.2,0.9,0.9,1.1,1.3,1.9c2.5,3.1,1.5,7.7,3.7,10.9c0.3,1.3,0.4,3-0.7,3.9c-0.4,0.4-1,0.5-1.6,0.4
			c-2.2-0.5-3.3-3.5-5.5-3.9c-0.8,0-1.3,0.4-1.9,1c-0.2,0-0.4,0-0.5-0.1c-0.4-0.6-1-1.2-0.8-2c0.5-1.2,1.9-1.1,2.6-2
			c0-0.6-0.7-0.9-1.1-1.2c-2.8-0.1-3.7,4.4-6.6,3.6c-2.5-3.7-6.6-4.8-10.7-5.1c0.2,0.3,0.2,0.7,0.2,1.1c-0.5,1.1-2.2,1.3-2.2,2.7
			c0.3,0.1,0.7,0,1-0.1c1.3-0.4,2.9-1.6,4.3-0.5c2.3,4.9,8.8,2.5,11,7.5c0.5,0.3,1,0.5,1.5,0.8c1.2,0.7,2.8,1.8,4.2,0.9
			c0.6-0.5,1.3-1,1-1.9c-1.8-1.3-4.5-0.7-6.3-2.2l-2.3-1.4c0-0.3,0.3-0.6,0.6-0.8c0.4-0.2,0.9-0.3,1.3-0.3c0.8,0.9,1.4,2.2,2.5,2.7
			c0.7-0.4,1.6-0.8,2.5-0.6c2.2,0.7,3.4,4.6,6.2,3.4c0.2,0.6,0.9,1,1.5,1.1c0.9,0,2,0.1,2.4-0.9c0.8-1.1,1.5-3,3.2-2.9
			c0.9,0.9-0.2,1.9,0.1,2.9c-0.4,0-0.7,0-1.1,0.1c0.6,2.5,3.1,5.2,0.9,7.8c-1.1,1.4-3.4,2.1-3.3,4.2c-0.5,1.2-0.7,2.4-1.4,3.5
			c0.2-0.6,0.2-1.5-0.3-2.1c-0.7-0.8-1.7-1.3-2.6-1.7c-0.1,0-0.2,0.1-0.3,0.1l-1-1.6c-0.8,0.5-0.2,1.8-0.6,2.5
			c-0.4-0.3-0.8-0.8-1.3-1.2c-0.5,0.6-1.3,1.1-2.1,0.9c-0.3-0.1-0.5-0.3-0.7-0.5c-1.3,0.5-1.8,2.7-3.5,2c-0.2-0.3-0.4-0.6-0.8-0.7
			c-0.8-0.1-1.4,0.6-2.2,0.7c-3.3-3.3-7.8,1-11.4-1.6l-0.5-0.5c-0.1,0-0.1,0.1-0.2,0.1c-2.3-2.1-6.2-4.5-4.7-8.1
			c0.9-2,1.8-4.5,0.8-6.7c-1.6,1.9-0.4,5.1-2.1,7c-0.1,0.1-0.3,0-0.5,0c-0.8-3.9-3.7-6.9-3.3-11.3l-0.4-0.4
			c-1.1,1.6,0.5,5.6-2.9,5.2c-2.2-1.8-1.5-4.9-3-7.1c-3.3-2.8-4.2-6.7-4.1-10.9l0.3-7.1c0-2.1-0.3-4.1-0.9-5.9
			c0.2-0.9-0.6-2.3,0.6-2.7c2.5,0.5,4.1,3,6.1,4.5c4.2,4.3,0.6,11.7,4.2,16.2h0.4c0.7-2.5,1.8-5.1,4.1-6.7c-0.7-5-2.6-9.6-2.3-14.9
			c0.4-3.2,2-6.3,5-8c6.1-2,11.1,2,15.8,5.2c2.6,2.5,3.6,5.8,5.8,8.6c1.4-2.1-0.1-4.4-0.4-6.5c-0.6-2.2-1.5-4.2-2.2-6.4
			c0.8-0.1,1.5,0.4,2,1c0.8,1.4,1.2,3.1,1.8,4.6c0.7,2.5,1.2,5,1.8,7.5c1.4-1.9,2.2-4.7,4.8-5.5c0.8-0.3,1.9-0.5,2.7-0.1
			c1.1,0.5,1.9,1.7,2.4,2.7c0.6,1.8-0.9,4,0.6,5.5c-0.4,3-0.7,6.5,0.1,9.4c0.5,1.7,1.5,3.2,2.9,4.4l0.6,6
			C73.6,60.7,70.6,63.6,68.6,66.6z M68,62.5h0.4V64h-0.2L68,62.5z M67.1,50.4l0.4-0.9c0.2,0.1,0.3,0.4,0.2,0.7
			C67.6,50.4,67.4,50.5,67.1,50.4z M69.1,47c0.1-0.1,0.2-0.2,0.3-0.2c0.5,0,1,0.2,1.2,0.7c0.1,1.3-0.3,2.4-1.1,3.4l-0.7,0
			C68.9,49.5,68.5,48.1,69.1,47z M48.7,62c-1.8,0.4-3.1-1.3-4.2-2.6C46.2,59.6,47.9,60.4,48.7,62z M77.4,45.6
			c-0.3,1.4-0.1,3.1-1.6,4l-0.3-0.8c1.1-3.5,2.2-7.4,1.4-11.4c-0.2-0.3-0.4-0.3-0.7-0.2c-0.5,0.5-0.6,1.1-0.7,1.7
			c-0.5,2.1-0.2,4.4-1.2,6.3c-0.4-0.4,0.1-1,0.2-1.4c0.8-2.2-1.4-4.4,0.3-6.3c1.2-0.9,1.6-2.4,2.9-3.2h0.3c-0.3,1.3-0.6,2.6-0.6,4.1
			L77.4,45.6z"/>
		<g>
			<rect x="70.4" y="12.3" width="0.2" height="1.5"/>
			<polygon points="22.3,14.6 22.1,12.7 22.2,12.7 			"/>
			<polygon points="69.5,18.2 69.5,16 69.9,16.6 			"/>
			<path d="M24.5,22.7c-0.6-1-1.5-1.9-1.3-3.1C24.3,20.2,24.2,21.6,24.5,22.7z"/>
			<path d="M68.2,21.3l0.2-1C68.4,20.6,68.6,21.1,68.2,21.3z"/>
			<path d="M49.1,33c4.1,3.9,6.3,8.6,9.4,12.9c0.4,0.1,0.9,0,1.2-0.2c1-1,0.2-2.8,0.8-4c0.9-0.1,0.5,1.1,0.9,1.5
				c0.2,1.6-0.5,2.9-1.1,4.3c-0.6,0.8-1.6,1.1-2.6,0.9c-1.6-0.4-2.9-1.8-4-3.1c-1.9-2.5-3.1-5.3-5-7.8c-2.6-2.1-6.2-4.4-6.7-7.8
				C44.3,30.8,46.1,33.5,49.1,33z"/>
			<path d="M71.4,39.2c-2.9,2-3.6,5.3-6,7.7c-0.7,0.1-1.4,0-1.9-0.6l0.3-3.4c0.8,0.8-0.2,1.9,0.1,2.8c0.2,0.3,0.5,0.3,0.7,0.4
				c1.1-2.9,2-6,3.8-8.6c0.5,0.1,1.1,0,1.5-0.4c0.8-0.7,0.7-1.9,0.9-2.8C72.5,35.7,70.9,37.6,71.4,39.2z"/>
			<path d="M56.2,35.5c0,0.3,0.2,0.5,0.1,0.9l-0.6-1C55.8,35.2,56.2,35.3,56.2,35.5z"/>
			<path d="M65,40.3c-0.2-0.2-0.2-0.5-0.2-0.7c0-0.8,0.7-1.3,0.9-2C65.7,38.6,65.5,39.5,65,40.3z"/>
			<path d="M26.6,46.1L26.6,46.1c-0.8-1-0.9-2.4-2.1-3.2c-0.7,1.4-0.5,3.4-0.3,5c0.2,1.5,0.6,3,0.7,4.6c0.1,0.3,0.3,0.6,0.6,0.8
				c0.7-0.1,0.9-0.9,1.5-1.3c0.2-0.1,0.4-0.3,0.7-0.3c-0.8,1.8-0.3,4-0.4,6c-0.1,0.1-0.2,0-0.4,0c-0.8-2.1-2-4-3.3-5.9
				c-0.5-2.7,1.2-6-0.7-8.2c-0.4,0.6,0,1.6-0.3,2.3c-0.8-2.2-0.5-5.1-0.3-7.5C24.8,40.3,26.8,42.8,26.6,46.1z"/>
			<path d="M57.3,50.4c-0.5-0.2-0.8,0.7-1.3,0.3c-0.3-0.1,0-0.4,0-0.6l-1.5-0.4c-0.4-0.1-0.5-0.6-0.7-0.8l-3.1-5.2
				c-1.3-2.1-3.3-4.5-5.6-5.5c-0.2,0.8-1.2,1.1-1.6,1.9c-0.1,0.2-0.1,0.5,0.1,0.7c0.4-0.2,0.8-0.4,1.3-0.5c0.7-0.1,1.3,0,1.7,0.6
				c-0.7,1.7-1.8,3.2-2.5,4.9c-2.1-0.6-2.2-4-4.8-3.7c-0.1,0.3-0.3,0.6-0.2,0.9c0.5,0.6,1.3,0.5,1.9,1c2.9,4.5,7.5,8.2,12.7,8.5
				c0.1-0.4-0.3-0.6-0.4-0.9c1.1-1.4,1.8,0.9,3,0.3C56.8,51.5,57.8,51.2,57.3,50.4z M48.7,50.2c-0.1,0.2-0.5,0.2-0.7,0.1
				c-0.8-0.5-1.9-1.1-2.1-2.1c-0.5-1.9,0.2-3.7,1.1-5.3c0.5-0.2,1.1,0,1.5,0.3c0.5,0.5,0.8,1,1.2,1.6C48,45.9,49.3,48.4,48.7,50.2z
				 M51.8,50.6c-0.3-0.1-0.7-0.2-1-0.2c0.2-0.4,0.5-1,1-1.1c0.3,0,0.5,0.1,0.7,0.3C52.6,50.1,52,50.3,51.8,50.6z"/>
			<path d="M41.7,46.8v0.4c-0.6-0.3-1.7,0.1-2.1-0.6c0-0.2,0-0.5,0.2-0.6c0.2-0.1,0.4,0,0.7,0C40.9,46.2,41.4,46.4,41.7,46.8z"/>
			<path d="M74,53.2c-0.2-0.4-0.7-0.8-1.2-0.8c-0.8-0.1-1,0.8-1.7,0.9c0.2-0.9,0.5-2,1.4-2.6C73.5,51,74,52.1,74,53.2z"/>
			<path d="M50.5,53.2c-2,0.6-3.6-1-5.3-2c1.8-0.5,3,1.1,4.4,1.7L50.5,53.2z"/>
			<path d="M63.9,60.9c-1.3-1.5-0.9-3.7-1.1-5.7C63.9,56.7,63.4,59,63.9,60.9z"/>
			<path d="M34.1,61.5l-0.6-5.9C34.1,57.5,35.1,59.6,34.1,61.5z"/>
			<path d="M70.3,73.3c-2.5-2.9-6.1-3.6-9.9-3.4c-1.4,1.1-2.9,1.7-4.7,1.5c-4.4-0.7-7.2-5-11.6-5.6c-1-0.1-2,0.1-2.8,0.3
				c0-0.1,0-0.2,0.1-0.3c0.7-1.8,2.9-1.5,4.5-1.7c0,0.3,0,0.5,0.2,0.7c0.5,0.3,1.2,0.2,1.6-0.1c-0.4-0.1-0.8-0.3-1.2-0.4l0.1-0.8
				c-1.3-0.4-2.8-0.3-4.1,0c-1.9,1.1-2.3,3.2-3.1,4.9c-0.1,2.3-0.9,5.4,0.7,7.2c1.8,1.5,4.7,1.2,6.8,0.4c0.4-0.2,1-0.2,1-0.8
				c2.4-4.7,8.5-1.7,11.9-4.5c2.6,0,5,0.5,6.9,2.1c1.1,0.3,1.3,1.5,2,2.3c0.3,0.2,0.6,0.4,1,0.4C70.6,75,70.2,74,70.3,73.3z
				 M47.6,73.8c-0.2-0.2-0.1-0.7-0.5-0.6c-0.5,0.9-0.8,2.4-2.2,2.2c-0.3,0-0.6,0.1-0.8-0.1c-0.4-0.5-0.2-1.3-0.7-1.8
				c-0.3,0.6-0.6,1.3-0.8,1.9c-0.5,0.1-1.1,0-1.5-0.3c-1.1-0.8-1.1-2.3-0.8-3.5c0-0.3,0.3-0.3,0.4-0.4h1.8c0.3,0.6,0.7,1.1,1,1.6
				c0.2-0.8,1.1-1.4,1.8-1.6l1.4,0c0.8,0.7-0.7,1.6,0.4,2.1c0.2-0.6,0.5-1.2,1.1-1.6c0.8-0.6,1.7-0.7,2.8-0.7
				C49.9,71.8,49.3,73.7,47.6,73.8z"/>
			<path d="M58.9,73.3c0.2,0.5,0.1,1.1-0.3,1.6c-1.4,1.2-3.6,0.7-5.1,1.7c-0.3,0.2-0.3,0.6-0.7,0.7c-0.3,0-0.7-0.1-1,0.2
				c0.7-1.8,2.6-2.5,4.1-3.4C57,73.8,57.9,73.4,58.9,73.3z"/>
		</g>
	</g>
</g>
</svg>
