<?xml version="1.0" encoding="utf-8"?>
<!-- Generator: Adobe Illustrator 18.1.1, SVG Export Plug-In . SVG Version: 6.00 Build 0)  -->
<!DOCTYPE svg PUBLIC "-//W3C//DTD SVG 1.1//EN" "http://www.w3.org/Graphics/SVG/1.1/DTD/svg11.dtd">
<svg version="1.1" xmlns="http://www.w3.org/2000/svg" xmlns:xlink="http://www.w3.org/1999/xlink" x="0px" y="0px"
	 viewBox="0 0 100 100" enable-background="new 0 0 100 100" xml:space="preserve">

	 
<g id="AREA_1">
	<g>
		<g>
			<path d="M37.3,48.2c0.5-1.7,1.5-3.2,2.5-4.7c-0.7,0.5-1.4,1.5-1.9,2.2c-0.1,0.2-0.3,0.2-0.3,0c0.4-1.8,1.8-3.5,3.1-4.4
				c-0.9,0-1.6,1-2.3,1.5c-1.2,1.5-2.5,3.6-1.5,5.7L37.3,48.2z"/>
			<path d="M55.9,51.4c0.1-0.2,0.3-0.4,0.2-0.8c0-0.3-0.6-0.6-0.7-0.1C55.6,50.9,55.5,51.4,55.9,51.4z"/>
			<path d="M45.3,61.8c0.2-0.5,0.4-1.1,0.6-1.6c-0.2-0.5,0.1-1.5-0.5-1.7C45.6,59.4,45.1,60.7,45.3,61.8z"/>
			<path d="M37.4,58.7c0.4,0.5,1.1,0,1.6,0.1c-0.4-0.1-0.8-0.3-1.2-0.5C37.5,58.3,37.3,58.4,37.4,58.7z"/>
			<path d="M51.4,64.9c1.9-0.5,3.1-2.6,4.9-3.2C54.3,61.8,52.9,63.7,51.4,64.9z"/>
			<path d="M26,70.9l0,0.6l0.3,0l0-0.3C26.4,71,26.2,70.8,26,70.9z"/>
			<path d="M37.6,41.3l-0.2,0c-0.3,0.6-0.6,1.1-1,1.6h0.5C37.1,42.4,37.4,41.9,37.6,41.3z"/>
			<path d="M47.4,21.9l0.3,0c0.2-1.4,0.3-2.9-0.5-4.2C47.5,19,47.8,20.5,47.4,21.9z"/>
			<path d="M36.6,18l0.1,0.5c0.2-0.1,0.1-0.3,0.1-0.4C36.7,18.1,36.7,18,36.6,18z"/>
			<path d="M58.5,24.5L58.5,24.5c-0.6-1.5-1.6-2.9-2.8-4.1C56.9,21.7,57.1,23.5,58.5,24.5z"/>
			<path d="M54.4,23.6l-1.6,1c-0.3,0.4-1.1,1-1,1.7C52.9,25.6,53.4,24.3,54.4,23.6z"/>
		</g>
		<path d="M27.9,42.9c0,0.4-0.1,0.7-0.3,1.1c-1.3,3.5-2.6,7.7-0.3,11.2c-0.8,3.5-0.9,7-2.3,10.3c-2.3,3.6-1.5,8.5-2.9,12.3
			c-0.3,2.6-1.8,4.7-2.4,7.1c-0.5,1.2-1.5,2.4-2,3.6l0.6,0.6c-0.6,0.7-1.1,1.7-1.1,2.6c0.1,0.8,0.8,0,1.1,0.4
			c1.4,0.1,2.6-0.9,3.6-1.3c0.7-0.7,0.7-1.9,1-2.8c-0.5-0.3-1-0.6-1.1-1.2c0.3-0.2,0.2-0.9,0.7-0.7c0.6,0.4,0.9-0.5,1.3-0.8
			c0.3-3.4,0.2-7.5,2-10.6c1.7-1.6,2.1-3.9,2.4-6c-0.2-0.5-0.4-1-0.1-1.6c1.1-2.4,2.6-4.3,3.5-6.7c0.4-1.7,1.8-0.5,2.9-0.7
			c1.8,4.5-0.5,9.5-2.3,13.5l-0.2,3.1c-2.1,1.7-2.4,4.4-3.1,6.8c0.8,0.2,2,0.2,2.8-0.2c0.9-0.7,2.6-0.7,2.6-2.3
			c1.6-0.8-0.2-3.1,1.4-3.9c0.7-1.9,0.3-4.5,0.7-6.6c1.1-2.1,0.7-4.6,2.4-6.4c0.7,0.2,1.5,0.4,1.9,1.1l0.6,6.3
			c0.3,2.5,2.6,4.4,4.4,6c0.3,1.5,1.8,2.5,1.8,4c-1.1,3.2-3.9,5.9-6.3,8.2c-0.5,0.2,0,0.8-0.5,1c-0.3,2.1-1.7,3.5-3.4,4.6
			c0.1,1-0.6,1.6-1,2.4l4.5,0.3c1.4-0.1,1.7-1.7,2.2-2.7c-0.5-1.1,1.1-1.6,0.6-2.8c0-0.9,1.1-0.9,1.7-1.4c0.4-0.7-0.2-1.4,0.3-2
			c2.1-3,4.8-6,7.6-8.3c1-1.3-0.7-2.4-1.3-3.7c0-0.5-0.7-0.9-0.5-1.4c-1-1.7-1.1-3.7-0.4-5.5c1.4-1.4,3.2-3.1,5.3-2.5
			c2.3,0.8,3.7,3.1,5.4,4.7c2.6,2.2,4.5,4.8,6.8,7.3c3.3,1.7,4.2,5.5,6.7,8c1,1.5,1.8,3,3.5,3.7c-0.1,0.7-0.3,1.3-0.8,1.8l1,0
			c1.4,0.3-0.3,1.2,0.2,1.9c0.1,0.7,1,0.2,1.4,0.6c0.9-0.1,1.7,0,2.7-0.3c-0.6-1.8-0.6-3.9-2.4-4.9c-0.1-2.7-3.2-3.3-4.3-5.1
			c-1.4-1.9-3.5-3.8-3.8-6.2c0.3-2.5-1.5-4.2-2.3-6.4c-1.6-1.3-1-3.5-2.3-5.1c0.2-3.4-2.4-6.1-3.2-9.3c-0.6-1.2-1.5-2.2-2-3.4
			c0.3-0.4,0.8-0.4,1.3-0.3c2,0,3.5,1.1,5.5,1.1c2.8,1.8,6.6,0.8,10,0.8l0.2-0.7l-2.3,0.1c-0.2-0.2-0.8-0.1-0.5-0.6
			c1-0.9,2.4-1.8,3.3-2.8l-0.1-0.1c-1.8,1-3.4,3-5.7,2.6c-0.2,0-0.4-0.3-0.2-0.5L77,53c-0.1-0.7,0.3-1.4,0.9-1.9
			c0.2-0.6,1.1-1.6,0.2-2.1c0.1-0.2,0.5-0.4,0.5-0.6c-0.4-0.1-0.6,0.4-1,0.5c-0.3,0.3-1,0.2-1.3-0.1c0.6-1.2,1.3-2.6,2.2-3.5l0,0
			c-0.6,0.2-0.9,1.1-1.5,0.9c0.1-0.7,0.1-1.4,0.7-2.1c0.5-0.2,0.8-0.6,0.9-1.1h0c0.3-0.8,0.3-1.8,0.9-2.5l-0.2,0
			c-0.7,0.7-1.5,1.7-2.2,2.5l0.7,0c0-0.2,0.1-0.5,0.3-0.2c0,0.1,0,0.2-0.1,0.3l-0.2,0c0,0,0,0,0-0.1l-0.7,0c-0.3,0.3-0.6,0.7-0.9,1
			c-0.5-0.1-0.6,0.9-1.1,0.2c-0.1-0.3,0.2-0.7,0.4-1h0.2c1.2-2.1,3.4-3.9,5.5-5.3L81,37.8c-0.6,0.1-1,0.7-1.6,0.5
			c-1,0.2-1.8,1.8-2.7,1c-0.2-0.5,0.4-0.7,0.3-1.1l-0.1,0c-0.7,0.5-0.6,1.5-0.9,2.2c-0.4,0.8-1.4,1-2,1L74,40.3
			c0.2-0.4,0.7-0.7,0.5-1.1l-1,0c-0.1,0.3,0,0.7-0.4,0.9c-0.2,0-0.4-0.1-0.5-0.2c0-0.8,0-1.8,0.7-2.4l-0.5-0.5
			c0.6-1.1,1.3-2.3,2.3-3.2l-0.1,0c-0.5,0.3-1.2,0.9-1.7,1.2c-1,0.6-1.3,2-2.5,2.1c-0.9-1-1-2.2-1.2-3.4l-0.1,0
			c-0.2,1.6,0.5,3,1.3,4.4c-0.3,1.3-1.1,2.4-1.8,3.5l-1.2-0.3c-0.2,0.5-0.2,1.1-0.3,1.8h0c0,0.6,0,1.3-0.2,1.8
			c-0.4,0.6-0.4,1.7-1.3,1.9c-0.3-0.7-0.5-1.5-0.4-2.4c-0.3-0.1-0.7-0.2-0.7-0.6c-0.6-0.1-0.1,0.7-0.4,0.8c-0.4,0-0.5-0.4-0.8-0.5
			c0.3,1.5,0,2.6-0.1,4c-0.6,1.4-2,2-3.3,2.5c-1.6,0.3-2.4-1.4-3.8-2c-2.6-0.3-4.2-2.8-6.4-3.9c-0.4-1,0.4-1.3,1.1-1.7h0
			c0.4-0.2,0.7-0.5,0.8-1c-0.6-0.4-1.1,0.9-1.6-0.1c-0.4-1.3,1.2-0.5,1.2-1.5c0.7-0.8,1-2,1.5-3.1l0-0.1c-1.6-0.1-0.8,2.2-2.3,2.6
			c-0.5,0.1-1.1,0.6-1.6,0.1c-0.3-0.4,0-1.2,0.5-1l0,0c-1.2-1.1,0.1-3.2,0.3-4.6l0-0.1c-0.7-0.1-0.7,1-1.2,1.4
			c0.3,0.7-0.6,0.5-0.9,0.9c-0.3-0.1-0.1-0.5-0.2-0.7c0.7-0.3,0.6-1.1,1.1-1.5l-0.6-0.1c0-0.4,0.5-0.5,0.6-0.9
			c1-0.4,1.2-1.2,1.8-1.9l0,0l-0.6,0.2c-0.3-0.4,0.1-1,0.1-1.5l-0.2,0c-0.4,0.4-0.6,0.8-0.5,1.3c-0.5,0.8-0.9,1.8-1.9,2.1
			c-0.4-0.1-0.2-0.5-0.3-0.8l-0.1,0l-1.8,1.5c-0.5-0.1-1.3,0.4-1.8-0.2c0-0.9-0.4-2.1,0.6-2.6l0-0.1c-0.4-1.5,0.5-3.2,1.4-4.6
			c1.5-0.1,2.5,1.6,3.9,1.9c2.3-0.9,3.8,1.8,5.6,2.8c0.8,0.9,0.7,2.9,2.1,2.6c0.7-0.5,1.1,0.1,1.8,0c0.2-0.4-0.4-0.8,0.1-1
			c0.1,0,0.2,0,0.3,0.1c0.9,0.4,1.5-0.5,2.2-1.1c0.2-0.7,0.1-1.5,0.9-1.8c1.3-2.2-0.7-3-2-4.4l-0.2-0.3c-0.4-0.4-0.4-0.8-0.7-1.3
			c-0.9-1.7-2.3-3.1-2.8-5l-0.6,0.2c-0.2-0.4,0-0.9-0.1-1.4c0.6-0.5,1.3-0.2,2-0.1l0-0.1L58,17.9l0.2-0.3l0,0
			c-0.8-0.2-1.6,0-2.3-0.3c-0.2-0.3-0.1-0.6,0.2-0.8c1,0.4,2,0.2,2.9,0.3c0,0,0,0,0,0c-0.3-0.3-1.3-0.1-1-0.8l2.2-1l0-0.1
			c-1.4,0.3-3.4,0.2-4.9,0.7c-0.7,0.1-1.5-0.2-2-0.7c0-0.3-0.6-0.8,0-1c0.7-0.1,0.9,0.9,1.2,1c1.1-1,2.7,0,4-0.2l2.3-1.6L61,13.2
			c-0.8,0-1.3,0.9-2.1,1c-0.2-0.1-0.2-0.3-0.2-0.5c0.3-0.4,0.8-0.4,1.2-0.4l0-0.2c-0.1-0.2-0.3-0.1-0.4-0.1c-1.4,0-2.1,1.9-3.6,1.1
			c0.3-1.3,1.1-2.4,0.7-3.8c-0.2-0.3,0-0.8-0.5-0.7c-0.4,0.7-0.8,1.6-1.5,2.1c-0.3,0-0.7,0.4-0.9,0c0.3-0.5,0.5-1.1,0.9-1.5l0-0.1
			c-0.3-0.1-0.8,0.3-1.1,0.6c-0.3,0.2-0.7,0-0.9-0.3c0-0.3,0-0.7,0.2-0.9c-0.2-0.2,0-0.9-0.6-0.7c-0.5,0.9-1.6,1.9-2.4,2.3l-0.3-0.3
			C51,8.5,53.3,7.5,56,7.9l0-0.1c-1-0.6-2.1-0.6-3.2-1c-0.1-0.8,0.9-0.3,1.1-0.8l-0.1-0.1C53.8,6.1,53.6,6,53.4,6
			c-0.2-0.2-0.3-0.4-0.3-0.7l-0.1,0c-1.2,0-2.1,1.1-3.2,0.9c0.8-1.6,2.7-2.1,4.4-2.3l0-0.1c-3.3-1-6.1,1.7-8.7,3.3
			c-0.6,0.3-0.4,1.5-1.2,1.2c0-1,0.8-1.3,1.2-2.1c1-0.5,0.9-1.7,2-1.7c0.1-0.7,0.8-1.4,0.9-1.9c-0.9,0.1-1.6,1-2.2,1.5
			c0.3,1.4-1,0.7-1.6,1.5C44.3,6,44,5.5,44.1,5.2c-1.3,0.2-1.7,1.5-3,2l-0.4-0.4c0.5-0.3,0.4-0.8,0.6-1.2l0-0.1
			c-1.1,0.6-1.1,2.1-2,3.1c-0.1,0-0.3,0.1-0.4-0.1l0.2-0.2C38.8,7.7,39,6.8,39,6.2l-0.2,0c0.3,1-1.1,0.7-0.7,1.6
			c-0.1,0.8-1.1,0.9-1.7,0.8c0.1,0.7-0.2,1.1,0,1.8c-0.2,0.2-0.5,0.4-0.8,0.1c-0.7-0.4-0.9-1.8-1.9-1.4c1,0.8,1.6,2,2.3,2.8
			c0.1,0.6,0.5,1.4,0.1,2c-0.2-0.4-0.3-0.8-0.7-1c-0.3,0.6,0.4,1,0,1.5c-0.7-0.4-0.8-1.5-1.4-2c-0.2,0.8,0.7,1.5-0.1,2.2
			c-0.6,0.7-0.3-0.6-1-0.3c-0.1,0.4,0.2,1-0.1,1.3c-1.3-1.3-0.9-3.7-0.9-5.6l-0.2,0c-0.3,0.7-0.4,1.5-0.4,2.4
			c-0.8,0.5-0.2,1.2-0.9,1.8c-0.7,0.3-0.9-0.6-1.4-0.9L29,13.3c0.4,0.8,0.3,1.8,0.8,2.5c-0.7,0.5-1.5-0.5-2.2-0.3l-0.1,0.1
			c0.9,0.5,1.3,1.2,1.5,2.2c-0.5,0.3-1.2-0.5-1.6-0.5l0,0c0.5,0.5,1.2,0.9,1.8,1.3c0,0.4,0.4,1-0.1,1.4c-0.6,0.1-1.3,0.1-1.7-0.4
			l0,0.2c1.7,0.4,0.1,2.1,1.2,2.7c-0.2,0.4-0.6,0.1-0.9,0.2c0.1,0.4,0.9,0.8,0.3,1.2c-0.4,0.3-0.9,0-1.2-0.3l-0.1,0
			c0.6,0.8,0.7,1.9,1.3,2.8h0c0.4-0.4,0.7-0.3,1,0h0.2c0.2,0.3,0.5,0.5,0.8,0.6c0.6,0.4,1.2-0.2,1.7,0.3c-0.3,1.1-1.8,0.1-2.4,1.1
			l0.3,0.3c0.4,0.2,0.1,0.5-0.2,0.7c-0.4-0.3-0.8-0.8-1-1.2c-0.6-0.1-0.1,0.7-0.5,0.9c-0.2-0.2-0.3-0.5-0.6-0.8
			c-0.1-0.2-0.1,0.1-0.3,0c-0.1,1.2,1.4,1.9,1.5,3c-0.8,1.3-2-0.4-2.7-0.6l0,0c0.2,0.3,0.6,0.3,0.4,0.7c-0.1,0.2-0.3,0.2-0.4,0.3
			l0.9,0.7c-0.3,0.4-0.7,0.1-1.1,0.1l-0.1,0.1c0.7,0.2,1.4,0.5,2,0.9c0.5,0.6,0.2,1.4,0.7,2c3.3,1.5-0.6,4.3-0.3,6.3l-0.2,0
			C27.9,42,27.9,42.5,27.9,42.9 M30.1,42.9l0-0.2c-0.7-0.4-0.2-1.4-0.3-2l0.6-0.7c0-2.8,0.8-5.7,1-8.4c0.5-0.6,0.9-1.5,0.8-2.3
			c0.2-0.7,0.8-1.4,1.2-2c0.4,0.3-0.4,0.8,0.2,1.2c0.6-0.2,0.2-0.9,0.4-1.3c2.2-3.3,3.3-7.1,6.3-10c0.1-0.9,1.4-1,1.8-1.8
			c1.3,0.1,1.1-1.3,2.4-1.5c0.2,0,0.4,0,0.5-0.2c1,0.6,2-1.1,2.9,0.1c0,0.9-0.9,1-1.5,1.5c-1.1,0-1.9,0.9-2.7,1.6
			c-0.4-0.6,0.8-1.3,0.2-2c-0.6,0.5-0.9,1.7-0.7,2.4c-1,1.1-2.3,2.2-3.1,3.5c-0.7,0.4-1.2,1.2-1.5,1.9c-4.9,5.4-7.8,12.8-6.5,20h0
			c0.1,0.8,0.3,1.6,0.6,2.4c0.2,0,0.2-0.2,0.3-0.2c-0.2-0.7-0.2-1.5-0.1-2.2h0c0-0.5,0-1-0.1-1.5l-0.2,0c0-1.1-0.3-2.7,0.2-3.8
			c-0.4-1.8,0.6-3.6,0.9-5.4c2-3.7,4.1-7.4,7.3-10.6c1.2,0.2,0.9-1.7,2-1.6c0.7-0.3,0.4-1.2,1.2-1.2c0.1,0.9,0.2,1.7,0,2.6
			c-0.2,0.2-0.6,0.1-0.6,0.4c-0.1,1.3,0.3,2.7,1.2,3.6l-0.2,0.2c-0.7-0.4-0.8-1.6-1.7-1.8c-0.6,0.4-0.7,1-1,1.6
			c-4.5,4.8-6.4,10.9-8.3,16.8c0,0.2,0,0.4,0,0.7c0,1.6-0.3,3.5,0.4,4.9c0.5-0.1,0.7-0.7,0.9-1.1c0.3-1.4,1.3-2.6,2-3.8h-0.5
			c-0.6,0.7-1.2,1.5-1.5,2.2l-0.5,0c0.1-0.7,0.2-1.4,0.3-2.2h0c0.2-1.5,0.3-3.1,1-4.5c1-2.9,2.8-5.7,3.8-8.8l0.7-0.8l-0.1-0.1
			c0.9-0.8,1.9-2,2.5-3.1c0.7,0.3,1,1,1.7,1.3c0.8,0.3,0.2,1,0.1,1.5c-0.8,1.6-1.1,3.1-1.5,4.8c0.1,0.6,0.1,1.4-0.1,1.9
			c-1.2,0.2,0.1,1.1-0.1,1.8c0.1,1.9,0.4,4.9-1.2,6.2c-0.1,0.1-0.1,0.1-0.2,0.2c-0.5,1.1-1.1,2.2-1.9,3.2l0.9-0.2
			c0.3,0.7-0.9,1.1-0.5,1.9c1.3-0.8,2-2.3,2.9-3.4c-0.1-0.2-0.4-0.1-0.6-0.1c-0.2,0.1-0.1,0.3-0.3,0.3c-0.1-0.5,0.6-1.2,0.6-1.7
			c1-1.3,1.2-3.3,1.2-4.9c0.2-0.2,0.4-0.4,0.3-0.8c1.9,0.3,1.6,2.9,2.8,4.1c0.5,0.8,0.6,1.7,0.9,2.5c0.7,1.8,0.3,4.1,0.5,6l0.3,0
			c0.7-2.2,0.5-4.7-0.2-6.9c1.5,0,1.2,2.9,3,2.8c1.8,0.6,2.4,3.1,4.5,3c3.1,1.4,5.5,4.5,7.2,7.4l-0.2,0.9c2.3,4.4,3.8,9.1,6.1,13.4
			c-0.4,1.5,1.4,2.1,1.8,3.4c0.2,1.2,1.1,2.2,1.3,3.3c-0.1,0.4-0.1,1.1-0.7,1.2c-0.8,0.2-1.2-0.7-1.8-1.1c-0.1-0.6-0.9-1.1-0.6-1.8
			c0.3-0.3,0.8-0.2,0.9-0.7c-1.1-0.9-1.5,1.5-2.3,0.1c0.5-2.4-0.8-4.4-1.7-6.4c-0.2,0.2-0.5,0.1-0.5,0.4c0.2,1,0.1,2.3,0.9,3
			c-0.1,0.2-0.3,0.2-0.5,0.2c-1.7-2.4-3.3-4.7-4-7.5c-0.4,0.4-1,0.2-1.2-0.3c-0.4-1.6-0.6-3.3-1.8-4.6c-0.2-1.9-0.2-4-1.6-5.4
			C57,54.2,57.2,54,57,53.9c-0.1-0.1-0.2-0.3-0.4-0.3c-0.4,0.4-0.1,1,0,1.5c1.8,2.3,1.6,6,0.6,8.6l-0.4,0.5l0.1,0.1
			c-1.5,1.3-3.2,3.3-5.5,3.1c-1.5-0.2-3.3-0.2-4.7-0.9c-0.8-1.3,0.4-2.3,0-3.6c0.6-1.1,0.6-2.7,1.6-3.4l0,1.1c0.7-1,1.2-2.1,1-3.3
			c-1.1,0-0.6-1.4-0.7-2c-0.4-1,0-2.5-1.3-2.9c-0.2,0.5,0.2,1.3,0.4,1.9c-0.2,0.8,0.6,1.5,0,2.2c-0.2,0-0.3-0.4-0.6-0.4
			c0.1,0.6,0.3,1.4,0.2,2.2c-0.6,0.2-0.7,0.7-0.7,1.2l0.2,0.2c-1,1.6-1.4,3.9-3.2,4.9c-0.9-0.4-2-1-3.2-1.2
			c-0.2-0.3-0.7-0.5-0.4-0.9c1.5-0.9,2,0.9,3.3,1c0.6-0.3-0.1-0.7-0.2-1.1c-0.7-1.1-2.3-0.1-2.6-1.4c0.2-0.7,0.3-1.6,0-2.2
			c-0.3-0.1-0.5,0.2-0.5,0.3c-0.3,3.4-2.9,5.6-3.7,8.7c-1.1-1,0.8-2.1,0.2-3.2L35.9,65c-0.1-1.8-0.5-4.3,0.4-5.8
			c-0.7-0.6-0.2-1.6,0-2.4c0.2-0.7,1-0.8,1.6-0.9c1.3,0.1,2.2,0.6,3.6,0.6c0.9,0.2,2.3,1.1,2.9,0.1c-0.5-0.7-1.3-0.1-1.8-0.3
			c-0.3-1,1.1-1,1.4-1.7c-0.7,0.2-1.6,0.6-2.3,0.9c-0.6-0.8-1.2-1.7-0.9-2.7c0.7-1,1.6-1.7,2.3-2.7c-1.1-0.3-1.4,1.3-2.4,1.4
			c-0.1-2.3,1.4-4.6,2.9-6.3c-0.1-0.3-0.5-0.2-0.7-0.1c-2.1,2.2-4,5.2-3.1,8.4l-0.2,1.7c-0.9,0.1-1.8,0.2-2.7-0.2
			c-0.7-1.1-0.3-2.7-1-3.9l-0.2,0c-0.1,1.3,0.4,2.7-0.3,4c-0.6,0.1-0.5-0.6-0.7-0.9c-0.4-1,0.1-2.4-0.6-3.1c-1,1.5,2.2,5.3-1.2,4.7
			c-1.3-1.3-0.1-3.5-1.2-4.9c-1,0.2-0.2,1.5-0.5,2.1c0,0.8,0.7,1.6,0.1,2.3c-0.7-0.2-1.4-0.6-1.8-1.3c0.3-1.1-0.3-2.1-0.5-3.1
			c0.3-1.9-0.9-3.9,0.7-5.3L30.1,42.9 M77.9,49.4c0.3,0.7-0.6,1-0.9,1.5l-0.3,0C76.4,50.1,77.4,49.7,77.9,49.4z M57.8,16.1
			c-0.1,0.3-0.4,0.2-0.6,0.3c-0.4-0.2-1.3,0-1.2-0.6C56.6,15.9,57.6,15.2,57.8,16.1z M55.9,11.8c0.3,0.6-0.1,1.2-0.4,1.7
			c-0.4,0.2-0.9,0.4-1.3,0.1c-0.2-0.1-0.3-0.3-0.3-0.6C54.9,13,55.2,12.2,55.9,11.8z M27.4,32.5l-0.3-0.1l0.1-0.2
			c0,0,0.1,0.1,0.2,0.1L27.4,32.5z M54.8,30c-0.1-0.1-0.3-0.1-0.4-0.3c0-0.4,0.7-0.3,0.9-0.2C55.5,30,55,29.8,54.8,30z M56.6,31.7
			l0.1-0.3c0.3,0.2,0.7,0.6,0.5,1C56.7,32.5,56.9,31.8,56.6,31.7z M57.6,33.3c-0.4-0.1-0.5-0.5-0.3-0.8c0.5-0.1,0.3,0.4,0.5,0.6
			L57.6,33.3z M58.4,32.3c-0.7,0.1-0.3-0.7-0.7-0.9l-0.6-0.9c0.7,0.1,0.9,0.9,1.4,1.4C58.5,32.1,58.3,32.1,58.4,32.3z M62.3,29.2
			c0.5,0.2,0.3,0.8,0.2,1.1c-0.1,0.2-0.4,0.1-0.6,0.1C61.6,30,62.1,29.5,62.3,29.2z M61.8,29c0.1,0.2-0.1,0.3-0.2,0.4
			c-0.2-0.2-0.5-0.1-0.7-0.4C60.7,28.3,61.7,28.6,61.8,29z M53.1,15.1l0,0.3c-0.4,0.2-0.9-0.1-1-0.5C52.3,14.5,53,14.6,53.1,15.1z
			 M48,6c0.5-0.3,0.9-0.8,1.6-0.7c-0.2,0.5-0.5,1.2-1.1,1.3C48.2,6.5,47.7,6.4,48,6z M34.1,15.1c-0.1,0.1-0.2,0.1-0.3,0.1l-0.1-0.5
			C33.9,14.7,34.2,14.8,34.1,15.1z M30.7,15.1c-0.1,0.2-0.2,0-0.4,0.1c-0.4-0.2-0.3-0.7-0.4-1C30.6,14.1,30.5,14.8,30.7,15.1z
			 M29.8,21l0,0.3c-0.6,0.2-0.7-0.5-0.7-0.9C29.5,20.4,29.7,20.7,29.8,21z M30.6,26.3c-0.8,0-1.3-0.9-1.9-1.4l0.1-0.3
			c0.8,0.2,1.6,0.6,1.9,1.3L30.6,26.3z M32,25.2c-0.5-0.4-1.5-0.2-1.6-1c0.5-0.2,1.5,0.4,1.8,0.8L32,25.2z M33.6,26.7
			c0-0.5,0-1,0.4-1.2C34,26,34,26.5,33.6,26.7z M32.6,22.7c-0.4-0.4-0.9-0.6-1.1-1.2c0.2-0.5-0.3-1.2,0.2-1.8
			c0.9,0.7,1.1,1.6,2.2,2.1l0.3,0.6C33.6,22.8,33,22.9,32.6,22.7z M37.1,18.9c-1.5,0.5-1-1.4-1.9-1.8c-0.2,1,0.6,1.9,0.5,3
			c-0.6,0.1-1.7-0.1-2.3-0.2c-1.3-0.2-0.7-1.9-1.7-2.3c0.4-0.6-0.5-1.6,0.4-1.7c0.1,0.5,0.5,0.8,0.7,1.2c0.3-0.4,0.9-0.1,1.1,0.1
			c0.1,0.6,0.4,1.1,0.8,1.6c0.3-0.6-0.3-1.5,0.2-2.2c0-0.2-0.3-0.5-0.1-0.7c0.3-0.3,0.8-0.2,1.1,0c-0.1,0.3,0.1,0.6,0.2,0.9
			c0.9-0.1-0.2-1.4,0.8-1.4l0.4,0.6C37,17,37.7,18,37.1,18.9z M39.3,14.3c-1.7,0.3-0.1,2.4-1.2,3c0-1.6-0.4-3-0.9-4.3
			c0-0.6,0.6-1,1.1-0.6c0.7-0.8-1-1.3-0.2-2.2c0.7,0.4,0.6,1.3,1.2,1.9C39.3,12.6,39.6,13.6,39.3,14.3z M45.5,13.2
			c0.1-0.2,0.4-0.3,0.7-0.3C46.1,13.2,45.8,13.1,45.5,13.2z M45.8,12c-0.3,0-0.1-0.4-0.5-0.4c-0.2,0.6-0.7,0.9-1.2,1.2l-0.5,0
			c-0.1-0.4,0.7-1,0.1-1.2c-0.6,0.1,0,0.9-0.6,1c-1-0.5-1.7,0.7-2.3,1.1c-0.2,0.2-0.3,0.4-0.6,0.3c-0.6-1.3-0.2-3.1-0.1-4.4
			c0.1,0.2,0.1,0.5,0.4,0.6c0.5-0.1-0.1-0.9,0.5-0.9c0.1,0.3,0.4,0.2,0.6,0.2c0.5-0.8,1-1,1.8-0.5c0.2-0.2,0-0.4,0.2-0.6
			c0.4,0.1,0,0.8,0.4,1c0.1-0.2,0.6-0.5,0.3-0.8c0.5-0.4,1,0.2,1.4-0.4c0.3,0.8-1,1.5-0.3,2c-0.1-1.3,1.4-0.3,1.3-1.6
			c0.7-0.2,0.2-1,0.6-1.5c0.4-0.1,0,0.4,0.3,0.5l1.2-0.2c-0.7,0.5-1,1.2-1.6,1.9c0.4,0.1,1-0.2,1.3-0.6l-0.1-0.3
			c1.2-0.6,2-1.6,3.4-1.7l0,0.1c-0.9,2.1-2.5,3.7-4,5.6C47,12.5,46.4,11.9,45.8,12z M46.1,17.5c0.5-0.8,0.7-2,1.7-2.1
			c0.2,0.5,0.3,1,0.7,1.3c0.5-0.2-0.1-0.5,0.1-0.8c0.8,0.1,1.8,0.9,2.6-0.2c0-0.1-0.1-0.2-0.2-0.3c-0.6,0.1-1.1,0.6-1.7,0.2
			c-0.8-1.1,1.2-1.3,0.9-2.6c0.3-1.1,1.1-2.1,1.9-2.7c-1,1.2,1.1,1.7-0.2,2.7c0.2,0.9-1,1.5,0.1,2.3c0.5,0.6,2.3,0.9,1.4,2.1
			l-1.2,0.3c0.1,0.5,0.8,0.2,0.7,0.7c-0.3,0.6-1.2,0.4-1.8,0.4c-0.5-0.9-1.3-1.2-2.1-1.8L49,17.4c1.2,0.9,1.9,2.2,2.6,3.4
			c0.2-0.3,0.5-0.3,0.8-0.1c0.1,0.2,0.3,0.5,0.1,0.7c0.5,0,0.9,0.9,1.3,0.5c-0.1-0.2-0.5-0.4-0.5-0.7c0.1-0.2,0.5-0.2,0.6-0.1
			c0.6,1.5,2.3,2.2,3.4,3.5c0.5-0.3-0.1-0.5-0.2-0.9c-0.7-0.8-2.5-1.4-2-2.7c-0.4-0.6-0.9-0.7-1.3-1.3c-0.1-1.1,1-0.3,1.4-0.5
			c0.2-0.6-0.2-1-0.4-1.4c0.3-0.4,0.7,0,1.1,0c0.3,0.6,0.2,1.4,0.2,2.1c2,1.6,3.4,4.1,4.4,6.4c0.3,0.5,1.1,0.9,1,1.5
			c-0.2,0.2-0.5,0.1-0.8,0.2c-0.6-0.6-0.4-2-1.6-2c-0.3-0.5-0.8-0.2-1.3-0.3l-0.1,0.1c0.5,0.3,1,0.7,1.4,1.2c-0.1,0.8-0.8,1.6,0,2.2
			c0.5-0.5-0.2-1.5,0.8-1.4c0.1,0.9-0.8,1.9,0.2,2.8l-0.1,1.3c-1-0.2-1.7-1.5-2.6-2.3c0-1.7-2-0.5-3-0.6c-0.4,0-0.8-0.4-1-0.7
			c0.3-0.7,0.8-1.3,1.3-1.8c0.8,0,1.4-0.6,2.2-0.8l-0.2-0.2c-1,0.2-2.4,1-3.3,0.2c-0.9,0.5-1.2,1.4-2.1,2c-1.9,0-2.9-1.7-4.4-2.6
			c0.3-1.9-0.6-3.3-1.1-4.9c-0.8-0.3-0.1-1-0.2-1.6C45.9,18.1,46.3,17.8,46.1,17.5L46.1,17.5z M53.4,19.8c-0.1,0-0.3,0.1-0.5,0.1
			l-0.2-0.2c0.1-0.2,0.4-0.5,0.6-0.2C53.4,19.6,53.4,19.7,53.4,19.8z M44.7,23.6c0.5-1.9-0.3-3.6,0.2-5.5c0.4-0.7,0.6-1.5,1.1-2.1
			c-0.2,1.5-1.2,3.1-0.7,4.9c0,1.3,0.6,2.3,0,3.4C44.9,24.4,44.9,23.9,44.7,23.6z M47.5,34.7c0.2-0.1,0.4,0.1,0.5,0.3
			c-0.1,0.2-0.4,0.3-0.7,0.3C46.9,35.1,47.4,34.9,47.5,34.7z M44.6,36.7l-0.4-0.3l0.4,0.1L44.6,36.7z M45.3,35.7
			c-0.2,0.4-0.7,0.3-1,0.2c0.2-0.4-0.2-0.6-0.2-1C44.6,35,45.7,35,45.3,35.7z M45.6,36.6c0.1-0.4,0.7-0.6,1-0.2
			c-0.3,0.4,0.2,1.1-0.7,1.2C45.4,37.5,45.4,36.9,45.6,36.6z M47.9,38.8c-0.4,0-1,0.4-1.3-0.1c-0.1-0.2-0.3-0.3-0.2-0.5
			c0.9-0.2,1.4-1,2.4-1C49.2,38.1,48.3,38.3,47.9,38.8z M48.8,41.7c-0.2,0-0.5-0.3-0.4-0.5c0.2-0.7,1.4-0.2,2-0.7
			c0.1,0,0.2,0.1,0.3,0.2C50.3,41.4,49.5,41.4,48.8,41.7z M49.3,42.6L49,42.3c0.2,0,0.3-0.1,0.4,0.1C49.4,42.5,49.3,42.6,49.3,42.6z
			 M50,42.3l-0.3,0l0-0.2C49.8,42,49.9,42.1,50,42.3L50,42.3z M70.7,55.2c0.3-0.6,1.5,0,2.2,0.3C72.2,55.8,71.2,55.6,70.7,55.2z
			 M73.2,50.6c0.8-0.4,1.8-0.9,2.7-0.4c-0.4,0.4-1.6,1.1-2.6,0.7C73.1,50.8,73.2,50.7,73.2,50.6z M76.3,45.5c0.2,0.2,0,0.4-0.2,0.6
			l-0.3,0C75.8,45.7,76,45.3,76.3,45.5z M74.9,42.2c0,0.3-0.4,0.4-0.4,0.7l-0.2,0C74,42.5,74.4,41.9,74.9,42.2z M74.3,46.1
			c0.3-0.1,0.3,0.1,0.4,0.3c-0.1,0.6-0.7,0.7-1.1,0.9l-0.3,0C73.4,46.7,73.7,46.2,74.3,46.1z M74.6,48c0.4,0.3,1.4-0.8,1.5,0.1
			c-0.9,0.7-1.9,1.3-3,1.1C73.2,48.4,74.1,48.6,74.6,48z M71.8,39.8c0.2-0.1,0.3,0.1,0.4,0.2c0,0.1,0.1,0.3-0.1,0.4l-0.3,0
			L71.8,39.8z M75,52.7c-0.8,1.3-2.6,0.6-3.8,1.1l-1.3-0.1l0-0.4c0.6,0,1.3,0.1,1.8-0.2c-0.6-0.6-1.5-0.2-2.2-0.8
			C71.2,51.7,73.4,52,75,52.7z M70.9,42.2l0.3-0.2c0.1,0.3,0.5,1,0,1.1C70.9,42.9,70.9,42.5,70.9,42.2z M68.1,45.8
			c0.7,0.4,1.3-1.2,1.6,0l-0.8,1.6c-0.4,0.3-0.9,0.5-1.4,0.5C67.2,47.1,68,46.6,68.1,45.8z M64.4,48.1c1.1,0.3-0.4,0.9-0.3,1.4
			c-0.2,0.1-0.6,0.4-0.8,0C63.5,49,63.8,48.3,64.4,48.1z M60.8,51.4c0.1-0.5,0.6-0.5,1.1-0.7c2.9-0.6,5.8-1.5,8-3.7
			c0.3-0.1,0.6,0.1,0.7,0.4c-1.1,0.4-0.1,2.2-1.8,1.8c-0.9,0-1.7,0.6-2.6,1.1C64.6,51.1,62.7,51.6,60.8,51.4z M65.9,62.3
			c0.5,0.3,0.7,1,0.8,1.6C66.1,63.8,66.2,62.9,65.9,62.3z M22.3,88.4c-0.1,0.9-0.2,2.1-1.4,2.1c-0.5-0.8-1.4-0.8-1.9-1.4
			c0.5-0.6,1.1,0.1,1.7-0.5C21.3,88.6,21.9,88.8,22.3,88.4z M23.2,84c-0.7,0.1-1.3,0.2-2,0.4c-0.3-0.3-0.5-0.5-0.4-0.9
			c0.8-0.7,0.9-1.5,1.6-2.3c-0.1-0.5,0.9-0.5,0.7-1.2l0.2,0C23.8,81.4,23.3,82.8,23.2,84z M23.5,79.3l-0.2,0l0-0.3
			c0.1,0,0.2,0,0.3,0.1C23.6,79.2,23.5,79.3,23.5,79.3z M27.2,53.1c-0.4-0.1-0.4-0.7-0.7-1c-0.2-1.9,0.1-3.6,0.7-5.2l0.3-0.1
			c0.1,0.8-0.3,1.6-0.5,2.4C27.3,50.4,27.1,51.8,27.2,53.1z M26.9,63.4c0.2,0.1,0.5,0,0.6,0.2c-0.3,0.4-0.3,1-0.9,0.9
			C26.6,64.2,26.7,63.8,26.9,63.4z M26,73.3c-0.5,0.4-0.6,1.2-1.1,1.5c0-0.7,0.4-1.5,0.7-2.2C26,72.6,26.4,73,26,73.3z M27.4,67.8
			c0.9,0.9-0.1,2.4-0.2,3.6c-0.2,0.3-0.2,0.7-0.7,0.8c-0.9,0.2-1.6-0.4-1.9-1.1l-0.1-0.7c0.3-0.3,0.6,0.3,0.9-0.2
			c-0.4-0.7-0.8-1.7-0.3-2.5c0.7-1.3,1.9-2.4,2.9-3.4c1.1,0.2,0.6-1.7,1.8-1.8l0.1,0.3L27.4,67.8z M31.5,58.6
			c-0.7-0.4-1.7-0.4-2.1-1.4l0-0.7c1.1,0.5,2.3,0.7,3.2,1.5C32.5,58.7,31.9,58.4,31.5,58.6z M32.7,81.7l-0.4,0
			c-0.3-0.8,0-1.7,0.5-2.4c0.5-0.1,0.5,0.6,0.7,0.8C33.5,80.8,33.3,81.4,32.7,81.7z M33.4,72.7c0.3-1.3,0.8-2.5,1.3-3.7l0.2,0
			C34.5,70.3,34.5,71.8,33.4,72.7z M34,79.3l-0.2,0l0-0.9c0.4-0.1,0.3,0.3,0.3,0.5C34.1,79,34.2,79.2,34,79.3z M34.9,75.9
			c0,0.2,0.1,0.5-0.2,0.6l-0.2,0c-0.3-0.8,0.7-1.6-0.2-2.2c-0.5-0.8,0.4-2.2,1.2-1.4C35.4,73.8,35.9,75.4,34.9,75.9z M44.3,74.4
			c-0.9-0.5-1.5-1.6-1.9-2.5c-0.6-1.5-0.6-3.4-0.5-4.9c0.6-0.6,1.3,0.3,1.6,0.8c-0.3,1.7-0.1,3,0.9,4.6C44.5,73,44.6,74,44.3,74.4z
			 M38.7,97.1L38.7,97.1c-0.2-0.4-0.2-1.2,0.4-1C39.2,96.4,39.1,96.9,38.7,97.1z M41.5,97.1c-0.5,0.2-1.2,0.3-1.8,0.2
			c-0.3-0.6,0.2-1.1,0.4-1.7c0.6-0.6,1.6-0.2,2.4-0.5C42.3,95.9,41.9,96.5,41.5,97.1z M44.4,91.1c-0.6-0.4-1,0.5-1.3,0.9L43,93
			c-0.1,0-0.2,0-0.2,0.1c-0.1-0.7-0.9-1.4-0.3-2.2c0.4-0.7,1.3-0.8,2-1.3c0.2,0.3,0.1,0.7,0.5,0.8C44.7,90.6,44.7,90.9,44.4,91.1z
			 M47.2,85.9L47,85.8c0.3-0.5,0.7-1.2,1.2-1.3C48,85,47.8,85.7,47.2,85.9z M50.6,75.5c-0.5,0.1-0.3-0.7-0.7-0.8
			c-0.2,0.9,0.2,1.9,0.7,2.7c0.5,1.2,2.3,0.1,2.4,1.7c-0.1,2.4-3,3.2-4.1,5l-0.4,0c0.1-1.5,2.1-2.2,2-3.8c-0.6-0.5-1.6-1-1.8-1.8
			c0.1-0.7,0.8-0.9,0.9-1.7c-0.6-0.4-0.9-1.8-1.8-0.8c0.3-1.5,1.1-3.2,2.4-4.2c0.3,0.7,0.1,1.6,0.4,2.4
			C50.6,74.5,50.9,75.1,50.6,75.5z M57.9,66.7c0-0.6,0.8-0.4,1-0.2c0.6,0.6,1.3,1,1.4,1.9C59.4,68.1,58.7,67.3,57.9,66.7z
			 M58.7,64.8c-0.3-1.1,0.3-2,0.3-2.9c1.3,1.7,0.6,4.2,2.9,5.2c0.2,0.7,0.6,1.3,0.7,2C61,68.2,60.3,65.9,58.7,64.8z M67.6,77.2
			c-0.2-0.3-0.6-0.8,0-1c0.4,0,0.7,0.4,0.7,0.7C68.1,77.2,67.9,77.4,67.6,77.2z M79.6,89c-0.5,0.3-1.2,1-1.8,0.4
			c-0.3-0.7,0.1-1.4-0.6-1.8c-0.1-0.7-1.4-1.1-1.3-1.9c-1.1,0,0.1-1.1-1.1-1.1c-0.1-0.8-1.2-1.2-0.9-2c1.4,2,3.5,4.2,5.4,5.7
			C79.5,88.6,79.7,88.8,79.6,89z M80.8,95.2c-0.6,0.1-1.3-0.1-1-0.8c0-0.7,1-0.7,1.1-1.3c0.6,0.1,0.6,0.7,0.6,1.1
			C81.6,94.8,81.2,95,80.8,95.2z M81.6,93.3l0.2-0.5c0.3,0.1,0.7,0.3,0.7,0.6l0,0.3C82.1,93.9,82,93.4,81.6,93.3z"/>
	</g>
</g>
</svg>
