<?xml version="1.0" encoding="utf-8"?>
<!-- Generator: Adobe Illustrator 18.1.1, SVG Export Plug-In . SVG Version: 6.00 Build 0)  -->
<!DOCTYPE svg PUBLIC "-//W3C//DTD SVG 1.1//EN" "http://www.w3.org/Graphics/SVG/1.1/DTD/svg11.dtd">
<svg version="1.1" xmlns="http://www.w3.org/2000/svg" xmlns:xlink="http://www.w3.org/1999/xlink" x="0px" y="0px"
	 viewBox="0 0 100 100" enable-background="new 0 0 100 100" xml:space="preserve">

	 
<g id="AREA_1">
	<path d="M85.6,49.9c-0.6-0.8-1.2-1.7-1-2.8c-0.1-1.3-1.3-2.3-2.3-3.2c-1.6,0.3-2.6-1.8-4.3-0.6c-0.5,0.2-0.9,1.4-1.6,0.7
		c-1.4-0.3-2.4,1.2-3.4,2.1H73c-0.4-0.3-0.5-0.7-0.4-1.2c-1.2-1.8-2.5-3.4-3-5.5c0.2-3.2-0.4-6-1.8-8.5c0.4-0.3,0.5-0.8,0.7-1.2
		c0-2.5,0.4-5.1,0.4-7.5c0-0.8,0.1-1.5,0.2-2.3c0.3-0.4,0.1-0.9,0.4-1.3c0.1-1.2,0.4-2.3,1.2-3.1c1.4-1.1,2.4-2.7,2.1-4.5
		c0-0.5,0-0.8-0.2-1.3c-1.2-1.2,0.4-3.5-1.4-4.2c-0.3,0-0.4,0-0.4,0.3c-0.1,0.3-0.4,0.4-0.8,0.4c-0.7-0.7-0.7,0.4-1.4,0.4
		c-0.9,0.3-1.1,1.3-1.2,2.1c0.3,2.1-1.5,3.4-0.9,5.7c-0.1,4.2-4.2,6.8-4.3,11.1c0.1,3.9-0.1,8.3-0.2,11.7c0.1,3,1.9,5.3,1.5,8.4
		c-0.9,0.8-2.3,0.1-3.4,0.4l-0.4-0.2c-1.4-0.5-1.1-2.2-1.6-3.3c-1.6-1.5-4.1-0.6-5.9,0c-1-0.9-1.7-1.9-2.3-3
		c-1.1-3.8-2.7-7.4-5.4-10.5c-1-1.8-3.1-1.4-4.9-1.5c-6.4-0.5-10.7-5.6-15.6-9.2c0.1-0.9-1.1-1.2-0.7-2.2c-1-0.2-2-0.6-2.5-1.6
		c-0.9-3.2-0.3-7.2-0.8-10.6l-1.2-1c-1,0.3-2.1,1.2-2.4,2.2c-0.3,1.1-1,2.1-1.3,3.2c0,0.7,0.5,1.7-0.2,2.2c-0.3,1-0.4,2.2-1,3.1
		c-0.9,1.2-1.1,2.4-0.9,4c-0.1,1.3,1.5,1.4,2.3,1.9c2-0.1,3.3,1.6,4.8,2.8c0.2,0.6-0.1,1.1-0.3,1.5c-0.7,1.1-0.4,2.7-0.2,4
		c2,0.7,4,1,6.3,1c0.6,0.6,1.2,1.2,1.7,1.7c2.1,1.8,5.2,1.3,7,3.7c0.8,1.2,1.7,2.4,1.7,3.9c0.2,0.4,0.7,0.4,1,0.7
		c0.2,1.4,1.6,2.1,1.9,3.5c0.1,1.8,2.1,3,1.5,5c-0.4,0.7,0.8,1.1,0.5,1.9c-0.2,0.1-0.4,0.5-0.7,0.4c-4.5-1.6-9.2,0.3-12.6,3.3
		c-2.5,1.8-5.6,2.1-7.9,4.4c-2.4,2.3-5.6,4.5-6.7,7.7c-0.3,1.6-0.1,3.3,1.1,4.5c1.5,1.5-0.1,3.9,1,5.6l6.3,6.4
		c0,1.5,0.2,3.2,0.3,4.7l1.6,0.2c0.6,2-2.1,2.7-1.9,4.7c0.3,0.7,0.9,1.3,1.7,1.4c1.2,0.3,2.6,0,3.6-0.9c0.1-0.5-0.1-1.1,0.4-1.4
		c0.2-0.2,0.6-0.3,0.9-0.2c0,0.3,0,0.6,0,0.9c0.4,0.7,1.2,0.7,1.9,0.8l0.3,0.9c1.1,1.1,0.7,2.6,0.7,4.1c0.1,0.8,1,1.2,1.6,1.4
		c1.4,0.3,2.7-0.3,3.6-1.4c1.1-1.7,1-4.3,0-6c-0.3-0.7-0.7-1.4-1.1-2.1c-0.7-1.3-0.7-2.9-0.6-4.5c-0.7-0.7-1.4-1.3-2.3-1.4
		c-0.4-0.2-0.9,0.1-1.3-0.2c-1-3.7-3.1-7.4-6.6-9.5c0-0.2,0-0.4,0.2-0.6c1.8-0.4,3.3-2,4.6-3.4l2.1-0.2c2.9,0,4.5-2.8,6.4-4.5
		c1.2-0.8,2.2,0.4,3.2,0.9c3.7,0.9,6.3,4.3,10.2,4.7l0.1,0.1c0.3,1.9,0.4,4.1,2.3,5.3c2.4,1.2,4.9,0.9,7.5,0.6
		c0.8,0.1,0.6-0.7,0.7-1.2c0.9-0.5,1.7-1,2.2-1.8c-0.8-1.3-0.8-3-0.7-4.7c0.7-0.1,0.5-0.9,0.4-1.3L62.9,66c-0.4-0.4-0.4-1-0.3-1.5
		c-0.7-0.6-1.4-1.3-1.3-2.2c0.2-0.1,0.4-0.2,0.6-0.2c1,0.7,2.2,1,3.4,1.2c1.1,0.5,1.5,1.7,2.6,2.5v4.9l0.5,0.3
		c-0.1,1.6,0.4,3,0.7,4.4c-1.3,1.8-0.6,4.6,0.1,6.5c0.3,0.8-0.1,1.8,0.3,2.6c1.1,1,0.7,2.5,1.2,3.7c-0.5,1.8-0.9,3.9-0.8,5.7l2-0.2
		c0.7,0.8,1.5,1.5,2.2,2.1c0.9,0.5,2.3,0.4,3.3,0.1v-0.8c-1.6-1.3-2.7-3.2-3.1-5.3c0-0.3,0-0.5-0.1-0.8c-0.1-2,0.2-3.8,0.4-5.8
		c0-0.7,0.1-1.4,0.1-2.2l-0.1-0.3c0.1-1.3-0.5-2.5-0.6-3.8c-0.4-2-0.2-4.2,0.3-6.1c1-1.7,0.4-3.8,0.6-5.7c0.6-2,1.1-4.3,0.6-6.2
		c-0.1-0.6-0.2-1.3,0.4-1.7c0.4,0.1,0.9,0.2,1.4,0.2c0.2-0.1,0.5-0.1,0.5-0.4c0.2-0.7,0.8-0.4,1.3-0.3c1.6,0.5,3.2,0,4.3-1.4
		c0.1-0.5,0-1,0.3-1.4c1-0.9,0.7-2.3,0.7-3.4C84.6,50.2,85.1,50.1,85.6,49.9z M17,17.7c-0.2,0.4-0.5,0.7-0.9,0.8
		c-0.3,0-0.5-0.3-0.7-0.5c0.2-0.7,0.8-1.1,1.3-1.6C17.4,16.4,16.9,17.3,17,17.7z M22.1,27.3c-0.4,0.1-0.7,0.3-1.1,0.2
		c-0.5-0.2-0.7-0.7-0.9-1.1c-0.2-1,0.2-1.9,0.7-2.7C21.9,24.5,22.2,25.8,22.1,27.3z M25.5,22.3c-0.4,0.9-0.7,1.8-1.4,2.5
		c-0.4,0.1-0.7-0.1-1-0.2l-2.5-3.2c0.4-0.9,0.8-1.7,1.3-2.6c1.3,0.1,2.1,1,3.1,1.7C25.5,20.9,25.6,21.6,25.5,22.3z M13.7,65.1
		c1.4-2.6,4.1-4.7,6.2-6.8h0.4c0.1,1.4,1.1,3.1-0.4,4.2c-1.4,2.1-3.4,4.1-4.1,6.6c-0.2,0.1-0.4,0.3-0.6,0.3
		C14.5,68.1,13.3,66.9,13.7,65.1z M23.2,90.8c-0.3-0.3-1.1-0.8-0.4-1.2c0.5,0,0.9,0.4,1.3,0.9l0,0.2C23.9,90.9,23.5,90.9,23.2,90.8z
		 M33.6,95.5c0.4-0.2,1.2-0.9,1.4-0.1c0.1,0.6-0.5,0.7-0.9,0.9c-0.6,0.2-1.4,0.1-2-0.1c0-0.3,0.1-0.5,0.2-0.8
		C32.6,95.5,33.2,95.6,33.6,95.5z M31.9,93.1c-0.6-1.2-1-2.6-0.7-4C31.4,90.4,33.9,91.8,31.9,93.1z M30.7,85.4c0-0.7,0.9-0.4,1.1,0
		c0.1,0.5,0.1,1.1-0.4,1.5l-0.2,0.2C30.7,86.7,30.5,86.1,30.7,85.4z M28.6,80.8c0.4,0.1,0.9,0.4,1,0.9c0.2,0.5-0.2,1.3,0.6,1.4
		c0.3,0.2,0.3,0.7,0.1,1c-0.3,0.4-0.7-0.1-1.1,0c-0.7,0-1.2,0.6-1.7,1c-0.6-0.5-1.2-1-1.2-1.8L28.6,80.8z M25,71
		c-0.9,0.6-2,0.9-3,1.2c-0.2,0.2-0.2,0.4-0.2,0.6c1-0.1,2,0.3,2.6,1.1c0.5,1.4-0.5,2.6-1.4,3.6l-1.7,1.4l-0.6-0.3l-4.9-4.9
		c-0.5-2.1,0.6-3.7,1.5-5.3l0.5-0.2c1.1-2.4,3-4.3,4.5-6.5c1.5,1,4.1,2.2,3.8,4.5c0.5,0.3,0.9,0.8,0.9,1.3
		C26.9,68.9,26.2,70.2,25,71z M60.3,47.9c1.1-1.1,2.6-1.1,4-1.3l0.1-0.1c0.3-2.6-0.9-4.8-0.5-7.5c-1.7-2.1-0.9-5.1-0.7-7.5
		c0.1-0.1,0-0.4,0.1-0.5c0.3-0.1,0.5-0.1,0.7,0.1c0.3,0.3,0.1,0.8,0.3,1.1c0.4-0.3,0.9-0.4,1.4-0.8c-0.7-0.7-0.6-1.7-0.4-2.6
		c0.5-0.5,0.7-1.3,0.5-2c-0.3-0.2,0-1.1-0.6-0.8c-0.6,0-0.3,0.6-0.4,1l-1.4,2.8c-0.2,0.2-0.3-0.1-0.4-0.1l-0.1-0.1v-3
		c0.9-0.4,0.3-1.1,0.4-1.7c-0.4-1.3,1.2-1.8,0.9-3.1c0.4-0.4,0.9-0.7,0.7-1.4c0.3-0.5,0.6-0.7,1-1c0-1.1,0.3-2.1,1.3-2.8
		c0.4-2-0.5-4.5,1.3-6c0.8,0.3,1.3-0.4,2.1-0.3c0.5,0,0.8,0.2,1,0.6c0.3,0.6,0.4,1.3,0.1,2c-4.1,3.9-3.9,9.6-3.8,15.1
		c-0.7,1.3-0.7,2.8-0.7,4.4c1.1,0.6,0.3,2,1.3,2.7c0.6,1.4-0.3,3.4,0.7,4.7c0.7,0.9,0.8,2.1,1.6,3c0.2,1.4,1.8,2.5,1.3,4
		c0.1,1.6-2.6,3-0.9,4.6c-0.6,0.6-1.2,1.2-1.8,1.7c-1-0.5-2.4,0-3.4-0.6c-0.6-0.5-1.8-0.7-1.6-1.7c-0.2-0.4-0.6-0.6-1-0.9
		c-0.8,0.7-0.9,1.7-0.7,2.7c0.7,1.3,2.2,1.5,3.4,1.9c-2.1,0.8-4-0.6-5.7-1.7c-0.6-0.3-1-1-1.3-1.6C58.8,50,59.9,49,60.3,47.9z
		 M38.8,27.9c0.9,0.4,2,0.4,3,0.4c0.1,0.4,0.4,0.7,0.7,0.9l1,0.2c0.9,1.9,2.6,3.6,3.4,5.5c0,0.4,0.8,0.9,0.1,1.1
		c-0.6,0.1-0.7-0.7-1.3-0.9c-2.3-2.2-4.7-4.4-7.2-6.8L38.8,27.9z M39.4,41.2c-0.5-1-0.7-2.2-1.7-3.1c-1.3-1.3-1.3-3.2-2.9-4.4
		c0.1-0.7,0.3-1.3,0-2c-0.2-0.4-0.6-0.6-1-0.7c-0.9-0.2-1.4,0.8-2.2,0.3L28.9,30c-0.1-0.6,0.4-1.1,0.8-1.5l1.7-3.1
		c1.1,0.4,1.9,1.6,3.1,1.6c1.6,0,3.2,1.2,4,2.6c1.4,1.9,3.6,3.4,5.6,4.7c1.2,0.9,1.8,2.2,1.5,3.7c-0.6,1.9-2.4,4-4.5,4.3
		C40.3,42.3,39.6,41.8,39.4,41.2z M41.3,45.6c2.6-1.1,5.5-3.3,6.4-6.2c0.5,0.9,1.9,1.2,2.2,2.3l0.1,0.4l2.3,2.3
		c-1.3,1.5-2.5,3-2.1,5.2c-0.2,1.1-1.2,1.8-1.6,2.8c-0.7-0.2-1.2-1.1-2.1-0.7C45.2,50.3,43,51,42,49.1
		C41.1,48.2,41.4,46.7,41.3,45.6z M51.3,67.5c-0.4,0.6-1.3,0.9-2,0.7c-2.6-1-4.5-3.8-6.6-5.8c-0.6-0.8-0.9-1.9-0.7-3
		c0.9-2.6,3.7-3.9,6-4.5c0.7,0.7,0.1,1.7-0.2,2.5c0.2,0.1,0.4,0,0.6,0c0.5-0.9,0.7-2,1.1-3c0.6-2.1,1.3-4.2,1.4-6.5
		c0.4-1.9,2.4-3.2,4-4c0.8,0.3,1.7,0.6,2.6,0.7c-0.4,0.2-0.9,0.3-1.1,0.7c-0.4,1-0.2,2.3-0.8,3.2c-1.2,1.1-0.1,3.2-1,4.4
		c0,0.4,0.7,0.7,0.6,1.3c-0.4,1.9-1.6,4.2-0.4,6.1c-0.4,0.7-1.1,1.2-1.3,2C54.2,64.6,52.2,65.9,51.3,67.5z M56.5,70.8
		c-0.1,0.2-0.3,0.4-0.4,0.5c-0.2-0.2-0.4-0.5-0.2-0.9l0.4-0.4C56.5,70.2,56.5,70.5,56.5,70.8z M54.1,66.6c-0.2-0.1-0.2-0.3-0.3-0.5
		c-0.1-1,0.6-1.6,1.3-2.3c-0.5-0.7,0.3-1.2,0.4-1.8c0.1-0.3,0.2-0.7,0.4-1c0.5,1,2.1,0.3,2.2,1.5C57.4,64.4,55.7,65.7,54.1,66.6z
		 M59.8,74l-1.9-0.7l0.2-0.5c0.9,0.2,1.7,0.6,2.5,1C60.4,74,60,74.2,59.8,74z M61.6,65c-0.1,0.6-0.2,1.2,0,1.7
		c0.1,0.5,1.1,0.6,0.6,1.1l-0.6,0.9c-0.1-0.2-0.3-0.4-0.5-0.6c-0.3,0-0.7-0.2-1,0c-0.4,0.5-1,1-0.7,1.7c0.6,0.8,1.6,1,2.7,0.9
		c0,0.6-0.2,1.3-0.8,1.5c-0.8,0.3-1.7,0.3-2.4-0.2c-1-0.8-0.8-2.1-1-3.2c0-1.2-0.2-2.7,0.9-3.6c0.6-0.4,1.4-1.1,2.3-0.7
		C61.2,64.8,61.4,64.8,61.6,65z M64.1,58.9c-0.2,0.9-0.4,1.7-0.3,2.7c-0.3,0.2-0.7,0.3-1,0.1c-2.4-1-4.8-1.9-7.1-3.1
		c-0.5-0.6-0.2-1.6-0.2-2.4c0.3-2.6-0.3-6,1.5-8.1c-0.4-0.7-0.2-1.7,0.2-2.3c0.6-0.1,1.1-0.1,1.6,0.2c0.3,0.3,0.4,0.6,0.5,0.8
		c-1.9,1.4-1.7,4.1-1.2,6.1c0.3,0.9,1.4,1.3,2.1,1.8c2,1.9,4.9,0.4,7.3,1.3c-0.1,0.3-0.6,0.6-0.9,0.9C65.6,57.2,64.3,57.6,64.1,58.9
		z M73.1,72.8c-0.3,0-0.4-1.1-0.9-0.5c-0.4,0.3-0.4,0.8-0.3,1.2c0.2,0.4,0.6,0.6,0.9,0.8c-0.6,0.8-1.4,1.7-1,2.9
		c0.5,0.1,1.1-0.2,1.4,0.4c0.7,1.7,0.3,3.9,0.3,5.8c-0.4,2.1-0.4,4.3-0.4,6.6c1,0.7,0.5,2,1.2,2.8c0.3,0.5,1,0.9,0.7,1.5l-0.4,0.4
		c-0.5-0.4-1.2-0.9-1.1-1.6c-0.2-0.8-0.9-1.5-1.7-1.8l-0.5,0.9l-0.2-0.4c0.6-2,0.9-4.8-0.2-6.7c-1.2-2.4-1.5-5.2-1.3-8.1
		c0.2-0.1,0.3,0.1,0.5,0.2c0.1,0.2,0.1,0.5,0,0.7c0.4,0.1,0.6,0.1,1,0v-1.6c-1.3-1.3-2.1-2.8-1.8-4.7c-0.9-1.8-0.7-4-0.5-6.1
		l-0.2-1.1c1.7,0,4-1.3,5.3,0.3C75.1,67.6,73.2,70.1,73.1,72.8z M74.3,55.7v3.7L72.4,61c-0.3,0.2-0.5-0.3-0.8-0.4
		c-0.1-0.4,0.4-1-0.2-1.1c-0.3-0.1-0.7-0.2-1-0.1c-0.4,0.3-0.9,0.6-1.3,1c0.1,0.4,0,0.9,0.4,1.2c0.2,0,0.3,0.1,0.4,0.2
		c-1.7,0.2-3.6,0.1-4.9-1.3c-0.2-0.6,0.1-1.1,0.4-1.5c2.4-1.9,6.1-2.2,7.2-5.6c0.2,0,0.4,0.1,0.5,0.2c-0.1,0.3-0.2,0.7-0.1,1.1
		c0.1,0.3,0.5,0.4,0.8,0.6l0.8-0.1C74.7,55.3,74.5,55.5,74.3,55.7z M76.5,56.5C76.5,56.5,76.4,56.5,76.5,56.5l-0.2,0.1
		c-0.7-1.1-2.5-1.8-2-3.4c0.3,0,0.5,0.3,0.6,0.6C74.9,54.9,77.1,55.2,76.5,56.5z M78.9,43.8c0.6,0.2,1.2-0.4,1.6,0.3
		c0,0.8,0.9,0.4,1.3,0.6c0.7,0.2,1.2,0.9,1.5,1.5l-0.4,0.4c-1.1-1.3-2.7-1.8-4.3-2.2C78.7,44.2,78.7,44,78.9,43.8z M81.8,55.3
		c-0.3,0.3-0.5,0.7-0.9,0.8c-1,0.2-1.8-0.5-2.4-1.3c-0.9-1.3-1.3-2.8-1.1-4.5c0.6-0.3,1.3-0.9,1.3-1.6c-0.1-0.8,0.1-1.6,0.7-2.1
		c1.7,0.5,3.6,1.9,4.3,3.7C84.2,52.4,82.3,53.6,81.8,55.3z"/>
</g>
</svg>
