<?xml version="1.0" encoding="utf-8"?>
<!-- Generator: Adobe Illustrator 18.1.1, SVG Export Plug-In . SVG Version: 6.00 Build 0)  -->
<!DOCTYPE svg PUBLIC "-//W3C//DTD SVG 1.1//EN" "http://www.w3.org/Graphics/SVG/1.1/DTD/svg11.dtd">
<svg version="1.1" xmlns="http://www.w3.org/2000/svg" xmlns:xlink="http://www.w3.org/1999/xlink" x="0px" y="0px"
	 viewBox="0 0 100 100" enable-background="new 0 0 100 100" xml:space="preserve">

	 
<g id="AREA_1">
	<g>
		<g>
			<path d="M12.6,55.7c0.3-0.5,0.9-0.7,0.9-1.4C12.9,54.4,12.4,55.3,12.6,55.7z"/>
		</g>
		<path d="M91.8,8.6c-1-0.8-3.7-2-4.3-2.5c-0.6-0.5-1.7-1.7-3.5-1.8C82.3,4.3,80.9,5,79.7,5c-1.2,0-5.4,0.2-7.7,0.6
			c-2.3,0.4-1.3,1.2-3.8,0.5c-2.5-0.7-2.3-1.2-3-1.7c-0.7-0.5-2.8-1.2-3-1.2c-0.2,0-4.1-0.4-6.8,0.1c-2.7,0.5-6.1,1.4-7.7,1.9
			c-1.6,0.4-3.8,1.2-5.7,1.2c-2,0.1-6.3,2.4-7.4,2.6c-1,0.2-2.1,0.8-2.1,0.8l-0.6,0.7c0,0-1,0.4-1.8,0.3c-0.8-0.1-2.1-0.4-2.2-0.6
			c-0.1-0.2-1.6-0.4-1.8-0.4c-0.2,0-3.4,0.2-3.4,0.2s-2.4,2.6-2.7,3.7c-0.4,1.1-1,4.4-0.8,6s0.5,2.9,0.9,3.4
			c0.4,0.4,1.4,1.1,1.4,1.1s-1.5,1.4-1.9,1.8c-0.3,0.4-0.2,2.4-0.6,3.9c-0.4,1.5,0.1,4.7-1.2,6.1c-1.2,1.4-3.4,5.6-4,6.9
			c-0.6,1.2-2.2,3.9-2.4,4.4c-0.2,0.5-0.5,1.7-0.5,1.7s-0.9,3.2-1,4.5C9.7,54.8,8.8,58,8.7,59c-0.1,1.1-0.3,3.4-0.3,3.4
			S7,64.1,7,64.6c0,0.5,0.3,1.3,0.3,1.3l1-0.2c0,0,0.2,1.2-0.1,1.7C8,68,7.3,69.6,7.3,69.6l2,1.6c0,0,6.7,2.9,12.5,7.3
			c5.8,4.3,16.7,14.9,17.4,15.4c4.6,3.1,10,4.1,10,4.1s5.1-1.5,10-6.9c2.2-2.4,6.2-7.3,7.4-8.2c1.2-0.9,2.4-2.7,4.9-3.8
			c2.4-1.2,3.6-2,5.1-2.1c1.5-0.1,2.9-2.5,2.9-2.5s0.3-1.2-0.3-1.9c-0.6-0.7-1.9-4.7-1.5-6.1c0.4-1.4,1.2-2.2,1.2-2.2L76.1,60
			c0,0,1-3,1.6-3.9c0.7-0.9,2.8-5.1,3.1-5.5c0.3-0.4,1.4-1.7,1.4-2.2c0.1-0.5,0.3-4.8,0.1-5.8c-0.2-1-0.7-6.3-0.7-7.4
			c0.1-1.1,0.5-3.7,0.5-3.7s3.7-2,4.8-2.9c1.1-0.9,2.1-2.1,2.4-3.2c0.4-1.1,1.7-5.1,1.8-5.4c0.1-0.4,0.2-2,0.2-2s0.4-1,0.3-2.1
			c-0.1-1.1-0.5-2.5-0.5-2.5s1.1-1.1,1.2-1.7C92.6,11.2,92.8,9.4,91.8,8.6z M85.5,6.7c0.4,0.2,1.2,0.7,0.9,0.9
			c-0.4-0.3-1.1-0.3-1.7-0.4c0-0.6-0.8-0.5-1.1-0.9c-1.6-0.1-2.2,1.5-3.8,1C80.9,5.9,83.9,5.8,85.5,6.7z M83.6,7.7
			c-0.3,0.3-1.4,0.2-1.7,0C82.3,7.3,83,7.8,83.6,7.7z M76,6.6c0,0.2,0,0.4,0,0.6c0.2,0,0.3,0,0.3,0.1c0.4,0.1,1.2-0.2,1.4,0.1
			c-1.2,0.2-1.9-0.2-2.4-0.7C75.2,6.4,75.8,6.6,76,6.6z M75.4,7.3c-0.5,0.6-0.6-0.4-1.1-0.3c0,0.6-0.4,0.3-0.9,0
			c-0.5,0.2,0.3,0.4,0.2,0.7C73.1,7.6,73.1,7,72.5,7C73.4,6.4,75,6.4,75.4,7.3z M75,8.3c-0.1,0.5-0.7,0.2-0.9,0
			C74.2,7.9,74.7,8.3,75,8.3z M66.2,7.4c-1.5,0-2.7-0.8-4.2-1.4c-0.5,0.6-2.7-0.8-3.8,0c1.4,0.6,3.5,0.7,4.1,2.2
			c-1.3-1.5-4.4-1.4-6.3-2.3c0.5-0.5,1.5,0.5,2.1,0c-0.8-0.4-1.8-0.6-3-0.6C59.4,4.2,63.6,5.7,66.2,7.4z M64.4,8.1
			c-0.9,0.4-1.4-0.8-2.1-1C62.9,7,63.6,8,64.4,8.1z M62.3,6.6C62.6,6.3,63.1,7,63.6,7C63.2,7.4,62.7,6.6,62.3,6.6z M59.1,7.9
			c0.1-0.1,0.2-0.3,0.2-0.6c1,0.1,1.7,0.6,2.3,1.2C60.9,8.6,60,7.9,59.1,7.9z M59.9,8.4c-0.2,0.5-1.2-0.6-1.8-0.6
			C57.9,7.6,59.5,8.1,59.9,8.4z M77.2,64.9c0,0.1-0.1,0.3-0.1,0.4c-0.3-0.1-0.6-0.3-0.6-0.6C76.7,64.6,76.9,64.8,77.2,64.9z
			 M77.5,71.4c0.1,0.2,0.1,0.3,0.2,0.5c-1-0.8-2.4-1.6-3-2.8C75.7,69.8,76.6,70.6,77.5,71.4z M69.5,58.9c-0.6-0.2-0.5-1.1-0.6-1.7
			C69.4,57.5,69.5,58.1,69.5,58.9z M68.8,56.7c-0.1-0.5,0.2-0.4,0.3-0.7c0.3,0.1,0.2,0.6,0.3,0.9C69.2,56.7,69,56.7,68.8,56.7z
			 M67.7,51.5c-0.3-0.6-0.5-1.2-0.9-1.7c0.8-0.5,2-0.6,3-0.9C69.3,50,68.6,50.8,67.7,51.5z M68,57.4c0-0.3,0-0.6,0.2-0.7
			C68.7,56.6,68.5,57.6,68,57.4z M64.8,50.9c0.6,0.1,0.4-0.6,1.1-0.4c-0.1,0.4-0.6,0.7-0.2,1.2c0.4,0,0.2-0.7,0.8-0.6
			c0,0.2,0,0.5,0,0.7c-0.5,0.2-0.9,0.4-1.7,0.4C64.6,52,65,51.5,64.8,50.9z M65,49.4c-0.2-0.6-0.8-1-1.1-1.6
			c-0.5,0.5,0.3,0.9,0.5,1.3c0.3,0.4-0.4-0.4-0.6-0.4c-0.3,0.5,0.6,0.6,0.2,0.7c-0.6,0-0.2-1.1-0.8-1.2c-0.4,0.1,0.1,0.5,0,0.7
			c-0.5-0.1-0.6,0.1-0.9,0.1c-0.2-1.8,1.5-3,0.2-4.2c-1.8-0.2-2,1.1-3.2,1.6c-1.1-1.6-1.2-4.1-2.7-5.3c-0.1-0.4,0.3-0.4,0.2-0.9
			c0.3-0.3,0.3,0.1,0.6,0.1c0-0.6-0.5-0.7-0.3-1.4c0.3,0.5,0.5,0.8,1.1,1.2c0.2-0.6,0.2-1.4,0-2c-0.3,0.3-0.2,0.5-0.8,0.3
			c0-0.6,0.5-0.6,0.2-1.2c0.4,0,0.2,0.6,0.6,0.6c0.4-0.3-0.6-0.5-0.5-1c1.7,0,3.7-0.1,4.7,0.7c0.1,0.1,0.1,0.5,0.2,0.6
			c0.1,0.1,0.9,0.4,0.5,1c0.4,0.3,0.6,0.9,1.1,1.2c0.2,0,0.3-0.1,0.5-0.1c0.1-0.6-0.3-0.7-0.3-1.2c0.2,0.1,0.4,0.2,0.6,0.3
			c-0.2-0.6-0.1-0.6-0.3-1c-0.6,0-0.1,0.3-0.2,0.6c-0.5,0-0.4-0.6-0.6-1c3.5,0.9,2.1,6,3.9,8.6c0.4,0.6,1,0.8,1.4,1.6
			C67.5,48.4,66.5,49.1,65,49.4z M64.2,52c-0.3,0.2-1,0.1-1.4,0.3c-0.1-1.1,1-1.1,1.1-2C64.6,50.3,64.1,51.4,64.2,52z M60.6,50.2
			c-2-1.1-0.3-4,1.4-4.3c-0.2,0.9-0.6,1.6-1.1,2.3C61.4,48.7,61.2,49.9,60.6,50.2z M62.7,49.8c0.6,0.7-0.1,1.3-0.3,2
			c-0.4-0.1-0.8-0.2-1.2-0.3C61.6,50.8,62,50.2,62.7,49.8z M55.8,43.4c0.3,0,0,0.6,0.5,0.6c0.4-0.2-0.1-0.9-0.3-1
			c-0.1-0.4,0.3-0.4,0.2-0.9c1,0.9,1,2.5,1.5,3.7c0.4,0.8,1.4,1.3,1.1,2.2c-1.1-0.9-1.5-2.3-2-3.5C56.9,46.4,55.6,44.1,55.8,43.4z
			 M60.3,33.9c0.2,0.3,0.7,1.7,0,1.9C60.5,34.9,59.7,34.4,60.3,33.9z M67.1,40.1c-0.1,0.1,1.1,1.7,0.2,1.7
			C67.3,41.2,67,40.9,67.1,40.1z M70.6,64.5c-0.3-0.9-0.6-1.9-0.8-3C70.4,62.1,70.9,63.5,70.6,64.5z M70.6,52
			c-0.1-0.5-0.7-0.8-0.5-1.2C70.4,50.9,70.9,52.2,70.6,52z M70.6,47.6c-0.5-0.4,0.2-1,0.2-1.4C71,46.5,71,47,71,47.5
			C70.8,47.5,70.6,47.5,70.6,47.6z M71.3,47.3c0.3-1.1-0.6-1.4-0.3-2C71.4,45.6,72,47,71.3,47.3z M71.6,51.7
			c-0.3-0.7-0.6-1.4-0.8-2.2C71.4,50,71.6,50.8,71.6,51.7z M71.5,63.9c-0.4-0.8-0.6-1.8-0.8-2.7C71.3,61.8,71.6,62.7,71.5,63.9z
			 M71.2,54.4c0.4,0.5,0.6,1.1,0.8,1.9C71.5,55.8,71.4,55,71.2,54.4z M72.2,63.2c-0.3-0.4-0.3-1.1-0.5-1.6
			C72.2,61.8,72.2,62.5,72.2,63.2z M71.2,52.7c0.7,0.7,0.9,1.9,1.4,2.7C72.1,55.1,71.4,53.7,71.2,52.7z M72.1,52.7
			c0.2-0.5,0.2,0.4,0.2,0.6c0.2,0,0.3,0,0.3-0.1c0.4,0.3,0.6,0.9,0.3,1.4C72.6,53.9,72.1,53.5,72.1,52.7z M72.4,50.7
			c0.6,0.6,1.1,1.3,1.1,2.5C72.6,52.7,72.6,51.6,72.4,50.7z M73.3,68.4c0.5,0,0.3,0.6,0.6,0.9C73.7,69.5,73.3,68.8,73.3,68.4z
			 M73.1,50.2c0.3,0.3,1,1,0.8,1.3C73.4,51.3,73.3,50.8,73.1,50.2z M73.4,47.2c0.4,1.1,0.2,2.7,1.2,4C74,50.6,73,49.1,73.4,47.2z
			 M73.9,47.1c0.1-0.5,0.3,1.4,0.6,2.3C74.2,49.1,73.7,48.1,73.9,47.1z M76.5,49.9c-0.6-1.4-1-2.9-0.9-4.6c-0.2,0.4-0.4,0.2-0.5-0.3
			c-0.9,1.9,1.1,4.1,0.5,6.2c-0.6-1.8-1.1-3.8-1.2-6.1c-0.3-0.2-0.6,0.1-0.8-0.4c-0.2,0.5-0.1,1.2-0.2,2.2c-0.7-0.2-0.5-1.3-0.9-1.9
			c-0.5,0.9,0.5,2.8,0.2,4.6c-0.9-1.4-0.8-3.7-1.2-5.6c0.5-0.1,0.3,0.5,0.5,0.7c0.5-0.8-0.3-1.9,0.3-2.6c0.3,0.7,0.3,1.7,0.6,2.3
			c0.5-0.6-0.2-1.5,0-2.3c0.8,0.8,0.7,1.9,1.4,2.6c0.2-0.2,0.3-1.5-0.2-1.6c-0.2,0-0.1,0.3-0.2,0.4c-0.3-1.2-1.1-3.1-0.2-4.2
			c0.5,0.3-0.2,1.7,0.5,1.7c0.8-0.5-0.3-3,0.8-3.3c-0.5,1.5-0.1,3.4,0.3,4.9c-0.5-0.2-0.3-1.2-0.6-1.6c-0.3,0.9,0.4,2,0.5,3
			c1.1-1.5-0.2-3.3,0-5.5c1.1,0.8,0.1,3.4,1.4,4C74.6,44,76.8,47.4,76.5,49.9z M75.7,36.1c0.1,0.9,0.5,1.5,0.8,2.2
			c-0.1,0.1-0.2,0.3-0.3,0.4C75.7,38.1,75.6,36.7,75.7,36.1z M76.5,45.3c0.3,0.7,0.4,1.6,0.6,2.5C76.6,47.2,76.5,46.3,76.5,45.3z
			 M78,41.1c-0.3-0.1-0.3-0.6-0.3-1C78.1,40.2,78,40.7,78,41.1z M78.1,47.9c-0.4-0.7-0.2-2-0.5-2.9C78,45.8,78.5,47,78.1,47.9z
			 M79,43.9c-0.3-0.3-0.3-0.9-0.5-1.3C79.2,42.6,79,43.3,79,43.9z M69.2,46.5c-0.8-0.5-0.7-1.7-1.5-2.2c1.2-6.2,5.9-9.1,8.5-14
			c-0.4-0.1-0.9,0.5-0.9-0.1c-0.4,1.2-1.6,1.8-2,3c-0.7-0.1-0.4-1.2-0.8-1.6c-0.4,0.7,0.6,1.8,0,2.7c-0.9-0.1-0.7-1.2-1.1-1.9
			c-0.5,1,1.1,2.3,0,3.2c-0.5,0.1-0.2-0.5-0.6-0.1c-0.5,0.2,0.1,0.6,0,1c-0.4-0.1-0.3-0.8-0.6-1c-0.4,0.5,0.5,1.3,0,1.9
			c-1.1-0.4-1-1.9-1.5-2.9c-0.2,0.9,0.1,3.2,0.8,3.3c0.3,0.3-0.2,0.6-0.3,0.9c-0.5-0.5-0.2-1.8-0.9-2c-0.1,0.7,0.4,2.1,0.3,3.2
			c-0.5-0.7-0.2-2-0.8-2.6c-0.3,0.9,0.3,2.4,0,3.3c-0.4-1.8-0.9-3.5-2-4.6c-0.4,0.4,0.1,1.2,0,1.7c-1.7-0.4-0.3-2.1-1.2-3
			c-0.4,0.4,0.2,1.6,0,2.5c-0.7-0.2-0.4-1.2-0.9-1.6c-0.5,0.3,0.1,0.8,0,1.3c-0.8,0.1-0.5-0.9-0.8-1.4c-0.3-0.1-0.3,0.1-0.3,0.3
			c-0.3-0.3-0.2-0.9-0.5-1.2c-0.5,0.6,0.2,1.3,0.2,1.9c-1.1-0.1-0.2-2.1-1.2-2.3c0.2,0.6,0.3,1.4,0.5,2c-0.9-0.3-1.2-2.4-0.6-2.9
			c0.3-0.1,0.2,0.3,0.5,0.3c0.3-0.1,0.1-0.7,0.2-1c0.2,0,0.1,0.3,0.2,0.4c0.3-0.8,0.6-1.7,1.2-2.3c0.3,0.1,0.3,0.6,0.3,1
			c0.6-0.4-0.2-1.5,0.5-2c0.6,0.1,0.1,1.2,0.6,1.3c0.5-0.8-0.6-1.9,0.2-2.5c0.3,0.5,0.2,1.4,0.5,1.9c0.6-0.5,0-1.7-0.2-2.3
			c0.3-0.4,0.9,0.2,0.8-0.9c0.5,0.2,0.3,1.2,0.5,1.7c0.8-0.7-0.4-2.5,0.6-3.2c0.2,0,0.1,0.3,0.2,0.4c0.9-0.6,0.5-1.8,1.4-2.6
			c0.2,0,0.3,0.1,0.5,0.1c0.2-0.3,0.3-0.8,0.3-1.3c0.2,0.7,0.8,0.4,0.6-0.4c0.2-0.5,0.1,0.6,0.3,0.6c0.6,0,0.1-1.2,0.5-1.4
			c0.4,0,0.1,0.6,0.5,0.7c0.3-0.1,0.1-0.8,0.2-1.2c0.5-0.2,0.1,0.5,0.5,0.4c0.4,0,0.3-0.6,0.3-1c1.9,0.2-0.6,6.3,2.7,5.3
			c0.5-0.1,0.2-0.5,1.1-0.7c0-1.1,0.5-1.7,0.6-2.7c0.7,1.1,0-0.9,0.6-1.2c0.3,0.2,0.1,1,0.3,1.3c0.3-0.1,0.3-0.5,0.3-0.9
			c0.1,0,0.1,0.2,0.2,0.3c0.1,0.2,0.3,0,0.3-0.1c0.3,0.1,0.1,0.7,0.2,1c0.6,0,0.4-0.9,0.5-1.4c0.6,0.2,0.1,1.5,0.5,1.9
			c0.7-0.3,0-1.2,0.2-1.9c1.6,0.4,2.1,1.5,2.3,3c0.4-0.3-0.1-0.9,0-1.3c0.5,0.2,1.4,0.7,1.2,1c-0.4,0-0.4-0.3-0.5-0.6
			c-0.4,0.7-0.6,1.7-1.1,2.4c-0.3,0-0.1-0.5-0.5-0.6c-0.3,0-0.1,0.6-0.2,0.9c-0.9-0.9-0.2,0.9-0.8,1.9c-0.2,0.4-1.1,1.1-0.8,2
			c0.5-0.5,0.8-0.5,0.6-1.4c0.4,0.4,1,0.7,2,0.6C75,32.6,72,39.4,69.2,46.5z M75.9,19.7c-1.2,1-0.9,3.5-2.1,4.5
			c-0.4-1.5,0-3.3,0.2-4.8c0.4-0.3,1.2-0.1,1.5-0.4C76.2,18.9,74.7,20.1,75.9,19.7z M78.6,18.1c1.7,0.1,2.2,1.2,3.6,1.6
			c0,0.9-1.6,1-2.1,0.9c-0.2-0.6,0.5-0.5,0.5-1c-0.6-0.4-1.2,0.5-2,0.4C78.2,19.4,78.7,18.8,78.6,18.1z M81.3,27
			c0,0.3,0.5,0.1,0.8,0.1c-0.3,0.4-0.7,0.6-1.4,0.6c0.6-1.5,1.9-2.3,2.7-3.6c0.4,0.1,0.8,0.3,0.9,0.7C83.7,26,83.1,27.4,81.3,27z
			 M83.3,23c-0.2-0.2-0.1-0.7-0.2-1.2c-0.6,0.3-1.4,0.3-1.7-0.3c0.3-0.7,0.9-1,1.2-1.6c0.6,0.1,0.8,0.6,1.2,1c0,0.5-0.5,0.5-0.6,0.9
			c0.7,0.2,0.5-0.5,1.1-0.4C84.7,22.2,84.1,22.9,83.3,23z M87,25.1C86.9,25,86.7,25,86.4,25c0.4-0.2,0.8-0.3,0.9-0.7
			c0-0.2-0.4-0.1-0.5-0.3c-0.4,0.3-0.2,0.7-0.9,0.9c-0.1,0.5,0.4,0.4,0.6,0.6c-0.6,0.1-0.7,0.1-1.1,0.6c0.5-1.3,0.5-3.8,0.3-4.9
			c-1-0.9-1.8-1.9-2.9-2.7c0-0.2,0.1-0.2,0.2-0.4c-0.2,0.1-1.2-0.1-1.5-0.7c-2.9-0.7-5.2,0.3-7.7,0.9c-4.7,1.1-5.9,4.1-8.5,7.6
			c-0.6,0.8-1.4,1.5-2.1,2.6c-0.5,0.7-1.4,2.6-2.6,2.7c0,0.2,0.3,0.1,0.5,0.1c-0.1,0.4-0.6,0.4-0.9,0.6c0.5,0.2,0.2,0.5-0.5,0.4
			c0.7,0.9-1.3,0.9-1.1,1.7c-0.5,0.2-0.3,0-0.9,0c-0.1,0.3,0.2,0.3,0.5,0.3c-1.7,1.2-2.1,3.4-2.9,6.1c-0.5,1.6-1.2,2.5-0.9,4
			c0.2,1.2,2.8,4.2,3.6,5.2c0.3,0.4,0.6,0.6,1.1,0.9c0.1,0.4,0.1,0.3,0,0.7c0.5,1.3,2.2,1.4,3,2.3c2.6,0.4,3.9-0.3,5.9-0.7
			c-0.4,1-0.9,2-2.1,2.3c0,0.3,0.1,0.5,0.3,0.6c-0.3,0.3-0.4-0.6-0.9-0.6c-0.3,0.3,0.3,0.8,0.6,1c0.7-0.1,0.6-0.1,1.4-0.3
			c-0.7,0.8-2.5,1.1-3.9,0.7c-0.2-0.7-0.4-1.5-0.9-1.9c-0.3,0.4,0.2,1.1,0.5,1.4c-0.8,0.5-1-0.8-1.4-1.3c-0.3,0.3,0.3,0.9-0.3,1.2
			c-0.7-0.4-1.3-1.3-2.1-0.7c-0.4-0.2-0.3-0.9-0.9-0.9c-0.7,0.6,0.5,1.7,0.5,2.6c-0.9-0.1-0.4-1.6-1.1-2c-0.7,0.3,0.2,1,0,1.7
			c-0.2-0.2-0.2-0.6-0.5-0.7c-0.7,0.7-1.6-0.5-2-1c-1,0.6,0.3,1.7,0.3,2.6c0.6-1.1,0.4,0.4,1.2,0.1c0,0.5-0.2,0.8-0.2,1.4
			c0.4,0,0.2-0.7,0.5-0.9c0.4,0,0.2,0.5,0.5,0.7c0.5-0.2-0.4-0.9,0.2-1.2c0.5,0.1,0.4,0.8,0.8,1.2c0.6,0-0.2-0.6,0.3-0.9
			c0.7,0.1,0.5,1.1,1.1,1.4c0.4-0.3-0.1-0.8,0-1.2c0.7,0,0.5,0.9,1.1,1c0.4-0.1-0.2-0.5,0-0.9c0.6,0,0.6,0.6,0.9,0.9
			c0.3,0,0.1-0.5,0.2-0.7c0.5,0,0.5,0.5,0.8,0.7c0.5-0.1,0.1-0.4,0.2-0.9c0.4,0.1,0.9,1,0.5,1.4c-0.5,0.5-0.1-0.6-0.8-0.4
			c-0.4,1.1-0.2,2.9-1.7,3c0.2-0.5,0.7-0.8,0.6-1.6c-0.7,0.5-0.8,1.6-1.4,2.2c-0.2-0.3,0.5-0.9,0.5-1.4c-0.6,0.3-0.4,1.3-1.2,1.4
			c0.2-0.4,0.2-0.9,0.2-1.4c-0.5,0.6-0.3,1.9-1.1,2.2c-0.3-0.1,0.2-0.7,0-1.2c-0.1,0.5-0.6,0.7-0.9,1c0-0.7,0.3-2.4-0.5-3.2
			c-0.4,0.4,0.2,1.1,0,1.9c-0.3,0.3-0.4,0-0.8,0c0,0.5,0.1,1.2-0.2,1.4c-0.1-0.3-0.5-0.8-0.3-1c-0.5,0.3-0.6,0.5-1.1,0
			c-0.3,0.3,0.2,1-0.3,1.3c-0.5,0-0.1-0.9-0.6-0.9c-0.5,0.5,0.4,1.5-0.3,1.9c-0.5-0.3-0.4-1.1-0.8-1.6c-0.8,0.1,0.5,2.6-0.3,1.4
			c0-0.8-0.2-1.5-0.6-1.9c-0.4,0.2,0.3,0.7,0.2,1.2c-0.3-0.1-0.4,0.3-0.2,0.3c-1,0-0.3-2.8-1.2-3.3c-0.3,0.7,0.5,1.5,0.3,2.5
			c-0.8-0.6-1-1.7-1.5-2.6c-0.4,0-0.5-0.3-0.6,0.1c-0.9-1-0.8-2.1-1.7-3c-0.7,0.9,0.3,2.3,1.1,3.2c-1.3-0.6-3.2-1.8-4.4-3
			c-0.5,0.2,0.3,0.5,0.5,0.6c0.1,0.3-0.8-0.3-0.9,0.1c-0.6-0.3-0.7-1-1.4-1.3c-0.5,0.1-0.2,0.5-0.2,0.9c-1-0.2-0.6-1.8-1.4-2.3
			c-0.8,0.1-0.2,0.8-0.2,1.3c-1.3-0.1-0.8-1.9-1.7-2.4c-0.4,0.4,0.2,0.9-0.2,1.3c-1.8-1.6-1.3-4.8-3.5-5.9c0.9,1.3,1.3,3.1,2.3,4.3
			c-1.2-0.6-1.4-3.3-2.7-4.2c0.3,1.1,1.3,2.7,0.9,4.6c0.6,0.1,0.2-0.7,0.3-1c0.9,2.2,2.7,3.5,3.5,5.9c0.4-0.6-0.2-1.5-0.5-2
			c1-0.1,1.2,1.8,1.8,2.6c0.2,0.1,0.2-0.8,0-0.7c0.7-0.4,0.9,1,1.2,1.4c0.2-0.3-0.2-1.3-0.3-1.7c1,0.4,1.2,1.6,1.7,2.4
			c0.5-0.4-0.1-1.1-0.2-1.6c0.7,0.3,0.5,1.4,1.2,1.7c0.4-0.7-0.6-1.4-0.6-2.3c1.9,1.5,1.4,4.6,3.3,5.9c-0.7-1.5-1.5-2.1-1.5-4
			c1,1.4,1.2,3.1,2.6,4.6c-0.2-1.6-1.6-3.3-2-5.2c0.4,0.2,0.4,0.6,0.9,0.3c0.2,0.6,0.3,1.4,0.8,1.9c-0.1,0.4-0.2-0.3-0.6-0.1
			c0.6,1.2,1.3,2.3,2.1,3.3c0.1-0.8-1-1.8-1.2-2.9c1.8,2.5,3.1,5.6,3.3,9.7c0.5-0.1,0.2-0.9,0.3-1.4c0.8,0.3,0.5-1.5,0.9-2
			c0.4,0.3-0.1,1.6,0.5,1.7c0.4-0.7,0-2.2,0.3-2.9c0.6,0.2,0.2,1.5,0.3,2.2c0.8,0,0.3-1.1,0.5-1.7c0.5-0.1,0.2,0.6,0.3,0.9
			c0.2-0.2,0.5-0.5,0.5-1c0.5,0.4,1,1.2,0.5,1.7c0,0.4,0.5-0.7,0.5,0.1c0.4-0.7,0.1-2,0.5-2.7c0.4,0.5-0.1,1.9,0.3,2.4
			c0.2-0.4,0.3-0.9,0.3-1.4c0.2,0,0.4,0,0.5-0.1c0.3,1.4-1.1,2.4-0.9,4.2c0.6-0.6,0.4-1.9,0.9-2.6c0.1,0,0.1,0.2,0.2,0.3
			c0.8-1.2,0.2-3.7,1.1-4.8c-0.5,0.7,0.1,1.9,0,3c-0.1,1.5-1.7,2.6-1.4,4.3c0.6-1.1,1-2.4,1.4-3.7c0.5,0.6,0,1.9-0.3,2.6
			c1.3-0.9,1.8-2.5,2.3-4.2c0.5,0.5,0.6-1.7,0.9-2.3c0.3,0.4-0.2,1.2,0,2c0.5-0.7,0.5-1.7,0.8-2.6c0.4,0.2,0.4,1.4,0.2,1.7
			c0.7-0.1,0.2-1.3,0.8-1.6c0.2,0,0.1,0.4,0.2,0.6c0-0.9,0.7-1.1,0.8-2c0.3,0.1,0.1,1.9,0.2,2.7c0.6-0.4-0.1-2.1,0.8-2.2
			c0,0.8,0,1.5,0,2.3c0.6-0.3,0.9-1.1,0.9-2c-0.2-0.2-0.4-0.2-0.5,0.1c-0.3-0.2-0.1-1.1-0.2-1.6c0.6-0.1,0.2,0.7,0.3,1
			c0.5,0.1,0.3-0.3,0.3-0.6c0.2,0.5,0.3,1.1,0.3,1.7c0.3,0,0-0.6,0.3-0.7c0-0.5,0-1.1,0-1.6c0-0.1,0-0.3,0-0.4c0-0.1,0-0.3,0-0.4
			c0.1-0.3,0.2,0.1,0.2,0.3c0.1,1.2-0.3,2.9,0.3,3.6c0,0.4-0.2,0.7-0.3,1c-0.4-0.4,0.3-1.1-0.2-1.6c-0.4,0.9-0.5,2-1.2,2.6
			c-0.4,0,0.2-0.2,0-0.6c-0.3-0.3-0.6,0.7-1.1,0.7c0-0.2,0-0.4,0-0.6c-1.4,1.1-1.4,2.9-2,4.6c-0.4-0.4,0-1.3,0.2-1.6
			c-1,0.7-1.6,3.7-1.2,5.8c0.6-0.2,0.2-1.5,0.3-2.2c0.5,0.6,0.4,1.7,0.6,2.6c0.8-0.8-0.4-2.8,0.5-3.7c0.5,0.6,0.2,1.9,0.3,2.9
			c0.5,0.1,0.3-0.3,0.3-0.6c0.3,0.5,0.5,1.2,0.8,1.7c0.2-1-1.1-3,0.2-3.9c0.4,0.3,0.3,1.2,0.3,1.9c0.3-0.7,0.2-3.6,0.3-1.2
			c0.2,0.4,0.1,1.2,0.3,1.6c0.4-0.7,0.1-2,0.2-2.9c-0.1-0.4,0.1-1.3,0.2-0.4c0,0.5,0,1,0,1.4c0.2,0.7,0.2,1.5,0.5,2.2
			c0.4-1.3-0.4-2.8-0.2-4.5c0.7,0.8,0.1,2.8,0.8,3.7c0.5-1.1-0.7-3.7,0.5-4.5c-0.3,2,0.4,3,1.1,4c0.1-1-0.9-3-0.3-4.5
			c0.4,0.8,0.4,2,0.6,3c0.7-0.5-0.2-1.6,0-2.6c0.6,0.7,0.6,1.9,1.1,2.7c0.1-0.7-0.3-2.2-0.5-3.2c0.6,0.2,0.6,1.1,0.9,1.6
			c0.2-0.5,0.3-0.8,0.6-0.1c0.5-0.2-0.2-0.9,0.2-1c0.4,0.1,0.8,0.3,0.8-0.3c0.5,0.6,0.8,1.5,1.5,1.9c-0.3-0.9-1.4-2.4-1.4-4
			c0.4,1.4,1.2,2.4,2.1,3.3c-0.3-1-1.1-1.5-1.2-2.7c0.7,1,1.4,2,2.3,2.9c0.3-0.5-0.7-1.1-0.9-1.6c1.1-0.1,1.6,1.5,2.6,2
			c0.4-0.8-1.5-1.3-1.2-2c0.8,0.9,1.7,1.8,3.1,2.3c0,0,0.1,0,0.1,0c0,0-0.1,0-0.1,0c-0.5,0-0.2,0.2,0.2,0.4c0.2,0.3,0.5,0.8,0.5,0.8
			s-0.2-0.1-0.3-0.2c0,0.1,0.1,0.3,0.2,0.4c-1.8,1.1-5.5,1.7-9.1,4.2C60.9,84.3,55.3,96,48.3,96c-7,0-21-18.8-35.1-24.9
			c-0.1-0.2-0.2-0.4-0.3-0.6c0,0.1-0.1,0.2-0.1,0.4c-0.2-0.1-0.4-0.2-0.7-0.3c0-0.6,0.1-1.1,0.4-1.3c0.4,0-0.1,1,0.3,1
			c0.6-0.6,0.9-2,0.8-2.9c-0.5,0.2-0.6,0.8-0.8,1.3c-0.4-0.1,0.5-1.5,0.5-2.3c-0.1-0.7-0.5,0.2-0.6-0.1c0-0.8,0.5-1.1,0.5-1.9
			c-1.2,0.3-1,2.1-1.5,3c-0.5-1.7,0.7-3.1,0.9-4.6c-1,0.2-0.8,1.5-1.2,2.2c-0.2-1.5,1.2-2.7,1.4-4.3c-0.9,0.2-0.9,1.4-1.2,2.2
			c-0.6-1.1,0.8-1.7,0.6-2.9c-0.4,0-0.4,0.3-0.5,0.6c-0.3-0.5,0.4-1.3,0.6-1.7c-0.5-0.2-0.1,0.5-0.6,0.3c0-0.5,0.3-0.7,0.2-1.3
			c0.7,0.4,0.8-0.7,1.1-1.2c-0.5,0-0.6,0.4-0.8,0.7c-0.4-1.9,1-3.3,1.8-4.5c0-0.4-0.5,0-0.5,0.1c-0.2-0.7,1.1-1.1,1.1-2
			c-0.7,0-0.9,0.6-1.2,1c-0.2-1,1.3-1.5,1.5-2.6c0-0.2-0.3-0.1-0.3,0c-0.4-0.3,0.7-0.4,0.8-0.9c-0.2-0.4-0.5,0.2-0.9,0
			c0.2-1,1.6-1,2.1-1.7c-0.5-0.4-1.1,0.4-1.4,0.7c0.8-2.4,2-5.3,3.6-7.8c0.8-1.2,2.2-2.4,2.4-3.6c0.1-0.5-0.5-0.7,0-1
			c-0.3,0-0.3,0.2-0.6,0.1c1.2-3.4,1.2-7.9,3.3-10.4c0.7,0.1-0.5,0.5-0.5,0.9c0.6,0.1,0.7-0.4,0.9-0.7c0.3,0.5-0.6,1.1-1.2,1.3
			c0.1,0.4,0.2,0.2,0.6,0.1c-0.2,0.4-0.5,0.5-0.6,1c0.5,0,0.5-0.5,0.8-0.7c0.5,0.5-0.4,0.9-0.6,1.3c0.4,0.2,0.5-0.6,0.6-0.1
			c0,1.1-0.7,1.2-0.8,2c0.1,0.3,0.6-0.2,0.6-0.6c0.4,0.7-0.5,1.3-0.8,1.9c1.6-0.5,1.5-3.6,2.9-5.2c-0.1-0.5-0.7,0.6-0.8,0.1
			c0.2-1.2,1.1-1.6,1.4-2.7c-0.4-0.5-0.7,0.3-1.2,0.1c0.1-0.7,1.2-0.5,1.2-1.3c0-0.1-0.2-0.1-0.2-0.3c-1.2,0-1.3,1.1-2.6,1.2
			c-0.3-0.3,0-0.4,0-0.7c-0.5-0.1-0.3,0.4-0.8,0.3c-0.2-0.2-0.2-0.5,0-0.7c-0.1-0.4-0.5,0.3-0.8-0.1c-0.1-0.4-0.1-0.4,0-0.9
			c-0.9-0.2-1.7-1.8-1.4-3.2c0.3,0,0.3,0.2,0.6,0.1c-0.1-0.2-0.2-0.3-0.5-0.3c1.1-2.2,0.7-6,4.1-6.1c0.2,0.2,0.5,0.3,0.5,0.7
			c1.5,0,3.3,0.9,5,1.6c1.3,0,1.3-0.9,2.7-0.6c-0.1-0.5-0.3-0.1-0.8-0.1c0.4-0.7,1.5-0.6,2.6-0.6c0.5-0.1,0.4-0.8,1.2-0.6
			c0.1-0.5-0.6-0.2-0.9-0.3c1.1-1.1,3.4-1.2,4.8-2c-0.1-0.4-0.3,0.1-0.6,0c3-1.9,7.5-2.3,11.6-3.2c-0.6,0.7,1.1,0.6,2,0.7
			c0-0.3,0.4-0.4,0.6-0.9c0-0.5-0.9-0.1-1.1-0.4c0.5-0.4,1.2-0.5,1.8-0.9C55,6.5,56.9,6.5,58.2,7c-0.7,0.4-2.6-0.6-4.1-0.4
			c-0.3,0.2,0.2,0.5-0.5,0.6c1.5,0.8,2.7-0.2,3.9,0.3c0.1,0.4-0.3,0.3-0.5,0.4c0.7,0.4,1.6,0.6,2.3,1c-0.9,0.2-1.7-0.9-3-0.7
			c0.1,0.2,0.3,0.3,0.6,0.3c-0.5,0.4-1.3-0.1-1.8-0.1c-0.5,0.3,0.7,0.1,0.5,0.6c-0.1,0.2-0.6,0-0.5,0.4c-0.5,0.1-0.8-0.1-1.2-0.1
			c0.2,0.1,0.2,0.5,0.6,0.4c-0.8,0.7-1.9-1.1-3-0.6c0-0.1,0-0.3,0-0.4c-0.8-0.1-1.1,0.2-1.8,0.1c0.6-1,2.5,0,3.2-0.3
			c-0.1-0.3-0.6-0.3-1.1-0.3C52,8,52,7.8,52,7.6c-1.3-0.1-2.8-0.1-4.1,0.1c0.2,0.3,0.9,0.1,1.4,0.1C49.2,8.1,48.8,8,49,8.4
			c-0.7,0.1-1.7-0.1-2.1,0.1c0.5,0.3,1.6,0.1,2.3,0.1c0,0.1-0.2,0.1-0.3,0.1c1.5,0.4,3.2,0.7,4.8,1c-0.3,0.3,0,0.2,0,0.6
			c-0.5-0.1-0.8,0.1-1.2,0.1c0.1,0.1,0.1,0.3,0.3,0.3c-1.2,1.3-3.8-0.3-6,0.6c0.6,0.5,2.4-0.2,2.7,0.4c-0.1,0.4-0.4-0.2-0.8,0
			c-0.1,0.5,0.7,0.1,0.8,0.4c0.1-0.4,1.2-0.7,1.4-0.1c-0.1,0.9-1.2,0.1-2,0.3c0.7,0.4,1.7,0.5,2.6,0.7c-0.4,0.6-1.1-0.2-2.1,0.1
			c0.7,0.2,1.3,0.5,2.3,0.4c0.8-1.1,2-1,3.8-1.3c0,0.4-0.6,0.2-0.8,0.4c0.7,0.5,1.4-0.3,1.8-0.6c0.2,0.2-0.9,0.5-0.2,0.9
			c0.5-0.5,0.8-1.1,2-0.9C57.9,13,57.3,13.4,57,14c0.8-0.2,1.5-1.5,2.7-1.3C63,10,66.9,7.7,72.2,6.8c0.1,0.7,1,0.6,1.2,1.3
			c-0.4,0.2-1,0.2-1.7,0.1c0.4,1,1.4,0.8,2,0.6C73.9,9.4,73,9,73.1,9.6c0.7,0.7,1.4-0.5,2.4,0.1c0.2-0.4-0.3-0.3-0.6-0.3
			c0.4-0.6,1-0.6,1.7-0.3c0.5-0.2-0.5-0.2-0.3-0.6c0.5-0.1,0.9-0.2,1.4,0c-0.9,0.8,1.5,0.7,1.5,1.6c0.5,0.1,0.2-0.5,0.5-0.6
			c-0.1,0.7,0.7,1.1,0.8,2c0.3-0.1,0.1-0.8,0.2-1.2c0.5,0.2,0.2,1.2,0.8,1.3c0.3-0.4-0.7-1.2,0-1.7c-0.1-0.1-0.8-0.5-0.9-0.1
			c0-0.9-0.7-0.6-0.9-1.2c0.4,0.3,1,0.1,0.6-0.4c0.1,0,0.5,0.5,0.2,0.4c0,0.3,0.5,0.1,0.8,0.1c0.7,1.9,2.8,0.8,4.5,0.6
			c0.2-0.1,0.2-0.3,0.5-0.3c0.1-0.5-0.1-0.7-0.2-1c0.6,0.1,1.1,0.3,0.9,1.2c-1.7,0.3-2.8,1.1-4.4,1.6c-0.6,0.7,0.1,2.3,0.5,3
			c0.3,0,0.1-0.6,0.2-0.9c0.3,0.4,0.3,1.1,1.1,1.2c-0.1,0.4-0.6,0.4-0.9,0.6c-0.2,0.7,0.4,2.3-0.2,1.3c-0.1-0.6,0.1-1.5-0.2-1.9
			c-0.5,0-0.3,0.7-0.3,1.2c-0.3-0.1-0.2-0.6-0.5-0.9c-0.3,0-0.6,0-0.6,0.3c-0.4-0.1,0.2-0.5,0-0.9c0.3,0,0.3,0.2,0.6,0.1
			c0.1-0.9-0.1-1.4-0.3-2c-0.6,0.2,0,0.6-0.2,1.2c-0.2,0.3-0.1-0.8-0.6-0.7c-0.3,0.3,0.1,1,0.3,1.3c-0.1,0.4-0.6,0.4-0.6,0.9
			c-0.3-0.2-0.2-0.8-0.6-0.9c-0.3,0.3-0.1,1.4,0.2,1.6c-0.7,0.4-0.4-1.2-1.1-1.3c-0.5,0.3,0.4,1.1,0,1.2c-0.6,0-0.2-1-0.8-1
			c-0.4,0.4,0.2,1,0.2,1.6c-0.8-0.1-0.7-1.2-1.1-1.7c-0.5,0.4,0.5,1.1,0,1.6c-0.8-0.6-0.7-2.2-1.5-2.5c0-0.6,0.4,0,0.8-0.1
			c-0.1-0.5-0.7-0.4-1.1-0.7c-0.1,0.2,0.2,0.4-0.2,0.9c-0.3,0-0.2-0.4-0.6-0.3c0.6,0.8,1.8,1.1,2,2.3c-0.9,0.2-2.5,0.5-3.2-0.4
			c-0.4,0.1,0.1,0.5,0.3,0.6c-0.3,0.5-0.6-0.2-0.9-0.3c-0.5,0.2,0.4,0.4,0.2,0.9c-0.6,0.1-1.8-0.3-2,0.3c1.4,0.9,2.4-0.2,3.8-0.3
			c-1,0.5-2,0.8-3.2,1.2c0.1-0.1,0.2-0.2,0.2-0.4c-0.9,0.4-1.9-0.2-2.6,0c0.1,0.7,0.9,0.6,1.5,0.7c-0.9,0.5-2,0.9-2.7,1.6
			c0.8,0.5,1.4-0.3,2.1-0.6c1.9-0.7,4.1-1,6-1.6c0.4-0.1,0.7-0.5,1.1-0.6c1-0.2,2,0,2.9-0.3c0.2-0.3,0-0.5,0.3-0.9
			c0.2,0.7,0.6,1.1,0.8,1.9c0.2,0,0.1-0.4,0.2-0.6c1.4-0.1,1.6,1,2.1,1.7c0.7-0.5,0.5,0.6,1.2,0.1c0.2,0.3,0.2,0.9,0.5,1.2
			c0.5-1.2,1,2.4,1.8,2.7c0,0.2-0.5,0.1-0.5,0.3c0,0.2,0.4,0.1,0.6,0.1C87.8,23.4,87.7,24.6,87,25.1z M67.7,66.2
			c-0.4-0.2-0.1-1,0-1.3C68.1,65.2,67.7,65.8,67.7,66.2z M65.8,59.6c0.3-0.3,0.2,1.3-0.2,1.3C65.2,60.6,66,60.2,65.8,59.6z M63.9,60
			c-0.3-0.4-0.1-1.3-0.3-1.7c0.7,0.1,0.9,0.8,0.9,1.6C64.4,59.5,63.9,59.2,63.9,60z M62.3,57.3c-0.6,0.1-0.7-0.2-0.8-0.6
			C62,56.7,62.3,56.9,62.3,57.3z M61.1,57.3c-1,0.2-0.7-0.7-0.9-1.2c0.2,0,0.3,0,0.5,0C60.8,56.5,61,56.8,61.1,57.3z M59.7,57
			c-0.6-0.2-0.9-1.4-0.5-1.7C59.5,55.6,59.8,56.7,59.7,57z M60.9,66.5c-0.5-0.8,0.3-1.5,0.6-2C61.7,65,60.9,65.7,60.9,66.5z
			 M59.4,68.7c-0.4-0.7,0.1-1.7,0.3-2.3C60.3,66.7,59.5,68,59.4,68.7z M57.1,68.1c-0.3-0.1-0.1-0.9,0-1c0.2,0.1,0.2,0.3,0.5,0.3
			C57.6,67.7,57.1,67.6,57.1,68.1z M57.3,64.1c-0.8-0.2-0.2-1.7,0.3-1.9C57.4,62.8,56.9,63.3,57.3,64.1z M55.8,69.5
			c-0.9-0.9,0-2.3,0.3-2.9C56.3,67.4,55.6,68.4,55.8,69.5z M54.7,65.9c-0.3-0.2-0.2-1.1,0-1.3C55.4,64.7,54.9,65.7,54.7,65.9z
			 M51.9,70.5c-0.6-1-0.7-2.4-1.2-3.5C51.4,67.9,51.9,69,51.9,70.5z M51,65.5c0.5,0.2,0.8,1.2,0.6,1.6C51.2,66.7,50.9,66.3,51,65.5z
			 M49.8,63.8c-0.4-0.7-1.1-1.1-1.2-2C48.5,61.8,49.9,62.8,49.8,63.8z M48.5,63.3c-0.5-0.2-0.6-0.9-0.8-1.4
			C48.5,62,48.4,62.8,48.5,63.3z M65.1,70.4c-0.7-0.6,0.1-1.4,0.5-1.9C66,69.1,64.9,69.5,65.1,70.4z M64.4,70.3
			c0.3,0.3,0.1,1.2,0,1.6C63.9,71.4,64.5,70.8,64.4,70.3z M63.5,71.8c-0.7-0.3,0-1.2,0.2-1.6C64.1,70.7,63.4,71.3,63.5,71.8z
			 M56.5,10.9c0.1,0.3,0.7,0.5,1.5,0.3c0.4-0.1,0.7-0.2,0.9-0.4c-0.3,0.3-1,0.6-1.8,0.8c-1.2,0.3-2.2,0.2-2.3-0.3
			c-0.1-0.4,0.8-1,2-1.2c0.3-0.1,0.6-0.1,0.9-0.1C57,10.1,56.5,10.5,56.5,10.9z M52.9,12c-0.4,0-0.7,0-0.9-0.1
			C52,11.7,53.1,11.6,52.9,12z M87,19.2c-0.2-0.2-0.5-0.4-0.5-0.9c0.7,0.2-0.3-2,0.5-2.4c0.4,0.7,0.2,1.6,0.5,2.7
			c-0.2,0-0.1-0.4-0.3-0.4C86.8,18.3,87.1,18.9,87,19.2z M85.1,17.8c-0.8,0-1-0.4-0.9-1.2c0.7,0.8,0.4-0.4,0.5-0.4
			c0.2-0.1,0.5,0.9,0.6,0c0.1,0.1,0.3,0.1,0.3,0.3c0,0.1,0,0.2,0,0.3C85,16.3,85,17.3,85.1,17.8z M84.2,16.1
			c-0.6,0.1-0.6-0.4-0.6-0.9c0.3,0.4,0.7-0.1,0.9,0.1C84.4,15.6,84,15.6,84.2,16.1z M85.1,13.6c0.2,0.1,0.4,0.2,0.6,0.3
			c0,0.4,0,0.8,0,1.2c-0.3,0.3-0.4-0.1-0.9,0C84.7,14.4,84.9,14,85.1,13.6z M85.5,17.1c0.1,0.4,0.7,1,0.3,1.3
			C85.2,18.4,85.7,17.5,85.5,17.1z M86.3,15.2c0.5,0.5,0.2,1.9,0.2,2.6C85.5,17.7,86.1,15.6,86.3,15.2z M86.7,10.3
			c-1.6,0.7-2.1,2-2.3,3.7c-0.3,0-0.1-0.5-0.5-0.6c0.1-0.3,0.6-0.2,0.6-0.6c0-0.5-0.7-0.4-0.8-0.9c0.4,0.3,1.5-0.8,1.7-1.6
			c0.5,0.5,0.5-0.3,1.1-0.4c0.6-0.1,1.7,0.8,2.1-0.4c0.3,0.4-0.8,0.8-0.9,1.3C87.4,10.5,87.1,10.8,86.7,10.3z M81.4,15.8
			c0-0.2,0-0.5,0-0.7C82,15.9,83.1,16.2,81.4,15.8z M88.4,15.2c-0.1-0.2-0.3-0.2-0.3-0.4c-0.5,0.8,0.4,1.5,0.5,2.3
			c-0.3,0.1-0.3-0.2-0.3-0.4c-0.3,0.2-0.1,1-0.3,1.3c-0.4-0.2-0.3-0.8-0.5-1.2c0.8-0.4-0.5-1.9,0.3-2.3c0.5-0.1,0.2,0.6,0.8,0.4
			C88.8,16.2,88.9,17.2,88.4,15.2z M89,9.6C89.1,8.4,87.3,9,87.2,8c0.7,0.1,1.7,1.1,2.9,1.2C89.8,9.4,89.6,9.7,89,9.6z M90.5,11.6
			c-0.5-0.3-0.3-1.2-1.2-1c0.2-0.9,1.1-0.4,1.5,0C90.6,10.8,90.8,11.4,90.5,11.6z"/>
		<path d="M60,37.7c-0.4-0.1-0.7-0.2-0.9,0.1C59.3,38.1,59.8,37.9,60,37.7z"/>
		<path d="M59.6,39c-0.1-0.5-0.1-0.9-0.6-1C58.8,38.1,59.2,38.9,59.6,39z"/>
		<path d="M59.3,40.3C59,40.5,59,41.1,59.6,41C59.8,40.8,59.8,40.2,59.3,40.3z"/>
		<path d="M58.4,38.7c0,0.4,0,0.7,0.5,0.7C58.8,39,58.8,38.6,58.4,38.7z"/>
		<path d="M64.4,44.5c0.1,0.5-0.2,1.2,0.3,1.3c0.2-0.4-0.3-0.7,0-0.7c0.3,0,0.5,0.7,0.8,0.3C65.1,45,65,44.5,64.4,44.5z"/>
		<path d="M65.6,47.9c0.3,0.1,0.2,0.5,0.6,0.6C66.3,48.1,65.8,47.6,65.6,47.9z"/>
		<path d="M64.7,48.1c0,0.5,0.3,0.7,0.8,0.7C65.4,48.4,65.1,48.1,64.7,48.1z"/>
		<path d="M59.9,44.7c-0.2,0.2,0,0.6,0.3,0.7C60.1,45.2,60.4,44.6,59.9,44.7z"/>
		<path d="M66.1,46.9c0.5,0.4,0.9,1,1.7,1.2C67.3,47.5,66.7,47.2,66.1,46.9z"/>
		<path d="M60.6,42.6c-0.4,0.4,0.1,1.1,0.6,0.7C61.3,42.8,61,42.6,60.6,42.6z"/>
		<path d="M65,41c-0.1-0.4,0-0.9-0.5-0.9C64.6,40.5,64.5,41,65,41z"/>
		<path d="M64.4,40.9c-0.3,0-0.5,0-0.6,0.1c0,0.2,0.1,0.3,0.2,0.4C64.3,41.5,64.4,41.2,64.4,40.9z"/>
		<path d="M64.8,42.9c0-0.4-0.1-0.6-0.5-0.6C64.4,42.7,64.4,42.9,64.8,42.9z"/>
		<path d="M63.8,33.6c0.2-0.2,0.3-0.9-0.2-0.9C63.7,33,63.5,33.6,63.8,33.6z"/>
		<path d="M62.7,33.6c0.1,0.5,0,1.3,0.6,1.3C63.2,34.5,63.3,33.7,62.7,33.6z"/>
		<path d="M69.8,41.4c0,0.4,0,0.8,0.5,0.7C70.2,41.8,70.1,41.5,69.8,41.4z"/>
		<path d="M63.6,34.1c0.1,0.5,0.1,1.1,0.6,1.2C64.2,34.7,64.2,34.1,63.6,34.1z"/>
		<path d="M68.8,43c0.3,0.3-0.1,1.2,0.5,1.3C69.3,43.7,69.3,43.1,68.8,43z"/>
		<path d="M69.2,33.9c0,0.6,0,1.3,0.5,1.4C69.6,34.8,69.6,34.2,69.2,33.9z"/>
		<path d="M68.5,44c0,0.7,0.2,1.4,0.6,1.7C69.1,45,68.9,44.4,68.5,44z"/>
		<path d="M69.5,35.7c0.2,0.4,0.1,1,0.5,1.2C70,36.3,69.9,35.8,69.5,35.7z"/>
		<path d="M77.7,27.6c0.1-0.4-0.2-1.2-0.5-0.7C77.5,27,77.3,27.5,77.7,27.6z"/>
		<path d="M77.5,28.6c-0.3,0-0.3,0.2-0.6,0.1c-0.2-0.2-0.1-0.5-0.5-0.6c-0.1,0.2,0.2,0.7-0.2,0.7c0-0.2-0.1-0.4-0.3-0.4
			c-0.1,0.4,0.2,0.4,0.2,0.7c0.4,0,0.5-0.3,0.6,0.1c-0.3,0.1-0.3,0.5-0.5,0.7c1.2-0.4,1.7-1.4,1.5-2.5
			C77.7,27.9,77.4,28.1,77.5,28.6z"/>
		<path d="M79,26.4c-0.2,0.6-0.3,0.4-0.8,0.7c0,0.3,0,0.6,0,0.9C78.9,27.9,79.7,26.8,79,26.4z"/>
		<path d="M79.8,23c0.2-0.4,0.2-1.6-0.5-1.6C79.5,21.9,79.3,22.8,79.8,23z"/>
		<path d="M69.2,42.4c0.2,0.1,0.2,1.1,0.6,0.6C69.6,42.9,69.6,41.9,69.2,42.4z"/>
		<path d="M67,34.7c0,0.6,0,1.1,0.5,1.3C67.4,35.4,67.4,34.8,67,34.7z"/>
		<path d="M67.1,31.9c0-0.4-0.1-0.6-0.3-0.7C66.6,31.4,66.6,32,67.1,31.9z"/>
		<path d="M65.1,33.6c0.1,0.3-0.2,1,0.3,0.9C65.4,34.2,65.7,33.5,65.1,33.6z"/>
		<path d="M64.8,31.6c-0.3,0.3-0.1,1.2,0.5,1.2C65.3,32.3,65.2,31.8,64.8,31.6z"/>
		<path d="M66.2,34.1c0.4,0.2,0,1.3,0.6,1.3C66.8,34.8,66.6,33.8,66.2,34.1z"/>
		<path d="M67,36.7c0,0.4,0,0.7,0.5,0.7C67.4,37,67.4,36.6,67,36.7z"/>
		<path d="M65.9,31.5c0,0.5-0.1,1,0.5,1C66.3,32.1,66.3,31.6,65.9,31.5z"/>
		<path d="M68.3,36c-0.2-1.1-0.4-2.1-0.9-2.9C67.8,34.2,67.5,35.2,68.3,36z"/>
		<path d="M68.6,32.2c-0.2,0.2-0.3,1,0.3,0.9C68.8,32.8,68.9,32.4,68.6,32.2z"/>
		<path d="M31.8,78.2c0.9,0.1,1.2,1.5,2,1.3C33,79.2,32.8,77.7,31.8,78.2z"/>
		<path d="M33.3,78.5c0.3,0.7,0.8,1.1,1.5,1.4C34.5,79.2,34.2,78.6,33.3,78.5z"/>
		<path d="M29.1,73.1c0.2,0.9,1.1,1.9,1.7,2C30.1,74.6,29.9,73.6,29.1,73.1z"/>
		<path d="M50.7,88.7c0.3,0.2,0.5,1.2,0.9,0.9C51.2,89.5,51.1,88.3,50.7,88.7z"/>
		<path d="M60.3,79.3c0.1,0.7,0.3,1.3,0.8,1.6C61,80.2,60.8,79.7,60.3,79.3z"/>
		<path d="M36.3,81.8c0.4,0.3,0.4,1.1,0.9,1.3C37.1,82.5,36.9,81.4,36.3,81.8z"/>
		<path d="M49.5,88.1c0.2,1,1,2.3,1.7,2.4C50.5,89.8,50.2,88.7,49.5,88.1z"/>
		<path d="M42.2,87.3c0.1,0.5-0.4,0.9,0.2,1C42.6,88,42.5,87.4,42.2,87.3z"/>
		<path d="M30.1,78c0.5,0.2,0.7,0.8,1.2,1C31.2,78.5,30.7,77.7,30.1,78z"/>
		<path d="M22.3,69.5c-0.1,0.6,0.5,1.6,1.2,1.9C23.2,70.7,23.1,69.8,22.3,69.5z"/>
		<path d="M30.3,49.2c0.2-0.6-0.4-1,0-1.3c0.7,0.8,0.6,2.4,1.7,2.9c0.2-0.6-0.5-1.1,0-1.4c-0.1,0.8,0.6,0.9,0.9,1.3
			c-0.3-1.5-1.6-3.2-2.1-5c0-0.2,0.4-0.1,0.3-0.4c-0.4-0.7-0.7-2.3-1.2-2.3c0.3,0.7,0.5,2.2,0.3,2.9c-0.6-2.1-0.7-4.1-1.2-6.5
			c-0.6,0.8,0,2.5-0.2,3.2c-0.5-0.5-0.2-1.7-0.3-2.6c-0.3,0-0.3,0.2-0.5,0.3c0-0.5,0.3-1.2,0-1.6c-0.7-0.1-0.5,0.7-0.8,1
			c-0.4-0.9,0.1-2.7-0.3-3.6c0,0.1,0,0.3-0.2,0.3c-0.2-0.3-0.2-0.7-0.3-1c-0.3-1.2,0,1.2-0.3,1.3c-0.1-0.8,0-1.8-0.5-2.3
			c-0.1,0.1-0.3,0.3-0.5,0.4c0.2-1.5-0.4-2.4-0.2-3.6c-1.3,1.1-0.6,3.2-1.1,4.9c0.4,0.2,0.7-0.3,0.8,0c0.7,0.6-0.1,3,0.2,3.2
			c0.1-0.9,0.7-1.3,0.9-2c0.5,1.6,0.1,3.9,0.5,5.2c0.4-0.5,0.3-1.5,0.6-2c0.2,2.4,1.1,4.6,0.5,6.9c0.9,0,0.2-1.4,0.8-1.7
			c0.5,0.5,0.1,0.9,0.2,1.7c0.6,0,0.5-0.1,0.8-0.6C29.4,47.6,29.4,48.9,30.3,49.2z M28,42c-0.3,0.3,0.8,2.2,0.8,2.6
			C28.6,44.3,27.4,42.6,28,42z"/>
		<path d="M22.6,36c-0.4,0-0.5,0.2-0.5,0.6C22.5,36.6,22.6,36.3,22.6,36z"/>
		<path d="M60.3,78.3c0.2-2.5,1.2-5.1,1.2-7.3C60.9,73,59.6,75.9,60.3,78.3z"/>
		<path d="M23.5,70.4c0.1,0.5,0.3,0.9,0.9,0.9C24.3,70.8,23.9,70.1,23.5,70.4z"/>
		<path d="M26.7,44.7c-0.1,0.3-0.5,1.6,0.2,1.7C26.7,45.9,27,45,26.7,44.7z"/>
		<path d="M24.5,37c0.2,0.6-0.5,1.1,0,1.4C24.5,38,25,37.3,24.5,37z"/>
		<path d="M26.4,72.6c0.4,0.1,0.4,0.5,0.8,0.6C27.1,72.8,26.7,72.1,26.4,72.6z"/>
		<path d="M25.3,42c0.1-1,0.8-2.2,0.5-3.2C25.7,39.9,24.8,40.9,25.3,42z"/>
		<path d="M46.4,65.5c-0.7-0.6-1.4-1.9-2.3-1.9C45,64.1,45.7,65.4,46.4,65.5z"/>
		<path d="M37.1,57.4c0.6,0.8,0.7,2,1.2,2.7C38.2,58.9,38,57.8,37.1,57.4z"/>
		<path d="M23.6,33.6c-0.3,0.4-0.5,0.8-0.6,1.3C23.6,34.9,23.7,33.8,23.6,33.6z"/>
		<path d="M44.3,65.1c0.1,0.7,0.1,1.6,0.8,1.7C45,66.1,44.9,65.3,44.3,65.1z"/>
		<path d="M47.5,67.8c-0.2-0.5-0.2-1.2-0.8-1.4C46.8,67,47.1,67.5,47.5,67.8z"/>
		<path d="M50.1,88c0.2-0.4-0.5-0.7,0-0.9c0.2,0.3,0.2,0.7,0.6,0.9c0.1-1-0.8-1.8-0.5-2.5c0.4,0.4,0.3,1.3,0.9,1.6
			c0.2-0.5-0.4-0.9,0-1c0.1,0.3,0.1,0.6,0.5,0.6c-0.1-0.9-0.9-1.9-0.8-2.6c0.4,0.6,0.5,1.6,1.1,2.2c0.1-0.3-0.2-1,0.2-1.2
			c0.5,1.3,1.3,2.3,2.4,3c-0.6-1.4-2.8-2.7-1.7-4.8c0.1,0.3,0.2,0.7,0.2,1.2c0.8-0.1,1,1.4,1.8,1.7c-0.3-1.3-2.1-2.5-1.1-4
			c0.4,1.2,0.7,3.2,1.7,3.3c-0.4-0.7-1.2-2.5-0.6-3.3c0.1,1.2,0.9,2.1,0.9,2.9c0.1-0.8,0.6,1,0.9,0.4c-0.5-0.4,0-0.8-0.3-1.3
			c0.9-0.2-0.9-2.1-0.2-3.2c0.1,0.7,0.2,1.4,0.5,1.9c0.4-0.3-0.4-1.3,0.2-1.7c0.1,1.9,0.9,3.2,1.5,4.6c0.3-1.1-1.8-3.9-0.8-5.8
			c0.2,0.3,0.2,1.1,0.6,0.4c0.3,1.1,0.6,2.2,1.4,2.9c-0.1-1.4-0.8-2.2-1.1-3.5c0.2-0.3,0.5-0.4,0.6-0.7c0.3,0.9,0.4,2,1.2,2.4
			c-0.5-1.7-2.2-4.4-0.6-6.2c0,0.8-0.7,2.3,0,2.9c0.1-3.1,1.2-5.1,1.5-7.3c-0.7,0.8-0.7,2.1-1.4,2.9c-0.1-1,0.8-1.8,0.5-2.6
			c-0.7,1-0.8,2.5-1.4,3.6c0-1.1,0.8-2.2,0.6-3c-0.9,1.2-0.8,3.3-1.7,4.6c0.1-0.9,0.7-2.7,0.5-2.9c-0.9,1.1-0.6,3.4-1.5,4.5
			c-0.1-0.4,0.1-0.6,0.2-0.9c0.1-1.7-0.3,1.6-0.8,1.6c-0.3-0.1,0.1-1-0.3-1.2c-0.2,0.4,0.1,1.3-0.6,1.3c-0.2-1.1,0.5-2.2,0.2-3
			c-0.9,1-0.3,4.1-1.5,4.3c0-0.5,0.4-0.6,0.3-1.2c-0.2,0-0.4,0-0.5-0.1c-0.1-2.5,1.1-4.4,0.6-6.8c-0.3,1.2-1.2,2.6-0.9,3.9
			c0.1-0.3,0.1-0.6,0.3-0.7c-0.2,1.4-1.2,2.2-1.5,3.5c0.4,0.2,0.6-0.7,0.8-0.3c-0.1,0.1-0.4,0.8-0.2,0.9c0.2-0.6,0.4-1.4,0.8-1.9
			c0.1,4.4-4.3,4.6-3.9,8.6c-0.5-0.6,0.2-1.9-0.3-2.7c-0.4,0.4,0.1,1.6-0.3,2c-0.1-0.4-0.1-1.6-0.3-1.4c0.1,1.1-0.6,1.9,0,2.6
			c-0.2-0.1-0.5-0.2-0.6-0.4c0.1-1.3-0.2-3.4-0.5-1.3C47.8,87,48.8,87.4,50.1,88z M53.1,81.2c0,0.3-0.2,0.9,0,1.6
			C52.4,82.7,52.9,81.4,53.1,81.2z"/>
		<path d="M35.4,54.8c0-0.7-0.2-1.3-0.6-1.7C34.9,53.8,35.1,54.3,35.4,54.8z"/>
		<path d="M33.9,52.7c0,0.6,0.2,1.2,0.5,1.6C34.3,53.6,34.3,53,33.9,52.7z"/>
		<path d="M36.8,59.2c-0.2-0.5-0.2-1.2-0.8-1.4C36.1,58.3,36.6,59.2,36.8,59.2z"/>
		<path d="M35.3,78.2c-1.9-1.2-2.6-3.5-4.8-4.3c2.4,3.5,6.3,5.7,8,9.8c0.2-0.4-0.4-0.6,0-0.7c0.5,0.6,0.6,1.6,1.2,2.2
			c0-0.6-0.4-1.4,0-1.9c0.6,0.6,0.3,2,1.7,1.9c0.1,0.3,0.1,0.8,0.5,0.9c0-0.2,0-0.4,0.2-0.4c0.5,0.8,1.2,2.1,1.5,2.6
			c0.1-0.2-0.2-0.7,0.2-0.7c0.6,0.9,0.8,2.3,1.5,3.2C45,89.4,44.8,88,44.9,87c0.6,0.8,0.1,1.9,0.6,2.7c0.5,0.1,0.3-0.4,0.8-0.3
			c0.2,0.3,0.2,0.7,0.6,0.9c0-0.9-1-1.5-0.3-2.2c0.3,0.7,0.5,1.4,1.2,1.7c0.1-0.9-1.3-1.5-0.6-2c0.4,0.7,1.3,1,1.7,1.7
			c0.2-1.4-1.7-1.5-1.2-2.7c0.1,0.4,0.2,0.8,0.8,0.9c-1-1.2-1.2-3.2-1.4-5.2c-0.5,1.2,0.1,3.3-0.2,4.3c-0.4-1.6-0.4-3.8-0.9-5.3
			c-0.2,2,0.4,3.8,0.3,5.2c-0.7-1.1-0.9-3.5-1.4-4.3c-0.1,0.3,0.2,0.9-0.2,1c-0.8-1.4-1.6-2.8-2.9-3.7c0.7,1.4,2.5,2.7,2,4.8
			c-0.4-1-0.9-2-1.5-2.7c-0.3,0-0.3,0.2-0.6,0.1c-0.1-0.3-0.4-0.4-0.5-0.7c-0.2,0-0.4,0-0.6,0c-0.1-0.1-0.5-0.9-0.5-0.3
			c0.6,1.3,2.1,2.6,2.3,3.9c-1.4-1.8-2.4-4-3.8-5.9c-0.4,0.8-0.2,2.3,0.2,2.9c-1.9-1.4-2.2-4.4-4.5-5.3C34.3,77.3,35,77.5,35.3,78.2
			z"/>
		<path d="M61.7,68.7c-0.1,0.7-0.5,1.1-0.6,1.7C61.7,70.3,62,69.2,61.7,68.7z"/>
		<path d="M56.2,71.4c-0.1,0.7-0.6,1.2-0.5,2.2C56.2,73.2,56.5,72,56.2,71.4z"/>
		<path d="M55.3,72.4c-0.3,0.6-0.9,1.7-0.5,2.5C55.1,74.2,55.6,73,55.3,72.4z"/>
		<path d="M33.3,50.7c-0.1,0.6,0,0.9,0.3,1.2c0.3,0,0.3-0.2,0.5-0.3c0.2,0.4,0.3,0.9,0.6,1.2c0.1-0.6,0.2,0.6,0.3,0
			C34.6,51.5,34.6,50.9,33.3,50.7z"/>
		<path d="M52,79.2c-0.1,0.5-0.6,1.2-0.2,1.7C51.8,80.3,52.4,79.6,52,79.2z"/>
		<path d="M48.7,66.6c0.4,0.9,0.7,1.9,1.4,2.6C49.7,68.2,49.5,67.2,48.7,66.6z"/>
		<path d="M50.2,81.8c0-0.3,0.1-1.6-0.2-1.3C50.1,80.8,49.9,82.1,50.2,81.8z"/>
		<path d="M51.3,75.9c0-1.4,0.4-3-0.5-3.9C51,73.4,50.6,75.3,51.3,75.9z"/>
		<path d="M48.7,68.1c-0.3-0.5-0.3-1.3-0.9-1.6C48,67,48.4,68.1,48.7,68.1z"/>
		<path d="M51.1,80.1c-0.1,0.5-0.4,0.8-0.3,1.4C51.2,81.4,51.3,80.3,51.1,80.1z"/>
		<path d="M62.4,68.5c-0.1,0.6-0.8,1.3-0.5,1.9C62.2,70,62.8,69,62.4,68.5z"/>
		<path d="M70.9,9.6c-0.3-0.1-0.4-0.4-0.9-0.3C69.9,9.7,70.8,9.9,70.9,9.6z"/>
		<path d="M27.6,24.4c-0.7-0.4-1.2,0.5-1.4,1C26.8,25.3,27.4,25.1,27.6,24.4z"/>
		<path d="M70,11.3c0.6,0.3,1.6-0.2,1.7-0.9C70.9,10.6,70.3,10.8,70,11.3z"/>
		<path d="M73.9,14.5c0.6,0.1,0.7,0.7,1.4,0.7C75.2,14.7,74.3,14.2,73.9,14.5z"/>
		<path d="M74.2,11.2c-0.3-0.1-0.8-0.7-1.2-0.3C73.4,10.9,73.9,11.6,74.2,11.2z"/>
		<path d="M74.5,13.8c0.5,0.2,0.7,0.6,1.2,0.7C75.6,14.1,74.9,13.4,74.5,13.8z"/>
		<path d="M16.1,68.1c-0.2,0.3-0.2,1.3,0,1.6C16.8,69.7,16.7,68.1,16.1,68.1z"/>
		<path d="M14.9,68.4c-0.2,0.3-0.5,0.9-0.2,1.3c0.6,0,0.6-0.6,0.6-1.2C15.2,68.5,15.1,68.3,14.9,68.4z"/>
		<path d="M13.8,70.1c0.4-0.5,0.5-1.3,0.6-2C13.6,68,13.2,69.7,13.8,70.1z"/>
		<path d="M80.5,13.6c0-0.6,0.1-1.4-0.5-1.4C80.1,12.8,80.1,13.4,80.5,13.6z"/>
		<path d="M77.4,10.7c0,0.4-0.1,0.8,0.3,0.9C77.9,11.4,77.9,10.6,77.4,10.7z"/>
		<path d="M78.1,12.9c0,0.4,0.1,0.8,0.3,1C78.3,13.6,78.7,12.8,78.1,12.9z"/>
		<path d="M77.4,73.6c-0.4,0-0.8-0.7-1.1-0.4C76.6,73.2,77,74,77.4,73.6z"/>
		<path d="M82.1,11.2c0.1-0.6,0-1-0.8-0.9C81.2,10.9,81.3,11.3,82.1,11.2z"/>
		<path d="M77.1,11.7c0-0.2,0-0.5,0-0.7c-0.6-0.1-0.7-0.6-1.4-0.7C76,10.9,76.5,11.3,77.1,11.7z"/>
		<path d="M78.7,11.3c0-0.4,0-0.7-0.3-0.7C78.2,10.8,78.3,11.3,78.7,11.3z"/>
		<path d="M77.8,10.3c-0.6-0.4-0.8-0.9-1.7-0.9C76.4,10.2,76.6,10.9,77.8,10.3z"/>
		<path d="M76.5,12c-0.2-0.6-0.9-0.8-1.5-1C75.1,11.7,75.8,11.9,76.5,12z"/>
		<path d="M78.6,10.2c-0.5-0.1-0.9-1.3-1.2-0.6C77.8,9.7,78.2,10.5,78.6,10.2z"/>
		<path d="M72.2,9.4c0-0.5-0.4-0.6-0.9-0.7c0.4,1-0.4-0.2-0.8,0.3C71.1,9.5,71.7,9,72.2,9.4z"/>
		<path d="M30.4,38.4c-0.2,0.2-0.3,1,0,1.2C30.5,39.3,30.8,38.6,30.4,38.4z"/>
		<path d="M25.9,18.8c1.8-0.1,1.5-3.3,3.3-2.4c0.2-1,0.9,0.1,1.4-0.7c0,0.3-0.2,0.3-0.2,0.6c0.9-0.7-1.4-2.5-2.3-2.4
			c0.4,0.3,0.8,0.7,0.9,1.3c-0.2,0.1,0,0.5-0.5,0.4c-0.3-1-0.7-1.9-1.5-2.5c0,0.9,1.4,1.7,0.5,2.5c0.1-0.9-0.5-2.1-1.5-2.5
			c0.3,0.7,1.4,1.5,1.1,2.3c-0.6,0.1-0.1-0.8-0.8-0.6c-0.2,0.2,0,0.8-0.6,0.6c0-0.5,0-0.9-0.2-1.3c-0.8,0.5-0.3-0.9-1.2-0.7
			c0.1,0.6,0.6,0.9,0.6,1.6c-0.8-0.2-0.3,1-1.2,0.7c0,0.8-1.2,1-0.6,1.9c-0.4-0.1-0.3,0.3-0.8,0.1c-0.2,0.5,0.4,0.4,0.3,0.9
			c-0.5-0.4-0.8,0.3-0.9,0.7c0.7,0.5,1.1-0.3,1.5,0.4c0.1-0.2-0.2-0.7,0.2-0.7c0.5-0.1,0.1,0.7,0.6,0.6c0.2-0.7-0.5-1.4,0-1.9
			c0.3,0.4,0.4,1,0.8,1.3c0.2-0.7-0.4-1.4,0-1.7c0.2,0.8,0.5,1.6,0.9,2.2c-0.5,0-0.8,0.6-0.5,1c0.6,0,0.9-0.3,1.1-0.7
			C26.2,19.4,26.1,19.1,25.9,18.8z"/>
		<path d="M21.8,19.7c0.1,0.4,0.2,0.7,0.5,0.9C22.6,20.3,22.5,19.5,21.8,19.7z"/>
		<path d="M29.7,41.1c0.1-0.6,0.5-2.4,0-2.6C29.5,39.1,29,40.7,29.7,41.1z"/>
		<path d="M28.9,20.7c0.3-0.1,0.3-0.5,0.3-0.9C28.6,19.6,28.1,20.7,28.9,20.7z"/>
		<path d="M26.7,22.3c0.8-0.1,0.7-0.9,0.6-1.4c-0.2,0-0.3,0-0.5,0C26.9,21.4,26.5,21.6,26.7,22.3z"/>
		<path d="M27.7,20.5c-0.2,0.2-0.3,0.9,0.2,0.9C28,21.3,28.3,20.4,27.7,20.5z"/>
		<path d="M27.6,35.1c0,0.6-0.7,1.5,0,1.9C27.4,36.2,28,35.5,27.6,35.1z"/>
		<path d="M23.5,15.3c-0.1,0-0.2-0.1,0-0.1c0.2,0,0.4,0,0.5-0.1c-0.2-0.2-1.1-0.3-1.2,0C22.9,15.2,23.2,15.8,23.5,15.3z"/>
		<path d="M31.5,46.3c0.2,0.9,0.6,1.6,1.2,2.2C32.4,47.7,32.1,46.9,31.5,46.3z"/>
		<path d="M26.4,14.5c-0.2-0.7-0.6-1.2-1.2-1.4C25.3,13.7,25.7,14.2,26.4,14.5z"/>
		<path d="M33.2,46.2c-0.1-0.4,0.3-1.5-0.3-1.4C33,45.2,32.5,46.2,33.2,46.2z"/>
		<path d="M64.4,75.6c0.2,1.6,0.4,3.2,1.1,4.3C65.2,79.5,64.9,76.7,64.4,75.6z"/>
		<path d="M33.5,53.1C33.3,51.4,32.7,52,33.5,53.1L33.5,53.1z"/>
		<path d="M61.8,80.3c0-0.5-0.2-0.8-0.6-1C61.4,79.7,61.3,80.3,61.8,80.3z"/>
		<path d="M32.9,13.8c-0.5,0.2-1.1,0.2-1.4,0.6C32.1,14.3,32.6,14.2,32.9,13.8z"/>
		<path d="M31.3,36.7c0,0.5-0.6,1.3-0.2,1.7C31.3,38,31.7,37.1,31.3,36.7z"/>
		<path d="M72.4,74.6c-0.4-1.1-0.9-2-1.5-2.9C71.2,72.8,71.5,74,72.4,74.6z"/>
		<path d="M31.8,45.9c0.4,0.4,0.4,1.2,0.9,1.4C32.5,46.9,32.2,45.7,31.8,45.9z"/>
		<path d="M45.2,57.6c0.2-0.8-0.3-1.6-0.8-2.2C44.5,56.4,44.4,56.9,45.2,57.6z"/>
		<path d="M44,50.1c-1-0.2-1.2-1.1-2.1-1.4C42.1,49.4,43.4,50.6,44,50.1z"/>
		<path d="M43,55.3c0.3,0.7,0.6,1.6,1.2,2C43.9,56.5,43.8,55.6,43,55.3z"/>
		<path d="M42.1,55c-0.3,0.4,0.1,1.4,0.5,1.2C42.2,55.9,42.5,55,42.1,55z"/>
		<path d="M46.6,57.9c-0.3-0.5-0.3-1.2-0.9-1.4C45.8,57.1,46.1,57.5,46.6,57.9z"/>
		<path d="M40.5,48.1c0.2,0.7,0.9,1,1.5,1.4C41.8,48.8,41.1,48.5,40.5,48.1z"/>
		<path d="M39.2,47.6c0.2,0.6,0.8,1.5,1.2,1.3C39.9,48.6,39.8,47.8,39.2,47.6z"/>
		<path d="M49.9,18.5c-0.5,0.5-1.6,0.3-1.5,1.3C49.1,19.6,50,18.9,49.9,18.5z"/>
		<path d="M34.4,47.5c-0.1,0.9,0.1,1.6,0.5,2C34.7,48.8,34.9,47.8,34.4,47.5z"/>
		<path d="M38.6,49.8c0.2,0.5,0.8,1.2,1.2,1C39.3,50.5,39.3,49.8,38.6,49.8z"/>
		<path d="M47.6,58.1c-0.1-0.6-0.4-1.1-0.8-1.4C47,57.3,47.2,57.9,47.6,58.1z"/>
		<path d="M47,39c0.2,0.1,0.5,0.9,0.8,0.4C47.6,39.3,47.3,38.5,47,39z"/>
		<path d="M46,58.3c0.4,0.1,0.5,0.6,0.9,0.7C46.8,58.6,46.3,58,46,58.3z"/>
		<path d="M52,33.6c1.7-1.8,4.2-3.6,5.1-5.6c-0.6,0.2-2.1,0.8-2.7,1.6c0,0.5,0.7-0.3,0.6,0.1c-0.8,0.5-1.6,0.9-2.6,1.3
			c0.3,0.5,0.8-0.1,1.1,0.1c-0.8,0.7-2.2,0.7-3.3,1.2c0.4,0,0.7,0.1,0.9,0.3c-0.4,0.1-1.2-0.2-1.4,0.1c0.8,0.5,2.3-0.1,2.6-0.1
			C52.2,33,52,33.2,52,33.6z"/>
		<path d="M45.7,12.5c-0.6-0.1-1.6-0.4-2,0.1C44.2,12.9,45.2,12.6,45.7,12.5z"/>
		<path d="M46,14.8c-0.9,0.2-1.7-0.5-2.3-0.1C44.3,14.8,45.6,15.4,46,14.8z"/>
		<path d="M37.4,49.6c0.3,0.7,1.2,1.5,1.7,1.6C38.5,50.7,38.2,49.9,37.4,49.6z"/>
		<path d="M46.9,14c-0.5,0.1-1.4-0.2-1.7,0.1C45.6,14.3,46.8,14.7,46.9,14z"/>
		<path d="M47.9,13.5c-0.3-0.1-1.2-0.3-1.5,0C46.9,13.5,47.7,14.1,47.9,13.5z"/>
		<path d="M44.2,18.2c-0.4,0.1-1.2-0.2-1.4,0.1C43.1,18.4,44.2,18.8,44.2,18.2z"/>
		<path d="M43.6,15.2c-0.2-0.1-0.4-0.1-0.8-0.3C43.2,15.5,44.7,15.6,43.6,15.2z"/>
		<path d="M37.1,52.4c0.4,0.7,0.7,1.5,1.2,2C38.2,53.4,37.9,52.6,37.1,52.4z"/>
		<path d="M35.6,48.5c-0.2,1.3,1,2.5,1.7,2.9C36.5,50.6,36.2,49.4,35.6,48.5z"/>
		<path d="M43.7,19.1c-0.5,0.1-1.4-0.2-1.7,0.1C42.5,19.3,43.5,19.7,43.7,19.1z"/>
		<path d="M42.4,15.9c-0.5,0-0.6-0.4-1.2-0.3C41.2,16,42.2,16.2,42.4,15.9z"/>
		<path d="M38,51.4c-0.2-0.7-1.3-1.9-1.7-1.4C37,50.3,37.3,51,38,51.4z"/>
		<path d="M51.6,60.7c0,0.6,0.4,0.9,0.8,1.2C52.1,61.4,51.9,61,51.6,60.7z"/>
		<path d="M64.1,23.8c-0.3,0.1-0.8,0-0.9,0.3c0.7,0.3,1.5-0.4,1.8-0.9c-0.7,0.1-1.6,0-2,0.4C63.3,23.8,64,23.5,64.1,23.8z"/>
		<path d="M63.8,24.4c-0.2,0.3-0.3,0.6-0.9,0.6c0.5,0.7-0.4,0.6-0.8,1c0.6,0.1,0.7-0.2,1.2-0.1c0-0.4,0.2-0.8,0.9-0.9
			C64.2,24.7,64.2,24.4,63.8,24.4z"/>
		<path d="M65.8,22c-0.7,0.3-1.7,0.3-2.1,0.9C64.6,22.7,65.6,23.1,65.8,22z"/>
		<path d="M61.7,27.5c0.6-0.2,1.2-0.5,1.4-1.2c-0.4,0.1-0.9,0.2-1.4,0.3C62,27.1,61.9,26.9,61.7,27.5z"/>
		<path d="M60.3,28.9c0.6-0.2,1-0.6,1.2-1.2C60.9,27.9,60.5,28.3,60.3,28.9z"/>
		<path d="M64.4,21.7c0.6-0.1,1.5,0.2,1.8-0.1C65.6,21.6,64.7,21.4,64.4,21.7z"/>
		<path d="M54.3,35.7c0.3,0.1,0.6-0.4,0.8,0c-0.3,1.2-1.8,1.3-2.3,2.3c0.7,0.1,1.2-0.8,1.5-0.6c-0.4,0.4-0.5,1.1-0.5,1.9
			c1.2-1.1,1.3-2.8,2.1-4c0.5-0.8,1.4-1.1,1.7-2c1-1.1,2.4-1.9,2.7-3.6C57.4,31.4,56.7,33.7,54.3,35.7z"/>
		<path d="M86.6,23.6c-0.2,0.4,0.8,0.4,0.8,0.1C87,23.6,86.8,23.3,86.6,23.6z"/>
		<path d="M85.1,19.4c-0.6,0.7-0.4-0.6-0.9-0.6c-0.1,0.6,0.4,0.6,0.5,1C85,20,85.5,19.5,85.1,19.4z"/>
		<path d="M66.2,20.5c0.2,0.1,0.3,0.2,0.5,0.3c-0.3,0.2-1-0.1-0.9,0.4c1.4,0,1.8-0.6,1.9-1.3c-0.1,0.4-0.2-0.5,0-0.5
			C67,19.1,66.3,19.9,66.2,20.5z"/>
		<path d="M66.8,17.8c0.3,0.2,1.1,0.7,1.5,0.3C67.7,18.2,67.1,17.5,66.8,17.8z"/>
		<path d="M51.3,10.9c-0.1-0.2-0.7,0-0.6-0.4c-1-0.1-1.6,0.2-2.6,0.1c-0.5,0-1,0-1.5,0C48.2,10.7,50.2,11,51.3,10.9z"/>
		<path d="M51.9,54.4c0.1-0.2,0.2-1.2-0.5-1.2C51.4,53.8,51.5,54.2,51.9,54.4z"/>
		<path d="M53.5,40.9c-0.4,0.9-1.3,1.4-1.7,2.3c0.6,0,0.8-1,1.2-0.7c0,1-0.9,1.1-0.9,2.2c0.7,0,0.5-0.8,0.9-1.2
			c0.1,0.4-0.3,1.2,0.3,1.2C53.5,43.6,54.2,41.7,53.5,40.9z"/>
		<path d="M53.4,54.4c0,0.9,0.2,1.6,0.6,2C54,55.5,53.9,54.7,53.4,54.4z"/>
		<path d="M52.9,41c-0.2,0.3-0.8,1-0.6,1.3C52.5,42,53.3,40.9,52.9,41z"/>
		<path d="M52.3,53.7c0,0.6,0,1.1,0.5,1.3C52.7,54.4,52.9,53.7,52.3,53.7z"/>
		<path d="M54,45c-0.3,0.3-0.1,1,0.3,1.2C54.6,45.8,54.4,45.1,54,45z"/>
		<path d="M52.6,48.9c-0.1,0.3,0.2,0.9-0.2,1c-0.7-0.7-0.6-2.1-1.4-2.6c0,1.5-0.6,1.5-0.5,3.3c0.7,0,0.3-1,0.8-1.2
			c0.4,0.3-0.4,1.4,0.3,1.6c0-0.4,0.1-0.7,0.3-0.9c0.4,0.5,0.9,0.9,0.8,1.9C53.2,51.6,53.8,49,52.6,48.9z"/>
		<path d="M53.5,46.8c-0.1,0.9,0.6,1.1,1.1,1.4C54.6,47.4,54.3,46.8,53.5,46.8z"/>
		<path d="M54.1,48.5c-0.3,0.5,0.1,1.5,0.8,1.6c0.3-0.6-0.1-1.1-0.3-1.6C54.4,48.5,54.3,48.5,54.1,48.5z"/>
		<path d="M54.3,55.3c-0.2,0.5,0.2,1.5,0.6,1.9C54.9,56.3,54.8,55.6,54.3,55.3z"/>
		<path d="M53.5,63c0.3-0.6,0.8-1.1,0.9-1.9C53.6,61.2,52.9,62.6,53.5,63z"/>
		<path d="M48.2,57.9c0.2,0.2,0.4,0.5,0.6,0.7c-0.2,0-0.3-0.3-0.5,0c0.3,0.2,0.4,0.6,0.8,0.7c-0.3-0.6-0.3-0.6,0.3-0.3
			C49.3,58.5,48.5,57.8,48.2,57.9z"/>
		<path d="M65.8,9.7c-0.2,0.2-0.5,0.3-0.5,0.7C65.6,10.4,66.1,9.9,65.8,9.7z"/>
		<path d="M66.2,18.9c-0.4,0-1-0.6-1.4-0.1C65.3,18.8,65.9,19.3,66.2,18.9z"/>
		<path d="M67.4,18.8c-0.5,0-1.3-0.5-1.5-0.3C66.3,18.6,66.9,19.2,67.4,18.8z"/>
		<path d="M61.7,13.2c0.2-0.6-0.9-0.6-0.9-0.1C61.2,12.9,61.2,13.3,61.7,13.2z"/>
		<path d="M67.6,17.4c0.1,0.7,2.2,0.6,2.4,0.1C69.3,17.4,68.2,17.1,67.6,17.4z"/>
		<path d="M68.5,8.7c-0.2-0.2-1.3-0.3-1.4,0.1C67.5,8.8,68.3,9,68.5,8.7z"/>
		<path d="M67.9,14.6c-0.8,0-0.8,0.6-1.1,1.2C67.3,15.6,67.9,15.3,67.9,14.6z"/>
		<path d="M58.4,14.6c0.1-0.4,0.5-0.6,0.5-1.2c-0.9,0-1.2,0.6-1.5,1.2C57.9,14.7,57.8,14.7,58.4,14.6z"/>
		<path d="M58.1,28c0.2,0.2,0.7,0.2,0.8-0.1C58.6,27.7,58.1,27.7,58.1,28z"/>
		<path d="M59.9,24.7c-0.2,0-0.2-0.2-0.5-0.1c-0.3,0.3-0.4,0.8-0.5,1.3C59.5,25.7,59.8,25.4,59.9,24.7z"/>
		<path d="M60.5,14.5c-0.3-0.2-1.2-0.2-1.4,0.1C59.5,14.5,60.3,14.8,60.5,14.5z"/>
		<path d="M61.2,13.6c-0.1-0.1-0.8-0.3-0.9,0C60.4,13.7,61.2,13.9,61.2,13.6z"/>
		<path d="M58.5,51.7c0.1-0.5-0.1-0.6-0.6-0.6C57.9,51.5,58.1,51.6,58.5,51.7z"/>
		<path d="M56.5,60.9c-0.1-0.4-0.1-0.9-0.3-1.2C56.4,60.1,56,61,56.5,60.9z"/>
		<path d="M58.7,59.4c0.2,0.5,0.2,1.1,0.6,1.4C59.3,60.2,59.3,59.5,58.7,59.4z"/>
		<path d="M55.6,60.3c-0.2-0.5,0.3-1.7-0.3-1.7C55.4,59.2,55.1,60.2,55.6,60.3z"/>
		<path d="M61.2,60.6c0.1-0.6,0-1.1-0.5-1.2C60.9,59.9,60.8,60.5,61.2,60.6z"/>
		<path d="M64.8,56.3c0.1-0.3-0.5-0.5,0-0.6c-0.2,0.4,0.5,0.6,0.6,0.3c-0.5-0.8-0.9-0.8-1.7-1.3C64.1,55.3,64.1,56.2,64.8,56.3z"/>
		<path d="M60.5,60.7c0-0.5-0.1-0.9-0.5-1C60.3,60,59.9,60.8,60.5,60.7z"/>
		<path d="M57.8,54.7c0-0.8-0.3-1.3-0.5-1.9c-0.2,0-0.3,0-0.5,0C56.6,53.4,56.8,54.7,57.8,54.7z"/>
		<path d="M56.1,53.5c0.1-0.4,0.4-1.8-0.2-2C55.5,51.7,55.4,53.5,56.1,53.5z"/>
		<path d="M56.4,18.1c1-0.1,1.6-0.7,2-1.4C57.7,16.6,56.7,17.4,56.4,18.1z"/>
		<path d="M60.6,54.4c0.1,0.5,0.4,0.7,0.6,1C61.2,54.9,61,54.6,60.6,54.4z"/>
		<path d="M60.3,54.5c-0.3-0.5,0.1-1.8-0.9-1.9c-0.1,0.5,0.6,1,0.2,1.3c0-0.4,0-0.7-0.5-0.7C59.2,53.9,60,54.6,60.3,54.5z"/>
		<path d="M64.1,56.3c-0.1-0.6-0.3-1.3-0.9-1.4C63.4,55.4,63.4,56.2,64.1,56.3z"/>
		<path d="M55.9,19.5c1.2,0,1.7-0.6,2-1.4c-0.7-0.1-0.9,0.8-1.5,0.3c0.2,0.4-0.6,0.5-0.2,0.6c0-0.2,0.4-0.5,0.5-0.1
			C56.4,19,56.3,19.4,55.9,19.5z"/>
		<path d="M54.3,13.3c-0.6,0.2-0.9-0.4-1.1,0.1c0.2,0,0.4,0,0.5,0.1C53.1,13.7,52,13.3,52,14c0.3,0.1,1-0.2,1.1,0.1
			c-0.6,0.5-1.1,1-1.5,1.7C52.9,16,53.6,14.3,54.3,13.3z"/>
		<path d="M52.2,17.9c-0.7,0-0.9,0.3-1.2,0.7C51.6,18.6,51.9,18.3,52.2,17.9z"/>
		<path d="M44.6,20.7c0.7-0.3,1.2-0.8,1.5-1.4C45.3,19.3,44.4,20,44.6,20.7z"/>
		<path d="M56.8,13.2c-0.2,0.6-0.8,0.8-0.9,1.4C56.5,14.5,57.1,13.6,56.8,13.2z"/>
		<path d="M55.5,17.2c-0.5,0-1.1-0.7-1.5-0.3C54.4,17,55.1,17.6,55.5,17.2z"/>
		<path d="M54.9,21.8c-1.5,0.4-1.8-1-2.7-0.7c0.2,0.2,1.1,0.5,0.8,0.7c-1,0.3-1.3-0.8-1.8-0.4C51.8,22.3,53.9,22.6,54.9,21.8z"/>
		<path d="M47.6,14.5c-0.2,0.7,1.5-0.1,0.9,0.6c0.6-0.5,1.1-0.2,1.8-0.4c-0.3,0-0.5-0.1-0.6-0.3c0.2-0.2,1.6,0,1.2-0.3
			c-0.6,0-2.1-0.4-2.1,0c0.3,0.1,0.9-0.2,0.8,0.3C48.4,14.3,49,14.7,47.6,14.5z"/>
		<path d="M46.1,20.5c1.1-0.1,1.5-1,2.3-1.4C47.2,19.2,46.6,19.8,46.1,20.5z"/>
		<path d="M45.1,49.5c0.3,0.2,0.5,0.5,0.9,0.6C46,49.7,45.3,49.2,45.1,49.5z"/>
		<path d="M48.7,12.6c-0.4-0.1-1.4-0.3-1.7,0C47.6,12.5,48.4,13.3,48.7,12.6z"/>
		<path d="M43.7,17.4c0,0.5,1.1,0.6,1.4,0.3C44.7,17.5,44.3,17.4,43.7,17.4z"/>
		<path d="M43.3,49.1c0.6,0.2,1,1.4,1.8,1C44.4,49.9,43.9,48.8,43.3,49.1z"/>
		<path d="M55.5,13.3c-0.3,0.4-1.4,0.6-1.1,1.2C54.9,14.3,55.7,13.7,55.5,13.3z"/>
		<path d="M57.3,19.2c-0.4,0.4-0.9,0.6-1.4,0.9C56.6,20.6,57.7,19.8,57.3,19.2z"/>
		<path d="M53.2,9.9c-2.1,0.1-3.5-0.9-5.3,0C49.9,9.4,51.6,10.7,53.2,9.9z"/>
		<path d="M55.2,16.2c-0.1,0.6,0.7,0.3,0.9,0.6C56.1,16.3,55.4,16.5,55.2,16.2z"/>
		<path d="M52.5,31.3C50.5,31.2,51,31.8,52.5,31.3L52.5,31.3z"/>
		<path d="M52.8,18.1c0.9-0.5,1.3,0.2,2.1,0c-0.5-0.1-0.9-0.3-1.1-0.9c-0.1,0.5-0.9-0.3-0.9,0.1C53.4,17.6,52.6,17.7,52.8,18.1z"/>
		<path d="M56.1,24.7c0,0.1-0.1,0.2-0.2,0.3c0.8-0.2,0.8-1,1.2-1.6c-0.8,0.1-0.8,0.9-1.4,1.2C54.5,24.8,55.1,25,56.1,24.7z"/>
		<path d="M57.1,29.6c0.4,0.1,1-0.2,0.6-0.4C57.8,29.6,56.9,29,57.1,29.6z"/>
		<path d="M57.1,26.9c-1-0.1-0.2-0.6-0.3-1.3c-0.3,0.2-1.6,0.1-1.4,0.3c0.2,0.1,0.8-0.2,0.8,0.1c-0.1,0.2-0.2,0.4-0.2,0.7
			c-0.4,0-0.7,0-0.8,0.3C55.9,26.9,56.8,27.2,57.1,26.9z"/>
		<path d="M53.2,20.7c0.1,0.8,1.1,0.7,1.7,1c0-0.6-0.9-0.3-1.1-0.7c1.5,0.1,3.6,0.4,3.3-0.6C56.2,21.4,54.6,20.2,53.2,20.7z"/>
		<path d="M57.3,21.4c-0.7-0.2-1.5,0.6-2.3,0.9c0.5,0.2,1-0.4,1.2-0.1c0,0.6-1.6,0.5-1.2,1c0.1-0.2,0.4-0.3,0.8-0.3
			c-0.2,0.3-0.3,0.6-0.6,0.9c-0.5,0.1-1.3-0.2-1.4,0.3c0.5,0.2,1.3,0.1,1.7,0.4C56.3,23.6,56.8,22.5,57.3,21.4z"/>
		<path d="M53.7,20.1c0.5-0.1,1.3,0.2,1.5-0.1C54.9,19.8,53.7,19.6,53.7,20.1z"/>
	</g>
</g>
</svg>
