<?xml version="1.0" encoding="utf-8"?>
<!-- Generator: Adobe Illustrator 18.1.1, SVG Export Plug-In . SVG Version: 6.00 Build 0)  -->
<!DOCTYPE svg PUBLIC "-//W3C//DTD SVG 1.1//EN" "http://www.w3.org/Graphics/SVG/1.1/DTD/svg11.dtd">
<svg version="1.1" xmlns="http://www.w3.org/2000/svg" xmlns:xlink="http://www.w3.org/1999/xlink" x="0px" y="0px"
	 viewBox="0 0 100 100" enable-background="new 0 0 100 100" xml:space="preserve">

<g id="AREA_1">
	<g>
		<g>
			<path fill="#010101" d="M71.3,49.7c2.7-5.2,0.5-14,0.4-14.4l-0.1-0.3l-0.3,0c0,0-3.3-0.1-5.3-1c-0.1-0.1-0.3-0.1-0.4-0.2
				c0-0.1,0-0.2-0.1-0.3c-0.1,0-0.2-0.1-0.3-0.1c-0.2-0.9-0.8-1.9-1.1-2.9c-0.3-1-0.3-2-1-2.6c0.4-1.4-0.1-2.6-0.6-3.5
				c-0.6-1.2-1.7-1.9-2.7-2.6c-0.8-0.5-1.8-1-2.9-0.8c-0.2-0.8-1-0.8-1.8-1.1c-0.4-0.1-0.8-0.3-1.1-0.3c-0.6-0.1-1.2,0.2-1.7,0
				c-0.1,0.1-0.2,0.1-0.3,0.1c-0.1-0.1-0.2-0.1-0.5-0.1c-0.2-0.3-0.6-0.4-0.5-0.8c0.1-0.3,0.4-0.8,0.6-1.3c0.2-0.6,0.5-1.1,0.5-1.8
				c0.5,0.8,1.2,1.4,1.8,2c0.1-0.1-0.1-0.2,0-0.3c0.1,0.1,0.1,0.3,0.2,0.3c0.1,0,0-0.2,0.1-0.2c0.4,0.1,0.5,0.4,0.8,0.5
				c0-0.1-0.1-0.2,0-0.2c0.2,0.3,0.7,0.2,1,0.4c0-0.1-0.1-0.2,0-0.2c0.2,0.3,0.5,0.3,0.8,0.4c0.1-0.2-0.2-0.2-0.1-0.3
				c0.1,0.3,0.4,0.2,0.6,0.2c0.6,0.2,0.8,0.7,1.1,1.3c0.1-0.4-0.2-0.7-0.3-1c0.2,0.1,0.1-0.1,0.1-0.1c0.3,0,0.6,0.5,1,0.3
				c-0.1-0.3-0.5-0.4-0.8-0.5c-0.8-0.7-1.7-1.5-2-2.7c0.1,0,0,0.1,0.1,0.1c-0.1-0.6-0.5-0.9-0.6-1.6c0.3,0.3,0.3,0.8,0.6,1.1
				c0-0.6-0.4-1.1-0.6-1.5c0,0,0.1,0.1,0.1,0c-0.1,0-0.2-0.4-0.2-0.5c0.1,0.3,0.3,0.5,0.4,0.9c0-0.8-0.5-1.1-0.5-1.8
				c0.1,0,0.1,0.2,0.2,0.2c0-0.4-0.4-0.6-0.3-1c0.1,0.1,0.1,0.3,0.2,0.3c0.1-0.5-0.4-0.7-0.3-1.2c0,0.2,0.2,0.3,0.2,0.6
				c0.4-0.5-0.5-1-0.2-1.5c0.2,0.3,0.2,0.8,0.5,1c0-0.7-0.4-1-0.4-1.7c0.2,0.1,0.2,0.4,0.4,0.6c0-0.5-0.5-0.7-0.4-1.1
				c0.1,0.1,0.1,0.3,0.2,0.3c0-0.5-0.4-0.6-0.4-1.1c0.1,0,0.1,0.2,0.2,0.1c-0.1-0.2-0.3-0.4-0.3-0.6c0.2,0,0.3,0.3,0.4,0.2
				c-0.2-0.3-0.6-0.5-0.8-0.9c0.1,0,0.3,0.2,0.4,0.2c-0.2-0.3-0.8-0.4-0.8-0.7c0.2,0.1,0.4,0.2,0.6,0.3c-0.2-0.5-1-0.4-1.3-0.8
				c0.3,0,0.6,0.2,0.8,0c-0.4-0.2-0.8-0.3-1.4-0.3c-0.3-0.3-0.8-0.2-1.2-0.4c-0.4-0.2-0.6-0.6-1-0.6c0.3,0,0.5,0,0.7,0
				c-0.4-0.3-1.4-0.2-1.9-0.4C49.9,3.6,50,3.6,50,3.5c-0.6,0.2-1.3,0.2-2,0.2c0.1-0.1,0.3-0.1,0.4-0.2c-0.5-0.1-0.7,0.3-1.2,0.3
				c0.1-0.2,0.4-0.2,0.3-0.4C47,3.5,47,4,46.5,4.1C46.6,4,46.7,4,46.8,3.8c-0.3,0-0.5,0.5-0.7,0.3c-0.7,0.4-0.9,1.1-1.2,2
				c-0.1-0.1,0.1-0.6-0.1-0.7c-0.1,0.3,0,0.9-0.2,1.1c-0.1-0.2-0.1-0.5-0.1-0.7c-0.2,0.4,0.1,0.7,0,1.1c-0.1-0.1,0-0.5-0.2-0.5
				c-0.1,0.4,0.1,0.8,0.2,1.1c-0.1,0,0-0.2-0.1-0.2c0,0.5,0.1,0.8,0.2,1.3c-0.1,0,0-0.1-0.2-0.1c0.1,0.3,0.3,0.5,0.5,0.8
				c-1,0.7-1.5,1.8-1.5,3.5c-0.1,0.1-0.2,0.1-0.3,0.2c-0.1,0.5-0.4,1-0.3,1.5c0.1,0.3,0.4,0.6,0.3,1c0,0.1,0.1,0.1,0.1,0.2
				c0,0.4,0.1,0.8,0.3,0.9c0.3,1,0.5,2.1,1,2.9c-0.1,0.7-1.1,0.5-0.9,1.3c-0.5,0.3-1.2,0.4-1.4,1c-0.4,0-0.8,0.3-1.1,0.5
				c-1,0.7-1.8,2.3-2.1,3.6c-0.4,1.6-0.1,3.4,0.9,4.4c0,0.1,0.1,0.1,0,0.2c0.1,0.1,0.3,0.1,0.5,0.2c-0.4,1.1-0.6,2.5-0.4,4
				c0.1,1.1,0.7,2,1.1,2.8c0.1,0,0.2,0,0.2,0.1c0.1,0.1,0.1,0.2,0.1,0.3c-1,0.2-2,0.8-3.1,1.1c-1,0.4-2.2,0.8-3.3,1
				c-0.4,0-0.8-0.1-1.2,0c-0.5,0.1-0.2,0.2-0.5-0.1c-0.4-0.4-1.2-0.4-1.8-0.6c0-1.1,0-2.4,0-3.3c0.7-0.4,0.5-2,0-2.5
				c-0.4-0.1-0.8-0.4-1.2-0.4c-1.3-0.1-1.9,1.7-1.2,2.8c0.1,0,0.2,0.1,0.3,0.2c-0.1,0.9-0.1,2.6,0,3.7c-0.6,0-0.7,1.1-0.4,1.6
				c-0.2,0.4-0.1,1.2,0.1,1.5c-0.2,0.5-0.1,1.3,0.4,1.4c0,0.2,0.1,0.3,0.2,0.4c-0.7,0-1.4,0-2.1,0c0-0.1,0-0.2-0.1-0.3
				c-0.8,0.1-1.5,1.4-0.8,2.1c0.1-0.2,0.3-0.3,0.4-0.5c1.1,0.1,2.3,0.1,3.5,0.1V86h0.3V46.2c1.1,0,2.2,0,3.2,0
				c0,0.2,0.1,0.3,0.3,0.4c1-0.2,0.7-2.1-0.4-2c-0.1,0-0.1,0.2-0.2,0.2c-0.7-0.1-1.4,0.1-2,0c0-0.1,0-0.1,0-0.2
				c0.5,0.2,1.3,0.1,1.7-0.2c0.1,0,0.1,0.1,0.2,0.1c0.7,0.1,1.3,0.1,1.9,0.1c1.7,0.1,3.1,0.8,4.9,0.9c0.5-0.5,0.9-1.2,1.3-1.8
				c0.1,0.8,0.3,1.3,0.6,1.9c-0.1,0.3-0.2,0.6-0.3,0.9c-0.1-0.1-0.4,0-0.6,0c-0.4,0.8-0.5,1.8-0.6,2.8c-0.1,0.8-0.3,1.5-0.4,2.3
				c0,0.4,0,0.9,0,1.4c-0.1,2.6-0.1,5.1,0.2,7.4c0.3,1.9,0.7,3.6,1.1,5.3c-0.1,0-0.1-0.1-0.3-0.1c-0.8,0.6-1,1.8-0.8,3.2
				c0.1,1.1,0.5,2.3,0.8,3.3c0.1,0.4,0.4,0.7,0.5,1.1c0.1,1.4-0.4,2.6-0.3,4.1c0.1,0,0.1,0.1,0.1,0.1c0.2,0,0.3-0.1,0.4-0.1
				c0.1,0.5,0,0.9,0,1.4c-0.2,2.2,0.2,5,0,7c-0.4,0.5-1.5,0.4-1.4,1.3c0.1,0.1,0.1,0.2,0.2,0.3c-0.7,0.1-1.2,0.5-1.7,0.7
				c-0.2,0.1-0.5,0.1-0.8,0.2c-0.5,0.2-1,0.4-1.6,0.5c-0.1,0-0.3,0-0.4,0c-0.1,0-0.1,0.1-0.2,0.2c-0.4,0.2-0.9,0.2-1.4,0.3
				c-0.3,0.1-0.8,0.3-1.1,0.5c-0.6,0.3-1.4,0.7-1,1.4c0.1,0.1,0.1-0.1,0.3,0c0.8,0.2,1.6,0.3,2.4,0.4c1.8,0.2,3.7-0.8,4.8-0.6
				c1.3-0.5,3.1,0.2,4.6,0c0.1,0,0.1-0.2,0.3-0.2c0.7,0,1.6,0.5,2.1,0c0-1.1,0.1-2.2-0.4-2.8c0.4-0.1,0.3-0.5,0.5-0.8
				c-0.5-1.7-0.4-4.2,0.5-5.4c0.3,0.6,1.1,0.8,2,0.6c0.3,0.1,0.5,0.4,0.7,0.5c0.6,0.3,1.3,0.9,1.9,1c0.2,0,0.5,0,0.8,0
				c0.8,0.1,1.5,0.9,2.3,1c1.2,0.2,2.3-0.1,3.3-0.5c0.1-0.9,1.4-0.7,1.7-1.4c0.3,0.9,0.6,1.7,0.7,2.7c0,0.6-0.2,0.9-0.4,1.4
				c-0.3,1-0.4,2,0.1,3.1c-0.4,1-0.9,2.1-1.4,3c-0.3,0.4-0.5,0.5-0.5,0.9c-0.1,0.4,0.2,0.9,0.3,1.2c0.3,0.7,0.5,1.2,0.7,1.9
				c0.4,1.1,0.8,1.3,2.2,1.2c0.8-0.1,1.4,0,1.9-0.3c0.1-0.2,0.2-0.3,0.3-0.3c0.5-0.6,1-1.6,1.6-2.3c0.2-0.3,0.5-0.5,0.6-0.7
				c0.3-0.7-0.1-1.4,0-2.4c0-0.1,0.1-0.1,0.1-0.2c0-0.1-0.1-0.1-0.1-0.2c0.9-0.4,0.7-2.4,0.3-3.2c0.1-1.9-1.2-3-1.4-4.8
				c-0.2-2.1,0.2-4.2,0-6.1c-0.2-2-0.6-3.6-1.3-5.1c-0.2-0.3-0.4-0.7-0.5-0.9c0-0.2,0.1-0.4,0-0.5c0-0.1-0.2-0.3-0.3-0.4
				c-0.3-0.4-0.5-0.7-0.9-1c0-0.9-0.4-1.4-0.7-2c0-1.1-0.3-1.9-0.8-2.4c0-0.7,0.2-2,0.1-2.8c0-0.1,0-0.1,0-0.2
				C62.8,61.1,67.2,57.2,71.3,49.7z M57.7,18.6c-0.1,0.1-0.2-0.1-0.3-0.2C57.4,18.4,57.7,18.6,57.7,18.6z M64.4,31.9
				c0,0.3,0.1,0.4,0.2,0.6c-0.1-0.3-0.4-0.2-0.4-0.7C64.3,31.9,64.3,31.9,64.4,31.9z M63.7,31C64.2,31.2,63.4,31.5,63.7,31L63.7,31z
				 M63.6,30.2c0.2,0,0,0.2,0,0.2C63.5,30.4,63.6,30.3,63.6,30.2z M63.7,31.4c0,0,0.1,0,0.1,0c0,0.7,0.5,1.2,0.7,1.7
				c-0.3-0.3-0.6-0.6-0.8-0.8C63.5,32,63.5,31.7,63.7,31.4z M63,28.3c0.3,0.4,0.5,0.9,0.5,1.6c-0.1,0.1,0-0.2,0-0.3
				c-0.1-0.4-0.3-0.9-0.5-1.2C62.9,28.4,63,28.4,63,28.3z M62.8,29c0.4,0,0.4,1,0.1,1.2c-0.1-0.2,0-0.6-0.2-0.9
				c-0.2,0-0.1,0.2-0.3,0.2c0-0.2,0-0.7,0.4-0.7C62.9,28.9,62.8,28.9,62.8,29z M63.3,30.4c0.1,0.4-0.1,0.8-0.1,1.2
				c-0.2-0.2-0.2-0.4-0.2-0.4l0,0C63,31,63.1,30.7,63.3,30.4z M57.1,21.4c0.2,0,0.4,0.2,0.6,0.2c0.1-0.1-0.1-0.2-0.1-0.3
				c0,0,0.1,0,0.1,0c2.1,0.7,4.1,2.1,4.9,4.2c0.1,0.3,0.3,0.6,0.3,0.9c0.2,1.3-0.6,2.2-0.8,3.3c-0.7,0.4-1.6,0.1-2.5,0
				c-0.4-0.1-0.8,0-1.2-0.1c-0.1,0-0.3-0.2-0.4-0.2c-0.9-0.3-1.8-0.4-2.6-0.7c0.2,0.4,0.8,0.5,1.3,0.6c-0.9,0-1.7-0.5-2.1-1.1
				c-0.1-0.1,0-0.1,0-0.3c-0.6-0.8-1.2-1.5-1.1-2.8c0.1-0.8,0.7-1.8,1.3-2.4C55.3,22.2,56.2,21.4,57.1,21.4z M61.8,30.2
				c0-0.2,0.2-0.2,0.3-0.3C62.2,30,62,30.2,61.8,30.2z M61.7,30.1c-0.3,0.2-1.1,0.1-1.3-0.1C60.9,30.1,61.2,30,61.7,30.1z M60.2,30
				c-0.1,0.1-0.2,0.1-0.3,0.1c0,0,0-0.1,0-0.1C59.9,29.9,60.1,30,60.2,30z M59.6,30.1c-0.1,0.2-0.4,0.1-0.5,0
				C59.3,30,59.4,30.1,59.6,30.1z M59,30.1c-0.1,0.1-0.5,0-0.5,0C58.4,30,58.9,30,59,30.1z M58.3,29.8c0.1-0.2,0.3,0,0.5,0
				C58.8,30,58.4,29.9,58.3,29.8z M54.2,30.1c0.3,0.4,0.3,1,0.6,1.3c-0.1,0.1-0.3-0.2-0.4-0.3C54.6,30.8,54.3,30.5,54.2,30.1z
				 M54.2,30.8c-0.1,0-0.1-0.2-0.1-0.3C54.3,30.5,54.2,30.7,54.2,30.8z M54.4,29.8c0.1,0.1,0.2,0.3,0.2,0.6
				C54.4,30.3,54.4,30,54.4,29.8z M54.7,31c0-0.2,0-0.5-0.1-0.5c0-0.1,0.1-0.1,0-0.3c0.4,0.6,0.8,1.3,1.5,1.6c0,0.1,0.1,0.2,0.1,0.2
				c0,0-0.1,0.1-0.1,0.1C55.6,32,55.1,31.5,54.7,31z M54.1,29.3C54,29.3,53.9,29.1,54,29c0,0,0.1,0,0.1,0
				C54.1,29,54.1,29.2,54.1,29.3z M53.8,28.5c-0.1-0.1,0.1-0.2,0-0.3c0.1,0,0.1,0.1,0.2,0.2C53.9,28.4,53.8,28.4,53.8,28.5z
				 M53.8,28.8c-0.1-0.1,0.1-0.2,0.1-0.3C53.9,28.6,53.8,28.7,53.8,28.8z M51.8,11.3c0.1-0.4,0.3-0.7,0.4-1c0.1,0.4-0.3,0.7-0.3,1.1
				C51.8,11.5,51.9,11.3,51.8,11.3z M51.4,13.3c0-0.1,0-0.1,0-0.2c0.1,0.1,0.1,0.2,0.1,0.3C51.4,13.4,51.4,13.4,51.4,13.3
				C51.5,13.3,51.4,13.3,51.4,13.3z M51.2,10.5c0.2,0,0.1,0.2,0.1,0.5c-0.5-0.6-0.8-1.4-1.5-1.8c0.4-0.2,0.6-0.2,0.9-0.2
				c0.1,0.1,0.2,0.2,0.3,0.3C51,9.8,51.5,10.1,51.2,10.5z M51.2,12.7c-0.1-0.1,0.1-0.2,0.2-0.3C51.4,12.4,51.2,12.5,51.2,12.7z
				 M51.3,12.5c0.1,0.2-0.1,0.3-0.2,0.4C51.1,12.8,51.3,12.7,51.3,12.5z M51.3,8.8c0.1,0,0.1,0,0.2,0c0,0.1,0,0.5-0.1,0.7
				C51.4,9.3,51.3,9.1,51.3,8.8z M51.4,12.8c0.1,0.1-0.1,0.2-0.1,0.4C51.2,13,51.4,12.9,51.4,12.8z M51.7,9.5
				c0.1,0.2-0.2,0.6-0.2,0.9C51.5,10.1,51.7,9.8,51.7,9.5z M51.6,9c0.1,0.1,0,0.6-0.1,0.7C51.4,9.6,51.7,9.3,51.6,9z M51.9,9.8
				c0.1,0-0.1,0.4-0.2,0.6C51.6,10.2,51.9,10,51.9,9.8z M51.8,9c0.2,0,0,0.2,0,0.3C51.8,9.3,51.9,9.1,51.8,9z M52,9.9
				c0.2,0.3-0.3,0.7-0.3,1.1C51.7,10.7,51.9,10.3,52,9.9z M54.1,10.9c0.1,0-0.1-0.2,0.1-0.2c0,0.2,0,0.5,0.1,0.7
				c-0.6-0.7-1.1-1.5-1.8-2C53.1,9.7,53.7,10.3,54.1,10.9z M53,8.8c0.1,0.1,0.2,0.1,0.2,0.2C53.1,9,53,8.9,53,8.8z M53.6,9.8
				c-0.1-0.1-0.2-0.3-0.2-0.5C53.5,9.4,53.7,9.7,53.6,9.8z M53.7,10.1c-0.1-0.1-0.1-0.1-0.2-0.2C53.7,9.9,53.7,10,53.7,10.1z
				 M53.3,8.9c0.1-0.1,0.2,0.1,0.2,0.2C53.3,9.1,53.4,9,53.3,8.9z M54,10c0.1,0.1,0.1,0.3,0.2,0.5c0,0,0,0,0,0c0,0,0,0,0,0
				c0-0.1-0.3-0.2-0.3-0.3c0.1,0,0.1,0.1,0.1,0.1C54.1,10.2,54,10.1,54,10z M54,9.5c0.4,0.8,0.8,1.5,1,2.5
				C54.5,11.3,54.3,10.4,54,9.5z M52.2,8.4c0.1,0,0.6,0.2,0.8,0.4C52.7,8.8,52.4,8.6,52.2,8.4z M52.4,10.5c0.1,0,0.3,0.2,0.3,0.4
				C52.5,10.8,52.5,10.6,52.4,10.5z M52.6,11.2c-0.2,0-0.2-0.2-0.1-0.3C52.6,10.9,52.7,11,52.6,11.2z M52.1,12
				c-0.1-0.5,0.1-0.9,0.2-1.3C52.5,11.1,52.2,11.6,52.1,12z M52,12.4c-0.1-0.1-0.1-0.3,0-0.5C52,12,52,12.2,52,12.4z M51.8,12.9
				c0.1,0.1,0.2,0.2,0.2,0.3c-0.1,0-0.1,0-0.2,0C51.8,13.1,51.8,13,51.8,12.9z M51.9,14.2c0-0.2,0-0.5,0-0.7
				C52,13.7,52.1,14.1,51.9,14.2z M52,12.5c0.1,0,0,0.1,0.1,0.1c0-0.5,0.3-0.9,0.3-1.4c0.3,0.5-0.2,1-0.3,1.6
				C52.1,12.7,52,12.6,52,12.5z M52.4,13.1c-0.3-0.3,0.1-0.8,0.2-1.2C52.7,12.3,52.4,12.7,52.4,13.1z M52.6,15.3c-0.1-0.3,0-0.7,0-1
				C52.7,14.7,52.7,15,52.6,15.3z M52.6,13.5c-0.1-0.1,0-0.3,0-0.3C52.8,13.2,52.6,13.3,52.6,13.5z M53,15.4
				C53,15.2,53.1,15,53,15.4c0.1,0.1,0.1,0.4,0.2,0.5C53,16,53.1,15.5,53,15.4z M53.4,16.1c0.1-0.1,0.1,0.3,0.2,0.5
				C53.4,16.5,53.5,16.2,53.4,16.1z M53.5,15.4c0.1,0.1,0.1,0.3,0.2,0.4C53.6,15.8,53.5,15.5,53.5,15.4z M54.1,16.3
				c0.1,0.1,0.2,0.2,0.2,0.3C54.1,16.6,54.1,16.5,54.1,16.3z M54.5,16.8c0.1,0.1,0.3,0.2,0.4,0.5C54.7,17.2,54.6,17,54.5,16.8z
				 M54.7,16.5c0.1,0.2,0.3,0.3,0.5,0.4c0,0.1-0.1-0.1-0.2-0.1c0.2,0.3,0.6,0.5,0.9,0.7C55.3,17.3,54.8,17,54.7,16.5z M57.3,17.9
				c-0.1,0-0.3-0.2-0.4-0.3c-1.1-0.1-1.7-1-2.4-1.7c0.2,0.3,0.4,0.5,0.6,0.7c-0.2-0.1-0.4-0.3-0.6-0.4c0,0,0,0.1,0,0.1
				c-0.2,0-0.3-0.4-0.4-0.6c-0.3-0.2-0.4-0.6-0.6-0.9c0-0.2,0.1,0.2,0.3,0.1c-0.3-0.4-0.6-0.7-0.7-1.3c0.2,0.1,0.2,0.3,0.3,0.3
				c-0.1-0.4-0.5-0.5-0.5-0.9c0.6,1,1.2,1.9,2.1,2.6c0.1,0-0.1-0.1-0.1-0.2c-0.1-0.1-0.2-0.2-0.3-0.2c-0.6-0.6-0.9-1.2-1.4-1.9
				c-0.1-0.2-0.4-0.4-0.4-0.7c0.4,0.5,0.8,1,1.2,1.6c-0.2-0.7-0.9-1.3-1.3-2.1c0.7,0.5,1,1.4,1.6,2.2c0.4,0.6,1,1,1.4,1.5
				c0.2,0.2,0,0.3,0.2,0.6C56.3,17,56.8,17.6,57.3,17.9z M55.3,13.3c-0.2-0.1-0.4-0.3-0.5-0.4c0.1,0.5,0.7,0.6,0.6,1.3
				c0,0.2-0.1,0-0.1,0.1c0.1,0.3,0.4,0.5,0.4,0.9c-0.4-0.5-0.8-1-1.1-1.6c0.2,0.9,1,1.6,1.3,2.5c-0.4-0.5-0.8-1-1.2-1.4
				c0.2,0.4,0.5,0.6,0.8,1c-1.2-0.8-1.7-2.7-2.7-3.6c0-0.1,0-0.2,0-0.3c0.4,0.5,0.7,1,1.1,1.6c-0.2-0.7-1-1.3-1.2-2.1
				c0.5,0.4,0.9,1,1.1,1.7c-0.1-0.7-0.7-1.2-1.1-1.8c0-0.2,0.2,0.2,0.3,0.2c-0.1-0.2-0.2-0.3-0.3-0.5c0.5,0.1,0.8,0.8,1.1,1.2
				c-0.2-0.9-1.4-1.1-1.4-2.2c0.6,0.5,1.1,1.2,1.6,1.9c-0.1-0.4-0.4-0.8-0.7-1.1c-0.3-0.3-0.6-0.7-1-0.9c0-0.1-0.1-0.1-0.1-0.3
				c1,0.8,1.9,1.9,2.5,2.9c0,0,0-0.1,0-0.1C54.9,12.5,55.4,12.6,55.3,13.3z M55.1,11.8c0-0.1,0-0.2,0-0.3
				C55.1,11.6,55.2,12.1,55.1,11.8z M55,11.1c-0.1-0.1,0.1-0.4,0-0.5c0.1,0.1,0.2,0.2,0.2,0.5C55,11.1,55,11.1,55,11.1z M52.2,5.3
				c0-0.1-0.2-0.1-0.2-0.2c0.6,0.1,1.4,0.5,1.9,1c0,0.1,0,0.1,0,0.2c0.4,0.1,0.4,0.6,0.7,0.8c0,0.1-0.1-0.1-0.2,0
				C54.5,7.2,55,7.3,55,7.7c-0.1-0.1-0.1-0.2-0.2-0.3c0.1,0.3,0.2,0.5,0.3,0.9c-0.1,0,0-0.3-0.2-0.3c-0.1,0.6,0.1,1.2,0.2,1.7
				c0,0.3,0,0-0.1-0.2c-0.1-0.3-0.1-0.7-0.2-1c-0.1,0.5,0,1,0.2,1.4c0,0.2,0.2,0.5,0,0.6c-0.1-0.9-0.4-1.6-0.6-2.3
				c-0.1,0,0,0.2,0,0.3c-0.1-0.1-0.1-0.3-0.2-0.5c0,0.4,0.3,0.9,0.5,1.3c0,0.1,0,0-0.1,0c0,0.1,0.1,0.1,0.1,0.3
				C54.1,9,54,8.2,53.4,7.8c0.4,0.6,1.1,1.8,1.2,2.6c-0.2-0.6-0.5-1-0.7-1.6c-0.2-0.1-0.3-0.5-0.5-0.6c0.1,0.3,0.5,0.7,0.5,1.1
				c-0.5-0.6-0.8-1.4-1.4-1.8c0.2,0.3,0.7,0.7,0.9,1.1c-0.2,0-0.5-0.4-0.8-0.5c-0.1,0.1,0.2,0.2,0.2,0.2c-0.1,0.1-0.4-0.1-0.3-0.3
				C52.1,8,51.8,8,51.4,7.9c0.2,0.3,0.8,0.1,1,0.3c-0.2,0.1-0.5-0.1-0.7-0.2c0,0,0,0.1,0,0.1c-0.1,0-0.2-0.1-0.2,0
				c0,0.1,0,0.1,0.1,0.1c-0.4,0.1-0.7,0-1.1,0c0.2,0.2-0.4,0-0.5,0c0,0.2,0.3,0.1,0.3,0.2c-0.2,0.1-0.5,0-0.6,0
				c0.1,0.1,0.3,0.1,0.4,0.1c-0.2,0.3-0.6,0-0.9,0c0.1,0.1,0.4,0.1,0.5,0.2c-0.2,0.1-0.5-0.1-0.7-0.1c0,0.1-0.3,0.1-0.5,0.1
				c0-0.1,0.2-0.2,0.2-0.3c-0.3,0.1-0.8,0.4-1.3,0.2c0.1-0.2,0.3-0.3,0.5-0.5c-0.3-0.1-0.5,0.3-0.7,0.4c0.1-0.4,0.4-0.5,0.5-0.7
				c-0.2,0.1-0.4,0.3-0.6,0.5c-0.1-0.7,0.4-0.9,0.7-1.3c-0.3,0.1-0.4,0.3-0.6,0.5c0-0.3,0.4-0.5,0.6-0.7c-0.2,0.1-0.3,0.1-0.4,0.3
				c0.1-0.4,0.7-0.5,1-0.8c-0.2,0-0.4,0.2-0.6,0.3c0-0.3,0.6-0.4,0.8-0.6c-0.2,0-0.3,0.1-0.4,0.2c0.5-1.1,2.6-1.2,3.7-0.6
				c0.1,0,0-0.1-0.1-0.1c0.1-0.1,0.2,0.1,0.3,0.1c0-0.1-0.3-0.2-0.5-0.3C51.8,5,51.9,5.3,52.2,5.3z M44.7,8.3
				c0.2-0.2-0.1-0.3-0.1-0.5c0-0.2,0.1,0.2,0.3,0.1c0-0.3-0.4-0.4-0.3-0.7c0.1,0.1,0.2,0.4,0.3,0.5c0-0.3-0.2-0.6-0.2-1
				c0.1,0.1,0.1,0.2,0.2,0.2c0-0.2,0-0.5,0.1-0.8c0.1,0,0,0.2,0.2,0.2c0.1-0.2-0.1-0.6,0.2-0.8c0.1,0,0,0.2,0.2,0.2
				c0.1-0.4,0.1-1,0.5-1.1c0,0.1-0.3,0.4-0.1,0.5c0.3-0.1,0.1-0.6,0.5-0.6c0,0.1-0.1,0.4,0,0.5c0.2-0.2,0.2-0.5,0.5-0.6
				c0.1,0,0,0.2,0.1,0.2C47.2,4.3,47.3,4,47.6,4c0.1,0,0.1,0.1,0.2,0.2c1.4-0.4,2.9-0.1,3.7,0.6c-0.3,0.1-0.8,0.1-1.1,0.1
				c0.1-0.1,0.4-0.2,0.5-0.3c-0.3-0.2-0.5,0.2-0.7,0.2c0,0.1,0,0.1,0.1,0.1c-0.1,0.1-0.3,0-0.5,0c0.1-0.1,0.3-0.2,0.4-0.4
				c-0.2,0-0.4,0.3-0.6,0.4c0.1-0.3,0.4-0.4,0.6-0.6c-0.4,0-0.7,0.6-1.1,0.8c0-0.1,0.1-0.1,0.1-0.2c-0.3,0.1-0.3,0.3-0.5,0.5
				c-0.1-0.2,0.2-0.3,0.2-0.5c-0.4,0.2-0.4,0.9-0.8,1.1C48,5.6,48.3,5.3,48.3,5c-0.4,0.3-0.4,0.8-0.6,1.3c-0.1-0.4,0-1,0.2-1.3
				c-0.4,0.3-0.5,0.8-0.4,1.5c-0.1,0-0.1,0.2-0.2,0.2c0-0.5,0-0.9,0.2-1.3c-0.5,0.1-0.1,1.5-0.5,1.8c0-0.4-0.1-0.9,0-1.3
				c-0.4,0.3,0.1,1.4-0.2,1.8c-0.1-0.5-0.2-0.9-0.2-1.4c-0.2,0.5,0,1.3,0.2,1.7c-0.1-0.1-0.1-0.3-0.2-0.5c-0.1,0.4,0.2,0.6,0.2,1
				c-0.2-0.1-0.3-0.4-0.4-0.6c-0.1,0.4,0.4,0.7,0.4,1c-0.3,0-0.5-0.4-0.7-0.5c0,0.2,0.3,0.4,0.4,0.6c-0.4,0.1-0.4-0.2-0.6-0.3
				c0,0.1,0.1,0.3,0.2,0.3c-0.3-0.1-0.6-0.6-0.8-0.9c0,0.4,0.4,0.7,0.6,1c-0.3,0.1-0.4-0.2-0.5-0.3c0,0.3-0.2-0.1-0.3-0.2
				c0.1,0.3,0.4,0.4,0.6,0.5c-0.1,0.1-0.3,0.2-0.5,0.2c0-0.1,0.1-0.1,0.1-0.2C45,8.8,44.8,8.6,44.7,8.3z M46.7,9.2
				c-0.2,0.1-0.5,0.2-0.7,0.3c0,0.1,0.2,0,0.3,0c-0.3,0.2-0.8,0.2-1,0.5c0.4-0.1,1-0.4,1.4-0.4c-0.2,0.1-0.5,0.1-0.6,0.3
				c0.2,0,0.4-0.1,0.6-0.2c0,0.2,0.1,0.3,0.1,0.5c0.2-0.3,0.1-0.7,0.1-1.1c0.2-0.1,0.4,0,0.5,0.1c-0.1,0.1-0.1,0.4,0,0.5
				c0.1-0.1,0.2-0.3,0.2-0.5c0.9-0.1,2.5,0.7,2.5,1.2c0,0.3-1.1,0.7-1.4,0.8c-0.3,0.1-0.5,0-0.7,0.1c0.2-0.2-0.2,0-0.2,0.1
				c-0.1-0.1,0.1-0.1,0.2-0.2c-0.2,0-0.2,0.2-0.4,0.2c0-0.1,0.2,0,0.2-0.2c-0.2,0-0.2,0.2-0.3,0.2c-0.2,0,0.1-0.1,0.1-0.2
				c-0.5,0.5-1.2,0.2-2-0.1c-0.3-0.1-0.8-0.3-0.8-0.6c0,0-0.1-0.1-0.2,0C44.9,9.6,45.7,9.3,46.7,9.2z M44.4,18.4
				c-0.1-0.1-0.1-0.2-0.1-0.3C44.4,18.2,44.4,18.2,44.4,18.4z M44,17.5c-0.3-0.4-0.3-0.9-0.4-1.5c0.3,0.3,0.1,1.1,0.6,1.1
				c0-0.3-0.4-1.1,0-1.3c0,0,0,0,0,0c0,0.3,0.1-0.1,0.2,0c0.1,0.1,0,0.1,0,0.2c0.1,0,0.1-0.1,0.2-0.1c0,0,0,0.1,0,0.1
				c0.1,0,0.2-0.1,0.4-0.1c-0.2-0.2-0.6-0.2-1-0.2c0-0.5-0.1-0.7-0.2-1.2c-0.4,0.2-0.2,0.9-0.3,1.4c-0.1-0.4-0.2-0.9-0.1-1.3
				c0.1-0.4,0.5-0.4,0.4-1.1c-0.1-0.4-0.3-0.7-0.2-1.2c0.1-0.1-0.2-0.2-0.1-0.2c0.2-0.7,0.6-1,0.9-1.6c0.4,0.7,1.3,0.9,2.2,1.1
				c0,0.5-0.1,1.1,0.2,1.4c0.3-0.3,0-1,0.1-1.5c0.2-0.1,0.4,0,0.6,0c0,0.9-0.3,2.1,0,2.9c0.2-0.3,0.1-0.9,0.2-1.4c0-0.5,0-1,0-1.4
				c0.6-0.3,1.4-0.2,1.8-0.7c0.4,0.1,0.6-0.2,0.8-0.4c0.3,0.3,0.5,0.7,0.8,0.9c-0.5,0.5-0.5,1.9,0,2.4c0,0.2-0.1,0.7,0.1,0.8
				c0.3-0.1-0.2-0.7,0.2-0.8c0.3,0.2,0.1,0.8,0.2,1.1c0,0.3,0.2,0.6,0.2,1.1c-0.1,0.6-0.4,1.2-0.6,1.8c-0.3,0.6-0.6,1.1-0.9,1.4
				c0-0.3,0.4-0.8,0.3-1.1c0.1-0.2,0.4-0.3,0.5-0.5c0-0.1-0.2-0.1-0.3,0c-0.5,0.8-0.9,1.5-1.3,2.5c-0.5,0.5-1,0.9-1.5,1.4
				c-0.1-0.1,0-0.3,0-0.5c0.2-0.1,0.4-0.1,0.5-0.3c-0.2-0.1-0.3,0.1-0.5,0.2c0.3-0.4,0.9-0.4,1.1-0.8c0.1,0,0.1,0,0.2,0
				c0.1-0.1,0.3-0.2,0.3-0.3c-0.5-0.1-1,0.4-1.5,0.6c-0.1-0.1-0.1-0.2-0.1-0.3c0.6-0.2,1.1-0.5,1.7-0.7c-0.5,0-0.9,0.3-1.4,0.5
				c0.4-0.4,1-0.5,1.5-0.8c0,0.1,0,0.1,0,0.2c0.2,0,0.3-0.2,0.3-0.5c-0.3,0-0.7,0.2-1.1,0.4c-0.4,0.2-0.7,0.4-1,0.5
				c0-0.2,0-0.3,0-0.4c0.7-0.2,1.2-0.7,1.9-0.9c-0.1-0.1-0.8,0.4-0.7,0.2c0.4-0.2,1-0.2,1.1-0.7c-0.4-0.1-0.8,0.2-1.1,0.4
				c-0.4,0.2-0.7,0.4-1.1,0.5c-0.1-0.8,0-1.6-0.2-2.2c1-0.3,1.9-0.8,2.9-1.1c0.1-0.2,0-0.5-0.1-0.7c-1,0-1.9,0.3-2.9,0.5
				c0-0.2,0-0.4-0.1-0.5c-0.2,0-0.1,0.4-0.2,0.6c-1.2,0.3-2.1-0.4-3.3-0.2c-0.5,0.8,0.2,0.8,1,1c0.6,0.2,1.1,0.3,1.7,0.4
				c0.1,0.4-0.1,1,0.1,1.2c0.2-0.2,0.1-0.7,0.2-1c0.2,0.1,0.4,0,0.5,0c-0.1,1.8,0.2,3.4,0,5c-0.1,0-0.3,0-0.3,0c0-0.2,0.1,0,0.2-0.1
				c-0.1-1.5,0-3.1-0.2-4.6c-0.1,0-0.1-0.1-0.2-0.2c0,1.7,0,3.3,0.1,4.9c-0.2-1.1-0.1-2.5-0.3-3.7c-0.2,0.1-0.1,0.5-0.1,0.7
				c-0.8-0.3-1.4-0.8-2.3-1.1c0,0.2,0.3,0.5,0.4,0.8c0.1,0,0-0.2,0.1-0.1c-0.1-0.1-0.2,0-0.2-0.2c0.3,0.1,0.8,0.3,1,0.6
				c-0.1,0-0.2-0.1-0.3-0.1c0.2,0.2,0.5,0.3,0.9,0.5c0,0.1,0.2,0.3,0.3,0.2c0.1,0.1,0.1,0.3,0.1,0.5c-0.2-0.6-1.4-0.9-1.9-1.2
				c0,0.2,0.1,0.4,0.2,0.6c0.6,0.3,1.4,0.5,1.7,1.1c-0.5-0.3-0.9-0.6-1.5-0.8c0,0.9,1,1,1.5,1.4c0,0.2,0,0.4,0,0.5
				c-0.7-0.4-1.2-0.9-1.8-1.4c-0.1-0.8-0.1-1.3-0.5-1.8C44.6,17.9,44.2,17.8,44,17.5z M49.2,22.4c-0.2,0.1-0.1,0.5-0.3,0.5
				c-0.2-0.3-0.4,0.3-0.7,0.3c-0.2,0,0.1-0.1,0-0.2c-0.5,0.3-1.6,0.3-2,0c-0.2-0.4,0-0.9,0.1-1.3c0.3,0.4,0.9,0.7,1.7,0.6
				c0.4-0.1,0.6-0.5,0.9-0.6c0.1,0.2-0.1,0.5,0,0.8c0.2-0.6,0.4-1.2,0.4-1.9c0.1-0.1,0.3-0.3,0.5-0.4c0,0.5,0.2,0.6,0.3,1
				c0.5-0.2-0.3-0.7-0.2-1.1c0-0.3,0.4-0.3,0.5-0.7c0.2,0.3,0.3,0.8,0.8,0.8c-0.4,1-1,1.9-2,2.4C49.3,22.5,49.3,22.4,49.2,22.4z
				 M47.9,21.8c0,0.1-0.1,0.1-0.1,0.2C47.7,22,47.8,21.8,47.9,21.8z M48.2,21.7c0,0.1-0.2,0.2-0.2,0.3C48,21.9,48.1,21.7,48.2,21.7z
				 M44.6,15c0,0.1,0,0.2,0,0.3c-0.1,0-0.1,0-0.2,0c0-0.1,0-0.2,0-0.3C44.5,15,44.5,15,44.6,15z M45.7,19c0,0-0.3-0.1-0.3-0.2
				C45.7,18.8,45.6,19,45.7,19z M46.3,20.1c-0.1,0-0.3-0.2-0.5-0.3C46,19.8,46.2,20,46.3,20.1z M46.1,22c0,0.1-0.2,0.4-0.3,0.4
				c-0.1-0.4,0.2-0.6,0.4-0.7c-0.1,0.2-0.3,0.4-0.4,0.6C45.9,22.4,46,22.1,46.1,22z M45,20.5c-0.1-0.1,0.1-0.2,0-0.2
				C45,20.2,45.2,20.6,45,20.5z M45,21.2c0,0.1-0.1,0.1-0.1,0.2C44.7,21.4,44.8,21.2,45,21.2z M44.7,20.2c-0.1,0.2-0.4,0.3-0.6,0.5
				c0,0.4,0.4,0.5,0.5,0.8c0.1,0,0.1,0.2,0.1,0c0,0.3,0.2,0.3,0.2,0.5c0,0,0,0,0,0c0,0,0,0,0,0c0,0,0,0,0,0c0.4,0.6,0.8,1.3,1.8,1.5
				c0.5,0.1,1.2,0,1.8-0.1c0.6-0.1,1-0.5,1.3-0.9c0.4-0.2,0.7-0.5,1-0.9c0.4-0.5,0.7-0.7,0.8-1.3c0.1,0,0.1,0,0.2,0
				c-0.6-0.2-0.8-0.7-1-1.3c0.5,0,0.6,0.7,0.9,1c0.2,0,0.2-0.1,0.3,0c0.1,0.4-0.2,0.9-0.5,1.2c-0.3,0.3-0.6,0.7-1,1.1
				c-0.4,0.4-0.8,0.8-1.2,1.1c-1.1,0.7-2.8,0.3-3.7-0.3c-0.3-0.2-0.7-0.5-0.8-0.9c0-0.1,0-0.2,0-0.2c-0.1-0.3-0.4-0.4-0.5-0.8
				c-0.1,0-0.2-0.1-0.3-0.2C43.8,20.6,44.3,20.4,44.7,20.2z M39.2,27.6c-0.1-1.1,0.1-1.9,0.5-2.7c0.5-0.9,0.8-1.7,1.6-2.1
				c0,0.1-0.2,0.2-0.3,0.3c-0.6,0.6-1.1,1.5-1.3,2.4c-0.4,0.2-0.2,1-0.5,1.3C39.3,27.1,39.2,27.3,39.2,27.6z M40.2,28.7
				c-0.2-0.1,0.1-0.2,0-0.3c-0.1,0.1-0.1,0.2-0.2,0.2c0,0-0.1,0-0.2,0c-0.1-0.1-0.1-0.3-0.2-0.3c0.1-0.3-0.1-0.5-0.2-0.7
				c0-0.3,0.1-0.5,0.1-0.8c0.1-0.5,0-0.9,0.2-1.3c0.2-0.4,0.5-1.1,0.8-1.5c0.4-0.6,0.8-0.9,1.1-1.3c0-0.1-0.2-0.1-0.2,0
				c0-0.1,0.2-0.2,0.3-0.2c-0.1,0.1,0,0.3,0.2,0.2c-0.2,0.5-0.6,1-0.8,1.5c0,0.1,0,0.2,0,0.3c-0.4,0.7-0.6,1.7-0.7,2.7
				C40.4,27.7,40.5,28.3,40.2,28.7z M40.7,33.9c-0.1,0.1,0-0.3-0.2-0.3c-0.2,0.6,0.2,1.3,0,2.1c-0.5-1.1-0.3-3-0.1-4.3
				c0.1,0.1,0,0.3,0.2,0.3c0.2-0.2,0-0.7,0.2-1c0.1,0,0.1,0.1,0.2,0.1C40.9,31.9,40.7,32.9,40.7,33.9z M32.2,39.8
				c-0.1-0.1-0.2,0-0.3,0C31.9,39.7,32.2,39.8,32.2,39.8z M29.7,36.2c0.2,0,0.2,0.1,0.3,0.1c0.1,0,0.1-0.1,0-0.1
				c0.1,0,0.5,0.3,0.9,0.1c-0.2,0.3-0.8,0.1-1,0.3c0,0.1-0.1,0.2,0,0.3c0.1,0,0.1-0.1,0.1-0.2c0.2,0,0.5-0.1,0.8-0.1
				c0.1,0.2-0.1,0.4,0,0.6c-0.1,0.1,0-0.2-0.1-0.2c-0.1,0-0.1,0.2-0.1,0.2c-0.1,0.1-0.4,0-0.4,0.1c0,0.2,0.2,0.1,0.3,0.2
				c-0.1,0.1-0.1,0.5,0,0.6c0.2,0,0-0.6,0.2-0.6c0.1,0.1,0,0.4,0,0.6c-0.2,0.1-0.5,0-0.6,0.2c0,0.2,0.3,0.1,0.4,0.1
				c-0.1,0.2-0.1,0.4-0.1,0.7c-0.2,0-0.3,0-0.4,0.1c0.1,0.2,0.5,0.1,0.6,0.1c0,0.1,0.1,0.1,0,0.3c-0.3,0.1-0.8,0.1-0.8,0.4
				c-0.2,0-0.2-0.1-0.4,0C29.8,38.8,29.7,37.3,29.7,36.2z M30.7,38.3c0.1,0.1,0.1,0.6,0.1,0.7C30.7,38.8,30.8,38.4,30.7,38.3z
				 M30.2,40.2c0.3,0.1,0.6,0.3,0.6,0.6c0,0.5-0.7,0.7-1.1,0.4C29.9,40.9,30,40.6,30.2,40.2z M30.2,40c0.2-0.3,0.7-0.3,1.2-0.3
				c0.1,0.2,0.1,0.7,0,1c-0.1,0.1-0.3,0.1-0.5,0.2C30.8,40.4,30.7,40.1,30.2,40z M31.1,36.5c0-0.1,0-0.2-0.2-0.2
				c0-0.1,0.1,0,0.1-0.1c0.1,0,0.1,0,0.1,0c0.1,1,0.1,2.3,0,3.2C31.1,38.7,31.1,37.4,31.1,36.5z M31.5,34.3
				c-0.1-0.2-0.3-0.4-0.4-0.6C31.3,33.8,31.4,34,31.5,34.3z M31.3,34.4c-0.1,0.4,0.1,1-0.3,1.1c0.1-0.3,0.4-0.7,0.2-1.1
				c-0.2-0.1-0.4-0.3-0.6-0.5C30.7,33.8,31.2,34.1,31.3,34.4z M30.4,33.8c-0.6,0-1.1,0.8-0.6,1.1c0.1-0.5,0.2-1,0.8-0.8
				c-0.2,0-0.2,0.3,0,0.3c0.1,0,0-0.1,0-0.2c0.1,0,0.1,0.2,0.1,0.3c-0.2-0.1-0.3,0.1-0.3,0.3c-0.1,0-0.2,0-0.3,0.1
				c-0.1,0,0.1-0.3-0.1-0.3c-0.3,0.2,0,0.5,0.2,0.6c-0.2,0-0.3-0.1-0.4-0.2c-0.3,0.3,0.3,0.7,0.8,0.6c-0.5,0.2-1.1-0.1-1.1-0.6
				c-0.3,0,0,0.5-0.1,0.6C28.9,34.8,29.5,33.5,30.4,33.8z M29.9,40c0,0.1,0,0.2-0.1,0.2c-0.1,0-0.2-0.1-0.3,0c0,0.2,0.1,0.2,0.2,0.2
				c0,0.3-0.2,0.4-0.3,0.6c0-0.1-0.2-0.1-0.2,0c0,0.1,0.2,0.1,0.2,0.3C28.8,41.1,29.2,39.6,29.9,40z M29.3,42.6
				c-0.1-0.3-0.2-0.8,0-1.1c0.3,0,0.5,0.1,0.8,0.2c0.5,0.1,1.2-0.6,1.3,0.3c-0.1,0,0-0.2-0.1-0.2c-0.1,0.1-0.1,0.3-0.2,0.3
				c-0.1-0.1-0.2-0.3-0.1-0.5c-0.4,0-0.1,0.7-0.3,0.8c0.1,0.1,0.2,0,0.2,0.2C30.2,42.9,29.6,42.7,29.3,42.6z M31.5,43.1
				c0.1,0.1,0,0.3,0,0.3C31.4,43.4,31.6,43.2,31.5,43.1z M31.5,44.2c0.1,0.1,0,0.2-0.2,0.2C31.4,44.3,31.5,44.4,31.5,44.2z
				 M31.3,44.2c-0.1,0-0.1-0.2-0.3-0.2c0.1-0.1,0.2-0.2,0.3-0.3C31.4,43.8,31.3,44.1,31.3,44.2z M30.3,44.5
				c-0.1-0.1-0.1-0.2-0.2-0.2c-0.1,0.1,0,0.3,0,0.4c-0.2,0-0.2-0.3-0.3-0.4c0.3-0.1,0.8,0,1-0.1c0.1,0,0,0.2,0.2,0.2
				c0,0.1-0.2,0-0.2,0.2c0,0.1,0.2,0,0.2-0.1c0.1,0.2-0.2,0.3-0.4,0.3c0,0,0.1-0.1,0.1-0.1C30.8,44.4,30.5,44.5,30.3,44.5z M31,43.4
				c0-0.2-0.1-0.5-0.1-0.6c0.1,0.1,0.2,0,0.4,0C31.4,43,31.2,43.3,31,43.4z M30.9,42.6c0-0.2,0.3-0.1,0.3-0.3
				C31.2,42.4,31,42.6,30.9,42.6z M29.5,44c-0.2-0.2-0.2-0.7-0.2-1c0.2,0,0.3,0.1,0.5,0.1c0,0,0,0.1,0,0.2c0.1-0.2,0.7,0,0.8-0.2
				c0,0.3,0,0.9,0.3,1C30.5,44.1,30,44,29.5,44z M33.3,45.3c-0.1,0-0.2,0-0.2,0C33.1,45.2,33.4,45.2,33.3,45.3z M31.9,45.2
				c-0.1,0.1-0.4,0-0.5,0.2c0.4,0.2,1.4,0.2,1.8,0c0.3,0.2,0.6,0.1,1,0c0.1-0.1-0.1-0.2,0-0.3c0.3,0.1,0.4,0.7,0.3,1
				c-0.1-0.1-0.2-0.2-0.3-0.3c-2.4,0-4.6,0.1-7,0c-0.2,0-0.2,0.1-0.3,0.2c0-0.2,0.1-0.3,0.2-0.5c0.1,0.1,0.3,0,0.4-0.1
				c0-0.2-0.1-0.1-0.3-0.1c0.4-0.3,1.5,0,2.3-0.1c-0.1,0.1-0.3,0.1-0.3,0.2c0.1,0.2,0.5,0.1,0.6,0c0.1-0.1,0.1-0.1,0.1-0.2
				C30.3,45.1,31.2,45.2,31.9,45.2z M32.3,44.3c0.1-0.2,0.5,0.1,0.5-0.2c0.2,0.1,0.4-0.1,0.5-0.3C33.3,44.2,32.8,44.5,32.3,44.3z
				 M33.3,43.7c-0.1,0.3-0.7,0.4-1,0.2c-0.1-0.2,0-0.6-0.2-0.6c-0.2,0.2-0.2,0.9-0.1,1c-0.3-0.3,0-1-0.1-1.5c0.4,0.2,1.1,0.2,1.5,0
				C33.3,43.2,33.2,43.4,33.3,43.7z M33.5,43.4c0-0.2-0.1-0.7,0-0.8C33.6,42.7,33.6,43.1,33.5,43.4z M33.6,41.1
				c-0.2-0.2-0.2-0.5-0.5-0.6c-0.1,0.2,0.2,0.3,0.2,0.5c0.3,1-0.5,1.4-1.2,1c0,0.2,0.1,0.2,0.3,0.3c-0.1,0.1-0.2-0.1-0.2,0
				c0.1,0.2,0.4,0.2,0.6,0.2c-1.1,0.4-1.4-0.7-1.6-1.6c0.2-0.1,0.3-0.2,0.5-0.3c0-0.2,0-0.2,0-0.3c0.3,0.1,0.5-0.3,0.7-0.6
				c0.9,0.2,1.8,1.2,1.2,2.2C33.5,41.9,33.7,41.5,33.6,41.1z M34.7,44.2c0.1-0.3,0.8-0.1,1-0.1C35.4,44.2,35,44.2,34.7,44.2z
				 M35.8,43.5c0,0.1,0.1,0.1,0,0.2c-0.4,0.1-0.9,0-0.9-0.3c0.4,0.2,0.8,0.1,1.2,0C36.1,43.6,35.9,43.5,35.8,43.5z M35.7,43
				c-0.2,0-0.5-0.1-0.7-0.2c0-0.3,0-0.7-0.2-0.8c-0.2,0.3-0.1,0.8-0.2,1.3c-0.1,0.5-0.4,1-0.9,0.8c0-0.1,0.1,0,0.2-0.1
				c0.5-0.7,1-3,0-3.5c0.3-0.2,0.6,0,1,0c1.7-0.1,3.3-1.1,4.8-1.5c-0.1,0.8,0,1.4-0.3,2c0,0-0.1-0.1-0.1-0.1
				c-0.1,0.1-0.2,0.5-0.2,0.7c0,0,0.1,0,0.1-0.1c0-0.1,0,0,0,0c-0.3,1-0.7,2.2-2.3,1.8c0.1-0.5,0.5-1,0.4-1.5
				c-0.2,0.5-0.6,0.9-0.7,1.5c0.2-0.8,0.6-2.1,0.3-3.2c-0.1,0-0.1,0-0.2,0c-0.1,0.8-0.1,1.9-0.4,2.6C36.1,42.5,36,43,35.7,43z
				 M34,42.6c-0.1-0.2-0.1-0.4,0-0.5C34.1,42.1,33.9,42.4,34,42.6z M36.5,44c-0.1-0.1,0.1-0.2,0.1-0.3c0,0,0.1,0,0.1,0
				C36.6,43.8,36.5,43.8,36.5,44z M36.9,44.3c0.2,0,0.6,0,0.7,0.2C37.4,44.4,37,44.5,36.9,44.3z M38,44c-0.1,0.4-0.6,0.1-1,0.2
				c0.2-0.3,0.5-0.2,0.8-0.3c-0.2-0.1-0.5,0-0.6-0.1c0.1,0,0.7,0,1,0c0,0-0.3,0.1-0.4,0.2C37.7,44.1,37.9,43.9,38,44z M38.1,44.5
				c0.2-0.3,0.3-0.7,0.6-0.9C38.6,43.9,38.4,44.3,38.1,44.5z M38.8,44.6c0-0.1,0.2-0.1,0.3-0.1C39.1,44.6,38.9,44.7,38.8,44.6z
				 M39.1,44.1c0-0.1,0-0.2,0-0.2c0.1,0,0.5,0,0.5,0.1C39.3,44,39.3,44.2,39.1,44.1z M39.1,43.7c0.1-0.1,0.4,0,0.5-0.1
				C39.7,43.8,39.2,43.8,39.1,43.7z M39.7,44.7c0.1-0.3,0.4-0.7,0.7-1.1C40.5,43.9,40,44.4,39.7,44.7C39.7,44.7,39.6,44.9,39.7,44.7
				z M39.9,45.1c0.1-0.2,0.5-0.1,0.6,0.1C40.3,45.1,40.1,45.1,39.9,45.1z M40.4,44.4c0.1,0.1,0.4,0,0.5,0.2
				C40.8,44.6,40.4,44.6,40.4,44.4z M41.1,43.8c0,0.1,0.1,0,0.1,0.2c-0.2,0-0.4,0.1-0.7,0c0-0.5,0.4-0.3,0.8-0.4
				C41.4,43.8,41.2,43.8,41.1,43.8z M41.6,43.2c-0.3,0.1-0.8,0.2-1.2,0.1c0.3-0.7,0.6-1.4,0.7-2.3c-0.2-0.1-0.2,0.2-0.2,0
				c0.1-0.1,0.1-0.4,0.2-0.5c0.1,0-0.1,0.2,0.1,0.2c0.1,0,0.2-0.4,0-0.3c0-0.1,0.5-0.6,0-0.8c0,0.5-0.4,1.1-0.5,1.6
				c0,0.2,0,0.6-0.2,0.9c-0.1,0.1-0.2,0.2-0.3,0.3c-0.2,0.4-0.3,0.8-0.6,1c-0.3,0.1-0.5-0.1-0.8,0c0.6-1.2,1.2-2.7,1.1-4.5
				c0.5-0.2,0.9-0.4,1.5-0.5c0.1,0.9,0.5,1.9,0.6,2.9C42.2,42,41.7,42.5,41.6,43.2z M42.5,40.6c0-0.1-0.1-0.1-0.2-0.1
				c-0.2-0.8-0.5-1.8-0.4-2.7c-0.4-0.7-0.9-1.5-1-2.6c-0.1-1.4,0.4-3,0.3-4.4c-0.7-0.5-0.4-1.7-0.5-2.5c-0.1-0.7,0.3-1.2,0.3-1.8
				C41,26.8,41,27,40.9,27.1c0-0.6,0.4-1.1,0.4-1.6c-0.1,0-0.1,0.3-0.2,0.2c0.4-1,0.9-2,1.4-2.8c0,0,0,0-0.1,0
				c0.1-0.2,0.2-0.7,0.4-0.6c0.2-0.3,0.2-0.8,0.6-1c-0.1,0.4-0.4,0.7-0.3,1.1c0.2-0.3,0.3-0.8,0.5-1.1c0.2,0.1,0,0.3,0,0.5
				c0.2,0,0.1,0.2,0,0.4c0.2,0,0.2-0.3,0.3-0.3c0,0.1-0.2,0.2-0.1,0.3c0.1,0,0.1-0.3,0.2-0.2c-0.1,0.1-0.2,0.2-0.2,0.4
				c0.2,0,0.1-0.2,0.3-0.3c-0.1,0.2-0.3,0.3-0.3,0.5c0.2,0,0.2-0.3,0.3-0.4c0,0.2-0.1,0.2-0.2,0.3c0.1,0.1,0.2-0.1,0.2,0
				c0,0.2-0.2,0.5-0.2,0.7c0.1-0.1,0.1-0.3,0.3-0.4c-0.1,0.1-0.2,0.2-0.2,0.4c0.1,0,0.1-0.3,0.2-0.2C44.1,23.7,44,24,44,24.2
				c0,0,0,0,0.1,0c-0.2,0.7-0.6,1.8-0.2,2.6c-0.1-1.1,0.1-2.2,0.4-2.9c-0.1,0.4-0.1,0.8-0.1,1.3c0,0.1,0,0.2,0,0.3
				c0.1,0,0-0.2,0-0.3c0.2-0.6,0.2-1.5,0.5-2.1c0.2,0.2,0.3,0.3,0.3,0.6c0.1,0,0-0.2,0.2-0.2c0,0.1-0.2,0.2-0.1,0.3
				c0,0,0.1-0.2,0.2-0.1c0,0.1-0.1,0.2-0.2,0.3c0.2,0,0.1-0.2,0.3-0.2c0,0.1-0.2,0.2-0.1,0.3c0-0.1,0.1-0.3,0.2-0.2
				c0,0.1-0.2,0.2-0.1,0.3c0.1-0.1,0.1-0.2,0.2-0.2c0,0.1-0.2,0.2-0.1,0.3c0.1-0.1,0.1-0.2,0.2-0.3c0.1,0.1-0.2,0.2,0,0.3
				c0.1-0.1,0.1-0.2,0.2-0.2c0.1,0.1,0,0.2,0,0.3c0.2,0,0.1-0.2,0.2-0.2c0,0.1-0.1,0.2,0,0.2c0-0.1,0.1-0.1,0.2-0.1
				c0,0.1-0.2,0.3-0.1,0.4c0.1-0.1,0.1-0.3,0.3-0.3c-0.1,0.2-0.4,0.4-0.3,0.6c0.2-0.2,0.2-0.2,0.3-0.5c0.1,0.4-0.1,0.5-0.2,0.8
				c0.3-0.2,0.3-0.4,0.4-0.8c0.2,0.1,0.6,0,0.7,0.2c0,0.2-0.1,0.4,0,0.5c0.1-0.2,0.3-0.5,0.4-0.5c-0.1,0.2-0.4,0.4-0.3,0.6
				c0.2-0.2,0.3-0.6,0.5-0.6c-0.1,0.1-0.1,0.2-0.2,0.3c0.3-0.2,0.1,0.1,0.3-0.2c0,0.1-0.2,0.3-0.1,0.4c0.1-0.2,0.3-0.3,0.3-0.6
				c-0.1,0-0.1,0.1-0.1,0c0,0,0.2-0.1,0.2,0c-0.1,0.3-0.3,0.5-0.4,0.8c0.2-0.1,0.2-0.3,0.3-0.4c0,0.2-0.2,0.5-0.1,0.5
				c0.1,0,0-0.2,0.1-0.2c-0.1,0.6,0,1.5,0.2,2.1c-0.1-0.8-0.1-2.1,0.1-2.9c0.3,0,0.5-0.2,0.7-0.2c-0.4,0.5-0.3,1.5-0.3,2.3
				c0.1-0.4,0-1,0.2-1.2c0,0,0,0,0,0c-0.1-0.3,0.2-0.3,0.2-0.5c0,0-0.1,0.2-0.1,0.1c0-0.3,0.4-0.6,0.3-0.6c-0.1,0.1-0.2,0.3-0.3,0.3
				c0.1-0.3,0.4-0.5,0.6-0.6c-0.1,0.1-0.2,0.2-0.3,0.3c0.2-0.1,0.4-0.4,0.5-0.4c0,0.2-0.2,0.3-0.2,0.5c0.1-0.2,0.3-0.3,0.4-0.4
				c-0.1,0.1-0.2,0.3-0.3,0.5C50,24.3,50,24,50.1,24c-0.2,0.6-0.3,1.4-0.3,2.2c0.1-0.1,0.2-1,0.3-1.3c0.1-0.2,0.2-0.2,0-0.2
				c0-0.1,0-0.1,0.1-0.2c0.1-0.5,0.3-1.6,0.5-2c0.1-0.2,0.4-0.4,0.6-0.5c0.1-0.2,0.3-0.5,0.5-0.7c0.1-0.2,0.4-0.9,0.5-0.7
				c0.3-0.4,0.5-0.7,0.8-1c1,0.4,2.3,0.5,3.1,1.2c0,0.1-0.2,0.1-0.2,0.2c0.2,0,0.1-0.2,0.2-0.2c0,0.3-0.7,0.3-0.9,0.6
				c0-0.1,0.1-0.2,0-0.2c-0.1,0.1-0.2,0.4-0.3,0.4c0-0.1,0.1-0.1,0-0.2c-0.1,0.3-0.4,0.5-0.6,0.8c0-0.1,0.1-0.1,0.1-0.2
				c-0.2,0.1-0.2,0.4-0.3,0.5c0-0.1,0.1-0.1,0.1-0.3c-0.2,0.2-0.4,0.5-0.4,0.8c-0.7,0.8-1.2,2.4-0.7,3.8C53.2,27,53,27,52.9,26.8
				c0-0.1,0.2-0.3,0.1-0.3c-0.1,0.1-0.1,0.2-0.2,0.2c-0.1-0.1,0.1-0.2,0-0.3c0,0.1,0,0.1-0.1,0.1c-0.1-0.1,0.1-0.3,0-0.4
				c0,0.1-0.1,0.1-0.1,0.2c-0.1-0.3,0.1-0.3,0.2-0.6c-0.2,0-0.2,0.3-0.3,0.2c0-0.3,0.3-0.5,0.3-0.7c-0.1,0.2-0.2,0.3-0.3,0.5
				c-0.1-0.4,0.3-0.6,0.2-0.8c-0.1,0.1-0.1,0.2-0.2,0.3c0-0.1,0-0.2,0-0.2c-0.3,1.3,0.2,2.4,0.5,3.5c0.1-0.6-0.1-0.9,0-1.3
				c0.2,0.5,0.4,1.1,0.2,1.5c0.1-0.1,0.1-0.3,0.2-0.3c0,0.2-0.3,0.3-0.2,0.5c0.1-0.1,0.1-0.4,0.4-0.5c-0.1,0.2,0.1,0.2,0,0.5
				c0.3,0.2,0.5,0.7,0.5,1.1c0-0.2-0.1-0.2-0.2-0.3c0.1,0.3,0,0.4-0.1,0.6c0-0.1,0.1-0.3,0-0.4c0,0.1,0,0.2-0.1,0.2
				c-0.2-0.3-0.4-0.8-0.6-1.1c0.2,0.6,0.3,1.1,0.5,1.6c0.1,0.1,0-0.2,0.2-0.1c0,0.1,0,0.2,0,0.2c0.4,0.3,0.9,0.9,1.4,1.3
				c0.3,0,0.4,0.2,0.6,0.4c-0.3,0.1-0.6,0.3-0.9,0.4c0-0.1-0.1-0.2-0.1-0.4c-0.1,0.1,0,0.3-0.1,0.4c-0.2-0.1-0.1-0.4-0.3-0.5
				c0,0.1,0.1,0.2,0,0.2c-0.1-0.2-0.3-0.4-0.3-0.6c0,0.1,0,0.1,0,0.2c-0.1,0-0.1-0.3-0.2-0.3c0,0,0,0.1,0,0.1c0-0.3-0.1-0.4-0.2-0.5
				c-0.1,0,0,0.2-0.1,0.2c0-0.1,0-0.2,0-0.3c-0.1,0-0.1,0.1-0.1,0.1c-0.1-0.1-0.1-0.4-0.2-0.3c0-0.2,0-0.3-0.1-0.4
				c-0.2,0.2,0-0.2-0.2-0.2c0,0,0,0.1-0.1,0.1c-0.2-0.4-0.3-0.9-0.5-1.3c-0.1,0.9,0.5,1.3,0.5,2c-0.1,0-0.1-0.1-0.2-0.1
				c0.1,0.2,0.2,0.4,0.3,0.5c0-0.1-0.1-0.3,0.1-0.3c0,0.3-0.2,0.6,0.1,0.8c0.1-0.1,0-0.4,0.1-0.4c0,0.1-0.1,0.4,0,0.6
				c0.1,0.1,0.2-0.1,0.2,0c0,0.2,0,0.5,0,0.7c-1.2,0.2-2.6,0.3-4.2,0.3c-1.7,0-3-0.1-3-0.1l-0.3,0l0,0.3c0,0.3-0.9,5.9,0,11.7
				c-0.1,0-0.1,0.1-0.1,0.2c0.1,0,0.1,0,0.2-0.1c0,0,0,0.1,0,0.1c-0.1,0.2-0.1,0.4-0.3,0.4c0-0.1,0.1-0.2,0-0.3
				c-0.2,0.1-0.1,0.4-0.4,0.4c0-0.2,0.1-0.2,0.1-0.4C45.2,45.7,45.2,46,45,46c0-0.1,0.1-0.1,0.2-0.2c-0.1,0-0.1-0.1-0.1-0.2
				c-0.1,0-0.1,0.2-0.2,0c0-0.1,0-0.1,0-0.2c-0.1,0-0.1,0.1-0.2,0c0-0.1,0-0.1,0-0.2c-0.2,0.1-0.3-0.2-0.5,0
				c-0.1-0.1,0.1-0.2-0.1-0.2c0,0,0,0.1-0.1,0.1c-0.2-0.1,0-0.2,0-0.3c0,0.1-0.2,0.1-0.2,0c0.1-0.1,0.2-0.2,0.2-0.4
				c-0.2,0-0.1,0.2-0.3,0.3c-0.1-0.2,0.1-0.3,0.2-0.5c-0.2,0-0.1,0.3-0.3,0.3c-0.1-0.1,0.2-0.2,0-0.2c-0.2,0.1-0.3-0.5-0.4-0.8
				c-0.1,0-0.1,0.1-0.2,0c-0.2,0.5,0.3,0.8,0.4,1.2c0.1,0,0,0.1,0.1,0.1c0,0.2-0.2,0.3-0.3,0.2c0-0.2,0.2-0.2,0.2-0.3
				c-0.2,0-0.1,0.2-0.3,0.3c-0.2-0.1-0.2-0.2-0.3-0.4c0-0.1,0.2-0.2,0.1-0.3c-0.1,0.1-0.1,0.2-0.2,0.2
				C41.8,43.7,42.7,41.9,42.5,40.6z M54,30.4c-0.2,0,0-0.2,0-0.3C54,30.1,54.1,30.3,54,30.4z M54.2,33c0,0-0.1,0-0.1,0
				c0-0.1,0-0.2,0-0.2C54.1,32.9,54.2,32.9,54.2,33z M54.1,32.9C54.1,33,54.1,33,54.1,32.9C54,33,54,33,54,33.1
				C54,33,54,32.9,54.1,32.9z M53.9,33.1C53.9,33.1,53.8,33.1,53.9,33.1C53.8,33.1,53.8,33.1,53.9,33.1c-0.1-0.1-0.1-0.3,0-0.4
				C53.9,32.8,53.9,32.9,53.9,33.1z M53.7,32.7c0,0.1,0,0.2,0,0.4c0,0-0.1,0-0.1,0C53.5,32.9,53.6,32.8,53.7,32.7z M46,45.9
				C46,45.9,45.9,45.9,46,45.9c-0.1,0,0-0.1,0-0.1C46,45.8,46,45.8,46,45.9z M44.9,45.9c0,0.1-0.1,0.1-0.1,0.2c-0.1,0-0.1-0.1,0-0.2
				C44.8,45.8,44.8,45.9,44.9,45.9z M43.8,45.6c-0.1-0.1-0.3-0.1-0.4-0.2c0-0.1,0.1-0.1,0.1-0.2C43.5,45.5,43.9,45.4,43.8,45.6z
				 M40.9,58.8c-0.2-2.2-0.2-4.8,0-7.2c0.1-1.6,0.6-3.2,0.8-4.6c0,0,0-0.1,0-0.1c0,0,0.1,0,0.1,0c0.3,0.2,0.6,0.8,0.8,1.1
				c-0.1,0.1-0.3-0.3-0.6-0.3c0,0.2,0.2,0.2,0.2,0.3c0,0.8-0.3,1.7-0.5,2.7c-0.2,1-0.3,2-0.3,3.3c-0.2-2.2,0.5-4,0.6-5.8
				c-0.3,0.1-0.3,0.6-0.3,1c-0.3,1.7-0.7,3.8-0.5,6.1c0.1,1.7,0.1,3.7,0.3,5.3c0.1,0.4,0.2,0.7,0.2,1.2c0,0.7,0.3,1.4,0.4,2
				c0.1,0.6-0.1,1.4,0,1.9c-0.3-0.4-0.4-0.9-0.5-1.3C41.4,62.7,41.1,60.7,40.9,58.8z M42.7,70.9C42.7,70.9,42.6,70.9,42.7,70.9
				c-0.3-0.3-0.3-1.1-0.5-1.5c-0.1,0.2,0,0.4,0,0.6c-0.1-0.5-0.4-1.6-0.3-2.4c0-0.2,0,0.6,0.1,0.8c0.2-0.3,0-0.9,0.2-1.3
				c0.3,0,0.2,0.3,0.2,0.5C42.5,68.5,42.7,69.7,42.7,70.9C42.6,70.8,42.6,70.8,42.7,70.9C42.7,70.8,42.7,70.9,42.7,70.9z M42.7,71.7
				c-0.3-0.4-0.4-0.9-0.5-1.4C42.3,70.8,42.7,71.1,42.7,71.7z M42,56.8c-0.1,0-0.1,0.2-0.1,0.3c-0.4-2.5,0-5.4,0.6-7.4
				c0.1,3.4,0,6.7-0.2,10C42.2,58.8,42.2,57.7,42,56.8z M42.1,59.1c-0.1-0.4-0.2-1.3-0.2-1.9C42,57.8,42,58.5,42.1,59.1z M41.7,59.2
				c0.1,0.1,0.1,0.2,0.1,0.3C41.7,59.4,41.7,59.3,41.7,59.2z M41.5,54.4c0.1,1.1,0.2,2.3,0.2,3.5C41.5,56.9,41.5,55.6,41.5,54.4z
				 M41.9,60.4C41.9,60.5,41.9,60.9,41.9,60.4c-0.1-0.1-0.1-0.4-0.2-0.8C41.8,59.8,41.9,60.3,41.9,60.4z M42.1,50.4
				c0.1,0.2-0.1,0.4-0.1,0.6C42,50.9,42.1,50.7,42.1,50.4z M41.4,66.1c0.1,0.1,0.2,0.2,0.3,0.3c0.2,0.1,0.6,0,0.6,0.4
				c-0.2,0-0.3-0.1-0.5-0.1C41.7,66.8,42,67,41.7,67c0,0.1,0.1,0.2,0,0.3c-0.2,0,0-0.3-0.2-0.3c-0.3,0.4-0.2,1.2-0.2,1.8
				c0.1,1.3,0.7,2.6,1,3.6c0.1,0.1,0.4,0.1,0.4,0.2c-0.2,0.2-0.4-0.1-0.7-0.1C41.5,71,40.4,68.1,41.4,66.1z M42.5,74
				c0.1-0.1,0.2,0.1,0.4,0c0.3,0.9-0.3,1.6-0.4,2.4c-0.1-0.8,0-1.7,0.2-2.3C42.7,74.1,42.6,74,42.5,74z M42.9,73.7
				c-0.1-0.2-0.5-0.6-0.6-0.3c-0.1,0-0.1-0.1-0.1-0.2c0.2,0.1,0.5,0.1,0.7,0.2C42.8,73.5,42.9,73.5,42.9,73.7z M42,76.9
				c-0.1-1,0.1-2,0.2-3.1c0.1,0,0.1,0,0.2,0.1c0,0.1,0,0.2,0,0.3C42.2,75,42.1,76,42,76.9z M33,90.7c0.5-0.4,1.2-0.8,1.9-1.1
				c0.4-0.1,0.9-0.3,1.4-0.2c0.3,0.3,0.5,0.7,0.7,1.1c-0.4-0.1-0.3-0.6-0.6-0.8c-0.1,0.1,0,0.2,0,0.3c-0.5,0.1-0.9,0.2-1.4,0.3
				c-0.5,0.1-1,0.1-1.3,0.3c0.2,0.3,0.6,0.2,1,0.2c0.5,0,1,0.2,1.6,0.1c0.3,0,0.8-0.3,1,0C36,91.3,34.2,91,33,90.7z M38.3,90.7
				c-0.4-0.3-0.5-1-1-1.2c0,0.3,0.4,0.6,0.3,1.1c-0.3-0.5-0.6-1-1-1.5c0.1,0,0.2,0,0.3,0c0.6-0.3,1.4-0.4,2.1-0.7
				c0.1,0.3,0.5,0.8,0.4,1.3c-0.4,0.2-1,0.2-1.6,0.3c0.1,0.2,0.3,0.4,0.4,0.6c0.5-0.1,1-0.2,1.5-0.3C39.5,90.5,38.7,90.5,38.3,90.7z
				 M40.3,90.3c-0.1-0.6-0.3-1.3-0.6-1.8c-0.1-0.1-0.2-0.3-0.1-0.4c0.2-0.1,0,0.1,0.2,0.1c0.1,0,0.1-0.2,0-0.2
				c0.5-0.2,1.6-0.8,2.1-0.2c-0.1,0-0.2,0-0.3,0c0,0.2,0.2,0.1,0.4,0.2c0.2,0.4,0.6,0.8,0.3,1.4c-0.3,0.1-0.9,0.1-1.3,0.1
				c-0.3-0.3-0.4-1.2,0-1.6c-0.3-0.1-0.6,0.1-0.7,0.4c-0.1,0-0.1-0.1-0.3-0.1c0.1,0.7,0.4,1.3,0.6,2c0.8,0,1.6-0.1,2.4,0
				c0.2-0.4-0.2-1-0.2-1.5c0.2,0.5,0.4,1,0.4,1.6C42.3,90.4,41.2,90.3,40.3,90.3z M40.4,88.6c-0.1-0.1,0-0.2,0-0.3
				C40.5,88.4,40.4,88.5,40.4,88.6z M46.8,90.5c-0.6,0-1-0.3-1.7-0.2c0.2-1,0.7-1.6,1.3-2.1C46.9,88.6,46.8,89.7,46.8,90.5z
				 M46.8,87.3c-0.9,0.7-1.7,1.3-2.2,2.6c-0.1,0.2,0,0.4-0.2,0.6c-0.3,0-0.5,0.1-0.8,0.1c-0.2-1.3-0.5-2.4-1.4-3.1
				c-0.4-0.3-0.9-0.4-1.3-0.7c0.6-0.3,1.3-0.5,1.4-1.3c0.1-0.5,0-1.1,0-1.7c0-1.9-0.2-3.9,0-5.7c0,0,0-0.1,0-0.1
				c0.1,0,0.2,0.1,0.3,0.1c-0.2,2.5,0.2,5.1,0.2,7.6c-0.2,0.6-1,0.5-1.1,1.1c0.4,0.2,0.9,0.3,1.1,0.6c-0.3-0.6,0.3-1.1,0.4-1.7
				c0.1-0.6-0.1-1.3-0.1-2c0-0.1-0.1-0.3,0.1-0.3c0-0.1-0.2,0-0.1-0.2c0-0.8,0-1.8,0-2.3c0.1,0.6,0,1.5,0,2c0.2-1.2,0.1-2.8,0-4
				c-0.1,0.5,0,1.5-0.1,1.9c0-0.1,0-0.3,0-0.4c0-0.6-0.3-1.6,0.1-2c0,0.1,0,0.2,0,0.3c0.3,0.1,0.3,0.3,0.5,0.5
				c0.2,0.2,0.7,0.3,0.9,0.5c0.2,0.3,0.1,0.6,0.2,1c0.2,0.7,1.5,1,2.3,0.8C46.4,82.8,46.3,85.6,46.8,87.3z M42.5,86.7
				c-0.1,0-0.2,0-0.2,0c0-0.1,0.1-0.1,0.2-0.2C42.5,86.6,42.4,86.7,42.5,86.7z M42.9,79.5c0.1,0.9,0.2,1.7,0.1,2.6
				C43,81.3,43,80.4,42.9,79.5z M46,81.1c0-0.1,0.1-0.2,0.1-0.3C46.2,80.9,46.1,81.1,46,81.1z M46.6,81.1c0.1,0.1,0.3,0.1,0.4,0.1
				c-0.1,0.1-0.3,0-0.4,0C46.6,81.2,46.6,81.2,46.6,81.1z M58,84.1c-0.7,0.2-2,0.4-2.7,0.2c-0.1-1.2,0.1-2.4,0.2-3.4
				c0-0.5,0-1,0-1.5c0.1-1,0.1-1.9,0-3c0-0.4,0.1-0.8-0.2-1.1c0,0.5-0.3,0.9-0.3,1.2c0.1-0.1,0.1-0.3,0.3-0.3
				c0.1,0.5-0.3,0.6-0.2,0.9c0.1-0.1,0.1-0.3,0.3-0.4c0.1,0.5-0.3,0.7-0.2,1c0.1-0.1,0.2-0.3,0.2-0.4c0.1,0.4-0.2,0.6-0.2,0.8
				c0-0.1,0.1-0.3,0.2-0.2c0,0.3-0.3,0.5-0.2,0.7c0.1-0.1,0.1-0.2,0.2-0.3c0.1,0.5-0.4,0.7-0.3,1c0.1-0.1,0.2-0.3,0.3-0.5
				c0.1,0.5-0.3,0.7-0.2,1c0,0,0.1-0.2,0.2-0.2c0,0.4-0.4,0.5-0.3,0.8c0.1-0.2,0.2-0.4,0.3-0.5c0,0.5-0.5,0.8-0.4,1.2
				c0.1-0.2,0.3-0.5,0.4-0.7c0,0.5-0.2,0.7-0.1,1.1c-0.2,0.1-0.4,0.7-0.4,1c0.1-0.2,0.2-0.5,0.3-0.7c0,0.5-0.4,0.7-0.4,1.3
				c0.2-0.1,0.2-0.5,0.3-0.6c0,0.5-0.3,0.7-0.3,1.1c0.1-0.2,0.1-0.4,0.3-0.5c-0.1,0.3-0.2,0.6-0.3,0.8c-0.4-0.1-0.7-0.4-1.1-0.5
				c-0.3-1.9-0.5-4.1-0.9-6c0,0.9,0.2,2,0.1,2.7c0,0,0-0.1,0.1-0.1c0.1,0.2-0.2,0.4-0.1,0.6c0.1,0,0-0.2,0.2-0.2
				c0.1,0.3-0.2,0.4-0.1,0.6c0-0.1,0-0.2,0.1-0.2c0.1,0.3-0.2,0.5-0.1,0.8c0.1-0.1,0.1-0.3,0.2-0.3c0.2,0.3-0.1,0.7,0,0.9
				c0.1-0.1,0-0.3,0.2-0.3c0.1,0.3-0.2,0.5-0.1,0.7c0-0.1,0.1-0.2,0.1-0.3c0.1,0.4,0.1,0.7,0.2,1.1c-0.4-0.1-1.1,0.1-1.3-0.3
				c-0.6-1.5-0.1-4.1-0.5-5.9c0,0.3-0.2,0.4-0.1,0.6c0,0,0-0.1,0.1-0.1c0,0.2-0.1,0.3-0.1,0.4c0.1,0.1,0.1-0.2,0.2-0.1
				c0,0.2-0.2,0.4-0.2,0.5c0.1,0,0.1-0.3,0.2-0.2c0.1,0.5-0.1,1-0.2,1.2c0.1,0,0.1-0.3,0.2-0.2c0.1,0.3-0.2,0.6-0.2,0.6
				c0.1,0,0.1-0.2,0.2-0.2c0.1,0.6-0.3,0.8-0.2,1.1c0.1-0.1,0.1-0.3,0.2-0.4c0.1,0.4-0.3,0.6-0.2,0.9c0.1-0.1,0.1-0.3,0.2-0.3
				c0.1,0.3-0.2,0.5-0.1,0.7c0.1,0,0.1-0.1,0.1-0.2c0.1,0.3-0.2,0.4-0.1,0.6c0.1-0.1,0.1-0.3,0.2-0.2c-0.1,0.2-0.1,0.4-0.2,0.6
				c0.2,0,0.1-0.3,0.2-0.4c0.1,0.2-0.2,0.4-0.1,0.6c0.1-0.1,0-0.2,0.1-0.2c0,0.1-0.1,0.3-0.1,0.3c-0.5-0.2-1.1-0.5-1.4-0.9
				c-0.4,0-0.8,0-1.1,0.1c-1-0.3-1-1.5-2.4-1.4c0.2-0.4,0.4-1,0.3-1.6c-0.2,0.3-0.2,0.7-0.4,1c0-0.7,0.4-0.9,0.5-1.6
				c0.1,0,0.2,0,0.2-0.1c0-0.1-0.1,0.1-0.2,0c0.1-0.6,0.2-1.6,0.1-2.2c-0.1,0.3-0.4,0.6-0.4,0.9c0.1-0.1,0.1-0.3,0.2-0.3
				c0,0.4-0.3,0.6-0.3,0.9c0.1-0.1,0.1-0.3,0.2-0.2c0,0.2-0.3,0.4-0.3,0.6c0.1-0.1,0.2-0.3,0.2-0.3c-0.1,0.3-0.4,0.5-0.3,0.8
				c0.1-0.2,0.2-0.4,0.3-0.5c0,0.3-0.4,0.5-0.3,0.8c0.1,0,0.1-0.3,0.2-0.2c-0.1,0.4-0.5,0.7-0.5,1.1c0.1-0.1,0.2-0.3,0.2-0.2
				c-0.1,0.2-0.2,0.4-0.3,0.6c0.1,0,0.1-0.2,0.2-0.1c0,0.4-0.2,0.5-0.2,0.8c0,0,0.1-0.2,0.1-0.1c-0.1,0.1-0.2,0.3-0.1,0.4
				c0.1-0.1,0.1-0.4,0.2-0.3c-0.1,0.1-0.1,0.3-0.2,0.4c-0.7,0-0.4-1.1-0.8-1.6c-0.1-2.3,0.4-5.1-0.3-6.8c0.1,0.8,0.1,2.1-0.1,2.8
				c0,0,0.1-0.2,0.1-0.1c0,0.1-0.1,0.2-0.1,0.3c0.1,0.1,0.1-0.1,0.1,0.1c0,0.2-0.3,0.4-0.2,0.6c0.1-0.1,0.1-0.2,0.2-0.3
				c0.1,0.3-0.3,0.5-0.2,0.7c0,0,0.1-0.3,0.2-0.2c-0.1,0.2-0.2,0.5-0.3,0.7c0.2,0,0.1-0.4,0.3-0.3c-0.1,0.2-0.2,0.5-0.2,0.7
				c0.1-0.1,0-0.2,0.2-0.2c-0.1,0.3,0,0.6-0.1,0.9c0,0,0.1-0.1,0.1,0c0,0.2-0.1,0.2-0.1,0.4c0,0.1,0.1-0.1,0.1,0c0,0.2,0,0.4,0,0.6
				c-0.3-0.3-0.8-0.3-0.9-0.7c0-0.2,0.2-0.4,0.2-0.7c0.1-0.6,0-1.2-0.2-1.4c-0.3,0.2-0.4,0.6-0.4,0.9c0.1,0,0.1-0.3,0.2-0.2
				c-0.1,0.1-0.3,0.3-0.2,0.4c0.1-0.1,0.2-0.3,0.2-0.3c-0.1,0.1-0.3,0.4-0.3,0.5c0.2-0.2,0,0.1,0.2-0.1c0,0,0.1-0.1,0.2-0.1
				c-0.1,0.1-0.1,0.3-0.3,0.4c-0.4-0.2-1-0.2-1.1-0.8c0.4-0.7,0.6-1.6,1-2.3c-0.2-2.9-0.4-5.9-0.7-8.9c-0.3-2.8,0.1-5.9,0.2-8.5
				c0.2-2.5-0.1-5,0-7.4c0.1-1.2,0-2.7,0-4c0.1,0.1,0.2,0,0.3,0.2c0,0-0.2,0.1,0,0.2c0-0.1,0.2-0.3,0.2-0.2c0,0.1-0.2,0.1,0,0.2
				c0-0.1,0.1-0.2,0.2-0.1c0,0.1-0.1,0.2,0,0.2c0-0.1,0.1-0.2,0.2-0.2c-0.1,0.2,0.4,0.2,0.5,0.4c0,0.1,0,0.1,0,0.3
				c0.1,0,0.1-0.2,0.2-0.1c0,0.1-0.2,0.2-0.1,0.3c0-0.1,0.2-0.2,0.2-0.2c0,0.2-0.2,0.2-0.2,0.4c0.2,0,0.2-0.2,0.3-0.2
				c0,0.2-0.3,0.2-0.2,0.4c0.1,0,0.2-0.3,0.3-0.2c0,0.2-0.3,0.3-0.2,0.5c0.1-0.1,0.2-0.3,0.2-0.2c0,0.2-0.2,0.2-0.2,0.4
				c0.1,0,0.2-0.2,0.2-0.1c0,0.2-0.2,0.3-0.2,0.5c0.1,0,0.2-0.2,0.2-0.1c0,0.2-0.1,0.2-0.2,0.4c0.1,0,0.1-0.1,0.1,0
				c0,0.2-0.1,0.3-0.2,0.5c0.1,0,0.1-0.1,0.2-0.1c-0.1,1.2-0.3,2.9-0.3,4.2c0.4-1,0.2-2.5,0.5-3.6c0-0.1-0.1,0.1-0.1-0.1
				c0.1-0.9,0-2.1,0.1-3.1c0.2,0,0.3-0.1,0.5-0.1c0,0.1-0.1,0.2,0,0.2c0.1-0.1,0.2-0.3,0.2-0.2c-0.1,0.1-0.1,0.2-0.1,0.3
				c0.2,0,0.2-0.4,0.3-0.3c0,0.2-0.3,0.4-0.2,0.5c0.2-0.2,0.2-0.5,0.5-0.6c0,0,0,0,0,0.1c-0.1,0.2-0.3,0.4-0.3,0.6
				c0.1-0.2,0.2-0.3,0.3-0.5c0,0.1,0,0.1,0,0.2c-0.1,0.2-0.2,0.3-0.2,0.4c0.1,0,0.1-0.2,0.2-0.2c0,0,0,0.1,0,0.1
				c0,0.1-0.1,0.2-0.1,0.4c0.1,0,0.1-0.2,0.2-0.2c0,0,0,0,0,0c-0.1,0.2-0.2,0.3-0.1,0.5c0.1-0.1,0.1-0.3,0.2-0.3
				c0,0.2-0.2,0.3-0.2,0.6c0.1,0.1,0.1-0.3,0.2-0.2c0,0.2-0.1,0.3-0.1,0.5c0,0.1,0.1-0.1,0.1,0c-0.1,0.9-0.1,2.1,0.1,2.9
				c0.3-0.2,0.1-0.8,0.2-1.2c0-0.4,0.2-0.9,0.1-1.2c0,0.1,0,0.2-0.1,0.3c0-0.2,0.1-0.4,0.1-0.6c0.3,0.9,0.6,1.8,1,2.7
				c0.8,1.6,1.8,3.1,2.9,4.4c-0.1,0.1-0.1,0.2-0.1,0.2c0,0,0.1-0.1,0.1-0.2c0,0,0,0,0,0c-0.1,0.1-0.1,0.2-0.2,0.3
				c0.1,0,0.2-0.1,0.3-0.2c0,0,0,0,0,0.1c-0.1,0.1-0.2,0.2-0.1,0.3c0.1,0,0.2-0.2,0.2-0.1c-0.1,0.4-0.1,1.2-0.2,1.6
				c0.1-0.1,0-0.2,0.1-0.2c0,0.1-0.1,0.3,0,0.4c0.1,0,0-0.2,0.1-0.2c0,0.6-0.2,0.9-0.2,1.4c0.2-0.1,0.1-0.5,0.3-0.6
				c0,0.4-0.2,0.7-0.1,1.1c0.1-0.2,0.1-0.4,0.2-0.5c0.1,0.3-0.2,0.8,0,1.1c0,0,0-0.1,0.1-0.1c0.1,0.9,0.4,1.8,0.6,2.4
				c0,0,0-0.1,0-0.1c0.2,0.5,0.4,1.1,0.4,1.5c0,0,0.1-0.1,0.1,0c-0.1,0.2-0.3,0.4-0.2,0.6c0.1-0.1,0.1-0.3,0.2-0.3
				c0,0.3-0.2,0.4-0.2,0.7c0.2,0,0.1-0.2,0.2-0.3c0,0.2-0.2,0.4-0.1,0.6c0.1-0.1,0.1-0.2,0.1-0.2c0,0.3-0.2,0.5-0.1,0.8
				c0.1-0.1,0.1-0.3,0.2-0.4c0.1,0.3-0.1,0.5,0,0.7c0,0,0-0.1,0.1-0.1c0,0.2-0.2,0.3,0,0.5c0.1,0,0-0.1,0.1-0.2c0,0.2,0,0.5,0,0.7
				c0.2,0,0,0.4,0,0.6c0.2-0.1,0.2-0.3,0.2-0.5c0.1-1.1-0.3-2.6-0.2-3.6c0.1,0.5,0.5,0.7,0.8,1.1c0,0.1-0.1,0.2,0,0.2
				c0,0,0.1-0.2,0.1-0.1c0,0.2-0.1,0.3-0.2,0.5c0.1,0,0.1-0.3,0.2-0.2c0,0.1-0.2,0.4-0.1,0.5c0,0,0.1-0.3,0.1-0.2
				c0,0.3-0.2,0.5-0.1,0.8c0-0.1,0.1-0.2,0.1-0.2c0,0.2,0,0.3,0,0.5c0,0.1,0.1-0.1,0.1,0c0,0.2-0.1,0.3-0.1,0.5c0.1,0,0.1-0.1,0.1,0
				c0.1,0.5,0,0.7,0.1,1c0.2-0.8,0-2.1-0.1-3.2c0.1,0.1,0.2,0.1,0.2,0.3c0,0.1-0.2,0.2-0.1,0.3c0-0.1,0.1-0.2,0.2-0.2
				c-0.1,0.1-0.2,0.3-0.2,0.4c0,0,0.1-0.2,0.1-0.1c0,0.1-0.1,0.1-0.1,0.2c0.2,0,0.2-0.4,0.3-0.3c0,0.1-0.2,0.3-0.1,0.5
				c0.1-0.1,0.1-0.2,0.2-0.3c-0.1,0.2-0.3,0.5-0.2,0.7c0,0,0.1-0.2,0.2-0.2c-0.1,0.1-0.2,0.3-0.1,0.5c0,0,0.1-0.1,0.1,0
				c0,0.1-0.1,0.3,0,0.3c0.1-0.1,0.1-0.3,0.2-0.4c0,0.2-0.2,0.5-0.1,0.6c0-0.1,0.1-0.3,0.2-0.2c0.1,0.4-0.2,0.6-0.2,0.8
				c0.1-0.1,0.1-0.3,0.2-0.2c0.1,0.3-0.2,0.4-0.1,0.6c0.1,0,0.1-0.3,0.2-0.2c0,0.1-0.2,0.4-0.1,0.5c0.1-0.1,0.1-0.2,0.2-0.3
				c0.1,0.2-0.2,0.5-0.1,0.7c0-0.1,0.1-0.3,0.2-0.4c0.1,0.4-0.3,0.6-0.2,1c0.1-0.2,0.1-0.5,0.3-0.6c0.1,0.3-0.3,0.6-0.2,0.9
				c0.1-0.1,0.2-0.6,0.3-0.5c0,0.3-0.3,0.5-0.2,0.8c0.1-0.1,0.1-0.4,0.3-0.5c-0.1,0.3-0.3,0.5-0.3,0.9c0.2-0.1,0.3-0.5,0.4-0.6
				c0.1,0.4-0.2,0.6-0.2,1c0.2-0.1,0.2-0.4,0.4-0.6c0.1,0.4-0.4,0.7-0.2,1.1c0.1-0.2,0.2-0.5,0.4-0.7c0.1,0.4-0.4,0.7-0.3,1.1
				c0.2-0.2,0.2-0.6,0.4-0.8c0,0.1,0.1,0.1,0.1,0.2c-0.2,0.1-0.5,0.6-0.4,0.9c0.2-0.3,0.2-0.6,0.4-0.8c0.2,0.4-0.4,0.6-0.3,1.1
				c0.2-0.2,0.3-0.6,0.5-0.9c0,0.1,0.2,0.2,0.2,0.3c-0.1,0.2-0.3,0.4-0.3,0.8c0.2-0.1,0.2-0.5,0.4-0.7c0.1,0.1,0.2,0.2,0.3,0.3
				c-0.1,0.3-0.4,0.6-0.3,0.9c0.1-0.2,0.2-0.5,0.3-0.7c0.2,0.3-0.2,0.5-0.1,0.8c0.1-0.1,0.1-0.3,0.3-0.4c0.2,0.2-0.1,0.4,0,0.6
				c0.1,0.1,0.1-0.2,0.2-0.1c0,0.7,0,1.9,0.4,2.5c0,0.1-0.1,0.2-0.1,0.3c0.1-0.1,0.1-0.3,0.3-0.3c0.1,0.1-0.2,0.3-0.1,0.5
				c0.1,0,0.1-0.3,0.2-0.2c0,0.2-0.2,0.3-0.1,0.5c0.1-0.1,0-0.2,0.2-0.2c0.1,0.2-0.1,0.4-0.2,0.6c0.2,0,0.2-0.3,0.2-0.2
				c0.1,0.2-0.2,0.3-0.1,0.4c0,0,0.1-0.2,0.1-0.1c0,0.2-0.2,0.4-0.1,0.5c0.1,0,0.1-0.3,0.2-0.2c0.1,0.2-0.2,0.4-0.1,0.6
				c0.1-0.1,0-0.3,0.2-0.3c0,0.2-0.2,0.3-0.1,0.5c0-0.1,0.1-0.2,0.2-0.2c0,0.2-0.1,0.2-0.1,0.4c0.1,0,0.1-0.1,0.2-0.2
				c0.2,0.3,0.1,0.7-0.1,1c0.1,0.1,0.1,0,0.1,0c-0.1,0.1-0.1,0.2-0.1,0.3c0.1,0,0.1-0.2,0.2-0.2c-0.2,0.4,0,0.6-0.3,1
				c0.2-0.1,0.2-0.4,0.3-0.5c0.1,0.3-0.3,0.5-0.2,0.7c0.1-0.1,0.2-0.3,0.2-0.3c0,0.1-0.2,0.3-0.1,0.5c0-0.1,0.1-0.3,0.2-0.2
				c0,0.3-0.2,0.4-0.1,0.6c0.1-0.1,0.1-0.3,0.2-0.4c0.1,0.3-0.4,0.7-0.2,0.9c0.1-0.1,0.1-0.3,0.2-0.5c0.2,0.3-0.2,0.6-0.1,0.8
				c0-0.1,0-0.3,0.2-0.3c0,0.4-0.3,0.7-0.2,1c0.1-0.2,0.2-0.4,0.3-0.5c0,0.5-0.4,0.7-0.3,1.2c0.1-0.2,0.2-0.5,0.3-0.7
				c0,0.4-0.5,0.8-0.4,1.4c0.2-0.3,0.2-0.8,0.5-1C58.4,83.4,58,83.6,58,84.1z M56.2,71.5c0-0.1,0.1,0,0.2,0c0,0.1,0,0.1,0,0.2
				C56.3,71.6,56.3,71.5,56.2,71.5z M57.4,75.4c-0.1,0-0.1-0.1-0.3,0c-0.2-0.7-0.3-1.4-0.2-2.3c0.1,0,0.2,0,0.3,0
				C57,73.7,57.3,74.7,57.4,75.4z M57.6,72.3c0.2,0,0,0.2,0,0.2C57.5,72.5,57.6,72.4,57.6,72.3z M58.5,79.9
				c-0.1-0.1-0.1-0.3-0.1-0.5C58.6,79.5,58.6,79.7,58.5,79.9z M58.9,80.1c0,0.2-0.2,0.4-0.2,0.7C58.6,80.6,58.8,80.3,58.9,80.1z
				 M58.7,81c0-0.2,0.2-0.5,0.3-0.8C59,80.5,58.8,80.8,58.7,81z M59.1,80.5c0.1,0.3-0.3,0.7-0.4,1C58.6,81.1,59,80.8,59.1,80.5z
				 M58.8,83.3c0-0.5-0.2-1-0.1-1.5c0.1-0.4,0.5-0.8,0.5-1.1c0.2,0.4-0.4,0.7-0.4,1.3c0.3-0.2,0.4-0.7,0.6-1c0,0.5-0.5,0.9-0.5,1.5
				c0.3-0.3,0.4-0.9,0.7-1.3c-0.1,0.5-0.4,0.8-0.5,1.3c0.3-0.2,0.4-0.7,0.6-1.1c0.1,0.4-0.4,1-0.6,1.4C59,83.1,59.1,83.3,58.8,83.3z
				 M59.5,82.6c-0.1,0.2-0.1,0.5-0.4,0.6c0.1-0.5,0.5-1,0.6-1.5c0.1,0,0.1,0,0.1,0C59.9,82.1,59.7,82.4,59.5,82.6z M61.5,86.1
				c0.1,0.6-0.4,1.2-0.3,1.9c0,0,0.1,0,0.1,0c0.1,0.1-0.2,0.1-0.2,0.2c-0.2,0.4,0.1,1,0,1.3C60.6,88.2,61.2,86.9,61.5,86.1z
				 M58.7,77.4c0.1,0.1-0.1,0.2-0.1,0.3C58.6,77.7,58.8,77.6,58.7,77.4z M58.7,77c0.1,0,0.2,0,0.2,0.2c-0.1-0.2-0.2,0-0.2,0.2
				C58.6,77.3,58.7,77.1,58.7,77z M59,77.2c0.1,0.1-0.1,0.6-0.3,0.8C58.8,77.7,59,77.5,59,77.2z M59.2,77.3c0.1,0.2-0.1,0.7-0.3,0.8
				C58.9,77.8,59.1,77.6,59.2,77.3z M59.5,77.4c0,0.3-0.3,0.6-0.3,1.1C58.8,78.3,59.2,77.6,59.5,77.4z M59.6,77.5
				c0.1,0,0.1,0.1,0.2,0.1c-0.1,0.4-0.5,0.7-0.5,1.2C58.9,78.4,59.5,77.9,59.6,77.5z M59.9,77.7c0.1,0,0.1,0,0.2,0
				c0,0.5-0.4,0.9-0.5,1.4C59.1,78.7,59.8,78.1,59.9,77.7z M60.1,78c0.2,0.5-0.3,0.9-0.3,1.4c-0.1,0-0.1-0.1-0.2-0.2
				C59.7,78.9,59.9,78.4,60.1,78z M60.3,78.5c0.2,0.4-0.2,0.8-0.2,1.2C59.7,79.4,60.2,78.9,60.3,78.5z M60.4,79.1
				c0.1,0.4-0.1,0.7-0.2,1C60,79.8,60.4,79.4,60.4,79.1z M60.6,79.5c0.2,0.3,0,0.7-0.1,1C60.2,80.3,60.5,79.8,60.6,79.5z M60.8,80.1
				c0.2,0.3-0.1,0.6-0.1,0.9C60.4,80.8,60.7,80.4,60.8,80.1z M60.9,80.7c0.2,0.3,0.1,0.7,0,1.1c0.2,0,0.1-0.2,0.2-0.3
				c0.1,0.2-0.1,0.5-0.1,0.7C60.8,81.7,60.7,81.2,60.9,80.7z M61.3,82c0.2,0.2,0,0.5,0,0.7C61,82.5,61.2,82.2,61.3,82z M61.4,82.5
				c0.1,0.2-0.1,0.4-0.1,0.6C61.1,83,61.4,82.8,61.4,82.5z M61.5,82.9C61.5,82.9,61.6,82.9,61.5,82.9c0.2,0.2,0,0.5,0,0.7
				C61.3,83.4,61.4,83.1,61.5,82.9z M61.9,84.7c0,0.1-0.1,0.2-0.1,0.3c-0.1-0.2-0.1-0.5,0-0.7c0.2,0,0,0.3,0,0.3
				C61.8,84.7,61.9,84.6,61.9,84.7z M61.8,86.5c-0.1-0.1,0.1-0.3,0.1-0.4C62,86.3,61.8,86.5,61.8,86.5z M61.7,87.5
				c-0.1,0,0.1-0.2,0.1-0.3C61.9,87.3,61.7,87.4,61.7,87.5z M61.8,86.1c0-0.4-0.1-0.9,0.1-1.1C61.9,85.3,62.1,85.9,61.8,86.1z
				 M61.6,84.2c-0.1-0.3-0.1-0.4,0-0.6C61.8,83.7,61.8,84.1,61.6,84.2z M61.9,87.6c-0.1,0.2-0.4,0.5-0.5,0.8
				C61.4,88.1,61.7,87.8,61.9,87.6z M62,87.8c0,0-0.2,0.4-0.3,0.5C61.6,88.1,61.9,87.9,62,87.8z M61.7,82.3
				c-0.1-0.4-0.3-0.8-0.2-1.2c0.3,0.8,0.5,1.8,0.6,2.8c-0.1,0-0.1-0.2-0.2-0.3C61.9,83.2,61.8,82.8,61.7,82.3z M61.6,85.5
				c-0.1-0.1-0.1-0.4-0.1-0.6C61.6,85.1,61.5,85.4,61.6,85.5z M60.7,91.5c0.6-0.8,2.4-0.1,3.4-0.6c-0.3-0.5-1.1,0-1.8-0.2
				c0.1-0.5,0-1,0.3-1.3c-0.3-0.3-0.8,0.1-1.1,0.2c-0.1,0.5-0.2,1-0.6,1.3c-0.1-0.4,0.5-0.8,0.2-1.2c0.6-0.9,2.5-0.4,3.2,0
				c0.6-0.1,0.9,0.3,1.1,0.6c-0.1,0.1-0.2-0.3-0.4-0.1c0.2,0.5,0.8,0.5,0.7,1.3c-0.3-0.1-0.5-0.4-0.8-0.5c0-0.5,0.1-1.1-0.3-1.2
				c0,0,0,0-0.1,0c-0.1,0.2,0.1,0.6,0,1c-0.2,0-0.4,0-0.5,0.1c0.1,0.2,0.4,0.3,0.6,0.4c-0.5,0.4,0.2,1.5-0.1,2
				c-0.7-0.4-2.2-0.3-3.1-0.3c0-0.5,0.1-1.4,0.4-1.7c-1.1-0.5-1.4,0.4-1.7,1.1c-0.2,0.5-0.4,1.1-0.9,1.1C60,93,60.2,92.2,60.7,91.5z
				 M60.8,92.2C60.8,92.2,60.9,92.2,60.8,92.2c0.1,0,0.1,0,0.1,0c0,0.1-0.1,0.1-0.2,0.2C60.7,92.5,60.8,92.3,60.8,92.2z M61.3,92.1
				c-0.1,0.1-0.5,0.5-0.8,0.8c-0.1-0.1,0.1-0.3,0.1-0.4C60.9,92.5,61.1,92.2,61.3,92.1z M60,96.1c-0.3-0.8-0.7-1.5-0.6-2
				c0.6-0.3,1.2-0.5,1.9-0.6c0.1,0.2-0.5,0.3-0.8,0.4c-0.4,0.1-0.8,0.2-0.9,0.5c0,0.3,0.1,0.6,0.2,0.8c0,0.1,0.2,0.1,0.2,0.1
				c0.2,0.5,0.5,1.3,0.7,1.9c0.1,0.4,0.1,0.7,0.5,0.8C60.4,98,60.3,96.9,60,96.1z M60.7,96.3c-0.1-0.2,0.2-0.2,0.2-0.4
				C61.1,96.1,60.7,96.2,60.7,96.3z M61,96.2c0.1,0.1-0.2,0.2-0.2,0.3C60.7,96.4,60.9,96.3,61,96.2z M60.7,94.9
				c0.1,0.2-0.2,0.4-0.3,0.5C60.4,95.1,60.6,95.1,60.7,94.9z M60.3,95.1c0-0.2,0.3-0.3,0.4-0.5C60.7,94.7,60.4,95,60.3,95.1z
				 M60.8,95.2c0,0.2-0.2,0.3-0.3,0.5C60.4,95.5,60.6,95.3,60.8,95.2z M60.8,95.5c0,0.2-0.1,0.3-0.3,0.4
				C60.5,95.7,60.7,95.5,60.8,95.5z M60.8,95.8c0,0,0.1,0,0.1-0.1C60.9,96,60.5,96.1,60.8,95.8z M61.4,97.9c0,0,0.3-0.1,0.5-0.1
				C61.8,98,61.6,97.9,61.4,97.9z M62.8,97.8c0.1-0.1,0.2-0.1,0.3-0.1C63.1,97.8,63,97.8,62.8,97.8z M63.5,97.7
				c0-0.2,0.2-0.2,0.3-0.4c0.1-0.8-1.3-0.3-1.9-0.3c-0.5-0.4-1.1-1.5-1-2.4c0.1-0.5,0.5-0.7,0.6-1.1c1,0,2.4-0.2,3,0.3
				c-0.1,0.1-0.1,0.2-0.1,0.3c-0.3,0.5-0.6,1.2-1,1.7c0.4,0.1,0.5-0.4,0.7-0.7c0.1-0.2,0.3-0.3,0.3-0.6c0.2-0.1,0.5,0,0.6,0.1
				c0.1-0.4-0.5-0.2-0.4-0.5c0.3,0,0.9,0.4,1.1,0.6C65.1,95.5,64.6,96.9,63.5,97.7z M66.1,94c-0.4-0.1-0.6-0.4-1-0.5
				c0.1-0.6,0-1.1,0-1.7c0-0.2,0.1,0.1,0.2,0c0.1-0.1-0.2-0.2-0.1-0.3c0.2,0.2,0.6,0.3,0.8,0.6c-0.2,0-0.3-0.2-0.5-0.2
				c0.1,0.3,0.4,0.3,0.6,0.5C66,92.9,66.1,93.4,66.1,94z M66.4,91.6c-0.2-0.7,0-1.4,0.2-1.9C66.9,90.1,66.7,91.3,66.4,91.6z
				 M63.5,72.5c0.7,1.4,1.2,3.1,1.4,5.3c0.2,2-0.2,4.3,0,6.2c0.1,0.7,0.4,1.4,0.6,2c0.2,0.7,0.7,1.3,0.8,1.9
				c0.1,0.6,0.1,1.2-0.2,1.5c-0.7-0.2-1.2-0.9-2-0.7c0.7,0.4,1.6,0.5,1.8,1.2c-0.6-0.8-2.1-0.9-3.2-1.1c0.1,0,0-0.2,0-0.3
				c0.4,0,0.9,0.1,1.2,0c-0.2-0.4-0.9-0.2-1.3-0.2c0-0.6,0.6-1.2,0.2-1.8c-0.2,0.2,0,0.9-0.2,1c-0.1-0.1,0.1-0.2,0.1-0.3
				c0-0.2-0.2-0.1-0.2-0.3c0-0.2,0.1-0.2,0.2-0.3c-0.1-0.2,0-0.6-0.2-0.7c0-0.2,0.1-0.1,0.1-0.3c-0.1-0.3-0.3-1-0.2-1.1
				c0.1,0.4,0.1,0.9,0.3,1.1c0.3-0.2,0.1-0.6,0-0.9c-0.3-1.5-0.6-3.2-1.1-4.5c-0.3,0.1,0,0.5,0,0.7c-0.4-1.1-0.7-2.2-0.9-3.4
				c-0.9-0.2-1.6-0.7-2.5-1.1c0.1,0.5,0.2,1,0.3,1.4c0.2,0.6,0.9,1.2,1.1,1.8c0.1,0.1,0.1,0.2,0.1,0.3c0.1,0.1,0.2-0.1,0.3,0
				c0.1,0.2,0.1,0.3,0,0.5c0.7,1.3,1.2,2.8,1.5,4.4C61.1,82.8,60,81,59,79.4c-0.5-0.7-0.9-1.5-1.1-2.4c-0.1-0.3-0.1-0.7-0.2-1.1
				c0.9,0.4,1.7,1,2.8,1.3c0.2,0,0.1,0.2,0.3,0.2C62,76,63,74.6,63.5,72.5z M57.9,74C57.9,74,57.9,74,57.9,74
				C58,74,57.7,74.5,57.9,74z M58.6,75.9c0.1-0.2,0.2-0.3,0.2-0.5C58.9,75.5,58.8,75.9,58.6,75.9z M58.9,75.7c0.1,0.1,0,0.3,0,0.3
				C58.7,75.9,58.9,75.8,58.9,75.7z M58.5,75.8c-0.3-0.2,0.2-0.6,0.2-0.9C58.9,75.2,58.6,75.6,58.5,75.8z M58.2,75.7
				c0-0.3,0.3-0.7,0.4-1.1C58.6,75,58.3,75.3,58.2,75.7z M58.1,75.4c-0.2-0.4,0.3-0.7,0.3-1.1c0,0,0.1,0.1,0.1,0.1
				C58.5,74.7,58.3,75,58.1,75.4z M58,75c0-0.5,0.3-0.9,0.5-1.3C58.5,74.1,58.1,74.5,58,75z M58,73.9c-0.1-0.1,0.1-0.2,0.1-0.3
				C58.2,73.6,58,73.8,58,73.9z M63.2,71.7c-0.1,0.2-0.2-0.3-0.4-0.3c0.1,0.3,0.2,0.4,0.3,0.6c-0.3,2-1.3,3.4-2.4,4.7
				c-0.1,0,0-0.2-0.1-0.3c-0.6-0.6-0.7-1.7-1.4-2.1c0.2,0.8,0.8,1.6,1.1,2.3c-0.7-0.4-0.8-1.5-1.3-2.1c0-0.5-0.4-0.8-0.3-1.4
				c-0.3-0.1-0.8,0-0.9-0.1c1.2,0,2.1-0.6,2.9-1.2c0.6-0.5,1.2-1,1.6-1.5C62.7,70.7,63,71.1,63.2,71.7z M62,69.4
				c0,0.3,0,0.6-0.2,0.8c-0.3,0.5-1.3,1.1-1.9,1.6c-0.3,0.3-0.9,0.6-1.4,0.7c-0.1-0.2,0-0.5-0.2-0.6c-0.2,0.1,0,0.4,0,0.6
				c-0.2-0.1-0.1-0.4-0.2-0.6c-0.3,0.3-1,0-1.4,0.3c0,0-0.2,0.2,0,0.3c-0.1,0-0.1-0.2-0.2-0.4C59,71.9,60.5,70.6,62,69.4z M61.5,69
				C61.6,69,61.6,69.1,61.5,69c-1,1.2-2.6,2-4.2,2.5c0-0.2,0.4-0.2,0.5-0.3c0.5-0.2,1.2-0.5,1.7-0.8C60.3,70,61.1,69.7,61.5,69z
				 M61.2,68.8c-0.2-0.2,0-0.3,0-0.5c0-0.8-0.6-1.7-0.8-2.3c-0.1,0.6,0.4,1.2,0.6,1.8c0,0.1-0.1,0.1-0.2,0.2
				c0.1,0.5-0.2,0.8-0.2,1.2c0.1,0.1,0.2-0.1,0.3-0.1c-0.9,0.8-2,1.3-3.1,1.8c-0.5-0.3-0.8-0.9-1.3-1.3c0.1,0.6,0.6,0.9,0.8,1.4
				c-0.3,0-0.5-0.4-0.8-0.6c-0.4-0.8-1-1.9-1.1-2.7c0.3,0.7,0.5,1.3,0.9,1.8c0.1-0.6-0.5-1.4-0.7-2.2c-0.1-0.5-0.1-1-0.3-1.6
				c-0.3,0.2-0.1,0.9-0.1,1.2c-0.2-0.3-0.1-0.9,0-1.3c0.2-0.1,0.2,0.1,0.3,0c-0.1-0.3-0.4,0.1-0.5-0.3c-0.9,1.1,0,2.4,0.3,3.6
				c0,0.2,0,0.3,0.1,0.5c0.2,0.6,0.6,1.1,0.9,1.5c0,0,0,0,0,0c0,0,0,0,0,0.1c0,0.1,0.1,0.1,0.1,0.2c-0.1,0-0.1-0.1-0.1-0.2
				c0,0,0,0,0-0.1c-0.1,0-0.1-0.1-0.2-0.1c-0.7-0.6-0.8-1.5-1.1-2.6c-0.2-0.7-0.6-1.2-0.5-2c0.1-0.4,0.3-0.8,0.5-1.2
				c0.1-0.1,0.1,0.1,0.3,0.1c0.3-0.2,0.2-0.9,0.6-1c1-0.1,1.6,0.3,2.3,0.6c0.8,0.4,1.5,0.6,2.2,1C61,66.4,61.5,67.6,61.2,68.8z
				 M56,69.7c-0.1,0-0.2-0.2-0.2-0.3C55.9,69.4,55.9,69.6,56,69.7z M55,67c-0.2-0.1-0.1-0.3,0-0.4c0.1,0-0.1,0.4,0,0.3
				C55.1,66.9,55,67,55,67z M54.9,66.6c0.1-0.2,0,0,0,0.2c-0.2-0.2,0-0.4,0.1-0.7C55.1,66.2,54.8,66.4,54.9,66.6z M62.8,59.9
				c0,0-0.1,0.1-0.1,0.1c-0.1,0.1-0.1,0.1-0.2,0.2c0,0-0.1,0.1-0.1,0.1c-0.1,0.1-0.1,0.1-0.2,0.2c0,0-0.1,0.1-0.1,0.1
				c-0.1,0.1-0.1,0.1-0.2,0.2c0,0-0.1,0.1-0.1,0.1c-0.1,0.1-0.1,0.1-0.2,0.2c0,0-0.1,0.1-0.1,0.1c-0.1,0.1-0.1,0.1-0.2,0.2
				c0,0-0.1,0-0.1,0.1c-0.1,0.1-0.1,0.1-0.2,0.1c0,0,0,0-0.1,0.1c-0.1,0.1-0.1,0.1-0.2,0.2c0,0-0.1,0.1-0.1,0.1c0,0,0,0-0.1,0.1
				c0,0-0.1,0.1-0.1,0.1c0,0,0,0,0,0c0,0-0.1,0.1-0.1,0.1c0,0,0,0,0,0c0,0-0.1,0.1-0.1,0.1c0,0,0,0,0,0v0c-0.1,0.1-0.2,0.2-0.3,0.2
				c-0.1,0-0.1-0.1-0.2-0.1c0.1,0.2,0.2,0.4,0.2,0.5c-0.1,0.1-0.1,0.3-0.2,0.5c0.1-0.1,0.2-0.3,0.3-0.3c-0.1,0.6,0.2,1.5-0.3,1.8
				c0-0.1,0.2-0.2,0.1-0.3c-0.1,0-0.1,0.3-0.2,0.2c0-0.2,0.3-0.2,0.2-0.4c-0.1,0.1-0.2,0.3-0.3,0.3c0-0.2,0.3-0.3,0.2-0.4
				c-0.2,0.1-0.2,0.3-0.4,0.3c0-0.1,0.2-0.2,0.1-0.3c-0.1,0.1-0.1,0.2-0.2,0.3c-0.8-0.3-2-1.1-3.1-0.9c-0.4,0.1-0.5,0.3-0.6,0.6
				c-0.2,0.3-0.5,0.5-0.8,0.7c0,0.1-0.1,0.3-0.2,0.3c-1-1.9-1.8-4.5-1.5-7.4c0,1.6,0.3,3,0.5,4.3c0.4,0.9,0.5,2,1.1,2.6
				c0.1-0.2,0.4-0.2,0.5-0.5c-0.7-2-1.8-4.1-1.9-6.8c-0.1-0.1-0.2-0.2-0.3-0.3v0c0,0,0,0,0,0v0c-0.6-0.6-1.3-1.3-1.8-2v0l0,0
				c-0.5-0.6-0.9-1.2-1.4-1.8v0c0,0,0,0,0,0c-0.1-0.1-0.1-0.2-0.2-0.3v0l0,0c-0.1-0.1-0.2-0.2-0.2-0.4c0-0.1-0.1-0.1-0.1-0.2
				c-0.1-0.1-0.1-0.2-0.2-0.3c0-0.1-0.1-0.2-0.1-0.3c0-0.1-0.1-0.2-0.1-0.2c-0.1-0.2-0.2-0.4-0.3-0.5c-0.1-0.2-0.1-0.3-0.2-0.5
				c0,0,0-0.1,0-0.1c-0.1-0.2-0.1-0.3-0.2-0.5c0,0,0-0.1,0-0.1c-0.1-0.2-0.1-0.3-0.2-0.5c0,0,0,0,0,0c-0.1-0.2-0.1-0.3-0.2-0.5
				c0,0,0,0,0,0c-0.1-0.2-0.1-0.3-0.2-0.5c0,0,0,0,0,0c-0.3-1-0.5-2-0.7-3.1l0,0l0,0c0-0.1,0-0.3-0.1-0.4c0,0,0-0.1,0-0.1
				c0-0.1,0-0.3-0.1-0.4c0,0,0,0,0,0c0-0.1,0-0.3-0.1-0.4c0,0,0,0,0-0.1c0-0.1,0-0.3,0-0.4c0,0,0,0,0-0.1c0-0.1,0-0.3,0-0.4
				c0,0,0,0,0,0c0-0.1,0-0.3,0-0.4c0,0,0-0.1,0-0.1c0-0.3,0-0.6-0.1-0.9c0,0,0-0.1,0-0.1c0-0.1,0-0.3,0-0.4c0,0,0,0,0,0
				c0-0.1,0-0.3,0-0.4c0,0,0,0,0-0.1c0-0.1,0-0.2,0-0.4c0,0,0,0,0,0c0-0.1,0-0.3,0-0.4c0,0,0,0,0,0c0-0.1,0-0.2,0-0.4c0,0,0,0,0-0.1
				c0-0.1,0-0.3,0-0.4c0,0,0,0,0,0c0-0.1,0-0.2,0-0.4c0,0,0,0,0-0.1c0-0.2,0-0.5,0-0.7c0,0,0,0,0-0.1c0-0.1,0-0.2,0-0.3c0,0,0,0,0,0
				c0-0.1,0-0.2,0-0.3c0,0,0,0,0-0.1c0-0.1,0-0.2,0-0.3c0,0,0,0,0-0.1c0-0.1,0-0.2,0-0.3c0,0,0,0,0,0c0-0.1,0-0.2,0-0.3
				c0,0,0,0,0-0.1c0-0.2,0-0.4,0-0.5c0,0,0,0,0-0.1c0-0.1,0-0.2,0-0.2c0,0,0,0,0,0c0-0.1,0-0.2,0-0.2c0,0,0,0,0,0c0-0.1,0-0.1,0-0.2
				c0,0,0,0,0,0c0-0.1,0-0.1,0-0.2c0,0,0,0,0,0c0-0.1,0-0.1,0-0.2c0,0,0,0,0,0c0-0.1,0-0.1,0-0.2c0,0,0,0,0,0c0,0,0-0.1,0-0.1
				c0,0,0,0,0,0c0,0,0-0.1,0-0.1c0.5,0,1.5,0.1,2.7,0.1c1.8,0,3.4-0.1,4.7-0.3c0.1,0,0.3,0,0.4-0.1c0.1,0,0.2,0,0.3-0.1c0,0,0,0,0,0
				c0,0,0,0,0,0c0.5-0.1,0.9-0.3,1.3-0.5l0,0c0,0,0,0,0.1,0c0.1,0,0.2-0.1,0.2-0.1c0,0,0.1-0.1,0.1-0.1l0,0c0.9-0.5,1.3-1.1,1.5-1.4
				l4.5,0.3c0.1,0.2,0.4,0.6,0.8,1.1l0,0c0.1,0.1,0.1,0.1,0.2,0.2c0,0,0,0,0,0c0.2,0.2,0.4,0.4,0.7,0.7l0,0c0.3,0.3,0.7,0.5,1.1,0.8
				c0.1,0,0.2,0.1,0.2,0.1c0.1,0,0.2,0.1,0.3,0.1c1.8,0.8,4.5,1,5.3,1c0.3,1.5,1.9,9.2-0.4,13.6c-0.1,0.3-0.3,0.5-0.4,0.8
				c0,0.1-0.1,0.2-0.1,0.2c-0.1,0.2-0.2,0.3-0.3,0.5c-0.1,0.1-0.1,0.2-0.2,0.3c-0.1,0.1-0.2,0.3-0.3,0.4c-0.1,0.1-0.1,0.2-0.2,0.3
				C69.1,52,69,52.2,69,52.3c-0.1,0.1-0.1,0.2-0.2,0.3c-0.1,0.1-0.2,0.3-0.3,0.4c-0.1,0.1-0.1,0.2-0.2,0.3c-0.1,0.1-0.2,0.2-0.3,0.4
				c-0.1,0.1-0.1,0.2-0.2,0.3c-0.1,0.1-0.2,0.2-0.3,0.4c-0.1,0.1-0.1,0.2-0.2,0.2c-0.1,0.1-0.2,0.2-0.3,0.4
				c-0.1,0.1-0.1,0.2-0.2,0.2c-0.1,0.1-0.2,0.2-0.3,0.4c-0.1,0.1-0.1,0.1-0.2,0.2c-0.1,0.1-0.2,0.2-0.3,0.4c0,0.1-0.1,0.1-0.1,0.2
				c-0.1,0.1-0.2,0.3-0.3,0.4c0,0-0.1,0.1-0.1,0.1c-0.1,0.2-0.3,0.3-0.4,0.5c0,0,0,0,0,0c-0.3,0.3-0.5,0.6-0.8,0.9c0,0,0,0-0.1,0.1
				c-0.1,0.1-0.2,0.2-0.3,0.4c0,0-0.1,0.1-0.1,0.1c-0.1,0.1-0.2,0.2-0.3,0.3c0,0-0.1,0.1-0.1,0.1c-0.1,0.1-0.2,0.2-0.3,0.3
				c0,0-0.1,0.1-0.1,0.1c-0.1,0.1-0.2,0.2-0.2,0.2c0,0-0.1,0.1-0.1,0.1C63,59.8,62.9,59.9,62.8,59.9z"/>
			<path fill-rule="evenodd" clip-rule="evenodd" fill="#010101" d="M53.6,20.2c0,0.1-0.2,0.2-0.2,0C53.4,20.2,53.5,20.2,53.6,20.2z
				"/>
			<path fill-rule="evenodd" clip-rule="evenodd" fill="#010101" d="M51.3,22.7c0.1-0.1,0.2-0.2,0.3-0.3c0-0.1-0.1,0.1-0.2,0
				c0-0.2,0.2-0.2,0.3-0.3c0.2-0.4,0.5-0.9,0.8-1.2c0.2-0.2,0.4-0.5,0.8-0.5c-1.1,1.1-1.9,2.4-2.5,4c0-0.7,0.3-1.2,0.6-1.8
				C51.4,22.6,51.4,22.7,51.3,22.7z"/>
			<path fill-rule="evenodd" clip-rule="evenodd" fill="#010101" d="M56,21c0.2,0,0,0.3-0.1,0.2C55.9,21.1,56,21.1,56,21z"/>
			<path fill-rule="evenodd" clip-rule="evenodd" fill="#010101" d="M54.7,22.2c-0.1-0.1,0.1-0.3,0.1-0.3
				C54.9,21.9,54.7,22,54.7,22.2z"/>
			<path fill-rule="evenodd" clip-rule="evenodd" fill="#010101" d="M52.8,24.3c0,0.2-0.1,0.5-0.3,0.6
				C52.5,24.6,52.7,24.5,52.8,24.3z"/>
			<path fill-rule="evenodd" clip-rule="evenodd" fill="#010101" d="M51.9,27.3c0.2,0.4,0.3,0.8,0.4,1.2
				C52.1,28.2,52,27.7,51.9,27.3z"/>
			<path fill-rule="evenodd" clip-rule="evenodd" fill="#010101" d="M48.8,27.5c0.1,0,0.1,0.2,0.1,0.3
				C48.8,27.8,48.7,27.6,48.8,27.5z"/>
			<path fill-rule="evenodd" clip-rule="evenodd" fill="#010101" d="M51.1,27.7c0.1,0.6,0.3,1.5,0.5,2.1
				C51.2,29.4,51.1,28.6,51.1,27.7z"/>
			<path fill-rule="evenodd" clip-rule="evenodd" fill="#010101" d="M51,29.3c0.1,0,0.1,0.3,0,0.3C50.8,29.6,51,29.5,51,29.3z"/>
			<path fill-rule="evenodd" clip-rule="evenodd" fill="#010101" d="M41.2,29.8c0.1,0.1,0.1,0.4,0.1,0.6c0,0,0,0,0-0.1
				c-0.1-0.1-0.3,0-0.3-0.2C41,30.1,41.3,30.1,41.2,29.8z"/>
			<path fill-rule="evenodd" clip-rule="evenodd" fill="#010101" d="M41.6,35.6c0.3-0.1,0.2,0.2,0.3,0.3c0,0.1-0.2-0.1-0.2,0
				C41.7,35.9,41.6,35.8,41.6,35.6z"/>
			<path fill-rule="evenodd" clip-rule="evenodd" fill="#010101" d="M43.3,36.6c0.1,0.9,0,2,0,3c-0.2-0.8,0-1.9-0.1-2.9
				C43.2,37.2,43.1,36.6,43.3,36.6z"/>
			<path fill-rule="evenodd" clip-rule="evenodd" fill="#010101" d="M41.8,36.6c0.1,0,0.1,0.2,0,0.2c-0.1,0-0.2,0-0.2-0.1
				C41.6,36.6,41.7,36.6,41.8,36.6z"/>
			<path fill-rule="evenodd" clip-rule="evenodd" fill="#010101" d="M43.3,40.8c0,0.2-0.3,0.1-0.4,0c0,0,0-0.1,0-0.1
				C42.9,40.6,43.2,40.7,43.3,40.8z"/>
			<path fill-rule="evenodd" clip-rule="evenodd" fill="#010101" d="M44.7,42c0.1,0,0.1,0,0.1,0c0.2,0.7,0.6,1.3,0.8,1.9
				C45.1,43.6,45,42.7,44.7,42z"/>
			<path fill-rule="evenodd" clip-rule="evenodd" fill="#010101" d="M43,42.7c0.1,0.2,0.2,0.7,0.2,1C43,43.4,42.8,42.9,43,42.7z"/>
			<path fill-rule="evenodd" clip-rule="evenodd" fill="#010101" d="M44.3,44.1c0.3,0.2,0.6,0.6,0.8,0.9c-0.1,0-0.3,0-0.3-0.2
				c0,0.1-0.1,0.1-0.1,0.2c-0.1,0,0-0.1,0-0.2c0-0.1-0.1,0.1-0.2,0.1c0-0.1,0.1-0.1,0.1-0.2c-0.1,0-0.2,0.1-0.1-0.2
				c-0.2,0.1,0-0.1-0.1-0.2c-0.1,0-0.1,0-0.1,0.1C44.1,44.3,44.3,44.3,44.3,44.1z"/>
			<path fill-rule="evenodd" clip-rule="evenodd" fill="#010101" d="M45.2,44.5c0.2-0.1,0.3,0.3,0.5,0.4
				C45.5,45,45.4,44.6,45.2,44.5z"/>
			<path fill-rule="evenodd" clip-rule="evenodd" fill="#010101" d="M45.9,45c0.1,0.1-0.1,0.3-0.3,0.3C45.6,45.2,45.8,45.1,45.9,45z
				"/>
			<path fill-rule="evenodd" clip-rule="evenodd" fill="#010101" d="M47.4,50.2c-0.1,0.1-0.2,0.3-0.2,0.5c0.1-0.6,0.3-1.1,0.2-1.8
				c0.2,0.4,0.2,1.1,0.4,1.7c0,0.1,0,0,0.1,0c0.2,1.3,0.8,2.2,1,3.5c-0.2-0.3-0.4-0.5-0.4-0.9c0,0-0.1,0.1-0.1,0.1
				c-0.2-0.1,0-0.4-0.1-0.5c-0.1,0-0.1,0.1-0.1,0.2c-0.2-0.1,0.1-0.4-0.1-0.5c-0.1,0.1,0,0.2-0.1,0.3c-0.1-0.1,0-0.4,0-0.5
				c-0.1-0.1-0.1,0.1-0.1,0.2c-0.1-0.2,0.1-0.4,0-0.6c-0.1,0,0,0.3-0.2,0.3c0-0.3,0.1-0.4,0-0.6c-0.1,0.1-0.1,0.2-0.1,0.3
				c-0.1-0.2,0-0.4,0-0.6c0,0-0.1,0.1-0.1,0.1c-0.1-0.1,0.1-0.2,0-0.3c-0.1,0.1-0.1-0.1-0.1-0.4c-0.1,0.1-0.1,0.2-0.2,0.3
				C47.2,50.6,47.4,50.4,47.4,50.2z"/>
			<path fill-rule="evenodd" clip-rule="evenodd" fill="#010101" d="M45.8,51.3c0.2,0.4,0.4,1.3,0.3,1.8c-0.1-0.1,0-0.3,0-0.4
				c0-0.1-0.1,0-0.1,0c-0.1-0.1,0-0.3,0-0.4c-0.1,0-0.1,0.1-0.1,0.1c-0.1-0.1,0-0.2,0-0.3c0,0,0,0.1-0.1,0.1
				C45.8,51.8,45.9,51.6,45.8,51.3z"/>
			<path fill-rule="evenodd" clip-rule="evenodd" fill="#010101" d="M47.8,55.3c0.1,0.1,0.1,0.3,0.1,0.4
				C47.7,55.7,47.8,55.5,47.8,55.3z"/>
			<path fill-rule="evenodd" clip-rule="evenodd" fill="#010101" d="M44.2,55.4c0,0,0.1,0,0.1,0c0.1,0.4,0,1,0.3,1.1
				c-0.1,0.1-0.1,0.3-0.1,0.5c-0.2,0-0.1,0.1-0.2,0.2c-0.1-0.2,0.1-0.4,0-0.6c-0.1,0-0.1,0.1-0.1,0.2c-0.1-0.2,0.1-0.3,0-0.6
				c0-0.1-0.1,0-0.1,0c-0.1-0.1,0.1-0.3,0-0.5c-0.1,0.1-0.1,0.3-0.2,0.3C43.9,55.9,44.2,55.7,44.2,55.4z"/>
			<path fill-rule="evenodd" clip-rule="evenodd" fill="#010101" d="M48.1,55.4c0.6,1.1,1.3,2.1,1.3,3.6c-0.3-0.6-0.6-1.3-0.8-2.1
				c-0.1,0,0.1,0.4-0.1,0.4c0-0.3,0-0.7-0.1-0.9c-0.1,0.1,0.1,0.4,0,0.5c-0.2-0.4-0.1-0.9-0.3-1.3c-0.1,0.1,0,0.4,0,0.6
				c-0.2-0.1-0.1-0.6-0.2-0.8C48.2,55.7,48.1,55.6,48.1,55.4z"/>
			<path fill-rule="evenodd" clip-rule="evenodd" fill="#010101" d="M44.4,57.2c0.1,0.1,0,0.5-0.1,0.6
				C44.3,57.5,44.4,57.4,44.4,57.2z"/>
			<path fill-rule="evenodd" clip-rule="evenodd" fill="#010101" d="M44.6,57.8c0.2,0,0,0.2,0,0.3C44.4,58,44.6,57.9,44.6,57.8z"/>
			<path fill-rule="evenodd" clip-rule="evenodd" fill="#010101" d="M44.6,58.2c0.2,0,0,0.2,0.1,0.3C44.6,58.5,44.6,58.3,44.6,58.2z
				"/>
			<path fill-rule="evenodd" clip-rule="evenodd" fill="#010101" d="M43.9,61.2C43.8,61,44,60.8,44,60.7c0-0.1,0,0-0.1,0
				c0-0.1,0.1-0.2,0-0.3c-0.1,0-0.1,0.2-0.2,0.3c-0.1-0.2,0.1-0.4,0.2-0.5c0.4,0,0.2,0.5,0.2,0.8C44,60.9,44,61.1,43.9,61.2z"/>
			<path fill-rule="evenodd" clip-rule="evenodd" fill="#010101" d="M47.4,61.5c0.1,0.1,0.1,0.5-0.1,0.6
				C47.3,61.8,47.4,61.7,47.4,61.5z"/>
			<path fill-rule="evenodd" clip-rule="evenodd" fill="#010101" d="M46.3,72.9c0.1,0,0-0.2,0.1-0.2c0.2,0.2-0.1,0.5-0.1,0.8
				C46.1,73.3,46.3,73.1,46.3,72.9c-0.1,0.1,0,0.3-0.2,0.3c0-0.3,0.1-0.4,0.1-0.6c-0.1,0.1-0.1,0.2-0.1,0.3c0-0.4,0-0.8-0.2-1.1
				c-0.1,0-0.1,0.1-0.1,0.2c-0.1-0.2,0.1-0.4,0.1-0.6c-0.2,0.1-0.1,0.4-0.3,0.5c-0.1-0.2,0.2-0.5,0.2-0.8c-0.1,0.1-0.1,0.4-0.3,0.5
				c0-0.3,0.3-0.5,0.2-0.8c-0.2,0.1-0.1,0.5-0.3,0.5c0-0.3,0.3-0.6,0.2-0.9c-0.1,0.2-0.1,0.4-0.2,0.5c-0.1-0.3,0.3-0.5,0.2-0.9
				c-0.1,0.1-0.1,0.2-0.2,0.3c-0.1-0.2,0.1-0.4,0.1-0.5c0-0.4-0.2-1.1-0.3-1.6c-0.1-0.9-0.4-1.8-0.5-2.8c-0.1-1.1-0.4-2.3-0.3-3.4
				c0.3,0.9,0.5,1.9,0.6,3.1c0.1,1,0.4,2,0.6,3.2c0.1,0.7,0.2,1.5,0.4,2.3C46.2,71.3,46.6,72,46.3,72.9z"/>
			<path fill-rule="evenodd" clip-rule="evenodd" fill="#010101" d="M50.2,62.7c0,0.3-0.1,0.5,0.1,0.6c0.2,1,0.3,2.1,0.3,3.2
				c-0.1,0,0-0.2-0.1-0.2c-0.1,0,0,0.2-0.2,0.2c0.2-0.4,0.1-0.7,0-1.1c-0.1,0,0,0.2-0.1,0.2c0.2-0.8-0.3-1.8-0.3-2.4
				C50,63.1,50,62.8,50.2,62.7z"/>
			<path fill-rule="evenodd" clip-rule="evenodd" fill="#010101" d="M51.4,63.5c0.1,0.2,0,0.4,0,0.5C51.3,63.8,51.3,63.6,51.4,63.5z
				"/>
			<path fill-rule="evenodd" clip-rule="evenodd" fill="#010101" d="M47.9,63.6c0.1,0,0,0.3-0.1,0.3C47.8,63.8,47.9,63.7,47.9,63.6z
				"/>
			<path fill-rule="evenodd" clip-rule="evenodd" fill="#010101" d="M48,64.7c-0.1-0.1,0,0.2-0.2,0.2c0.2-0.4,0-0.6,0.2-1
				c0.1,0.1,0.2,0.2,0.2,0.4c0.2,1.2,0.8,3.1,0.6,4.6c-0.1-0.4-0.1-1.2-0.3-1.4c-0.1-0.1,0-0.3,0-0.5c0,0,0,0.1-0.1,0.1
				c0-0.2,0.1-0.2,0.1-0.4c-0.1,0.1-0.1,0.2-0.1,0.3c-0.1-0.2,0.1-0.4,0-0.6c-0.1,0,0,0.2-0.2,0.2c0-0.2,0.2-0.4,0.1-0.6
				c-0.1,0-0.1,0.1-0.1,0.2c-0.1-0.2,0.2-0.4,0-0.6c-0.1,0-0.1,0.2-0.1,0.2c-0.2-0.1,0.1-0.3,0.1-0.5c-0.1,0-0.1,0.2-0.2,0.2
				c-0.1-0.2,0.1-0.3,0.1-0.5c0-0.1-0.1,0-0.1,0.1C47.8,65,48,64.8,48,64.7z"/>
			<path fill-rule="evenodd" clip-rule="evenodd" fill="#010101" d="M51.4,64c0.1-0.1,0.1,0.2,0,0.2c0.1,0.1,0.1,0.2,0.2,0.3
				c0.1,2,0.3,4.3,0.5,6.3c0.1,1.5,0.4,2.8,0.5,4.3c0,0.2,0.1,0.5-0.1,0.7c-0.1,0,0-0.3-0.1-0.4c-0.1,0.1,0,0.2-0.1,0.3
				c-0.1-0.2,0.2-0.5,0-0.7c-0.1,0-0.1,0.1-0.1,0.2c-0.2-0.2,0.1-0.5,0-0.7c-0.1,0-0.1,0.2-0.2,0.3c-0.1-0.2,0.2-0.5,0.1-0.8
				c-0.1,0,0,0.2-0.1,0.2c-0.1-0.2,0.1-0.4,0-0.6c-0.1,0,0,0.2-0.2,0.2c0.1-0.5,0.1-1.2-0.1-1.6c-0.1-2.2-0.4-4.4-0.4-6.7
				c0-0.2-0.1,0-0.1-0.1C51.4,64.8,51.3,64.5,51.4,64z"/>
			<path fill-rule="evenodd" clip-rule="evenodd" fill="#010101" d="M50.2,64.9c0.2,0,0,0.3,0,0.4C50,65.2,50.2,65.1,50.2,64.9z"/>
			<path fill-rule="evenodd" clip-rule="evenodd" fill="#010101" d="M47,65.9c0.2,0,0,0.3,0,0.4C46.9,66.2,47,66,47,65.9z"/>
			<path fill-rule="evenodd" clip-rule="evenodd" fill="#010101" d="M50.5,66.5c0.1,0,0,0.2,0,0.3c0.1,0,0.1-0.1,0.1-0.2
				c0.1,1.8,0.2,4.3,0.1,6.1c-0.1,0,0-0.2-0.1-0.2c-0.1,0,0,0.1-0.1,0.2c0.1-1.1-0.1-2.5-0.1-3.4c0,0-0.1,0.1-0.1,0.1
				c-0.2-0.1,0.1-0.4-0.1-0.3c0-0.2,0.2-0.4,0.2-0.6c-0.1,0-0.1,0.2-0.1,0.2C50.4,68,50.3,67.2,50.5,66.5z"/>
			<path fill-rule="evenodd" clip-rule="evenodd" fill="#010101" d="M44,67.5c0.1,0,0.1,0.4,0,0.4C43.9,67.7,44,67.6,44,67.5z"/>
			<path fill-rule="evenodd" clip-rule="evenodd" fill="#010101" d="M50.3,67.7c0.1,0.1-0.1,0.3-0.1,0.3
				C50.2,67.9,50.3,67.7,50.3,67.7z"/>
			<path fill-rule="evenodd" clip-rule="evenodd" fill="#010101" d="M44.1,67.8c0.2,0,0.1,0.2,0,0.3C44,68.1,44.1,67.9,44.1,67.8z"
				/>
			<path fill-rule="evenodd" clip-rule="evenodd" fill="#010101" d="M44.3,68c0.3,0.9,0.5,2,0.7,3.1c0.2,1.1,0.3,2.2,0.5,3.3
				c-0.1,0.3,0,0.5,0,0.8c-0.3-1.4-0.6-2.9-0.8-4.3c0-0.1-0.1,0.1-0.1,0.2c-0.1-0.1,0-0.3,0-0.5C44.6,69.8,44.1,68.8,44.3,68z"/>
			<path fill-rule="evenodd" clip-rule="evenodd" fill="#010101" d="M53.6,68c0.1,0,0.1,0.4,0,0.4C53.6,68.3,53.6,68.1,53.6,68z"/>
			<path fill-rule="evenodd" clip-rule="evenodd" fill="#010101" d="M49.7,68.4c0,0.1,0.1,0.5,0.1,0.7c0,0,0.1-0.1,0.1-0.1
				c0.1,0.1-0.1,0.3-0.1,0.5c0,0.1,0.1,0,0.1,0c-0.1,0.3,0.1,0.6,0,0.9C49.6,69.9,49.7,69.1,49.7,68.4z"/>
			<path fill-rule="evenodd" clip-rule="evenodd" fill="#010101" d="M53.7,70c0.3,0.2,0.3,0.8,0.2,1.1c-0.2-0.1,0-0.2,0-0.4
				c0-0.1-0.1,0-0.1,0C53.7,70.4,53.7,70.4,53.7,70z"/>
			<path fill-rule="evenodd" clip-rule="evenodd" fill="#010101" d="M44.3,70.2c0.1,0.1,0,0.2,0,0.3C44.1,70.4,44.3,70.2,44.3,70.2z
				"/>
			<path fill-rule="evenodd" clip-rule="evenodd" fill="#010101" d="M50,70.3c0.1,0,0.1,0.3,0,0.3C50,70.5,50,70.4,50,70.3z"/>
			<path fill-rule="evenodd" clip-rule="evenodd" fill="#010101" d="M44.4,70.5c0.2,0,0,0.3,0,0.3C44.3,70.8,44.4,70.6,44.4,70.5z"
				/>
			<path fill-rule="evenodd" clip-rule="evenodd" fill="#010101" d="M48.7,70.9c0.1,0,0,0.1,0.1,0.1c0.3,2.5,0.5,5.6,0.3,8.3
				c0,0.1-0.1-0.4-0.1-0.6c-0.1,0-0.1,0.1-0.1,0.2c-0.2-0.1,0.1-0.4,0-0.6c0,0-0.1,0.1-0.1,0.1c-0.1-0.2,0.1-0.4,0.1-0.7
				c0,0-0.1,0.1-0.1,0.1c-0.1-0.2,0.2-0.4,0.1-0.6c-0.1,0,0,0.3-0.2,0.3c0.1-0.3,0.2-0.5,0.2-0.9c-0.1,0.1-0.1,0.2-0.2,0.3
				c-0.1-0.2,0.1-0.3,0.1-0.5c0-0.1,0,0-0.1,0c0-0.1,0.1-0.3,0.1-0.5c0-0.1-0.1,0.1-0.1,0.1c-0.1-0.1,0.1-0.3,0.1-0.5
				c0-0.1-0.1,0.1-0.1,0c0-0.2,0.2-0.3,0.1-0.6c-0.1,0.1-0.1,0.3-0.2,0.3c-0.1-0.2,0.2-0.4,0.2-0.7c-0.1,0-0.1,0.1-0.2,0.2
				c0.1-0.5,0.1-1.1,0.1-1.8c-0.1,0-0.1,0-0.1,0.1c-0.1-0.2,0.1-0.5,0-0.8c-0.1,0-0.1,0.1-0.1,0.2c-0.1-0.2,0.1-0.4,0-0.6
				c-0.1,0-0.1,0.1-0.1,0.2C48.6,71.5,48.7,71.1,48.7,70.9z"/>
			<path fill-rule="evenodd" clip-rule="evenodd" fill="#010101" d="M55.7,71.5c0,0.3-0.2,0.5-0.3,0.8C55.3,72,55.5,71.7,55.7,71.5z
				"/>
			<path fill-rule="evenodd" clip-rule="evenodd" fill="#010101" d="M56,71.9c0.1,0.2-0.1,0.5-0.2,0.6C55.7,72.3,55.9,72,56,71.9z"
				/>
			<path fill-rule="evenodd" clip-rule="evenodd" fill="#010101" d="M44.5,72.1c0.1,0,0.1,0.3,0,0.3C44.4,72.4,44.5,72.2,44.5,72.1z
				"/>
			<path fill-rule="evenodd" clip-rule="evenodd" fill="#010101" d="M55.2,72.2c0.1-0.1,0.1,0.2,0,0.2
				C55.2,72.4,55.2,72.3,55.2,72.2z"/>
			<path fill-rule="evenodd" clip-rule="evenodd" fill="#010101" d="M44.6,72.5c0.1,0,0.1,0.2,0.1,0.2
				C44.5,72.7,44.6,72.5,44.6,72.5z"/>
			<path fill-rule="evenodd" clip-rule="evenodd" fill="#010101" d="M55.2,72.7c0.1,0,0,0.2,0,0.2C55.2,72.9,55.2,72.7,55.2,72.7z"
				/>
			<path fill-rule="evenodd" clip-rule="evenodd" fill="#010101" d="M55.3,73c0.1,0.3,0.3,1.2,0.1,1.6C55.1,74.3,55.2,73.4,55.3,73z
				"/>
			<path fill-rule="evenodd" clip-rule="evenodd" fill="#010101" d="M46.6,73.1c0.1,0.2,0,0.5-0.1,0.7
				C46.4,73.5,46.5,73.3,46.6,73.1z"/>
			<path fill-rule="evenodd" clip-rule="evenodd" fill="#010101" d="M46.6,73.6c0.2,0.1,0,0.5,0,0.6C46.5,74.1,46.6,73.8,46.6,73.6z
				"/>
			<path fill-rule="evenodd" clip-rule="evenodd" fill="#010101" d="M43.6,75.8c0.1,0.1-0.1,0.2-0.2,0.4
				C43.3,76,43.5,75.9,43.6,75.8z"/>
			<path fill-rule="evenodd" clip-rule="evenodd" fill="#010101" d="M43.9,75.9c0,0.1-0.1,0.2-0.2,0.3C43.7,76,43.7,75.9,43.9,75.9z
				"/>
			<path fill-rule="evenodd" clip-rule="evenodd" fill="#010101" d="M43.8,76.2c0.1,0.2-0.1,0.3-0.2,0.5
				C43.5,76.5,43.7,76.3,43.8,76.2z"/>
			<path fill-rule="evenodd" clip-rule="evenodd" fill="#010101" d="M51.2,77.2c0.1,0,0.1,0.3,0,0.3C51.2,77.3,51.2,77.3,51.2,77.2z
				"/>
			<path fill-rule="evenodd" clip-rule="evenodd" fill="#010101" d="M46.8,78.5c0,0,0.1,0,0.1,0c0,0.1,0,0.2-0.2,0.2
				C46.8,78.6,46.8,78.6,46.8,78.5z"/>
			<path fill-rule="evenodd" clip-rule="evenodd" fill="#010101" d="M46.8,78.8c0,0.1-0.1,0.2-0.2,0.2
				C46.7,78.9,46.7,78.8,46.8,78.8z"/>
			<path fill-rule="evenodd" clip-rule="evenodd" fill="#010101" d="M48.5,80.5c0,0.1-0.1,0.2-0.1,0.2
				C48.3,80.7,48.4,80.5,48.5,80.5z"/>
			<path fill-rule="evenodd" clip-rule="evenodd" fill="#010101" d="M54.9,81.3c0,0.3-0.2,0.5-0.3,0.8
				C54.6,81.8,54.9,81.5,54.9,81.3z"/>
			<path fill-rule="evenodd" clip-rule="evenodd" fill="#010101" d="M48.5,81.4c0.2,0-0.1,0.2-0.1,0.3
				C48.3,81.6,48.5,81.5,48.5,81.4z"/>
			<path fill-rule="evenodd" clip-rule="evenodd" fill="#010101" d="M46.5,76.7c-0.1-0.4,0.5-0.6,0.4-1c-0.2,0.1-0.2,0.5-0.4,0.5
				c0.6-1,0.4-2.7,0.5-4.4c-0.1,0,0,0.2-0.2,0.2c0-0.1,0.1-0.3,0.1-0.4c-0.1-0.1,0,0.2-0.2,0.1c0-0.2,0.1-0.5,0.2-0.6
				c-0.1-0.1-0.1,0.2-0.2,0.2c0-0.2,0.2-0.4,0.2-0.6c-0.1-0.1-0.1,0.3-0.3,0.3c0.1-0.3,0.3-0.4,0.3-0.8c-0.1,0.1-0.2,0.3-0.3,0.5
				c-0.1-0.4,0.3-0.5,0.3-1c-0.1,0.1-0.1,0.2-0.2,0.3c-0.1-0.2,0.3-0.4,0.2-0.8c-0.1,0.2-0.2,0.3-0.3,0.5c0-0.3,0.4-0.5,0.3-0.9
				c-0.1,0.1-0.1,0.4-0.3,0.5c0.1-0.3,0.3-0.4,0.3-0.8c0-0.1-0.1,0.3-0.2,0.2c0-0.3,0.2-0.3,0.2-0.6c0-0.1-0.1,0-0.1,0
				c-0.1-0.2,0.1-0.4,0.1-0.6c0-0.1-0.1,0.1-0.1,0.1c-0.1-0.3,0.3-0.5,0.2-1c-0.1,0.1-0.1,0.3-0.2,0.3c0.1-0.2,0.2-0.4,0.3-0.6
				c0.3,3,0.1,6.8,0,9.8c0,0-0.1,0-0.2,0c0,0.1,0.1,0.2,0,0.3c0,0.1,0.1,0,0.1,0c0,0.1,0,0.3-0.1,0.3c0.1-0.3-0.1-0.3,0-0.5
				C46.7,76.2,46.6,76.5,46.5,76.7z"/>
			<path fill-rule="evenodd" clip-rule="evenodd" fill="#010101" d="M54.5,21.5c0.1-0.2,0.2-0.2,0.4-0.3
				C54.8,21.3,54.7,21.5,54.5,21.5z"/>
			<path fill-rule="evenodd" clip-rule="evenodd" fill="#010101" d="M53,23.4c0,0.1-0.2,0.4-0.3,0.5C52.6,23.8,52.9,23.6,53,23.4z"
				/>
			<path fill-rule="evenodd" clip-rule="evenodd" fill="#010101" d="M42.7,23.9c-0.4,1-0.6,2.4-0.4,3.9C41.9,26.5,42,24.8,42.7,23.9
				z"/>
			<path fill-rule="evenodd" clip-rule="evenodd" fill="#010101" d="M46.3,25.4c0.1,0.1-0.2,0.3-0.2,0.5
				C46.1,25.7,46.2,25.5,46.3,25.4z"/>
			<path fill-rule="evenodd" clip-rule="evenodd" fill="#010101" d="M42,28.1c-0.1,0.3,0,1.1,0,1.5c-0.1,0-0.1-0.1-0.2-0.2
				c-0.2-0.6,0.1-1.6,0-2.3C42,27.3,42,27.8,42,28c-0.1,0,0-0.1,0-0.2C41.9,27.9,42.1,28.1,42,28.1C42,28.2,42,28.1,42,28.1z"/>
			<path fill-rule="evenodd" clip-rule="evenodd" fill="#010101" d="M51.9,29.5c0.2,0.3,0.2,0.7,0.4,1C52,30.4,52,29.9,51.9,29.5z"
				/>
			<path fill-rule="evenodd" clip-rule="evenodd" fill="#010101" d="M50.6,55.8c0.1,0.1-0.2,0.3-0.2,0.4
				C50.3,56,50.6,55.9,50.6,55.8z"/>
			<path fill-rule="evenodd" clip-rule="evenodd" fill="#010101" d="M49,65.9c0-0.1,0.1,0.2,0.1,0.3c0.1,0,0-0.1,0.2-0.1
				c0,0.1-0.1,0.3-0.1,0.5c0.1-0.1,0.1-0.3,0.2-0.3c0.1,0.1-0.1,0.3-0.1,0.5c0.1,0,0-0.1,0.2-0.1c0,0.2-0.1,0.3-0.2,0.4
				c-0.1,0,0-0.2,0-0.2c-0.1,0-0.1,0.1-0.1,0.2C49.1,66.6,49,66.2,49,65.9z"/>
			<path fill-rule="evenodd" clip-rule="evenodd" fill="#010101" d="M50,80.9c-0.1,0.1-0.2,0.2-0.2,0.3C49.7,81,50,80.9,50,80.6
				c-0.1,0.1-0.2,0.2-0.2,0.3c-0.1-0.2,0.2-0.3,0.2-0.6c0-0.1-0.1,0-0.1,0c-0.1-0.1,0.2-0.3,0-0.4c-0.1,0.1-0.1,0.2-0.2,0.3
				c-0.1-0.2,0.2-0.3,0.2-0.5c-0.1-0.1-0.1,0.1-0.2,0.2c0.1-0.2,0.1-0.8,0.2-1.1c0.1,0.6,0.2,1.2,0.2,1.9c0,0,0.1,0,0.1,0
				c-0.1,0.1,0,0.4-0.1,0.6c-0.1,0-0.1-0.1-0.1-0.1c-0.2,0.1-0.3,0.3-0.5,0.4C49.7,81.4,50,81.3,50,80.9z"/>
			<path fill-rule="evenodd" clip-rule="evenodd" fill="#010101" d="M51.3,80c0.1,0.1-0.1,0.3-0.1,0.3C51.1,80.3,51.3,80.1,51.3,80z
				"/>
			<path fill-rule="evenodd" clip-rule="evenodd" fill="#010101" d="M55,80.8c0,0.3-0.2,0.6-0.4,0.8C54.6,81.4,54.9,81.1,55,80.8z"
				/>
			<path fill-rule="evenodd" clip-rule="evenodd" fill="#010101" d="M41.5,27.3c0-0.1-0.1,0.1-0.1,0.1c-0.1-0.2,0.1-0.4,0.2-0.5
				c-0.2-0.1,0.1-0.4,0.1-0.5c-0.1-0.1,0,0.1-0.2,0.1c0.1-0.2,0.2-0.4,0.3-0.6c-0.1,0,0-0.3,0.1-0.3c-0.1,1-0.4,2-0.6,3
				c-0.1-0.1-0.1,0.3-0.2,0.4c-0.1-0.5,0.2-0.9,0.2-1.3c-0.1,0-0.1,0.2-0.2,0.2C41.2,27.7,41.4,27.5,41.5,27.3z"/>
			<path fill-rule="evenodd" clip-rule="evenodd" fill="#010101" d="M47.2,61.4c0.1-0.1,0.1-0.2,0.1-0.2c0.1,0.3-0.1,0.8-0.1,1.1
				C47.1,62.2,47.1,62,47,62c-0.4-0.9-0.5-1.9-0.8-2.8c-0.3-1.1-0.6-2.2-0.8-3.2c-0.1-0.4-0.2-1-0.1-1.5c0.3,1.3,0.6,2.7,1,4
				c0.2-0.3,0,0.6,0.2,0.4c0,0.5,0.3,0.9,0.2,1.3c0.2-0.1,0.1-0.3,0.2-0.4c0.1,0.2-0.2,0.5-0.1,0.8c0.1-0.2,0.1-0.4,0.2-0.5
				c0.2,0.1-0.2,0.5-0.1,0.7c0.1-0.1,0.1-0.5,0.3-0.5c-0.1,0.4-0.3,0.8-0.2,1.2c0.1-0.3,0.1-0.6,0.2-0.8
				C47.4,60.6,47.2,61,47.2,61.4z"/>
			<path fill-rule="evenodd" clip-rule="evenodd" fill="#010101" d="M43.3,45c0.1,0,0,0.1,0.1,0.1c0,0.2-0.2,0.3-0.3,0.2
				C43.1,45.2,43.3,45.1,43.3,45z"/>
			<path fill-rule="evenodd" clip-rule="evenodd" fill="#010101" d="M43.5,45.2c0,0.3,0.4,0.1,0.3,0.4c-0.1-0.1-0.3-0.1-0.4-0.2
				C43.4,45.3,43.4,45.3,43.5,45.2z"/>
			<path fill-rule="evenodd" clip-rule="evenodd" fill="#010101" d="M44.8,45.8c0.1,0,0.1,0,0.1,0c0,0.1-0.1,0.1-0.1,0.2
				C44.7,46,44.7,45.9,44.8,45.8z"/>
			<path fill-rule="evenodd" clip-rule="evenodd" fill="#010101" d="M58.4,83.3c0.1,0.3,0,0.7-0.3,0.7
				C58.2,83.8,58.3,83.6,58.4,83.3z"/>
			<path fill-rule="evenodd" clip-rule="evenodd" fill="#010101" d="M55.2,28.6c-0.1-0.2-0.1-0.4-0.4-0.4
				C54.8,28.5,54.9,28.6,55.2,28.6z"/>
			<path fill-rule="evenodd" clip-rule="evenodd" fill="#010101" d="M58,21.8c0,0.2,0.2,0.2,0.3,0.2C58.3,21.8,58.1,21.7,58,21.8z"
				/>
			<path fill-rule="evenodd" clip-rule="evenodd" fill="#010101" d="M56,22.4c0.3,0.1,0.8-0.1,0.8-0.3C56.5,21.9,56.1,22.1,56,22.4z
				"/>
			<path fill-rule="evenodd" clip-rule="evenodd" fill="#010101" d="M61.7,25.7c0,0.2,0.1,0.4,0.3,0.5c-0.3-1-0.7-1.7-1.3-2.5
				c-0.5-0.6-1.1-1.2-1.8-1.4c0,0,0,0,0,0C59.9,23.3,60.8,24.5,61.7,25.7z"/>
			<path fill-rule="evenodd" clip-rule="evenodd" fill="#010101" d="M55.2,23.1c0.1,0.1,0.3-0.1,0.3-0.2
				C55.3,22.8,55.3,22.9,55.2,23.1z"/>
			<path fill-rule="evenodd" clip-rule="evenodd" fill="#010101" d="M59.1,23.2c0.1-0.1,0-0.3-0.2-0.3
				C58.8,23.1,58.9,23.2,59.1,23.2z"/>
			<path fill-rule="evenodd" clip-rule="evenodd" fill="#010101" d="M54.8,23.4c0,0,0,0.1,0,0.1c0.1,0,0.2,0,0.2-0.2
				C54.9,23.4,54.9,23.4,54.8,23.4z"/>
			<path fill-rule="evenodd" clip-rule="evenodd" fill="#010101" d="M59.4,23.6c0.3,0.5,0.6,1,1,1.3C60.4,24.3,59.8,23.8,59.4,23.6z
				"/>
			<path fill-rule="evenodd" clip-rule="evenodd" fill="#010101" d="M54,24.3c-1,2,0.6,4,2.3,4.6c0.4-0.1,0.5,0.2,0.8,0.1
				c-0.1-0.3-0.4-0.2-0.6-0.3c-0.2-0.1-0.5-0.4-0.7-0.6c-0.7-0.9-1.8-2.3-1.5-3.6C54.2,24.3,54.1,24.2,54,24.3z"/>
			<path fill-rule="evenodd" clip-rule="evenodd" fill="#010101" d="M54.4,23.9c-0.2-0.2-0.4,0.2-0.3,0.3
				C54.3,24.2,54.4,24.1,54.4,23.9z"/>
			<path fill-rule="evenodd" clip-rule="evenodd" fill="#010101" d="M61.3,29.1c-0.6,0.3-1.4-0.1-2.1,0.1c0,0.1,0.2,0.2,0.3,0.2
				c0.4,0.1,1.2,0.1,1.6,0.1c0.7,0.4,0.9-0.3,1.1-0.9c0.2-0.6,0.6-1,0.5-1.5c-0.1,0.2-0.1,0.6-0.4,0.7c-0.1-0.5-0.1-1-0.3-1.3
				c-0.1,0.6,0.3,1.3-0.2,1.6c0.1,0.2,0.1,0.4-0.1,0.5c-0.1-1.4-0.4-2.6-1.1-3.4C60.9,26.4,61.7,27.8,61.3,29.1z"/>
			<path fill-rule="evenodd" clip-rule="evenodd" fill="#010101" d="M57.8,29.2c0-0.1-0.2-0.2-0.3-0.2
				C57.5,29.1,57.6,29.2,57.8,29.2z"/>
			<path fill-rule="evenodd" clip-rule="evenodd" fill="#010101" d="M58.7,29.2c0.1,0.1,0.4,0.2,0.3,0
				C58.9,29.2,58.7,29.1,58.7,29.2z"/>
			<path fill-rule="evenodd" clip-rule="evenodd" fill="#010101" d="M60.7,26.8c0.1-0.2-0.1-0.3-0.2-0.4
				C60.5,26.6,60.6,26.8,60.7,26.8z"/>
			<path fill-rule="evenodd" clip-rule="evenodd" fill="#010101" d="M61,27.4c0.1-0.1,0-0.3-0.2-0.3C60.8,27.2,60.8,27.3,61,27.4z"
				/>
			<path fill-rule="evenodd" clip-rule="evenodd" fill="#010101" d="M61.1,29.1c0.4-0.3,0.3-1.1,0-1.4C61.2,28.2,61,28.8,61.1,29.1z
				"/>
		</g>
		<path fill="#010101" d="M30.7,86.9L29,83.4V45.3h3.4v38.2L30.7,86.9z M29.5,83.3l1.2,2.5l1.2-2.4V45.8h-2.4V83.3z"/>
		<path fill="#010101" d="M59.9,63.5l-0.4-0.2c-1.4-0.8-8.7-4.9-11.9-11.6c-3.1-6.5-2.1-15.9-1.9-17.7l0.1-0.7l0.7,0.1
			c0.5,0,1.5,0.1,2.7,0.1c1.7,0,3.3-0.1,4.6-0.3c2.2-0.4,3.2-1.5,3.4-2l0.3-0.4l5.4,0.4l0.2,0.4c0.3,0.4,1.2,1.9,2.9,2.6
			c1.7,0.7,4.3,0.9,5,1l0.6,0l0.1,0.6c0.3,1.5,1.9,9.5-0.5,14.2l0,0c-4.8,8.7-10.1,12.7-11.1,13.4L59.9,63.5z M47.2,34.9
			C47,37.7,46.4,45.5,49,51c2.7,5.7,8.7,9.5,10.7,10.6c1.5-1.2,6-5,10.2-12.5c1.9-3.8,0.9-10.2,0.5-12.5c-1.3-0.1-3.4-0.4-5-1.1
			c-1.8-0.8-2.9-2.1-3.5-2.9l-3.7-0.3c-0.6,0.7-1.9,1.9-4.2,2.3c-1.4,0.2-3,0.4-4.8,0.4C48.5,34.9,47.8,34.9,47.2,34.9z"/>
	</g>
</g>
</svg>
