<?xml version="1.0" encoding="utf-8"?>
<!-- Generator: Adobe Illustrator 18.1.1, SVG Export Plug-In . SVG Version: 6.00 Build 0)  -->
<!DOCTYPE svg PUBLIC "-//W3C//DTD SVG 1.1//EN" "http://www.w3.org/Graphics/SVG/1.1/DTD/svg11.dtd">
<svg version="1.1" xmlns="http://www.w3.org/2000/svg" xmlns:xlink="http://www.w3.org/1999/xlink" x="0px" y="0px"
	 viewBox="0 0 100 100" enable-background="new 0 0 100 100" xml:space="preserve">
	 
<g id="AREA_1">
	<g>
		<g>
			<path fill-rule="evenodd" clip-rule="evenodd" d="M12.2,16.9c0,0,0.1,0,0.1,0.1c0.3,0.3,0.3,0.8,0,1.1
				C11.9,17.8,12.1,17.4,12.2,16.9z"/>
			<path fill-rule="evenodd" clip-rule="evenodd" d="M12.2,18.7c0.6,0.7-0.8,1.6-1.3,1C11.3,19.2,11.8,19.3,12.2,18.7z"/>
			<path fill-rule="evenodd" clip-rule="evenodd" d="M11.1,22.1c-0.4,0.5-2.2-0.7-2.8-1.1c-0.4-0.3-0.6-0.8-0.7-1
				c0-0.1,0.1-0.1,0.1-0.1C8.5,20.5,10.3,21.2,11.1,22.1z"/>
			<path fill-rule="evenodd" clip-rule="evenodd" d="M12.8,23.4c-0.5,0.3-1.1-0.7-1.1-1.1C12.3,22.4,12.6,23,12.8,23.4z"/>
			<path fill-rule="evenodd" clip-rule="evenodd" d="M18,27.6c-1.4-0.4-2.2-1.7-3.3-2.5c-0.5-0.3-1.3-0.5-1.5-1
				c0.3-0.3,0.9-0.1,1.2,0.1C15.9,24.9,17.1,26.5,18,27.6z"/>
			<path fill-rule="evenodd" clip-rule="evenodd" d="M88.6,69C88.6,69,88.6,69.1,88.6,69c0.3,0.4,0.4,1.1,0.1,1.5
				C88.3,70.1,88.3,69.6,88.6,69z"/>
			<path fill-rule="evenodd" clip-rule="evenodd" d="M86.7,71.9c0.2,0.2,0.4,0.4,0.2,0.7C86.7,72.4,86.6,72.2,86.7,71.9z"/>
			<path fill-rule="evenodd" clip-rule="evenodd" d="M83.8,71.9c-0.4,0.3-0.7-0.1-1.1-0.2c-0.7-0.1-1.4-0.1-2.1-0.2
				c-1.1-0.2-2.4-0.4-3.4-1.2c0.6,0.1,1,0.3,1.7,0.5c1.2,0.4,2.6,0.2,3.8,0.4C83,71.3,83.6,71.4,83.8,71.9z"/>
			<path fill-rule="evenodd" clip-rule="evenodd" d="M84.4,73.6c0.5,0.5-0.1,1.7-0.7,1.3C84.2,74.6,83.8,73.8,84.4,73.6z"/>
			<path fill-rule="evenodd" clip-rule="evenodd" d="M97.5,71.4c0-0.5,0-1.2-0.2-1.6c-0.5-1.6-1.9-3.1-3.9-4c-1.2-0.5-2.7-1.1-3.7-1
				c-0.7,0.1-1.4,0.9-2.1,1.2c-0.9,0.4-2.1,0.3-3.3-0.1c-1.2-0.3-3-0.9-4.7-1.8c-1.3-0.6-2.7-1.3-3.8-2c-1.3-0.8-3.1-1.6-4.3-2.5
				c-0.3-0.2-0.5-0.5-0.7-0.7c-0.4-0.3-0.8-0.5-1.2-0.7c0,0.3-0.1,0.6-0.2,0.8c0.3,0.2,0.5,0.3,0.8,0.5c0.2,0.2,0.4,0.4,0.6,0.6
				c1,0.8,2.6,1.4,3.6,1.9c1.5,0.9,3.2,2,4.8,2.7c1.6,0.8,2.9,1.2,4.6,1.8c1.6,0.5,3.5,0.6,4.6-0.1c0.8-0.5,1.2-1,2.2-0.9
				c0.8,0.1,2.1,0.6,3,1.2c0.6,0.4,1.3,0.8,1.7,1.2c0.7,0.7,1.4,2.6,1.2,3.6c-0.1,0.3-0.3,0.7-0.4,1c-0.3,1-0.1,1.9-0.7,2.9
				c-0.3,0.5-0.8,1.1-1.3,1.4c-0.2,0.1-0.5,0-0.8,0.1c-0.5,0-0.8,0.3-1.1,0.2c-0.4-0.1-1.1-0.7-1.3-1c-0.6-1,0.3-2.8-0.3-3.9
				c-0.4-0.7-1.3-1.1-2.3-1.7c-1.1-0.6-2.1-1.7-3.5-2.3c-0.3-0.1-0.6-0.1-1-0.2c-0.3-0.1-0.6-0.4-1-0.1c0.1,0.8,1,0.6,1.6,0.8
				c0.2,0.1,0.3,0.3,0.5,0.4c0.4,0.2,1,0.1,1.3,0.5c0.2,0.3-0.1,0.5,0.1,0.8c0.2,0.3,0.8,0.4,1.2,0.7c0.1,0.2,0,0.5,0,0.8
				c0.2,0.2,0-0.6,0.2-0.6c0.4,0.8,1.4,1.3,1.4,2.2c0,0.4,0,1.1-0.1,1.7c-0.1,0.6-0.2,1.4-0.4,1.8c-0.8,1.7-2.4,2.2-2.8,3.8
				c-0.2,0.8,1,1.7,0.6,2.4c-0.4,0.9-1.2,0.4-2.3,0c-0.5-0.2-1-0.4-1.4-0.6c-0.5-0.3-1-0.7-1.6-0.9c0.2-0.7,1.1-1,1.3-1.6
				c0.2-0.6-0.3-0.8-0.5-1.3c1.3-1.2,0.8-2.3,0.9-3.4c-0.9,0.2-0.4,1.2-0.6,1.7c-0.1,0.2-0.3,0.4-0.4,0.6c-0.1,0.1,0,0.3-0.1,0.6
				c0,0.2-0.2,0.4-0.2,0.6c0,0.3,0.2,0.6,0.1,0.8c-0.2,0.3-0.9,0.5-1.2,0.6c-0.4,0.2-0.5,0.5-0.9,0.7c-2.7-1.6-2.4-4.6-3.9-6.6
				c-1-1.2-2.3-2.2-2.6-3.8c0.8-0.1,1.1,1.3,2,1c0.2-0.2,0.2-0.8,0.2-1.1c-0.3-0.2-0.6-0.2-0.9-0.3c-0.3-1-1.1-1.3-2.2-2.1
				c-0.3-0.2-0.5-0.6-0.8-0.9c-0.3-0.2-0.6-0.4-0.8-0.6c-0.8-0.7-1.8-1.6-2.8-2.3c-0.2,0.4-0.5,0.7-0.6,1.1c0.4,0.3,0.7,0.5,1,0.9
				c-0.4-0.2-0.7-0.4-1.1-0.6c-0.1,0.5-0.2,1-0.3,1.6c2,1.3,3.8,2.7,5,4.2c0.4,0.6,0.7,1.4,1.2,2.1c0.6,0.7,1.3,1.4,1.8,2
				c0.8,1.1,0.8,2.5,1.4,3.7c0.5,0.9,1.1,1.5,2,2.4c0.7,0.7,2.1,2.1,3,2.5c0.6,0.3,1.3,0.1,2.1,0.3c0.8,0.2,1.7,0.8,2.3,0.9
				c1,0.1,2.3-0.9,2.6-2.2c0.2-0.9-0.3-1.4-0.2-2.2c0.7-0.2,1.4,0,2.1-0.1c0.5-0.1,1.2-0.4,1.9-0.6c2.7-0.8,5.7-3.7,5.7-7.2
				C97.7,72.5,97.5,72,97.5,71.4z"/>
			<path fill-rule="evenodd" clip-rule="evenodd" d="M28.2,35.1c-0.2-0.2-0.5-0.3-0.7-0.5c-0.4-0.3-0.7-0.7-1-1
				c-1.5-1.2-2.9-1.9-4.5-3c-0.4-0.2-0.7-0.5-1.1-0.8c-0.7-0.5-1.1-1.6-2.1-1.8c1,1.4,2.2,2.6,3.8,3.4c1.3,0.7,3.2,2.1,4.4,3.2
				c0.3,0.3,0.6,0.5,0.9,0.7c0.3,0.3,0.6,0.7,0.9,1c0-0.2,0.1-0.4,0.1-0.6C28.6,35.6,28.5,35.3,28.2,35.1z"/>
			<path fill-rule="evenodd" clip-rule="evenodd" d="M27.8,39.4c-0.2-0.2-0.3-0.5-0.6-0.7c-0.9-0.7-2-1.3-2.9-2
				c-0.3-0.2-0.5-0.5-0.7-0.6c-0.7-0.4-2.1-0.6-2.8-1c-0.3-0.1-0.5-0.3-0.7-0.5c-0.7-0.4-1.6-0.7-2.4-1.1c-0.8-0.4-1.6-1.1-2.4-1.5
				c-1.2-0.6-2.5-0.9-3.6-1.4c-1.1-0.5-2.4-0.5-3.3-1.6c0.5-0.7,1.5,0.6,2.1-0.1c-0.9-1.1-2.7-0.7-3.6-1.6c-0.4-0.4-0.5-1-1-1.4
				C4.8,25.3,4.2,25.1,4,24c0-0.2,0-0.5-0.1-0.8c-0.1-0.8,0.3-2.1,1.4-2.9c0.1-0.6,0.5-1.4,1-1.5c0.2,0.4,0.4,0.7,0.9,0.7
				c0-0.5-0.5-0.8-0.8-1.1C7.1,17,8,16.6,8.8,16.1c0.3,0,0.7,0.3,1,0.2c0.2-0.5-0.3-0.5-0.2-0.9c0.1-0.4,1.2-0.4,1.9,0
				c0.4,0.2,0.5,0.7,0.9,0.8c0.6-0.2,0.9-0.9,1.4-0.9c0.1,0,0.8,0.2,1,0.2c1.1,0.2,2.2,0.4,2.8,1.5c1.1,1.7-0.1,3.9,1.3,5.5
				c0.3,0.3,0.7,0.6,1.1,1c0.9,1,2,2.1,3.1,3.1c0.4,0.4,1,1.1,1.6,1.6c1,0.8,2.2,1.2,3.3,2.1c0.3,0.3,0.6,0.8,1,1.1
				c0.3,0.3,0.6,0.5,0.9,0.7c0.1-0.2,0.2-0.5,0.3-0.7c-0.2-0.2-0.5-0.3-0.7-0.5c-0.3-0.3-0.4-0.6-0.7-0.9c-1.4-1.3-3.1-1.9-4.5-3.1
				c-0.4-0.4-0.8-0.8-1.2-1.2c-0.9-0.8-1.6-1.7-2.3-2.6c-0.4-0.5-1-0.8-1.3-1.3c-1.2-1.7,0.1-4.2-1.6-5.8c-1.7-1.5-4-1.6-5.5-0.6
				c-0.5-0.9-2.5-1.1-3.1-0.8c-0.3,0.1-0.4,0.5-0.8,0.8c-0.2,0.2-0.6,0.3-0.9,0.5c-1,0.7-1.9,1.8-2.8,3.3C4.2,20.1,3.4,21,3,22
				c-0.7,1.6,0,2.6,1,3.9c0.5,0.6,1.1,1.2,1.4,1.8c0.2,0.3,0.1,0.6,0.3,0.8c0.2,0.3,0.7,0.7,1,1c0.3,0.4,0.7,0.9,1,1.1
				c0.9,0.6,1.6,0.6,2.3,0.8c1.5,0.5,3.3,0.9,4.7,1.8c0.6,0.4,1.2,0.9,1.9,1.3c0.4,0.2,0.9,0.3,1.3,0.6c0.7,0.3,1.3,0.9,2.1,1.2
				c1,0.4,2.1,0.6,3,1.1c0.9,0.5,1.6,1.2,2.5,1.9c0.8,0.6,1.7,1.3,2.5,1.9c0.2,0.1,0.4,0.3,0.6,0.4c0-0.5,0-1,0-1.5
				C28.3,39.9,28,39.7,27.8,39.4z"/>
			<path fill-rule="evenodd" clip-rule="evenodd" d="M88.1,16.9c0,0-0.1,0-0.1,0.1c-0.3,0.3-0.3,0.8,0,1.1
				C88.4,17.8,88.3,17.4,88.1,16.9z"/>
			<path fill-rule="evenodd" clip-rule="evenodd" d="M88.2,18.7c-0.6,0.7,0.8,1.6,1.3,1C89.1,19.2,88.5,19.3,88.2,18.7z"/>
			<path fill-rule="evenodd" clip-rule="evenodd" d="M89.2,22.1c0.4,0.5,2.2-0.7,2.8-1.1c0.4-0.3,0.6-0.8,0.7-1
				c0-0.1-0.1-0.1-0.1-0.1C91.8,20.5,90.1,21.2,89.2,22.1z"/>
			<path fill-rule="evenodd" clip-rule="evenodd" d="M87.5,23.4c0.5,0.3,1.1-0.7,1.1-1.1C88,22.4,87.7,23,87.5,23.4z"/>
			<path fill-rule="evenodd" clip-rule="evenodd" d="M82.4,27.6c1.4-0.4,2.2-1.7,3.3-2.5c0.5-0.3,1.3-0.5,1.5-1
				c-0.3-0.3-0.9-0.1-1.2,0.1C84.5,24.9,83.2,26.5,82.4,27.6z"/>
			<path fill-rule="evenodd" clip-rule="evenodd" d="M11.8,69C11.7,69,11.7,69.1,11.8,69c-0.3,0.4-0.4,1.1-0.1,1.5
				C12.1,70.1,12,69.6,11.8,69z"/>
			<path fill-rule="evenodd" clip-rule="evenodd" d="M13.6,71.9c-0.2,0.2-0.4,0.4-0.2,0.7C13.6,72.4,13.8,72.2,13.6,71.9z"/>
			<path fill-rule="evenodd" clip-rule="evenodd" d="M16.6,71.9c0.4,0.3,0.7-0.1,1.1-0.2c0.7-0.1,1.4-0.1,2.1-0.2
				c1.1-0.2,2.4-0.4,3.4-1.2c-0.6,0.1-1,0.3-1.7,0.5c-1.2,0.4-2.6,0.2-3.8,0.4C17.3,71.3,16.8,71.4,16.6,71.9z"/>
			<path fill-rule="evenodd" clip-rule="evenodd" d="M16,73.6c-0.5,0.5,0.1,1.7,0.7,1.3C16.1,74.6,16.6,73.8,16,73.6z"/>
			<path fill-rule="evenodd" clip-rule="evenodd" d="M97.4,22c-0.4-1-1.2-1.9-1.8-2.8c-0.9-1.4-1.8-2.6-2.8-3.3
				c-0.3-0.2-0.7-0.3-0.9-0.5c-0.4-0.4-0.5-0.7-0.8-0.8c-0.6-0.3-2.7,0-3.1,0.8c-1.5-1-3.7-0.8-5.5,0.6c-1.7,1.6-0.4,4-1.6,5.8
				c-0.3,0.4-0.9,0.8-1.3,1.3c-0.7,0.8-1.4,1.7-2.3,2.6c-0.4,0.4-0.8,0.9-1.2,1.2c-1.3,1.2-3.1,1.8-4.5,3.1
				c-0.3,0.3-0.4,0.6-0.7,0.9c-0.3,0.3-0.8,0.6-1.2,0.9c-0.3,0.3-0.5,0.6-0.8,0.9c0.1,0.3,0.3,0.5,0.4,0.8c0.1-0.1,0.3-0.2,0.4-0.3
				c0.2-0.2,0.4-0.5,0.6-0.7c0.3-0.3,0.8-0.6,1.2-0.9c0.4-0.3,0.6-0.8,1-1.1c1-0.9,2.2-1.3,3.3-2.1c0.6-0.5,1.2-1.2,1.6-1.6
				c1-1.1,2.2-2.2,3.1-3.1c0.4-0.4,0.8-0.7,1.1-1c1.4-1.6,0.3-3.8,1.3-5.5c0.6-1.1,1.8-1.3,2.8-1.5c0.2,0,0.9-0.3,1-0.2
				c0.5,0.1,0.8,0.7,1.4,0.9c0.3-0.1,0.5-0.6,0.9-0.8c0.7-0.4,1.8-0.3,1.9,0c0.1,0.4-0.4,0.4-0.2,0.9c0.3,0.1,0.7-0.2,1-0.2
				c0.8,0.5,1.7,0.9,2.3,2.2C93.5,18.7,93,19,93,19.5c0.5,0,0.7-0.3,0.9-0.7c0.5,0.1,0.9,0.9,1,1.5c1.1,0.7,1.5,2,1.4,2.9
				c-0.1,0.3,0,0.6-0.1,0.8c-0.2,1.1-0.8,1.4-1.7,2.2c-0.4,0.4-0.6,1-1,1.4c-1,0.9-2.7,0.6-3.6,1.6c0.5,0.7,1.5-0.6,2.1,0.1
				c-0.9,1.1-2.2,1.1-3.3,1.6c-1.1,0.5-2.5,0.8-3.6,1.4c-0.8,0.4-1.6,1-2.4,1.5c-0.8,0.4-1.7,0.6-2.4,1.1c-0.3,0.1-0.5,0.4-0.7,0.5
				c-0.8,0.4-2.2,0.6-2.8,1c-0.3,0.1-0.5,0.4-0.7,0.6c-0.9,0.7-2,1.2-2.9,2c-0.2,0.2-0.3,0.5-0.6,0.7c-0.8,0.7-1.8,1.3-2.7,1.9
				c0,0.6,0,1.1,0,1.6c0.8-0.6,1.7-1.2,2.5-1.8c0.9-0.6,1.7-1.2,2.5-1.9c0.8-0.7,1.6-1.4,2.5-1.9c1-0.6,2-0.7,3-1.1
				c0.7-0.3,1.4-0.9,2.1-1.2c0.4-0.2,0.9-0.4,1.3-0.6c0.7-0.4,1.3-0.9,1.9-1.3c1.5-0.8,3.2-1.3,4.7-1.8c0.7-0.2,1.4-0.2,2.3-0.8
				c0.3-0.2,0.7-0.7,1-1.1c0.3-0.4,0.8-0.7,1-1c0.1-0.2,0.1-0.5,0.3-0.8c0.3-0.6,1-1.2,1.4-1.8C97.4,24.7,98.1,23.6,97.4,22z"/>
			<path fill-rule="evenodd" clip-rule="evenodd" d="M30.3,66c-0.2,0.2-0.4,0.4-0.6,0.5c-0.3,0.2-0.6,0.4-0.8,0.6
				c-0.3,0.3-0.5,0.6-0.8,0.9c-1.1,0.8-1.9,1-2.2,2.1c-0.3,0.1-0.6,0.1-0.9,0.3c-0.1,0.3,0,0.9,0.2,1.1c0.9,0.3,1.2-1,2-1
				c-0.3,1.6-1.7,2.6-2.6,3.8c-1.6,2-1.2,5-3.9,6.6c-0.4-0.2-0.5-0.5-0.9-0.7c-0.2-0.2-1-0.3-1.2-0.6c-0.1-0.2,0.1-0.5,0.1-0.8
				c0-0.2-0.2-0.4-0.2-0.6c0-0.2,0-0.4-0.1-0.6c-0.1-0.2-0.3-0.4-0.4-0.6c-0.2-0.5,0.3-1.5-0.6-1.7c0.1,1.1-0.4,2.2,0.9,3.4
				c-0.2,0.5-0.7,0.8-0.5,1.3c0.2,0.6,1.1,0.9,1.3,1.6c-0.5,0.2-1,0.6-1.6,0.9c-0.3,0.2-0.9,0.4-1.4,0.6c-1,0.5-1.8,0.9-2.3,0
				c-0.3-0.7,0.8-1.6,0.6-2.4c-0.4-1.6-2.1-2.1-2.8-3.8c-0.2-0.4-0.3-1.2-0.4-1.8c-0.1-0.6-0.2-1.3-0.1-1.7c0.1-0.9,1-1.5,1.4-2.2
				c0.3,0.1,0,0.8,0.2,0.6c0-0.3,0-0.5,0-0.8c0.4-0.3,1-0.4,1.2-0.7c0.2-0.3-0.1-0.5,0.1-0.8c0.4-0.4,0.9-0.3,1.3-0.5
				c0.2-0.1,0.3-0.3,0.5-0.4c0.6-0.2,1.5,0.1,1.6-0.8c-0.3-0.3-0.7,0-1,0.1c-0.3,0.1-0.6,0-1,0.2c-1.4,0.6-2.4,1.7-3.5,2.3
				c-1,0.6-1.9,1-2.3,1.7c-0.6,1.1,0.3,2.8-0.3,3.9c-0.2,0.4-0.9,0.9-1.3,1C7.8,77.2,7.5,77,7,76.9c-0.3,0-0.6,0.1-0.8-0.1
				c-0.5-0.2-1-0.9-1.3-1.4c-0.6-1-0.4-1.9-0.7-2.9c-0.1-0.3-0.3-0.7-0.4-1c-0.2-1,0.5-2.9,1.2-3.6c0.4-0.4,1.1-0.8,1.7-1.2
				c1-0.6,2.2-1,3-1.2c1-0.1,1.4,0.4,2.2,0.9c1.1,0.7,3,0.6,4.6,0.1c1.6-0.6,3-1,4.6-1.8c1.6-0.8,3.4-1.9,4.8-2.7
				c0.8-0.5,1.9-0.9,2.9-1.5c-0.2-0.2-0.3-0.5-0.5-0.7c-1.2,0.8-2.7,1.4-3.8,2.2c-1.1,0.7-2.5,1.4-3.8,2c-1.7,0.8-3.4,1.4-4.7,1.8
				c-1.2,0.3-2.4,0.5-3.3,0.1c-0.7-0.3-1.4-1.1-2.1-1.2c-1-0.1-2.4,0.4-3.7,1c-2,0.9-3.4,2.5-3.9,4c-0.2,0.5-0.1,1.1-0.2,1.6
				c0,0.6-0.2,1.1-0.2,1.6c0,3.5,2.9,6.5,5.7,7.2c0.7,0.2,1.4,0.5,1.9,0.6c0.7,0.1,1.4-0.1,2.1,0.1c0.1,0.8-0.4,1.3-0.2,2.2
				c0.3,1.3,1.6,2.3,2.6,2.2c0.7-0.1,1.5-0.6,2.3-0.9c0.8-0.2,1.5-0.1,2.1-0.3c0.9-0.4,2.3-1.8,3-2.5c0.9-0.9,1.5-1.5,2-2.4
				c0.6-1.2,0.6-2.6,1.4-3.7c0.5-0.7,1.2-1.3,1.8-2c0.5-0.7,0.8-1.6,1.2-2.1c0.8-1,1.8-1.9,3-2.8c-0.2-0.6-0.4-1.1-0.5-1.4
				C30.9,66.7,30.6,66.3,30.3,66z"/>
			<path fill-rule="evenodd" clip-rule="evenodd" d="M72.5,35.5c0.3-0.2,0.6-0.4,0.9-0.7c1.2-1.1,3-2.5,4.4-3.2
				c1.6-0.8,2.9-2.1,3.8-3.4c-1,0.2-1.4,1.2-2.1,1.8c-0.3,0.3-0.7,0.5-1.1,0.8c-1.6,1-3.1,1.8-4.5,3c-0.4,0.3-0.7,0.7-1,1
				c-0.2,0.2-0.5,0.3-0.7,0.5c-0.3,0.3-0.5,0.6-0.7,0.9c-0.4,0.4-0.9,0.8-1.4,1.2c0,0.3,0,0.6,0,0.9c0.3-0.3,0.6-0.5,0.9-0.8
				C71.5,36.7,71.9,36,72.5,35.5z"/>
			<path d="M56.2,31.6c1-0.4,2.6-0.1,3.6,0.3c0.4,0.2,0.8,0.5,1.2,0.7c1.1,0.6,3,1.4,3.6,2.6c0.3,0.7,0.4,2.1,0.4,3
				c0,0.4-0.2,0.8-0.2,1.2c0,0.9,0.7,1.8,0.2,3c-0.7,0.9-1.7-0.1-2.9-0.4c-0.9-0.2-2-0.1-2.7-0.3c-0.4-0.2-0.9-0.8-1.6-1.3
				c-1.2-0.8-3-1.9-3.4-3.2c-0.1-0.3-0.1-0.8-0.2-1.2c-0.1-0.4-0.3-0.9-0.2-1.2c0-0.5,0.7-1.2,1-1.6C55.3,32.7,55.7,31.8,56.2,31.6z
				"/>
			<path d="M62.6,69c-0.4-0.3-0.7-0.6-0.8-1.1c0.1,0,0.3,0,0.4,0C62.3,68.3,62.8,68.6,62.6,69z"/>
			<path d="M61.6,28.7c1.4,1,2.9,1.9,3.7,3.5c-0.8-0.3-1.2-1-1.8-1.6c-0.6-0.5-1.3-1-1.8-1.6C61.6,28.9,61.6,28.8,61.6,28.7z"/>
			<path d="M60.8,66.9c0.5,0,0.7,0.4,0.8,0.8C61.2,67.7,60.9,67.4,60.8,66.9z"/>
			<path d="M61.1,55.2c0.1,0,0.1,0,0.2,0.1c-0.2,2,0.3,3.5,1.1,4.5c-0.7,1.2-1,2.9-1.8,4.1c0.6-1.3-0.5-2.2-0.5-3.5
				c0-0.5,0.4-0.8,0.5-1.2C60.8,57.9,60.2,56.4,61.1,55.2z"/>
			<path d="M60.8,27.8c-1.6-0.5-2.7-2-5.4-1.8c-0.4,0-0.5,0.3-0.9,0.1c0.8-1.1,3.4-0.6,4.5-0.2C59.8,26.3,60.7,27.2,60.8,27.8z"/>
			<path d="M59.3,67.3c0.4,0.1,0.5,0.9,0.4,1.2C59.3,68.3,59.3,67.8,59.3,67.3z"/>
			<path d="M59.6,55.5c-0.5-0.6-0.7-2.1-0.3-3C59.5,53.3,59.4,54.5,59.6,55.5z"/>
			<path d="M57.7,50.7c0.2,0.7,0.8,1.5,0.8,2.1C58,52.3,57.7,51.5,57.7,50.7z"/>
			<path d="M57.9,50c-0.7-0.8-0.8-3.9,0.4-4C57.6,47.1,58.1,48.7,57.9,50z"/>
			<path d="M56.2,47.4c0.5,0.1,0.9,0.6,0.7,1.1C56.5,48.2,56.4,47.8,56.2,47.4z"/>
			<path d="M55.1,44.3c-0.3-0.9-0.6-1.9-0.8-2.8c-0.1,0-0.1-0.2-0.1-0.2c0.1,0,0.2,0,0.2,0C55,42,55.3,43,55.6,44
				c0.3,0.9,1.1,2,0.6,2.9C55.5,46.4,55.4,45.2,55.1,44.3z"/>
			<path d="M53.1,26.3c-0.4,0.9-2.2,1.7-3.6,1.9c-1,0.1-2.3,0.2-2.7-0.7c1,0.1,2.6,0,3.7-0.4C51.4,26.8,52.2,26,53.1,26.3z"/>
			<path d="M54.3,35.9c0.1,0.4,0.1,0.9,0.2,1.2c0.4,1.4,2.2,2.4,3.4,3.2c0.8,0.5,1.2,1.2,1.6,1.3c0.7,0.3,1.8,0.1,2.7,0.3
				c1.2,0.3,2.2,1.3,2.9,0.4c0.4-1.2-0.3-2.1-0.2-3c0-0.3,0.2-0.7,0.2-1.2c0-0.9-0.1-2.3-0.4-3c-0.6-1.3-2.5-2-3.6-2.6
				c-0.4-0.2-0.9-0.6-1.2-0.7c-1-0.4-2.6-0.7-3.6-0.3c-0.5,0.2-0.9,1-1.2,1.5c-0.3,0.5-0.9,1.2-1,1.6C54,35,54.2,35.5,54.3,35.9z
				 M51.4,32.9c0.9-0.3,1.4,0.6,2.1,0.8c1-0.7,1.1-2.7,2.3-3c0.7-0.2,2.1-0.2,2.9-0.2c1,0.1,1.8,0.7,3,1.2c1.7,0.8,3.4,1.5,4.1,3.1
				c0.4,0.9,0.5,2.4,0.5,3.5c0,0.4-0.2,0.8-0.2,1.2c0,1,0.5,2.1,0.3,3.2c-0.5,0.5-1.2,1.2-2,1.2c-0.8,0-1.9-0.8-2.6-1
				c-0.8-0.2-1.8,0-2.7-0.3c-0.4-0.2-0.9-0.6-1.5-1.1c-0.5-0.4-1.1-0.6-1.6-0.9c-1.3-0.8-2.5-2.4-2.7-3.7c-0.1-0.6,0.1-1,0-1.5
				c-0.1-0.5-0.6-1-0.9-1.4C52,33.7,51.3,33.5,51.4,32.9z"/>
			<path d="M49.4,34.1c-0.6-0.1-1-0.7-0.8-1.3C49,33,49.2,33.6,49.4,34.1z"/>
			<path d="M48.5,52.4c0.3,0,0.3,0.2,0.2,0.5C48.5,52.9,48.4,52.6,48.5,52.4z"/>
			<path d="M44.9,45.5c0,0.5-0.3,1-0.2,1.5c0.1,0.6,0.8,1.3,0.7,2.1c0.4-0.3,0.8-0.8,1.5-0.7c0.2-0.6,0.6-1.1,1.1-1.5
				c0.2-1.1-0.5-3.2,0.7-3.2c1.4,0,0.7,3.5,2,4c1,0,1.1,1.1,2.1,1.1C52.7,48,53,47.1,53,46.3c0-0.4-0.2-0.8-0.2-1.2
				c0-0.8,0.3-1.4,0.2-2.1c-0.2-1.6-1.1-2.9-1.7-4.4c-0.5,0.2-0.9,0.2-1.4,0c-0.4,0.3-0.5,0.9-1.2,0.9c-0.5-0.3,0-1.5-0.7-1.7
				c-0.2,0.4-0.5,0.7-1.1,0.5c-0.5,0.8-0.8,1.7-1.2,2.6c-0.3,0.9-1,1.8-1.1,2.7C44.7,44.4,44.9,44.9,44.9,45.5z M47.5,49.4
				c-1.2-0.1-1.6,1.3-2.7,0.8c-0.3-0.4-0.1-0.8-0.2-1.3c-0.1-0.6-0.6-1.2-0.7-1.7c-0.1-0.4,0.2-1,0.2-1.7c0-0.6-0.2-1.2-0.2-1.6
				c0.1-0.9,0.9-2.2,1.2-3.1c0.4-1.1,0.9-2.4,1.3-2.9c0.1-0.1,0.4-0.1,0.7-0.3c0.5-0.3,0.3-0.7,1-0.7c0.4,0,0.7,0.3,0.7,0.9
				c0.3,0.2,0.3-0.4,0.7-0.4c0.6,0.3,0.9,0.5,1.8,0.3c0.8,1,2.5,3.9,2.4,6.3c0,0.4-0.3,0.8-0.2,1.2c0,0.4,0.4,0.8,0.4,1.2
				c0,0.3-0.2,0.8-0.2,1.3c0,0.8,0.2,2.1-0.6,2.3c-0.9,0.2-1.5-0.8-2.1-1.2c-0.2-0.1-0.7-0.1-0.9-0.2c-0.6-0.4-0.8-1.2-1.1-1.8
				C48.7,47.8,47.8,48.3,47.5,49.4z"/>
			<path d="M45.5,49c0-0.8-0.6-1.5-0.7-2.1c-0.1-0.5,0.2-1,0.2-1.5c0-0.6-0.2-1.1-0.2-1.7c0.1-0.9,0.7-1.9,1.1-2.7
				c0.4-1,0.7-1.9,1.2-2.6c0.6,0.2,0.9-0.1,1.1-0.5c0.6,0.1,0.1,1.4,0.7,1.7c0.7,0,0.8-0.6,1.2-0.9c0.5,0.2,0.9,0.2,1.4,0
				c0.6,1.5,1.4,2.7,1.7,4.4c0.1,0.7-0.2,1.4-0.2,2.1c0,0.4,0.2,0.8,0.2,1.2c0.1,0.8-0.2,1.7-0.2,2.5c-1.1,0-1.1-1-2.1-1.1
				c-1.3-0.6-0.6-4-2-4c-1.1,0-0.5,2.1-0.7,3.2c-0.5,0.3-0.9,0.8-1.1,1.5C46.3,48.2,45.9,48.7,45.5,49z"/>
			<path d="M50.1,35.8c-0.6-0.3-1.6-0.8-2.2-0.2C47.6,34.4,50.4,34.6,50.1,35.8z"/>
			<path d="M46.7,67c0.5,0.3,0.2,1,0.2,1.5C46.3,68.4,46.6,67.4,46.7,67z"/>
			<path d="M45.6,27.2c-1.7,0.5-2.8-0.8-4.9-0.6c-2.5,0.3-3.9,2.4-6,3.3c1.8-1.9,4.8-4.9,8.7-3.9C44.1,26.2,45.1,26.5,45.6,27.2z"/>
			<path d="M38.5,31.4c0.6,0,2.5,0.1,3.1,0.3c0.6,0.3,0.7,0.9,1.1,1.6c0.6,1.1,1.8,2.2,1.2,3.8c-0.2,0.6-0.9,1.2-1.6,1.7
				c-2.4,1.9-5,3.7-9.1,3.9c-0.3-0.2-0.4-0.6-0.9-0.6c0.4-2.5-0.3-6.3,0.9-7.9c0.4-0.6,1.5-1,2.4-1.5C36.6,32.1,37.5,31.5,38.5,31.4
				z"/>
			<path d="M43.6,40.9c-0.5,1.8-0.6,4.6-1.7,5.9c-0.1-2.3,0.6-4.4,1.5-6C43.5,40.8,43.5,40.9,43.6,40.9z"/>
			<path d="M40.7,49.8c0-0.7,0.6-1.3,0.8-2c0.1,0,0.1,0.1,0.2,0.1C41.6,48.7,41.6,49.7,40.7,49.8z"/>
			<path d="M40,52.6c0-0.5,0-0.9,0.2-1.2C40.4,51.5,40.4,52.6,40,52.6z"/>
			<path d="M39.7,51.3c0-0.7,0-1.3-0.1-1.9C40.2,49.5,40.2,51.1,39.7,51.3z"/>
			<path d="M38.1,63.4c0.3-0.7-0.1-1.5,0.4-2.1c0.2,0.1,0.5,0.3,0.7,0.2c1.1-0.8,3.2-0.5,3.6-1.8c1.3,0.7,2.2-1.2,3.1-0.3
				c0.9-0.1,2.3,0.2,2.9-0.3c1,1,2.5,0,3.6,0.2c0.3,0,0.5,0.3,0.8,0.4c0.4,0.1,0.9,0.1,1.2,0.2c0.6,0.2,1.1,0.5,1.8,0.6
				c0.4,0,0.7-0.2,1.2,0c0,0.2-0.1,0.6,0.1,0.7c-0.6,0.1-1.1,0.3-1.4,0.7c-0.4-0.5-0.9-0.5-1.8-0.5c-1.1,0-2.1-0.9-2.9-0.1
				c-0.3-0.7-1.5-0.5-2.1-0.2c-0.3-0.1-0.3-0.4-0.6-0.4c-1,0.2-1.7-0.1-2.5,0.2c-0.9-0.6-2.1,0-2.6,0.7c-0.8-0.4-1.4,0.2-1.9,0.6
				c-0.4-0.2-0.7-0.7-1.2-0.7c-0.5,0-0.6,0.4-1,0.7c0,0-0.1,0-0.1,0c-0.1,0-0.2,0-0.3,0c-0.7,0.2-0.6,1-0.7,1.5
				C38.3,63.3,38.3,63.5,38.1,63.4z"/>
			<path d="M37.2,61.7c-2.1-1-2.1-5-1.2-7.3c0-0.1,0-0.2,0-0.2c1.1,0.4,1.1,1.4,1,2.8c0,0.3-0.1,0.9-0.1,1.2
				c0.1,0.4,0.4,0.8,0.4,1.1c0,0.3-0.3,0.6-0.2,0.8c0,0.5,0.5,0.8,0.6,1.2C37.6,61.4,37.4,61.5,37.2,61.7z"/>
			<path d="M35.7,65.5c-0.1-0.6,1-0.7,0.9,0C36.4,65.5,36.1,65.5,35.7,65.5z"/>
			<path d="M34.5,65.9c0-0.5,0.7-1.1,1.2-0.7C35.4,65.5,34.9,66,34.5,65.9z"/>
			<path d="M38.2,65.4c0.3,0,0.4-0.1,0.6-0.2c0-0.3,0.1-1.2-0.2-1.4C38.2,64.1,38.2,64.7,38.2,65.4z M36.1,67.4
				c-0.8,0.5-1.1,1.5-1.3,2.5c-0.7-2.1,1.4-3.4,2.6-3.8c0.2-0.3-0.5-0.4-0.4-0.8c0.2-0.2,0.3,0.1,0.6,0.1c0.1-0.8,0.2-1.3,0-2l0.5,0
				c0.3,0.1,0.2-0.1,0.5-0.1c0.2-0.5,0.1-1.3,0.7-1.5c0.1,0,0.2,0,0.3,0l0,0.4c-0.7,0.2-0.5,2.8,0.1,2.9l-0.2,0.4
				c-0.3,0-0.6,0.1-0.8,0.2c-0.2,0.3,0,1-0.4,1.1c-0.4,0,0-0.8-0.2-0.8c-0.6,0.6-0.2,2.2-0.9,2.7c0.1-0.7,0-1.6,0.2-2.1
				c-0.6,0.1-0.7,0.7-1.2,1C36.1,67.7,36.4,67.3,36.1,67.4z"/>
			<path d="M34.8,62.2c-0.3,0.1-0.3-0.2-0.3-0.4C34.7,61.8,34.8,62,34.8,62.2z"/>
			<path d="M34.7,62.8c0.5,0.1,0.5,1.1,0.5,1.4C34.7,64.1,34.6,63.2,34.7,62.8z"/>
			<path d="M68.2,59.9c0.4-1,1-2,0.7-3.1c-0.1,0-0.1,0-0.2,0c-1.5,1.5-2.6,4.7-2.1,7.5C67.6,63.2,67.5,61.5,68.2,59.9z M67.3,54.2
				c0,0.9,1.7,0.7,1.9,0.1C68.4,54.5,67.8,54,67.3,54.2z M62.4,59.8c-0.8-1.1-1.2-2.5-1.1-4.5c0-0.1-0.1-0.1-0.2-0.1
				c-1,1.2-0.4,2.7-0.6,4c-0.1,0.4-0.5,0.8-0.5,1.2c-0.1,1.2,1.1,2.2,0.5,3.5C61.3,62.8,61.6,61.1,62.4,59.8z M59,63.7
				c-0.2,0.4-0.1,1.2,0.1,1.5c0.2,0.1,0.5,0.1,0.8,0.1C59.9,64.5,59.8,63.8,59,63.7z M59.1,59.5c-0.2,0.5-0.4,1-1,1
				c0,0.3,0.4,0.4,0.7,0.5C59.1,60.8,59.3,60,59.1,59.5z M57.9,61.4c0.1,0.3,0.1,0.7,0.3,0.8c0.1-0.1,0.3-0.1,0.4-0.2
				c0.5,0.5,0.7,1.3,1.4,1.5c0.3-1-0.5-1.5-0.7-2.3C59.2,61.7,58.4,61.6,57.9,61.4z M58.2,62.7c0.2,0.7,0,1.9,0.2,2.6
				C58.3,64.5,59.1,62.9,58.2,62.7z M57.3,59.6c0.4,0.1,0.7,0.3,1.1,0.3c0.7-1,0-2.5-1-2.7C57.1,58,57.5,58.9,57.3,59.6z M56.5,64.4
				c0.6-0.1,0.8,0.2,1.2,0.2c0-1.1,0-2.2-0.4-2.9C55.8,61.8,56.8,63.3,56.5,64.4z M55.2,56.4c0.3,0.9,0.4,2,0.8,2.7
				C57.3,58.6,56.7,55,55.2,56.4z M53,58.5c0.5,0.4,1.8,0.7,2.2,0.1c-0.4-1.3-0.6-3.6-2.3-3.1C52.8,56.5,52.8,57.6,53,58.5z
				 M52.2,64.5c0.4,0.1,1.4,0.2,1.4-0.3c-0.4,0.1-0.1,0,0-0.2c0.2-0.5,0.3-1.6,0.1-2.3c-0.4-0.3-1-0.3-1.6-0.4
				C52,62.2,52,63.6,52.2,64.5z M49.1,64.5c0.6,0.2,1.1,0.5,2,0.4c0.8-1.6,0.1-4.9-1.7-3.4C49.2,62.4,48.9,63.5,49.1,64.5z
				 M49.2,58.2c0.5,0.7,2.4,0.4,3,0c0-0.7,0-2-0.1-2.8c-0.4-0.7-1.6-0.5-2.3-0.2C49.4,56,48.9,57.1,49.2,58.2z M45.3,58
				c0.3,0.8,2.3,0.7,3.1,0.5c-0.1-1,0.1-1.8-0.1-2.6c-0.8-0.3-1.8-1-2.6-0.3C45.6,56.3,45.2,56.9,45.3,58z M46.6,18.9
				c0.6-0.2,1.5,0.1,2.4,0.1c0.5,0,1.1-0.2,1.6-0.2c1.8,0,3.9,0.5,5.7,1c1.8,0.5,3.8,0.9,5,1.6c0.5,0.3,0.9,0.8,1.4,1.4
				c1.2,1.3,2.7,3.1,3.5,4.7c0.6,1.1,1,2.3,1.6,3.5c0.5,1.1,1.2,2.2,1.7,3.4c0.9,2.5,0.2,6,0.4,9c0.1,1.5,0.5,3.3,1.2,4.7
				c0.5,1,1.8,1.7,1.8,3.3c0,1.9-1.4,2.6-2.6,3.6c0.3,0.8-0.4,1.5-0.6,2.1c-0.2,0.8-0.2,1.5-0.4,2.1c-0.2,0.6-0.6,1.1-0.7,1.7
				c-0.2,0.8-0.2,1.6-0.4,2.4c-0.2,0.8-0.9,1.4-1.2,2.2c-0.6,1.8-0.3,4.2-0.3,6.2c0,2.3-0.8,2.7-2.6,3.9c-2.3,1.5-4.1,3.3-7.2,4.1
				c-2.5,0.7-5.8-0.1-8.8,0.2c-2.3,0.2-5.4,1.1-7.3,0.3c-0.9-0.3-1.5-1.3-2.4-1.9c-0.8-0.6-1.6-1.4-2.4-1.9
				c-1.4-0.8-4.1-1.1-4.4-2.7c-0.2-0.8,0.4-1.6,0.4-2.4c0-1.2-0.7-3.3-1.1-4.2c-0.5-1.1-1.6-1.7-1.8-2.8c-0.2-0.9,0.3-1.6,0.2-2.4
				C29.3,61,28.1,60.2,28,59c-0.1-1.1,0.5-2.5,0.2-3.5c-0.1-0.7-1.1-1.1-1.4-1.6c-0.6-1.1-0.6-2.4-0.3-3.5c0.3-1.1,1.2-2,1.4-3.3
				c0.1-0.4,0-0.9,0.1-1.2c0.1-0.5,0.2-0.9,0.3-1.4c0.6-3.7-0.1-6.9,0.9-10.2c0.9-2.9,1.8-5.4,3.4-7.9c0.2-0.4,0.6-0.8,1-1.2
				c0.8-0.9,1.3-1.4,2.2-2.3c1.2-1.2,2.9-2.2,4.9-2.7C42.6,19.5,44.6,19.4,46.6,18.9z M48.5,61.2c-0.5-0.1-1.1,0.3-1.8,0.1
				c-0.4,1.4-0.3,3.6,1.3,3.5C48.4,63.9,48.6,62.3,48.5,61.2z M44.7,65.2c1.5,0.1,1-2.8,1.2-4c-0.7-0.3-1.4,0.1-1.6,0.5
				C44.6,63,43.5,65.1,44.7,65.2z M42.7,58.5c0.3,0.8,1.4,0.4,2,0.1c-0.4-1.1,0.1-1.9,0.2-3.1C43.3,55.7,43,57.1,42.7,58.5z
				 M41.9,65c0.5,0.2,1.1,0,1.4-0.3C43.3,64,43.9,63,43.6,62C42.1,61.4,41.6,63.9,41.9,65z M41.3,60c1.8-0.1,0-2.9,1.2-3.6
				C40.7,55.2,40.6,59.1,41.3,60z M40.3,64.9c0.4,0,0.5-0.2,0.9-0.2c0-0.9,0.3-1.5,0.3-2.3c-0.2-0.3-0.4-0.6-0.9-0.6
				C40.4,62.7,40.4,63.8,40.3,64.9z M39.4,60c0.2,0.3,0.8,0.3,1.1,0c-0.3-0.6-0.4-1.4-0.2-2.1C39.3,57.6,39.4,59,39.4,60z
				 M38.8,58.8c-1.1,0.1-0.5,1.5,0.1,1.8C38.8,60,38.8,59.2,38.8,58.8z M37.2,61.7c0.2-0.1,0.4-0.2,0.5-0.4
				c-0.1-0.5-0.5-0.7-0.6-1.2c0-0.3,0.2-0.5,0.2-0.8c0-0.3-0.4-0.6-0.4-1.1c0-0.3,0.1-0.8,0.1-1.2c0.1-1.4,0.1-2.4-1-2.8
				c0,0.1,0,0.2,0,0.2C35.2,56.7,35.1,60.6,37.2,61.7z M33.1,57.4c0,0.3,0.3-0.1,0.2,0.3c-0.6,1.6,0.1,3.2-0.2,4.9
				c-0.1,0.8-0.6,1.4-0.7,2.2c0,1.1,0.3,2.4,0.2,3.5c-0.1,1.3,0.5,2.5,0.3,3.6c-0.1,0.7-0.6,1.4-0.2,1.8c1.6,0.9,3.1,1.2,4.5,2.4
				c0.6,0.5,1.3,1,2,1.5c0.6,0.5,1.3,1.3,2,1.6c1.2,0.4,3.2-0.1,4.4-0.2c1.5-0.2,2.7-0.4,4-0.3c1.3,0,2.5,0.2,3.7,0.2
				c4.1,0.2,7-1.7,9.2-3.5c0.7-0.6,1.4-0.9,2.1-1.3c1.3-0.8,0.9-2.2,0.8-3.8c-0.1-2.3-0.2-5.2-0.1-7.6c0-0.5,0.3-1.1,0.2-1.6
				c0-0.3-0.2-0.6-0.2-0.9c-0.2-1.7,0.9-2.4,1.6-3.7c-1.9-0.2-2-3.3-4.3-2.5c-0.9,0.8-0.4,2.8-0.2,4c0.3,0.6,1,1.2,1,1.9
				c0,0.7-1.1,1.8-1.4,2.9c-0.1,0.5,0,0.9-0.2,1.2c-0.3,0.8-1.4,1.1-1.2,1.9c0.4,0.2,0.7,0.5,1.2,0.3c0.4,0.6,1.4,0.7,2,1.1
				c0,0.4,0.6,0.6,0.3,1c-0.4,0-0.3-0.6-0.6-0.7c-0.9-0.1-1.8-0.9-3-1c0.1,0.6,0.4,1.3,0.2,1.9c-0.6-0.2-0.6-1.4-0.5-2.1
				c-0.5,0-0.4-0.5-0.9-0.5c0,0.3,0.3,1-0.1,1.2c-0.3-0.5-0.4-1.6-1.2-1.3c0.1,0.7,0.2,1.8-0.3,2.1c0-1.3,0-3.4-1.7-2.6
				c0.2,0.7,1,2.4,0.2,3.1c-0.4-0.7,0.2-2.4-0.7-2.6c-0.9,0.1-1.3-0.2-1.8-0.4c0.2,0.5,0.6,1.8-0.2,1.9c-0.2-0.5,0.1-1.2-0.1-1.7
				c-0.3,0-0.9-0.1-1.5-0.1c0,0.9,0.4,1.9,0,2.5c-0.2-0.6-0.5-1.2-0.4-2.1c-0.5,0.2-0.3,1.2-0.8,1.4c-0.4-0.5,0.1-1,0.2-1.5
				c-0.7,0-1.1-0.3-1.8-0.3c0,0.6,0.1,0.8,0,1.3c-0.8,0-0.3,1.9-1,2.3c0-1.4,0.3-2.5,0.5-3.7c-1.1,0.6-1.8-0.4-2.5-0.8
				c-0.5,0.4,0.4,1.8-0.4,2.1c-0.3-0.1-0.1-0.7-0.2-1.1c-0.6,0.5-1.5-0.1-1.6,0c-0.2,0.5,0.2,1.4-0.1,2c-0.3,0.1-0.2-0.3-0.4-0.3
				c-0.2,0.3,0,0.9-0.3,0.9c-0.3-1,0.6-1.6,0.2-2.6c-0.2,0.3-0.9,0.2-1.5,0.2c-0.5,0.5-0.3,1.7-0.7,2.1c0-1-0.1-2,0.3-2.6
				c-0.6-0.1-0.9,0.1-1.2,0.3c-0.3,0.4,0,1.5-0.3,1.9c-0.3-0.4-0.2-1.4-0.2-1.9l0.2-0.4c0,0,0.1,0,0.1,0c-0.4-1,0.5-2.3-0.2-3
				c0,0,0,0-0.1,0l0-0.4c0,0,0.1,0,0.1,0c0.4-0.2,0.5-0.7,1-0.7c0.5,0,0.8,0.6,1.2,0.7c0.5-0.4,1.1-1,1.9-0.6
				c0.5-0.6,1.6-1.2,2.6-0.7c0.7-0.4,1.4,0,2.5-0.2c0.3,0,0.3,0.4,0.6,0.4c0.6-0.4,1.7-0.5,2.1,0.2c0.8-0.8,1.8,0,2.9,0.1
				c1,0,1.4,0,1.8,0.5c0.3-0.4,0.8-0.6,1.4-0.7c-0.2-0.1,0-0.5-0.1-0.7c-0.4-0.2-0.8,0-1.2,0c-0.7,0-1.2-0.4-1.8-0.6
				c-0.4-0.1-0.9,0-1.2-0.2c-0.3-0.1-0.5-0.4-0.8-0.4c-1.1-0.1-2.6,0.8-3.6-0.2c-0.6,0.6-2,0.2-2.9,0.3c-1-0.8-1.8,1-3.1,0.3
				c-0.5,1.3-2.6,1.1-3.6,1.8c-0.2,0.1-0.5-0.1-0.7-0.2c-0.6,0.6-0.1,1.4-0.4,2.1l-0.5,0c0-0.2-0.1-0.3-0.1-0.5
				c-0.3-0.1-0.8-0.1-1.1-0.2c-0.1-0.3-0.4-0.5-0.5-0.9C33.8,60.7,34,57,34,54C33,54.4,33.5,56.4,33.1,57.4z M29.2,54.1
				c0.9,1.6,3.5,0.6,3.1-1.1C31.1,53.2,30.3,53.8,29.2,54.1z M30.1,60.3c0.1,0.4,0.5,0.6,0.6,1c0.3,1.1-0.4,2.5,0.6,3.4
				c0.6-2.5,0.3-5.4,0.3-8.2c-0.5-0.1-1.4-0.3-1.8,0C29.7,57.7,29.7,59.2,30.1,60.3z M27.4,52.7c1,1.4,2.6,0,3.8-0.3
				c0.6-0.2,1.2-0.1,1.8-0.4c0.2-0.1-0.3-0.3-0.2-0.7c2.6-0.4,3.9,1.9,5.6,3c0.1-0.2,0.1-0.6,0.3-0.4c0,0.5,0.1,1,0,1.5
				c-0.1,1.1-0.8,2.4,0,3c0.3-1.1,0.5-2.2,1-3c0.2,0.8-0.5,1.4-0.6,2.2c0.2,0,0.5-0.5,1.1-0.3c0.4-1.2,0.3-2.9,1.1-3.8
				c0.3,0.8-0.5,1.3-0.4,2.2c0.5-0.3,1.2-0.3,1.6,0c0.2-1,0.3-2.2,0.6-3.2c0.5,0.8,0.1,1.8,0,2.8c0.3-0.3,1.4-0.6,2.1-0.5
				c0.3-0.9,0.2-2.1,0.7-2.7c0.3,0.9-0.1,1.7-0.2,2.4c1.1-0.2,2,0.4,3,0.7c0.2-0.5,0.1-1.4,0-2c0.8,0.3,0.8-1.4,1.5-1.7
				c0.2,1.1-1.1,1.7-0.7,3.1c0.8-0.2,1.9-0.6,2.6,0c0.4-0.8-0.6-2.1,0.1-2.7c0.3,1,0.4,2.1,0.6,3c0.8-0.6,1.6,0.5,1.9,0.4
				c-0.2-1.1-1-2.4-0.5-3.5c0.3,1.3,0.6,2.7,1.1,3.8c0.6-0.6,1.5,0.5,1.6,0.2c0.1-1-0.7-1.8-0.4-2.5c0.6,0.8,1,1.8,0.9,3.3
				c0.5-0.1,0.9,0.6,1,0.3c-0.1-0.6-0.3-1.5,0.1-1.9c0.4,0.9,0.4,2.2,0.7,3.2c0.4-0.1,0-0.7,0.2-1.1c0.2,0.3,0,0.9,0.1,1.4
				c0.2,0.1,0-0.9,0.1-1.2c0-3.2,2.6-5.5,5.8-5.1c0.8,0.1,1.1,0.7,1.7,1c1.2,0.6,3.3,0.3,4-0.3c1.8-1.6-0.6-4-1.3-5
				c-0.9-1.2-1.4-3.2-1.6-5.1c-0.2-2.5-0.9-4.9-1.1-7.3c0.5,2.5,1.6,4.4,1.8,7.2c-0.3-2.8,0.5-5.8-0.3-7.9c-0.6-1.7-1.8-3.3-2.6-5
				c-1.2-2.6-2.4-4.2-3.9-6c-1.1-1.3-1.7-1.5-3.5-2.1c-2.4-0.7-5.5-1.8-8.2-1.9c-1.5,0-3-0.1-4.3,0.1c-2.6,0.4-4.8,1-6.8,1.7
				c-0.6,0.2-1.4,0.6-1.8,0.8c-0.5,0.3-0.9,1.1-1.5,1.6c-0.4,0.3-0.8,0.5-1.1,0.8c-3.1,3.6-5.8,9-5.5,15.6c0-1.1,0.4-2.1,0.7-3.1
				c0.5-1.8,0.6-4.2,2.1-4.6c-0.6,1.7-1,3.5-1.6,5.6c-0.4,1.6-0.3,3.3-0.7,5c-0.3,1.4-1,2.8-1.3,4.1c-0.2,0.7-0.4,1.4-0.7,2.1
				C27.4,50.2,26.7,51.7,27.4,52.7z M54.4,64.7c2.1,1.5,1.6-3.2,0.5-3C53.9,61.9,54.8,63.9,54.4,64.7z"/>
			<path d="M33.3,42.7c4.1-0.2,6.7-2,9.1-3.9c0.7-0.5,1.4-1.2,1.6-1.7c0.5-1.6-0.7-2.7-1.2-3.8c-0.3-0.6-0.5-1.3-1.1-1.6
				c-0.6-0.3-2.6-0.4-3.1-0.3c-0.9,0.1-1.9,0.7-2.8,1.3c-0.9,0.5-2,0.9-2.4,1.5c-1.2,1.7-0.6,5.4-0.9,7.9
				C32.9,42.1,33,42.5,33.3,42.7z M31.8,43.6c-0.9,0.5-0.8,1.8-1.6,2.4c0.1-1,0.8-2.3,1.3-3.1c-0.3-0.5-0.1-1,0-1.7
				c0.3-2.6-0.3-6.2,1.2-7.8c0.6-0.7,1.8-1.1,2.6-1.6c0.8-0.5,2.1-1.2,3-1.3c0.5-0.1,0.9,0.1,1.6,0.2c0.7,0.1,1.6,0,2.1,0.2
				c1.4,0.5,1.4,2.4,2.5,3.4c1.4,0,1.5-1.2,2-2.1c0.5,1-0.3,2.5-1.2,2.9c0.1,2.7-1.3,4-3,5.2c-1.2,0.9-3,2.1-4.7,2.7
				C35.8,43.4,33.8,43.2,31.8,43.6z"/>
		</g>
	</g>
</g>
</svg>
