<?xml version="1.0" encoding="utf-8"?>
<!-- Generator: Adobe Illustrator 16.0.0, SVG Export Plug-In . SVG Version: 6.00 Build 0)  -->
<!DOCTYPE svg PUBLIC "-//W3C//DTD SVG 1.1//EN" "http://www.w3.org/Graphics/SVG/1.1/DTD/svg11.dtd">
<svg version="1.1" id="Layer_1" xmlns="http://www.w3.org/2000/svg" xmlns:xlink="http://www.w3.org/1999/xlink" x="0px" y="0px"
	 width="612px" height="792px" viewBox="0 0 472 792" enable-background="new 0 0 612 792" xml:space="preserve">
<g>
	<defs>
		<rect id="STF_SVGID_1_" x="39.972" y="42.998" width="543" height="702.705"/>
	</defs>
	<clipPath id="STF_SVGID_2_">
		<use xlink:href="#STF_SVGID_1_"  overflow="visible"/>
	</clipPath>
	<g clip-path="url(#STF_SVGID_2_)">
		<defs>
			<rect id="STF_SVGID_3_" x="39.972" y="42.998" width="543" height="702.705"/>
		</defs>
		<clipPath id="STF_SVGID_4_">
			<use xlink:href="#STF_SVGID_3_"  overflow="visible"/>
		</clipPath>
   
      <g id="XYZ">
         <g id="BODY">
		<path clip-path="url(#STF_SVGID_4_)" fill="#EE4D9B" d="M304.615,451.088c41.99-1.51,69.87-2.181,85.153-4.029
			c15.284-1.847,20.935-4.391,22.78-5.399c0,0,6.63,0.268,7.429-1.366c-3.119-16.843-2.102-72.911,1.018-88.505
			c3.119-15.595,7.485-66.123,6.861-74.232c-0.536-6.977,2.156-22.713,2.92-26.978c-0.014-2.861,0.081-7.383,0.717-10.559
			c0.995-4.979,8.631-47.139,10.29-55.105c1.661-7.968,8.964-34.858,10.291-42.161c0.938-5.155,1.213-12.618,1.295-16.567
			c-0.731-0.507-1.185-0.835-1.185-0.835s-16.843-5.615-40.547-14.972c-14.961-5.906-28.179-14.792-36.681-21.172
			c-4.213,4.594-21.831,20.525-63.848,20.941c-41.66,0.413-61.724-17.408-67.064-23.1c-8.208,6.384-22.764,16.722-39.506,23.331
			c-23.705,9.357-40.548,14.972-40.548,14.972s-0.55,0.398-1.41,0.992v0.004c0.01,0.476,0.022,1.004,0.04,1.566
			c0.002,0.045,0.002,0.091,0.004,0.138c0.008,0.262,0.016,0.534,0.026,0.812c0.001,0.017,0.002,0.032,0.002,0.048
			c0.01,0.292,0.021,0.591,0.034,0.898c0.002,0.06,0.005,0.121,0.007,0.181c0.01,0.247,0.02,0.498,0.032,0.751
			c0.003,0.078,0.006,0.155,0.01,0.232c0.013,0.312,0.03,0.626,0.046,0.947c0.002,0.041,0.004,0.083,0.007,0.124
			c0.015,0.277,0.03,0.557,0.046,0.839c0.005,0.099,0.011,0.199,0.018,0.297c0.015,0.269,0.031,0.538,0.049,0.809
			c0.005,0.063,0.008,0.125,0.013,0.187c0.021,0.329,0.045,0.658,0.069,0.987c0.005,0.089,0.013,0.178,0.02,0.268
			c0.02,0.252,0.04,0.505,0.061,0.758c0.008,0.101,0.016,0.201,0.025,0.301c0.028,0.329,0.057,0.659,0.088,0.986
			c0.003,0.037,0.007,0.073,0.01,0.109c0.028,0.295,0.059,0.587,0.089,0.879c0.01,0.098,0.021,0.196,0.031,0.294
			c0.029,0.259,0.059,0.515,0.088,0.77c0.009,0.073,0.017,0.145,0.027,0.218c0.038,0.315,0.079,0.626,0.121,0.933
			c0.011,0.076,0.021,0.148,0.032,0.223c0.035,0.242,0.07,0.482,0.106,0.718c0.013,0.084,0.027,0.171,0.04,0.256
			c0.048,0.297,0.098,0.591,0.149,0.876c1.327,7.303,8.631,34.193,10.291,42.161c1.66,7.966,9.295,50.127,10.291,55.105
			c0.069,0.343,0.13,0.701,0.187,1.071c0.005,0.032,0.009,0.063,0.013,0.093c0.053,0.347,0.098,0.701,0.141,1.064
			c0.004,0.039,0.009,0.077,0.013,0.116c0.042,0.367,0.08,0.741,0.112,1.119c0.002,0.027,0.005,0.054,0.008,0.082
			c0.035,0.403,0.063,0.81,0.09,1.216c0,0.006,0.001,0.012,0.001,0.017c0.024,0.403,0.046,0.805,0.064,1.204
			c0.002,0.033,0.003,0.065,0.005,0.099c0.017,0.378,0.029,0.753,0.042,1.121c0.001,0.033,0.002,0.065,0.002,0.099
			c0.011,0.384,0.02,0.758,0.025,1.123c0,0.005,0,0.013,0,0.019c0.007,0.38,0.01,0.75,0.012,1.103c0.02-0.05,0.032-0.08,0.032-0.08
			s3.742,19.961,3.118,28.071c-0.623,8.11,3.743,58.637,6.862,74.232c2.678,13.391,5.311,60.04,4.027,83.62
			c5.494,2.802,19.603,9.389,34.53,11.483C252.886,449.578,262.627,452.601,304.615,451.088"/>
	</g>
        <g id="RIGHT_BODY">
		<path clip-path="url(#STF_SVGID_6_)" fill="#897F76" d="M223.958,282.094c-6.636-86.074-39.26-114.708-57.08-126.466
			c2.667,10.65,6.193,24.05,7.283,29.285c1.661,7.967,9.295,50.127,10.292,55.106c0.068,0.342,0.129,0.701,0.186,1.07
			c0.004,0.031,0.009,0.062,0.014,0.093c0.051,0.347,0.098,0.701,0.14,1.063c0.004,0.039,0.009,0.078,0.014,0.118
			c0.041,0.367,0.078,0.741,0.112,1.118c0.002,0.028,0.004,0.055,0.007,0.083c0.035,0.402,0.064,0.809,0.09,1.216
			c0,0.007,0.001,0.013,0.001,0.018c0.025,0.402,0.047,0.805,0.065,1.203c0.001,0.034,0.002,0.067,0.004,0.101
			c0.017,0.377,0.031,0.751,0.042,1.12c0.001,0.032,0.002,0.066,0.002,0.099c0.011,0.383,0.02,0.758,0.026,1.123
			c0,0.006,0,0.012,0,0.018c0.006,0.382,0.01,0.75,0.012,1.104c0.021-0.049,0.032-0.079,0.032-0.079s3.742,19.961,3.119,28.071
			c-0.624,8.11,3.742,58.637,6.861,74.231c3.12,15.595,6.862,55.518,3.744,72.36c-0.504,2.725-1.125,6.19-1.814,10.155
			c0.437,0.24,1.326,0.718,2.6,1.359C206.199,379.678,228.331,338.801,223.958,282.094"/>
	</g>
        <g id="BODY_STRIPS">
		<path clip-path="url(#STF_SVGID_8_)" fill="#FFFFFF" d="M171.586,159.361c0.013-0.023,0.029-0.053,0.052-0.093
			C171.618,159.305,171.6,159.338,171.586,159.361"/>
		<path clip-path="url(#STF_SVGID_8_)" fill="#C64421" d="M232.38,430.539c2.449-13.332,6.152-26.599,10.468-40.34l6.679-21.094
			c2.261-7.213,4.53-14.637,6.421-22.358c1.917-7.708,3.69-15.666,4.946-23.846c1.176-8.186,1.947-16.564,2.213-25.005
			c0.172-4.218,0.133-8.458-0.06-12.683l-0.364-6.32l-0.53-5.956l-0.619-5.949l-0.813-5.971c-0.286-1.991-0.515-3.976-0.854-5.972
			l-1.103-5.975c-0.678-3.977-1.656-7.972-2.534-11.952c-0.915-3.98-2.13-7.956-3.222-11.921c-2.47-7.929-5.117-15.884-9.273-23.405
			c-4.133-7.506-9.33-14.608-15.5-20.987c-6.254-6.333-13.21-12.043-20.606-16.909c-7.404-4.874-14.981-9.085-22.617-12.677
			l-5.755-2.57l-5.833-2.294c-0.972-0.371-1.972-0.697-2.952-1.04c-0.792-0.289-4.715-0.942-6.524-2.162
			c0.379,1.978,1.115,5.123,2.031,8.853c1.489,0.635,2.85,1.274,3.504,1.543c3.328,1.527,6.607,3.259,9.658,5.335
			c3.043,2.077,6.045,4.263,8.773,6.755c2.763,2.457,5.301,5.143,7.784,7.876c9.864,11.063,16.755,24.34,22.161,37.949
			c2.72,6.829,4.816,13.873,6.806,20.936c1.806,7.112,3.425,14.277,4.604,21.522c0.611,3.619,1.206,7.241,1.623,10.889l0.702,5.461
			l0.522,5.481c0.805,7.308,1.119,14.626,1.042,21.958c-0.148,14.667-2.139,29.281-5.163,43.684
			c-3.001,14.417-7,28.642-10.581,42.984c-3.607,14.332-6.776,28.817-8.648,43.5c-0.473,3.796-0.861,7.603-1.165,11.416
			c6.038,2.547,14.038,5.405,22.522,7C230.643,441.029,231.391,435.779,232.38,430.539"/>
		<path clip-path="url(#STF_SVGID_8_)" fill="#C64421" d="M347.564,93.885c-14.424,6.678-19.319,7.866-19.319,7.866l-0.318-1.024
			c-0.573-0.086-0.164,1.443-0.164,1.443s-0.45,1.861-1.454,6.064c0-0.002,0.097,0.818,0.098,0.815
			c0.657-0.02,1.287-0.033,1.896-0.041c17.724-2.252,29.617-7.452,37.087-12.121C359.44,95.332,353.464,94.291,347.564,93.885"/>
		<path clip-path="url(#STF_SVGID_8_)" fill="#C64421" d="M454.451,162.33c-1.613-2.562-3.346-5.079-5.171-7.549
			c-1.854,7.426-4.18,16.366-5.813,22.971c1.051,1.43,2.053,2.879,2.979,4.357C449.405,186.809,461.951,174.236,454.451,162.33"/>
		<path clip-path="url(#STF_SVGID_8_)" fill="#C64421" d="M425.656,129.723c-11.293-9.633-23.938-17.975-37.359-24.361
			c-7.425-3.533-15.141-6.443-22.907-8.474c-7.47,4.669-19.363,9.869-37.087,12.122c9.607-0.111,13.506,1.398,21.997,3.998
			c10.254,3.053,20.222,7.593,30.19,13.127c4.977,2.732,9.894,5.802,14.769,8.983c2.416,1.627,4.868,3.23,7.218,4.982
			c1.2,0.843,2.389,1.707,3.578,2.57l3.508,2.67c9.371,7.131,18.341,14.876,26.315,23.344c2.717,2.918,5.285,5.939,7.589,9.07
			c1.634-6.606,3.959-15.546,5.813-22.972C442.579,145.716,434.524,137.288,425.656,129.723"/>
	</g>
      </g>
    </g>
	<g clip-path="url(#STF_SVGID_2_)">
		<defs>
			<rect id="STF_SVGID_5_" x="39.972" y="42.998" width="543" height="702.705"/>
		</defs>
		<clipPath id="STF_SVGID_6_">
			<use xlink:href="#STF_SVGID_5_"  overflow="visible"/>
		</clipPath>
    
    </g>
	<g clip-path="url(#STF_SVGID_2_)">
		<defs>
			<rect id="STF_SVGID_7_" x="39.972" y="42.998" width="543" height="702.705"/>
		</defs>
		<clipPath id="STF_SVGID_8_">
			<use xlink:href="#STF_SVGID_7_"  overflow="visible"/>
		</clipPath>
    
    </g>
	<g clip-path="url(#STF_SVGID_2_)">
		<defs>
			<rect id="STF_SVGID_9_" x="39.972" y="42.998" width="543" height="702.705"/>
		</defs>
		<clipPath id="STF_SVGID_10_">
			<use xlink:href="#STF_SVGID_9_"  overflow="visible"/>
		</clipPath>
    <g id="RIGHT_SLEEVE">
		<path clip-path="url(#STF_SVGID_10_)" fill="#897F76" d="M185.157,248.461c0-0.006,0-0.013,0-0.019
			c-0.005-0.365-0.015-0.74-0.025-1.123c0-0.033-0.001-0.066-0.003-0.099c-0.011-0.369-0.025-0.743-0.042-1.121
			c-0.002-0.032-0.003-0.065-0.004-0.099c-0.019-0.399-0.04-0.801-0.065-1.203c0-0.006-0.001-0.012-0.001-0.018
			c-0.026-0.406-0.056-0.814-0.09-1.216c-0.003-0.027-0.006-0.055-0.009-0.082c-0.033-0.379-0.07-0.751-0.112-1.12
			c-0.004-0.038-0.008-0.077-0.013-0.116c-0.042-0.362-0.088-0.717-0.14-1.063c-0.005-0.031-0.01-0.062-0.014-0.093
			c-0.057-0.369-0.119-0.727-0.186-1.07c-0.997-4.979-8.631-47.14-10.292-55.107c-1.66-7.967-8.963-34.856-10.29-42.161
			c-0.052-0.284-0.101-0.578-0.149-0.875c-0.013-0.085-0.026-0.17-0.04-0.256c-0.036-0.236-0.072-0.475-0.106-0.718
			c-0.01-0.074-0.021-0.147-0.031-0.222c-0.043-0.307-0.083-0.619-0.122-0.934c-0.009-0.072-0.018-0.146-0.026-0.218
			c-0.031-0.255-0.06-0.512-0.089-0.77c-0.011-0.098-0.021-0.196-0.032-0.295c-0.03-0.291-0.061-0.583-0.089-0.878
			c-0.003-0.037-0.007-0.073-0.01-0.109c-0.032-0.329-0.061-0.657-0.089-0.987c-0.008-0.101-0.017-0.201-0.025-0.301
			c-0.021-0.253-0.041-0.504-0.061-0.758c-0.007-0.089-0.013-0.179-0.02-0.267c-0.025-0.33-0.047-0.66-0.069-0.987
			c-0.005-0.063-0.009-0.125-0.012-0.188c-0.019-0.27-0.036-0.54-0.05-0.808c-0.006-0.1-0.012-0.199-0.018-0.298
			c-0.016-0.283-0.031-0.562-0.046-0.838c-0.001-0.042-0.004-0.083-0.007-0.125c-0.016-0.32-0.031-0.634-0.045-0.946
			c-0.003-0.078-0.007-0.154-0.01-0.233c-0.012-0.253-0.022-0.504-0.032-0.75c-0.002-0.061-0.006-0.122-0.008-0.181
			c-0.012-0.307-0.023-0.607-0.033-0.898c0-0.017-0.001-0.032-0.002-0.049c-0.008-0.279-0.027-0.904-0.028-0.951
			c-0.017-0.563-0.031-1.089-0.041-1.566v-0.004c-2.206,1.52-6.501,4.348-9.195,5.246c-3.742,1.248-24.951,17.465-31.189,39.299
			c-6.238,21.833-7.485,75.48-7.485,75.48l-1.872,9.357l-1.872,5.614c0,0,21.833,5.613,40.546,6.862
			c18.714,1.247,30.566,1.247,30.566,1.247s1.248-1.247,0.624-4.99c-0.624-3.743-1.248-4.99-0.624-6.862
			c0.583-1.749,2.801-7.311,3.088-8.029C185.167,249.21,185.163,248.842,185.157,248.461"/>
	</g>
    </g>
	<g clip-path="url(#STF_SVGID_2_)">
		<defs>
			<rect id="STF_SVGID_11_" x="39.972" y="42.998" width="543" height="702.705"/>
		</defs>
		<clipPath id="STF_SVGID_12_">
			<use xlink:href="#STF_SVGID_11_"  overflow="visible"/>
		</clipPath>
    <g id="LEFT_SLEEVE">
		<path clip-path="url(#STF_SVGID_12_)" fill="#BF2A43" d="M503.336,255.723l-1.872-9.357c0,0-1.246-53.647-7.484-75.479
			s-27.447-38.05-31.191-39.299c-2.784-0.928-7.294-3.927-9.419-5.403c-0.082,3.951-0.357,11.414-1.295,16.568
			c-1.327,7.303-8.63,34.193-10.291,42.161c-1.659,7.966-9.295,50.127-10.29,55.106c-0.636,3.175-0.73,7.697-0.717,10.559
			c0.125-0.693,0.2-1.094,0.2-1.094s2.493,6.238,3.118,8.109c0.623,1.871,0,3.12-0.625,6.862c-0.623,3.742,0.625,4.989,0.625,4.989
			s11.852,0,30.565-1.247c18.715-1.248,40.548-6.861,40.548-6.861L503.336,255.723z"/>
	</g>
    </g>
	<g clip-path="url(#STF_SVGID_2_)">
		<defs>
			<rect id="STF_SVGID_13_" x="39.972" y="42.998" width="543" height="702.705"/>
		</defs>
		<clipPath id="STF_SVGID_14_">
			<use xlink:href="#STF_SVGID_13_"  overflow="visible"/>
		</clipPath>
    <g id="COLLAR">
		<path clip-path="url(#STF_SVGID_14_)" fill="#004D86" d="M311.11,110.147c42.016-0.417,59.634-16.347,63.847-20.941
			c-4.967-3.728-8.33-6.602-9.48-7.523c-3.119-2.495-3.119-4.366-6.236-6.237c-3.12-1.873-4.368-7.485-10.605-10.604
			c-3.971-1.985-21.838-2.707-34.305-2.969l-0.005-0.15c0,0-2.451,0-6.236,0.047c-3.787-0.047-6.238-0.047-6.238-0.047l-0.005,0.15
			c-12.468,0.262-30.334,0.984-34.304,2.969c-6.238,3.119-7.486,8.732-10.605,10.604c-3.119,1.871-3.119,3.743-6.237,6.237
			c-0.917,0.733-3.24,2.709-6.653,5.363C249.387,92.739,269.449,110.56,311.11,110.147"/>
	</g>
    </g>
	<g clip-path="url(#STF_SVGID_2_)">
		<defs>
			<rect id="STF_SVGID_15_" x="39.972" y="42.998" width="543" height="702.705"/>
		</defs>
		<clipPath id="STF_SVGID_16_">
			<use xlink:href="#STF_SVGID_15_"  overflow="visible"/>
		</clipPath>
    <g id="SHORT_MASK">
    <g id="UPPER_BOTTOM">
		<path clip-path="url(#STF_SVGID_16_)" fill="#BF2A43" d="M455.233,620.108c-0.386-2.83-4.759-31.759-5.145-34.846
			c-0.387-3.085-4.114-24.943-4.372-26.743c-0.257-1.799-4.113-13.114-6.171-20.058c-2.059-6.944-8.098-26.796-8.819-29.76
			c-0.723-2.963-1.936-9.306-2.089-10.406c-0.15-1.102-0.417-5.091-0.494-5.851c-0.075-0.76-1.139-4.443-1.139-4.443
			s-0.266-1.86-0.684-4.104c-0.418-2.239-0.607-5.013-0.607-5.013s0.076-1.292,0.076-2.432c0-1.139-0.609-2.736-0.609-2.736
			s0-1.519-0.227-3.608c-0.228-2.088-1.254-3.532-1.254-3.532l-2.279-8.813c0,0-0.115-0.228-0.532-1.329
			c-0.416-1.101-0.265-3.571-0.228-3.836c0.039-0.267,0.152-2.62,0.152-3.381c0-0.76,0.151-4.709-0.113-5.393
			c-0.266-0.684-0.533-2.395-0.724-3.533c-0.188-1.138-0.151-3.95-0.075-4.292c0.078-0.343-0.609-2.203-0.798-1.71
			s-1.367,2.014-2.166,3.648c-0.799,1.633-4.389,3.72-4.389,3.72c-1.846,1.009-7.496,3.553-22.78,5.399
			c-15.284,1.849-43.163,2.52-85.152,4.029c-41.989,1.513-51.731-1.51-70.879-4.197c-19.146-2.687-36.948-12.765-36.948-12.765
			s0.515,1.987,0.515,4.431s-1.03,3.729-1.287,5.015c-0.256,1.285,0.515,3.857,0.515,4.628c0,0.771-0.515,1.93-0.644,2.571
			c-0.129,0.643,0.129,1.672,0.129,2.444c0,0.771-0.385,3.471-0.771,4.243c-0.386,0.771-1.672,5.914-2.057,8.1
			c-0.386,2.187-1.543,11.187-1.801,12.601c-0.257,1.415-0.642,9.387-1.028,10.93c-0.385,1.543-3.729,11.186-3.857,12.344
			c-0.129,1.157-2.829,10.029-3.086,10.801c-0.256,0.771-5.658,17.356-6.815,19.93c-1.156,2.571-4.242,14.272-4.5,15.044
			c-0.256,0.771-2.186,17.485-3.601,25.844c-1.414,8.359-4.885,24.301-6.043,29.829c-1.157,5.528-2.571,23.145-2.699,31.247
			c-0.129,8.097,1.8,35.229,1.8,36.515c0,1.286,1.8,17.23,1.929,18.131c0.129,0.897,0.643,4.756,0.643,5.142
			s1.287,10.673,1.415,11.958c0.128,1.284,2.057,13.115,2.057,13.115s0,1.8,0.386,2.699c0.386,0.9,1.158,1.544,2.314,1.93
			c1.159,0.385,6.172,1.67,19.545,3.214c13.372,1.542,36.901,0.129,48.473-1.544c11.573-1.671,22.888-5.398,22.888-5.398
			s0.376,0.024,0.885,0.04c1.22-8.104,4.104-27.171,4.709-30.194c0.771-3.856,9.065-45.324,10.993-53.037
			c1.929-7.715,3.086-18.516,11.188-21.022c8.101-2.509,25.374-0.542,32.595,6.557c11.378,11.188,13.308,30.666,16.009,41.467
			c2.698,10.801,6.94,29.124,7.135,31.822c0.193,2.7,2.7,11.187,2.7,11.187l-0.772,1.35c0,0-0.194,1.737,0.579,2.701
			c0.771,0.965,1.158,2.121,0.578,2.893c-0.578,0.772-0.964,1.93-0.578,2.701c0.387,0.771,1.93,3.277,1.93,3.856
			c0,0.32,0.052,2.585,0.098,4.546c0.733,0.084,1.445,0.15,1.445,0.15s14.657,4.498,33.814,6.685
			c19.157,2.186,40.76-0.386,46.289-0.772c5.526-0.385,12.601-1.542,14.271-1.928c1.671-0.386,2.06-1.415,2.573-2.187
			s0.898-7.842,0.898-8.357v-2.185c0,0-0.385-1.03-0.385-1.542c0-0.514,0.9-1.03,1.286-1.673c0.388-0.646-0.257-2.058-0.257-2.058
			s-0.259-1.802-0.259-2.315c0-0.515,0.387-4.243,0.387-5.271c0-1.029,1.029-7.458,1.287-8.872
			c0.257-1.415,2.057-14.786,2.827-19.285c0.772-4.5,1.543-18.645,1.93-28.416C455.746,636.954,455.618,622.938,455.233,620.108"/>
	</g>
    <g id="BOTTOM_LEGS">
		<path clip-path="url(#STF_SVGID_18_)" fill="#897F76" d="M211.529,727.378c-0.017,0-0.035,0.001-0.051,0.002
			C211.494,727.379,211.512,727.378,211.529,727.378"/>
		<path clip-path="url(#STF_SVGID_18_)" fill="#897F76" d="M202.82,727.486c-0.106-0.001-0.21-0.001-0.317-0.001
			C202.609,727.485,202.713,727.485,202.82,727.486"/>
		<path clip-path="url(#STF_SVGID_18_)" fill="#897F76" d="M194.805,727.244c-0.138-0.008-0.274-0.017-0.409-0.024
			C194.531,727.228,194.667,727.236,194.805,727.244"/>
		<path clip-path="url(#STF_SVGID_18_)" fill="#897F76" d="M208.761,727.444l-0.378,0.009L208.761,727.444z"/>
		<path clip-path="url(#STF_SVGID_18_)" fill="#897F76" d="M199.953,727.447c-0.022-0.001-0.044-0.001-0.067-0.001
			C199.908,727.446,199.931,727.446,199.953,727.447"/>
		<path clip-path="url(#STF_SVGID_18_)" fill="#897F76" d="M197.426,727.37c-0.123-0.005-0.247-0.01-0.369-0.014
			C197.18,727.36,197.304,727.365,197.426,727.37"/>
		<path clip-path="url(#STF_SVGID_18_)" fill="#897F76" d="M217.575,727.133c-0.113,0.005-0.226,0.012-0.339,0.018
			C217.35,727.145,217.462,727.138,217.575,727.133"/>
		<path clip-path="url(#STF_SVGID_18_)" fill="#897F76" d="M228.766,726.359c-0.074,0.006-0.149,0.013-0.225,0.02
			C228.616,726.372,228.691,726.365,228.766,726.359"/>
		<path clip-path="url(#STF_SVGID_18_)" fill="#897F76" d="M231.341,726.117c-0.067,0.006-0.133,0.014-0.202,0.02
			C231.208,726.131,231.273,726.123,231.341,726.117"/>
		<path clip-path="url(#STF_SVGID_18_)" fill="#897F76" d="M226.004,726.591c-0.017,0.001-0.034,0.002-0.05,0.004
			C225.97,726.593,225.987,726.592,226.004,726.591"/>
		<polyline clip-path="url(#STF_SVGID_18_)" fill="#897F76" points="223.209,726.798 223.204,726.799 223.209,726.798 		"/>
		<path clip-path="url(#STF_SVGID_18_)" fill="#897F76" d="M214.527,727.272c-0.068,0.002-0.136,0.004-0.204,0.007
			C214.392,727.276,214.459,727.274,214.527,727.272"/>
		<path clip-path="url(#STF_SVGID_18_)" fill="#897F76" d="M192.254,727.065c-0.104-0.01-0.203-0.019-0.306-0.027
			C192.052,727.047,192.15,727.056,192.254,727.065"/>
		<path clip-path="url(#STF_SVGID_18_)" fill="#897F76" d="M220.513,726.97c-0.097,0.007-0.192,0.013-0.289,0.018
			C220.32,726.982,220.416,726.977,220.513,726.97"/>
		<path clip-path="url(#STF_SVGID_18_)" fill="#897F76" d="M205.802,727.485c-0.145,0-0.289,0.001-0.433,0.001
			C205.514,727.486,205.658,727.485,205.802,727.485"/>
		<path clip-path="url(#STF_SVGID_18_)" fill="#897F76" d="M183.78,511.069c0.021-0.069,0.045-0.15,0.069-0.226
			C183.825,510.919,183.801,511,183.78,511.069"/>
		<path clip-path="url(#STF_SVGID_18_)" fill="#897F76" d="M184.188,509.724c0.045-0.15,0.092-0.308,0.141-0.465
			C184.282,509.415,184.234,509.574,184.188,509.724"/>
		<path clip-path="url(#STF_SVGID_18_)" fill="#897F76" d="M183.969,510.448c0.04-0.133,0.085-0.277,0.128-0.421
			C184.054,510.17,184.009,510.315,183.969,510.448"/>
		<path clip-path="url(#STF_SVGID_18_)" fill="#897F76" d="M184.688,508.06c0.048-0.165,0.097-0.33,0.148-0.499
			C184.786,507.729,184.736,507.896,184.688,508.06"/>
		<path clip-path="url(#STF_SVGID_18_)" fill="#897F76" d="M184.434,508.906c0.05-0.165,0.1-0.335,0.151-0.507
			C184.535,508.57,184.484,508.741,184.434,508.906"/>
		<path clip-path="url(#STF_SVGID_18_)" fill="#897F76" d="M183.614,511.608c0.015-0.049,0.034-0.109,0.05-0.162
			C183.647,511.498,183.629,511.561,183.614,511.608"/>
		<path clip-path="url(#STF_SVGID_18_)" fill="#897F76" d="M229.154,662.794c-4.613-50.753-33.066-66.9-42.293-123.036
			c-1.845-11.221-2.331-22.159-1.939-32.489c-0.028,0.099-0.057,0.195-0.087,0.292c-0.049,0.169-0.099,0.334-0.147,0.499
			c-0.034,0.115-0.067,0.227-0.103,0.34c-0.051,0.172-0.102,0.342-0.151,0.507c-0.036,0.121-0.07,0.235-0.104,0.353
			c-0.048,0.157-0.095,0.314-0.141,0.466c-0.031,0.104-0.061,0.2-0.092,0.303c-0.043,0.144-0.086,0.289-0.127,0.421
			c-0.043,0.142-0.082,0.268-0.121,0.396c-0.023,0.075-0.048,0.156-0.069,0.226c-0.042,0.14-0.079,0.259-0.115,0.377
			c-0.017,0.053-0.036,0.113-0.051,0.162c-0.096,0.31-0.165,0.529-0.196,0.624c-0.257,0.771-5.659,17.357-6.815,19.93
			c-1.158,2.571-4.244,14.273-4.5,15.044c-0.257,0.771-2.186,17.485-3.601,25.844c-1.416,8.359-4.887,24.301-6.043,29.829
			c-1.158,5.529-2.571,23.145-2.699,31.247c-0.13,8.097,1.8,35.23,1.8,36.515c0,1.286,1.8,17.229,1.928,18.131
			c0.13,0.897,0.642,4.756,0.642,5.142s1.288,10.673,1.416,11.958c0.127,1.284,2.056,13.115,2.056,13.115s0,1.799,0.387,2.699
			c0.385,0.9,1.157,1.544,2.313,1.93c1.159,0.385,6.173,1.67,19.546,3.214c0.673,0.077,1.379,0.146,2.102,0.209
			c0.104,0.009,0.202,0.018,0.306,0.028c0.693,0.057,1.409,0.108,2.141,0.153c0.135,0.008,0.271,0.017,0.409,0.024
			c0.736,0.044,1.484,0.08,2.253,0.112c0.122,0.004,0.246,0.009,0.369,0.014c0.805,0.031,1.624,0.057,2.458,0.076
			c0.023,0,0.045,0,0.066,0.001c0.838,0.018,1.69,0.029,2.551,0.038c0.106,0,0.211,0,0.316,0.001c0.843,0.006,1.693,0.006,2.549,0
			c0.146,0,0.29-0.001,0.436-0.001c0.854-0.007,1.714-0.018,2.579-0.032l0.378-0.009c0.903-0.018,1.809-0.038,2.717-0.064
			c0.016-0.001,0.035-0.002,0.051-0.002c0.933-0.028,1.862-0.062,2.795-0.099c0.067-0.003,0.135-0.005,0.204-0.007
			c0.905-0.037,1.809-0.078,2.707-0.122c0.113-0.006,0.227-0.012,0.34-0.018c0.889-0.044,1.773-0.094,2.648-0.146
			c0.097-0.005,0.192-0.011,0.289-0.018c0.906-0.053,1.806-0.111,2.691-0.171c0.001,0,0.003-0.001,0.005-0.001
			c0.93-0.065,1.846-0.133,2.745-0.203c0.017-0.002,0.035-0.003,0.05-0.004c0.862-0.068,1.707-0.138,2.537-0.211
			c0.075-0.008,0.15-0.015,0.225-0.021c0.812-0.07,1.603-0.145,2.373-0.223c0.067-0.006,0.136-0.014,0.202-0.02
			c0.789-0.08,1.559-0.159,2.299-0.242C232.592,706.998,231.116,684.375,229.154,662.794"/>
		<path clip-path="url(#STF_SVGID_18_)" fill="#897F76" d="M454.189,667.932c-0.007,0.089-0.014,0.177-0.021,0.264
			C454.176,668.108,454.183,668.021,454.189,667.932"/>
		<polyline clip-path="url(#STF_SVGID_18_)" fill="#897F76" points="453.649,673.618 453.648,673.63 453.649,673.618 		"/>
		<path clip-path="url(#STF_SVGID_18_)" fill="#897F76" d="M454.766,659.133c-0.005,0.101-0.01,0.204-0.016,0.308
			C454.756,659.337,454.761,659.234,454.766,659.133"/>
		<path clip-path="url(#STF_SVGID_18_)" fill="#897F76" d="M454.485,663.755c-0.002,0.043-0.005,0.085-0.008,0.124
			C454.48,663.84,454.483,663.798,454.485,663.755"/>
		<path clip-path="url(#STF_SVGID_18_)" fill="#897F76" d="M453.553,674.352c-0.008,0.059-0.017,0.114-0.024,0.17
			C453.536,674.466,453.545,674.41,453.553,674.352"/>
		<path clip-path="url(#STF_SVGID_18_)" fill="#897F76" d="M454.076,669.34v0.007V669.34z"/>
		<path clip-path="url(#STF_SVGID_18_)" fill="#897F76" d="M454.584,662.202c-0.006,0.109-0.013,0.218-0.019,0.325
			C454.571,662.42,454.578,662.312,454.584,662.202"/>
		<path clip-path="url(#STF_SVGID_18_)" fill="#897F76" d="M453.769,672.589c-0.008,0.073-0.016,0.145-0.023,0.214
			C453.753,672.732,453.761,672.662,453.769,672.589"/>
		<path clip-path="url(#STF_SVGID_18_)" fill="#897F76" d="M453.867,671.64c-0.001,0.014-0.003,0.027-0.004,0.039
			C453.864,671.668,453.866,671.653,453.867,671.64"/>
		<path clip-path="url(#STF_SVGID_18_)" fill="#897F76" d="M454.674,660.738c-0.003,0.039-0.005,0.079-0.007,0.118
			C454.669,660.817,454.671,660.777,454.674,660.738"/>
		<path clip-path="url(#STF_SVGID_18_)" fill="#897F76" d="M453.982,670.421c-0.008,0.087-0.016,0.17-0.024,0.254
			C453.967,670.591,453.975,670.508,453.982,670.421"/>
		<path clip-path="url(#STF_SVGID_18_)" fill="#897F76" d="M335.979,656.331c0.04,0.202,0.08,0.394,0.121,0.593
			C336.061,656.729,336.02,656.528,335.979,656.331"/>
		<path clip-path="url(#STF_SVGID_18_)" fill="#897F76" d="M454.393,665.159c-0.007,0.103-0.015,0.207-0.021,0.311
			C454.378,665.366,454.386,665.262,454.393,665.159"/>
		<path clip-path="url(#STF_SVGID_18_)" fill="#897F76" d="M454.935,656.023c-0.004,0.091-0.01,0.183-0.014,0.275
			C454.925,656.206,454.931,656.114,454.935,656.023"/>
		<path clip-path="url(#STF_SVGID_18_)" fill="#897F76" d="M455.009,654.58L455.009,654.58c0,0.007,0,0.014-0.001,0.021
			C455.009,654.594,455.009,654.587,455.009,654.58"/>
		<path clip-path="url(#STF_SVGID_18_)" fill="#897F76" d="M336.804,660.292c-0.021-0.104-0.045-0.209-0.066-0.314
			C336.759,660.082,336.782,660.188,336.804,660.292"/>
		<path clip-path="url(#STF_SVGID_18_)" fill="#897F76" d="M454.286,666.646c-0.001,0.029-0.003,0.059-0.006,0.086
			C454.283,666.704,454.285,666.675,454.286,666.646"/>
		<path clip-path="url(#STF_SVGID_18_)" fill="#897F76" d="M337.224,662.179c-0.026-0.109-0.052-0.217-0.076-0.327
			C337.172,661.962,337.197,662.07,337.224,662.179"/>
		<path clip-path="url(#STF_SVGID_18_)" fill="#897F76" d="M336.429,658.509c-0.027-0.128-0.054-0.252-0.08-0.381
			C336.375,658.256,336.401,658.382,336.429,658.509"/>
		<path clip-path="url(#STF_SVGID_18_)" fill="#897F76" d="M454.85,657.633c-0.001,0.035-0.003,0.07-0.006,0.106
			C454.847,657.703,454.849,657.668,454.85,657.633"/>
		<path clip-path="url(#STF_SVGID_18_)" fill="#897F76" d="M350.171,652.158c-4.954,0.071-11.437-0.619-15.422-1.578
			c0.04,0.197,1.312,6.148,1.352,6.344c0.083,0.405,0.168,0.81,0.248,1.205c0.026,0.128,0.053,0.252,0.08,0.38
			c0.103,0.5,0.207,0.989,0.309,1.469c0.021,0.105,0.045,0.211,0.066,0.314c0.113,0.534,0.229,1.053,0.344,1.56
			c0.024,0.11,0.05,0.218,0.076,0.327c0.118,0.521,0.238,1.031,0.36,1.518c2.699,10.801,6.941,29.124,7.136,31.821
			c0.193,2.701,2.7,11.188,2.7,11.188l-0.772,1.349c0,0-0.194,1.737,0.579,2.701c0.771,0.965,1.158,2.121,0.578,2.893
			c-0.578,0.772-0.964,1.93-0.578,2.701c0.387,0.771,1.93,3.277,1.93,3.856c0,0.32,0.052,2.585,0.098,4.546
			c0.733,0.084,1.445,0.15,1.445,0.15s14.657,4.498,33.814,6.685c19.157,2.186,40.761-0.386,46.289-0.772
			c5.526-0.385,12.601-1.542,14.271-1.928c1.671-0.386,2.06-1.415,2.573-2.187c0.514-0.771,0.898-7.842,0.898-8.357v-2.185
			c0,0-0.385-1.03-0.385-1.542c0-0.514,0.9-1.03,1.286-1.673c0.388-0.646-0.258-2.058-0.258-2.058s-0.258-1.802-0.258-2.315
			c0-0.515,0.387-4.243,0.387-5.271c0-1.029,1.029-7.458,1.287-8.872c0.257-1.415,2.057-14.786,2.827-19.285
			c0.032-0.188,0.064-0.4,0.097-0.62c0.008-0.056,0.017-0.111,0.024-0.17c0.032-0.228,0.064-0.464,0.096-0.722
			c0-0.004,0.001-0.009,0.001-0.012c0.032-0.257,0.064-0.53,0.096-0.815c0.008-0.069,0.016-0.141,0.023-0.214
			c0.032-0.292,0.063-0.593,0.095-0.91c0.001-0.012,0.003-0.025,0.004-0.039c0.031-0.309,0.061-0.634,0.091-0.965
			c0.009-0.084,0.017-0.167,0.024-0.254c0.031-0.348,0.063-0.705,0.094-1.074v-0.007c0.031-0.37,0.063-0.755,0.093-1.145
			c0.007-0.087,0.014-0.175,0.021-0.264c0.03-0.393,0.06-0.791,0.091-1.2c0.003-0.026,0.005-0.057,0.006-0.086
			c0.029-0.384,0.057-0.778,0.085-1.176c0.007-0.104,0.015-0.207,0.021-0.311c0.028-0.421,0.058-0.847,0.085-1.28
			c0.003-0.039,0.006-0.081,0.008-0.124c0.026-0.404,0.054-0.813,0.08-1.228c0.006-0.107,0.013-0.216,0.019-0.325
			c0.028-0.444,0.056-0.893,0.083-1.346c0.002-0.039,0.004-0.079,0.007-0.118c0.024-0.431,0.05-0.863,0.076-1.298
			c0.006-0.104,0.011-0.207,0.016-0.308c0.027-0.465,0.054-0.93,0.078-1.394c0.003-0.036,0.005-0.071,0.006-0.106
			c0.024-0.444,0.048-0.889,0.071-1.334c0.004-0.093,0.01-0.185,0.014-0.275c0.024-0.475,0.05-0.949,0.073-1.423
			c0.001-0.007,0.16-3.364,0.16-3.372c-11.729-5.813-26.285-10.495-46.004-10.495C399.361,640.733,363.628,651.965,350.171,652.158"
			/>
		<path clip-path="url(#STF_SVGID_18_)" fill="#897F76" d="M273.532,656.524c-0.07,0.339-0.14,0.678-0.21,1.019
			C273.393,657.202,273.462,656.862,273.532,656.524"/>
		<path clip-path="url(#STF_SVGID_18_)" fill="#897F76" d="M273.903,654.728c-0.088,0.428-0.178,0.86-0.267,1.292
			C273.726,655.588,273.815,655.155,273.903,654.728"/>
		<path clip-path="url(#STF_SVGID_18_)" fill="#897F76" d="M269.685,675.397c-0.09,0.435-0.175,0.861-0.261,1.284
			C269.51,676.26,269.595,675.832,269.685,675.397"/>
		<path clip-path="url(#STF_SVGID_18_)" fill="#897F76" d="M269.403,676.787c-0.166,0.819-0.327,1.618-0.482,2.387
			C269.076,678.403,269.237,677.608,269.403,676.787"/>
		<path clip-path="url(#STF_SVGID_18_)" fill="#897F76" d="M269.997,673.843c-0.093,0.467-0.187,0.931-0.279,1.385
			C269.811,674.772,269.903,674.311,269.997,673.843"/>
		<path clip-path="url(#STF_SVGID_18_)" fill="#897F76" d="M272.209,662.97c-0.082,0.397-0.164,0.797-0.244,1.194
			C272.045,663.767,272.127,663.367,272.209,662.97"/>
		<path clip-path="url(#STF_SVGID_18_)" fill="#897F76" d="M271.232,667.766c-0.42,2.057-0.83,4.071-1.22,6.001
			C270.402,671.838,270.813,669.821,271.232,667.766"/>
		<path clip-path="url(#STF_SVGID_18_)" fill="#897F76" d="M273.236,657.963c-0.096,0.466-0.192,0.937-0.289,1.406
			C273.044,658.899,273.141,658.429,273.236,657.963"/>
		<path clip-path="url(#STF_SVGID_18_)" fill="#897F76" d="M271.917,664.399c-0.198,0.97-0.394,1.934-0.589,2.891
			C271.523,666.333,271.719,665.369,271.917,664.399"/>
		<path clip-path="url(#STF_SVGID_18_)" fill="#897F76" d="M272.896,659.614c-0.202,0.989-0.407,1.984-0.609,2.979
			C272.489,661.599,272.694,660.604,272.896,659.614"/>
		<path clip-path="url(#STF_SVGID_18_)" fill="#897F76" d="M268.811,679.725c-0.152,0.757-0.299,1.485-0.439,2.18
			C268.512,681.21,268.658,680.48,268.811,679.725"/>
		<path clip-path="url(#STF_SVGID_18_)" fill="#897F76" d="M267.629,685.598c-0.145,0.722-0.274,1.366-0.386,1.928
			C267.354,686.965,267.484,686.319,267.629,685.598"/>
		<path clip-path="url(#STF_SVGID_18_)" fill="#897F76" d="M267.044,688.521c-0.072,0.358-0.131,0.654-0.18,0.888
			C266.912,689.177,266.972,688.874,267.044,688.521"/>
		<path clip-path="url(#STF_SVGID_18_)" fill="#897F76" d="M274.176,653.415c-0.067,0.322-0.134,0.646-0.201,0.971
			C274.042,654.062,274.108,653.737,274.176,653.415"/>
		<path clip-path="url(#STF_SVGID_18_)" fill="#897F76" d="M268.323,682.141c-0.216,1.079-0.416,2.073-0.596,2.968
			C267.907,684.214,268.107,683.22,268.323,682.141"/>
		<path clip-path="url(#STF_SVGID_18_)" fill="#897F76" d="M274.808,650.383c-0.171,0.822-0.348,1.662-0.524,2.519
			C274.46,652.045,274.637,651.205,274.808,650.383"/>
		<path clip-path="url(#STF_SVGID_18_)" fill="#897F76" d="M275.133,648.831c-0.074,0.354-0.149,0.712-0.225,1.074
			C274.983,649.544,275.059,649.185,275.133,648.831"/>
		<path clip-path="url(#STF_SVGID_18_)" fill="#897F76" d="M271.319,647.543c-7.303-2.051-23.196,0.64-23.196,0.64l12.908,71.762
			c0.111-0.035,0.176-0.058,0.176-0.058s0.375,0.024,0.886,0.04c1.219-8.104,4.104-27.171,4.708-30.194
			c0.019-0.088,0.039-0.196,0.063-0.324c0.049-0.233,0.107-0.529,0.18-0.888c0.059-0.293,0.126-0.626,0.199-0.995
			c0.112-0.562,0.24-1.205,0.386-1.928c0.032-0.161,0.065-0.321,0.099-0.489c0.179-0.895,0.38-1.889,0.597-2.968
			c0.015-0.078,0.031-0.157,0.047-0.236c0.14-0.694,0.287-1.423,0.439-2.18c0.037-0.183,0.074-0.366,0.11-0.551
			c0.157-0.769,0.316-1.567,0.481-2.387c0.008-0.035,0.015-0.069,0.021-0.105c0.085-0.423,0.171-0.85,0.261-1.284
			c0.01-0.056,0.021-0.111,0.032-0.169c0.094-0.455,0.188-0.919,0.28-1.386c0.006-0.025,0.011-0.05,0.016-0.076
			c0.391-1.93,0.802-3.944,1.22-6.001c0.032-0.158,0.063-0.316,0.096-0.476c0.195-0.957,0.392-1.921,0.589-2.891
			c0.016-0.078,0.031-0.157,0.049-0.235c0.079-0.397,0.162-0.797,0.243-1.194c0.026-0.126,0.052-0.252,0.077-0.376
			c0.203-0.995,0.406-1.99,0.61-2.979c0.017-0.081,0.033-0.163,0.051-0.245c0.097-0.47,0.192-0.94,0.289-1.406
			c0.028-0.141,0.058-0.279,0.086-0.42c0.07-0.341,0.14-0.68,0.21-1.019c0.035-0.168,0.07-0.337,0.104-0.505
			c0.089-0.432,0.179-0.863,0.267-1.292c0.024-0.113,0.048-0.228,0.071-0.342c0.067-0.325,0.135-0.648,0.201-0.971
			c0.035-0.171,0.071-0.343,0.106-0.514c0.178-0.856,0.353-1.696,0.526-2.519c0.032-0.16,0.066-0.319,0.099-0.478
			c0.076-0.362,0.15-0.721,0.226-1.074c0.011-0.054,0.022-0.11,0.035-0.164C273.937,648.294,272.644,647.915,271.319,647.543"/>
	</g>
    <g id="BOTTOM_LEG_STRIP">
		<path clip-path="url(#STF_SVGID_20_)" fill="#00AB5D" d="M332.477,641.927c-0.212-0.682-0.432-1.362-0.663-2.041
			C332.045,640.564,332.265,641.245,332.477,641.927"/>
		<path clip-path="url(#STF_SVGID_20_)" fill="#00AB5D" d="M331.729,639.641c-0.226-0.658-0.46-1.316-0.706-1.969
			C331.269,638.324,331.503,638.982,331.729,639.641"/>
		<path clip-path="url(#STF_SVGID_20_)" fill="#00AB5D" d="M333.097,644.025c-0.186-0.658-0.38-1.318-0.584-1.978
			C332.717,642.707,332.911,643.368,333.097,644.025"/>
		<path clip-path="url(#STF_SVGID_20_)" fill="#00AB5D" d="M331,637.607c-0.254-0.672-0.521-1.337-0.797-1.998
			C330.479,636.271,330.746,636.936,331,637.607"/>
		<path clip-path="url(#STF_SVGID_20_)" fill="#00AB5D" d="M330.086,635.335c-0.275-0.654-0.563-1.304-0.865-1.946
			C329.523,634.031,329.811,634.681,330.086,635.335"/>
		<path clip-path="url(#STF_SVGID_20_)" fill="#00AB5D" d="M455.168,651.25c0-0.009,0-0.014,0-0.021
			C455.168,651.236,455.168,651.242,455.168,651.25"/>
		<path clip-path="url(#STF_SVGID_20_)" fill="#00AB5D" d="M334.245,648.424c-0.161-0.672-0.33-1.348-0.506-2.027
			C333.915,647.076,334.084,647.753,334.245,648.424"/>
		<path clip-path="url(#STF_SVGID_20_)" fill="#00AB5D" d="M333.707,646.271c-0.178-0.685-0.364-1.373-0.559-2.063
			C333.343,644.897,333.529,645.586,333.707,646.271"/>
		<path clip-path="url(#STF_SVGID_20_)" fill="#00AB5D" d="M334.749,650.58c-0.156-0.693-0.318-1.394-0.488-2.097
			C334.43,649.187,334.593,649.887,334.749,650.58"/>
		<path clip-path="url(#STF_SVGID_20_)" fill="#00AB5D" d="M455.271,648.886c-0.002,0.036-0.002,0.071-0.004,0.106
			C455.27,648.957,455.27,648.922,455.271,648.886"/>
		<path clip-path="url(#STF_SVGID_20_)" fill="#00AB5D" d="M455.441,644.35c-0.001,0.045-0.003,0.09-0.003,0.134
			C455.438,644.439,455.44,644.395,455.441,644.35"/>
		<path clip-path="url(#STF_SVGID_20_)" fill="#00AB5D" d="M455.271,648.886c0.033-0.739,0.063-1.462,0.09-2.16
			c0.028-0.726,0.054-1.477,0.076-2.242c0.001-0.044,0.003-0.089,0.004-0.134c0.023-0.765,0.044-1.545,0.062-2.336
			c-11.377-7.077-19.037-7.95-39.158-12.893c-21.917-5.384-40.539,9.301-66.709,7.882c-7.271-0.394-15.657-2.316-20.416-3.615
			c0.001,0,0.001,0,0.001,0.001c0.303,0.643,0.589,1.292,0.865,1.946c0.039,0.092,0.078,0.182,0.117,0.274
			c0.275,0.661,0.543,1.326,0.797,1.998c0.008,0.021,0.015,0.042,0.022,0.064c0.247,0.652,0.48,1.311,0.706,1.969
			c0.028,0.083,0.058,0.163,0.085,0.245c0.231,0.679,0.451,1.359,0.663,2.041l0.036,0.122c0.204,0.658,0.398,1.318,0.584,1.977
			c0.017,0.061,0.036,0.123,0.052,0.183c0.194,0.689,0.381,1.378,0.559,2.063c0.012,0.042,0.021,0.084,0.032,0.126
			c0.176,0.68,0.345,1.355,0.506,2.027c0.006,0.02,0.009,0.039,0.016,0.06c0.17,0.703,0.332,1.403,0.488,2.097
			c0.001,0.002,0.001,0.002,0.002,0.004c5.009,1.035,10.601,1.734,16.615,1.734c24.633,0,41.909-13.457,64.771-10.51
			c18.108,2.336,29.7,4.423,39.031,9.441c0-0.008,0-0.014,0-0.021c0.035-0.759,0.068-1.504,0.1-2.236
			C455.27,648.957,455.27,648.922,455.271,648.886"/>
		<path clip-path="url(#STF_SVGID_20_)" fill="#00AB5D" d="M161.098,662.946c-0.015-0.239-0.03-0.485-0.046-0.733
			C161.067,662.461,161.083,662.707,161.098,662.946"/>
		<path clip-path="url(#STF_SVGID_20_)" fill="#00AB5D" d="M160.117,645.891c-0.021-0.427-0.041-0.849-0.061-1.267
			C160.076,645.042,160.097,645.464,160.117,645.891"/>
		<path clip-path="url(#STF_SVGID_20_)" fill="#00AB5D" d="M277.238,639.059c-0.063,0.282-0.131,0.58-0.199,0.89
			C277.107,639.639,277.176,639.341,277.238,639.059"/>
		<path clip-path="url(#STF_SVGID_20_)" fill="#00AB5D" d="M160.184,647.215c-0.019-0.364-0.037-0.728-0.055-1.088
			C160.146,646.487,160.165,646.851,160.184,647.215"/>
		<path clip-path="url(#STF_SVGID_20_)" fill="#00AB5D" d="M161.205,664.658c-0.024-0.376-0.048-0.765-0.074-1.166
			C161.157,663.896,161.18,664.28,161.205,664.658"/>
		<path clip-path="url(#STF_SVGID_20_)" fill="#00AB5D" d="M160.255,648.592c-0.016-0.293-0.031-0.585-0.046-0.876
			C160.224,648.007,160.239,648.299,160.255,648.592"/>
		<path clip-path="url(#STF_SVGID_20_)" fill="#00AB5D" d="M277.429,638.231c-0.056,0.235-0.11,0.483-0.17,0.745
			C277.318,638.715,277.373,638.467,277.429,638.231"/>
		<path clip-path="url(#STF_SVGID_20_)" fill="#00AB5D" d="M159.925,641.645c-0.016-0.4-0.031-0.794-0.045-1.179
			C159.894,640.851,159.909,641.244,159.925,641.645"/>
		<path clip-path="url(#STF_SVGID_20_)" fill="#00AB5D" d="M160.036,644.194c-0.014-0.299-0.027-0.596-0.04-0.89
			C160.009,643.599,160.022,643.896,160.036,644.194"/>
		<path clip-path="url(#STF_SVGID_20_)" fill="#00AB5D" d="M160.345,650.273c-0.021-0.392-0.042-0.781-0.063-1.171
			C160.303,649.492,160.325,649.882,160.345,650.273"/>
		<path clip-path="url(#STF_SVGID_20_)" fill="#00AB5D" d="M159.978,642.884c-0.015-0.323-0.027-0.643-0.041-0.958
			C159.95,642.241,159.963,642.561,159.978,642.884"/>
		<path clip-path="url(#STF_SVGID_20_)" fill="#00AB5D" d="M261.145,719.908c-0.011,0.003-0.021,0.006-0.035,0.011
			C261.131,719.912,261.131,719.912,261.145,719.908"/>
		<path clip-path="url(#STF_SVGID_20_)" fill="#00AB5D" d="M276.994,640.151c-0.068,0.308-0.139,0.624-0.211,0.956
			C276.855,640.775,276.926,640.459,276.994,640.151"/>
		<path clip-path="url(#STF_SVGID_20_)" fill="#00AB5D" d="M276.199,643.801c-0.084,0.39-0.167,0.786-0.257,1.194
			C276.032,644.588,276.115,644.189,276.199,643.801"/>
		<path clip-path="url(#STF_SVGID_20_)" fill="#00AB5D" d="M160.774,657.685c-0.021-0.338-0.041-0.683-0.062-1.027
			C160.733,657.003,160.753,657.346,160.774,657.685"/>
		<path clip-path="url(#STF_SVGID_20_)" fill="#00AB5D" d="M160.693,656.332c-0.025-0.433-0.053-0.868-0.077-1.308
			C160.64,655.464,160.667,655.899,160.693,656.332"/>
		<path clip-path="url(#STF_SVGID_20_)" fill="#00AB5D" d="M262.454,717.526c-0.131,0.873-0.253,1.683-0.362,2.4
			C262.201,719.21,262.323,718.398,262.454,717.526"/>
		<path clip-path="url(#STF_SVGID_20_)" fill="#00AB5D" d="M160.861,659.126c-0.02-0.338-0.041-0.678-0.062-1.021
			C160.82,658.449,160.841,658.788,160.861,659.126"/>
		<path clip-path="url(#STF_SVGID_20_)" fill="#00AB5D" d="M262.645,716.268L262.645,716.268c-0.033,0.217-0.063,0.427-0.096,0.637
			C262.581,716.692,262.611,716.484,262.645,716.268"/>
		<path clip-path="url(#STF_SVGID_20_)" fill="#00AB5D" d="M160.593,654.641c-0.019-0.32-0.037-0.643-0.056-0.965
			C160.556,653.998,160.574,654.32,160.593,654.641"/>
		<path clip-path="url(#STF_SVGID_20_)" fill="#00AB5D" d="M160.43,651.785c-0.026-0.45-0.051-0.902-0.076-1.354
			C160.378,650.883,160.403,651.335,160.43,651.785"/>
		<path clip-path="url(#STF_SVGID_20_)" fill="#00AB5D" d="M161.028,661.836c-0.018-0.285-0.037-0.579-0.054-0.873
			C160.992,661.257,161.01,661.55,161.028,661.836"/>
		<path clip-path="url(#STF_SVGID_20_)" fill="#00AB5D" d="M276.742,641.298c-0.069,0.311-0.139,0.632-0.211,0.963
			C276.604,641.93,276.673,641.608,276.742,641.298"/>
		<path clip-path="url(#STF_SVGID_20_)" fill="#00AB5D" d="M276.493,642.433c-0.079,0.368-0.162,0.751-0.245,1.143
			C276.331,643.184,276.414,642.801,276.493,642.433"/>
		<path clip-path="url(#STF_SVGID_20_)" fill="#00AB5D" d="M160.506,653.144c-0.017-0.292-0.034-0.585-0.051-0.879
			C160.473,652.559,160.489,652.852,160.506,653.144"/>
		<path clip-path="url(#STF_SVGID_20_)" fill="#00AB5D" d="M159.756,635.699c-0.002-0.203-0.002-0.403-0.002-0.593
			C159.754,635.297,159.754,635.496,159.756,635.699"/>
		<path clip-path="url(#STF_SVGID_20_)" fill="#00AB5D" d="M246.17,723.867c-0.011,0.002-0.019,0.004-0.029,0.006
			C246.151,723.871,246.159,723.869,246.17,723.867"/>
		<path clip-path="url(#STF_SVGID_20_)" fill="#00AB5D" d="M226.761,445.416c-0.579-0.059-1.161-0.14-1.746-0.238
			c0.559,0.14,1.118,0.272,1.683,0.401C226.719,445.526,226.74,445.468,226.761,445.416"/>
		<path clip-path="url(#STF_SVGID_20_)" fill="#00AB5D" d="M159.906,629.745c0,0.01,0,0.021-0.001,0.032
			C159.905,629.766,159.906,629.755,159.906,629.745"/>
		<path clip-path="url(#STF_SVGID_20_)" fill="#00AB5D" d="M159.846,631.132c0.004-0.097,0.007-0.189,0.012-0.286
			C159.853,630.942,159.85,631.035,159.846,631.132"/>
		<path clip-path="url(#STF_SVGID_20_)" fill="#00AB5D" d="M159.807,632.226c0.003-0.104,0.007-0.211,0.01-0.315
			C159.813,632.016,159.81,632.121,159.807,632.226"/>
		<path clip-path="url(#STF_SVGID_20_)" fill="#00AB5D" d="M279.414,629.71c-0.087,0.349-0.172,0.698-0.254,1.047
			C279.242,630.408,279.327,630.059,279.414,629.71"/>
		<path clip-path="url(#STF_SVGID_20_)" fill="#00AB5D" d="M279.804,628.198c-0.088,0.328-0.177,0.654-0.259,0.982
			C279.627,628.853,279.716,628.525,279.804,628.198"/>
		<path clip-path="url(#STF_SVGID_20_)" fill="#00AB5D" d="M159.778,633.221c0.001-0.094,0.004-0.192,0.007-0.289
			C159.782,633.028,159.779,633.127,159.778,633.221"/>
		<path clip-path="url(#STF_SVGID_20_)" fill="#00AB5D" d="M259.89,720.303c-0.01,0.003-0.019,0.006-0.027,0.008
			C259.871,720.309,259.88,720.306,259.89,720.303"/>
		<path clip-path="url(#STF_SVGID_20_)" fill="#00AB5D" d="M280.724,625.206c-0.101,0.287-0.201,0.575-0.296,0.867
			C280.522,625.781,280.623,625.492,280.724,625.206"/>
		<path clip-path="url(#STF_SVGID_20_)" fill="#00AB5D" d="M280.238,626.69c-0.093,0.308-0.187,0.614-0.274,0.925
			C280.052,627.305,280.146,626.997,280.238,626.69"/>
		<path clip-path="url(#STF_SVGID_20_)" fill="#00AB5D" d="M159.869,640.186c-0.011-0.289-0.02-0.572-0.029-0.85
			C159.849,639.613,159.858,639.896,159.869,640.186"/>
		<path clip-path="url(#STF_SVGID_20_)" fill="#00AB5D" d="M260.876,719.994c-0.011,0.003-0.021,0.007-0.031,0.011
			C260.855,720.001,260.864,719.997,260.876,719.994"/>
		<path clip-path="url(#STF_SVGID_20_)" fill="#00AB5D" d="M278.145,635.231c-0.115,0.498-0.231,0.986-0.351,1.464
			C277.913,636.219,278.029,635.729,278.145,635.231"/>
		<path clip-path="url(#STF_SVGID_20_)" fill="#00AB5D" d="M159.796,637.887c-0.008-0.338-0.017-0.666-0.022-0.982
			C159.78,637.221,159.789,637.549,159.796,637.887"/>
		<path clip-path="url(#STF_SVGID_20_)" fill="#00AB5D" d="M277.794,636.695c-0.044,0.176-0.093,0.378-0.143,0.589
			C277.701,637.073,277.75,636.871,277.794,636.695"/>
		<path clip-path="url(#STF_SVGID_20_)" fill="#00AB5D" d="M159.828,638.95c-0.008-0.257-0.016-0.506-0.022-0.752
			C159.813,638.444,159.819,638.693,159.828,638.95"/>
		<path clip-path="url(#STF_SVGID_20_)" fill="#00AB5D" d="M277.62,637.409c-0.05,0.211-0.104,0.437-0.159,0.679
			C277.517,637.846,277.57,637.62,277.62,637.409"/>
		<path clip-path="url(#STF_SVGID_20_)" fill="#00AB5D" d="M159.771,636.726c-0.004-0.256-0.009-0.505-0.011-0.745
			C159.762,636.221,159.767,636.469,159.771,636.726"/>
		<path clip-path="url(#STF_SVGID_20_)" fill="#00AB5D" d="M279.069,631.152c-0.296,1.278-0.574,2.544-0.852,3.761
			C278.495,633.696,278.772,632.431,279.069,631.152"/>
		<path clip-path="url(#STF_SVGID_20_)" fill="#00AB5D" d="M159.753,634.863c0-0.259,0.001-0.51,0.005-0.737
			C159.754,634.354,159.753,634.604,159.753,634.863"/>
		<polyline clip-path="url(#STF_SVGID_20_)" fill="#00AB5D" points="244.46,724.22 244.464,724.219 244.46,724.22 		"/>
		<path clip-path="url(#STF_SVGID_20_)" fill="#00AB5D" d="M160.951,660.589c-0.026-0.408-0.052-0.825-0.077-1.248
			C160.899,659.763,160.925,660.181,160.951,660.589"/>
		<path clip-path="url(#STF_SVGID_20_)" fill="#00AB5D" d="M245.377,621.346c-1.202-4.301-2.388-7.864-3.533-10.457
			c-20.763-46.908-25.377-55.751-31.145-85.741c-4.219-21.939,8.616-61.09,15.998-79.568c-0.564-0.129-1.125-0.262-1.683-0.401
			c-4.752-0.796-9.768-2.883-17.092-5.6c-6.403,18.905-15.004,63.47-12.218,84.416c5.799,43.611,22.504,66.464,32.168,90.098
			c0.832,2.035,1.633,4.367,2.402,6.94c-25.8,0.063-49.48,3.257-70.369,8.713c0,0.01,0,0.021-0.001,0.032
			c-0.018,0.363-0.033,0.718-0.047,1.068c-0.005,0.097-0.008,0.189-0.011,0.286c-0.012,0.264-0.021,0.523-0.03,0.777
			c-0.003,0.105-0.006,0.212-0.009,0.316c-0.009,0.241-0.015,0.477-0.022,0.706c-0.003,0.097-0.006,0.195-0.007,0.289
			c-0.008,0.312-0.016,0.616-0.02,0.905c-0.004,0.228-0.004,0.479-0.005,0.737c0,0.078,0,0.161,0.001,0.243
			c0,0.189,0,0.389,0.002,0.593c0.001,0.093,0.002,0.186,0.003,0.281c0.002,0.24,0.006,0.489,0.012,0.745
			c0.001,0.061,0.002,0.117,0.003,0.179c0.005,0.316,0.014,0.645,0.022,0.982c0.003,0.104,0.006,0.207,0.01,0.312
			c0.006,0.245,0.013,0.495,0.022,0.752c0.003,0.128,0.008,0.256,0.011,0.386c0.01,0.277,0.019,0.561,0.029,0.85
			c0.004,0.095,0.007,0.186,0.011,0.28c0.014,0.386,0.028,0.778,0.044,1.179c0.004,0.093,0.008,0.188,0.013,0.281
			c0.012,0.315,0.025,0.635,0.041,0.958c0.005,0.139,0.011,0.28,0.019,0.421c0.013,0.294,0.025,0.591,0.04,0.89
			c0.006,0.144,0.014,0.285,0.02,0.43c0.02,0.418,0.041,0.84,0.062,1.267c0.004,0.078,0.008,0.158,0.012,0.236
			c0.018,0.36,0.036,0.724,0.055,1.088c0.008,0.167,0.017,0.334,0.026,0.501c0.015,0.291,0.03,0.583,0.046,0.876
			c0.007,0.17,0.018,0.339,0.026,0.511c0.021,0.39,0.042,0.779,0.063,1.171c0.003,0.053,0.005,0.105,0.009,0.157
			c0.025,0.452,0.05,0.904,0.076,1.354c0.009,0.16,0.018,0.319,0.026,0.479c0.017,0.294,0.034,0.587,0.05,0.879
			c0.01,0.178,0.02,0.354,0.03,0.531c0.019,0.323,0.038,0.646,0.056,0.966c0.007,0.127,0.015,0.255,0.022,0.384
			c0.025,0.439,0.051,0.875,0.078,1.308c0.006,0.11,0.012,0.217,0.019,0.325c0.021,0.345,0.042,0.689,0.062,1.027
			c0.007,0.141,0.017,0.281,0.024,0.42c0.021,0.344,0.042,0.684,0.063,1.021c0.004,0.071,0.009,0.144,0.013,0.215
			c0.026,0.423,0.051,0.84,0.078,1.247c0.007,0.127,0.015,0.251,0.023,0.375c0.018,0.294,0.036,0.587,0.054,0.873
			c0.006,0.127,0.015,0.252,0.023,0.377c0.016,0.248,0.031,0.494,0.046,0.733c0.011,0.184,0.023,0.368,0.034,0.546
			c0.025,0.401,0.049,0.79,0.073,1.166c0.031,0.494,0.062,0.97,0.089,1.416c20.744-10.896,46.397-19.377,74.126-22.108
			c4.267,24.282,7.194,55.443,9.041,80.254c0.001,0,0.002-0.001,0.005-0.001c0.564-0.113,1.122-0.229,1.676-0.346
			c0.011-0.002,0.019-0.004,0.029-0.006c6.112-1.302,11.333-2.829,13.692-3.557c0.009-0.002,0.019-0.005,0.027-0.008
			c0.41-0.128,0.733-0.228,0.957-0.298c0.008-0.004,0.019-0.008,0.028-0.011c0.102-0.031,0.181-0.058,0.234-0.075
			c0.014-0.005,0.025-0.008,0.034-0.011c0.029-0.01,0.063-0.022,0.063-0.022s0.377,0.025,0.886,0.041
			c0.108-0.719,0.229-1.527,0.362-2.4c0.029-0.204,0.062-0.413,0.095-0.622c0.031-0.21,0.062-0.42,0.094-0.637
			c-3.366-23.408-7.729-51.32-12.191-73.198c7.649-0.154,15.41,0.151,23.231,0.983c0.312,0.087,1.079,0.459,2.246,1.011
			c0.004-0.022,0.009-0.044,0.014-0.068c0.088-0.408,0.174-0.805,0.255-1.194c0.017-0.075,0.032-0.151,0.049-0.226
			c0.084-0.392,0.167-0.774,0.246-1.143c0.014-0.059,0.026-0.114,0.037-0.172c0.073-0.331,0.143-0.652,0.212-0.963
			c0.012-0.063,0.027-0.128,0.039-0.19c0.075-0.332,0.145-0.648,0.213-0.956c0.015-0.068,0.03-0.136,0.045-0.203
			c0.068-0.31,0.137-0.607,0.199-0.89c0.007-0.028,0.012-0.054,0.021-0.082c0.06-0.262,0.115-0.51,0.17-0.745
			c0.01-0.048,0.022-0.097,0.032-0.144c0.056-0.242,0.109-0.468,0.159-0.679c0.011-0.042,0.02-0.084,0.031-0.125
			c0.051-0.211,0.099-0.413,0.144-0.589c0.118-0.478,0.234-0.966,0.351-1.464c0.022-0.104,0.048-0.213,0.071-0.318
			c0.278-1.217,0.557-2.482,0.853-3.761c0.03-0.133,0.06-0.264,0.091-0.396c0.081-0.349,0.167-0.698,0.254-1.047
			c0.043-0.177,0.085-0.353,0.131-0.529c0.082-0.328,0.171-0.654,0.259-0.982c0.053-0.194,0.104-0.389,0.16-0.583
			c0.088-0.311,0.182-0.617,0.274-0.925c0.063-0.207,0.125-0.413,0.19-0.617c0.095-0.292,0.195-0.58,0.294-0.867
			c0.051-0.142,0.096-0.287,0.146-0.426C268.707,622.978,256.857,621.851,245.377,621.346"/>
	</g>
    </g>
    </g>
	<g clip-path="url(#STF_SVGID_2_)">
		<defs>
			<rect id="STF_SVGID_17_" x="39.972" y="42.998" width="543" height="702.705"/>
		</defs>
		<clipPath id="STF_SVGID_18_">
			<use xlink:href="#STF_SVGID_17_"  overflow="visible"/>
		</clipPath>
    
  </g>
  
	<g clip-path="url(#STF_SVGID_2_)">
		<defs>
			<rect id="STF_SVGID_19_" x="39.972" y="42.998" width="543" height="702.705"/>
		</defs>
		<clipPath id="STF_SVGID_20_">
			<use xlink:href="#STF_SVGID_19_"  overflow="visible"/>
		</clipPath>
    
  </g>
  <g id="CUSTOM"></g>
	<g clip-path="url(#STF_SVGID_2_)">
		<defs>
			<rect id="STF_SVGID_21_" x="39.972" y="42.998" width="543" height="702.705"/>
		</defs>
		<clipPath id="STF_SVGID_22_">
			<use xlink:href="#STF_SVGID_21_"  overflow="visible"/>
		</clipPath>
    <g id="CROTCH">
		<path clip-path="url(#STF_SVGID_22_)" fill="#004D86" d="M347.227,716.35c-0.387-0.771,0-1.929,0.578-2.701
			c0.58-0.771,0.193-1.928-0.578-2.893c-0.773-0.964-0.579-2.701-0.579-2.701l0.772-1.349c0,0-2.507-8.487-2.7-11.188
			c-0.194-2.697-4.437-21.021-7.135-31.821c-2.701-10.801-4.631-30.279-16.009-41.467c-7.221-7.099-24.494-9.065-32.596-6.557
			c-8.101,2.507-9.258,13.308-11.186,21.022c-1.929,7.713-10.222,49.181-10.995,53.037c-0.604,3.023-3.488,22.091-4.707,30.194
			c0.684,0.022,1.61,0.034,2.2-0.04c1.029-0.129,1.929-1.415,1.929-1.415s2.185-0.516,4.244-1.028
			c2.054-0.517,4.113-1.672,5.914-3.473c1.801-1.8,1.157-5.272,1.157-5.272s1.284-4.885,1.67-6.299
			c0.385-1.415,2.701-6.173,3.216-7.33c0.514-1.156,0.386-2.57,0.386-2.57s6.172-14.787,9.9-26.358
			c3.727-11.573,11.958-50.403,11.958-50.403l7.586,2.313c0,0,1.671,5.787,1.8,7.588c0.13,1.801,3.342,14.016,3.985,16.585
			c0.644,2.572,5.145,18.262,6.686,22.761c1.544,4.499,8.744,23.788,10.031,26.872c1.284,3.087,4.371,9.387,4.499,10.03
			c0.128,0.643,0.128,1.801,0.128,2.441c0,0.642,0.386,2.573,0.386,2.573l0.771,1.028c0,0,0,1.285,0.13,1.93
			c0.129,0.644,0.642,1.929,0.771,2.313c0.13,0.386,1.158,5.015,1.158,5.015v1.412l0.255,1.288c0,0,1.158,1.799,1.544,2.442
			c0.386,0.645,3.086,2.187,3.988,2.315c0.262,0.037,0.567,0.074,0.869,0.107c-0.046-1.961-0.098-4.226-0.098-4.546
			C349.156,719.627,347.613,717.12,347.227,716.35"/>
	</g>
    </g>
	<g clip-path="url(#STF_SVGID_2_)">
		<defs>
			<rect id="STF_SVGID_23_" x="39.972" y="42.998" width="543" height="702.705"/>
		</defs>
		<clipPath id="STF_SVGID_24_">
			<use xlink:href="#STF_SVGID_23_"  overflow="visible"/>
		</clipPath>
		<g opacity="0.35" clip-path="url(#STF_SVGID_24_)">
			<g>
				<defs>
					<rect id="STF_SVGID_25_" x="246.061" y="85.283" width="127.217" height="22.664"/>
				</defs>
				<clipPath id="STF_SVGID_26_">
					<use xlink:href="#STF_SVGID_25_"  overflow="visible"/>
				</clipPath>
				
					<path clip-path="url(#STF_SVGID_26_)" fill="none" stroke="#000000" stroke-width="0.83" stroke-miterlimit="10" stroke-dasharray="0.713,0.713" d="
					M372.972,87.942c0,0-12.723,19.143-61.831,19.629c-49.563,0.491-64.774-22.083-64.774-22.083"/>
			</g>
		</g>
		<g opacity="0.35" clip-path="url(#STF_SVGID_24_)">
			<g>
				<defs>
					<rect id="STF_SVGID_27_" x="113.977" y="248.959" width="68.104" height="9.003"/>
				</defs>
				<clipPath id="STF_SVGID_28_">
					<use xlink:href="#STF_SVGID_27_"  overflow="visible"/>
				</clipPath>
				
					<path clip-path="url(#STF_SVGID_28_)" fill="none" stroke="#000000" stroke-width="0.83" stroke-miterlimit="10" stroke-dasharray="0.713,0.713" d="
					M114.075,249.315c0,0,15.603,4.315,35.189,6.307c19.586,1.992,32.817,1.972,32.817,1.972"/>
			</g>
		</g>
		<g opacity="0.35" clip-path="url(#STF_SVGID_24_)">
			<g>
				<defs>
					<rect id="STF_SVGID_29_" x="113.977" y="251.907" width="68.104" height="9.001"/>
				</defs>
				<clipPath id="STF_SVGID_30_">
					<use xlink:href="#STF_SVGID_29_"  overflow="visible"/>
				</clipPath>
				
					<path clip-path="url(#STF_SVGID_30_)" fill="none" stroke="#000000" stroke-width="0.83" stroke-miterlimit="10" stroke-dasharray="0.713,0.713" d="
					M114.075,252.262c0,0,15.603,4.316,35.189,6.307c19.586,1.993,32.817,1.972,32.817,1.972"/>
			</g>
		</g>
		<g opacity="0.35" clip-path="url(#STF_SVGID_24_)">
			<g>
				<defs>
					<rect id="STF_SVGID_31_" x="434.524" y="248.959" width="68.104" height="9.003"/>
				</defs>
				<clipPath id="STF_SVGID_32_">
					<use xlink:href="#STF_SVGID_31_"  overflow="visible"/>
				</clipPath>
				
					<path clip-path="url(#STF_SVGID_32_)" fill="none" stroke="#000000" stroke-width="0.83" stroke-miterlimit="10" stroke-dasharray="0.713,0.713" d="
					M502.531,249.315c0,0-15.603,4.315-35.188,6.307c-19.585,1.992-32.816,1.972-32.816,1.972"/>
			</g>
		</g>
		<g opacity="0.35" clip-path="url(#STF_SVGID_24_)">
			<g>
				<defs>
					<rect id="STF_SVGID_33_" x="434.524" y="251.907" width="68.104" height="9.001"/>
				</defs>
				<clipPath id="STF_SVGID_34_">
					<use xlink:href="#STF_SVGID_33_"  overflow="visible"/>
				</clipPath>
				
					<path clip-path="url(#STF_SVGID_34_)" fill="none" stroke="#000000" stroke-width="0.83" stroke-miterlimit="10" stroke-dasharray="0.713,0.713" d="
					M502.531,252.262c0,0-15.603,4.316-35.188,6.307c-19.585,1.993-32.816,1.972-32.816,1.972"/>
			</g>
		</g>
		<g opacity="0.35" clip-path="url(#STF_SVGID_24_)">
			<g>
				<defs>
					<rect id="STF_SVGID_35_" x="430.407" y="126.183" width="23.329" height="127.13"/>
				</defs>
				<clipPath id="STF_SVGID_36_">
					<use xlink:href="#STF_SVGID_35_"  overflow="visible"/>
				</clipPath>
				<path clip-path="url(#STF_SVGID_36_)" fill="none" stroke="#000000" stroke-width="0.83" stroke-miterlimit="10" d="
					M453.369,126.185c0,0,0.034,9.264-1.295,16.567c-1.327,7.305-8.63,34.193-10.291,42.161c-1.659,7.968-9.295,50.128-10.29,55.107
					c-0.996,4.98-0.665,13.279-0.665,13.279"/>
			</g>
		</g>
		<g opacity="0.35" clip-path="url(#STF_SVGID_24_)">
			<g>
				<defs>
					<rect id="STF_SVGID_37_" x="162.212" y="126.341" width="23.326" height="126.972"/>
				</defs>
				<clipPath id="STF_SVGID_38_">
					<use xlink:href="#STF_SVGID_37_"  overflow="visible"/>
				</clipPath>
				<path clip-path="url(#STF_SVGID_38_)" fill="none" stroke="#000000" stroke-width="0.83" stroke-miterlimit="10" d="
					M162.581,126.342c0,0-0.038,9.106,1.291,16.411c1.327,7.303,8.631,34.193,10.291,42.161c1.66,7.967,9.296,50.127,10.291,55.107
					c0.995,4.979,0.664,13.277,0.664,13.277"/>
			</g>
		</g>
		<g opacity="0.35" clip-path="url(#STF_SVGID_24_)">
			<g>
				<defs>
					<rect id="STF_SVGID_39_" x="244.362" y="86.854" width="130.894" height="23.668"/>
				</defs>
				<clipPath id="STF_SVGID_40_">
					<use xlink:href="#STF_SVGID_39_"  overflow="visible"/>
				</clipPath>
				
					<path clip-path="url(#STF_SVGID_40_)" fill="none" stroke="#000000" stroke-width="0.83" stroke-miterlimit="10" stroke-dasharray="0.713,0.713" d="
					M374.957,89.207c0,0-14.737,20.454-63.847,20.941c-49.563,0.49-66.45-23.079-66.45-23.079"/>
			</g>
		</g>
		<g clip-path="url(#STF_SVGID_24_)">
			<g>
				<defs>
					<rect id="STF_SVGID_41_" x="165.482" y="438.249" width="283.962" height="282.162"/>
				</defs>
				<clipPath id="STF_SVGID_42_">
					<use xlink:href="#STF_SVGID_41_"  overflow="visible"/>
				</clipPath>
				<g opacity="0.5" clip-path="url(#STF_SVGID_42_)">
					<g>
						<defs>
							<rect id="STF_SVGID_43_" x="197.118" y="438.249" width="223.018" height="20.725"/>
						</defs>
						<clipPath id="STF_SVGID_44_">
							<use xlink:href="#STF_SVGID_43_"  overflow="visible"/>
						</clipPath>
						
							<path clip-path="url(#STF_SVGID_44_)" fill="none" stroke="#897F76" stroke-width="0.722" stroke-miterlimit="10" stroke-dasharray="1.739,0.87" d="
							M197.304,438.557c0,0,6.838,4.875,12.749,7.371c5.909,2.494,29.152,9.718,44.777,11.556
							c15.626,1.837,49.767,1.181,74.322,0.263c24.556-0.92,58.173-3.677,61.588-3.938c3.413-0.264,9.587-0.657,10.768-0.919
							c1.182-0.264,10.242-2.364,12.739-4.335c2.492-1.97,3.28-2.89,3.806-3.676c0.526-0.788,1.005-2.4,1.005-2.4l0.765-4.171"/>
					</g>
				</g>
				<g opacity="0.5" clip-path="url(#STF_SVGID_42_)">
					<g>
						<defs>
							<rect id="STF_SVGID_45_" x="196.22" y="448.125" width="223.917" height="23.146"/>
						</defs>
						<clipPath id="STF_SVGID_46_">
							<use xlink:href="#STF_SVGID_45_"  overflow="visible"/>
						</clipPath>
						
							<path clip-path="url(#STF_SVGID_46_)" fill="none" stroke="#897F76" stroke-width="0.722" stroke-miterlimit="10" stroke-dasharray="1.739,0.87" d="
							M196.532,448.199c0.136,0.566,0.521,2.456,1.046,3.112c0.524,0.655,7.484,4.728,20.091,8.798
							c12.607,4.07,36.505,9.718,52.263,10.636c15.758,0.92,47.666-1.575,70.776-1.313c23.111,0.264,56.467-4.464,65.789-6.566
							c9.322-2.101,13.374-8.134,13.374-8.134"/>
					</g>
				</g>
				<g opacity="0.5" clip-path="url(#STF_SVGID_42_)">
					<g>
						<defs>
							<rect id="STF_SVGID_47_" x="195.408" y="455.79" width="224.732" height="22.164"/>
						</defs>
						<clipPath id="STF_SVGID_48_">
							<use xlink:href="#STF_SVGID_47_"  overflow="visible"/>
						</clipPath>
						
							<path clip-path="url(#STF_SVGID_48_)" fill="none" stroke="#897F76" stroke-width="0.722" stroke-miterlimit="10" stroke-dasharray="1.739,0.87" d="
							M195.608,456.039c0,0,8.01,6.435,29.02,12.738c21.011,6.302,40.049,10.243,82.597,8.403
							c42.545-1.839,67.364-2.102,84.827-5.12c17.467-3.022,19.566-4.467,21.143-5.122c1.576-0.657,4.205-1.838,4.859-2.496
							c0.655-0.656,1.817-2.435,1.817-2.435"/>
					</g>
				</g>
				<g opacity="0.5" clip-path="url(#STF_SVGID_42_)">
					<g>
						<defs>
							<rect id="STF_SVGID_49_" x="165.482" y="693.177" width="117.561" height="17.397"/>
						</defs>
						<clipPath id="STF_SVGID_50_">
							<use xlink:href="#STF_SVGID_49_"  overflow="visible"/>
						</clipPath>
						
							<path clip-path="url(#STF_SVGID_50_)" fill="none" stroke="#897F76" stroke-width="0.722" stroke-miterlimit="10" stroke-dasharray="1.739,0.87" d="
							M165.544,705.871c0,0,14.902,2.959,30.52,3.554c15.617,0.594,21.646,2.077,42.503-1.381
							c20.857-3.461,29.162-5.043,32.126-6.327c2.966-1.286,6.128-2.371,7.611-3.36c1.483-0.987,3.264-2.176,3.361-2.571
							c0.099-0.396,1.088-2.471,1.088-2.471"/>
					</g>
				</g>
				<g opacity="0.5" clip-path="url(#STF_SVGID_42_)">
					<g>
						<defs>
							<rect id="STF_SVGID_51_" x="166.043" y="702.411" width="113.178" height="12.18"/>
						</defs>
						<clipPath id="STF_SVGID_52_">
							<use xlink:href="#STF_SVGID_51_"  overflow="visible"/>
						</clipPath>
						
							<path clip-path="url(#STF_SVGID_52_)" fill="none" stroke="#897F76" stroke-width="0.722" stroke-miterlimit="10" stroke-dasharray="1.739,0.87" d="
							M166.114,709.822c0,0,19.769,4.448,36.771,4.448c17.001,0,33.708-1.187,50.313-4.646c16.608-3.459,22.54-5.141,23.527-5.733
							c0.988-0.592,2.371-1.187,2.371-1.187"/>
					</g>
				</g>
				<g opacity="0.5" clip-path="url(#STF_SVGID_42_)">
					<g>
						<defs>
							<rect id="STF_SVGID_53_" x="340.817" y="711.287" width="107.769" height="9.124"/>
						</defs>
						<clipPath id="STF_SVGID_54_">
							<use xlink:href="#STF_SVGID_53_"  overflow="visible"/>
						</clipPath>
						
							<path clip-path="url(#STF_SVGID_54_)" fill="none" stroke="#897F76" stroke-width="0.722" stroke-miterlimit="10" stroke-dasharray="1.739,0.87" d="
							M341.044,711.514c0,0,1.489,1.489,4.217,1.984c1.484,0.27,2.544,0.15,2.544,0.15s22.382,3.197,28.459,4.066
							c6.076,0.869,19.472,3.472,38.817,1.859c19.346-1.611,33.464-3.416,33.464-3.416"/>
					</g>
				</g>
				<g opacity="0.5" clip-path="url(#STF_SVGID_42_)">
					<g>
						<defs>
							<rect id="STF_SVGID_55_" x="339.229" y="706.217" width="110.215" height="9.625"/>
						</defs>
						<clipPath id="STF_SVGID_56_">
							<use xlink:href="#STF_SVGID_55_"  overflow="visible"/>
						</clipPath>
						
							<path clip-path="url(#STF_SVGID_56_)" fill="none" stroke="#897F76" stroke-width="0.722" stroke-miterlimit="10" stroke-dasharray="1.739,0.87" d="
							M339.556,706.306c0,0-0.742,2.604,12.897,4.464c13.642,1.859,31.377,6.078,57.792,4.341
							c26.416-1.734,38.203-3.24,38.943-4.225"/>
					</g>
				</g>
			</g>
		</g>
		<g opacity="0.5" clip-path="url(#STF_SVGID_24_)">
			<g>
				<defs>
					<rect id="STF_SVGID_57_" x="418.628" y="437.774" width="7.504" height="44.865"/>
				</defs>
				<clipPath id="STF_SVGID_58_">
					<use xlink:href="#STF_SVGID_57_"  overflow="visible"/>
				</clipPath>
				
					<path clip-path="url(#STF_SVGID_58_)" fill="none" stroke="#897F76" stroke-width="0.481" stroke-miterlimit="10" stroke-dasharray="1.739,0.87" d="
					M419.871,437.799c0,0-0.24,2.088-0.504,3.138c-0.264,1.052-0.526,2.365-0.526,3.285c0,0.918,0.133,2.23,0.395,3.02
					c0.263,0.788,1.669,4.545,1.426,5.358c-0.244,0.813-1.163,2.65-1.163,3.702c0,1.05,0.395,7.092,0.787,8.667
					c0.394,1.576,2.231,8.534,3.021,9.847c0.787,1.313,1.183,3.021,1.313,3.81c0.132,0.788,1.313,3.939,1.313,3.939"/>
			</g>
		</g>
		<g opacity="0.5" clip-path="url(#STF_SVGID_24_)">
			<g>
				<defs>
					<rect id="STF_SVGID_59_" x="262.153" y="614.418" width="87.216" height="110.61"/>
				</defs>
				<clipPath id="STF_SVGID_60_">
					<use xlink:href="#STF_SVGID_59_"  overflow="visible"/>
				</clipPath>
				
					<path clip-path="url(#STF_SVGID_60_)" fill="none" stroke="#887F76" stroke-width="0.481" stroke-miterlimit="10" stroke-dasharray="1.739,0.87" d="
					M349.156,725.028v-4.822c0-0.579-1.543-3.086-1.93-3.856c-0.386-0.771,0-1.929,0.579-2.701c0.579-0.771,0.192-1.928-0.579-2.893
					c-0.772-0.964-0.579-2.701-0.579-2.701l0.772-1.349c0,0-2.507-8.487-2.7-11.188c-0.194-2.698-4.437-21.021-7.135-31.822
					c-2.701-10.801-4.631-30.279-16.009-41.467c-7.221-7.099-24.494-9.065-32.596-6.557c-8.101,2.507-9.257,13.308-11.187,21.022
					c-1.928,7.713-10.222,49.181-10.994,53.037c-0.771,3.857-4.436,29.895-4.436,29.895"/>
			</g>
		</g>
	</g>
	<g clip-path="url(#STF_SVGID_2_)">
		<defs>
			<rect id="STF_SVGID_61_" x="39.972" y="42.998" width="543" height="702.705"/>
		</defs>
		<clipPath id="STF_SVGID_62_">
			<use xlink:href="#STF_SVGID_61_"  overflow="visible"/>
		</clipPath>
		<path clip-path="url(#STF_SVGID_62_)" d="M185.156,248.442c0,0.005,0,0.013,0,0.018C185.156,248.456,185.156,248.448,185.156,248.442"
			/>
		<path clip-path="url(#STF_SVGID_62_)" d="M185.169,249.563"/>
		<path clip-path="url(#STF_SVGID_62_)" fill="#FFFFFF" d="M311.141,89.905c25.763,0.245,45.392-13.004,45.146-15.212
			c-0.245-2.208-4.47-6.309-7.169-8.272c-2.698-1.963-15.531-3.273-41.294-3.133c-26.057,0.143-34.887,1.139-38.446,1.994
			s-9.421,7.356-8.687,8.828C261.427,75.582,285.528,89.661,311.141,89.905"/>
		<g opacity="0.35" clip-path="url(#STF_SVGID_62_)">
			<g>
				<defs>
					<rect id="STF_SVGID_63_" x="260.628" y="63.278" width="95.66" height="26.631"/>
				</defs>
				<clipPath id="STF_SVGID_64_">
					<use xlink:href="#STF_SVGID_63_"  overflow="visible"/>
				</clipPath>
				<g clip-path="url(#STF_SVGID_64_)">
					<defs>
						<path id="STF_SVGID_65_" d="M311.141,89.906c25.763,0.245,45.392-13.005,45.146-15.212c-0.245-2.21-4.47-6.31-7.169-8.273
							c-2.698-1.962-15.531-3.273-41.294-3.132c-26.057,0.142-34.887,1.138-38.446,1.993c-3.561,0.855-9.421,7.357-8.687,8.828
							C261.427,75.582,285.528,89.661,311.141,89.906"/>
					</defs>
					<clipPath id="STF_SVGID_66_">
						<use xlink:href="#STF_SVGID_65_"  overflow="visible"/>
					</clipPath>
					
						<radialGradient id="STF_SVGID_67_" cx="0.0684" cy="790.8037" r="0.8864" gradientTransform="matrix(84.7313 0 0 -33.6344 303.3125 26662.9473)" gradientUnits="userSpaceOnUse">
						<stop  offset="0" style="stop-color:#FFFFFF"/>
						<stop  offset="1" style="stop-color:#FFFFFF"/>
					</radialGradient>
					<rect x="259.956" y="63.147" clip-path="url(#STF_SVGID_66_)" fill="url(#STF_SVGID_67_)" width="96.576" height="27.003"/>
				</g>
				<g clip-path="url(#STF_SVGID_64_)">
					<defs>
						<path id="STF_SVGID_68_" d="M311.141,89.906c25.763,0.245,45.392-13.005,45.146-15.212c-0.245-2.21-4.47-6.31-7.169-8.273
							c-2.698-1.962-15.531-3.273-41.294-3.132c-26.057,0.142-34.887,1.138-38.446,1.993c-3.561,0.855-9.421,7.357-8.687,8.828
							C261.427,75.582,285.528,89.661,311.141,89.906"/>
					</defs>
					<clipPath id="STF_SVGID_69_">
						<use xlink:href="#STF_SVGID_68_"  overflow="visible"/>
					</clipPath>
					
						<radialGradient id="STF_SVGID_70_" cx="0.0684" cy="790.8037" r="0.8864" gradientTransform="matrix(84.7313 0 0 -33.6344 303.3125 26662.9473)" gradientUnits="userSpaceOnUse">
						<stop  offset="0" style="stop-color:#FFFFFF"/>
						<stop  offset="0.1085" style="stop-color:#EBEBEB"/>
						<stop  offset="0.3308" style="stop-color:#B7B7B7"/>
						<stop  offset="0.6481" style="stop-color:#646464"/>
						<stop  offset="1" style="stop-color:#000000"/>
					</radialGradient>
					<rect x="259.956" y="63.147" clip-path="url(#STF_SVGID_69_)" fill="url(#STF_SVGID_70_)" width="96.576" height="27.003"/>
				</g>
			</g>
		</g>
		<path clip-path="url(#STF_SVGID_62_)" fill-rule="evenodd" clip-rule="evenodd" fill="#6D7DBC" d="M174.063,681.531
			c-2.789,0-5.06,2.269-5.06,5.058s2.271,5.058,5.06,5.058h8.911c2.791,0,5.06-2.269,5.06-5.058s-2.269-5.058-5.058-5.058H174.063z"
			/>
		<path clip-path="url(#STF_SVGID_62_)" fill="none" stroke="#6D7DBC" stroke-width="0.725" d="M174.063,681.531
			c-2.789,0-5.06,2.269-5.06,5.058s2.271,5.058,5.06,5.058h8.911c2.791,0,5.06-2.269,5.06-5.058s-2.269-5.058-5.058-5.058H174.063z"
			/>
		<path clip-path="url(#STF_SVGID_62_)" fill-rule="evenodd" clip-rule="evenodd" fill="#6D7DBC" d="M182.975,681.994
			c2.539,0,4.596,2.058,4.596,4.595c0,2.539-2.057,4.598-4.597,4.598h-8.911c-2.538,0-4.596-2.059-4.596-4.598
			c0-2.537,2.058-4.595,4.596-4.595H182.975z"/>
		<path clip-path="url(#STF_SVGID_62_)" fill="none" stroke="#FFFFFF" stroke-width="0.363" stroke-miterlimit="3.864" d="
			M182.975,681.994c2.539,0,4.596,2.058,4.596,4.595c0,2.539-2.057,4.598-4.597,4.598h-8.911c-2.538,0-4.596-2.059-4.596-4.598
			c0-2.537,2.058-4.595,4.596-4.595H182.975z"/>
		<path clip-path="url(#STF_SVGID_62_)" fill="#FFFFFF" d="M170.885,686.576c0-1.775,1.377-3.227,3.123-3.344v6.688
			C172.262,689.803,170.885,688.348,170.885,686.576"/>
		<polygon clip-path="url(#STF_SVGID_62_)" fill-rule="evenodd" clip-rule="evenodd" fill="#FFFFFF" points="177.474,686.14 
			174.559,683.224 177.474,683.224 		"/>
		<polygon clip-path="url(#STF_SVGID_62_)" fill-rule="evenodd" clip-rule="evenodd" fill="#FFFFFF" points="177.474,687.013 
			174.559,689.928 177.474,689.928 		"/>
		<polygon clip-path="url(#STF_SVGID_62_)" fill-rule="evenodd" clip-rule="evenodd" fill="#EC2227" points="181.129,686.14 
			184.043,683.224 181.129,683.224 		"/>
		<polygon clip-path="url(#STF_SVGID_62_)" fill-rule="evenodd" clip-rule="evenodd" fill="#EC2227" points="181.129,687.013 
			184.043,689.928 181.129,689.928 		"/>
		<rect x="178.093" y="683.224" clip-path="url(#STF_SVGID_62_)" fill="#EC2227" width="2.418" height="6.704"/>
		<path clip-path="url(#STF_SVGID_62_)" fill-rule="evenodd" clip-rule="evenodd" fill="#6D7DBC" d="M174.063,681.531
			c-2.789,0-5.06,2.269-5.06,5.058s2.271,5.058,5.06,5.058h8.911c2.791,0,5.06-2.269,5.06-5.058s-2.269-5.058-5.058-5.058H174.063z"
			/>
		<path clip-path="url(#STF_SVGID_62_)" fill="none" stroke="#6D7DBC" stroke-width="0.725" d="M174.063,681.531
			c-2.789,0-5.06,2.269-5.06,5.058s2.271,5.058,5.06,5.058h8.911c2.791,0,5.06-2.269,5.06-5.058s-2.269-5.058-5.058-5.058H174.063z"
			/>
		<path clip-path="url(#STF_SVGID_62_)" fill-rule="evenodd" clip-rule="evenodd" fill="#6D7DBC" d="M182.975,681.994
			c2.539,0,4.596,2.058,4.596,4.595c0,2.539-2.057,4.598-4.597,4.598h-8.911c-2.538,0-4.596-2.059-4.596-4.598
			c0-2.537,2.058-4.595,4.596-4.595H182.975z"/>
		<path clip-path="url(#STF_SVGID_62_)" fill="none" stroke="#FFFFFF" stroke-width="0.363" stroke-miterlimit="3.864" d="
			M182.975,681.994c2.539,0,4.596,2.058,4.596,4.595c0,2.539-2.057,4.598-4.597,4.598h-8.911c-2.538,0-4.596-2.059-4.596-4.598
			c0-2.537,2.058-4.595,4.596-4.595H182.975z"/>
		<path clip-path="url(#STF_SVGID_62_)" fill="#FFFFFF" d="M170.885,686.576c0-1.775,1.377-3.227,3.123-3.344v6.688
			C172.262,689.803,170.885,688.348,170.885,686.576"/>
		<polygon clip-path="url(#STF_SVGID_62_)" fill-rule="evenodd" clip-rule="evenodd" fill="#FFFFFF" points="177.474,686.14 
			174.559,683.224 177.474,683.224 		"/>
		<polygon clip-path="url(#STF_SVGID_62_)" fill-rule="evenodd" clip-rule="evenodd" fill="#FFFFFF" points="177.474,687.013 
			174.559,689.928 177.474,689.928 		"/>
		<polygon clip-path="url(#STF_SVGID_62_)" fill-rule="evenodd" clip-rule="evenodd" fill="#EC2227" points="181.129,686.14 
			184.043,683.224 181.129,683.224 		"/>
		<polygon clip-path="url(#STF_SVGID_62_)" fill-rule="evenodd" clip-rule="evenodd" fill="#EC2227" points="181.129,687.013 
			184.043,689.928 181.129,689.928 		"/>
		<rect x="178.093" y="683.224" clip-path="url(#STF_SVGID_62_)" fill="#EC2227" width="2.418" height="6.704"/>
		<path clip-path="url(#STF_SVGID_62_)" fill-rule="evenodd" clip-rule="evenodd" fill="#005DA9" d="M174.063,681.531
			c-2.789,0-5.06,2.269-5.06,5.058s2.271,5.058,5.06,5.058h8.911c2.791,0,5.06-2.269,5.06-5.058s-2.269-5.058-5.058-5.058H174.063z"
			/>
		<path clip-path="url(#STF_SVGID_62_)" fill="none" stroke="#005DA9" stroke-width="0.725" d="M174.063,681.531
			c-2.789,0-5.06,2.269-5.06,5.058s2.271,5.058,5.06,5.058h8.911c2.791,0,5.06-2.269,5.06-5.058s-2.269-5.058-5.058-5.058H174.063z"
			/>
		<path clip-path="url(#STF_SVGID_62_)" fill-rule="evenodd" clip-rule="evenodd" fill="#005DA9" d="M182.975,681.994
			c2.539,0,4.596,2.058,4.596,4.595c0,2.539-2.057,4.598-4.597,4.598h-8.911c-2.538,0-4.596-2.059-4.596-4.598
			c0-2.537,2.058-4.595,4.596-4.595H182.975z"/>
		<path clip-path="url(#STF_SVGID_62_)" fill="none" stroke="#FFFFFF" stroke-width="0.363" stroke-miterlimit="3.864" d="
			M182.975,681.994c2.539,0,4.596,2.058,4.596,4.595c0,2.539-2.057,4.598-4.597,4.598h-8.911c-2.538,0-4.596-2.059-4.596-4.598
			c0-2.537,2.058-4.595,4.596-4.595H182.975z"/>
		<path clip-path="url(#STF_SVGID_62_)" fill="#FFFFFF" d="M170.885,686.576c0-1.775,1.377-3.227,3.123-3.344v6.688
			C172.262,689.803,170.885,688.348,170.885,686.576"/>
		<polygon clip-path="url(#STF_SVGID_62_)" fill-rule="evenodd" clip-rule="evenodd" fill="#FFFFFF" points="177.474,686.14 
			174.559,683.224 177.474,683.224 		"/>
		<polygon clip-path="url(#STF_SVGID_62_)" fill-rule="evenodd" clip-rule="evenodd" fill="#FFFFFF" points="177.474,687.013 
			174.559,689.928 177.474,689.928 		"/>
		<polygon clip-path="url(#STF_SVGID_62_)" fill-rule="evenodd" clip-rule="evenodd" fill="#EC2227" points="181.129,686.14 
			184.043,683.224 181.129,683.224 		"/>
		<polygon clip-path="url(#STF_SVGID_62_)" fill-rule="evenodd" clip-rule="evenodd" fill="#EC2227" points="181.129,687.013 
			184.043,689.928 181.129,689.928 		"/>
		<rect x="178.093" y="683.224" clip-path="url(#STF_SVGID_62_)" fill="#EC2227" width="2.418" height="6.704"/>
		<g opacity="0.03" clip-path="url(#STF_SVGID_62_)">
			<g>
				<defs>
					<rect id="STF_SVGID_71_" x="126.184" y="68.618" width="367.799" height="663.353"/>
				</defs>
				<clipPath id="STF_SVGID_72_">
					<use xlink:href="#STF_SVGID_71_"  overflow="visible"/>
				</clipPath>
				<path clip-path="url(#STF_SVGID_72_)" d="M424.956,470.126l0.225,3.592c0,0,0.609,2.736,0.532,5.168
					c-0.075,2.429,0.462,6.344,0.976,7.886c0.515,1.544,1.8,9.515,1.949,11.524c0.039,0.517,0.355,2.143,0.819,4.308
					C428.546,494.25,426.849,482.367,424.956,470.126 M413.188,457.713c0,1.93-4.63,3.086-6.173,3.857
					c-0.783,0.392-5.045,1.479-9.055,2.454c0.894,2.041,0.567,3.717,2.704,10.904c1.497,5.033,2.592,11.16,3.354,16.557
					c1.221,1.737,2.377,4.122,3.382,7.501c4.244,14.272,6.559,25.459,8.101,35.873c0.765,5.163,2.951,13.356,5.431,21.483
					c1.226,0.856,2.703,1.982,4.511,3.536l3.669,1.359c3.424-2.547,3.734-4.846,3.734-4.846v-4.367c0,0,1.248-5.614,1.248-8.109
					s-2.495-4.989-2.495-4.989s0-4.44-0.322-11.707c-1.29-3.777-3.047-9.026-3.047-10.876c0-2.827-5.143-19.542-6.172-23.399
					c-1.028-3.858-8.864-26.006-8.864-26.006l-1.936-0.224v-5.145C411.259,461.57,413.317,458.999,413.188,457.713 M420.7,443.843
					c0.181,1.55,0.087,5.124,0.087,5.124c-0.061,1.302-0.015,4.632-0.015,4.632s0,1.544,0.116,2.837
					c0.114,1.294,1.17,3.591,1.17,4.621c0,1.029,1.642,5.521,1.642,5.521l1.252,3.526
					C423.563,461.124,422.067,451.955,420.7,443.843 M419.851,438.836c0.081,0.848,0.317,2.009,0.527,3.093
					C420.199,440.875,420.022,439.844,419.851,438.836 M353.507,68.618l-1.269,0.443c2.024,1.936,3.888,4.188,4.048,5.632
					c0.13,1.166-5.289,5.413-14.227,9.125c0.723,1.499,1.245,2.916,1.329,4.005c0.322,4.182,0,3.861,0,9.975
					c0,6.114,2.252,12.228,6.114,21.238c3.86,9.009,8.043,4.183,10.939,17.053c2.146,9.535-6.834,10.771-11.633,10.771
					c-1.68,0-2.847-0.152-2.847-0.152s10.694,1.527,24.173,1.527c2.888,0,5.903-0.07,8.97-0.24c17.378-0.965,13.516,0,25.742-1.287
					c6.114-0.643,9.172-1.448,13.033-1.448s8.526,0.804,17.859,3.379c18.663,5.148,4.505,16.732,3.218,29.925
					c-1.288,13.194-19.951,11.263-25.421,18.342c-5.471,7.078-1.932,62.104-1.287,68.218c0.644,6.114-12.55,16.732-12.55,16.732
					s-3.54,10.298-5.792,18.021c-2.253,7.723,3.539,23.812,3.218,41.188c-0.322,17.377-16.089,40.223-21.56,52.773
					c-5.47,12.55-1.287,24.776,7.722,52.128c3.544,10.757,4.848,13.601,5.537,13.601c0.386,0,0.578-0.896,0.865-1.791
					c0.286-0.896,0.665-1.792,1.425-1.792c0.57,0,1.354,0.504,2.471,1.889c1.092,1.352,1.924,2.4,2.564,3.262
					c5.168-1.431,11.013-3.53,12.408-3.808c1.106-0.222,2.47-0.699,3.429-0.699c0.595,0,1.036,0.185,1.164,0.728
					c-0.2-1.855-0.862-7.615-0.862-7.615s-1.545-1.028-1.803-1.8c-0.257-0.771-1.528-4.672-1.528-4.672s5.81-1.991,8.236-4.645
					c0.727-0.794,1.586-2.443,2.04-3.366c-0.758-4.369-1.437-8.17-1.981-11.112c-3.12-16.842,0.623-56.764,3.742-72.359
					c3.119-15.594,7.485-66.123,6.861-74.232c-0.537-6.975,2.156-22.713,2.92-26.977c-0.014-2.862,0.081-7.384,0.717-10.558
					c0.995-4.979,8.631-47.14,10.29-55.106c1.661-7.968,8.964-34.857,10.291-42.161c0.938-5.155,1.213-12.618,1.295-16.568
					c-0.73-0.506-1.185-0.835-1.185-0.835s-16.843-5.615-40.547-14.972c-23.703-9.356-43.042-26.199-46.161-28.693
					c-3.119-2.496-3.119-4.367-6.236-6.239C357.174,74.206,355.923,71.328,353.507,68.618"/>
				<path clip-path="url(#STF_SVGID_72_)" d="M205.928,526.078c-2.225,0.971-4.331,2.318-6.052,4.668
					c-2.999,4.09-4.409,18.297-5.837,33.962c1.614,0.548,3.468,1.059,5.599,1.503c1.318-7.495,3.277-20.678,2.165-27.568
					C200.403,529.962,202.413,530.297,205.928,526.078 M196.683,436.76c-3.328,19.288-8.02,48.486-9.871,65.002
					c1.716-5.211,2.991-9.268,3.291-10.618c1.029-4.629,0.513-10.54,1.285-12.985c0.772-2.444,1.286-14.273,2.314-16.844
					c1.029-2.573,2.314-8.1,2.314-8.1L196.683,436.76 M260.765,71.037c-1.33,1.859-2.38,3.539-3.828,4.409
					c-3.119,1.871-3.119,3.743-6.238,6.238c-3.118,2.495-22.455,19.336-46.161,28.694c-23.704,9.357-40.547,14.972-40.547,14.972
					s-0.55,0.397-1.41,0.992c0.084,3.987,0.365,11.324,1.29,16.411c1.328,7.304,8.631,34.193,10.291,42.161
					c1.66,7.967,9.296,50.127,10.292,55.106c0.564,2.821,0.702,6.706,0.716,9.543l0.031-0.078c0,0,3.742,19.961,3.119,28.07
					c-0.625,8.109,3.742,58.638,6.861,74.232c3.12,15.594,6.863,55.518,3.744,72.359c-0.504,2.719-1.121,6.166-1.81,10.121
					c2.13,0.929,14.167,6.146,20.247,8.017c6.688,2.057,16.377,4.606,16.377,4.606s-0.149,1.533-0.116,3.736
					c1.522-0.107,3.065-0.154,4.603-0.154c12.635,0,25.039,3.219,25.039,3.219s4.184-5.793,3.54-13.838
					c-0.644-8.044-26.064-43.439-30.891-51.485c-3.893-6.486,0.167-7.115,1.884-7.115c0.412,0,0.689,0.036,0.689,0.036
					s-7.079-3.217-9.976-18.984c-2.896-15.768,4.827-35.074,11.906-51.808c7.08-16.732,27.674-34.109,27.674-34.109
					s-3.976,0.634-10.169,0.634c-8.447,0-21.02-1.178-33.272-6.748c-21.237-9.654-22.524-26.064-25.421-76.584
					c-2.896-50.521,1.93-60.496,13.515-61.139c0.27-0.015,0.554-0.022,0.853-0.022c12.609,0,51.739,12.953,57.712,15.468
					c0,0,3.861-8.045,2.574-12.872c-1.288-4.827,2.573-12.55,7.079-20.915c2.643-4.908,3.736-5.608,4.513-5.608
					c0.154,0,0.297,0.029,0.436,0.056c0.141,0.028,0.276,0.057,0.42,0.057c0.22,0,0.458-0.065,0.745-0.297
					c1.609-1.286,0.322-8.688-0.643-10.939c-0.966-2.252-0.322-2.896,1.609-8.045c0.354-0.944-0.431-2.201-1.938-3.624
					c-14.408-4.352-24.931-10.733-25.413-11.698c-0.236-0.472,0.209-1.461,1.036-2.614
					C261.388,71.334,261.061,71.178,260.765,71.037"/>
				<path clip-path="url(#STF_SVGID_72_)" d="M131.011,167.304c0,0,0.643,4.827,3.217,10.297c2.575,5.47,28.64,38.292,28.64,38.292
					s-23.49-25.744-24.777-27.352c-1.196-1.495-10.445-8.821-11.752-8.821c-0.101,0-0.154,0.042-0.154,0.133
					c0,1.287,8.044,9.975,14.48,16.089c6.436,6.114,19.628,19.308,25.743,28.639c6.114,9.333,17.376,25.421,17.376,25.421
					s-2.253-9.332-3.862-13.193c-1.608-3.862-8.366-14.159-9.975-16.732C168.337,217.502,131.011,167.304,131.011,167.304"/>
				<path clip-path="url(#STF_SVGID_72_)" d="M133.585,159.581c0,0,3.54,13.194,10.619,19.951c7.079,6.757,14.48,9.01,14.48,9.01
					s-11.906-9.976-14.159-13.193C142.273,172.131,133.585,159.581,133.585,159.581"/>
				<path clip-path="url(#STF_SVGID_72_)" d="M492.695,176.957c0,0-4.183,8.367-7.722,14.803c-3.541,6.436-18.664,18.663-26.709,23.167
					c-8.045,4.505-22.847,20.917-22.847,20.917s6.758-1.288,10.94-4.505c4.184-3.218,30.892-13.837,41.188-28.639
					C497.845,187.898,492.695,176.957,492.695,176.957"/>
				<path clip-path="url(#STF_SVGID_72_)" d="M487.547,225.869c0,0-11.584,9.975-20.595,12.549c-9.009,2.574-26.063,5.792-26.063,5.792
					s3.216,0.847,8.389,0.847c4.914,0,11.594-0.763,18.963-3.743C483.364,235.201,487.547,225.869,487.547,225.869"/>
				<path clip-path="url(#STF_SVGID_72_)" d="M476.171,182.985c-2.33,0-5.328,0.883-8.252,4.269c-6.115,7.08-8.046,9.654-13.516,12.872
					c-5.327,3.133-8.211,15.719-8.359,16.379c0.13-0.571,2.174-9.098,9.325-12.518c7.402-3.54,12.55-3.218,16.088-9.331
					c3.541-6.115,9.011-10.619,9.011-10.619S478.715,182.985,476.171,182.985"/>
				<path clip-path="url(#STF_SVGID_72_)" d="M429.457,502.603c0.101,0.924,0.19,1.806,0.271,2.639c0.83,8.581,1.292,16.18,1.549,21.979
					c0.685,2.005,1.238,3.595,1.327,4.041c0.256,1.285,7.2,28.802,8.228,30.859c1.028,2.055,3.344,21.857,4.629,25.714
					c1.284,3.858,1.798,7.201,2.828,12.602s0.259,12.599,1.802,15.943c1.542,3.344,5.143,23.146,5.143,23.146
					s0.772-14.916-0.257-21.345c-1.027-6.431-4.372-25.462-4.372-28.031c0-2.571-3.085-24.173-4.372-28.8
					c-1.286-4.628-11.572-37.804-12.344-40.117C433.316,519.514,430.785,508.826,429.457,502.603 M424.952,470.104
					c0,0.007,0.002,0.015,0.004,0.022l-0.002-0.017L424.952,470.104 M420.378,441.929c0.106,0.631,0.215,1.27,0.322,1.914
					c0-0.006,0-0.011,0-0.017C420.636,443.295,420.513,442.628,420.378,441.929 M419.565,434.598c-0.006,0-0.011,0-0.018,0.001
					c0,0-0.118,0.262-0.313,0.66c0.199,1.154,0.405,2.349,0.616,3.577c-0.019-0.194-0.028-0.373-0.028-0.529
					C419.822,437.58,420.054,434.598,419.565,434.598"/>
				<path clip-path="url(#STF_SVGID_72_)" d="M419.234,435.259c-0.454,0.923-1.313,2.572-2.04,3.366
					c-2.427,2.653-8.236,4.645-8.236,4.645s1.271,3.9,1.528,4.672c0.258,0.771,1.803,1.8,1.803,1.8s0.662,5.76,0.862,7.615
					c0.023,0.105,0.037,0.224,0.037,0.356c0.129,1.286-1.93,3.857-1.93,3.857v5.145l1.936,0.224c0,0,7.836,22.147,8.864,26.006
					c1.029,3.857,6.172,20.572,6.172,23.399c0,1.85,1.757,7.099,3.047,10.875c-0.257-5.798-0.719-13.396-1.549-21.978
					c-0.081-0.833-0.171-1.714-0.271-2.638c-0.464-2.165-0.78-3.791-0.819-4.308c-0.149-2.01-1.435-9.98-1.949-11.524
					c-0.514-1.542-1.051-5.457-0.976-7.886c0.077-2.432-0.532-5.168-0.532-5.168l-0.225-3.592c-0.002-0.008-0.004-0.016-0.004-0.022
					l-1.252-3.526c0,0-1.642-4.491-1.642-5.521s-1.056-3.327-1.17-4.621c-0.116-1.293-0.116-2.837-0.116-2.837
					s-0.046-3.33,0.015-4.632c0,0,0.094-3.574-0.087-5.124c-0.107-0.645-0.216-1.283-0.322-1.914
					c-0.21-1.084-0.446-2.245-0.527-3.093C419.64,437.606,419.434,436.413,419.234,435.259"/>
				<path clip-path="url(#STF_SVGID_72_)" d="M186.813,501.761c-4.164,12.645-10.923,32.089-12.651,36.185
					c-2.443,5.786-3.087,18.516-4.116,25.203c-1.027,6.686-8.744,51.431-10.8,68.402c-2.057,16.974,7.714,80.747,7.714,80.747
					l0.643,6.688c0,0,0.386,2.699,2.699,4.629c1.164,0.969,11.127,1.786,21.925,2.359l1.477-16.247v-7.2
					c0-2.57-3.6-4.628-4.628-15.429c-1.03-10.801-4.115-21.602-4.115-28.289s-1.029-33.43,4.115-55.031
					c2.416-10.151,3.698-25.184,4.963-39.07c-10.052-3.418-10.71-8.315-10.71-8.315v-4.367c0,0-1.248-5.614-1.248-8.109
					s2.495-4.989,2.495-4.989s0-14.349,1.871-33.686C186.552,504.158,186.675,502.995,186.813,501.761 M233.622,450.627
					c-11.29,0.794-21.557,4.849-21.844,16.899c-0.643,27.031,0.323,49.556-4.183,56.313c-0.585,0.879-1.143,1.609-1.667,2.238
					c5.08-2.217,10.787-2.468,14.007-8.189c4.628-8.229-3.087-16.459-3.087-20.06c0-3.6,3.602-7.714,6.688-9.257
					c3.084-1.544,10.8-5.657,16.971-10.802c6.173-5.142,6.173-8.742,6.173-8.742l-7.201-3.601
					C234.585,462.98,233.691,455.299,233.622,450.627 M196.789,434.126l-0.106,2.634c0.146-0.85,0.291-1.684,0.431-2.492
					C196.903,434.175,196.789,434.126,196.789,434.126"/>
				<path clip-path="url(#STF_SVGID_72_)" d="M197.114,434.268c-0.141,0.809-0.286,1.644-0.431,2.492l-0.666,16.455
					c0,0-1.286,5.526-2.313,8.1c-1.029,2.57-1.542,14.399-2.315,16.844c-0.772,2.445-0.256,8.356-1.284,12.985
					c-0.301,1.351-1.576,5.407-3.292,10.617c-0.138,1.234-0.259,2.397-0.365,3.48c-1.871,19.337-1.871,33.686-1.871,33.686
					s-2.496,2.495-2.496,4.989c0,2.496,1.248,8.109,1.248,8.109v4.367c0,0,0.659,4.897,10.711,8.315
					c1.429-15.666,2.837-29.872,5.835-33.962c1.723-2.35,3.827-3.697,6.053-4.668c0.524-0.629,1.082-1.36,1.667-2.238
					c4.506-6.758,3.539-29.282,4.183-56.313c0.289-12.051,10.554-16.105,21.844-16.899c-0.033-2.203,0.115-3.735,0.115-3.735
					s-9.688-2.55-16.376-4.607C211.281,440.413,199.244,435.196,197.114,434.268"/>
				<path clip-path="url(#STF_SVGID_72_)" d="M192.226,725.975l-0.065,0.725l25.201,0.516c0,0,0.057-0.123,0.155-0.352
					C212.217,726.806,201.887,726.487,192.226,725.975 M212.292,566.406c-0.998,0-1.766,0.397-2.13,1.369
					c-1.543,4.117-2.058,15.43-1.543,33.432c0.516,18.002-2.572,16.458-3.6,30.858c-1.028,14.401,1.543,16.973,4.113,24.687
					c2.572,7.714,10.288,26.231,13.888,38.061c3.321,10.918-4.311,29.288-5.504,32.051c0.565,0.006,1.073,0.01,1.517,0.01
					c9.258,0,43.672-6.825,43.672-6.825s1.515-12.254,3.704-27.203c2.409-16.453,6.533-38.595,10.694-54.468
					c0.937-4.157,1.951-8.162,3.03-11.537c1.057-3.299,2.553-5.691,3.805-7.273c0.107-0.143,0.214-0.273,0.318-0.393
					c1.152-1.378,2.023-2.025,2.023-2.025s-9.257-5.142-10.801-5.142c-1.543,0-11.314-5.143-19.028-12.856
					c-7.714-7.715-29.832-23.144-32.916-26.231C221.179,570.563,215.521,566.406,212.292,566.406"/>
				<path clip-path="url(#STF_SVGID_72_)" d="M297.81,614.18c-4.979,0-9.927,1.222-13.406,4.837c-0.049,0.05-0.096,0.102-0.145,0.157
					c-0.104,0.124-0.211,0.256-0.32,0.393c-2.083,2.766-4.465,9.771-6.835,18.811c-2.268,10.07-4.072,21.031-5.224,26.09
					c-2.573,11.315-6.687,34.975-6.687,38.574c0,3.599-2.488,17.007-2.488,17.007s5.045-1.771,7.761-2.604
					c2.579-0.794,5.914-3.473,5.914-3.473s0.665-0.96,0.978-2.046c0.309-1.086,0.154-2.012,0.179-3.227
					c0.025-1.212,0.75-2.968,1.212-4.828c0.467-1.859,2.324-6.352,2.919-8.085c0.591-1.732,1.087-2.471,1.087-2.471
					s0.953-4.009,2.503-6.176c1.549-2.167,7.452-20.998,10.071-29.591c2.616-8.591,8.519-41.363,9.339-41.811
					c0.061-0.034,0.155-0.05,0.279-0.05c1.519,0,7.307,2.362,7.307,2.362s1.354,5.26,1.663,6.5c0.31,1.24,5.28,22.772,10.226,38.576
					c6.351,20.293,14.253,36.405,14.563,37.18c0.31,0.776,0.678,4.021,0.465,4.65c-0.214,0.625,1.393,2.323,1.393,2.323
					s0,1.547,0.621,3.716c0.621,2.168,1.549,5.423,1.415,6.191c-0.135,0.769,0.255,2.7,0.255,2.7s1.894,2.729,2.357,3.192
					c0.465,0.467,2.479,1.086,3.175,1.565c0.359,0.248,0.97,0.308,1.474,0.308c0.466,0,0.841-0.05,0.841-0.05l-1.543-4.696
					c0,0-0.693-4.873-0.693-9.056c0-4.182-1.393-7.28-1.548-9.76s-4.028-19.21-4.958-26.336c-0.929-7.127-7.329-28.073-7.329-28.073
					c-5.658-22.115-14.396-25.937-19.024-28.509C312.826,616.929,305.281,614.18,297.81,614.18"/>
				<path clip-path="url(#STF_SVGID_72_)" d="M277.104,638.377c-4.161,15.873-8.285,38.015-10.695,54.468
					c-2.188,14.949-3.703,27.203-3.703,27.203s2.488-13.408,2.488-17.007c0-3.6,4.113-27.259,6.688-38.574
					C273.032,659.408,274.836,648.447,277.104,638.377 M284.258,619.174c-0.104,0.119-0.212,0.25-0.319,0.393
					C284.048,619.43,284.154,619.298,284.258,619.174"/>
				<path clip-path="url(#STF_SVGID_72_)" d="M396.15,461.136c-1.972,0.545-3.844,0.992-5.336,1.206
					c-5.4,0.771-32.017,3.086-32.017,3.086l3.087,0.386c0,0,8.485,22.373,6.558,33.173c-1.929,10.801-4.629,18.902-12.729,39.731
					c-8.1,20.83,18.901,23.916,21.215,25.844c2.314,1.93,21.216,8.872,22.758,9.645c1.545,0.771-1.927,13.113-4.627,27.387
					c-2.7,14.271,12.343,27.771,16.972,39.73c4.629,11.958-5.4,14.272-10.027,21.602c-4.631,7.329-3.475,32.787-6.56,41.273
					c-3.085,8.487,0.387,27.387,0.387,27.387s8.099,0.386,13.114,0.386s11.186-0.771,11.186-0.771s0.387-8.1,1.158-11.572
					c0.771-3.472,2.314-5.785,4.242-9.257c1.929-3.473,8.873-15.816,8.873-18.516c0-2.7,1.543-32.4,1.928-37.802
					c0.387-5.399,1.545-23.145,2.315-30.087c0.771-6.944-6.559-36.646-10.416-46.288c-1.945-4.864-4.773-13.064-7.298-21.335
					c-6.629-4.633-5.846-1.375-9.648-15.77c-4.505-17.056-5.793-35.719-5.793-35.719s-0.428-6.004-1.472-13.369
					c-3.934-5.603-8.535-4.486-10.891-8.314c-3.085-5.014-5.014-9.257-5.014-12.728c0-3.473,2.313-4.63,2.313-4.63
					s3.647-0.841,7.532-1.789C397.614,463.232,397.083,462.384,396.15,461.136"/>
				<path clip-path="url(#STF_SVGID_72_)" d="M404.02,491.485c1.044,7.365,1.472,13.369,1.472,13.369s1.288,18.663,5.793,35.719
					c3.803,14.395,3.02,11.137,9.648,15.77c-2.479-8.127-4.666-16.32-5.431-21.483c-1.542-10.414-3.856-21.601-8.101-35.873
					C406.396,495.607,405.239,493.223,404.02,491.485 M411.987,456.629c-0.959,0-2.322,0.477-3.429,0.698
					c-1.395,0.278-7.24,2.378-12.408,3.809c0.933,1.248,1.464,2.097,1.811,2.889c4.01-0.976,8.271-2.063,9.055-2.454
					c1.543-0.771,6.173-1.928,6.173-3.857c-0.01-0.093-0.023-0.213-0.037-0.356C413.023,456.813,412.582,456.629,411.987,456.629"/>
				<path clip-path="url(#STF_SVGID_72_)" d="M413.151,457.356c0.014,0.144,0.027,0.264,0.037,0.356
					C413.188,457.58,413.175,457.462,413.151,457.356"/>
			</g>
		</g>
	</g>
</g>

</svg>
