<?xml version="1.0" encoding="utf-8"?>
<!-- Generator: Adobe Illustrator 16.0.0, SVG Export Plug-In . SVG Version: 6.00 Build 0)  -->
<!DOCTYPE svg PUBLIC "-//W3C//DTD SVG 1.1//EN" "http://www.w3.org/Graphics/SVG/1.1/DTD/svg11.dtd">
<svg version="1.1" id="Layer_1" xmlns="http://www.w3.org/2000/svg" xmlns:xlink="http://www.w3.org/1999/xlink" x="0px" y="0px"
	 width="612px" height="792px" viewBox="0 0 475 792" enable-background="new 0 0 612 792" xml:space="preserve">
<g>
	<defs>
		<rect id="SVGID_Front1_" x="37.926" y="38.703" width="547" height="707.882"/>
	</defs>
	<clipPath id="SVGID_Front2_">
		<use xlink:href="#SVGID_Front1_"  overflow="visible"/>
	</clipPath>
	<g clip-path="url(#SVGID_Front2_)">
		<defs>
			<rect id="SVGID_Front3_" x="37.926" y="38.703" width="547" height="707.882"/>
		</defs>
		<clipPath id="SVGID_Front4_">
			<use xlink:href="#SVGID_Front3_"  overflow="visible"/>
		</clipPath>
    
    <g id="XYZ">
      <g id="SHIRT">
        		<path clip-path="url(#SVGID_Front4_)" fill="#004D86" d="M443.837,119.232c0,0-15.875-5.291-38.218-14.111
			c-14.103-5.566-26.56-13.941-34.574-19.955c-3.971,4.329-20.576,19.345-60.18,19.738c-39.268,0.389-58.18-16.408-63.212-21.774
			c-7.738,6.018-21.457,15.763-37.238,21.992c-22.343,8.82-38.218,14.111-38.218,14.111s-0.521,0.377-1.33,0.936v0.003
			c0.009,0.449,0.023,0.947,0.038,1.478c0.002,0.042,0.003,0.085,0.005,0.128c0.007,0.249,0.015,0.504,0.023,0.766
			c0,0.016,0.001,0.031,0.001,0.046c0.011,0.275,0.021,0.558,0.032,0.846c0.002,0.057,0.005,0.115,0.006,0.171
			c0.01,0.232,0.02,0.468,0.03,0.709c0.004,0.072,0.006,0.145,0.01,0.219c0.013,0.292,0.027,0.589,0.043,0.892
			c0.002,0.038,0.005,0.077,0.006,0.116c0.014,0.262,0.027,0.526,0.043,0.791c0.005,0.093,0.012,0.187,0.016,0.28
			c0.015,0.253,0.031,0.507,0.048,0.763c0.003,0.059,0.007,0.118,0.01,0.177c0.021,0.308,0.043,0.618,0.067,0.93
			c0.005,0.083,0.012,0.167,0.019,0.251c0.019,0.238,0.037,0.477,0.057,0.715c0.007,0.094,0.016,0.188,0.023,0.283
			c0.027,0.31,0.054,0.62,0.083,0.929c0.003,0.035,0.007,0.069,0.011,0.103c0.027,0.277,0.054,0.554,0.084,0.829
			c0.008,0.092,0.02,0.186,0.029,0.277c0.027,0.245,0.055,0.485,0.084,0.725c0.007,0.069,0.016,0.138,0.023,0.206
			c0.037,0.298,0.075,0.591,0.115,0.88c0.01,0.072,0.021,0.14,0.03,0.21c0.032,0.228,0.065,0.455,0.1,0.677
			c0.013,0.081,0.025,0.161,0.037,0.241c0.046,0.282,0.091,0.558,0.141,0.826c1.251,6.885,8.135,32.229,9.7,39.738
			c1.564,7.51,8.761,47.249,9.699,51.941c0.064,0.323,0.122,0.661,0.175,1.01l0.013,0.087c0.048,0.326,0.093,0.661,0.132,1.002
			c0.005,0.037,0.008,0.072,0.013,0.11c0.04,0.347,0.074,0.698,0.105,1.055c0.003,0.025,0.006,0.05,0.008,0.077
			c0.032,0.379,0.061,0.763,0.084,1.146c0.001,0.006,0.001,0.011,0.002,0.016c0.024,0.38,0.044,0.759,0.061,1.135
			c0.002,0.031,0.003,0.063,0.004,0.094c0.016,0.356,0.028,0.709,0.039,1.056c0.001,0.031,0.002,0.063,0.002,0.093
			c0.011,0.361,0.019,0.715,0.024,1.059c0,0.005,0,0.012,0.001,0.018c0.005,0.358,0.009,0.707,0.011,1.039
			c0.019-0.047,0.03-0.074,0.03-0.074s3.528,18.814,2.939,26.458c-0.587,7.644,3.528,55.269,6.468,69.968
			c2.94,14.699,1.623,50.566-1.298,69.813c-1.807,11.908-2.518,23.575-3.067,34.529c0.527,0.012,1.091,0.119,1.693,0.355
			c12.063,4.727,24.155,9.677,36.808,12.627c9.402,2.191,18.996,2.921,28.545,4.05c0.758-0.575,1.772-0.888,3.056-0.764
			c2.88,0.276,5.776,0.831,8.681,1.331c0.706-0.456,1.583-0.734,2.642-0.735c28.121-0.021,56.231-0.971,84.353-1.152
			c0.703-0.423,1.58-0.666,2.643-0.636c1.388,0.04,2.812,0.208,4.241,0.35c7.981-3.363,16.468-2.04,24.964-3.172
			c7.922-1.053,15.698-3.907,22.604-8.024c0.36-0.625,0.8-1.176,1.3-1.669c-2.796-18.519-5.919-28.288-7.848-38.698
			c-2.939-15.875,0.589-53.505,3.528-68.204c2.94-14.699,7.056-62.324,6.468-69.968c-0.506-6.575,2.033-21.408,2.752-25.427
			c-0.013-2.698,0.076-6.96,0.676-9.953c0.938-4.693,8.135-44.432,9.699-51.941c1.563-7.51,8.448-32.854,9.7-39.738
			c0.883-4.858,1.143-11.894,1.22-15.616C444.264,119.542,443.837,119.232,443.837,119.232z"/>

      </g>
      <g id="BODY_LOGO">
      		<path clip-path="url(#SVGID_Front10_)" fill="#FFFFFF" d="M266.997,306.611c12.806,5.465,27.502,10.909,44.469,16.41
			c16.966-5.501,31.664-10.945,44.47-16.41c25.503-19.942,51.658-53.323,70.056-88.15c2.487-13.475,6.862-37.427,8.042-43.086
			c0.919-4.413,3.676-14.987,6.047-24.353c-42.933-18.253-75.601-28.961-128.847-29.103v-8.14l-0.002,8.14
			c-55.693,0.148-88.881,11.861-134.843,31.672c2.203,8.663,4.56,17.771,5.396,21.784c0.576,2.771,1.92,9.924,3.432,18.087
			C202.825,236.606,235.413,281.912,266.997,306.611"/>

    </g>

       <g id="BODY_LOGO_STRIPS">
		<path clip-path="url(#SVGID_Front12_)" fill="#FDBB2D" d="M420.906,262.695c-0.506-6.575,2.033-21.407,2.752-25.427
			c-0.013-2.698,0.076-6.96,0.676-9.953c0.23-1.157,0.843-4.447,1.656-8.854c-18.397,34.828-44.552,68.207-70.055,88.149
			c30.964-13.213,50.859-26.549,65.021-41.11C420.972,264.305,420.957,263.35,420.906,262.695"/>
		<path clip-path="url(#SVGID_Front12_)" fill="#FDBB2D" d="M266.997,306.611c-31.584-24.699-64.172-70.005-81.78-113.15
			c2.589,13.969,5.674,30.893,6.267,33.855c0.064,0.322,0.122,0.659,0.175,1.008l0.013,0.087c0.048,0.326,0.093,0.661,0.132,1.002
			c0.005,0.036,0.008,0.073,0.013,0.11c0.04,0.347,0.074,0.699,0.105,1.055c0.003,0.026,0.006,0.052,0.008,0.078
			c0.032,0.38,0.061,0.763,0.084,1.147c0.001,0.005,0.001,0.011,0.002,0.016c0.024,0.38,0.044,0.758,0.061,1.134
			c0.002,0.031,0.003,0.063,0.004,0.094c0.016,0.356,0.028,0.709,0.039,1.055c0.001,0.031,0.002,0.063,0.002,0.094
			c0.011,0.361,0.019,0.714,0.024,1.058c0,0.005,0,0.012,0.001,0.018c0.005,0.359,0.009,0.708,0.011,1.04
			c0.019-0.047,0.03-0.075,0.03-0.075s2.398,12.796,2.909,21.57C209.566,275.435,230.664,291.106,266.997,306.611"/>
		<path clip-path="url(#SVGID_Front12_)" fill="#FDBB2D" d="M311.232,113.778c-0.047,0-0.093,0.001-0.142,0.001
			c-0.046,0-0.093-0.001-0.141-0.001v0.003c-56.33,0.189-89.915,12.298-136.426,32.411c0.58,2.333,1.216,4.846,1.865,7.398
			c45.902-19.785,79.065-31.492,134.626-31.67c53.183,0.157,86.121,10.862,129.063,29.103c0.664-2.62,1.297-5.145,1.852-7.415
			c-43.506-18.564-76.816-29.645-130.698-29.826V113.778z"/>
      </g>



    </g>
     <g id="SHORT_MASK">
       <g id="UPPER_BOTTOM">
         		<path clip-path="url(#SVGID_Front16_)" fill="#BF2A43" d="M444.951,618.785c0,0-13.36-6.497-25.484-17.307
			c5.923-13.285,15.245-23.253,27.328-31.227c-0.87-5.21-1.647-9.836-1.76-10.623c-0.258-1.795-4.105-13.085-6.158-20.012
			c-2.053-6.93-8.079-26.737-8.799-29.692c-0.722-2.956-1.932-9.285-2.085-10.385c-0.15-1.1-0.415-5.078-0.492-5.838
			c-0.076-0.758-1.136-4.433-1.136-4.433s-0.267-1.857-0.684-4.093s-0.605-5.003-0.605-5.003s0.076-1.288,0.076-2.426
			c0-1.137-0.606-2.729-0.606-2.729s0-1.516-0.227-3.601c-0.229-2.084-1.252-3.524-1.252-3.524l-2.274-8.793
			c0,0-0.114-0.228-0.531-1.326c-0.414-1.1-0.265-3.563-0.227-3.828c0.037-0.266,0.152-2.614,0.152-3.372
			c0-0.759,0.15-4.7-0.115-5.381c-0.264-0.683-0.53-2.389-0.72-3.524c-0.188-1.139-0.151-3.943-0.075-4.283
			c0.077-0.342-0.607-2.199-0.797-1.707c-0.189,0.494-1.363,2.009-2.16,3.641c-0.798,1.629-4.379,3.711-4.379,3.711
			c-1.843,1.007-7.479,3.545-22.729,5.389c-15.249,1.844-43.067,2.513-84.962,4.021c-41.896,1.508-51.614-1.508-70.719-4.188
			s-36.867-12.737-36.867-12.737s0.513,1.983,0.513,4.421c0,2.438-1.027,3.722-1.283,5.005c-0.256,1.282,0.514,3.848,0.514,4.617
			s-0.514,1.925-0.643,2.565c-0.127,0.642,0.129,1.669,0.129,2.438s-0.386,3.463-0.77,4.234c-0.384,0.77-1.667,5.9-2.053,8.082
			c-0.386,2.18-1.541,11.16-1.796,12.571c-0.257,1.411-0.642,9.366-1.026,10.905c-0.384,1.539-3.721,11.161-3.848,12.316
			c-0.129,1.154-2.823,10.006-3.08,10.775c-0.255,0.77-5.646,17.321-6.8,19.886c-1.154,2.566-4.232,14.24-4.489,15.01
			c-0.226,0.678-1.743,13.67-3.065,22.462c0.001-0.004,0.001-0.008,0.001-0.011c11.694,7.883,20.743,17.697,26.534,30.687
			c-12.124,10.81-25.483,17.307-25.483,17.307c27.961,33.927,80.839,43.232,101.778,45.644c2.337-11.439,4.759-23.071,5.691-26.8
			c1.925-7.696,3.079-18.472,11.161-20.974c8.082-2.504,25.317-0.542,32.522,6.541c11.354,11.163,13.277,30.597,15.973,41.375
			c0.036,0.147,0.074,0.301,0.111,0.451c0-0.001,0-0.001-0.001-0.004C351.471,663.851,413.737,656.659,444.951,618.785"/>

       </g>
       <g id="LOWER_BOTTOM">
		<path clip-path="url(#SVGID_Front14_)" fill="#00AB5D" d="M454.53,621.08c-0.387-2.823-4.748-31.688-5.134-34.766
			c-0.012-0.09-0.025-0.198-0.042-0.316c-0.003-0.016-0.005-0.029-0.007-0.046c-0.016-0.117-0.035-0.248-0.056-0.391
			c-0.004-0.025-0.008-0.05-0.011-0.076c-0.021-0.143-0.045-0.297-0.07-0.462c-0.005-0.033-0.011-0.07-0.016-0.105
			c-0.026-0.173-0.054-0.355-0.084-0.55c-0.003-0.014-0.005-0.027-0.007-0.04c-0.032-0.205-0.065-0.42-0.102-0.645
			c-0.002-0.02-0.006-0.037-0.009-0.057c-0.035-0.225-0.073-0.462-0.111-0.705c-0.007-0.036-0.012-0.07-0.018-0.107
			c-0.039-0.245-0.08-0.498-0.122-0.761c-0.007-0.037-0.013-0.074-0.018-0.112c-0.042-0.258-0.085-0.523-0.129-0.796
			c-0.008-0.051-0.017-0.102-0.024-0.152c-0.094-0.584-0.196-1.194-0.3-1.831c-0.005-0.024-0.007-0.047-0.011-0.068
			c-0.053-0.317-0.104-0.639-0.159-0.965c-0.006-0.036-0.012-0.071-0.018-0.106c-0.054-0.33-0.108-0.665-0.166-1.002
			c-0.005-0.029-0.009-0.059-0.014-0.087c-0.057-0.341-0.112-0.686-0.171-1.034c-0.004-0.025-0.008-0.052-0.013-0.078
			c-0.053-0.312-0.104-0.624-0.156-0.938c-0.009-0.056-0.017-0.111-0.026-0.167c-0.057-0.338-0.113-0.677-0.17-1.019
			c-0.007-0.042-0.014-0.084-0.022-0.126c-0.054-0.333-0.109-0.665-0.165-0.998c-0.011-0.065-0.021-0.133-0.033-0.198
			c-0.119-0.713-0.237-1.424-0.354-2.124c-12.082,7.974-21.404,17.941-27.326,31.227c12.123,10.81,25.483,17.307,25.483,17.307
			c-31.214,37.874-93.48,45.066-107.696,46.233c0.001,0.002,0.001,0.003,0.001,0.004c0.253,1.01,0.516,2.08,0.788,3.194l0.008,0.031
			c0.271,1.111,0.549,2.262,0.832,3.439c0.004,0.012,0.007,0.026,0.01,0.039c0.091,0.38,0.184,0.762,0.274,1.146
			c0.006,0.023,0.012,0.047,0.018,0.069c0.088,0.373,0.177,0.745,0.267,1.121c0.01,0.042,0.02,0.084,0.029,0.126
			c0.087,0.365,0.174,0.731,0.261,1.098c0.009,0.035,0.016,0.071,0.024,0.105c0.089,0.377,0.178,0.751,0.266,1.127
			c0.007,0.025,0.012,0.051,0.018,0.076c0.089,0.376,0.176,0.752,0.265,1.126c0.012,0.052,0.023,0.103,0.036,0.154
			c0.081,0.347,0.16,0.692,0.241,1.038c0.02,0.08,0.037,0.16,0.056,0.241c0.077,0.331,0.153,0.659,0.229,0.988
			c0.016,0.063,0.029,0.125,0.044,0.188c0.077,0.333,0.153,0.666,0.229,0.997c0.021,0.087,0.039,0.173,0.06,0.261
			c0.07,0.304,0.14,0.606,0.209,0.908c0.022,0.104,0.046,0.205,0.069,0.31c0.066,0.288,0.132,0.576,0.196,0.86
			c0.024,0.111,0.049,0.219,0.074,0.328c0.06,0.266,0.12,0.531,0.178,0.793c0.032,0.142,0.063,0.278,0.095,0.418
			c0.052,0.232,0.105,0.467,0.155,0.694c0.03,0.136,0.061,0.27,0.09,0.403c0.052,0.233,0.104,0.465,0.153,0.693
			c0.03,0.135,0.059,0.267,0.089,0.4c0.045,0.211,0.093,0.423,0.139,0.63c0.034,0.163,0.069,0.32,0.104,0.48
			c0.038,0.176,0.077,0.353,0.114,0.523c0.033,0.156,0.065,0.306,0.099,0.458c0.037,0.175,0.075,0.351,0.112,0.521
			c0.029,0.139,0.057,0.273,0.087,0.41c0.035,0.168,0.071,0.337,0.105,0.499c0.032,0.152,0.062,0.298,0.092,0.445
			c0.029,0.14,0.059,0.282,0.088,0.418c0.029,0.144,0.057,0.278,0.085,0.418c0.025,0.132,0.055,0.268,0.08,0.395
			c0.026,0.131,0.051,0.251,0.074,0.376c0.025,0.125,0.051,0.254,0.074,0.372c0.025,0.132,0.048,0.253,0.073,0.377
			c0.019,0.102,0.04,0.208,0.057,0.304c0.023,0.124,0.044,0.236,0.065,0.352c0.017,0.089,0.033,0.182,0.05,0.266
			c0.017,0.102,0.032,0.192,0.048,0.287c0.016,0.085,0.032,0.176,0.045,0.254c0.017,0.099,0.028,0.184,0.043,0.272
			c0.011,0.063,0.021,0.132,0.03,0.189c0.015,0.094,0.024,0.173,0.034,0.255c0.006,0.041,0.013,0.089,0.018,0.128
			c0.014,0.113,0.023,0.211,0.029,0.295c0.192,2.694,2.693,11.161,2.693,11.161l-0.77,1.348c0,0-0.193,1.732,0.577,2.694
			c0.77,0.964,1.155,2.117,0.577,2.887c-0.577,0.77-0.962,1.925-0.577,2.694c0.386,0.77,1.926,3.27,1.926,3.848
			c0,0.319,0.051,2.58,0.097,4.537c0.732,0.082,1.441,0.148,1.441,0.148s14.626,4.488,33.74,6.669
			c19.114,2.182,40.668-0.384,46.185-0.77c5.516-0.384,12.572-1.539,14.239-1.924c1.668-0.385,2.056-1.411,2.567-2.182
			c0.513-0.769,0.897-7.824,0.897-8.34v-2.179c0,0-0.385-1.028-0.385-1.539c0-0.513,0.898-1.027,1.284-1.669
			c0.386-0.643-0.258-2.052-0.258-2.052s-0.257-1.797-0.257-2.311s0.384-4.234,0.384-5.261s1.028-7.439,1.285-8.853
			c0.257-1.41,2.052-14.751,2.821-19.239c0.77-4.491,1.539-18.604,1.924-28.354C455.042,637.889,454.914,623.903,454.53,621.08"/>
		<path clip-path="url(#SVGID_Front14_)" fill="#00AB5D" d="M170.019,618.785c0,0,13.359-6.497,25.483-17.307
			c-5.791-12.989-14.839-22.804-26.534-30.687c0,0.003,0,0.007-0.001,0.011c-0.045,0.297-0.09,0.589-0.134,0.876
			c-0.001,0.001-0.001,0.003-0.001,0.004c-0.043,0.288-0.088,0.571-0.132,0.847c-0.008,0.051-0.016,0.101-0.024,0.152
			c-0.036,0.221-0.071,0.441-0.105,0.655c-0.044,0.271-0.087,0.534-0.131,0.789c-1.411,8.342-4.875,24.248-6.03,29.764
			c-1.154,5.516-2.565,23.094-2.694,31.176c-0.128,8.081,1.796,35.152,1.796,36.436c0,1.281,1.797,17.19,1.925,18.088
			c0.129,0.897,0.641,4.747,0.641,5.132s1.284,10.648,1.412,11.932c0.128,1.281,2.053,13.084,2.053,13.084s0,1.797,0.385,2.694
			c0.384,0.897,1.155,1.539,2.309,1.926c1.156,0.384,6.158,1.666,19.5,3.206c13.342,1.539,36.819,0.129,48.365-1.54
			c11.547-1.668,22.837-5.387,22.837-5.387s0.375,0.023,0.884,0.04c1.217-8.086,4.094-27.109,4.696-30.127
			c0.092-0.46,0.293-1.462,0.576-2.874c0.127-0.632,0.27-1.342,0.428-2.129c0.074-0.371,0.152-0.76,0.233-1.164
			c0.126-0.621,0.257-1.278,0.396-1.968c0.03-0.149,0.06-0.299,0.091-0.45c0.031-0.153,0.062-0.308,0.093-0.464
			c0.026-0.13,0.054-0.263,0.081-0.396c0.029-0.15,0.061-0.301,0.09-0.453c0.034-0.17,0.069-0.342,0.104-0.514
			c0.027-0.142,0.057-0.285,0.086-0.428c0.022-0.115,0.046-0.23,0.069-0.348c0.042-0.206,0.085-0.413,0.126-0.623
			c0.03-0.15,0.062-0.302,0.093-0.454c0.032-0.159,0.063-0.322,0.097-0.483c0.027-0.132,0.054-0.266,0.08-0.398
			c0.044-0.214,0.087-0.429,0.131-0.646c0.024-0.122,0.049-0.244,0.074-0.367c0.114-0.567,0.231-1.143,0.35-1.727
			c0.027-0.144,0.059-0.287,0.088-0.432c0.017-0.084,0.034-0.167,0.05-0.251c0.057-0.274,0.112-0.551,0.169-0.829
			c0.011-0.063,0.025-0.128,0.039-0.191c0.058-0.288,0.116-0.577,0.175-0.867c0.03-0.143,0.058-0.286,0.087-0.428
			c0.035-0.172,0.07-0.344,0.104-0.518c0.055-0.269,0.108-0.538,0.164-0.808c0.021-0.11,0.044-0.22,0.068-0.33
			c0.023-0.116,0.046-0.234,0.07-0.352c0.098-0.477,0.194-0.957,0.293-1.438c0.086-0.42,0.172-0.84,0.257-1.263
			c0.021-0.098,0.04-0.194,0.06-0.292c0.017-0.084,0.034-0.169,0.05-0.251c0.125-0.602,0.246-1.204,0.371-1.809
			c0.012-0.059,0.023-0.117,0.036-0.177C250.858,662.018,197.98,652.712,170.019,618.785"/>
      </g>
       <g id="BOTTOM_STRIPS">
		<path clip-path="url(#SVGID_Front18_)" fill="#FDBB2D" d="M444.951,618.785c0,0-13.36-6.497-25.484-17.307
			c5.923-13.285,15.245-23.253,27.328-31.227c-0.87-5.21-1.647-9.836-1.76-10.623c-0.258-1.795-4.105-13.085-6.158-20.012
			c-0.354-1.192-0.825-2.771-1.367-4.573c-20.978,15.165-42.418,36.015-65.159,66.283c11.886,11.827,35.999,23.684,35.999,23.684
			c-23.321,25.282-60.731,36.692-71.221,39.499c0.005,0.021,0.01,0.042,0.016,0.062c0.035,0.146,0.074,0.299,0.11,0.447
			C351.471,663.851,413.737,656.659,444.951,618.785"/>
		<path clip-path="url(#SVGID_Front18_)" fill="#FDBB2D" d="M206.62,625.011c0,0,24.113-11.856,35.997-23.684
			c-23.194-30.875-45.036-51.948-66.417-67.187c-1.32,3.604-3.933,13.493-4.168,14.2c-0.226,0.677-1.742,13.659-3.063,22.451
			c11.693,7.883,20.743,17.696,26.534,30.687c-12.124,10.81-25.483,17.307-25.483,17.307c27.96,33.927,80.84,43.232,101.777,45.644
			c0.107-0.523,0.214-1.047,0.321-1.571C257.361,658.313,226.744,646.827,206.62,625.011"/>
	</g>
     </g>
    <g id="CUSTOM"></g>
    
                <path clip-path="url(#SVGID_Front66_)" d="M297.458,615.165c-4.968,0-9.905,1.219-13.376,4.826c-0.052,0.053-0.102,0.108-0.152,0.166
					c-0.099,0.119-0.199,0.242-0.302,0.371c-2.081,2.753-4.462,9.75-6.831,18.784c-2.261,10.046-4.063,20.979-5.209,26.027
					c-2.566,11.29-6.673,34.896-6.673,38.488c0,3.59-2.481,16.969-2.481,16.969s5.032-1.767,7.741-2.599
					c2.573-0.793,5.902-3.466,5.902-3.466s0.664-0.958,0.974-2.041c0.31-1.082,0.154-2.008,0.18-3.219
					c0.025-1.21,0.748-2.962,1.209-4.817c0.466-1.855,2.319-6.338,2.912-8.066c0.59-1.729,1.085-2.465,1.085-2.465
					s0.95-4.001,2.497-6.163c1.547-2.163,7.435-20.952,10.048-29.523c2.611-8.573,8.5-41.271,9.318-41.719
					c0.061-0.033,0.156-0.05,0.279-0.05c1.516,0,7.291,2.358,7.291,2.358s1.352,5.247,1.658,6.484
					c0.308,1.238,5.27,22.722,10.203,38.489c6.336,20.249,14.221,36.324,14.529,37.1c0.311,0.771,0.677,4.011,0.464,4.636
					c-0.213,0.626,1.391,2.318,1.391,2.318s0,1.546,0.619,3.71c0.62,2.162,1.545,5.41,1.412,6.177
					c-0.135,0.767,0.255,2.694,0.255,2.694s1.889,2.722,2.352,3.186c0.463,0.465,2.474,1.082,3.167,1.562
					c0.359,0.247,0.968,0.308,1.471,0.308c0.465,0,0.838-0.051,0.838-0.051l-1.538-4.686c0,0-0.691-4.862-0.691-9.034
					c0-4.174-1.391-7.265-1.546-9.738c-0.154-2.474-4.019-19.168-4.946-26.278c-0.927-7.11-7.313-28.01-7.313-28.01
					c-5.646-22.066-14.363-25.878-18.981-28.445C312.441,617.909,304.914,615.165,297.458,615.165"/>
      

	</g>
	<g id="SLEEVES" clip-path="url(#SVGID_Front2_)">
		<defs>
			<rect id="SVGID_Front5_" x="37.926" y="38.703" width="547" height="707.882"/>
		</defs>
		<clipPath id="SVGID_Front6_">
			<use xlink:href="#SVGID_Front5_"  overflow="visible"/>
		</clipPath>
		<path clip-path="url(#SVGID_Front6_)" fill="#FDBB2D" d="M438.049,205.152c-0.004,0.019-0.007,0.03-0.007,0.03
			S438.045,205.169,438.049,205.152"/>
		<path clip-path="url(#SVGID_Front6_)" fill="#004D86" d="M192.148,235.272c0-0.006,0-0.012,0-0.019
			c-0.006-0.342-0.014-0.697-0.024-1.057c-0.001-0.031-0.002-0.063-0.003-0.094c-0.01-0.346-0.023-0.699-0.039-1.055
			c-0.002-0.031-0.003-0.063-0.005-0.094c-0.017-0.376-0.037-0.755-0.061-1.134c0-0.005-0.001-0.011-0.001-0.016
			c-0.025-0.384-0.054-0.767-0.086-1.147c-0.002-0.025-0.004-0.051-0.006-0.077c-0.032-0.355-0.067-0.708-0.106-1.055
			c-0.003-0.037-0.007-0.074-0.012-0.11c-0.04-0.341-0.084-0.677-0.133-1.002l-0.012-0.087c-0.054-0.349-0.112-0.687-0.177-1.008
			c-0.938-4.693-8.135-44.432-9.699-51.942c-1.565-7.509-8.449-32.854-9.7-39.738c-0.048-0.268-0.095-0.545-0.14-0.826
			c-0.013-0.079-0.026-0.161-0.038-0.241c-0.035-0.222-0.068-0.448-0.101-0.677c-0.009-0.069-0.021-0.138-0.029-0.209
			c-0.041-0.29-0.079-0.583-0.115-0.88c-0.009-0.069-0.016-0.137-0.025-0.205c-0.029-0.241-0.057-0.482-0.083-0.726
			c-0.01-0.092-0.02-0.184-0.029-0.277c-0.029-0.274-0.057-0.55-0.083-0.828c-0.004-0.034-0.008-0.068-0.011-0.103
			c-0.028-0.309-0.057-0.619-0.083-0.929c-0.008-0.095-0.016-0.189-0.023-0.283c-0.02-0.239-0.039-0.477-0.058-0.715
			c-0.006-0.084-0.012-0.168-0.018-0.251c-0.023-0.312-0.046-0.621-0.066-0.93c-0.003-0.059-0.007-0.117-0.011-0.177
			c-0.017-0.255-0.032-0.51-0.047-0.762c-0.005-0.094-0.012-0.188-0.017-0.281c-0.016-0.267-0.03-0.53-0.043-0.792
			c-0.002-0.039-0.005-0.077-0.006-0.116c-0.016-0.301-0.029-0.599-0.043-0.892c-0.003-0.073-0.006-0.146-0.011-0.219
			c-0.009-0.24-0.021-0.475-0.029-0.708c-0.002-0.057-0.005-0.114-0.008-0.17c-0.011-0.289-0.022-0.572-0.031-0.846
			c-0.001-0.016-0.001-0.031-0.002-0.047c-0.009-0.262-0.017-0.517-0.024-0.765c-0.002-0.043-0.002-0.087-0.004-0.129
			c-0.015-0.532-0.028-1.027-0.038-1.477v-0.004c-2.078,1.432-6.127,4.098-8.666,4.944c-3.528,1.175-23.518,16.463-29.398,37.041
			c-5.88,20.579-7.056,71.144-7.056,71.144l-1.763,8.82l-1.764,5.291c0,0,20.578,5.292,38.217,6.468
			c17.639,1.176,28.811,1.176,28.811,1.176s1.176-1.176,0.588-4.704c-0.588-3.528-1.176-4.704-0.588-6.468
			c0.55-1.648,2.639-6.893,2.91-7.568C192.156,235.98,192.153,235.631,192.148,235.272"/>
		<path clip-path="url(#SVGID_Front6_)" fill="#004D86" d="M492.05,242.117l-1.764-8.82c0,0-1.176-50.564-7.055-71.143
			c-5.881-20.579-25.873-35.866-29.398-37.042c-2.626-0.875-6.877-3.702-8.88-5.092c-0.077,3.723-0.337,10.758-1.22,15.616
			c-1.252,6.884-8.137,32.229-9.7,39.738c-1.564,7.51-8.762,47.249-9.699,51.942c-0.6,2.992-0.688,7.254-0.676,9.953
			c0.117-0.654,0.188-1.032,0.188-1.032s2.353,5.88,2.94,7.644s0,2.939-0.588,6.467s0.588,4.705,0.588,4.705s11.17,0,28.81-1.177
			c17.639-1.175,38.219-6.468,38.219-6.468L492.05,242.117z"/>
	</g>
	<g id="COLLAR" clip-path="url(#SVGID_Front2_)">
		<defs>
			<rect id="SVGID_Front7_" x="37.926" y="38.703" width="547" height="707.882"/>
		</defs>
		<clipPath id="SVGID_Front8_">
			<use xlink:href="#SVGID_Front7_"  overflow="visible"/>
		</clipPath>
		<path clip-path="url(#SVGID_Front8_)" fill="#004D86" d="M310.865,104.904c39.604-0.393,56.209-15.408,60.18-19.738
			c-4.682-3.514-7.852-6.223-8.936-7.091c-2.939-2.352-2.939-4.116-5.879-5.879c-2.94-1.764-4.116-7.056-9.995-9.996
			c-3.742-1.872-20.584-2.551-32.334-2.799l-0.004-0.141c0,0-2.312,0-5.88,0.042c-3.569-0.042-5.881-0.042-5.881-0.042l-0.004,0.141
			c-11.751,0.248-28.591,0.927-32.333,2.799c-5.879,2.94-7.056,8.232-9.995,9.996c-2.94,1.763-2.94,3.527-5.88,5.879
			c-0.862,0.691-3.054,2.552-6.271,5.056C252.686,88.496,271.598,105.292,310.865,104.904"/>
	</g>
	<g clip-path="url(#SVGID_Front2_)">
		<defs>
			<rect id="SVGID_Front9_" x="37.926" y="38.703" width="547" height="707.882"/>
		</defs>
		<clipPath id="SVGID_Front10_">
			<use xlink:href="#SVGID_Front9_"  overflow="visible"/>
		</clipPath>
	</g>
	<g clip-path="url(#SVGID_Front2_)">
		<defs>
			<rect id="SVGID_Front11_" x="37.926" y="38.703" width="547" height="707.882"/>
		</defs>
		<clipPath id="SVGID_Front12_">
			<use xlink:href="#SVGID_Front11_"  overflow="visible"/>
		</clipPath>
	</g>
	<g clip-path="url(#SVGID_Front2_)">
		<defs>
			<rect id="SVGID_Front13_" x="37.926" y="38.703" width="547" height="707.882"/>
		</defs>
		<clipPath id="SVGID_Front14_">
			<use xlink:href="#SVGID_Front13_"  overflow="visible"/>
		</clipPath>
	</g>
	<g clip-path="url(#SVGID_Front2_)">
		<defs>
			<rect id="SVGID_Front15_" x="37.926" y="38.703" width="547" height="707.882"/>
		</defs>
		<clipPath id="SVGID_Front16_">
			<use xlink:href="#SVGID_Front15_"  overflow="visible"/>
		</clipPath>
		<path clip-path="url(#SVGID_Front16_)" fill="#BF2A43" d="M268.767,679.362c-0.023,0.117-0.048,0.232-0.069,0.348
			C268.719,679.595,268.743,679.479,268.767,679.362"/>
		<path clip-path="url(#SVGID_Front16_)" fill="#BF2A43" d="M268.609,680.138c-0.035,0.172-0.07,0.344-0.104,0.514
			C268.539,680.481,268.574,680.31,268.609,680.138"/>
		<path clip-path="url(#SVGID_Front16_)" fill="#BF2A43" d="M268.416,681.104c-0.028,0.133-0.055,0.265-0.081,0.396
			C268.361,681.369,268.388,681.237,268.416,681.104"/>
		<path clip-path="url(#SVGID_Front16_)" fill="#BF2A43" d="M270.659,670.01c-0.022,0.11-0.044,0.22-0.066,0.33
			C270.615,670.229,270.637,670.12,270.659,670.01"/>
		<path clip-path="url(#SVGID_Front16_)" fill="#BF2A43" d="M270.428,671.147c-0.034,0.174-0.069,0.346-0.104,0.518
			C270.358,671.493,270.394,671.321,270.428,671.147"/>
		<path clip-path="url(#SVGID_Front16_)" fill="#BF2A43" d="M268.242,681.964c-0.031,0.151-0.061,0.301-0.091,0.45
			C268.182,682.265,268.211,682.115,268.242,681.964"/>
		<path clip-path="url(#SVGID_Front16_)" fill="#BF2A43" d="M269.367,676.39c-0.025,0.123-0.051,0.245-0.075,0.367
			C269.316,676.635,269.342,676.513,269.367,676.39"/>
		<path clip-path="url(#SVGID_Front16_)" fill="#BF2A43" d="M269.804,674.231c-0.029,0.145-0.06,0.288-0.089,0.432
			C269.744,674.52,269.774,674.376,269.804,674.231"/>
		<path clip-path="url(#SVGID_Front16_)" fill="#BF2A43" d="M270.236,672.093c-0.06,0.29-0.117,0.579-0.176,0.867
			C270.119,672.672,270.177,672.383,270.236,672.093"/>
		<path clip-path="url(#SVGID_Front16_)" fill="#BF2A43" d="M269.161,677.403c-0.026,0.133-0.054,0.267-0.08,0.398
			C269.107,677.67,269.135,677.536,269.161,677.403"/>
		<path clip-path="url(#SVGID_Front16_)" fill="#BF2A43" d="M268.983,678.285c-0.029,0.152-0.061,0.304-0.092,0.454
			C268.923,678.588,268.954,678.438,268.983,678.285"/>
		<path clip-path="url(#SVGID_Front16_)" fill="#BF2A43" d="M271.023,668.22c-0.099,0.481-0.196,0.962-0.293,1.438
			C270.827,669.182,270.925,668.701,271.023,668.22"/>
		<path clip-path="url(#SVGID_Front16_)" fill="#BF2A43" d="M168.439,574.126c0.043-0.255,0.087-0.519,0.131-0.789
			C168.526,573.607,168.482,573.87,168.439,574.126"/>
		<path clip-path="url(#SVGID_Front16_)" fill="#BF2A43" d="M270.022,673.151c-0.057,0.278-0.112,0.555-0.169,0.829
			C269.91,673.706,269.966,673.43,270.022,673.151"/>
		<polyline clip-path="url(#SVGID_Front16_)" fill="#BF2A43" points="168.833,571.683 168.833,571.679 168.833,571.683 		"/>
		<path clip-path="url(#SVGID_Front16_)" fill="#BF2A43" d="M168.676,572.682c0.008-0.052,0.016-0.102,0.024-0.152
			C168.692,572.58,168.685,572.63,168.676,572.682"/>
		<path clip-path="url(#SVGID_Front16_)" fill="#BF2A43" d="M271.761,664.605c-0.125,0.604-0.246,1.207-0.371,1.809
			C271.515,665.813,271.636,665.21,271.761,664.605"/>
		<path clip-path="url(#SVGID_Front16_)" fill="#BF2A43" d="M342.031,685.206c-0.031-0.14-0.063-0.278-0.095-0.418
			C341.969,684.928,342,685.066,342.031,685.206"/>
		<path clip-path="url(#SVGID_Front16_)" fill="#BF2A43" d="M447.347,573.572c0.009,0.041,0.016,0.084,0.022,0.126
			C447.362,573.656,447.355,573.613,447.347,573.572"/>
		<path clip-path="url(#SVGID_Front16_)" fill="#BF2A43" d="M340.351,677.875c-0.013-0.052-0.024-0.103-0.036-0.154
			C340.326,677.772,340.338,677.823,340.351,677.875"/>
		<path clip-path="url(#SVGID_Front16_)" fill="#BF2A43" d="M340.921,680.331c-0.015-0.063-0.028-0.126-0.044-0.188
			C340.893,680.205,340.906,680.268,340.921,680.331"/>
		<path clip-path="url(#SVGID_Front16_)" fill="#BF2A43" d="M341.759,683.995c-0.025-0.109-0.05-0.217-0.074-0.328
			C341.709,683.777,341.733,683.887,341.759,683.995"/>
		<path clip-path="url(#SVGID_Front16_)" fill="#BF2A43" d="M341.488,682.806c-0.023-0.104-0.047-0.204-0.069-0.309
			C341.441,682.602,341.465,682.702,341.488,682.806"/>
		<path clip-path="url(#SVGID_Front16_)" fill="#BF2A43" d="M341.21,681.589c-0.021-0.088-0.039-0.174-0.06-0.261
			C341.171,681.414,341.189,681.501,341.21,681.589"/>
		<path clip-path="url(#SVGID_Front16_)" fill="#BF2A43" d="M340.05,676.595c-0.006-0.025-0.011-0.051-0.018-0.076
			C340.039,676.544,340.043,676.569,340.05,676.595"/>
		<path clip-path="url(#SVGID_Front16_)" fill="#BF2A43" d="M338.052,668.248l-0.008-0.031L338.052,668.248z"/>
		<path clip-path="url(#SVGID_Front16_)" fill="#BF2A43" d="M447.148,572.376c0.012,0.065,0.022,0.132,0.033,0.198
			C447.171,572.508,447.16,572.441,447.148,572.376"/>
		<path clip-path="url(#SVGID_Front16_)" fill="#BF2A43" d="M338.894,671.727c-0.003-0.013-0.006-0.027-0.01-0.039
			C338.888,671.699,338.891,671.714,338.894,671.727"/>
		<path clip-path="url(#SVGID_Front16_)" fill="#BF2A43" d="M339.481,674.188c-0.01-0.042-0.02-0.084-0.029-0.126
			C339.462,674.104,339.472,674.146,339.481,674.188"/>
		<path clip-path="url(#SVGID_Front16_)" fill="#BF2A43" d="M339.186,672.941c-0.006-0.022-0.012-0.046-0.018-0.069
			C339.174,672.896,339.18,672.919,339.186,672.941"/>
		<path clip-path="url(#SVGID_Front16_)" fill="#BF2A43" d="M339.767,675.392c-0.009-0.035-0.016-0.07-0.024-0.105
			C339.75,675.321,339.758,675.356,339.767,675.392"/>
		<path clip-path="url(#SVGID_Front16_)" fill="#BF2A43" d="M340.647,679.154c-0.019-0.081-0.036-0.161-0.056-0.241
			C340.611,678.993,340.629,679.073,340.647,679.154"/>
		<path clip-path="url(#SVGID_Front16_)" fill="#BF2A43" d="M344.064,694.929c-0.016-0.095-0.031-0.186-0.049-0.287
			C344.033,694.743,344.049,694.834,344.064,694.929"/>
		<path clip-path="url(#SVGID_Front16_)" fill="#BF2A43" d="M343.697,692.972c-0.023-0.125-0.048-0.245-0.074-0.376
			C343.649,692.727,343.674,692.847,343.697,692.972"/>
		<path clip-path="url(#SVGID_Front16_)" fill="#BF2A43" d="M343.845,693.721c-0.025-0.124-0.048-0.245-0.073-0.377
			C343.797,693.476,343.819,693.597,343.845,693.721"/>
		<path clip-path="url(#SVGID_Front16_)" fill="#BF2A43" d="M343.967,694.376c-0.021-0.115-0.042-0.228-0.065-0.352
			C343.925,694.148,343.945,694.261,343.967,694.376"/>
		<path clip-path="url(#SVGID_Front16_)" fill="#BF2A43" d="M344.264,696.322c-0.006-0.084-0.016-0.183-0.029-0.296
			C344.248,696.14,344.258,696.238,344.264,696.322"/>
		<path clip-path="url(#SVGID_Front16_)" fill="#BF2A43" d="M342.276,686.304c-0.029-0.134-0.06-0.268-0.09-0.403
			C342.217,686.036,342.247,686.17,342.276,686.304"/>
		<path clip-path="url(#SVGID_Front16_)" fill="#BF2A43" d="M344.217,695.899c-0.01-0.082-0.02-0.161-0.034-0.255
			C344.197,695.738,344.207,695.817,344.217,695.899"/>
		<path clip-path="url(#SVGID_Front16_)" fill="#BF2A43" d="M344.152,695.455c-0.015-0.089-0.026-0.174-0.043-0.272
			C344.126,695.281,344.138,695.366,344.152,695.455"/>
		<path clip-path="url(#SVGID_Front16_)" fill="#BF2A43" d="M342.761,688.508c-0.034-0.16-0.069-0.317-0.104-0.48
			C342.691,688.19,342.727,688.348,342.761,688.508"/>
		<path clip-path="url(#SVGID_Front16_)" fill="#BF2A43" d="M342.974,689.489c-0.033-0.152-0.065-0.302-0.099-0.458
			C342.908,689.188,342.94,689.337,342.974,689.489"/>
		<path clip-path="url(#SVGID_Front16_)" fill="#BF2A43" d="M342.519,687.397c-0.03-0.134-0.059-0.266-0.089-0.4
			C342.46,687.132,342.488,687.264,342.519,687.397"/>
		<path clip-path="url(#SVGID_Front16_)" fill="#BF2A43" d="M343.543,692.201c-0.028-0.14-0.056-0.274-0.085-0.418
			C343.487,691.927,343.515,692.062,343.543,692.201"/>
		<path clip-path="url(#SVGID_Front16_)" fill="#BF2A43" d="M343.37,691.365c-0.03-0.147-0.06-0.293-0.093-0.445
			C343.311,691.072,343.34,691.218,343.37,691.365"/>
		<path clip-path="url(#SVGID_Front16_)" fill="#BF2A43" d="M343.173,690.421c-0.03-0.137-0.058-0.271-0.087-0.41
			C343.115,690.149,343.143,690.284,343.173,690.421"/>
		<path clip-path="url(#SVGID_Front16_)" fill="#BF2A43" d="M448.262,579.094c0.004,0.021,0.006,0.044,0.011,0.068
			C448.269,579.138,448.266,579.115,448.262,579.094"/>
		<path clip-path="url(#SVGID_Front16_)" fill="#BF2A43" d="M448.994,583.627c0.003,0.019,0.007,0.037,0.009,0.056
			C449.001,583.664,448.997,583.646,448.994,583.627"/>
		<path clip-path="url(#SVGID_Front16_)" fill="#BF2A43" d="M448.865,582.813c0.006,0.037,0.011,0.072,0.018,0.108
			C448.876,582.886,448.871,582.851,448.865,582.813"/>
		<path clip-path="url(#SVGID_Front16_)" fill="#BF2A43" d="M448.726,581.941c0.005,0.038,0.011,0.075,0.019,0.112
			C448.736,582.017,448.73,581.979,448.726,581.941"/>
		<path clip-path="url(#SVGID_Front16_)" fill="#BF2A43" d="M448.085,578.022c0.006,0.035,0.012,0.07,0.018,0.106
			C448.097,578.093,448.091,578.058,448.085,578.022"/>
		<path clip-path="url(#SVGID_Front16_)" fill="#BF2A43" d="M448.572,580.993c0.008,0.051,0.016,0.102,0.024,0.152
			C448.588,581.095,448.58,581.044,448.572,580.993"/>
		<path clip-path="url(#SVGID_Front16_)" fill="#BF2A43" d="M449.281,585.485c0.003,0.026,0.007,0.051,0.011,0.076
			C449.288,585.536,449.284,585.512,449.281,585.485"/>
		<path clip-path="url(#SVGID_Front16_)" fill="#BF2A43" d="M449.348,585.952c0.002,0.017,0.004,0.03,0.007,0.046
			C449.352,585.982,449.35,585.969,449.348,585.952"/>
		<path clip-path="url(#SVGID_Front16_)" fill="#BF2A43" d="M447.905,576.934c0.005,0.028,0.009,0.058,0.015,0.087
			C447.914,576.991,447.91,576.962,447.905,576.934"/>
		<path clip-path="url(#SVGID_Front16_)" fill="#BF2A43" d="M449.195,584.918c0.005,0.035,0.011,0.072,0.016,0.105
			C449.206,584.99,449.2,584.953,449.195,584.918"/>
		<path clip-path="url(#SVGID_Front16_)" fill="#BF2A43" d="M449.104,584.328c0.002,0.012,0.004,0.026,0.007,0.04
			C449.108,584.354,449.106,584.34,449.104,584.328"/>
		<path clip-path="url(#SVGID_Front16_)" fill="#BF2A43" d="M447.539,574.717c0.009,0.057,0.019,0.111,0.026,0.167
			C447.558,574.828,447.548,574.773,447.539,574.717"/>
		<path clip-path="url(#SVGID_Front16_)" fill="#BF2A43" d="M447.722,575.821c0.005,0.026,0.009,0.054,0.013,0.078
			C447.73,575.875,447.726,575.848,447.722,575.821"/>
		<path clip-path="url(#SVGID_Front16_)" fill="#BF2A43" d="M271.34,666.665c-0.02,0.098-0.038,0.194-0.06,0.291
			C271.302,666.859,271.32,666.763,271.34,666.665"/>
		<path clip-path="url(#SVGID_Front16_)" fill="#BF2A43" d="M267.095,687.675c-0.282,1.412-0.484,2.414-0.576,2.874
			C266.61,690.089,266.813,689.087,267.095,687.675"/>
		<path clip-path="url(#SVGID_Front16_)" fill="#BF2A43" d="M267.756,684.382c-0.081,0.404-0.159,0.793-0.233,1.164
			C267.597,685.175,267.675,684.785,267.756,684.382"/>
	</g>
	<g clip-path="url(#SVGID_Front2_)">
		<defs>
			<rect id="SVGID_Front17_" x="37.926" y="38.703" width="547" height="707.882"/>
		</defs>
		<clipPath id="SVGID_Front18_">
			<use xlink:href="#SVGID_Front17_"  overflow="visible"/>
		</clipPath>
    </g>
	<g clip-path="url(#SVGID_Front2_)">
		<defs>
			<rect id="SVGID_Front19_" x="37.926" y="38.703" width="547" height="707.882"/>
		</defs>
		<clipPath id="SVGID_Front20_">
			<use xlink:href="#SVGID_Front19_"  overflow="visible"/>
		</clipPath>
    <g id="Crotch">
      		<path clip-path="url(#SVGID_Front20_)" fill="#004D86" d="M346.765,717.105c-0.385-0.769,0-1.924,0.577-2.693
			c0.578-0.771,0.192-1.924-0.577-2.887c-0.771-0.962-0.578-2.694-0.578-2.694l0.771-1.348c0,0-2.501-8.467-2.693-11.161
			c-0.194-2.693-4.426-20.976-7.119-31.751c-2.695-10.778-4.619-30.212-15.973-41.375c-7.205-7.083-24.439-9.044-32.521-6.541
			c-8.083,2.502-9.237,13.277-11.161,20.974c-1.926,7.698-10.2,49.071-10.971,52.92c-0.603,3.018-3.48,22.041-4.697,30.127
			c0.684,0.023,1.607,0.033,2.195-0.04c1.026-0.128,1.924-1.411,1.924-1.411s2.182-0.514,4.234-1.026
			c2.052-0.515,4.104-1.669,5.902-3.466c1.796-1.796,1.153-5.26,1.153-5.26s1.284-4.875,1.668-6.285
			c0.386-1.412,2.694-6.158,3.207-7.313c0.513-1.153,0.386-2.564,0.386-2.564s6.159-14.754,9.877-26.301
			c3.721-11.547,11.932-50.29,11.932-50.29l7.569,2.309c0,0,1.667,5.773,1.796,7.57c0.13,1.797,3.335,13.983,3.977,16.549
			c0.643,2.567,5.133,18.218,6.671,22.708c1.54,4.489,8.725,23.734,10.008,26.813c1.281,3.08,4.363,9.364,4.49,10.008
			c0.127,0.642,0.127,1.797,0.127,2.436c0,0.641,0.386,2.568,0.386,2.568l0.77,1.026c0,0,0,1.282,0.129,1.925
			c0.13,0.641,0.64,1.923,0.771,2.308c0.129,0.385,1.154,5.004,1.154,5.004v1.41l0.255,1.284c0,0,1.155,1.795,1.539,2.438
			c0.386,0.644,3.079,2.181,3.979,2.31c0.263,0.036,0.566,0.074,0.867,0.108c-0.046-1.957-0.097-4.218-0.097-4.537
			C348.69,720.376,347.15,717.876,346.765,717.105"/>

    </g>
	</g>
	<g clip-path="url(#SVGID_Front2_)">
		<defs>
			<rect id="SVGID_Front21_" x="37.926" y="38.703" width="547" height="707.882"/>
		</defs>
		<clipPath id="SVGID_Front22_">
			<use xlink:href="#SVGID_Front21_"  overflow="visible"/>
		</clipPath>
		<g opacity="0.35" clip-path="url(#SVGID_Front22_)">
			<g>
				<defs>
					<rect id="SVGID_Front23_" x="249.552" y="81.467" width="119.91" height="21.363"/>
				</defs>
				<clipPath id="SVGID_Front24_">
					<use xlink:href="#SVGID_Front23_"  overflow="visible"/>
				</clipPath>
				
					<path clip-path="url(#SVGID_Front24_)" fill="none" stroke="#5C7BA8" stroke-width="0.776" stroke-miterlimit="10" stroke-dasharray="0.667,0.667" d="
					M369.173,83.975c0,0-11.991,18.042-58.278,18.501c-46.716,0.463-61.055-20.813-61.055-20.813"/>
			</g>
		</g>
		<g opacity="0.35" clip-path="url(#SVGID_Front22_)">
			<g>
				<defs>
					<rect id="SVGID_Front25_" x="125.057" y="235.743" width="64.193" height="8.485"/>
				</defs>
				<clipPath id="SVGID_Front26_">
					<use xlink:href="#SVGID_Front25_"  overflow="visible"/>
				</clipPath>
				
					<path clip-path="url(#SVGID_Front26_)" fill="none" stroke="#5C7BA8" stroke-width="0.776" stroke-miterlimit="10" stroke-dasharray="0.667,0.667" d="
					M125.149,236.077c0,0,14.707,4.067,33.168,5.945c18.461,1.877,30.931,1.858,30.931,1.858"/>
			</g>
		</g>
		<g opacity="0.35" clip-path="url(#SVGID_Front22_)">
			<g>
				<defs>
					<rect id="SVGID_Front27_" x="125.057" y="238.521" width="64.193" height="8.485"/>
				</defs>
				<clipPath id="SVGID_Front28_">
					<use xlink:href="#SVGID_Front27_"  overflow="visible"/>
				</clipPath>
				
					<path clip-path="url(#SVGID_Front28_)" fill="none" stroke="#5C7BA8" stroke-width="0.776" stroke-miterlimit="10" stroke-dasharray="0.667,0.667" d="
					M125.149,238.855c0,0,14.707,4.067,33.168,5.944c18.461,1.878,30.931,1.858,30.931,1.858"/>
			</g>
		</g>
		<g opacity="0.35" clip-path="url(#SVGID_Front22_)">
			<g>
				<defs>
					<rect id="SVGID_Front29_" x="427.191" y="235.743" width="64.193" height="8.485"/>
				</defs>
				<clipPath id="SVGID_Front30_">
					<use xlink:href="#SVGID_Front29_"  overflow="visible"/>
				</clipPath>
				
					<path clip-path="url(#SVGID_Front30_)" fill="none" stroke="#5C7BA8" stroke-width="0.776" stroke-miterlimit="10" stroke-dasharray="0.667,0.667" d="
					M491.291,236.077c0,0-14.705,4.067-33.166,5.945c-18.462,1.877-30.934,1.858-30.934,1.858"/>
			</g>
		</g>
		<g opacity="0.35" clip-path="url(#SVGID_Front22_)">
			<g>
				<defs>
					<rect id="SVGID_Front31_" x="427.191" y="238.521" width="64.193" height="8.485"/>
				</defs>
				<clipPath id="SVGID_Front32_">
					<use xlink:href="#SVGID_Front31_"  overflow="visible"/>
				</clipPath>
				
					<path clip-path="url(#SVGID_Front32_)" fill="none" stroke="#5C7BA8" stroke-width="0.776" stroke-miterlimit="10" stroke-dasharray="0.667,0.667" d="
					M491.291,238.855c0,0-14.705,4.067-33.166,5.944c-18.462,1.878-30.934,1.858-30.934,1.858"/>
			</g>
		</g>
		<g opacity="0.35" clip-path="url(#SVGID_Front22_)">
			<g>
				<defs>
					<rect id="SVGID_Front33_" x="189.914" y="508.958" width="234.854" height="23.186"/>
				</defs>
				<clipPath id="SVGID_Front34_">
					<use xlink:href="#SVGID_Front33_"  overflow="visible"/>
				</clipPath>
				
					<path clip-path="url(#SVGID_Front34_)" fill="none" stroke="#5C7BA8" stroke-width="0.776" stroke-miterlimit="10" stroke-dasharray="0.667,0.667" d="
					M190.232,510.493c0,0,5.006,11.577,32.542,15.331c27.535,3.754,56.559,6.263,87.612,5.945
					c30.664-0.313,91.334-10.227,97.938-11.576c13.767-2.817,16.109-11.142,16.109-11.142"/>
			</g>
		</g>
		<g opacity="0.35" clip-path="url(#SVGID_Front22_)">
			<g>
				<defs>
					<rect id="SVGID_Front35_" x="189.144" y="511.212" width="237.083" height="24.402"/>
				</defs>
				<clipPath id="SVGID_Front36_">
					<use xlink:href="#SVGID_Front35_"  overflow="visible"/>
				</clipPath>
				
					<path clip-path="url(#SVGID_Front36_)" fill="none" stroke="#5C7BA8" stroke-width="0.776" stroke-miterlimit="10" stroke-dasharray="0.667,0.667" d="
					M189.454,514.089c0,0,5.784,11.452,33.32,15.208c27.535,3.754,56.559,6.262,87.612,5.944
					c30.664-0.313,91.334-10.227,97.938-11.577c13.767-2.816,17.58-12.323,17.58-12.323"/>
			</g>
		</g>
		<g opacity="0.35" clip-path="url(#SVGID_Front22_)">
			<g>
				<defs>
					<rect id="SVGID_Front37_" x="423.31" y="120.019" width="21.99" height="119.827"/>
				</defs>
				<clipPath id="SVGID_Front38_">
					<use xlink:href="#SVGID_Front37_"  overflow="visible"/>
				</clipPath>
				<path clip-path="url(#SVGID_Front38_)" fill="none" stroke="#5C7BA8" stroke-width="0.776" stroke-miterlimit="10" d="
					M444.953,120.02c0,0,0.032,8.732-1.22,15.616c-1.252,6.884-8.137,32.229-9.7,39.738c-1.564,7.51-8.762,47.249-9.699,51.942
					c-0.939,4.693-0.627,12.516-0.627,12.516"/>
			</g>
		</g>
		<g opacity="0.35" clip-path="url(#SVGID_Front22_)">
			<g>
				<defs>
					<rect id="SVGID_Front39_" x="170.521" y="120.167" width="21.987" height="119.68"/>
				</defs>
				<clipPath id="SVGID_Front40_">
					<use xlink:href="#SVGID_Front39_"  overflow="visible"/>
				</clipPath>
				<path clip-path="url(#SVGID_Front40_)" fill="none" stroke="#5C7BA8" stroke-width="0.776" stroke-miterlimit="10" d="
					M170.868,120.168c0,0-0.036,8.584,1.216,15.468c1.251,6.884,8.135,32.229,9.7,39.739c1.564,7.509,8.761,47.248,9.699,51.941
					c0.94,4.694,0.627,12.517,0.627,12.517"/>
			</g>
		</g>
		<g opacity="0.35" clip-path="url(#SVGID_Front22_)">
			<g>
				<defs>
					<rect id="SVGID_Front41_" x="247.952" y="82.948" width="123.374" height="22.309"/>
				</defs>
				<clipPath id="SVGID_Front42_">
					<use xlink:href="#SVGID_Front41_"  overflow="visible"/>
				</clipPath>
				
					<path clip-path="url(#SVGID_Front42_)" fill="none" stroke="#5C7BA8" stroke-width="0.776" stroke-miterlimit="10" stroke-dasharray="0.667,0.667" d="
					M371.045,85.166c0,0-13.891,19.279-60.18,19.738c-46.715,0.463-62.632-21.753-62.632-21.753"/>
			</g>
		</g>
		<g clip-path="url(#SVGID_Front22_)">
			<g>
				<defs>
					<rect id="SVGID_Front43_" x="165.427" y="439.629" width="283.328" height="281.529"/>
				</defs>
				<clipPath id="SVGID_Front44_">
					<use xlink:href="#SVGID_Front43_"  overflow="visible"/>
				</clipPath>
				<g opacity="0.5" clip-path="url(#SVGID_Front44_)">
					<g>
						<defs>
							<rect id="SVGID_Front45_" x="196.992" y="439.629" width="222.519" height="20.678"/>
						</defs>
						<clipPath id="SVGID_Front46_">
							<use xlink:href="#SVGID_Front45_"  overflow="visible"/>
						</clipPath>
						
							<path clip-path="url(#SVGID_Front46_)" fill="none" stroke="#897F76" stroke-width="0.715" stroke-miterlimit="10" stroke-dasharray="1.722,0.861" d="
							M197.178,439.935c0,0,6.823,4.865,12.719,7.355c5.896,2.489,29.087,9.695,44.678,11.529
							c15.593,1.834,49.656,1.179,74.158,0.263c24.501-0.917,58.041-3.668,61.448-3.931c3.406-0.264,9.566-0.655,10.744-0.917
							c1.18-0.263,10.219-2.358,12.71-4.324c2.488-1.966,3.273-2.883,3.798-3.669c0.525-0.786,1.003-2.395,1.003-2.395l0.762-4.161"
							/>
					</g>
				</g>
				<g opacity="0.5" clip-path="url(#SVGID_Front44_)">
					<g>
						<defs>
							<rect id="SVGID_Front47_" x="196.097" y="449.481" width="223.416" height="23.095"/>
						</defs>
						<clipPath id="SVGID_Front48_">
							<use xlink:href="#SVGID_Front47_"  overflow="visible"/>
						</clipPath>
						
							<path clip-path="url(#SVGID_Front48_)" fill="none" stroke="#897F76" stroke-width="0.715" stroke-miterlimit="10" stroke-dasharray="1.722,0.861" d="
							M196.408,449.557c0.134,0.564,0.518,2.45,1.042,3.104c0.523,0.654,7.467,4.717,20.047,8.778
							c12.577,4.062,36.423,9.696,52.145,10.612c15.724,0.918,47.56-1.572,70.618-1.311c23.06,0.264,56.34-4.454,65.643-6.55
							c9.301-2.097,13.344-8.115,13.344-8.115"/>
					</g>
				</g>
				<g opacity="0.5" clip-path="url(#SVGID_Front44_)">
					<g>
						<defs>
							<rect id="SVGID_Front49_" x="195.286" y="457.129" width="224.229" height="22.115"/>
						</defs>
						<clipPath id="SVGID_Front50_">
							<use xlink:href="#SVGID_Front49_"  overflow="visible"/>
						</clipPath>
						
							<path clip-path="url(#SVGID_Front50_)" fill="none" stroke="#897F76" stroke-width="0.715" stroke-miterlimit="10" stroke-dasharray="1.722,0.861" d="
							M195.486,457.378c0,0,7.992,6.42,28.956,12.711c20.963,6.288,39.959,10.22,82.411,8.384
							c42.449-1.834,67.213-2.096,84.639-5.109c17.426-3.015,19.522-4.456,21.094-5.11c1.572-0.655,4.196-1.833,4.849-2.49
							c0.654-0.654,1.813-2.43,1.813-2.43"/>
					</g>
				</g>
				<g opacity="0.5" clip-path="url(#SVGID_Front44_)">
					<g>
						<defs>
							<rect id="SVGID_Front51_" x="165.427" y="693.984" width="117.298" height="17.36"/>
						</defs>
						<clipPath id="SVGID_Front52_">
							<use xlink:href="#SVGID_Front51_"  overflow="visible"/>
						</clipPath>
						
							<path clip-path="url(#SVGID_Front52_)" fill="none" stroke="#897F76" stroke-width="0.715" stroke-miterlimit="10" stroke-dasharray="1.722,0.861" d="
							M165.489,706.652c0,0,14.869,2.952,30.451,3.545c15.584,0.593,21.599,2.073,42.41-1.378
							c20.811-3.453,29.096-5.031,32.055-6.313s6.114-2.365,7.593-3.353c1.479-0.985,3.256-2.171,3.354-2.564
							c0.099-0.395,1.084-2.465,1.084-2.465"/>
					</g>
				</g>
				<g opacity="0.5" clip-path="url(#SVGID_Front44_)">
					<g>
						<defs>
							<rect id="SVGID_Front53_" x="165.987" y="703.198" width="112.925" height="12.152"/>
						</defs>
						<clipPath id="SVGID_Front54_">
							<use xlink:href="#SVGID_Front53_"  overflow="visible"/>
						</clipPath>
						
							<path clip-path="url(#SVGID_Front54_)" fill="none" stroke="#897F76" stroke-width="0.715" stroke-miterlimit="10" stroke-dasharray="1.722,0.861" d="
							M166.057,710.594c0,0,19.725,4.438,36.688,4.438s33.631-1.184,50.201-4.635c16.57-3.452,22.489-5.13,23.475-5.722
							c0.985-0.591,2.366-1.183,2.366-1.183"/>
					</g>
				</g>
				<g opacity="0.5" clip-path="url(#SVGID_Front44_)">
					<g>
						<defs>
							<rect id="SVGID_Front55_" x="340.37" y="712.056" width="107.528" height="9.103"/>
						</defs>
						<clipPath id="SVGID_Front56_">
							<use xlink:href="#SVGID_Front55_"  overflow="visible"/>
						</clipPath>
						
							<path clip-path="url(#SVGID_Front56_)" fill="none" stroke="#897F76" stroke-width="0.715" stroke-miterlimit="10" stroke-dasharray="1.722,0.861" d="
							M340.597,712.281c0,0,1.485,1.486,4.207,1.98c1.481,0.268,2.538,0.15,2.538,0.15s22.332,3.188,28.395,4.057
							c6.063,0.868,19.43,3.465,38.731,1.855c19.303-1.607,33.39-3.409,33.39-3.409"/>
					</g>
				</g>
				<g opacity="0.5" clip-path="url(#SVGID_Front44_)">
					<g>
						<defs>
							<rect id="SVGID_Front57_" x="338.786" y="706.997" width="109.969" height="9.603"/>
						</defs>
						<clipPath id="SVGID_Front58_">
							<use xlink:href="#SVGID_Front57_"  overflow="visible"/>
						</clipPath>
						
							<path clip-path="url(#SVGID_Front58_)" fill="none" stroke="#897F76" stroke-width="0.715" stroke-miterlimit="10" stroke-dasharray="1.722,0.861" d="
							M339.112,707.084c0,0-0.743,2.599,12.867,4.454c13.611,1.858,31.307,6.063,57.662,4.333
							c26.357-1.732,38.12-3.234,38.857-4.216"/>
					</g>
				</g>
			</g>
		</g>
		<g opacity="0.5" clip-path="url(#SVGID_Front22_)">
			<g>
				<defs>
					<rect id="SVGID_Front59_" x="418.006" y="439.154" width="7.487" height="44.765"/>
				</defs>
				<clipPath id="SVGID_Front60_">
					<use xlink:href="#SVGID_Front59_"  overflow="visible"/>
				</clipPath>
				
					<path clip-path="url(#SVGID_Front60_)" fill="none" stroke="#897F76" stroke-width="0.477" stroke-miterlimit="10" stroke-dasharray="1.722,0.861" d="
					M419.247,439.179c0,0-0.24,2.083-0.502,3.132c-0.265,1.048-0.527,2.36-0.527,3.276c0,0.917,0.134,2.227,0.395,3.014
					c0.263,0.786,1.665,4.534,1.423,5.346c-0.243,0.812-1.16,2.645-1.16,3.693c0,1.05,0.394,7.075,0.786,8.647
					c0.392,1.573,2.226,8.516,3.013,9.826c0.786,1.312,1.181,3.014,1.31,3.801c0.132,0.786,1.312,3.93,1.312,3.93"/>
			</g>
		</g>
		<g opacity="0.5" clip-path="url(#SVGID_Front22_)">
			<g>
				<defs>
					<rect id="SVGID_Front61_" x="261.881" y="615.404" width="87.021" height="110.36"/>
				</defs>
				<clipPath id="SVGID_Front62_">
					<use xlink:href="#SVGID_Front61_"  overflow="visible"/>
				</clipPath>
				
					<path clip-path="url(#SVGID_Front62_)" fill="none" stroke="#887F76" stroke-width="0.477" stroke-miterlimit="10" stroke-dasharray="1.722,0.861" d="
					M348.69,725.765v-4.811c0-0.578-1.54-3.078-1.926-3.849c-0.385-0.769,0-1.924,0.577-2.693c0.578-0.771,0.192-1.923-0.577-2.887
					c-0.771-0.962-0.577-2.694-0.577-2.694l0.77-1.348c0,0-2.501-8.467-2.693-11.161c-0.194-2.693-4.426-20.976-7.119-31.751
					c-2.695-10.778-4.619-30.212-15.973-41.375c-7.205-7.083-24.439-9.045-32.522-6.541c-8.082,2.502-9.236,13.277-11.161,20.974
					c-1.924,7.698-10.2,49.071-10.971,52.92c-0.769,3.85-4.425,29.827-4.425,29.827"/>
			</g>
		</g>
	</g>
	<g clip-path="url(#SVGID_Front2_)">
		<defs>
			<rect id="SVGID_Front63_" x="37.926" y="38.703" width="547" height="707.882"/>
		</defs>
		<clipPath id="SVGID_Front64_">
			<use xlink:href="#SVGID_Front63_"  overflow="visible"/>
		</clipPath>
		<g opacity="0.03" clip-path="url(#SVGID_Front64_)">
			<g>
				<defs>
					<rect id="SVGID_Front65_" x="136.562" y="60.727" width="346.672" height="671.965"/>
				</defs>
				<clipPath id="SVGID_Front66_">
					<use xlink:href="#SVGID_Front65_"  overflow="visible"/>
				</clipPath>
				<path clip-path="url(#SVGID_Front66_)" d="M192.147,235.255v0.018V235.255z"/>
				<path clip-path="url(#SVGID_Front66_)" d="M310.895,85.824c24.283,0.231,42.784-12.256,42.553-14.338
					c-0.231-2.082-4.213-5.946-6.758-7.798c-2.544-1.849-14.639-3.085-38.922-2.952c-24.562,0.134-32.884,1.073-36.238,1.879
					s-8.881,6.934-8.188,8.321C264.037,72.325,286.754,85.595,310.895,85.824"/>
				<path clip-path="url(#SVGID_Front66_)" d="M311.27,60.727c-1.14,0-2.305,0.003-3.502,0.01c-24.562,0.134-32.883,1.073-36.238,1.879
					c-2.279,0.547-5.562,3.552-7.213,5.857c0.001,0,0.001,0.001,0.002,0.001c-0.756,1.056-1.175,1.966-0.993,2.424
					c0,0.001,0,0.002,0,0.003l0.002,0.004c0.002,0.002,0.002,0.004,0.004,0.006c0,0.001,0.001,0.002,0.001,0.003l0.001,0.005
					c0,0.001,0.001,0.002,0.001,0.002c0.001,0.002,0.002,0.005,0.004,0.007c0,0.001,0,0.002,0.001,0.002
					c0.001,0.002,0.002,0.004,0.003,0.007c0.001,0.001,0.002,0.002,0.002,0.003c0,0.002,0,0.002,0,0.002
					c0.001,0,0.001,0.001,0.002,0.002c0,0.001,0,0.001,0.001,0.001c0,0.001,0.001,0.002,0.001,0.003
					c0.001,0,0.001,0.001,0.001,0.001c0.001,0.001,0.003,0.002,0.003,0.003v0.001c0.002,0.001,0.002,0.002,0.002,0.003
					c0,0,0.002,0.001,0.002,0.002c0,0,0,0.001,0.001,0.002l0.002,0.002c0,0,0,0.001,0,0.002c0.002,0.002,0.004,0.004,0.006,0.007v0
					c0.687,1.026,10.525,6.94,23.932,10.989l0,0c7.136,2.156,15.282,3.782,23.599,3.861c0.223,0.003,0.444,0.003,0.666,0.003
					c11.183,0,21.102-2.675,28.479-5.738c-0.002,0-0.002-0.001-0.002-0.001c8.061-3.349,13.086-7.159,13.396-8.445
					c0.001-0.002,0.001-0.005,0.002-0.007s0.001-0.004,0.002-0.007s0.001-0.006,0.002-0.009c0-0.001,0-0.004,0.001-0.006
					c0.002-0.011,0.004-0.021,0.006-0.031c0-0.001,0-0.004,0-0.007v-0.002c0-0.002,0.001-0.004,0.001-0.006v-0.001
					c0-0.002,0-0.003,0.001-0.004V71.56v-0.004v-0.004c0.001,0,0.001-0.001,0.001-0.003v-0.002v-0.003v-0.003v-0.004v-0.003v-0.003
					v-0.004v-0.003v-0.003v-0.004v-0.003v-0.002v-0.003c0-0.001,0-0.002-0.001-0.002v-0.004v-0.003v-0.002
					c-0.001-0.001-0.001-0.003-0.001-0.006c-0.001-0.005-0.001-0.01-0.001-0.015c0-0.001-0.002-0.003-0.002-0.005
					c0-0.002,0-0.006-0.001-0.008c0-0.002-0.001-0.005-0.001-0.007c0-0.002-0.001-0.004-0.001-0.007l-0.002-0.018v-0.002
					c-0.001-0.003-0.001-0.006-0.002-0.01v-0.003c-0.001-0.004-0.002-0.007-0.002-0.011c0-0.001,0-0.002-0.001-0.002
					c-0.021-0.136-0.058-0.28-0.107-0.428c-0.001-0.001-0.001-0.003-0.002-0.004c-0.001-0.003-0.001-0.007-0.003-0.011
					c0-0.002,0-0.004-0.001-0.005c-0.001-0.003-0.002-0.006-0.004-0.01s-0.004-0.009-0.006-0.014c0-0.002-0.001-0.004-0.001-0.005
					c-0.001-0.005-0.003-0.008-0.005-0.013c0-0.001-0.001-0.002-0.001-0.003c-0.002-0.006-0.004-0.011-0.006-0.016v-0.001
					c-0.487-1.337-2.02-3.136-3.668-4.71l0.002,0c-1.01-0.966-2.063-1.848-2.943-2.489C344.272,61.931,333.219,60.727,311.27,60.727
					"/>
				<path clip-path="url(#SVGID_Front66_)" d="M412.578,459.049c0,1.924-4.619,3.079-6.158,3.849c-0.707,0.354-4.251,1.273-7.879,2.167
					c0.909,6.606,1.286,11.873,1.286,11.873s0.388,5.626,1.493,13.421c1.976,1.747,3.915,4.593,5.485,9.872
					c2.72,9.147,4.645,17.025,6.082,24.243c1.393,0.885,3.231,2.166,5.743,4.329l3.459,1.281c3.228-2.4,3.521-4.569,3.521-4.569
					V521.4c0,0,1.176-5.292,1.176-7.645c0-0.237-0.025-0.474-0.067-0.709c-0.048-0.195-0.099-0.395-0.15-0.598
					c-0.582-1.844-2.135-3.397-2.135-3.397s0-1.689-0.077-4.682c-1.245-4.355-2.479-8.488-2.928-10.169
					c-1.025-3.849-8.844-25.948-8.844-25.948l-1.932-0.225v-5.131C410.653,462.897,412.707,460.332,412.578,459.049 M350.827,65.76
					l-1.194,0.417c1.647,1.576,3.18,3.374,3.666,4.711v0.001c0.002,0.005,0.004,0.01,0.006,0.016c0,0,0.001,0.002,0.001,0.003
					c0.002,0.004,0.004,0.009,0.005,0.013c0,0.001,0.001,0.003,0.001,0.005c0.002,0.004,0.004,0.01,0.006,0.014
					c0.002,0.003,0.003,0.007,0.004,0.01c0.001,0.002,0.001,0.003,0.001,0.005c0.002,0.003,0.002,0.007,0.003,0.011
					c0.001,0.001,0.001,0.003,0.002,0.004c0.05,0.149,0.087,0.292,0.107,0.428c0.001,0.001,0.001,0.002,0.001,0.003
					c0,0.002,0.001,0.006,0.002,0.01v0.003c0.001,0.003,0.001,0.006,0.002,0.009v0.002l0.002,0.018c0,0.003,0.001,0.005,0.001,0.007
					c0,0.003,0.001,0.005,0.001,0.007c0.001,0.002,0.001,0.005,0.001,0.008c0.001,0.002,0.001,0.004,0.001,0.006
					c0.001,0.004,0.001,0.008,0.002,0.014c0,0.002,0,0.004,0.001,0.006v0.002v0.003v0.004c0.001,0.001,0.001,0.002,0.001,0.003
					v0.003v0.003v0.002v0.004v0.003v0.003v0v0.004v0.003v0.003v0.003v0.004v0.003v0.003c0,0.001,0,0.002-0.001,0.002v0.004v0.005
					v0.002c-0.001,0-0.001,0.002-0.001,0.004v0.002c0,0.001-0.001,0.003-0.001,0.004v0.002c0,0.003-0.001,0.006-0.001,0.007
					c-0.001,0.01-0.003,0.021-0.005,0.03c-0.001,0.003-0.001,0.005-0.001,0.007v0.001c-0.001,0.002-0.001,0.005-0.002,0.007
					c-0.001,0.003-0.001,0.006-0.002,0.008c-0.001,0.003-0.001,0.006-0.002,0.008c-0.31,1.285-5.332,5.097-13.395,8.445
					c0.68,1.412,1.172,2.747,1.25,3.773c0.304,3.943,0,3.639,0,9.402c0,5.763,2.124,11.525,5.764,20.018
					c3.639,8.492,7.583,3.943,10.312,16.075c2.022,8.986-6.439,10.152-10.965,10.152c-1.583,0-2.684-0.144-2.684-0.144
					s10.079,1.44,22.784,1.44c2.723,0,5.564-0.066,8.455-0.227c16.379-0.91,12.739,0,24.265-1.213
					c5.763-0.607,8.644-1.365,12.284-1.365c3.64,0,8.037,0.758,16.833,3.185c17.591,4.854,4.246,15.772,3.032,28.207
					c-1.213,12.436-18.805,10.616-23.96,17.289c-5.156,6.672-1.82,58.537-1.214,64.298c0.607,5.764-11.828,15.772-11.828,15.772
					s-3.336,9.706-5.459,16.985c-2.125,7.279,3.336,22.445,3.032,38.822c-0.303,16.378-15.165,37.912-20.32,49.741
					c-5.156,11.829-1.214,23.354,7.278,49.136c3.34,10.137,4.569,12.818,5.218,12.818c0.365,0,0.546-0.845,0.816-1.688
					c0.269-0.845,0.627-1.688,1.343-1.688c0.537,0,1.275,0.473,2.329,1.778c6.369,7.886,3.336,4.853,6.672,16.075
					c1.176,3.954,2.089,8.624,2.776,13.016c4.414-1.327,8.733-2.849,9.906-3.083c1.104-0.221,2.464-0.696,3.42-0.696
					c0.597,0,1.035,0.186,1.162,0.728c-0.197-1.85-0.859-7.601-0.859-7.601s-1.541-1.026-1.799-1.796
					c-0.256-0.77-1.525-4.661-1.525-4.661s5.796-1.985,8.22-4.635c0.247-0.272,0.514-0.646,0.772-1.056
					c-2.386-15.103-4.945-30.01-6.439-38.08c-2.939-15.874,0.589-53.505,3.528-68.204c2.94-14.7,7.056-62.324,6.468-69.968
					c-0.506-6.575,2.033-21.408,2.752-25.427c-0.013-2.697,0.076-6.959,0.676-9.953c0.938-4.693,8.135-44.431,9.699-51.941
					c1.563-7.51,8.448-32.855,9.7-39.739c0.883-4.857,1.143-11.893,1.22-15.615c-0.689-0.479-1.115-0.789-1.115-0.789
					s-15.876-5.291-38.219-14.11c-22.343-8.82-40.569-24.694-43.509-27.047c-2.94-2.352-2.94-4.116-5.88-5.879
					C354.284,71.028,353.104,68.314,350.827,65.76"/>
				<path clip-path="url(#SVGID_Front66_)" d="M349.633,66.177l-0.002,0c1.648,1.575,3.182,3.372,3.668,4.71
					C352.813,69.549,351.28,67.752,349.633,66.177"/>
				<path clip-path="url(#SVGID_Front66_)" d="M353.299,70.888c0.002,0.005,0.004,0.01,0.006,0.016
					C353.303,70.898,353.301,70.894,353.299,70.888"/>
				<polyline clip-path="url(#SVGID_Front66_)" points="353.306,70.908 353.311,70.92 353.306,70.908 				"/>
				<polyline clip-path="url(#SVGID_Front66_)" points="353.321,70.949 353.322,70.956 353.321,70.949 				"/>
				<polyline clip-path="url(#SVGID_Front66_)" points="353.325,70.965 353.327,70.97 353.325,70.965 				"/>
				<polyline clip-path="url(#SVGID_Front66_)" points="353.435,71.398 353.436,71.4 353.435,71.398 				"/>
				<path clip-path="url(#SVGID_Front66_)" d="M353.438,71.411v0.003V71.411z"/>
				<path clip-path="url(#SVGID_Front66_)" d="M353.439,71.424L353.439,71.424L353.439,71.424z"/>
				<polyline clip-path="url(#SVGID_Front66_)" points="353.441,71.444 353.442,71.451 353.441,71.444 				"/>
				<polyline clip-path="url(#SVGID_Front66_)" points="353.443,71.458 353.444,71.466 353.443,71.458 				"/>
				<path clip-path="url(#SVGID_Front66_)" d="M353.445,71.472c0.001,0.004,0.001,0.009,0.002,0.015
					C353.446,71.481,353.446,71.476,353.445,71.472"/>
				<polyline clip-path="url(#SVGID_Front66_)" points="353.447,71.486 353.448,71.492 353.447,71.486 				"/>
				<path clip-path="url(#SVGID_Front66_)" d="M353.448,71.495v0.003V71.495z"/>
				<polyline clip-path="url(#SVGID_Front66_)" points="353.448,71.502 353.449,71.504 353.448,71.502 				"/>
				<path clip-path="url(#SVGID_Front66_)" d="M353.449,71.508v0.002V71.508z"/>
				<path clip-path="url(#SVGID_Front66_)" d="M353.449,71.515v0.003V71.515z"/>
				<path clip-path="url(#SVGID_Front66_)" d="M353.434,71.644c-0.31,1.285-5.335,5.095-13.396,8.443c0,0.001,0,0.001,0.001,0.002
					C348.102,76.74,353.124,72.929,353.434,71.644 M353.436,71.636c-0.001,0.002-0.001,0.005-0.002,0.008
					C353.435,71.641,353.435,71.638,353.436,71.636 M353.438,71.628c-0.001,0.003-0.001,0.004-0.002,0.007
					C353.437,71.633,353.437,71.631,353.438,71.628 M353.439,71.62c-0.001,0.003-0.001,0.006-0.002,0.009
					C353.438,71.625,353.438,71.623,353.439,71.62 M353.44,71.613c-0.001,0.002-0.001,0.004-0.001,0.006
					C353.439,71.617,353.439,71.615,353.44,71.613 M353.445,71.583c-0.001,0.01-0.003,0.02-0.005,0.031
					C353.442,71.602,353.444,71.593,353.445,71.583 M353.446,71.576c0,0.001-0.001,0.004-0.001,0.007
					C353.445,71.58,353.446,71.578,353.446,71.576 M353.447,71.568c0,0.002-0.001,0.004-0.001,0.005
					C353.446,71.572,353.447,71.57,353.447,71.568 M353.448,71.561c-0.001,0.001-0.001,0.003-0.001,0.005
					C353.447,71.564,353.447,71.563,353.448,71.561 M353.448,71.555v0.003V71.555 M353.449,71.548c0,0.002,0,0.002-0.001,0.003
					C353.449,71.55,353.449,71.55,353.449,71.548 M353.449,71.542v0.003V71.542 M353.449,71.534v0.004V71.534 M353.449,71.528v0.003
					V71.528 M353.449,71.521v0.003v-0.001V71.521"/>
				<path clip-path="url(#SVGID_Front66_)" d="M207.056,526.746c-2.684,1.01-5.268,2.384-7.312,5.172
					c-0.199,0.271-0.39,0.587-0.575,0.944c1.809,0.702,3.994,1.358,6.628,1.906C206.192,532.518,206.649,529.722,207.056,526.746
					 M192.148,235.272v-0.019V235.272 M263.411,68.04c-1.253,1.753-2.241,3.335-3.606,4.155c-2.94,1.765-2.94,3.528-5.88,5.88
					c-2.94,2.352-21.167,18.226-43.509,27.046c-22.343,8.819-38.218,14.11-38.218,14.11s-0.52,0.376-1.33,0.935
					c0.08,3.759,0.345,10.675,1.216,15.469c1.251,6.884,8.135,32.229,9.7,39.738c1.564,7.51,8.761,47.249,9.699,51.942
					c0.532,2.658,0.663,6.319,0.675,8.996l0.03-0.075c0,0,3.528,18.815,2.939,26.459c-0.588,7.643,3.527,55.268,6.467,69.966
					c2.94,14.7,6.469,52.33,3.529,68.205c-1.416,7.644-3.785,21.421-6.06,35.686c4.265,1.831,13.175,5.577,18.127,7.102
					c0.002,0.001,0.004,0.001,0.006,0.002c0.015-0.631,0.027-1.265,0.043-1.9c0.306-12.892,12.729-16.076,24.928-16.076
					c11.908,0,23.6,3.033,23.6,3.033s3.943-5.459,3.336-13.041c-0.606-7.583-24.566-40.945-29.116-48.528
					c-3.668-6.115,0.159-6.706,1.776-6.706c0.389,0,0.65,0.034,0.65,0.034s-6.673-3.033-9.402-17.895
					c-2.729-14.862,4.55-33.061,11.222-48.832c6.673-15.772,26.085-32.15,26.085-32.15s-3.748,0.598-9.586,0.598
					c-7.96,0-19.812-1.111-31.36-6.361c-20.019-9.099-21.23-24.567-23.962-72.185c-2.729-47.618,1.821-57.021,12.74-57.626
					c0.253-0.014,0.521-0.021,0.804-0.021c11.884,0,48.768,12.209,54.396,14.58c0,0,3.64-7.583,2.426-12.132
					c-1.213-4.549,2.427-11.828,6.673-19.714c2.491-4.625,3.521-5.286,4.252-5.286c0.146,0,0.28,0.027,0.413,0.053
					c0.131,0.027,0.259,0.053,0.396,0.053c0.208,0,0.43-0.062,0.703-0.279c1.516-1.213,0.302-8.189-0.606-10.313
					c-0.911-2.123-0.305-2.729,1.517-7.582c0.333-0.89-0.404-2.075-1.827-3.416C273.89,77.914,264.05,72,263.365,70.975
					l-0.001-0.001c-0.002-0.003-0.004-0.005-0.006-0.008c0-0.001,0-0.002-0.002-0.002v-0.002c-0.001-0.001-0.001-0.002-0.001-0.003
					c0,0-0.002-0.001-0.002-0.001c0-0.001,0-0.002-0.002-0.002c0-0.001,0-0.001,0-0.002c0,0-0.002-0.002-0.002-0.003
					c0,0,0-0.001-0.002-0.001c0-0.001,0-0.002,0-0.003c-0.002,0-0.002,0-0.002,0c-0.001-0.001-0.001-0.003-0.002-0.003V70.94
					c0-0.001-0.001-0.002-0.002-0.003c-0.001-0.003-0.002-0.006-0.004-0.008c0,0,0-0.001-0.001-0.002
					c-0.001-0.001-0.002-0.004-0.003-0.006c0,0-0.001,0-0.001-0.002l-0.001-0.005c0-0.001-0.001-0.003-0.001-0.004
					c-0.001-0.001-0.002-0.003-0.003-0.005l-0.003-0.004c0-0.001,0-0.002,0-0.003c-0.028-0.073-0.044-0.157-0.042-0.251
					c0.002-0.501,0.396-1.286,1.034-2.175C263.998,68.32,263.691,68.172,263.411,68.04"/>
				<path clip-path="url(#SVGID_Front66_)" d="M192.147,235.255v0.018V235.255z"/>
				<path clip-path="url(#SVGID_Front66_)" d="M263.365,70.974c0.686,1.026,10.523,6.94,23.931,10.989l0,0
					C273.89,77.914,264.051,72,263.365,70.974 M263.359,70.966c0.001,0.002,0.003,0.004,0.005,0.007
					C263.362,70.97,263.36,70.968,263.359,70.966 M263.356,70.961l0.001,0.002L263.356,70.961 M263.354,70.957c0,0,0,0,0.002,0.002
					C263.354,70.957,263.354,70.957,263.354,70.957 M263.352,70.953L263.352,70.953L263.352,70.953 M263.348,70.949
					c0,0,0,0,0.002,0.001C263.348,70.949,263.348,70.949,263.348,70.949 M263.346,70.944c0,0.001,0,0.001,0.002,0.001
					C263.346,70.945,263.346,70.945,263.346,70.944 M263.344,70.939c0,0.001,0,0.001,0,0.002
					C263.344,70.94,263.344,70.94,263.344,70.939 M263.343,70.937L263.343,70.937 M263.337,70.927
					c0.001,0.001,0.001,0.002,0.001,0.002S263.338,70.928,263.337,70.927 M263.333,70.918c0,0.001,0,0.002,0,0.002
					S263.333,70.919,263.333,70.918 M263.33,70.91c0.001,0.001,0.001,0.002,0.002,0.003C263.331,70.912,263.331,70.911,263.33,70.91
					 M263.326,70.9l0.002,0.004L263.326,70.9 M264.317,68.472c-0.638,0.889-1.032,1.674-1.034,2.174
					c-0.002,0.095,0.013,0.178,0.042,0.251C263.145,70.439,263.563,69.529,264.317,68.472
					C264.318,68.472,264.317,68.472,264.317,68.472"/>
				<path clip-path="url(#SVGID_Front66_)" d="M141.112,158.777c0,0,0.607,4.549,3.034,9.706c2.425,5.155,26.994,36.092,26.994,36.092
					s-22.141-24.264-23.355-25.781c-1.126-1.409-9.845-8.315-11.078-8.316c-0.093,0-0.144,0.041-0.144,0.127
					c0,1.213,7.583,9.402,13.648,15.165c6.066,5.762,18.501,18.198,24.264,26.994c5.763,8.796,16.378,23.96,16.378,23.96
					s-2.124-8.794-3.64-12.436c-1.517-3.639-7.886-13.344-9.403-15.771C176.294,206.092,141.112,158.777,141.112,158.777"/>
				<path clip-path="url(#SVGID_Front66_)" d="M143.539,151.498c0,0,3.335,12.436,10.008,18.805c6.673,6.37,13.648,8.493,13.648,8.493
					s-11.221-9.403-13.344-12.435C151.728,163.326,143.539,151.498,143.539,151.498"/>
				<path clip-path="url(#SVGID_Front66_)" d="M482.021,167.876c0,0-3.943,7.886-7.279,13.951c-3.336,6.066-17.591,17.592-25.174,21.838
					c-7.583,4.247-21.534,19.715-21.534,19.715s6.369-1.213,10.313-4.247c3.942-3.033,29.116-13.042,38.822-26.993
					C486.873,178.188,482.021,167.876,482.021,167.876"/>
				<path clip-path="url(#SVGID_Front66_)" d="M477.168,213.978c0,0-10.92,9.402-19.411,11.828c-8.493,2.427-24.567,5.46-24.567,5.46
					s3.031,0.798,7.907,0.798c4.632,0,10.929-0.721,17.873-3.528C473.225,222.773,477.168,213.978,477.168,213.978"/>
				<path clip-path="url(#SVGID_Front66_)" d="M466.446,173.558c-2.198,0-5.024,0.833-7.78,4.024c-5.763,6.672-7.582,9.099-12.738,12.132
					c-5.021,2.953-7.739,14.816-7.879,15.438c0.122-0.538,2.048-8.575,8.789-11.799c6.976-3.336,11.828-3.033,15.165-8.795
					c3.336-5.764,8.492-10.01,8.492-10.01S468.844,173.558,466.446,173.558"/>
				<path clip-path="url(#SVGID_Front66_)" fill-rule="evenodd" clip-rule="evenodd" d="M173.989,682.366
					c-2.782,0-5.047,2.263-5.047,5.046s2.265,5.045,5.047,5.045h8.89c2.784,0,5.049-2.262,5.049-5.045s-2.265-5.046-5.047-5.046
					H173.989"/>
				<path clip-path="url(#SVGID_Front66_)" d="M173.989,682.366v-0.321c-2.96,0.001-5.368,2.406-5.368,5.367
					c0,2.962,2.408,5.365,5.368,5.366h8.89c2.962-0.001,5.37-2.404,5.37-5.366c0-2.961-2.408-5.366-5.368-5.367h-8.892V682.366
					v0.321h8.892c1.303,0,2.483,0.528,3.34,1.385c0.857,0.857,1.386,2.036,1.386,3.34c0,1.303-0.529,2.482-1.386,3.339
					c-0.857,0.856-2.038,1.385-3.342,1.385h-8.89c-1.303,0-2.483-0.528-3.34-1.385s-1.387-2.036-1.387-3.339
					c0-1.304,0.53-2.482,1.387-3.34c0.857-0.856,2.037-1.385,3.34-1.385V682.366"/>
				<path clip-path="url(#SVGID_Front66_)" fill-rule="evenodd" clip-rule="evenodd" d="M182.881,682.828
					c2.532,0,4.584,2.054,4.584,4.585c0,2.532-2.052,4.586-4.586,4.586h-8.89c-2.532,0-4.586-2.054-4.586-4.586
					c0-2.531,2.054-4.585,4.586-4.585H182.881"/>
				<path clip-path="url(#SVGID_Front66_)" d="M182.881,682.828v0.16c1.223,0,2.327,0.494,3.128,1.296
					c0.801,0.801,1.296,1.906,1.296,3.129c0,1.222-0.496,2.328-1.296,3.129c-0.801,0.802-1.906,1.297-3.13,1.297h-8.89
					c-1.223,0-2.329-0.495-3.129-1.297c-0.801-0.801-1.296-1.907-1.296-3.129c0-1.223,0.495-2.328,1.296-3.129
					c0.8-0.802,1.906-1.296,3.129-1.296h8.892V682.828v-0.161h-8.892c-2.621,0-4.746,2.126-4.746,4.746s2.125,4.747,4.746,4.747
					h8.89c2.623,0,4.748-2.127,4.748-4.747s-2.125-4.746-4.746-4.746V682.828"/>
				<path clip-path="url(#SVGID_Front66_)" d="M170.818,687.399c0-1.771,1.375-3.219,3.114-3.337v6.674
					C172.193,690.619,170.818,689.167,170.818,687.399"/>
				<polygon clip-path="url(#SVGID_Front66_)" fill-rule="evenodd" clip-rule="evenodd" points="177.392,686.965 174.484,684.054 
					177.392,684.054 				"/>
				<polygon clip-path="url(#SVGID_Front66_)" fill-rule="evenodd" clip-rule="evenodd" points="177.392,687.835 174.484,690.743 
					177.392,690.743 				"/>
				<polygon clip-path="url(#SVGID_Front66_)" fill-rule="evenodd" clip-rule="evenodd" points="181.04,686.965 183.946,684.054 
					181.04,684.054 				"/>
				<polygon clip-path="url(#SVGID_Front66_)" fill-rule="evenodd" clip-rule="evenodd" points="181.04,687.835 183.946,690.743 
					181.04,690.743 				"/>
				<rect x="178.01" y="684.054" clip-path="url(#SVGID_Front66_)" width="2.412" height="6.689"/>
				<path clip-path="url(#SVGID_Front66_)" fill-rule="evenodd" clip-rule="evenodd" d="M173.989,682.366
					c-2.782,0-5.047,2.263-5.047,5.046s2.265,5.045,5.047,5.045h8.89c2.784,0,5.049-2.262,5.049-5.045s-2.265-5.046-5.047-5.046
					H173.989"/>
				<path clip-path="url(#SVGID_Front66_)" d="M173.989,682.366v-0.321c-2.96,0.001-5.368,2.406-5.368,5.367
					c0,2.962,2.408,5.365,5.368,5.366h8.89c2.962-0.001,5.37-2.404,5.37-5.366c0-2.961-2.408-5.366-5.368-5.367h-8.892V682.366
					v0.321h8.892c1.303,0,2.483,0.528,3.34,1.385c0.857,0.857,1.386,2.036,1.386,3.34c0,1.303-0.529,2.482-1.386,3.339
					c-0.857,0.856-2.038,1.385-3.342,1.385h-8.89c-1.303,0-2.483-0.528-3.34-1.385s-1.387-2.036-1.387-3.339
					c0-1.304,0.53-2.482,1.387-3.34c0.857-0.856,2.037-1.385,3.34-1.385V682.366"/>
				<path clip-path="url(#SVGID_Front66_)" fill-rule="evenodd" clip-rule="evenodd" d="M182.881,682.828
					c2.532,0,4.584,2.054,4.584,4.585c0,2.532-2.052,4.586-4.586,4.586h-8.89c-2.532,0-4.586-2.054-4.586-4.586
					c0-2.531,2.054-4.585,4.586-4.585H182.881"/>
				<path clip-path="url(#SVGID_Front66_)" d="M182.881,682.828v0.16c1.223,0,2.327,0.494,3.128,1.296
					c0.801,0.801,1.296,1.906,1.296,3.129c0,1.222-0.496,2.328-1.296,3.129c-0.801,0.802-1.906,1.297-3.13,1.297h-8.89
					c-1.223,0-2.329-0.495-3.129-1.297c-0.801-0.801-1.296-1.907-1.296-3.129c0-1.223,0.495-2.328,1.296-3.129
					c0.8-0.802,1.906-1.296,3.129-1.296h8.892V682.828v-0.161h-8.892c-2.621,0-4.746,2.126-4.746,4.746s2.125,4.747,4.746,4.747
					h8.89c2.623,0,4.748-2.127,4.748-4.747s-2.125-4.746-4.746-4.746V682.828"/>
				<path clip-path="url(#SVGID_Front66_)" d="M170.818,687.399c0-1.771,1.375-3.219,3.114-3.337v6.674
					C172.193,690.619,170.818,689.167,170.818,687.399"/>
				<polygon clip-path="url(#SVGID_Front66_)" fill-rule="evenodd" clip-rule="evenodd" points="177.392,686.965 174.484,684.054 
					177.392,684.054 				"/>
				<polygon clip-path="url(#SVGID_Front66_)" fill-rule="evenodd" clip-rule="evenodd" points="177.392,687.835 174.484,690.743 
					177.392,690.743 				"/>
				<polygon clip-path="url(#SVGID_Front66_)" fill-rule="evenodd" clip-rule="evenodd" points="181.04,686.965 183.946,684.054 
					181.04,684.054 				"/>
				<polygon clip-path="url(#SVGID_Front66_)" fill-rule="evenodd" clip-rule="evenodd" points="181.04,687.835 183.946,690.743 
					181.04,690.743 				"/>
				<rect x="178.01" y="684.054" clip-path="url(#SVGID_Front66_)" width="2.412" height="6.689"/>
				<path clip-path="url(#SVGID_Front66_)" fill-rule="evenodd" clip-rule="evenodd" d="M173.989,682.366
					c-2.782,0-5.047,2.263-5.047,5.046s2.265,5.045,5.047,5.045h8.89c2.784,0,5.049-2.262,5.049-5.045s-2.265-5.046-5.047-5.046
					H173.989"/>
				<path clip-path="url(#SVGID_Front66_)" d="M173.989,682.366v-0.321c-2.96,0.001-5.368,2.406-5.368,5.367
					c0,2.962,2.408,5.365,5.368,5.366h8.89c2.962-0.001,5.37-2.404,5.37-5.366c0-2.961-2.408-5.366-5.368-5.367h-8.892V682.366
					v0.321h8.892c1.303,0,2.483,0.528,3.34,1.385c0.857,0.857,1.386,2.036,1.386,3.34c0,1.303-0.529,2.482-1.386,3.339
					c-0.857,0.856-2.038,1.385-3.342,1.385h-8.89c-1.303,0-2.483-0.528-3.34-1.385s-1.387-2.036-1.387-3.339
					c0-1.304,0.53-2.482,1.387-3.34c0.857-0.856,2.037-1.385,3.34-1.385V682.366"/>
				<path clip-path="url(#SVGID_Front66_)" fill-rule="evenodd" clip-rule="evenodd" d="M182.881,682.828
					c2.532,0,4.584,2.054,4.584,4.585c0,2.532-2.052,4.586-4.586,4.586h-8.89c-2.532,0-4.586-2.054-4.586-4.586
					c0-2.531,2.054-4.585,4.586-4.585H182.881"/>
				<path clip-path="url(#SVGID_Front66_)" d="M182.881,682.828v0.16c1.223,0,2.327,0.494,3.128,1.296
					c0.801,0.801,1.296,1.906,1.296,3.129c0,1.222-0.496,2.328-1.296,3.129c-0.801,0.802-1.906,1.297-3.13,1.297h-8.89
					c-1.223,0-2.329-0.495-3.129-1.297c-0.801-0.801-1.296-1.907-1.296-3.129c0-1.223,0.495-2.328,1.296-3.129
					c0.8-0.802,1.906-1.296,3.129-1.296h8.892V682.828v-0.161h-8.892c-2.621,0-4.746,2.126-4.746,4.746s2.125,4.747,4.746,4.747
					h8.89c2.623,0,4.748-2.127,4.748-4.747s-2.125-4.746-4.746-4.746V682.828"/>
				<path clip-path="url(#SVGID_Front66_)" d="M170.818,687.399c0-1.771,1.375-3.219,3.114-3.337v6.674
					C172.193,690.619,170.818,689.167,170.818,687.399"/>
				<polygon clip-path="url(#SVGID_Front66_)" fill-rule="evenodd" clip-rule="evenodd" points="177.392,686.965 174.484,684.054 
					177.392,684.054 				"/>
				<polygon clip-path="url(#SVGID_Front66_)" fill-rule="evenodd" clip-rule="evenodd" points="177.392,687.835 174.484,690.743 
					177.392,690.743 				"/>
				<polygon clip-path="url(#SVGID_Front66_)" fill-rule="evenodd" clip-rule="evenodd" points="181.04,686.965 183.946,684.054 
					181.04,684.054 				"/>
				<polygon clip-path="url(#SVGID_Front66_)" fill-rule="evenodd" clip-rule="evenodd" points="181.04,687.835 183.946,690.743 
					181.04,690.743 				"/>
				<rect x="178.01" y="684.054" clip-path="url(#SVGID_Front66_)" width="2.412" height="6.689"/>
				<path clip-path="url(#SVGID_Front66_)" d="M418.941,435.985c-0.005,0-0.012,0-0.017,0.001c0,0-0.757,1.664-1.575,2.961
					c2.307,14.605,4.454,29.395,5.32,38.355c1.141,11.782,1.544,21.599,1.687,27.067c0.801,2.798,1.604,5.687,2.212,8.079
					c0.063,0.196,0.114,0.396,0.15,0.598c0.525,2.118,0.868,3.772,0.868,4.502c0,2.823,4.109,13.601,4.365,14.883
					c0.255,1.282,7.182,28.737,8.208,30.789c1.027,2.053,3.337,21.809,4.619,25.658s1.795,7.184,2.822,12.573
					c1.027,5.387,0.258,12.57,1.797,15.907c1.539,3.336,5.132,23.094,5.132,23.094s0.771-14.883-0.257-21.297
					c-1.025-6.416-4.362-25.404-4.362-27.969s-3.078-24.118-4.361-28.735c-1.284-4.618-11.546-37.719-12.315-40.027
					c-0.771-2.31-5.091-20.882-5.241-22.885c-0.147-2.004-1.432-9.958-1.945-11.497c-0.512-1.539-1.047-5.445-0.972-7.869
					c0.076-2.426-0.53-5.155-0.53-5.155l-0.227-3.601l-1.252-3.524c0,0-1.639-4.482-1.639-5.509s-1.053-3.318-1.167-4.61
					c-0.114-1.29-0.114-2.831-0.114-2.831s-0.049-3.323,0.014-4.62c0,0,0.093-3.593-0.089-5.13
					c-0.182-1.539-0.875-4.226-0.875-5.508C419.197,438.959,419.429,435.985,418.941,435.985"/>
				<path clip-path="url(#SVGID_Front66_)" d="M426.567,512.449c0.053,0.203,0.104,0.403,0.151,0.598
					C426.683,512.845,426.631,512.646,426.567,512.449 M417.35,438.947c-0.259,0.41-0.525,0.783-0.773,1.056
					c-2.423,2.65-8.22,4.635-8.22,4.635s1.271,3.892,1.525,4.661c0.259,0.77,1.8,1.796,1.8,1.796s0.662,5.751,0.859,7.601
					c0.023,0.104,0.037,0.221,0.037,0.354c0.129,1.283-1.925,3.849-1.925,3.849v5.131l1.932,0.225c0,0,7.818,22.1,8.844,25.947
					c0.448,1.682,1.683,5.814,2.928,10.17c-0.143-5.469-0.546-15.285-1.687-27.067C421.804,468.342,419.656,453.553,417.35,438.947"
					/>
				<path clip-path="url(#SVGID_Front66_)" d="M217.197,443.656c-0.521,24.627,0.239,44.967-3.9,51.177
					c-4.247,6.369-6.975,4.55-5.459,13.951c0.714,4.425,0.084,11.603-0.782,17.962c4.724-1.776,9.756-2.421,12.701-7.657
					c4.618-8.21-3.078-16.421-3.078-20.014c0-3.592,3.592-7.696,6.67-9.236c3.079-1.54,10.777-5.646,16.936-10.776
					c6.158-5.132,6.158-8.724,6.158-8.724l-7.185-3.593c-7.185-3.592-5.727-18.495-5.727-18.495S223.869,445.709,217.197,443.656
					 M173.988,682.045h8.893c2.959,0.001,5.367,2.406,5.367,5.368c0,2.961-2.408,5.364-5.369,5.365h-8.891
					c-2.96-0.001-5.367-2.404-5.368-5.365C168.621,684.451,171.028,682.046,173.988,682.045 M196.665,435.514l-0.77,19.047
					c0,0-1.282,5.515-2.308,8.081c-1.027,2.565-1.541,14.367-2.311,16.807c-0.771,2.439-0.256,8.338-1.282,12.956
					c-1.026,4.617-13.473,40.927-15.909,46.698s-3.079,18.474-4.104,25.146c-1.026,6.671-8.726,51.315-10.778,68.251
					c-2.052,16.934,7.698,80.565,7.698,80.565l0.641,6.672c0,0,0.385,2.694,2.694,4.62c1.16,0.966,11.101,1.782,21.876,2.354
					l1.475-16.211v-7.184c0-2.566-3.593-4.619-4.62-15.395c-1.027-10.777-4.105-21.554-4.105-28.226s-1.026-33.354,4.105-54.908
					c4.951-20.794,5.125-62.13,10.201-71.925c-8.184-3.179-8.743-7.348-8.743-7.348V521.4c0,0-1.176-5.292-1.176-7.645
					c0-2.352,2.352-4.704,2.352-4.704s0-13.522,1.764-31.749c0.915-9.452,3.251-25.384,5.7-40.75
					C197.585,435.918,196.665,435.514,196.665,435.514"/>
				<path clip-path="url(#SVGID_Front66_)" d="M199.064,436.553c-2.449,15.366-4.786,31.298-5.7,40.75
					c-1.764,18.227-1.764,31.749-1.764,31.749s-2.352,2.353-2.352,4.704c0,2.353,1.176,7.645,1.176,7.645v4.114
					c0,0,0.559,4.169,8.743,7.348c0.185-0.356,0.376-0.673,0.576-0.944c2.044-2.788,4.628-4.162,7.312-5.172
					c0.867-6.359,1.496-13.537,0.782-17.962c-1.516-9.401,1.212-7.582,5.459-13.951c4.14-6.21,3.379-26.55,3.9-51.177
					c-0.002-0.001-0.004-0.001-0.006-0.002C212.239,442.13,203.33,438.384,199.064,436.553"/>
				<path clip-path="url(#SVGID_Front66_)" d="M182.881,682.667L182.881,682.667c2.621,0,4.746,2.126,4.746,4.746
					c0,2.619-2.125,4.747-4.748,4.747h-8.89c-2.621,0-4.746-2.128-4.746-4.747c0-2.62,2.125-4.746,4.746-4.746H182.881
					 M182.881,682.045h-8.892c-2.96,0.001-5.369,2.406-5.37,5.368c0.001,2.961,2.409,5.364,5.37,5.365h8.89
					c2.962-0.001,5.369-2.404,5.37-5.365C188.248,684.451,185.841,682.046,182.881,682.045"/>
				<path clip-path="url(#SVGID_Front66_)" d="M174.484,690.743l2.908-2.908v2.908H174.484 M181.04,690.743v-2.908l2.906,2.908H181.04
					 M173.932,690.736c-1.739-0.117-3.114-1.569-3.114-3.337c0-1.771,1.375-3.219,3.114-3.337V690.736 M177.392,686.965
					l-2.908-2.911h2.908V686.965 M178.01,684.054h2.412v6.688h-2.412V684.054z M183.946,684.054L183.946,684.054l-2.906,2.911
					v-2.911H183.946 M182.881,682.988h-8.892c-1.223,0-2.329,0.494-3.129,1.296c-0.801,0.801-1.296,1.906-1.296,3.129
					c0,1.222,0.495,2.328,1.296,3.129c0.8,0.802,1.906,1.297,3.129,1.297h8.89c1.224,0,2.329-0.495,3.13-1.297
					c0.801-0.801,1.296-1.907,1.296-3.129c0-1.223-0.496-2.328-1.296-3.129C185.208,683.482,184.104,682.988,182.881,682.988"/>
				<path clip-path="url(#SVGID_Front66_)" d="M173.989,691.839c-1.223,0-2.329-0.495-3.129-1.297c-0.801-0.801-1.296-1.907-1.296-3.129
					c0-1.223,0.495-2.328,1.296-3.129c0.8-0.802,1.906-1.296,3.129-1.296h8.892c1.223,0,2.327,0.494,3.128,1.296
					c0.801,0.801,1.296,1.906,1.296,3.129c0,1.222-0.496,2.328-1.296,3.129c-0.801,0.802-1.906,1.297-3.13,1.297H173.989
					 M182.881,682.667L182.881,682.667h-8.892c-2.621,0-4.746,2.126-4.746,4.746s2.125,4.747,4.746,4.747h8.89
					c2.623,0,4.748-2.127,4.748-4.747S185.501,682.667,182.881,682.667"/>
				<path clip-path="url(#SVGID_Front66_)" d="M173.933,684.063c-1.74,0.118-3.114,1.566-3.114,3.337c0,1.768,1.374,3.22,3.114,3.337
					V684.063"/>
				<polygon clip-path="url(#SVGID_Front66_)" points="177.392,684.054 174.484,684.054 177.392,686.965 				"/>
				<polygon clip-path="url(#SVGID_Front66_)" points="177.392,687.835 174.484,690.743 177.392,690.743 				"/>
				<polygon clip-path="url(#SVGID_Front66_)" points="183.946,684.054 181.04,684.054 181.04,686.965 				"/>
				<polygon clip-path="url(#SVGID_Front66_)" points="181.04,687.835 181.04,690.743 183.946,690.743 				"/>
				<rect x="178.011" y="684.054" clip-path="url(#SVGID_Front66_)" width="2.412" height="6.689"/>
				<path clip-path="url(#SVGID_Front66_)" d="M192.112,726.71l-0.066,0.722l25.146,0.516c0,0,0.055-0.122,0.154-0.352
					C212.058,727.54,201.751,727.222,192.112,726.71 M212.133,567.499c-0.996,0-1.762,0.397-2.126,1.368
					c-1.539,4.104-2.053,15.394-1.539,33.354c0.513,17.962-2.567,16.423-3.593,30.791c-1.025,14.368,1.541,16.934,4.106,24.631
					c2.566,7.697,10.263,26.172,13.856,37.976c3.315,10.896-4.301,29.226-5.491,31.978c0.562,0.006,1.07,0.01,1.512,0.01
					c9.238,0,43.576-6.809,43.576-6.809s1.511-12.228,3.695-27.143c2.402-16.415,6.517-38.505,10.669-54.342
					c0.935-4.15,1.947-8.147,3.024-11.515c1.058-3.299,2.554-5.69,3.806-7.27c0.102-0.133,0.202-0.258,0.302-0.371
					c1.15-1.381,2.025-2.028,2.025-2.028s-9.236-5.13-10.776-5.13s-11.288-5.133-18.986-12.829
					c-7.698-7.698-29.764-23.093-32.844-26.173C220.997,571.646,215.354,567.499,212.133,567.499"/>
				<path clip-path="url(#SVGID_Front66_)" d="M276.798,639.313c-4.152,15.837-8.267,37.927-10.67,54.341
					c-2.184,14.916-3.693,27.144-3.693,27.144s2.48-13.379,2.48-16.969c0-3.593,4.106-27.198,6.673-38.488
					C272.735,660.292,274.536,649.358,276.798,639.313 M283.93,620.157c-0.101,0.113-0.201,0.238-0.301,0.371
					C283.73,620.399,283.832,620.276,283.93,620.157"/>
				<path clip-path="url(#SVGID_Front66_)" d="M398.053,461.747c-2.827,0.85-5.694,1.62-7.798,1.92
					c-5.388,0.77-31.945,3.079-31.945,3.079l3.081,0.385c0,0,8.467,22.323,6.542,33.1s-4.618,18.858-12.7,39.642
					c-8.082,20.782,18.857,23.862,21.168,25.785c2.31,1.926,21.168,8.853,22.707,9.623c1.54,0.771-1.925,13.085-4.618,27.326
					c-2.694,14.239,12.316,27.71,16.934,39.642c4.618,11.931-5.389,14.239-10.005,21.553c-4.619,7.313-3.466,32.715-6.544,41.183
					c-3.079,8.467,0.386,27.323,0.386,27.323s8.081,0.386,13.084,0.386c5.004,0,11.162-0.77,11.162-0.77s0.385-8.082,1.154-11.547
					c0.769-3.464,2.311-5.772,4.233-9.235c1.925-3.465,8.853-15.78,8.853-18.475c0-2.693,1.539-32.329,1.925-37.717
					c0.384-5.388,1.539-23.092,2.308-30.021c0.771-6.928-6.542-36.563-10.392-46.185c-3.848-9.621-11.159-32.329-12.699-42.72
					c-0.552-3.718-1.2-7.531-2-11.551c-4.659-2.961-4.332-1.493-7.602-13.869c-1.846-6.984-3.119-14.256-3.966-20.246
					c-3.356-2.964-6.817-2.759-8.755-5.908c-3.08-5.003-5.004-9.236-5.004-12.7c0-3.465,2.309-4.619,2.309-4.619
					s4.394-1.015,8.671-2.066C398.393,463.988,398.23,462.877,398.053,461.747"/>
				<path clip-path="url(#SVGID_Front66_)" d="M401.32,490.358c0.848,5.99,2.12,13.262,3.966,20.246
					c3.27,12.376,2.942,10.908,7.601,13.869c-1.437-7.219-3.361-15.096-6.081-24.243
					C405.235,494.951,403.296,492.105,401.32,490.358 M411.379,457.968c-0.956,0-2.315,0.476-3.42,0.696
					c-1.173,0.234-5.492,1.756-9.906,3.083c0.178,1.13,0.34,2.241,0.488,3.317c3.628-0.894,7.172-1.813,7.879-2.167
					c1.539-0.77,6.158-1.925,6.158-3.849c-0.009-0.093-0.022-0.212-0.037-0.354C412.414,458.152,411.976,457.968,411.379,457.968"/>
				<path clip-path="url(#SVGID_Front66_)" d="M412.541,458.695c0.015,0.142,0.028,0.261,0.037,0.354
					C412.578,458.916,412.565,458.8,412.541,458.695"/>
			</g>
		</g>
	</g>
</g>
</svg>
