<?xml version="1.0" encoding="utf-8"?>
<!-- Generator: Adobe Illustrator 16.0.0, SVG Export Plug-In . SVG Version: 6.00 Build 0)  -->
<!DOCTYPE svg PUBLIC "-//W3C//DTD SVG 1.1//EN" "http://www.w3.org/Graphics/SVG/1.1/DTD/svg11.dtd">
<svg version="1.1" id="Layer_1" xmlns="http://www.w3.org/2000/svg" xmlns:xlink="http://www.w3.org/1999/xlink" x="0px" y="0px"
	 width="612px" height="792px" viewBox="0 0 475 792" enable-background="new 0 0 612 792" xml:space="preserve">
<g>
	<defs>
		<rect id="SVGID_Back1_" x="36.927" y="37.823" width="543" height="702.706"/>
	</defs>
	<clipPath id="SVGID_Back2_">
		<use xlink:href="#SVGID_Back1_"  overflow="visible"/>
	</clipPath>
	<g clip-path="url(#SVGID_Back2_)">
		<defs>
			<rect id="SVGID_Back3_" x="36.927" y="37.823" width="543" height="702.706"/>
		</defs>
		<clipPath id="SVGID_Back4_">
			<use xlink:href="#SVGID_Back3_"  overflow="visible"/>
		</clipPath>
     <g id="XYZ">
      <g id="SHIRT">
        		<path clip-path="url(#SVGID_Back8_)" fill="#C64421" d="M446.735,118.956c0,0-16.146-5.382-38.87-14.352
			c-13.181-5.203-24.938-12.812-33.083-18.759c-16.243-3.598-39.632-7.381-66.184-7.381c-28.744,0-53.048,4.921-68.693,9.175
			c-7.968,5.621-18.697,12.272-30.585,16.965c-22.724,8.97-38.872,14.352-38.872,14.352s-0.529,0.383-1.352,0.952v0.003
			c0.009,0.457,0.022,0.962,0.038,1.502c0.001,0.043,0.003,0.088,0.003,0.131c0.008,0.253,0.016,0.514,0.026,0.779
			c0,0.017,0,0.032,0,0.048c0.01,0.279,0.022,0.567,0.032,0.86c0.003,0.057,0.005,0.116,0.007,0.175
			c0.009,0.235,0.021,0.476,0.031,0.72c0.004,0.074,0.006,0.147,0.01,0.223c0.015,0.298,0.028,0.6,0.044,0.907
			c0.002,0.04,0.005,0.079,0.007,0.119c0.013,0.266,0.028,0.534,0.043,0.805c0.006,0.095,0.012,0.189,0.018,0.284
			c0.015,0.258,0.031,0.516,0.048,0.776c0.004,0.06,0.008,0.12,0.011,0.18c0.02,0.314,0.043,0.63,0.066,0.945
			c0.006,0.086,0.014,0.171,0.02,0.257c0.019,0.242,0.038,0.483,0.058,0.726c0.007,0.097,0.016,0.193,0.023,0.29
			c0.027,0.315,0.055,0.631,0.085,0.945c0.002,0.035,0.006,0.07,0.009,0.105c0.028,0.283,0.056,0.563,0.085,0.842
			c0.011,0.095,0.021,0.189,0.031,0.283c0.026,0.248,0.055,0.493,0.084,0.737c0.009,0.069,0.016,0.14,0.025,0.21
			c0.037,0.302,0.076,0.6,0.116,0.895c0.01,0.071,0.021,0.142,0.031,0.213c0.032,0.232,0.066,0.462,0.102,0.688
			c0.013,0.082,0.025,0.164,0.038,0.245c0.046,0.286,0.093,0.568,0.143,0.841c1.274,7.001,8.275,32.78,9.867,40.417
			c1.591,7.639,8.911,48.056,9.865,52.831c0.066,0.328,0.125,0.672,0.179,1.026c0.004,0.029,0.008,0.06,0.013,0.09
			c0.049,0.331,0.094,0.671,0.134,1.02c0.004,0.037,0.008,0.074,0.013,0.111c0.04,0.353,0.076,0.71,0.107,1.073
			c0.002,0.026,0.005,0.052,0.008,0.079c0.033,0.387,0.061,0.775,0.087,1.166c0,0.006,0,0.012,0.001,0.017
			c0.024,0.386,0.044,0.772,0.062,1.155c0,0.032,0.002,0.063,0.003,0.095c0.016,0.361,0.03,0.722,0.04,1.074l0.002,0.095
			c0.011,0.367,0.02,0.727,0.025,1.076c0,0.007,0,0.013,0.001,0.019c0.005,0.366,0.008,0.719,0.01,1.057
			c0.019-0.047,0.031-0.075,0.031-0.075s3.587,19.137,2.99,26.91c-0.598,7.775,3.588,56.215,6.578,71.165
			c2.99,14.952-0.728,76.032-3.717,92.177c-0.185,1.005-0.348,2.037-0.51,3.071c0.006-0.004,0.011-0.01,0.017-0.014
			c12.618-9.852,27.767-9.957,42.962-9.827c0.773-0.732,1.849-1.207,3.225-1.215c9.175-0.055,18.328-0.802,27.505-0.443
			c0.549,0.021,1.047,0.119,1.501,0.273c22.904-0.81,45.908-0.979,68.654,1.372c6.645-0.611,13.221-0.157,19.867,0.747
			c0.494,0.066,0.944,0.237,1.348,0.487c19.683-1.29,38.996,4.661,57.951,9.124c0.838,0.197,1.495,0.553,2.021,0.994
			c-0.051-0.307-0.09-0.604-0.147-0.918c-2.99-16.146-7.183-80.878-4.193-95.83c2.99-14.95,7.178-63.39,6.58-71.165
			c-0.515-6.687,2.067-21.774,2.798-25.861c-0.013-2.744,0.078-7.079,0.688-10.123c0.954-4.774,8.274-45.192,9.866-52.831
			c1.591-7.637,8.592-33.417,9.865-40.417c0.898-4.941,1.163-12.098,1.24-15.883C447.17,119.271,446.735,118.956,446.735,118.956z"
			/>

      </g>
    </g>
    <g id="SHORT_MASK">
      <g id="BOTTOM_STRIPS">
        		<path clip-path="url(#SVGID_Back10_)" fill="#EE4D9B" d="M206.827,623.844c0,0,24.43-12.011,36.471-23.992
			c-22.835-30.395-45.185-51.808-66.272-67.145c-0.346,1.153-0.666,2.218-0.942,3.147c-0.022,0.559-0.061,1.066-0.183,1.478
			c-2.08,7.018-5.978,18.455-6.238,20.274c-0.025,0.177-0.181,0.511-0.411,0.968c-0.309,1.904-1.007,6.072-1.756,10.55
			c11.393,7.907,22.44,18.251,28.07,30.879c-12.283,10.952-25.818,17.534-25.818,17.534c31.447,38.156,93.996,45.571,108.853,46.816
			c0.035-0.145,0.071-0.29,0.107-0.432c0.043-0.175,0.086-0.36,0.131-0.54C265.021,659.447,228.642,647.491,206.827,623.844"/>
		<path clip-path="url(#SVGID_Back14_)" fill="#FDBB2D" d="M206.827,623.844c0,0,24.43-12.011,36.471-23.992
			c-22.758-30.294-45.035-51.664-66.061-66.989c-0.527,1.757-0.989,3.3-1.337,4.47c-2.08,7.018-5.978,18.455-6.238,20.274
			c-0.018,0.133-0.111,0.354-0.252,0.649c-0.048,0.097-0.101,0.205-0.158,0.318c-0.013,0.081-0.027,0.171-0.042,0.257
			c-0.01,0.06-0.019,0.118-0.029,0.18c-0.016,0.096-0.032,0.194-0.049,0.3c-0.017,0.101-0.035,0.21-0.052,0.319
			c-0.017,0.091-0.031,0.182-0.047,0.275c-0.025,0.154-0.051,0.313-0.079,0.479c-0.016,0.095-0.032,0.194-0.049,0.294
			c-0.027,0.163-0.055,0.333-0.084,0.507c-0.01,0.06-0.019,0.117-0.029,0.177c-0.038,0.227-0.077,0.46-0.116,0.701
			c-0.019,0.106-0.036,0.214-0.054,0.322c-0.027,0.166-0.056,0.333-0.085,0.505c-0.024,0.148-0.049,0.299-0.075,0.45
			c-0.007,0.043-0.014,0.087-0.021,0.129c-0.035,0.209-0.069,0.417-0.105,0.632c-0.047,0.282-0.095,0.569-0.144,0.861
			c-0.112,0.677-0.231,1.38-0.351,2.099c-0.024,0.141-0.048,0.282-0.071,0.425c-0.026,0.152-0.052,0.306-0.077,0.46
			c-0.037,0.221-0.074,0.442-0.111,0.664c11.623,7.963,22.245,18.522,27.984,31.394c-12.283,10.952-25.818,17.534-25.818,17.534
			c31.447,38.156,93.996,45.571,108.853,46.816c0.035-0.145,0.071-0.29,0.107-0.432c0.043-0.175,0.086-0.36,0.131-0.54
			C265.021,659.447,228.642,647.491,206.827,623.844"/>

        		<path clip-path="url(#SVGID_Back14_)" fill="#FDBB2D" d="M449.027,568.537c0-0.004-0.001-0.009-0.002-0.013
			c-1.039-6.971-2.181-16.325-2.735-20.376c-0.001-0.004-0.001-0.009-0.002-0.014c-0.023-0.168-0.045-0.324-0.065-0.473
			c-0.007-0.045-0.012-0.089-0.019-0.133c-0.014-0.102-0.028-0.2-0.041-0.293c-0.008-0.05-0.017-0.098-0.022-0.146
			c-0.012-0.078-0.022-0.151-0.033-0.221c-0.007-0.043-0.014-0.086-0.02-0.124c-0.01-0.064-0.02-0.122-0.028-0.178
			c-0.005-0.031-0.012-0.064-0.016-0.093c-0.01-0.052-0.017-0.092-0.023-0.132c-0.005-0.021-0.01-0.045-0.013-0.062
			c-0.011-0.05-0.02-0.089-0.028-0.111c-0.008-0.023-0.018-0.059-0.031-0.101c-0.003-0.013-0.007-0.03-0.012-0.043
			c-0.011-0.035-0.021-0.072-0.034-0.117c-0.005-0.019-0.012-0.041-0.017-0.061c-0.014-0.047-0.028-0.095-0.044-0.151
			c-0.008-0.027-0.015-0.056-0.023-0.085c-0.016-0.055-0.032-0.112-0.049-0.174c-0.011-0.039-0.022-0.082-0.035-0.124
			c-0.016-0.054-0.029-0.107-0.046-0.166c-0.015-0.055-0.03-0.111-0.047-0.17c-0.018-0.063-0.037-0.131-0.055-0.2
			c-0.015-0.049-0.027-0.097-0.041-0.146c-0.022-0.081-0.046-0.166-0.07-0.253c-0.014-0.052-0.028-0.103-0.042-0.156
			c-0.071-0.255-0.146-0.531-0.228-0.822c-0.052-0.185-0.103-0.374-0.157-0.57c-0.021-0.075-0.042-0.152-0.063-0.228
			c-0.024-0.088-0.048-0.175-0.072-0.264c-0.03-0.109-0.063-0.221-0.094-0.334c-0.019-0.071-0.038-0.143-0.059-0.213
			c-0.026-0.095-0.054-0.191-0.081-0.289c-0.026-0.096-0.054-0.192-0.08-0.29c-0.024-0.09-0.05-0.179-0.075-0.269
			c-0.027-0.1-0.056-0.199-0.084-0.301c-0.028-0.101-0.057-0.201-0.085-0.302c-0.026-0.097-0.055-0.194-0.083-0.293
			c-0.026-0.095-0.054-0.19-0.08-0.286c-0.03-0.107-0.061-0.215-0.091-0.321c-0.028-0.1-0.057-0.199-0.084-0.299
			c-0.026-0.091-0.052-0.182-0.078-0.274l-0.096-0.334c-0.028-0.098-0.056-0.194-0.085-0.291c-0.027-0.104-0.059-0.209-0.088-0.313
			c-0.034-0.116-0.066-0.23-0.1-0.345c-0.067-0.233-0.134-0.464-0.201-0.693l-0.04-0.133c-0.031-0.109-0.063-0.216-0.095-0.323
			c-0.027-0.093-0.056-0.187-0.082-0.279c-0.029-0.099-0.058-0.194-0.088-0.291c-0.027-0.096-0.057-0.19-0.083-0.284
			c-0.029-0.095-0.058-0.188-0.086-0.28c-0.03-0.1-0.059-0.199-0.09-0.298c-0.025-0.085-0.052-0.171-0.078-0.255
			c-0.029-0.097-0.058-0.193-0.088-0.289c-0.026-0.086-0.053-0.17-0.079-0.255c-0.028-0.092-0.058-0.182-0.084-0.272
			c-0.027-0.081-0.053-0.164-0.078-0.244c-0.028-0.087-0.056-0.171-0.082-0.256c-0.026-0.079-0.052-0.158-0.076-0.235
			c-0.027-0.084-0.054-0.164-0.08-0.245c-0.023-0.071-0.047-0.144-0.07-0.212c-0.029-0.087-0.057-0.169-0.086-0.253
			c-0.021-0.057-0.039-0.119-0.059-0.175c-0.046-0.131-0.09-0.258-0.133-0.378c-0.001-0.001-0.001-0.003-0.002-0.004
			c-21.595,15.426-43.659,36.738-67.083,67.92c12.041,11.981,36.47,23.992,36.47,23.992c-20.388,22.101-51.405,33.739-66.355,38.343
			c0.026,0.129-0.051,0.256-0.18,0.381c0.002,0.006,0.004,0.015,0.004,0.021c0.033,0.159,0.065,0.318,0.098,0.478
			c0.034,0.165,0.068,0.33,0.102,0.495c22.167-2.691,75.697-12.396,103.412-46.024c0,0-13.535-6.582-25.817-17.534
			C427.872,587.864,438.165,576.497,449.027,568.537"/>

		<path clip-path="url(#SVGID_Back10_)" fill="#00AB5D" d="M195.565,600.003c-5.737-12.871-16.361-23.431-27.984-31.394
			c-0.028,0.171-0.057,0.344-0.085,0.515C178.888,577.031,189.936,587.375,195.565,600.003"/>
		<path clip-path="url(#SVGID_Back10_)" fill="#00AB5D" d="M458.458,634.03c-0.131-8.188-1.561-25.996-2.729-31.584
			c-1.172-5.588-4.679-21.703-6.108-30.152c-0.047-0.273-0.094-0.557-0.141-0.849c-0.012-0.063-0.021-0.132-0.032-0.198
			c-0.039-0.238-0.077-0.479-0.116-0.728c-0.005-0.03-0.01-0.063-0.015-0.094c-0.045-0.288-0.091-0.581-0.137-0.881
			c-0.001-0.006-0.001-0.014-0.002-0.019c-0.05-0.323-0.1-0.652-0.149-0.986c0,0,0-0.002-0.001-0.003
			c-10.862,7.96-21.155,19.327-26.566,31.466c12.281,10.952,25.817,17.534,25.817,17.534
			c-27.715,33.629-81.245,43.333-103.412,46.024c0.006,0.025,0.011,0.05,0.016,0.073c0.057,0.279,0.113,0.557,0.17,0.835
			c0.022,0.107,0.045,0.216,0.066,0.323c0.039,0.193,0.078,0.387,0.118,0.579c0.04,0.199,0.081,0.397,0.122,0.597
			c0.058,0.285,0.115,0.569,0.174,0.854c0.016,0.076,0.03,0.153,0.047,0.229c0.042,0.207,0.084,0.414,0.126,0.621
			c0.065,0.32,0.13,0.639,0.194,0.957c0.279,1.37,0.553,2.721,0.818,4.039c0.021,0.092,0.038,0.182,0.058,0.273
			c0.048,0.239,0.097,0.479,0.145,0.716c0.02,0.103,0.041,0.206,0.062,0.307c0.199,0.981,0.394,1.941,0.581,2.872
			c0.022,0.115,0.046,0.228,0.069,0.341c0.11,0.55,0.22,1.088,0.325,1.615c0.044,0.215,0.087,0.428,0.13,0.639
			c0.009,0.048,0.019,0.097,0.027,0.144c0.042,0.203,0.082,0.402,0.122,0.601c0.035,0.177,0.069,0.35,0.104,0.521
			c0.014,0.069,0.028,0.138,0.041,0.205c0.048,0.237,0.096,0.471,0.142,0.703c0.017,0.074,0.03,0.148,0.046,0.223
			c0.389,1.933,0.729,3.625,1.003,4.992c0.014,0.071,0.029,0.143,0.042,0.213c0.024,0.12,0.047,0.234,0.07,0.349
			c0.045,0.226,0.089,0.441,0.13,0.646c0.022,0.112,0.044,0.221,0.064,0.326c0.033,0.161,0.063,0.315,0.093,0.46
			c0.024,0.127,0.05,0.25,0.072,0.365c0.095,0.472,0.167,0.833,0.213,1.061c0.622,3.111,2.749,22.731,3.583,30.536
			c0.992,0.011,2.071-0.056,2.071-0.056s11.437,3.767,23.134,5.456c11.698,1.691,35.483,3.12,48.999,1.561
			c13.518-1.561,18.586-2.86,19.757-3.248c1.168-0.391,1.948-1.041,2.339-1.95c0.389-0.91,0.389-2.729,0.389-2.729
			s1.951-11.958,2.081-13.257c0.129-1.299,1.43-11.698,1.43-12.087c0-0.392,0.518-4.29,0.648-5.198
			c0.13-0.909,1.95-17.027,1.95-18.326S458.588,642.218,458.458,634.03"/>
		<path clip-path="url(#SVGID_Back10_)" fill="#EE4D9B" d="M175.9,537.332c0.123-0.411,0.161-0.919,0.183-1.478
			c-0.161,0.538-0.31,1.034-0.441,1.478c-2.08,7.018-5.977,18.455-6.238,20.274c-0.024,0.164-0.077,0.501-0.153,0.969
			c0.23-0.458,0.385-0.792,0.411-0.969C169.924,555.787,173.821,544.35,175.9,537.332"/>
		<path clip-path="url(#SVGID_Back10_)" fill="#EE4D9B" d="M445.886,545.85c0.001,0.007,0.002,0.012,0.004,0.017
			c-0.014-0.053-0.031-0.109-0.049-0.173c0.001,0.002,0.001,0.004,0.001,0.005C445.857,545.755,445.872,545.803,445.886,545.85"/>
		<path clip-path="url(#SVGID_Back10_)" fill="#EE4D9B" d="M446.089,546.746c0.005,0.038,0.012,0.081,0.019,0.124
			c0.006,0.037,0.012,0.078,0.018,0.12c-0.031-0.207-0.058-0.382-0.081-0.515c0.004,0.028,0.011,0.062,0.016,0.093
			C446.068,546.624,446.078,546.682,446.089,546.746"/>
		<path clip-path="url(#SVGID_Back10_)" fill="#EE4D9B" d="M445.979,546.171c-0.008-0.024-0.019-0.06-0.031-0.104
			c0,0.001,0,0.002,0,0.004C445.961,546.113,445.972,546.147,445.979,546.171"/>
		<path clip-path="url(#SVGID_Back10_)" fill="#EE4D9B" d="M445.945,546.056c-0.01-0.031-0.021-0.073-0.034-0.113
			c0.01,0.029,0.018,0.06,0.025,0.085C445.939,546.037,445.942,546.046,445.945,546.056"/>
		<path clip-path="url(#SVGID_Back10_)" fill="#EE4D9B" d="M445.642,544.979c0.001,0.007,0.003,0.012,0.005,0.019
			c-0.022-0.081-0.045-0.166-0.069-0.253c0.003,0.011,0.006,0.023,0.01,0.034C445.604,544.849,445.624,544.916,445.642,544.979"/>
		<path clip-path="url(#SVGID_Back10_)" fill="#EE4D9B" d="M445.722,545.268c-0.015-0.055-0.03-0.109-0.048-0.17
			c0.006,0.018,0.011,0.036,0.015,0.052C445.7,545.19,445.71,545.229,445.722,545.268"/>
		<path clip-path="url(#SVGID_Back10_)" fill="#EE4D9B" d="M445.818,545.613c0.003,0.011,0.007,0.022,0.011,0.034
			c-0.021-0.065-0.04-0.137-0.062-0.213c0.001,0.002,0.002,0.004,0.002,0.005C445.786,545.501,445.803,545.558,445.818,545.613"/>
		<path clip-path="url(#SVGID_Back10_)" fill="#EE4D9B" d="M444.199,539.788c0.019,0.069,0.039,0.138,0.059,0.206
			C444.238,539.926,444.218,539.857,444.199,539.788"/>
		<path clip-path="url(#SVGID_Back10_)" fill="#EE4D9B" d="M446.288,548.135c0.001,0.005,0.001,0.01,0.002,0.015
			c0,0,0,0.001,0.001,0.002c-0.031-0.226-0.06-0.43-0.087-0.621c0.007,0.044,0.012,0.087,0.019,0.132
			C446.243,547.811,446.265,547.967,446.288,548.135"/>
		<path clip-path="url(#SVGID_Back10_)" fill="#EE4D9B" d="M444.532,540.973c0.022,0.08,0.045,0.161,0.067,0.24
			C444.577,541.134,444.555,541.054,444.532,540.973"/>
		<path clip-path="url(#SVGID_Back10_)" fill="#EE4D9B" d="M446.008,546.283c0.003,0.016,0.008,0.04,0.013,0.061
			C446.016,546.323,446.011,546.299,446.008,546.283"/>
		<path clip-path="url(#SVGID_Back10_)" fill="#EE4D9B" d="M446.142,547.097c0.006,0.043,0.013,0.087,0.019,0.132
			C446.154,547.183,446.147,547.14,446.142,547.097"/>
		<path clip-path="url(#SVGID_Back10_)" fill="#004D86" d="M169.748,617.537c0,0,13.534-6.582,25.817-17.534
			c-5.63-12.628-16.678-22.972-28.069-30.879c-1.098,6.582-2.298,13.83-2.51,15.516c-0.389,3.12-4.811,32.362-5.2,35.222
			c-0.39,2.861-0.519,17.028-0.13,26.905c0.391,9.877,1.17,24.176,1.951,28.725c0.779,4.548,2.598,18.063,2.857,19.493
			c0.261,1.43,1.302,7.928,1.302,8.969c0,1.039,0.39,4.809,0.39,5.329c0,0.52-0.26,2.339-0.26,2.339s-0.652,1.429-0.262,2.08
			c0.391,0.649,1.302,1.172,1.302,1.69s-0.39,1.56-0.39,1.56v2.208c0,0.521,0.39,7.668,0.908,8.447
			c0.519,0.78,0.91,1.821,2.601,2.211c1.688,0.39,8.838,1.561,14.425,1.949c5.589,0.391,27.425,2.99,46.79,0.78
			c19.364-2.211,34.182-6.758,34.182-6.758s0.899-0.083,1.726-0.182c-0.081-2.033-0.167-4.256-0.167-4.563
			c0-0.586,1.56-3.119,1.95-3.899c0.389-0.779,0-1.95-0.584-2.729c-0.587-0.78-0.195-1.951,0.584-2.926
			c0.781-0.975,0.584-2.729,0.584-2.729l-0.78-1.364c0,0,2.535-8.578,2.729-11.309c0.195-2.692,4.374-20.768,7.108-31.734
			C263.743,663.108,201.194,655.692,169.748,617.537"/>
		<path clip-path="url(#SVGID_Back10_)" fill="#EE4D9B" d="M442.313,533.424c-0.024-0.076-0.049-0.151-0.072-0.226
			C442.265,533.272,442.289,533.348,442.313,533.424"/>
		<path clip-path="url(#SVGID_Back10_)" fill="#EE4D9B" d="M442.476,533.932c-0.034-0.109-0.068-0.216-0.102-0.32
			c0.008,0.026,0.016,0.051,0.025,0.078C442.424,533.768,442.449,533.85,442.476,533.932"/>
		<path clip-path="url(#SVGID_Back10_)" fill="#EE4D9B" d="M442.729,534.75c0.026,0.084,0.053,0.17,0.078,0.255
			c0.03,0.098,0.059,0.195,0.09,0.293c-0.113-0.375-0.226-0.739-0.333-1.088c0.025,0.083,0.052,0.167,0.077,0.251
			C442.671,534.557,442.699,534.653,442.729,534.75"/>
		<path clip-path="url(#SVGID_Back10_)" fill="#EE4D9B" d="M444.761,541.793c0.02,0.071,0.04,0.142,0.059,0.213
			c0.031,0.113,0.063,0.225,0.094,0.334c0.024,0.089,0.048,0.176,0.072,0.264c0.021,0.076,0.043,0.152,0.063,0.228
			c0.055,0.196,0.105,0.386,0.157,0.57c0.081,0.291,0.156,0.567,0.228,0.822c0.014,0.054,0.028,0.104,0.042,0.156
			c0.023,0.084,0.046,0.168,0.068,0.247c-0.245-0.89-0.573-2.082-0.942-3.402c0.027,0.095,0.053,0.187,0.078,0.279
			C444.707,541.602,444.734,541.699,444.761,541.793"/>
		<path clip-path="url(#SVGID_Back10_)" fill="#EE4D9B" d="M442.091,532.741L442.091,532.741c-0.029-0.087-0.057-0.169-0.086-0.253
			C442.034,532.572,442.062,532.654,442.091,532.741"/>
		<path clip-path="url(#SVGID_Back10_)" fill="#EE4D9B" d="M443.939,538.87c0.026,0.092,0.052,0.183,0.078,0.273
			c0.027,0.1,0.056,0.199,0.084,0.299l0.036,0.128c-0.118-0.422-0.239-0.846-0.362-1.273l0.068,0.238L443.939,538.87z"/>
		<path clip-path="url(#SVGID_Back10_)" fill="#EE4D9B" d="M444.437,540.631c-0.035-0.125-0.071-0.252-0.106-0.379
			c0.009,0.03,0.018,0.062,0.025,0.091C444.383,540.439,444.409,540.535,444.437,540.631"/>
		<path clip-path="url(#SVGID_Back10_)" fill="#EE4D9B" d="M443.065,535.867c0.03,0.097,0.058,0.193,0.088,0.291
			c0.016,0.056,0.032,0.11,0.049,0.166c-0.103-0.347-0.204-0.688-0.306-1.021c0.029,0.094,0.057,0.186,0.086,0.28
			C443.009,535.677,443.038,535.771,443.065,535.867"/>
		<path clip-path="url(#SVGID_Back10_)" fill="#EE4D9B" d="M443.37,536.894c0.067,0.229,0.134,0.46,0.201,0.693
			c0.033,0.114,0.065,0.229,0.1,0.345c0.028,0.1,0.058,0.201,0.085,0.302c-0.171-0.604-0.347-1.206-0.521-1.795
			c0.032,0.108,0.063,0.215,0.095,0.322L443.37,536.894z"/>
		<path clip-path="url(#SVGID_Back10_)" fill="#EE4D9B" d="M448.278,617.537c0,0-13.535-6.582-25.817-17.534
			c5.411-12.139,15.704-23.506,26.566-31.466c-1.039-6.971-2.182-16.333-2.736-20.386c-0.001-0.001-0.001-0.002-0.001-0.002
			c-0.001-0.005-0.001-0.01-0.002-0.015c-0.023-0.168-0.045-0.324-0.065-0.473c-0.007-0.045-0.012-0.088-0.019-0.132
			c-0.014-0.104-0.029-0.207-0.043-0.302c-0.007-0.045-0.014-0.089-0.02-0.132c-0.006-0.037-0.011-0.071-0.017-0.106
			c-0.006-0.041-0.012-0.082-0.018-0.12c-0.007-0.043-0.014-0.086-0.019-0.124c-0.011-0.064-0.021-0.122-0.029-0.178
			c-0.005-0.031-0.012-0.064-0.016-0.093c-0.01-0.052-0.017-0.092-0.023-0.132c-0.005-0.021-0.01-0.045-0.013-0.061
			c-0.011-0.051-0.02-0.09-0.028-0.112c-0.008-0.023-0.018-0.059-0.031-0.101c0-0.002,0-0.003,0-0.004
			c-0.001-0.004-0.002-0.008-0.003-0.011c-0.003-0.01-0.006-0.02-0.009-0.028c-0.008-0.025-0.016-0.056-0.025-0.085
			c-0.007-0.024-0.013-0.049-0.021-0.076c-0.002-0.005-0.003-0.01-0.004-0.017c-0.014-0.047-0.028-0.095-0.044-0.151
			c0-0.001,0-0.003-0.001-0.005c-0.004-0.015-0.01-0.029-0.012-0.046c-0.004-0.012-0.008-0.023-0.011-0.034
			c-0.016-0.055-0.032-0.112-0.049-0.174c0-0.001-0.001-0.003-0.002-0.005c-0.014-0.053-0.03-0.109-0.046-0.167
			c-0.012-0.038-0.021-0.077-0.033-0.118c-0.004-0.015-0.009-0.034-0.015-0.052c-0.009-0.031-0.018-0.066-0.027-0.101
			c-0.002-0.006-0.004-0.012-0.005-0.018c-0.018-0.063-0.037-0.131-0.055-0.2c-0.004-0.011-0.007-0.023-0.01-0.034
			c-0.012-0.039-0.022-0.079-0.033-0.118c-0.022-0.08-0.045-0.163-0.068-0.247c-0.014-0.052-0.028-0.103-0.042-0.156
			c-0.071-0.255-0.146-0.531-0.228-0.822c-0.052-0.185-0.103-0.374-0.157-0.57c-0.021-0.075-0.043-0.151-0.063-0.228
			c-0.024-0.088-0.048-0.175-0.072-0.264c-0.03-0.109-0.063-0.221-0.094-0.334c-0.019-0.071-0.038-0.142-0.059-0.213
			c-0.026-0.095-0.054-0.191-0.081-0.289c-0.025-0.093-0.051-0.185-0.078-0.279c-0.001-0.004-0.001-0.007-0.002-0.012
			c-0.022-0.079-0.045-0.16-0.067-0.24c-0.031-0.113-0.063-0.227-0.096-0.342c-0.027-0.096-0.054-0.191-0.081-0.288
			c-0.008-0.029-0.017-0.061-0.025-0.091c-0.023-0.086-0.048-0.172-0.072-0.258c-0.02-0.068-0.039-0.137-0.059-0.206
			c-0.02-0.072-0.04-0.146-0.062-0.218l-0.036-0.128c-0.028-0.1-0.057-0.199-0.084-0.299c-0.026-0.091-0.052-0.182-0.078-0.273
			l-0.096-0.335l-0.067-0.238c-0.007-0.021-0.013-0.042-0.02-0.063c-0.028-0.101-0.058-0.202-0.086-0.302
			c-0.033-0.116-0.066-0.23-0.1-0.345c-0.067-0.233-0.134-0.464-0.201-0.693l-0.04-0.133c-0.031-0.108-0.063-0.214-0.095-0.322
			l-0.033-0.114c-0.017-0.056-0.033-0.11-0.049-0.166c-0.029-0.098-0.058-0.194-0.088-0.291c-0.027-0.096-0.056-0.19-0.083-0.284
			c-0.029-0.095-0.057-0.187-0.086-0.28c0-0.002,0-0.004,0-0.005c-0.031-0.098-0.06-0.195-0.09-0.293
			c-0.025-0.085-0.052-0.171-0.078-0.255c-0.029-0.097-0.058-0.193-0.088-0.289c-0.025-0.084-0.052-0.168-0.078-0.251
			c-0.029-0.095-0.06-0.188-0.087-0.278c-0.026-0.082-0.052-0.164-0.076-0.242c-0.01-0.027-0.018-0.052-0.025-0.078
			c-0.02-0.063-0.041-0.126-0.061-0.188c-0.024-0.076-0.049-0.151-0.072-0.226c-0.052-0.158-0.102-0.31-0.15-0.457
			c-0.029-0.087-0.057-0.169-0.086-0.253c-0.066-0.195-0.131-0.385-0.193-0.557c-21.595,15.426-43.659,36.738-67.083,67.92
			c12.041,11.981,36.47,23.992,36.47,23.992c-20.388,22.101-51.405,33.739-66.355,38.343c0.026,0.129-0.051,0.256-0.18,0.381
			c0.049,0.239,0.099,0.477,0.146,0.715c0.02,0.092,0.038,0.186,0.057,0.279C367.033,660.87,420.563,651.165,448.278,617.537"/>
	</g>
      <g id="LOWER_BOTTOM">
        		<path clip-path="url(#SVGID_Back10_)" fill="#00AB5D" d="M169.748,617.537c0,0,13.534-6.582,25.817-17.534
			c-5.63-12.628-16.678-22.972-28.069-30.879c-0.034,0.203-0.067,0.404-0.101,0.607c-0.026,0.15-0.05,0.302-0.075,0.451
			c-0.05,0.298-0.1,0.597-0.15,0.895c-0.025,0.154-0.051,0.31-0.077,0.464c-0.018,0.104-0.035,0.208-0.051,0.311
			c-0.045,0.262-0.087,0.523-0.131,0.785c-0.043,0.261-0.085,0.518-0.129,0.775c-0.019,0.118-0.04,0.234-0.058,0.352
			c-0.03,0.179-0.059,0.357-0.088,0.536c-0.045,0.271-0.089,0.542-0.134,0.81c-0.012,0.071-0.024,0.144-0.036,0.215
			c-0.047,0.285-0.094,0.568-0.14,0.849c-0.018,0.107-0.036,0.214-0.054,0.322c-0.047,0.285-0.093,0.569-0.139,0.847
			c-0.001,0.004-0.002,0.01-0.003,0.016c-0.05,0.309-0.1,0.61-0.148,0.91c-0.008,0.052-0.017,0.105-0.026,0.158
			c-0.043,0.262-0.084,0.515-0.125,0.767c-0.016,0.094-0.03,0.186-0.044,0.277c-0.042,0.256-0.083,0.505-0.122,0.747l-0.021,0.131
			c-0.042,0.265-0.084,0.522-0.124,0.771c-0.005,0.026-0.007,0.051-0.011,0.076c-0.083,0.517-0.158,0.992-0.226,1.422
			c-0.003,0.021-0.005,0.041-0.009,0.06c-0.031,0.199-0.059,0.387-0.087,0.564c-0.004,0.03-0.009,0.061-0.013,0.09
			c-0.026,0.172-0.049,0.331-0.072,0.479c-0.004,0.022-0.006,0.044-0.01,0.067c-0.021,0.145-0.04,0.279-0.057,0.398
			c-0.002,0.015-0.004,0.029-0.005,0.043c-0.017,0.122-0.033,0.23-0.044,0.321c-0.389,3.12-4.811,32.362-5.2,35.222
			c-0.39,2.861-0.519,17.028-0.13,26.905c0.391,9.877,1.17,24.176,1.951,28.725c0.779,4.548,2.598,18.063,2.857,19.493
			c0.261,1.43,1.302,7.928,1.302,8.969c0,1.039,0.39,4.809,0.39,5.329c0,0.52-0.26,2.339-0.26,2.339s-0.652,1.429-0.262,2.08
			c0.391,0.649,1.302,1.172,1.302,1.69s-0.39,1.56-0.39,1.56v2.208c0,0.521,0.39,7.668,0.908,8.447
			c0.519,0.78,0.91,1.821,2.601,2.211c1.688,0.39,8.838,1.561,14.425,1.949c5.589,0.391,27.425,2.99,46.79,0.78
			c19.364-2.211,34.182-6.758,34.182-6.758s0.899-0.083,1.726-0.182c-0.081-2.033-0.167-4.256-0.167-4.563
			c0-0.586,1.56-3.119,1.95-3.899c0.389-0.779,0-1.95-0.584-2.729c-0.587-0.78-0.195-1.951,0.584-2.926
			c0.781-0.975,0.584-2.729,0.584-2.729l-0.78-1.364c0,0,2.535-8.578,2.729-11.309c0.007-0.084,0.018-0.185,0.031-0.299
			c0.005-0.044,0.014-0.101,0.021-0.148c0.011-0.077,0.019-0.149,0.033-0.238c0.008-0.065,0.021-0.144,0.032-0.215
			c0.015-0.084,0.025-0.162,0.041-0.254c0.013-0.08,0.029-0.172,0.045-0.258c0.016-0.096,0.031-0.188,0.05-0.291
			c0.016-0.084,0.032-0.178,0.051-0.266c0.021-0.118,0.041-0.234,0.064-0.359c0.017-0.092,0.037-0.192,0.055-0.288
			c0.026-0.133,0.052-0.264,0.078-0.404c0.021-0.106,0.045-0.223,0.065-0.333c0.029-0.141,0.056-0.278,0.086-0.427
			c0.023-0.12,0.05-0.25,0.076-0.376c0.028-0.146,0.061-0.29,0.091-0.441c0.027-0.138,0.059-0.282,0.087-0.424
			c0.03-0.15,0.063-0.298,0.095-0.454c0.032-0.153,0.066-0.315,0.101-0.473c0.031-0.151,0.063-0.301,0.096-0.456
			c0.034-0.157,0.069-0.321,0.104-0.481c0.037-0.17,0.073-0.336,0.11-0.51c0.033-0.158,0.068-0.32,0.104-0.481
			c0.04-0.18,0.077-0.356,0.118-0.539c0.041-0.187,0.083-0.379,0.124-0.57c0.037-0.159,0.07-0.316,0.105-0.478
			c0.05-0.222,0.101-0.449,0.151-0.676c0.031-0.143,0.063-0.28,0.094-0.424c0.05-0.223,0.101-0.448,0.15-0.675
			c0.034-0.154,0.069-0.308,0.104-0.465c0.054-0.238,0.11-0.48,0.165-0.724c0.031-0.142,0.063-0.282,0.096-0.425
			c0.057-0.254,0.116-0.513,0.176-0.771c0.03-0.137,0.062-0.272,0.092-0.41c0.068-0.298,0.138-0.598,0.207-0.899
			c0.021-0.09,0.04-0.179,0.061-0.269c0.078-0.335,0.156-0.672,0.234-1.01c0.014-0.065,0.028-0.129,0.044-0.194
			c0.082-0.354,0.164-0.709,0.248-1.066c0.011-0.051,0.023-0.102,0.035-0.153c0.083-0.357,0.166-0.716,0.25-1.075
			c0.014-0.054,0.026-0.11,0.039-0.164c0.085-0.361,0.168-0.722,0.254-1.082l0.036-0.155c0.089-0.379,0.179-0.757,0.267-1.136
			l0.02-0.083c0.093-0.389,0.185-0.776,0.277-1.163l0.015-0.065c0.094-0.395,0.188-0.788,0.28-1.18
			c0.004-0.012,0.007-0.025,0.011-0.037c0.19-0.803,0.381-1.596,0.57-2.377c0.002-0.009,0.004-0.018,0.006-0.026
			c0.19-0.787,0.377-1.558,0.562-2.311l0.002-0.004c0.089-0.367,0.176-0.729,0.266-1.085c0.004-0.018,0.007-0.035,0.012-0.053
			c0.088-0.354,0.174-0.701,0.257-1.044c0.004-0.011,0.008-0.023,0.009-0.035c0.088-0.352,0.173-0.696,0.259-1.035
			C263.743,663.108,201.194,655.692,169.748,617.537"/>

        		<path clip-path="url(#SVGID_Back10_)" fill="#004D86" d="M458.458,634.03c-0.131-8.188-1.561-25.996-2.729-31.584
			c-1.172-5.588-4.679-21.703-6.108-30.152c-0.19-1.122-0.39-2.395-0.593-3.757c-10.862,7.96-21.155,19.327-26.566,31.466
			c12.281,10.952,25.817,17.534,25.817,17.534c-27.715,33.629-81.245,43.333-103.412,46.024c-0.019-0.094-0.037-0.188-0.057-0.279
			c2.557,12.505,5.04,24.921,5.447,26.958c0.622,3.111,2.749,22.731,3.583,30.536c0.992,0.011,2.071-0.056,2.071-0.056
			s11.437,3.767,23.134,5.456c11.698,1.691,35.483,3.12,48.999,1.561c13.518-1.561,18.586-2.86,19.757-3.248
			c1.168-0.391,1.948-1.041,2.339-1.95c0.389-0.91,0.389-2.729,0.389-2.729s1.951-11.958,2.081-13.257
			c0.129-1.299,1.43-11.698,1.43-12.087c0-0.392,0.518-4.29,0.648-5.198c0.13-0.909,1.95-17.027,1.95-18.326
			S458.588,642.218,458.458,634.03"/>

      </g>
      <g id="UPPER_BOTTOM">
        		<path clip-path="url(#SVGID_Back12_)" fill="#EE4D9B" d="M411.198,623.844c0,0-24.429-12.011-36.47-23.992
			c23.424-31.182,45.488-52.494,67.083-67.92c-0.142-0.393-0.27-0.722-0.38-0.967c-1.17-2.601-6.63-19.366-6.889-20.146
			c-0.261-0.779-2.989-9.747-3.12-10.917c-0.129-1.17-3.509-10.918-3.898-12.477c-0.39-1.56-0.779-9.618-1.039-11.049
			c-0.261-1.429-1.431-10.526-1.82-12.735c-0.39-2.21-1.689-7.409-2.079-8.189c-0.389-0.779-0.779-3.509-0.779-4.288
			s0.26-1.82,0.13-2.47s-0.65-1.82-0.65-2.599c0-0.78,0.779-3.38,0.521-4.679c-0.26-1.3-1.301-2.6-1.301-5.07
			c0-2.469,0.521-4.479,0.521-4.479s-21.857-12.33-127.646-13.08s-97.523,13.558-97.523,13.558l0.025,0.059
			c-0.221,0.47-0.427,1.162-0.381,1.359c0.076,0.346,0.115,3.187-0.078,4.339c-0.192,1.151-0.461,2.88-0.73,3.571
			c-0.267,0.69-0.114,4.684-0.114,5.452c0,0.767,0.114,3.146,0.152,3.416c0.039,0.269,0.191,2.764-0.229,3.878
			c-0.423,1.113-0.539,1.344-0.539,1.344l-2.305,8.907c0,0-1.036,1.459-1.267,3.571c-0.229,2.111-0.229,3.647-0.229,3.647
			s-0.614,1.614-0.614,2.765c0,1.152,0.077,2.458,0.077,2.458s-0.192,2.803-0.614,5.068c-0.422,2.266-0.692,4.146-0.692,4.146
			s-1.073,3.723-1.15,4.491c-0.077,0.77-0.347,4.8-0.5,5.914c-0.154,1.113-1.381,7.525-2.112,10.519
			c-0.604,2.48-4.894,16.667-7.532,25.457c21.088,15.337,43.438,36.75,66.274,67.145c-12.042,11.981-36.471,23.992-36.471,23.992
			c21.814,23.647,58.193,35.604,72.011,39.538c2.663-11.018,4.733-30.25,16.051-41.376c7.299-7.176,24.758-9.163,32.948-6.628
			c8.188,2.534,9.356,13.452,11.307,21.25c0.912,3.646,3.229,14.75,5.519,25.939c0.129-0.125,0.206-0.252,0.18-0.381
			C359.792,657.583,390.811,645.944,411.198,623.844"/>

      </g>
    </g>
    <g id="CUSTOM"></g>
    <g id="SLEEVES">
		<path clip-path="url(#SVGID_Back4_)" fill="#FDBB2D" d="M440.849,206.345c-0.005,0.019-0.007,0.031-0.007,0.031
			S440.844,206.362,440.849,206.345"/>
		<path clip-path="url(#SVGID_Back4_)" fill="#004D86" d="M190.74,236.981v-0.019c-0.005-0.349-0.015-0.709-0.025-1.076l-0.002-0.095
			c-0.01-0.353-0.024-0.713-0.04-1.074c-0.001-0.032-0.003-0.064-0.003-0.096c-0.018-0.382-0.039-0.768-0.062-1.154
			c-0.001-0.005-0.001-0.011-0.001-0.017c-0.026-0.39-0.054-0.779-0.088-1.166c-0.001-0.027-0.004-0.052-0.006-0.079
			c-0.032-0.362-0.067-0.72-0.107-1.072c-0.004-0.038-0.009-0.075-0.013-0.112c-0.04-0.348-0.085-0.689-0.134-1.02
			c-0.005-0.029-0.009-0.06-0.014-0.089c-0.053-0.354-0.112-0.697-0.178-1.026c-0.955-4.773-8.274-45.192-9.865-52.831
			c-1.591-7.637-8.593-33.417-9.867-40.418c-0.049-0.272-0.097-0.555-0.143-0.84c-0.012-0.081-0.025-0.163-0.038-0.245
			c-0.035-0.227-0.069-0.456-0.102-0.688c-0.01-0.071-0.021-0.142-0.031-0.213c-0.04-0.295-0.079-0.593-0.116-0.895
			c-0.009-0.07-0.017-0.141-0.025-0.21c-0.029-0.244-0.058-0.489-0.084-0.737c-0.011-0.094-0.02-0.188-0.031-0.282
			c-0.029-0.28-0.058-0.56-0.084-0.843c-0.004-0.035-0.008-0.069-0.011-0.104c-0.029-0.314-0.057-0.629-0.084-0.945
			c-0.008-0.097-0.016-0.193-0.023-0.289c-0.021-0.242-0.04-0.484-0.058-0.727c-0.006-0.086-0.013-0.172-0.02-0.257
			c-0.023-0.316-0.046-0.631-0.066-0.945c-0.004-0.061-0.007-0.12-0.011-0.18c-0.017-0.26-0.033-0.518-0.049-0.776
			c-0.005-0.095-0.011-0.189-0.017-0.284c-0.016-0.271-0.03-0.54-0.043-0.805c-0.001-0.039-0.004-0.079-0.006-0.118
			c-0.017-0.308-0.03-0.609-0.045-0.908c-0.003-0.076-0.006-0.149-0.009-0.223c-0.011-0.244-0.022-0.484-0.03-0.72
			c-0.003-0.059-0.005-0.117-0.008-0.175c-0.011-0.293-0.022-0.581-0.033-0.86c0-0.016,0-0.031,0-0.048
			c-0.01-0.266-0.018-0.526-0.026-0.778c0-0.044-0.002-0.088-0.003-0.132c-0.016-0.541-0.028-1.044-0.038-1.502
			c0-0.001,0-0.002-0.001-0.004c-2.113,1.458-6.231,4.169-8.813,5.029c-3.588,1.196-23.921,16.745-29.9,37.676
			c-5.98,20.931-7.177,72.36-7.177,72.36l-1.794,8.97l-1.794,5.383c0,0,20.931,5.382,38.871,6.579
			c17.942,1.195,29.304,1.195,29.304,1.195s1.195-1.195,0.598-4.784c-0.598-3.589-1.197-4.785-0.598-6.579
			c0.559-1.677,2.685-7.01,2.96-7.699C190.75,237.701,190.747,237.347,190.74,236.981"/>
		<path clip-path="url(#SVGID_Back4_)" fill="#004D86" d="M495.773,243.942l-1.794-8.97c0,0-1.196-51.43-7.176-72.36
			c-5.98-20.931-26.314-36.48-29.902-37.676c-2.67-0.89-6.993-3.766-9.031-5.179c-0.077,3.787-0.342,10.942-1.24,15.883
			c-1.273,7.001-8.274,32.78-9.865,40.417c-1.592,7.639-8.912,48.056-9.866,52.831c-0.609,3.043-0.7,7.379-0.688,10.122
			c0.12-0.664,0.191-1.048,0.191-1.048s2.392,5.98,2.989,7.774c0.6,1.794,0,2.99-0.598,6.579c-0.598,3.587,0.598,4.784,0.598,4.784
			s11.363,0,29.305-1.197c17.94-1.196,38.87-6.579,38.87-6.579L495.773,243.942z"/>
      </g>
	</g>
	<g id="COLLAR" clip-path="url(#SVGID_Back2_)">
		<defs>
			<rect id="SVGID_Back5_" x="36.927" y="37.823" width="543" height="702.706"/>
		</defs>
		<clipPath id="SVGID_Back6_">
			<use xlink:href="#SVGID_Back5_"  overflow="visible"/>
		</clipPath>
		<path clip-path="url(#SVGID_Back6_)" fill="#FDBB2D" d="M374.782,85.845c-0.721-0.525-1.423-1.042-2.084-1.538
			c-4.763-3.574-7.985-6.331-9.088-7.212c-2.989-2.393-2.989-4.187-5.979-5.98s-4.188-7.176-10.168-10.167
			c-3.807-1.902-20.934-2.594-32.886-2.846l-0.005-0.144c0,0-2.35,0-5.98,0.046c-3.629-0.045-5.98-0.046-5.98-0.046l-0.004,0.144
			c-11.952,0.252-29.081,0.944-32.887,2.846c-5.98,2.991-7.176,8.374-10.166,10.167s-2.99,3.588-5.979,5.98
			c-0.879,0.703-3.105,2.596-6.379,5.142c-2.042,1.587-4.5,3.432-7.291,5.402c15.646-4.254,39.949-9.174,68.693-9.174
			C335.15,78.464,358.539,82.248,374.782,85.845"/>
	</g>
	<g clip-path="url(#SVGID_Back2_)">
		<defs>
			<rect id="SVGID_Back7_" x="36.927" y="37.823" width="543" height="702.706"/>
		</defs>
		<clipPath id="SVGID_Back8_">
			<use xlink:href="#SVGID_Back7_"  overflow="visible"/>
		</clipPath>
   
	</g>
	<g clip-path="url(#SVGID_Back2_)">
		<defs>
			<rect id="SVGID_Back9_" x="36.927" y="37.823" width="543" height="702.706"/>
		</defs>
		<clipPath id="SVGID_Back10_">
			<use xlink:href="#SVGID_Back9_"  overflow="visible"/>
		</clipPath>
    </g>
	<g clip-path="url(#SVGID_Back2_)">
		<defs>
			<rect id="SVGID_Back11_" x="36.927" y="37.823" width="543" height="702.706"/>
		</defs>
		<clipPath id="SVGID_Back12_">
			<use xlink:href="#SVGID_Back11_"  overflow="visible"/>
		</clipPath>
	</g>
	<g clip-path="url(#SVGID_Back2_)">
		<defs>
			<rect id="SVGID_Back13_" x="36.927" y="37.823" width="543" height="702.706"/>
		</defs>
		<clipPath id="SVGID_Back14_">
			<use xlink:href="#SVGID_Back13_"  overflow="visible"/>
		</clipPath>
		<path clip-path="url(#SVGID_Back14_)" fill="#00AB5D" d="M272.595,690.14c-0.034,0.157-0.068,0.318-0.1,0.473
			C272.526,690.458,272.561,690.297,272.595,690.14"/>
		<path clip-path="url(#SVGID_Back14_)" fill="#00AB5D" d="M272.399,691.066c-0.029,0.142-0.06,0.286-0.088,0.424
			C272.34,691.353,272.37,691.208,272.399,691.066"/>
		<path clip-path="url(#SVGID_Back14_)" fill="#00AB5D" d="M272.794,689.201c-0.034,0.161-0.07,0.325-0.104,0.482
			C272.724,689.526,272.76,689.362,272.794,689.201"/>
		<path clip-path="url(#SVGID_Back14_)" fill="#00AB5D" d="M273.008,688.211c-0.035,0.161-0.07,0.323-0.104,0.481
			C272.938,688.534,272.973,688.372,273.008,688.211"/>
		<path clip-path="url(#SVGID_Back14_)" fill="#00AB5D" d="M273.251,687.102c-0.042,0.191-0.084,0.384-0.125,0.57
			C273.167,687.485,273.209,687.293,273.251,687.102"/>
		<path clip-path="url(#SVGID_Back14_)" fill="#00AB5D" d="M272.221,691.932c-0.024,0.126-0.052,0.256-0.076,0.376
			C272.169,692.188,272.196,692.058,272.221,691.932"/>
		<path clip-path="url(#SVGID_Back14_)" fill="#00AB5D" d="M271.696,694.676c-0.016,0.086-0.032,0.178-0.045,0.258
			C271.664,694.854,271.681,694.762,271.696,694.676"/>
		<path clip-path="url(#SVGID_Back14_)" fill="#00AB5D" d="M271.545,695.641c-0.007,0.048-0.016,0.104-0.02,0.148
			C271.529,695.744,271.538,695.688,271.545,695.641"/>
		<path clip-path="url(#SVGID_Back14_)" fill="#00AB5D" d="M271.61,695.188c-0.012,0.071-0.024,0.149-0.033,0.215
			C271.586,695.337,271.601,695.259,271.61,695.188"/>
		<path clip-path="url(#SVGID_Back14_)" fill="#00AB5D" d="M272.06,692.734c-0.021,0.11-0.045,0.227-0.065,0.333
			C272.015,692.961,272.039,692.845,272.06,692.734"/>
		<path clip-path="url(#SVGID_Back14_)" fill="#00AB5D" d="M164.986,584.64c0.012-0.091,0.026-0.199,0.043-0.321
			C165.012,584.44,164.998,584.549,164.986,584.64"/>
		<path clip-path="url(#SVGID_Back14_)" fill="#00AB5D" d="M271.916,693.472c-0.018,0.096-0.037,0.196-0.055,0.288
			C271.879,693.668,271.898,693.567,271.916,693.472"/>
		<path clip-path="url(#SVGID_Back14_)" fill="#00AB5D" d="M271.796,694.119c-0.018,0.088-0.035,0.182-0.05,0.266
			C271.761,694.301,271.778,694.207,271.796,694.119"/>
		<path clip-path="url(#SVGID_Back14_)" fill="#00AB5D" d="M273.751,684.85c-0.05,0.227-0.101,0.452-0.15,0.675
			C273.65,685.302,273.701,685.076,273.751,684.85"/>
		<path clip-path="url(#SVGID_Back14_)" fill="#00AB5D" d="M278.601,664.354L278.601,664.354c-0.084,0.339-0.17,0.684-0.258,1.035
			C278.431,665.037,278.517,664.691,278.601,664.354"/>
		<path clip-path="url(#SVGID_Back14_)" fill="#00AB5D" d="M277.229,669.946c-0.188,0.781-0.378,1.574-0.57,2.377
			C276.852,671.521,277.042,670.727,277.229,669.946"/>
		<path clip-path="url(#SVGID_Back14_)" fill="#00AB5D" d="M277.798,667.609c-0.185,0.753-0.371,1.524-0.561,2.312
			C277.427,669.134,277.613,668.361,277.798,667.609"/>
		<path clip-path="url(#SVGID_Back14_)" fill="#00AB5D" d="M276.354,673.605c-0.093,0.387-0.186,0.774-0.276,1.163
			C276.169,674.381,276.262,673.992,276.354,673.605"/>
		<path clip-path="url(#SVGID_Back14_)" fill="#00AB5D" d="M274.02,683.661c-0.055,0.243-0.111,0.485-0.165,0.724
			C273.908,684.146,273.965,683.904,274.02,683.661"/>
		<path clip-path="url(#SVGID_Back14_)" fill="#00AB5D" d="M165.036,584.275c0.017-0.119,0.036-0.254,0.057-0.399
			C165.072,584.021,165.053,584.156,165.036,584.275"/>
		<path clip-path="url(#SVGID_Back14_)" fill="#00AB5D" d="M278.064,666.521c-0.088,0.356-0.177,0.718-0.265,1.085
			C277.888,667.238,277.977,666.877,278.064,666.521"/>
		<path clip-path="url(#SVGID_Back14_)" fill="#00AB5D" d="M278.334,665.424c-0.083,0.343-0.169,0.69-0.257,1.044
			C278.165,666.114,278.251,665.767,278.334,665.424"/>
		<path clip-path="url(#SVGID_Back14_)" fill="#00AB5D" d="M276.649,672.36c-0.093,0.392-0.187,0.785-0.28,1.18
			C276.463,673.146,276.557,672.752,276.649,672.36"/>
		<path clip-path="url(#SVGID_Back14_)" fill="#00AB5D" d="M274.59,681.156c-0.069,0.303-0.138,0.602-0.207,0.899
			C274.452,681.758,274.521,681.459,274.59,681.156"/>
		<path clip-path="url(#SVGID_Back14_)" fill="#00AB5D" d="M274.885,679.878c-0.078,0.338-0.156,0.675-0.233,1.01
			C274.729,680.553,274.807,680.216,274.885,679.878"/>
		<path clip-path="url(#SVGID_Back14_)" fill="#00AB5D" d="M274.29,682.466c-0.058,0.258-0.116,0.517-0.174,0.771
			C274.174,682.982,274.232,682.724,274.29,682.466"/>
		<path clip-path="url(#SVGID_Back14_)" fill="#00AB5D" d="M275.755,676.143c-0.086,0.361-0.17,0.721-0.255,1.082
			C275.585,676.863,275.669,676.503,275.755,676.143"/>
		<path clip-path="url(#SVGID_Back14_)" fill="#00AB5D" d="M276.059,674.852c-0.089,0.379-0.179,0.758-0.268,1.136
			C275.88,675.609,275.97,675.229,276.059,674.852"/>
		<path clip-path="url(#SVGID_Back14_)" fill="#00AB5D" d="M275.463,677.389c-0.085,0.359-0.167,0.718-0.252,1.075
			C275.296,678.106,275.378,677.748,275.463,677.389"/>
		<path clip-path="url(#SVGID_Back14_)" fill="#00AB5D" d="M275.176,678.617c-0.082,0.357-0.166,0.712-0.247,1.066
			C275.01,679.329,275.094,678.974,275.176,678.617"/>
		<path clip-path="url(#SVGID_Back14_)" fill="#00AB5D" d="M273.507,685.948c-0.051,0.227-0.102,0.453-0.151,0.676
			C273.405,686.401,273.456,686.175,273.507,685.948"/>
		<path clip-path="url(#SVGID_Back14_)" fill="#00AB5D" d="M166.911,572.637c0.043-0.262,0.087-0.523,0.131-0.785
			C166.999,572.113,166.955,572.375,166.911,572.637"/>
		<path clip-path="url(#SVGID_Back14_)" fill="#00AB5D" d="M165.666,580.217c0.039-0.242,0.079-0.491,0.121-0.747
			C165.744,579.727,165.705,579.975,165.666,580.217"/>
		<path clip-path="url(#SVGID_Back14_)" fill="#00AB5D" d="M165.831,579.192c0.041-0.252,0.083-0.505,0.125-0.767
			C165.914,578.687,165.872,578.941,165.831,579.192"/>
		<path clip-path="url(#SVGID_Back14_)" fill="#00AB5D" d="M165.284,582.616c0.067-0.429,0.143-0.906,0.225-1.423
			C165.426,581.71,165.351,582.187,165.284,582.616"/>
		<path clip-path="url(#SVGID_Back14_)" fill="#00AB5D" d="M165.521,581.119c0.04-0.249,0.081-0.507,0.125-0.771
			C165.601,580.612,165.56,580.87,165.521,581.119"/>
		<path clip-path="url(#SVGID_Back14_)" fill="#00AB5D" d="M166.501,575.109c0.044-0.268,0.09-0.539,0.134-0.81
			C166.591,574.57,166.545,574.842,166.501,575.109"/>
		<path clip-path="url(#SVGID_Back14_)" fill="#00AB5D" d="M166.326,576.173c0.046-0.28,0.093-0.563,0.14-0.849
			C166.418,575.608,166.372,575.894,166.326,576.173"/>
		<path clip-path="url(#SVGID_Back14_)" fill="#00AB5D" d="M167.093,571.541c0.025-0.154,0.052-0.31,0.077-0.464
			C167.145,571.231,167.119,571.387,167.093,571.541"/>
		<path clip-path="url(#SVGID_Back14_)" fill="#00AB5D" d="M166.134,577.342c0.045-0.277,0.092-0.562,0.139-0.847
			C166.226,576.781,166.179,577.064,166.134,577.342"/>
		<path clip-path="url(#SVGID_Back14_)" fill="#00AB5D" d="M165.982,578.268c0.048-0.3,0.098-0.602,0.148-0.91
			C166.08,577.666,166.031,577.969,165.982,578.268"/>
		<path clip-path="url(#SVGID_Back14_)" fill="#00AB5D" d="M166.724,573.764c0.02-0.117,0.038-0.233,0.058-0.352
			C166.762,573.53,166.744,573.646,166.724,573.764"/>
		<path clip-path="url(#SVGID_Back14_)" fill="#00AB5D" d="M165.188,583.24c0.028-0.178,0.056-0.365,0.087-0.564
			C165.244,582.875,165.216,583.063,165.188,583.24"/>
		<path clip-path="url(#SVGID_Back14_)" fill="#00AB5D" d="M167.32,570.183c0.024-0.149,0.05-0.301,0.075-0.451
			C167.37,569.882,167.344,570.033,167.32,570.183"/>
		<path clip-path="url(#SVGID_Back14_)" fill="#00AB5D" d="M165.103,583.81c0.021-0.148,0.045-0.308,0.072-0.479
			C165.148,583.502,165.124,583.661,165.103,583.81"/>
		<path clip-path="url(#SVGID_Back14_)" fill="#BF2A43" d="M347.563,676.838c-0.188-0.931-0.382-1.891-0.581-2.872
			C347.181,674.947,347.375,675.907,347.563,676.838"/>
		<path clip-path="url(#SVGID_Back14_)" fill="#BF2A43" d="M345.532,666.823c-0.059-0.285-0.116-0.569-0.174-0.854
			C345.416,666.254,345.474,666.539,345.532,666.823"/>
		<path clip-path="url(#SVGID_Back14_)" fill="#BF2A43" d="M345.236,665.372c-0.04-0.192-0.079-0.386-0.118-0.579
			C345.157,664.986,345.196,665.18,345.236,665.372"/>
		<path clip-path="url(#SVGID_Back14_)" fill="#BF2A43" d="M345.705,667.674c-0.042-0.207-0.084-0.413-0.126-0.621
			C345.621,667.261,345.663,667.467,345.705,667.674"/>
		<path clip-path="url(#SVGID_Back14_)" fill="#BF2A43" d="M346.92,673.659c-0.048-0.236-0.096-0.477-0.145-0.716
			C346.824,673.183,346.872,673.422,346.92,673.659"/>
		<path clip-path="url(#SVGID_Back14_)" fill="#BF2A43" d="M349.685,687.383c-0.023-0.114-0.046-0.229-0.07-0.349
			C349.639,687.153,349.661,687.269,349.685,687.383"/>
		<path clip-path="url(#SVGID_Back14_)" fill="#BF2A43" d="M348.523,681.606c-0.046-0.232-0.093-0.466-0.141-0.703
			C348.431,681.141,348.478,681.374,348.523,681.606"/>
		<path clip-path="url(#SVGID_Back14_)" fill="#BF2A43" d="M346.719,672.67c-0.267-1.318-0.54-2.669-0.819-4.039
			C346.179,670,346.453,671.352,346.719,672.67"/>
		<path clip-path="url(#SVGID_Back14_)" fill="#BF2A43" d="M348.114,679.576c-0.009-0.047-0.019-0.096-0.027-0.144
			C348.096,679.48,348.105,679.529,348.114,679.576"/>
		<path clip-path="url(#SVGID_Back14_)" fill="#BF2A43" d="M349.572,686.821c-0.274-1.367-0.614-3.06-1.003-4.992
			C348.958,683.762,349.298,685.454,349.572,686.821"/>
		<path clip-path="url(#SVGID_Back14_)" fill="#BF2A43" d="M349.879,688.354c-0.021-0.105-0.042-0.214-0.064-0.327
			C349.837,688.142,349.858,688.248,349.879,688.354"/>
		<path clip-path="url(#SVGID_Back14_)" fill="#BF2A43" d="M347.957,678.793c-0.105-0.526-0.215-1.064-0.325-1.614
			C347.742,677.728,347.852,678.267,347.957,678.793"/>
		<path clip-path="url(#SVGID_Back14_)" fill="#BF2A43" d="M449.331,570.52c0.039,0.249,0.077,0.489,0.116,0.728
			C449.408,571.009,449.37,570.769,449.331,570.52"/>
		<path clip-path="url(#SVGID_Back14_)" fill="#BF2A43" d="M449.479,571.445c0.047,0.292,0.094,0.575,0.141,0.849
			C449.573,572.021,449.526,571.737,449.479,571.445"/>
		<path clip-path="url(#SVGID_Back14_)" fill="#BF2A43" d="M350.044,689.18c-0.023-0.115-0.048-0.238-0.072-0.365
			C349.996,688.941,350.021,689.064,350.044,689.18"/>
		<path clip-path="url(#SVGID_Back14_)" fill="#BF2A43" d="M449.028,568.54c0.05,0.334,0.1,0.663,0.149,0.986
			C449.128,569.203,449.078,568.874,449.028,568.54"/>
		<path clip-path="url(#SVGID_Back14_)" fill="#BF2A43" d="M345.052,664.47c-0.057-0.277-0.113-0.555-0.17-0.835
			C344.938,663.915,344.995,664.192,345.052,664.47"/>
		<path clip-path="url(#SVGID_Back14_)" fill="#BF2A43" d="M348.341,680.698c-0.035-0.172-0.069-0.345-0.104-0.521
			C348.271,680.353,348.306,680.527,348.341,680.698"/>
		<path clip-path="url(#SVGID_Back14_)" fill="#BF2A43" d="M449.18,569.545c0.046,0.3,0.092,0.593,0.137,0.881
			C449.271,570.137,449.226,569.845,449.18,569.545"/>
		<path clip-path="url(#SVGID_Back14_)" fill="#BF2A43" d="M444.272,540.05c0.028,0.099,0.056,0.196,0.083,0.293
			C444.328,540.246,444.301,540.148,444.272,540.05"/>
		<path clip-path="url(#SVGID_Back14_)" fill="#BF2A43" d="M444.44,540.645c0.028,0.102,0.057,0.201,0.084,0.301
			C444.497,540.846,444.469,540.746,444.44,540.645"/>
		<path clip-path="url(#SVGID_Back14_)" fill="#BF2A43" d="M443.571,537.587c0.033,0.114,0.065,0.229,0.1,0.345
			C443.637,537.815,443.604,537.701,443.571,537.587"/>
		<path clip-path="url(#SVGID_Back14_)" fill="#BF2A43" d="M444.102,539.442c0.03,0.106,0.061,0.214,0.091,0.321
			C444.162,539.656,444.132,539.55,444.102,539.442"/>
		<path clip-path="url(#SVGID_Back14_)" fill="#BF2A43" d="M443.939,538.87c0.026,0.092,0.052,0.183,0.078,0.273
			C443.991,539.053,443.966,538.962,443.939,538.87"/>
		<path clip-path="url(#SVGID_Back14_)" fill="#BF2A43" d="M443.76,538.244c0.028,0.097,0.055,0.193,0.084,0.291
			C443.814,538.438,443.788,538.342,443.76,538.244"/>
		<path clip-path="url(#SVGID_Back14_)" fill="#BF2A43" d="M444.6,541.214c0.026,0.098,0.054,0.194,0.08,0.29
			C444.653,541.408,444.626,541.312,444.6,541.214"/>
		<path clip-path="url(#SVGID_Back14_)" fill="#BF2A43" d="M445.546,544.633c0.014,0.05,0.026,0.098,0.041,0.146
			C445.572,544.73,445.56,544.683,445.546,544.633"/>
		<path clip-path="url(#SVGID_Back14_)" fill="#BF2A43" d="M445.434,544.224c0.014,0.054,0.028,0.104,0.042,0.156
			C445.462,544.328,445.447,544.277,445.434,544.224"/>
		<path clip-path="url(#SVGID_Back14_)" fill="#BF2A43" d="M445.049,542.831c0.055,0.196,0.105,0.386,0.157,0.57
			C445.154,543.217,445.104,543.027,445.049,542.831"/>
		<path clip-path="url(#SVGID_Back14_)" fill="#BF2A43" d="M444.761,541.793c0.02,0.071,0.04,0.142,0.059,0.214
			C444.801,541.935,444.78,541.864,444.761,541.793"/>
		<path clip-path="url(#SVGID_Back14_)" fill="#BF2A43" d="M442.161,532.953c0.026,0.081,0.053,0.161,0.08,0.245
			C442.214,533.114,442.188,533.034,442.161,532.953"/>
		<path clip-path="url(#SVGID_Back14_)" fill="#BF2A43" d="M442.005,532.488c0.029,0.084,0.057,0.166,0.086,0.253
			C442.062,532.654,442.034,532.572,442.005,532.488"/>
		<path clip-path="url(#SVGID_Back14_)" fill="#BF2A43" d="M442.317,533.434c0.026,0.084,0.054,0.169,0.082,0.256
			C442.371,533.603,442.344,533.519,442.317,533.434"/>
		<path clip-path="url(#SVGID_Back14_)" fill="#BF2A43" d="M445.642,544.979c0.017,0.059,0.031,0.115,0.047,0.17
			C445.673,545.095,445.658,545.039,445.642,544.979"/>
		<path clip-path="url(#SVGID_Back14_)" fill="#BF2A43" d="M344.765,663.066c-0.032-0.159-0.064-0.318-0.098-0.478
			C344.7,662.748,344.732,662.907,344.765,663.066"/>
		<path clip-path="url(#SVGID_Back14_)" fill="#BF2A43" d="M441.813,531.936c0.043,0.121,0.087,0.247,0.133,0.378
			C441.9,532.183,441.856,532.057,441.813,531.936"/>
		<path clip-path="url(#SVGID_Back14_)" fill="#BF2A43" d="M442.807,535.005c0.031,0.099,0.06,0.198,0.09,0.298
			C442.866,535.203,442.838,535.104,442.807,535.005"/>
		<path clip-path="url(#SVGID_Back14_)" fill="#BF2A43" d="M442.982,535.583c0.026,0.093,0.055,0.188,0.083,0.284
			C443.037,535.771,443.009,535.676,442.982,535.583"/>
		<path clip-path="url(#SVGID_Back14_)" fill="#BF2A43" d="M443.153,536.158c0.026,0.093,0.055,0.187,0.081,0.279
			C443.208,536.345,443.18,536.251,443.153,536.158"/>
		<path clip-path="url(#SVGID_Back14_)" fill="#BF2A43" d="M442.641,534.461c0.03,0.096,0.059,0.192,0.088,0.289
			C442.699,534.653,442.671,534.557,442.641,534.461"/>
		<path clip-path="url(#SVGID_Back14_)" fill="#BF2A43" d="M442.477,533.934c0.027,0.091,0.057,0.181,0.085,0.272
			C442.533,534.114,442.504,534.024,442.477,533.934"/>
		<path clip-path="url(#SVGID_Back14_)" fill="#BF2A43" d="M443.33,536.761l0.04,0.133L443.33,536.761z"/>
		<path clip-path="url(#SVGID_Back14_)" fill="#BF2A43" d="M444.913,542.34c0.024,0.089,0.048,0.176,0.072,0.264
			C444.961,542.516,444.938,542.43,444.913,542.34"/>
		<path clip-path="url(#SVGID_Back14_)" fill="#BF2A43" d="M446.162,547.236c0.014,0.093,0.028,0.191,0.042,0.293
			C446.19,547.428,446.176,547.329,446.162,547.236"/>
		<path clip-path="url(#SVGID_Back14_)" fill="#BF2A43" d="M445.979,546.171c0.009,0.022,0.018,0.062,0.028,0.111
			C445.997,546.232,445.988,546.193,445.979,546.171"/>
		<path clip-path="url(#SVGID_Back14_)" fill="#BF2A43" d="M445.937,546.027c0.005,0.013,0.009,0.03,0.012,0.043
			C445.945,546.058,445.941,546.04,445.937,546.027"/>
		<path clip-path="url(#SVGID_Back14_)" fill="#BF2A43" d="M446.223,547.662c0.021,0.148,0.042,0.305,0.065,0.473
			C446.265,547.967,446.243,547.811,446.223,547.662"/>
		<path clip-path="url(#SVGID_Back14_)" fill="#BF2A43" d="M445.886,545.85c0.005,0.019,0.012,0.042,0.016,0.061
			C445.897,545.892,445.891,545.868,445.886,545.85"/>
		<path clip-path="url(#SVGID_Back14_)" fill="#BF2A43" d="M446.021,546.344c0.006,0.04,0.014,0.08,0.023,0.131
			C446.035,546.425,446.026,546.384,446.021,546.344"/>
		<path clip-path="url(#SVGID_Back14_)" fill="#BF2A43" d="M446.06,546.568c0.009,0.056,0.019,0.113,0.029,0.178
			C446.078,546.682,446.068,546.624,446.06,546.568"/>
		<path clip-path="url(#SVGID_Back14_)" fill="#BF2A43" d="M446.107,546.87c0.011,0.069,0.021,0.143,0.033,0.221
			C446.129,547.013,446.118,546.939,446.107,546.87"/>
		<path clip-path="url(#SVGID_Back14_)" fill="#BF2A43" d="M446.29,548.149c0.466,3.399,1.345,10.534,2.23,16.861
			C447.635,558.683,446.756,551.548,446.29,548.149"/>
		<path clip-path="url(#SVGID_Back14_)" fill="#BF2A43" d="M448.521,565.011c0.059,0.423,0.118,0.842,0.177,1.258
			C448.639,565.853,448.579,565.434,448.521,565.011"/>
		<path clip-path="url(#SVGID_Back14_)" fill="#BF2A43" d="M448.697,566.269c0.111,0.771,0.22,1.528,0.328,2.256
			C448.917,567.797,448.809,567.039,448.697,566.269"/>
		<path clip-path="url(#SVGID_Back14_)" fill="#BF2A43" d="M445.734,545.315c0.013,0.042,0.023,0.085,0.035,0.124
			C445.758,545.4,445.747,545.358,445.734,545.315"/>
		<path clip-path="url(#SVGID_Back14_)" fill="#BF2A43" d="M445.818,545.613c0.009,0.029,0.016,0.059,0.023,0.085
			C445.834,545.672,445.827,545.643,445.818,545.613"/>
		<path clip-path="url(#SVGID_Back14_)" fill="#BF2A43" d="M168.622,562.385c0.018-0.108,0.036-0.216,0.054-0.321
			C168.658,562.169,168.64,562.276,168.622,562.385"/>
		<path clip-path="url(#SVGID_Back14_)" fill="#BF2A43" d="M168.462,563.34c0.025-0.151,0.05-0.302,0.075-0.45
			C168.513,563.039,168.488,563.188,168.462,563.34"/>
		<path clip-path="url(#SVGID_Back14_)" fill="#BF2A43" d="M168.792,561.361c0.01-0.06,0.02-0.117,0.029-0.177
			C168.812,561.244,168.802,561.302,168.792,561.361"/>
		<path clip-path="url(#SVGID_Back14_)" fill="#BF2A43" d="M278.601,664.354c0.035-0.145,0.072-0.29,0.107-0.432
			C278.673,664.063,278.636,664.209,278.601,664.354"/>
		<path clip-path="url(#SVGID_Back14_)" fill="#BF2A43" d="M168.906,560.678c0.017-0.1,0.033-0.199,0.049-0.294
			C168.939,560.479,168.923,560.578,168.906,560.678"/>
		<path clip-path="url(#SVGID_Back14_)" fill="#BF2A43" d="M168.335,564.101c0.036-0.215,0.071-0.423,0.106-0.632
			C168.406,563.676,168.371,563.887,168.335,564.101"/>
		<path clip-path="url(#SVGID_Back14_)" fill="#BF2A43" d="M167.693,567.945c0.025-0.154,0.051-0.308,0.077-0.461
			C167.744,567.638,167.718,567.791,167.693,567.945"/>
		<path clip-path="url(#SVGID_Back14_)" fill="#BF2A43" d="M167.84,567.061c0.121-0.719,0.238-1.422,0.352-2.099
			C168.079,565.639,167.961,566.341,167.84,567.061"/>
		<path clip-path="url(#SVGID_Back14_)" fill="#BF2A43" d="M169.033,559.906c0.016-0.095,0.031-0.186,0.047-0.276
			C169.064,559.721,169.049,559.812,169.033,559.906"/>
		<path clip-path="url(#SVGID_Back14_)" fill="#BF2A43" d="M169.252,558.575"/>
		<path clip-path="url(#SVGID_Back14_)" fill="#BF2A43" d="M169.252,558.575L169.252,558.575c-0.013,0.08-0.027,0.17-0.041,0.256
			C169.225,558.744,169.239,558.655,169.252,558.575"/>
		<path clip-path="url(#SVGID_Back14_)" fill="#BF2A43" d="M169.132,559.311c0.018-0.105,0.034-0.204,0.05-0.3
			C169.166,559.106,169.149,559.206,169.132,559.311"/>
		<path clip-path="url(#SVGID_Back14_)" fill="#BF2A43" d="M243.299,599.852c-23.038-30.667-44.759-51.789-66.012-67.152
			c-0.017,0.056-0.033,0.106-0.05,0.163C198.263,548.188,220.54,569.558,243.299,599.852"/>
		<path clip-path="url(#SVGID_Back14_)" fill="#BF2A43" d="M169.409,558.256c-0.047,0.098-0.1,0.205-0.157,0.319
			C169.309,558.461,169.362,558.354,169.409,558.256"/>
		<path clip-path="url(#SVGID_Back14_)" fill="#00AB5D" d="M345.532,666.823c-0.059-0.285-0.116-0.569-0.174-0.854
			C345.416,666.254,345.474,666.539,345.532,666.823"/>
		<path clip-path="url(#SVGID_Back14_)" fill="#00AB5D" d="M345.236,665.372c-0.04-0.192-0.079-0.386-0.118-0.579
			C345.157,664.986,345.196,665.18,345.236,665.372"/>
		<path clip-path="url(#SVGID_Back14_)" fill="#00AB5D" d="M345.705,667.674c-0.042-0.207-0.084-0.413-0.126-0.621
			C345.621,667.261,345.663,667.467,345.705,667.674"/>
		<path clip-path="url(#SVGID_Back14_)" fill="#00AB5D" d="M347.563,676.838c-0.188-0.931-0.382-1.891-0.581-2.872
			C347.181,674.947,347.375,675.907,347.563,676.838"/>
		<path clip-path="url(#SVGID_Back14_)" fill="#00AB5D" d="M346.92,673.659c-0.048-0.236-0.096-0.477-0.145-0.716
			C346.824,673.183,346.872,673.422,346.92,673.659"/>
		<path clip-path="url(#SVGID_Back14_)" fill="#00AB5D" d="M348.114,679.576c-0.009-0.047-0.019-0.096-0.027-0.144
			C348.096,679.48,348.105,679.529,348.114,679.576"/>
		<path clip-path="url(#SVGID_Back14_)" fill="#00AB5D" d="M348.523,681.606c-0.046-0.232-0.093-0.466-0.141-0.703
			C348.431,681.141,348.478,681.374,348.523,681.606"/>
		<path clip-path="url(#SVGID_Back14_)" fill="#00AB5D" d="M349.685,687.383c-0.023-0.114-0.046-0.229-0.07-0.349
			C349.639,687.153,349.661,687.269,349.685,687.383"/>
		<path clip-path="url(#SVGID_Back14_)" fill="#00AB5D" d="M346.719,672.67c-0.267-1.318-0.54-2.669-0.819-4.039
			C346.179,670,346.453,671.352,346.719,672.67"/>
		<path clip-path="url(#SVGID_Back14_)" fill="#00AB5D" d="M349.572,686.821c-0.274-1.367-0.614-3.06-1.003-4.992
			C348.958,683.762,349.298,685.454,349.572,686.821"/>
		<path clip-path="url(#SVGID_Back14_)" fill="#00AB5D" d="M347.957,678.793c-0.105-0.526-0.215-1.064-0.325-1.614
			C347.742,677.728,347.852,678.267,347.957,678.793"/>
		<path clip-path="url(#SVGID_Back14_)" fill="#00AB5D" d="M449.479,571.445c0.047,0.292,0.094,0.575,0.141,0.849
			C449.573,572.021,449.526,571.737,449.479,571.445"/>
		<path clip-path="url(#SVGID_Back14_)" fill="#00AB5D" d="M449.331,570.52c0.039,0.249,0.077,0.489,0.116,0.728
			C449.408,571.009,449.37,570.769,449.331,570.52"/>
		<path clip-path="url(#SVGID_Back14_)" fill="#00AB5D" d="M345.052,664.47c-0.057-0.277-0.113-0.555-0.17-0.835
			C344.938,663.915,344.995,664.192,345.052,664.47"/>
		<path clip-path="url(#SVGID_Back14_)" fill="#00AB5D" d="M350.044,689.18c-0.023-0.115-0.048-0.238-0.072-0.365
			C349.996,688.941,350.021,689.064,350.044,689.18"/>
		<path clip-path="url(#SVGID_Back14_)" fill="#00AB5D" d="M349.879,688.354c-0.021-0.105-0.042-0.214-0.064-0.327
			C349.837,688.142,349.858,688.248,349.879,688.354"/>
		<path clip-path="url(#SVGID_Back14_)" fill="#00AB5D" d="M348.341,680.698c-0.035-0.172-0.069-0.345-0.104-0.521
			C348.271,680.353,348.306,680.527,348.341,680.698"/>
		<path clip-path="url(#SVGID_Back14_)" fill="#00AB5D" d="M449.028,568.54c0.05,0.334,0.1,0.663,0.149,0.986
			C449.128,569.203,449.078,568.874,449.028,568.54"/>
		<path clip-path="url(#SVGID_Back14_)" fill="#00AB5D" d="M449.18,569.545c0.046,0.3,0.092,0.593,0.137,0.881
			C449.271,570.137,449.226,569.845,449.18,569.545"/>
		<path clip-path="url(#SVGID_Back14_)" fill="#FDBB2D" d="M445.434,544.224c0.014,0.054,0.028,0.104,0.042,0.156
			C445.462,544.328,445.447,544.277,445.434,544.224"/>
		<path clip-path="url(#SVGID_Back14_)" fill="#FDBB2D" d="M445.546,544.633c0.014,0.05,0.026,0.098,0.041,0.146
			C445.572,544.73,445.56,544.683,445.546,544.633"/>
		<path clip-path="url(#SVGID_Back14_)" fill="#FDBB2D" d="M444.913,542.34c0.024,0.089,0.048,0.176,0.072,0.264
			C444.961,542.516,444.938,542.43,444.913,542.34"/>
		<path clip-path="url(#SVGID_Back14_)" fill="#FDBB2D" d="M445.049,542.831c0.055,0.196,0.105,0.386,0.157,0.57
			C445.154,543.217,445.104,543.027,445.049,542.831"/>
		<path clip-path="url(#SVGID_Back14_)" fill="#FDBB2D" d="M442.982,535.583c0.026,0.093,0.055,0.188,0.083,0.284
			C443.037,535.771,443.009,535.676,442.982,535.583"/>
		<path clip-path="url(#SVGID_Back14_)" fill="#FDBB2D" d="M442.641,534.461c0.03,0.096,0.059,0.192,0.088,0.289
			C442.699,534.653,442.671,534.557,442.641,534.461"/>
		<path clip-path="url(#SVGID_Back14_)" fill="#FDBB2D" d="M445.734,545.315c0.013,0.042,0.023,0.085,0.035,0.124
			C445.758,545.4,445.747,545.358,445.734,545.315"/>
		<path clip-path="url(#SVGID_Back14_)" fill="#FDBB2D" d="M442.807,535.005c0.031,0.099,0.06,0.198,0.09,0.298
			C442.866,535.203,442.838,535.104,442.807,535.005"/>
		<path clip-path="url(#SVGID_Back14_)" fill="#FDBB2D" d="M445.642,544.979c0.017,0.059,0.031,0.115,0.047,0.17
			C445.673,545.095,445.658,545.039,445.642,544.979"/>
		<path clip-path="url(#SVGID_Back14_)" fill="#FDBB2D" d="M443.571,537.587c0.033,0.114,0.065,0.229,0.1,0.345
			C443.637,537.815,443.604,537.701,443.571,537.587"/>
		<path clip-path="url(#SVGID_Back14_)" fill="#FDBB2D" d="M445.818,545.613c0.009,0.029,0.016,0.059,0.023,0.085
			C445.834,545.672,445.827,545.643,445.818,545.613"/>
		<path clip-path="url(#SVGID_Back14_)" fill="#FDBB2D" d="M444.102,539.442c0.03,0.106,0.061,0.214,0.091,0.321
			C444.162,539.656,444.132,539.55,444.102,539.442"/>
		<path clip-path="url(#SVGID_Back14_)" fill="#FDBB2D" d="M443.939,538.87c0.026,0.092,0.052,0.183,0.078,0.273
			C443.991,539.053,443.966,538.962,443.939,538.87"/>
		<path clip-path="url(#SVGID_Back14_)" fill="#FDBB2D" d="M444.272,540.05c0.028,0.099,0.056,0.196,0.083,0.293
			C444.328,540.246,444.301,540.148,444.272,540.05"/>
		<path clip-path="url(#SVGID_Back14_)" fill="#FDBB2D" d="M444.6,541.214c0.026,0.098,0.054,0.194,0.08,0.29
			C444.653,541.408,444.626,541.312,444.6,541.214"/>
		<path clip-path="url(#SVGID_Back14_)" fill="#FDBB2D" d="M444.44,540.645c0.028,0.102,0.057,0.201,0.084,0.301
			C444.497,540.846,444.469,540.746,444.44,540.645"/>
		<path clip-path="url(#SVGID_Back14_)" fill="#FDBB2D" d="M443.153,536.158c0.026,0.093,0.055,0.187,0.081,0.279
			C443.208,536.345,443.18,536.251,443.153,536.158"/>
		<path clip-path="url(#SVGID_Back14_)" fill="#FDBB2D" d="M444.761,541.793c0.02,0.071,0.04,0.142,0.059,0.214
			C444.801,541.935,444.78,541.864,444.761,541.793"/>
		<path clip-path="url(#SVGID_Back14_)" fill="#FDBB2D" d="M443.33,536.761l0.04,0.133L443.33,536.761z"/>
		<path clip-path="url(#SVGID_Back14_)" fill="#FDBB2D" d="M442.161,532.953c0.026,0.081,0.053,0.161,0.08,0.245
			C442.214,533.114,442.188,533.034,442.161,532.953"/>
		<path clip-path="url(#SVGID_Back14_)" fill="#FDBB2D" d="M443.76,538.244c0.028,0.097,0.055,0.193,0.084,0.291
			C443.814,538.438,443.788,538.342,443.76,538.244"/>
		<path clip-path="url(#SVGID_Back14_)" fill="#FDBB2D" d="M446.162,547.236c0.014,0.093,0.028,0.191,0.042,0.293
			C446.19,547.428,446.176,547.329,446.162,547.236"/>
		<path clip-path="url(#SVGID_Back14_)" fill="#FDBB2D" d="M446.107,546.87c0.011,0.069,0.021,0.143,0.033,0.221
			C446.129,547.013,446.118,546.939,446.107,546.87"/>
		<path clip-path="url(#SVGID_Back14_)" fill="#FDBB2D" d="M446.223,547.662c0.021,0.148,0.042,0.305,0.065,0.473
			C446.265,547.967,446.243,547.811,446.223,547.662"/>
		<path clip-path="url(#SVGID_Back14_)" fill="#FDBB2D" d="M442.005,532.488c0.029,0.084,0.057,0.166,0.086,0.253
			C442.062,532.654,442.034,532.572,442.005,532.488"/>
		<path clip-path="url(#SVGID_Back14_)" fill="#FDBB2D" d="M441.813,531.936c0.043,0.121,0.087,0.247,0.133,0.378
			C441.9,532.183,441.856,532.057,441.813,531.936"/>
		<path clip-path="url(#SVGID_Back14_)" fill="#FDBB2D" d="M446.06,546.568c0.009,0.056,0.019,0.113,0.029,0.178
			C446.078,546.682,446.068,546.624,446.06,546.568"/>
		<path clip-path="url(#SVGID_Back14_)" fill="#FDBB2D" d="M344.765,663.066c-0.032-0.159-0.064-0.318-0.098-0.478
			C344.7,662.748,344.732,662.907,344.765,663.066"/>
		<path clip-path="url(#SVGID_Back14_)" fill="#FDBB2D" d="M448.521,565.011c0.059,0.423,0.118,0.842,0.177,1.258
			C448.639,565.853,448.579,565.434,448.521,565.011"/>
		<path clip-path="url(#SVGID_Back14_)" fill="#FDBB2D" d="M446.29,548.149c0.466,3.399,1.345,10.534,2.23,16.861
			C447.635,558.683,446.756,551.548,446.29,548.149"/>
		<path clip-path="url(#SVGID_Back14_)" fill="#FDBB2D" d="M448.697,566.269c0.111,0.771,0.22,1.528,0.328,2.256
			C448.917,567.797,448.809,567.039,448.697,566.269"/>
		<path clip-path="url(#SVGID_Back14_)" fill="#FDBB2D" d="M445.886,545.85c0.005,0.019,0.012,0.042,0.016,0.061
			C445.897,545.892,445.891,545.868,445.886,545.85"/>
		<path clip-path="url(#SVGID_Back14_)" fill="#FDBB2D" d="M445.937,546.027c0.005,0.013,0.009,0.03,0.012,0.043
			C445.945,546.058,445.941,546.04,445.937,546.027"/>
		<path clip-path="url(#SVGID_Back14_)" fill="#FDBB2D" d="M442.317,533.434c0.026,0.084,0.054,0.169,0.082,0.256
			C442.371,533.603,442.344,533.519,442.317,533.434"/>
		<path clip-path="url(#SVGID_Back14_)" fill="#FDBB2D" d="M446.021,546.344c0.006,0.04,0.014,0.08,0.023,0.131
			C446.035,546.425,446.026,546.384,446.021,546.344"/>
		<path clip-path="url(#SVGID_Back14_)" fill="#FDBB2D" d="M442.477,533.934c0.027,0.091,0.057,0.181,0.085,0.272
			C442.533,534.114,442.504,534.024,442.477,533.934"/>
		<path clip-path="url(#SVGID_Back14_)" fill="#FDBB2D" d="M445.979,546.171c0.009,0.022,0.018,0.062,0.028,0.111
			C445.997,546.232,445.988,546.193,445.979,546.171"/>
		<path clip-path="url(#SVGID_Back14_)" fill="#FDBB2D" d="M243.299,599.852c-23.038-30.667-44.759-51.789-66.012-67.152
			c-0.017,0.056-0.033,0.106-0.05,0.163C198.263,548.188,220.54,569.558,243.299,599.852"/>
	</g>
	<g id="Crotch" clip-path="url(#SVGID_Back2_)">
		<defs>
			<rect id="SVGID_Back15_" x="36.927" y="37.823" width="543" height="702.706"/>
		</defs>
		<clipPath id="SVGID_Back16_">
			<use xlink:href="#SVGID_Back15_"  overflow="visible"/>
		</clipPath>  
		<path clip-path="url(#SVGID_Back16_)" fill="#BF2A43" d="M339.145,636.628c-1.95-7.798-3.119-18.716-11.307-21.25
			c-8.19-2.535-25.649-0.548-32.948,6.628c-11.503,11.308-13.452,30.997-16.182,41.916c-2.729,10.917-7.018,29.438-7.215,32.166
			c-0.193,2.73-2.729,11.309-2.729,11.309l0.78,1.364c0,0,0.196,1.755-0.584,2.729c-0.779,0.975-1.17,2.146-0.585,2.925
			s0.974,1.95,0.585,2.729c-0.39,0.78-1.95,3.313-1.95,3.899c0,0.308,0.086,2.53,0.167,4.563c0.214-0.025,0.425-0.053,0.613-0.079
			c0.91-0.129,3.64-1.688,4.03-2.339c0.39-0.65,1.56-2.469,1.56-2.469l0.258-1.302v-1.428c0,0,1.039-4.681,1.172-5.069
			c0.131-0.39,0.647-1.688,0.778-2.338c0.131-0.651,0.131-1.951,0.131-1.951l0.782-1.039c0,0,0.388-1.952,0.388-2.602
			c0-0.648,0-1.817,0.13-2.468c0.129-0.651,3.251-7.019,4.549-10.139c1.299-3.118,8.577-22.615,10.14-27.164
			c1.558-4.548,6.106-20.404,6.756-23.004s3.898-14.946,4.029-16.767s1.82-7.669,1.82-7.669l7.668-2.339
			c0,0,8.319,39.251,12.088,50.949c3.769,11.697,10.007,26.644,10.007,26.644s-0.131,1.431,0.39,2.599
			c0.52,1.17,2.86,5.978,3.25,7.408s1.689,6.368,1.689,6.368s-0.651,3.51,1.169,5.329c1.82,1.82,3.9,2.988,5.979,3.51
			c2.08,0.521,4.29,1.04,4.29,1.04s0.91,1.299,1.949,1.431c0.29,0.036,0.663,0.052,1.047,0.056
			c-0.833-7.805-2.96-27.425-3.582-30.536C349.479,686.341,341.094,644.425,339.145,636.628"/>
	</g>
	<g clip-path="url(#SVGID_Back2_)">
		<defs>
			<rect id="SVGID_Back17_" x="36.927" y="37.823" width="543" height="702.706"/>
		</defs>
		<clipPath id="SVGID_Back18_">
			<use xlink:href="#SVGID_Back17_"  overflow="visible"/>
		</clipPath>
		<g opacity="0.03" clip-path="url(#SVGID_Back18_)">
			<g>
				<defs>
					<rect id="SVGID_Back19_" x="131.54" y="77.196" width="352.603" height="655.738"/>
				</defs>
				<clipPath id="SVGID_Back20_">
					<use xlink:href="#SVGID_Back19_"  overflow="visible"/>
				</clipPath>
				<path clip-path="url(#SVGID_Back20_)" d="M169.356,126.464c0.015,0.257,0.032,0.515,0.049,0.775
					C169.388,126.979,169.371,126.722,169.356,126.464"/>
				<path clip-path="url(#SVGID_Back20_)" d="M169.295,125.374c0.014,0.265,0.029,0.534,0.044,0.805
					C169.324,125.908,169.309,125.639,169.295,125.374"/>
				<path clip-path="url(#SVGID_Back20_)" d="M190.74,236.963v0.019V236.963z"/>
				<path clip-path="url(#SVGID_Back20_)" d="M169.245,124.348c0.015,0.298,0.028,0.601,0.044,0.908
					C169.272,124.949,169.259,124.646,169.245,124.348"/>
				<path clip-path="url(#SVGID_Back20_)" d="M169.139,121.545c0.008,0.253,0.016,0.513,0.025,0.779
					C169.154,122.058,169.146,121.798,169.139,121.545"/>
				<path clip-path="url(#SVGID_Back20_)" d="M169.204,123.405c0.009,0.237,0.02,0.476,0.031,0.72
					C169.224,123.881,169.213,123.641,169.204,123.405"/>
				<path clip-path="url(#SVGID_Back20_)" d="M169.097,119.912c0.009,0.458,0.022,0.961,0.038,1.502
					C169.119,120.874,169.106,120.369,169.097,119.912"/>
				<path clip-path="url(#SVGID_Back20_)" d="M169.165,122.371c0.011,0.28,0.021,0.568,0.033,0.86
					C169.186,122.938,169.175,122.65,169.165,122.371"/>
				<path clip-path="url(#SVGID_Back20_)" d="M169.416,127.419c0.02,0.314,0.043,0.629,0.066,0.946
					C169.459,128.049,169.436,127.733,169.416,127.419"/>
				<path clip-path="url(#SVGID_Back20_)" d="M169.795,131.811c0.027,0.248,0.055,0.493,0.084,0.738
					C169.85,132.305,169.822,132.059,169.795,131.811"/>
				<path clip-path="url(#SVGID_Back20_)" d="M170.051,133.866c0.033,0.232,0.067,0.462,0.102,0.688
					C170.118,134.328,170.083,134.099,170.051,133.866"/>
				<path clip-path="url(#SVGID_Back20_)" d="M169.904,132.758c0.037,0.303,0.075,0.602,0.116,0.896
					C169.979,133.359,169.941,133.061,169.904,132.758"/>
				<path clip-path="url(#SVGID_Back20_)" d="M190.512,232.207l0.007,0.079L190.512,232.207z"/>
				<path clip-path="url(#SVGID_Back20_)" d="M190.392,231.023l0.013,0.112L190.392,231.023z"/>
				<path clip-path="url(#SVGID_Back20_)" d="M170.191,134.8c0.045,0.286,0.093,0.567,0.143,0.84
					C170.284,135.367,170.236,135.085,170.191,134.8"/>
				<path clip-path="url(#SVGID_Back20_)" d="M169.679,130.687c0.027,0.282,0.055,0.563,0.085,0.843
					C169.734,131.25,169.706,130.968,169.679,130.687"/>
				<path clip-path="url(#SVGID_Back20_)" d="M169.502,128.621c0.019,0.242,0.037,0.484,0.058,0.727
					C169.539,129.105,169.521,128.863,169.502,128.621"/>
				<path clip-path="url(#SVGID_Back20_)" d="M190.244,229.914l0.014,0.09L190.244,229.914z"/>
				<path clip-path="url(#SVGID_Back20_)" d="M190.669,234.622l0.003,0.096L190.669,234.622z"/>
				<path clip-path="url(#SVGID_Back20_)" d="M169.584,129.636c0.026,0.316,0.055,0.63,0.084,0.945
					C169.639,130.268,169.61,129.952,169.584,129.636"/>
				<path clip-path="url(#SVGID_Back20_)" d="M190.606,233.452l0.001,0.017L190.606,233.452z"/>
				<path clip-path="url(#SVGID_Back20_)" d="M190.713,235.792l0.002,0.095L190.713,235.792z"/>
				<path clip-path="url(#SVGID_Back20_)" d="M190.606,233.452c-0.025-0.391-0.054-0.78-0.087-1.166
					C190.552,232.672,190.581,233.063,190.606,233.452"/>
				<path clip-path="url(#SVGID_Back20_)" d="M190.751,238.038c-0.002-0.338-0.005-0.691-0.012-1.057
					C190.747,237.346,190.75,237.7,190.751,238.038"/>
				<path clip-path="url(#SVGID_Back20_)" d="M190.244,229.914c-0.054-0.354-0.112-0.698-0.178-1.025
					C190.131,229.216,190.19,229.561,190.244,229.914"/>
				<path clip-path="url(#SVGID_Back20_)" d="M190.74,236.963c-0.005-0.35-0.015-0.709-0.025-1.076
					C190.726,236.254,190.735,236.613,190.74,236.963"/>
				<path clip-path="url(#SVGID_Back20_)" d="M190.669,234.622c-0.018-0.382-0.038-0.768-0.062-1.154
					C190.632,233.854,190.652,234.24,190.669,234.622"/>
				<path clip-path="url(#SVGID_Back20_)" d="M190.713,235.792c-0.011-0.353-0.024-0.711-0.04-1.073
					C190.689,235.08,190.702,235.44,190.713,235.792"/>
				<path clip-path="url(#SVGID_Back20_)" d="M190.392,231.023c-0.04-0.348-0.085-0.688-0.134-1.02
					C190.306,230.335,190.352,230.675,190.392,231.023"/>
				<path clip-path="url(#SVGID_Back20_)" d="M190.512,232.207c-0.032-0.362-0.067-0.72-0.107-1.072
					C190.444,231.487,190.48,231.845,190.512,232.207"/>
				<path clip-path="url(#SVGID_Back20_)" d="M169.795,131.811c-0.01-0.094-0.02-0.188-0.031-0.282
					C169.775,131.624,169.785,131.717,169.795,131.811"/>
				<path clip-path="url(#SVGID_Back20_)" d="M169.165,122.371l0-0.046L169.165,122.371z"/>
				<path clip-path="url(#SVGID_Back20_)" d="M169.204,123.405l-0.006-0.174L169.204,123.405z"/>
				<path clip-path="url(#SVGID_Back20_)" d="M169.295,125.374l-0.007-0.118L169.295,125.374z"/>
				<path clip-path="url(#SVGID_Back20_)" d="M169.245,124.348l-0.01-0.223L169.245,124.348z"/>
				<path clip-path="url(#SVGID_Back20_)" d="M169.096,119.907v0.004V119.907z"/>
				<path clip-path="url(#SVGID_Back20_)" d="M169.139,121.545l-0.003-0.131L169.139,121.545z"/>
				<path clip-path="url(#SVGID_Back20_)" d="M170.191,134.8c-0.014-0.081-0.026-0.163-0.039-0.246
					C170.165,134.637,170.177,134.718,170.191,134.8"/>
				<path clip-path="url(#SVGID_Back20_)" d="M169.679,130.687l-0.011-0.105L169.679,130.687z"/>
				<path clip-path="url(#SVGID_Back20_)" d="M169.904,132.758l-0.025-0.208L169.904,132.758z"/>
				<path clip-path="url(#SVGID_Back20_)" d="M170.051,133.866l-0.031-0.213L170.051,133.866z"/>
				<path clip-path="url(#SVGID_Back20_)" d="M169.502,128.621c-0.006-0.085-0.013-0.171-0.02-0.256
					C169.489,128.45,169.496,128.535,169.502,128.621"/>
				<path clip-path="url(#SVGID_Back20_)" d="M169.584,129.636c-0.008-0.096-0.017-0.192-0.024-0.289
					C169.567,129.445,169.576,129.541,169.584,129.636"/>
				<path clip-path="url(#SVGID_Back20_)" d="M169.416,127.419l-0.012-0.18L169.416,127.419z"/>
				<path clip-path="url(#SVGID_Back20_)" d="M169.356,126.464c-0.005-0.095-0.012-0.191-0.017-0.286
					C169.345,126.273,169.351,126.369,169.356,126.464"/>
				<path clip-path="url(#SVGID_Back20_)" d="M258.214,77.196c-1.646,1.865-2.495,3.843-3.906,4.698
					c-2.131,1.294-2.125,2.577-4.254,4.298c-2.129,1.72-15.324,13.328-31.538,19.821c-16.214,6.492-27.736,10.397-27.736,10.397
					s-0.31,0.227-0.809,0.577c0.069,2.706,0.284,7.821,0.943,11.35c0.935,5,6.03,23.404,7.196,28.858
					c1.163,5.455,6.54,34.322,7.238,37.73c0.448,2.174,0.527,5.272,0.527,7.233c0.537,2.92,2.437,13.696,2.093,18.479
					c-0.4,5.56,2.762,40.173,4.952,50.849c2.19,10.678,5.839,42.156,3.758,53.708c-2.08,11.553-6.261,38.195-9.223,51.487
					c-2.895,12.996-1.167,23.09-1.167,23.09s-1.702,1.72-1.694,3.43c0.008,1.71,0.883,5.553,0.883,5.553l0.015,2.993
					c0,0,0.222,1.574,2.576,3.308l2.511-0.942c7.905-6.876,6.607-1.577,9.637-13.28c3.029-11.704,3.848-24.498,3.848-24.498
					s0.822-12.354,3.207-20.525c2.386-8.171,0.19-5.956,4.793-11.713c0.765-0.954,1.3-1.301,1.691-1.301
					c0.518,0,0.78,0.612,0.979,1.223c0.198,0.611,0.335,1.223,0.599,1.223c0.471,0,1.354-1.951,3.747-9.338
					c6.083-18.776,8.908-27.17,5.116-35.751c-3.791-8.582-14.674-24.187-14.954-36.094c-0.278-11.908,3.636-22.953,2.065-28.237
					c-1.569-5.286-4.029-12.331-4.029-12.331s-9.078-7.233-8.658-11.425c0.421-4.191,2.66-41.914-1.113-46.746
					c-3.771-4.833-16.556-3.446-17.483-12.484c-0.927-9.038-10.668-16.928,2.104-20.52c6.464-1.818,9.657-2.377,12.322-2.377
					c2.603,0.001,4.701,0.533,8.843,0.95c8.384,0.84,5.734,0.191,17.646,0.795c1.891,0.096,3.752,0.135,5.549,0.135
					c9.517,0,17.161-1.13,17.161-1.13s-0.844,0.113-2.047,0.113c-3.31,0-9.337-0.863-7.913-7.341
					c1.941-8.831,4.823-5.538,7.439-11.725s4.139-10.385,4.118-14.576c-0.021-4.189-0.24-3.967-0.033-6.836
					c0.054-0.746,0.406-1.719,0.897-2.749c-6.139-2.514-9.867-5.406-9.782-6.206c0.105-0.991,1.374-2.54,2.755-3.874L258.214,77.196
					"/>
				<path clip-path="url(#SVGID_Back20_)" d="M479.516,160.065c0,0-35.784,48.124-37.327,50.592c-1.543,2.468-8.021,12.34-9.563,16.042
					c-1.543,3.702-3.702,12.648-3.702,12.648s10.797-15.424,16.659-24.37c5.861-8.946,18.509-21.595,24.679-27.457
					c6.169-5.861,13.882-14.189,13.882-15.424c0-0.088-0.052-0.129-0.147-0.129c-1.253,0-10.12,7.025-11.268,8.458
					c-1.232,1.542-23.753,26.221-23.753,26.221s24.987-31.466,27.455-36.71C478.898,164.692,479.516,160.065,479.516,160.065"/>
				<path clip-path="url(#SVGID_Back20_)" d="M477.047,152.662c0,0-8.329,12.031-10.489,15.116
					c-2.158,3.084-13.572,12.648-13.572,12.648s7.095-2.16,13.882-8.638C473.653,165.31,477.047,152.662,477.047,152.662"/>
				<path clip-path="url(#SVGID_Back20_)" d="M132.774,169.32c0,0-4.936,10.488,4.936,24.679c9.872,14.191,35.477,24.372,39.487,27.456
					c4.01,3.084,10.49,4.319,10.49,4.319s-14.191-15.733-21.903-20.052c-7.712-4.318-22.212-16.04-25.604-22.21
					C136.784,177.341,132.774,169.32,132.774,169.32"/>
				<path clip-path="url(#SVGID_Back20_)" d="M137.709,216.21c0,0,4.011,8.946,18.509,14.808c7.065,2.856,13.469,3.588,18.181,3.588
					c4.957,0,8.041-0.812,8.041-0.812s-16.35-3.085-24.988-5.552C148.816,225.772,137.709,216.21,137.709,216.21"/>
				<path clip-path="url(#SVGID_Back20_)" d="M148.615,175.099c-2.438,0-4.119,1.008-4.119,1.008s5.245,4.318,8.638,10.179
					c3.393,5.861,8.329,5.554,15.425,8.946c6.856,3.28,8.814,11.454,8.938,12.001c-0.142-0.633-2.907-12.699-8.013-15.703
					c-5.245-3.085-7.095-5.552-12.958-12.34C153.725,175.945,150.852,175.099,148.615,175.099"/>
				<path clip-path="url(#SVGID_Back20_)" d="M195.84,432.345c-0.495,0-0.259,3.012-0.259,3.749c0,1.3-0.703,4.021-0.888,5.579
					c-0.184,1.559-0.09,5.196-0.09,5.196c0.063,1.315,0.015,4.68,0.015,4.68s0,1.563-0.116,2.87
					c-0.118,1.308-1.184,3.631-1.184,4.671s-1.659,5.58-1.659,5.58l-1.268,3.571l-0.229,3.647c0,0-0.615,2.765-0.537,5.223
					c0.075,2.456-0.468,6.412-0.986,7.972c-0.52,1.56-1.82,9.618-1.97,11.648c-0.152,2.03-4.528,20.844-5.309,23.184
					c-0.78,2.339-11.177,35.872-12.477,40.552c-1.301,4.678-4.419,26.514-4.419,29.111s-3.38,21.835-4.42,28.334
					c-1.041,6.499-0.259,21.576-0.259,21.576s3.639-20.016,5.198-23.396c1.559-3.38,0.779-10.656,1.82-16.115
					c1.041-5.459,1.561-8.838,2.859-12.737c1.3-3.899,3.64-23.915,4.68-25.993c1.04-2.079,8.058-29.895,8.317-31.193
					s4.421-12.218,4.421-15.076c0-2.859,5.197-19.756,6.238-23.655c1.04-3.898,8.959-26.287,8.959-26.287l1.958-0.227v-5.199
					c0,0-2.081-2.599-1.95-3.897c0-0.136,0.012-0.254,0.037-0.36c0.201-1.875,0.872-7.698,0.872-7.698s1.561-1.04,1.821-1.819
					c0.26-0.78,1.545-4.723,1.545-4.723s-5.872-2.012-8.325-4.695c-1.051-1.148-2.38-4.07-2.38-4.07
					C195.851,432.345,195.845,432.345,195.84,432.345"/>
				<path clip-path="url(#SVGID_Back20_)" d="M425.638,726.875c-9.766,0.519-20.207,0.84-25.563,0.896
					c0.101,0.232,0.155,0.355,0.155,0.355l25.474-0.521L425.638,726.875 M405.354,565.578c-3.265,0-8.981,4.201-11.363,6.584
					c-3.119,3.121-25.475,18.717-33.271,26.516c-7.8,7.798-17.676,12.996-19.235,12.996c-1.561,0-10.918,5.196-10.918,5.196
					s0.892,0.662,2.063,2.069c0.095,0.106,0.188,0.224,0.284,0.35c1.27,1.6,2.793,4.025,3.866,7.378
					c1.092,3.413,2.119,7.466,3.065,11.672c4.207,16.044,8.374,38.419,10.808,55.047c2.212,15.109,3.744,27.497,3.744,27.497
					s34.787,6.898,44.145,6.898c0.448,0,0.963-0.004,1.533-0.01c-1.205-2.788-8.921-21.357-5.563-32.397
					c3.64-11.956,11.437-30.674,14.036-38.471c2.6-7.799,5.199-10.397,4.159-24.954c-1.039-14.557-4.159-12.996-3.64-31.193
					c0.521-18.196,0-29.633-1.56-33.791C407.14,565.981,406.364,565.578,405.354,565.578 M421.026,431.867
					c0,0-14.038,6.166-20.797,8.247c-6.759,2.079-16.554,4.656-16.554,4.656s1.477,15.098-5.8,18.737l-7.279,3.64
					c0,0,0,3.639,6.239,8.838c6.238,5.199,14.036,9.357,17.155,10.918c3.12,1.56,6.758,5.718,6.758,9.356
					c0,3.64-7.797,11.958-3.118,20.275c4.679,8.318,14.557,5.199,20.275,12.998s5.72,51.987,10.917,73.822
					c5.197,21.837,4.158,48.867,4.158,55.627s-3.116,17.677-4.158,28.594c-1.04,10.918-4.679,12.998-4.679,15.598v7.276
					l1.493,16.425c10.916-0.579,20.986-1.406,22.163-2.386c2.339-1.95,2.728-4.68,2.728-4.68l0.65-6.76
					c0,0,9.877-64.465,7.796-81.621c-2.077-17.156-9.877-62.385-10.916-69.143c-1.039-6.76-1.691-19.628-4.159-25.476
					c-2.468-5.846-15.076-42.629-16.116-47.309c-1.04-4.679-0.518-10.654-1.298-13.126c-0.782-2.47-1.302-14.427-2.341-17.026
					c-1.04-2.601-2.338-8.187-2.338-8.187L421.026,431.867"/>
				<path clip-path="url(#SVGID_Back20_)" d="M318.913,613.868c-7.553,0-15.179,2.781-17.986,4.342c-4.68,2.6-13.512,6.461-19.23,28.815
					c0,0-6.471,21.173-7.409,28.377c-0.94,7.204-4.854,24.116-5.011,26.623c-0.157,2.506-1.565,5.637-1.565,9.863
					c0,4.229-0.7,9.155-0.7,9.155l-1.559,4.745c0,0,0.377,0.053,0.849,0.053c0.509,0,1.125-0.062,1.489-0.313
					c0.703-0.483,2.741-1.11,3.209-1.581c0.468-0.47,2.383-3.227,2.383-3.227s0.394-1.953,0.258-2.729
					c-0.135-0.777,0.803-4.068,1.431-6.259c0.627-2.192,0.627-3.758,0.627-3.758s1.624-1.715,1.408-2.348
					c-0.215-0.635,0.156-3.915,0.47-4.699c0.314-0.783,8.302-17.069,14.72-37.584c4.999-15.974,10.024-37.738,10.337-38.993
					c0.312-1.253,1.682-6.568,1.682-6.568s5.852-2.389,7.386-2.389c0.125,0,0.22,0.016,0.282,0.05
					c0.828,0.453,6.796,33.58,9.44,42.264c2.648,8.686,8.613,27.72,10.181,29.911c1.565,2.19,2.529,6.241,2.529,6.241
					s0.501,0.746,1.098,2.5c0.601,1.751,2.479,6.291,2.95,8.172c0.468,1.879,1.2,3.654,1.226,4.88
					c0.025,1.227-0.132,2.163,0.182,3.261c0.313,1.097,0.987,2.067,0.987,2.067s3.371,2.708,5.979,3.511
					c2.745,0.844,7.844,2.633,7.844,2.633s-2.516-13.553-2.516-17.19c0-3.639-4.158-27.554-6.758-38.992
					c-1.164-5.112-2.987-16.186-5.278-26.361c-2.404-9.171-4.82-16.271-6.932-19.05c-0.097-0.122-0.19-0.238-0.284-0.35
					c-0.056-0.063-0.11-0.123-0.164-0.181C328.947,615.104,323.946,613.869,318.913,613.868"/>
				<path clip-path="url(#SVGID_Back20_)" d="M339.845,638.339c2.291,10.176,4.115,21.249,5.278,26.361
					c2.6,11.438,6.758,35.354,6.758,38.992c0,3.638,2.516,17.19,2.516,17.19s-1.532-12.387-3.744-27.497
					C348.219,676.758,344.052,654.383,339.845,638.339 M332.629,618.939c0.093,0.111,0.188,0.228,0.284,0.35
					C332.817,619.163,332.723,619.046,332.629,618.939"/>
				<path clip-path="url(#SVGID_Back20_)" d="M203.5,454.615c-0.603,0-1.048,0.186-1.176,0.735c-0.016,0.146-0.028,0.267-0.039,0.36
					c0,1.948,4.68,3.118,6.241,3.898c1.557,0.779,16.766,4.289,16.766,4.289s2.339,1.169,2.339,4.679
					c0,3.509-1.949,7.798-5.069,12.867c-3.118,5.068-10.137,1.559-14.427,15.986c-4.289,14.426-6.627,25.733-8.187,36.261
					c-1.562,10.529-8.969,33.532-12.866,43.281c-3.901,9.746-11.31,39.77-10.53,46.789c0.78,7.018,1.951,24.953,2.34,30.412
					c0.39,5.459,1.95,35.482,1.95,38.211s7.019,15.206,8.968,18.715c1.95,3.51,3.509,5.848,4.29,9.358
					c0.779,3.509,1.17,11.698,1.17,11.698s6.239,0.779,11.306,0.779c5.07,0,13.257-0.391,13.257-0.391s3.509-19.104,0.39-27.683
					c-3.118-8.577-1.949-34.313-6.629-41.721c-4.677-7.408-14.815-9.747-10.136-21.835c4.678-12.088,19.884-25.735,17.155-40.16
					c-2.729-14.428-6.238-26.903-4.679-27.684c1.56-0.779,20.665-7.798,23.004-9.749c2.341-1.948,29.633-5.067,21.444-26.123
					s-10.916-29.243-12.866-40.16c-1.948-10.918,6.629-33.532,6.629-33.532l3.121-0.391c0,0-26.906-2.339-32.364-3.119
					c-5.458-0.779-15.986-4.678-17.936-5.068C205.847,455.096,204.471,454.615,203.5,454.615"/>
				<path clip-path="url(#SVGID_Back20_)" d="M202.324,455.351c-0.024,0.106-0.037,0.225-0.037,0.36
					C202.296,455.617,202.308,455.496,202.324,455.351"/>
			</g>
		</g>
	</g>
	<g clip-path="url(#SVGID_Back2_)">
		<defs>
			<rect id="SVGID_Back21_" x="36.927" y="37.823" width="543" height="702.706"/>
		</defs>
		<clipPath id="SVGID_Back22_">
			<use xlink:href="#SVGID_Back21_"  overflow="visible"/>
		</clipPath>
		<g opacity="0.5" clip-path="url(#SVGID_Back22_)">
			<g>
				<defs>
					<rect id="SVGID_Back23_" x="415.929" y="431.025" width="7.36" height="44.005"/>
				</defs>
				<clipPath id="SVGID_Back24_">
					<use xlink:href="#SVGID_Back23_"  overflow="visible"/>
				</clipPath>
				
					<path clip-path="url(#SVGID_Back24_)" fill="none" stroke="#897F76" stroke-width="0.472" stroke-miterlimit="10" stroke-dasharray="1.706,0.853" d="
					M417.149,431.05c0,0-0.237,2.048-0.495,3.078c-0.26,1.03-0.518,2.319-0.518,3.221s0.132,2.189,0.389,2.963
					c0.257,0.772,1.637,4.457,1.397,5.256c-0.239,0.797-1.141,2.6-1.141,3.63s0.387,6.955,0.773,8.501
					c0.385,1.546,2.188,8.371,2.962,9.659c0.772,1.289,1.159,2.964,1.288,3.735c0.128,0.773,1.287,3.864,1.287,3.864"/>
			</g>
		</g>
		<g opacity="0.35" clip-path="url(#SVGID_Back22_)">
			<g>
				<defs>
					<rect id="SVGID_Back25_" x="245.648" y="71.268" width="126.729" height="13.313"/>
				</defs>
				<clipPath id="SVGID_Back26_">
					<use xlink:href="#SVGID_Back25_"  overflow="visible"/>
				</clipPath>
				
					<path clip-path="url(#SVGID_Back26_)" fill="none" stroke="#00AB5D" stroke-width="0.61" stroke-miterlimit="10" stroke-dasharray="0.524,0.524" d="
					M245.81,83.795c0,0,16.078-11.979,63.157-12.253c47.515-0.277,63.236,12.831,63.236,12.831"/>
			</g>
		</g>
		<g opacity="0.35" clip-path="url(#SVGID_Back22_)">
			<g>
				<defs>
					<rect id="SVGID_Back27_" x="122.501" y="237.459" width="65.291" height="8.63"/>
				</defs>
				<clipPath id="SVGID_Back28_">
					<use xlink:href="#SVGID_Back27_"  overflow="visible"/>
				</clipPath>
				
					<path clip-path="url(#SVGID_Back28_)" fill="none" stroke="#00AB5D" stroke-width="0.795" stroke-miterlimit="10" stroke-dasharray="0.683,0.683" d="
					M122.596,237.8c0,0,14.957,4.138,33.734,6.046c18.778,1.91,31.462,1.89,31.462,1.89"/>
			</g>
		</g>
		<g opacity="0.35" clip-path="url(#SVGID_Back22_)">
			<g>
				<defs>
					<rect id="SVGID_Back29_" x="122.501" y="240.285" width="65.291" height="8.63"/>
				</defs>
				<clipPath id="SVGID_Back30_">
					<use xlink:href="#SVGID_Back29_"  overflow="visible"/>
				</clipPath>
				
					<path clip-path="url(#SVGID_Back30_)" fill="none" stroke="#00AB5D" stroke-width="0.795" stroke-miterlimit="10" stroke-dasharray="0.683,0.683" d="
					M122.596,240.625c0,0,14.957,4.137,33.734,6.047c18.778,1.91,31.462,1.891,31.462,1.891"/>
			</g>
		</g>
		<g opacity="0.35" clip-path="url(#SVGID_Back22_)">
			<g>
				<defs>
					<rect id="SVGID_Back31_" x="429.805" y="237.459" width="65.291" height="8.63"/>
				</defs>
				<clipPath id="SVGID_Back32_">
					<use xlink:href="#SVGID_Back31_"  overflow="visible"/>
				</clipPath>
				
					<path clip-path="url(#SVGID_Back32_)" fill="none" stroke="#00AB5D" stroke-width="0.795" stroke-miterlimit="10" stroke-dasharray="0.683,0.683" d="
					M495.002,237.8c0,0-14.958,4.138-33.735,6.046c-18.776,1.91-31.461,1.89-31.461,1.89"/>
			</g>
		</g>
		<g opacity="0.35" clip-path="url(#SVGID_Back22_)">
			<g>
				<defs>
					<rect id="SVGID_Back33_" x="429.805" y="240.285" width="65.291" height="8.63"/>
				</defs>
				<clipPath id="SVGID_Back34_">
					<use xlink:href="#SVGID_Back33_"  overflow="visible"/>
				</clipPath>
				
					<path clip-path="url(#SVGID_Back34_)" fill="none" stroke="#00AB5D" stroke-width="0.795" stroke-miterlimit="10" stroke-dasharray="0.683,0.683" d="
					M495.002,240.625c0,0-14.958,4.137-33.735,6.047c-18.776,1.91-31.461,1.891-31.461,1.891"/>
			</g>
		</g>
		<g opacity="0.35" clip-path="url(#SVGID_Back22_)">
			<g>
				<defs>
					<rect id="SVGID_Back35_" x="247.615" y="69.815" width="120.874" height="12.282"/>
				</defs>
				<clipPath id="SVGID_Back36_">
					<use xlink:href="#SVGID_Back35_"  overflow="visible"/>
				</clipPath>
				
					<path clip-path="url(#SVGID_Back36_)" fill="none" stroke="#00AB5D" stroke-width="0.61" stroke-miterlimit="10" stroke-dasharray="0.524,0.524" d="
					M247.787,81.888c0,0,14.128-11.522,61.209-11.796c47.514-0.276,59.308,10.815,59.308,10.815"/>
			</g>
		</g>
		<g opacity="0.35" clip-path="url(#SVGID_Back22_)">
			<g>
				<defs>
					<rect id="SVGID_Back37_" x="169.734" y="688.557" width="281.729" height="25.376"/>
				</defs>
				<clipPath id="SVGID_Back38_">
					<use xlink:href="#SVGID_Back37_"  overflow="visible"/>
				</clipPath>
				<g opacity="0.5" clip-path="url(#SVGID_Back38_)">
					<g>
						<defs>
							<rect id="SVGID_Back39_" x="338.828" y="696.015" width="110.323" height="12.231"/>
						</defs>
						<clipPath id="SVGID_Back40_">
							<use xlink:href="#SVGID_Back39_"  overflow="visible"/>
						</clipPath>
						
							<path clip-path="url(#SVGID_Back40_)" fill="none" stroke="#FFFFFF" stroke-width="0.711" stroke-miterlimit="10" stroke-dasharray="1.74,0.87" d="
							M338.912,696.319c0,0,43.356,11.909,68.022,11.606c38.569-0.475,42.009-3.491,42.009-3.491"/>
					</g>
				</g>
				<g opacity="0.5" clip-path="url(#SVGID_Back38_)">
					<g>
						<defs>
							<rect id="SVGID_Back41_" x="170.275" y="707.138" width="104.671" height="6.795"/>
						</defs>
						<clipPath id="SVGID_Back42_">
							<use xlink:href="#SVGID_Back41_"  overflow="visible"/>
						</clipPath>
						
							<path clip-path="url(#SVGID_Back42_)" fill="none" stroke="#FFFFFF" stroke-width="0.711" stroke-miterlimit="10" stroke-dasharray="1.74,0.87" d="
							M274.86,707.442c0,0-21.418,6.015-75.162,6.173c-30.917,0.092-29.088-4.267-29.088-4.267"/>
					</g>
				</g>
				<g opacity="0.5" clip-path="url(#SVGID_Back38_)">
					<g>
						<defs>
							<rect id="SVGID_Back43_" x="169.734" y="700.211" width="108.312" height="8.317"/>
						</defs>
						<clipPath id="SVGID_Back44_">
							<use xlink:href="#SVGID_Back43_"  overflow="visible"/>
						</clipPath>
						
							<path clip-path="url(#SVGID_Back44_)" fill="none" stroke="#FFFFFF" stroke-width="0.711" stroke-miterlimit="10" stroke-dasharray="1.74,0.87" d="
							M277.974,700.517c0,0-33.067,7.853-69.267,7.694c-36.198-0.157-38.728-3.317-38.728-3.317"/>
					</g>
				</g>
				<g opacity="0.5" clip-path="url(#SVGID_Back38_)">
					<g>
						<defs>
							<rect id="SVGID_Back45_" x="333.332" y="688.557" width="118.131" height="12.701"/>
						</defs>
						<clipPath id="SVGID_Back46_">
							<use xlink:href="#SVGID_Back45_"  overflow="visible"/>
						</clipPath>
						
							<path clip-path="url(#SVGID_Back46_)" fill="none" stroke="#FFFFFF" stroke-width="0.711" stroke-miterlimit="10" stroke-dasharray="1.74,0.87" d="
							M451.195,695.18c0,0-4.427,7.113-45.368,5.533s-72.398-11.856-72.398-11.856"/>
					</g>
				</g>
			</g>
		</g>
		<g clip-path="url(#SVGID_Back22_)">
			<g>
				<defs>
					<rect id="SVGID_Back47_" x="165.636" y="426.214" width="287.037" height="295.036"/>
				</defs>
				<clipPath id="SVGID_Back48_">
					<use xlink:href="#SVGID_Back47_"  overflow="visible"/>
				</clipPath>
				<g opacity="0.5" clip-path="url(#SVGID_Back48_)">
					<g>
						<defs>
							<rect id="SVGID_Back49_" x="194.763" y="445.737" width="230.938" height="21.247"/>
						</defs>
						<clipPath id="SVGID_Back50_">
							<use xlink:href="#SVGID_Back49_"  overflow="visible"/>
						</clipPath>
						
							<path clip-path="url(#SVGID_Back50_)" fill="none" stroke="#897F76" stroke-width="0.733" stroke-miterlimit="10" stroke-dasharray="1.767,0.883" d="
							M194.95,466.378c0,0,6.982-4.927,13.018-7.451c6.034-2.521,29.769-9.822,45.725-11.681
							c15.955-1.857,50.817-1.193,75.892-0.265c25.075,0.929,59.402,3.716,62.889,3.981c3.485,0.267,9.79,0.663,10.995,0.929
							c1.207,0.266,10.459,2.389,13.008,4.381c2.547,1.99,3.35,2.921,3.888,3.716c0.536,0.797,1.313,1.189,1.313,1.189l3.753,5.626"
							/>
					</g>
				</g>
				<g opacity="0.5" clip-path="url(#SVGID_Back48_)">
					<g>
						<defs>
							<rect id="SVGID_Back51_" x="193.846" y="433.309" width="228.644" height="23.398"/>
						</defs>
						<clipPath id="SVGID_Back52_">
							<use xlink:href="#SVGID_Back51_"  overflow="visible"/>
						</clipPath>
						
							<path clip-path="url(#SVGID_Back52_)" fill="none" stroke="#897F76" stroke-width="0.733" stroke-miterlimit="10" stroke-dasharray="1.767,0.883" d="
							M194.162,456.631c0.139-0.571,0.532-2.482,1.067-3.146c0.535-0.663,7.643-4.779,20.516-8.894
							c12.872-4.114,37.276-9.822,53.367-10.751c16.09-0.93,48.673,1.593,72.271,1.327s57.66,4.513,67.18,6.637
							s13.656,8.222,13.656,8.222"/>
					</g>
				</g>
				<g opacity="0.5" clip-path="url(#SVGID_Back48_)">
					<g>
						<defs>
							<rect id="SVGID_Back53_" x="196.322" y="426.214" width="226.169" height="16.639"/>
						</defs>
						<clipPath id="SVGID_Back54_">
							<use xlink:href="#SVGID_Back53_"  overflow="visible"/>
						</clipPath>
						
							<path clip-path="url(#SVGID_Back54_)" fill="none" stroke="#897F76" stroke-width="0.733" stroke-miterlimit="10" stroke-dasharray="1.767,0.883" d="
							M196.572,442.072c0,0,2.202-2.659,23.656-9.03c21.454-6.371,43.52-7.565,86.965-5.706c43.444,1.859,68.788,2.124,86.621,5.177
							c17.834,3.053,19.979,4.515,21.588,5.177c1.61,0.664,4.295,1.857,4.963,2.522c0.668,0.663,1.855,2.463,1.855,2.463"/>
					</g>
				</g>
				<g opacity="0.5" clip-path="url(#SVGID_Back48_)">
					<g>
						<defs>
							<rect id="SVGID_Back55_" x="333.839" y="693.722" width="118.834" height="17.586"/>
						</defs>
						<clipPath id="SVGID_Back56_">
							<use xlink:href="#SVGID_Back55_"  overflow="visible"/>
						</clipPath>
						
							<path clip-path="url(#SVGID_Back56_)" fill="none" stroke="#897F76" stroke-width="0.73" stroke-miterlimit="10" stroke-dasharray="1.758,0.879" d="
							M452.609,706.553c0,0-15.064,2.992-30.852,3.593c-15.786,0.6-21.88,2.101-42.962-1.396
							c-21.084-3.498-29.478-5.097-32.475-6.396c-2.998-1.3-6.194-2.397-7.693-3.396s-3.298-2.199-3.398-2.598
							c-0.099-0.401-1.098-2.5-1.098-2.5"/>
					</g>
				</g>
				<g opacity="0.5" clip-path="url(#SVGID_Back48_)">
					<g>
						<defs>
							<rect id="SVGID_Back57_" x="337.7" y="703.055" width="114.403" height="12.312"/>
						</defs>
						<clipPath id="SVGID_Back58_">
							<use xlink:href="#SVGID_Back57_"  overflow="visible"/>
						</clipPath>
						
							<path clip-path="url(#SVGID_Back58_)" fill="none" stroke="#897F76" stroke-width="0.73" stroke-miterlimit="10" stroke-dasharray="1.758,0.879" d="
							M452.033,710.547c0,0-19.983,4.496-37.169,4.496c-17.187,0-34.07-1.2-50.856-4.697c-16.787-3.496-22.784-5.195-23.781-5.795
							c-1-0.599-2.398-1.198-2.398-1.198"/>
					</g>
				</g>
				<g opacity="0.5" clip-path="url(#SVGID_Back48_)">
					<g>
						<defs>
							<rect id="SVGID_Back59_" x="166.505" y="712.027" width="108.935" height="9.223"/>
						</defs>
						<clipPath id="SVGID_Back60_">
							<use xlink:href="#SVGID_Back59_"  overflow="visible"/>
						</clipPath>
						
							<path clip-path="url(#SVGID_Back60_)" fill="none" stroke="#897F76" stroke-width="0.73" stroke-miterlimit="10" stroke-dasharray="1.758,0.879" d="
							M275.21,712.256c0,0-1.504,1.507-4.261,2.006c-1.503,0.273-2.573,0.153-2.573,0.153s-22.625,3.23-28.767,4.108
							c-6.142,0.88-19.683,3.511-39.237,1.881c-19.555-1.629-33.827-3.453-33.827-3.453"/>
					</g>
				</g>
				<g opacity="0.5" clip-path="url(#SVGID_Back48_)">
					<g>
						<defs>
							<rect id="SVGID_Back61_" x="165.636" y="706.902" width="111.408" height="9.729"/>
						</defs>
						<clipPath id="SVGID_Back62_">
							<use xlink:href="#SVGID_Back61_"  overflow="visible"/>
						</clipPath>
						
							<path clip-path="url(#SVGID_Back62_)" fill="none" stroke="#897F76" stroke-width="0.73" stroke-miterlimit="10" stroke-dasharray="1.758,0.879" d="
							M276.715,706.992c0,0,0.751,2.631-13.037,4.513c-13.789,1.88-31.716,6.142-58.417,4.389
							c-26.701-1.756-38.618-3.277-39.365-4.272"/>
					</g>
				</g>
			</g>
		</g>
		<g opacity="0.5" clip-path="url(#SVGID_Back22_)">
			<g>
				<defs>
					<rect id="SVGID_Back63_" x="189.202" y="435.556" width="7.585" height="45.349"/>
				</defs>
				<clipPath id="SVGID_Back64_">
					<use xlink:href="#SVGID_Back63_"  overflow="visible"/>
				</clipPath>
				
					<path clip-path="url(#SVGID_Back64_)" fill="none" stroke="#897F76" stroke-width="0.486" stroke-miterlimit="10" stroke-dasharray="1.758,0.879" d="
					M195.53,435.58c0,0,0.244,2.11,0.51,3.173c0.267,1.062,0.532,2.391,0.532,3.319c0,0.928-0.135,2.255-0.398,3.053
					c-0.265,0.797-1.688,4.593-1.442,5.416c0.247,0.822,1.177,2.68,1.177,3.741c0,1.063-0.399,7.169-0.797,8.762
					c-0.397,1.592-2.254,8.627-3.054,9.954c-0.796,1.328-1.195,3.054-1.327,3.85c-0.132,0.797-1.326,3.982-1.326,3.982"/>
			</g>
		</g>
		<g opacity="0.5" clip-path="url(#SVGID_Back22_)">
			<g>
				<defs>
					<rect id="SVGID_Back65_" x="266.795" y="614.11" width="88.16" height="111.806"/>
				</defs>
				<clipPath id="SVGID_Back66_">
					<use xlink:href="#SVGID_Back65_"  overflow="visible"/>
				</clipPath>
				
					<path clip-path="url(#SVGID_Back66_)" fill="none" stroke="#887F76" stroke-width="0.486" stroke-miterlimit="10" stroke-dasharray="1.758,0.879" d="
					M267.011,725.916v-4.872c0-0.586,1.56-3.119,1.95-3.899c0.39-0.779,0-1.95-0.584-2.729c-0.587-0.779-0.195-1.95,0.584-2.925
					c0.781-0.975,0.584-2.729,0.584-2.729l-0.78-1.364c0,0,2.535-8.578,2.729-11.309c0.197-2.728,4.486-21.249,7.216-32.166
					c2.729-10.919,4.678-30.608,16.18-41.916c7.3-7.176,24.759-9.163,32.949-6.628c8.188,2.534,9.356,13.452,11.307,21.25
					c1.949,7.797,10.333,49.714,11.112,53.612c0.779,3.899,4.484,30.218,4.484,30.218"/>
			</g>
		</g>
	</g>
</g>
</svg>
