<?xml version="1.0" encoding="utf-8"?>
<!-- Generator: Adobe Illustrator 15.0.0, SVG Export Plug-In . SVG Version: 6.00 Build 0)  -->
<!DOCTYPE svg PUBLIC "-//W3C//DTD SVG 1.1//EN" "http://www.w3.org/Graphics/SVG/1.1/DTD/svg11.dtd">
<svg version="1.1" id="Layer_1" xmlns="http://www.w3.org/2000/svg" xmlns:xlink="http://www.w3.org/1999/xlink" x="0px" y="0px"
	 width="612px" height="792px" viewBox="0 0 530 892" enable-background="new 0 0 612 792" xml:space="preserve">
<g>
	<defs>
		<rect id="AADSF_SB_SVGID_1_" width="612" height="792"/>
	</defs>
	<clipPath id="AADSF_SB_SVGID_2_">
		<use xlink:href="#AADSF_SB_SVGID_1_"  overflow="visible"/>
	</clipPath>
	<g clip-path="url(#AADSF_SB_SVGID_2_)">
		<defs>
			<rect id="AADSF_SB_SVGID_3_" width="612" height="792"/>
		</defs>
		<clipPath id="AADSF_SB_SVGID_4_">
			<use xlink:href="#AADSF_SB_SVGID_3_"  overflow="visible"/>
		</clipPath>
		<path clip-path="url(#AADSF_SB_SVGID_4_)" fill="#FDBB2D" d="M455.249,189.936c-0.005,0.021-0.008,0.035-0.008,0.035
			S455.244,189.955,455.249,189.936"/>	

	</g>
  <g id="COLLAR" clip-path="url(#AADSF_SB_SVGID_2_)">
		<defs>
			<rect id="AADSF_SB_SVGID_5_" width="612" height="792"/>
		</defs>
		<clipPath id="AADSF_SB_SVGID_6_">
			<use xlink:href="#AADSF_SB_SVGID_5_"  overflow="visible"/>
		</clipPath>
		<path clip-path="url(#AADSF_SB_SVGID_6_)" fill="#FDBB2D" d="M380.787,54.124c-0.813-0.592-1.604-1.175-2.348-1.734
			c-5.368-4.028-9.001-7.135-10.244-8.129c-3.369-2.696-3.369-4.718-6.739-6.74s-4.719-8.088-11.459-11.459
			c-4.29-2.144-23.595-2.924-37.065-3.208l-0.005-0.162c0,0-2.649,0.001-6.74,0.051c-4.09-0.05-6.74-0.051-6.74-0.051l-0.005,0.162
			c-13.471,0.284-32.776,1.064-37.066,3.208c-6.74,3.371-8.088,9.437-11.458,11.459s-3.37,4.044-6.74,6.74
			c-0.99,0.792-3.5,2.926-7.188,5.795c-2.302,1.789-5.072,3.869-8.217,6.089c17.632-4.794,45.026-10.34,77.421-10.34
			C336.12,45.805,362.48,50.069,380.787,54.124"/>
  </g>
	<g clip-path="url(#AADSF_SB_SVGID_2_)">
		<defs>
			<rect id="AADSF_SB_SVGID_7_" width="612" height="792"/>
		</defs>
		<clipPath id="AADSF_SB_SVGID_8_">
			<use xlink:href="#AADSF_SB_SVGID_7_"  overflow="visible"/>
		</clipPath>
    <g id="XYZ">
    <g id="SHIRT">
      	<path clip-path="url(#SVGID_8_)" fill="#C64421" d="M461.884,91.442c0,0-18.198-6.066-43.811-16.176
			c-14.854-5.864-28.105-14.44-37.286-21.142c-18.307-4.055-44.667-8.319-74.594-8.319c-32.396,0-59.79,5.546-77.421,10.34
			c-8.98,6.336-21.074,13.832-34.472,19.121c-25.612,10.11-43.811,16.176-43.811,16.176s-0.596,0.432-1.524,1.073v0.004
			c0.011,0.515,0.025,1.085,0.043,1.693c0.001,0.049,0.003,0.099,0.004,0.148c0.009,0.285,0.018,0.578,0.029,0.878
			c0,0.018,0.001,0.035,0.001,0.053c0.011,0.315,0.024,0.639,0.036,0.97c0.003,0.064,0.006,0.13,0.008,0.196
			c0.011,0.266,0.023,0.537,0.035,0.812c0.004,0.083,0.007,0.166,0.011,0.251c0.016,0.336,0.032,0.676,0.05,1.022
			c0.002,0.045,0.005,0.089,0.007,0.134c0.015,0.299,0.032,0.602,0.049,0.907c0.007,0.107,0.013,0.214,0.02,0.321
			c0.017,0.29,0.035,0.581,0.054,0.874c0.005,0.068,0.009,0.135,0.013,0.203c0.023,0.354,0.049,0.71,0.075,1.065
			c0.007,0.097,0.015,0.193,0.022,0.29c0.021,0.273,0.043,0.545,0.065,0.818c0.009,0.109,0.018,0.217,0.027,0.326
			c0.031,0.356,0.062,0.712,0.096,1.065c0.003,0.04,0.007,0.079,0.011,0.118c0.031,0.319,0.063,0.635,0.096,0.949
			c0.012,0.107,0.023,0.213,0.035,0.319c0.03,0.279,0.062,0.556,0.095,0.831c0.01,0.078,0.018,0.158,0.028,0.236
			c0.042,0.341,0.086,0.677,0.131,1.009c0.011,0.081,0.023,0.16,0.034,0.24c0.037,0.262,0.075,0.521,0.115,0.776
			c0.015,0.092,0.029,0.185,0.043,0.276c0.052,0.322,0.105,0.64,0.161,0.947c1.435,7.891,9.326,36.946,11.12,45.554
			c1.793,8.609,10.043,54.163,11.119,59.544c0.074,0.369,0.141,0.757,0.202,1.156c0.005,0.033,0.009,0.067,0.015,0.101
			c0.055,0.373,0.106,0.757,0.151,1.149c0.005,0.042,0.01,0.083,0.015,0.125c0.045,0.397,0.085,0.801,0.121,1.209
			c0.002,0.03,0.005,0.059,0.008,0.089c0.037,0.436,0.069,0.874,0.098,1.314c0,0.007,0,0.013,0.001,0.019
			c0.028,0.435,0.05,0.87,0.07,1.301c0.001,0.036,0.003,0.071,0.004,0.107c0.018,0.408,0.034,0.813,0.045,1.211l0.003,0.107
			c0.012,0.413,0.022,0.819,0.028,1.212c0,0.007,0,0.014,0.001,0.021c0.006,0.412,0.01,0.81,0.012,1.191
			c0.021-0.054,0.034-0.085,0.034-0.085s4.044,21.569,3.37,30.33c-0.674,8.763,4.044,63.358,7.414,80.208
			c3.37,16.851-0.82,85.693-4.19,103.891c-0.182,0.983-0.348,1.989-0.508,3.003c0.28-0.295,0.604-0.571,0.985-0.82
			c15.932-10.4,35.901-11.808,54.417-11.86c9.813-0.028,19.634,0.396,29.443,0.042c11.657-0.421,23.182-1.021,34.833-0.081
			c11.608,0.936,23.265,2.116,34.926,1.772c12.227-0.359,24.442,0.107,36.614,1.309c20.741,2.045,41.271,5.618,61.86,8.78
			c-3.336-20.965-7.648-89.738-4.389-106.036c3.37-16.85,8.089-71.445,7.415-80.208c-0.58-7.537,2.33-24.541,3.154-29.148
			c-0.016-3.093,0.088-7.978,0.773-11.409c1.076-5.381,9.326-50.935,11.12-59.544c1.793-8.608,9.685-37.663,11.119-45.554
			c1.013-5.569,1.311-13.634,1.397-17.901C462.373,91.797,461.884,91.442,461.884,91.442z"></path>

    </g>
    <g id="BODY_LOGO_STRIPS">
		<path clip-path="url(#AADSF_SB_SVGID_10_)" fill="#00AB5D" d="M178.797,633.617c-6.467-14.507-18.44-26.408-31.54-35.384
			c-0.032,0.192-0.064,0.388-0.096,0.581C160,607.727,172.452,619.384,178.797,633.617"/>
		<path clip-path="url(#AADSF_SB_SVGID_10_)" fill="#EE4D9B" d="M156.634,562.982c0.138-0.464,0.181-1.037,0.206-1.666
			c-0.182,0.607-0.349,1.166-0.497,1.666c-2.344,7.909-6.737,20.8-7.031,22.851c-0.026,0.186-0.086,0.564-0.172,1.092
			c0.259-0.517,0.434-0.893,0.463-1.092C149.897,583.782,154.29,570.892,156.634,562.982"/>
		<path clip-path="url(#AADSF_SB_SVGID_10_)" fill="#EE4D9B" d="M460.926,572.582c0.001,0.007,0.003,0.013,0.005,0.019
			c-0.017-0.059-0.035-0.123-0.056-0.194c0.001,0.002,0.002,0.004,0.002,0.006C460.895,572.475,460.91,572.529,460.926,572.582"/>
		<path clip-path="url(#AADSF_SB_SVGID_10_)" fill="#EE4D9B" d="M461.154,573.592c0.007,0.044,0.014,0.092,0.021,0.14
			c0.007,0.043,0.014,0.089,0.021,0.136c-0.035-0.232-0.066-0.431-0.092-0.58c0.005,0.032,0.012,0.07,0.018,0.105
			C461.132,573.454,461.143,573.52,461.154,573.592"/>
		<path clip-path="url(#AADSF_SB_SVGID_10_)" fill="#EE4D9B" d="M461.032,572.943c-0.009-0.027-0.021-0.066-0.036-0.117
			c0,0.001,0.001,0.002,0.001,0.004C461.011,572.879,461.023,572.917,461.032,572.943"/>
		<path clip-path="url(#AADSF_SB_SVGID_10_)" fill="#EE4D9B" d="M460.993,572.814c-0.011-0.036-0.024-0.082-0.038-0.128
			c0.01,0.033,0.02,0.066,0.028,0.096C460.986,572.793,460.989,572.803,460.993,572.814"/>
		<path clip-path="url(#AADSF_SB_SVGID_10_)" fill="#EE4D9B" d="M460.651,571.602c0.001,0.007,0.003,0.013,0.005,0.021
			c-0.025-0.092-0.051-0.187-0.078-0.285c0.003,0.013,0.007,0.026,0.012,0.039C460.609,571.453,460.631,571.529,460.651,571.602"/>
		<path clip-path="url(#AADSF_SB_SVGID_10_)" fill="#EE4D9B" d="M460.741,571.926c-0.018-0.062-0.034-0.124-0.054-0.191
			c0.006,0.02,0.012,0.04,0.017,0.059C460.717,571.839,460.729,571.883,460.741,571.926"/>
		<path clip-path="url(#AADSF_SB_SVGID_10_)" fill="#EE4D9B" d="M460.85,572.315c0.004,0.013,0.008,0.025,0.012,0.039
			c-0.021-0.074-0.044-0.154-0.068-0.24c0.001,0.002,0.002,0.004,0.002,0.006C460.814,572.189,460.832,572.253,460.85,572.315"/>
		<path clip-path="url(#AADSF_SB_SVGID_10_)" fill="#EE4D9B" d="M459.025,565.75c0.021,0.078,0.044,0.155,0.065,0.232
			C459.069,565.905,459.047,565.828,459.025,565.75"/>
		<path clip-path="url(#AADSF_SB_SVGID_10_)" fill="#EE4D9B" d="M461.38,575.157c0.001,0.006,0.001,0.011,0.002,0.017
			c0,0,0,0.001,0.001,0.002c-0.035-0.254-0.067-0.483-0.098-0.699c0.007,0.05,0.014,0.097,0.021,0.148
			C461.329,574.792,461.354,574.969,461.38,575.157"/>
		<path clip-path="url(#AADSF_SB_SVGID_10_)" fill="#EE4D9B" d="M459.4,567.086c0.025,0.09,0.051,0.181,0.076,0.271
			C459.451,567.267,459.426,567.177,459.4,567.086"/>
		<path clip-path="url(#AADSF_SB_SVGID_10_)" fill="#EE4D9B" d="M461.063,573.07c0.004,0.019,0.009,0.046,0.014,0.068
			C461.072,573.116,461.067,573.089,461.063,573.07"/>
		<path clip-path="url(#AADSF_SB_SVGID_10_)" fill="#EE4D9B" d="M461.215,573.987c0.007,0.049,0.014,0.098,0.021,0.148
			C461.229,574.084,461.222,574.036,461.215,573.987"/>
		<path clip-path="url(#AADSF_SB_SVGID_10_)" fill="#EE4D9B" d="M456.9,558.576c-0.027-0.085-0.055-0.17-0.082-0.253
			C456.846,558.406,456.873,558.491,456.9,558.576"/>
		<path clip-path="url(#AADSF_SB_SVGID_10_)" fill="#EE4D9B" d="M457.082,559.148c-0.038-0.122-0.076-0.242-0.114-0.36
			c0.01,0.029,0.019,0.058,0.028,0.088C457.024,558.965,457.053,559.057,457.082,559.148"/>
		<path clip-path="url(#AADSF_SB_SVGID_10_)" fill="#EE4D9B" d="M457.368,560.071c0.029,0.096,0.059,0.191,0.088,0.288
			c0.033,0.109,0.066,0.22,0.101,0.33c-0.128-0.423-0.254-0.833-0.375-1.227c0.028,0.094,0.058,0.188,0.087,0.284
			C457.302,559.854,457.335,559.962,457.368,560.071"/>
		<path clip-path="url(#AADSF_SB_SVGID_10_)" fill="#EE4D9B" d="M459.658,568.01c0.021,0.081,0.045,0.16,0.066,0.24
			c0.035,0.127,0.07,0.253,0.104,0.376c0.028,0.101,0.055,0.198,0.082,0.297c0.023,0.086,0.048,0.173,0.071,0.257
			c0.062,0.222,0.12,0.435,0.178,0.643c0.091,0.328,0.176,0.64,0.256,0.928c0.017,0.061,0.032,0.117,0.048,0.176
			c0.026,0.095,0.052,0.188,0.077,0.277c-0.276-1.002-0.646-2.346-1.062-3.834c0.03,0.106,0.059,0.211,0.088,0.315
			C459.598,567.794,459.628,567.904,459.658,568.01"/>
		<path clip-path="url(#AADSF_SB_SVGID_10_)" fill="#EE4D9B" d="M456.648,557.808L456.648,557.808c-0.032-0.098-0.063-0.19-0.096-0.284
			C456.585,557.617,456.616,557.71,456.648,557.808"/>
		<path clip-path="url(#AADSF_SB_SVGID_10_)" fill="#EE4D9B" d="M458.732,564.715c0.029,0.104,0.059,0.206,0.088,0.309
			c0.031,0.112,0.063,0.225,0.095,0.337l0.041,0.144c-0.134-0.475-0.271-0.953-0.409-1.435l0.077,0.268L458.732,564.715z"/>
		<path clip-path="url(#AADSF_SB_SVGID_10_)" fill="#EE4D9B" d="M459.293,566.7c-0.04-0.142-0.08-0.284-0.12-0.427
			c0.01,0.033,0.02,0.068,0.028,0.103C459.232,566.484,459.263,566.593,459.293,566.7"/>
		<path clip-path="url(#AADSF_SB_SVGID_10_)" fill="#EE4D9B" d="M457.748,561.331c0.033,0.109,0.064,0.218,0.099,0.328
			c0.018,0.063,0.036,0.125,0.055,0.188c-0.115-0.392-0.23-0.776-0.344-1.152c0.032,0.105,0.063,0.21,0.096,0.316
			C457.685,561.116,457.717,561.224,457.748,561.331"/>
		<path clip-path="url(#AADSF_SB_SVGID_10_)" fill="#EE4D9B" d="M458.09,562.487c0.076,0.259,0.151,0.52,0.228,0.781
			c0.037,0.13,0.074,0.259,0.112,0.389c0.032,0.113,0.064,0.228,0.097,0.341c-0.194-0.681-0.392-1.359-0.587-2.022
			c0.035,0.121,0.071,0.241,0.106,0.362L458.09,562.487z"/>
      </g>

         </g>
      
         
                 
         <g id="SHORT_MASK">
              <g id="UPPER_BOTTOM">
        		<path clip-path="url(#AADSF_SB_SVGID_12_)" fill="#EE4D9B" d="M421.831,660.487c0,0-27.533-13.538-41.104-27.042
			c26.4-35.144,51.268-59.164,75.606-76.55c-0.159-0.443-0.304-0.813-0.428-1.091c-1.318-2.93-7.473-21.826-7.765-22.705
			c-0.293-0.879-3.369-10.986-3.516-12.305s-3.955-12.305-4.395-14.063s-0.878-10.84-1.171-12.452
			c-0.294-1.61-1.612-11.864-2.053-14.354c-0.438-2.49-1.903-8.35-2.343-9.229c-0.438-0.88-0.878-3.955-0.878-4.834
			s0.293-2.052,0.146-2.784c-0.146-0.731-0.733-2.051-0.733-2.929c0-0.879,0.879-3.809,0.587-5.273
			c-0.293-1.465-1.466-2.93-1.466-5.714c0-2.783,0.586-5.048,0.586-5.048s-24.634-13.896-143.866-14.742
			c-119.232-0.846-109.916,15.281-109.916,15.281l0.028,0.065c-0.249,0.529-0.48,1.311-0.429,1.532
			c0.086,0.39,0.129,3.592-0.087,4.891c-0.216,1.297-0.52,3.245-0.823,4.024c-0.301,0.778-0.129,5.278-0.129,6.145
			c0,0.865,0.129,3.547,0.172,3.851c0.043,0.303,0.216,3.115-0.258,4.371c-0.476,1.255-0.607,1.514-0.607,1.514l-2.597,10.04
			c0,0-1.168,1.645-1.429,4.024c-0.258,2.38-0.258,4.111-0.258,4.111s-0.692,1.819-0.692,3.116c0,1.299,0.086,2.77,0.086,2.77
			s-0.217,3.159-0.692,5.713c-0.476,2.553-0.78,4.674-0.78,4.674s-1.21,4.195-1.297,5.062c-0.087,0.867-0.391,5.41-0.563,6.665
			c-0.174,1.255-1.556,8.481-2.38,11.856c-0.68,2.796-5.515,18.784-8.489,28.691c23.768,17.285,48.958,41.419,74.694,75.676
			c-13.571,13.504-41.104,27.042-41.104,27.042c24.586,26.652,65.588,40.127,81.161,44.562c3.002-12.417,5.335-34.094,18.09-46.633
			c8.227-8.088,27.905-10.328,37.135-7.471c9.229,2.856,10.547,15.162,12.744,23.95c1.027,4.109,3.64,16.624,6.22,29.235
			c0.146-0.141,0.232-0.283,0.203-0.429C363.893,698.514,398.853,685.396,421.831,660.487"/>

      </g>
              <g id="BOTTOM_STRIPS">
		<path clip-path="url(#AADSF_SB_SVGID_10_)" fill="#EE4D9B" d="M191.491,660.487c0,0,27.533-13.538,41.104-27.042
			c-25.735-34.257-50.926-58.391-74.693-75.676c-0.39,1.3-0.75,2.5-1.062,3.547c-0.025,0.629-0.068,1.202-0.206,1.666
			c-2.344,7.909-6.737,20.8-7.031,22.851c-0.029,0.199-0.204,0.575-0.463,1.091c-0.348,2.146-1.136,6.844-1.979,11.891
			c12.84,8.912,25.291,20.569,31.637,34.803c-13.844,12.343-29.099,19.762-29.099,19.762
			c35.443,43.005,105.94,51.362,122.685,52.766c0.04-0.162,0.081-0.328,0.121-0.486c0.049-0.198,0.098-0.406,0.148-0.609
			C257.079,700.614,216.077,687.14,191.491,660.487"/>
				<path clip-path="url(#AADSF_SB_SVGID_10_)" fill="#EE4D9B" d="M463.622,653.379c0,0-15.254-7.419-29.098-19.762
			c6.1-13.682,17.7-26.494,29.942-35.465c-1.171-7.856-2.459-18.408-3.084-22.977c-0.001-0.001-0.001-0.002-0.001-0.002
			c-0.001-0.006-0.001-0.011-0.002-0.017c-0.026-0.188-0.051-0.365-0.074-0.532c-0.007-0.052-0.014-0.099-0.021-0.148
			c-0.017-0.119-0.033-0.234-0.049-0.341c-0.008-0.051-0.015-0.1-0.021-0.148c-0.007-0.042-0.013-0.08-0.019-0.12
			c-0.007-0.046-0.014-0.092-0.021-0.136c-0.008-0.048-0.015-0.096-0.021-0.14c-0.011-0.072-0.022-0.138-0.032-0.199
			c-0.006-0.035-0.013-0.073-0.018-0.105c-0.011-0.058-0.019-0.104-0.027-0.148c-0.005-0.022-0.01-0.05-0.014-0.068
			c-0.012-0.057-0.022-0.102-0.031-0.127c-0.009-0.026-0.021-0.065-0.035-0.113c0-0.002-0.001-0.003-0.001-0.004
			c-0.001-0.004-0.002-0.009-0.003-0.012c-0.004-0.012-0.007-0.022-0.01-0.032c-0.009-0.029-0.019-0.063-0.028-0.096
			c-0.008-0.027-0.016-0.055-0.024-0.086c-0.002-0.006-0.004-0.012-0.005-0.019c-0.016-0.053-0.031-0.107-0.049-0.17
			c0-0.002-0.001-0.004-0.002-0.006c-0.004-0.017-0.01-0.034-0.014-0.052c-0.004-0.014-0.008-0.026-0.012-0.039
			c-0.018-0.062-0.035-0.126-0.055-0.195c0-0.002-0.001-0.004-0.002-0.006c-0.016-0.06-0.034-0.124-0.052-0.188
			c-0.013-0.043-0.024-0.087-0.037-0.133c-0.005-0.018-0.011-0.039-0.017-0.059c-0.01-0.036-0.021-0.075-0.031-0.113
			c-0.002-0.007-0.004-0.014-0.005-0.02c-0.021-0.072-0.042-0.148-0.063-0.226c-0.004-0.013-0.008-0.026-0.011-0.039
			c-0.013-0.044-0.025-0.089-0.037-0.134c-0.025-0.09-0.051-0.183-0.077-0.277c-0.016-0.059-0.031-0.115-0.048-0.176
			c-0.08-0.288-0.165-0.6-0.256-0.928c-0.058-0.208-0.116-0.421-0.178-0.643c-0.023-0.084-0.049-0.171-0.071-0.257
			c-0.027-0.099-0.054-0.196-0.082-0.297c-0.034-0.123-0.069-0.249-0.104-0.376c-0.021-0.08-0.044-0.159-0.066-0.24
			c-0.03-0.106-0.061-0.216-0.091-0.325c-0.029-0.104-0.058-0.209-0.088-0.315c-0.001-0.004-0.002-0.008-0.003-0.013
			c-0.025-0.09-0.051-0.181-0.076-0.271c-0.035-0.128-0.071-0.257-0.107-0.386c-0.03-0.107-0.061-0.216-0.092-0.324
			c-0.009-0.034-0.019-0.069-0.028-0.103c-0.027-0.098-0.055-0.193-0.082-0.291c-0.021-0.077-0.043-0.154-0.065-0.232
			c-0.022-0.081-0.046-0.164-0.069-0.246l-0.041-0.144c-0.031-0.112-0.063-0.225-0.095-0.337c-0.029-0.103-0.059-0.205-0.088-0.309
			l-0.108-0.378l-0.076-0.267c-0.007-0.023-0.014-0.048-0.021-0.072c-0.033-0.113-0.065-0.228-0.098-0.341
			c-0.037-0.13-0.075-0.259-0.112-0.389c-0.076-0.262-0.151-0.522-0.228-0.781l-0.044-0.149c-0.035-0.122-0.071-0.241-0.106-0.362
			l-0.038-0.129c-0.019-0.063-0.037-0.125-0.055-0.188c-0.033-0.11-0.065-0.219-0.099-0.328c-0.031-0.107-0.063-0.215-0.095-0.32
			c-0.032-0.106-0.063-0.211-0.096-0.316c0-0.002-0.001-0.004-0.001-0.005c-0.034-0.11-0.067-0.221-0.101-0.33
			c-0.029-0.097-0.059-0.192-0.088-0.288c-0.033-0.109-0.066-0.218-0.1-0.324c-0.029-0.096-0.059-0.19-0.088-0.284
			c-0.033-0.106-0.066-0.211-0.099-0.314c-0.029-0.092-0.058-0.184-0.086-0.272c-0.01-0.03-0.019-0.059-0.028-0.088
			c-0.022-0.071-0.045-0.142-0.067-0.212c-0.027-0.085-0.055-0.17-0.082-0.253c-0.058-0.178-0.114-0.35-0.17-0.516
			c-0.032-0.098-0.063-0.19-0.096-0.284c-0.075-0.221-0.148-0.434-0.219-0.628c-24.339,17.386-49.206,41.406-75.607,76.55
			c13.571,13.504,41.104,27.042,41.104,27.042c-22.979,24.909-57.938,38.026-74.787,43.215c0.029,0.146-0.058,0.288-0.203,0.429
			c0.055,0.27,0.11,0.537,0.165,0.806c0.021,0.104,0.043,0.21,0.064,0.315C372.054,702.219,432.386,691.279,463.622,653.379"/>

      </g>
             <g id="LOWER_BOTTOM">
    		<path clip-path="url(#AADSF_SB_SVGID_10_)" fill="#004D86" d="M149.699,653.379c0,0,15.254-7.419,29.098-19.762
			c-6.345-14.233-18.797-25.891-31.636-34.803c-1.238,7.418-2.591,15.586-2.829,17.486c-0.439,3.517-5.422,36.475-5.861,39.698
			s-0.585,19.191-0.146,30.323c0.44,11.133,1.319,27.248,2.198,32.375c0.878,5.125,2.928,20.358,3.221,21.97
			c0.294,1.612,1.467,8.936,1.467,10.108c0,1.172,0.439,5.42,0.439,6.006s-0.293,2.638-0.293,2.638s-0.735,1.609-0.294,2.344
			c0.44,0.732,1.467,1.32,1.467,1.905c0,0.584-0.44,1.758-0.44,1.758v2.488c0,0.588,0.44,8.643,1.024,9.521
			c0.585,0.879,1.026,2.052,2.931,2.491c1.904,0.439,9.962,1.759,16.259,2.196c6.299,0.441,30.91,3.37,52.735,0.88
			c21.825-2.491,38.525-7.616,38.525-7.616s1.014-0.094,1.945-0.205c-0.091-2.292-0.188-4.797-0.188-5.144
			c0-0.66,1.757-3.516,2.198-4.395c0.439-0.879,0-2.197-0.659-3.076c-0.661-0.879-0.22-2.197,0.659-3.297
			c0.88-1.098,0.659-3.076,0.659-3.076l-0.879-1.538c0,0,2.856-9.668,3.075-12.745c0.219-3.035,4.929-23.407,8.01-35.767
			C255.638,704.741,185.141,696.383,149.699,653.379"/>

    	<path clip-path="url(#AADSF_SB_SVGID_10_)" fill="#00AB5D" d="M149.699,653.379c0,0,15.254-7.419,29.098-19.762
			c-6.345-14.233-18.797-25.891-31.636-34.803c-0.038,0.229-0.076,0.455-0.114,0.685c-0.029,0.169-0.057,0.339-0.085,0.509
			c-0.056,0.335-0.112,0.671-0.168,1.008c-0.029,0.174-0.058,0.349-0.087,0.522c-0.02,0.117-0.039,0.233-0.058,0.351
			c-0.05,0.295-0.098,0.59-0.147,0.884c-0.049,0.294-0.097,0.584-0.146,0.874c-0.021,0.133-0.044,0.265-0.065,0.396
			c-0.034,0.202-0.067,0.403-0.1,0.604c-0.051,0.307-0.101,0.611-0.151,0.913c-0.014,0.081-0.027,0.162-0.04,0.242
			c-0.053,0.322-0.106,0.641-0.158,0.956c-0.02,0.122-0.04,0.242-0.06,0.363c-0.053,0.321-0.105,0.642-0.157,0.955
			c-0.001,0.005-0.002,0.011-0.003,0.017c-0.057,0.349-0.113,0.689-0.168,1.026c-0.009,0.059-0.019,0.119-0.029,0.178
			c-0.048,0.295-0.095,0.581-0.141,0.864c-0.017,0.105-0.034,0.21-0.05,0.313c-0.047,0.287-0.093,0.569-0.137,0.842l-0.023,0.146
			c-0.048,0.299-0.095,0.59-0.14,0.869c-0.005,0.029-0.008,0.057-0.013,0.085c-0.093,0.583-0.178,1.12-0.253,1.604
			c-0.004,0.022-0.007,0.046-0.011,0.067c-0.035,0.225-0.067,0.436-0.098,0.636c-0.005,0.034-0.01,0.068-0.015,0.102
			c-0.03,0.193-0.056,0.373-0.081,0.54c-0.004,0.025-0.007,0.05-0.011,0.076c-0.024,0.163-0.046,0.314-0.065,0.449
			c-0.002,0.017-0.004,0.032-0.006,0.049c-0.019,0.137-0.036,0.26-0.049,0.361c-0.439,3.517-5.422,36.475-5.861,39.698
			s-0.585,19.191-0.146,30.323c0.44,11.133,1.319,27.248,2.198,32.375c0.878,5.125,2.928,20.358,3.221,21.97
			c0.294,1.612,1.467,8.936,1.467,10.108c0,1.172,0.439,5.42,0.439,6.006s-0.293,2.638-0.293,2.638s-0.735,1.609-0.294,2.344
			c0.44,0.732,1.467,1.32,1.467,1.905c0,0.584-0.44,1.758-0.44,1.758v2.488c0,0.588,0.44,8.643,1.024,9.521
			c0.585,0.879,1.026,2.052,2.931,2.491c1.904,0.439,9.962,1.759,16.259,2.196c6.299,0.441,30.91,3.37,52.735,0.88
			c21.825-2.491,38.525-7.616,38.525-7.616s1.014-0.094,1.945-0.205c-0.091-2.292-0.188-4.797-0.188-5.144
			c0-0.66,1.757-3.516,2.198-4.395c0.439-0.879,0-2.197-0.659-3.076c-0.661-0.879-0.22-2.197,0.659-3.297
			c0.88-1.098,0.659-3.076,0.659-3.076l-0.879-1.538c0,0,2.856-9.668,3.075-12.745c0.007-0.094,0.019-0.208,0.034-0.337
			c0.006-0.049,0.016-0.112,0.023-0.167c0.012-0.087,0.022-0.169,0.037-0.269c0.011-0.074,0.025-0.162,0.038-0.242
			c0.015-0.095,0.028-0.183,0.045-0.286c0.015-0.09,0.034-0.194,0.05-0.291c0.019-0.108,0.036-0.212,0.057-0.328
			c0.017-0.094,0.037-0.2,0.056-0.299c0.024-0.134,0.047-0.264,0.074-0.405c0.019-0.104,0.041-0.217,0.062-0.324
			c0.029-0.15,0.057-0.297,0.088-0.456c0.023-0.12,0.05-0.25,0.074-0.375c0.032-0.159,0.062-0.314,0.096-0.481
			c0.027-0.136,0.057-0.281,0.086-0.423c0.033-0.165,0.067-0.327,0.102-0.499c0.031-0.154,0.066-0.317,0.099-0.477
			c0.035-0.17,0.07-0.337,0.106-0.512c0.037-0.173,0.075-0.355,0.113-0.533c0.036-0.171,0.071-0.339,0.109-0.515
			c0.038-0.177,0.078-0.361,0.117-0.542c0.041-0.191,0.081-0.379,0.123-0.574c0.038-0.178,0.078-0.361,0.118-0.543
			c0.044-0.202,0.087-0.401,0.132-0.607c0.046-0.211,0.094-0.428,0.141-0.643c0.04-0.18,0.078-0.357,0.119-0.539
			c0.055-0.25,0.112-0.506,0.169-0.762c0.036-0.159,0.07-0.315,0.106-0.477c0.056-0.251,0.113-0.506,0.17-0.761
			c0.039-0.175,0.078-0.347,0.117-0.523c0.061-0.269,0.123-0.542,0.185-0.815c0.036-0.16,0.072-0.318,0.108-0.479
			c0.065-0.287,0.131-0.577,0.198-0.868c0.035-0.154,0.069-0.308,0.105-0.463c0.076-0.335,0.154-0.674,0.232-1.013
			c0.023-0.102,0.046-0.202,0.069-0.304c0.087-0.377,0.175-0.757,0.263-1.138c0.016-0.073,0.033-0.146,0.05-0.219
			c0.092-0.399,0.185-0.8,0.279-1.202c0.013-0.058,0.027-0.115,0.04-0.173c0.093-0.403,0.188-0.808,0.282-1.212
			c0.015-0.061,0.029-0.124,0.044-0.186c0.095-0.406,0.19-0.813,0.286-1.219l0.041-0.176c0.1-0.427,0.201-0.853,0.301-1.279
			l0.022-0.094c0.104-0.438,0.208-0.875,0.311-1.312l0.018-0.073c0.105-0.445,0.211-0.888,0.316-1.329
			c0.004-0.014,0.007-0.028,0.011-0.042c0.215-0.904,0.43-1.799,0.643-2.679c0.003-0.011,0.005-0.021,0.007-0.03
			c0.214-0.887,0.425-1.755,0.632-2.604l0.002-0.006c0.101-0.413,0.2-0.82,0.3-1.223c0.004-0.019,0.009-0.039,0.014-0.059
			c0.098-0.398,0.195-0.79,0.29-1.177c0.003-0.013,0.007-0.026,0.01-0.04c0.098-0.396,0.194-0.784,0.29-1.166
			C255.638,704.741,185.141,696.383,149.699,653.379"/>
    		<path clip-path="url(#AADSF_SB_SVGID_10_)" fill="#00AB5D" d="M475.096,671.968c-0.147-9.229-1.758-29.299-3.076-35.598
			c-1.32-6.298-5.273-24.46-6.885-33.983c-0.053-0.309-0.105-0.628-0.158-0.956c-0.013-0.072-0.024-0.149-0.036-0.224
			c-0.044-0.269-0.087-0.54-0.131-0.819c-0.006-0.035-0.012-0.071-0.017-0.106c-0.051-0.324-0.103-0.655-0.154-0.993
			c-0.001-0.007-0.002-0.015-0.003-0.021c-0.056-0.363-0.112-0.734-0.168-1.111c0,0,0-0.002-0.001-0.003
			c-12.242,8.971-23.843,21.783-29.942,35.465c13.843,12.343,29.098,19.762,29.098,19.762
			c-31.236,37.901-91.568,48.84-116.552,51.873c0.006,0.028,0.012,0.056,0.017,0.083c0.064,0.313,0.128,0.627,0.192,0.94
			c0.024,0.121,0.05,0.243,0.074,0.364c0.045,0.218,0.089,0.436,0.134,0.653c0.045,0.224,0.091,0.447,0.137,0.671
			c0.065,0.322,0.131,0.643,0.196,0.964c0.018,0.086,0.035,0.173,0.053,0.259c0.048,0.233,0.095,0.467,0.143,0.7
			c0.073,0.36,0.146,0.72,0.219,1.078c0.314,1.545,0.623,3.067,0.923,4.552c0.022,0.104,0.042,0.206,0.064,0.31
			c0.054,0.27,0.109,0.54,0.163,0.807c0.022,0.115,0.047,0.231,0.069,0.345c0.225,1.106,0.443,2.188,0.655,3.237
			c0.025,0.13,0.052,0.257,0.077,0.385c0.125,0.619,0.248,1.227,0.367,1.82c0.05,0.242,0.098,0.481,0.146,0.72
			c0.011,0.054,0.021,0.108,0.032,0.162c0.046,0.229,0.092,0.453,0.137,0.677c0.039,0.198,0.079,0.394,0.118,0.588
			c0.016,0.077,0.031,0.154,0.046,0.23c0.055,0.268,0.108,0.531,0.16,0.792c0.018,0.084,0.034,0.168,0.051,0.251
			c0.438,2.179,0.821,4.086,1.131,5.628c0.016,0.08,0.032,0.16,0.048,0.238c0.027,0.136,0.053,0.265,0.079,0.394
			c0.051,0.254,0.1,0.498,0.146,0.729c0.025,0.126,0.05,0.248,0.073,0.367c0.037,0.182,0.071,0.354,0.104,0.518
			c0.028,0.145,0.057,0.282,0.082,0.412c0.106,0.531,0.188,0.939,0.239,1.195c0.701,3.507,3.098,25.621,4.038,34.416
			c1.118,0.013,2.335-0.063,2.335-0.063s12.89,4.245,26.073,6.149c13.185,1.907,39.992,3.517,55.226,1.759
			c15.234-1.759,20.947-3.223,22.267-3.661c1.317-0.439,2.196-1.173,2.636-2.198c0.438-1.024,0.438-3.075,0.438-3.075
			s2.199-13.478,2.346-14.941c0.146-1.465,1.611-13.185,1.611-13.623c0-0.44,0.584-4.835,0.731-5.859
			c0.146-1.024,2.197-19.19,2.197-20.654S475.242,681.195,475.096,671.968"/>

    		<path clip-path="url(#AADSF_SB_SVGID_10_)" fill="#004D86" d="M475.096,671.968c-0.147-9.229-1.758-29.299-3.076-35.598
			c-1.32-6.298-5.273-24.46-6.885-33.983c-0.214-1.265-0.438-2.699-0.668-4.234c-12.242,8.971-23.843,21.783-29.942,35.465
			c13.843,12.343,29.098,19.762,29.098,19.762c-31.236,37.901-91.568,48.84-116.552,51.873c-0.021-0.105-0.043-0.211-0.064-0.315
			c2.882,14.095,5.681,28.088,6.14,30.384c0.701,3.507,3.098,25.621,4.038,34.416c1.118,0.013,2.335-0.063,2.335-0.063
			s12.89,4.245,26.073,6.149c13.185,1.907,39.992,3.517,55.226,1.759c15.234-1.759,20.947-3.223,22.267-3.661
			c1.317-0.439,2.196-1.173,2.636-2.198c0.438-1.024,0.438-3.075,0.438-3.075s2.199-13.478,2.346-14.941
			c0.146-1.465,1.611-13.185,1.611-13.623c0-0.44,0.584-4.835,0.731-5.859c0.146-1.024,2.197-19.19,2.197-20.654
			S475.242,681.195,475.096,671.968"/>
  </g>

         </g>
         <g id="CUSTOM"></g>
      <g id="SLEEVES">
        	<path clip-path="url(#AADSF_SB_SVGID_4_)" fill="#004D86" d="M173.359,224.465v-0.021c-0.006-0.393-0.016-0.799-0.028-1.212l-0.003-0.107
			c-0.011-0.398-0.027-0.803-0.045-1.211c-0.001-0.036-0.003-0.072-0.004-0.107c-0.02-0.431-0.043-0.866-0.07-1.301
			c-0.001-0.006-0.001-0.012-0.001-0.019c-0.029-0.439-0.061-0.878-0.099-1.314c-0.002-0.03-0.005-0.059-0.007-0.089
			c-0.036-0.408-0.076-0.812-0.121-1.208c-0.005-0.043-0.01-0.084-0.015-0.126c-0.045-0.392-0.096-0.776-0.151-1.149
			c-0.006-0.033-0.01-0.068-0.016-0.101c-0.06-0.399-0.127-0.786-0.201-1.156c-1.076-5.38-9.326-50.935-11.119-59.544
			c-1.794-8.608-9.685-37.663-11.12-45.554c-0.056-0.307-0.109-0.625-0.161-0.947c-0.014-0.091-0.028-0.184-0.043-0.276
			c-0.039-0.255-0.078-0.514-0.115-0.776c-0.011-0.08-0.023-0.159-0.034-0.24c-0.045-0.332-0.089-0.668-0.131-1.009
			c-0.01-0.078-0.018-0.158-0.028-0.236c-0.033-0.275-0.065-0.552-0.095-0.831c-0.012-0.106-0.023-0.212-0.035-0.318
			c-0.033-0.315-0.065-0.631-0.096-0.95c-0.004-0.039-0.008-0.078-0.012-0.118c-0.033-0.354-0.064-0.709-0.095-1.065
			c-0.009-0.109-0.018-0.217-0.027-0.325c-0.023-0.273-0.044-0.546-0.065-0.819c-0.007-0.097-0.015-0.193-0.022-0.289
			c-0.026-0.357-0.052-0.712-0.075-1.066c-0.005-0.068-0.008-0.135-0.013-0.203c-0.019-0.293-0.037-0.584-0.055-0.874
			c-0.006-0.107-0.012-0.214-0.019-0.321c-0.017-0.305-0.034-0.608-0.049-0.907c-0.002-0.044-0.005-0.089-0.007-0.133
			c-0.018-0.347-0.034-0.687-0.05-1.023c-0.004-0.085-0.007-0.168-0.011-0.251c-0.012-0.275-0.024-0.546-0.034-0.812
			c-0.003-0.066-0.006-0.131-0.009-0.196c-0.012-0.331-0.025-0.655-0.036-0.97c0-0.018-0.001-0.035-0.001-0.053
			c-0.011-0.301-0.02-0.593-0.029-0.877c-0.001-0.05-0.003-0.1-0.004-0.149c-0.018-0.609-0.032-1.177-0.043-1.693
			c0-0.001,0-0.003-0.001-0.005c-2.381,1.643-7.023,4.699-9.933,5.668c-4.044,1.348-26.961,18.873-33.701,42.463
			c-6.74,23.591-8.088,81.556-8.088,81.556l-2.022,10.11l-2.022,6.067c0,0,23.591,6.066,43.811,7.414
			c20.221,1.348,33.027,1.348,33.027,1.348s1.347-1.348,0.674-5.392c-0.674-4.045-1.349-5.393-0.674-7.415
			c0.63-1.89,3.026-7.901,3.336-8.677C173.37,225.276,173.366,224.877,173.359,224.465"/>
		<path clip-path="url(#AADSF_SB_SVGID_4_)" fill="#004D86" d="M517.153,232.311l-2.022-10.11c0,0-1.348-57.965-8.088-81.556
			c-6.74-23.59-29.657-41.115-33.701-42.463c-3.01-1.003-7.882-4.244-10.18-5.837c-0.087,4.268-0.385,12.332-1.397,17.901
			c-1.435,7.891-9.326,36.946-11.119,45.554c-1.794,8.609-10.044,54.163-11.12,59.544c-0.686,3.43-0.789,8.316-0.773,11.408
			c0.135-0.748,0.216-1.181,0.216-1.181s2.695,6.74,3.369,8.762c0.675,2.022,0,3.37-0.674,7.415
			c-0.674,4.043,0.674,5.392,0.674,5.392s12.807,0,33.027-1.349c20.221-1.348,43.81-7.414,43.81-7.414L517.153,232.311z"/>
      </g>
   
          

   
      
	</g>

	<g clip-path="url(#AADSF_SB_SVGID_2_)">
		<defs>
			<rect id="AADSF_SB_SVGID_11_" width="612" height="792"/>
		</defs>
		<clipPath id="AADSF_SB_SVGID_12_">
			<use xlink:href="#AADSF_SB_SVGID_11_"  overflow="visible"/>
		</clipPath>
	</g>
	<g clip-path="url(#AADSF_SB_SVGID_2_)">
		<defs>
			<rect id="AADSF_SB_SVGID_13_" width="612" height="792"/>
		</defs>
		<clipPath id="AADSF_SB_SVGID_14_">
			<use xlink:href="#AADSF_SB_SVGID_13_"  overflow="visible"/>
		</clipPath>
		<path clip-path="url(#AADSF_SB_SVGID_14_)" fill="#00AB5D" d="M265.614,735.207c-0.038,0.178-0.076,0.359-0.113,0.533
			C265.538,735.566,265.576,735.385,265.614,735.207"/>
		<path clip-path="url(#AADSF_SB_SVGID_14_)" fill="#00AB5D" d="M265.395,736.252c-0.033,0.159-0.067,0.322-0.099,0.477
			C265.328,736.574,265.362,736.411,265.395,736.252"/>
		<path clip-path="url(#AADSF_SB_SVGID_14_)" fill="#00AB5D" d="M265.84,734.149c-0.039,0.182-0.079,0.366-0.117,0.543
			C265.761,734.516,265.801,734.331,265.84,734.149"/>
		<path clip-path="url(#AADSF_SB_SVGID_14_)" fill="#00AB5D" d="M266.081,733.033c-0.04,0.182-0.08,0.365-0.118,0.543
			C266.001,733.398,266.041,733.215,266.081,733.033"/>
		<path clip-path="url(#AADSF_SB_SVGID_14_)" fill="#00AB5D" d="M266.354,731.783c-0.047,0.215-0.095,0.432-0.141,0.643
			C266.259,732.215,266.308,731.998,266.354,731.783"/>
		<path clip-path="url(#AADSF_SB_SVGID_14_)" fill="#00AB5D" d="M265.194,737.228c-0.028,0.142-0.059,0.287-0.086,0.423
			C265.135,737.515,265.166,737.369,265.194,737.228"/>
		<path clip-path="url(#AADSF_SB_SVGID_14_)" fill="#00AB5D" d="M264.602,740.319c-0.017,0.097-0.035,0.201-0.05,0.291
			C264.566,740.521,264.584,740.416,264.602,740.319"/>
		<path clip-path="url(#AADSF_SB_SVGID_14_)" fill="#00AB5D" d="M264.431,741.407c-0.007,0.055-0.017,0.117-0.022,0.167
			C264.414,741.524,264.424,741.462,264.431,741.407"/>
		<path clip-path="url(#AADSF_SB_SVGID_14_)" fill="#00AB5D" d="M264.506,740.896c-0.013,0.08-0.027,0.168-0.038,0.242
			C264.479,741.064,264.494,740.977,264.506,740.896"/>
		<path clip-path="url(#AADSF_SB_SVGID_14_)" fill="#00AB5D" d="M265.012,738.132c-0.024,0.125-0.051,0.255-0.074,0.375
			C264.961,738.387,264.988,738.257,265.012,738.132"/>
		<path clip-path="url(#AADSF_SB_SVGID_14_)" fill="#00AB5D" d="M144.333,616.301c0.013-0.102,0.029-0.225,0.048-0.361
			C144.361,616.076,144.346,616.199,144.333,616.301"/>
		<path clip-path="url(#AADSF_SB_SVGID_14_)" fill="#00AB5D" d="M264.85,738.963c-0.021,0.107-0.042,0.221-0.062,0.324
			C264.808,739.184,264.829,739.07,264.85,738.963"/>
		<path clip-path="url(#AADSF_SB_SVGID_14_)" fill="#00AB5D" d="M264.714,739.691c-0.019,0.1-0.039,0.206-0.055,0.3
			C264.675,739.897,264.695,739.791,264.714,739.691"/>
		<path clip-path="url(#AADSF_SB_SVGID_14_)" fill="#00AB5D" d="M266.918,729.245c-0.057,0.255-0.114,0.51-0.17,0.761
			C266.805,729.755,266.861,729.5,266.918,729.245"/>
		<path clip-path="url(#AADSF_SB_SVGID_14_)" fill="#00AB5D" d="M272.384,706.145L272.384,706.145c-0.095,0.382-0.192,0.771-0.29,1.166
			C272.192,706.915,272.289,706.525,272.384,706.145"/>
		<path clip-path="url(#AADSF_SB_SVGID_14_)" fill="#00AB5D" d="M270.839,712.448c-0.212,0.88-0.427,1.773-0.643,2.679
			C270.412,714.223,270.627,713.327,270.839,712.448"/>
		<path clip-path="url(#AADSF_SB_SVGID_14_)" fill="#00AB5D" d="M271.479,709.814c-0.207,0.849-0.418,1.718-0.632,2.604
			C271.061,711.532,271.271,710.662,271.479,709.814"/>
		<path clip-path="url(#AADSF_SB_SVGID_14_)" fill="#00AB5D" d="M269.852,716.571c-0.104,0.437-0.208,0.873-0.311,1.312
			C269.644,717.445,269.748,717.008,269.852,716.571"/>
		<path clip-path="url(#AADSF_SB_SVGID_14_)" fill="#00AB5D" d="M267.22,727.906c-0.062,0.273-0.124,0.547-0.184,0.815
			C267.096,728.453,267.158,728.18,267.22,727.906"/>
		<path clip-path="url(#AADSF_SB_SVGID_14_)" fill="#00AB5D" d="M144.388,615.891c0.019-0.135,0.041-0.286,0.064-0.45
			C144.429,615.604,144.407,615.756,144.388,615.891"/>
		<path clip-path="url(#AADSF_SB_SVGID_14_)" fill="#00AB5D" d="M271.78,708.586c-0.099,0.402-0.199,0.81-0.3,1.223
			C271.581,709.396,271.681,708.988,271.78,708.586"/>
		<path clip-path="url(#AADSF_SB_SVGID_14_)" fill="#00AB5D" d="M272.084,707.351c-0.095,0.387-0.192,0.778-0.29,1.177
			C271.892,708.129,271.989,707.736,272.084,707.351"/>
		<path clip-path="url(#AADSF_SB_SVGID_14_)" fill="#00AB5D" d="M270.186,715.169c-0.105,0.441-0.211,0.884-0.316,1.329
			C269.975,716.053,270.081,715.61,270.186,715.169"/>
		<path clip-path="url(#AADSF_SB_SVGID_14_)" fill="#00AB5D" d="M267.863,725.083c-0.078,0.34-0.155,0.678-0.232,1.013
			C267.708,725.761,267.785,725.423,267.863,725.083"/>
		<path clip-path="url(#AADSF_SB_SVGID_14_)" fill="#00AB5D" d="M268.195,723.642c-0.088,0.381-0.175,0.761-0.262,1.138
			C268.02,724.402,268.107,724.022,268.195,723.642"/>
		<path clip-path="url(#AADSF_SB_SVGID_14_)" fill="#00AB5D" d="M267.526,726.559c-0.066,0.29-0.132,0.581-0.197,0.868
			C267.394,727.14,267.46,726.849,267.526,726.559"/>
		<path clip-path="url(#AADSF_SB_SVGID_14_)" fill="#00AB5D" d="M269.176,719.432c-0.096,0.407-0.191,0.812-0.286,1.219
			C268.985,720.243,269.08,719.838,269.176,719.432"/>
		<path clip-path="url(#AADSF_SB_SVGID_14_)" fill="#00AB5D" d="M269.519,717.977c-0.101,0.427-0.201,0.854-0.302,1.279
			C269.317,718.83,269.417,718.402,269.519,717.977"/>
		<path clip-path="url(#AADSF_SB_SVGID_14_)" fill="#00AB5D" d="M268.847,720.836c-0.095,0.404-0.189,0.809-0.283,1.212
			C268.658,721.645,268.752,721.24,268.847,720.836"/>
		<path clip-path="url(#AADSF_SB_SVGID_14_)" fill="#00AB5D" d="M268.524,722.221c-0.093,0.402-0.187,0.803-0.279,1.202
			C268.337,723.023,268.431,722.622,268.524,722.221"/>
		<path clip-path="url(#AADSF_SB_SVGID_14_)" fill="#00AB5D" d="M266.642,730.482c-0.057,0.256-0.114,0.511-0.169,0.762
			C266.528,730.993,266.585,730.738,266.642,730.482"/>
		<path clip-path="url(#AADSF_SB_SVGID_14_)" fill="#00AB5D" d="M146.502,602.772c0.049-0.294,0.098-0.589,0.147-0.884
			C146.6,602.184,146.551,602.479,146.502,602.772"/>
		<path clip-path="url(#AADSF_SB_SVGID_14_)" fill="#00AB5D" d="M145.098,611.316c0.044-0.272,0.089-0.555,0.136-0.842
			C145.187,610.763,145.142,611.043,145.098,611.316"/>
		<path clip-path="url(#AADSF_SB_SVGID_14_)" fill="#00AB5D" d="M145.285,610.161c0.046-0.283,0.093-0.569,0.141-0.864
			C145.378,609.591,145.331,609.879,145.285,610.161"/>
		<path clip-path="url(#AADSF_SB_SVGID_14_)" fill="#00AB5D" d="M144.668,614.021c0.075-0.482,0.16-1.021,0.253-1.604
			C144.828,612.999,144.743,613.537,144.668,614.021"/>
		<path clip-path="url(#AADSF_SB_SVGID_14_)" fill="#00AB5D" d="M144.935,612.333c0.044-0.28,0.091-0.571,0.14-0.87
			C145.025,611.762,144.979,612.053,144.935,612.333"/>
		<path clip-path="url(#AADSF_SB_SVGID_14_)" fill="#00AB5D" d="M146.04,605.56c0.05-0.302,0.101-0.606,0.151-0.913
			C146.141,604.953,146.089,605.258,146.04,605.56"/>
		<path clip-path="url(#AADSF_SB_SVGID_14_)" fill="#00AB5D" d="M145.842,606.758c0.052-0.315,0.105-0.634,0.158-0.956
			C145.947,606.123,145.894,606.443,145.842,606.758"/>
		<path clip-path="url(#AADSF_SB_SVGID_14_)" fill="#00AB5D" d="M146.707,601.538c0.029-0.174,0.058-0.349,0.087-0.522
			C146.765,601.189,146.736,601.364,146.707,601.538"/>
		<path clip-path="url(#AADSF_SB_SVGID_14_)" fill="#00AB5D" d="M145.625,608.076c0.051-0.313,0.104-0.634,0.157-0.955
			C145.729,607.443,145.676,607.764,145.625,608.076"/>
		<path clip-path="url(#AADSF_SB_SVGID_14_)" fill="#00AB5D" d="M145.455,609.119c0.055-0.337,0.111-0.678,0.168-1.026
			C145.565,608.441,145.51,608.783,145.455,609.119"/>
		<path clip-path="url(#AADSF_SB_SVGID_14_)" fill="#00AB5D" d="M146.291,604.043c0.022-0.132,0.043-0.264,0.065-0.396
			C146.334,603.779,146.313,603.911,146.291,604.043"/>
		<path clip-path="url(#AADSF_SB_SVGID_14_)" fill="#00AB5D" d="M144.56,614.724c0.031-0.2,0.063-0.411,0.098-0.636
			C144.623,614.313,144.591,614.523,144.56,614.724"/>
		<path clip-path="url(#AADSF_SB_SVGID_14_)" fill="#00AB5D" d="M146.962,600.008c0.028-0.17,0.057-0.34,0.085-0.509
			C147.019,599.668,146.99,599.838,146.962,600.008"/>
		<path clip-path="url(#AADSF_SB_SVGID_14_)" fill="#00AB5D" d="M144.463,615.365c0.024-0.167,0.051-0.347,0.081-0.54
			C144.514,615.019,144.487,615.198,144.463,615.365"/>
		<path clip-path="url(#AADSF_SB_SVGID_14_)" fill="#BF2A43" d="M350.109,720.215c-0.212-1.049-0.431-2.131-0.655-3.237
			C349.679,718.084,349.897,719.166,350.109,720.215"/>
		<path clip-path="url(#AADSF_SB_SVGID_14_)" fill="#BF2A43" d="M347.82,708.928c-0.065-0.321-0.131-0.642-0.196-0.964
			C347.689,708.286,347.755,708.607,347.82,708.928"/>
		<path clip-path="url(#AADSF_SB_SVGID_14_)" fill="#BF2A43" d="M347.487,707.293c-0.045-0.218-0.089-0.436-0.134-0.653
			C347.398,706.857,347.442,707.075,347.487,707.293"/>
		<path clip-path="url(#AADSF_SB_SVGID_14_)" fill="#BF2A43" d="M348.016,709.887c-0.048-0.233-0.095-0.466-0.143-0.7
			C347.921,709.421,347.968,709.653,348.016,709.887"/>
		<path clip-path="url(#AADSF_SB_SVGID_14_)" fill="#BF2A43" d="M349.385,716.633c-0.054-0.267-0.108-0.537-0.163-0.807
			C349.276,716.096,349.331,716.365,349.385,716.633"/>
		<path clip-path="url(#AADSF_SB_SVGID_14_)" fill="#BF2A43" d="M352.501,732.1c-0.026-0.129-0.052-0.258-0.079-0.394
			C352.449,731.841,352.475,731.971,352.501,732.1"/>
		<path clip-path="url(#AADSF_SB_SVGID_14_)" fill="#BF2A43" d="M351.192,725.589c-0.052-0.261-0.104-0.524-0.159-0.792
			C351.088,725.064,351.141,725.328,351.192,725.589"/>
		<path clip-path="url(#AADSF_SB_SVGID_14_)" fill="#BF2A43" d="M349.158,715.517c-0.301-1.484-0.609-3.007-0.924-4.552
			C348.549,712.509,348.858,714.032,349.158,715.517"/>
		<path clip-path="url(#AADSF_SB_SVGID_14_)" fill="#BF2A43" d="M350.731,723.302c-0.011-0.054-0.021-0.108-0.032-0.162
			C350.71,723.193,350.721,723.248,350.731,723.302"/>
		<path clip-path="url(#AADSF_SB_SVGID_14_)" fill="#BF2A43" d="M352.374,731.468c-0.31-1.541-0.692-3.449-1.131-5.628
			C351.682,728.019,352.064,729.926,352.374,731.468"/>
		<path clip-path="url(#AADSF_SB_SVGID_14_)" fill="#BF2A43" d="M352.72,733.195c-0.023-0.119-0.048-0.241-0.073-0.368
			C352.672,732.955,352.696,733.075,352.72,733.195"/>
		<path clip-path="url(#AADSF_SB_SVGID_14_)" fill="#BF2A43" d="M350.554,722.419c-0.119-0.593-0.242-1.2-0.367-1.819
			C350.312,721.218,350.435,721.826,350.554,722.419"/>
		<path clip-path="url(#AADSF_SB_SVGID_14_)" fill="#BF2A43" d="M464.81,600.388c0.044,0.279,0.087,0.551,0.131,0.819
			C464.896,600.938,464.854,600.667,464.81,600.388"/>
		<path clip-path="url(#AADSF_SB_SVGID_14_)" fill="#BF2A43" d="M464.977,601.431c0.053,0.328,0.105,0.647,0.158,0.956
			C465.082,602.078,465.029,601.759,464.977,601.431"/>
		<path clip-path="url(#AADSF_SB_SVGID_14_)" fill="#BF2A43" d="M352.906,734.125c-0.026-0.13-0.054-0.268-0.082-0.412
			C352.853,733.857,352.88,733.995,352.906,734.125"/>
		<path clip-path="url(#AADSF_SB_SVGID_14_)" fill="#BF2A43" d="M464.468,598.155c0.056,0.377,0.112,0.748,0.168,1.111
			C464.58,598.903,464.523,598.532,464.468,598.155"/>
		<path clip-path="url(#AADSF_SB_SVGID_14_)" fill="#BF2A43" d="M347.279,706.275c-0.064-0.313-0.128-0.626-0.192-0.94
			C347.151,705.649,347.215,705.963,347.279,706.275"/>
		<path clip-path="url(#AADSF_SB_SVGID_14_)" fill="#BF2A43" d="M350.986,724.566c-0.039-0.194-0.078-0.39-0.118-0.588
			C350.908,724.176,350.947,724.373,350.986,724.566"/>
		<path clip-path="url(#AADSF_SB_SVGID_14_)" fill="#BF2A43" d="M464.639,599.288c0.052,0.338,0.104,0.669,0.154,0.993
			C464.742,599.956,464.69,599.626,464.639,599.288"/>
		<path clip-path="url(#AADSF_SB_SVGID_14_)" fill="#BF2A43" d="M459.108,566.045c0.031,0.11,0.062,0.221,0.093,0.331
			C459.17,566.266,459.14,566.155,459.108,566.045"/>
		<path clip-path="url(#AADSF_SB_SVGID_14_)" fill="#BF2A43" d="M459.297,566.716c0.032,0.113,0.063,0.226,0.095,0.338
			C459.36,566.941,459.329,566.829,459.297,566.716"/>
		<path clip-path="url(#AADSF_SB_SVGID_14_)" fill="#BF2A43" d="M458.317,563.269c0.037,0.13,0.074,0.259,0.112,0.389
			C458.392,563.527,458.354,563.398,458.317,563.269"/>
		<path clip-path="url(#AADSF_SB_SVGID_14_)" fill="#BF2A43" d="M458.915,565.36c0.034,0.12,0.068,0.241,0.103,0.361
			C458.983,565.602,458.949,565.481,458.915,565.36"/>
		<path clip-path="url(#AADSF_SB_SVGID_14_)" fill="#BF2A43" d="M458.732,564.715c0.029,0.104,0.059,0.206,0.088,0.309
			C458.791,564.921,458.762,564.818,458.732,564.715"/>
		<path clip-path="url(#AADSF_SB_SVGID_14_)" fill="#BF2A43" d="M458.53,564.01c0.031,0.108,0.062,0.218,0.094,0.327
			C458.592,564.228,458.562,564.119,458.53,564.01"/>
		<path clip-path="url(#AADSF_SB_SVGID_14_)" fill="#BF2A43" d="M459.477,567.357c0.03,0.11,0.061,0.219,0.091,0.327
			C459.537,567.576,459.507,567.468,459.477,567.357"/>
		<path clip-path="url(#AADSF_SB_SVGID_14_)" fill="#BF2A43" d="M460.543,571.211c0.016,0.057,0.03,0.11,0.046,0.165
			C460.573,571.321,460.559,571.268,460.543,571.211"/>
		<path clip-path="url(#AADSF_SB_SVGID_14_)" fill="#BF2A43" d="M460.416,570.75c0.017,0.061,0.032,0.117,0.048,0.176
			C460.448,570.867,460.433,570.811,460.416,570.75"/>
		<path clip-path="url(#AADSF_SB_SVGID_14_)" fill="#BF2A43" d="M459.982,569.18c0.062,0.222,0.12,0.435,0.178,0.643
			C460.103,569.614,460.044,569.401,459.982,569.18"/>
		<path clip-path="url(#AADSF_SB_SVGID_14_)" fill="#BF2A43" d="M459.658,568.01c0.021,0.081,0.045,0.16,0.066,0.241
			C459.703,568.17,459.68,568.091,459.658,568.01"/>
		<path clip-path="url(#AADSF_SB_SVGID_14_)" fill="#BF2A43" d="M456.728,558.047c0.03,0.091,0.061,0.182,0.091,0.276
			C456.788,558.229,456.758,558.138,456.728,558.047"/>
		<path clip-path="url(#AADSF_SB_SVGID_14_)" fill="#BF2A43" d="M456.553,557.523c0.032,0.094,0.063,0.187,0.096,0.284
			C456.615,557.71,456.585,557.617,456.553,557.523"/>
		<path clip-path="url(#AADSF_SB_SVGID_14_)" fill="#BF2A43" d="M456.904,558.588c0.03,0.095,0.061,0.19,0.092,0.288
			C456.965,558.778,456.935,558.684,456.904,558.588"/>
		<path clip-path="url(#AADSF_SB_SVGID_14_)" fill="#BF2A43" d="M460.651,571.602c0.018,0.065,0.035,0.13,0.053,0.191
			C460.687,571.731,460.669,571.668,460.651,571.602"/>
		<path clip-path="url(#AADSF_SB_SVGID_14_)" fill="#BF2A43" d="M346.956,704.693c-0.037-0.18-0.073-0.358-0.11-0.538
			C346.883,704.335,346.919,704.514,346.956,704.693"/>
		<path clip-path="url(#AADSF_SB_SVGID_14_)" fill="#BF2A43" d="M456.336,556.9c0.049,0.136,0.099,0.277,0.149,0.425
			C456.435,557.178,456.385,557.036,456.336,556.9"/>
		<path clip-path="url(#AADSF_SB_SVGID_14_)" fill="#BF2A43" d="M457.456,560.359c0.034,0.11,0.067,0.223,0.102,0.335
			C457.523,560.582,457.49,560.47,457.456,560.359"/>
		<path clip-path="url(#AADSF_SB_SVGID_14_)" fill="#BF2A43" d="M457.653,561.011c0.031,0.104,0.063,0.213,0.095,0.32
			C457.716,561.224,457.685,561.115,457.653,561.011"/>
		<path clip-path="url(#AADSF_SB_SVGID_14_)" fill="#BF2A43" d="M457.847,561.659c0.03,0.104,0.062,0.21,0.092,0.314
			C457.908,561.869,457.877,561.764,457.847,561.659"/>
		<path clip-path="url(#AADSF_SB_SVGID_14_)" fill="#BF2A43" d="M457.269,559.747c0.033,0.106,0.066,0.215,0.1,0.324
			C457.335,559.962,457.302,559.854,457.269,559.747"/>
		<path clip-path="url(#AADSF_SB_SVGID_14_)" fill="#BF2A43" d="M457.083,559.152c0.032,0.102,0.064,0.203,0.097,0.307
			C457.147,559.355,457.115,559.254,457.083,559.152"/>
		<path clip-path="url(#AADSF_SB_SVGID_14_)" fill="#BF2A43" d="M458.046,562.338l0.044,0.149L458.046,562.338z"/>
		<path clip-path="url(#AADSF_SB_SVGID_14_)" fill="#BF2A43" d="M459.829,568.626c0.028,0.101,0.055,0.198,0.082,0.297
			C459.884,568.824,459.857,568.728,459.829,568.626"/>
		<path clip-path="url(#AADSF_SB_SVGID_14_)" fill="#BF2A43" d="M461.237,574.146c0.016,0.104,0.031,0.215,0.048,0.33
			C461.269,574.36,461.253,574.249,461.237,574.146"/>
		<path clip-path="url(#AADSF_SB_SVGID_14_)" fill="#BF2A43" d="M461.032,572.943c0.009,0.025,0.02,0.07,0.031,0.126
			C461.052,573.014,461.041,572.969,461.032,572.943"/>
		<path clip-path="url(#AADSF_SB_SVGID_14_)" fill="#BF2A43" d="M460.983,572.782c0.005,0.015,0.01,0.034,0.014,0.048
			C460.993,572.816,460.988,572.797,460.983,572.782"/>
		<path clip-path="url(#AADSF_SB_SVGID_14_)" fill="#BF2A43" d="M461.306,574.625c0.023,0.167,0.048,0.344,0.074,0.532
			C461.354,574.969,461.329,574.792,461.306,574.625"/>
		<path clip-path="url(#AADSF_SB_SVGID_14_)" fill="#BF2A43" d="M460.926,572.582c0.006,0.021,0.013,0.048,0.019,0.068
			C460.938,572.63,460.932,572.604,460.926,572.582"/>
		<path clip-path="url(#AADSF_SB_SVGID_14_)" fill="#BF2A43" d="M461.077,573.14c0.008,0.044,0.017,0.09,0.027,0.146
			C461.095,573.23,461.085,573.184,461.077,573.14"/>
		<path clip-path="url(#AADSF_SB_SVGID_14_)" fill="#BF2A43" d="M461.122,573.393c0.01,0.063,0.021,0.127,0.032,0.199
			C461.144,573.52,461.132,573.455,461.122,573.393"/>
		<path clip-path="url(#AADSF_SB_SVGID_14_)" fill="#BF2A43" d="M461.176,573.731c0.012,0.078,0.024,0.161,0.037,0.249
			C461.2,573.893,461.188,573.81,461.176,573.731"/>
		<path clip-path="url(#AADSF_SB_SVGID_14_)" fill="#BF2A43" d="M461.382,575.174c0.524,3.831,1.516,11.872,2.514,19.004
			C462.897,587.045,461.906,579.004,461.382,575.174"/>
		<path clip-path="url(#AADSF_SB_SVGID_14_)" fill="#BF2A43" d="M463.896,594.178c0.066,0.478,0.133,0.949,0.2,1.418
			C464.028,595.127,463.962,594.655,463.896,594.178"/>
		<path clip-path="url(#AADSF_SB_SVGID_14_)" fill="#BF2A43" d="M464.096,595.596c0.124,0.868,0.247,1.723,0.369,2.543
			C464.343,597.318,464.22,596.464,464.096,595.596"/>
		<path clip-path="url(#AADSF_SB_SVGID_14_)" fill="#BF2A43" d="M460.756,571.979c0.014,0.048,0.026,0.096,0.039,0.141
			C460.782,572.075,460.77,572.028,460.756,571.979"/>
		<path clip-path="url(#AADSF_SB_SVGID_14_)" fill="#BF2A43" d="M460.85,572.315c0.01,0.032,0.019,0.066,0.027,0.097
			C460.868,572.382,460.859,572.348,460.85,572.315"/>
		<path clip-path="url(#AADSF_SB_SVGID_14_)" fill="#BF2A43" d="M148.43,591.218c0.02-0.121,0.041-0.243,0.061-0.361
			C148.471,590.975,148.45,591.097,148.43,591.218"/>
		<path clip-path="url(#AADSF_SB_SVGID_14_)" fill="#BF2A43" d="M148.25,592.295c0.028-0.171,0.057-0.341,0.084-0.508
			C148.307,591.955,148.279,592.122,148.25,592.295"/>
		<path clip-path="url(#AADSF_SB_SVGID_14_)" fill="#BF2A43" d="M148.622,590.065c0.011-0.068,0.022-0.133,0.033-0.2
			C148.644,589.933,148.633,589.997,148.622,590.065"/>
		<path clip-path="url(#AADSF_SB_SVGID_14_)" fill="#BF2A43" d="M272.384,706.145c0.04-0.162,0.082-0.328,0.121-0.486
			C272.466,705.816,272.424,705.982,272.384,706.145"/>
		<path clip-path="url(#AADSF_SB_SVGID_14_)" fill="#BF2A43" d="M148.75,589.294c0.019-0.112,0.037-0.224,0.055-0.331
			C148.787,589.07,148.769,589.182,148.75,589.294"/>
		<path clip-path="url(#AADSF_SB_SVGID_14_)" fill="#BF2A43" d="M148.107,593.152c0.041-0.243,0.08-0.477,0.119-0.712
			C148.187,592.674,148.147,592.911,148.107,593.152"/>
		<path clip-path="url(#AADSF_SB_SVGID_14_)" fill="#BF2A43" d="M147.383,597.485c0.029-0.174,0.058-0.347,0.087-0.52
			C147.441,597.139,147.412,597.312,147.383,597.485"/>
		<path clip-path="url(#AADSF_SB_SVGID_14_)" fill="#BF2A43" d="M147.549,596.488c0.136-0.811,0.268-1.603,0.396-2.365
			C147.817,594.886,147.685,595.677,147.549,596.488"/>
		<path clip-path="url(#AADSF_SB_SVGID_14_)" fill="#BF2A43" d="M148.894,588.425c0.018-0.107,0.035-0.21,0.052-0.312
			C148.929,588.215,148.912,588.317,148.894,588.425"/>
		<path clip-path="url(#AADSF_SB_SVGID_14_)" fill="#BF2A43" d="M149.14,586.925"/>
		<path clip-path="url(#AADSF_SB_SVGID_14_)" fill="#BF2A43" d="M149.14,586.925L149.14,586.925c-0.015,0.09-0.031,0.191-0.047,0.289
			C149.109,587.115,149.125,587.015,149.14,586.925"/>
		<path clip-path="url(#AADSF_SB_SVGID_14_)" fill="#BF2A43" d="M149.004,587.753c0.02-0.118,0.038-0.229,0.056-0.338
			C149.042,587.523,149.024,587.636,149.004,587.753"/>
		<path clip-path="url(#AADSF_SB_SVGID_14_)" fill="#BF2A43" d="M232.595,633.445c-25.965-34.563-50.446-58.369-74.4-75.686
			c-0.019,0.063-0.037,0.121-0.056,0.185C181.837,575.217,206.945,599.303,232.595,633.445"/>
		<path clip-path="url(#AADSF_SB_SVGID_14_)" fill="#BF2A43" d="M149.317,586.564c-0.053,0.11-0.113,0.231-0.177,0.36
			C149.205,586.796,149.264,586.675,149.317,586.564"/>
		<path clip-path="url(#AADSF_SB_SVGID_14_)" fill="#00AB5D" d="M347.82,708.928c-0.065-0.321-0.131-0.642-0.196-0.964
			C347.689,708.286,347.755,708.607,347.82,708.928"/>
		<path clip-path="url(#AADSF_SB_SVGID_14_)" fill="#00AB5D" d="M347.487,707.293c-0.045-0.218-0.089-0.436-0.134-0.653
			C347.398,706.857,347.442,707.075,347.487,707.293"/>
		<path clip-path="url(#AADSF_SB_SVGID_14_)" fill="#00AB5D" d="M348.016,709.887c-0.048-0.233-0.095-0.466-0.143-0.7
			C347.921,709.421,347.968,709.653,348.016,709.887"/>
		<path clip-path="url(#AADSF_SB_SVGID_14_)" fill="#00AB5D" d="M350.109,720.215c-0.212-1.049-0.431-2.131-0.655-3.237
			C349.679,718.084,349.897,719.166,350.109,720.215"/>
		<path clip-path="url(#AADSF_SB_SVGID_14_)" fill="#00AB5D" d="M349.385,716.633c-0.054-0.267-0.108-0.537-0.163-0.807
			C349.276,716.096,349.331,716.365,349.385,716.633"/>
		<path clip-path="url(#AADSF_SB_SVGID_14_)" fill="#00AB5D" d="M350.731,723.302c-0.011-0.054-0.021-0.108-0.032-0.162
			C350.71,723.193,350.721,723.248,350.731,723.302"/>
		<path clip-path="url(#AADSF_SB_SVGID_14_)" fill="#00AB5D" d="M351.192,725.589c-0.052-0.261-0.104-0.524-0.159-0.792
			C351.088,725.064,351.141,725.328,351.192,725.589"/>
		<path clip-path="url(#AADSF_SB_SVGID_14_)" fill="#00AB5D" d="M352.501,732.1c-0.026-0.129-0.052-0.258-0.079-0.394
			C352.449,731.841,352.475,731.971,352.501,732.1"/>
		<path clip-path="url(#AADSF_SB_SVGID_14_)" fill="#00AB5D" d="M349.158,715.517c-0.301-1.484-0.609-3.007-0.924-4.552
			C348.549,712.509,348.858,714.032,349.158,715.517"/>
		<path clip-path="url(#AADSF_SB_SVGID_14_)" fill="#00AB5D" d="M352.374,731.468c-0.31-1.541-0.692-3.449-1.131-5.628
			C351.682,728.019,352.064,729.926,352.374,731.468"/>
		<path clip-path="url(#AADSF_SB_SVGID_14_)" fill="#00AB5D" d="M350.554,722.419c-0.119-0.593-0.242-1.2-0.367-1.819
			C350.312,721.218,350.435,721.826,350.554,722.419"/>
		<path clip-path="url(#AADSF_SB_SVGID_14_)" fill="#00AB5D" d="M464.977,601.431c0.053,0.328,0.105,0.647,0.158,0.956
			C465.082,602.078,465.029,601.759,464.977,601.431"/>
		<path clip-path="url(#AADSF_SB_SVGID_14_)" fill="#00AB5D" d="M464.81,600.388c0.044,0.279,0.087,0.551,0.131,0.819
			C464.896,600.938,464.854,600.667,464.81,600.388"/>
		<path clip-path="url(#AADSF_SB_SVGID_14_)" fill="#00AB5D" d="M347.279,706.275c-0.064-0.313-0.128-0.626-0.192-0.94
			C347.151,705.649,347.215,705.963,347.279,706.275"/>
		<path clip-path="url(#AADSF_SB_SVGID_14_)" fill="#00AB5D" d="M352.906,734.125c-0.026-0.13-0.054-0.268-0.082-0.412
			C352.853,733.857,352.88,733.995,352.906,734.125"/>
		<path clip-path="url(#AADSF_SB_SVGID_14_)" fill="#00AB5D" d="M352.72,733.195c-0.023-0.119-0.048-0.241-0.073-0.368
			C352.672,732.955,352.696,733.075,352.72,733.195"/>
		<path clip-path="url(#AADSF_SB_SVGID_14_)" fill="#00AB5D" d="M350.986,724.566c-0.039-0.194-0.078-0.39-0.118-0.588
			C350.908,724.176,350.947,724.373,350.986,724.566"/>
		<path clip-path="url(#AADSF_SB_SVGID_14_)" fill="#00AB5D" d="M464.468,598.155c0.056,0.377,0.112,0.748,0.168,1.111
			C464.58,598.903,464.523,598.532,464.468,598.155"/>
		<path clip-path="url(#AADSF_SB_SVGID_14_)" fill="#00AB5D" d="M464.639,599.288c0.052,0.338,0.104,0.669,0.154,0.993
			C464.742,599.956,464.69,599.626,464.639,599.288"/>
		<path clip-path="url(#AADSF_SB_SVGID_14_)" fill="#FDBB2D" d="M460.416,570.75c0.017,0.061,0.032,0.117,0.048,0.176
			C460.448,570.867,460.433,570.811,460.416,570.75"/>
		<path clip-path="url(#AADSF_SB_SVGID_14_)" fill="#FDBB2D" d="M460.543,571.211c0.016,0.057,0.03,0.11,0.046,0.165
			C460.573,571.321,460.559,571.268,460.543,571.211"/>
		<path clip-path="url(#AADSF_SB_SVGID_14_)" fill="#FDBB2D" d="M459.829,568.626c0.028,0.101,0.055,0.198,0.082,0.297
			C459.884,568.824,459.857,568.728,459.829,568.626"/>
		<path clip-path="url(#AADSF_SB_SVGID_14_)" fill="#FDBB2D" d="M459.982,569.18c0.062,0.222,0.12,0.435,0.178,0.643
			C460.103,569.614,460.044,569.401,459.982,569.18"/>
		<path clip-path="url(#AADSF_SB_SVGID_14_)" fill="#FDBB2D" d="M457.653,561.011c0.031,0.104,0.063,0.213,0.095,0.32
			C457.716,561.224,457.685,561.115,457.653,561.011"/>
		<path clip-path="url(#AADSF_SB_SVGID_14_)" fill="#FDBB2D" d="M457.269,559.747c0.033,0.106,0.066,0.215,0.1,0.324
			C457.335,559.962,457.302,559.854,457.269,559.747"/>
		<path clip-path="url(#AADSF_SB_SVGID_14_)" fill="#FDBB2D" d="M460.756,571.979c0.014,0.048,0.026,0.096,0.039,0.141
			C460.782,572.075,460.77,572.028,460.756,571.979"/>
		<path clip-path="url(#AADSF_SB_SVGID_14_)" fill="#FDBB2D" d="M457.456,560.359c0.034,0.11,0.067,0.223,0.102,0.335
			C457.523,560.582,457.49,560.47,457.456,560.359"/>
		<path clip-path="url(#AADSF_SB_SVGID_14_)" fill="#FDBB2D" d="M460.651,571.602c0.018,0.065,0.035,0.13,0.053,0.191
			C460.687,571.731,460.669,571.668,460.651,571.602"/>
		<path clip-path="url(#AADSF_SB_SVGID_14_)" fill="#FDBB2D" d="M458.317,563.269c0.037,0.13,0.074,0.259,0.112,0.389
			C458.392,563.527,458.354,563.398,458.317,563.269"/>
		<path clip-path="url(#AADSF_SB_SVGID_14_)" fill="#FDBB2D" d="M460.85,572.315c0.01,0.032,0.019,0.066,0.027,0.097
			C460.868,572.382,460.859,572.348,460.85,572.315"/>
		<path clip-path="url(#AADSF_SB_SVGID_14_)" fill="#FDBB2D" d="M458.915,565.36c0.034,0.12,0.068,0.241,0.103,0.361
			C458.983,565.602,458.949,565.481,458.915,565.36"/>
		<path clip-path="url(#AADSF_SB_SVGID_14_)" fill="#FDBB2D" d="M458.732,564.715c0.029,0.104,0.059,0.206,0.088,0.309
			C458.791,564.921,458.762,564.818,458.732,564.715"/>
		<path clip-path="url(#AADSF_SB_SVGID_14_)" fill="#FDBB2D" d="M459.108,566.045c0.031,0.11,0.062,0.221,0.093,0.331
			C459.17,566.266,459.14,566.155,459.108,566.045"/>
		<path clip-path="url(#AADSF_SB_SVGID_14_)" fill="#FDBB2D" d="M459.477,567.357c0.03,0.11,0.061,0.219,0.091,0.327
			C459.537,567.576,459.507,567.468,459.477,567.357"/>
		<path clip-path="url(#AADSF_SB_SVGID_14_)" fill="#FDBB2D" d="M459.297,566.716c0.032,0.113,0.063,0.226,0.095,0.338
			C459.36,566.941,459.329,566.829,459.297,566.716"/>
		<path clip-path="url(#AADSF_SB_SVGID_14_)" fill="#FDBB2D" d="M457.847,561.659c0.03,0.104,0.062,0.21,0.092,0.314
			C457.908,561.869,457.877,561.764,457.847,561.659"/>
		<path clip-path="url(#AADSF_SB_SVGID_14_)" fill="#FDBB2D" d="M459.658,568.01c0.021,0.081,0.045,0.16,0.066,0.241
			C459.703,568.17,459.68,568.091,459.658,568.01"/>
		<path clip-path="url(#AADSF_SB_SVGID_14_)" fill="#FDBB2D" d="M458.046,562.338l0.044,0.149L458.046,562.338z"/>
		<path clip-path="url(#AADSF_SB_SVGID_14_)" fill="#FDBB2D" d="M456.728,558.047c0.03,0.091,0.061,0.182,0.091,0.276
			C456.788,558.229,456.758,558.138,456.728,558.047"/>
		<path clip-path="url(#AADSF_SB_SVGID_14_)" fill="#FDBB2D" d="M458.53,564.01c0.031,0.108,0.062,0.218,0.094,0.327
			C458.592,564.228,458.562,564.119,458.53,564.01"/>
		<path clip-path="url(#AADSF_SB_SVGID_14_)" fill="#FDBB2D" d="M461.237,574.146c0.016,0.104,0.031,0.215,0.048,0.33
			C461.269,574.36,461.253,574.249,461.237,574.146"/>
		<path clip-path="url(#AADSF_SB_SVGID_14_)" fill="#FDBB2D" d="M461.176,573.731c0.012,0.078,0.024,0.161,0.037,0.249
			C461.2,573.893,461.188,573.81,461.176,573.731"/>
		<path clip-path="url(#AADSF_SB_SVGID_14_)" fill="#FDBB2D" d="M461.306,574.625c0.023,0.167,0.048,0.344,0.074,0.532
			C461.354,574.969,461.329,574.792,461.306,574.625"/>
		<path clip-path="url(#AADSF_SB_SVGID_14_)" fill="#FDBB2D" d="M456.553,557.523c0.032,0.094,0.063,0.187,0.096,0.284
			C456.615,557.71,456.585,557.617,456.553,557.523"/>
		<path clip-path="url(#AADSF_SB_SVGID_14_)" fill="#FDBB2D" d="M456.336,556.9c0.049,0.136,0.099,0.277,0.149,0.425
			C456.435,557.178,456.385,557.036,456.336,556.9"/>
		<path clip-path="url(#AADSF_SB_SVGID_14_)" fill="#FDBB2D" d="M461.122,573.393c0.01,0.063,0.021,0.127,0.032,0.199
			C461.144,573.52,461.132,573.455,461.122,573.393"/>
		<path clip-path="url(#AADSF_SB_SVGID_14_)" fill="#FDBB2D" d="M346.956,704.693c-0.037-0.18-0.073-0.358-0.11-0.538
			C346.883,704.335,346.919,704.514,346.956,704.693"/>
		<path clip-path="url(#AADSF_SB_SVGID_14_)" fill="#FDBB2D" d="M463.896,594.178c0.066,0.478,0.133,0.949,0.2,1.418
			C464.028,595.127,463.962,594.655,463.896,594.178"/>
		<path clip-path="url(#AADSF_SB_SVGID_14_)" fill="#FDBB2D" d="M461.382,575.174c0.524,3.831,1.516,11.872,2.514,19.004
			C462.897,587.045,461.906,579.004,461.382,575.174"/>
		<path clip-path="url(#AADSF_SB_SVGID_14_)" fill="#FDBB2D" d="M464.096,595.596c0.124,0.868,0.247,1.723,0.369,2.543
			C464.343,597.318,464.22,596.464,464.096,595.596"/>
		<path clip-path="url(#AADSF_SB_SVGID_14_)" fill="#FDBB2D" d="M460.926,572.582c0.006,0.021,0.013,0.048,0.019,0.068
			C460.938,572.63,460.932,572.604,460.926,572.582"/>
		<path clip-path="url(#AADSF_SB_SVGID_14_)" fill="#FDBB2D" d="M460.983,572.782c0.005,0.015,0.01,0.034,0.014,0.048
			C460.993,572.816,460.988,572.797,460.983,572.782"/>
		<path clip-path="url(#AADSF_SB_SVGID_14_)" fill="#FDBB2D" d="M456.904,558.588c0.03,0.095,0.061,0.19,0.092,0.288
			C456.965,558.778,456.935,558.684,456.904,558.588"/>
		<path clip-path="url(#AADSF_SB_SVGID_14_)" fill="#FDBB2D" d="M461.077,573.14c0.008,0.044,0.017,0.09,0.027,0.146
			C461.095,573.23,461.085,573.184,461.077,573.14"/>
		<path clip-path="url(#AADSF_SB_SVGID_14_)" fill="#FDBB2D" d="M457.083,559.152c0.032,0.102,0.064,0.203,0.097,0.307
			C457.147,559.355,457.115,559.254,457.083,559.152"/>
		<path clip-path="url(#AADSF_SB_SVGID_14_)" fill="#FDBB2D" d="M461.032,572.943c0.009,0.025,0.02,0.07,0.031,0.126
			C461.052,573.014,461.041,572.969,461.032,572.943"/>
		<path clip-path="url(#AADSF_SB_SVGID_14_)" fill="#FDBB2D" d="M232.595,633.445c-25.965-34.563-50.446-58.369-74.4-75.686
			c-0.019,0.063-0.037,0.121-0.056,0.185C181.837,575.217,206.945,599.303,232.595,633.445"/>
	</g>
	<g clip-path="url(#AADSF_SB_SVGID_2_)">
		<defs>
			<rect id="AADSF_SB_SVGID_17_" width="612" height="792"/>
		</defs>
		<clipPath id="AADSF_SB_SVGID_18_">
			<use xlink:href="#AADSF_SB_SVGID_17_"  overflow="visible"/>
		</clipPath>
		<path clip-path="url(#AADSF_SB_SVGID_18_)" d="M149.257,99.904c0.017,0.29,0.036,0.581,0.055,0.874
			C149.293,100.485,149.274,100.194,149.257,99.904"/>
		<path clip-path="url(#AADSF_SB_SVGID_18_)" d="M149.188,98.676c0.016,0.299,0.033,0.602,0.05,0.907
			C149.222,99.278,149.205,98.975,149.188,98.676"/>
		<path clip-path="url(#AADSF_SB_SVGID_18_)" d="M173.359,224.444v0.021V224.444z"/>
		<path clip-path="url(#AADSF_SB_SVGID_18_)" d="M149.132,97.52c0.016,0.336,0.032,0.677,0.05,1.023
			C149.164,98.196,149.148,97.855,149.132,97.52"/>
		<path clip-path="url(#AADSF_SB_SVGID_18_)" d="M149.012,94.36c0.009,0.285,0.018,0.577,0.028,0.878
			C149.03,94.938,149.021,94.646,149.012,94.36"/>
		<path clip-path="url(#AADSF_SB_SVGID_18_)" d="M149.086,96.457c0.01,0.267,0.022,0.537,0.034,0.812
			C149.108,96.994,149.096,96.723,149.086,96.457"/>
		<path clip-path="url(#AADSF_SB_SVGID_18_)" d="M148.965,92.519c0.011,0.516,0.025,1.083,0.043,1.693
			C148.99,93.603,148.976,93.034,148.965,92.519"/>
		<path clip-path="url(#AADSF_SB_SVGID_18_)" d="M173.372,225.656"/>
		<path clip-path="url(#AADSF_SB_SVGID_18_)" d="M149.042,95.291c0.011,0.315,0.023,0.64,0.036,0.97
			C149.065,95.931,149.053,95.605,149.042,95.291"/>
		<path clip-path="url(#AADSF_SB_SVGID_18_)" d="M149.325,100.98c0.023,0.354,0.049,0.709,0.075,1.066
			C149.374,101.69,149.348,101.334,149.325,100.98"/>
		<path clip-path="url(#AADSF_SB_SVGID_18_)" d="M149.752,105.931c0.03,0.279,0.062,0.556,0.095,0.832
			C149.814,106.488,149.782,106.21,149.752,105.931"/>
		<path clip-path="url(#AADSF_SB_SVGID_18_)" d="M150.04,108.247c0.037,0.262,0.076,0.521,0.115,0.775
			C150.116,108.768,150.077,108.509,150.04,108.247"/>
		<path clip-path="url(#AADSF_SB_SVGID_18_)" d="M149.875,106.998c0.042,0.341,0.085,0.678,0.131,1.01
			C149.96,107.676,149.917,107.339,149.875,106.998"/>
		<path clip-path="url(#AADSF_SB_SVGID_18_)" d="M173.102,219.084c0.002,0.03,0.005,0.059,0.008,0.089
			C173.106,219.143,173.104,219.114,173.102,219.084"/>
		<path clip-path="url(#AADSF_SB_SVGID_18_)" d="M172.966,217.75c0.005,0.042,0.01,0.083,0.015,0.126
			C172.976,217.833,172.971,217.792,172.966,217.75"/>
		<path clip-path="url(#AADSF_SB_SVGID_18_)" d="M150.198,109.299c0.052,0.322,0.105,0.639,0.161,0.947
			C150.303,109.938,150.25,109.621,150.198,109.299"/>
		<path clip-path="url(#AADSF_SB_SVGID_18_)" d="M149.621,104.663c0.031,0.318,0.063,0.635,0.096,0.95
			C149.684,105.298,149.652,104.981,149.621,104.663"/>
		<path clip-path="url(#AADSF_SB_SVGID_18_)" d="M149.422,102.335c0.021,0.273,0.042,0.546,0.065,0.819
			C149.464,102.881,149.443,102.608,149.422,102.335"/>
		<path clip-path="url(#AADSF_SB_SVGID_18_)" d="M172.799,216.5c0.005,0.033,0.01,0.067,0.015,0.101
			C172.809,216.567,172.804,216.534,172.799,216.5"/>
		<path clip-path="url(#AADSF_SB_SVGID_18_)" d="M173.279,221.807c0.001,0.036,0.003,0.071,0.004,0.107
			C173.282,221.877,173.28,221.843,173.279,221.807"/>
		<path clip-path="url(#AADSF_SB_SVGID_18_)" d="M149.514,103.479c0.03,0.356,0.062,0.711,0.095,1.065
			C149.576,104.191,149.544,103.835,149.514,103.479"/>
		<path clip-path="url(#AADSF_SB_SVGID_18_)" d="M173.208,220.487c0,0.006,0,0.013,0.001,0.019
			C173.208,220.5,173.208,220.493,173.208,220.487"/>
		<path clip-path="url(#AADSF_SB_SVGID_18_)" d="M173.328,223.125l0.003,0.107L173.328,223.125z"/>
		<path clip-path="url(#AADSF_SB_SVGID_18_)" d="M173.208,220.487c-0.028-0.44-0.061-0.879-0.098-1.314
			C173.146,219.608,173.18,220.048,173.208,220.487"/>
		<path clip-path="url(#AADSF_SB_SVGID_18_)" d="M173.372,225.656c-0.002-0.381-0.006-0.779-0.013-1.191
			C173.366,224.876,173.37,225.275,173.372,225.656"/>
		<path clip-path="url(#AADSF_SB_SVGID_18_)" d="M172.799,216.5c-0.061-0.399-0.127-0.787-0.201-1.156
			C172.672,215.713,172.738,216.101,172.799,216.5"/>
		<path clip-path="url(#AADSF_SB_SVGID_18_)" d="M173.359,224.444c-0.006-0.394-0.016-0.799-0.028-1.213
			C173.343,223.646,173.353,224.05,173.359,224.444"/>
		<path clip-path="url(#AADSF_SB_SVGID_18_)" d="M173.279,221.807c-0.02-0.431-0.042-0.866-0.07-1.301
			C173.237,220.94,173.259,221.375,173.279,221.807"/>
		<path clip-path="url(#AADSF_SB_SVGID_18_)" d="M173.328,223.125c-0.012-0.398-0.027-0.802-0.045-1.21
			C173.301,222.323,173.316,222.728,173.328,223.125"/>
		<path clip-path="url(#AADSF_SB_SVGID_18_)" d="M172.966,217.75c-0.045-0.392-0.096-0.775-0.151-1.149
			C172.87,216.975,172.921,217.357,172.966,217.75"/>
		<path clip-path="url(#AADSF_SB_SVGID_18_)" d="M173.102,219.084c-0.036-0.408-0.076-0.812-0.121-1.208
			C173.025,218.272,173.065,218.676,173.102,219.084"/>
		<path clip-path="url(#AADSF_SB_SVGID_18_)" d="M149.752,105.931c-0.012-0.106-0.023-0.212-0.035-0.318
			C149.729,105.72,149.74,105.825,149.752,105.931"/>
		<path clip-path="url(#AADSF_SB_SVGID_18_)" d="M149.042,95.291c0-0.018-0.001-0.035-0.001-0.052
			C149.041,95.255,149.042,95.272,149.042,95.291"/>
		<path clip-path="url(#AADSF_SB_SVGID_18_)" d="M149.086,96.457c-0.003-0.065-0.006-0.131-0.008-0.196
			C149.081,96.326,149.083,96.392,149.086,96.457"/>
		<path clip-path="url(#AADSF_SB_SVGID_18_)" d="M149.188,98.676c-0.002-0.044-0.005-0.089-0.007-0.133
			C149.184,98.587,149.187,98.632,149.188,98.676"/>
		<path clip-path="url(#AADSF_SB_SVGID_18_)" d="M149.132,97.52c-0.004-0.084-0.007-0.167-0.011-0.251
			C149.125,97.353,149.128,97.436,149.132,97.52"/>
		<polyline clip-path="url(#AADSF_SB_SVGID_18_)" points="148.964,92.514 148.964,92.519 148.964,92.514 		"/>
		<path clip-path="url(#AADSF_SB_SVGID_18_)" d="M149.012,94.36c-0.001-0.05-0.003-0.099-0.004-0.148
			C149.009,94.261,149.011,94.311,149.012,94.36"/>
		<path clip-path="url(#AADSF_SB_SVGID_18_)" d="M150.198,109.299c-0.015-0.091-0.029-0.184-0.043-0.277
			C150.169,109.115,150.183,109.208,150.198,109.299"/>
		<path clip-path="url(#AADSF_SB_SVGID_18_)" d="M149.621,104.663c-0.004-0.04-0.008-0.079-0.012-0.118
			C149.613,104.584,149.617,104.623,149.621,104.663"/>
		<path clip-path="url(#AADSF_SB_SVGID_18_)" d="M149.875,106.998c-0.01-0.078-0.019-0.157-0.028-0.235
			C149.856,106.841,149.865,106.92,149.875,106.998"/>
		<path clip-path="url(#AADSF_SB_SVGID_18_)" d="M150.04,108.247c-0.011-0.08-0.023-0.159-0.034-0.24
			C150.017,108.088,150.029,108.167,150.04,108.247"/>
		<path clip-path="url(#AADSF_SB_SVGID_18_)" d="M149.422,102.335c-0.007-0.096-0.015-0.193-0.022-0.289
			C149.407,102.143,149.415,102.238,149.422,102.335"/>
		<path clip-path="url(#AADSF_SB_SVGID_18_)" d="M149.514,103.479c-0.009-0.108-0.019-0.217-0.027-0.325
			C149.495,103.264,149.505,103.372,149.514,103.479"/>
		<path clip-path="url(#AADSF_SB_SVGID_18_)" d="M149.325,100.98c-0.004-0.067-0.008-0.135-0.013-0.203
			C149.317,100.846,149.321,100.913,149.325,100.98"/>
		<path clip-path="url(#AADSF_SB_SVGID_18_)" d="M149.257,99.904c-0.006-0.107-0.013-0.215-0.019-0.322
			C149.244,99.689,149.251,99.796,149.257,99.904"/>
		<g opacity="0.8" clip-path="url(#AADSF_SB_SVGID_18_)">
			<g>
				<defs>
					<rect id="AADSF_SB_SVGID_19_" x="106.636" y="44.376" width="397.408" height="380.792"/>
				</defs>
				<clipPath id="AADSF_SB_SVGID_20_">
					<use xlink:href="#AADSF_SB_SVGID_19_"  overflow="visible"/>
				</clipPath>
				<g opacity="0.1" clip-path="url(#AADSF_SB_SVGID_20_)">
					<g>
						<defs>
							<rect id="AADSF_SB_SVGID_21_" x="172.491" y="44.376" width="85.815" height="380.792"/>
						</defs>
						<clipPath id="AADSF_SB_SVGID_22_">
							<use xlink:href="#AADSF_SB_SVGID_21_"  overflow="visible"/>
						</clipPath>
						<path clip-path="url(#AADSF_SB_SVGID_22_)" fill="#897F76" d="M189.823,177.065c-0.789-3.842-6.847-36.378-8.16-42.526
							c-1.312-6.147-7.056-26.89-8.11-32.525c-0.743-3.978-0.984-9.742-1.062-12.792c0.562-0.394,0.911-0.65,0.911-0.65
							s12.988-4.401,31.261-11.719c18.274-7.318,33.146-20.401,35.546-22.34c2.4-1.939,2.392-3.385,4.794-4.842
							c1.591-0.965,2.547-3.193,4.403-5.295l0.981,0.337c-1.557,1.503-2.987,3.249-3.106,4.365
							c-0.096,0.902,4.107,4.162,11.024,6.995c-0.553,1.16-0.95,2.257-1.011,3.098c-0.232,3.232,0.015,2.983,0.038,7.705
							c0.024,4.723-1.693,9.454-4.641,16.428c-2.948,6.974-6.198,3.261-8.386,13.215c-2.187,9.952,11.226,8.146,11.226,8.146
							s-12.17,1.8-25.596,1.121c-13.425-0.679-10.439,0.051-19.888-0.896c-9.45-0.948-9.458-2.439-23.854,1.609
							s-3.415,12.942-2.371,23.128c1.044,10.185,15.453,8.623,19.705,14.07c4.253,5.447,1.729,47.962,1.255,52.687
							c-0.474,4.725,9.757,12.876,9.757,12.876s2.774,7.941,4.543,13.897c1.769,5.957-2.643,18.406-2.328,31.826
							c0.315,13.421,12.581,31.008,16.854,40.68c4.273,9.673,1.089,19.133-5.766,40.294s-2.721,2.748-7.908,9.236
							c-5.188,6.488-2.715,3.99-5.403,13.2c-2.689,9.21-3.614,23.133-3.614,23.133s-0.923,14.421-4.338,27.611
							c-3.414,13.19-1.952,7.218-10.862,14.967l-2.83,1.063c-2.654-1.954-2.903-3.729-2.903-3.729l-0.016-3.373
							c0,0-0.985-4.331-0.995-6.259c-0.009-1.927,1.908-3.864,1.908-3.864s-1.945-11.378,1.317-26.025
							c3.337-14.982,8.049-45.01,10.394-58.031c2.345-13.021-1.766-48.498-4.234-60.532c-2.469-12.034-6.035-51.045-5.584-57.311
							c0.388-5.391-1.752-17.535-2.358-20.826C190.416,183.007,190.325,179.516,189.823,177.065"/>
					</g>
				</g>
				<g opacity="0.12" clip-path="url(#AADSF_SB_SVGID_20_)">
					<g>
						<defs>
							<rect id="AADSF_SB_SVGID_23_" x="441.808" y="137.775" width="62.236" height="89.356"/>
						</defs>
						<clipPath id="AADSF_SB_SVGID_24_">
							<use xlink:href="#AADSF_SB_SVGID_23_"  overflow="visible"/>
						</clipPath>
						<path clip-path="url(#AADSF_SB_SVGID_24_)" fill="#897F76" d="M456.759,194.796c1.738-2.782,42.07-57.021,42.07-57.021
							s-0.695,5.215-3.478,11.126c-2.781,5.911-30.944,41.375-30.944,41.375s25.382-27.815,26.772-29.553
							c1.391-1.739,12.864-10.779,12.864-9.388s-8.692,10.778-15.646,17.384c-6.954,6.606-21.209,20.862-27.815,30.945
							s-18.775,27.467-18.775,27.467s2.434-10.083,4.173-14.255C447.719,208.704,455.02,197.578,456.759,194.796"/>
					</g>
				</g>
				<g opacity="0.12" clip-path="url(#AADSF_SB_SVGID_20_)">
					<g>
						<defs>
							<rect id="AADSF_SB_SVGID_25_" x="468.928" y="129.43" width="27.119" height="31.292"/>
						</defs>
						<clipPath id="AADSF_SB_SVGID_26_">
							<use xlink:href="#AADSF_SB_SVGID_25_"  overflow="visible"/>
						</clipPath>
						<path clip-path="url(#AADSF_SB_SVGID_26_)" fill="#897F76" d="M484.226,146.467c2.434-3.477,11.821-17.037,11.821-17.037
							s-3.824,14.255-11.474,21.557c-7.648,7.301-15.646,9.735-15.646,9.735S481.792,149.944,484.226,146.467"/>
					</g>
				</g>
				<g opacity="0.12" clip-path="url(#AADSF_SB_SVGID_20_)">
					<g>
						<defs>
							<rect id="AADSF_SB_SVGID_27_" x="106.636" y="148.206" width="63.28" height="63.627"/>
						</defs>
						<clipPath id="AADSF_SB_SVGID_28_">
							<use xlink:href="#AADSF_SB_SVGID_27_"  overflow="visible"/>
						</clipPath>
						<path clip-path="url(#AADSF_SB_SVGID_28_)" fill="#897F76" d="M108.027,148.206c0,0,4.52,9.04,8.345,15.994
							c3.824,6.954,20.166,20.166,28.858,25.033c8.692,4.868,24.686,22.6,24.686,22.6s-7.302-1.391-11.822-4.868
							c-4.52-3.476-33.378-14.95-44.504-30.944C102.464,160.027,108.027,148.206,108.027,148.206"/>
					</g>
				</g>
				<g opacity="0.12" clip-path="url(#AADSF_SB_SVGID_20_)">
					<g>
						<defs>
							<rect id="AADSF_SB_SVGID_29_" x="113.59" y="201.054" width="50.415" height="20.733"/>
						</defs>
						<clipPath id="AADSF_SB_SVGID_30_">
							<use xlink:href="#AADSF_SB_SVGID_29_"  overflow="visible"/>
						</clipPath>
						<path clip-path="url(#AADSF_SB_SVGID_30_)" fill="#897F76" d="M135.842,214.614c9.735,2.781,28.163,6.258,28.163,6.258
							s-13.212,3.477-29.554-3.129c-16.341-6.606-20.861-16.689-20.861-16.689S126.107,211.833,135.842,214.614"/>
					</g>
				</g>
				<g opacity="0.12" clip-path="url(#AADSF_SB_SVGID_20_)">
					<g>
						<defs>
							<rect id="AADSF_SB_SVGID_31_" x="121.239" y="154.719" width="37.195" height="36.218"/>
						</defs>
						<clipPath id="AADSF_SB_SVGID_32_">
							<use xlink:href="#AADSF_SB_SVGID_31_"  overflow="visible"/>
						</clipPath>
						<path clip-path="url(#AADSF_SB_SVGID_32_)" fill="#897F76" d="M134.799,159.332c6.606,7.649,8.692,10.431,14.603,13.908
							c5.755,3.385,8.873,16.985,9.032,17.697c-0.14-0.617-2.347-9.83-10.075-13.525c-7.997-3.825-13.56-3.477-17.384-10.083
							c-3.825-6.606-9.736-11.474-9.736-11.474S128.193,151.683,134.799,159.332"/>
					</g>
				</g>
			</g>
		</g>
		<g opacity="0.35" clip-path="url(#AADSF_SB_SVGID_18_)">
			<g>
				<defs>
					<rect id="AADSF_SB_SVGID_33_" x="138.154" y="444.115" width="337.85" height="339.325"/>
				</defs>
				<clipPath id="AADSF_SB_SVGID_34_">
					<use xlink:href="#AADSF_SB_SVGID_33_"  overflow="visible"/>
				</clipPath>
				<g opacity="0.35" clip-path="url(#AADSF_SB_SVGID_34_)">
					<g>
						<defs>
							<rect id="AADSF_SB_SVGID_35_" x="138.154" y="444.653" width="53.037" height="233.466"/>
						</defs>
						<clipPath id="AADSF_SB_SVGID_36_">
							<use xlink:href="#AADSF_SB_SVGID_35_"  overflow="visible"/>
						</clipPath>
						<path clip-path="url(#AADSF_SB_SVGID_36_)" fill="#897F76" d="M191.191,454.533c0,0-1.45,4.443-1.742,5.322
							c-0.294,0.879-2.053,2.051-2.053,2.051s-0.876,7.616-1.024,9.082c-0.147,1.465,2.198,4.395,2.198,4.395v5.859l-2.206,0.255
							c0,0-8.926,25.233-10.099,29.628c-1.173,4.395-7.031,23.438-7.031,26.66c0,3.224-4.69,15.529-4.983,16.993
							c-0.291,1.464-8.201,32.813-9.373,35.156s-3.81,24.901-5.274,29.296c-1.464,4.396-2.049,8.203-3.222,14.356
							c-1.173,6.152-0.295,14.354-2.052,18.163c-1.757,3.81-5.859,26.369-5.859,26.369s-0.881-16.993,0.293-24.317
							c1.171-7.325,4.981-29.007,4.981-31.935c0-2.929,3.514-27.538,4.98-32.812c1.466-5.273,13.184-43.067,14.062-45.704
							c0.88-2.637,5.813-23.842,5.984-26.13c0.169-2.288,1.634-11.37,2.221-13.128c0.585-1.758,1.196-6.217,1.11-8.985
							c-0.086-2.77,0.606-5.886,0.606-5.886l0.258-4.111l1.429-4.024c0,0,1.87-5.116,1.87-6.29c0-1.172,1.203-3.789,1.334-5.264
							c0.131-1.475,0.131-3.233,0.131-3.233s0.054-3.794-0.016-5.275c0,0-0.106-4.101,0.101-5.857c0.208-1.757,1-4.823,1-6.288
							c0-0.839-0.271-4.303,0.311-4.225c0,0,1.498,3.293,2.681,4.587C184.572,452.266,191.191,454.533,191.191,454.533"/>
					</g>
				</g>
				<g opacity="0.5" clip-path="url(#AADSF_SB_SVGID_34_)">
					<g>
						<defs>
							<rect id="AADSF_SB_SVGID_37_" x="157.304" y="444.115" width="318.7" height="339.325"/>
						</defs>
						<clipPath id="AADSF_SB_SVGID_38_">
							<use xlink:href="#AADSF_SB_SVGID_37_"  overflow="visible"/>
						</clipPath>
						<g opacity="0.35" clip-path="url(#AADSF_SB_SVGID_38_)">
							<g>
								<defs>
									<rect id="AADSF_SB_SVGID_39_" x="330.953" y="444.115" width="145.051" height="333.906"/>
								</defs>
								<clipPath id="AADSF_SB_SVGID_40_">
									<use xlink:href="#AADSF_SB_SVGID_39_"  overflow="visible"/>
								</clipPath>
								<path clip-path="url(#AADSF_SB_SVGID_40_)" fill="#897F76" d="M390.812,458.658c0,0,1.664,17.017-6.538,21.119l-8.204,4.102
									c0,0,0,4.102,7.032,9.961c7.031,5.859,15.82,10.547,19.336,12.305s7.617,6.445,7.617,10.547s-8.788,13.477-3.516,22.852
									c5.273,9.375,16.407,5.859,22.853,14.649c6.444,8.79,6.445,58.594,12.304,83.203c5.859,24.611,4.688,55.076,4.688,62.695
									c0,7.618-3.514,19.923-4.688,32.228c-1.172,12.305-5.273,14.649-5.273,17.579v8.201l1.759,19.336l-28.712,0.587
									c0,0-10.546-23.438-6.445-36.915c4.101-13.476,12.891-34.571,15.82-43.359c2.93-8.789,5.859-11.719,4.688-28.125
									c-1.171-16.406-4.688-14.647-4.102-35.157c0.587-20.508,0-33.397-1.758-38.085c-1.759-4.689-11.719,2.343-15.234,5.858
									c-3.516,3.518-28.712,21.095-37.5,29.885c-8.79,8.788-19.922,14.647-21.68,14.647c-1.759,0-12.305,5.857-12.305,5.857
									s4.546,3.371,7.002,11.041c4.21,13.158,7.552,34.724,9.403,42.866c2.931,12.892,7.617,39.846,7.617,43.947
									c0,4.1,2.835,19.375,2.835,19.375s39.208,7.774,49.755,7.774c10.546,0,52.881-1.514,55.519-3.711
									c2.636-2.198,3.075-5.273,3.075-5.273l0.731-7.619c0,0,11.133-72.656,8.789-91.992
									c-2.343-19.337-11.134-70.313-12.306-77.929c-1.17-7.619-1.904-22.122-4.687-28.713c-2.781-6.59-16.992-48.047-18.164-53.32
									s-0.584-12.009-1.463-14.794c-0.88-2.784-1.466-16.261-2.639-19.19c-1.173-2.931-2.635-9.227-2.635-9.227l-0.88-21.748
									c0,0-15.821,6.95-23.438,9.295C401.851,455.754,390.812,458.658,390.812,458.658"/>
							</g>
						</g>
						<g opacity="0.35" clip-path="url(#AADSF_SB_SVGID_38_)">
							<g>
								<defs>
									<rect id="AADSF_SB_SVGID_41_" x="257.564" y="649.244" width="100.246" height="126.201"/>
								</defs>
								<clipPath id="AADSF_SB_SVGID_42_">
									<use xlink:href="#AADSF_SB_SVGID_41_"  overflow="visible"/>
								</clipPath>
								<path clip-path="url(#AADSF_SB_SVGID_42_)" fill="#897F76" d="M342.232,762.934c0,0,3.8,3.051,6.738,3.956
									c3.094,0.951,8.84,2.968,8.84,2.968s-1.726-13.962-4.219-30.992c-4.423-30.218-13.929-77.281-20.5-84.109
									c-9.913-10.3-30.272-3.55-35.546-0.619c-5.273,2.931-15.228,7.282-21.672,32.478c0,0-7.293,23.863-8.351,31.983
									c-1.059,8.119-5.471,27.18-5.648,30.005c-0.177,2.824-1.764,6.354-1.764,11.118s-0.789,10.317-0.789,10.317l-1.757,5.349
									c0,0,1.844,0.253,2.635-0.294c0.793-0.546,3.089-1.252,3.616-1.782c0.529-0.529,2.686-3.637,2.686-3.637
									s0.444-2.201,0.291-3.076c-0.152-0.876,0.905-4.585,1.612-7.054c0.707-2.472,0.707-4.235,0.707-4.235
									s1.831-1.933,1.588-2.646c-0.243-0.716,0.176-4.414,0.529-5.297s9.356-19.238,16.59-42.359
									c5.634-18.004,11.299-42.534,11.65-43.948c0.351-1.412,1.895-7.403,1.895-7.403s7.708-3.146,8.644-2.637
									c0.934,0.511,7.658,37.847,10.64,47.635c2.982,9.789,9.707,31.242,11.474,33.712c1.765,2.469,2.851,7.035,2.851,7.035
									s0.565,0.841,1.238,2.816c0.677,1.974,2.794,7.092,3.324,9.21c0.528,2.118,1.353,4.119,1.382,5.501
									c0.028,1.383-0.148,2.438,0.205,3.675S342.232,762.934,342.232,762.934"/>
							</g>
						</g>
						<g opacity="0.35" clip-path="url(#AADSF_SB_SVGID_38_)">
							<g>
								<defs>
									<rect id="AADSF_SB_SVGID_43_" x="157.304" y="469.754" width="96.268" height="313.687"/>
								</defs>
								<clipPath id="AADSF_SB_SVGID_44_">
									<use xlink:href="#AADSF_SB_SVGID_43_"  overflow="visible"/>
								</clipPath>
							</g>
						</g>
					</g>
				</g>
			</g>
		</g>
	</g>
	<g clip-path="url(#AADSF_SB_SVGID_2_)">
		<defs>
			<rect id="AADSF_SB_SVGID_45_" width="612" height="792"/>
		</defs>
		<clipPath id="AADSF_SB_SVGID_46_">
			<use xlink:href="#AADSF_SB_SVGID_45_"  overflow="visible"/>
		</clipPath>
		<g opacity="0.5" clip-path="url(#AADSF_SB_SVGID_46_)">
			<g>
				<defs>
					<rect id="AADSF_SB_SVGID_47_" x="427.162" y="443.167" width="8.296" height="49.597"/>
				</defs>
				<clipPath id="AADSF_SB_SVGID_48_">
					<use xlink:href="#AADSF_SB_SVGID_47_"  overflow="visible"/>
				</clipPath>
				
					<path clip-path="url(#AADSF_SB_SVGID_48_)" fill="none" stroke="#897F76" stroke-width="0.472" stroke-miterlimit="10" stroke-dasharray="1.706,0.853" d="
					M428.538,443.194c0,0-0.267,2.308-0.558,3.47c-0.293,1.161-0.583,2.613-0.583,3.63c0,1.016,0.147,2.467,0.438,3.339
					c0.289,0.871,1.845,5.023,1.575,5.923s-1.286,2.931-1.286,4.092c0,1.162,0.437,7.84,0.872,9.582
					c0.434,1.742,2.465,9.435,3.338,10.887c0.871,1.452,1.308,3.339,1.452,4.209c0.145,0.872,1.45,4.355,1.45,4.355"/>
			</g>
		</g>
		<g opacity="0.35" clip-path="url(#AADSF_SB_SVGID_46_)">
			<g>
				<defs>
					<rect id="AADSF_SB_SVGID_49_" x="235.244" y="37.694" width="142.832" height="15.005"/>
				</defs>
				<clipPath id="AADSF_SB_SVGID_50_">
					<use xlink:href="#AADSF_SB_SVGID_49_"  overflow="visible"/>
				</clipPath>
				
					<path clip-path="url(#AADSF_SB_SVGID_50_)" fill="none" stroke="#00AB5D" stroke-width="0.61" stroke-miterlimit="10" stroke-dasharray="0.524,0.524" d="
					M235.426,51.813c0,0,18.12-13.501,71.182-13.81c53.553-0.312,71.272,14.461,71.272,14.461"/>
			</g>
		</g>
		<g opacity="0.35" clip-path="url(#AADSF_SB_SVGID_46_)">
			<g>
				<defs>
					<rect id="AADSF_SB_SVGID_51_" x="96.449" y="225.004" width="73.587" height="9.727"/>
				</defs>
				<clipPath id="AADSF_SB_SVGID_52_">
					<use xlink:href="#AADSF_SB_SVGID_51_"  overflow="visible"/>
				</clipPath>
				
					<path clip-path="url(#AADSF_SB_SVGID_52_)" fill="none" stroke="#00AB5D" stroke-width="0.795" stroke-miterlimit="10" stroke-dasharray="0.683,0.683" d="
					M96.555,225.388c0,0,16.858,4.663,38.021,6.815c21.164,2.152,35.46,2.13,35.46,2.13"/>
			</g>
		</g>
		<g opacity="0.35" clip-path="url(#AADSF_SB_SVGID_46_)">
			<g>
				<defs>
					<rect id="AADSF_SB_SVGID_53_" x="96.449" y="228.188" width="73.587" height="9.727"/>
				</defs>
				<clipPath id="AADSF_SB_SVGID_54_">
					<use xlink:href="#AADSF_SB_SVGID_53_"  overflow="visible"/>
				</clipPath>
				
					<path clip-path="url(#AADSF_SB_SVGID_54_)" fill="none" stroke="#00AB5D" stroke-width="0.795" stroke-miterlimit="10" stroke-dasharray="0.683,0.683" d="
					M96.555,228.571c0,0,16.858,4.663,38.021,6.815c21.164,2.153,35.46,2.131,35.46,2.131"/>
			</g>
		</g>
		<g opacity="0.35" clip-path="url(#AADSF_SB_SVGID_46_)">
			<g>
				<defs>
					<rect id="AADSF_SB_SVGID_55_" x="442.802" y="225.004" width="73.588" height="9.727"/>
				</defs>
				<clipPath id="AADSF_SB_SVGID_56_">
					<use xlink:href="#AADSF_SB_SVGID_55_"  overflow="visible"/>
				</clipPath>
				
					<path clip-path="url(#AADSF_SB_SVGID_56_)" fill="none" stroke="#00AB5D" stroke-width="0.795" stroke-miterlimit="10" stroke-dasharray="0.683,0.683" d="
					M516.284,225.388c0,0-16.859,4.663-38.022,6.815s-35.459,2.13-35.459,2.13"/>
			</g>
		</g>
		<g opacity="0.35" clip-path="url(#AADSF_SB_SVGID_46_)">
			<g>
				<defs>
					<rect id="AADSF_SB_SVGID_57_" x="442.802" y="228.188" width="73.588" height="9.727"/>
				</defs>
				<clipPath id="AADSF_SB_SVGID_58_">
					<use xlink:href="#AADSF_SB_SVGID_57_"  overflow="visible"/>
				</clipPath>
				
					<path clip-path="url(#AADSF_SB_SVGID_58_)" fill="none" stroke="#00AB5D" stroke-width="0.795" stroke-miterlimit="10" stroke-dasharray="0.683,0.683" d="
					M516.284,228.571c0,0-16.859,4.663-38.022,6.815c-21.163,2.153-35.459,2.131-35.459,2.131"/>
			</g>
		</g>
		<g opacity="0.35" clip-path="url(#AADSF_SB_SVGID_46_)">
			<g>
				<defs>
					<rect id="AADSF_SB_SVGID_59_" x="237.461" y="36.057" width="136.233" height="13.843"/>
				</defs>
				<clipPath id="AADSF_SB_SVGID_60_">
					<use xlink:href="#AADSF_SB_SVGID_59_"  overflow="visible"/>
				</clipPath>
				
					<path clip-path="url(#AADSF_SB_SVGID_60_)" fill="none" stroke="#00AB5D" stroke-width="0.61" stroke-miterlimit="10" stroke-dasharray="0.524,0.524" d="
					M237.654,49.664c0,0,15.924-12.987,68.987-13.296c53.552-0.311,66.844,12.19,66.844,12.19"/>
			</g>
		</g>
		<g opacity="0.35" clip-path="url(#AADSF_SB_SVGID_46_)">
			<g>
				<defs>
					<rect id="AADSF_SB_SVGID_61_" x="149.683" y="733.423" width="317.529" height="28.601"/>
				</defs>
				<clipPath id="AADSF_SB_SVGID_62_">
					<use xlink:href="#AADSF_SB_SVGID_61_"  overflow="visible"/>
				</clipPath>
				<g opacity="0.5" clip-path="url(#AADSF_SB_SVGID_62_)">
					<g>
						<defs>
							<rect id="AADSF_SB_SVGID_63_" x="340.265" y="741.829" width="124.342" height="13.785"/>
						</defs>
						<clipPath id="AADSF_SB_SVGID_64_">
							<use xlink:href="#AADSF_SB_SVGID_63_"  overflow="visible"/>
						</clipPath>
						
							<path clip-path="url(#AADSF_SB_SVGID_64_)" fill="none" stroke="#FFFFFF" stroke-width="0.711" stroke-miterlimit="10" stroke-dasharray="1.74,0.87" d="
							M340.359,742.172c0,0,48.866,13.423,76.666,13.081c43.471-0.534,47.347-3.935,47.347-3.935"/>
					</g>
				</g>
				<g opacity="0.5" clip-path="url(#AADSF_SB_SVGID_62_)">
					<g>
						<defs>
							<rect id="AADSF_SB_SVGID_65_" x="150.293" y="754.365" width="117.972" height="7.658"/>
						</defs>
						<clipPath id="AADSF_SB_SVGID_66_">
							<use xlink:href="#AADSF_SB_SVGID_65_"  overflow="visible"/>
						</clipPath>
						
							<path clip-path="url(#AADSF_SB_SVGID_66_)" fill="none" stroke="#FFFFFF" stroke-width="0.711" stroke-miterlimit="10" stroke-dasharray="1.74,0.87" d="
							M268.168,754.708c0,0-24.139,6.78-84.714,6.958c-34.845,0.104-32.783-4.81-32.783-4.81"/>
					</g>
				</g>
				<g opacity="0.5" clip-path="url(#AADSF_SB_SVGID_62_)">
					<g>
						<defs>
							<rect id="AADSF_SB_SVGID_67_" x="149.683" y="746.558" width="122.076" height="9.375"/>
						</defs>
						<clipPath id="AADSF_SB_SVGID_68_">
							<use xlink:href="#AADSF_SB_SVGID_67_"  overflow="visible"/>
						</clipPath>
						
							<path clip-path="url(#AADSF_SB_SVGID_68_)" fill="none" stroke="#FFFFFF" stroke-width="0.711" stroke-miterlimit="10" stroke-dasharray="1.74,0.87" d="
							M271.677,746.903c0,0-37.269,8.851-78.068,8.672c-40.798-0.177-43.649-3.74-43.649-3.74"/>
					</g>
				</g>
				<g opacity="0.5" clip-path="url(#AADSF_SB_SVGID_62_)">
					<g>
						<defs>
							<rect id="AADSF_SB_SVGID_69_" x="334.069" y="733.423" width="133.143" height="14.315"/>
						</defs>
						<clipPath id="AADSF_SB_SVGID_70_">
							<use xlink:href="#AADSF_SB_SVGID_69_"  overflow="visible"/>
						</clipPath>
						
							<path clip-path="url(#AADSF_SB_SVGID_70_)" fill="none" stroke="#FFFFFF" stroke-width="0.711" stroke-miterlimit="10" stroke-dasharray="1.74,0.87" d="
							M466.91,740.888c0,0-4.989,8.018-51.133,6.236c-46.145-1.781-81.599-13.363-81.599-13.363"/>
					</g>
				</g>
			</g>
		</g>
		<g clip-path="url(#AADSF_SB_SVGID_46_)">
			<g>
				<defs>
					<rect id="AADSF_SB_SVGID_71_" x="145.065" y="437.744" width="323.51" height="332.526"/>
				</defs>
				<clipPath id="AADSF_SB_SVGID_72_">
					<use xlink:href="#AADSF_SB_SVGID_71_"  overflow="visible"/>
				</clipPath>
				<g opacity="0.5" clip-path="url(#AADSF_SB_SVGID_72_)">
					<g>
						<defs>
							<rect id="AADSF_SB_SVGID_73_" x="177.892" y="459.749" width="260.283" height="23.946"/>
						</defs>
						<clipPath id="AADSF_SB_SVGID_74_">
							<use xlink:href="#AADSF_SB_SVGID_73_"  overflow="visible"/>
						</clipPath>
						
							<path clip-path="url(#AADSF_SB_SVGID_74_)" fill="none" stroke="#897F76" stroke-width="0.733" stroke-miterlimit="10" stroke-dasharray="1.767,0.883" d="
							M178.103,483.012c0,0,7.87-5.554,14.672-8.397c6.801-2.842,33.551-11.071,51.535-13.166
							c17.983-2.093,57.275-1.345,85.536-0.298c28.262,1.047,66.95,4.188,70.88,4.487c3.929,0.3,11.034,0.748,12.393,1.047
							c1.36,0.3,11.788,2.692,14.661,4.938c2.87,2.243,3.775,3.292,4.381,4.188c0.604,0.897,1.481,1.34,1.481,1.34l4.229,6.342"/>
					</g>
				</g>
				<g opacity="0.5" clip-path="url(#AADSF_SB_SVGID_72_)">
					<g>
						<defs>
							<rect id="AADSF_SB_SVGID_75_" x="176.859" y="445.74" width="257.698" height="26.372"/>
						</defs>
						<clipPath id="AADSF_SB_SVGID_76_">
							<use xlink:href="#AADSF_SB_SVGID_75_"  overflow="visible"/>
						</clipPath>
						
							<path clip-path="url(#AADSF_SB_SVGID_76_)" fill="none" stroke="#897F76" stroke-width="0.733" stroke-miterlimit="10" stroke-dasharray="1.767,0.883" d="
							M177.215,472.025c0.157-0.644,0.599-2.798,1.203-3.545c0.604-0.748,8.614-5.386,23.123-10.023
							c14.508-4.638,42.013-11.07,60.149-12.117c18.135-1.048,54.857,1.795,81.455,1.496c26.598-0.3,64.987,5.086,75.716,7.479
							c10.729,2.394,15.393,9.267,15.393,9.267"/>
					</g>
				</g>
				<g opacity="0.5" clip-path="url(#AADSF_SB_SVGID_72_)">
					<g>
						<defs>
							<rect id="AADSF_SB_SVGID_77_" x="179.65" y="437.744" width="254.909" height="18.753"/>
						</defs>
						<clipPath id="AADSF_SB_SVGID_78_">
							<use xlink:href="#AADSF_SB_SVGID_77_"  overflow="visible"/>
						</clipPath>
						
							<path clip-path="url(#AADSF_SB_SVGID_78_)" fill="none" stroke="#897F76" stroke-width="0.733" stroke-miterlimit="10" stroke-dasharray="1.767,0.883" d="
							M179.932,455.617c0,0,2.481-2.997,26.662-10.178c24.179-7.181,49.048-8.526,98.016-6.431
							c48.963,2.095,77.528,2.394,97.626,5.834c20.101,3.441,22.518,5.088,24.332,5.835c1.814,0.748,4.84,2.094,5.593,2.843
							c0.754,0.748,2.092,2.775,2.092,2.775"/>
					</g>
				</g>
				<g opacity="0.5" clip-path="url(#AADSF_SB_SVGID_72_)">
					<g>
						<defs>
							<rect id="AADSF_SB_SVGID_79_" x="334.641" y="739.244" width="133.935" height="19.82"/>
						</defs>
						<clipPath id="AADSF_SB_SVGID_80_">
							<use xlink:href="#AADSF_SB_SVGID_79_"  overflow="visible"/>
						</clipPath>
						
							<path clip-path="url(#AADSF_SB_SVGID_80_)" fill="none" stroke="#897F76" stroke-width="0.73" stroke-miterlimit="10" stroke-dasharray="1.758,0.879" d="
							M468.504,753.706c0,0-16.979,3.372-34.771,4.049c-17.792,0.676-24.66,2.367-48.422-1.574
							c-23.763-3.942-33.223-5.744-36.601-7.208c-3.379-1.465-6.981-2.701-8.671-3.828c-1.689-1.125-3.717-2.479-3.83-2.928
							c-0.111-0.451-1.238-2.816-1.238-2.816"/>
					</g>
				</g>
				<g opacity="0.5" clip-path="url(#AADSF_SB_SVGID_72_)">
					<g>
						<defs>
							<rect id="AADSF_SB_SVGID_81_" x="338.994" y="749.764" width="128.94" height="13.876"/>
						</defs>
						<clipPath id="AADSF_SB_SVGID_82_">
							<use xlink:href="#AADSF_SB_SVGID_81_"  overflow="visible"/>
						</clipPath>
						
							<path clip-path="url(#AADSF_SB_SVGID_82_)" fill="none" stroke="#897F76" stroke-width="0.73" stroke-miterlimit="10" stroke-dasharray="1.758,0.879" d="
							M467.854,758.208c0,0-22.522,5.066-41.892,5.066c-19.37,0-38.4-1.352-57.319-5.293c-18.921-3.94-25.679-5.856-26.804-6.532
							c-1.126-0.675-2.702-1.351-2.702-1.351"/>
					</g>
				</g>
				<g opacity="0.5" clip-path="url(#AADSF_SB_SVGID_72_)">
					<g>
						<defs>
							<rect id="AADSF_SB_SVGID_83_" x="146.044" y="759.876" width="122.777" height="10.395"/>
						</defs>
						<clipPath id="AADSF_SB_SVGID_84_">
							<use xlink:href="#AADSF_SB_SVGID_83_"  overflow="visible"/>
						</clipPath>
						
							<path clip-path="url(#AADSF_SB_SVGID_84_)" fill="none" stroke="#897F76" stroke-width="0.73" stroke-miterlimit="10" stroke-dasharray="1.758,0.879" d="
							M268.563,760.134c0,0-1.696,1.697-4.803,2.261c-1.693,0.308-2.9,0.172-2.9,0.172s-25.499,3.642-32.422,4.632
							c-6.922,0.991-22.183,3.957-44.223,2.119c-22.04-1.836-38.125-3.892-38.125-3.892"/>
					</g>
				</g>
				<g opacity="0.5" clip-path="url(#AADSF_SB_SVGID_72_)">
					<g>
						<defs>
							<rect id="AADSF_SB_SVGID_85_" x="145.065" y="754.1" width="125.565" height="10.966"/>
						</defs>
						<clipPath id="AADSF_SB_SVGID_86_">
							<use xlink:href="#AADSF_SB_SVGID_85_"  overflow="visible"/>
						</clipPath>
						
							<path clip-path="url(#AADSF_SB_SVGID_86_)" fill="none" stroke="#897F76" stroke-width="0.73" stroke-miterlimit="10" stroke-dasharray="1.758,0.879" d="
							M270.257,754.2c0,0,0.847,2.967-14.693,5.087c-15.541,2.119-35.745,6.923-65.839,4.946
							c-30.095-1.979-43.526-3.693-44.368-4.814"/>
					</g>
				</g>
			</g>
		</g>
		<g opacity="0.5" clip-path="url(#AADSF_SB_SVGID_46_)">
			<g>
				<defs>
					<rect id="AADSF_SB_SVGID_87_" x="171.625" y="448.272" width="8.55" height="51.112"/>
				</defs>
				<clipPath id="AADSF_SB_SVGID_88_">
					<use xlink:href="#AADSF_SB_SVGID_87_"  overflow="visible"/>
				</clipPath>
				
					<path clip-path="url(#AADSF_SB_SVGID_88_)" fill="none" stroke="#897F76" stroke-width="0.486" stroke-miterlimit="10" stroke-dasharray="1.758,0.879" d="
					M178.757,448.3c0,0,0.274,2.379,0.575,3.576c0.301,1.197,0.6,2.694,0.6,3.741c0,1.046-0.152,2.542-0.45,3.44
					c-0.298,0.898-1.902,5.177-1.624,6.104c0.278,0.927,1.326,3.021,1.326,4.217c0,1.197-0.45,8.079-0.899,9.875
					c-0.447,1.795-2.541,9.723-3.441,11.219c-0.897,1.497-1.347,3.441-1.496,4.339c-0.149,0.898-1.495,4.488-1.495,4.488"/>
			</g>
		</g>
		<g opacity="0.5" clip-path="url(#AADSF_SB_SVGID_46_)">
			<g>
				<defs>
					<rect id="AADSF_SB_SVGID_89_" x="259.078" y="649.517" width="99.362" height="126.014"/>
				</defs>
				<clipPath id="AADSF_SB_SVGID_90_">
					<use xlink:href="#AADSF_SB_SVGID_89_"  overflow="visible"/>
				</clipPath>
				
					<path clip-path="url(#AADSF_SB_SVGID_90_)" fill="none" stroke="#887F76" stroke-width="0.486" stroke-miterlimit="10" stroke-dasharray="1.758,0.879" d="
					M259.321,775.53v-5.492c0-0.66,1.757-3.516,2.198-4.395c0.439-0.879,0-2.197-0.659-3.077c-0.661-0.878-0.22-2.196,0.659-3.296
					c0.88-1.098,0.659-3.076,0.659-3.076l-0.879-1.538c0,0,2.856-9.668,3.075-12.745c0.222-3.074,5.055-23.949,8.131-36.253
					c3.076-12.307,5.273-34.498,18.236-47.242c8.227-8.088,27.906-10.328,37.136-7.471c9.229,2.856,10.547,15.162,12.744,23.95
					c2.196,8.788,11.646,56.031,12.524,60.425c0.879,4.395,5.054,34.058,5.054,34.058"/>
			</g>
		</g>
	</g>    
  	<g id="Crotch" clip-path="url(#AADSF_SB_SVGID_2_)">
		<defs>
			<rect id="AADSF_SB_SVGID_15_" width="612" height="792"/>
		</defs>
		<clipPath id="AADSF_SB_SVGID_16_">
			<use xlink:href="#AADSF_SB_SVGID_15_"  overflow="visible"/>
		</clipPath>
		<path clip-path="url(#AADSF_SB_SVGID_16_)" fill="#BF2A43" d="M340.621,674.896c-2.197-8.788-3.516-21.094-12.744-23.95
			c-9.229-2.857-28.908-0.617-37.135,7.471c-12.964,12.744-15.161,34.936-18.237,47.242c-3.076,12.304-7.909,33.179-8.131,36.253
			c-0.219,3.077-3.075,12.745-3.075,12.745l0.879,1.538c0,0,0.221,1.979-0.659,3.076c-0.878,1.1-1.319,2.418-0.659,3.296
			c0.659,0.88,1.098,2.198,0.659,3.077c-0.44,0.879-2.198,3.734-2.198,4.395c0,0.347,0.097,2.852,0.188,5.144
			c0.242-0.028,0.479-0.059,0.691-0.089c1.027-0.146,4.103-1.903,4.543-2.637c0.439-0.733,1.758-2.782,1.758-2.782l0.291-1.467
			v-1.609c0,0,1.171-5.274,1.319-5.714c0.148-0.439,0.731-1.902,0.879-2.635c0.147-0.734,0.147-2.198,0.147-2.198l0.88-1.172
			c0,0,0.439-2.2,0.439-2.932c0-0.73,0-2.049,0.146-2.782c0.145-0.733,3.663-7.91,5.126-11.427
			c1.465-3.515,9.669-25.489,11.428-30.615c1.756-5.126,6.883-22.997,7.616-25.928c0.732-2.93,4.392-16.845,4.54-18.896
			s2.051-8.644,2.051-8.644l8.644-2.637c0,0,9.376,44.239,13.623,57.424c4.247,13.184,11.278,30.029,11.278,30.029
			s-0.146,1.612,0.439,2.929c0.586,1.318,3.224,6.737,3.663,8.351c0.438,1.611,1.904,7.177,1.904,7.177s-0.734,3.955,1.317,6.006
			c2.052,2.052,4.396,3.368,6.738,3.956c2.345,0.586,4.835,1.172,4.835,1.172s1.025,1.465,2.197,1.612
			c0.327,0.041,0.747,0.059,1.18,0.063c-0.939-8.795-3.336-30.909-4.037-34.416C352.268,730.926,342.817,683.684,340.621,674.896"/>
	</g>
</g>
</svg>
