<?xml version="1.0" encoding="utf-8"?>
<!-- Generator: Adobe Illustrator 15.0.0, SVG Export Plug-In . SVG Version: 6.00 Build 0)  -->
<!DOCTYPE svg PUBLIC "-//W3C//DTD SVG 1.1//EN" "http://www.w3.org/Graphics/SVG/1.1/DTD/svg11.dtd">
<svg version="1.1" id="Layer_1" xmlns="http://www.w3.org/2000/svg" xmlns:xlink="http://www.w3.org/1999/xlink" x="0px" y="0px"
	 width="612px" height="792px" viewBox="0 0 612 992" enable-background="new 0 0 612 792" xml:space="preserve">
<g>
	<defs>
		<rect id="SB_SVGID_1_" width="612" height="792"/>
	</defs>
	<clipPath id="SB_SVGID_2_">
		<use xlink:href="#SB_SVGID_1_"  overflow="visible"/>
	</clipPath>
	<g id="BODY" clip-path="url(#SB_SVGID_2_)">
		<defs>
			<rect id="SB_SVGID_3_" width="612" height="792"/>
		</defs>
		<clipPath id="SB_SVGID_4_">
			<use xlink:href="#SB_SVGID_3_"  overflow="visible"/>
		</clipPath>
		<path clip-path="url(#SB_SVGID_4_)" fill="#BF2A43" d="M534.165,604.245c0.239-2.399,2.64-21.595,2.64-22.313
			c0-0.721,0.958-7.92,1.199-9.597c0.239-1.679,3.598-31.433,3.598-33.83s3.601-53.026,3.36-68.14
			c-0.24-15.116-2.879-47.988-5.038-58.305c-2.16-10.315-8.637-40.064-11.277-55.664c-2.641-15.595-6.238-46.785-6.718-48.225
			c-0.479-1.439-6.237-23.272-8.397-28.071c-2.158-4.798-12.238-35.749-12.717-37.189c-0.479-1.439-5.518-17.994-5.758-20.153
			c-0.24-2.16-6.479-20.155-7.198-23.034c-0.719-2.88-1.438-17.755-1.919-20.396c-0.48-2.637-2.64-19.433-3.36-23.51
			c-0.72-4.079-3.118-13.676-3.838-15.116c-0.72-1.441-1.438-6.479-1.438-7.918s0.479-3.36,0.24-4.56
			c-0.24-1.199-1.201-3.358-1.201-4.797c0-1.44,1.439-6.239,0.961-8.638c-0.48-2.399-2.4-4.798-2.4-9.358
			c0-2.509,0.29-4.757,0.552-6.274c-33.296-6.228-93.441-13.11-198.105-13.853c-70.517-0.5-113.577,2.625-139.821,6.822
			c-0.027,0.174-0.034,0.315-0.014,0.402c0.141,0.638,0.211,5.884-0.142,8.01c-0.355,2.125-0.853,5.316-1.348,6.592
			c-0.494,1.275-0.213,8.646-0.213,10.065c0,1.417,0.213,5.81,0.284,6.306c0.07,0.496,0.353,5.104-0.424,7.16
			c-0.779,2.055-0.994,2.479-0.994,2.479l-4.254,16.445c0,0-1.913,2.693-2.34,6.592c-0.423,3.898-0.423,6.733-0.423,6.733
			s-1.134,2.98-1.134,5.105c0,2.126,0.142,4.536,0.142,4.536s-0.355,5.174-1.133,9.357c-0.781,4.181-1.277,7.654-1.277,7.654
			s-1.983,6.873-2.126,8.292s-0.639,8.861-0.921,10.917c-0.286,2.055-2.55,13.89-3.899,19.42
			c-1.345,5.528-12.614,42.572-16.456,55.531c-3.839,12.955-11.035,34.069-11.516,37.428c-0.481,3.357-7.437,44.146-8.155,49.903
			c-0.721,5.76-8.881,59.741-9.602,65.022c-0.719,5.28-0.958,31.434-0.238,49.666c0.72,18.234,2.16,44.63,3.6,53.026
			c1.438,8.396,4.796,33.347,5.276,35.985c0.481,2.64,2.402,14.636,2.402,16.556c0,1.553,1.673,52.393,2.819,72.553
			c16.64,1.463,48.423,3.946,77.25,0.656c35.747-4.079,63.1-12.475,63.1-12.475s1.661-0.153,3.187-0.335
			c-0.15-3.755-0.309-7.857-0.309-8.426c0-1.082,2.879-5.759,3.6-7.197c0.72-1.439,0-3.599-1.079-5.04
			c-1.081-1.438-0.359-3.599,1.079-5.398c1.441-1.799,1.081-5.039,1.081-5.039l-1.441-2.52c0,0,4.678-15.835,5.038-20.874
			c0.362-5.037,8.278-39.228,13.316-59.38c5.039-20.156,8.638-56.504,29.871-77.379c13.474-13.246,45.707-16.916,60.823-12.234
			c15.115,4.678,17.274,24.832,20.873,39.227s19.075,91.773,20.515,98.971c1.149,5.743,5.074,41.964,6.613,56.371
			c1.832,0.02,3.825-0.104,3.825-0.104s21.112,6.953,42.706,10.073c21.168,3.061,63.764,5.651,88.94,3.04
			c2.239-9.87,5.896-27.083,5.896-27.083S533.927,606.643,534.165,604.245"/>
	</g>
	<g id="SIDE_PANELS" clip-path="url(#SB_SVGID_2_)">
		<defs>
			<rect id="SB_SVGID_5_" width="612" height="792"/>
		</defs>
		<clipPath id="SB_SVGID_6_">
			<use xlink:href="#SB_SVGID_5_"  overflow="visible"/>
		</clipPath>
		<path clip-path="url(#SB_SVGID_6_)" fill="#FDBB2D" d="M582.088,482.653c-0.24-15.116-2.879-47.988-5.038-58.305
			c-2.16-10.315-8.637-40.064-11.276-55.663c-2.641-15.595-6.239-46.785-6.719-48.225c-0.479-1.439-6.238-23.272-8.396-28.071
			c-2.159-4.798-12.238-35.749-12.718-37.189c-0.479-1.439-5.518-17.994-5.758-20.153c-0.241-2.16-6.479-20.155-7.198-23.034
			c-0.719-2.88-1.438-17.755-1.918-20.395c-0.481-2.638-2.641-19.434-3.361-23.511c-0.721-4.079-3.117-13.676-3.837-15.116
			c-0.72-1.441-1.439-6.479-1.439-7.918s0.479-3.36,0.24-4.56c-0.24-1.199-1.201-3.358-1.201-4.797c0-1.44,1.44-6.239,0.961-8.638
			c-0.48-2.399-2.4-4.799-2.4-9.358s0.96-8.268,0.96-8.268s-8.704-4.902-37.534-10.295c-0.263,1.518-0.552,3.766-0.552,6.275
			c0,4.559,1.92,6.959,2.4,9.358c0.479,2.399-0.961,7.197-0.961,8.637s0.961,3.599,1.201,4.798c0.239,1.199-0.24,3.121-0.24,4.56
			s0.72,6.477,1.438,7.918c0.72,1.44,3.118,11.037,3.838,15.116c0.721,4.077,2.88,20.873,3.36,23.51
			c0.481,2.641,1.2,17.516,1.92,20.396c0.719,2.879,6.957,20.874,7.197,23.033c0.24,2.16,5.278,18.715,5.758,20.154
			c0.479,1.44,10.559,32.391,12.717,37.189c2.16,4.799,7.918,26.632,8.397,28.071c0.479,1.44,4.077,32.629,6.719,48.225
			c2.64,15.599,9.116,45.348,11.276,55.663c2.159,10.316,4.798,43.188,5.038,58.305c0.24,15.113-3.359,65.742-3.359,68.14
			s-3.359,32.151-3.599,33.83c-0.241,1.677-1.199,8.876-1.199,9.597c0,0.719-2.4,19.914-2.64,22.313
			c-0.238,2.397-3.839,24.471-3.839,24.471s-3.656,17.214-5.896,27.083c0.508-0.052,1.021-0.103,1.513-0.159
			c24.953-2.88,34.311-5.277,36.471-5.997c2.158-0.72,3.599-1.921,4.318-3.6s0.72-5.038,0.72-5.038s3.601-22.074,3.839-24.472
			c0.239-2.398,2.64-21.595,2.64-22.313c0-0.721,0.959-7.919,1.199-9.597c0.239-1.679,3.599-31.433,3.599-33.83
			S582.328,497.767,582.088,482.653"/>
		<path clip-path="url(#SB_SVGID_6_)" fill="#FDBB2D" d="M80.221,574.754c-0.48-2.639-3.838-27.59-5.276-35.985
			c-1.44-8.396-2.88-34.792-3.6-53.026c-0.72-18.232-0.481-44.386,0.238-49.666c0.721-5.281,8.881-59.262,9.601-65.022
			c0.719-5.757,7.675-46.546,8.156-49.903c0.481-3.359,7.676-24.473,11.516-37.428c3.842-12.959,15.111-50.003,16.456-55.531
			c1.349-5.53,3.613-17.365,3.899-19.42c0.282-2.056,0.778-9.497,0.921-10.916s2.126-8.292,2.126-8.292s0.496-3.474,1.277-7.655
			c0.778-4.182,1.133-9.357,1.133-9.357s-0.142-2.409-0.142-4.536c0-2.125,1.134-5.105,1.134-5.105s0-2.835,0.423-6.733
			c0.427-3.899,2.34-6.591,2.34-6.591l4.254-16.446c0,0,0.215-0.424,0.994-2.479c0.777-2.056,0.493-6.664,0.424-7.16
			c-0.071-0.496-0.284-4.889-0.284-6.306c0-1.419-0.281-8.79,0.213-10.065c0.495-1.275,0.993-4.466,1.348-6.592
			c0.353-2.126,0.283-7.372,0.141-8.01c-0.02-0.087-0.012-0.228,0.015-0.402c-46.435,7.426-40.211,18.209-40.211,18.209l0.045,0.106
			c-0.407,0.867-0.786,2.147-0.703,2.51c0.142,0.638,0.212,5.884-0.142,8.01c-0.354,2.125-0.852,5.316-1.347,6.592
			c-0.494,1.275-0.213,8.646-0.213,10.065c0,1.417,0.213,5.809,0.283,6.306c0.07,0.496,0.354,5.103-0.423,7.16
			c-0.78,2.055-0.994,2.479-0.994,2.479l-4.254,16.445c0,0-1.913,2.693-2.34,6.591c-0.423,3.899-0.423,6.734-0.423,6.734
			s-1.134,2.98-1.134,5.105c0,2.127,0.141,4.536,0.141,4.536s-0.354,5.175-1.133,9.357c-0.78,4.181-1.276,7.654-1.276,7.654
			s-1.983,6.873-2.126,8.292s-0.64,8.861-0.921,10.916c-0.286,2.056-2.55,13.891-3.899,19.42
			c-1.346,5.529-12.614,42.573-16.456,55.532c-3.84,12.955-11.035,34.068-11.516,37.427c-0.481,3.358-7.437,44.147-8.156,49.904
			c-0.72,5.759-8.88,59.741-9.601,65.021c-0.719,5.281-0.959,31.435-0.238,49.667c0.72,18.235,2.159,44.63,3.6,53.026
			c1.438,8.396,4.795,33.347,5.276,35.984c0.48,2.641,2.402,14.637,2.402,16.557s0.719,8.877,0.719,9.837s-0.481,4.321-0.481,4.321
			s-1.203,2.635-0.48,3.838c0.72,1.199,2.402,2.162,2.402,3.121c0,0.957-0.721,2.88-0.721,2.88v4.074
			c0,0.964,0.721,14.157,1.678,15.597c0.958,1.438,1.681,3.36,4.801,4.08c3.117,0.719,16.316,2.88,26.631,3.598
			c1.997,0.14,5.129,0.433,9.124,0.784c-1.146-20.16-2.819-71-2.819-72.553C82.623,589.39,80.702,577.394,80.221,574.754"/>
	</g>
	<g id="CROTCH" clip-path="url(#SB_SVGID_2_)">
		<defs>
			<rect id="SB_SVGID_7_" width="612" height="792"/>
		</defs>
		<clipPath id="SB_SVGID_8_">
			<use xlink:href="#SB_SVGID_7_"  overflow="visible"/>
		</clipPath>
		<path clip-path="url(#SB_SVGID_8_)" fill="#004D86" d="M361.831,487.448c-3.599-14.396-5.758-34.549-20.873-39.227
			c-15.116-4.682-47.349-1.012-60.823,12.234c-21.233,20.875-24.832,57.222-29.871,77.379c-5.038,20.152-12.954,54.342-13.316,59.38
			c-0.36,5.039-5.038,20.874-5.038,20.874l1.441,2.52c0,0,0.36,3.24-1.081,5.039c-1.439,1.8-2.16,3.96-1.079,5.398
			c1.079,1.441,1.799,3.601,1.079,5.04c-0.721,1.438-3.6,6.115-3.6,7.197c0,0.568,0.159,4.671,0.309,8.426
			c0.396-0.048,0.784-0.097,1.131-0.146c1.683-0.239,6.721-3.117,7.441-4.318c0.719-1.201,2.88-4.558,2.88-4.558l0.476-2.401v-2.638
			c0,0,1.919-8.638,2.161-9.358c0.242-0.719,1.197-3.116,1.439-4.315c0.241-1.203,0.241-3.601,0.241-3.601l1.441-1.92
			c0,0,0.719-3.604,0.719-4.801s0-3.356,0.239-4.559c0.239-1.2,6-12.954,8.397-18.714c2.399-5.757,15.837-41.748,18.717-50.145
			c2.877-8.397,11.274-37.669,12.475-42.469c1.199-4.798,7.194-27.59,7.437-30.95c0.241-3.36,3.359-14.158,3.359-14.158
			l14.156-4.317c0,0,15.357,72.459,22.313,94.054c6.956,21.594,18.473,49.187,18.473,49.187s-0.239,2.638,0.721,4.796
			c0.96,2.16,5.278,11.036,5.999,13.678c0.719,2.639,3.119,11.754,3.119,11.754s-1.202,6.479,2.158,9.838
			c3.36,3.361,7.201,5.518,11.036,6.48c3.841,0.96,7.919,1.92,7.919,1.92s1.68,2.399,3.6,2.64c0.536,0.066,1.223,0.096,1.933,0.104
			c-1.539-14.407-5.464-50.628-6.613-56.371C380.906,579.222,365.43,501.843,361.831,487.448"/>
	</g>
	<g clip-path="url(#SB_SVGID_2_)">
		<defs>
			<rect id="SB_SVGID_9_" width="612" height="792"/>
		</defs>
		<clipPath id="SB_SVGID_10_">
			<use xlink:href="#SB_SVGID_9_"  overflow="visible"/>
		</clipPath>
		<g opacity="0.35" clip-path="url(#SB_SVGID_10_)">
			<g>
				<defs>
					<rect id="SB_SVGID_11_" x="30.209" y="109.453" width="553.368" height="555.783"/>
				</defs>
				<clipPath id="SB_SVGID_12_">
					<use xlink:href="#SB_SVGID_11_"  overflow="visible"/>
				</clipPath>
				<g opacity="0.35" clip-path="url(#SB_SVGID_12_)">
					<g>
						<defs>
							<rect id="SB_SVGID_13_" x="30.209" y="110.333" width="86.871" height="382.396"/>
						</defs>
						<clipPath id="SB_SVGID_14_">
							<use xlink:href="#SB_SVGID_13_"  overflow="visible"/>
						</clipPath>
						<path clip-path="url(#SB_SVGID_14_)" fill="#897F76" d="M117.08,126.516c0,0-2.374,7.279-2.853,8.718
							c-0.481,1.439-3.362,3.359-3.362,3.359s-1.436,12.475-1.678,14.875c-0.241,2.4,3.601,7.198,3.601,7.198v9.597l-3.615,0.419
							c0,0-14.62,41.329-16.54,48.527c-1.921,7.198-11.516,38.388-11.516,43.666c0,5.28-7.683,25.435-8.162,27.833
							c-0.478,2.398-13.433,53.745-15.353,57.583s-6.239,40.786-8.638,47.984c-2.398,7.199-3.356,13.437-5.278,23.514
							c-1.921,10.077-0.481,23.511-3.36,29.751c-2.878,6.239-9.597,43.19-9.597,43.19s-1.441-27.834,0.48-39.83
							c1.918-11.998,8.159-47.511,8.159-52.306c0-4.798,5.756-45.105,8.157-53.742c2.401-8.637,21.594-70.541,23.033-74.859
							c1.44-4.319,9.52-39.051,9.8-42.798c0.277-3.748,2.677-18.623,3.637-21.503c0.959-2.879,1.959-10.182,1.819-14.717
							c-0.142-4.536,0.993-9.641,0.993-9.641l0.423-6.734l2.34-6.591c0,0,3.063-8.382,3.063-10.303c0-1.919,1.97-6.206,2.185-8.621
							c0.214-2.415,0.214-5.296,0.214-5.296s0.089-6.213-0.026-8.641c0,0-0.175-6.717,0.165-9.593
							c0.341-2.878,1.638-7.901,1.638-10.299c0-1.374-0.443-7.048,0.509-6.92c0,0,2.453,5.393,4.392,7.513
							C106.239,122.802,117.08,126.516,117.08,126.516"/>
					</g>
				</g>
				<g opacity="0.5" clip-path="url(#SB_SVGID_12_)">
					<g>
						<defs>
							<rect id="SB_SVGID_15_" x="61.576" y="109.453" width="522.001" height="555.783"/>
						</defs>
						<clipPath id="SB_SVGID_16_">
							<use xlink:href="#SB_SVGID_15_"  overflow="visible"/>
						</clipPath>
						<g opacity="0.35" clip-path="url(#SB_SVGID_16_)">
							<g>
								<defs>
									<rect id="SB_SVGID_17_" x="345.996" y="109.453" width="237.581" height="546.907"/>
								</defs>
								<clipPath id="SB_SVGID_18_">
									<use xlink:href="#SB_SVGID_17_"  overflow="visible"/>
								</clipPath>
								<path clip-path="url(#SB_SVGID_18_)" fill="#897F76" d="M444.04,133.272c0,0,2.726,27.872-10.709,34.591l-13.438,6.718
									c0,0,0,6.717,11.518,16.315c11.517,9.598,25.913,17.275,31.67,20.155c5.76,2.878,12.477,10.555,12.477,17.273
									c0,6.719-14.395,22.074-5.758,37.43c8.637,15.355,26.873,9.597,37.429,23.993c10.557,14.398,10.558,95.973,20.154,136.28
									c9.596,40.311,7.678,90.209,7.678,102.688c0,12.478-5.757,32.632-7.678,52.786c-1.92,20.154-8.638,23.994-8.638,28.793
									v13.433l2.88,31.671l-47.026,0.961c0,0-17.273-38.389-10.558-60.463c6.718-22.072,21.114-56.624,25.913-71.02
									c4.798-14.396,9.597-19.194,7.678-46.066c-1.919-26.871-7.679-23.991-6.719-57.583c0.961-33.59,0-54.702-2.879-62.38
									c-2.88-7.68-19.193,3.837-24.953,9.595c-5.757,5.762-47.026,34.553-61.422,48.948
									c-14.396,14.395-32.629,23.993-35.509,23.993c-2.878,0-20.154,9.593-20.154,9.593s7.448,5.521,11.47,18.084
									c6.896,21.553,12.368,56.875,15.401,70.212c4.8,21.114,12.477,65.263,12.477,71.98c0,6.715,4.643,31.734,4.643,31.734
									s64.219,12.733,81.492,12.733c17.275,0,86.615-2.479,90.936-6.078c4.318-3.599,5.038-8.638,5.038-8.638l1.198-12.479
									c0,0,18.233-119.003,14.396-150.673c-3.838-31.673-18.236-115.166-20.154-127.641c-1.918-12.48-3.12-36.234-7.678-47.029
									c-4.556-10.793-27.832-78.697-29.751-87.334c-1.919-8.637-0.956-19.668-2.396-24.231c-1.441-4.56-2.401-26.633-4.321-31.431
									c-1.92-4.8-4.316-15.113-4.316-15.113l-1.44-35.621c0,0-25.913,11.384-38.39,15.224
									C462.121,128.516,444.04,133.272,444.04,133.272"/>
							</g>
						</g>
						<g opacity="0.35" clip-path="url(#SB_SVGID_16_)">
							<g>
								<defs>
									<rect id="SB_SVGID_19_" x="225.792" y="445.435" width="164.195" height="206.704"/>
								</defs>
								<clipPath id="SB_SVGID_20_">
									<use xlink:href="#SB_SVGID_19_"  overflow="visible"/>
								</clipPath>
								<path clip-path="url(#SB_SVGID_20_)" fill="#897F76" d="M364.472,631.646c0,0,6.223,4.998,11.036,6.48
									c5.068,1.558,14.479,4.86,14.479,4.86s-2.826-22.868-6.91-50.763c-7.243-49.494-22.813-126.579-33.576-137.763
									c-16.237-16.87-49.583-5.814-58.221-1.015c-8.638,4.8-24.941,11.929-35.498,53.195c0,0-11.944,39.086-13.677,52.386
									c-1.735,13.299-8.962,44.519-9.251,49.146c-0.29,4.626-2.889,10.407-2.889,18.211s-1.293,16.898-1.293,16.898l-2.879,8.761
									c0,0,3.022,0.415,4.318-0.481c1.298-0.895,5.058-2.05,5.923-2.92c0.865-0.866,4.398-5.956,4.398-5.956
									s0.728-3.604,0.477-5.039c-0.249-1.435,1.482-7.508,2.641-11.552c1.158-4.049,1.158-6.938,1.158-6.938
									s2.998-3.166,2.599-4.335c-0.397-1.171,0.289-7.229,0.867-8.675c0.579-1.445,15.325-31.511,27.174-69.38
									c9.228-29.489,18.505-69.667,19.082-71.983c0.575-2.313,3.103-12.127,3.103-12.127s12.625-5.152,14.157-4.317
									c1.529,0.836,12.543,61.989,17.427,78.021c4.887,16.033,15.899,51.172,18.793,55.217c2.891,4.044,4.669,11.524,4.669,11.524
									s0.926,1.377,2.029,4.611c1.107,3.233,4.575,11.616,5.443,15.086c0.865,3.469,2.216,6.747,2.264,9.01
									c0.047,2.265-0.242,3.995,0.336,6.02C363.229,629.854,364.472,631.646,364.472,631.646"/>
							</g>
						</g>
						<g opacity="0.35" clip-path="url(#SB_SVGID_16_)">
							<g>
								<defs>
									<rect id="SB_SVGID_21_" x="61.576" y="151.446" width="157.678" height="513.791"/>
								</defs>
								<clipPath id="SB_SVGID_22_">
									<use xlink:href="#SB_SVGID_21_"  overflow="visible"/>
								</clipPath>
								<path clip-path="url(#SB_SVGID_22_)" fill="#897F76" d="M141.576,664.516c0,0,6.479-35.268,0.721-51.104
									c-5.757-15.834-3.599-63.34-12.237-77.018c-8.637-13.676-27.35-17.993-18.712-40.307
									c8.635-22.315,36.707-47.509,31.669-74.139c-5.038-26.634-11.517-49.664-8.637-51.104
									c2.877-1.439,38.148-14.396,42.467-17.996c4.319-3.598,54.702-9.356,39.588-48.226
									c-15.116-38.867-20.154-53.983-23.753-74.137c-3.598-20.155,12.235-61.902,12.235-61.902l5.762-0.719
									c0,0-49.667-4.319-59.745-5.76c-10.077-1.438-29.511-8.636-33.109-9.356c-3.599-0.72-8.638-2.879-8.638,0.72
									c0,3.598,8.638,5.758,11.516,7.198c2.878,1.438,30.952,7.917,30.952,7.917s4.319,2.159,4.319,8.639
									c0,6.477-3.6,14.394-9.358,23.752c-5.759,9.356-18.714,2.878-26.633,29.511c-7.918,26.633-12.235,47.506-15.115,66.94
									c-2.88,19.435-16.556,61.902-23.752,79.897c-7.199,17.993-20.876,73.417-19.435,86.374
									C63.12,476.652,65.28,509.763,66,519.84c0.719,10.077,3.598,65.501,3.598,70.538c0,5.038,12.957,28.07,16.556,34.549
									c3.597,6.479,6.479,10.796,7.918,17.274s2.159,21.596,2.159,21.596s11.517,1.438,20.873,1.438
									C126.463,665.235,141.576,664.516,141.576,664.516"/>
							</g>
						</g>
					</g>
				</g>
			</g>
		</g>
	</g>
	<g clip-path="url(#SB_SVGID_2_)">
		<defs>
			<rect id="SB_SVGID_23_" width="612" height="792"/>
		</defs>
		<clipPath id="SB_SVGID_24_">
			<use xlink:href="#SB_SVGID_23_"  overflow="visible"/>
		</clipPath>
		<g clip-path="url(#SB_SVGID_24_)">
			<g>
				<defs>
					<rect id="SB_SVGID_25_" x="41.53" y="99.016" width="529.878" height="544.648"/>
				</defs>
				<clipPath id="SB_SVGID_26_">
					<use xlink:href="#SB_SVGID_25_"  overflow="visible"/>
				</clipPath>
				<g opacity="0.5" clip-path="url(#SB_SVGID_26_)">
					<g>
						<defs>
							<rect id="SB_SVGID_27_" x="95.297" y="135.06" width="426.319" height="39.221"/>
						</defs>
						<clipPath id="SB_SVGID_28_">
							<use xlink:href="#SB_SVGID_27_"  overflow="visible"/>
						</clipPath>
						
							<path clip-path="url(#SB_SVGID_28_)" fill="none" stroke="#897F76" stroke-width="1.201" stroke-miterlimit="10" stroke-dasharray="2.894,1.447" d="
							M95.643,173.162c0,0,12.89-9.098,24.031-13.754c11.14-4.656,54.952-18.135,84.408-21.565
							c29.456-3.428,93.813-2.203,140.102-0.488c46.29,1.715,109.657,6.859,116.094,7.349c6.435,0.491,18.074,1.226,20.299,1.715
							c2.229,0.491,19.307,4.411,24.013,8.087c4.7,3.676,6.185,5.393,7.176,6.862c0.99,1.469,2.427,2.192,2.427,2.192l6.925,10.389"
							/>
					</g>
				</g>
				<g opacity="0.5" clip-path="url(#SB_SVGID_26_)">
					<g>
						<defs>
							<rect id="SB_SVGID_29_" x="93.605" y="112.114" width="422.085" height="43.194"/>
						</defs>
						<clipPath id="SB_SVGID_30_">
							<use xlink:href="#SB_SVGID_29_"  overflow="visible"/>
						</clipPath>
						
							<path clip-path="url(#SB_SVGID_30_)" fill="none" stroke="#897F76" stroke-width="1.201" stroke-miterlimit="10" stroke-dasharray="2.894,1.447" d="
							M94.188,155.166c0.256-1.054,0.98-4.582,1.97-5.805c0.989-1.225,14.109-8.823,37.873-16.418
							c23.764-7.596,68.813-18.133,98.519-19.847c29.703-1.716,89.851,2.94,133.416,2.45c43.564-0.491,106.441,8.331,124.016,12.251
							c17.572,3.921,25.211,15.178,25.211,15.178"/>
					</g>
				</g>
				<g opacity="0.5" clip-path="url(#SB_SVGID_26_)">
					<g>
						<defs>
							<rect id="SB_SVGID_31_" x="98.176" y="99.016" width="417.519" height="30.717"/>
						</defs>
						<clipPath id="SB_SVGID_32_">
							<use xlink:href="#SB_SVGID_31_"  overflow="visible"/>
						</clipPath>
						
							<path clip-path="url(#SB_SVGID_32_)" fill="none" stroke="#897F76" stroke-width="1.201" stroke-miterlimit="10" stroke-dasharray="2.894,1.447" d="
							M98.638,128.291c0,0,4.065-4.907,43.669-16.669c39.605-11.762,80.338-13.965,160.542-10.533
							c80.198,3.431,126.983,3.92,159.904,9.556c32.923,5.637,36.882,8.333,39.854,9.557c2.971,1.225,7.926,3.429,9.16,4.655
							c1.235,1.226,3.426,4.546,3.426,4.546"/>
					</g>
				</g>
				<g opacity="0.5" clip-path="url(#SB_SVGID_26_)">
					<g>
						<defs>
							<rect id="SB_SVGID_33_" x="352.038" y="592.846" width="219.37" height="32.463"/>
						</defs>
						<clipPath id="SB_SVGID_34_">
							<use xlink:href="#SB_SVGID_33_"  overflow="visible"/>
						</clipPath>
						
							<path clip-path="url(#SB_SVGID_34_)" fill="none" stroke="#897F76" stroke-width="1.195" stroke-miterlimit="10" stroke-dasharray="2.879,1.44" d="
							M571.291,616.533c0,0-27.808,5.523-56.949,6.631c-29.144,1.108-40.394,3.877-79.313-2.578
							c-38.921-6.456-54.416-9.408-59.949-11.806c-5.533-2.398-11.436-4.425-14.201-6.27c-2.768-1.844-6.088-4.061-6.272-4.797
							c-0.184-0.737-2.029-4.611-2.029-4.611"/>
					</g>
				</g>
				<g opacity="0.5" clip-path="url(#SB_SVGID_26_)">
					<g>
						<defs>
							<rect id="SB_SVGID_35_" x="359.167" y="610.075" width="211.193" height="22.728"/>
						</defs>
						<clipPath id="SB_SVGID_36_">
							<use xlink:href="#SB_SVGID_35_"  overflow="visible"/>
						</clipPath>
						
							<path clip-path="url(#SB_SVGID_36_)" fill="none" stroke="#897F76" stroke-width="1.195" stroke-miterlimit="10" stroke-dasharray="2.879,1.44" d="
							M570.229,623.906c0,0-36.89,8.299-68.614,8.299c-31.726,0-62.896-2.214-93.885-8.669c-30.99-6.455-42.059-9.594-43.902-10.699
							c-1.843-1.104-4.424-2.213-4.424-2.213"/>
					</g>
				</g>
				<g opacity="0.5" clip-path="url(#SB_SVGID_26_)">
					<g>
						<defs>
							<rect id="SB_SVGID_37_" x="43.133" y="626.639" width="201.097" height="17.025"/>
						</defs>
						<clipPath id="SB_SVGID_38_">
							<use xlink:href="#SB_SVGID_37_"  overflow="visible"/>
						</clipPath>
						
							<path clip-path="url(#SB_SVGID_38_)" fill="none" stroke="#897F76" stroke-width="1.195" stroke-miterlimit="10" stroke-dasharray="2.879,1.44" d="
							M243.807,627.062c0,0-2.779,2.779-7.868,3.703c-2.772,0.503-4.748,0.281-4.748,0.281s-41.765,5.964-53.104,7.587
							c-11.339,1.622-36.335,6.479-72.433,3.471c-36.1-3.008-62.446-6.374-62.446-6.374"/>
					</g>
				</g>
				<g opacity="0.5" clip-path="url(#SB_SVGID_26_)">
					<g>
						<defs>
							<rect id="SB_SVGID_39_" x="41.53" y="617.178" width="205.664" height="17.96"/>
						</defs>
						<clipPath id="SB_SVGID_40_">
							<use xlink:href="#SB_SVGID_39_"  overflow="visible"/>
						</clipPath>
						
							<path clip-path="url(#SB_SVGID_40_)" fill="none" stroke="#897F76" stroke-width="1.195" stroke-miterlimit="10" stroke-dasharray="2.879,1.44" d="
							M246.583,617.343c0,0,1.388,4.858-24.066,8.331c-25.455,3.471-58.548,11.339-107.838,8.102
							c-49.294-3.239-71.291-6.05-72.672-7.885"/>
					</g>
				</g>
			</g>
		</g>
		<g opacity="0.5" clip-path="url(#SB_SVGID_24_)">
			<g>
				<defs>
					<rect id="SB_SVGID_41_" x="85.033" y="116.261" width="14.003" height="83.719"/>
				</defs>
				<clipPath id="SB_SVGID_42_">
					<use xlink:href="#SB_SVGID_41_"  overflow="visible"/>
				</clipPath>
				
					<path clip-path="url(#SB_SVGID_42_)" fill="none" stroke="#897F76" stroke-width="0.797" stroke-miterlimit="10" stroke-dasharray="2.879,1.44" d="
					M96.714,116.306c0,0,0.45,3.896,0.941,5.857c0.494,1.961,0.983,4.413,0.983,6.127c0,1.715-0.249,4.165-0.737,5.637
					c-0.489,1.471-3.115,8.479-2.661,9.998c0.456,1.518,2.172,4.947,2.172,6.907c0,1.961-0.737,13.233-1.471,16.173
					c-0.733,2.942-4.162,15.926-5.636,18.377c-1.47,2.451-2.207,5.636-2.45,7.106c-0.245,1.472-2.449,7.352-2.449,7.352"/>
			</g>
		</g>
		<g opacity="0.5" clip-path="url(#SB_SVGID_24_)">
			<g>
				<defs>
					<rect id="SB_SVGID_43_" x="228.272" y="445.881" width="162.746" height="206.398"/>
				</defs>
				<clipPath id="SB_SVGID_44_">
					<use xlink:href="#SB_SVGID_43_"  overflow="visible"/>
				</clipPath>
				
					<path clip-path="url(#SB_SVGID_44_)" fill="none" stroke="#897F76" stroke-width="0.797" stroke-miterlimit="10" stroke-dasharray="2.879,1.44" d="
					M228.67,652.278v-8.995c0-1.082,2.878-5.759,3.6-7.197c0.719-1.439,0-3.599-1.079-5.04c-1.082-1.438-0.36-3.599,1.079-5.398
					c1.441-1.799,1.08-5.039,1.08-5.039l-1.441-2.52c0,0,4.679-15.835,5.038-20.874c0.363-5.036,8.279-39.228,13.317-59.38
					c5.039-20.156,8.637-56.504,29.87-77.379c13.475-13.246,45.708-16.916,60.824-12.234c15.115,4.678,17.274,24.832,20.873,39.227
					s19.075,91.773,20.515,98.971c1.44,7.198,8.278,55.782,8.278,55.782"/>
			</g>
		</g>
	</g>
</g>
  <g id="CUSTOM"></g>
</svg>
