<?xml version="1.0" encoding="utf-8"?>
<!-- Generator: Adobe Illustrator 16.0.0, SVG Export Plug-In . SVG Version: 6.00 Build 0)  -->
<!DOCTYPE svg PUBLIC "-//W3C//DTD SVG 1.1//EN" "http://www.w3.org/Graphics/SVG/1.1/DTD/svg11.dtd">
<svg version="1.1" xmlns="http://www.w3.org/2000/svg" xmlns:xlink="http://www.w3.org/1999/xlink" x="0px" y="0px" width="612px"
	 height="792px" viewBox="0 0 612 792" enable-background="new 0 0 612 792" xml:space="preserve">
<g id="CUSTOM">
</g>
<g id="GREY_BODY">
	<g>
		<path fill="#68605E" d="M358.223,100.173c-6.705,1.412-35.655,3-56.484,3.176c-20.828,0.176-61.25-0.53-62.31-0.176
			c-1.06,0.354-4.414,3.354-5.296,4.237c-0.882,0.882-2.293,0.706-3.707,0.706c-1.412,0-3.706,1.941-4.943,2.118
			c-1.236,0.177-5.119-0.353-6.354,0.353c-1.236,0.706-7.237,7.238-7.588,7.767c-0.354,0.53-2.828,1.06-3.179,1.766
			c-0.352,0.707-2.825,1.765-5.119,1.765c-2.295,0-9.36,1.412-9.36,1.412s-2.115,1.059-2.823,1.588
			c-0.708,0.53-5.647,1.766-7.06,2.825c-1.413,1.058-4.06,3.531-4.06,3.531s-8.476,1.235-9.002,1.235
			c-0.529,0-4.943,1.589-6.002,2.472c-1.059,0.882-19.238,11.119-31.065,17.828c-11.828,6.708-31.07,19.065-34.424,21.888
			c-3.352,2.825-7.415,9.708-8.649,11.297c-1.235,1.59-8.827,13.768-9.354,15.004c-0.53,1.236-4.238,12.356-4.591,13.592
			c-0.353,1.236-10.768,22.594-16.771,37.597c-6.001,15.003-15.887,41.303-17.476,45.717c-1.588,4.413-5.474,20.122-6.355,24.182
			c-0.883,4.062-5.823,15.358-7.415,18.889c-1.588,3.529-4.587,17.827-4.587,17.827l-1.939,1.765c0,0-0.177,3.53-0.528,5.649
			c-0.354,2.119-1.414,3.353-2.294,4.764c-0.883,1.414-2.649,3.885-2.473,4.767c0.174,0.882,4.768,3.178,6.884,4.062
			c2.115,0.88,13.592,5.823,16.417,6.884c2.824,1.06,14.825,4.941,30.006,11.118c15.182,6.181,42.014,10.77,47.663,11.298
			c5.649,0.529,13.942-1.941,15.885-2.648c1.943-0.703,4.061,1.239,4.59,1.589c0.53,0.355,4.413-1.589,4.413-1.589
			s-0.177-12.001-0.353-13.414c-0.177-1.412,0.353-4.767,0.885-5.825c0.527-1.058,2.292-4.943,2.292-4.943s2.824,13.592,4.235,23.83
			c1.411,10.237-1.056,38.128-1.411,43.775c-0.353,5.649-4.238,31.946-5.296,49.951c-1.056,18.005-1.941,52.955-1.941,52.955
			s-3.176,7.413-3.708,9.71c-0.529,2.295-3.563,44.829-3.916,53.656c-0.081,2.007-0.423,4.675-0.743,7.07
			c-1.087,8.14-1.776,17.356-2.047,18.176c-0.356,1.058-0.528,14.298-0.528,15.179c0,0.884,2.117,1.941,6.529,3.886
			c4.413,1.941,36.015,6.529,45.017,7.234c9.002,0.706,155.51,0.53,210.407,0.53c54.896,0,71.318-3,78.201-4.413
			c6.884-1.41,16.24-7.237,16.591-7.941c0.352-0.709-0.351-10.239-0.351-10.945s-0.529-4.942-1.413-7.06
			c-0.885-2.12-2.294-19.419-3.354-31.242c-1.058-11.831-2.47-42.896-2.646-44.307c-0.176-1.412-3.884-9.707-3.884-9.707
			s0.353-46.423,0-51.192c-0.354-4.766-4.413-32.83-5.649-43.598c-1.238-10.769-2.297-32.655-2.824-41.307
			c-0.532-8.647-1.941-55.425-1.941-56.836c0-1.412,0.53-4.237,1.235-4.412c0.706-0.176,3.176,1.587,4.06,3.176
			c0.88,1.589,1.236,5.12,1.236,6.003c0,0.882-0.204,14.047-0.028,19.343c0.008,0.253,0.014,0.383,0.025,0.635
			c0.278,5.443,1.948,15.373,2.119,16.737c0.178,1.414,4.237,12.531,4.237,12.531s5.296,0.884,7.59,0.884s19.063-2.647,25.771-4.236
			c6.708-1.59,25.418-7.235,31.597-8.295c6.177-1.06,31.419-13.77,37.597-16.24c6.178-2.473,19.771-7.943,20.299-8.649
			c0.53-0.709-4.941-10.591-5.294-11.475c-0.354-0.882-0.53-3-1.058-3.705c-0.532-0.708-1.766-1.767-1.766-1.767
			s-1.766-4.589-2.118-6.708c-0.356-2.117-5.12-15.356-7.592-23.475c-2.47-8.121-25.594-65.312-30.359-76.078
			c-4.768-10.768-20.359-42.935-21.949-46.289c-1.588-3.354,0.591-6.489-1.529-13.904c-2.117-7.415-21.358-23.829-33.186-31.596
			c-11.826-7.766-44.483-21.535-49.955-23.477c-5.472-1.941-22.593-12.885-23.828-12.885s-9.886-2.119-10.416-2.647
			c-0.529-0.529-4.235-2.473-6.529-3.178c-2.293-0.707-7.415-4.061-9.002-5.472c-1.589-1.413-6.887-4.943-8.65-5.119
			c-1.766-0.176-6.178-1.059-8.649-2.118s-7.943-7.59-7.943-7.59S364.933,98.761,358.223,100.173z"/>
	</g>
</g>
<g id="GREY_HEATHER">
	<g>
		<defs>
			<path id="SVGID_1_" d="M358.223,100.173c-6.705,1.412-35.655,3-56.484,3.176c-20.828,0.176-61.25-0.53-62.31-0.176
				c-1.06,0.354-4.414,3.354-5.296,4.237c-0.882,0.882-2.293,0.706-3.707,0.706c-1.412,0-3.706,1.941-4.943,2.118
				c-1.236,0.177-5.119-0.353-6.354,0.353c-1.236,0.706-7.237,7.238-7.588,7.767c-0.354,0.53-2.828,1.06-3.179,1.766
				c-0.352,0.707-2.825,1.765-5.119,1.765c-2.295,0-9.36,1.412-9.36,1.412s-2.115,1.059-2.823,1.588
				c-0.708,0.53-5.647,1.766-7.06,2.825c-1.413,1.058-4.06,3.531-4.06,3.531s-8.476,1.235-9.002,1.235
				c-0.529,0-4.943,1.589-6.002,2.472c-1.059,0.882-19.238,11.119-31.065,17.828c-11.828,6.708-31.07,19.065-34.424,21.888
				c-3.352,2.825-7.415,9.708-8.649,11.297c-1.235,1.59-8.827,13.768-9.354,15.004c-0.53,1.236-4.238,12.356-4.591,13.592
				c-0.353,1.236-10.768,22.594-16.771,37.597c-6.001,15.003-15.887,41.303-17.476,45.717c-1.588,4.413-5.474,20.122-6.355,24.182
				c-0.883,4.062-5.823,15.358-7.415,18.889c-1.588,3.529-4.587,17.827-4.587,17.827l-1.939,1.765c0,0-0.177,3.53-0.528,5.649
				c-0.354,2.119-1.414,3.353-2.294,4.764c-0.883,1.414-2.649,3.885-2.473,4.767c0.174,0.882,4.768,3.178,6.884,4.062
				c2.115,0.88,13.592,5.823,16.417,6.884c2.824,1.06,14.825,4.941,30.006,11.118c15.182,6.181,42.014,10.77,47.663,11.298
				c5.649,0.529,13.942-1.941,15.885-2.648c1.943-0.703,4.061,1.239,4.59,1.589c0.53,0.355,4.413-1.589,4.413-1.589
				s-0.177-12.001-0.353-13.414c-0.177-1.412,0.353-4.767,0.885-5.825c0.527-1.058,2.292-4.943,2.292-4.943
				s2.824,13.592,4.235,23.83c1.411,10.237-1.056,38.128-1.411,43.775c-0.353,5.649-4.238,31.946-5.296,49.951
				c-1.056,18.005-1.941,52.955-1.941,52.955s-3.176,7.413-3.708,9.71c-0.529,2.295-3.563,44.829-3.916,53.656
				c-0.081,2.007-0.423,4.675-0.743,7.07c-1.087,8.14-1.776,17.356-2.047,18.176c-0.356,1.058-0.528,14.298-0.528,15.179
				c0,0.884,2.117,1.941,6.529,3.886c4.413,1.941,36.015,6.529,45.017,7.234c9.002,0.706,155.51,0.53,210.407,0.53
				c54.896,0,71.318-3,78.201-4.413c6.884-1.41,16.24-7.237,16.591-7.941c0.352-0.709-0.351-10.239-0.351-10.945
				s-0.529-4.942-1.413-7.06c-0.885-2.12-2.294-19.419-3.354-31.242c-1.058-11.831-2.47-42.896-2.646-44.307
				c-0.176-1.412-3.884-9.707-3.884-9.707s0.353-46.423,0-51.192c-0.354-4.766-4.413-32.83-5.649-43.598
				c-1.238-10.769-2.297-32.655-2.824-41.307c-0.532-8.647-1.941-55.425-1.941-56.836c0-1.412,0.53-4.237,1.235-4.412
				c0.706-0.176,3.176,1.587,4.06,3.176c0.88,1.589,1.236,5.12,1.236,6.003c0,0.882-0.204,14.047-0.028,19.343
				c0.008,0.253,0.014,0.383,0.025,0.635c0.278,5.443,1.948,15.373,2.119,16.737c0.178,1.414,4.237,12.531,4.237,12.531
				s5.296,0.884,7.59,0.884s19.063-2.647,25.771-4.236c6.708-1.59,25.418-7.235,31.597-8.295c6.177-1.06,31.419-13.77,37.597-16.24
				c6.178-2.473,19.771-7.943,20.299-8.649c0.53-0.709-4.941-10.591-5.294-11.475c-0.354-0.882-0.53-3-1.058-3.705
				c-0.532-0.708-1.766-1.767-1.766-1.767s-1.766-4.589-2.118-6.708c-0.356-2.117-5.12-15.356-7.592-23.475
				c-2.47-8.121-25.594-65.312-30.359-76.078c-4.768-10.768-20.359-42.935-21.949-46.289c-1.588-3.354,0.591-6.489-1.529-13.904
				c-2.117-7.415-21.358-23.829-33.186-31.596c-11.826-7.766-44.483-21.535-49.955-23.477c-5.472-1.941-22.593-12.885-23.828-12.885
				s-9.886-2.119-10.416-2.647c-0.529-0.529-4.235-2.473-6.529-3.178c-2.293-0.707-7.415-4.061-9.002-5.472
				c-1.589-1.413-6.887-4.943-8.65-5.119c-1.766-0.176-6.178-1.059-8.649-2.118s-7.943-7.59-7.943-7.59
				S364.933,98.761,358.223,100.173z"/>
		</defs>
		<clipPath id="SVGID_2_">
			<use xlink:href="#SVGID_1_"  overflow="visible"/>
		</clipPath>
		<g display="none" clip-path="url(#SVGID_2_)">
			
				<image display="inline" overflow="visible" width="679" height="690" xlink:href="BEF21266.png"  transform="matrix(1 0 0 1 -23 35)">
			</image>
		</g>
		<g display="none" clip-path="url(#SVGID_2_)">
			
				<image display="inline" overflow="visible" width="680" height="690" xlink:href="BEF2126A.png"  transform="matrix(1 0 0 1 -626 35)">
			</image>
		</g>
		<g clip-path="url(#SVGID_2_)">
			
				<image overflow="visible" width="1511" height="1641" xlink:href="BEF2126D.png"  transform="matrix(0.3891 0 0 0.3891 -1.0938 97.1489)">
			</image>
		</g>
	</g>
</g>
<g id="SHADING">
	<g>
		<path opacity="0.1" fill="#897F76" d="M510.449,270.033c0,0-3.588,19.314-8.557,26.489c-4.965,7.175-12.692,12.694-14.071,13.798
			c-1.381,1.103-4.139,3.311-4.139,3.311s-9.385,22.351-11.314,28.146c-1.932,5.793-3.138,15.693-3.138,15.693
			s-2.285-1.94-2.856-1.674c-0.571,0.264-0.815,1.398-0.815,1.398s5.15-20.11,6.81-22.869c1.657-2.758,8.555-20.969,9.383-23.729
			c0.828-2.759,1.932-6.625,3.587-12.417c1.655-5.794,9.104-28.145,9.104-28.145s-9.38,35.597-9.38,37.527
			c0,1.932,8.55-4.967,10.208-7.175c1.657-2.207,6.899-11.038,6.899-12.969S510.449,270.033,510.449,270.033z"/>
		<path opacity="0.1" fill="#897F76" d="M473.344,399.138c0,0,6.894,2.98,16.683,1.413c5.513-0.884,16.005-2.208,16.005-2.208
			s-7.726,4.415-14.071,4.967c-6.346,0.55-1.934,5.244,0,6.072c1.932,0.828,6.081,3.986,6.081,3.986
			c0-0.001-8.95,1.563-12.427,1.735c-2.535,0.125-6.78-0.782-7.591-0.884c0,0-1.239-3.184-1.515-4.287
			c-0.277-1.104-1.894-5.367-2.53-7.177C473.882,402.479,473.344,399.138,473.344,399.138z"/>
		<path opacity="0.1" fill="#897F76" d="M594.883,364.68c0,0-14.349,8.002-21.8,10.76c-7.447,2.758-28.695,10.762-33.662,12.418
			c-4.966,1.653-17.937,5.518-20.696,6.072c-2.758,0.552,32.01-6.07,50.22-14.076c18.214-8,25.388-11.036,25.663-11.863
			C594.883,367.162,594.883,364.68,594.883,364.68z"/>
		<path opacity="0.1" fill="#897F76" d="M499.963,342.328c0,0-7.452,25.387-9.105,32.008c-1.657,6.622-5.243,20.146-5.243,20.146
			s1.379,1.93,2.207,2.757c0.828,0.829-4.69,3.036-5.52,1.656c-0.826-1.379,0-9.107,0.829-10.762
			C483.958,386.477,499.963,342.328,499.963,342.328z"/>
		<path opacity="0.1" fill="#897F76" d="M475.405,390.063c0,0,1.656-12.968,3.586-17.658c1.932-4.689,8.278-19.315,9.935-24.834
			c1.654-5.518,8.553-23.179,6.621-22.075c-1.935,1.104-13.521,25.388-16.833,30.631c-3.309,5.242-6.297,10.479-7.123,14.618
			l0.051,13.903l0.278,3.602C472.748,389.354,475.405,390.063,475.405,390.063z"/>
		<path opacity="0.1" fill="#897F76" d="M509.896,183.94c0,0-0.828,12.417-1.934,16.28c-1.102,3.863-4.689,17.107-4.689,21.798
			c0,4.691-1.104,17.66-1.104,17.66s2.76-20.694,4.414-25.663c1.656-4.966,5.795-19.315,6.07-21.797
			c0.277-2.484,0.553-8.555-0.551-9.936C511,180.903,509.896,183.94,509.896,183.94z"/>
		
			<radialGradient id="SVGID_3_" cx="39.52" cy="90.5625" r="236.5444" gradientTransform="matrix(-0.9746 0 0 0.9746 586.592 9.8804)" gradientUnits="userSpaceOnUse">
			<stop  offset="0" style="stop-color:#FFFFFF"/>
			<stop  offset="1" style="stop-color:#897F76"/>
		</radialGradient>
		<path opacity="0.2" fill="url(#SVGID_3_)" d="M497.202,367.161c0.176-0.61,0.546-0.867,0.967-0.966
			c6.654-27.132,29.63-121.148,31.044-131.76c1.655-12.417-1.381-22.074-1.932-20.694c-0.553,1.38-16.832,23.455-20.146,28.698
			c-3.312,5.242-5.794,17.109-5.794,17.109s0.828-12.144,1.381-14.35c0.551-2.208,9.932-15.453,14.348-20.695
			c4.414-5.242,13.672-16.367,13.672-16.367l8.684,18.349c0,0,6.894,34.442,12.136,72.246c5.246,37.802,2.484,75.606,2.484,75.606
			l-4.139-47.185c0,0-0.553,3.034-1.935,9.657c-1.378,6.623-7.447,24.008-7.447,24.008s5.794-34.218,6.621-52.152
			c0.826-17.936-3.588-43.047-5.795-57.395c-2.207-14.35-8.552-30.63-8.552-30.63s-0.828,12.969-1.655,28.699
			c-0.697,13.237-24.852,92.158-32.484,116.811c0.788,0.037,1.577,0.46,1.577,0.46s-0.275,6.348-1.381,8.555
			c-1.104,2.207-2.207,9.382,0.277,9.656c2.482,0.277,19.868-17.108,19.868-17.108s-22.628,25.938-25.39,25.11
			C490.857,391.996,496.649,369.092,497.202,367.161z"/>
		<path opacity="0.15" fill="#897F76" d="M398.188,132.431c0,0-11.412,5.578-14.707,9.634c-3.294,4.058-9.891,10.904-12.17,12.171
			c-2.283,1.268-8.114,1.775-8.114,1.775s15.975-3.295,23.329-11.917C393.878,135.474,398.188,132.431,398.188,132.431z"/>
		<path opacity="0.1" fill="#897F76" d="M75.669,219.398c0,0-0.253,17.749,0.761,20.793c1.013,3.041,22.82,36.764,22.82,36.764
			s-19.525-19.775-22.82-31.439C73.134,233.852,75.669,219.398,75.669,219.398z"/>
		<path opacity="0.1" fill="#897F76" d="M67.556,239.685c0,0-3.296,26.876-3.043,32.706c0.254,5.834,1.522,15.976,3.043,18.003
			c1.52,2.028-0.255,3.297-0.255,3.297l-3.295,4.056c0,0-2.536-20.031-2.03-24.341c0.507-4.31,1.013-25.862,2.536-27.891
			c1.522-2.03,2.789-6.593,2.789-6.593L67.556,239.685z"/>
		<path opacity="0.1" fill="#897F76" d="M139.818,349.725c0,0-11.412-7.859-12.677-13.691c-1.266-5.833-2.535-18.255-2.535-18.255
			s-1.776-1.269-1.776,0.76s1.224,17.121,2.79,20.031C129.169,345.161,139.818,349.725,139.818,349.725z"/>
		<path opacity="0.1" fill="#897F76" d="M40.17,313.721c0,0,2.029,7.861,2.791,10.649c0.76,2.792,2.026,8.623,2.026,10.396
			c0,1.775-1.012,4.563-1.012,4.563s-0.506-11.156-2.536-14.453C39.41,321.582,40.17,313.721,40.17,313.721z"/>
		<path opacity="0.1" fill="#897F76" d="M128.821,337.991c0,0,6.339-4.309,7.861-3.549c1.521,0.761,3.043,6.34,3.043,7.101
			c0,0.759,1.268,6.083,1.268,6.083s-2.79-9.633-5.324-9.126C133.132,339.005,128.821,337.991,128.821,337.991z"/>
		<path opacity="0.25" fill="#897F76" d="M22.675,362.911c0.255-2.029,2.032-1.521,2.032-1.521s1.013,2.28,1.521,3.041
			c0.505,0.762,21.043,9.636,40.06,16.23c19.015,6.591,29.158,10.649,39.808,11.916c10.649,1.268,30.174,1.774,30.174,1.774
			c0.761-1.016-0.253-3.041-0.253-3.041s1.773-12.426,4.818-16.737c3.042-4.309,3.323-7.421,3.323-7.421l2.03,14.021
			c0,0-0.204,1.024-1.017,1.936c-0.255,0.285-0.874,3.113-1.841,5.138c-0.282,0.584-0.521,2.168-0.521,2.168l0.561-10.01
			c0,0-0.508-1.521-2.282,0.762c-1.775,2.281-4.818,20.79-4.818,20.79s-0.255-2.222-0.323-4.283
			c-0.746,0.065-2.669,0.226-3.483,0.226c-1.013,0-20.03-1.774-25.354-2.789c-5.325-1.013-15.974-3.548-19.522-4.057
			c-3.549-0.508-18.765-6.339-22.313-7.862c-3.549-1.518-39.808-14.959-41.584-14.959C21.917,368.234,22.422,364.939,22.675,362.911
			z"/>
		<path opacity="0.15" fill="#897F76" d="M486.95,648.019c0,0-18.268,8.645-26.498,10.349c-8.228,1.703-25.534,4.257-25.534,4.257
			s30.074,2.271,40.569-2.837c10.497-5.106,11.743-7.125,11.743-7.125L486.95,648.019z"/>
		<path opacity="0.35" fill="#897F76" d="M478.326,651.844c0,0-15.889,7.092-71.777,7.943c-55.889,0.849-171.069,1.42-198.307,0
			c-27.234-1.42-59.292-4.539-59.292-4.539s69.791,8.512,177.029,6.81C433.219,660.355,478.326,651.844,478.326,651.844z"/>
		<path opacity="0.1" fill="#897F76" d="M105.154,328.979c0,0-12.254-1.046-14.603-0.782c-2.35,0.261-13.562,2.086-15.386,1.043
			c-1.827-1.043-7.565-5.736-7.826-8.346c-0.258-2.607-0.258-9.128-0.258-9.128s-1.306,4.694-3.132,3.913
			c-1.825-0.782-3.911-3.129-3.911-3.129s1.566,6.258,2.085,7.563c0.522,1.303,4.173,6.259,3.651,7.562
			c-0.521,1.305-6.259,7.04-6.259,7.04s5.215-2.346,8.607-2.346c3.39,0,7.823,7.565,7.823,7.565l1.566-4.955l7.563,2.867
			c0,0,0.779-6.52,5.996-7.04C96.286,330.281,105.154,328.979,105.154,328.979z"/>
		
			<radialGradient id="SVGID_4_" cx="503.9814" cy="368.6235" r="71.8974" gradientTransform="matrix(-0.9746 0 0 0.9746 586.592 9.8804)" gradientUnits="userSpaceOnUse">
			<stop  offset="0" style="stop-color:#FFFFFF"/>
			<stop  offset="1" style="stop-color:#897F76"/>
		</radialGradient>
		<path opacity="0.25" fill="url(#SVGID_4_)" d="M41.947,343.893c-0.76-2.027-1.776-4.056-1.776-4.056s3.554,2.281,3.806,3.802
			c0.252,1.521,1.522,8.115,2.027,10.143c0.508,2.03,1.776,6.339,1.776,6.339c0.632,2.122,5.741,4.584,7.304,4.584
			s3.912,2.606,3.912,3.651c0,1.043,1.826,3.389,2.869,3.652c1.042,0.259,5.475,3.128,5.475,3.128s1.043-3.912,0.522-4.956
			c-0.522-1.043,3.653-1.825,4.954-1.825c1.305,0,4.174,0.52,5.219,1.043c1.042,0.521,3.649,2.346,3.649,2.346
			s-0.261-5.738-3.649-6.259c-3.392-0.52-9.652-1.303-10.695-1.825c-1.042-0.522-3.91-4.432-3.91-4.432l4.433-5.478
			c0,0,5.738,3.911,6.781,3.389c1.042-0.521,5.217-6.52,5.217-6.52s-1.306,8.085,0.257,9.388c1.567,1.305,6,4.173,6.783,5.999
			c0.784,1.825-0.522,10.693,1.566,13.562c2.086,2.868,3.649,5.998,3.649,5.998s9.126,0.261,10.953-1.042
			c1.825-1.307,9.648-4.956,10.693-4.956c1.042,0,4.435,3.129,8.866,1.824c4.433-1.303,5.998,0,8.865-3.39
			c2.871-3.391,5.739-5.997,5.739-5.997s-11.476,14.082-11.998,15.383c-0.52,1.306-6.518,1.306-8.344,1.306
			s-17.732-1.564-17.732-1.564s-9.648-1.303-11.998-2.347c-2.345-1.045-15.646-7.042-17.994-7.565
			c-2.346-0.519-12.254-4.954-13.559-5.476c-1.305-0.521-5.477-1.042-7.302-1.564c-1.826-0.52-4.435-3.13-4.435-4.434
			s2.609-3.389,2.609-4.432c0-0.544-1.636-2.069-2.628-5.792C43.156,353.59,42.662,345.808,41.947,343.893z"/>
		<path opacity="0.1" fill="#897F76" d="M124.975,342.539c0,0-7.563-9.649-8.607-11.475c-1.043-1.825-4.173-14.605-4.173-14.605
			l1.305,16.693c0,0-7.826-3.393-9.389-3.393c-1.564,0-3.391,1.826-3.391,1.826s10.955,4.696,13.303,6.781
			c2.346,2.084,3.652,4.694,2.346,4.694c-1.305,0-5.215,2.084-5.215,2.084s7.04,4.956,9.647,2.87
			C123.409,345.929,124.975,342.539,124.975,342.539z"/>
		<g opacity="0.25">
			<path opacity="0.5" fill="#524A48" stroke="#524A48" stroke-width="1.6213" d="M484.214,400.121
				c-0.444,0-0.872-0.006-1.285-0.018c-0.068-0.001-0.12-0.059-0.119-0.125c0.002-0.068,0.058-0.13,0.125-0.118
				c0.515,0.014,1.055,0.016,1.622,0.016c0.066,0,0.121,0.056,0.121,0.122s-0.055,0.121-0.121,0.121
				C484.44,400.119,484.328,400.119,484.214,400.121z M486.181,400.083c-0.065,0-0.119-0.052-0.122-0.117
				c-0.001-0.067,0.051-0.123,0.117-0.126c0.537-0.02,1.08-0.048,1.617-0.083c0.057-0.001,0.125,0.046,0.129,0.114
				c0.005,0.066-0.047,0.125-0.113,0.13c-0.54,0.035-1.085,0.062-1.623,0.082H486.181z M481.311,400.029c-0.003,0-0.005,0-0.008,0
				c-0.54-0.036-1.072-0.082-1.623-0.144c-0.068-0.007-0.115-0.067-0.107-0.134c0.006-0.063,0.059-0.108,0.12-0.108
				c0.005,0,0.01,0,0.013,0.001c0.55,0.059,1.077,0.106,1.613,0.141c0.066,0.005,0.119,0.063,0.114,0.13
				C481.428,399.98,481.374,400.029,481.311,400.029z M489.418,399.874c-0.063,0-0.115-0.047-0.121-0.11
				c-0.005-0.068,0.044-0.127,0.11-0.133c0.522-0.046,1.06-0.101,1.612-0.16c0.074-0.018,0.128,0.039,0.134,0.105
				c0.008,0.068-0.039,0.129-0.105,0.135c-0.556,0.063-1.096,0.117-1.618,0.163C489.425,399.874,489.422,399.874,489.418,399.874z
				 M478.085,399.662c-0.006,0-0.012,0-0.021-0.002c-0.546-0.092-1.084-0.199-1.599-0.321c-0.065-0.016-0.106-0.08-0.091-0.147
				c0.017-0.066,0.081-0.104,0.147-0.09c0.509,0.122,1.042,0.228,1.584,0.318c0.066,0.011,0.11,0.074,0.1,0.141
				C478.196,399.619,478.145,399.662,478.085,399.662z M492.646,399.517c-0.061,0-0.112-0.045-0.12-0.106
				c-0.01-0.066,0.037-0.128,0.104-0.136c0.524-0.068,1.058-0.145,1.604-0.229c0.068-0.009,0.13,0.035,0.14,0.102
				c0.009,0.066-0.035,0.13-0.102,0.14c-0.55,0.084-1.086,0.16-1.61,0.228C492.656,399.517,492.65,399.517,492.646,399.517z
				 M495.856,399.028c-0.059,0-0.109-0.041-0.121-0.101c-0.011-0.066,0.033-0.13,0.1-0.142c0.522-0.09,1.054-0.185,1.597-0.286
				c0.068-0.015,0.13,0.031,0.143,0.099c0.011,0.066-0.032,0.129-0.099,0.142c-0.543,0.102-1.076,0.196-1.599,0.287
				C495.87,399.028,495.862,399.028,495.856,399.028z M474.934,398.898c-0.013,0-0.025-0.001-0.04-0.006
				c-0.752-0.255-1.238-0.486-1.516-0.635c-0.059-0.033-0.08-0.106-0.049-0.166c0.032-0.058,0.106-0.079,0.166-0.05
				c0.219,0.119,0.702,0.358,1.478,0.619c0.063,0.022,0.097,0.091,0.076,0.155C475.031,398.867,474.983,398.898,474.934,398.898z
				 M499.048,398.429c-0.057,0-0.107-0.039-0.119-0.099c-0.014-0.064,0.029-0.13,0.096-0.142c0.52-0.106,1.048-0.218,1.586-0.335
				c0.063-0.016,0.13,0.029,0.145,0.094c0.014,0.065-0.027,0.13-0.094,0.145c-0.538,0.117-1.067,0.228-1.59,0.334
				C499.063,398.427,499.056,398.429,499.048,398.429z M502.219,397.736c-0.055,0-0.105-0.037-0.118-0.095
				c-0.016-0.064,0.025-0.13,0.092-0.146c0.517-0.12,1.042-0.245,1.577-0.377c0.06-0.011,0.13,0.025,0.146,0.091
				c0.017,0.064-0.023,0.131-0.09,0.146c-0.535,0.132-1.061,0.257-1.58,0.377C502.238,397.735,502.229,397.736,502.219,397.736z
				 M505.37,396.962c-0.054,0-0.104-0.036-0.119-0.092c-0.016-0.065,0.024-0.131,0.089-0.149c0.518-0.131,1.039-0.269,1.569-0.413
				c0.064-0.019,0.131,0.021,0.148,0.085s-0.021,0.131-0.085,0.149c-0.531,0.144-1.055,0.282-1.572,0.417
				C505.391,396.961,505.38,396.962,505.37,396.962z M508.507,396.114c-0.055,0-0.104-0.035-0.118-0.088
				c-0.019-0.065,0.02-0.133,0.085-0.15c0.513-0.144,1.032-0.294,1.558-0.45c0.074-0.016,0.133,0.019,0.152,0.083
				c0.019,0.065-0.02,0.133-0.083,0.152c-0.528,0.155-1.048,0.305-1.561,0.45C508.528,396.112,508.518,396.114,508.507,396.114z
				 M511.624,395.197c-0.053,0-0.1-0.033-0.117-0.087c-0.02-0.063,0.018-0.132,0.082-0.152c0.509-0.155,1.026-0.313,1.549-0.478
				c0.066-0.024,0.133,0.014,0.151,0.079c0.021,0.063-0.014,0.133-0.079,0.152c-0.522,0.165-1.04,0.327-1.552,0.481
				C511.647,395.196,511.635,395.197,511.624,395.197z M514.719,394.225c-0.05,0-0.1-0.033-0.115-0.084
				c-0.021-0.065,0.015-0.133,0.078-0.153c0.375-0.122,0.753-0.246,1.135-0.373c0.136-0.045,0.272-0.09,0.408-0.134
				c0.061-0.025,0.135,0.014,0.153,0.078c0.021,0.065-0.014,0.133-0.077,0.154c-0.136,0.044-0.272,0.088-0.407,0.134
				c-0.383,0.127-0.761,0.25-1.137,0.372C514.744,394.224,514.731,394.225,514.719,394.225z M517.805,393.207
				c-0.051,0-0.098-0.032-0.115-0.084c-0.021-0.063,0.013-0.131,0.077-0.153l1.539-0.515c0.063-0.023,0.132,0.011,0.153,0.078
				c0.021,0.063-0.012,0.131-0.077,0.153l-1.539,0.515C517.83,393.206,517.817,393.207,517.805,393.207z M520.883,392.176
				c-0.051,0-0.098-0.032-0.115-0.082c-0.021-0.065,0.013-0.133,0.075-0.155l1.541-0.518c0.061-0.023,0.132,0.013,0.153,0.078
				c0.021,0.063-0.013,0.131-0.077,0.153l-1.537,0.518C520.908,392.175,520.896,392.176,520.883,392.176z M523.961,391.141
				c-0.051,0-0.099-0.032-0.116-0.083c-0.021-0.065,0.013-0.133,0.076-0.155c0.517-0.174,1.029-0.348,1.537-0.521
				c0.063-0.025,0.134,0.012,0.155,0.076c0.021,0.063-0.013,0.133-0.075,0.155c-0.509,0.172-1.021,0.347-1.538,0.521
				C523.986,391.14,523.974,391.141,523.961,391.141z M527.037,390.098c-0.051,0-0.099-0.032-0.115-0.083
				c-0.022-0.063,0.012-0.133,0.075-0.155l1.536-0.524c0.062-0.024,0.133,0.013,0.155,0.076c0.022,0.063-0.013,0.133-0.076,0.155
				l-1.536,0.524C527.064,390.096,527.05,390.098,527.037,390.098z M530.107,389.049c-0.051,0-0.099-0.032-0.116-0.083
				c-0.021-0.063,0.013-0.133,0.076-0.155l1.536-0.527c0.063-0.025,0.133,0.013,0.155,0.076c0.021,0.063-0.013,0.133-0.076,0.155
				l-1.536,0.527C530.134,389.048,530.119,389.049,530.107,389.049z M533.179,387.992c-0.051,0-0.099-0.032-0.115-0.082
				c-0.022-0.063,0.012-0.133,0.075-0.155l1.534-0.532c0.062-0.023,0.134,0.013,0.155,0.076c0.022,0.063-0.013,0.133-0.076,0.155
				l-1.534,0.532C533.205,387.99,533.191,387.992,533.179,387.992z M536.245,386.925c-0.051,0-0.098-0.032-0.115-0.083
				c-0.022-0.063,0.013-0.133,0.076-0.155c0.515-0.179,1.025-0.357,1.532-0.535c0.063-0.027,0.133,0.013,0.155,0.076
				s-0.011,0.133-0.076,0.155c-0.507,0.177-1.018,0.356-1.532,0.535C536.272,386.923,536.258,386.925,536.245,386.925z
				 M539.309,385.851c-0.051,0-0.098-0.032-0.115-0.082c-0.022-0.063,0.013-0.133,0.076-0.155c0.516-0.181,1.024-0.361,1.529-0.54
				c0.066-0.017,0.133,0.011,0.156,0.075c0.022,0.063-0.011,0.133-0.074,0.156c-0.505,0.179-1.017,0.359-1.532,0.541
				C539.336,385.85,539.321,385.851,539.309,385.851z M542.371,384.768c-0.051,0-0.097-0.031-0.114-0.081
				c-0.023-0.063,0.01-0.133,0.073-0.155c0.513-0.182,1.022-0.364,1.527-0.544c0.065-0.021,0.133,0.011,0.155,0.073
				c0.023,0.063-0.01,0.133-0.073,0.155c-0.505,0.18-1.015,0.362-1.527,0.544C542.397,384.767,542.385,384.768,542.371,384.768z
				 M545.429,383.679c-0.051,0-0.097-0.031-0.114-0.081c-0.023-0.063,0.01-0.133,0.072-0.155l1.528-0.551
				c0.06-0.021,0.133,0.011,0.155,0.073c0.023,0.063-0.01,0.133-0.073,0.155l-1.527,0.551
				C545.455,383.676,545.442,383.679,545.429,383.679z M548.48,382.576c-0.049,0-0.096-0.03-0.113-0.081
				c-0.024-0.063,0.009-0.133,0.072-0.155l1.526-0.556c0.059-0.021,0.133,0.008,0.155,0.073c0.023,0.063-0.01,0.133-0.073,0.155
				l-1.525,0.556C548.51,382.572,548.495,382.576,548.48,382.576z M551.532,381.459c-0.05,0-0.097-0.03-0.114-0.08
				c-0.023-0.063,0.01-0.134,0.071-0.156l1.522-0.561c0.063-0.02,0.135,0.009,0.157,0.071c0.023,0.063-0.01,0.133-0.071,0.157
				l-1.523,0.561C551.561,381.456,551.546,381.459,551.532,381.459z M554.578,380.335c-0.049,0-0.097-0.03-0.114-0.079
				c-0.023-0.063,0.008-0.133,0.071-0.157l1.52-0.567c0.063-0.017,0.135,0.008,0.157,0.071c0.023,0.063-0.008,0.133-0.071,0.157
				l-1.52,0.567C554.606,380.332,554.592,380.335,554.578,380.335z M557.618,379.197c-0.05,0-0.096-0.03-0.114-0.079
				c-0.023-0.063,0.008-0.133,0.071-0.157c0.513-0.193,1.02-0.385,1.519-0.575c0.064-0.019,0.133,0.008,0.156,0.071
				c0.024,0.062-0.008,0.133-0.071,0.157c-0.499,0.19-1.005,0.381-1.519,0.575C557.646,379.193,557.632,379.197,557.618,379.197z
				 M560.653,378.044c-0.05,0-0.096-0.03-0.114-0.079c-0.023-0.062,0.008-0.133,0.071-0.157c0.475-0.182,0.943-0.362,1.404-0.54
				l0.109-0.042c0.064-0.019,0.135,0.009,0.158,0.07c0.023,0.063-0.008,0.134-0.069,0.158l-0.109,0.041
				c-0.463,0.179-0.932,0.359-1.408,0.542C560.682,378.041,560.667,378.044,560.653,378.044z M563.682,376.874
				c-0.049,0-0.095-0.03-0.114-0.078c-0.023-0.063,0.009-0.133,0.07-0.158c0.511-0.198,1.015-0.394,1.51-0.589
				c0.067-0.018,0.135,0.008,0.159,0.069c0.023,0.062-0.007,0.133-0.07,0.159c-0.495,0.194-0.999,0.391-1.51,0.589
				C563.712,376.871,563.696,376.874,563.682,376.874z M566.704,375.691c-0.049,0-0.095-0.028-0.114-0.078
				c-0.023-0.062,0.007-0.133,0.07-0.158c0.511-0.201,1.012-0.401,1.506-0.599c0.063-0.027,0.133,0.003,0.158,0.066
				c0.025,0.063-0.005,0.135-0.066,0.159c-0.494,0.198-0.998,0.397-1.509,0.602C566.734,375.688,566.719,375.691,566.704,375.691z
				 M569.717,374.488c-0.047,0-0.093-0.029-0.112-0.076c-0.025-0.062,0.005-0.133,0.066-0.158l0.361-0.147
				c0.388-0.157,0.768-0.31,1.144-0.464c0.055-0.025,0.133,0.003,0.158,0.066c0.025,0.062-0.005,0.133-0.066,0.159
				c-0.375,0.153-0.756,0.309-1.144,0.465l-0.36,0.146C569.747,374.485,569.733,374.488,569.717,374.488z M572.723,373.261
				c-0.048,0-0.094-0.029-0.113-0.076c-0.025-0.062,0.004-0.133,0.067-0.158c0.511-0.211,1.008-0.418,1.496-0.623
				c0.063-0.025,0.134,0.005,0.159,0.065c0.025,0.062-0.003,0.134-0.064,0.16c-0.487,0.204-0.988,0.412-1.499,0.622
				C572.754,373.258,572.738,373.261,572.723,373.261z M575.717,372.012c-0.048,0-0.093-0.028-0.113-0.074
				c-0.025-0.062,0.004-0.133,0.065-0.16c0.511-0.217,1.008-0.429,1.493-0.636c0.063-0.025,0.131,0.003,0.159,0.065
				c0.025,0.062-0.003,0.133-0.064,0.16c-0.484,0.208-0.981,0.42-1.493,0.637C575.748,372.009,575.732,372.012,575.717,372.012z
				 M578.699,370.732c-0.048,0-0.092-0.027-0.111-0.073c-0.028-0.062,0-0.133,0.063-0.16c0.51-0.224,1.005-0.442,1.484-0.654
				c0.063-0.027,0.135,0.001,0.16,0.063c0.028,0.061,0,0.133-0.062,0.161c-0.479,0.212-0.976,0.429-1.485,0.652
				C578.732,370.729,578.715,370.732,578.699,370.732z M581.665,369.417c-0.046,0-0.091-0.027-0.111-0.072
				c-0.028-0.061,0-0.133,0.06-0.161c0.511-0.23,1.003-0.455,1.477-0.672c0.057-0.028,0.133-0.003,0.161,0.06
				c0.028,0.061,0.002,0.133-0.061,0.162c-0.473,0.217-0.966,0.441-1.476,0.672C581.697,369.413,581.682,369.417,581.665,369.417z
				 M584.609,368.061c-0.046,0-0.09-0.026-0.11-0.07c-0.029-0.061-0.002-0.133,0.059-0.162c0.513-0.24,1-0.473,1.464-0.697
				c0.056-0.029,0.133-0.004,0.162,0.057s0.004,0.134-0.058,0.163c-0.464,0.224-0.951,0.457-1.464,0.697
				C584.645,368.057,584.627,368.061,584.609,368.061z M587.53,366.651c-0.044,0-0.087-0.024-0.108-0.067
				c-0.03-0.06-0.006-0.134,0.055-0.164c0.515-0.257,0.996-0.5,1.442-0.732c0.059-0.027,0.133-0.008,0.163,0.053
				c0.031,0.06,0.008,0.134-0.052,0.165c-0.446,0.231-0.928,0.475-1.446,0.733C587.567,366.647,587.55,366.651,587.53,366.651z
				 M590.407,365.163c-0.043,0-0.085-0.023-0.107-0.064c-0.032-0.06-0.01-0.133,0.051-0.165c0.487-0.263,0.963-0.527,1.41-0.784
				c0.059-0.036,0.13-0.015,0.167,0.044c0.033,0.058,0.013,0.133-0.046,0.166c-0.45,0.259-0.927,0.524-1.417,0.788
				C590.447,365.158,590.427,365.163,590.407,365.163z M593.208,363.544c-0.039,0-0.079-0.02-0.103-0.057
				c-0.036-0.057-0.02-0.132,0.038-0.167c0.969-0.613,1.298-0.904,1.301-0.907c0.048-0.046,0.126-0.042,0.172,0.009
				c0.046,0.051,0.041,0.127-0.01,0.172c-0.013,0.013-0.342,0.305-1.333,0.932C593.253,363.538,593.23,363.544,593.208,363.544z"/>
		</g>
		<g opacity="0.2">
			<path opacity="0.5" fill="#524A48" d="M141.574,393.693h-0.145c-0.405,0-0.904,0-1.485-0.002c-0.068,0-0.122-0.055-0.122-0.122
				c0-0.068,0.056-0.122,0.122-0.122l0,0c0.581,0.001,1.08,0.001,1.485,0.001h0.145c0.066,0,0.122,0.056,0.122,0.122
				S141.641,393.693,141.574,393.693z M138.315,393.679L138.315,393.679c-0.508-0.003-1.053-0.008-1.629-0.014
				c-0.066-0.001-0.121-0.055-0.121-0.124c0.002-0.066,0.056-0.12,0.122-0.12h0.001c0.576,0.006,1.121,0.011,1.626,0.014
				c0.068,0,0.122,0.055,0.122,0.122C138.438,393.625,138.382,393.679,138.315,393.679z M135.061,393.644h-0.002l-1.626-0.025
				c-0.068-0.001-0.122-0.057-0.12-0.124s0.055-0.12,0.122-0.12h0.002l1.626,0.025c0.068,0.001,0.122,0.057,0.12,0.124
				S135.127,393.644,135.061,393.644z M131.808,393.588c-0.001,0-0.001,0-0.003,0l-1.626-0.036
				c-0.066-0.001-0.121-0.057-0.119-0.125c0.001-0.068,0.047-0.114,0.125-0.119l1.626,0.036c0.066,0.001,0.12,0.057,0.119,0.125
				C131.929,393.537,131.875,393.588,131.808,393.588z M128.556,393.511c-0.001,0-0.003,0-0.003,0l-1.626-0.049
				c-0.068-0.001-0.121-0.059-0.119-0.125c0.002-0.066,0.057-0.119,0.122-0.119c0.001,0,0.003,0,0.003,0l1.626,0.049
				c0.068,0.002,0.12,0.059,0.119,0.125C128.677,393.459,128.621,393.511,128.556,393.511z M125.308,393.408
				c-0.002,0-0.003,0-0.003,0c-0.54-0.018-1.082-0.038-1.627-0.06c-0.068-0.003-0.121-0.06-0.117-0.127
				c0.003-0.066,0.057-0.117,0.122-0.117c0.002,0,0.003,0,0.005,0c0.546,0.022,1.088,0.043,1.625,0.06
				c0.068,0.002,0.12,0.059,0.119,0.125C125.428,393.356,125.372,393.408,125.308,393.408z M122.054,393.282
				c-0.001,0-0.003,0-0.005,0c-0.54-0.024-1.081-0.049-1.625-0.076c-0.066-0.003-0.119-0.06-0.115-0.128
				c0.003-0.066,0.063-0.117,0.128-0.115c0.543,0.027,1.085,0.052,1.622,0.076c0.068,0.003,0.12,0.06,0.117,0.126
				C122.172,393.231,122.119,393.282,122.054,393.282z M118.803,393.12c-0.001,0-0.004,0-0.006,0
				c-0.542-0.029-1.084-0.061-1.625-0.094c-0.066-0.004-0.117-0.062-0.114-0.129c0.005-0.068,0.065-0.127,0.13-0.114
				c0.538,0.033,1.08,0.065,1.621,0.093c0.066,0.003,0.119,0.062,0.116,0.128C118.922,393.069,118.868,393.12,118.803,393.12z
				 M115.561,392.922c-0.003,0-0.004,0-0.008,0c-0.543-0.036-1.084-0.074-1.623-0.114c-0.066-0.005-0.117-0.063-0.113-0.131
				c0.005-0.066,0.063-0.124,0.132-0.112c0.535,0.04,1.077,0.077,1.62,0.114c0.068,0.005,0.119,0.063,0.114,0.13
				C115.678,392.873,115.624,392.922,115.561,392.922z M112.318,392.685c-0.003,0-0.006,0-0.01,0
				c-0.548-0.044-1.087-0.092-1.621-0.141c-0.066-0.006-0.116-0.067-0.111-0.133c0.006-0.066,0.07-0.104,0.133-0.111
				c0.534,0.049,1.074,0.097,1.618,0.141c0.068,0.006,0.117,0.065,0.112,0.131C112.434,392.636,112.382,392.685,112.318,392.685z
				 M109.079,392.384c-0.003,0-0.008,0-0.013,0c-0.548-0.057-1.089-0.116-1.618-0.177c-0.066-0.008-0.114-0.068-0.106-0.135
				c0.008-0.066,0.073-0.122,0.135-0.106c0.529,0.062,1.067,0.12,1.615,0.174c0.067,0.008,0.116,0.066,0.109,0.134
				C109.194,392.336,109.141,392.384,109.079,392.384z M105.847,392.007c-0.004,0-0.011,0-0.016-0.001
				c-0.553-0.073-1.091-0.149-1.613-0.228c-0.066-0.009-0.111-0.073-0.102-0.139c0.01-0.066,0.067-0.124,0.14-0.102
				c0.519,0.079,1.058,0.155,1.607,0.228c0.066,0.008,0.114,0.07,0.104,0.136C105.96,391.963,105.908,392.007,105.847,392.007z
				 M102.633,391.515c-0.006,0-0.014,0-0.022-0.002c-0.565-0.101-1.104-0.207-1.599-0.315c-0.066-0.014-0.108-0.079-0.093-0.144
				c0.014-0.065,0.081-0.102,0.144-0.093c0.494,0.106,1.029,0.212,1.593,0.312c0.064,0.013,0.109,0.076,0.098,0.143
				C102.743,391.474,102.692,391.515,102.633,391.515z M99.456,390.818c-0.011,0-0.022-0.001-0.033-0.005
				c-0.255-0.071-0.499-0.142-0.733-0.217c-0.275-0.085-0.551-0.172-0.825-0.259c-0.065-0.021-0.1-0.089-0.08-0.152
				c0.019-0.065,0.095-0.101,0.152-0.079c0.274,0.087,0.549,0.174,0.825,0.26c0.231,0.071,0.475,0.143,0.727,0.214
				c0.065,0.017,0.103,0.085,0.084,0.15C99.559,390.783,99.509,390.818,99.456,390.818z M96.353,389.854
				c-0.013,0-0.025-0.001-0.037-0.006l-1.547-0.491c-0.064-0.021-0.1-0.088-0.079-0.152c0.019-0.065,0.095-0.103,0.152-0.079
				l1.547,0.491c0.065,0.021,0.1,0.089,0.08,0.152C96.452,389.82,96.405,389.854,96.353,389.854z M93.257,388.871
				c-0.013,0-0.025-0.001-0.038-0.006l-1.545-0.496c-0.063-0.021-0.098-0.089-0.078-0.154c0.021-0.062,0.089-0.103,0.154-0.078
				l1.545,0.496c0.063,0.021,0.098,0.088,0.078,0.153C93.357,388.837,93.31,388.871,93.257,388.871z M90.167,387.879
				c-0.013,0-0.025-0.001-0.038-0.006l-1.545-0.499c-0.063-0.021-0.098-0.089-0.078-0.154c0.019-0.062,0.092-0.103,0.154-0.078
				l1.545,0.499c0.063,0.021,0.098,0.088,0.078,0.153C90.267,387.846,90.217,387.879,90.167,387.879z M87.075,386.882
				c-0.013,0-0.025-0.001-0.038-0.006c-0.508-0.165-1.012-0.328-1.511-0.491l-0.033-0.011c-0.063-0.021-0.098-0.088-0.077-0.153
				c0.019-0.063,0.09-0.103,0.153-0.078l0.033,0.011c0.499,0.161,1.002,0.326,1.511,0.491c0.063,0.021,0.098,0.088,0.077,0.153
				C87.174,386.849,87.125,386.882,87.075,386.882z M83.989,385.875c-0.013,0-0.025-0.002-0.038-0.006
				c-0.516-0.167-1.027-0.335-1.534-0.502c-0.063-0.021-0.103-0.092-0.082-0.155c0.022-0.063,0.079-0.106,0.148-0.079l0.01,0.003
				c0.506,0.166,1.018,0.335,1.534,0.501c0.063,0.021,0.098,0.089,0.078,0.154C84.088,385.842,84.04,385.875,83.989,385.875z
				 M80.903,384.862c-0.012,0-0.025-0.002-0.038-0.006c-0.519-0.171-1.032-0.341-1.541-0.51c-0.065-0.02-0.098-0.09-0.077-0.153
				c0.021-0.065,0.087-0.101,0.153-0.078c0.508,0.169,1.021,0.339,1.541,0.51c0.063,0.021,0.098,0.09,0.078,0.154
				C81.001,384.829,80.954,384.862,80.903,384.862z M77.824,383.839c-0.013,0-0.026-0.001-0.038-0.006
				c-0.52-0.172-1.032-0.344-1.542-0.515c-0.063-0.022-0.097-0.09-0.076-0.155c0.021-0.063,0.084-0.102,0.155-0.076
				c0.506,0.171,1.02,0.342,1.539,0.515c0.065,0.021,0.099,0.09,0.078,0.153C77.922,383.807,77.874,383.839,77.824,383.839z
				 M74.743,382.808c-0.013,0-0.027-0.001-0.04-0.006l-1.538-0.521c-0.063-0.022-0.098-0.092-0.076-0.155
				c0.022-0.063,0.09-0.102,0.155-0.076l1.538,0.521c0.063,0.022,0.097,0.09,0.076,0.155
				C74.841,382.776,74.793,382.808,74.743,382.808z M71.668,381.766c-0.013,0-0.027-0.001-0.04-0.006
				c-0.518-0.175-1.029-0.351-1.536-0.525c-0.063-0.022-0.098-0.092-0.076-0.155c0.021-0.063,0.092-0.1,0.155-0.076
				c0.507,0.174,1.018,0.35,1.536,0.525c0.063,0.022,0.097,0.092,0.076,0.155C71.766,381.735,71.718,381.766,71.668,381.766z
				 M68.598,380.713c-0.013,0-0.027-0.001-0.04-0.006c-0.518-0.177-1.029-0.354-1.534-0.53c-0.063-0.022-0.098-0.092-0.076-0.155
				c0.021-0.063,0.092-0.103,0.155-0.076c0.505,0.176,1.016,0.353,1.534,0.53c0.063,0.022,0.098,0.092,0.076,0.155
				C68.696,380.682,68.648,380.713,68.598,380.713z M65.529,379.648c-0.013,0-0.027-0.001-0.04-0.006
				c-0.516-0.181-1.027-0.359-1.533-0.537c-0.063-0.024-0.096-0.092-0.074-0.157c0.024-0.062,0.085-0.098,0.157-0.075
				c0.502,0.177,1.013,0.356,1.529,0.537c0.063,0.022,0.098,0.091,0.076,0.155C65.627,379.616,65.58,379.648,65.529,379.648z
				 M62.467,378.575c-0.014,0-0.027-0.003-0.041-0.008c-0.407-0.146-0.811-0.288-1.211-0.43l-0.318-0.114
				c-0.063-0.022-0.096-0.092-0.073-0.155c0.022-0.063,0.09-0.1,0.155-0.073l0.318,0.112c0.399,0.143,0.803,0.285,1.211,0.432
				c0.063,0.022,0.096,0.092,0.073,0.155C62.564,378.543,62.518,378.575,62.467,378.575z M59.41,377.482
				c-0.014,0-0.027-0.003-0.041-0.008c-0.518-0.185-1.026-0.369-1.528-0.551c-0.063-0.022-0.097-0.092-0.073-0.155
				c0.022-0.065,0.098-0.093,0.155-0.073c0.502,0.182,1.01,0.366,1.528,0.551c0.063,0.022,0.097,0.092,0.073,0.155
				C59.507,377.45,59.461,377.482,59.41,377.482z M56.356,376.375c-0.014,0-0.028-0.003-0.041-0.008
				c-0.516-0.187-1.024-0.374-1.525-0.557c-0.062-0.023-0.095-0.093-0.071-0.157c0.022-0.063,0.093-0.09,0.157-0.071
				c0.497,0.184,1.005,0.371,1.521,0.558c0.063,0.022,0.097,0.092,0.073,0.155C56.453,376.344,56.405,376.375,56.356,376.375z
				 M53.31,375.256c-0.014,0-0.028-0.003-0.042-0.008c-0.516-0.191-1.023-0.38-1.52-0.567c-0.063-0.023-0.095-0.093-0.071-0.157
				c0.025-0.063,0.094-0.092,0.157-0.071c0.497,0.187,1.004,0.375,1.52,0.567c0.063,0.024,0.095,0.093,0.071,0.157
				C53.406,375.226,53.359,375.256,53.31,375.256z M50.27,374.116c-0.014,0-0.029-0.003-0.043-0.008
				c-0.516-0.194-1.021-0.388-1.518-0.578c-0.062-0.024-0.094-0.095-0.07-0.158c0.023-0.061,0.09-0.089,0.158-0.07
				c0.494,0.19,0.999,0.383,1.515,0.578c0.063,0.023,0.095,0.093,0.071,0.156C50.365,374.086,50.319,374.116,50.27,374.116z
				 M47.239,372.956c-0.014,0-0.03-0.003-0.044-0.008c-0.516-0.2-1.02-0.396-1.512-0.589c-0.063-0.025-0.093-0.096-0.07-0.158
				c0.024-0.06,0.097-0.089,0.158-0.07c0.493,0.193,0.996,0.39,1.512,0.589c0.062,0.025,0.094,0.095,0.07,0.158
				C47.334,372.925,47.289,372.956,47.239,372.956z M44.217,371.77c-0.015,0-0.03-0.003-0.044-0.008
				c-0.518-0.206-1.021-0.407-1.509-0.603c-0.062-0.025-0.092-0.095-0.066-0.159s0.094-0.09,0.159-0.066
				c0.487,0.196,0.988,0.397,1.505,0.6c0.063,0.025,0.093,0.097,0.07,0.158C44.312,371.74,44.266,371.77,44.217,371.77z
				 M41.206,370.558c-0.016,0-0.032-0.003-0.046-0.009c-0.516-0.21-1.017-0.417-1.501-0.617c-0.062-0.026-0.09-0.098-0.065-0.159
				c0.025-0.063,0.095-0.091,0.16-0.066c0.481,0.201,0.981,0.407,1.498,0.618c0.062,0.025,0.092,0.097,0.066,0.158
				C41.299,370.53,41.253,370.558,41.206,370.558z M38.213,369.313c-0.016,0-0.032-0.003-0.048-0.01
				c-0.521-0.219-1.018-0.433-1.494-0.639c-0.062-0.027-0.089-0.098-0.063-0.16c0.027-0.061,0.098-0.093,0.162-0.063
				c0.473,0.206,0.97,0.418,1.491,0.637c0.062,0.026,0.09,0.097,0.065,0.16C38.307,369.285,38.261,369.313,38.213,369.313z
				 M35.235,368.024c-0.016,0-0.033-0.003-0.049-0.01c-0.522-0.232-1.017-0.454-1.48-0.665c-0.062-0.028-0.088-0.1-0.06-0.162
				c0.028-0.06,0.106-0.085,0.162-0.06c0.464,0.211,0.955,0.433,1.477,0.664c0.062,0.027,0.09,0.1,0.062,0.161
				C35.327,367.998,35.281,368.024,35.235,368.024z M32.284,366.679c-0.017,0-0.035-0.004-0.052-0.012
				c-0.534-0.252-1.021-0.486-1.461-0.703c-0.061-0.029-0.086-0.103-0.056-0.163c0.027-0.059,0.1-0.088,0.163-0.055
				c0.44,0.216,0.925,0.449,1.458,0.701c0.061,0.028,0.087,0.101,0.059,0.162C32.373,366.652,32.33,366.679,32.284,366.679z
				 M29.38,365.247c-0.019,0-0.038-0.005-0.057-0.014c-0.543-0.283-1.023-0.544-1.425-0.777c-0.059-0.033-0.079-0.107-0.046-0.166
				c0.035-0.057,0.106-0.079,0.166-0.044c0.4,0.23,0.877,0.49,1.418,0.772c0.059,0.031,0.083,0.104,0.051,0.164
				C29.467,365.223,29.424,365.247,29.38,365.247z M26.696,363.49c-0.038,0-0.074-0.018-0.098-0.05
				c-0.239-0.329-0.526-0.801-0.852-1.406c-0.032-0.06-0.009-0.133,0.051-0.165c0.057-0.034,0.131-0.012,0.165,0.049
				c0.32,0.594,0.6,1.059,0.833,1.377c0.04,0.055,0.028,0.13-0.027,0.17C26.747,363.482,26.722,363.49,26.696,363.49z
				 M25.118,360.647c-0.046,0-0.089-0.025-0.109-0.069c-0.396-0.819-0.686-1.477-0.687-1.482c-0.029-0.062,0-0.134,0.062-0.161
				c0.062-0.029,0.135,0.002,0.16,0.063c0.003,0.006,0.291,0.66,0.684,1.475c0.03,0.061,0.004,0.134-0.057,0.163
				C25.154,360.643,25.135,360.647,25.118,360.647z"/>
		</g>
		
			<path opacity="0.5" fill="none" stroke="#524A48" stroke-width="0.2436" stroke-linecap="round" stroke-linejoin="round" stroke-dasharray="1.6238,1.6238" d="
			M487.061,646.672c0,0-20.396,7.307-61.5,9.741c-41.105,2.436-197.827,1.649-225.916,1.218c-39.58-0.608-68.505-8.221-68.505-8.221
			"/>
		
			<radialGradient id="SVGID_5_" cx="502.3633" cy="276.5063" r="23.2895" gradientTransform="matrix(-0.9746 0 0 0.9746 586.592 9.8804)" gradientUnits="userSpaceOnUse">
			<stop  offset="0" style="stop-color:#FFFFFF"/>
			<stop  offset="1" style="stop-color:#897F76"/>
		</radialGradient>
		<path opacity="0.2" fill="url(#SVGID_5_)" d="M81.014,203.009c0,0,5.306,9.037,6.574,10.558
			c1.267,1.521,8.873,11.157,8.873,11.157l0.709,6.401c1.058,2.987,6.02,17.183,7.152,23.519c1.268,7.099,9.636,23.327,9.889,25.356
			c0.253,2.026,3.042,4.31,3.042,5.83c0,1.521,4.312,5.579,5.578,7.101c1.268,1.523,1.27,9.383,1.27,9.383l12.424,14.705
			c0,0-1.27-8.874-1.27-10.142c0-1.269-6.844-30.175-7.859-37.525c-1.015-7.355-5.324-38.542-7.101-38.288
			c-1.774,0.253-1.52,24.595-1.52,24.595s-2.282-23.581-1.269-27.13c0.486-1.707,2.283-4.565,5.071-0.508
			c4.286,6.232,16.229,97.618,16.229,97.618s-0.081-0.098-0.22-0.269l7.877,57.098l-9.306-58.837
			c-4.152-5.053-14.779-17.967-15.592-18.782c-1.013-1.014-1.015-4.312-1.015-5.831c0-1.521-1.774-6.34-3.548-8.622
			c-1.775-2.281-5.326-7.86-5.326-9.382c0-1.521-7.099-15.972-7.606-18.001c-0.507-2.03-3.298-8.874-3.803-11.157
			c-0.407-1.839-2.3-14.551-3.018-19.412c-1.018-1.499-12.003-17.667-13.211-18.875c-1.267-1.267-4.31-5.832-4.31-6.846
			L81.014,203.009z"/>
		
			<path opacity="0.5" fill="none" stroke="#524A48" stroke-width="0.8106" stroke-linecap="round" stroke-linejoin="round" stroke-dasharray="1.6238,1.6238" d="
			M219.151,112.024c0,0,26.829,15.014,99.437,10.583c65.441-3.993,71.134-11.322,71.134-11.322"/>
	</g>
	<path opacity="0.25" fill="none" stroke="#322B29" stroke-width="1.6213" stroke-miterlimit="10" d="M145.842,382.025
		c0,0,18.759-84.148,7.026-138.546s-32.878-81.012-32.878-81.012"/>
	<path opacity="0.25" fill="none" stroke="#322B29" stroke-width="1.6413" stroke-miterlimit="10" d="M466.374,355.795
		c0,0-15.235-46.498-9.203-115.71c5.184-59.471,25.97-84.308,25.97-84.308"/>
</g>
</svg>
