<?xml version="1.0" encoding="utf-8"?>
<!-- Generator: Adobe Illustrator 16.0.0, SVG Export Plug-In . SVG Version: 6.00 Build 0)  -->
<!DOCTYPE svg PUBLIC "-//W3C//DTD SVG 1.0//EN" "http://www.w3.org/TR/2001/REC-SVG-20010904/DTD/svg10.dtd">
<svg version="1.0" id="Layer_1" xmlns="http://www.w3.org/2000/svg" xmlns:xlink="http://www.w3.org/1999/xlink" x="0px" y="0px"
	 width="612px" height="792px" viewBox="0 0 470 792" enable-background="new 0 0 612 792" xml:space="preserve">
<g>
	<defs>
		<rect id="JNB_SVGID_1_" width="612" height="792"/>
	</defs>
	<clipPath id="JNB_SVGID_2_">
		<use xlink:href="#JNB_SVGID_1_"  overflow="visible"/>
	</clipPath>
	<g clip-path="url(#JNB_SVGID_2_)">
		<defs>
			<rect id="JNB_SVGID_3_" width="612" height="792"/>
		</defs>
		<clipPath id="JNB_SVGID_4_">
			<use xlink:href="#JNB_SVGID_3_"  overflow="visible"/>
		</clipPath>
		<g opacity="0.35" clip-path="url(#JNB_SVGID_4_)">
			<g>
				<defs>
					<rect id="JNB_SVGID_5_" x="116.039" y="-2.773" width="373.439" height="792.72"/>
				</defs>
				<clipPath id="JNB_SVGID_6_">
					<use xlink:href="#JNB_SVGID_5_"  overflow="visible"/>
				</clipPath>
				<g clip-path="url(#JNB_SVGID_6_)">
					<defs>
						<rect id="JNB_SVGID_7_" x="116.039" y="-2.773" width="373.44" height="792.721"/>
					</defs>
					<clipPath id="JNB_SVGID_8_">
						<use xlink:href="#JNB_SVGID_7_"  overflow="visible"/>
					</clipPath>
					<g transform="matrix(1 0 0 1 7.629395e-006 -2.384186e-007)" clip-path="url(#JNB_SVGID_8_)">
						
							<!--<image overflow="visible" width="1556" height="3303" xlink:href="1379AD1A.png"  transform="matrix(0.24 0 0 0.24 116.0391 -2.7734)">
						</image>-->
					</g>
				</g>
			</g>
		</g>
    <g id="XYZ">
      		<path clip-path="url(#JNB_SVGID_4_)" fill="#FFFFFF" d="M207.905,41.146l20.226-16.38c0,0,32.662,45.584,79.955,45.584
			c43.305,0,73.504-47.294,73.504-47.294l17.929,14.461c0,0-25.4,45.358-19.957,78.922c5.442,33.564,31.282,60.778,44.89,75.293
			c13.607,14.514,31.75,20.864,31.75,20.864s-14.514,85.271-20.864,114.3c-6.35,29.028-12.301,85.271-6.857,108.857
			c5.442,23.586,30.843,121.557,32.656,148.771c1.815,27.215,3.629,120.65,1.815,134.258c-1.815,13.606-7.258,35.379-7.258,35.379
			s-31.75,9.978-66.222,8.164c-34.471-1.814-62.593-9.979-62.593-9.979s-0.907-14.514-4.536-39.914
			c-3.628-25.399-7.257-35.378-5.441-51.707c1.813-16.328,4.535-19.05,4.535-28.121s0-15.422-8.164-16.329
			c-8.165-0.906-22.678-2.721-22.678,5.443s5.442,21.771,2.721,39.914c-2.721,18.143-9.071,40.822-9.071,53.521
			c0,12.7-1.815,38.101-1.815,38.101s-16.328,10.885-61.685,10.885c-45.358,0-71.665-9.421-71.665-9.421s-12.7-71.314-4.535-140.257
			c8.164-68.943,20.055-124.768,26.215-148.175c4.404-16.737,12.877-42.199,13.758-67.744c0.375-10.88-3.524-88.97-10.571-121.563
			c-5.943-27.487-15.288-70.732-15.288-70.732s55.176-18.875,64.408-71.664C233.987,72.13,207.905,41.146,207.905,41.146"/>
    </g>
		<path clip-path="url(#JNB_SVGID_4_)" fill="none" stroke="#897F76" stroke-width="0.26" stroke-miterlimit="10" d="M207.905,41.146
			l20.226-16.38c0,0,32.662,45.584,79.955,45.584c43.305,0,73.504-47.294,73.504-47.294l17.929,14.461
			c0,0-25.4,45.358-19.957,78.922c5.442,33.564,31.282,60.778,44.89,75.293c13.607,14.514,31.75,20.864,31.75,20.864
			s-14.514,85.271-20.864,114.3c-6.35,29.028-12.301,85.271-6.857,108.857c5.442,23.586,30.843,121.557,32.656,148.771
			c1.815,27.215,3.629,120.65,1.815,134.258c-1.815,13.606-7.258,35.379-7.258,35.379s-31.75,9.978-66.222,8.164
			c-34.471-1.814-62.593-9.979-62.593-9.979s-0.907-14.514-4.536-39.914c-3.628-25.399-7.257-35.378-5.441-51.707
			c1.813-16.328,4.535-19.05,4.535-28.121s0-15.422-8.164-16.329c-8.165-0.906-22.678-2.721-22.678,5.443s5.442,21.771,2.721,39.914
			c-2.721,18.143-9.071,40.822-9.071,53.521c0,12.7-1.815,38.101-1.815,38.101s-16.328,10.885-61.685,10.885
			c-45.358,0-71.665-9.421-71.665-9.421s-12.7-71.314-4.535-140.257c8.164-68.943,20.055-124.768,26.215-148.175
			c4.404-16.737,12.877-42.199,13.758-67.744c0.375-10.88-3.524-88.97-10.571-121.563c-5.943-27.487-15.288-70.732-15.288-70.732
			s55.176-18.875,64.408-71.664C233.987,72.13,207.905,41.146,207.905,41.146z"/>
	</g>
    <g id="CUSTOM"></g>
	<g clip-path="url(#JNB_SVGID_2_)">
		<defs>
			<path id="JNB_SVGID_9_" d="M308.086,70.349c-47.293,0-79.955-45.584-79.955-45.584l-20.226,16.381c0,0,26.082,30.984,15.161,93.436
				c-9.232,52.789-64.408,71.664-64.408,71.664s9.345,43.245,15.289,70.732c7.047,32.592,10.945,110.683,10.57,121.563
				c-0.881,25.545-9.354,51.006-13.758,67.744c-6.161,23.408-18.051,79.231-26.215,148.175
				c-8.164,68.942,4.536,140.257,4.536,140.257s26.307,9.421,71.664,9.421c45.356,0,61.685-10.886,61.685-10.886
				s1.814-25.4,1.814-38.099c0-12.7,6.351-35.379,9.072-53.522c2.721-18.143-2.721-31.75-2.721-39.915
				c0-8.163,14.514-6.349,22.679-5.441c8.165,0.906,8.165,7.257,8.165,16.328s-2.723,11.794-4.536,28.121
				c-1.815,16.328,1.813,26.308,5.442,51.707c3.628,25.4,4.535,39.914,4.535,39.914s28.121,8.164,62.593,9.979
				s66.222-8.163,66.222-8.163s5.443-21.772,7.258-35.379c1.813-13.608,0-107.043-1.814-134.257
				c-1.814-27.215-27.215-125.187-32.658-148.771c-5.442-23.586,0.509-79.829,6.858-108.858c6.351-29.028,20.864-114.3,20.864-114.3
				s-18.144-6.349-31.75-20.863c-13.607-14.515-39.447-41.729-44.891-75.294c-5.442-33.563,19.957-78.921,19.957-78.921
				L381.59,23.056C381.59,23.056,351.391,70.349,308.086,70.349"/>
		</defs>
		<clipPath id="JNB_SVGID_10_">
			<use xlink:href="#JNB_SVGID_9_"  overflow="visible"/>
		</clipPath>
    <g id="BOTTOM_AREA">
		<path clip-path="url(#JNB_SVGID_10_)" fill="#BF2A43" d="M305.004,759.483c-61.435,15.774-125.858,15.774-187.293,0
			c0-18.266,0-36.532,0-54.798c61.435,15.774,125.858,15.774,187.293,0V759.483z"/>
		<path clip-path="url(#JNB_SVGID_10_)" fill="#BF2A43" d="M495.623,759.483c-61.435,15.774-125.857,15.774-187.293,0v-54.798
			c61.436,15.774,125.858,15.774,187.293,0V759.483z"/>
      </g>
    <g id="BACK_AREA">
      		<rect x="117.711" y="210.623" clip-path="url(#JNB_SVGID_10_)" fill="#BF2A43" width="378.37" height="54.798"/>
    </g>
	</g>
	<g clip-path="url(#JNB_SVGID_2_)">
		<defs>
			<rect id="JNB_SVGID_11_" width="612" height="792"/>
		</defs>
		<clipPath id="JNB_SVGID_12_">
			<use xlink:href="#JNB_SVGID_11_"  overflow="visible"/>
		</clipPath>
		<path clip-path="url(#JNB_SVGID_12_)" d="M313.008,434.251l7.721,7.567l-7.726-0.004L313.008,434.251z M285.845,433.094
			c-0.003,4.602,3.65,8.377,8.276,8.681l0.012-17.351C289.508,424.722,285.85,428.49,285.845,433.094 M303.315,431.973l0.004-7.563
			l-7.723-0.007L303.315,431.973z M313.01,431.98l7.729-7.559h-7.723L313.01,431.98z M304.949,441.807l6.414,0.006l0.012-17.397
			l-6.414-0.004L304.949,441.807z M303.309,441.806l0.004-7.565l-7.73,7.559L303.309,441.806z M331.039,433.165
			c-0.007,7.096-5.9,12.868-13.142,12.868l-23.633-0.02c-7.245-0.009-13.134-5.789-13.128-12.889
			c0.006-7.094,5.895-12.866,13.129-12.866l23.646,0.017c3.504,0.003,6.801,1.343,9.278,3.771
			C329.675,426.481,331.042,429.72,331.039,433.165 M329.132,433.162c0.003-2.928-1.161-5.681-3.276-7.754
			c-2.12-2.077-4.941-3.223-7.946-3.225l-23.626-0.018c-6.201,0-11.236,4.917-11.238,10.961
			c-0.007,6.048,5.027,10.973,11.221,10.979l23.625,0.02h0.006C324.088,444.125,329.127,439.207,329.132,433.162"/>
		
		
		
		<polygon clip-path="url(#JNB_SVGID_12_)" points="417.964,683.999 417.959,683.999 417.702,682.927 417.46,682.927 417.46,684.201 
			417.64,684.201 417.64,683.49 417.625,683.254 417.633,683.254 417.859,684.201 418.056,684.201 418.296,683.252 418.305,683.252 
			418.292,683.475 418.292,684.201 418.472,684.201 418.472,682.927 418.241,682.927 		"/>
		<polygon clip-path="url(#JNB_SVGID_12_)" points="416.558,683.089 416.858,683.089 416.858,684.201 417.04,684.201 417.04,683.089 
			417.341,683.089 417.341,682.927 416.558,682.927 		"/>
	
	</g>
	
	
	<g clip-path="url(#JNB_SVGID_2_)">
		<defs>
			<rect id="JNB_SVGID_13_" width="612" height="792"/>
		</defs>
		<clipPath id="JNB_SVGID_14_">
			<use xlink:href="#JNB_SVGID_13_"  overflow="visible"/>
		</clipPath>
		<g opacity="0.75" clip-path="url(#JNB_SVGID_14_)">
			<g>
				<defs>
					<rect id="JNB_SVGID_15_" x="147.054" y="727.175" width="314.457" height="7.952"/>
				</defs>
				<clipPath id="JNB_SVGID_16_">
					<use xlink:href="#JNB_SVGID_15_"  overflow="visible"/>
				</clipPath>
				
					<path clip-path="url(#JNB_SVGID_16_)" fill="none" stroke="#7A726F" stroke-width="0.52" stroke-miterlimit="10" stroke-dasharray="1.039,1.039" d="
					M147.083,727.434c39.47,4.363,97.241,4.363,136.71,0"/>
				
					<path clip-path="url(#JNB_SVGID_16_)" fill="none" stroke="#7A726F" stroke-width="0.52" stroke-miterlimit="10" stroke-dasharray="1.039,1.039" d="
					M148.271,731.595c39.47,4.363,96.052,4.363,135.522,0"/>
				
					<path clip-path="url(#JNB_SVGID_16_)" fill="none" stroke="#7A726F" stroke-width="0.52" stroke-miterlimit="10" stroke-dasharray="1.039,1.039" d="
					M324.547,727.434c41.121,4.363,95.815,4.363,136.938,0"/>
				
					<path clip-path="url(#JNB_SVGID_16_)" fill="none" stroke="#7A726F" stroke-width="0.52" stroke-miterlimit="10" stroke-dasharray="1.039,1.039" d="
					M325.736,731.595c41.121,4.363,93.437,4.363,134.558,0"/>
			</g>
		</g>
		<g opacity="0.13" clip-path="url(#JNB_SVGID_14_)">
			<g>
				<defs>
					<rect id="JNB_SVGID_17_" x="251.571" y="427.652" width="45.148" height="76.314"/>
				</defs>
				<clipPath id="JNB_SVGID_18_">
					<use xlink:href="#JNB_SVGID_17_"  overflow="visible"/>
				</clipPath>
				<g clip-path="url(#JNB_SVGID_18_)">
					<defs>
						<path id="JNB_SVGID_19_" d="M287.271,445.162c-6.066-6.063-35.7-17.51-35.7-17.51s22.227,30.985,20.203,39.738
							c-2.02,8.753-14.144,35.697-14.144,35.697s14.151,2.692,19.534-1.347c5.391-4.042,20.207-18.86,19.533-28.287
							C296.027,464.025,293.328,451.223,287.271,445.162"/>
					</defs>
					<clipPath id="JNB_SVGID_20_">
						<use xlink:href="#JNB_SVGID_19_"  overflow="visible"/>
					</clipPath>
					
						<radialGradient id="JNB_SVGID_21_" cx="0" cy="792" r="1" gradientTransform="matrix(148.025 0 0 -148.025 181.75 117698.0313)" gradientUnits="userSpaceOnUse">
						<stop  offset="0" style="stop-color:#FFFFFF"/>
						<stop  offset="1" style="stop-color:#897F76"/>
					</radialGradient>
					<rect x="251.571" y="427.652" clip-path="url(#JNB_SVGID_20_)" fill="url(#JNB_SVGID_21_)" width="45.8" height="78.128"/>
				</g>
			</g>
		</g>
		<g opacity="0.13" clip-path="url(#JNB_SVGID_14_)">
			<g>
				<defs>
					<rect id="JNB_SVGID_22_" x="320.966" y="623.497" width="0.127" height="0.811"/>
				</defs>
				<clipPath id="JNB_SVGID_23_">
					<use xlink:href="#JNB_SVGID_22_"  overflow="visible"/>
				</clipPath>
				<g clip-path="url(#JNB_SVGID_23_)">
					<defs>
						<path id="JNB_SVGID_24_" d="M321.093,624.308c-0.039-0.274-0.079-0.548-0.127-0.811
							C321.014,623.76,321.054,624.033,321.093,624.308"/>
					</defs>
					<clipPath id="JNB_SVGID_25_">
						<use xlink:href="#JNB_SVGID_24_"  overflow="visible"/>
					</clipPath>
					
						<radialGradient id="JNB_SVGID_26_" cx="0" cy="792" r="1" gradientTransform="matrix(0.2097 0 0 -0.2097 321.0403 790.4198)" gradientUnits="userSpaceOnUse">
						<stop  offset="0" style="stop-color:#FFFFFF"/>
						<stop  offset="1" style="stop-color:#897F76"/>
					</radialGradient>
					<rect x="320.966" y="623.497" clip-path="url(#JNB_SVGID_25_)" fill="url(#JNB_SVGID_26_)" width="0.127" height="0.811"/>
				</g>
			</g>
		</g>
		<g opacity="0.13" clip-path="url(#JNB_SVGID_14_)">
			<g>
				<defs>
					<rect id="JNB_SVGID_27_" x="321.36" y="627.365" width="0.03" height="0.778"/>
				</defs>
				<clipPath id="JNB_SVGID_28_">
					<use xlink:href="#JNB_SVGID_27_"  overflow="visible"/>
				</clipPath>
				<g clip-path="url(#JNB_SVGID_28_)">
					<defs>
						<path id="JNB_SVGID_29_" d="M321.391,628.144c-0.008-0.264-0.019-0.521-0.03-0.778
							C321.372,627.622,321.383,627.88,321.391,628.144"/>
					</defs>
					<clipPath id="JNB_SVGID_30_">
						<use xlink:href="#JNB_SVGID_29_"  overflow="visible"/>
					</clipPath>
					
						<radialGradient id="JNB_SVGID_31_" cx="0" cy="792" r="1" gradientTransform="matrix(0.0564 0 0 -0.0564 321.3782 672.8184)" gradientUnits="userSpaceOnUse">
						<stop  offset="0" style="stop-color:#FFFFFF"/>
						<stop  offset="1" style="stop-color:#897F76"/>
					</radialGradient>
					<rect x="321.36" y="627.365" clip-path="url(#JNB_SVGID_30_)" fill="url(#JNB_SVGID_31_)" width="0.03" height="0.778"/>
				</g>
			</g>
		</g>
		<g opacity="0.13" clip-path="url(#JNB_SVGID_14_)">
			<g>
				<defs>
					<rect id="JNB_SVGID_32_" x="319.67" y="619.831" width="1.247" height="3.435"/>
				</defs>
				<clipPath id="JNB_SVGID_33_">
					<use xlink:href="#JNB_SVGID_32_"  overflow="visible"/>
				</clipPath>
				<g clip-path="url(#JNB_SVGID_33_)">
					<defs>
						<path id="JNB_SVGID_34_" d="M320.917,623.266c-0.26-1.308-0.657-2.459-1.247-3.435
							C320.261,620.806,320.656,621.958,320.917,623.266"/>
					</defs>
					<clipPath id="JNB_SVGID_35_">
						<use xlink:href="#JNB_SVGID_34_"  overflow="visible"/>
					</clipPath>
					
						<radialGradient id="JNB_SVGID_36_" cx="0" cy="792" r="1" gradientTransform="matrix(2.0389 0 0 -2.0389 320.3945 2238.0225)" gradientUnits="userSpaceOnUse">
						<stop  offset="0" style="stop-color:#FFFFFF"/>
						<stop  offset="1" style="stop-color:#897F76"/>
					</radialGradient>
					<rect x="319.67" y="619.831" clip-path="url(#JNB_SVGID_35_)" fill="url(#JNB_SVGID_36_)" width="1.247" height="3.435"/>
				</g>
			</g>
		</g>
		<g opacity="0.13" clip-path="url(#JNB_SVGID_14_)">
			<g>
				<defs>
					<rect id="JNB_SVGID_37_" x="321.277" y="625.994" width="0.054" height="0.789"/>
				</defs>
				<clipPath id="JNB_SVGID_38_">
					<use xlink:href="#JNB_SVGID_37_"  overflow="visible"/>
				</clipPath>
				<g clip-path="url(#JNB_SVGID_38_)">
					<defs>
						<path id="JNB_SVGID_39_" d="M321.331,626.783c-0.016-0.268-0.034-0.531-0.054-0.789
							C321.297,626.253,321.315,626.516,321.331,626.783"/>
					</defs>
					<clipPath id="JNB_SVGID_40_">
						<use xlink:href="#JNB_SVGID_39_"  overflow="visible"/>
					</clipPath>
					
						<radialGradient id="JNB_SVGID_41_" cx="0" cy="792" r="1" gradientTransform="matrix(0.0912 0 0 -0.0912 321.3085 698.992)" gradientUnits="userSpaceOnUse">
						<stop  offset="0" style="stop-color:#FFFFFF"/>
						<stop  offset="1" style="stop-color:#897F76"/>
					</radialGradient>
					<rect x="321.277" y="625.994" clip-path="url(#JNB_SVGID_40_)" fill="url(#JNB_SVGID_41_)" width="0.054" height="0.789"/>
				</g>
			</g>
		</g>
		<g opacity="0.13" clip-path="url(#JNB_SVGID_14_)">
			<g>
				<defs>
					<rect id="JNB_SVGID_42_" x="321.149" y="624.705" width="0.084" height="0.793"/>
				</defs>
				<clipPath id="JNB_SVGID_43_">
					<use xlink:href="#JNB_SVGID_42_"  overflow="visible"/>
				</clipPath>
				<g clip-path="url(#JNB_SVGID_43_)">
					<defs>
						<path id="JNB_SVGID_44_" d="M321.233,625.498c-0.025-0.268-0.053-0.534-0.084-0.793
							C321.181,624.964,321.208,625.23,321.233,625.498"/>
					</defs>
					<clipPath id="JNB_SVGID_45_">
						<use xlink:href="#JNB_SVGID_44_"  overflow="visible"/>
					</clipPath>
					
						<radialGradient id="JNB_SVGID_46_" cx="0" cy="792" r="1" gradientTransform="matrix(0.1403 0 0 -0.1403 321.1982 736.5963)" gradientUnits="userSpaceOnUse">
						<stop  offset="0" style="stop-color:#FFFFFF"/>
						<stop  offset="1" style="stop-color:#897F76"/>
					</radialGradient>
					<rect x="321.149" y="624.705" clip-path="url(#JNB_SVGID_45_)" fill="url(#JNB_SVGID_46_)" width="0.084" height="0.793"/>
				</g>
			</g>
		</g>
		<g opacity="0.13" clip-path="url(#JNB_SVGID_14_)">
			<g>
				<defs>
					<rect id="JNB_SVGID_47_" x="292.642" y="665.427" width="0.062" height="0.356"/>
				</defs>
				<clipPath id="JNB_SVGID_48_">
					<use xlink:href="#JNB_SVGID_47_"  overflow="visible"/>
				</clipPath>
				<g clip-path="url(#JNB_SVGID_48_)">
					<defs>
						<path id="JNB_SVGID_49_" d="M292.704,665.427c-0.02,0.118-0.042,0.238-0.062,0.356
							C292.662,665.665,292.684,665.545,292.704,665.427"/>
					</defs>
					<clipPath id="JNB_SVGID_50_">
						<use xlink:href="#JNB_SVGID_49_"  overflow="visible"/>
					</clipPath>
					
						<radialGradient id="JNB_SVGID_51_" cx="0" cy="792" r="1" gradientTransform="matrix(0.1027 0 0 -0.1027 292.6777 747.0958)" gradientUnits="userSpaceOnUse">
						<stop  offset="0" style="stop-color:#FFFFFF"/>
						<stop  offset="1" style="stop-color:#897F76"/>
					</radialGradient>
					<rect x="292.642" y="665.427" clip-path="url(#JNB_SVGID_50_)" fill="url(#JNB_SVGID_51_)" width="0.062" height="0.356"/>
				</g>
			</g>
		</g>
		<g opacity="0.13" clip-path="url(#JNB_SVGID_14_)">
			<g>
				<defs>
					<rect id="JNB_SVGID_52_" x="317.72" y="617.76" width="0.569" height="0.437"/>
				</defs>
				<clipPath id="JNB_SVGID_53_">
					<use xlink:href="#JNB_SVGID_52_"  overflow="visible"/>
				</clipPath>
				<g clip-path="url(#JNB_SVGID_53_)">
					<defs>
						<path id="JNB_SVGID_54_" d="M318.289,618.196c-0.179-0.153-0.368-0.299-0.569-0.437
							C317.921,617.897,318.109,618.043,318.289,618.196"/>
					</defs>
					<clipPath id="JNB_SVGID_55_">
						<use xlink:href="#JNB_SVGID_54_"  overflow="visible"/>
					</clipPath>
					
						<radialGradient id="JNB_SVGID_56_" cx="0" cy="792" r="1" gradientTransform="matrix(0.9301 0 0 -0.9301 318.0508 1354.8394)" gradientUnits="userSpaceOnUse">
						<stop  offset="0" style="stop-color:#FFFFFF"/>
						<stop  offset="1" style="stop-color:#897F76"/>
					</radialGradient>
					<rect x="317.72" y="617.76" clip-path="url(#JNB_SVGID_55_)" fill="url(#JNB_SVGID_56_)" width="0.569" height="0.437"/>
				</g>
			</g>
		</g>
		<g opacity="0.13" clip-path="url(#JNB_SVGID_14_)">
			<g>
				<defs>
					<rect id="JNB_SVGID_57_" x="319.141" y="619.076" width="0.425" height="0.577"/>
				</defs>
				<clipPath id="JNB_SVGID_58_">
					<use xlink:href="#JNB_SVGID_57_"  overflow="visible"/>
				</clipPath>
				<g clip-path="url(#JNB_SVGID_58_)">
					<defs>
						<path id="JNB_SVGID_59_" d="M319.565,619.653c-0.131-0.202-0.275-0.392-0.425-0.577
							C319.291,619.262,319.435,619.452,319.565,619.653"/>
					</defs>
					<clipPath id="JNB_SVGID_60_">
						<use xlink:href="#JNB_SVGID_59_"  overflow="visible"/>
					</clipPath>
					
						<radialGradient id="JNB_SVGID_61_" cx="0" cy="792" r="1" gradientTransform="matrix(0.6916 0 0 -0.6916 319.3877 1167.3752)" gradientUnits="userSpaceOnUse">
						<stop  offset="0" style="stop-color:#FFFFFF"/>
						<stop  offset="1" style="stop-color:#897F76"/>
					</radialGradient>
					<rect x="319.141" y="619.076" clip-path="url(#JNB_SVGID_60_)" fill="url(#JNB_SVGID_61_)" width="0.425" height="0.577"/>
				</g>
			</g>
		</g>
		<g opacity="0.13" clip-path="url(#JNB_SVGID_14_)">
			<g>
				<defs>
					<rect id="JNB_SVGID_62_" x="315.777" y="616.81" width="0.823" height="0.331"/>
				</defs>
				<clipPath id="JNB_SVGID_63_">
					<use xlink:href="#JNB_SVGID_62_"  overflow="visible"/>
				</clipPath>
				<g clip-path="url(#JNB_SVGID_63_)">
					<defs>
						<path id="JNB_SVGID_64_" d="M316.601,617.141c-0.263-0.118-0.531-0.233-0.823-0.331
							C316.069,616.907,316.338,617.022,316.601,617.141"/>
					</defs>
					<clipPath id="JNB_SVGID_65_">
						<use xlink:href="#JNB_SVGID_64_"  overflow="visible"/>
					</clipPath>
					
						<radialGradient id="JNB_SVGID_66_" cx="0" cy="792" r="1" gradientTransform="matrix(1.3464 0 0 -1.3464 316.2559 1683.509)" gradientUnits="userSpaceOnUse">
						<stop  offset="0" style="stop-color:#FFFFFF"/>
						<stop  offset="1" style="stop-color:#897F76"/>
					</radialGradient>
					<rect x="315.777" y="616.81" clip-path="url(#JNB_SVGID_65_)" fill="url(#JNB_SVGID_66_)" width="0.823" height="0.331"/>
				</g>
			</g>
		</g>
		<g opacity="0.13" clip-path="url(#JNB_SVGID_14_)">
			<g>
				<defs>
					<rect id="JNB_SVGID_67_" x="320.706" y="637.487" width="0.425" height="2.591"/>
				</defs>
				<clipPath id="JNB_SVGID_68_">
					<use xlink:href="#JNB_SVGID_67_"  overflow="visible"/>
				</clipPath>
				<g clip-path="url(#JNB_SVGID_68_)">
					<defs>
						<path id="JNB_SVGID_69_" d="M320.71,640.049l-0.004,0.029c0.167-0.854,0.31-1.706,0.425-2.591
							C321.017,638.363,320.875,639.206,320.71,640.049"/>
					</defs>
					<clipPath id="JNB_SVGID_70_">
						<use xlink:href="#JNB_SVGID_69_"  overflow="visible"/>
					</clipPath>
					
						<radialGradient id="JNB_SVGID_71_" cx="0" cy="792" r="1" gradientTransform="matrix(0.6999 0 0 -0.6999 320.9531 1194.3389)" gradientUnits="userSpaceOnUse">
						<stop  offset="0" style="stop-color:#FFFFFF"/>
						<stop  offset="1" style="stop-color:#897F76"/>
					</radialGradient>
					<rect x="320.706" y="637.487" clip-path="url(#JNB_SVGID_70_)" fill="url(#JNB_SVGID_71_)" width="0.425" height="2.591"/>
				</g>
			</g>
		</g>
		<g opacity="0.13" clip-path="url(#JNB_SVGID_14_)">
			<g>
				<defs>
					<rect id="JNB_SVGID_72_" x="321.137" y="635.655" width="0.186" height="1.793"/>
				</defs>
				<clipPath id="JNB_SVGID_73_">
					<use xlink:href="#JNB_SVGID_72_"  overflow="visible"/>
				</clipPath>
				<g clip-path="url(#JNB_SVGID_73_)">
					<defs>
						<path id="JNB_SVGID_74_" d="M321.137,637.448c0.074-0.58,0.138-1.174,0.186-1.793
							C321.274,636.274,321.212,636.868,321.137,637.448"/>
					</defs>
					<clipPath id="JNB_SVGID_75_">
						<use xlink:href="#JNB_SVGID_74_"  overflow="visible"/>
					</clipPath>
					
						<radialGradient id="JNB_SVGID_76_" cx="0" cy="792" r="1" gradientTransform="matrix(0.3086 0 0 -0.3086 321.2439 881.8382)" gradientUnits="userSpaceOnUse">
						<stop  offset="0" style="stop-color:#FFFFFF"/>
						<stop  offset="1" style="stop-color:#897F76"/>
					</radialGradient>
					<rect x="321.137" y="635.655" clip-path="url(#JNB_SVGID_75_)" fill="url(#JNB_SVGID_76_)" width="0.186" height="1.793"/>
				</g>
			</g>
		</g>
		<g opacity="0.13" clip-path="url(#JNB_SVGID_14_)">
			<g>
				<defs>
					<rect id="JNB_SVGID_77_" x="321.408" y="628.837" width="0.015" height="0.737"/>
				</defs>
				<clipPath id="JNB_SVGID_78_">
					<use xlink:href="#JNB_SVGID_77_"  overflow="visible"/>
				</clipPath>
				<g clip-path="url(#JNB_SVGID_78_)">
					<defs>
						<path id="JNB_SVGID_79_" d="M321.423,629.574c-0.004-0.25-0.01-0.493-0.015-0.737
							C321.413,629.081,321.419,629.324,321.423,629.574"/>
					</defs>
					<clipPath id="JNB_SVGID_80_">
						<use xlink:href="#JNB_SVGID_79_"  overflow="visible"/>
					</clipPath>
					
						<radialGradient id="JNB_SVGID_81_" cx="0" cy="792" r="1" gradientTransform="matrix(0.0338 0 0 -0.0338 321.4168 656.3365)" gradientUnits="userSpaceOnUse">
						<stop  offset="0" style="stop-color:#FFFFFF"/>
						<stop  offset="1" style="stop-color:#897F76"/>
					</radialGradient>
					<rect x="321.408" y="628.837" clip-path="url(#JNB_SVGID_80_)" fill="url(#JNB_SVGID_81_)" width="0.015" height="0.737"/>
				</g>
			</g>
		</g>
		<g opacity="0.13" clip-path="url(#JNB_SVGID_14_)">
			<g>
				<defs>
					<rect id="JNB_SVGID_82_" x="321.326" y="634.786" width="0.052" height="0.808"/>
				</defs>
				<clipPath id="JNB_SVGID_83_">
					<use xlink:href="#JNB_SVGID_82_"  overflow="visible"/>
				</clipPath>
				<g clip-path="url(#JNB_SVGID_83_)">
					<defs>
						<path id="JNB_SVGID_84_" d="M321.326,635.594c0.02-0.264,0.038-0.534,0.052-0.808C321.363,635.06,321.347,635.33,321.326,635.594"
							/>
					</defs>
					<clipPath id="JNB_SVGID_85_">
						<use xlink:href="#JNB_SVGID_84_"  overflow="visible"/>
					</clipPath>
					
						<radialGradient id="JNB_SVGID_86_" cx="0" cy="792" r="1" gradientTransform="matrix(0.0887 0 0 -0.0887 321.3566 705.8314)" gradientUnits="userSpaceOnUse">
						<stop  offset="0" style="stop-color:#FFFFFF"/>
						<stop  offset="1" style="stop-color:#897F76"/>
					</radialGradient>
					<rect x="321.326" y="634.786" clip-path="url(#JNB_SVGID_85_)" fill="url(#JNB_SVGID_86_)" width="0.052" height="0.808"/>
				</g>
			</g>
		</g>
		<g opacity="0.13" clip-path="url(#JNB_SVGID_14_)">
			<g>
				<defs>
					<rect id="JNB_SVGID_87_" x="327.15" y="752.422" width="1.921" height="0.522"/>
				</defs>
				<clipPath id="JNB_SVGID_88_">
					<use xlink:href="#JNB_SVGID_87_"  overflow="visible"/>
				</clipPath>
				<g clip-path="url(#JNB_SVGID_88_)">
					<defs>
						<path id="JNB_SVGID_89_" d="M327.16,752.496l1.911,0.448c-0.946-0.25-1.594-0.43-1.921-0.522L327.16,752.496z"/>
					</defs>
					<clipPath id="JNB_SVGID_90_">
						<use xlink:href="#JNB_SVGID_89_"  overflow="visible"/>
					</clipPath>
					
						<radialGradient id="JNB_SVGID_91_" cx="0" cy="792" r="1" gradientTransform="matrix(3.1347 0 0 -3.1347 328.2676 3235.5955)" gradientUnits="userSpaceOnUse">
						<stop  offset="0" style="stop-color:#FFFFFF"/>
						<stop  offset="1" style="stop-color:#897F76"/>
					</radialGradient>
					<rect x="327.15" y="752.422" clip-path="url(#JNB_SVGID_90_)" fill="url(#JNB_SVGID_91_)" width="1.921" height="0.522"/>
				</g>
			</g>
		</g>
		<g opacity="0.13" clip-path="url(#JNB_SVGID_14_)">
			<g>
				<defs>
					<rect id="JNB_SVGID_92_" x="321.43" y="630.465" width="0.005" height="0.609"/>
				</defs>
				<clipPath id="JNB_SVGID_93_">
					<use xlink:href="#JNB_SVGID_92_"  overflow="visible"/>
				</clipPath>
				<g clip-path="url(#JNB_SVGID_93_)">
					<defs>
						<path id="JNB_SVGID_94_" d="M321.435,631.074c-0.001-0.206-0.003-0.406-0.005-0.609
							C321.432,630.668,321.434,630.868,321.435,631.074"/>
					</defs>
					<clipPath id="JNB_SVGID_95_">
						<use xlink:href="#JNB_SVGID_94_"  overflow="visible"/>
					</clipPath>
					
						<radialGradient id="JNB_SVGID_96_" cx="0" cy="792" r="1" gradientTransform="matrix(0.0213 0 0 -0.0213 321.4327 647.9346)" gradientUnits="userSpaceOnUse">
						<stop  offset="0" style="stop-color:#FFFFFF"/>
						<stop  offset="1" style="stop-color:#897F76"/>
					</radialGradient>
					<rect x="321.43" y="630.465" clip-path="url(#JNB_SVGID_95_)" fill="url(#JNB_SVGID_96_)" width="0.005" height="0.609"/>
				</g>
			</g>
		</g>
		<g opacity="0.13" clip-path="url(#JNB_SVGID_14_)">
			<g>
				<defs>
					<rect id="JNB_SVGID_97_" x="321.425" y="632.625" width="0.011" height="0.947"/>
				</defs>
				<clipPath id="JNB_SVGID_98_">
					<use xlink:href="#JNB_SVGID_97_"  overflow="visible"/>
				</clipPath>
				<g clip-path="url(#JNB_SVGID_98_)">
					<defs>
						<path id="JNB_SVGID_99_" d="M321.425,633.572c0.006-0.31,0.011-0.623,0.011-0.947
							C321.436,632.949,321.432,633.263,321.425,633.572"/>
					</defs>
					<clipPath id="JNB_SVGID_100_">
						<use xlink:href="#JNB_SVGID_99_"  overflow="visible"/>
					</clipPath>
					
						<radialGradient id="JNB_SVGID_101_" cx="0" cy="792" r="1" gradientTransform="matrix(0.0366 0 0 -0.0366 321.4316 662.5201)" gradientUnits="userSpaceOnUse">
						<stop  offset="0" style="stop-color:#FFFFFF"/>
						<stop  offset="1" style="stop-color:#897F76"/>
					</radialGradient>
					<rect x="321.425" y="632.625" clip-path="url(#JNB_SVGID_100_)" fill="url(#JNB_SVGID_101_)" width="0.011" height="0.947"/>
				</g>
			</g>
		</g>
		<g opacity="0.13" clip-path="url(#JNB_SVGID_14_)">
			<g>
				<defs>
					<rect id="JNB_SVGID_102_" x="321.391" y="633.848" width="0.026" height="0.687"/>
				</defs>
				<clipPath id="JNB_SVGID_103_">
					<use xlink:href="#JNB_SVGID_102_"  overflow="visible"/>
				</clipPath>
				<g clip-path="url(#JNB_SVGID_103_)">
					<defs>
						<path id="JNB_SVGID_104_" d="M321.391,634.534c0.011-0.226,0.02-0.454,0.026-0.687C321.41,634.08,321.401,634.309,321.391,634.534
							"/>
					</defs>
					<clipPath id="JNB_SVGID_105_">
						<use xlink:href="#JNB_SVGID_104_"  overflow="visible"/>
					</clipPath>
					
						<radialGradient id="JNB_SVGID_106_" cx="0" cy="792" r="1" gradientTransform="matrix(0.0479 0 0 -0.0479 321.4053 672.4807)" gradientUnits="userSpaceOnUse">
						<stop  offset="0" style="stop-color:#FFFFFF"/>
						<stop  offset="1" style="stop-color:#897F76"/>
					</radialGradient>
					<rect x="321.391" y="633.848" clip-path="url(#JNB_SVGID_105_)" fill="url(#JNB_SVGID_106_)" width="0.026" height="0.687"/>
				</g>
			</g>
		</g>
		<g opacity="0.13" clip-path="url(#JNB_SVGID_14_)">
			<g>
				<defs>
					<rect id="JNB_SVGID_107_" x="316.818" y="617.236" width="0.673" height="0.379"/>
				</defs>
				<clipPath id="JNB_SVGID_108_">
					<use xlink:href="#JNB_SVGID_107_"  overflow="visible"/>
				</clipPath>
				<g clip-path="url(#JNB_SVGID_108_)">
					<defs>
						<path id="JNB_SVGID_109_" d="M317.491,617.615c-0.214-0.134-0.436-0.264-0.673-0.379
							C317.056,617.352,317.277,617.481,317.491,617.615"/>
					</defs>
					<clipPath id="JNB_SVGID_110_">
						<use xlink:href="#JNB_SVGID_109_"  overflow="visible"/>
					</clipPath>
					
						<radialGradient id="JNB_SVGID_111_" cx="0" cy="792" r="1" gradientTransform="matrix(1.0992 0 0 -1.0992 317.209 1488.1548)" gradientUnits="userSpaceOnUse">
						<stop  offset="0" style="stop-color:#FFFFFF"/>
						<stop  offset="1" style="stop-color:#897F76"/>
					</radialGradient>
					<rect x="316.818" y="617.236" clip-path="url(#JNB_SVGID_110_)" fill="url(#JNB_SVGID_111_)" width="0.673" height="0.379"/>
				</g>
			</g>
		</g>
		<g opacity="0.13" clip-path="url(#JNB_SVGID_14_)">
			<g>
				<defs>
					<rect id="JNB_SVGID_112_" x="297.743" y="615.446" width="18.032" height="1.362"/>
				</defs>
				<clipPath id="JNB_SVGID_113_">
					<use xlink:href="#JNB_SVGID_112_"  overflow="visible"/>
				</clipPath>
				<g clip-path="url(#JNB_SVGID_113_)">
					<defs>
						<path id="JNB_SVGID_114_" d="M297.743,615.733c7.439-0.331,18.023,1.074,18.032,1.075c-0.737-0.244-1.561-0.43-2.503-0.534
							C308.852,615.783,302.574,615.029,297.743,615.733"/>
					</defs>
					<clipPath id="JNB_SVGID_115_">
						<use xlink:href="#JNB_SVGID_114_"  overflow="visible"/>
					</clipPath>
					
						<radialGradient id="JNB_SVGID_116_" cx="0" cy="792" r="1" gradientTransform="matrix(29.4326 0 0 -29.4326 308.2188 23927.4082)" gradientUnits="userSpaceOnUse">
						<stop  offset="0" style="stop-color:#FFFFFF"/>
						<stop  offset="1" style="stop-color:#897F76"/>
					</radialGradient>
					<rect x="297.743" y="615.029" clip-path="url(#JNB_SVGID_115_)" fill="url(#JNB_SVGID_116_)" width="18.032" height="1.779"/>
				</g>
			</g>
		</g>
		<g opacity="0.13" clip-path="url(#JNB_SVGID_14_)">
			<g>
				<defs>
					<rect id="JNB_SVGID_117_" x="316.097" y="666.482" width="0.373" height="5.05"/>
				</defs>
				<clipPath id="JNB_SVGID_118_">
					<use xlink:href="#JNB_SVGID_117_"  overflow="visible"/>
				</clipPath>
				<g clip-path="url(#JNB_SVGID_118_)">
					<defs>
						<path id="JNB_SVGID_119_" d="M316.47,666.482l-0.373,2.321l0.361,2.729C316.406,669.875,316.406,668.202,316.47,666.482"/>
					</defs>
					<clipPath id="JNB_SVGID_120_">
						<use xlink:href="#JNB_SVGID_119_"  overflow="visible"/>
					</clipPath>
					
						<radialGradient id="JNB_SVGID_121_" cx="0" cy="792" r="1" gradientTransform="matrix(0.6305 0 0 -0.6305 316.3135 1170.8589)" gradientUnits="userSpaceOnUse">
						<stop  offset="0" style="stop-color:#FFFFFF"/>
						<stop  offset="1" style="stop-color:#897F76"/>
					</radialGradient>
					<rect x="316.097" y="666.482" clip-path="url(#JNB_SVGID_120_)" fill="url(#JNB_SVGID_121_)" width="0.373" height="5.05"/>
				</g>
			</g>
		</g>
		<g opacity="0.13" clip-path="url(#JNB_SVGID_14_)">
			<g>
				<defs>
					<rect id="JNB_SVGID_122_" x="279.399" y="742.34" width="3.739" height="12.504"/>
				</defs>
				<clipPath id="JNB_SVGID_123_">
					<use xlink:href="#JNB_SVGID_122_"  overflow="visible"/>
				</clipPath>
				<g clip-path="url(#JNB_SVGID_123_)">
					<defs>
						<path id="JNB_SVGID_124_" d="M279.399,754.844c1.159-0.337,2.181-0.643,3.029-0.904c0.358-2.218,0.563-6.511,0.71-11.601
							c-0.378,6.286-0.709,10.913-0.709,10.913S281.473,753.885,279.399,754.844"/>
					</defs>
					<clipPath id="JNB_SVGID_125_">
						<use xlink:href="#JNB_SVGID_124_"  overflow="visible"/>
					</clipPath>
					
						<radialGradient id="JNB_SVGID_126_" cx="0" cy="792" r="1" gradientTransform="matrix(6.117 0 0 -6.117 281.5703 5599.4302)" gradientUnits="userSpaceOnUse">
						<stop  offset="0" style="stop-color:#FFFFFF"/>
						<stop  offset="1" style="stop-color:#897F76"/>
					</radialGradient>
					<rect x="279.399" y="742.339" clip-path="url(#JNB_SVGID_125_)" fill="url(#JNB_SVGID_126_)" width="3.739" height="12.505"/>
				</g>
			</g>
		</g>
		<g opacity="0.13" clip-path="url(#JNB_SVGID_14_)">
			<g>
				<defs>
					<rect id="JNB_SVGID_127_" x="284.887" y="684.433" width="4.104" height="22.337"/>
				</defs>
				<clipPath id="JNB_SVGID_128_">
					<use xlink:href="#JNB_SVGID_127_"  overflow="visible"/>
				</clipPath>
				<g clip-path="url(#JNB_SVGID_128_)">
					<defs>
						<path id="JNB_SVGID_129_" d="M288.991,684.433c-1.654,7.986-3.25,15.765-4.104,22.337
							C285.973,700.83,287.558,692.081,288.991,684.433"/>
					</defs>
					<clipPath id="JNB_SVGID_130_">
						<use xlink:href="#JNB_SVGID_129_"  overflow="visible"/>
					</clipPath>
					
						<radialGradient id="JNB_SVGID_131_" cx="0" cy="792" r="1" gradientTransform="matrix(6.7393 0 0 -6.7393 287.2734 6044.1021)" gradientUnits="userSpaceOnUse">
						<stop  offset="0" style="stop-color:#FFFFFF"/>
						<stop  offset="1" style="stop-color:#897F76"/>
					</radialGradient>
					<rect x="284.887" y="684.433" clip-path="url(#JNB_SVGID_130_)" fill="url(#JNB_SVGID_131_)" width="4.104" height="22.337"/>
				</g>
			</g>
		</g>
		<g opacity="0.13" clip-path="url(#JNB_SVGID_14_)">
			<g>
				<defs>
					<rect id="JNB_SVGID_132_" x="290.594" y="620.519" width="3.482" height="31.195"/>
				</defs>
				<clipPath id="JNB_SVGID_133_">
					<use xlink:href="#JNB_SVGID_132_"  overflow="visible"/>
				</clipPath>
				<g clip-path="url(#JNB_SVGID_133_)">
					<defs>
						<path id="JNB_SVGID_134_" d="M294.072,651.714c0.122-12.787-2.764-24.185-3.353-31.195c-0.077,0.375-0.125,0.771-0.125,1.198
							C290.594,628.317,294.147,638.478,294.072,651.714"/>
					</defs>
					<clipPath id="JNB_SVGID_135_">
						<use xlink:href="#JNB_SVGID_134_"  overflow="visible"/>
					</clipPath>
					
						<radialGradient id="JNB_SVGID_136_" cx="0" cy="792" r="1" gradientTransform="matrix(5.7759 0 0 -5.7759 292.6172 5225.9727)" gradientUnits="userSpaceOnUse">
						<stop  offset="0" style="stop-color:#FFFFFF"/>
						<stop  offset="1" style="stop-color:#897F76"/>
					</radialGradient>
					<rect x="290.594" y="620.519" clip-path="url(#JNB_SVGID_135_)" fill="url(#JNB_SVGID_136_)" width="3.6" height="31.195"/>
				</g>
			</g>
		</g>
		<g opacity="0.13" clip-path="url(#JNB_SVGID_14_)">
			<g>
				<defs>
					<rect id="JNB_SVGID_137_" x="319.605" y="695.345" width="6.888" height="52.104"/>
				</defs>
				<clipPath id="JNB_SVGID_138_">
					<use xlink:href="#JNB_SVGID_137_"  overflow="visible"/>
				</clipPath>
				<g clip-path="url(#JNB_SVGID_138_)">
					<defs>
						<path id="JNB_SVGID_139_" d="M319.605,695.345l6.888,52.104c-0.546-6.238-1.755-18.255-4.149-35.019
							C321.399,705.816,320.454,700.253,319.605,695.345"/>
					</defs>
					<clipPath id="JNB_SVGID_140_">
						<use xlink:href="#JNB_SVGID_139_"  overflow="visible"/>
					</clipPath>
					
						<radialGradient id="JNB_SVGID_141_" cx="0" cy="792" r="1" gradientTransform="matrix(11.3719 0 0 -11.3719 323.6094 9753.5176)" gradientUnits="userSpaceOnUse">
						<stop  offset="0" style="stop-color:#FFFFFF"/>
						<stop  offset="1" style="stop-color:#897F76"/>
					</radialGradient>
					<rect x="319.605" y="695.345" clip-path="url(#JNB_SVGID_140_)" fill="url(#JNB_SVGID_141_)" width="6.888" height="52.104"/>
				</g>
			</g>
		</g>
		<g opacity="0.13" clip-path="url(#JNB_SVGID_14_)">
			<g>
				<defs>
					<rect id="JNB_SVGID_142_" x="223.279" y="594.019" width="160.983" height="169.998"/>
				</defs>
				<clipPath id="JNB_SVGID_143_">
					<use xlink:href="#JNB_SVGID_142_"  overflow="visible"/>
				</clipPath>
				<g clip-path="url(#JNB_SVGID_143_)">
					<defs>
						<path id="JNB_SVGID_144_" d="M374.159,647.232c3.372-2.019,10.103-4.717,10.103-8.085c0-3.366-14.144-23.577-16.84-23.577
							c-2.694,0-26.943-15.49-30.31-15.49s-41.761-6.062-43.784-6.062c-2.02,0-22.221,4.718-25.587,8.76
							c-3.369,4.037-18.866,14.814-22.235,21.551c-3.368,6.731-22.227,33.005-22.227,38.393c0,5.39,5.393,33.676,13.474,46.474
							c8.079,12.801,4.713,24.923,0.676,34.35c-2.684,6.263-5.665,14.588-8.548,20.471c16.186-0.491,35.453-5.011,46.791-8.121
							c0.299-10.029,1.436-45.237,2.809-49.905c1.603-5.451,9.299-38.157,9.94-45.212s1.603-21.805,0-29.82
							s-3.207-17.636-1.924-18.919c1.283-1.282,30.782-3.206,34.63,0.642c3.848,3.849,8.017,13.146,5.772,21.163
							c-2.245,8.017-7.375,32.065-7.375,38.157s6.733,38.799,7.375,43.288c0.493,3.46,4.416,27.676,6.188,38.597l9.401,2.203
							c7.103,1.486,16.24,3.14,26.604,4.42c-1.433-2.563-2.913-5.3-4.364-8.204c-6.731-13.468-2.692-40.411-1.352-47.823
							c1.352-7.413,9.433-28.963,10.783-33.005C375.509,667.433,370.788,649.252,374.159,647.232"/>
					</defs>
					<clipPath id="JNB_SVGID_145_">
						<use xlink:href="#JNB_SVGID_144_"  overflow="visible"/>
					</clipPath>
					
						<radialGradient id="JNB_SVGID_146_" cx="0" cy="792" r="1" gradientTransform="matrix(262.816 0 0 -262.816 316.875 208912.7813)" gradientUnits="userSpaceOnUse">
						<stop  offset="0" style="stop-color:#FFFFFF"/>
						<stop  offset="1" style="stop-color:#897F76"/>
					</radialGradient>
					<rect x="223.279" y="594.019" clip-path="url(#JNB_SVGID_145_)" fill="url(#JNB_SVGID_146_)" width="160.983" height="169.997"/>
				</g>
			</g>
		</g>
		<g opacity="0.13" clip-path="url(#JNB_SVGID_14_)">
			<g>
				<defs>
					<rect id="JNB_SVGID_147_" x="318.492" y="618.376" width="0.488" height="0.501"/>
				</defs>
				<clipPath id="JNB_SVGID_148_">
					<use xlink:href="#JNB_SVGID_147_"  overflow="visible"/>
				</clipPath>
				<g clip-path="url(#JNB_SVGID_148_)">
					<defs>
						<path id="JNB_SVGID_149_" d="M318.492,618.376c0.171,0.16,0.335,0.326,0.488,0.501
							C318.827,618.702,318.663,618.536,318.492,618.376"/>
					</defs>
					<clipPath id="JNB_SVGID_150_">
						<use xlink:href="#JNB_SVGID_149_"  overflow="visible"/>
					</clipPath>
					
						<radialGradient id="JNB_SVGID_151_" cx="0" cy="792" r="1" gradientTransform="matrix(0.7966 0 0 -0.7966 318.7754 1249.7706)" gradientUnits="userSpaceOnUse">
						<stop  offset="0" style="stop-color:#FFFFFF"/>
						<stop  offset="1" style="stop-color:#897F76"/>
					</radialGradient>
					<rect x="318.492" y="618.376" clip-path="url(#JNB_SVGID_150_)" fill="url(#JNB_SVGID_151_)" width="0.488" height="0.501"/>
				</g>
			</g>
		</g>
		<g opacity="0.13" clip-path="url(#JNB_SVGID_14_)">
			<g>
				<defs>
					<rect id="JNB_SVGID_152_" x="141.806" y="198.176" width="76.358" height="554.457"/>
				</defs>
				<clipPath id="JNB_SVGID_153_">
					<use xlink:href="#JNB_SVGID_152_"  overflow="visible"/>
				</clipPath>
				<g clip-path="url(#JNB_SVGID_153_)">
					<defs>
						<path id="JNB_SVGID_154_" d="M190.957,705.15c0.672-7.405-21.557-39.739-30.31-55.233c-8.756-15.49-0.674-53.207,2.018-68.027
							c2.693-14.82,22.899-28.963,29.634-37.046c6.737-8.084,21.557-67.35,24.921-83.521c3.369-16.165-3.364-64.657-3.364-64.657
							s-6.741-11.457-6.741-14.148c0-2.692,4.043-20.21,6.739-26.271c2.696-6.062,2.02-54.557,2.02-58.599
							s-19.536-25.597-22.23-33.005c-1.906-5.24-10.507-44.144-15.379-66.467c-2.754,1.63-18.295,8.209-18.812,9.638
							c2.075,14.186,13.978,66.345,13.978,66.345c1.878,6.885,3.755,19.194,5.216,32.338c1.044,3.215,0.514,13.464,1.878,20.029
							c1.877,12.101,4.172,68.519,4.172,74.065c0,6.028-6.447,38.38-7.492,42.911c-1.817,7.874-7.219,23.876-11.094,42.099
							c-7.732,36.36-16.129,82.934-21.567,128.859c-8.165,68.942,4.535,128.814,4.535,128.814s5.711,4.523,16.387,9.358
							c1.143-3.438,2.323-6.542,3.26-8.416C171.422,738.832,190.283,712.555,190.957,705.15"/>
					</defs>
					<clipPath id="JNB_SVGID_155_">
						<use xlink:href="#JNB_SVGID_154_"  overflow="visible"/>
					</clipPath>
					
						<radialGradient id="JNB_SVGID_156_" cx="0" cy="792" r="1" gradientTransform="matrix(225.764 0 0 -225.764 159.75 179209.4844)" gradientUnits="userSpaceOnUse">
						<stop  offset="0" style="stop-color:#FFFFFF"/>
						<stop  offset="1" style="stop-color:#897F76"/>
					</radialGradient>
					<rect x="136.379" y="198.176" clip-path="url(#JNB_SVGID_155_)" fill="url(#JNB_SVGID_156_)" width="84.21" height="554.457"/>
				</g>
			</g>
		</g>
		<g opacity="0.13" clip-path="url(#JNB_SVGID_14_)">
			<g>
				<defs>
					<rect id="JNB_SVGID_157_" x="377.629" y="183.049" width="86.073" height="575.43"/>
				</defs>
				<clipPath id="JNB_SVGID_158_">
					<use xlink:href="#JNB_SVGID_157_"  overflow="visible"/>
				</clipPath>
				<g clip-path="url(#JNB_SVGID_158_)">
					<defs>
						<path id="JNB_SVGID_159_" d="M462.951,718.781c1.813-13.607,0-107.043-1.815-134.257c-1.813-27.215-27.214-125.187-32.657-148.771
							c-5.442-23.586-0.211-76.911,6.14-105.939c5.214-23.839,16.682-89.933,20.349-111.258c-0.937-2.824,1.187-4.429,0.198-7.667
							c-6.154-2.752-17.997-8.922-27.593-19.158c-2.362-2.519-5.001-5.43-7.772-8.682c-3.017,12.474-5.184,22.175-5.373,25.018
							c-0.676,10.104-10.103,57.924-10.776,63.314c-0.673,5.391-6.742,20.883-5.392,30.986c1.348,10.1,22.899,25.592,23.572,37.718
							c0.677,12.124-3.361,30.984-4.711,33.002c-1.348,2.021-14.143,33.679-14.143,36.369c0,2.698-16.172,41.087-21.557,41.087
							c-5.388,0-4.713,20.889,0,35.033c4.713,14.142,34.352,48.492,35.025,54.555c0.674,6.066,11.453,16.842,10.104,19.536
							c-1.352,2.693-9.431,11.442-15.492,12.12c-6.061,0.676-22.235,7.407-24.925,6.061c-2.692-1.346-0.672,10.777,4.715,10.777
							s29.635-2.696,32.33-4.04c2.698-1.343,20.887-11.45,22.903-8.083c2.024,3.366-3.372,25.595-1.35,31.659
							c2.023,6.063-3.373,41.762-6.063,45.128c-2.691,3.367-18.859,33.681-16.838,41.088c2.025,7.405,6.068,42.431,12.803,51.862
							c3.349,4.692,3.696,8.881,3.202,12.238c10.915-2.137,17.857-4.318,17.857-4.318S461.136,732.388,462.951,718.781"/>
					</defs>
					<clipPath id="JNB_SVGID_160_">
						<use xlink:href="#JNB_SVGID_159_"  overflow="visible"/>
					</clipPath>
					
						<radialGradient id="JNB_SVGID_161_" cx="0" cy="792" r="1" gradientTransform="matrix(303.5945 0 0 -303.5945 445.5 240880.125)" gradientUnits="userSpaceOnUse">
						<stop  offset="0" style="stop-color:#FFFFFF"/>
						<stop  offset="1" style="stop-color:#897F76"/>
					</radialGradient>
					<rect x="376.033" y="183.049" clip-path="url(#JNB_SVGID_160_)" fill="url(#JNB_SVGID_161_)" width="88.731" height="575.429"/>
				</g>
			</g>
		</g>
		
			<path clip-path="url(#JNB_SVGID_14_)" fill="none" stroke="#897F76" stroke-width="0.26" stroke-miterlimit="10" stroke-dasharray="0.52,0.52" d="
			M319.524,672c0-6.092,5.13-30.141,7.375-38.157c2.244-8.017-1.925-17.314-5.772-21.163c-3.848-3.848-33.347-1.924-34.63-0.642
			c-1.283,1.283,0.321,10.903,1.924,18.919s0.641,22.766,0,29.82s-8.337,39.761-9.94,45.212c-1.396,4.747-2.549,41.099-2.824,50.413
			c4.695-1.773,6.772-3.15,6.772-3.15s1.815-25.399,1.815-38.1s6.35-35.378,9.071-53.521c2.721-18.143-2.721-31.75-2.721-39.914
			c0-8.165,14.514-6.35,22.678-5.442c8.164,0.906,8.164,7.257,8.164,16.328s-2.721,11.793-4.534,28.121
			c-1.815,16.328,1.813,26.308,5.442,51.707c3.628,25.4,4.535,39.914,4.535,39.914s2.238,0.649,6.222,1.622
			c-1.766-10.882-5.706-35.21-6.201-38.679C326.258,710.799,319.524,678.092,319.524,672z"/>
	</g>
	<g id="TRIM" clip-path="url(#JNB_SVGID_2_)">
		<defs>
			<rect id="JNB_SVGID_162_" width="612" height="792"/>
		</defs>
		<clipPath id="JNB_SVGID_163_">
			<use xlink:href="#JNB_SVGID_162_"  overflow="visible"/>
		</clipPath>
		<path clip-path="url(#JNB_SVGID_163_)" d="M210.955,40.265c0,0-7.962-3.14-6.513,6.89c0.868,6.01,23,28.473,13.126,89.512
			c-6.588,40.724-58.69,62.283-58.69,62.283s-4.797,2.045-4.06,5.727c0.979,4.897,4.06,4.454,4.06,4.454s61.957-18.952,69.47-79.052
			C234.936,77.378,210.955,40.265,210.955,40.265"/>
		
			<path clip-path="url(#JNB_SVGID_163_)" fill="none" stroke="#897F76" stroke-width="0.52" stroke-miterlimit="10" stroke-dasharray="1.039,1.039" d="
			M210.955,40.265c0,0-7.962-3.14-6.513,6.89c0.868,6.01,23,28.473,13.126,89.512c-6.588,40.724-58.69,62.283-58.69,62.283
			s-4.797,2.045-4.06,5.727c0.979,4.897,4.06,4.454,4.06,4.454s61.957-18.952,69.47-79.052
			C234.936,77.378,210.955,40.265,210.955,40.265z"/>
		<path clip-path="url(#JNB_SVGID_163_)" d="M399.249,35.663c3.402,1.534,4.427,4.655,2.365,8.165
			c-1.547,2.636-24.295,22.076-15.761,80.263c6.588,44.916,65.378,79.292,65.378,79.292s8.197,4.396,7.291,8.107
			c-1.522,6.235-4.635,4.16-4.635,4.16s-67.831-34.263-76.894-95.612C368.674,63.702,395.357,33.908,399.249,35.663"/>
		
			<path clip-path="url(#JNB_SVGID_163_)" fill="none" stroke="#897F76" stroke-width="0.52" stroke-miterlimit="10" stroke-dasharray="1.039,1.039" d="
			M399.249,35.663c3.402,1.534,4.427,4.655,2.365,8.165c-1.547,2.636-24.295,22.076-15.761,80.263
			c6.588,44.916,65.378,79.292,65.378,79.292s8.197,4.396,7.291,8.107c-1.522,6.235-4.635,4.16-4.635,4.16
			s-67.831-34.263-76.894-95.612C368.674,63.702,395.357,33.908,399.249,35.663z"/>
		<path clip-path="url(#JNB_SVGID_163_)" d="M224.156,27.671c0,0,35.022,50.161,82.046,49.707c53.377-0.516,79.65-51.504,79.65-51.504
			s-4.473-8.064-6.772-4.764c-2.297,3.301-28.008,45.658-72.279,46.087c-41.516,0.399-73.786-42.307-76.568-45.053
			C227.454,19.396,224.156,27.671,224.156,27.671"/>
		<path clip-path="url(#JNB_SVGID_163_)" fill="none" stroke="#897F76" stroke-width="0.52" stroke-dasharray="1.039,1.039" d="
			M224.156,27.671c0,0,35.022,50.161,82.046,49.707c53.377-0.516,79.65-51.504,79.65-51.504s-4.473-8.064-6.772-4.764
			c-2.297,3.301-28.008,45.658-72.279,46.087c-41.516,0.399-73.786-42.307-76.568-45.053
			C227.454,19.396,224.156,27.671,224.156,27.671z"/>
	</g>
</g>
</svg>
