<?xml version="1.0" encoding="utf-8"?>
<!-- Generator: Adobe Illustrator 19.1.0, SVG Export Plug-In . SVG Version: 6.00 Build 0)  -->
<!DOCTYPE svg PUBLIC "-//W3C//DTD SVG 1.1//EN" "http://www.w3.org/Graphics/SVG/1.1/DTD/svg11.dtd">
<svg version="1.1" xmlns="http://www.w3.org/2000/svg" xmlns:xlink="http://www.w3.org/1999/xlink" x="0px" y="0px"
	 viewBox="0 0 612 792" enable-background="new 0 0 612 792" xml:space="preserve">
<g id="BODY">
	<path id="XMLID_22_" fill="#FFFFFF" stroke="#A39E9B" stroke-width="0.25" stroke-miterlimit="10" d="M465.2,31.2
		c0,0-105.8,0.7-147.8,0.7c-42,0-98,1-112,1c-14,0-62.4-3.1-62.4-3.1s-20.1,67.5-21.6,93.9c-1.6,26.5,0,168-1.6,196.1
		c-1.6,28-6.2,154-7.8,177.4c-1.6,23.3,17.1,224.1,24.9,227.2c7.8,3.1,17.6,15.2,17.6,19.9c0,4.7,8.3,18.1,8.3,18.1
		s19.2,6.7,41.7,6.5c12.8-0.1,38-7.9,38-7.9l10.2-21.8c0,0-4.1-11.7,2.1-19.5c6.2-7.8,13.4-31.1,8.8-43.6c-4.7-12.4-9.9-40.5-3.7-56
		c6.2-15.6,10.9-88.7,6.2-101.1c-4.7-12.4-1.6-60.7,1.6-71.6c3.1-10.9,7-46.7,5.5-51.3c-1.6-4.7,5.4-70,10.1-87.1
		c4.7-17.1,18.7-55.7,18.7-55.7s30,118,33.1,147.5c3.1,29.6,12.2,93.4,13.6,116.7c1.6,26.4,21.8,71.6,20.2,87.1
		c-1.6,15.6-0.5,38-0.5,45.8c0,7.8-1.4,60,6.4,66.3c7.8,6.2,20.6,21.8,22.1,29.6c1.6,7.8,21.8,14,21.8,14l60.7-3.1l1.6-23.3
		c0,0,13.1-18.7,13.1-26.5s5.9-37.3,4.3-48.2c-1.6-10.9,6.1-60.2,6.1-74.2s-9.6-176.3-9.6-193.5c0-17.1-3.1-147.8-3.1-166.5
		c0-18.7-3.1-112-9.3-143.2C476.1,50.6,465.2,31.2,465.2,31.2z"/>
</g>
<g id="CUSTOM">
</g>
<g id="DETAIL">
	
		<radialGradient id="XMLID_2_" cx="156.7997" cy="182.538" r="234.1373" gradientTransform="matrix(-0.7641 0 0 0.7641 569.0832 97.0803)" gradientUnits="userSpaceOnUse">
		<stop  offset="0" style="stop-color:#FFFFFF"/>
		<stop  offset="1" style="stop-color:#000000"/>
	</radialGradient>
	<path id="XMLID_21_" opacity="6.000000e-002" fill="url(#XMLID_2_)" d="M489.3,206.9c0,0-32.1,100.1-41.5,118
		c-9.4,17.9-23.6,51-23.6,51l10.4-0.9c0,0,24.5-41.5,35.9-68.9C481.7,278.6,489.3,206.9,489.3,206.9z"/>
	
		<radialGradient id="XMLID_3_" cx="108.9662" cy="380.591" r="234.5942" gradientTransform="matrix(-0.7641 0 0 0.7641 569.0832 97.0803)" gradientUnits="userSpaceOnUse">
		<stop  offset="0" style="stop-color:#FFFFFF"/>
		<stop  offset="1" style="stop-color:#000000"/>
	</radialGradient>
	<path id="XMLID_20_" opacity="8.000000e-002" fill="url(#XMLID_3_)" d="M441.8,482.3c0,0,12.3-16.1,27.4-30.2
		c15.1-14.2,23-27.7,23-27.7l-0.5-19.2c0,0-17.8,33.7-24.4,41.2C460.7,454,441.8,482.3,441.8,482.3z"/>
	
		<linearGradient id="XMLID_4_" gradientUnits="userSpaceOnUse" x1="471.4773" y1="378.4924" x2="606.9536" y2="240.2529" gradientTransform="matrix(-1 0 0 1 644.0859 0)">
		<stop  offset="0" style="stop-color:#FFFFFF"/>
		<stop  offset="1" style="stop-color:#000000"/>
	</linearGradient>
	<path id="XMLID_19_" opacity="6.000000e-002" fill="url(#XMLID_4_)" d="M124,268.2c0,0,34.9,61.4,34,65.1
		c-1,3.8-27.4-29.3-31.2-27.4c-3.8,1.9,39.6,111.4,39.6,117c0,5.7-4.7,9.4-4.7,9.4s-33.9-75.5-40.6-89.7c-2.4-5.1-1-45.8-1-45.8
		l0.2-36.9L124,268.2z"/>
	
		<linearGradient id="XMLID_5_" gradientUnits="userSpaceOnUse" x1="483.6079" y1="460.589" x2="592.3531" y2="410.8219" gradientTransform="matrix(-1 0 0 1 644.0859 0)">
		<stop  offset="0" style="stop-color:#FFFFFF"/>
		<stop  offset="1" style="stop-color:#000000"/>
	</linearGradient>
	<path id="XMLID_18_" opacity="6.000000e-002" fill="url(#XMLID_5_)" d="M123.1,415.5c0,0,31.2,55.7,26.4,66.1
		c-4.7,10.4-33-52.9-33-52.9L123.1,415.5z"/>
	
		<linearGradient id="XMLID_6_" gradientUnits="userSpaceOnUse" x1="466.2548" y1="542.9071" x2="636.7733" y2="593.6064" gradientTransform="matrix(-1 0 0 1 644.0859 0)">
		<stop  offset="0" style="stop-color:#FFFFFF"/>
		<stop  offset="1" style="stop-color:#000000"/>
	</linearGradient>
	<path id="XMLID_17_" opacity="0.12" fill="url(#XMLID_6_)" d="M112.2,497l1.4-31.9c0,0,16.1,68.4,16.1,76
		c0,7.6,10.4,36.8,18.9,44.4c8.5,7.6,37.8,39.6,40.6,44.4c2.8,4.7-5.7,12.3-13.2,6.6c-7.5-5.7-17.9-3.8-34-31.1
		c-16.1-27.4-16-39.6-23.6-51.9c-7.6-12.3-10-31.4-10-31.4L112.2,497z"/>
	
		<radialGradient id="XMLID_7_" cx="138.713" cy="780.7649" r="189.6952" gradientTransform="matrix(-0.7641 0 0 0.7641 569.0832 97.0803)" gradientUnits="userSpaceOnUse">
		<stop  offset="0" style="stop-color:#FFFFFF"/>
		<stop  offset="1" style="stop-color:#000000"/>
	</radialGradient>
	<path id="XMLID_16_" opacity="0.1" fill="url(#XMLID_7_)" d="M494,692c0,0-30.2,33-54.7,34c-24.6,0.9-47.2-16.1-47.2-16.1l1.9-19.8
		c0,0-2.1,29.3,37.8,29.3C466.6,719.4,494,692,494,692z"/>
	
		<linearGradient id="XMLID_8_" gradientUnits="userSpaceOnUse" x1="245.2728" y1="0.3713" x2="527.2049" y2="100.846" gradientTransform="matrix(-0.9983 5.860000e-002 5.860000e-002 0.9983 630.2491 -8.2467)">
		<stop  offset="0" style="stop-color:#FFFFFF"/>
		<stop  offset="1" style="stop-color:#000000"/>
	</linearGradient>
	<path id="XMLID_15_" opacity="4.000000e-002" fill="url(#XMLID_8_)" d="M289.4,64.2c0,0-59.1,9.1-91.6,1.6
		c-32.6-7.5-61.5-9.5-61.5-9.5l12.9-21.9c0,0,12.2,10.9,29.2,13.7c17,2.8,78.6,11.5,92.4,10.7c13.7-0.8,102.4-1.3,123.4-7.2
		c21.1-6,67-4.9,67-4.9S345.8,60.9,330.6,61.8C315.3,62.7,289.4,64.2,289.4,64.2z"/>
</g>
</svg>
