<?xml version="1.0" encoding="utf-8"?>
<!-- Generator: Adobe Illustrator 26.0.2, SVG Export Plug-In . SVG Version: 6.00 Build 0)  -->
<svg version="1.1" xmlns="http://www.w3.org/2000/svg" xmlns:xlink="http://www.w3.org/1999/xlink" x="0px" y="0px"
	 viewBox="0 0 620.2 986.1" enable-background="new 0 0 732.2 986.1" xml:space="preserve">
<g id="GARMENT">
	<g>
    <g id="UPPER">
      		<g id="ID_NAVY_COLOR">
			<path d="M466.1,444.2c5,0,7.8,0.1,7.8,0.1s10.7,97.2,8.9,162.4c-1.8,65.1-0.9,230.2-1.8,242.6c-0.9,12.5-0.9,91-0.9,91
				s-2.7,2.5-7,5.6c0.3-65.7,1.1-237.6,2.6-329.4C477.2,522.2,469.1,462.7,466.1,444.2z"/>
			<path d="M282.8,444.9c33.9-1.6,140.7-1,178.1-0.7c3,18.4,11.1,78,9.6,172.3c-1.4,93.5-2.3,270.1-2.6,333
				c-8.7,5.4-20.7,10.7-31.4,7.8c-19.6-5.4-40.1-24.1-40.1-24.1s1.8-27.7,2.7-30.3c0.9-2.7-10.7-200.7-14.3-221.2
				c-3.6-20.5-16.1-110.6-16.1-110.6s-11.6,74.9-11.6,85.6c0,10.7-13.4,161.5-11.6,191.8c1.8,30.3-1.8,66.9-1.8,66.9
				s2.7,11.6,2.7,16.1s-0.9,7.1-0.9,7.1s-31.2,19.6-51.7,16.1c-7.2-1.3-13.2-4.5-17.9-8.1c-0.3-65.3-1.1-237.9-2.6-330
				C271.8,523.4,279.7,464.1,282.8,444.9z"/>
			<path d="M262.6,931.3l1.8-9.8c0,0,2.7-178.4,0.9-188.2c-1.8-9.8,0-212.3,0-216.8c0-4.5,5.4-66.9,7.1-70.5c0.2-0.3,2-0.6,5.2-0.8
				c-3.1,19.6-10.9,78.6-9.5,171.2c1.4,89.9,2.2,256.7,2.5,325.3C265.3,936.3,262.6,931.3,262.6,931.3z"/>
		</g>

    </g>
		<path fill="#FFFFFF" d="M277.5,445.2c1.5-0.1,3.3-0.2,5.3-0.3c-3.1,19.2-11,78.5-9.5,171.5c1.4,92.1,2.3,264.6,2.6,330
			c-2-1.5-3.7-3.1-5.3-4.7c-0.3-68.6-1.2-235.3-2.5-325.3C266.6,523.9,274.4,464.8,277.5,445.2z"/>
		<path fill="#FFFFFF" d="M460.9,444.2c1.9,0,3.7,0,5.3,0c3,18.5,11.1,78,9.6,172.2c-1.4,91.8-2.3,263.7-2.6,329.4
			c-1.6,1.1-3.3,2.3-5.3,3.5c0.3-62.9,1.1-239.5,2.6-333C472,522.2,463.8,462.6,460.9,444.2z"/>
		<path fill="none" d="M274.4,717.1c0,1.5,0,2.9,0,4.4c-0.2-4.4-0.3-7-0.3-7L274.4,717.1z"/>
	</g>
	<g id="UPPER">
	<path fill="#C2202E" d="M481.8,383c-1.2-7.1-11.6-138.7-12.9-148.9c-1.2-10.2,2.7-57.8,5.8-64.9c3.1-7.1,7-23.7,7-23.7
		s3.6-9.8,3.9-13.6c0.2-2.6-8.7-42.3-12.8-57.8l-34.6-18.2l-26.6-20.1c0,0-38.3-7.8-50-5.2C350,33.2,328,44.9,328,44.9l-44.1,29.2
		l-6,1.2l0.2,1.3c0,0-13.3,42.3-15.1,50.5c-1.8,8.2,8.1,29.6,8.4,31.5c0.3,1.9,4.3,42.6,5.1,48.1c0.8,5.5-3.9,128.6-3.2,135.7
		c0.5,4.7-6.4,25.5-9.6,49.5c2.5,7.2,0,16.3,8.7,20.9c5.7,3,5.5,7.8,28,10.2c19.9,2.1,62.3,4,84.5,2.3c46.6-3.5,70.4-5.4,77.5-6
		c7.1-0.6,11.2,0.8,13.8,0.2c2.6-0.6,3.4-3.5,3.4-3.5l0.6-5.2c0,0,1.6,0,2.9,3.2C483.8,405.1,483,390.1,481.8,383z"/>
	<path fill="#C2202E" d="M508,427c9.1-0.6,20.8-3.2,23.4-4.5c2.6-1.3,2.6-5.2,2.6-5.2l-1.9-3.2l1.3-3.9l1.9-2.6
		c0,0-1.9-54.5-1.9-65.5c0-11-0.6-122-0.6-141.4s-2.6-71.4-3.2-74c-0.4-1.6-6.1-10.3-13.1-18.7c-4.2-5-8.7-9.9-12.9-13.1
		c-11-8.4-29.4-19.2-29.4-19.2l-1.5-0.8c4,15.5,13,55.2,12.8,57.8c-0.3,3.8-3.9,13.6-3.9,13.6s-3.9,16.6-7,23.7
		c-3.1,7.1-7.1,54.7-5.8,64.9s11.7,141.7,12.9,148.9c1.2,7.1,2.3,19.6,1.9,28.5c0,0,0,0,0,0c1.3,3.2,1.9,7.8,1.9,7.8l-1.3,3.9
		C484.3,423.9,499,427.7,508,427z"/>
	<path fill="#C2202E" d="M276.2,342.1c-0.8-7.1,0.8-129.3,0-134.8c-0.8-5.5-4.8-46.2-5.1-48.1c-0.3-1.9-10.2-23.3-8.4-31.5
		c1.8-8.2,15.1-50.5,15.1-50.5l-0.3-2.1l-6,2c0,0-34,16.3-42.4,32.5c-8.4,16.2-13.6,28.5-14.9,53.2c-1.3,24.7-5.8,137.6-7.1,147.3
		c-1.3,9.7-1.3,76.6-1.3,79.2c0,2.6,0.6,17.5,0.6,22.1c0,4.5-1.9,10.4-1.9,10.4l3.9,3.2c0,0,20.1-5.8,34.4-4.5
		c14.3,1.3,17.5,1.3,17.5,1.3s3.9-3.2,3.2-5.8c-0.6-2.6-0.6-5.2-0.6-9.7c0-4.5,2.6-13,2.6-13s0.2-7.6,2.3-18.9
		C270.9,350.4,276.7,346.8,276.2,342.1z"/>
		
		<path fill="#C2202E" d="M484.1,424.8c0,0,14.9,3.9,24,3.2c9.1-0.6,20.8-3.2,23.4-4.5c2.6-1.3,2.6-5.2,2.6-5.2l-1.9-3.2l1.3-3.9
			l1.9-2.6c0,0-1.9-54.5-1.9-65.5c0-11-0.6-122-0.6-141.4s-2.6-71.4-3.2-74c-0.6-2.6-14.9-23.4-26-31.8c-11-8.4-29.4-19.2-29.4-19.2
			l-1.5-0.8c3.9,14.8,13,55.2,12.8,57.8c-0.3,3.8-3.9,13.6-3.9,13.6s-3.9,16.6-7,23.7c-3.1,7.1-7.1,54.7-5.8,64.9
			c1.2,10.2,11.7,141.7,12.9,148.9c1.2,7.1,2.4,19.6,1.9,28.5c1.3,3.2,1.9,7.8,1.9,7.8L484.1,424.8z"/>
		<path fill="#C2202E" d="M276.2,343.2c-0.8-7.1,1.6-128.8,0.8-134.3c-0.8-5.5-5.3-47.3-5.6-49.2c-0.3-1.9-10.5-22.7-8.7-30.9
			c1.8-8.2,15.1-50.5,15.1-50.5l-0.2-1.3l-6.2,1.3c0,0-34,16.3-42.4,32.5c-8.4,16.2-13.6,28.5-14.9,53.2
			c-1.3,24.7-5.8,137.6-7.1,147.3c-1.3,9.7-1.3,76.6-1.3,79.2s0.6,17.5,0.6,22.1c0,4.5-1.9,10.4-1.9,10.4l3.9,3.2
			c0,0,20.1-5.8,34.4-4.5c14.3,1.3,17.5,1.3,17.5,1.3s3.9-3.2,3.2-5.8c-0.6-2.6-0.6-5.2-0.6-9.7c0-4.5,2.6-13,2.6-13
			s0.2-7.6,2.3-18.9C270.9,351.5,276.8,347.8,276.2,343.2z"/>
	</g>
	
	<path fill="none" d="M278.2,170l-7.3-24.5l-2.3-1.7c0,0,1.7,10.6,2.3,14.6c0.6,4.1,1.1,6.4,1.1,6.4s-0.2-0.4-0.4-1.1
		c0.2,1.9,0.5,4.5,0.8,7.5L278.2,170z"/>
	<path fill="none" d="M263.8,141.1c-1.4-2.8-3.7-10.4-3.7-10.4l9.2,41.1l3-0.6c-0.3-3-0.6-5.6-0.8-7.5c-1.1-3-4.1-11-4.7-12.8
		C266,148.8,265.2,143.9,263.8,141.1z"/>
	<path d="M221.1,417.7c-5.1,0.6-12.3,3.3-12.3,3.3s1.2,18.9,0.9,24.3c-0.3,5.4-0.9,9.6-0.9,9.6s24,3.3,33.8,2.1
		c9.9-1.2,15-3.6,15-3.6s0.9-0.9,1.5-3.9c0.6-3-0.9-11.1-0.9-12.3s1.5-15.9,1.5-15.9S226.2,417.1,221.1,417.7z"/>
	<path d="M475.9,425.2c1.2-2.4,0-6.9,0-6.9s-103,9.3-129.3,7.5c-26.3-1.8-63.5-2.7-68-8.7c-3.9-5.2-8.7-6.8-9.9-7.1
		c0,0.2,0,0.3-0.1,0.5c1,2.7,5.1,14,4.9,19.8c-0.3,6.6-1.5,11.4-1.5,11.4l-2.1,2.1c0,0,4.2,11.7,14.7,13.2c10.5,1.5,56,6.3,69.2,5.7
		c13.2-0.6,83.2-0.9,93.7-3c10.5-2.1,18.6-1.5,22.2-4.2c3.6-2.7,5.7-9,5.7-9s-3-11.7-3-13.2c0-1.5,0.6-3.3,0.6-3.3
		S474.7,427.6,475.9,425.2z"/>
	<path d="M268.4,410c0,0,0.1,0.2,0.2,0.6c0-0.2,0-0.3,0.1-0.5C268.5,410,268.4,410,268.4,410z"/>
	<path d="M484,421.6l1.8,25.4l-0.9,3c0,0,7.2,6.6,25.4,4.8c18.3-1.8,21-4.8,21-4.8s-0.3-10.5-0.6-14.1c-0.3-3.6,0.6-6,0.9-8.1
		s2.1-7.8,2.1-7.8s-6.3-3.3-18.3-0.3C503.4,422.8,484,421.6,484,421.6z"/>
	<g>
		
	</g>
	<g>
		<path d="M481.9,92.3c-0.7-3.7-1.8-8.8-2.8-13.2c-2.7-1.8-4.8-3.2-5.8-3.7c-4.9-2.7-31.7-18.6-31.7-18.6l-6.3-2.7
			c0,0-4.6-5.8-9.3-7.5s-12.3-4-17.4-4.2c-0.8,0-2.4,0-4.8-0.1c2,2.8,3.7,5,4.3,5.3c0.5,0.1,1.8,0.2,3.4,0.3
			c3.8,0.3,9.5,0.7,12.5,1.5c2.8,0.8,5.7,3.2,8.8,5.8c1.9,1.6,3.8,3.2,5.9,4.5l0.5,0.3c5.7,3.8,19,12.7,27,23.8l0.2,0.3
			c6.5,9.1,13.7,19.2,16.8,27.9C483.1,107.2,482.9,98,481.9,92.3z"/>
		<path d="M322,51.6l-0.3,0.5l-44.4,22.8l-6.4,3.3c0,0-0.2,0-0.4,0c-0.9,4-2.4,10.7-2.8,15.4c-0.5,5.7-1.7,17.9-2.2,22.6
			c0.7-1.8,1.4-3.6,2.3-5.6c0.8-1.8,1.7-3.7,2.8-5.7c5.3-10.2,11.2-18.2,13.5-21.2c8.3-10.7,28.1-24.6,35-28.7
			c4.8-2.8,9-3.6,13.5-4.5c2.4-0.5,4.9-1,7.6-1.8c3.5-1.1,5.7-3,7-4.7c-7.5,1.3-16.9,3-19.6,4.2C325.9,48.9,323.5,50.5,322,51.6z"/>
	</g>
	<g>
		<g>
			<path fill="#FFFFFF" d="M480.8,154.3c0.2-0.6,0.4-1.2,0.7-1.9c1.4-3.7,3.2-8.8,4.2-14.7c1.1-6.6,0.6-8.9-0.1-13.1
				c-0.3-1.8-0.7-3.8-1.1-6.6c-1.2-9.7-10.2-22.4-18.2-33.6l-0.2-0.3c-7.9-11.2-21.3-20-27-23.8l-0.5-0.3c-2-1.4-4-3-5.9-4.5
				c-3.1-2.6-6-5-8.8-5.8c-3-0.8-8.7-1.2-12.5-1.5c-1.6-0.1-3-0.2-3.4-0.3c-1-0.5-2.8-2.8-5.7-7.3l-1.7-0.2c3.1,4.8,5.6,8.9,7.1,9.2
				c0.5,0.1,1.7,0.2,3.7,0.3c3.7,0.3,9.3,0.7,12.1,1.5c2.4,0.7,5.2,3,8.1,5.4c1.9,1.6,3.9,3.2,6,4.6l0.5,0.3
				c5.6,3.7,18.8,12.5,26.5,23.4l0.2,0.3c7.8,11,16.7,23.6,17.9,32.8c0.4,2.9,0.8,5,1.1,6.7c0.7,4,1.1,6.1,0.1,12.5
				c-0.9,5.7-2.8,10.7-4.1,14.4c-0.8,2.3-1.5,4-1.6,5.1c-0.1,1-1,5.2-2,9.9C478.1,161.6,479.8,156.8,480.8,154.3
				C480.8,154.3,480.8,154.3,480.8,154.3z"/>
		</g>
		<path fill="#FFFFFF" d="M348.4,42.6c0,0.1-0.9,3.8-8.2,6c-2.7,0.8-5.2,1.3-7.6,1.8c-4.5,0.9-8.7,1.8-13.5,4.5
			c-6.9,4-26.7,18-35,28.7c-2.3,3-8.2,11-13.5,21.2c-1,2-2,3.9-2.8,5.8c-2.4,8.1-4.5,15.2-5.1,18.1c-0.1,2.4,0.1,5.1,0.5,7.8
			c1.7,7.9,5.8,17.9,7.4,22c-2.8-8.3-6.5-21.2-6.1-29.7c0.6-14.1,14.1-35,21.1-44.1c8.1-10.5,27.7-24.3,34.5-28.2
			c4.5-2.6,8.6-3.5,13-4.3c2.5-0.5,5-1,7.8-1.9c8.2-2.5,9.3-7.6,9.4-7.9L348.4,42.6z"/>
		<path fill="#FFFFFF" d="M271.9,164.8c0,0-0.3-1.6-0.8-4.5c0,0.3,0.2,1.5,0.4,3.4C271.8,164.4,271.9,164.8,271.9,164.8z"/>
		<path fill="#FFFFFF" d="M264.1,141.6c1.3,2.8,2,7.3,2.7,9.3c0.6,1.8,3.6,9.8,4.7,12.8c-0.2-1.9-0.3-3.1-0.4-3.4
			c-0.2-0.5-0.4-1.1-0.6-1.7c-1.5-4-5.7-14-7.4-22C263.4,138.3,263.7,139.9,264.1,141.6z"/>
		<path fill="#FFFFFF" d="M267.9,110.7c-3.2,7.1-4.9,13.1-5.1,18.1C263.4,125.9,265.4,118.7,267.9,110.7z"/>
	</g>
      <g id="UPPER">
	<path fill="#C2202E" d="M359.7,29.8c2-0.2,37.3-0.8,43.6-0.2s15,1.8,17.4,4.9c2.4,3.1,3.1,7.3,3.7,8.1c0.7,0.8,4.4,9.4,5,10.4
		c0.7,1,4.2,7.8,4.2,7.8s-4.6-5.7-9.1-7.3c-4.6-1.6-12-3.9-17.1-4.1s-51-0.2-58.5,1.1c-7.5,1.3-18.1,3.1-20.8,4.4
		c-2.8,1.3-7,4.4-7,4.4s4.9-18.6,5.5-20c0.7-1.5,4.7-5.9,7.8-6.2"/>
        </g>
	<g id="line">
	</g>
</g>
<g id="SHADING">
  <g id="UPPER">
    <g id="ID_NAVY_COLOR">
      	<g>
		<path fill="#1F1916" d="M297.9,910.8c0,0-20.5-82.1-18.7-91.9c1.5-8.2-1.4-75.4-2.4-97.4c0-1.5,0-2.9,0-4.4L297.9,910.8z"/>
		<path fill="#1F1916" d="M456.2,491.3c6.4,5.8,5.2,25.8,5.2,25.8c1.9,5-1.1,374.1-1.1,374.1s-1.5-297.4-3-306.6
			c-1.5-9.2-3-52.5-3-52.5l-7.1-40C447.2,492.1,449.8,485.4,456.2,491.3z"/>
	     </g>
    </g>
  </g>
	<g opacity="3.000000e-02">
		<path d="M407.7,49.2c0,0-22.2,7-44.9,9.2c-22.7,2.2-33-3.3-33-3.3s26.8,1.5,46.4-1.1S407.7,49.2,407.7,49.2z"/>
		<path d="M393,70.5c0,0,27.3-15.2,26.2-16.9s-35.6,4-35.6,4s26.4-3.5,27.1-1.3C411.2,58.4,393,70.5,393,70.5z"/>
		<path d="M454.8,100.7c0,0-24-20.2-24-23.8c0-3.5,10.6,2.9,15.4,6.8C451.1,87.7,454.8,100.7,454.8,100.7z"/>
		<path d="M468.2,101.8c-3.5-10.1-5.3-15.2-7.9-15c-2.6,0.2,5.5,19.1,7,31.5c1.5,12.3,6.2,36.5,6.2,36.5S471.8,111.9,468.2,101.8z"
			/>
		<path d="M498.4,140.4c-3.3,15.4-4.8,36.7-8.4,44c-3.5,7.3-6.8,15-5.3,16.1c1.5,1.1,6.2-1.3,6.2-1.3s-0.9,2.4-5.3,6.2
			c-4.4,3.7-8.4,7-8.4,7s8.8-4,14.7-11.2c5.9-7.3,7.7-17.8,7.7-17.8s-2.9,9.9-4.8,12.1c-2,2.2,2-12.3,2.6-14.3
			c0.7-2,2.6-14.1,2.6-16.7c0-2.6,1.3-27.1,3.5-36.7c2.2-9.7,5.3-18.3,5.3-18.3S501.7,125,498.4,140.4z"/>
		<path d="M528.3,128c0,0-4.4,31.2-13,49.7c-8.6,18.5-29.3,63.8-33.2,75c-4,11.2-7.7,26.8-8.6,29.3c-0.9,2.4-2.9,7.5-2.9,7.5
			s30.8-76.4,37.2-91.3c6.4-15,16.9-41.2,18.9-51.3C528.7,136.8,528.3,128,528.3,128z"/>
		<path d="M508.8,193.4c-2.6,2.9-23.1,52.6-23.4,55.7c-0.3,3.1,5.7,46,6.9,61.4c1.1,15.4-2.3,42-0.9,48.3c1.4,6.3,2.6,8.6,2.6,8.6
			s-10.6-2.3-12.9-4.6c-2.3-2.3-3.7-28.3-2.3-32.9c1.4-4.6,2.6-8.9,5.7-11.7s5.4-6.3,5.4-6.3l-1.1-2.3c0,0-4.3,2-6.3,4.9
			s-6.3,7.1-6.3,7.1s0.3-22.9,0.9-31.4s2.3-19.1,2.3-19.1l33.1-80.3L508.8,193.4z"/>
		<path d="M303.1,247.4c0,0,3.4,69.4-0.9,113.7s-5.4,46.9-5.4,46.9s4.6-46.6,5.1-87.7S303.1,247.4,303.1,247.4z"/>
		<path d="M297.1,81.7c-4.9-4-17.1,12.3-21.4,27.1c-4.3,14.9-1.1,25.4-1.7,34.3c-0.6,8.9-1.7,16.9-1.7,19.7c0,2.2,0.7,12.6,1,17.4
			c0.1,0.7,0.1,1.4,0.2,2.1l1.4-6.6c0,0,8.6-30.9,10-36.9c1.4-6,1.1-20.9,1.7-22.6C287.1,114.6,302,85.7,297.1,81.7z"/>
		<path d="M273.4,182.6l0.1-0.3c-0.1-0.7-0.1-1.4-0.2-2.1C273.3,181.7,273.4,182.6,273.4,182.6z"/>
		<path d="M253.1,143.7c-0.9-2.6-12.3-24.3-15.1-25.4c-2.9-1.1-3.7,0.9-3.7,0.9s12.6,17.4,14.3,20.3c1.7,2.9,15.1,20.9,16.9,22.6
			c1.7,1.7,3.4,4.6,4.3,7.4c0.9,2.9,0,4,0.9,7.4c0.6,2.4,2.2,5.3,3.1,6.9c-0.6-6.3-1.3-12.5-1.7-17l-1.3-2.8
			C270.5,164,254,146.3,253.1,143.7z"/>
		<path d="M252,150l-15.4-2.6c0,0,16,21.4,22,24.3c6,2.9,8,4.3,8,4.3s-9.1-13.7-10.6-18C254.5,153.7,252,150,252,150z"/>
		<path d="M225.9,120.6c0,0,4.3,7.7,6.9,13.4c2.6,5.7,6.6,9.1,10.6,10.6c4,1.4,6,2.6,6,2.6s-9.1-13.1-13.1-18.6
			C232.2,123.1,225.9,120.6,225.9,120.6z"/>
		<path d="M239.7,162c-3.7-8.3-11.1-20-16-20.9c-4.9-0.9-4.6,11.4-4.6,11.4s0-4.3,4.3-6.3c4.3-2,11.7,17.4,15.1,27.4
			c3.4,10,17.4,22.6,17.4,22.6s-7.1-13.4-9.7-17.4C243.7,174.9,243.4,170.3,239.7,162z"/>
		<path d="M228.2,220c0,0,14.3,12.3,25.7,15.7c11.4,3.4,12.3-4,12.3-4s-10.3-8.9-20.3-12.9C236,214.9,228.2,220,228.2,220z"/>
		<path d="M270.5,211.3c-2.9-3.4-4.3-2.9-8-8.6c-3.7-5.7-7.1-12.6-7.1-12.6s1.4,9.1,0.3,10.9c-1.1,1.7-2.6-0.3-10.3-2
			c-7.7-1.7-14.9-3.1-14.9-3.1s10.9,6.3,18,11.1c7.1,4.9,15.7,12.6,15.7,12.6s4.6,5.7,7.7,6c3.1,0.3,2.6-5.1,2.6-5.1
			S273.3,214.8,270.5,211.3z"/>
		<path d="M272.5,383.5c0,0-0.2,0.1-0.4,0.1c-0.1,0.5-0.1,1.1-0.2,1.6L272.5,383.5z"/>
		<path d="M260.5,390.3c-0.6,2.9,8,4.6,8,4.6l3.4-9.7c0.1-0.5,0.1-1.1,0.2-1.6C270.1,384.4,261,387.8,260.5,390.3z"/>
		<path d="M344.8,132c0,0,44.6-67.4,52.6-62.9C405.4,73.7,344.8,132,344.8,132z"/>
		<path d="M271.4,162.9c0-7.8,0-23.8-0.9-26.1c-1-2.4-3.7-6.5-8-5.3c0.2,9.4,8.4,27.1,8.6,28.8C271.2,160.5,271.3,161.5,271.4,162.9
			z"/>
		<path d="M271.4,167.2c0,0,0-1.7,0-4.3c-0.2-1.4-0.3-2.3-0.3-2.6c-0.3-1.7-8.4-19.4-8.6-28.8c-1,0.3-2,0.8-3.2,1.7
			C253.3,138,271.4,167.2,271.4,167.2z"/>
		<path d="M480.6,131.4c-6.3-1.2-5.7,28.3-5.7,28.3s3.2-3.1,6.5-6.7c2.3-5.1,5.6-11.2,6.7-13.1C487.2,136.5,485.1,132.2,480.6,131.4
			z"/>
		<path d="M488.1,139.8c-1.1,2-4.4,8-6.7,13.1c3.7-3.9,7.5-8.4,7.3-9.9C488.7,142.4,488.5,141.2,488.1,139.8z"/>
		<path d="M471.3,325.8l0.4,16.5c0,0,5.1,19.6,5.9,24.4c0.9,4.8,2.6,10.8,2.6,10.8s-2.6-38.1-3.1-41.6c-0.4-3.5-1.3-8.1-2.2-8.8
			C474.2,326.5,471.3,325.8,471.3,325.8z"/>
		<path d="M276,197.1c0,0-0.4-0.5-1.1-1.4c0.6,6.1,1.2,11,1.4,12.6c0.1,1,0.2,6.1,0.2,13.8c0.4,0.8,0.6,1.3,0.6,1.3L276,197.1z"/>
		<path d="M274.8,195.8c-1.3-1.6-3.6-4.4-6.6-7.8c-4.6-5.1-16-14.6-16-14.6s4.9,6.6,8.9,16c3.5,8.1,12.9,27.6,15.4,32.7
			c0-7.7-0.1-12.7-0.2-13.8C276,206.7,275.5,201.8,274.8,195.8z"/>
		<path d="M276.3,274.8c0.8,0.2,1.4,0.3,1.4,0.3s-0.9-6-0.6-8.9c0.3-2.9,0.3-40.6,0.3-40.6l-0.9-4
			C276.5,234.4,276.4,254.6,276.3,274.8z"/>
		<path d="M237.1,254.3c0,0,5,5.2,10.8,10.3C242.8,257.9,237.1,254.3,237.1,254.3z"/>
		<path d="M276.5,309.2c0,0,0.3-1,0-2.4V309.2z"/>
		<path d="M276.2,277.8c-0.1,9.5-0.1,18.9-0.2,27.6c0.2,0.5,0.4,0.9,0.5,1.4v-30.1C276.5,276.6,276.4,277.1,276.2,277.8z"/>
		<path d="M272.5,288.3c-1.4,0.9-3.1,4.9-4.9,8.9c-1.7,4,4.6,3.4,7.1,6.3c0.6,0.6,1,1.3,1.3,1.9c0-8.6,0.1-18.1,0.2-27.6
			C275.5,280.7,273.7,287.6,272.5,288.3z"/>
		<path d="M276.1,309.2c-0.1,18-0.1,31.8,0.2,34v-31.4C276.2,311.7,277.3,310.8,276.1,309.2z"/>
		<path d="M276.1,309.2c-0.4-0.6-1.2-1.3-2.4-2c-4.6-2.9-6.3-4.6-7.4-5.4c-1.1-0.9,0,0.3-5.1,0.3s-4.3-1.7-8.9-0.3
			c-4.6,1.4-5.4,3.4-5.4,3.4s9.1,2.6,12.6,8.6c3.4,6,4,4.9,6,12.3c2,7.4,3.7,7.1,5.1,9.7c1.4,2.6,5.7,7.4,5.7,7.4
			C276,340.9,276,327.1,276.1,309.2z"/>
		<path d="M479.3,158.2c-3.3,9-9.1,26.4-9.1,26.4S476,167.2,479.3,158.2C479.3,158.2,479.3,158.1,479.3,158.2
			c-4.9-2.7-4.5,0.4-7.4-3.6c-2.9-4-8.1-16.9-8.1-16.9s5.9,15.2,4.2,18.3c-1.8,3.1-5.3-0.2-5.3-0.2s5.3,52.4,7.3,56.6
			c2,4.2,3.5,1.5,3.5,1.5s-1.3-18.9-1.1-23.3c0.2-4.4,0.7-11.2,1.8-12.5c1.1-1.3-1.8-1.8,4-4.2c5.7-2.4,8.8-8.4,8.8-8.4
			S484.1,160.8,479.3,158.2z"/>
		<path d="M278.5,418.9l-0.9-6.9c0,0-2.6-13.4-2.9-19.4c-0.3-6-0.6-12.9-0.6-12.9s-0.6,1.5-2.1,3.6c-1,8.3-2.2,16.8-3.1,24.1
			c0.8,1.8,1.8,3.7,1.8,3.7L278.5,418.9z"/>
		<path d="M531.2,413.2c0,0-2.4-0.2-2.6,0.9c-0.2,1.1,1.3,1.5-0.4,2.4s-5.5,0.2-15.2-0.9s-8.1-3.1-14.7-1.3
			c-6.6,1.8-8.4,2.6-8.4,2.6s9.2-2.4,16.7-0.7c7.5,1.8,16.9,3.1,19.8,2.6C529.2,418.5,531.2,413.2,531.2,413.2z"/>
		<path d="M502.9,407.2c0,0,12.6,5.1,20,5.1s10-7.1,10-7.1s-2.6,4.3-9.4,4.9S502.9,407.2,502.9,407.2z"/>
		<path d="M244,407.2c0,0,8.6-1.7,11.7-2.6c3.1-0.9,7.1-6.9,5.4-8C259.4,395.5,244,407.2,244,407.2z"/>
		<path d="M258.5,412.9c0,0-3.1-3.4-6.6-3.1c-3.4,0.3-10.6-0.6-14,0.9c-3.4,1.4-9.7,2.9-9.7,2.9s2.6,0.9,10.3,0.6
			c7.7-0.3,12.6-1.7,12.6-1.7l-9.4,3.4c0,0,11.7,1.7,14.9,2.3c3.1,0.6,0.6-1.4,0.6-1.4l3.1-2L258.5,412.9z"/>
		<path d="M239.1,399.2c-8.3,3.4-11.1,8-14,9.7c-2.9,1.7-17.7,6.6-17.7,6.6s16.9-3.1,21.7-5.4c4.9-2.3,18.9-10.3,18.9-10.3
			S247.4,395.8,239.1,399.2z"/>
	</g>
	<g opacity="6.000000e-02">
		<path d="M476.9,175.7c-2,5.8-3.7,10.8-3.7,10.8S474.9,181.5,476.9,175.7l-0.2,0.1c0,0-4.6,10-4,14.3c0.6,4.2,1.4,19.7,1.6,20.3
			c0.2,0.6,2.6,1.8,2.6,1.8l4-4c0,0,0.6-14.5,0.6-17.3c0-2.8-2-5.8-2-5.8s1.4,0.6,4.6-5.2c3.2-5.8,2.8-10.4,2.8-10.4L476.9,175.7z"
			/>
		<path d="M469.3,257.6c0,0,4.4-6.2,3.7-11c-0.7-4.8-2.6-7.7-1.1-11s13-14.7,11.4-20.7c-1.5-5.9-9.5-1.8-11,0.9
			c-1.5,2.6-0.7,9.7-2,12.1c-1.3,2.4-0.7,5.9-1.8,7.9c-1.1,2-1.3,3.7-1.3,3.7L469.3,257.6z"/>
		<path d="M272.8,228.9c-0.6,4.6-2,8.3-2.9,10c-0.9,1.7-3.1,8-3.4,14.6c-0.3,6.6,4.3,14.6-1.1,19.7c-2.9,2.7-10.8-2.8-17.5-8.6
			c0.5,0.7,1,1.3,1.5,2c5.4,8,4.3,6.9,14.6,11.1c10.3,4.3,7.7-0.6,8.3-2.3c0.4-1.1,2.5-0.9,4-0.6c0.1-20.3,0.2-40.4,0.2-53.1
			l-1.9-8.5C274.5,213.2,273.4,224.3,272.8,228.9z"/>
	</g>
	<g opacity="6.000000e-02">
		<path d="M470.9,278.5c0,0,1.8-9.9,5.1-6.6c3.3,3.3,0.4,14.1,0,18.3c-0.4,4.2-1.5,24.6-0.4,28.4s2,12.5,2,15s1.8,13.6,1.1,17.2
			c-0.7,3.5-0.9,13.6,0,16.9c0.9,3.3,3.1,10.3,3.3,14.1c0.2,3.7,0.4,8.1,2.2,10.1c1.8,2,3.1,4.2,3.1,4.2s-1.1,0.7-2.6,2.9
			c-1.5,2.2-4.8,6.8-4.8,6.8s2.9-16.9,0.7-25.3c-2.2-8.4-2.6-42.9-4.4-47.1c-1.8-4.2-4.6-5.5-4.6-5.5L470.9,278.5z"/>
	</g>
	<path opacity="8.000000e-02" d="M335.7,54c0,0,37.8,1.9,43.8,2.4s16-0.6,19.4-0.4s18.8-1.9,18.8-1.9l4.3-1.7c0,0-3.2-4.5-28.3-4.7
		c-25-0.2-42.1,1.7-46.6,2.6s-4.5,0.9-4.5,0.9L335.7,54z"/>
	<g>
		<defs>
			<path id="SVGID_1_" d="M276.2,343.2c-0.8-7.1,1.6-128.8,0.8-134.3c-0.8-5.5-5.3-47.3-5.6-49.2c-0.3-1.9-10.5-22.7-8.7-30.9
				c1.8-8.2,15.1-50.5,15.1-50.5l-0.2-1.3l-6.2,1.3c0,0-34,16.3-42.4,32.5c-8.4,16.2-13.6,28.5-14.9,53.2
				c-1.3,24.7-5.8,137.6-7.1,147.3c-1.3,9.7-1.3,76.6-1.3,79.2s0.6,17.5,0.6,22.1c0,4.5-1.9,10.4-1.9,10.4l3.9,3.2
				c0,0,20.1-5.8,34.4-4.5c14.3,1.3,17.5,1.3,17.5,1.3s3.9-3.2,3.2-5.8c-0.6-2.6-0.6-5.2-0.6-9.7c0-4.5,2.6-13,2.6-13
				s0.2-7.6,2.3-18.9C270.9,351.5,276.8,347.8,276.2,343.2z"/>
		</defs>
		<clipPath id="SVGID_00000002360974692390499470000005258992197811880842_">
			<use xlink:href="#SVGID_1_"  overflow="visible"/>
		</clipPath>
		<g clip-path="url(#SVGID_00000002360974692390499470000005258992197811880842_)">
			<path fill-rule="evenodd" clip-rule="evenodd" fill="#6D7DBC" stroke="#6D7DBC" stroke-width="0.4635" d="M201.8,407.2
				c-2.5,0-4.6,2.1-4.6,4.6c0,2.5,2.1,4.6,4.6,4.6h8.1c2.5,0,4.6-2.1,4.6-4.6c0-2.5-2.1-4.6-4.6-4.6H201.8z"/>
			
				<path fill-rule="evenodd" clip-rule="evenodd" fill="#6D7DBC" stroke="#FFFFFF" stroke-width="0.2318" stroke-miterlimit="3.8637" d="
				M210,407.6c2.3,0,4.2,1.9,4.2,4.2c0,2.3-1.9,4.2-4.2,4.2h-8.1c-2.3,0-4.2-1.9-4.2-4.2c0-2.3,1.9-4.2,4.2-4.2H210z"/>
			<g>
				<path fill="#FFFFFF" d="M198.9,411.8c0-1.6,1.3-2.9,2.9-3.1v6.1C200.2,414.7,198.9,413.4,198.9,411.8z"/>
				<polygon fill-rule="evenodd" clip-rule="evenodd" fill="#FFFFFF" points="205,411.4 202.3,408.7 205,408.7 				"/>
				<polygon fill-rule="evenodd" clip-rule="evenodd" fill="#FFFFFF" points="205,412.2 202.3,414.8 205,414.8 				"/>
			</g>
			<g>
				<polygon fill-rule="evenodd" clip-rule="evenodd" fill="#EC2227" points="208.3,411.4 211,408.7 208.3,408.7 				"/>
				<polygon fill-rule="evenodd" clip-rule="evenodd" fill="#EC2227" points="208.3,412.2 211,414.8 208.3,414.8 				"/>
				<g>
					<rect x="205.5" y="408.7" fill="#EC2227" width="2.2" height="6.1"/>
					<path fill="#EC2227" d="M206.6,411.8"/>
				</g>
			</g>
			<path fill-rule="evenodd" clip-rule="evenodd" fill="#6D7DBC" stroke="#6D7DBC" stroke-width="0.4635" d="M201.8,407.2
				c-2.5,0-4.6,2.1-4.6,4.6c0,2.5,2.1,4.6,4.6,4.6h8.1c2.5,0,4.6-2.1,4.6-4.6c0-2.5-2.1-4.6-4.6-4.6H201.8z"/>
			
				<path fill-rule="evenodd" clip-rule="evenodd" fill="#6D7DBC" stroke="#FFFFFF" stroke-width="0.2318" stroke-miterlimit="3.8637" d="
				M210,407.6c2.3,0,4.2,1.9,4.2,4.2c0,2.3-1.9,4.2-4.2,4.2h-8.1c-2.3,0-4.2-1.9-4.2-4.2c0-2.3,1.9-4.2,4.2-4.2H210z"/>
			<g>
				<path fill="#FFFFFF" d="M198.9,411.8c0-1.6,1.3-2.9,2.9-3.1v6.1C200.2,414.7,198.9,413.4,198.9,411.8z"/>
				<polygon fill-rule="evenodd" clip-rule="evenodd" fill="#FFFFFF" points="205,411.4 202.3,408.7 205,408.7 				"/>
				<polygon fill-rule="evenodd" clip-rule="evenodd" fill="#FFFFFF" points="205,412.2 202.3,414.8 205,414.8 				"/>
			</g>
			<g>
				<polygon fill-rule="evenodd" clip-rule="evenodd" fill="#EC2227" points="208.3,411.4 211,408.7 208.3,408.7 				"/>
				<polygon fill-rule="evenodd" clip-rule="evenodd" fill="#EC2227" points="208.3,412.2 211,414.8 208.3,414.8 				"/>
				<g>
					<rect x="205.5" y="408.7" fill="#EC2227" width="2.2" height="6.1"/>
					<path fill="#EC2227" d="M206.6,411.8"/>
				</g>
			</g>
			<path fill-rule="evenodd" clip-rule="evenodd" fill="#004D85" stroke="#004D85" stroke-width="0.4635" d="M201.8,407.2
				c-2.5,0-4.6,2.1-4.6,4.6c0,2.5,2.1,4.6,4.6,4.6h8.1c2.5,0,4.6-2.1,4.6-4.6c0-2.5-2.1-4.6-4.6-4.6H201.8z"/>
			
				<path fill-rule="evenodd" clip-rule="evenodd" fill="#004D85" stroke="#FFFFFF" stroke-width="0.2318" stroke-miterlimit="3.8637" d="
				M210,407.6c2.3,0,4.2,1.9,4.2,4.2c0,2.3-1.9,4.2-4.2,4.2h-8.1c-2.3,0-4.2-1.9-4.2-4.2c0-2.3,1.9-4.2,4.2-4.2H210z"/>
			<g>
				<path fill="#FFFFFF" d="M198.9,411.8c0-1.6,1.3-2.9,2.9-3.1v6.1C200.2,414.7,198.9,413.4,198.9,411.8z"/>
				<polygon fill-rule="evenodd" clip-rule="evenodd" fill="#FFFFFF" points="205,411.4 202.3,408.7 205,408.7 				"/>
				<polygon fill-rule="evenodd" clip-rule="evenodd" fill="#FFFFFF" points="205,412.2 202.3,414.8 205,414.8 				"/>
			</g>
			<g>
				<polygon fill-rule="evenodd" clip-rule="evenodd" fill="#EC2227" points="208.3,411.4 211,408.7 208.3,408.7 				"/>
				<polygon fill-rule="evenodd" clip-rule="evenodd" fill="#EC2227" points="208.3,412.2 211,414.8 208.3,414.8 				"/>
				<g>
					<rect x="205.5" y="408.7" fill="#EC2227" width="2.2" height="6.1"/>
					<path fill="#EC2227" d="M206.6,411.8"/>
				</g>
			</g>
		</g>
	</g>
</g>
	<g id="CUSTOM"></g>
<g id="BOUNDING_BOX">
	<g id="BOX_BODY">
		<rect x="302.7" y="82.4" fill="none" stroke="#FFFFFF" stroke-width="1.0251" stroke-miterlimit="10" stroke-dasharray="1.8285,1.8285" width="146.9" height="80.5"/>
	</g>
		<g id="BOX_LEFT">
		<rect x="288" y="471.6" fill="none" stroke="#FFFFFF" stroke-miterlimit="10" stroke-dasharray="1,1" width="59.5" height="59.5"/>
			</g>
	<g id="BOX_RIGHT">
		<rect x="395.9" y="471.6" fill="none" stroke="#FFFFFF" stroke-miterlimit="10" stroke-dasharray="1,1" width="59.5" height="59.5"/>
		</g>
</g>
</svg>
