<?xml version="1.0" encoding="utf-8"?>
<!-- Generator: Adobe Illustrator 16.0.0, SVG Export Plug-In . SVG Version: 6.00 Build 0)  -->
<!DOCTYPE svg PUBLIC "-//W3C//DTD SVG 1.1//EN" "http://www.w3.org/Graphics/SVG/1.1/DTD/svg11.dtd">
<svg version="1.1" id="Layer_1" xmlns="http://www.w3.org/2000/svg" xmlns:xlink="http://www.w3.org/1999/xlink" x="0px" y="0px"
	 width="612px" height="792px" viewBox="0 0 472 792" enable-background="new 0 0 612 792" xml:space="preserve">
<g>
	<defs>
		<rect id="SBS_SVGID_1_" x="93.5" y="23.897" width="349.5" height="733.95"/>
	</defs>
	<clipPath id="SBS_SVGID_2_">
		<use xlink:href="#SBS_SVGID_1_"  overflow="visible"/>
	</clipPath>
	<g clip-path="url(#SBS_SVGID_2_)">
		<defs>
			<rect id="SBS_SVGID_3_" x="93.5" y="23.897" width="349.5" height="733.95"/>
		</defs>
		<clipPath id="SBS_SVGID_4_">
			<use xlink:href="#SBS_SVGID_3_"  overflow="visible"/>
		</clipPath>
    <g id="21_MASK">
    <g id="BODY">
		<path clip-path="url(#SBS_SVGID_4_)" fill="#FFFFFF" d="M424.125,610.673c-7.954-51.274-33.727-153.58-37.404-202.856
			c-2.646-35.452,8.872-131.66,8.872-131.66s-0.063-0.059-0.175-0.164c-2.69-3.662-48.386-66.557-52.092-118.975
			c-2.734-38.67,13.239-110.323,13.239-110.323l-11.242-2.367l-3.438-0.875c0,0-36.086,37.643-71.331,38.498
			c-35.244,0.857-76.364-40.209-76.364-40.209s-0.637,0.162-1.564,0.417c-0.048-0.398-0.073-0.611-0.073-0.611l-2.003,1.202
			c-0.75,0.222-1.525,0.462-2.236,0.703c-2.519,0.854-6.712,4.276-6.712,4.276s0.102,0.08,0.279,0.222l-0.359,0.216
			c0,0,12.961,59.016,1.471,123.56c-12.362,69.441-43.394,108.116-43.394,108.116l0.145,0.058c-0.611,0.355-0.94,0.532-0.94,0.532
			s22.862,67.809,12.587,151.433c-1.063,8.649-30.073,171.877-33.118,192.181c-6.621,44.13,5.147,87.059,5.147,95.613
			c0,8.557-0.561,17.628-0.561,17.628s29.601,8.235,56.458,7.379c26.854-0.855,48.542-7.355,48.542-7.355l1.577-22.269
			c0,0,10.403-30.655,16.786-46.196c13.263-32.295,19.302-82.987,20.14-85.553c0.837-2.567,8.393-1.71,10.069,0.854
			c1.678,2.569,5.036,29.091,9.23,49.624c4.195,20.531,10.908,39.353,15.105,49.617c4.195,10.268,9.231,27.378,10.07,31.654
			c0.839,4.279,1.679,20.533,1.679,20.533s20.98,5.992,60.42,3.423c39.442-2.565,52.03-5.986,52.03-5.986s0.556-14.796,1.12-14.755
			C426.084,718.258,434.528,677.737,424.125,610.673 M225.823,148.739c0,0-13.71-16.814-19.918-40.355
			c-6.208-23.541-6.467-42.684-6.467-42.684s10.605,11.382,18.883,35.181C226.601,124.681,225.823,148.739,225.823,148.739
			 M330.141,115.642c-4.854,18.688-16.019,37.134-16.019,37.134s-2.185-33.008,5.34-50.969c7.523-17.96,18.931-34.222,18.931-34.222
			S334.995,96.953,330.141,115.642"/>
      	<path clip-path="url(#SBS_SVGID_4_)" fill="#FFFFFF" d="M424.125,610.673c-7.954-51.274-33.727-153.58-37.404-202.856
			c-2.646-35.452,8.872-131.66,8.872-131.66s-0.063-0.059-0.175-0.164c-2.69-3.662-48.386-66.557-52.092-118.975
			c-2.734-38.67,13.239-110.323,13.239-110.323l-11.242-2.367l-3.438-0.875c0,0-36.086,37.643-71.331,38.498
			c-35.244,0.857-76.364-40.209-76.364-40.209s-0.637,0.162-1.564,0.417c-0.048-0.398-0.073-0.611-0.073-0.611l-2.003,1.202
			c-0.75,0.222-1.525,0.462-2.236,0.703c-2.519,0.854-6.712,4.276-6.712,4.276s0.102,0.08,0.279,0.222l-0.359,0.216
			c0,0,12.961,59.016,1.471,123.56c-12.362,69.441-43.394,108.116-43.394,108.116l0.145,0.058c-0.611,0.355-0.94,0.532-0.94,0.532
			s22.862,67.809,12.587,151.433c-1.063,8.649-30.073,171.877-33.118,192.181c-6.621,44.13,5.147,87.059,5.147,95.613
			c0,8.557-0.561,17.628-0.561,17.628s29.601,8.235,56.458,7.379c26.854-0.855,48.542-7.355,48.542-7.355l1.577-22.269
			c0,0,10.403-30.655,16.786-46.196c13.263-32.295,19.302-82.987,20.14-85.553c0.837-2.567,8.393-1.71,10.069,0.854
			c1.678,2.569,5.036,29.091,9.23,49.624c4.195,20.531,10.908,39.353,15.105,49.617c4.195,10.268,9.231,27.378,10.07,31.654
			c0.839,4.279,1.679,20.533,1.679,20.533s20.98,5.992,60.42,3.423c39.442-2.565,52.03-5.986,52.03-5.986s0.556-14.796,1.12-14.755
			C426.084,718.258,434.528,677.737,424.125,610.673 M225.823,148.739c0,0-13.71-16.814-19.918-40.355
			c-6.208-23.541-6.467-42.684-6.467-42.684s10.605,11.382,18.883,35.181C226.601,124.681,225.823,148.739,225.823,148.739
			 M330.141,115.642c-4.854,18.688-16.019,37.134-16.019,37.134s-2.185-33.008,5.34-50.969c7.523-17.96,18.931-34.222,18.931-34.222
			S334.995,96.953,330.141,115.642"/>
      </g>
       <g id="STRIPES_2">
		<path clip-path="url(#SBS_SVGID_6_)" fill="#BF2A43" d="M164.092,261.893v482.411c3.261,0.234,6.571,0.384,9.872,0.415V251.841
			C170.486,255.545,167.178,258.897,164.092,261.893"/>
		<path clip-path="url(#SBS_SVGID_6_)" fill="#BF2A43" d="M164.092,261.893v482.411c3.261,0.234,6.571,0.384,9.872,0.415V251.841
			C170.486,255.545,167.178,258.897,164.092,261.893"/>
		<path clip-path="url(#SBS_SVGID_6_)" fill="#BF2A43" d="M152.013,272.932v75.954c2.214,22.209,2.955,48.484,0,76.752v317.406
			c3.178,0.425,6.492,0.798,9.874,1.084V264.012C158.204,267.512,154.879,270.481,152.013,272.932"/>
		<path clip-path="url(#SBS_SVGID_6_)" fill="#BF2A43" d="M152.013,272.932v75.954c2.214,22.209,2.955,48.484,0,76.752v317.406
			c3.178,0.425,6.492,0.798,9.874,1.084V264.012C158.204,267.512,154.879,270.481,152.013,272.932"/>
		<path clip-path="url(#SBS_SVGID_6_)" fill="#BF2A43" d="M138.944,281.114c0.739,2.307,3.242,10.45,6,23.012v-25.418
			c-2.784,2.159-4.348,3.218-4.348,3.218S139.813,281.616,138.944,281.114"/>
		<path clip-path="url(#SBS_SVGID_6_)" fill="#BF2A43" d="M135.071,525.999v214.162c2.924,0.602,6.255,1.232,9.873,1.827V469.433
			C142.098,485.812,138.597,505.824,135.071,525.999"/>
		<path clip-path="url(#SBS_SVGID_6_)" fill="#BF2A43" d="M135.071,525.999v214.162c2.924,0.602,6.255,1.232,9.873,1.827V469.433
			C142.098,485.812,138.597,505.824,135.071,525.999"/>
		<path clip-path="url(#SBS_SVGID_6_)" fill="#BF2A43" d="M138.944,281.114c0.739,2.307,3.242,10.45,6,23.012v-25.418
			c-2.784,2.159-4.348,3.218-4.348,3.218S139.813,281.616,138.944,281.114"/>
	</g>
      <g id="STRIPES_1">  
		<path clip-path="url(#SBS_SVGID_8_)" fill="#1B5A90" d="M174.692,730.287c0.189-10.142,0.94-13.877,1.405-22.607l-0.613,4.437
			c-0.498-13.704,0.327-9.441-0.295-20.271l0.991,0.447c-0.508-3.812-0.092-13.379,0.165-17.316l-0.686-3.543
			c0.375-8.627,0.534-14.249,1.155-16.879l-0.627,0.843c0.394-3.249-0.069-33.181,1-22.943c-0.143-2.5-0.466-4.786-0.394-10.269
			l0.625-0.834c-0.161-7.905-0.283-16.727,0.069-19.006c0.15,4.28,0.424,5.721,0.699,7.133c0.109-33.426-2.047-7.065-2.104-36.672
			l0.406,0.344l-0.432-7.512l0.514-7.878c-1.387-10.67,0.125-41.553-0.61-59.426c-0.115-7.032,0.709-16.281,0.616-29.639
			l-0.625,0.871c0.637-10.78,1.038-50.902,2.486-60.961c-0.484-10.128-0.131,1.065-0.626,0.843
			c-0.651-19.772,0.333-21.144,0.701-31.511c-0.313-12.178-0.238,9.31-0.709,2.765c0.474-18.65-0.771-15.144-0.356-38.184
			c0.352-2.285,0.245,5.947,0.478,8.323c-0.639-16.208-0.25-46.417-0.377-70.525c0.112-6.895,0.205-14.611,0.292-22.811
			c0.035-3.251,0.068-6.594,0.102-9.976c-2.242,2.476-4.42,4.803-6.532,7c0.051,3.663,0.104,7.231,0.152,10.642
			c0.126-2.872,0.202-6.568,0.431-5.966c0.214,10.485-0.238,9.317-0.501,11.467c0.251,7.756,0.877,6.893,1.343,11.654
			c-0.528,16.008-0.206,18.26-0.969,31.893l0.627-0.844c-0.506,9.663,0.441,11.076,0.074,21.479c-0.135,0.577-0.295-3.41-0.441-6.61
			c0.206,9.218-0.529,8.497-0.286,17.49l-0.698-7.135c0.025,7.165,0.241,17.672-0.356,13.976
			c0.716,12.516,0.434,34.471,0.846,50.101l-0.543-1.034c0.658,8.079-0.032,29.708,0.755,36.723l-0.221,1.188l0.729,16.088
			c-0.064,7.286-0.88,4.812-0.654,5.4c0.144,15.986,0.188,28.521-0.093,38.803c0.729,2.584,0.922,19.406,1.012,32.786
			c-0.452,64.454,0.235,133.672,1.072,193.636c0.015,4.485,0.224,9.818,0.474,15.431c0.043,0.997,0.09,2.012,0.137,3.024
			c0.186,0.002,0.371-0.001,0.556-0.001c-0.002-0.087-0.003-0.175-0.004-0.26C174.785,740.733,174.692,737.034,174.692,730.287"/>
		<path clip-path="url(#SBS_SVGID_8_)" fill="#1B5A90" d="M163.437,466.807l0.313,25.648l0.261-15.635
			c0.292,6.762,0.081,23.244,0.67,25.122c-0.706-22.398-0.154-58.229-0.985-77.777c-0.149,9.194,0.025,20.668-0.026,31.546
			c-0.193,4.388-0.337,10.969-0.605,11.654C163.181,467.302,163.311,467.355,163.437,466.807"/>
		<path clip-path="url(#SBS_SVGID_8_)" fill="#1B5A90" d="M166.73,261.722c0.013-0.81,0.022-1.637,0.033-2.458
			c-0.041,0.041-0.083,0.083-0.123,0.123C166.67,259.983,166.699,260.745,166.73,261.722"/>
		<path clip-path="url(#SBS_SVGID_8_)" fill="#1B5A90" d="M166.007,286.082l-0.253-21.213c0.177,0.625,0.329-2.731,0.479-5.076
			c-0.287,0.286-0.57,0.563-0.854,0.842C165.671,270.458,165.802,281.149,166.007,286.082"/>
		<path clip-path="url(#SBS_SVGID_8_)" fill="#1B5A90" d="M159.428,280.785c-0.584,13.396-0.039,27.921-0.3,43.586l0.333-7.654
			c0.395,10.23,0.146,15.973,0.313,25.647l-0.655,5.401c0.215,10.479,0.554,4.628,0.895,12.24
			c-0.416,9.562-0.033,29.711-0.063,34.246c-0.302,3.144-0.418-3.919-0.602-5.448c0.221,12.284,0.848,11.417,0.855,26.682
			l-0.178,0.255c0.934,36.468,0.688,82.692,1.278,123.252c0.034-2.751,0.171-2.057,0.303-3.119
			c0.238,42.818,0.272,92.228,1.826,126.081c-0.168-23.143,0.864-62.342-0.296-85.933c0.466-8.729-0.209-22.179,0.452-25.801
			c0.287-33.648-0.883-47.331-0.903-79.691c0.06-2.381,0.176-2.942,0.315-3.109c-0.004-0.004-0.008,0.006-0.012,0
			c-0.916-31.115-0.465-56.918-0.753-88.88c-0.074-8.01-0.021-18.879,0.288-20.198c0.108,5.257,0.365,1.289,0.516,5.604
			c-0.266-11.329-1.129-1.138-1.005-17.521l1.086,2.1c-1.146-6.513,0.2-20.044-0.47-31.706c0.436-4.193,0.687,3.537,0.718,12.505
			c0.188-10.185-0.443-11.099-0.426-19.228l0.926,7.705c-0.884-8.645,0.171-15.51,0.469-20.411
			c-0.226-0.582-0.931,3.978-0.878-6.874c0.118-4.658,0.352-2.272,0.483-3.369c-0.227-0.599-0.645-4.505-0.67-11.672
			c0.31-1.31,0.466,4.761,0.784,5.229c-0.02-5.402-0.08-9.808,0.177-13.726c-0.246-9.106-0.43-0.312-0.736-4.508
			c-1.411,1.361-2.774,2.651-4.083,3.865c-0.065,4.738-0.134,9.382-0.213,13.852L159.428,280.785z"/>
		<path clip-path="url(#SBS_SVGID_8_)" fill="#1B5A90" d="M163.065,467.365c-0.021,0.013-0.043,0.029-0.064,0.055
			C163.023,467.44,163.044,467.419,163.065,467.365"/>
		<path clip-path="url(#SBS_SVGID_8_)" fill="#1B5A90" d="M155.243,728.724c-0.107,0.495-0.143,1.497-0.215,1.016
			c0.104-3.024,0.168-10.002,0.425-4.595c-0.006-4.989,0.228-21.966-0.303-14.349c0.288-0.552,0.043,6.426-0.061,9.445
			c-0.43-0.396-0.261-7.893-0.729-9.756c0.048-0.241,0.123-1.229,0.193-1.943l-0.267-1.071c0.475-9.373,0.133-18.9,0.744-25.723
			c-0.133-0.396-0.235-2.039-0.206-5.261l0.539-0.138l-0.012-9.966l-0.782,4.666c-0.156-10.938,0.733-18.634,0.865-27.614
			c-0.898-2.309,0.339-17.532-0.458-25.313l-0.243,7.021c0.163-15-0.378-17.388-0.071-31.375c0.3,11.868,0.12,11.937,0.856,29.22
			c-0.377-17.352,0.507-29.981-0.015-45.87c-0.214,1.062-0.352,5.05-0.572,1.161c0.463-3.102-0.017-14.969,0.524-12.616
			c-0.184-4.934-0.689-5.793-0.762-8.81l0.663-16.56l-0.108,0.507c-1.25-28.147,0.84-52.545,0.307-80.792l-0.288,0.546l0.357-5.952
			c-0.229,3.128-0.316-3.557-0.546-3.954l0.626-18.097c-0.252-0.408-0.825,0.658-0.712,5.099
			c-0.295-6.875,0.307-13.979,0.337-19.968l-0.25,2.043l0.208-6.034l-0.358,0.068c0.168-9.976-0.204-22.362,0.367-26.015
			l-0.574,1.17l0.455-10.586l-0.387,6.06c-0.121-11.888,0.326-29.949,0.322-32.488l-0.214,1.072
			c-0.109-1.943,0.031-3.479,0.101-5.51l-0.32,1.566c0.087-17.916-0.636-22.814-0.298-42.811c-0.076-5.45-0.105,3.019-0.285,3.105
			c-0.253-2.976-0.01-9.978,0.132-11.494c-0.501,1.583-0.347,10.014-0.75,3.614c0.246-4.547-0.464,3.101-0.365-4.9l0.642-3.136
			c-0.112-4.451-0.502-0.89-0.439-7.928c0.28-8.035,0.729,9.833,0.822-3.105c-0.021-3.202-0.383-6.572-0.704-10.671
			c-1.398,1.215-2.698,2.316-3.896,3.311c-0.476,4.897,0.075,14.546-0.193,19.849l0.392-3.566
			c0.473,6.821,0.084,12.929-0.055,16.926l0.321-1.549c-0.061,9.498,1.02,14.207-0.119,21.439l0.213-1.003
			c0.051,2.008,0.139,4.549,0.166,7.054c3.62,26.372,5.617,60.466,1.042,97.703c-0.09,0.731-0.38,2.574-0.838,5.342
			c0.007,2.264-0.185,3.884-0.279,4.051c0.903,0.837-0.067,21.984,1.178,29.108c-0.532,5.075-0.945,19.61-0.653,24.049
			c0.581,6.37,0.639-5.639,1.179-3.273c0.005,4.989-0.53,7.609-0.343,15.042c-0.538,0.124-1.092-14.689-1.4-0.705l0.291,1.958
			c-0.039-1.451-0.148-3.438-0.078-5.468c0.317-4.044,0.361,2.425,0.506,3.354l-0.163,15.012c-0.574,1.097-0.44-7.88-0.583-8.809
			c0.12,11.88,0.96,26.178,0.578,37.225l0.215-1.046c-0.488,14.083,1.049,8.22,0.128,19.425c0.15,5.919,0.608-2.132,0.654,6.805
			c0.003,2.524-0.214,1.046-0.286,0.594c-0.203,10.981,0.543,4.835,0.017,14.969l0.605-2.186
			c-0.416,12.079-1.479,24.737-1.217,35.173c0.468-0.623,0.424-7.08,0.78-9.647c-0.845,14.138-0.105,33.913-0.558,46.979
			c-0.398-3.906-0.925,6.186-1.257-2.185c0.607-2.164,0.208-6.092,0.276-10.569c-1.321,7.243,0.641,30.286-0.502,32.501l0.467,1.914
			c-0.069,2.005-0.423,7.094-0.57,3.583l0.302,14.419c0.353-5.063,1.167-15.734,0.662-19.085c0.497-4.1,0.33,5.905,0.9,2.276
			c-0.78,9.646,0.329,5.926,0.16,15.918c-0.678-4.521-0.919,9.94-1.246,9.489c0.125,3.27-0.188,10.534-0.417,13.348
			c-0.05,4.438,0.26,13.288,0.301,21.357c0.143,0.021,0.288,0.04,0.43,0.061c0.127-1.178,0.271-1.929,0.439-1.77
			c-0.033,0.603-0.06,1.212-0.083,1.818c0.175,0.024,0.349,0.051,0.525,0.074c-0.244-3.42-1.159-0.953-0.739-11.309
			c0.57-3.608,0.71-7.613,0.879-15.141c0.327,3.428,0.469,1.918,0.865,3.329c-0.604,4.606-0.633,10.597-0.586,16.94
			c0.016,2.056,0.035,4.148,0.049,6.244c0.949,0.128,1.916,0.248,2.887,0.366C154.754,739.366,155.466,735.76,155.243,728.724"/>
		<path clip-path="url(#SBS_SVGID_8_)" fill="#1B5A90" d="M155.626,454.602c0.021-0.288,0.043-0.652,0.067-1.119L155.626,454.602z"/>
		<path clip-path="url(#SBS_SVGID_8_)" fill="#1B5A90" d="M163.482,744.256c0.095,0.007,0.19,0.016,0.286,0.022
			c0.043-1.545,0.132-2.799,0.273-4.305L163.482,744.256z"/>
		<path clip-path="url(#SBS_SVGID_8_)" fill="#1B5A90" d="M163.64,736.111c-0.147-0.762-0.265-1.028-0.368-1.028
			c0.101-0.576,0.165-1.975,0.146-5.441c-0.07,2.03-0.031,3.497-0.21,3.54c0.143-13.209-0.656-3.088-0.597-11.273
			c-0.14,1.295-0.314-1.033-0.389-3.966c0.954,0.198,1.078-16.022,1.606-20.312l-0.013,0.052l0.382-11.05
			c-0.078,2.24-0.338-0.176-0.439-3.391l0.005,0.521c-0.147-3.51-1.035,4.178-0.76-6.356l0.281-5.536
			c-0.034,0.989-0.18,0.039-0.252-0.481l0.258-5.7c-0.89-8.719,0.502-16.457,0.065-26.716c0.075,2.96,0.008,7.467-0.282,5.537
			c-0.108-1.988-0.003-4.991,0.137-6.534l-0.107,0.516l0.588-19.546c-0.321,1.587-0.346,12.526-0.708,7.635
			c-0.435-2.891,0.025-8.499,0.058-12.009c0.252,0.451,0.475,6.921,0.61,0.383c-0.125-0.8-0.385-7.02-0.564-4.086
			c0.256-6.697,0.411-16.423,0.857-22.415c-0.11-1.901-0.213,1.089-0.248,2.086l0.072,0.481c-0.14,4.035-0.646,0.62-0.385,8.543
			c-0.826,0.662-0.229-11.42-0.345-18.367l-0.561,11.076c-1.131-18.659,0.094-43.848,0.109-62.336
			c0.257,5.425,0.013,9.964,0.658,9.313c0.31-11.484,0.167-9.979,0.298-21.435l-0.034,0.985c-0.331-5.922,0.307-14.013-0.272-17.897
			c-0.355,2.559,0.334,8.408-0.385,8.551l0.056-14.453c-0.425,4.542-0.056,14.453-0.157,19.963c0.04,3.975,0.099-7.991,0.568-6.104
			c-0.022,13.489-0.484,16.564-1.159,23.201c-0.498,4.044-0.507-5.893-0.511-8.4c0.742-8.585,1.088-21.129,0.751-34.51l-0.546-7.348
			c0.494-6.623,1.467-3.807,1.345-15.768l-0.39,3.569c-0.155-2.619-0.205-4.339-0.202-5.608c-0.295,5.145-0.628,10.684-0.936,15.334
			c-0.831-6.805,0.41-19.55,0.577-29.555c-0.105,0.521-0.139,4.018-0.351,5.059c-0.197-14.926,0.791-30.558,0.921-42.085
			c-0.364-4.873-0.24,9.575-0.78,7.2c0.208-6.06-0.265-12.908,0.235-14.53c-0.714,2.651-0.052-13.927-0.72-2.335
			c-0.312-21.847,0.345-45.896,0.75-67.971c-0.216,1.072-0.393,1.072-0.539,0.143c0.01,7.471-0.194,18.448-0.692,22.594
			c-0.365-4.907,0.489-11.612,0.273-13.024c-0.176,2.508-0.171,7.485-0.53,7.571c-0.401-6.396,0.167-9.979,0.235-14.483l0.182,2.443
			c0.486-14.036,1.248-7.747,1.05-22.651c-0.436-5.398-0.357,0.052-0.896,0.143c0.211-3.509-0.375-14.827,0.196-18.479l0.046,9.02
			c0.15-6.314,0.149-12.286,0.336-16.66c-0.115,0.451-0.234,0.816-0.281,2.155c0.174-5.016,0.13-11.456,0.487-14.022l-0.577-1.41
			c0.255,2.994,0.301,11.94-0.02,13.45c-0.504-0.86-0.191-9.911-0.23-13.873c-0.16,17.477-1.058,17.692-0.682,32.489l0.177-2.495
			c0.435,9.204-0.284,18.689-0.267,26.754c-0.116-2.271-0.327-2.731-0.424-1.664c0.45,17.841,0.111,35.392,0.384,55.729
			l-0.568,6.122l0.432,0.377c0.19,9.949-0.608,2.155-0.565,8.568c-0.002-2.438,0.069-2,0.178-2.499
			c-0.491,11.55,0.4,6.418,0.265,12.896c0.461-3.081,0.165-12.491,0.777-9.602c-0.489,11.524-0.219,29.438-1.257,31.129
			c0.418,21.391-0.233,47.909-0.322,65.894c0.183,2.453,0.143-1.532,0.287-0.59c-0.602,7.111,0.42,23.86-0.118,23.973
			c0.148,3.44,0.543,4.879,0.688,5.811c-0.258,4.564-0.383,10.027-0.457,15.824l0.147-4.24l0.073,0.464l-0.21,6.018l-0.033-0.224
			c-0.154,14.432-0.023,31.107-0.6,44.201c0.305-6.541,0.568-0.309,0.771-0.868c0.029-0.27,0.058-0.552,0.088-0.796
			c-0.028,0.471-0.057,0.71-0.088,0.796c-0.764,7.052-0.78,22.288-0.697,34.75c0.18-0.055,0.323,0.947,0.466-0.571l-0.352,7.502
			l0.215-0.994c0.158,13.433-0.794,28.062-0.389,36.932c0.101-5.484,0.28-5.515,0.567-6.064c-0.021,9.626-0.031,18.702-0.29,29.946
			c0.052-0.603,0.113-0.994,0.177-1.011c0.076,2.945-0.136,6.485-0.24,9.501l0.431,0.409c-0.199,5.751,0.022,13.179-0.321,20.014
			c0.415,2.359-0.239,13.392-0.268,21.385c1.357,0.133,2.727,0.252,4.106,0.356C163.354,741.229,163.296,736.182,163.64,736.111"/>
		<path clip-path="url(#SBS_SVGID_8_)" fill="#1B5A90" d="M160.021,592.097c0.031-0.086,0.06-0.325,0.088-0.796
			C160.078,591.545,160.049,591.827,160.021,592.097"/>
		<path clip-path="url(#SBS_SVGID_8_)" fill="#1B5A90" d="M150.192,441.257c-0.013-0.012-0.023-0.034-0.037-0.038
			C150.164,441.274,150.176,441.284,150.192,441.257"/>
		<path clip-path="url(#SBS_SVGID_8_)" fill="#1B5A90" d="M142.089,292.164c1.321,5.095,2.894,11.731,4.456,19.66
			c0.356-0.407,0.848,1.694,1.127,2.603c-0.933-3.448-0.813-4.637-1.192-12.327c0.441-0.408,0.635,0.155,0.723,1.174
			c-0.117-1.62-0.311-3.027-0.706-3.863l0.522-2.612c0.742-8.595-1.608-8.675-1.415-18.608c-1.626,1.275-2.898,2.223-3.748,2.841
			C141.87,285.247,141.939,289.218,142.089,292.164"/>
		<path clip-path="url(#SBS_SVGID_8_)" fill="#1B5A90" d="M135.028,537.793c0.578,7.001,0.691,16.01,1.225,20.862
			c-0.728-0.403-1.374-0.354-1.946-3.594c-0.093,5.979,1.551,8.788,0.483,12.965c0.996,2.865,0.634,16.597,2.031,18.024
			c-0.284,0.247-0.01,6.44-0.79,0.171c0.458,8.165-1.215,10.745-1.209,14.486c0.042,2.101,0.886-2.401,0.912,2.392
			c-0.059,0.586-0.201,0.721-0.26,1.318l0.326,1.838c-0.32,1.905-0.691-2.079-1.054-2.264c-0.295,6.703,0.806,11.067,0.897,19.003
			l-0.244-1.361l-0.049,8.074l-0.081-0.459l0.493,6.517l-0.362-0.198c0.102,1.506,0.329,1.856,0.371,3.959l-0.446-0.675
			c0.692,2.069,1.065,9.759,1.072,13.516l-0.2,0.716l0.903,8.84c-0.478,4.712-1.062-6.016-0.725,3.333l-0.913-2.399
			c0.355,6.646-0.131,7.633,0.179,12.177c0.462-2.051,0.397-5.2,0.803-2.869c-1.042,5.223,0.269,8.338,0.693,13.349
			c-0.021-2.543-0.009-4.265-0.539-5.998c0.017-2.69,0.484-0.969,0.524-2.621l-0.513-3.813l0.625-1.086l-0.496-6.534
			c0.73,0.408,0.092-6.002,0.864-3.453c-0.31-4.561,0.213-7.172-0.523-11.331c0.44-3.087,0.534,4.881,0.609,1.6
			c-0.592-18.237-0.48-37.09-0.228-56.086l0.329,1.846c-0.329-1.846-0.595-4.286-0.841-5.664c0.584-3.225,1.333-15.672,0.234-20.052
			c0.06-0.607,0.223,0.343,0.306,0.8c-0.132-6.326,0.639-17.727,0.526-26.727c-1.162-3.806,0.726-13.535-0.857-16.946l0.327,1.863
			c-0.438,3.064-1.098-4.371-1.486-5.631c1.029-2.526,0.789-0.171,1.736-3.183l-0.359,3.569l0.849-0.786
			c-0.923-4.838-0.884-9.389-0.655-13.574c-0.759,4.348-1.527,8.739-2.297,13.144C135.365,528.569,135.367,532.6,135.028,537.793"/>
		<path clip-path="url(#SBS_SVGID_8_)" fill="#1B5A90" d="M147.126,735.741c-0.043-2.116-0.51-3.821-0.271-6.197
			c0.202-0.714,0.303,0.811,0.467,1.729l-0.985-9.299c0.424-0.393,0.647-0.042,0.974,1.814c-0.032-8.539-1.331,1.724-1.045-8.713
			c0.321-1.89,0.447,0.672,0.691,2.049c0.62-4.832,0.049-8.084-0.343-13.071c0.648-0.07,0.572,3.222,0.989-0.894
			c-0.341,0.823-0.908,1.342-0.973-1.822c0.657,1.529,0.35-2.408,0.516-5.493c-0.226,0.625-0.534,0.389-0.647-0.82
			c-0.103-1.514,0.157-2.807,0.116-4.922l-0.643,3.785c-0.616-5.317,0.331-8.327,0.608-12.362c0.121,0.332,0.203,1.027,0.241,1.837
			c0.266-4.255,0.791-8.64,0.226-14.018l0.081,0.46c-0.643-10.141-1.087,3.124-1.692-8.672c0.135-3.878,2.125,1.855,1.364-7.103
			c-0.56,4.244-1.345-5.783-1.592-10.896l1.26,5.283c0.012-2.062-0.337-5.634-0.21-6.763l-0.284,0.257
			c-1.071,0.39,0.151-6.597-0.502-10.304c1.463,4.6,1.182,4.857,2.638,5.698c-0.794-3.593-1.528-7.742-1.377-14.317l1.122,5.41
			c0.248-8.777-1.405-19.096-2.345-26.303c0.831,1.941,1.127-1.021,1.841,2.118l-0.173-8.429l0.912,2.382
			c-0.935-3.447-0.293-7.231-1.506-6.668c0.163,0.916,0.304,0.797,0.267,2.433c-0.366-0.206-1.116-1.67-1.061-6.023
			c0.299-2.937,0.468,1.729,0.81,0.908c-0.489-2.799,0.3-2.968-0.051-5.869l-0.52,2.597c-0.692-2.044-0.028-4.816-0.376-7.683
			c0.299,3.453,0.703,2.321,1.125,1.027l-0.091,0.188c-0.043-2.092-0.533-4.872-0.131-6.318l0.973,1.786l-0.711-3.104
			c0.119-1.174,0.462-2.008,0.646-0.034c0.593-9.632-2.082,0.272-1.192-12.34c0.366,0.217,0.612,1.595,0.393,5.014
			c0.586,0.553,0.93-0.296,1.147-3.707c0.044-0.06,0.073-0.011,0.109-0.018c0.016-6.559,0.066-15.1-0.585-19.411
			c0.262-1.304,0.507,0.094,0.752,1.47c0.352-7.262-0.56-9.671,0.074-17.218l-0.359,3.544c-0.533-4.878-0.648-13.887,0.054-18.25
			l0.24,1.36c-0.585-4.645,0.499-11.948,0.004-13.926c-0.321,1.906-0.505-0.085-0.805,2.871l-0.604-11.804l0.99-0.886l-0.329-6.199
			c-0.396,1.529,0.313-8.311-0.625-8.472c0.359-3.539,0.751,1.458,1.136,2.719c-0.287-3.494,0.137-3.867-0.433-7.11l0.863-3.455
			l-0.621-9.102c0.083,0.459,0.143-0.107,0.224,0.332c-0.158-0.896-0.225-1.9-0.251-2.971c-1.5,8.712-3.368,19.458-5.431,31.291
			c0.185,8.61,0.341,17.556,0.042,26.077c-0.034,5.39,0.967-1.953,0.897,5.083c-0.463,2.03-0.935-3.444-1.131,1.021
			c0.571,3.24,0.453,4.423,0.398,8.753c-0.304-0.788-0.506-0.077-0.714-3.117c-0.38,2.498,0.726,10.613-0.035,15.59
			c0.282-0.25,0.446,0.661,0.608,1.589c0.801,7.333-0.802,16.809-0.356,17.489c0,0,0.125,2.563,0.222,0.337
			c-0.017,2.692-0.151,6.563-0.599,5.891c0.246,1.404,0.633,2.638,0.676,4.765l-0.529-1.148c0.114,1.223,0.446,2.635,0.512,3.835
			l0.321-1.906c-0.438,3.082,0.621,9.12-0.389,8.94l-0.023-1.045l-0.456,5.76c0.408,2.305,0.817,4.637,0.678,8.497
			c-1.047,1.49-0.226,9.86-0.338,14.784l-0.365-0.221c0.509,3.854,0.281,13.713,0.463,11.927c0.005,3.743-0.25,8.806-0.575,6.943
			c0.207,3.044,0.196,9.484,0.804,11.083l-0.879,6.124c1.299,3.676-0.469,12.241,0.908,12.606c-0.215,3.411-0.521,2.62-0.761,4.984
			c0.676,4.749,0.563,9.658,0.45,14.598l-0.144,0.13c-0.111,4.933,0.583,10.728,0.655,17.643l-1.049,1.462
			c0.147,3.624,0.959,4.509,0.739,7.946c-0.161,0.8-0.216,0.041-0.272-0.877c0.208,3.377-0.058,7.946-0.318,10.498
			c0.757,5.215,0.478,9.221,1.293,13.823c-0.922,4.059-0.411-6.056-1.277-2.574c-0.409,6.153-0.121,12.422,0.248,19.041
			c1.281,0.227,2.604,0.451,3.966,0.67c0.218-3.801,1.502,0.65,1.488-8.767L147.126,735.741z"/>
		<path clip-path="url(#SBS_SVGID_8_)" fill="#1B5A90" d="M145.755,278.073c-0.01,0.007-0.02,0.016-0.029,0.023
			C145.736,278.105,145.746,278.094,145.755,278.073"/>
		<path clip-path="url(#SBS_SVGID_8_)" fill="#1B5A90" d="M164.229,736.396l0.027,7.919c0.211,0.015,0.422,0.027,0.634,0.041
			c0.041-0.907,0.082-1.842,0.122-2.753L164.229,736.396z"/>
		<path clip-path="url(#SBS_SVGID_8_)" fill="#1B5A90" d="M164.073,716.821c-0.411,11.368-0.859-1.508-1.01-5.801
			c0.2,18.612,0.968,6.768,1.427,9.741l-0.813-14.178L164.073,716.821z"/>
		<path clip-path="url(#SBS_SVGID_8_)" fill="#1B5A90" d="M163.217,690.126c0.226,0.602,0.472,6.553,0.638,2.732
			C163.914,683.764,163.383,686.308,163.217,690.126"/>
		<path clip-path="url(#SBS_SVGID_8_)" fill="#1B5A90" d="M171.703,331.538c0.11-2.549,0.188-5.554,0.334-5.13
			C171.885,323.559,171.759,322.958,171.703,331.538"/>
		<path clip-path="url(#SBS_SVGID_8_)" fill="#1B5A90" d="M172.038,326.408c0.028,0.548,0.059,1.138,0.09,1.838
			c-0.012-0.577-0.018-1.061-0.039-1.714C172.07,326.361,172.055,326.461,172.038,326.408"/>
		<path clip-path="url(#SBS_SVGID_8_)" fill="#1B5A90" d="M165.379,509.113l0.531-2.564l-0.365-14.782
			C165.117,497.765,165.487,500.861,165.379,509.113"/>
		<polygon clip-path="url(#SBS_SVGID_8_)" fill="#1B5A90" points="163.751,505.936 164.002,513.67 163.961,501.155 		"/>
		<polygon clip-path="url(#SBS_SVGID_8_)" fill="#1B5A90" points="164.508,320.533 164.963,348.708 164.591,318.618 		"/>
		<path clip-path="url(#SBS_SVGID_8_)" fill="#1B5A90" d="M171.076,332.408l0.084-1.908c-0.282-3.225-0.162-7.855-0.354-11.207
			L171.076,332.408z"/>
		<path clip-path="url(#SBS_SVGID_8_)" fill="#1B5A90" d="M169.038,457.83c-0.016-0.087-0.031-0.174-0.047-0.261
			C169.006,457.678,169.021,457.761,169.038,457.83"/>
		<path clip-path="url(#SBS_SVGID_8_)" fill="#1B5A90" d="M169.038,457.83c0.879,4.892-0.042,9.542,0.817,3.038
			C169.702,453.394,169.35,459.192,169.038,457.83"/>
		<path clip-path="url(#SBS_SVGID_8_)" fill="#1B5A90" d="M170.396,487.107c0.029-4.522-0.115-7.034-0.258-9.512
			C169.709,483.564,170.205,483.77,170.396,487.107"/>
		<path clip-path="url(#SBS_SVGID_8_)" fill="#1B5A90" d="M161.856,262.962c-0.011,0.346-0.021,0.737-0.03,1.108
			c0.012-0.013,0.026-0.026,0.04-0.038C161.864,263.723,161.861,263.37,161.856,262.962"/>
		<path clip-path="url(#SBS_SVGID_8_)" fill="#1B5A90" d="M161.866,264.032c-0.014,0.013-0.026,0.025-0.04,0.038
			c-0.008,0.326-0.019,0.636-0.03,0.879C161.856,265.59,161.872,265.155,161.866,264.032"/>
		<path clip-path="url(#SBS_SVGID_8_)" fill="#1B5A90" d="M160.716,264.886c-0.003,0.076-0.004,0.156-0.006,0.236l0.001-0.001
			L160.716,264.886z"/>
		<path clip-path="url(#SBS_SVGID_8_)" fill="#1B5A90" d="M160.71,265.121L160.71,265.121c-0.011,0.317-0.02,0.652-0.025,1.043
			L160.71,265.121z"/>
		<path clip-path="url(#SBS_SVGID_8_)" fill="#1B5A90" d="M161.578,263.513l-0.251-0.442l0.002,1.471
			c0.068-0.065,0.134-0.126,0.204-0.192L161.578,263.513z"/>
		<path clip-path="url(#SBS_SVGID_8_)" fill="#1B5A90" d="M161.532,264.35c-0.069,0.065-0.135,0.126-0.204,0.192l0.003,3.509
			L161.532,264.35z"/>
		<path clip-path="url(#SBS_SVGID_8_)" fill="#1B5A90" d="M163.827,697.631l0.38-1.011C164.054,696.202,163.936,696.749,163.827,697.631
			"/>
		<path clip-path="url(#SBS_SVGID_8_)" fill="#1B5A90" d="M162.618,721.384c0.011-1.059,0.028-2.294,0.069-4.061
			C162.625,719.155,162.599,720.17,162.618,721.384"/>
		<path clip-path="url(#SBS_SVGID_8_)" fill="#1B5A90" d="M163.757,683.242l-0.035-3.496
			C163.705,680.902,163.721,682.128,163.757,683.242"/>
		<path clip-path="url(#SBS_SVGID_8_)" fill="#1B5A90" d="M162.761,461.244c0.242-1.798,0.654-2.345,0.46-8.676
			C163.108,454.908,162.942,457.992,162.761,461.244"/>
		<path clip-path="url(#SBS_SVGID_8_)" fill="#1B5A90" d="M154.554,708.542l0.202,0.843C154.733,707.16,154.644,707.616,154.554,708.542
			"/>
		<path clip-path="url(#SBS_SVGID_8_)" fill="#1B5A90" d="M159.32,722.045l0.218,1.485l0.048-1.02
			C159.523,722.146,159.438,721.96,159.32,722.045"/>
		<path clip-path="url(#SBS_SVGID_8_)" fill="#1B5A90" d="M163.29,665.688l0.022,0.193c0.106-0.546,0.142-1.514,0.104-3.036
			L163.29,665.688z"/>
		<path clip-path="url(#SBS_SVGID_8_)" fill="#1B5A90" d="M155.474,678.307c-0.188,1.031-0.329,2.216-0.443,3.441
			C155.186,682.213,155.381,680.97,155.474,678.307"/>
		<polygon clip-path="url(#SBS_SVGID_8_)" fill="#1B5A90" points="162.61,721.908 162.618,721.869 162.617,721.384 		"/>
		<path clip-path="url(#SBS_SVGID_8_)" fill="#1B5A90" d="M159.438,698.113c0.044-1.609,0.069-3.017,0.103-4.517
			C159.448,694.603,159.39,696.202,159.438,698.113"/>
		<path clip-path="url(#SBS_SVGID_8_)" fill="#1B5A90" d="M162.761,461.244c-0.087,0.654-0.149,1.453-0.154,2.753L162.761,461.244z"/>
		<path clip-path="url(#SBS_SVGID_8_)" fill="#1B5A90" d="M162.25,287.812c-0.13,1.058-0.22,2.405-0.286,3.918
			C162.11,291.209,162.253,290.56,162.25,287.812"/>
		<path clip-path="url(#SBS_SVGID_8_)" fill="#1B5A90" d="M150.941,292.473c0.146-0.319,0.275-0.827,0.34-2.026
			C151.15,290.476,151.029,291.251,150.941,292.473"/>
		<path clip-path="url(#SBS_SVGID_8_)" fill="#1B5A90" d="M154.655,357.522c-0.066,4.482-0.821,3.174-0.454,10.573
			C154.302,362.555,154.985,363.415,154.655,357.522"/>
		<path clip-path="url(#SBS_SVGID_8_)" fill="#1B5A90" d="M151.188,303.415c0.104-3.002-0.079-5.463-0.116-6.963
			c-0.07,2.043,0.113,4.46-0.174,5.019c-0.162-3.398-0.11-6.895,0.043-8.998c-0.41,0.932-0.963,0.537-0.688,9.661
			C150.685,302.511,150.682,300.03,151.188,303.415"/>
		<path clip-path="url(#SBS_SVGID_8_)" fill="#1B5A90" d="M151.497,322.81c-0.093-1.101-0.176-1.54-0.257-1.724
			c0.048,1.583,0.096,3.118,0.154,4.438C151.459,324.6,151.549,323.739,151.497,322.81"/>
		<path clip-path="url(#SBS_SVGID_8_)" fill="#1B5A90" d="M154.388,537.509c-0.626,3.808,0.02,5.67-0.24,10.35
			C154.368,545.183,154.923,542.182,154.388,537.509"/>
		<path clip-path="url(#SBS_SVGID_8_)" fill="#1B5A90" d="M154.147,547.858l-0.072,1.17
			C154.111,548.594,154.126,548.241,154.147,547.858"/>
		<polygon clip-path="url(#SBS_SVGID_8_)" fill="#1B5A90" points="150.882,286.541 150.272,286.162 150.313,290.124 		"/>
		<path clip-path="url(#SBS_SVGID_8_)" fill="#1B5A90" d="M153.876,367.166c-0.104,2.985-0.212,3.515,0.082,7.949
			C154.062,372.1,154.021,368.125,153.876,367.166"/>
		<path clip-path="url(#SBS_SVGID_8_)" fill="#1B5A90" d="M151.707,285.865c0.106-0.533,0.251,0.439,0.393-1.092l0.105-2.98
			C151.985,277.813,151.739,282.372,151.707,285.865"/>
		<path clip-path="url(#SBS_SVGID_8_)" fill="#1B5A90" d="M151.466,328.797l0.108-0.55c-0.072-0.479-0.129-1.519-0.181-2.723
			C151.323,326.488,151.28,327.56,151.466,328.797"/>
		<polygon clip-path="url(#SBS_SVGID_8_)" fill="#1B5A90" points="151.692,337.693 151.796,334.67 151.154,337.848 		"/>
		<path clip-path="url(#SBS_SVGID_8_)" fill="#1B5A90" d="M151.24,321.085c-0.166-5.815-0.322-11.765-0.829-5.536l0.08,5.44
			c-0.004-2.481,0.068-1.987,0.176-2.508c0.219,3.941-0.136,6.513-0.24,9.485C150.63,326.32,150.877,320.075,151.24,321.085"/>
		<polygon clip-path="url(#SBS_SVGID_8_)" fill="#1B5A90" points="161.303,371.74 160.839,374.833 161.272,377.724 		"/>
		<path clip-path="url(#SBS_SVGID_8_)" fill="#1B5A90" d="M160.169,450.705l0.065-6.976c-0.145-0.969-0.142,1.552-0.176,2.567
			C160.307,444.236,160.133,449.27,160.169,450.705"/>
		<path clip-path="url(#SBS_SVGID_8_)" fill="#1B5A90" d="M161.661,506.662c0.047,0.916,0.097,1.69,0.152,2.03
			C161.801,507.527,161.74,506.963,161.661,506.662"/>
		<path clip-path="url(#SBS_SVGID_8_)" fill="#1B5A90" d="M160.948,505.424c0.142-1.545,0.102-5.541,0.314-6.582
			c0.132,1.76,0.186,5.622,0.088,8.216c0.099-0.537,0.218-0.705,0.311-0.396c-0.271-5.145-0.43-17.997-0.345-24.775
			c-0.254-2.964-0.64,5.608-0.816,8.116C161.967,486.209,160.439,499.505,160.948,505.424"/>
		<path clip-path="url(#SBS_SVGID_8_)" fill="#1B5A90" d="M162.069,742.89c-0.407-11.386,0.783-7.131-0.23-13.91
			c0.077,5.454-0.238,12.022-0.273,12.994l-0.042-6.425c-0.456,2.209-0.222,5.384-0.022,8.549c0.38,0.032,0.763,0.061,1.145,0.091
			c0.109-3.638,0.185-7.626,0.442-8.796C162.683,734.829,162.054,729.715,162.069,742.89"/>
		<polygon clip-path="url(#SBS_SVGID_8_)" fill="#1B5A90" points="161.446,436.979 161.414,440.459 161.63,441.939 		"/>
		<path clip-path="url(#SBS_SVGID_8_)" fill="#1B5A90" d="M161.307,623.448c0.03-0.027,0.061-0.044,0.093-0.025
			C161.369,623.336,161.338,623.35,161.307,623.448"/>
		<path clip-path="url(#SBS_SVGID_8_)" fill="#1B5A90" d="M161.35,507.058c-0.104,0.521-0.184,1.368-0.182,2.254
			C161.257,508.903,161.313,508.043,161.35,507.058"/>
		<path clip-path="url(#SBS_SVGID_8_)" fill="#1B5A90" d="M159.966,649.954l-0.083-3.273
			C159.871,648.019,159.907,649.09,159.966,649.954"/>
		<path clip-path="url(#SBS_SVGID_8_)" fill="#1B5A90" d="M160.019,640.139c0.288-0.545,0.137-6.47,0.062-9.493L160.019,640.139z"/>
		<path clip-path="url(#SBS_SVGID_8_)" fill="#1B5A90" d="M160.457,581.239c-0.177,2.538-0.238,12.035,0.085,12.982
			C160.581,595.671,160.498,585.24,160.457,581.239"/>
		<path clip-path="url(#SBS_SVGID_8_)" fill="#1B5A90" d="M161.307,623.448c-0.545,0.467-0.795,7.775-0.792,10.14
			c0.037,1.45,0.003,2.494-0.067,4.452C160.702,633.028,161.009,624.377,161.307,623.448"/>
		<path clip-path="url(#SBS_SVGID_8_)" fill="#1B5A90" d="M160.221,660.058c0.691-5.428,0-6.232-0.255-10.104L160.221,660.058z"/>
		<path clip-path="url(#SBS_SVGID_8_)" fill="#1B5A90" d="M152.983,500.883c0.026-0.773,0.039-1.634,0.048-2.606
			C153.002,498.784,152.982,499.614,152.983,500.883"/>
		<path clip-path="url(#SBS_SVGID_8_)" fill="#1B5A90" d="M159.892,687.526c-0.35,7.57,0.612,2.86,0.329,5.911
			c0.462-3.093,0.381-11.042,0.484-16.54C160.309,675.475,159.851,681.058,159.892,687.526"/>
		<path clip-path="url(#SBS_SVGID_8_)" fill="#1B5A90" d="M160.093,576.375l-0.179,2.748
			C160.102,579.851,160.314,583.536,160.093,576.375"/>
		<polygon clip-path="url(#SBS_SVGID_8_)" fill="#1B5A90" points="159.893,720.944 160.174,715.365 159.855,719.422 		"/>
		<path clip-path="url(#SBS_SVGID_8_)" fill="#1B5A90" d="M159.705,582.423l0.209-3.3C159.818,578.788,159.726,579.167,159.705,582.423"
			/>
		<path clip-path="url(#SBS_SVGID_8_)" fill="#1B5A90" d="M154.714,680.239l0.04-4.285C154.417,676.419,154.643,678.035,154.714,680.239
			"/>
		<polygon clip-path="url(#SBS_SVGID_8_)" fill="#1B5A90" points="154.977,487.051 155.048,487.519 155.258,481.514 155.185,481.037 		
			"/>
		<path clip-path="url(#SBS_SVGID_8_)" fill="#1B5A90" d="M161.978,593.895c-0.013,1.32-0.063,2.706-0.128,3.991
			C161.897,597.404,161.94,596.343,161.978,593.895"/>
		<polygon clip-path="url(#SBS_SVGID_8_)" fill="#1B5A90" points="161.998,613.784 162.348,612.133 162.356,611.26 		"/>
		<path clip-path="url(#SBS_SVGID_8_)" fill="#1B5A90" d="M162.025,605.345l0.318-4.034l-0.278,8.004
			c0.393-1.071,0.851-9.114,0.557-16.039L162.025,605.345z"/>
		<polygon clip-path="url(#SBS_SVGID_8_)" fill="#1B5A90" points="162.227,625.242 162.428,611.752 162.348,612.133 		"/>
		<path clip-path="url(#SBS_SVGID_8_)" fill="#1B5A90" d="M154.714,680.239l-0.023,2.718
			C154.748,681.985,154.741,681.099,154.714,680.239"/>
		<path clip-path="url(#SBS_SVGID_8_)" fill="#1B5A90" d="M161.375,600.97c0.202,0.62,0.365-0.98,0.474-3.084
			C161.719,599.125,161.552,595.855,161.375,600.97"/>
		<path clip-path="url(#SBS_SVGID_8_)" fill="#1B5A90" d="M161.314,643.876c-0.324-0.946-1.11,1.226-0.851,9.18
			c0.569-6.134,0.854-6.685,1.133-14.719l-0.47-1.889C161.201,639.407,161.597,638.337,161.314,643.876"/>
		<path clip-path="url(#SBS_SVGID_8_)" fill="#1B5A90" d="M151.607,489.218c-0.216-1.402-0.186-7.394-0.264-12.879
			C150.806,478.93,151.322,489.816,151.607,489.218"/>
		<polygon clip-path="url(#SBS_SVGID_8_)" fill="#1B5A90" points="151.171,614.961 150.963,620.956 151.035,621.465 151.244,615.403 		
			"/>
		<polygon clip-path="url(#SBS_SVGID_8_)" fill="#1B5A90" points="150.914,673.812 151.275,676.204 151.197,670.754 		"/>
		<path clip-path="url(#SBS_SVGID_8_)" fill="#1B5A90" d="M153.446,497.824l0.109,1.971l0.104-5.48l-0.105,2.99
			c-0.287,0.529-0.295-6.896-0.152-8.44c-0.376,0.474-0.328,5.45-0.369,9.412C153.122,496.794,153.314,497.824,153.446,497.824"/>
		<path clip-path="url(#SBS_SVGID_8_)" fill="#1B5A90" d="M152.342,668.538c-0.757-3.858-0.6,9.601-0.45,15.52
			C152.071,681.541,151.661,670.16,152.342,668.538"/>
		<path clip-path="url(#SBS_SVGID_8_)" fill="#1B5A90" d="M154.697,657.036c-0.076-2.98-0.394,1.089-0.607,2.142
			c-0.038-1.479-0.004-2.477,0.066-4.507c-0.751,1.165,0.257,5.441-0.13,11.489C154.384,666.062,154.448,659.11,154.697,657.036"/>
		<path clip-path="url(#SBS_SVGID_8_)" fill="#1B5A90" d="M152.304,460.395c-0.288-3.366-0.105-6.6-0.589-5.067
			c-0.036,1.003,0.01,9.937-0.347,10.049l0.538,2.365C151.801,463.59,152.165,459.332,152.304,460.395"/>
		<path clip-path="url(#SBS_SVGID_8_)" fill="#1B5A90" d="M152.304,460.395c0.008,0.102,0.017,0.203,0.026,0.305
			C152.322,460.568,152.313,460.47,152.304,460.395"/>
		<polygon clip-path="url(#SBS_SVGID_8_)" fill="#1B5A90" points="153.116,556.187 152.661,566.789 153.159,562.651 		"/>
		<path clip-path="url(#SBS_SVGID_8_)" fill="#1B5A90" d="M153.412,596.516c-0.14,4.03-0.959,9.67-0.52,17.563l0.209-6.005l0.038,1.449
			l0.32-1.539C152.6,609.666,153.379,600.039,153.412,596.516"/>
		<path clip-path="url(#SBS_SVGID_8_)" fill="#1B5A90" d="M154.086,525.581c-0.286,0.56-0.172,7.507-0.533,5.141l-0.075-2.989
			c0.113,4.47-0.714,2.65-0.314,9.003l-0.039-3.914c0.185,4.903,0.567-6.16,0.755,1.312
			C153.956,537.105,154.234,529.07,154.086,525.581"/>
		<polygon clip-path="url(#SBS_SVGID_8_)" fill="#1B5A90" points="151.944,697.998 151.971,689.542 151.872,697.547 		"/>
		<path clip-path="url(#SBS_SVGID_8_)" fill="#1B5A90" d="M152.619,688.272c0.031-0.76,0.05-1.634,0.029-2.89
			C152.626,686.54,152.621,687.46,152.619,688.272"/>
		<path clip-path="url(#SBS_SVGID_8_)" fill="#1B5A90" d="M152.23,697.448c0.142-1.522-0.041-3.987,0.102-5.497
			c0.342,0.322,0.278-0.563,0.286-3.679C152.474,691.765,151.93,691.388,152.23,697.448"/>
		<path clip-path="url(#SBS_SVGID_8_)" fill="#1B5A90" d="M150.233,708.077c-0.033-0.864-0.083-1.51-0.181-1.678
			C150.117,707.552,150.176,707.969,150.233,708.077"/>
		<polygon clip-path="url(#SBS_SVGID_8_)" fill="#1B5A90" points="149.816,721.425 149.818,720.873 149.782,721.876 		"/>
		<path clip-path="url(#SBS_SVGID_8_)" fill="#1B5A90" d="M162.722,292.182c-0.25,2.03,0.076,2.99,0.078,5.483
			C162.798,295.172,163.185,289.081,162.722,292.182"/>
		<path clip-path="url(#SBS_SVGID_8_)" fill="#1B5A90" d="M162.021,310.953c-0.021,0.27-0.042,0.543-0.067,0.834
			C161.979,311.531,162,311.247,162.021,310.953"/>
		<path clip-path="url(#SBS_SVGID_8_)" fill="#1B5A90" d="M162.224,305.637c-0.033,2.124-0.102,3.92-0.202,5.316
			C162.197,308.651,162.236,307.081,162.224,305.637"/>
		<path clip-path="url(#SBS_SVGID_8_)" fill="#1B5A90" d="M162.224,305.637c0.042-2.701,0.025-6.026-0.071-9.847
			C162.026,300.991,162.203,303.12,162.224,305.637"/>
		<path clip-path="url(#SBS_SVGID_8_)" fill="#1B5A90" d="M162.224,355.902c-0.004-0.194-0.007-0.31-0.007-0.31
			C162.22,355.703,162.222,355.795,162.224,355.902"/>
		<path clip-path="url(#SBS_SVGID_8_)" fill="#1B5A90" d="M162.224,355.902c0.026,1.246,0.104,6.029-0.14,8.697
			c0.425-4.594,0.784-4.646,0.883-12.68C162.755,352.986,162.488,368.224,162.224,355.902"/>
		<path clip-path="url(#SBS_SVGID_8_)" fill="#1B5A90" d="M161.939,381.698c0.021-1.148,0.017-2.326-0.055-3.579
			C161.925,379.104,161.936,380.374,161.939,381.698"/>
		<path clip-path="url(#SBS_SVGID_8_)" fill="#1B5A90" d="M161.939,381.698c-0.08,4.03-0.59,7.484-0.359,12.896
			c0.248-2.043,0.569-3.621,0.636-8.091C161.911,387.97,161.946,384.869,161.939,381.698"/>
		<path clip-path="url(#SBS_SVGID_8_)" fill="#1B5A90" d="M163.766,524.238c0.038,1.496,0.115,6.921,0.22,3.918l-0.008-7.485
			C163.799,520.74,163.802,523.209,163.766,524.238"/>
		<path clip-path="url(#SBS_SVGID_8_)" fill="#1B5A90" d="M162.618,557.389l0.61,0.339c0.105-3.027-0.357,0.087-0.328-5.892
			L162.618,557.389z"/>
		<polygon clip-path="url(#SBS_SVGID_8_)" fill="#1B5A90" points="159.85,548.764 159.871,546.746 159.81,548.511 		"/>
		<path clip-path="url(#SBS_SVGID_8_)" fill="#1B5A90" d="M164.183,576.486l-0.677,4.134
			C163.47,581.575,164.009,581.506,164.183,576.486"/>
		<polygon clip-path="url(#SBS_SVGID_8_)" fill="#1B5A90" points="163.969,610.894 164.172,599.912 163.962,603.422 		"/>
		<polygon clip-path="url(#SBS_SVGID_8_)" fill="#1B5A90" points="163.606,639.407 163.776,631.88 163.633,630.907 		"/>
		<path clip-path="url(#SBS_SVGID_8_)" fill="#1B5A90" d="M150.71,587.156c0.723,4.778-0.238,11.954,0.483,14.346
			C151.045,598.009,151.283,586.017,150.71,587.156"/>
		<path clip-path="url(#SBS_SVGID_8_)" fill="#1B5A90" d="M136.796,741.001c0.034-0.15,0.057-0.317,0.085-0.475
			c-0.028-0.006-0.055-0.012-0.084-0.018C136.796,740.675,136.797,740.832,136.796,741.001"/>
		<path clip-path="url(#SBS_SVGID_8_)" fill="#1B5A90" d="M137.105,717.676l0.081,0.459c-0.518-7.597,0.379-16.425,0.003-24.139
			c-0.532-4.89-0.87-14.236-1.882-14.389l0.904,8.847c-0.767,1.233-0.718,7.054-0.468,12.199l-0.049-5.836
			c0.102,1.506,0.587,0.545,0.69,2.051c-0.391,8.922,0.665,11.204-0.172,19.454l-0.081-0.467l0.495,6.503
			c-0.113,2.054-0.473,1.238-0.611,0.582c0.396,5.678,0.807,10.02,0.783,17.568c0.029,0.006,0.056,0.012,0.085,0.018
			C138.053,734.348,135.75,723.59,137.105,717.676"/>
		<path clip-path="url(#SBS_SVGID_8_)" fill="#1B5A90" d="M136.015,722.94l-0.036-0.509C135.94,722.465,135.963,722.686,136.015,722.94"
			/>
		<path clip-path="url(#SBS_SVGID_8_)" fill="#1B5A90" d="M141.881,573.185c0.297-0.471,0.361-1.132,0.321-1.881L141.881,573.185z"/>
		<path clip-path="url(#SBS_SVGID_8_)" fill="#1B5A90" d="M141.951,700.486l0.016,0.195L141.951,700.486z"/>
		<path clip-path="url(#SBS_SVGID_8_)" fill="#1B5A90" d="M146.255,641.655l0.282-0.258
			C146.378,641.151,146.296,641.289,146.255,641.655"/>
		<path clip-path="url(#SBS_SVGID_8_)" fill="#1B5A90" d="M146.687,686.834c0.158-0.8,0.195-2.262,0.133-3.472
			C146.748,684.529,146.693,685.669,146.687,686.834"/>
		<path clip-path="url(#SBS_SVGID_8_)" fill="#1B5A90" d="M141.951,700.486c-0.03-0.485-0.064-0.963-0.118-1.267
			C141.884,699.602,141.921,700.045,141.951,700.486"/>
		<path clip-path="url(#SBS_SVGID_8_)" fill="#1B5A90" d="M146.774,578.89l0.735-1.622C147.272,577.292,147.019,578.122,146.774,578.89"
			/>
		<path clip-path="url(#SBS_SVGID_8_)" fill="#1B5A90" d="M147.405,693.664c-0.142,0.579-0.215,1.36-0.261,2.181
			C147.288,695.442,147.4,694.718,147.405,693.664"/>
		<path clip-path="url(#SBS_SVGID_8_)" fill="#1B5A90" d="M137.243,689.664c0.054-1.539,0.001-2.892-0.105-4.151
			C137.147,686.702,137.163,688.039,137.243,689.664"/>
		<path clip-path="url(#SBS_SVGID_8_)" fill="#1B5A90" d="M147.347,481.907c0.032-0.119,0.07-0.29,0.118-0.57l-0.142,0.119
			L147.347,481.907z"/>
		<path clip-path="url(#SBS_SVGID_8_)" fill="#1B5A90" d="M148.343,513.262l-0.25-1.411
			C148.156,512.344,148.234,512.837,148.343,513.262"/>
		<path clip-path="url(#SBS_SVGID_8_)" fill="#1B5A90" d="M147.917,560.355c-0.008,3.504-0.004,6.467,0.124,7.834
			C148.23,567.527,148.524,560.176,147.917,560.355"/>
		<path clip-path="url(#SBS_SVGID_8_)" fill="#1B5A90" d="M147.21,303.394l-0.007-0.12L147.21,303.394z"/>
		<path clip-path="url(#SBS_SVGID_8_)" fill="#1B5A90" d="M147.238,303.866c-0.007-0.165-0.017-0.324-0.027-0.473
			C147.22,303.546,147.229,303.708,147.238,303.866"/>
		<path clip-path="url(#SBS_SVGID_8_)" fill="#1B5A90" d="M147.238,303.866c0.108,2.387-0.127,6.36,0.452,7.863
			C147.392,309.516,147.392,306.467,147.238,303.866"/>
	</g>
      </g>
    <g id="CUSTOM"></g>
		<path clip-path="url(#SBS_SVGID_4_)" fill="none" stroke="#897F76" stroke-width="0.25" stroke-miterlimit="10" d="M424.125,610.673
			c-7.954-51.274-33.727-153.58-37.404-202.856c-2.646-35.452,8.872-131.66,8.872-131.66s-0.063-0.059-0.175-0.164
			c-2.69-3.662-48.386-66.557-52.092-118.975c-2.734-38.67,13.239-110.323,13.239-110.323l-11.242-2.367l-3.438-0.875
			c0,0-36.086,37.643-71.331,38.498c-35.244,0.857-76.364-40.209-76.364-40.209s-0.637,0.162-1.564,0.417
			c-0.048-0.398-0.073-0.611-0.073-0.611l-2.003,1.202c-0.75,0.222-1.525,0.462-2.236,0.703c-2.519,0.854-6.712,4.276-6.712,4.276
			s0.102,0.08,0.279,0.222l-0.359,0.216c0,0,12.961,59.016,1.471,123.56c-12.362,69.441-43.394,108.116-43.394,108.116l0.145,0.058
			c-0.611,0.355-0.94,0.532-0.94,0.532s22.862,67.809,12.587,151.433c-1.063,8.649-30.073,171.877-33.118,192.181
			c-6.621,44.13,5.147,87.059,5.147,95.613c0,8.557-0.561,17.628-0.561,17.628s29.601,8.235,56.458,7.379
			c26.854-0.855,48.542-7.355,48.542-7.355l1.577-22.269c0,0,10.403-30.655,16.786-46.196c13.263-32.295,19.302-82.987,20.14-85.553
			c0.837-2.567,8.393-1.71,10.069,0.854c1.678,2.569,5.036,29.091,9.23,49.624c4.195,20.531,10.908,39.353,15.105,49.617
			c4.195,10.268,9.231,27.378,10.07,31.654c0.839,4.279,1.679,20.533,1.679,20.533s20.98,5.992,60.42,3.423
			c39.442-2.565,52.03-5.986,52.03-5.986s0.556-14.796,1.12-14.755C426.084,718.258,434.528,677.737,424.125,610.673z
			 M225.823,148.739c0,0-13.71-16.814-19.918-40.355c-6.208-23.541-6.467-42.684-6.467-42.684s10.605,11.382,18.883,35.181
			C226.601,124.681,225.823,148.739,225.823,148.739z M330.141,115.642c-4.854,18.688-16.019,37.134-16.019,37.134
			s-2.185-33.008,5.34-50.969c7.523-17.96,18.931-34.222,18.931-34.222S334.995,96.953,330.141,115.642z"/>
	
		<path clip-path="url(#SBS_SVGID_4_)" fill="none" stroke="#897F76" stroke-width="0.25" d="M424.125,610.673
			c-7.954-51.274-33.727-153.58-37.404-202.856c-2.646-35.452,8.872-131.66,8.872-131.66s-0.063-0.059-0.175-0.164
			c-2.69-3.662-48.386-66.557-52.092-118.975c-2.734-38.67,13.239-110.323,13.239-110.323l-11.242-2.367l-3.438-0.875
			c0,0-36.086,37.643-71.331,38.498c-35.244,0.857-76.364-40.209-76.364-40.209s-0.637,0.162-1.564,0.417
			c-0.048-0.398-0.073-0.611-0.073-0.611l-2.003,1.202c-0.75,0.222-1.525,0.462-2.236,0.703c-2.519,0.854-6.712,4.276-6.712,4.276
			s0.102,0.08,0.279,0.222l-0.359,0.216c0,0,12.961,59.016,1.471,123.56c-12.362,69.441-43.394,108.116-43.394,108.116l0.145,0.058
			c-0.611,0.355-0.94,0.532-0.94,0.532s22.862,67.809,12.587,151.433c-1.063,8.649-30.073,171.877-33.118,192.181
			c-6.621,44.13,5.147,87.059,5.147,95.613c0,8.557-0.561,17.628-0.561,17.628s29.601,8.235,56.458,7.379
			c26.854-0.855,48.542-7.355,48.542-7.355l1.577-22.269c0,0,10.403-30.655,16.786-46.196c13.263-32.295,19.302-82.987,20.14-85.553
			c0.837-2.567,8.393-1.71,10.069,0.854c1.678,2.569,5.036,29.091,9.23,49.624c4.195,20.531,10.908,39.353,15.105,49.617
			c4.195,10.268,9.231,27.378,10.07,31.654c0.839,4.279,1.679,20.533,1.679,20.533s20.98,5.992,60.42,3.423
			c39.442-2.565,52.03-5.986,52.03-5.986s0.556-14.796,1.12-14.755C426.084,718.258,434.528,677.737,424.125,610.673z
			 M225.823,148.739c0,0-13.71-16.814-19.918-40.355c-6.208-23.541-6.467-42.684-6.467-42.684s10.605,11.382,18.883,35.181
			C226.601,124.681,225.823,148.739,225.823,148.739z M330.141,115.642c-4.854,18.688-16.019,37.134-16.019,37.134
			s-2.185-33.008,5.34-50.969c7.523-17.96,18.931-34.222,18.931-34.222S334.995,96.953,330.141,115.642z"/>
	
  </g>
    
	<g clip-path="url(#SBS_SVGID_2_)">
		<defs>
			<rect id="SBS_SVGID_5_" x="93.5" y="23.897" width="349.5" height="733.95"/>
		</defs>
		<clipPath id="SBS_SVGID_6_">
			<use xlink:href="#SBS_SVGID_5_"  overflow="visible"/>
		</clipPath>
   
  </g>
	<g clip-path="url(#SBS_SVGID_2_)">
		<defs>
			<rect id="SBS_SVGID_7_" x="93.5" y="23.897" width="349.5" height="733.95"/>
		</defs>
		<clipPath id="SBS_SVGID_8_">
			<use xlink:href="#SBS_SVGID_7_"  overflow="visible"/>
		</clipPath>
    
  </g>
	<g clip-path="url(#SBS_SVGID_2_)">
		<defs>
			<rect id="SBS_SVGID_9_" x="93.5" y="23.897" width="349.5" height="733.95"/>
		</defs>
		<clipPath id="SBS_SVGID_10_">
			<use xlink:href="#SBS_SVGID_9_"  overflow="visible"/>
		</clipPath>
		<path clip-path="url(#SBS_SVGID_10_)" fill="#FFFFFF" d="M181.704,47.452l-0.359,0.216c0,0,15.637,54.615,5.113,117.911
			c-0.175,1.052-0.843,5.194-1.031,6.25c-2.598,14.593-6.363,26.755-8.859,36.953c-12.014,37.68-18.668,47.566-18.668,47.566
			l0.282-0.056c4.854-4.248,27.73-24.21,51.94-70.871c5.389-10.386,9.587-31.673,9.587-31.855
			c-15.747-30.914-20.181-68.549-24.327-92.536C188.573,53.128,182.973,48.472,181.704,47.452"/>
		<path clip-path="url(#SBS_SVGID_10_)" fill="#FFFFFF" d="M349.752,54.721c-0.247,0-1.558,1.555-5.885,7.923
			c-3.656,22.913-11.179,67.071-24.288,95.729c2.966,17.679,7.9,28.032,15.589,43.708c12.962,26.426,39.101,52.753,42.215,55.665
			c-1.626-3.253-22.383-37.922-35.371-81.642c-1.789-6.022-2.926-13.935-3.246-20.412c-1.911-38.579,10.589-98.739,10.589-98.739
			l-0.102-0.813C349.253,56.14,349.986,54.721,349.752,54.721"/>
		<g opacity="0.06" clip-path="url(#SBS_SVGID_10_)">
			<g>
				<defs>
					<rect id="SBS_SVGID_11_" x="198.364" y="54.328" width="195.675" height="340.076"/>
				</defs>
				<clipPath id="SBS_SVGID_12_">
					<use xlink:href="#SBS_SVGID_11_"  overflow="visible"/>
				</clipPath>
				<g clip-path="url(#SBS_SVGID_12_)">
					<defs>
						<path id="SBS_SVGID_13_" d="M198.364,223.046c0,0,31.637,0.216,41.654-11.019c10.018-11.234,26.046-49.02,30.052-53.105
							c4.007-4.085,13.022,87.828,36.063,102.126c23.04,14.296,18.031,83.742,33.058,97.02
							c15.024,13.276,46.939,36.336,46.939,36.336s2.115-48.419,4.12-68.844c2.002-20.425,4.167-38.55,3.731-40.876
							c-0.838-4.502-63.425-49.722-79.135-107.342c-13.544-49.673-1.049-80.676,4.962-90.889c3.716-6.311,2.815-8.55,20.894-32.125
							c0,0-17.541,4.512-34.569,29.022c-17.03,24.509-32.057,46.977-38.065,52.083c-6.011,5.106-20.036,13.276-22.039,5.106
							c-2.004-8.171-25.833-48.976-25.833-48.976s15.888,32.363,7.65,68.844C219.974,195.273,198.364,223.046,198.364,223.046"/>
					</defs>
					<clipPath id="SBS_SVGID_14_">
						<use xlink:href="#SBS_SVGID_13_"  overflow="visible"/>
					</clipPath>
					
						<radialGradient id="SBS_SVGID_15_" cx="126.4272" cy="774.4932" r="0.9712" gradientTransform="matrix(503.5926 0 0 -513.4127 -63454.0781 397718.6875)" gradientUnits="userSpaceOnUse">
						<stop  offset="0" style="stop-color:#FFFFFF"/>
						<stop  offset="1" style="stop-color:#897F76"/>
					</radialGradient>
					<rect x="198.364" y="54.328" clip-path="url(#SBS_SVGID_14_)" fill="url(#SBS_SVGID_15_)" width="196.054" height="340.076"/>
				</g>
			</g>
		</g>
		<g opacity="0.06" clip-path="url(#SBS_SVGID_10_)">
			<g>
				<defs>
					<rect id="SBS_SVGID_16_" x="139.52" y="262.07" width="101.501" height="241.313"/>
				</defs>
				<clipPath id="SBS_SVGID_17_">
					<use xlink:href="#SBS_SVGID_16_"  overflow="visible"/>
				</clipPath>
				<g clip-path="url(#SBS_SVGID_17_)">
					<defs>
						<path id="SBS_SVGID_18_" d="M161.884,262.07c0,0,31.054,42.891,43.074,51.062c12.021,8.17,36.063,15.319,36.063,22.467
							c0,7.149-25.045,18.384-38.067,40.851c-13.022,22.469-14.024,61.275-25.043,77.615
							c-11.019,16.341-37.512,49.318-37.512,49.318s1.229-16.282,4.062-30.06c4.348-21.133,6.406-35.681,7.718-46.106
							c0.886-7.05,2.642-26.242,2.032-46.918c-0.88-29.828-5.909-63.025-6.501-69.056c-1.001-10.214-8.19-29.965-8.19-29.965
							L161.884,262.07z"/>
					</defs>
					<clipPath id="SBS_SVGID_19_">
						<use xlink:href="#SBS_SVGID_18_"  overflow="visible"/>
					</clipPath>
					
						<radialGradient id="SBS_SVGID_20_" cx="126.3843" cy="774.5283" r="0.9712" gradientTransform="matrix(290.6473 0 0 -296.3149 -36612.75 229995.5781)" gradientUnits="userSpaceOnUse">
						<stop  offset="0" style="stop-color:#FFFFFF"/>
						<stop  offset="1" style="stop-color:#897F76"/>
					</radialGradient>
					<rect x="139.52" y="262.07" clip-path="url(#SBS_SVGID_19_)" fill="url(#SBS_SVGID_20_)" width="101.501" height="241.313"/>
				</g>
			</g>
		</g>
		<g opacity="0.06" clip-path="url(#SBS_SVGID_10_)">
			<g>
				<defs>
					<rect id="SBS_SVGID_21_" x="154.11" y="548.021" width="104.326" height="193.351"/>
				</defs>
				<clipPath id="SBS_SVGID_22_">
					<use xlink:href="#SBS_SVGID_21_"  overflow="visible"/>
				</clipPath>
				<g clip-path="url(#SBS_SVGID_22_)">
					<defs>
						<path id="SBS_SVGID_23_" d="M154.11,548.021c0,0,36.063,32.679,56.096,34.723c20.037,2.042,48.23,0.563,48.23,0.563
							s-5.021,36.358-7.426,46.124c-3.932,15.959-16.154,49.044-20.354,59.671c-2.111,5.346-9.056,26.185-9.056,26.185
							c-1.764,8.862-2.046,23.772-2.046,23.772l-10.407,2.313c0,0,2.063-21.78,3.063-33.015
							c1.002-11.235,13.023-55.148,17.03-63.317c4.007-8.17,10.018-38.807,10.018-38.807s-12.021,1.021-38.067-8.17
							c-26.044-9.193-33.057-25.534-39.067-33.703C156.114,556.192,154.11,548.021,154.11,548.021"/>
					</defs>
					<clipPath id="SBS_SVGID_24_">
						<use xlink:href="#SBS_SVGID_23_"  overflow="visible"/>
					</clipPath>
					
						<radialGradient id="SBS_SVGID_25_" cx="126.3442" cy="774.5449" r="0.9713" gradientTransform="matrix(225.6698 0 0 -230.0703 -28346.7734 178743.5156)" gradientUnits="userSpaceOnUse">
						<stop  offset="0" style="stop-color:#FFFFFF"/>
						<stop  offset="1" style="stop-color:#897F76"/>
					</radialGradient>
					<rect x="154.11" y="548.021" clip-path="url(#SBS_SVGID_24_)" fill="url(#SBS_SVGID_25_)" width="104.326" height="193.351"/>
				</g>
			</g>
		</g>
		<g opacity="0.75" clip-path="url(#SBS_SVGID_10_)">
			<g>
				<defs>
					<rect id="SBS_SVGID_26_" x="157.899" y="47.452" width="61.809" height="208.895"/>
				</defs>
				<clipPath id="SBS_SVGID_27_">
					<use xlink:href="#SBS_SVGID_26_"  overflow="visible"/>
				</clipPath>
				<g clip-path="url(#SBS_SVGID_27_)">
					<defs>
						<path id="SBS_SVGID_28_" d="M210.122,185.42c5.389-10.386,9.587-31.673,9.587-31.855c-15.748-30.915-20.181-68.549-24.328-92.536
							c-6.807-7.902-12.408-12.557-13.677-13.577l-0.359,0.214c0,0,15.637,54.616,5.113,117.913
							c-0.175,1.051-0.844,5.194-1.031,6.249c-2.598,14.592-6.363,26.755-8.859,36.953c-12.014,37.68-18.668,47.566-18.668,47.566
							l0.282-0.056C163.036,252.043,185.912,232.081,210.122,185.42"/>
					</defs>
					<clipPath id="SBS_SVGID_29_">
						<use xlink:href="#SBS_SVGID_28_"  overflow="visible"/>
					</clipPath>
					
						<linearGradient id="SBS_SVGID_30_" gradientUnits="userSpaceOnUse" x1="126.5166" y1="774.3555" x2="127.4876" y2="774.3555" gradientTransform="matrix(1.365 246.3947 246.3947 -1.365 -190781.7344 -30055.0625)">
						<stop  offset="0" style="stop-color:#FFFFFF"/>
						<stop  offset="0.2057" style="stop-color:#F7F6F5"/>
						<stop  offset="0.3937" style="stop-color:#E7E4E2"/>
						<stop  offset="0.575" style="stop-color:#D1CCC8"/>
						<stop  offset="0.7519" style="stop-color:#B6AFA9"/>
						<stop  offset="0.9241" style="stop-color:#978E86"/>
						<stop  offset="1" style="stop-color:#897F76"/>
					</linearGradient>
					<polygon clip-path="url(#SBS_SVGID_29_)" fill="url(#SBS_SVGID_30_)" points="219.707,47.109 220.865,256.341 157.901,256.689 
						156.742,47.458 					"/>
				</g>
			</g>
		</g>
		<g opacity="0.75" clip-path="url(#SBS_SVGID_10_)">
			<g>
				<defs>
					<rect id="SBS_SVGID_31_" x="319.579" y="54.721" width="57.804" height="203.024"/>
				</defs>
				<clipPath id="SBS_SVGID_32_">
					<use xlink:href="#SBS_SVGID_31_"  overflow="visible"/>
				</clipPath>
				<g clip-path="url(#SBS_SVGID_32_)">
					<defs>
						<path id="SBS_SVGID_33_" d="M343.867,62.644c-3.656,22.913-11.179,67.071-24.288,95.729c2.966,17.679,7.9,28.032,15.59,43.708
							c12.961,26.426,39.1,52.753,42.214,55.665c-1.626-3.253-22.383-37.922-35.371-81.643c-1.789-6.021-2.926-13.934-3.246-20.411
							c-1.911-38.579,10.589-98.739,10.589-98.739l-0.101-0.813C349.254,56.14,352.329,50.193,343.867,62.644"/>
					</defs>
					<clipPath id="SBS_SVGID_34_">
						<use xlink:href="#SBS_SVGID_33_"  overflow="visible"/>
					</clipPath>
					
						<linearGradient id="SBS_SVGID_35_" gradientUnits="userSpaceOnUse" x1="126.5156" y1="774.334" x2="127.4864" y2="774.334" gradientTransform="matrix(1.3412 242.1043 242.1043 -1.3412 -187290.9219 -29523.0586)">
						<stop  offset="0" style="stop-color:#FFFFFF"/>
						<stop  offset="0.2057" style="stop-color:#F7F6F5"/>
						<stop  offset="0.3937" style="stop-color:#E7E4E2"/>
						<stop  offset="0.575" style="stop-color:#D1CCC8"/>
						<stop  offset="0.7519" style="stop-color:#B6AFA9"/>
						<stop  offset="0.9241" style="stop-color:#978E86"/>
						<stop  offset="1" style="stop-color:#897F76"/>
					</linearGradient>
					<polygon clip-path="url(#SBS_SVGID_34_)" fill="url(#SBS_SVGID_35_)" points="377.381,49.874 378.532,257.739 319.581,258.065 
						318.429,50.2 					"/>
				</g>
			</g>
		</g>
	</g>
	<g clip-path="url(#SBS_SVGID_2_)">
		<defs>
			<rect id="SBS_SVGID_36_" x="93.5" y="23.897" width="349.5" height="733.95"/>
		</defs>
		<clipPath id="SBS_SVGID_37_">
			<use xlink:href="#SBS_SVGID_36_"  overflow="visible"/>
		</clipPath>
		<g clip-path="url(#SBS_SVGID_37_)">
			<g>
				<defs>
					<rect id="SBS_SVGID_38_" x="186.145" y="540" width="167.954" height="233"/>
				</defs>
				<clipPath id="SBS_SVGID_39_">
					<use xlink:href="#SBS_SVGID_38_"  overflow="visible"/>
				</clipPath>
				<g opacity="0.35" clip-path="url(#SBS_SVGID_39_)">
					<g>
						<defs>
							<rect id="SBS_SVGID_40_" x="186.145" y="540" width="167.954" height="233"/>
						</defs>
						<clipPath id="SBS_SVGID_41_">
							<use xlink:href="#SBS_SVGID_40_"  overflow="visible"/>
						</clipPath>
						<g clip-path="url(#SBS_SVGID_41_)">
							<defs>
								<rect id="SBS_SVGID_42_" x="186.145" y="540" width="167.954" height="233"/>
							</defs>
							<clipPath id="SBS_SVGID_43_">
								<use xlink:href="#SBS_SVGID_42_"  overflow="visible"/>
							</clipPath>
							<g clip-path="url(#SBS_SVGID_43_)">
							
							</g>
						</g>
					</g>
				</g>
				
					<path clip-path="url(#SBS_SVGID_39_)" fill="none" stroke="#897F76" stroke-width="0.25" stroke-miterlimit="10" stroke-dasharray="0.5,0.5" d="
					M294.169,643.204c-1.786-4.613-7.33-36.57-7.996-41.237c-1.321-9.245-6.57-28.52-6.57-28.52s-1.865,0-11.188,0.267
					c-9.322,0.266-9.805,1.577-9.805,1.577s-0.88,17.672-2.891,29.565c-0.854,5.046-4.367,30.685-15.561,59.352
					c-9.114,23.34-19.43,53.935-19.43,53.935l-0.942,21.096c5.792-0.986,8.031-1.938,8.031-1.938l1.107-21.877
					c0,0,9.107-27.309,14.4-38.492c5.302-11.186,14.065-44.742,16.42-56.517s6.288-37.083,6.288-37.083s2.086-1.786,4.43-1.661
					c4.386,0.235,6.099,2.58,6.099,2.58s3.156,11.228,5.817,31.745c2.451,18.903,8.314,39.641,11.183,47.574
					c3.067,8.479,11.326,31.146,12.221,34c0.947,3.021,5.187,18.265,5.187,18.265l1.587,20.082l7.405,0.981l-2.001-21.785
					C317.96,715.112,297.364,651.462,294.169,643.204z"/>
			</g>
		</g>
		<g opacity="0.75" clip-path="url(#SBS_SVGID_37_)">
			<g>
				<defs>
					<rect id="SBS_SVGID_44_" x="122.958" y="704.823" width="304.071" height="7.427"/>
				</defs>
				<clipPath id="SBS_SVGID_45_">
					<use xlink:href="#SBS_SVGID_44_"  overflow="visible"/>
				</clipPath>
				
					<path clip-path="url(#SBS_SVGID_45_)" fill="none" stroke="#897F76" stroke-width="0.5" stroke-miterlimit="10" stroke-dasharray="5,2" d="
					M122.989,705.064c32.26,4.074,77.534,4.074,109.794,0"/>
				
					<path clip-path="url(#SBS_SVGID_45_)" fill="none" stroke="#897F76" stroke-width="0.5" stroke-miterlimit="10" stroke-dasharray="5,2" d="
					M122.989,708.95c32.26,4.076,75.592,4.076,107.851,0"/>
				
					<path clip-path="url(#SBS_SVGID_45_)" fill="none" stroke="#897F76" stroke-width="0.5" stroke-miterlimit="10" stroke-dasharray="5,2" d="
					M308.33,705.064c33.594,4.074,85.077,4.074,118.671,0"/>
				
					<path clip-path="url(#SBS_SVGID_45_)" fill="none" stroke="#897F76" stroke-width="0.5" stroke-miterlimit="10" stroke-dasharray="5,2" d="
					M309.301,708.95c33.596,4.076,84.106,4.076,117.7,0"/>
			</g>
		</g>
	</g>
	<g clip-path="url(#SBS_SVGID_2_)">
		<defs>
			<rect id="SBS_SVGID_46_" x="93.5" y="23.897" width="349.5" height="733.95"/>
		</defs>
		<clipPath id="SBS_SVGID_47_">
			<use xlink:href="#SBS_SVGID_46_"  overflow="visible"/>
		</clipPath>
    <g id="TRIM">
		<path clip-path="url(#SBS_SVGID_47_)" fill="#FFFFFF" d="M191.271,41.911c0,0,2.17-3.088,6.498-2.223
			c3.038,0.607,40.682,38.085,72.49,37.653c33.15-0.452,66.532-35.579,69.246-36.354c4.543-1.299,5.804,3.056,5.804,3.056
			s-3.424,2.787-8.834,7.763c-5.409,4.978-37.436,35.271-72.707,31.811C224.168,79.729,191.271,41.911,191.271,41.911"/>
		<path clip-path="url(#SBS_SVGID_47_)" fill="none" stroke="#897F76" stroke-width="0.5" stroke-dasharray="1,0.75" d="M191.271,41.911
			c0,0,2.17-3.088,6.498-2.223c3.038,0.607,40.682,38.085,72.49,37.653c33.15-0.452,66.532-35.579,69.246-36.354
			c4.543-1.299,5.804,3.056,5.804,3.056s-3.424,2.787-8.834,7.763c-5.409,4.978-37.436,35.271-72.707,31.811
			C224.168,79.729,191.271,41.911,191.271,41.911z"/>
		<path clip-path="url(#SBS_SVGID_47_)" fill="#FFFFFF" d="M317.321,140.489c0.208,2.335,0.231,5.452,0.529,8.474
			c0.357,3.62,0.9,7.264,1.483,10.01c15.684-34.657,21.046-75.033,24.768-96.741c-3.703,4.521-6.095,8.551-9.994,15.432
			C330.12,97.761,325.563,117.463,317.321,140.489"/>
		<path clip-path="url(#SBS_SVGID_47_)" fill="none" stroke="#897F76" stroke-width="0.5" stroke-dasharray="1,0.75" d="
			M317.321,140.489c0.208,2.335,0.231,5.452,0.529,8.474c0.357,3.62,0.9,7.264,1.483,10.01
			c15.684-34.657,21.046-75.033,24.768-96.741c-3.703,4.521-6.095,8.551-9.994,15.432
			C330.12,97.761,325.563,117.463,317.321,140.489z"/>
		<path clip-path="url(#SBS_SVGID_47_)" fill="#FFFFFF" d="M202.261,75.43c-2.516-4.351-7.22-11.543-9.673-14.123
			c2.211,14.531,5.604,33.273,9.321,46.613c2.758,9.896,5.873,24.143,17.771,45.504c1.268-5.662,1.318-9.395,1.742-14.708
			C210.198,110.849,207.149,96.83,202.261,75.43"/>
		<path clip-path="url(#SBS_SVGID_47_)" fill="none" stroke="#897F76" stroke-width="0.5" stroke-dasharray="1,0.75" d="M202.261,75.43
			c-2.516-4.351-7.22-11.543-9.673-14.123c2.211,14.531,5.604,33.273,9.321,46.613c2.758,9.896,5.873,24.143,17.771,45.504
			c1.268-5.662,1.318-9.395,1.742-14.708C210.198,110.849,207.149,96.83,202.261,75.43z"/>
		<path clip-path="url(#SBS_SVGID_47_)" fill="#FFFFFF" d="M358.714,46.669c0,0-14.222,86.431-11.974,110.999
			c3.955,43.239,50.271,119.374,50.271,119.374l-6.261,3.922c0,0-50.758-83.369-51.953-123.738
			c-1.294-43.688,12.797-112.821,12.797-112.821L358.714,46.669z"/>
		<path clip-path="url(#SBS_SVGID_47_)" fill="none" stroke="#897F76" stroke-width="0.5" stroke-dasharray="1,0.75" d="M358.714,46.669
			c0,0-14.222,86.431-11.974,110.999c3.955,43.239,50.271,119.374,50.271,119.374l-6.261,3.922c0,0-50.758-83.369-51.953-123.738
			c-1.294-43.688,12.797-112.821,12.797-112.821L358.714,46.669z"/>
		<path clip-path="url(#SBS_SVGID_47_)" fill="#FFFFFF" d="M358.319,46.528c0,0-3.752-2.8-6.14-2.534
			c-2.389,0.265-88.384,76.143-12.059,181.805c28.919,40.033,54.241,58.031,54.241,58.031s3.185-1.327,3.715-2.918
			c0.53-1.592-1.592-4.775-1.592-4.775s-90.126-74.253-78.095-151.654C326.54,72.06,358.319,46.528,358.319,46.528"/>
		<path clip-path="url(#SBS_SVGID_47_)" fill="none" stroke="#897F76" stroke-width="0.5" stroke-dasharray="1,0.75" d="M358.319,46.528
			c0,0-3.752-2.8-6.14-2.534c-2.389,0.265-88.384,76.143-12.059,181.805c28.919,40.033,54.241,58.031,54.241,58.031
			s3.185-1.327,3.715-2.918c0.53-1.592-1.592-4.775-1.592-4.775s-90.126-74.253-78.095-151.654
			C326.54,72.06,358.319,46.528,358.319,46.528z"/>
		<path clip-path="url(#SBS_SVGID_47_)" fill="#FFFFFF" d="M178.825,164.583C163.417,239.907,137.04,277.08,137.04,277.08
			s7.993-0.825,9.208-1.736c1.216-0.911,27.412-36.004,39.804-106.468c11.254-63.981-1.294-122.972-1.294-122.972l-6.508,0.604
			C178.25,46.507,187.309,123.107,178.825,164.583"/>
		<path clip-path="url(#SBS_SVGID_47_)" fill="none" stroke="#897F76" stroke-width="0.5" stroke-dasharray="1,0.75" d="
			M178.825,164.583C163.417,239.907,137.04,277.08,137.04,277.08s7.993-0.825,9.208-1.736c1.216-0.911,27.412-36.004,39.804-106.468
			c11.254-63.981-1.294-122.972-1.294-122.972l-6.508,0.604C178.25,46.507,187.309,123.107,178.825,164.583z"/>
		<path clip-path="url(#SBS_SVGID_47_)" fill="#FFFFFF" d="M178.25,46.508c0,0,3.912-2.777,6.401-2.513
			c2.49,0.263,92.137,75.54,12.57,180.363c-30.146,39.717-56.544,57.572-56.544,57.572s-3.32-1.315-3.872-2.895
			c-0.554-1.579,1.659-4.737,1.659-4.737s93.952-73.666,81.411-150.451C211.38,71.838,178.25,46.508,178.25,46.508"/>
		<path clip-path="url(#SBS_SVGID_47_)" fill="none" stroke="#897F76" stroke-width="0.5" stroke-dasharray="1,0.75" d="M178.25,46.508
			c0,0,3.912-2.777,6.401-2.513c2.49,0.263,92.137,75.54,12.57,180.363c-30.146,39.717-56.544,57.572-56.544,57.572
			s-3.32-1.315-3.872-2.895c-0.554-1.579,1.659-4.737,1.659-4.737s93.952-73.666,81.411-150.451
			C211.38,71.838,178.25,46.508,178.25,46.508z"/>
	</g>
  </g>
</g>
</svg>
