<?xml version="1.0" encoding="utf-8"?>
<!-- Generator: Adobe Illustrator 15.0.0, SVG Export Plug-In . SVG Version: 6.00 Build 0)  -->
<!DOCTYPE svg PUBLIC "-//W3C//DTD SVG 1.1//EN" "http://www.w3.org/Graphics/SVG/1.1/DTD/svg11.dtd">
<svg version="1.1" id="Layer_1" xmlns="http://www.w3.org/2000/svg" xmlns:xlink="http://www.w3.org/1999/xlink" x="0px" y="0px"
	 width="612px" height="792px" viewBox="0 0 612 992" enable-background="new 0 0 612 992" xml:space="preserve">
<g>
	<defs>
		<rect id="SVGID_1_" width="612" height="792"/>
	</defs>
	<clipPath id="SVGID_2_">
		<use xlink:href="#SVGID_1_"  overflow="visible"/>
	</clipPath>
	<g id="BODY" clip-path="url(#SVGID_2_)">
		<defs>
			<rect id="SVGID_3_" width="612" height="792"/>
		</defs>
		<clipPath id="SVGID_4_">
			<use xlink:href="#SVGID_3_"  overflow="visible"/>
		</clipPath>
		<path clip-path="url(#SVGID_4_)" fill="#00AB5D" d="M582.088,482.653c-0.24-15.116-2.879-47.988-5.038-58.305
			c-2.16-10.315-8.637-40.064-11.276-55.663c-2.641-15.595-6.239-46.785-6.719-48.225c-0.479-1.439-6.238-23.272-8.396-28.071
			c-2.159-4.798-12.238-35.749-12.718-37.189c-0.479-1.439-5.518-17.994-5.758-20.153c-0.241-2.16-6.479-20.155-7.198-23.034
			c-0.719-2.88-1.438-17.755-1.918-20.395c-0.481-2.638-2.641-19.434-3.361-23.511c-0.721-4.079-3.117-13.676-3.837-15.116
			c-0.72-1.441-1.439-6.479-1.439-7.918s0.479-3.36,0.24-4.56c-0.24-1.199-1.201-3.358-1.201-4.797c0-1.44,1.44-6.239,0.961-8.638
			c-0.48-2.399-2.4-4.799-2.4-9.358s0.96-8.268,0.96-8.268S472.64,86.69,277.349,85.305c-195.29-1.385-180.032,25.03-180.032,25.03
			l0.045,0.107c-0.407,0.867-0.786,2.147-0.703,2.509c0.142,0.639,0.212,5.885-0.141,8.011c-0.355,2.125-0.853,5.316-1.347,6.592
			c-0.495,1.275-0.214,8.645-0.214,10.064c0,1.418,0.214,5.81,0.283,6.306c0.071,0.497,0.354,5.104-0.423,7.16
			c-0.779,2.055-0.994,2.48-0.994,2.48l-4.254,16.444c0,0-1.913,2.694-2.339,6.592c-0.424,3.898-0.424,6.734-0.424,6.734
			s-1.134,2.979-1.134,5.104c0,2.127,0.142,4.536,0.142,4.536s-0.355,5.175-1.133,9.357c-0.781,4.181-1.277,7.655-1.277,7.655
			s-1.983,6.873-2.126,8.292s-0.639,8.86-0.92,10.916c-0.287,2.056-2.551,13.891-3.899,19.42
			c-1.347,5.529-12.615,42.573-16.456,55.531c-3.841,12.955-11.036,34.069-11.517,37.428c-0.481,3.357-7.437,44.147-8.156,49.904
			c-0.72,5.759-8.88,59.74-9.6,65.021c-0.72,5.281-0.959,31.435-0.239,49.667c0.721,18.234,2.16,44.63,3.6,53.026
			c1.438,8.396,4.795,33.347,5.276,35.984c0.481,2.641,2.403,14.637,2.403,16.557s0.718,8.877,0.718,9.837s-0.481,4.321-0.481,4.321
			s-1.202,2.635-0.48,3.838c0.72,1.199,2.402,2.162,2.402,3.121c0,0.957-0.72,2.88-0.72,2.88v4.074
			c0,0.964,0.72,14.157,1.677,15.596c0.958,1.439,1.681,3.361,4.801,4.081c3.118,0.719,16.316,2.88,26.631,3.598
			c10.317,0.721,50.627,5.52,86.374,1.44s63.1-12.475,63.1-12.475s1.661-0.153,3.187-0.335c-0.15-3.755-0.308-7.857-0.308-8.426
			c0-1.082,2.878-5.759,3.6-7.197c0.719-1.439,0-3.599-1.08-5.04c-1.081-1.438-0.359-3.599,1.08-5.398
			c1.441-1.799,1.08-5.039,1.08-5.039l-1.441-2.52c0,0,4.678-15.835,5.038-20.874c0.362-5.037,8.278-39.228,13.316-59.38
			c5.039-20.156,8.638-56.504,29.871-77.379c13.474-13.246,45.707-16.916,60.823-12.234c15.115,4.678,17.274,24.832,20.873,39.227
			s19.075,91.773,20.515,98.971c1.149,5.743,5.074,41.963,6.613,56.371c1.832,0.02,3.825-0.104,3.825-0.104
			s21.113,6.953,42.706,10.073c21.595,3.122,65.502,5.76,90.453,2.88c24.953-2.88,34.311-5.277,36.471-5.997
			c2.158-0.72,3.599-1.921,4.318-3.6s0.72-5.038,0.72-5.038s3.601-22.074,3.839-24.472c0.239-2.398,2.64-21.595,2.64-22.313
			c0-0.721,0.959-7.919,1.199-9.597c0.239-1.679,3.599-31.433,3.599-33.83S582.328,497.767,582.088,482.653"/>
	</g>
	<g id="CROTCH" clip-path="url(#SVGID_2_)">
		<defs>
			<rect id="SVGID_5_" width="612" height="792"/>
		</defs>
		<clipPath id="SVGID_6_">
			<use xlink:href="#SVGID_5_"  overflow="visible"/>
		</clipPath>
		<path clip-path="url(#SVGID_6_)" fill="#004D86" d="M361.831,487.448c-3.599-14.396-5.758-34.549-20.873-39.227
			c-15.116-4.682-47.349-1.012-60.823,12.234c-21.233,20.875-24.832,57.222-29.871,77.379c-5.038,20.152-12.954,54.342-13.316,59.38
			c-0.36,5.039-5.038,20.874-5.038,20.874l1.441,2.52c0,0,0.36,3.24-1.081,5.039c-1.439,1.8-2.16,3.96-1.079,5.398
			c1.079,1.441,1.799,3.601,1.079,5.04c-0.721,1.438-3.6,6.115-3.6,7.197c0,0.568,0.159,4.671,0.309,8.426
			c0.396-0.048,0.784-0.097,1.131-0.146c1.683-0.239,6.721-3.117,7.441-4.318c0.719-1.201,2.88-4.558,2.88-4.558l0.476-2.401v-2.638
			c0,0,1.919-8.638,2.161-9.358c0.242-0.719,1.197-3.116,1.439-4.315c0.241-1.203,0.241-3.601,0.241-3.601l1.441-1.92
			c0,0,0.719-3.604,0.719-4.801s0-3.356,0.239-4.559c0.239-1.2,6-12.954,8.397-18.714c2.399-5.757,15.837-41.748,18.717-50.145
			c2.877-8.397,11.274-37.669,12.475-42.469c1.199-4.798,7.194-27.59,7.437-30.95c0.241-3.36,3.359-14.158,3.359-14.158
			l14.156-4.317c0,0,15.357,72.459,22.313,94.054c6.956,21.594,18.473,49.187,18.473,49.187s-0.239,2.638,0.721,4.796
			c0.96,2.16,5.278,11.036,5.999,13.678c0.719,2.639,3.119,11.754,3.119,11.754s-1.202,6.479,2.158,9.838
			c3.36,3.361,7.201,5.518,11.036,6.48c3.841,0.96,7.919,1.92,7.919,1.92s1.68,2.399,3.6,2.64c0.536,0.066,1.223,0.096,1.933,0.104
			c-1.539-14.407-5.464-50.628-6.613-56.371C380.906,579.222,365.43,501.843,361.831,487.448"/>
	</g>
	<g id="SIDE_STRIPS_COLOR_1" clip-path="url(#SVGID_2_)">
		<defs>
			<rect id="SVGID_7_" width="612" height="792"/>
		</defs>
		<clipPath id="SVGID_8_">
			<use xlink:href="#SVGID_7_"  overflow="visible"/>
		</clipPath>
		<path clip-path="url(#SVGID_8_)" fill="#BF2A43" d="M89.533,664.225c0.011,0.13,0.023,0.257,0.033,0.394
			c-12.202-0.571-21.58-1.175-26.394-1.379c-2.309-0.097-4.72-0.228-7.16-0.383c-0.042-0.312-0.083-0.623-0.126-0.938l-0.008-1.293
			c5.586,0.896,13.563,1.982,20.308,2.452C78.842,663.264,83.494,663.72,89.533,664.225"/>
		<path clip-path="url(#SVGID_8_)" fill="#BF2A43" d="M55.912,653.867c0.144,1.894,0.25,3.666,0.436,5.696
			C56.518,657.151,56.275,655.133,55.912,653.867c-0.031-0.41-0.054-0.797-0.085-1.203l-0.231-35.729
			c0.532,0.767,0.916,2.372,1.197,6.789c1.044-7.837-0.501-19.219-1.355-31.152l-0.097-14.905l0.481,0.713l-0.497-3.294
			l-0.034-5.128l0.916-0.324c0.163-11.584,0.104-25.064-1.144-34.921l-0.075-11.625c0.378-0.049,0.785,0.836,1.226,3.79
			c-0.571-4.055-0.981-8.387-1.285-12.878l-0.656-101.247c0.066-0.053,0.145-0.237,0.243-0.613l-0.051,13.9l0.91-9.765l-0.794-5.625
			c-0.089-3.604-0.226-7.458-0.396-11.51l-0.123-19.014c0.022-0.198,0.043-0.397,0.065-0.581l1.143,19.719l1.001-32.372
			c0.495,0.689,0.996,0.62,1.445,0.698l0.25,0.066c0.54,0.209,0.989,0.915,1.244,3.916c0.181,40.833-4.235,58.124-2.848,100.574
			c2.591,4.554,0.082,21.539,1.957,32.544c-4.296,29.796,0.026,79.23-0.442,108.435c5.744-42.753,5.472-105.099,6.043-159.132
			c0.519,1.337,1.044,0.459,1.201,3.931c1.949-51.194,0.622-109.516,3.941-155.552l-0.693-0.316
			c-0.093-19.261,2.337-18.182,3.095-33.689c-0.702,1.936-1.089,10.851-2.29,6.89c-0.014-0.537-0.016-1.247-0.008-2.103
			c2.137-7.136,4.143-13.881,5.508-18.6c-0.017,0.232-0.035,0.473-0.054,0.728c1.513,13.073,5.334,14.779,2.971,39.743
			c-1.914,0.295-0.64-13.84-2.433-1.045c5.692,12.654,7.574,63.269,10.129,76.854l-2.43-1.082
			c-0.244,16.854,3.015,28.506,2.631,37.378c-2.702,22.571,3.404,61.5-1.872,75.001l2.048,9.926l-1.607,9.49l1.569-0.445
			c0.021,37.36-8.544,4.152-7.846,46.326c1.052-1.79,2.108-3.615,2.649-9.019c1.381,2.867,0.983,14.001,0.424,23.979l2.428,1.036
			c0.323,6.915-0.911,9.809-1.439,12.969c4.053-12.945,2.505,24.833,4.06,28.923l-2.439-1.048c2.428,3.304,3.09,10.395,4.615,21.27
			l-2.627,4.487c1.027,4.962,2.714,17.024,0.775,21.845l3.837-0.588c-1.376,8.12-0.826,9.528-0.529,12.941
			c-6.039-0.504-10.692-0.961-13.347-1.146c-6.745-0.47-14.722-1.556-20.309-2.452l-0.045-7.01L55.912,653.867z"/>
		<path clip-path="url(#SVGID_8_)" fill="#BF2A43" d="M77.388,258.755c-1.122,5.24-1.489-3.72-1.888-7.084
			c0.386-1.369,0.674-2.426,0.827-3.057c0.192-0.788,0.403-1.706,0.624-2.703C76.832,249.17,76.916,253.171,77.388,258.755"/>
		<polygon clip-path="url(#SVGID_8_)" fill="#BF2A43" points="63.929,567.404 63.387,550.382 63.601,550.86 		"/>
		<path clip-path="url(#SVGID_8_)" fill="#BF2A43" d="M43.256,631.793c0.084,0.096,0.161,0.191,0.229,0.286
			c0.026,0.035,0.048,0.07,0.071,0.105c0.051,0.079,0.094,0.158,0.13,0.236c0.015,0.034,0.032,0.068,0.045,0.102
			c0.039,0.109,0.067,0.218,0.067,0.327c0,0.16-0.026,0.353-0.06,0.554c-0.007,0.048-0.016,0.097-0.025,0.146
			c-0.039,0.199-0.084,0.404-0.138,0.61c-0.175-0.621-0.29-1.436-0.356-2.412C43.233,631.763,43.243,631.778,43.256,631.793"/>
		<path clip-path="url(#SVGID_8_)" fill="#BF2A43" d="M43.712,633.55c0.009-0.05,0.018-0.099,0.026-0.146
			C43.73,633.452,43.722,633.499,43.712,633.55"/>
		<path clip-path="url(#SVGID_8_)" fill="#BF2A43" d="M43.797,632.85c0-0.109-0.027-0.218-0.067-0.327
			C43.771,632.632,43.797,632.74,43.797,632.85"/>
		<path clip-path="url(#SVGID_8_)" fill="#BF2A43" d="M43.686,632.421c-0.036-0.078-0.079-0.157-0.13-0.236
			C43.607,632.264,43.65,632.343,43.686,632.421"/>
		<path clip-path="url(#SVGID_8_)" fill="#BF2A43" d="M43.219,631.748"/>
		<path clip-path="url(#SVGID_8_)" fill="#BF2A43" d="M43.485,632.079c-0.068-0.095-0.145-0.19-0.229-0.286
			C43.34,631.889,43.417,631.984,43.485,632.079"/>
		<path clip-path="url(#SVGID_8_)" fill="#BF2A43" d="M42.892,637.722l0.186-0.354v2.158
			C42.993,638.85,42.928,638.212,42.892,637.722"/>
		<path clip-path="url(#SVGID_8_)" fill="#BF2A43" d="M61.106,626.474c-0.01-0.066-0.019-0.142-0.025-0.233L61.106,626.474z"/>
		<polyline clip-path="url(#SVGID_8_)" fill="#BF2A43" points="44.174,653.074 44.175,653.084 44.174,653.074 		"/>
		<path clip-path="url(#SVGID_8_)" fill="#BF2A43" d="M46.719,351.533c-0.015,0.09-0.03,0.179-0.045,0.27
			C46.689,351.712,46.704,351.623,46.719,351.533"/>
		<path clip-path="url(#SVGID_8_)" fill="#BF2A43" d="M46.995,349.879c-0.012,0.071-0.023,0.142-0.036,0.213
			C46.972,350.021,46.982,349.95,46.995,349.879"/>
		<path clip-path="url(#SVGID_8_)" fill="#BF2A43" d="M47.252,348.334c-0.01,0.062-0.021,0.127-0.032,0.189
			C47.231,348.461,47.242,348.396,47.252,348.334"/>
		<path clip-path="url(#SVGID_8_)" fill="#BF2A43" d="M47.938,344.182c-0.021,0.125-0.04,0.243-0.061,0.375
			C47.898,344.426,47.918,344.306,47.938,344.182"/>
		<path clip-path="url(#SVGID_8_)" fill="#BF2A43" d="M43.514,370.746c-0.022,0.132-0.044,0.264-0.065,0.396
			C43.47,371.01,43.492,370.878,43.514,370.746"/>
		<path clip-path="url(#SVGID_8_)" fill="#BF2A43" d="M44.259,653.592c0.007,0.04,0.014,0.077,0.021,0.116
			C44.273,653.669,44.266,653.632,44.259,653.592"/>
		<path clip-path="url(#SVGID_8_)" fill="#BF2A43" d="M43.855,368.693c-0.039,0.23-0.077,0.461-0.115,0.69
			C43.778,369.153,43.816,368.923,43.855,368.693"/>
		<polyline clip-path="url(#SVGID_8_)" fill="#BF2A43" points="44,651.824 44,651.824 44,651.826 44,651.824 		"/>
		<path clip-path="url(#SVGID_8_)" fill="#BF2A43" d="M43.797,632.85c0,0.16-0.025,0.353-0.059,0.554
			C43.772,633.202,43.797,633.01,43.797,632.85"/>
		<path clip-path="url(#SVGID_8_)" fill="#BF2A43" d="M46.08,355.358c-0.002,0.013-0.004,0.026-0.006,0.039
			C46.076,355.384,46.078,355.371,46.08,355.358"/>
		<path clip-path="url(#SVGID_8_)" fill="#BF2A43" d="M43.575,634.16c0.054-0.206,0.099-0.411,0.138-0.61
			C43.674,633.749,43.629,633.953,43.575,634.16"/>
		<path clip-path="url(#SVGID_8_)" fill="#BF2A43" d="M48.085,343.281c-0.019,0.115-0.038,0.233-0.058,0.357
			C48.047,343.513,48.066,343.397,48.085,343.281"/>
		<path clip-path="url(#SVGID_8_)" fill="#BF2A43" d="M43.184,372.741l-0.009,0.054L43.184,372.741z"/>
		<path clip-path="url(#SVGID_8_)" fill="#BF2A43" d="M60.081,661.267c-0.01-0.002-0.02-0.003-0.03-0.005
			C60.061,661.264,60.071,661.265,60.081,661.267"/>
		<path clip-path="url(#SVGID_8_)" fill="#BF2A43" d="M51.619,659.896c0.025,0.005,0.048,0.01,0.073,0.014
			C51.667,659.905,51.644,659.9,51.619,659.896"/>
		<path clip-path="url(#SVGID_8_)" fill="#BF2A43" d="M44.627,655.131c0.01,0.026,0.021,0.057,0.031,0.081
			C44.648,655.188,44.637,655.157,44.627,655.131"/>
		<path clip-path="url(#SVGID_8_)" fill="#BF2A43" d="M50.151,659.609c0.035,0.008,0.065,0.014,0.101,0.021
			C50.216,659.623,50.186,659.617,50.151,659.609"/>
		<path clip-path="url(#SVGID_8_)" fill="#BF2A43" d="M44.529,654.831c0.011,0.04,0.023,0.081,0.034,0.117
			C44.552,654.912,44.54,654.871,44.529,654.831"/>
		<path clip-path="url(#SVGID_8_)" fill="#BF2A43" d="M44.347,654.061c0.009,0.048,0.019,0.093,0.028,0.139
			C44.366,654.153,44.355,654.108,44.347,654.061"/>
		<path clip-path="url(#SVGID_8_)" fill="#BF2A43" d="M48.202,342.559c-0.01,0.066-0.022,0.139-0.034,0.21
			C48.18,342.698,48.192,342.625,48.202,342.559"/>
		<path clip-path="url(#SVGID_8_)" fill="#BF2A43" d="M48.295,341.966c-0.008,0.05-0.018,0.113-0.026,0.168
			C48.277,342.079,48.288,342.015,48.295,341.966"/>
		<path clip-path="url(#SVGID_8_)" fill="#BF2A43" d="M44.436,654.476c0.011,0.047,0.022,0.092,0.033,0.136
			C44.458,654.567,44.447,654.522,44.436,654.476"/>
		<path clip-path="url(#SVGID_8_)" fill="#BF2A43" d="M62.398,295.689c-0.072,0.24-0.146,0.486-0.217,0.721
			C62.252,296.174,62.326,295.93,62.398,295.689"/>
		<path clip-path="url(#SVGID_8_)" fill="#BF2A43" d="M50.438,659.668c0.082,0.017,0.16,0.032,0.248,0.05
			C50.598,659.7,50.52,659.685,50.438,659.668"/>
		<path clip-path="url(#SVGID_8_)" fill="#BF2A43" d="M41.521,610.267c-0.137-1.234-0.381-3.012-0.663-4.928
			C41.141,607.257,41.383,609.032,41.521,610.267"/>
		<path clip-path="url(#SVGID_8_)" fill="#BF2A43" d="M41.397,383.647c-0.049,0.308-0.097,0.604-0.145,0.9
			C41.3,384.251,41.349,383.956,41.397,383.647"/>
		<path clip-path="url(#SVGID_8_)" fill="#BF2A43" d="M43.219,631.748c0.014,0.015,0.024,0.03,0.037,0.045
			C43.243,631.778,43.233,631.763,43.219,631.748"/>
		<path clip-path="url(#SVGID_8_)" fill="#BF2A43" d="M40.351,601.992c0.172,1.109,0.345,2.247,0.506,3.341
			C40.696,604.24,40.523,603.101,40.351,601.992"/>
		<path clip-path="url(#SVGID_8_)" fill="#BF2A43" d="M41.161,385.125c-0.069,0.435-0.136,0.854-0.199,1.256
			C41.024,385.979,41.092,385.559,41.161,385.125"/>
		<path clip-path="url(#SVGID_8_)" fill="#BF2A43" d="M39.054,399.522L39.054,399.522c-0.213,1.461-0.449,3.063-0.703,4.782
			C38.604,402.588,38.841,400.982,39.054,399.522"/>
		<path clip-path="url(#SVGID_8_)" fill="#BF2A43" d="M39.733,598.111c0.035,0.21,0.07,0.428,0.106,0.65
			C39.803,598.539,39.767,598.321,39.733,598.111"/>
		<path clip-path="url(#SVGID_8_)" fill="#BF2A43" d="M39.864,598.915c0.032,0.196,0.064,0.396,0.097,0.601
			C39.928,599.311,39.896,599.111,39.864,598.915"/>
		<path clip-path="url(#SVGID_8_)" fill="#BF2A43" d="M40.096,600.367c0.083,0.526,0.168,1.069,0.254,1.619
			C40.264,601.437,40.179,600.894,40.096,600.367"/>
		<path clip-path="url(#SVGID_8_)" fill="#BF2A43" d="M39.975,599.606c0.037,0.229,0.074,0.462,0.112,0.699
			C40.049,600.069,40.012,599.835,39.975,599.606"/>
		<path clip-path="url(#SVGID_8_)" fill="#BF2A43" d="M41.643,382.132c-0.045,0.276-0.089,0.547-0.132,0.816
			C41.554,382.679,41.598,382.409,41.643,382.132"/>
		<path clip-path="url(#SVGID_8_)" fill="#BF2A43" d="M42.155,378.986c-0.032,0.194-0.064,0.391-0.095,0.582
			C42.091,379.376,42.124,379.18,42.155,378.986"/>
		<path clip-path="url(#SVGID_8_)" fill="#BF2A43" d="M41.907,380.504c-0.043,0.262-0.085,0.522-0.127,0.779
			C41.822,381.026,41.864,380.766,41.907,380.504"/>
		<path clip-path="url(#SVGID_8_)" fill="#BF2A43" d="M43.686,632.421c0.015,0.034,0.032,0.068,0.044,0.102
			C43.718,632.489,43.701,632.455,43.686,632.421"/>
		<path clip-path="url(#SVGID_8_)" fill="#BF2A43" d="M43.485,632.079c0.025,0.035,0.047,0.07,0.07,0.105
			C43.532,632.149,43.511,632.114,43.485,632.079"/>
		<path clip-path="url(#SVGID_8_)" fill="#BF2A43" d="M42.918,374.346c-0.038,0.227-0.074,0.45-0.111,0.675
			C42.845,374.796,42.88,374.573,42.918,374.346"/>
		<path clip-path="url(#SVGID_8_)" fill="#BF2A43" d="M38.646,551.104c0.957,3.24,0.841,11.388,2.099,12.174
			c0.665-12.381-1.811-27.237-3.046-41.636v-2.351l1.399,2.361c-1.421-12.788,0.595-5.031,0.048-18.889
			c-0.196,0.568-0.781,2.437-0.774-0.75c0.124-11.278,1.358-1.119,1.764-8.586c-2.483-14.14,1.659-6.741,0.343-24.513l0.58,1.319
			c-1.031-13.938,1.236-31.98,1.562-46.973c-0.392,1.173-0.028,12.499-1.574,11.116l-0.442-18.943
			c0.392-1.173,0.507-9.336,1.367-4.234c0.187,2.562-0.106,5.071-0.21,6.899l0.78-2.47c-0.828-17.646-2.326,1.048-3.776,0.891
			c0.297-5.508-0.078-8.919-0.435-12.074c0.007-0.049,0.014-0.093,0.021-0.142c0.253-1.719,0.489-3.321,0.703-4.782
			c0.551,3.017,0.978,7.246,1.97,2.146c0.402-2.857,0.308-9.028-0.071-15.24c0.003-0.015,0.005-0.033,0.008-0.048
			c0.063-0.402,0.13-0.821,0.199-1.256c0.03-0.187,0.062-0.385,0.092-0.577c0.048-0.296,0.096-0.592,0.145-0.9
			c0.037-0.229,0.075-0.464,0.113-0.7c0.043-0.268,0.087-0.539,0.132-0.816c0.045-0.279,0.091-0.562,0.138-0.849
			c0.041-0.256,0.084-0.516,0.127-0.779c0.05-0.31,0.1-0.619,0.153-0.936c0.031-0.191,0.063-0.388,0.095-0.582
			c0.208-1.274,0.427-2.601,0.652-3.965c0.037-0.225,0.073-0.448,0.111-0.675c0.084-0.513,0.17-1.029,0.256-1.551l0.009-0.054
			c0.088-0.529,0.176-1.063,0.265-1.599c0.022-0.132,0.044-0.264,0.066-0.395c0.075-0.454,0.15-0.908,0.226-1.363
			c0.038-0.23,0.076-0.46,0.115-0.691c0.755-4.545,1.529-9.171,2.218-13.296c0.002-0.013,0.005-0.026,0.007-0.039
			c0.207-1.237,0.405-2.424,0.593-3.554c0.015-0.091,0.03-0.18,0.045-0.27c0.083-0.493,0.163-0.973,0.24-1.441
			c0.013-0.072,0.024-0.143,0.036-0.214c0.078-0.466,0.153-0.918,0.226-1.355c0.01-0.063,0.021-0.128,0.031-0.19
			c0.242-1.449,0.453-2.727,0.626-3.777c0.021-0.132,0.04-0.25,0.061-0.375c0.031-0.188,0.061-0.372,0.089-0.544
			c0.02-0.123,0.039-0.242,0.058-0.357c0.03-0.183,0.057-0.353,0.082-0.512c0.012-0.071,0.024-0.144,0.034-0.21
			c0.026-0.158,0.048-0.296,0.068-0.425c0.008-0.055,0.018-0.118,0.026-0.168c0.024-0.159,0.045-0.295,0.059-0.392
			c0.48-3.359,7.676-24.473,11.516-37.428c0.607-2.048,1.401-4.702,2.311-7.735c0.071-0.235,0.145-0.481,0.217-0.721
			c0.502-1.674,1.034-3.444,1.591-5.296c1.033,2.566-0.083,10.704,0.447,17.957c-1.456,2.995-1.123-15.238-2.104-9.087
			c0.354,14.548,3.017,34.271,2.485,53.107c-0.575-1.315-0.663-5.728-0.948-6.385c0.153,4.332,0.651,9.071,1.144,13.775v20.526
			c-0.707-5.182-1.444-10.924-2.111-16.356c-0.01-1.639-0.178-2.648-0.413-3.474c-0.491-4.103-0.937-7.995-1.242-10.947
			c-0.522,7.99,0.59,8.68,1.242,10.947l0.413,3.474c0.01,1.602-0.13,3.773-0.543,7.078l-1.055-4.505
			c-0.329,15.094,2.295,11.539,3.627,19.897l-1.47,9.273c-0.831,15.482-0.115,30.064,1.552,40.734l0.002,13.88
			c-0.203,0.997-0.491,1.111-0.909-0.468c-1.817-8.375-3.064-12.255-3.125-29.276c1.266-2.382,1.424,12.718,1.534,7.703
			c-0.276-6.955,0.72-19.459-0.426-25.191l0.15,18.236c-1.938-0.177-0.08-7.56-1.036-10.789c-1.562,4.899,0.155,15.111-0.733,22.584
			l-0.093-1.241c0.352,14.453-0.031,12.555,0.808,27.046c1.737,0.818,1.076-4.907,1.771-11.752
			c0.042,23.33,3.347,55.115,0.295,78.662l-1.514-13.979c-0.311,8.767,1.301,24.014-0.928,23.178
			c0.705-9.998-0.662-5.688-1.037-10.779l0.196-0.609c-0.094-1.258-0.373-5.03-0.671-2.631c1.204,7.561,1.621,19.832,2.315,28.284
			c-0.488-3.702-1.189,4.146-1.522,5.156c0.364,8.249,0.967,0.086,1.642-0.483c0.089,4.431,1.33,11.507,0.159,15.155
			c-0.98,6.17-1.046-7.634-1.911-9.637l1.583,24.667l-0.285-0.653c0.38,1.949,0.661,5.739,0.368,8.245
			c-0.779,2.438-0.961-3.252-0.757-6.986c-1.179,12.945,2.574,22.712,0.173,33.713l-0.341-3.587
			c-0.102,1.922-0.006,3.143,0.281,3.832l0.06-0.245l0.7,7.191c-0.184,0.608-0.533,1.679-0.656,0.841l-0.025-0.233l0.025,0.233
			l0.733,6.753c0.74,13.294-1.652,3.593-2.05,8.023l0.013-0.658l0.094-4.412l-0.094,4.412c-0.273,4.057-0.974,7.107-1.184,4.277
			l1.033,13.943l-0.038-0.063c-0.292-1.113-0.612-1.804-1.023-1.276l1.023,1.276c0.169,0.644,0.323,1.506,0.467,2.517
			c-0.01-0.002-0.019-0.003-0.03-0.005c-3.379-0.489-6.337-0.979-8.359-1.353c-0.025-0.004-0.048-0.009-0.073-0.014
			c-0.338-0.063-0.652-0.122-0.933-0.178c-0.088-0.018-0.166-0.033-0.248-0.05c-0.062-0.012-0.127-0.025-0.186-0.037
			c-0.036-0.008-0.066-0.014-0.101-0.021c-0.224-0.046-0.427-0.09-0.595-0.129c-3.119-0.72-3.843-2.642-4.802-4.081
			c-0.032-0.049-0.064-0.113-0.095-0.188c-0.011-0.024-0.021-0.055-0.031-0.081c-0.022-0.057-0.043-0.115-0.065-0.183
			c-0.011-0.036-0.022-0.077-0.034-0.117c-0.02-0.069-0.04-0.141-0.059-0.22c-0.012-0.044-0.022-0.089-0.033-0.136
			c-0.021-0.088-0.041-0.18-0.062-0.276c-0.009-0.046-0.019-0.091-0.028-0.139c-0.022-0.111-0.044-0.229-0.066-0.354
			c-0.008-0.038-0.014-0.075-0.021-0.115c-0.029-0.162-0.056-0.33-0.084-0.508c0-0.003-0.001-0.007-0.001-0.01
			c-0.06-0.386-0.118-0.805-0.174-1.248c0-0.001,0-0.002,0-0.002l0.429-9.582c-0.322,3.569-1.003,0.09-1.352-2.717v-2.159
			l1.074-2.061c-0.243-0.221-0.429-0.621-0.577-1.146c0.054-0.207,0.099-0.41,0.138-0.61c0.01-0.05,0.017-0.098,0.026-0.146
			c0.033-0.201,0.059-0.394,0.059-0.554c0-0.109-0.027-0.218-0.067-0.327c-0.012-0.033-0.029-0.067-0.044-0.102
			c-0.037-0.078-0.08-0.157-0.131-0.236c-0.023-0.035-0.045-0.07-0.07-0.105c-0.069-0.095-0.145-0.19-0.23-0.286
			c-0.013-0.015-0.023-0.03-0.037-0.045c-0.591-8.671,2.526-29.888-0.421-37.454c0.18,5.648-0.894,10.604,0.742,13.335
			c-0.543,6.421-1.282,4.233-2.019,2.638c-0.137-1.234-0.38-3.01-0.663-4.928c0-0.002,0-0.004-0.001-0.007
			c-0.16-1.093-0.333-2.23-0.505-3.34c0-0.002-0.001-0.004-0.001-0.006c-0.086-0.55-0.171-1.093-0.254-1.619
			c-0.004-0.021-0.007-0.04-0.01-0.062c-0.038-0.237-0.075-0.47-0.112-0.699c-0.005-0.031-0.009-0.061-0.014-0.091
			c-0.033-0.204-0.065-0.404-0.097-0.601c-0.008-0.051-0.016-0.103-0.025-0.153c-0.036-0.223-0.071-0.44-0.106-0.65v-0.001
			C39.616,582.996,40.411,564.924,38.646,551.104"/>
		<path clip-path="url(#SVGID_8_)" fill="#BF2A43" d="M64.019,290.295c0.009-0.029,0.018-0.06,0.027-0.088
			C64.037,290.236,64.028,290.267,64.019,290.295"/>
		<path clip-path="url(#SVGID_8_)" fill="#BF2A43" d="M64.019,290.295c0.009-0.029,0.018-0.059,0.027-0.088
			c0.229-0.765,0.463-1.54,0.699-2.326C64.658,289.501,64.463,290.699,64.019,290.295"/>
		<polygon clip-path="url(#SVGID_8_)" fill="#BF2A43" points="60.212,585.278 59.75,575.778 60.138,574.554 		"/>
		<polygon clip-path="url(#SVGID_8_)" fill="#BF2A43" points="63.602,550.86 63.58,549.759 64.544,552.943 		"/>
		<path clip-path="url(#SVGID_8_)" fill="#BF2A43" d="M95.136,664.868c-1.895-0.081-3.72-0.163-5.499-0.247
			c-0.005-0.137-0.012-0.259-0.019-0.39c1.729,0.145,3.573,0.293,5.517,0.439L95.136,664.868z"/>
		<path clip-path="url(#SVGID_8_)" fill="#BF2A43" d="M90.052,649.588l-3.836,0.601c1.938-4.924,0.249-17.246-0.78-22.316
			l2.627-4.584c-1.526-11.108-2.189-18.353-4.618-21.727l2.439,1.07c-1.556-4.179-0.013-42.77-4.063-29.547
			c0.526-3.226,1.761-6.183,1.437-13.247l-2.428-1.059c0.557-10.192,0.954-21.565-0.428-24.495c-0.54,5.52-1.596,7.384-2.648,9.211
			c-0.704-43.08,7.866-9.156,7.84-47.32l-1.569,0.454l1.606-9.693l-2.05-10.141c5.274-13.791-0.838-53.558,1.862-76.614
			c0.383-9.064-2.878-20.968-2.637-38.185l2.431,1.106c-2.557-13.877-4.446-65.582-10.141-78.51
			c1.792-13.069,0.52,1.369,2.435,1.069c1.927-20.837-0.271-25.814-1.966-34.222c0.283-1.008,0.506-1.824,0.658-2.414
			c0.267,1.494,0.612,1.91,1.099-0.416c-0.097-1.17-0.173-2.254-0.239-3.296c1.308-5.983,2.906-14.413,3.143-16.118
			c0.282-2.056,0.778-9.498,0.921-10.917s2.125-8.292,2.125-8.292s0.497-3.473,1.278-7.654c0.777-4.182,1.132-9.357,1.132-9.357
			s-0.141-2.409-0.141-4.536c0-2.125,1.134-5.105,1.134-5.105s0-2.835,0.423-6.734c0.426-3.898,2.34-6.591,2.34-6.591l2.431-9.397
			l3.266,504.059c-1.944-0.146-3.788-0.295-5.517-0.439C89.395,659.573,88.506,658.92,90.052,649.588"/>
		<path clip-path="url(#SVGID_8_)" fill="#BF2A43" d="M37.968,586.5c0.009,0.068,0.019,0.136,0.028,0.203
			C37.987,586.636,37.978,586.568,37.968,586.5"/>
		<path clip-path="url(#SVGID_8_)" fill="#BF2A43" d="M38.609,591.009c-0.002-0.018-0.005-0.036-0.007-0.053
			C38.604,590.974,38.607,590.99,38.609,591.009L38.609,591.009z"/>
		<path clip-path="url(#SVGID_8_)" fill="#BF2A43" d="M37.901,407.347c-0.233,1.574-0.477,3.216-0.728,4.905
			C37.424,410.563,37.668,408.921,37.901,407.347"/>
		<path clip-path="url(#SVGID_8_)" fill="#BF2A43" d="M36.546,576.45c0,0.006,0.001,0.013,0.002,0.019
			C36.547,576.463,36.546,576.456,36.546,576.45"/>
		<path clip-path="url(#SVGID_8_)" fill="#BF2A43" d="M36.721,577.683c0.015,0.104,0.029,0.207,0.044,0.31
			C36.75,577.89,36.736,577.786,36.721,577.683"/>
		<path clip-path="url(#SVGID_8_)" fill="#BF2A43" d="M37.535,583.431c0.008,0.058,0.016,0.114,0.024,0.172
			C37.551,583.545,37.542,583.487,37.535,583.431"/>
		<path clip-path="url(#SVGID_8_)" fill="#BF2A43" d="M35.073,426.348c-0.075,0.501-0.149,1-0.224,1.498
			C34.924,427.348,34.998,426.848,35.073,426.348"/>
		<path clip-path="url(#SVGID_8_)" fill="#BF2A43" d="M32.161,540.478c0.004,0.058,0.008,0.114,0.012,0.172
			C32.169,540.592,32.165,540.535,32.161,540.478"/>
		<path clip-path="url(#SVGID_8_)" fill="#BF2A43" d="M32.044,538.748c0.001,0.013,0.001,0.024,0.002,0.036
			C32.045,538.772,32.045,538.761,32.044,538.748"/>
		<path clip-path="url(#SVGID_8_)" fill="#BF2A43" d="M36.329,574.927c0.011,0.08,0.022,0.16,0.034,0.24
			C36.351,575.087,36.34,575.007,36.329,574.927"/>
		<path clip-path="url(#SVGID_8_)" fill="#BF2A43" d="M37.171,412.266c-0.562,3.785-1.162,7.804-1.761,11.822
			C36.009,420.07,36.609,416.051,37.171,412.266"/>
		<path clip-path="url(#SVGID_8_)" fill="#BF2A43" d="M33.688,435.615c-0.045,0.301-0.089,0.601-0.134,0.898
			C33.6,436.215,33.644,435.917,33.688,435.615"/>
		<path clip-path="url(#SVGID_8_)" fill="#BF2A43" d="M35.315,567.93c0.015,0.1,0.03,0.202,0.044,0.303
			C35.345,568.132,35.33,568.029,35.315,567.93"/>
		<path clip-path="url(#SVGID_8_)" fill="#BF2A43" d="M34.385,561.795c0.012,0.076,0.023,0.149,0.036,0.228
			C34.408,561.945,34.397,561.871,34.385,561.795"/>
		<path clip-path="url(#SVGID_8_)" fill="#BF2A43" d="M34.741,564.094c0.016,0.104,0.032,0.209,0.047,0.313
			C34.773,564.303,34.757,564.198,34.741,564.094"/>
		<path clip-path="url(#SVGID_8_)" fill="#BF2A43" d="M34.227,560.803c0.016,0.1,0.032,0.2,0.049,0.303
			C34.259,561.003,34.243,560.902,34.227,560.803"/>
		<path clip-path="url(#SVGID_8_)" fill="#BF2A43" d="M34.088,559.954c0.014,0.082,0.028,0.169,0.042,0.253
			C34.116,560.123,34.102,560.036,34.088,559.954"/>
		<path clip-path="url(#SVGID_8_)" fill="#BF2A43" d="M34.907,565.19c0.021,0.136,0.041,0.271,0.062,0.409
			C34.948,565.461,34.928,565.326,34.907,565.19"/>
		<path clip-path="url(#SVGID_8_)" fill="#BF2A43" d="M33.827,558.363c0.044,0.292,0.089,0.569,0.133,0.828
			C33.916,558.933,33.871,558.656,33.827,558.363"/>
		<path clip-path="url(#SVGID_8_)" fill="#BF2A43" d="M32.282,542.201c0.004,0.064,0.009,0.128,0.014,0.191
			C32.291,542.329,32.286,542.266,32.282,542.201"/>
		<path clip-path="url(#SVGID_8_)" fill="#BF2A43" d="M35.702,570.577c0.013,0.094,0.027,0.187,0.041,0.281
			C35.729,570.764,35.715,570.671,35.702,570.577"/>
		<path clip-path="url(#SVGID_8_)" fill="#BF2A43" d="M35.898,571.932c0.013,0.091,0.026,0.181,0.04,0.271
			C35.924,572.112,35.911,572.022,35.898,571.932"/>
		<path clip-path="url(#SVGID_8_)" fill="#BF2A43" d="M35.504,569.223c0.015,0.098,0.029,0.196,0.043,0.295
			C35.533,569.419,35.52,569.32,35.504,569.223"/>
		<path clip-path="url(#SVGID_8_)" fill="#BF2A43" d="M35.092,566.425c0.016,0.108,0.032,0.214,0.048,0.323
			C35.124,566.64,35.108,566.533,35.092,566.425"/>
		<path clip-path="url(#SVGID_8_)" fill="#BF2A43" d="M36.127,573.525c0.01,0.066,0.019,0.133,0.029,0.199
			C36.146,573.658,36.137,573.592,36.127,573.525"/>
		<path clip-path="url(#SVGID_8_)" fill="#BF2A43" d="M34.576,563.018c0.008,0.052,0.016,0.106,0.024,0.159
			C34.592,563.124,34.584,563.069,34.576,563.018"/>
		<path clip-path="url(#SVGID_8_)" fill="#BF2A43" d="M33.035,551.504c0.014,0.15,0.028,0.293,0.042,0.44
			C33.063,551.797,33.049,551.654,33.035,551.504"/>
		<path clip-path="url(#SVGID_8_)" fill="#BF2A43" d="M32.906,550.095c0.013,0.146,0.026,0.286,0.039,0.431
			C32.932,550.381,32.919,550.24,32.906,550.095"/>
		<path clip-path="url(#SVGID_8_)" fill="#BF2A43" d="M33.166,552.853c0.015,0.146,0.029,0.283,0.044,0.427
			C33.194,553.136,33.181,552.998,33.166,552.853"/>
		<path clip-path="url(#SVGID_8_)" fill="#BF2A43" d="M32.778,548.625c0.011,0.132,0.022,0.259,0.034,0.39
			C32.8,548.884,32.789,548.757,32.778,548.625"/>
		<path clip-path="url(#SVGID_8_)" fill="#BF2A43" d="M33.296,554.118c0.017,0.156,0.033,0.303,0.05,0.455
			C33.33,554.421,33.313,554.274,33.296,554.118"/>
		<path clip-path="url(#SVGID_8_)" fill="#BF2A43" d="M33.693,557.435c0.024,0.178,0.049,0.34,0.073,0.508
			C33.742,557.774,33.717,557.612,33.693,557.435"/>
		<path clip-path="url(#SVGID_8_)" fill="#BF2A43" d="M33.56,556.413c0.022,0.179,0.044,0.344,0.067,0.516
			C33.604,556.757,33.582,556.593,33.56,556.413"/>
		<path clip-path="url(#SVGID_8_)" fill="#BF2A43" d="M32.652,547.099c0.009,0.109,0.018,0.216,0.026,0.324
			C32.67,547.314,32.661,547.208,32.652,547.099"/>
		<path clip-path="url(#SVGID_8_)" fill="#BF2A43" d="M33.428,555.309c0.019,0.165,0.038,0.318,0.057,0.479
			C33.466,555.627,33.447,555.474,33.428,555.309"/>
		<path clip-path="url(#SVGID_8_)" fill="#BF2A43" d="M32.404,543.891c0.005,0.066,0.01,0.132,0.015,0.199
			C32.414,544.022,32.409,543.958,32.404,543.891"/>
		<path clip-path="url(#SVGID_8_)" fill="#BF2A43" d="M32.528,545.524c0.006,0.082,0.013,0.162,0.019,0.243
			C32.541,545.687,32.534,545.606,32.528,545.524"/>
		<path clip-path="url(#SVGID_8_)" fill="#BF2A43" d="M33.693,557.435c-0.022-0.161-0.044-0.337-0.066-0.506
			c-0.022-0.172-0.045-0.337-0.067-0.515c-0.025-0.201-0.05-0.416-0.075-0.626c-0.019-0.161-0.038-0.314-0.057-0.479
			c-0.027-0.237-0.054-0.487-0.082-0.735c-0.016-0.152-0.033-0.299-0.049-0.455c-0.03-0.272-0.059-0.557-0.087-0.839
			c-0.015-0.144-0.03-0.281-0.044-0.427c-0.03-0.295-0.059-0.602-0.089-0.908c-0.014-0.147-0.028-0.29-0.042-0.44
			c-0.03-0.318-0.06-0.648-0.09-0.979c-0.013-0.145-0.026-0.284-0.039-0.431c-0.031-0.353-0.063-0.716-0.094-1.08
			c-0.011-0.131-0.022-0.258-0.034-0.39c-0.033-0.394-0.066-0.795-0.099-1.202c-0.009-0.108-0.018-0.215-0.027-0.324
			c-0.035-0.436-0.07-0.882-0.105-1.331c-0.006-0.081-0.013-0.161-0.019-0.243c-0.036-0.472-0.072-0.951-0.108-1.435
			c-0.006-0.067-0.011-0.133-0.016-0.199c-0.036-0.493-0.072-0.993-0.108-1.498c-0.005-0.063-0.01-0.127-0.014-0.191
			c-0.037-0.511-0.073-1.029-0.109-1.552c-0.004-0.058-0.008-0.114-0.012-0.172c-0.038-0.559-0.076-1.123-0.114-1.693
			c-0.001-0.012-0.001-0.023-0.002-0.036c-0.039-0.591-0.079-1.188-0.117-1.789v-89.535c0.467-3.143,1.025-6.882,1.627-10.91
			c0.044-0.298,0.089-0.598,0.134-0.898c0.375-2.51,0.765-5.121,1.16-7.77c0.074-0.498,0.149-0.997,0.224-1.498
			c0.112-0.753,0.224-1.505,0.337-2.26c0.6-4.019,1.199-8.037,1.762-11.822c0-0.004,0.001-0.009,0.001-0.014
			c0.251-1.689,0.495-3.331,0.728-4.905c0-0.002,0.001-0.004,0.001-0.005c0.844,23.376-2.147,57.011,1.224,69.428l-1.383,10.152
			l1.163,9.684l-1.095-0.443c0.154,38.163,5.968,4.185,5.673,47.269c-0.742-1.82-1.484-3.678-1.886-9.194
			c-0.949,2.938-0.621,14.309-0.187,24.497l-1.686,1.075c-0.194,7.065,0.679,10.014,1.06,13.237
			c-1.967-9.013-2.008,6.123-2.176,17.962c-0.002-0.018-0.005-0.034-0.007-0.052c-0.178-1.234-0.382-2.675-0.605-4.253
			c-0.01-0.067-0.019-0.135-0.029-0.203c-0.13-0.925-0.268-1.895-0.409-2.897c-0.008-0.058-0.016-0.114-0.024-0.172
			c-0.246-1.741-0.506-3.576-0.77-5.438c-0.014-0.103-0.029-0.206-0.044-0.31c-0.057-0.404-0.115-0.809-0.173-1.214
			c-0.001-0.006-0.001-0.013-0.002-0.019l-0.183-1.283c-0.012-0.08-0.023-0.16-0.034-0.24c-0.058-0.401-0.115-0.803-0.173-1.202
			c-0.009-0.066-0.019-0.133-0.028-0.199c-0.064-0.442-0.127-0.884-0.19-1.322c-0.014-0.091-0.027-0.181-0.04-0.271
			c-0.052-0.36-0.103-0.718-0.155-1.073c-0.014-0.094-0.028-0.188-0.041-0.281c-0.051-0.355-0.103-0.709-0.154-1.06
			c-0.015-0.099-0.029-0.197-0.043-0.295c-0.049-0.334-0.098-0.663-0.145-0.99c-0.015-0.101-0.03-0.203-0.045-0.303
			c-0.059-0.4-0.117-0.793-0.175-1.182c-0.016-0.109-0.032-0.215-0.048-0.323c-0.042-0.278-0.083-0.553-0.123-0.825
			c-0.021-0.138-0.041-0.273-0.062-0.409c-0.04-0.266-0.079-0.526-0.118-0.783c-0.016-0.104-0.032-0.21-0.048-0.313
			c-0.048-0.313-0.094-0.618-0.14-0.917c-0.009-0.053-0.017-0.107-0.025-0.159c-0.053-0.343-0.104-0.673-0.155-0.995
			c-0.012-0.078-0.024-0.15-0.036-0.228c-0.037-0.235-0.074-0.465-0.109-0.689c-0.017-0.103-0.033-0.203-0.049-0.303
			c-0.034-0.205-0.066-0.402-0.097-0.596c-0.014-0.084-0.028-0.171-0.042-0.252c-0.044-0.267-0.087-0.523-0.128-0.764
			c-0.044-0.259-0.089-0.536-0.133-0.828c-0.021-0.133-0.041-0.281-0.061-0.421C33.742,557.774,33.717,557.612,33.693,557.435"/>
		<path clip-path="url(#SVGID_8_)" fill="#BF2A43" d="M97.113,664.949c-0.661-0.027-1.329-0.054-1.977-0.081l-0.002-0.197
			c0.65,0.049,1.311,0.098,1.983,0.146C97.115,664.861,97.114,664.905,97.113,664.949"/>
		<path clip-path="url(#SVGID_8_)" fill="#BF2A43" d="M93.691,153.564c0,0,0.215-0.424,0.994-2.479
			c0.777-2.057,0.493-6.664,0.423-7.16c-0.07-0.497-0.283-4.889-0.283-6.306c0-1.419-0.281-8.79,0.213-10.065
			c0.312-0.803,0.624-2.365,0.902-3.942c1.905,18.893,0.852,22.165,3.818,39.155l-2.434-1.07c2.04,12.44-1.619,14.285-0.107,27.686
			c0.527,0.74,1.113-4.403,1.654-8.531c-0.723,11.888,2.119,10.939,1.251,22.535l2.648-9.212
			c-0.036,9.235-0.785,22.784,1.496,18.006c-2.672,16.147-1.393,44.44-2.857,64.597l2.093-1.347
			c-2.479,10.428,0.375,38.291-2.622,47.35l0.865,1.529l-2.691,20.755c0.31,9.39,3.456,6.179,2.584,6.944
			c-0.427,20.609-0.494,36.767,0.679,50.013c-2.801,3.348-3.4,25.036-3.645,42.282c2.009,72.828,0.654,150.396-1.556,220.514
			c-0.672-0.049-1.332-0.097-1.982-0.146l-3.266-504.059L93.691,153.564z"/>
		<path clip-path="url(#SVGID_8_)" fill="#BF2A43" d="M97.589,117.368c-0.35,0.602-0.701,1.25-1.042,2.039
			c0.063-0.956,0.091-2.065,0.096-3.099c0.047,0.065,0.097,0.128,0.143,0.192C96.987,116.784,97.271,117.075,97.589,117.368"/>
	</g>
	<g id="SIDE_STRIPS_COLOR_2" clip-path="url(#SVGID_2_)">
		<defs>
			<rect id="SVGID_9_" width="612" height="792"/>
		</defs>
		<clipPath id="SVGID_10_">
			<use xlink:href="#SVGID_9_"  overflow="visible"/>
		</clipPath>
		<path clip-path="url(#SVGID_10_)" fill="#3EC6EC" d="M97.929,626.473l0.013-0.232C97.939,626.332,97.934,626.406,97.929,626.473"
			/>
		<polygon clip-path="url(#SVGID_10_)" fill="#3EC6EC" points="60.212,582.162 59.75,572.457 60.138,571.206 		"/>
		<path clip-path="url(#SVGID_10_)" fill="#3EC6EC" d="M93.982,666.688c-2.66-0.08-5.25-0.168-7.766-0.261
			c-2.315-0.15-4.518-0.309-6.613-0.468c0.065-0.92,0.132-1.789,0.203-2.585c3.538,0.309,8.464,0.768,14.359,1.223
			C94.101,665.285,94.041,665.991,93.982,666.688"/>
		<path clip-path="url(#SVGID_10_)" fill="#3EC6EC" d="M80.976,658.729c-0.312-0.525-0.546,0.166-0.757,1.281l-0.028,0.063
			l0.682-13.948c-0.138,2.831-0.682-0.217-0.913-4.271l-0.099-4.412l0.099,4.412l0.015,0.657c-0.328-4.428-2.054,5.284-1.586-8.012
			l0.504-6.758c0.007-0.066,0.013-0.142,0.018-0.233c-0.005,0.092-0.011,0.167-0.018,0.233c-0.086,0.84-0.355-0.229-0.496-0.837
			l0.476-7.195l0.047,0.245c0.211-0.691,0.275-1.912,0.186-3.833l-0.233,3.588c-1.866-10.988,0.878-20.773-0.087-33.713
			c0.176,3.733,0.077,9.424-0.522,6.99c-0.235-2.505-0.049-6.297,0.222-8.247l-0.209,0.655l1.025-24.674
			c-0.635,2.006-0.595,15.811-1.368,9.645c-0.898-3.643-0.017-10.725,0.021-15.155c0.509,0.566,1.013,8.726,1.232,0.476
			c-0.256-1.009-0.831-8.853-1.172-5.149c0.464-8.455,0.696-20.728,1.548-28.295c-0.238-2.397-0.422,1.377-0.484,2.635l0.15,0.607
			c-0.248,5.094-1.298,0.791-0.706,10.785c-1.662,0.847-0.555-14.408-0.844-23.173l-1.042,13.987
			c-2.435-23.534-0.169-55.333-0.289-78.663c0.565,6.841,0.107,12.569,1.401,11.743c0.534-14.496,0.26-12.596,0.429-27.05
			l-0.061,1.241c-0.713-7.468,0.506-17.688-0.694-22.579c-0.695,3.233,0.742,10.606-0.706,10.795l-0.006-18.237
			c-0.82,5.737,0.006,18.237-0.155,25.191c0.115,5.016,0.135-10.085,1.098-7.71c0.064,17.021-0.844,20.907-2.149,29.291
			c-0.302,1.581-0.518,1.468-0.676,0.473l-0.089-13.881c1.178-10.677,1.619-25.262,0.897-40.74l-1.16-9.265
			c0.943-8.365,2.929-4.823,2.585-19.915l-0.76,4.51c-0.33-3.303-0.449-5.474-0.452-7.075l0.287-3.476
			c0.472-2.27,1.299-2.965,0.858-10.953c-0.209,2.954-0.518,6.848-0.858,10.953c-0.171,0.827-0.29,1.837-0.287,3.476
			c-0.464,5.435-0.978,11.182-1.473,16.366l-0.133-20.525c0.338-4.707,0.68-9.448,0.767-13.781
			c-0.209,0.659-0.247,5.072-0.668,6.389c-0.52-18.833,1.344-38.568,1.514-53.117c-0.774-6.146-0.406,12.084-1.514,9.096
			c0.368-7.649-0.642-16.285,0.353-18.338c-1.115,2.638-0.611-9.742-0.956-8.021l-0.052-8.03c0.352-1.805,0.671-3.951,0.739-7.819
			c-0.603,1.855-0.559-2.059-0.597-6.059c0.026-1.17-0.001-2.379-0.087-3.626c1.298-4.426,2.249-7.757,2.584-9.134
			c1.349-5.53,3.612-17.364,3.899-19.42c0.281-2.056,0.777-9.497,0.921-10.917c0.143-1.419,2.125-8.291,2.125-8.291
			s0.496-3.474,1.277-7.655c0.778-4.182,1.133-9.357,1.133-9.357s-0.142-2.409-0.142-4.536c0-2.125,1.135-5.105,1.135-5.105
			s0-2.835,0.423-6.733c0.426-3.898,2.34-6.591,2.34-6.591l0.115-0.444c0.321,9.655,1.878,15.272-0.125,23.439l0.424-1.267
			c0.2,4.207,0.612,10.266,0.318,14.884c-1.473,6.676-2.665,12.269-3.175,15.204c-7.962,46.109-2.369,92.424,4.976,127.308
			c0.104,8.387,0.215,18.486,1.609,23.358c-1.029,6.412-1.747,24.756-1.121,30.353c1.222,8.033,1.242-7.122,2.353-4.146
			c0.052,6.299-1.005,9.611-0.566,18.987c-1.084,0.165-2.326-18.521-2.832-0.872l0.601,2.466c-0.09-1.827-0.326-4.336-0.202-6.898
			c0.609-5.105,0.749,3.057,1.049,4.228l-0.207,18.945c-1.148,1.391-0.949-9.938-1.25-11.108c0.341,14.99,2.154,33.021,1.473,46.964
			l0.425-1.32c-0.87,17.776,2.181,10.357,0.415,24.509c0.352,7.465,1.209-2.7,1.375,8.578c0.027,3.186-0.423,1.32-0.574,0.753
			c-0.319,13.859,1.138,6.094,0.159,18.889l1.03-2.368l0.016,2.35c-0.831,14.405-2.587,29.273-2.009,41.65
			c0.936-0.792,0.797-8.939,1.491-12.184c-1.589,17.852,0.065,42.794-0.741,59.288c-0.836-4.923-1.817,7.816-2.553-2.741
			c1.206-2.738,0.37-7.688,0.468-13.338c-2.603,9.157,1.544,38.207-0.748,41.018l0.959,2.41c-0.123,2.53-0.794,8.954-1.121,4.527
			l0.727,18.191c0.673-6.395,2.226-19.871,1.18-24.092c0.97-5.181,0.713,7.447,1.833,2.858c-1.492,12.185,0.714,7.475,0.453,20.086
			c-0.705-2.86-1.147,0.321-1.499,4.124c-5.894-0.455-10.82-0.914-14.358-1.223c0.124-1.383,0.258-2.547,0.413-3.364L80.976,658.729
			z"/>
		<path clip-path="url(#SVGID_10_)" fill="#3EC6EC" d="M73.83,261.375c-0.031,1.208-0.111,2.375-0.208,3.545l-0.043-6.61
			c0.054-0.185,0.11-0.376,0.163-0.558C73.795,258.83,73.816,260.079,73.83,261.375"/>
		<path clip-path="url(#SVGID_10_)" fill="#3EC6EC" d="M69.885,583.104c-0.774-0.705-0.371-8.339-0.167-12.236L69.885,583.104z"/>
		<path clip-path="url(#SVGID_10_)" fill="#3EC6EC" d="M67.384,279.098c0.525-1.75,1.051-3.501,1.57-5.235
			C68.435,275.597,67.909,277.348,67.384,279.098"/>
		<path clip-path="url(#SVGID_10_)" fill="#3EC6EC" d="M67.384,279.098c0.525-1.75,1.051-3.501,1.57-5.235
			C68.435,275.597,67.909,277.348,67.384,279.098"/>
		<path clip-path="url(#SVGID_10_)" fill="#3EC6EC" d="M70.391,278.596c0.003-3.144-0.19-2.58-0.481-3.222
			c1.323,14.888-1.081,8.274-0.713,16.624c-1.169-3.718-0.542-14.587-1.813-12.901c0.526-1.749,1.051-3.501,1.57-5.235
			C69.384,276.17,70.473,272.656,70.391,278.596"/>
		<path clip-path="url(#SVGID_10_)" fill="#3EC6EC" d="M68.044,662.307c0.007,0,0.013,0.001,0.02,0.002
			C68.058,662.308,68.051,662.307,68.044,662.307"/>
		<path clip-path="url(#SVGID_10_)" fill="#3EC6EC" d="M65.014,286.986c0.307-1.02,0.619-2.058,0.932-3.102
			C65.632,284.929,65.321,285.965,65.014,286.986"/>
		<path clip-path="url(#SVGID_10_)" fill="#3EC6EC" d="M66.155,283.189c0.322-1.07,0.646-2.147,0.97-3.229
			c-0.002,0.006-0.003,0.012-0.005,0.018C66.797,281.055,66.475,282.125,66.155,283.189"/>
		<path clip-path="url(#SVGID_10_)" fill="#3EC6EC" d="M67.12,279.979c0.002-0.006,0.003-0.012,0.005-0.018
			C67.123,279.967,67.122,279.973,67.12,279.979"/>
		<polyline clip-path="url(#SVGID_10_)" fill="#3EC6EC" points="65.016,661.938 65.016,661.938 65.019,661.939 65.016,661.938 		"/>
		<path clip-path="url(#SVGID_10_)" fill="#3EC6EC" d="M71.12,662.64L71.12,662.64L71.12,662.64z"/>
		<polygon clip-path="url(#SVGID_10_)" fill="#3EC6EC" points="71.12,662.64 71.119,662.64 71.117,662.64 		"/>
		<path clip-path="url(#SVGID_10_)" fill="#3EC6EC" d="M65.014,286.986c0.301-1,0.606-2.015,0.914-3.038
			C65.62,284.971,65.314,285.985,65.014,286.986"/>
		<polygon clip-path="url(#SVGID_10_)" fill="#3EC6EC" points="65.016,661.938 65.016,661.938 65.018,661.938 		"/>
		<path clip-path="url(#SVGID_10_)" fill="#3EC6EC" d="M66.155,283.189c0.32-1.065,0.642-2.135,0.965-3.211
			c-0.371,1.233-0.739,2.46-1.105,3.678C66.062,283.501,66.108,283.346,66.155,283.189"/>
		<path clip-path="url(#SVGID_10_)" fill="#3EC6EC" d="M66.226,532.614c-0.45-6.186-0.871-2.858-1.21-3.745v-84.604
			c0.451-2.276,0.467-9.072,0.471-11.306c-0.166-0.92-0.322-1.885-0.473-2.874v-57.328c0.137,1.031,0.277,2.078,0.413,3.057
			c1.474-5.761,0.533-14.825-0.413-24.025v-64.803c0.3-1.001,0.606-2.015,0.913-3.039c0.007-0.021,0.012-0.041,0.019-0.063
			c0.023-0.076,0.046-0.152,0.069-0.228c0.365-1.218,0.734-2.444,1.105-3.678c0.002-0.006,0.003-0.012,0.005-0.018
			c1.278,14.862,0.582,37.626,3.365,39.788c-0.589,14.375-0.391,30.542-0.036,46.015c-0.133,13.899-0.367,27.404-1.09,38.398
			c1.222-1.867,1.166-14.915,1.434-24.79c0.114,4.285,0.227,8.44,0.322,12.426v13.905c-0.228,0.262-0.228-2.733-0.538-1.774
			c1.624,9.164-1.132,30.756,0.318,30.9c-0.4,4.436-1.464,6.289-1.854,7.491c0.695,5.882,1.035,12.923,1.237,20.399l-0.402-5.469
			l-0.196,0.6l0.563,7.757l0.09-0.288c0.314,14.035,0.194,29.71,0.782,43.813v9.284c-0.472,0.084-0.892,3.224-1.243,2.761
			c-0.078-0.347-0.153-0.708-0.237-1.026c0.075,0.606,0.153,0.916,0.237,1.026c0.543,2.396,0.949,5.512,1.243,9.115v36.004
			c-0.215,0.091-0.416-0.041-0.618-1.063l0.618,6.301v2.637l-0.248-0.548c-0.128,5.2,0.016,10.538,0.248,15.774v24.888
			c-0.208-0.443-0.45-0.618-0.728-0.874c0.056,12.052,0.088,23.453,0.728,37.374v0.973c-0.129-0.621-0.272-1.027-0.424-1.047
			c-0.158,2.942,0.148,6.336,0.424,9.528v2.401h-0.004c-1.014-0.103-2.035-0.213-3.052-0.331c-0.006-0.001-0.013-0.002-0.02-0.002
			c-1.015-0.117-2.027-0.24-3.025-0.367c-0.001-0.001-0.001-0.001-0.001-0.001h-0.002V529.196
			C65.305,531.619,65.721,533.356,66.226,532.614"/>
		<path clip-path="url(#SVGID_10_)" fill="#3EC6EC" d="M66.39,587.923c0.873-1.22,2.992,1.579,2.295,11.832
			c-1.534-7.908-2.305-8.618-3.056-18.973l1.267-2.436C66.693,582.162,65.628,580.782,66.39,587.923"/>
		<path clip-path="url(#SVGID_10_)" fill="#3EC6EC" d="M68.547,574.659c-0.1,1.867-0.008,3.216,0.182,5.739
			c-0.697-6.53-1.536-17.818-2.343-18.813C67.872,562.091,68.555,571.597,68.547,574.659"/>
		<path clip-path="url(#SVGID_10_)" fill="#3EC6EC" d="M69.885,583.104c-0.774-0.705-0.371-8.339-0.167-12.236L69.885,583.104z"/>
		<path clip-path="url(#SVGID_10_)" fill="#3EC6EC" d="M68.547,574.659c-0.1,1.867-0.008,3.216,0.182,5.739
			c-0.697-6.53-1.536-17.818-2.343-18.813C67.872,562.091,68.555,571.597,68.547,574.659"/>
		<polygon clip-path="url(#SVGID_10_)" fill="#3EC6EC" points="71.12,574.17 71.12,571.533 71.451,574.901 		"/>
		<path clip-path="url(#SVGID_10_)" fill="#3EC6EC" d="M71.758,565.97l-0.639,0.325v-36.004
			C71.944,540.367,71.924,554.138,71.758,565.97"/>
		<path clip-path="url(#SVGID_10_)" fill="#3EC6EC" d="M61.106,624.244c-0.01-0.068-0.019-0.146-0.025-0.239L61.106,624.244z"/>
		<path clip-path="url(#SVGID_10_)" fill="#3EC6EC" d="M62.52,661.609c0.051,0.007,0.102,0.014,0.153,0.021
			C62.622,661.623,62.571,661.616,62.52,661.609"/>
		<polyline clip-path="url(#SVGID_10_)" fill="#3EC6EC" points="60.273,661.294 60.273,661.294 60.276,661.295 60.273,661.294 		"/>
		<polyline clip-path="url(#SVGID_10_)" fill="#3EC6EC" points="65.016,661.938 65.007,661.938 65.016,661.938 		"/>
		<path clip-path="url(#SVGID_10_)" fill="#3EC6EC" d="M62.673,661.63c-0.031-0.004-0.062-0.008-0.092-0.013
			c0.032,0.005,0.065,0.009,0.097,0.014C62.676,661.631,62.674,661.63,62.673,661.63"/>
		<polyline clip-path="url(#SVGID_10_)" fill="#3EC6EC" points="65.016,661.938 65.01,661.938 65.016,661.938 		"/>
		<polyline clip-path="url(#SVGID_10_)" fill="#3EC6EC" points="60.276,661.295 60.273,661.294 60.282,661.296 60.276,661.295 		"/>
		<path clip-path="url(#SVGID_10_)" fill="#3EC6EC" d="M59.651,657.279l-1.033-14.244c0.21,2.891,0.911-0.226,1.184-4.369
			l-0.013,0.672c0.399-4.526,2.79,5.385,2.05-8.196l-0.733-6.897c0.124,0.855,0.472-0.237,0.656-0.859l-0.699-7.347
			c2.401-11.237-1.352-21.214-0.174-34.438c-0.204,3.815-0.022,9.627,0.757,7.137c0.294-2.56,0.012-6.432-0.368-8.423l0.286,0.668
			l-1.584-25.197c0.865,2.045,0.931,16.146,1.911,9.844c1.171-3.728-0.07-10.956-0.159-15.481c-0.675,0.581-1.278,8.92-1.642,0.493
			c0.333-1.031,1.035-9.049,1.522-5.268c-0.693-8.634-1.11-21.169-2.315-28.893c0.298-2.451,0.577,1.403,0.671,2.688l-0.196,0.622
			c0.376,5.201,1.742,0.799,1.037,11.013c2.229,0.854,0.617-14.722,0.928-23.677l1.515,14.279
			c3.051-24.055-0.254-56.524-0.296-80.355c-0.695,6.992-0.034,12.841-1.771,12.005c-0.839-14.804-0.456-12.864-0.807-27.628
			l0.092,1.268c0.888-7.634-0.829-18.065,0.733-23.07c0.956,3.299-0.902,10.841,1.036,11.022l-0.15-18.63
			c1.146,5.856,0.15,18.63,0.426,25.734c-0.11,5.122-0.268-10.302-1.534-7.869c0.062,17.388,1.308,21.352,3.126,29.907
			c0.417,1.613,0.705,1.495,0.908,0.478v84.604l-0.068-0.23l-0.345-5.146c0.097,3.153,0.216,4.526,0.345,5.146
			c0.022,0.191,0.044,0.374,0.068,0.558v132.742c-0.002,0-0.004,0-0.006-0.001h-0.003c-0.786-0.101-1.563-0.203-2.328-0.307
			c-0.032-0.005-0.065-0.009-0.097-0.014c-0.021-0.003-0.041-0.005-0.061-0.008c-0.762-0.104-1.51-0.209-2.239-0.313
			c-0.003-0.001-0.005-0.001-0.008-0.002c-0.2-1.693-0.414-3.121-0.66-4.079L59.651,657.279z"/>
		<path clip-path="url(#SVGID_10_)" fill="#3EC6EC" d="M30.845,517.31c0.001,0.03,0.003,0.062,0.004,0.091
			C30.848,517.371,30.846,517.34,30.845,517.31"/>
		<path clip-path="url(#SVGID_10_)" fill="#3EC6EC" d="M30.505,509.732c0.001,0.016,0.001,0.031,0.002,0.048
			C30.506,509.764,30.506,509.748,30.505,509.732"/>
		<path clip-path="url(#SVGID_10_)" fill="#3EC6EC" d="M30.677,455.929c-0.005,0.036-0.01,0.068-0.015,0.103
			C30.667,455.997,30.672,455.966,30.677,455.929"/>
		<path clip-path="url(#SVGID_10_)" fill="#3EC6EC" d="M30.79,455.145c-0.008,0.059-0.017,0.116-0.025,0.173
			C30.772,455.262,30.782,455.203,30.79,455.145"/>
		<path clip-path="url(#SVGID_10_)" fill="#3EC6EC" d="M30.919,454.254c-0.006,0.044-0.013,0.092-0.02,0.136
			C30.906,454.346,30.913,454.299,30.919,454.254"/>
		<polyline clip-path="url(#SVGID_10_)" fill="#3EC6EC" points="31.04,521.281 31.04,521.267 31.04,521.281 		"/>
		<path clip-path="url(#SVGID_10_)" fill="#3EC6EC" d="M31.776,448.448c-0.001,0.011-0.003,0.021-0.005,0.031
			C31.773,448.469,31.775,448.459,31.776,448.448"/>
		<path clip-path="url(#SVGID_10_)" fill="#3EC6EC" d="M30.919,454.254c0.002-0.012,0.004-0.025,0.006-0.037
			c-0.005,0.028-0.009,0.06-0.013,0.089C30.914,454.288,30.917,454.271,30.919,454.254"/>
		<path clip-path="url(#SVGID_10_)" fill="#3EC6EC" d="M30.765,455.317c0.008-0.057,0.017-0.114,0.025-0.173
			c0.001-0.005,0.002-0.011,0.002-0.016c-0.009,0.069-0.02,0.14-0.029,0.206C30.764,455.328,30.764,455.323,30.765,455.317"/>
		<path clip-path="url(#SVGID_10_)" fill="#3EC6EC" d="M30.85,517.4c-0.001-0.03-0.003-0.061-0.004-0.091v-0.01
			c0.001,0.036,0.003,0.073,0.004,0.109C30.85,517.406,30.85,517.403,30.85,517.4"/>
		<polygon clip-path="url(#SVGID_10_)" fill="#3EC6EC" points="31.039,521.267 31.039,521.266 31.039,521.269 		"/>
		<polyline clip-path="url(#SVGID_10_)" fill="#3EC6EC" points="30.505,509.732 30.505,509.73 30.505,509.737 30.505,509.732 		"/>
		<path clip-path="url(#SVGID_10_)" fill="#3EC6EC" d="M30.598,456.498c0.017-0.125,0.04-0.287,0.065-0.467
			c0.005-0.034,0.01-0.066,0.015-0.103c0.024-0.175,0.053-0.375,0.085-0.594c0.009-0.066,0.02-0.137,0.029-0.207
			c0.034-0.228,0.069-0.47,0.108-0.738c0.004-0.027,0.008-0.056,0.012-0.084c0.004-0.029,0.009-0.061,0.013-0.089
			c0.21-1.441,0.499-3.396,0.846-5.738c0.002-0.01,0.004-0.02,0.005-0.03c0.05-0.334,0.1-0.675,0.153-1.024l-0.001,89.535
			c-0.323-5.034-0.623-10.404-0.888-15.678c0-0.005-0.001-0.009-0.001-0.013c0-0.001,0-0.002,0-0.003
			c-0.065-1.294-0.128-2.581-0.189-3.856c-0.001-0.036-0.003-0.073-0.004-0.109c-0.123-2.575-0.236-5.099-0.338-7.52
			c-0.001-0.015-0.001-0.028-0.002-0.043c0-0.002,0-0.005,0-0.007c-0.052-1.217-0.1-2.407-0.146-3.565
			C29.64,487.933,29.879,461.779,30.598,456.498"/>
		<path clip-path="url(#SVGID_10_)" fill="#3EC6EC" d="M36.002,420.12c0,0.003,0,0.005-0.001,0.007
			c0.128-0.857,0.255-1.711,0.381-2.559l-0.017,0.117C36.245,418.493,36.124,419.305,36.002,420.12"/>
		<path clip-path="url(#SVGID_10_)" fill="#3EC6EC" d="M36.929,413.897c-0.136,0.914-0.274,1.845-0.414,2.779
			c-0.003,0.027-0.007,0.054-0.012,0.081C36.646,415.796,36.789,414.839,36.929,413.897"/>
		<path clip-path="url(#SVGID_10_)" fill="#3EC6EC" d="M35.964,420.374c0.013-0.083,0.025-0.164,0.037-0.247
			c0.001-0.002,0.001-0.004,0.001-0.007C35.989,420.205,35.977,420.289,35.964,420.374"/>
		<path clip-path="url(#SVGID_10_)" fill="#3EC6EC" d="M36.382,417.568c0.041-0.271,0.081-0.541,0.121-0.811
			c0.004-0.027,0.008-0.054,0.012-0.081c-0.05,0.336-0.1,0.672-0.151,1.009L36.382,417.568z"/>
		<path clip-path="url(#SVGID_10_)" fill="#3EC6EC" d="M37.887,407.442c-0.011,0.075-0.022,0.151-0.034,0.228
			c-0.183,1.238-0.373,2.519-0.568,3.828c-0.02,0.136-0.04,0.27-0.06,0.405c-0.082,0.555-0.166,1.114-0.25,1.679l-0.004,0.032
			c0.407-2.741,0.798-5.375,1.159-7.816c-0.002,0.016-0.004,0.032-0.007,0.048C38.046,406.37,37.967,406.901,37.887,407.442"/>
		<path clip-path="url(#SVGID_10_)" fill="#3EC6EC" d="M37.225,411.903c0.021-0.136,0.041-0.271,0.061-0.405
			C37.266,411.632,37.246,411.769,37.225,411.903"/>
		<path clip-path="url(#SVGID_10_)" fill="#3EC6EC" d="M36.946,413.785c0.008-0.058,0.017-0.114,0.025-0.171l0.005-0.032
			C36.966,413.65,36.956,413.717,36.946,413.785"/>
		<path clip-path="url(#SVGID_10_)" fill="#3EC6EC" d="M38.124,405.846c0.002-0.016,0.005-0.032,0.007-0.048
			c0.008-0.056,0.017-0.115,0.025-0.171C38.146,405.699,38.134,405.773,38.124,405.846"/>
		<path clip-path="url(#SVGID_10_)" fill="#3EC6EC" d="M37.854,407.669c0.011-0.075,0.022-0.151,0.034-0.227
			C37.875,407.518,37.864,407.594,37.854,407.669"/>
		<path clip-path="url(#SVGID_10_)" fill="#3EC6EC" d="M38.136,587.685c0.001,0.007,0.002,0.014,0.003,0.021
			C38.138,587.698,38.137,587.691,38.136,587.685"/>
		<polyline clip-path="url(#SVGID_10_)" fill="#3EC6EC" points="38.975,593.521 38.976,593.527 38.975,593.521 		"/>
		<path clip-path="url(#SVGID_10_)" fill="#3EC6EC" d="M37.518,583.315c0.053,0.373,0.104,0.739,0.156,1.103
			C37.622,584.056,37.571,583.687,37.518,583.315"/>
		<path clip-path="url(#SVGID_10_)" fill="#3EC6EC" d="M36.961,579.377c-0.053-0.376-0.107-0.753-0.161-1.132
			c0.011,0.076,0.022,0.153,0.033,0.229C36.876,578.775,36.919,579.077,36.961,579.377"/>
		<path clip-path="url(#SVGID_10_)" fill="#3EC6EC" d="M36.833,578.474c-0.011-0.076-0.022-0.152-0.033-0.229
			C36.812,578.321,36.822,578.397,36.833,578.474"/>
		<path clip-path="url(#SVGID_10_)" fill="#3EC6EC" d="M37.244,581.373c0.079,0.557,0.157,1.105,0.233,1.648
			C37.401,582.48,37.323,581.93,37.244,581.373"/>
		<path clip-path="url(#SVGID_10_)" fill="#3EC6EC" d="M35.852,421.126c-0.145,0.971-0.29,1.944-0.436,2.918
			C35.562,423.07,35.707,422.097,35.852,421.126"/>
		<path clip-path="url(#SVGID_10_)" fill="#3EC6EC" d="M34.397,430.87l-0.083,0.56C34.341,431.244,34.37,431.056,34.397,430.87"/>
		<path clip-path="url(#SVGID_10_)" fill="#3EC6EC" d="M37.225,411.903c-0.082,0.554-0.166,1.115-0.25,1.679
			C37.059,413.018,37.143,412.458,37.225,411.903"/>
		<path clip-path="url(#SVGID_10_)" fill="#3EC6EC" d="M37.854,407.669c-0.184,1.239-0.374,2.519-0.568,3.829
			C37.479,410.188,37.669,408.908,37.854,407.669"/>
		<path clip-path="url(#SVGID_10_)" fill="#3EC6EC" d="M36.929,413.897c0.002-0.012,0.003-0.021,0.005-0.034
			c-0.142,0.954-0.285,1.919-0.431,2.895C36.646,415.796,36.789,414.839,36.929,413.897"/>
		<path clip-path="url(#SVGID_10_)" fill="#3EC6EC" d="M36.382,417.568c-0.126,0.848-0.253,1.701-0.381,2.559
			C36.129,419.27,36.256,418.416,36.382,417.568"/>
		<path clip-path="url(#SVGID_10_)" fill="#3EC6EC" d="M38.124,405.846c-0.077,0.523-0.156,1.057-0.236,1.597
			C37.967,406.901,38.045,406.37,38.124,405.846"/>
		<path clip-path="url(#SVGID_10_)" fill="#3EC6EC" d="M37.78,585.167c0.067,0.476,0.133,0.94,0.197,1.396
			C37.913,586.107,37.847,585.642,37.78,585.167"/>
		<path clip-path="url(#SVGID_10_)" fill="#3EC6EC" d="M37.674,584.418c-0.051-0.363-0.103-0.729-0.156-1.103
			c0.067,0.471,0.133,0.936,0.197,1.392C37.701,584.609,37.688,584.517,37.674,584.418"/>
		<path clip-path="url(#SVGID_10_)" fill="#3EC6EC" d="M37.244,581.373c-0.093-0.658-0.187-1.323-0.282-1.996
			c-0.043-0.3-0.086-0.602-0.128-0.903c0.209,1.477,0.414,2.93,0.613,4.332C37.38,582.333,37.312,581.856,37.244,581.373"/>
		<path clip-path="url(#SVGID_10_)" fill="#3EC6EC" d="M38.136,587.685c-0.005-0.034-0.01-0.072-0.015-0.106
			c0.006,0.04,0.011,0.079,0.017,0.119C38.137,587.693,38.136,587.688,38.136,587.685"/>
		<path clip-path="url(#SVGID_10_)" fill="#3EC6EC" d="M38.976,593.527c0-0.002,0-0.004-0.001-0.007
			c0.001,0.009,0.002,0.017,0.004,0.025C38.978,593.539,38.977,593.534,38.976,593.527"/>
		<path clip-path="url(#SVGID_10_)" fill="#3EC6EC" d="M35.417,424.044c0.146-0.974,0.291-1.947,0.436-2.918
			c0.014-0.101,0.029-0.2,0.044-0.301c-0.452,3.034-0.911,6.104-1.359,9.105C34.829,427.985,35.122,426.019,35.417,424.044"/>
		<path clip-path="url(#SVGID_10_)" fill="#3EC6EC" d="M34.084,432.963c-0.062,0.416-0.124,0.829-0.185,1.241
			C33.96,433.792,34.022,433.379,34.084,432.963"/>
		<path clip-path="url(#SVGID_10_)" fill="#3EC6EC" d="M34.314,431.43c0.023-0.156,0.046-0.312,0.07-0.469
			c-0.06,0.4-0.12,0.8-0.179,1.197C34.241,431.915,34.277,431.675,34.314,431.43"/>
		<path clip-path="url(#SVGID_10_)" fill="#3EC6EC" d="M34.133,447.896c-0.355,1.368-0.725,0.476-0.818,4.022
			c-0.118-3.856-0.221-7.757-0.316-11.685c0.287-1.922,0.589-3.948,0.9-6.029c0.062-0.412,0.123-0.825,0.185-1.241
			c0.04-0.268,0.08-0.535,0.12-0.804c0.06-0.398,0.119-0.798,0.179-1.198c0.005-0.03,0.01-0.061,0.014-0.091
			c0.047-0.311,0.094-0.627,0.14-0.939c0.449-3.002,0.907-6.071,1.36-9.105c0.022-0.15,0.045-0.301,0.067-0.45
			c0.012-0.083,0.024-0.165,0.037-0.248c0.128-0.857,0.255-1.71,0.381-2.559c0.041-0.271,0.081-0.541,0.121-0.811
			c0.145-0.976,0.289-1.94,0.431-2.895c0.004-0.026,0.008-0.053,0.012-0.078c0.009-0.068,0.019-0.135,0.029-0.203
			c0.084-0.563,0.168-1.125,0.25-1.679c0.02-0.135,0.04-0.271,0.06-0.405c0.195-1.311,0.385-2.59,0.568-3.829
			c0.011-0.075,0.023-0.151,0.034-0.227c0.08-0.54,0.159-1.073,0.236-1.597c0.011-0.072,0.022-0.147,0.032-0.219
			c0.001-0.007,0.003-0.015,0.004-0.021c0.843,18.155,1.782,34.88,1.319,60.784c-1.783,4.668,0.04,22.003-1.217,33.256
			c2.609,25.374,1.101,64.748,0.796,94.423c-0.024-0.16-0.05-0.336-0.078-0.522c-0.002-0.009-0.003-0.017-0.004-0.025
			c-0.204-1.366-0.494-3.396-0.837-5.816c0-0.002-0.001-0.004-0.001-0.007c-0.005-0.04-0.011-0.079-0.017-0.119
			c-0.047-0.33-0.095-0.673-0.143-1.016c-0.065-0.455-0.131-0.92-0.198-1.396c-0.021-0.153-0.042-0.303-0.064-0.459
			c-0.065-0.456-0.13-0.921-0.197-1.392c-0.014-0.098-0.028-0.196-0.042-0.294c-0.01-0.071-0.02-0.145-0.03-0.216
			c-0.198-1.402-0.403-2.855-0.613-4.332c-0.011-0.076-0.022-0.152-0.033-0.229C34.799,538.552,34.63,490.675,34.133,447.896"/>
		<path clip-path="url(#SVGID_10_)" fill="#3EC6EC" d="M46.166,354.843c-0.237,1.418-0.485,2.904-0.739,4.426
			C45.682,357.743,45.929,356.264,46.166,354.843"/>
		<path clip-path="url(#SVGID_10_)" fill="#3EC6EC" d="M41.618,611.287c0.013,0.18,0.02,0.331,0.02,0.444
			C41.638,611.618,41.631,611.467,41.618,611.287"/>
		<path clip-path="url(#SVGID_10_)" fill="#3EC6EC" d="M41.472,609.838c0.033,0.278,0.062,0.538,0.086,0.771
			C41.534,610.376,41.505,610.116,41.472,609.838"/>
		<path clip-path="url(#SVGID_10_)" fill="#3EC6EC" d="M41.674,626.39c-0.006,0.018-0.013,0.036-0.02,0.055
			C41.661,626.425,41.667,626.407,41.674,626.39"/>
		<path clip-path="url(#SVGID_10_)" fill="#3EC6EC" d="M44.186,366.708c-0.019,0.112-0.038,0.224-0.056,0.336
			C44.147,366.933,44.167,366.82,44.186,366.708"/>
		<path clip-path="url(#SVGID_10_)" fill="#3EC6EC" d="M41.352,608.876c0.041,0.318,0.079,0.62,0.112,0.9
			C41.431,609.496,41.393,609.194,41.352,608.876"/>
		<path clip-path="url(#SVGID_10_)" fill="#3EC6EC" d="M41.584,626.638c-0.007,0.022-0.015,0.045-0.023,0.068
			C41.569,626.683,41.577,626.661,41.584,626.638"/>
		<path clip-path="url(#SVGID_10_)" fill="#3EC6EC" d="M42.796,375.084c-0.006,0.039-0.013,0.078-0.019,0.117
			C42.783,375.162,42.791,375.123,42.796,375.084"/>
		<path clip-path="url(#SVGID_10_)" fill="#3EC6EC" d="M41.489,626.929c-0.007,0.022-0.014,0.045-0.021,0.067
			C41.475,626.974,41.482,626.952,41.489,626.929"/>
		<path clip-path="url(#SVGID_10_)" fill="#3EC6EC" d="M46.771,351.225c-0.08,0.477-0.162,0.971-0.246,1.47
			c-0.008,0.052-0.017,0.103-0.025,0.155C46.591,352.295,46.683,351.752,46.771,351.225"/>
		<path clip-path="url(#SVGID_10_)" fill="#3EC6EC" d="M46.195,354.672c0.097-0.579,0.191-1.146,0.284-1.702
			c-0.009,0.056-0.018,0.11-0.028,0.167C46.367,353.641,46.282,354.15,46.195,354.672"/>
		<path clip-path="url(#SVGID_10_)" fill="#3EC6EC" d="M46.479,352.97c0.007-0.04,0.013-0.08,0.02-0.12
			c0.009-0.052,0.017-0.103,0.026-0.155c-0.025,0.147-0.049,0.294-0.074,0.442C46.46,353.08,46.47,353.026,46.479,352.97"/>
		<path clip-path="url(#SVGID_10_)" fill="#3EC6EC" d="M41.394,627.255c-0.005,0.021-0.011,0.038-0.016,0.058
			C41.383,627.293,41.389,627.275,41.394,627.255"/>
		<path clip-path="url(#SVGID_10_)" fill="#3EC6EC" d="M46.128,657.446l0.007,0.009L46.128,657.446z"/>
		<path clip-path="url(#SVGID_10_)" fill="#3EC6EC" d="M41.562,610.648c0.023,0.233,0.042,0.443,0.055,0.621
			C41.604,611.092,41.584,610.882,41.562,610.648"/>
		<path clip-path="url(#SVGID_10_)" fill="#3EC6EC" d="M44.523,364.679c-0.013,0.081-0.027,0.161-0.04,0.241
			C44.497,364.84,44.51,364.76,44.523,364.679"/>
		<path clip-path="url(#SVGID_10_)" fill="#3EC6EC" d="M41.118,385.396L41.118,385.396c-0.004,0.027-0.008,0.052-0.013,0.078
			C41.11,385.447,41.114,385.423,41.118,385.396"/>
		<path clip-path="url(#SVGID_10_)" fill="#3EC6EC" d="M41.754,626.182c-0.005,0.014-0.012,0.029-0.017,0.044
			C41.743,626.21,41.748,626.195,41.754,626.182"/>
		<path clip-path="url(#SVGID_10_)" fill="#3EC6EC" d="M41.042,606.604c0.055,0.385,0.107,0.759,0.157,1.119
			C41.148,607.363,41.097,606.989,41.042,606.604"/>
		<path clip-path="url(#SVGID_10_)" fill="#3EC6EC" d="M40.665,604.04L40.665,604.04c0.064,0.426,0.127,0.848,0.188,1.265
			C40.792,604.888,40.729,604.465,40.665,604.04"/>
		<path clip-path="url(#SVGID_10_)" fill="#3EC6EC" d="M40.859,605.347c0.06,0.405,0.118,0.803,0.173,1.192
			C40.977,606.15,40.919,605.751,40.859,605.347"/>
		<path clip-path="url(#SVGID_10_)" fill="#3EC6EC" d="M41.858,380.807c-0.002,0.014-0.004,0.027-0.007,0.041
			C41.854,380.834,41.856,380.821,41.858,380.807"/>
		<path clip-path="url(#SVGID_10_)" fill="#3EC6EC" d="M41.206,607.777c0.049,0.357,0.095,0.701,0.137,1.026
			C41.301,608.478,41.254,608.135,41.206,607.777"/>
		<path clip-path="url(#SVGID_10_)" fill="#3EC6EC" d="M41.817,626.027c-0.002,0.005-0.005,0.013-0.008,0.019
			C41.812,626.039,41.815,626.033,41.817,626.027"/>
		<path clip-path="url(#SVGID_10_)" fill="#3EC6EC" d="M42.162,378.942c-0.007,0.042-0.014,0.084-0.021,0.127
			C42.148,379.026,42.155,378.984,42.162,378.942"/>
		<path clip-path="url(#SVGID_10_)" fill="#3EC6EC" d="M41.573,382.56L41.573,382.56c0.002-0.011,0.004-0.023,0.005-0.035
			c0,0.006-0.001,0.011-0.002,0.017S41.574,382.554,41.573,382.56"/>
		<path clip-path="url(#SVGID_10_)" fill="#3EC6EC" d="M41.576,382.542c0.001-0.006,0.002-0.011,0.002-0.017
			c0.001-0.002,0.001-0.004,0.002-0.006C41.578,382.526,41.577,382.534,41.576,382.542"/>
		<path clip-path="url(#SVGID_10_)" fill="#3EC6EC" d="M41.862,625.92c-0.002,0.006-0.007,0.019-0.011,0.025
			C41.856,625.936,41.859,625.928,41.862,625.92"/>
		<path clip-path="url(#SVGID_10_)" fill="#3EC6EC" d="M41.377,627.313c0.003-0.013,0.007-0.024,0.01-0.037L41.377,627.313
			L41.377,627.313z"/>
		<path clip-path="url(#SVGID_10_)" fill="#3EC6EC" d="M45.427,359.269c0.255-1.526,0.502-3.005,0.739-4.426
			c0.01-0.058,0.019-0.113,0.029-0.171c0.087-0.522,0.172-1.031,0.256-1.535c-0.341,2.044-0.71,4.251-1.093,6.546
			C45.381,359.546,45.404,359.405,45.427,359.269"/>
		<path clip-path="url(#SVGID_10_)" fill="#3EC6EC" d="M46.771,351.225L46.771,351.225c-0.08,0.478-0.162,0.969-0.246,1.47
			C46.608,352.196,46.69,351.702,46.771,351.225"/>
		<path clip-path="url(#SVGID_10_)" fill="#3EC6EC" d="M41.105,385.474c0.004-0.026,0.008-0.051,0.013-0.078
			c-0.009,0.051-0.016,0.1-0.024,0.151C41.098,385.522,41.101,385.499,41.105,385.474"/>
		<path clip-path="url(#SVGID_10_)" fill="#3EC6EC" d="M44.483,364.92c0.013-0.081,0.027-0.161,0.04-0.241
			c0.012-0.074,0.024-0.147,0.037-0.22c-0.035,0.211-0.071,0.421-0.106,0.632C44.464,365.034,44.474,364.978,44.483,364.92"/>
		<path clip-path="url(#SVGID_10_)" fill="#3EC6EC" d="M41.573,382.56c0.001-0.006,0.002-0.012,0.003-0.018
			C41.575,382.548,41.574,382.554,41.573,382.56"/>
		<path clip-path="url(#SVGID_10_)" fill="#3EC6EC" d="M41.858,380.807c0.001-0.01,0.003-0.021,0.005-0.032
			c-0.003,0.018-0.006,0.035-0.008,0.053C41.856,380.821,41.857,380.814,41.858,380.807"/>
		<path clip-path="url(#SVGID_10_)" fill="#3EC6EC" d="M44.129,367.045c0.019-0.112,0.038-0.224,0.056-0.336
			c0.002-0.014,0.005-0.028,0.007-0.042c-0.022,0.136-0.045,0.273-0.068,0.409C44.126,367.066,44.128,367.055,44.129,367.045"/>
		<path clip-path="url(#SVGID_10_)" fill="#3EC6EC" d="M46.136,657.455l-0.003-0.003L46.136,657.455z"/>
		<path clip-path="url(#SVGID_10_)" fill="#3EC6EC" d="M41.472,609.838c-0.002-0.021-0.005-0.04-0.007-0.062
			c-0.034-0.28-0.072-0.582-0.113-0.9c-0.003-0.024-0.006-0.048-0.009-0.072c-0.042-0.322-0.087-0.663-0.136-1.018
			c0.152,1.112,0.276,2.09,0.35,2.821C41.534,610.375,41.505,610.116,41.472,609.838"/>
		<path clip-path="url(#SVGID_10_)" fill="#3EC6EC" d="M41.198,607.724c-0.05-0.36-0.102-0.734-0.157-1.119
			c-0.003-0.021-0.006-0.044-0.01-0.065c-0.055-0.39-0.113-0.787-0.172-1.192c-0.002-0.015-0.004-0.028-0.006-0.042
			c-0.062-0.417-0.125-0.839-0.189-1.265c0.195,1.29,0.379,2.557,0.534,3.688C41.198,607.728,41.198,607.726,41.198,607.724"/>
		<path clip-path="url(#SVGID_10_)" fill="#3EC6EC" d="M41.562,610.652c0.023,0.23,0.042,0.44,0.055,0.616
			C41.604,611.093,41.585,610.883,41.562,610.652"/>
		<path clip-path="url(#SVGID_10_)" fill="#3EC6EC" d="M41.654,626.444c0.005-0.016,0.011-0.03,0.017-0.045
			C41.665,626.414,41.659,626.43,41.654,626.444L41.654,626.444"/>
		<path clip-path="url(#SVGID_10_)" fill="#3EC6EC" d="M41.809,626.046c0.002-0.006,0.005-0.014,0.008-0.019
			c0-0.001,0-0.001,0-0.001c-0.003,0.007-0.007,0.016-0.009,0.023C41.808,626.049,41.809,626.047,41.809,626.046"/>
		<path clip-path="url(#SVGID_10_)" fill="#3EC6EC" d="M41.468,626.996c0-0.003,0.001-0.005,0.002-0.008
			C41.469,626.991,41.468,626.993,41.468,626.996z"/>
		<path clip-path="url(#SVGID_10_)" fill="#3EC6EC" d="M41.737,626.226c0.005-0.015,0.012-0.03,0.017-0.044
			c0-0.001,0.001-0.001,0.001-0.002C41.749,626.194,41.742,626.211,41.737,626.226L41.737,626.226"/>
		<path clip-path="url(#SVGID_10_)" fill="#3EC6EC" d="M41.618,611.287c0-0.003,0-0.006,0-0.008c0.013,0.184,0.02,0.337,0.02,0.452
			C41.638,611.618,41.631,611.467,41.618,611.287"/>
		<path clip-path="url(#SVGID_10_)" fill="#3EC6EC" d="M40.913,573.621l-0.248,0.549v-2.637l0.617-6.301
			c-0.202,1.021-0.403,1.152-0.617,1.063v-36.004c0.293-3.604,0.699-6.721,1.242-9.116c0.084-0.109,0.162-0.419,0.238-1.025
			c-0.084,0.317-0.16,0.68-0.238,1.025c-0.351,0.464-0.77-2.676-1.242-2.76v-9.284c0.587-14.103,0.468-29.777,0.781-43.813
			l0.09,0.288l0.563-7.757l-0.195-0.6l-0.402,5.469c0.202-7.477,0.541-14.518,1.236-20.399c-0.389-1.202-1.454-3.056-1.853-7.491
			c1.449-0.144-1.306-21.737,0.318-30.901c-0.31-0.959-0.31,2.037-0.538,1.775v-13.905c0.032-1.375,0.068-2.776,0.104-4.189
			c0.099-0.632,0.208-1.326,0.325-2.061c0.008-0.051,0.016-0.1,0.024-0.151c0.163,8.509,0.318,17.262,1.303,18.765
			c-0.426-6.473-0.681-13.82-0.847-21.601c0.001-0.006,0.002-0.012,0.003-0.018c0.001-0.008,0.002-0.016,0.003-0.024
			c0.088-0.542,0.178-1.099,0.271-1.67c0.001-0.007,0.002-0.014,0.004-0.02c0.002-0.018,0.005-0.035,0.008-0.053
			c0.091-0.556,0.184-1.125,0.279-1.706c0.007-0.042,0.014-0.084,0.021-0.127c0.197-1.204,0.403-2.456,0.615-3.741
			c0.006-0.039,0.012-0.078,0.019-0.117c0.426-2.582,0.876-5.293,1.327-8.008c0.023-0.137,0.046-0.273,0.069-0.41
			c0.087-0.525,0.175-1.05,0.262-1.575c0.035-0.211,0.07-0.421,0.105-0.632c0.27-1.615,0.537-3.213,0.798-4.776
			c0.383-2.295,0.752-4.502,1.094-6.546c0.024-0.148,0.049-0.295,0.073-0.442c0.084-0.501,0.166-0.992,0.246-1.47v0.564
			c-0.947,9.2-1.888,18.265-0.414,24.025c0.136-0.979,0.276-2.026,0.414-3.057v57.328c-0.152,0.989-0.308,1.954-0.474,2.874
			c0.005,2.233,0.021,9.029,0.471,11.306v84.604c-0.339,0.887-0.76-2.44-1.209,3.745c0.505,0.742,0.92-0.995,1.209-3.418V658.11
			c-0.235-0.209-0.443-0.43-0.632-0.655l-0.003-0.003l-0.004-0.006c-0.565-0.679-0.95-1.409-1.375-2.047
			c-0.956-1.438-1.676-14.632-1.676-15.596v-4.074c0,0,0.72-1.923,0.72-2.88c0-0.959-1.682-1.922-2.403-3.121
			c-0.049-0.083-0.088-0.173-0.12-0.268c0.008-0.607,0.015-1.213,0.022-1.817c0.025-0.112,0.052-0.223,0.081-0.33l0.01-0.038
			l0.006-0.021c0.024-0.088,0.049-0.175,0.074-0.259c0.001-0.003,0.002-0.005,0.003-0.008c0.006-0.02,0.012-0.039,0.019-0.06
			c0.024-0.077,0.048-0.151,0.072-0.223c0.008-0.022,0.016-0.046,0.023-0.068c0.023-0.067,0.046-0.132,0.069-0.192
			c0.006-0.016,0.011-0.031,0.017-0.046c0.001-0.004,0.002-0.007,0.003-0.01c0.022-0.059,0.043-0.113,0.063-0.163
			c0.006-0.016,0.012-0.032,0.018-0.047c0.019-0.049,0.037-0.093,0.053-0.13c0.003-0.008,0.007-0.017,0.01-0.023
			c0.014-0.034,0.025-0.06,0.034-0.081c0.003-0.007,0.008-0.02,0.011-0.025c0.007-0.016,0.013-0.029,0.013-0.029
			s0.481-3.361,0.481-4.321s-0.719-7.918-0.719-9.838c0-0.115-0.007-0.269-0.02-0.452c0-0.003,0-0.006-0.001-0.01v-0.001
			c-0.013-0.176-0.032-0.385-0.055-0.616v-0.004c-0.002-0.014-0.003-0.026-0.004-0.04v-0.001c-0.075-0.731-0.199-1.709-0.351-2.821
			c-0.001-0.003-0.001-0.006-0.001-0.009c-0.002-0.017-0.004-0.032-0.007-0.049c-0.155-1.132-0.34-2.398-0.534-3.688v-14.644
			C40.896,584.16,41.04,578.822,40.913,573.621"/>
		<path clip-path="url(#SVGID_10_)" fill="#3EC6EC" d="M50.677,624.244l0.025-0.239C50.696,624.098,50.687,624.176,50.677,624.244"
			/>
		<path clip-path="url(#SVGID_10_)" fill="#3EC6EC" d="M50.387,659.658c0.052,0.01,0.104,0.021,0.158,0.031
			C50.491,659.68,50.438,659.668,50.387,659.658"/>
		<path clip-path="url(#SVGID_10_)" fill="#3EC6EC" d="M49.929,659.563c0.041,0.009,0.086,0.018,0.129,0.026
			C50.015,659.581,49.97,659.572,49.929,659.563"/>
		<path clip-path="url(#SVGID_10_)" fill="#3EC6EC" d="M47.188,658.439c0.07,0.051,0.141,0.102,0.216,0.15
			C47.331,658.54,47.258,658.49,47.188,658.439"/>
		<path clip-path="url(#SVGID_10_)" fill="#3EC6EC" d="M49.556,659.48c-0.355-0.082-0.671-0.183-0.967-0.294
			C48.886,659.297,49.201,659.398,49.556,659.48"/>
		<path clip-path="url(#SVGID_10_)" fill="#3EC6EC" d="M48.589,659.187L48.589,659.187z"/>
		<path clip-path="url(#SVGID_10_)" fill="#3EC6EC" d="M47.806,658.829c0.135,0.072,0.281,0.14,0.43,0.205
			C48.087,658.968,47.94,658.901,47.806,658.829"/>
		<path clip-path="url(#SVGID_10_)" fill="#3EC6EC" d="M50.926,659.765c0.054,0.01,0.105,0.021,0.161,0.031
			C51.031,659.785,50.98,659.774,50.926,659.765"/>
		<polyline clip-path="url(#SVGID_10_)" fill="#3EC6EC" points="51.686,659.908 51.671,659.906 51.686,659.908 		"/>
		<path clip-path="url(#SVGID_10_)" fill="#3EC6EC" d="M50.387,659.658c-0.001-0.001-0.003-0.001-0.005-0.001
			c0.031,0.006,0.064,0.013,0.096,0.019C50.448,659.67,50.417,659.664,50.387,659.658"/>
		<path clip-path="url(#SVGID_10_)" fill="#3EC6EC" d="M50.059,659.59c-0.043-0.009-0.089-0.018-0.129-0.026
			c-0.001-0.001-0.002-0.001-0.002-0.001c0.042,0.01,0.09,0.02,0.135,0.028C50.062,659.591,50.06,659.591,50.059,659.59"/>
		<path clip-path="url(#SVGID_10_)" fill="#3EC6EC" d="M51.686,659.908c-0.005-0.001-0.009-0.002-0.014-0.002
			c-0.004-0.001-0.007-0.002-0.01-0.003C51.669,659.905,51.678,659.907,51.686,659.908"/>
		<path clip-path="url(#SVGID_10_)" fill="#3EC6EC" d="M48.589,659.187c0.296,0.11,0.612,0.212,0.967,0.294
			C49.201,659.398,48.885,659.297,48.589,659.187"/>
		<path clip-path="url(#SVGID_10_)" fill="#3EC6EC" d="M47.405,658.59c-0.075-0.049-0.146-0.1-0.216-0.15h-0.001
			C47.259,658.49,47.33,658.541,47.405,658.59z"/>
		<path clip-path="url(#SVGID_10_)" fill="#3EC6EC" d="M46.768,529.196c0.024-0.184,0.046-0.366,0.068-0.558
			c0.13-0.62,0.248-1.993,0.346-5.146l-0.346,5.146l-0.068,0.23v-84.604c0.204,1.018,0.492,1.136,0.909-0.478
			c1.818-8.556,3.064-12.52,3.126-29.907c-1.266-2.433-1.424,12.991-1.535,7.869c0.276-7.104-0.72-19.878,0.426-25.734l-0.15,18.63
			c1.938-0.182,0.08-7.724,1.037-11.022c1.562,5.005-0.155,15.437,0.733,23.07l0.092-1.268c-0.351,14.764,0.032,12.824-0.807,27.628
			c-1.738,0.836-1.076-5.013-1.772-12.005c-0.041,23.831-3.347,56.301-0.295,80.355l1.514-14.279
			c0.312,8.955-1.3,24.53,0.929,23.677c-0.706-10.214,0.661-5.812,1.036-11.013l-0.196-0.622c0.095-1.284,0.374-5.139,0.672-2.688
			c-1.205,7.724-1.622,20.259-2.316,28.893c0.488-3.781,1.189,4.236,1.522,5.268c-0.363,8.427-0.966,0.088-1.641-0.493
			c-0.09,4.525-1.33,11.754-0.16,15.481c0.98,6.303,1.046-7.799,1.912-9.844l-1.584,25.197l0.285-0.668
			c-0.379,1.991-0.661,5.863-0.367,8.423c0.779,2.49,0.961-3.321,0.756-7.137c1.179,13.225-2.574,23.201-0.173,34.438l-0.699,7.347
			c0.183,0.622,0.532,1.715,0.655,0.859l-0.733,6.897c-0.739,13.581,1.652,3.67,2.051,8.196l-0.014-0.672
			c0.274,4.144,0.975,7.26,1.184,4.369l-1.032,14.244l0.038-0.064c-0.176,0.685-0.336,1.606-0.486,2.693
			c-0.008-0.001-0.016-0.003-0.024-0.005c-0.202-0.037-0.392-0.073-0.575-0.107c-0.055-0.011-0.107-0.021-0.16-0.031
			c-0.133-0.025-0.26-0.051-0.381-0.075c-0.023-0.004-0.045-0.009-0.068-0.014c-0.031-0.006-0.064-0.013-0.095-0.019
			c-0.113-0.024-0.218-0.045-0.32-0.066c-0.044-0.009-0.092-0.019-0.135-0.028c-0.135-0.028-0.261-0.057-0.371-0.082
			c-0.355-0.082-0.671-0.184-0.967-0.294h-0.001c-0.125-0.047-0.237-0.101-0.352-0.152c-0.149-0.065-0.295-0.133-0.43-0.205
			c-0.14-0.077-0.275-0.156-0.401-0.239c-0.075-0.049-0.146-0.1-0.217-0.15c-0.147-0.107-0.291-0.215-0.42-0.329V529.196z"/>
		<polygon clip-path="url(#SVGID_10_)" fill="#3EC6EC" points="63.929,563.903 63.387,546.514 63.601,547.003 		"/>
		<polygon clip-path="url(#SVGID_10_)" fill="#3EC6EC" points="63.602,547.003 63.58,545.877 64.544,549.131 		"/>
	</g>
	<g clip-path="url(#SVGID_2_)">
		<defs>
			<rect id="SVGID_11_" width="612" height="792"/>
		</defs>
		<clipPath id="SVGID_12_">
			<use xlink:href="#SVGID_11_"  overflow="visible"/>
		</clipPath>
		<g opacity="0.35" clip-path="url(#SVGID_12_)">
			<g>
				<defs>
					<rect id="SVGID_13_" x="30.209" y="109.453" width="553.368" height="555.783"/>
				</defs>
				<clipPath id="SVGID_14_">
					<use xlink:href="#SVGID_13_"  overflow="visible"/>
				</clipPath>
				<g opacity="0.35" clip-path="url(#SVGID_14_)">
					<g>
						<defs>
							<rect id="SVGID_15_" x="30.209" y="110.333" width="86.871" height="382.396"/>
						</defs>
						<clipPath id="SVGID_16_">
							<use xlink:href="#SVGID_15_"  overflow="visible"/>
						</clipPath>
						<path clip-path="url(#SVGID_16_)" fill="#897F76" d="M117.08,126.516c0,0-2.374,7.279-2.853,8.718
							c-0.481,1.439-3.362,3.359-3.362,3.359s-1.436,12.475-1.678,14.875c-0.241,2.4,3.601,7.198,3.601,7.198v9.597l-3.615,0.419
							c0,0-14.62,41.329-16.54,48.527c-1.921,7.198-11.516,38.388-11.516,43.666c0,5.28-7.683,25.435-8.162,27.833
							c-0.478,2.398-13.433,53.745-15.353,57.583s-6.239,40.786-8.638,47.984c-2.398,7.199-3.356,13.437-5.278,23.514
							c-1.921,10.077-0.481,23.511-3.36,29.751c-2.878,6.239-9.597,43.19-9.597,43.19s-1.441-27.834,0.48-39.83
							c1.918-11.998,8.159-47.511,8.159-52.306c0-4.798,5.756-45.105,8.157-53.742c2.401-8.637,21.594-70.541,23.033-74.859
							c1.44-4.319,9.52-39.051,9.8-42.798c0.277-3.748,2.677-18.623,3.637-21.503c0.959-2.879,1.959-10.182,1.819-14.717
							c-0.142-4.536,0.993-9.641,0.993-9.641l0.423-6.734l2.34-6.591c0,0,3.063-8.382,3.063-10.303c0-1.919,1.97-6.206,2.185-8.621
							c0.214-2.415,0.214-5.296,0.214-5.296s0.089-6.213-0.026-8.641c0,0-0.175-6.717,0.165-9.593
							c0.341-2.878,1.638-7.901,1.638-10.299c0-1.374-0.443-7.048,0.509-6.92c0,0,2.453,5.393,4.392,7.513
							C106.239,122.802,117.08,126.516,117.08,126.516"/>
					</g>
				</g>
				<g opacity="0.5" clip-path="url(#SVGID_14_)">
					<g>
						<defs>
							<rect id="SVGID_17_" x="61.576" y="109.453" width="522.001" height="555.783"/>
						</defs>
						<clipPath id="SVGID_18_">
							<use xlink:href="#SVGID_17_"  overflow="visible"/>
						</clipPath>
						<g opacity="0.35" clip-path="url(#SVGID_18_)">
							<g>
								<defs>
									<rect id="SVGID_19_" x="345.996" y="109.453" width="237.581" height="546.907"/>
								</defs>
								<clipPath id="SVGID_20_">
									<use xlink:href="#SVGID_19_"  overflow="visible"/>
								</clipPath>
								<path clip-path="url(#SVGID_20_)" fill="#897F76" d="M444.04,133.272c0,0,2.726,27.872-10.709,34.591l-13.438,6.718
									c0,0,0,6.717,11.518,16.315c11.517,9.598,25.913,17.275,31.67,20.155c5.76,2.878,12.477,10.555,12.477,17.273
									c0,6.719-14.395,22.074-5.758,37.43c8.637,15.355,26.873,9.597,37.429,23.993c10.557,14.398,10.558,95.973,20.154,136.28
									c9.596,40.311,7.678,90.209,7.678,102.688c0,12.478-5.757,32.632-7.678,52.786c-1.92,20.154-8.638,23.994-8.638,28.793
									v13.433l2.88,31.671l-47.026,0.961c0,0-17.273-38.389-10.558-60.463c6.718-22.072,21.114-56.624,25.913-71.02
									c4.798-14.396,9.597-19.194,7.678-46.066c-1.919-26.871-7.679-23.991-6.719-57.583c0.961-33.59,0-54.702-2.879-62.38
									c-2.88-7.68-19.193,3.837-24.953,9.595c-5.757,5.762-47.026,34.553-61.422,48.948
									c-14.396,14.395-32.629,23.993-35.509,23.993c-2.878,0-20.154,9.593-20.154,9.593s7.448,5.521,11.47,18.084
									c6.896,21.553,12.368,56.875,15.401,70.212c4.8,21.114,12.477,65.263,12.477,71.98c0,6.715,4.643,31.734,4.643,31.734
									s64.219,12.733,81.492,12.733c17.275,0,86.615-2.479,90.936-6.078c4.318-3.599,5.038-8.638,5.038-8.638l1.198-12.479
									c0,0,18.233-119.003,14.396-150.673c-3.838-31.673-18.236-115.166-20.154-127.641c-1.918-12.48-3.12-36.234-7.678-47.029
									c-4.556-10.793-27.832-78.697-29.751-87.334c-1.919-8.637-0.956-19.668-2.396-24.231c-1.441-4.56-2.401-26.633-4.321-31.431
									c-1.92-4.8-4.316-15.113-4.316-15.113l-1.44-35.621c0,0-25.913,11.384-38.39,15.224
									C462.121,128.516,444.04,133.272,444.04,133.272"/>
							</g>
						</g>
						<g opacity="0.35" clip-path="url(#SVGID_18_)">
							<g>
								<defs>
									<rect id="SVGID_21_" x="225.792" y="445.435" width="164.195" height="206.704"/>
								</defs>
								<clipPath id="SVGID_22_">
									<use xlink:href="#SVGID_21_"  overflow="visible"/>
								</clipPath>
								<path clip-path="url(#SVGID_22_)" fill="#897F76" d="M364.472,631.646c0,0,6.223,4.998,11.036,6.48
									c5.068,1.558,14.479,4.86,14.479,4.86s-2.826-22.868-6.91-50.763c-7.243-49.494-22.813-126.579-33.576-137.763
									c-16.237-16.87-49.583-5.814-58.221-1.015c-8.638,4.8-24.941,11.929-35.498,53.195c0,0-11.944,39.086-13.677,52.386
									c-1.735,13.299-8.962,44.519-9.251,49.146c-0.29,4.626-2.889,10.407-2.889,18.211s-1.293,16.898-1.293,16.898l-2.879,8.761
									c0,0,3.022,0.415,4.318-0.481c1.298-0.895,5.058-2.05,5.923-2.92c0.865-0.866,4.398-5.956,4.398-5.956
									s0.728-3.604,0.477-5.039c-0.249-1.435,1.482-7.508,2.641-11.552c1.158-4.049,1.158-6.938,1.158-6.938
									s2.998-3.166,2.599-4.335c-0.397-1.171,0.289-7.229,0.867-8.675c0.579-1.445,15.325-31.511,27.174-69.38
									c9.228-29.489,18.505-69.667,19.082-71.983c0.575-2.313,3.103-12.127,3.103-12.127s12.625-5.152,14.157-4.317
									c1.529,0.836,12.543,61.989,17.427,78.021c4.887,16.033,15.899,51.172,18.793,55.217c2.891,4.044,4.669,11.524,4.669,11.524
									s0.926,1.377,2.029,4.611c1.107,3.233,4.575,11.616,5.443,15.086c0.865,3.469,2.216,6.747,2.264,9.01
									c0.047,2.265-0.242,3.995,0.336,6.02C363.229,629.854,364.472,631.646,364.472,631.646"/>
							</g>
						</g>
						<g opacity="0.35" clip-path="url(#SVGID_18_)">
							<g>
								<defs>
									<rect id="SVGID_23_" x="61.576" y="151.446" width="157.678" height="513.791"/>
								</defs>
								<clipPath id="SVGID_24_">
									<use xlink:href="#SVGID_23_"  overflow="visible"/>
								</clipPath>
								<path clip-path="url(#SVGID_24_)" fill="#897F76" d="M141.576,664.516c0,0,6.479-35.268,0.721-51.104
									c-5.757-15.834-3.599-63.34-12.237-77.018c-8.637-13.676-27.35-17.993-18.712-40.307
									c8.635-22.315,36.707-47.509,31.669-74.139c-5.038-26.634-11.517-49.664-8.637-51.104
									c2.877-1.439,38.148-14.396,42.467-17.996c4.319-3.598,54.702-9.356,39.588-48.226
									c-15.116-38.867-20.154-53.983-23.753-74.137c-3.598-20.155,12.235-61.902,12.235-61.902l5.762-0.719
									c0,0-49.667-4.319-59.745-5.76c-10.077-1.438-29.511-8.636-33.109-9.356c-3.599-0.72-8.638-2.879-8.638,0.72
									c0,3.598,8.638,5.758,11.516,7.198c2.878,1.438,30.952,7.917,30.952,7.917s4.319,2.159,4.319,8.639
									c0,6.477-3.6,14.394-9.358,23.752c-5.759,9.356-18.714,2.878-26.633,29.511c-7.918,26.633-12.235,47.506-15.115,66.94
									c-2.88,19.435-16.556,61.902-23.752,79.897c-7.199,17.993-20.876,73.417-19.435,86.374
									C63.12,476.652,65.28,509.763,66,519.84c0.719,10.077,3.598,65.501,3.598,70.538c0,5.038,12.957,28.07,16.556,34.549
									c3.597,6.479,6.479,10.796,7.918,17.274s2.159,21.596,2.159,21.596s11.517,1.438,20.873,1.438
									C126.463,665.235,141.576,664.516,141.576,664.516"/>
							</g>
						</g>
					</g>
				</g>
			</g>
		</g>
	</g>
	<g clip-path="url(#SVGID_2_)">
		<defs>
			<rect id="SVGID_25_" width="612" height="792"/>
		</defs>
		<clipPath id="SVGID_26_">
			<use xlink:href="#SVGID_25_"  overflow="visible"/>
		</clipPath>
		<g clip-path="url(#SVGID_26_)">
			<g>
				<defs>
					<rect id="SVGID_27_" x="41.53" y="99.016" width="529.878" height="544.648"/>
				</defs>
				<clipPath id="SVGID_28_">
					<use xlink:href="#SVGID_27_"  overflow="visible"/>
				</clipPath>
				<g opacity="0.5" clip-path="url(#SVGID_28_)">
					<g>
						<defs>
							<rect id="SVGID_29_" x="95.297" y="135.06" width="426.319" height="39.221"/>
						</defs>
						<clipPath id="SVGID_30_">
							<use xlink:href="#SVGID_29_"  overflow="visible"/>
						</clipPath>
						
							<path clip-path="url(#SVGID_30_)" fill="none" stroke="#897F76" stroke-width="1.201" stroke-miterlimit="10" stroke-dasharray="2.894,1.447" d="
							M95.643,173.162c0,0,12.89-9.098,24.031-13.754c11.14-4.656,54.952-18.135,84.408-21.565
							c29.456-3.428,93.813-2.203,140.102-0.488c46.29,1.715,109.657,6.859,116.094,7.349c6.435,0.491,18.074,1.226,20.299,1.715
							c2.229,0.491,19.307,4.411,24.013,8.087c4.7,3.676,6.185,5.393,7.176,6.862c0.99,1.469,2.427,2.192,2.427,2.192l6.925,10.389"
							/>
					</g>
				</g>
				<g opacity="0.5" clip-path="url(#SVGID_28_)">
					<g>
						<defs>
							<rect id="SVGID_31_" x="93.605" y="112.114" width="422.085" height="43.194"/>
						</defs>
						<clipPath id="SVGID_32_">
							<use xlink:href="#SVGID_31_"  overflow="visible"/>
						</clipPath>
						
							<path clip-path="url(#SVGID_32_)" fill="none" stroke="#897F76" stroke-width="1.201" stroke-miterlimit="10" stroke-dasharray="2.894,1.447" d="
							M94.188,155.166c0.256-1.054,0.98-4.582,1.97-5.805c0.989-1.225,14.109-8.823,37.873-16.418
							c23.764-7.596,68.813-18.133,98.519-19.847c29.703-1.716,89.851,2.94,133.416,2.45c43.564-0.491,106.441,8.331,124.016,12.251
							c17.572,3.921,25.211,15.178,25.211,15.178"/>
					</g>
				</g>
				<g opacity="0.5" clip-path="url(#SVGID_28_)">
					<g>
						<defs>
							<rect id="SVGID_33_" x="98.176" y="99.016" width="417.519" height="30.717"/>
						</defs>
						<clipPath id="SVGID_34_">
							<use xlink:href="#SVGID_33_"  overflow="visible"/>
						</clipPath>
						
							<path clip-path="url(#SVGID_34_)" fill="none" stroke="#897F76" stroke-width="1.201" stroke-miterlimit="10" stroke-dasharray="2.894,1.447" d="
							M98.638,128.291c0,0,4.065-4.907,43.669-16.669c39.605-11.762,80.338-13.965,160.542-10.533
							c80.198,3.431,126.983,3.92,159.904,9.556c32.923,5.637,36.882,8.333,39.854,9.557c2.971,1.225,7.926,3.429,9.16,4.655
							c1.235,1.226,3.426,4.546,3.426,4.546"/>
					</g>
				</g>
				<g opacity="0.5" clip-path="url(#SVGID_28_)">
					<g>
						<defs>
							<rect id="SVGID_35_" x="352.038" y="592.846" width="219.37" height="32.463"/>
						</defs>
						<clipPath id="SVGID_36_">
							<use xlink:href="#SVGID_35_"  overflow="visible"/>
						</clipPath>
						
							<path clip-path="url(#SVGID_36_)" fill="none" stroke="#897F76" stroke-width="1.195" stroke-miterlimit="10" stroke-dasharray="2.879,1.44" d="
							M571.291,616.533c0,0-27.808,5.523-56.949,6.631c-29.144,1.108-40.394,3.877-79.313-2.578
							c-38.921-6.456-54.416-9.408-59.949-11.806c-5.533-2.398-11.436-4.425-14.201-6.27c-2.768-1.844-6.088-4.061-6.272-4.797
							c-0.184-0.737-2.029-4.611-2.029-4.611"/>
					</g>
				</g>
				<g opacity="0.5" clip-path="url(#SVGID_28_)">
					<g>
						<defs>
							<rect id="SVGID_37_" x="359.167" y="610.075" width="211.193" height="22.728"/>
						</defs>
						<clipPath id="SVGID_38_">
							<use xlink:href="#SVGID_37_"  overflow="visible"/>
						</clipPath>
						
							<path clip-path="url(#SVGID_38_)" fill="none" stroke="#897F76" stroke-width="1.195" stroke-miterlimit="10" stroke-dasharray="2.879,1.44" d="
							M570.229,623.906c0,0-36.89,8.299-68.614,8.299c-31.726,0-62.896-2.214-93.885-8.669c-30.99-6.455-42.059-9.594-43.902-10.699
							c-1.843-1.104-4.424-2.213-4.424-2.213"/>
					</g>
				</g>
				<g opacity="0.5" clip-path="url(#SVGID_28_)">
					<g>
						<defs>
							<rect id="SVGID_39_" x="43.133" y="626.639" width="201.097" height="17.025"/>
						</defs>
						<clipPath id="SVGID_40_">
							<use xlink:href="#SVGID_39_"  overflow="visible"/>
						</clipPath>
						
							<path clip-path="url(#SVGID_40_)" fill="none" stroke="#897F76" stroke-width="1.195" stroke-miterlimit="10" stroke-dasharray="2.879,1.44" d="
							M243.807,627.062c0,0-2.779,2.779-7.868,3.703c-2.772,0.503-4.748,0.281-4.748,0.281s-41.765,5.964-53.104,7.587
							c-11.339,1.622-36.335,6.479-72.433,3.471c-36.1-3.008-62.446-6.374-62.446-6.374"/>
					</g>
				</g>
				<g opacity="0.5" clip-path="url(#SVGID_28_)">
					<g>
						<defs>
							<rect id="SVGID_41_" x="41.53" y="617.178" width="205.664" height="17.96"/>
						</defs>
						<clipPath id="SVGID_42_">
							<use xlink:href="#SVGID_41_"  overflow="visible"/>
						</clipPath>
						
							<path clip-path="url(#SVGID_42_)" fill="none" stroke="#897F76" stroke-width="1.195" stroke-miterlimit="10" stroke-dasharray="2.879,1.44" d="
							M246.583,617.343c0,0,1.388,4.858-24.066,8.331c-25.455,3.471-58.548,11.339-107.838,8.102
							c-49.294-3.239-71.291-6.05-72.672-7.885"/>
					</g>
				</g>
			</g>
		</g>
		<g opacity="0.5" clip-path="url(#SVGID_26_)">
			<g>
				<defs>
					<rect id="SVGID_43_" x="85.033" y="116.261" width="14.003" height="83.719"/>
				</defs>
				<clipPath id="SVGID_44_">
					<use xlink:href="#SVGID_43_"  overflow="visible"/>
				</clipPath>
				
					<path clip-path="url(#SVGID_44_)" fill="none" stroke="#897F76" stroke-width="0.797" stroke-miterlimit="10" stroke-dasharray="2.879,1.44" d="
					M96.714,116.306c0,0,0.45,3.896,0.941,5.857c0.494,1.961,0.983,4.413,0.983,6.127c0,1.715-0.249,4.165-0.737,5.637
					c-0.489,1.471-3.115,8.479-2.661,9.998c0.456,1.518,2.172,4.947,2.172,6.907c0,1.961-0.737,13.233-1.471,16.173
					c-0.733,2.942-4.162,15.926-5.636,18.377c-1.47,2.451-2.207,5.636-2.45,7.106c-0.245,1.472-2.449,7.352-2.449,7.352"/>
			</g>
		</g>
		<g opacity="0.5" clip-path="url(#SVGID_26_)">
			<g>
				<defs>
					<rect id="SVGID_45_" x="228.272" y="445.881" width="162.746" height="206.398"/>
				</defs>
				<clipPath id="SVGID_46_">
					<use xlink:href="#SVGID_45_"  overflow="visible"/>
				</clipPath>
				
					<path clip-path="url(#SVGID_46_)" fill="none" stroke="#897F76" stroke-width="0.797" stroke-miterlimit="10" stroke-dasharray="2.879,1.44" d="
					M228.67,652.278v-8.995c0-1.082,2.878-5.759,3.6-7.197c0.719-1.439,0-3.599-1.079-5.04c-1.082-1.438-0.36-3.599,1.079-5.398
					c1.441-1.799,1.08-5.039,1.08-5.039l-1.441-2.52c0,0,4.679-15.835,5.038-20.874c0.363-5.036,8.279-39.228,13.317-59.38
					c5.039-20.156,8.637-56.504,29.87-77.379c13.475-13.246,45.708-16.916,60.824-12.234c15.115,4.678,17.274,24.832,20.873,39.227
					s19.075,91.773,20.515,98.971c1.44,7.198,8.278,55.782,8.278,55.782"/>
			</g>
		</g>
	</g>
</g>
  <g id="CUSTOM"></g>
</svg>
