<?xml version="1.0" encoding="utf-8"?>
<!-- Generator: Adobe Illustrator 16.0.0, SVG Export Plug-In . SVG Version: 6.00 Build 0)  -->
<!DOCTYPE svg PUBLIC "-//W3C//DTD SVG 1.1//EN" "http://www.w3.org/Graphics/SVG/1.1/DTD/svg11.dtd">
<svg version="1.1" id="Layer_1" xmlns="http://www.w3.org/2000/svg" xmlns:xlink="http://www.w3.org/1999/xlink" x="0px" y="0px"
	 width="612px" height="792px" viewBox="0 0 452 756" enable-background="new 0 0 612 792" xml:space="preserve">
<g>
	<defs>
		<rect id="SVGID_1_" x="41.93" y="45.588" width="537" height="694.941"/>
	</defs>
	<clipPath id="SVGID_2_">
		<use xlink:href="#SVGID_1_"  overflow="visible"/>
	</clipPath>
	<g clip-path="url(#SVGID_2_)">
		<defs>
			<rect id="SVGID_3_" x="41.93" y="45.588" width="537" height="694.941"/>
		</defs>
		<clipPath id="SVGID_4_">
			<use xlink:href="#SVGID_3_"  overflow="visible"/>
		</clipPath>
    <g id="SHORT_MASK">
                <g id="BOTTOM_LEGS">
		<path clip-path="url(#SVGID_4_)" fill="#BF2A43" d="M453.142,619.616c-0.38-2.781-4.677-31.22-5.058-34.254
			c-0.379-3.032-4.044-24.521-4.298-26.29c-0.252-1.77-4.043-12.892-6.066-19.717c-2.023-6.827-7.96-26.343-8.668-29.257
			c-0.711-2.911-1.903-9.146-2.056-10.23c-0.147-1.082-0.409-5.003-0.485-5.75c-0.073-0.747-1.119-4.368-1.119-4.368
			s-0.261-1.83-0.673-4.032c-0.409-2.204-0.597-4.93-0.597-4.93s0.074-1.27,0.074-2.391c0-1.118-0.597-2.688-0.597-2.688
			s0-1.494-0.223-3.548c-0.225-2.054-1.232-3.472-1.232-3.472l-2.242-8.665c0,0-0.113-0.223-0.523-1.306s-0.261-3.511-0.223-3.772
			c0.038-0.261,0.148-2.575,0.148-3.321c0-0.747,0.149-4.631-0.11-5.302c-0.262-0.672-0.523-2.354-0.711-3.474
			c-0.187-1.119-0.149-3.883-0.074-4.22c0.076-0.336-0.598-2.166-0.785-1.681c-0.186,0.486-1.344,1.979-2.128,3.586
			c-0.786,1.606-4.315,3.657-4.315,3.657c-1.814,0.991-7.369,3.492-22.394,5.311c-15.025,1.815-42.432,2.475-83.711,3.96
			c-41.275,1.484-50.853-1.485-69.674-4.126c-18.822-2.643-36.323-12.551-36.323-12.551s0.505,1.955,0.505,4.356
			s-1.012,3.666-1.266,4.93c-0.252,1.265,0.507,3.792,0.507,4.551c0,0.758-0.507,1.896-0.633,2.527
			c-0.127,0.632,0.126,1.645,0.126,2.4c0,0.761-0.378,3.413-0.758,4.174c-0.379,0.757-1.642,5.813-2.021,7.963
			c-0.379,2.147-1.518,10.996-1.77,12.386c-0.253,1.391-0.632,9.227-1.012,10.744c-0.378,1.518-3.665,10.997-3.792,12.135
			s-2.781,9.858-3.033,10.618c-0.253,0.758-5.564,17.063-6.701,19.591c-1.137,2.529-4.17,14.031-4.423,14.789
			c-0.253,0.759-2.147,17.189-3.54,25.405c-1.391,8.219-4.802,23.891-5.94,29.325c-1.138,5.434-2.528,22.752-2.654,30.716
			c-0.127,7.963,1.77,34.633,1.77,35.897c0,1.262,1.77,16.938,1.896,17.821c0.126,0.885,0.631,4.678,0.631,5.057
			c0,0.378,1.265,10.49,1.391,11.755c0.125,1.263,2.022,12.893,2.022,12.893s0,1.77,0.379,2.654s1.138,1.516,2.275,1.896
			c1.138,0.38,6.067,1.642,19.212,3.159c13.146,1.518,36.278,0.128,47.654-1.518c11.376-1.643,22.498-5.305,22.498-5.305
			s0.369,0.021,0.871,0.038c1.198-7.967,4.033-26.711,4.629-29.683c0.757-3.791,8.911-44.556,10.808-52.139
			c1.895-7.583,3.032-18.201,10.995-20.666c7.963-2.467,24.944-0.532,32.043,6.445c11.186,10.998,13.082,30.147,15.736,40.765
			s6.824,28.629,7.015,31.282c0.19,2.655,2.655,10.997,2.655,10.997l-0.76,1.326c0,0-0.189,1.709,0.568,2.656
			c0.759,0.948,1.14,2.086,0.569,2.845c-0.569,0.759-0.947,1.896-0.569,2.654c0.382,0.759,1.897,3.222,1.897,3.792
			c0,0.313,0.052,2.539,0.096,4.468c0.722,0.082,1.421,0.147,1.421,0.147s14.41,4.423,33.244,6.572
			c18.83,2.148,40.065-0.379,45.502-0.76c5.435-0.379,12.387-1.518,14.029-1.895c1.644-0.38,2.024-1.393,2.529-2.151
			c0.505-0.758,0.883-7.708,0.883-8.216v-2.146c0,0-0.378-1.012-0.378-1.517s0.886-1.012,1.265-1.644
			c0.381-0.635-0.253-2.022-0.253-2.022s-0.253-1.77-0.253-2.277c0-0.506,0.379-4.17,0.379-5.182s1.011-7.331,1.266-8.723
			c0.252-1.39,2.021-14.534,2.778-18.957c0.76-4.424,1.518-18.328,1.897-27.935C453.646,636.177,453.521,622.398,453.142,619.616"/>
	</g>
      <g id="BOTTOM_LEG_LOWER_STRIP">
		<path clip-path="url(#SVGID_6_)" fill="#3EC6EC" d="M167.161,693.899c0.357,3.034,1.107,9.07,1.203,10.027
			c0.125,1.263,2.021,12.893,2.021,12.893s0,1.77,0.379,2.654s1.138,1.516,2.275,1.896c1.139,0.379,6.067,1.642,19.213,3.159
			c13.145,1.518,36.276,0.128,47.653-1.518c11.377-1.643,22.498-5.305,22.498-5.305s0.368,0.021,0.871,0.038
			c0.818-5.439,2.398-15.896,3.508-22.933c-13.826,2.063-30.488,3.912-49.006,4.71C190.986,700.677,175.711,697.399,167.161,693.899
			"/>
		<path clip-path="url(#SVGID_6_)" fill="#3EC6EC" d="M448.247,694.722c-7.286,1.076-17.443,1.861-31.55,2.075
			c-28.708,0.435-53.975-2.227-72.517-5.119c0.18,0.967,0.292,1.686,0.32,2.071c0.19,2.655,2.655,10.997,2.655,10.997l-0.76,1.326
			c0,0-0.189,1.709,0.568,2.656c0.759,0.948,1.14,2.086,0.569,2.845c-0.569,0.759-0.947,1.896-0.569,2.653
			c0.382,0.76,1.897,3.223,1.897,3.792c0,0.314,0.052,2.54,0.096,4.469c0.722,0.082,1.421,0.147,1.421,0.147
			s14.41,4.423,33.243,6.571c18.831,2.149,40.066-0.378,45.503-0.759c5.435-0.379,12.387-1.518,14.029-1.895
			c1.644-0.38,2.024-1.393,2.529-2.151c0.505-0.758,0.883-7.708,0.883-8.216v-2.146c0,0-0.378-1.012-0.378-1.517
			s0.886-1.012,1.265-1.644c0.381-0.635-0.254-2.022-0.254-2.022s-0.252-1.77-0.252-2.277c0-0.507,0.379-4.17,0.379-5.182
			C447.326,700.663,447.859,697.134,448.247,694.722"/>
	</g>
      <g id="BOTTOM_LEG_UPPER_STRIP">
		<path clip-path="url(#SVGID_8_)" fill="#FFCE2A" d="M274.717,654.471c-9.514,0.886-21.392,1.729-36.049,2.361
			c-38.218,1.647-64.002-2.68-75.282-5.181c0.493,8.668,1.06,16.952,1.06,17.643c0,1.262,1.77,16.938,1.895,17.821
			c0.127,0.885,0.632,4.678,0.632,5.056c0,0.093,0.074,0.759,0.188,1.729c8.55,3.5,23.826,6.777,50.616,5.622
			c18.518-0.798,35.181-2.647,49.007-4.71c0.516-3.272,0.933-5.808,1.12-6.75C268.381,685.676,271.785,668.654,274.717,654.471"/>
		<path clip-path="url(#SVGID_8_)" fill="#FFCE2A" d="M416.697,696.797c14.106-0.214,24.264-0.999,31.55-2.075
			c0.147-0.911,0.275-1.664,0.345-2.047c0.252-1.39,2.021-14.534,2.778-18.957c0.652-3.797,1.303-14.578,1.715-23.63
			c-10.577,1.431-29.374,3.079-61.366,3.564c-25.613,0.388-43.926-0.55-56.507-1.753c0.847,3.947,1.531,7.593,2.274,10.567
			c2.27,9.072,5.641,23.537,6.694,29.211C362.723,694.57,387.989,697.231,416.697,696.797"/>
	</g>
</g>
      </g>
  <g id="XYZ">
         <g id="BODY">
		<path clip-path="url(#SVGID_18_)" fill="#004D86" d="M305.077,453.463c41.278-1.485,68.685-2.145,83.71-3.96
			c15.024-1.818,20.579-4.319,22.394-5.311c0,0,3.529-2.051,4.315-3.657c0.577-1.183,1.354-2.3,1.8-3.002
			c-2.433-15.486-5.093-31.02-6.625-39.292c-2.91-15.711,0.581-52.952,3.491-67.499c2.909-14.547,6.983-61.681,6.4-69.245
			c-0.5-6.508,2.012-21.188,2.725-25.165c-0.014-2.67,0.074-6.888,0.667-9.849c0.929-4.646,8.052-43.974,9.6-51.406
			c1.549-7.432,8.361-32.515,9.6-39.329c0.875-4.807,1.132-11.769,1.208-15.455c-0.683-0.472-1.104-0.779-1.104-0.779
			s-15.711-5.237-37.824-13.965c-13.955-5.51-26.284-13.797-34.216-19.749c-3.93,4.285-20.363,19.146-59.559,19.534
			c-38.861,0.385-57.577-16.238-62.558-21.549c-7.659,5.957-21.236,15.599-36.854,21.765c-22.113,8.729-37.823,13.965-37.823,13.965
			s-0.515,0.373-1.316,0.926v0.004c0.01,0.445,0.022,0.937,0.037,1.461c0.002,0.043,0.002,0.085,0.004,0.128
			c0.007,0.245,0.015,0.498,0.023,0.757c0.001,0.016,0.001,0.03,0.002,0.046c0.01,0.272,0.02,0.553,0.031,0.837
			c0.002,0.057,0.005,0.113,0.007,0.169c0.01,0.23,0.02,0.465,0.03,0.701c0.003,0.073,0.007,0.144,0.01,0.217
			c0.014,0.29,0.027,0.584,0.042,0.883c0.002,0.038,0.004,0.077,0.006,0.115c0.013,0.259,0.028,0.521,0.043,0.782
			c0.006,0.092,0.01,0.186,0.017,0.278c0.015,0.25,0.03,0.503,0.047,0.755c0.004,0.058,0.007,0.115,0.011,0.174
			c0.02,0.306,0.042,0.613,0.065,0.92l0.019,0.25c0.018,0.235,0.036,0.471,0.057,0.708l0.023,0.279
			c0.026,0.309,0.053,0.615,0.082,0.921c0.003,0.034,0.007,0.068,0.011,0.102c0.026,0.274,0.055,0.547,0.082,0.82
			c0.011,0.091,0.021,0.183,0.03,0.275c0.026,0.24,0.055,0.479,0.082,0.717c0.008,0.068,0.016,0.137,0.024,0.203
			c0.037,0.295,0.075,0.586,0.114,0.872c0.008,0.07,0.019,0.139,0.029,0.207c0.031,0.227,0.065,0.45,0.099,0.67
			c0.012,0.08,0.024,0.161,0.038,0.239c0.045,0.277,0.09,0.552,0.139,0.817c1.238,6.813,8.051,31.896,9.599,39.329
			c1.549,7.432,8.671,46.76,9.601,51.406c0.063,0.319,0.121,0.653,0.173,0.999c0.005,0.027,0.009,0.057,0.012,0.085
			c0.049,0.323,0.093,0.654,0.132,0.993c0.004,0.036,0.008,0.072,0.012,0.109c0.039,0.343,0.074,0.69,0.104,1.043
			c0.003,0.025,0.005,0.051,0.007,0.076c0.033,0.376,0.061,0.756,0.084,1.136c0.001,0.005,0.001,0.011,0.001,0.016
			c0.025,0.375,0.044,0.75,0.062,1.122c0,0.032,0.001,0.063,0.003,0.094c0.016,0.353,0.029,0.702,0.039,1.045
			c0.001,0.03,0.001,0.061,0.002,0.093c0.011,0.356,0.019,0.707,0.023,1.047c0,0.006,0.001,0.011,0.001,0.017
			c0.005,0.356,0.009,0.7,0.011,1.029c0.019-0.047,0.03-0.074,0.03-0.074s3.49,18.621,2.909,26.186
			c-0.583,7.564,3.491,54.698,6.401,69.245c2.909,14.547,6.401,51.788,3.491,67.499c-1.531,8.266-4.189,23.779-6.619,39.254
			c4.392,2.311,19.234,9.626,35.01,11.842C254.224,451.978,263.801,454.947,305.077,453.463"/>
           
		<path clip-path="url(#SVGID_18_)" fill="#004D86" d="M198.32,455.552c0-0.757-0.254-1.77-0.127-2.401
			c0.127-0.632,0.633-1.77,0.633-2.527c0-0.283-0.106-0.813-0.226-1.432c-0.701,4.722-1.342,9.247-1.89,13.363
			c0.354-1.36,0.686-2.501,0.85-2.83C197.94,458.964,198.32,456.312,198.32,455.552"/>
	</g>
    
      <g id="BODY_STRIP3">
		<path clip-path="url(#SVGID_20_)" fill="#4C0107" d="M413.845,332.415h-210.01c0.432,2.369,0.871,5.19,1.295,8.329h207.42
			C412.974,337.604,413.413,334.784,413.845,332.415"/>
	</g>
      <g id="BODY_STRIP2">
		<path clip-path="url(#SVGID_22_)" fill="#00AB5D" d="M414.162,330.742c0.356-1.783,0.731-4.06,1.111-6.689H202.406
			c0.38,2.629,0.754,4.906,1.112,6.689c0.103,0.516,0.207,1.068,0.312,1.641h210.022
			C413.955,331.811,414.059,331.258,414.162,330.742"/>
	</g>
      <g id="BODY_STRIP1">
		<path clip-path="url(#SVGID_24_)" fill="#004D86" d="M416.377,315.629H201.301c0.364,3.018,0.73,5.832,1.09,8.328h212.897
			C415.648,321.461,416.016,318.647,416.377,315.629"/>
	</g>
    <g id="CHEST">
		<path clip-path="url(#SVGID_26_)" fill="#FDBB2D" d="M420.563,261.497c-0.5-6.508,2.012-21.187,2.724-25.165
			c-0.013-2.67,0.075-6.887,0.668-9.849c0.929-4.646,8.052-43.974,9.6-51.405c1.404-6.735,7.129-27.961,9.112-36.957l-267.956-0.408
			c1.892,8.736,7.775,30.523,9.2,37.365c1.549,7.431,8.671,46.76,9.6,51.405c0.064,0.318,0.122,0.653,0.174,0.998
			c0.004,0.029,0.008,0.057,0.013,0.087c0.048,0.322,0.091,0.654,0.131,0.991c0.004,0.036,0.008,0.072,0.012,0.109
			c0.04,0.343,0.074,0.691,0.105,1.043c0.003,0.025,0.005,0.051,0.007,0.076c0.033,0.376,0.061,0.756,0.084,1.136
			c0.001,0.005,0.001,0.01,0.001,0.016c0.025,0.375,0.044,0.751,0.062,1.123c0.001,0.031,0.003,0.061,0.003,0.093
			c0.016,0.352,0.028,0.701,0.039,1.044c0.001,0.031,0.002,0.063,0.003,0.093c0.009,0.358,0.018,0.708,0.022,1.046
			c0,0.007,0,0.013,0,0.018c0.005,0.357,0.009,0.701,0.011,1.03c0.019-0.048,0.029-0.074,0.029-0.074s3.491,18.62,2.909,26.184
			c-0.44,5.735,1.794,34.209,4.168,53.988l215.085,0.218C418.752,295.917,421.006,267.253,420.563,261.497"/>
	</g>
</g>
  <g id="CUSTOM"></g>
	<g clip-path="url(#SVGID_2_)">
		<defs>
			<rect id="SVGID_5_" x="41.93" y="45.588" width="537" height="694.941"/>
		</defs>
		<clipPath id="SVGID_6_">
			<use xlink:href="#SVGID_5_"  overflow="visible"/>
		</clipPath>
    
    </g>
	<g clip-path="url(#SVGID_2_)">
		<defs>
			<rect id="SVGID_7_" x="41.93" y="45.588" width="537" height="694.941"/>
		</defs>
		<clipPath id="SVGID_8_">
			<use xlink:href="#SVGID_7_"  overflow="visible"/>
		</clipPath>
     
    </g>
	<g clip-path="url(#SVGID_2_)">
		<defs>
			<rect id="SVGID_9_" x="41.93" y="45.588" width="537" height="694.941"/>
		</defs>
		<clipPath id="SVGID_10_">
			<use xlink:href="#SVGID_9_"  overflow="visible"/>
		</clipPath>
    <g id="CROTCH">
		<path clip-path="url(#SVGID_10_)" fill="#004D86" d="M346.965,714.228c-0.378-0.758,0-1.896,0.569-2.654
			c0.57-0.759,0.189-1.896-0.569-2.845c-0.758-0.947-0.568-2.656-0.568-2.656l0.76-1.326c0,0-2.465-8.342-2.655-10.997
			c-0.19-2.653-4.36-20.665-7.015-31.282s-4.551-29.767-15.736-40.765c-7.099-6.978-24.08-8.912-32.043-6.445
			c-7.964,2.465-9.101,13.083-10.996,20.666c-1.895,7.583-10.05,48.348-10.807,52.139c-0.596,2.972-3.431,21.716-4.629,29.683
			c0.674,0.022,1.582,0.032,2.162-0.038c1.012-0.128,1.896-1.393,1.896-1.393s2.148-0.506,4.172-1.01
			c2.021-0.509,4.043-1.645,5.813-3.414c1.771-1.771,1.138-5.184,1.138-5.184s1.265-4.802,1.642-6.192
			c0.382-1.391,2.655-6.068,3.161-7.206c0.507-1.137,0.381-2.526,0.381-2.526s6.066-14.536,9.73-25.911
			c3.666-11.378,11.757-49.552,11.757-49.552l7.456,2.275c0,0,1.644,5.688,1.77,7.459c0.129,1.771,3.287,13.777,3.919,16.307
			c0.633,2.528,5.057,17.948,6.571,22.372c1.519,4.424,8.597,23.384,9.86,26.417c1.264,3.035,4.299,9.227,4.425,9.86
			c0.126,0.631,0.126,1.769,0.126,2.4c0,0.631,0.379,2.529,0.379,2.529l0.759,1.012c0,0,0,1.263,0.127,1.896
			s0.631,1.896,0.758,2.274c0.128,0.379,1.139,4.929,1.139,4.929v1.391l0.25,1.267c0,0,1.14,1.768,1.519,2.399
			c0.379,0.633,3.033,2.149,3.92,2.276c0.257,0.035,0.559,0.073,0.854,0.105c-0.044-1.929-0.096-4.154-0.096-4.469
			C348.862,717.449,347.347,714.986,346.965,714.228"/>
	</g>
    </g>
	<g clip-path="url(#SVGID_2_)">
		<defs>
			<rect id="SVGID_11_" x="41.93" y="45.588" width="537" height="694.941"/>
		</defs>
		<clipPath id="SVGID_12_">
			<use xlink:href="#SVGID_11_"  overflow="visible"/>
		</clipPath>
     <g id="SLEEVES">
		<path clip-path="url(#SVGID_12_)" fill="#FDBB2D" d="M437.528,204.547c-0.004,0.019-0.007,0.03-0.007,0.03
			S437.524,204.563,437.528,204.547"/>
		<path clip-path="url(#SVGID_12_)" fill="#00AB5D" d="M194.167,234.356c0-0.005,0-0.012,0-0.017
			c-0.005-0.34-0.014-0.69-0.023-1.047c-0.001-0.032-0.002-0.063-0.004-0.093c-0.009-0.343-0.022-0.692-0.039-1.045
			c0-0.031-0.002-0.062-0.003-0.094c-0.018-0.372-0.037-0.746-0.061-1.122c0-0.005,0-0.011,0-0.016
			c-0.024-0.379-0.052-0.759-0.085-1.136c-0.002-0.025-0.004-0.051-0.006-0.076c-0.032-0.353-0.066-0.701-0.106-1.043
			c-0.003-0.037-0.007-0.073-0.012-0.109c-0.04-0.339-0.082-0.67-0.131-0.992c-0.004-0.029-0.008-0.058-0.013-0.086
			c-0.052-0.345-0.11-0.68-0.174-0.999c-0.929-4.646-8.051-43.974-9.6-51.406c-1.549-7.432-8.361-32.515-9.6-39.329
			c-0.048-0.265-0.094-0.54-0.139-0.817c-0.013-0.079-0.024-0.159-0.038-0.238c-0.034-0.221-0.067-0.444-0.098-0.671
			c-0.011-0.068-0.02-0.137-0.03-0.207c-0.04-0.286-0.077-0.576-0.113-0.872c-0.009-0.067-0.016-0.134-0.024-0.203
			c-0.028-0.238-0.056-0.477-0.083-0.717c-0.01-0.093-0.02-0.184-0.029-0.275c-0.029-0.272-0.058-0.545-0.083-0.82
			c-0.003-0.034-0.007-0.068-0.009-0.102c-0.03-0.306-0.058-0.612-0.083-0.921l-0.023-0.279c-0.02-0.236-0.038-0.472-0.057-0.708
			l-0.019-0.249c-0.023-0.308-0.044-0.614-0.064-0.92c-0.004-0.059-0.008-0.116-0.011-0.174c-0.017-0.252-0.032-0.505-0.047-0.755
			c-0.005-0.093-0.011-0.185-0.016-0.278c-0.016-0.262-0.03-0.523-0.043-0.782c-0.002-0.038-0.004-0.077-0.007-0.115
			c-0.015-0.298-0.028-0.592-0.042-0.883c-0.003-0.073-0.008-0.144-0.01-0.217c-0.01-0.237-0.021-0.471-0.029-0.701
			c-0.003-0.058-0.006-0.113-0.008-0.17c-0.011-0.284-0.021-0.565-0.03-0.837c0-0.016-0.001-0.03-0.001-0.046
			c-0.009-0.259-0.017-0.511-0.025-0.757c-0.002-0.043-0.003-0.085-0.003-0.128c-0.016-0.525-0.029-1.016-0.038-1.461v-0.004
			c-2.057,1.418-6.064,4.055-8.575,4.893c-3.492,1.165-23.277,16.293-29.096,36.66c-5.818,20.366-6.983,70.408-6.983,70.408
			l-1.745,8.729l-1.747,5.236c0,0,20.367,5.238,37.824,6.401c17.457,1.165,28.513,1.165,28.513,1.165s1.164-1.165,0.582-4.656
			c-0.582-3.491-1.164-4.655-0.582-6.401c0.544-1.631,2.613-6.82,2.88-7.491C194.175,235.056,194.172,234.712,194.167,234.356"/>
		<path clip-path="url(#SVGID_12_)" fill="#00AB5D" d="M490.973,241.13l-1.746-8.729c0,0-1.164-50.042-6.982-70.409
			c-5.819-20.366-25.604-35.495-29.095-36.659c-2.599-0.866-6.805-3.665-8.788-5.039c-0.076,3.684-0.333,10.646-1.208,15.454
			c-1.238,6.813-8.051,31.896-9.6,39.329c-1.548,7.431-8.671,46.76-9.6,51.405c-0.593,2.962-0.681,7.178-0.667,9.849
			c0.114-0.646,0.186-1.019,0.186-1.019s2.327,5.818,2.908,7.564c0.583,1.745,0,2.91-0.581,6.401
			c-0.582,3.491,0.581,4.655,0.581,4.655s11.058,0,28.514-1.164c17.456-1.164,37.822-6.401,37.822-6.401L490.973,241.13z"/>
	</g>
    </g>
	<g clip-path="url(#SVGID_2_)">
		<defs>
			<rect id="SVGID_13_" x="41.93" y="45.588" width="537" height="694.941"/>
		</defs>
		<clipPath id="SVGID_14_">
			<use xlink:href="#SVGID_13_"  overflow="visible"/>
		</clipPath>
       <g id="SLEEVES_STRIP">
		<path clip-path="url(#SVGID_14_)" fill="#FDBB2D" d="M191.298,242.876c0.161-0.481,0.456-1.276,0.796-2.17
			c-3.968-0.247-13.374-0.877-26.605-2.053c-12.998-1.155-29.249-4.311-37.098-5.934l-1.682,8.412l-1.747,5.237
			c0,0,20.367,5.237,37.824,6.401c17.457,1.164,28.513,1.164,28.513,1.164s1.164-1.164,0.582-4.655
			C191.298,245.786,190.716,244.621,191.298,242.876"/>
		<path clip-path="url(#SVGID_14_)" fill="#FDBB2D" d="M490.973,241.13l-1.744-8.718c-7.113,1.497-24.7,5.007-38.569,6.24
			c-11.783,1.048-20.532,1.662-25.109,1.958c0.355,0.932,0.665,1.767,0.831,2.267c0.583,1.745,0,2.91-0.581,6.401
			c-0.582,3.491,0.581,4.655,0.581,4.655s11.058,0,28.514-1.164c17.456-1.164,37.822-6.401,37.822-6.401L490.973,241.13z"/>
	</g>
    </g>
	<g id="COLLAR" clip-path="url(#SVGID_2_)">
		<defs>
			<rect id="SVGID_15_" x="41.93" y="45.588" width="537" height="694.941"/>
		</defs>
		<clipPath id="SVGID_16_">
			<use xlink:href="#SVGID_15_"  overflow="visible"/>
		</clipPath>
		<path clip-path="url(#SVGID_16_)" fill="#FDBB2D" d="M311.66,105.334c39.193-0.387,55.627-15.248,59.557-19.534
			c-4.633-3.478-7.77-6.158-8.843-7.018c-2.91-2.327-2.91-4.073-5.819-5.819c-2.908-1.745-4.073-6.981-9.892-9.891
			c-3.704-1.852-20.37-2.524-31.999-2.77l-0.005-0.14c0,0-2.287,0-5.819,0.043c-3.53-0.043-5.818-0.043-5.818-0.043l-0.006,0.14
			c-11.629,0.245-28.296,0.918-31.999,2.77c-5.819,2.91-6.982,8.146-9.893,9.891c-2.909,1.747-2.909,3.492-5.817,5.819
			c-0.855,0.684-3.022,2.527-6.207,5.003C254.08,89.096,272.796,105.719,311.66,105.334"/>
	</g>
	<g clip-path="url(#SVGID_2_)">
		<defs>
			<rect id="SVGID_17_" x="41.93" y="45.588" width="537" height="694.941"/>
		</defs>
		<clipPath id="SVGID_18_">
			<use xlink:href="#SVGID_17_"  overflow="visible"/>
		</clipPath>
    
      </g>
	<g clip-path="url(#SVGID_2_)">
		<defs>
			<rect id="SVGID_19_" x="41.93" y="45.588" width="537" height="694.941"/>
		</defs>
		<clipPath id="SVGID_20_">
			<use xlink:href="#SVGID_19_"  overflow="visible"/>
		</clipPath>
     
    </g>
	<g clip-path="url(#SVGID_2_)">
		<defs>
			<rect id="SVGID_21_" x="41.93" y="45.588" width="537" height="694.941"/>
		</defs>
		<clipPath id="SVGID_22_">
			<use xlink:href="#SVGID_21_"  overflow="visible"/>
		</clipPath>
    
    </g>
	<g clip-path="url(#SVGID_2_)">
		<defs>
			<rect id="SVGID_23_" x="41.93" y="45.588" width="537" height="694.941"/>
		</defs>
		<clipPath id="SVGID_24_">
			<use xlink:href="#SVGID_23_"  overflow="visible"/>
		</clipPath>
    
    	</g>
	<g clip-path="url(#SVGID_2_)">
		<defs>
			<rect id="SVGID_25_" x="41.93" y="45.588" width="537" height="694.941"/>
		</defs>
		<clipPath id="SVGID_26_">
			<use xlink:href="#SVGID_25_"  overflow="visible"/>
		</clipPath>
     
    </g>
	<g clip-path="url(#SVGID_2_)">
		<defs>
			<rect id="SVGID_27_" x="41.93" y="45.588" width="537" height="694.941"/>
		</defs>
		<clipPath id="SVGID_28_">
			<use xlink:href="#SVGID_27_"  overflow="visible"/>
		</clipPath>
		<g opacity="0.35" clip-path="url(#SVGID_28_)">
			<g>
				<defs>
					<rect id="SVGID_29_" x="250.979" y="82.141" width="118.672" height="21.141"/>
				</defs>
				<clipPath id="SVGID_30_">
					<use xlink:href="#SVGID_29_"  overflow="visible"/>
				</clipPath>
				
					<path clip-path="url(#SVGID_30_)" fill="none" stroke="#5C7BA8" stroke-width="0.783" stroke-miterlimit="10" stroke-dasharray="0.672,0.672" d="
					M369.365,84.621c0,0-11.869,17.857-57.677,18.311c-46.234,0.457-60.425-20.6-60.425-20.6"/>
			</g>
		</g>
		<g opacity="0.35" clip-path="url(#SVGID_28_)">
			<g>
				<defs>
					<rect id="SVGID_31_" x="127.768" y="234.823" width="63.53" height="8.396"/>
				</defs>
				<clipPath id="SVGID_32_">
					<use xlink:href="#SVGID_31_"  overflow="visible"/>
				</clipPath>
				
					<path clip-path="url(#SVGID_32_)" fill="none" stroke="#5C7BA8" stroke-width="0.783" stroke-miterlimit="10" stroke-dasharray="0.672,0.672" d="
					M127.86,235.153c0,0,14.554,4.025,32.825,5.885c18.271,1.857,30.612,1.839,30.612,1.839"/>
			</g>
		</g>
		<g opacity="0.35" clip-path="url(#SVGID_28_)">
			<g>
				<defs>
					<rect id="SVGID_33_" x="127.768" y="237.571" width="63.53" height="8.398"/>
				</defs>
				<clipPath id="SVGID_34_">
					<use xlink:href="#SVGID_33_"  overflow="visible"/>
				</clipPath>
				
					<path clip-path="url(#SVGID_34_)" fill="none" stroke="#5C7BA8" stroke-width="0.783" stroke-miterlimit="10" stroke-dasharray="0.672,0.672" d="
					M127.86,237.902c0,0,14.554,4.026,32.825,5.885c18.271,1.857,30.612,1.839,30.612,1.839"/>
			</g>
		</g>
		<g opacity="0.35" clip-path="url(#SVGID_28_)">
			<g>
				<defs>
					<rect id="SVGID_35_" x="426.783" y="234.823" width="63.53" height="8.396"/>
				</defs>
				<clipPath id="SVGID_36_">
					<use xlink:href="#SVGID_35_"  overflow="visible"/>
				</clipPath>
				
					<path clip-path="url(#SVGID_36_)" fill="none" stroke="#5C7BA8" stroke-width="0.783" stroke-miterlimit="10" stroke-dasharray="0.672,0.672" d="
					M490.222,235.153c0,0-14.555,4.025-32.825,5.885c-18.271,1.857-30.612,1.839-30.612,1.839"/>
			</g>
		</g>
		<g opacity="0.35" clip-path="url(#SVGID_28_)">
			<g>
				<defs>
					<rect id="SVGID_37_" x="426.783" y="237.571" width="63.53" height="8.398"/>
				</defs>
				<clipPath id="SVGID_38_">
					<use xlink:href="#SVGID_37_"  overflow="visible"/>
				</clipPath>
				
					<path clip-path="url(#SVGID_38_)" fill="none" stroke="#5C7BA8" stroke-width="0.783" stroke-miterlimit="10" stroke-dasharray="0.672,0.672" d="
					M490.222,237.902c0,0-14.555,4.026-32.825,5.885c-18.271,1.857-30.612,1.839-30.612,1.839"/>
			</g>
		</g>
		<g opacity="0.35" clip-path="url(#SVGID_28_)">
			<g>
				<defs>
					<rect id="SVGID_39_" x="422.942" y="120.294" width="21.762" height="118.589"/>
				</defs>
				<clipPath id="SVGID_40_">
					<use xlink:href="#SVGID_39_"  overflow="visible"/>
				</clipPath>
				<path clip-path="url(#SVGID_40_)" fill="none" stroke="#5C7BA8" stroke-width="0.783" stroke-miterlimit="10" d="
					M444.361,120.294c0,0,0.031,8.643-1.208,15.455c-1.238,6.813-8.051,31.896-9.6,39.329c-1.548,7.432-8.671,46.76-9.6,51.405
					c-0.928,4.645-0.62,12.387-0.62,12.387"/>
			</g>
		</g>
		<g opacity="0.35" clip-path="url(#SVGID_28_)">
			<g>
				<defs>
					<rect id="SVGID_41_" x="172.763" y="120.439" width="21.759" height="118.443"/>
				</defs>
				<clipPath id="SVGID_42_">
					<use xlink:href="#SVGID_41_"  overflow="visible"/>
				</clipPath>
				<path clip-path="url(#SVGID_42_)" fill="none" stroke="#5C7BA8" stroke-width="0.783" stroke-miterlimit="10" d="
					M173.106,120.441c0,0-0.035,8.496,1.204,15.308c1.238,6.813,8.051,31.896,9.6,39.329c1.548,7.432,8.67,46.76,9.6,51.405
					c0.929,4.645,0.62,12.387,0.62,12.387"/>
			</g>
		</g>
		<g opacity="0.35" clip-path="url(#SVGID_28_)">
			<g>
				<defs>
					<rect id="SVGID_43_" x="249.395" y="83.606" width="122.101" height="22.079"/>
				</defs>
				<clipPath id="SVGID_44_">
					<use xlink:href="#SVGID_43_"  overflow="visible"/>
				</clipPath>
				
					<path clip-path="url(#SVGID_44_)" fill="none" stroke="#5C7BA8" stroke-width="0.783" stroke-miterlimit="10" stroke-dasharray="0.672,0.672" d="
					M371.217,85.801c0,0-13.747,19.08-59.557,19.534c-46.234,0.458-61.985-21.528-61.985-21.528"/>
			</g>
		</g>
		<g clip-path="url(#SVGID_28_)">
			<g>
				<defs>
					<rect id="SVGID_45_" x="168.302" y="440.841" width="279.149" height="277.379"/>
				</defs>
				<clipPath id="SVGID_46_">
					<use xlink:href="#SVGID_45_"  overflow="visible"/>
				</clipPath>
				<g opacity="0.5" clip-path="url(#SVGID_46_)">
					<g>
						<defs>
							<rect id="SVGID_47_" x="199.401" y="440.841" width="219.239" height="20.373"/>
						</defs>
						<clipPath id="SVGID_48_">
							<use xlink:href="#SVGID_47_"  overflow="visible"/>
						</clipPath>
						
							<path clip-path="url(#SVGID_48_)" fill="none" stroke="#897F76" stroke-width="0.717" stroke-miterlimit="10" stroke-dasharray="1.729,0.864" d="
							M199.584,441.143c0,0,6.722,4.792,12.531,7.245c5.809,2.453,28.659,9.555,44.02,11.361c15.36,1.808,48.923,1.16,73.062,0.257
							c24.141-0.902,57.188-3.613,60.544-3.872c3.355-0.257,9.426-0.645,10.585-0.902c1.163-0.258,10.069-2.323,12.523-4.261
							c2.451-1.937,3.226-2.842,3.742-3.614c0.516-0.774,0.988-2.359,0.988-2.359l0.75-4.101"/>
					</g>
				</g>
				<g opacity="0.5" clip-path="url(#SVGID_46_)">
					<g>
						<defs>
							<rect id="SVGID_49_" x="198.52" y="450.55" width="220.122" height="22.751"/>
						</defs>
						<clipPath id="SVGID_50_">
							<use xlink:href="#SVGID_49_"  overflow="visible"/>
						</clipPath>
						
							<path clip-path="url(#SVGID_50_)" fill="none" stroke="#897F76" stroke-width="0.717" stroke-miterlimit="10" stroke-dasharray="1.729,0.864" d="
							M198.826,450.623c0.134,0.555,0.511,2.414,1.027,3.058c0.517,0.646,7.358,4.649,19.752,8.649
							c12.393,4.002,35.886,9.553,51.376,10.456c15.492,0.904,46.858-1.549,69.577-1.291c22.719,0.26,55.51-4.389,64.675-6.454
							c9.164-2.066,13.147-7.996,13.147-7.996"/>
					</g>
				</g>
				<g opacity="0.5" clip-path="url(#SVGID_46_)">
					<g>
						<defs>
							<rect id="SVGID_51_" x="197.72" y="458.084" width="220.922" height="21.789"/>
						</defs>
						<clipPath id="SVGID_52_">
							<use xlink:href="#SVGID_51_"  overflow="visible"/>
						</clipPath>
						
							<path clip-path="url(#SVGID_52_)" fill="none" stroke="#897F76" stroke-width="0.717" stroke-miterlimit="10" stroke-dasharray="1.729,0.864" d="
							M197.917,458.33c0,0,7.874,6.323,28.529,12.521c20.653,6.195,39.369,10.068,81.196,8.261
							c41.823-1.808,66.222-2.065,83.391-5.034c17.168-2.972,19.233-4.39,20.783-5.035c1.549-0.646,4.134-1.807,4.776-2.452
							c0.645-0.646,1.787-2.395,1.787-2.395"/>
					</g>
				</g>
				<g opacity="0.5" clip-path="url(#SVGID_46_)">
					<g>
						<defs>
							<rect id="SVGID_53_" x="168.302" y="691.447" width="115.567" height="17.104"/>
						</defs>
						<clipPath id="SVGID_54_">
							<use xlink:href="#SVGID_53_"  overflow="visible"/>
						</clipPath>
						
							<path clip-path="url(#SVGID_54_)" fill="none" stroke="#897F76" stroke-width="0.717" stroke-miterlimit="10" stroke-dasharray="1.729,0.864" d="
							M168.363,703.927c0,0,14.65,2.909,30.001,3.493c15.354,0.584,21.282,2.043,41.785-1.358
							c20.505-3.401,28.667-4.956,31.582-6.219c2.914-1.264,6.023-2.331,7.48-3.304c1.46-0.972,3.208-2.139,3.306-2.527
							c0.097-0.388,1.067-2.428,1.067-2.428"/>
					</g>
				</g>
				<g opacity="0.5" clip-path="url(#SVGID_46_)">
					<g>
						<defs>
							<rect id="SVGID_55_" x="168.854" y="700.525" width="111.261" height="11.973"/>
						</defs>
						<clipPath id="SVGID_56_">
							<use xlink:href="#SVGID_55_"  overflow="visible"/>
						</clipPath>
						
							<path clip-path="url(#SVGID_56_)" fill="none" stroke="#897F76" stroke-width="0.717" stroke-miterlimit="10" stroke-dasharray="1.729,0.864" d="
							M168.923,707.811c0,0,19.435,4.372,36.147,4.372c16.715,0,33.135-1.165,49.461-4.567c16.325-3.4,22.156-5.054,23.128-5.637
							c0.972-0.581,2.331-1.165,2.331-1.165"/>
					</g>
				</g>
				<g opacity="0.5" clip-path="url(#SVGID_46_)">
					<g>
						<defs>
							<rect id="SVGID_57_" x="340.666" y="709.251" width="105.941" height="8.969"/>
						</defs>
						<clipPath id="SVGID_58_">
							<use xlink:href="#SVGID_57_"  overflow="visible"/>
						</clipPath>
						
							<path clip-path="url(#SVGID_58_)" fill="none" stroke="#897F76" stroke-width="0.717" stroke-miterlimit="10" stroke-dasharray="1.729,0.864" d="
							M340.889,709.474c0,0,1.464,1.463,4.145,1.951c1.46,0.265,2.501,0.148,2.501,0.148s22.003,3.141,27.977,3.996
							s19.142,3.414,38.159,1.829c19.019-1.585,32.896-3.359,32.896-3.359"/>
					</g>
				</g>
				<g opacity="0.5" clip-path="url(#SVGID_46_)">
					<g>
						<defs>
							<rect id="SVGID_59_" x="339.104" y="704.268" width="108.348" height="9.461"/>
						</defs>
						<clipPath id="SVGID_60_">
							<use xlink:href="#SVGID_59_"  overflow="visible"/>
						</clipPath>
						
							<path clip-path="url(#SVGID_60_)" fill="none" stroke="#897F76" stroke-width="0.717" stroke-miterlimit="10" stroke-dasharray="1.729,0.864" d="
							M339.425,704.354c0,0-0.729,2.56,12.68,4.39c13.41,1.828,30.843,5.973,56.812,4.268c25.969-1.707,37.557-3.188,38.283-4.154"
							/>
					</g>
				</g>
			</g>
		</g>
		<g opacity="0.5" clip-path="url(#SVGID_28_)">
			<g>
				<defs>
					<rect id="SVGID_61_" x="417.156" y="440.373" width="7.377" height="44.104"/>
				</defs>
				<clipPath id="SVGID_62_">
					<use xlink:href="#SVGID_61_"  overflow="visible"/>
				</clipPath>
				
					<path clip-path="url(#SVGID_62_)" fill="none" stroke="#897F76" stroke-width="0.478" stroke-miterlimit="10" stroke-dasharray="1.729,0.864" d="
					M418.38,440.397c0,0-0.237,2.053-0.495,3.086c-0.261,1.033-0.52,2.324-0.52,3.229c0,0.902,0.131,2.193,0.389,2.969
					c0.258,0.774,1.641,4.466,1.402,5.266c-0.24,0.801-1.145,2.608-1.145,3.641c0,1.033,0.39,6.971,0.775,8.52
					c0.387,1.55,2.192,8.391,2.969,9.681c0.774,1.293,1.163,2.969,1.291,3.745c0.128,0.774,1.291,3.872,1.291,3.872"/>
			</g>
		</g>
		<g opacity="0.5" clip-path="url(#SVGID_28_)">
			<g>
				<defs>
					<rect id="SVGID_63_" x="263.335" y="614.023" width="85.738" height="108.734"/>
				</defs>
				<clipPath id="SVGID_64_">
					<use xlink:href="#SVGID_63_"  overflow="visible"/>
				</clipPath>
				
					<path clip-path="url(#SVGID_64_)" fill="none" stroke="#887F76" stroke-width="0.478" stroke-miterlimit="10" stroke-dasharray="1.729,0.864" d="
					M348.862,722.758v-4.739c0-0.569-1.516-3.032-1.897-3.791c-0.378-0.758,0-1.896,0.569-2.654c0.57-0.759,0.189-1.896-0.569-2.845
					c-0.758-0.947-0.568-2.656-0.568-2.656l0.76-1.326c0,0-2.465-8.342-2.655-10.997c-0.189-2.653-4.36-20.665-7.015-31.282
					s-4.551-29.767-15.736-40.765c-7.099-6.978-24.08-8.912-32.043-6.445c-7.964,2.465-9.101,13.083-10.996,20.666
					c-1.895,7.583-10.05,48.348-10.808,52.139c-0.758,3.792-4.36,29.388-4.36,29.388"/>
			</g>
		</g>
	</g>
	<g clip-path="url(#SVGID_2_)">
		<defs>
			<rect id="SVGID_65_" x="41.93" y="45.588" width="537" height="694.941"/>
		</defs>
		<clipPath id="SVGID_66_">
			<use xlink:href="#SVGID_65_"  overflow="visible"/>
		</clipPath>
		<path clip-path="url(#SVGID_66_)" d="M194.166,234.339c0,0.005,0,0.012,0,0.017C194.166,234.351,194.166,234.345,194.166,234.339"
			/>
		<path clip-path="url(#SVGID_66_)" d="M194.178,235.385"/>
		<path clip-path="url(#SVGID_66_)" fill="#FFFFFF" d="M311.688,86.453c24.031,0.229,42.343-12.131,42.114-14.19
			c-0.229-2.06-4.171-5.886-6.688-7.716c-2.518-1.831-14.487-3.053-38.521-2.922c-24.309,0.132-32.543,1.063-35.865,1.859
			c-3.32,0.798-8.788,6.862-8.102,8.236C265.313,73.091,287.796,86.224,311.688,86.453"/>
		<g opacity="0.35" clip-path="url(#SVGID_66_)">
			<g>
				<defs>
					<rect id="SVGID_67_" x="264.567" y="61.613" width="89.236" height="24.842"/>
				</defs>
				<clipPath id="SVGID_68_">
					<use xlink:href="#SVGID_67_"  overflow="visible"/>
				</clipPath>
				<g clip-path="url(#SVGID_68_)">
					<defs>
						<path id="SVGID_69_" d="M311.688,86.452c24.031,0.23,42.343-12.129,42.114-14.19c-0.229-2.06-4.171-5.886-6.688-7.716
							c-2.518-1.831-14.487-3.053-38.521-2.922c-24.308,0.133-32.543,1.063-35.864,1.86c-3.32,0.796-8.789,6.861-8.104,8.234
							C265.313,73.091,287.796,86.225,311.688,86.452"/>
					</defs>
					<clipPath id="SVGID_70_">
						<use xlink:href="#SVGID_69_"  overflow="visible"/>
					</clipPath>
					
						<radialGradient id="SVGID_71_" cx="0.0571" cy="790.6426" r="0.8786" gradientTransform="matrix(79.9224 0 0 -31.7255 305.125 25146.5332)" gradientUnits="userSpaceOnUse">
						<stop  offset="0" style="stop-color:#FFFFFF"/>
						<stop  offset="1" style="stop-color:#FFFFFF"/>
					</radialGradient>
					<rect x="263.939" y="61.492" clip-path="url(#SVGID_70_)" fill="url(#SVGID_71_)" width="90.091" height="25.189"/>
				</g>
				<g clip-path="url(#SVGID_68_)">
					<defs>
						<path id="SVGID_72_" d="M311.688,86.452c24.031,0.23,42.343-12.129,42.114-14.19c-0.229-2.06-4.171-5.886-6.688-7.716
							c-2.518-1.831-14.487-3.053-38.521-2.922c-24.308,0.133-32.543,1.063-35.864,1.86c-3.32,0.796-8.789,6.861-8.104,8.234
							C265.313,73.091,287.796,86.225,311.688,86.452"/>
					</defs>
					<clipPath id="SVGID_73_">
						<use xlink:href="#SVGID_72_"  overflow="visible"/>
					</clipPath>
					
						<radialGradient id="SVGID_74_" cx="0.0571" cy="790.6426" r="0.8786" gradientTransform="matrix(79.9224 0 0 -31.7255 305.125 25146.5332)" gradientUnits="userSpaceOnUse">
						<stop  offset="0" style="stop-color:#FFFFFF"/>
						<stop  offset="0.1085" style="stop-color:#EBEBEB"/>
						<stop  offset="0.3309" style="stop-color:#B7B7B7"/>
						<stop  offset="0.6481" style="stop-color:#646464"/>
						<stop  offset="1" style="stop-color:#000000"/>
					</radialGradient>
					<rect x="263.939" y="61.492" clip-path="url(#SVGID_73_)" fill="url(#SVGID_74_)" width="90.091" height="25.189"/>
				</g>
			</g>
		</g>
		<path clip-path="url(#SVGID_66_)" fill-rule="evenodd" clip-rule="evenodd" fill="#6D7DBC" d="M176.737,679.999
			c-2.742,0-4.973,2.23-4.973,4.973s2.231,4.972,4.973,4.972h8.76c2.743,0,4.974-2.229,4.974-4.972s-2.231-4.973-4.973-4.973
			H176.737z"/>
		<path clip-path="url(#SVGID_66_)" fill="none" stroke="#6D7DBC" stroke-width="0.721" d="M176.737,679.999
			c-2.742,0-4.973,2.23-4.973,4.973s2.231,4.972,4.973,4.972h8.76c2.743,0,4.974-2.229,4.974-4.972s-2.231-4.973-4.973-4.973
			H176.737z"/>
		<path clip-path="url(#SVGID_66_)" fill-rule="evenodd" clip-rule="evenodd" fill="#6D7DBC" d="M185.498,680.454
			c2.495,0,4.517,2.022,4.517,4.518s-2.022,4.519-4.519,4.519h-8.76c-2.495,0-4.517-2.023-4.517-4.519s2.022-4.518,4.517-4.518
			H185.498z"/>
		<path clip-path="url(#SVGID_66_)" fill="none" stroke="#FFFFFF" stroke-width="0.36" stroke-miterlimit="3.864" d="
			M185.498,680.454c2.495,0,4.517,2.022,4.517,4.518s-2.022,4.519-4.519,4.519h-8.76c-2.495,0-4.517-2.023-4.517-4.519
			s2.022-4.518,4.517-4.518H185.498z"/>
		<path clip-path="url(#SVGID_66_)" fill="#FFFFFF" d="M173.614,684.959c0-1.745,1.354-3.172,3.069-3.288v6.574
			C174.967,688.131,173.614,686.701,173.614,684.959"/>
		<polygon clip-path="url(#SVGID_66_)" fill-rule="evenodd" clip-rule="evenodd" fill="#FFFFFF" points="180.09,684.53 
			177.225,681.662 180.09,681.662 		"/>
		<polygon clip-path="url(#SVGID_66_)" fill-rule="evenodd" clip-rule="evenodd" fill="#FFFFFF" points="180.09,685.389 
			177.225,688.253 180.09,688.253 		"/>
		<polygon clip-path="url(#SVGID_66_)" fill-rule="evenodd" clip-rule="evenodd" fill="#EC2227" points="183.684,684.53 
			186.548,681.662 183.684,681.662 		"/>
		<polygon clip-path="url(#SVGID_66_)" fill-rule="evenodd" clip-rule="evenodd" fill="#EC2227" points="183.684,685.389 
			186.548,688.253 183.684,688.253 		"/>
		<rect x="180.699" y="681.662" clip-path="url(#SVGID_66_)" fill="#EC2227" width="2.377" height="6.591"/>
		<path clip-path="url(#SVGID_66_)" fill-rule="evenodd" clip-rule="evenodd" fill="#6D7DBC" d="M176.737,679.999
			c-2.742,0-4.973,2.23-4.973,4.973s2.231,4.972,4.973,4.972h8.76c2.743,0,4.974-2.229,4.974-4.972s-2.231-4.973-4.973-4.973
			H176.737z"/>
		<path clip-path="url(#SVGID_66_)" fill="none" stroke="#6D7DBC" stroke-width="0.721" d="M176.737,679.999
			c-2.742,0-4.973,2.23-4.973,4.973s2.231,4.972,4.973,4.972h8.76c2.743,0,4.974-2.229,4.974-4.972s-2.231-4.973-4.973-4.973
			H176.737z"/>
		<path clip-path="url(#SVGID_66_)" fill-rule="evenodd" clip-rule="evenodd" fill="#6D7DBC" d="M185.498,680.454
			c2.495,0,4.517,2.022,4.517,4.518s-2.022,4.519-4.519,4.519h-8.76c-2.495,0-4.517-2.023-4.517-4.519s2.022-4.518,4.517-4.518
			H185.498z"/>
		<path clip-path="url(#SVGID_66_)" fill="none" stroke="#FFFFFF" stroke-width="0.36" stroke-miterlimit="3.864" d="
			M185.498,680.454c2.495,0,4.517,2.022,4.517,4.518s-2.022,4.519-4.519,4.519h-8.76c-2.495,0-4.517-2.023-4.517-4.519
			s2.022-4.518,4.517-4.518H185.498z"/>
		<path clip-path="url(#SVGID_66_)" fill="#FFFFFF" d="M173.614,684.959c0-1.745,1.354-3.172,3.069-3.288v6.574
			C174.967,688.131,173.614,686.701,173.614,684.959"/>
		<polygon clip-path="url(#SVGID_66_)" fill-rule="evenodd" clip-rule="evenodd" fill="#FFFFFF" points="180.09,684.53 
			177.225,681.662 180.09,681.662 		"/>
		<polygon clip-path="url(#SVGID_66_)" fill-rule="evenodd" clip-rule="evenodd" fill="#FFFFFF" points="180.09,685.389 
			177.225,688.253 180.09,688.253 		"/>
		<polygon clip-path="url(#SVGID_66_)" fill-rule="evenodd" clip-rule="evenodd" fill="#EC2227" points="183.684,684.53 
			186.548,681.662 183.684,681.662 		"/>
		<polygon clip-path="url(#SVGID_66_)" fill-rule="evenodd" clip-rule="evenodd" fill="#EC2227" points="183.684,685.389 
			186.548,688.253 183.684,688.253 		"/>
		<rect x="180.699" y="681.662" clip-path="url(#SVGID_66_)" fill="#EC2227" width="2.377" height="6.591"/>
		<path clip-path="url(#SVGID_66_)" fill-rule="evenodd" clip-rule="evenodd" fill="#005DA9" d="M176.737,679.999
			c-2.742,0-4.973,2.23-4.973,4.973s2.231,4.972,4.973,4.972h8.76c2.743,0,4.974-2.229,4.974-4.972s-2.231-4.973-4.973-4.973
			H176.737z"/>
		<path clip-path="url(#SVGID_66_)" fill="none" stroke="#005DA9" stroke-width="0.721" d="M176.737,679.999
			c-2.742,0-4.973,2.23-4.973,4.973s2.231,4.972,4.973,4.972h8.76c2.743,0,4.974-2.229,4.974-4.972s-2.231-4.973-4.973-4.973
			H176.737z"/>
		<path clip-path="url(#SVGID_66_)" fill-rule="evenodd" clip-rule="evenodd" fill="#005DA9" d="M185.498,680.454
			c2.495,0,4.517,2.022,4.517,4.518s-2.022,4.519-4.519,4.519h-8.76c-2.495,0-4.517-2.023-4.517-4.519s2.022-4.518,4.517-4.518
			H185.498z"/>
		<path clip-path="url(#SVGID_66_)" fill="none" stroke="#FFFFFF" stroke-width="0.36" stroke-miterlimit="3.864" d="
			M185.498,680.454c2.495,0,4.517,2.022,4.517,4.518s-2.022,4.519-4.519,4.519h-8.76c-2.495,0-4.517-2.023-4.517-4.519
			s2.022-4.518,4.517-4.518H185.498z"/>
		<path clip-path="url(#SVGID_66_)" fill="#FFFFFF" d="M173.614,684.959c0-1.745,1.354-3.172,3.069-3.288v6.574
			C174.967,688.131,173.614,686.701,173.614,684.959"/>
		<polygon clip-path="url(#SVGID_66_)" fill-rule="evenodd" clip-rule="evenodd" fill="#FFFFFF" points="180.09,684.53 
			177.225,681.662 180.09,681.662 		"/>
		<polygon clip-path="url(#SVGID_66_)" fill-rule="evenodd" clip-rule="evenodd" fill="#FFFFFF" points="180.09,685.389 
			177.225,688.253 180.09,688.253 		"/>
		<polygon clip-path="url(#SVGID_66_)" fill-rule="evenodd" clip-rule="evenodd" fill="#EC2227" points="183.684,684.53 
			186.548,681.662 183.684,681.662 		"/>
		<polygon clip-path="url(#SVGID_66_)" fill-rule="evenodd" clip-rule="evenodd" fill="#EC2227" points="183.684,685.389 
			186.548,688.253 183.684,688.253 		"/>
		<rect x="180.699" y="681.662" clip-path="url(#SVGID_66_)" fill="#EC2227" width="2.377" height="6.591"/>
		<g opacity="0.03" clip-path="url(#SVGID_66_)">
			<g>
				<defs>
					<rect id="SVGID_75_" x="139.156" y="66.594" width="343.091" height="662.99"/>
				</defs>
				<clipPath id="SVGID_76_">
					<use xlink:href="#SVGID_75_"  overflow="visible"/>
				</clipPath>
				<path clip-path="url(#SVGID_76_)" d="M411.809,459.975c0,1.896-4.551,3.033-6.066,3.791c-0.635,0.318-3.591,1.101-6.816,1.902
					c0.541,4.597,0.775,7.859,0.775,7.859s0.569,8.265,2.298,18.612c1.493,1.763,2.918,4.359,4.122,8.409
					c2.091,7.029,3.704,13.297,4.984,19.09c1.488,0.898,3.674,2.175,7.205,5.217l3.424,1.268c3.194-2.376,3.484-4.52,3.484-4.52
					v-4.074c0,0,0.379-1.709,0.705-3.607c-1.412-5.892-4.611-16.381-5.394-19.313c-1.012-3.793-8.714-25.565-8.714-25.565
					l-1.903-0.22v-5.058C409.913,463.766,411.936,461.238,411.809,459.975 M419.293,450.643c-0.006,0.445-0.013,0.734-0.013,0.734
					c-0.062,1.279-0.015,4.552-0.015,4.552s0,1.519,0.113,2.79c0.113,1.273,1.151,3.531,1.151,4.543
					c0,0.588,0.544,2.323,1.001,3.676C420.94,462.154,420.166,456.566,419.293,450.643 M351.207,66.595l-1.184,0.415
					c1.889,1.805,3.627,3.905,3.778,5.252c0.119,1.088-4.937,5.05-13.272,8.513c0.675,1.398,1.161,2.72,1.239,3.735
					c0.3,3.903,0,3.602,0,9.305s2.101,11.406,5.703,19.811c3.602,8.406,7.504,3.902,10.205,15.91
					c2.001,8.894-6.374,10.047-10.851,10.047c-1.568,0-2.657-0.142-2.657-0.142s9.977,1.425,22.549,1.425
					c2.694,0,5.509-0.066,8.368-0.224c16.211-0.9,12.608,0,24.014-1.201c5.704-0.6,8.557-1.351,12.159-1.351
					c3.601,0,7.953,0.75,16.657,3.152c17.41,4.803,4.202,15.609,3.002,27.917c-1.2,12.307-18.61,10.505-23.714,17.109
					c-5.103,6.604-1.801,57.932-1.2,63.636c0.602,5.703-11.707,15.609-11.707,15.609s-3.301,9.605-5.402,16.809
					c-2.102,7.204,3.301,22.211,3.002,38.421c-0.3,16.209-15.009,37.521-20.111,49.228c-5.103,11.706-1.2,23.113,7.204,48.626
					c3.305,10.033,4.521,12.687,5.163,12.687c0.361,0,0.541-0.834,0.808-1.671c0.268-0.834,0.621-1.67,1.329-1.67
					c0.531,0,1.264,0.47,2.306,1.762c6.304,7.803,3.302,4.801,6.604,15.908c1.515,5.097,2.587,11.394,3.305,16.716
					c3.983-1.226,7.688-2.519,8.755-2.731c1.089-0.218,2.427-0.687,3.37-0.687c0.587,0,1.02,0.182,1.144,0.718
					c-0.194-1.823-0.847-7.488-0.847-7.488s-1.518-1.012-1.771-1.77c-0.252-0.759-1.502-4.594-1.502-4.594s5.71-1.956,8.097-4.564
					c0.572-0.628,1.232-1.799,1.7-2.705c-2.473-15.807-5.213-31.818-6.777-40.265c-2.91-15.71,0.581-52.952,3.491-67.499
					c2.909-14.548,6.983-61.681,6.4-69.246c-0.5-6.507,2.012-21.187,2.725-25.165c-0.014-2.67,0.074-6.887,0.667-9.849
					c0.929-4.645,8.052-43.973,9.6-51.405c1.549-7.432,8.361-32.516,9.6-39.328c0.875-4.809,1.132-11.771,1.208-15.455
					c-0.683-0.473-1.104-0.779-1.104-0.779s-15.711-5.238-37.824-13.965c-22.111-8.729-40.15-24.439-43.059-26.768
					c-2.91-2.327-2.91-4.073-5.819-5.819C354.629,71.808,353.461,69.123,351.207,66.595"/>
				<path clip-path="url(#SVGID_76_)" d="M208.291,527.083c-1.559,0.659-3.062,1.495-4.418,2.727
					c1.148,0.342,2.413,0.661,3.802,0.951C207.869,529.653,208.08,528.413,208.291,527.083 M198.569,449.406
					c-0.592,3.984-1.142,7.834-1.625,11.407c0.735-2.501,1.375-5.262,1.375-5.262L198.569,449.406 M264.693,68.852
					c-1.239,1.735-2.217,3.302-3.569,4.112c-2.909,1.746-2.909,3.491-5.817,5.818c-2.91,2.329-20.95,18.039-43.061,26.768
					c-22.113,8.728-37.824,13.965-37.824,13.965s-0.513,0.372-1.316,0.924c0.08,3.72,0.341,10.564,1.204,15.31
					c1.239,6.812,8.051,31.896,9.6,39.328c1.548,7.432,8.67,46.76,9.6,51.405c0.526,2.631,0.655,6.254,0.667,8.903l0.03-0.073
					c0,0,3.491,18.621,2.909,26.185c-0.582,7.564,3.492,54.698,6.401,69.245c2.909,14.547,6.401,51.789,3.492,67.5
					c-1.526,8.243-4.175,23.693-6.599,39.124c3.499,1.513,13.056,5.585,18.471,7.311c0.032-1.959,0.071-3.95,0.119-5.968
					c0.305-12.759,12.599-15.911,24.67-15.911c11.785,0,23.357,3.004,23.357,3.004s3.901-5.403,3.302-12.908
					c-0.601-7.505-24.315-40.522-28.817-48.026c-3.631-6.052,0.158-6.637,1.758-6.637c0.386,0,0.644,0.034,0.644,0.034
					s-6.603-3.001-9.304-17.71c-2.703-14.708,4.502-32.717,11.105-48.327c6.604-15.609,25.814-31.817,25.814-31.817
					S267.82,261,262.045,261c-7.88,0-19.607-1.099-31.038-6.294c-19.812-9.006-21.012-24.314-23.714-71.441
					c-2.701-47.125,1.801-56.43,12.607-57.031c0.25-0.014,0.517-0.021,0.796-0.021c11.762,0,48.263,12.083,53.835,14.428
					c0,0,3.602-7.504,2.4-12.006c-1.198-4.503,2.403-11.706,6.605-19.511c2.463-4.577,3.483-5.23,4.208-5.23
					c0.145,0,0.277,0.025,0.407,0.052c0.13,0.025,0.257,0.051,0.392,0.051c0.206,0,0.427-0.061,0.696-0.276
					c1.5-1.2,0.298-8.104-0.602-10.206c-0.901-2.1-0.3-2.701,1.502-7.503c0.328-0.88-0.401-2.053-1.81-3.38
					c-13.438-4.059-23.254-10.013-23.706-10.913c-0.219-0.44,0.197-1.363,0.968-2.439C265.277,69.128,264.972,68.983,264.693,68.852
					"/>
				<path clip-path="url(#SVGID_76_)" d="M143.658,158.651c0,0,0.6,4.502,3.002,9.605c2.401,5.103,26.715,35.72,26.715,35.72
					s-21.913-24.014-23.113-25.515c-1.116-1.395-9.745-8.229-10.963-8.229c-0.094,0-0.143,0.041-0.143,0.126
					c0,1.199,7.504,9.304,13.507,15.007c6.003,5.704,18.31,18.011,24.014,26.715c5.702,8.705,16.209,23.713,16.209,23.713
					s-2.102-8.704-3.603-12.306c-1.5-3.602-7.804-13.208-9.305-15.609C178.478,205.477,143.658,158.651,143.658,158.651"/>
				<path clip-path="url(#SVGID_76_)" d="M146.059,151.447c0,0,3.302,12.307,9.906,18.61c6.603,6.304,13.507,8.405,13.507,8.405
					s-11.106-9.305-13.208-12.307C154.164,163.153,146.059,151.447,146.059,151.447"/>
				<path clip-path="url(#SVGID_76_)" d="M481.046,167.656c0,0-3.902,7.805-7.204,13.808c-3.302,6.003-17.41,17.41-24.914,21.613
					c-7.504,4.202-21.311,19.511-21.311,19.511s6.302-1.202,10.204-4.204c3.903-3,28.817-12.906,38.422-26.715
					C485.849,177.862,481.046,167.656,481.046,167.656"/>
				<path clip-path="url(#SVGID_76_)" d="M476.243,213.282c0,0-10.806,9.305-19.21,11.707c-8.404,2.401-24.313,5.403-24.313,5.403
					s3.001,0.789,7.824,0.789c4.584,0,10.815-0.712,17.689-3.491C472.34,221.986,476.243,213.282,476.243,213.282"/>
				<path clip-path="url(#SVGID_76_)" d="M465.632,173.279c-2.175,0-4.972,0.823-7.698,3.982
					c-5.703,6.604-7.504,9.005-12.607,12.007c-4.969,2.922-7.659,14.663-7.798,15.277c0.12-0.532,2.027-8.485,8.698-11.676
					c6.903-3.302,11.707-3.002,15.009-8.705c3.302-5.703,8.403-9.906,8.403-9.906S468.006,173.279,465.632,173.279"/>
				<path clip-path="url(#SVGID_76_)" d="M421.531,466.938c0.316,2.573,0.581,4.913,0.778,6.95
					c1.744,18.039,1.744,31.422,1.744,31.422s2.327,2.327,2.327,4.655c0,0.997-0.213,2.531-0.457,3.957
					c0.414,1.728,0.674,3.061,0.674,3.689c0,2.783,4.047,13.401,4.299,14.664c0.252,1.264,7.078,28.314,8.089,30.337
					c1.01,2.021,3.286,21.486,4.551,25.277c1.263,3.794,1.768,7.078,2.779,12.389c1.013,5.308,0.254,12.385,1.771,15.673
					c1.517,3.287,5.055,22.753,5.055,22.753s0.76-14.663-0.252-20.982c-1.012-6.322-4.298-25.03-4.298-27.556
					c0-2.528-3.033-23.763-4.298-28.313c-1.265-4.551-11.375-37.163-12.135-39.438c-0.759-2.275-5.015-20.572-5.163-22.548
					c-0.146-1.974-1.409-9.81-1.917-11.327c-0.504-1.517-1.03-5.365-0.957-7.753c0.074-2.391-0.522-5.079-0.522-5.079l-0.223-3.548
					l-1.232-3.472C422.145,468.689,421.859,467.913,421.531,466.938 M418.078,437.251c-0.006,0-0.01,0-0.017,0.001
					c0,0-0.249,0.547-0.613,1.253c0.641,4.104,1.265,8.198,1.845,12.138c0.017-1.121,0.028-3.236-0.1-4.319
					c-0.18-1.517-0.863-4.162-0.863-5.427C418.33,440.182,418.559,437.251,418.078,437.251"/>
				<path clip-path="url(#SVGID_76_)" d="M417.448,438.505c-0.468,0.907-1.128,2.078-1.7,2.706
					c-2.387,2.608-8.097,4.564-8.097,4.564s1.25,3.835,1.502,4.594c0.254,0.758,1.771,1.77,1.771,1.77s0.652,5.665,0.847,7.488
					c0.023,0.102,0.037,0.217,0.037,0.348c0.127,1.264-1.896,3.791-1.896,3.791v5.058l1.903,0.22c0,0,7.702,21.772,8.714,25.565
					c0.782,2.933,3.981,13.422,5.394,19.313c0.244-1.426,0.457-2.96,0.457-3.957c0-2.328-2.327-4.655-2.327-4.655
					s0-13.384-1.744-31.422c-0.198-2.037-0.462-4.377-0.778-6.95c-0.457-1.353-1.001-3.088-1.001-3.676
					c0-1.012-1.038-3.27-1.151-4.543c-0.113-1.271-0.113-2.79-0.113-2.79s-0.047-3.272,0.015-4.552c0,0,0.007-0.289,0.013-0.734
					C418.713,446.702,418.088,442.609,417.448,438.505"/>
				<path clip-path="url(#SVGID_76_)" d="M196.944,460.813c-0.296,1.009-0.608,1.975-0.898,2.701
					c-1.012,2.527-1.518,14.155-2.276,16.559c-0.759,2.402-0.252,8.215-1.263,12.765c-1.012,4.55-13.273,40.323-15.674,46.01
					c-2.4,5.687-3.035,18.2-4.044,24.776c-1.01,6.571-8.596,50.558-10.618,67.244c-2.022,16.684,7.583,79.376,7.583,79.376
					l0.631,6.575c0,0,0.379,2.654,2.655,4.55c1.144,0.953,10.937,1.757,21.553,2.321l1.452-15.974v-7.078
					c0-2.527-3.539-4.55-4.55-15.167c-1.012-10.618-4.044-21.234-4.044-27.81c0-6.574-1.012-32.861,4.044-54.098
					c5.056-21.234,5.056-64.209,10.618-71.796c0.55-0.748,1.139-1.396,1.759-1.959c-10.736-3.187-11.411-8.206-11.411-8.206v-4.074
					c0,0-1.164-5.237-1.164-7.564c0-2.328,2.329-4.655,2.329-4.655s0-13.384,1.745-31.422
					C195.715,470.329,196.263,465.845,196.944,460.813 M218.88,444.676c-0.369,22.515,0.085,40.762-3.781,46.561
					c-4.203,6.305-6.904,4.505-5.403,13.808c0.873,5.41-0.284,14.976-1.405,22.039c4.936-2.091,10.422-2.413,13.541-7.953
					c4.55-8.09-3.033-16.179-3.033-19.718c0-3.541,3.539-7.585,6.572-9.102c3.034-1.516,10.617-5.563,16.685-10.618
					c6.068-5.055,6.068-8.593,6.068-8.593l-7.079-3.54c-7.077-3.539-5.643-18.223-5.643-18.223s-9.524-2.508-16.098-4.53
					C219.166,444.766,219.025,444.72,218.88,444.676 M199.079,436.786l-0.51,12.62c0.582-3.924,1.204-7.981,1.841-12.041
					C199.57,437.003,199.079,436.786,199.079,436.786"/>
				<path clip-path="url(#SVGID_76_)" d="M200.41,437.365c-0.638,4.06-1.26,8.117-1.842,12.041l-0.249,6.146
					c0,0-0.642,2.761-1.375,5.262c-0.681,5.031-1.229,9.515-1.573,13.074c-1.745,18.038-1.745,31.422-1.745,31.422
					s-2.328,2.327-2.328,4.655c0,2.327,1.164,7.564,1.164,7.564v4.074c0,0,0.674,5.02,11.411,8.205
					c1.356-1.23,2.861-2.066,4.418-2.726c1.121-7.063,2.278-16.629,1.406-22.039c-1.502-9.304,1.199-7.503,5.402-13.808
					c3.866-5.799,3.413-24.046,3.782-46.561C213.467,442.95,203.909,438.878,200.41,437.365"/>
				<path clip-path="url(#SVGID_76_)" d="M194.593,723.69l-0.065,0.71l24.776,0.509c0,0,0.054-0.121,0.15-0.345
					C214.245,724.507,204.089,724.195,194.593,723.69 M214.319,566.824c-0.981,0-1.735,0.393-2.095,1.349
					c-1.516,4.045-2.021,15.166-1.516,32.863c0.505,17.695-2.528,16.181-3.54,30.337c-1.01,14.156,1.518,16.685,4.045,24.267
					c2.528,7.584,10.113,25.786,13.652,37.416c3.267,10.733-4.237,28.793-5.411,31.509c0.558,0.005,1.057,0.007,1.492,0.007
					c9.101,0,42.933-6.708,42.933-6.708s1.488-12.048,3.64-26.742c2.367-16.173,6.421-37.938,10.512-53.541
					c0.92-4.086,1.919-8.025,2.98-11.345c1.039-3.249,2.515-5.604,3.747-7.158c0.101-0.135,0.201-0.26,0.303-0.374
					c1.132-1.356,1.992-1.994,1.992-1.994s-9.101-5.055-10.617-5.055c-1.518,0-11.123-5.057-18.706-12.639
					c-7.584-7.585-29.325-22.753-32.359-25.788C223.054,570.911,217.493,566.824,214.319,566.824"/>
				<path clip-path="url(#SVGID_76_)" d="M298.386,613.789c-4.895,0-9.759,1.201-13.179,4.755c-0.049,0.05-0.098,0.104-0.146,0.159
					c-0.1,0.118-0.201,0.244-0.304,0.374c-2.05,2.713-4.395,9.609-6.727,18.503c-2.228,9.897-4.001,20.671-5.134,25.644
					c-2.528,11.124-6.572,34.382-6.572,37.922c0,3.537-2.446,16.718-2.446,16.718s4.959-1.74,7.628-2.56
					c2.535-0.782,5.813-3.414,5.813-3.414s0.654-0.945,0.96-2.012c0.305-1.066,0.152-1.979,0.178-3.172
					c0.025-1.191,0.736-2.919,1.191-4.747c0.458-1.827,2.285-6.243,2.869-7.947c0.581-1.704,1.068-2.428,1.068-2.428
					s0.936-3.941,2.46-6.072c1.524-2.13,7.325-20.642,9.9-29.09c2.572-8.444,8.375-40.662,9.182-41.104
					c0.06-0.031,0.151-0.047,0.273-0.047c1.492,0,7.183,2.322,7.183,2.322s1.334,5.17,1.637,6.389
					c0.302,1.22,5.189,22.387,10.053,37.922c6.241,19.95,14.01,35.79,14.314,36.551c0.305,0.764,0.667,3.954,0.457,4.57
					c-0.211,0.616,1.37,2.284,1.37,2.284s0,1.521,0.609,3.654c0.61,2.132,1.522,5.33,1.392,6.086
					c-0.132,0.757,0.25,2.656,0.25,2.656s1.863,2.68,2.317,3.137c0.456,0.458,2.437,1.067,3.121,1.539
					c0.355,0.243,0.952,0.303,1.446,0.303c0.459,0,0.828-0.05,0.828-0.05l-1.517-4.616c0,0-0.681-4.791-0.681-8.901
					c0-4.112-1.37-7.158-1.521-9.595c-0.153-2.437-3.961-18.885-4.875-25.892c-0.913-7.006-7.205-27.597-7.205-27.597
					c-5.562-21.739-14.15-25.495-18.7-28.024C313.148,616.493,305.731,613.789,298.386,613.789"/>
				<path clip-path="url(#SVGID_76_)" d="M278.03,637.58c-4.091,15.604-8.145,37.368-10.512,53.541
					c-2.151,14.694-3.641,26.742-3.641,26.742s2.446-13.181,2.446-16.718c0-3.54,4.044-26.798,6.572-37.922
					C274.027,658.251,275.803,647.478,278.03,637.58 M285.061,618.703c-0.101,0.114-0.201,0.239-0.304,0.374
					C284.859,618.947,284.961,618.821,285.061,618.703"/>
				<path clip-path="url(#SVGID_76_)" d="M398.503,462.327c-3.099,0.953-6.365,1.866-8.688,2.197
					c-5.31,0.759-31.475,3.035-31.475,3.035l3.034,0.379c0,0,8.343,21.992,6.446,32.612c-1.896,10.615-4.55,18.579-12.514,39.055
					c-7.961,20.478,18.581,23.511,20.856,25.406c2.275,1.896,20.856,8.722,22.372,9.481c1.518,0.759-1.896,12.893-4.55,26.924
					c-2.653,14.029,12.135,27.3,16.684,39.057c4.551,11.754-5.307,14.029-9.858,21.234c-4.551,7.205-3.413,32.233-6.445,40.574
					c-3.033,8.343,0.379,26.923,0.379,26.923s7.963,0.379,12.893,0.379s10.996-0.758,10.996-0.758s0.38-7.964,1.138-11.377
					c0.759-3.413,2.276-5.688,4.172-9.101s8.721-15.547,8.721-18.201s1.518-31.852,1.897-37.16
					c0.378-5.31,1.515-22.752,2.274-29.578c0.759-6.826-6.447-36.023-10.238-45.503c-3.792-9.481-10.996-31.853-12.514-42.092
					c-0.756-5.108-1.703-10.407-2.979-16.176c-3.064-1.849-3.174-2.084-6.003-12.793c-1.306-4.946-2.322-10.039-3.104-14.706
					c-3.675-4.345-7.75-3.633-9.907-7.138c-3.035-4.93-4.932-9.101-4.932-12.513c0-3.414,2.275-4.551,2.275-4.551
					s5.004-1.156,9.49-2.271C398.802,464.616,398.66,463.496,398.503,462.327"/>
				<path clip-path="url(#SVGID_76_)" d="M401.999,492.14c0.781,4.667,1.798,9.76,3.104,14.706
					c2.828,10.709,2.938,10.944,6.002,12.793c-1.28-5.793-2.894-12.061-4.984-19.089
					C404.917,496.499,403.492,493.902,401.999,492.14 M410.628,458.909c-0.943,0-2.281,0.469-3.37,0.687
					c-1.066,0.213-4.771,1.506-8.755,2.731c0.157,1.17,0.299,2.289,0.423,3.341c3.226-0.802,6.182-1.584,6.816-1.902
					c1.516-0.758,6.066-1.896,6.066-3.791c-0.01-0.09-0.021-0.208-0.037-0.348C411.647,459.091,411.215,458.909,410.628,458.909"/>
				<path clip-path="url(#SVGID_76_)" d="M411.771,459.627c0.016,0.139,0.027,0.258,0.037,0.348
					C411.809,459.844,411.795,459.729,411.771,459.627"/>
			</g>
		</g>
	</g>
</g>
 
</svg>
