<?xml version="1.0" encoding="utf-8"?>
<!-- Generator: Adobe Illustrator 16.0.0, SVG Export Plug-In . SVG Version: 6.00 Build 0)  -->
<!DOCTYPE svg PUBLIC "-//W3C//DTD SVG 1.1//EN" "http://www.w3.org/Graphics/SVG/1.1/DTD/svg11.dtd">
<svg version="1.1" id="Layer_1" xmlns="http://www.w3.org/2000/svg" xmlns:xlink="http://www.w3.org/1999/xlink" x="0px" y="0px"
	 width="612px" height="792px" viewBox="0 0 472 792" enable-background="new 0 0 612 792" xml:space="preserve">

<g>
	<defs>
		<rect id="SVGID_1_" x="87.925" y="23.5" width="348.907" height="732.705"/>
	</defs>
	<clipPath id="SVGID_2_">
		<use xlink:href="#SVGID_1_"  overflow="visible"/>
	</clipPath>
	<g clip-path="url(#SVGID_2_)">
		<defs>
			<rect id="SVGID_3_" x="87.925" y="23.5" width="348.907" height="732.705"/>
		</defs>
		<clipPath id="SVGID_4_">
			<use xlink:href="#SVGID_3_"  overflow="visible"/>
		</clipPath>
    <g id="BODY">
		<path clip-path="url(#SVGID_4_)" fill="#897F76" d="M417.988,609.279c-7.939-51.188-33.667-153.319-37.34-202.511
			c-2.642-35.394,8.857-131.437,8.857-131.437s-0.063-0.06-0.175-0.164c-2.687-3.656-48.304-66.444-52.004-118.773
			c-2.729-38.605,13.216-110.136,13.216-110.136l-11.222-2.362l-3.434-0.875c0,0-36.023,37.58-71.21,38.434
			c-35.183,0.855-76.233-40.141-76.233-40.141s-0.636,0.162-1.562,0.417c-0.048-0.398-0.073-0.61-0.073-0.61l-2,1.2
			c-0.748,0.221-1.524,0.461-2.232,0.701c-2.514,0.854-6.702,4.27-6.702,4.27s0.103,0.08,0.28,0.222l-0.359,0.216
			c0,0,12.939,58.915,1.468,123.351c-12.341,69.323-43.32,107.932-43.32,107.932l0.144,0.058c-0.609,0.354-0.938,0.53-0.938,0.53
			s22.823,67.693,12.566,151.177c-1.061,8.634-30.021,171.584-33.061,191.854c-6.609,44.054,5.138,86.909,5.138,95.45
			c0,8.54-0.561,17.6-0.561,17.6s29.552,8.22,56.362,7.364c26.809-0.854,48.459-7.342,48.459-7.342l1.574-22.231
			c0,0,10.386-30.603,16.758-46.118c13.24-32.24,19.269-82.846,20.105-85.407c0.836-2.563,8.378-1.71,10.053,0.852
			c1.673,2.565,5.026,29.041,9.214,49.541c4.191,20.495,10.89,39.283,15.079,49.531c4.188,10.252,9.217,27.331,10.055,31.602
			c0.837,4.271,1.676,20.498,1.676,20.498s20.944,5.981,60.317,3.418c39.375-2.563,51.941-5.978,51.941-5.978
			s0.555-14.769,1.119-14.729C419.945,716.682,428.374,676.23,417.988,609.279 M220.024,148.129c0,0-13.686-16.786-19.885-40.287
			c-6.198-23.501-6.456-42.611-6.456-42.611s10.587,11.362,18.851,35.122C220.8,124.112,220.024,148.129,220.024,148.129
			 M324.165,115.088c-4.847,18.657-15.992,37.072-15.992,37.072s-2.182-32.953,5.33-50.883c7.512-17.93,18.898-34.164,18.898-34.164
			S329.01,96.431,324.165,115.088"/>
      </g>
		<path clip-path="url(#SVGID_4_)" fill="none" stroke="#897F76" stroke-width="0.25" stroke-miterlimit="10" d="M417.988,609.279
			c-7.939-51.188-33.667-153.319-37.34-202.511c-2.642-35.394,8.857-131.437,8.857-131.437s-0.063-0.06-0.175-0.164
			c-2.687-3.656-48.304-66.444-52.004-118.773c-2.729-38.605,13.216-110.136,13.216-110.136l-11.222-2.362l-3.434-0.875
			c0,0-36.023,37.58-71.21,38.434c-35.183,0.855-76.233-40.141-76.233-40.141s-0.636,0.162-1.562,0.417
			c-0.048-0.398-0.073-0.61-0.073-0.61l-2,1.2c-0.748,0.221-1.524,0.461-2.232,0.701c-2.514,0.854-6.702,4.27-6.702,4.27
			s0.103,0.08,0.28,0.222l-0.359,0.216c0,0,12.939,58.915,1.468,123.351c-12.341,69.323-43.32,107.932-43.32,107.932l0.144,0.058
			c-0.609,0.354-0.938,0.53-0.938,0.53s22.823,67.693,12.566,151.177c-1.061,8.634-30.021,171.584-33.061,191.854
			c-6.609,44.054,5.138,86.909,5.138,95.45c0,8.54-0.561,17.6-0.561,17.6s29.552,8.22,56.362,7.364
			c26.809-0.854,48.459-7.342,48.459-7.342l1.574-22.231c0,0,10.386-30.603,16.758-46.118c13.24-32.24,19.269-82.846,20.105-85.407
			c0.836-2.563,8.378-1.71,10.053,0.852c1.673,2.565,5.026,29.041,9.214,49.541c4.191,20.495,10.89,39.283,15.079,49.531
			c4.188,10.252,9.217,27.331,10.055,31.602c0.837,4.271,1.676,20.498,1.676,20.498s20.944,5.981,60.317,3.418
			c39.375-2.563,51.941-5.978,51.941-5.978s0.555-14.769,1.119-14.729C419.945,716.682,428.374,676.23,417.988,609.279z
			 M220.024,148.129c0,0-13.686-16.786-19.885-40.287c-6.198-23.501-6.456-42.611-6.456-42.611s10.587,11.362,18.851,35.122
			C220.8,124.112,220.024,148.129,220.024,148.129z M324.165,115.088c-4.847,18.657-15.992,37.072-15.992,37.072
			s-2.182-32.953,5.33-50.883c7.512-17.93,18.898-34.164,18.898-34.164S329.01,96.431,324.165,115.088z"/>
	
	</g>
	<g clip-path="url(#SVGID_2_)">
		<defs>
			<rect id="SVGID_5_" x="87.925" y="23.5" width="348.907" height="732.705"/>
		</defs>
		<clipPath id="SVGID_6_">
			<use xlink:href="#SVGID_5_"  overflow="visible"/>
		</clipPath>
    <g id="STRIPES_3">
		<path clip-path="url(#SVGID_6_)" d="M204.286,550.283l-12.813,9.666c0.443,7.317,0.675,14.797,0.675,22.407
			c0,83.779-27.695,152.184-62.513,156.314c9.624,1.981,23.689,4.289,37.707,4.53c22.838-32.99,38.093-92.686,38.093-160.846
			C205.435,571.42,205.037,560.708,204.286,550.283"/>
		<path clip-path="url(#SVGID_6_)" d="M387.66,735.889c-30.225-14.197-53.016-77.533-53.016-153.532c0-7.61,0.23-15.09,0.673-22.407
			l-12.811-9.666c-0.751,10.425-1.148,21.137-1.148,32.071c0,64.739,13.762,121.831,34.71,155.67
			c3.473-0.101,7.116-0.269,10.936-0.517C374.947,736.991,381.782,736.441,387.66,735.889"/>
	</g></g>
	<g clip-path="url(#SVGID_2_)">
		<defs>
			<rect id="SVGID_7_" x="87.925" y="23.5" width="348.907" height="732.705"/>
		</defs>
		<clipPath id="SVGID_8_">
			<use xlink:href="#SVGID_7_"  overflow="visible"/>
		</clipPath>
    <g id="STRIPES_2">
		<path clip-path="url(#SVGID_8_)" fill="#FDBB2D" d="M191.474,559.949l12.812-9.666c-5.162-71.383-27.25-129.006-56.089-148.711
			c-0.374,9.488-1.127,19.292-2.359,29.324c-0.043,0.348-0.131,0.944-0.26,1.765C169.627,450.144,187.825,499.464,191.474,559.949"
			/>
		<path clip-path="url(#SVGID_8_)" fill="#FDBB2D" d="M380.454,400.361c-29.746,18.457-52.674,77.015-57.947,149.922l12.811,9.666
			c3.77-62.468,23.059-113.023,48.28-128.898c-1.316-8.938-2.302-17.099-2.83-24.163
			C380.621,404.896,380.519,402.709,380.454,400.361"/>
	</g></g>
	<g clip-path="url(#SVGID_2_)">
		<defs>
			<rect id="SVGID_9_" x="87.925" y="23.5" width="348.907" height="732.705"/>
		</defs>
		<clipPath id="SVGID_10_">
			<use xlink:href="#SVGID_9_"  overflow="visible"/>
		</clipPath>
    <g id="STRIPES_1">
		<path clip-path="url(#SVGID_10_)" fill="#004D86" d="M200.089,211.689c-2.59,3.971-5.414,7.988-8.499,12.051
			c-1.897,2.5-3.78,4.914-5.643,7.241c-3.137,56.034-19.104,95.617-39.799,113.343c1.087,9.946,1.889,20.768,2.198,32.268
			C178.476,354.729,201.895,296.947,200.089,211.689"/>
		<path clip-path="url(#SVGID_10_)" fill="#004D86" d="M380.666,379.921c0.365-9.952,1.046-20.934,1.877-31.929
			c-23.107-15.532-41.406-57.102-44.655-117.875c-1.208-1.612-2.418-3.248-3.641-4.938c-3.886-5.381-7.329-10.68-10.404-15.899
			C321.411,300.673,347.823,360.942,380.666,379.921"/>
    </g>
	</g>
  <g id="CUSTOM"></g>
	<g clip-path="url(#SVGID_2_)">
		<defs>
			<rect id="SVGID_11_" x="87.925" y="23.5" width="348.907" height="732.705"/>
		</defs>
		<clipPath id="SVGID_12_">
			<use xlink:href="#SVGID_11_"  overflow="visible"/>
		</clipPath>
		<path clip-path="url(#SVGID_12_)" fill="#FFFFFF" d="M175.979,47.015l-0.359,0.215c0,0,15.61,54.522,5.105,117.711
			c-0.175,1.05-0.842,5.185-1.03,6.239c-2.594,14.567-6.353,26.709-8.844,36.89c-11.994,37.616-18.636,47.485-18.636,47.485
			l0.282-0.056c4.845-4.24,27.683-24.17,51.853-70.75c5.378-10.369,9.57-31.62,9.57-31.802
			c-15.721-30.862-20.148-68.433-24.287-92.378C182.837,52.681,177.246,48.032,175.979,47.015"/>
		<path clip-path="url(#SVGID_12_)" fill="#FFFFFF" d="M343.742,54.271c-0.247,0-1.554,1.553-5.876,7.909
			c-3.648,22.874-11.159,66.958-24.246,95.566c2.959,17.648,7.889,27.984,15.563,43.635c12.938,26.38,39.034,52.663,42.143,55.569
			c-1.625-3.248-22.346-37.857-35.312-81.503c-1.785-6.012-2.921-13.912-3.24-20.376c-1.907-38.513,10.571-98.572,10.571-98.572
			l-0.101-0.811C343.245,55.688,343.977,54.271,343.742,54.271"/>
		<g opacity="0.13" clip-path="url(#SVGID_12_)">
			<g>
				<defs>
					<rect id="SVGID_13_" x="192.61" y="53.879" width="195.343" height="339.499"/>
				</defs>
				<clipPath id="SVGID_14_">
					<use xlink:href="#SVGID_13_"  overflow="visible"/>
				</clipPath>
				<g clip-path="url(#SVGID_14_)">
					<defs>
						<path id="SVGID_15_" d="M192.61,222.312c0,0,31.584,0.214,41.583-11.001c10.001-11.214,26.002-48.936,30.002-53.016
							c3.999-4.077,13,87.68,36.001,101.954c23.001,14.272,18.001,83.601,33.002,96.856c15,13.254,46.86,36.273,46.86,36.273
							s2.11-48.336,4.112-68.727c1.998-20.391,4.16-38.484,3.727-40.807c-0.838-4.494-63.318-49.637-79.001-107.16
							c-13.521-49.589-1.048-80.54,4.954-90.735c3.708-6.3,2.81-8.535,20.857-32.07c0,0-17.51,4.504-34.512,28.974
							c-17,24.467-32.002,46.896-38.002,51.995c-5.999,5.097-20,13.253-22,5.097c-2-8.156-25.788-48.892-25.788-48.892
							s15.859,32.308,7.636,68.728C214.184,194.584,192.61,222.312,192.61,222.312"/>
					</defs>
					<clipPath id="SVGID_16_">
						<use xlink:href="#SVGID_15_"  overflow="visible"/>
					</clipPath>
					
						<radialGradient id="SVGID_17_" cx="126.416" cy="774.4941" r="0.9683" gradientTransform="matrix(503.5926 0 0 -513.4127 -63454.0781 397718.6875)" gradientUnits="userSpaceOnUse">
						<stop  offset="0" style="stop-color:#FFFFFF"/>
						<stop  offset="1" style="stop-color:#897F76"/>
					</radialGradient>
					<rect x="192.61" y="53.879" clip-path="url(#SVGID_16_)" fill="url(#SVGID_17_)" width="195.722" height="339.499"/>
				</g>
			</g>
		</g>
		<g opacity="0.13" clip-path="url(#SVGID_12_)">
			<g>
				<defs>
					<rect id="SVGID_18_" x="133.868" y="261.268" width="101.328" height="240.906"/>
				</defs>
				<clipPath id="SVGID_19_">
					<use xlink:href="#SVGID_18_"  overflow="visible"/>
				</clipPath>
				<g clip-path="url(#SVGID_19_)">
					<defs>
						<path id="SVGID_20_" d="M156.192,261.268c0,0,31.001,42.819,43.001,50.976c12,8.156,36.002,15.292,36.002,22.428
							c0,7.138-25.002,18.354-38.002,40.782c-13,22.431-14,61.172-25.001,77.485c-11,16.313-37.448,49.235-37.448,49.235
							s1.227-16.256,4.056-30.011c4.34-21.097,6.396-35.619,7.705-46.026c0.885-7.038,2.637-26.198,2.029-46.839
							c-0.878-29.778-5.898-62.919-6.49-68.939c-0.999-10.196-8.175-29.914-8.175-29.914L156.192,261.268z"/>
					</defs>
					<clipPath id="SVGID_21_">
						<use xlink:href="#SVGID_20_"  overflow="visible"/>
					</clipPath>
					
						<radialGradient id="SVGID_22_" cx="126.3647" cy="774.5332" r="0.969" gradientTransform="matrix(290.6473 0 0 -296.3149 -36612.75 229995.5781)" gradientUnits="userSpaceOnUse">
						<stop  offset="0" style="stop-color:#FFFFFF"/>
						<stop  offset="1" style="stop-color:#897F76"/>
					</radialGradient>
					<rect x="133.868" y="261.268" clip-path="url(#SVGID_21_)" fill="url(#SVGID_22_)" width="101.328" height="240.906"/>
				</g>
			</g>
		</g>
		<g opacity="0.13" clip-path="url(#SVGID_12_)">
			<g>
				<defs>
					<rect id="SVGID_23_" x="148.433" y="546.735" width="104.149" height="193.021"/>
				</defs>
				<clipPath id="SVGID_24_">
					<use xlink:href="#SVGID_23_"  overflow="visible"/>
				</clipPath>
				<g clip-path="url(#SVGID_24_)">
					<defs>
						<path id="SVGID_25_" d="M148.433,546.735c0,0,36.001,32.622,56.001,34.664c20.001,2.037,48.148,0.561,48.148,0.561
							s-5.012,36.297-7.414,46.047c-3.926,15.931-16.126,48.96-20.319,59.569c-2.108,5.338-9.04,26.141-9.04,26.141
							c-1.762,8.848-2.043,23.731-2.043,23.731l-10.388,2.309c0,0,2.057-21.743,3.057-32.958c1-11.217,13-55.055,17.001-63.211
							c4-8.154,10.001-38.739,10.001-38.739s-12.001,1.018-38.002-8.156c-26-9.179-33-25.492-39.001-33.646
							C150.433,554.891,148.433,546.735,148.433,546.735"/>
					</defs>
					<clipPath id="SVGID_26_">
						<use xlink:href="#SVGID_25_"  overflow="visible"/>
					</clipPath>
					
						<radialGradient id="SVGID_27_" cx="126.3193" cy="774.5498" r="0.969" gradientTransform="matrix(225.6698 0 0 -230.0703 -28346.7734 178743.5156)" gradientUnits="userSpaceOnUse">
						<stop  offset="0" style="stop-color:#FFFFFF"/>
						<stop  offset="1" style="stop-color:#897F76"/>
					</radialGradient>
					<rect x="148.433" y="546.735" clip-path="url(#SVGID_26_)" fill="url(#SVGID_27_)" width="104.149" height="193.021"/>
				</g>
			</g>
		</g>
		<g opacity="0.75" clip-path="url(#SVGID_12_)">
			<g>
				<defs>
					<rect id="SVGID_28_" x="152.215" y="47.015" width="61.704" height="208.541"/>
				</defs>
				<clipPath id="SVGID_29_">
					<use xlink:href="#SVGID_28_"  overflow="visible"/>
				</clipPath>
				<g clip-path="url(#SVGID_29_)">
					<defs>
						<path id="SVGID_30_" d="M204.349,184.749c5.38-10.369,9.571-31.62,9.571-31.802c-15.722-30.862-20.147-68.434-24.287-92.379
							c-6.795-7.889-12.386-12.536-13.653-13.554l-0.358,0.214c0,0,15.61,54.523,5.103,117.712
							c-0.174,1.049-0.842,5.185-1.029,6.239c-2.594,14.567-6.352,26.709-8.844,36.89c-11.993,37.616-18.636,47.486-18.636,47.486
							l0.281-0.057C157.342,251.259,180.18,231.33,204.349,184.749"/>
					</defs>
					<clipPath id="SVGID_31_">
						<use xlink:href="#SVGID_30_"  overflow="visible"/>
					</clipPath>
					
						<linearGradient id="SVGID_32_" gradientUnits="userSpaceOnUse" x1="126.5142" y1="774.332" x2="127.4835" y2="774.332" gradientTransform="matrix(1.365 246.3947 246.3947 -1.365 -190781.7344 -30055.0625)">
						<stop  offset="0" style="stop-color:#FFFFFF"/>
						<stop  offset="0.2057" style="stop-color:#F7F6F5"/>
						<stop  offset="0.3937" style="stop-color:#E7E4E2"/>
						<stop  offset="0.575" style="stop-color:#D1CCC8"/>
						<stop  offset="0.7519" style="stop-color:#B6AFA9"/>
						<stop  offset="0.9241" style="stop-color:#978E86"/>
						<stop  offset="1" style="stop-color:#897F76"/>
					</linearGradient>
					<polygon clip-path="url(#SVGID_31_)" fill="url(#SVGID_32_)" points="213.917,46.672 215.075,255.548 152.217,255.897 
						151.06,47.021 					"/>
				</g>
			</g>
		</g>
		<g opacity="0.75" clip-path="url(#SVGID_12_)">
			<g>
				<defs>
					<rect id="SVGID_33_" x="313.62" y="54.271" width="57.706" height="202.68"/>
				</defs>
				<clipPath id="SVGID_34_">
					<use xlink:href="#SVGID_33_"  overflow="visible"/>
				</clipPath>
				<g clip-path="url(#SVGID_34_)">
					<defs>
						<path id="SVGID_35_" d="M337.866,62.18c-3.648,22.873-11.159,66.958-24.246,95.566c2.959,17.648,7.889,27.984,15.563,43.635
							c12.938,26.38,39.034,52.662,42.143,55.569c-1.625-3.248-22.346-37.857-35.312-81.503c-1.785-6.012-2.921-13.912-3.24-20.376
							c-1.907-38.513,10.571-98.572,10.571-98.572l-0.1-0.811C343.246,55.688,346.314,49.751,337.866,62.18"/>
					</defs>
					<clipPath id="SVGID_36_">
						<use xlink:href="#SVGID_35_"  overflow="visible"/>
					</clipPath>
					
						<linearGradient id="SVGID_37_" gradientUnits="userSpaceOnUse" x1="126.5137" y1="774.3086" x2="127.4828" y2="774.3086" gradientTransform="matrix(1.3412 242.1043 242.1043 -1.3412 -187290.9219 -29523.0586)">
						<stop  offset="0" style="stop-color:#FFFFFF"/>
						<stop  offset="0.2057" style="stop-color:#F7F6F5"/>
						<stop  offset="0.3937" style="stop-color:#E7E4E2"/>
						<stop  offset="0.575" style="stop-color:#D1CCC8"/>
						<stop  offset="0.7519" style="stop-color:#B6AFA9"/>
						<stop  offset="0.9241" style="stop-color:#978E86"/>
						<stop  offset="1" style="stop-color:#897F76"/>
					</linearGradient>
					<polygon clip-path="url(#SVGID_36_)" fill="url(#SVGID_37_)" points="371.324,49.431 372.474,256.945 313.622,257.271 
						312.473,49.758 					"/>
				</g>
			</g>
		</g>
	</g>
	<g clip-path="url(#SVGID_2_)">
		<defs>
			<rect id="SVGID_38_" x="87.925" y="23.5" width="348.907" height="732.705"/>
		</defs>
		<clipPath id="SVGID_39_">
			<use xlink:href="#SVGID_38_"  overflow="visible"/>
		</clipPath>
		<g clip-path="url(#SVGID_39_)">
			<g>
				<defs>
					<rect id="SVGID_40_" x="180.413" y="538.728" width="167.668" height="232.604"/>
				</defs>
				<clipPath id="SVGID_41_">
					<use xlink:href="#SVGID_40_"  overflow="visible"/>
				</clipPath>
				<g opacity="0.35" clip-path="url(#SVGID_41_)">
					<g>
						<defs>
							<rect id="SVGID_42_" x="180.413" y="538.728" width="167.668" height="232.604"/>
						</defs>
						<clipPath id="SVGID_43_">
							<use xlink:href="#SVGID_42_"  overflow="visible"/>
						</clipPath>
						<g clip-path="url(#SVGID_43_)">
							<defs>
								<rect id="SVGID_44_" x="180.413" y="538.728" width="167.668" height="232.604"/>
							</defs>
							<clipPath id="SVGID_45_">
								<use xlink:href="#SVGID_44_"  overflow="visible"/>
							</clipPath>
							<g transform="matrix(1 0 0 1 0 6.103516e-005)" clip-path="url(#SVGID_45_)">
								
								
							</g>
						</g>
					</g>
				</g>
				
					<path clip-path="url(#SVGID_41_)" fill="none" stroke="#897F76" stroke-width="0.25" stroke-miterlimit="10" stroke-dasharray="0.5,0.5" d="
					M288.254,641.755c-1.782-4.604-7.316-36.507-7.983-41.168c-1.317-9.229-6.56-28.471-6.56-28.471s-1.861,0-11.17,0.267
					c-9.306,0.267-9.789,1.573-9.789,1.573s-0.877,17.646-2.883,29.516c-0.852,5.038-4.359,30.632-15.535,59.252
					c-9.098,23.302-19.397,53.843-19.397,53.843l-0.939,21.061c5.781-0.985,8.017-1.934,8.017-1.934l1.106-21.842
					c0,0,9.091-27.262,14.376-38.426c5.294-11.167,14.042-44.666,16.391-56.422c2.354-11.755,6.278-37.02,6.278-37.02
					s2.085-1.785,4.423-1.657c4.376,0.232,6.087,2.573,6.087,2.573s3.152,11.21,5.808,31.692
					c2.449,18.871,8.301,39.575,11.166,47.494c3.06,8.463,11.306,31.092,12.199,33.943c0.945,3.015,5.177,18.23,5.177,18.23
					l1.585,20.049l7.392,0.98l-1.996-21.749C312.005,713.541,291.443,650,288.254,641.755z"/>
			</g>
		</g>
		<g opacity="0.75" clip-path="url(#SVGID_39_)">
			<g>
				<defs>
					<rect id="SVGID_46_" x="117.333" y="703.271" width="303.555" height="7.414"/>
				</defs>
				<clipPath id="SVGID_47_">
					<use xlink:href="#SVGID_46_"  overflow="visible"/>
				</clipPath>
				
					<path clip-path="url(#SVGID_47_)" fill="none" stroke="#897F76" stroke-width="0.5" stroke-miterlimit="10" stroke-dasharray="5,2" d="
					M117.364,703.511c32.204,4.068,77.403,4.068,109.608,0"/>
				
					<path clip-path="url(#SVGID_47_)" fill="none" stroke="#897F76" stroke-width="0.5" stroke-miterlimit="10" stroke-dasharray="5,2" d="
					M117.364,707.392c32.204,4.068,75.464,4.068,107.668,0"/>
				
					<path clip-path="url(#SVGID_47_)" fill="none" stroke="#897F76" stroke-width="0.5" stroke-miterlimit="10" stroke-dasharray="5,2" d="
					M302.391,703.511c33.536,4.068,84.933,4.068,118.47,0"/>
				
					<path clip-path="url(#SVGID_47_)" fill="none" stroke="#897F76" stroke-width="0.5" stroke-miterlimit="10" stroke-dasharray="5,2" d="
					M303.359,707.392c33.539,4.068,83.965,4.068,117.501,0"/>
			</g>
		</g>
	</g>
	<g id="TRIM" clip-path="url(#SVGID_2_)">
		<defs>
			<rect id="SVGID_48_" x="87.925" y="23.5" width="348.907" height="732.705"/>
		</defs>
		<clipPath id="SVGID_49_">
			<use xlink:href="#SVGID_48_"  overflow="visible"/>
		</clipPath>
		<path clip-path="url(#SVGID_49_)" fill="#FFFFFF" d="M352.689,46.233c0,0-14.198,86.284-11.952,110.809
			c3.946,43.166,50.185,119.172,50.185,119.172l-6.25,3.915c0,0-50.672-83.226-51.864-123.527
			c-1.294-43.613,12.774-112.63,12.774-112.63L352.689,46.233z"/>
		<path clip-path="url(#SVGID_49_)" fill="none" stroke="#897F76" stroke-width="0.5" stroke-dasharray="1,0.75" d="M352.689,46.233
			c0,0-14.198,86.284-11.952,110.809c3.946,43.166,50.185,119.172,50.185,119.172l-6.25,3.915c0,0-50.672-83.226-51.864-123.527
			c-1.294-43.613,12.774-112.63,12.774-112.63L352.689,46.233z"/>
		<path clip-path="url(#SVGID_49_)" fill="#FFFFFF" d="M352.295,46.092c0,0-3.746-2.794-6.129-2.529
			c-2.385,0.264-88.234,76.013-12.038,181.497c28.871,39.965,54.148,57.933,54.148,57.933s3.18-1.324,3.71-2.914
			c0.528-1.589-1.589-4.768-1.589-4.768s-89.973-74.126-77.965-151.396C320.568,71.58,352.295,46.092,352.295,46.092"/>
		<path clip-path="url(#SVGID_49_)" fill="none" stroke="#897F76" stroke-width="0.5" stroke-dasharray="1,0.75" d="M352.295,46.092
			c0,0-3.746-2.794-6.129-2.529c-2.385,0.264-88.234,76.013-12.038,181.497c28.871,39.965,54.148,57.933,54.148,57.933
			s3.18-1.324,3.71-2.914c0.528-1.589-1.589-4.768-1.589-4.768s-89.973-74.126-77.965-151.396
			C320.568,71.58,352.295,46.092,352.295,46.092z"/>
		<path clip-path="url(#SVGID_49_)" fill="#FFFFFF" d="M173.105,163.947c-15.382,75.196-41.714,112.306-41.714,112.306
			s7.979-0.823,9.193-1.733c1.213-0.911,27.364-35.944,39.736-106.288c11.235-63.874-1.292-122.764-1.292-122.764l-6.498,0.604
			C172.531,46.071,181.574,122.541,173.105,163.947"/>
		<path clip-path="url(#SVGID_49_)" fill="none" stroke="#897F76" stroke-width="0.5" stroke-dasharray="1,0.75" d="
			M173.105,163.947c-15.382,75.196-41.714,112.306-41.714,112.306s7.979-0.823,9.193-1.733
			c1.213-0.911,27.364-35.944,39.736-106.288c11.235-63.874-1.292-122.764-1.292-122.764l-6.498,0.604
			C172.531,46.071,181.574,122.541,173.105,163.947z"/>
		<path clip-path="url(#SVGID_49_)" fill="#FFFFFF" d="M172.531,46.071c0,0,3.905-2.772,6.39-2.508
			c2.484,0.262,91.982,75.412,12.55,180.057c-30.096,39.649-56.449,57.473-56.449,57.473s-3.314-1.313-3.866-2.89
			c-0.553-1.577,1.657-4.729,1.657-4.729s93.793-73.541,81.273-150.196C205.604,71.358,172.531,46.071,172.531,46.071"/>
		<path clip-path="url(#SVGID_49_)" fill="none" stroke="#897F76" stroke-width="0.5" stroke-dasharray="1,0.75" d="M172.531,46.071
			c0,0,3.905-2.772,6.39-2.508c2.484,0.262,91.982,75.412,12.55,180.057c-30.096,39.649-56.449,57.473-56.449,57.473
			s-3.314-1.313-3.866-2.89c-0.553-1.577,1.657-4.729,1.657-4.729s93.793-73.541,81.273-150.196
			C205.604,71.358,172.531,46.071,172.531,46.071z"/>
		<path clip-path="url(#SVGID_49_)" fill="#FFFFFF" d="M185.531,41.482c0,0,2.165-3.084,6.486-2.22
			c3.033,0.607,40.613,38.02,72.369,37.589c33.092-0.45,66.417-35.519,69.126-36.292c4.536-1.297,5.796,3.051,5.796,3.051
			s-3.42,2.781-8.821,7.75c-5.398,4.967-37.372,35.21-72.583,31.755C218.372,79.236,185.531,41.482,185.531,41.482"/>
		<path clip-path="url(#SVGID_49_)" fill="none" stroke="#897F76" stroke-width="0.5" stroke-dasharray="1,0.75" d="M185.531,41.482
			c0,0,2.165-3.084,6.486-2.22c3.033,0.607,40.613,38.02,72.369,37.589c33.092-0.45,66.417-35.519,69.126-36.292
			c4.536-1.297,5.796,3.051,5.796,3.051s-3.42,2.781-8.821,7.75c-5.398,4.967-37.372,35.21-72.583,31.755
			C218.372,79.236,185.531,41.482,185.531,41.482z"/>
		<path clip-path="url(#SVGID_49_)" fill="#FFFFFF" d="M311.366,139.894c0.208,2.331,0.231,5.441,0.528,8.459
			c0.358,3.613,0.9,7.252,1.481,9.993c15.657-34.598,21.011-74.905,24.724-96.577c-3.695,4.513-6.084,8.537-9.974,15.406
			C324.143,97.237,319.594,116.906,311.366,139.894"/>
		<path clip-path="url(#SVGID_49_)" fill="none" stroke="#897F76" stroke-width="0.5" stroke-dasharray="1,0.75" d="
			M311.366,139.894c0.208,2.331,0.231,5.441,0.528,8.459c0.358,3.613,0.9,7.252,1.481,9.993
			c15.657-34.598,21.011-74.905,24.724-96.577c-3.695,4.513-6.084,8.537-9.974,15.406
			C324.143,97.237,319.594,116.906,311.366,139.894z"/>
		<path clip-path="url(#SVGID_49_)" fill="#FFFFFF" d="M196.501,74.944c-2.512-4.343-7.208-11.523-9.657-14.099
			c2.208,14.506,5.594,33.217,9.306,46.534c2.752,9.879,5.862,24.103,17.741,45.428c1.266-5.652,1.316-9.379,1.739-14.684
			C204.425,110.304,201.382,96.309,196.501,74.944"/>
		<path clip-path="url(#SVGID_49_)" fill="none" stroke="#897F76" stroke-width="0.5" stroke-dasharray="1,0.75" d="M196.501,74.944
			c-2.512-4.343-7.208-11.523-9.657-14.099c2.208,14.506,5.594,33.217,9.306,46.534c2.752,9.879,5.862,24.103,17.741,45.428
			c1.266-5.652,1.316-9.379,1.739-14.684C204.425,110.304,201.382,96.309,196.501,74.944z"/>
	</g>
</g>
  
</svg>
