<?xml version="1.0" encoding="utf-8"?>
<!-- Generator: Adobe Illustrator 16.0.0, SVG Export Plug-In . SVG Version: 6.00 Build 0)  -->
<!DOCTYPE svg PUBLIC "-//W3C//DTD SVG 1.1//EN" "http://www.w3.org/Graphics/SVG/1.1/DTD/svg11.dtd">
<svg version="1.1" id="Layer_1" xmlns="http://www.w3.org/2000/svg" xmlns:xlink="http://www.w3.org/1999/xlink" x="0px" y="0px"
	 width="612px" height="792px" viewBox="0 0 472 792" enable-background="new 0 0 612 792" xml:space="preserve">
<g>
	<defs>
		<rect id="SVGID_1_" x="91" y="21.393" width="350.527" height="736.107"/>
	</defs>
	<clipPath id="SVGID_2_">
		<use xlink:href="#SVGID_1_"  overflow="visible"/>
	</clipPath>
	<g clip-path="url(#SVGID_2_)">
		<defs>
			<rect id="SVGID_3_" x="91" y="21.393" width="350.527" height="736.107"/>
		</defs>
		<clipPath id="SVGID_4_">
			<use xlink:href="#SVGID_3_"  overflow="visible"/>
		</clipPath>
    <g id="BODY">
		<path clip-path="url(#SVGID_4_)" fill="#897F76" d="M413.058,574.725c-2.393-12.01-9.599-48.626-11.399-56.428
			c-1.799-7.809-10.805-39.018-10.805-43.225s-18.718-79.113-10.212-153.082c0.988-8.542,6.604-44.417,7.207-50.427
			c0.603-6.002,1.423-18.271,1.423-18.271s-13.545-6.495-30.833-74.812c-10.12-39.997-10.203-108.624-9.608-112.22
			c0.603-3.609,1.197-16.215,1.197-16.215L332.15,40.38c0,0-11.656,15.776-27.425,30.021
			c-15.028,13.572-27.435,24.025-48.326,24.117c-14.316,0.063-30.096-11.993-39.793-23.143
			c-13.882-15.964-22.559-24.667-22.559-24.667s-15.109-0.261-18.114,2.14c-2.996,2.404-6.391,6.298-6.391,6.298
			s4.73,58.644-5.517,120.087c-6.639,39.779-26.939,76.921-26.939,76.921s5.146,29.975,6.439,38.614
			c12.491,83.833,6.596,118.265,6,129.671c-0.604,11.406-4.804,45.026-9.609,61.229c-4.805,16.212-19.811,63.033-21.009,79.245
			c-1.203,16.204-3.004,44.418-1.798,64.23c1.198,19.811,7.8,51.033,8.997,60.037c1.207,9.004,4.807,22.212,4.21,27.016
			c-0.601,4.796-0.785,14.532-0.785,14.532s5.661,15.168,40.536,15.168c2.428,0,4.979-0.092,7.674-0.288
			c41.421-2.995,48.619-6,48.619-6l-0.593-17.411c0,0,6-30.616,11.399-42.021c5.408-11.411,18.012-43.822,20.413-55.834
			c2.404-12.007,4.806-42.021,4.806-42.021s3.607-0.603,6.002-0.603c2.4,0,4.804,2.397,4.804,2.397s1.195,20.417,4.795,36.02
			c3.608,15.609,13.812,39.622,15.62,48.033c1.797,8.403,9.004,32.419,9.599,35.411c0.603,3.008,1.798,9.009,1.798,9.009
			l0.604,14.411c0,0,9.609,10.805,15.006,13.201c3.954,1.764,22.079,2.879,36.45,2.879c5.253,0,10.002-0.149,13.376-0.468
			c12.611-1.205,26.413-2.402,28.215-4.808c1.808-2.401,7.206-11.408,7.206-11.408s0-21.61,0.594-25.218
			c0.611-3.6,7.205-48.014,8.413-54.621C416.064,635.953,415.46,586.728,413.058,574.725 M212.35,147.295
			c0,0-7.605-11.41-13.829-30.596c-6.223-19.187-8.47-49.091-8.47-49.091s11.582,5.877,14.693,8.47
			c3.112,2.593,12.445,16.595,14.173,29.731C220.647,118.947,212.35,147.295,212.35,147.295 M320.557,111.168
			c-4.149,9.507-18.841,37.164-18.841,37.164s-12.79-11.236-12.619-26.965c0.173-15.73,7.087-31.805,21.436-43.732
			c14.346-11.927,25.235-17.458,25.235-17.458S324.706,101.661,320.557,111.168"/>
      </g>
		<path clip-path="url(#SVGID_4_)" fill="none" stroke="#897F76" stroke-width="0.25" stroke-miterlimit="10" d="M413.058,574.725
			c-2.393-12.01-9.599-48.626-11.399-56.428c-1.799-7.809-10.805-39.018-10.805-43.225s-18.718-79.113-10.212-153.082
			c0.988-8.542,6.604-44.417,7.207-50.427c0.603-6.002,1.423-18.271,1.423-18.271s-13.545-6.495-30.833-74.812
			c-10.12-39.997-10.203-108.624-9.608-112.22c0.603-3.609,1.197-16.215,1.197-16.215L332.15,40.38c0,0-11.656,15.776-27.425,30.021
			c-15.028,13.572-27.435,24.025-48.326,24.117c-14.316,0.063-30.096-11.993-39.793-23.143
			c-13.882-15.964-22.559-24.667-22.559-24.667s-15.109-0.261-18.114,2.14c-2.996,2.404-6.391,6.298-6.391,6.298
			s4.73,58.644-5.517,120.087c-6.639,39.779-26.939,76.921-26.939,76.921s5.146,29.975,6.439,38.614
			c12.491,83.833,6.596,118.265,6,129.671c-0.604,11.406-4.804,45.026-9.609,61.229c-4.805,16.212-19.811,63.033-21.009,79.245
			c-1.203,16.204-3.004,44.418-1.798,64.23c1.198,19.811,7.8,51.033,8.997,60.037c1.207,9.004,4.807,22.212,4.21,27.016
			c-0.601,4.796-0.785,14.532-0.785,14.532s5.661,15.168,40.536,15.168c2.428,0,4.979-0.092,7.674-0.288
			c41.421-2.995,48.619-6,48.619-6l-0.593-17.411c0,0,6-30.616,11.399-42.021c5.408-11.411,18.012-43.822,20.413-55.834
			c2.404-12.007,4.806-42.021,4.806-42.021s3.607-0.603,6.002-0.603c2.4,0,4.804,2.397,4.804,2.397s1.195,20.417,4.795,36.02
			c3.608,15.609,13.812,39.622,15.62,48.033c1.797,8.403,9.004,32.419,9.599,35.411c0.603,3.008,1.798,9.009,1.798,9.009
			l0.604,14.411c0,0,9.609,10.805,15.006,13.201c3.954,1.764,22.079,2.879,36.45,2.879c5.253,0,10.002-0.149,13.376-0.468
			c12.611-1.205,26.413-2.402,28.215-4.808c1.808-2.401,7.206-11.408,7.206-11.408s0-21.61,0.594-25.218
			c0.611-3.6,7.205-48.014,8.413-54.621C416.064,635.953,415.46,586.728,413.058,574.725z M212.35,147.295
			c0,0-7.605-11.41-13.829-30.596c-6.223-19.187-8.47-49.091-8.47-49.091s11.582,5.877,14.693,8.47
			c3.112,2.593,12.445,16.595,14.173,29.731C220.647,118.947,212.35,147.295,212.35,147.295z M320.557,111.168
			c-4.149,9.507-18.841,37.164-18.841,37.164s-12.79-11.236-12.619-26.965c0.173-15.73,7.087-31.805,21.436-43.732
			c14.346-11.927,25.235-17.458,25.235-17.458S324.706,101.661,320.557,111.168z"/>
	</g>
	<g clip-path="url(#SVGID_2_)">
		<defs>
			<rect id="SVGID_5_" x="91" y="21.393" width="350.527" height="736.107"/>
		</defs>
		<clipPath id="SVGID_6_">
			<use xlink:href="#SVGID_5_"  overflow="visible"/>
		</clipPath>
    <g id="STRIPES_3">
		<path clip-path="url(#SVGID_6_)" d="M204.978,574.965l-12.872,9.709c0.445,7.354,0.678,14.868,0.678,22.515
			c0,56.974-12.749,106.869-31.836,134.452c2.771,0.24,5.777,0.372,9.04,0.372c2.435,0,4.994-0.091,7.698-0.286
			c1.705-0.126,3.331-0.249,4.923-0.371c14.525-34.239,23.524-81.704,23.524-134.168C206.133,596.2,205.733,585.438,204.978,574.965
			"/>
		<path clip-path="url(#SVGID_6_)" d="M366.045,739.034c-18.121-28.05-30.104-76.618-30.104-131.846
			c0-7.646,0.234-15.16,0.68-22.515l-12.873-9.709c-0.754,10.474-1.154,21.235-1.154,32.223c0,51.244,8.588,97.715,22.522,131.754
			c4.189,0.161,8.473,0.248,12.466,0.248C360.632,739.189,363.502,739.138,366.045,739.034"/>
	</g></g>
	<g clip-path="url(#SVGID_2_)">
		<defs>
			<rect id="SVGID_7_" x="91" y="21.393" width="350.527" height="736.107"/>
		</defs>
		<clipPath id="SVGID_8_">
			<use xlink:href="#SVGID_7_"  overflow="visible"/>
		</clipPath>
    <g id="STRIPES_2">
		<path clip-path="url(#SVGID_8_)" fill="#FDBB2D" d="M323.748,574.965l12.873,9.709c3.914-64.881,24.491-116.97,51.098-130.99
			c-1.445-8.156-3.102-18.375-4.578-30.043C352.686,441.355,329.114,500.761,323.748,574.965"/>
		<path clip-path="url(#SVGID_8_)" fill="#FDBB2D" d="M192.107,584.674l12.871-9.709c-5.17-71.489-27.237-129.244-56.077-149.214
			c-0.732,7.878-2.143,19.288-3.938,30.322C169.636,472.957,188.389,523.046,192.107,584.674"/>
	</g></g>
	<g clip-path="url(#SVGID_2_)">
		<defs>
			<rect id="SVGID_9_" x="91" y="21.393" width="350.527" height="736.107"/>
		</defs>
		<clipPath id="SVGID_10_">
			<use xlink:href="#SVGID_9_"  overflow="visible"/>
		</clipPath>
    <g id="STRIPES_1">
		<path clip-path="url(#SVGID_10_)" fill="#004D86" d="M200.284,221.308c-2.983-58.879-19.955-129.516-29.639-165.843
			c0.31,8.586,0.804,28.675-0.106,53.459c7.694,37.661,15.483,82.303,16.398,112.384c2.109,69.324-13.66,119.37-36.033,142.638
			c0.612,14.755,0.417,26.178-0.007,34.915C181.686,374.538,204.894,312.292,200.284,221.308"/>
		<path clip-path="url(#SVGID_10_)" fill="#004D86" d="M338.867,221.308c0.786-25.761,6.609-62.205,13.098-95.796
			c-1.535-18.372-2.332-35.742-2.635-47.308c-9.525,38.694-21.365,94.849-23.812,143.104
			c-4.906,96.822,21.69,161.104,55.402,181.765c-0.979-11.049-1.677-22.891-1.858-35.165
			C354.515,346.715,336.629,294.858,338.867,221.308"/>
	</g>
    </g>
  <g id="CUSTOM"></g>
	<g clip-path="url(#SVGID_2_)">
		<defs>
			<rect id="SVGID_11_" x="91" y="21.393" width="350.527" height="736.107"/>
		</defs>
		<clipPath id="SVGID_12_">
			<use xlink:href="#SVGID_11_"  overflow="visible"/>
		</clipPath>
		<path clip-path="url(#SVGID_12_)" fill="#FFFFFF" d="M191.379,63.952c0,0,5.547,3.205,11.115,8.092
			c6.733,5.913,13.925,14.395,16.941,24.088c0.588,1.888,1.125,4.132,1.313,5.771c2.34,20.138-6.293,43.483-6.293,43.483
			s14.685,22.694,43.293,23.077c28.036,0.374,38.525-21.169,38.525-21.169s-10.519-12.542-10.109-29.751
			c0.389-16.326,12.044-31.412,23.726-41.995c11.247-10.188,21.666-17.127,21.666-17.127l2.67-11.063c0,0-0.292-2.144-0.43-2.547
			c-0.133-0.404-1.476-0.886-1.476-0.886s-8.147,10.809-18.563,21.556c-5.19,5.357-11.019,10.532-16.531,14.681
			c-16.858,12.687-32.231,18.309-45.391,16.592c-5.56-0.725-12.673-3.426-19.548-7.543c-9.396-5.63-18.245-13.797-23.996-20.088
			c-10.037-10.978-15.769-20.046-15.769-20.046s-2.859,1.906-2.669,3.814C190.043,54.796,191.379,63.952,191.379,63.952"/>
		<path clip-path="url(#SVGID_12_)" fill="#929497" d="M263.264,131.953c0,1.99-2.089,3.603-4.667,3.603h-5.92
			c-2.575,0-4.664-1.613-4.664-3.603v-6.658c0-1.99,2.089-3.603,4.664-3.603h5.92c2.578,0,4.667,1.613,4.667,3.603V131.953z"/>
		<path clip-path="url(#SVGID_12_)" fill="none" stroke="#929497" stroke-width="1.075" stroke-miterlimit="3.864" d="
			M263.264,131.953c0,1.99-2.089,3.603-4.667,3.603h-5.92c-2.575,0-4.664-1.613-4.664-3.603v-6.658c0-1.99,2.089-3.603,4.664-3.603
			h5.92c2.578,0,4.667,1.613,4.667,3.603V131.953z"/>
		<path clip-path="url(#SVGID_12_)" fill="#929497" d="M263.264,131.953c0,1.99-2.089,3.603-4.667,3.603h-5.92
			c-2.575,0-4.664-1.613-4.664-3.603v-6.658c0-1.99,2.089-3.603,4.664-3.603h5.92c2.578,0,4.667,1.613,4.667,3.603V131.953z"/>
		<path clip-path="url(#SVGID_12_)" fill="none" stroke="#000000" stroke-width="0.358" stroke-miterlimit="3.864" d="
			M263.264,131.953c0,1.99-2.089,3.603-4.667,3.603h-5.92c-2.575,0-4.664-1.613-4.664-3.603v-6.658c0-1.99,2.089-3.603,4.664-3.603
			h5.92c2.578,0,4.667,1.613,4.667,3.603V131.953z"/>
		<path clip-path="url(#SVGID_12_)" fill-rule="evenodd" clip-rule="evenodd" fill="#929497" d="M259.586,108.232
			c2.252,0,4.076,1.821,4.076,4.073c0,2.248-1.824,4.074-4.076,4.074h-7.897c-2.25,0-4.075-1.826-4.075-4.074
			c0-2.252,1.824-4.073,4.075-4.073H259.586z"/>
		<path clip-path="url(#SVGID_12_)" fill="none" stroke="#000000" stroke-width="1.422" stroke-miterlimit="3.864" d="
			M259.586,108.232c2.252,0,4.076,1.821,4.076,4.073c0,2.248-1.824,4.074-4.076,4.074h-7.897c-2.25,0-4.075-1.826-4.075-4.074
			c0-2.252,1.824-4.073,4.075-4.073H259.586z"/>
		<path clip-path="url(#SVGID_12_)" fill-rule="evenodd" clip-rule="evenodd" d="M259.586,108.232c2.252,0,4.076,1.821,4.076,4.073
			c0,2.248-1.824,4.074-4.076,4.074h-7.897c-2.25,0-4.075-1.826-4.075-4.074c0-2.252,1.824-4.073,4.075-4.073H259.586z"/>
		<path clip-path="url(#SVGID_12_)" fill="none" stroke="#929497" stroke-width="0.648" stroke-miterlimit="3.864" d="
			M259.586,108.232c2.252,0,4.076,1.821,4.076,4.073c0,2.248-1.824,4.074-4.076,4.074h-7.897c-2.25,0-4.075-1.826-4.075-4.074
			c0-2.252,1.824-4.073,4.075-4.073H259.586z"/>
		<path clip-path="url(#SVGID_12_)" fill="#929497" d="M248.871,112.295c0-1.574,1.222-2.861,2.769-2.967v5.931
			C250.092,115.154,248.871,113.865,248.871,112.295"/>
		<polygon clip-path="url(#SVGID_12_)" fill-rule="evenodd" clip-rule="evenodd" fill="#929497" points="254.713,111.903 
			252.13,109.322 254.713,109.322 		"/>
		<polygon clip-path="url(#SVGID_12_)" fill-rule="evenodd" clip-rule="evenodd" fill="#929497" points="254.713,112.681 
			252.13,115.264 254.713,115.264 		"/>
		<polygon clip-path="url(#SVGID_12_)" fill-rule="evenodd" clip-rule="evenodd" fill="#929497" points="257.953,111.903 
			260.535,109.322 257.953,109.322 		"/>
		<polygon clip-path="url(#SVGID_12_)" fill-rule="evenodd" clip-rule="evenodd" fill="#929497" points="257.953,112.681 
			260.535,115.264 257.953,115.264 		"/>
		<rect x="255.26" y="109.322" clip-path="url(#SVGID_12_)" fill="#929497" width="2.143" height="5.942"/>
		<path clip-path="url(#SVGID_12_)" d="M241.144,118.995l0.492,0.148c-0.033,0.139-0.084,0.253-0.157,0.347
			c-0.07,0.092-0.159,0.161-0.263,0.208c-0.107,0.049-0.24,0.074-0.404,0.074c-0.196,0-0.359-0.031-0.486-0.087
			c-0.124-0.059-0.233-0.159-0.324-0.304c-0.09-0.145-0.136-0.329-0.136-0.556c0-0.302,0.078-0.533,0.239-0.695
			c0.16-0.162,0.388-0.242,0.68-0.242c0.229,0,0.41,0.047,0.543,0.14c0.129,0.091,0.225,0.235,0.29,0.425l-0.496,0.112
			c-0.017-0.055-0.036-0.095-0.054-0.122c-0.031-0.043-0.07-0.078-0.117-0.098c-0.046-0.025-0.097-0.034-0.153-0.034
			c-0.127,0-0.225,0.049-0.292,0.151c-0.052,0.078-0.077,0.197-0.077,0.358c0,0.204,0.029,0.341,0.091,0.416
			c0.062,0.074,0.146,0.111,0.26,0.111c0.108,0,0.188-0.03,0.244-0.09C241.077,119.196,241.118,119.108,241.144,118.995"/>
		<path clip-path="url(#SVGID_12_)" fill="none" stroke="#000000" stroke-width="0.358" d="M241.144,118.995l0.492,0.148
			c-0.033,0.139-0.084,0.253-0.157,0.347c-0.07,0.092-0.159,0.161-0.263,0.208c-0.107,0.049-0.24,0.074-0.404,0.074
			c-0.196,0-0.359-0.031-0.486-0.087c-0.124-0.059-0.233-0.159-0.324-0.304c-0.09-0.145-0.136-0.329-0.136-0.556
			c0-0.302,0.078-0.533,0.239-0.695c0.16-0.162,0.388-0.242,0.68-0.242c0.229,0,0.41,0.047,0.543,0.14
			c0.129,0.091,0.225,0.235,0.29,0.425l-0.496,0.112c-0.017-0.055-0.036-0.095-0.054-0.122c-0.031-0.043-0.07-0.078-0.117-0.098
			c-0.046-0.025-0.097-0.034-0.153-0.034c-0.127,0-0.225,0.049-0.292,0.151c-0.052,0.078-0.077,0.197-0.077,0.358
			c0,0.204,0.029,0.341,0.091,0.416c0.062,0.074,0.146,0.111,0.26,0.111c0.108,0,0.188-0.03,0.244-0.09
			C241.077,119.196,241.118,119.108,241.144,118.995z"/>
		<polygon clip-path="url(#SVGID_12_)" points="241.909,117.917 242.472,117.917 242.472,119.29 243.35,119.29 243.35,119.738 
			241.909,119.738 		"/>
		<polygon clip-path="url(#SVGID_12_)" fill="none" stroke="#000000" stroke-width="0.358" points="241.909,117.917 
			242.472,117.917 242.472,119.29 243.35,119.29 243.35,119.738 241.909,119.738 		"/>
		<rect x="243.628" y="117.917" clip-path="url(#SVGID_12_)" width="0.564" height="1.82"/>
		
			<rect x="243.628" y="117.917" clip-path="url(#SVGID_12_)" fill="none" stroke="#000000" stroke-width="0.358" width="0.564" height="1.82"/>
		<polygon clip-path="url(#SVGID_12_)" points="244.598,117.917 245.987,117.917 245.987,118.31 245.162,118.31 245.162,118.626 
			245.868,118.626 245.868,118.996 245.162,118.996 245.162,119.738 244.598,119.738 		"/>
		<polygon clip-path="url(#SVGID_12_)" fill="none" stroke="#000000" stroke-width="0.358" points="244.598,117.917 
			245.987,117.917 245.987,118.31 245.162,118.31 245.162,118.626 245.868,118.626 245.868,118.996 245.162,118.996 
			245.162,119.738 244.598,119.738 		"/>
		<polygon clip-path="url(#SVGID_12_)" points="246.293,117.917 247.684,117.917 247.684,118.31 246.858,118.31 246.858,118.626 
			247.564,118.626 247.564,118.996 246.858,118.996 246.858,119.738 246.293,119.738 		"/>
		<polygon clip-path="url(#SVGID_12_)" fill="none" stroke="#000000" stroke-width="0.358" points="246.293,117.917 
			247.684,117.917 247.684,118.31 246.858,118.31 246.858,118.626 247.564,118.626 247.564,118.996 246.858,118.996 
			246.858,119.738 246.293,119.738 		"/>
		<polygon clip-path="url(#SVGID_12_)" points="248.838,117.917 249.399,117.917 249.399,118.605 249.988,117.917 250.738,117.917 
			250.072,118.605 250.768,119.738 250.074,119.738 249.692,118.99 249.399,119.294 249.399,119.738 248.838,119.738 		"/>
		<polygon clip-path="url(#SVGID_12_)" fill="none" stroke="#000000" stroke-width="0.358" points="248.838,117.917 
			249.399,117.917 249.399,118.605 249.988,117.917 250.738,117.917 250.072,118.605 250.768,119.738 250.074,119.738 
			249.692,118.99 249.399,119.294 249.399,119.738 248.838,119.738 		"/>
		<polygon clip-path="url(#SVGID_12_)" points="250.953,117.917 252.459,117.917 252.459,118.308 251.516,118.308 251.516,118.597 
			252.389,118.597 252.389,118.967 251.516,118.967 251.516,119.327 252.486,119.327 252.486,119.738 250.953,119.738 		"/>
		<polygon clip-path="url(#SVGID_12_)" fill="none" stroke="#000000" stroke-width="0.358" points="250.953,117.917 
			252.459,117.917 252.459,118.308 251.516,118.308 251.516,118.597 252.389,118.597 252.389,118.967 251.516,118.967 
			251.516,119.327 252.486,119.327 252.486,119.738 250.953,119.738 		"/>
		<polygon clip-path="url(#SVGID_12_)" points="252.788,117.917 254.295,117.917 254.295,118.308 253.351,118.308 253.351,118.597 
			254.228,118.597 254.228,118.967 253.351,118.967 253.351,119.327 254.322,119.327 254.322,119.738 252.788,119.738 		"/>
		<polygon clip-path="url(#SVGID_12_)" fill="none" stroke="#000000" stroke-width="0.358" points="252.788,117.917 
			254.295,117.917 254.295,118.308 253.351,118.308 253.351,118.597 254.228,118.597 254.228,118.967 253.351,118.967 
			253.351,119.327 254.322,119.327 254.322,119.738 252.788,119.738 		"/>
		<polygon clip-path="url(#SVGID_12_)" points="254.628,117.917 255.154,117.917 255.84,118.924 255.84,117.917 256.369,117.917 
			256.369,119.738 255.84,119.738 255.158,118.738 255.158,119.738 254.628,119.738 		"/>
		<polygon clip-path="url(#SVGID_12_)" fill="none" stroke="#000000" stroke-width="0.358" points="254.628,117.917 
			255.154,117.917 255.84,118.924 255.84,117.917 256.369,117.917 256.369,119.738 255.84,119.738 255.158,118.738 255.158,119.738 
			254.628,119.738 		"/>
		<path clip-path="url(#SVGID_12_)" d="M258.708,119.439h-0.637l-0.09,0.298h-0.575l0.684-1.82h0.617l0.682,1.82h-0.59
			L258.708,119.439z M258.591,119.045l-0.199-0.655l-0.2,0.655H258.591z"/>
		<path clip-path="url(#SVGID_12_)" fill="none" stroke="#000000" stroke-width="0.358" d="M258.708,119.439h-0.637l-0.09,0.298
			h-0.575l0.684-1.82h0.617l0.682,1.82h-0.59L258.708,119.439z M258.591,119.045l-0.199-0.655l-0.2,0.655H258.591z"/>
		<polygon clip-path="url(#SVGID_12_)" points="259.266,117.917 260.977,117.917 260.977,118.368 260.404,118.368 260.404,119.738 
			259.842,119.738 259.842,118.368 259.266,118.368 		"/>
		<polygon clip-path="url(#SVGID_12_)" fill="none" stroke="#000000" stroke-width="0.358" points="259.266,117.917 
			260.977,117.917 260.977,118.368 260.404,118.368 260.404,119.738 259.842,119.738 259.842,118.368 259.266,118.368 		"/>
		<polygon clip-path="url(#SVGID_12_)" points="261.234,117.917 261.795,117.917 261.795,118.556 262.413,118.556 262.413,117.917 
			262.976,117.917 262.976,119.738 262.413,119.738 262.413,119.002 261.795,119.002 261.795,119.738 261.234,119.738 		"/>
		<polygon clip-path="url(#SVGID_12_)" fill="none" stroke="#000000" stroke-width="0.358" points="261.234,117.917 
			261.795,117.917 261.795,118.556 262.413,118.556 262.413,117.917 262.976,117.917 262.976,119.738 262.413,119.738 
			262.413,119.002 261.795,119.002 261.795,119.738 261.234,119.738 		"/>
		<polygon clip-path="url(#SVGID_12_)" points="263.35,117.917 263.913,117.917 263.913,119.29 264.788,119.29 264.788,119.738 
			263.35,119.738 		"/>
		<polygon clip-path="url(#SVGID_12_)" fill="none" stroke="#000000" stroke-width="0.358" points="263.35,117.917 263.913,117.917 
			263.913,119.29 264.788,119.29 264.788,119.738 263.35,119.738 		"/>
		<polygon clip-path="url(#SVGID_12_)" points="265.045,117.917 266.552,117.917 266.552,118.308 265.607,118.308 265.607,118.597 
			266.484,118.597 266.484,118.967 265.607,118.967 265.607,119.327 266.578,119.327 266.578,119.738 265.045,119.738 		"/>
		<polygon clip-path="url(#SVGID_12_)" fill="none" stroke="#000000" stroke-width="0.358" points="265.045,117.917 
			266.552,117.917 266.552,118.308 265.607,118.308 265.607,118.597 266.484,118.597 266.484,118.967 265.607,118.967 
			265.607,119.327 266.578,119.327 266.578,119.738 265.045,119.738 		"/>
		<polygon clip-path="url(#SVGID_12_)" points="266.754,117.917 268.465,117.917 268.465,118.368 267.892,118.368 267.892,119.738 
			267.329,119.738 267.329,118.368 266.754,118.368 		"/>
		<polygon clip-path="url(#SVGID_12_)" fill="none" stroke="#000000" stroke-width="0.358" points="266.754,117.917 
			268.465,117.917 268.465,118.368 267.892,118.368 267.892,119.738 267.329,119.738 267.329,118.368 266.754,118.368 		"/>
		<rect x="268.74" y="117.917" clip-path="url(#SVGID_12_)" width="0.563" height="1.82"/>
		
			<rect x="268.74" y="117.917" clip-path="url(#SVGID_12_)" fill="none" stroke="#000000" stroke-width="0.358" width="0.563" height="1.82"/>
		<path clip-path="url(#SVGID_12_)" d="M270.919,118.995l0.492,0.148c-0.032,0.139-0.084,0.253-0.156,0.347
			c-0.071,0.092-0.16,0.161-0.265,0.208c-0.105,0.049-0.241,0.074-0.404,0.074c-0.197,0-0.359-0.031-0.484-0.087
			c-0.125-0.059-0.235-0.159-0.325-0.304c-0.089-0.145-0.134-0.329-0.134-0.556c0-0.302,0.08-0.533,0.239-0.695
			c0.16-0.162,0.386-0.242,0.681-0.242c0.226,0,0.408,0.047,0.539,0.14c0.131,0.091,0.227,0.235,0.292,0.425l-0.496,0.112
			c-0.019-0.055-0.036-0.095-0.055-0.122c-0.031-0.043-0.068-0.078-0.115-0.098c-0.046-0.025-0.099-0.034-0.153-0.034
			c-0.127,0-0.226,0.049-0.292,0.151c-0.053,0.078-0.079,0.197-0.079,0.358c0,0.204,0.031,0.341,0.091,0.416
			c0.063,0.074,0.148,0.111,0.259,0.111c0.108,0,0.189-0.03,0.244-0.09C270.854,119.196,270.894,119.108,270.919,118.995"/>
		<path clip-path="url(#SVGID_12_)" fill="none" stroke="#000000" stroke-width="0.358" d="M270.919,118.995l0.492,0.148
			c-0.032,0.139-0.084,0.253-0.156,0.347c-0.071,0.092-0.16,0.161-0.265,0.208c-0.105,0.049-0.241,0.074-0.404,0.074
			c-0.197,0-0.359-0.031-0.484-0.087c-0.125-0.059-0.235-0.159-0.325-0.304c-0.089-0.145-0.134-0.329-0.134-0.556
			c0-0.302,0.08-0.533,0.239-0.695c0.16-0.162,0.386-0.242,0.681-0.242c0.226,0,0.408,0.047,0.539,0.14
			c0.131,0.091,0.227,0.235,0.292,0.425l-0.496,0.112c-0.019-0.055-0.036-0.095-0.055-0.122c-0.031-0.043-0.068-0.078-0.115-0.098
			c-0.046-0.025-0.099-0.034-0.153-0.034c-0.127,0-0.226,0.049-0.292,0.151c-0.053,0.078-0.079,0.197-0.079,0.358
			c0,0.204,0.031,0.341,0.091,0.416c0.063,0.074,0.148,0.111,0.259,0.111c0.108,0,0.189-0.03,0.244-0.09
			C270.854,119.196,270.894,119.108,270.919,118.995z"/>
		<path clip-path="url(#SVGID_12_)" fill="#929497" d="M241.144,118.995l0.492,0.148c-0.033,0.139-0.084,0.253-0.157,0.347
			c-0.07,0.092-0.159,0.161-0.263,0.208c-0.107,0.049-0.24,0.074-0.404,0.074c-0.196,0-0.359-0.031-0.486-0.087
			c-0.124-0.059-0.233-0.159-0.324-0.304c-0.09-0.145-0.136-0.329-0.136-0.556c0-0.302,0.078-0.533,0.239-0.695
			c0.16-0.162,0.388-0.242,0.68-0.242c0.229,0,0.41,0.047,0.543,0.14c0.129,0.091,0.225,0.235,0.29,0.425l-0.496,0.112
			c-0.017-0.055-0.036-0.095-0.054-0.122c-0.031-0.043-0.07-0.078-0.117-0.098c-0.046-0.025-0.097-0.034-0.153-0.034
			c-0.127,0-0.225,0.049-0.292,0.151c-0.052,0.078-0.077,0.197-0.077,0.358c0,0.204,0.029,0.341,0.091,0.416
			c0.062,0.074,0.146,0.111,0.26,0.111c0.108,0,0.188-0.03,0.244-0.09C241.077,119.196,241.118,119.108,241.144,118.995"/>
		<polygon clip-path="url(#SVGID_12_)" fill="#929497" points="241.909,117.917 242.472,117.917 242.472,119.29 243.35,119.29 
			243.35,119.738 241.909,119.738 		"/>
		<rect x="243.628" y="117.917" clip-path="url(#SVGID_12_)" fill="#929497" width="0.564" height="1.82"/>
		<polygon clip-path="url(#SVGID_12_)" fill="#929497" points="244.598,117.917 245.987,117.917 245.987,118.31 245.162,118.31 
			245.162,118.626 245.868,118.626 245.868,118.996 245.162,118.996 245.162,119.738 244.598,119.738 		"/>
		<polygon clip-path="url(#SVGID_12_)" fill="#929497" points="246.293,117.917 247.684,117.917 247.684,118.31 246.858,118.31 
			246.858,118.626 247.564,118.626 247.564,118.996 246.858,118.996 246.858,119.738 246.293,119.738 		"/>
		<polygon clip-path="url(#SVGID_12_)" fill="#929497" points="248.838,117.917 249.399,117.917 249.399,118.605 249.988,117.917 
			250.738,117.917 250.072,118.605 250.768,119.738 250.074,119.738 249.692,118.99 249.399,119.294 249.399,119.738 
			248.838,119.738 		"/>
		<polygon clip-path="url(#SVGID_12_)" fill="#929497" points="250.953,117.917 252.459,117.917 252.459,118.308 251.516,118.308 
			251.516,118.597 252.389,118.597 252.389,118.967 251.516,118.967 251.516,119.327 252.486,119.327 252.486,119.738 
			250.953,119.738 		"/>
		<polygon clip-path="url(#SVGID_12_)" fill="#929497" points="252.788,117.917 254.295,117.917 254.295,118.308 253.351,118.308 
			253.351,118.597 254.228,118.597 254.228,118.967 253.351,118.967 253.351,119.327 254.322,119.327 254.322,119.738 
			252.788,119.738 		"/>
		<polygon clip-path="url(#SVGID_12_)" fill="#929497" points="254.628,117.917 255.154,117.917 255.84,118.924 255.84,117.917 
			256.369,117.917 256.369,119.738 255.84,119.738 255.158,118.738 255.158,119.738 254.628,119.738 		"/>
		<path clip-path="url(#SVGID_12_)" fill="#929497" d="M258.708,119.439h-0.637l-0.09,0.298h-0.575l0.684-1.82h0.617l0.682,1.82
			h-0.59L258.708,119.439z M258.591,119.045l-0.199-0.655l-0.2,0.655H258.591z"/>
		<polygon clip-path="url(#SVGID_12_)" fill="#929497" points="259.266,117.917 260.977,117.917 260.977,118.368 260.404,118.368 
			260.404,119.738 259.842,119.738 259.842,118.368 259.266,118.368 		"/>
		<polygon clip-path="url(#SVGID_12_)" fill="#929497" points="261.234,117.917 261.795,117.917 261.795,118.556 262.413,118.556 
			262.413,117.917 262.976,117.917 262.976,119.738 262.413,119.738 262.413,119.002 261.795,119.002 261.795,119.738 
			261.234,119.738 		"/>
		<polygon clip-path="url(#SVGID_12_)" fill="#929497" points="263.35,117.917 263.913,117.917 263.913,119.29 264.788,119.29 
			264.788,119.738 263.35,119.738 		"/>
		<polygon clip-path="url(#SVGID_12_)" fill="#929497" points="265.045,117.917 266.552,117.917 266.552,118.308 265.607,118.308 
			265.607,118.597 266.484,118.597 266.484,118.967 265.607,118.967 265.607,119.327 266.578,119.327 266.578,119.738 
			265.045,119.738 		"/>
		<polygon clip-path="url(#SVGID_12_)" fill="#929497" points="266.754,117.917 268.465,117.917 268.465,118.368 267.892,118.368 
			267.892,119.738 267.329,119.738 267.329,118.368 266.754,118.368 		"/>
		<rect x="268.74" y="117.917" clip-path="url(#SVGID_12_)" fill="#929497" width="0.563" height="1.82"/>
		<path clip-path="url(#SVGID_12_)" fill="#929497" d="M270.919,118.995l0.492,0.148c-0.032,0.139-0.084,0.253-0.156,0.347
			c-0.071,0.092-0.16,0.161-0.265,0.208c-0.105,0.049-0.241,0.074-0.404,0.074c-0.197,0-0.359-0.031-0.484-0.087
			c-0.125-0.059-0.235-0.159-0.325-0.304c-0.089-0.145-0.134-0.329-0.134-0.556c0-0.302,0.08-0.533,0.239-0.695
			c0.16-0.162,0.386-0.242,0.681-0.242c0.226,0,0.408,0.047,0.539,0.14c0.131,0.091,0.227,0.235,0.292,0.425l-0.496,0.112
			c-0.019-0.055-0.036-0.095-0.055-0.122c-0.031-0.043-0.068-0.078-0.115-0.098c-0.046-0.025-0.099-0.034-0.153-0.034
			c-0.127,0-0.226,0.049-0.292,0.151c-0.053,0.078-0.079,0.197-0.079,0.358c0,0.204,0.031,0.341,0.091,0.416
			c0.063,0.074,0.148,0.111,0.259,0.111c0.108,0,0.189-0.03,0.244-0.09C270.854,119.196,270.894,119.108,270.919,118.995"/>
		<path clip-path="url(#SVGID_12_)" d="M248.292,145.71v-1.499h0.244l0.293,1.062l0.058,0.222c0.015-0.054,0.035-0.136,0.065-0.241
			l0.294-1.042h0.217v1.499h-0.155v-1.255l-0.359,1.255h-0.145l-0.357-1.275v1.275H248.292z"/>
		<path clip-path="url(#SVGID_12_)" fill="none" stroke="#000000" stroke-width="0.358" stroke-linejoin="round" d="M248.292,145.71
			v-1.499h0.244l0.293,1.062l0.058,0.222c0.015-0.054,0.035-0.136,0.065-0.241l0.294-1.042h0.217v1.499h-0.155v-1.255l-0.359,1.255
			h-0.145l-0.357-1.275v1.275H248.292z"/>
		<path clip-path="url(#SVGID_12_)" d="M249.591,145.71l0.473-1.499h0.175l0.502,1.499h-0.187l-0.141-0.455h-0.517l-0.133,0.455
			H249.591z M249.944,145.094h0.419l-0.128-0.414c-0.04-0.129-0.07-0.234-0.086-0.313c-0.015,0.096-0.038,0.193-0.069,0.287
			L249.944,145.094z"/>
		<path clip-path="url(#SVGID_12_)" fill="none" stroke="#000000" stroke-width="0.358" stroke-linejoin="round" d="M249.591,145.71
			l0.473-1.499h0.175l0.502,1.499h-0.187l-0.141-0.455h-0.517l-0.133,0.455H249.591z M249.944,145.094h0.419l-0.128-0.414
			c-0.04-0.129-0.07-0.234-0.086-0.313c-0.015,0.096-0.038,0.193-0.069,0.287L249.944,145.094z"/>
		<path clip-path="url(#SVGID_12_)" d="M250.869,145.709v-1.497h0.426c0.103,0,0.183,0.009,0.238,0.025
			c0.072,0.025,0.133,0.069,0.187,0.132c0.052,0.063,0.091,0.143,0.123,0.239c0.028,0.096,0.044,0.211,0.044,0.345
			c0,0.169-0.027,0.312-0.076,0.431c-0.05,0.119-0.114,0.203-0.191,0.251c-0.078,0.051-0.181,0.074-0.308,0.074H250.869z
			 M251.031,145.533h0.263c0.104,0,0.186-0.019,0.24-0.051c0.055-0.035,0.097-0.089,0.126-0.167c0.038-0.102,0.06-0.223,0.06-0.364
			c0-0.152-0.022-0.271-0.062-0.36c-0.043-0.087-0.097-0.145-0.161-0.174c-0.042-0.019-0.112-0.031-0.207-0.031h-0.258V145.533z"/>
		<path clip-path="url(#SVGID_12_)" fill="none" stroke="#000000" stroke-width="0.358" stroke-linejoin="round" d="
			M250.869,145.709v-1.497h0.426c0.103,0,0.183,0.009,0.238,0.025c0.072,0.025,0.133,0.069,0.187,0.132
			c0.052,0.063,0.091,0.143,0.123,0.239c0.028,0.096,0.044,0.211,0.044,0.345c0,0.169-0.027,0.312-0.076,0.431
			c-0.05,0.119-0.114,0.203-0.191,0.251c-0.078,0.051-0.181,0.074-0.308,0.074H250.869z M251.031,145.533h0.263
			c0.104,0,0.186-0.019,0.24-0.051c0.055-0.035,0.097-0.089,0.126-0.167c0.038-0.102,0.06-0.223,0.06-0.364
			c0-0.152-0.022-0.271-0.062-0.36c-0.043-0.087-0.097-0.145-0.161-0.174c-0.042-0.019-0.112-0.031-0.207-0.031h-0.258V145.533z"/>
		<polygon clip-path="url(#SVGID_12_)" points="252.115,145.71 252.115,144.211 253.003,144.211 253.003,144.386 252.279,144.386 
			252.279,144.846 252.956,144.846 252.956,145.023 252.279,145.023 252.279,145.533 253.034,145.533 253.034,145.71 		"/>
		<polygon clip-path="url(#SVGID_12_)" fill="none" stroke="#000000" stroke-width="0.358" stroke-linejoin="round" points="
			252.115,145.71 252.115,144.211 253.003,144.211 253.003,144.386 252.279,144.386 252.279,144.846 252.956,144.846 
			252.956,145.023 252.279,145.023 252.279,145.533 253.034,145.533 253.034,145.71 		"/>
		<rect x="253.765" y="144.212" clip-path="url(#SVGID_12_)" width="0.164" height="1.498"/>
		
			<rect x="253.765" y="144.212" clip-path="url(#SVGID_12_)" fill="none" stroke="#000000" stroke-width="0.358" stroke-linejoin="round" width="0.164" height="1.498"/>
		<polygon clip-path="url(#SVGID_12_)" points="254.207,145.71 254.207,144.211 254.375,144.211 255.02,145.387 255.02,144.211 
			255.176,144.211 255.176,145.71 255.007,145.71 254.365,144.534 254.365,145.71 		"/>
		<polygon clip-path="url(#SVGID_12_)" fill="none" stroke="#000000" stroke-width="0.358" stroke-linejoin="round" points="
			254.207,145.71 254.207,144.211 254.375,144.211 255.02,145.387 255.02,144.211 255.176,144.211 255.176,145.71 255.007,145.71 
			254.365,144.534 254.365,145.71 		"/>
		<polygon clip-path="url(#SVGID_12_)" points="256.215,145.71 256.215,144.386 255.81,144.386 255.81,144.211 256.786,144.211 
			256.786,144.386 256.376,144.386 256.376,145.71 		"/>
		<polygon clip-path="url(#SVGID_12_)" fill="none" stroke="#000000" stroke-width="0.358" stroke-linejoin="round" points="
			256.215,145.71 256.215,144.386 255.81,144.386 255.81,144.211 256.786,144.211 256.786,144.386 256.376,144.386 256.376,145.71 
					"/>
		<polygon clip-path="url(#SVGID_12_)" points="256.947,145.71 256.947,144.211 257.111,144.211 257.111,144.827 257.75,144.827 
			257.75,144.211 257.911,144.211 257.911,145.71 257.75,145.71 257.75,145.004 257.111,145.004 257.111,145.71 		"/>
		<polygon clip-path="url(#SVGID_12_)" fill="none" stroke="#000000" stroke-width="0.358" stroke-linejoin="round" points="
			256.947,145.71 256.947,144.211 257.111,144.211 257.111,144.827 257.75,144.827 257.75,144.211 257.911,144.211 257.911,145.71 
			257.75,145.71 257.75,145.004 257.111,145.004 257.111,145.71 		"/>
		<polygon clip-path="url(#SVGID_12_)" points="258.191,145.71 258.191,144.211 259.079,144.211 259.079,144.386 258.354,144.386 
			258.354,144.846 259.033,144.846 259.033,145.023 258.354,145.023 258.354,145.533 259.108,145.533 259.108,145.71 		"/>
		<polygon clip-path="url(#SVGID_12_)" fill="none" stroke="#000000" stroke-width="0.358" stroke-linejoin="round" points="
			258.191,145.71 258.191,144.211 259.079,144.211 259.079,144.386 258.354,144.386 258.354,144.846 259.033,144.846 
			259.033,145.023 258.354,145.023 258.354,145.533 259.108,145.533 259.108,145.71 		"/>
		<path clip-path="url(#SVGID_12_)" d="M260.614,144.211h0.164v0.867c0,0.143-0.015,0.262-0.042,0.354
			c-0.03,0.095-0.082,0.168-0.156,0.222c-0.074,0.054-0.17,0.082-0.286,0.082c-0.162,0-0.283-0.049-0.363-0.147
			c-0.08-0.095-0.121-0.267-0.121-0.511v-0.867h0.164v0.864c0,0.135,0.01,0.235,0.03,0.295c0.021,0.061,0.056,0.107,0.105,0.138
			c0.048,0.033,0.105,0.046,0.174,0.046c0.116,0,0.201-0.031,0.253-0.097c0.052-0.065,0.079-0.193,0.079-0.383V144.211z"/>
		<path clip-path="url(#SVGID_12_)" fill="none" stroke="#000000" stroke-width="0.358" stroke-linejoin="round" d="
			M260.614,144.211h0.164v0.867c0,0.143-0.015,0.262-0.042,0.354c-0.03,0.095-0.082,0.168-0.156,0.222
			c-0.074,0.054-0.17,0.082-0.286,0.082c-0.162,0-0.283-0.049-0.363-0.147c-0.08-0.095-0.121-0.267-0.121-0.511v-0.867h0.164v0.864
			c0,0.135,0.01,0.235,0.03,0.295c0.021,0.061,0.056,0.107,0.105,0.138c0.048,0.033,0.105,0.046,0.174,0.046
			c0.116,0,0.201-0.031,0.253-0.097c0.052-0.065,0.079-0.193,0.079-0.383V144.211z"/>
		<path clip-path="url(#SVGID_12_)" d="M260.994,145.227l0.154-0.016c0.008,0.083,0.028,0.147,0.057,0.194
			c0.029,0.046,0.068,0.083,0.125,0.109c0.052,0.029,0.113,0.042,0.182,0.042c0.096,0,0.171-0.023,0.224-0.068
			c0.055-0.048,0.082-0.109,0.082-0.185c0-0.045-0.009-0.083-0.03-0.117c-0.02-0.033-0.048-0.059-0.087-0.079
			c-0.04-0.022-0.125-0.052-0.255-0.091c-0.114-0.035-0.197-0.069-0.247-0.104c-0.049-0.035-0.088-0.081-0.114-0.132
			c-0.027-0.053-0.04-0.115-0.04-0.181c0-0.121,0.038-0.222,0.117-0.297c0.077-0.078,0.183-0.117,0.315-0.117
			c0.093,0,0.172,0.019,0.24,0.055c0.068,0.036,0.122,0.086,0.16,0.156c0.038,0.064,0.059,0.146,0.062,0.235l-0.158,0.018
			c-0.007-0.099-0.036-0.17-0.086-0.218c-0.05-0.045-0.12-0.071-0.211-0.071s-0.161,0.022-0.211,0.062
			c-0.048,0.042-0.074,0.096-0.074,0.16c0,0.063,0.02,0.11,0.056,0.144c0.036,0.033,0.116,0.065,0.239,0.102
			c0.122,0.033,0.207,0.061,0.254,0.085c0.075,0.039,0.132,0.089,0.17,0.15c0.039,0.065,0.061,0.14,0.061,0.225
			c0,0.087-0.023,0.164-0.062,0.234c-0.04,0.071-0.096,0.123-0.167,0.161c-0.067,0.037-0.151,0.057-0.248,0.057
			c-0.152,0-0.274-0.046-0.365-0.137C261.045,145.508,260.998,145.384,260.994,145.227"/>
		<path clip-path="url(#SVGID_12_)" fill="none" stroke="#000000" stroke-width="0.358" stroke-linejoin="round" d="
			M260.994,145.227l0.154-0.016c0.008,0.083,0.028,0.147,0.057,0.194c0.029,0.046,0.068,0.083,0.125,0.109
			c0.052,0.029,0.113,0.042,0.182,0.042c0.096,0,0.171-0.023,0.224-0.068c0.055-0.048,0.082-0.109,0.082-0.185
			c0-0.045-0.009-0.083-0.03-0.117c-0.02-0.033-0.048-0.059-0.087-0.079c-0.04-0.022-0.125-0.052-0.255-0.091
			c-0.114-0.035-0.197-0.069-0.247-0.104c-0.049-0.035-0.088-0.081-0.114-0.132c-0.027-0.053-0.04-0.115-0.04-0.181
			c0-0.121,0.038-0.222,0.117-0.297c0.077-0.078,0.183-0.117,0.315-0.117c0.093,0,0.172,0.019,0.24,0.055
			c0.068,0.036,0.122,0.086,0.16,0.156c0.038,0.064,0.059,0.146,0.062,0.235l-0.158,0.018c-0.007-0.099-0.036-0.17-0.086-0.218
			c-0.05-0.045-0.12-0.071-0.211-0.071s-0.161,0.022-0.211,0.062c-0.048,0.042-0.074,0.096-0.074,0.16
			c0,0.063,0.02,0.11,0.056,0.144c0.036,0.033,0.116,0.065,0.239,0.102c0.122,0.033,0.207,0.061,0.254,0.085
			c0.075,0.039,0.132,0.089,0.17,0.15c0.039,0.065,0.061,0.14,0.061,0.225c0,0.087-0.023,0.164-0.062,0.234
			c-0.04,0.071-0.096,0.123-0.167,0.161c-0.067,0.037-0.151,0.057-0.248,0.057c-0.152,0-0.274-0.046-0.365-0.137
			C261.045,145.508,260.998,145.384,260.994,145.227z"/>
		<path clip-path="url(#SVGID_12_)" d="M262.06,145.71l0.471-1.499h0.178l0.5,1.499h-0.186l-0.144-0.455h-0.515l-0.135,0.455H262.06
			z M262.413,145.094h0.418l-0.128-0.414c-0.041-0.129-0.068-0.234-0.087-0.313c-0.017,0.096-0.039,0.193-0.069,0.287
			L262.413,145.094z"/>
		<path clip-path="url(#SVGID_12_)" fill="none" stroke="#000000" stroke-width="0.358" stroke-linejoin="round" d="M262.06,145.71
			l0.471-1.499h0.178l0.5,1.499h-0.186l-0.144-0.455h-0.515l-0.135,0.455H262.06z M262.413,145.094h0.418l-0.128-0.414
			c-0.041-0.129-0.068-0.234-0.087-0.313c-0.017,0.096-0.039,0.193-0.069,0.287L262.413,145.094z"/>
		<path clip-path="url(#SVGID_12_)" fill="#AEB0B2" d="M248.292,145.71v-1.499h0.244l0.293,1.062l0.058,0.222
			c0.015-0.054,0.035-0.136,0.065-0.241l0.294-1.042h0.217v1.499h-0.155v-1.255l-0.359,1.255h-0.145l-0.357-1.275v1.275H248.292z"/>
		<path clip-path="url(#SVGID_12_)" fill="#AEB0B2" d="M249.591,145.71l0.473-1.499h0.175l0.502,1.499h-0.187l-0.141-0.455h-0.517
			l-0.133,0.455H249.591z M249.944,145.094h0.419l-0.128-0.414c-0.04-0.129-0.07-0.234-0.086-0.313
			c-0.015,0.096-0.038,0.193-0.069,0.287L249.944,145.094z"/>
		<path clip-path="url(#SVGID_12_)" fill="#AEB0B2" d="M250.869,145.709v-1.497h0.426c0.103,0,0.183,0.009,0.238,0.025
			c0.072,0.025,0.133,0.069,0.187,0.132c0.052,0.063,0.091,0.143,0.123,0.239c0.028,0.096,0.044,0.211,0.044,0.345
			c0,0.169-0.027,0.312-0.076,0.431c-0.05,0.119-0.114,0.203-0.191,0.251c-0.078,0.051-0.181,0.074-0.308,0.074H250.869z
			 M251.031,145.533h0.263c0.104,0,0.186-0.019,0.24-0.051c0.055-0.035,0.097-0.089,0.126-0.167c0.038-0.102,0.06-0.223,0.06-0.364
			c0-0.152-0.022-0.271-0.062-0.36c-0.043-0.087-0.097-0.145-0.161-0.174c-0.042-0.019-0.112-0.031-0.207-0.031h-0.258V145.533z"/>
		<polygon clip-path="url(#SVGID_12_)" fill="#AEB0B2" points="252.115,145.71 252.115,144.211 253.003,144.211 253.003,144.386 
			252.279,144.386 252.279,144.846 252.956,144.846 252.956,145.023 252.279,145.023 252.279,145.533 253.034,145.533 
			253.034,145.71 		"/>
		<rect x="253.765" y="144.212" clip-path="url(#SVGID_12_)" fill="#AEB0B2" width="0.164" height="1.498"/>
		<polygon clip-path="url(#SVGID_12_)" fill="#AEB0B2" points="254.207,145.71 254.207,144.211 254.375,144.211 255.02,145.387 
			255.02,144.211 255.176,144.211 255.176,145.71 255.007,145.71 254.365,144.534 254.365,145.71 		"/>
		<polygon clip-path="url(#SVGID_12_)" fill="#AEB0B2" points="256.215,145.71 256.215,144.386 255.81,144.386 255.81,144.211 
			256.786,144.211 256.786,144.386 256.376,144.386 256.376,145.71 		"/>
		<polygon clip-path="url(#SVGID_12_)" fill="#AEB0B2" points="256.947,145.71 256.947,144.211 257.111,144.211 257.111,144.827 
			257.75,144.827 257.75,144.211 257.911,144.211 257.911,145.71 257.75,145.71 257.75,145.004 257.111,145.004 257.111,145.71 		
			"/>
		<polygon clip-path="url(#SVGID_12_)" fill="#AEB0B2" points="258.191,145.71 258.191,144.211 259.079,144.211 259.079,144.386 
			258.354,144.386 258.354,144.846 259.033,144.846 259.033,145.023 258.354,145.023 258.354,145.533 259.108,145.533 
			259.108,145.71 		"/>
		<path clip-path="url(#SVGID_12_)" fill="#AEB0B2" d="M260.614,144.211h0.164v0.867c0,0.143-0.015,0.262-0.042,0.354
			c-0.03,0.095-0.082,0.168-0.156,0.222c-0.074,0.054-0.17,0.082-0.286,0.082c-0.162,0-0.283-0.049-0.363-0.147
			c-0.08-0.095-0.121-0.267-0.121-0.511v-0.867h0.164v0.864c0,0.135,0.01,0.235,0.03,0.295c0.021,0.061,0.056,0.107,0.105,0.138
			c0.048,0.033,0.105,0.046,0.174,0.046c0.116,0,0.201-0.031,0.253-0.097c0.052-0.065,0.079-0.193,0.079-0.383V144.211z"/>
		<path clip-path="url(#SVGID_12_)" fill="#AEB0B2" d="M260.994,145.227l0.154-0.016c0.008,0.083,0.028,0.147,0.057,0.194
			c0.029,0.046,0.068,0.083,0.125,0.109c0.052,0.029,0.113,0.042,0.182,0.042c0.096,0,0.171-0.023,0.224-0.068
			c0.055-0.048,0.082-0.109,0.082-0.185c0-0.045-0.009-0.083-0.03-0.117c-0.02-0.033-0.048-0.059-0.087-0.079
			c-0.04-0.022-0.125-0.052-0.255-0.091c-0.114-0.035-0.197-0.069-0.247-0.104c-0.049-0.035-0.088-0.081-0.114-0.132
			c-0.027-0.053-0.04-0.115-0.04-0.181c0-0.121,0.038-0.222,0.117-0.297c0.077-0.078,0.183-0.117,0.315-0.117
			c0.093,0,0.172,0.019,0.24,0.055c0.068,0.036,0.122,0.086,0.16,0.156c0.038,0.064,0.059,0.146,0.062,0.235l-0.158,0.018
			c-0.007-0.099-0.036-0.17-0.086-0.218c-0.05-0.045-0.12-0.071-0.211-0.071s-0.161,0.022-0.211,0.062
			c-0.048,0.042-0.074,0.096-0.074,0.16c0,0.063,0.02,0.11,0.056,0.144c0.036,0.033,0.116,0.065,0.239,0.102
			c0.122,0.033,0.207,0.061,0.254,0.085c0.075,0.039,0.132,0.089,0.17,0.15c0.039,0.065,0.061,0.14,0.061,0.225
			c0,0.087-0.023,0.164-0.062,0.234c-0.04,0.071-0.096,0.123-0.167,0.161c-0.067,0.037-0.151,0.057-0.248,0.057
			c-0.152,0-0.274-0.046-0.365-0.137C261.045,145.508,260.998,145.384,260.994,145.227"/>
		<path clip-path="url(#SVGID_12_)" fill="#AEB0B2" d="M262.06,145.71l0.471-1.499h0.178l0.5,1.499h-0.186l-0.144-0.455h-0.515
			l-0.135,0.455H262.06z M262.413,145.094h0.418l-0.128-0.414c-0.041-0.129-0.068-0.234-0.087-0.313
			c-0.017,0.096-0.039,0.193-0.069,0.287L262.413,145.094z"/>
		<polygon clip-path="url(#SVGID_12_)" fill="#929497" points="253.804,137.396 255.363,137.396 255.363,141.202 257.797,141.202 
			257.797,142.444 253.804,142.444 		"/>
		<polygon clip-path="url(#SVGID_12_)" fill="none" stroke="#000000" stroke-width="0.717" points="253.804,137.396 
			255.363,137.396 255.363,141.202 257.797,141.202 257.797,142.444 253.804,142.444 		"/>
		<polygon clip-path="url(#SVGID_12_)" fill="#929497" points="253.804,137.396 255.363,137.396 255.363,141.202 257.797,141.202 
			257.797,142.444 253.804,142.444 		"/>
		<polygon clip-path="url(#SVGID_12_)" points="255.656,127.147 256.694,128.818 259.562,128.818 257.299,125.829 259.396,123.086 
			256.561,123.086 255.656,124.701 255.624,124.701 254.716,123.086 251.887,123.086 254.081,125.829 251.818,128.818 
			254.678,128.818 255.624,127.147 		"/>
		<polygon clip-path="url(#SVGID_12_)" fill="none" stroke="#000000" stroke-width="0.112" points="255.656,127.147 
			256.694,128.818 259.562,128.818 257.299,125.829 259.396,123.086 256.561,123.086 255.656,124.701 255.624,124.701 
			254.716,123.086 251.887,123.086 254.081,125.829 251.818,128.818 254.678,128.818 255.624,127.147 		"/>
		<path clip-path="url(#SVGID_12_)" d="M251.014,124.642h0.811v2.588H251.3v-1.751c0-0.051,0-0.121,0.002-0.211
			c0.001-0.091,0.002-0.16,0.002-0.21l-0.513,2.172h-0.547l-0.51-2.172c0,0.05,0.002,0.119,0.002,0.21
			c0.002,0.091,0.004,0.16,0.004,0.211v1.751h-0.525v-2.588h0.818l0.494,2.037L251.014,124.642z"/>
		<path clip-path="url(#SVGID_12_)" d="M259.808,126.28c0.021,0.118,0.067,0.207,0.136,0.264c0.124,0.106,0.334,0.158,0.634,0.158
			c0.177,0,0.325-0.012,0.438-0.04c0.21-0.055,0.319-0.155,0.319-0.3c0-0.086-0.054-0.151-0.159-0.197
			c-0.106-0.046-0.273-0.086-0.496-0.121l-0.387-0.062c-0.38-0.06-0.641-0.127-0.786-0.199c-0.247-0.12-0.37-0.305-0.37-0.56
			c0-0.231,0.121-0.422,0.355-0.577c0.238-0.153,0.587-0.229,1.046-0.229c0.384,0,0.712,0.073,0.983,0.216
			c0.271,0.145,0.412,0.353,0.425,0.629h-0.73c-0.011-0.153-0.109-0.261-0.287-0.325c-0.118-0.042-0.268-0.063-0.443-0.063
			c-0.196,0-0.354,0.027-0.471,0.084c-0.115,0.055-0.175,0.131-0.175,0.231c0,0.091,0.057,0.159,0.173,0.203
			c0.074,0.03,0.234,0.066,0.475,0.107l0.629,0.106c0.274,0.047,0.482,0.109,0.621,0.188c0.215,0.122,0.324,0.299,0.324,0.528
			c0,0.236-0.127,0.432-0.38,0.588c-0.255,0.157-0.615,0.234-1.08,0.234c-0.475,0-0.847-0.077-1.118-0.231
			c-0.27-0.153-0.406-0.365-0.406-0.635H259.808z"/>
		<path clip-path="url(#SVGID_12_)" d="M251.979,123.563l1.798,2.275l-1.863,2.475c0,0,1.187-2.103,1.177-2.46
			C253.076,125.389,251.979,123.563,251.979,123.563"/>
		<path clip-path="url(#SVGID_12_)" fill="none" stroke="#000000" stroke-width="0.095" d="M251.979,123.563l1.798,2.275
			l-1.863,2.475c0,0,1.187-2.103,1.177-2.46C253.076,125.389,251.979,123.563,251.979,123.563z"/>
		<path clip-path="url(#SVGID_12_)" d="M259.353,123.54l-1.798,2.276l1.864,2.473c0,0-1.187-2.102-1.178-2.46
			C258.253,125.367,259.353,123.54,259.353,123.54"/>
		<path clip-path="url(#SVGID_12_)" fill="none" stroke="#000000" stroke-width="0.095" d="M259.353,123.54l-1.798,2.276
			l1.864,2.473c0,0-1.187-2.102-1.178-2.46C258.253,125.367,259.353,123.54,259.353,123.54z"/>
		<path clip-path="url(#SVGID_12_)" fill-rule="evenodd" clip-rule="evenodd" fill="#929497" d="M256.623,124.838
			c0.54,0,0.978,0.438,0.978,0.976c0,0.54-0.438,0.978-0.978,0.978h-1.893c-0.54,0-0.978-0.438-0.978-0.978
			c0-0.539,0.438-0.976,0.978-0.976H256.623z"/>
		<path clip-path="url(#SVGID_12_)" d="M254.052,125.812c0-0.378,0.294-0.685,0.665-0.712v1.423
			C254.346,126.498,254.052,126.189,254.052,125.812"/>
		<polygon clip-path="url(#SVGID_12_)" fill-rule="evenodd" clip-rule="evenodd" points="255.453,125.717 254.834,125.1 
			255.453,125.1 		"/>
		<polygon clip-path="url(#SVGID_12_)" fill-rule="evenodd" clip-rule="evenodd" points="255.453,125.904 254.834,126.524 
			255.453,126.524 		"/>
		<polygon clip-path="url(#SVGID_12_)" fill-rule="evenodd" clip-rule="evenodd" points="256.23,125.717 256.85,125.1 256.23,125.1 
					"/>
		<polygon clip-path="url(#SVGID_12_)" fill-rule="evenodd" clip-rule="evenodd" points="256.23,125.904 256.85,126.524 
			256.23,126.524 		"/>
		<rect x="255.584" y="125.1" clip-path="url(#SVGID_12_)" width="0.515" height="1.425"/>
		<path clip-path="url(#SVGID_12_)" d="M260.059,123.352c0.122,0.005,0.224,0.046,0.298,0.127c0.076,0.083,0.116,0.179,0.12,0.294
			c-0.006,0.128-0.047,0.229-0.131,0.303c-0.084,0.074-0.18,0.113-0.289,0.114c-0.128-0.006-0.231-0.049-0.305-0.133
			c-0.074-0.084-0.115-0.177-0.116-0.282c0-0.105,0.037-0.202,0.112-0.287C259.822,123.403,259.926,123.357,260.059,123.352
			 M260.059,123.438c-0.105,0.003-0.186,0.04-0.246,0.105c-0.06,0.068-0.089,0.146-0.091,0.23c0.002,0.087,0.034,0.163,0.092,0.23
			c0.062,0.065,0.142,0.1,0.243,0.104c0.093-0.002,0.171-0.034,0.236-0.095c0.062-0.062,0.096-0.142,0.098-0.24
			c-0.002-0.091-0.034-0.172-0.094-0.235C260.236,123.473,260.156,123.44,260.059,123.438 M260.066,123.538
			c0.068,0,0.118,0.014,0.147,0.039c0.033,0.024,0.048,0.055,0.046,0.093c0,0.03-0.008,0.058-0.024,0.078
			c-0.019,0.021-0.039,0.036-0.07,0.044l0.102,0.197h-0.154l-0.082-0.174h-0.015v0.174h-0.141v-0.452H260.066z M260.046,123.625
			h-0.03v0.109h0.038c0.02-0.002,0.035-0.006,0.044-0.015c0.01-0.011,0.015-0.023,0.015-0.041c0-0.017-0.005-0.03-0.017-0.039
			C260.087,123.63,260.068,123.625,260.046,123.625"/>
		<polygon clip-path="url(#SVGID_12_)" points="249.563,129.576 250.173,129.576 250.409,130.489 250.642,129.576 251.25,129.576 
			251.25,131.076 250.871,131.076 250.871,129.933 250.578,131.076 250.235,131.076 249.942,129.933 249.942,131.076 
			249.563,131.076 		"/>
		<path clip-path="url(#SVGID_12_)" d="M251.488,130.328c0-0.245,0.066-0.437,0.203-0.573c0.138-0.135,0.329-0.202,0.57-0.202
			c0.249,0,0.443,0.067,0.578,0.199c0.135,0.134,0.202,0.322,0.202,0.564c0,0.174-0.031,0.319-0.087,0.431
			c-0.061,0.111-0.145,0.199-0.257,0.261c-0.112,0.064-0.249,0.093-0.418,0.093c-0.168,0-0.308-0.026-0.419-0.079
			c-0.11-0.054-0.2-0.141-0.27-0.256C251.521,130.647,251.488,130.501,251.488,130.328 M251.951,130.33
			c0,0.152,0.029,0.26,0.084,0.328c0.057,0.066,0.132,0.1,0.23,0.1c0.1,0,0.175-0.033,0.23-0.099
			c0.055-0.064,0.082-0.181,0.082-0.349c0-0.142-0.029-0.245-0.085-0.31c-0.059-0.067-0.134-0.099-0.232-0.099
			c-0.093,0-0.167,0.033-0.225,0.101C251.98,130.066,251.951,130.176,251.951,130.33"/>
		<rect x="253.309" y="129.576" clip-path="url(#SVGID_12_)" width="0.465" height="1.5"/>
		<path clip-path="url(#SVGID_12_)" d="M254.024,130.582l0.44-0.028c0.011,0.072,0.029,0.127,0.058,0.164
			c0.05,0.06,0.119,0.091,0.206,0.091c0.066,0,0.116-0.016,0.152-0.048c0.037-0.029,0.053-0.067,0.053-0.107
			c0-0.04-0.016-0.074-0.05-0.105c-0.036-0.029-0.114-0.059-0.237-0.086c-0.202-0.047-0.348-0.107-0.436-0.183
			c-0.087-0.076-0.129-0.171-0.129-0.288c0-0.077,0.022-0.151,0.067-0.221c0.044-0.066,0.111-0.122,0.201-0.161
			c0.09-0.038,0.214-0.057,0.368-0.057c0.193,0,0.338,0.034,0.439,0.105c0.1,0.07,0.161,0.184,0.179,0.34l-0.436,0.023
			c-0.013-0.066-0.037-0.115-0.073-0.145c-0.039-0.032-0.089-0.045-0.153-0.045c-0.056,0-0.096,0.01-0.124,0.033
			c-0.027,0.024-0.041,0.052-0.041,0.084c0,0.023,0.011,0.046,0.035,0.065c0.021,0.02,0.074,0.039,0.156,0.056
			c0.202,0.043,0.346,0.089,0.434,0.131c0.087,0.045,0.151,0.1,0.192,0.166c0.04,0.067,0.06,0.143,0.06,0.223
			c0,0.096-0.028,0.183-0.081,0.266c-0.053,0.082-0.127,0.145-0.222,0.185c-0.094,0.043-0.216,0.062-0.359,0.062
			c-0.258,0-0.434-0.049-0.531-0.147C254.095,130.856,254.038,130.732,254.024,130.582"/>
		<polygon clip-path="url(#SVGID_12_)" points="255.512,129.576 256.922,129.576 256.922,129.947 256.448,129.947 256.448,131.076 
			255.983,131.076 255.983,129.947 255.512,129.947 		"/>
		<path clip-path="url(#SVGID_12_)" d="M258.105,129.576h0.464v0.896c0,0.087-0.015,0.173-0.043,0.25
			c-0.026,0.077-0.071,0.148-0.127,0.205c-0.06,0.063-0.122,0.101-0.188,0.126c-0.088,0.032-0.197,0.048-0.323,0.048
			c-0.073,0-0.154-0.005-0.24-0.015c-0.086-0.01-0.158-0.031-0.217-0.06c-0.059-0.03-0.111-0.074-0.158-0.131
			c-0.05-0.053-0.082-0.113-0.1-0.172c-0.028-0.094-0.043-0.177-0.043-0.251v-0.896h0.463v0.915c0,0.082,0.021,0.147,0.067,0.192
			c0.045,0.047,0.108,0.069,0.19,0.069c0.08,0,0.143-0.022,0.188-0.067c0.046-0.046,0.067-0.111,0.067-0.195V129.576z"/>
		<path clip-path="url(#SVGID_12_)" d="M258.88,131.076v-1.5h0.771c0.145,0,0.252,0.013,0.33,0.037
			c0.077,0.026,0.137,0.071,0.183,0.138c0.047,0.066,0.072,0.147,0.072,0.244c0,0.082-0.019,0.154-0.055,0.212
			c-0.035,0.063-0.086,0.111-0.148,0.149c-0.039,0.022-0.094,0.043-0.163,0.059c0.056,0.02,0.098,0.039,0.121,0.056
			c0.02,0.012,0.042,0.039,0.076,0.079c0.031,0.039,0.053,0.071,0.063,0.092l0.227,0.435h-0.524l-0.248-0.458
			c-0.032-0.06-0.06-0.1-0.084-0.117c-0.033-0.021-0.071-0.035-0.114-0.035h-0.04v0.61H258.88z M259.346,130.186h0.195
			c0.021,0,0.063-0.009,0.122-0.021c0.032-0.008,0.057-0.022,0.077-0.048c0.02-0.025,0.03-0.052,0.03-0.086
			c0-0.049-0.017-0.085-0.047-0.111c-0.031-0.027-0.088-0.038-0.173-0.038h-0.203V130.186z"/>
		<polygon clip-path="url(#SVGID_12_)" points="260.502,129.576 261.743,129.576 261.743,129.897 260.967,129.897 260.967,130.134 
			261.687,130.134 261.687,130.441 260.967,130.441 260.967,130.737 261.766,130.737 261.766,131.076 260.502,131.076 		"/>
		<polygon clip-path="url(#SVGID_12_)" points="249.254,131.322 250.496,131.322 250.496,131.643 249.718,131.643 249.718,131.88 
			250.44,131.88 250.44,132.186 249.718,132.186 249.718,132.482 250.519,132.482 250.519,132.822 249.254,132.822 		"/>
		<polygon clip-path="url(#SVGID_12_)" points="250.666,131.322 251.177,131.322 251.441,131.784 251.698,131.322 252.203,131.322 
			251.736,132.049 252.249,132.822 251.727,132.822 251.431,132.341 251.136,132.822 250.618,132.822 251.134,132.04 		"/>
		<path clip-path="url(#SVGID_12_)" d="M253.324,132.209l0.405,0.123c-0.026,0.114-0.069,0.208-0.129,0.285
			c-0.058,0.076-0.131,0.134-0.217,0.173c-0.087,0.038-0.198,0.058-0.333,0.058c-0.161,0-0.296-0.023-0.399-0.07
			c-0.105-0.047-0.192-0.131-0.267-0.249c-0.076-0.121-0.113-0.273-0.113-0.458c0-0.249,0.065-0.441,0.197-0.573
			c0.132-0.134,0.319-0.201,0.559-0.201c0.19,0,0.34,0.038,0.447,0.115c0.108,0.077,0.189,0.193,0.242,0.352l-0.409,0.09
			c-0.013-0.044-0.03-0.077-0.045-0.099c-0.025-0.036-0.057-0.064-0.095-0.083c-0.038-0.019-0.08-0.028-0.128-0.028
			c-0.103,0-0.183,0.042-0.241,0.125c-0.04,0.065-0.063,0.164-0.063,0.296c0,0.167,0.025,0.281,0.076,0.342
			c0.051,0.062,0.122,0.092,0.215,0.092c0.087,0,0.154-0.025,0.199-0.073C253.269,132.376,253.303,132.304,253.324,132.209"/>
		<polygon clip-path="url(#SVGID_12_)" points="253.956,131.322 254.42,131.322 254.42,131.847 254.926,131.847 254.926,131.322 
			255.391,131.322 255.391,132.822 254.926,132.822 254.926,132.216 254.42,132.216 254.42,132.822 253.956,132.822 		"/>
		<path clip-path="url(#SVGID_12_)" d="M256.619,132.572h-0.525l-0.075,0.251h-0.471l0.564-1.501h0.505l0.562,1.501h-0.485
			L256.619,132.572z M256.523,132.249l-0.166-0.538l-0.162,0.538H256.523z"/>
		<polygon clip-path="url(#SVGID_12_)" points="257.331,131.322 257.764,131.322 258.328,132.15 258.328,131.322 258.765,131.322 
			258.765,132.822 258.328,132.822 257.767,131.997 257.767,132.822 257.331,132.822 		"/>
		<path clip-path="url(#SVGID_12_)" d="M259.827,132.28v-0.313h0.714v0.641c-0.137,0.091-0.256,0.155-0.363,0.189
			c-0.105,0.035-0.23,0.051-0.375,0.051c-0.179,0-0.324-0.029-0.436-0.089c-0.112-0.063-0.197-0.154-0.261-0.274
			c-0.062-0.119-0.091-0.255-0.091-0.412c0-0.163,0.035-0.308,0.102-0.428c0.067-0.122,0.166-0.212,0.296-0.274
			c0.101-0.049,0.237-0.074,0.409-0.074c0.166,0,0.291,0.015,0.374,0.044c0.081,0.03,0.149,0.077,0.203,0.142
			c0.055,0.062,0.094,0.141,0.123,0.238l-0.448,0.082c-0.017-0.056-0.049-0.101-0.093-0.13c-0.042-0.031-0.101-0.044-0.167-0.044
			c-0.103,0-0.183,0.034-0.244,0.105c-0.059,0.071-0.089,0.182-0.089,0.333c0,0.164,0.031,0.279,0.091,0.35
			c0.061,0.069,0.147,0.104,0.256,0.104c0.051,0,0.1-0.008,0.148-0.023c0.047-0.015,0.101-0.041,0.161-0.077v-0.14H259.827z"/>
		<polygon clip-path="url(#SVGID_12_)" points="260.815,131.322 262.059,131.322 262.059,131.643 261.281,131.643 261.281,131.88 
			262,131.88 262,132.186 261.281,132.186 261.281,132.482 262.078,132.482 262.078,132.822 260.815,132.822 		"/>
		<path clip-path="url(#SVGID_12_)" d="M250.93,134.073l0.44-0.029c0.01,0.073,0.027,0.128,0.057,0.164
			c0.048,0.06,0.117,0.091,0.205,0.091c0.066,0,0.118-0.014,0.151-0.047c0.037-0.031,0.055-0.065,0.055-0.107
			c0-0.04-0.017-0.074-0.051-0.105c-0.034-0.03-0.112-0.06-0.237-0.087c-0.205-0.045-0.346-0.107-0.434-0.183
			c-0.087-0.073-0.131-0.171-0.131-0.287c0-0.078,0.023-0.151,0.066-0.22c0.046-0.068,0.114-0.123,0.204-0.163
			c0.087-0.037,0.211-0.057,0.367-0.057c0.191,0,0.336,0.035,0.437,0.104c0.1,0.072,0.162,0.186,0.182,0.341l-0.435,0.026
			c-0.012-0.066-0.036-0.115-0.074-0.146c-0.037-0.03-0.09-0.045-0.155-0.045c-0.054,0-0.095,0.011-0.122,0.034
			c-0.028,0.022-0.042,0.05-0.042,0.083c0,0.023,0.012,0.044,0.034,0.063c0.022,0.021,0.075,0.038,0.155,0.057
			c0.205,0.045,0.347,0.088,0.435,0.131c0.089,0.046,0.153,0.101,0.192,0.167c0.04,0.065,0.061,0.14,0.061,0.223
			c0,0.096-0.027,0.184-0.08,0.265c-0.054,0.081-0.127,0.144-0.225,0.186c-0.094,0.042-0.215,0.063-0.359,0.063
			c-0.254,0-0.431-0.05-0.53-0.146C250.998,134.347,250.941,134.223,250.93,134.073"/>
		<polygon clip-path="url(#SVGID_12_)" points="252.372,133.067 252.884,133.067 253.189,133.573 253.493,133.067 254.003,133.067 
			253.419,133.938 253.419,134.567 252.956,134.567 252.956,133.938 		"/>
		<path clip-path="url(#SVGID_12_)" d="M253.98,134.073l0.441-0.029c0.01,0.073,0.029,0.128,0.06,0.164
			c0.046,0.06,0.114,0.091,0.202,0.091c0.067,0,0.117-0.014,0.154-0.047c0.036-0.031,0.053-0.065,0.053-0.107
			c0-0.04-0.017-0.074-0.052-0.105c-0.032-0.03-0.113-0.06-0.236-0.087c-0.202-0.045-0.347-0.107-0.433-0.183
			c-0.089-0.073-0.131-0.171-0.131-0.287c0-0.078,0.022-0.151,0.066-0.22c0.045-0.068,0.113-0.123,0.202-0.163
			c0.09-0.037,0.212-0.057,0.369-0.057c0.192,0,0.337,0.035,0.438,0.104c0.1,0.072,0.158,0.186,0.179,0.341l-0.434,0.026
			c-0.013-0.066-0.038-0.115-0.074-0.146c-0.038-0.03-0.089-0.045-0.156-0.045c-0.053,0-0.094,0.011-0.122,0.034
			c-0.026,0.022-0.042,0.05-0.042,0.083c0,0.023,0.013,0.044,0.036,0.063c0.02,0.021,0.072,0.038,0.154,0.057
			c0.203,0.045,0.348,0.088,0.436,0.131c0.086,0.046,0.151,0.101,0.19,0.167c0.04,0.065,0.061,0.14,0.061,0.223
			c0,0.096-0.025,0.184-0.081,0.265c-0.054,0.081-0.127,0.144-0.221,0.186c-0.096,0.042-0.216,0.063-0.362,0.063
			c-0.256,0-0.434-0.05-0.53-0.146C254.049,134.347,253.994,134.223,253.98,134.073"/>
		<polygon clip-path="url(#SVGID_12_)" points="255.47,133.067 256.877,133.067 256.877,133.438 256.403,133.438 256.403,134.567 
			255.94,134.567 255.94,133.438 255.47,133.438 		"/>
		<polygon clip-path="url(#SVGID_12_)" points="257.086,133.067 258.327,133.067 258.327,133.389 257.55,133.389 257.55,133.625 
			258.27,133.625 258.27,133.93 257.55,133.93 257.55,134.228 258.347,134.228 258.347,134.567 257.086,134.567 		"/>
		<polygon clip-path="url(#SVGID_12_)" points="258.594,133.067 259.203,133.067 259.438,133.981 259.67,133.067 260.281,133.067 
			260.281,134.567 259.9,134.567 259.9,133.422 259.608,134.567 259.263,134.567 258.971,133.422 258.971,134.567 258.594,134.567 
					"/>
		<g opacity="0.2" clip-path="url(#SVGID_12_)">
			<g>
				<defs>
					<rect id="SVGID_13_" x="190.185" y="44.624" width="143.804" height="124.046"/>
				</defs>
				<clipPath id="SVGID_14_">
					<use xlink:href="#SVGID_13_"  overflow="visible"/>
				</clipPath>
				<g clip-path="url(#SVGID_14_)">
					<defs>
						<path id="SVGID_15_" d="M191.713,64.57c0,0,5.524,3.191,11.071,8.06c6.706,5.889,13.87,14.338,16.873,23.99
							c0.585,1.881,1.121,4.117,1.309,5.75c2.331,20.057-6.268,43.312-6.268,43.312s14.627,22.603,43.122,22.984
							c27.921,0.373,38.369-21.086,38.369-21.086s-10.475-12.491-10.066-29.632c0.387-16.262,11.994-31.287,23.63-41.828
							c11.201-10.148,21.579-17.06,21.579-17.06l2.658-11.017c0,0-0.291-2.134-0.425-2.539c-0.133-0.401-1.474-0.88-1.474-0.88
							s-8.112,10.765-18.486,21.47c-5.169,5.336-10.976,10.491-16.465,14.622c-16.792,12.636-32.104,18.236-45.211,16.525
							c-5.538-0.722-12.625-3.412-19.472-7.514c-9.357-5.607-18.171-13.743-23.9-20.008c-9.997-10.935-15.706-19.967-15.706-19.967
							s-2.848,1.898-2.658,3.799C190.383,55.451,191.713,64.57,191.713,64.57"/>
					</defs>
					<clipPath id="SVGID_16_">
						<use xlink:href="#SVGID_15_"  overflow="visible"/>
					</clipPath>
					
						<radialGradient id="SVGID_17_" cx="125.8198" cy="774.5205" r="0.9738" gradientTransform="matrix(58.718 0 0 -58.718 -7132.752 45651.0859)" gradientUnits="userSpaceOnUse">
						<stop  offset="0" style="stop-color:#000000"/>
						<stop  offset="0.1873" style="stop-color:#030303"/>
						<stop  offset="0.3401" style="stop-color:#0D0D0C"/>
						<stop  offset="0.4806" style="stop-color:#1E1D1C"/>
						<stop  offset="0.614" style="stop-color:#373533"/>
						<stop  offset="0.7421" style="stop-color:#565350"/>
						<stop  offset="0.8664" style="stop-color:#7C7773"/>
						<stop  offset="0.9854" style="stop-color:#A8A29C"/>
						<stop  offset="1" style="stop-color:#AEA8A2"/>
					</radialGradient>
					<rect x="190.004" y="44.624" clip-path="url(#SVGID_16_)" fill="url(#SVGID_17_)" width="143.985" height="124.415"/>
				</g>
			</g>
		</g>
		<g opacity="0.13" clip-path="url(#SVGID_12_)">
			<g>
				<defs>
					<rect id="SVGID_18_" x="117.236" y="194.029" width="63.997" height="543.274"/>
				</defs>
				<clipPath id="SVGID_19_">
					<use xlink:href="#SVGID_18_"  overflow="visible"/>
				</clipPath>
				<g clip-path="url(#SVGID_19_)">
					<defs>
						<path id="SVGID_20_" d="M153.185,194.029c0,0,7.944,30.185,12.18,33.89c4.239,3.706,15.887,34.948,14.828,55.597
							c-1.062,20.651-3.708,45.007-3.177,64.597c0.53,19.592,2.118,40.774-1.588,40.774c-3.708,0-11.652,6.353-10.063,18.001
							c1.587,11.648,19.061,7.941,15.354,22.771c-3.704,14.826-11.648,24.88-12.707,33.355c-1.061,8.472,5.295,25.946,0,29.654
							c-5.294,3.704-12.178,11.651-12.178,15.354c0,3.707-4.239,11.122-6.881,12.711c-2.652,1.584-4.241,20.647-4.241,25.413
							c0,4.762-7.41,19.066-10.059,19.592c-2.646,0.531-4.766,21.716-3.708,32.83c1.062,11.12,5.295,42.366,4.239,50.835
							c-1.061,8.47,3.708,29.649,4.233,32.825c0.53,3.183,2.648,7.946,2.648,7.946s8.471,9.003,5.295,12.705
							c-3.177,3.707-7.414,7.94-7.414,13.236c0,5.301,1.588,21.186,1.588,21.186l-12.176-9.533c0,0,2.274-13.37,0.685-20.785
							c-1.59-7.414-9.728-54.655-10.379-59.914c-2.147-17.262-2.895-49.821-2.147-70.182c0.814-22.11,14.139-71.114,21.554-92.294
							c4.285-12.246,10.055-60.257,10.942-74.466c0.34-5.418,1.213-34.108,0.904-43.215c-0.332-9.758-3.074-43.433-3.605-46.609
							c-0.529-3.177-6.098-43.313-6.098-50.198c0-6.882-3.385-16.242-3.385-16.242s10.062-12.711,11.123-28.066
							C150.011,210.444,153.185,194.029,153.185,194.029"/>
					</defs>
					<clipPath id="SVGID_21_">
						<use xlink:href="#SVGID_20_"  overflow="visible"/>
					</clipPath>
					
						<radialGradient id="SVGID_22_" cx="126.3403" cy="774.5146" r="0.9745" gradientTransform="matrix(249.7981 0 0 -249.7981 -31310.0703 193745.4219)" gradientUnits="userSpaceOnUse">
						<stop  offset="0" style="stop-color:#FFFFFF"/>
						<stop  offset="1" style="stop-color:#897F76"/>
					</radialGradient>
					<rect x="116.771" y="194.029" clip-path="url(#SVGID_21_)" fill="url(#SVGID_22_)" width="67.655" height="543.274"/>
				</g>
			</g>
		</g>
		<g opacity="0.13" clip-path="url(#SVGID_12_)">
			<g>
				<defs>
					<rect id="SVGID_23_" x="273.159" y="149.654" width="124.503" height="387.79"/>
				</defs>
				<clipPath id="SVGID_24_">
					<use xlink:href="#SVGID_23_"  overflow="visible"/>
				</clipPath>
				<g clip-path="url(#SVGID_24_)">
					<defs>
						<path id="SVGID_25_" d="M344.846,185.67c0,0-11.352,12.438-15.137,17.304s-23.255,40.016-23.255,49.206
							c0,9.193,8.653,35.692,10.817,38.936c2.162,3.245,6.488,17.304,3.243,21.627c-3.243,4.326-10.816,9.192-13.518,12.44
							c-2.702,3.245-20.546,79.483-23.253,98.957c-2.702,19.465-14.599,107.6-9.191,108.686
							c5.408,1.084,14.058-16.226,20.547-16.226c6.488,0,22.708-23.251,23.793-30.823c1.082-7.565,15.68-42.172,24.873-41.636
							c9.193,0.546,25.418,29.205,28.12,37.858c2.703,8.647,17.845,50.29,22.169,54.612c4.324,4.324,3.789-9.192,3.246-17.308
							c-0.541-8.106-6.422-26.872-6.422-30.115c0-3.251-5.82-51.87-8.059-62.453c-2.258-10.656-6.15-51.232-5.329-76.648
							c0.481-15.033,8.453-68.165,8.453-74.655c0-6.487,0.54-22.169,0.54-22.169l-5.407-7.03c0,0-2.164,14.062-2.704,21.632
							c-0.541,7.567-8.65,41.094-8.65,49.746c0,8.65,0,41.636,0.54,49.747c0.542,8.113,3.239,44.882,1.621,50.291
							c-1.621,5.404-31.364,4.325-32.443-0.547c-1.079-4.862-8.648-45.417-6.486-54.069c2.158-8.649,9.188-38.393,8.109-43.799
							c-1.08-5.408-9.198-34.604-7.031-44.339c2.163-9.735,11.898-41.64,17.846-46.506c5.948-4.869,16.226-8.115,15.141-12.436
							c-1.082-4.33-13.667-44.86-14.693-59.947C351.559,144.791,348.653,144.934,344.846,185.67"/>
					</defs>
					<clipPath id="SVGID_26_">
						<use xlink:href="#SVGID_25_"  overflow="visible"/>
					</clipPath>
					
						<radialGradient id="SVGID_27_" cx="126.2148" cy="774.5391" r="0.9739" gradientTransform="matrix(147.8886 0 0 -147.8886 -18330.3047 114889.0313)" gradientUnits="userSpaceOnUse">
						<stop  offset="0" style="stop-color:#FFFFFF"/>
						<stop  offset="1" style="stop-color:#808284"/>
					</radialGradient>
					<rect x="269.145" y="144.791" clip-path="url(#SVGID_26_)" fill="url(#SVGID_27_)" width="129.234" height="396.145"/>
				</g>
			</g>
		</g>
		<g opacity="0.13" clip-path="url(#SVGID_12_)">
			<g>
				<defs>
					<rect id="SVGID_28_" x="173.05" y="547.77" width="80.543" height="191.708"/>
				</defs>
				<clipPath id="SVGID_29_">
					<use xlink:href="#SVGID_28_"  overflow="visible"/>
				</clipPath>
				<g clip-path="url(#SVGID_29_)">
					<defs>
						<path id="SVGID_30_" d="M185.271,547.835c6.111-1.668,44.992,29.443,48.88,30c3.888,0.556,14.444,3.887,14.444,3.887h4.998
							c0,0-2.777,36.661-5.552,45.547c-2.779,8.89-12.223,38.883-15.556,46.109c-3.331,7.219-13.333,39.435-13.884,44.432
							c-0.557,4.997-0.557,19.438-0.557,19.438l-17.222,2.23c0,0-0.553-36.662-1.11-42.774c-0.557-6.109,0.552-28.325-2.22-34.438
							c-2.779-6.107-11.11-36.105-16.109-47.769c-5-11.665-8.333-35.55-8.333-41.105c0-5.558,6.112-11.111,7.778-15.55
							C182.492,553.398,185.271,547.835,185.271,547.835"/>
					</defs>
					<clipPath id="SVGID_31_">
						<use xlink:href="#SVGID_30_"  overflow="visible"/>
					</clipPath>
					
						<radialGradient id="SVGID_32_" cx="126.2422" cy="774.5801" r="0.9732" gradientTransform="matrix(144.603 0 0 -144.603 -18096.0645 112565.5625)" gradientUnits="userSpaceOnUse">
						<stop  offset="0" style="stop-color:#FFFFFF"/>
						<stop  offset="1" style="stop-color:#897F76"/>
					</radialGradient>
					<rect x="173.05" y="546.167" clip-path="url(#SVGID_31_)" fill="url(#SVGID_32_)" width="80.543" height="193.311"/>
				</g>
			</g>
		</g>
		<g opacity="0.13" clip-path="url(#SVGID_12_)">
			<g>
				<defs>
					<rect id="SVGID_33_" x="218.225" y="543.6" width="87.513" height="33.201"/>
				</defs>
				<clipPath id="SVGID_34_">
					<use xlink:href="#SVGID_33_"  overflow="visible"/>
				</clipPath>
				<g clip-path="url(#SVGID_34_)">
					<defs>
						<path id="SVGID_35_" d="M230.186,546.375c2.777,0,14.997,12.224,19.995,15.553c5,3.337,22.774,8.89,28.886,3.887
							c6.111-4.998,9.996-18.324,16.665-18.324c6.667,0,12.962,9.194,8.517,12.526c-4.441,3.333-20.553,10.876-25.987,14.445
							c0,0-1.595-1.755-11.273-2.17c-13.611-0.584-13.528,4.509-13.528,4.509c-7.221-6.662-24.94-20.978-29.385-23.76
							c-4.445-2.779-8.331-9.441-3.889-9.441C224.632,543.6,230.186,546.375,230.186,546.375"/>
					</defs>
					<clipPath id="SVGID_36_">
						<use xlink:href="#SVGID_35_"  overflow="visible"/>
					</clipPath>
					
						<radialGradient id="SVGID_37_" cx="125.6919" cy="774.7256" r="0.974" gradientTransform="matrix(49.6064 0 0 -49.6064 -5975.3477 38973.8477)" gradientUnits="userSpaceOnUse">
						<stop  offset="0" style="stop-color:#FFFFFF"/>
						<stop  offset="1" style="stop-color:#808284"/>
					</radialGradient>
					<rect x="215.744" y="543.6" clip-path="url(#SVGID_36_)" fill="url(#SVGID_37_)" width="92.949" height="33.201"/>
				</g>
			</g>
		</g>
		<g opacity="0.13" clip-path="url(#SVGID_12_)">
			<g>
				<defs>
					<rect id="SVGID_38_" x="278.857" y="551.154" width="53.927" height="187.209"/>
				</defs>
				<clipPath id="SVGID_39_">
					<use xlink:href="#SVGID_38_"  overflow="visible"/>
				</clipPath>
				<g clip-path="url(#SVGID_39_)">
					<defs>
						<path id="SVGID_40_" d="M278.857,581.722c0,0,2.348,29.058,5.68,39.049c3.332,9.998,15.433,42.605,16.541,47.604
							c1.108,5.004,7.222,31.105,7.777,35.552c0.556,4.441,2.777,23.883,2.777,23.883s6.665,8.888,9.443,9.438
							c2.775,0.562,4.996,1.115,4.996,1.115s-7.22-26.112-3.885-27.217c3.332-1.107,10.553-6.107,7.217-11.666
							c-3.332-5.553-5.553-15.551-5.553-21.663c0-6.108-5.554-10.551-9.443-8.889c-3.887,1.669-6.665-9.441-6.665-13.889
							c0-4.441,6.665-28.326,11.109-39.988c4.443-11.664,13.888-31.108,13.888-39.991c0-8.895,0.555-24.446-2.221-23.891
							c-2.778,0.559-16.111,11.113-22.22,14.996c-6.113,3.892-16.11,12.781-19.442,13.894
							C285.525,581.163,278.857,581.722,278.857,581.722"/>
					</defs>
					<clipPath id="SVGID_41_">
						<use xlink:href="#SVGID_40_"  overflow="visible"/>
					</clipPath>
					
						<radialGradient id="SVGID_42_" cx="126.2373" cy="774.5762" r="0.9728" gradientTransform="matrix(164.1062 0 0 -164.1062 -20342.9551 127700.3125)" gradientUnits="userSpaceOnUse">
						<stop  offset="0" style="stop-color:#FFFFFF"/>
						<stop  offset="1" style="stop-color:#000000"/>
					</radialGradient>
					<rect x="278.857" y="550.613" clip-path="url(#SVGID_41_)" fill="url(#SVGID_42_)" width="54.438" height="187.749"/>
				</g>
			</g>
		</g>
		<g opacity="0.13" clip-path="url(#SVGID_12_)">
			<g>
				<defs>
					<rect id="SVGID_43_" x="202.105" y="184.724" width="53.446" height="90.033"/>
				</defs>
				<clipPath id="SVGID_44_">
					<use xlink:href="#SVGID_43_"  overflow="visible"/>
				</clipPath>
				<g clip-path="url(#SVGID_44_)">
					<defs>
						<path id="SVGID_45_" d="M205.426,196.557c0,0,23.695,33.266,23.695,37.822s12.305,37.365,15.494,40.1
							c3.19,2.731,5.924-15.497,5.924-19.596c0-4.101,5.012-40.556,5.012-43.746c0-3.189-4.101-13.67-6.836-16.86
							c-2.733-3.188-26.886-8.202-31.442-9.112c-4.559-0.915-14.126-0.458-15.037,1.82
							C201.328,189.266,205.426,196.557,205.426,196.557"/>
					</defs>
					<clipPath id="SVGID_46_">
						<use xlink:href="#SVGID_45_"  overflow="visible"/>
					</clipPath>
					
						<radialGradient id="SVGID_47_" cx="126.0483" cy="774.5215" r="0.9738" gradientTransform="matrix(85.2383 0 0 -85.2383 -10541.4609 66219.6406)" gradientUnits="userSpaceOnUse">
						<stop  offset="0" style="stop-color:#FFFFFF"/>
						<stop  offset="1" style="stop-color:#A7A8AC"/>
					</radialGradient>
					<rect x="201.328" y="184.251" clip-path="url(#SVGID_46_)" fill="url(#SVGID_47_)" width="54.224" height="92.959"/>
				</g>
			</g>
		</g>
	</g>
	<g clip-path="url(#SVGID_2_)">
		<defs>
			<rect id="SVGID_48_" x="91" y="21.393" width="350.527" height="736.107"/>
		</defs>
		<clipPath id="SVGID_49_">
			<use xlink:href="#SVGID_48_"  overflow="visible"/>
		</clipPath>
		<g opacity="0.75" clip-path="url(#SVGID_49_)">
			<g>
				<defs>
					<rect id="SVGID_50_" x="130.289" y="704.314" width="275.733" height="7.458"/>
				</defs>
				<clipPath id="SVGID_51_">
					<use xlink:href="#SVGID_50_"  overflow="visible"/>
				</clipPath>
				
					<path clip-path="url(#SVGID_51_)" fill="none" stroke="#7A726F" stroke-width="0.5" stroke-miterlimit="10" stroke-dasharray="5,2" d="
					M130.32,704.562c32.355,4.088,65.096,4.088,97.45,0"/>
				
					<path clip-path="url(#SVGID_51_)" fill="none" stroke="#7A726F" stroke-width="0.5" stroke-miterlimit="10" stroke-dasharray="5,2" d="
					M130.32,708.458c32.355,4.089,65.096,4.089,97.45,0"/>
				
					<path clip-path="url(#SVGID_51_)" fill="none" stroke="#7A726F" stroke-width="0.51" stroke-miterlimit="10" stroke-dasharray="5.102,2.041" d="
					M304.512,704.562c33.694,4.088,67.788,4.088,101.479,0"/>
				
					<path clip-path="url(#SVGID_51_)" fill="none" stroke="#7A726F" stroke-width="0.51" stroke-miterlimit="10" stroke-dasharray="5.102,2.041" d="
					M304.512,708.458c33.694,4.089,67.788,4.089,101.479,0"/>
			</g>
		</g>
		<g clip-path="url(#SVGID_49_)">
			<g>
				<defs>
					<rect id="SVGID_52_" x="184.89" y="539.012" width="160.659" height="232.711"/>
				</defs>
				<clipPath id="SVGID_53_">
					<use xlink:href="#SVGID_52_"  overflow="visible"/>
				</clipPath>
				<g opacity="0.35" clip-path="url(#SVGID_53_)">
					<g>
						<defs>
							<rect id="SVGID_54_" x="184.89" y="539.012" width="160.659" height="232.711"/>
						</defs>
						<clipPath id="SVGID_55_">
							<use xlink:href="#SVGID_54_"  overflow="visible"/>
						</clipPath>
						<g clip-path="url(#SVGID_55_)">
							<defs>
								<rect id="SVGID_56_" x="184.89" y="539.012" width="160.659" height="232.711"/>
							</defs>
							<clipPath id="SVGID_57_">
								<use xlink:href="#SVGID_56_"  overflow="visible"/>
							</clipPath>
							<g clip-path="url(#SVGID_57_)">
								
								
							</g>
						</g>
					</g>
				</g>
				
					<path clip-path="url(#SVGID_53_)" fill="none" stroke="#897F76" stroke-width="0.25" stroke-miterlimit="10" stroke-dasharray="0.5,0.5" d="
					M303.314,678.062c-2.664-11.917-7.852-27.259-11.057-35.543c-1.791-4.626-5.854-14.44-8.244-23.469
					c-1.887-7.135-2.659-13.65-3.053-17.263c-1.02-9.31-3.312-29.229-3.312-29.229s-1.871,0-11.22,0.269
					c-9.352,0.266-12.557-0.269-12.557-0.269s-0.329,19.776-2.346,31.703c-0.855,5.062-0.927,12.885-3.103,21.336
					c-2.958,11.493-9.94,29.578-11.54,36.271c-1.233,5.152-4.256,10.856-6.886,17.988c-3.844,10.424-7.326,21.813-7.08,21.771
					l-4.315,16.051l-0.389,19.59c5.809-0.989,8.147-1.657,8.147-1.657l-0.594-17.411c0,0,6.777-32.316,12.085-43.532
					c5.319-11.219,17.521-43.196,19.88-55.006c2.364-11.809,4.726-41.319,4.726-41.319s3.548-0.594,5.901-0.594
					c2.361,0,4.725,2.358,4.725,2.358s1.175,20.075,4.714,35.418c3.549,15.352,13.581,38.961,15.359,47.232
					c1.77,8.261,8.761,32.078,9.477,34.991c0.728,2.958,2.369,10.844,2.369,10.844l0.604,14.411c0,0,3.381,3.646,6.095,6.312
					l-1.173-11.239l-1.065-11.535C309.464,706.541,306.079,690.427,303.314,678.062z"/>
			</g>
		</g>
	</g>
	<g id="TRIM" clip-path="url(#SVGID_2_)">
		<defs>
			<rect id="SVGID_58_" x="91" y="21.393" width="350.527" height="736.107"/>
		</defs>
		<clipPath id="SVGID_59_">
			<use xlink:href="#SVGID_58_"  overflow="visible"/>
		</clipPath>
		<path clip-path="url(#SVGID_59_)" fill="#FFFFFF" d="M171.941,52.163c0,0-7.064-1.851-7.064,8.63
			c0,10.482,5.666,38.626-2.267,97.382c-8.969,66.452-29.116,88.97-29.116,88.97s-1.383,1.612,1.174,4.535
			c2.56,2.924,5.679,1.591,5.679,1.591s21.263-32.235,29.304-94.354C177.033,101.873,171.941,52.163,171.941,52.163"/>
		<path clip-path="url(#SVGID_59_)" fill="none" stroke="#A39D9B" stroke-width="0.5" stroke-dasharray="1,0.75" d="M171.941,52.163
			c0,0-7.064-1.851-7.064,8.63c0,10.482,5.666,38.626-2.267,97.382c-8.969,66.452-29.116,88.97-29.116,88.97
			s-1.383,1.612,1.174,4.535c2.56,2.924,5.679,1.591,5.679,1.591s21.263-32.235,29.304-94.354
			C177.033,101.873,171.941,52.163,171.941,52.163z"/>
		<path clip-path="url(#SVGID_59_)" fill="#FFFFFF" d="M348.846,49.609c0,0,1.081-2.042,3.301-0.776
			c3.354,1.911,2.448,9.551,2.448,9.551s-5.976,45.743,4.72,105.613c12.089,67.664,32.677,86.061,32.677,86.061
			s1.918,1.507-1.064,4.494c-2.98,2.985-6.616,1.626-6.616,1.626s-24.787-32.924-34.157-96.371
			C341.549,101.543,348.846,49.609,348.846,49.609"/>
		<path clip-path="url(#SVGID_59_)" fill="none" stroke="#A39D9B" stroke-width="0.5" stroke-dasharray="1,0.75" d="M348.846,49.609
			c0,0,1.081-2.042,3.301-0.776c3.354,1.911,2.448,9.551,2.448,9.551s-5.976,45.743,4.72,105.613
			c12.089,67.664,32.677,86.061,32.677,86.061s1.918,1.507-1.064,4.494c-2.98,2.985-6.616,1.626-6.616,1.626
			s-24.787-32.924-34.157-96.371C341.549,101.543,348.846,49.609,348.846,49.609z"/>
		<path clip-path="url(#SVGID_59_)" fill="#FFFFFF" d="M192.457,71.268c0,0,20.595,14.478,22.912,31.371
			c2.615,19.069-5.228,36.906-5.228,36.906l4.307,6.151c0,0,10.456-24.756,5.535-46.594c-5.271-23.399-29.063-35.369-29.063-35.369
			L192.457,71.268z"/>
		<path clip-path="url(#SVGID_59_)" fill="none" stroke="#A39D9B" stroke-width="0.5" stroke-dasharray="1,0.75" d="M192.457,71.268
			c0,0,20.595,14.478,22.912,31.371c2.615,19.069-5.228,36.906-5.228,36.906l4.307,6.151c0,0,10.456-24.756,5.535-46.594
			c-5.271-23.399-29.063-35.369-29.063-35.369L192.457,71.268z"/>
		<path clip-path="url(#SVGID_59_)" fill="#FFFFFF" d="M329.625,65.732c0,0-26.802,18.941-33.833,34.754
			c-11.685,26.295,4.461,42.287,4.461,42.287l-3.677,4.422c0,0-19.28-18.451-5.328-48.787c8.391-18.246,40.391-40.095,40.391-40.095
			L329.625,65.732z"/>
		<path clip-path="url(#SVGID_59_)" fill="none" stroke="#A39D9B" stroke-width="0.5" stroke-dasharray="1,0.75" d="M329.625,65.732
			c0,0-26.802,18.941-33.833,34.754c-11.685,26.295,4.461,42.287,4.461,42.287l-3.677,4.422c0,0-19.28-18.451-5.328-48.787
			c8.391-18.246,40.391-40.095,40.391-40.095L329.625,65.732z"/>
		<path clip-path="url(#SVGID_59_)" fill="#FFFFFF" d="M199.243,46.34c0,0,33.112,44.47,57.292,44.47
			c32.59,0,67.637-46.783,67.637-46.783l9.842-2.529c0,0-37.197,55.434-77.671,55.434c-34.343,0-64.017-48.102-64.017-48.102
			L199.243,46.34z"/>
		<path clip-path="url(#SVGID_59_)" fill="none" stroke="#A39D9B" stroke-width="0.5" stroke-dasharray="1,0.75" d="M199.243,46.34
			c0,0,33.112,44.47,57.292,44.47c32.59,0,67.637-46.783,67.637-46.783l9.842-2.529c0,0-37.197,55.434-77.671,55.434
			c-34.343,0-64.017-48.102-64.017-48.102L199.243,46.34z"/>
		<path clip-path="url(#SVGID_59_)" fill="#FFFFFF" d="M185.708,45.975c4.18-2.386,13.535,0.365,13.535,0.365
			s-10.243,1.54-9.375,7.821c0.548,3.969,3.631,20.455,5.823,30.09c3,13.206,5.271,46.058,22.081,65.271
			c16.808,19.21,37.173,20.229,53.381,17.226c16.206-2.999,34.184-27.898,43.188-50.712c9.003-22.812,20.461-67.362,19.898-70.367
			c-0.884-4.729-11.021-0.678-11.021-0.678s9.387-10.083,17.242-3.554c4.194,3.485-9.986,55.23-19.789,79.063
			c-9.804,23.834-30.725,50.804-48.373,53.938c-17.645,3.137-41.18,1.255-59.479-18.816c-18.305-20.072-20.266-54.564-23.533-68.362
			c-3.271-13.794-6.356-33.34-6.356-33.34S182.906,47.575,185.708,45.975"/>
		<path clip-path="url(#SVGID_59_)" fill="none" stroke="#A39D9B" stroke-width="0.5" stroke-dasharray="1,0.75" d="M185.708,45.975
			c4.18-2.386,13.535,0.365,13.535,0.365s-10.243,1.54-9.375,7.821c0.548,3.969,3.631,20.455,5.823,30.09
			c3,13.206,5.271,46.058,22.081,65.271c16.808,19.21,37.173,20.229,53.381,17.226c16.206-2.999,34.184-27.898,43.188-50.712
			c9.003-22.812,20.461-67.362,19.898-70.367c-0.884-4.729-11.021-0.678-11.021-0.678s9.387-10.083,17.242-3.554
			c4.194,3.485-9.986,55.23-19.789,79.063c-9.804,23.834-30.725,50.804-48.373,53.938c-17.645,3.137-41.18,1.255-59.479-18.816
			c-18.305-20.072-20.266-54.564-23.533-68.362c-3.271-13.794-6.356-33.34-6.356-33.34S182.906,47.575,185.708,45.975z"/>
	</g>
	<g clip-path="url(#SVGID_2_)">
		<defs>
			<rect id="SVGID_60_" x="91" y="21.393" width="350.527" height="736.107"/>
		</defs>
		<clipPath id="SVGID_61_">
			<use xlink:href="#SVGID_60_"  overflow="visible"/>
		</clipPath>
		<path clip-path="url(#SVGID_61_)" fill="#FFFFFF" d="M139.633,693.458c0-2.465,1.91-4.479,4.329-4.641v9.281
			C141.543,697.934,139.633,695.918,139.633,693.458"/>
		<polygon clip-path="url(#SVGID_61_)" fill-rule="evenodd" clip-rule="evenodd" fill="#FFFFFF" points="148.776,692.851 
			144.729,688.805 148.776,688.805 		"/>
		<polygon clip-path="url(#SVGID_61_)" fill-rule="evenodd" clip-rule="evenodd" fill="#FFFFFF" points="148.776,694.064 
			144.729,698.109 148.776,698.109 		"/>
		<polygon clip-path="url(#SVGID_61_)" fill-rule="evenodd" clip-rule="evenodd" fill="#BF2A43" points="153.848,692.851 
			157.889,688.805 153.848,688.805 		"/>
		<polygon clip-path="url(#SVGID_61_)" fill-rule="evenodd" clip-rule="evenodd" fill="#BF2A43" points="153.848,694.064 
			157.889,698.109 153.848,698.109 		"/>
		<rect x="149.633" y="688.805" clip-path="url(#SVGID_61_)" fill="#BF2A43" width="3.356" height="9.304"/>
		<path clip-path="url(#SVGID_61_)" fill="#FFFFFF" d="M139.633,693.458c0-2.465,1.91-4.479,4.329-4.641v9.281
			C141.543,697.934,139.633,695.918,139.633,693.458"/>
		<polygon clip-path="url(#SVGID_61_)" fill-rule="evenodd" clip-rule="evenodd" fill="#FFFFFF" points="148.776,692.851 
			144.729,688.805 148.776,688.805 		"/>
		<polygon clip-path="url(#SVGID_61_)" fill-rule="evenodd" clip-rule="evenodd" fill="#FFFFFF" points="148.776,694.064 
			144.729,698.109 148.776,698.109 		"/>
		<polygon clip-path="url(#SVGID_61_)" fill-rule="evenodd" clip-rule="evenodd" fill="#BF2A43" points="153.848,692.851 
			157.889,688.805 153.848,688.805 		"/>
		<polygon clip-path="url(#SVGID_61_)" fill-rule="evenodd" clip-rule="evenodd" fill="#BF2A43" points="153.848,694.064 
			157.889,698.109 153.848,698.109 		"/>
		<rect x="149.633" y="688.805" clip-path="url(#SVGID_61_)" fill="#BF2A43" width="3.356" height="9.304"/>
		<path clip-path="url(#SVGID_61_)" fill-rule="evenodd" clip-rule="evenodd" fill="#004D86" d="M144.041,686.457
			c-3.872,0-7.02,3.148-7.02,7.019c0,3.873,3.147,7.017,7.02,7.017h12.366c3.871,0,7.021-3.144,7.021-7.017
			c0-3.87-3.151-7.019-7.021-7.019H144.041z"/>
		<path clip-path="url(#SVGID_61_)" fill="none" stroke="#004D86" stroke-width="0.917" d="M144.041,686.457
			c-3.872,0-7.02,3.148-7.02,7.019c0,3.873,3.147,7.017,7.02,7.017h12.366c3.871,0,7.021-3.144,7.021-7.017
			c0-3.87-3.151-7.019-7.021-7.019H144.041z"/>
		<path clip-path="url(#SVGID_61_)" fill-rule="evenodd" clip-rule="evenodd" fill="#004D86" d="M156.407,687.1
			c3.524,0,6.376,2.855,6.376,6.376c0,3.524-2.853,6.378-6.376,6.378h-12.366c-3.521,0-6.378-2.854-6.378-6.378
			c0-3.521,2.857-6.376,6.378-6.376H156.407z"/>
		<path clip-path="url(#SVGID_61_)" fill="none" stroke="#FFFFFF" stroke-width="0.458" stroke-miterlimit="3.864" d="
			M156.407,687.1c3.524,0,6.376,2.855,6.376,6.376c0,3.524-2.853,6.378-6.376,6.378h-12.366c-3.521,0-6.378-2.854-6.378-6.378
			c0-3.521,2.857-6.376,6.378-6.376H156.407z"/>
		<path clip-path="url(#SVGID_61_)" fill="#FFFFFF" d="M139.633,693.458c0-2.465,1.91-4.479,4.329-4.641v9.281
			C141.543,697.934,139.633,695.918,139.633,693.458"/>
		<polygon clip-path="url(#SVGID_61_)" fill-rule="evenodd" clip-rule="evenodd" fill="#FFFFFF" points="148.776,692.851 
			144.729,688.805 148.776,688.805 		"/>
		<polygon clip-path="url(#SVGID_61_)" fill-rule="evenodd" clip-rule="evenodd" fill="#FFFFFF" points="148.776,694.064 
			144.729,698.109 148.776,698.109 		"/>
		<polygon clip-path="url(#SVGID_61_)" fill-rule="evenodd" clip-rule="evenodd" fill="#BF2A43" points="153.848,692.851 
			157.889,688.805 153.848,688.805 		"/>
		<polygon clip-path="url(#SVGID_61_)" fill-rule="evenodd" clip-rule="evenodd" fill="#BF2A43" points="153.848,694.064 
			157.889,698.109 153.848,698.109 		"/>
		<rect x="149.633" y="688.805" clip-path="url(#SVGID_61_)" fill="#BF2A43" width="3.356" height="9.304"/>
	</g>
</g>
</svg>
