<?xml version="1.0" encoding="utf-8"?>
<!-- Generator: Adobe Illustrator 15.0.0, SVG Export Plug-In . SVG Version: 6.00 Build 0)  -->
<!DOCTYPE svg PUBLIC "-//W3C//DTD SVG 1.1//EN" "http://www.w3.org/Graphics/SVG/1.1/DTD/svg11.dtd">
<svg version="1.1" id="Layer_1" xmlns="http://www.w3.org/2000/svg" xmlns:xlink="http://www.w3.org/1999/xlink" x="0px" y="0px"
	 width="612px" height="792px" viewBox="0 0 600 992" enable-background="new 0 0 612 792" xml:space="preserve">
<g>
	<defs>
		<rect id="SVGID_1_" width="612" height="792"/>
	</defs>
	<clipPath id="SVGID_2_">
		<use xlink:href="#SVGID_1_"  overflow="visible"/>
	</clipPath>
	<g clip-path="url(#SVGID_2_)">
		<defs>
			<rect id="SVGID_3_" width="612" height="792"/>
		</defs>
		<clipPath id="SVGID_4_">
			<use xlink:href="#SVGID_3_"  overflow="visible"/>
		</clipPath>
    <g id="XYZ">
    <g id="BODY">
		<path clip-path="url(#SVGID_4_)" fill="#FDBB2D" d="M497.949,141.152c0,0-22.882-7.627-55.085-20.339
			c-20.326-8.023-38.282-20.095-49.832-28.763c-5.724,6.241-29.658,27.884-86.74,28.449c-56.598,0.561-83.856-23.649-91.11-31.383
			c-11.153,8.674-30.927,22.719-53.674,31.697c-32.203,12.712-55.084,20.339-55.084,20.339s-0.75,0.543-1.917,1.349v0.005
			c0.014,0.648,0.032,1.364,0.054,2.129c0.002,0.061,0.004,0.123,0.006,0.186c0.01,0.358,0.022,0.726,0.035,1.104
			c0.001,0.022,0.001,0.044,0.002,0.066c0.014,0.396,0.029,0.805,0.046,1.22c0.003,0.081,0.006,0.164,0.009,0.246
			c0.014,0.335,0.029,0.675,0.044,1.021c0.005,0.105,0.009,0.209,0.014,0.316c0.02,0.422,0.04,0.851,0.063,1.285
			c0.002,0.056,0.005,0.113,0.008,0.168c0.02,0.377,0.041,0.757,0.063,1.14c0.008,0.135,0.016,0.27,0.024,0.405
			c0.021,0.364,0.044,0.73,0.068,1.098c0.006,0.086,0.011,0.17,0.017,0.255c0.029,0.445,0.061,0.892,0.094,1.34
			c0.009,0.121,0.019,0.242,0.028,0.363c0.026,0.344,0.053,0.687,0.081,1.031c0.012,0.136,0.023,0.272,0.035,0.408
			c0.038,0.448,0.077,0.895,0.12,1.34c0.004,0.049,0.009,0.099,0.014,0.148c0.039,0.4,0.079,0.798,0.121,1.194
			c0.014,0.134,0.029,0.267,0.043,0.4c0.039,0.351,0.079,0.7,0.12,1.045c0.012,0.099,0.023,0.198,0.035,0.297
			c0.053,0.428,0.108,0.852,0.165,1.269c0.014,0.102,0.029,0.201,0.043,0.301c0.047,0.33,0.095,0.655,0.145,0.975
			c0.018,0.117,0.036,0.233,0.054,0.349c0.065,0.404,0.132,0.803,0.202,1.19c1.804,9.922,11.726,46.453,13.981,57.277
			s12.628,68.101,13.981,74.866c0.093,0.464,0.176,0.951,0.253,1.453c0.006,0.042,0.012,0.085,0.018,0.127
			c0.071,0.469,0.134,0.951,0.191,1.444c0.007,0.053,0.013,0.105,0.019,0.158c0.056,0.499,0.107,1.007,0.152,1.52
			c0.003,0.037,0.007,0.074,0.01,0.112c0.047,0.547,0.088,1.1,0.123,1.652c0.001,0.008,0.001,0.016,0.001,0.024
			c0.035,0.547,0.064,1.093,0.088,1.635c0.003,0.046,0.004,0.09,0.006,0.135c0.023,0.514,0.042,1.022,0.056,1.522
			c0.002,0.045,0.003,0.09,0.005,0.135c0.014,0.52,0.026,1.03,0.034,1.525c0,0.008,0,0.017,0,0.026
			c0.009,0.517,0.014,1.018,0.016,1.497c0.027-0.067,0.043-0.107,0.043-0.107s5.085,27.119,4.237,38.136
			c-0.847,11.017,5.085,79.66,9.323,100.847c4.236,21.186,9.321,75.424,5.084,98.306c-4.237,22.88-14.407,83.898-16.949,110.169
			c-2.543,26.271-2.543,45.763-2.543,45.763s-3.389,3.39-3.389,6.78c0,3.39,1.695,11.017,1.695,11.017v5.933
			c0,0,1.694,12.712,36.441,15.254c34.745,2.542,76.271,3.39,88.982,5.933c3.307,0.661,7.42,1.322,11.885,1.938l-0.02,0.604
			c0,0,16.949,2.542,27.966,2.542c1.248,0,2.678-0.034,4.237-0.096c1.56,0.062,2.989,0.096,4.238,0.096
			c11.017,0,27.966-2.542,27.966-2.542l-0.021-0.604c4.465-0.616,8.578-1.277,11.885-1.938c12.712-2.543,54.237-3.391,88.983-5.933
			s36.44-15.254,36.44-15.254v-5.933c0,0,1.695-7.627,1.695-11.017c0-3.391-3.39-6.78-3.39-6.78s0-19.491-2.543-45.763
			c-2.542-26.271-12.712-87.289-16.949-110.169c-4.237-22.882,0.848-77.12,5.085-98.306c4.237-21.188,10.17-89.83,9.322-100.847
			c-0.729-9.478,2.93-30.857,3.967-36.65c-0.021-3.889,0.109-10.031,0.973-14.344c1.353-6.765,11.726-64.042,13.98-74.866
			s12.177-47.355,13.981-57.277c1.272-7.002,1.646-17.142,1.757-22.507C498.564,141.599,497.949,141.152,497.949,141.152"/>
     </g>
        <g id="SLEEVES">
       <g id="Right_Arm">
		<path clip-path="url(#SVGID_6_)" fill="#004D86" d="M135.179,308.406c0-0.009,0-0.018,0-0.026
			c-0.008-0.495-0.02-1.005-0.035-1.525c-0.001-0.045-0.003-0.09-0.004-0.135c-0.015-0.5-0.033-1.008-0.056-1.522
			c-0.002-0.045-0.004-0.09-0.006-0.135c-0.024-0.542-0.053-1.088-0.088-1.635c0-0.008-0.001-0.016-0.001-0.023
			c-0.036-0.553-0.077-1.106-0.124-1.653c-0.003-0.037-0.006-0.075-0.01-0.112c-0.045-0.513-0.095-1.021-0.152-1.52
			c-0.006-0.052-0.012-0.105-0.018-0.158c-0.057-0.493-0.121-0.975-0.191-1.444c-0.006-0.042-0.012-0.085-0.019-0.127
			c-0.076-0.502-0.16-0.989-0.253-1.453c-1.353-6.765-11.726-64.042-13.981-74.866c-2.254-10.824-12.177-47.355-13.98-57.277
			c-0.071-0.387-0.138-0.786-0.203-1.19c-0.018-0.116-0.036-0.232-0.054-0.348c-0.05-0.321-0.098-0.646-0.144-0.976
			c-0.014-0.1-0.029-0.199-0.043-0.301c-0.058-0.417-0.113-0.841-0.165-1.269c-0.013-0.098-0.024-0.198-0.035-0.297
			c-0.042-0.345-0.082-0.694-0.12-1.045c-0.015-0.133-0.029-0.266-0.044-0.4c-0.042-0.396-0.082-0.793-0.12-1.194
			c-0.005-0.049-0.01-0.098-0.015-0.148c-0.042-0.445-0.082-0.892-0.12-1.34c-0.012-0.136-0.023-0.272-0.034-0.408
			c-0.028-0.344-0.056-0.687-0.082-1.031c-0.009-0.121-0.019-0.241-0.028-0.362c-0.033-0.449-0.064-0.895-0.094-1.341
			c-0.006-0.085-0.01-0.169-0.016-0.255c-0.024-0.368-0.047-0.734-0.069-1.098c-0.008-0.136-0.016-0.27-0.023-0.405
			c-0.023-0.383-0.043-0.763-0.063-1.14c-0.003-0.055-0.006-0.112-0.009-0.168c-0.022-0.435-0.043-0.862-0.062-1.285
			c-0.005-0.107-0.01-0.211-0.015-0.316c-0.015-0.346-0.029-0.686-0.043-1.021c-0.003-0.082-0.007-0.165-0.01-0.246
			c-0.016-0.416-0.032-0.824-0.045-1.22c-0.001-0.022-0.002-0.043-0.002-0.065c-0.013-0.38-0.025-0.747-0.036-1.105
			c-0.002-0.062-0.004-0.124-0.005-0.186c-0.023-0.766-0.041-1.48-0.055-2.129v-0.005c-2.995,2.064-8.831,5.906-12.49,7.126
			c-5.085,1.695-33.898,23.729-42.373,53.39C41.17,232.677,39.475,305.56,39.475,305.56l-2.543,12.712l-2.542,7.627
			c0,0,29.661,7.627,55.085,9.322c25.424,1.695,41.525,1.695,41.525,1.695s1.695-1.695,0.848-6.78
			c-0.848-5.084-1.695-6.779-0.848-9.322c0.792-2.376,3.805-9.934,4.195-10.909C135.192,309.425,135.187,308.923,135.179,308.406"/>
        </g>
       <g id="Left_Arm"> 
		<path clip-path="url(#SVGID_6_)" fill="#004D86" d="M567.44,318.271l-2.542-12.711c0,0-1.695-72.882-10.17-102.543
			s-37.288-51.695-42.373-53.39c-3.784-1.261-9.91-5.336-12.799-7.339c-0.11,5.365-0.484,15.505-1.757,22.507
			c-1.805,9.922-11.727,46.453-13.981,57.277c-2.255,10.824-12.628,68.101-13.98,74.866c-0.863,4.313-0.992,10.456-0.973,14.344
			c0.169-0.941,0.271-1.486,0.271-1.486s3.39,8.475,4.237,11.017c0.848,2.543,0,4.238-0.848,9.323
			c-0.848,5.084,0.848,6.779,0.848,6.779s16.102,0,41.525-1.695c25.424-1.695,55.085-9.322,55.085-9.322L567.44,318.271z"/>
          </g>
      </g>
       </g>
	</g>
	<g clip-path="url(#SVGID_2_)">
		<defs>
			<rect id="SVGID_5_" width="612" height="792"/>
		</defs>
		<clipPath id="SVGID_6_">
			<use xlink:href="#SVGID_5_"  overflow="visible"/>
		</clipPath>
		<path clip-path="url(#SVGID_6_)" fill="#FDBB2D" d="M489.606,264.992c-0.006,0.027-0.01,0.043-0.01,0.043
			S489.602,265.016,489.606,264.992"/>

	</g>
	<g id="COLLAR" clip-path="url(#SVGID_2_)">
		<defs>
			<rect id="SVGID_7_" width="612" height="792"/>
		</defs>
		<clipPath id="SVGID_8_">
			<use xlink:href="#SVGID_7_"  overflow="visible"/>
		</clipPath>
		<path clip-path="url(#SVGID_8_)" fill="#BF2A43" d="M306.293,120.5c57.082-0.565,81.016-22.208,86.739-28.449
			c-6.75-5.064-11.317-8.97-12.88-10.22c-4.237-3.39-4.237-5.932-8.475-8.475c-4.237-2.542-5.932-10.169-14.406-14.406
			c-5.395-2.697-29.667-3.678-46.604-4.034l-0.007-0.204c0,0-3.331,0-8.475,0.063c-5.144-0.063-8.475-0.063-8.475-0.063
			l-0.006,0.204c-16.937,0.356-41.21,1.337-46.604,4.034c-8.475,4.237-10.169,11.864-14.407,14.406
			c-4.237,2.543-4.237,5.085-8.474,8.475c-1.244,0.996-4.401,3.68-9.038,7.286C222.437,96.851,249.693,121.061,306.293,120.5"/>
	</g>
	<g clip-path="url(#SVGID_2_)">
		<defs>
			<rect id="SVGID_9_" width="612" height="792"/>
		</defs>
		<clipPath id="SVGID_10_">
			<use xlink:href="#SVGID_9_"  overflow="visible"/>
		</clipPath>
		<path clip-path="url(#SVGID_10_)" d="M104.875,151.792c0.021,0.364,0.044,0.73,0.068,1.099
			C104.919,152.522,104.896,152.156,104.875,151.792"/>
		<path clip-path="url(#SVGID_10_)" d="M104.789,150.248c0.02,0.376,0.041,0.757,0.063,1.14
			C104.83,151.005,104.809,150.624,104.789,150.248"/>
		<path clip-path="url(#SVGID_10_)" d="M135.178,308.38c0,0.009,0,0.018,0,0.026C135.178,308.398,135.178,308.389,135.178,308.38"/>
		<path clip-path="url(#SVGID_10_)" d="M104.717,148.794c0.02,0.423,0.04,0.851,0.062,1.286
			C104.757,149.645,104.737,149.216,104.717,148.794"/>
		<path clip-path="url(#SVGID_10_)" d="M104.567,144.821c0.011,0.358,0.022,0.725,0.036,1.104
			C104.589,145.547,104.578,145.179,104.567,144.821"/>
		<path clip-path="url(#SVGID_10_)" d="M104.66,147.457c0.014,0.335,0.028,0.675,0.043,1.021
			C104.688,148.133,104.674,147.792,104.66,147.457"/>
		<path clip-path="url(#SVGID_10_)" d="M104.507,142.506c0.014,0.649,0.032,1.363,0.055,2.129
			C104.539,143.87,104.521,143.154,104.507,142.506"/>
		<path clip-path="url(#SVGID_10_)" d="M135.194,309.904"/>
		<path clip-path="url(#SVGID_10_)" d="M104.604,145.992c0.014,0.396,0.029,0.804,0.045,1.219
			C104.633,146.796,104.619,146.388,104.604,145.992"/>
		<path clip-path="url(#SVGID_10_)" d="M104.96,153.146c0.029,0.445,0.061,0.892,0.094,1.34
			C105.021,154.038,104.989,153.59,104.96,153.146"/>
		<path clip-path="url(#SVGID_10_)" d="M105.497,159.369c0.039,0.352,0.079,0.7,0.12,1.045
			C105.576,160.069,105.536,159.72,105.497,159.369"/>
		<path clip-path="url(#SVGID_10_)" d="M105.859,162.282c0.046,0.33,0.095,0.655,0.145,0.975
			C105.955,162.937,105.905,162.612,105.859,162.282"/>
		<path clip-path="url(#SVGID_10_)" d="M105.651,160.711c0.053,0.429,0.107,0.852,0.165,1.27
			C105.759,161.563,105.705,161.14,105.651,160.711"/>
		<path clip-path="url(#SVGID_10_)" d="M134.855,301.641c0.003,0.037,0.007,0.074,0.01,0.111
			C134.862,301.715,134.858,301.678,134.855,301.641"/>
		<path clip-path="url(#SVGID_10_)" d="M134.685,299.962c0.006,0.053,0.012,0.105,0.019,0.158
			C134.697,300.067,134.69,300.016,134.685,299.962"/>
		<path clip-path="url(#SVGID_10_)" d="M106.058,163.605c0.065,0.404,0.132,0.804,0.202,1.19
			C106.19,164.409,106.123,164.009,106.058,163.605"/>
		<path clip-path="url(#SVGID_10_)" d="M105.333,157.775c0.039,0.4,0.079,0.798,0.121,1.194
			C105.412,158.573,105.372,158.175,105.333,157.775"/>
		<path clip-path="url(#SVGID_10_)" d="M105.082,154.849c0.026,0.344,0.053,0.687,0.082,1.03
			C105.135,155.536,105.108,155.191,105.082,154.849"/>
		<path clip-path="url(#SVGID_10_)" d="M134.475,298.392c0.006,0.042,0.012,0.084,0.019,0.126
			C134.487,298.476,134.481,298.434,134.475,298.392"/>
		<path clip-path="url(#SVGID_10_)" d="M135.078,305.063c0.002,0.045,0.004,0.09,0.006,0.135
			C135.082,305.153,135.08,305.108,135.078,305.063"/>
		<path clip-path="url(#SVGID_10_)" d="M105.198,156.287c0.038,0.448,0.078,0.895,0.12,1.34
			C105.276,157.182,105.236,156.735,105.198,156.287"/>
		<path clip-path="url(#SVGID_10_)" d="M134.988,303.405c0,0.008,0.001,0.016,0.001,0.023
			C134.989,303.421,134.988,303.413,134.988,303.405"/>
		<path clip-path="url(#SVGID_10_)" d="M135.14,306.72c0.001,0.045,0.003,0.09,0.004,0.135
			C135.143,306.81,135.141,306.765,135.14,306.72"/>
		<path clip-path="url(#SVGID_10_)" d="M134.988,303.405c-0.035-0.553-0.076-1.105-0.124-1.653
			C134.912,302.3,134.953,302.852,134.988,303.405"/>
		<path clip-path="url(#SVGID_10_)" d="M135.194,309.904c-0.002-0.479-0.007-0.98-0.016-1.498
			C135.188,308.924,135.192,309.425,135.194,309.904"/>
		<path clip-path="url(#SVGID_10_)" d="M134.475,298.392c-0.077-0.502-0.16-0.989-0.253-1.454
			C134.315,297.403,134.398,297.89,134.475,298.392"/>
		<path clip-path="url(#SVGID_10_)" d="M135.178,308.38c-0.008-0.495-0.02-1.005-0.034-1.524
			C135.158,307.375,135.17,307.885,135.178,308.38"/>
		<path clip-path="url(#SVGID_10_)" d="M135.078,305.063c-0.024-0.542-0.053-1.088-0.088-1.635
			C135.024,303.976,135.054,304.521,135.078,305.063"/>
		<path clip-path="url(#SVGID_10_)" d="M135.14,306.72c-0.015-0.5-0.033-1.008-0.056-1.521
			C135.106,305.712,135.125,306.22,135.14,306.72"/>
		<path clip-path="url(#SVGID_10_)" d="M134.685,299.962c-0.057-0.493-0.121-0.975-0.191-1.444
			C134.563,298.987,134.627,299.469,134.685,299.962"/>
		<path clip-path="url(#SVGID_10_)" d="M134.855,301.641c-0.045-0.514-0.096-1.021-0.152-1.52
			C134.759,300.62,134.81,301.127,134.855,301.641"/>
		<path clip-path="url(#SVGID_10_)" d="M105.497,159.369c-0.015-0.133-0.029-0.266-0.043-0.4
			C105.468,159.103,105.481,159.236,105.497,159.369"/>
		<path clip-path="url(#SVGID_10_)" d="M104.604,145.992c-0.001-0.022-0.001-0.044-0.002-0.066
			C104.604,145.948,104.604,145.97,104.604,145.992"/>
		<path clip-path="url(#SVGID_10_)" d="M104.66,147.457c-0.003-0.082-0.007-0.165-0.01-0.246
			C104.653,147.292,104.657,147.375,104.66,147.457"/>
		<path clip-path="url(#SVGID_10_)" d="M104.789,150.248c-0.003-0.056-0.006-0.112-0.009-0.168
			C104.783,150.136,104.786,150.191,104.789,150.248"/>
		<path clip-path="url(#SVGID_10_)" d="M104.717,148.794c-0.005-0.106-0.009-0.211-0.014-0.316
			C104.708,148.584,104.712,148.688,104.717,148.794"/>
		<path clip-path="url(#SVGID_10_)" d="M104.507,142.501v0.005V142.501z"/>
		<path clip-path="url(#SVGID_10_)" d="M104.567,144.821c-0.002-0.062-0.004-0.125-0.005-0.186
			C104.563,144.697,104.565,144.759,104.567,144.821"/>
		<path clip-path="url(#SVGID_10_)" d="M106.058,163.605c-0.018-0.115-0.036-0.232-0.054-0.348
			C106.022,163.374,106.04,163.49,106.058,163.605"/>
		<path clip-path="url(#SVGID_10_)" d="M105.333,157.775c-0.005-0.049-0.01-0.099-0.015-0.148
			C105.322,157.676,105.328,157.727,105.333,157.775"/>
		<path clip-path="url(#SVGID_10_)" d="M105.651,160.711c-0.012-0.098-0.023-0.198-0.035-0.296
			C105.628,160.513,105.639,160.613,105.651,160.711"/>
		<path clip-path="url(#SVGID_10_)" d="M105.859,162.282c-0.014-0.101-0.029-0.2-0.043-0.301
			C105.831,162.082,105.845,162.181,105.859,162.282"/>
		<path clip-path="url(#SVGID_10_)" d="M105.082,154.849c-0.009-0.121-0.019-0.242-0.028-0.363
			C105.063,154.606,105.073,154.728,105.082,154.849"/>
		<path clip-path="url(#SVGID_10_)" d="M105.198,156.287c-0.012-0.136-0.023-0.272-0.034-0.408
			C105.175,156.015,105.186,156.151,105.198,156.287"/>
		<path clip-path="url(#SVGID_10_)" d="M104.96,153.146c-0.006-0.085-0.011-0.169-0.017-0.255
			C104.949,152.977,104.954,153.061,104.96,153.146"/>
		<path clip-path="url(#SVGID_10_)" d="M104.875,151.792c-0.008-0.135-0.016-0.27-0.023-0.404
			C104.859,151.522,104.867,151.657,104.875,151.792"/>
		<path clip-path="url(#SVGID_10_)" fill="#FFFFFF" d="M306.334,93c35,0.333,61.666-17.667,61.332-20.667
			c-0.332-3-6.072-8.571-9.739-11.237c-3.667-2.667-21.1-4.448-56.1-4.256c-35.401,0.193-47.395,1.547-52.231,2.708
			c-4.837,1.16-12.801,9.994-11.801,11.994S271.539,92.668,306.334,93"/>
		<g opacity="0.35" clip-path="url(#SVGID_10_)">
			<g>
				<defs>
					<rect id="SVGID_11_" x="237.709" y="56.826" width="129.961" height="36.179"/>
				</defs>
				<clipPath id="SVGID_12_">
					<use xlink:href="#SVGID_11_"  overflow="visible"/>
				</clipPath>
				<g clip-path="url(#SVGID_12_)">
					<defs>
						<path id="SVGID_13_" d="M306.333,93c35,0.333,61.667-17.667,61.334-20.667c-0.334-3-6.073-8.571-9.74-11.237
							c-3.667-2.667-21.1-4.448-56.1-4.256c-35.402,0.193-47.396,1.547-52.232,2.708c-4.836,1.16-12.801,9.994-11.801,11.994
							S271.539,92.668,306.333,93"/>
					</defs>
					<clipPath id="SVGID_14_">
						<use xlink:href="#SVGID_13_"  overflow="visible"/>
					</clipPath>
					
						<radialGradient id="SVGID_15_" cx="0" cy="792" r="1" gradientTransform="matrix(102.1332 0 0 -40.5422 303.5458 32168.2129)" gradientUnits="userSpaceOnUse">
						<stop  offset="0" style="stop-color:#FFFFFF"/>
						<stop  offset="1" style="stop-color:#FFFFFF"/>
					</radialGradient>
					<rect x="236.794" y="56.648" clip-path="url(#SVGID_14_)" fill="url(#SVGID_15_)" width="131.206" height="36.685"/>
				</g>
				<g clip-path="url(#SVGID_12_)">
					<defs>
						<path id="SVGID_16_" d="M306.333,93c35,0.333,61.667-17.667,61.334-20.667c-0.334-3-6.073-8.571-9.74-11.237
							c-3.667-2.667-21.1-4.448-56.1-4.256c-35.402,0.193-47.396,1.547-52.232,2.708c-4.836,1.16-12.801,9.994-11.801,11.994
							S271.539,92.668,306.333,93"/>
					</defs>
					<clipPath id="SVGID_17_">
						<use xlink:href="#SVGID_16_"  overflow="visible"/>
					</clipPath>
					
						<radialGradient id="SVGID_18_" cx="0" cy="792" r="1" gradientTransform="matrix(102.1332 0 0 -40.5422 303.5458 32168.2129)" gradientUnits="userSpaceOnUse">
						<stop  offset="0" style="stop-color:#FFFFFF"/>
						<stop  offset="0.1085" style="stop-color:#EBEBEB"/>
						<stop  offset="0.3308" style="stop-color:#B7B7B7"/>
						<stop  offset="0.6481" style="stop-color:#646464"/>
						<stop  offset="1" style="stop-color:#000000"/>
					</radialGradient>
					<rect x="236.794" y="56.648" clip-path="url(#SVGID_17_)" fill="url(#SVGID_18_)" width="131.206" height="36.685"/>
				</g>
			</g>
		</g>
		<g opacity="0.5" clip-path="url(#SVGID_10_)">
			<g>
				<defs>
					<rect id="SVGID_19_" x="55.062" y="64.08" width="499.672" height="676.005"/>
				</defs>
				<clipPath id="SVGID_20_">
					<use xlink:href="#SVGID_19_"  overflow="visible"/>
				</clipPath>
				<g opacity="0.1" clip-path="url(#SVGID_20_)">
					<g>
						<defs>
							<rect id="SVGID_21_" x="348.338" y="64.08" width="151.219" height="669.249"/>
						</defs>
						<clipPath id="SVGID_22_">
							<use xlink:href="#SVGID_21_"  overflow="visible"/>
						</clipPath>
						<path clip-path="url(#SVGID_22_)" fill="#897F76" d="M469.838,296.938c1.353-6.765,11.726-64.042,13.98-74.866
							c2.255-10.824,12.177-47.355,13.981-57.277c1.272-7.002,1.646-17.142,1.757-22.507c-0.992-0.688-1.607-1.136-1.607-1.136
							s-22.883-7.627-55.085-20.339c-32.203-12.711-58.475-35.593-62.712-38.982c-4.237-3.391-4.237-5.933-8.475-8.475
							c-2.805-1.683-4.506-5.594-7.788-9.275l-1.724,0.602c2.751,2.63,5.282,5.688,5.501,7.651
							c0.176,1.584-7.188,7.354-19.329,12.397c0.982,2.037,1.691,3.961,1.806,5.441c0.437,5.683,0,5.245,0,13.552
							c0,8.306,3.06,16.611,8.306,28.852c5.246,12.24,10.929,5.683,14.863,23.17c3.935,17.486-19.672,14.426-19.672,14.426
							s21.421,3.06,45.027,1.748c23.606-1.311,18.36,0,34.973-1.748c16.612-1.749,16.612-4.372,41.967,2.623
							c25.355,6.994,6.12,22.732,4.372,40.655c-1.749,17.924-27.104,15.301-34.536,24.918c-7.432,9.618-2.622,84.372-1.748,92.678
							c0.874,8.306-17.049,22.732-17.049,22.732s-4.81,13.99-7.869,24.481c-3.061,10.492,4.809,32.351,4.371,55.957
							c-0.437,23.606-21.857,54.645-29.289,71.693c-7.432,17.05-1.749,33.661,10.491,70.821c12.241,37.157,4.81,4.808,13.989,16.174
							c9.181,11.367,4.809,6.994,9.617,23.169c4.81,16.175,6.558,40.657,6.558,40.657s1.749,25.354,7.869,48.523
							c6.12,23.169,3.497,12.678,19.235,26.229l4.984,1.846c4.652-3.46,5.074-6.583,5.074-6.583v-5.934
							c0,0,1.695-7.626,1.695-11.016c0-3.391-3.389-6.78-3.389-6.78s0-19.491-2.544-45.763
							c-2.542-26.271-12.712-87.288-16.949-110.169c-4.237-22.882,0.848-77.119,5.085-98.306s10.17-89.83,9.322-100.847
							c-0.729-9.477,2.93-30.856,3.967-36.65C468.846,307.394,468.975,301.251,469.838,296.938"/>
					</g>
				</g>
				<g opacity="0.1" clip-path="url(#SVGID_20_)">
					<g>
						<defs>
							<rect id="SVGID_23_" x="104.507" y="67.366" width="170.559" height="672.719"/>
						</defs>
						<clipPath id="SVGID_24_">
							<use xlink:href="#SVGID_23_"  overflow="visible"/>
						</clipPath>
						<path clip-path="url(#SVGID_24_)" fill="#897F76" d="M272.319,87.434c-19.573-5.912-33.869-14.582-34.525-15.892
							c-0.32-0.641,0.286-1.985,1.407-3.551c-0.46-0.221-0.903-0.432-1.307-0.625c-1.806,2.526-3.231,4.809-5.2,5.99
							c-4.237,2.542-4.237,5.084-8.474,8.474c-4.237,3.39-30.508,26.271-62.712,38.983c-32.203,12.712-55.085,20.339-55.085,20.339
							s-0.748,0.542-1.916,1.347c0.115,5.418,0.497,15.386,1.753,22.296c1.804,9.922,11.726,46.453,13.981,57.277
							c2.255,10.824,12.628,68.101,13.981,74.866c0.766,3.831,0.953,9.109,0.972,12.966c0.027-0.068,0.043-0.108,0.043-0.108
							s5.085,27.119,4.237,38.136c-0.847,11.017,5.085,79.661,9.323,100.847c4.236,21.187,9.321,75.424,5.084,98.306
							c-4.237,22.881-14.407,83.898-16.949,110.169c-2.543,26.271-2.543,45.764-2.543,45.764S131,706.406,131,709.797
							c0,3.39,1.694,11.017,1.694,11.017v5.933c0,0,1.205,8.96,22.157,13.339c1.791-10.184,4.452-28.093,2.942-37.454
							c-2.185-13.552,1.749-10.929,7.869-20.109c6.12-9.181,4.809-39.781,5.683-76.504c0.874-36.721,69.946-18.797,69.946-18.797
							s5.682-7.869,4.808-18.798s-35.409-59.017-41.967-69.945c-6.557-10.929,3.498-9.617,3.498-9.617s-9.618-4.372-13.553-25.792
							c-3.934-21.421,6.558-47.65,16.175-70.383c9.618-22.732,37.596-46.338,37.596-46.338s-30.164,4.808-59.016-8.307
							c-28.853-13.114-30.602-35.409-34.536-104.043c-3.935-68.634,2.623-82.186,18.36-83.061
							c15.738-0.874,71.257,17.487,79.563,20.984c0,0,5.246-10.929,3.497-17.486c-1.748-6.558,3.498-17.049,9.618-28.416
							c6.12-11.366,6.12-6.12,8.306-7.868c2.186-1.749,0.437-11.803-0.874-14.863c-1.312-3.061-0.437-3.935,2.186-10.93
							C275.432,91.075,274.368,89.367,272.319,87.434"/>
					</g>
				</g>
				<g opacity="0.12" clip-path="url(#SVGID_20_)">
					<g>
						<defs>
							<rect id="SVGID_25_" x="55.062" y="198.15" width="78.251" height="112.35"/>
						</defs>
						<clipPath id="SVGID_26_">
							<use xlink:href="#SVGID_25_"  overflow="visible"/>
						</clipPath>
						<path clip-path="url(#SVGID_26_)" fill="#897F76" d="M114.515,269.844c-2.186-3.497-52.896-71.694-52.896-71.694
							s0.875,6.557,4.372,13.989c3.497,7.432,38.907,52.022,38.907,52.022s-31.913-34.973-33.661-37.158
							c-1.749-2.186-16.175-13.553-16.175-11.804s10.929,13.552,19.672,21.858c8.743,8.306,26.666,26.23,34.972,38.907
							c8.307,12.678,23.607,34.536,23.607,34.536s-3.06-12.678-5.246-17.924C125.88,287.33,116.701,273.342,114.515,269.844"/>
					</g>
				</g>
				<g opacity="0.12" clip-path="url(#SVGID_20_)">
					<g>
						<defs>
							<rect id="SVGID_27_" x="65.116" y="187.658" width="34.098" height="39.344"/>
						</defs>
						<clipPath id="SVGID_28_">
							<use xlink:href="#SVGID_27_"  overflow="visible"/>
						</clipPath>
						<path clip-path="url(#SVGID_28_)" fill="#897F76" d="M79.979,209.079c-3.06-4.372-14.863-21.42-14.863-21.42
							s4.808,17.923,14.426,27.103c9.617,9.181,19.672,12.241,19.672,12.241S83.04,213.451,79.979,209.079"/>
					</g>
				</g>
				<g opacity="0.12" clip-path="url(#SVGID_20_)">
					<g>
						<defs>
							<rect id="SVGID_29_" x="475.171" y="211.265" width="79.563" height="80"/>
						</defs>
						<clipPath id="SVGID_30_">
							<use xlink:href="#SVGID_29_"  overflow="visible"/>
						</clipPath>
						<path clip-path="url(#SVGID_30_)" fill="#897F76" d="M552.984,211.265c0,0-5.683,11.366-10.491,20.109
							c-4.809,8.744-25.355,25.355-36.284,31.475c-10.929,6.121-31.038,28.416-31.038,28.416s9.18-1.749,14.863-6.12
							c5.683-4.372,41.967-18.798,55.956-38.907C559.979,226.127,552.984,211.265,552.984,211.265"/>
					</g>
				</g>
				<g opacity="0.12" clip-path="url(#SVGID_20_)">
					<g>
						<defs>
							<rect id="SVGID_31_" x="482.602" y="277.713" width="63.389" height="26.067"/>
						</defs>
						<clipPath id="SVGID_32_">
							<use xlink:href="#SVGID_31_"  overflow="visible"/>
						</clipPath>
						<path clip-path="url(#SVGID_32_)" fill="#897F76" d="M518.012,294.762c-12.24,3.498-35.409,7.869-35.409,7.869
							s16.611,4.372,37.158-3.934c20.547-8.307,26.229-20.984,26.229-20.984S530.253,291.265,518.012,294.762"/>
					</g>
				</g>
				<g opacity="0.12" clip-path="url(#SVGID_20_)">
					<g>
						<defs>
							<rect id="SVGID_33_" x="489.607" y="219.454" width="46.766" height="45.538"/>
						</defs>
						<clipPath id="SVGID_34_">
							<use xlink:href="#SVGID_33_"  overflow="visible"/>
						</clipPath>
						<path clip-path="url(#SVGID_34_)" fill="#897F76" d="M519.323,225.254c-8.306,9.617-10.929,13.114-18.36,17.486
							c-7.236,4.257-11.155,21.355-11.356,22.252c0.176-0.776,2.952-12.359,12.668-17.006c10.055-4.809,17.049-4.372,21.858-12.678
							c4.809-8.305,12.24-14.426,12.24-14.426S527.63,215.636,519.323,225.254"/>
					</g>
				</g>
			</g>
		</g>
	</g>
	<g clip-path="url(#SVGID_2_)">
		<defs>
			<rect id="SVGID_35_" width="612" height="792"/>
		</defs>
		<clipPath id="SVGID_36_">
			<use xlink:href="#SVGID_35_"  overflow="visible"/>
		</clipPath>
		<g opacity="0.35" clip-path="url(#SVGID_36_)">
			<g>
				<defs>
					<rect id="SVGID_37_" x="217.919" y="86.721" width="172.831" height="30.79"/>
				</defs>
				<clipPath id="SVGID_38_">
					<use xlink:href="#SVGID_37_"  overflow="visible"/>
				</clipPath>
				<path clip-path="url(#SVGID_38_)" fill="none" stroke="#00AB5D" stroke-miterlimit="10" stroke-dasharray="0.859,0.859" d="
					M390.333,90.333c0,0-17.283,26.006-84,26.667c-67.333,0.666-88-30-88-30"/>
			</g>
		</g>
		<g opacity="0.35" clip-path="url(#SVGID_36_)">
			<g>
				<defs>
					<rect id="SVGID_39_" x="38.477" y="309.084" width="92.524" height="12.23"/>
				</defs>
				<clipPath id="SVGID_40_">
					<use xlink:href="#SVGID_39_"  overflow="visible"/>
				</clipPath>
				<path clip-path="url(#SVGID_40_)" fill="none" stroke="#00AB5D" stroke-miterlimit="10" stroke-dasharray="0.859,0.859" d="
					M38.61,309.566c0,0,21.197,5.863,47.806,8.569S131,320.814,131,320.814"/>
			</g>
		</g>
		<g opacity="0.35" clip-path="url(#SVGID_36_)">
			<g>
				<defs>
					<rect id="SVGID_41_" x="38.477" y="313.087" width="92.524" height="12.23"/>
				</defs>
				<clipPath id="SVGID_42_">
					<use xlink:href="#SVGID_41_"  overflow="visible"/>
				</clipPath>
				<path clip-path="url(#SVGID_42_)" fill="none" stroke="#00AB5D" stroke-miterlimit="10" stroke-dasharray="0.859,0.859" d="
					M38.61,313.569c0,0,21.197,5.863,47.806,8.569S131,324.817,131,324.817"/>
			</g>
		</g>
		<g opacity="0.35" clip-path="url(#SVGID_36_)">
			<g>
				<defs>
					<rect id="SVGID_43_" x="473.957" y="309.084" width="92.524" height="12.23"/>
				</defs>
				<clipPath id="SVGID_44_">
					<use xlink:href="#SVGID_43_"  overflow="visible"/>
				</clipPath>
				<path clip-path="url(#SVGID_44_)" fill="none" stroke="#00AB5D" stroke-miterlimit="10" stroke-dasharray="0.859,0.859" d="
					M566.348,309.566c0,0-21.196,5.863-47.806,8.569c-26.608,2.706-44.584,2.679-44.584,2.679"/>
			</g>
		</g>
		<g opacity="0.35" clip-path="url(#SVGID_36_)">
			<g>
				<defs>
					<rect id="SVGID_45_" x="473.957" y="313.087" width="92.524" height="12.23"/>
				</defs>
				<clipPath id="SVGID_46_">
					<use xlink:href="#SVGID_45_"  overflow="visible"/>
				</clipPath>
				<path clip-path="url(#SVGID_46_)" fill="none" stroke="#00AB5D" stroke-miterlimit="10" stroke-dasharray="0.859,0.859" d="
					M566.348,313.569c0,0-21.196,5.863-47.806,8.569c-26.608,2.706-44.584,2.679-44.584,2.679"/>
			</g>
		</g>
		<g opacity="0.35" clip-path="url(#SVGID_36_)">
			<g>
				<defs>
					<rect id="SVGID_47_" x="131.959" y="702.882" width="338.505" height="33.417"/>
				</defs>
				<clipPath id="SVGID_48_">
					<use xlink:href="#SVGID_47_"  overflow="visible"/>
				</clipPath>
				<path clip-path="url(#SVGID_48_)" fill="none" stroke="#00AB5D" stroke-miterlimit="10" stroke-dasharray="0.859,0.859" d="
					M132.418,705.092c0,0,7.216,16.687,46.904,22.1c39.688,5.411,81.522,9.025,126.28,8.568
					c44.198-0.451,131.644-14.74,141.163-16.687c19.844-4.06,23.219-16.057,23.219-16.057"/>
			</g>
		</g>
		<g opacity="0.35" clip-path="url(#SVGID_36_)">
			<g>
				<defs>
					<rect id="SVGID_49_" x="130.85" y="706.129" width="341.718" height="35.174"/>
				</defs>
				<clipPath id="SVGID_50_">
					<use xlink:href="#SVGID_49_"  overflow="visible"/>
				</clipPath>
				<path clip-path="url(#SVGID_50_)" fill="none" stroke="#00AB5D" stroke-miterlimit="10" stroke-dasharray="0.859,0.859" d="
					M131.296,710.275c0,0,8.338,16.508,48.026,21.92s81.522,9.025,126.28,8.568c44.198-0.451,131.644-14.74,141.163-16.687
					c19.843-4.06,25.34-17.762,25.34-17.762"/>
			</g>
		</g>
		<g opacity="0.35" clip-path="url(#SVGID_36_)">
			<g>
				<defs>
					<rect id="SVGID_51_" x="468.363" y="142.286" width="31.693" height="172.712"/>
				</defs>
				<clipPath id="SVGID_52_">
					<use xlink:href="#SVGID_51_"  overflow="visible"/>
				</clipPath>
				<path clip-path="url(#SVGID_52_)" fill="none" stroke="#00AB5D" stroke-miterlimit="10" d="M499.557,142.288
					c0,0,0.047,12.585-1.757,22.507c-1.806,9.922-11.727,46.453-13.981,57.277c-2.255,10.824-12.628,68.101-13.98,74.866
					c-1.354,6.765-0.902,18.04-0.902,18.04"/>
			</g>
		</g>
		<g opacity="0.35" clip-path="url(#SVGID_36_)">
			<g>
				<defs>
					<rect id="SVGID_53_" x="104.007" y="142.499" width="31.689" height="172.499"/>
				</defs>
				<clipPath id="SVGID_54_">
					<use xlink:href="#SVGID_53_"  overflow="visible"/>
				</clipPath>
				<path clip-path="url(#SVGID_54_)" fill="none" stroke="#00AB5D" stroke-miterlimit="10" d="M104.507,142.501
					c0,0-0.051,12.373,1.753,22.294c1.804,9.922,11.726,46.453,13.981,57.277c2.255,10.824,12.628,68.101,13.981,74.866
					s0.902,18.04,0.902,18.04"/>
			</g>
		</g>
		<g opacity="0.35" clip-path="url(#SVGID_36_)">
			<g>
				<defs>
					<rect id="SVGID_55_" x="215.612" y="88.855" width="177.826" height="32.155"/>
				</defs>
				<clipPath id="SVGID_56_">
					<use xlink:href="#SVGID_55_"  overflow="visible"/>
				</clipPath>
				<path clip-path="url(#SVGID_56_)" fill="none" stroke="#00AB5D" stroke-miterlimit="10" stroke-dasharray="0.859,0.859" d="
					M393.032,92.051c0,0-20.023,27.789-86.74,28.449c-67.333,0.667-90.274-31.353-90.274-31.353"/>
			</g>
		</g>
	</g>
</g>
  <g id="CUSTOM"></g>
</svg>
