<?xml version="1.0" standalone="no"?>
<!DOCTYPE svg PUBLIC "-//W3C//DTD SVG 1.1//EN" "http://www.w3.org/Graphics/SVG/1.1/DTD/svg11.dtd" >
<svg xmlns="http://www.w3.org/2000/svg" xmlns:xlink="http://www.w3.org/1999/xlink" version="1.1">
<metadata></metadata>
<defs>
<font id="eight_track_program_4regular" horiz-adv-x="915" >
<font-face units-per-em="2048" ascent="1638" descent="-410" />
<missing-glyph horiz-adv-x="491" />
<glyph horiz-adv-x="0" />
<glyph unicode="&#xd;" horiz-adv-x="491" />
<glyph unicode=" "  horiz-adv-x="491" />
<glyph unicode="&#x09;" horiz-adv-x="491" />
<glyph unicode="&#xa0;" horiz-adv-x="491" />
<glyph unicode="!" horiz-adv-x="421" d="M-131 -102q0 2 10 14l172 231l-114 222q-6 18 -7 18q4 6 25 0l250 -70l114 111h-276l74 1038h364l-65 -948q4 4 8 2q6 -2 2 -20l-8 -267l227 -118q16 -10 14 -15q-8 -4 -18 -8l-248 -80l-24 -117h131v-301h-520v301h219l-35 54l-273 -54q-18 -4 -20 -2q-6 2 -2 9z M-31 -45l224 53l108 -184l45 227l195 58l-181 86l13 213l-154 -156l-194 59l92 -168zM72 25l94 114l-53 103v2l112 -45l99 100l-9 -135l117 -45l-2 -2l-121 -35l-26 -141l-2 -2l-66 118l-141 -37z" />
<glyph unicode="&#x22;" horiz-adv-x="667" d="M-20 -109h733v-301h-733v301zM39 973l33 489h245l-32 -489h-246zM403 973l33 489h246l-33 -489h-246z" />
<glyph unicode="#" horiz-adv-x="1224" d="M59 88v1190q0 217 131 330q106 92 265 92q125 0 219 -64q111 -74 147 -219q156 0 260 -94q125 -113 125 -328v-389q0 -37 -26.5 -62.5t-61.5 -25.5h-196v-430q0 -37 -26 -62.5t-60 -25.5h-691q-35 0 -60.5 25.5t-25.5 62.5zM145 88h691v518h282v389q0 176 -94 265 q-78 72 -201 71q-39 0 -75 -8q-12 152 -105 227q-76 63 -188 64q-125 0 -207 -72q-102 -88 -103 -264v-1190zM197 139v244h368v557h-149v-514h-219v852q0 154 84 225q68 59 174 60q244 0 243 -285v-25q55 27 125 27q244 0 244 -285v-155h-211v221q0 61 -39 61q-33 0 -33 -55 v-293h283v-117h-283v-518h-587zM213 584l43 -43l-8 -60l53 27l55 -27l-10 60l43 43l-59 10l-29 53l-27 -53zM213 809l43 -43l-8 -59l53 26l55 -26l-10 59l43 43l-59 10l-29 53l-27 -53zM213 1034l43 -43l-8 -59l53 26l55 -26l-10 59l43 43l-59 10l-29 54l-27 -54zM213 1260 l43 -43l-8 -60l53 27l55 -27l-10 60l43 43l-59 10l-29 53l-27 -53zM236 221l24 -26l-4 -35l31 16l30 -16l-4 35l25 26l-35 4l-16 33l-17 -33zM236 324l24 -27l-4 -35l31 17l30 -17l-4 35l25 27l-35 4l-16 32l-17 -32zM279 1446l30 -29l-8 -41l39 19l37 -19l-6 41l28 29 l-41 8l-18 37l-21 -37zM362 291l44 -43l-9 -60l54 27l55 -27l-10 60l43 43l-60 10l-28 53l-27 -53zM412 1516l20 -21l-4 -27l25 13l24 -13l-4 27l21 21l-29 4l-12 24l-13 -24zM416 1057h153q5 34 15 65h-97v224q0 59 -38 59q-33 0 -33 -55v-293zM432 1012l21 -21l-4 -26 l24 12l25 -12l-4 26l20 21l-29 4l-12 24l-12 -24zM500 1260l43 -43l-8 -60l53 27l55 -27l-10 60l43 43l-60 10l-28 53l-27 -53zM504 1446l31 -29l-9 -41l39 19l37 -19l-6 41l29 29l-41 8l-19 37l-20 -37zM588 291l43 -43l-8 -60l53 27l55 -27l-10 60l43 43l-59 10l-29 53 l-27 -53zM588 516l43 -43l-8 -59l53 26l55 -26l-10 59l43 43l-59 10l-29 54l-27 -54zM588 741l43 -43l-8 -59l53 27l55 -27l-10 59l43 43l-59 11l-29 53l-27 -53zM588 967l43 -43l-8 -60l53 27l55 -27l-10 60l43 43l-59 10l-29 53l-27 -53zM653 1153l31 -29l-8 -41l39 19 l37 -19l-7 41l29 29l-41 8l-18 37l-21 -37zM745 1673l43 2l23 35l16 -39l41 -10l-32 -29l2 -41l-37 23l-39 -15l10 41zM786 1223l21 -21l-4 -26l24 12l25 -12l-4 26l20 21l-28 4l-13 24l-12 -24zM823 725l21 -20l-4 -27l24 12l25 -12l-4 27l20 20l-28 4l-13 25l-12 -25z M874 967l44 -43l-9 -60l54 27l55 -27l-10 60l43 43l-60 10l-28 53l-27 -53zM879 1153l30 -29l-8 -41l39 19l37 -19l-6 41l28 29l-41 8l-18 37l-20 -37zM913 1487l62 76l-23 94l90 -37l82 51l-8 -96l76 -64l-94 -22l-37 -90l-51 82zM946 725l21 -20l-4 -27l24 12l25 -12 l-4 27l20 20l-29 4l-12 25l-12 -25z" />
<glyph unicode="$" horiz-adv-x="872" d="M-20 -109h327l-10 136l-188 61q-8 2 -17 8q0 2 14 13l195 94l2 12q-287 33 -266 320l12 182h338l-14 -215q-6 -63 53 -64q66 0 72 68l8 135q6 63 -33 79.5t-104 35.5q-156 12 -219 67q-78 66 -68 221q14 193 121 281l-6 -2q-12 -2 -15 -2q-6 2 -2 8l6 10l140 187l-93 176 l-4 14q2 4 19 0l201 -55l159 151q10 12 15 11q6 -2 2 -17l-7 -213l183 -94q14 -10 12 -12l-16 -8l-197 -62l-2 -12q297 -41 281 -293l-19 -235h-338l19 235q4 70 -52 70q-59 0 -63 -70l-16 -233q2 -33 77 -31q150 0 248 -60q129 -78 117 -237q-14 -219 -186 -295l-80 -121 l112 -186q2 -4 7 -10q2 -6 -5 -9l-14 2l-213 43l-65 -84h510v-301h-938v301zM188 106l152 -47l10 -182l109 148l170 -43l-97 151l93 135l-162 -49l-105 125l-14 -170zM260 1372l178 43l86 -147l37 182l156 47l-144 68l11 170l-125 -125l-154 49l72 -135zM279 113v2l98 37 l8 106l68 -80l94 37l2 -2l-55 -82l61 -92v-2l-111 29l-65 -95h-2l-4 115zM342 1427v3l76 92l-43 82v2l90 -37l80 80l-8 -107l92 -37v-2l-97 -26l-20 -115h-2l-53 94z" />
<glyph unicode="%" horiz-adv-x="1415" d="M-20 -109h1478v-301h-1478v301zM39 846q0 2 10 14l172 232l-112 221q-8 18 -7 18q2 6 23 0l252 -69l196 190q16 14 21 12q6 -2 2 -20l-6 -266l151 -80l177 395h286l-452 -1018l151 74l29 266q-2 18 6 21q4 2 16 -13l172 -190l263 69q20 6 22 0l-8 -18l-146 -221l142 -232 q2 -4 6 -14q2 -6 -4 -8q-2 -2 -19 2l-266 53l-174 -221q-2 -10 -12 -14q-8 -4 -10 20l-25 279l-182 61l-187 -420h-284l456 1030l-133 -43l-63 -278q-4 -25 -13 -21q-6 2 -10 15l-145 221l-273 -53q-16 -4 -20 -2q-6 2 -2 8zM141 903l221 53l109 -184l47 227l195 58l-181 86 l11 213l-154 -156l-192 60l90 -168zM242 973l96 114l-55 103v2l114 -45l99 100l-11 -135l117 -45l-2 -2l-121 -35l-24 -141l-4 -2l-66 119l-141 -37zM762 428l186 -57l15 -228l135 185l215 -54l-121 189l115 168l-201 -60l-133 156l-19 -213zM874 436v2l123 45l9 135 l84 -100l120 45v-2l-69 -102l80 -115l-2 -4l-138 37l-82 -119l-2 2l-6 141z" />
<glyph unicode="&#x26;" horiz-adv-x="890" d="M-20 -109h305l14 189q-258 76 -258 397q0 27 2 58l29 393q25 371 317 454l14 183h283l-14 -185q238 -76 237 -391q0 -29 -2 -61l-4 -56h-352l12 166q6 98 -57 99q-55 0 -62 -93l-14 -210h471l-14 -195h-471l-17 -221q-6 -92 50 -92q63 0 71 98l10 166h353l-4 -55 q-25 -371 -297 -453l-15 -191h351v-301h-938v301z" />
<glyph unicode="'" horiz-adv-x="491" d="M-20 -109h561v-301h-561v301zM106 973l33 489h246l-33 -489h-246z" />
<glyph unicode="(" horiz-adv-x="569" d="M-20 -109h630v-301h-630v301zM82 670q0 356 283 792h253q-170 -362 -196 -731q-6 -76 -6 -147q0 -283 100 -584h-254q-180 354 -180 670z" />
<glyph unicode=")" horiz-adv-x="483" d="M-123 -109h668v-301h-668v301zM-49 0q170 362 196 731q6 76 7 148q0 283 -101 583h254q180 -354 180 -669q1 -357 -282 -793h-254z" />
<glyph unicode="*" horiz-adv-x="903" d="M70 1165q0 6 22 9l266 26l121 244q10 18 15 18q8 0 10 -18l88 -244l260 -26q20 -5 20 -9l-16 -16l-207 -158l41 -276q2 -14 2 -19q0 -6 -8 -6q-10 0 -14 10l-219 150l-242 -145q-20 -10 -19 -11q-6 0 -6 8q0 2 4 15l84 274l-188 158q-14 14 -14 16zM186 1133l148 -121 l-72 -224l195 127l170 -127l-39 224l166 121l-203 14l-66 196l-92 -196zM295 1102v2h125l57 125l41 -125h127v-2l-104 -76l26 -137l-2 -2l-106 84l-123 -84l-2 2l49 137z" />
<glyph unicode="+" horiz-adv-x="802" d="M-20 -109h938v-301h-938v301zM49 424l12 194h252l31 418h246l-31 -418h252l-12 -194h-252l-31 -424h-246l31 424h-252z" />
<glyph unicode="," horiz-adv-x="491" d="M-20 -109h135l-2 19q72 0 84 100q-92 37 -86 137q6 61 52 104.5t105 43.5q61 0 102.5 -43t35.5 -105l-5 -77q-8 -98 -84 -179h224v-301h-561v301z" />
<glyph unicode="-" horiz-adv-x="909" d="M70 823q0 6 22 8l266 27l121 246q10 16 15 16q8 0 10 -16l88 -246l260 -27q20 -4 20 -8l-16 -14l-207 -160l41 -276q2 -14 2 -17q0 -6 -8 -6q-10 0 -14 8l-219 150l-242 -146q-20 -10 -19 -10q-6 0 -6 8q0 2 4 17l84 272l-188 160zM186 793l148 -121l-72 -226l195 129 l170 -129l-39 226l166 121l-203 14l-66 197l-92 -197zM295 760v2h125l57 127l41 -127h127v-2l-104 -74l26 -139l-2 -2l-106 84l-123 -84l-2 2l49 139z" />
<glyph unicode="." horiz-adv-x="491" d="M-20 -109h540v-301h-540v301zM104 147q4 61 50.5 104.5t107.5 43.5t101 -43t36 -105q-4 -61 -50 -104t-107 -43t-101.5 43t-36.5 104z" />
<glyph unicode="/" horiz-adv-x="677" d="M-102 -109h938v-301h-938v301zM-86 -31l473 1524h354l-465 -1524h-362z" />
<glyph unicode="0" d="M-20 -109h958v-301h-958v301zM35 416q0 27 2 57l37 516q16 254 166 375q119 98 297 98q168 0 270 -86q129 -106 129 -329q0 -27 -2 -58l-37 -516q-16 -254 -166 -375q-119 -98 -297 -98q-168 0 -270 86q-129 106 -129 330zM395 387q-6 -94 60 -94q65 0 71 94l27 369 l-135 -47zM432 907l135 49l11 148q6 94 -60 94t-72 -94z" />
<glyph unicode="1" horiz-adv-x="548" d="M-20 -109h589v-301h-589v301zM86 1180l20 282h494l-102 -1462h-377l82 1180h-117z" />
<glyph unicode="2" horiz-adv-x="890" d="M-20 -109h938v-301h-938v301zM4 0h836l16 246h-471l14 178h471l39 565q2 31 2 58q0 223 -129 329q-102 86 -270 86q-170 0 -283 -98q-139 -121 -155 -375l-19 -260h353l26 371q6 98 70 98q55 0 49 -92l-35 -488h-471z" />
<glyph unicode="3" horiz-adv-x="890" d="M-20 -109h938v-301h-938v301zM35 412q0 29 2 61l4 55h352l-12 -166q-6 -98 57 -98q55 0 62 92l20 283h-102l14 195h103l18 272q6 92 -49 92q-63 0 -70 -98l-12 -166h-352l4 55q16 254 155 375q113 98 283 98q168 0 270 -86q129 -106 129 -329q0 -27 -2 -58l-37 -516 q-16 -254 -165 -375q-119 -98 -297 -98q-158 0 -256 86q-119 104 -119 326z" />
<glyph unicode="4" horiz-adv-x="890" d="M-20 -109h938v-301h-938v301zM33 424l41 565q16 231 133 354q98 102 250 119l-58 -844h119l60 844h364l-102 -1462h-365l29 424h-471z" />
<glyph unicode="5" horiz-adv-x="890" d="M-20 -109h938v-301h-938v301zM35 412q0 29 2 61l18 260h353l-27 -371q-6 -98 57 -98q55 0 62 92l35 488h-472l43 618h836l-16 -245h-471l-15 -179h471l-39 -565q-16 -254 -165 -375q-119 -98 -297 -98q-158 0 -256 86q-119 104 -119 326z" />
<glyph unicode="6" d="M-20 -109h958v-301h-958v301zM37 428q0 31 2 66l35 495q16 254 166 375q119 98 297 98q158 0 256 -86q119 -104 118 -325q0 -29 -2 -62l-2 -14h-352l10 125q6 98 -57 98q-55 0 -62 -92l-10 -139q33 4 66 4q168 0 270 -86q129 -106 129 -330q0 -27 -2 -57l-2 -25 q-16 -254 -166 -375q-119 -98 -297 -98q-397 0 -397 428zM395 387q-6 -94 60 -94q65 0 71 94l17 225q6 94 -60 95q-66 0 -71 -95z" />
<glyph unicode="7" horiz-adv-x="727" d="M-20 -109h774v-301h-774v301zM86 1180l20 282h680l-245 -1462h-377l198 1180h-276z" />
<glyph unicode="8" horiz-adv-x="917" d="M-20 -109h958v-301h-958v301zM35 416q0 27 2 57v8q10 145 65 250q-39 104 -28 250v8q16 254 166 375q119 98 297 98q168 0 270 -86q129 -106 129 -329q0 -27 -2 -58v-8q-10 -145 -66 -250q39 -104 29 -250v-8q-16 -254 -166 -375q-119 -98 -297 -98q-168 0 -270 86 q-129 106 -129 330zM395 387q-6 -94 60 -94q65 0 71 94l15 209q8 94 -58 94t-73 -94zM432 895q-8 -94 57 -94q66 0 74 94l15 209q6 94 -60 94t-72 -94z" />
<glyph unicode="9" d="M-20 -109h958v-301h-958v301zM59 412q0 29 2 61l2 14h353l-10 -125q-6 -98 57 -98q55 0 61 92l11 140q-33 -4 -66 -4q-168 0 -270 86q-129 106 -129 329q0 27 2 58l2 24q16 254 166 375q119 98 297 98q397 0 397 -428q0 -31 -2 -65l-35 -496q-16 -254 -166 -375 q-119 -98 -297 -98q-158 0 -256 86q-119 104 -119 326zM428 850q-6 -94 59 -94q66 0 72 94l16 225q6 94 -59 94q-66 0 -72 -94z" />
<glyph unicode=":" horiz-adv-x="491" d="M-20 -109h532v-301h-532v301zM90 147q4 61 50 104.5t108 43.5q59 0 100 -43t37 -105q-6 -61 -52 -104t-108 -43q-59 0 -100 43t-35 104zM119 586q6 61 52 104t108 43q59 0 100 -43t35 -104q-4 -61 -50.5 -104.5t-107.5 -43.5q-59 0 -100 43.5t-37 104.5z" />
<glyph unicode=";" horiz-adv-x="491" d="M-20 -109h118v19q72 0 82 100q-92 37 -84 137q4 61 50.5 104.5t107.5 43.5t101 -43t36 -105l-6 -77q-6 -98 -82 -179h205v-301h-528v301zM127 586q4 61 50 104t108 43q61 0 101 -43t36 -104t-50 -104.5t-108 -43.5q-61 0 -101 43t-36 105z" />
<glyph unicode="&#x3c;" horiz-adv-x="458" d="M-20 -109h503v-301h-503v301zM8 586l176 327h289l-170 -327l117 -312h-295z" />
<glyph unicode="=" horiz-adv-x="753" d="M-20 -109h794v-301h-794v301zM74 248l18 246h651l-18 -246h-651zM100 625l19 245h651l-18 -245h-652z" />
<glyph unicode="&#x3e;" horiz-adv-x="509" d="M-20 -109h544v-301h-544v301zM41 274l162 312l-125 327h289l131 -327l-162 -312h-295z" />
<glyph unicode="?" horiz-adv-x="890" d="M-131 -102q0 2 10 14l172 231l-114 222q-6 18 -7 18q4 6 25 0l84 -23l18 258h471l35 488q6 92 -49 92q-63 0 -70 -98l-26 -371h-352l18 260q16 254 156 375q113 98 282 98q168 0 271 -86q129 -106 129 -329q0 -27 -2 -58l-41 -565h-455l-6 -195l227 -118q16 -10 14 -15 q-8 -4 -18 -8l-248 -80l-24 -117h549v-301h-938v301h219l-35 54l-273 -54q-18 -4 -20 -2q-6 2 -2 9zM-31 -45l224 53l108 -184l45 227l195 58l-181 86l13 213l-154 -156l-194 59l92 -168zM72 25l94 114l-53 103v2l112 -45l99 100l-9 -135l117 -45l-2 -2l-121 -35l-26 -141 l-2 -2l-66 118l-141 -37z" />
<glyph unicode="@" horiz-adv-x="1990" d="M55 1087q0 90 121 103l514 51q68 170 215 504q33 61 94 61q76 0 103 -88l205 -477l512 -51q61 -14 79 -25q37 -23 37 -78q0 -47 -45 -83q-6 -4 -14 -11l-383 -309l121 -557q4 -20 4 -37q0 -37 -25.5 -66.5t-70.5 -29.5q-43 0 -86 37l-439 286l-452 -286q-49 -31 -78 -31 q-41 0 -69.5 28.5t-28.5 71.5q0 16 6 35l4 19l123 530l-389 309q-57 45 -58 94zM139 1087q0 -2 31 -32l426 -338l-135 -582q-8 -31 -8 -35q0 -16 14 -16q-4 0 37 20l454 287h78l451 -293q10 -20 35 -20q12 0 12 12q0 6 -6 37l-129 590l420 338l32 32q0 12 -16 15.5t-29 3.5 l-557 57l-225 520q-10 39 -25 39q-12 0 -28 -39l-199 -466q43 37 113 36q164 0 164 -188v-64q43 31 106 31q162 0 162 -188v-131h-141v174q0 41 -25 41q-23 0 -23 -37v-223h189v-78h-189v-148h-145v369h-123v-291h-147v545q0 55 18 96l-547 -55q-45 -4 -45 -19zM279 1055 l385 26q-2 -8 -2 -16v-307zM537 186l125 496v-213h249v291h21v-299zM735 625l29 -29l-6 -37l33 16l34 -16l-6 37l27 29l-37 6l-18 33l-17 -33zM735 768l29 -29l-6 -37l33 17l34 -17l-6 37l27 29l-37 6l-18 33l-17 -33zM735 911l29 -28l-6 -37l33 16l34 -16l-6 37l27 28 l-37 7l-18 32l-17 -32zM735 1055l29 -29l-6 -37l33 17l34 -17l-6 37l27 29l-37 6l-18 33l-17 -33zM766 1174l20 -21l-4 -31l27 15l29 -15l-7 31l23 21l-31 6l-14 26l-12 -26zM860 858l12 -12l-2 -17l17 9l14 -9l-2 17l12 12l-18 4l-6 15l-8 -15zM860 889h125q4 25 12 45h-90 v174q0 41 -26 41q-20 0 -21 -37v-223zM860 1217l12 -13l-2 -16l17 8l14 -8l-2 16l12 13l-18 4l-6 14l-8 -14zM887 1305zM887 1305l112 278l197 -491l520 -37l-348 -269v58q0 125 -68 188q-57 51 -145 51q-29 0 -57 -4q-2 115 -70 176q-55 49 -141 50zM913 1174l21 -21 l-4 -31l26 15l29 -15l-6 31l22 21l-30 6l-15 26l-12 -26zM920 1055l28 -29l-6 -37l33 17l35 -17l-6 37l26 29l-37 6l-18 33l-17 -33zM942 858l12 -12l-2 -17l17 9l14 -9l-2 17l12 12l-18 4l-6 15l-8 -15zM1004 541l28 -29l-6 -37l33 17l35 -17l-7 37l27 29l-37 6l-18 33 l-17 -33zM1004 684l28 -29l-6 -37l33 17l35 -17l-7 37l27 29l-37 6l-18 33l-17 -33zM1004 827l28 -28l-6 -37l33 16l35 -16l-7 37l27 28l-37 7l-18 32l-17 -32zM1034 946l21 -20l-4 -31l26 14l29 -14l-6 31l22 20l-30 6l-15 27l-12 -27zM1128 989l13 -12l-2 -16l16 8l14 -8 l-2 16l13 12l-19 4l-6 15l-8 -15zM1149 635l12 -12l-2 -17l15 8l16 -8l-2 17l12 12l-18 4l-8 14l-7 -14zM1161 391h19v148h184l84 -353zM1182 946l20 -20l-4 -31l27 14l28 -14l-6 31l23 20l-31 6l-14 27l-13 -27zM1188 827l29 -28l-7 -37l33 16l35 -16l-6 37l26 28l-36 7 l-19 32l-16 -32zM1231 635l12 -12l-2 -17l14 8l17 -8l-2 17l12 12l-18 4l-9 14l-6 -14z" />
<glyph unicode="A" horiz-adv-x="876" d="M-20 -109h938v-301h-938v301zM35 416q0 27 2 57l2 16q16 254 166 375q119 98 297 99q-18 0 51 -9l14 205q1 8 1 15q0 71 -56 71q-55 0 -61 -86l-13 -170h-364l2 39q16 233 119.5 334.5t312.5 101.5q195 0 285 -73q106 -86 106 -285q0 -31 -2 -64l-74 -1042h-389 q-168 0 -270 86q-129 106 -129 330zM395 387v-15q0 -79 60 -79q65 0 71 94l17 217q1 8 1 15q0 79 -61 79q-66 0 -71 -94z" />
<glyph unicode="B" horiz-adv-x="919" d="M-20 -109h958v-301h-958v301zM35 416q0 27 2 57l69 989h431q188 0 286 -114q88 -105 88 -288q0 -29 -2 -59l-6 -104q-8 -119 -78 -170q-59 -45 -184 -49l-4 -4q127 -4 195 -78q60 -65 61 -171q0 -16 -2 -32l-4 -71q-12 -172 -106.5 -247t-276.5 -75h-70q-168 0 -270 86 q-129 106 -129 330zM395 375q-1 -12 -1 -23q0 -88 59 -88q65 0 73 117l11 143q1 8 1 15q0 79 -61 79q-66 0 -71 -94zM426 823q-1 -8 -1 -15q0 -79 60 -79q66 0 72 94l21 281v15q0 79 -60 79q-66 0 -72 -94z" />
<glyph unicode="C" horiz-adv-x="903" d="M-20 -109h938v-301h-938v301zM35 416q0 27 2 57l37 516q16 254 166 375q119 98 297 98q188 0 286 -114q88 -105 89 -288q0 -29 -3 -59l-18 -272h-352l26 387q1 8 1 14q0 68 -54 68q-59 0 -66 -82l-51 -741q-1 -12 -1 -23q0 -88 59 -88q66 0 73 117l17 237h352l-4 -63 q-23 -311 -152 -444q-109 -111 -305 -111q-168 0 -270 86q-129 106 -129 330z" />
<glyph unicode="D" horiz-adv-x="952" d="M-20 -109h998v-301h-998v301zM4 0l102 1462h476q203 0 288 -55q109 -70 108 -260q0 -29 -1 -60l-55 -806q-20 -281 -355 -281h-563zM393 340q-1 -10 -1 -19q0 -75 59 -75q65 0 73 94l54 764v15q0 79 -60 79q-66 0 -72 -94z" />
<glyph unicode="E" horiz-adv-x="890" d="M-20 -109h938v-301h-938v301zM4 0l70 989q16 254 166 375q119 98 297 98q158 0 256 -86q118 -103 118 -321q0 -33 -2 -66l-18 -260h-352l26 371q1 9 1 16q0 82 -58 82q-55 0 -62 -92l-34 -488h471l-15 -194h-471l-8 -129h471l-20 -295h-836z" />
<glyph unicode="F" horiz-adv-x="890" d="M-20 -109h938v-301h-938v301zM4 0l70 989q16 254 166 375q119 98 297 98q158 0 256 -86q118 -103 118 -321q0 -33 -2 -66l-18 -260h-352l26 371q1 9 1 16q0 82 -58 82q-55 0 -62 -92l-34 -488h471l-15 -194h-471l-28 -424h-365z" />
<glyph unicode="G" horiz-adv-x="890" d="M-20 -109h938v-301h-938v301zM35 416q0 27 2 57l37 516q16 254 166 375q119 98 297 98q158 0 256 -86q118 -103 118 -321q0 -33 -2 -66l-18 -260h-352l26 371q1 9 1 16q0 82 -58 82q-55 0 -62 -92l-51 -731q-1 -12 -1 -23q0 -88 59 -88q66 0 73 117l17 237h469l-15 -194 h-123q-72 -424 -440 -424q-168 0 -270 86q-129 106 -129 330z" />
<glyph unicode="H" horiz-adv-x="952" d="M-20 -109h999v-301h-999v301zM4 0l102 1462h377l-59 -844h143l60 844h377l-103 -1462h-377l31 424h-143l-31 -424h-377z" />
<glyph unicode="I" horiz-adv-x="434" d="M-20 -109h471v-301h-471v301zM4 0l102 1462h377l-102 -1462h-377z" />
<glyph unicode="J" horiz-adv-x="890" d="M-20 -109h938v-301h-938v301zM35 412q0 29 2 61l18 256h353l-27 -367q-1 -9 -1 -16q0 -82 58 -82q55 0 62 92l78 1106h364l-70 -989q-16 -254 -165 -375q-119 -98 -297 -98q-158 0 -256 86q-119 104 -119 326z" />
<glyph unicode="K" horiz-adv-x="890" d="M-20 -109h938v-301h-938v301zM4 0l102 1462h365l-41 -573h4l211 573h359l-318 -774q174 -96 174 -364q0 -31 -2 -62l-18 -262h-353l27 371q1 9 1 17q0 83 -58 83q-55 0 -62 -92l-26 -379h-365z" />
<glyph unicode="L" horiz-adv-x="548" d="M-20 -109h593v-301h-593v301zM4 0l102 1462h377l-82 -1179h117l-20 -283h-494z" />
<glyph unicode="M" horiz-adv-x="1353" d="M-20 -109h1392v-301h-1392v301zM4 0l102 1462h1047q223 0 223 -315q0 -31 -2 -66l-76 -1081h-364l76 1069q1 10 1 18q0 84 -53 84q-49 0 -57 -104l-74 -1067h-352l76 1069q1 10 1 19q0 83 -50 83q-51 0 -60 -104l-73 -1067h-365z" />
<glyph unicode="N" horiz-adv-x="892" d="M-20 -109h938v-301h-938v301zM4 0l102 1462h590q223 0 224 -315q0 -31 -2 -66l-76 -1081h-365l76 1069q1 10 1 19q0 83 -52 83q-51 0 -60 -104l-73 -1067h-365z" />
<glyph unicode="O" d="M-20 -109h958v-301h-958v301zM35 416q0 27 2 57l37 516q16 254 166 375q119 98 297 98q168 0 270 -86q129 -106 129 -329q0 -27 -2 -58l-37 -516q-16 -254 -166 -375q-119 -98 -297 -98q-168 0 -270 86q-129 106 -129 330zM395 387v-15q0 -79 60 -79q65 0 71 94l52 717 v15q0 79 -60 79q-66 0 -72 -94z" />
<glyph unicode="P" d="M-20 -109h958v-301h-958v301zM4 0l102 1462h431q168 0 270 -86q129 -106 129 -329q0 -27 -2 -58l-12 -162q-16 -252 -166 -374q-119 -98 -297 -99q-33 0 -66 4l-24 -358h-365zM418 713q-1 -8 -1 -15q0 -79 60 -80q66 1 72 95l26 362q1 8 1 15q0 79 -60 79q-66 0 -72 -94z " />
<glyph unicode="Q" d="M-20 -109h507l-20 -301h-487v301zM72 416q0 27 2 57l35 516q18 254 167 375q117 98 297 98h431l-150 -2138q-1 -12 -1 -22q0 -70 48 -70q63 0 72 98l18 256h352l-10 -145q-18 -254 -157 -375q-113 -98 -283 -98q-166 0 -270 86q-127 106 -127 330q0 27 2 57l39 559h-66 q-168 0 -272 86q-127 106 -127 330zM432 387v-15q0 -79 60 -79q65 0 71 94l49 717q1 10 1 19q0 75 -58 75q-66 0 -74 -94z" />
<glyph unicode="R" horiz-adv-x="890" d="M-20 -109h938v-301h-938v301zM4 0l102 1462h431q188 0 286 -114q88 -105 88 -288q0 -29 -2 -59l-2 -43q-8 -115 -66.5 -190.5t-150.5 -85.5q170 -96 170 -358q0 -31 -2 -62l-18 -262h-353l27 371q1 9 1 17q0 83 -58 83q-55 0 -62 -92l-26 -379h-365zM426 823 q-1 -8 -1 -15q0 -79 60 -79q66 0 72 94l21 281v15q0 79 -60 79q-66 0 -72 -94z" />
<glyph unicode="S" horiz-adv-x="872" d="M-20 -109h938v-301h-938v301zM29 338q0 27 4 57l14 223h338l-18 -262v-10q0 -67 54 -67h1q66 0 70 81l12 164q1 10 1 20q0 60 -34 78q-39 20 -102 42q-145 16 -209 71q-76 68 -76 226q0 501 436 501h2q147 0 246 -71q116 -86 116 -258q0 -16 -1 -33l-21 -287h-338l21 287 v11q0 73 -51 73q-59 0 -64 -84l-20 -285q2 -37 66 -37h13q147 0 244 -71q116 -87 117 -255q0 -18 -2 -38q-16 -225 -141 -326q-111 -88 -320 -88q-174 0 -260 72q-98 82 -98 266z" />
<glyph unicode="T" horiz-adv-x="831" d="M-20 -109h876v-301h-876v301zM41 1266l14 196h824l-15 -196h-223l-88 -1266h-377l88 1266h-223z" />
<glyph unicode="U" horiz-adv-x="892" d="M-20 -109h938v-301h-938v301zM29 315q0 31 2 66l75 1081h365l-76 -1069q-1 -10 -1 -19q0 -83 52 -83q51 0 60 104l74 1067h364l-102 -1462h-590q-223 0 -223 315z" />
<glyph unicode="V" horiz-adv-x="829" d="M-20 -109h938v-301h-938v301zM55 1462h338l13 -1171h4l151 1171h320l-273 -1464h-477z" />
<glyph unicode="W" horiz-adv-x="1366" d="M-20 -109h1409v-301h-1409v301zM29 313q0 33 2 68l75 1081h365l-76 -1071q-1 -10 -1 -19q0 -83 52 -83q51 0 60 106l74 1067h364l-74 -1067q-1 -14 -1 -27q0 -79 44 -79q57 0 64 102l76 1071h364l-76 -1081q-27 -381 -274 -381h-815q-223 0 -223 313z" />
<glyph unicode="X" d="M-20 -109h958v-301h-958v301zM4 0l14 217q23 301 226 416l-109 829h328l47 -555h4l115 555h305l-232 -823q178 -100 179 -365q0 -27 -2 -57l-15 -217h-364l22 332q1 10 1 19q0 75 -58 75q-66 0 -74 -94l-22 -332h-365z" />
<glyph unicode="Y" horiz-adv-x="892" d="M10 -270q0 31 4 61l11 146h352l-19 -256q-1 -11 -1 -21q0 -77 57 -78q55 0 63 92l23 326h-224q-225 0 -225 315q0 31 4 66l76 1081h365l-76 -1069q-1 -10 -1 -19q0 -83 52 -83q51 0 57 104l76 1067h365l-103 -1462h-2l-14 -209q-18 -254 -168 -375q-117 -98 -297 -98 q-158 0 -254 86q-121 104 -121 326z" />
<glyph unicode="Z" horiz-adv-x="870" d="M-20 -109h938v-301h-938v301zM4 0l29 420l499 467l17 213v10q0 74 -55 74t-60 -84l-20 -266h-353l45 628h801l-35 -485l-479 -453l-12 -164v-9q0 -72 59 -72h2q59 0 64 77l18 262h324l-43 -618h-801z" />
<glyph unicode="[" horiz-adv-x="606" d="M-20 -109h641v-301h-641v301zM47 190q0 27 4 64l66 954q12 166 73.5 210t264.5 44h159l-14 -190q-33 6 -55 6q-84 0 -88 -51l-70 -991q-4 -51 80 -52q25 0 59 6l-14 -190h-160q-184 0 -241 33q-63 37 -64 157z" />
<glyph unicode="\" horiz-adv-x="530" d="M-20 -109h569v-301h-569v301zM20 1493h230l260 -1524h-238z" />
<glyph unicode="]" horiz-adv-x="606" d="M-20 -109h653v-301h-653v301zM-8 0l14 190q33 -6 55 -6q84 0 89 52l69 991q4 51 -80 51q-25 0 -59 -6l14 190h160q184 0 244.5 -34.5t60.5 -155.5q0 -27 -4 -64l-66 -954q-12 -166 -73.5 -210t-263.5 -44h-160z" />
<glyph unicode="^" horiz-adv-x="1228" d="M123 715l412 747h213l305 -747h-240l-188 514l-265 -514h-237z" />
<glyph unicode="_" horiz-adv-x="892" d="M-31 -410l21 301h938l-21 -301h-938z" />
<glyph unicode="`" horiz-adv-x="454" d="M-186 1524q0 49 63 49h352q25 0 37 -19q55 -72 111 -143q63 -86 63 -125q0 -37 -59 -37h-148q-14 4 -24 6l-365 222q-31 18 -30 47z" />
<glyph unicode="a" horiz-adv-x="876" d="M-20 -109h938v-301h-938v301zM35 416q0 27 2 57l2 16q16 254 166 375q119 98 297 99q-18 0 51 -9l14 205q1 8 1 15q0 71 -56 71q-55 0 -61 -86l-13 -170h-364l2 39q16 233 119.5 334.5t312.5 101.5q195 0 285 -73q106 -86 106 -285q0 -31 -2 -64l-74 -1042h-389 q-168 0 -270 86q-129 106 -129 330zM395 387v-15q0 -79 60 -79q65 0 71 94l17 217q1 8 1 15q0 79 -61 79q-66 0 -71 -94z" />
<glyph unicode="b" d="M-20 -109h958v-301h-958v301zM-8 0l127 1835h364l-26 -377q33 4 67 4q166 0 271 -86q127 -106 127 -329q0 -27 -2 -58l-35 -516q-18 -254 -166 -375q-119 -98 -297 -98h-430zM383 387q-1 -8 -1 -15q0 -79 60 -79q66 0 72 94l49 717q1 10 1 19q0 75 -58 75q-66 0 -74 -94z " />
<glyph unicode="c" horiz-adv-x="903" d="M-20 -109h938v-301h-938v301zM35 416q0 27 2 57l37 516q16 254 166 375q119 98 297 98q188 0 286 -114q88 -105 89 -288q0 -29 -3 -59l-18 -272h-352l26 387q1 8 1 14q0 68 -54 68q-59 0 -66 -82l-51 -741q-1 -12 -1 -23q0 -88 59 -88q66 0 73 117l17 237h352l-4 -63 q-23 -311 -152 -444q-109 -111 -305 -111q-168 0 -270 86q-129 106 -129 330z" />
<glyph unicode="d" d="M-20 -109h958v-301h-958v301zM23 416q0 27 2 57l34 516q18 254 168 375q117 98 297 98q33 0 64 -4l26 377h365l-127 -1835h-430q-168 0 -272 86q-127 106 -127 330zM383 387q-1 -8 -1 -15q0 -79 60 -79q66 0 72 94l49 717q1 10 1 19q0 75 -58 75q-66 0 -74 -94z" />
<glyph unicode="e" horiz-adv-x="892" d="M-20 -109h938v-301h-938v301zM35 416q0 27 2 57l37 516q16 254 166 375q119 98 297 98q158 0 262 -102q112 -112 112 -315q0 -27 -2 -56l-18 -260h-471l-27 -373q-1 -9 -1 -17q0 -75 50 -75q63 0 70 98l18 256h353l-11 -145q-16 -254 -155 -375q-113 -98 -283 -98 q-168 0 -270 86q-129 106 -129 330zM434 924h119l12 176q1 9 1 16q0 82 -58 82q-55 0 -62 -92z" />
<glyph unicode="f" horiz-adv-x="892" d="M-20 -109h938v-301h-938v301zM-8 0l94 1362q18 254 166 375q119 98 297 98q160 0 256 -86q119 -104 119 -326q0 -29 -2 -61l-23 -328h-352l31 439q1 8 1 16q0 82 -59 82q-55 0 -61 -92l-39 -555h471l-12 -195h-471l-52 -729h-364z" />
<glyph unicode="g" d="M-291 -494q20 305 307 383l76 1100q25 346 283 443l28 403h351l-29 -401q229 -86 229 -387q0 -27 -2 -58l-34 -516q-18 -254 -166 -375q-119 -98 -299 -98q-41 0 -78 6l-33 -446h-285q-82 0 -86 -60v-5q0 -54 78 -54h742q116 0 116 69q0 62 -112 62h-340l24 352h166 q309 0 436 -121q91 -89 91 -257q0 -19 -1 -40q-12 -178 -118 -288q-131 -141 -385 -142h-516q-254 0 -367 142q-77 98 -77 246q0 21 1 42zM416 387q-1 -10 -1 -19q0 -75 58 -75q66 0 74 94l49 717q1 8 1 15q0 79 -60 79q-66 0 -72 -94z" />
<glyph unicode="h" horiz-adv-x="892" d="M-20 -109h938v-301h-938v301zM-8 0l127 1835h364l-24 -373h225q223 0 223 -313q0 -33 -2 -68l-76 -1081h-364l74 1069q1 12 1 23q0 79 -51 79t-59 -104l-74 -1067h-364z" />
<glyph unicode="i" horiz-adv-x="421" d="M-59 1296q0 2 10 15l172 233l-115 219q-6 18 -6 19q4 6 25 0l249 -70l199 191q14 14 21 12q6 -2 2 -21l-9 -266l228 -117q16 -12 14 -16q-8 -4 -18 -8l-246 -78l-33 -143h8l-90 -1266h-364l90 1266h209l-51 77l-273 -53q-18 -4 -20 -2q-6 2 -2 8zM-20 -109h466v-301h-466 v301zM41 1354l223 53l109 -184l45 227l196 57l-182 86l12 213l-153 -155l-195 59l92 -168zM143 1423l95 115l-54 102v2l115 -43l96 99l-8 -135l117 -45l-2 -2l-121 -33l-25 -144l-4 -2l-65 119l-142 -37z" />
<glyph unicode="j" horiz-adv-x="421" d="M-485 -559l18 266h352l-26 -377q-1 -9 -1 -16q0 -82 58 -82q55 0 61 92l136 1942h211l-52 77l-274 -53q-16 -4 -18 -2q-6 2 -5 8q2 2 11 15l174 233l-115 219q-6 18 -6 19q2 6 22 0l252 -70l199 191q14 14 18 12q8 -2 5 -21l-9 -266l226 -117q18 -12 16 -16q-8 -4 -20 -8 l-246 -78l-31 -143h6l-127 -1825q-18 -254 -166 -375q-119 -98 -297 -98q-160 0 -256 86q-118 103 -118 321q0 33 2 66zM78 1354l221 53l111 -184l45 227l194 57l-180 86l12 213l-155 -155l-193 59l90 -168zM180 1419v4l94 115l-55 102l2 2l113 -43l98 99l-8 -135l115 -45 v-2l-121 -33l-27 -144l-2 -2l-65 119z" />
<glyph unicode="k" horiz-adv-x="892" d="M-20 -109h938v-301h-938v301zM-8 0l127 1835h364l-61 -893l156 520h344l-238 -739q172 -35 172 -307q0 -33 -2 -68l-25 -348h-364l22 336q1 13 1 24q0 78 -50 78q-51 0 -59 -104l-23 -334h-364z" />
<glyph unicode="l" horiz-adv-x="425" d="M-20 -109h481v-301h-481v301zM-8 0l127 1835h364l-127 -1835h-364z" />
<glyph unicode="m" horiz-adv-x="1353" d="M-20 -109h1396v-301h-1396v301zM4 0l102 1462h1047q223 0 223 -315q0 -31 -2 -66l-76 -1081h-364l76 1069q1 10 1 18q0 84 -53 84q-49 0 -57 -104l-74 -1067h-352l76 1069q1 10 1 19q0 83 -50 83q-51 0 -60 -104l-73 -1067h-365z" />
<glyph unicode="n" horiz-adv-x="892" d="M-20 -109h938v-301h-938v301zM4 0l102 1462h590q223 0 224 -315q0 -31 -2 -66l-76 -1081h-365l76 1069q1 10 1 19q0 83 -52 83q-51 0 -60 -104l-73 -1067h-365z" />
<glyph unicode="o" d="M-20 -109h958v-301h-958v301zM35 416q0 27 2 57l37 516q16 254 166 375q119 98 297 98q168 0 270 -86q129 -106 129 -329q0 -27 -2 -58l-37 -516q-16 -254 -166 -375q-119 -98 -297 -98q-168 0 -270 86q-129 106 -129 330zM395 387v-15q0 -79 60 -79q65 0 71 94l52 717 v15q0 79 -60 79q-66 0 -72 -94z" />
<glyph unicode="p" d="M-33 -1032l176 2494h430q166 0 271 -86q127 -106 127 -329q0 -27 -2 -58l-35 -516q-18 -254 -166 -375q-119 -98 -297 -98q-35 0 -65 4l-74 -1036h-365zM430 358q-1 -8 -1 -15q0 -79 60 -79q66 0 72 94l49 717q1 10 1 19q0 75 -58 75q-66 0 -74 -94zM430 -410l21 301h483 v-301h-504z" />
<glyph unicode="q" d="M-20 -109h505l-20 -301h-485v301zM72 416q0 27 2 57l35 516q18 254 167 375q117 98 297 98h431l-177 -2494h-364l74 1036q-33 -4 -66 -4q-168 0 -272 86q-127 106 -127 330zM430 358q-1 -8 -1 -15q0 -79 60 -79q66 0 72 94l49 717q1 10 1 19q0 75 -58 75q-66 0 -74 -94z " />
<glyph unicode="r" d="M-20 -109h958v-301h-958v301zM4 0l102 1462h431q168 0 270 -86q129 -106 129 -329q0 -27 -2 -58l-19 -260h-364l24 346q1 8 1 15q0 79 -60 79q-66 0 -72 -94l-75 -1075h-365z" />
<glyph unicode="s" horiz-adv-x="872" d="M-20 -109h917v-301h-917v301zM29 338q0 27 4 57l14 223h338l-18 -262v-10q0 -67 54 -67h1q66 0 70 81l12 164q1 10 1 20q0 60 -34 78q-39 20 -102 42q-145 16 -209 71q-76 68 -76 226q0 501 436 501h2q147 0 246 -71q116 -86 116 -258q0 -16 -1 -33l-21 -287h-338l21 287 v11q0 73 -51 73q-59 0 -64 -84l-20 -285q2 -37 66 -37h13q147 0 244 -71q116 -87 117 -255q0 -18 -2 -38q-16 -225 -141 -326q-111 -88 -320 -88q-174 0 -260 72q-98 82 -98 266z" />
<glyph unicode="t" horiz-adv-x="892" d="M-20 -109h938v-301h-938v301zM23 416q0 27 2 57l94 1362h364l-24 -373h471l-15 -194h-471l-63 -912q-1 -9 -1 -17q0 -75 50 -75q63 0 70 98l55 795h352l-47 -684q-18 -254 -158 -375q-111 -98 -280 -98q-168 0 -272 86q-127 106 -127 330z" />
<glyph unicode="u" horiz-adv-x="892" d="M-20 -109h938v-301h-938v301zM29 315q0 31 2 66l75 1081h365l-76 -1069q-1 -10 -1 -19q0 -83 52 -83q51 0 60 104l74 1067h364l-102 -1462h-590q-223 0 -223 315z" />
<glyph unicode="v" horiz-adv-x="829" d="M-20 -109h938v-301h-938v301zM55 1462h338l13 -1171h4l151 1171h320l-273 -1464h-477z" />
<glyph unicode="w" horiz-adv-x="1366" d="M-20 -109h1400v-301h-1400v301zM29 313q0 33 2 68l75 1081h365l-76 -1071q-1 -10 -1 -19q0 -83 52 -83q51 0 60 106l74 1067h364l-74 -1067q-1 -14 -1 -27q0 -79 44 -79q57 0 64 102l76 1071h364l-76 -1081q-27 -381 -274 -381h-815q-223 0 -223 313z" />
<glyph unicode="x" d="M-20 -109h958v-301h-958v301zM4 0l14 217q23 301 226 416l-109 829h328l47 -555h4l115 555h305l-232 -823q178 -100 179 -365q0 -27 -2 -57l-15 -217h-364l22 332q1 10 1 19q0 75 -58 75q-66 0 -74 -94l-22 -332h-365z" />
<glyph unicode="y" horiz-adv-x="892" d="M10 -270q0 31 4 61l11 146h352l-19 -256q-1 -11 -1 -21q0 -77 57 -78q55 0 63 92l23 326h-224q-225 0 -225 315q0 31 4 66l76 1081h365l-76 -1069q-1 -10 -1 -19q0 -83 52 -83q51 0 57 104l76 1067h365l-103 -1462h-2l-14 -209q-18 -254 -168 -375q-117 -98 -297 -98 q-158 0 -254 86q-121 104 -121 326z" />
<glyph unicode="z" horiz-adv-x="870" d="M-20 -109h938v-301h-938v301zM0 0l31 428q10 168 149 270q113 86 232 86h114l23 316v10q0 74 -55 74t-60 -84l-20 -266h-353l45 628h801l-37 -532q-4 -49 -30.5 -105.5t-51.5 -76.5q-102 -76 -206 -76h-176l-13 -148l-12 -164v-9q0 -72 59 -72h2q59 0 64 77l18 262h324 l-43 -618h-805z" />
<glyph unicode="{" horiz-adv-x="606" d="M47 190q0 27 4 64l66 954q12 166 73.5 210t264.5 44h159l-14 -190q-33 6 -55 6q-84 0 -88 -51l-70 -991q-4 -51 80 -52q25 0 59 6l-14 -190h-160q-184 0 -241 33q-63 37 -64 157z" />
<glyph unicode="|" horiz-adv-x="454" d="M51 -31l107 1524h245l-106 -1524h-246z" />
<glyph unicode="}" horiz-adv-x="606" d="M-8 0l14 190q33 -6 55 -6q84 0 89 52l69 991q4 51 -80 51q-25 0 -59 -6l14 190h160q184 0 244.5 -34.5t60.5 -155.5q0 -27 -4 -64l-66 -954q-12 -166 -73.5 -210t-263.5 -44h-160z" />
<glyph unicode="~" horiz-adv-x="1228" d="M141 524q104 174 269 174q82 0 231.5 -69.5t194.5 -69.5q82 0 190 148l61 -195q-66 -84 -112 -119q-72 -55 -156 -55q-82 0 -209 68q-133 72 -225 71q-104 0 -182 -147z" />
<glyph unicode="&#xa1;" horiz-adv-x="421" d="M-178 1593q10 4 20 9l246 79l64 279q4 25 12 20q6 -2 10 -14l145 -221l273 53q18 4 20 2q6 -2 2 -8q0 -2 -10 -14l-172 -232l113 -221l8 -18q-4 -6 -25 0l-252 69l-112 -110h274l-88 -1266h-364l82 1176q-4 -4 -9 -2q-6 2 -2 20l9 266l-228 119q-16 10 -16 14zM-59 1581 l182 -86l-12 -213l153 156l195 -60l-92 168l147 189l-223 -54l-109 185l-45 -228zM-20 -109h475v-301h-475v301zM51 1571l2 2l121 35l25 141l4 2l65 -119l142 37l2 -4l-95 -115l54 -102v-2l-115 45l-98 -100l10 135z" />
<glyph unicode="&#xa2;" horiz-adv-x="909" d="M-20 -109h327l6 78q-133 20 -213 103q-102 106 -88 295l33 467q10 168 102 264q84 88 254 133l11 158h184l-10 -158q315 -55 293 -387l-9 -101h-352l14 199q6 70 -55 70q-55 0 -61 -70l-45 -657q-6 -94 57 -95q72 0 78 99l14 207h352l-4 -60q-31 -426 -370 -467l-6 -78 h446v-301h-958v301z" />
<glyph unicode="&#xa3;" horiz-adv-x="890" d="M-20 -109h938v-301h-938v301zM0 535l14 194h41l19 260q16 254 166 375q119 98 297 98q158 0 256 -86q119 -104 118 -325q0 -29 -2 -62l-10 -149h-352l18 260q6 98 -57 98q-55 0 -62 -92l-26 -377h205l-15 -194h-204l-17 -240h129l4 67h342l-24 -362h-836l37 535h-41z" />
<glyph unicode="&#xa4;" horiz-adv-x="1116" d="M-20 -109h1183v-301h-1183v301zM-16 358q0 29 43 70q27 23 55 47q-59 121 -49 256q10 137 84 256q-80 86 -80 115q0 23 39 57q55 51 110 101q16 14 35 14q29 0 66 -39q20 -25 41 -49q123 66 262 65q133 0 250 -65q94 88 123 88q23 0 55 -37l90 -102q14 -14 14 -31 q0 -29 -43 -70q-27 -23 -55 -47q57 -115 47 -256t-84 -256q82 -86 82 -115q0 -23 -39 -57q-57 -51 -112 -100q-16 -14 -35 -15q-29 0 -66 39q-20 25 -43 52q-119 -68 -258 -68t-250 68q-96 -90 -125 -91q-20 0 -53 37q-45 51 -90 103q-14 14 -14 30zM305 731 q-8 -113 57.5 -186.5t172.5 -73.5q106 0 181 73.5t83 186.5t-56.5 186.5t-171.5 73.5q-109 0 -183.5 -73.5t-82.5 -186.5zM408 670l53 108l-53 103l116 -11l84 88l19 -114l106 -47l-106 -62l-19 -117l-84 78z" />
<glyph unicode="&#xa5;" horiz-adv-x="890" d="M-20 -109h938v-301h-938v301zM25 289l14 194h266l10 168h-266l14 195h132q-88 104 -89 293q0 31 3 61l18 262h352l-26 -370q-6 -100 57 -101q55 0 61 92l27 379h365l-19 -262q-16 -231 -143 -354h98l-14 -195h-230l-10 -168h229l-14 -194h-229l-21 -289h-340l21 289h-266 z" />
<glyph unicode="&#xa7;" horiz-adv-x="985" d="M-20 -109l20 -2q66 -74 179.5 -121t242.5 -47q123 0 243.5 46.5t194.5 123.5h160v-301h-1040v301zM35 164q-10 -154 88 -244q102 -96 299 -96q184 0 302 94t130 266q2 31 2 54q0 98 -68 172q117 104 130 280q10 158 -107 256q-43 35 -225 123q-121 57 -117 121 q6 82 70 82q57 0 51 -76l-4 -55h338l4 43q10 158 -99 237q-96 72 -264 72q-414 0 -436 -346q-10 -129 57 -232q-106 -111 -116 -260q-12 -168 102 -264q51 -45 215 -117q117 -49 113 -104l-4 -64q-4 -61 -70 -61q-61 0 -55 72l4 84h-338zM317 719q2 23 41 88l263 -119 q49 -22 47 -67q-4 -43 -43 -84l-269 122q-41 18 -39 60z" />
<glyph unicode="&#xa8;" horiz-adv-x="454" d="M-229 1411q6 94 94 154q74 49 164 49q143 0 207 -101q78 100 219 101q92 0 159 -49q78 -59 72 -154q-6 -96 -94 -156q-74 -49 -164 -49q-143 0 -207 101q-78 -101 -219 -101q-92 0 -160 49q-78 59 -71 156z" />
<glyph unicode="&#xa9;" horiz-adv-x="1198" d="M12 1214q0 10 35 13l416 43l188 381q14 29 23 28q12 0 16 -28l137 -381l406 -43q33 -7 33 -13l-25 -24l-326 -248l66 -432q2 -23 2 -27q0 -10 -10 -10q-18 0 -25 16l-342 234l-379 -229q-31 -14 -26 -15q-10 0 -11 13q0 2 9 24l129 426l-295 248q-20 23 -21 24zM113 1190 l276 -225l-133 -410l354 233l314 -235l-70 410l311 227l-379 27l-118 360l-170 -360zM250 1159h268q-12 -27 -14 -63l-12 -156q-6 -94 55 -127l-197 -133l105 305zM557 1210l100 217l70 -223q-29 33 -86 33q-49 0 -84 -27zM600 911l14 224q2 25 21 24q18 0 16 -24l-8 -117 h105l6 82q2 33 -4 59h282l-239 -176l53 -305l-170 135q63 33 72 152l2 20h-107l-4 -72q-2 -35 -23 -34q-18 0 -16 32z" />
<glyph unicode="&#xaa;" horiz-adv-x="548" d="M-20 -109h630v-301h-630v301zM51 965v10q16 236 232 235q-10 0 24 -4l8 103q2 43 -28 43q-27 0 -31 -43l-6 -84h-182l2 18q16 219 217 219q102 0 151 -47t41 -164l-37 -522h-194q-215 0 -197 236zM229 924q-4 -49 29 -50q33 1 37 50l8 108q2 47 -31 47t-34 -47z" />
<glyph unicode="&#xab;" horiz-adv-x="833" d="M-20 -109h938v-301h-938v301zM8 586l176 327h289l-170 -327l117 -312h-295zM383 586l176 327h289l-170 -327l115 -312h-295z" />
<glyph unicode="&#xac;" horiz-adv-x="1228" d="M-20 -109h1286v-301h-1286v301zM102 625l17 245h1036l-45 -649h-246l29 404h-791z" />
<glyph unicode="&#xad;" horiz-adv-x="909" d="M70 823q0 6 22 8l266 27l121 246q10 16 15 16q8 0 10 -16l88 -246l260 -27q20 -4 20 -8l-16 -14l-207 -160l41 -276q2 -14 2 -17q0 -6 -8 -6q-10 0 -14 8l-219 150l-242 -146q-20 -10 -19 -10q-6 0 -6 8q0 2 4 17l84 272l-188 160zM186 793l148 -121l-72 -226l195 129 l170 -129l-39 226l166 121l-203 14l-66 197l-92 -197zM295 760v2h125l57 127l41 -127h127v-2l-104 -74l26 -139l-2 -2l-106 84l-123 -84l-2 2l49 139z" />
<glyph unicode="&#xae;" horiz-adv-x="1191" d="M12 1214q0 10 35 13l416 43l188 381q14 29 23 28q12 0 16 -28l137 -381l406 -43q33 -7 33 -13l-25 -24l-326 -248l66 -432q2 -23 2 -27q0 -10 -10 -10q-18 0 -25 16l-342 234l-379 -229q-31 -14 -26 -15q-10 0 -11 13q0 2 9 24l129 426l-295 248q-20 23 -21 24zM113 1190 l276 -225l-133 -410l354 233l314 -235l-70 410l311 227l-379 27l-118 360l-170 -360zM250 1159h282l23 47l-29 -387h31l-205 -139l103 305zM559 1217l98 210l70 -223q-25 12 -55 13h-113zM629 850l18 260q0 27 19 27q18 0 16 -27l-6 -92h98l4 69q4 43 -10 72h264l-239 -176 l53 -305z" />
<glyph unicode="&#xaf;" horiz-adv-x="454" d="M-119 1346l13 147q2 51 53 51h577q51 0 49 -51l-12 -147q-2 -51 -53 -52h-578q-51 0 -49 52z" />
<glyph unicode="&#xb0;" horiz-adv-x="819" d="M117 1200q8 121 100 207t213 86t200.5 -86t71.5 -207t-100 -207t-213 -86t-200.5 86t-71.5 207zM244 1200q-4 -70 41 -118t112 -48q70 0 122 48t56 118t-41 118t-112 48q-70 0 -122 -48t-56 -118z" />
<glyph unicode="&#xb1;" horiz-adv-x="1228" d="M-20 -109h1286v-301h-1286v301zM59 0l19 246h1036l-18 -246h-1037zM98 549l17 246h395l18 241h246l-18 -241h395l-16 -246h-396l-16 -242h-246l17 242h-396z" />
<glyph unicode="&#xb4;" horiz-adv-x="454" d="M-2 1280q0 37 76 125q67 73 133 149q16 18 43 19h352q55 0 55 -43q0 -31 -36 -53l-398 -222q-4 -2 -26 -6h-148q-51 0 -51 31z" />
<glyph unicode="&#xb5;" horiz-adv-x="948" d="M-33 -1032l176 2494h365l-82 -1161q-6 -86 51 -86q51 0 58 88l81 1159h365l-102 -1462h-365l6 92h-4q-33 -61 -80 -61q-14 0 -28 6l-76 -1069h-365zM430 -410l21 301h548v-301h-569z" />
<glyph unicode="&#xb6;" horiz-adv-x="1269" d="M-20 -109h485l59 857q-47 0 -88 4l-45 -72q-2 -8 -10 -18q-8 -4 -12 20l-21 84q-203 49 -246 213l-47 8q-8 0 -20 6q-2 6 16 19l41 28q-2 27 0 58q14 207 174 297l-2 35q0 20 4 22q6 4 19 -10l30 -23q115 43 304 43h643l-109 -1571h156v-301h-1331v301zM156 1026l194 -27 l47 -223l111 203l217 -21l-145 166l88 185l-191 -90l-158 131l17 -209zM268 1055l113 61l-10 135l98 -86l115 64h2l-58 -115l95 -102v-2l-140 16l-67 -131h-4l-25 141l-117 17zM711 -109h198l97 1387h-199l-21 -307l35 -43q4 -4 10 -13q2 -6 -4 -8q-10 -6 -18 0l-27 2z" />
<glyph unicode="&#xb7;" horiz-adv-x="1990" d="M55 1087q0 90 121 103l514 51q68 170 215 504q33 61 94 61q76 0 103 -88l205 -477l512 -51q61 -14 79 -25q37 -23 37 -78q0 -47 -45 -83q-6 -4 -14 -11l-383 -309l121 -557q4 -20 4 -37q0 -37 -25.5 -66.5t-70.5 -29.5q-43 0 -86 37l-439 286l-452 -286q-49 -31 -78 -31 q-41 0 -69.5 28.5t-28.5 71.5q0 16 6 35l4 19l123 530l-389 309q-57 45 -58 94zM139 1087q0 -2 31 -32l426 -338l-135 -582q-8 -31 -8 -35q0 -16 14 -16q-4 0 37 20l454 287h78l451 -293q10 -20 35 -20q12 0 12 12q0 6 -6 37l-129 590l420 338l32 32q0 12 -16 15.5t-29 3.5 l-557 57l-225 520q-10 39 -25 39q-12 0 -28 -39l-199 -466q43 37 113 36q164 0 164 -188v-64q43 31 106 31q162 0 162 -188v-131h-141v174q0 41 -25 41q-23 0 -23 -37v-223h189v-78h-189v-148h-145v369h-123v-291h-147v545q0 55 18 96l-547 -55q-45 -4 -45 -19zM279 1055 l385 26q-2 -8 -2 -16v-307zM537 186l125 496v-213h249v291h21v-299zM735 625l29 -29l-6 -37l33 16l34 -16l-6 37l27 29l-37 6l-18 33l-17 -33zM735 768l29 -29l-6 -37l33 17l34 -17l-6 37l27 29l-37 6l-18 33l-17 -33zM735 911l29 -28l-6 -37l33 16l34 -16l-6 37l27 28 l-37 7l-18 32l-17 -32zM735 1055l29 -29l-6 -37l33 17l34 -17l-6 37l27 29l-37 6l-18 33l-17 -33zM766 1174l20 -21l-4 -31l27 15l29 -15l-7 31l23 21l-31 6l-14 26l-12 -26zM860 858l12 -12l-2 -17l17 9l14 -9l-2 17l12 12l-18 4l-6 15l-8 -15zM860 889h125q4 25 12 45h-90 v174q0 41 -26 41q-20 0 -21 -37v-223zM860 1217l12 -13l-2 -16l17 8l14 -8l-2 16l12 13l-18 4l-6 14l-8 -14zM887 1305zM887 1305l112 278l197 -491l520 -37l-348 -269v58q0 125 -68 188q-57 51 -145 51q-29 0 -57 -4q-2 115 -70 176q-55 49 -141 50zM913 1174l21 -21 l-4 -31l26 15l29 -15l-6 31l22 21l-30 6l-15 26l-12 -26zM920 1055l28 -29l-6 -37l33 17l35 -17l-6 37l26 29l-37 6l-18 33l-17 -33zM942 858l12 -12l-2 -17l17 9l14 -9l-2 17l12 12l-18 4l-6 15l-8 -15zM1004 541l28 -29l-6 -37l33 17l35 -17l-7 37l27 29l-37 6l-18 33 l-17 -33zM1004 684l28 -29l-6 -37l33 17l35 -17l-7 37l27 29l-37 6l-18 33l-17 -33zM1004 827l28 -28l-6 -37l33 16l35 -16l-7 37l27 28l-37 7l-18 32l-17 -32zM1034 946l21 -20l-4 -31l26 14l29 -14l-6 31l22 20l-30 6l-15 27l-12 -27zM1128 989l13 -12l-2 -16l16 8l14 -8 l-2 16l13 12l-19 4l-6 15l-8 -15zM1149 635l12 -12l-2 -17l15 8l16 -8l-2 17l12 12l-18 4l-8 14l-7 -14zM1161 391h19v148h184l84 -353zM1182 946l20 -20l-4 -31l27 14l28 -14l-6 31l23 20l-31 6l-14 27l-13 -27zM1188 827l29 -28l-7 -37l33 16l35 -16l-6 37l26 28l-36 7 l-19 32l-16 -32zM1231 635l12 -12l-2 -17l14 8l17 -8l-2 17l12 12l-18 4l-9 14l-6 -14z" />
<glyph unicode="&#xb8;" horiz-adv-x="454" d="M68 -408l8 97q2 49 47 49q8 0 26.5 -2t26.5 -2q25 0 33 16q2 4 0 8q-6 6 -33 6q-8 0 -23.5 -2t-23.5 -2q-39 0 -35 50l17 239q4 51 55 51h110q51 0 48 -51l-5 -67q80 -8 121 -63.5t35 -141.5q-8 -113 -93 -178.5t-204 -65.5q-115 0 -110 59z" />
<glyph unicode="&#xba;" horiz-adv-x="548" d="M-20 -109h610v-301h-610v301zM49 965l17 260q16 236 231 235q215 0 199 -235l-17 -260q-16 -236 -231 -236t-199 236zM227 924q-2 -49 31 -50q33 1 35 50l24 358q4 47 -28 47q-33 0 -37 -47z" />
<glyph unicode="&#xbb;" horiz-adv-x="833" d="M-20 -109h938v-301h-938v301zM-4 274l160 312l-125 327h288l132 -327l-160 -312h-295zM369 274l161 312l-124 327h288l131 -327l-161 -312h-295z" />
<glyph unicode="&#xbf;" horiz-adv-x="890" d="M-20 -109h938v-301h-938v301zM16 416q0 27 2 57l41 565h455l23 420l-228 119q-16 12 -16 16q10 4 20 9l246 77l64 281q4 23 12 20q6 -2 10 -14l146 -221l272 53q18 2 20 2q6 -2 2 -10q0 -2 -10 -12l-172 -234l113 -219l8 -18q-4 -6 -25 -2l-84 24l-34 -485h-471l-35 -488 q-6 -92 49 -92q63 0 72 98l24 371h352l-18 -260q-16 -254 -156 -375q-113 -98 -282 -98q-166 0 -271 86q-129 106 -129 330zM412 1581l182 -86l-12 -213l153 156l195 -62l-92 170l147 189l-223 -54l-109 185l-45 -228zM522 1571l2 2l121 33l25 143l4 2l65 -119l142 35l2 -2 l-95 -115l54 -102v-2l-115 43l-98 -98l10 133z" />
<glyph unicode="&#xc0;" horiz-adv-x="948" d="M-20 -109h938v-301h-938v301zM35 416q0 27 2 57l2 16q16 254 166 375q119 98 297 99q-18 0 51 -9l14 205q6 86 -55 86q-55 0 -61 -86l-13 -170h-364l2 39q16 233 119.5 334.5t312.5 101.5q195 0 285 -73q106 -86 106 -285q0 -31 -2 -64l-74 -1042h-389q-168 0 -270 86 q-129 106 -129 330zM80 1778q0 49 63 49h352q25 0 37 -19q55 -72 111 -143q63 -86 63 -125q0 -37 -59 -37h-148q-14 4 -24 6l-365 222q-31 18 -30 47zM395 387q-6 -94 60 -94q65 0 71 94l17 217q6 94 -60 94t-71 -94z" />
<glyph unicode="&#xc1;" horiz-adv-x="897" d="M-20 -109h938v-301h-938v301zM35 416q0 27 2 57l2 16q16 254 166 375q119 98 297 99q-18 0 51 -9l14 205q6 86 -55 86q-55 0 -61 -86l-13 -170h-364l2 39q16 233 119.5 334.5t312.5 101.5q195 0 285 -73q106 -86 106 -285q0 -31 -2 -64l-74 -1042h-389q-168 0 -270 86 q-129 106 -129 330zM264 1534q0 37 76 125q67 73 133 149q16 18 43 19h352q55 0 55 -43q0 -31 -36 -53l-398 -222q-4 -2 -26 -6h-148q-51 0 -51 31zM395 387q-6 -94 60 -94q65 0 71 94l17 217q6 94 -60 94t-71 -94z" />
<glyph unicode="&#xc2;" horiz-adv-x="892" d="M-20 -109h938v-301h-938v301zM35 416q0 27 2 57l2 16q16 254 166 375q119 98 297 99q-18 0 51 -9l14 205q6 86 -55 86q-55 0 -61 -86l-13 -170h-364l2 39q16 233 119.5 334.5t312.5 101.5q195 0 285 -73q106 -86 106 -285q0 -31 -2 -64l-74 -1042h-389q-168 0 -270 86 q-129 106 -129 330zM106 1544q0 25 25 47l248 222q14 14 37 14h172q18 0 32 -14l224 -222q20 -18 20 -41q0 -47 -61 -47h-175q-31 0 -73 23q-33 20 -68 39q-37 -18 -74 -39q-45 -23 -77 -23h-176q-53 0 -54 41zM395 387q-6 -94 60 -94q65 0 71 94l17 217q6 94 -60 94 t-71 -94z" />
<glyph unicode="&#xc3;" horiz-adv-x="948" d="M-20 -109h938v-301h-938v301zM35 416q0 27 2 57l2 16q16 254 166 375q119 98 297 99q-18 0 51 -9l14 205q6 86 -55 86q-55 0 -61 -86l-13 -170h-364l2 39q16 233 119.5 334.5t312.5 101.5q195 0 285 -73q106 -86 106 -285q0 -31 -2 -64l-74 -1042h-389q-168 0 -270 86 q-129 106 -129 330zM143 1618q0 14 8 29q133 180 271 180q51 0 118.5 -37t94.5 -37q18 0 46.5 31t47.5 31q12 0 26 -11l54 -32q37 -27 37 -54q0 -14 -9 -26q-116 -189 -284 -189q-49 0 -118 34t-87 34q-14 0 -44 -32t-50 -32q-14 0 -31 15q-23 18 -47 39q-33 31 -33 57z M395 387q-6 -94 60 -94q65 0 71 94l17 217q6 94 -60 94t-71 -94z" />
<glyph unicode="&#xc4;" horiz-adv-x="948" d="M-20 -109h938v-301h-938v301zM35 416q0 27 2 57l2 16q16 254 166 375q119 98 297 99q-18 0 51 -9l14 205q6 86 -55 86q-55 0 -61 -86l-13 -170h-364l2 39q16 233 119.5 334.5t312.5 101.5q195 0 285 -73q106 -86 106 -285q0 -31 -2 -64l-74 -1042h-389q-168 0 -270 86 q-129 106 -129 330zM37 1665q6 94 94 154q74 49 164 49q143 0 207 -101q78 100 219 101q92 0 159 -49q78 -59 72 -154q-6 -96 -94 -156q-74 -49 -164 -49q-143 0 -207 101q-78 -101 -219 -101q-92 0 -160 49q-78 59 -71 156zM395 387q-6 -94 60 -94q65 0 71 94l17 217 q6 94 -60 94t-71 -94z" />
<glyph unicode="&#xc5;" horiz-adv-x="948" d="M-20 -109h938v-301h-938v301zM35 416q0 27 2 57l2 16q16 254 166 375q119 98 297 99q-18 0 51 -9l14 205q6 86 -55 86q-55 0 -61 -86l-13 -170h-364l2 39q16 233 119.5 334.5t312.5 101.5q195 0 285 -73q106 -86 106 -285q0 -31 -2 -64l-74 -1042h-389q-168 0 -270 86 q-129 106 -129 330zM256 1716q6 96 78.5 164t171.5 68q92 0 157.5 -68t59.5 -164t-79 -164.5t-171 -68.5t-160.5 69.5t-56.5 163.5zM395 387q-6 -94 60 -94q65 0 71 94l17 217q6 94 -60 94t-71 -94zM397 1716q-2 -39 22.5 -65.5t63.5 -26.5t67.5 28.5t30.5 63.5 q2 37 -23.5 63.5t-62.5 26.5q-35 0 -65.5 -27.5t-32.5 -62.5z" />
<glyph unicode="&#xc6;" horiz-adv-x="1386" d="M-20 -109h1433v-301h-1433v301zM35 416q0 27 2 57l2 16q16 254 166 375q119 98 297 99q-18 0 51 -9l14 205q6 86 -55 86q-55 0 -61 -86l-13 -170h-364l2 39q16 233 119.5 334.5t312.5 101.5q184 0 274 -65q106 63 250 63q158 0 256 -86q119 -104 119 -325q0 -29 -2 -62 l-19 -260h-352l27 371q6 98 -57 98q-55 0 -62 -92l-35 -488h471l-14 -194h-471l-8 -129h471l-21 -295h-901q-168 0 -270 86q-129 106 -129 330zM395 387q-6 -94 60 -94q65 0 71 94l17 217q6 94 -60 94t-71 -94z" />
<glyph unicode="&#xc7;" horiz-adv-x="948" d="M-20 -109h329l-28 -301h-301v301zM47 387q0 31 2 66l39 557q33 453 490 452q205 0 305 -108t86 -303l-21 -322h-377l27 387q2 49 -4 70q-12 31 -57 31q-57 0 -64 -97l-55 -778q-6 -96 51 -96q45 0 61 35q10 23 15 84l18 253h377l-14 -198q-14 -190 -133 -303t-316 -117 l-4 -37h23q147 0 137 -156q-6 -88 -72.5 -140t-169.5 -52q-39 0 -61 8l6 96q14 -6 47 -6q39 0 66 25q20 18 22 43q4 66 -82 65q-18 0 -35 -6l13 168q-319 39 -320 379zM530 -410q158 68 158 232q0 36 -12 69h303v-301h-449z" />
<glyph unicode="&#xc8;" horiz-adv-x="913" d="M-20 -109h938v-301h-938v301zM4 0l70 989q16 254 166 375q119 98 297 98q158 0 256 -86q119 -104 118 -325q0 -29 -2 -62l-18 -260h-352l26 371q6 98 -57 98q-55 0 -62 -92l-34 -488h471l-15 -194h-471l-8 -129h471l-20 -295h-836zM27 1778q0 49 63 49h352q25 0 37 -19 q55 -72 111 -143q63 -86 63 -125q0 -37 -59 -37h-148q-14 4 -24 6l-365 222q-31 18 -30 47z" />
<glyph unicode="&#xc9;" horiz-adv-x="720" d="M-20 -109h938v-301h-938v301zM4 0l70 989q16 254 166 375q119 98 297 98q158 0 256 -86q119 -104 118 -325q0 -29 -2 -62l-18 -260h-352l26 371q6 98 -57 98q-55 0 -62 -92l-34 -488h471l-15 -194h-471l-8 -129h471l-20 -295h-836zM375 1534q0 37 76 125q67 73 133 149 q16 18 43 19h352q55 0 55 -43q0 -31 -36 -53l-398 -222q-4 -2 -26 -6h-148q-51 0 -51 31z" />
<glyph unicode="&#xca;" horiz-adv-x="876" d="M-20 -109h938v-301h-938v301zM4 0l70 989q16 254 166 375q119 98 297 98q158 0 256 -86q119 -104 118 -325q0 -29 -2 -62l-18 -260h-352l26 371q6 98 -57 98q-55 0 -62 -92l-34 -488h471l-15 -194h-471l-8 -129h471l-20 -295h-836zM114 1544q0 25 25 47l248 222 q14 14 37 14h172q18 0 32 -14l224 -222q20 -18 20 -41q0 -47 -61 -47h-175q-31 0 -73 23q-33 20 -68 39q-37 -18 -74 -39q-45 -23 -77 -23h-176q-53 0 -54 41z" />
<glyph unicode="&#xcb;" horiz-adv-x="909" d="M-20 -109h938v-301h-938v301zM4 0l70 989q16 254 166 375q119 98 297 98q158 0 256 -86q119 -104 118 -325q0 -29 -2 -62l-18 -260h-352l26 371q6 98 -57 98q-55 0 -62 -92l-34 -488h471l-15 -194h-471l-8 -129h471l-20 -295h-836zM45 1665q6 94 94 154q74 49 164 49 q143 0 207 -101q78 100 219 101q92 0 159 -49q78 -59 72 -154q-6 -96 -94 -156q-74 -49 -164 -49q-143 0 -207 101q-78 -101 -219 -101q-92 0 -160 49q-78 59 -71 156z" />
<glyph unicode="&#xcc;" horiz-adv-x="454" d="M-168 1778q0 49 63 49h352q25 0 37 -19q55 -72 111 -143q63 -86 63 -125q0 -37 -59 -37h-148q-14 4 -24 6l-365 222q-31 18 -30 47zM-20 -109h471v-301h-471v301zM4 0l102 1462h377l-102 -1462h-377z" />
<glyph unicode="&#xcd;" horiz-adv-x="454" d="M-20 -109h471v-301h-471v301zM4 0l102 1462h377l-102 -1462h-377zM16 1534q0 37 76 125q67 73 133 149q16 18 43 19h352q55 0 55 -43q0 -31 -36 -53l-398 -222q-4 -2 -26 -6h-148q-51 0 -51 31z" />
<glyph unicode="&#xce;" horiz-adv-x="454" d="M-142 1544q0 25 25 47l248 222q14 14 37 14h172q18 0 32 -14l224 -222q20 -18 20 -41q0 -47 -61 -47h-175q-31 0 -73 23q-33 20 -68 39q-37 -18 -74 -39q-45 -23 -77 -23h-176q-53 0 -54 41zM-20 -109h471v-301h-471v301zM4 0l102 1462h377l-102 -1462h-377z" />
<glyph unicode="&#xcf;" horiz-adv-x="454" d="M-211 1665q6 94 94 154q74 49 164 49q143 0 207 -101q78 100 219 101q92 0 159 -49q78 -59 72 -154q-6 -96 -94 -156q-74 -49 -164 -49q-143 0 -207 101q-78 -101 -219 -101q-92 0 -160 49q-78 59 -71 156zM-20 -109h471v-301h-471v301zM4 0l102 1462h377l-102 -1462 h-377z" />
<glyph unicode="&#xd0;" horiz-adv-x="1990" d="M55 1087q0 90 121 103l514 51q68 170 215 504q33 61 94 61q76 0 103 -88l205 -477l512 -51q61 -14 79 -25q37 -23 37 -78q0 -47 -45 -83q-6 -4 -14 -11l-383 -309l121 -557q4 -20 4 -37q0 -37 -25.5 -66.5t-70.5 -29.5q-43 0 -86 37l-439 286l-452 -286q-49 -31 -78 -31 q-41 0 -69.5 28.5t-28.5 71.5q0 16 6 35l4 19l123 530l-389 309q-57 45 -58 94zM139 1087q0 -2 31 -32l426 -338l-135 -582q-8 -31 -8 -35q0 -16 14 -16q-4 0 37 20l454 287h78l451 -293q10 -20 35 -20q12 0 12 12q0 6 -6 37l-129 590l420 338l32 32q0 12 -16 15.5t-29 3.5 l-557 57l-225 520q-10 39 -25 39q-12 0 -28 -39l-199 -466q43 37 113 36q164 0 164 -188v-64q43 31 106 31q162 0 162 -188v-131h-141v174q0 41 -25 41q-23 0 -23 -37v-223h189v-78h-189v-148h-145v369h-123v-291h-147v545q0 55 18 96l-547 -55q-45 -4 -45 -19zM279 1055 l385 26q-2 -8 -2 -16v-307zM537 186l125 496v-213h249v291h21v-299zM735 625l29 -29l-6 -37l33 16l34 -16l-6 37l27 29l-37 6l-18 33l-17 -33zM735 768l29 -29l-6 -37l33 17l34 -17l-6 37l27 29l-37 6l-18 33l-17 -33zM735 911l29 -28l-6 -37l33 16l34 -16l-6 37l27 28 l-37 7l-18 32l-17 -32zM735 1055l29 -29l-6 -37l33 17l34 -17l-6 37l27 29l-37 6l-18 33l-17 -33zM766 1174l20 -21l-4 -31l27 15l29 -15l-7 31l23 21l-31 6l-14 26l-12 -26zM860 858l12 -12l-2 -17l17 9l14 -9l-2 17l12 12l-18 4l-6 15l-8 -15zM860 889h125q4 25 12 45h-90 v174q0 41 -26 41q-20 0 -21 -37v-223zM860 1217l12 -13l-2 -16l17 8l14 -8l-2 16l12 13l-18 4l-6 14l-8 -14zM887 1305zM887 1305l112 278l197 -491l520 -37l-348 -269v58q0 125 -68 188q-57 51 -145 51q-29 0 -57 -4q-2 115 -70 176q-55 49 -141 50zM913 1174l21 -21 l-4 -31l26 15l29 -15l-6 31l22 21l-30 6l-15 26l-12 -26zM920 1055l28 -29l-6 -37l33 17l35 -17l-6 37l26 29l-37 6l-18 33l-17 -33zM942 858l12 -12l-2 -17l17 9l14 -9l-2 17l12 12l-18 4l-6 15l-8 -15zM1004 541l28 -29l-6 -37l33 17l35 -17l-7 37l27 29l-37 6l-18 33 l-17 -33zM1004 684l28 -29l-6 -37l33 17l35 -17l-7 37l27 29l-37 6l-18 33l-17 -33zM1004 827l28 -28l-6 -37l33 16l35 -16l-7 37l27 28l-37 7l-18 32l-17 -32zM1034 946l21 -20l-4 -31l26 14l29 -14l-6 31l22 20l-30 6l-15 27l-12 -27zM1128 989l13 -12l-2 -16l16 8l14 -8 l-2 16l13 12l-19 4l-6 15l-8 -15zM1149 635l12 -12l-2 -17l15 8l16 -8l-2 17l12 12l-18 4l-8 14l-7 -14zM1161 391h19v148h184l84 -353zM1182 946l20 -20l-4 -31l27 14l28 -14l-6 31l23 20l-31 6l-14 27l-13 -27zM1188 827l29 -28l-7 -37l33 16l35 -16l-6 37l26 28l-36 7 l-19 32l-16 -32zM1231 635l12 -12l-2 -17l14 8l17 -8l-2 17l12 12l-18 4l-9 14l-6 -14z" />
<glyph unicode="&#xd1;" horiz-adv-x="948" d="M-20 -109h938v-301h-938v301zM4 0l102 1462h590q223 0 224 -315q0 -31 -2 -66l-76 -1081h-365l76 1069q6 102 -51 102q-51 0 -60 -104l-73 -1067h-365zM143 1618q0 14 8 29q133 180 271 180q51 0 118.5 -37t94.5 -37q18 0 46.5 31t47.5 31q12 0 26 -11l54 -32 q37 -27 37 -54q0 -14 -9 -26q-116 -189 -284 -189q-49 0 -118 34t-87 34q-14 0 -44 -32t-50 -32q-14 0 -31 15q-23 18 -47 39q-33 31 -33 57z" />
<glyph unicode="&#xd2;" horiz-adv-x="933" d="M-20 -109h958v-301h-958v301zM35 416q0 27 2 57l37 516q16 254 166 375q119 98 297 98q168 0 270 -86q129 -106 129 -329q0 -27 -2 -58l-37 -516q-16 -254 -166 -375q-119 -98 -297 -98q-168 0 -270 86q-129 106 -129 330zM99 1778q0 49 63 49h352q25 0 37 -19 q55 -72 111 -143q63 -86 63 -125q0 -37 -59 -37h-148q-14 4 -24 6l-365 222q-31 18 -30 47zM395 387q-6 -94 60 -94q65 0 71 94l52 717q6 94 -60 94t-72 -94z" />
<glyph unicode="&#xd3;" horiz-adv-x="929" d="M-20 -109h958v-301h-958v301zM35 416q0 27 2 57l37 516q16 254 166 375q119 98 297 98q168 0 270 -86q129 -106 129 -329q0 -27 -2 -58l-37 -516q-16 -254 -166 -375q-119 -98 -297 -98q-168 0 -270 86q-129 106 -129 330zM283 1534q0 37 76 125q67 73 133 149 q16 18 43 19h352q55 0 55 -43q0 -31 -36 -53l-398 -222q-4 -2 -26 -6h-148q-51 0 -51 31zM395 387q-6 -94 60 -94q65 0 71 94l52 717q6 94 -60 94t-72 -94z" />
<glyph unicode="&#xd4;" horiz-adv-x="933" d="M-20 -109h958v-301h-958v301zM35 416q0 27 2 57l37 516q16 254 166 375q119 98 297 98q168 0 270 -86q129 -106 129 -329q0 -27 -2 -58l-37 -516q-16 -254 -166 -375q-119 -98 -297 -98q-168 0 -270 86q-129 106 -129 330zM125 1544q0 25 25 47l248 222q14 14 37 14h172 q18 0 32 -14l224 -222q20 -18 20 -41q0 -47 -61 -47h-175q-31 0 -73 23q-33 20 -68 39q-37 -18 -74 -39q-45 -23 -77 -23h-176q-53 0 -54 41zM395 387q-6 -94 60 -94q65 0 71 94l52 717q6 94 -60 94t-72 -94z" />
<glyph unicode="&#xd5;" horiz-adv-x="987" d="M-20 -109h958v-301h-958v301zM35 416q0 27 2 57l37 516q16 254 166 375q119 98 297 98q168 0 270 -86q129 -106 129 -329q0 -27 -2 -58l-37 -516q-16 -254 -166 -375q-119 -98 -297 -98q-168 0 -270 86q-129 106 -129 330zM162 1618q0 14 8 29q133 180 271 180 q51 0 118.5 -37t94.5 -37q18 0 46.5 31t47.5 31q12 0 26 -11l54 -32q37 -27 37 -54q0 -14 -9 -26q-116 -189 -284 -189q-49 0 -118 34t-87 34q-14 0 -44 -32t-50 -32q-14 0 -31 15q-23 18 -47 39q-33 31 -33 57zM395 387q-6 -94 60 -94q65 0 71 94l52 717q6 94 -60 94 t-72 -94z" />
<glyph unicode="&#xd6;" horiz-adv-x="987" d="M-20 -109h958v-301h-958v301zM35 416q0 27 2 57l37 516q16 254 166 375q119 98 297 98q168 0 270 -86q129 -106 129 -329q0 -27 -2 -58l-37 -516q-16 -254 -166 -375q-119 -98 -297 -98q-168 0 -270 86q-129 106 -129 330zM56 1663q6 94 94 154q74 49 164 49 q143 0 207 -101q78 100 219 101q92 0 159 -49q78 -59 72 -154q-6 -96 -94 -156q-74 -49 -164 -49q-143 0 -207 101q-78 -101 -219 -101q-92 0 -160 49q-78 59 -71 156zM395 387q-6 -94 60 -94q65 0 71 94l52 717q6 94 -60 94t-72 -94z" />
<glyph unicode="&#xd8;" d="M-20 -109h958v-301h-958v301zM35 416q0 27 2 57l37 516q16 254 166 375q119 98 297 98q168 0 270 -86q129 -106 129 -329q0 -27 -2 -58l-37 -516q-16 -254 -166 -375q-119 -98 -297 -98q-168 0 -270 86q-129 106 -129 330zM395 387q-6 -94 60 -94q65 0 71 94l27 369 l-135 -47zM432 907l135 49l11 148q6 94 -60 94t-72 -94z" />
<glyph unicode="&#xd9;" horiz-adv-x="917" d="M-20 -109h938v-301h-938v301zM29 315q0 31 2 66l75 1081h365l-76 -1069q-6 -102 51 -102q51 0 60 104l74 1067h364l-102 -1462h-590q-223 0 -223 315zM99 1778q0 49 63 49h352q25 0 37 -19q55 -72 111 -143q63 -86 63 -125q0 -37 -59 -37h-148q-14 4 -24 6l-365 222 q-31 18 -30 47z" />
<glyph unicode="&#xda;" horiz-adv-x="921" d="M-20 -109h938v-301h-938v301zM29 315q0 31 2 66l75 1081h365l-76 -1069q-6 -102 51 -102q51 0 60 104l74 1067h364l-102 -1462h-590q-223 0 -223 315zM283 1534q0 37 76 125q67 73 133 149q16 18 43 19h352q55 0 55 -43q0 -31 -36 -53l-398 -222q-4 -2 -26 -6h-148 q-51 0 -51 31z" />
<glyph unicode="&#xdb;" horiz-adv-x="909" d="M-20 -109h938v-301h-938v301zM29 315q0 31 2 66l75 1081h365l-76 -1069q-6 -102 51 -102q51 0 60 104l74 1067h364l-102 -1462h-590q-223 0 -223 315zM125 1544q0 25 25 47l248 222q14 14 37 14h172q18 0 32 -14l224 -222q20 -18 20 -41q0 -47 -61 -47h-175q-31 0 -73 23 q-33 20 -68 39q-37 -18 -74 -39q-45 -23 -77 -23h-176q-53 0 -54 41z" />
<glyph unicode="&#xdc;" horiz-adv-x="987" d="M-20 -109h938v-301h-938v301zM29 315q0 31 2 66l75 1081h365l-76 -1069q-6 -102 51 -102q51 0 60 104l74 1067h364l-102 -1462h-590q-223 0 -223 315zM35 1665q6 94 94 154q74 49 164 49q143 0 207 -101q78 100 219 101q92 0 159 -49q78 -59 72 -154q-6 -96 -94 -156 q-74 -49 -164 -49q-143 0 -207 101q-78 -101 -219 -101q-92 0 -160 49q-78 59 -71 156z" />
<glyph unicode="&#xdd;" horiz-adv-x="909" d="M10 -270q0 31 4 61l11 146h352l-19 -256q-8 -98 56 -99q55 0 63 92l23 326h-224q-225 0 -225 315q0 31 4 66l76 1081h365l-76 -1069q-6 -102 51 -102q51 0 57 104l76 1067h365l-103 -1462h-2l-14 -209q-18 -254 -168 -375q-117 -98 -297 -98q-158 0 -254 86 q-121 104 -121 326zM244 1534q0 37 76 125q67 73 133 149q16 18 43 19h352q55 0 55 -43q0 -31 -36 -53l-398 -222q-4 -2 -26 -6h-148q-51 0 -51 31z" />
<glyph unicode="&#xde;" horiz-adv-x="1990" d="M55 1087q0 90 121 103l514 51q68 170 215 504q33 61 94 61q76 0 103 -88l205 -477l512 -51q61 -14 79 -25q37 -23 37 -78q0 -47 -45 -83q-6 -4 -14 -11l-383 -309l121 -557q4 -20 4 -37q0 -37 -25.5 -66.5t-70.5 -29.5q-43 0 -86 37l-439 286l-452 -286q-49 -31 -78 -31 q-41 0 -69.5 28.5t-28.5 71.5q0 16 6 35l4 19l123 530l-389 309q-57 45 -58 94zM139 1087q0 -2 31 -32l426 -338l-135 -582q-8 -31 -8 -35q0 -16 14 -16q-4 0 37 20l454 287h78l451 -293q10 -20 35 -20q12 0 12 12q0 6 -6 37l-129 590l420 338l32 32q0 12 -16 15.5t-29 3.5 l-557 57l-225 520q-10 39 -25 39q-12 0 -28 -39l-199 -466q43 37 113 36q164 0 164 -188v-64q43 31 106 31q162 0 162 -188v-131h-141v174q0 41 -25 41q-23 0 -23 -37v-223h189v-78h-189v-148h-145v369h-123v-291h-147v545q0 55 18 96l-547 -55q-45 -4 -45 -19zM279 1055 l385 26q-2 -8 -2 -16v-307zM537 186l125 496v-213h249v291h21v-299zM735 625l29 -29l-6 -37l33 16l34 -16l-6 37l27 29l-37 6l-18 33l-17 -33zM735 768l29 -29l-6 -37l33 17l34 -17l-6 37l27 29l-37 6l-18 33l-17 -33zM735 911l29 -28l-6 -37l33 16l34 -16l-6 37l27 28 l-37 7l-18 32l-17 -32zM735 1055l29 -29l-6 -37l33 17l34 -17l-6 37l27 29l-37 6l-18 33l-17 -33zM766 1174l20 -21l-4 -31l27 15l29 -15l-7 31l23 21l-31 6l-14 26l-12 -26zM860 858l12 -12l-2 -17l17 9l14 -9l-2 17l12 12l-18 4l-6 15l-8 -15zM860 889h125q4 25 12 45h-90 v174q0 41 -26 41q-20 0 -21 -37v-223zM860 1217l12 -13l-2 -16l17 8l14 -8l-2 16l12 13l-18 4l-6 14l-8 -14zM887 1305zM887 1305l112 278l197 -491l520 -37l-348 -269v58q0 125 -68 188q-57 51 -145 51q-29 0 -57 -4q-2 115 -70 176q-55 49 -141 50zM913 1174l21 -21 l-4 -31l26 15l29 -15l-6 31l22 21l-30 6l-15 26l-12 -26zM920 1055l28 -29l-6 -37l33 17l35 -17l-6 37l26 29l-37 6l-18 33l-17 -33zM942 858l12 -12l-2 -17l17 9l14 -9l-2 17l12 12l-18 4l-6 15l-8 -15zM1004 541l28 -29l-6 -37l33 17l35 -17l-7 37l27 29l-37 6l-18 33 l-17 -33zM1004 684l28 -29l-6 -37l33 17l35 -17l-7 37l27 29l-37 6l-18 33l-17 -33zM1004 827l28 -28l-6 -37l33 16l35 -16l-7 37l27 28l-37 7l-18 32l-17 -32zM1034 946l21 -20l-4 -31l26 14l29 -14l-6 31l22 20l-30 6l-15 27l-12 -27zM1128 989l13 -12l-2 -16l16 8l14 -8 l-2 16l13 12l-19 4l-6 15l-8 -15zM1149 635l12 -12l-2 -17l15 8l16 -8l-2 17l12 12l-18 4l-8 14l-7 -14zM1161 391h19v148h184l84 -353zM1182 946l20 -20l-4 -31l27 14l28 -14l-6 31l23 20l-31 6l-14 27l-13 -27zM1188 827l29 -28l-7 -37l33 16l35 -16l-6 37l26 28l-36 7 l-19 32l-16 -32zM1231 635l12 -12l-2 -17l14 8l17 -8l-2 17l12 12l-18 4l-9 14l-6 -14z" />
<glyph unicode="&#xdf;" horiz-adv-x="919" d="M-33 -1032l142 2021q18 254 167 375q117 98 297 98h70q182 0 265 -74.5t73 -246.5l-6 -72q-8 -129 -87 -202.5t-206 -78.5l2 -4q125 -4 178 -49q61 -51 53 -170l-8 -104q-14 -225 -132 -343t-304 -118q-8 82 -8 147q0 117 26 117q66 0 72 94l19 281q8 94 -58 94t-73 -94 l-117 -1671h-365zM422 -410l20 301h516v-301h-536zM471 938q-8 -94 57 -94q66 0 74 94l10 143q8 117 -57 117q-66 0 -74 -111z" />
<glyph unicode="&#xe0;" horiz-adv-x="948" d="M-20 -109h938v-301h-938v301zM35 416q0 27 2 57l2 16q16 254 166 375q119 98 297 99q-18 0 51 -9l14 205q6 86 -55 86q-55 0 -61 -86l-13 -170h-364l2 39q16 233 119.5 334.5t312.5 101.5q195 0 285 -73q106 -86 106 -285q0 -31 -2 -64l-74 -1042h-389q-168 0 -270 86 q-129 106 -129 330zM80 1778q0 49 63 49h352q25 0 37 -19q55 -72 111 -143q63 -86 63 -125q0 -37 -59 -37h-148q-14 4 -24 6l-365 222q-31 18 -30 47zM395 387q-6 -94 60 -94q65 0 71 94l17 217q6 94 -60 94t-71 -94z" />
<glyph unicode="&#xe1;" horiz-adv-x="948" d="M-20 -109h938v-301h-938v301zM35 416q0 27 2 57l2 16q16 254 166 375q119 98 297 99q-18 0 51 -9l14 205q6 86 -55 86q-55 0 -61 -86l-13 -170h-364l2 39q16 233 119.5 334.5t312.5 101.5q195 0 285 -73q106 -86 106 -285q0 -31 -2 -64l-74 -1042h-389q-168 0 -270 86 q-129 106 -129 330zM264 1534q0 37 76 125q67 73 133 149q16 18 43 19h352q55 0 55 -43q0 -31 -36 -53l-398 -222q-4 -2 -26 -6h-148q-51 0 -51 31zM395 387q-6 -94 60 -94q65 0 71 94l17 217q6 94 -60 94t-71 -94z" />
<glyph unicode="&#xe2;" horiz-adv-x="948" d="M-20 -109h938v-301h-938v301zM35 416q0 27 2 57l2 16q16 254 166 375q119 98 297 99q-18 0 51 -9l14 205q6 86 -55 86q-55 0 -61 -86l-13 -170h-364l2 39q16 233 119.5 334.5t312.5 101.5q195 0 285 -73q106 -86 106 -285q0 -31 -2 -64l-74 -1042h-389q-168 0 -270 86 q-129 106 -129 330zM106 1544q0 25 25 47l248 222q14 14 37 14h172q18 0 32 -14l224 -222q20 -18 20 -41q0 -47 -61 -47h-175q-31 0 -73 23q-33 20 -68 39q-37 -18 -74 -39q-45 -23 -77 -23h-176q-53 0 -54 41zM395 387q-6 -94 60 -94q65 0 71 94l17 217q6 94 -60 94 t-71 -94z" />
<glyph unicode="&#xe3;" horiz-adv-x="948" d="M-20 -109h938v-301h-938v301zM35 416q0 27 2 57l2 16q16 254 166 375q119 98 297 99q-18 0 51 -9l14 205q6 86 -55 86q-55 0 -61 -86l-13 -170h-364l2 39q16 233 119.5 334.5t312.5 101.5q195 0 285 -73q106 -86 106 -285q0 -31 -2 -64l-74 -1042h-389q-168 0 -270 86 q-129 106 -129 330zM143 1618q0 14 8 29q133 180 271 180q51 0 118.5 -37t94.5 -37q18 0 46.5 31t47.5 31q12 0 26 -11l54 -32q37 -27 37 -54q0 -14 -9 -26q-116 -189 -284 -189q-49 0 -118 34t-87 34q-14 0 -44 -32t-50 -32q-14 0 -31 15q-23 18 -47 39q-33 31 -33 57z M395 387q-6 -94 60 -94q65 0 71 94l17 217q6 94 -60 94t-71 -94z" />
<glyph unicode="&#xe4;" horiz-adv-x="948" d="M-20 -109h938v-301h-938v301zM35 416q0 27 2 57l2 16q16 254 166 375q119 98 297 99q-18 0 51 -9l14 205q6 86 -55 86q-55 0 -61 -86l-13 -170h-364l2 39q16 233 119.5 334.5t312.5 101.5q195 0 285 -73q106 -86 106 -285q0 -31 -2 -64l-74 -1042h-389q-168 0 -270 86 q-129 106 -129 330zM37 1665q6 94 94 154q74 49 164 49q143 0 207 -101q78 100 219 101q92 0 159 -49q78 -59 72 -154q-6 -96 -94 -156q-74 -49 -164 -49q-143 0 -207 101q-78 -101 -219 -101q-92 0 -160 49q-78 59 -71 156zM395 387q-6 -94 60 -94q65 0 71 94l17 217 q6 94 -60 94t-71 -94z" />
<glyph unicode="&#xe5;" horiz-adv-x="948" d="M-20 -109h938v-301h-938v301zM35 416q0 27 2 57l2 16q16 254 166 375q119 98 297 99q-18 0 51 -9l14 205q6 86 -55 86q-55 0 -61 -86l-13 -170h-364l2 39q16 233 119.5 334.5t312.5 101.5q195 0 285 -73q106 -86 106 -285q0 -31 -2 -64l-74 -1042h-389q-168 0 -270 86 q-129 106 -129 330zM256 1716q6 96 78.5 164t171.5 68q92 0 157.5 -68t59.5 -164t-79 -164.5t-171 -68.5t-160.5 69.5t-56.5 163.5zM395 387q-6 -94 60 -94q65 0 71 94l17 217q6 94 -60 94t-71 -94zM397 1716q-2 -39 22.5 -65.5t63.5 -26.5t67.5 28.5t30.5 63.5 q2 37 -23.5 63.5t-62.5 26.5q-35 0 -65.5 -27.5t-32.5 -62.5z" />
<glyph unicode="&#xe6;" horiz-adv-x="1386" d="M-20 -109h1445v-301h-1445v301zM35 416q0 27 2 57l2 16q16 254 166 375q119 98 297 99q-18 0 51 -9l14 205q6 86 -55 86q-55 0 -61 -86l-13 -170h-364l2 39q16 233 119.5 334.5t312.5 101.5q182 0 274 -65q106 63 248 63q158 0 262 -102q127 -127 111 -371l-19 -260h-471 l-26 -373q-6 -92 49 -92q63 0 70 98l18 256h352l-10 -145q-18 -254 -156 -375q-113 -98 -282 -98h-494q-168 0 -270 86q-129 106 -129 330zM395 387q-6 -94 60 -94q65 0 71 94l2 27q0 10 2 28v31l13 158q-8 68 -60 67q-66 0 -71 -94zM928 924h119l12 176q6 98 -58 98 q-55 0 -61 -92z" />
<glyph unicode="&#xe7;" horiz-adv-x="948" d="M-20 -109h329l-28 -301h-301v301zM47 387q0 31 2 66l39 557q33 453 490 452q205 0 305 -108t86 -303l-21 -322h-377l27 387q2 49 -4 70q-12 31 -57 31q-57 0 -64 -97l-55 -778q-6 -96 51 -96q45 0 61 35q10 23 15 84l18 253h377l-14 -198q-14 -190 -133 -303t-316 -117 l-4 -37h23q147 0 137 -156q-6 -88 -72.5 -140t-169.5 -52q-39 0 -61 8l6 96q14 -6 47 -6q39 0 66 25q20 18 22 43q4 66 -82 65q-18 0 -35 -6l13 168q-319 39 -320 379zM530 -410q158 68 158 232q0 36 -12 69h303v-301h-449z" />
<glyph unicode="&#xe8;" horiz-adv-x="909" d="M-20 -109h938v-301h-938v301zM27 1778q0 49 63 49h352q25 0 37 -19q55 -72 111 -143q63 -86 63 -125q0 -37 -59 -37h-148q-14 4 -24 6l-365 222q-31 18 -30 47zM35 416q0 27 2 57l37 516q16 254 166 375q119 98 297 98q158 0 262 -102q127 -127 110 -371l-18 -260h-471 l-27 -373q-6 -92 49 -92q63 0 70 98l18 256h353l-11 -145q-16 -254 -155 -375q-113 -98 -283 -98q-168 0 -270 86q-129 106 -129 330zM434 924h119l12 176q6 98 -57 98q-55 0 -62 -92z" />
<glyph unicode="&#xe9;" horiz-adv-x="909" d="M-20 -109h938v-301h-938v301zM35 416q0 27 2 57l37 516q16 254 166 375q119 98 297 98q158 0 262 -102q127 -127 110 -371l-18 -260h-471l-27 -373q-6 -92 49 -92q63 0 70 98l18 256h353l-11 -145q-16 -254 -155 -375q-113 -98 -283 -98q-168 0 -270 86 q-129 106 -129 330zM375 1534q0 37 76 125q67 73 133 149q16 18 43 19h352q55 0 55 -43q0 -31 -36 -53l-398 -222q-4 -2 -26 -6h-148q-51 0 -51 31zM434 924h119l12 176q6 98 -57 98q-55 0 -62 -92z" />
<glyph unicode="&#xea;" horiz-adv-x="909" d="M-20 -109h938v-301h-938v301zM35 416q0 27 2 57l37 516q16 254 166 375q119 98 297 98q158 0 262 -102q127 -127 110 -371l-18 -260h-471l-27 -373q-6 -92 49 -92q63 0 70 98l18 256h353l-11 -145q-16 -254 -155 -375q-113 -98 -283 -98q-168 0 -270 86 q-129 106 -129 330zM114 1544q0 25 25 47l248 222q14 14 37 14h172q18 0 32 -14l224 -222q20 -18 20 -41q0 -47 -61 -47h-175q-31 0 -73 23q-33 20 -68 39q-37 -18 -74 -39q-45 -23 -77 -23h-176q-53 0 -54 41zM434 924h119l12 176q6 98 -57 98q-55 0 -62 -92z" />
<glyph unicode="&#xeb;" horiz-adv-x="909" d="M-20 -109h938v-301h-938v301zM35 416q0 27 2 57l37 516q16 254 166 375q119 98 297 98q158 0 262 -102q127 -127 110 -371l-18 -260h-471l-27 -373q-6 -92 49 -92q63 0 70 98l18 256h353l-11 -145q-16 -254 -155 -375q-113 -98 -283 -98q-168 0 -270 86 q-129 106 -129 330zM37 1665q6 94 94 154q74 49 164 49q143 0 207 -101q78 100 219 101q92 0 159 -49q78 -59 72 -154q-6 -96 -94 -156q-74 -49 -164 -49q-143 0 -207 101q-78 -101 -219 -101q-92 0 -160 49q-78 59 -71 156zM434 924h119l12 176q6 98 -57 98q-55 0 -62 -92z " />
<glyph unicode="&#xec;" horiz-adv-x="454" d="M-168 1778q0 49 63 49h352q25 0 37 -19q55 -72 111 -143q63 -86 63 -125q0 -37 -59 -37h-148q-14 4 -24 6l-365 222q-31 18 -30 47zM-20 -109h471v-301h-471v301zM4 0l102 1462h377l-102 -1462h-377z" />
<glyph unicode="&#xed;" horiz-adv-x="454" d="M-20 -109h471v-301h-471v301zM4 0l102 1462h377l-102 -1462h-377zM16 1534q0 37 76 125q67 73 133 149q16 18 43 19h352q55 0 55 -43q0 -31 -36 -53l-398 -222q-4 -2 -26 -6h-148q-51 0 -51 31z" />
<glyph unicode="&#xee;" horiz-adv-x="454" d="M-142 1544q0 25 25 47l248 222q14 14 37 14h172q18 0 32 -14l224 -222q20 -18 20 -41q0 -47 -61 -47h-175q-31 0 -73 23q-33 20 -68 39q-37 -18 -74 -39q-45 -23 -77 -23h-176q-53 0 -54 41zM-20 -109h471v-301h-471v301zM4 0l102 1462h377l-102 -1462h-377z" />
<glyph unicode="&#xef;" horiz-adv-x="454" d="M-211 1665q6 94 94 154q74 49 164 49q143 0 207 -101q78 100 219 101q92 0 159 -49q78 -59 72 -154q-6 -96 -94 -156q-74 -49 -164 -49q-143 0 -207 101q-78 -101 -219 -101q-92 0 -160 49q-78 59 -71 156zM-20 -109h471v-301h-471v301zM4 0l102 1462h377l-102 -1462 h-377z" />
<glyph unicode="&#xf0;" horiz-adv-x="1218" d="M55 82v1192q0 217 131 330q109 92 267 92q123 0 217 -64q113 -76 147 -219q156 0 260 -96q125 -113 125 -326v-391q0 -35 -25.5 -60.5t-60.5 -25.5h-196v-432q0 -35 -26 -61.5t-63 -26.5h-688q-37 0 -62.5 26.5t-25.5 61.5zM143 82h688v518h285v391q0 174 -96 262 q-78 72 -199 72q-41 0 -78 -6q-10 152 -102 227q-76 61 -188 62q-127 0 -209 -70q-100 -88 -101 -264v-1192zM195 133v244h368v557h-151v-514h-217v854q0 152 81 225q68 57 177 57q242 0 241 -282v-27q55 27 127 27q244 0 244 -283v-157h-213v223q0 59 -37 59q-35 0 -35 -55 v-293h285v-117h-285v-518h-585zM412 1051h155q5 36 15 65h-99v223q0 59 -37 60q-35 0 -34 -56v-292z" />
<glyph unicode="&#xf1;" horiz-adv-x="948" d="M-20 -109h938v-301h-938v301zM4 0l102 1462h590q223 0 224 -315q0 -31 -2 -66l-76 -1081h-365l76 1069q6 102 -51 102q-51 0 -60 -104l-73 -1067h-365zM143 1618q0 14 8 29q133 180 271 180q51 0 118.5 -37t94.5 -37q18 0 46.5 31t47.5 31q12 0 26 -11l54 -32 q37 -27 37 -54q0 -14 -9 -26q-116 -189 -284 -189q-49 0 -118 34t-87 34q-14 0 -44 -32t-50 -32q-14 0 -31 15q-23 18 -47 39q-33 31 -33 57z" />
<glyph unicode="&#xf2;" horiz-adv-x="987" d="M-20 -109h958v-301h-958v301zM35 416q0 27 2 57l37 516q16 254 166 375q119 98 297 98q168 0 270 -86q129 -106 129 -329q0 -27 -2 -58l-37 -516q-16 -254 -166 -375q-119 -98 -297 -98q-168 0 -270 86q-129 106 -129 330zM99 1778q0 49 63 49h352q25 0 37 -19 q55 -72 111 -143q63 -86 63 -125q0 -37 -59 -37h-148q-14 4 -24 6l-365 222q-31 18 -30 47zM395 387q-6 -94 60 -94q65 0 71 94l52 717q6 94 -60 94t-72 -94z" />
<glyph unicode="&#xf3;" horiz-adv-x="987" d="M-20 -109h958v-301h-958v301zM35 416q0 27 2 57l37 516q16 254 166 375q119 98 297 98q168 0 270 -86q129 -106 129 -329q0 -27 -2 -58l-37 -516q-16 -254 -166 -375q-119 -98 -297 -98q-168 0 -270 86q-129 106 -129 330zM283 1534q0 37 76 125q67 73 133 149 q16 18 43 19h352q55 0 55 -43q0 -31 -36 -53l-398 -222q-4 -2 -26 -6h-148q-51 0 -51 31zM395 387q-6 -94 60 -94q65 0 71 94l52 717q6 94 -60 94t-72 -94z" />
<glyph unicode="&#xf4;" horiz-adv-x="987" d="M-20 -109h958v-301h-958v301zM35 416q0 27 2 57l37 516q16 254 166 375q119 98 297 98q168 0 270 -86q129 -106 129 -329q0 -27 -2 -58l-37 -516q-16 -254 -166 -375q-119 -98 -297 -98q-168 0 -270 86q-129 106 -129 330zM125 1544q0 25 25 47l248 222q14 14 37 14h172 q18 0 32 -14l224 -222q20 -18 20 -41q0 -47 -61 -47h-175q-31 0 -73 23q-33 20 -68 39q-37 -18 -74 -39q-45 -23 -77 -23h-176q-53 0 -54 41zM395 387q-6 -94 60 -94q65 0 71 94l52 717q6 94 -60 94t-72 -94z" />
<glyph unicode="&#xf5;" horiz-adv-x="987" d="M-20 -109h958v-301h-958v301zM35 416q0 27 2 57l37 516q16 254 166 375q119 98 297 98q168 0 270 -86q129 -106 129 -329q0 -27 -2 -58l-37 -516q-16 -254 -166 -375q-119 -98 -297 -98q-168 0 -270 86q-129 106 -129 330zM162 1618q0 14 8 29q133 180 271 180 q51 0 118.5 -37t94.5 -37q18 0 46.5 31t47.5 31q12 0 26 -11l54 -32q37 -27 37 -54q0 -14 -9 -26q-116 -189 -284 -189q-49 0 -118 34t-87 34q-14 0 -44 -32t-50 -32q-14 0 -31 15q-23 18 -47 39q-33 31 -33 57zM395 387q-6 -94 60 -94q65 0 71 94l52 717q6 94 -60 94 t-72 -94z" />
<glyph unicode="&#xf6;" horiz-adv-x="950" d="M-20 -109h958v-301h-958v301zM35 416q0 27 2 57l37 516q16 254 166 375q119 98 297 98q168 0 270 -86q129 -106 129 -329q0 -27 -2 -58l-37 -516q-16 -254 -166 -375q-119 -98 -297 -98q-168 0 -270 86q-129 106 -129 330zM37 1665q6 94 94 154q74 49 164 49 q143 0 207 -101q78 100 219 101q92 0 159 -49q78 -59 72 -154q-6 -96 -94 -156q-74 -49 -164 -49q-143 0 -207 101q-78 -101 -219 -101q-92 0 -160 49q-78 59 -71 156zM395 387q-6 -94 60 -94q65 0 71 94l52 717q6 94 -60 94t-72 -94z" />
<glyph unicode="&#xf7;" horiz-adv-x="1228" d="M-20 -109h1282v-301h-1282v301zM88 395l16 246h996l-17 -246h-995zM360 176q6 78 65.5 133.5t137.5 55.5t129 -55.5t45 -133.5q-4 -78 -63.5 -133t-136.5 -55q-78 0 -129.5 55t-47.5 133zM410 860q4 78 63 133.5t137 55.5t129 -55.5t47 -133.5q-6 -78 -65 -133t-137 -55 t-129.5 55t-44.5 133z" />
<glyph unicode="&#xf8;" d="M-20 -109h958v-301h-958v301zM35 416q0 27 2 57l37 516q16 254 166 375q119 98 297 98q168 0 270 -86q129 -106 129 -329q0 -27 -2 -58l-37 -516q-16 -254 -166 -375q-119 -98 -297 -98q-168 0 -270 86q-129 106 -129 330zM395 387q-6 -94 60 -94q65 0 71 94l27 369 l-135 -47zM432 907l135 49l11 148q6 94 -60 94t-72 -94z" />
<glyph unicode="&#xf9;" horiz-adv-x="987" d="M-20 -109h938v-301h-938v301zM29 315q0 31 2 66l75 1081h365l-76 -1069q-6 -102 51 -102q51 0 60 104l74 1067h364l-102 -1462h-590q-223 0 -223 315zM99 1778q0 49 63 49h352q25 0 37 -19q55 -72 111 -143q63 -86 63 -125q0 -37 -59 -37h-148q-14 4 -24 6l-365 222 q-31 18 -30 47z" />
<glyph unicode="&#xfa;" horiz-adv-x="987" d="M-20 -109h938v-301h-938v301zM29 315q0 31 2 66l75 1081h365l-76 -1069q-6 -102 51 -102q51 0 60 104l74 1067h364l-102 -1462h-590q-223 0 -223 315zM283 1534q0 37 76 125q67 73 133 149q16 18 43 19h352q55 0 55 -43q0 -31 -36 -53l-398 -222q-4 -2 -26 -6h-148 q-51 0 -51 31z" />
<glyph unicode="&#xfb;" horiz-adv-x="987" d="M-20 -109h938v-301h-938v301zM29 315q0 31 2 66l75 1081h365l-76 -1069q-6 -102 51 -102q51 0 60 104l74 1067h364l-102 -1462h-590q-223 0 -223 315zM125 1544q0 25 25 47l248 222q14 14 37 14h172q18 0 32 -14l224 -222q20 -18 20 -41q0 -47 -61 -47h-175q-31 0 -73 23 q-33 20 -68 39q-37 -18 -74 -39q-45 -23 -77 -23h-176q-53 0 -54 41z" />
<glyph unicode="&#xfc;" horiz-adv-x="948" d="M-20 -109h938v-301h-938v301zM29 315q0 31 2 66l75 1081h365l-76 -1069q-6 -102 51 -102q51 0 60 104l74 1067h364l-102 -1462h-590q-223 0 -223 315zM37 1665q6 94 94 154q74 49 164 49q143 0 207 -101q78 100 219 101q92 0 159 -49q78 -59 72 -154q-6 -96 -94 -156 q-74 -49 -164 -49q-143 0 -207 101q-78 -101 -219 -101q-92 0 -160 49q-78 59 -71 156z" />
<glyph unicode="&#xfd;" horiz-adv-x="909" d="M10 -270q0 31 4 61l11 146h352l-19 -256q-8 -98 56 -99q55 0 63 92l23 326h-224q-225 0 -225 315q0 31 4 66l76 1081h365l-76 -1069q-6 -102 51 -102q51 0 57 104l76 1067h365l-103 -1462h-2l-14 -209q-18 -254 -168 -375q-117 -98 -297 -98q-158 0 -254 86 q-121 104 -121 326zM244 1534q0 37 76 125q67 73 133 149q16 18 43 19h352q55 0 55 -43q0 -31 -36 -53l-398 -222q-4 -2 -26 -6h-148q-51 0 -51 31z" />
<glyph unicode="&#xfe;" horiz-adv-x="1218" d="M55 82v1192q0 217 131 330q109 92 267 92q123 0 217 -64q113 -76 147 -219q156 0 260 -96q125 -113 125 -326v-391q0 -35 -25.5 -60.5t-60.5 -25.5h-196v-432q0 -35 -26 -61.5t-63 -26.5h-688q-37 0 -62.5 26.5t-25.5 61.5zM143 82h688v518h285v391q0 174 -96 262 q-78 72 -199 72q-41 0 -78 -6q-10 152 -102 227q-76 61 -188 62q-127 0 -209 -70q-100 -88 -101 -264v-1192zM195 133v244h368v557h-151v-514h-217v854q0 152 81 225q68 57 177 57q242 0 241 -282v-27q55 27 127 27q244 0 244 -283v-157h-213v223q0 59 -37 59q-35 0 -35 -55 v-293h285v-117h-285v-518h-585zM412 1051h155q5 36 15 65h-99v223q0 59 -37 60q-35 0 -34 -56v-292zM745 1673l43 2l23 35l16 -39l41 -10l-32 -29l2 -41l-37 23l-39 -15l10 41zM913 1563l62 73l-23 95l90 -37l82 51l-6 -96l74 -62l-94 -24l-37 -88l-51 81z" />
<glyph unicode="&#xff;" horiz-adv-x="909" d="M10 -270q0 31 4 61l11 146h352l-19 -256q-8 -98 56 -99q55 0 63 92l23 326h-224q-225 0 -225 315q0 31 4 66l76 1081h365l-76 -1069q-6 -102 51 -102q51 0 57 104l76 1067h365l-103 -1462h-2l-14 -209q-18 -254 -168 -375q-117 -98 -297 -98q-158 0 -254 86 q-121 104 -121 326zM78 1665q6 94 94 154q74 49 164 49q143 0 207 -101q78 100 219 101q92 0 159 -49q78 -59 72 -154q-6 -96 -94 -156q-74 -49 -164 -49q-143 0 -207 101q-78 -101 -219 -101q-92 0 -160 49q-78 59 -71 156z" />
<glyph unicode="&#x152;" horiz-adv-x="1386" d="M-20 -109h1437v-301h-1437v301zM35 416q0 27 2 57l37 516q16 254 166 375q119 98 297 98q145 0 243 -65q106 66 252 65q158 0 256 -86q119 -104 119 -325q0 -29 -2 -62l-19 -260h-352l27 371q6 98 -57 98q-55 0 -62 -92l-35 -488h471l-14 -194h-471l-8 -129h471l-21 -295 h-835v4q-33 -4 -66 -4q-168 0 -270 86q-129 106 -129 330zM395 387q-6 -94 60 -94q65 0 71 94l52 717q6 94 -60 94t-72 -94z" />
<glyph unicode="&#x153;" horiz-adv-x="1382" d="M-20 -109h1445v-301h-1445v301zM35 416q0 27 2 57l37 516q16 254 166 375q119 98 297 98q143 0 241 -65q109 66 252 65q158 0 262 -102q127 -127 111 -371l-19 -260h-469l-18 -256q-2 -20 -6 -59l-4 -58q-6 -92 49 -92q63 0 70 98l18 256h352l-10 -145 q-16 -254 -156 -375q-113 -98 -282 -98q-143 0 -242 66q-109 -66 -252 -66q-168 0 -270 86q-129 106 -129 330zM395 387q-6 -94 60 -94q65 0 71 94l2 27q0 20 2 59l37 516q0 10 3 29.5t3 30.5l5 55q6 94 -60 94t-72 -94zM928 924h119l12 176q6 98 -58 98q-55 0 -61 -92z" />
<glyph unicode="&#x178;" horiz-adv-x="909" d="M10 -270q0 31 4 61l11 146h352l-19 -256q-8 -98 56 -99q55 0 63 92l23 326h-224q-225 0 -225 315q0 31 4 66l76 1081h365l-76 -1069q-6 -102 51 -102q51 0 57 104l76 1067h365l-103 -1462h-2l-14 -209q-18 -254 -168 -375q-117 -98 -297 -98q-158 0 -254 86 q-121 104 -121 326zM78 1665q6 94 94 154q74 49 164 49q143 0 207 -101q78 100 219 101q92 0 159 -49q78 -59 72 -154q-6 -96 -94 -156q-74 -49 -164 -49q-143 0 -207 101q-78 -101 -219 -101q-92 0 -160 49q-78 59 -71 156z" />
<glyph unicode="&#x2c6;" horiz-adv-x="454" d="M-160 1290q0 25 25 47l248 222q14 14 37 14h172q18 0 32 -14l224 -222q20 -18 20 -41q0 -47 -61 -47h-175q-31 0 -73 23q-33 20 -68 39q-37 -18 -74 -39q-45 -23 -77 -23h-176q-53 0 -54 41z" />
<glyph unicode="&#x2dc;" horiz-adv-x="454" d="M-123 1364q0 14 8 29q133 180 271 180q51 0 118.5 -37t94.5 -37q18 0 46.5 31t47.5 31q12 0 26 -11l54 -32q37 -27 37 -54q0 -14 -9 -26q-116 -189 -284 -189q-49 0 -118 34t-87 34q-14 0 -44 -32t-50 -32q-14 0 -31 15q-23 18 -47 39q-33 31 -33 57z" />
<glyph unicode="&#x2000;" horiz-adv-x="990" />
<glyph unicode="&#x2001;" horiz-adv-x="1980" />
<glyph unicode="&#x2002;" horiz-adv-x="990" />
<glyph unicode="&#x2003;" horiz-adv-x="1980" />
<glyph unicode="&#x2004;" horiz-adv-x="660" />
<glyph unicode="&#x2005;" horiz-adv-x="495" />
<glyph unicode="&#x2006;" horiz-adv-x="330" />
<glyph unicode="&#x2007;" horiz-adv-x="330" />
<glyph unicode="&#x2008;" horiz-adv-x="247" />
<glyph unicode="&#x2009;" horiz-adv-x="396" />
<glyph unicode="&#x200a;" horiz-adv-x="110" />
<glyph unicode="&#x2010;" horiz-adv-x="909" d="M70 823q0 6 22 8l266 27l121 246q10 16 15 16q8 0 10 -16l88 -246l260 -27q20 -4 20 -8l-16 -14l-207 -160l41 -276q2 -14 2 -17q0 -6 -8 -6q-10 0 -14 8l-219 150l-242 -146q-20 -10 -19 -10q-6 0 -6 8q0 2 4 17l84 272l-188 160zM186 793l148 -121l-72 -226l195 129 l170 -129l-39 226l166 121l-203 14l-66 197l-92 -197zM295 760v2h125l57 127l41 -127h127v-2l-104 -74l26 -139l-2 -2l-106 84l-123 -84l-2 2l49 139z" />
<glyph unicode="&#x2011;" horiz-adv-x="909" d="M70 823q0 6 22 8l266 27l121 246q10 16 15 16q8 0 10 -16l88 -246l260 -27q20 -4 20 -8l-16 -14l-207 -160l41 -276q2 -14 2 -17q0 -6 -8 -6q-10 0 -14 8l-219 150l-242 -146q-20 -10 -19 -10q-6 0 -6 8q0 2 4 17l84 272l-188 160zM186 793l148 -121l-72 -226l195 129 l170 -129l-39 226l166 121l-203 14l-66 197l-92 -197zM295 760v2h125l57 127l41 -127h127v-2l-104 -74l26 -139l-2 -2l-106 84l-123 -84l-2 2l49 139z" />
<glyph unicode="&#x2012;" horiz-adv-x="909" d="M70 823q0 6 22 8l266 27l121 246q10 16 15 16q8 0 10 -16l88 -246l260 -27q20 -4 20 -8l-16 -14l-207 -160l41 -276q2 -14 2 -17q0 -6 -8 -6q-10 0 -14 8l-219 150l-242 -146q-20 -10 -19 -10q-6 0 -6 8q0 2 4 17l84 272l-188 160zM186 793l148 -121l-72 -226l195 129 l170 -129l-39 226l166 121l-203 14l-66 197l-92 -197zM295 760v2h125l57 127l41 -127h127v-2l-104 -74l26 -139l-2 -2l-106 84l-123 -84l-2 2l49 139z" />
<glyph unicode="&#x2013;" horiz-adv-x="1024" d="M-20 -109h1077v-301h-1077v301zM-12 729l20 283h357l32 262q0 10 6 22q8 2 17 -12l170 -194l258 63q22 4 24 0l-10 -18l-84 -123h254l-20 -283h-191l29 -51q4 -4 8 -14q2 -6 -4 -9q-12 -4 -18 4l-263 62l-184 -217q-4 -6 -12 -15q-8 -4 -10 21l-13 219h-366zM221 889 l185 -60l6 -229l143 182l209 -57l-115 190l119 168l-201 -55l-131 158l-20 -213zM336 897v2l119 43l14 135l80 -102l125 45v-2l-76 -105l74 -116v-4l-131 41l-90 -119l-2 2v143z" />
<glyph unicode="&#x2014;" horiz-adv-x="2048" d="M-20 -109h2113v-301h-2113v301zM-14 729l20 283h551q2 6 23 8l266 27l121 243q8 18 14 19q8 0 10 -19l88 -243l260 -27q10 0 21 -8h694l-20 -283h-883l27 -168q2 -14 2 -18q-2 -6 -9 -6q-10 0 -14 10l-219 149l-242 -145q-20 -10 -18 -10q-6 0 -6 8q0 2 4 14l51 166h-741 zM674 979l147 -121l-71 -223l192 127l172 -127l-39 223l166 121l-203 14l-65 197l-92 -197zM782 948v2h125l58 125l39 -125h129v-2l-105 -76l27 -137l-2 -2l-107 84l-123 -84l-2 2l49 137z" />
<glyph unicode="&#x2018;" horiz-adv-x="1224" d="M59 88v1190q0 217 131 330q106 92 265 92q125 0 219 -64q111 -74 147 -219q156 0 260 -94q125 -113 125 -328v-389q0 -37 -26.5 -62.5t-61.5 -25.5h-196v-430q0 -37 -26 -62.5t-60 -25.5h-691q-35 0 -60.5 25.5t-25.5 62.5zM145 88h691v518h282v389q0 176 -94 265 q-78 72 -201 71q-39 0 -75 -8q-12 152 -105 227q-76 63 -188 64q-125 0 -207 -72q-102 -88 -103 -264v-1190zM197 139v244h368v557h-149v-514h-219v852q0 154 84 225q68 59 174 60q244 0 243 -285v-25q55 27 125 27q244 0 244 -285v-155h-211v221q0 61 -39 61q-33 0 -33 -55 v-293h283v-117h-283v-518h-587zM213 584l43 -43l-8 -60l53 27l55 -27l-10 60l43 43l-59 10l-29 53l-27 -53zM213 809l43 -43l-8 -59l53 26l55 -26l-10 59l43 43l-59 10l-29 53l-27 -53zM213 1034l43 -43l-8 -59l53 26l55 -26l-10 59l43 43l-59 10l-29 54l-27 -54zM213 1260 l43 -43l-8 -60l53 27l55 -27l-10 60l43 43l-59 10l-29 53l-27 -53zM236 221l24 -26l-4 -35l31 16l30 -16l-4 35l25 26l-35 4l-16 33l-17 -33zM236 324l24 -27l-4 -35l31 17l30 -17l-4 35l25 27l-35 4l-16 32l-17 -32zM279 1446l30 -29l-8 -41l39 19l37 -19l-6 41l28 29 l-41 8l-18 37l-21 -37zM362 291l44 -43l-9 -60l54 27l55 -27l-10 60l43 43l-60 10l-28 53l-27 -53zM412 1516l20 -21l-4 -27l25 13l24 -13l-4 27l21 21l-29 4l-12 24l-13 -24zM416 1057h153q5 34 15 65h-97v224q0 59 -38 59q-33 0 -33 -55v-293zM432 1012l21 -21l-4 -26 l24 12l25 -12l-4 26l20 21l-29 4l-12 24l-12 -24zM500 1260l43 -43l-8 -60l53 27l55 -27l-10 60l43 43l-60 10l-28 53l-27 -53zM504 1446l31 -29l-9 -41l39 19l37 -19l-6 41l29 29l-41 8l-19 37l-20 -37zM588 291l43 -43l-8 -60l53 27l55 -27l-10 60l43 43l-59 10l-29 53 l-27 -53zM588 516l43 -43l-8 -59l53 26l55 -26l-10 59l43 43l-59 10l-29 54l-27 -54zM588 741l43 -43l-8 -59l53 27l55 -27l-10 59l43 43l-59 11l-29 53l-27 -53zM588 967l43 -43l-8 -60l53 27l55 -27l-10 60l43 43l-59 10l-29 53l-27 -53zM653 1153l31 -29l-8 -41l39 19 l37 -19l-7 41l29 29l-41 8l-18 37l-21 -37zM786 1223l21 -21l-4 -26l24 12l25 -12l-4 26l20 21l-28 4l-13 24l-12 -24zM823 725l21 -20l-4 -27l24 12l25 -12l-4 27l20 20l-28 4l-13 25l-12 -25zM874 967l44 -43l-9 -60l54 27l55 -27l-10 60l43 43l-60 10l-28 53l-27 -53z M879 1153l30 -29l-8 -41l39 19l37 -19l-6 41l28 29l-41 8l-18 37l-20 -37zM946 725l21 -20l-4 -27l24 12l25 -12l-4 27l20 20l-29 4l-12 25l-12 -25z" />
<glyph unicode="&#x2019;" horiz-adv-x="1990" d="M55 1087q0 90 121 103l514 51q68 170 215 504q33 61 94 61q76 0 103 -88l205 -477l512 -51q61 -14 79 -25q37 -23 37 -78q0 -47 -45 -83q-6 -4 -14 -11l-383 -309l121 -557q4 -20 4 -37q0 -37 -25.5 -66.5t-70.5 -29.5q-43 0 -86 37l-439 286l-452 -286q-49 -31 -78 -31 q-41 0 -69.5 28.5t-28.5 71.5q0 16 6 35l4 19l123 530l-389 309q-57 45 -58 94zM139 1087q0 -2 31 -32l426 -338l-135 -582q-8 -31 -8 -35q0 -16 14 -16q-4 0 37 20l454 287h78l451 -293q10 -20 35 -20q12 0 12 12q0 6 -6 37l-129 590l420 338l32 32q0 12 -16 15.5t-29 3.5 l-557 57l-225 520q-10 39 -25 39q-12 0 -28 -39l-199 -466q43 37 113 36q164 0 164 -188v-64q43 31 106 31q162 0 162 -188v-131h-141v174q0 41 -25 41q-23 0 -23 -37v-223h189v-78h-189v-148h-145v369h-123v-291h-147v545q0 55 18 96l-547 -55q-45 -4 -45 -19zM279 1055 l385 26q-2 -8 -2 -16v-307zM537 186l125 496v-213h249v291h21v-299zM735 625l29 -29l-6 -37l33 16l34 -16l-6 37l27 29l-37 6l-18 33l-17 -33zM735 768l29 -29l-6 -37l33 17l34 -17l-6 37l27 29l-37 6l-18 33l-17 -33zM735 911l29 -28l-6 -37l33 16l34 -16l-6 37l27 28 l-37 7l-18 32l-17 -32zM735 1055l29 -29l-6 -37l33 17l34 -17l-6 37l27 29l-37 6l-18 33l-17 -33zM766 1174l20 -21l-4 -31l27 15l29 -15l-7 31l23 21l-31 6l-14 26l-12 -26zM860 858l12 -12l-2 -17l17 9l14 -9l-2 17l12 12l-18 4l-6 15l-8 -15zM860 889h125q4 25 12 45h-90 v174q0 41 -26 41q-20 0 -21 -37v-223zM860 1217l12 -13l-2 -16l17 8l14 -8l-2 16l12 13l-18 4l-6 14l-8 -14zM887 1305zM887 1305l112 278l197 -491l520 -37l-348 -269v58q0 125 -68 188q-57 51 -145 51q-29 0 -57 -4q-2 115 -70 176q-55 49 -141 50zM913 1174l21 -21 l-4 -31l26 15l29 -15l-6 31l22 21l-30 6l-15 26l-12 -26zM920 1055l28 -29l-6 -37l33 17l35 -17l-6 37l26 29l-37 6l-18 33l-17 -33zM942 858l12 -12l-2 -17l17 9l14 -9l-2 17l12 12l-18 4l-6 15l-8 -15zM1004 541l28 -29l-6 -37l33 17l35 -17l-7 37l27 29l-37 6l-18 33 l-17 -33zM1004 684l28 -29l-6 -37l33 17l35 -17l-7 37l27 29l-37 6l-18 33l-17 -33zM1004 827l28 -28l-6 -37l33 16l35 -16l-7 37l27 28l-37 7l-18 32l-17 -32zM1034 946l21 -20l-4 -31l26 14l29 -14l-6 31l22 20l-30 6l-15 27l-12 -27zM1128 989l13 -12l-2 -16l16 8l14 -8 l-2 16l13 12l-19 4l-6 15l-8 -15zM1149 635l12 -12l-2 -17l15 8l16 -8l-2 17l12 12l-18 4l-8 14l-7 -14zM1161 391h19v148h184l84 -353zM1182 946l20 -20l-4 -31l27 14l28 -14l-6 31l23 20l-31 6l-14 27l-13 -27zM1188 827l29 -28l-7 -37l33 16l35 -16l-6 37l26 28l-36 7 l-19 32l-16 -32zM1231 635l12 -12l-2 -17l14 8l17 -8l-2 17l12 12l-18 4l-9 14l-6 -14z" />
<glyph unicode="&#x201a;" horiz-adv-x="1224" d="M59 88v1190q0 217 131 330q106 92 265 92q125 0 219 -64q111 -74 147 -219q156 0 260 -94q125 -113 125 -328v-389q0 -37 -26.5 -62.5t-61.5 -25.5h-196v-430q0 -37 -26 -62.5t-60 -25.5h-691q-35 0 -60.5 25.5t-25.5 62.5zM145 88h691v518h282v389q0 176 -94 265 q-78 72 -201 71q-39 0 -75 -8q-12 152 -105 227q-76 63 -188 64q-125 0 -207 -72q-102 -88 -103 -264v-1190zM197 139v244h368v557h-149v-514h-219v852q0 154 84 225q68 59 174 60q244 0 243 -285v-25q55 27 125 27q244 0 244 -285v-155h-211v221q0 61 -39 61q-33 0 -33 -55 v-293h283v-117h-283v-518h-587zM213 584l43 -43l-8 -60l53 27l55 -27l-10 60l43 43l-59 10l-29 53l-27 -53zM213 809l43 -43l-8 -59l53 26l55 -26l-10 59l43 43l-59 10l-29 53l-27 -53zM213 1034l43 -43l-8 -59l53 26l55 -26l-10 59l43 43l-59 10l-29 54l-27 -54zM213 1260 l43 -43l-8 -60l53 27l55 -27l-10 60l43 43l-59 10l-29 53l-27 -53zM236 221l24 -26l-4 -35l31 16l30 -16l-4 35l25 26l-35 4l-16 33l-17 -33zM236 324l24 -27l-4 -35l31 17l30 -17l-4 35l25 27l-35 4l-16 32l-17 -32zM279 1446l30 -29l-8 -41l39 19l37 -19l-6 41l28 29 l-41 8l-18 37l-21 -37zM362 291l44 -43l-9 -60l54 27l55 -27l-10 60l43 43l-60 10l-28 53l-27 -53zM412 1516l20 -21l-4 -27l25 13l24 -13l-4 27l21 21l-29 4l-12 24l-13 -24zM416 1057h153q5 34 15 65h-97v224q0 59 -38 59q-33 0 -33 -55v-293zM432 1012l21 -21l-4 -26 l24 12l25 -12l-4 26l20 21l-29 4l-12 24l-12 -24zM500 1260l43 -43l-8 -60l53 27l55 -27l-10 60l43 43l-60 10l-28 53l-27 -53zM504 1446l31 -29l-9 -41l39 19l37 -19l-6 41l29 29l-41 8l-19 37l-20 -37zM588 291l43 -43l-8 -60l53 27l55 -27l-10 60l43 43l-59 10l-29 53 l-27 -53zM588 516l43 -43l-8 -59l53 26l55 -26l-10 59l43 43l-59 10l-29 54l-27 -54zM588 741l43 -43l-8 -59l53 27l55 -27l-10 59l43 43l-59 11l-29 53l-27 -53zM588 967l43 -43l-8 -60l53 27l55 -27l-10 60l43 43l-59 10l-29 53l-27 -53zM653 1153l31 -29l-8 -41l39 19 l37 -19l-7 41l29 29l-41 8l-18 37l-21 -37zM745 1673l43 2l23 35l16 -39l41 -10l-32 -29l2 -41l-37 23l-39 -15l10 41zM786 1223l21 -21l-4 -26l24 12l25 -12l-4 26l20 21l-28 4l-13 24l-12 -24zM823 725l21 -20l-4 -27l24 12l25 -12l-4 27l20 20l-28 4l-13 25l-12 -25z M874 967l44 -43l-9 -60l54 27l55 -27l-10 60l43 43l-60 10l-28 53l-27 -53zM879 1153l30 -29l-8 -41l39 19l37 -19l-6 41l28 29l-41 8l-18 37l-20 -37zM913 1563l62 73l-23 95l90 -37l82 51l-6 -96l74 -62l-94 -24l-37 -88l-51 81zM946 725l21 -20l-4 -27l24 12l25 -12 l-4 27l20 20l-29 4l-12 25l-12 -25z" />
<glyph unicode="&#x201c;" horiz-adv-x="1218" d="M55 82v1192q0 217 131 330q109 92 267 92q123 0 217 -64q113 -76 147 -219q156 0 260 -96q125 -113 125 -326v-391q0 -35 -25.5 -60.5t-60.5 -25.5h-196v-432q0 -35 -26 -61.5t-63 -26.5h-688q-37 0 -62.5 26.5t-25.5 61.5zM143 82h688v518h285v391q0 174 -96 262 q-78 72 -199 72q-41 0 -78 -6q-10 152 -102 227q-76 61 -188 62q-127 0 -209 -70q-100 -88 -101 -264v-1192zM195 133v244h368v557h-151v-514h-217v854q0 152 81 225q68 57 177 57q242 0 241 -282v-27q55 27 127 27q244 0 244 -283v-157h-213v223q0 59 -37 59q-35 0 -35 -55 v-293h285v-117h-285v-518h-585zM412 1051h155q5 36 15 65h-99v223q0 59 -37 60q-35 0 -34 -56v-292z" />
<glyph unicode="&#x201d;" horiz-adv-x="1990" d="M55 1087q0 90 121 103l514 51q68 170 215 504q33 61 94 61q76 0 103 -88l205 -477l512 -51q61 -14 79 -25q37 -23 37 -78q0 -47 -45 -83q-6 -4 -14 -11l-383 -309l121 -557q4 -20 4 -37q0 -37 -25.5 -66.5t-70.5 -29.5q-43 0 -86 37l-439 286l-452 -286q-49 -31 -78 -31 q-41 0 -69.5 28.5t-28.5 71.5q0 16 6 35l4 19l123 530l-389 309q-57 45 -58 94zM139 1087q0 -2 31 -32l426 -338l-135 -582q-8 -31 -8 -35q0 -16 14 -16q-4 0 37 20l454 287h78l451 -293q10 -20 35 -20q12 0 12 12q0 6 -6 37l-129 590l420 338l32 32q0 12 -16 15.5t-29 3.5 l-557 57l-225 520q-10 39 -25 39q-12 0 -28 -39l-199 -466q43 37 113 36q164 0 164 -188v-64q43 31 106 31q162 0 162 -188v-131h-141v174q0 41 -25 41q-23 0 -23 -37v-223h189v-78h-189v-148h-145v369h-123v-291h-147v545q0 55 18 96l-547 -55q-45 -4 -45 -19zM279 1055 l385 26q-2 -8 -2 -16v-307zM537 186l125 496v-213h249v291h21v-299zM735 625l29 -29l-6 -37l33 16l34 -16l-6 37l27 29l-37 6l-18 33l-17 -33zM735 768l29 -29l-6 -37l33 17l34 -17l-6 37l27 29l-37 6l-18 33l-17 -33zM735 911l29 -28l-6 -37l33 16l34 -16l-6 37l27 28 l-37 7l-18 32l-17 -32zM735 1055l29 -29l-6 -37l33 17l34 -17l-6 37l27 29l-37 6l-18 33l-17 -33zM766 1174l20 -21l-4 -31l27 15l29 -15l-7 31l23 21l-31 6l-14 26l-12 -26zM860 858l12 -12l-2 -17l17 9l14 -9l-2 17l12 12l-18 4l-6 15l-8 -15zM860 889h125q4 25 12 45h-90 v174q0 41 -26 41q-20 0 -21 -37v-223zM860 1217l12 -13l-2 -16l17 8l14 -8l-2 16l12 13l-18 4l-6 14l-8 -14zM887 1305zM887 1305l112 278l197 -491l520 -37l-348 -269v58q0 125 -68 188q-57 51 -145 51q-29 0 -57 -4q-2 115 -70 176q-55 49 -141 50zM913 1174l21 -21 l-4 -31l26 15l29 -15l-6 31l22 21l-30 6l-15 26l-12 -26zM920 1055l28 -29l-6 -37l33 17l35 -17l-6 37l26 29l-37 6l-18 33l-17 -33zM942 858l12 -12l-2 -17l17 9l14 -9l-2 17l12 12l-18 4l-6 15l-8 -15zM1004 541l28 -29l-6 -37l33 17l35 -17l-7 37l27 29l-37 6l-18 33 l-17 -33zM1004 684l28 -29l-6 -37l33 17l35 -17l-7 37l27 29l-37 6l-18 33l-17 -33zM1004 827l28 -28l-6 -37l33 16l35 -16l-7 37l27 28l-37 7l-18 32l-17 -32zM1034 946l21 -20l-4 -31l26 14l29 -14l-6 31l22 20l-30 6l-15 27l-12 -27zM1128 989l13 -12l-2 -16l16 8l14 -8 l-2 16l13 12l-19 4l-6 15l-8 -15zM1149 635l12 -12l-2 -17l15 8l16 -8l-2 17l12 12l-18 4l-8 14l-7 -14zM1161 391h19v148h184l84 -353zM1182 946l20 -20l-4 -31l27 14l28 -14l-6 31l23 20l-31 6l-14 27l-13 -27zM1188 827l29 -28l-7 -37l33 16l35 -16l-6 37l26 28l-36 7 l-19 32l-16 -32zM1231 635l12 -12l-2 -17l14 8l17 -8l-2 17l12 12l-18 4l-9 14l-6 -14z" />
<glyph unicode="&#x201e;" horiz-adv-x="1990" d="M55 1087q0 90 121 103l514 51q68 170 215 504q33 61 94 61q76 0 103 -88l205 -477l512 -51q61 -14 79 -25q37 -23 37 -78q0 -47 -45 -83q-6 -4 -14 -11l-383 -309l121 -557q4 -20 4 -37q0 -37 -25.5 -66.5t-70.5 -29.5q-43 0 -86 37l-439 286l-452 -286q-49 -31 -78 -31 q-41 0 -69.5 28.5t-28.5 71.5q0 16 6 35l4 19l123 530l-389 309q-57 45 -58 94zM139 1087q0 -2 31 -32l426 -338l-135 -582q-8 -31 -8 -35q0 -16 14 -16q-4 0 37 20l454 287h78l451 -293q10 -20 35 -20q12 0 12 12q0 6 -6 37l-129 590l420 338l32 32q0 12 -16 15.5t-29 3.5 l-557 57l-225 520q-10 39 -25 39q-12 0 -28 -39l-199 -466q43 37 113 36q164 0 164 -188v-64q43 31 106 31q162 0 162 -188v-131h-141v174q0 41 -25 41q-23 0 -23 -37v-223h189v-78h-189v-148h-145v369h-123v-291h-147v545q0 55 18 96l-547 -55q-45 -4 -45 -19zM279 1055 l385 26q-2 -8 -2 -16v-307zM537 186l125 496v-213h249v291h21v-299zM735 625l29 -29l-6 -37l33 16l34 -16l-6 37l27 29l-37 6l-18 33l-17 -33zM735 768l29 -29l-6 -37l33 17l34 -17l-6 37l27 29l-37 6l-18 33l-17 -33zM735 911l29 -28l-6 -37l33 16l34 -16l-6 37l27 28 l-37 7l-18 32l-17 -32zM735 1055l29 -29l-6 -37l33 17l34 -17l-6 37l27 29l-37 6l-18 33l-17 -33zM766 1174l20 -21l-4 -31l27 15l29 -15l-7 31l23 21l-31 6l-14 26l-12 -26zM860 858l12 -12l-2 -17l17 9l14 -9l-2 17l12 12l-18 4l-6 15l-8 -15zM860 889h125q4 25 12 45h-90 v174q0 41 -26 41q-20 0 -21 -37v-223zM860 1217l12 -13l-2 -16l17 8l14 -8l-2 16l12 13l-18 4l-6 14l-8 -14zM887 1305zM887 1305l112 278l197 -491l520 -37l-348 -269v58q0 125 -68 188q-57 51 -145 51q-29 0 -57 -4q-2 115 -70 176q-55 49 -141 50zM913 1174l21 -21 l-4 -31l26 15l29 -15l-6 31l22 21l-30 6l-15 26l-12 -26zM920 1055l28 -29l-6 -37l33 17l35 -17l-6 37l26 29l-37 6l-18 33l-17 -33zM942 858l12 -12l-2 -17l17 9l14 -9l-2 17l12 12l-18 4l-6 15l-8 -15zM1004 541l28 -29l-6 -37l33 17l35 -17l-7 37l27 29l-37 6l-18 33 l-17 -33zM1004 684l28 -29l-6 -37l33 17l35 -17l-7 37l27 29l-37 6l-18 33l-17 -33zM1004 827l28 -28l-6 -37l33 16l35 -16l-7 37l27 28l-37 7l-18 32l-17 -32zM1034 946l21 -20l-4 -31l26 14l29 -14l-6 31l22 20l-30 6l-15 27l-12 -27zM1128 989l13 -12l-2 -16l16 8l14 -8 l-2 16l13 12l-19 4l-6 15l-8 -15zM1149 635l12 -12l-2 -17l15 8l16 -8l-2 17l12 12l-18 4l-8 14l-7 -14zM1161 391h19v148h184l84 -353zM1182 946l20 -20l-4 -31l27 14l28 -14l-6 31l23 20l-31 6l-14 27l-13 -27zM1188 827l29 -28l-7 -37l33 16l35 -16l-6 37l26 28l-36 7 l-19 32l-16 -32zM1231 635l12 -12l-2 -17l14 8l17 -8l-2 17l12 12l-18 4l-9 14l-6 -14z" />
<glyph unicode="&#x2022;" horiz-adv-x="1024" d="M-20 -109h1081v-301h-1081v301zM147 731q10 152 125 258.5t265 106.5q152 0 251 -107.5t89 -257.5t-125 -257t-265 -107q-152 0 -251 106.5t-89 257.5zM229 602q-2 -4 2 -6q4 -4 13 0l198 10l80 -174q2 -6 6 -12q4 -4 13 12l71 195l185 26q6 0 14 4q2 4 -10 13l-148 112 l37 191q2 14 -2 14q-4 4 -14 -6l-160 -115l-168 78q-14 4 -16 2t2 -14l55 -170l-147 -152q-4 -2 -11 -8zM309 633l123 119l-45 133l129 -66l125 94l-33 -149l119 -84l-143 -18l-56 -160l-59 145zM389 670l100 12l37 -94h2l33 100l86 12l2 2l-76 46l23 94l-80 -60l-78 45 l29 -82l-78 -73v-2z" />
<glyph unicode="&#x2026;" horiz-adv-x="1634" d="M-20 -109h1695v-301h-1695v301zM190 0l21 295h283l-21 -295h-283zM668 0l20 295h283l-21 -295h-282zM1145 0l20 295h283l-21 -295h-282z" />
<glyph unicode="&#x202f;" horiz-adv-x="396" />
<glyph unicode="&#x2039;" horiz-adv-x="491" d="M-20 -109h548v-301h-548v301zM25 586l176 327h288l-170 -327l115 -312h-295z" />
<glyph unicode="&#x203a;" horiz-adv-x="491" d="M-20 -109h544v-301h-544v301zM14 274l158 312l-125 327h289l131 -327l-158 -312h-295z" />
<glyph unicode="&#x205f;" horiz-adv-x="495" />
<glyph unicode="&#x2122;" horiz-adv-x="1191" d="M-29 1214q2 47 74 54l391 41q59 127 189 377q20 35 51 34q43 0 53 -51l2 -6l127 -354l385 -41q39 -8 45 -11q21 -12 19 -43q-2 -25 -39 -53l-307 -235l61 -420q2 -12 2 -23q-4 -51 -55 -51q-25 0 -47 25l-320 217l-356 -215q-33 -20 -49 -21q-49 0 -47 54q2 8 6 20l2 12 l123 402l-279 233q-33 29 -31 55zM12 1214q0 -2 21 -24l295 -248l-129 -426q-4 -10 -9 -24q0 -12 11 -13q-4 0 26 15l379 229l342 -234q6 -16 25 -16q10 0 10 10q0 4 -2 27l-66 432l326 248q13 8 25 24q0 6 -33 13l-406 43l-137 381q-4 29 -16 28q-8 0 -23 -28l-188 -381 l-416 -43h-22q-12 -2 -13 -13zM113 1190l262 18l-17 -219zM256 555l92 285q0 -117 98 -117t109 135l12 195h-86l-16 -228q-2 -29 -16 -28q-14 0 -13 26l19 260h114l4 56h-114l6 75l33 3l170 360l118 -360l379 -27l-262 -193l2 33q6 109 -53 109h-256l-27 -379zM657 754 l19 272q2 31 16 31q12 0 10 -29l-20 -293zM700 723h68l20 303q2 31 15 31q14 0 12 -29l-20 -305h88l4 53l37 -223z" />
<glyph unicode="&#x25fc;" horiz-adv-x="1464" d="M0 0v1464h1464v-1464h-1464z" />
</font>
</defs>
</svg>
