<?xml version="1.0" standalone="no"?>
<!DOCTYPE svg PUBLIC "-//W3C//DTD SVG 1.1//EN" "http://www.w3.org/Graphics/SVG/1.1/DTD/svg11.dtd" >
<svg xmlns="http://www.w3.org/2000/svg" xmlns:xlink="http://www.w3.org/1999/xlink" version="1.1">
<metadata></metadata>
<defs>
<font id="impactregular" horiz-adv-x="948" >
<font-face units-per-em="2048" ascent="1638" descent="-410" />
<missing-glyph horiz-adv-x="491" />
<glyph horiz-adv-x="0" />
<glyph horiz-adv-x="682" />
<glyph unicode=" "  horiz-adv-x="491" />
<glyph unicode="&#x09;" horiz-adv-x="491" />
<glyph unicode="&#xa0;" horiz-adv-x="491" />
<glyph unicode="!" horiz-adv-x="532" d="M59 1462h414l-55 -1075h-295zM104 0v283h338v-283h-338z" />
<glyph unicode="&#x22;" horiz-adv-x="681" d="M31 973v489h245v-489h-245zM406 973v489h245v-489h-245z" />
<glyph unicode="#" horiz-adv-x="983" d="M8 401v197h191l32 238h-161v196h188l55 402h205l-55 -402h172l53 402h205l-55 -402h137v-196h-164l-33 -238h135v-197h-163l-56 -401h-205l60 401h-176l-54 -401h-204l55 401h-162zM403 598h170l37 238h-176z" />
<glyph unicode="$" d="M39 397v99h352v-215q0 -30 18 -50t54 -20q32 0 50.5 20.5t18.5 49.5v98q0 44 -17 80t-45.5 62.5t-65.5 50.5t-77.5 47.5t-81.5 49t-78 59.5t-65.5 74.5t-45.5 98.5t-17 127q0 321 352 369v135h184v-135q175 -32 243.5 -114.5t68.5 -264.5v-33h-352v145q0 32 -20 52 t-54 20q-32 0 -51 -18.5t-19 -48.5v-60q0 -48 28.5 -86t74.5 -66t101 -55.5t110 -62.5t101 -78t74.5 -111.5t28.5 -154.5v-90q0 -85 -15 -147.5t-51.5 -113.5t-103 -81t-164.5 -39v-166h-184v166q-90 7 -151.5 28.5t-108.5 66.5t-69 122t-23 190z" />
<glyph unicode="%" horiz-adv-x="1478" d="M45 772v488q0 65 22 112t61 72.5t84 37t99 11.5t99 -11.5t84.5 -37t61.5 -72.5t22 -112v-488q0 -65 -22 -112t-61.5 -72.5t-84.5 -37t-99 -11.5t-99 11.5t-84 37t-61 72.5t-22 112zM266 735q0 -61 45 -61t45 61v549q0 62 -45 62t-45 -62v-549zM377 -31l569 1524h158 l-572 -1524h-155zM901 203v487q0 65 22 112t61 73t84 37.5t99 11.5t99.5 -11.5t84.5 -37.5t61 -73t22 -112v-487q0 -65 -22 -112t-61 -73t-84.5 -37.5t-99.5 -11.5t-99 11.5t-84 37.5t-61 73t-22 112zM1122 178q0 -61 45 -61t45 61v549q0 61 -45 61t-45 -61v-549z" />
<glyph unicode="&#x26;" horiz-adv-x="1062" d="M18 322q0 67 24.5 129.5t76 108.5t119.5 56v5q-67 24 -109.5 103.5t-42.5 170.5q0 170 105.5 260t265.5 90q155 0 261.5 -85.5t106.5 -239.5q0 -45 -5.5 -78.5t-24.5 -69t-30.5 -52t-47.5 -65.5l123 -231l196 123v-256l-108 -58l135 -233h-346l-49 76q-64 -51 -153 -79 t-165 -28q-142 0 -237 95.5t-95 257.5zM371 301q0 -41 23.5 -69.5t66.5 -28.5t96 39l-113 190q-73 -62 -73 -131zM393 969q0 -41 24 -88t50 -72q63 57 63 156q0 84 -67 84q-33 0 -51.5 -26t-18.5 -54z" />
<glyph unicode="'" horiz-adv-x="491" d="M123 973v489h246v-489h-246z" />
<glyph unicode="(" horiz-adv-x="569" d="M84 731q0 173 64.5 365.5t164.5 365.5h254q-76 -190 -110.5 -361.5t-34.5 -369.5t34.5 -369.5t110.5 -361.5h-254q-100 173 -164.5 365.5t-64.5 365.5z" />
<glyph unicode=")" horiz-adv-x="569" d="M2 0q76 190 110.5 361.5t34.5 369.5t-34.5 369.5t-110.5 361.5h254q100 -173 164.5 -365.5t64.5 -365.5t-64.5 -365.5t-164.5 -365.5h-254z" />
<glyph unicode="*" horiz-adv-x="872" d="M2 1073l78 221l235 -75v243h246v-254l236 86l73 -221l-247 -84l157 -207l-190 -135l-158 211l-162 -211l-190 150l160 200z" />
<glyph unicode="+" horiz-adv-x="1228" d="M96 395v246h396v395h245v-395h396v-246h-396v-395h-245v395h-396z" />
<glyph unicode="," horiz-adv-x="491" d="M104 0v295h283v-219q0 -104 -78 -187.5t-188 -83.5l-10 111q32 0 51.5 25t19.5 59h-78z" />
<glyph unicode="-" horiz-adv-x="645" d="M37 516v283h571v-283h-571z" />
<glyph unicode="." horiz-adv-x="491" d="M104 0v295h283v-295h-283z" />
<glyph unicode="/" horiz-adv-x="530" d="M-33 -31l367 1524h229l-358 -1524h-238z" />
<glyph unicode="0" horiz-adv-x="983" d="M61 346v770q0 183 119.5 280t311.5 97q93 0 170.5 -23.5t136 -69.5t91 -118.5t32.5 -165.5v-770q0 -93 -32.5 -165.5t-91 -118.5t-136 -69.5t-170.5 -23.5q-192 0 -311.5 97t-119.5 280zM426 303q0 -42 16 -71t50 -29q23 0 37.5 10.5t20 31.5t6.5 34t1 36v883 q0 28 -18 51t-47 23q-59 0 -66 -80v-889z" />
<glyph unicode="1" horiz-adv-x="757" d="M70 1044v173q142 28 241 84t174 161h203v-1462h-352v877q0 49 -3.5 75.5t-16.5 50t-39.5 32.5t-71.5 9h-135z" />
<glyph unicode="2" horiz-adv-x="983" d="M63 0v211l412 692q28 48 43.5 78t32 79.5t16.5 92.5q0 39 -20.5 66.5t-59.5 27.5q-50 0 -68 -33t-18 -90v-166h-338v109q0 117 33 202.5t93 133t133 69t163 21.5q199 0 317 -95t118 -274q0 -146 -95 -305l-340 -573h414v-246h-836z" />
<glyph unicode="3" horiz-adv-x="983" d="M61 434v137h338v-256q0 -51 19.5 -88t56.5 -37q20 0 34 8t21 18.5t10.5 28t4 27.5t0.5 27v227q0 84 -31 117t-115 33h-84v209h70q43 0 66.5 3t48 15.5t35 40.5t10.5 74v196q0 30 -17.5 50t-52.5 20q-76 0 -76 -104v-181h-338v76q0 123 24 204.5t77 128.5t126.5 66 t182.5 19q62 0 117 -8.5t113.5 -32t100 -61t68.5 -100.5t27 -146v-86q0 -55 -18.5 -106t-60 -88t-97.5 -38v-4q40 -6 71 -19.5t52 -31t36 -45t23 -52.5t12.5 -62.5t5.5 -67t1 -72.5v-102q0 -218 -107.5 -310t-331.5 -92q-67 0 -122 8.5t-96 22t-73 37t-53 46.5t-36 58.5 t-23 64.5t-12.5 73t-5.5 75.5t-1 79.5z" />
<glyph unicode="4" horiz-adv-x="983" d="M45 266v230l322 966h456v-950h115v-246h-115v-266h-352v266h-426zM303 512h182v741h-4z" />
<glyph unicode="5" horiz-adv-x="983" d="M61 340v201h353v-283q0 -80 78 -80q77 0 77 107v417q0 103 -73 103q-30 0 -50 -15.5t-20 -39.5v-15h-365l23 727h797v-233h-461l-19 -297h5q14 65 83 104t148 39q285 0 285 -370v-297q0 -218 -103 -328.5t-342 -110.5q-219 0 -317.5 96.5t-98.5 274.5z" />
<glyph unicode="6" horiz-adv-x="983" d="M61 432v588q0 111 22 194.5t59.5 136t94 85t119.5 45t142 12.5q192 0 299.5 -93t107.5 -270v-49h-352v111q0 47 -19 69.5t-47 22.5q-40 0 -56.5 -23.5t-16.5 -72.5v-342h4q76 127 205 127q85 0 145.5 -32t93 -88.5t46.5 -121t14 -143.5v-178q0 -208 -108.5 -324.5 t-311.5 -116.5q-441 0 -441 463zM414 270q0 -40 18.5 -66t59.5 -26q77 0 77 92v340q0 92 -77 92q-41 0 -59.5 -26t-18.5 -66v-340z" />
<glyph unicode="7" horiz-adv-x="757" d="M33 1204v258h692v-329l-209 -1133h-397l254 1204h-340z" />
<glyph unicode="8" horiz-adv-x="983" d="M61 362v144q0 55 7.5 103.5t26.5 97.5t58.5 79.5t96.5 34.5v4q-50 10 -84.5 36t-52.5 66.5t-25.5 85.5t-7.5 103q0 192 103.5 284.5t310.5 92.5q209 0 312 -92.5t103 -284.5q0 -121 -36.5 -196.5t-131.5 -94.5v-4q54 -4 92 -34.5t56 -79.5t25.5 -97.5t7.5 -103.5v-144 q0 -67 -11 -121.5t-40.5 -106.5t-77 -87.5t-123.5 -56.5t-176 -21q-101 0 -178 21t-125 56.5t-77.5 87.5t-41 106.5t-11.5 121.5zM426 293q0 -23 1.5 -37.5t7.5 -31.5t20.5 -25.5t36.5 -8.5t36.5 8.5t20 25.5t7 31t1.5 38v309q0 34 -18 51t-41 17q-72 0 -72 -95v-282z M426 1026q0 -94 66 -94q65 0 65 94v164q0 94 -65 94q-66 0 -66 -94v-164z" />
<glyph unicode="9" horiz-adv-x="983" d="M61 874v179q0 208 108.5 324t311.5 116q441 0 441 -463v-588q0 -111 -22 -194.5t-59.5 -136t-94 -85t-119.5 -45t-142 -12.5q-192 0 -299.5 93t-107.5 270v49h352v-111q0 -47 19 -69.5t47 -22.5q40 0 56.5 23.5t16.5 72.5v342h-4q-76 -127 -205 -127q-85 0 -145.5 32 t-93 88.5t-46.5 121t-14 143.5zM414 852q0 -40 18.5 -66t59.5 -26q77 0 77 92v340q0 92 -77 92q-41 0 -59.5 -26t-18.5 -66v-340z" />
<glyph unicode=":" horiz-adv-x="491" d="M104 0v295h283v-295h-283zM104 438v295h283v-295h-283z" />
<glyph unicode=";" horiz-adv-x="491" d="M104 0v295h283v-219q0 -104 -78 -187.5t-188 -83.5l-10 111q32 0 51.5 25t19.5 59h-78zM104 438v295h283v-295h-283z" />
<glyph unicode="&#x3c;" horiz-adv-x="1228" d="M96 420v196l1037 437v-234l-717 -301l717 -301v-233z" />
<glyph unicode="=" horiz-adv-x="1228" d="M96 166v246h1037v-246h-1037zM96 625v245h1037v-245h-1037z" />
<glyph unicode="&#x3e;" horiz-adv-x="1228" d="M96 -16v233l717 301l-717 301v234l1037 -437v-196z" />
<glyph unicode="?" horiz-adv-x="983" d="M72 995v111q0 59 8 107.5t34.5 103t70.5 91t122.5 61t184.5 24.5q217 0 318 -104.5t101 -331.5v-217q0 -188 -71.5 -284.5t-198.5 -96.5q-84 0 -133 27t-82 77h-4v-155h-338v401h338v-10q0 -68 72 -68q65 0 65 94v377q0 82 -61 82q-25 0 -41 -8.5t-22.5 -25.5t-8.5 -31.5 t-2 -38.5v-185h-352zM84 0v295h338v-295h-338z" />
<glyph unicode="@" horiz-adv-x="1638" d="M72 729q0 160 62 302.5t167 243.5t249 159.5t304 58.5q108 0 212.5 -27.5t194.5 -81.5t158.5 -128t108 -172.5t39.5 -209.5q0 -96 -23 -179.5t-60.5 -142t-87 -106t-100 -77t-101 -49t-89 -27.5t-66.5 -8q-44 0 -74.5 26.5t-31.5 75.5h-4q-39 -44 -93 -73t-104 -29 q-133 0 -235.5 109t-102.5 257q0 121 50 227t145.5 173t216.5 67q166 0 252 -119l18 99h193l-90 -488q-26 -112 14 -112q74 0 131 80.5t57 234.5q0 239 -146.5 367.5t-387.5 128.5q-252 0 -403.5 -161t-151.5 -419q0 -267 163 -421t427 -154q229 0 387 120h203 q-111 -148 -265.5 -226.5t-341.5 -78.5q-217 0 -398 96.5t-288.5 271.5t-107.5 392zM641 686q0 -73 41 -120.5t111 -47.5q90 0 147 62.5t57 152.5q0 72 -43.5 118t-113.5 46q-83 0 -141 -65t-58 -146z" />
<glyph unicode="A" d="M10 0l185 1462h542l201 -1462h-377l-18 258h-137l-19 -258h-377zM406 516h131l-66 688h-4z" />
<glyph unicode="B" d="M45 0v1462h533q158 0 235.5 -60t77.5 -210v-162q0 -119 -60.5 -166.5t-185.5 -52.5l-4 -4q127 -5 200.5 -78t73.5 -203v-204q0 -171 -88.5 -246.5t-271.5 -75.5h-510zM410 246h36q93 0 93 92v242q0 92 -93 92h-36v-426zM410 893h41q40 0 64 25t24 65v156q0 40 -24 65 t-64 25h-41v-336z" />
<glyph unicode="C" d="M45 422v618q0 74 12 136.5t44 122.5t82 101.5t131.5 67t187.5 25.5q205 0 313.5 -108t108.5 -304v-207h-377v273q0 20 -0.5 30t-4 26t-10 23.5t-20 14t-33.5 6.5q-57 0 -57 -96v-840q0 -96 57 -96q20 0 33.5 7t20 16t10 27.5t4 31t0.5 37.5v297h377v-242 q0 -194 -115 -307t-315 -113q-110 0 -192 25.5t-130 66.5t-77.5 102.5t-39.5 122t-10 136.5z" />
<glyph unicode="D" horiz-adv-x="987" d="M45 0v1462h475q84 0 143 -7.5t115.5 -30.5t90 -63.5t53.5 -109t20 -164.5v-806q0 -64 -19 -113.5t-50.5 -80.5t-75.5 -51t-90 -28t-99 -8h-563zM422 246h55q41 0 65 34q23 31 23 79v8v729v8q-1 48 -23 79q-24 34 -65 34h-55v-971z" />
<glyph unicode="E" horiz-adv-x="720" d="M45 0v1462h637v-295h-260v-268h244v-283h-244v-321h280v-295h-657z" />
<glyph unicode="F" horiz-adv-x="681" d="M45 0v1462h635v-295h-258v-268h221v-283h-221v-616h-377z" />
<glyph unicode="G" horiz-adv-x="987" d="M45 395v645q0 76 10 136.5t39.5 122t77.5 102.5t130 66.5t192 25.5q238 0 337 -97t99 -323v-149h-377v225q0 49 -12 73.5t-47 24.5q-72 0 -72 -108v-803q0 -115 72 -115q24 0 39.5 9t22 27t8 34t1.5 43v246h-78v208h455v-788h-246l-28 102q-48 -65 -124 -99t-161 -34 q-75 0 -134 24t-96.5 63.5t-62.5 95t-35 115.5t-10 128z" />
<glyph unicode="H" horiz-adv-x="987" d="M45 0v1462h377v-530h143v530h377v-1462h-377v612h-143v-612h-377z" />
<glyph unicode="I" horiz-adv-x="454" d="M39 0v1462h377v-1462h-377z" />
<glyph unicode="J" horiz-adv-x="606" d="M39 0v262q32 -4 57 -4q53 0 73.5 29t20.5 88v1087h377v-1204q0 -32 -5 -62t-23.5 -67.5t-48 -64.5t-84.5 -45.5t-127 -18.5h-240z" />
<glyph unicode="K" d="M45 0v1462h365v-573h4l170 573h358l-221 -649l252 -813h-402l-157 643h-4v-643h-365z" />
<glyph unicode="L" horiz-adv-x="681" d="M45 0v1462h377v-1179h250v-283h-627z" />
<glyph unicode="M" horiz-adv-x="1290" d="M45 0v1462h502l98 -854h4l88 854h508v-1462h-319v1085h-4l-158 -1085h-238l-157 1085h-4v-1085h-320z" />
<glyph unicode="N" d="M45 0v1462h320l215 -727h4v727h319v-1462h-319l-213 817h-6v-817h-320z" />
<glyph unicode="O" horiz-adv-x="987" d="M45 422v618q0 76 10 136.5t39.5 122t77.5 102.5t130 66.5t192 25.5q92 0 164.5 -17t120.5 -49.5t81 -73t50.5 -94t24.5 -105.5t7 -114v-618q0 -62 -7 -114t-24.5 -105.5t-50.5 -94t-81 -73t-120.5 -49.5t-164.5 -17q-110 0 -192 25.5t-130 66.5t-77.5 102.5t-39.5 122 t-10 136.5zM422 311q0 -96 72 -96q71 0 71 96v840q0 96 -71 96q-72 0 -72 -96v-840z" />
<glyph unicode="P" horiz-adv-x="909" d="M45 0v1462h494q166 0 256 -83.5t90 -250.5v-180q0 -82 -16.5 -144.5t-52 -110t-97 -72.5t-146.5 -25h-163v-596h-365zM410 842h65q48 0 69 22t21 66v198q0 44 -21 66.5t-69 22.5h-65v-375z" />
<glyph unicode="Q" horiz-adv-x="987" d="M45 422v618q0 76 10 136.5t39.5 122t77.5 102.5t130 66.5t192 25.5q92 0 164.5 -17t120.5 -49.5t81 -73t50.5 -94t24.5 -105.5t7 -114v-579q0 -185 -44 -263t-179 -108v-18q0 -35 16.5 -49.5t59.5 -14.5h168v-184h-347q-206 0 -206 149v21h-29q-77 0 -137 26t-96.5 68 t-60.5 99.5t-33 114.5t-9 120zM422 311q0 -96 72 -96q71 0 71 96v840q0 96 -71 96q-72 0 -72 -96v-840z" />
<glyph unicode="R" d="M45 0v1462h416q61 0 100.5 -1.5t89.5 -8t81 -18.5t64 -33.5t51 -52.5t30 -77.5t12 -105.5v-131q0 -123 -52 -187t-169 -71v-4q124 -7 179.5 -71t55.5 -189v-512h-352v555q0 127 -98 127q-22 0 -43 -6v-676h-365zM410 903h28q47 0 80 23t33 80v120q0 57 -33 80t-80 23h-28 v-326z" />
<glyph unicode="S" horiz-adv-x="909" d="M29 1049v81q0 191 106.5 277t304.5 86q102 0 178 -19t120.5 -48.5t72 -73.5t36.5 -86.5t9 -94.5v-137h-338v121q0 105 -74 105q-63 0 -63 -97v-63q0 -43 27.5 -79.5t71.5 -66t97.5 -60.5t107 -70t97.5 -86.5t71.5 -119.5t27.5 -159v-115q0 -109 -31 -183.5t-92 -115.5 t-137.5 -58.5t-180.5 -17.5t-179.5 20.5t-119.5 53t-69 84t-33 102.5t-8 121v182h352v-235q0 -94 63 -94q20 0 33.5 9t20.5 21t11 32.5t4.5 34.5t0.5 36v61q0 54 -27 98t-70 76t-95 63t-103.5 68t-94.5 81.5t-70 112.5t-27 153z" />
<glyph unicode="T" horiz-adv-x="831" d="M4 1167v295h823v-295h-223v-1167h-377v1167h-223z" />
<glyph unicode="U" horiz-adv-x="987" d="M45 401v1061h377v-1116q0 -64 17 -91.5t55 -27.5t54.5 27.5t16.5 91.5v1116h377v-1061q0 -77 -13 -139.5t-45 -118.5t-82 -93.5t-128 -59t-180 -21.5q-127 0 -216.5 32t-139 92.5t-71.5 135.5t-22 172z" />
<glyph unicode="V" d="M16 1462h377l86 -1179h4l97 1179h352l-199 -1462h-534z" />
<glyph unicode="W" horiz-adv-x="1517" d="M0 1462h365l86 -1011h4l104 1011h395l107 -1011h4l88 1011h365l-172 -1462h-478l-102 848h-4l-113 -848h-479z" />
<glyph unicode="X" d="M4 0l164 795l-152 667h377l74 -481h4l92 481h338l-160 -628l203 -834h-364l-109 612h-4l-86 -612h-377z" />
<glyph unicode="Y" horiz-adv-x="909" d="M0 1462h352l109 -579h4l92 579h352l-272 -930v-532h-365v532z" />
<glyph unicode="Z" horiz-adv-x="720" d="M12 0v229l312 951h-277v282h643v-260l-287 -919h306v-283h-697z" />
<glyph unicode="[" horiz-adv-x="606" d="M84 254v954q0 58 5 97t19.5 68.5t35.5 46t59.5 26.5t83.5 13t116 3h160v-190q-35 6 -57 6q-45 0 -64.5 -12t-19.5 -39v-991q0 -27 19.5 -39.5t64.5 -12.5q22 0 57 6v-190h-160q-71 0 -116 3t-83.5 13t-59.5 26.5t-35.5 46t-19.5 68.5t-5 97z" />
<glyph unicode="\" horiz-adv-x="530" d="M-33 1493h230l366 -1524h-237z" />
<glyph unicode="]" horiz-adv-x="606" d="M43 0v190q35 -6 57 -6q45 0 64.5 12.5t19.5 39.5v991q0 27 -19.5 39t-64.5 12q-22 0 -57 -6v190h160q71 0 116 -3t83.5 -13t59.5 -26.5t35.5 -46t19.5 -68.5t5 -97v-954q0 -58 -5 -97t-19.5 -68.5t-35.5 -46t-59.5 -26.5t-83.5 -13t-116 -3h-160z" />
<glyph unicode="^" horiz-adv-x="1228" d="M150 715l358 747h213l358 -747h-239l-226 514l-227 -514h-237z" />
<glyph unicode="_" horiz-adv-x="1024" d="M0 -154h1024v-102h-1024v102z" />
<glyph unicode="`" horiz-adv-x="454" d="M-135 1522h352l176 -222h-147z" />
<glyph unicode="a" horiz-adv-x="909" d="M45 225v162q0 40 1.5 62t9 49.5t21.5 44t40 36.5t64.5 37.5t94.5 38.5q105 40 150.5 64t59.5 45t14 59v152q0 29 -16.5 50.5t-45.5 21.5q-55 0 -55 -72v-238h-338v127q0 195 96.5 281t304.5 86q102 0 175 -16.5t130 -55.5t85 -109.5t28 -172.5v-877h-352v68 q-42 -44 -102.5 -71.5t-126.5 -27.5q-114 0 -176 69.5t-62 186.5zM383 264q0 -27 14.5 -47t38.5 -20q31 0 47.5 19t16.5 42v313q-60 -37 -88.5 -79t-28.5 -103v-125z" />
<glyph unicode="b" d="M45 0v1462h365v-366h4q44 59 102.5 97t124.5 38q120 0 191 -90t71 -273v-579q0 -63 -12.5 -117t-40 -101.5t-78.5 -74.5t-121 -27q-78 0 -129.5 30.5t-115.5 98.5l-17 -98h-344zM410 309q0 -58 14.5 -82t54.5 -24q25 0 42.5 18t17.5 43v633q0 31 -16.5 53.5t-43.5 22.5 q-34 0 -51.5 -23t-17.5 -59v-582z" />
<glyph unicode="c" horiz-adv-x="909" d="M45 367v467q0 90 26 160.5t67.5 114t99 72t115.5 39.5t122 11q188 0 297 -99t109 -288v-101h-353v197q0 21 -3 34t-16.5 24.5t-39.5 11.5t-39.5 -11.5t-16.5 -24.5t-3 -34v-655q0 -50 13 -72.5t52 -22.5q36 0 51 24t15 75v207h352v-60q0 -110 -21.5 -192.5t-58 -134 t-91 -83.5t-114 -44.5t-133.5 -12.5q-64 0 -122 11t-115.5 39.5t-99 72.5t-67.5 114.5t-26 160.5z" />
<glyph unicode="d" d="M45 248v694q0 144 62.5 216.5t199.5 72.5q67 0 129 -29.5t99 -83.5h4v344h364v-1462h-383l19 72h-4q-110 -103 -244 -103q-125 1 -187 77q-59 73 -59 190v12zM410 295q0 -80 59 -80q41 0 55.5 20t14.5 60v606q0 21 -1.5 34.5t-7.5 29.5t-19.5 24t-35.5 8q-39 0 -52 -21.5 t-13 -74.5v-606z" />
<glyph unicode="e" horiz-adv-x="909" d="M45 367v467q0 90 26 160.5t67.5 114t99 72t115.5 39.5t122 11q56 0 110 -12t108.5 -41.5t95.5 -73.5t66.5 -113.5t25.5 -156.5v-252h-471v-314q0 -39 11.5 -58.5t43.5 -19.5q63 0 63 84v215h353v-122q0 -90 -24 -160.5t-63 -114.5t-93 -72.5t-109.5 -39.5t-116.5 -11 q-64 0 -122 11t-115.5 39.5t-99 72.5t-67.5 114.5t-26 160.5zM410 778h118v148q0 84 -63 84q-32 0 -43.5 -19.5t-11.5 -58.5v-154z" />
<glyph unicode="f" horiz-adv-x="569" d="M10 1004v196h76q6 157 68.5 209.5t234.5 52.5h162v-184h-55q-51 0 -80 -16t-35 -62h178v-196h-108v-1004h-365v1004h-76z" />
<glyph unicode="g" d="M45 485v422q0 89 26 160t87.5 117.5t152.5 46.5q76 0 131 -29t105 -98h4v96h352v-973q0 -403 -457 -403q-82 0 -146.5 13t-122 44t-89 91.5t-31.5 146.5h353v-39q0 -26 13.5 -49t41.5 -23q38 0 56 16t18 68v166q-94 -94 -228 -94q-89 0 -150.5 46t-88.5 116.5t-27 158.5z M397 492q0 -36 17.5 -59t56.5 -23q34 0 51 23.5t17 58.5v399q0 35 -17 58.5t-51 23.5q-39 0 -56.5 -23t-17.5 -59v-399z" />
<glyph unicode="h" d="M55 0v1462h365v-354h4q23 55 90 89t131 34q118 0 183 -79.5t65 -240.5v-911h-365v899q0 86 -57 86q-23 0 -35 -16t-14 -31.5t-2 -40.5v-897h-365z" />
<glyph unicode="i" horiz-adv-x="454" d="M45 0v1200h365v-1200h-365zM45 1278v184h365v-184h-365z" />
<glyph unicode="j" horiz-adv-x="454" d="M-25 8q45 1 57.5 15.5t12.5 58.5v1118h365v-1077q0 -92 -19 -151t-62.5 -91.5t-100.5 -44.5t-146 -12q-8 0 -107 6v178zM45 1278v184h365v-184h-365z" />
<glyph unicode="k" horiz-adv-x="872" d="M45 0v1462h365v-684h4l114 422h320l-146 -479l179 -721h-353l-114 506h-4v-506h-365z" />
<glyph unicode="l" horiz-adv-x="454" d="M45 0v1462h365v-1462h-365z" />
<glyph unicode="m" horiz-adv-x="1404" d="M55 0v1200h365v-92h4q23 55 94 90q59 33 127 33q78 0 132.5 -40.5t84.5 -96.5q56 64 113 100.5t127 36.5q118 0 183 -79.5t65 -240.5v-911h-365v899q0 86 -57 86q-22 0 -33.5 -16t-13.5 -31.5t-2 -40.5v-897h-353v899q0 86 -55 86q-23 0 -35 -16t-14 -31.5t-2 -40.5v-897 h-365z" />
<glyph unicode="n" d="M55 0v1200h365v-92h4q24 49 83.5 86t137.5 37q118 0 183 -79.5t65 -240.5v-911h-365v899q0 86 -57 86q-23 0 -35 -16t-14 -31.5t-2 -40.5v-897h-365z" />
<glyph unicode="o" horiz-adv-x="950" d="M45 367v467q0 90 26 160.5t67.5 114t99 72t115.5 39.5t122 11t122 -11t115.5 -39.5t99 -72t67.5 -114t26 -160.5v-467q0 -90 -26 -160.5t-67.5 -114.5t-99 -72.5t-115.5 -39.5t-122 -11t-122 11t-115.5 39.5t-99 72.5t-67.5 114.5t-26 160.5zM410 295q0 -33 16.5 -56.5 t48.5 -23.5t49 23.5t17 56.5v635q0 33 -17 56.5t-49 23.5t-48.5 -23t-16.5 -57v-635z" />
<glyph unicode="p" horiz-adv-x="950" d="M45 -176v1376h365v-100q49 58 113.5 94.5t133.5 36.5q61 0 106 -19.5t72 -51.5t43 -82t21.5 -102t5.5 -120v-473q0 -55 -2.5 -96.5t-10.5 -93.5t-26 -88.5t-45 -69t-71.5 -49.5t-102.5 -17q-136 0 -233 133h-4v-278h-365zM410 317q0 -45 16.5 -73.5t48.5 -28.5 q66 0 66 102v596q0 42 -14.5 63t-51.5 21q-65 0 -65 -84v-596z" />
<glyph unicode="q" horiz-adv-x="950" d="M45 383v473q0 68 5.5 120t21.5 102t43 82t72 51.5t106 19.5q70 0 134.5 -36.5t113.5 -94.5v100h364v-1376h-364v278h-4q-44 -60 -101 -96q-63 -37 -133 -37q-58 0 -102.5 17t-71.5 49.5t-45 69t-26 88.5t-10.5 93.5t-2.5 96.5zM410 317q0 -104 65 -104q32 0 49 29.5 t17 74.5v596q0 84 -66 84q-37 0 -51 -21t-14 -63v-596z" />
<glyph unicode="r" horiz-adv-x="645" d="M55 0v1200h353v-153h4q24 80 90 128.5t135 55.5v-436q-40 4 -62 4q-72 0 -113.5 -43t-41.5 -115v-641h-365z" />
<glyph unicode="s" horiz-adv-x="872" d="M29 301v131h338v-164q0 -28 15.5 -46.5t43.5 -18.5q27 0 46.5 17.5t19.5 51.5v62q0 37 -25 66.5t-65 52t-88 45.5t-96.5 53.5t-88.5 69t-65 99t-25 136.5q0 39 3 71.5t13 72.5t27 71t48 62.5t72.5 51.5t103 33t138.5 13q51 0 100 -8t102 -29t92.5 -54t65 -88t25.5 -126 v-113h-337v113q0 71 -56 71q-59 0 -59 -71v-47q0 -21 12.5 -40t42 -39t57 -35.5t80 -43t88.5 -47.5q61 -35 99 -72t57 -82.5t25 -90t6 -112.5q0 -189 -111.5 -268.5t-320.5 -79.5q-91 0 -158.5 16t-119.5 53.5t-78.5 103t-26.5 159.5z" />
<glyph unicode="t" horiz-adv-x="569" d="M10 1004v196h76v184h377v-184h96v-196h-96v-758q0 -26 10 -37.5t35 -11.5h51v-197h-201q-73 0 -123 12.5t-79 33t-45 58.5t-20.5 77.5t-4.5 101.5v721h-76z" />
<glyph unicode="u" d="M55 289v911h365v-899q0 -86 57 -86q23 0 35 16t14 31.5t2 40.5v897h365v-1200h-365v92h-4q-23 -55 -90 -89t-131 -34q-118 0 -183 79.5t-65 240.5z" />
<glyph unicode="v" horiz-adv-x="833" d="M4 1200h338l94 -954h4l70 954h319l-170 -1200h-477z" />
<glyph unicode="w" horiz-adv-x="1290" d="M4 1200h338l68 -868h4l92 868h313l96 -868h5l55 868h311l-139 -1200h-408l-71 649h-4l-89 -649h-415z" />
<glyph unicode="x" horiz-adv-x="833" d="M4 0l170 627l-143 573h327l86 -438h5l75 438h305l-151 -569l151 -631h-305l-75 422h-5l-96 -422h-344z" />
<glyph unicode="y" horiz-adv-x="833" d="M0 1200h352l94 -924h5l63 924h320l-140 -1028q-9 -62 -18.5 -106t-28.5 -93t-45.5 -79t-69.5 -50t-100 -20h-381v172h84q42 3 57 19t15 55q0 2 -12 77z" />
<glyph unicode="z" horiz-adv-x="681" d="M20 0v250l275 717h-250v233h602v-278l-262 -689h277v-233h-642z" />
<glyph unicode="{" horiz-adv-x="681" d="M16 631v196q22 0 48.5 6t56 18.5t48.5 39t19 61.5v228q0 107 83 194.5t190 87.5h205v-184h-88q-65 0 -92 -33.5t-27 -99.5v-215q-1 -91 -64 -141.5t-157 -55.5v-4q109 -11 164.5 -60.5t56.5 -156.5v-195q0 -66 27 -99.5t92 -33.5h88v-184h-205q-107 0 -190 88t-83 195 v204q0 31 -12 56.5t-30.5 41.5t-42 26.5t-45.5 15t-42 4.5z" />
<glyph unicode="|" horiz-adv-x="454" d="M104 -31v1524h246v-1524h-246z" />
<glyph unicode="}" horiz-adv-x="681" d="M16 0v184h88q65 0 92 33.5t27 99.5v195q1 107 56.5 156.5t164.5 60.5v4q-94 5 -157 55.5t-64 141.5v215q0 66 -27 99.5t-92 33.5h-88v184h205q107 0 190 -87.5t83 -194.5v-228q0 -35 19 -61.5t48.5 -39t56 -18.5t48.5 -6v-196q-20 0 -42 -4.5t-45.5 -15t-42 -26.5 t-30.5 -41.5t-12 -56.5v-204q0 -107 -83 -195t-190 -88h-205z" />
<glyph unicode="~" horiz-adv-x="1228" d="M141 524q91 174 256 174q65 0 152 -35t165 -69.5t120 -34.5q29 0 54.5 11.5t50 38t37.5 44t38 54.5l73 -195q-23 -32 -38.5 -52t-41 -46t-49.5 -40.5t-57 -25t-70 -10.5q-38 0 -79 11t-64.5 22t-69.5 35t-71.5 35.5t-70.5 23.5t-89 12q-61 0 -101 -40.5t-71 -106.5z" />
<glyph unicode="&#xa1;" horiz-adv-x="532" d="M59 -262l56 1075h295l63 -1075h-414zM90 918v282h338v-282h-338z" />
<glyph unicode="&#xa2;" horiz-adv-x="909" d="M29 367v467q0 169 81 260.5t248 136.5v158h185v-158q159 -27 239 -127q80 -95 80 -260v-101h-352v199q0 21 -3 34t-17 24.5t-41 11.5q-24 0 -37 -11.5t-16 -25t-3 -33.5v-657q0 -50 13 -72.5t51 -22.5q40 0 55.5 23.5t15.5 75.5v207h353v-60q0 -98 -17.5 -175t-47 -128 t-73.5 -86t-92.5 -53t-107.5 -25v-131h-185v131q-61 9 -115.5 34t-104.5 69.5t-79.5 120t-29.5 174.5z" />
<glyph unicode="&#xa3;" horiz-adv-x="983" d="M45 -31v234q47 27 78 103.5t41 147.5t10 134h-129v233h100q-86 164 -86 295q0 50 11 98.5t42 100.5t78 90t126.5 63t181.5 25q118 0 198 -26.5t123.5 -79t61.5 -117.5t18 -154v-123h-338v185q0 47 -21 76.5t-55 29.5q-37 0 -55 -28.5t-18 -69.5q0 -64 37.5 -183.5 t39.5 -181.5h232v-233h-215q-17 -297 -187 -363v-4q47 6 91 6q22 0 68 -6t73 -6q29 0 42 28t13 97v70h338v-109q0 -98 -23.5 -166t-65.5 -102.5t-89.5 -49t-106.5 -14.5q-58 0 -187.5 37t-190.5 37q-137 0 -236 -74z" />
<glyph unicode="&#xa4;" horiz-adv-x="983" d="M0 365l102 102q-79 119 -79 264q0 146 79 264l-102 103l125 125l102 -103q119 80 265 80q141 0 262 -80l102 103l127 -125l-102 -103q77 -115 77 -264q0 -152 -79 -262l104 -104l-127 -125l-104 104q-114 -82 -260 -82q-149 0 -263 82l-104 -104zM244 731 q0 -112 70.5 -186t177.5 -74q106 0 175.5 74t69.5 186t-69.5 186t-175.5 74q-107 0 -177.5 -74t-70.5 -186z" />
<glyph unicode="&#xa5;" horiz-adv-x="983" d="M39 289v209h287l-35 139h-252v209h190l-180 616h340l109 -579h4l92 579h340l-180 -616h190v-209h-252l-35 -139h287v-209h-282v-289h-340v289h-283z" />
<glyph unicode="&#xa6;" horiz-adv-x="454" d="M104 -31v563h246v-563h-246zM104 930v563h246v-563h-246z" />
<glyph unicode="&#xa7;" horiz-adv-x="985" d="M70 164v37h338v-84q0 -30 15.5 -51t45.5 -21q29 0 47.5 16.5t18.5 44.5v64q0 29 -25.5 52t-66.5 41t-90.5 37.5t-99.5 48t-91 66.5t-66.5 99.5t-25.5 140.5q0 148 98 260q-74 104 -74 232q0 177 112 261.5t302 84.5q79 0 146 -17.5t121 -53t85 -96.5t31 -142v-43h-338v55 q0 76 -57 76q-64 0 -64 -82q0 -29 21 -54t54.5 -42.5t77 -38t89 -40t89 -50t77 -66t54.5 -89.5t21 -120q0 -175 -110 -280q51 -51 66.5 -98t15.5 -128q0 -171 -111 -265.5t-297 -94.5q-196 0 -302.5 93t-106.5 247zM313 719q0 -20 12 -36t31 -24l277 -122q16 17 26.5 43 t10.5 41q0 45 -52 67l-270 119q-2 -4 -10.5 -20t-12.5 -23.5t-8 -20.5t-4 -24z" />
<glyph unicode="&#xa8;" horiz-adv-x="454" d="M-139 1300v222h307v-222h-307zM287 1300v222h307v-222h-307z" />
<glyph unicode="&#xa9;" horiz-adv-x="1638" d="M57 731q0 155 60.5 296t162.5 243t243 162.5t296 60.5t296 -60.5t243 -162.5t162.5 -243t60.5 -296t-60.5 -296t-162.5 -243t-243 -162.5t-296 -60.5t-296 60.5t-243 162.5t-162.5 243t-60.5 296zM242 731q0 -118 45.5 -224.5t123 -184t184 -123t224.5 -45.5 q157 0 290 77t210.5 210t77.5 290t-77.5 290t-210.5 210.5t-290 77.5t-290 -77.5t-210 -210.5t-77 -290zM420 737q0 193 114 317t304 124q142 0 239.5 -82t120.5 -232h-197q-13 65 -59.5 97t-105.5 32q-96 0 -145.5 -66t-49.5 -186q0 -115 52 -186.5t138 -71.5 q71 0 117.5 35.5t52.5 102.5h205q-21 -153 -123 -237.5t-241 -84.5q-188 0 -305 125t-117 313z" />
<glyph unicode="&#xaa;" horiz-adv-x="589" d="M29 889v96q0 37 3 55t18 38.5t45 35.5t85 33q98 35 123 52t25 48v80q0 16 -12 29.5t-31 13.5q-35 0 -35 -43v-129h-221v74q0 118 63 169.5t199 51.5q135 0 202.5 -47.5t67.5 -165.5v-526h-227v41q-64 -60 -150 -60q-74 0 -114.5 42t-40.5 112zM250 915q0 -16 9 -27 t24 -11q21 0 33 11t12 25v187q-78 -41 -78 -109v-76z" />
<glyph unicode="&#xab;" horiz-adv-x="833" d="M8 586l154 327h289l-148 -327l139 -312h-295zM383 586l154 327h288l-147 -327l137 -312h-295z" />
<glyph unicode="&#xac;" horiz-adv-x="1228" d="M96 625v245h1037v-649h-246v404h-791z" />
<glyph unicode="&#xad;" horiz-adv-x="645" d="M37 516v283h571v-283h-571z" />
<glyph unicode="&#xae;" horiz-adv-x="1638" d="M57 731q0 155 60.5 296t162.5 243t243 162.5t296 60.5t296 -60.5t243 -162.5t162.5 -243t60.5 -296t-60.5 -296t-162.5 -243t-243 -162.5t-296 -60.5t-296 60.5t-243 162.5t-162.5 243t-60.5 296zM242 731q0 -118 45.5 -224.5t123 -184t184 -123t224.5 -45.5 q157 0 290 77t210.5 210t77.5 290t-77.5 290t-210.5 210.5t-290 77.5t-290 -77.5t-210 -210.5t-77 -290zM512 319v826h305q174 0 261 -55.5t87 -196.5q0 -207 -221 -217l209 -357h-209l-190 345h-58v-345h-184zM696 811h158q59 0 87 21.5t28 80.5q0 84 -156 84h-117v-186z " />
<glyph unicode="&#xaf;" horiz-adv-x="454" d="M-61 1346v147h577v-147h-577z" />
<glyph unicode="&#xb0;" horiz-adv-x="819" d="M117 1200q0 122 85.5 207.5t207.5 85.5q121 0 206.5 -85.5t85.5 -207.5t-85.5 -207.5t-206.5 -85.5q-122 0 -207.5 85.5t-85.5 207.5zM244 1200q0 -69 48.5 -117.5t117.5 -48.5t117 48.5t48 117.5t-48 117.5t-117 48.5t-117.5 -48.5t-48.5 -117.5z" />
<glyph unicode="&#xb1;" horiz-adv-x="1228" d="M96 0v246h1037v-246h-1037zM96 549v246h396v241h245v-241h396v-246h-396v-242h-245v242h-396z" />
<glyph unicode="&#xb2;" horiz-adv-x="638" d="M45 598v127l268 416q60 91 60 149q0 23 -13 39.5t-36 16.5q-58 0 -58 -74v-98h-221v65q0 254 279 254q130 0 206 -56.5t76 -164.5q0 -88 -63 -182l-219 -332h264v-160h-543z" />
<glyph unicode="&#xb3;" horiz-adv-x="638" d="M45 858v82h221v-154q0 -71 45 -71q21 0 31.5 12t12 22.5t1.5 28.5v131q0 52 -19.5 71t-74.5 19h-53v136h45q28 0 43 2t30.5 9t22 23.5t6.5 44.5v103q0 18 -11 29.5t-32 11.5q-47 0 -47 -62v-98h-221v45q0 144 62 197t204 53q51 0 94.5 -9t86 -30.5t67.5 -65t25 -104.5 v-51q0 -53 -29 -95.5t-84 -43.5v-4q36 -4 61.5 -18t39 -31t20.5 -46t8.5 -52t1.5 -60v-62q0 -131 -70 -186t-215 -55q-55 0 -97.5 8.5t-71 21t-48.5 35t-30.5 43.5t-16.5 53t-7 56t-1 61z" />
<glyph unicode="&#xb4;" horiz-adv-x="454" d="M61 1300l177 222h352l-381 -222h-148z" />
<glyph unicode="&#xb5;" d="M55 -176v1376h365v-899q0 -86 57 -86q23 0 35 16t14 31.5t2 40.5v897h365v-1200h-365v92h-4q-11 -25 -32 -43t-43 -18q-14 0 -29 6v-213h-365z" />
<glyph unicode="&#xb6;" horiz-adv-x="1269" d="M61 1098q0 107 37.5 180.5t109 112.5t157 55t200.5 16h643v-1607h-245v1423h-199v-1423h-246v893q-221 0 -339 92t-118 258z" />
<glyph unicode="&#xb7;" horiz-adv-x="491" d="M86 612q0 67 47.5 113.5t112.5 46.5t112.5 -46.5t47.5 -113.5t-47.5 -113t-112.5 -46t-112.5 46t-47.5 113z" />
<glyph unicode="&#xb8;" horiz-adv-x="454" d="M135 -311q15 -6 47 -6q39 0 61.5 21.5t22.5 45.5q0 66 -86 66q-20 0 -35 -6v239h111v-117h23q71 0 109 -41t38 -114q0 -88 -63 -140.5t-164 -52.5q-40 0 -64 8v97z" />
<glyph unicode="&#xb9;" horiz-adv-x="491" d="M45 1217v110q93 18 157 51.5t113 96.5h134v-877h-234v518q0 56 -15.5 78.5t-70.5 22.5h-84z" />
<glyph unicode="&#xba;" horiz-adv-x="618" d="M29 973v280q0 67 24.5 115.5t67 74.5t89.5 38t101 12q53 0 99.5 -12t88.5 -38t66.5 -74.5t24.5 -115.5v-280q0 -54 -16.5 -96t-43.5 -68.5t-64.5 -43.5t-75 -23.5t-79.5 -6.5t-80.5 6.5t-76 23.5t-64.5 43.5t-44 68.5t-17 96zM262 930q0 -20 12 -33.5t35 -13.5t35 13.5 t12 33.5v379q0 21 -12 35t-35 14t-35 -14t-12 -35v-379z" />
<glyph unicode="&#xbb;" horiz-adv-x="833" d="M8 913h289l154 -327l-138 -312h-295l138 312zM383 913h289l153 -327l-139 -312h-295l139 312z" />
<glyph unicode="&#xbc;" horiz-adv-x="1476" d="M45 1217v110q93 18 157 51.5t113 96.5h134v-877h-234v518q0 56 -15.5 78.5t-70.5 22.5h-84zM375 -31l569 1524h158l-572 -1524h-155zM827 160v137l207 580h320v-570h78v-147h-78v-160h-228v160h-299zM1030 307h119v447h-4z" />
<glyph unicode="&#xbd;" horiz-adv-x="1476" d="M45 1217v110q93 18 157 51.5t113 96.5h134v-877h-234v518q0 56 -15.5 78.5t-70.5 22.5h-84zM330 -31l569 1524h158l-572 -1524h-155zM870 0v127l269 416q59 90 59 149q0 23 -13 39.5t-36 16.5q-34 0 -45.5 -19.5t-11.5 -54.5v-99h-222v66q0 254 279 254q130 0 206.5 -57 t76.5 -164q0 -87 -64 -182l-219 -332h264v-160h-543z" />
<glyph unicode="&#xbe;" horiz-adv-x="1476" d="M45 858v82h221v-154q0 -71 45 -71q21 0 31.5 12t12 22.5t1.5 28.5v131q0 52 -19.5 71t-74.5 19h-53v136h45q28 0 43 2t30.5 9t22 23.5t6.5 44.5v103q0 18 -11 29.5t-32 11.5q-47 0 -47 -62v-98h-221v45q0 144 62 197t204 53q51 0 94.5 -9t86 -30.5t67.5 -65t25 -104.5 v-51q0 -53 -29 -95.5t-84 -43.5v-4q36 -4 61.5 -18t39 -31t20.5 -46t8.5 -52t1.5 -60v-62q0 -131 -70 -186t-215 -55q-55 0 -97.5 8.5t-71 21t-48.5 35t-30.5 43.5t-16.5 53t-7 56t-1 61zM416 -31l569 1524h158l-572 -1524h-155zM827 160v137l207 580h320v-570h78v-147h-78 v-160h-228v160h-299zM1030 307h119v447h-4z" />
<glyph unicode="&#xbf;" horiz-adv-x="983" d="M72 143v217q0 188 71.5 284.5t198.5 96.5q84 0 133 -27t82 -77h4v156h338v-402h-338v10q0 68 -72 68q-65 0 -65 -94v-377q0 -82 61 -82q25 0 41 8.5t22.5 25.5t8.5 31.5t2 38.5v185h352v-111q0 -59 -8 -107.5t-34.5 -103t-70.5 -91t-122 -61t-184 -24.5 q-217 0 -318.5 104.5t-101.5 331.5zM561 905v295h338v-295h-338z" />
<glyph unicode="&#xc0;" d="M10 0l185 1462h542l201 -1462h-377l-18 258h-137l-19 -258h-377zM113 1776h352l176 -222h-147zM406 516h131l-66 688h-4z" />
<glyph unicode="&#xc1;" d="M10 0l185 1462h542l201 -1462h-377l-18 258h-137l-19 -258h-377zM309 1554l176 222h353l-381 -222h-148zM406 516h131l-66 688h-4z" />
<glyph unicode="&#xc2;" d="M10 0l185 1462h542l201 -1462h-377l-18 258h-137l-19 -258h-377zM154 1554l231 222h172l240 -222h-174l-148 68l-145 -68h-176zM406 516h131l-66 688h-4z" />
<glyph unicode="&#xc3;" d="M10 0l185 1462h542l201 -1462h-377l-18 258h-137l-19 -258h-377zM178 1618q103 158 213 158q42 0 110 -37t109 -37q32 0 50 13.5t40 45.5l72 -45q-38 -69 -96.5 -115.5t-128.5 -46.5q-42 0 -112 34t-99 34q-21 0 -38.5 -10.5t-24.5 -18.5t-25 -32zM406 516h131l-66 688 h-4z" />
<glyph unicode="&#xc4;" d="M10 0l185 1462h542l201 -1462h-377l-18 258h-137l-19 -258h-377zM109 1554v222h307v-222h-307zM406 516h131l-66 688h-4zM535 1554v222h307v-222h-307z" />
<glyph unicode="&#xc5;" d="M10 0l185 1462h542l201 -1462h-377l-18 258h-137l-19 -258h-377zM272 1716q0 84 58.5 142.5t144.5 58.5q80 0 141.5 -59t61.5 -142q0 -85 -59 -144t-144 -59t-144 61t-59 142zM383 1716q0 -38 27 -65t65 -27t65 28.5t27 63.5q0 38 -27.5 64t-64.5 26q-35 0 -63.5 -27.5 t-28.5 -62.5zM406 516h131l-66 688h-4z" />
<glyph unicode="&#xc6;" horiz-adv-x="1251" d="M0 0l319 1462h898v-295h-271v-268h252v-283h-252v-321h287v-295h-639v258h-170l-47 -258h-377zM469 516h125v701h-4z" />
<glyph unicode="&#xc7;" d="M45 422v618q0 74 12 136.5t44 122.5t82 101.5t131.5 67t187.5 25.5q205 0 313.5 -108t108.5 -304v-207h-377v273q0 20 -0.5 30t-4 26t-10 23.5t-20 14t-33.5 6.5q-57 0 -57 -96v-840q0 -96 57 -96q20 0 33.5 7t20 16t10 27.5t4 31t0.5 37.5v297h377v-242 q0 -191 -111.5 -303.5t-308.5 -116.5v-37h22q71 0 109.5 -41t38.5 -114q0 -88 -63.5 -140.5t-164.5 -52.5q-39 0 -63 8v97q15 -6 47 -6q39 0 61.5 21.5t22.5 45.5q0 66 -86 66q-20 0 -35 -6v167q-85 10 -148 40t-100.5 71t-60.5 98t-31 112.5t-8 123.5z" />
<glyph unicode="&#xc8;" horiz-adv-x="720" d="M-2 1776h352l176 -222h-147zM45 0v1462h637v-295h-260v-268h244v-283h-244v-321h280v-295h-657z" />
<glyph unicode="&#xc9;" horiz-adv-x="720" d="M45 0v1462h637v-295h-260v-268h244v-283h-244v-321h280v-295h-657zM195 1554l176 222h352l-381 -222h-147z" />
<glyph unicode="&#xca;" horiz-adv-x="720" d="M39 1554l231 222h172l240 -222h-174l-148 68l-145 -68h-176zM45 0v1462h637v-295h-260v-268h244v-283h-244v-321h280v-295h-657z" />
<glyph unicode="&#xcb;" horiz-adv-x="720" d="M-6 1554v222h307v-222h-307zM45 0v1462h637v-295h-260v-268h244v-283h-244v-321h280v-295h-657zM420 1554v222h307v-222h-307z" />
<glyph unicode="&#xcc;" horiz-adv-x="454" d="M-135 1776h352l176 -222h-147zM39 0v1462h377v-1462h-377z" />
<glyph unicode="&#xcd;" horiz-adv-x="454" d="M39 0v1462h377v-1462h-377zM61 1554l177 222h352l-381 -222h-148z" />
<glyph unicode="&#xce;" horiz-adv-x="454" d="M-94 1554l231 222h172l240 -222h-174l-148 68l-145 -68h-176zM39 0v1462h377v-1462h-377z" />
<glyph unicode="&#xcf;" horiz-adv-x="454" d="M-139 1554v222h307v-222h-307zM39 0v1462h377v-1462h-377zM287 1554v222h307v-222h-307z" />
<glyph unicode="&#xd0;" horiz-adv-x="987" d="M-25 657v172h70v633h475q84 0 143 -7.5t115.5 -30.5t90 -63.5t53.5 -109t20 -164.5v-806q0 -64 -19 -113.5t-50.5 -80.5t-75.5 -51t-90 -28t-99 -8h-563v657h-70zM422 246h55q41 0 65.5 34t22.5 87v729q2 53 -22.5 87t-65.5 34h-55v-388h67v-172h-67v-411z" />
<glyph unicode="&#xd1;" d="M45 0v1462h320l215 -727h4v727h319v-1462h-319l-213 817h-6v-817h-320zM178 1618q103 158 213 158q42 0 110 -37t109 -37q32 0 50 13.5t40 45.5l72 -45q-38 -69 -96.5 -115.5t-128.5 -46.5q-42 0 -112 34t-99 34q-21 0 -38.5 -10.5t-24.5 -18.5t-25 -32z" />
<glyph unicode="&#xd2;" horiz-adv-x="987" d="M45 422v618q0 76 10 136.5t39.5 122t77.5 102.5t130 66.5t192 25.5q92 0 164.5 -17t120.5 -49.5t81 -73t50.5 -94t24.5 -105.5t7 -114v-618q0 -62 -7 -114t-24.5 -105.5t-50.5 -94t-81 -73t-120.5 -49.5t-164.5 -17q-110 0 -192 25.5t-130 66.5t-77.5 102.5t-39.5 122 t-10 136.5zM131 1776h352l176 -222h-147zM422 311q0 -96 72 -96q71 0 71 96v840q0 96 -71 96q-72 0 -72 -96v-840z" />
<glyph unicode="&#xd3;" horiz-adv-x="987" d="M45 422v618q0 76 10 136.5t39.5 122t77.5 102.5t130 66.5t192 25.5q92 0 164.5 -17t120.5 -49.5t81 -73t50.5 -94t24.5 -105.5t7 -114v-618q0 -62 -7 -114t-24.5 -105.5t-50.5 -94t-81 -73t-120.5 -49.5t-164.5 -17q-110 0 -192 25.5t-130 66.5t-77.5 102.5t-39.5 122 t-10 136.5zM328 1554l176 222h352l-381 -222h-147zM422 311q0 -96 72 -96q71 0 71 96v840q0 96 -71 96q-72 0 -72 -96v-840z" />
<glyph unicode="&#xd4;" horiz-adv-x="987" d="M45 422v618q0 76 10 136.5t39.5 122t77.5 102.5t130 66.5t192 25.5q92 0 164.5 -17t120.5 -49.5t81 -73t50.5 -94t24.5 -105.5t7 -114v-618q0 -62 -7 -114t-24.5 -105.5t-50.5 -94t-81 -73t-120.5 -49.5t-164.5 -17q-110 0 -192 25.5t-130 66.5t-77.5 102.5t-39.5 122 t-10 136.5zM172 1554l231 222h172l240 -222h-174l-147 68l-146 -68h-176zM422 311q0 -96 72 -96q71 0 71 96v840q0 96 -71 96q-72 0 -72 -96v-840z" />
<glyph unicode="&#xd5;" horiz-adv-x="987" d="M45 422v618q0 76 10 136.5t39.5 122t77.5 102.5t130 66.5t192 25.5q92 0 164.5 -17t120.5 -49.5t81 -73t50.5 -94t24.5 -105.5t7 -114v-618q0 -62 -7 -114t-24.5 -105.5t-50.5 -94t-81 -73t-120.5 -49.5t-164.5 -17q-110 0 -192 25.5t-130 66.5t-77.5 102.5t-39.5 122 t-10 136.5zM197 1618q103 158 213 158q42 0 110 -37t109 -37q32 0 50 13.5t40 45.5l72 -45q-38 -69 -97 -115.5t-129 -46.5q-42 0 -112 34t-99 34q-21 0 -38.5 -10.5t-24.5 -18.5t-25 -32zM422 311q0 -96 72 -96q71 0 71 96v840q0 96 -71 96q-72 0 -72 -96v-840z" />
<glyph unicode="&#xd6;" horiz-adv-x="987" d="M45 422v618q0 76 10 136.5t39.5 122t77.5 102.5t130 66.5t192 25.5q92 0 164.5 -17t120.5 -49.5t81 -73t50.5 -94t24.5 -105.5t7 -114v-618q0 -62 -7 -114t-24.5 -105.5t-50.5 -94t-81 -73t-120.5 -49.5t-164.5 -17q-110 0 -192 25.5t-130 66.5t-77.5 102.5t-39.5 122 t-10 136.5zM127 1554v222h307v-222h-307zM422 311q0 -96 72 -96q71 0 71 96v840q0 96 -71 96q-72 0 -72 -96v-840zM553 1554v222h307v-222h-307z" />
<glyph unicode="&#xd7;" horiz-adv-x="1228" d="M131 203l313 315l-313 316l168 167l315 -315l316 315l168 -167l-316 -316l316 -315l-168 -168l-316 317l-315 -317z" />
<glyph unicode="&#xd8;" horiz-adv-x="987" d="M45 -31l76 152q-76 105 -76 301v618q0 76 10 136.5t39.5 122t77.5 102.5t130 66.5t192 25.5q172 0 278 -61l31 61h139l-76 -147q76 -111 76 -306v-618q0 -62 -7 -114t-24.5 -105.5t-50.5 -94t-81 -73t-120.5 -49.5t-164.5 -17q-176 0 -279 64l-33 -64h-137zM422 311 q0 -96 72 -96q71 0 71 96v426h-4l-139 -288v-138zM422 727h4l139 289v135q0 96 -71 96q-72 0 -72 -96v-424z" />
<glyph unicode="&#xd9;" horiz-adv-x="987" d="M45 401v1061h377v-1116q0 -64 17 -91.5t55 -27.5t54.5 27.5t16.5 91.5v1116h377v-1061q0 -77 -13 -139.5t-45 -118.5t-82 -93.5t-128 -59t-180 -21.5q-127 0 -216.5 32t-139 92.5t-71.5 135.5t-22 172zM131 1776h352l176 -222h-147z" />
<glyph unicode="&#xda;" horiz-adv-x="987" d="M45 401v1061h377v-1116q0 -64 17 -91.5t55 -27.5t54.5 27.5t16.5 91.5v1116h377v-1061q0 -77 -13 -139.5t-45 -118.5t-82 -93.5t-128 -59t-180 -21.5q-127 0 -216.5 32t-139 92.5t-71.5 135.5t-22 172zM328 1554l176 222h352l-381 -222h-147z" />
<glyph unicode="&#xdb;" horiz-adv-x="987" d="M45 401v1061h377v-1116q0 -64 17 -91.5t55 -27.5t54.5 27.5t16.5 91.5v1116h377v-1061q0 -77 -13 -139.5t-45 -118.5t-82 -93.5t-128 -59t-180 -21.5q-127 0 -216.5 32t-139 92.5t-71.5 135.5t-22 172zM172 1554l231 222h172l240 -222h-174l-147 68l-146 -68h-176z" />
<glyph unicode="&#xdc;" horiz-adv-x="987" d="M45 401v1061h377v-1116q0 -64 17 -91.5t55 -27.5t54.5 27.5t16.5 91.5v1116h377v-1061q0 -77 -13 -139.5t-45 -118.5t-82 -93.5t-128 -59t-180 -21.5q-127 0 -216.5 32t-139 92.5t-71.5 135.5t-22 172zM127 1554v222h307v-222h-307zM553 1554v222h307v-222h-307z" />
<glyph unicode="&#xdd;" horiz-adv-x="909" d="M0 1462h352l109 -579h4l92 579h352l-272 -930v-532h-365v532zM289 1554l176 222h352l-381 -222h-147z" />
<glyph unicode="&#xde;" horiz-adv-x="909" d="M45 0v1462h365v-299h129q166 0 256 -83.5t90 -250.5v-180q0 -82 -16.5 -144.5t-52 -110t-97 -72.5t-146.5 -25h-163v-297h-365zM410 543h65q48 0 69 22t21 66v198q0 44 -21 66.5t-69 22.5h-65v-375z" />
<glyph unicode="&#xdf;" d="M45 0v1145q0 53 8 96.5t34.5 92.5t71 82t124 55t186.5 22q97 0 171 -17.5t120 -46.5t74.5 -72t39.5 -88t11 -100v-135q0 -101 -31 -160.5t-117 -85.5v-4q158 -12 158 -241v-271q0 -144 -52 -208t-194 -64h-180v160q37 5 49 24t12 80v377q0 33 -13.5 46t-47.5 18v172 q34 5 48.5 18t14.5 45v266q0 43 -14 60.5t-47 17.5q-39 0 -50 -21t-11 -77v-1186h-365z" />
<glyph unicode="&#xe0;" horiz-adv-x="909" d="M45 225v162q0 40 1.5 62t9 49.5t21.5 44t40 36.5t64.5 37.5t94.5 38.5q105 40 150.5 64t59.5 45t14 59v152q0 29 -16.5 50.5t-45.5 21.5q-55 0 -55 -72v-238h-338v127q0 195 96.5 281t304.5 86q102 0 175 -16.5t130 -55.5t85 -109.5t28 -172.5v-877h-352v68 q-42 -44 -102.5 -71.5t-126.5 -27.5q-114 0 -176 69.5t-62 186.5zM92 1522h352l177 -222h-148zM383 264q0 -27 14.5 -47t38.5 -20q31 0 47.5 19t16.5 42v313q-60 -37 -88.5 -79t-28.5 -103v-125z" />
<glyph unicode="&#xe1;" horiz-adv-x="909" d="M45 225v162q0 40 1.5 62t9 49.5t21.5 44t40 36.5t64.5 37.5t94.5 38.5q105 40 150.5 64t59.5 45t14 59v152q0 29 -16.5 50.5t-45.5 21.5q-55 0 -55 -72v-238h-338v127q0 195 96.5 281t304.5 86q102 0 175 -16.5t130 -55.5t85 -109.5t28 -172.5v-877h-352v68 q-42 -44 -102.5 -71.5t-126.5 -27.5q-114 0 -176 69.5t-62 186.5zM289 1300l176 222h352l-381 -222h-147zM383 264q0 -27 14.5 -47t38.5 -20q31 0 47.5 19t16.5 42v313q-60 -37 -88.5 -79t-28.5 -103v-125z" />
<glyph unicode="&#xe2;" horiz-adv-x="909" d="M45 225v162q0 40 1.5 62t9 49.5t21.5 44t40 36.5t64.5 37.5t94.5 38.5q105 40 150.5 64t59.5 45t14 59v152q0 29 -16.5 50.5t-45.5 21.5q-55 0 -55 -72v-238h-338v127q0 195 96.5 281t304.5 86q102 0 175 -16.5t130 -55.5t85 -109.5t28 -172.5v-877h-352v68 q-42 -44 -102.5 -71.5t-126.5 -27.5q-114 0 -176 69.5t-62 186.5zM133 1300l232 222h172l239 -222h-174l-147 68l-146 -68h-176zM383 264q0 -27 14.5 -47t38.5 -20q31 0 47.5 19t16.5 42v313q-60 -37 -88.5 -79t-28.5 -103v-125z" />
<glyph unicode="&#xe3;" horiz-adv-x="909" d="M45 225v162q0 40 1.5 62t9 49.5t21.5 44t40 36.5t64.5 37.5t94.5 38.5q105 40 150.5 64t59.5 45t14 59v152q0 29 -16.5 50.5t-45.5 21.5q-55 0 -55 -72v-238h-338v127q0 195 96.5 281t304.5 86q102 0 175 -16.5t130 -55.5t85 -109.5t28 -172.5v-877h-352v68 q-42 -44 -102.5 -71.5t-126.5 -27.5q-114 0 -176 69.5t-62 186.5zM158 1364q103 158 213 158q42 0 110 -37t109 -37q32 0 50 13.5t40 45.5l72 -45q-38 -69 -97 -115.5t-129 -46.5q-42 0 -112 34t-99 34q-21 0 -38.5 -10.5t-24.5 -18.5t-25 -32zM383 264q0 -27 14.5 -47 t38.5 -20q31 0 47.5 19t16.5 42v313q-60 -37 -88.5 -79t-28.5 -103v-125z" />
<glyph unicode="&#xe4;" horiz-adv-x="909" d="M45 225v162q0 40 1.5 62t9 49.5t21.5 44t40 36.5t64.5 37.5t94.5 38.5q105 40 150.5 64t59.5 45t14 59v152q0 29 -16.5 50.5t-45.5 21.5q-55 0 -55 -72v-238h-338v127q0 195 96.5 281t304.5 86q102 0 175 -16.5t130 -55.5t85 -109.5t28 -172.5v-877h-352v68 q-42 -44 -102.5 -71.5t-126.5 -27.5q-114 0 -176 69.5t-62 186.5zM88 1300v222h307v-222h-307zM383 264q0 -27 14.5 -47t38.5 -20q31 0 47.5 19t16.5 42v313q-60 -37 -88.5 -79t-28.5 -103v-125zM514 1300v222h307v-222h-307z" />
<glyph unicode="&#xe5;" horiz-adv-x="909" d="M45 225v162q0 40 1.5 62t9 49.5t21.5 44t40 36.5t64.5 37.5t94.5 38.5q105 40 150.5 64t59.5 45t14 59v152q0 29 -16.5 50.5t-45.5 21.5q-55 0 -55 -72v-238h-338v127q0 195 96.5 281t304.5 86q102 0 175 -16.5t130 -55.5t85 -109.5t28 -172.5v-877h-352v68 q-42 -44 -102.5 -71.5t-126.5 -27.5q-114 0 -176 69.5t-62 186.5zM252 1503q0 84 58.5 142.5t144.5 58.5q80 0 141 -59t61 -142q0 -85 -58.5 -144t-143.5 -59t-144 61t-59 142zM362 1503q0 -38 27.5 -65t65.5 -27t65 28.5t27 63.5q0 38 -27.5 64t-64.5 26q-36 0 -64.5 -27.5 t-28.5 -62.5zM383 264q0 -27 14.5 -47t38.5 -20q31 0 47.5 19t16.5 42v313q-60 -37 -88.5 -79t-28.5 -103v-125z" />
<glyph unicode="&#xe6;" horiz-adv-x="1323" d="M29 225v162q0 40 1.5 62t9 49.5t21.5 44t40 36.5t64.5 37.5t94.5 38.5q106 40 151 64t59.5 45t14.5 59v152q0 29 -16.5 50.5t-46.5 21.5q-55 0 -55 -72v-238h-338v127q0 195 96.5 281t304.5 86q77 0 130 -11.5t110 -41.5q116 53 219 53q56 0 110 -12t108.5 -41.5 t95 -73.5t66 -113.5t25.5 -156.5v-252h-471v-314q0 -39 12 -58.5t44 -19.5q63 0 63 84v215h352v-122q0 -90 -24 -160.5t-62.5 -114.5t-92.5 -72.5t-109.5 -39.5t-116.5 -11q-223 0 -332 133q-72 -75 -132.5 -104t-158.5 -29q-114 0 -175.5 69.5t-61.5 186.5zM367 264 q0 -27 14.5 -47t38.5 -20q31 0 48 19t17 42v313q-61 -37 -89.5 -79t-28.5 -103v-125zM823 778h119v148q0 84 -63 84q-32 0 -44 -19.5t-12 -58.5v-154z" />
<glyph unicode="&#xe7;" horiz-adv-x="909" d="M45 367v467q0 90 26 160.5t67.5 114t99 72t115.5 39.5t122 11q188 0 297 -99t109 -288v-101h-353v197q0 21 -3 34t-16.5 24.5t-39.5 11.5t-39.5 -11.5t-16.5 -24.5t-3 -34v-655q0 -50 13 -72.5t52 -22.5q36 0 51 24t15 75v207h352v-60q0 -108 -21 -190.5t-57 -134 t-89.5 -84t-111.5 -45t-131 -13.5v-37h23q71 0 109 -41t38 -114q0 -88 -63 -140.5t-164 -52.5q-40 0 -64 8v97q15 -6 48 -6q39 0 61.5 21.5t22.5 45.5q0 66 -86 66q-20 0 -35 -6v170q-67 10 -123 35t-103.5 69.5t-74.5 116.5t-27 166z" />
<glyph unicode="&#xe8;" horiz-adv-x="909" d="M45 367v467q0 90 26 160.5t67.5 114t99 72t115.5 39.5t122 11q56 0 110 -12t108.5 -41.5t95.5 -73.5t66.5 -113.5t25.5 -156.5v-252h-471v-314q0 -39 11.5 -58.5t43.5 -19.5q63 0 63 84v215h353v-122q0 -90 -24 -160.5t-63 -114.5t-93 -72.5t-109.5 -39.5t-116.5 -11 q-64 0 -122 11t-115.5 39.5t-99 72.5t-67.5 114.5t-26 160.5zM92 1522h352l177 -222h-148zM410 778h118v148q0 84 -63 84q-32 0 -43.5 -19.5t-11.5 -58.5v-154z" />
<glyph unicode="&#xe9;" horiz-adv-x="909" d="M45 367v467q0 90 26 160.5t67.5 114t99 72t115.5 39.5t122 11q56 0 110 -12t108.5 -41.5t95.5 -73.5t66.5 -113.5t25.5 -156.5v-252h-471v-314q0 -39 11.5 -58.5t43.5 -19.5q63 0 63 84v215h353v-122q0 -90 -24 -160.5t-63 -114.5t-93 -72.5t-109.5 -39.5t-116.5 -11 q-64 0 -122 11t-115.5 39.5t-99 72.5t-67.5 114.5t-26 160.5zM289 1300l176 222h352l-381 -222h-147zM410 778h118v148q0 84 -63 84q-32 0 -43.5 -19.5t-11.5 -58.5v-154z" />
<glyph unicode="&#xea;" horiz-adv-x="909" d="M45 367v467q0 90 26 160.5t67.5 114t99 72t115.5 39.5t122 11q56 0 110 -12t108.5 -41.5t95.5 -73.5t66.5 -113.5t25.5 -156.5v-252h-471v-314q0 -39 11.5 -58.5t43.5 -19.5q63 0 63 84v215h353v-122q0 -90 -24 -160.5t-63 -114.5t-93 -72.5t-109.5 -39.5t-116.5 -11 q-64 0 -122 11t-115.5 39.5t-99 72.5t-67.5 114.5t-26 160.5zM133 1300l232 222h172l239 -222h-174l-147 68l-146 -68h-176zM410 778h118v148q0 84 -63 84q-32 0 -43.5 -19.5t-11.5 -58.5v-154z" />
<glyph unicode="&#xeb;" horiz-adv-x="909" d="M45 367v467q0 90 26 160.5t67.5 114t99 72t115.5 39.5t122 11q56 0 110 -12t108.5 -41.5t95.5 -73.5t66.5 -113.5t25.5 -156.5v-252h-471v-314q0 -39 11.5 -58.5t43.5 -19.5q63 0 63 84v215h353v-122q0 -90 -24 -160.5t-63 -114.5t-93 -72.5t-109.5 -39.5t-116.5 -11 q-64 0 -122 11t-115.5 39.5t-99 72.5t-67.5 114.5t-26 160.5zM88 1300v222h307v-222h-307zM410 778h118v148q0 84 -63 84q-32 0 -43.5 -19.5t-11.5 -58.5v-154zM514 1300v222h307v-222h-307z" />
<glyph unicode="&#xec;" horiz-adv-x="454" d="M-135 1522h352l176 -222h-147zM45 0v1200h365v-1200h-365z" />
<glyph unicode="&#xed;" horiz-adv-x="454" d="M45 0v1200h365v-1200h-365zM61 1300l177 222h352l-381 -222h-148z" />
<glyph unicode="&#xee;" horiz-adv-x="454" d="M-94 1300l231 222h172l240 -222h-174l-148 68l-145 -68h-176zM45 0v1200h365v-1200h-365z" />
<glyph unicode="&#xef;" horiz-adv-x="454" d="M-139 1300v222h307v-222h-307zM45 0v1200h365v-1200h-365zM287 1300v222h307v-222h-307z" />
<glyph unicode="&#xf0;" horiz-adv-x="950" d="M45 367v348q0 72 13.5 131t35 99t52.5 70.5t62.5 47.5t69 27.5t67 14t61.5 3.5q80 0 102 -27l8 4q-14 78 -100 150l-191 -84l-155 111l178 75q-100 47 -170 60l207 157q124 -12 258 -90l198 84l152 -106l-201 -88q98 -92 155.5 -207.5t57.5 -239.5v-540q0 -90 -26 -160.5 t-67.5 -114.5t-99 -72.5t-115.5 -39.5t-122 -11t-122 11t-115.5 39.5t-99 72.5t-67.5 114.5t-26 160.5zM410 246q0 -34 16.5 -57t48.5 -23t49 23.5t17 56.5v635q0 33 -17 56.5t-49 23.5t-48.5 -23t-16.5 -57v-635z" />
<glyph unicode="&#xf1;" d="M55 0v1200h365v-92h4q24 49 83.5 86t137.5 37q118 0 183 -79.5t65 -240.5v-911h-365v899q0 86 -57 86q-23 0 -35 -16t-14 -31.5t-2 -40.5v-897h-365zM178 1364q103 158 213 158q42 0 110 -37t109 -37q32 0 50 13.5t40 45.5l72 -45q-38 -69 -96.5 -115.5t-128.5 -46.5 q-42 0 -112 34t-99 34q-21 0 -38.5 -10.5t-24.5 -18.5t-25 -32z" />
<glyph unicode="&#xf2;" horiz-adv-x="950" d="M45 367v467q0 90 26 160.5t67.5 114t99 72t115.5 39.5t122 11t122 -11t115.5 -39.5t99 -72t67.5 -114t26 -160.5v-467q0 -90 -26 -160.5t-67.5 -114.5t-99 -72.5t-115.5 -39.5t-122 -11t-122 11t-115.5 39.5t-99 72.5t-67.5 114.5t-26 160.5zM113 1522h352l176 -222h-147 zM410 295q0 -33 16.5 -56.5t48.5 -23.5t49 23.5t17 56.5v635q0 33 -17 56.5t-49 23.5t-48.5 -23t-16.5 -57v-635z" />
<glyph unicode="&#xf3;" horiz-adv-x="950" d="M45 367v467q0 90 26 160.5t67.5 114t99 72t115.5 39.5t122 11t122 -11t115.5 -39.5t99 -72t67.5 -114t26 -160.5v-467q0 -90 -26 -160.5t-67.5 -114.5t-99 -72.5t-115.5 -39.5t-122 -11t-122 11t-115.5 39.5t-99 72.5t-67.5 114.5t-26 160.5zM309 1300l176 222h353 l-381 -222h-148zM410 295q0 -33 16.5 -56.5t48.5 -23.5t49 23.5t17 56.5v635q0 33 -17 56.5t-49 23.5t-48.5 -23t-16.5 -57v-635z" />
<glyph unicode="&#xf4;" horiz-adv-x="950" d="M45 367v467q0 90 26 160.5t67.5 114t99 72t115.5 39.5t122 11t122 -11t115.5 -39.5t99 -72t67.5 -114t26 -160.5v-467q0 -90 -26 -160.5t-67.5 -114.5t-99 -72.5t-115.5 -39.5t-122 -11t-122 11t-115.5 39.5t-99 72.5t-67.5 114.5t-26 160.5zM154 1300l231 222h172 l240 -222h-174l-148 68l-145 -68h-176zM410 295q0 -33 16.5 -56.5t48.5 -23.5t49 23.5t17 56.5v635q0 33 -17 56.5t-49 23.5t-48.5 -23t-16.5 -57v-635z" />
<glyph unicode="&#xf5;" horiz-adv-x="950" d="M45 367v467q0 90 26 160.5t67.5 114t99 72t115.5 39.5t122 11t122 -11t115.5 -39.5t99 -72t67.5 -114t26 -160.5v-467q0 -90 -26 -160.5t-67.5 -114.5t-99 -72.5t-115.5 -39.5t-122 -11t-122 11t-115.5 39.5t-99 72.5t-67.5 114.5t-26 160.5zM178 1364q103 158 213 158 q42 0 110 -37t109 -37q32 0 50 13.5t40 45.5l72 -45q-38 -69 -96.5 -115.5t-128.5 -46.5q-42 0 -112 34t-99 34q-21 0 -38.5 -10.5t-24.5 -18.5t-25 -32zM410 295q0 -33 16.5 -56.5t48.5 -23.5t49 23.5t17 56.5v635q0 33 -17 56.5t-49 23.5t-48.5 -23t-16.5 -57v-635z" />
<glyph unicode="&#xf6;" horiz-adv-x="950" d="M45 367v467q0 90 26 160.5t67.5 114t99 72t115.5 39.5t122 11t122 -11t115.5 -39.5t99 -72t67.5 -114t26 -160.5v-467q0 -90 -26 -160.5t-67.5 -114.5t-99 -72.5t-115.5 -39.5t-122 -11t-122 11t-115.5 39.5t-99 72.5t-67.5 114.5t-26 160.5zM109 1300v222h307v-222h-307 zM410 295q0 -33 16.5 -56.5t48.5 -23.5t49 23.5t17 56.5v635q0 33 -17 56.5t-49 23.5t-48.5 -23t-16.5 -57v-635zM535 1300v222h307v-222h-307z" />
<glyph unicode="&#xf7;" horiz-adv-x="1228" d="M96 395v246h1037v-246h-1037zM426 94q0 78 55 133.5t133 55.5t133.5 -55.5t55.5 -133.5t-55.5 -133t-133.5 -55t-133 55t-55 133zM426 942q0 78 55 133t133 55t133.5 -55t55.5 -133t-55.5 -133t-133.5 -55t-133 55t-55 133z" />
<glyph unicode="&#xf8;" horiz-adv-x="950" d="M45 -31l80 142q-80 93 -80 256v467q0 90 26 160.5t67.5 114t99 72t115.5 39.5t122 11q153 0 258 -62l37 62h135l-80 -135q80 -103 80 -262v-467q0 -90 -26 -160.5t-67.5 -114.5t-99 -72.5t-115.5 -39.5t-122 -11q-159 0 -264 68l-39 -68h-127zM410 295q0 -33 16.5 -56.5 t48.5 -23.5t49 23.5t17 56.5v307h-4l-127 -225v-82zM410 606h4l127 228v96q0 33 -17 56.5t-49 23.5t-48.5 -23t-16.5 -57v-324z" />
<glyph unicode="&#xf9;" d="M55 289v911h365v-899q0 -86 57 -86q23 0 35 16t14 31.5t2 40.5v897h365v-1200h-365v92h-4q-23 -55 -90 -89t-131 -34q-118 0 -183 79.5t-65 240.5zM113 1522h352l176 -222h-147z" />
<glyph unicode="&#xfa;" d="M55 289v911h365v-899q0 -86 57 -86q23 0 35 16t14 31.5t2 40.5v897h365v-1200h-365v92h-4q-23 -55 -90 -89t-131 -34q-118 0 -183 79.5t-65 240.5zM309 1300l176 222h353l-381 -222h-148z" />
<glyph unicode="&#xfb;" d="M55 289v911h365v-899q0 -86 57 -86q23 0 35 16t14 31.5t2 40.5v897h365v-1200h-365v92h-4q-23 -55 -90 -89t-131 -34q-118 0 -183 79.5t-65 240.5zM154 1300l231 222h172l240 -222h-174l-148 68l-145 -68h-176z" />
<glyph unicode="&#xfc;" d="M55 289v911h365v-899q0 -86 57 -86q23 0 35 16t14 31.5t2 40.5v897h365v-1200h-365v92h-4q-23 -55 -90 -89t-131 -34q-118 0 -183 79.5t-65 240.5zM109 1300v222h307v-222h-307zM535 1300v222h307v-222h-307z" />
<glyph unicode="&#xfd;" horiz-adv-x="833" d="M0 1200h352l94 -924h5l63 924h320l-140 -1028q-9 -62 -18.5 -106t-28.5 -93t-45.5 -79t-69.5 -50t-100 -20h-381v172h84q42 3 57 19t15 55q0 2 -12 77zM252 1300l176 222h352l-381 -222h-147z" />
<glyph unicode="&#xfe;" horiz-adv-x="950" d="M45 -176v1638h365v-362q49 58 113.5 94.5t133.5 36.5q61 0 106 -19.5t72 -51.5t43 -82t21.5 -102t5.5 -120v-473q0 -55 -2.5 -96.5t-10.5 -93.5t-26 -88.5t-45 -69t-71.5 -49.5t-102.5 -17q-136 0 -233 133h-4v-278h-365zM410 317q0 -45 16.5 -73.5t48.5 -28.5 q66 0 66 102v596q0 42 -14.5 63t-51.5 21q-65 0 -65 -84v-596z" />
<glyph unicode="&#xff;" horiz-adv-x="833" d="M0 1200h352l94 -924h5l63 924h320l-140 -1028q-9 -62 -18.5 -106t-28.5 -93t-45.5 -79t-69.5 -50t-100 -20h-381v172h84q42 3 57 19t15 55q0 2 -12 77zM51 1300v222h307v-222h-307zM477 1300v222h307v-222h-307z" />
<glyph unicode="&#x152;" horiz-adv-x="1251" d="M45 467v528q0 248 116 366t363 118q18 0 115 -9q86 -8 100 -8h475v-295h-299v-268h283v-283h-283v-321h318v-295h-510q-37 0 -111 -8t-110 -8q-89 0 -159.5 16t-117.5 41t-81.5 65t-53 78.5t-29 91.5t-13.5 94.5t-3 96.5zM422 338q0 -33 3 -53t19.5 -38t47.5 -18 q25 0 41 9.5t22 29.5t7 33t1 37v811q0 55 -15 80.5t-52 25.5q-41 0 -58.5 -25.5t-15.5 -82.5v-809z" />
<glyph unicode="&#x153;" horiz-adv-x="1402" d="M45 367v467q0 90 26 160.5t67.5 114t99 72t115.5 39.5t122 11q67 0 142 -21.5t120 -50.5q40 28 111 50t121 22q56 0 110 -12t108.5 -41.5t95 -73.5t66 -113.5t25.5 -156.5v-252h-495v-314q0 -40 14.5 -59t56.5 -19q72 0 72 84v215h352v-122q0 -90 -24 -160.5 t-63.5 -114.5t-95 -72.5t-113 -39.5t-122.5 -11q-135 0 -243 51q-88 -51 -238 -51q-64 0 -122 11t-115.5 39.5t-99 72.5t-67.5 114.5t-26 160.5zM410 295q0 -33 16.5 -56.5t48.5 -23.5t49 23.5t17 56.5v635q0 33 -17 56.5t-49 23.5t-48.5 -23t-16.5 -57v-635zM879 778h118 v148q0 84 -59 84q-34 0 -46.5 -19.5t-12.5 -58.5v-154z" />
<glyph unicode="&#x178;" horiz-adv-x="909" d="M0 1462h352l109 -579h4l92 579h352l-272 -930v-532h-365v532zM88 1554v222h307v-222h-307zM514 1554v222h307v-222h-307z" />
<glyph unicode="&#x2c6;" horiz-adv-x="454" d="M-94 1300l231 222h172l240 -222h-174l-148 68l-145 -68h-176z" />
<glyph unicode="&#x2dc;" horiz-adv-x="454" d="M-70 1364q103 158 213 158q42 0 110 -37t109 -37q33 0 51.5 13.5t39.5 45.5l71 -45q-38 -69 -96.5 -115.5t-128.5 -46.5q-42 0 -112 34t-99 34q-21 0 -38.5 -10.5t-24.5 -18.5t-25 -32z" />
<glyph unicode="&#x2000;" horiz-adv-x="958" />
<glyph unicode="&#x2001;" horiz-adv-x="1917" />
<glyph unicode="&#x2002;" horiz-adv-x="958" />
<glyph unicode="&#x2003;" horiz-adv-x="1917" />
<glyph unicode="&#x2004;" horiz-adv-x="639" />
<glyph unicode="&#x2005;" horiz-adv-x="479" />
<glyph unicode="&#x2006;" horiz-adv-x="319" />
<glyph unicode="&#x2007;" horiz-adv-x="319" />
<glyph unicode="&#x2008;" horiz-adv-x="239" />
<glyph unicode="&#x2009;" horiz-adv-x="383" />
<glyph unicode="&#x200a;" horiz-adv-x="106" />
<glyph unicode="&#x2010;" horiz-adv-x="645" d="M37 516v283h571v-283h-571z" />
<glyph unicode="&#x2011;" horiz-adv-x="645" d="M37 516v283h571v-283h-571z" />
<glyph unicode="&#x2012;" horiz-adv-x="645" d="M37 516v283h571v-283h-571z" />
<glyph unicode="&#x2013;" horiz-adv-x="1024" d="M0 516v283h1024v-283h-1024z" />
<glyph unicode="&#x2014;" horiz-adv-x="2048" d="M0 516v283h2048v-283h-2048z" />
<glyph unicode="&#x2018;" horiz-adv-x="491" d="M104 973v219q0 103 78 186.5t189 83.5l10 -110q-32 0 -52 -25t-20 -59h78v-295h-283z" />
<glyph unicode="&#x2019;" horiz-adv-x="491" d="M104 1167v295h283v-219q0 -103 -77.5 -186.5t-188.5 -83.5l-10 110q32 0 51.5 25t19.5 59h-78z" />
<glyph unicode="&#x201a;" horiz-adv-x="491" d="M104 0v295h283v-219q0 -104 -78 -187.5t-188 -83.5l-10 111q32 0 51.5 25t19.5 59h-78z" />
<glyph unicode="&#x201c;" horiz-adv-x="681" d="M20 973v219q0 103 78 186.5t189 83.5l10 -110q-32 0 -52 -25t-20 -59h78v-295h-283zM379 973v219q0 103 77.5 186.5t188.5 83.5l10 -110q-32 0 -51.5 -25t-19.5 -59h78v-295h-283z" />
<glyph unicode="&#x201d;" horiz-adv-x="681" d="M20 1167v295h283v-219q0 -103 -77.5 -186.5t-188.5 -83.5l-10 110q32 0 51.5 25t19.5 59h-78zM379 1167v295h283v-219q0 -103 -78 -186.5t-189 -83.5l-10 110q32 0 52 25t20 59h-78z" />
<glyph unicode="&#x201e;" horiz-adv-x="681" d="M20 0v295h283v-219q0 -104 -78 -187.5t-188 -83.5l-10 111q32 0 51.5 25t19.5 59h-78zM379 0v295h283v-219q0 -103 -78 -187t-189 -84l-10 111q32 0 52 25t20 59h-78z" />
<glyph unicode="&#x2022;" horiz-adv-x="1024" d="M147 731q0 151 107 258t258 107t258 -107t107 -258t-107 -257.5t-258 -106.5t-258 106.5t-107 257.5z" />
<glyph unicode="&#x2026;" horiz-adv-x="2048" d="M201 0v295h282v-295h-282zM883 0v295h282v-295h-282zM1565 0v295h282v-295h-282z" />
<glyph unicode="&#x202f;" horiz-adv-x="383" />
<glyph unicode="&#x2039;" horiz-adv-x="491" d="M25 586l153 327h289l-148 -327l138 -312h-295z" />
<glyph unicode="&#x203a;" horiz-adv-x="491" d="M25 913h288l154 -327l-135 -312h-295l135 312z" />
<glyph unicode="&#x205f;" horiz-adv-x="479" />
<glyph unicode="&#x2122;" horiz-adv-x="2048" d="M100 1278v184h705v-184h-230v-660h-245v660h-230zM952 618v844h320l178 -489l178 489h320v-844h-222v549h-4l-180 -549h-184l-180 549h-4v-549h-222z" />
<glyph unicode="&#x25fc;" horiz-adv-x="1198" d="M0 0v1198h1198v-1198h-1198z" />
<glyph unicode="&#xfb01;" horiz-adv-x="1024" d="M10 1004v196h76q6 157 68.5 209.5t234.5 52.5h162v-184h-55q-51 0 -80 -16t-35 -62h178v-196h-108v-1004h-365v1004h-76zM614 0v1200h365v-1200h-365zM614 1278v184h365v-184h-365z" />
<glyph unicode="&#xfb02;" horiz-adv-x="1024" d="M10 1004v196h76q6 157 68.5 209.5t234.5 52.5h162v-184h-55q-51 0 -80 -16t-35 -62h178v-196h-108v-1004h-365v1004h-76zM614 0v1462h365v-1462h-365z" />
</font>
</defs>
</svg>
