<?xml version="1.0" encoding="utf-8"?>
<!-- Generator: Adobe Illustrator 16.0.0, SVG Export Plug-In . SVG Version: 6.00 Build 0)  -->
<!DOCTYPE svg PUBLIC "-//W3C//DTD SVG 1.1//EN" "http://www.w3.org/Graphics/SVG/1.1/DTD/svg11.dtd">
<svg version="1.1" id="Layer_1" xmlns="http://www.w3.org/2000/svg" xmlns:xlink="http://www.w3.org/1999/xlink" x="0px" y="0px"
	 width="612px" height="792px" viewBox="0 0 475 792" enable-background="new 0 0 612 792" xml:space="preserve">
<g>
	<defs>
		<rect id="SVGID_FrontSvgID_1_" width="612" height="792"/>
	</defs>
	<clipPath id="SVGID_FrontSvgID_2_">
		<use xlink:href="#SVGID_FrontSvgID_1_"  overflow="visible"/>
	</clipPath>
	<g clip-path="url(#SVGID_FrontSvgID_2_)">
		<defs>
			<rect id="SVGID_FrontSvgID_3_" width="612" height="792"/>
		</defs>
		<clipPath id="SVGID_FrontSvgID_4_">
			<use xlink:href="#SVGID_FrontSvgID_3_"  overflow="visible"/>
		</clipPath>
     <g id="MESH_BODY">
       <g id="BODY">
         		<path clip-path="url(#SVGID_FrontSvgID_4_)" fill="#3EC6EC" d="M461.884,91.442c0,0-18.198-6.066-43.811-16.176
			c-16.167-6.382-30.447-15.982-39.634-22.876c-4.553,4.963-23.588,22.177-68.987,22.626c-45.016,0.446-66.694-18.809-72.463-24.96
			c-8.871,6.898-24.598,18.069-42.688,25.21c-25.613,10.11-43.812,16.176-43.812,16.176s-0.596,0.433-1.524,1.072v0.005
			c0.011,0.515,0.025,1.085,0.043,1.693c0.001,0.049,0.003,0.099,0.004,0.148c0.009,0.285,0.018,0.577,0.029,0.878
			c0,0.018,0.001,0.035,0.001,0.053c0.011,0.315,0.024,0.639,0.036,0.97c0.003,0.064,0.006,0.13,0.009,0.196
			c0.01,0.266,0.022,0.537,0.034,0.812c0.004,0.083,0.007,0.166,0.011,0.251c0.016,0.336,0.032,0.676,0.05,1.023
			c0.002,0.044,0.005,0.088,0.007,0.133c0.015,0.299,0.032,0.602,0.049,0.907c0.007,0.107,0.013,0.214,0.02,0.321
			c0.017,0.29,0.035,0.581,0.054,0.874c0.005,0.068,0.009,0.135,0.013,0.203c0.023,0.354,0.049,0.71,0.075,1.065
			c0.007,0.097,0.015,0.193,0.022,0.29c0.021,0.273,0.043,0.545,0.065,0.819c0.009,0.108,0.018,0.216,0.027,0.325
			c0.031,0.356,0.062,0.712,0.096,1.065c0.003,0.04,0.007,0.079,0.011,0.118c0.031,0.319,0.063,0.635,0.096,0.95
			c0.012,0.106,0.023,0.212,0.035,0.318c0.03,0.279,0.062,0.556,0.095,0.831c0.01,0.078,0.018,0.158,0.028,0.236
			c0.042,0.34,0.086,0.677,0.131,1.009c0.011,0.081,0.023,0.16,0.034,0.24c0.037,0.262,0.076,0.521,0.115,0.776
			c0.015,0.092,0.029,0.185,0.043,0.276c0.052,0.322,0.105,0.64,0.161,0.947c1.435,7.891,9.326,36.946,11.12,45.554
			c1.793,8.609,10.043,54.163,11.119,59.544c0.074,0.369,0.141,0.757,0.202,1.156c0.005,0.034,0.009,0.067,0.015,0.101
			c0.055,0.373,0.106,0.757,0.151,1.149c0.005,0.042,0.01,0.083,0.015,0.126c0.045,0.396,0.085,0.8,0.121,1.208
			c0.002,0.03,0.005,0.059,0.008,0.089c0.037,0.436,0.069,0.874,0.098,1.314c0,0.007,0,0.013,0.001,0.019
			c0.028,0.435,0.05,0.87,0.07,1.301c0.001,0.036,0.003,0.071,0.004,0.107c0.018,0.409,0.033,0.813,0.045,1.211l0.003,0.107
			c0.012,0.413,0.022,0.819,0.028,1.212v0.021c0.007,0.412,0.011,0.81,0.013,1.191c0.021-0.054,0.034-0.085,0.034-0.085
			s4.044,21.569,3.37,30.331c-0.674,8.762,4.044,63.357,7.414,80.207c3.37,16.851,7.414,59.988,4.044,78.186
			c-1.156,6.239-2.866,16.047-4.696,27.08c0.131,0.046,0.264,0.087,0.392,0.142c0.282,0.039,0.569,0.094,0.866,0.18
			c6.498,1.88,12.032,5.752,18.667,7.417c6.933,1.74,13.918,3.349,20.914,4.818c14.706,3.089,29.384,4.115,44.382,4.476
			c7.786,0.188,15.58,0.408,23.367,0.177c7.692-0.229,15.304-1.479,22.966-1.761c7.243-0.267,14.325,1.168,21.537,1.188
			c6.471,0.019,12.902-0.767,19.371-0.845c0.396-0.005,0.763,0.036,1.113,0.099c0.642-0.272,1.38-0.432,2.221-0.432
			c14.666-0.002,29.49-0.001,43.929-2.936c6.483-1.317,13.848-2.925,19.446-6.637c1.787-1.185,3.406-2.575,4.957-4.045
			c-1.234-11.614-2.202-21.764-3.527-28.922c-3.37-18.198,0.674-61.335,4.044-78.186c3.37-16.85,8.089-71.445,7.415-80.207
			c-0.58-7.538,2.33-24.542,3.154-29.149c-0.016-3.093,0.088-7.978,0.773-11.409c1.076-5.381,9.326-50.935,11.12-59.544
			c1.793-8.608,9.685-37.663,11.119-45.554c1.013-5.569,1.311-13.633,1.397-17.901C462.373,91.797,461.884,91.442,461.884,91.442z"
			/>

       </g>
     </g>   
     <g id="SHORT_MASK">
                  <g id="BOTTOM">
		<path clip-path="url(#SVGID_FrontSvgID_10_)" fill="#BF2A43" d="M149.999,748.671c0.142,1.421,3.579,14.498,3.579,14.498s0,1.989,0.427,2.984
			c0.426,0.994,1.279,1.706,2.557,2.133c1.281,0.426,6.824,1.846,21.606,3.552s36.88,0.144,49.672-1.706
			c12.792-1.848,25.301-5.967,25.301-5.967s0.456,0.027,1.053,0.046c0.485-4.313,1.885-16.701,3.12-27.062H149.166
			C149.539,742.498,149.929,747.962,149.999,748.671"/>
		<path clip-path="url(#SVGID_FrontSvgID_10_)" fill="#BF2A43" d="M259.324,721.697c0.853-4.265,10.021-50.104,12.153-58.632
			c2.132-8.527,3.411-20.468,12.366-23.239c8.955-2.773,28.05-0.599,36.033,7.248c12.579,12.367,14.711,33.899,17.696,45.841
			c2.6,10.402,6.493,27.113,7.595,33.219h117.464c0.522-3.455,2.232-16.052,3.005-20.566c0.854-4.974,1.707-20.611,2.134-31.414
			c0.427-10.802,0.283-26.295-0.142-29.424c-0.427-3.128-5.261-35.107-5.688-38.52c-0.426-3.409-4.547-27.574-4.832-29.563
			c-0.284-1.99-4.547-14.498-6.822-22.173c-2.275-7.678-8.951-29.623-9.749-32.897c-0.799-3.275-2.14-10.288-2.31-11.505
			c-0.167-1.219-0.461-5.627-0.546-6.468c-0.084-0.84-1.259-4.912-1.259-4.912s-0.294-2.057-0.757-4.535
			c-0.461-2.477-0.671-5.543-0.671-5.543s0.084-1.427,0.084-2.687s-0.672-3.024-0.672-3.024s0-1.68-0.251-3.989
			c-0.252-2.31-1.386-3.903-1.386-3.903l-2.521-9.744c0,0-0.127-0.251-0.589-1.469c-0.46-1.218-0.292-3.947-0.251-4.241
			c0.042-0.294,0.168-2.896,0.168-3.735c0-0.841,0.167-5.208-0.126-5.963c-0.293-0.756-0.588-2.646-0.798-3.905
			c-0.21-1.26-0.168-4.367-0.084-4.745c0.086-0.378-0.672-2.436-0.883-1.891c-0.209,0.547-1.51,2.226-2.394,4.032
			c-0.883,1.806-4.851,4.113-4.851,4.113c-2.042,1.114-8.288,3.928-25.183,5.97c-16.896,2.043-47.716,2.785-94.134,4.455
			c-46.417,1.67-57.185-1.67-78.351-4.642c-21.166-2.971-40.847-14.11-40.847-14.11s0.569,2.196,0.569,4.896
			c0,2.701-1.138,4.123-1.422,5.545c-0.284,1.421,0.569,4.264,0.569,5.116s-0.569,2.132-0.712,2.843
			c-0.142,0.71,0.143,1.85,0.143,2.701c0,0.853-0.427,3.837-0.853,4.69c-0.426,0.853-1.847,6.54-2.273,8.956
			c-0.427,2.414-1.706,12.364-1.991,13.927c-0.285,1.564-0.711,10.377-1.137,12.083c-0.426,1.705-1.512,12.367-1.654,13.646
			c-0.143,1.279-3.128,11.087-3.411,11.939c-0.285,0.853-4.951,19.188-6.23,22.032c-1.279,2.842-3.386,15.776-3.669,16.629
			c-0.284,0.854-3.721,19.33-5.285,28.569c-1.564,9.241-5.401,26.864-6.681,32.976c-1.279,6.112-2.842,25.586-2.985,34.541
			c-0.142,8.953-0.619,38.946-0.619,40.368c0,1.419,1.99,19.046,2.132,20.041c0.131,0.912,1.716,4.574,1.976,5.5h110.28
			C258.961,723.961,259.188,722.375,259.324,721.697"/>
		<path clip-path="url(#SVGID_FrontSvgID_10_)" fill="#BF2A43" d="M347.507,737.149c0.521,1.897,0.938,3.31,0.938,3.31l-0.853,1.492
			c0,0-0.214,1.92,0.64,2.985c0.853,1.066,1.28,2.346,0.64,3.198c-0.64,0.854-1.065,2.133-0.64,2.985
			c0.428,0.853,2.133,3.624,2.133,4.265c0,0.389-0.013,3.013-0.022,5.01c0.856,0.1,1.727,0.18,1.727,0.18s16.205,4.974,37.383,7.391
			c21.177,2.416,45.058-0.426,51.169-0.854c6.111-0.425,13.93-1.705,15.777-2.131c1.848-0.427,2.276-1.565,2.844-2.418
			s0.994-8.669,0.994-9.239v-2.414c0,0-0.427-1.139-0.427-1.706s0.996-1.138,1.423-1.849c0.428-0.713-0.286-2.274-0.286-2.274
			s-0.283-1.99-0.283-2.56c0-0.509,0.34-3.856,0.412-5.371H347.507z"/>
      </g>
           <g id="BOTTOM_STRIPS">
		<path clip-path="url(#SVGID_FrontSvgID_14_)" fill="#00AB5D" d="M148.396,726.133c0.023,0.082,0.04,0.15,0.04,0.186
			c0,0.213,0.356,5.464,0.73,10.831h108.148c0.507-4.248,0.985-8.149,1.362-11.017H148.396z"/>
		<path clip-path="url(#SVGID_FrontSvgID_14_)" fill="#00AB5D" d="M461.088,736.693c0-1.138,1.139-8.244,1.423-9.809
			c0.026-0.144,0.067-0.401,0.12-0.752H345.167c0.163,0.901,0.266,1.576,0.294,1.96c0.13,1.83,1.221,6.054,2.046,9.057h113.567
			C461.082,736.972,461.088,736.813,461.088,736.693"/>
      </g>
     </g>   
    <g id="CUSTOM"></g> 
	</g>
	<g id="SLEEVES" clip-path="url(#SVGID_FrontSvgID_2_)">
		<defs>
			<rect id="SVGID_FrontSvgID_5_" width="612" height="792"/>
		</defs>
		<clipPath id="SVGID_FrontSvgID_6_">
			<use xlink:href="#SVGID_FrontSvgID_5_"  overflow="visible"/>
		</clipPath>
		<path clip-path="url(#SVGID_FrontSvgID_6_)" fill="#FDBB2D" d="M455.249,189.936c-0.005,0.021-0.008,0.035-0.008,0.035
			S455.244,189.955,455.249,189.936"/>
		<path clip-path="url(#SVGID_FrontSvgID_6_)" fill="#004D86" d="M173.359,224.465v-0.021c-0.006-0.393-0.016-0.799-0.028-1.212l-0.003-0.107
			c-0.011-0.398-0.027-0.803-0.045-1.211c-0.001-0.036-0.003-0.072-0.004-0.107c-0.02-0.431-0.043-0.866-0.07-1.301
			c-0.001-0.006-0.001-0.012-0.001-0.019c-0.029-0.439-0.061-0.878-0.099-1.314c-0.002-0.03-0.005-0.059-0.007-0.089
			c-0.036-0.408-0.076-0.812-0.121-1.208c-0.005-0.043-0.01-0.084-0.015-0.126c-0.045-0.392-0.096-0.776-0.151-1.149
			c-0.006-0.033-0.01-0.068-0.016-0.101c-0.06-0.399-0.127-0.786-0.201-1.156c-1.076-5.38-9.326-50.935-11.119-59.544
			c-1.794-8.608-9.685-37.663-11.12-45.554c-0.056-0.307-0.109-0.625-0.161-0.947c-0.014-0.091-0.028-0.184-0.043-0.276
			c-0.039-0.255-0.078-0.514-0.115-0.776c-0.011-0.08-0.023-0.159-0.034-0.24c-0.045-0.332-0.089-0.668-0.131-1.009
			c-0.01-0.078-0.018-0.158-0.028-0.236c-0.033-0.275-0.065-0.552-0.095-0.831c-0.012-0.106-0.023-0.212-0.035-0.318
			c-0.033-0.315-0.065-0.631-0.096-0.95c-0.004-0.039-0.008-0.078-0.012-0.118c-0.033-0.354-0.064-0.709-0.095-1.065
			c-0.009-0.109-0.018-0.217-0.027-0.325c-0.023-0.273-0.044-0.546-0.065-0.819c-0.007-0.097-0.015-0.193-0.022-0.289
			c-0.026-0.357-0.052-0.712-0.075-1.066c-0.005-0.068-0.008-0.135-0.013-0.203c-0.019-0.293-0.037-0.584-0.055-0.874
			c-0.006-0.107-0.012-0.214-0.019-0.321c-0.017-0.305-0.034-0.608-0.049-0.907c-0.002-0.044-0.005-0.089-0.007-0.133
			c-0.018-0.347-0.034-0.687-0.05-1.023c-0.004-0.085-0.007-0.168-0.011-0.251c-0.012-0.275-0.024-0.546-0.034-0.812
			c-0.003-0.066-0.006-0.131-0.009-0.196c-0.012-0.331-0.025-0.655-0.036-0.97c0-0.018-0.001-0.035-0.001-0.053
			c-0.011-0.301-0.02-0.593-0.029-0.877c-0.001-0.05-0.003-0.1-0.004-0.149c-0.018-0.609-0.032-1.177-0.043-1.693
			c0-0.001,0-0.003-0.001-0.005c-2.381,1.643-7.023,4.699-9.933,5.668c-4.044,1.348-26.961,18.873-33.701,42.463
			c-6.74,23.591-8.088,81.556-8.088,81.556l-2.022,10.11l-2.022,6.067c0,0,23.591,6.066,43.811,7.414
			c20.221,1.348,33.027,1.348,33.027,1.348s1.347-1.348,0.674-5.392c-0.674-4.045-1.349-5.393-0.674-7.415
			c0.63-1.89,3.026-7.901,3.336-8.677C173.37,225.276,173.366,224.877,173.359,224.465"/>
		<path clip-path="url(#SVGID_FrontSvgID_6_)" fill="#004D86" d="M517.153,232.311l-2.022-10.11c0,0-1.348-57.965-8.088-81.556
			c-6.74-23.59-29.657-41.115-33.701-42.463c-3.01-1.003-7.882-4.244-10.18-5.837c-0.087,4.268-0.385,12.332-1.397,17.901
			c-1.435,7.891-9.326,36.946-11.119,45.554c-1.794,8.609-10.044,54.163-11.12,59.544c-0.686,3.43-0.789,8.316-0.773,11.408
			c0.135-0.748,0.216-1.181,0.216-1.181s2.695,6.74,3.369,8.762c0.675,2.022,0,3.37-0.674,7.415
			c-0.674,4.043,0.674,5.392,0.674,5.392s12.807,0,33.027-1.349c20.221-1.348,43.81-7.414,43.81-7.414L517.153,232.311z"/>
	</g>
	<g id="COLLAR" clip-path="url(#SVGID_FrontSvgID_2_)">
		<defs>
			<rect id="SVGID_FrontSvgID_7_" width="612" height="792"/>
		</defs>
		<clipPath id="SVGID_FrontSvgID_8_">
			<use xlink:href="#SVGID_FrontSvgID_7_"  overflow="visible"/>
		</clipPath>
		<path clip-path="url(#SVGID_FrontSvgID_8_)" fill="#BF2A43" d="M309.452,75.016c45.399-0.45,64.435-17.663,68.987-22.626
			c-5.368-4.028-9.001-7.135-10.244-8.129c-3.369-2.696-3.369-4.718-6.739-6.74s-4.719-8.088-11.459-11.459
			c-4.29-2.144-23.595-2.924-37.066-3.207l-0.004-0.162c0,0-2.649,0-6.74,0.05c-4.091-0.05-6.74-0.05-6.74-0.05l-0.005,0.162
			c-13.471,0.283-32.776,1.063-37.066,3.207c-6.74,3.371-8.088,9.437-11.458,11.459s-3.37,4.044-6.74,6.74
			c-0.99,0.792-3.5,2.926-7.188,5.795C242.758,56.207,264.437,75.462,309.452,75.016"/>
	</g>
	<g clip-path="url(#SVGID_FrontSvgID_2_)">
		<defs>
			<rect id="SVGID_FrontSvgID_9_" width="612" height="792"/>
		</defs>
		<clipPath id="SVGID_FrontSvgID_10_">
			<use xlink:href="#SVGID_FrontSvgID_9_"  overflow="visible"/>
		</clipPath>
	</g>
	<g id="CROTCH" clip-path="url(#SVGID_FrontSvgID_2_)">
		<defs>
			<rect id="SVGID_FrontSvgID_11_" width="612" height="792"/>
		</defs>
		<clipPath id="SVGID_FrontSvgID_12_">
			<use xlink:href="#SVGID_FrontSvgID_11_"  overflow="visible"/>
		</clipPath>
		<path clip-path="url(#SVGID_FrontSvgID_12_)" fill="#FDBB2D" d="M348.231,751.12c-0.426-0.853,0-2.132,0.64-2.985
			c0.641-0.853,0.213-2.132-0.64-3.198c-0.854-1.065-0.64-2.985-0.64-2.985l0.854-1.492c0,0-2.771-9.381-2.985-12.366
			c-0.214-2.983-4.903-23.239-7.888-35.178c-2.986-11.941-5.117-33.474-17.696-45.841c-7.982-7.847-27.078-10.021-36.034-7.248
			c-8.954,2.771-10.233,14.712-12.365,23.239c-2.132,8.527-11.3,54.366-12.153,58.632c-0.752,3.756-4.296,35.094-5.131,42.514
			c0.749,0.023,1.725,0.032,2.358-0.046c1.137-0.143,2.133-1.565,2.133-1.565s2.415-0.567,4.691-1.137
			c2.272-0.57,4.547-1.848,6.538-3.839c1.991-1.989,1.278-5.827,1.278-5.827s1.422-5.4,1.848-6.964
			c0.427-1.565,2.985-6.823,3.554-8.103c0.569-1.278,0.427-11.976,0.427-11.976s6.822-16.347,10.943-29.139
			c4.122-12.793,13.22-55.719,13.22-55.719l8.386,2.558c0,0,1.848,6.396,1.99,8.388c0.144,1.991,3.694,15.493,4.405,18.335
			c0.712,2.844,5.687,20.185,7.391,25.159c1.706,4.975,9.667,26.296,11.088,29.707c1.421,3.412,4.834,10.375,4.975,11.087
			c0.142,0.711,0.142,1.99,0.142,2.699c0,0.71,0.427,2.845,0.427,2.845l0.854,1.138c0,0,0,1.42,0.143,2.133
			c0.144,0.71,0.709,2.131,0.853,2.557c0.144,0.427,1.28,5.544,1.28,5.544v1.563l0.282,1.423c0,0,1.28,1.988,1.706,2.699
			c0.427,0.712,3.411,2.417,4.408,2.559c0.252,0.036,0.54,0.072,0.83,0.105c0.01-1.997,0.022-4.621,0.022-5.01
			C350.364,754.744,348.659,751.973,348.231,751.12"/>
	</g>
	<g clip-path="url(#SVGID_FrontSvgID_2_)">
		<defs>
			<rect id="SVGID_FrontSvgID_13_" width="612" height="792"/>
		</defs>
		<clipPath id="SVGID_FrontSvgID_14_">
			<use xlink:href="#SVGID_FrontSvgID_13_"  overflow="visible"/>
		</clipPath>
	</g>
	<g clip-path="url(#SVGID_FrontSvgID_2_)">
		<defs>
			<rect id="SVGID_FrontSvgID_15_" width="612" height="792"/>
		</defs>
		<clipPath id="SVGID_FrontSvgID_16_">
			<use xlink:href="#SVGID_FrontSvgID_15_"  overflow="visible"/>
		</clipPath>
		<path clip-path="url(#SVGID_FrontSvgID_16_)" fill-rule="evenodd" clip-rule="evenodd" fill="#6D7DBC" d="M160.721,712.63
			c-3.083,0-5.593,2.508-5.593,5.592c0,3.083,2.51,5.59,5.593,5.59h9.85c3.085,0,5.594-2.507,5.594-5.59
			c0-3.084-2.509-5.592-5.592-5.592H160.721z"/>
		<path clip-path="url(#SVGID_FrontSvgID_16_)" fill="none" stroke="#6D7DBC" stroke-width="0.711" d="M160.721,712.63
			c-3.083,0-5.593,2.508-5.593,5.592c0,3.083,2.51,5.59,5.593,5.59h9.85c3.085,0,5.594-2.507,5.594-5.59
			c0-3.084-2.509-5.592-5.592-5.592H160.721z"/>
		<path clip-path="url(#SVGID_FrontSvgID_16_)" fill-rule="evenodd" clip-rule="evenodd" fill="#6D7DBC" d="M170.573,713.142
			c2.806,0,5.079,2.275,5.079,5.08c0,2.806-2.273,5.082-5.081,5.082h-9.85c-2.805,0-5.08-2.276-5.08-5.082
			c0-2.805,2.275-5.08,5.08-5.08H170.573z"/>
		<path clip-path="url(#SVGID_FrontSvgID_16_)" fill="none" stroke="#FFFFFF" stroke-width="0.356" stroke-miterlimit="3.864" d="
			M170.573,713.142c2.806,0,5.079,2.275,5.079,5.08c0,2.806-2.273,5.082-5.081,5.082h-9.85c-2.805,0-5.08-2.276-5.08-5.082
			c0-2.805,2.275-5.08,5.08-5.08H170.573z"/>
		<path clip-path="url(#SVGID_FrontSvgID_16_)" fill="#FFFFFF" d="M157.208,718.207c0-1.962,1.522-3.565,3.451-3.696v7.393
			C158.73,721.774,157.208,720.166,157.208,718.207"/>
		<polygon clip-path="url(#SVGID_FrontSvgID_16_)" fill-rule="evenodd" clip-rule="evenodd" fill="#FFFFFF" points="164.491,717.725 
			161.269,714.501 164.491,714.501 		"/>
		<polygon clip-path="url(#SVGID_FrontSvgID_16_)" fill-rule="evenodd" clip-rule="evenodd" fill="#FFFFFF" points="164.491,718.69 
			161.269,721.912 164.491,721.912 		"/>
		<polygon clip-path="url(#SVGID_FrontSvgID_16_)" fill-rule="evenodd" clip-rule="evenodd" fill="#EC2227" points="168.533,717.725 
			171.754,714.501 168.533,714.501 		"/>
		<polygon clip-path="url(#SVGID_FrontSvgID_16_)" fill-rule="evenodd" clip-rule="evenodd" fill="#EC2227" points="168.533,718.69 
			171.754,721.912 168.533,721.912 		"/>
		<rect x="165.176" y="714.501" clip-path="url(#SVGID_FrontSvgID_16_)" fill="#EC2227" width="2.673" height="7.411"/>
		<path clip-path="url(#SVGID_FrontSvgID_16_)" fill-rule="evenodd" clip-rule="evenodd" fill="#6D7DBC" d="M160.721,712.63
			c-3.083,0-5.593,2.508-5.593,5.592c0,3.083,2.51,5.59,5.593,5.59h9.85c3.085,0,5.594-2.507,5.594-5.59
			c0-3.084-2.509-5.592-5.592-5.592H160.721z"/>
		<path clip-path="url(#SVGID_FrontSvgID_16_)" fill="none" stroke="#6D7DBC" stroke-width="0.711" d="M160.721,712.63
			c-3.083,0-5.593,2.508-5.593,5.592c0,3.083,2.51,5.59,5.593,5.59h9.85c3.085,0,5.594-2.507,5.594-5.59
			c0-3.084-2.509-5.592-5.592-5.592H160.721z"/>
		<path clip-path="url(#SVGID_FrontSvgID_16_)" fill-rule="evenodd" clip-rule="evenodd" fill="#6D7DBC" d="M170.573,713.142
			c2.806,0,5.079,2.275,5.079,5.08c0,2.806-2.273,5.082-5.081,5.082h-9.85c-2.805,0-5.08-2.276-5.08-5.082
			c0-2.805,2.275-5.08,5.08-5.08H170.573z"/>
		<path clip-path="url(#SVGID_FrontSvgID_16_)" fill="none" stroke="#FFFFFF" stroke-width="0.356" stroke-miterlimit="3.864" d="
			M170.573,713.142c2.806,0,5.079,2.275,5.079,5.08c0,2.806-2.273,5.082-5.081,5.082h-9.85c-2.805,0-5.08-2.276-5.08-5.082
			c0-2.805,2.275-5.08,5.08-5.08H170.573z"/>
		<path clip-path="url(#SVGID_FrontSvgID_16_)" fill="#FFFFFF" d="M157.208,718.207c0-1.962,1.522-3.565,3.451-3.696v7.393
			C158.73,721.774,157.208,720.166,157.208,718.207"/>
		<polygon clip-path="url(#SVGID_FrontSvgID_16_)" fill-rule="evenodd" clip-rule="evenodd" fill="#FFFFFF" points="164.491,717.725 
			161.269,714.501 164.491,714.501 		"/>
		<polygon clip-path="url(#SVGID_FrontSvgID_16_)" fill-rule="evenodd" clip-rule="evenodd" fill="#FFFFFF" points="164.491,718.69 
			161.269,721.912 164.491,721.912 		"/>
		<polygon clip-path="url(#SVGID_FrontSvgID_16_)" fill-rule="evenodd" clip-rule="evenodd" fill="#EC2227" points="168.533,717.725 
			171.754,714.501 168.533,714.501 		"/>
		<polygon clip-path="url(#SVGID_FrontSvgID_16_)" fill-rule="evenodd" clip-rule="evenodd" fill="#EC2227" points="168.533,718.69 
			171.754,721.912 168.533,721.912 		"/>
		<rect x="165.176" y="714.501" clip-path="url(#SVGID_FrontSvgID_16_)" fill="#EC2227" width="2.673" height="7.411"/>
		<path clip-path="url(#SVGID_FrontSvgID_16_)" fill-rule="evenodd" clip-rule="evenodd" fill="#005DA9" d="M160.721,712.63
			c-3.083,0-5.593,2.508-5.593,5.592c0,3.083,2.51,5.59,5.593,5.59h9.85c3.085,0,5.594-2.507,5.594-5.59
			c0-3.084-2.509-5.592-5.592-5.592H160.721z"/>
		<path clip-path="url(#SVGID_FrontSvgID_16_)" fill="none" stroke="#005DA9" stroke-width="0.711" d="M160.721,712.63
			c-3.083,0-5.593,2.508-5.593,5.592c0,3.083,2.51,5.59,5.593,5.59h9.85c3.085,0,5.594-2.507,5.594-5.59
			c0-3.084-2.509-5.592-5.592-5.592H160.721z"/>
		<path clip-path="url(#SVGID_FrontSvgID_16_)" fill-rule="evenodd" clip-rule="evenodd" fill="#005DA9" d="M170.573,713.142
			c2.806,0,5.079,2.275,5.079,5.08c0,2.806-2.273,5.082-5.081,5.082h-9.85c-2.805,0-5.08-2.276-5.08-5.082
			c0-2.805,2.275-5.08,5.08-5.08H170.573z"/>
		<path clip-path="url(#SVGID_FrontSvgID_16_)" fill="none" stroke="#FFFFFF" stroke-width="0.356" stroke-miterlimit="3.864" d="
			M170.573,713.142c2.806,0,5.079,2.275,5.079,5.08c0,2.806-2.273,5.082-5.081,5.082h-9.85c-2.805,0-5.08-2.276-5.08-5.082
			c0-2.805,2.275-5.08,5.08-5.08H170.573z"/>
		<path clip-path="url(#SVGID_FrontSvgID_16_)" fill="#FFFFFF" d="M157.208,718.207c0-1.962,1.522-3.565,3.451-3.696v7.393
			C158.73,721.774,157.208,720.166,157.208,718.207"/>
		<polygon clip-path="url(#SVGID_FrontSvgID_16_)" fill-rule="evenodd" clip-rule="evenodd" fill="#FFFFFF" points="164.491,717.725 
			161.269,714.501 164.491,714.501 		"/>
		<polygon clip-path="url(#SVGID_FrontSvgID_16_)" fill-rule="evenodd" clip-rule="evenodd" fill="#FFFFFF" points="164.491,718.69 
			161.269,721.912 164.491,721.912 		"/>
		<polygon clip-path="url(#SVGID_FrontSvgID_16_)" fill-rule="evenodd" clip-rule="evenodd" fill="#EC2227" points="168.533,717.725 
			171.754,714.501 168.533,714.501 		"/>
		<polygon clip-path="url(#SVGID_FrontSvgID_16_)" fill-rule="evenodd" clip-rule="evenodd" fill="#EC2227" points="168.533,718.69 
			171.754,721.912 168.533,721.912 		"/>
		<rect x="165.176" y="714.501" clip-path="url(#SVGID_FrontSvgID_16_)" fill="#EC2227" width="2.673" height="7.411"/>
		<g opacity="0.1" clip-path="url(#SVGID_FrontSvgID_16_)">
			<g>
				<defs>
					<rect id="SVGID_FrontSvgID_17_" x="416.473" y="439.656" width="51.463" height="226.538"/>
				</defs>
				<clipPath id="SVGID_FrontSvgID_18_">
					<use xlink:href="#SVGID_FrontSvgID_17_"  overflow="visible"/>
				</clipPath>
				<path clip-path="url(#SVGID_FrontSvgID_18_)" fill="#897F76" d="M416.473,449.242c0,0,1.406,4.313,1.69,5.165
					c0.285,0.853,1.992,1.989,1.992,1.989s0.851,7.391,0.993,8.813s-2.133,4.264-2.133,4.264v5.686l2.141,0.248
					c0,0,8.662,24.484,9.799,28.749c1.139,4.264,6.823,22.741,6.823,25.868c0,3.128,4.551,15.068,4.835,16.49
					c0.283,1.42,7.958,31.839,9.095,34.112c1.138,2.273,3.696,24.162,5.118,28.427c1.42,4.265,1.988,7.961,3.125,13.93
					c1.14,5.97,0.287,13.928,1.992,17.625c1.705,3.695,5.685,25.586,5.685,25.586s0.854-16.489-0.283-23.596
					c-1.137-7.107-4.834-28.146-4.834-30.986c0-2.843-3.41-26.722-4.832-31.838c-1.423-5.117-12.793-41.79-13.646-44.349
					c-0.854-2.559-5.64-23.134-5.806-25.354c-0.164-2.221-1.586-11.033-2.155-12.738c-0.567-1.706-1.16-6.033-1.077-8.72
					c0.084-2.687-0.588-5.711-0.588-5.711l-0.251-3.989l-1.386-3.904c0,0-1.815-4.966-1.815-6.104s-1.167-3.677-1.294-5.108
					c-0.126-1.43-0.126-3.137-0.126-3.137s-0.054-3.682,0.015-5.119c0,0,0.104-3.979-0.099-5.684
					c-0.201-1.705-0.97-4.681-0.97-6.102c0-0.813,0.263-4.175-0.302-4.099c0,0-1.453,3.194-2.602,4.45
					C422.896,447.042,416.473,449.242,416.473,449.242"/>
			</g>
		</g>
		<path clip-path="url(#SVGID_FrontSvgID_16_)" d="M149.257,99.904c0.017,0.29,0.036,0.581,0.055,0.874
			C149.293,100.485,149.274,100.194,149.257,99.904"/>
		<path clip-path="url(#SVGID_FrontSvgID_16_)" d="M149.188,98.676c0.016,0.299,0.033,0.602,0.05,0.907
			C149.222,99.278,149.205,98.975,149.188,98.676"/>
		<path clip-path="url(#SVGID_FrontSvgID_16_)" d="M173.359,224.444v0.021V224.444z"/>
		<path clip-path="url(#SVGID_FrontSvgID_16_)" d="M149.132,97.52c0.016,0.336,0.032,0.677,0.05,1.023
			C149.164,98.196,149.148,97.855,149.132,97.52"/>
		<path clip-path="url(#SVGID_FrontSvgID_16_)" d="M149.012,94.36c0.009,0.285,0.018,0.577,0.028,0.878
			C149.03,94.938,149.021,94.646,149.012,94.36"/>
		<path clip-path="url(#SVGID_FrontSvgID_16_)" d="M149.086,96.457c0.01,0.267,0.022,0.537,0.034,0.812
			C149.108,96.994,149.096,96.723,149.086,96.457"/>
		<path clip-path="url(#SVGID_FrontSvgID_16_)" d="M148.965,92.519c0.011,0.516,0.025,1.083,0.043,1.693
			C148.99,93.603,148.976,93.034,148.965,92.519"/>
		<path clip-path="url(#SVGID_FrontSvgID_16_)" d="M173.372,225.656"/>
		<path clip-path="url(#SVGID_FrontSvgID_16_)" d="M149.042,95.291c0.011,0.315,0.023,0.64,0.036,0.97
			C149.065,95.931,149.053,95.605,149.042,95.291"/>
		<path clip-path="url(#SVGID_FrontSvgID_16_)" d="M149.325,100.98c0.023,0.354,0.049,0.709,0.075,1.066
			C149.374,101.69,149.348,101.334,149.325,100.98"/>
		<path clip-path="url(#SVGID_FrontSvgID_16_)" d="M149.752,105.931c0.03,0.279,0.062,0.556,0.095,0.832
			C149.814,106.488,149.782,106.21,149.752,105.931"/>
		<path clip-path="url(#SVGID_FrontSvgID_16_)" d="M150.04,108.247c0.037,0.262,0.076,0.521,0.115,0.775
			C150.116,108.768,150.077,108.509,150.04,108.247"/>
		<path clip-path="url(#SVGID_FrontSvgID_16_)" d="M149.875,106.998c0.042,0.341,0.085,0.678,0.131,1.01
			C149.96,107.676,149.917,107.339,149.875,106.998"/>
		<path clip-path="url(#SVGID_FrontSvgID_16_)" d="M173.102,219.084c0.002,0.03,0.005,0.059,0.008,0.089
			C173.106,219.143,173.104,219.114,173.102,219.084"/>
		<path clip-path="url(#SVGID_FrontSvgID_16_)" d="M172.966,217.75c0.005,0.042,0.01,0.083,0.015,0.126
			C172.976,217.833,172.971,217.792,172.966,217.75"/>
		<path clip-path="url(#SVGID_FrontSvgID_16_)" d="M150.198,109.299c0.052,0.322,0.105,0.639,0.161,0.947
			C150.303,109.938,150.25,109.621,150.198,109.299"/>
		<path clip-path="url(#SVGID_FrontSvgID_16_)" d="M149.621,104.663c0.031,0.318,0.063,0.635,0.096,0.95
			C149.684,105.298,149.652,104.981,149.621,104.663"/>
		<path clip-path="url(#SVGID_FrontSvgID_16_)" d="M149.422,102.335c0.021,0.273,0.042,0.546,0.065,0.819
			C149.464,102.881,149.443,102.608,149.422,102.335"/>
		<path clip-path="url(#SVGID_FrontSvgID_16_)" d="M172.799,216.5c0.005,0.033,0.01,0.067,0.015,0.101
			C172.809,216.567,172.804,216.534,172.799,216.5"/>
		<path clip-path="url(#SVGID_FrontSvgID_16_)" d="M173.279,221.807c0.001,0.036,0.003,0.071,0.004,0.107
			C173.282,221.877,173.28,221.843,173.279,221.807"/>
		<path clip-path="url(#SVGID_FrontSvgID_16_)" d="M149.514,103.479c0.03,0.356,0.062,0.711,0.095,1.065
			C149.576,104.191,149.544,103.835,149.514,103.479"/>
		<path clip-path="url(#SVGID_FrontSvgID_16_)" d="M173.208,220.487c0,0.006,0,0.013,0.001,0.019
			C173.208,220.5,173.208,220.493,173.208,220.487"/>
		<path clip-path="url(#SVGID_FrontSvgID_16_)" d="M173.328,223.125l0.003,0.107L173.328,223.125z"/>
		<path clip-path="url(#SVGID_FrontSvgID_16_)" d="M173.208,220.487c-0.028-0.44-0.061-0.879-0.098-1.314
			C173.146,219.608,173.18,220.048,173.208,220.487"/>
		<path clip-path="url(#SVGID_FrontSvgID_16_)" d="M173.372,225.656c-0.002-0.381-0.006-0.779-0.013-1.191
			C173.366,224.876,173.37,225.275,173.372,225.656"/>
		<path clip-path="url(#SVGID_FrontSvgID_16_)" d="M172.799,216.5c-0.061-0.399-0.127-0.787-0.201-1.156
			C172.672,215.713,172.738,216.101,172.799,216.5"/>
		<path clip-path="url(#SVGID_FrontSvgID_16_)" d="M173.359,224.444c-0.006-0.394-0.016-0.799-0.028-1.213
			C173.343,223.646,173.353,224.05,173.359,224.444"/>
		<path clip-path="url(#SVGID_FrontSvgID_16_)" d="M173.279,221.807c-0.02-0.431-0.042-0.866-0.07-1.301
			C173.237,220.94,173.259,221.375,173.279,221.807"/>
		<path clip-path="url(#SVGID_FrontSvgID_16_)" d="M173.328,223.125c-0.012-0.398-0.027-0.802-0.045-1.21
			C173.301,222.323,173.316,222.728,173.328,223.125"/>
		<path clip-path="url(#SVGID_FrontSvgID_16_)" d="M172.966,217.75c-0.045-0.392-0.096-0.775-0.151-1.149
			C172.87,216.975,172.921,217.357,172.966,217.75"/>
		<path clip-path="url(#SVGID_FrontSvgID_16_)" d="M173.102,219.084c-0.036-0.408-0.076-0.812-0.121-1.208
			C173.025,218.272,173.065,218.676,173.102,219.084"/>
		<path clip-path="url(#SVGID_FrontSvgID_16_)" d="M149.752,105.931c-0.012-0.106-0.023-0.212-0.035-0.318
			C149.729,105.72,149.74,105.825,149.752,105.931"/>
		<path clip-path="url(#SVGID_FrontSvgID_16_)" d="M149.042,95.291c0-0.018-0.001-0.035-0.001-0.052
			C149.041,95.255,149.042,95.272,149.042,95.291"/>
		<path clip-path="url(#SVGID_FrontSvgID_16_)" d="M149.086,96.457c-0.003-0.065-0.006-0.131-0.008-0.196
			C149.081,96.326,149.083,96.392,149.086,96.457"/>
		<path clip-path="url(#SVGID_FrontSvgID_16_)" d="M149.188,98.676c-0.002-0.044-0.005-0.089-0.007-0.133
			C149.184,98.587,149.187,98.632,149.188,98.676"/>
		<path clip-path="url(#SVGID_FrontSvgID_16_)" d="M149.132,97.52c-0.004-0.084-0.007-0.167-0.011-0.251
			C149.125,97.353,149.128,97.436,149.132,97.52"/>
		<polyline clip-path="url(#SVGID_FrontSvgID_16_)" points="148.964,92.514 148.964,92.519 148.964,92.514 		"/>
		<path clip-path="url(#SVGID_FrontSvgID_16_)" d="M149.012,94.36c-0.001-0.05-0.003-0.099-0.004-0.148
			C149.009,94.261,149.011,94.311,149.012,94.36"/>
		<path clip-path="url(#SVGID_FrontSvgID_16_)" d="M150.198,109.299c-0.015-0.091-0.029-0.184-0.043-0.277
			C150.169,109.115,150.183,109.208,150.198,109.299"/>
		<path clip-path="url(#SVGID_FrontSvgID_16_)" d="M149.621,104.663c-0.004-0.04-0.008-0.079-0.012-0.118
			C149.613,104.584,149.617,104.623,149.621,104.663"/>
		<path clip-path="url(#SVGID_FrontSvgID_16_)" d="M149.875,106.998c-0.01-0.078-0.019-0.157-0.028-0.235
			C149.856,106.841,149.865,106.92,149.875,106.998"/>
		<path clip-path="url(#SVGID_FrontSvgID_16_)" d="M150.04,108.247c-0.011-0.08-0.023-0.159-0.034-0.24
			C150.017,108.088,150.029,108.167,150.04,108.247"/>
		<path clip-path="url(#SVGID_FrontSvgID_16_)" d="M149.422,102.335c-0.007-0.096-0.015-0.193-0.022-0.289
			C149.407,102.143,149.415,102.238,149.422,102.335"/>
		<path clip-path="url(#SVGID_FrontSvgID_16_)" d="M149.514,103.479c-0.009-0.108-0.019-0.217-0.027-0.325
			C149.495,103.264,149.505,103.372,149.514,103.479"/>
		<path clip-path="url(#SVGID_FrontSvgID_16_)" d="M149.325,100.98c-0.004-0.067-0.008-0.135-0.013-0.203
			C149.317,100.846,149.321,100.913,149.325,100.98"/>
		<path clip-path="url(#SVGID_FrontSvgID_16_)" d="M149.257,99.904c-0.006-0.107-0.013-0.215-0.019-0.322
			C149.244,99.689,149.251,99.796,149.257,99.904"/>
		<path clip-path="url(#SVGID_FrontSvgID_16_)" fill="#FFFFFF" d="M309.484,53.145c27.837,0.265,49.046-14.051,48.781-16.437
			c-0.266-2.386-4.83-6.817-7.747-8.938c-2.916-2.121-16.78-3.537-44.618-3.385c-28.156,0.154-37.695,1.23-41.542,2.155
			c-3.846,0.922-10.181,7.948-9.385,9.539C255.769,37.668,281.812,52.88,309.484,53.145"/>
		<g opacity="0.35" clip-path="url(#SVGID_FrontSvgID_16_)">
			<g>
				<defs>
					<rect id="SVGID_FrontSvgID_19_" x="254.905" y="24.374" width="103.363" height="28.774"/>
				</defs>
				<clipPath id="SVGID_FrontSvgID_20_">
					<use xlink:href="#SVGID_FrontSvgID_19_"  overflow="visible"/>
				</clipPath>
				<g clip-path="url(#SVGID_FrontSvgID_20_)">
					<defs>
						<path id="SVGID_FrontSvgID_21_" d="M309.484,53.145c27.837,0.265,49.046-14.051,48.781-16.437c-0.266-2.386-4.83-6.817-7.747-8.938
							c-2.916-2.121-16.78-3.537-44.619-3.385c-28.156,0.154-37.695,1.231-41.542,2.154c-3.846,0.923-10.18,7.948-9.385,9.539
							C255.769,37.669,281.811,52.881,309.484,53.145"/>
					</defs>
					<clipPath id="SVGID_FrontSvgID_22_">
						<use xlink:href="#SVGID_FrontSvgID_21_"  overflow="visible"/>
					</clipPath>
					
						<radialGradient id="SVGID_FrontSvgID_23_" cx="0" cy="792" r="1" gradientTransform="matrix(81.2303 0 0 -32.2447 307.25 25563.7656)" gradientUnits="userSpaceOnUse">
						<stop  offset="0" style="stop-color:#FFFFFF"/>
						<stop  offset="1" style="stop-color:#FFFFFF"/>
					</radialGradient>
					<rect x="254.178" y="24.233" clip-path="url(#SVGID_FrontSvgID_22_)" fill="url(#SVGID_FrontSvgID_23_)" width="104.352" height="29.177"/>
				</g>
				<g clip-path="url(#SVGID_FrontSvgID_20_)">
					<defs>
						<path id="SVGID_FrontSvgID_24_" d="M309.484,53.145c27.837,0.265,49.046-14.051,48.781-16.437c-0.266-2.386-4.83-6.817-7.747-8.938
							c-2.916-2.121-16.78-3.537-44.619-3.385c-28.156,0.154-37.695,1.231-41.542,2.154c-3.846,0.923-10.18,7.948-9.385,9.539
							C255.769,37.669,281.811,52.881,309.484,53.145"/>
					</defs>
					<clipPath id="SVGID_FrontSvgID_25_">
						<use xlink:href="#SVGID_FrontSvgID_24_"  overflow="visible"/>
					</clipPath>
					
						<radialGradient id="SVGID_FrontSvgID_26_" cx="0" cy="792" r="1" gradientTransform="matrix(81.2303 0 0 -32.2447 307.25 25563.7656)" gradientUnits="userSpaceOnUse">
						<stop  offset="0" style="stop-color:#FFFFFF"/>
						<stop  offset="0.1085" style="stop-color:#EBEBEB"/>
						<stop  offset="0.3308" style="stop-color:#B7B7B7"/>
						<stop  offset="0.6481" style="stop-color:#646464"/>
						<stop  offset="1" style="stop-color:#000000"/>
					</radialGradient>
					<rect x="254.178" y="24.233" clip-path="url(#SVGID_FrontSvgID_25_)" fill="url(#SVGID_FrontSvgID_26_)" width="104.352" height="29.177"/>
				</g>
			</g>
		</g>
		<g  opacity="0.03" clip-path="url(#SVGID_FrontSvgID_16_)">
			<g>
				<defs>
					<rect id="SVGID_FrontSvgID_27_" x="109.639" y="30.144" width="397.407" height="742.121"/>
				</defs>
				<clipPath id="SVGID_FrontSvgID_28_">
					<use xlink:href="#SVGID_FrontSvgID_27_"  overflow="visible"/>
				</clipPath>
				<path clip-path="url(#SVGID_FrontSvgID_28_)" d="M180.79,771.006l-0.063,0.689l23.945,0.569c0,0,0.043-0.135,0.123-0.389
					C199.462,771.815,189.965,771.506,180.79,771.006 M199.069,585.364c-1.104,0-1.953,0.44-2.356,1.516
					c-1.706,4.549-2.275,17.056-1.706,36.955c0.569,19.9-2.843,18.194-3.98,34.113c-1.137,15.92,1.706,18.762,4.549,27.29
					c2.843,8.528,11.371,28.997,15.351,42.073c3.72,12.229-4.987,40.896-6.132,44.564c0.636,0.007,1.215,0.011,1.725,0.011
					c10.234,0,48.278-7.544,48.278-7.544s1.674-22.681,4.094-39.206c2.662-18.187,7.22-42.658,11.82-60.205
					c1.035-4.598,2.157-9.027,3.352-12.76c1.17-3.655,2.83-6.304,4.216-8.054c0.112-0.148,0.224-0.285,0.334-0.411
					c1.275-1.529,2.245-2.248,2.245-2.248s-10.235-5.684-11.94-5.684c-1.706,0-12.508-5.686-21.036-14.214
					c-8.528-8.528-32.977-25.584-36.388-28.997C208.89,589.959,202.638,585.364,199.069,585.364 M179.628,465.812
					c-0.362,1.255-0.75,2.479-1.109,3.378c-1.137,2.843-1.706,15.919-2.56,18.62c-0.853,2.703-0.282,9.238-1.42,14.355
					c-1.136,5.116-11.011,45.344-13.711,51.737c-2.699,6.396-3.411,20.468-4.547,27.861c-1.137,7.39-9.666,56.854-11.94,75.616
					s8.528,98.396,8.528,98.396l0.709,7.394c0,0,0.427,2.984,2.985,5.117c1.363,1.135,12.533,2.082,24.227,2.72l1.643-18.073
					v-17.091c0-2.843-3.979-5.118-5.116-17.058c-1.138-11.939-8.464-23.88-8.464-31.271c0-7.393,2.778-36.954,8.464-60.835
					c3.702-15.552,4.994-41.475,7.172-60.019c-12.329-3.692-13.105-9.473-13.105-9.473v-4.719c0,0-1.348-6.066-1.348-8.762
					c0-2.696,2.696-5.393,2.696-5.393s0-15.502,2.022-36.396C175.592,493.255,177.473,479.842,179.628,465.812 M207.461,448.991
					c-3.192,2.798-5.207,6.731-5.337,12.176c-0.695,29.206,0.348,53.544-4.52,60.846c-4.867,7.302-7.997,5.216-6.258,15.994
					c0.24,1.489,0.347,3.251,0.354,5.182c5.556-5.102,11.358-3.535,15.815-11.459c5.117-9.097-3.411-18.193-3.411-22.174
					c0-3.979,3.98-8.528,7.391-10.233c3.411-1.706,11.94-6.254,18.763-11.94c6.822-5.685,6.822-9.664,6.822-9.664l-7.96-3.979
					c-7.959-3.981-6.344-20.493-6.344-20.493S214.488,451.064,207.461,448.991 M181.93,439.134l-0.653,16.146
					c0.835-5.243,1.682-10.429,2.501-15.344C182.62,439.437,181.93,439.134,181.93,439.134"/>
	     	<g>
              <path clip-path="url(#SVGID_FrontSvgID_28_)" d="M293.603,638.176c-5.504,0-10.973,1.351-14.82,5.348c-0.056,0.059-0.112,0.119-0.169,0.184
					c-0.109,0.131-0.22,0.269-0.334,0.411c-2.306,3.049-4.944,10.806-7.568,20.813c-2.505,11.13-4.501,23.243-5.772,28.835
					c-2.843,12.508-7.392,47.796-7.392,51.776c0,3.978-2.75,18.8-2.75,18.8s5.576-1.957,8.577-2.88
					c2.852-0.878,6.539-3.839,6.539-3.839s0.736-1.062,1.079-2.261c0.343-1.2,0.172-2.225,0.199-3.566
					c0.029-1.341,0.828-3.282,1.341-5.338c0.514-2.056,2.569-7.021,3.225-8.937c0.654-1.917,1.202-11.866,1.202-11.866
					s1.054-4.432,2.766-6.827c1.714-2.396,8.238-23.213,11.133-32.711c2.893-9.497,9.418-45.726,10.325-46.221
					c0.068-0.037,0.172-0.055,0.309-0.055c1.679,0,8.077,2.612,8.077,2.612s1.498,5.814,1.839,7.184
					c0.34,1.373,5.837,25.175,11.304,42.645c7.02,22.435,15.756,40.245,16.099,41.102c0.343,0.857,0.749,4.445,0.514,5.14
					c-0.236,0.692,1.54,2.568,1.54,2.568s0,1.711,0.686,4.109c0.687,2.396,1.713,5.995,1.565,6.844
					c-0.149,0.85,0.282,2.985,0.282,2.985s2.093,3.015,2.605,3.528c0.513,0.516,2.74,1.2,3.509,1.73
					c0.398,0.274,1.072,0.341,1.629,0.341c0.515,0,0.929-0.057,0.929-0.057l-1.705-5.189c0,0-0.766-5.388-0.766-10.011
					c0-4.624-1.54-8.049-1.712-10.789c-0.172-2.741-4.453-21.236-5.48-29.114c-1.026-7.879-8.103-31.034-8.103-31.034
					c-6.254-24.447-15.912-28.671-21.03-31.514C310.203,641.217,301.862,638.176,293.603,638.176"/>
         </g>
				<path clip-path="url(#SVGID_FrontSvgID_28_)" d="M270.712,664.932c-4.6,17.546-9.159,42.019-11.82,60.205
					c-2.42,16.525-4.094,39.206-4.094,39.206s2.75-14.823,2.75-18.8c0-3.981,4.548-39.269,7.392-51.776
					C266.211,688.175,268.206,676.061,270.712,664.932 M278.614,643.707c-0.11,0.126-0.222,0.263-0.334,0.411
					C278.393,643.976,278.505,643.838,278.614,643.707"/>
				<path clip-path="url(#SVGID_FrontSvgID_28_)" d="M404.943,468.231c-3.096,0.929-6.225,1.765-8.527,2.094
					c-5.97,0.854-35.394,3.412-35.394,3.412l3.413,0.427c0,0,9.381,24.731,7.249,36.671s-5.117,20.895-14.072,43.921
					c-8.953,23.026,20.895,26.438,23.453,28.569c2.559,2.133,23.453,9.809,25.158,10.661c1.706,0.854-2.132,14.497-5.117,30.275
					c-2.984,15.776,13.646,30.701,18.762,43.921c5.117,13.219-5.969,15.777-11.085,23.879c-5.117,8.103-3.839,36.246-7.25,45.627
					s0.427,30.274,0.427,30.274s8.954,0.427,14.498,0.427c5.543,0,12.365-0.853,12.365-0.853s0.427-8.955,1.279-12.794
					c0.853-3.838,2.56-6.396,4.69-10.233c2.132-3.838,9.809-17.482,9.809-20.467c0-2.985,1.706-35.818,2.132-41.789
					c0.427-5.97,1.706-25.585,2.559-33.26c0.854-7.677-7.249-40.511-11.514-51.17c-3.718-9.297-10.354-29.616-13.123-42.3
					c-4.565-2.799-4.402-1.943-7.966-15.432c-4.526-17.139-6.046-35.781-6.236-38.306c-4.219-5.343-8.986-4.385-11.479-8.435
					c-3.411-5.544-5.544-10.234-5.544-14.071c0-3.839,2.559-5.117,2.559-5.117s5.107-1.179,9.952-2.375
					c-0.231-0.899-0.474-1.776-0.726-2.625C405.12,468.843,405.029,468.533,404.943,468.231"/>
				<path clip-path="url(#SVGID_FrontSvgID_28_)" d="M354.261,30.144l-1.371,0.479c2.188,2.091,4.201,4.524,4.375,6.084
					c0.14,1.261-5.716,5.851-15.373,9.861c0.781,1.62,1.346,3.151,1.436,4.327c0.348,4.52,0,4.172,0,10.778
					c0,6.607,2.435,13.213,6.606,22.948c4.172,9.735,8.692,4.52,11.821,18.427c2.317,10.302-7.383,11.638-12.568,11.638
					c-1.815,0-3.077-0.164-3.077-0.164s11.556,1.651,26.121,1.651c3.12,0,6.378-0.076,9.69-0.26c18.775-1.043,14.603,0,27.815-1.391
					c6.605-0.695,9.909-1.565,14.081-1.565s9.213,0.87,19.297,3.651c20.166,5.563,4.867,18.08,3.477,32.335
					c-1.392,14.256-21.558,12.169-27.467,19.819c-5.911,7.649-2.087,67.103-1.392,73.71c0.695,6.606-13.56,18.079-13.56,18.079
					s-3.824,11.126-6.258,19.471c-2.435,8.344,3.824,25.728,3.477,44.504c-0.348,18.775-17.385,43.461-23.295,57.021
					c-5.911,13.559-1.392,26.771,8.344,56.325c3.828,11.622,5.237,14.695,5.981,14.695c0.418,0,0.626-0.968,0.936-1.936
					c0.309-0.967,0.719-1.935,1.539-1.935c0.616,0,1.462,0.544,2.67,2.039c7.119,8.814,3.992,5.73,7.377,17.495
					c4.93-1.478,9.778-3.188,11.088-3.449c1.224-0.245,2.729-0.771,3.789-0.771c0.787,0,1.328,0.289,1.328,1.197
					c0,2.132-5.117,3.411-6.822,4.264c-0.76,0.379-4.487,1.354-8.385,2.316c3.277,12.724,4.49,29.71,4.49,29.71
					s0.007,0.099,0.021,0.288c1.555,1.971,3.036,4.798,4.3,9.049c4.69,15.776,7.248,28.142,8.954,39.656
					c0.219,1.474,0.541,3.171,0.948,5.032c1.672,1.025,3.978,2.54,7.333,5.43l3.965,1.469c3.699-2.752,4.035-5.237,4.035-5.237
					v-4.718c0,0,1.349-6.066,1.349-8.762c0-2.696-2.696-5.394-2.696-5.394s2.643-15.929-2.022-36.396
					c-4.771-20.934-11.57-62.905-14.94-81.104c-3.37-18.197,2.135-67.854,5.505-84.704s8.088-71.445,7.414-80.207
					c-0.58-7.538,2.33-24.542,3.155-29.15c-0.016-3.092,0.087-7.978,0.772-11.408c1.076-5.381,9.326-50.935,11.12-59.544
					c1.793-8.608,9.685-37.663,11.119-45.554c1.013-5.569,1.31-13.633,1.398-17.901c-0.79-0.548-1.279-0.903-1.279-0.903
					s-18.198-6.066-43.811-16.176s-46.507-28.309-49.877-31.005c-3.371-2.696-3.371-4.718-6.74-6.74
					C358.224,36.182,356.87,33.072,354.261,30.144"/>
				<path clip-path="url(#SVGID_FrontSvgID_28_)" d="M410.453,501.787c0.19,2.524,1.71,21.167,6.236,38.306
					c3.563,13.488,3.4,12.633,7.966,15.432c-0.407-1.861-0.729-3.559-0.948-5.032c-1.706-11.514-4.264-23.88-8.954-39.656
					C413.489,506.585,412.008,503.758,410.453,501.787 M419.82,464.012c-1.061,0-2.565,0.525-3.789,0.771
					c-1.31,0.261-6.158,1.971-11.088,3.448c0.086,0.302,0.177,0.611,0.273,0.933c0.25,0.849,0.493,1.726,0.725,2.625
					c3.897-0.963,7.625-1.937,8.385-2.316c1.705-0.853,6.822-2.132,6.822-4.264C421.148,464.301,420.607,464.012,419.82,464.012"/>
				<path clip-path="url(#SVGID_FrontSvgID_28_)" d="M191.7,543.188c-0.822,0.755-1.638,1.655-2.444,2.755
					c-2.181,2.975-3.601,10.788-4.767,20.716c1.36,0.407,2.861,0.79,4.517,1.136C190.145,561.315,191.727,550.905,191.7,543.188
					 M181.277,455.279c-0.559,3.508-1.112,7.037-1.649,10.532c0.784-2.717,1.448-5.575,1.448-5.575L181.277,455.279 M255.053,32.757
					c-1.437,2.009-2.57,3.824-4.136,4.764c-3.369,2.022-3.369,4.044-6.739,6.74c-3.371,2.696-24.265,20.894-49.877,31.004
					c-25.613,10.111-43.811,16.177-43.811,16.177s-0.596,0.431-1.525,1.071c0.092,4.309,0.395,12.237,1.394,17.733
					c1.435,7.891,9.326,36.946,11.12,45.554c1.793,8.609,10.043,54.163,11.119,59.544c0.61,3.047,0.759,7.244,0.774,10.312
					l0.034-0.086c0,0,4.044,21.569,3.37,30.332c-0.674,8.762,4.044,63.356,7.414,80.207c3.37,16.85,7.414,59.987,4.044,78.186
					c-1.105,5.967-2.717,15.196-4.456,25.642c4.302,1.855,15.07,6.424,20.894,8.216c0.89,0.273,1.827,0.556,2.789,0.839
					c5.472-4.796,14.407-6.253,23.238-6.253c13.652,0,27.055,3.479,27.055,3.479s4.52-6.259,3.825-14.95
					c-0.695-8.692-28.163-46.938-33.379-55.63c-4.206-7.01,0.182-7.689,2.037-7.689c0.445,0,0.745,0.039,0.745,0.039
					s-7.649-3.476-10.778-20.513c-3.13-17.037,5.215-37.898,12.864-55.978c7.65-18.08,29.902-36.855,29.902-36.855
					s-4.296,0.685-10.987,0.685c-9.127,0-22.712-1.273-35.951-7.291c-22.948-10.43-24.338-28.163-27.468-82.75
					c-3.129-54.587,2.086-65.365,14.603-66.061c0.29-0.016,0.598-0.024,0.922-0.024c13.623,0,55.904,13.996,62.358,16.714
					c0,0,4.171-8.693,2.781-13.908c-1.391-5.215,2.782-13.56,7.649-22.6c2.855-5.302,4.036-6.059,4.875-6.059
					c0.167,0,0.321,0.031,0.472,0.061c0.151,0.03,0.299,0.06,0.454,0.06c0.238,0,0.494-0.071,0.805-0.32
					c1.738-1.391,0.348-9.388-0.695-11.822c-1.043-2.433-0.348-3.129,1.738-8.692c0.382-1.02-0.464-2.378-2.094-3.916
					c-15.566-4.701-26.937-11.597-27.459-12.639c-0.254-0.51,0.227-1.579,1.12-2.824C255.727,33.078,255.374,32.91,255.053,32.757"
					/>
				<path clip-path="url(#SVGID_FrontSvgID_28_)" d="M183.777,439.937c-0.819,4.915-1.666,10.101-2.5,15.343l-0.201,4.957
					c0,0-0.664,2.858-1.448,5.575c-2.155,14.03-4.037,27.443-4.875,36.104c-2.022,20.896-2.022,36.397-2.022,36.397
					s-2.696,2.696-2.696,5.393c0,2.695,1.348,8.762,1.348,8.762v4.719c0,0,0.777,5.78,13.105,9.473
					c1.166-9.928,2.586-17.741,4.767-20.716c0.806-1.1,1.623-2,2.444-2.755c-0.006-1.931-0.114-3.692-0.354-5.182
					c-1.738-10.778,1.391-8.692,6.259-15.994c4.867-7.302,3.824-31.64,4.519-60.847c0.13-5.443,2.146-9.377,5.337-12.175
					c-0.961-0.284-1.899-0.565-2.788-0.839C198.847,446.36,188.08,441.791,183.777,439.937"/>
				<path clip-path="url(#SVGID_FrontSvgID_28_)" d="M114.854,136.774c0,0,0.695,5.215,3.477,11.126c2.781,5.911,30.944,41.374,30.944,41.374
					s-25.381-27.814-26.772-29.553c-1.292-1.614-11.286-9.531-12.699-9.532c-0.108,0-0.165,0.046-0.165,0.145
					c0,1.39,8.692,10.778,15.646,17.384c6.953,6.606,21.209,20.861,27.815,30.944s18.775,27.467,18.775,27.467
					s-2.434-10.083-4.172-14.254c-1.739-4.173-9.04-15.299-10.779-18.08C155.186,191.014,114.854,136.774,114.854,136.774"/>
				<path clip-path="url(#SVGID_FrontSvgID_28_)" d="M117.636,128.43c0,0,3.824,14.255,11.474,21.557c7.649,7.301,15.646,9.735,15.646,9.735
					s-12.865-10.778-15.299-14.255S117.636,128.43,117.636,128.43"/>
				<path clip-path="url(#SVGID_FrontSvgID_28_)" d="M505.655,147.205c0,0-4.52,9.04-8.344,15.994c-3.825,6.953-20.166,20.165-28.858,25.033
					c-8.692,4.868-24.686,22.6-24.686,22.6s7.301-1.391,11.821-4.868c4.52-3.477,33.378-14.95,44.505-30.944
					C511.219,159.026,505.655,147.205,505.655,147.205"/>
				<path clip-path="url(#SVGID_FrontSvgID_28_)" d="M500.093,200.054c0,0-12.517,10.778-22.252,13.56c-9.735,2.781-28.163,6.258-28.163,6.258
					s3.475,0.914,9.064,0.914c5.31,0,12.527-0.825,20.489-4.043C495.572,210.137,500.093,200.054,500.093,200.054"/>
				<path clip-path="url(#SVGID_FrontSvgID_28_)" d="M487.802,153.718c-2.52,0-5.758,0.954-8.918,4.613c-6.606,7.649-8.692,10.43-14.603,13.907
					c-5.756,3.386-8.873,16.985-9.032,17.698c0.14-0.617,2.348-9.83,10.075-13.526c7.996-3.824,13.56-3.477,17.384-10.083
					c3.825-6.606,9.735-11.473,9.735-11.473S490.551,153.718,487.802,153.718"/>
			</g>
		</g>
	</g>
	<g clip-path="url(#SVGID_FrontSvgID_2_)">
		<defs>
			<rect id="SVGID_FrontSvgID_29_" width="612" height="792"/>
		</defs>
		<clipPath id="SVGID_FrontSvgID_30_">
			<use xlink:href="#SVGID_FrontSvgID_29_"  overflow="visible"/>
		</clipPath>
		<g opacity="0.5" clip-path="url(#SVGID_FrontSvgID_30_)">
			<g>
				<defs>
					<rect id="SVGID_FrontSvgID_31_" x="182.293" y="443.692" width="246.537" height="22.909"/>
				</defs>
				<clipPath id="SVGID_FrontSvgID_32_">
					<use xlink:href="#SVGID_FrontSvgID_31_"  overflow="visible"/>
				</clipPath>
				
					<path clip-path="url(#SVGID_FrontSvgID_32_)" fill="none" stroke="#897F76" stroke-width="0.708" stroke-miterlimit="10" stroke-dasharray="1.706,0.853" d="
					M182.498,444.032c0,0,7.56,5.389,14.093,8.147c6.532,2.759,32.226,10.744,49.5,12.775c17.274,2.031,55.015,1.306,82.161,0.29
					c27.146-1.017,64.307-4.063,68.081-4.354c3.773-0.291,10.599-0.726,11.904-1.016c1.307-0.291,11.322-2.614,14.082-4.791
					c2.757-2.178,3.627-3.194,4.208-4.064c0.581-0.871,1.11-2.653,1.11-2.653l0.844-4.61"/>
			</g>
		</g>
		<g opacity="0.5" clip-path="url(#SVGID_FrontSvgID_30_)">
			<g>
				<defs>
					<rect id="SVGID_FrontSvgID_33_" x="181.301" y="454.61" width="247.531" height="25.586"/>
				</defs>
				<clipPath id="SVGID_FrontSvgID_34_">
					<use xlink:href="#SVGID_FrontSvgID_33_"  overflow="visible"/>
				</clipPath>
				
					<path clip-path="url(#SVGID_FrontSvgID_34_)" fill="none" stroke="#897F76" stroke-width="0.708" stroke-miterlimit="10" stroke-dasharray="1.706,0.853" d="
					M181.645,454.692c0.15,0.625,0.575,2.715,1.155,3.439c0.581,0.726,8.275,5.227,22.211,9.727
					c13.936,4.5,40.354,10.742,57.775,11.758c17.419,1.016,52.691-1.742,78.239-1.452c25.548,0.291,62.422-4.935,72.728-7.258
					c10.306-2.322,14.785-8.991,14.785-8.991"/>
			</g>
		</g>
		<g opacity="0.5" clip-path="url(#SVGID_FrontSvgID_30_)">
			<g>
				<defs>
					<rect id="SVGID_FrontSvgID_35_" x="151.235" y="725.623" width="126.077" height="28.247"/>
				</defs>
				<clipPath id="SVGID_FrontSvgID_36_">
					<use xlink:href="#SVGID_FrontSvgID_35_"  overflow="visible"/>
				</clipPath>
				
					<path clip-path="url(#SVGID_FrontSvgID_36_)" fill="none" stroke="#897F76" stroke-width="0.708" stroke-miterlimit="10" stroke-dasharray="1.706,0.853" d="
					M151.304,748.671c0,0,16.474,3.272,33.738,3.929c17.265,0.656,20.016,2.297,43.072-1.527
					c23.057-3.825,32.237-5.574,35.515-6.994c3.278-1.421,6.774-2.621,8.413-3.715c1.639-1.092,3.606-2.405,3.716-2.841
					c0.109-0.438,1.202-11.866,1.202-11.866"/>
			</g>
		</g>
		<g opacity="0.5" clip-path="url(#SVGID_FrontSvgID_30_)">
			<g>
				<defs>
					<rect id="SVGID_FrontSvgID_37_" x="151.856" y="744.845" width="121.2" height="13.465"/>
				</defs>
				<clipPath id="SVGID_FrontSvgID_38_">
					<use xlink:href="#SVGID_FrontSvgID_37_"  overflow="visible"/>
				</clipPath>
				
					<path clip-path="url(#SVGID_FrontSvgID_38_)" fill="none" stroke="#897F76" stroke-width="0.708" stroke-miterlimit="10" stroke-dasharray="1.706,0.853" d="
					M151.934,753.039c0,0,21.854,4.916,40.648,4.916c18.795,0,33.347-1.312,51.705-5.136c18.359-3.824,24.916-5.683,26.008-6.338
					c1.092-0.655,2.621-1.312,2.621-1.312"/>
			</g>
		</g>
		<g opacity="0.5" clip-path="url(#SVGID_FrontSvgID_30_)">
			<g>
				<defs>
					<rect id="SVGID_FrontSvgID_39_" x="341.147" y="745.524" width="119.133" height="10.086"/>
				</defs>
				<clipPath id="SVGID_FrontSvgID_40_">
					<use xlink:href="#SVGID_FrontSvgID_39_"  overflow="visible"/>
				</clipPath>
				
					<path clip-path="url(#SVGID_FrontSvgID_40_)" fill="none" stroke="#897F76" stroke-width="0.708" stroke-miterlimit="10" stroke-dasharray="1.706,0.853" d="
					M341.396,745.774c0,0,1.646,1.646,4.661,2.193c1.643,0.298,2.813,0.167,2.813,0.167s24.742,3.533,31.46,4.493
					c6.717,0.963,21.525,3.84,42.91,2.058c21.387-1.781,36.994-3.776,36.994-3.776"/>
			</g>
		</g>
		<g opacity="0.5" clip-path="url(#SVGID_FrontSvgID_30_)">
			<g>
				<defs>
					<rect id="SVGID_FrontSvgID_41_" x="339.391" y="739.919" width="121.84" height="10.64"/>
				</defs>
				<clipPath id="SVGID_FrontSvgID_42_">
					<use xlink:href="#SVGID_FrontSvgID_41_"  overflow="visible"/>
				</clipPath>
				
					<path clip-path="url(#SVGID_FrontSvgID_42_)" fill="none" stroke="#897F76" stroke-width="0.708" stroke-miterlimit="10" stroke-dasharray="1.706,0.853" d="
					M339.753,740.017c0,0-0.822,2.879,14.257,4.936c15.08,2.057,34.685,6.718,63.885,4.8c29.203-1.919,42.234-3.584,43.052-4.672"/>
			</g>
		</g>
		<g opacity="0.5" clip-path="url(#SVGID_FrontSvgID_30_)">
			<g>
				<defs>
					<rect id="SVGID_FrontSvgID_43_" x="427.162" y="443.167" width="8.296" height="49.597"/>
				</defs>
				<clipPath id="SVGID_FrontSvgID_44_">
					<use xlink:href="#SVGID_FrontSvgID_43_"  overflow="visible"/>
				</clipPath>
				
					<path clip-path="url(#SVGID_FrontSvgID_44_)" fill="none" stroke="#897F76" stroke-width="0.472" stroke-miterlimit="10" stroke-dasharray="1.706,0.853" d="
					M428.538,443.194c0,0-0.267,2.308-0.558,3.47c-0.293,1.161-0.583,2.613-0.583,3.63c0,1.016,0.147,2.467,0.438,3.339
					c0.289,0.871,1.845,5.023,1.575,5.923s-1.286,2.931-1.286,4.092c0,1.162,0.437,7.84,0.872,9.582
					c0.434,1.742,2.465,9.435,3.338,10.887c0.871,1.452,1.308,3.339,1.452,4.209c0.145,0.872,1.45,4.355,1.45,4.355"/>
			</g>
		</g>
		<g opacity="0.5" clip-path="url(#SVGID_FrontSvgID_30_)">
			<g>
				<defs>
					<rect id="SVGID_FrontSvgID_45_" x="254.186" y="638.44" width="96.414" height="125.462"/>
				</defs>
				<clipPath id="SVGID_FrontSvgID_46_">
					<use xlink:href="#SVGID_FrontSvgID_45_"  overflow="visible"/>
				</clipPath>
				
					<path clip-path="url(#SVGID_FrontSvgID_46_)" fill="none" stroke="#887F76" stroke-width="0.472" stroke-miterlimit="10" stroke-dasharray="1.706,0.853" d="
					M350.364,760.714v-5.329c0-0.642-1.705-3.412-2.133-4.265c-0.426-0.853,0-2.132,0.64-2.985c0.641-0.853,0.213-2.132-0.64-3.198
					c-0.854-1.065-0.64-2.985-0.64-2.985l0.854-1.492c0,0-2.771-9.381-2.984-12.366c-0.215-2.982-4.904-23.239-7.889-35.178
					c-2.985-11.941-5.117-33.473-17.696-45.841c-7.982-7.847-27.078-10.021-36.033-7.248c-8.955,2.771-10.234,14.712-12.366,23.239
					c-2.132,8.527-11.3,54.367-12.153,58.632s-4.904,42.18-4.904,42.18"/>
			</g>
		</g>
		<g opacity="0.35" clip-path="url(#SVGID_FrontSvgID_30_)">
			<g>
				<defs>
					<rect id="SVGID_FrontSvgID_47_" x="239.165" y="48.15" width="137.459" height="24.489"/>
				</defs>
				<clipPath id="SVGID_FrontSvgID_48_">
					<use xlink:href="#SVGID_FrontSvgID_47_"  overflow="visible"/>
				</clipPath>
				
					<path clip-path="url(#SVGID_FrontSvgID_48_)" fill="none" stroke="#00AB5D" stroke-width="0.795" stroke-miterlimit="10" stroke-dasharray="0.683,0.683" d="
					M376.293,51.024c0,0-13.746,20.684-66.809,21.209c-53.552,0.53-69.989-23.86-69.989-23.86"/>
			</g>
		</g>
		<g opacity="0.35" clip-path="url(#SVGID_FrontSvgID_30_)">
			<g>
				<defs>
					<rect id="SVGID_FrontSvgID_49_" x="96.449" y="225.004" width="73.587" height="9.727"/>
				</defs>
				<clipPath id="SVGID_FrontSvgID_50_">
					<use xlink:href="#SVGID_FrontSvgID_49_"  overflow="visible"/>
				</clipPath>
				
					<path clip-path="url(#SVGID_FrontSvgID_50_)" fill="none" stroke="#00AB5D" stroke-width="0.795" stroke-miterlimit="10" stroke-dasharray="0.683,0.683" d="
					M96.555,225.388c0,0,16.858,4.663,38.021,6.815c21.164,2.152,35.46,2.13,35.46,2.13"/>
			</g>
		</g>
		<g opacity="0.35" clip-path="url(#SVGID_FrontSvgID_30_)">
			<g>
				<defs>
					<rect id="SVGID_FrontSvgID_51_" x="96.449" y="228.188" width="73.587" height="9.727"/>
				</defs>
				<clipPath id="SVGID_FrontSvgID_52_">
					<use xlink:href="#SVGID_FrontSvgID_51_"  overflow="visible"/>
				</clipPath>
				
					<path clip-path="url(#SVGID_FrontSvgID_52_)" fill="none" stroke="#00AB5D" stroke-width="0.795" stroke-miterlimit="10" stroke-dasharray="0.683,0.683" d="
					M96.555,228.571c0,0,16.858,4.663,38.021,6.815c21.164,2.153,35.46,2.131,35.46,2.131"/>
			</g>
		</g>
		<g opacity="0.35" clip-path="url(#SVGID_FrontSvgID_30_)">
			<g>
				<defs>
					<rect id="SVGID_FrontSvgID_53_" x="442.802" y="225.004" width="73.588" height="9.727"/>
				</defs>
				<clipPath id="SVGID_FrontSvgID_54_">
					<use xlink:href="#SVGID_FrontSvgID_53_"  overflow="visible"/>
				</clipPath>
				
					<path clip-path="url(#SVGID_FrontSvgID_54_)" fill="none" stroke="#00AB5D" stroke-width="0.795" stroke-miterlimit="10" stroke-dasharray="0.683,0.683" d="
					M516.284,225.388c0,0-16.859,4.663-38.022,6.815s-35.459,2.13-35.459,2.13"/>
			</g>
		</g>
		<g opacity="0.35" clip-path="url(#SVGID_FrontSvgID_30_)">
			<g>
				<defs>
					<rect id="SVGID_FrontSvgID_55_" x="442.802" y="228.188" width="73.588" height="9.727"/>
				</defs>
				<clipPath id="SVGID_FrontSvgID_56_">
					<use xlink:href="#SVGID_FrontSvgID_55_"  overflow="visible"/>
				</clipPath>
				
					<path clip-path="url(#SVGID_FrontSvgID_56_)" fill="none" stroke="#00AB5D" stroke-width="0.795" stroke-miterlimit="10" stroke-dasharray="0.683,0.683" d="
					M516.284,228.571c0,0-16.859,4.663-38.022,6.815c-21.163,2.153-35.459,2.131-35.459,2.131"/>
			</g>
		</g>
		<g opacity="0.35" clip-path="url(#SVGID_FrontSvgID_30_)">
			<g>
				<defs>
					<rect id="SVGID_FrontSvgID_57_" x="438.353" y="92.344" width="25.207" height="137.364"/>
				</defs>
				<clipPath id="SVGID_FrontSvgID_58_">
					<use xlink:href="#SVGID_FrontSvgID_57_"  overflow="visible"/>
				</clipPath>
				<path clip-path="url(#SVGID_FrontSvgID_58_)" fill="none" stroke="#00AB5D" stroke-width="0.795" stroke-miterlimit="10" d="
					M463.162,92.345c0,0,0.037,10.01-1.397,17.901c-1.435,7.891-9.326,36.946-11.119,45.554
					c-1.794,8.609-10.044,54.163-11.12,59.544c-1.076,5.38-0.717,14.348-0.717,14.348"/>
			</g>
		</g>
		<g opacity="0.35" clip-path="url(#SVGID_FrontSvgID_30_)">
			<g>
				<defs>
					<rect id="SVGID_FrontSvgID_59_" x="148.567" y="92.513" width="25.204" height="137.195"/>
				</defs>
				<clipPath id="SVGID_FrontSvgID_60_">
					<use xlink:href="#SVGID_FrontSvgID_59_"  overflow="visible"/>
				</clipPath>
				<path clip-path="url(#SVGID_FrontSvgID_60_)" fill="none" stroke="#00AB5D" stroke-width="0.795" stroke-miterlimit="10" d="
					M148.964,92.514c0,0-0.04,9.841,1.395,17.732c1.435,7.891,9.326,36.946,11.119,45.554c1.794,8.609,10.044,54.163,11.12,59.544
					c1.076,5.38,0.717,14.348,0.717,14.348"/>
			</g>
		</g>
		<g opacity="0.35" clip-path="url(#SVGID_FrontSvgID_30_)">
			<g>
				<defs>
					<rect id="SVGID_FrontSvgID_61_" x="237.331" y="49.848" width="141.431" height="25.574"/>
				</defs>
				<clipPath id="SVGID_FrontSvgID_62_">
					<use xlink:href="#SVGID_FrontSvgID_61_"  overflow="visible"/>
				</clipPath>
				
					<path clip-path="url(#SVGID_FrontSvgID_62_)" fill="none" stroke="#00AB5D" stroke-width="0.795" stroke-miterlimit="10" stroke-dasharray="0.683,0.683" d="
					M378.439,52.39c0,0-15.925,22.101-68.987,22.626c-53.553,0.531-71.798-24.936-71.798-24.936"/>
			</g>
		</g>
	</g>
</g>
</svg>
