<?xml version="1.0" encoding="utf-8"?>
<!-- Generator: Adobe Illustrator 16.0.0, SVG Export Plug-In . SVG Version: 6.00 Build 0)  -->
<!DOCTYPE svg PUBLIC "-//W3C//DTD SVG 1.1//EN" "http://www.w3.org/Graphics/SVG/1.1/DTD/svg11.dtd">
<svg version="1.1" id="Layer_1" xmlns="http://www.w3.org/2000/svg" xmlns:xlink="http://www.w3.org/1999/xlink" x="0px" y="0px"
	 width="612px" height="792px" viewBox="0 0 475 792" enable-background="new 0 0 612 792" xml:space="preserve">
<g>
	<defs>
		<rect id="SVGID_BackSvgID_1_" width="612" height="792"/>
	</defs>
	<clipPath id="SVGID_BackSvgID_2_">
		<use xlink:href="#SVGID_BackSvgID_1_"  overflow="visible"/>
	</clipPath>
	<g clip-path="url(#SVGID_BackSvgID_2_)">
		<defs>
			<rect id="SVGID_BackSvgID_3_" width="612" height="792"/>
		</defs>
		<clipPath id="SVGID_BackSvgID_4_">
			<use xlink:href="#SVGID_BackSvgID_3_"  overflow="visible"/>
		</clipPath>
     <g id="MESH_BODY">
           <g id="BODY">
      		<path clip-path="url(#SVGID_BackSvgID_8_)" fill="#FDBB2D" d="M438.805,222.868c-38.521,9.505-82.372,14.894-128.914,14.894
			c-49.699,0-96.315-6.154-136.663-16.896c0.018,0.314,0.037,0.628,0.051,0.94c0.001,0.037,0.003,0.072,0.004,0.108
			c0.018,0.408,0.033,0.812,0.045,1.21l0.003,0.107c0.012,0.414,0.022,0.82,0.028,1.213v0.021c0.007,0.412,0.011,0.81,0.013,1.191
			c0.021-0.054,0.034-0.085,0.034-0.085s4.044,21.568,3.369,30.33c-0.673,8.763,4.045,63.358,7.415,80.208
			c3.37,16.85,7.414,59.987,4.044,78.186c-1.121,6.055-2.765,15.476-4.534,26.109c0.845-0.563,1.85-0.904,2.966-0.904
			c0.19,0,0.379,0.012,0.567,0.032c6.46-1.919,13.306-1.317,20.1-1.699c11.101-0.624,21.921-1.862,33.078-1.666
			c11.643,0.205,23.286,0.697,34.922,0c10.611-0.637,20.68-2.527,31.316-1.51c0.796-0.231,1.681-0.297,2.646-0.128
			c1.143,0.2,2.332,0.332,3.54,0.422c0.735-0.39,1.62-0.621,2.665-0.618c3.606,0.009,7.262,0.154,10.926,0.28
			c2.262-0.138,4.522-0.116,6.783-0.058c3.241-0.158,6.482-0.16,9.737-0.061c0.323-0.025,0.647-0.038,0.97-0.068
			c7.856-0.739,15.872-1.323,23.71-0.202c2.728-0.096,5.453-0.165,8.176-0.19c6.058-0.057,12.255,0.087,18.313,0.961
			c0.38-0.091,0.786-0.147,1.219-0.162c11.063-0.383,21.319,3.718,32.044,5.667c-1.102-10.479-2.017-19.61-3.238-26.205
			c-3.37-18.198,0.673-61.336,4.044-78.186c3.37-16.85,8.089-71.445,7.415-80.208c-0.58-7.537,2.33-24.541,3.154-29.149
			C438.747,225.64,438.758,224.293,438.805,222.868z"/>

    </g>

       <g id="BACK_MESH">
         		<path clip-path="url(#SVGID_BackSvgID_10_)" fill="#00AB5D" d="M450.646,155.8c1.793-8.608,9.685-37.663,11.119-45.554
			c1.013-5.569,1.311-13.634,1.397-17.901c-0.789-0.548-1.278-0.903-1.278-0.903s-18.198-6.066-43.811-16.177
			c-14.854-5.863-28.105-14.439-37.286-21.141c-18.307-4.055-44.667-8.319-74.594-8.319c-32.396,0-59.79,5.545-77.422,10.339
			c-8.98,6.337-21.073,13.833-34.472,19.121c-25.612,10.111-43.81,16.177-43.81,16.177s-0.596,0.432-1.525,1.072v0.004
			c0.011,0.516,0.026,1.085,0.043,1.694c0.002,0.049,0.003,0.098,0.005,0.148c0.008,0.285,0.018,0.577,0.028,0.878
			c0.001,0.018,0.001,0.035,0.001,0.052c0.012,0.315,0.024,0.64,0.037,0.97c0.003,0.065,0.005,0.131,0.007,0.196
			c0.011,0.266,0.023,0.537,0.035,0.813c0.004,0.084,0.007,0.167,0.011,0.251c0.016,0.336,0.032,0.677,0.05,1.023
			c0.002,0.044,0.005,0.089,0.007,0.133c0.016,0.3,0.033,0.603,0.05,0.907c0.006,0.107,0.012,0.215,0.019,0.322
			c0.017,0.29,0.035,0.581,0.055,0.874c0.004,0.067,0.008,0.135,0.012,0.202c0.024,0.354,0.049,0.71,0.075,1.066
			c0.007,0.096,0.015,0.193,0.022,0.289c0.021,0.273,0.043,0.546,0.065,0.819c0.009,0.108,0.018,0.217,0.028,0.325
			c0.03,0.356,0.061,0.712,0.095,1.066c0.004,0.039,0.008,0.078,0.012,0.118c0.03,0.318,0.063,0.635,0.096,0.949
			c0.011,0.106,0.023,0.212,0.034,0.318c0.031,0.28,0.062,0.557,0.096,0.831c0.009,0.079,0.018,0.159,0.027,0.236
			c0.042,0.342,0.086,0.678,0.131,1.01c0.012,0.081,0.023,0.16,0.035,0.24c0.037,0.262,0.075,0.521,0.115,0.775
			c0.014,0.093,0.028,0.186,0.043,0.277c0.051,0.322,0.105,0.639,0.16,0.947c1.435,7.891,9.327,36.946,11.12,45.554
			c1.793,8.609,10.043,54.163,11.12,59.544c0.073,0.369,0.14,0.757,0.201,1.156c0.005,0.033,0.01,0.067,0.015,0.1
			c0.056,0.374,0.106,0.758,0.151,1.149c0.005,0.042,0.01,0.084,0.015,0.126c0.045,0.397,0.085,0.8,0.121,1.209
			c0.002,0.029,0.005,0.059,0.008,0.089c0.037,0.435,0.07,0.874,0.098,1.314c0.001,0.006,0.001,0.013,0.001,0.019
			c0.008,0.12,0.013,0.239,0.02,0.36c40.347,10.742,86.964,16.896,136.662,16.896c46.542,0,90.393-5.389,128.914-14.894
			c0.083-2.538,0.281-5.327,0.721-7.524C440.602,209.963,448.852,164.409,450.646,155.8"/>

       </g>
     </g>   
 <g id="SHORT_MASK">
       <g id="BOTTOM">
		<path clip-path="url(#SVGID_BackSvgID_12_)" fill="#BF2A43" d="M345.375,740.317c0,2.236-0.639,7.029,0.639,10.863
			c0.492,1.475,1.172,3.516,1.824,5.47c6.14,1.896,17.735,4.758,35.133,8.585c25.067,5.516,66.177,2.005,70.188,1.002
			c4.011-1.002,9.525-4.512,9.525-4.512s2.328-12.574,4.48-26.578H343.727C344.737,737.806,345.375,739.732,345.375,740.317"/>
		<path clip-path="url(#SVGID_BackSvgID_12_)" fill="#BF2A43" d="M150.856,752.2c0,0-0.501,7.521-0.501,10.529
			c0,3.007,3.009,6.016,3.009,6.016s10.527,5.014,39.103,6.016c24.072,0.845,54.898-6.492,64.019-8.826
			c1.101-4.052,3.571-12.508,5.497-14.435c2.556-2.556,3.515-7.988,3.515-7.988s-0.242-4.129,0.966-8.364H149.196
			C150.154,743.914,150.856,752.2,150.856,752.2"/>
		<path clip-path="url(#SVGID_BackSvgID_12_)" fill="#BF2A43" d="M291.059,670.983c1.917-10.224,7.987-28.116,7.987-28.116
			s5.113-1.278,7.989-1.917c2.875-0.64,8.946,0.639,8.946,0.639s3.194,10.225,3.515,15.656c0.319,5.432,8.307,43.135,12.46,51.121
			c1.836,3.528,4.668,9.738,7.258,15.765h129.55c1.016-7.518,1.793-14.613,1.942-19.558c0.457-15.109,3.008-36.097,1.505-56.149
			c-1.202-16.006-7.434-37.87-7.976-42.121c-0.603-4.738-6.534-40.94-6.534-40.94s-19.582-63.326-20.584-66.333
			c-1.003-3.008-0.503-19.051-1.003-21.558c-0.502-2.506-3.509-9.525-3.509-12.033c0-2.507-0.502-13.033-1.004-15.54
			c-0.501-2.507-2.005-8.522-2.005-8.522s-13.535-4.514-30.079-7.021s-157.417,1.002-173.962,1.002
			c-16.544,0-43.114,4.012-43.114,4.012v13.536c0,2.006-1.002,12.032-1.002,14.037s-2.006,3.51-2.006,6.518
			s-3.009,8.021-3.009,12.533c0,4.511-1.504,12.534-2.004,15.542c-0.502,3.008-2.507,15.54-2.507,19.551
			c0,4.012-14.038,47.627-16.543,54.646s-9.024,52.139-12.033,68.181c-3.008,16.043,1.002,65.676,3.009,72.193
			c0.484,1.574,0.998,4.501,1.498,8.025h123.052C277.348,708.609,289.584,678.845,291.059,670.983"/>
	</g>
       <g id="BOTTOM_STRIPS">
		<path clip-path="url(#SVGID_BackSvgID_14_)" fill="#00AB5D" d="M339.213,724.131c1.74,4.047,3.367,8.003,4.514,11.017h123.438
			c0.56-3.641,1.107-7.378,1.599-11.017H339.213z"/>
		<path clip-path="url(#SVGID_BackSvgID_14_)" fill="#00AB5D" d="M270.896,724.131H147.844c0.474,3.343,0.937,7.222,1.352,11.017h117.268
			c0.178-0.621,0.386-1.245,0.631-1.859C267.539,732.18,268.956,728.798,270.896,724.131"/>
	</g>


 </g>   
 <g id="CUSTOM"></g> 
    <g id="SLEEVES">
		<path clip-path="url(#SVGID_BackSvgID_4_)" fill="#FDBB2D" d="M455.249,189.936c-0.005,0.021-0.008,0.035-0.008,0.035
			S455.244,189.955,455.249,189.936"/>
		<path clip-path="url(#SVGID_BackSvgID_4_)" fill="#004D86" d="M173.359,224.465v-0.021c-0.006-0.393-0.016-0.799-0.028-1.212l-0.003-0.107
			c-0.011-0.398-0.027-0.803-0.045-1.211c-0.001-0.036-0.003-0.072-0.004-0.107c-0.02-0.431-0.043-0.866-0.07-1.301
			c-0.001-0.006-0.001-0.012-0.001-0.019c-0.029-0.439-0.061-0.878-0.099-1.314c-0.002-0.03-0.005-0.059-0.007-0.089
			c-0.036-0.408-0.076-0.812-0.121-1.208c-0.005-0.043-0.01-0.084-0.015-0.126c-0.045-0.392-0.096-0.776-0.151-1.149
			c-0.006-0.033-0.01-0.068-0.016-0.101c-0.06-0.399-0.127-0.786-0.201-1.156c-1.076-5.38-9.326-50.935-11.119-59.544
			c-1.794-8.608-9.685-37.663-11.12-45.554c-0.056-0.307-0.109-0.625-0.161-0.947c-0.014-0.091-0.028-0.184-0.043-0.276
			c-0.039-0.255-0.078-0.514-0.115-0.776c-0.011-0.08-0.023-0.159-0.034-0.24c-0.045-0.332-0.089-0.668-0.131-1.009
			c-0.01-0.078-0.018-0.158-0.028-0.236c-0.033-0.275-0.065-0.552-0.095-0.831c-0.012-0.106-0.023-0.212-0.035-0.318
			c-0.033-0.315-0.065-0.631-0.096-0.95c-0.004-0.039-0.008-0.078-0.012-0.118c-0.033-0.354-0.064-0.709-0.095-1.065
			c-0.009-0.109-0.018-0.217-0.027-0.325c-0.023-0.273-0.044-0.546-0.065-0.819c-0.007-0.097-0.015-0.193-0.022-0.289
			c-0.026-0.357-0.052-0.712-0.075-1.066c-0.005-0.068-0.008-0.135-0.013-0.203c-0.019-0.293-0.037-0.584-0.055-0.874
			c-0.006-0.107-0.012-0.214-0.019-0.321c-0.017-0.305-0.034-0.608-0.049-0.907c-0.002-0.044-0.005-0.089-0.007-0.133
			c-0.018-0.347-0.034-0.687-0.05-1.023c-0.004-0.085-0.007-0.168-0.011-0.251c-0.012-0.275-0.024-0.546-0.034-0.812
			c-0.003-0.066-0.006-0.131-0.009-0.196c-0.012-0.331-0.025-0.655-0.036-0.97c0-0.018-0.001-0.035-0.001-0.053
			c-0.011-0.301-0.02-0.593-0.029-0.877c-0.001-0.05-0.003-0.1-0.004-0.149c-0.018-0.609-0.032-1.177-0.043-1.693
			c0-0.001,0-0.003-0.001-0.005c-2.381,1.643-7.023,4.699-9.933,5.668c-4.044,1.348-26.961,18.873-33.701,42.463
			c-6.74,23.591-8.088,81.556-8.088,81.556l-2.022,10.11l-2.022,6.067c0,0,23.591,6.066,43.811,7.414
			c20.221,1.348,33.027,1.348,33.027,1.348s1.347-1.348,0.674-5.392c-0.674-4.045-1.349-5.393-0.674-7.415
			c0.63-1.89,3.026-7.901,3.336-8.677C173.37,225.276,173.366,224.877,173.359,224.465"/>
		<path clip-path="url(#SVGID_BackSvgID_4_)" fill="#004D86" d="M517.153,232.311l-2.022-10.11c0,0-1.348-57.965-8.088-81.556
			c-6.74-23.59-29.657-41.115-33.701-42.463c-3.01-1.003-7.882-4.244-10.18-5.837c-0.087,4.268-0.385,12.332-1.397,17.901
			c-1.435,7.891-9.326,36.946-11.119,45.554c-1.794,8.609-10.044,54.163-11.12,59.544c-0.686,3.43-0.789,8.316-0.773,11.408
			c0.135-0.748,0.216-1.181,0.216-1.181s2.695,6.74,3.369,8.762c0.675,2.022,0,3.37-0.674,7.415
			c-0.674,4.043,0.674,5.392,0.674,5.392s12.807,0,33.027-1.349c20.221-1.348,43.81-7.414,43.81-7.414L517.153,232.311z"/>
	</g>
    </g>
	<g id="COLLAR" clip-path="url(#SVGID_BackSvgID_2_)">
		<defs>
			<rect id="SVGID_BackSvgID_5_" width="612" height="792"/>
		</defs>
		<clipPath id="SVGID_BackSvgID_6_">
			<use xlink:href="#SVGID_BackSvgID_5_"  overflow="visible"/>
		</clipPath>
		<path clip-path="url(#SVGID_BackSvgID_6_)" fill="#FDBB2D" d="M380.787,54.124c-0.813-0.592-1.604-1.175-2.348-1.734
			c-5.368-4.028-9.001-7.135-10.244-8.129c-3.369-2.696-3.369-4.718-6.739-6.74s-4.719-8.088-11.459-11.459
			c-4.29-2.144-23.595-2.924-37.065-3.208l-0.005-0.162c0,0-2.649,0.001-6.74,0.051c-4.09-0.05-6.74-0.051-6.74-0.051l-0.005,0.162
			c-13.471,0.284-32.776,1.064-37.066,3.208c-6.74,3.371-8.088,9.437-11.458,11.459s-3.37,4.044-6.74,6.74
			c-0.99,0.792-3.5,2.926-7.188,5.795c-2.302,1.789-5.072,3.869-8.217,6.089c17.632-4.794,45.026-10.34,77.421-10.34
			C336.12,45.805,362.48,50.069,380.787,54.124"/>
	</g>
	<g clip-path="url(#SVGID_BackSvgID_2_)">
		<defs>
			<rect id="SVGID_BackSvgID_7_" width="612" height="792"/>
		</defs>
		<clipPath id="SVGID_BackSvgID_8_">
			<use xlink:href="#SVGID_BackSvgID_7_"  overflow="visible"/>
		</clipPath>
	</g>
	<g clip-path="url(#SVGID_BackSvgID_2_)">
		<defs>
			<rect id="SVGID_BackSvgID_9_" width="612" height="792"/>
		</defs>
		<clipPath id="SVGID_BackSvgID_10_">
			<use xlink:href="#SVGID_BackSvgID_9_"  overflow="visible"/>
		</clipPath>
	</g>
	<g clip-path="url(#SVGID_BackSvgID_2_)">
		<defs>
			<rect id="SVGID_BackSvgID_11_" width="612" height="792"/>
		</defs>
		<clipPath id="SVGID_BackSvgID_12_">
			<use xlink:href="#SVGID_BackSvgID_11_"  overflow="visible"/>
		</clipPath>
    </g>
	<g clip-path="url(#SVGID_BackSvgID_2_)">
		<defs>
			<rect id="SVGID_BackSvgID_13_" width="612" height="792"/>
		</defs>
		<clipPath id="SVGID_BackSvgID_14_">
			<use xlink:href="#SVGID_BackSvgID_13_"  overflow="visible"/>
		</clipPath>
    </g>
	<g id="CROTCH" clip-path="url(#SVGID_BackSvgID_2_)">
		<defs>
			<rect id="SVGID_BackSvgID_15_" width="612" height="792"/>
		</defs>
		<clipPath id="SVGID_BackSvgID_16_">
			<use xlink:href="#SVGID_BackSvgID_15_"  overflow="visible"/>
		</clipPath>
    <g></g>
		<path clip-path="url(#SVGID_BackSvgID_16_)" fill="#FDBB2D" d="M345.375,740.317c0-2.236-9.266-23.963-13.419-31.951
			c-4.154-7.986-12.142-45.689-12.461-51.121c-0.32-5.432-3.515-15.656-3.515-15.656s-6.071-1.278-8.946-0.639
			c-2.876,0.639-7.988,1.917-7.988,1.917s-6.07,17.893-7.987,28.116c-1.917,10.225-22.047,57.512-23.964,62.305
			c-1.917,4.793-1.597,10.225-1.597,10.225s-0.959,5.432-3.515,7.987c-1.926,1.927-4.396,10.383-5.497,14.435
			c1.707-0.437,2.657-0.699,2.657-0.699s3.009-0.501,5.516-1.004c2.507-0.502,3.509-9.523,3.509-9.523s2.004-3.009,2.506-5.015
			c0.501-2.006,1.003-9.526,1.003-9.526s18.55-46.12,22.56-59.156c4.011-13.033,9.024-36.096,9.024-36.096l8.021-1.002
			c0,0,2.508,6.519,2.508,13.537s12.03,48.126,15.038,56.147c3.009,8.021,11.532,28.574,11.532,28.574s0.5,11.031,2.507,12.534
			c0.612,0.46,2.265,1.109,4.972,1.944c-0.652-1.954-1.332-3.995-1.824-5.47C344.736,747.347,345.375,742.554,345.375,740.317"/>
	</g>
	<g clip-path="url(#SVGID_BackSvgID_2_)">
		<defs>
			<rect id="SVGID_BackSvgID_17_" width="612" height="792"/>
		</defs>
		<clipPath id="SVGID_BackSvgID_18_">
			<use xlink:href="#SVGID_BackSvgID_17_"  overflow="visible"/>
		</clipPath>
		<path clip-path="url(#SVGID_BackSvgID_18_)" d="M149.257,99.904c0.017,0.29,0.036,0.581,0.055,0.874
			C149.293,100.485,149.274,100.194,149.257,99.904"/>
		<path clip-path="url(#SVGID_BackSvgID_18_)" d="M149.188,98.676c0.016,0.299,0.033,0.602,0.05,0.907
			C149.222,99.278,149.205,98.975,149.188,98.676"/>
		<path clip-path="url(#SVGID_BackSvgID_18_)" d="M173.359,224.444v0.021V224.444z"/>
		<path clip-path="url(#SVGID_BackSvgID_18_)" d="M149.132,97.52c0.016,0.336,0.032,0.677,0.05,1.023
			C149.164,98.196,149.148,97.855,149.132,97.52"/>
		<path clip-path="url(#SVGID_BackSvgID_18_)" d="M149.012,94.36c0.009,0.285,0.018,0.577,0.028,0.878
			C149.03,94.938,149.021,94.646,149.012,94.36"/>
		<path clip-path="url(#SVGID_BackSvgID_18_)" d="M149.086,96.457c0.01,0.267,0.022,0.537,0.034,0.812
			C149.108,96.994,149.096,96.723,149.086,96.457"/>
		<path clip-path="url(#SVGID_BackSvgID_18_)" d="M148.965,92.519c0.011,0.516,0.025,1.083,0.043,1.693
			C148.99,93.603,148.976,93.034,148.965,92.519"/>
		<path clip-path="url(#SVGID_BackSvgID_18_)" d="M173.372,225.656"/>
		<path clip-path="url(#SVGID_BackSvgID_18_)" d="M149.042,95.291c0.011,0.315,0.023,0.64,0.036,0.97
			C149.065,95.931,149.053,95.605,149.042,95.291"/>
		<path clip-path="url(#SVGID_BackSvgID_18_)" d="M149.325,100.98c0.023,0.354,0.049,0.709,0.075,1.066
			C149.374,101.69,149.348,101.334,149.325,100.98"/>
		<path clip-path="url(#SVGID_BackSvgID_18_)" d="M149.752,105.931c0.03,0.279,0.062,0.556,0.095,0.832
			C149.814,106.488,149.782,106.21,149.752,105.931"/>
		<path clip-path="url(#SVGID_BackSvgID_18_)" d="M150.04,108.247c0.037,0.262,0.076,0.521,0.115,0.775
			C150.116,108.768,150.077,108.509,150.04,108.247"/>
		<path clip-path="url(#SVGID_BackSvgID_18_)" d="M149.875,106.998c0.042,0.341,0.085,0.678,0.131,1.01
			C149.96,107.676,149.917,107.339,149.875,106.998"/>
		<path clip-path="url(#SVGID_BackSvgID_18_)" d="M173.102,219.084c0.002,0.03,0.005,0.059,0.008,0.089
			C173.106,219.143,173.104,219.114,173.102,219.084"/>
		<path clip-path="url(#SVGID_BackSvgID_18_)" d="M172.966,217.75c0.005,0.042,0.01,0.083,0.015,0.126
			C172.976,217.833,172.971,217.792,172.966,217.75"/>
		<path clip-path="url(#SVGID_BackSvgID_18_)" d="M150.198,109.299c0.052,0.322,0.105,0.639,0.161,0.947
			C150.303,109.938,150.25,109.621,150.198,109.299"/>
		<path clip-path="url(#SVGID_BackSvgID_18_)" d="M149.621,104.663c0.031,0.318,0.063,0.635,0.096,0.95
			C149.684,105.298,149.652,104.981,149.621,104.663"/>
		<path clip-path="url(#SVGID_BackSvgID_18_)" d="M149.422,102.335c0.021,0.273,0.042,0.546,0.065,0.819
			C149.464,102.881,149.443,102.608,149.422,102.335"/>
		<path clip-path="url(#SVGID_BackSvgID_18_)" d="M172.799,216.5c0.005,0.033,0.01,0.067,0.015,0.101
			C172.809,216.567,172.804,216.534,172.799,216.5"/>
		<path clip-path="url(#SVGID_BackSvgID_18_)" d="M173.279,221.807c0.001,0.036,0.003,0.071,0.004,0.107
			C173.282,221.877,173.28,221.843,173.279,221.807"/>
		<path clip-path="url(#SVGID_BackSvgID_18_)" d="M149.514,103.479c0.03,0.356,0.062,0.711,0.095,1.065
			C149.576,104.191,149.544,103.835,149.514,103.479"/>
		<path clip-path="url(#SVGID_BackSvgID_18_)" d="M173.208,220.487c0,0.006,0,0.013,0.001,0.019
			C173.208,220.5,173.208,220.493,173.208,220.487"/>
		<path clip-path="url(#SVGID_BackSvgID_18_)" d="M173.328,223.125l0.003,0.107L173.328,223.125z"/>
		<path clip-path="url(#SVGID_BackSvgID_18_)" d="M173.208,220.487c-0.028-0.44-0.061-0.879-0.098-1.314
			C173.146,219.608,173.18,220.048,173.208,220.487"/>
		<path clip-path="url(#SVGID_BackSvgID_18_)" d="M173.372,225.656c-0.002-0.381-0.006-0.779-0.013-1.191
			C173.366,224.876,173.37,225.275,173.372,225.656"/>
		<path clip-path="url(#SVGID_BackSvgID_18_)" d="M172.799,216.5c-0.061-0.399-0.127-0.787-0.201-1.156
			C172.672,215.713,172.738,216.101,172.799,216.5"/>
		<path clip-path="url(#SVGID_BackSvgID_18_)" d="M173.359,224.444c-0.006-0.394-0.016-0.799-0.028-1.213
			C173.343,223.646,173.353,224.05,173.359,224.444"/>
		<path clip-path="url(#SVGID_BackSvgID_18_)" d="M173.279,221.807c-0.02-0.431-0.042-0.866-0.07-1.301
			C173.237,220.94,173.259,221.375,173.279,221.807"/>
		<path clip-path="url(#SVGID_BackSvgID_18_)" d="M173.328,223.125c-0.012-0.398-0.027-0.802-0.045-1.21
			C173.301,222.323,173.316,222.728,173.328,223.125"/>
		<path clip-path="url(#SVGID_BackSvgID_18_)" d="M172.966,217.75c-0.045-0.392-0.096-0.775-0.151-1.149
			C172.87,216.975,172.921,217.357,172.966,217.75"/>
		<path clip-path="url(#SVGID_BackSvgID_18_)" d="M173.102,219.084c-0.036-0.408-0.076-0.812-0.121-1.208
			C173.025,218.272,173.065,218.676,173.102,219.084"/>
		<path clip-path="url(#SVGID_BackSvgID_18_)" d="M149.752,105.931c-0.012-0.106-0.023-0.212-0.035-0.318
			C149.729,105.72,149.74,105.825,149.752,105.931"/>
		<path clip-path="url(#SVGID_BackSvgID_18_)" d="M149.042,95.291c0-0.018-0.001-0.035-0.001-0.052
			C149.041,95.255,149.042,95.272,149.042,95.291"/>
		<path clip-path="url(#SVGID_BackSvgID_18_)" d="M149.086,96.457c-0.003-0.065-0.006-0.131-0.008-0.196
			C149.081,96.326,149.083,96.392,149.086,96.457"/>
		<path clip-path="url(#SVGID_BackSvgID_18_)" d="M149.188,98.676c-0.002-0.044-0.005-0.089-0.007-0.133
			C149.184,98.587,149.187,98.632,149.188,98.676"/>
		<path clip-path="url(#SVGID_BackSvgID_18_)" d="M149.132,97.52c-0.004-0.084-0.007-0.167-0.011-0.251
			C149.125,97.353,149.128,97.436,149.132,97.52"/>
		<polyline clip-path="url(#SVGID_BackSvgID_18_)" points="148.964,92.514 148.964,92.519 148.964,92.514 		"/>
		<path clip-path="url(#SVGID_BackSvgID_18_)" d="M149.012,94.36c-0.001-0.05-0.003-0.099-0.004-0.148
			C149.009,94.261,149.011,94.311,149.012,94.36"/>
		<path clip-path="url(#SVGID_BackSvgID_18_)" d="M150.198,109.299c-0.015-0.091-0.029-0.184-0.043-0.277
			C150.169,109.115,150.183,109.208,150.198,109.299"/>
		<path clip-path="url(#SVGID_BackSvgID_18_)" d="M149.621,104.663c-0.004-0.04-0.008-0.079-0.012-0.118
			C149.613,104.584,149.617,104.623,149.621,104.663"/>
		<path clip-path="url(#SVGID_BackSvgID_18_)" d="M149.875,106.998c-0.01-0.078-0.019-0.157-0.028-0.235
			C149.856,106.841,149.865,106.92,149.875,106.998"/>
		<path clip-path="url(#SVGID_BackSvgID_18_)" d="M150.04,108.247c-0.011-0.08-0.023-0.159-0.034-0.24
			C150.017,108.088,150.029,108.167,150.04,108.247"/>
		<path clip-path="url(#SVGID_BackSvgID_18_)" d="M149.422,102.335c-0.007-0.096-0.015-0.193-0.022-0.289
			C149.407,102.143,149.415,102.238,149.422,102.335"/>
		<path clip-path="url(#SVGID_BackSvgID_18_)" d="M149.514,103.479c-0.009-0.108-0.019-0.217-0.027-0.325
			C149.495,103.264,149.505,103.372,149.514,103.479"/>
		<path clip-path="url(#SVGID_BackSvgID_18_)" d="M149.325,100.98c-0.004-0.067-0.008-0.135-0.013-0.203
			C149.317,100.846,149.321,100.913,149.325,100.98"/>
		<path clip-path="url(#SVGID_BackSvgID_18_)" d="M149.257,99.904c-0.006-0.107-0.013-0.215-0.019-0.322
			C149.244,99.689,149.251,99.796,149.257,99.904"/>
		<g opacity="0.03" clip-path="url(#SVGID_BackSvgID_18_)">
			<g>
				<defs>
					<rect id="SVGID_BackSvgID_19_" x="106.636" y="44.376" width="397.408" height="730.396"/>
				</defs>
				<clipPath id="SVGID_BackSvgID_20_">
					<use xlink:href="#SVGID_BackSvgID_19_"  overflow="visible"/>
				</clipPath>
				<path clip-path="url(#SVGID_BackSvgID_20_)" d="M249.406,44.376c-1.855,2.102-2.812,4.331-4.402,5.295
					c-2.402,1.458-2.395,2.903-4.795,4.843c-2.399,1.939-17.271,15.022-35.545,22.34c-18.274,7.317-31.261,11.718-31.261,11.718
					s-0.349,0.256-0.912,0.65c0.078,3.05,0.32,8.815,1.063,12.792c1.054,5.636,6.797,26.378,8.11,32.526
					c1.312,6.148,7.371,38.683,8.159,42.525c0.503,2.45,0.594,5.942,0.593,8.153c0.606,3.291,2.747,15.436,2.359,20.826
					c-0.451,6.267,3.114,45.278,5.583,57.311c2.469,12.034,6.579,47.512,4.235,60.533c-2.345,13.021-7.058,43.049-10.395,58.03
					c-3.262,14.647-1.316,26.025-1.316,26.025s-1.918,1.938-1.909,3.864c0.01,1.928,0.995,6.259,0.995,6.259l0.017,3.373
					c0,0,0.249,1.774,2.903,3.729l2.83-1.063c8.909-7.75,7.447-1.777,10.862-14.968c3.414-13.191,4.337-27.611,4.337-27.611
					s0.926-13.924,3.614-23.133c2.689-9.21,0.216-6.713,5.403-13.201c0.861-1.076,1.465-1.467,1.905-1.467
					c0.585,0,0.88,0.69,1.105,1.379c0.223,0.689,0.376,1.378,0.673,1.378c0.532,0,1.528-2.199,4.225-10.525
					c6.855-21.161,10.04-30.622,5.766-40.294c-4.273-9.673-16.539-27.26-16.854-40.68c-0.315-13.421,4.098-25.87,2.328-31.826
					c-1.769-5.957-4.542-13.897-4.542-13.897s-10.231-8.152-9.758-12.877c0.474-4.724,2.998-47.24-1.254-52.687
					c-4.252-5.447-18.661-3.884-19.705-14.07c-1.045-10.186-12.025-19.079,2.371-23.127c7.284-2.049,10.883-2.679,13.887-2.679
					c2.933,0.001,5.298,0.601,9.966,1.07c9.45,0.947,6.463,0.216,19.889,0.896c2.131,0.108,4.229,0.153,6.253,0.153
					c10.728,0,19.342-1.274,19.342-1.274s-0.951,0.127-2.306,0.127c-3.731,0-10.524-0.972-8.919-8.274
					c2.188-9.953,5.437-6.241,8.386-13.215c2.948-6.974,4.664-11.705,4.641-16.428c-0.024-4.722-0.271-4.472-0.038-7.705
					c0.06-0.841,0.458-1.937,1.011-3.098c-6.918-2.833-11.12-6.093-11.025-6.994c0.119-1.117,1.55-2.863,3.106-4.366L249.406,44.376
					"/>
				<path clip-path="url(#SVGID_BackSvgID_20_)" d="M498.829,137.775c0,0-40.332,54.239-42.07,57.021c-1.739,2.782-9.04,13.908-10.778,18.08
					c-1.739,4.172-4.173,14.255-4.173,14.255s12.169-17.384,18.775-27.467s20.861-24.339,27.815-30.945
					c6.953-6.606,15.646-15.993,15.646-17.384c0-0.099-0.058-0.145-0.166-0.145c-1.412,0-11.406,7.918-12.698,9.533
					c-1.391,1.738-26.772,29.553-26.772,29.553s28.163-35.464,30.944-41.375C498.134,142.99,498.829,137.775,498.829,137.775"/>
				<path clip-path="url(#SVGID_BackSvgID_20_)" d="M496.047,129.431c0,0-9.388,13.56-11.821,17.037c-2.434,3.476-15.298,14.255-15.298,14.255
					s7.997-2.434,15.646-9.735C492.223,143.686,496.047,129.431,496.047,129.431"/>
				<path clip-path="url(#SVGID_BackSvgID_20_)" d="M108.027,148.206c0,0-5.563,11.821,5.563,27.815
					c11.126,15.994,39.984,27.468,44.504,30.944c4.52,3.477,11.822,4.868,11.822,4.868s-15.994-17.732-24.686-22.6
					c-8.692-4.867-25.034-18.079-28.858-25.033C112.547,157.246,108.027,148.206,108.027,148.206"/>
				<path clip-path="url(#SVGID_BackSvgID_20_)" d="M113.59,201.054c0,0,4.52,10.083,20.861,16.689c7.963,3.219,15.18,4.044,20.491,4.044
					c5.587,0,9.063-0.915,9.063-0.915s-18.427-3.477-28.163-6.258C126.107,211.832,113.59,201.054,113.59,201.054"/>
				<path clip-path="url(#SVGID_BackSvgID_20_)" d="M125.881,154.719c-2.749,0-4.642,1.136-4.642,1.136s5.911,4.867,9.735,11.473
					c3.824,6.606,9.387,6.259,17.385,10.083c7.727,3.696,9.935,12.909,10.075,13.526c-0.16-0.713-3.277-14.313-9.032-17.698
					c-5.911-3.477-7.997-6.258-14.604-13.908C131.639,155.673,128.401,154.719,125.881,154.719"/>
				<path clip-path="url(#SVGID_BackSvgID_20_)" d="M394.263,434.116H376.37l1.087,30.321c0,0-2.004,24.063,1.003,26.569
					c3.01,2.507,28.075,13.536,30.081,19.552c2.006,6.017-1.504,18.55-2.006,21.057c-0.502,2.506,18.047,17.045,15.541,20.053
					c-2.507,3.009,15.04,14.037,10.528,19.553c-4.511,5.514,2.507,32.588,6.016,42.112c3.51,9.523,10.025,19.049,6.518,29.075
					c-3.51,10.027,2.505,35.594,0,48.629c-2.508,13.035-2.006,22.561-7.521,31.083c-5.513,8.522-11.029,22.56-10.025,25.567
					c1.003,3.008,3.009,7.019,4.513,10.527c1.504,3.51,6.014,9.025,6.014,9.025s12.033,0.001,15.041-1.003
					c3.009-1.003,9.525-4.512,9.525-4.512s8.524-50.136,9.023-66.678c0.503-16.543,2.508-49.631-1.503-63.167
					c-4.011-13.537-7.018-32.086-9.022-45.622c-2.005-13.535-4.011-24.565-5.516-29.076c-1.504-4.513-18.55-58.153-18.55-58.153
					s-0.943-11.428-0.943-13.434s0.988-5.259-0.06-8.124c-1.67-4.562-4.009-14.039-4.009-18.551s-2.509-17.545-2.509-17.545
					S405.473,434.116,394.263,434.116"/>
				<path clip-path="url(#SVGID_BackSvgID_20_)" d="M327.728,434.116c0,0-29.074,0.839-63.18,1.118c-32.295,0.265-57.589,1.397-57.589,1.397
					s8.365,27.243,10.095,28.974s4.037,12.687-14.992,23.642c-19.029,10.956-6.92,24.219-6.343,35.175
					c0.576,10.955-12.109,47.283-25.372,73.232c-13.262,25.947-9.803,47.859-8.073,76.114c1.731,28.255-3.459,22.489,3.46,51.897
					s-10.541,43.672-10.541,43.672s1.618,1.406,16.267,3.779c7.505,1.215,15.198,1.654,22.399,1.654
					c18.746,0,34.151-2.976,34.151-2.976s-5.189-9.803-6.919-13.262c-1.73-3.46-11.532-9.227-11.532-9.227
					s-1.154-9.803-3.461-20.758c-2.307-10.956-13.263-29.408-16.722-35.176c-3.46-5.766,5.189-16.722,14.993-31.714
					c9.802-14.993,0-23.643,7.496-51.898c2.696-10.16,5.763-13.162,9.125-13.162c2.427,0.001,5.008,1.567,7.71,3.134
					c2.703,1.566,5.528,3.133,8.444,3.133c1.357,0,2.735-0.34,4.129-1.176c2.646-1.588,5.869-2.204,9.439-2.204
					c11.989,0.001,27.891,6.948,38.998,7.393c0.17,0.007,0.338,0.01,0.507,0.01c14.15,0,24.253-23.78,21.405-34.606
					c-2.883-10.956-19.604-14.416,6.918-31.715c26.526-17.3,5.191-31.715,2.308-41.518
					C317.964,489.247,327.728,434.116,327.728,434.116"/>
			</g>
		</g>
	</g>
	<g clip-path="url(#SVGID_BackSvgID_2_)">
		<defs>
			<rect id="SVGID_BackSvgID_21_" width="612" height="792"/>
		</defs>
		<clipPath id="SVGID_BackSvgID_22_">
			<use xlink:href="#SVGID_BackSvgID_21_"  overflow="visible"/>
		</clipPath>
		<g opacity="0.5" clip-path="url(#SVGID_BackSvgID_22_)">
			<g>
				<defs>
					<rect id="SVGID_BackSvgID_23_" x="427.162" y="443.167" width="8.296" height="49.597"/>
				</defs>
				<clipPath id="SVGID_BackSvgID_24_">
					<use xlink:href="#SVGID_BackSvgID_23_"  overflow="visible"/>
				</clipPath>
				
					<path clip-path="url(#SVGID_BackSvgID_24_)" fill="none" stroke="#897F76" stroke-width="0.472" stroke-miterlimit="10" stroke-dasharray="1.706,0.853" d="
					M428.538,443.194c0,0-0.267,2.308-0.558,3.47c-0.293,1.161-0.583,2.613-0.583,3.63c0,1.016,0.147,2.467,0.438,3.339
					c0.289,0.871,1.845,5.023,1.575,5.923s-1.286,2.931-1.286,4.092c0,1.162,0.437,7.84,0.872,9.582
					c0.434,1.742,2.465,9.435,3.338,10.887c0.871,1.452,1.308,3.339,1.452,4.209c0.145,0.872,1.45,4.355,1.45,4.355"/>
			</g>
		</g>
		<g opacity="0.35" clip-path="url(#SVGID_BackSvgID_22_)">
			<g>
				<defs>
					<rect id="SVGID_BackSvgID_25_" x="235.244" y="37.694" width="142.832" height="15.005"/>
				</defs>
				<clipPath id="SVGID_BackSvgID_26_">
					<use xlink:href="#SVGID_BackSvgID_25_"  overflow="visible"/>
				</clipPath>
				
					<path clip-path="url(#SVGID_BackSvgID_26_)" fill="none" stroke="#00AB5D" stroke-width="0.61" stroke-miterlimit="10" stroke-dasharray="0.524,0.524" d="
					M235.426,51.813c0,0,18.12-13.501,71.182-13.81c53.553-0.312,71.272,14.461,71.272,14.461"/>
			</g>
		</g>
		<g opacity="0.35" clip-path="url(#SVGID_BackSvgID_22_)">
			<g>
				<defs>
					<rect id="SVGID_BackSvgID_27_" x="96.449" y="225.004" width="73.587" height="9.727"/>
				</defs>
				<clipPath id="SVGID_BackSvgID_28_">
					<use xlink:href="#SVGID_BackSvgID_27_"  overflow="visible"/>
				</clipPath>
				
					<path clip-path="url(#SVGID_BackSvgID_28_)" fill="none" stroke="#00AB5D" stroke-width="0.795" stroke-miterlimit="10" stroke-dasharray="0.683,0.683" d="
					M96.555,225.388c0,0,16.858,4.663,38.021,6.815c21.164,2.152,35.46,2.13,35.46,2.13"/>
			</g>
		</g>
		<g opacity="0.35" clip-path="url(#SVGID_BackSvgID_22_)">
			<g>
				<defs>
					<rect id="SVGID_BackSvgID_29_" x="96.449" y="228.188" width="73.587" height="9.727"/>
				</defs>
				<clipPath id="SVGID_BackSvgID_30_">
					<use xlink:href="#SVGID_BackSvgID_29_"  overflow="visible"/>
				</clipPath>
				
					<path clip-path="url(#SVGID_BackSvgID_30_)" fill="none" stroke="#00AB5D" stroke-width="0.795" stroke-miterlimit="10" stroke-dasharray="0.683,0.683" d="
					M96.555,228.571c0,0,16.858,4.663,38.021,6.815c21.164,2.153,35.46,2.131,35.46,2.131"/>
			</g>
		</g>
		<g opacity="0.35" clip-path="url(#SVGID_BackSvgID_22_)">
			<g>
				<defs>
					<rect id="SVGID_BackSvgID_31_" x="442.802" y="225.004" width="73.588" height="9.727"/>
				</defs>
				<clipPath id="SVGID_BackSvgID_32_">
					<use xlink:href="#SVGID_BackSvgID_31_"  overflow="visible"/>
				</clipPath>
				
					<path clip-path="url(#SVGID_BackSvgID_32_)" fill="none" stroke="#00AB5D" stroke-width="0.795" stroke-miterlimit="10" stroke-dasharray="0.683,0.683" d="
					M516.284,225.388c0,0-16.859,4.663-38.022,6.815s-35.459,2.13-35.459,2.13"/>
			</g>
		</g>
		<g opacity="0.35" clip-path="url(#SVGID_BackSvgID_22_)">
			<g>
				<defs>
					<rect id="SVGID_BackSvgID_33_" x="442.802" y="228.188" width="73.588" height="9.727"/>
				</defs>
				<clipPath id="SVGID_BackSvgID_34_">
					<use xlink:href="#SVGID_BackSvgID_33_"  overflow="visible"/>
				</clipPath>
				
					<path clip-path="url(#SVGID_BackSvgID_34_)" fill="none" stroke="#00AB5D" stroke-width="0.795" stroke-miterlimit="10" stroke-dasharray="0.683,0.683" d="
					M516.284,228.571c0,0-16.859,4.663-38.022,6.815c-21.163,2.153-35.459,2.131-35.459,2.131"/>
			</g>
		</g>
		<g opacity="0.35" clip-path="url(#SVGID_BackSvgID_22_)">
			<g>
				<defs>
					<rect id="SVGID_BackSvgID_35_" x="237.461" y="36.057" width="136.233" height="13.843"/>
				</defs>
				<clipPath id="SVGID_BackSvgID_36_">
					<use xlink:href="#SVGID_BackSvgID_35_"  overflow="visible"/>
				</clipPath>
				
					<path clip-path="url(#SVGID_BackSvgID_36_)" fill="none" stroke="#00AB5D" stroke-width="0.61" stroke-miterlimit="10" stroke-dasharray="0.524,0.524" d="
					M237.654,49.664c0,0,15.924-12.987,68.987-13.296c53.552-0.311,66.844,12.19,66.844,12.19"/>
			</g>
		</g>
		<g opacity="0.35" clip-path="url(#SVGID_BackSvgID_22_)">
			<g>
				<defs>
					<rect id="SVGID_BackSvgID_37_" x="149.683" y="442.177" width="317.529" height="319.847"/>
				</defs>
				<clipPath id="SVGID_BackSvgID_38_">
					<use xlink:href="#SVGID_BackSvgID_37_"  overflow="visible"/>
				</clipPath>
				<g opacity="0.5" clip-path="url(#SVGID_BackSvgID_38_)">
					<g>
						<defs>
							<rect id="SVGID_BackSvgID_39_" x="340.265" y="741.829" width="124.342" height="13.785"/>
						</defs>
						<clipPath id="SVGID_BackSvgID_40_">
							<use xlink:href="#SVGID_BackSvgID_39_"  overflow="visible"/>
						</clipPath>
						
							<path clip-path="url(#SVGID_BackSvgID_40_)" fill="none" stroke="#FFFFFF" stroke-width="0.711" stroke-miterlimit="10" stroke-dasharray="1.74,0.87" d="
							M340.359,742.172c0,0,48.866,13.423,76.666,13.081c43.471-0.534,47.347-3.935,47.347-3.935"/>
					</g>
				</g>
				<g opacity="0.5" clip-path="url(#SVGID_BackSvgID_38_)">
					<g>
						<defs>
							<rect id="SVGID_BackSvgID_41_" x="150.293" y="754.365" width="117.972" height="7.658"/>
						</defs>
						<clipPath id="SVGID_BackSvgID_42_">
							<use xlink:href="#SVGID_BackSvgID_41_"  overflow="visible"/>
						</clipPath>
						
							<path clip-path="url(#SVGID_BackSvgID_42_)" fill="none" stroke="#FFFFFF" stroke-width="0.711" stroke-miterlimit="10" stroke-dasharray="1.74,0.87" d="
							M268.168,754.708c0,0-24.139,6.78-84.714,6.958c-34.845,0.104-32.783-4.81-32.783-4.81"/>
					</g>
				</g>
				<g opacity="0.5" clip-path="url(#SVGID_BackSvgID_38_)">
					<g>
						<defs>
							<rect id="SVGID_BackSvgID_43_" x="149.683" y="746.558" width="122.076" height="9.375"/>
						</defs>
						<clipPath id="SVGID_BackSvgID_44_">
							<use xlink:href="#SVGID_BackSvgID_43_"  overflow="visible"/>
						</clipPath>
						
							<path clip-path="url(#SVGID_BackSvgID_44_)" fill="none" stroke="#FFFFFF" stroke-width="0.711" stroke-miterlimit="10" stroke-dasharray="1.74,0.87" d="
							M271.677,746.903c0,0-37.269,8.851-78.068,8.672c-40.798-0.177-43.649-3.74-43.649-3.74"/>
					</g>
				</g>
				<g opacity="0.5" clip-path="url(#SVGID_BackSvgID_38_)">
					<g>
						<defs>
							<rect id="SVGID_BackSvgID_45_" x="334.069" y="733.423" width="133.143" height="14.315"/>
						</defs>
						<clipPath id="SVGID_BackSvgID_46_">
							<use xlink:href="#SVGID_BackSvgID_45_"  overflow="visible"/>
						</clipPath>
						
							<path clip-path="url(#SVGID_BackSvgID_46_)" fill="none" stroke="#FFFFFF" stroke-width="0.711" stroke-miterlimit="10" stroke-dasharray="1.74,0.87" d="
							M466.91,740.888c0,0-4.989,8.018-51.133,6.236c-46.145-1.781-81.599-13.363-81.599-13.363"/>
					</g>
				</g>
				<g opacity="0.5" clip-path="url(#SVGID_BackSvgID_38_)">
					<g>
						<defs>
							<rect id="SVGID_BackSvgID_47_" x="182.341" y="451.438" width="249.74" height="11.601"/>
						</defs>
						<clipPath id="SVGID_BackSvgID_48_">
							<use xlink:href="#SVGID_BackSvgID_47_"  overflow="visible"/>
						</clipPath>
						
							<path clip-path="url(#SVGID_BackSvgID_48_)" fill="none" stroke="#FFFFFF" stroke-width="0.711" stroke-miterlimit="10" stroke-dasharray="1.74,0.87" d="
							M432.039,460.377c0,0-81.388-9.646-145.251-8.488c-63.865,1.158-104.365,10.803-104.365,10.803"/>
					</g>
				</g>
				<g opacity="0.5" clip-path="url(#SVGID_BackSvgID_38_)">
					<g>
						<defs>
							<rect id="SVGID_BackSvgID_49_" x="182.146" y="442.177" width="249.742" height="11.602"/>
						</defs>
						<clipPath id="SVGID_BackSvgID_50_">
							<use xlink:href="#SVGID_BackSvgID_49_"  overflow="visible"/>
						</clipPath>
						
							<path clip-path="url(#SVGID_BackSvgID_50_)" fill="none" stroke="#FFFFFF" stroke-width="0.711" stroke-miterlimit="10" stroke-dasharray="1.74,0.87" d="
							M431.846,451.117c0,0-81.39-9.646-145.252-8.488c-63.865,1.158-104.365,10.804-104.365,10.804"/>
					</g>
				</g>
			</g>
		</g>
		<g clip-path="url(#SVGID_BackSvgID_22_)">
			<g>
				<defs>
					<rect id="SVGID_BackSvgID_51_" x="256.365" y="640.646" width="91.462" height="125.318"/>
				</defs>
				<clipPath id="SVGID_BackSvgID_52_">
					<use xlink:href="#SVGID_BackSvgID_51_"  overflow="visible"/>
				</clipPath>
				
					<path clip-path="url(#SVGID_BackSvgID_52_)" fill="none" stroke="#897F76" stroke-width="0.25" stroke-miterlimit="10" stroke-dasharray="0.086,0.086" d="
					M256.486,765.935c0,0,2.941-11.878,5.497-14.435c2.556-2.556,3.514-7.987,3.514-7.987s-0.319-5.432,1.598-10.224
					c1.917-4.794,22.046-52.081,23.963-62.306c1.917-10.224,7.988-28.116,7.988-28.116s5.112-1.278,7.988-1.917
					c2.875-0.64,8.946,0.639,8.946,0.639s3.193,10.225,3.515,15.657c0.319,5.431,8.307,43.133,12.461,51.12
					c4.153,7.988,13.419,29.715,13.419,31.951s-0.639,7.029,0.639,10.863c1.278,3.834,1.693,5.269,1.693,5.269"/>
			</g>
		</g>
	</g>
</g>
</svg>
