<?xml version="1.0" encoding="utf-8"?>
<!-- Generator: Adobe Illustrator 22.1.0, SVG Export Plug-In . SVG Version: 6.00 Build 0)  -->
<svg version="1.1" id="Layer_1" xmlns="http://www.w3.org/2000/svg" xmlns:xlink="http://www.w3.org/1999/xlink" x="0px" y="0px"
	 viewBox="0 0 620 1035.881" enable-background="new 0 0 620 1035.881" xml:space="preserve">
<path opacity="0.2" d="M546.149,215.426c-0.055,0.562-0.1,1.117-0.133,1.658c0.396-0.951,0.91-1.485,0.91-1.485
	S546.642,215.535,546.149,215.426z"/>
<path d="M124.047,106.488c0,0.408,0.09,0.813,0.231,1.216c-0.058-0.581-0.116-1.162-0.173-1.743
	C124.078,106.137,124.047,106.312,124.047,106.488z"/>
<path opacity="0.2" d="M551.597,209.697c-0.055,0.567-0.101,1.125-0.134,1.67c0.399-0.958,0.917-1.496,0.917-1.496
	S552.093,209.806,551.597,209.697z"/>
<path d="M628.454,95.276c0,0.424-0.093,0.845-0.238,1.265c0.06-0.604,0.119-1.208,0.179-1.813
	C628.422,94.911,628.454,95.093,628.454,95.276z"/>
<path d="M116.19,90.513c0,0.422,0.093,0.841,0.238,1.258c-0.06-0.601-0.12-1.201-0.179-1.802
	C116.222,90.15,116.19,90.331,116.19,90.513z"/>
  <g id="BODY">
    <path fill="#FFFFFF" stroke="#897F76" stroke-width="0.25" d="M593.099,460.1c0,0-1.5-22.807-2.101-25.207
	c-0.599-2.4-5.4-15.605-7.501-19.205c-2.101-3.601-11.703-27.606-16.206-38.71c-4.499-11.103-22.503-37.808-40.208-60.315
	c-17.701-22.504-42.907-40.208-60.613-46.51c-13.25-4.716-33.655-4.757-43.083-4.478c9.945-8.711-17.073,21.304-56.157,21.238
	c-42.261-0.072-75.192-38.873-61.6-26.662c2.027,1.82,4.129,3.573,6.286,5.264c-10.342,1.745-51.775,10.022-79.29,34.449
	c-40.18,35.669-68.719,100.382-68.719,100.382s-4.467,49.116-0.667,87.6c0.455,0.548,0.848,1.316,1.057,2.46
	c0.601,3.299,0.001,44.706,0.601,47.711c0.6,3.001,15.303,66.315,16.204,72.016c0.901,5.703,5.7,56.413,6.6,70.516
	c0.901,14.106,0.303,29.709-0.299,39.009c-0.6,9.307-4.501,49.814-4.501,55.216c0,5.404-0.001,28.808,0.299,30.007
	c0.303,1.201,0.601,3.002,0.601,3.002s-0.601,9.897-0.601,11.101c0,1.201,9.903,8.402,12.304,9.303
	c2.401,0.901,11.704,2.401,21.306,8.103c9.601,5.696,17.703,9.901,25.805,12c8.103,2.101,51.914,10.202,63.316,11.105
	c11.403,0.899,93.919,0.3,114.624-0.903c20.708-1.201,81.023-6.305,95.726-8.402c14.704-2.098,34.509-7.503,47.113-14.403
	c12.601-6.9,20.403-14.703,20.403-14.703s-0.902-11.702-0.902-13.5c0-1.802-2.396-33.611-2.999-35.71
	c-0.602-2.102-1.5-7.503-0.602-11.103c0.905-3.604,0.905-39.91,1.501-41.41c0.6-1.498,4.802-30.908,4.204-37.508
	c-0.6-6.602-5.705-66.617-5.705-76.519s0.301-52.813,0.301-55.813c0-2.999,3.601-22.805,3.901-24.607
	c0.301-1.798,3.602-17.401,4.5-21.601c0.9-4.203,1.201-6.304,1.201-6.304s0.358,0.207,0.93,0.533l4.022-23.34L593.099,460.1z"/>

  </g>
  <g id="SLEEVE">
    <path fill="#FFFFFF" stroke="#897F76" stroke-width="0.25" d="M163.907,400.346c0,0,28.539-64.713,68.719-100.382
	c27.514-24.427,68.948-32.704,79.29-34.449c-2.158-1.691-4.259-3.444-6.286-5.264c-13.592-12.211-18.055-36.322-19.397-46.868
	c-1.054,0.502-2.112,0.946-3.107,1.256c-4.802,1.499-73.5,14.438-111.927,28.205c-3.197,1.145-32.708,26.408-40.809,35.409
	c-8.103,9.003-44.11,44.713-57.914,64.216c-13.803,19.503-39.01,49.511-39.01,49.511s-3.001,1.801-4.201,2.701
	c-1.2,0.899-2.701,3.9-2.701,3.9l-6.902,6.002c0,0,18.906,16.804,34.21,31.508c15.302,14.703,37.508,40.509,37.809,45.61
	c0.298,5.1,3.901,29.105,7.201,29.406c3.3,0.302,23.105-5.099,28.206-12.301c5.103-7.203,7.803-12.003,11.404-10.802
	c3.601,1.199,9.302,6.301,12.605,6.301c3.298,0,6.599-2.102,7.199-3.301c0.599-1.199,1.5-4.801,2.401-4.502
	c0.589,0.197,1.684,0.409,2.543,1.445C159.441,449.464,163.907,400.346,163.907,400.346z"/>
    <path fill="#FFFFFF" stroke="#897F76" stroke-width="0.25" d="M702.925,385.681c-6.902-7.8-95.722-102.926-95.722-102.926
	s-26.71-27.907-27.306-29.706c-0.602-1.8-9.003-9.902-11.103-10.201c-2.101-0.299-11.104-4.801-17.406-7.802
	c-6.301-3.002-21.603-9.301-24.306-9.902c-2.698-0.6-13.201-1.8-20.403-4.5c-7.2-2.701-11.704-8.104-11.704-8.104
	s-13.201,1.801-19.204,1.801c-5.927,0-20.327-3.219-23.86-4.743c-1.594,5.526-4.208,14.247-6.749,23.048
	c-3.799,13.174-11.83,24.32-21.775,33.031c9.428-0.279,29.833-0.239,43.083,4.478c17.705,6.302,42.911,24.006,60.613,46.51
	c17.705,22.507,35.709,49.212,40.208,60.315c4.503,11.104,14.106,35.109,16.206,38.71c2.102,3.6,6.903,16.805,7.501,19.205
	c0.6,2.399,2.101,25.207,2.101,25.207l1.051,14.101l-4.023,23.341c3.004,1.713,12.646,7.112,16.177,7.869
	c4.202,0.899,11.104,3.598,11.104,3.598s13.499-15.003,22.803-24.604c9.301-9.602,38.107-33.01,48.613-41.712
	c10.501-8.7,35.709-30.906,35.709-30.906S709.824,393.483,702.925,385.681z"/>
  </g>
  <g id="COLLAR">
    <path fill="#FFFFFF" stroke="#897F76" stroke-width="0.25" d="M451.975,208.956c-3.301-1.499-5.1-3.601-6.301-4.502
	c-1.201-0.9-9.304-3.299-9.304-3.299s-45.31,4.8-67.215,4.5c-21.917-0.3-21.84-0.297-66.314-2.399l-8.403,4.799
	c0,0-3.697,2.639-7.585,4.549c0.941,9.275,4.741,34.266,18.987,47.065c17.706,15.905,40.511,27.306,66.917,26.706
	c26.406-0.599,63.011-21.005,72.615-54.312c2.507-8.686,5.084-17.467,6.684-23.075C452.031,208.977,451.997,208.966,451.975,208.956
	z"/>
  </g>
<g>
	<path fill="none" stroke="#636466" stroke-width="0.7695" stroke-linejoin="round" stroke-dasharray="1.0791,0.3597" d="
		M163.995,388.682c0,0,26.226-59.377,65.503-93.955c30.928-27.225,77.539-33.759,77.539-33.759l4.905,4.167
		c0,0-47.676,6.74-79.316,34.829c-40.18,35.669-68.719,100.382-68.719,100.382L163.995,388.682z"/>
	<path fill="none" stroke="#636466" stroke-width="0.7695" stroke-linejoin="round" stroke-dasharray="1.0791,0.3597" d="
		M429.859,260.251c0,0,22.204-2.4,39.91,3.9c17.705,6.302,42.913,24.007,60.615,46.511c17.703,22.505,35.709,49.212,40.21,60.314
		c4.5,11.104,14.102,35.109,16.203,38.71c2.1,3.601,7.029,16.776,7.501,19.206c1.242,6.402-0.149,45.309-0.149,45.309l-1.051-14.101
		c0,0-1.5-22.807-2.101-25.207c-0.599-2.4-5.4-15.605-7.501-19.205c-2.101-3.601-11.703-27.606-16.206-38.71
		c-4.499-11.103-22.503-37.808-40.208-60.315c-17.701-22.504-42.907-40.208-60.613-46.51s-43.129-3.741-43.129-3.741"/>
	<path fill="none" stroke="#636466" stroke-width="0.7695" stroke-linejoin="round" stroke-dasharray="1.0791,0.3597" d="
		M286.351,213.299c0,0,1.576,31.048,19.278,46.952c17.707,15.904,40.511,27.306,66.917,26.706
		c26.407-0.599,63.011-21.004,72.615-54.312c3.127-10.832,5.152-18.033,6.464-22.815"/>
	<path fill="none" stroke="#636466" stroke-width="0.7695" stroke-linejoin="round" stroke-dasharray="1.0791,0.3597" d="
		M610.352,504.807c0,0,10.805-13.502,17.557-20.706c6.75-7.201,27.908-29.706,34.658-33.757
		c6.754-4.052,19.354-15.303,26.556-21.154c7.202-5.852,17.552-15.304,20.704-18.004c3.15-2.702,8.102-8.552,8.102-8.552"/>
	<path fill="none" stroke="#636466" stroke-width="0.7695" stroke-linejoin="round" stroke-dasharray="1.0791,0.3597" d="
		M602.7,501.658c0,0,11.21-13.683,18.216-20.98c7.006-7.298,28.958-30.099,35.967-34.203c7.003-4.105,20.082-15.508,27.554-21.436
		c7.472-5.927,18.215-15.506,21.485-18.241c3.27-2.737,8.405-8.666,8.405-8.666"/>
	<path fill="none" stroke="#636466" stroke-width="0.7695" stroke-linejoin="round" stroke-dasharray="1.0791,0.3597" d="
		M33.465,391.981c0,0,31.808,28.206,42.611,40.81c10.801,12.603,23.856,27.007,24.756,29.708c0.9,2.7,2.699,11.702,3.6,17.554
		c0.901,5.851,2.251,9.452,5.402,16.203c3.15,6.751,5.401,9.001,5.401,9.001"/>
	<path fill="none" stroke="#636466" stroke-width="0.7695" stroke-linejoin="round" stroke-dasharray="1.0791,0.3597" d="
		M28.26,395.777c0,0,32.512,28.462,43.315,41.065c10.803,12.601,23.854,27.006,24.755,29.706c0.901,2.7,2.702,11.704,3.602,17.553
		c0.9,5.852,2.249,9.454,5.401,16.206c3.15,6.75,3.15,6.75,3.15,6.75"/>
	<path fill="none" stroke="#636466" stroke-width="0.7695" stroke-linejoin="round" stroke-dasharray="1.0791,0.3597" d="
		M183.802,806.082c0,0,34.135,17.163,43.147,21.67c9.014,4.505,76.61,29.541,160.731,21.532
		c84.122-8.013,131.688-10.017,155.223-18.028c23.533-8.011,40.058-23.533,40.058-23.533"/>
	<path fill="none" stroke="#636466" stroke-width="0.7695" stroke-linejoin="round" stroke-dasharray="1.0791,0.3597" d="
		M182.886,812.732c0,0,34.05,16.522,43.062,21.029c9.013,4.508,78.352,25.22,162.638,19.189
		c86.218-6.169,130.283-8.671,153.815-16.682c23.535-8.013,41.06-22.534,41.06-22.534"/>
</g>
<path fill="#FFFFFF" d="M299.292,227.875c0,0,0.038,3.569,9.939,16.172c9.903,12.602,28.508,34.51,60.316,30.908
	c31.808-3.602,52.811-23.104,60.014-32.406c6.855-8.858,8.042-13.326,8.042-13.326s-9.591-4.25-13.113-5.495
	c-2.338-0.824-6.743-3.266-17.264-4.25c-11.154-1.047-18.628,0.116-26.7,0.309c-6.581,0.159-11.598-0.258-13.375-0.259
	c-7.624,0-19.541-0.729-30.067-1.036c-10.599-0.308-19.791-0.191-21.566,0.208C307.896,220.41,299.292,227.875,299.292,227.875z"/>
<radialGradient id="SVGID_Front__1_" cx="370.7466" cy="196.9346" r="109.2508" gradientUnits="userSpaceOnUse">
	<stop  offset="0" style="stop-color:#897F76"/>
	<stop  offset="1" style="stop-color:#000000"/>
</radialGradient>
<path opacity="0.3" fill="url(#SVGID_Front__1_)" d="M299.292,227.875c0,0,0.038,3.569,9.939,16.172
	c9.903,12.602,28.508,34.51,60.316,30.908c31.808-3.602,52.811-23.104,60.014-32.406c6.855-8.858,8.042-13.326,8.042-13.326
	s-9.591-4.25-13.113-5.495c-2.338-0.824-6.743-3.266-17.264-4.25c-11.154-1.047-18.628,0.116-26.7,0.309
	c-6.581,0.159-11.598-0.258-13.375-0.259c-7.624,0-19.541-0.729-30.067-1.036c-10.599-0.308-19.791-0.191-21.566,0.208
	C307.896,220.41,299.292,227.875,299.292,227.875z"/>
<path opacity="0.05" d="M589.197,495.208c0,0,8.555,5.099,11.251,5.997c2.707,0.901,6.755-4.501,6.755-6.299
	c0-1.803,8.103-36.91,3.6-76.52c-4.5-39.608-31.956-162.039-31.956-162.039s5.85,85.97,12.601,122.879
	c6.753,36.909,10.354,65.717,10.803,71.117c0.449,5.401,1.801,27.909,0.449,29.257c-1.347,1.351-3.149,4.051-4.499,8.102
	c-1.35,4.052-3.153,0-2.251-4.05c0.901-4.051-1.8-9.452-1.8-9.452s-1.351,2.7-1.799,5.851
	C591.898,483.202,589.197,495.208,589.197,495.208"/>
<path opacity="0.05" d="M144.043,270.302c0,0,5.85,99.023,3.149,117.478c-2.701,18.455-6.752,59.864-7.652,67.516
	c-0.898,7.653,4.503,17.104,4.951,21.154c0.45,4.052,1.324,13.716,3.875,15.368c2.552,1.652,9.173-0.797,9.733-2.233
	c1.176-3.025,2.232-4.785,2.232-4.785c0-1.349,1.715-6.999,2.166-9.699c0.449-2.701,2.699-183.643,2.699-183.643
	s-5.849,31.956-5.849,40.51c0,8.551-0.902,43.658-3.151,42.758C153.945,373.826,144.043,270.302,144.043,270.302z"/>
<radialGradient id="SVGID_Front__2_" cx="121.6865" cy="239.5428" r="233.4605" gradientUnits="userSpaceOnUse">
	<stop  offset="0" style="stop-color:#FFFFFF"/>
	<stop  offset="1" style="stop-color:#000000"/>
</radialGradient>
<path opacity="0.05" fill="url(#SVGID_Front__2_)" d="M126.939,288.756c0,0-2.251,49.962-2.251,56.264c0,6.301-5.851,85.52-7.652,94.072
	c-1.801,8.552-4.952,30.608-7.202,34.208c-2.25,3.601-2.7,11.703-2.7,11.703s3.15,5.403,8.553,4.501
	c5.4-0.9,12.153-18.004,12.153-22.055c0-4.051,4.049-64.815,4.501-69.766c0.448-4.951-0.901-81.02,0.448-86.871
	c1.351-5.852,3.15-30.158,3.15-30.158L126.939,288.756z"/>
<radialGradient id="SVGID_Front__3_" cx="36.4652" cy="287.5563" r="165.981" gradientUnits="userSpaceOnUse">
	<stop  offset="0" style="stop-color:#FFFFFF"/>
	<stop  offset="1" style="stop-color:#000000"/>
</radialGradient>
<path opacity="0.05" fill="url(#SVGID_Front__3_)" d="M120.188,293.707c0,0-15.305,55.813-15.305,68.417
	c0,12.602-4.501,71.567-5.401,77.868c-0.9,6.301-4.052,10.353-4.052,10.353s-22.053-24.755-27.005-28.807
	c-4.952-4.052-30.158-27.007-30.608-28.807c-0.451-1.802,31.058-42.311,35.56-48.162c4.5-5.851,29.706-33.307,32.406-35.108
	C108.483,307.66,120.188,293.707,120.188,293.707z"/>
<radialGradient id="SVGID_Front__4_" cx="615.0068" cy="322.966" r="110.8816" gradientUnits="userSpaceOnUse">
	<stop  offset="0" style="stop-color:#FFFFFF"/>
	<stop  offset="1" style="stop-color:#000000"/>
</radialGradient>
<path opacity="0.05" fill="url(#SVGID_Front__4_)" d="M636.91,331.968c0,0,28.356,46.811,36.009,54.01
	c7.651,7.202,26.103,22.955,26.103,22.955l-11.703,9.003c0,0-13.95-18.004-22.054-22.505c-8.103-4.503-13.503-18.456-17.553-30.159
	C643.662,353.572,636.91,331.968,636.91,331.968z"/>
<radialGradient id="SVGID_Front__5_" cx="647.4123" cy="397.9831" r="41.6871" gradientUnits="userSpaceOnUse">
	<stop  offset="0" style="stop-color:#FFFFFF"/>
	<stop  offset="1" style="stop-color:#000000"/>
</radialGradient>
<path opacity="0.05" fill="url(#SVGID_Front__5_)" d="M676.519,426.04c0,0-9.903-5.403-16.205-9.903
	c-6.299-4.502-19.355-21.153-19.355-21.153s10.804,26.555,11.706,30.157c0.9,3.599,4.947,10.802,5.849,13.051
	c0.9,2.251,0.9,2.251,0.9,2.251L676.519,426.04z"/>
<radialGradient id="SVGID_Front__6_" cx="622.8066" cy="372.7759" r="80.6635" gradientUnits="userSpaceOnUse">
	<stop  offset="0" style="stop-color:#FFFFFF"/>
	<stop  offset="1" style="stop-color:#000000"/>
</radialGradient>
<path opacity="0.05" fill="url(#SVGID_Front__6_)" d="M654.913,445.845c0,0-6.751-7.654-8.551-11.704
	c-1.799-4.05-6.301-12.153-8.553-14.855c-2.249-2.699-12.603-13.952-12.603-13.952s7.205,21.154,7.205,24.756
	c0,3.601,4.948,12.153,10.8,14.854C649.062,447.644,654.913,445.845,654.913,445.845z"/>
<path opacity="0.05" fill="#897F76" d="M491.073,234.744c0,0-22.503,22.054-31.507,27.456c-9,5.401-29.707,16.204-36.008,17.103
	c-6.301,0.901-11.253,4.952-9.903,5.403c1.35,0.451,14.407,0,19.354-1.8c4.953-1.801,42.311-15.305,49.513-24.756
	C489.724,248.696,491.073,234.744,491.073,234.744z"/>
<path opacity="0.05" fill="#897F76" d="M486.126,262.649c0,0-88.224,51.313-93.175,52.664c-4.949,1.349-4.5,14.852-6.302,17.554
	c-1.801,2.7-11.252,8.553-10.802,10.352c0.45,1.801,40.51-17.103,44.111-20.255c3.6-3.149,29.706-23.406,35.108-26.556
	c5.4-3.15,27.907-23.407,31.059-24.756C489.276,270.302,486.126,262.649,486.126,262.649z"/>
<path opacity="0.05" fill="none" d="M168.797,256.348c0,0,7.204,44.561,8.104,49.963c0.899,5.401,4.949,26.106,4.949,31.505
	c0,5.403-0.9,13.055-0.9,13.055s5.402-48.161,1.801-57.163C179.151,284.706,168.797,256.348,168.797,256.348z"/>
<path opacity="0.15" fill="none" d="M180.95,246.446l3.603,39.609c0,0,3.148-18.455,6.301-16.654
	c3.15,1.8,12.152,15.304,14.402,15.755c2.251,0.449,0-12.603-2.25-13.504c-2.251-0.899-13.053-13.054-15.304-15.753
	C185.452,253.196,180.95,246.446,180.95,246.446z"/>
<radialGradient id="SVGID_Front__7_" cx="464.3705" cy="418.3876" r="389.1618" gradientUnits="userSpaceOnUse">
	<stop  offset="0" style="stop-color:#FFFFFF"/>
	<stop  offset="1" style="stop-color:#000000"/>
</radialGradient>
<path opacity="0.05" fill="url(#SVGID_Front__7_)" d="M496.84,461.728c0,0-54.58,213.806-63.592,230.332
	c-9.013,16.522-52.577,90.128-55.58,100.14c-3.005,10.017-6.51,50.576-6.51,50.576s30.045-26.041,34.049-28.543
	c4.006-2.502,38.054-73.106,41.059-78.111C449.269,731.114,496.84,461.728,496.84,461.728z"/>
<radialGradient id="SVGID_Front__8_" cx="604.8043" cy="692.6533" r="174.0082" gradientUnits="userSpaceOnUse">
	<stop  offset="0" style="stop-color:#FFFFFF"/>
	<stop  offset="1" style="stop-color:#000000"/>
</radialGradient>
<path opacity="0.05" fill="url(#SVGID_Front__8_)" d="M520.843,835.293c-18.305,2.937-28.513,0.469-28.513,0.469s28.039-3.506,33.55-10.015
	c5.508-6.509,40.558-175.748,40.558-175.748s-24.034,151.718-24.034,155.724c0,4.003,14.52-6.509,15.521-8.517
	c1.004-2.002,12.018-21.529,12.018-21.529s1.003,9.515-1.001,14.522c-2.004,5.005-26.039,38.554-26.039,38.554
	S539.149,832.355,520.843,835.293z"/>
<path opacity="0.05" d="M553.744,826.053c0,0,11.695-9.817,12.694-12.821c1.001-3.003,9.014-27.537,9.014-27.537
	s-2.503,13.018-2.503,17.52c0,4.508,0.654,10.992-1.85,12.997C568.596,818.212,553.744,826.053,553.744,826.053z"/>
<radialGradient id="SVGID_Front__9_" cx="166.0992" cy="744.2647" r="93.8618" gradientUnits="userSpaceOnUse">
	<stop  offset="0" style="stop-color:#FFFFFF"/>
	<stop  offset="1" style="stop-color:#000000"/>
</radialGradient>
<path opacity="0.05" fill="url(#SVGID_Front__9_)" d="M230.909,828.984c-3.126-1.141-10.447-4.921-10.447-4.921s-2.025-4.821-4.026-10.33
	c-2.003-5.509-10.514-44.565-13.018-54.58c-2.504-10.013-9.513-30.043-9.513-30.043s19.306,57.745,34.588,84.335
	c5.338,9.29,9.237,16.854,14.245,19.86C242.738,833.306,234.037,830.126,230.909,828.984z"/>
<radialGradient id="SVGID_Front__10_" cx="158.894" cy="540.8141" r="342.8872" gradientUnits="userSpaceOnUse">
	<stop  offset="0" style="stop-color:#FFFFFF"/>
	<stop  offset="1" style="stop-color:#000000"/>
</radialGradient>
<path opacity="0.05" fill="url(#SVGID_Front__10_)" d="M182.886,620.954c0,0,38.055,86.124,42.562,91.632
	c4.508,5.509,46.066,74.106,49.071,81.615c3.003,7.515,20.529,37.056,27.539,40.059c7.011,3.002,25.036,3.508,28.541,7.011
	c3.505,3.504,6.167,7.662,6.167,7.662s-18.294,1.825-55.865-5.957c-13.463-2.791-36.426-9.215-36.426-9.215
	s-13.02-19.026-16.023-23.531c-3.004-4.506-28.542-58.084-32.547-80.119C191.902,708.08,182.886,620.954,182.886,620.954z"/>
<g>
	<path fill="#929497" stroke="#929497" stroke-width="0.8132" stroke-miterlimit="3.8637" d="M373.191,256.642
		c0,1.934-2.03,3.502-4.535,3.502h-5.753c-2.502,0-4.531-1.568-4.531-3.502v-6.471c0-1.933,2.029-3.502,4.531-3.502h5.753
		c2.505,0,4.535,1.568,4.535,3.502V256.642z"/>
	<path fill="#929497" stroke="#010101" stroke-width="0.2711" stroke-miterlimit="3.8637" d="M373.191,256.642
		c0,1.934-2.03,3.502-4.535,3.502h-5.753c-2.502,0-4.531-1.568-4.531-3.502v-6.471c0-1.933,2.029-3.502,4.531-3.502h5.753
		c2.505,0,4.535,1.568,4.535,3.502V256.642z"/>
	<g>
		<g>
			<polygon fill="#010101" stroke="#010101" stroke-width="0.0847" points="365.797,251.973 366.809,253.596 369.595,253.596 
				367.399,250.689 369.435,248.024 366.681,248.024 365.797,249.594 365.765,249.594 364.887,248.024 362.136,248.024 
				364.27,250.689 362.072,253.596 364.851,253.596 365.765,251.973 			"/>
		</g>
		<g>
			<path fill="#010101" d="M361.285,249.536h0.791v2.515h-0.512v-1.701c0-0.05,0.004-0.119,0.004-0.207s0.002-0.157,0.002-0.204
				l-0.496,2.112h-0.536l-0.492-2.112c0,0.048,0,0.117,0,0.204c0.002,0.088,0.002,0.157,0.002,0.207v1.701h-0.509v-2.515h0.795
				l0.479,1.977L361.285,249.536z"/>
		</g>
		<g>
			<path fill="#010101" d="M369.833,251.127c0.023,0.116,0.066,0.201,0.132,0.257c0.12,0.104,0.326,0.156,0.617,0.156
				c0.174,0,0.315-0.016,0.424-0.041c0.207-0.053,0.31-0.151,0.31-0.29c0-0.085-0.052-0.148-0.152-0.194
				c-0.104-0.042-0.264-0.082-0.488-0.116l-0.371-0.06c-0.369-0.058-0.621-0.122-0.763-0.192c-0.238-0.115-0.357-0.297-0.357-0.543
				c0-0.224,0.114-0.411,0.344-0.56c0.228-0.148,0.567-0.224,1.016-0.224c0.373,0,0.691,0.073,0.955,0.211
				c0.261,0.141,0.398,0.345,0.416,0.611h-0.712c-0.013-0.148-0.109-0.253-0.28-0.315c-0.116-0.041-0.26-0.061-0.428-0.061
				c-0.195,0-0.348,0.025-0.459,0.079c-0.115,0.055-0.172,0.129-0.172,0.226c0,0.088,0.057,0.156,0.168,0.198
				c0.07,0.029,0.227,0.063,0.463,0.103l0.611,0.104c0.267,0.044,0.468,0.105,0.605,0.181c0.207,0.117,0.313,0.288,0.313,0.514
				c0,0.228-0.126,0.418-0.372,0.572c-0.247,0.151-0.594,0.227-1.049,0.227c-0.458,0-0.819-0.076-1.085-0.226
				c-0.267-0.148-0.396-0.353-0.396-0.617H369.833z"/>
		</g>
		<path fill="#010101" stroke="#010101" stroke-width="0.072" d="M362.224,248.487l1.748,2.21l-1.813,2.406
			c0,0,1.156-2.045,1.147-2.392C363.293,250.261,362.224,248.487,362.224,248.487z"/>
		<path fill="#010101" stroke="#010101" stroke-width="0.072" d="M369.389,248.465l-1.749,2.212l1.814,2.404
			c0,0-1.154-2.043-1.146-2.392C368.32,250.24,369.389,248.465,369.389,248.465z"/>
		<g>
			<path fill-rule="evenodd" clip-rule="evenodd" fill="#929497" d="M366.74,249.725c0.522,0,0.949,0.429,0.949,0.95
				c0,0.524-0.427,0.95-0.949,0.95h-1.842c-0.524,0-0.95-0.426-0.95-0.95c0-0.521,0.426-0.95,0.95-0.95H366.74z"/>
			<g>
				<path fill="#010101" d="M364.242,250.674c0-0.369,0.285-0.668,0.645-0.692v1.383
					C364.527,251.339,364.242,251.04,364.242,250.674z"/>
				<polygon fill-rule="evenodd" clip-rule="evenodd" fill="#010101" points="365.599,250.582 364.999,249.979 365.599,249.979 				
					"/>
				<polygon fill-rule="evenodd" clip-rule="evenodd" fill="#010101" points="365.599,250.763 364.999,251.367 365.599,251.367 				
					"/>
			</g>
			<g>
				<polygon fill-rule="evenodd" clip-rule="evenodd" fill="#010101" points="366.356,250.582 366.958,249.979 366.356,249.979 				
					"/>
				<polygon fill-rule="evenodd" clip-rule="evenodd" fill="#010101" points="366.356,250.763 366.958,251.367 366.356,251.367 				
					"/>
				<g>
					<rect x="365.731" y="249.979" fill="#010101" width="0.497" height="1.388"/>
					<path fill="#010101" d="M365.982,250.674"/>
				</g>
			</g>
		</g>
		<g>
			<path fill="#010101" d="M370.077,248.282c0.119,0.003,0.218,0.043,0.291,0.124c0.074,0.075,0.113,0.172,0.113,0.286
				c-0.002,0.125-0.047,0.221-0.127,0.293c-0.079,0.073-0.171,0.11-0.279,0.112c-0.124-0.006-0.223-0.049-0.295-0.13
				c-0.075-0.081-0.112-0.173-0.115-0.273c0.004-0.105,0.04-0.197,0.109-0.281C369.845,248.332,369.948,248.287,370.077,248.282z
				 M370.077,248.365c-0.102,0.003-0.179,0.038-0.24,0.104c-0.057,0.065-0.085,0.138-0.087,0.223
				c0.002,0.083,0.03,0.158,0.089,0.222c0.059,0.065,0.137,0.097,0.236,0.1c0.088-0.002,0.166-0.032,0.23-0.09
				c0.061-0.059,0.094-0.138,0.095-0.232c0-0.092-0.032-0.168-0.092-0.231C370.249,248.401,370.173,248.368,370.077,248.365z
				 M370.085,248.462c0.064,0.002,0.112,0.014,0.142,0.039c0.034,0.024,0.048,0.051,0.048,0.089c0,0.032-0.009,0.057-0.026,0.076
				c-0.016,0.02-0.038,0.034-0.066,0.045l0.098,0.19h-0.15l-0.078-0.169h-0.015v0.169h-0.14v-0.439H370.085z M370.069,248.549
				h-0.031v0.103h0.035c0.021,0,0.031-0.005,0.044-0.013c0.01-0.012,0.014-0.022,0.014-0.038c0-0.018-0.009-0.029-0.014-0.038
				C370.104,248.552,370.088,248.549,370.069,248.549z"/>
		</g>
	</g>
	<g>
		<path fill="#010101" d="M359.877,254.332h0.594l0.228,0.886l0.23-0.886h0.587v1.456h-0.367v-1.109l-0.284,1.109h-0.335
			l-0.281-1.109v1.109h-0.37V254.332z"/>
		<path fill="#010101" d="M361.746,255.062c0-0.24,0.068-0.424,0.2-0.556c0.131-0.132,0.315-0.198,0.553-0.198
			c0.243,0,0.431,0.065,0.563,0.196c0.13,0.13,0.196,0.314,0.196,0.547c0,0.17-0.027,0.31-0.089,0.419
			c-0.055,0.11-0.139,0.194-0.244,0.255c-0.114,0.062-0.244,0.091-0.41,0.091c-0.16,0-0.299-0.027-0.405-0.077
			c-0.11-0.053-0.195-0.134-0.262-0.249C361.781,255.374,361.746,255.233,361.746,255.062z M362.195,255.064
			c0,0.147,0.03,0.254,0.084,0.318c0.054,0.064,0.128,0.095,0.226,0.095c0.093,0,0.17-0.03,0.221-0.095
			c0.053-0.062,0.08-0.176,0.08-0.338c0-0.137-0.027-0.24-0.082-0.302c-0.056-0.064-0.132-0.095-0.225-0.095
			c-0.092,0-0.164,0.032-0.22,0.098C362.224,254.807,362.195,254.915,362.195,255.064z"/>
		<path fill="#010101" d="M363.515,254.332h0.454v1.456h-0.454V254.332z"/>
		<path fill="#010101" d="M364.213,255.307l0.428-0.025c0.011,0.068,0.029,0.121,0.057,0.159c0.046,0.058,0.112,0.087,0.2,0.087
			c0.065,0,0.113-0.014,0.147-0.045c0.037-0.03,0.053-0.065,0.053-0.105c0-0.038-0.016-0.072-0.05-0.102
			c-0.036-0.029-0.11-0.058-0.231-0.084c-0.199-0.044-0.339-0.103-0.423-0.176c-0.084-0.073-0.125-0.168-0.125-0.283
			c0-0.074,0.018-0.146,0.065-0.211c0.042-0.069,0.106-0.119,0.195-0.158c0.086-0.037,0.206-0.056,0.358-0.056
			c0.187,0,0.326,0.033,0.427,0.102c0.097,0.071,0.154,0.18,0.172,0.331l-0.423,0.024c-0.014-0.066-0.034-0.112-0.071-0.142
			c-0.035-0.03-0.088-0.043-0.151-0.043c-0.052,0-0.091,0.011-0.12,0.033c-0.023,0.02-0.04,0.048-0.04,0.081
			c0,0.023,0.013,0.043,0.035,0.063c0.023,0.017,0.072,0.036,0.151,0.053c0.197,0.043,0.336,0.086,0.422,0.129
			c0.09,0.044,0.145,0.098,0.186,0.16c0.036,0.065,0.058,0.137,0.058,0.217c0,0.093-0.028,0.181-0.075,0.26
			c-0.053,0.078-0.125,0.139-0.218,0.179c-0.093,0.039-0.208,0.06-0.353,0.06c-0.244,0-0.418-0.047-0.51-0.143
			C364.283,255.577,364.224,255.456,364.213,255.307z"/>
		<path fill="#010101" d="M365.66,254.332h1.37v0.362h-0.462v1.095h-0.449v-1.095h-0.459V254.332z"/>
		<path fill="#010101" d="M368.179,254.332h0.451v0.869c0,0.085-0.012,0.167-0.04,0.242c-0.027,0.078-0.072,0.144-0.125,0.203
			c-0.06,0.055-0.118,0.094-0.183,0.118c-0.086,0.031-0.193,0.049-0.314,0.049c-0.075,0-0.15-0.006-0.231-0.015
			c-0.085-0.01-0.156-0.03-0.21-0.058c-0.056-0.029-0.111-0.072-0.157-0.126c-0.046-0.055-0.078-0.11-0.097-0.167
			c-0.029-0.093-0.041-0.176-0.041-0.246v-0.869h0.449v0.888c0,0.083,0.024,0.143,0.066,0.186c0.046,0.047,0.106,0.068,0.185,0.068
			c0.078,0,0.138-0.021,0.182-0.066c0.043-0.043,0.066-0.105,0.066-0.188V254.332z"/>
		<path fill="#010101" d="M368.931,255.789v-1.456h0.753c0.137,0,0.245,0.011,0.319,0.035c0.073,0.025,0.133,0.069,0.175,0.135
			c0.048,0.063,0.068,0.14,0.068,0.234c0,0.083-0.018,0.153-0.05,0.21c-0.033,0.058-0.081,0.106-0.141,0.142
			c-0.038,0.025-0.093,0.043-0.158,0.057c0.053,0.018,0.093,0.037,0.116,0.055c0.017,0.011,0.042,0.036,0.072,0.075
			c0.034,0.039,0.053,0.071,0.064,0.092l0.219,0.42h-0.509l-0.243-0.444c-0.031-0.058-0.054-0.094-0.081-0.113
			c-0.032-0.023-0.067-0.034-0.111-0.034h-0.037v0.591H368.931z M369.385,254.921h0.189c0.021,0,0.061-0.006,0.119-0.019
			c0.032-0.007,0.057-0.02,0.073-0.045c0.019-0.026,0.03-0.054,0.03-0.085c0-0.047-0.016-0.083-0.046-0.108
			c-0.027-0.026-0.086-0.037-0.17-0.037h-0.196V254.921z"/>
		<path fill="#010101" d="M370.509,254.332h1.205v0.31h-0.753v0.233h0.699v0.296h-0.699v0.289h0.777v0.328h-1.229V254.332z"/>
		<path fill="#010101" d="M359.576,256.029h1.208v0.31h-0.753v0.232h0.697v0.296h-0.697v0.289h0.775v0.33h-1.23V256.029z"/>
		<path fill="#010101" d="M360.951,256.029h0.492l0.259,0.447l0.25-0.447h0.49l-0.452,0.705l0.496,0.752h-0.509l-0.284-0.469
			l-0.289,0.469h-0.503l0.503-0.759L360.951,256.029z"/>
		<path fill="#010101" d="M363.535,256.89l0.393,0.118c-0.03,0.112-0.068,0.204-0.126,0.279c-0.057,0.074-0.127,0.131-0.214,0.168
			c-0.083,0.037-0.195,0.056-0.324,0.056c-0.155,0-0.287-0.023-0.386-0.069c-0.101-0.047-0.186-0.129-0.26-0.244
			c-0.073-0.116-0.11-0.264-0.11-0.447c0-0.239,0.064-0.425,0.195-0.555c0.126-0.13,0.306-0.195,0.543-0.195
			c0.186,0,0.326,0.036,0.432,0.11c0.104,0.075,0.187,0.189,0.236,0.343l-0.4,0.09c-0.014-0.045-0.028-0.076-0.044-0.098
			c-0.027-0.033-0.053-0.062-0.09-0.078c-0.037-0.019-0.082-0.03-0.123-0.03c-0.103,0-0.182,0.041-0.236,0.124
			c-0.041,0.06-0.064,0.156-0.064,0.287c0,0.161,0.028,0.272,0.075,0.332c0.05,0.06,0.119,0.091,0.208,0.091
			c0.084,0,0.15-0.024,0.195-0.073C363.479,257.052,363.511,256.982,363.535,256.89z"/>
		<path fill="#010101" d="M364.145,256.029h0.452v0.51h0.491v-0.51h0.453v1.457h-0.453v-0.591h-0.491v0.591h-0.452V256.029z"/>
		<path fill="#010101" d="M366.733,257.244h-0.509l-0.072,0.242h-0.458l0.546-1.457h0.493l0.545,1.457h-0.469L366.733,257.244z
			 M366.641,256.93l-0.16-0.524l-0.159,0.524H366.641z"/>
		<path fill="#010101" d="M367.426,256.029h0.42l0.551,0.806v-0.806h0.424v1.457h-0.424l-0.545-0.804v0.804h-0.426V256.029z"/>
		<path fill="#010101" d="M369.852,256.958v-0.303h0.695v0.621c-0.134,0.092-0.252,0.153-0.354,0.185
			c-0.098,0.032-0.222,0.05-0.362,0.05c-0.177,0-0.317-0.03-0.426-0.089c-0.108-0.057-0.193-0.147-0.252-0.263
			c-0.061-0.116-0.089-0.25-0.089-0.403c0-0.159,0.033-0.296,0.099-0.414c0.062-0.118,0.16-0.208,0.286-0.267
			c0.099-0.048,0.232-0.072,0.4-0.072c0.159,0,0.282,0.014,0.362,0.043c0.08,0.031,0.143,0.075,0.196,0.135
			c0.056,0.062,0.092,0.139,0.121,0.235l-0.434,0.079c-0.019-0.057-0.053-0.098-0.092-0.127c-0.042-0.03-0.097-0.044-0.165-0.044
			c-0.097,0-0.177,0.032-0.235,0.101c-0.058,0.071-0.089,0.179-0.089,0.325c0,0.159,0.03,0.271,0.089,0.339
			c0.057,0.068,0.145,0.1,0.249,0.1c0.05,0,0.099-0.005,0.144-0.021c0.046-0.015,0.099-0.038,0.155-0.074v-0.138H369.852z"/>
		<path fill="#010101" d="M370.811,256.029h1.21v0.31h-0.759v0.232h0.702v0.296h-0.702v0.289h0.779v0.33h-1.23V256.029z"/>
		<path fill="#010101" d="M361.207,258.7l0.429-0.027c0.006,0.069,0.025,0.122,0.052,0.159c0.046,0.06,0.113,0.088,0.2,0.088
			c0.066,0,0.115-0.013,0.15-0.044c0.036-0.03,0.053-0.067,0.053-0.105c0-0.038-0.016-0.073-0.051-0.102
			c-0.032-0.03-0.111-0.056-0.231-0.083c-0.197-0.046-0.338-0.106-0.419-0.178c-0.091-0.073-0.131-0.166-0.131-0.28
			c0-0.075,0.021-0.147,0.066-0.213c0.046-0.067,0.108-0.12,0.197-0.158c0.085-0.039,0.206-0.058,0.359-0.058
			c0.183,0,0.328,0.037,0.423,0.106c0.098,0.07,0.158,0.177,0.177,0.327l-0.429,0.025c-0.007-0.065-0.031-0.112-0.067-0.141
			c-0.037-0.029-0.086-0.045-0.151-0.045c-0.051,0-0.092,0.011-0.117,0.034c-0.03,0.022-0.039,0.048-0.039,0.079
			c0,0.025,0.01,0.046,0.032,0.065c0.02,0.018,0.073,0.036,0.152,0.052c0.197,0.043,0.335,0.086,0.423,0.131
			c0.084,0.042,0.145,0.097,0.184,0.16c0.04,0.064,0.06,0.135,0.06,0.216c0,0.094-0.028,0.179-0.082,0.259
			c-0.049,0.078-0.122,0.138-0.213,0.179c-0.092,0.041-0.208,0.063-0.351,0.063c-0.244,0-0.418-0.049-0.515-0.145
			C361.272,258.968,361.22,258.846,361.207,258.7z"/>
		<path fill="#010101" d="M362.605,257.726h0.504l0.29,0.49l0.295-0.49h0.495l-0.565,0.846v0.611h-0.449v-0.611L362.605,257.726z"/>
		<path fill="#010101" d="M364.172,258.7l0.428-0.027c0.008,0.069,0.027,0.122,0.054,0.159c0.045,0.06,0.113,0.088,0.198,0.088
			c0.066,0,0.116-0.013,0.15-0.044c0.035-0.03,0.053-0.067,0.053-0.105c0-0.038-0.017-0.073-0.053-0.102
			c-0.03-0.03-0.11-0.056-0.228-0.083c-0.198-0.046-0.338-0.106-0.424-0.178c-0.081-0.073-0.127-0.166-0.127-0.28
			c0-0.075,0.022-0.147,0.066-0.213c0.045-0.067,0.108-0.12,0.194-0.158c0.09-0.039,0.211-0.058,0.362-0.058
			c0.185,0,0.329,0.037,0.425,0.106c0.096,0.07,0.158,0.177,0.176,0.327l-0.428,0.025c-0.008-0.065-0.032-0.112-0.069-0.141
			c-0.034-0.029-0.086-0.045-0.151-0.045c-0.052,0-0.092,0.011-0.117,0.034c-0.029,0.022-0.04,0.048-0.04,0.079
			c0,0.025,0.011,0.046,0.032,0.065c0.021,0.018,0.073,0.036,0.153,0.052c0.192,0.043,0.338,0.086,0.423,0.131
			c0.084,0.042,0.145,0.097,0.182,0.16c0.044,0.064,0.061,0.135,0.061,0.216c0,0.094-0.025,0.179-0.078,0.259
			c-0.05,0.078-0.125,0.138-0.219,0.179c-0.091,0.041-0.206,0.063-0.345,0.063c-0.248,0-0.42-0.049-0.52-0.145
			C364.236,258.968,364.184,258.846,364.172,258.7z"/>
		<path fill="#010101" d="M365.617,257.726h1.369v0.358h-0.463v1.098h-0.45v-1.098h-0.457V257.726z"/>
		<path fill="#010101" d="M367.184,257.726h1.212v0.31h-0.759v0.232h0.701v0.296h-0.701v0.288h0.777v0.33h-1.23V257.726z"/>
		<path fill="#010101" d="M368.65,257.726h0.595l0.229,0.887l0.228-0.887h0.589v1.456h-0.367v-1.111l-0.283,1.111h-0.336
			l-0.284-1.111v1.111h-0.369V257.726z"/>
	</g>
</g>
<text transform="matrix(1 0 0 1 350.5962 267.9756)" fill="#929497" stroke="#231F20" stroke-width="0.2788" font-family="'Arial-Black'" font-size="8.0411px">LOOSE</text>
<g>
	<path fill-rule="evenodd" clip-rule="evenodd" fill="#636466" d="M491.927,312.27c-1.427,1.342-2.969,1.343-4.494,1.532
		c1.512,2.104,3.763,0.041,5.599,0.942c-0.309,0.778-1.203,0.865-1.745,1.368c0.556,0.114,2.337,0.184,3.403,0.033
		c0.522-0.073,1.141-0.455,1.46-0.186c1.049,0.883-1.466,1.519-1.877,2.084c0.508,1.771,2.6,2.379,4.083,2.739
		c1.301,0.312,3.141,1.126,4.536,2.058c-1.666-0.356-3.487-1.475-5.359-1.925c-1.313-0.315-3.893-1.004-4.047-3.062
		c0.346-1.029,1.302-0.597,1.884-1.251c-1.869-0.081-3.674,0.579-5.593-0.107c0.181-0.929,1.432-0.933,2.073-1.329
		c-1.33-0.079-4.208,0.981-5.114-1.24c-0.791-0.414-1.47-0.35-2.238-0.71c-0.738-0.341-1.261-1.126-2.053-1.496
		c-0.547-0.255-1.342,0.012-2.059-0.084c-0.82-0.105-1.455-0.223-2.12-0.719c0.603-0.536,1.286-0.011,1.937,0.094
		c0.702-0.067,1.416,0.056,2.118,0.014c0.856-1.285,3.966-2.366,4.188-0.609c-0.932,0.878-1.937,0.879-2.906,1.336
		c0.819,0.818,2.15,1.14,3.142,1.469c0.706-1.689,2.161-1.81,3.349-2.145C490.854,311.237,492.128,311.082,491.927,312.27z
		 M487.706,313.202c1.273-0.361,2.609,0.025,3.803-1.283C490.342,310.864,487.934,311.979,487.706,313.202z M485.792,310.281
		c-0.667-0.536-1.808-0.105-2.577,0.667C484.103,311.094,484.944,310.675,485.792,310.281z"/>
	<path fill-rule="evenodd" clip-rule="evenodd" fill="#636466" d="M470.655,298.204c-2.118,1.773-4.99,1.196-7.413,1.907
		c0.505,1.445,2.784,1.659,3.783,2.249c-1.067,0.531-2.229-0.066-3.412-0.867c-1.661,0.601-6.021,3.599-6.537,0.869
		c1.558-1.334,3.203-1.621,4.801-2.456c-0.916-0.447-1.775-0.231-2.727-1.119c-1.431,0.502-2.864,1.312-4.343,1.775
		c-0.802,0.252-1.975,0.626-2.523-0.235c1.249-1.492,3.164-1.524,4.67-2.448c-1.488-0.679-3.451-0.362-5.198-1.552
		c-0.084-0.229,0.233-0.492,0.26-0.729c-0.643-0.097-1.252-0.114-1.943-0.222c-0.557-0.085-1.372-0.027-1.89-0.29
		c-0.278-0.144-0.509-0.572-0.826-0.701c-0.447-0.179-2.897,0.044-3.451,0.163c-0.323,0.07-0.611,0.348-0.86,0.457
		c-0.18-0.115-0.358-0.158-0.531-0.211c-0.916,0.051-1.849-0.091-2.747,0.165c-0.778-0.128-1.628-0.102-2.455-0.178
		c-0.766-0.07-1.691-0.025-2.291-0.513c0.664-0.363,1.444-0.058,2.12,0.014c1.332,0.144,2.64,0.069,4.054,0.108
		c0.25-0.191-0.208-0.324,0.084-0.519c2.04,0.834,3.931-0.063,5.906,0.016c0.779-1.576,2.702-2.641,4.419-3.13
		c1.206-0.343,3.296-0.343,3.738,0.906c-1.97,2.546-4.779,1.69-7.094,2.649c1.368,0.944,3.155,0.415,4.686,0.762
		c0.106,0.31-0.426,0.679-0.493,1.004c1.323,0.504,2.755,0.901,4.071,1.071c0.679,0.086,1.643,0.285,2.323,0.19
		c1.769-0.249,3.85-1.786,5.791-1.387c0.475-0.187,0.932-0.599,1.471-0.061c-0.955,1.171-2.561,1.114-3.768,1.796
		c-0.979,0.013-1.943,0.269-2.929,0.246c1.605,2.422,5.558,1.061,7.813,0.562c1.133-0.252,2.126-0.365,3.094-0.581
		C470.424,298.01,470.542,298.108,470.655,298.204z M461.444,297.052c0.735,0.098,1.79-0.058,2.263-0.575
		C462.944,296.557,462.189,296.765,461.444,297.052z M453.75,291.026c-1.981,0.346-3.982,0.472-5.823,2.541
		c2.314-0.206,4.668,0.03,6.839-1.921C454.325,291.363,454.066,291.557,453.75,291.026z M457.619,302.699
		c1.87,0.848,3.528-0.761,5.264-1.468c0.143-0.375,0.051-0.732,0.105-1.099C461.221,300.796,459.113,301.397,457.619,302.699z
		 M453.05,300.262c1.929,0.056,4.036-1.004,5.655-2.207c0.032-0.047,0.06-0.093-0.011-0.129
		C456.795,298.54,454.899,299.125,453.05,300.262z"/>
	<path fill-rule="evenodd" clip-rule="evenodd" fill="#636466" d="M448.725,285.477c-0.008,0.459-0.602,0.422-0.836,0.713
		c0.407,0.31,0.509,0.641,0.976,0.945c0.353,1.909-3.673,3.561-4.615,2.377c-0.836-1.057,1.334-2.335,2.176-3.136
		c-1.452-0.516-3.242-0.433-4.906-0.358c-2.273,0.102-4.453,0.735-6.626,2.098c-0.13,0.418-0.555,0.862-0.731,1.281
		c-0.093,1.576,2.535,2.271,3.34,3.057c-1.596-0.359-4.238-1.869-3.772-3.661c1.796-2.344,4.33-2.966,6.528-3.245
		c2.1-0.265,4.728-0.236,6.84,0.45C447.642,285.83,448.169,285.467,448.725,285.477z M447.397,286.489
		c-0.958,0.22-2.919,1.635-2.656,2.726c1.216-0.025,2.433-0.079,3.529-1.516C448.058,287.287,447.863,286.877,447.397,286.489z"/>
	<path fill-rule="evenodd" clip-rule="evenodd" fill="#636466" d="M487.775,301.66c-1.026,0.37-1.983,0.876-2.972,1.276
		c-0.477,0.195-1.079,0.137-1.578,0.325c-0.85,0.324-1.39,0.62-2.173,0.888c-2.385,0.819-4.935,1.379-7.08,2.777
		c0.647,0.695,2.011-0.362,2.686,0.61c-0.845,1.205-2.35,1.061-3.444,1.828c-0.073,0.773,0.951,2.106,1.702,1.913
		c-0.176-0.565-0.777-1.09-0.846-1.662c1.13-0.703,3.047-0.743,3.337-2.271c-0.252-0.503-1.142-0.556-1.348-0.785
		c2.878-1.347,5.69-2.163,8.66-3.102c1.1-0.347,2.011-0.771,3.168-1.229c0.98-0.386,1.796-0.471,2.534-1.177
		c0.031-0.066,0.012-0.128-0.081-0.184C489.691,301.197,488.652,301.343,487.775,301.66z M479.108,300.848
		c0.118,0.264,0.509,0.107,0.417,0.349c-1.603,1.1-3.223,1.947-4.816,3.038c-1.246,0.437-2.464,1.209-3.69,1.977
		c-1.024,0.305-2.081,0.879-3.157,1.358c-1.017,0.451-2.313,0.707-2.88,1.589c1.531,0.14,2.913-1.463,4.423-1.591
		c3.029-1.594,6.059-3.254,9.075-5c0.664-0.838,2.053-0.988,2.266-2.115C480.183,300.379,479.633,300.494,479.108,300.848z
		 M457.152,293.194c0.217,0.43,0.76,0.406,1.081-0.156C457.849,292.771,457.48,292.719,457.152,293.194z M449.641,299.986
		c-1.107-1.583-2.25-3.239-4.041-3.768c2.165,1.53,3.607,3.617,4.377,5.472C450.573,301.063,449.504,300.577,449.641,299.986z
		 M444.39,295.55c0.402,0.192,0.837,0.791,1.199,0.54C445.168,295.638,444.781,295.645,444.39,295.55z M437.45,292.409
		c0.519,0.278,1.058,0.859,1.525,0.579C438.458,292.692,437.94,292.36,437.45,292.409z"/>
</g>
  <g id="CUSTOM"></g>
</svg>
