<?xml version="1.0" encoding="utf-8"?>
<!-- Generator: Adobe Illustrator 16.0.0, SVG Export Plug-In . SVG Version: 6.00 Build 0)  -->
<!DOCTYPE svg PUBLIC "-//W3C//DTD SVG 1.1//EN" "http://www.w3.org/Graphics/SVG/1.1/DTD/svg11.dtd">
<svg version="1.1" id="Layer_1" xmlns="http://www.w3.org/2000/svg" xmlns:xlink="http://www.w3.org/1999/xlink" x="0px" y="0px"
	 width="612px" height="792px" viewBox="0 0 452 756" enable-background="new 0 0 612 792" xml:space="preserve">
<g>
	<defs>
		<rect id="SVGID_1_" x="34.923" y="40.702" width="547" height="707.882"/>
	</defs>
	<clipPath id="SVGID_2_">
		<use xlink:href="#SVGID_1_"  overflow="visible"/>
	</clipPath>
	<g clip-path="url(#SVGID_2_)">
		<defs>
			<rect id="SVGID_3_" x="34.923" y="40.702" width="547" height="707.882"/>
		</defs>
		<clipPath id="SVGID_4_">
			<use xlink:href="#SVGID_3_"  overflow="visible"/>
		</clipPath>
    <g id="S24_MASK">
    <g id="BODY">
		<path clip-path="url(#SVGID_4_)" fill="#FDBB2D" d="M447.75,122.432c0,0-16.265-5.422-39.157-14.458
			c-14.45-5.704-27.213-14.285-35.425-20.446c-4.068,4.435-21.082,19.821-61.66,20.222c-40.234,0.399-59.611-16.811-64.767-22.309
			c-7.93,6.166-21.985,16.15-38.154,22.533c-22.893,9.036-39.159,14.458-39.159,14.458s-0.533,0.387-1.362,0.958v0.005
			c0.009,0.459,0.022,0.969,0.038,1.512c0.001,0.044,0.003,0.089,0.004,0.133c0.008,0.255,0.016,0.516,0.026,0.784
			c0,0.017,0,0.032,0,0.048c0.01,0.281,0.021,0.57,0.032,0.866c0.003,0.058,0.005,0.117,0.008,0.176
			c0.009,0.237,0.02,0.48,0.03,0.726c0.004,0.074,0.006,0.148,0.01,0.224c0.014,0.3,0.029,0.604,0.045,0.915
			c0.002,0.039,0.005,0.079,0.006,0.119c0.013,0.268,0.028,0.538,0.043,0.811c0.006,0.096,0.012,0.191,0.018,0.287
			c0.015,0.259,0.032,0.52,0.049,0.781c0.004,0.061,0.007,0.121,0.011,0.182c0.021,0.316,0.044,0.635,0.067,0.951
			c0.006,0.087,0.014,0.173,0.02,0.259c0.019,0.245,0.039,0.487,0.058,0.732c0.008,0.096,0.016,0.193,0.024,0.291
			c0.028,0.318,0.056,0.637,0.086,0.952c0.003,0.035,0.006,0.07,0.01,0.105c0.028,0.285,0.056,0.567,0.086,0.849
			c0.011,0.095,0.021,0.19,0.031,0.284c0.027,0.25,0.056,0.497,0.085,0.742c0.009,0.071,0.016,0.142,0.025,0.212
			c0.037,0.304,0.076,0.604,0.117,0.901c0.01,0.072,0.021,0.143,0.031,0.215c0.033,0.234,0.067,0.466,0.103,0.693
			c0.014,0.082,0.026,0.166,0.038,0.247c0.047,0.288,0.094,0.572,0.145,0.847c1.283,7.052,8.335,33.022,9.939,40.716
			c1.603,7.695,8.976,48.41,9.938,53.22c0.066,0.33,0.126,0.677,0.181,1.033c0.004,0.031,0.008,0.06,0.014,0.09
			c0.049,0.333,0.095,0.677,0.135,1.027c0.004,0.037,0.009,0.074,0.014,0.113c0.041,0.354,0.076,0.714,0.107,1.08
			c0.002,0.026,0.005,0.052,0.007,0.079c0.034,0.389,0.062,0.781,0.088,1.174c0,0.006,0,0.012,0.001,0.017
			c0.025,0.389,0.045,0.778,0.063,1.164c0.001,0.032,0.003,0.063,0.003,0.095c0.016,0.366,0.03,0.727,0.04,1.083l0.003,0.095
			c0.011,0.369,0.02,0.731,0.025,1.083v0.019c0.006,0.368,0.01,0.724,0.012,1.064c0.019-0.048,0.031-0.076,0.031-0.076
			s3.614,19.278,3.011,27.109c-0.602,7.831,3.616,56.628,6.626,71.688c3.012,15.062,6.628,53.617,3.617,69.883
			c-0.99,5.344-2.437,13.623-3.995,22.985c1.728,0.069,2.96,0.886,3.695,2.023c2.559,0.498,4.968,1.607,7.327,3.192
			c1.259,0.847,2.573,1.885,3.951,2.857c0.274,0.025,0.554,0.065,0.844,0.135c18.365,4.419,37.084,6.701,55.831,8.762h46.762
			c0.746-0.56,1.714-0.902,2.909-0.893c2.589,0.018,5.173,0.105,7.757,0.146c0.61-0.338,1.299-0.563,2.074-0.594
			c11.209-0.443,22.396-0.847,33.597-1.45c7.63-0.412,15.443,0.458,23.076-0.24c0.781-0.9,1.993-1.483,3.658-1.438
			c4.809,0.134,9.257-2.39,13.888-3.4c0.812-0.177,1.555-0.151,2.231,0.001c0.001,0,0.002-0.001,0.003-0.001
			c0.355-0.118,0.705-0.251,1.057-0.378c0.234-0.12,0.46-0.257,0.679-0.401c0.851-0.683,1.871-1.05,2.902-1.117
			c0.835-1.035,2.076-1.728,3.462-1.833c0.535-1.306,1.273-2.464,2.196-3.416c-1.059-10.001-1.905-18.73-3.055-24.941
			c-3.013-16.267,0.602-54.822,3.614-69.883c3.013-15.06,7.229-63.857,6.627-71.688c-0.519-6.738,2.083-21.936,2.819-26.053
			c-0.014-2.764,0.078-7.13,0.691-10.197c0.962-4.81,8.336-45.525,9.939-53.22c1.603-7.694,8.656-33.664,9.938-40.716
			c0.906-4.978,1.172-12.185,1.249-16C448.188,122.749,447.75,122.432,447.75,122.432z"/>
	</g>
</g>
    <g id="SHORT_MASK">
           <g id="LEGS">
		<path clip-path="url(#SVGID_10_)" fill="#004D2A" d="M452.885,616.956c-0.382-2.797-4.702-31.38-5.083-34.43
			c-0.382-3.047-4.064-24.646-4.321-26.423c-0.253-1.779-4.062-12.959-6.096-19.818c-2.035-6.862-8-26.477-8.713-29.402
			c-0.716-2.93-1.913-9.196-2.065-10.283c-0.149-1.09-0.412-5.029-0.488-5.781c-0.075-0.751-1.124-4.39-1.124-4.39
			s-0.263-1.84-0.677-4.054c-0.413-2.215-0.601-4.955-0.601-4.955s0.075-1.275,0.075-2.401c0-1.125-0.6-2.703-0.6-2.703
			s0-1.501-0.225-3.565s-1.239-3.49-1.239-3.49l-2.253-8.707c0,0-0.113-0.225-0.525-1.313c-0.412-1.088-0.262-3.527-0.225-3.791
			c0.037-0.263,0.149-2.589,0.149-3.339c0-0.751,0.149-4.654-0.112-5.328c-0.261-0.677-0.524-2.366-0.712-3.491
			c-0.188-1.126-0.15-3.903-0.076-4.241c0.078-0.338-0.6-2.178-0.789-1.689c-0.187,0.489-1.35,1.989-2.138,3.604
			c-0.79,1.614-4.337,3.677-4.337,3.677c-1.825,0.996-7.408,3.511-22.508,5.335c-15.102,1.826-42.647,2.489-84.136,3.983
			c-41.487,1.491-51.111-1.494-70.029-4.15c-18.919-2.654-36.508-12.611-36.508-12.611s0.508,1.963,0.508,4.376
			c0,2.415-1.018,3.687-1.271,4.957c-0.253,1.27,0.508,3.81,0.508,4.572c0,0.762-0.508,1.906-0.635,2.541
			c-0.126,0.634,0.127,1.652,0.127,2.414c0,0.763-0.382,3.43-0.761,4.193c-0.381,0.762-1.651,5.844-2.033,8.003
			c-0.38,2.158-1.524,11.052-1.779,12.448c-0.255,1.4-0.635,9.275-1.016,10.801c-0.38,1.523-1.352,11.052-1.479,12.196
			c-0.127,1.143-2.795,9.909-3.048,10.671c-0.254,0.762-4.425,17.15-5.568,19.691c-1.143,2.541-3.026,14.102-3.279,14.864
			c-0.254,0.763-3.326,17.276-4.724,25.535c-1.397,8.259-4.828,24.011-5.97,29.472c-1.145,5.464-2.542,22.869-2.668,30.873
			c-0.128,8.003-0.553,34.811-0.553,36.08s1.777,17.023,1.904,17.913c0.128,0.887,1.802,4.7,1.802,5.081s1.27,18.709,1.397,19.978
			c0.127,1.271,3.199,12.959,3.199,12.959s0,1.778,0.381,2.667c0.381,0.889,1.143,1.525,2.287,1.906s6.098,1.649,19.312,3.175
			c13.21,1.525,32.962,0.128,44.396-1.525c11.433-1.65,22.612-5.332,22.612-5.332s0.409,0.023,0.942,0.04
			c0.744-6.631,3.913-34.641,4.585-37.997c0.762-3.812,8.957-44.783,10.864-52.405c1.904-7.622,3.048-18.293,11.05-20.771
			c8.005-2.479,25.072-0.535,32.207,6.478c11.243,11.054,13.147,30.3,15.816,40.973c2.668,10.669,6.859,28.775,7.052,31.441
			c0.19,2.668,2.667,11.053,2.667,11.053l-0.763,1.333c0,0-0.19,1.716,0.571,2.668c0.762,0.953,1.145,2.098,0.572,2.86
			c-0.572,0.762-0.952,1.906-0.572,2.668c0.383,0.762,1.907,3.238,1.907,3.812c0,0.348-0.013,2.692-0.021,4.478
			c0.766,0.089,1.544,0.16,1.544,0.16s14.483,4.446,33.412,6.605c18.928,2.159,40.272-0.38,45.734-0.763
			c5.462-0.379,12.449-1.524,14.102-1.904c1.651-0.381,2.035-1.398,2.541-2.161c0.508-0.762,0.89-7.748,0.89-8.258v-2.158
			c0,0-0.382-1.018-0.382-1.523c0-0.508,0.891-1.018,1.271-1.653c0.383-0.637-0.255-2.032-0.255-2.032s-0.254-1.779-0.254-2.288
			s0.381-4.192,0.381-5.208c0-1.018,1.017-7.369,1.271-8.768c0.255-1.396,2.032-14.607,2.795-19.053
			c0.762-4.446,1.524-18.423,1.905-28.078C453.394,633.6,453.265,619.751,452.885,616.956"/>
	</g>
       	</g>
	</g>
  <g id="CUSTOM"></g>
	<g clip-path="url(#SVGID_2_)">
		<defs>
			<rect id="SVGID_5_" x="34.923" y="40.702" width="547" height="707.882"/>
		</defs>
		<clipPath id="SVGID_6_">
			<use xlink:href="#SVGID_5_"  overflow="visible"/>
		</clipPath>
     <g id="SLEEVES">
		<path clip-path="url(#SVGID_6_)" fill="#FDBB2D" d="M441.82,210.465c-0.005,0.018-0.008,0.031-0.008,0.031
			S441.815,210.482,441.82,210.465"/>
		<path clip-path="url(#SVGID_6_)" fill="#004D86" d="M189.869,241.327v-0.019c-0.005-0.352-0.014-0.714-0.025-1.083l-0.002-0.095
			c-0.011-0.357-0.025-0.718-0.041-1.083c0-0.032-0.002-0.064-0.003-0.096c-0.018-0.385-0.039-0.774-0.063-1.163
			c-0.001-0.004-0.001-0.01-0.001-0.017c-0.026-0.392-0.054-0.785-0.088-1.174c-0.001-0.027-0.004-0.053-0.006-0.079
			c-0.032-0.365-0.067-0.726-0.108-1.08c-0.004-0.039-0.009-0.076-0.014-0.113c-0.04-0.351-0.085-0.694-0.135-1.028
			c-0.005-0.029-0.009-0.061-0.015-0.09c-0.054-0.356-0.114-0.703-0.18-1.033c-0.961-4.809-8.335-45.526-9.938-53.22
			c-1.604-7.694-8.656-33.664-9.939-40.716c-0.05-0.274-0.098-0.559-0.145-0.846c-0.012-0.081-0.024-0.165-0.038-0.247
			c-0.035-0.228-0.07-0.459-0.103-0.693c-0.01-0.072-0.021-0.143-0.031-0.215c-0.041-0.297-0.08-0.597-0.117-0.901
			c-0.009-0.07-0.016-0.141-0.025-0.212c-0.029-0.245-0.058-0.492-0.085-0.742c-0.011-0.095-0.021-0.189-0.031-0.284
			c-0.029-0.281-0.058-0.563-0.085-0.85c-0.004-0.035-0.007-0.069-0.011-0.104c-0.03-0.316-0.057-0.634-0.085-0.952
			c-0.008-0.098-0.016-0.194-0.024-0.291c-0.02-0.244-0.039-0.488-0.058-0.732c-0.006-0.086-0.014-0.172-0.02-0.258
			c-0.023-0.318-0.047-0.636-0.067-0.952c-0.004-0.061-0.007-0.121-0.011-0.182c-0.017-0.262-0.034-0.522-0.05-0.781
			c-0.005-0.096-0.01-0.191-0.017-0.287c-0.015-0.272-0.03-0.543-0.043-0.811c-0.001-0.039-0.004-0.08-0.006-0.119
			c-0.016-0.311-0.031-0.614-0.045-0.915c-0.003-0.076-0.006-0.15-0.009-0.225c-0.011-0.245-0.022-0.488-0.031-0.725
			c-0.003-0.06-0.005-0.118-0.008-0.176c-0.011-0.296-0.022-0.585-0.032-0.866c0-0.016,0-0.032,0-0.048
			c-0.01-0.269-0.019-0.53-0.026-0.784c-0.001-0.045-0.003-0.089-0.004-0.133c-0.016-0.544-0.028-1.052-0.038-1.513
			c0-0.001,0-0.002-0.001-0.004c-2.128,1.469-6.277,4.2-8.878,5.066c-3.615,1.205-24.098,16.869-30.122,37.954
			c-6.024,21.085-7.229,72.894-7.229,72.894l-1.807,9.036l-1.807,5.423c0,0,21.085,5.422,39.158,6.627
			c18.074,1.205,29.52,1.205,29.52,1.205s1.204-1.205,0.602-4.819c-0.602-3.616-1.206-4.82-0.602-6.628
			c0.563-1.689,2.704-7.062,2.981-7.755C189.88,242.051,189.875,241.695,189.869,241.327"/>
		<path clip-path="url(#SVGID_6_)" fill="#004D86" d="M497.149,248.339l-1.807-9.036c0,0-1.205-51.809-7.229-72.895
			c-6.024-21.084-26.509-36.749-30.123-37.953c-2.689-0.896-7.044-3.793-9.099-5.217c-0.077,3.815-0.343,11.022-1.249,16
			c-1.281,7.053-8.335,33.022-9.938,40.716c-1.604,7.695-8.978,48.41-9.939,53.22c-0.613,3.066-0.705,7.433-0.691,10.196
			c0.12-0.668,0.193-1.055,0.193-1.055s2.408,6.024,3.011,7.831c0.603,1.808,0,3.013-0.603,6.628
			c-0.602,3.613,0.603,4.819,0.603,4.819s11.446,0,29.521-1.206c18.072-1.205,39.155-6.627,39.155-6.627L497.149,248.339z"/>
	</g>
    </g>
	<g clip-path="url(#SVGID_2_)">
		<defs>
			<rect id="SVGID_7_" x="34.923" y="40.702" width="547" height="707.882"/>
		</defs>
		<clipPath id="SVGID_8_">
			<use xlink:href="#SVGID_7_"  overflow="visible"/>
		</clipPath>
     <g id="COLLAR">
		<path clip-path="url(#SVGID_8_)" fill="#BF2A43" d="M311.508,107.75c40.578-0.401,57.592-15.787,61.66-20.222
			c-4.797-3.601-8.045-6.378-9.155-7.266c-3.012-2.41-3.012-4.217-6.023-6.024c-3.013-1.807-4.218-7.229-10.243-10.242
			c-3.833-1.917-21.088-2.614-33.128-2.867l-0.004-0.144c0,0-2.368,0-6.024,0.044c-3.657-0.044-6.025-0.044-6.025-0.044
			l-0.004,0.144c-12.04,0.253-29.295,0.95-33.129,2.867c-6.024,3.013-7.229,8.435-10.242,10.242
			c-3.012,1.807-3.012,3.615-6.023,6.024c-0.885,0.708-3.128,2.615-6.424,5.18C251.896,90.939,271.274,108.149,311.508,107.75"/>
	</g>
    </g>
	<g clip-path="url(#SVGID_2_)">
		<defs>
			<rect id="SVGID_9_" x="34.923" y="40.702" width="547" height="707.882"/>
		</defs>
		<clipPath id="SVGID_10_">
			<use xlink:href="#SVGID_9_"  overflow="visible"/>
		</clipPath>
     
    	</g>
	<g clip-path="url(#SVGID_2_)">
		<defs>
			<rect id="SVGID_11_" x="34.923" y="40.702" width="547" height="707.882"/>
		</defs>
		<clipPath id="SVGID_12_">
			<use xlink:href="#SVGID_11_"  overflow="visible"/>
		</clipPath>
    <g id="CROTCH">
		<path clip-path="url(#SVGID_12_)" fill="#FDBB2D" d="M346.169,712.047c-0.38-0.762,0-1.906,0.572-2.668
			c0.572-0.763,0.189-1.907-0.572-2.86c-0.763-0.952-0.571-2.668-0.571-2.668l0.763-1.333c0,0-2.477-8.385-2.668-11.053
			c-0.191-2.666-4.383-20.772-7.051-31.441c-2.67-10.673-4.573-29.919-15.816-40.973c-7.135-7.013-24.201-8.956-32.208-6.478
			c-8.001,2.478-9.145,13.148-11.051,20.771c-1.904,7.622-10.1,48.593-10.862,52.405c-0.672,3.356-3.84,31.366-4.585,37.997
			c0.669,0.021,1.541,0.029,2.106-0.04c1.018-0.129,1.906-1.398,1.906-1.398s2.159-0.508,4.193-1.018
			c2.031-0.509,4.064-1.65,5.844-3.431c1.78-1.778,1.143-5.208,1.143-5.208s1.271-4.827,1.651-6.225
			c0.382-1.398,2.668-6.099,3.177-7.241c0.508-1.143,0.382-10.704,0.382-10.704s6.096-14.611,9.78-26.044
			c3.685-11.435,11.816-49.802,11.816-49.802l7.495,2.286c0,0,1.651,5.718,1.778,7.497c0.129,1.78,3.303,13.849,3.938,16.389
			c0.637,2.54,5.082,18.04,6.605,22.486c1.524,4.446,8.641,23.504,9.911,26.552c1.27,3.05,4.319,9.273,4.446,9.909
			c0.126,0.636,0.126,1.78,0.126,2.413c0,0.635,0.382,2.542,0.382,2.542l0.763,1.018c0,0,0,1.269,0.128,1.906
			c0.127,0.634,0.633,1.904,0.762,2.284c0.128,0.383,1.145,4.956,1.145,4.956v1.396l0.252,1.271c0,0,1.144,1.776,1.524,2.412
			c0.382,0.637,3.049,2.161,3.94,2.287c0.226,0.032,0.482,0.064,0.741,0.095c0.009-1.785,0.021-4.13,0.021-4.478
			C348.076,715.285,346.552,712.809,346.169,712.047"/>
	</g>
    </g>
	<g clip-path="url(#SVGID_2_)">
		<defs>
			<rect id="SVGID_13_" x="34.923" y="40.702" width="547" height="707.882"/>
		</defs>
		<clipPath id="SVGID_14_">
			<use xlink:href="#SVGID_13_"  overflow="visible"/>
		</clipPath>
		<g opacity="0.03" clip-path="url(#SVGID_14_)">
			<g>
				<defs>
					<rect id="SVGID_15_" x="132.917" y="62.487" width="355.199" height="668.457"/>
				</defs>
				<clipPath id="SVGID_16_">
					<use xlink:href="#SVGID_15_"  overflow="visible"/>
				</clipPath>
				<path clip-path="url(#SVGID_16_)" fill-rule="evenodd" clip-rule="evenodd" d="M178.573,677.644
					c-2.755,0-4.999,2.242-4.999,4.998s2.243,4.996,4.999,4.996h8.804c2.757,0,5-2.24,5-4.996s-2.242-4.998-4.998-4.998H178.573"/>
				<path clip-path="url(#SVGID_16_)" d="M178.573,677.644v-0.315c-2.931,0-5.316,2.381-5.316,5.313
					c0,2.932,2.385,5.313,5.316,5.313h8.804c2.932-0.001,5.317-2.382,5.317-5.313c0-2.933-2.384-5.313-5.315-5.313h-8.806V677.644
					v0.318h8.806c1.291,0,2.459,0.524,3.307,1.372c0.848,0.849,1.372,2.017,1.372,3.308s-0.524,2.459-1.373,3.308
					c-0.848,0.848-2.017,1.371-3.309,1.371h-8.804c-1.29,0-2.458-0.523-3.309-1.371c-0.847-0.849-1.372-2.017-1.372-3.308
					s0.524-2.459,1.373-3.308c0.849-0.848,2.018-1.372,3.308-1.372V677.644"/>
				<path clip-path="url(#SVGID_16_)" fill-rule="evenodd" clip-rule="evenodd" d="M187.379,678.102c2.508,0,4.54,2.034,4.54,4.54
					c0,2.508-2.032,4.543-4.542,4.543h-8.804c-2.506,0-4.541-2.035-4.541-4.543c0-2.506,2.035-4.54,4.541-4.54H187.379"/>
				<path clip-path="url(#SVGID_16_)" d="M187.379,678.102v0.158c1.21,0,2.305,0.491,3.098,1.284
					c0.793,0.794,1.282,1.889,1.282,3.098c0,1.211-0.489,2.306-1.282,3.1c-0.793,0.793-1.889,1.284-3.1,1.284h-8.804
					c-1.21,0-2.305-0.491-3.097-1.284c-0.794-0.794-1.284-1.889-1.284-3.1c0-1.209,0.489-2.304,1.284-3.098
					c0.792-0.793,1.887-1.284,3.097-1.284h8.806V678.102v-0.159h-8.806c-2.595,0-4.698,2.104-4.698,4.699
					c0,2.596,2.103,4.701,4.698,4.701h8.804c2.597,0,4.7-2.105,4.7-4.701c0-2.595-2.103-4.699-4.698-4.699V678.102"/>
				<path clip-path="url(#SVGID_16_)" d="M175.434,682.629c0-1.754,1.36-3.188,3.085-3.305v6.608
					C176.794,685.817,175.434,684.381,175.434,682.629"/>
				<polygon clip-path="url(#SVGID_16_)" fill-rule="evenodd" clip-rule="evenodd" points="181.943,682.197 179.063,679.316 
					181.943,679.316 				"/>
				<polygon clip-path="url(#SVGID_16_)" fill-rule="evenodd" clip-rule="evenodd" points="181.943,683.062 179.063,685.94 
					181.943,685.94 				"/>
				<polygon clip-path="url(#SVGID_16_)" fill-rule="evenodd" clip-rule="evenodd" points="185.556,682.197 188.435,679.316 
					185.556,679.316 				"/>
				<polygon clip-path="url(#SVGID_16_)" fill-rule="evenodd" clip-rule="evenodd" points="185.556,683.062 188.435,685.94 
					185.556,685.94 				"/>
				<rect x="182.556" y="679.316" clip-path="url(#SVGID_16_)" width="2.389" height="6.624"/>
				<path clip-path="url(#SVGID_16_)" fill-rule="evenodd" clip-rule="evenodd" d="M178.573,677.644
					c-2.755,0-4.999,2.242-4.999,4.998s2.243,4.996,4.999,4.996h8.804c2.757,0,5-2.24,5-4.996s-2.242-4.998-4.998-4.998H178.573"/>
				<path clip-path="url(#SVGID_16_)" d="M178.573,677.644v-0.315c-2.931,0-5.316,2.381-5.316,5.313
					c0,2.932,2.385,5.313,5.316,5.313h8.804c2.932-0.001,5.317-2.382,5.317-5.313c0-2.933-2.384-5.313-5.315-5.313h-8.806V677.644
					v0.318h8.806c1.291,0,2.459,0.524,3.307,1.372c0.848,0.849,1.372,2.017,1.372,3.308s-0.524,2.459-1.373,3.308
					c-0.848,0.848-2.017,1.371-3.309,1.371h-8.804c-1.29,0-2.458-0.523-3.309-1.371c-0.847-0.849-1.372-2.017-1.372-3.308
					s0.524-2.459,1.373-3.308c0.849-0.848,2.018-1.372,3.308-1.372V677.644"/>
				<path clip-path="url(#SVGID_16_)" fill-rule="evenodd" clip-rule="evenodd" d="M187.379,678.102c2.508,0,4.54,2.034,4.54,4.54
					c0,2.508-2.032,4.543-4.542,4.543h-8.804c-2.506,0-4.541-2.035-4.541-4.543c0-2.506,2.035-4.54,4.541-4.54H187.379"/>
				<path clip-path="url(#SVGID_16_)" d="M187.379,678.102v0.158c1.21,0,2.305,0.491,3.098,1.284
					c0.793,0.794,1.282,1.889,1.282,3.098c0,1.211-0.489,2.306-1.282,3.1c-0.793,0.793-1.889,1.284-3.1,1.284h-8.804
					c-1.21,0-2.305-0.491-3.097-1.284c-0.794-0.794-1.284-1.889-1.284-3.1c0-1.209,0.489-2.304,1.284-3.098
					c0.792-0.793,1.887-1.284,3.097-1.284h8.806V678.102v-0.159h-8.806c-2.595,0-4.698,2.104-4.698,4.699
					c0,2.596,2.103,4.701,4.698,4.701h8.804c2.597,0,4.7-2.105,4.7-4.701c0-2.595-2.103-4.699-4.698-4.699V678.102"/>
				<path clip-path="url(#SVGID_16_)" d="M175.434,682.629c0-1.754,1.36-3.188,3.085-3.305v6.608
					C176.794,685.817,175.434,684.381,175.434,682.629"/>
				<polygon clip-path="url(#SVGID_16_)" fill-rule="evenodd" clip-rule="evenodd" points="181.943,682.197 179.063,679.316 
					181.943,679.316 				"/>
				<polygon clip-path="url(#SVGID_16_)" fill-rule="evenodd" clip-rule="evenodd" points="181.943,683.062 179.063,685.94 
					181.943,685.94 				"/>
				<polygon clip-path="url(#SVGID_16_)" fill-rule="evenodd" clip-rule="evenodd" points="185.556,682.197 188.435,679.316 
					185.556,679.316 				"/>
				<polygon clip-path="url(#SVGID_16_)" fill-rule="evenodd" clip-rule="evenodd" points="185.556,683.062 188.435,685.94 
					185.556,685.94 				"/>
				<rect x="182.556" y="679.316" clip-path="url(#SVGID_16_)" width="2.389" height="6.624"/>
				<path clip-path="url(#SVGID_16_)" fill-rule="evenodd" clip-rule="evenodd" d="M178.573,677.644
					c-2.755,0-4.999,2.242-4.999,4.998s2.243,4.996,4.999,4.996h8.804c2.757,0,5-2.24,5-4.996s-2.242-4.998-4.998-4.998H178.573"/>
				<path clip-path="url(#SVGID_16_)" d="M178.573,677.644v-0.315c-2.931,0-5.316,2.381-5.316,5.313
					c0,2.932,2.385,5.313,5.316,5.313h8.804c2.932-0.001,5.317-2.382,5.317-5.313c0-2.933-2.384-5.313-5.315-5.313h-8.806V677.644
					v0.318h8.806c1.291,0,2.459,0.524,3.307,1.372c0.848,0.849,1.372,2.017,1.372,3.308s-0.524,2.459-1.373,3.308
					c-0.848,0.848-2.017,1.371-3.309,1.371h-8.804c-1.29,0-2.458-0.523-3.309-1.371c-0.847-0.849-1.372-2.017-1.372-3.308
					s0.524-2.459,1.373-3.308c0.849-0.848,2.018-1.372,3.308-1.372V677.644"/>
				<path clip-path="url(#SVGID_16_)" fill-rule="evenodd" clip-rule="evenodd" d="M187.379,678.102c2.508,0,4.54,2.034,4.54,4.54
					c0,2.508-2.032,4.543-4.542,4.543h-8.804c-2.506,0-4.541-2.035-4.541-4.543c0-2.506,2.035-4.54,4.541-4.54H187.379"/>
				<path clip-path="url(#SVGID_16_)" d="M187.379,678.102v0.158c1.21,0,2.305,0.491,3.098,1.284
					c0.793,0.794,1.282,1.889,1.282,3.098c0,1.211-0.489,2.306-1.282,3.1c-0.793,0.793-1.889,1.284-3.1,1.284h-8.804
					c-1.21,0-2.305-0.491-3.097-1.284c-0.794-0.794-1.284-1.889-1.284-3.1c0-1.209,0.489-2.304,1.284-3.098
					c0.792-0.793,1.887-1.284,3.097-1.284h8.806V678.102v-0.159h-8.806c-2.595,0-4.698,2.104-4.698,4.699
					c0,2.596,2.103,4.701,4.698,4.701h8.804c2.597,0,4.7-2.105,4.7-4.701c0-2.595-2.103-4.699-4.698-4.699V678.102"/>
				<path clip-path="url(#SVGID_16_)" d="M175.434,682.629c0-1.754,1.36-3.188,3.085-3.305v6.608
					C176.794,685.817,175.434,684.381,175.434,682.629"/>
				<polygon clip-path="url(#SVGID_16_)" fill-rule="evenodd" clip-rule="evenodd" points="181.943,682.197 179.063,679.316 
					181.943,679.316 				"/>
				<polygon clip-path="url(#SVGID_16_)" fill-rule="evenodd" clip-rule="evenodd" points="181.943,683.062 179.063,685.94 
					181.943,685.94 				"/>
				<polygon clip-path="url(#SVGID_16_)" fill-rule="evenodd" clip-rule="evenodd" points="185.556,682.197 188.435,679.316 
					185.556,679.316 				"/>
				<polygon clip-path="url(#SVGID_16_)" fill-rule="evenodd" clip-rule="evenodd" points="185.556,683.062 188.435,685.94 
					185.556,685.94 				"/>
				<rect x="182.556" y="679.316" clip-path="url(#SVGID_16_)" width="2.389" height="6.624"/>
				<path clip-path="url(#SVGID_16_)" d="M417.643,433.663c-0.005,0-0.011,0-0.017,0.001c0,0-1.173,2.579-2.171,3.798
					c3.05,17.554,6.804,39.08,9.712,51.849c3.116,13.662,2.588,25.062,2.119,29.958c1.225,4.073,3.072,9.059,3.24,9.901
					c0.253,1.27,7.112,28.459,8.129,30.49s3.304,21.596,4.574,25.408c1.27,3.811,1.777,7.114,2.795,12.449
					c1.017,5.335,0.256,12.448,1.778,15.753c1.524,3.303,5.082,22.868,5.082,22.868s0.764-14.737-0.254-21.088
					c-1.016-6.354-4.32-25.157-4.32-27.695c0-2.542-3.047-23.884-4.319-28.457c-1.271-4.574-11.434-37.353-12.195-39.638
					c-0.763-2.288-5.041-20.678-5.189-22.661c-0.146-1.986-1.417-9.862-1.926-11.385c-0.508-1.526-1.037-5.392-0.964-7.795
					c0.075-2.4-0.524-5.104-0.524-5.104l-0.225-3.565l-1.239-3.489c0,0-1.621-4.438-1.621-5.456c0-1.016-1.044-3.285-1.157-4.565
					c-0.113-1.277-0.113-2.803-0.113-2.803s-0.048-3.291,0.014-4.576c0,0,0.092-3.557-0.088-5.079
					c-0.18-1.524-0.867-4.184-0.867-5.454C417.896,436.607,418.125,433.663,417.643,433.663"/>
				<path clip-path="url(#SVGID_16_)" d="M178.573,677.327h8.806c2.931,0.001,5.315,2.382,5.315,5.314
					c0,2.932-2.385,5.313-5.317,5.313h-8.804c-2.931-0.001-5.316-2.382-5.316-5.313
					C173.257,679.709,175.642,677.328,178.573,677.327 M195.472,457.04c-0.323,1.122-0.669,2.217-0.991,3.019
					c-1.016,2.541-1.525,14.229-2.288,16.643c-0.763,2.417-0.252,8.258-1.27,12.831c-1.015,4.572-9.841,40.528-12.255,46.242
					c-2.412,5.717-3.049,18.295-4.064,24.903c-1.016,6.604-8.639,50.814-10.671,67.584c-2.033,16.771,7.622,87.946,7.622,87.946
					l0.634,6.607c0,0,0.382,2.667,2.668,4.573c1.218,1.015,11.202,1.862,21.653,2.431l1.468-16.153v-15.275
					c0-2.541-3.556-4.575-4.572-15.245c-1.017-10.672-7.565-21.345-7.565-27.95c0-6.607,2.483-33.03,7.565-54.374
					c3.309-13.9,4.463-37.07,6.41-53.644c-11.019-3.302-11.712-8.468-11.712-8.468v-4.217c0,0-1.205-5.423-1.205-7.832
					c0-2.41,2.41-4.819,2.41-4.819s0-13.855,1.807-32.531C191.866,481.568,193.546,469.58,195.472,457.04 M220.35,442.007
					c-2.854,2.5-4.654,6.016-4.771,10.882c-0.62,26.104,0.312,47.856-4.039,54.383c-4.35,6.526-7.147,4.662-5.593,14.297
					c0.214,1.33,0.311,2.905,0.316,4.63c4.965-4.56,10.151-3.159,14.135-10.241c4.573-8.131-3.049-16.261-3.049-19.819
					c0-3.557,3.559-7.622,6.605-9.146c3.05-1.524,10.673-5.59,16.771-10.672c6.098-5.08,6.098-8.638,6.098-8.638l-7.115-3.557
					c-7.113-3.559-5.669-18.317-5.669-18.317S226.631,443.859,220.35,442.007 M197.53,433.196l-0.583,14.432
					c0.745-4.688,1.503-9.321,2.235-13.715C198.146,433.467,197.53,433.196,197.53,433.196"/>
				<path clip-path="url(#SVGID_16_)" d="M187.379,677.942L187.379,677.942c2.595,0,4.698,2.104,4.698,4.699
					c0,2.596-2.103,4.701-4.7,4.701h-8.804c-2.595,0-4.698-2.105-4.698-4.701c0-2.595,2.103-4.699,4.698-4.699H187.379
					 M187.379,677.327h-8.806c-2.931,0.001-5.316,2.382-5.316,5.314c0,2.932,2.385,5.313,5.316,5.313h8.804
					c2.932-0.001,5.317-2.382,5.317-5.313C192.694,679.709,190.311,677.328,187.379,677.327"/>
				<path clip-path="url(#SVGID_16_)" d="M179.064,685.94l2.879-2.879v2.879H179.064 M185.556,685.94v-2.879l2.879,2.879H185.556
					 M178.518,685.933c-1.723-0.115-3.084-1.552-3.084-3.304c0-1.754,1.361-3.188,3.084-3.305V685.933 M181.943,682.197
					l-2.879-2.881h2.879V682.197 M182.556,679.316h2.389v6.624h-2.389V679.316z M188.435,679.316L188.435,679.316l-2.879,2.881
					v-2.881H188.435 M187.379,678.26h-8.806c-1.21,0-2.305,0.491-3.097,1.284c-0.794,0.794-1.284,1.889-1.284,3.098
					c0,1.211,0.489,2.306,1.284,3.1c0.792,0.793,1.887,1.284,3.097,1.284h8.804c1.211,0,2.306-0.491,3.1-1.284
					c0.793-0.794,1.282-1.889,1.282-3.1c0-1.209-0.489-2.304-1.282-3.098C189.685,678.751,188.589,678.26,187.379,678.26"/>
				<path clip-path="url(#SVGID_16_)" d="M178.573,687.025c-1.21,0-2.305-0.491-3.097-1.284c-0.794-0.794-1.284-1.889-1.284-3.1
					c0-1.209,0.489-2.304,1.284-3.098c0.792-0.793,1.887-1.284,3.097-1.284h8.806c1.21,0,2.305,0.491,3.098,1.284
					c0.793,0.794,1.282,1.889,1.282,3.098c0,1.211-0.489,2.306-1.282,3.1c-0.793,0.793-1.889,1.284-3.1,1.284H178.573
					 M187.379,677.942L187.379,677.942h-8.806c-2.595,0-4.698,2.104-4.698,4.699c0,2.596,2.103,4.701,4.698,4.701h8.804
					c2.597,0,4.7-2.105,4.7-4.701C192.078,680.047,189.975,677.942,187.379,677.942"/>
				<path clip-path="url(#SVGID_16_)" d="M178.518,679.324c-1.723,0.117-3.084,1.551-3.084,3.305c0,1.752,1.361,3.188,3.084,3.304
					V679.324"/>
				<polygon clip-path="url(#SVGID_16_)" points="181.943,679.316 179.063,679.316 181.943,682.197 				"/>
				<polygon clip-path="url(#SVGID_16_)" points="181.943,683.062 179.063,685.94 181.943,685.94 				"/>
				<polygon clip-path="url(#SVGID_16_)" points="188.435,679.316 185.555,679.316 185.555,682.197 				"/>
				<polygon clip-path="url(#SVGID_16_)" points="185.556,683.062 185.556,685.94 188.435,685.94 				"/>
				<rect x="182.556" y="679.316" clip-path="url(#SVGID_16_)" width="2.389" height="6.624"/>
				<path clip-path="url(#SVGID_16_)" d="M196.512,729.819l-0.056,0.617l21.4,0.508c0,0,0.039-0.12,0.11-0.347
					C213.201,730.544,204.712,730.268,196.512,729.819 M212.848,563.895c-0.985,0-1.744,0.395-2.104,1.355
					c-1.525,4.064-2.033,15.244-1.525,33.029c0.509,17.787-2.54,16.263-3.558,30.491c-1.016,14.229,1.526,16.769,4.066,24.392
					c2.54,7.622,10.163,25.917,13.72,37.604c3.326,10.93-4.456,36.551-5.479,39.831c0.569,0.006,1.086,0.009,1.541,0.009
					c9.147,0,43.15-6.741,43.15-6.741s1.497-20.272,3.659-35.043c2.379-16.255,6.453-38.127,10.566-53.81
					c0.925-4.11,1.927-8.069,2.994-11.406c1.047-3.267,2.529-5.633,3.768-7.198c0.103-0.132,0.201-0.254,0.299-0.367
					c1.142-1.366,2.007-2.009,2.007-2.009s-9.147-5.08-10.672-5.08c-1.523,0-11.178-5.082-18.801-12.705
					c-7.623-7.621-29.476-22.865-32.522-25.916C221.626,568.002,216.037,563.895,212.848,563.895"/>
				<path clip-path="url(#SVGID_16_)" d="M297.342,611.098c-4.919,0-9.809,1.207-13.245,4.779c-0.051,0.053-0.102,0.106-0.152,0.164
					c-0.098,0.117-0.195,0.24-0.299,0.367c-2.06,2.726-4.418,9.659-6.764,18.604c-2.238,9.947-4.022,20.773-5.158,25.771
					c-2.541,11.179-6.608,42.719-6.608,46.277c0,3.555-2.457,16.803-2.457,16.803s4.983-1.749,7.667-2.574
					c2.549-0.784,5.844-3.431,5.844-3.431s0.658-0.948,0.964-2.021c0.308-1.073,0.154-1.989,0.179-3.188
					c0.026-1.198,0.739-2.934,1.199-4.771c0.459-1.838,2.295-6.276,2.881-7.988c0.586-1.713,1.074-10.605,1.074-10.605
					s0.943-3.961,2.474-6.103c1.531-2.143,7.362-20.747,9.95-29.236c2.586-8.488,8.417-40.869,9.229-41.313
					c0.061-0.032,0.154-0.049,0.275-0.049c1.501,0,7.22,2.335,7.22,2.335s1.339,5.197,1.643,6.422
					c0.304,1.227,5.219,22.5,10.104,38.114c6.274,20.052,14.083,35.972,14.389,36.736c0.307,0.767,0.67,3.974,0.46,4.595
					c-0.212,0.618,1.376,2.295,1.376,2.295s0,1.528,0.613,3.673c0.613,2.142,1.53,5.358,1.399,6.117
					c-0.134,0.759,0.252,2.668,0.252,2.668s1.871,2.693,2.328,3.153c0.459,0.461,2.449,1.073,3.137,1.547
					c0.355,0.245,0.959,0.305,1.456,0.305c0.46,0,0.829-0.051,0.829-0.051l-1.522-4.638c0,0-0.685-4.816-0.685-8.948
					c0-4.133-1.377-7.193-1.531-9.643c-0.153-2.451-3.979-18.981-4.897-26.022c-0.918-7.043-7.242-27.738-7.242-27.738
					c-5.59-21.85-14.222-25.626-18.796-28.167C312.18,613.816,304.726,611.098,297.342,611.098"/>
				<path clip-path="url(#SVGID_16_)" d="M276.883,635.013c-4.112,15.682-8.187,37.555-10.565,53.81
					c-2.162,14.771-3.658,35.042-3.658,35.042s2.457-13.249,2.457-16.803c0-3.559,4.065-35.099,6.607-46.277
					C272.859,655.786,274.643,644.959,276.883,635.013 M283.944,616.041c-0.098,0.113-0.197,0.235-0.299,0.367
					C283.748,616.281,283.848,616.158,283.944,616.041"/>
				<path clip-path="url(#SVGID_16_)" d="M396.856,459.203c-2.766,0.829-5.563,1.577-7.62,1.871
					c-5.336,0.763-31.635,3.05-31.635,3.05l3.05,0.381c0,0,8.385,22.105,6.479,32.776c-1.905,10.672-4.573,18.676-12.577,39.256
					c-8.002,20.581,18.676,23.631,20.963,25.535c2.286,1.906,20.961,8.767,22.485,9.529s-1.905,12.957-4.573,27.06
					c-2.668,14.102,12.196,27.441,16.769,39.256c4.573,11.815-5.335,14.103-9.908,21.343c-4.573,7.242-3.432,32.397-6.479,40.781
					c-3.049,8.385,0.381,27.059,0.381,27.059s8.004,0.383,12.959,0.383c4.954,0,11.052-0.763,11.052-0.763s0.382-8.004,1.144-11.436
					c0.763-3.43,2.287-5.715,4.192-9.146c1.905-3.43,8.767-15.625,8.767-18.293s1.524-32.014,1.905-37.351
					c0.381-5.335,1.524-22.868,2.287-29.728c0.762-6.861-6.479-36.208-10.291-45.734c-3.323-8.31-9.254-26.471-11.729-37.808
					c-4.082-2.501-3.935-1.736-7.121-13.793c-4.045-15.318-5.403-31.98-5.574-34.237c-3.771-4.775-8.031-3.918-10.259-7.538
					c-3.048-4.955-4.954-9.147-4.954-12.577c0-3.431,2.286-4.574,2.286-4.574s4.564-1.053,8.896-2.122
					c-0.208-0.805-0.424-1.588-0.648-2.347C397.016,459.749,396.935,459.473,396.856,459.203"/>
				<path clip-path="url(#SVGID_16_)" d="M168.328,129.995c0.016,0.26,0.033,0.52,0.049,0.781
					C168.36,130.515,168.343,130.255,168.328,129.995"/>
				<path clip-path="url(#SVGID_16_)" d="M168.266,128.897c0.014,0.267,0.03,0.538,0.044,0.811
					C168.296,129.436,168.28,129.165,168.266,128.897"/>
				<path clip-path="url(#SVGID_16_)" d="M189.869,241.309v0.019V241.309z"/>
				<path clip-path="url(#SVGID_16_)" d="M168.215,127.864c0.014,0.301,0.029,0.605,0.045,0.915
					C168.244,128.469,168.229,128.165,168.215,127.864"/>
				<path clip-path="url(#SVGID_16_)" d="M168.108,125.04c0.008,0.255,0.016,0.516,0.025,0.785
					C168.125,125.556,168.116,125.295,168.108,125.04"/>
				<path clip-path="url(#SVGID_16_)" d="M168.175,126.914c0.009,0.238,0.02,0.48,0.031,0.726
					C168.195,127.395,168.184,127.151,168.175,126.914"/>
				<path clip-path="url(#SVGID_16_)" d="M168.066,123.395c0.009,0.46,0.022,0.968,0.038,1.512
					C168.088,124.363,168.076,123.854,168.066,123.395"/>
				<path clip-path="url(#SVGID_16_)" d="M168.135,125.872c0.01,0.281,0.02,0.572,0.032,0.867
					C168.155,126.444,168.146,126.153,168.135,125.872"/>
				<path clip-path="url(#SVGID_16_)" d="M168.388,130.957c0.021,0.317,0.044,0.634,0.067,0.953
					C168.432,131.592,168.408,131.274,168.388,130.957"/>
				<path clip-path="url(#SVGID_16_)" d="M168.77,135.382c0.027,0.25,0.056,0.497,0.086,0.743
					C168.825,135.88,168.797,135.632,168.77,135.382"/>
				<path clip-path="url(#SVGID_16_)" d="M169.027,137.452c0.033,0.234,0.068,0.466,0.103,0.692
					C169.095,137.918,169.061,137.686,169.027,137.452"/>
				<path clip-path="url(#SVGID_16_)" d="M168.88,136.335c0.037,0.306,0.076,0.606,0.117,0.903
					C168.956,136.941,168.917,136.641,168.88,136.335"/>
				<path clip-path="url(#SVGID_16_)" d="M189.639,236.518l0.007,0.079L189.639,236.518z"/>
				<path clip-path="url(#SVGID_16_)" d="M189.518,235.324l0.014,0.113L189.518,235.324z"/>
				<path clip-path="url(#SVGID_16_)" d="M169.168,138.393c0.046,0.288,0.094,0.571,0.145,0.846
					C169.262,138.964,169.215,138.68,169.168,138.393"/>
				<path clip-path="url(#SVGID_16_)" d="M168.653,134.249c0.028,0.284,0.056,0.567,0.086,0.849
					C168.709,134.816,168.681,134.533,168.653,134.249"/>
				<path clip-path="url(#SVGID_16_)" d="M168.475,132.168c0.019,0.244,0.038,0.488,0.058,0.732
					C168.513,132.656,168.494,132.413,168.475,132.168"/>
				<path clip-path="url(#SVGID_16_)" d="M189.369,234.208l0.014,0.09L189.369,234.208z"/>
				<path clip-path="url(#SVGID_16_)" d="M189.798,238.951l0.003,0.095L189.798,238.951z"/>
				<path clip-path="url(#SVGID_16_)" d="M168.557,133.191c0.027,0.318,0.056,0.636,0.085,0.952
					C168.613,133.828,168.584,133.509,168.557,133.191"/>
				<path clip-path="url(#SVGID_16_)" d="M189.734,237.771l0.001,0.017L189.734,237.771z"/>
				<path clip-path="url(#SVGID_16_)" d="M189.842,240.129l0.002,0.095L189.842,240.129z"/>
				<path clip-path="url(#SVGID_16_)" d="M189.734,237.771c-0.024-0.393-0.054-0.786-0.087-1.174
					C189.68,236.986,189.709,237.379,189.734,237.771"/>
				<path clip-path="url(#SVGID_16_)" d="M189.881,242.392c-0.001-0.341-0.005-0.696-0.012-1.064
					C189.875,241.695,189.879,242.051,189.881,242.392"/>
				<path clip-path="url(#SVGID_16_)" d="M189.369,234.208c-0.055-0.356-0.114-0.704-0.18-1.033
					C189.255,233.504,189.314,233.852,189.369,234.208"/>
				<path clip-path="url(#SVGID_16_)" d="M189.869,241.309c-0.005-0.353-0.014-0.714-0.025-1.084
					C189.855,240.594,189.864,240.956,189.869,241.309"/>
				<path clip-path="url(#SVGID_16_)" d="M189.798,238.951c-0.018-0.385-0.038-0.774-0.063-1.163
					C189.76,238.177,189.78,238.565,189.798,238.951"/>
				<path clip-path="url(#SVGID_16_)" d="M189.842,240.129c-0.011-0.356-0.024-0.717-0.041-1.082
					C189.818,239.412,189.831,239.773,189.842,240.129"/>
				<path clip-path="url(#SVGID_16_)" d="M189.518,235.324c-0.04-0.35-0.086-0.692-0.135-1.027
					C189.432,234.632,189.478,234.974,189.518,235.324"/>
				<path clip-path="url(#SVGID_16_)" d="M189.639,236.518c-0.032-0.365-0.068-0.726-0.108-1.08
					C189.571,235.792,189.607,236.152,189.639,236.518"/>
				<path clip-path="url(#SVGID_16_)" d="M168.77,135.382c-0.01-0.095-0.021-0.189-0.031-0.284
					C168.749,135.193,168.759,135.287,168.77,135.382"/>
				<path clip-path="url(#SVGID_16_)" d="M168.135,125.872l0-0.047L168.135,125.872z"/>
				<path clip-path="url(#SVGID_16_)" d="M168.175,126.914l-0.007-0.175L168.175,126.914z"/>
				<path clip-path="url(#SVGID_16_)" d="M168.266,128.897l-0.006-0.119L168.266,128.897z"/>
				<path clip-path="url(#SVGID_16_)" d="M168.215,127.864l-0.01-0.224L168.215,127.864z"/>
				<path clip-path="url(#SVGID_16_)" d="M168.066,123.39v0.005V123.39z"/>
				<path clip-path="url(#SVGID_16_)" d="M168.108,125.04l-0.003-0.132L168.108,125.04z"/>
				<path clip-path="url(#SVGID_16_)" d="M169.168,138.393c-0.013-0.081-0.026-0.165-0.038-0.248
					C169.143,138.228,169.155,138.311,169.168,138.393"/>
				<path clip-path="url(#SVGID_16_)" d="M168.653,134.249l-0.011-0.105L168.653,134.249z"/>
				<path clip-path="url(#SVGID_16_)" d="M168.88,136.335l-0.024-0.21L168.88,136.335z"/>
				<path clip-path="url(#SVGID_16_)" d="M169.027,137.452l-0.031-0.215L169.027,137.452z"/>
				<path clip-path="url(#SVGID_16_)" d="M168.475,132.168c-0.006-0.086-0.014-0.172-0.02-0.259
					C168.461,131.996,168.469,132.082,168.475,132.168"/>
				<path clip-path="url(#SVGID_16_)" d="M168.557,133.191c-0.008-0.096-0.017-0.194-0.024-0.291
					C168.54,132.998,168.549,133.095,168.557,133.191"/>
				<path clip-path="url(#SVGID_16_)" d="M168.388,130.957l-0.012-0.181L168.388,130.957z"/>
				<path clip-path="url(#SVGID_16_)" d="M168.328,129.995c-0.005-0.095-0.012-0.192-0.017-0.287
					C168.316,129.803,168.322,129.899,168.328,129.995"/>
				<path clip-path="url(#SVGID_16_)" d="M311.536,88.202c24.881,0.237,43.837-12.559,43.602-14.691
					c-0.237-2.133-4.317-6.093-6.925-7.989c-2.606-1.896-14.998-3.161-39.88-3.025c-25.165,0.137-33.69,1.1-37.129,1.926
					c-3.438,0.824-9.099,7.104-8.389,8.526C263.526,74.37,286.804,87.965,311.536,88.202"/>
				<path clip-path="url(#SVGID_16_)" d="M311.906,62.487c-1.161,0-2.352,0.003-3.573,0.01c-25.165,0.137-33.69,1.1-37.129,1.926
					c-2.335,0.559-5.697,3.637-7.391,6l0.002,0.001c-0.774,1.083-1.203,2.015-1.018,2.485l0.002,0.003c0,0.002,0,0.002,0.002,0.004
					c0,0.002,0.002,0.004,0.002,0.007c0,0.001,0.002,0.002,0.002,0.003c0,0.001,0.001,0.003,0.001,0.005
					c0,0.001,0,0.002,0.002,0.002c0,0.001,0.001,0.003,0.002,0.006c0,0.001,0,0.002,0.001,0.002
					c0.001,0.002,0.002,0.006,0.004,0.009c0,0,0.001,0.002,0.002,0.003c0,0,0,0,0.001,0.001c0,0,0.001,0.001,0.002,0.003
					c0,0,0,0,0,0c0.001,0.001,0.001,0.002,0.002,0.003c0,0.001,0,0.001,0.001,0.002c0,0.001,0.001,0.002,0.002,0.003v0
					c0,0.001,0.001,0.002,0.001,0.003c0.001,0.001,0.001,0.001,0.002,0.001l0.001,0.003c0.001,0.001,0.002,0.001,0.002,0.002
					c0.002,0,0.002,0.001,0.002,0.001c0,0.001,0.002,0.001,0.002,0.002c0.001,0.003,0.001,0.005,0.003,0.007v0.001
					c0.705,1.05,10.785,7.11,24.52,11.258c0,0.001,0.001,0.001,0.001,0.001c7.311,2.208,15.658,3.874,24.178,3.956
					c0.229,0.002,0.457,0.002,0.684,0.002c11.083,0,20.955-2.565,28.429-5.573c-0.047-0.103-0.097-0.205-0.146-0.309
					c8.632-3.583,13.866-7.686,13.74-8.813c-0.155-1.395-1.955-3.569-3.91-5.438l0.656-0.229c-0.959-0.9-1.942-1.716-2.775-2.321
					C345.735,63.719,334.407,62.487,311.906,62.487"/>
				<path clip-path="url(#SVGID_16_)" d="M411.342,456.502c0,1.904-4.574,3.049-6.099,3.81c-0.679,0.339-4.01,1.21-7.493,2.071
					c2.929,11.372,4.013,26.555,4.013,26.555s0.006,0.088,0.019,0.257c1.391,1.762,2.715,4.289,3.844,8.088
					c4.193,14.102,6.479,25.153,8.004,35.444c0.195,1.317,0.483,2.835,0.848,4.498c1.493,0.916,3.554,2.271,6.554,4.853l3.544,1.313
					c3.306-2.46,3.605-4.682,3.605-4.682v-4.216c0,0,1.206-5.423,1.206-7.832c0-2.41-2.41-4.82-2.41-4.82s0.151-0.913,0.311-2.572
					c-0.621-2.065-1.081-3.896-1.081-4.837c0-2.794-5.081-19.31-6.098-23.12c-1.017-3.812-8.759-25.695-8.759-25.695l-1.913-0.222
					v-5.083C409.436,460.312,411.469,457.772,411.342,456.502 M351.558,67.645l-0.569,0.199c2.046,1.917,3.987,4.215,4.149,5.667
					c0.001,0.013,0.001,0.025,0.002,0.039c0.007,1.213-5.51,5.469-14.491,9.083c0.622,1.333,1.063,2.582,1.137,3.559
					c0.311,4.04,0,3.729,0,9.633c0,5.905,2.177,11.81,5.905,20.51c3.729,8.701,7.769,4.041,10.565,16.47
					c2.072,9.208-6.599,10.402-11.233,10.402c-1.622,0-2.751-0.147-2.751-0.147s10.33,1.476,23.348,1.476
					c2.789,0,5.7-0.067,8.661-0.232c16.781-0.933,13.052,0,24.861-1.244c5.903-0.621,8.856-1.398,12.586-1.398
					c3.728,0,8.234,0.777,17.247,3.263c18.024,4.972,4.35,16.16,3.107,28.901c-1.244,12.742-19.268,10.876-24.55,17.714
					c-5.283,6.836-1.865,59.976-1.243,65.881c0.62,5.905-12.12,16.158-12.12,16.158s-3.418,9.945-5.593,17.403
					c-2.177,7.458,3.417,22.996,3.106,39.777c-0.311,16.781-15.538,38.845-20.82,50.965c-5.283,12.118-1.244,23.929,7.458,50.342
					c3.421,10.389,4.681,13.135,5.347,13.135c0.372,0,0.559-0.864,0.836-1.729c0.274-0.864,0.642-1.729,1.375-1.729
					c0.55,0,1.306,0.486,2.386,1.821c6.363,7.88,3.569,5.123,6.593,15.638c4.407-1.32,8.741-2.85,9.911-3.083
					c1.094-0.219,2.439-0.688,3.388-0.688c0.589,0,1.024,0.182,1.15,0.72c-0.195-1.832-0.852-7.527-0.852-7.527
					s-1.526-1.016-1.781-1.777c-0.254-0.762-1.511-4.616-1.511-4.616s5.741-1.966,8.138-4.59c0.052-0.055,0.103-0.116,0.155-0.179
					c-1.419-8.169-2.685-15.475-3.642-20.642c-3.011-16.265,1.909-60.647,4.921-75.708c3.012-15.06,7.229-63.857,6.628-71.688
					c-0.52-6.737,2.082-21.936,2.82-26.054c-0.015-2.763,0.077-7.13,0.689-10.196c0.962-4.81,8.335-45.525,9.938-53.22
					c1.603-7.694,8.655-33.663,9.939-40.716c0.904-4.978,1.169-12.185,1.249-16c-0.706-0.49-1.144-0.807-1.144-0.807
					s-16.265-5.422-39.157-14.458s-41.567-25.302-44.579-27.713c-3.013-2.409-3.013-4.216-6.025-6.023
					C355.101,73.041,353.89,70.262,351.558,67.645"/>
				<path clip-path="url(#SVGID_16_)" d="M415.455,437.462c-0.053,0.063-0.104,0.124-0.155,0.179
					c-2.396,2.624-8.138,4.59-8.138,4.59s1.257,3.854,1.511,4.616c0.255,0.762,1.781,1.777,1.781,1.777s0.656,5.695,0.852,7.527
					c0.023,0.103,0.036,0.219,0.036,0.351c0.127,1.271-1.906,3.81-1.906,3.81v5.083l1.913,0.222c0,0,7.742,21.884,8.759,25.695
					c1.017,3.811,6.098,20.326,6.098,23.12c0,0.94,0.46,2.771,1.081,4.837c0.469-4.896,0.997-16.296-2.119-29.958
					C422.259,476.542,418.505,455.016,415.455,437.462"/>
				<path clip-path="url(#SVGID_16_)" d="M401.781,489.194c0.171,2.257,1.529,18.919,5.574,34.237
					c3.187,12.057,3.039,11.292,7.121,13.793c-0.364-1.663-0.652-3.181-0.848-4.498c-1.525-10.29-3.811-21.343-8.004-35.444
					C404.496,493.483,403.172,490.956,401.781,489.194 M410.155,455.432c-0.948,0-2.294,0.47-3.388,0.688
					c-1.17,0.233-5.504,1.763-9.911,3.083c0.078,0.27,0.159,0.546,0.246,0.833c0.223,0.759,0.439,1.542,0.647,2.347
					c3.483-0.861,6.814-1.731,7.493-2.071c1.524-0.761,6.099-1.905,6.099-3.81c-0.009-0.092-0.022-0.211-0.036-0.351
					C411.179,455.613,410.744,455.432,410.155,455.432"/>
				<path clip-path="url(#SVGID_16_)" d="M411.306,456.151c0.014,0.14,0.027,0.259,0.036,0.351
					C411.342,456.37,411.329,456.254,411.306,456.151"/>
				<path clip-path="url(#SVGID_16_)" d="M350.988,67.843l-0.656,0.229c1.955,1.87,3.755,4.044,3.91,5.438
					c0.126,1.127-5.108,5.229-13.74,8.813c0.05,0.103,0.1,0.206,0.146,0.308c8.981-3.615,14.498-7.87,14.491-9.083
					c-0.001-0.013-0.001-0.026-0.002-0.038C354.976,72.06,353.034,69.761,350.988,67.843"/>
				<path clip-path="url(#SVGID_16_)" d="M206.263,526.198c-0.734,0.676-1.464,1.48-2.185,2.463
					c-1.95,2.659-3.219,9.642-4.262,18.517c1.217,0.363,2.558,0.705,4.038,1.015C204.872,542.401,206.287,533.097,206.263,526.198
					 M196.947,447.627c-0.5,3.134-0.996,6.289-1.475,9.413c0.702-2.428,1.294-4.983,1.294-4.983L196.947,447.627 M189.738,237.836
					c0.01,0.158,0.019,0.317,0.027,0.476C189.757,238.153,189.748,237.994,189.738,237.836 M169.169,138.393
					c-0.013-0.081-0.025-0.165-0.038-0.248C169.144,138.228,169.156,138.311,169.169,138.393 M169.131,138.145
					c-0.036-0.228-0.071-0.459-0.104-0.692C169.06,137.686,169.095,137.917,169.131,138.145 M169.027,137.453l-0.03-0.215
					L169.027,137.453 M168.997,137.238c-0.041-0.296-0.08-0.597-0.117-0.903C168.917,136.64,168.956,136.941,168.997,137.238
					 M168.879,136.335l-0.025-0.21L168.879,136.335 M168.854,136.125c-0.03-0.246-0.058-0.493-0.085-0.744
					C168.797,135.632,168.825,135.878,168.854,136.125 M168.77,135.381c-0.011-0.094-0.021-0.188-0.03-0.283
					C168.749,135.192,168.759,135.287,168.77,135.381 M168.739,135.098c-0.031-0.281-0.059-0.564-0.087-0.849
					C168.681,134.534,168.708,134.817,168.739,135.098 M168.536,132.95c-0.001-0.016-0.002-0.032-0.003-0.049
					C168.534,132.917,168.535,132.934,168.536,132.95c0.006,0.067,0.012,0.135,0.019,0.203c0,0.012,0.001,0.026,0.002,0.039
					c-0.001-0.013-0.002-0.026-0.002-0.039C168.548,133.085,168.542,133.018,168.536,132.95 M168.533,132.9
					c-0.019-0.244-0.039-0.488-0.058-0.732C168.494,132.413,168.514,132.656,168.533,132.9 M168.475,132.168
					c-0.007-0.086-0.014-0.172-0.02-0.259C168.461,131.996,168.468,132.082,168.475,132.168 M168.455,131.91
					c-0.023-0.318-0.047-0.636-0.067-0.953C168.408,131.274,168.432,131.592,168.455,131.91 M168.388,130.957l-0.012-0.181
					L168.388,130.957 M168.333,130.088c-0.003-0.031-0.003-0.061-0.005-0.093C168.33,130.027,168.331,130.057,168.333,130.088
					c0,0.003,0,0.007,0,0.011c0.002,0.025,0.003,0.049,0.005,0.075c0,0.014,0.001,0.027,0.002,0.042
					c0,0.014,0.001,0.026,0.002,0.039c0.011,0.173,0.022,0.348,0.033,0.522c-0.011-0.175-0.022-0.349-0.033-0.522
					c-0.001-0.013-0.002-0.025-0.002-0.039c-0.001-0.014-0.002-0.028-0.002-0.042c-0.002-0.025-0.003-0.05-0.005-0.075
					C168.333,130.095,168.333,130.091,168.333,130.088 M168.328,129.995c-0.007-0.095-0.012-0.192-0.017-0.287
					C168.316,129.803,168.321,129.899,168.328,129.995 M168.311,129.708c-0.016-0.272-0.032-0.542-0.045-0.811
					C168.279,129.166,168.295,129.436,168.311,129.708 M168.266,128.897l-0.006-0.119L168.266,128.897 M168.26,128.778
					c-0.016-0.309-0.031-0.613-0.045-0.915C168.229,128.165,168.244,128.469,168.26,128.778 M168.215,127.864l-0.01-0.224
					L168.215,127.864 M168.206,127.64c-0.011-0.246-0.021-0.487-0.03-0.726C168.184,127.151,168.195,127.394,168.206,127.64
					 M168.175,126.914l-0.008-0.176L168.175,126.914 M168.134,125.825c-0.009-0.269-0.018-0.53-0.025-0.785
					C168.116,125.295,168.125,125.556,168.134,125.825 M168.108,125.04l-0.004-0.132L168.108,125.04 M168.104,124.908
					c-0.016-0.545-0.029-1.053-0.038-1.513C168.076,123.854,168.088,124.364,168.104,124.908 M262.887,69.98
					c-1.285,1.796-2.298,3.418-3.698,4.258c-3.01,1.807-3.01,3.615-6.022,6.024c-3.012,2.41-21.688,18.675-44.579,27.711
					c-22.893,9.037-39.158,14.459-39.158,14.459s-0.533,0.385-1.363,0.957v0v0.005v-0.005c0.015,0.72,0.038,1.551,0.068,2.461
					l-0.001-0.026l0.001,0.026c0.002,0.068,0.004,0.138,0.007,0.207c0.008,0.224,0.017,0.451,0.025,0.681
					c-0.008-0.23-0.017-0.457-0.025-0.681c0.083,2.335,0.228,5.152,0.481,7.878c-0.023-0.248-0.045-0.496-0.066-0.745
					c0.022,0.257,0.044,0.514,0.069,0.771c0.005,0.063,0.011,0.128,0.018,0.191l0.009,0.096l-0.009-0.096
					c0.171,1.798,0.39,3.548,0.669,5.085c-0.05-0.275-0.098-0.559-0.144-0.846c0.046,0.288,0.093,0.571,0.144,0.846
					c1.283,7.053,8.335,33.022,9.938,40.716c1.603,7.694,8.976,48.41,9.938,53.22c0.26,1.301,0.426,2.837,0.531,4.386
					c0.005,0.07,0.01,0.141,0.014,0.211c-0.004-0.063-0.007-0.127-0.012-0.189c0.005,0.068,0.009,0.136,0.013,0.205l-0.001-0.015
					l0.001,0.015c0.001,0.017,0.002,0.033,0.003,0.049c0.01,0.158,0.019,0.317,0.027,0.476c0.047,0.835,0.075,1.661,0.093,2.447
					c0.004,0.186,0.008,0.369,0.011,0.55c-0.003-0.181-0.006-0.364-0.011-0.55c0.004,0.191,0.008,0.377,0.011,0.562v-0.011v0.011
					c0.006,0.37,0.01,0.729,0.012,1.072l0.031-0.077c0,0,3.614,19.278,3.011,27.111c-0.602,7.831,3.616,56.627,6.626,71.688
					c3.012,15.061,6.628,53.616,3.617,69.883c-0.988,5.332-2.43,13.581-3.984,22.917c3.846,1.658,13.469,5.742,18.675,7.344
					c0.796,0.244,1.633,0.497,2.493,0.75c4.891-4.287,12.877-5.59,20.771-5.59c12.201,0,24.181,3.109,24.181,3.109
					s4.039-5.593,3.418-13.362c-0.62-7.77-25.171-41.953-29.833-49.722c-3.759-6.265,0.163-6.872,1.821-6.872
					c0.396,0,0.666,0.035,0.666,0.035s-6.839-3.107-9.634-18.334c-2.798-15.228,4.662-33.874,11.498-50.033
					c6.836-16.159,26.726-32.94,26.726-32.94s-3.839,0.612-9.821,0.612c-8.157,0-20.3-1.137-32.132-6.517
					c-20.51-9.322-21.753-25.172-24.551-73.961c-2.796-48.79,1.865-58.422,13.052-59.045c0.26-0.014,0.535-0.022,0.825-0.022
					c12.176,0,49.966,12.51,55.735,14.939c0,0,3.727-7.77,2.484-12.431c-1.243-4.661,2.487-12.12,6.837-20.2
					c2.552-4.739,3.607-5.416,4.357-5.416c0.149,0,0.287,0.027,0.422,0.054c0.135,0.027,0.267,0.054,0.405,0.054
					c0.214,0,0.442-0.063,0.72-0.286c1.555-1.244,0.311-8.391-0.621-10.566c-0.933-2.174-0.312-2.797,1.554-7.769
					c0.342-0.911-0.415-2.125-1.871-3.5c-13.735-4.148-23.817-10.208-24.521-11.259c0-0.001,0-0.001,0-0.001
					c-0.002-0.002-0.003-0.003-0.003-0.006c-0.002-0.001-0.002-0.001-0.002-0.001c0-0.001-0.002-0.001-0.002-0.002
					s0-0.001-0.002-0.002v-0.003c-0.002,0-0.002,0-0.002-0.001s-0.002-0.002-0.002-0.003v0c-0.001-0.001-0.002-0.002-0.002-0.002
					c-0.001-0.002-0.001-0.002-0.001-0.003c-0.001-0.001-0.002-0.002-0.002-0.003c0,0-0.001,0-0.001,0
					c0-0.001-0.001-0.002-0.002-0.003c0,0,0-0.001-0.001-0.001c0-0.001-0.001-0.003-0.002-0.003
					c-0.001-0.003-0.002-0.006-0.003-0.007c-0.001-0.001-0.001-0.002-0.001-0.002c-0.001-0.002-0.002-0.005-0.002-0.007
					c0,0,0-0.001,0-0.002c-0.002-0.002-0.002-0.004-0.003-0.005c0-0.001-0.002-0.002-0.002-0.003c0-0.002-0.002-0.005-0.002-0.007
					c-0.002-0.001-0.002-0.002-0.002-0.004l-0.002-0.002c-0.028-0.074-0.044-0.161-0.044-0.258c0.002-0.513,0.406-1.316,1.06-2.228
					C263.487,70.266,263.174,70.116,262.887,69.98"/>
				<path clip-path="url(#SVGID_16_)" d="M199.182,433.913c-0.731,4.394-1.49,9.027-2.235,13.714l-0.18,4.43
					c0,0-0.593,2.556-1.294,4.983c-1.926,12.54-3.607,24.528-4.356,32.27c-1.807,18.677-1.807,32.532-1.807,32.532
					s-2.41,2.409-2.41,4.819c0,2.409,1.205,7.832,1.205,7.832v4.217c0,0,0.694,5.166,11.713,8.468
					c1.042-8.875,2.312-15.857,4.262-18.517c0.72-0.982,1.451-1.787,2.185-2.463c-0.006-1.725-0.103-3.3-0.316-4.63
					c-1.555-9.635,1.243-7.771,5.594-14.297c4.349-6.526,3.417-28.278,4.038-54.383c0.117-4.866,1.919-8.382,4.771-10.882
					c-0.858-0.254-1.697-0.506-2.493-0.75C212.65,439.655,203.027,435.57,199.182,433.913"/>
				<path clip-path="url(#SVGID_16_)" d="M168.344,130.254c0.01,0.173,0.021,0.348,0.033,0.522
					C168.365,130.602,168.354,130.427,168.344,130.254 M168.341,130.215c0.001,0.014,0.002,0.026,0.003,0.039
					C168.343,130.241,168.342,130.229,168.341,130.215 M168.339,130.174c0,0.014,0.001,0.027,0.002,0.042
					C168.34,130.201,168.339,130.188,168.339,130.174 M168.333,130.099c0.002,0.025,0.003,0.049,0.005,0.075
					C168.336,130.148,168.335,130.124,168.333,130.099 M168.333,130.089c0,0.002,0,0.005,0,0.01
					C168.333,130.094,168.333,130.091,168.333,130.089 M168.328,129.995c0.002,0.032,0.003,0.062,0.005,0.094
					C168.331,130.057,168.33,130.027,168.328,129.995"/>
				<path clip-path="url(#SVGID_16_)" d="M168.266,128.897c0.014,0.267,0.03,0.538,0.044,0.811
					C168.296,129.436,168.28,129.165,168.266,128.897"/>
				<path clip-path="url(#SVGID_16_)" d="M189.869,241.309v0.011V241.309z"/>
				<path clip-path="url(#SVGID_16_)" d="M168.215,127.864c0.014,0.301,0.029,0.605,0.045,0.915
					C168.244,128.469,168.229,128.165,168.215,127.864"/>
				<path clip-path="url(#SVGID_16_)" d="M168.108,125.04c0.008,0.255,0.016,0.516,0.025,0.785
					C168.125,125.556,168.116,125.295,168.108,125.04"/>
				<path clip-path="url(#SVGID_16_)" d="M168.175,126.914c0.009,0.238,0.02,0.48,0.031,0.726
					C168.195,127.395,168.184,127.151,168.175,126.914"/>
				<path clip-path="url(#SVGID_16_)" d="M168.066,123.395c0.009,0.46,0.022,0.968,0.038,1.512
					C168.088,124.363,168.076,123.854,168.066,123.395"/>
				<path clip-path="url(#SVGID_16_)" d="M168.142,126.058L168.142,126.058c0.008,0.224,0.017,0.451,0.026,0.681
					C168.159,126.508,168.15,126.281,168.142,126.058"/>
				<path clip-path="url(#SVGID_16_)" d="M168.388,130.957c0.021,0.317,0.044,0.635,0.067,0.953
					C168.432,131.591,168.408,131.274,168.388,130.957"/>
				<path clip-path="url(#SVGID_16_)" d="M168.77,135.382c0.027,0.25,0.056,0.498,0.086,0.743
					C168.825,135.879,168.797,135.632,168.77,135.382"/>
				<path clip-path="url(#SVGID_16_)" d="M169.027,137.452c0.033,0.234,0.068,0.466,0.103,0.692
					C169.095,137.918,169.061,137.686,169.027,137.452"/>
				<path clip-path="url(#SVGID_16_)" d="M168.88,136.335c0.037,0.306,0.076,0.606,0.117,0.903
					C168.956,136.941,168.917,136.641,168.88,136.335"/>
				<path clip-path="url(#SVGID_16_)" d="M169.168,138.393c0.046,0.288,0.094,0.571,0.145,0.846
					C169.262,138.964,169.215,138.68,169.168,138.393"/>
				<path clip-path="url(#SVGID_16_)" d="M168.653,134.249c0.028,0.284,0.056,0.567,0.086,0.849
					C168.709,134.816,168.681,134.533,168.653,134.249"/>
				<path clip-path="url(#SVGID_16_)" d="M168.475,132.168c0.019,0.244,0.038,0.488,0.058,0.732
					C168.513,132.656,168.494,132.413,168.475,132.168"/>
				<path clip-path="url(#SVGID_16_)" d="M168.557,133.191c0.021,0.249,0.043,0.497,0.065,0.745
					c0.001,0.008,0.002,0.018,0.003,0.026C168.602,133.705,168.579,133.448,168.557,133.191"/>
				<path clip-path="url(#SVGID_16_)" d="M189.734,237.771l0.001,0.015L189.734,237.771z"/>
				<path clip-path="url(#SVGID_16_)" d="M189.72,237.561c0,0.007,0.001,0.014,0.001,0.021c0.004,0.064,0.009,0.127,0.013,0.189
					C189.73,237.701,189.725,237.631,189.72,237.561"/>
				<path clip-path="url(#SVGID_16_)" d="M189.858,240.759L189.858,240.759c0.004,0.186,0.008,0.369,0.011,0.55
					C189.866,241.128,189.863,240.945,189.858,240.759"/>
				<path clip-path="url(#SVGID_16_)" d="M189.738,237.836L189.738,237.836c0.01,0.158,0.019,0.316,0.027,0.476
					C189.757,238.152,189.748,237.994,189.738,237.836"/>
				<path clip-path="url(#SVGID_16_)" d="M168.739,135.098c0.009,0.095,0.02,0.189,0.031,0.284
					C168.759,135.287,168.749,135.192,168.739,135.098"/>
				<path clip-path="url(#SVGID_16_)" d="M168.134,125.825l0.001,0.026L168.134,125.825z"/>
				<path clip-path="url(#SVGID_16_)" d="M168.167,126.739l0.007,0.175L168.167,126.739z"/>
				<path clip-path="url(#SVGID_16_)" d="M168.26,128.778l0.006,0.119L168.26,128.778z"/>
				<path clip-path="url(#SVGID_16_)" d="M168.206,127.64l0.01,0.224L168.206,127.64z"/>
				<polygon clip-path="url(#SVGID_16_)" points="168.066,123.391 168.066,123.391 168.066,123.394 				"/>
				<path clip-path="url(#SVGID_16_)" d="M168.104,124.907l0.004,0.133L168.104,124.907z"/>
				<path clip-path="url(#SVGID_16_)" d="M169.13,138.145c0.013,0.083,0.025,0.167,0.038,0.248
					C169.155,138.311,169.143,138.229,169.13,138.145"/>
				<polygon clip-path="url(#SVGID_16_)" points="168.644,134.154 168.644,134.154 168.653,134.248 				"/>
				<path clip-path="url(#SVGID_16_)" d="M168.855,136.125l0.024,0.21L168.855,136.125z"/>
				<path clip-path="url(#SVGID_16_)" d="M168.997,137.238l0.031,0.215L168.997,137.238z"/>
				<path clip-path="url(#SVGID_16_)" d="M168.455,131.91c0.006,0.086,0.014,0.173,0.02,0.259
					C168.469,132.082,168.461,131.996,168.455,131.91"/>
				<path clip-path="url(#SVGID_16_)" d="M168.555,133.152c0,0.013,0.001,0.026,0.002,0.04
					C168.556,133.178,168.555,133.165,168.555,133.152 M168.536,132.95c0.006,0.067,0.012,0.135,0.019,0.202
					C168.548,133.085,168.542,133.017,168.536,132.95 M168.533,132.901c0,0.016,0.002,0.033,0.003,0.049
					C168.535,132.934,168.533,132.917,168.533,132.901"/>
				<path clip-path="url(#SVGID_16_)" d="M168.377,130.776l0.012,0.182L168.377,130.776z"/>
				<path clip-path="url(#SVGID_16_)" d="M168.311,129.708c0.005,0.095,0.012,0.191,0.017,0.287
					C168.322,129.899,168.316,129.803,168.311,129.708"/>
				<path clip-path="url(#SVGID_16_)" d="M262.839,72.987c0.702,1.05,10.784,7.11,24.52,11.258c-0.001,0-0.001,0-0.001,0
					C273.623,80.097,263.543,74.037,262.839,72.987 M262.835,72.979c0,0.003,0.001,0.004,0.003,0.007
					C262.836,72.984,262.835,72.982,262.835,72.979 M262.833,72.977c0,0.001,0,0.001,0.002,0.002
					C262.833,72.979,262.833,72.978,262.833,72.977 M262.829,72.974c0.002,0.001,0.002,0.001,0.002,0.002
					C262.831,72.975,262.831,72.975,262.829,72.974 M262.827,72.969c0,0.001,0,0.001,0,0.001
					C262.827,72.97,262.827,72.97,262.827,72.969 M262.825,72.966L262.825,72.966L262.825,72.966 M262.822,72.96
					c0,0.001,0,0.001,0.002,0.002C262.822,72.961,262.822,72.961,262.822,72.96 M262.82,72.957
					C262.82,72.957,262.82,72.957,262.82,72.957S262.82,72.957,262.82,72.957 M262.816,72.952
					C262.817,72.952,262.817,72.953,262.816,72.952C262.817,72.953,262.817,72.952,262.816,72.952 M262.814,72.949L262.814,72.949
					 M262.81,72.938c0,0.001,0.001,0.002,0.001,0.002S262.81,72.939,262.81,72.938 M262.809,72.93c0,0.001,0,0.002,0,0.002
					C262.809,72.932,262.809,72.931,262.809,72.93 M262.805,72.922c0,0.001,0.001,0.002,0.001,0.003
					C262.806,72.924,262.805,72.923,262.805,72.922 M262.8,72.911c0,0.002,0.001,0.002,0.002,0.004
					C262.801,72.914,262.8,72.913,262.8,72.911 M263.813,70.422c-0.653,0.912-1.058,1.715-1.06,2.229
					c0,0.097,0.016,0.183,0.044,0.257c-0.186-0.47,0.242-1.402,1.018-2.485C263.814,70.423,263.814,70.422,263.813,70.422"/>
				<path clip-path="url(#SVGID_16_)" d="M137.578,162.95c0,0,0.621,4.661,3.108,9.944c2.485,5.283,27.657,36.98,27.657,36.98
					s-22.685-24.86-23.928-26.415c-1.155-1.442-10.088-8.519-11.35-8.52c-0.097,0-0.148,0.041-0.148,0.129
					c0,1.243,7.769,9.633,13.984,15.538c6.214,5.905,18.957,18.646,24.861,27.658c5.905,9.012,16.781,24.55,16.781,24.55
					s-2.176-9.012-3.729-12.74c-1.554-3.729-8.08-13.674-9.635-16.16C173.627,211.428,137.578,162.95,137.578,162.95"/>
				<path clip-path="url(#SVGID_16_)" d="M140.065,155.491c0,0,3.417,12.741,10.255,19.268c6.837,6.525,13.984,8.701,13.984,8.701
					s-11.499-9.633-13.674-12.74C148.455,167.611,140.065,155.491,140.065,155.491"/>
				<path clip-path="url(#SVGID_16_)" d="M486.873,172.272c0,0-4.04,8.08-7.457,14.295c-3.419,6.214-18.025,18.023-25.793,22.374
					c-7.771,4.351-22.064,20.2-22.064,20.2s6.525-1.244,10.565-4.352c4.04-3.107,29.833-13.362,39.778-27.657
					C491.846,182.839,486.873,172.272,486.873,172.272"/>
				<path clip-path="url(#SVGID_16_)" d="M481.901,219.508c0,0-11.187,9.633-19.889,12.12c-8.701,2.485-25.173,5.593-25.173,5.593
					s3.106,0.817,8.103,0.817c4.746,0,11.197-0.737,18.313-3.613C477.86,228.521,481.901,219.508,481.901,219.508"/>
				<path clip-path="url(#SVGID_16_)" d="M470.915,178.094c-2.252,0-5.146,0.853-7.971,4.124c-5.904,6.836-7.769,9.322-13.052,12.43
					c-5.145,3.026-7.931,15.18-8.072,15.818c0.125-0.552,2.099-8.786,9.005-12.09c7.147-3.417,12.119-3.107,15.538-9.012
					s8.701-10.254,8.701-10.254S473.373,178.094,470.915,178.094"/>
			</g>
		</g>
	</g>
	<g clip-path="url(#SVGID_2_)">
		<defs>
			<rect id="SVGID_17_" x="34.923" y="40.702" width="547" height="707.882"/>
		</defs>
		<clipPath id="SVGID_18_">
			<use xlink:href="#SVGID_17_"  overflow="visible"/>
		</clipPath>
		<g opacity="0.5" clip-path="url(#SVGID_18_)">
			<g>
				<defs>
					<rect id="SVGID_19_" x="197.855" y="437.271" width="220.352" height="20.476"/>
				</defs>
				<clipPath id="SVGID_20_">
					<use xlink:href="#SVGID_19_"  overflow="visible"/>
				</clipPath>
				
					<path clip-path="url(#SVGID_20_)" fill="none" stroke="#897F76" stroke-width="0.708" stroke-miterlimit="10" stroke-dasharray="1.706,0.853" d="
					M198.038,437.573c0,0,6.758,4.817,12.596,7.282c5.839,2.467,28.804,9.604,44.243,11.419s49.172,1.167,73.436,0.26
					c24.262-0.909,57.476-3.633,60.849-3.893s9.474-0.648,10.641-0.907c1.168-0.26,10.12-2.337,12.586-4.282
					c2.464-1.947,3.242-2.855,3.762-3.634c0.52-0.777,0.992-2.371,0.992-2.371l0.754-4.12"/>
			</g>
		</g>
		<g opacity="0.5" clip-path="url(#SVGID_18_)">
			<g>
				<defs>
					<rect id="SVGID_21_" x="196.968" y="447.028" width="221.241" height="22.869"/>
				</defs>
				<clipPath id="SVGID_22_">
					<use xlink:href="#SVGID_21_"  overflow="visible"/>
				</clipPath>
				
					<path clip-path="url(#SVGID_22_)" fill="none" stroke="#897F76" stroke-width="0.708" stroke-miterlimit="10" stroke-dasharray="1.706,0.853" d="
					M197.275,447.102c0.135,0.559,0.515,2.427,1.033,3.074c0.519,0.649,7.396,4.672,19.852,8.694
					c12.456,4.022,36.068,9.601,51.639,10.509c15.568,0.908,47.096-1.559,69.93-1.298c22.834,0.26,55.791-4.411,65.003-6.487
					c9.212-2.075,13.215-8.036,13.215-8.036"/>
			</g>
		</g>
		<g opacity="0.5" clip-path="url(#SVGID_18_)">
			<g>
				<defs>
					<rect id="SVGID_23_" x="170.095" y="689.257" width="112.687" height="25.247"/>
				</defs>
				<clipPath id="SVGID_24_">
					<use xlink:href="#SVGID_23_"  overflow="visible"/>
				</clipPath>
				
					<path clip-path="url(#SVGID_24_)" fill="none" stroke="#897F76" stroke-width="0.708" stroke-miterlimit="10" stroke-dasharray="1.706,0.853" d="
					M170.157,709.856c0,0,14.724,2.925,30.153,3.513c15.432,0.587,17.892,2.053,38.498-1.365
					c20.609-3.419,28.813-4.983,31.745-6.252c2.929-1.27,6.054-2.342,7.519-3.319c1.465-0.977,3.223-2.15,3.32-2.54
					c0.099-0.391,1.074-10.605,1.074-10.605"/>
			</g>
		</g>
		<g opacity="0.5" clip-path="url(#SVGID_18_)">
			<g>
				<defs>
					<rect id="SVGID_25_" x="170.65" y="706.438" width="108.328" height="12.034"/>
				</defs>
				<clipPath id="SVGID_26_">
					<use xlink:href="#SVGID_25_"  overflow="visible"/>
				</clipPath>
				
					<path clip-path="url(#SVGID_26_)" fill="none" stroke="#897F76" stroke-width="0.708" stroke-miterlimit="10" stroke-dasharray="1.706,0.853" d="
					M170.72,713.762c0,0,19.533,4.394,36.332,4.394c16.798,0,29.805-1.173,46.213-4.59c16.408-3.419,22.27-5.08,23.245-5.665
					s2.343-1.172,2.343-1.172"/>
			</g>
		</g>
		<g opacity="0.5" clip-path="url(#SVGID_18_)">
			<g>
				<defs>
					<rect id="SVGID_27_" x="339.838" y="707.045" width="106.479" height="9.015"/>
				</defs>
				<clipPath id="SVGID_28_">
					<use xlink:href="#SVGID_27_"  overflow="visible"/>
				</clipPath>
				
					<path clip-path="url(#SVGID_28_)" fill="none" stroke="#897F76" stroke-width="0.708" stroke-miterlimit="10" stroke-dasharray="1.706,0.853" d="
					M340.061,707.269c0,0,1.471,1.47,4.166,1.96c1.467,0.266,2.515,0.15,2.515,0.15s22.113,3.157,28.118,4.015
					c6.003,0.861,19.24,3.433,38.354,1.839c19.114-1.591,33.064-3.375,33.064-3.375"/>
			</g>
		</g>
		<g opacity="0.5" clip-path="url(#SVGID_18_)">
			<g>
				<defs>
					<rect id="SVGID_29_" x="338.267" y="702.035" width="108.9" height="9.509"/>
				</defs>
				<clipPath id="SVGID_30_">
					<use xlink:href="#SVGID_29_"  overflow="visible"/>
				</clipPath>
				
					<path clip-path="url(#SVGID_30_)" fill="none" stroke="#897F76" stroke-width="0.708" stroke-miterlimit="10" stroke-dasharray="1.706,0.853" d="
					M338.591,702.123c0,0-0.734,2.572,12.742,4.41c13.479,1.838,31.001,6.005,57.101,4.29c26.101-1.715,37.749-3.203,38.479-4.175"
					/>
			</g>
		</g>
		<g opacity="0.5" clip-path="url(#SVGID_18_)">
			<g>
				<defs>
					<rect id="SVGID_31_" x="416.717" y="436.801" width="7.414" height="44.329"/>
				</defs>
				<clipPath id="SVGID_32_">
					<use xlink:href="#SVGID_31_"  overflow="visible"/>
				</clipPath>
				
					<path clip-path="url(#SVGID_32_)" fill="none" stroke="#897F76" stroke-width="0.472" stroke-miterlimit="10" stroke-dasharray="1.706,0.853" d="
					M417.946,436.825c0,0-0.238,2.063-0.498,3.101c-0.263,1.038-0.521,2.336-0.521,3.244c0,0.909,0.132,2.206,0.392,2.984
					c0.258,0.779,1.648,4.49,1.407,5.294s-1.149,2.62-1.149,3.658s0.391,7.006,0.78,8.563c0.387,1.558,2.203,8.433,2.983,9.73
					c0.777,1.298,1.168,2.984,1.298,3.763c0.128,0.778,1.295,3.893,1.295,3.893"/>
			</g>
		</g>
		<g opacity="0.5" clip-path="url(#SVGID_18_)">
			<g>
				<defs>
					<rect id="SVGID_33_" x="262.111" y="611.334" width="86.174" height="112.137"/>
				</defs>
				<clipPath id="SVGID_34_">
					<use xlink:href="#SVGID_33_"  overflow="visible"/>
				</clipPath>
				
					<path clip-path="url(#SVGID_34_)" fill="none" stroke="#887F76" stroke-width="0.472" stroke-miterlimit="10" stroke-dasharray="1.706,0.853" d="
					M348.076,720.621v-4.763c0-0.574-1.524-3.05-1.907-3.812c-0.38-0.762,0-1.906,0.572-2.668c0.572-0.763,0.189-1.907-0.572-2.86
					c-0.762-0.952-0.571-2.668-0.571-2.668l0.763-1.333c0,0-2.477-8.385-2.667-11.053c-0.192-2.666-4.384-20.772-7.052-31.441
					c-2.669-10.673-4.573-29.918-15.816-40.973c-7.135-7.013-24.201-8.956-32.206-6.478c-8.003,2.478-9.146,13.148-11.053,20.771
					c-1.904,7.622-10.1,48.594-10.862,52.405c-0.763,3.811-4.383,37.699-4.383,37.699"/>
			</g>
		</g>
		<g opacity="0.35" clip-path="url(#SVGID_18_)">
			<g>
				<defs>
					<rect id="SVGID_35_" x="248.687" y="83.738" width="122.86" height="21.888"/>
				</defs>
				<clipPath id="SVGID_36_">
					<use xlink:href="#SVGID_35_"  overflow="visible"/>
				</clipPath>
				
					<path clip-path="url(#SVGID_36_)" fill="none" stroke="#00AB5D" stroke-width="0.795" stroke-miterlimit="10" stroke-dasharray="0.683,0.683" d="
					M371.249,86.307c0,0-12.286,18.487-59.713,18.957c-47.863,0.473-62.555-21.326-62.555-21.326"/>
			</g>
		</g>
		<g opacity="0.35" clip-path="url(#SVGID_18_)">
			<g>
				<defs>
					<rect id="SVGID_37_" x="121.128" y="241.809" width="65.772" height="8.694"/>
				</defs>
				<clipPath id="SVGID_38_">
					<use xlink:href="#SVGID_37_"  overflow="visible"/>
				</clipPath>
				
					<path clip-path="url(#SVGID_38_)" fill="none" stroke="#00AB5D" stroke-width="0.795" stroke-miterlimit="10" stroke-dasharray="0.683,0.683" d="
					M121.222,242.151c0,0,15.068,4.168,33.983,6.091c18.917,1.923,31.694,1.904,31.694,1.904"/>
			</g>
		</g>
		<g opacity="0.35" clip-path="url(#SVGID_18_)">
			<g>
				<defs>
					<rect id="SVGID_39_" x="121.128" y="244.654" width="65.772" height="8.694"/>
				</defs>
				<clipPath id="SVGID_40_">
					<use xlink:href="#SVGID_39_"  overflow="visible"/>
				</clipPath>
				
					<path clip-path="url(#SVGID_40_)" fill="none" stroke="#00AB5D" stroke-width="0.795" stroke-miterlimit="10" stroke-dasharray="0.683,0.683" d="
					M121.222,244.997c0,0,15.068,4.167,33.983,6.091c18.917,1.924,31.694,1.905,31.694,1.905"/>
			</g>
		</g>
		<g opacity="0.35" clip-path="url(#SVGID_18_)">
			<g>
				<defs>
					<rect id="SVGID_41_" x="430.694" y="241.809" width="65.772" height="8.694"/>
				</defs>
				<clipPath id="SVGID_42_">
					<use xlink:href="#SVGID_41_"  overflow="visible"/>
				</clipPath>
				
					<path clip-path="url(#SVGID_42_)" fill="none" stroke="#00AB5D" stroke-width="0.795" stroke-miterlimit="10" stroke-dasharray="0.683,0.683" d="
					M496.373,242.151c0,0-15.068,4.168-33.983,6.091c-18.916,1.923-31.694,1.904-31.694,1.904"/>
			</g>
		</g>
		<g opacity="0.35" clip-path="url(#SVGID_18_)">
			<g>
				<defs>
					<rect id="SVGID_43_" x="430.694" y="244.654" width="65.772" height="8.694"/>
				</defs>
				<clipPath id="SVGID_44_">
					<use xlink:href="#SVGID_43_"  overflow="visible"/>
				</clipPath>
				
					<path clip-path="url(#SVGID_44_)" fill="none" stroke="#00AB5D" stroke-width="0.795" stroke-miterlimit="10" stroke-dasharray="0.683,0.683" d="
					M496.373,244.997c0,0-15.068,4.167-33.983,6.091c-18.916,1.924-31.694,1.905-31.694,1.905"/>
			</g>
		</g>
		<g opacity="0.35" clip-path="url(#SVGID_18_)">
			<g>
				<defs>
					<rect id="SVGID_45_" x="426.719" y="123.238" width="22.529" height="122.775"/>
				</defs>
				<clipPath id="SVGID_46_">
					<use xlink:href="#SVGID_45_"  overflow="visible"/>
				</clipPath>
				<path clip-path="url(#SVGID_46_)" fill="none" stroke="#00AB5D" stroke-width="0.795" stroke-miterlimit="10" d="
					M448.893,123.239c0,0,0.033,8.947-1.249,16c-1.281,7.053-8.335,33.022-9.938,40.716c-1.604,7.694-8.978,48.41-9.939,53.22
					c-0.963,4.809-0.641,12.824-0.641,12.824"/>
			</g>
		</g>
		<g opacity="0.35" clip-path="url(#SVGID_18_)">
			<g>
				<defs>
					<rect id="SVGID_47_" x="167.711" y="123.39" width="22.527" height="122.623"/>
				</defs>
				<clipPath id="SVGID_48_">
					<use xlink:href="#SVGID_47_"  overflow="visible"/>
				</clipPath>
				<path clip-path="url(#SVGID_48_)" fill="none" stroke="#00AB5D" stroke-width="0.795" stroke-miterlimit="10" d="
					M168.066,123.39c0,0-0.036,8.796,1.247,15.849c1.282,7.053,8.335,33.022,9.938,40.716c1.604,7.694,8.977,48.41,9.939,53.22
					c0.961,4.809,0.64,12.824,0.64,12.824"/>
			</g>
		</g>
		<g opacity="0.35" clip-path="url(#SVGID_18_)">
			<g>
				<defs>
					<rect id="SVGID_49_" x="247.048" y="85.256" width="126.409" height="22.857"/>
				</defs>
				<clipPath id="SVGID_50_">
					<use xlink:href="#SVGID_49_"  overflow="visible"/>
				</clipPath>
				
					<path clip-path="url(#SVGID_50_)" fill="none" stroke="#00AB5D" stroke-width="0.795" stroke-miterlimit="10" stroke-dasharray="0.683,0.683" d="
					M373.168,87.527c0,0-14.233,19.753-61.66,20.223c-47.864,0.475-64.172-22.288-64.172-22.288"/>
			</g>
		</g>
	</g>
</g>

</svg>
