<?xml version="1.0" encoding="utf-8"?>
<!-- Generator: Adobe Illustrator 25.3.1, SVG Export Plug-In . SVG Version: 6.00 Build 0)  -->
<svg version="1.1" xmlns="http://www.w3.org/2000/svg" xmlns:xlink="http://www.w3.org/1999/xlink" x="0px" y="0px"
	 viewBox="0 0 620.7 1011.7" enable-background="new 0 0 784.7 1011.7" xml:space="preserve">
<g id="MASKB">
<g id="BODY">
	<path fill="#FFFFFF" stroke="#897F76" stroke-width="0.5" d="M670.3,605.6c-0.2-15.4-2.9-49-5.1-59.5c-2.2-10.5-8.8-40.9-11.5-56.8
		c-2.7-15.9-6.4-47.7-6.9-49.2c-0.5-1.5-6.4-23.7-8.6-28.6c-2.2-4.9-12.5-36.5-13-37.9c-0.5-1.5-5.6-18.4-5.9-20.6
		c-0.2-2.2-6.6-20.6-7.3-23.5c-0.7-2.9-1.5-18.1-2-20.8c-0.5-2.7-2.7-19.8-3.4-24c-0.7-4.2-3.2-14-3.9-15.4
		c-0.7-1.5-1.5-6.6-1.5-8.1c0-1.5,0.5-3.4,0.2-4.7c-0.2-1.2-1.2-3.4-1.2-4.9c0-1.5,1.5-6.4,1-8.8c-0.5-2.4-2.4-4.9-2.4-9.5
		c0-4.7,1-8.4,1-8.4s-41.2-23.2-240.4-24.6c-199.2-1.4-183.7,25.5-183.7,25.5l0,0.1c-0.4,0.9-0.8,2.2-0.7,2.6c0.1,0.7,0.2,6-0.1,8.2
		c-0.4,2.2-0.9,5.4-1.4,6.7c-0.5,1.3-0.2,8.8-0.2,10.3c0,1.4,0.2,5.9,0.3,6.4c0.1,0.5,0.4,5.2-0.4,7.3c-0.8,2.1-1,2.5-1,2.5
		l-4.3,16.8c0,0-2,2.7-2.4,6.7c-0.4,4-0.4,6.9-0.4,6.9s-1.2,3-1.2,5.2c0,2.2,0.1,4.6,0.1,4.6s-0.4,5.3-1.2,9.5
		c-0.8,4.3-1.3,7.8-1.3,7.8s-2,7-2.2,8.5c-0.1,1.4-0.7,9-0.9,11.1c-0.3,2.1-2.6,14.2-4,19.8c-1.4,5.6-12.9,43.4-16.8,56.7
		c-3.9,13.2-11.3,34.8-11.7,38.2c-0.5,3.4-7.6,45-8.3,50.9c-0.7,5.9-9.1,60.9-9.8,66.3c-0.7,5.4-1,32.1-0.2,50.7
		c0.7,18.6,2.2,45.5,3.7,54.1c1.5,8.6,4.9,34,5.4,36.7c0.5,2.7,2.5,14.9,2.5,16.9c0,2,0.7,9.1,0.7,10c0,1-0.5,4.4-0.5,4.4
		s-1.2,2.7-0.5,3.9c0.7,1.2,2.5,2.2,2.5,3.2c0,1-0.7,2.9-0.7,2.9s0,3.2,0,4.2c0,1,0.7,14.4,1.7,15.9c1,1.5,1.7,3.4,4.9,4.2
		c3.2,0.7,16.6,2.9,27.2,3.7c10.5,0.7,51.6,5.6,88.1,1.5c36.5-4.2,64.4-12.7,64.4-12.7s1.7-0.2,3.3-0.3c-0.2-3.8-0.3-8-0.3-8.6
		c0-1.1,2.9-5.9,3.7-7.3c0.7-1.5,0-3.7-1.1-5.1c-1.1-1.5-0.4-3.7,1.1-5.5c1.5-1.8,1.1-5.1,1.1-5.1l-1.5-2.6c0,0,4.8-16.2,5.1-21.3
		c0.4-5.1,8.4-40,13.6-60.6c5.1-20.6,8.8-57.6,30.5-78.9c13.7-13.5,46.6-17.3,62.1-12.5c15.4,4.8,17.6,25.3,21.3,40
		c3.7,14.7,19.5,93.6,20.9,101c1.2,5.9,5.2,42.8,6.7,57.5c1.9,0,3.9-0.1,3.9-0.1s21.5,7.1,43.6,10.3c22,3.2,66.8,5.9,92.3,2.9
		c25.5-2.9,35-5.4,37.2-6.1c2.2-0.7,3.7-2,4.4-3.7c0.7-1.7,0.7-5.1,0.7-5.1s3.7-22.5,3.9-25c0.2-2.4,2.7-22,2.7-22.8
		c0-0.7,1-8.1,1.2-9.8c0.2-1.7,3.7-32.1,3.7-34.5C666.8,672.6,670.5,621,670.3,605.6z"/>
</g>
	</g>
<g id="CUSTOM"></g>	
<g id="CROTCH">
	<path fill="#FFFFFF" stroke="#897F76" stroke-width="0.5" d="M445.6,610.5c-3.7-14.7-5.9-35.2-21.3-40c-15.4-4.8-48.3-1-62.1,12.5
		c-21.7,21.3-25.3,58.4-30.5,78.9c-5.1,20.6-13.2,55.4-13.6,60.6c-0.4,5.1-5.1,21.3-5.1,21.3l1.5,2.6c0,0,0.4,3.3-1.1,5.1
		c-1.5,1.8-2.2,4-1.1,5.5c1.1,1.5,1.8,3.7,1.1,5.1c-0.7,1.5-3.7,6.2-3.7,7.3c0,0.6,0.2,4.8,0.3,8.6c0.4,0,0.8-0.1,1.2-0.1
		c1.7-0.2,6.9-3.2,7.6-4.4c0.7-1.2,2.9-4.6,2.9-4.6l0.5-2.5v-2.7c0,0,2-8.8,2.2-9.5c0.2-0.7,1.2-3.2,1.5-4.4
		c0.2-1.2,0.2-3.7,0.2-3.7l1.5-2c0,0,0.7-3.7,0.7-4.9c0-1.2,0-3.4,0.2-4.6c0.2-1.2,6.1-13.2,8.6-19.1c2.4-5.9,16.2-42.6,19.1-51.2
		c2.9-8.6,11.5-38.4,12.7-43.3c1.2-4.9,7.3-28.1,7.6-31.6c0.2-3.4,3.4-14.4,3.4-14.4l14.4-4.4c0,0,15.7,73.9,22.8,96
		c7.1,22,18.8,50.2,18.8,50.2s-0.2,2.7,0.7,4.9c1,2.2,5.4,11.3,6.1,14c0.7,2.7,3.2,12,3.2,12s-1.2,6.6,2.2,10
		c3.4,3.4,7.3,5.6,11.3,6.6c3.9,1,8.1,2,8.1,2s1.7,2.4,3.7,2.7c0.5,0.1,1.2,0.1,2,0.1c-1.6-14.7-5.6-51.6-6.7-57.5
		C465,704.1,449.2,625.2,445.6,610.5z"/>
</g>
<g id="SHADING">
	<g opacity="2.000000e-02">
		<path d="M175.7,225.7c-0.9,0-0.5,5.7-0.5,7.1c0,2.4-1.3,7.6-1.7,10.5c-0.3,2.9-0.2,9.8-0.2,9.8c0.1,2.5,0,8.8,0,8.8s0,2.9-0.2,5.4
			c-0.2,2.5-2.2,6.8-2.2,8.8c0,2-3.1,10.5-3.1,10.5l-2.4,6.7l-0.4,6.9c0,0-1.2,5.2-1,9.8c0.1,4.6-0.9,12.1-1.9,15
			c-1,2.9-3.4,18.1-3.7,21.9c-0.3,3.8-8.5,39.3-10,43.7c-1.5,4.4-21,67.6-23.5,76.4c-2.4,8.8-8.3,49.9-8.3,54.8
			c0,4.9-6.4,41.1-8.3,53.4c-2,12.2-0.5,40.6-0.5,40.6s6.9-37.7,9.8-44.1c2.9-6.4,1.5-20.1,3.4-30.4c2-10.3,2.9-16.6,5.4-24
			c2.4-7.3,6.9-45,8.8-49c2-3.9,15.2-56.3,15.7-58.7c0.5-2.4,8.3-23,8.3-28.4c0-5.4,9.8-37.2,11.7-44.5c2-7.3,16.9-49.5,16.9-49.5
			l3.7-0.4v-9.8c0,0-3.9-4.9-3.7-7.3l0,0l0,0c0-0.3,0-0.5,0.1-0.7c0.4-3.5,1.6-14.5,1.6-14.5s2.9-2,3.4-3.4c0.5-1.5,2.9-8.9,2.9-8.9
			s-11.1-3.8-15.7-8.8C178.2,231.2,175.7,225.7,175.7,225.7C175.7,225.7,175.7,225.7,175.7,225.7"/>
		<path d="M608.4,780.4c-18.4,1-38.1,1.6-48.1,1.7c0.2,0.4,0.3,0.7,0.3,0.7l48-1L608.4,780.4 M570.2,476.7
			c-6.1,0-16.9,7.9-21.4,12.4c-5.9,5.9-48,35.2-62.7,49.9c-14.7,14.7-33.3,24.5-36.2,24.5c-2.9,0-20.6,9.8-20.6,9.8s1.7,1.2,3.9,3.9
			c0.2,0.2,0.4,0.5,0.6,0.7c2.4,3,5.2,7.6,7.3,13.9c2.1,6.4,4,14.1,5.8,22c7.9,30.2,15.8,72.4,20.4,103.7c4.2,28.5,7,51.8,7,51.8
			l0,0l0,0c0,0,65.5,13,83.1,13c0.8,0,1.8,0,2.9,0c-2.3-5.3-16.8-40.2-10.5-61c6.9-22.5,21.5-57.8,26.4-72.5
			c4.9-14.7,9.8-19.6,7.8-47c-2-27.4-7.8-24.5-6.9-58.7c1-34.3,0-55.8-2.9-63.6C573.6,477.4,572.1,476.7,570.2,476.7 M599.8,224.8
			c0,0-26.4,11.6-39.2,15.5c-12.7,3.9-31.2,8.8-31.2,8.8s2.8,28.4-10.9,35.3c-13.7,6.9-13.7,6.9-13.7,6.9s0,6.9,11.7,16.6
			c11.7,9.8,26.4,17.6,32.3,20.6c5.9,2.9,12.7,10.8,12.7,17.6c0,6.9-14.7,22.5-5.9,38.2c8.8,15.7,27.4,9.8,38.2,24.5
			c10.8,14.7,10.8,97.9,20.6,139c9.8,41.1,7.8,92,7.8,104.8c0,12.7-5.9,33.3-7.8,53.9c-2,20.6-8.8,24.5-8.8,29.4
			c0,4.9,0,13.7,0,13.7l2.8,30.9c20.6-1.1,39.5-2.6,41.7-4.5c4.4-3.7,5.1-8.8,5.1-8.8l1.2-12.7c0,0,18.6-121.4,14.7-153.7
			c-3.9-32.3-18.6-117.5-20.6-130.2c-2-12.7-3.2-37-7.8-48c-4.6-11-28.4-80.3-30.4-89.1c-2-8.8-1-20.1-2.4-24.7
			c-1.5-4.7-2.4-27.2-4.4-32.1c-2-4.9-4.4-15.4-4.4-15.4L599.8,224.8"/>
		<path d="M407.4,567.6c-14.2,0-28.6,5.2-33.9,8.2c-8.8,4.9-25.4,12.2-36.2,54.3c0,0-12.2,39.9-14,53.4c-1.8,13.6-9.1,45.4-9.4,50.1
			c-0.3,4.7-2.9,10.6-2.9,18.6s-1.3,17.2-1.3,17.2l-2.9,8.9c0,0,0.7,0.1,1.6,0.1c1,0,2.1-0.1,2.8-0.6c1.3-0.9,5.2-2.1,6-3
			c0.9-0.9,4.5-6.1,4.5-6.1s0.7-3.7,0.5-5.1c-0.3-1.5,1.5-7.7,2.7-11.8c1.2-4.1,1.2-7.1,1.2-7.1s3.1-3.2,2.7-4.4
			c-0.4-1.2,0.3-7.4,0.9-8.9c0.6-1.5,15.6-32.1,27.7-70.8c9.4-30.1,18.9-71.1,19.5-73.4c0.6-2.4,3.2-12.4,3.2-12.4s11-4.5,13.9-4.5
			c0.2,0,0.4,0,0.5,0.1c1.6,0.9,12.8,63.2,17.8,79.6c5,16.4,16.2,52.2,19.2,56.3c2.9,4.1,4.8,11.8,4.8,11.8s0.9,1.4,2.1,4.7
			c1.1,3.3,4.7,11.9,5.6,15.4c0.9,3.5,2.3,6.9,2.3,9.2c0,2.3-0.2,4.1,0.3,6.1c0.6,2.1,1.9,3.9,1.9,3.9s6.3,5.1,11.3,6.6
			c5.2,1.6,14.8,5,14.8,5s-4.7-25.5-4.7-32.4c0-6.9-7.8-51.9-12.7-73.4c-2.2-9.6-5.6-30.5-9.9-49.7c-4.5-17.2-9.1-30.6-13-35.8
			c-0.2-0.2-0.4-0.5-0.6-0.7c-0.1-0.1-0.2-0.2-0.3-0.3C426.3,569.9,416.9,567.6,407.4,567.6"/>
		<path d="M446.9,613.7c4.3,19.2,7.8,40,9.9,49.7c4.9,21.5,12.7,66.6,12.7,73.4c0,6.9,4.7,32.4,4.7,32.4l0,0c0,0-2.9-23.3-7-51.8
			C462.6,686,454.8,643.9,446.9,613.7 M433.3,577.1c0.2,0.2,0.4,0.5,0.6,0.7C433.6,577.6,433.5,577.3,433.3,577.1"/>
		<path d="M190.1,267.7c-1.1,0-2,0.4-2.2,1.4c0,0.3-0.1,0.5-0.1,0.7c0,3.7,8.8,5.9,11.7,7.3c2.9,1.5,31.6,8.1,31.6,8.1
			s4.4,2.2,4.4,8.8c0,6.6-3.7,14.7-9.5,24.2c-5.9,9.5-19.1,2.9-27.2,30.1c-8.1,27.2-12.5,48.5-15.4,68.3
			c-2.9,19.8-16.9,63.2-24.2,81.5c-7.3,18.4-21.3,74.9-19.8,88.1c1.5,13.2,3.7,47,4.4,57.3c0.7,10.3,3.7,66.8,3.7,72
			c0,5.1,13.2,28.6,16.9,35.2c3.7,6.6,6.6,11,8.1,17.6c1.5,6.6,2.2,22,2.2,22s11.7,1.5,21.3,1.5c9.5,0,25-0.7,25-0.7
			s6.6-36,0.7-52.1c-5.9-16.2-3.7-64.6-12.5-78.6c-8.8-14-27.9-18.4-19.1-41.1c8.8-22.8,37.4-48.5,32.3-75.6
			c-5.1-27.2-11.7-50.7-8.8-52.1c2.9-1.5,38.9-14.7,43.3-18.4c4.4-3.7,55.8-9.5,40.4-49.2c-15.4-39.7-20.6-55.1-24.2-75.6
			c-3.7-20.6,12.5-63.2,12.5-63.2l5.9-0.7c0,0-50.7-4.4-61-5.9c-10.3-1.5-30.1-8.8-33.8-9.5C194.5,268.6,191.9,267.7,190.1,267.7"/>
		<path d="M187.9,269.1c0,0.2-0.1,0.4-0.1,0.7l0,0C187.8,269.6,187.8,269.3,187.9,269.1"/>
	</g>
</g>
<g id="STITCHING">
	<g>
		
			<path opacity="0.5" fill="none" stroke="#897F76" stroke-width="1.201" stroke-miterlimit="10" stroke-dasharray="2.8938,1.4469" d="
			M174,289.8c0,0,13.2-9.3,24.5-14c11.4-4.7,56.1-18.5,86.1-22c30.1-3.5,95.7-2.2,142.9-0.5c47.2,1.7,111.9,7,118.4,7.5
			c6.6,0.5,18.4,1.3,20.7,1.7c2.3,0.5,19.7,4.5,24.5,8.3c4.8,3.7,6.3,5.5,7.3,7c1,1.5,2.5,2.2,2.5,2.2l7.1,10.6"/>
		
			<path opacity="0.5" fill="none" stroke="#897F76" stroke-width="1.201" stroke-miterlimit="10" stroke-dasharray="2.8938,1.4469" d="
			M172.5,271.5c0.3-1.1,1-4.7,2-5.9c1-1.2,14.4-9,38.6-16.7c24.2-7.7,70.2-18.5,100.5-20.2c30.3-1.8,91.7,3,136.1,2.5
			c44.4-0.5,108.6,8.5,126.5,12.5c17.9,4,25.7,15.5,25.7,15.5"/>
		
			<path opacity="0.5" fill="none" stroke="#897F76" stroke-width="1.201" stroke-miterlimit="10" stroke-dasharray="2.8938,1.4469" d="
			M177,244.1c0,0,4.1-5,44.6-17c40.4-12,82-14.2,163.8-10.7c81.8,3.5,129.5,4,163.1,9.7c33.6,5.8,37.6,8.5,40.7,9.7
			c3,1.2,8.1,3.5,9.3,4.7c1.3,1.3,3.5,4.6,3.5,4.6"/>
		
			<path opacity="0.5" fill="none" stroke="#897F76" stroke-width="1.1949" stroke-miterlimit="10" stroke-dasharray="2.8792,1.4396" d="
			M659.2,742.2c0,0-28.4,5.6-58.1,6.8c-29.7,1.1-41.2,4-80.9-2.6c-39.7-6.6-55.5-9.6-61.2-12c-5.6-2.4-11.7-4.5-14.5-6.4
			c-2.8-1.9-6.2-4.1-6.4-4.9c-0.2-0.8-2.1-4.7-2.1-4.7"/>
		
			<path opacity="0.5" fill="none" stroke="#897F76" stroke-width="1.1949" stroke-miterlimit="10" stroke-dasharray="2.8792,1.4396" d="
			M658.2,749.7c0,0-37.6,8.5-70,8.5c-32.4,0-64.2-2.3-95.8-8.8c-31.6-6.6-42.9-9.8-44.8-10.9c-1.9-1.1-4.5-2.3-4.5-2.3"/>
		
			<path opacity="0.5" fill="none" stroke="#897F76" stroke-width="1.1949" stroke-miterlimit="10" stroke-dasharray="2.8792,1.4396" d="
			M325.1,752.9c0,0-2.8,2.8-8,3.8c-2.8,0.5-4.8,0.3-4.8,0.3s-42.6,6.1-54.2,7.7c-11.6,1.7-37.1,6.6-73.9,3.5
			c-36.8-3.1-63.7-6.5-63.7-6.5"/>
		
			<path opacity="0.5" fill="none" stroke="#897F76" stroke-width="1.1949" stroke-miterlimit="10" stroke-dasharray="2.8792,1.4396" d="
			M328,743c0,0,1.4,5-24.6,8.5c-26,3.5-59.7,11.6-110,8.3c-50.3-3.3-72.7-6.2-74.1-8"/>
	</g>
	
		<path opacity="0.5" fill="none" stroke="#897F76" stroke-width="0.7966" stroke-miterlimit="10" stroke-dasharray="2.8792,1.4396" d="
		M175.1,231.8c0,0,0.5,4,1,6c0.5,2,1,4.5,1,6.3c0,1.7-0.3,4.2-0.8,5.7c-0.5,1.5-3.2,8.7-2.7,10.2c0.5,1.5,2.2,5,2.2,7
		c0,2-0.8,13.5-1.5,16.5c-0.7,3-4.2,16.2-5.7,18.7c-1.5,2.5-2.3,5.7-2.5,7.2c-0.2,1.5-2.5,7.5-2.5,7.5"/>
	
		<path opacity="0.5" fill="none" stroke="#897F76" stroke-width="0.7966" stroke-miterlimit="10" stroke-dasharray="2.8792,1.4396" d="
		M309.7,778.6c0,0,0-8.1,0-9.2c0-1.1,2.9-5.9,3.7-7.3c0.7-1.5,0-3.7-1.1-5.1c-1.1-1.5-0.4-3.7,1.1-5.5c1.5-1.8,1.1-5.1,1.1-5.1
		l-1.5-2.6c0,0,4.8-16.2,5.1-21.3c0.4-5.1,8.4-40,13.6-60.6c5.1-20.6,8.8-57.6,30.5-78.9c13.7-13.5,46.6-17.3,62.1-12.5
		c15.4,4.8,17.6,25.3,21.3,40c3.7,14.7,19.5,93.6,20.9,101c1.5,7.3,8.4,56.9,8.4,56.9"/>
</g>
</svg>
