<?xml version="1.0" encoding="utf-8"?>
<!-- Generator: Adobe Illustrator 25.3.1, SVG Export Plug-In . SVG Version: 6.00 Build 0)  -->
<svg version="1.1" xmlns="http://www.w3.org/2000/svg" xmlns:xlink="http://www.w3.org/1999/xlink" x="0px" y="0px"
	 viewBox="0 0 625.3 1018.3" enable-background="new 0 0 777.3 1018.3" xml:space="preserve">
<g id="MASKF">
<g id="BODY">
	<path fill="#FFFFFF" stroke="#897F76" stroke-width="0.5" d="M667.1,578.7c-0.7-5.4-9-60.3-9.8-66.1c-0.7-5.9-7.8-47.3-8.3-50.7
		c-0.5-3.4-7.8-24.9-11.7-38.1c-3.9-13.2-15.4-50.8-16.7-56.5c-1.4-5.6-3.7-17.7-4-19.7c-0.3-2.1-0.8-9.7-0.9-11.1
		c-0.1-1.4-2.2-8.4-2.2-8.4s-0.5-3.5-1.3-7.8c-0.8-4.3-1.2-9.5-1.2-9.5s0.1-2.4,0.1-4.6c0-2.2-1.2-5.2-1.2-5.2s0-2.9-0.4-6.8
		c-0.4-4-2.4-6.7-2.4-6.7l-4.3-16.7c0,0-0.2-0.4-1-2.5c-0.8-2.1-0.5-6.8-0.4-7.3c0.1-0.5,0.3-5,0.3-6.4c0-1.4,0.3-8.9-0.2-10.2
		c-0.5-1.3-1-4.5-1.4-6.7c-0.4-2.2-0.3-7.5-0.1-8.1c0.1-0.4-0.4-1.8-0.8-2.7c0-0.2,0.1-0.4,0.1-0.6c0.9-9.4-38.1-14.7-229.3-17.2
		c-178.9-2.3-191.9,14.9-192.9,17.1c-0.2-0.1-0.4-0.2-0.4-0.2s1,3.8,1,8.4c0,4.6-2,7.1-2.4,9.5c-0.5,2.4,1,7.3,1,8.8
		c0,1.5-1,3.7-1.2,4.9c-0.2,1.2,0.2,3.2,0.2,4.6c0,1.5-0.7,6.6-1.5,8.1c-0.7,1.5-3.2,11.2-3.9,15.4c-0.7,4.1-2.9,21.2-3.4,23.9
		c-0.5,2.7-1.2,17.8-2,20.7c-0.7,2.9-7.1,21.2-7.3,23.4c-0.2,2.2-5.4,19-5.9,20.5c-0.5,1.5-10.7,32.9-12.9,37.8
		c-2.2,4.9-8.1,27.1-8.5,28.5c-0.5,1.5-4.1,33.2-6.8,49c-2.7,15.9-9.3,46.1-11.5,56.6c-2.2,10.5-4.9,43.9-5.1,59.3
		c-0.2,15.4,3.4,66.8,3.4,69.3c0,2.4,3.4,32.7,3.7,34.4c0.2,1.7,1.2,9,1.2,9.8c0,0.7,2.4,20.2,2.7,22.7c0.2,2.4,3.9,24.9,3.9,24.9
		s0,3.4,0.7,5.1c0.7,1.7,2.2,2.9,4.4,3.7c2.2,0.7,11.7,3.2,37.1,6.1c25.4,2.9,70,0.2,92-2.9c22-3.2,43.4-10.2,43.4-10.2
		s0.7,0,1.7,0.1c2.3-15.4,7.8-51.5,8.9-57.3c1.5-7.3,17.2-86,20.9-100.6c3.7-14.6,5.9-35.1,21.2-39.9c15.4-4.8,48.1-1,61.8,12.4
		c21.6,21.2,25.2,58.2,30.4,78.7c5.1,20.5,13.2,55.3,13.5,60.4c0.4,5.1,5.1,21.2,5.1,21.2l-1.5,2.6c0,0-0.4,3.3,1.1,5.1
		c1.5,1.8,2.2,4,1.1,5.5c-1.1,1.5-1.8,3.7-1.1,5.1c0.7,1.5,3.7,6.2,3.7,7.3c0,0.6,0.1,4.9,0.2,8.6c1.4,0.2,2.7,0.3,2.7,0.3
		s27.8,8.5,64.2,12.7c36.3,4.1,77.3-0.7,87.8-1.5c10.5-0.7,23.9-2.9,27.1-3.7c3.2-0.7,3.9-2.7,4.9-4.1c1-1.5,1.7-14.9,1.7-15.9
		c0-1,0-4.1,0-4.1s-0.7-2-0.7-2.9c0-1,1.7-2,2.4-3.2c0.7-1.2-0.5-3.9-0.5-3.9s-0.5-3.4-0.5-4.4c0-1,0.7-8.1,0.7-10
		c0-2,2-14.1,2.4-16.8c0.5-2.7,3.9-28.1,5.4-36.6c1.5-8.5,2.9-35.4,3.7-53.9C668.1,610.7,667.8,584.1,667.1,578.7z"/>
</g>
</g>

<g id="LEG_STRIPE1">
	<g>
		<path d="M620.7,788.8c10.5-0.7,23.9-2.9,27.1-3.7c3.2-0.7,3.9-2.7,4.9-4.1c1-1.5,1.7-14.9,1.7-15.9c0-1,0-4.1,0-4.1
			s-0.7-2-0.7-2.9c0-1,1.7-2,2.4-3.2c0.7-1.2-0.5-3.9-0.5-3.9s-0.5-3.4-0.5-4.4c0-1,0.7-8.1,0.7-10c0-2,2-14.1,2.4-16.8
			c0.5-2.7,3.9-28.1,5.4-36.6c1.5-8.5,2.9-35.4,3.7-53.9c0.7-18.5,0.5-45.1-0.2-50.5c-0.7-5.4-9-60.3-9.8-66.1
			c-0.7-5.9-7.8-47.3-8.3-50.7c-0.5-3.4-7.8-24.9-11.7-38.1c-3.9-13.2-15.4-50.8-16.7-56.5c-1.4-5.6-3.7-17.7-4-19.7
			c-0.3-2.1-0.8-9.7-0.9-11.1c-0.1-1.4-2.2-8.4-2.2-8.4s-0.4-2.5-0.9-5.7l-67.9,468.9C577.7,793.4,611.4,789.4,620.7,788.8z"/>
		<g>
			<path d="M157.2,353.6c-0.2,2.2-5.4,19-5.9,20.5c-0.5,1.5-10.7,32.9-12.9,37.8c-2.2,4.9-8.1,27.1-8.5,28.5
				c-0.5,1.5-4.1,33.2-6.8,49c-2.7,15.9-9.3,46.1-11.5,56.6c-2.2,10.5-4.9,43.9-5.1,59.3c-0.2,15.4,3.4,66.8,3.4,69.3
				c0,2.4,3.4,32.7,3.7,34.4c0.2,1.7,1.2,9,1.2,9.8c0,0.7,2.4,20.2,2.7,22.7c0.2,2.4,3.9,24.9,3.9,24.9s0,3.4,0.7,5.1
				c0.7,1.7,2.2,2.9,4.4,3.7c2.2,0.7,11.7,3.2,37.1,6.1c16.6,1.9,41.5,1.4,62.9,0l-64.2-443.7C160.2,343.9,157.4,352.2,157.2,353.6z
				"/>
		</g>
	</g>
</g>
<g id="LEG_STRIPE2">
	<!--<path fill="none" d="M667.1,578.7c-0.7-5.4-9-60.3-9.8-66.1c-0.7-5.9-7.8-47.3-8.3-50.7c-0.5-3.4-7.8-24.9-11.7-38.1
		c-3.9-13.2-15.4-50.8-16.7-56.5c-1.4-5.6-3.7-17.7-4-19.7c-0.3-2.1-0.8-9.7-0.9-11.1c-0.1-1.4-2.2-8.4-2.2-8.4s-0.5-3.5-1.3-7.8
		c-0.8-4.3-1.2-9.5-1.2-9.5s0.1-2.4,0.1-4.6c0-2.2-1.2-5.2-1.2-5.2s0-2.9-0.4-6.8c-0.4-4-2.4-6.7-2.4-6.7l-4.3-16.7
		c0,0-0.2-0.4-1-2.5c-0.8-2.1-0.5-6.8-0.4-7.3c0.1-0.5,0.3-5,0.3-6.4c0-1.4,0.3-8.9-0.2-10.2c-0.5-1.3-1-4.5-1.4-6.7
		c-0.4-2.2-0.3-7.5-0.1-8.1c0.1-0.4-0.4-1.8-0.8-2.7c0-0.2,0.1-0.4,0.1-0.6c0.9-9.4-38.1-14.7-229.3-17.2
		c-178.9-2.3-191.9,14.9-192.9,17.1c-0.2-0.1-0.4-0.2-0.4-0.2s1,3.8,1,8.4c0,4.6-2,7.1-2.4,9.5c-0.5,2.4,1,7.3,1,8.8
		c0,1.5-1,3.7-1.2,4.9c-0.2,1.2,0.2,3.2,0.2,4.6c0,1.5-0.7,6.6-1.5,8.1c-0.7,1.5-3.2,11.2-3.9,15.4c-0.7,4.1-2.9,21.2-3.4,23.9
		c-0.5,2.7-1.2,17.8-2,20.7c-0.7,2.9-7.1,21.2-7.3,23.4c-0.2,2.2-5.4,19-5.9,20.5c-0.5,1.5-10.7,32.9-12.9,37.8
		c-2.2,4.9-8.1,27.1-8.5,28.5c-0.5,1.5-4.1,33.2-6.8,49c-2.7,15.9-9.3,46.1-11.5,56.6c-2.2,10.5-4.9,43.9-5.1,59.3
		c-0.2,15.4,3.4,66.8,3.4,69.3c0,2.4,3.4,32.7,3.7,34.4c0.2,1.7,1.2,9,1.2,9.8c0,0.7,2.4,20.2,2.7,22.7c0.2,2.4,3.9,24.9,3.9,24.9
		s0,3.4,0.7,5.1c0.7,1.7,2.2,2.9,4.4,3.7c2.2,0.7,11.7,3.2,37.1,6.1c25.4,2.9,70,0.2,92-2.9c22-3.2,43.4-10.2,43.4-10.2
		s0.7,0,1.7,0.1c2.3-15.4,7.8-51.5,8.9-57.3c1.5-7.3,17.2-86,20.9-100.6c3.7-14.6,5.9-35.1,21.2-39.9c15.4-4.8,48.1-1,61.8,12.4
		c21.6,21.2,25.2,58.2,30.4,78.7c5.1,20.5,13.2,55.3,13.5,60.4c0.4,5.1,5.1,21.2,5.1,21.2l-1.5,2.6c0,0-0.4,3.3,1.1,5.1
		c1.5,1.8,2.2,4,1.1,5.5c-1.1,1.5-1.8,3.7-1.1,5.1c0.7,1.5,3.7,6.2,3.7,7.3c0,0.6,0.1,4.9,0.2,8.6c1.4,0.2,2.7,0.3,2.7,0.3
		s27.8,8.5,64.2,12.7c36.3,4.1,77.3-0.7,87.8-1.5c10.5-0.7,23.9-2.9,27.1-3.7c3.2-0.7,3.9-2.7,4.9-4.1c1-1.5,1.7-14.9,1.7-15.9
		c0-1,0-4.1,0-4.1s-0.7-2-0.7-2.9c0-1,1.7-2,2.4-3.2c0.7-1.2-0.5-3.9-0.5-3.9s-0.5-3.4-0.5-4.4c0-1,0.7-8.1,0.7-10
		c0-2,2-14.1,2.4-16.8c0.5-2.7,3.9-28.1,5.4-36.6c1.5-8.5,2.9-35.4,3.7-53.9C668.1,610.7,667.8,584.1,667.1,578.7z"/>
	<path fill="none" d="M667.1,578.7c-0.7-5.4-9-60.3-9.8-66.1c-0.7-5.9-7.8-47.3-8.3-50.7c-0.5-3.4-7.8-24.9-11.7-38.1
		c-3.9-13.2-15.4-50.8-16.7-56.5c-1.4-5.6-3.7-17.7-4-19.7c-0.3-2.1-0.8-9.7-0.9-11.1c-0.1-1.4-2.2-8.4-2.2-8.4s-0.5-3.5-1.3-7.8
		c-0.8-4.3-1.2-9.5-1.2-9.5s0.1-2.4,0.1-4.6c0-2.2-1.2-5.2-1.2-5.2s0-2.9-0.4-6.8c-0.4-4-2.4-6.7-2.4-6.7l-4.3-16.7
		c0,0-0.2-0.4-1-2.5c-0.8-2.1-0.5-6.8-0.4-7.3c0.1-0.5,0.3-5,0.3-6.4c0-1.4,0.3-8.9-0.2-10.2c-0.5-1.3-1-4.5-1.4-6.7
		c-0.4-2.2-0.3-7.5-0.1-8.1c0.1-0.4-0.4-1.8-0.8-2.7c0-0.2,0.1-0.4,0.1-0.6c0.9-9.4-38.1-14.7-229.3-17.2
		c-178.9-2.3-191.9,14.9-192.9,17.1c-0.2-0.1-0.4-0.2-0.4-0.2s1,3.8,1,8.4c0,4.6-2,7.1-2.4,9.5c-0.5,2.4,1,7.3,1,8.8
		c0,1.5-1,3.7-1.2,4.9c-0.2,1.2,0.2,3.2,0.2,4.6c0,1.5-0.7,6.6-1.5,8.1c-0.7,1.5-3.2,11.2-3.9,15.4c-0.7,4.1-2.9,21.2-3.4,23.9
		c-0.5,2.7-1.2,17.8-2,20.7c-0.7,2.9-7.1,21.2-7.3,23.4c-0.2,2.2-5.4,19-5.9,20.5c-0.5,1.5-10.7,32.9-12.9,37.8
		c-2.2,4.9-8.1,27.1-8.5,28.5c-0.5,1.5-4.1,33.2-6.8,49c-2.7,15.9-9.3,46.1-11.5,56.6c-2.2,10.5-4.9,43.9-5.1,59.3
		c-0.2,15.4,3.4,66.8,3.4,69.3c0,2.4,3.4,32.7,3.7,34.4c0.2,1.7,1.2,9,1.2,9.8c0,0.7,2.4,20.2,2.7,22.7c0.2,2.4,3.9,24.9,3.9,24.9
		s0,3.4,0.7,5.1c0.7,1.7,2.2,2.9,4.4,3.7c2.2,0.7,11.7,3.2,37.1,6.1c25.4,2.9,70,0.2,92-2.9c22-3.2,43.4-10.2,43.4-10.2
		s0.7,0,1.7,0.1c2.3-15.4,7.8-51.5,8.9-57.3c1.5-7.3,17.2-86,20.9-100.6c3.7-14.6,5.9-35.1,21.2-39.9c15.4-4.8,48.1-1,61.8,12.4
		c21.6,21.2,25.2,58.2,30.4,78.7c5.1,20.5,13.2,55.3,13.5,60.4c0.4,5.1,5.1,21.2,5.1,21.2l-1.5,2.6c0,0-0.4,3.3,1.1,5.1
		c1.5,1.8,2.2,4,1.1,5.5c-1.1,1.5-1.8,3.7-1.1,5.1c0.7,1.5,3.7,6.2,3.7,7.3c0,0.6,0.1,4.9,0.2,8.6c1.4,0.2,2.7,0.3,2.7,0.3
		s27.8,8.5,64.2,12.7c36.3,4.1,77.3-0.7,87.8-1.5c10.5-0.7,23.9-2.9,27.1-3.7c3.2-0.7,3.9-2.7,4.9-4.1c1-1.5,1.7-14.9,1.7-15.9
		c0-1,0-4.1,0-4.1s-0.7-2-0.7-2.9c0-1,1.7-2,2.4-3.2c0.7-1.2-0.5-3.9-0.5-3.9s-0.5-3.4-0.5-4.4c0-1,0.7-8.1,0.7-10
		c0-2,2-14.1,2.4-16.8c0.5-2.7,3.9-28.1,5.4-36.6c1.5-8.5,2.9-35.4,3.7-53.9C668.1,610.7,667.8,584.1,667.1,578.7z"/>  -->
	<g>
		<path fill="#897F76" d="M129.9,440.4c-0.4,1.2-3,23.5-5.4,40.1l40,300.8c5.2,0.6,11.1,0.9,17.4,1.1l-47.5-357.7
			C132.2,432,130.2,439.6,129.9,440.4z"/>
		<path fill="#897F76" d="M649,461.9c-0.5-3.2-6.9-22.2-10.9-35.5l-48.5,364.7c6.5-0.4,12.4-0.8,17.4-1.2l42.9-322.6
			C649.5,464.5,649.1,462.5,649,461.9z"/>
	</g>
</g>

<g id="STITCHING">
	<g>
		
			<path opacity="0.5" fill="none" stroke="#897F76" stroke-width="1.1949" stroke-miterlimit="10" stroke-dasharray="2.8792,1.4396" d="
			M177.7,234.3c0,0,13,9.2,24.2,14c11.2,4.7,55.3,18.4,85,21.9c29.6,3.5,94.4,2.2,141,0.5c46.6-1.7,110.4-7,116.8-7.5
			c6.5-0.5,18.2-1.2,20.4-1.7c2.2-0.5,19.4-4.5,24.2-8.2c4.7-3.7,6.2-5.5,7.2-7c1-1.5,1.9-4.6,1.9-4.6l1.4-7.9"/>
		
			<path opacity="0.5" fill="none" stroke="#897F76" stroke-width="1.1949" stroke-miterlimit="10" stroke-dasharray="2.8792,1.4396" d="
			M176.3,252.6c0.3,1.1,1,4.7,2,5.9c1,1.2,14.2,9,38.1,16.7c23.9,7.7,69.3,18.4,99.2,20.2c29.9,1.7,90.4-3,134.3-2.5
			c43.8,0.5,107.1-8.5,124.8-12.5c17.7-4,25.4-15.4,25.4-15.4"/>
		
			<path opacity="0.5" fill="none" stroke="#897F76" stroke-width="1.1949" stroke-miterlimit="10" stroke-dasharray="2.8792,1.4396" d="
			M174.5,267.5c0,0,15.2,12.2,55.1,24.2c39.9,12,76,19.4,156.7,15.9c80.7-3.5,127.8-4,160.9-9.7c33.1-5.7,37.1-8.5,40.1-9.7
			c3-1.2,8-3.5,9.2-4.7c1.2-1.2,3.4-4.6,3.4-4.6"/>
		
			<path opacity="0.5" fill="none" stroke="#897F76" stroke-width="1.1949" stroke-miterlimit="10" stroke-dasharray="2.8792,1.4396" d="
			M117.5,741.5c0,0,28.3,5.6,57.9,6.7c29.6,1.1,41.1,3.9,80.6-2.6c39.6-6.6,55.3-9.6,61-12c5.6-2.4,11.6-4.5,14.4-6.4
			c2.8-1.9,6.2-4.1,6.4-4.9c0.2-0.7,2.1-4.7,2.1-4.7"/>
		
			<path opacity="0.5" fill="none" stroke="#897F76" stroke-width="1.1949" stroke-miterlimit="10" stroke-dasharray="2.8792,1.4396" d="
			M118.6,749c0,0,37.5,8.4,69.8,8.4c32.3,0,63.9-2.3,95.5-8.8c31.5-6.6,42.8-9.8,44.6-10.9c1.9-1.1,4.5-2.2,4.5-2.2"/>
		
			<path opacity="0.5" fill="none" stroke="#897F76" stroke-width="1.1949" stroke-miterlimit="10" stroke-dasharray="2.8792,1.4396" d="
			M450.4,752.2c0,0,2.8,2.8,8,3.8c2.8,0.5,4.8,0.3,4.8,0.3s42.5,6.1,54,7.7c11.5,1.6,36.9,6.6,73.6,3.5c36.7-3.1,63.5-6.5,63.5-6.5"
			/>
		
			<path opacity="0.5" fill="none" stroke="#897F76" stroke-width="1.1949" stroke-miterlimit="10" stroke-dasharray="2.8792,1.4396" d="
			M447.6,742.3c0,0-1.4,4.9,24.5,8.5c25.9,3.5,59.5,11.5,109.6,8.2c50.1-3.3,72.5-6.2,73.9-8"/>
	</g>
	
		<path opacity="0.5" fill="none" stroke="#897F76" stroke-width="0.7966" stroke-miterlimit="10" stroke-dasharray="2.8792,1.4396" d="
		M600,232.9c0,0-0.5,4-1,6c-0.5,2-1,4.5-1,6.2c0,1.7,0.3,4.2,0.7,5.7c0.5,1.5,3.2,8.6,2.7,10.2c-0.5,1.5-2.2,5-2.2,7
		c0,2,0.7,13.5,1.5,16.4c0.7,3,4.2,16.2,5.7,18.7c1.5,2.5,2.2,5.7,2.5,7.2c0.2,1.5,2.5,7.5,2.5,7.5"/>
	
		<path opacity="0.5" fill="none" stroke="#897F76" stroke-width="0.7966" stroke-miterlimit="10" stroke-dasharray="2.8792,1.4396" d="
		M465.8,777.8c0,0,0-8,0-9.1c0-1.1-2.9-5.9-3.7-7.3c-0.7-1.5,0-3.7,1.1-5.1c1.1-1.5,0.4-3.7-1.1-5.5c-1.5-1.8-1.1-5.1-1.1-5.1
		l1.5-2.6c0,0-4.8-16.1-5.1-21.2c-0.4-5.1-8.4-39.9-13.5-60.4c-5.1-20.5-8.8-57.4-30.4-78.7c-13.7-13.5-46.5-17.2-61.8-12.4
		c-15.4,4.8-17.6,25.2-21.2,39.9c-3.7,14.6-19.4,93.3-20.9,100.6c-1.5,7.3-8.4,56.7-8.4,56.7"/>
	<path fill="none" stroke="#897F76" stroke-width="1.1949" stroke-miterlimit="10" stroke-dasharray="2.8792,1.4396" d="
		M193.7,234.3c0,0,2.9-18.9,197-16.9c205.2,2.1,203.2,16.9,203.2,16.9"/>
	<path fill="none" stroke="#897F76" stroke-width="1.1949" stroke-miterlimit="10" stroke-dasharray="2.8792,1.4396" d="M202.8,238
		c0,0-6.2-16.5,187.9-14.5c205.2,2.1,198.6,16.2,198.6,16.2"/>
</g>
<g id="CUSTOM"></g>	
	
<g id="CROTCH">
	<path fill="#FFFFFF" stroke="#A39E9B" stroke-width="0.75" d="M462.2,761.3c-0.7-1.5,0-3.7,1.1-5.1c1.1-1.5,0.4-3.7-1.1-5.5
		c-1.5-1.8-1.1-5.1-1.1-5.1l1.5-2.6c0,0-4.8-16.1-5.1-21.2c-0.4-5.1-8.4-39.9-13.5-60.4c-5.1-20.5-8.8-57.4-30.4-78.7
		c-13.7-13.5-46.5-17.2-61.8-12.4c-15.4,4.8-17.6,25.2-21.2,39.9c-3.7,14.6-19.4,93.3-20.9,100.6c-1.1,5.7-6.6,41.9-8.9,57.3
		c1.3,0,3.1,0.1,4.2-0.1c2-0.2,3.7-2.7,3.7-2.7s4.1-1,8.1-2c3.9-1,7.8-3.2,11.2-6.6c3.4-3.4,2.2-10,2.2-10s2.4-9.3,3.2-12
		c0.7-2.7,5.1-11.7,6.1-13.9c1-2.2,0.7-4.9,0.7-4.9s11.7-28.1,18.8-50c7.1-22,22.7-95.6,22.7-95.6l14.4,4.4c0,0,3.2,11,3.4,14.4
		c0.2,3.4,6.3,26.6,7.6,31.5c1.2,4.9,9.8,34.6,12.7,43.2c2.9,8.5,16.6,45.1,19,51c2.4,5.9,8.3,17.8,8.5,19c0.2,1.2,0.2,3.4,0.2,4.6
		c0,1.2,0.7,4.9,0.7,4.9l1.5,2c0,0,0,2.4,0.2,3.7c0.2,1.2,1.2,3.7,1.5,4.4c0.2,0.7,2.2,9.5,2.2,9.5v2.7l0.5,2.4c0,0,2.2,3.4,2.9,4.6
		c0.7,1.2,5.9,4.1,7.6,4.4c0.5,0.1,1.1,0.1,1.6,0.2c-0.1-3.7-0.2-8-0.2-8.6C465.8,767.6,462.9,762.8,462.2,761.3z"/>
</g>
<g id="SHADING">
	<g opacity="5.000000e-02">
		<g>
			
				<image overflow="visible" opacity="0.6" width="441" height="70" xlink:href="AAE9727.png"  transform="matrix(1 0 0 1 168.1937 199.4182)">
			</image>
			<g>
				<g>
					<path d="M177.1,226.3c0,0,1.7-19.8,192.9-17.4c191.2,2.5,230.3,7.8,229.3,17.2c-1.2,12.3-25,22.1-61.4,24.6
						c-51.6,3.5-175.8,16.2-272.9,2.7c-39.5-5.5-69.3-18.2-73.9-20.2C188.7,232.1,177.1,226.3,177.1,226.3z"/>
				</g>
			</g>
		</g>
	</g>
	<g>
		<g>
			<polygon fill-rule="evenodd" clip-rule="evenodd" points="247.9,362.2 255,355.2 247.9,355.2 			"/>
			<polygon fill-rule="evenodd" clip-rule="evenodd" points="247.9,364.3 255,371.4 247.9,371.4 			"/>
			<rect x="240.6" y="355.2" width="5.9" height="16.2"/>
			<path fill-rule="evenodd" clip-rule="evenodd" d="M230.8,351.5c-6.5,0-11.8,5.3-11.8,11.8c0,6.5,5.3,11.8,11.8,11.8h21.6
				c6.5,0,11.8-5.3,11.8-11.8c0-6.5-5.3-11.8-11.8-11.8H230.8z M220.3,363.3c0-5.8,4.7-10.5,10.5-10.5h21.6
				c5.8,0,10.5,4.7,10.5,10.5c0,5.8-4.7,10.5-10.5,10.5h-21.6C225,373.8,220.3,369.1,220.3,363.3z"/>
			<path d="M223.1,363.3c0-4.3,3.3-7.8,7.6-8.1v16.2C226.5,371.1,223.1,367.6,223.1,363.3z"/>
			<polygon fill-rule="evenodd" clip-rule="evenodd" points="239.1,362.2 232,355.2 239.1,355.2 			"/>
			<polygon fill-rule="evenodd" clip-rule="evenodd" points="239.1,364.3 232,371.4 239.1,371.4 			"/>
		</g>
	</g>
	<g opacity="2.000000e-02">
		<path d="M599.4,226.8L599.4,226.8c0,0-2.5,5.5-4.5,7.6c-4.6,5-15.6,8.8-15.6,8.8s2.4,7.4,2.9,8.9c0.5,1.5,3.4,3.4,3.4,3.4
			s1.3,10.9,1.6,14.5c0,0.2,0.1,0.4,0.1,0.7c0.2,2.4-3.7,7.3-3.7,7.3v9.8l3.7,0.4c0,0,14.9,42,16.8,49.3c2,7.3,11.7,39,11.7,44.4
			c0,5.4,7.8,25.9,8.3,28.3c0.5,2.4,13.7,54.6,15.6,58.5c2,3.9,6.3,41.5,8.8,48.8c2.4,7.3,3.4,13.7,5.4,23.9
			c2,10.2,0.5,23.9,3.4,30.2c2.9,6.3,9.8,43.9,9.8,43.9s1.5-28.3-0.5-40.5c-2-12.2-8.3-48.3-8.3-53.2c0-4.9-5.9-45.9-8.3-54.6
			c-2.4-8.8-22-71.7-23.4-76.1c-1.5-4.4-9.7-39.7-10-43.5c-0.3-3.8-2.7-18.9-3.7-21.9c-1-2.9-2-10.4-1.8-15c0.1-4.6-1-9.8-1-9.8
			l-0.4-6.8l-2.4-6.7c0,0-3.1-8.5-3.1-10.5c0-2-2-6.3-2.2-8.8c-0.2-2.5-0.2-5.4-0.2-5.4s-0.1-6.3,0-8.8c0,0,0.2-6.8-0.2-9.8
			c-0.3-2.9-1.7-8-1.7-10.5C599.9,232.4,600.3,226.8,599.4,226.8"/>
		<path d="M168.1,779.6L168,781l47.8,1c0,0,0.1-0.2,0.3-0.7C206,781.2,186.4,780.6,168.1,779.6 M206.2,476.9c-1.9,0-3.4,0.8-4,2.6
			c-2.9,7.8-3.9,29.3-2.9,63.4c1,34.2-4.9,31.2-6.8,58.5c-2,27.3,2.9,32.2,7.8,46.8c4.9,14.6,19.5,49.8,26.3,72.2
			c6.3,20.7-8.2,55.6-10.4,60.8c1.1,0,2,0,2.9,0c17.6,0,82.9-12.9,82.9-12.9s2.9-23.3,7-51.6c4.6-31.2,12.4-73.2,20.3-103.3
			c1.8-7.9,3.7-15.5,5.8-21.9c2-6.3,4.9-10.8,7.2-13.8c0.2-0.3,0.4-0.5,0.6-0.7c2.2-2.6,3.9-3.9,3.9-3.9s-17.6-9.8-20.5-9.8
			c-2.9,0-21.5-9.8-36.1-24.4c-14.6-14.6-56.6-43.9-62.4-49.8C223,484.7,212.3,476.9,206.2,476.9 M176.8,225.9l-1.5,36.2
			c0,0-2.4,10.5-4.4,15.4c-2,4.9-2.9,27.3-4.4,32c-1.5,4.6-0.5,15.9-2.4,24.6c-2,8.8-25.6,77.8-30.2,88.8c-4.6,11-5.9,35.1-7.8,47.8
			c-2,12.7-16.6,97.6-20.5,129.8c-3.9,32.2,14.6,153.2,14.6,153.2l1.2,12.7c0,0,0.7,5.1,5.1,8.8c2.2,1.8,21.1,3.4,41.6,4.5l2.8-30.8
			c0,0,0-8.8,0-13.7c0-4.9-6.8-8.8-8.8-29.3c-2-20.5-7.8-41-7.8-53.7c0-12.7-2-63.4,7.8-104.4c9.8-41,9.8-123.9,20.5-138.6
			c10.7-14.6,29.3-8.8,38.1-24.4c8.8-15.6-5.9-31.2-5.9-38.1c0-6.8,6.8-14.6,12.7-17.6c5.9-2.9,20.5-10.7,32.2-20.5
			c11.7-9.8,11.7-16.6,11.7-16.6s0,0-13.7-6.8c-13.7-6.8-10.9-35.2-10.9-35.2s-18.4-4.8-31.1-8.7
			C203.1,237.5,176.8,225.9,176.8,225.9"/>
		<path d="M368.4,567.5c-9.4,0-18.8,2.3-25.4,9.2c-0.1,0.1-0.2,0.2-0.3,0.3c-0.2,0.2-0.4,0.5-0.6,0.7c-4,5.2-8.5,18.5-13,35.7
			c-4.3,19.1-7.7,39.9-9.9,49.5c-4.9,21.5-12.7,66.4-12.7,73.2c0,6.8-4.7,32.3-4.7,32.3s9.6-3.4,14.7-4.9c4.9-1.5,11.2-6.6,11.2-6.6
			s1.3-1.8,1.9-3.9c0.6-2.1,0.3-3.8,0.3-6.1c0-2.3,1.4-5.6,2.3-9.2c0.9-3.5,4.4-12.1,5.5-15.3c1.1-3.3,2.1-4.7,2.1-4.7
			s1.8-7.6,4.7-11.7c2.9-4.1,14.1-39.8,19.1-56.1c5-16.3,16.2-78.5,17.7-79.3c0.1-0.1,0.3-0.1,0.5-0.1c2.9,0,13.9,4.5,13.9,4.5
			s2.6,10,3.2,12.3c0.6,2.4,10,43.2,19.4,73.2c12,38.5,27,69.1,27.6,70.5c0.6,1.5,1.3,7.6,0.9,8.8c-0.4,1.2,2.6,4.4,2.6,4.4
			s0,2.9,1.2,7.1c1.2,4.1,2.9,10.3,2.7,11.7c-0.3,1.5,0.5,5.1,0.5,5.1s3.6,5.2,4.5,6.1c0.9,0.9,4.7,2.1,6,3c0.7,0.5,1.8,0.6,2.8,0.6
			c0.9,0,1.6-0.1,1.6-0.1l-2.9-8.9c0,0-1.3-9.2-1.3-17.2c0-7.9-2.6-13.8-2.9-18.5c-0.3-4.7-7.6-36.4-9.4-50
			c-1.8-13.5-13.9-53.3-13.9-53.3c-10.7-42-27.3-49.2-36.1-54.1C396.9,572.7,382.6,567.5,368.4,567.5"/>
		<path d="M329.1,613.4c-7.9,30.1-15.7,72.1-20.3,103.3c-4.2,28.4-7,51.6-7,51.6s4.7-25.4,4.7-32.3c0-6.8,7.8-51.7,12.7-73.2
			C321.4,653.3,324.8,632.5,329.1,613.4 M342.7,577c-0.2,0.2-0.4,0.4-0.6,0.7C342.3,577.5,342.5,577.2,342.7,577"/>
		<path d="M585,268.6c-1.8,0-4.4,0.9-6.5,1.3c-3.7,0.7-23.4,8.1-33.7,9.5c-10.2,1.5-60.7,5.9-60.7,5.9l5.9,0.7
			c0,0,16.1,42.4,12.4,62.9c-3.7,20.5-8.8,35.9-24.2,75.4c-15.4,39.5,35.9,45.4,40.3,49c4.4,3.7,40.3,16.8,43.2,18.3
			c2.9,1.5-3.7,24.9-8.8,52c-5.1,27.1,23.4,52.7,32.2,75.4c8.8,22.7-10.2,27.1-19,41c-8.8,13.9-6.6,62.2-12.4,78.3
			c-5.9,16.1,0.7,52,0.7,52s15.4,0.7,24.9,0.7c9.5,0,21.2-1.5,21.2-1.5s0.7-15.4,2.2-22c1.5-6.6,4.4-11,8.1-17.6
			c3.7-6.6,16.8-30,16.8-35.1c0-5.1,2.9-61.5,3.7-71.7c0.7-10.2,2.9-43.9,4.4-57.1c1.5-13.2-12.4-69.5-19.8-87.8
			c-7.3-18.3-21.2-61.5-24.1-81.2c-2.9-19.8-7.3-41-15.4-68.1c-8.1-27.1-21.2-20.5-27.1-30c-5.9-9.5-9.5-17.6-9.5-24.1
			c0-6.6,4.4-8.8,4.4-8.8s28.5-6.6,31.5-8.1c2.9-1.5,11.7-3.7,11.7-7.3c0-0.2,0-0.4-0.1-0.7C587,268.9,586.2,268.6,585,268.6"/>
		<path d="M587.3,270c0,0.3,0.1,0.5,0.1,0.7C587.3,270.4,587.3,270.2,587.3,270"/>
	</g>
</g>
</svg>
