<?xml version="1.0" encoding="utf-8"?>
<!-- Generator: Adobe Illustrator 25.3.1, SVG Export Plug-In . SVG Version: 6.00 Build 0)  -->
<svg version="1.1" xmlns="http://www.w3.org/2000/svg" xmlns:xlink="http://www.w3.org/1999/xlink" x="0px" y="0px"
	 viewBox="0 0 610.3 996.2" enable-background="new 0 0 752.3 996.2" xml:space="preserve">
<g id="MASKL">
<g id="BODY">
	<path fill="#FFFFFF" stroke="#897F76" stroke-width="0.5" stroke-miterlimit="10" d="M536.7,152.7c0,0-57.7-3.1-232.3,13.6
		C135.1,182.5,116.3,202,116.3,202s-1.4,19,0.9,29.9c2.3,10.9,8.3,24.6,8.3,24.6s11.5,78.6,20.7,104.7c9.2,26.2,25.4,89.5,23,126.6
		c-2.3,37.1-43.8,189.9-50.7,224.8c-6.9,34.9-6.9,78.6-6.9,78.6V837c0,0,13.9,17.4,139,30.3c25.6,2.6,52.5,1,81.6,3.4
		C452.8,881,492,867.6,492,867.6l2.3-30.6c0,0,30,2.2,53,0s53-8.7,53-8.7s-30-133.1-30-150.6c0-17.5,16.1-41.5,25.4-56.7
		c9.2-15.3,53-124.4,34.6-194.2c-18.4-69.8-62.2-144-66.8-161.5c-4.6-17.5-16.1-58.9-16.1-58.9s0.3-11-1.8-25.9
		C544.2,171.9,536.7,152.7,536.7,152.7z"/>
</g>
	</g>
	
<g id="LEG_STRIPE2">
	<g>
		<path fill="#897F76" d="M328.1,575.2l-216.3,262c0.6,0.6,3.5,3.2,12.6,6.7l203.6-242.5V575.2z"/>
	</g>
</g>
<g id="LEG_STRIPE1">
	<g>
		<g>
			<path d="M328.1,488.5L112.8,760.4c-1.1,17.6-1.1,30.8-1.1,30.8v45.6l216.4-262.3V488.5z"/>
			<path d="M328.1,602.1l-203.3,242c9,3.5,23.8,7.9,48.1,12.5l155.2-171.7V602.1z"/>
		</g>
	</g>
</g>
<g id="STITCHING">
	<g>
		<g opacity="0.5">
			<g>
				<path opacity="0.5" fill="none" stroke="#7A726F" stroke-width="0.5324" d="M333.1,870.5c-1.8-14.8-2.5-32.9-3.3-49.2"/>
				<path opacity="0.5" fill="none" stroke="#7A726F" stroke-width="0.5324" d="M348.9,870.7c-1.6-18.3-2.4-33.3-3.2-50.3"/>
				<path opacity="0.5" fill="none" stroke="#7A726F" stroke-width="0.5324" d="M338.3,870.6c-1.7-16-2.5-33.1-3.3-49.5"/>
				<path opacity="0.5" fill="none" stroke="#7A726F" stroke-width="0.5324" d="M343.6,870.6c-1.6-17.1-2.5-33.2-3.2-49.9"/>
				<path opacity="0.5" fill="none" stroke="#7A726F" stroke-width="0.5324" d="M328.3,821.2c0.1,1.6,1.6,1.6,1.6,1.6l15.9-1
					c0,0,1-0.8,1.1,1.1c0.1,1.9-1,2.3-1,2.3l-16,1c0,0-1.2-0.1-1.1,1.7c0.1,1.7,1.5,1.8,1.5,1.8l15.7-1c0,0,1.2,0,1.2,1.7
					c0.1,1.7-1.3,1.9-1.3,1.9l-15.9,1.1c0,0-1,0.3-0.9,1.8c0.1,1.5,1.3,1.9,1.3,1.9l16.2-1.1c0,0,1-0.1,1.1,1.6
					c0.1,1.8-0.9,2.1-0.9,2.1l-16.2,1.2c0,0-1.3,0-1.2,1.9c0.1,1.9,1.6,1.8,1.6,1.8l15.8-1.2c0,0,1-0.1,1.1,1.6c0.1,1.7-1,2.2-1,2.2
					l-15.8,1.3c0,0-1.2,0.4-1.1,2.1c0.1,1.7,1.4,1.7,1.4,1.7l15.6-1.3c0,0,1.5-0.4,1.6,1.3c0.1,1.7-1.5,2-1.5,2l-15.5,1.4
					c0,0-1.2-0.4-1,1.6c0.1,1.9,1.4,2.1,1.4,2.1l15.2-1.4c0,0,1.7-0.2,1.9,1.6c0.1,1.8-1.6,2.1-1.6,2.1l-15.3,1.6
					c0,0-1.3-0.2-1.2,1.5c0.2,1.7,1.4,1.8,1.4,1.8l15.3-1.7c0,0,1.6-0.2,1.7,1.5c0.2,1.6-1.4,1.9-1.4,1.9l-15.5,1.9l-1.1,0.5"/>
				<path opacity="0.5" fill="none" stroke="#7A726F" stroke-width="0.5324" d="M350.1,870.2c-0.3-3.5-1.7-2-1.7-2.4l-15.8,2
					c0,0-0.9,0.9-1.2-1.1c-0.2-2,0.9-2.5,0.9-2.5l15.9-1.8c0,0,1.2,0,1-1.6c-0.1-1.6-1.5-1.8-1.5-1.8l-15.7,1.6c0,0-1.2,0-1.3-1.7
					c-0.1-1.7,1.2-2,1.2-2l15.8-1.5c0,0,1-0.3,0.9-1.8c-0.1-1.4-1.3-1.8-1.3-1.8l-16.2,1.4c0,0-1,0.1-1.2-1.6
					c-0.1-1.8,0.9-2.2,0.9-2.2l16.2-1.4c0,0,1.3,0,1.2-1.9c-0.1-1.9-1.6-1.8-1.6-1.8l-15.8,1.3c0,0-1,0.1-1.1-1.6
					c-0.1-1.7,1-2.3,1-2.3l15.8-1.2c0,0,1.2-0.3,1.2-2c-0.1-1.7-1.4-1.7-1.4-1.7l-15.6,1.1c0,0-1.5,0.4-1.6-1.3
					c-0.1-1.7,1.5-2.1,1.5-2.1l15.5-1.1c0,0,1.2,0.4,1.1-1.5c-0.1-1.9-1.4-2.1-1.4-2.1l-15.3,1c0,0-1.7,0.1-1.8-1.7
					c-0.1-1.8,1.6-2.1,1.6-2.1l15.3-1c0,0,1.3,0.2,1.3-1.5c-0.1-1.7-1.4-1.8-1.4-1.8l-15.4,1c0,0-1.6,0.1-1.7-1.6
					c-0.1-1.7,1.5-1.9,1.5-1.9l15.6-0.9l1.1-0.4"/>
				<line opacity="0.5" fill="none" stroke="#7A726F" stroke-width="0.5324" x1="331.4" y1="869.9" x2="348.8" y2="864.6"/>
				<line opacity="0.5" fill="none" stroke="#7A726F" stroke-width="0.5324" x1="331.1" y1="866.6" x2="348.5" y2="861.5"/>
				<line opacity="0.5" fill="none" stroke="#7A726F" stroke-width="0.5324" x1="330.8" y1="862.4" x2="348.2" y2="857.5"/>
				<line opacity="0.5" fill="none" stroke="#7A726F" stroke-width="0.5324" x1="330.5" y1="858.9" x2="348" y2="854"/>
				<line opacity="0.5" fill="none" stroke="#7A726F" stroke-width="0.5324" x1="330.2" y1="855.8" x2="347.8" y2="851"/>
				<line opacity="0.5" fill="none" stroke="#7A726F" stroke-width="0.5324" x1="330" y1="852.3" x2="347.5" y2="847.6"/>
				<line opacity="0.5" fill="none" stroke="#7A726F" stroke-width="0.5324" x1="329.8" y1="848.7" x2="347.3" y2="844"/>
				<line opacity="0.5" fill="none" stroke="#7A726F" stroke-width="0.5324" x1="329.5" y1="844.7" x2="347.1" y2="840.1"/>
				<line opacity="0.5" fill="none" stroke="#7A726F" stroke-width="0.5324" x1="329.3" y1="841" x2="346.9" y2="836.5"/>
				<line opacity="0.5" fill="none" stroke="#7A726F" stroke-width="0.5324" x1="329.1" y1="837.5" x2="346.7" y2="833"/>
				<line opacity="0.5" fill="none" stroke="#7A726F" stroke-width="0.5324" x1="328.9" y1="834" x2="346.5" y2="829.6"/>
				<line opacity="0.5" fill="none" stroke="#7A726F" stroke-width="0.5324" x1="328.7" y1="830" x2="346.3" y2="825.6"/>
				<line opacity="0.5" fill="none" stroke="#7A726F" stroke-width="0.5324" x1="328.5" y1="826.3" x2="346.2" y2="821.9"/>
			</g>
			<g>
				<line opacity="0.5" fill="none" stroke="#7A726F" stroke-width="0.5324" x1="329.7" y1="821.1" x2="328.1" y2="771.1"/>
				<line opacity="0.5" fill="none" stroke="#7A726F" stroke-width="0.5324" x1="345.7" y1="820.1" x2="344.1" y2="770.5"/>
				<line opacity="0.5" fill="none" stroke="#7A726F" stroke-width="0.5324" x1="335.1" y1="820.8" x2="333.4" y2="770.9"/>
				<line opacity="0.5" fill="none" stroke="#7A726F" stroke-width="0.5324" x1="340.4" y1="820.5" x2="338.8" y2="770.7"/>
				<path opacity="0.5" fill="none" stroke="#7A726F" stroke-width="0.5324" d="M326.6,770.9c0,1.6,1.5,1.6,1.5,1.6l15.9-0.6
					c0,0,1-0.8,1.1,1.2c0,1.9-1.1,2.3-1.1,2.3l-16,0.6c0,0-1.1-0.1-1.1,1.6c0,1.7,1.4,1.9,1.4,1.9l15.8-0.6c0,0,1.2,0.1,1.2,1.8
					c0,1.7-1.3,1.9-1.3,1.9l-15.9,0.7c0,0-1,0.3-1,1.7c0,1.4,1.2,1.9,1.2,1.9l16.2-0.7c0,0,1,0,1.1,1.6c0.1,1.8-1,2.1-1,2.1
					l-16.2,0.7c0,0-1.3-0.1-1.2,1.9c0.1,1.9,1.6,1.9,1.6,1.9l15.9-0.7c0,0,1,0,1.1,1.6c0,1.7-1.1,2.2-1.1,2.2l-15.9,0.8
					c0,0-1.3,0.3-1.2,2c0.1,1.7,1.3,1.7,1.3,1.7l15.6-0.8c0,0,1.5-0.3,1.5,1.4c0.1,1.7-1.5,2-1.5,2l-15.5,0.8c0,0-1.2-0.4-1.1,1.5
					c0.1,1.9,1.3,2.1,1.3,2.1l15.3-0.8c0,0,1.7-0.1,1.8,1.7c0.1,1.8-1.7,2.1-1.7,2.1l-15.3,0.8c0,0-1.3-0.2-1.3,1.5
					c0.1,1.7,1.4,1.9,1.4,1.9l15.4-0.9c0,0,1.6-0.1,1.7,1.6c0.1,1.7-1.5,1.9-1.5,1.9l-15.6,0.9l-1.1,0.4"/>
				<path opacity="0.5" fill="none" stroke="#7A726F" stroke-width="0.5324" d="M346.8,819.9c-0.1-1.6-1.6-1.6-1.6-1.6l-15.9,0.9
					c0,0-1,0.8-1.1-1.2c-0.1-1.9,1.1-2.4,1.1-2.4l16-0.9c0,0,1.1,0.1,1.1-1.6c-0.1-1.7-1.5-1.8-1.5-1.8l-15.7,0.9
					c0,0-1.2-0.1-1.2-1.7c-0.1-1.7,1.3-1.9,1.3-1.9l15.9-0.8c0,0,1-0.3,1-1.7c-0.1-1.4-1.2-1.9-1.2-1.9l-16.2,0.8c0,0-1,0.1-1.1-1.6
					c-0.1-1.8,1-2.1,1-2.1l16.2-0.8c0,0,1.3,0.1,1.2-1.9c-0.1-1.9-1.6-1.8-1.6-1.8l-15.9,0.8c0,0-1,0.1-1.1-1.6
					c-0.1-1.7,1.1-2.2,1.1-2.2l15.9-0.7c0,0,1.3-0.3,1.2-2c-0.1-1.7-1.3-1.7-1.3-1.7l-15.6,0.7c0,0-1.5,0.3-1.5-1.4
					c-0.1-1.7,1.6-2,1.6-2l15.5-0.7c0,0,1.2,0.4,1.1-1.5c0-1.9-1.3-2.1-1.3-2.1l-15.3,0.6c0,0-1.7,0.1-1.8-1.7
					c-0.1-1.8,1.7-2.1,1.7-2.1l15.3-0.6c0,0,1.3,0.2,1.3-1.4c0-1.7-1.3-1.9-1.3-1.9l-15.4,0.6c0,0-1.6,0.1-1.7-1.6
					c0-1.7,1.6-1.9,1.6-1.9l15.6-0.6l1.1-0.4"/>
				<line opacity="0.5" fill="none" stroke="#7A726F" stroke-width="0.5324" x1="328.2" y1="819.3" x2="345.9" y2="815"/>
				<line opacity="0.5" fill="none" stroke="#7A726F" stroke-width="0.5324" x1="328.1" y1="816.1" x2="345.7" y2="811.8"/>
				<line opacity="0.5" fill="none" stroke="#7A726F" stroke-width="0.5324" x1="327.9" y1="812" x2="345.6" y2="807.8"/>
				<line opacity="0.5" fill="none" stroke="#7A726F" stroke-width="0.5324" x1="327.8" y1="808.5" x2="345.4" y2="804.3"/>
				<line opacity="0.5" fill="none" stroke="#7A726F" stroke-width="0.5324" x1="327.7" y1="805.4" x2="345.3" y2="801.3"/>
				<line opacity="0.5" fill="none" stroke="#7A726F" stroke-width="0.5324" x1="327.5" y1="801.9" x2="345.2" y2="797.8"/>
				<line opacity="0.5" fill="none" stroke="#7A726F" stroke-width="0.5324" x1="327.4" y1="798.3" x2="345.1" y2="794.2"/>
				<line opacity="0.5" fill="none" stroke="#7A726F" stroke-width="0.5324" x1="327.3" y1="794.3" x2="345" y2="790.3"/>
				<line opacity="0.5" fill="none" stroke="#7A726F" stroke-width="0.5324" x1="327.2" y1="790.7" x2="344.9" y2="786.7"/>
				<line opacity="0.5" fill="none" stroke="#7A726F" stroke-width="0.5324" x1="327.1" y1="787.2" x2="344.8" y2="783.2"/>
				<line opacity="0.5" fill="none" stroke="#7A726F" stroke-width="0.5324" x1="327" y1="783.7" x2="344.7" y2="779.7"/>
				<line opacity="0.5" fill="none" stroke="#7A726F" stroke-width="0.5324" x1="326.9" y1="779.7" x2="344.6" y2="775.7"/>
				<line opacity="0.5" fill="none" stroke="#7A726F" stroke-width="0.5324" x1="326.8" y1="776" x2="344.5" y2="772"/>
			</g>
			<g>
				<line opacity="0.5" fill="none" stroke="#7A726F" stroke-width="0.5324" x1="328.1" y1="770.8" x2="327.2" y2="720.9"/>
				<line opacity="0.5" fill="none" stroke="#7A726F" stroke-width="0.5324" x1="344.1" y1="770.2" x2="343.3" y2="720.5"/>
				<line opacity="0.5" fill="none" stroke="#7A726F" stroke-width="0.5324" x1="333.4" y1="770.6" x2="332.6" y2="720.7"/>
				<line opacity="0.5" fill="none" stroke="#7A726F" stroke-width="0.5324" x1="338.8" y1="770.4" x2="337.9" y2="720.6"/>
				<path opacity="0.5" fill="none" stroke="#7A726F" stroke-width="0.5324" d="M325.8,720.6c0,1.6,1.5,1.7,1.5,1.7l15.9-0.4
					c0,0,1-0.7,1,1.2c0,1.9-1.1,2.3-1.1,2.3l-16,0.4c0,0-1.2-0.1-1.1,1.6c0,1.7,1.4,1.9,1.4,1.9l15.7-0.4c0,0,1.2,0.1,1.2,1.8
					c0,1.7-1.4,1.8-1.4,1.8l-15.9,0.4c0,0-1,0.3-1,1.7c0,1.4,1.2,1.9,1.2,1.9l16.2-0.4c0,0,1,0,1.1,1.7c0,1.8-1,2.1-1,2.1l-16.2,0.5
					c0,0-1.3-0.1-1.3,1.8c0,1.9,1.5,1.9,1.5,1.9l15.9-0.5c0,0,1,0,1.1,1.7c0,1.7-1.1,2.2-1.1,2.2l-15.9,0.5c0,0-1.3,0.3-1.2,2
					c0,1.7,1.3,1.8,1.3,1.8l15.6-0.5c0,0,1.5-0.3,1.5,1.4c0,1.7-1.6,2-1.6,2l-15.5,0.5c0,0-1.2-0.4-1.1,1.5c0,1.9,1.3,2.1,1.3,2.1
					l15.3-0.5c0,0,1.7-0.1,1.8,1.7c0,1.8-1.7,2-1.7,2l-15.3,0.5c0,0-1.3-0.3-1.3,1.4c0,1.7,1.3,1.9,1.3,1.9l15.4-0.6
					c0,0,1.6-0.1,1.7,1.6c0,1.7-1.6,1.9-1.6,1.9l-15.6,0.6l-1.1,0.4"/>
				<path opacity="0.5" fill="none" stroke="#7A726F" stroke-width="0.5324" d="M345.1,770c0-1.5-1.5-1.6-1.5-1.6l-15.9,0.6
					c0,0-1,0.8-1.1-1.2c0-1.9,1.1-2.3,1.1-2.3l16-0.6c0,0,1.1,0.1,1.1-1.6c0-1.7-1.4-1.9-1.4-1.9l-15.7,0.5c0,0-1.2-0.1-1.2-1.8
					c0-1.7,1.4-1.9,1.4-1.9l15.9-0.5c0,0,1-0.3,1-1.7c0-1.4-1.2-1.9-1.2-1.9l-16.2,0.5c0,0-1,0-1.1-1.7c0-1.8,1-2.1,1-2.1l16.2-0.5
					c0,0,1.3,0.1,1.2-1.8c0-1.9-1.5-1.9-1.5-1.9l-15.9,0.5c0,0-1,0-1.1-1.7c0-1.7,1.1-2.2,1.1-2.2l15.9-0.5c0,0,1.3-0.3,1.2-2
					c0-1.7-1.3-1.8-1.3-1.8l-15.6,0.4c0,0-1.5,0.3-1.5-1.4c0-1.7,1.6-2,1.6-2l15.5-0.4c0,0,1.1,0.4,1.1-1.5c0-1.9-1.3-2.1-1.3-2.1
					l-15.3,0.4c0,0-1.7,0-1.7-1.8c0-1.8,1.7-2,1.7-2l15.3-0.4c0,0,1.3,0.3,1.3-1.4c0-1.7-1.3-1.9-1.3-1.9l-15.4,0.4
					c0,0-1.6,0-1.6-1.6c0-1.7,1.6-1.9,1.6-1.9l15.6-0.4l1.2-0.4"/>
				<line opacity="0.5" fill="none" stroke="#7A726F" stroke-width="0.5324" x1="326.6" y1="769" x2="344.3" y2="765.1"/>
				<line opacity="0.5" fill="none" stroke="#7A726F" stroke-width="0.5324" x1="326.5" y1="765.8" x2="344.3" y2="761.9"/>
				<line opacity="0.5" fill="none" stroke="#7A726F" stroke-width="0.5324" x1="326.4" y1="761.7" x2="344.2" y2="757.8"/>
				<line opacity="0.5" fill="none" stroke="#7A726F" stroke-width="0.5324" x1="326.4" y1="758.2" x2="344.1" y2="754.4"/>
				<line opacity="0.5" fill="none" stroke="#7A726F" stroke-width="0.5324" x1="326.3" y1="755.2" x2="344.1" y2="751.3"/>
				<line opacity="0.5" fill="none" stroke="#7A726F" stroke-width="0.5324" x1="326.3" y1="751.6" x2="344" y2="747.8"/>
				<line opacity="0.5" fill="none" stroke="#7A726F" stroke-width="0.5324" x1="326.2" y1="748" x2="343.9" y2="744.2"/>
				<line opacity="0.5" fill="none" stroke="#7A726F" stroke-width="0.5324" x1="326.1" y1="744" x2="343.9" y2="740.3"/>
				<line opacity="0.5" fill="none" stroke="#7A726F" stroke-width="0.5324" x1="326.1" y1="740.4" x2="343.8" y2="736.7"/>
				<line opacity="0.5" fill="none" stroke="#7A726F" stroke-width="0.5324" x1="326" y1="736.9" x2="343.8" y2="733.2"/>
				<line opacity="0.5" fill="none" stroke="#7A726F" stroke-width="0.5324" x1="326" y1="733.4" x2="343.7" y2="729.7"/>
				<line opacity="0.5" fill="none" stroke="#7A726F" stroke-width="0.5324" x1="325.9" y1="729.4" x2="343.7" y2="725.7"/>
				<line opacity="0.5" fill="none" stroke="#7A726F" stroke-width="0.5324" x1="325.9" y1="725.7" x2="343.6" y2="722"/>
			</g>
			<g>
				<line opacity="0.5" fill="none" stroke="#7A726F" stroke-width="0.5324" x1="327.2" y1="720.6" x2="326.9" y2="670.7"/>
				<line opacity="0.5" fill="none" stroke="#7A726F" stroke-width="0.5324" x1="343.3" y1="720.2" x2="343" y2="670.4"/>
				<line opacity="0.5" fill="none" stroke="#7A726F" stroke-width="0.5324" x1="332.6" y1="720.5" x2="332.3" y2="670.6"/>
				<line opacity="0.5" fill="none" stroke="#7A726F" stroke-width="0.5324" x1="337.9" y1="720.3" x2="337.6" y2="670.5"/>
				<path opacity="0.5" fill="none" stroke="#7A726F" stroke-width="0.5324" d="M325.5,670.4c0,1.6,1.5,1.7,1.5,1.7l15.9-0.2
					c0,0,1-0.7,1,1.2c0,1.9-1.1,2.3-1.1,2.3l-16,0.2c0,0-1.2-0.1-1.1,1.6c0,1.7,1.4,1.9,1.4,1.9l15.8-0.2c0,0,1.2,0.1,1.2,1.8
					c0,1.7-1.4,1.8-1.4,1.8l-15.9,0.3c0,0-1,0.3-1,1.7c0,1.5,1.2,1.9,1.2,1.9L343,686c0,0,1,0,1,1.7c0,1.8-1,2.1-1,2.1l-16.2,0.3
					c0,0-1.3-0.1-1.3,1.8c0,1.9,1.5,1.9,1.5,1.9l15.9-0.3c0,0,1,0,1.1,1.7c0,1.7-1.1,2.2-1.1,2.2l-15.9,0.3c0,0-1.3,0.3-1.3,2
					c0,1.7,1.3,1.8,1.3,1.8l15.6-0.3c0,0,1.5-0.3,1.5,1.4c0,1.7-1.6,2-1.6,2l-15.5,0.3c0,0-1.2-0.5-1.1,1.5c0,1.9,1.3,2.1,1.3,2.1
					l15.3-0.3c0,0,1.7,0,1.7,1.8c0,1.8-1.7,2-1.7,2l-15.4,0.3c0,0-1.3-0.3-1.3,1.4c0,1.7,1.3,1.9,1.3,1.9l15.4-0.3
					c0,0,1.6,0,1.6,1.6c0,1.7-1.6,1.8-1.6,1.8l-15.6,0.4l-1.1,0.4"/>
				<path opacity="0.5" fill="none" stroke="#7A726F" stroke-width="0.5324" d="M344.3,720c0-1.6-1.5-1.6-1.5-1.6l-15.9,0.4
					c0,0-1,0.7-1-1.2c0-1.9,1.1-2.3,1.1-2.3l16-0.4c0,0,1.1,0.1,1.1-1.6c0-1.7-1.4-1.9-1.4-1.9l-15.7,0.3c0,0-1.2-0.1-1.2-1.8
					c0-1.7,1.4-1.8,1.4-1.8l15.9-0.3c0,0,1-0.3,1-1.7c0-1.4-1.2-1.9-1.2-1.9l-16.2,0.3c0,0-1,0-1.1-1.7c0-1.8,1-2.1,1-2.1l16.2-0.3
					c0,0,1.3,0.1,1.2-1.8c0-1.9-1.5-1.9-1.5-1.9l-15.9,0.3c0,0-1,0-1.1-1.7c0-1.7,1.1-2.2,1.1-2.2l15.9-0.3c0,0,1.3-0.3,1.3-1.9
					c0-1.7-1.3-1.8-1.3-1.8l-15.6,0.3c0,0-1.5,0.3-1.5-1.4c0-1.7,1.6-2,1.6-2l15.5-0.3c0,0,1.1,0.5,1.1-1.5c0-1.9-1.3-2.1-1.3-2.1
					l-15.3,0.3c0,0-1.7,0-1.7-1.8c0-1.8,1.7-2,1.7-2l15.3-0.2c0,0,1.3,0.3,1.3-1.4c0-1.7-1.3-1.9-1.3-1.9l-15.4,0.2
					c0,0-1.6,0-1.6-1.7c0-1.7,1.6-1.8,1.6-1.8l15.6-0.2l1.2-0.4"/>
				<line opacity="0.5" fill="none" stroke="#7A726F" stroke-width="0.5324" x1="325.8" y1="718.8" x2="343.5" y2="715.1"/>
				<line opacity="0.5" fill="none" stroke="#7A726F" stroke-width="0.5324" x1="325.7" y1="715.5" x2="343.5" y2="711.9"/>
				<line opacity="0.5" fill="none" stroke="#7A726F" stroke-width="0.5324" x1="325.7" y1="711.5" x2="343.5" y2="707.8"/>
				<line opacity="0.5" fill="none" stroke="#7A726F" stroke-width="0.5324" x1="325.7" y1="708" x2="343.5" y2="704.3"/>
				<line opacity="0.5" fill="none" stroke="#7A726F" stroke-width="0.5324" x1="325.7" y1="704.9" x2="343.4" y2="701.3"/>
				<line opacity="0.5" fill="none" stroke="#7A726F" stroke-width="0.5324" x1="325.6" y1="701.4" x2="343.4" y2="697.8"/>
				<line opacity="0.5" fill="none" stroke="#7A726F" stroke-width="0.5324" x1="325.6" y1="697.8" x2="343.4" y2="694.2"/>
				<line opacity="0.5" fill="none" stroke="#7A726F" stroke-width="0.5324" x1="325.6" y1="693.8" x2="343.4" y2="690.2"/>
				<line opacity="0.5" fill="none" stroke="#7A726F" stroke-width="0.5324" x1="325.6" y1="690.2" x2="343.3" y2="686.6"/>
				<line opacity="0.5" fill="none" stroke="#7A726F" stroke-width="0.5324" x1="325.6" y1="686.7" x2="343.3" y2="683.1"/>
				<line opacity="0.5" fill="none" stroke="#7A726F" stroke-width="0.5324" x1="325.5" y1="683.2" x2="343.3" y2="679.7"/>
				<line opacity="0.5" fill="none" stroke="#7A726F" stroke-width="0.5324" x1="325.5" y1="679.2" x2="343.3" y2="675.7"/>
				<line opacity="0.5" fill="none" stroke="#7A726F" stroke-width="0.5324" x1="325.5" y1="675.5" x2="343.3" y2="672"/>
			</g>
			<g>
				<line opacity="0.5" fill="none" stroke="#7A726F" stroke-width="0.5324" x1="326.9" y1="670.4" x2="327" y2="620.5"/>
				<line opacity="0.5" fill="none" stroke="#7A726F" stroke-width="0.5324" x1="343" y1="670.2" x2="343.1" y2="620.4"/>
				<line opacity="0.5" fill="none" stroke="#7A726F" stroke-width="0.5324" x1="332.3" y1="670.3" x2="332.4" y2="620.4"/>
				<line opacity="0.5" fill="none" stroke="#7A726F" stroke-width="0.5324" x1="337.6" y1="670.2" x2="337.7" y2="620.4"/>
				<path opacity="0.5" fill="none" stroke="#7A726F" stroke-width="0.5324" d="M325.6,620.2c0,1.6,1.5,1.7,1.5,1.7l15.9-0.1
					c0,0,1-0.7,1,1.2c0,1.9-1.2,2.3-1.2,2.3l-16,0.1c0,0-1.2-0.1-1.2,1.6c0,1.7,1.4,1.9,1.4,1.9l15.7-0.1c0,0,1.2,0.1,1.1,1.8
					c0,1.7-1.4,1.8-1.4,1.8l-15.9,0.1c0,0-1,0.2-1,1.7c0,1.4,1.2,1.9,1.2,1.9L343,636c0,0,1,0,1,1.7c0,1.8-1,2.1-1,2.1l-16.2,0.1
					c0,0-1.3-0.1-1.3,1.8c0,1.9,1.5,1.9,1.5,1.9l15.9-0.1c0,0,1,0,1,1.7c0,1.7-1.2,2.2-1.2,2.2l-15.9,0.2c0,0-1.3,0.3-1.3,1.9
					c0,1.7,1.3,1.8,1.3,1.8l15.6-0.2c0,0,1.5-0.3,1.5,1.4c0,1.7-1.6,1.9-1.6,1.9l-15.5,0.2c0,0-1.2-0.5-1.2,1.5
					c0,1.9,1.3,2.2,1.3,2.2l15.3-0.2c0,0,1.7,0,1.7,1.8c0,1.8-1.7,2-1.7,2l-15.3,0.2c0,0-1.3-0.3-1.3,1.4c0,1.7,1.3,1.9,1.3,1.9
					l15.4-0.2c0,0,1.6,0,1.6,1.7c0,1.7-1.6,1.8-1.6,1.8l-15.6,0.2l-1.1,0.4"/>
				<path opacity="0.5" fill="none" stroke="#7A726F" stroke-width="0.5324" d="M344,670c0-1.6-1.5-1.7-1.5-1.7l-15.9,0.2
					c0,0-1,0.7-1-1.2c0-1.9,1.2-2.3,1.2-2.3l16-0.2c0,0,1.1,0.1,1.1-1.6c0-1.7-1.4-1.9-1.4-1.9l-15.7,0.2c0,0-1.2-0.1-1.2-1.8
					c0-1.7,1.4-1.8,1.4-1.8l15.9-0.2c0,0,1-0.3,1-1.7c0-1.4-1.1-1.9-1.1-1.9l-16.2,0.2c0,0-1,0-1-1.7c0-1.8,1-2.1,1-2.1l16.2-0.2
					c0,0,1.3,0.1,1.3-1.8c0-1.9-1.5-1.9-1.5-1.9l-15.9,0.2c0,0-1,0-1-1.7c0-1.7,1.2-2.2,1.2-2.2l15.9-0.2c0,0,1.3-0.2,1.3-1.9
					c0-1.7-1.3-1.8-1.3-1.8l-15.6,0.1c0,0-1.5,0.3-1.5-1.4c0-1.7,1.6-1.9,1.6-1.9l15.5-0.1c0,0,1.1,0.5,1.1-1.5
					c0-1.9-1.3-2.2-1.3-2.2l-15.3,0.1c0,0-1.7,0-1.7-1.8c0-1.8,1.7-2,1.7-2l15.3-0.1c0,0,1.3,0.3,1.3-1.4c0-1.7-1.3-1.9-1.3-1.9
					l-15.4,0.1c0,0-1.6,0-1.6-1.7c0-1.7,1.6-1.8,1.6-1.8l15.6-0.1l1.2-0.4"/>
				<line opacity="0.5" fill="none" stroke="#7A726F" stroke-width="0.5324" x1="325.5" y1="668.5" x2="343.3" y2="665.1"/>
				<line opacity="0.5" fill="none" stroke="#7A726F" stroke-width="0.5324" x1="325.5" y1="665.3" x2="343.3" y2="661.8"/>
				<line opacity="0.5" fill="none" stroke="#7A726F" stroke-width="0.5324" x1="325.5" y1="661.2" x2="343.3" y2="657.8"/>
				<line opacity="0.5" fill="none" stroke="#7A726F" stroke-width="0.5324" x1="325.5" y1="657.7" x2="343.3" y2="654.3"/>
				<line opacity="0.5" fill="none" stroke="#7A726F" stroke-width="0.5324" x1="325.5" y1="654.7" x2="343.3" y2="651.2"/>
				<line opacity="0.5" fill="none" stroke="#7A726F" stroke-width="0.5324" x1="325.5" y1="651.2" x2="343.3" y2="647.7"/>
				<line opacity="0.5" fill="none" stroke="#7A726F" stroke-width="0.5324" x1="325.5" y1="647.6" x2="343.3" y2="644.1"/>
				<line opacity="0.5" fill="none" stroke="#7A726F" stroke-width="0.5324" x1="325.5" y1="643.6" x2="343.3" y2="640.2"/>
				<line opacity="0.5" fill="none" stroke="#7A726F" stroke-width="0.5324" x1="325.6" y1="640" x2="343.4" y2="636.6"/>
				<line opacity="0.5" fill="none" stroke="#7A726F" stroke-width="0.5324" x1="325.6" y1="636.5" x2="343.4" y2="633.1"/>
				<line opacity="0.5" fill="none" stroke="#7A726F" stroke-width="0.5324" x1="325.6" y1="633" x2="343.4" y2="629.6"/>
				<line opacity="0.5" fill="none" stroke="#7A726F" stroke-width="0.5324" x1="325.6" y1="629" x2="343.4" y2="625.6"/>
				<line opacity="0.5" fill="none" stroke="#7A726F" stroke-width="0.5324" x1="325.6" y1="625.3" x2="343.4" y2="621.9"/>
			</g>
			<g>
				<line opacity="0.5" fill="none" stroke="#7A726F" stroke-width="0.5324" x1="327" y1="620.2" x2="327.3" y2="570.3"/>
				<line opacity="0.5" fill="none" stroke="#7A726F" stroke-width="0.5324" x1="343.1" y1="620.1" x2="343.3" y2="570.2"/>
				<line opacity="0.5" fill="none" stroke="#7A726F" stroke-width="0.5324" x1="332.4" y1="620.2" x2="332.6" y2="570.3"/>
				<line opacity="0.5" fill="none" stroke="#7A726F" stroke-width="0.5324" x1="337.7" y1="620.1" x2="338" y2="570.2"/>
				<path opacity="0.5" fill="none" stroke="#7A726F" stroke-width="0.5324" d="M325.9,570.1c0,1.6,1.5,1.7,1.5,1.7l15.9-0.1
					c0,0,1-0.7,1,1.2c0,1.9-1.2,2.3-1.2,2.3l-16,0.1c0,0-1.2-0.1-1.2,1.6c0,1.7,1.4,1.9,1.4,1.9l15.8-0.1c0,0,1.2,0.1,1.1,1.8
					c0,1.7-1.4,1.8-1.4,1.8l-15.9,0.1c0,0-1,0.2-1,1.7c0,1.5,1.1,1.9,1.1,1.9l16.2-0.1c0,0,1,0,1,1.7c0,1.8-1,2.1-1,2.1l-16.2,0.1
					c0,0-1.3-0.1-1.3,1.8c0,1.9,1.5,1.9,1.5,1.9l15.9-0.1c0,0,1,0,1,1.7c0,1.7-1.2,2.2-1.2,2.2l-15.9,0.1c0,0-1.3,0.2-1.3,1.9
					c0,1.7,1.3,1.8,1.3,1.8l15.6-0.1c0,0,1.5-0.3,1.5,1.4c0,1.7-1.6,1.9-1.6,1.9l-15.5,0.1c0,0-1.1-0.5-1.1,1.5
					c0,1.9,1.2,2.2,1.2,2.2l15.3-0.1c0,0,1.7,0,1.7,1.8c0,1.8-1.7,2-1.7,2l-15.3,0.1c0,0-1.3-0.3-1.3,1.4c0,1.7,1.3,1.9,1.3,1.9
					l15.4-0.1c0,0,1.6,0,1.6,1.7c0,1.7-1.6,1.8-1.6,1.8l-15.6,0.1l-1.1,0.4"/>
				<path opacity="0.5" fill="none" stroke="#7A726F" stroke-width="0.5324" d="M344.1,619.9c0-1.6-1.5-1.7-1.5-1.7l-15.9,0.1
					c0,0-1,0.7-1-1.2c0-1.9,1.2-2.3,1.2-2.3l16-0.1c0,0,1.1,0.1,1.2-1.6c0-1.7-1.4-1.9-1.4-1.9l-15.8,0.1c0,0-1.2-0.1-1.1-1.8
					c0-1.7,1.4-1.8,1.4-1.8l15.9-0.1c0,0,1-0.2,1-1.7c0-1.4-1.1-1.9-1.1-1.9l-16.2,0.1c0,0-1,0-1-1.7c0-1.8,1.1-2.1,1.1-2.1
					l16.2-0.1c0,0,1.3,0.1,1.3-1.8c0-1.9-1.5-1.9-1.5-1.9l-15.9,0.1c0,0-1,0-1-1.7c0-1.7,1.2-2.2,1.2-2.2l15.9-0.1
					c0,0,1.3-0.2,1.3-1.9c0-1.7-1.3-1.8-1.3-1.8l-15.6,0.1c0,0-1.5,0.3-1.5-1.4c0-1.7,1.6-1.9,1.6-1.9l15.5-0.1c0,0,1.1,0.5,1.1-1.4
					c0-1.9-1.2-2.2-1.2-2.2l-15.3,0.1c0,0-1.7,0-1.7-1.8c0-1.8,1.7-2,1.7-2l15.4-0.1c0,0,1.3,0.3,1.3-1.4c0-1.7-1.3-1.9-1.3-1.9
					l-15.4,0.1c0,0-1.6,0-1.6-1.7c0-1.7,1.6-1.8,1.6-1.8l15.6-0.1l1.2-0.4"/>
				<line opacity="0.5" fill="none" stroke="#7A726F" stroke-width="0.5324" x1="325.6" y1="618.3" x2="343.4" y2="615"/>
				<line opacity="0.5" fill="none" stroke="#7A726F" stroke-width="0.5324" x1="325.6" y1="615.1" x2="343.5" y2="611.7"/>
				<line opacity="0.5" fill="none" stroke="#7A726F" stroke-width="0.5324" x1="325.7" y1="611" x2="343.5" y2="607.7"/>
				<line opacity="0.5" fill="none" stroke="#7A726F" stroke-width="0.5324" x1="325.7" y1="607.5" x2="343.5" y2="604.2"/>
				<line opacity="0.5" fill="none" stroke="#7A726F" stroke-width="0.5324" x1="325.7" y1="604.5" x2="343.5" y2="601.1"/>
				<line opacity="0.5" fill="none" stroke="#7A726F" stroke-width="0.5324" x1="325.7" y1="601" x2="343.5" y2="597.6"/>
				<line opacity="0.5" fill="none" stroke="#7A726F" stroke-width="0.5324" x1="325.7" y1="597.4" x2="343.5" y2="594"/>
				<line opacity="0.5" fill="none" stroke="#7A726F" stroke-width="0.5324" x1="325.7" y1="593.4" x2="343.6" y2="590"/>
				<line opacity="0.5" fill="none" stroke="#7A726F" stroke-width="0.5324" x1="325.8" y1="589.8" x2="343.6" y2="586.4"/>
				<line opacity="0.5" fill="none" stroke="#7A726F" stroke-width="0.5324" x1="325.8" y1="586.3" x2="343.6" y2="582.9"/>
				<line opacity="0.5" fill="none" stroke="#7A726F" stroke-width="0.5324" x1="325.8" y1="582.8" x2="343.6" y2="579.4"/>
				<line opacity="0.5" fill="none" stroke="#7A726F" stroke-width="0.5324" x1="325.8" y1="578.8" x2="343.6" y2="575.5"/>
				<line opacity="0.5" fill="none" stroke="#7A726F" stroke-width="0.5324" x1="325.8" y1="575.1" x2="343.6" y2="571.7"/>
			</g>
			<g>
				<line opacity="0.5" fill="none" stroke="#7A726F" stroke-width="0.5324" x1="327.3" y1="570.1" x2="327.4" y2="520.2"/>
				<line opacity="0.5" fill="none" stroke="#7A726F" stroke-width="0.5324" x1="343.3" y1="569.9" x2="343.5" y2="520"/>
				<line opacity="0.5" fill="none" stroke="#7A726F" stroke-width="0.5324" x1="332.6" y1="570" x2="332.8" y2="520.1"/>
				<line opacity="0.5" fill="none" stroke="#7A726F" stroke-width="0.5324" x1="338" y1="570" x2="338.1" y2="520.1"/>
				<path opacity="0.5" fill="none" stroke="#7A726F" stroke-width="0.5324" d="M326,519.9c0,1.6,1.5,1.7,1.5,1.7l15.9-0.2
					c0,0,1-0.7,1,1.2c0,1.9-1.2,2.3-1.2,2.3l-16,0.2c0,0-1.2-0.1-1.2,1.6c0,1.7,1.4,1.9,1.4,1.9l15.8-0.2c0,0,1.2,0.1,1.1,1.8
					c0,1.7-1.4,1.8-1.4,1.8l-15.9,0.1c0,0-1,0.3-1,1.7c0,1.4,1.2,1.9,1.2,1.9l16.2-0.1c0,0,1,0,1,1.7c0,1.8-1,2.1-1,2.1l-16.2,0.1
					c0,0-1.3-0.1-1.3,1.8c0,1.9,1.5,1.9,1.5,1.9l15.9-0.1c0,0,1,0,1,1.7c0,1.7-1.2,2.2-1.2,2.2l-15.9,0.1c0,0-1.3,0.3-1.3,1.9
					c0,1.7,1.3,1.8,1.3,1.8l15.6-0.1c0,0,1.5-0.3,1.5,1.4c0,1.7-1.6,1.9-1.6,1.9l-15.5,0.1c0,0-1.1-0.5-1.2,1.5
					c0,1.9,1.2,2.2,1.2,2.2l15.3-0.1c0,0,1.7,0,1.7,1.8c0,1.8-1.7,2-1.7,2l-15.3,0.1c0,0-1.3-0.3-1.3,1.4c0,1.7,1.3,1.9,1.3,1.9
					l15.4-0.1c0,0,1.6,0,1.6,1.7c0,1.7-1.6,1.8-1.6,1.8l-15.6,0.1l-1.2,0.4"/>
				<path opacity="0.5" fill="none" stroke="#7A726F" stroke-width="0.5324" d="M344.4,569.8c0-1.6-1.5-1.7-1.5-1.7l-15.9,0.1
					c0,0-1,0.7-1-1.2c0-1.9,1.2-2.3,1.2-2.3l16-0.1c0,0,1.2,0.1,1.2-1.6c0-1.7-1.4-1.9-1.4-1.9l-15.8,0.1c0,0-1.2-0.1-1.1-1.8
					c0-1.7,1.4-1.8,1.4-1.8l15.9-0.1c0,0,1-0.3,1-1.7c0-1.5-1.1-1.9-1.1-1.9l-16.2,0.1c0,0-1,0-1-1.7c0-1.8,1-2,1-2l16.2-0.1
					c0,0,1.3,0.1,1.3-1.8c0-1.9-1.5-1.9-1.5-1.9l-15.9,0.1c0,0-1,0-1-1.7c0-1.7,1.2-2.2,1.2-2.2l15.9-0.1c0,0,1.3-0.2,1.3-1.9
					c0-1.7-1.3-1.8-1.3-1.8l-15.6,0.1c0,0-1.5,0.3-1.5-1.4c0-1.7,1.6-1.9,1.6-1.9l15.5-0.1c0,0,1.1,0.5,1.1-1.5
					c0-1.9-1.3-2.1-1.3-2.1l-15.3,0.1c0,0-1.7,0-1.7-1.8c0-1.8,1.7-2,1.7-2l15.3-0.1c0,0,1.3,0.3,1.3-1.4c0-1.7-1.3-1.9-1.3-1.9
					l-15.4,0.1c0,0-1.6,0-1.6-1.7c0-1.7,1.6-1.8,1.6-1.8l15.6-0.2l1.2-0.4"/>
				<line opacity="0.5" fill="none" stroke="#7A726F" stroke-width="0.5324" x1="325.9" y1="568.2" x2="343.7" y2="564.8"/>
				<line opacity="0.5" fill="none" stroke="#7A726F" stroke-width="0.5324" x1="325.9" y1="565" x2="343.7" y2="561.6"/>
				<line opacity="0.5" fill="none" stroke="#7A726F" stroke-width="0.5324" x1="325.9" y1="560.9" x2="343.7" y2="557.5"/>
				<line opacity="0.5" fill="none" stroke="#7A726F" stroke-width="0.5324" x1="325.9" y1="557.4" x2="343.7" y2="554"/>
				<line opacity="0.5" fill="none" stroke="#7A726F" stroke-width="0.5324" x1="325.9" y1="554.4" x2="343.7" y2="551"/>
				<line opacity="0.5" fill="none" stroke="#7A726F" stroke-width="0.5324" x1="325.9" y1="550.9" x2="343.7" y2="547.5"/>
				<line opacity="0.5" fill="none" stroke="#7A726F" stroke-width="0.5324" x1="325.9" y1="547.3" x2="343.7" y2="543.9"/>
				<line opacity="0.5" fill="none" stroke="#7A726F" stroke-width="0.5324" x1="326" y1="543.3" x2="343.7" y2="539.9"/>
				<line opacity="0.5" fill="none" stroke="#7A726F" stroke-width="0.5324" x1="326" y1="539.7" x2="343.8" y2="536.3"/>
				<line opacity="0.5" fill="none" stroke="#7A726F" stroke-width="0.5324" x1="326" y1="536.2" x2="343.8" y2="532.8"/>
				<line opacity="0.5" fill="none" stroke="#7A726F" stroke-width="0.5324" x1="326" y1="532.7" x2="343.8" y2="529.3"/>
				<line opacity="0.5" fill="none" stroke="#7A726F" stroke-width="0.5324" x1="326" y1="528.7" x2="343.8" y2="525.3"/>
				<line opacity="0.5" fill="none" stroke="#7A726F" stroke-width="0.5324" x1="326" y1="525" x2="343.8" y2="521.6"/>
			</g>
			<g>
				<line opacity="0.5" fill="none" stroke="#7A726F" stroke-width="0.5324" x1="327.4" y1="519.9" x2="327.5" y2="470.1"/>
				<line opacity="0.5" fill="none" stroke="#7A726F" stroke-width="0.5324" x1="343.5" y1="519.8" x2="343.5" y2="469.9"/>
				<line opacity="0.5" fill="none" stroke="#7A726F" stroke-width="0.5324" x1="332.8" y1="519.9" x2="332.8" y2="470"/>
				<line opacity="0.5" fill="none" stroke="#7A726F" stroke-width="0.5324" x1="338.1" y1="519.8" x2="338.2" y2="469.9"/>
				<path opacity="0.5" fill="none" stroke="#7A726F" stroke-width="0.5324" d="M326.1,469.8c0,1.6,1.5,1.7,1.5,1.7l15.9-0.2
					c0,0,1-0.7,1,1.2c0,1.9-1.2,2.3-1.2,2.3l-16,0.2c0,0-1.2-0.1-1.2,1.6c0,1.7,1.4,1.9,1.4,1.9l15.7-0.2c0,0,1.2,0.1,1.2,1.8
					c0,1.7-1.4,1.8-1.4,1.8l-15.9,0.2c0,0-1,0.2-1,1.7c0,1.4,1.1,1.9,1.1,1.9l16.2-0.2c0,0,1,0,1,1.7c0,1.8-1,2.1-1,2.1l-16.2,0.2
					c0,0-1.3-0.1-1.3,1.8c0,1.9,1.5,1.9,1.5,1.9l15.9-0.2c0,0,1,0,1,1.7c0,1.7-1.1,2.2-1.1,2.2l-15.9,0.2c0,0-1.3,0.3-1.3,1.9
					c0,1.7,1.3,1.8,1.3,1.8l15.6-0.2c0,0,1.5-0.3,1.5,1.4c0,1.7-1.6,1.9-1.6,1.9l-15.5,0.2c0,0-1.2-0.5-1.2,1.5
					c0,1.9,1.3,2.2,1.3,2.2l15.3-0.2c0,0,1.7,0,1.7,1.8c0,1.8-1.7,2-1.7,2l-15.3,0.1c0,0-1.3-0.3-1.3,1.4c0,1.7,1.3,1.9,1.3,1.9
					l15.4-0.1c0,0,1.6,0,1.6,1.7c0,1.7-1.6,1.8-1.6,1.8l-15.6,0.1l-1.2,0.4"/>
				<path opacity="0.5" fill="none" stroke="#7A726F" stroke-width="0.5324" d="M344.5,519.6c0-1.6-1.5-1.7-1.5-1.7l-15.9,0.2
					c0,0-1,0.7-1-1.2c0-1.9,1.2-2.3,1.2-2.3l16-0.2c0,0,1.1,0.1,1.1-1.6c0-1.7-1.4-1.9-1.4-1.9l-15.7,0.2c0,0-1.2-0.1-1.2-1.8
					c0-1.7,1.4-1.8,1.4-1.8l15.9-0.2c0,0,1-0.3,1-1.7c0-1.4-1.1-1.9-1.1-1.9l-16.2,0.2c0,0-1,0-1-1.7c0-1.8,1-2,1-2l16.2-0.2
					c0,0,1.3,0.1,1.3-1.8c0-1.9-1.5-1.9-1.5-1.9l-15.9,0.2c0,0-1,0-1-1.7c0-1.7,1.2-2.2,1.2-2.2l15.9-0.2c0,0,1.3-0.3,1.3-1.9
					c0-1.7-1.3-1.8-1.3-1.8l-15.6,0.2c0,0-1.5,0.3-1.5-1.4c0-1.7,1.6-1.9,1.6-1.9l15.5-0.2c0,0,1.1,0.5,1.1-1.5
					c0-1.9-1.3-2.2-1.3-2.2l-15.3,0.2c0,0-1.7,0-1.7-1.8c0-1.8,1.7-2,1.7-2l15.4-0.2c0,0,1.3,0.3,1.3-1.4c0-1.7-1.3-1.9-1.3-1.9
					l-15.4,0.2c0,0-1.6,0-1.6-1.7c0-1.7,1.6-1.8,1.6-1.8l15.6-0.2l1.2-0.4"/>
				<line opacity="0.5" fill="none" stroke="#7A726F" stroke-width="0.5324" x1="326" y1="518.1" x2="343.8" y2="514.7"/>
				<line opacity="0.5" fill="none" stroke="#7A726F" stroke-width="0.5324" x1="326" y1="514.9" x2="343.8" y2="511.4"/>
				<line opacity="0.5" fill="none" stroke="#7A726F" stroke-width="0.5324" x1="326" y1="510.8" x2="343.8" y2="507.4"/>
				<line opacity="0.5" fill="none" stroke="#7A726F" stroke-width="0.5324" x1="326" y1="507.3" x2="343.8" y2="503.9"/>
				<line opacity="0.5" fill="none" stroke="#7A726F" stroke-width="0.5324" x1="326" y1="504.2" x2="343.8" y2="500.8"/>
				<line opacity="0.5" fill="none" stroke="#7A726F" stroke-width="0.5324" x1="326" y1="500.7" x2="343.8" y2="497.3"/>
				<line opacity="0.5" fill="none" stroke="#7A726F" stroke-width="0.5324" x1="326" y1="497.1" x2="343.8" y2="493.7"/>
				<line opacity="0.5" fill="none" stroke="#7A726F" stroke-width="0.5324" x1="326.1" y1="493.2" x2="343.9" y2="489.7"/>
				<line opacity="0.5" fill="none" stroke="#7A726F" stroke-width="0.5324" x1="326.1" y1="489.6" x2="343.9" y2="486.1"/>
				<line opacity="0.5" fill="none" stroke="#7A726F" stroke-width="0.5324" x1="326.1" y1="486.1" x2="343.9" y2="482.6"/>
				<line opacity="0.5" fill="none" stroke="#7A726F" stroke-width="0.5324" x1="326.1" y1="482.6" x2="343.9" y2="479.1"/>
				<line opacity="0.5" fill="none" stroke="#7A726F" stroke-width="0.5324" x1="326.1" y1="478.6" x2="343.9" y2="475.2"/>
				<line opacity="0.5" fill="none" stroke="#7A726F" stroke-width="0.5324" x1="326.1" y1="474.9" x2="343.9" y2="471.4"/>
			</g>
			<g>
				<line opacity="0.5" fill="none" stroke="#7A726F" stroke-width="0.5324" x1="327.5" y1="469.8" x2="327.5" y2="419.9"/>
				<line opacity="0.5" fill="none" stroke="#7A726F" stroke-width="0.5324" x1="343.5" y1="469.6" x2="343.5" y2="419.7"/>
				<line opacity="0.5" fill="none" stroke="#7A726F" stroke-width="0.5324" x1="332.8" y1="469.7" x2="332.8" y2="419.9"/>
				<line opacity="0.5" fill="none" stroke="#7A726F" stroke-width="0.5324" x1="338.2" y1="469.7" x2="338.2" y2="419.8"/>
				<path opacity="0.5" fill="none" stroke="#7A726F" stroke-width="0.5324" d="M326.1,419.7c0,1.6,1.5,1.7,1.5,1.7l15.9-0.2
					c0,0,1-0.7,1,1.2c0,1.9-1.1,2.3-1.1,2.3l-16,0.2c0,0-1.2-0.1-1.1,1.6c0,1.7,1.4,1.9,1.4,1.9l15.8-0.2c0,0,1.1,0.1,1.2,1.8
					c0,1.7-1.4,1.8-1.4,1.8l-15.9,0.2c0,0-1,0.3-1,1.7c0,1.5,1.2,1.9,1.2,1.9l16.2-0.2c0,0,1,0,1,1.7c0,1.8-1,2.1-1,2.1l-16.2,0.2
					c0,0-1.3-0.1-1.3,1.8c0,1.9,1.5,1.9,1.5,1.9l15.9-0.2c0,0,1,0,1,1.7c0,1.7-1.2,2.2-1.2,2.2l-15.9,0.2c0,0-1.3,0.3-1.3,1.9
					c0,1.7,1.3,1.8,1.3,1.8l15.6-0.2c0,0,1.5-0.3,1.5,1.4c0,1.7-1.6,1.9-1.6,1.9l-15.5,0.2c0,0-1.2-0.5-1.2,1.5
					c0,1.9,1.3,2.1,1.3,2.1l15.3-0.2c0,0,1.7,0,1.7,1.8c0,1.8-1.7,2-1.7,2l-15.3,0.2c0,0-1.3-0.3-1.3,1.4c0,1.7,1.3,1.9,1.3,1.9
					l15.4-0.2c0,0,1.6,0,1.6,1.7c0,1.7-1.6,1.8-1.6,1.8l-15.6,0.2l-1.1,0.4"/>
				<path opacity="0.5" fill="none" stroke="#7A726F" stroke-width="0.5324" d="M344.6,469.4c0-1.6-1.5-1.7-1.5-1.7l-15.9,0.2
					c0,0-1,0.7-1-1.2c0-1.9,1.2-2.3,1.2-2.3l16-0.2c0,0,1.2,0.1,1.1-1.6c0-1.7-1.4-1.9-1.4-1.9l-15.8,0.2c0,0-1.1-0.1-1.2-1.8
					c0-1.7,1.4-1.8,1.4-1.8l15.9-0.2c0,0,1-0.3,1-1.7c0-1.5-1.2-1.9-1.2-1.9l-16.2,0.2c0,0-1,0-1-1.7c0-1.8,1-2.1,1-2.1l16.2-0.2
					c0,0,1.3,0.1,1.3-1.8c0-1.9-1.5-1.9-1.5-1.9l-15.9,0.2c0,0-1,0-1-1.7c0-1.7,1.2-2.2,1.2-2.2l15.9-0.2c0,0,1.3-0.2,1.3-1.9
					c0-1.7-1.3-1.8-1.3-1.8l-15.6,0.2c0,0-1.5,0.3-1.5-1.4c0-1.7,1.6-1.9,1.6-1.9l15.5-0.2c0,0,1.1,0.5,1.1-1.5
					c0-1.9-1.3-2.2-1.3-2.2l-15.3,0.2c0,0-1.7,0-1.7-1.8c0-1.8,1.7-2,1.7-2l15.3-0.2c0,0,1.3,0.3,1.3-1.4c0-1.7-1.3-1.9-1.3-1.9
					l-15.4,0.2c0,0-1.6,0-1.6-1.7c0-1.7,1.6-1.8,1.6-1.8l15.6-0.2l1.2-0.4"/>
				<line opacity="0.5" fill="none" stroke="#7A726F" stroke-width="0.5324" x1="326.1" y1="468" x2="343.9" y2="464.5"/>
				<line opacity="0.5" fill="none" stroke="#7A726F" stroke-width="0.5324" x1="326.1" y1="464.7" x2="343.9" y2="461.3"/>
				<line opacity="0.5" fill="none" stroke="#7A726F" stroke-width="0.5324" x1="326.1" y1="460.7" x2="343.9" y2="457.2"/>
				<line opacity="0.5" fill="none" stroke="#7A726F" stroke-width="0.5324" x1="326.1" y1="457.2" x2="343.9" y2="453.7"/>
				<line opacity="0.5" fill="none" stroke="#7A726F" stroke-width="0.5324" x1="326.1" y1="454.1" x2="343.9" y2="450.7"/>
				<line opacity="0.5" fill="none" stroke="#7A726F" stroke-width="0.5324" x1="326.1" y1="450.6" x2="343.9" y2="447.2"/>
				<line opacity="0.5" fill="none" stroke="#7A726F" stroke-width="0.5324" x1="326.1" y1="447" x2="343.9" y2="443.5"/>
				<line opacity="0.5" fill="none" stroke="#7A726F" stroke-width="0.5324" x1="326.1" y1="443" x2="343.9" y2="439.6"/>
				<line opacity="0.5" fill="none" stroke="#7A726F" stroke-width="0.5324" x1="326.1" y1="439.4" x2="343.9" y2="436"/>
				<line opacity="0.5" fill="none" stroke="#7A726F" stroke-width="0.5324" x1="326.1" y1="435.9" x2="343.9" y2="432.5"/>
				<line opacity="0.5" fill="none" stroke="#7A726F" stroke-width="0.5324" x1="326.1" y1="432.4" x2="343.9" y2="429"/>
				<line opacity="0.5" fill="none" stroke="#7A726F" stroke-width="0.5324" x1="326.1" y1="428.5" x2="343.9" y2="425"/>
				<line opacity="0.5" fill="none" stroke="#7A726F" stroke-width="0.5324" x1="326.1" y1="424.7" x2="343.9" y2="421.3"/>
			</g>
			<g>
				<line opacity="0.5" fill="none" stroke="#7A726F" stroke-width="0.5324" x1="327.5" y1="419.7" x2="327.4" y2="369.8"/>
				<line opacity="0.5" fill="none" stroke="#7A726F" stroke-width="0.5324" x1="343.5" y1="419.5" x2="343.5" y2="369.6"/>
				<line opacity="0.5" fill="none" stroke="#7A726F" stroke-width="0.5324" x1="332.8" y1="419.6" x2="332.8" y2="369.7"/>
				<line opacity="0.5" fill="none" stroke="#7A726F" stroke-width="0.5324" x1="338.2" y1="419.5" x2="338.1" y2="369.6"/>
				<path opacity="0.5" fill="none" stroke="#7A726F" stroke-width="0.5324" d="M326,369.6c0,1.6,1.5,1.7,1.5,1.7l15.9-0.2
					c0,0,1-0.7,1,1.2c0,1.9-1.2,2.3-1.2,2.3l-16,0.2c0,0-1.1-0.1-1.1,1.6c0,1.7,1.4,1.9,1.4,1.9l15.8-0.2c0,0,1.2,0.1,1.2,1.8
					c0,1.7-1.4,1.8-1.4,1.8l-15.9,0.2c0,0-1,0.3-1,1.7c0,1.4,1.1,1.9,1.1,1.9l16.2-0.2c0,0,1,0,1,1.7c0,1.8-1,2.1-1,2.1l-16.2,0.2
					c0,0-1.3-0.1-1.3,1.8c0,1.9,1.5,1.9,1.5,1.9l15.9-0.2c0,0,1,0,1,1.7c0,1.7-1.1,2.2-1.1,2.2l-15.9,0.2c0,0-1.3,0.3-1.3,1.9
					c0,1.7,1.3,1.8,1.3,1.8l15.6-0.2c0,0,1.5-0.3,1.5,1.4c0,1.7-1.6,1.9-1.6,1.9l-15.5,0.2c0,0-1.2-0.5-1.2,1.5
					c0,1.9,1.3,2.2,1.3,2.2l15.3-0.2c0,0,1.7,0,1.7,1.8c0,1.8-1.7,2-1.7,2l-15.4,0.2c0,0-1.3-0.3-1.3,1.4c0,1.7,1.3,1.9,1.3,1.9
					l15.4-0.2c0,0,1.6,0,1.6,1.7c0,1.7-1.6,1.8-1.6,1.8l-15.6,0.2l-1.2,0.4"/>
				<path opacity="0.5" fill="none" stroke="#7A726F" stroke-width="0.5324" d="M344.6,419.3c0-1.6-1.5-1.7-1.5-1.7l-15.9,0.2
					c0,0-1,0.7-1-1.2c0-1.9,1.2-2.3,1.2-2.3l16-0.2c0,0,1.2,0.1,1.1-1.6c0-1.7-1.4-1.9-1.4-1.9l-15.8,0.2c0,0-1.2-0.1-1.2-1.8
					c0-1.7,1.4-1.8,1.4-1.8l15.9-0.2c0,0,1-0.3,1-1.7c0-1.4-1.1-1.9-1.1-1.9l-16.2,0.2c0,0-1,0-1-1.7c0-1.8,1-2.1,1-2.1l16.2-0.2
					c0,0,1.3,0.1,1.3-1.8c0-1.9-1.5-1.9-1.5-1.9l-15.9,0.2c0,0-1,0-1-1.7c0-1.7,1.2-2.2,1.2-2.2l15.9-0.2c0,0,1.3-0.3,1.3-1.9
					c0-1.7-1.3-1.8-1.3-1.8l-15.6,0.2c0,0-1.5,0.3-1.5-1.4c0-1.7,1.6-1.9,1.6-1.9l15.5-0.2c0,0,1.2,0.5,1.1-1.5
					c0-1.9-1.3-2.1-1.3-2.1l-15.3,0.2c0,0-1.7,0-1.7-1.8c0-1.8,1.7-2,1.7-2l15.3-0.2c0,0,1.3,0.3,1.3-1.4c0-1.7-1.3-1.9-1.3-1.9
					l-15.4,0.2c0,0-1.6,0-1.6-1.7c0-1.7,1.6-1.8,1.6-1.8l15.6-0.2l1.2-0.4"/>
				<line opacity="0.5" fill="none" stroke="#7A726F" stroke-width="0.5324" x1="326.1" y1="417.8" x2="343.9" y2="414.4"/>
				<line opacity="0.5" fill="none" stroke="#7A726F" stroke-width="0.5324" x1="326.1" y1="414.6" x2="343.9" y2="411.1"/>
				<line opacity="0.5" fill="none" stroke="#7A726F" stroke-width="0.5324" x1="326.1" y1="410.5" x2="343.9" y2="407"/>
				<line opacity="0.5" fill="none" stroke="#7A726F" stroke-width="0.5324" x1="326.1" y1="407" x2="343.9" y2="403.5"/>
				<line opacity="0.5" fill="none" stroke="#7A726F" stroke-width="0.5324" x1="326.1" y1="404" x2="343.9" y2="400.5"/>
				<line opacity="0.5" fill="none" stroke="#7A726F" stroke-width="0.5324" x1="326.1" y1="400.5" x2="343.9" y2="397"/>
				<line opacity="0.5" fill="none" stroke="#7A726F" stroke-width="0.5324" x1="326.1" y1="396.9" x2="343.9" y2="393.4"/>
				<line opacity="0.5" fill="none" stroke="#7A726F" stroke-width="0.5324" x1="326.1" y1="392.9" x2="343.9" y2="389.4"/>
				<line opacity="0.5" fill="none" stroke="#7A726F" stroke-width="0.5324" x1="326.1" y1="389.3" x2="343.9" y2="385.8"/>
				<line opacity="0.5" fill="none" stroke="#7A726F" stroke-width="0.5324" x1="326.1" y1="385.8" x2="343.8" y2="382.3"/>
				<line opacity="0.5" fill="none" stroke="#7A726F" stroke-width="0.5324" x1="326" y1="382.3" x2="343.8" y2="378.8"/>
				<line opacity="0.5" fill="none" stroke="#7A726F" stroke-width="0.5324" x1="326" y1="378.3" x2="343.8" y2="374.8"/>
				<line opacity="0.5" fill="none" stroke="#7A726F" stroke-width="0.5324" x1="326" y1="374.6" x2="343.8" y2="371.1"/>
			</g>
			<g>
				<line opacity="0.5" fill="none" stroke="#7A726F" stroke-width="0.5324" x1="327.4" y1="369.5" x2="327.3" y2="319.7"/>
				<line opacity="0.5" fill="none" stroke="#7A726F" stroke-width="0.5324" x1="343.5" y1="369.3" x2="343.4" y2="319.4"/>
				<line opacity="0.5" fill="none" stroke="#7A726F" stroke-width="0.5324" x1="332.8" y1="369.5" x2="332.7" y2="319.6"/>
				<line opacity="0.5" fill="none" stroke="#7A726F" stroke-width="0.5324" x1="338.1" y1="369.4" x2="338" y2="319.5"/>
				<path opacity="0.5" fill="none" stroke="#7A726F" stroke-width="0.5324" d="M325.9,319.4c0,1.6,1.5,1.7,1.5,1.7l15.9-0.2
					c0,0,1-0.7,1.1,1.2c0,1.9-1.2,2.3-1.2,2.3l-16,0.2c0,0-1.2-0.1-1.2,1.6c0,1.7,1.4,1.9,1.4,1.9l15.8-0.2c0,0,1.1,0.1,1.2,1.8
					c0,1.7-1.4,1.8-1.4,1.8l-15.9,0.2c0,0-1,0.3-1,1.7c0,1.5,1.2,1.9,1.2,1.9l16.2-0.2c0,0,1,0,1,1.7c0,1.8-1,2.1-1,2.1l-16.2,0.2
					c0,0-1.3-0.1-1.3,1.8c0,1.9,1.5,1.9,1.5,1.9l15.9-0.2c0,0,1,0,1,1.7c0,1.7-1.1,2.2-1.1,2.2l-15.9,0.2c0,0-1.3,0.3-1.3,1.9
					c0,1.7,1.3,1.8,1.3,1.8l15.6-0.2c0,0,1.5-0.3,1.5,1.4c0,1.7-1.6,2-1.6,2l-15.5,0.2c0,0-1.1-0.5-1.2,1.5c0,1.9,1.3,2.2,1.3,2.2
					l15.3-0.2c0,0,1.7,0,1.7,1.8c0,1.8-1.7,2-1.7,2l-15.4,0.2c0,0-1.3-0.3-1.3,1.4c0,1.7,1.3,1.9,1.3,1.9l15.4-0.2
					c0,0,1.6,0,1.6,1.7c0,1.7-1.6,1.8-1.6,1.8l-15.6,0.2l-1.2,0.4"/>
				<path opacity="0.5" fill="none" stroke="#7A726F" stroke-width="0.5324" d="M344.5,369.1c0-1.6-1.5-1.7-1.5-1.7l-15.9,0.2
					c0,0-1,0.7-1-1.2c0-1.9,1.2-2.3,1.2-2.3l16-0.2c0,0,1.1,0.1,1.1-1.6c0-1.7-1.4-1.9-1.4-1.9l-15.8,0.2c0,0-1.2-0.1-1.2-1.8
					c0-1.7,1.4-1.8,1.4-1.8l15.9-0.2c0,0,1-0.3,1-1.7c0-1.5-1.2-1.9-1.2-1.9l-16.2,0.2c0,0-1,0-1-1.7c0-1.8,1-2.1,1-2.1l16.2-0.2
					c0,0,1.3,0.1,1.3-1.8c0-1.9-1.5-1.9-1.5-1.9l-15.9,0.2c0,0-1,0-1-1.7c0-1.7,1.2-2.2,1.2-2.2l15.9-0.2c0,0,1.3-0.3,1.3-1.9
					c0-1.7-1.3-1.8-1.3-1.8l-15.6,0.2c0,0-1.5,0.3-1.5-1.4c0-1.7,1.6-2,1.6-2l15.5-0.2c0,0,1.1,0.5,1.1-1.5c0-1.9-1.3-2.1-1.3-2.1
					l-15.3,0.2c0,0-1.7,0-1.7-1.8c0-1.8,1.7-2,1.7-2l15.4-0.2c0,0,1.3,0.3,1.3-1.4c0-1.7-1.3-1.9-1.3-1.9l-15.4,0.2
					c0,0-1.6,0-1.6-1.7c0-1.7,1.6-1.8,1.6-1.8l15.6-0.2l1.1-0.4"/>
				<line opacity="0.5" fill="none" stroke="#7A726F" stroke-width="0.5324" x1="326" y1="367.7" x2="343.8" y2="364.2"/>
				<line opacity="0.5" fill="none" stroke="#7A726F" stroke-width="0.5324" x1="326" y1="364.5" x2="343.8" y2="361"/>
				<line opacity="0.5" fill="none" stroke="#7A726F" stroke-width="0.5324" x1="326" y1="360.4" x2="343.8" y2="356.9"/>
				<line opacity="0.5" fill="none" stroke="#7A726F" stroke-width="0.5324" x1="326" y1="356.9" x2="343.8" y2="353.4"/>
				<line opacity="0.5" fill="none" stroke="#7A726F" stroke-width="0.5324" x1="326" y1="353.9" x2="343.8" y2="350.4"/>
				<line opacity="0.5" fill="none" stroke="#7A726F" stroke-width="0.5324" x1="326" y1="350.4" x2="343.8" y2="346.9"/>
				<line opacity="0.5" fill="none" stroke="#7A726F" stroke-width="0.5324" x1="326" y1="346.7" x2="343.8" y2="343.2"/>
				<line opacity="0.5" fill="none" stroke="#7A726F" stroke-width="0.5324" x1="326" y1="342.8" x2="343.8" y2="339.3"/>
				<line opacity="0.5" fill="none" stroke="#7A726F" stroke-width="0.5324" x1="326" y1="339.2" x2="343.8" y2="335.7"/>
				<line opacity="0.5" fill="none" stroke="#7A726F" stroke-width="0.5324" x1="326" y1="335.7" x2="343.7" y2="332.2"/>
				<line opacity="0.5" fill="none" stroke="#7A726F" stroke-width="0.5324" x1="326" y1="332.2" x2="343.7" y2="328.7"/>
				<line opacity="0.5" fill="none" stroke="#7A726F" stroke-width="0.5324" x1="325.9" y1="328.2" x2="343.7" y2="324.7"/>
				<line opacity="0.5" fill="none" stroke="#7A726F" stroke-width="0.5324" x1="325.9" y1="324.5" x2="343.7" y2="321"/>
			</g>
			<g>
				<line opacity="0.5" fill="none" stroke="#7A726F" stroke-width="0.5324" x1="327.3" y1="319.4" x2="327.2" y2="269.5"/>
				<line opacity="0.5" fill="none" stroke="#7A726F" stroke-width="0.5324" x1="343.4" y1="319.2" x2="343.2" y2="269.3"/>
				<line opacity="0.5" fill="none" stroke="#7A726F" stroke-width="0.5324" x1="332.7" y1="319.3" x2="332.5" y2="269.4"/>
				<line opacity="0.5" fill="none" stroke="#7A726F" stroke-width="0.5324" x1="338" y1="319.2" x2="337.8" y2="269.4"/>
				<path opacity="0.5" fill="none" stroke="#7A726F" stroke-width="0.5324" d="M325.7,269.3c0,1.6,1.5,1.7,1.5,1.7l15.9-0.3
					c0,0,1-0.7,1.1,1.2c0,1.9-1.1,2.3-1.1,2.3l-16,0.3c0,0-1.2-0.1-1.1,1.6c0,1.7,1.4,1.9,1.4,1.9l15.8-0.3c0,0,1.1,0.1,1.2,1.8
					c0,1.7-1.4,1.8-1.4,1.8l-15.9,0.3c0,0-1,0.3-1,1.7c0,1.5,1.2,1.9,1.2,1.9l16.2-0.3c0,0,1,0,1,1.7c0,1.8-1,2.1-1,2.1l-16.2,0.3
					c0,0-1.3-0.1-1.3,1.8c0,1.9,1.5,1.9,1.5,1.9l15.9-0.2c0,0,1,0,1,1.7c0,1.7-1.2,2.2-1.2,2.2l-15.9,0.2c0,0-1.3,0.3-1.3,2
					c0,1.7,1.3,1.8,1.3,1.8l15.6-0.2c0,0,1.5-0.3,1.5,1.4c0,1.7-1.6,2-1.6,2l-15.5,0.2c0,0-1.1-0.5-1.1,1.5c0,1.9,1.3,2.1,1.3,2.1
					l15.3-0.2c0,0,1.7,0,1.7,1.8c0,1.8-1.7,2-1.7,2l-15.3,0.2c0,0-1.3-0.3-1.3,1.4c0,1.7,1.3,1.9,1.3,1.9l15.4-0.2
					c0,0,1.6,0,1.6,1.7c0,1.7-1.6,1.8-1.6,1.8l-15.6,0.2l-1.2,0.4"/>
				<path opacity="0.5" fill="none" stroke="#7A726F" stroke-width="0.5324" d="M344.4,319c0-1.6-1.5-1.7-1.5-1.7l-15.9,0.2
					c0,0-1,0.7-1-1.2c0-1.9,1.1-2.3,1.1-2.3l16-0.2c0,0,1.1,0.1,1.1-1.6c0-1.7-1.4-1.9-1.4-1.9l-15.7,0.2c0,0-1.2-0.1-1.2-1.8
					c0-1.7,1.4-1.8,1.4-1.8l15.9-0.2c0,0,1-0.3,1-1.7c0-1.4-1.1-1.9-1.1-1.9l-16.2,0.3c0,0-1,0-1-1.7c0-1.8,1-2.1,1-2.1l16.2-0.3
					c0,0,1.3,0.1,1.3-1.8c0-1.9-1.5-1.9-1.5-1.9l-15.9,0.3c0,0-1,0-1-1.7c0-1.7,1.1-2.2,1.1-2.2l15.9-0.2c0,0,1.3-0.3,1.3-1.9
					c0-1.7-1.3-1.8-1.3-1.8l-15.6,0.2c0,0-1.5,0.3-1.5-1.4c0-1.7,1.6-2,1.6-2l15.5-0.2c0,0,1.1,0.5,1.1-1.5c0-1.9-1.3-2.1-1.3-2.1
					l-15.3,0.2c0,0-1.7,0-1.7-1.8c0-1.8,1.7-2,1.7-2l15.3-0.2c0,0,1.3,0.3,1.3-1.4c0-1.7-1.3-1.9-1.3-1.9l-15.4,0.2
					c0,0-1.6,0-1.6-1.7c0-1.7,1.6-1.8,1.6-1.8l15.6-0.3l1.2-0.4"/>
				<line opacity="0.5" fill="none" stroke="#7A726F" stroke-width="0.5324" x1="325.9" y1="317.6" x2="343.7" y2="314"/>
				<line opacity="0.5" fill="none" stroke="#7A726F" stroke-width="0.5324" x1="325.9" y1="314.3" x2="343.7" y2="310.8"/>
				<line opacity="0.5" fill="none" stroke="#7A726F" stroke-width="0.5324" x1="325.9" y1="310.3" x2="343.7" y2="306.7"/>
				<line opacity="0.5" fill="none" stroke="#7A726F" stroke-width="0.5324" x1="325.9" y1="306.8" x2="343.7" y2="303.3"/>
				<line opacity="0.5" fill="none" stroke="#7A726F" stroke-width="0.5324" x1="325.9" y1="303.7" x2="343.6" y2="300.2"/>
				<line opacity="0.5" fill="none" stroke="#7A726F" stroke-width="0.5324" x1="325.9" y1="300.2" x2="343.6" y2="296.7"/>
				<line opacity="0.5" fill="none" stroke="#7A726F" stroke-width="0.5324" x1="325.8" y1="296.6" x2="343.6" y2="293.1"/>
				<line opacity="0.5" fill="none" stroke="#7A726F" stroke-width="0.5324" x1="325.8" y1="292.6" x2="343.6" y2="289.1"/>
				<line opacity="0.5" fill="none" stroke="#7A726F" stroke-width="0.5324" x1="325.8" y1="289" x2="343.6" y2="285.5"/>
				<line opacity="0.5" fill="none" stroke="#7A726F" stroke-width="0.5324" x1="325.8" y1="285.5" x2="343.6" y2="282"/>
				<line opacity="0.5" fill="none" stroke="#7A726F" stroke-width="0.5324" x1="325.8" y1="282.1" x2="343.6" y2="278.5"/>
				<line opacity="0.5" fill="none" stroke="#7A726F" stroke-width="0.5324" x1="325.8" y1="278.1" x2="343.6" y2="274.5"/>
				<line opacity="0.5" fill="none" stroke="#7A726F" stroke-width="0.5324" x1="325.8" y1="274.4" x2="343.5" y2="270.8"/>
			</g>
			<g>
				<line opacity="0.5" fill="none" stroke="#7A726F" stroke-width="0.5324" x1="327.1" y1="269.3" x2="326.9" y2="219.4"/>
				<line opacity="0.5" fill="none" stroke="#7A726F" stroke-width="0.5324" x1="343.2" y1="269" x2="343" y2="219.1"/>
				<line opacity="0.5" fill="none" stroke="#7A726F" stroke-width="0.5324" x1="332.5" y1="269.2" x2="332.3" y2="219.3"/>
				<line opacity="0.5" fill="none" stroke="#7A726F" stroke-width="0.5324" x1="337.8" y1="269.1" x2="337.6" y2="219.2"/>
				<path opacity="0.5" fill="none" stroke="#7A726F" stroke-width="0.5324" d="M325.5,219.2c0,1.6,1.5,1.7,1.5,1.7l15.9-0.3
					c0,0,1-0.7,1,1.2c0,1.9-1.1,2.3-1.1,2.3l-16,0.3c0,0-1.2-0.1-1.1,1.6c0,1.7,1.4,1.9,1.4,1.9l15.7-0.3c0,0,1.2,0.1,1.2,1.8
					c0,1.7-1.4,1.8-1.4,1.8l-15.9,0.3c0,0-1,0.3-1,1.7c0,1.4,1.2,1.9,1.2,1.9l16.2-0.3c0,0,1,0,1,1.7c0,1.8-1,2.1-1,2.1l-16.2,0.3
					c0,0-1.3-0.1-1.3,1.8c0,1.9,1.5,1.9,1.5,1.9l15.9-0.3c0,0,1,0,1,1.7c0,1.7-1.1,2.2-1.1,2.2l-15.9,0.3c0,0-1.3,0.3-1.3,2
					c0,1.7,1.3,1.8,1.3,1.8l15.6-0.3c0,0,1.5-0.3,1.5,1.4c0,1.7-1.6,1.9-1.6,1.9l-15.5,0.3c0,0-1.2-0.5-1.1,1.5
					c0,1.9,1.3,2.2,1.3,2.2l15.3-0.3c0,0,1.7,0,1.7,1.8c0,1.8-1.7,2-1.7,2l-15.4,0.3c0,0-1.3-0.3-1.3,1.4c0,1.7,1.3,1.9,1.3,1.9
					l15.4-0.2c0,0,1.6,0,1.6,1.7c0,1.7-1.6,1.8-1.6,1.8l-15.6,0.3l-1.2,0.4"/>
				<path opacity="0.5" fill="none" stroke="#7A726F" stroke-width="0.5324" d="M344.2,268.8c0-1.6-1.5-1.7-1.5-1.7l-15.9,0.3
					c0,0-1,0.7-1-1.2c0-1.9,1.1-2.3,1.1-2.3l16-0.3c0,0,1.2,0.1,1.1-1.6c0-1.7-1.4-1.9-1.4-1.9l-15.8,0.3c0,0-1.1-0.1-1.2-1.8
					c0-1.7,1.4-1.8,1.4-1.8l15.9-0.3c0,0,1-0.3,1-1.7c0-1.4-1.2-1.9-1.2-1.9l-16.2,0.3c0,0-1,0-1-1.7c0-1.8,1-2.1,1-2.1l16.2-0.3
					c0,0,1.3,0.1,1.3-1.8c0-1.9-1.5-1.9-1.5-1.9l-15.9,0.3c0,0-1,0-1-1.7c0-1.7,1.2-2.2,1.2-2.2l15.9-0.3c0,0,1.3-0.3,1.3-1.9
					c0-1.7-1.3-1.8-1.3-1.8l-15.6,0.3c0,0-1.5,0.3-1.5-1.4c0-1.7,1.6-2,1.6-2l15.5-0.3c0,0,1.1,0.5,1.1-1.5c0-1.9-1.3-2.1-1.3-2.1
					l-15.3,0.3c0,0-1.7,0-1.7-1.8c0-1.8,1.7-2,1.7-2l15.3-0.3c0,0,1.3,0.3,1.3-1.4c0-1.7-1.3-1.9-1.3-1.9l-15.4,0.3
					c0,0-1.6,0-1.6-1.7c0-1.7,1.6-1.8,1.6-1.8l15.6-0.3l1.2-0.4"/>
				<line opacity="0.5" fill="none" stroke="#7A726F" stroke-width="0.5324" x1="325.7" y1="267.4" x2="343.5" y2="263.9"/>
				<line opacity="0.5" fill="none" stroke="#7A726F" stroke-width="0.5324" x1="325.7" y1="264.2" x2="343.5" y2="260.7"/>
				<line opacity="0.5" fill="none" stroke="#7A726F" stroke-width="0.5324" x1="325.7" y1="260.1" x2="343.5" y2="256.6"/>
				<line opacity="0.5" fill="none" stroke="#7A726F" stroke-width="0.5324" x1="325.7" y1="256.6" x2="343.5" y2="253.1"/>
				<line opacity="0.5" fill="none" stroke="#7A726F" stroke-width="0.5324" x1="325.7" y1="253.6" x2="343.5" y2="250"/>
				<line opacity="0.5" fill="none" stroke="#7A726F" stroke-width="0.5324" x1="325.7" y1="250.1" x2="343.5" y2="246.6"/>
				<line opacity="0.5" fill="none" stroke="#7A726F" stroke-width="0.5324" x1="325.7" y1="246.5" x2="343.4" y2="242.9"/>
				<line opacity="0.5" fill="none" stroke="#7A726F" stroke-width="0.5324" x1="325.6" y1="242.5" x2="343.4" y2="239"/>
				<line opacity="0.5" fill="none" stroke="#7A726F" stroke-width="0.5324" x1="325.6" y1="238.9" x2="343.4" y2="235.4"/>
				<line opacity="0.5" fill="none" stroke="#7A726F" stroke-width="0.5324" x1="325.6" y1="235.4" x2="343.4" y2="231.9"/>
				<line opacity="0.5" fill="none" stroke="#7A726F" stroke-width="0.5324" x1="325.6" y1="231.9" x2="343.4" y2="228.4"/>
				<line opacity="0.5" fill="none" stroke="#7A726F" stroke-width="0.5324" x1="325.6" y1="228" x2="343.4" y2="224.4"/>
				<line opacity="0.5" fill="none" stroke="#7A726F" stroke-width="0.5324" x1="325.6" y1="224.2" x2="343.3" y2="220.7"/>
			</g>
		</g>
		<path opacity="0.5" fill="none" stroke="#3C3533" stroke-width="0.647" stroke-dasharray="2.5879,2.5879" d="M543,173.1
			c0,0-7.8-7.1-54.2-4.7c-63.4,3.3-188.1,14.4-216.8,15.5C243.3,185,182,196.8,170.4,198s-32.5,11.7-37.5,12.8
			c-5,1.1-17.3,7.5-17.3,7.5"/>
		<path opacity="0.5" fill="none" stroke="#3C3533" stroke-width="0.647" stroke-dasharray="2.5879,2.5879" d="M550.9,218.7
			c0,0-2.5-10.5-66-10c-63.5,0.5-193.1,15.8-221.8,16.2c-28.7,0.5-81.2,7.2-92.8,8.1s-32.8,11-37.8,11.9c-5,1-9.6,3.5-9.6,3.5"/>
		<path opacity="0.5" fill="none" stroke="#3C3533" stroke-width="0.6572" stroke-dasharray="2.6289,2.6289" d="M493.1,827.6
			c0,0-48.6,8.2-69.7,5.6c-21-2.6-65.5-9.4-98.7-10.3s-104.8,0.4-114.6-1.3s-55.7-7.7-70.6-11.2c-15-3.4-27.6-4.7-27.6-4.7"/>
		<path opacity="0.5" fill="none" stroke="#3C3533" stroke-width="0.6572" stroke-dasharray="2.6289,2.6289" d="M493.1,837.9
			c0,0-48.6,8.2-69.7,5.6c-21-2.6-65.5-9.4-98.7-10.3s-104.8,0.4-114.6-1.3s-55.7-7.7-70.6-11.2s-27.6-4.7-27.6-4.7"/>
		<path opacity="0.5" fill="none" stroke="#3C3533" stroke-width="0.5285" stroke-dasharray="2.1138,2.1138" d="M591.5,776.6
			c0,0-4.5,9-15.7,9c-11.2,0-35.4,1.7-48.1,3.4c-12.7,1.7-29.3,3.9-29.3,3.9"/>
		<path opacity="0.5" fill="none" stroke="#3C3533" stroke-width="0.5285" stroke-dasharray="2.1138,2.1138" d="M591.5,786.9
			c0,0-4.5,9-15.7,9c-11.2,0-35.4,1.7-48.1,3.4c-12.7,1.7-29.3,3.9-29.3,3.9"/>
	</g>
</g>
<g id="CUSTOM"></g>	
<g id="SHADING">
	<polygon points="494.2,838 494.2,838 494.3,837 	"/>
	<g opacity="2.000000e-02">
		<path d="M634.7,467.8c0,0,0,0.1,0,0.1C634.7,467.8,634.7,467.8,634.7,467.8 M634.7,467.8L634.7,467.8L634.7,467.8L634.7,467.8
			 M634.7,467.4C634.7,467.4,634.7,467.5,634.7,467.4L634.7,467.4C634.7,467.5,634.7,467.4,634.7,467.4"/>
		<path d="M632.3,436.4c0.2,1.2,0.4,2.4,0.6,3.6C632.7,438.8,632.5,437.6,632.3,436.4"/>
		<path d="M633.6,445.6c0.1,0.4,0.1,0.8,0.1,1.2C633.7,446.4,633.7,446,633.6,445.6"/>
		<polyline points="634,482.3 634,482.4 634,482.4 634,482.3 		"/>
		<polyline points="634.5,474.9 634.5,475.1 634.5,474.9 		"/>
		<path d="M623.2,403.4c4.3,17.5,6.9,43.2,10.8,78.9l0,0c0.2-2.4,0.3-4.9,0.4-7.3l0-0.1c0.1-2.4,0.2-4.7,0.2-7.1c0,0,0-0.1,0-0.1
			l0,0c0-0.1,0-0.2,0-0.3l0,0c0,0,0,0,0-0.1c0-2.2,0-4.4,0-6.6c0-0.3,0-0.7,0-1c-0.1-2-0.1-4-0.3-6c0-0.6-0.1-1.1-0.1-1.7
			c-0.1-1.8-0.3-3.5-0.4-5.3l0,0c0-0.4-0.1-0.8-0.1-1.2c-0.1-0.4-0.1-0.8-0.2-1.2c-0.2-1.5-0.3-2.9-0.6-4.3l0,0
			c-0.2-1.2-0.4-2.4-0.6-3.6l0,0c-0.2-1-0.3-2.1-0.6-3.1c-0.5-2.2-1-4.4-1.5-6.5c-1-3.8-2.1-7.5-3.2-11.3c-0.1-0.2-0.1-0.4-0.2-0.5
			C625.7,411.1,624.5,407.3,623.2,403.4"/>
		<path d="M578.1,651.5c-0.2,0.4-0.4,0.8-0.6,1.2C577.7,652.3,577.9,651.9,578.1,651.5"/>
		<path d="M576.2,655.4c-0.1,0.3-0.3,0.6-0.4,0.9C576,656,576.1,655.7,576.2,655.4"/>
		<path d="M579.9,647.8c-0.2,0.4-0.5,0.9-0.7,1.3C579.5,648.7,579.7,648.3,579.9,647.8"/>
		<path d="M570.6,673.6c0,0.3-0.1,0.7-0.1,1C570.5,674.3,570.6,673.9,570.6,673.6"/>
		<path d="M571.2,670.1c-0.1,0.4-0.2,0.8-0.2,1.2C571,671,571.1,670.5,571.2,670.1"/>
		<path d="M573.1,663.3c-0.1,0.4-0.2,0.8-0.4,1.1C572.9,664,573,663.7,573.1,663.3"/>
		<path d="M588.5,632.7c-0.3,0.5-0.6,1-0.9,1.5C587.9,633.7,588.2,633.2,588.5,632.7"/>
		<path d="M590.9,628.7c-2.3,3.1-4.4,5.3-5.9,6.5c-12.9,9.6-34,30.5-59.7,59.2C499.5,723.1,494,838,494,838l0.2,0l0.1-1
			c0,0,13.3,1,29,1c7.9,0,16.3-0.2,24-1c23-2.2,53-8.7,53-8.7s-30-133.1-30-150.6c0-1,0.1-2.1,0.2-3.1c0-0.3,0.1-0.7,0.1-1
			c0.1-0.7,0.2-1.5,0.3-2.2c0.1-0.4,0.2-0.8,0.2-1.2c0.2-0.7,0.3-1.4,0.5-2.2c0.1-0.4,0.2-0.8,0.3-1.2c0.2-0.8,0.5-1.5,0.7-2.3
			c0.1-0.4,0.2-0.8,0.4-1.1c0.3-0.9,0.7-1.9,1-2.9c0.1-0.2,0.1-0.4,0.2-0.6c0.5-1.2,1-2.4,1.5-3.5c0.1-0.3,0.3-0.6,0.4-0.9
			c0.4-0.9,0.8-1.8,1.2-2.7c0.2-0.4,0.4-0.8,0.6-1.2c0.4-0.8,0.8-1.6,1.2-2.3c0.2-0.4,0.4-0.9,0.7-1.3c0.4-0.8,0.8-1.5,1.2-2.3
			c0.2-0.4,0.5-0.9,0.7-1.3c0.4-0.8,0.9-1.6,1.3-2.4c0.2-0.4,0.4-0.7,0.6-1.1c0.6-1.1,1.3-2.2,1.9-3.3c0.2-0.4,0.5-0.8,0.7-1.3
			c0.4-0.7,0.8-1.4,1.2-2c0.4-0.6,0.7-1.2,1.1-1.8c0.3-0.4,0.5-0.9,0.8-1.3C589.9,630.3,590.4,629.6,590.9,628.7L590.9,628.7"/>
		<path d="M210,309.1c0,0-20.1,70.3-31.1,105.4c-2.7,8.6-7.5,17.4-13.1,25.7c2.8,17.3,4.4,34.2,3.6,47.7c-0.6,9.2-3.5,25.4-7.8,45.2
			c4.1-12.3,22.1-68.1,31.4-103.4C202.9,391.7,210,309.1,210,309.1"/>
	</g>
</g>
</svg>
