<?xml version="1.0" encoding="utf-8"?>
<!-- Generator: Adobe Illustrator 25.3.1, SVG Export Plug-In . SVG Version: 6.00 Build 0)  -->
<svg version="1.1" xmlns="http://www.w3.org/2000/svg" xmlns:xlink="http://www.w3.org/1999/xlink" x="0px" y="0px"
	 viewBox="0 0 620.6 1018.2" enable-background="new 0 0 757.6 1018.2" xml:space="preserve">
<g id="MASKR">
<g id="BODY">
	<path fill="#FFFFFF" stroke="#897F76" stroke-width="0.5" stroke-miterlimit="10" d="M213.9,143c0,0,58.1-3.1,233.7,13.7
		c170.3,16.3,189.2,35.9,189.2,35.9s1.4,19.1-0.9,30.1c-2.3,11-8.4,24.8-8.4,24.8s-11.6,79-20.9,105.4c-9.3,26.3-25.5,90-23.2,127.3
		c2.3,37.3,44,190.9,51,226.1c7,35.1,7,79,7,79v46.1c0,0-13.9,17.5-139.8,30.5c-25.8,2.7-52.8,1-82.1,3.5
		c-121.3,10.4-160.7-3.2-160.7-3.2l-2.3-30.7c0,0-30.1,2.2-53.3,0s-53.3-8.8-53.3-8.8s30.1-133.9,30.1-151.4s-16.2-41.7-25.5-57.1
		s-53.3-125.1-34.8-195.3s62.6-144.9,67.2-162.4c4.6-17.6,16.2-59.3,16.2-59.3s-0.3-11.1,1.8-26C206.4,162.3,213.9,143,213.9,143z"
		/>
</g>
	</g>

<g id="LEG_STRIPE2">
	<g>
		<path fill="#897F76" d="M423.7,567.9l217.5,263.5c-0.6,0.6-3.6,3.2-12.7,6.8L423.7,594.3V567.9z"/>
	</g>
</g>
<g id="LEG_STRIPE1">
	<g>
		<g>
			<path d="M423.7,480.7l216.5,273.5c1.1,17.7,1.1,30.9,1.1,30.9v45.9L423.7,567.2V480.7z"/>
			<path d="M423.7,594.9l204.5,243.4c-9,3.5-24,8-48.4,12.6L423.7,678.3V594.9z"/>
		</g>
	</g>
</g>
<g id="STITCHING">
	<g>
		<g opacity="0.5">
			<g>
				<path opacity="0.5" fill="none" stroke="#7A726F" stroke-width="0.5324" d="M418.8,865c1.8-14.9,2.6-33.1,3.4-49.4"/>
				<path opacity="0.5" fill="none" stroke="#7A726F" stroke-width="0.5324" d="M402.8,865.1c1.6-18.4,2.4-33.5,3.2-50.6"/>
				<path opacity="0.5" fill="none" stroke="#7A726F" stroke-width="0.5324" d="M413.4,865c1.7-16,2.5-33.2,3.3-49.8"/>
				<path opacity="0.5" fill="none" stroke="#7A726F" stroke-width="0.5324" d="M408.1,865.1c1.6-17.2,2.5-33.4,3.2-50.2"/>
				<path opacity="0.5" fill="none" stroke="#7A726F" stroke-width="0.5324" d="M423.5,815.3c-0.1,1.6-1.6,1.6-1.6,1.6l-15.9-1
					c0,0-1-0.8-1.1,1.1c-0.1,1.9,1,2.4,1,2.4l16.1,1c0,0,1.2-0.1,1.1,1.7c-0.1,1.7-1.5,1.8-1.5,1.8l-15.8-1c0,0-1.2,0-1.2,1.7
					c-0.1,1.7,1.3,1.9,1.3,1.9l15.9,1.1c0,0,1,0.3,0.9,1.8c-0.1,1.5-1.3,1.9-1.3,1.9l-16.3-1.1c0,0-1-0.1-1.1,1.6
					c-0.1,1.8,0.9,2.1,0.9,2.1l16.3,1.2c0,0,1.3,0,1.2,1.9c-0.1,1.9-1.6,1.8-1.6,1.8l-15.9-1.2c0,0-1-0.1-1.1,1.6
					c-0.1,1.7,1,2.3,1,2.3l15.9,1.3c0,0,1.2,0.4,1.1,2.1c-0.1,1.7-1.4,1.7-1.4,1.7l-15.7-1.3c0,0-1.5-0.4-1.6,1.3
					c-0.1,1.7,1.5,2.1,1.5,2.1l15.6,1.4c0,0,1.2-0.4,1,1.6c-0.1,2-1.4,2.1-1.4,2.1l-15.3-1.5c0,0-1.7-0.2-1.9,1.6
					c-0.1,1.8,1.6,2.1,1.6,2.1l15.4,1.6c0,0,1.3-0.2,1.2,1.5c-0.2,1.7-1.5,1.8-1.5,1.8l-15.4-1.7c0,0-1.6-0.2-1.8,1.5
					c-0.2,1.6,1.4,1.9,1.4,1.9l15.6,2l1.1,0.5"/>
				<path opacity="0.5" fill="none" stroke="#7A726F" stroke-width="0.5324" d="M401.7,864.7c0.3-3.5,1.7-2,1.7-2.4l15.9,2
					c0,0,1,0.9,1.2-1.1c0.2-2-0.9-2.5-0.9-2.5l-16-1.8c0,0-1.2,0-1-1.6c0.1-1.6,1.5-1.8,1.5-1.8l15.8,1.6c0,0,1.2,0,1.3-1.7
					c0.1-1.7-1.2-2-1.2-2l-15.9-1.5c0,0-1-0.3-0.9-1.8c0.1-1.4,1.3-1.8,1.3-1.8l16.3,1.4c0,0,1,0.1,1.2-1.6c0.1-1.8-0.9-2.2-0.9-2.2
					l-16.3-1.4c0,0-1.3,0-1.2-1.9c0.1-1.9,1.6-1.8,1.6-1.8l15.9,1.3c0,0,1,0.1,1.2-1.6c0.1-1.7-1-2.3-1-2.3l-15.9-1.2
					c0,0-1.2-0.3-1.2-2c0.1-1.7,1.4-1.7,1.4-1.7l15.7,1.1c0,0,1.5,0.4,1.6-1.4c0.1-1.7-1.5-2.1-1.5-2.1l-15.6-1.1
					c0,0-1.2,0.4-1.1-1.5c0.1-1.9,1.4-2.1,1.4-2.1l15.4,1c0,0,1.7,0.1,1.8-1.7c0.1-1.8-1.6-2.1-1.6-2.1l-15.4-1c0,0-1.3,0.2-1.3-1.5
					c0.1-1.7,1.4-1.9,1.4-1.9l15.5,1c0,0,1.6,0.1,1.7-1.6c0.1-1.7-1.5-1.9-1.5-1.9l-15.7-0.9l-1.1-0.4"/>
				<line opacity="0.5" fill="none" stroke="#7A726F" stroke-width="0.5324" x1="420.4" y1="864.3" x2="402.9" y2="859"/>
				<line opacity="0.5" fill="none" stroke="#7A726F" stroke-width="0.5324" x1="420.7" y1="861" x2="403.2" y2="855.8"/>
				<line opacity="0.5" fill="none" stroke="#7A726F" stroke-width="0.5324" x1="421.1" y1="856.8" x2="403.5" y2="851.8"/>
				<line opacity="0.5" fill="none" stroke="#7A726F" stroke-width="0.5324" x1="421.4" y1="853.3" x2="403.8" y2="848.4"/>
				<line opacity="0.5" fill="none" stroke="#7A726F" stroke-width="0.5324" x1="421.6" y1="850.2" x2="404" y2="845.3"/>
				<line opacity="0.5" fill="none" stroke="#7A726F" stroke-width="0.5324" x1="421.8" y1="846.6" x2="404.2" y2="841.9"/>
				<line opacity="0.5" fill="none" stroke="#7A726F" stroke-width="0.5324" x1="422.1" y1="843" x2="404.4" y2="838.3"/>
				<line opacity="0.5" fill="none" stroke="#7A726F" stroke-width="0.5324" x1="422.3" y1="838.9" x2="404.7" y2="834.3"/>
				<line opacity="0.5" fill="none" stroke="#7A726F" stroke-width="0.5324" x1="422.5" y1="835.3" x2="404.9" y2="830.7"/>
				<line opacity="0.5" fill="none" stroke="#7A726F" stroke-width="0.5324" x1="422.7" y1="831.7" x2="405" y2="827.3"/>
				<line opacity="0.5" fill="none" stroke="#7A726F" stroke-width="0.5324" x1="422.9" y1="828.2" x2="405.2" y2="823.8"/>
				<line opacity="0.5" fill="none" stroke="#7A726F" stroke-width="0.5324" x1="423.1" y1="824.2" x2="405.4" y2="819.8"/>
				<line opacity="0.5" fill="none" stroke="#7A726F" stroke-width="0.5324" x1="423.3" y1="820.4" x2="405.6" y2="816.1"/>
			</g>
			<g>
				<line opacity="0.5" fill="none" stroke="#7A726F" stroke-width="0.5324" x1="422.1" y1="815.2" x2="423.8" y2="765"/>
				<line opacity="0.5" fill="none" stroke="#7A726F" stroke-width="0.5324" x1="406" y1="814.3" x2="407.6" y2="764.4"/>
				<line opacity="0.5" fill="none" stroke="#7A726F" stroke-width="0.5324" x1="416.8" y1="814.9" x2="418.4" y2="764.7"/>
				<line opacity="0.5" fill="none" stroke="#7A726F" stroke-width="0.5324" x1="411.4" y1="814.6" x2="413" y2="764.6"/>
				<path opacity="0.5" fill="none" stroke="#7A726F" stroke-width="0.5324" d="M425.2,764.7c0,1.6-1.5,1.6-1.5,1.6l-16-0.6
					c0,0-1-0.8-1.1,1.2c0,1.9,1.1,2.3,1.1,2.3l16.1,0.6c0,0,1.2-0.1,1.1,1.6c0,1.7-1.4,1.9-1.4,1.9l-15.8-0.6c0,0-1.2,0.1-1.2,1.8
					c0,1.7,1.3,1.9,1.3,1.9l16,0.7c0,0,1,0.3,1,1.7c0,1.5-1.2,1.9-1.2,1.9l-16.3-0.7c0,0-1,0-1.1,1.6c-0.1,1.8,1,2.1,1,2.1l16.3,0.7
					c0,0,1.3-0.1,1.2,1.9c-0.1,1.9-1.6,1.9-1.6,1.9l-15.9-0.7c0,0-1,0-1.1,1.6c0,1.7,1.1,2.2,1.1,2.2l16,0.8c0,0,1.3,0.3,1.2,2
					c-0.1,1.7-1.3,1.8-1.3,1.8l-15.7-0.8c0,0-1.5-0.3-1.5,1.4c-0.1,1.7,1.5,2,1.5,2l15.6,0.8c0,0,1.2-0.4,1.1,1.5
					c-0.1,1.9-1.3,2.1-1.3,2.1l-15.4-0.8c0,0-1.7-0.1-1.8,1.7c-0.1,1.8,1.7,2.1,1.7,2.1l15.4,0.8c0,0,1.3-0.2,1.3,1.5
					c-0.1,1.7-1.4,1.9-1.4,1.9l-15.5-0.9c0,0-1.6-0.1-1.7,1.6c-0.1,1.7,1.5,1.9,1.5,1.9l15.7,0.9l1.2,0.4"/>
				<path opacity="0.5" fill="none" stroke="#7A726F" stroke-width="0.5324" d="M405,814.1c0.1-1.6,1.6-1.6,1.6-1.6l15.9,0.9
					c0,0,1,0.8,1.1-1.2c0.1-1.9-1.1-2.4-1.1-2.4l-16.1-0.9c0,0-1.2,0.1-1.1-1.6c0.1-1.7,1.5-1.9,1.5-1.9l15.8,0.9
					c0,0,1.2-0.1,1.2-1.8c0.1-1.7-1.3-1.9-1.3-1.9l-15.9-0.9c0,0-1-0.3-1-1.7c0.1-1.4,1.2-1.9,1.2-1.9l16.3,0.8c0,0,1,0.1,1.1-1.6
					c0.1-1.8-1-2.1-1-2.1l-16.3-0.8c0,0-1.3,0.1-1.2-1.9c0.1-1.9,1.6-1.9,1.6-1.9l15.9,0.8c0,0,1,0.1,1.1-1.7
					c0.1-1.7-1.1-2.2-1.1-2.2l-15.9-0.7c0,0-1.3-0.3-1.2-2c0.1-1.7,1.3-1.8,1.3-1.8l15.7,0.7c0,0,1.5,0.3,1.5-1.4
					c0.1-1.7-1.6-2-1.6-2l-15.6-0.7c0,0-1.2,0.4-1.1-1.5c0-1.9,1.3-2.1,1.3-2.1l15.4,0.6c0,0,1.7,0.1,1.8-1.7
					c0.1-1.8-1.7-2.1-1.7-2.1l-15.4-0.6c0,0-1.3,0.3-1.3-1.4c0-1.7,1.3-1.9,1.3-1.9l15.5,0.6c0,0,1.6,0.1,1.7-1.6
					c0-1.7-1.6-1.9-1.6-1.9l-15.7-0.6l-1.1-0.4"/>
				<line opacity="0.5" fill="none" stroke="#7A726F" stroke-width="0.5324" x1="423.6" y1="813.5" x2="405.9" y2="809.2"/>
				<line opacity="0.5" fill="none" stroke="#7A726F" stroke-width="0.5324" x1="423.8" y1="810.2" x2="406" y2="805.9"/>
				<line opacity="0.5" fill="none" stroke="#7A726F" stroke-width="0.5324" x1="423.9" y1="806.1" x2="406.2" y2="801.9"/>
				<line opacity="0.5" fill="none" stroke="#7A726F" stroke-width="0.5324" x1="424.1" y1="802.6" x2="406.3" y2="798.4"/>
				<line opacity="0.5" fill="none" stroke="#7A726F" stroke-width="0.5324" x1="424.2" y1="799.5" x2="406.4" y2="795.3"/>
				<line opacity="0.5" fill="none" stroke="#7A726F" stroke-width="0.5324" x1="424.3" y1="796" x2="406.5" y2="791.8"/>
				<line opacity="0.5" fill="none" stroke="#7A726F" stroke-width="0.5324" x1="424.4" y1="792.3" x2="406.6" y2="788.2"/>
				<line opacity="0.5" fill="none" stroke="#7A726F" stroke-width="0.5324" x1="424.5" y1="788.3" x2="406.8" y2="784.2"/>
				<line opacity="0.5" fill="none" stroke="#7A726F" stroke-width="0.5324" x1="424.7" y1="784.7" x2="406.9" y2="780.6"/>
				<line opacity="0.5" fill="none" stroke="#7A726F" stroke-width="0.5324" x1="424.8" y1="781.1" x2="407" y2="777.1"/>
				<line opacity="0.5" fill="none" stroke="#7A726F" stroke-width="0.5324" x1="424.9" y1="777.6" x2="407.1" y2="773.6"/>
				<line opacity="0.5" fill="none" stroke="#7A726F" stroke-width="0.5324" x1="425" y1="773.6" x2="407.2" y2="769.6"/>
				<line opacity="0.5" fill="none" stroke="#7A726F" stroke-width="0.5324" x1="425.1" y1="769.8" x2="407.3" y2="765.9"/>
			</g>
			<g>
				<line opacity="0.5" fill="none" stroke="#7A726F" stroke-width="0.5324" x1="423.8" y1="764.7" x2="424.6" y2="714.4"/>
				<line opacity="0.5" fill="none" stroke="#7A726F" stroke-width="0.5324" x1="407.6" y1="764.1" x2="408.5" y2="714.1"/>
				<line opacity="0.5" fill="none" stroke="#7A726F" stroke-width="0.5324" x1="418.4" y1="764.5" x2="419.3" y2="714.3"/>
				<line opacity="0.5" fill="none" stroke="#7A726F" stroke-width="0.5324" x1="413" y1="764.3" x2="413.9" y2="714.2"/>
				<path opacity="0.5" fill="none" stroke="#7A726F" stroke-width="0.5324" d="M426.1,714.2c0,1.6-1.5,1.7-1.5,1.7l-16-0.4
					c0,0-1-0.7-1.1,1.2c0,1.9,1.1,2.3,1.1,2.3l16.1,0.4c0,0,1.2-0.1,1.1,1.6c0,1.7-1.4,1.9-1.4,1.9l-15.8-0.4c0,0-1.2,0.1-1.2,1.8
					c0,1.7,1.4,1.8,1.4,1.8l16,0.4c0,0,1,0.3,1,1.7c0,1.5-1.2,1.9-1.2,1.9l-16.3-0.4c0,0-1,0-1.1,1.7c0,1.8,1,2.1,1,2.1l16.3,0.5
					c0,0,1.3-0.1,1.3,1.9c0,1.9-1.5,1.9-1.5,1.9l-16-0.5c0,0-1,0-1.1,1.7c0,1.7,1.1,2.2,1.1,2.2l15.9,0.5c0,0,1.3,0.3,1.2,2
					c0,1.7-1.3,1.8-1.3,1.8l-15.7-0.5c0,0-1.5-0.3-1.5,1.4c0,1.7,1.6,2,1.6,2l15.6,0.5c0,0,1.2-0.4,1.1,1.5c0,1.9-1.3,2.1-1.3,2.1
					l-15.4-0.5c0,0-1.7-0.1-1.8,1.8c0,1.8,1.7,2.1,1.7,2.1l15.4,0.5c0,0,1.3-0.3,1.3,1.4c0,1.7-1.3,1.9-1.3,1.9l-15.5-0.6
					c0,0-1.6-0.1-1.7,1.6c0,1.7,1.6,1.9,1.6,1.9l15.7,0.6l1.2,0.4"/>
				<path opacity="0.5" fill="none" stroke="#7A726F" stroke-width="0.5324" d="M406.6,763.9c0-1.6,1.5-1.6,1.5-1.6l15.9,0.6
					c0,0,1,0.8,1.1-1.2c0-2-1.1-2.4-1.1-2.4l-16.1-0.6c0,0-1.2,0.1-1.1-1.6c0-1.7,1.4-1.9,1.4-1.9l15.8,0.6c0,0,1.2-0.1,1.2-1.8
					c0-1.7-1.4-1.9-1.4-1.9l-16-0.5c0,0-1-0.3-1-1.7c0-1.5,1.2-1.9,1.2-1.9l16.3,0.5c0,0,1,0,1.1-1.7c0-1.8-1-2.1-1-2.1l-16.3-0.5
					c0,0-1.3,0.1-1.2-1.9c0-1.9,1.5-1.9,1.5-1.9l16,0.5c0,0,1,0,1.1-1.7c0-1.7-1.1-2.2-1.1-2.2l-16-0.5c0,0-1.3-0.3-1.2-2
					c0-1.7,1.3-1.8,1.3-1.8l15.7,0.4c0,0,1.5,0.3,1.5-1.4c0-1.7-1.6-2-1.6-2l-15.6-0.4c0,0-1.2,0.5-1.1-1.5c0-1.9,1.3-2.1,1.3-2.1
					l15.4,0.4c0,0,1.7,0,1.8-1.8c0-1.8-1.7-2-1.7-2l-15.4-0.4c0,0-1.3,0.3-1.3-1.4c0-1.7,1.3-1.9,1.3-1.9l15.5,0.4
					c0,0,1.6,0,1.6-1.7c0-1.7-1.6-1.9-1.6-1.9l-15.7-0.4l-1.2-0.4"/>
				<line opacity="0.5" fill="none" stroke="#7A726F" stroke-width="0.5324" x1="425.2" y1="762.9" x2="407.4" y2="759"/>
				<line opacity="0.5" fill="none" stroke="#7A726F" stroke-width="0.5324" x1="425.3" y1="759.6" x2="407.5" y2="755.7"/>
				<line opacity="0.5" fill="none" stroke="#7A726F" stroke-width="0.5324" x1="425.4" y1="755.5" x2="407.6" y2="751.6"/>
				<line opacity="0.5" fill="none" stroke="#7A726F" stroke-width="0.5324" x1="425.5" y1="752" x2="407.6" y2="748.1"/>
				<line opacity="0.5" fill="none" stroke="#7A726F" stroke-width="0.5324" x1="425.5" y1="748.9" x2="407.7" y2="745.1"/>
				<line opacity="0.5" fill="none" stroke="#7A726F" stroke-width="0.5324" x1="425.6" y1="745.4" x2="407.8" y2="741.6"/>
				<line opacity="0.5" fill="none" stroke="#7A726F" stroke-width="0.5324" x1="425.7" y1="741.7" x2="407.8" y2="737.9"/>
				<line opacity="0.5" fill="none" stroke="#7A726F" stroke-width="0.5324" x1="425.7" y1="737.7" x2="407.9" y2="734"/>
				<line opacity="0.5" fill="none" stroke="#7A726F" stroke-width="0.5324" x1="425.8" y1="734.1" x2="407.9" y2="730.3"/>
				<line opacity="0.5" fill="none" stroke="#7A726F" stroke-width="0.5324" x1="425.8" y1="730.6" x2="408" y2="726.8"/>
				<line opacity="0.5" fill="none" stroke="#7A726F" stroke-width="0.5324" x1="425.9" y1="727.1" x2="408" y2="723.3"/>
				<line opacity="0.5" fill="none" stroke="#7A726F" stroke-width="0.5324" x1="425.9" y1="723.1" x2="408.1" y2="719.3"/>
				<line opacity="0.5" fill="none" stroke="#7A726F" stroke-width="0.5324" x1="426" y1="719.3" x2="408.1" y2="715.6"/>
			</g>
			<g>
				<line opacity="0.5" fill="none" stroke="#7A726F" stroke-width="0.5324" x1="424.6" y1="714.2" x2="424.9" y2="663.9"/>
				<line opacity="0.5" fill="none" stroke="#7A726F" stroke-width="0.5324" x1="408.5" y1="713.8" x2="408.8" y2="663.7"/>
				<line opacity="0.5" fill="none" stroke="#7A726F" stroke-width="0.5324" x1="419.3" y1="714" x2="419.5" y2="663.9"/>
				<line opacity="0.5" fill="none" stroke="#7A726F" stroke-width="0.5324" x1="413.9" y1="713.9" x2="414.2" y2="663.8"/>
				<path opacity="0.5" fill="none" stroke="#7A726F" stroke-width="0.5324" d="M426.3,663.7c0,1.6-1.5,1.7-1.5,1.7l-16-0.2
					c0,0-1-0.7-1,1.2c0,1.9,1.2,2.3,1.2,2.3l16.1,0.2c0,0,1.2-0.1,1.2,1.6c0,1.7-1.4,1.9-1.4,1.9l-15.8-0.2c0,0-1.2,0.1-1.2,1.8
					c0,1.7,1.4,1.8,1.4,1.8l16,0.3c0,0,1,0.3,1,1.7c0,1.5-1.2,1.9-1.2,1.9l-16.3-0.3c0,0-1,0-1,1.7c0,1.8,1,2.1,1,2.1l16.3,0.3
					c0,0,1.3-0.1,1.3,1.8c0,1.9-1.5,1.9-1.5,1.9l-16-0.3c0,0-1,0-1.1,1.7c0,1.7,1.1,2.2,1.1,2.2l16,0.3c0,0,1.3,0.3,1.3,2
					c0,1.7-1.3,1.8-1.3,1.8l-15.7-0.3c0,0-1.5-0.3-1.5,1.4c0,1.7,1.6,2,1.6,2l15.6,0.3c0,0,1.2-0.5,1.2,1.5c0,1.9-1.3,2.2-1.3,2.2
					l-15.4-0.3c0,0-1.7,0-1.8,1.8c0,1.8,1.7,2,1.7,2l15.4,0.3c0,0,1.3-0.3,1.3,1.4c0,1.7-1.3,1.9-1.3,1.9l-15.5-0.3
					c0,0-1.6,0-1.6,1.7c0,1.7,1.6,1.8,1.6,1.8l15.7,0.4l1.2,0.4"/>
				<path opacity="0.5" fill="none" stroke="#7A726F" stroke-width="0.5324" d="M407.4,713.6c0-1.6,1.5-1.7,1.5-1.7l16,0.4
					c0,0,1,0.7,1-1.2c0-1.9-1.1-2.3-1.1-2.3l-16.1-0.4c0,0-1.2,0.1-1.1-1.6c0-1.7,1.4-1.9,1.4-1.9l15.8,0.3c0,0,1.2-0.1,1.2-1.8
					c0-1.7-1.4-1.8-1.4-1.8l-16-0.3c0,0-1-0.3-1-1.7c0-1.4,1.2-1.9,1.2-1.9l16.3,0.3c0,0,1,0,1.1-1.7c0-1.8-1-2.1-1-2.1l-16.3-0.3
					c0,0-1.3,0.1-1.3-1.8c0-1.9,1.5-1.9,1.5-1.9l16,0.3c0,0,1,0,1.1-1.7c0-1.7-1.1-2.2-1.1-2.2l-16-0.3c0,0-1.3-0.3-1.3-2
					c0-1.7,1.3-1.8,1.3-1.8l15.7,0.3c0,0,1.5,0.3,1.5-1.4c0-1.7-1.6-2-1.6-2l-15.6-0.3c0,0-1.1,0.5-1.1-1.5c0-1.9,1.3-2.1,1.3-2.1
					l15.4,0.3c0,0,1.7,0,1.7-1.8c0-1.8-1.7-2-1.7-2l-15.4-0.2c0,0-1.3,0.3-1.3-1.4c0-1.7,1.3-1.9,1.3-1.9l15.5,0.2
					c0,0,1.6,0,1.6-1.7c0-1.7-1.6-1.8-1.6-1.8l-15.7-0.2l-1.2-0.4"/>
				<line opacity="0.5" fill="none" stroke="#7A726F" stroke-width="0.5324" x1="426.1" y1="712.3" x2="408.2" y2="708.6"/>
				<line opacity="0.5" fill="none" stroke="#7A726F" stroke-width="0.5324" x1="426.1" y1="709.1" x2="408.2" y2="705.4"/>
				<line opacity="0.5" fill="none" stroke="#7A726F" stroke-width="0.5324" x1="426.1" y1="705" x2="408.3" y2="701.3"/>
				<line opacity="0.5" fill="none" stroke="#7A726F" stroke-width="0.5324" x1="426.2" y1="701.5" x2="408.3" y2="697.8"/>
				<line opacity="0.5" fill="none" stroke="#7A726F" stroke-width="0.5324" x1="426.2" y1="698.4" x2="408.3" y2="694.7"/>
				<line opacity="0.5" fill="none" stroke="#7A726F" stroke-width="0.5324" x1="426.2" y1="694.9" x2="408.3" y2="691.2"/>
				<line opacity="0.5" fill="none" stroke="#7A726F" stroke-width="0.5324" x1="426.2" y1="691.2" x2="408.4" y2="687.6"/>
				<line opacity="0.5" fill="none" stroke="#7A726F" stroke-width="0.5324" x1="426.3" y1="687.2" x2="408.4" y2="683.6"/>
				<line opacity="0.5" fill="none" stroke="#7A726F" stroke-width="0.5324" x1="426.3" y1="683.6" x2="408.4" y2="680"/>
				<line opacity="0.5" fill="none" stroke="#7A726F" stroke-width="0.5324" x1="426.3" y1="680" x2="408.4" y2="676.5"/>
				<line opacity="0.5" fill="none" stroke="#7A726F" stroke-width="0.5324" x1="426.3" y1="676.5" x2="408.4" y2="673"/>
				<line opacity="0.5" fill="none" stroke="#7A726F" stroke-width="0.5324" x1="426.3" y1="672.5" x2="408.4" y2="669"/>
				<line opacity="0.5" fill="none" stroke="#7A726F" stroke-width="0.5324" x1="426.3" y1="668.8" x2="408.4" y2="665.3"/>
			</g>
			<g>
				<line opacity="0.5" fill="none" stroke="#7A726F" stroke-width="0.5324" x1="424.9" y1="663.7" x2="424.8" y2="613.4"/>
				<line opacity="0.5" fill="none" stroke="#7A726F" stroke-width="0.5324" x1="408.8" y1="663.4" x2="408.7" y2="613.3"/>
				<line opacity="0.5" fill="none" stroke="#7A726F" stroke-width="0.5324" x1="419.5" y1="663.6" x2="419.4" y2="613.4"/>
				<line opacity="0.5" fill="none" stroke="#7A726F" stroke-width="0.5324" x1="414.2" y1="663.5" x2="414.1" y2="613.4"/>
				<path opacity="0.5" fill="none" stroke="#7A726F" stroke-width="0.5324" d="M426.2,613.2c0,1.6-1.5,1.7-1.5,1.7l-16-0.1
					c0,0-1-0.7-1,1.2c0,1.9,1.2,2.3,1.2,2.3l16.1,0.1c0,0,1.2-0.1,1.2,1.6c0,1.7-1.4,1.9-1.4,1.9l-15.8-0.1c0,0-1.2,0.1-1.2,1.8
					c0,1.7,1.4,1.8,1.4,1.8l16,0.1c0,0,1,0.2,1,1.7c0,1.5-1.2,1.9-1.2,1.9l-16.3-0.1c0,0-1,0-1,1.7c0,1.8,1.1,2.1,1.1,2.1l16.3,0.1
					c0,0,1.3-0.1,1.3,1.8c0,1.9-1.5,1.9-1.5,1.9l-16-0.1c0,0-1,0-1,1.7c0,1.7,1.2,2.2,1.2,2.2l16,0.2c0,0,1.3,0.3,1.3,2
					c0,1.7-1.3,1.8-1.3,1.8l-15.7-0.2c0,0-1.5-0.3-1.5,1.4c0,1.7,1.6,1.9,1.6,1.9l15.6,0.2c0,0,1.2-0.5,1.2,1.5
					c0,1.9-1.3,2.2-1.3,2.2l-15.4-0.2c0,0-1.7,0-1.7,1.8c0,1.8,1.7,2,1.7,2l15.4,0.2c0,0,1.3-0.3,1.3,1.4c0,1.7-1.3,1.9-1.3,1.9
					l-15.5-0.2c0,0-1.6,0-1.6,1.7c0,1.7,1.6,1.8,1.6,1.8l15.7,0.2l1.2,0.4"/>
				<path opacity="0.5" fill="none" stroke="#7A726F" stroke-width="0.5324" d="M407.7,663.3c0-1.6,1.5-1.7,1.5-1.7l16,0.2
					c0,0,1,0.7,1-1.2c0-1.9-1.2-2.3-1.2-2.3l-16.1-0.2c0,0-1.2,0.1-1.2-1.6c0-1.7,1.4-1.9,1.4-1.9l15.8,0.2c0,0,1.2-0.1,1.2-1.8
					c0-1.7-1.4-1.8-1.4-1.8l-16-0.2c0,0-1-0.3-1-1.7c0-1.5,1.2-1.9,1.2-1.9l16.3,0.2c0,0,1,0,1-1.7c0-1.8-1-2.1-1-2.1l-16.3-0.2
					c0,0-1.3,0.1-1.3-1.8c0-1.9,1.5-1.9,1.5-1.9l16,0.2c0,0,1,0,1-1.7c0-1.7-1.2-2.2-1.2-2.2l-16-0.2c0,0-1.3-0.2-1.3-1.9
					c0-1.7,1.3-1.8,1.3-1.8l15.7,0.1c0,0,1.5,0.3,1.5-1.4c0-1.7-1.6-2-1.6-2l-15.6-0.1c0,0-1.1,0.5-1.2-1.5c0-1.9,1.3-2.2,1.3-2.2
					l15.4,0.1c0,0,1.7,0,1.7-1.8c0-1.8-1.7-2-1.7-2l-15.4-0.1c0,0-1.3,0.3-1.3-1.4c0-1.7,1.3-1.9,1.3-1.9l15.5,0.1
					c0,0,1.6,0,1.6-1.7c0-1.7-1.6-1.8-1.6-1.8l-15.7-0.1l-1.2-0.4"/>
				<line opacity="0.5" fill="none" stroke="#7A726F" stroke-width="0.5324" x1="426.3" y1="661.8" x2="408.4" y2="658.3"/>
				<line opacity="0.5" fill="none" stroke="#7A726F" stroke-width="0.5324" x1="426.3" y1="658.5" x2="408.5" y2="655.1"/>
				<line opacity="0.5" fill="none" stroke="#7A726F" stroke-width="0.5324" x1="426.4" y1="654.5" x2="408.5" y2="651"/>
				<line opacity="0.5" fill="none" stroke="#7A726F" stroke-width="0.5324" x1="426.4" y1="650.9" x2="408.5" y2="647.5"/>
				<line opacity="0.5" fill="none" stroke="#7A726F" stroke-width="0.5324" x1="426.4" y1="647.9" x2="408.4" y2="644.4"/>
				<line opacity="0.5" fill="none" stroke="#7A726F" stroke-width="0.5324" x1="426.3" y1="644.3" x2="408.4" y2="640.9"/>
				<line opacity="0.5" fill="none" stroke="#7A726F" stroke-width="0.5324" x1="426.3" y1="640.7" x2="408.4" y2="637.3"/>
				<line opacity="0.5" fill="none" stroke="#7A726F" stroke-width="0.5324" x1="426.3" y1="636.7" x2="408.4" y2="633.3"/>
				<line opacity="0.5" fill="none" stroke="#7A726F" stroke-width="0.5324" x1="426.3" y1="633.1" x2="408.4" y2="629.7"/>
				<line opacity="0.5" fill="none" stroke="#7A726F" stroke-width="0.5324" x1="426.3" y1="629.5" x2="408.4" y2="626.1"/>
				<line opacity="0.5" fill="none" stroke="#7A726F" stroke-width="0.5324" x1="426.3" y1="626" x2="408.4" y2="622.6"/>
				<line opacity="0.5" fill="none" stroke="#7A726F" stroke-width="0.5324" x1="426.3" y1="622" x2="408.4" y2="618.6"/>
				<line opacity="0.5" fill="none" stroke="#7A726F" stroke-width="0.5324" x1="426.3" y1="618.3" x2="408.3" y2="614.9"/>
			</g>
			<g>
				<line opacity="0.5" fill="none" stroke="#7A726F" stroke-width="0.5324" x1="424.8" y1="613.2" x2="424.6" y2="563"/>
				<line opacity="0.5" fill="none" stroke="#7A726F" stroke-width="0.5324" x1="408.7" y1="613.1" x2="408.5" y2="562.9"/>
				<line opacity="0.5" fill="none" stroke="#7A726F" stroke-width="0.5324" x1="419.4" y1="613.1" x2="419.2" y2="563"/>
				<line opacity="0.5" fill="none" stroke="#7A726F" stroke-width="0.5324" x1="414.1" y1="613.1" x2="413.8" y2="562.9"/>
				<path opacity="0.5" fill="none" stroke="#7A726F" stroke-width="0.5324" d="M426,562.8c0,1.6-1.5,1.7-1.5,1.7l-16-0.1
					c0,0-1-0.7-1,1.2c0,1.9,1.2,2.3,1.2,2.3l16.1,0.1c0,0,1.2-0.1,1.2,1.6c0,1.7-1.4,1.9-1.4,1.9l-15.8-0.1c0,0-1.2,0.1-1.1,1.8
					c0,1.7,1.4,1.8,1.4,1.8l16,0.1c0,0,1,0.2,1.1,1.7c0,1.5-1.2,1.9-1.2,1.9l-16.3-0.1c0,0-1,0-1,1.7c0,1.8,1,2.1,1,2.1l16.3,0.1
					c0,0,1.3-0.1,1.3,1.8c0,1.9-1.5,1.9-1.5,1.9l-16-0.1c0,0-1,0-1,1.7c0,1.7,1.2,2.2,1.2,2.2l16,0.1c0,0,1.3,0.2,1.3,2
					c0,1.7-1.3,1.8-1.3,1.8l-15.7-0.1c0,0-1.5-0.3-1.5,1.4c0,1.7,1.6,2,1.6,2l15.6,0.1c0,0,1.1-0.5,1.2,1.5c0,1.9-1.3,2.2-1.3,2.2
					l-15.4-0.1c0,0-1.7,0-1.7,1.8c0,1.8,1.8,2,1.8,2l15.4,0.1c0,0,1.3-0.3,1.3,1.4c0,1.7-1.3,1.9-1.3,1.9l-15.5-0.1
					c0,0-1.6,0-1.6,1.7c0,1.7,1.6,1.8,1.6,1.8l15.7,0.1l1.2,0.4"/>
				<path opacity="0.5" fill="none" stroke="#7A726F" stroke-width="0.5324" d="M407.6,612.9c0-1.6,1.5-1.7,1.5-1.7l16,0.1
					c0,0,1,0.7,1-1.2c0-1.9-1.2-2.3-1.2-2.3l-16.1-0.1c0,0-1.2,0.1-1.2-1.6c0-1.7,1.4-1.9,1.4-1.9l15.8,0.1c0,0,1.2-0.1,1.2-1.8
					c0-1.7-1.4-1.8-1.4-1.8l-16-0.1c0,0-1-0.2-1.1-1.7c0-1.4,1.2-1.9,1.2-1.9l16.3,0.1c0,0,1,0,1-1.7c0-1.8-1.1-2.1-1.1-2.1
					l-16.3-0.1c0,0-1.3,0.1-1.3-1.8c0-1.9,1.5-1.9,1.5-1.9l16,0.1c0,0,1,0,1-1.7c0-1.7-1.2-2.2-1.2-2.2l-16-0.1c0,0-1.3-0.2-1.3-1.9
					c0-1.7,1.3-1.8,1.3-1.8l15.7,0.1c0,0,1.5,0.3,1.5-1.4c0-1.7-1.6-2-1.6-2l-15.6-0.1c0,0-1.1,0.5-1.2-1.5c0-1.9,1.3-2.2,1.3-2.2
					l15.4,0.1c0,0,1.7,0,1.7-1.8c0-1.8-1.7-2-1.7-2l-15.4-0.1c0,0-1.3,0.3-1.3-1.4c0-1.7,1.3-1.9,1.3-1.9l15.5,0.1
					c0,0,1.6,0,1.6-1.7c0-1.7-1.6-1.8-1.6-1.8l-15.7-0.1l-1.2-0.4"/>
				<line opacity="0.5" fill="none" stroke="#7A726F" stroke-width="0.5324" x1="426.2" y1="611.3" x2="408.3" y2="607.9"/>
				<line opacity="0.5" fill="none" stroke="#7A726F" stroke-width="0.5324" x1="426.2" y1="608.1" x2="408.3" y2="604.7"/>
				<line opacity="0.5" fill="none" stroke="#7A726F" stroke-width="0.5324" x1="426.2" y1="604" x2="408.3" y2="600.6"/>
				<line opacity="0.5" fill="none" stroke="#7A726F" stroke-width="0.5324" x1="426.2" y1="600.5" x2="408.3" y2="597.1"/>
				<line opacity="0.5" fill="none" stroke="#7A726F" stroke-width="0.5324" x1="426.2" y1="597.4" x2="408.2" y2="594"/>
				<line opacity="0.5" fill="none" stroke="#7A726F" stroke-width="0.5324" x1="426.1" y1="593.9" x2="408.2" y2="590.5"/>
				<line opacity="0.5" fill="none" stroke="#7A726F" stroke-width="0.5324" x1="426.1" y1="590.2" x2="408.2" y2="586.9"/>
				<line opacity="0.5" fill="none" stroke="#7A726F" stroke-width="0.5324" x1="426.1" y1="586.3" x2="408.2" y2="582.9"/>
				<line opacity="0.5" fill="none" stroke="#7A726F" stroke-width="0.5324" x1="426.1" y1="582.6" x2="408.2" y2="579.2"/>
				<line opacity="0.5" fill="none" stroke="#7A726F" stroke-width="0.5324" x1="426.1" y1="579.1" x2="408.2" y2="575.7"/>
				<line opacity="0.5" fill="none" stroke="#7A726F" stroke-width="0.5324" x1="426" y1="575.6" x2="408.1" y2="572.2"/>
				<line opacity="0.5" fill="none" stroke="#7A726F" stroke-width="0.5324" x1="426" y1="571.6" x2="408.1" y2="568.2"/>
				<line opacity="0.5" fill="none" stroke="#7A726F" stroke-width="0.5324" x1="426" y1="567.8" x2="408.1" y2="564.4"/>
			</g>
			<g>
				<line opacity="0.5" fill="none" stroke="#7A726F" stroke-width="0.5324" x1="424.6" y1="562.8" x2="424.4" y2="512.6"/>
				<line opacity="0.5" fill="none" stroke="#7A726F" stroke-width="0.5324" x1="408.4" y1="562.6" x2="408.3" y2="512.4"/>
				<line opacity="0.5" fill="none" stroke="#7A726F" stroke-width="0.5324" x1="419.2" y1="562.7" x2="419.1" y2="512.5"/>
				<line opacity="0.5" fill="none" stroke="#7A726F" stroke-width="0.5324" x1="413.8" y1="562.7" x2="413.7" y2="512.5"/>
				<path opacity="0.5" fill="none" stroke="#7A726F" stroke-width="0.5324" d="M425.9,512.4c0,1.6-1.5,1.7-1.5,1.7l-16-0.2
					c0,0-1-0.7-1,1.2c0,1.9,1.2,2.3,1.2,2.3l16.1,0.2c0,0,1.2-0.1,1.2,1.6c0,1.7-1.4,1.9-1.4,1.9l-15.8-0.2c0,0-1.2,0.1-1.2,1.8
					c0,1.7,1.4,1.8,1.4,1.8l16,0.1c0,0,1,0.3,1.1,1.7c0,1.5-1.2,1.9-1.2,1.9l-16.3-0.1c0,0-1,0-1,1.7c0,1.8,1,2.1,1,2.1l16.3,0.1
					c0,0,1.3-0.1,1.3,1.8c0,1.9-1.5,1.9-1.5,1.9l-16-0.1c0,0-1,0-1,1.7c0,1.7,1.2,2.2,1.2,2.2l16,0.1c0,0,1.3,0.3,1.3,2
					c0,1.7-1.3,1.8-1.3,1.8l-15.7-0.1c0,0-1.5-0.3-1.5,1.4c0,1.7,1.6,2,1.6,2l15.6,0.1c0,0,1.2-0.5,1.2,1.5c0,1.9-1.3,2.2-1.3,2.2
					l-15.4-0.1c0,0-1.7,0-1.7,1.8c0,1.8,1.7,2,1.7,2l15.4,0.1c0,0,1.3-0.3,1.3,1.4c0,1.7-1.3,1.9-1.3,1.9l-15.5-0.1
					c0,0-1.6,0-1.6,1.7c0,1.7,1.6,1.8,1.6,1.8l15.7,0.1l1.2,0.4"/>
				<path opacity="0.5" fill="none" stroke="#7A726F" stroke-width="0.5324" d="M407.4,562.4c0-1.6,1.5-1.7,1.5-1.7l16,0.1
					c0,0,1.1,0.7,1-1.2c0-1.9-1.2-2.3-1.2-2.3l-16.1-0.1c0,0-1.2,0.1-1.2-1.6c0-1.7,1.4-1.9,1.4-1.9l15.8,0.1c0,0,1.2-0.1,1.2-1.8
					c0-1.7-1.4-1.8-1.4-1.8l-16-0.1c0,0-1-0.3-1-1.7c0-1.5,1.2-1.9,1.2-1.9l16.3,0.1c0,0,1,0,1-1.7c0-1.8-1.1-2.1-1.1-2.1l-16.3-0.1
					c0,0-1.3,0.1-1.3-1.8c0-1.9,1.5-1.9,1.5-1.9l16,0.1c0,0,1,0,1-1.7c0-1.7-1.2-2.2-1.2-2.2l-16-0.1c0,0-1.3-0.2-1.3-1.9
					c0-1.7,1.3-1.8,1.3-1.8l15.7,0.1c0,0,1.5,0.3,1.5-1.4c0-1.7-1.6-2-1.6-2l-15.6-0.1c0,0-1.2,0.5-1.2-1.5c0-1.9,1.3-2.2,1.3-2.2
					l15.4,0.1c0,0,1.7,0,1.7-1.8c0-1.8-1.7-2-1.7-2l-15.4-0.1c0,0-1.3,0.3-1.3-1.4c0-1.7,1.3-1.9,1.3-1.9l15.5,0.1
					c0,0,1.6,0,1.6-1.7c0-1.7-1.6-1.8-1.6-1.8l-15.7-0.2l-1.2-0.4"/>
				<line opacity="0.5" fill="none" stroke="#7A726F" stroke-width="0.5324" x1="426" y1="560.9" x2="408.1" y2="557.5"/>
				<line opacity="0.5" fill="none" stroke="#7A726F" stroke-width="0.5324" x1="426" y1="557.6" x2="408.1" y2="554.2"/>
				<line opacity="0.5" fill="none" stroke="#7A726F" stroke-width="0.5324" x1="426" y1="553.6" x2="408.1" y2="550.1"/>
				<line opacity="0.5" fill="none" stroke="#7A726F" stroke-width="0.5324" x1="426" y1="550" x2="408.1" y2="546.6"/>
				<line opacity="0.5" fill="none" stroke="#7A726F" stroke-width="0.5324" x1="425.9" y1="547" x2="408" y2="543.5"/>
				<line opacity="0.5" fill="none" stroke="#7A726F" stroke-width="0.5324" x1="425.9" y1="543.5" x2="408" y2="540"/>
				<line opacity="0.5" fill="none" stroke="#7A726F" stroke-width="0.5324" x1="425.9" y1="539.8" x2="408" y2="536.4"/>
				<line opacity="0.5" fill="none" stroke="#7A726F" stroke-width="0.5324" x1="425.9" y1="535.8" x2="408" y2="532.4"/>
				<line opacity="0.5" fill="none" stroke="#7A726F" stroke-width="0.5324" x1="425.9" y1="532.2" x2="408" y2="528.8"/>
				<line opacity="0.5" fill="none" stroke="#7A726F" stroke-width="0.5324" x1="425.9" y1="528.7" x2="408" y2="525.3"/>
				<line opacity="0.5" fill="none" stroke="#7A726F" stroke-width="0.5324" x1="425.9" y1="525.2" x2="408" y2="521.7"/>
				<line opacity="0.5" fill="none" stroke="#7A726F" stroke-width="0.5324" x1="425.9" y1="521.2" x2="408" y2="517.7"/>
				<line opacity="0.5" fill="none" stroke="#7A726F" stroke-width="0.5324" x1="425.9" y1="517.4" x2="408" y2="514"/>
			</g>
			<g>
				<line opacity="0.5" fill="none" stroke="#7A726F" stroke-width="0.5324" x1="424.4" y1="512.3" x2="424.4" y2="462.2"/>
				<line opacity="0.5" fill="none" stroke="#7A726F" stroke-width="0.5324" x1="408.3" y1="512.2" x2="408.2" y2="462"/>
				<line opacity="0.5" fill="none" stroke="#7A726F" stroke-width="0.5324" x1="419.1" y1="512.3" x2="419" y2="462.1"/>
				<line opacity="0.5" fill="none" stroke="#7A726F" stroke-width="0.5324" x1="413.7" y1="512.2" x2="413.6" y2="462.1"/>
				<path opacity="0.5" fill="none" stroke="#7A726F" stroke-width="0.5324" d="M425.8,461.9c0,1.6-1.5,1.7-1.5,1.7l-16-0.2
					c0,0-1-0.7-1,1.2c0,1.9,1.2,2.3,1.2,2.3l16.1,0.2c0,0,1.2-0.1,1.2,1.6c0,1.7-1.4,1.9-1.4,1.9l-15.8-0.2c0,0-1.2,0.1-1.2,1.8
					c0,1.7,1.4,1.8,1.4,1.8l16,0.2c0,0,1,0.2,1,1.7c0,1.5-1.2,1.9-1.2,1.9l-16.3-0.2c0,0-1,0-1,1.7c0,1.8,1,2.1,1,2.1l16.3,0.2
					c0,0,1.3-0.1,1.3,1.8c0,1.9-1.5,1.9-1.5,1.9l-16-0.2c0,0-1,0-1,1.7c0,1.7,1.2,2.2,1.2,2.2l16,0.2c0,0,1.3,0.3,1.3,1.9
					c0,1.7-1.3,1.8-1.3,1.8l-15.7-0.2c0,0-1.5-0.3-1.5,1.4c0,1.7,1.6,2,1.6,2l15.6,0.2c0,0,1.2-0.5,1.2,1.5c0,1.9-1.3,2.2-1.3,2.2
					l-15.4-0.2c0,0-1.7,0-1.7,1.8c0,1.8,1.7,2,1.7,2l15.4,0.1c0,0,1.3-0.3,1.3,1.4c0,1.7-1.3,1.9-1.3,1.9L409,507c0,0-1.6,0-1.6,1.7
					c0,1.7,1.6,1.8,1.6,1.8l15.7,0.1l1.2,0.4"/>
				<path opacity="0.5" fill="none" stroke="#7A726F" stroke-width="0.5324" d="M407.2,512c0-1.6,1.5-1.7,1.5-1.7l16,0.2
					c0,0,1.1,0.7,1-1.2c0-1.9-1.2-2.3-1.2-2.3l-16.1-0.2c0,0-1.2,0.1-1.2-1.6c0-1.7,1.4-1.9,1.4-1.9l15.8,0.2c0,0,1.2-0.1,1.2-1.8
					c0-1.7-1.4-1.8-1.4-1.8l-16-0.2c0,0-1-0.3-1-1.7c0-1.5,1.1-1.9,1.1-1.9l16.3,0.2c0,0,1,0,1-1.7c0-1.8-1.1-2.1-1.1-2.1l-16.3-0.2
					c0,0-1.3,0.1-1.3-1.8c0-1.9,1.5-1.9,1.5-1.9l16,0.2c0,0,1,0,1-1.7c0-1.7-1.2-2.2-1.2-2.2l-16-0.2c0,0-1.3-0.3-1.3-2
					c0-1.7,1.3-1.8,1.3-1.8l15.7,0.2c0,0,1.5,0.3,1.5-1.4c0-1.7-1.6-2-1.6-2l-15.6-0.2c0,0-1.2,0.5-1.2-1.5c0-1.9,1.3-2.2,1.3-2.2
					l15.4,0.2c0,0,1.7,0,1.7-1.8c0-1.8-1.7-2-1.7-2l-15.4-0.2c0,0-1.3,0.3-1.3-1.4c0-1.7,1.3-1.9,1.3-1.9l15.5,0.2
					c0,0,1.6,0,1.6-1.7c0-1.7-1.6-1.8-1.6-1.8l-15.7-0.2l-1.2-0.4"/>
				<line opacity="0.5" fill="none" stroke="#7A726F" stroke-width="0.5324" x1="425.8" y1="510.5" x2="407.9" y2="507"/>
				<line opacity="0.5" fill="none" stroke="#7A726F" stroke-width="0.5324" x1="425.8" y1="507.2" x2="407.9" y2="503.8"/>
				<line opacity="0.5" fill="none" stroke="#7A726F" stroke-width="0.5324" x1="425.8" y1="503.1" x2="407.9" y2="499.7"/>
				<line opacity="0.5" fill="none" stroke="#7A726F" stroke-width="0.5324" x1="425.8" y1="499.6" x2="407.9" y2="496.2"/>
				<line opacity="0.5" fill="none" stroke="#7A726F" stroke-width="0.5324" x1="425.8" y1="496.6" x2="407.9" y2="493.1"/>
				<line opacity="0.5" fill="none" stroke="#7A726F" stroke-width="0.5324" x1="425.8" y1="493" x2="407.9" y2="489.6"/>
				<line opacity="0.5" fill="none" stroke="#7A726F" stroke-width="0.5324" x1="425.8" y1="489.4" x2="407.9" y2="486"/>
				<line opacity="0.5" fill="none" stroke="#7A726F" stroke-width="0.5324" x1="425.8" y1="485.4" x2="407.9" y2="482"/>
				<line opacity="0.5" fill="none" stroke="#7A726F" stroke-width="0.5324" x1="425.8" y1="481.8" x2="407.9" y2="478.3"/>
				<line opacity="0.5" fill="none" stroke="#7A726F" stroke-width="0.5324" x1="425.8" y1="478.3" x2="407.9" y2="474.8"/>
				<line opacity="0.5" fill="none" stroke="#7A726F" stroke-width="0.5324" x1="425.8" y1="474.8" x2="407.9" y2="471.3"/>
				<line opacity="0.5" fill="none" stroke="#7A726F" stroke-width="0.5324" x1="425.8" y1="470.8" x2="407.9" y2="467.3"/>
				<line opacity="0.5" fill="none" stroke="#7A726F" stroke-width="0.5324" x1="425.8" y1="467" x2="407.9" y2="463.5"/>
			</g>
			<g>
				<line opacity="0.5" fill="none" stroke="#7A726F" stroke-width="0.5324" x1="424.4" y1="461.9" x2="424.4" y2="411.8"/>
				<line opacity="0.5" fill="none" stroke="#7A726F" stroke-width="0.5324" x1="408.2" y1="461.7" x2="408.2" y2="411.6"/>
				<line opacity="0.5" fill="none" stroke="#7A726F" stroke-width="0.5324" x1="419" y1="461.9" x2="419" y2="411.7"/>
				<line opacity="0.5" fill="none" stroke="#7A726F" stroke-width="0.5324" x1="413.6" y1="461.8" x2="413.6" y2="411.6"/>
				<path opacity="0.5" fill="none" stroke="#7A726F" stroke-width="0.5324" d="M425.8,411.5c0,1.6-1.5,1.7-1.5,1.7l-15.9-0.2
					c0,0-1-0.7-1,1.2c0,1.9,1.2,2.3,1.2,2.3l16.1,0.2c0,0,1.2-0.1,1.2,1.6c0,1.7-1.4,1.9-1.4,1.9l-15.8-0.2c0,0-1.2,0.1-1.2,1.8
					c0,1.7,1.4,1.8,1.4,1.8l16,0.2c0,0,1,0.3,1,1.7c0,1.5-1.2,1.9-1.2,1.9l-16.3-0.2c0,0-1,0-1,1.7c0,1.8,1,2.1,1,2.1l16.3,0.2
					c0,0,1.3-0.1,1.3,1.8c0,1.9-1.5,1.9-1.5,1.9l-16-0.2c0,0-1.1,0-1,1.7c0,1.7,1.2,2.2,1.2,2.2l15.9,0.2c0,0,1.3,0.3,1.3,2
					c0,1.7-1.3,1.8-1.3,1.8l-15.7-0.2c0,0-1.5-0.3-1.5,1.4c0,1.7,1.6,2,1.6,2l15.6,0.2c0,0,1.2-0.5,1.2,1.5c0,1.9-1.3,2.1-1.3,2.1
					l-15.4-0.2c0,0-1.7,0-1.7,1.8c0,1.8,1.7,2,1.7,2l15.4,0.2c0,0,1.3-0.3,1.3,1.4c0,1.7-1.3,1.9-1.3,1.9l-15.5-0.2
					c0,0-1.6,0-1.6,1.7c0,1.7,1.6,1.8,1.6,1.8l15.7,0.2l1.2,0.4"/>
				<path opacity="0.5" fill="none" stroke="#7A726F" stroke-width="0.5324" d="M407.2,461.5c0-1.6,1.5-1.7,1.5-1.7l16,0.2
					c0,0,1,0.7,1-1.2c0-1.9-1.2-2.3-1.2-2.3l-16.1-0.2c0,0-1.2,0.1-1.2-1.6c0-1.7,1.4-1.9,1.4-1.9l15.8,0.2c0,0,1.2-0.1,1.2-1.8
					c0-1.7-1.4-1.8-1.4-1.8l-16-0.2c0,0-1-0.3-1.1-1.7c0-1.5,1.2-1.9,1.2-1.9l16.3,0.2c0,0,1,0,1-1.7c0-1.8-1-2.1-1-2.1l-16.3-0.2
					c0,0-1.3,0.1-1.3-1.8c0-2,1.5-1.9,1.5-1.9l16,0.2c0,0,1,0,1-1.7c0-1.7-1.2-2.2-1.2-2.2l-16-0.2c0,0-1.3-0.2-1.3-1.9
					c0-1.7,1.3-1.8,1.3-1.8l15.7,0.2c0,0,1.5,0.3,1.5-1.4c0-1.7-1.6-2-1.6-2l-15.6-0.2c0,0-1.2,0.5-1.2-1.5c0-1.9,1.3-2.2,1.3-2.2
					l15.4,0.2c0,0,1.7,0,1.7-1.8c0-1.8-1.7-2-1.7-2l-15.4-0.2c0,0-1.3,0.3-1.3-1.4c0-1.7,1.3-1.9,1.3-1.9l15.5,0.2
					c0,0,1.6,0,1.6-1.7c0-1.7-1.6-1.8-1.6-1.8l-15.7-0.2l-1.2-0.4"/>
				<line opacity="0.5" fill="none" stroke="#7A726F" stroke-width="0.5324" x1="425.8" y1="460.1" x2="407.9" y2="456.6"/>
				<line opacity="0.5" fill="none" stroke="#7A726F" stroke-width="0.5324" x1="425.8" y1="456.8" x2="407.9" y2="453.3"/>
				<line opacity="0.5" fill="none" stroke="#7A726F" stroke-width="0.5324" x1="425.8" y1="452.7" x2="407.9" y2="449.2"/>
				<line opacity="0.5" fill="none" stroke="#7A726F" stroke-width="0.5324" x1="425.8" y1="449.2" x2="407.9" y2="445.7"/>
				<line opacity="0.5" fill="none" stroke="#7A726F" stroke-width="0.5324" x1="425.8" y1="446.1" x2="407.9" y2="442.7"/>
				<line opacity="0.5" fill="none" stroke="#7A726F" stroke-width="0.5324" x1="425.8" y1="442.6" x2="407.9" y2="439.1"/>
				<line opacity="0.5" fill="none" stroke="#7A726F" stroke-width="0.5324" x1="425.8" y1="439" x2="407.9" y2="435.5"/>
				<line opacity="0.5" fill="none" stroke="#7A726F" stroke-width="0.5324" x1="425.8" y1="435" x2="407.9" y2="431.5"/>
				<line opacity="0.5" fill="none" stroke="#7A726F" stroke-width="0.5324" x1="425.8" y1="431.4" x2="407.9" y2="427.9"/>
				<line opacity="0.5" fill="none" stroke="#7A726F" stroke-width="0.5324" x1="425.8" y1="427.9" x2="407.9" y2="424.4"/>
				<line opacity="0.5" fill="none" stroke="#7A726F" stroke-width="0.5324" x1="425.8" y1="424.4" x2="407.9" y2="420.9"/>
				<line opacity="0.5" fill="none" stroke="#7A726F" stroke-width="0.5324" x1="425.8" y1="420.4" x2="407.9" y2="416.9"/>
				<line opacity="0.5" fill="none" stroke="#7A726F" stroke-width="0.5324" x1="425.8" y1="416.6" x2="407.9" y2="413.1"/>
			</g>
			<g>
				<line opacity="0.5" fill="none" stroke="#7A726F" stroke-width="0.5324" x1="424.4" y1="411.5" x2="424.4" y2="361.3"/>
				<line opacity="0.5" fill="none" stroke="#7A726F" stroke-width="0.5324" x1="408.2" y1="411.3" x2="408.3" y2="361.1"/>
				<line opacity="0.5" fill="none" stroke="#7A726F" stroke-width="0.5324" x1="419" y1="411.4" x2="419" y2="361.3"/>
				<line opacity="0.5" fill="none" stroke="#7A726F" stroke-width="0.5324" x1="413.6" y1="411.4" x2="413.7" y2="361.2"/>
				<path opacity="0.5" fill="none" stroke="#7A726F" stroke-width="0.5324" d="M425.8,361.1c0,1.6-1.5,1.7-1.5,1.7l-16-0.2
					c0,0-1-0.7-1,1.2c0,1.9,1.2,2.3,1.2,2.3l16.1,0.2c0,0,1.2-0.1,1.2,1.6c0,1.7-1.4,1.9-1.4,1.9l-15.9-0.2c0,0-1.2,0.1-1.2,1.8
					c0,1.7,1.4,1.8,1.4,1.8l16,0.2c0,0,1,0.3,1,1.7c0,1.4-1.2,1.9-1.2,1.9l-16.3-0.2c0,0-1,0-1,1.7c0,1.8,1,2.1,1,2.1l16.3,0.2
					c0,0,1.3-0.1,1.3,1.8c0,1.9-1.5,1.9-1.5,1.9l-15.9-0.2c0,0-1,0-1,1.7c0,1.7,1.2,2.2,1.2,2.2l15.9,0.2c0,0,1.3,0.3,1.3,2
					c0,1.7-1.3,1.8-1.3,1.8l-15.7-0.2c0,0-1.5-0.3-1.5,1.4c0,1.7,1.6,2,1.6,2l15.6,0.2c0,0,1.2-0.5,1.2,1.5c0,1.9-1.3,2.2-1.3,2.2
					l-15.4-0.2c0,0-1.7,0-1.7,1.8c0,1.8,1.7,2,1.7,2l15.4,0.2c0,0,1.3-0.3,1.3,1.4c0,1.7-1.3,1.9-1.3,1.9l-15.5-0.2
					c0,0-1.6,0-1.6,1.7c0,1.7,1.6,1.8,1.6,1.8l15.7,0.2l1.2,0.4"/>
				<path opacity="0.5" fill="none" stroke="#7A726F" stroke-width="0.5324" d="M407.2,411.1c0-1.6,1.5-1.7,1.5-1.7l16,0.2
					c0,0,1,0.7,1-1.2c0-1.9-1.2-2.3-1.2-2.3l-16.1-0.2c0,0-1.2,0.1-1.2-1.6c0-1.7,1.4-1.9,1.4-1.9l15.8,0.2c0,0,1.2-0.1,1.2-1.8
					c0-1.7-1.4-1.8-1.4-1.8l-16-0.2c0,0-1-0.3-1-1.7c0-1.5,1.2-1.9,1.2-1.9l16.3,0.2c0,0,1,0,1.1-1.7c0-1.8-1-2.1-1-2.1l-16.3-0.2
					c0,0-1.3,0.1-1.3-1.8c0-1.9,1.5-1.9,1.5-1.9l16,0.2c0,0,1,0,1-1.7c0-1.7-1.2-2.2-1.2-2.2l-16-0.2c0,0-1.3-0.3-1.3-2
					c0-1.7,1.3-1.8,1.3-1.8l15.7,0.2c0,0,1.5,0.3,1.5-1.4c0-1.7-1.6-2-1.6-2l-15.6-0.2c0,0-1.2,0.5-1.2-1.5c0-1.9,1.3-2.2,1.3-2.2
					l15.4,0.2c0,0,1.7,0,1.7-1.8c0-1.8-1.7-2-1.7-2l-15.4-0.2c0,0-1.3,0.3-1.3-1.4c0-1.7,1.3-1.9,1.3-1.9l15.5,0.2
					c0,0,1.6,0,1.6-1.7c0-1.7-1.6-1.8-1.6-1.8l-15.7-0.2l-1.2-0.4"/>
				<line opacity="0.5" fill="none" stroke="#7A726F" stroke-width="0.5324" x1="425.8" y1="409.6" x2="407.9" y2="406.1"/>
				<line opacity="0.5" fill="none" stroke="#7A726F" stroke-width="0.5324" x1="425.8" y1="406.4" x2="407.9" y2="402.9"/>
				<line opacity="0.5" fill="none" stroke="#7A726F" stroke-width="0.5324" x1="425.8" y1="402.3" x2="407.9" y2="398.8"/>
				<line opacity="0.5" fill="none" stroke="#7A726F" stroke-width="0.5324" x1="425.8" y1="398.8" x2="407.9" y2="395.3"/>
				<line opacity="0.5" fill="none" stroke="#7A726F" stroke-width="0.5324" x1="425.8" y1="395.7" x2="407.9" y2="392.2"/>
				<line opacity="0.5" fill="none" stroke="#7A726F" stroke-width="0.5324" x1="425.8" y1="392.2" x2="407.9" y2="388.7"/>
				<line opacity="0.5" fill="none" stroke="#7A726F" stroke-width="0.5324" x1="425.8" y1="388.6" x2="407.9" y2="385.1"/>
				<line opacity="0.5" fill="none" stroke="#7A726F" stroke-width="0.5324" x1="425.8" y1="384.6" x2="407.9" y2="381.1"/>
				<line opacity="0.5" fill="none" stroke="#7A726F" stroke-width="0.5324" x1="425.8" y1="381" x2="407.9" y2="377.4"/>
				<line opacity="0.5" fill="none" stroke="#7A726F" stroke-width="0.5324" x1="425.8" y1="377.4" x2="407.9" y2="373.9"/>
				<line opacity="0.5" fill="none" stroke="#7A726F" stroke-width="0.5324" x1="425.8" y1="373.9" x2="407.9" y2="370.4"/>
				<line opacity="0.5" fill="none" stroke="#7A726F" stroke-width="0.5324" x1="425.8" y1="369.9" x2="407.9" y2="366.4"/>
				<line opacity="0.5" fill="none" stroke="#7A726F" stroke-width="0.5324" x1="425.8" y1="366.2" x2="407.9" y2="362.7"/>
			</g>
			<g>
				<line opacity="0.5" fill="none" stroke="#7A726F" stroke-width="0.5324" x1="424.4" y1="361.1" x2="424.5" y2="310.9"/>
				<line opacity="0.5" fill="none" stroke="#7A726F" stroke-width="0.5324" x1="408.3" y1="360.8" x2="408.4" y2="310.7"/>
				<line opacity="0.5" fill="none" stroke="#7A726F" stroke-width="0.5324" x1="419" y1="361" x2="419.2" y2="310.8"/>
				<line opacity="0.5" fill="none" stroke="#7A726F" stroke-width="0.5324" x1="413.7" y1="360.9" x2="413.8" y2="310.8"/>
				<path opacity="0.5" fill="none" stroke="#7A726F" stroke-width="0.5324" d="M426,310.7c0,1.6-1.5,1.7-1.5,1.7l-15.9-0.2
					c0,0-1-0.7-1.1,1.2c0,1.9,1.2,2.3,1.2,2.3l16.1,0.2c0,0,1.2-0.1,1.2,1.6c0,1.7-1.4,1.9-1.4,1.9l-15.8-0.2c0,0-1.2,0.1-1.2,1.8
					c0,1.7,1.4,1.8,1.4,1.8l16,0.2c0,0,1,0.3,1,1.7c0,1.5-1.2,1.9-1.2,1.9l-16.3-0.2c0,0-1,0-1,1.7c0,1.8,1,2.1,1,2.1l16.3,0.2
					c0,0,1.3-0.1,1.3,1.8c0,1.9-1.5,1.9-1.5,1.9l-16-0.2c0,0-1,0-1,1.7c0,1.7,1.2,2.2,1.2,2.2l15.9,0.2c0,0,1.3,0.3,1.3,2
					c0,1.7-1.3,1.8-1.3,1.8l-15.7-0.2c0,0-1.5-0.3-1.5,1.4c0,1.7,1.6,2,1.6,2l15.6,0.2c0,0,1.2-0.5,1.2,1.5c0,1.9-1.3,2.2-1.3,2.2
					l-15.4-0.2c0,0-1.7,0-1.7,1.8c0,1.8,1.7,2,1.7,2l15.4,0.2c0,0,1.3-0.3,1.3,1.4c0,1.7-1.3,1.9-1.3,1.9l-15.5-0.2
					c0,0-1.6,0-1.6,1.7c0,1.7,1.6,1.8,1.6,1.8l15.7,0.2l1.2,0.4"/>
				<path opacity="0.5" fill="none" stroke="#7A726F" stroke-width="0.5324" d="M407.2,360.7c0-1.6,1.5-1.7,1.5-1.7l16,0.2
					c0,0,1,0.7,1-1.2c0-1.9-1.2-2.3-1.2-2.3l-16.1-0.2c0,0-1.2,0.1-1.2-1.6c0-1.7,1.4-1.9,1.4-1.9l15.8,0.2c0,0,1.2-0.1,1.2-1.8
					c0-1.7-1.4-1.8-1.4-1.8l-16-0.2c0,0-1-0.3-1-1.7c0-1.5,1.2-1.9,1.2-1.9l16.3,0.2c0,0,1,0,1-1.7c0-1.8-1-2.1-1-2.1l-16.3-0.2
					c0,0-1.3,0.1-1.3-1.8c0-1.9,1.5-1.9,1.5-1.9l16,0.2c0,0,1,0,1.1-1.7c0-1.7-1.2-2.2-1.2-2.2l-16-0.2c0,0-1.3-0.3-1.3-2
					c0-1.7,1.3-1.8,1.3-1.8l15.7,0.2c0,0,1.5,0.3,1.5-1.4c0-1.7-1.6-2-1.6-2l-15.6-0.2c0,0-1.2,0.5-1.1-1.5c0-1.9,1.3-2.2,1.3-2.2
					l15.4,0.2c0,0,1.7,0,1.7-1.8c0-1.8-1.7-2-1.7-2l-15.4-0.2c0,0-1.3,0.3-1.3-1.4c0-1.7,1.3-1.9,1.3-1.9l15.5,0.2
					c0,0,1.6,0,1.6-1.7c0-1.7-1.6-1.8-1.6-1.8l-15.7-0.2l-1.2-0.4"/>
				<line opacity="0.5" fill="none" stroke="#7A726F" stroke-width="0.5324" x1="425.8" y1="359.2" x2="407.9" y2="355.7"/>
				<line opacity="0.5" fill="none" stroke="#7A726F" stroke-width="0.5324" x1="425.8" y1="356" x2="407.9" y2="352.5"/>
				<line opacity="0.5" fill="none" stroke="#7A726F" stroke-width="0.5324" x1="425.8" y1="351.9" x2="408" y2="348.4"/>
				<line opacity="0.5" fill="none" stroke="#7A726F" stroke-width="0.5324" x1="425.9" y1="348.4" x2="408" y2="344.8"/>
				<line opacity="0.5" fill="none" stroke="#7A726F" stroke-width="0.5324" x1="425.9" y1="345.3" x2="408" y2="341.8"/>
				<line opacity="0.5" fill="none" stroke="#7A726F" stroke-width="0.5324" x1="425.9" y1="341.8" x2="408" y2="338.3"/>
				<line opacity="0.5" fill="none" stroke="#7A726F" stroke-width="0.5324" x1="425.9" y1="338.2" x2="408" y2="334.6"/>
				<line opacity="0.5" fill="none" stroke="#7A726F" stroke-width="0.5324" x1="425.9" y1="334.2" x2="408" y2="330.6"/>
				<line opacity="0.5" fill="none" stroke="#7A726F" stroke-width="0.5324" x1="425.9" y1="330.5" x2="408" y2="327"/>
				<line opacity="0.5" fill="none" stroke="#7A726F" stroke-width="0.5324" x1="425.9" y1="327" x2="408" y2="323.5"/>
				<line opacity="0.5" fill="none" stroke="#7A726F" stroke-width="0.5324" x1="425.9" y1="323.5" x2="408" y2="320"/>
				<line opacity="0.5" fill="none" stroke="#7A726F" stroke-width="0.5324" x1="425.9" y1="319.5" x2="408" y2="316"/>
				<line opacity="0.5" fill="none" stroke="#7A726F" stroke-width="0.5324" x1="425.9" y1="315.8" x2="408" y2="312.2"/>
			</g>
			<g>
				<line opacity="0.5" fill="none" stroke="#7A726F" stroke-width="0.5324" x1="424.5" y1="310.7" x2="424.7" y2="260.5"/>
				<line opacity="0.5" fill="none" stroke="#7A726F" stroke-width="0.5324" x1="408.4" y1="310.4" x2="408.6" y2="260.2"/>
				<line opacity="0.5" fill="none" stroke="#7A726F" stroke-width="0.5324" x1="419.2" y1="310.6" x2="419.3" y2="260.4"/>
				<line opacity="0.5" fill="none" stroke="#7A726F" stroke-width="0.5324" x1="413.8" y1="310.5" x2="413.9" y2="260.3"/>
				<path opacity="0.5" fill="none" stroke="#7A726F" stroke-width="0.5324" d="M426.1,260.3c0,1.6-1.5,1.7-1.5,1.7l-16-0.3
					c0,0-1-0.7-1.1,1.2c0,1.9,1.2,2.3,1.2,2.3l16.1,0.3c0,0,1.2-0.1,1.2,1.6c0,1.7-1.4,1.9-1.4,1.9l-15.9-0.3c0,0-1.2,0.1-1.2,1.8
					c0,1.7,1.4,1.8,1.4,1.8l16,0.3c0,0,1,0.3,1,1.7c0,1.5-1.2,1.9-1.2,1.9l-16.3-0.3c0,0-1,0-1,1.7c0,1.8,1,2.1,1,2.1l16.3,0.3
					c0,0,1.3-0.1,1.3,1.8c0,1.9-1.5,1.9-1.5,1.9l-16-0.2c0,0-1,0-1.1,1.7c0,1.7,1.2,2.2,1.2,2.2l16,0.2c0,0,1.3,0.3,1.3,2
					c0,1.7-1.3,1.8-1.3,1.8l-15.7-0.2c0,0-1.5-0.3-1.5,1.4c0,1.7,1.6,2,1.6,2l15.6,0.2c0,0,1.2-0.5,1.1,1.5c0,1.9-1.3,2.2-1.3,2.2
					l-15.4-0.2c0,0-1.7,0-1.7,1.8c0,1.8,1.7,2,1.7,2l15.4,0.2c0,0,1.3-0.3,1.3,1.4c0,1.7-1.3,1.9-1.3,1.9l-15.5-0.2
					c0,0-1.6,0-1.6,1.7c0,1.7,1.6,1.8,1.6,1.8l15.7,0.2l1.2,0.4"/>
				<path opacity="0.5" fill="none" stroke="#7A726F" stroke-width="0.5324" d="M407.3,310.2c0-1.6,1.5-1.7,1.5-1.7l16,0.2
					c0,0,1,0.7,1.1-1.2c0-1.9-1.2-2.3-1.2-2.3l-16.1-0.2c0,0-1.2,0.1-1.1-1.6c0-1.7,1.4-1.9,1.4-1.9l15.8,0.2c0,0,1.2-0.1,1.2-1.8
					c0-1.7-1.4-1.8-1.4-1.8l-16-0.2c0,0-1-0.3-1-1.7c0-1.5,1.2-1.9,1.2-1.9l16.3,0.3c0,0,1,0,1.1-1.7c0-1.8-1-2.1-1-2.1l-16.3-0.3
					c0,0-1.3,0.1-1.3-1.8c0-1.9,1.5-1.9,1.5-1.9l16,0.3c0,0,1,0,1-1.7c0-1.7-1.1-2.2-1.1-2.2l-16-0.3c0,0-1.3-0.3-1.3-2
					c0-1.7,1.3-1.8,1.3-1.8l15.7,0.2c0,0,1.5,0.3,1.5-1.4c0-1.7-1.6-2-1.6-2l-15.6-0.2c0,0-1.2,0.5-1.1-1.5c0-1.9,1.3-2.2,1.3-2.2
					l15.4,0.2c0,0,1.7,0,1.7-1.8c0-1.8-1.7-2-1.7-2l-15.4-0.2c0,0-1.3,0.3-1.3-1.4c0-1.7,1.3-1.9,1.3-1.9l15.5,0.2
					c0,0,1.6,0,1.6-1.7c0-1.7-1.6-1.8-1.6-1.8l-15.7-0.3l-1.2-0.4"/>
				<line opacity="0.5" fill="none" stroke="#7A726F" stroke-width="0.5324" x1="426" y1="308.8" x2="408.1" y2="305.3"/>
				<line opacity="0.5" fill="none" stroke="#7A726F" stroke-width="0.5324" x1="426" y1="305.6" x2="408.1" y2="302"/>
				<line opacity="0.5" fill="none" stroke="#7A726F" stroke-width="0.5324" x1="426" y1="301.5" x2="408.1" y2="297.9"/>
				<line opacity="0.5" fill="none" stroke="#7A726F" stroke-width="0.5324" x1="426" y1="298" x2="408.1" y2="294.4"/>
				<line opacity="0.5" fill="none" stroke="#7A726F" stroke-width="0.5324" x1="426" y1="294.9" x2="408.1" y2="291.3"/>
				<line opacity="0.5" fill="none" stroke="#7A726F" stroke-width="0.5324" x1="426" y1="291.4" x2="408.1" y2="287.8"/>
				<line opacity="0.5" fill="none" stroke="#7A726F" stroke-width="0.5324" x1="426" y1="287.7" x2="408.1" y2="284.2"/>
				<line opacity="0.5" fill="none" stroke="#7A726F" stroke-width="0.5324" x1="426" y1="283.7" x2="408.1" y2="280.2"/>
				<line opacity="0.5" fill="none" stroke="#7A726F" stroke-width="0.5324" x1="426" y1="280.1" x2="408.2" y2="276.6"/>
				<line opacity="0.5" fill="none" stroke="#7A726F" stroke-width="0.5324" x1="426.1" y1="276.6" x2="408.2" y2="273"/>
				<line opacity="0.5" fill="none" stroke="#7A726F" stroke-width="0.5324" x1="426.1" y1="273.1" x2="408.2" y2="269.5"/>
				<line opacity="0.5" fill="none" stroke="#7A726F" stroke-width="0.5324" x1="426.1" y1="269.1" x2="408.2" y2="265.5"/>
				<line opacity="0.5" fill="none" stroke="#7A726F" stroke-width="0.5324" x1="426.1" y1="265.3" x2="408.2" y2="261.8"/>
			</g>
			<g>
				<line opacity="0.5" fill="none" stroke="#7A726F" stroke-width="0.5324" x1="424.7" y1="260.2" x2="424.9" y2="210.1"/>
				<line opacity="0.5" fill="none" stroke="#7A726F" stroke-width="0.5324" x1="408.6" y1="260" x2="408.8" y2="209.8"/>
				<line opacity="0.5" fill="none" stroke="#7A726F" stroke-width="0.5324" x1="419.3" y1="260.1" x2="419.5" y2="210"/>
				<line opacity="0.5" fill="none" stroke="#7A726F" stroke-width="0.5324" x1="413.9" y1="260.1" x2="414.2" y2="209.9"/>
				<path opacity="0.5" fill="none" stroke="#7A726F" stroke-width="0.5324" d="M426.3,209.8c0,1.6-1.5,1.7-1.5,1.7l-16-0.3
					c0,0-1-0.7-1.1,1.2c0,1.9,1.1,2.3,1.1,2.3L425,215c0,0,1.2-0.1,1.2,1.6c0,1.7-1.4,1.9-1.4,1.9l-15.8-0.3c0,0-1.2,0.1-1.2,1.8
					c0,1.7,1.4,1.8,1.4,1.8l16,0.3c0,0,1,0.3,1,1.7c0,1.4-1.2,1.9-1.2,1.9l-16.3-0.3c0,0-1,0-1.1,1.7c0,1.8,1,2.1,1,2.1l16.3,0.3
					c0,0,1.3-0.1,1.3,1.8c0,1.9-1.5,1.9-1.5,1.9l-16-0.3c0,0-1,0-1.1,1.7c0,1.7,1.2,2.2,1.2,2.2l16,0.3c0,0,1.3,0.3,1.3,2
					c0,1.7-1.3,1.8-1.3,1.8l-15.7-0.3c0,0-1.5-0.3-1.5,1.4c0,1.7,1.6,2,1.6,2l15.6,0.3c0,0,1.2-0.5,1.2,1.5c0,1.9-1.3,2.2-1.3,2.2
					l-15.4-0.3c0,0-1.7,0-1.7,1.8c0,1.8,1.7,2,1.7,2l15.4,0.3c0,0,1.3-0.3,1.3,1.4c0,1.7-1.3,1.9-1.3,1.9l-15.5-0.2
					c0,0-1.6,0-1.6,1.7c0,1.7,1.6,1.8,1.6,1.8l15.7,0.3l1.2,0.4"/>
				<path opacity="0.5" fill="none" stroke="#7A726F" stroke-width="0.5324" d="M407.5,259.8c0-1.6,1.5-1.7,1.5-1.7l16,0.3
					c0,0,1,0.7,1-1.2c0-1.9-1.1-2.3-1.1-2.3l-16.1-0.3c0,0-1.2,0.1-1.1-1.6c0-1.7,1.4-1.9,1.4-1.9l15.8,0.3c0,0,1.2-0.1,1.2-1.8
					c0-1.7-1.4-1.8-1.4-1.8l-16-0.3c0,0-1-0.3-1-1.7c0-1.5,1.2-1.9,1.2-1.9l16.3,0.3c0,0,1.1,0,1.1-1.7c0-1.8-1-2.1-1-2.1l-16.3-0.3
					c0,0-1.3,0.1-1.3-1.8c0-1.9,1.5-1.9,1.5-1.9l16,0.3c0,0,1,0,1.1-1.7c0-1.7-1.2-2.2-1.2-2.2l-16-0.3c0,0-1.3-0.3-1.3-2
					c0-1.7,1.3-1.8,1.3-1.8l15.7,0.3c0,0,1.5,0.3,1.5-1.4c0-1.7-1.6-2-1.6-2l-15.6-0.3c0,0-1.2,0.5-1.1-1.5c0-1.9,1.3-2.2,1.3-2.2
					l15.4,0.3c0,0,1.7,0,1.7-1.8c0-1.8-1.7-2-1.7-2l-15.4-0.3c0,0-1.3,0.3-1.3-1.4c0-1.7,1.3-1.9,1.3-1.9l15.5,0.3
					c0,0,1.6,0,1.6-1.7c0-1.7-1.6-1.8-1.6-1.8l-15.7-0.3l-1.2-0.4"/>
				<line opacity="0.5" fill="none" stroke="#7A726F" stroke-width="0.5324" x1="426.1" y1="258.4" x2="408.2" y2="254.8"/>
				<line opacity="0.5" fill="none" stroke="#7A726F" stroke-width="0.5324" x1="426.1" y1="255.1" x2="408.3" y2="251.6"/>
				<line opacity="0.5" fill="none" stroke="#7A726F" stroke-width="0.5324" x1="426.1" y1="251" x2="408.3" y2="247.5"/>
				<line opacity="0.5" fill="none" stroke="#7A726F" stroke-width="0.5324" x1="426.2" y1="247.5" x2="408.3" y2="244"/>
				<line opacity="0.5" fill="none" stroke="#7A726F" stroke-width="0.5324" x1="426.2" y1="244.5" x2="408.3" y2="240.9"/>
				<line opacity="0.5" fill="none" stroke="#7A726F" stroke-width="0.5324" x1="426.2" y1="241" x2="408.3" y2="237.4"/>
				<line opacity="0.5" fill="none" stroke="#7A726F" stroke-width="0.5324" x1="426.2" y1="237.3" x2="408.3" y2="233.7"/>
				<line opacity="0.5" fill="none" stroke="#7A726F" stroke-width="0.5324" x1="426.2" y1="233.3" x2="408.3" y2="229.8"/>
				<line opacity="0.5" fill="none" stroke="#7A726F" stroke-width="0.5324" x1="426.2" y1="229.7" x2="408.4" y2="226.1"/>
				<line opacity="0.5" fill="none" stroke="#7A726F" stroke-width="0.5324" x1="426.3" y1="226.2" x2="408.4" y2="222.6"/>
				<line opacity="0.5" fill="none" stroke="#7A726F" stroke-width="0.5324" x1="426.3" y1="222.7" x2="408.4" y2="219.1"/>
				<line opacity="0.5" fill="none" stroke="#7A726F" stroke-width="0.5324" x1="426.3" y1="218.7" x2="408.4" y2="215.1"/>
				<line opacity="0.5" fill="none" stroke="#7A726F" stroke-width="0.5324" x1="426.3" y1="214.9" x2="408.4" y2="211.3"/>
			</g>
		</g>
		<path opacity="0.5" fill="none" stroke="#3C3533" stroke-width="0.647" stroke-dasharray="2.5879,2.5879" d="M207.6,163.5
			c0,0,7.9-7.2,54.5-4.7c63.8,3.3,189.2,14.5,218.1,15.6c28.9,1.1,90.6,13,102.2,14.2c11.6,1.2,32.7,11.8,37.7,12.8
			s17.4,7.5,17.4,7.5"/>
		<path opacity="0.5" fill="none" stroke="#3C3533" stroke-width="0.647" stroke-dasharray="2.5879,2.5879" d="M199.6,209.4
			c0,0,2.5-10.5,66.4-10s194.2,15.8,223.1,16.3c28.9,0.5,81.6,7.2,93.3,8.2s33,11,38,12s9.6,3.5,9.6,3.5"/>
		<path opacity="0.5" fill="none" stroke="#3C3533" stroke-width="0.6572" stroke-dasharray="2.6289,2.6289" d="M257.7,821.8
			c0,0,48.9,8.2,70.1,5.6c21.2-2.6,65.9-9.5,99.3-10.4s105.4,0.4,115.3-1.3c9.9-1.7,56-7.8,71-11.2c15.1-3.5,27.8-4.7,27.8-4.7"/>
		<path opacity="0.5" fill="none" stroke="#3C3533" stroke-width="0.6572" stroke-dasharray="2.6289,2.6289" d="M257.7,832.2
			c0,0,48.9,8.2,70.1,5.6c21.2-2.6,65.9-9.5,99.3-10.4c33.4-0.9,105.4,0.4,115.3-1.3c9.9-1.7,56-7.8,71-11.2
			c15.1-3.5,27.8-4.7,27.8-4.7"/>
		<path opacity="0.5" fill="none" stroke="#3C3533" stroke-width="0.5285" stroke-dasharray="2.1138,2.1138" d="M158.8,770.5
			c0,0,4.6,9.1,15.8,9.1c11.3,0,35.6,1.7,48.4,3.5c12.8,1.7,29.5,3.9,29.5,3.9"/>
		<path opacity="0.5" fill="none" stroke="#3C3533" stroke-width="0.5285" stroke-dasharray="2.1138,2.1138" d="M158.8,780.8
			c0,0,4.6,9.1,15.8,9.1c11.3,0,35.6,1.7,48.4,3.5c12.8,1.7,29.5,3.9,29.5,3.9"/>
	</g>
</g>
<g id="CUSTOM"></g>		
	
<g id="SHADING">
	<polygon points="256.7,832.3 256.7,832.3 256.6,831.3 	"/>
	<g opacity="2.000000e-02">
		<path d="M115.4,459.9c0,0,0,0.1,0,0.1C115.4,459.9,115.4,459.9,115.4,459.9 M115.4,459.9L115.4,459.9L115.4,459.9L115.4,459.9
			 M115.4,459.5C115.4,459.5,115.4,459.6,115.4,459.5L115.4,459.5C115.4,459.6,115.4,459.5,115.4,459.5"/>
		<path d="M117.8,428.4c-0.2,1.2-0.4,2.4-0.6,3.6C117.3,430.7,117.6,429.5,117.8,428.4"/>
		<path d="M116.4,437.5c-0.1,0.4-0.1,0.8-0.1,1.3C116.3,438.4,116.4,438,116.4,437.5"/>
		<polyline points="116,474.5 116,474.5 116,474.5 116,474.5 		"/>
		<polyline points="115.6,467.1 115.6,467.2 115.6,467.1 		"/>
		<path d="M126.9,395.2c-4.3,17.6-7,43.4-10.9,79.4l0,0c-0.2-2.4-0.3-4.9-0.4-7.3l0-0.1c-0.1-2.4-0.2-4.8-0.2-7.1c0,0,0-0.1,0-0.1
			l0,0c0-0.1,0-0.2,0-0.3l0,0c0,0,0,0,0-0.1c0-2.2,0-4.5,0-6.7c0-0.3,0-0.7,0-1c0.1-2,0.1-4,0.3-6c0-0.6,0.1-1.1,0.1-1.7
			c0.1-1.8,0.3-3.5,0.4-5.3l0,0c0-0.4,0.1-0.8,0.1-1.3c0.1-0.4,0.1-0.8,0.2-1.2c0.2-1.5,0.3-2.9,0.6-4.4l0,0
			c0.2-1.2,0.4-2.4,0.6-3.6l0,0c0.2-1.1,0.3-2.1,0.6-3.2c0.5-2.2,1-4.4,1.5-6.6c1-3.8,2.1-7.6,3.2-11.4c0.1-0.2,0.1-0.4,0.2-0.5
			C124.4,402.9,125.6,399,126.9,395.2"/>
		<path d="M172.3,644.7c0.2,0.4,0.4,0.8,0.6,1.2C172.7,645.5,172.5,645.1,172.3,644.7"/>
		<path d="M174.2,648.6c0.1,0.3,0.3,0.6,0.4,0.9C174.4,649.2,174.3,648.9,174.2,648.6"/>
		<path d="M170.5,641c0.2,0.4,0.5,0.9,0.7,1.3C170.9,641.9,170.7,641.4,170.5,641"/>
		<path d="M179.8,666.9c0,0.3,0.1,0.7,0.1,1C179.9,667.6,179.9,667.2,179.8,666.9"/>
		<path d="M179.2,663.4c0.1,0.4,0.2,0.8,0.3,1.2C179.4,664.2,179.3,663.8,179.2,663.4"/>
		<path d="M177.3,656.5c0.1,0.4,0.2,0.8,0.4,1.1C177.6,657.3,177.5,656.9,177.3,656.5"/>
		<path d="M161.9,625.8c0.3,0.5,0.6,1,0.9,1.5C162.5,626.8,162.2,626.3,161.9,625.8"/>
		<path d="M159.4,621.8c2.3,3.1,4.4,5.4,6,6.5c12.9,9.6,34.2,30.6,60.1,59.5s31.4,144.4,31.4,144.4l-0.2,0l-0.1-1c0,0-13.4,1-29.2,1
			c-7.9,0-16.4-0.2-24.1-1c-23.2-2.2-53.3-8.8-53.3-8.8s30.1-133.9,30.1-151.4c0-1-0.1-2.1-0.2-3.1c0-0.3-0.1-0.7-0.1-1
			c-0.1-0.7-0.2-1.5-0.3-2.2c-0.1-0.4-0.2-0.8-0.3-1.2c-0.2-0.7-0.3-1.4-0.5-2.2c-0.1-0.4-0.2-0.8-0.3-1.3c-0.2-0.8-0.5-1.5-0.7-2.3
			c-0.1-0.4-0.2-0.8-0.4-1.1c-0.3-1-0.7-1.9-1-2.9c-0.1-0.2-0.1-0.4-0.2-0.6c-0.5-1.2-1-2.4-1.5-3.6c-0.1-0.3-0.3-0.6-0.4-0.9
			c-0.4-0.9-0.8-1.8-1.2-2.7c-0.2-0.4-0.4-0.8-0.6-1.2c-0.4-0.8-0.8-1.6-1.2-2.4c-0.2-0.4-0.4-0.9-0.7-1.3c-0.4-0.8-0.8-1.5-1.2-2.3
			c-0.2-0.4-0.5-0.9-0.7-1.3c-0.4-0.8-0.9-1.6-1.3-2.4c-0.2-0.4-0.4-0.8-0.6-1.1c-0.6-1.1-1.3-2.2-1.9-3.3c-0.3-0.4-0.5-0.8-0.8-1.3
			c-0.4-0.7-0.8-1.4-1.2-2c-0.4-0.6-0.7-1.2-1.1-1.8c-0.3-0.4-0.5-0.9-0.8-1.3C160.4,623.4,159.9,622.6,159.4,621.8L159.4,621.8"/>
		<path d="M542.6,300.3c0,0,20.2,70.7,31.3,106c2.7,8.7,7.5,17.5,13.2,25.8c-2.8,17.4-4.4,34.4-3.6,48c0.6,9.2,3.6,25.6,7.8,45.5
			c-4.1-12.4-22.2-68.5-31.6-104C549.6,383.4,542.6,300.3,542.6,300.3"/>
	</g>
</g>
</svg>
