<?xml version="1.0" encoding="utf-8"?>
<!-- Generator: Adobe Illustrator 16.0.0, SVG Export Plug-In . SVG Version: 6.00 Build 0)  -->
<!DOCTYPE svg PUBLIC "-//W3C//DTD SVG 1.1//EN" "http://www.w3.org/Graphics/SVG/1.1/DTD/svg11.dtd">
<svg version="1.1" id="Layer_1" xmlns="http://www.w3.org/2000/svg" xmlns:xlink="http://www.w3.org/1999/xlink" x="0px" y="0px"
	 width="800.453px" height="1035.881px" viewBox="0 0 620 1035.881" enable-background="new 0 0 800.453 1035.881"
	 xml:space="preserve">
<g>
	<defs>
		<rect id="SVGID_1_" x="22" y="54.007" width="728.396" height="942.631"/>
	</defs>
	<clipPath id="SVGID_2_">
		<use xlink:href="#SVGID_1_"  overflow="visible"/>
	</clipPath>
	<g clip-path="url(#SVGID_2_)">
		<defs>
			<rect id="SVGID_3_" x="22" y="54.007" width="728.396" height="942.631"/>
		</defs>
		<clipPath id="SVGID_4_">
			<use xlink:href="#SVGID_3_"  overflow="visible"/>
		</clipPath>
    <g id="BODY">
      <g id="BOTTOM_AREA">
        		<path clip-path="url(#SVGID_4_)" fill="#004D86" d="M543.265,332.163c-3.394,16.754-9.469,48.103-14.699,82.265
			c-6.577,42.958-18.497,92.022-40.086,126.559c-3.768,6.03-11.421,10.256-20.285,11.188c-33.813,3.558-57.819,5.434-81.322,5.631
			v0.017c-0.156-0.001-0.312,0-0.467-0.001c-0.2-0.001-0.4-0.005-0.6-0.006c-0.2,0.001-0.401,0.005-0.6,0.006
			c-0.158,0.001-0.311,0-0.467,0.001v-0.017c-23.504-0.198-47.51-2.074-81.324-5.631c-8.863-0.931-16.516-5.157-20.284-11.188
			c-21.59-34.537-33.509-83.601-40.087-126.559c-5.23-34.162-11.306-65.51-14.7-82.265c1.075-3.47,12.501-43.072,12.94-49.879
			l-69.363,28.852c5.208,26.537,14.477,46.52,14.477,58.13v18.302c2.168,4.836,5.395,13.149,6.052,21.036
			c1.009,12.104,3.026,56.484,11.094,72.623c8.07,16.137,23.2,111.958,25.216,121.035c2.018,9.079-5.043,43.373-5.043,51.441
			c0,8.069-19.164,67.579-20.173,83.716c-1.007,16.139-5.042,38.33-5.042,54.468c0,16.139-7.061,40.345-7.061,40.345
			s6.051,12.105,14.122,27.234c8.069,15.13,22.19,39.336,27.234,52.447c5.042,13.113,25.215,43.372,66.57,57.495
			c5.325,1.816,11.864,3.266,19.202,4.413l-0.04,1.637c0,0,20.604,1.457,47.465,2.052c6.901,0.177,13.835,0.25,20.619,0.242
			c6.784,0.008,13.716-0.065,20.618-0.242c26.862-0.595,47.465-2.052,47.465-2.052l-0.039-1.637
			c7.337-1.147,13.876-2.597,19.202-4.413c41.355-14.123,61.527-44.382,66.57-57.495c5.043-13.111,19.164-37.317,27.233-52.447
			c8.069-15.129,14.121-27.234,14.121-27.234s-7.061-24.206-7.061-40.345c0-16.138-4.034-38.329-5.043-54.468
			c-1.009-16.137-20.172-75.646-20.172-83.716c0-8.068-7.063-42.362-5.044-51.441c2.018-9.077,17.146-104.898,25.216-121.035
			c8.068-16.139,10.087-60.519,11.095-72.623c0.697-8.379,4.297-17.241,6.445-21.899c1.172-7.662,2.479-16.375,3.641-24.498
			c1.293-9.047,4.242-30.059,7.747-52.81l-68.281-27.112C530.766,289.091,542.19,328.693,543.265,332.163"/>

      </g>
      <g id="MIDDLE_AREA"> 
      		<path clip-path="url(#SVGID_6_)" fill="#FFFFFF" d="M556.76,249.443c18.411-11.139,29.01-24.191,29.01-38.148
			c0-6.711-2.464-13.213-7.055-19.393c-6.16,40.755-89.937,73.111-192.909,73.683c-102.974-0.572-186.75-32.928-192.912-73.683
			c-4.589,6.18-7.052,12.681-7.052,19.393c0,13.957,10.597,27.009,29.009,38.148l-57.248-7.328
			c4.783,24.56,10.895,50.11,13.665,65.624c0.206,1.15,0.433,2.27,0.654,3.397l69.363-28.851
			c-0.439,6.807-11.866,46.409-12.94,49.877c3.394,16.754,9.47,48.103,14.701,82.267c6.576,42.957,18.496,92.02,40.086,126.559
			c3.767,6.029,11.42,10.255,20.284,11.187c33.814,3.557,57.819,5.433,81.322,5.63v0.017c0.157-0.001,0.313,0,0.468-0.001
			c0.198-0.001,0.4-0.005,0.6-0.006c0.2,0.001,0.4,0.005,0.6,0.006c0.156,0.001,0.312,0,0.467,0.001v-0.017
			c23.502-0.198,47.509-2.074,81.322-5.63c8.863-0.932,16.517-5.158,20.285-11.187c21.589-34.539,33.509-83.603,40.086-126.559
			c5.23-34.164,11.306-65.512,14.699-82.267c-1.074-3.468-12.499-43.07-12.938-49.877l68.281,27.11
			c3.743-24.302,8.117-50.583,11.788-66.41L556.76,249.443z"/>

    </g>
      <g id="UPPER_BODY">
        		<path clip-path="url(#SVGID_8_)" fill="#BF2A43" d="M185.841,211.295c0-6.711,2.463-13.213,7.053-19.393
			c6.161,40.755,89.938,73.113,192.911,73.685c102.973-0.572,186.749-32.93,192.909-73.685c4.591,6.18,7.055,12.682,7.055,19.393
			c0,13.957-10.599,27.009-29.01,38.147l53.637-6.458c0.938-4.044,1.831-7.415,2.654-9.884c4.218-12.653,4.476-27.822,3.999-37.989
			c-11.223-3.937-60.893-23.446-76.621-33.624c-17.146-11.095-39.335-28.242-45.388-33.285c-5.22-4.348-10.436-13.184-15.007-16.833
			c-21.415-2.716-64.327-7.767-90.096-8.146c-27.508-0.405-77.35,6.383-98.171,9.424c-4.217,4.14-8.9,11.652-13.583,15.555
			c-6.051,5.043-28.242,22.19-45.387,33.285c-17.148,11.095-74.639,33.285-78.674,34.293c-0.499,0.125-1.509,0.715-2.927,1.709
			c0.61,12.24,3.212,28.212,6.408,44.626l57.248,7.327C196.438,238.304,185.841,225.252,185.841,211.295"/>

      </g>
      <g id="SLEEVE" >
		<path clip-path="url(#SVGID_12_)" fill="#BF2A43" d="M171.268,307.739c-4.622-25.881-18.55-79.695-20.073-110.249
			c-10.045,7.048-40.672,34.557-56.583,62.843C76.456,292.61,80.491,379.352,80.491,383.387c0,4.035-1.008,17.146-1.008,17.146
			l-3.026,6.052c0,0,34.294,9.078,63.544,9.078c29.25,0,45.389-5.044,45.389-5.044l-1.009-27.232c0,0,0.857,1.594,2.017,4.181
			v-18.302C186.397,357.163,176.311,335.981,171.268,307.739"/>
		<path clip-path="url(#SVGID_12_)" fill="#BF2A43" d="M693.741,400.534c0,0-1.009-13.112-1.009-17.147
			c0-4.033,4.035-90.776-14.12-123.052c-18.156-32.277-55.476-63.544-59.51-64.554c-0.333-0.083-1.04-0.313-2.054-0.669
			c0.478,10.167,0.22,25.336-3.998,37.989c-7.061,21.182-19.165,107.924-22.19,129.106c-1.161,8.123-2.469,16.836-3.641,24.496
			c0.954-2.07,1.623-3.316,1.623-3.316l-1.008,27.234c0,0,16.138,5.043,45.389,5.043c29.25,0,63.544-9.078,63.544-9.078
			L693.741,400.534z"/>
      </g>
    </g>    
	</g>
	<g clip-path="url(#SVGID_2_)">
		<defs>
			<rect id="SVGID_5_" x="22" y="54.007" width="728.396" height="942.631"/>
		</defs>
		<clipPath id="SVGID_6_">
			<use xlink:href="#SVGID_5_"  overflow="visible"/>
		</clipPath>
	</g>
	<g clip-path="url(#SVGID_2_)">
		<defs>
			<rect id="SVGID_7_" x="22" y="54.007" width="728.396" height="942.631"/>
		</defs>
		<clipPath id="SVGID_8_">
			<use xlink:href="#SVGID_7_"  overflow="visible"/>
		</clipPath>
	</g>
	<g id="SIDE_PANELS" clip-path="url(#SVGID_2_)">
		<defs>
			<rect id="SVGID_9_" x="22" y="54.007" width="728.396" height="942.631"/>
		</defs>
		<clipPath id="SVGID_10_">
			<use xlink:href="#SVGID_9_"  overflow="visible"/>
		</clipPath>
		<path clip-path="url(#SVGID_10_)" d="M240.699,445.063c0.136-1,0.243-1.992,0.319-2.98l-13.447-0.044
			c-2.368-0.01-17.477,0.115-32.333,0.332c0.116,1.069,0.238,2.141,0.365,3.214c14.691-0.24,29.556-0.39,31.858-0.407
			L240.699,445.063z"/>
		<path clip-path="url(#SVGID_10_)" d="M239.964,449.281c0.226-1.074,0.421-2.134,0.584-3.181l-13.016,0.117
			c-2.295,0.017-17.128,0.167-31.806,0.408c0.137,1.134,0.281,2.266,0.43,3.397c14.465-0.26,28.994-0.431,31.226-0.478
			L239.964,449.281z"/>
		<path clip-path="url(#SVGID_10_)" d="M213.43,436.202c4.617,0.079,9.346,0.159,14.215,0.243l13.486,0.213
			c-0.031-0.863-0.084-1.731-0.163-2.606l-13.35-0.371c-2.504-0.072-18.082-0.002-33.232,0.166c0.073,0.812,0.149,1.626,0.229,2.449
			C203.941,436.22,212.455,436.185,213.43,436.202"/>
		<path clip-path="url(#SVGID_10_)" d="M227.548,440.811l13.546,0.049c0.049-0.931,0.071-1.859,0.064-2.789l-13.56-0.211
			c-4.872-0.082-9.602-0.16-14.218-0.24c-0.958-0.015-9.376,0.019-18.628,0.096c0.112,1.134,0.23,2.277,0.352,3.425
			C209.995,440.924,225.165,440.801,227.548,440.811"/>
		<path clip-path="url(#SVGID_10_)" d="M227.865,427.715l12.257,0.497c-0.146-0.745-0.309-1.498-0.487-2.26l-12.006-0.629
			c-2.678-0.14-18.628-0.134-33.963-0.026c0.064,0.818,0.13,1.652,0.198,2.5C209.294,427.652,225.287,427.61,227.865,427.715"/>
		<path clip-path="url(#SVGID_10_)" d="M238.611,454.639l-11.11,0.371c-2.128,0.072-16.309,0.267-30.563,0.546
			c0.232,1.52,0.474,3.024,0.73,4.5c13.897-0.269,27.572-0.458,29.613-0.529C233.039,459.327,237.696,457.307,238.611,454.639"/>
		<path clip-path="url(#SVGID_10_)" d="M227.987,423.351l11.111,0.587c-1.062-2.574-5.612-4.584-11.202-4.887
			c-2.753-0.148-19.145-0.146-34.697-0.041c0.098,1.365,0.201,2.804,0.315,4.308C209.025,423.209,225.235,423.206,227.987,423.351"
			/>
		<path clip-path="url(#SVGID_10_)" d="M239.055,453.081c0.267-0.999,0.507-1.98,0.724-2.948l-12.296,0.261
			c-2.229,0.045-16.749,0.217-31.215,0.479c0.142,1.05,0.287,2.099,0.438,3.141c14.232-0.278,28.41-0.471,30.531-0.542
			L239.055,453.081z"/>
		<path clip-path="url(#SVGID_10_)" d="M229.717,479.731l13.049,0.219c-0.097-0.801-0.211-1.609-0.348-2.427l-12.823-0.368
			c-1.845-0.053-14.351,0.013-27.695,0.161c0.337,0.927,0.686,1.805,1.048,2.623C215.924,479.778,227.901,479.699,229.717,479.731"
			/>
		<path clip-path="url(#SVGID_10_)" d="M242.664,492.564c0.136-1.002,0.243-1.995,0.319-2.982l-13.448,0.107
			c-1.565,0.012-11.495,0.112-22.882,0.277c0.292,1.004,0.586,2.064,0.885,3.177c10.961-0.173,20.392-0.284,21.887-0.313
			L242.664,492.564z"/>
		<path clip-path="url(#SVGID_10_)" d="M241.929,496.79c0.226-1.078,0.421-2.138,0.584-3.187l-13.016,0.263
			c-1.484,0.028-10.809,0.141-21.682,0.312c0.285,1.077,0.571,2.198,0.863,3.362c10.424-0.178,19.249-0.3,20.668-0.344
			L241.929,496.79z"/>
		<path clip-path="url(#SVGID_10_)" d="M215.395,484.015c4.617,0.026,9.347,0.053,14.215,0.082l13.487,0.061
			c-0.03-0.863-0.084-1.73-0.162-2.604l-13.351-0.219c-1.757-0.029-13.268,0.046-25.895,0.2c0.342,0.718,0.695,1.563,1.062,2.546
			C210.515,484.035,214.894,484.012,215.395,484.015"/>
		<path clip-path="url(#SVGID_10_)" d="M243.061,488.358c0.049-0.931,0.071-1.859,0.064-2.789l-13.56-0.057
			c-4.874-0.026-9.604-0.052-14.22-0.078c-0.479-0.002-4.603,0.021-10.091,0.062c0.338,0.988,0.685,2.072,1.037,3.248
			c11.531-0.168,21.637-0.271,23.222-0.282L243.061,488.358z"/>
		<path clip-path="url(#SVGID_10_)" d="M229.833,475.366l12.258,0.356c-0.146-0.741-0.309-1.493-0.487-2.254l-12.009-0.491
			c-1.995-0.083-15.23-0.037-29.055,0.098c0.239,0.847,0.488,1.669,0.746,2.459C214.964,475.376,227.922,475.309,229.833,475.366"/>
		<path clip-path="url(#SVGID_10_)" d="M240.576,502.163l-11.111,0.496c-1.332,0.059-9.568,0.19-19.466,0.372
			c0.338,1.456,0.68,2.954,1.023,4.494c9.325-0.169,16.967-0.289,18.222-0.348C235.001,506.913,239.659,504.841,240.576,502.163"/>
		<path clip-path="url(#SVGID_10_)" d="M229.956,471.001l11.112,0.46c-1.062-2.563-5.612-4.521-11.204-4.76
			c-2.125-0.09-16.364-0.042-30.884,0.104c0.324,1.486,0.664,2.918,1.022,4.294C214.172,470.962,227.878,470.915,229.956,471.001"/>
		<path clip-path="url(#SVGID_10_)" d="M241.019,500.6c0.266-1.001,0.508-1.986,0.723-2.955l-12.294,0.398
			c-1.415,0.045-10.184,0.167-20.562,0.343c0.249,1.011,0.499,2.042,0.752,3.109c9.941-0.182,18.233-0.312,19.562-0.372
			L241.019,500.6z"/>
		<path clip-path="url(#SVGID_10_)" d="M231.458,527.497l13.058,0.09c-0.133-0.805-0.285-1.617-0.458-2.438l-12.838-0.238
			c-1.156-0.021-7.975,0.012-16.528,0.095c0.174,0.868,0.348,1.743,0.521,2.62C223.618,527.534,230.295,527.488,231.458,527.497"/>
		<path clip-path="url(#SVGID_10_)" d="M244.985,540.286c0.091-1.01,0.152-2.011,0.185-3.006l-13.444,0.231
			c-1.076,0.017-6.987,0.08-14.563,0.18c0.2,1.06,0.401,2.124,0.602,3.184c7.292-0.104,12.95-0.177,13.994-0.206L244.985,540.286z"
			/>
		<path clip-path="url(#SVGID_10_)" d="M244.441,544.545c0.177-1.086,0.324-2.156,0.439-3.214l-13.005,0.379
			c-1.042,0.029-6.664,0.1-13.916,0.205c0.212,1.125,0.421,2.249,0.629,3.373c6.94-0.111,12.28-0.189,13.287-0.229L244.441,544.545z
			"/>
		<path clip-path="url(#SVGID_10_)" d="M231.55,531.887l13.488-0.068c-0.07-0.868-0.164-1.74-0.28-2.619L231.4,529.11
			c-1.14-0.008-7.646,0.036-15.869,0.124c0.176,0.901,0.354,1.806,0.53,2.713c0.701-0.003,1.157-0.006,1.271-0.007
			C221.95,531.923,226.68,531.906,231.55,531.887"/>
		<path clip-path="url(#SVGID_10_)" d="M245.191,536.047c0.006-0.937-0.015-1.872-0.062-2.807l-13.561,0.071
			c-4.875,0.02-9.605,0.039-14.223,0.057c-0.1,0-0.454,0.002-1.011,0.004c0.197,1.028,0.396,2.056,0.592,3.087
			c7.657-0.101,13.639-0.165,14.722-0.181L245.191,536.047z"/>
		<path clip-path="url(#SVGID_10_)" d="M231.378,523.107l12.273,0.231c-0.181-0.744-0.377-1.499-0.59-2.263l-12.027-0.367
			c-1.217-0.037-8.341-0.013-17.195,0.058c0.165,0.81,0.329,1.622,0.495,2.44C223.132,523.122,230.187,523.084,231.378,523.107"/>
		<path clip-path="url(#SVGID_10_)" d="M243.331,549.963l-11.089,0.587c-0.97,0.051-6.022,0.137-12.638,0.252
			c0.277,1.519,0.552,3.03,0.824,4.529c6.189-0.106,10.871-0.187,11.797-0.237C237.973,554.785,242.537,552.667,243.331,549.963"/>
		<path clip-path="url(#SVGID_10_)" d="M231.304,518.719l11.13,0.344c-1.179-2.568-5.815-4.488-11.417-4.664
			c-1.281-0.041-9.018-0.013-18.487,0.07c0.3,1.417,0.6,2.857,0.9,4.313C222.603,518.706,230.037,518.68,231.304,518.719"/>
		<path clip-path="url(#SVGID_10_)" d="M243.704,548.387c0.222-1.011,0.418-2.003,0.59-2.98l-12.278,0.503
			c-1.011,0.041-6.341,0.12-13.271,0.229c0.193,1.043,0.386,2.083,0.577,3.12c6.595-0.114,11.629-0.199,12.585-0.25L243.704,548.387
			z"/>
		<path clip-path="url(#SVGID_10_)" d="M246.501,575.497c-0.132-0.804-0.284-1.615-0.457-2.435l-12.837-0.151
			c-0.823-0.009-4.558,0.004-9.646,0.038c0.153,0.881,0.307,1.753,0.457,2.61c4.959-0.041,8.597-0.062,9.427-0.062H246.501z"/>
		<path clip-path="url(#SVGID_10_)" d="M246.969,588.196c0.091-1.01,0.152-2.011,0.184-3.008l-13.442,0.324
			c-0.755,0.018-3.764,0.051-7.942,0.1c0.192,1.102,0.375,2.158,0.552,3.177c3.897-0.054,6.694-0.093,7.422-0.119L246.969,588.196z"
			/>
		<path clip-path="url(#SVGID_10_)" d="M246.424,592.46c0.178-1.088,0.324-2.157,0.44-3.217l-13.003,0.468
			c-0.728,0.026-3.496,0.065-7.359,0.119c0.208,1.19,0.404,2.313,0.589,3.366c3.551-0.057,6.073-0.102,6.77-0.136L246.424,592.46z"
			/>
		<path clip-path="url(#SVGID_10_)" d="M247.022,579.728c-0.07-0.868-0.162-1.74-0.279-2.618l-13.357,0.002
			c-0.81,0-4.305,0.02-9.086,0.059c0.167,0.954,0.332,1.894,0.49,2.811c2.873-0.032,5.775-0.061,8.745-0.094L247.022,579.728z"/>
		<path clip-path="url(#SVGID_10_)" d="M247.175,583.956c0.007-0.937-0.013-1.873-0.06-2.808l-13.562,0.165
			c-2.893,0.031-5.719,0.062-8.516,0.092c0.177,1.02,0.348,2.011,0.517,2.976c4.255-0.049,7.318-0.084,8.08-0.101L247.175,583.956z"
			/>
		<path clip-path="url(#SVGID_10_)" d="M233.364,571.109l12.272,0.146c-0.18-0.744-0.377-1.497-0.59-2.26l-12.026-0.284
			c-0.868-0.021-4.842-0.017-10.201,0.011c0.144,0.817,0.286,1.627,0.427,2.426C228.571,571.112,232.511,571.097,233.364,571.109"/>
		<path clip-path="url(#SVGID_10_)" d="M245.314,597.887l-11.089,0.664c-0.662,0.039-2.94,0.089-6.155,0.15
			c0.302,1.647,0.535,2.862,0.689,3.561c0.065,0.295,0.122,0.623,0.168,0.97c2.744-0.054,4.67-0.099,5.281-0.136
			C239.956,602.747,244.519,600.595,245.314,597.887"/>
		<path clip-path="url(#SVGID_10_)" d="M233.29,566.719l11.13,0.267c-1.178-2.559-5.814-4.448-11.415-4.586
			c-0.918-0.021-5.371-0.015-11.304,0.019c0.259,1.456,0.515,2.897,0.765,4.314C228.138,566.704,232.379,566.697,233.29,566.719"/>
		<path clip-path="url(#SVGID_10_)" d="M245.688,596.308c0.221-1.013,0.418-2.007,0.59-2.986L234,593.911
			c-0.7,0.034-3.216,0.079-6.761,0.136c0.2,1.134,0.385,2.172,0.553,3.111c3.192-0.059,5.451-0.108,6.1-0.147L245.688,596.308z"/>
		<path clip-path="url(#SVGID_10_)" d="M248.485,623.408c-0.131-0.803-0.284-1.613-0.457-2.432l-12.835-0.063
			c-0.792-0.003-3.485,0.004-7.209,0.024c-0.107,0.865-0.218,1.736-0.333,2.616c3.999-0.031,6.921-0.05,7.779-0.054L248.485,623.408
			z"/>
		<path clip-path="url(#SVGID_10_)" d="M248.952,636.105c0.091-1.011,0.152-2.012,0.184-3.009l-13.439,0.417
			c-0.977,0.03-4.604,0.076-9.465,0.139c-0.161,1.083-0.317,2.152-0.473,3.203c5.074-0.076,8.903-0.138,9.969-0.184L248.952,636.105
			z"/>
		<path clip-path="url(#SVGID_10_)" d="M248.408,640.374c0.177-1.088,0.325-2.161,0.441-3.221l-13.002,0.558
			c-1.094,0.047-5.038,0.11-10.242,0.189c-0.171,1.167-0.337,2.301-0.496,3.4c5.432-0.097,9.587-0.176,10.738-0.239L248.408,640.374
			z"/>
		<path clip-path="url(#SVGID_10_)" d="M249.007,627.635c-0.07-0.867-0.163-1.739-0.28-2.617l-13.356,0.096
			c-0.873,0.005-3.857,0.024-7.936,0.057c-0.124,0.927-0.252,1.857-0.384,2.788c3.961-0.023,7.124-0.046,8.47-0.069L249.007,627.635
			z"/>
		<path clip-path="url(#SVGID_10_)" d="M249.159,631.863c0.007-0.937-0.013-1.873-0.061-2.809l-13.559,0.258
			c-1.374,0.025-4.625,0.05-8.691,0.073c-0.145,1.015-0.29,2.026-0.437,3.028c4.702-0.059,8.214-0.104,9.208-0.134L249.159,631.863z
			"/>
		<path clip-path="url(#SVGID_10_)" d="M235.35,619.108l12.271,0.063c-0.18-0.742-0.377-1.494-0.591-2.256l-12.024-0.202
			c-0.75-0.013-3.168-0.013-6.534-0.004c-0.085,0.794-0.177,1.604-0.272,2.426C231.896,619.113,234.562,619.104,235.35,619.108"/>
		<path clip-path="url(#SVGID_10_)" d="M247.298,645.81l-11.086,0.74c-1.249,0.083-5.887,0.188-11.871,0.311
			c-0.225,1.746-0.397,3.282-0.504,4.563c6.198-0.129,11.04-0.238,12.357-0.326C241.94,650.709,246.502,648.524,247.298,645.81"/>
		<path clip-path="url(#SVGID_10_)" d="M235.277,614.72l11.128,0.189c-1.177-2.552-5.814-4.408-11.414-4.507
			c-0.688-0.013-2.892-0.014-5.988-0.006c-0.079,1.357-0.19,2.8-0.332,4.319C232.075,614.705,234.517,614.707,235.277,614.72"/>
		<path clip-path="url(#SVGID_10_)" d="M247.67,644.229c0.222-1.016,0.419-2.009,0.592-2.991l-12.275,0.674
			c-1.178,0.063-5.444,0.146-11.001,0.245c-0.157,1.096-0.305,2.15-0.44,3.15c5.729-0.115,10.143-0.214,11.333-0.293L247.67,644.229
			z"/>
		<path clip-path="url(#SVGID_10_)" d="M250.47,671.319c-0.132-0.803-0.285-1.611-0.457-2.43l-12.833,0.024
			c-1.77,0.004-8.529,0.046-16.766,0.123c-0.227,0.861-0.462,1.747-0.704,2.653c8.632-0.101,15.8-0.166,17.707-0.191L250.47,671.319
			z"/>
		<path clip-path="url(#SVGID_10_)" d="M250.936,684.016c0.091-1.011,0.152-2.015,0.184-3.011l-13.437,0.508
			c-1.869,0.069-10.54,0.201-20.746,0.383c-0.295,1.075-0.595,2.165-0.897,3.265c10.386-0.211,19.385-0.376,21.674-0.488
			L250.936,684.016z"/>
		<path clip-path="url(#SVGID_10_)" d="M250.407,688.318c0.174-1.099,0.316-2.181,0.426-3.247l-12.998,0.646
			c-2.203,0.107-11.437,0.278-22.087,0.495c-0.316,1.151-0.637,2.315-0.958,3.485c10.971-0.252,20.618-0.458,23.06-0.608
			L250.407,688.318z"/>
		<path clip-path="url(#SVGID_10_)" d="M237.508,675.891l13.482-0.347c-0.069-0.87-0.162-1.739-0.279-2.615l-13.354,0.187
			c-1.943,0.024-9.282,0.094-18.082,0.199c-0.262,0.971-0.531,1.964-0.806,2.976c2.535-0.022,4.311-0.04,4.824-0.052
			C227.912,676.124,232.64,676.01,237.508,675.891"/>
		<path clip-path="url(#SVGID_10_)" d="M251.143,679.771c0.007-0.937-0.013-1.873-0.06-2.808l-13.557,0.353
			c-4.873,0.119-9.602,0.234-14.219,0.349c-0.543,0.015-2.484,0.033-5.227,0.058c-0.263,0.967-0.532,1.945-0.804,2.938
			c9.796-0.17,18.168-0.3,20.33-0.38L251.143,679.771z"/>
		<path clip-path="url(#SVGID_10_)" d="M249.605,667.086c-0.179-0.741-0.375-1.492-0.589-2.252l-12.022-0.118
			c-1.704-0.018-7.874,0-15.48,0.048c-0.199,0.791-0.408,1.612-0.627,2.463c8.095-0.074,14.709-0.115,16.451-0.117L249.605,667.086z
			"/>
		<path clip-path="url(#SVGID_10_)" d="M249.321,693.806l-11.083,0.808c-2.477,0.181-13.101,0.435-25.001,0.741
			c-0.423,1.543-0.844,3.089-1.262,4.632c12.352-0.325,23.553-0.597,26.264-0.795C243.984,698.772,248.538,696.546,249.321,693.806"
			/>
		<path clip-path="url(#SVGID_10_)" d="M237.264,662.719l11.126,0.113c-1.177-2.544-5.813-4.368-11.411-4.43
			c-1.516-0.017-7.036-0.003-13.978,0.036c-0.267,1.268-0.602,2.719-0.991,4.326C229.512,662.719,235.581,662.701,237.264,662.719"
			/>
		<path clip-path="url(#SVGID_10_)" d="M249.687,692.209c0.216-1.023,0.409-2.028,0.577-3.018l-12.271,0.755
			c-2.391,0.145-12.247,0.354-23.44,0.609c-0.296,1.074-0.592,2.153-0.889,3.235c11.515-0.296,21.745-0.541,24.234-0.723
			L249.687,692.209z"/>
		<path clip-path="url(#SVGID_10_)" d="M252.442,719.52c-0.135-0.809-0.292-1.625-0.467-2.449l-12.833,0.066
			c-3.189,0.016-17.109,0.148-31.735,0.368c-0.227,0.922-0.448,1.83-0.661,2.72c14.948-0.26,29.291-0.434,32.645-0.486
			L252.442,719.52z"/>
		<path clip-path="url(#SVGID_10_)" d="M252.963,732.321c0.087-1.021,0.144-2.032,0.171-3.038l-13.437,0.536
			c-2.964,0.115-18.827,0.391-35.201,0.77c-0.22,1.185-0.408,2.296-0.559,3.318c16.251-0.407,32.179-0.725,35.805-0.908
			L252.963,732.321z"/>
		<path clip-path="url(#SVGID_10_)" d="M252.436,736.629c0.174-1.1,0.316-2.182,0.426-3.252l-12.997,0.669
			c-3.42,0.174-19.564,0.494-36.073,0.911c-0.118,0.903-0.203,1.728-0.248,2.46c-0.021,0.345-0.052,0.706-0.076,1.054
			c16.516-0.453,32.704-0.819,36.412-1.052L252.436,736.629z"/>
		<path clip-path="url(#SVGID_10_)" d="M239.499,724.158l13.483-0.381c-0.074-0.875-0.17-1.753-0.292-2.636l-13.352,0.224
			c-3.38,0.053-17.895,0.229-32.977,0.493c-0.237,1.015-0.461,2.003-0.676,2.964c9.592-0.14,17.952-0.235,19.602-0.28
			C229.902,724.417,234.631,724.29,239.499,724.158"/>
		<path clip-path="url(#SVGID_10_)" d="M253.151,728.04c0.002-0.945-0.021-1.888-0.074-2.831l-13.555,0.383
			c-4.873,0.133-9.6,0.261-14.216,0.385c-1.674,0.046-10.195,0.144-19.936,0.286c-0.229,1.067-0.442,2.098-0.635,3.078
			c15.862-0.356,31.332-0.625,34.88-0.762L253.151,728.04z"/>
		<path clip-path="url(#SVGID_10_)" d="M251.559,715.255c-0.184-0.746-0.383-1.504-0.599-2.269l-12.023-0.077
			c-3.214-0.021-16.437,0.068-30.438,0.237c-0.217,0.854-0.432,1.701-0.639,2.535c14.503-0.217,28.263-0.35,31.431-0.363
			L251.559,715.255z"/>
		<path clip-path="url(#SVGID_10_)" d="M251.35,742.117l-11.083,0.824c-3.577,0.269-20.223,0.686-37.268,1.198
			c-0.17,1.761-0.362,3.567-0.566,5.404c18.224-0.876,32.32-1.61,37.837-2.023C246.014,747.092,250.566,744.86,251.35,742.117"/>
		<path clip-path="url(#SVGID_10_)" d="M239.198,710.9l11.127,0.071c-1.188-2.562-5.83-4.382-11.429-4.418
			c-2.996-0.02-15.391,0.061-28.737,0.216c-0.39,1.47-0.771,2.927-1.143,4.362C222.914,710.965,235.997,710.879,239.198,710.9"/>
		<path clip-path="url(#SVGID_10_)" d="M251.716,740.52c0.217-1.023,0.409-2.027,0.577-3.018l-12.27,0.772
			c-3.593,0.223-19.925,0.592-36.616,1.051c-0.079,1.065-0.168,2.149-0.268,3.256c16.774-0.5,33.159-0.913,36.787-1.184
			L251.716,740.52z"/>
		<path clip-path="url(#SVGID_10_)" d="M227.909,432.073l13.048,0.368c-0.097-0.803-0.212-1.612-0.349-2.432l-12.821-0.513
			c-2.538-0.102-18.414-0.058-33.775,0.087c0.073,0.875,0.15,1.759,0.229,2.657C209.555,432.07,225.353,431.999,227.909,432.073"/>
		<path clip-path="url(#SVGID_10_)" d="M542.953,442.039l-13.448,0.044c0.077,0.988,0.184,1.979,0.319,2.98l13.239,0.115
			c2.321,0.017,19.761,0.169,34.558,0.414c0.127-1.074,0.248-2.145,0.365-3.214C563.049,442.156,545.343,442.028,542.953,442.039"/>
		<path clip-path="url(#SVGID_10_)" d="M529.977,446.1c0.162,1.046,0.355,2.106,0.582,3.181l12.582,0.263
			c2.25,0.047,19.32,0.222,33.926,0.483c0.149-1.129,0.295-2.262,0.431-3.397c-14.788-0.242-32.191-0.396-34.506-0.413
			L529.977,446.1z"/>
		<path clip-path="url(#SVGID_10_)" d="M542.904,433.682l-13.351,0.371c-0.077,0.875-0.132,1.742-0.162,2.606l13.486-0.214
			c4.869-0.083,9.598-0.163,14.216-0.242c0.935-0.016,11.642,0.015,21.516,0.085c0.08-0.819,0.154-1.629,0.228-2.434
			C563.661,433.682,545.433,433.609,542.904,433.682"/>
		<path clip-path="url(#SVGID_10_)" d="M557.143,437.622c-4.617,0.078-9.348,0.157-14.22,0.24l-13.559,0.208
			c-0.006,0.931,0.015,1.859,0.063,2.789l13.547-0.047c2.404-0.012,20.18,0.115,35.145,0.337c0.123-1.153,0.241-2.302,0.354-3.441
			C568.659,437.639,558.061,437.606,557.143,437.622"/>
		<path clip-path="url(#SVGID_10_)" d="M542.893,425.323l-12.005,0.628c-0.178,0.763-0.342,1.516-0.487,2.261l12.256-0.497
			c2.605-0.107,21.291-0.062,36.703,0.085c0.068-0.848,0.136-1.683,0.198-2.5C564.253,425.189,545.598,425.181,542.893,425.323"/>
		<path clip-path="url(#SVGID_10_)" d="M531.911,454.639c0.915,2.668,5.571,4.688,11.331,4.888
			c2.057,0.072,18.17,0.263,32.313,0.536c0.256-1.476,0.497-2.979,0.729-4.5c-14.444-0.282-31.118-0.48-33.261-0.552
			L531.911,454.639z"/>
		<path clip-path="url(#SVGID_10_)" d="M542.627,419.051c-5.591,0.302-10.143,2.313-11.203,4.887l11.111-0.587
			c2.779-0.146,21.718-0.14,37.174-0.029c0.113-1.504,0.219-2.942,0.316-4.309C564.576,418.904,545.406,418.902,542.627,419.051"/>
		<path clip-path="url(#SVGID_10_)" d="M530.744,450.133c0.216,0.966,0.458,1.949,0.723,2.948l11.819,0.391
			c2.138,0.07,18.817,0.267,33.23,0.549c0.152-1.042,0.297-2.091,0.438-3.145c-14.612-0.262-31.666-0.438-33.915-0.484
			L530.744,450.133z"/>
		<path clip-path="url(#SVGID_10_)" d="M540.927,477.155l-12.823,0.368c-0.136,0.818-0.252,1.626-0.348,2.427l13.048-0.219
			c1.839-0.033,15.949,0.049,29.469,0.213c0.362-0.818,0.712-1.695,1.049-2.623C557.502,477.168,542.792,477.101,540.927,477.155"/>
		<path clip-path="url(#SVGID_10_)" d="M527.539,489.582c0.075,0.989,0.184,1.981,0.32,2.982l13.238,0.266
			c1.517,0.028,12.798,0.144,24.584,0.321c0.3-1.113,0.596-2.174,0.888-3.177c-12.166-0.17-23.995-0.274-25.583-0.285
			L527.539,489.582z"/>
		<path clip-path="url(#SVGID_10_)" d="M528.01,493.603c0.163,1.048,0.358,2.109,0.584,3.187l12.583,0.406
			c1.441,0.046,12.056,0.17,23.368,0.352c0.288-1.164,0.577-2.284,0.861-3.362c-11.712-0.177-22.873-0.29-24.38-0.318
			L528.01,493.603z"/>
		<path clip-path="url(#SVGID_10_)" d="M540.937,481.334l-13.35,0.219c-0.078,0.874-0.133,1.74-0.164,2.604l13.489-0.061
			c4.869-0.028,9.598-0.056,14.215-0.082c0.493-0.003,6.417,0.019,13.347,0.063c0.363-0.979,0.717-1.822,1.057-2.538
			C556.305,481.382,542.716,481.303,540.937,481.334"/>
		<path clip-path="url(#SVGID_10_)" d="M555.178,485.435c-4.618,0.025-9.347,0.051-14.221,0.078l-13.561,0.056
			c-0.004,0.931,0.017,1.859,0.065,2.791l13.548,0.104c1.606,0.01,13.63,0.115,25.92,0.288c0.354-1.178,0.701-2.266,1.039-3.256
			C561.284,485.454,555.649,485.432,555.178,485.435"/>
		<path clip-path="url(#SVGID_10_)" d="M540.926,472.976l-12.007,0.491c-0.18,0.763-0.342,1.513-0.488,2.255l12.259-0.356
			c1.932-0.058,17.145,0.013,31.247,0.171c0.257-0.789,0.505-1.611,0.746-2.459C558.478,472.941,542.942,472.893,540.926,472.976"/>
		<path clip-path="url(#SVGID_10_)" d="M529.946,502.163c0.917,2.678,5.573,4.75,11.331,5.014c1.281,0.06,10.602,0.184,20.923,0.358
			c0.343-1.541,0.685-3.039,1.023-4.494c-10.84-0.188-20.808-0.321-22.165-0.382L529.946,502.163z"/>
		<path clip-path="url(#SVGID_10_)" d="M540.658,466.702c-5.592,0.24-10.143,2.198-11.203,4.76l11.111-0.46
			c2.099-0.087,18.15-0.038,32.655,0.105c0.356-1.377,0.698-2.809,1.022-4.296C559.46,466.662,542.808,466.611,540.658,466.702"/>
		<path clip-path="url(#SVGID_10_)" d="M528.779,497.645c0.216,0.969,0.458,1.954,0.726,2.955l11.816,0.523
			c1.355,0.062,11.385,0.193,22.263,0.382c0.253-1.067,0.502-2.099,0.752-3.109c-11.271-0.183-21.822-0.306-23.262-0.353
			L528.779,497.645z"/>
		<path clip-path="url(#SVGID_10_)" d="M539.302,524.91l-12.838,0.239c-0.173,0.821-0.325,1.633-0.458,2.438l13.058-0.09
			c1.193-0.009,9.448,0.04,18.945,0.135c0.173-0.877,0.346-1.751,0.521-2.621C548.896,524.925,540.488,524.887,539.302,524.91"/>
		<path clip-path="url(#SVGID_10_)" d="M525.354,537.28c0.032,0.995,0.094,1.997,0.185,3.006l13.228,0.382
			c1.075,0.03,8.231,0.105,16.693,0.216c0.198-1.062,0.399-2.124,0.602-3.184c-8.729-0.105-16.155-0.172-17.265-0.19L525.354,537.28
			z"/>
		<path clip-path="url(#SVGID_10_)" d="M525.643,541.332c0.114,1.058,0.262,2.127,0.439,3.214l12.564,0.514
			c1.04,0.042,7.858,0.125,15.987,0.24c0.208-1.124,0.419-2.248,0.629-3.373c-8.423-0.11-15.542-0.185-16.616-0.215L525.643,541.332
			z"/>
		<path clip-path="url(#SVGID_10_)" d="M539.122,529.11l-13.357,0.089c-0.117,0.879-0.211,1.751-0.279,2.619l13.487,0.068
			c4.87,0.019,9.599,0.037,14.218,0.054c0.179,0.001,1.696,0.006,3.972,0.015c0.176-0.908,0.353-1.813,0.53-2.714
			C548.363,529.148,540.294,529.102,539.122,529.11"/>
		<path clip-path="url(#SVGID_10_)" d="M538.954,533.311l-13.562-0.071c-0.048,0.936-0.068,1.87-0.062,2.807l13.542,0.231
			c1.115,0.018,8.618,0.084,17.422,0.191c0.196-1.032,0.394-2.061,0.592-3.089c-2.134-0.008-3.539-0.013-3.71-0.013
			C548.56,533.35,543.829,533.331,538.954,533.311"/>
		<path clip-path="url(#SVGID_10_)" d="M539.489,520.708l-12.027,0.367c-0.212,0.764-0.409,1.519-0.59,2.263l12.272-0.231
			c1.223-0.023,9.883,0.017,19.745,0.106c0.165-0.819,0.33-1.632,0.495-2.442C549.474,520.696,540.737,520.67,539.489,520.708"/>
		<path clip-path="url(#SVGID_10_)" d="M527.191,549.963c0.796,2.703,5.358,4.822,11.106,5.131c0.961,0.05,7.066,0.136,14.496,0.25
			c0.271-1.5,0.546-3.01,0.823-4.53c-7.827-0.121-14.333-0.21-15.336-0.264L527.191,549.963z"/>
		<path clip-path="url(#SVGID_10_)" d="M539.504,514.399c-5.6,0.176-10.238,2.097-11.416,4.663l11.131-0.343
			c1.298-0.04,10.37-0.011,20.573,0.069c0.301-1.458,0.601-2.898,0.9-4.314C550.219,514.388,540.814,514.356,539.504,514.399"/>
		<path clip-path="url(#SVGID_10_)" d="M526.229,545.407c0.174,0.978,0.369,1.969,0.591,2.98l11.796,0.622
			c0.99,0.053,7.476,0.143,15.285,0.261c0.189-1.037,0.382-2.078,0.575-3.12c-8.117-0.115-14.926-0.198-15.968-0.24L526.229,545.407
			z"/>
		<path clip-path="url(#SVGID_10_)" d="M537.315,572.911l-12.837,0.151c-0.173,0.819-0.324,1.631-0.457,2.435h13.057
			c0.877,0,5.84,0.023,12.127,0.069c0.149-0.856,0.303-1.73,0.456-2.613C543.26,572.916,538.183,572.901,537.315,572.911"/>
		<path clip-path="url(#SVGID_10_)" d="M523.37,585.188c0.032,0.997,0.094,1.998,0.184,3.008l13.226,0.474
			c0.791,0.027,4.827,0.073,10.123,0.133c0.176-1.018,0.359-2.076,0.55-3.178c-5.55-0.055-9.825-0.093-10.641-0.113L523.37,585.188z
			"/>
		<path clip-path="url(#SVGID_10_)" d="M523.659,589.243c0.114,1.059,0.262,2.129,0.438,3.217l12.564,0.6
			c0.768,0.036,4.512,0.088,9.469,0.153c0.185-1.053,0.381-2.178,0.588-3.368c-5.259-0.06-9.265-0.106-10.058-0.134L523.659,589.243
			z"/>
		<path clip-path="url(#SVGID_10_)" d="M523.779,577.109c-0.116,0.878-0.209,1.749-0.278,2.618l13.486,0.16
			c1.671,0.019,6.131,0.036,11.453,0.053c0.157-0.902,0.319-1.826,0.482-2.764c-6.121-0.042-10.926-0.065-11.786-0.065
			L523.779,577.109z"/>
		<path clip-path="url(#SVGID_10_)" d="M523.408,581.147c-0.048,0.936-0.068,1.871-0.062,2.808l13.541,0.323
			c0.819,0.018,5.16,0.057,10.778,0.113c0.171-0.981,0.347-1.989,0.527-3.026c-5.22-0.018-9.577-0.036-11.225-0.053L523.408,581.147
			z"/>
		<path clip-path="url(#SVGID_10_)" d="M537.502,568.711l-12.024,0.284c-0.213,0.763-0.411,1.517-0.591,2.26l12.272-0.146
			c0.896-0.012,6.189,0.006,12.818,0.045c0.14-0.801,0.284-1.611,0.428-2.43C543.746,568.694,538.413,568.689,537.502,568.711"/>
		<path clip-path="url(#SVGID_10_)" d="M525.208,597.887c0.796,2.708,5.357,4.86,11.106,5.208c0.706,0.043,3.791,0.098,7.979,0.162
			c0.047-0.357,0.103-0.693,0.171-0.996c0.154-0.695,0.386-1.902,0.685-3.537c-4.644-0.07-8.106-0.129-8.852-0.173L525.208,597.887z
			"/>
		<path clip-path="url(#SVGID_10_)" d="M537.519,562.399c-5.601,0.138-10.238,2.027-11.415,4.586l11.129-0.267
			c0.952-0.022,6.569-0.015,13.524,0.019c0.251-1.418,0.506-2.858,0.767-4.316C544.332,562.386,538.475,562.376,537.519,562.399"/>
		<path clip-path="url(#SVGID_10_)" d="M524.245,593.322c0.173,0.979,0.37,1.973,0.591,2.986l11.793,0.702
			c0.729,0.044,4.176,0.102,8.798,0.171c0.169-0.94,0.354-1.98,0.554-3.117c-4.949-0.065-8.686-0.118-9.459-0.153L524.245,593.322z"
			/>
		<path clip-path="url(#SVGID_10_)" d="M535.329,620.913l-12.835,0.063c-0.172,0.819-0.324,1.629-0.457,2.432l13.056,0.091
			c0.926,0.004,5.099,0.026,10.482,0.062c-0.116-0.88-0.229-1.753-0.334-2.618C540.118,620.918,536.193,620.909,535.329,620.913"/>
		<path clip-path="url(#SVGID_10_)" d="M521.386,633.096c0.032,0.997,0.094,1.998,0.185,3.009l13.224,0.565
			c1.113,0.047,6.292,0.112,12.672,0.195c-0.155-1.052-0.313-2.121-0.472-3.205c-6.188-0.068-11.144-0.118-12.168-0.148
			L521.386,633.096z"/>
		<path clip-path="url(#SVGID_10_)" d="M521.676,637.153c0.115,1.06,0.262,2.133,0.438,3.221l12.563,0.688
			c1.189,0.064,6.723,0.149,13.439,0.249c-0.158-1.101-0.325-2.234-0.498-3.4c-6.501-0.084-11.805-0.151-12.942-0.199
			L521.676,637.153z"/>
		<path clip-path="url(#SVGID_10_)" d="M521.795,625.018c-0.117,0.877-0.21,1.749-0.28,2.617l13.487,0.255
			c1.64,0.028,5.975,0.056,11.173,0.086c-0.13-0.935-0.26-1.869-0.385-2.798c-5.455-0.037-9.699-0.059-10.638-0.064L521.795,625.018
			z"/>
		<path clip-path="url(#SVGID_10_)" d="M521.425,629.055c-0.048,0.936-0.067,1.872-0.063,2.809l13.539,0.417
			c1.049,0.031,5.87,0.079,11.912,0.144c-0.146-1-0.291-2.009-0.438-3.022c-5.295-0.028-9.728-0.059-11.394-0.089L521.425,629.055z"
			/>
		<path clip-path="url(#SVGID_10_)" d="M535.517,616.712l-12.027,0.202c-0.21,0.762-0.407,1.514-0.587,2.256l12.27-0.063
			c0.864-0.004,4.758,0.006,9.852,0.031c-0.095-0.821-0.187-1.633-0.271-2.427C539.971,616.699,536.351,616.699,535.517,616.712"/>
		<path clip-path="url(#SVGID_10_)" d="M523.225,645.81c0.796,2.715,5.358,4.899,11.105,5.288c1.351,0.09,7.633,0.204,15.059,0.338
			c-0.106-1.281-0.278-2.818-0.504-4.564c-7.225-0.127-13.287-0.235-14.572-0.321L523.225,645.81z"/>
		<path clip-path="url(#SVGID_10_)" d="M535.53,610.401c-5.599,0.1-10.236,1.956-11.413,4.507l11.129-0.189
			c0.845-0.015,4.488-0.015,9.307-0.002c-0.143-1.519-0.254-2.96-0.331-4.319C539.689,610.388,536.311,610.388,535.53,610.401"/>
		<path clip-path="url(#SVGID_10_)" d="M522.262,641.237c0.174,0.981,0.369,1.976,0.59,2.991l11.792,0.785
			c1.229,0.081,7.047,0.183,14.037,0.304c-0.136-1-0.284-2.056-0.44-3.15c-6.834-0.104-12.486-0.189-13.705-0.256L522.262,641.237z"
			/>
		<path clip-path="url(#SVGID_10_)" d="M520.508,668.89c-0.172,0.817-0.322,1.627-0.456,2.43l13.053,0.18
			c1.943,0.025,10.719,0.094,20.41,0.198c-0.243-0.907-0.479-1.793-0.703-2.656c-9.327-0.078-17.663-0.123-19.47-0.127
			L520.508,668.89z"/>
		<path clip-path="url(#SVGID_10_)" d="M519.402,681.005c0.031,0.996,0.093,2,0.185,3.011l13.222,0.656
			c2.323,0.112,13.082,0.283,24.378,0.497c-0.304-1.099-0.603-2.187-0.898-3.263c-11.136-0.188-21.549-0.324-23.449-0.394
			L519.402,681.005z"/>
		<path clip-path="url(#SVGID_10_)" d="M519.688,685.07c0.111,1.067,0.253,2.149,0.425,3.247l12.56,0.771
			c2.477,0.151,13.937,0.362,25.765,0.621c-0.321-1.173-0.643-2.336-0.961-3.488c-11.537-0.222-22.551-0.395-24.79-0.505
			L519.688,685.07z"/>
		<path clip-path="url(#SVGID_10_)" d="M519.812,672.929c-0.118,0.876-0.211,1.746-0.28,2.615l13.483,0.347
			c2.686,0.065,12.576,0.13,21.682,0.193c-0.255-0.938-0.504-1.861-0.747-2.765c-9.845-0.107-18.806-0.179-20.784-0.204
			L519.812,672.929z"/>
		<path clip-path="url(#SVGID_10_)" d="M519.44,676.963c-0.048,0.935-0.067,1.871-0.062,2.808l13.537,0.51
			c2.197,0.081,12.274,0.214,23.033,0.388c-0.293-1.067-0.581-2.12-0.863-3.156c-9.216-0.065-19.362-0.131-22.089-0.197
			L519.44,676.963z"/>
		<path clip-path="url(#SVGID_10_)" d="M533.528,664.716l-12.022,0.118c-0.211,0.76-0.408,1.511-0.589,2.252l12.269,0.022
			c1.777,0.002,9.959,0.045,19.154,0.122c-0.221-0.85-0.431-1.672-0.629-2.464C542.969,664.717,535.271,664.698,533.528,664.716"/>
		<path clip-path="url(#SVGID_10_)" d="M521.202,693.806c0.783,2.74,5.337,4.967,11.08,5.386c2.752,0.2,15.892,0.478,28.971,0.809
			c-0.417-1.542-0.839-3.088-1.262-4.632c-12.674-0.313-25.192-0.57-27.706-0.755L521.202,693.806z"/>
		<path clip-path="url(#SVGID_10_)" d="M533.543,658.402c-5.599,0.062-10.234,1.886-11.41,4.43l11.126-0.113
			c1.722-0.018,9.309,0.001,17.956,0.048c-0.391-1.608-0.724-3.057-0.991-4.324C542.099,658.4,535.097,658.386,533.543,658.402"/>
		<path clip-path="url(#SVGID_10_)" d="M520.258,689.191c0.168,0.989,0.361,1.994,0.579,3.018l11.787,0.859
			c2.528,0.184,14.619,0.436,26.938,0.735c-0.297-1.082-0.593-2.16-0.888-3.234c-12.032-0.264-23.717-0.477-26.146-0.623
			L520.258,689.191z"/>
		<path clip-path="url(#SVGID_10_)" d="M518.548,717.07c-0.175,0.824-0.331,1.641-0.468,2.449l13.054,0.219
			c3.403,0.054,19.924,0.23,35.348,0.499c-0.213-0.891-0.434-1.798-0.661-2.72c-15.133-0.228-31.202-0.365-34.439-0.381
			L518.548,717.07z"/>
		<path clip-path="url(#SVGID_10_)" d="M517.387,729.283c0.029,1.006,0.086,2.017,0.172,3.038l13.221,0.678
			c3.688,0.186,21.888,0.511,38.51,0.929c-0.15-1.022-0.338-2.133-0.559-3.319c-16.745-0.391-34.889-0.672-37.906-0.789
			L517.387,729.283z"/>
		<path clip-path="url(#SVGID_10_)" d="M517.66,733.377c0.111,1.07,0.254,2.152,0.426,3.252l12.559,0.791
			c3.771,0.233,22.228,0.609,39.112,1.073c-0.024-0.354-0.056-0.725-0.077-1.076c-0.045-0.727-0.129-1.546-0.246-2.439
			c-16.869-0.427-35.296-0.756-38.775-0.93L517.66,733.377z"/>
		<path clip-path="url(#SVGID_10_)" d="M517.832,721.142c-0.12,0.883-0.217,1.76-0.291,2.636l13.482,0.381
			c4.869,0.132,9.595,0.259,14.213,0.384c1.646,0.045,11.878,0.141,22.301,0.278c-0.212-0.956-0.438-1.938-0.671-2.949
			c-15.543-0.271-32.248-0.451-35.681-0.507L517.832,721.142z"/>
		<path clip-path="url(#SVGID_10_)" d="M531,725.592l-13.557-0.383c-0.051,0.943-0.075,1.886-0.073,2.831l13.536,0.539
			c3.607,0.139,21.328,0.415,37.585,0.78c-0.193-0.988-0.407-2.022-0.639-3.097c-10.555-0.143-20.965-0.24-22.637-0.286
			C540.6,725.853,535.872,725.725,531,725.592"/>
		<path clip-path="url(#SVGID_10_)" d="M531.585,712.909l-12.022,0.077c-0.216,0.765-0.415,1.522-0.598,2.269l12.268,0.063
			c3.217,0.015,19.11,0.15,34.137,0.373c-0.21-0.835-0.425-1.683-0.643-2.537C550.162,712.979,534.85,712.888,531.585,712.909"/>
		<path clip-path="url(#SVGID_10_)" d="M519.173,742.117c0.784,2.743,5.336,4.975,11.08,5.403
			c3.812,0.284,22.887,0.724,40.455,1.257c-0.172-1.563-0.333-3.106-0.479-4.611c-17.416-0.523-36.33-0.951-39.974-1.225
			L519.173,742.117z"/>
		<path clip-path="url(#SVGID_10_)" d="M531.627,706.554c-5.599,0.036-10.241,1.856-11.43,4.418l11.126-0.071
			c3.252-0.021,18.409,0.067,32.887,0.238c-0.372-1.435-0.754-2.892-1.143-4.364C549.088,706.616,534.668,706.534,531.627,706.554"
			/>
		<path clip-path="url(#SVGID_10_)" d="M518.229,737.502c0.168,0.99,0.361,1.994,0.577,3.018l11.788,0.878
			c3.696,0.275,22.342,0.698,39.492,1.212c-0.1-1.109-0.188-2.194-0.269-3.259c-17.058-0.471-35.662-0.85-39.319-1.076
			L518.229,737.502z"/>
		<path clip-path="url(#SVGID_10_)" d="M542.735,429.496l-12.822,0.513c-0.135,0.82-0.252,1.628-0.348,2.432l13.048-0.368
			c2.583-0.075,21.048-0.001,36.369,0.173c0.08-0.897,0.156-1.784,0.229-2.658C563.856,429.439,545.299,429.393,542.735,429.496"/>
	</g>
	<g clip-path="url(#SVGID_2_)">
		<defs>
			<rect id="SVGID_11_" x="22" y="54.007" width="728.396" height="942.631"/>
		</defs>
		<clipPath id="SVGID_12_">
			<use xlink:href="#SVGID_11_"  overflow="visible"/>
		</clipPath>
	</g>
	<g id="COLLAR" clip-path="url(#SVGID_2_)">
		<defs>
			<rect id="SVGID_13_" x="22" y="54.007" width="728.396" height="942.631"/>
		</defs>
		<clipPath id="SVGID_14_">
			<use xlink:href="#SVGID_13_"  overflow="visible"/>
		</clipPath>
		<path clip-path="url(#SVGID_14_)" fill="#BF2A43" d="M389.938,103.223c25.77,0.379,68.681,5.43,90.096,8.147
			c-0.731-0.583-1.446-1.045-2.141-1.324c-5.043-2.017-12.103-6.051-12.103-6.051l-7.062-13.113c0,0-29.25-11.094-53.457-11.094
			h-37.319c-24.208,0-53.458,11.094-53.458,11.094l-7.06,13.113c0,0-7.062,4.035-12.105,6.051c-1.139,0.457-2.332,1.393-3.563,2.6
			C312.588,109.606,362.43,102.819,389.938,103.223"/>
	</g>
	<g clip-path="url(#SVGID_2_)">
		<defs>
			<rect id="SVGID_15_" x="22" y="54.007" width="728.396" height="942.631"/>
		</defs>
		<clipPath id="SVGID_16_">
			<use xlink:href="#SVGID_15_"  overflow="visible"/>
		</clipPath>
		<g opacity="0.35" clip-path="url(#SVGID_16_)">
			<g>
				<defs>
					<rect id="SVGID_17_" x="79.348" y="96.648" width="614.532" height="874.85"/>
				</defs>
				<clipPath id="SVGID_18_">
					<use xlink:href="#SVGID_17_"  overflow="visible"/>
				</clipPath>
				<path clip-path="url(#SVGID_18_)" fill="none" stroke="#FFCD72" stroke-miterlimit="10" stroke-dasharray="0.859,0.5" d="
					M193.458,828.196c0,0,52.449,99.854,97.839,119.018c45.388,19.165,130.114,18.155,164.407,9.079
					c34.293-9.079,67.579-36.312,78.673-52.449s47.406-76.657,47.406-76.657"/>
				<path clip-path="url(#SVGID_18_)" fill="none" stroke="#FFCD72" stroke-miterlimit="10" stroke-dasharray="0.859,0.5" d="
					M193.458,836.533c0,0,52.449,99.855,97.839,119.02c45.388,19.164,130.114,18.155,164.407,9.078
					c34.293-9.078,67.579-36.311,78.673-52.449c11.095-16.138,47.406-76.656,47.406-76.656"/>
				<path clip-path="url(#SVGID_18_)" fill="none" stroke="#FFCD72" stroke-miterlimit="10" stroke-dasharray="0.859,0.5" d="
					M79.457,395.579c0,0,27.424,5.141,55.705,5.141c28.281,0,49.991-2.285,49.991-2.285"/>
				<path clip-path="url(#SVGID_18_)" fill="none" stroke="#FFCD72" stroke-miterlimit="10" stroke-dasharray="0.859,0.5" d="
					M79.457,390.814c0,0,27.424,5.142,55.705,5.142c28.281,0,49.991-2.286,49.991-2.286"/>
				<path clip-path="url(#SVGID_18_)" fill="none" stroke="#FFCD72" stroke-miterlimit="10" stroke-dasharray="0.859,0.5" d="
					M693.771,395.579c0,0-27.423,5.141-55.704,5.141c-28.28,0-49.991-2.285-49.991-2.285"/>
				<path clip-path="url(#SVGID_18_)" fill="none" stroke="#FFCD72" stroke-miterlimit="10" stroke-dasharray="0.859,0.5" d="
					M693.771,390.814c0,0-27.423,5.142-55.704,5.142c-28.28,0-49.991-2.286-49.991-2.286"/>
				<path clip-path="url(#SVGID_18_)" fill="none" stroke="#FFCD72" stroke-miterlimit="10" stroke-dasharray="0.859,0.5" d="
					M307.208,104.552c0,0,47.348-7.806,82.729-7.284c35.38,0.52,75.963,6.764,75.963,6.764"/>
				<path clip-path="url(#SVGID_18_)" fill="none" stroke="#FFCD72" stroke-miterlimit="10" stroke-dasharray="0.859,0.5" d="
					M290.717,113.363c0,0,63.839-10.66,99.221-10.14c35.38,0.52,90.819,8.189,90.819,8.189"/>
				<path clip-path="url(#SVGID_18_)" fill="none" stroke="#FFCD72" stroke-miterlimit="10" stroke-dasharray="0.859,0.5" d="
					M186.136,387.303c0,0,0.261-5.933,0.261-18.036c0-12.104-10.085-33.286-15.13-61.527
					c-5.042-28.242-20.869-81.455-19.862-109.697"/>
				<path clip-path="url(#SVGID_18_)" fill="none" stroke="#FFCD72" stroke-miterlimit="10" stroke-dasharray="0.859,0.5" d="
					M617.05,195.111c0,0,3.062,16.809-3.999,37.988c-7.061,21.182-19.165,107.924-22.19,129.106
					c-3.025,21.18-7.061,46.397-7.061,46.397"/>
			</g>
		</g>
	</g>
	<g clip-path="url(#SVGID_2_)">
		<defs>
			<rect id="SVGID_19_" x="22" y="54.007" width="728.396" height="942.631"/>
		</defs>
		<clipPath id="SVGID_20_">
			<use xlink:href="#SVGID_19_"  overflow="visible"/>
		</clipPath>
		<path clip-path="url(#SVGID_20_)" d="M400.018,119.528c5.865,0,10.616,5.087,10.616,11.358c0,6.273-4.751,11.36-10.616,11.36
			h-20.591c-5.86,0-10.616-5.087-10.616-11.36c0-6.271,4.756-11.358,10.616-11.358H400.018"/>
		<path clip-path="url(#SVGID_20_)" fill="none" stroke="#000000" stroke-width="6.078" d="M400.018,119.528
			c5.865,0,10.616,5.087,10.616,11.358c0,6.273-4.751,11.36-10.616,11.36h-20.591c-5.86,0-10.616-5.087-10.616-11.36
			c0-6.271,4.756-11.358,10.616-11.358H400.018"/>
		<path clip-path="url(#SVGID_20_)" d="M399.225,121.346c5.329,0,9.644,4.271,9.644,9.541c0,5.272-4.315,9.543-9.646,9.543H380.52
			c-5.321,0-9.64-4.271-9.64-9.543c0-5.27,4.319-9.541,9.64-9.541H399.225"/>
		<path clip-path="url(#SVGID_20_)" fill="none" stroke="#FFFFFF" stroke-width="0.658" d="M399.225,121.346
			c5.329,0,9.644,4.271,9.644,9.541c0,5.272-4.315,9.543-9.646,9.543H380.52c-5.321,0-9.64-4.271-9.64-9.543
			c0-5.27,4.319-9.541,9.64-9.541H399.225"/>
		<path clip-path="url(#SVGID_20_)" fill="#FFFFFF" d="M373.402,130.828c0-3.976,2.949-7.235,6.681-7.497v14.993
			C376.351,138.063,373.402,134.802,373.402,130.828"/>
		<polygon clip-path="url(#SVGID_20_)" fill="#FFFFFF" points="387.494,129.845 381.263,123.312 387.494,123.312 		"/>
		<polygon clip-path="url(#SVGID_20_)" fill="#FFFFFF" points="387.494,131.809 381.263,138.345 387.494,138.345 		"/>
		<polygon clip-path="url(#SVGID_20_)" fill="#FFFFFF" points="395.315,129.845 401.552,123.312 395.315,123.312 		"/>
		<polygon clip-path="url(#SVGID_20_)" fill="#FFFFFF" points="395.315,131.809 401.552,138.345 395.315,138.345 		"/>
		<rect x="388.819" y="123.312" clip-path="url(#SVGID_20_)" fill="#FFFFFF" width="5.174" height="15.032"/>
		<path clip-path="url(#SVGID_20_)" fill="#FFFFFF" d="M379.51,117.753v0.919h0.868v-0.31l0.318,0.066v0.174
			c0,0.271-0.077,0.342-0.341,0.342h-0.822c-0.264,0-0.341-0.071-0.341-0.342v-0.768c0-0.271,0.078-0.341,0.341-0.341h0.822
			c0.265,0,0.341,0.071,0.341,0.341v0.14l-0.318,0.053v-0.275H379.51z"/>
		<path clip-path="url(#SVGID_20_)" fill="#FFFFFF" d="M381.544,117.494h1.021c0.259,0,0.342,0.072,0.342,0.34v0.769
			c0,0.27-0.083,0.343-0.342,0.343h-1.021c-0.262,0-0.345-0.073-0.345-0.343v-0.769
			C381.199,117.565,381.282,117.494,381.544,117.494 M382.583,117.754h-1.06v0.918h1.06V117.754z"/>
		<path clip-path="url(#SVGID_20_)" fill="#FFFFFF" d="M383.447,117.494h0.262l0.648,0.879l0.642-0.879h0.258v1.452h-0.298v-0.898
			c0-0.028,0-0.079,0.005-0.154c-0.023,0.064-0.053,0.118-0.079,0.151l-0.516,0.724h-0.067l-0.519-0.726
			c-0.035-0.046-0.061-0.093-0.083-0.149c0.006,0.06,0.009,0.11,0.009,0.154v0.898h-0.262V117.494z"/>
		<path clip-path="url(#SVGID_20_)" fill="#FFFFFF" d="M385.795,117.495h1.184c0.212,0,0.313,0.078,0.313,0.281v0.324
			c0,0.201-0.101,0.281-0.313,0.281h-0.865v0.565h-0.319V117.495z M386.115,117.746v0.383h0.724c0.098,0,0.141-0.019,0.141-0.115
			v-0.152c0-0.096-0.043-0.116-0.141-0.116H386.115z"/>
		<path clip-path="url(#SVGID_20_)" fill="#FFFFFF" d="M387.654,117.495h1.179c0.216,0,0.314,0.078,0.314,0.281v0.341
			c0,0.201-0.098,0.281-0.314,0.281h-0.178l0.635,0.548h-0.457l-0.559-0.548h-0.298v0.548h-0.322V117.495z M387.976,117.746v0.403
			h0.719c0.102,0,0.142-0.02,0.142-0.115v-0.172c0-0.096-0.04-0.116-0.142-0.116H387.976z"/>
		<polygon clip-path="url(#SVGID_20_)" fill="#FFFFFF" points="389.668,117.494 391.081,117.494 391.081,117.741 389.99,117.741 
			389.99,118.063 390.627,118.063 390.627,118.313 389.99,118.313 389.99,118.672 391.1,118.672 391.1,118.945 389.668,118.945 		
			"/>
		<path clip-path="url(#SVGID_20_)" fill="#FFFFFF" d="M391.855,117.746v0.314h0.859c0.263,0,0.344,0.068,0.344,0.342v0.201
			c0,0.27-0.081,0.343-0.344,0.343h-0.854c-0.258,0-0.345-0.073-0.345-0.343v-0.043l0.285-0.058v0.169h0.977v-0.332h-0.863
			c-0.259,0-0.343-0.073-0.343-0.344v-0.16c0-0.27,0.083-0.34,0.343-0.34h0.786c0.247,0,0.341,0.068,0.341,0.318v0.031l-0.281,0.069
			v-0.167H391.855z"/>
		<path clip-path="url(#SVGID_20_)" fill="#FFFFFF" d="M393.883,117.746v0.314h0.864c0.259,0,0.347,0.068,0.347,0.342v0.201
			c0,0.27-0.087,0.343-0.347,0.343h-0.853c-0.261,0-0.344-0.073-0.344-0.343v-0.043l0.284-0.058v0.169h0.976v-0.332h-0.863
			c-0.254,0-0.343-0.073-0.343-0.344v-0.16c0-0.27,0.089-0.34,0.343-0.34h0.786c0.247,0,0.34,0.068,0.34,0.318v0.031l-0.281,0.069
			v-0.167H393.883z"/>
		<rect x="395.628" y="117.494" clip-path="url(#SVGID_20_)" fill="#FFFFFF" width="0.325" height="1.452"/>
		<path clip-path="url(#SVGID_20_)" fill="#FFFFFF" d="M396.836,117.494h1.017c0.265,0,0.349,0.072,0.349,0.34v0.769
			c0,0.27-0.083,0.343-0.349,0.343h-1.017c-0.259,0-0.341-0.073-0.341-0.343v-0.769
			C396.495,117.565,396.577,117.494,396.836,117.494 M397.877,117.754h-1.067v0.918h1.067V117.754z"/>
		<path clip-path="url(#SVGID_20_)" fill="#FFFFFF" d="M398.737,117.494h0.221l0.974,0.854c0.057,0.051,0.106,0.099,0.156,0.16
			c-0.004-0.12-0.011-0.206-0.011-0.249v-0.764h0.286v1.452h-0.216l-1.017-0.898c-0.041-0.036-0.078-0.073-0.117-0.117
			c0.014,0.112,0.014,0.188,0.014,0.23v0.785h-0.291V117.494z"/>
		<path clip-path="url(#SVGID_20_)" fill="#FFFFFF" d="M385.868,143.134v0.92h1.002v-0.323h-0.524v-0.249h0.84v0.499
			c0,0.273-0.083,0.344-0.344,0.344h-0.955c-0.261,0-0.344-0.07-0.344-0.344v-0.762c0-0.275,0.083-0.343,0.344-0.343h0.955
			c0.252,0,0.344,0.067,0.344,0.327v0.032l-0.316,0.062v-0.165H385.868z"/>
		<polygon clip-path="url(#SVGID_20_)" fill="#FFFFFF" points="387.731,142.877 389.147,142.877 389.147,143.125 388.056,143.125 
			388.056,143.448 388.69,143.448 388.69,143.694 388.056,143.694 388.056,144.054 389.161,144.054 389.161,144.325 
			387.731,144.325 		"/>
		<path clip-path="url(#SVGID_20_)" fill="#FFFFFF" d="M390.141,142.877h0.311l0.792,1.447h-0.361l-0.167-0.316h-0.874l-0.162,0.316
			h-0.321L390.141,142.877z M390.58,143.748l-0.296-0.59l-0.304,0.59H390.58z"/>
		<path clip-path="url(#SVGID_20_)" fill="#FFFFFF" d="M391.556,142.877h1.18c0.216,0,0.311,0.078,0.311,0.28v0.341
			c0,0.201-0.095,0.28-0.311,0.28h-0.177l0.634,0.547h-0.461l-0.556-0.547h-0.307v0.547h-0.313V142.877z M391.869,143.125v0.406
			h0.724c0.097,0,0.143-0.02,0.143-0.114v-0.175c0-0.095-0.046-0.117-0.143-0.117H391.869z"/>
		<path clip-path="url(#SVGID_20_)" fill="#FFFFFF" d="M395.017,142.616c0.18,0.187,0.28,0.444,0.28,0.712
			c0,0.276-0.097,0.523-0.284,0.711c-0.191,0.194-0.43,0.3-0.682,0.3c-0.255,0-0.497-0.106-0.68-0.303
			c-0.184-0.195-0.282-0.441-0.282-0.709s0.103-0.525,0.291-0.725c0.175-0.188,0.413-0.286,0.672-0.286
			C394.594,142.317,394.834,142.422,395.017,142.616 M394.929,142.71c-0.157-0.171-0.365-0.259-0.593-0.259
			c-0.228,0-0.437,0.083-0.588,0.25c-0.163,0.173-0.254,0.395-0.254,0.627c0,0.231,0.089,0.449,0.243,0.614
			c0.163,0.174,0.374,0.262,0.587,0.262c0.228,0,0.433-0.088,0.601-0.26c0.161-0.16,0.243-0.375,0.243-0.608
			C395.168,143.092,395.09,142.874,394.929,142.71 M394.813,143.049c0,0.164-0.091,0.276-0.249,0.31l0.242,0.521h-0.233
			l-0.218-0.489h-0.204v0.489h-0.206v-1.145h0.411C394.666,142.735,394.813,142.842,394.813,143.049 M394.152,142.877v0.38h0.172
			c0.188,0,0.272-0.049,0.272-0.182c0-0.145-0.084-0.198-0.28-0.198H394.152z"/>
	</g>
	<g clip-path="url(#SVGID_2_)">
		<defs>
			<rect id="SVGID_21_" x="22" y="54.007" width="728.396" height="942.631"/>
		</defs>
		<clipPath id="SVGID_22_">
			<use xlink:href="#SVGID_21_"  overflow="visible"/>
		</clipPath>
		<g opacity="0.12" clip-path="url(#SVGID_22_)">
			<g>
				<defs>
					<rect id="SVGID_23_" x="83.781" y="246.708" width="583.308" height="443.002"/>
				</defs>
				<clipPath id="SVGID_24_">
					<use xlink:href="#SVGID_23_"  overflow="visible"/>
				</clipPath>
				<path clip-path="url(#SVGID_24_)" fill="#897F76" d="M181.304,368.062c0,0-18.332-3.299-31.53-7.7
					c-13.198-4.4-25.298-7.699-35.563-16.865c-10.266-9.166-30.43-33.363-30.43-33.363s35.563,30.797,38.496,33.729
					C125.211,346.799,181.304,368.062,181.304,368.062"/>
				<path clip-path="url(#SVGID_24_)" fill="#897F76" d="M165.905,353.763l-22.364-10.632l-3.666-8.065
					c0,0,26.03,18.697,23.098,13.565c-2.932-5.133-39.229-46.563-45.83-54.995c-6.598-8.432-22.363-26.397-22.363-26.397
					s19.431,12.832,21.631,17.232c2.199,4.399,37.029,46.927,41.061,52.061c4.034,5.132,14.666,13.933,13.933,15.765
					C170.672,354.13,165.905,353.763,165.905,353.763"/>
				<path clip-path="url(#SVGID_24_)" fill="#897F76" d="M140.242,348.631c0,0-24.931-26.031-28.963-30.796
					c-4.034-4.767-20.898-17.965-20.898-17.965l31.53,34.462L140.242,348.631z"/>
				<path clip-path="url(#SVGID_24_)" fill="#897F76" d="M169.938,332.5c0,0-7.333-19.066-10.999-27.499
					c-3.667-8.431-9.9-40.695-16.131-39.962c-6.233,0.733-2.201,13.564,2.199,22.73c4.401,9.167,9.166,16.498,9.166,16.498
					s-10.632-3.666-16.865-13.564c-6.232-9.899-20.898-43.262-24.931-42.162c-4.032,1.1,2.566,19.064,9.166,29.696
					c6.6,10.633,22.732,26.03,31.165,34.463C161.14,321.135,169.938,332.5,169.938,332.5"/>
				<path clip-path="url(#SVGID_24_)" fill="#897F76" d="M591.563,339.465c0,0,17.231-32.264,27.863-50.229
					c10.633-17.964,30.063-42.529,30.063-42.529s-32.264,56.829-34.097,59.027C613.562,307.935,591.563,339.465,591.563,339.465"/>
				<path clip-path="url(#SVGID_24_)" fill="#897F76" d="M608.062,318.934c0,0,13.198-19.431,27.864-31.164
					c14.665-11.731,31.163-17.964,31.163-17.964s-21.997,11.733-33.364,26.397c-11.364,14.666-30.795,36.664-33.729,45.097
					c-2.932,8.432-2.2,17.964-2.2,17.964s8.799-2.199,5.134,1.101c-3.668,3.3,2.932,11.732-2.201,13.565
					c-5.132,1.833-8.064,2.566-8.064,4.765c0,2.202-7.332-1.466-7.332-1.466s4.031-29.331,5.498-32.63
					C592.296,341.299,608.062,318.934,608.062,318.934"/>
				<path clip-path="url(#SVGID_24_)" fill="#897F76" d="M603.662,347.53c0,0-0.366-12.831,9.165-16.864
					c9.533-4.033,19.8-5.5,27.864-9.533c8.066-4.032,13.566-8.799,13.566-8.799s-10.267,13.933-23.099,18.332
					c-12.832,4.4-17.598,4.4-20.531,8.066C607.695,342.398,603.662,347.53,603.662,347.53"/>
				<path clip-path="url(#SVGID_24_)" fill="#897F76" d="M246.418,679.593c0,0,93.43-20.233,134.491-19.043
					c41.062,1.19,145.798,29.16,145.798,29.16s-74.982-19.638-140.442-20.234C320.805,668.881,246.418,679.593,246.418,679.593"/>
			</g>
		</g>
	</g>
</g>
  <g id="CUSTOM"></g>
</svg>
