<?xml version="1.0" encoding="utf-8"?>
<!-- Generator: Adobe Illustrator 16.0.0, SVG Export Plug-In . SVG Version: 6.00 Build 0)  -->
<!DOCTYPE svg PUBLIC "-//W3C//DTD SVG 1.1//EN" "http://www.w3.org/Graphics/SVG/1.1/DTD/svg11.dtd">
<svg version="1.1" id="Layer_1" xmlns="http://www.w3.org/2000/svg" xmlns:xlink="http://www.w3.org/1999/xlink" x="0px" y="0px"
	 width="800.453px" height="1035.881px" viewBox="0 0 620 1035.881" enable-background="new 0 0 800.453 1035.881"
	 xml:space="preserve">
<g>
	<defs>
		<rect id="SVGID_1_" x="-1" y="10.281" width="788.992" height="1021.048"/>
	</defs>
	<clipPath id="SVGID_2_">
		<use xlink:href="#SVGID_1_"  overflow="visible"/>
	</clipPath>
	<g clip-path="url(#SVGID_2_)">
		<defs>
			<rect id="SVGID_3_" x="-1" y="10.281" width="788.992" height="1021.048"/>
		</defs>
		<clipPath id="SVGID_4_">
			<use xlink:href="#SVGID_3_"  overflow="visible"/>
		</clipPath>
    <g id="BODY">
      <g id="BOTTOM_AREA">
        		<path clip-path="url(#SVGID_4_)" fill="#004D86" d="M640.957,192.255c0,0-29.498-9.833-71.016-26.221
			c-26.204-10.344-49.354-25.907-64.243-37.082c-7.38,8.047-38.236,35.949-111.826,36.677
			c-72.966,0.724-108.107-30.488-117.458-40.459c-14.378,11.183-39.871,29.29-69.197,40.864
			c-41.517,16.389-71.015,26.221-71.015,26.221s-0.967,0.7-2.471,1.739V194c0.018,0.835,0.041,1.759,0.069,2.745
			c0.002,0.079,0.005,0.159,0.008,0.24c0.013,0.461,0.029,0.936,0.045,1.423c0.001,0.028,0.001,0.057,0.002,0.085
			c0.018,0.51,0.038,1.038,0.06,1.573c0.003,0.104,0.007,0.211,0.011,0.317c0.019,0.432,0.038,0.871,0.057,1.317
			c0.006,0.136,0.012,0.269,0.018,0.407c0.026,0.544,0.052,1.097,0.082,1.656c0.002,0.072,0.006,0.146,0.01,0.216
			c0.026,0.486,0.053,0.976,0.081,1.47c0.011,0.174,0.021,0.348,0.031,0.522c0.027,0.469,0.057,0.94,0.088,1.415
			c0.007,0.111,0.014,0.22,0.021,0.33c0.037,0.573,0.079,1.149,0.121,1.727c0.011,0.156,0.025,0.312,0.036,0.467
			c0.034,0.443,0.068,0.886,0.104,1.33c0.016,0.175,0.03,0.351,0.045,0.525c0.049,0.578,0.099,1.154,0.155,1.729
			c0.005,0.063,0.011,0.128,0.018,0.19c0.05,0.516,0.102,1.029,0.156,1.539c0.019,0.173,0.038,0.344,0.055,0.516
			c0.051,0.452,0.103,0.903,0.155,1.347c0.015,0.128,0.029,0.256,0.045,0.384c0.068,0.552,0.14,1.099,0.213,1.636
			c0.018,0.132,0.037,0.258,0.056,0.388c0.06,0.425,0.122,0.845,0.187,1.257c0.022,0.151,0.046,0.3,0.069,0.45
			c0.083,0.521,0.17,1.035,0.26,1.534c2.326,12.792,15.117,59.887,18.024,73.841c2.907,13.955,16.28,87.796,18.024,96.518
			c0.12,0.599,0.227,1.226,0.326,1.873c0.008,0.055,0.016,0.11,0.023,0.164c0.091,0.606,0.172,1.227,0.247,1.862
			c0.009,0.068,0.017,0.135,0.024,0.203c0.072,0.644,0.138,1.299,0.196,1.96c0.004,0.047,0.009,0.096,0.013,0.145
			c0.061,0.706,0.113,1.418,0.158,2.129c0.001,0.01,0.001,0.021,0.001,0.031c0.046,0.705,0.083,1.41,0.113,2.108
			c0.004,0.06,0.005,0.116,0.007,0.174c0.03,0.663,0.055,1.317,0.073,1.962c0.002,0.059,0.003,0.117,0.006,0.175
			c0.018,0.67,0.034,1.328,0.044,1.966c0,0.01,0,0.022,0,0.033c0.012,0.667,0.019,1.313,0.021,1.93
			c0.035-0.086,0.056-0.138,0.056-0.138s6.556,34.962,5.462,49.165c-1.093,14.204,6.556,102.697,12.019,130.012
			c5.461,27.312,12.017,97.237,6.555,126.737c-5.463,29.496-18.574,108.161-21.851,142.029c-3.278,33.869-3.278,58.997-3.278,58.997
			s-4.369,4.369-4.369,8.742c0,4.369,2.185,14.202,2.185,14.202v7.648c0,0,2.184,16.388,46.979,19.665
			c44.794,3.277,98.329,4.37,114.716,7.648c4.265,0.852,9.566,1.704,15.322,2.499l-0.025,0.777c0,0,21.85,3.278,36.053,3.278
			c1.609,0,3.453-0.044,5.462-0.125c2.012,0.081,3.855,0.125,5.464,0.125c14.203,0,36.054-3.278,36.054-3.278l-0.027-0.777
			c5.757-0.795,11.06-1.647,15.322-2.499c16.388-3.278,69.922-4.371,114.717-7.648s46.979-19.665,46.979-19.665v-7.648
			c0,0,2.187-9.833,2.187-14.202c0-4.373-4.37-8.742-4.37-8.742s0-25.128-3.277-58.997c-3.278-33.868-16.39-112.533-21.853-142.029
			c-5.463-29.5,1.093-99.425,6.556-126.737c5.464-27.315,13.112-115.809,12.019-130.012c-0.94-12.219,3.777-39.78,5.113-47.25
			c-0.025-5.013,0.142-12.931,1.255-18.492c1.743-8.722,15.117-82.563,18.023-96.518c2.908-13.955,15.698-61.05,18.025-73.841
			c1.641-9.027,2.122-22.1,2.265-29.017C641.75,192.831,640.957,192.255,640.957,192.255"/>

      </g>
      <g id="MIDDLE_AREA">
        		<path clip-path="url(#SVGID_8_)" fill="#FFFFFF" d="M220.631,339c3.676,18.148,10.257,52.104,15.923,89.11
			c7.124,46.53,20.034,99.676,43.42,137.086c4.083,6.531,12.372,11.108,21.973,12.118c36.625,3.853,62.628,5.886,88.086,6.1v0.019
			c0.169-0.001,0.338-0.001,0.506-0.001c0.217-0.001,0.433-0.005,0.65-0.006c0.216,0.001,0.436,0.005,0.651,0.006
			c0.17,0,0.337,0,0.505,0.001v-0.019c25.458-0.214,51.461-2.247,88.089-6.1c9.6-1.01,17.889-5.587,21.972-12.118
			c23.385-37.411,36.295-90.556,43.419-137.086c5.667-37.005,12.249-70.961,15.923-89.11c-1.162-3.758-13.539-46.654-14.015-54.028
			l71.731,28.557c1.449-7.712,2.623-13.831,3.273-16.952c2.012-9.656,8.754-35.174,13.489-54.221l-59.861,7.042
			c19.942-12.065,31.421-26.204,31.421-41.323c0-7.268-2.668-14.31-7.641-21.005c-6.671,44.146-97.418,79.196-208.958,79.814
			c-111.539-0.618-202.284-35.667-208.958-79.814c-4.972,6.696-7.639,13.737-7.639,21.005c0,15.119,11.477,29.258,31.42,41.323
			l-65.657-7.725c4.743,19.115,11.624,45.131,13.659,54.903c0.707,3.397,2.036,10.346,3.664,19.034l76.968-30.64
			C234.17,292.346,221.794,335.241,220.631,339"/>

      </g>
      <g id="UPPER_BODY">
      		<path clip-path="url(#SVGID_10_)" fill="#BF2A43" d="M643.029,193.719c-1.279-0.886-2.072-1.463-2.072-1.463
			s-29.497-9.833-71.016-26.222c-26.206-10.343-49.354-25.905-64.245-37.08c-7.378,8.044-38.234,35.947-111.823,36.675
			c-72.968,0.724-108.109-30.488-117.46-40.458c-14.377,11.183-39.872,29.289-69.196,40.863
			c-41.517,16.39-71.016,26.222-71.016,26.222s-0.966,0.702-2.471,1.739V194c0.018,0.836,0.041,1.759,0.071,2.745
			c0.001,0.08,0.003,0.16,0.006,0.24c0.015,0.461,0.03,0.935,0.047,1.425c0,0.028,0.001,0.055,0.002,0.085
			c0.019,0.51,0.038,1.036,0.059,1.571c0.004,0.104,0.009,0.211,0.012,0.317c0.02,0.432,0.037,0.873,0.056,1.316
			c0.006,0.136,0.013,0.27,0.02,0.407c0.025,0.545,0.051,1.097,0.08,1.658c0.003,0.071,0.007,0.145,0.011,0.215
			c0.024,0.486,0.052,0.976,0.081,1.471c0.009,0.173,0.021,0.347,0.03,0.521c0.028,0.469,0.058,0.94,0.089,1.417
			c0.008,0.109,0.013,0.218,0.021,0.328c0.039,0.575,0.079,1.151,0.123,1.729c0.01,0.154,0.024,0.31,0.035,0.468
			c0.033,0.442,0.07,0.886,0.106,1.328c0.014,0.176,0.028,0.351,0.043,0.526c0.048,0.578,0.1,1.154,0.155,1.727
			c0.006,0.065,0.012,0.128,0.019,0.192c0.049,0.517,0.101,1.03,0.155,1.539c0.02,0.173,0.037,0.344,0.057,0.516
			c0.05,0.452,0.102,0.903,0.155,1.347c0.014,0.128,0.03,0.257,0.044,0.383c0.067,0.554,0.14,1.099,0.213,1.636
			c0.017,0.132,0.039,0.259,0.056,0.39c0.059,0.424,0.121,0.843,0.186,1.257c0.022,0.149,0.046,0.3,0.07,0.448
			c0.083,0.521,0.169,1.036,0.262,1.534c0.705,3.881,2.375,10.927,4.439,19.239l65.582,7.423
			c-19.943-12.064-31.42-26.203-31.42-41.321c0-7.269,2.667-14.31,7.639-21.006c6.674,44.146,97.419,79.195,208.958,79.814
			c111.54-0.619,202.286-35.668,208.958-79.814c4.974,6.696,7.641,13.737,7.641,21.006c0,15.119-11.479,29.257-31.421,41.321
			l59.787-6.743c2.143-8.61,3.884-15.932,4.608-19.919C642.405,213.708,642.889,200.636,643.029,193.719"/>

    </g>
          <g id="SLEEVE">
		<path clip-path="url(#SVGID_12_)" fill="#FDBB2D" d="M630.202,351.909c-0.009,0.035-0.013,0.056-0.013,0.056
			S630.195,351.94,630.202,351.909"/>
		<path clip-path="url(#SVGID_12_)" fill="#BF2A43" d="M173.273,407.879c0-0.011,0-0.023,0-0.033
			c-0.01-0.638-0.026-1.296-0.045-1.966c-0.002-0.058-0.004-0.116-0.005-0.175c-0.019-0.645-0.043-1.299-0.072-1.962
			c-0.003-0.058-0.005-0.116-0.007-0.174c-0.031-0.698-0.068-1.403-0.114-2.108c0-0.01-0.001-0.021-0.001-0.03
			c-0.047-0.712-0.1-1.425-0.16-2.13c-0.004-0.048-0.008-0.098-0.013-0.145c-0.059-0.661-0.123-1.316-0.196-1.96
			c-0.008-0.066-0.016-0.135-0.023-0.203c-0.074-0.636-0.156-1.256-0.246-1.861c-0.008-0.054-0.016-0.11-0.025-0.165
			c-0.098-0.647-0.206-1.274-0.326-1.873c-1.745-8.722-15.118-82.563-18.025-96.518c-2.906-13.954-15.698-61.05-18.022-73.841
			c-0.092-0.5-0.178-1.014-0.262-1.534c-0.023-0.15-0.047-0.299-0.069-0.449c-0.065-0.414-0.127-0.833-0.186-1.258
			c-0.018-0.129-0.039-0.256-0.056-0.388c-0.074-0.538-0.146-1.084-0.213-1.636c-0.017-0.126-0.03-0.256-0.045-0.384
			c-0.054-0.444-0.105-0.895-0.155-1.347c-0.02-0.171-0.037-0.342-0.057-0.516c-0.054-0.51-0.105-1.022-0.155-1.539
			c-0.007-0.063-0.013-0.126-0.019-0.19c-0.055-0.574-0.106-1.15-0.155-1.729c-0.016-0.175-0.03-0.35-0.043-0.525
			c-0.037-0.444-0.073-0.886-0.106-1.33c-0.011-0.155-0.024-0.31-0.036-0.466c-0.042-0.579-0.083-1.154-0.122-1.728
			c-0.008-0.11-0.013-0.218-0.02-0.33c-0.031-0.475-0.061-0.946-0.089-1.415c-0.01-0.176-0.02-0.348-0.03-0.522
			c-0.029-0.494-0.055-0.984-0.081-1.47c-0.004-0.071-0.008-0.144-0.011-0.216c-0.029-0.561-0.055-1.111-0.08-1.656
			c-0.006-0.138-0.013-0.271-0.02-0.407c-0.019-0.446-0.037-0.885-0.056-1.317c-0.003-0.105-0.008-0.212-0.012-0.317
			c-0.021-0.536-0.042-1.063-0.059-1.573c-0.001-0.029-0.002-0.056-0.002-0.083c-0.017-0.49-0.032-0.963-0.046-1.425
			c-0.003-0.08-0.005-0.16-0.006-0.24c-0.03-0.987-0.053-1.908-0.071-2.745v-0.006c-3.862,2.661-11.385,7.613-16.103,9.187
			c-6.556,2.185-43.702,30.591-54.627,68.831c-10.924,38.237-13.11,132.197-13.11,132.197l-3.278,16.389l-3.277,9.833
			c0,0,38.239,9.833,71.015,12.018c32.777,2.186,53.535,2.186,53.535,2.186s2.185-2.186,1.093-8.742
			c-1.093-6.554-2.185-8.739-1.093-12.017c1.021-3.063,4.905-12.808,5.408-14.065C173.29,409.192,173.282,408.545,173.273,407.879"
			/>
		<path clip-path="url(#SVGID_12_)" fill="#BF2A43" d="M730.545,420.596l-3.276-16.386c0,0-2.186-93.959-13.111-132.199
			c-10.925-38.239-48.072-66.645-54.627-68.83c-4.879-1.625-12.777-6.879-16.501-9.462c-0.143,6.917-0.624,19.99-2.265,29.017
			c-2.327,12.792-15.117,59.887-18.025,73.842c-2.906,13.954-16.28,87.795-18.023,96.518c-1.113,5.56-1.279,13.479-1.255,18.492
			c0.219-1.213,0.351-1.916,0.351-1.916s4.369,10.926,5.462,14.204c1.094,3.278,0,5.463-1.093,12.02
			c-1.094,6.554,1.093,8.74,1.093,8.74s20.758,0,53.534-2.186c32.777-2.186,71.016-12.019,71.016-12.019L730.545,420.596z"/>
      </g>

    </g>
    <g id="CUSTOM"></g>
	</g>
	<g id="SIDE_PANELS" clip-path="url(#SVGID_2_)">
		<defs>
			<rect id="SVGID_5_" x="-1" y="10.281" width="788.992" height="1021.048"/>
		</defs>
		<clipPath id="SVGID_6_">
			<use xlink:href="#SVGID_5_"  overflow="visible"/>
		</clipPath>
		<path clip-path="url(#SVGID_6_)" d="M228.151,485.478c0.146-1.084,0.263-2.158,0.345-3.229l-14.567-0.047
			c-4.064-0.018-17.002,0.333-34.361,0.866c0.074,1.152,0.15,2.332,0.23,3.533c17.224-0.574,30.034-0.967,34.013-0.998
			L228.151,485.478z"/>
		<path clip-path="url(#SVGID_6_)" d="M227.354,490.047c0.245-1.165,0.457-2.312,0.633-3.446l-14.099,0.125
			c-3.969,0.032-16.784,0.428-34.016,1.003c0.083,1.218,0.17,2.464,0.261,3.729c17.044-0.61,29.699-1.045,33.592-1.125
			L227.354,490.047z"/>
		<path clip-path="url(#SVGID_6_)" d="M198.614,475.88c5,0.085,10.123,0.172,15.396,0.264l14.608,0.23
			c-0.032-0.936-0.091-1.875-0.176-2.823l-14.461-0.401c-4.246-0.121-17.38,0.133-34.937,0.581c0.04,0.839,0.085,1.709,0.131,2.597
			C189.446,476.02,196.559,475.846,198.614,475.88"/>
		<path clip-path="url(#SVGID_6_)" d="M228.58,480.925c0.053-1.006,0.076-2.014,0.069-3.02l-14.688-0.229
			c-5.28-0.087-10.402-0.174-15.403-0.257c-2.027-0.036-9.091,0.142-19.299,0.448c0.069,1.25,0.144,2.54,0.226,3.869
			c17.378-0.534,30.335-0.883,34.421-0.864L228.58,480.925z"/>
		<path clip-path="url(#SVGID_6_)" d="M214.25,466.688l13.277,0.538c-0.159-0.806-0.335-1.622-0.528-2.45l-13.006-0.681
			c-4.497-0.234-17.709-0.089-35.272,0.257c0.013,0.859,0.034,1.782,0.062,2.768C196.589,466.718,209.925,466.51,214.25,466.688"/>
		<path clip-path="url(#SVGID_6_)" d="M225.89,495.851l-12.034,0.402c-3.752,0.125-16.306,0.606-33.278,1.259
			c0.123,1.604,0.249,3.232,0.38,4.882c16.687-0.646,29.002-1.122,32.658-1.25C219.854,500.928,224.898,498.741,225.89,495.851"/>
		<path clip-path="url(#SVGID_6_)" d="M214.381,461.961l12.035,0.636c-1.15-2.789-6.079-4.966-12.134-5.293
			c-4.555-0.247-17.799-0.112-35.396,0.222c-0.018,0.453-0.042,0.891-0.074,1.311c-0.067,0.86-0.1,1.995-0.104,3.368
			C196.431,461.86,209.792,461.718,214.381,461.961"/>
		<path clip-path="url(#SVGID_6_)" d="M226.371,494.164c0.289-1.083,0.549-2.146,0.784-3.193l-13.319,0.282
			c-3.894,0.081-16.568,0.518-33.636,1.129c0.081,1.135,0.165,2.289,0.252,3.455c16.89-0.648,29.38-1.126,33.117-1.25
			L226.371,494.164z"/>
		<path clip-path="url(#SVGID_6_)" d="M216.255,523.03l14.135,0.238c-0.105-0.869-0.229-1.742-0.377-2.628l-13.89-0.399
			c-3.486-0.102-16.263,0.188-33.582,0.673c0.087,0.965,0.176,1.929,0.267,2.896C200.034,523.292,212.746,522.968,216.255,523.03"/>
		<path clip-path="url(#SVGID_6_)" d="M230.28,536.931c0.147-1.085,0.263-2.161,0.345-3.231l-14.566,0.117
			c-3.317,0.024-15.532,0.416-32.19,0.991c0.116,1.169,0.233,2.335,0.352,3.499c16.44-0.603,28.47-1.025,31.718-1.088
			L230.28,536.931z"/>
		<path clip-path="url(#SVGID_6_)" d="M229.482,541.509c0.245-1.169,0.457-2.316,0.633-3.454l-14.099,0.286
			c-3.245,0.063-15.259,0.486-31.682,1.089c0.127,1.239,0.257,2.472,0.385,3.698c16.157-0.625,27.952-1.08,31.133-1.181
			L229.482,541.509z"/>
		<path clip-path="url(#SVGID_6_)" d="M216.141,527.758l14.609,0.066c-0.033-0.935-0.091-1.874-0.175-2.82l-14.461-0.237
			c-3.464-0.06-16.054,0.263-33.143,0.777c0.082,0.883,0.166,1.763,0.251,2.644c9.585-0.327,16.049-0.525,17.521-0.517
			C205.745,527.7,210.867,527.73,216.141,527.758"/>
		<path clip-path="url(#SVGID_6_)" d="M230.709,532.374c0.053-1.007,0.076-2.013,0.071-3.021l-14.689-0.062
			c-5.279-0.027-10.403-0.057-15.404-0.083c-1.449-0.009-7.836,0.188-17.319,0.515c0.122,1.253,0.245,2.505,0.368,3.755
			c16.708-0.576,28.966-0.967,32.299-0.99L230.709,532.374z"/>
		<path clip-path="url(#SVGID_6_)" d="M216.381,518.301l13.278,0.387c-0.159-0.803-0.334-1.618-0.528-2.442l-13.006-0.534
			c-3.667-0.15-16.583,0.095-34.003,0.541c0.08,0.905,0.161,1.811,0.244,2.721C199.881,518.487,212.831,518.196,216.381,518.301"/>
		<path clip-path="url(#SVGID_6_)" d="M228.017,547.327l-12.036,0.539c-3.09,0.138-14.683,0.622-30.615,1.279
			c0.182,1.644,0.364,3.267,0.545,4.87c15.543-0.644,26.814-1.115,29.831-1.255C221.98,552.473,227.024,550.228,228.017,547.327"/>
		<path clip-path="url(#SVGID_6_)" d="M216.514,513.574l12.038,0.499c-1.151-2.774-6.079-4.896-12.137-5.155
			c-3.777-0.16-17.045,0.085-34.878,0.531c0.13,1.544,0.263,3.098,0.4,4.663C199.611,513.664,212.753,513.417,216.514,513.574"/>
		<path clip-path="url(#SVGID_6_)" d="M228.499,545.635c0.288-1.085,0.548-2.152,0.784-3.2l-13.319,0.433
			c-3.185,0.101-14.985,0.554-31.146,1.184c0.123,1.147,0.245,2.289,0.368,3.423c15.887-0.653,27.439-1.134,30.509-1.271
			L228.499,545.635z"/>
		<path clip-path="url(#SVGID_6_)" d="M218.142,574.771l14.145,0.097c-0.145-0.871-0.31-1.751-0.497-2.642l-13.906-0.258
			c-2.953-0.056-14.165,0.232-29.652,0.705c0.135,0.983,0.271,1.946,0.404,2.887C204.006,575.065,215.14,574.746,218.142,574.771"/>
		<path clip-path="url(#SVGID_6_)" d="M232.793,588.623c0.099-1.093,0.165-2.178,0.199-3.255l-14.562,0.25
			c-2.944,0.047-13.459,0.407-28.04,0.935c0.148,0.804,0.293,1.577,0.438,2.296c0.076,0.382,0.152,0.801,0.229,1.198
			c14.243-0.545,24.495-0.927,27.408-1.009L232.793,588.623z"/>
		<path clip-path="url(#SVGID_6_)" d="M232.204,593.237c0.192-1.177,0.351-2.335,0.476-3.481l-14.086,0.409
			c-2.917,0.083-13.13,0.466-27.319,1.009c0.219,1.171,0.438,2.406,0.659,3.7c13.836-0.562,23.771-0.964,26.66-1.082
			L232.204,593.237z"/>
		<path clip-path="url(#SVGID_6_)" d="M218.241,579.525l14.61-0.074c-0.077-0.94-0.177-1.886-0.303-2.838l-14.47-0.096
			c-2.979-0.022-13.979,0.292-29.189,0.781c0.137,0.932,0.273,1.839,0.41,2.719c7.471-0.267,12.401-0.43,13.541-0.433
			C207.842,579.564,212.965,579.545,218.241,579.525"/>
		<path clip-path="url(#SVGID_6_)" d="M233.018,584.032c0.006-1.016-0.016-2.027-0.067-3.042l-14.689,0.078
			c-5.281,0.021-10.404,0.042-15.406,0.062c-1.13,0.004-5.972,0.162-13.314,0.424c0.206,1.293,0.411,2.513,0.614,3.667
			c14.667-0.531,25.249-0.894,28.194-0.94L233.018,584.032z"/>
		<path clip-path="url(#SVGID_6_)" d="M218.054,570.015l13.294,0.25c-0.195-0.806-0.408-1.624-0.639-2.451l-13.028-0.397
			c-3.048-0.095-14.421,0.166-30.07,0.611c0.12,0.917,0.238,1.814,0.357,2.701C203.671,570.252,215.061,569.957,218.054,570.015"/>
		<path clip-path="url(#SVGID_6_)" d="M231.001,599.105l-12.011,0.636c-2.858,0.152-12.554,0.58-26.091,1.162
			c0.235,1.568,0.472,3.214,0.705,4.895c13.132-0.565,22.533-0.982,25.368-1.132C225.197,604.329,230.142,602.034,231.001,599.105"
			/>
		<path clip-path="url(#SVGID_6_)" d="M217.974,565.261l12.056,0.372c-1.276-2.78-6.299-4.859-12.366-5.051
			c-3.083-0.097-14.809,0.172-30.907,0.629c0.194,1.59,0.385,3.149,0.579,4.671C203.261,565.43,214.864,565.166,217.974,565.261"/>
		<path clip-path="url(#SVGID_6_)" d="M231.406,597.398c0.24-1.096,0.453-2.171,0.64-3.229l-13.3,0.545
			c-2.9,0.118-12.831,0.521-26.659,1.081c0.185,1.106,0.369,2.249,0.552,3.429c13.506-0.577,23.167-1.004,25.99-1.153
			L231.406,597.398z"/>
		<path clip-path="url(#SVGID_6_)" d="M234.436,626.764c-0.144-0.872-0.309-1.75-0.495-2.639l-13.904-0.163
			c-2.834-0.035-11.719,0.185-24.154,0.555c0.1,0.953,0.198,1.92,0.296,2.885c12.36-0.395,21.208-0.641,24.114-0.638H234.436z"/>
		<path clip-path="url(#SVGID_6_)" d="M234.942,640.518c0.098-1.095,0.165-2.179,0.2-3.258l-14.561,0.352
			c-2.94,0.067-11.479,0.365-23.371,0.802c0.101,1.166,0.199,2.334,0.293,3.509c11.734-0.461,20.163-0.787,23.113-0.891
			L234.942,640.518z"/>
		<path clip-path="url(#SVGID_6_)" d="M234.352,645.138c0.192-1.179,0.351-2.337,0.478-3.485l-14.086,0.508
			c-2.967,0.104-11.409,0.432-23.15,0.893c0.099,1.236,0.195,2.476,0.285,3.718c11.557-0.486,19.875-0.843,22.865-0.983
			L234.352,645.138z"/>
		<path clip-path="url(#SVGID_6_)" d="M220.391,631.519l14.611-0.173c-0.076-0.941-0.177-1.885-0.304-2.837l-14.469,0.004
			c-2.894-0.003-11.648,0.24-23.873,0.632c0.092,0.924,0.182,1.858,0.27,2.792c4.403-0.15,7.354-0.242,8.367-0.252
			C209.993,631.63,215.116,631.575,220.391,631.519"/>
		<path clip-path="url(#SVGID_6_)" d="M235.166,635.924c0.008-1.015-0.015-2.026-0.065-3.04l-14.689,0.178
			c-5.28,0.058-10.403,0.113-15.405,0.169c-1.009,0.01-3.908,0.1-8.234,0.247c0.112,1.194,0.219,2.396,0.324,3.603
			c11.92-0.439,20.474-0.738,23.402-0.806L235.166,635.924z"/>
		<path clip-path="url(#SVGID_6_)" d="M220.206,622.009l13.292,0.16c-0.195-0.806-0.409-1.622-0.64-2.448l-13.026-0.309
			c-2.898-0.068-11.9,0.123-24.459,0.468c0.1,0.888,0.199,1.792,0.297,2.694C208.305,622.198,217.344,621.973,220.206,622.009"/>
		<path clip-path="url(#SVGID_6_)" d="M233.15,651.014l-12.01,0.72c-3.033,0.182-11.33,0.574-22.846,1.092
			c0.105,1.642,0.205,3.279,0.296,4.918c11.298-0.511,19.446-0.899,22.531-1.086C227.346,656.28,232.289,653.95,233.15,651.014"/>
		<path clip-path="url(#SVGID_6_)" d="M220.125,617.255l12.056,0.289c-1.275-2.771-6.298-4.817-12.365-4.967
			c-2.886-0.072-12.228,0.132-25.254,0.495c0.19,1.524,0.378,3.082,0.563,4.663C207.959,617.38,217.181,617.184,220.125,617.255"/>
		<path clip-path="url(#SVGID_6_)" d="M233.554,649.305c0.24-1.097,0.453-2.173,0.639-3.232l-13.298,0.637
			c-3.016,0.143-11.363,0.501-22.952,0.986c0.082,1.148,0.165,2.299,0.241,3.447c11.415-0.511,19.619-0.898,22.593-1.076
			L233.554,649.305z"/>
		<path clip-path="url(#SVGID_6_)" d="M236.585,678.66c-0.143-0.869-0.308-1.749-0.495-2.636l-13.903-0.066
			c-3.324-0.019-11.552,0.172-22.85,0.495c0.022,0.973,0.042,1.943,0.056,2.903c11.309-0.354,19.596-0.578,23.052-0.599
			L236.585,678.66z"/>
		<path clip-path="url(#SVGID_6_)" d="M237.091,692.414c0.099-1.096,0.165-2.182,0.2-3.26l-14.559,0.45
			c-3.462,0.103-11.863,0.41-23.341,0.842c-0.019,1.198-0.046,2.375-0.082,3.539c11.36-0.462,19.762-0.805,23.458-0.96
			L237.091,692.414z"/>
		<path clip-path="url(#SVGID_6_)" d="M236.501,697.038c0.192-1.181,0.352-2.343,0.477-3.488l-14.083,0.604
			c-3.731,0.156-12.19,0.504-23.616,0.968c-0.041,1.279-0.094,2.532-0.155,3.763c11.448-0.504,19.953-0.896,23.771-1.103
			L236.501,697.038z"/>
		<path clip-path="url(#SVGID_6_)" d="M222.542,683.514l14.608-0.275c-0.076-0.94-0.177-1.884-0.303-2.834l-14.467,0.104
			c-3.467,0.021-11.717,0.244-22.967,0.595c0.009,0.977,0.018,1.947,0.021,2.909c3.744-0.125,6.413-0.205,7.711-0.229
			C212.146,683.697,217.269,683.605,222.542,683.514"/>
		<path clip-path="url(#SVGID_6_)" d="M237.315,687.819c0.007-1.017-0.016-2.028-0.066-3.043l-14.687,0.279
			c-5.279,0.094-10.401,0.186-15.402,0.274c-1.31,0.022-3.982,0.104-7.726,0.227c-0.003,1.195-0.011,2.375-0.024,3.544
			c11.297-0.424,19.632-0.725,23.24-0.831L237.315,687.819z"/>
		<path clip-path="url(#SVGID_6_)" d="M222.356,674.003l13.292,0.067c-0.195-0.805-0.409-1.619-0.64-2.445l-13.025-0.217
			c-3.36-0.057-11.557,0.097-22.769,0.382c0.029,0.907,0.059,1.814,0.08,2.713C210.718,674.176,219.029,673.983,222.356,674.003"/>
		<path clip-path="url(#SVGID_6_)" d="M235.298,702.925l-12.009,0.802c-3.911,0.261-12.713,0.713-24.572,1.277
			c-0.143,1.72-0.304,3.381-0.494,4.958c12.029-0.575,20.996-1.038,25.046-1.311C229.496,708.23,234.437,705.865,235.298,702.925"/>
		<path clip-path="url(#SVGID_6_)" d="M222.277,669.249l12.054,0.205c-1.275-2.764-6.298-4.776-12.363-4.883
			c-3.244-0.059-11.556,0.102-23.007,0.4c0.068,1.564,0.131,3.122,0.187,4.669C210.562,669.347,218.896,669.19,222.277,669.249"/>
		<path clip-path="url(#SVGID_6_)" d="M235.703,701.211c0.24-1.098,0.453-2.176,0.64-3.238l-13.295,0.729
			c-3.859,0.209-12.436,0.604-23.975,1.111c-0.064,1.191-0.136,2.358-0.219,3.497c11.631-0.553,20.253-0.994,24.075-1.249
			L235.703,701.211z"/>
		<path clip-path="url(#SVGID_6_)" d="M238.735,730.557c-0.144-0.869-0.308-1.747-0.495-2.634l-13.9,0.028
			c-4.65,0.009-15.232,0.27-29.305,0.688c-0.17,0.959-0.345,1.959-0.52,2.961c14.343-0.468,25.201-0.785,30.082-0.849
			L238.735,730.557z"/>
		<path clip-path="url(#SVGID_6_)" d="M239.24,744.31c0.098-1.098,0.165-2.183,0.2-3.263l-14.555,0.553
			c-4.311,0.157-16.278,0.63-32.317,1.268c-0.202,1.186-0.406,2.38-0.612,3.599c15.739-0.667,27.715-1.19,32.962-1.446
			L239.24,744.31z"/>
		<path clip-path="url(#SVGID_6_)" d="M238.667,748.971c0.188-1.191,0.342-2.362,0.461-3.52l-14.08,0.7
			c-4.97,0.244-17.169,0.776-33.287,1.459c-0.215,1.271-0.432,2.554-0.651,3.855c16.179-0.735,28.539-1.332,33.955-1.66
			L238.667,748.971z"/>
		<path clip-path="url(#SVGID_6_)" d="M224.694,735.507l14.606-0.376c-0.076-0.938-0.177-1.882-0.304-2.831l-14.464,0.201
			c-4.915,0.065-15.869,0.386-30.324,0.858c-0.175,0.999-0.35,2.01-0.529,3.043c7.576-0.271,13.072-0.457,15.62-0.519
			C214.3,735.762,219.421,735.636,224.694,735.507"/>
		<path clip-path="url(#SVGID_6_)" d="M239.464,739.712c0.006-1.017-0.016-2.028-0.065-3.043l-14.685,0.382
			c-5.28,0.13-10.4,0.256-15.401,0.379c-2.581,0.063-8.184,0.254-15.903,0.53c-0.2,1.163-0.403,2.338-0.609,3.541
			c15.263-0.598,26.869-1.05,31.999-1.237L239.464,739.712z"/>
		<path clip-path="url(#SVGID_6_)" d="M237.798,725.972c-0.194-0.803-0.407-1.616-0.638-2.439l-13.023-0.13
			c-4.696-0.047-14.853,0.15-28.262,0.498c-0.162,0.9-0.325,1.824-0.493,2.772c13.992-0.412,24.504-0.671,29.127-0.677
			L237.798,725.972z"/>
		<path clip-path="url(#SVGID_6_)" d="M237.49,754.914l-12.006,0.875c-5.235,0.383-18.262,1.063-35.412,1.888
			c-0.276,1.656-0.553,3.327-0.831,5.016c17.351-0.837,30.637-1.534,36.245-1.944C231.709,760.293,236.641,757.883,237.49,754.914"
			/>
		<path clip-path="url(#SVGID_6_)" d="M224.43,721.24l12.051,0.125c-1.275-2.757-6.295-4.733-12.359-4.801
			c-4.396-0.048-14.097,0.139-27.004,0.471c-0.271,1.474-0.553,3.021-0.855,4.698C209.632,721.388,219.753,721.193,224.43,721.24"/>
		<path clip-path="url(#SVGID_6_)" d="M237.886,753.185c0.235-1.108,0.444-2.198,0.625-3.269l-13.292,0.814
			c-5.242,0.32-17.79,0.924-34.266,1.667c-0.199,1.187-0.398,2.378-0.6,3.585c16.687-0.807,29.402-1.477,34.763-1.867
			L237.886,753.185z"/>
		<path clip-path="url(#SVGID_6_)" d="M240.871,782.768c-0.147-0.877-0.316-1.76-0.506-2.653l-13.9,0.071
			c-5.971,0.029-20.887,0.441-40.232,1.056c-0.16,1.003-0.321,2.009-0.479,3.015c19.583-0.673,34.772-1.155,40.981-1.252
			L240.871,782.768z"/>
		<path clip-path="url(#SVGID_6_)" d="M241.435,796.631c0.094-1.105,0.157-2.199,0.186-3.288l-14.553,0.58
			c-5.232,0.203-21.724,0.867-43.103,1.729c-0.188,1.218-0.375,2.433-0.563,3.646c20.942-0.89,37.282-1.606,43.714-1.931
			L241.435,796.631z"/>
		<path clip-path="url(#SVGID_6_)" d="M240.865,801.3c0.187-1.191,0.342-2.364,0.46-3.52l-14.078,0.722
			c-6.022,0.305-22.651,1.03-44.02,1.94c-0.2,1.3-0.396,2.592-0.592,3.884c21.357-0.963,38.078-1.763,44.627-2.171L240.865,801.3z"
			/>
		<path clip-path="url(#SVGID_6_)" d="M226.851,787.791l14.604-0.412c-0.078-0.948-0.185-1.898-0.316-2.854l-14.463,0.241
			c-6.223,0.098-21.509,0.583-41.204,1.26c-0.164,1.041-0.329,2.08-0.492,3.12c13.115-0.492,22.746-0.838,26.477-0.938
			C216.456,788.072,221.578,787.934,226.851,787.791"/>
		<path clip-path="url(#SVGID_6_)" d="M241.639,791.996c0.003-1.024-0.022-2.045-0.079-3.068l-14.683,0.417
			c-5.277,0.143-10.398,0.281-15.399,0.416c-3.753,0.101-13.49,0.452-26.743,0.948c-0.187,1.191-0.372,2.38-0.556,3.568
			c20.48-0.816,36.434-1.45,42.799-1.697L241.639,791.996z"/>
		<path clip-path="url(#SVGID_6_)" d="M239.915,778.148c-0.198-0.81-0.415-1.63-0.648-2.459l-13.023-0.082
			c-6.174-0.041-20.624,0.292-39.241,0.825c-0.152,0.943-0.303,1.886-0.455,2.831c19.262-0.61,34.111-1.021,40.079-1.048
			L239.915,778.148z"/>
		<path clip-path="url(#SVGID_6_)" d="M239.687,807.244l-12.004,0.894c-6.263,0.468-23.69,1.361-45.983,2.42
			c-0.25,1.683-0.498,3.353-0.741,5.007c22.509-1.069,40.18-1.979,46.726-2.468C233.908,812.634,238.839,810.216,239.687,807.244"/>
		<path clip-path="url(#SVGID_6_)" d="M226.525,773.428l12.052,0.079c-1.285-2.772-6.315-4.744-12.38-4.785
			c-5.921-0.038-19.924,0.282-38.077,0.801c-0.255,1.567-0.512,3.144-0.767,4.728C205.925,773.719,220.341,773.39,226.525,773.428"
			/>
		<path clip-path="url(#SVGID_6_)" d="M240.084,805.514c0.235-1.109,0.443-2.199,0.625-3.271l-13.29,0.838
			c-6.323,0.395-23.264,1.199-44.923,2.175c-0.185,1.209-0.364,2.409-0.543,3.609c21.876-1.042,38.971-1.925,45.363-2.4
			L240.084,805.514z"/>
		<path clip-path="url(#SVGID_6_)" d="M214.296,471.408l14.134,0.397c-0.105-0.869-0.229-1.746-0.377-2.633l-13.889-0.556
			c-4.267-0.174-17.557,0.038-35.319,0.446c0.034,0.932,0.073,1.905,0.118,2.924C196.696,471.539,209.984,471.281,214.296,471.408"
			/>
		<path clip-path="url(#SVGID_6_)" d="M553.886,482.25c0.082,1.071,0.198,2.145,0.345,3.229l14.34,0.125
			c3.566,0.027,14.229,0.347,28.802,0.825c0.079-1.197,0.157-2.373,0.229-3.518c-14.71-0.444-25.502-0.724-29.15-0.708
			L553.886,482.25z"/>
		<path clip-path="url(#SVGID_6_)" d="M554.395,486.602c0.176,1.133,0.387,2.281,0.632,3.446l13.629,0.285
			c3.485,0.071,13.993,0.428,28.385,0.94c0.09-1.26,0.176-2.501,0.259-3.715c-14.579-0.481-25.248-0.801-28.807-0.83
			L554.395,486.602z"/>
		<path clip-path="url(#SVGID_6_)" d="M568.397,473.151l-14.459,0.402c-0.084,0.946-0.144,1.885-0.176,2.822l14.607-0.231
			c5.273-0.092,10.396-0.178,15.397-0.264c1.685-0.028,6.782,0.085,14.222,0.295c0.048-0.88,0.091-1.742,0.13-2.574
			C583.205,473.236,572.213,473.041,568.397,473.151"/>
		<path clip-path="url(#SVGID_6_)" d="M583.821,477.418c-5,0.083-10.123,0.17-15.401,0.258l-14.688,0.228
			c-0.006,1.008,0.016,2.014,0.068,3.021l14.675-0.053c3.664-0.017,14.476,0.263,29.206,0.706c0.081-1.329,0.157-2.616,0.226-3.864
			C590.531,477.503,585.482,477.39,583.821,477.418"/>
		<path clip-path="url(#SVGID_6_)" d="M568.388,464.095l-13.005,0.681c-0.192,0.826-0.371,1.642-0.528,2.448l13.276-0.536
			c3.889-0.159,15.083-0.007,30.248,0.319c0.028-0.981,0.049-1.898,0.06-2.752C583.502,463.981,572.427,463.884,568.388,464.095"/>
		<path clip-path="url(#SVGID_6_)" d="M556.49,495.851c0.993,2.891,6.036,5.077,12.275,5.293c3.264,0.114,13.43,0.506,27.45,1.048
			c0.132-1.648,0.257-3.277,0.381-4.88c-14.309-0.55-24.715-0.948-28.07-1.06L556.49,495.851z"/>
		<path clip-path="url(#SVGID_6_)" d="M598.269,457.43c-14.973-0.262-26.077-0.348-30.17-0.128
			c-6.056,0.328-10.983,2.507-12.135,5.293l12.035-0.633c4.126-0.219,15.35-0.126,30.452,0.144c-0.007-1.326-0.039-2.431-0.104-3.27
			C598.313,458.389,598.288,457.916,598.269,457.43"/>
		<path clip-path="url(#SVGID_6_)" d="M555.227,490.971c0.233,1.046,0.496,2.11,0.785,3.193l12.801,0.422
			c3.342,0.111,13.682,0.504,27.908,1.051c0.087-1.162,0.171-2.312,0.254-3.441c-14.416-0.515-24.942-0.873-28.429-0.943
			L555.227,490.971z"/>
		<path clip-path="url(#SVGID_6_)" d="M566.257,520.241l-13.89,0.398c-0.148,0.885-0.272,1.76-0.377,2.628l14.135-0.238
			c3.145-0.055,13.689,0.199,28.239,0.624c0.09-0.963,0.178-1.924,0.266-2.883C579.986,520.373,569.383,520.149,566.257,520.241"/>
		<path clip-path="url(#SVGID_6_)" d="M551.755,533.7c0.084,1.07,0.199,2.146,0.347,3.231l14.34,0.288
			c2.896,0.055,12.764,0.396,26.516,0.897c0.118-1.16,0.235-2.321,0.353-3.487c-13.971-0.476-24.025-0.791-26.987-0.812
			L551.755,533.7z"/>
		<path clip-path="url(#SVGID_6_)" d="M552.266,538.056c0.176,1.137,0.388,2.285,0.633,3.454l13.629,0.44
			c2.831,0.088,12.469,0.457,25.933,0.979c0.129-1.224,0.257-2.453,0.383-3.688c-13.733-0.501-23.586-0.842-26.479-0.898
			L552.266,538.056z"/>
		<path clip-path="url(#SVGID_6_)" d="M566.269,524.767l-14.462,0.237c-0.085,0.946-0.142,1.884-0.177,2.82l14.61-0.066
			c5.274-0.03,10.396-0.059,15.398-0.088c1.186-0.007,5.626,0.121,12.315,0.343c0.084-0.875,0.164-1.749,0.248-2.623
			C579.794,524.967,569.368,524.713,566.269,524.767"/>
		<path clip-path="url(#SVGID_6_)" d="M566.29,529.292l-14.688,0.062c-0.006,1.007,0.017,2.013,0.069,3.021l14.675,0.115
			c2.977,0.02,13.074,0.334,27.096,0.812c0.122-1.249,0.244-2.5,0.365-3.753c-6.583-0.219-10.949-0.346-12.114-0.339
			C576.692,529.235,571.569,529.266,566.29,529.292"/>
		<path clip-path="url(#SVGID_6_)" d="M566.256,515.713l-13.006,0.534c-0.193,0.824-0.371,1.639-0.528,2.442L566,518.301
			c3.188-0.093,13.961,0.131,28.807,0.531c0.08-0.906,0.161-1.809,0.24-2.71C580.291,515.762,569.548,515.578,566.256,515.713"/>
		<path clip-path="url(#SVGID_6_)" d="M554.364,547.327c0.991,2.9,6.037,5.146,12.273,5.432c2.67,0.125,11.805,0.508,24.633,1.041
			c0.184-1.604,0.364-3.228,0.545-4.871c-13.229-0.546-22.672-0.94-25.416-1.064L554.364,547.327z"/>
		<path clip-path="url(#SVGID_6_)" d="M565.966,508.918c-6.058,0.259-10.984,2.381-12.136,5.155l12.037-0.499
			c3.381-0.141,14.347,0.044,29.368,0.408c0.136-1.564,0.27-3.118,0.398-4.66C580.453,508.958,569.365,508.773,565.966,508.918"/>
		<path clip-path="url(#SVGID_6_)" d="M553.099,542.435c0.234,1.047,0.496,2.115,0.785,3.2l12.802,0.568
			c2.727,0.122,12.13,0.514,25.312,1.058c0.123-1.13,0.245-2.269,0.365-3.412c-13.469-0.523-23.112-0.891-25.944-0.982
			L553.099,542.435z"/>
		<path clip-path="url(#SVGID_6_)" d="M564.497,571.968l-13.906,0.258c-0.188,0.89-0.354,1.771-0.495,2.642l14.142-0.097
			c2.653-0.021,11.655,0.224,24.308,0.623c0.135-0.938,0.269-1.896,0.403-2.877C576.18,572.139,567.108,571.917,564.497,571.968"/>
		<path clip-path="url(#SVGID_6_)" d="M549.388,585.367c0.034,1.078,0.101,2.162,0.199,3.255l14.327,0.415
			c2.547,0.071,10.702,0.373,22.225,0.812c0.063-0.33,0.129-0.683,0.19-1.001c0.156-0.776,0.314-1.61,0.474-2.482
			c-11.865-0.426-20.271-0.708-22.854-0.749L549.388,585.367z"/>
		<path clip-path="url(#SVGID_6_)" d="M549.7,589.756c0.125,1.146,0.284,2.304,0.476,3.481l13.61,0.555
			c2.515,0.103,10.368,0.421,21.476,0.872c0.22-1.295,0.441-2.517,0.66-3.689c-11.467-0.437-19.587-0.736-22.136-0.81L549.7,589.756
			z"/>
		<path clip-path="url(#SVGID_6_)" d="M564.304,576.518l-14.471,0.096c-0.127,0.951-0.228,1.897-0.304,2.838l14.611,0.074
			c5.275,0.02,10.399,0.039,15.4,0.059c0.849,0.003,3.812,0.094,8.348,0.25c0.135-0.871,0.27-1.776,0.405-2.701
			C575.805,576.739,566.93,576.498,564.304,576.518"/>
		<path clip-path="url(#SVGID_6_)" d="M564.119,581.068l-14.688-0.078c-0.053,1.015-0.075,2.026-0.067,3.042l14.669,0.249
			c2.585,0.042,11.051,0.326,23.005,0.754c0.202-1.155,0.404-2.374,0.609-3.664c-4.405-0.151-7.285-0.239-8.122-0.242
			C574.524,581.109,569.399,581.089,564.119,581.068"/>
		<path clip-path="url(#SVGID_6_)" d="M564.698,567.417l-13.025,0.397c-0.23,0.827-0.444,1.646-0.64,2.451l13.294-0.25
			c2.652-0.051,11.896,0.173,24.885,0.557c0.117-0.882,0.235-1.775,0.354-2.689C576.628,567.527,567.399,567.335,564.698,567.417"/>
		<path clip-path="url(#SVGID_6_)" d="M551.379,599.105c0.86,2.929,5.805,5.224,12.03,5.561c2.445,0.129,9.778,0.458,20.176,0.909
			c0.235-1.684,0.471-3.326,0.708-4.896c-10.804-0.466-18.425-0.807-20.901-0.938L551.379,599.105z"/>
		<path clip-path="url(#SVGID_6_)" d="M564.715,560.582c-6.064,0.192-11.09,2.271-12.364,5.051l12.056-0.372
			c2.761-0.084,12.212,0.114,25.434,0.476c0.194-1.522,0.387-3.082,0.578-4.671C577.021,560.699,567.456,560.496,564.715,560.582"/>
		<path clip-path="url(#SVGID_6_)" d="M550.336,594.17c0.187,1.058,0.399,2.133,0.639,3.229l12.777,0.673
			c2.446,0.129,10.031,0.466,20.802,0.93c0.186-1.177,0.369-2.316,0.554-3.416c-11.098-0.45-18.95-0.769-21.473-0.871
			L550.336,594.17z"/>
		<path clip-path="url(#SVGID_6_)" d="M562.345,623.963l-13.903,0.163c-0.188,0.888-0.353,1.767-0.495,2.639h14.141
			c2.48-0.003,9.29,0.177,18.91,0.474c0.098-0.96,0.194-1.925,0.295-2.872C571.605,624.088,564.765,623.932,562.345,623.963"/>
		<path clip-path="url(#SVGID_6_)" d="M547.239,637.26c0.034,1.079,0.102,2.163,0.199,3.258l14.326,0.514
			c2.492,0.088,8.905,0.334,17.907,0.688c0.094-1.17,0.191-2.335,0.292-3.496c-9.158-0.332-15.673-0.555-18.165-0.611
			L547.239,637.26z"/>
		<path clip-path="url(#SVGID_6_)" d="M547.551,641.652c0.127,1.147,0.285,2.307,0.479,3.485l13.608,0.649
			c2.521,0.12,8.827,0.392,17.659,0.765c0.091-1.238,0.187-2.472,0.285-3.703c-9.012-0.354-15.438-0.602-17.944-0.688
			L547.551,641.652z"/>
		<path clip-path="url(#SVGID_6_)" d="M547.684,628.509c-0.127,0.952-0.228,1.896-0.304,2.837l14.608,0.173
			c5.275,0.057,10.399,0.111,15.401,0.166c0.536,0.004,1.617,0.033,3.161,0.081c0.087-0.932,0.177-1.864,0.269-2.786
			c-9.49-0.293-16.202-0.47-18.668-0.467L547.684,628.509z"/>
		<path clip-path="url(#SVGID_6_)" d="M561.97,633.062l-14.688-0.178c-0.052,1.014-0.073,2.025-0.065,3.04l14.666,0.352
			c2.483,0.057,9.012,0.279,18.199,0.613c0.104-1.198,0.211-2.396,0.321-3.582c-1.466-0.044-2.505-0.071-3.028-0.076
			C572.373,633.175,567.25,633.119,561.97,633.062"/>
		<path clip-path="url(#SVGID_6_)" d="M562.547,619.412l-13.025,0.309c-0.229,0.827-0.444,1.643-0.639,2.448l13.293-0.16
			c2.449-0.03,9.439,0.13,19.329,0.413c0.098-0.898,0.196-1.798,0.296-2.682C571.983,619.484,565.028,619.354,562.547,619.412"/>
		<path clip-path="url(#SVGID_6_)" d="M549.231,651.014c0.86,2.937,5.803,5.267,12.028,5.644c2.586,0.158,8.741,0.456,17.321,0.849
			c0.092-1.638,0.191-3.275,0.299-4.916c-8.794-0.4-15.085-0.702-17.638-0.856L549.231,651.014z"/>
		<path clip-path="url(#SVGID_6_)" d="M562.565,612.577c-6.068,0.149-11.089,2.196-12.364,4.968l12.054-0.29
			c2.528-0.06,9.696,0.077,19.795,0.34c0.185-1.583,0.373-3.142,0.563-4.667C572.327,612.657,565.05,612.515,562.565,612.577"/>
		<path clip-path="url(#SVGID_6_)" d="M548.188,646.072c0.187,1.06,0.399,2.136,0.639,3.232l12.777,0.762
			c2.498,0.149,8.698,0.447,17.387,0.842c0.076-1.145,0.157-2.289,0.24-3.432c-8.865-0.373-15.202-0.648-17.746-0.768
			L548.188,646.072z"/>
		<path clip-path="url(#SVGID_6_)" d="M560.192,675.958l-13.901,0.066c-0.188,0.887-0.352,1.767-0.496,2.636l14.142,0.098
			c2.899,0.018,9.199,0.178,17.83,0.438c0.017-0.954,0.036-1.921,0.058-2.888C569.22,676.074,562.98,675.942,560.192,675.958"/>
		<path clip-path="url(#SVGID_6_)" d="M545.09,689.154c0.034,1.078,0.102,2.164,0.201,3.26l14.323,0.611
			c3.102,0.131,9.526,0.393,18.229,0.748c-0.032-1.157-0.059-2.33-0.078-3.522c-8.797-0.328-15.202-0.56-18.117-0.646
			L545.09,689.154z"/>
		<path clip-path="url(#SVGID_6_)" d="M545.403,693.55c0.125,1.146,0.284,2.308,0.477,3.488l13.607,0.743
			c3.21,0.174,9.737,0.479,18.537,0.87c-0.06-1.223-0.109-2.471-0.152-3.741c-8.77-0.358-15.249-0.625-18.386-0.757L545.403,693.55z
			"/>
		<path clip-path="url(#SVGID_6_)" d="M545.533,680.404c-0.125,0.95-0.226,1.894-0.303,2.834l14.607,0.275
			c5.275,0.092,10.396,0.184,15.399,0.27c0.567,0.01,1.419,0.033,2.489,0.063c0.002-0.96,0.009-1.93,0.022-2.903
			c-8.574-0.258-14.843-0.418-17.748-0.436L545.533,680.404z"/>
		<path clip-path="url(#SVGID_6_)" d="M559.819,685.056l-14.688-0.279c-0.052,1.015-0.073,2.026-0.066,3.043l14.665,0.45
			c3.029,0.092,9.383,0.316,18.017,0.635c-0.014-1.157-0.02-2.327-0.021-3.512c-1.075-0.029-1.93-0.053-2.505-0.063
			C570.22,685.241,565.099,685.149,559.819,685.056"/>
		<path clip-path="url(#SVGID_6_)" d="M560.396,671.408l-13.023,0.217c-0.23,0.827-0.445,1.641-0.64,2.445l13.291-0.067
			c2.797-0.016,9.116,0.117,17.842,0.354c0.024-0.892,0.055-1.794,0.083-2.696C569.419,671.459,563.211,671.359,560.396,671.408"/>
		<path clip-path="url(#SVGID_6_)" d="M547.082,702.925c0.861,2.94,5.804,5.306,12.029,5.727c3.436,0.23,10.41,0.6,19.79,1.058
			c-0.185-1.573-0.341-3.241-0.48-4.957c-9.206-0.447-16.018-0.804-19.33-1.025L547.082,702.925z"/>
		<path clip-path="url(#SVGID_6_)" d="M560.412,664.571c-6.066,0.106-11.089,2.119-12.363,4.883l12.056-0.205
			c2.842-0.05,9.183,0.053,17.913,0.262c0.054-1.549,0.117-3.106,0.187-4.67C569.457,664.628,563.141,664.522,560.412,664.571"/>
		<path clip-path="url(#SVGID_6_)" d="M546.038,697.973c0.188,1.063,0.4,2.141,0.64,3.238l12.775,0.851
			c3.223,0.216,9.858,0.562,18.831,0.997c-0.08-1.132-0.15-2.293-0.213-3.477c-8.89-0.397-15.488-0.704-18.738-0.88L546.038,697.973
			z"/>
		<path clip-path="url(#SVGID_6_)" d="M544.141,727.923c-0.188,0.887-0.352,1.765-0.494,2.634l14.139,0.194
			c4.263,0.057,13.102,0.305,24.829,0.679c-0.175-0.996-0.349-1.989-0.518-2.944c-11.439-0.327-20.006-0.527-24.056-0.533
			L544.141,727.923z"/>
		<path clip-path="url(#SVGID_6_)" d="M542.94,741.047c0.034,1.08,0.103,2.165,0.201,3.263l14.32,0.71
			c4.645,0.227,14.574,0.663,27.703,1.222c-0.207-1.213-0.409-2.402-0.611-3.584c-13.375-0.53-23.232-0.917-27.058-1.058
			L542.94,741.047z"/>
		<path clip-path="url(#SVGID_6_)" d="M543.252,745.451c0.119,1.157,0.274,2.328,0.462,3.52l13.603,0.835
			c4.812,0.292,15.111,0.796,28.69,1.42c-0.219-1.297-0.434-2.573-0.648-3.838c-13.497-0.575-23.613-1.02-28.027-1.235
			L543.252,745.451z"/>
		<path clip-path="url(#SVGID_6_)" d="M543.385,732.3c-0.128,0.949-0.228,1.893-0.304,2.831l14.605,0.376
			c5.273,0.129,10.395,0.255,15.395,0.377c1.915,0.047,5.494,0.162,10.366,0.333c-0.179-1.026-0.354-2.037-0.525-3.027
			c-11.845-0.379-20.773-0.633-25.072-0.688L543.385,732.3z"/>
		<path clip-path="url(#SVGID_6_)" d="M557.666,737.051l-14.684-0.382c-0.052,1.015-0.073,2.026-0.065,3.043l14.663,0.552
			c4.524,0.165,14.08,0.535,26.741,1.031c-0.205-1.197-0.405-2.364-0.605-3.521c-5.018-0.177-8.696-0.296-10.648-0.345
			C568.066,737.307,562.944,737.183,557.666,737.051"/>
		<path clip-path="url(#SVGID_6_)" d="M558.243,723.402l-13.021,0.13c-0.231,0.823-0.444,1.637-0.639,2.439l13.289,0.024
			c4.023,0.005,12.521,0.202,23.878,0.524c-0.168-0.94-0.331-1.857-0.49-2.753C570.454,723.504,562.307,723.362,558.243,723.402"/>
		<path clip-path="url(#SVGID_6_)" d="M544.891,754.914c0.85,2.969,5.781,5.379,12.003,5.834c5.025,0.368,16.226,0.967,30.98,1.688
			c-0.277-1.688-0.556-3.361-0.831-5.015c-14.529-0.711-25.464-1.291-30.147-1.633L544.891,754.914z"/>
		<path clip-path="url(#SVGID_6_)" d="M558.26,716.564c-6.064,0.067-11.087,2.044-12.362,4.801l12.053-0.125
			c4.044-0.041,12.157,0.099,22.921,0.36c-0.301-1.677-0.583-3.226-0.854-4.695C569.739,716.655,562.037,716.523,558.26,716.564"/>
		<path clip-path="url(#SVGID_6_)" d="M543.868,749.916c0.184,1.07,0.391,2.16,0.626,3.269l12.771,0.931
			c4.782,0.348,15.41,0.92,29.497,1.612c-0.2-1.203-0.399-2.387-0.598-3.569c-13.875-0.634-24.334-1.143-29.004-1.428
			L543.868,749.916z"/>
		<path clip-path="url(#SVGID_6_)" d="M555.916,780.186l-13.899-0.071c-0.19,0.894-0.359,1.776-0.507,2.653l14.139,0.236
			c5.64,0.089,18.703,0.494,35.73,1.071c-0.159-1.001-0.318-2.001-0.478-2.998C574.13,780.554,561.334,780.212,555.916,780.186"/>
		<path clip-path="url(#SVGID_6_)" d="M555.313,793.923l-14.553-0.58c0.029,1.09,0.091,2.183,0.185,3.288l14.32,0.736
			c5.882,0.297,20.06,0.923,38.455,1.706c-0.187-1.209-0.371-2.419-0.561-3.635C574.366,794.682,560.107,794.108,555.313,793.923"/>
		<path clip-path="url(#SVGID_6_)" d="M555.133,798.502l-14.077-0.725c0.119,1.158,0.272,2.331,0.458,3.522l13.604,0.855
			c6,0.375,20.547,1.077,39.368,1.932c-0.195-1.286-0.391-2.573-0.59-3.868C575.074,799.416,560.653,798.78,555.133,798.502"/>
		<path clip-path="url(#SVGID_6_)" d="M555.705,784.766l-14.464-0.24c-0.131,0.955-0.237,1.905-0.315,2.854l14.604,0.412
			c5.274,0.143,10.395,0.281,15.396,0.417c3.213,0.085,10.805,0.354,21.224,0.741c-0.163-1.035-0.325-2.068-0.489-3.102
			C574.519,785.264,561.364,784.854,555.705,784.766"/>
		<path clip-path="url(#SVGID_6_)" d="M570.903,789.761c-5.001-0.134-10.121-0.273-15.4-0.416l-14.681-0.417
			c-0.058,1.023-0.082,2.044-0.081,3.068l14.662,0.585c5.81,0.224,19.608,0.772,37.545,1.487c-0.185-1.185-0.369-2.368-0.555-3.556
			C581.839,790.121,574.14,789.848,570.903,789.761"/>
		<path clip-path="url(#SVGID_6_)" d="M556.139,775.607l-13.024,0.082c-0.231,0.829-0.448,1.649-0.647,2.459l13.289,0.067
			c5.412,0.024,18.142,0.365,34.829,0.884c-0.151-0.942-0.301-1.878-0.451-2.814C574.058,775.839,561.721,775.572,556.139,775.607"
			/>
		<path clip-path="url(#SVGID_6_)" d="M554.698,808.138l-12.007-0.894c0.85,2.972,5.781,5.39,12.005,5.853
			c6.025,0.451,21.49,1.256,41.465,2.215c-0.242-1.654-0.489-3.323-0.739-5.004C575.672,809.358,560.46,808.568,554.698,808.138"/>
		<path clip-path="url(#SVGID_6_)" d="M556.184,768.722c-6.065,0.041-11.094,2.013-12.382,4.785l12.055-0.079
			c5.59-0.034,17.894,0.23,33.924,0.673c-0.255-1.581-0.511-3.159-0.767-4.727C573.424,768.943,561.52,768.687,556.184,768.722"/>
		<path clip-path="url(#SVGID_6_)" d="M554.962,803.081l-13.292-0.838c0.184,1.071,0.393,2.161,0.627,3.271l12.768,0.951
			c5.872,0.438,20.765,1.218,40.104,2.148c-0.18-1.194-0.357-2.389-0.541-3.596C575.501,804.15,560.766,803.442,554.962,803.081"/>
		<path clip-path="url(#SVGID_6_)" d="M568.217,468.617l-13.89,0.556c-0.147,0.887-0.271,1.763-0.377,2.633l14.135-0.397
			c3.876-0.112,15.021,0.083,30.116,0.45c0.043-1.012,0.082-1.986,0.116-2.913C583.198,468.617,572.054,468.46,568.217,468.617"/>
	</g>
	<g clip-path="url(#SVGID_2_)">
		<defs>
			<rect id="SVGID_7_" x="-1" y="10.281" width="788.992" height="1021.048"/>
		</defs>
		<clipPath id="SVGID_8_">
			<use xlink:href="#SVGID_7_"  overflow="visible"/>
		</clipPath>
	</g>
	<g clip-path="url(#SVGID_2_)">
		<defs>
			<rect id="SVGID_9_" x="-1" y="10.281" width="788.992" height="1021.048"/>
		</defs>
		<clipPath id="SVGID_10_">
			<use xlink:href="#SVGID_9_"  overflow="visible"/>
		</clipPath>
	</g>
	<g clip-path="url(#SVGID_2_)">
		<defs>
			<rect id="SVGID_11_" x="-1" y="10.281" width="788.992" height="1021.048"/>
		</defs>
		<clipPath id="SVGID_12_">
			<use xlink:href="#SVGID_11_"  overflow="visible"/>
		</clipPath>
	</g>
	<g id="COLLAR" clip-path="url(#SVGID_2_)">
		<defs>
			<rect id="SVGID_13_" x="-1" y="10.281" width="788.992" height="1021.048"/>
		</defs>
		<clipPath id="SVGID_14_">
			<use xlink:href="#SVGID_13_"  overflow="visible"/>
		</clipPath>
		<path clip-path="url(#SVGID_14_)" fill="#BF2A43" d="M393.873,165.629c73.59-0.728,104.445-28.63,111.825-36.676
			c-8.702-6.529-14.591-11.564-16.605-13.176c-5.462-4.371-5.462-7.647-10.925-10.926c-5.462-3.277-7.647-13.11-18.572-18.572
			c-6.955-3.478-38.247-4.742-60.082-5.201l-0.009-0.263c0,0-4.294,0-10.925,0.082c-6.631-0.082-10.927-0.082-10.927-0.082
			l-0.007,0.263c-21.835,0.458-53.126,1.723-60.081,5.201c-10.926,5.462-13.11,15.295-18.574,18.572
			c-5.462,3.279-5.462,6.556-10.924,10.926c-1.604,1.284-5.674,4.745-11.652,9.393C285.766,135.141,320.905,166.353,393.873,165.629
			"/>
	</g>
	<g clip-path="url(#SVGID_2_)">
		<defs>
			<rect id="SVGID_15_" x="-1" y="10.281" width="788.992" height="1021.048"/>
		</defs>
		<clipPath id="SVGID_16_">
			<use xlink:href="#SVGID_15_"  overflow="visible"/>
		</clipPath>
		<path clip-path="url(#SVGID_16_)" d="M173.272,407.845c0,0.012,0,0.024,0,0.034C173.272,407.869,173.272,407.857,173.272,407.845"
			/>
		<path clip-path="url(#SVGID_16_)" d="M173.292,409.81"/>
		<path clip-path="url(#SVGID_16_)" fill="#FFFFFF" d="M393.927,130.177c45.122,0.429,79.5-22.776,79.069-26.645
			c-0.428-3.867-7.828-11.049-12.556-14.486c-4.728-3.438-27.202-5.734-72.325-5.487c-45.639,0.25-61.102,1.995-67.336,3.491
			c-6.237,1.496-16.502,12.884-15.213,15.463C306.854,105.092,349.068,129.749,393.927,130.177"/>
		<g opacity="0.35" clip-path="url(#SVGID_16_)">
			<g>
				<defs>
					<rect id="SVGID_17_" x="305.455" y="83.542" width="167.546" height="46.641"/>
				</defs>
				<clipPath id="SVGID_18_">
					<use xlink:href="#SVGID_17_"  overflow="visible"/>
				</clipPath>
				<g clip-path="url(#SVGID_18_)">
					<defs>
						<path id="SVGID_19_" d="M393.925,130.177c45.122,0.429,79.501-22.776,79.071-26.645c-0.43-3.867-7.829-11.049-12.557-14.486
							c-4.728-3.438-27.202-5.734-72.324-5.487c-45.641,0.25-61.103,1.995-67.337,3.491c-6.236,1.496-16.503,12.884-15.214,15.463
							C306.854,105.092,349.068,129.749,393.925,130.177"/>
					</defs>
					<clipPath id="SVGID_20_">
						<use xlink:href="#SVGID_19_"  overflow="visible"/>
					</clipPath>
					
						<radialGradient id="SVGID_21_" cx="187.458" cy="1041.2236" r="1.2886" gradientTransform="matrix(102.1332 0 0 -40.5422 -18755.3105 42299.5625)" gradientUnits="userSpaceOnUse">
						<stop  offset="0" style="stop-color:#FFFFFF"/>
						<stop  offset="1" style="stop-color:#FFFFFF"/>
					</radialGradient>
					<rect x="304.275" y="83.312" clip-path="url(#SVGID_20_)" fill="url(#SVGID_21_)" width="169.151" height="47.294"/>
				</g>
				<g clip-path="url(#SVGID_18_)">
					<defs>
						<path id="SVGID_22_" d="M393.925,130.177c45.122,0.429,79.501-22.776,79.071-26.645c-0.43-3.867-7.829-11.049-12.557-14.486
							c-4.728-3.438-27.202-5.734-72.324-5.487c-45.641,0.25-61.103,1.995-67.337,3.491c-6.236,1.496-16.503,12.884-15.214,15.463
							C306.854,105.092,349.068,129.749,393.925,130.177"/>
					</defs>
					<clipPath id="SVGID_23_">
						<use xlink:href="#SVGID_22_"  overflow="visible"/>
					</clipPath>
					
						<radialGradient id="SVGID_24_" cx="187.458" cy="1041.2236" r="1.2886" gradientTransform="matrix(102.1332 0 0 -40.5422 -18755.3105 42299.5625)" gradientUnits="userSpaceOnUse">
						<stop  offset="0" style="stop-color:#FFFFFF"/>
						<stop  offset="0.119" style="stop-color:#D9D8D7"/>
						<stop  offset="0.3629" style="stop-color:#969393"/>
						<stop  offset="0.7064" style="stop-color:#454343"/>
						<stop  offset="1" style="stop-color:#010101"/>
					</radialGradient>
					<rect x="304.275" y="83.312" clip-path="url(#SVGID_23_)" fill="url(#SVGID_24_)" width="169.151" height="47.294"/>
				</g>
			</g>
		</g>
		<g opacity="0.5" clip-path="url(#SVGID_16_)">
			<g>
				<defs>
					<rect id="SVGID_25_" x="69.985" y="92.894" width="644.178" height="871.507"/>
				</defs>
				<clipPath id="SVGID_26_">
					<use xlink:href="#SVGID_25_"  overflow="visible"/>
				</clipPath>
				<g opacity="0.1" clip-path="url(#SVGID_26_)">
					<g>
						<defs>
							<rect id="SVGID_27_" x="448.078" y="92.894" width="194.952" height="862.797"/>
						</defs>
						<clipPath id="SVGID_28_">
							<use xlink:href="#SVGID_27_"  overflow="visible"/>
						</clipPath>
						<path clip-path="url(#SVGID_28_)" fill="#897F76" d="M604.716,393.095c1.743-8.722,15.117-82.563,18.023-96.518
							c2.908-13.955,15.698-61.05,18.025-73.842c1.641-9.027,2.122-22.1,2.265-29.017c-1.279-0.886-2.072-1.465-2.072-1.465
							s-29.501-9.832-71.016-26.221c-41.517-16.387-75.386-45.886-80.849-50.255c-5.462-4.372-5.462-7.649-10.925-10.927
							c-3.615-2.169-5.809-7.211-10.04-11.957l-2.223,0.776c3.547,3.391,6.81,7.333,7.092,9.864
							c0.227,2.042-9.266,9.48-24.919,15.982c1.267,2.626,2.181,5.106,2.328,7.015c0.563,7.327,0,6.762,0,17.472
							c0,10.708,3.944,21.415,10.708,37.196c6.764,15.779,14.089,7.326,19.162,29.871c5.073,22.543-25.361,18.598-25.361,18.598
							s27.616,3.945,58.049,2.254c30.435-1.69,23.671,0,45.087-2.254c21.417-2.254,21.417-5.636,54.104,3.382
							c32.688,9.017,7.89,29.306,5.636,52.413c-2.255,23.108-34.941,19.726-44.523,32.125c-9.581,12.399-3.38,108.773-2.254,119.48
							c1.127,10.708-21.979,29.306-21.979,29.306s-6.2,18.037-10.146,31.562c-3.944,13.526,6.2,41.706,5.637,72.14
							s-28.18,70.448-37.76,92.427c-9.581,21.98-2.256,43.396,13.525,91.304c15.781,47.903,6.199,6.197,18.034,20.851
							c11.837,14.655,6.2,9.017,12.397,29.87c6.201,20.853,8.456,52.414,8.456,52.414s2.255,32.688,10.145,62.557
							c7.889,29.87,4.509,16.345,24.798,33.816l6.425,2.379c5.999-4.461,6.542-8.486,6.542-8.486v-7.65c0,0,2.187-9.831,2.187-14.2
							c0-4.373-4.368-8.742-4.368-8.742s0-25.128-3.279-58.997c-3.278-33.868-16.39-112.532-21.853-142.029
							c-5.463-29.5,1.093-99.423,6.556-126.737c5.464-27.313,13.112-115.809,12.019-130.012c-0.94-12.218,3.777-39.779,5.113-47.25
							C603.437,406.574,603.603,398.655,604.716,393.095"/>
					</g>
				</g>
				<g opacity="0.1" clip-path="url(#SVGID_26_)">
					<g>
						<defs>
							<rect id="SVGID_29_" x="133.73" y="97.13" width="219.886" height="867.271"/>
						</defs>
						<clipPath id="SVGID_30_">
							<use xlink:href="#SVGID_29_"  overflow="visible"/>
						</clipPath>
						<path clip-path="url(#SVGID_30_)" fill="#897F76" d="M350.074,123.001c-25.233-7.622-43.664-18.799-44.509-20.488
							c-0.413-0.826,0.368-2.559,1.813-4.578c-0.594-0.285-1.164-0.558-1.685-0.806c-2.33,3.256-4.167,6.2-6.704,7.722
							c-5.462,3.277-5.462,6.555-10.925,10.925s-39.331,33.868-80.849,50.256c-41.517,16.389-71.016,26.222-71.016,26.222
							s-0.964,0.698-2.47,1.736c0.148,6.985,0.641,19.836,2.26,28.744c2.326,12.792,15.117,59.887,18.024,73.842
							c2.907,13.954,16.28,87.795,18.024,96.518c0.987,4.938,1.229,11.742,1.253,16.715c0.035-0.087,0.056-0.14,0.056-0.14
							s6.556,34.963,5.462,49.166c-1.092,14.204,6.556,102.699,12.019,130.012c5.461,27.314,12.017,97.237,6.555,126.737
							c-5.462,29.497-18.574,108.161-21.851,142.029c-3.278,33.869-3.278,58.999-3.278,58.999s-4.369,4.367-4.369,8.74
							c0,4.369,2.184,14.202,2.184,14.202v7.648c0,0,1.554,11.551,28.565,17.196c2.308-13.13,5.739-36.217,3.793-48.286
							c-2.817-17.471,2.255-14.09,10.145-25.925s6.2-51.286,7.326-98.629c1.127-47.342,90.174-24.234,90.174-24.234
							s7.325-10.145,6.199-24.233c-1.128-14.089-45.65-76.085-54.104-90.173c-8.454-14.09,4.509-12.398,4.509-12.398
							s-12.4-5.637-17.473-33.252c-5.072-27.616,8.455-61.431,20.853-90.738c12.399-29.307,48.468-59.739,48.468-59.739
							s-38.887,6.199-76.083-10.709c-37.198-16.906-39.452-45.649-44.524-134.132c-5.073-88.483,3.381-105.954,23.669-107.083
							c20.29-1.127,91.864,22.544,102.572,27.053c0,0,6.763-14.09,4.509-22.543c-2.253-8.455,4.509-21.979,12.399-36.634
							c7.89-14.652,7.89-7.89,10.708-10.144c2.818-2.254,0.563-15.216-1.128-19.161c-1.69-3.946-0.563-5.074,2.819-14.092
							C354.086,127.696,352.716,125.493,350.074,123.001"/>
					</g>
				</g>
				<g opacity="0.12" clip-path="url(#SVGID_26_)">
					<g>
						<defs>
							<rect id="SVGID_31_" x="69.985" y="265.736" width="100.882" height="144.842"/>
						</defs>
						<clipPath id="SVGID_32_">
							<use xlink:href="#SVGID_31_"  overflow="visible"/>
						</clipPath>
						<path clip-path="url(#SVGID_32_)" fill="#897F76" d="M146.632,358.164c-2.818-4.508-68.193-92.428-68.193-92.428
							s1.128,8.454,5.636,18.035c4.508,9.582,50.159,67.066,50.159,67.066s-41.143-45.087-43.395-47.903
							c-2.255-2.819-20.854-17.473-20.854-15.218s14.09,17.471,25.361,28.179c11.271,10.708,34.378,33.816,45.086,50.16
							c10.709,16.344,30.434,44.524,30.434,44.524s-3.945-16.345-6.763-23.108C161.285,380.708,149.451,362.674,146.632,358.164"/>
					</g>
				</g>
				<g opacity="0.12" clip-path="url(#SVGID_26_)">
					<g>
						<defs>
							<rect id="SVGID_33_" x="82.948" y="252.21" width="43.959" height="50.723"/>
						</defs>
						<clipPath id="SVGID_34_">
							<use xlink:href="#SVGID_33_"  overflow="visible"/>
						</clipPath>
						<path clip-path="url(#SVGID_34_)" fill="#897F76" d="M102.109,279.825c-3.945-5.636-19.161-27.614-19.161-27.614
							s6.198,23.107,18.598,34.941c12.398,11.836,25.361,15.781,25.361,15.781S106.055,285.463,102.109,279.825"/>
					</g>
				</g>
				<g opacity="0.12" clip-path="url(#SVGID_26_)">
					<g>
						<defs>
							<rect id="SVGID_35_" x="611.591" y="282.645" width="102.572" height="103.136"/>
						</defs>
						<clipPath id="SVGID_36_">
							<use xlink:href="#SVGID_35_"  overflow="visible"/>
						</clipPath>
						<path clip-path="url(#SVGID_36_)" fill="#897F76" d="M711.909,282.644c0,0-7.327,14.653-13.526,25.925
							c-6.198,11.273-32.688,32.687-46.777,40.577c-14.089,7.892-40.015,36.634-40.015,36.634s11.835-2.255,19.162-7.89
							c7.326-5.636,54.104-24.234,72.139-50.159C720.927,301.805,711.909,282.644,711.909,282.644"/>
					</g>
				</g>
				<g opacity="0.12" clip-path="url(#SVGID_26_)">
					<g>
						<defs>
							<rect id="SVGID_37_" x="621.171" y="368.309" width="81.721" height="33.605"/>
						</defs>
						<clipPath id="SVGID_38_">
							<use xlink:href="#SVGID_37_"  overflow="visible"/>
						</clipPath>
						<path clip-path="url(#SVGID_38_)" fill="#897F76" d="M666.822,390.289c-15.78,4.509-45.649,10.145-45.649,10.145
							s21.415,5.636,47.903-5.072c26.489-10.709,33.815-27.052,33.815-27.052S682.603,385.78,666.822,390.289"/>
					</g>
				</g>
				<g opacity="0.12" clip-path="url(#SVGID_26_)">
					<g>
						<defs>
							<rect id="SVGID_39_" x="630.203" y="293.202" width="60.289" height="58.708"/>
						</defs>
						<clipPath id="SVGID_40_">
							<use xlink:href="#SVGID_39_"  overflow="visible"/>
						</clipPath>
						<path clip-path="url(#SVGID_40_)" fill="#897F76" d="M668.513,300.679c-10.707,12.399-14.09,16.907-23.671,22.543
							c-9.329,5.489-14.382,27.531-14.64,28.688c0.227-1,3.805-15.933,16.331-21.924c12.963-6.2,21.979-5.637,28.181-16.344
							c6.198-10.707,15.778-18.599,15.778-18.599S679.221,288.279,668.513,300.679"/>
					</g>
				</g>
			</g>
		</g>
	</g>
	<g clip-path="url(#SVGID_2_)">
		<defs>
			<rect id="SVGID_41_" x="-1" y="10.281" width="788.992" height="1021.048"/>
		</defs>
		<clipPath id="SVGID_42_">
			<use xlink:href="#SVGID_41_"  overflow="visible"/>
		</clipPath>
		<g opacity="0.35" clip-path="url(#SVGID_42_)">
			<g>
				<defs>
					<rect id="SVGID_43_" x="279.942" y="122.083" width="222.813" height="39.693"/>
				</defs>
				<clipPath id="SVGID_44_">
					<use xlink:href="#SVGID_43_"  overflow="visible"/>
				</clipPath>
				<path clip-path="url(#SVGID_44_)" fill="none" stroke="#D37C75" stroke-miterlimit="10" stroke-dasharray="0.859,0.859" d="
					M502.218,126.739c0,0-22.281,33.526-108.292,34.379c-86.807,0.858-113.45-38.676-113.45-38.676"/>
			</g>
		</g>
		<g opacity="0.35" clip-path="url(#SVGID_42_)">
			<g>
				<defs>
					<rect id="SVGID_45_" x="48.604" y="408.753" width="119.282" height="15.767"/>
				</defs>
				<clipPath id="SVGID_46_">
					<use xlink:href="#SVGID_45_"  overflow="visible"/>
				</clipPath>
				<path clip-path="url(#SVGID_46_)" fill="none" stroke="#D37C75" stroke-miterlimit="10" stroke-dasharray="0.859,0.859" d="
					M48.776,409.374c0,0,27.328,7.559,61.632,11.047c34.304,3.488,57.478,3.454,57.478,3.454"/>
			</g>
		</g>
		<g opacity="0.35" clip-path="url(#SVGID_42_)">
			<g>
				<defs>
					<rect id="SVGID_47_" x="48.604" y="413.913" width="119.282" height="15.767"/>
				</defs>
				<clipPath id="SVGID_48_">
					<use xlink:href="#SVGID_47_"  overflow="visible"/>
				</clipPath>
				<path clip-path="url(#SVGID_48_)" fill="none" stroke="#D37C75" stroke-miterlimit="10" stroke-dasharray="0.859,0.859" d="
					M48.776,414.536c0,0,27.328,7.558,61.632,11.046c34.304,3.489,57.478,3.455,57.478,3.455"/>
			</g>
		</g>
		<g opacity="0.35" clip-path="url(#SVGID_42_)">
			<g>
				<defs>
					<rect id="SVGID_49_" x="610.027" y="408.753" width="119.281" height="15.767"/>
				</defs>
				<clipPath id="SVGID_50_">
					<use xlink:href="#SVGID_49_"  overflow="visible"/>
				</clipPath>
				<path clip-path="url(#SVGID_50_)" fill="none" stroke="#D37C75" stroke-miterlimit="10" stroke-dasharray="0.859,0.859" d="
					M729.136,409.374c0,0-27.325,7.559-61.63,11.047c-34.304,3.488-57.478,3.454-57.478,3.454"/>
			</g>
		</g>
		<g opacity="0.35" clip-path="url(#SVGID_42_)">
			<g>
				<defs>
					<rect id="SVGID_51_" x="610.027" y="413.913" width="119.281" height="15.767"/>
				</defs>
				<clipPath id="SVGID_52_">
					<use xlink:href="#SVGID_51_"  overflow="visible"/>
				</clipPath>
				<path clip-path="url(#SVGID_52_)" fill="none" stroke="#D37C75" stroke-miterlimit="10" stroke-dasharray="0.859,0.859" d="
					M729.136,414.536c0,0-27.325,7.558-61.63,11.046c-34.304,3.489-57.478,3.455-57.478,3.455"/>
			</g>
		</g>
		<g opacity="0.35" clip-path="url(#SVGID_42_)">
			<g>
				<defs>
					<rect id="SVGID_53_" x="169.122" y="916.438" width="436.401" height="43.082"/>
				</defs>
				<clipPath id="SVGID_54_">
					<use xlink:href="#SVGID_53_"  overflow="visible"/>
				</clipPath>
				<path clip-path="url(#SVGID_54_)" fill="none" stroke="#D37C75" stroke-miterlimit="10" stroke-dasharray="0.859,0.859" d="
					M169.713,919.287c0,0,9.303,21.512,60.468,28.49c51.167,6.977,105.099,11.636,162.801,11.047
					c56.98-0.582,169.716-19.003,181.987-21.514c25.583-5.232,29.934-20.699,29.934-20.699"/>
			</g>
		</g>
		<g opacity="0.35" clip-path="url(#SVGID_42_)">
			<g>
				<defs>
					<rect id="SVGID_55_" x="167.692" y="920.623" width="440.544" height="45.348"/>
				</defs>
				<clipPath id="SVGID_56_">
					<use xlink:href="#SVGID_55_"  overflow="visible"/>
				</clipPath>
				<path clip-path="url(#SVGID_56_)" fill="none" stroke="#D37C75" stroke-miterlimit="10" stroke-dasharray="0.859,0.859" d="
					M168.267,925.97c0,0,10.75,21.281,61.915,28.259c51.167,6.978,105.099,11.635,162.801,11.047
					c56.98-0.582,169.716-19.004,181.987-21.512c25.582-5.234,32.669-22.898,32.669-22.898"/>
			</g>
		</g>
		<g opacity="0.35" clip-path="url(#SVGID_42_)">
			<g>
				<defs>
					<rect id="SVGID_57_" x="602.815" y="193.717" width="40.859" height="222.66"/>
				</defs>
				<clipPath id="SVGID_58_">
					<use xlink:href="#SVGID_57_"  overflow="visible"/>
				</clipPath>
				<path clip-path="url(#SVGID_58_)" fill="none" stroke="#D37C75" stroke-miterlimit="10" d="M643.029,193.719
					c0,0,0.06,16.225-2.265,29.017c-2.329,12.792-15.117,59.887-18.025,73.842c-2.906,13.954-16.28,87.795-18.023,96.518
					c-1.745,8.721-1.163,23.257-1.163,23.257"/>
			</g>
		</g>
		<g opacity="0.35" clip-path="url(#SVGID_42_)">
			<g>
				<defs>
					<rect id="SVGID_59_" x="133.086" y="193.991" width="40.854" height="222.386"/>
				</defs>
				<clipPath id="SVGID_60_">
					<use xlink:href="#SVGID_59_"  overflow="visible"/>
				</clipPath>
				<path clip-path="url(#SVGID_60_)" fill="none" stroke="#D37C75" stroke-miterlimit="10" d="M133.73,193.994
					c0,0-0.066,15.951,2.26,28.741c2.326,12.792,15.117,59.887,18.024,73.842c2.907,13.954,16.28,87.795,18.025,96.518
					c1.745,8.721,1.164,23.257,1.164,23.257"/>
			</g>
		</g>
		<g opacity="0.35" clip-path="url(#SVGID_42_)">
			<g>
				<defs>
					<rect id="SVGID_61_" x="276.967" y="124.833" width="229.253" height="41.455"/>
				</defs>
				<clipPath id="SVGID_62_">
					<use xlink:href="#SVGID_61_"  overflow="visible"/>
				</clipPath>
				<path clip-path="url(#SVGID_62_)" fill="none" stroke="#D37C75" stroke-miterlimit="10" stroke-dasharray="0.859,0.859" d="
					M505.698,128.953c0,0-25.814,35.826-111.826,36.677c-86.806,0.859-116.381-40.42-116.381-40.42"/>
			</g>
		</g>
	</g>
</g>
</svg>
