<?xml version="1.0" encoding="utf-8"?>
<!-- Generator: Adobe Illustrator 16.0.0, SVG Export Plug-In . SVG Version: 6.00 Build 0)  -->
<!DOCTYPE svg PUBLIC "-//W3C//DTD SVG 1.1//EN" "http://www.w3.org/Graphics/SVG/1.1/DTD/svg11.dtd">
<svg version="1.1" id="Layer_1" xmlns="http://www.w3.org/2000/svg" xmlns:xlink="http://www.w3.org/1999/xlink" x="0px" y="0px"
	 width="612px" height="792px" viewBox="0 0 480 792" enable-background="new 0 0 612 792" xml:space="preserve">
<g>
	<defs>
		<rect id="SVGID_1_" width="612" height="792"/>
	</defs>
	<clipPath id="SVGID_2_">
		<use xlink:href="#SVGID_1_"  overflow="visible"/>
	</clipPath>
	<g id="BOTTOM_AREA" clip-path="url(#SVGID_2_)">
		<defs>
			<rect id="SVGID_3_" width="612" height="792"/>
		</defs>
		<clipPath id="SVGID_4_">
			<use xlink:href="#SVGID_3_"  overflow="visible"/>
		</clipPath>
		<path clip-path="url(#SVGID_4_)" fill="#004D86" d="M497.949,141.152c0,0-22.882-7.627-55.085-20.339
			c-20.326-8.023-38.282-20.095-49.832-28.763c-5.724,6.241-29.658,27.884-86.74,28.449c-56.598,0.561-83.856-23.649-91.11-31.383
			c-11.153,8.674-30.927,22.719-53.674,31.697c-32.203,12.712-55.084,20.339-55.084,20.339s-0.75,0.543-1.917,1.349v0.005
			c0.014,0.648,0.032,1.364,0.054,2.129c0.002,0.061,0.004,0.123,0.006,0.186c0.01,0.358,0.022,0.726,0.035,1.104
			c0.001,0.022,0.001,0.044,0.002,0.066c0.014,0.396,0.029,0.805,0.046,1.22c0.003,0.081,0.006,0.164,0.009,0.246
			c0.014,0.335,0.029,0.675,0.044,1.021c0.005,0.105,0.009,0.209,0.014,0.316c0.02,0.422,0.04,0.851,0.063,1.285
			c0.002,0.056,0.005,0.113,0.008,0.168c0.02,0.377,0.041,0.757,0.063,1.14c0.008,0.135,0.016,0.27,0.024,0.405
			c0.021,0.364,0.044,0.73,0.068,1.098c0.006,0.086,0.011,0.17,0.017,0.255c0.029,0.445,0.061,0.892,0.094,1.34
			c0.009,0.121,0.019,0.242,0.028,0.363c0.026,0.344,0.053,0.687,0.081,1.031c0.012,0.136,0.023,0.272,0.035,0.408
			c0.038,0.448,0.077,0.895,0.12,1.34c0.004,0.049,0.009,0.099,0.014,0.148c0.039,0.4,0.079,0.798,0.121,1.194
			c0.014,0.134,0.029,0.267,0.043,0.4c0.039,0.351,0.079,0.7,0.12,1.045c0.012,0.099,0.023,0.198,0.035,0.297
			c0.053,0.428,0.108,0.852,0.165,1.269c0.014,0.102,0.029,0.201,0.043,0.301c0.047,0.33,0.095,0.655,0.145,0.975
			c0.018,0.117,0.036,0.233,0.054,0.349c0.065,0.404,0.132,0.803,0.202,1.19c1.804,9.922,11.726,46.453,13.981,57.277
			s12.628,68.101,13.981,74.866c0.093,0.464,0.176,0.951,0.253,1.453c0.006,0.042,0.012,0.085,0.018,0.127
			c0.071,0.469,0.134,0.951,0.191,1.444c0.007,0.053,0.013,0.105,0.019,0.158c0.056,0.499,0.107,1.007,0.152,1.52
			c0.003,0.037,0.007,0.074,0.01,0.112c0.047,0.547,0.088,1.1,0.123,1.652c0.001,0.008,0.001,0.016,0.001,0.024
			c0.035,0.547,0.064,1.093,0.088,1.635c0.003,0.046,0.004,0.09,0.006,0.135c0.023,0.514,0.042,1.022,0.056,1.522
			c0.002,0.045,0.003,0.09,0.005,0.135c0.014,0.52,0.026,1.03,0.034,1.525c0,0.008,0,0.017,0,0.026
			c0.009,0.517,0.014,1.018,0.016,1.497c0.027-0.067,0.043-0.107,0.043-0.107s5.085,27.119,4.237,38.136
			c-0.847,11.017,5.085,79.66,9.323,100.847c4.236,21.186,9.321,75.424,5.084,98.306c-4.237,22.88-14.407,83.898-16.949,110.169
			c-2.543,26.271-2.543,45.763-2.543,45.763s-3.389,3.39-3.389,6.78c0,3.39,1.695,11.017,1.695,11.017v5.933
			c0,0,1.694,12.712,36.441,15.254c34.745,2.542,76.271,3.39,88.982,5.933c3.307,0.661,7.42,1.322,11.885,1.938l-0.02,0.604
			c0,0,16.949,2.542,27.966,2.542c1.248,0,2.678-0.034,4.237-0.096c1.56,0.062,2.989,0.096,4.238,0.096
			c11.017,0,27.966-2.542,27.966-2.542l-0.021-0.604c4.465-0.616,8.578-1.277,11.885-1.938c12.712-2.543,54.237-3.391,88.983-5.933
			s36.44-15.254,36.44-15.254v-5.933c0,0,1.695-7.627,1.695-11.017c0-3.391-3.39-6.78-3.39-6.78s0-19.491-2.543-45.763
			c-2.542-26.271-12.712-87.289-16.949-110.169c-4.237-22.882,0.848-77.12,5.085-98.306c4.237-21.188,10.17-89.83,9.322-100.847
			c-0.729-9.478,2.93-30.857,3.967-36.65c-0.021-3.889,0.109-10.031,0.973-14.344c1.353-6.765,11.726-64.042,13.98-74.866
			s12.177-47.355,13.981-57.277c1.272-7.002,1.646-17.142,1.757-22.507C498.564,141.599,497.949,141.152,497.949,141.152"/>
	</g>
	<g id="SIDE_PANELS" clip-path="url(#SVGID_2_)">
		<defs>
			<rect id="SVGID_5_" width="612" height="792"/>
		</defs>
		<clipPath id="SVGID_6_">
			<use xlink:href="#SVGID_5_"  overflow="visible"/>
		</clipPath>
		<path clip-path="url(#SVGID_6_)" d="M177.746,368.598c0.114-0.841,0.204-1.674,0.268-2.504l-11.299-0.037
			c-3.153-0.014-13.188,0.258-26.653,0.672c0.057,0.893,0.116,1.808,0.178,2.74c13.36-0.445,23.297-0.75,26.383-0.774
			L177.746,368.598z"/>
		<path clip-path="url(#SVGID_6_)" d="M177.129,372.142c0.19-0.904,0.354-1.793,0.49-2.673l-10.936,0.097
			c-3.079,0.025-13.019,0.332-26.385,0.778c0.064,0.945,0.132,1.912,0.202,2.892c13.221-0.473,23.037-0.811,26.057-0.873
			L177.129,372.142z"/>
		<path clip-path="url(#SVGID_6_)" d="M154.835,361.153c3.879,0.066,7.852,0.134,11.943,0.205l11.331,0.179
			c-0.025-0.726-0.071-1.455-0.136-2.19l-11.217-0.311c-3.294-0.094-13.482,0.103-27.1,0.45c0.031,0.651,0.066,1.326,0.102,2.014
			C147.724,361.262,153.241,361.126,154.835,361.153"/>
		<path clip-path="url(#SVGID_6_)" d="M178.079,365.066c0.041-0.781,0.059-1.562,0.054-2.343l-11.393-0.177
			c-4.095-0.068-8.068-0.135-11.947-0.2c-1.573-0.027-7.052,0.11-14.97,0.348c0.054,0.969,0.112,1.97,0.175,3.001
			c13.48-0.414,23.53-0.685,26.699-0.67L178.079,365.066z"/>
		<path clip-path="url(#SVGID_6_)" d="M166.963,354.022l10.299,0.417c-0.123-0.625-0.26-1.258-0.41-1.9l-10.088-0.528
			c-3.488-0.182-13.737-0.069-27.36,0.2c0.01,0.666,0.026,1.382,0.048,2.147C153.264,354.045,163.609,353.885,166.963,354.022"/>
		<path clip-path="url(#SVGID_6_)" d="M175.993,376.644l-9.335,0.312c-2.91,0.097-12.648,0.47-25.812,0.977
			c0.095,1.244,0.193,2.507,0.295,3.786c12.943-0.501,22.496-0.87,25.332-0.969C171.311,380.582,175.224,378.886,175.993,376.644"/>
		<path clip-path="url(#SVGID_6_)" d="M167.066,350.356l9.335,0.493c-0.892-2.163-4.715-3.852-9.412-4.106
			c-3.533-0.191-13.806-0.087-27.456,0.173c-0.014,0.351-0.033,0.691-0.058,1.016c-0.052,0.667-0.077,1.548-0.081,2.613
			C153.142,350.278,163.506,350.168,167.066,350.356"/>
		<path clip-path="url(#SVGID_6_)" d="M176.365,375.335c0.224-0.84,0.426-1.665,0.608-2.477l-10.331,0.218
			c-3.02,0.063-12.851,0.402-26.091,0.876c0.063,0.881,0.128,1.776,0.196,2.68c13.101-0.503,22.789-0.873,25.688-0.969
			L176.365,375.335z"/>
		<path clip-path="url(#SVGID_6_)" d="M168.52,397.726l10.964,0.185c-0.081-0.674-0.178-1.352-0.292-2.039l-10.774-0.31
			c-2.704-0.079-12.615,0.146-26.049,0.522c0.068,0.748,0.137,1.496,0.207,2.246C155.937,397.929,165.797,397.678,168.52,397.726"/>
		<path clip-path="url(#SVGID_6_)" d="M179.397,408.509c0.114-0.842,0.204-1.677,0.268-2.507l-11.299,0.091
			c-2.573,0.019-12.048,0.322-24.969,0.769c0.09,0.907,0.181,1.812,0.273,2.714c12.752-0.468,22.083-0.795,24.603-0.844
			L179.397,408.509z"/>
		<path clip-path="url(#SVGID_6_)" d="M178.779,412.06c0.19-0.906,0.354-1.797,0.491-2.679l-10.936,0.222
			c-2.517,0.049-11.836,0.377-24.575,0.845c0.099,0.962,0.199,1.918,0.299,2.869c12.532-0.485,21.681-0.838,24.149-0.916
			L178.779,412.06z"/>
		<path clip-path="url(#SVGID_6_)" d="M168.43,401.394l11.332,0.051c-0.026-0.725-0.071-1.453-0.136-2.188l-11.217-0.184
			c-2.687-0.047-12.453,0.204-25.708,0.603c0.064,0.685,0.129,1.367,0.195,2.051c7.435-0.254,12.449-0.408,13.59-0.401
			C160.366,401.348,164.339,401.371,168.43,401.394"/>
		<path clip-path="url(#SVGID_6_)" d="M179.731,404.974c0.041-0.781,0.059-1.562,0.055-2.343l-11.394-0.048
			c-4.095-0.021-8.069-0.044-11.948-0.064c-1.124-0.007-6.079,0.146-13.434,0.399c0.094,0.972,0.189,1.943,0.285,2.912
			c12.96-0.446,22.468-0.75,25.053-0.768L179.731,404.974z"/>
		<path clip-path="url(#SVGID_6_)" d="M168.617,394.058l10.3,0.3c-0.123-0.623-0.26-1.255-0.41-1.894l-10.088-0.414
			c-2.845-0.117-12.863,0.074-26.375,0.419c0.062,0.702,0.125,1.405,0.189,2.111C155.818,394.202,165.863,393.976,168.617,394.058"
			/>
		<path clip-path="url(#SVGID_6_)" d="M177.643,416.572l-9.336,0.418c-2.397,0.107-11.389,0.482-23.747,0.992
			c0.141,1.275,0.282,2.534,0.423,3.777c12.056-0.499,20.799-0.865,23.139-0.974C172.959,420.563,176.873,418.822,177.643,416.572"
			/>
		<path clip-path="url(#SVGID_6_)" d="M168.72,390.391l9.337,0.387c-0.893-2.152-4.715-3.798-9.414-3.999
			c-2.93-0.124-13.222,0.066-27.054,0.412c0.101,1.198,0.204,2.403,0.31,3.617C155.609,390.461,165.803,390.27,168.72,390.391"/>
		<path clip-path="url(#SVGID_6_)" d="M178.016,415.26c0.224-0.842,0.426-1.669,0.608-2.482l-10.331,0.336
			c-2.47,0.078-11.623,0.43-24.159,0.918c0.095,0.89,0.19,1.775,0.285,2.655c12.323-0.507,21.284-0.88,23.666-0.986L178.016,415.26z
			"/>
		<path clip-path="url(#SVGID_6_)" d="M169.983,437.859l10.971,0.075c-0.112-0.676-0.24-1.358-0.385-2.049l-10.786-0.2
			c-2.291-0.044-10.988,0.181-23.001,0.547c0.105,0.763,0.21,1.51,0.314,2.239C159.018,438.088,167.654,437.841,169.983,437.859"/>
		<path clip-path="url(#SVGID_6_)" d="M181.347,448.604c0.077-0.849,0.128-1.689,0.155-2.525l-11.295,0.193
			c-2.284,0.037-10.44,0.316-21.75,0.726c0.115,0.623,0.227,1.223,0.34,1.781c0.059,0.296,0.118,0.621,0.178,0.93
			c11.048-0.423,19-0.72,21.259-0.783L181.347,448.604z"/>
		<path clip-path="url(#SVGID_6_)" d="M180.89,452.184c0.149-0.913,0.272-1.812,0.369-2.7l-10.926,0.317
			c-2.263,0.064-10.185,0.361-21.191,0.782c0.17,0.909,0.34,1.866,0.511,2.87c10.732-0.436,18.438-0.748,20.68-0.839L180.89,452.184
			z"/>
		<path clip-path="url(#SVGID_6_)" d="M170.059,441.548l11.333-0.058c-0.059-0.729-0.137-1.463-0.235-2.201l-11.224-0.074
			c-2.311-0.018-10.843,0.227-22.641,0.605c0.106,0.723,0.212,1.427,0.318,2.108c5.794-0.207,9.619-0.333,10.503-0.336
			C161.993,441.578,165.967,441.563,170.059,441.548"/>
		<path clip-path="url(#SVGID_6_)" d="M181.521,445.043c0.005-0.787-0.012-1.572-0.052-2.359l-11.394,0.061
			c-4.096,0.017-8.07,0.032-11.95,0.048c-0.877,0.003-4.633,0.126-10.328,0.329c0.16,1.003,0.319,1.949,0.476,2.845
			c11.377-0.412,19.585-0.693,21.87-0.729L181.521,445.043z"/>
		<path clip-path="url(#SVGID_6_)" d="M169.915,434.171l10.312,0.194c-0.152-0.625-0.317-1.26-0.496-1.901l-10.105-0.309
			c-2.365-0.073-11.186,0.129-23.325,0.475c0.093,0.711,0.185,1.407,0.277,2.095C158.758,434.354,167.593,434.126,169.915,434.171"
			/>
		<path clip-path="url(#SVGID_6_)" d="M179.958,456.735l-9.317,0.493c-2.217,0.117-9.737,0.449-20.238,0.901
			c0.183,1.216,0.366,2.493,0.547,3.797c10.186-0.438,17.478-0.762,19.677-0.879C175.456,460.787,179.291,459.007,179.958,456.735"
			/>
		<path clip-path="url(#SVGID_6_)" d="M169.852,430.483l9.352,0.288c-0.99-2.156-4.886-3.77-9.592-3.918
			c-2.391-0.075-11.487,0.134-23.974,0.488c0.15,1.233,0.299,2.442,0.449,3.623C158.44,430.614,167.44,430.409,169.852,430.483"/>
		<path clip-path="url(#SVGID_6_)" d="M180.271,455.411c0.186-0.85,0.351-1.684,0.496-2.504l-10.316,0.423
			c-2.25,0.091-9.953,0.404-20.679,0.838c0.143,0.857,0.286,1.744,0.428,2.66c10.476-0.448,17.97-0.779,20.16-0.895L180.271,455.411
			z"/>
		<path clip-path="url(#SVGID_6_)" d="M182.621,478.189c-0.111-0.676-0.239-1.357-0.384-2.047l-10.785-0.126
			c-2.198-0.027-9.09,0.144-18.736,0.431c0.078,0.738,0.154,1.489,0.23,2.237c9.587-0.306,16.451-0.497,18.705-0.495H182.621z"/>
		<path clip-path="url(#SVGID_6_)" d="M183.014,488.858c0.076-0.85,0.128-1.69,0.155-2.527l-11.294,0.272
			c-2.281,0.052-8.904,0.283-18.128,0.622c0.078,0.904,0.154,1.811,0.227,2.722c9.102-0.357,15.64-0.611,17.928-0.691
			L183.014,488.858z"/>
		<path clip-path="url(#SVGID_6_)" d="M182.557,492.441c0.149-0.914,0.272-1.813,0.37-2.703L172,490.132
			c-2.302,0.081-8.85,0.335-17.957,0.692c0.076,0.959,0.151,1.92,0.221,2.884c8.964-0.377,15.416-0.653,17.736-0.763
			L182.557,492.441z"/>
		<path clip-path="url(#SVGID_6_)" d="M171.727,481.878l11.333-0.135c-0.059-0.73-0.137-1.462-0.236-2.2l-11.223,0.003
			c-2.245-0.002-9.035,0.187-18.518,0.49c0.071,0.717,0.141,1.441,0.209,2.166c3.416-0.117,5.704-0.188,6.49-0.196
			C163.662,481.964,167.635,481.922,171.727,481.878"/>
		<path clip-path="url(#SVGID_6_)" d="M183.188,485.295c0.006-0.787-0.011-1.572-0.051-2.358l-11.394,0.138
			c-4.095,0.045-8.069,0.088-11.949,0.131c-0.783,0.008-3.032,0.077-6.387,0.192c0.086,0.926,0.169,1.857,0.251,2.794
			c9.246-0.341,15.881-0.572,18.153-0.625L183.188,485.295z"/>
		<path clip-path="url(#SVGID_6_)" d="M171.583,474.501l10.311,0.124c-0.151-0.625-0.317-1.258-0.496-1.899l-10.104-0.239
			c-2.248-0.053-9.231,0.096-18.972,0.363c0.077,0.688,0.154,1.391,0.23,2.09C162.352,474.647,169.364,474.474,171.583,474.501"/>
		<path clip-path="url(#SVGID_6_)" d="M181.624,497l-9.316,0.558c-2.353,0.142-8.788,0.445-17.721,0.847
			c0.082,1.273,0.159,2.544,0.23,3.814c8.763-0.396,15.084-0.697,17.476-0.842C177.122,501.084,180.956,499.276,181.624,497"/>
		<path clip-path="url(#SVGID_6_)" d="M171.521,470.813l9.351,0.224c-0.989-2.149-4.885-3.736-9.591-3.853
			c-2.239-0.056-9.485,0.103-19.589,0.384c0.148,1.183,0.293,2.391,0.436,3.617C162.084,470.911,169.237,470.759,171.521,470.813"/>
		<path clip-path="url(#SVGID_6_)" d="M181.938,495.674c0.186-0.851,0.351-1.686,0.496-2.508l-10.315,0.494
			c-2.339,0.11-8.814,0.389-17.803,0.766c0.064,0.891,0.128,1.782,0.187,2.674c8.854-0.396,15.218-0.697,17.525-0.835
			L181.938,495.674z"/>
		<path clip-path="url(#SVGID_6_)" d="M184.289,518.444c-0.111-0.675-0.239-1.356-0.384-2.045l-10.784-0.052
			c-2.578-0.014-8.961,0.134-17.724,0.384c0.017,0.755,0.032,1.508,0.043,2.253c8.772-0.274,15.2-0.449,17.881-0.465
			L184.289,518.444z"/>
		<path clip-path="url(#SVGID_6_)" d="M184.681,529.112c0.077-0.85,0.128-1.691,0.155-2.528l-11.292,0.35
			c-2.686,0.08-9.202,0.317-18.105,0.652c-0.015,0.93-0.037,1.843-0.064,2.746c8.812-0.358,15.329-0.625,18.196-0.745
			L184.681,529.112z"/>
		<path clip-path="url(#SVGID_6_)" d="M184.223,532.699c0.149-0.915,0.273-1.816,0.37-2.706l-10.924,0.469
			c-2.894,0.121-9.455,0.391-18.318,0.751c-0.032,0.991-0.073,1.964-0.12,2.918c8.88-0.391,15.477-0.694,18.438-0.854
			L184.223,532.699z"/>
		<path clip-path="url(#SVGID_6_)" d="M173.396,522.209l11.331-0.214c-0.059-0.729-0.137-1.461-0.235-2.198l-11.222,0.08
			c-2.689,0.018-9.089,0.189-17.815,0.462c0.007,0.757,0.014,1.51,0.016,2.256c2.904-0.097,4.974-0.159,5.981-0.177
			C165.332,522.351,169.305,522.28,173.396,522.209"/>
		<path clip-path="url(#SVGID_6_)" d="M184.855,525.548c0.005-0.788-0.012-1.573-0.052-2.359l-11.392,0.217
			c-4.095,0.072-8.068,0.144-11.947,0.212c-1.016,0.019-3.089,0.08-5.993,0.177c-0.002,0.927-0.008,1.842-0.019,2.748
			c8.764-0.328,15.228-0.562,18.027-0.645L184.855,525.548z"/>
		<path clip-path="url(#SVGID_6_)" d="M173.252,514.831l10.31,0.053c-0.151-0.624-0.317-1.256-0.496-1.896l-10.103-0.169
			c-2.607-0.044-8.964,0.075-17.661,0.297c0.022,0.703,0.045,1.407,0.062,2.104C164.224,514.966,170.671,514.816,173.252,514.831"/>
		<path clip-path="url(#SVGID_6_)" d="M183.291,537.266l-9.315,0.622c-3.034,0.202-9.861,0.552-19.06,0.99
			c-0.111,1.334-0.236,2.623-0.383,3.846c9.331-0.445,16.286-0.805,19.428-1.017C178.79,541.381,182.623,539.547,183.291,537.266"/>
		<path clip-path="url(#SVGID_6_)" d="M173.19,511.144l9.35,0.159c-0.989-2.144-4.885-3.704-9.589-3.787
			c-2.517-0.045-8.964,0.079-17.847,0.311c0.053,1.214,0.102,2.422,0.145,3.621C164.103,511.22,170.567,511.099,173.19,511.144"/>
		<path clip-path="url(#SVGID_6_)" d="M183.604,535.937c0.186-0.852,0.351-1.688,0.496-2.512l-10.313,0.565
			c-2.993,0.162-9.646,0.469-18.596,0.862c-0.05,0.924-0.106,1.829-0.17,2.712c9.022-0.429,15.709-0.771,18.674-0.969
			L183.604,535.937z"/>
		<path clip-path="url(#SVGID_6_)" d="M185.956,558.699c-0.111-0.675-0.239-1.355-0.384-2.043l-10.782,0.021
			c-3.607,0.007-11.815,0.209-22.731,0.533c-0.132,0.744-0.268,1.52-0.403,2.297c11.125-0.363,19.548-0.609,23.333-0.658
			L185.956,558.699z"/>
		<path clip-path="url(#SVGID_6_)" d="M186.348,569.366c0.076-0.851,0.128-1.692,0.155-2.53l-11.29,0.428
			c-3.344,0.123-12.627,0.489-25.067,0.983c-0.157,0.92-0.315,1.847-0.475,2.792c12.208-0.518,21.498-0.923,25.568-1.121
			L186.348,569.366z"/>
		<path clip-path="url(#SVGID_6_)" d="M185.903,572.982c0.146-0.924,0.265-1.833,0.358-2.73l-10.921,0.543
			c-3.855,0.189-13.318,0.603-25.82,1.133c-0.167,0.985-0.335,1.98-0.505,2.989c12.549-0.569,22.137-1.032,26.337-1.287
			L185.903,572.982z"/>
		<path clip-path="url(#SVGID_6_)" d="M175.065,562.539l11.329-0.292c-0.059-0.729-0.137-1.46-0.235-2.196l-11.22,0.156
			c-3.812,0.05-12.309,0.299-23.522,0.666c-0.135,0.774-0.271,1.559-0.41,2.36c5.877-0.211,10.14-0.354,12.116-0.402
			C167.002,562.736,170.975,562.639,175.065,562.539"/>
		<path clip-path="url(#SVGID_6_)" d="M186.522,565.8c0.005-0.788-0.012-1.573-0.051-2.359l-11.39,0.295
			c-4.095,0.102-8.067,0.199-11.946,0.295c-2.002,0.049-6.348,0.196-12.336,0.411c-0.155,0.902-0.312,1.813-0.472,2.746
			c11.839-0.464,20.841-0.813,24.821-0.959L186.522,565.8z"/>
		<path clip-path="url(#SVGID_6_)" d="M185.229,555.143c-0.151-0.623-0.316-1.254-0.495-1.893l-10.101-0.101
			c-3.643-0.036-11.521,0.116-21.923,0.387c-0.125,0.698-0.252,1.415-0.382,2.15c10.853-0.32,19.007-0.521,22.593-0.525
			L185.229,555.143z"/>
		<path clip-path="url(#SVGID_6_)" d="M184.99,577.592l-9.312,0.68c-4.061,0.296-14.166,0.823-27.468,1.464
			c-0.214,1.284-0.429,2.581-0.645,3.891c13.459-0.649,23.765-1.19,28.115-1.509C180.506,581.765,184.332,579.896,184.99,577.592"/>
		<path clip-path="url(#SVGID_6_)" d="M174.86,551.473l9.348,0.096c-0.989-2.138-4.883-3.671-9.587-3.723
			c-3.41-0.037-10.935,0.107-20.947,0.365c-0.21,1.143-0.429,2.343-0.663,3.644C163.381,551.587,171.232,551.436,174.86,551.473"/>
		<path clip-path="url(#SVGID_6_)" d="M185.298,576.251c0.182-0.86,0.344-1.705,0.485-2.536l-10.31,0.633
			c-4.066,0.248-13.799,0.716-26.579,1.293c-0.154,0.92-0.309,1.844-0.465,2.78c12.943-0.626,22.806-1.146,26.964-1.448
			L185.298,576.251z"/>
		<path clip-path="url(#SVGID_6_)" d="M187.613,599.197c-0.114-0.68-0.245-1.365-0.393-2.058l-10.782,0.056
			c-4.631,0.022-16.202,0.342-31.207,0.818c-0.124,0.778-0.249,1.558-0.372,2.338c15.19-0.522,26.972-0.896,31.788-0.971
			L187.613,599.197z"/>
		<path clip-path="url(#SVGID_6_)" d="M188.05,609.951c0.073-0.857,0.121-1.706,0.144-2.551l-11.289,0.45
			c-4.058,0.157-16.851,0.672-33.433,1.34c-0.146,0.945-0.291,1.888-0.436,2.829c16.244-0.69,28.918-1.246,33.907-1.497
			L188.05,609.951z"/>
		<path clip-path="url(#SVGID_6_)" d="M187.608,613.572c0.145-0.924,0.265-1.833,0.357-2.73l-10.92,0.561
			c-4.671,0.235-17.57,0.8-34.145,1.505c-0.155,1.008-0.307,2.01-0.459,3.012c16.566-0.746,29.536-1.366,34.616-1.683
			L187.608,613.572z"/>
		<path clip-path="url(#SVGID_6_)" d="M176.738,603.094l11.328-0.319c-0.061-0.735-0.143-1.473-0.245-2.215l-11.219,0.188
			c-4.827,0.076-16.684,0.452-31.961,0.978c-0.127,0.808-0.255,1.613-0.381,2.42c10.173-0.382,17.643-0.65,20.537-0.728
			C168.675,603.312,172.648,603.205,176.738,603.094"/>
		<path clip-path="url(#SVGID_6_)" d="M188.209,606.355c0.002-0.794-0.018-1.586-0.062-2.379l-11.389,0.322
			c-4.094,0.111-8.066,0.219-11.945,0.323c-2.911,0.078-10.464,0.351-20.744,0.735c-0.144,0.924-0.288,1.846-0.431,2.769
			c15.886-0.634,28.261-1.126,33.198-1.317L188.209,606.355z"/>
		<path clip-path="url(#SVGID_6_)" d="M186.871,595.614c-0.154-0.628-0.322-1.264-0.503-1.907l-10.102-0.064
			c-4.789-0.03-15.997,0.228-30.438,0.642c-0.118,0.73-0.235,1.462-0.353,2.195c14.941-0.474,26.459-0.792,31.088-0.813
			L186.871,595.614z"/>
		<path clip-path="url(#SVGID_6_)" d="M186.695,618.184l-9.312,0.693c-4.858,0.362-18.375,1.056-35.668,1.877
			c-0.194,1.305-0.386,2.6-0.574,3.883c17.459-0.829,31.166-1.534,36.244-1.913C182.212,622.363,186.037,620.488,186.695,618.184"/>
		<path clip-path="url(#SVGID_6_)" d="M176.485,591.953l9.349,0.061c-0.997-2.15-4.899-3.68-9.603-3.711
			c-4.593-0.03-15.455,0.219-29.535,0.62c-0.198,1.216-0.397,2.439-0.595,3.668C160.506,592.179,171.688,591.923,176.485,591.953"/>
		<path clip-path="url(#SVGID_6_)" d="M187.002,616.842c0.182-0.861,0.344-1.706,0.485-2.537l-10.309,0.649
			c-4.905,0.306-18.045,0.931-34.846,1.687c-0.143,0.938-0.282,1.869-0.421,2.8c16.969-0.809,30.229-1.492,35.187-1.861
			L187.002,616.842z"/>
		<path clip-path="url(#SVGID_6_)" d="M167,357.684l10.963,0.308c-0.081-0.674-0.178-1.354-0.292-2.042l-10.774-0.431
			c-3.31-0.135-13.618,0.029-27.396,0.346c0.027,0.723,0.057,1.478,0.092,2.268C153.348,357.785,163.655,357.586,167,357.684"/>
		<path clip-path="url(#SVGID_6_)" d="M430.41,366.094c0.063,0.83,0.153,1.663,0.268,2.504l11.123,0.097
			c2.766,0.021,11.038,0.269,22.341,0.64c0.062-0.928,0.122-1.84,0.177-2.729c-11.41-0.344-19.781-0.561-22.61-0.549L430.41,366.094
			z"/>
		<path clip-path="url(#SVGID_6_)" d="M430.805,369.469c0.137,0.879,0.3,1.769,0.49,2.673l10.571,0.221
			c2.704,0.055,10.854,0.332,22.018,0.729c0.069-0.977,0.137-1.94,0.2-2.882c-11.309-0.373-19.584-0.621-22.344-0.644
			L430.805,369.469z"/>
		<path clip-path="url(#SVGID_6_)" d="M441.667,359.036l-11.216,0.312c-0.065,0.734-0.111,1.463-0.137,2.189l11.331-0.179
			c4.091-0.071,8.064-0.138,11.943-0.205c1.307-0.022,5.261,0.066,11.032,0.229c0.036-0.682,0.069-1.351,0.101-1.996
			C453.152,359.102,444.626,358.951,441.667,359.036"/>
		<path clip-path="url(#SVGID_6_)" d="M453.631,362.346c-3.879,0.065-7.853,0.132-11.947,0.2l-11.393,0.177
			c-0.005,0.782,0.013,1.562,0.054,2.343l11.382-0.041c2.843-0.013,11.229,0.204,22.655,0.547c0.063-1.03,0.121-2.029,0.175-2.997
			C458.835,362.412,454.919,362.324,453.631,362.346"/>
		<path clip-path="url(#SVGID_6_)" d="M441.659,352.012l-10.088,0.528c-0.149,0.641-0.287,1.274-0.41,1.899l10.299-0.416
			c3.017-0.124,11.699-0.006,23.463,0.247c0.021-0.761,0.037-1.473,0.046-2.135C453.382,351.923,444.792,351.848,441.659,352.012"/>
		<path clip-path="url(#SVGID_6_)" d="M432.431,376.644c0.771,2.242,4.682,3.938,9.521,4.106c2.532,0.088,10.417,0.392,21.293,0.813
			c0.102-1.279,0.199-2.542,0.294-3.785c-11.098-0.427-19.17-0.735-21.772-0.822L432.431,376.644z"/>
		<path clip-path="url(#SVGID_6_)" d="M464.837,346.841c-11.613-0.203-20.228-0.27-23.402-0.099
			c-4.697,0.254-8.52,1.944-9.412,4.106l9.335-0.492c3.201-0.17,11.906-0.098,23.621,0.112c-0.005-1.029-0.03-1.886-0.08-2.536
			C464.872,347.585,464.853,347.218,464.837,346.841"/>
		<path clip-path="url(#SVGID_6_)" d="M431.45,372.858c0.182,0.812,0.385,1.637,0.608,2.477l9.93,0.327
			c2.593,0.086,10.613,0.391,21.648,0.815c0.067-0.901,0.133-1.793,0.196-2.669c-11.182-0.399-19.348-0.677-22.052-0.732
			L431.45,372.858z"/>
		<path clip-path="url(#SVGID_6_)" d="M440.006,395.562l-10.773,0.309c-0.114,0.687-0.212,1.365-0.293,2.039l10.965-0.185
			c2.438-0.043,10.618,0.154,21.904,0.484c0.069-0.747,0.138-1.493,0.206-2.237C450.656,395.665,442.431,395.491,440.006,395.562"/>
		<path clip-path="url(#SVGID_6_)" d="M428.758,406.002c0.064,0.83,0.154,1.665,0.269,2.507l11.123,0.223
			c2.246,0.043,9.901,0.308,20.567,0.696c0.092-0.899,0.183-1.801,0.273-2.705c-10.836-0.369-18.636-0.613-20.934-0.63
			L428.758,406.002z"/>
		<path clip-path="url(#SVGID_6_)" d="M429.153,409.381c0.137,0.882,0.301,1.772,0.491,2.679l10.571,0.342
			c2.196,0.068,9.672,0.354,20.115,0.759c0.1-0.949,0.199-1.902,0.297-2.86c-10.652-0.389-18.295-0.653-20.538-0.697
			L429.153,409.381z"/>
		<path clip-path="url(#SVGID_6_)" d="M440.015,399.073l-11.217,0.184c-0.065,0.734-0.11,1.462-0.138,2.188l11.333-0.051
			c4.092-0.023,8.064-0.046,11.944-0.068c0.92-0.006,4.364,0.094,9.553,0.266c0.064-0.679,0.128-1.356,0.192-2.034
			C450.507,399.229,442.42,399.031,440.015,399.073"/>
		<path clip-path="url(#SVGID_6_)" d="M440.031,402.583l-11.393,0.048c-0.005,0.781,0.013,1.562,0.054,2.343l11.383,0.089
			c2.309,0.016,10.142,0.26,21.017,0.63c0.096-0.969,0.19-1.939,0.284-2.911c-5.106-0.17-8.493-0.268-9.396-0.263
			C448.101,402.539,444.127,402.563,440.031,402.583"/>
		<path clip-path="url(#SVGID_6_)" d="M440.005,392.05l-10.088,0.414c-0.149,0.639-0.287,1.271-0.41,1.894l10.3-0.3
			c2.474-0.073,10.829,0.101,22.345,0.411c0.063-0.702,0.125-1.403,0.187-2.102C450.893,392.088,442.559,391.945,440.005,392.05"/>
		<path clip-path="url(#SVGID_6_)" d="M430.781,416.572c0.77,2.25,4.683,3.991,9.521,4.214c2.07,0.097,9.156,0.394,19.107,0.808
			c0.142-1.244,0.282-2.504,0.422-3.778c-10.262-0.424-17.586-0.729-19.714-0.825L430.781,416.572z"/>
		<path clip-path="url(#SVGID_6_)" d="M439.78,386.779c-4.698,0.201-8.521,1.847-9.413,3.999l9.337-0.387
			c2.622-0.109,11.128,0.034,22.779,0.316c0.105-1.213,0.209-2.418,0.31-3.615C451.018,386.811,442.418,386.667,439.78,386.779"/>
		<path clip-path="url(#SVGID_6_)" d="M429.8,412.777c0.182,0.813,0.385,1.641,0.608,2.482l9.931,0.44
			c2.114,0.095,9.408,0.398,19.634,0.82c0.095-0.877,0.189-1.76,0.283-2.646c-10.447-0.406-17.928-0.691-20.125-0.762L429.8,412.777
			z"/>
		<path clip-path="url(#SVGID_6_)" d="M438.641,435.686l-10.786,0.2c-0.146,0.69-0.274,1.373-0.385,2.049l10.971-0.075
			c2.058-0.017,9.04,0.174,18.854,0.483c0.104-0.728,0.208-1.471,0.313-2.231C447.703,435.818,440.667,435.646,438.641,435.686"/>
		<path clip-path="url(#SVGID_6_)" d="M426.922,446.079c0.026,0.836,0.078,1.677,0.154,2.525l11.113,0.321
			c1.975,0.055,8.302,0.289,17.238,0.63c0.049-0.256,0.1-0.529,0.148-0.776c0.121-0.603,0.243-1.249,0.367-1.926
			c-9.204-0.33-15.724-0.549-17.728-0.581L426.922,446.079z"/>
		<path clip-path="url(#SVGID_6_)" d="M427.164,449.483c0.097,0.889,0.221,1.787,0.369,2.7l10.557,0.431
			c1.951,0.079,8.043,0.326,16.657,0.676c0.171-1.005,0.343-1.952,0.513-2.861c-8.895-0.339-15.192-0.571-17.17-0.628
			L427.164,449.483z"/>
		<path clip-path="url(#SVGID_6_)" d="M438.491,439.215l-11.225,0.074c-0.099,0.737-0.177,1.472-0.235,2.201l11.333,0.058
			c4.093,0.016,8.066,0.03,11.946,0.045c0.658,0.003,2.956,0.073,6.475,0.194c0.104-0.676,0.209-1.378,0.314-2.095
			C447.412,439.387,440.528,439.199,438.491,439.215"/>
		<path clip-path="url(#SVGID_6_)" d="M438.349,442.744l-11.394-0.061c-0.041,0.787-0.058,1.572-0.053,2.359l11.379,0.193
			c2.005,0.032,8.572,0.253,17.845,0.585c0.156-0.896,0.313-1.841,0.473-2.842c-3.417-0.117-5.65-0.186-6.3-0.188
			C446.419,442.776,442.444,442.761,438.349,442.744"/>
		<path clip-path="url(#SVGID_6_)" d="M438.798,432.155l-10.104,0.309c-0.18,0.642-0.346,1.276-0.497,1.901l10.312-0.194
			c2.058-0.04,9.228,0.135,19.303,0.433c0.092-0.685,0.184-1.378,0.275-2.087C448.051,432.241,440.893,432.092,438.798,432.155"/>
		<path clip-path="url(#SVGID_6_)" d="M428.466,456.735c0.668,2.271,4.502,4.052,9.331,4.313c1.897,0.101,7.586,0.355,15.65,0.706
			c0.183-1.307,0.365-2.58,0.55-3.799c-8.381-0.361-14.292-0.625-16.214-0.727L428.466,456.735z"/>
		<path clip-path="url(#SVGID_6_)" d="M438.811,426.854c-4.705,0.148-8.603,1.762-9.591,3.918l9.352-0.288
			c2.142-0.065,9.472,0.088,19.729,0.369c0.149-1.181,0.299-2.391,0.447-3.623C448.355,426.944,440.937,426.787,438.811,426.854"/>
		<path clip-path="url(#SVGID_6_)" d="M427.656,452.907c0.146,0.82,0.311,1.654,0.496,2.504l9.911,0.522
			c1.897,0.101,7.781,0.361,16.136,0.722c0.144-0.913,0.286-1.797,0.429-2.649c-8.608-0.35-14.699-0.597-16.655-0.676
			L427.656,452.907z"/>
		<path clip-path="url(#SVGID_6_)" d="M436.972,476.017l-10.785,0.126c-0.145,0.689-0.272,1.371-0.384,2.047h10.97
			c1.923-0.002,7.205,0.138,14.667,0.368c0.076-0.745,0.151-1.493,0.229-2.228C444.154,476.114,438.849,475.993,436.972,476.017"/>
		<path clip-path="url(#SVGID_6_)" d="M425.255,486.331c0.026,0.837,0.078,1.678,0.154,2.527l11.112,0.397
			c1.934,0.068,6.907,0.26,13.891,0.533c0.073-0.907,0.148-1.811,0.227-2.711c-7.104-0.258-12.157-0.431-14.091-0.475
			L425.255,486.331z"/>
		<path clip-path="url(#SVGID_6_)" d="M425.497,489.738c0.098,0.89,0.221,1.789,0.37,2.703l10.556,0.504
			c1.955,0.093,6.848,0.304,13.698,0.593c0.07-0.96,0.145-1.917,0.221-2.872c-6.99-0.274-11.974-0.467-13.919-0.533L425.497,489.738
			z"/>
		<path clip-path="url(#SVGID_6_)" d="M425.6,479.543c-0.099,0.738-0.177,1.47-0.235,2.2l11.332,0.135
			c4.091,0.044,8.065,0.086,11.945,0.128c0.416,0.004,1.255,0.026,2.452,0.063c0.067-0.723,0.137-1.446,0.208-2.161
			c-7.36-0.228-12.567-0.364-14.479-0.362L425.6,479.543z"/>
		<path clip-path="url(#SVGID_6_)" d="M436.681,483.074l-11.394-0.138c-0.04,0.786-0.057,1.571-0.051,2.358l11.377,0.272
			c1.926,0.044,6.989,0.217,14.115,0.476c0.082-0.93,0.165-1.858,0.25-2.778c-1.137-0.034-1.943-0.056-2.349-0.06
			C444.75,483.162,440.776,483.119,436.681,483.074"/>
		<path clip-path="url(#SVGID_6_)" d="M437.129,472.486l-10.104,0.239c-0.179,0.642-0.345,1.274-0.496,1.899l10.312-0.124
			c1.899-0.023,7.322,0.101,14.993,0.32c0.076-0.696,0.152-1.395,0.229-2.08C444.448,472.543,439.053,472.441,437.129,472.486"/>
		<path clip-path="url(#SVGID_6_)" d="M426.8,497c0.668,2.276,4.502,4.084,9.33,4.377c2.007,0.122,6.78,0.354,13.436,0.658
			c0.072-1.271,0.149-2.541,0.232-3.813c-6.821-0.311-11.701-0.545-13.682-0.664L426.8,497z"/>
		<path clip-path="url(#SVGID_6_)" d="M437.143,467.185c-4.706,0.116-8.602,1.703-9.591,3.854l9.351-0.225
			c1.962-0.047,7.521,0.06,15.354,0.264c0.144-1.228,0.289-2.437,0.437-3.619C444.715,467.247,439.07,467.137,437.143,467.185"/>
		<path clip-path="url(#SVGID_6_)" d="M425.99,493.166c0.145,0.822,0.311,1.657,0.496,2.508l9.91,0.591
			c1.938,0.116,6.748,0.347,13.486,0.653c0.06-0.889,0.122-1.775,0.187-2.662c-6.876-0.29-11.792-0.503-13.765-0.596L425.99,493.166
			z"/>
		<path clip-path="url(#SVGID_6_)" d="M435.303,516.348l-10.784,0.052c-0.145,0.688-0.272,1.37-0.384,2.045l10.969,0.075
			c2.249,0.014,7.136,0.139,13.831,0.34c0.012-0.74,0.027-1.49,0.044-2.24C442.304,516.438,437.465,516.336,435.303,516.348"/>
		<path clip-path="url(#SVGID_6_)" d="M423.588,526.584c0.026,0.837,0.078,1.679,0.155,2.528l11.11,0.475
			c2.406,0.102,7.39,0.305,14.14,0.58c-0.025-0.897-0.046-1.808-0.061-2.732c-6.823-0.255-11.792-0.434-14.053-0.501
			L423.588,526.584z"/>
		<path clip-path="url(#SVGID_6_)" d="M423.831,529.993c0.097,0.89,0.22,1.791,0.369,2.706l10.555,0.577
			c2.49,0.135,7.554,0.371,14.379,0.675c-0.046-0.949-0.085-1.917-0.117-2.903c-6.803-0.277-11.829-0.484-14.263-0.586
			L423.831,529.993z"/>
		<path clip-path="url(#SVGID_6_)" d="M423.932,519.797c-0.098,0.737-0.176,1.469-0.234,2.198l11.33,0.214
			c4.092,0.071,8.064,0.142,11.944,0.209c0.44,0.008,1.101,0.025,1.931,0.049c0.002-0.744,0.008-1.496,0.018-2.252
			c-6.65-0.2-11.513-0.324-13.767-0.338L423.932,519.797z"/>
		<path clip-path="url(#SVGID_6_)" d="M435.013,523.405l-11.393-0.217c-0.04,0.786-0.057,1.571-0.052,2.359l11.376,0.35
			c2.349,0.071,7.277,0.245,13.975,0.493c-0.011-0.897-0.016-1.806-0.017-2.725c-0.833-0.023-1.496-0.041-1.942-0.049
			C443.08,523.549,439.107,523.478,435.013,523.405"/>
		<path clip-path="url(#SVGID_6_)" d="M435.46,512.818l-10.103,0.169c-0.179,0.642-0.345,1.272-0.495,1.896l10.31-0.053
			c2.169-0.012,7.07,0.092,13.839,0.275c0.019-0.692,0.042-1.392,0.063-2.091C442.459,512.858,437.644,512.781,435.46,512.818"/>
		<path clip-path="url(#SVGID_6_)" d="M425.133,537.266c0.668,2.281,4.502,4.115,9.33,4.441c2.666,0.18,8.076,0.466,15.352,0.82
			c-0.144-1.221-0.265-2.515-0.373-3.845c-7.141-0.347-12.425-0.624-14.993-0.795L425.133,537.266z"/>
		<path clip-path="url(#SVGID_6_)" d="M435.473,507.516c-4.705,0.083-8.601,1.644-9.59,3.787l9.351-0.159
			c2.205-0.038,7.123,0.042,13.895,0.203c0.043-1.201,0.092-2.409,0.146-3.622C442.488,507.56,437.589,507.478,435.473,507.516"/>
		<path clip-path="url(#SVGID_6_)" d="M424.323,533.425c0.146,0.823,0.311,1.66,0.496,2.512l9.909,0.659
			c2.5,0.167,7.646,0.436,14.607,0.773c-0.063-0.878-0.117-1.778-0.165-2.696c-6.896-0.308-12.014-0.546-14.535-0.683
			L424.323,533.425z"/>
		<path clip-path="url(#SVGID_6_)" d="M422.852,556.656c-0.146,0.688-0.273,1.368-0.384,2.043l10.967,0.15
			c3.307,0.043,10.163,0.236,19.26,0.526c-0.136-0.773-0.271-1.543-0.401-2.283c-8.873-0.254-15.518-0.409-18.66-0.414
			L422.852,556.656z"/>
		<path clip-path="url(#SVGID_6_)" d="M421.921,566.836c0.026,0.838,0.079,1.68,0.155,2.53l11.108,0.552
			c3.603,0.175,11.304,0.514,21.488,0.947c-0.16-0.941-0.317-1.864-0.474-2.78c-10.376-0.411-18.021-0.712-20.988-0.821
			L421.921,566.836z"/>
		<path clip-path="url(#SVGID_6_)" d="M422.162,570.252c0.093,0.897,0.213,1.807,0.358,2.73l10.551,0.647
			c3.731,0.227,11.722,0.617,22.255,1.102c-0.17-1.006-0.337-1.996-0.503-2.978c-10.47-0.446-18.316-0.79-21.74-0.958
			L422.162,570.252z"/>
		<path clip-path="url(#SVGID_6_)" d="M422.265,560.051c-0.099,0.736-0.177,1.468-0.235,2.196l11.329,0.292
			c4.091,0.1,8.063,0.197,11.941,0.292c1.484,0.036,4.262,0.126,8.041,0.258c-0.14-0.796-0.274-1.579-0.408-2.348
			c-9.188-0.294-16.113-0.49-19.448-0.534L422.265,560.051z"/>
		<path clip-path="url(#SVGID_6_)" d="M433.343,563.735l-11.39-0.295c-0.04,0.786-0.057,1.571-0.052,2.359l11.374,0.429
			c3.51,0.128,10.922,0.415,20.743,0.8c-0.159-0.929-0.314-1.834-0.47-2.73c-3.893-0.138-6.745-0.23-8.26-0.268
			C441.41,563.935,437.438,563.838,433.343,563.735"/>
		<path clip-path="url(#SVGID_6_)" d="M433.79,553.149l-10.101,0.101c-0.179,0.639-0.345,1.27-0.495,1.893l10.308,0.019
			c3.121,0.004,9.713,0.157,18.521,0.407c-0.13-0.73-0.256-1.441-0.38-2.136C443.262,553.229,436.942,553.118,433.79,553.149"/>
		<path clip-path="url(#SVGID_6_)" d="M423.434,577.592c0.658,2.304,4.483,4.173,9.31,4.525c3.898,0.285,12.587,0.75,24.031,1.311
			c-0.216-1.311-0.431-2.607-0.645-3.891c-11.271-0.551-19.752-1.001-23.385-1.266L423.434,577.592z"/>
		<path clip-path="url(#SVGID_6_)" d="M433.803,547.846c-4.704,0.052-8.6,1.585-9.588,3.723l9.349-0.096
			c3.136-0.032,9.429,0.076,17.779,0.279c-0.234-1.301-0.453-2.502-0.663-3.643C442.707,547.916,436.733,547.813,433.803,547.846"/>
		<path clip-path="url(#SVGID_6_)" d="M422.641,573.715c0.142,0.831,0.303,1.676,0.485,2.536l9.905,0.722
			c3.709,0.271,11.953,0.713,22.88,1.25c-0.155-0.933-0.31-1.852-0.464-2.768c-10.762-0.492-18.875-0.887-22.497-1.107
			L422.641,573.715z"/>
		<path clip-path="url(#SVGID_6_)" d="M431.985,597.195l-10.782-0.056c-0.147,0.692-0.278,1.378-0.393,2.058l10.967,0.184
			c4.375,0.068,14.508,0.383,27.715,0.831c-0.123-0.776-0.246-1.552-0.37-2.326C446.112,597.48,436.188,597.215,431.985,597.195"/>
		<path clip-path="url(#SVGID_6_)" d="M431.518,607.851l-11.288-0.45c0.022,0.846,0.071,1.693,0.144,2.551l11.107,0.571
			c4.563,0.229,15.56,0.715,29.829,1.323c-0.145-0.938-0.288-1.877-0.435-2.819C446.296,608.439,435.236,607.994,431.518,607.851"/>
		<path clip-path="url(#SVGID_6_)" d="M431.378,611.402l-10.92-0.563c0.093,0.899,0.212,1.809,0.356,2.732l10.552,0.664
			c4.654,0.29,15.938,0.835,30.537,1.498c-0.151-0.998-0.303-1.996-0.457-3.001C446.846,612.11,435.66,611.618,431.378,611.402"/>
		<path clip-path="url(#SVGID_6_)" d="M431.821,600.747l-11.219-0.187c-0.102,0.741-0.184,1.479-0.245,2.214l11.328,0.319
			c4.091,0.111,8.063,0.218,11.941,0.323c2.492,0.066,8.381,0.275,16.462,0.575c-0.126-0.803-0.252-1.604-0.379-2.406
			C446.414,601.134,436.211,600.816,431.821,600.747"/>
		<path clip-path="url(#SVGID_6_)" d="M443.61,604.622c-3.879-0.104-7.851-0.212-11.945-0.323l-11.389-0.322
			c-0.044,0.793-0.063,1.585-0.062,2.379l11.373,0.454c4.506,0.173,15.21,0.599,29.122,1.153c-0.143-0.918-0.286-1.837-0.43-2.758
			C452.093,604.901,446.121,604.689,443.61,604.622"/>
		<path clip-path="url(#SVGID_6_)" d="M432.158,593.643l-10.104,0.064c-0.18,0.644-0.348,1.279-0.502,1.907l10.308,0.053
			c4.198,0.019,14.072,0.283,27.017,0.685c-0.117-0.729-0.233-1.456-0.351-2.183C446.058,593.823,436.487,593.615,432.158,593.643"
			/>
		<path clip-path="url(#SVGID_6_)" d="M431.04,618.877l-9.313-0.693c0.659,2.305,4.484,4.18,9.312,4.54
			c4.674,0.349,16.669,0.974,32.164,1.718c-0.188-1.283-0.38-2.578-0.574-3.883C447.31,619.823,435.51,619.21,431.04,618.877"/>
		<path clip-path="url(#SVGID_6_)" d="M432.192,588.303c-4.704,0.031-8.604,1.561-9.604,3.711l9.35-0.061
			c4.336-0.027,13.881,0.179,26.314,0.522c-0.198-1.228-0.396-2.451-0.595-3.667C445.566,588.475,436.332,588.275,432.192,588.303"
			/>
		<path clip-path="url(#SVGID_6_)" d="M431.245,614.954l-10.31-0.649c0.142,0.831,0.304,1.676,0.485,2.537l9.904,0.737
			c4.554,0.339,16.106,0.943,31.106,1.666c-0.139-0.927-0.277-1.853-0.419-2.788C447.177,615.784,435.746,615.234,431.245,614.954"
			/>
		<path clip-path="url(#SVGID_6_)" d="M441.526,355.519l-10.773,0.431c-0.114,0.688-0.211,1.368-0.293,2.042l10.964-0.308
			c3.008-0.087,11.652,0.064,23.36,0.349c0.034-0.785,0.064-1.54,0.091-2.259C453.147,355.519,444.503,355.398,441.526,355.519"/>
	</g>
	<g id="MIDDLE_AREA" clip-path="url(#SVGID_2_)">
		<defs>
			<rect id="SVGID_7_" width="612" height="792"/>
		</defs>
		<clipPath id="SVGID_8_">
			<use xlink:href="#SVGID_7_"  overflow="visible"/>
		</clipPath>
		<path clip-path="url(#SVGID_8_)" fill="#FFFFFF" d="M171.914,254.978c2.851,14.077,7.956,40.416,12.351,69.12
			c5.526,36.093,15.54,77.316,33.68,106.334c3.167,5.065,9.596,8.616,17.043,9.399c28.41,2.988,48.58,4.565,68.327,4.731v0.015
			c0.131-0.001,0.262-0.001,0.393-0.001c0.168-0.001,0.336-0.004,0.504-0.005c0.168,0.001,0.337,0.004,0.504,0.005
			c0.132,0,0.262,0,0.393,0.001v-0.015c19.747-0.166,39.917-1.743,68.328-4.731c7.446-0.783,13.876-4.334,17.043-9.399
			c18.14-29.019,28.153-70.242,33.68-106.334c4.395-28.704,9.5-55.043,12.351-69.12c-0.901-2.915-10.502-36.188-10.871-41.908
			l55.641,22.151c1.124-5.982,2.035-10.728,2.539-13.149c1.561-7.49,6.79-27.284,10.463-42.058l-46.433,5.463
			c15.469-9.359,24.373-20.326,24.373-32.053c0-5.638-2.07-11.1-5.927-16.293c-5.176,34.243-75.565,61.43-162.083,61.909
			c-86.518-0.479-156.907-27.666-162.083-61.909c-3.857,5.193-5.926,10.655-5.926,16.293c0,11.727,8.903,22.694,24.372,32.053
			l-50.928-5.992c3.679,14.827,9.016,35.007,10.595,42.587c0.548,2.635,1.579,8.025,2.842,14.765l59.702-23.767
			C182.416,218.79,172.815,252.063,171.914,254.978"/>
	</g>
	<g id="UPPER_BODY" clip-path="url(#SVGID_2_)">
		<defs>
			<rect id="SVGID_9_" width="612" height="792"/>
		</defs>
		<clipPath id="SVGID_10_">
			<use xlink:href="#SVGID_9_"  overflow="visible"/>
		</clipPath>
		<path clip-path="url(#SVGID_10_)" fill="#BF2A43" d="M499.557,142.288c-0.992-0.688-1.607-1.136-1.607-1.136
			s-22.881-7.627-55.085-20.339c-20.327-8.023-38.282-20.094-49.833-28.762c-5.723,6.24-29.657,27.883-86.738,28.448
			c-56.6,0.561-83.857-23.649-91.111-31.383c-11.152,8.674-30.927,22.719-53.673,31.697c-32.203,12.712-55.085,20.339-55.085,20.339
			s-0.749,0.544-1.917,1.349v0.005c0.014,0.648,0.032,1.364,0.055,2.129c0.001,0.062,0.003,0.124,0.005,0.186
			c0.011,0.358,0.023,0.726,0.036,1.105c0,0.022,0.001,0.043,0.002,0.066c0.014,0.396,0.029,0.804,0.045,1.219
			c0.003,0.081,0.007,0.164,0.01,0.246c0.014,0.335,0.028,0.676,0.043,1.021c0.005,0.105,0.01,0.209,0.015,0.316
			c0.019,0.422,0.04,0.851,0.062,1.286c0.003,0.055,0.006,0.112,0.009,0.167c0.019,0.377,0.04,0.757,0.063,1.141
			c0.007,0.134,0.016,0.269,0.023,0.404c0.022,0.364,0.045,0.73,0.069,1.099c0.006,0.085,0.01,0.169,0.016,0.254
			c0.03,0.446,0.061,0.893,0.095,1.341c0.008,0.12,0.018,0.241,0.027,0.363c0.026,0.343,0.054,0.687,0.082,1.03
			c0.011,0.136,0.022,0.272,0.034,0.408c0.038,0.448,0.078,0.895,0.12,1.34c0.005,0.05,0.01,0.099,0.015,0.148
			c0.038,0.401,0.078,0.799,0.12,1.194c0.015,0.134,0.029,0.267,0.044,0.4c0.039,0.351,0.079,0.7,0.12,1.045
			c0.011,0.099,0.023,0.199,0.035,0.297c0.052,0.429,0.108,0.852,0.165,1.269c0.013,0.102,0.029,0.201,0.043,0.302
			c0.046,0.329,0.094,0.654,0.144,0.975c0.018,0.116,0.036,0.233,0.054,0.348c0.065,0.404,0.132,0.804,0.203,1.19
			c0.547,3.01,1.843,8.476,3.444,14.923l50.87,5.758c-15.469-9.358-24.372-20.325-24.372-32.052c0-5.638,2.069-11.1,5.926-16.293
			c5.176,34.242,75.565,61.429,162.083,61.909c86.518-0.48,156.907-27.667,162.083-61.909c3.857,5.193,5.927,10.655,5.927,16.293
			c0,11.727-8.904,22.694-24.373,32.052l46.375-5.23c1.662-6.679,3.014-12.358,3.575-15.451
			C499.072,157.793,499.447,147.653,499.557,142.288"/>
	</g>
	<g id="SLEEVE" clip-path="url(#SVGID_2_)">
		<defs>
			<rect id="SVGID_11_" width="612" height="792"/>
		</defs>
		<clipPath id="SVGID_12_">
			<use xlink:href="#SVGID_11_"  overflow="visible"/>
		</clipPath>
		<path clip-path="url(#SVGID_12_)" fill="#FDBB2D" d="M489.606,264.992c-0.006,0.027-0.01,0.043-0.01,0.043
			S489.602,265.016,489.606,264.992"/>
		<path clip-path="url(#SVGID_12_)" fill="#BF2A43" d="M135.179,308.406c0-0.009,0-0.018,0-0.026
			c-0.008-0.495-0.02-1.005-0.035-1.525c-0.001-0.045-0.003-0.09-0.004-0.135c-0.015-0.5-0.033-1.008-0.056-1.522
			c-0.002-0.045-0.004-0.09-0.006-0.135c-0.024-0.542-0.053-1.088-0.088-1.635c0-0.008-0.001-0.016-0.001-0.023
			c-0.036-0.553-0.077-1.106-0.124-1.653c-0.003-0.037-0.006-0.075-0.01-0.112c-0.045-0.513-0.095-1.021-0.152-1.52
			c-0.006-0.052-0.012-0.105-0.018-0.158c-0.057-0.493-0.121-0.975-0.191-1.444c-0.006-0.042-0.012-0.085-0.019-0.127
			c-0.076-0.502-0.16-0.989-0.253-1.453c-1.353-6.765-11.726-64.042-13.981-74.866c-2.254-10.824-12.177-47.355-13.98-57.277
			c-0.071-0.387-0.138-0.786-0.203-1.19c-0.018-0.116-0.036-0.232-0.054-0.348c-0.05-0.321-0.098-0.646-0.144-0.976
			c-0.014-0.1-0.029-0.199-0.043-0.301c-0.058-0.417-0.113-0.841-0.165-1.269c-0.013-0.098-0.024-0.198-0.035-0.297
			c-0.042-0.345-0.082-0.694-0.12-1.045c-0.015-0.133-0.029-0.266-0.044-0.4c-0.042-0.396-0.082-0.793-0.12-1.194
			c-0.005-0.049-0.01-0.098-0.015-0.148c-0.042-0.445-0.082-0.892-0.12-1.34c-0.012-0.136-0.023-0.272-0.034-0.408
			c-0.028-0.344-0.056-0.687-0.082-1.031c-0.009-0.121-0.019-0.241-0.028-0.362c-0.033-0.449-0.064-0.895-0.094-1.341
			c-0.006-0.085-0.01-0.169-0.016-0.255c-0.024-0.368-0.047-0.734-0.069-1.098c-0.008-0.136-0.016-0.27-0.023-0.405
			c-0.023-0.383-0.043-0.763-0.063-1.14c-0.003-0.055-0.006-0.112-0.009-0.168c-0.022-0.435-0.043-0.862-0.062-1.285
			c-0.005-0.107-0.01-0.211-0.015-0.316c-0.015-0.346-0.029-0.686-0.043-1.021c-0.003-0.082-0.007-0.165-0.01-0.246
			c-0.016-0.416-0.032-0.824-0.045-1.22c-0.001-0.022-0.002-0.043-0.002-0.065c-0.013-0.38-0.025-0.747-0.036-1.105
			c-0.002-0.062-0.004-0.124-0.005-0.186c-0.023-0.766-0.041-1.48-0.055-2.129v-0.005c-2.995,2.064-8.831,5.906-12.49,7.126
			c-5.085,1.695-33.898,23.729-42.373,53.39C41.17,232.677,39.475,305.56,39.475,305.56l-2.543,12.712l-2.542,7.627
			c0,0,29.661,7.627,55.085,9.322c25.424,1.695,41.525,1.695,41.525,1.695s1.695-1.695,0.848-6.78
			c-0.848-5.084-1.695-6.779-0.848-9.322c0.792-2.376,3.805-9.934,4.195-10.909C135.192,309.425,135.187,308.923,135.179,308.406"/>
		<path clip-path="url(#SVGID_12_)" fill="#BF2A43" d="M567.44,318.271l-2.542-12.711c0,0-1.695-72.882-10.17-102.543
			s-37.288-51.695-42.373-53.39c-3.784-1.261-9.91-5.336-12.799-7.339c-0.11,5.365-0.484,15.505-1.757,22.507
			c-1.805,9.922-11.727,46.453-13.981,57.277c-2.255,10.824-12.628,68.101-13.98,74.866c-0.863,4.313-0.992,10.456-0.973,14.344
			c0.169-0.941,0.271-1.486,0.271-1.486s3.39,8.475,4.237,11.017c0.848,2.543,0,4.238-0.848,9.323
			c-0.848,5.084,0.848,6.779,0.848,6.779s16.102,0,41.525-1.695c25.424-1.695,55.085-9.322,55.085-9.322L567.44,318.271z"/>
	</g>
	<g id="COLLAR" clip-path="url(#SVGID_2_)">
		<defs>
			<rect id="SVGID_13_" width="612" height="792"/>
		</defs>
		<clipPath id="SVGID_14_">
			<use xlink:href="#SVGID_13_"  overflow="visible"/>
		</clipPath>
		<path clip-path="url(#SVGID_14_)" fill="#BF2A43" d="M306.293,120.5c57.082-0.565,81.016-22.208,86.739-28.449
			c-6.75-5.064-11.317-8.97-12.88-10.22c-4.237-3.39-4.237-5.932-8.475-8.475c-4.237-2.542-5.932-10.169-14.406-14.406
			c-5.395-2.697-29.667-3.678-46.604-4.034l-0.007-0.204c0,0-3.331,0-8.475,0.063c-5.144-0.063-8.475-0.063-8.475-0.063
			l-0.006,0.204c-16.937,0.356-41.21,1.337-46.604,4.034c-8.475,4.237-10.169,11.864-14.407,14.406
			c-4.237,2.543-4.237,5.085-8.474,8.475c-1.244,0.996-4.401,3.68-9.038,7.286C222.437,96.851,249.693,121.061,306.293,120.5"/>
	</g>
	<g clip-path="url(#SVGID_2_)">
		<defs>
			<rect id="SVGID_15_" width="612" height="792"/>
		</defs>
		<clipPath id="SVGID_16_">
			<use xlink:href="#SVGID_15_"  overflow="visible"/>
		</clipPath>
		<path clip-path="url(#SVGID_16_)" d="M135.178,308.38c0,0.009,0,0.018,0,0.026C135.178,308.398,135.178,308.389,135.178,308.38"/>
		<path clip-path="url(#SVGID_16_)" d="M135.194,309.904"/>
		<path clip-path="url(#SVGID_16_)" fill="#FFFFFF" d="M306.334,93c35,0.333,61.666-17.667,61.332-20.667
			c-0.332-3-6.072-8.571-9.739-11.237c-3.667-2.667-21.1-4.448-56.1-4.256c-35.401,0.193-47.395,1.547-52.231,2.708
			c-4.837,1.16-12.801,9.994-11.801,11.994S271.539,92.668,306.334,93"/>
		<g opacity="0.35" clip-path="url(#SVGID_16_)">
			<g>
				<defs>
					<rect id="SVGID_17_" x="237.709" y="56.826" width="129.961" height="36.179"/>
				</defs>
				<clipPath id="SVGID_18_">
					<use xlink:href="#SVGID_17_"  overflow="visible"/>
				</clipPath>
				<g clip-path="url(#SVGID_18_)">
					<defs>
						<path id="SVGID_19_" d="M306.333,93c35,0.333,61.667-17.667,61.334-20.667c-0.334-3-6.073-8.571-9.74-11.237
							c-3.667-2.667-21.1-4.448-56.1-4.256c-35.402,0.193-47.396,1.547-52.232,2.708c-4.836,1.16-12.801,9.994-11.801,11.994
							S271.539,92.668,306.333,93"/>
					</defs>
					<clipPath id="SVGID_20_">
						<use xlink:href="#SVGID_19_"  overflow="visible"/>
					</clipPath>
					
						<radialGradient id="SVGID_21_" cx="0" cy="792" r="1" gradientTransform="matrix(102.1332 0 0 -40.5422 303.5625 32168.2188)" gradientUnits="userSpaceOnUse">
						<stop  offset="0" style="stop-color:#FFFFFF"/>
						<stop  offset="1" style="stop-color:#FFFFFF"/>
					</radialGradient>
					<rect x="236.794" y="56.648" clip-path="url(#SVGID_20_)" fill="url(#SVGID_21_)" width="131.206" height="36.685"/>
				</g>
				<g clip-path="url(#SVGID_18_)">
					<defs>
						<path id="SVGID_22_" d="M306.333,93c35,0.333,61.667-17.667,61.334-20.667c-0.334-3-6.073-8.571-9.74-11.237
							c-3.667-2.667-21.1-4.448-56.1-4.256c-35.402,0.193-47.396,1.547-52.232,2.708c-4.836,1.16-12.801,9.994-11.801,11.994
							S271.539,92.668,306.333,93"/>
					</defs>
					<clipPath id="SVGID_23_">
						<use xlink:href="#SVGID_22_"  overflow="visible"/>
					</clipPath>
					
						<radialGradient id="SVGID_24_" cx="0" cy="792" r="1" gradientTransform="matrix(102.1332 0 0 -40.5422 303.5625 32168.2188)" gradientUnits="userSpaceOnUse">
						<stop  offset="0" style="stop-color:#FFFFFF"/>
						<stop  offset="0.1085" style="stop-color:#EBEBEB"/>
						<stop  offset="0.3308" style="stop-color:#B7B7B7"/>
						<stop  offset="0.6481" style="stop-color:#646464"/>
						<stop  offset="1" style="stop-color:#000000"/>
					</radialGradient>
					<rect x="236.794" y="56.648" clip-path="url(#SVGID_23_)" fill="url(#SVGID_24_)" width="131.206" height="36.685"/>
				</g>
			</g>
		</g>
		<g opacity="0.5" clip-path="url(#SVGID_16_)">
			<g>
				<defs>
					<rect id="SVGID_25_" x="55.062" y="64.08" width="499.672" height="676.005"/>
				</defs>
				<clipPath id="SVGID_26_">
					<use xlink:href="#SVGID_25_"  overflow="visible"/>
				</clipPath>
				<g opacity="0.1" clip-path="url(#SVGID_26_)">
					<g>
						<defs>
							<rect id="SVGID_27_" x="348.338" y="64.08" width="151.219" height="669.249"/>
						</defs>
						<clipPath id="SVGID_28_">
							<use xlink:href="#SVGID_27_"  overflow="visible"/>
						</clipPath>
						<path clip-path="url(#SVGID_28_)" fill="#897F76" d="M469.838,296.938c1.353-6.765,11.726-64.042,13.98-74.866
							c2.255-10.824,12.177-47.355,13.981-57.277c1.272-7.002,1.646-17.142,1.757-22.507c-0.992-0.688-1.607-1.136-1.607-1.136
							s-22.883-7.627-55.085-20.339c-32.203-12.711-58.475-35.593-62.712-38.982c-4.237-3.391-4.237-5.933-8.475-8.475
							c-2.805-1.683-4.506-5.594-7.788-9.275l-1.724,0.602c2.751,2.63,5.282,5.688,5.501,7.651
							c0.176,1.584-7.188,7.354-19.329,12.397c0.982,2.037,1.691,3.961,1.806,5.441c0.437,5.683,0,5.245,0,13.552
							c0,8.306,3.06,16.611,8.306,28.852c5.246,12.24,10.929,5.683,14.863,23.17c3.935,17.486-19.672,14.426-19.672,14.426
							s21.421,3.06,45.027,1.748c23.606-1.311,18.36,0,34.973-1.748c16.612-1.749,16.612-4.372,41.967,2.623
							c25.355,6.994,6.12,22.732,4.372,40.655c-1.749,17.924-27.104,15.301-34.536,24.918c-7.432,9.618-2.622,84.372-1.748,92.678
							c0.874,8.306-17.049,22.732-17.049,22.732s-4.81,13.99-7.869,24.481c-3.061,10.492,4.809,32.351,4.371,55.957
							c-0.437,23.606-21.857,54.645-29.289,71.693c-7.432,17.05-1.749,33.661,10.491,70.821c12.241,37.157,4.81,4.808,13.989,16.174
							c9.181,11.367,4.809,6.994,9.617,23.169c4.81,16.175,6.558,40.657,6.558,40.657s1.749,25.354,7.869,48.523
							c6.12,23.169,3.497,12.678,19.235,26.229l4.984,1.846c4.652-3.46,5.074-6.583,5.074-6.583v-5.934
							c0,0,1.695-7.626,1.695-11.016c0-3.391-3.389-6.78-3.389-6.78s0-19.491-2.544-45.763
							c-2.542-26.271-12.712-87.288-16.949-110.169c-4.237-22.882,0.848-77.119,5.085-98.306s10.17-89.83,9.322-100.847
							c-0.729-9.477,2.93-30.856,3.967-36.65C468.846,307.394,468.975,301.251,469.838,296.938"/>
					</g>
				</g>
				<g opacity="0.1" clip-path="url(#SVGID_26_)">
					<g>
						<defs>
							<rect id="SVGID_29_" x="104.507" y="67.366" width="170.559" height="672.719"/>
						</defs>
						<clipPath id="SVGID_30_">
							<use xlink:href="#SVGID_29_"  overflow="visible"/>
						</clipPath>
						<path clip-path="url(#SVGID_30_)" fill="#897F76" d="M272.319,87.434c-19.573-5.912-33.869-14.582-34.525-15.892
							c-0.32-0.641,0.286-1.985,1.407-3.551c-0.46-0.221-0.903-0.432-1.307-0.625c-1.806,2.526-3.231,4.809-5.2,5.99
							c-4.237,2.542-4.237,5.084-8.474,8.474c-4.237,3.39-30.508,26.271-62.712,38.983c-32.203,12.712-55.085,20.339-55.085,20.339
							s-0.748,0.542-1.916,1.347c0.115,5.418,0.497,15.386,1.753,22.296c1.804,9.922,11.726,46.453,13.981,57.277
							c2.255,10.824,12.628,68.101,13.981,74.866c0.766,3.831,0.953,9.109,0.972,12.966c0.027-0.068,0.043-0.108,0.043-0.108
							s5.085,27.119,4.237,38.136c-0.847,11.017,5.085,79.661,9.323,100.847c4.236,21.187,9.321,75.424,5.084,98.306
							c-4.237,22.881-14.407,83.898-16.949,110.169c-2.543,26.271-2.543,45.764-2.543,45.764S131,706.406,131,709.797
							c0,3.39,1.694,11.017,1.694,11.017v5.933c0,0,1.205,8.96,22.157,13.339c1.791-10.184,4.452-28.093,2.942-37.454
							c-2.185-13.552,1.749-10.929,7.869-20.109c6.12-9.181,4.809-39.781,5.683-76.504c0.874-36.721,69.946-18.797,69.946-18.797
							s5.682-7.869,4.808-18.798s-35.409-59.017-41.967-69.945c-6.557-10.929,3.498-9.617,3.498-9.617s-9.618-4.372-13.553-25.792
							c-3.934-21.421,6.558-47.65,16.175-70.383c9.618-22.732,37.596-46.338,37.596-46.338s-30.164,4.808-59.016-8.307
							c-28.853-13.114-30.602-35.409-34.536-104.043c-3.935-68.634,2.623-82.186,18.36-83.061
							c15.738-0.874,71.257,17.487,79.563,20.984c0,0,5.246-10.929,3.497-17.486c-1.748-6.558,3.498-17.049,9.618-28.416
							c6.12-11.366,6.12-6.12,8.306-7.868c2.186-1.749,0.437-11.803-0.874-14.863c-1.312-3.061-0.437-3.935,2.186-10.93
							C275.432,91.075,274.368,89.367,272.319,87.434"/>
					</g>
				</g>
				<g opacity="0.12" clip-path="url(#SVGID_26_)">
					<g>
						<defs>
							<rect id="SVGID_31_" x="55.062" y="198.15" width="78.251" height="112.35"/>
						</defs>
						<clipPath id="SVGID_32_">
							<use xlink:href="#SVGID_31_"  overflow="visible"/>
						</clipPath>
						<path clip-path="url(#SVGID_32_)" fill="#897F76" d="M114.515,269.844c-2.186-3.497-52.896-71.694-52.896-71.694
							s0.875,6.557,4.372,13.989c3.497,7.432,38.907,52.022,38.907,52.022s-31.913-34.973-33.661-37.158
							c-1.749-2.186-16.175-13.553-16.175-11.804s10.929,13.552,19.672,21.858c8.743,8.306,26.666,26.23,34.972,38.907
							c8.307,12.678,23.607,34.536,23.607,34.536s-3.06-12.678-5.246-17.924C125.88,287.33,116.701,273.342,114.515,269.844"/>
					</g>
				</g>
				<g opacity="0.12" clip-path="url(#SVGID_26_)">
					<g>
						<defs>
							<rect id="SVGID_33_" x="65.116" y="187.658" width="34.098" height="39.344"/>
						</defs>
						<clipPath id="SVGID_34_">
							<use xlink:href="#SVGID_33_"  overflow="visible"/>
						</clipPath>
						<path clip-path="url(#SVGID_34_)" fill="#897F76" d="M79.979,209.079c-3.06-4.372-14.863-21.42-14.863-21.42
							s4.808,17.923,14.426,27.103c9.617,9.181,19.672,12.241,19.672,12.241S83.04,213.451,79.979,209.079"/>
					</g>
				</g>
				<g opacity="0.12" clip-path="url(#SVGID_26_)">
					<g>
						<defs>
							<rect id="SVGID_35_" x="475.171" y="211.265" width="79.563" height="80"/>
						</defs>
						<clipPath id="SVGID_36_">
							<use xlink:href="#SVGID_35_"  overflow="visible"/>
						</clipPath>
						<path clip-path="url(#SVGID_36_)" fill="#897F76" d="M552.984,211.265c0,0-5.683,11.366-10.491,20.109
							c-4.809,8.744-25.355,25.355-36.284,31.475c-10.929,6.121-31.038,28.416-31.038,28.416s9.18-1.749,14.863-6.12
							c5.683-4.372,41.967-18.798,55.956-38.907C559.979,226.127,552.984,211.265,552.984,211.265"/>
					</g>
				</g>
				<g opacity="0.12" clip-path="url(#SVGID_26_)">
					<g>
						<defs>
							<rect id="SVGID_37_" x="482.602" y="277.713" width="63.389" height="26.067"/>
						</defs>
						<clipPath id="SVGID_38_">
							<use xlink:href="#SVGID_37_"  overflow="visible"/>
						</clipPath>
						<path clip-path="url(#SVGID_38_)" fill="#897F76" d="M518.012,294.762c-12.24,3.498-35.409,7.869-35.409,7.869
							s16.611,4.372,37.158-3.934c20.547-8.307,26.229-20.984,26.229-20.984S530.253,291.265,518.012,294.762"/>
					</g>
				</g>
				<g opacity="0.12" clip-path="url(#SVGID_26_)">
					<g>
						<defs>
							<rect id="SVGID_39_" x="489.607" y="219.454" width="46.766" height="45.538"/>
						</defs>
						<clipPath id="SVGID_40_">
							<use xlink:href="#SVGID_39_"  overflow="visible"/>
						</clipPath>
						<path clip-path="url(#SVGID_40_)" fill="#897F76" d="M519.323,225.254c-8.306,9.617-10.929,13.114-18.36,17.486
							c-7.236,4.257-11.155,21.355-11.356,22.252c0.176-0.776,2.952-12.359,12.668-17.006c10.055-4.809,17.049-4.372,21.858-12.678
							c4.809-8.305,12.24-14.426,12.24-14.426S527.63,215.636,519.323,225.254"/>
					</g>
				</g>
			</g>
		</g>
	</g>
	<g clip-path="url(#SVGID_2_)">
		<defs>
			<rect id="SVGID_41_" width="612" height="792"/>
		</defs>
		<clipPath id="SVGID_42_">
			<use xlink:href="#SVGID_41_"  overflow="visible"/>
		</clipPath>
		<g opacity="0.35" clip-path="url(#SVGID_42_)">
			<g>
				<defs>
					<rect id="SVGID_43_" x="217.919" y="86.721" width="172.831" height="30.79"/>
				</defs>
				<clipPath id="SVGID_44_">
					<use xlink:href="#SVGID_43_"  overflow="visible"/>
				</clipPath>
				<path clip-path="url(#SVGID_44_)" fill="none" stroke="#D37C75" stroke-miterlimit="10" stroke-dasharray="0.859,0.859" d="
					M390.333,90.333c0,0-17.283,26.006-84,26.667c-67.333,0.666-88-30-88-30"/>
			</g>
		</g>
		<g opacity="0.35" clip-path="url(#SVGID_42_)">
			<g>
				<defs>
					<rect id="SVGID_45_" x="38.477" y="309.084" width="92.524" height="12.23"/>
				</defs>
				<clipPath id="SVGID_46_">
					<use xlink:href="#SVGID_45_"  overflow="visible"/>
				</clipPath>
				<path clip-path="url(#SVGID_46_)" fill="none" stroke="#D37C75" stroke-miterlimit="10" stroke-dasharray="0.859,0.859" d="
					M38.61,309.566c0,0,21.197,5.863,47.806,8.569S131,320.814,131,320.814"/>
			</g>
		</g>
		<g opacity="0.35" clip-path="url(#SVGID_42_)">
			<g>
				<defs>
					<rect id="SVGID_47_" x="38.477" y="313.087" width="92.524" height="12.23"/>
				</defs>
				<clipPath id="SVGID_48_">
					<use xlink:href="#SVGID_47_"  overflow="visible"/>
				</clipPath>
				<path clip-path="url(#SVGID_48_)" fill="none" stroke="#D37C75" stroke-miterlimit="10" stroke-dasharray="0.859,0.859" d="
					M38.61,313.569c0,0,21.197,5.863,47.806,8.569S131,324.817,131,324.817"/>
			</g>
		</g>
		<g opacity="0.35" clip-path="url(#SVGID_42_)">
			<g>
				<defs>
					<rect id="SVGID_49_" x="473.957" y="309.084" width="92.524" height="12.23"/>
				</defs>
				<clipPath id="SVGID_50_">
					<use xlink:href="#SVGID_49_"  overflow="visible"/>
				</clipPath>
				<path clip-path="url(#SVGID_50_)" fill="none" stroke="#D37C75" stroke-miterlimit="10" stroke-dasharray="0.859,0.859" d="
					M566.348,309.566c0,0-21.196,5.863-47.806,8.569c-26.608,2.706-44.584,2.679-44.584,2.679"/>
			</g>
		</g>
		<g opacity="0.35" clip-path="url(#SVGID_42_)">
			<g>
				<defs>
					<rect id="SVGID_51_" x="473.957" y="313.087" width="92.524" height="12.23"/>
				</defs>
				<clipPath id="SVGID_52_">
					<use xlink:href="#SVGID_51_"  overflow="visible"/>
				</clipPath>
				<path clip-path="url(#SVGID_52_)" fill="none" stroke="#D37C75" stroke-miterlimit="10" stroke-dasharray="0.859,0.859" d="
					M566.348,313.569c0,0-21.196,5.863-47.806,8.569c-26.608,2.706-44.584,2.679-44.584,2.679"/>
			</g>
		</g>
		<g opacity="0.35" clip-path="url(#SVGID_42_)">
			<g>
				<defs>
					<rect id="SVGID_53_" x="131.959" y="702.882" width="338.505" height="33.417"/>
				</defs>
				<clipPath id="SVGID_54_">
					<use xlink:href="#SVGID_53_"  overflow="visible"/>
				</clipPath>
				<path clip-path="url(#SVGID_54_)" fill="none" stroke="#D37C75" stroke-miterlimit="10" stroke-dasharray="0.859,0.859" d="
					M132.418,705.092c0,0,7.216,16.687,46.904,22.1c39.688,5.411,81.522,9.025,126.28,8.568
					c44.198-0.451,131.644-14.74,141.163-16.687c19.844-4.06,23.219-16.057,23.219-16.057"/>
			</g>
		</g>
		<g opacity="0.35" clip-path="url(#SVGID_42_)">
			<g>
				<defs>
					<rect id="SVGID_55_" x="130.85" y="706.129" width="341.718" height="35.174"/>
				</defs>
				<clipPath id="SVGID_56_">
					<use xlink:href="#SVGID_55_"  overflow="visible"/>
				</clipPath>
				<path clip-path="url(#SVGID_56_)" fill="none" stroke="#D37C75" stroke-miterlimit="10" stroke-dasharray="0.859,0.859" d="
					M131.296,710.275c0,0,8.338,16.508,48.026,21.92s81.522,9.025,126.28,8.568c44.198-0.451,131.644-14.74,141.163-16.687
					c19.843-4.06,25.34-17.762,25.34-17.762"/>
			</g>
		</g>
		<g opacity="0.35" clip-path="url(#SVGID_42_)">
			<g>
				<defs>
					<rect id="SVGID_57_" x="468.363" y="142.286" width="31.693" height="172.712"/>
				</defs>
				<clipPath id="SVGID_58_">
					<use xlink:href="#SVGID_57_"  overflow="visible"/>
				</clipPath>
				<path clip-path="url(#SVGID_58_)" fill="none" stroke="#D37C75" stroke-miterlimit="10" d="M499.557,142.288
					c0,0,0.047,12.585-1.757,22.507c-1.806,9.922-11.727,46.453-13.981,57.277c-2.255,10.824-12.628,68.101-13.98,74.866
					c-1.354,6.765-0.902,18.04-0.902,18.04"/>
			</g>
		</g>
		<g opacity="0.35" clip-path="url(#SVGID_42_)">
			<g>
				<defs>
					<rect id="SVGID_59_" x="104.007" y="142.499" width="31.689" height="172.499"/>
				</defs>
				<clipPath id="SVGID_60_">
					<use xlink:href="#SVGID_59_"  overflow="visible"/>
				</clipPath>
				<path clip-path="url(#SVGID_60_)" fill="none" stroke="#D37C75" stroke-miterlimit="10" d="M104.507,142.501
					c0,0-0.051,12.373,1.753,22.294c1.804,9.922,11.726,46.453,13.981,57.277c2.255,10.824,12.628,68.101,13.981,74.866
					s0.902,18.04,0.902,18.04"/>
			</g>
		</g>
		<g opacity="0.35" clip-path="url(#SVGID_42_)">
			<g>
				<defs>
					<rect id="SVGID_61_" x="215.612" y="88.855" width="177.826" height="32.155"/>
				</defs>
				<clipPath id="SVGID_62_">
					<use xlink:href="#SVGID_61_"  overflow="visible"/>
				</clipPath>
				<path clip-path="url(#SVGID_62_)" fill="none" stroke="#D37C75" stroke-miterlimit="10" stroke-dasharray="0.859,0.859" d="
					M393.032,92.051c0,0-20.023,27.789-86.74,28.449c-67.333,0.667-90.274-31.353-90.274-31.353"/>
			</g>
		</g>
	</g>
</g>
  <g id="CUSTOM"></g>
</svg>
