<?xml version="1.0" encoding="utf-8"?>
<!-- Generator: Adobe Illustrator 16.0.0, SVG Export Plug-In . SVG Version: 6.00 Build 0)  -->
<!DOCTYPE svg PUBLIC "-//W3C//DTD SVG 1.1//EN" "http://www.w3.org/Graphics/SVG/1.1/DTD/svg11.dtd">
<svg version="1.1" id="Layer_1" xmlns="http://www.w3.org/2000/svg" xmlns:xlink="http://www.w3.org/1999/xlink" x="0px" y="0px"
	 width="612px" height="792px" viewBox="0 0 530 792" enable-background="new 0 0 612 792" xml:space="preserve">
<rect x="105.267" y="162.261" fill="none" width="62.022" height="89.05"/>
<rect x="113.235" y="153.945" fill="none" width="27.027" height="31.185"/>
<rect x="389.068" y="231.119" fill="none" width="63.521" height="63.871"/>
<rect x="446.997" y="221.723" fill="none" width="50.608" height="20.812"/>
<rect x="452.59" y="175.209" fill="none" width="37.337" height="36.357"/>
<rect x="235.677" y="69.237" fill="none" width="137.986" height="24.583"/>
<rect x="92.122" y="250.188" fill="none" width="73.335" height="9.694"/>
<rect x="92.122" y="253.361" fill="none" width="73.335" height="9.693"/>
<rect x="167.048" y="561.172" fill="none" width="270.258" height="26.68"/>
<rect x="166.163" y="563.765" fill="none" width="272.823" height="28.082"/>
<rect x="233.835" y="70.94" fill="none" width="141.974" height="25.672"/>
<rect x="61.693" fill="none" width="488.613" height="632.322"/>
<g id="BODY">
	<defs>
		<rect id="SB_SVGID_1_" x="50.693" y="69.78" width="506.307" height="655.22"/>
	</defs>
	<clipPath id="SB_SVGID_2_">
		<use xlink:href="#SB_SVGID_1_"  overflow="visible"/>
	</clipPath>
	<g id="BOTTOM_AREA" clip-path="url(#SB_SVGID_2_)">
		<defs>
			<rect id="SB_SVGID_3_" x="50.693" y="69.78" width="506.307" height="655.22"/>
		</defs>
		<clipPath id="SB_SVGID_4_">
			<use xlink:href="#SB_SVGID_3_"  overflow="visible"/>
		</clipPath>
		<path clip-path="url(#SB_SVGID_4_)" fill="#004D86" d="M413.023,263.125c-2.359,11.646-6.582,33.437-10.218,57.183
			c-4.571,29.86-12.856,63.964-27.864,87.971c-2.619,4.191-7.938,7.129-14.1,7.775c-23.503,2.474-40.189,3.777-56.526,3.915v0.012
			c-0.108-0.001-0.217,0-0.325-0.001c-0.139-0.001-0.277-0.003-0.416-0.004c-0.14,0.001-0.279,0.003-0.418,0.004
			c-0.109,0.001-0.216,0-0.324,0.001v-0.012c-16.337-0.138-33.024-1.441-56.527-3.915c-6.161-0.646-11.48-3.584-14.1-7.775
			c-15.007-24.007-23.292-58.11-27.864-87.971c-3.635-23.746-7.859-45.536-10.218-57.183c0.748-2.411,8.689-29.939,8.995-34.671
			l-48.214,20.055c3.619,18.446,10.063,32.336,10.063,40.406v12.722c1.507,3.362,3.75,9.141,4.207,14.621
			c0.701,8.414,2.104,39.263,7.712,50.479c5.609,11.218,16.126,77.822,17.527,84.132c1.402,6.31-3.505,30.148-3.505,35.757
			s-13.32,46.974-14.022,58.191c-0.701,11.218-3.505,26.642-3.505,37.859s-4.908,28.044-4.908,28.044s4.207,8.413,9.816,18.93
			c5.609,10.517,15.424,27.343,18.93,36.456c3.505,9.115,17.527,30.148,46.272,39.964c3.702,1.264,8.247,2.271,13.348,3.068
			l-0.027,1.138c0,0,14.322,1.014,32.992,1.426c4.798,0.124,9.618,0.174,14.333,0.169c4.715,0.005,9.533-0.045,14.331-0.169
			c18.672-0.412,32.992-1.426,32.992-1.426l-0.026-1.138c5.101-0.798,9.645-1.805,13.348-3.068
			c28.745-9.815,42.768-30.849,46.272-39.964c3.506-9.113,13.321-25.939,18.93-36.456c5.609-10.517,9.815-18.93,9.815-18.93
			s-4.907-16.826-4.907-28.044s-2.805-26.642-3.506-37.859s-14.022-52.583-14.022-58.191s-4.907-29.447-3.505-35.757
			s11.918-72.914,17.527-84.132c5.608-11.217,7.011-42.065,7.712-50.479c0.485-5.823,2.986-11.982,4.48-15.222
			c0.814-5.325,1.724-11.383,2.531-17.028c0.898-6.289,2.948-20.894,5.384-36.708l-47.462-18.846
			C404.335,233.186,412.277,260.714,413.023,263.125"/>
	</g>
	<g id="MIDDLE_AREA" clip-path="url(#SB_SVGID_2_)">
		<defs>
			<rect id="SB_SVGID_5_" x="50.693" y="69.78" width="506.307" height="655.22"/>
		</defs>
		<clipPath id="SB_SVGID_6_">
			<use xlink:href="#SB_SVGID_5_"  overflow="visible"/>
		</clipPath>
		<path clip-path="url(#SB_SVGID_6_)" fill="#FFFFFF" d="M422.404,205.627c12.797-7.743,20.164-16.815,20.164-26.517
			c0-4.665-1.713-9.184-4.903-13.48c-4.282,28.329-62.516,50.82-134.091,51.217c-71.577-0.397-129.811-22.889-134.093-51.217
			c-3.19,4.296-4.902,8.815-4.902,13.48c0,9.701,7.366,18.773,20.164,26.517l-39.792-5.094c3.324,17.072,7.573,34.832,9.499,45.615
			c0.143,0.8,0.3,1.578,0.455,2.361l48.214-20.055c-0.306,4.731-8.248,32.259-8.995,34.67c2.359,11.646,6.583,33.437,10.219,57.183
			c4.571,29.86,12.856,63.964,27.864,87.972c2.619,4.19,7.938,7.128,14.1,7.775c23.503,2.473,40.19,3.776,56.526,3.914v0.012
			c0.109-0.001,0.218,0,0.325-0.001c0.138-0.001,0.278-0.003,0.418-0.004c0.139,0.001,0.277,0.003,0.416,0.004
			c0.108,0.001,0.217,0,0.325,0.001v-0.012c16.337-0.138,33.023-1.441,56.526-3.914c6.161-0.647,11.48-3.585,14.1-7.775
			c15.008-24.008,23.293-58.111,27.864-87.972c3.636-23.746,7.858-45.537,10.218-57.183c-0.746-2.411-8.688-29.938-8.994-34.67
			l47.462,18.845c2.603-16.893,5.644-35.16,8.194-46.162L422.404,205.627z"/>
	</g>
	<g id="UPPER_BODY" clip-path="url(#SB_SVGID_2_)">
		<defs>
			<rect id="SB_SVGID_7_" x="50.693" y="69.78" width="506.307" height="655.22"/>
		</defs>
		<clipPath id="SB_SVGID_8_">
			<use xlink:href="#SB_SVGID_7_"  overflow="visible"/>
		</clipPath>
		<path clip-path="url(#SB_SVGID_8_)" fill="#BF2A43" d="M164.579,179.11c0-4.666,1.712-9.185,4.903-13.48
			c4.282,28.329,62.516,50.821,134.092,51.218c71.575-0.396,129.809-22.889,134.091-51.218c3.19,4.296,4.903,8.814,4.903,13.48
			c0,9.701-7.367,18.773-20.164,26.516l37.282-4.488c0.652-2.812,1.272-5.154,1.845-6.871c2.932-8.795,3.111-19.339,2.779-26.405
			c-7.801-2.737-42.326-16.298-53.259-23.373c-11.919-7.711-27.342-19.631-31.55-23.136c-3.627-3.023-7.253-9.164-10.431-11.701
			c-14.886-1.888-44.714-5.399-62.626-5.663c-19.12-0.282-53.765,4.437-68.238,6.55c-2.93,2.877-6.186,8.1-9.441,10.813
			c-4.207,3.505-19.631,15.424-31.549,23.136c-11.92,7.712-51.881,23.136-54.686,23.837c-0.347,0.087-1.049,0.497-2.034,1.188
			c0.424,8.509,2.232,19.61,4.454,31.02l39.792,5.093C171.945,197.884,164.579,188.812,164.579,179.11"/>
	</g>
	<g id="SIDE_PANELS" clip-path="url(#SB_SVGID_2_)">
		<defs>
			<rect id="SB_SVGID_9_" x="50.693" y="69.78" width="506.307" height="655.22"/>
		</defs>
		<clipPath id="SB_SVGID_10_">
			<use xlink:href="#SB_SVGID_9_"  overflow="visible"/>
		</clipPath>
		<path clip-path="url(#SB_SVGID_10_)" d="M202.71,341.603c0.094-0.697,0.168-1.385,0.222-2.072l-9.348-0.03
			c-1.646-0.008-12.148,0.079-22.474,0.23c0.081,0.743,0.165,1.487,0.253,2.233c10.211-0.166,20.544-0.271,22.145-0.282
			L202.71,341.603z"/>
		<path clip-path="url(#SB_SVGID_10_)" d="M202.2,344.533c0.157-0.746,0.293-1.483,0.406-2.21l-9.048,0.08
			c-1.595,0.013-11.905,0.116-22.108,0.284c0.095,0.788,0.195,1.574,0.299,2.361c10.054-0.181,20.154-0.3,21.705-0.332
			L202.2,344.533z"/>
		<path clip-path="url(#SB_SVGID_10_)" d="M183.755,335.442c3.209,0.056,6.497,0.111,9.881,0.169l9.374,0.148
			c-0.021-0.6-0.059-1.202-0.113-1.812l-9.279-0.257c-1.742-0.051-12.569-0.002-23.1,0.114c0.051,0.564,0.104,1.131,0.159,1.702
			C177.16,335.455,183.078,335.432,183.755,335.442"/>
		<path clip-path="url(#SB_SVGID_10_)" d="M193.569,338.646l9.416,0.034c0.034-0.647,0.049-1.293,0.045-1.938l-9.426-0.146
			c-3.387-0.058-6.674-0.111-9.883-0.167c-0.666-0.01-6.518,0.014-12.948,0.066c0.078,0.789,0.16,1.583,0.244,2.381
			C181.368,338.726,191.913,338.639,193.569,338.646"/>
		<path clip-path="url(#SB_SVGID_10_)" d="M193.79,329.543l8.521,0.346c-0.102-0.518-0.215-1.041-0.339-1.572l-8.346-0.436
			c-1.862-0.098-12.949-0.094-23.608-0.019c0.044,0.567,0.091,1.147,0.138,1.737C180.881,329.5,191.997,329.47,193.79,329.543"/>
		<path clip-path="url(#SB_SVGID_10_)" d="M201.26,348.258l-7.723,0.259c-1.479,0.049-11.336,0.185-21.245,0.379
			c0.162,1.057,0.33,2.103,0.507,3.128c9.66-0.188,19.165-0.319,20.584-0.368C197.386,351.517,200.624,350.112,201.26,348.258"/>
		<path clip-path="url(#SB_SVGID_10_)" d="M193.875,326.511l7.723,0.407c-0.738-1.789-3.9-3.187-7.787-3.396
			c-1.913-0.104-13.307-0.103-24.117-0.028c0.068,0.949,0.14,1.949,0.219,2.994C180.694,326.412,191.962,326.408,193.875,326.511"/>
		<path clip-path="url(#SB_SVGID_10_)" d="M201.568,347.175c0.186-0.694,0.352-1.376,0.503-2.049l-8.547,0.182
			c-1.549,0.03-11.643,0.15-21.698,0.332c0.099,0.73,0.2,1.46,0.305,2.184c9.893-0.193,19.748-0.328,21.222-0.377L201.568,347.175z"
			/>
		<path clip-path="url(#SB_SVGID_10_)" d="M195.077,365.699l9.07,0.152c-0.067-0.557-0.147-1.119-0.242-1.687l-8.913-0.257
			c-1.282-0.037-9.975,0.009-19.251,0.112c0.234,0.645,0.477,1.255,0.729,1.823C185.49,365.732,193.815,365.677,195.077,365.699"/>
		<path clip-path="url(#SB_SVGID_10_)" d="M204.076,374.62c0.094-0.697,0.169-1.387,0.222-2.073l-9.348,0.074
			c-1.088,0.008-7.99,0.077-15.905,0.192c0.203,0.698,0.408,1.435,0.615,2.209c7.62-0.122,14.174-0.198,15.213-0.219L204.076,374.62
			z"/>
		<path clip-path="url(#SB_SVGID_10_)" d="M203.565,377.558c0.157-0.75,0.293-1.487,0.406-2.216l-9.047,0.183
			c-1.031,0.02-7.513,0.098-15.071,0.217c0.198,0.749,0.397,1.528,0.6,2.337c7.246-0.123,13.38-0.208,14.366-0.239L203.565,377.558z
			"/>
		<path clip-path="url(#SB_SVGID_10_)" d="M185.122,368.677c3.21,0.018,6.497,0.037,9.881,0.057l9.375,0.043
			c-0.021-0.601-0.059-1.203-0.112-1.811l-9.28-0.152c-1.222-0.021-9.223,0.032-18,0.14c0.238,0.499,0.483,1.085,0.738,1.769
			C181.729,368.691,184.773,368.675,185.122,368.677"/>
		<path clip-path="url(#SB_SVGID_10_)" d="M204.353,371.695c0.034-0.646,0.049-1.292,0.044-1.938l-9.425-0.04
			c-3.388-0.019-6.676-0.037-9.885-0.054c-0.333-0.002-3.199,0.014-7.014,0.043c0.235,0.687,0.476,1.44,0.721,2.256
			c8.015-0.116,15.04-0.187,16.141-0.195L204.353,371.695z"/>
		<path clip-path="url(#SB_SVGID_10_)" d="M195.158,362.665l8.521,0.247c-0.102-0.515-0.215-1.037-0.339-1.566l-8.347-0.342
			c-1.386-0.058-10.587-0.025-20.196,0.068c0.167,0.589,0.339,1.16,0.519,1.708C184.822,362.673,193.83,362.626,195.158,362.665"/>
		<path clip-path="url(#SB_SVGID_10_)" d="M202.625,381.291l-7.724,0.346c-0.926,0.041-6.65,0.132-13.53,0.258
			c0.235,1.012,0.472,2.054,0.711,3.124c6.482-0.117,11.794-0.201,12.666-0.242C198.75,384.594,201.988,383.153,202.625,381.291"/>
		<path clip-path="url(#SB_SVGID_10_)" d="M195.243,359.632l7.724,0.319c-0.738-1.78-3.9-3.142-7.788-3.308
			c-1.477-0.063-11.375-0.029-21.467,0.073c0.225,1.032,0.462,2.027,0.711,2.984C184.272,359.604,193.799,359.571,195.243,359.632"
			/>
		<path clip-path="url(#SB_SVGID_10_)" d="M202.933,380.206c0.186-0.697,0.354-1.382,0.503-2.055l-8.546,0.276
			c-0.983,0.032-7.079,0.115-14.292,0.239c0.173,0.701,0.347,1.419,0.523,2.161c6.911-0.127,12.674-0.218,13.598-0.259
			L202.933,380.206z"/>
		<path clip-path="url(#SB_SVGID_10_)" d="M196.288,398.901l9.076,0.063c-0.092-0.56-0.198-1.124-0.318-1.695l-8.923-0.165
			c-0.804-0.016-5.543,0.009-11.488,0.064c0.121,0.604,0.241,1.212,0.361,1.822C190.837,398.928,195.479,398.895,196.288,398.901"/>
		<path clip-path="url(#SB_SVGID_10_)" d="M205.689,407.791c0.063-0.702,0.106-1.397,0.128-2.09l-9.345,0.16
			c-0.748,0.013-4.857,0.056-10.123,0.125c0.139,0.737,0.279,1.477,0.417,2.213c5.069-0.072,9.002-0.122,9.728-0.143
			L205.689,407.791z"/>
		<path clip-path="url(#SB_SVGID_10_)" d="M205.312,410.752c0.123-0.756,0.225-1.499,0.305-2.234l-9.039,0.264
			c-0.724,0.021-4.632,0.069-9.674,0.143c0.147,0.782,0.293,1.563,0.438,2.345c4.824-0.077,8.536-0.132,9.236-0.159L205.312,410.752
			z"/>
		<path clip-path="url(#SB_SVGID_10_)" d="M196.351,401.953l9.376-0.048c-0.049-0.604-0.113-1.21-0.194-1.82l-9.286-0.063
			c-0.792-0.005-5.314,0.025-11.03,0.087c0.122,0.626,0.246,1.255,0.368,1.886c0.488-0.003,0.805-0.004,0.884-0.005
			C189.678,401.978,192.966,401.966,196.351,401.953"/>
		<path clip-path="url(#SB_SVGID_10_)" d="M205.833,404.845c0.004-0.651-0.01-1.301-0.042-1.951l-9.426,0.049
			c-3.389,0.014-6.677,0.026-9.887,0.04c-0.069,0-0.315,0.001-0.702,0.003c0.137,0.714,0.274,1.429,0.412,2.146
			c5.322-0.07,9.48-0.114,10.233-0.126L205.833,404.845z"/>
		<path clip-path="url(#SB_SVGID_10_)" d="M196.231,395.85l8.531,0.161c-0.125-0.517-0.262-1.041-0.41-1.573l-8.36-0.255
			c-0.846-0.026-5.798-0.009-11.953,0.04c0.115,0.563,0.229,1.128,0.344,1.697C190.5,395.86,195.404,395.834,196.231,395.85"/>
		<path clip-path="url(#SB_SVGID_10_)" d="M204.54,414.518l-7.708,0.408c-0.674,0.035-4.187,0.095-8.785,0.175
			c0.193,1.056,0.384,2.106,0.573,3.148c4.302-0.074,7.556-0.13,8.2-0.165C200.815,417.869,203.988,416.396,204.54,414.518"/>
		<path clip-path="url(#SB_SVGID_10_)" d="M196.18,392.799l7.737,0.239c-0.819-1.783-4.042-3.118-7.936-3.241
			c-0.89-0.029-6.269-0.009-12.851,0.049c0.208,0.984,0.417,1.985,0.625,2.998C190.132,392.791,195.299,392.772,196.18,392.799"/>
		<path clip-path="url(#SB_SVGID_10_)" d="M204.799,413.422c0.154-0.703,0.29-1.392,0.41-2.071l-8.534,0.35
			c-0.703,0.028-4.408,0.083-9.225,0.159c0.134,0.725,0.268,1.448,0.4,2.169c4.584-0.079,8.083-0.139,8.749-0.174L204.799,413.422z"
			/>
		<path clip-path="url(#SB_SVGID_10_)" d="M206.743,432.267c-0.091-0.56-0.197-1.123-0.317-1.692l-8.922-0.105
			c-0.573-0.007-3.169,0.003-6.706,0.026c0.107,0.612,0.213,1.219,0.318,1.814c3.447-0.028,5.976-0.043,6.552-0.043H206.743z"/>
		<path clip-path="url(#SB_SVGID_10_)" d="M207.068,441.093c0.063-0.702,0.106-1.397,0.128-2.091l-9.344,0.226
			c-0.525,0.012-2.616,0.035-5.521,0.069c0.133,0.766,0.261,1.5,0.384,2.208c2.709-0.037,4.654-0.064,5.16-0.082L207.068,441.093z"
			/>
		<path clip-path="url(#SB_SVGID_10_)" d="M206.69,444.057c0.123-0.756,0.225-1.499,0.306-2.236l-9.039,0.326
			c-0.505,0.018-2.43,0.045-5.115,0.082c0.145,0.827,0.281,1.608,0.409,2.34c2.468-0.039,4.222-0.071,4.706-0.095L206.69,444.057z"
			/>
		<path clip-path="url(#SB_SVGID_10_)" d="M207.106,435.206c-0.049-0.603-0.113-1.209-0.194-1.819l-9.285,0.002
			c-0.563,0-2.993,0.014-6.315,0.04c0.115,0.664,0.23,1.317,0.34,1.955c1.997-0.023,4.015-0.043,6.079-0.065L207.106,435.206z"/>
		<path clip-path="url(#SB_SVGID_10_)" d="M207.212,438.146c0.005-0.651-0.009-1.302-0.042-1.952l-9.426,0.115
			c-2.01,0.021-3.975,0.043-5.919,0.063c0.123,0.709,0.242,1.397,0.359,2.068c2.958-0.034,5.087-0.059,5.617-0.07L207.212,438.146z"
			/>
		<path clip-path="url(#SB_SVGID_10_)" d="M197.611,429.216l8.53,0.102c-0.125-0.517-0.262-1.04-0.41-1.571l-8.359-0.197
			c-0.603-0.015-3.366-0.011-7.091,0.008c0.1,0.567,0.198,1.131,0.297,1.687C194.28,429.218,197.02,429.208,197.611,429.216"/>
		<path clip-path="url(#SB_SVGID_10_)" d="M205.918,447.829l-7.708,0.461c-0.46,0.028-2.043,0.063-4.278,0.104
			c0.209,1.146,0.371,1.99,0.479,2.476c0.045,0.205,0.084,0.433,0.117,0.674c1.908-0.037,3.246-0.068,3.67-0.095
			C202.194,451.207,205.366,449.712,205.918,447.829"/>
		<path clip-path="url(#SB_SVGID_10_)" d="M197.56,426.164l7.736,0.187c-0.818-1.779-4.042-3.093-7.935-3.188
			c-0.638-0.015-3.733-0.011-7.857,0.013c0.18,1.013,0.358,2.015,0.532,2.999C193.979,426.153,196.927,426.149,197.56,426.164"/>
		<path clip-path="url(#SB_SVGID_10_)" d="M206.178,446.732c0.154-0.705,0.291-1.396,0.411-2.076l-8.534,0.409
			c-0.487,0.023-2.236,0.055-4.7,0.095c0.139,0.788,0.268,1.51,0.385,2.162c2.219-0.041,3.789-0.075,4.24-0.103L206.178,446.732z"/>
		<path clip-path="url(#SB_SVGID_10_)" d="M208.123,465.569c-0.092-0.559-0.198-1.121-0.318-1.691l-8.921-0.043
			c-0.55-0.003-2.423,0.003-5.012,0.017c-0.073,0.602-0.151,1.207-0.23,1.818c2.78-0.021,4.811-0.034,5.407-0.038L208.123,465.569z"
			/>
		<path clip-path="url(#SB_SVGID_10_)" d="M208.447,474.395c0.063-0.702,0.106-1.399,0.128-2.092l-9.342,0.29
			c-0.678,0.02-3.2,0.052-6.579,0.096c-0.111,0.753-0.22,1.496-0.329,2.227c3.527-0.054,6.188-0.096,6.93-0.128L208.447,474.395z"/>
		<path clip-path="url(#SB_SVGID_10_)" d="M208.069,477.362c0.123-0.757,0.226-1.502,0.306-2.238l-9.038,0.388
			c-0.76,0.032-3.502,0.075-7.119,0.131c-0.119,0.811-0.235,1.6-0.345,2.363c3.775-0.066,6.664-0.122,7.464-0.166L208.069,477.362z"
			/>
		<path clip-path="url(#SB_SVGID_10_)" d="M208.485,468.507c-0.049-0.603-0.114-1.209-0.194-1.818l-9.284,0.066
			c-0.606,0.004-2.682,0.017-5.517,0.039c-0.086,0.645-0.175,1.291-0.267,1.938c2.753-0.017,4.952-0.032,5.887-0.049
			L208.485,468.507z"/>
		<path clip-path="url(#SB_SVGID_10_)" d="M208.591,471.446c0.005-0.651-0.009-1.302-0.042-1.952l-9.424,0.18
			c-0.955,0.017-3.215,0.033-6.042,0.051c-0.101,0.705-0.201,1.408-0.303,2.104c3.269-0.041,5.71-0.073,6.401-0.093L208.591,471.446
			z"/>
		<path clip-path="url(#SB_SVGID_10_)" d="M198.992,462.58l8.53,0.044c-0.125-0.517-0.262-1.039-0.411-1.568l-8.358-0.141
			c-0.521-0.009-2.202-0.01-4.542-0.003c-0.059,0.552-0.123,1.115-0.188,1.686C196.592,462.583,198.444,462.577,198.992,462.58"/>
		<path clip-path="url(#SB_SVGID_10_)" d="M207.297,481.14l-7.707,0.515c-0.868,0.059-4.092,0.131-8.251,0.216
			c-0.156,1.215-0.276,2.282-0.351,3.173c4.309-0.09,7.674-0.166,8.59-0.228C203.574,484.545,206.745,483.027,207.297,481.14"/>
		<path clip-path="url(#SB_SVGID_10_)" d="M198.941,459.529l7.735,0.132c-0.818-1.773-4.042-3.063-7.934-3.133
			c-0.478-0.009-2.01-0.01-4.163-0.005c-0.054,0.944-0.131,1.946-0.23,3.003C196.716,459.52,198.414,459.521,198.941,459.529"/>
		<path clip-path="url(#SB_SVGID_10_)" d="M207.556,480.041c0.154-0.705,0.291-1.396,0.411-2.078l-8.533,0.468
			c-0.818,0.044-3.784,0.102-7.647,0.17c-0.109,0.762-0.211,1.495-0.306,2.189c3.982-0.08,7.05-0.148,7.877-0.203L207.556,480.041z"
			/>
		<path clip-path="url(#SB_SVGID_10_)" d="M209.502,498.872c-0.092-0.559-0.198-1.12-0.317-1.689l-8.92,0.018
			c-1.23,0.003-5.928,0.032-11.654,0.085c-0.157,0.599-0.321,1.215-0.489,1.845c6-0.069,10.982-0.115,12.308-0.133L209.502,498.872z
			"/>
		<path clip-path="url(#SB_SVGID_10_)" d="M209.826,507.697c0.063-0.703,0.106-1.4,0.128-2.093l-9.34,0.353
			c-1.299,0.048-7.326,0.14-14.42,0.267c-0.205,0.748-0.414,1.505-0.624,2.269c7.219-0.146,13.475-0.261,15.065-0.339
			L209.826,507.697z"/>
		<path clip-path="url(#SB_SVGID_10_)" d="M209.458,510.688c0.121-0.765,0.22-1.517,0.296-2.258l-9.035,0.449
			c-1.531,0.075-7.949,0.192-15.352,0.344c-0.22,0.801-0.443,1.609-0.667,2.423c7.626-0.175,14.332-0.319,16.029-0.422
			L209.458,510.688z"/>
		<path clip-path="url(#SB_SVGID_10_)" d="M200.493,502.049l9.372-0.241c-0.048-0.604-0.113-1.208-0.194-1.817l-9.282,0.13
			c-1.351,0.018-6.452,0.065-12.568,0.139c-0.183,0.675-0.37,1.365-0.561,2.068c1.762-0.016,2.997-0.028,3.354-0.037
			C193.822,502.212,197.108,502.132,200.493,502.049"/>
		<path clip-path="url(#SB_SVGID_10_)" d="M209.97,504.746c0.005-0.651-0.009-1.302-0.042-1.951l-9.423,0.245
			c-3.387,0.082-6.673,0.163-9.883,0.242c-0.378,0.01-1.728,0.022-3.633,0.041c-0.183,0.67-0.37,1.352-0.559,2.041
			c6.81-0.118,12.629-0.208,14.131-0.264L209.97,504.746z"/>
		<path clip-path="url(#SB_SVGID_10_)" d="M208.901,495.93c-0.125-0.516-0.262-1.037-0.41-1.565l-8.356-0.083
			c-1.185-0.012-5.473,0-10.761,0.033c-0.138,0.551-0.284,1.121-0.436,1.712c5.627-0.051,10.225-0.079,11.435-0.081L208.901,495.93z
			"/>
		<path clip-path="url(#SB_SVGID_10_)" d="M208.703,514.502L201,515.064c-1.722,0.125-9.107,0.301-17.378,0.515
			c-0.294,1.072-0.587,2.147-0.877,3.219c8.585-0.226,16.371-0.414,18.256-0.552C204.994,517.954,208.159,516.407,208.703,514.502"
			/>
		<path clip-path="url(#SB_SVGID_10_)" d="M200.323,492.894l7.734,0.079c-0.818-1.769-4.04-3.037-7.932-3.08
			c-1.054-0.011-4.891-0.001-9.716,0.026c-0.186,0.881-0.418,1.89-0.689,3.006C194.935,492.894,199.153,492.882,200.323,492.894"/>
		<path clip-path="url(#SB_SVGID_10_)" d="M208.958,513.393c0.15-0.712,0.284-1.41,0.401-2.098l-8.529,0.523
			c-1.662,0.102-8.513,0.248-16.293,0.426c-0.206,0.746-0.412,1.496-0.617,2.248c8.003-0.205,15.114-0.377,16.844-0.503
			L208.958,513.393z"/>
		<path clip-path="url(#SB_SVGID_10_)" d="M210.873,532.376c-0.094-0.563-0.203-1.13-0.325-1.702l-8.92,0.046
			c-2.216,0.011-11.892,0.104-22.059,0.256c-0.158,0.641-0.311,1.271-0.459,1.89c10.39-0.18,20.36-0.301,22.691-0.337
			L210.873,532.376z"/>
		<path clip-path="url(#SB_SVGID_10_)" d="M211.235,541.273c0.061-0.709,0.1-1.412,0.119-2.111l-9.339,0.373
			c-2.061,0.08-13.087,0.271-24.468,0.534c-0.153,0.824-0.284,1.597-0.389,2.307c11.296-0.282,22.368-0.504,24.888-0.631
			L211.235,541.273z"/>
		<path clip-path="url(#SB_SVGID_10_)" d="M210.869,544.269c0.121-0.765,0.219-1.517,0.296-2.26l-9.034,0.465
			c-2.377,0.12-13.599,0.343-25.075,0.632c-0.082,0.628-0.141,1.202-0.172,1.712c-0.015,0.238-0.037,0.489-0.053,0.731
			c11.48-0.315,22.732-0.57,25.31-0.731L210.869,544.269z"/>
		<path clip-path="url(#SB_SVGID_10_)" d="M201.876,535.601l9.372-0.266c-0.052-0.608-0.119-1.218-0.203-1.832l-9.281,0.155
			c-2.349,0.037-12.438,0.16-22.922,0.344c-0.165,0.705-0.32,1.392-0.469,2.059c6.667-0.096,12.478-0.163,13.625-0.193
			C195.206,535.78,198.493,535.691,201.876,535.601"/>
		<path clip-path="url(#SB_SVGID_10_)" d="M211.366,538.298c0.001-0.656-0.015-1.312-0.051-1.968l-9.422,0.267
			c-3.387,0.092-6.673,0.181-9.882,0.268c-1.163,0.031-7.086,0.1-13.857,0.198c-0.159,0.742-0.307,1.458-0.441,2.141
			c11.025-0.248,21.779-0.435,24.245-0.53L211.366,538.298z"/>
		<path clip-path="url(#SB_SVGID_10_)" d="M210.259,529.412c-0.127-0.52-0.266-1.046-0.416-1.577l-8.357-0.055
			c-2.234-0.014-11.425,0.048-21.157,0.166c-0.151,0.593-0.3,1.182-0.445,1.761c10.082-0.149,19.646-0.242,21.848-0.252
			L210.259,529.412z"/>
		<path clip-path="url(#SB_SVGID_10_)" d="M210.113,548.083l-7.704,0.574c-2.487,0.186-14.057,0.476-25.905,0.831
			c-0.118,1.224-0.251,2.48-0.394,3.758c12.667-0.609,22.465-1.12,26.3-1.407C206.405,551.541,209.569,549.99,210.113,548.083"/>
		<path clip-path="url(#SB_SVGID_10_)" d="M201.667,526.384l7.735,0.05c-0.826-1.779-4.053-3.045-7.945-3.07
			c-2.082-0.014-10.698,0.042-19.975,0.15c-0.271,1.021-0.536,2.035-0.794,3.031C190.348,526.43,199.442,526.369,201.667,526.384"/>
		<path clip-path="url(#SB_SVGID_10_)" d="M210.368,546.974c0.15-0.712,0.284-1.411,0.401-2.099l-8.529,0.536
			c-2.498,0.156-13.85,0.412-25.451,0.731c-0.055,0.74-0.117,1.494-0.187,2.263c11.66-0.347,23.048-0.635,25.571-0.822
			L210.368,546.974z"/>
		<path clip-path="url(#SB_SVGID_10_)" d="M193.82,332.573l9.07,0.255c-0.067-0.559-0.147-1.12-0.242-1.69l-8.913-0.356
			c-1.764-0.071-12.799-0.041-23.476,0.062c0.05,0.607,0.104,1.222,0.159,1.846C181.063,332.569,192.043,332.521,193.82,332.573"/>
		<path clip-path="url(#SB_SVGID_10_)" d="M412.806,339.5l-9.347,0.03c0.053,0.688,0.127,1.375,0.222,2.072l9.202,0.079
			c1.614,0.012,13.736,0.117,24.021,0.287c0.088-0.746,0.172-1.49,0.254-2.234C426.775,339.581,414.467,339.492,412.806,339.5"/>
		<path clip-path="url(#SB_SVGID_10_)" d="M403.786,342.323c0.112,0.727,0.248,1.464,0.405,2.21l8.746,0.184
			c1.563,0.032,13.429,0.154,23.582,0.335c0.103-0.784,0.204-1.572,0.299-2.36c-10.279-0.168-22.376-0.275-23.985-0.288
			L403.786,342.323z"/>
		<path clip-path="url(#SB_SVGID_10_)" d="M412.772,333.691l-9.279,0.257c-0.054,0.608-0.092,1.212-0.113,1.812l9.374-0.149
			c3.385-0.057,6.672-0.112,9.881-0.168c0.65-0.011,8.092,0.011,14.956,0.06c0.056-0.569,0.107-1.132,0.158-1.691
			C427.2,333.691,414.53,333.641,412.772,333.691"/>
		<path clip-path="url(#SB_SVGID_10_)" d="M422.67,336.43c-3.21,0.054-6.497,0.108-9.884,0.167l-9.425,0.146
			c-0.005,0.646,0.01,1.291,0.044,1.938l9.416-0.033c1.672-0.008,14.027,0.08,24.429,0.234c0.086-0.801,0.168-1.601,0.246-2.392
			C430.676,336.441,423.308,336.419,422.67,336.43"/>
		<path clip-path="url(#SB_SVGID_10_)" d="M412.765,327.881l-8.345,0.436c-0.123,0.53-0.237,1.055-0.339,1.572l8.52-0.346
			c1.811-0.074,14.799-0.043,25.512,0.061c0.048-0.59,0.095-1.17,0.138-1.739C427.611,327.788,414.645,327.782,412.765,327.881"/>
		<path clip-path="url(#SB_SVGID_10_)" d="M405.131,348.258c0.637,1.854,3.873,3.259,7.876,3.397c1.431,0.05,12.631,0.183,22.461,0.372
			c0.178-1.026,0.346-2.07,0.507-3.128c-10.041-0.195-21.63-0.334-23.12-0.383L405.131,348.258z"/>
		<path clip-path="url(#SB_SVGID_10_)" d="M412.58,323.521c-3.887,0.21-7.05,1.606-7.787,3.396l7.723-0.408
			c1.932-0.102,15.096-0.098,25.84-0.021c0.079-1.045,0.151-2.046,0.22-2.995C427.837,323.419,414.512,323.418,412.58,323.521"/>
		<path clip-path="url(#SB_SVGID_10_)" d="M404.32,345.126c0.149,0.673,0.317,1.354,0.502,2.049l8.216,0.271
			c1.485,0.05,13.08,0.187,23.098,0.382c0.106-0.725,0.207-1.453,0.305-2.185c-10.157-0.183-22.011-0.305-23.574-0.336
			L404.32,345.126z"/>
		<path clip-path="url(#SB_SVGID_10_)" d="M411.398,363.909l-8.914,0.256c-0.094,0.568-0.175,1.13-0.242,1.688l9.07-0.153
			c1.277-0.023,11.086,0.034,20.483,0.148c0.252-0.568,0.495-1.178,0.729-1.823C422.92,363.918,412.694,363.871,411.398,363.909"/>
		<path clip-path="url(#SB_SVGID_10_)" d="M402.093,372.547c0.052,0.687,0.126,1.376,0.222,2.073l9.202,0.184
			c1.056,0.02,8.896,0.101,17.089,0.224c0.209-0.773,0.414-1.511,0.616-2.208c-8.456-0.118-16.679-0.19-17.782-0.198
			L402.093,372.547z"/>
		<path clip-path="url(#SB_SVGID_10_)" d="M402.42,375.342c0.113,0.729,0.248,1.466,0.405,2.216l8.746,0.281
			c1.003,0.032,8.381,0.119,16.243,0.245c0.201-0.81,0.401-1.588,0.599-2.337c-8.141-0.124-15.897-0.201-16.945-0.222
			L402.42,375.342z"/>
		<path clip-path="url(#SB_SVGID_10_)" d="M411.405,366.813l-9.28,0.152c-0.054,0.607-0.092,1.21-0.113,1.811l9.376-0.043
			c3.385-0.02,6.671-0.039,9.881-0.057c0.343-0.002,4.461,0.013,9.276,0.044c0.253-0.681,0.499-1.268,0.735-1.764
			C422.087,366.847,412.642,366.793,411.405,366.813"/>
		<path clip-path="url(#SB_SVGID_10_)" d="M421.304,369.664c-3.21,0.018-6.497,0.035-9.885,0.054l-9.426,0.038
			c-0.003,0.648,0.011,1.293,0.045,1.94l9.417,0.072c1.117,0.008,9.475,0.08,18.018,0.2c0.246-0.819,0.488-1.575,0.723-2.264
			C425.549,369.677,421.632,369.662,421.304,369.664"/>
		<path clip-path="url(#SB_SVGID_10_)" d="M411.397,361.004l-8.346,0.342c-0.125,0.53-0.238,1.052-0.34,1.567l8.521-0.248
			c1.343-0.04,11.917,0.009,21.72,0.119c0.179-0.548,0.351-1.12,0.519-1.709C423.598,360.979,412.799,360.946,411.397,361.004"/>
		<path clip-path="url(#SB_SVGID_10_)" d="M403.766,381.291c0.638,1.862,3.874,3.303,7.876,3.485c0.891,0.042,7.369,0.128,14.544,0.249
			c0.238-1.07,0.476-2.111,0.711-3.123c-7.535-0.131-14.464-0.224-15.407-0.266L403.766,381.291z"/>
		<path clip-path="url(#SB_SVGID_10_)" d="M411.211,356.644c-3.887,0.167-7.05,1.527-7.787,3.308l7.724-0.319
			c1.459-0.061,12.616-0.026,22.698,0.072c0.248-0.956,0.485-1.952,0.711-2.986C424.28,356.614,412.706,356.579,411.211,356.644"/>
		<path clip-path="url(#SB_SVGID_10_)" d="M402.954,378.151c0.15,0.673,0.318,1.357,0.504,2.055l8.215,0.363
			c0.94,0.042,7.913,0.134,15.474,0.265c0.176-0.741,0.35-1.459,0.522-2.161c-7.834-0.127-15.168-0.212-16.169-0.245
			L402.954,378.151z"/>
		<path clip-path="url(#SB_SVGID_10_)" d="M410.269,397.104l-8.924,0.166c-0.12,0.57-0.226,1.135-0.318,1.694l9.076-0.063
			c0.83-0.007,6.567,0.027,13.169,0.094c0.121-0.61,0.241-1.218,0.362-1.822C416.937,397.113,411.094,397.088,410.269,397.104"/>
		<path clip-path="url(#SB_SVGID_10_)" d="M400.572,405.701c0.023,0.692,0.066,1.388,0.129,2.09l9.194,0.266
			c0.747,0.021,5.722,0.073,11.604,0.15c0.139-0.738,0.278-1.477,0.418-2.213c-6.066-0.073-11.229-0.12-12-0.133L400.572,405.701z"
			/>
		<path clip-path="url(#SB_SVGID_10_)" d="M400.773,408.518c0.08,0.735,0.183,1.479,0.306,2.234l8.733,0.357
			c0.724,0.028,5.463,0.086,11.113,0.166c0.145-0.781,0.291-1.563,0.437-2.345c-5.854-0.076-10.803-0.128-11.55-0.149
			L400.773,408.518z"/>
		<path clip-path="url(#SB_SVGID_10_)" d="M410.145,400.022l-9.286,0.063c-0.081,0.61-0.146,1.217-0.194,1.82l9.376,0.048
			c3.385,0.013,6.672,0.024,9.883,0.037c0.124,0.001,1.179,0.004,2.761,0.011c0.122-0.632,0.245-1.261,0.367-1.887
			C416.566,400.05,410.958,400.018,410.145,400.022"/>
		<path clip-path="url(#SB_SVGID_10_)" d="M410.027,402.942l-9.427-0.049c-0.033,0.65-0.047,1.3-0.043,1.951l9.413,0.16
			c0.775,0.013,5.99,0.059,12.109,0.133c0.137-0.718,0.273-1.433,0.412-2.146c-1.484-0.006-2.461-0.009-2.579-0.009
			C416.703,402.969,413.415,402.956,410.027,402.942"/>
		<path clip-path="url(#SB_SVGID_10_)" d="M410.398,394.183l-8.36,0.255c-0.146,0.532-0.284,1.057-0.409,1.573l8.53-0.161
			c0.85-0.016,6.869,0.012,13.725,0.074c0.115-0.569,0.229-1.134,0.345-1.697C417.339,394.175,411.267,394.156,410.398,394.183"/>
		<path clip-path="url(#SB_SVGID_10_)" d="M401.851,414.518c0.553,1.879,3.725,3.352,7.72,3.566c0.668,0.035,4.912,0.095,10.076,0.174
			c0.189-1.043,0.38-2.092,0.573-3.148c-5.441-0.085-9.964-0.146-10.661-0.184L401.851,414.518z"/>
		<path clip-path="url(#SB_SVGID_10_)" d="M410.409,389.797c-3.893,0.123-7.117,1.458-7.935,3.241l7.736-0.239
			c0.901-0.027,7.207-0.008,14.3,0.049c0.21-1.013,0.418-2.015,0.626-2.999C417.856,389.789,411.32,389.768,410.409,389.797"/>
		<path clip-path="url(#SB_SVGID_10_)" d="M401.181,411.351c0.121,0.68,0.257,1.368,0.411,2.071l8.199,0.433
			c0.688,0.036,5.196,0.099,10.625,0.182c0.132-0.721,0.266-1.444,0.399-2.169c-5.643-0.08-10.375-0.138-11.1-0.167L401.181,411.351
			z"/>
		<path clip-path="url(#SB_SVGID_10_)" d="M408.888,430.469l-8.923,0.105c-0.12,0.569-0.226,1.133-0.318,1.692h9.076
			c0.609,0,4.06,0.016,8.43,0.048c0.104-0.596,0.209-1.203,0.317-1.816C413.02,430.472,409.49,430.462,408.888,430.469"/>
		<path clip-path="url(#SB_SVGID_10_)" d="M399.194,439.002c0.021,0.692,0.064,1.389,0.128,2.091l9.193,0.33
			c0.55,0.019,3.354,0.05,7.036,0.092c0.122-0.708,0.249-1.443,0.383-2.21c-3.858-0.038-6.83-0.064-7.397-0.078L399.194,439.002z"/>
		<path clip-path="url(#SB_SVGID_10_)" d="M399.395,441.82c0.08,0.736,0.183,1.48,0.306,2.236l8.733,0.417
			c0.533,0.025,3.136,0.062,6.581,0.107c0.129-0.732,0.266-1.515,0.41-2.342c-3.656-0.042-6.44-0.073-6.992-0.093L399.395,441.82z"
			/>
		<path clip-path="url(#SB_SVGID_10_)" d="M399.479,433.387c-0.08,0.61-0.146,1.216-0.193,1.819l9.375,0.112
			c1.161,0.013,4.261,0.024,7.961,0.037c0.109-0.627,0.222-1.27,0.335-1.922c-4.255-0.029-7.595-0.045-8.192-0.045L399.479,433.387z
			"/>
		<path clip-path="url(#SB_SVGID_10_)" d="M399.221,436.193c-0.033,0.65-0.047,1.301-0.043,1.952l9.413,0.225
			c0.569,0.013,3.586,0.04,7.492,0.078c0.118-0.682,0.241-1.382,0.366-2.103c-3.629-0.013-6.656-0.025-7.803-0.037L399.221,436.193z
			"/>
		<path clip-path="url(#SB_SVGID_10_)" d="M409.018,427.549l-8.358,0.197c-0.147,0.531-0.285,1.055-0.41,1.571l8.53-0.102
			c0.622-0.008,4.303,0.004,8.91,0.031c0.098-0.557,0.197-1.119,0.297-1.688C413.357,427.538,409.65,427.534,409.018,427.549"/>
		<path clip-path="url(#SB_SVGID_10_)" d="M400.473,447.829c0.553,1.883,3.724,3.378,7.719,3.62c0.491,0.03,2.635,0.068,5.546,0.112
			c0.033-0.248,0.072-0.481,0.119-0.691c0.107-0.483,0.269-1.322,0.476-2.459c-3.228-0.049-5.635-0.09-6.152-0.121L400.473,447.829z
			"/>
		<path clip-path="url(#SB_SVGID_10_)" d="M409.028,423.162c-3.893,0.096-7.116,1.409-7.934,3.188l7.735-0.187
			c0.662-0.015,4.566-0.011,9.4,0.013c0.175-0.985,0.353-1.986,0.533-2.999C413.765,423.152,409.693,423.146,409.028,423.162"/>
		<path clip-path="url(#SB_SVGID_10_)" d="M399.803,444.656c0.119,0.681,0.257,1.371,0.41,2.076l8.198,0.487
			c0.507,0.031,2.902,0.07,6.115,0.119c0.117-0.653,0.245-1.377,0.384-2.167c-3.439-0.045-6.037-0.081-6.574-0.106L399.803,444.656z
			"/>
		<path clip-path="url(#SB_SVGID_10_)" d="M407.507,463.835l-8.922,0.043c-0.119,0.57-0.226,1.133-0.317,1.691l9.074,0.063
			c0.646,0.004,3.545,0.019,7.287,0.043c-0.081-0.611-0.158-1.218-0.232-1.819C410.836,463.839,408.108,463.831,407.507,463.835"/>
		<path clip-path="url(#SB_SVGID_10_)" d="M397.815,472.303c0.021,0.692,0.064,1.39,0.128,2.092l9.192,0.393
			c0.772,0.032,4.373,0.078,8.808,0.136c-0.107-0.731-0.218-1.475-0.328-2.228c-4.301-0.047-7.745-0.082-8.458-0.103
			L397.815,472.303z"/>
		<path clip-path="url(#SB_SVGID_10_)" d="M398.017,475.124c0.08,0.736,0.182,1.481,0.306,2.238l8.731,0.478
			c0.827,0.044,4.673,0.104,9.343,0.173c-0.11-0.765-0.227-1.553-0.346-2.363c-4.52-0.058-8.206-0.104-8.998-0.138L398.017,475.124z
			"/>
		<path clip-path="url(#SB_SVGID_10_)" d="M398.1,466.688c-0.082,0.609-0.146,1.215-0.194,1.818l9.374,0.177
			c1.141,0.021,4.153,0.04,7.767,0.06c-0.091-0.649-0.181-1.298-0.268-1.944c-3.792-0.025-6.742-0.04-7.395-0.044L398.1,466.688z"/>
		<path clip-path="url(#SB_SVGID_10_)" d="M397.842,469.494c-0.033,0.65-0.047,1.301-0.043,1.952l9.412,0.29
			c0.728,0.021,4.079,0.055,8.279,0.1c-0.102-0.695-0.203-1.396-0.304-2.102c-3.681-0.019-6.763-0.04-7.92-0.061L397.842,469.494z"
			/>
		<path clip-path="url(#SB_SVGID_10_)" d="M407.637,460.915l-8.359,0.141c-0.146,0.529-0.283,1.052-0.408,1.568l8.529-0.044
			c0.6-0.003,3.307,0.004,6.848,0.021c-0.066-0.57-0.131-1.134-0.188-1.687C410.733,460.905,408.217,460.905,407.637,460.915"/>
		<path clip-path="url(#SB_SVGID_10_)" d="M399.094,481.14c0.553,1.888,3.725,3.405,7.719,3.676c0.939,0.063,5.305,0.142,10.468,0.235
			c-0.074-0.891-0.194-1.959-0.351-3.173c-5.021-0.088-9.236-0.163-10.13-0.224L399.094,481.14z"/>
		<path clip-path="url(#SB_SVGID_10_)" d="M407.646,456.528c-3.892,0.069-7.114,1.359-7.933,3.133l7.735-0.132
			c0.587-0.01,3.121-0.01,6.47-0.001c-0.1-1.056-0.177-2.058-0.23-3.002C410.538,456.519,408.188,456.519,407.646,456.528"/>
		<path clip-path="url(#SB_SVGID_10_)" d="M398.424,477.963c0.121,0.681,0.257,1.373,0.41,2.078l8.197,0.546
			c0.854,0.057,4.897,0.127,9.756,0.211c-0.094-0.695-0.197-1.429-0.306-2.189c-4.751-0.072-8.68-0.132-9.526-0.178L398.424,477.963
			z"/>
		<path clip-path="url(#SB_SVGID_10_)" d="M397.205,497.183c-0.119,0.569-0.225,1.131-0.317,1.689l9.073,0.125
			c1.351,0.018,7.451,0.064,14.187,0.138c-0.168-0.631-0.332-1.246-0.488-1.847c-6.483-0.054-12.278-0.085-13.534-0.088
			L397.205,497.183z"/>
		<path clip-path="url(#SB_SVGID_10_)" d="M396.437,505.604c0.021,0.692,0.064,1.39,0.128,2.093l9.19,0.456
			c1.614,0.078,9.094,0.197,16.945,0.346c-0.211-0.765-0.418-1.521-0.624-2.269c-7.74-0.13-14.979-0.225-16.3-0.273L396.437,505.604
			z"/>
		<path clip-path="url(#SB_SVGID_10_)" d="M396.636,508.43c0.077,0.742,0.176,1.494,0.296,2.258l8.729,0.537
			c1.721,0.104,9.687,0.251,17.909,0.43c-0.225-0.813-0.447-1.623-0.669-2.424c-8.019-0.153-15.675-0.274-17.23-0.351
			L396.636,508.43z"/>
		<path clip-path="url(#SB_SVGID_10_)" d="M396.721,499.99c-0.082,0.609-0.146,1.214-0.195,1.817l9.373,0.241
			c1.866,0.046,8.741,0.091,15.07,0.135c-0.177-0.652-0.351-1.293-0.52-1.921c-6.843-0.075-13.071-0.125-14.446-0.143
			L396.721,499.99z"/>
		<path clip-path="url(#SB_SVGID_10_)" d="M396.463,502.795c-0.033,0.649-0.047,1.3-0.043,1.951l9.41,0.354
			c1.527,0.057,8.531,0.148,16.01,0.27c-0.203-0.742-0.403-1.474-0.6-2.193c-6.406-0.046-13.459-0.092-15.354-0.138L396.463,502.795
			z"/>
		<path clip-path="url(#SB_SVGID_10_)" d="M406.256,494.281l-8.357,0.083c-0.146,0.528-0.284,1.05-0.409,1.565l8.528,0.016
			c1.235,0.001,6.922,0.031,13.313,0.085c-0.153-0.591-0.299-1.163-0.438-1.713C412.817,494.282,407.467,494.27,406.256,494.281"/>
		<path clip-path="url(#SB_SVGID_10_)" d="M397.688,514.502c0.544,1.905,3.709,3.452,7.702,3.744c1.913,0.14,11.046,0.332,20.137,0.562
			c-0.29-1.071-0.583-2.146-0.876-3.219c-8.811-0.218-17.512-0.397-19.26-0.524L397.688,514.502z"/>
		<path clip-path="url(#SB_SVGID_10_)" d="M406.266,489.893c-3.893,0.043-7.114,1.312-7.932,3.08l7.734-0.079
			c1.196-0.012,6.47,0.001,12.481,0.034c-0.271-1.118-0.504-2.126-0.689-3.007C412.213,489.893,407.346,489.882,406.266,489.893"/>
		<path clip-path="url(#SB_SVGID_10_)" d="M397.031,511.295c0.117,0.688,0.251,1.386,0.402,2.098l8.193,0.597
			c1.757,0.128,10.162,0.304,18.725,0.512c-0.206-0.752-0.412-1.502-0.617-2.248c-8.363-0.184-16.485-0.332-18.174-0.435
			L397.031,511.295z"/>
		<path clip-path="url(#SB_SVGID_10_)" d="M395.843,530.674c-0.122,0.572-0.23,1.14-0.325,1.702l9.073,0.152
			c2.366,0.037,13.849,0.16,24.569,0.346c-0.147-0.618-0.301-1.249-0.459-1.89c-10.519-0.158-21.688-0.254-23.938-0.265
			L395.843,530.674z"/>
		<path clip-path="url(#SB_SVGID_10_)" d="M395.036,539.162c0.02,0.699,0.06,1.402,0.119,2.111l9.189,0.472
			c2.563,0.13,15.214,0.355,26.768,0.646c-0.104-0.71-0.235-1.482-0.389-2.307c-11.639-0.271-24.251-0.468-26.349-0.549
			L395.036,539.162z"/>
		<path clip-path="url(#SB_SVGID_10_)" d="M395.226,542.009c0.077,0.743,0.176,1.495,0.296,2.26l8.729,0.55
			c2.621,0.163,15.451,0.424,27.188,0.747c-0.019-0.247-0.039-0.505-0.055-0.748c-0.031-0.506-0.09-1.075-0.17-1.697
			c-11.727-0.296-24.535-0.524-26.954-0.646L395.226,542.009z"/>
		<path clip-path="url(#SB_SVGID_10_)" d="M395.345,533.503c-0.083,0.614-0.151,1.224-0.202,1.832l9.372,0.266
			c3.384,0.091,6.669,0.18,9.879,0.267c1.144,0.03,8.256,0.098,15.501,0.193c-0.146-0.665-0.304-1.348-0.467-2.05
			c-10.803-0.188-22.415-0.314-24.801-0.354L395.345,533.503z"/>
		<path clip-path="url(#SB_SVGID_10_)" d="M404.498,536.597l-9.423-0.267c-0.036,0.656-0.053,1.312-0.051,1.968l9.408,0.375
			c2.508,0.097,14.825,0.288,26.126,0.543c-0.135-0.687-0.284-1.406-0.444-2.153c-7.337-0.099-14.572-0.167-15.734-0.198
			C411.171,536.777,407.885,536.688,404.498,536.597"/>
		<path clip-path="url(#SB_SVGID_10_)" d="M404.904,527.78l-8.356,0.055c-0.149,0.531-0.289,1.058-0.415,1.577l8.526,0.043
			c2.236,0.011,13.283,0.104,23.729,0.26c-0.146-0.58-0.295-1.169-0.446-1.764C417.817,527.83,407.174,527.766,404.904,527.78"/>
		<path clip-path="url(#SB_SVGID_10_)" d="M396.277,548.083c0.544,1.907,3.709,3.458,7.701,3.756c2.649,0.198,15.909,0.503,28.12,0.874
			c-0.119-1.087-0.231-2.159-0.333-3.205c-12.105-0.364-25.252-0.662-27.785-0.851L396.277,548.083z"/>
		<path clip-path="url(#SB_SVGID_10_)" d="M404.934,523.363c-3.892,0.025-7.118,1.291-7.944,3.07l7.733-0.05
			c2.26-0.015,12.797,0.048,22.859,0.166c-0.259-0.997-0.523-2.01-0.794-3.032C417.071,523.406,407.047,523.35,404.934,523.363"/>
		<path clip-path="url(#SB_SVGID_10_)" d="M395.621,544.875c0.117,0.688,0.251,1.387,0.401,2.099l8.194,0.609
			c2.568,0.191,15.529,0.485,27.451,0.842c-0.07-0.771-0.132-1.525-0.188-2.265c-11.856-0.327-24.789-0.59-27.33-0.749
			L395.621,544.875z"/>
		<path clip-path="url(#SB_SVGID_10_)" d="M412.655,330.781l-8.912,0.356c-0.095,0.57-0.176,1.132-0.242,1.69l9.07-0.255
			c1.794-0.053,14.629-0.002,25.279,0.119c0.056-0.624,0.108-1.239,0.159-1.847C427.336,330.742,414.438,330.71,412.655,330.781"/>
	</g>
	<g id="SLEEVE" clip-path="url(#SB_SVGID_2_)">
		<defs>
			<rect id="SB_SVGID_11_" x="50.693" y="69.78" width="506.307" height="655.22"/>
		</defs>
		<clipPath id="SB_SVGID_12_">
			<use xlink:href="#SB_SVGID_11_"  overflow="visible"/>
		</clipPath>
		<path clip-path="url(#SB_SVGID_12_)" fill="#BF2A43" d="M154.449,246.148c-3.212-17.989-12.895-55.396-13.953-76.634
			c-6.982,4.898-28.271,24.021-39.332,43.682c-12.62,22.436-9.815,82.729-9.815,85.535c0,2.804-0.701,11.918-0.701,11.918
			l-2.104,4.207c0,0,23.838,6.311,44.169,6.311c20.332,0,31.55-3.507,31.55-3.507l-0.701-18.929c0,0,0.596,1.108,1.402,2.906
			v-12.723C164.966,280.502,157.954,265.78,154.449,246.148"/>
		<path clip-path="url(#SB_SVGID_12_)" fill="#BF2A43" d="M517.619,310.649c0,0-0.701-9.114-0.701-11.919
			c0-2.804,2.805-63.099-9.815-85.533c-12.619-22.436-38.561-44.17-41.364-44.871c-0.232-0.058-0.724-0.219-1.428-0.465
			c0.332,7.066,0.152,17.61-2.779,26.405c-4.908,14.724-13.321,75.018-15.424,89.741c-0.808,5.646-1.717,11.703-2.531,17.027
			c0.663-1.439,1.129-2.305,1.129-2.305l-0.701,18.93c0,0,11.218,3.506,31.549,3.506c20.332,0,44.17-6.31,44.17-6.31
			L517.619,310.649z"/>
	</g>
	<g id="COLLAR" clip-path="url(#SB_SVGID_2_)">
		<defs>
			<rect id="SB_SVGID_13_" x="50.693" y="69.78" width="506.307" height="655.22"/>
		</defs>
		<clipPath id="SB_SVGID_14_">
			<use xlink:href="#SB_SVGID_13_"  overflow="visible"/>
		</clipPath>
		<path clip-path="url(#SB_SVGID_14_)" fill="#BF2A43" d="M306.445,103.99c17.912,0.263,47.74,3.774,62.626,5.663
			c-0.508-0.406-1.005-0.727-1.488-0.92c-3.505-1.402-8.412-4.207-8.412-4.207l-4.908-9.115c0,0-20.332-7.711-37.158-7.711h-25.94
			c-16.827,0-37.159,7.711-37.159,7.711l-4.907,9.115c0,0-4.908,2.805-8.414,4.207c-0.792,0.317-1.622,0.968-2.478,1.807
			C252.681,108.427,287.325,103.708,306.445,103.99"/>
	</g>
	<g clip-path="url(#SB_SVGID_2_)">
		<defs>
			<rect id="SB_SVGID_15_" x="50.693" y="69.78" width="506.307" height="655.22"/>
		</defs>
		<clipPath id="SB_SVGID_16_">
			<use xlink:href="#SB_SVGID_15_"  overflow="visible"/>
		</clipPath>
		<g opacity="0.35" clip-path="url(#SB_SVGID_16_)">
			<g>
				<defs>
					<rect id="SB_SVGID_17_" x="90.556" y="99.419" width="427.16" height="608.106"/>
				</defs>
				<clipPath id="SB_SVGID_18_">
					<use xlink:href="#SB_SVGID_17_"  overflow="visible"/>
				</clipPath>
				<path clip-path="url(#SB_SVGID_18_)" fill="none" stroke="#FFCD72" stroke-miterlimit="10" stroke-dasharray="0.859,0.5" d="
					M169.873,607.916c0,0,36.458,69.409,68.007,82.73c31.549,13.32,90.442,12.619,114.279,6.31
					c23.838-6.31,46.974-25.24,54.687-36.457c7.712-11.218,32.951-53.284,32.951-53.284"/>
				<path clip-path="url(#SB_SVGID_18_)" fill="none" stroke="#FFCD72" stroke-miterlimit="10" stroke-dasharray="0.859,0.5" d="
					M169.873,613.712c0,0,36.458,69.409,68.007,82.73c31.549,13.32,90.442,12.619,114.279,6.31
					c23.838-6.31,46.974-25.24,54.687-36.458c7.712-11.217,32.951-53.283,32.951-53.283"/>
				<path clip-path="url(#SB_SVGID_18_)" fill="none" stroke="#FFCD72" stroke-miterlimit="10" stroke-dasharray="0.859,0.5" d="
					M90.631,307.205c0,0,19.063,3.574,38.72,3.574c19.658,0,34.749-1.589,34.749-1.589"/>
				<path clip-path="url(#SB_SVGID_18_)" fill="none" stroke="#FFCD72" stroke-miterlimit="10" stroke-dasharray="0.859,0.5" d="
					M90.631,303.894c0,0,19.063,3.574,38.72,3.574c19.658,0,34.749-1.588,34.749-1.588"/>
				<path clip-path="url(#SB_SVGID_18_)" fill="none" stroke="#FFCD72" stroke-miterlimit="10" stroke-dasharray="0.859,0.5" d="
					M517.64,307.205c0,0-19.062,3.574-38.72,3.574c-19.657,0-34.749-1.589-34.749-1.589"/>
				<path clip-path="url(#SB_SVGID_18_)" fill="none" stroke="#FFCD72" stroke-miterlimit="10" stroke-dasharray="0.859,0.5" d="
					M517.64,303.894c0,0-19.062,3.574-38.72,3.574c-19.657,0-34.749-1.588-34.749-1.588"/>
				<path clip-path="url(#SB_SVGID_18_)" fill="none" stroke="#FFCD72" stroke-miterlimit="10" stroke-dasharray="0.859,0.5" d="
					M248.941,104.913c0,0,32.911-5.425,57.504-5.063c24.593,0.361,52.802,4.702,52.802,4.702"/>
				<path clip-path="url(#SB_SVGID_18_)" fill="none" stroke="#FFCD72" stroke-miterlimit="10" stroke-dasharray="0.859,0.5" d="
					M237.478,111.038c0,0,44.375-7.41,68.968-7.048c24.593,0.361,63.129,5.692,63.129,5.692"/>
				<path clip-path="url(#SB_SVGID_18_)" fill="none" stroke="#FFCD72" stroke-miterlimit="10" stroke-dasharray="0.859,0.5" d="
					M164.784,301.452c0,0,0.181-4.123,0.181-12.536c0-8.414-7.01-23.138-10.517-42.768c-3.505-19.631-14.506-56.619-13.806-76.25"/>
				<path clip-path="url(#SB_SVGID_18_)" fill="none" stroke="#FFCD72" stroke-miterlimit="10" stroke-dasharray="0.859,0.5" d="
					M464.311,167.861c0,0,2.129,11.683-2.779,26.405c-4.907,14.724-13.321,75.018-15.424,89.741
					c-2.104,14.723-4.908,32.25-4.908,32.25"/>
			</g>
		</g>
	</g>
	<g clip-path="url(#SB_SVGID_2_)">
		<defs>
			<rect id="SB_SVGID_19_" x="50.693" y="69.78" width="506.307" height="655.22"/>
		</defs>
		<clipPath id="SB_SVGID_20_">
			<use xlink:href="#SB_SVGID_19_"  overflow="visible"/>
		</clipPath>
		<path clip-path="url(#SB_SVGID_20_)" d="M313.453,115.323c4.076,0,7.379,3.537,7.379,7.896c0,4.361-3.303,7.896-7.379,7.896H299.14
			c-4.073,0-7.379-3.536-7.379-7.896c0-4.359,3.306-7.896,7.379-7.896H313.453"/>
		<path clip-path="url(#SB_SVGID_20_)" fill="none" stroke="#000000" stroke-width="6.078" d="M313.453,115.323
			c4.076,0,7.379,3.537,7.379,7.896c0,4.361-3.303,7.896-7.379,7.896H299.14c-4.073,0-7.379-3.536-7.379-7.896
			c0-4.359,3.306-7.896,7.379-7.896H313.453"/>
		<path clip-path="url(#SB_SVGID_20_)" d="M312.9,116.587c3.705,0,6.704,2.968,6.704,6.632c0,3.665-2.999,6.633-6.705,6.633h-13
			c-3.698,0-6.701-2.969-6.701-6.633c0-3.664,3.003-6.632,6.701-6.632H312.9"/>
		<path clip-path="url(#SB_SVGID_20_)" fill="none" stroke="#FFFFFF" stroke-width="0.658" d="M312.9,116.587
			c3.705,0,6.704,2.968,6.704,6.632c0,3.665-2.999,6.633-6.705,6.633h-13c-3.698,0-6.701-2.969-6.701-6.633
			c0-3.664,3.003-6.632,6.701-6.632H312.9"/>
		<path clip-path="url(#SB_SVGID_20_)" fill="#FFFFFF" d="M294.952,123.178c0-2.764,2.05-5.029,4.644-5.211v10.422
			C297.002,128.207,294.952,125.94,294.952,123.178"/>
		<polygon clip-path="url(#SB_SVGID_20_)" fill="#FFFFFF" points="304.748,122.494 300.416,117.953 304.748,117.953 		"/>
		<polygon clip-path="url(#SB_SVGID_20_)" fill="#FFFFFF" points="304.748,123.859 300.416,128.402 304.748,128.402 		"/>
		<polygon clip-path="url(#SB_SVGID_20_)" fill="#FFFFFF" points="310.184,122.494 314.52,117.953 310.184,117.953 		"/>
		<polygon clip-path="url(#SB_SVGID_20_)" fill="#FFFFFF" points="310.184,123.859 314.52,128.402 310.184,128.402 		"/>
		<rect x="305.668" y="117.953" clip-path="url(#SB_SVGID_20_)" fill="#FFFFFF" width="3.598" height="10.449"/>
		<path clip-path="url(#SB_SVGID_20_)" fill="#FFFFFF" d="M299.197,114.089v0.639h0.604v-0.215l0.221,0.046v0.121
			c0,0.188-0.053,0.237-0.236,0.237h-0.572c-0.184,0-0.237-0.05-0.237-0.237v-0.534c0-0.188,0.054-0.237,0.237-0.237h0.572
			c0.184,0,0.236,0.049,0.236,0.237v0.097l-0.221,0.037v-0.191H299.197z"/>
		<path clip-path="url(#SB_SVGID_20_)" fill="#FFFFFF" d="M300.611,113.909h0.71c0.181,0,0.237,0.05,0.237,0.237v0.534
			c0,0.188-0.057,0.238-0.237,0.238h-0.71c-0.182,0-0.239-0.051-0.239-0.238v-0.534C300.372,113.959,300.43,113.909,300.611,113.909
			 M301.334,114.09h-0.736v0.639h0.736V114.09z"/>
		<path clip-path="url(#SB_SVGID_20_)" fill="#FFFFFF" d="M301.935,113.909h0.182l0.45,0.611l0.446-0.611h0.18v1.009h-0.207v-0.624
			c0-0.019,0-0.055,0.003-0.107c-0.016,0.045-0.037,0.082-0.055,0.105l-0.358,0.503h-0.047l-0.36-0.505
			c-0.024-0.032-0.042-0.064-0.059-0.104c0.004,0.042,0.007,0.077,0.007,0.107v0.624h-0.182V113.909z"/>
		<path clip-path="url(#SB_SVGID_20_)" fill="#FFFFFF" d="M303.566,113.91h0.823c0.147,0,0.218,0.055,0.218,0.195v0.225
			c0,0.14-0.07,0.196-0.218,0.196h-0.601v0.393h-0.223V113.91z M303.789,114.084v0.267h0.503c0.067,0,0.098-0.013,0.098-0.08v-0.106
			c0-0.066-0.03-0.081-0.098-0.081H303.789z"/>
		<path clip-path="url(#SB_SVGID_20_)" fill="#FFFFFF" d="M304.859,113.91h0.818c0.15,0,0.219,0.055,0.219,0.195v0.237
			c0,0.14-0.068,0.195-0.219,0.195h-0.123l0.441,0.381h-0.318l-0.389-0.381h-0.207v0.381h-0.223V113.91z M305.082,114.084v0.28h0.5
			c0.071,0,0.099-0.014,0.099-0.08v-0.12c0-0.066-0.027-0.081-0.099-0.081H305.082z"/>
		<polygon clip-path="url(#SB_SVGID_20_)" fill="#FFFFFF" points="306.258,113.909 307.24,113.909 307.24,114.082 306.482,114.082 
			306.482,114.306 306.925,114.306 306.925,114.479 306.482,114.479 306.482,114.729 307.254,114.729 307.254,114.918 
			306.258,114.918 		"/>
		<path clip-path="url(#SB_SVGID_20_)" fill="#FFFFFF" d="M307.779,114.084v0.219h0.597c0.183,0,0.239,0.048,0.239,0.237v0.14
			c0,0.187-0.057,0.238-0.239,0.238h-0.593c-0.18,0-0.24-0.051-0.24-0.238v-0.03l0.197-0.04v0.118h0.68v-0.23h-0.6
			c-0.181,0-0.238-0.051-0.238-0.239v-0.111c0-0.187,0.058-0.237,0.238-0.237h0.546c0.171,0,0.237,0.047,0.237,0.221v0.021
			l-0.196,0.048v-0.116H307.779z"/>
		<path clip-path="url(#SB_SVGID_20_)" fill="#FFFFFF" d="M309.188,114.084v0.219h0.602c0.18,0,0.24,0.048,0.24,0.237v0.14
			c0,0.187-0.061,0.238-0.24,0.238h-0.594c-0.181,0-0.238-0.051-0.238-0.238v-0.03l0.197-0.04v0.118h0.678v-0.23h-0.6
			c-0.176,0-0.238-0.051-0.238-0.239v-0.111c0-0.187,0.063-0.237,0.238-0.237h0.546c0.171,0,0.237,0.047,0.237,0.221v0.021
			l-0.196,0.048v-0.116H309.188z"/>
		<rect x="310.401" y="113.909" clip-path="url(#SB_SVGID_20_)" fill="#FFFFFF" width="0.226" height="1.009"/>
		<path clip-path="url(#SB_SVGID_20_)" fill="#FFFFFF" d="M311.24,113.909h0.707c0.185,0,0.242,0.05,0.242,0.237v0.534
			c0,0.188-0.058,0.238-0.242,0.238h-0.707c-0.18,0-0.236-0.051-0.236-0.238v-0.534C311.004,113.959,311.061,113.909,311.24,113.909
			 M311.965,114.09h-0.742v0.639h0.742V114.09z"/>
		<path clip-path="url(#SB_SVGID_20_)" fill="#FFFFFF" d="M312.563,113.909h0.153l0.677,0.593c0.04,0.035,0.074,0.068,0.108,0.111
			c-0.003-0.083-0.007-0.143-0.007-0.173v-0.531h0.198v1.009h-0.15l-0.706-0.624c-0.027-0.025-0.055-0.05-0.081-0.082
			c0.009,0.078,0.009,0.13,0.009,0.16v0.545h-0.201V113.909z"/>
		<path clip-path="url(#SB_SVGID_20_)" fill="#FFFFFF" d="M303.617,131.732v0.639h0.696v-0.224h-0.364v-0.173h0.584v0.347
			c0,0.19-0.059,0.239-0.238,0.239h-0.664c-0.182,0-0.239-0.049-0.239-0.239v-0.529c0-0.191,0.058-0.238,0.239-0.238h0.664
			c0.175,0,0.238,0.047,0.238,0.228v0.022l-0.22,0.043v-0.114H303.617z"/>
		<polygon clip-path="url(#SB_SVGID_20_)" fill="#FFFFFF" points="304.912,131.553 305.896,131.553 305.896,131.725 305.138,131.725 
			305.138,131.95 305.578,131.95 305.578,132.121 305.138,132.121 305.138,132.371 305.906,132.371 305.906,132.56 304.912,132.56 
					"/>
		<path clip-path="url(#SB_SVGID_20_)" fill="#FFFFFF" d="M306.587,131.554h0.216l0.551,1.006h-0.252l-0.116-0.22h-0.607l-0.112,0.22
			h-0.223L306.587,131.554z M306.893,132.158l-0.206-0.41l-0.212,0.41H306.893z"/>
		<path clip-path="url(#SB_SVGID_20_)" fill="#FFFFFF" d="M307.571,131.554h0.819c0.15,0,0.217,0.054,0.217,0.194v0.236
			c0,0.14-0.066,0.194-0.217,0.194h-0.122l0.44,0.381h-0.321l-0.386-0.381h-0.213v0.381h-0.218V131.554z M307.789,131.726v0.282
			h0.503c0.067,0,0.099-0.014,0.099-0.08v-0.122c0-0.066-0.031-0.081-0.099-0.081H307.789z"/>
		<path clip-path="url(#SB_SVGID_20_)" fill="#FFFFFF" d="M309.977,131.372c0.125,0.13,0.194,0.309,0.194,0.495
			c0,0.192-0.067,0.364-0.197,0.495c-0.132,0.135-0.299,0.208-0.474,0.208c-0.178,0-0.346-0.073-0.473-0.211
			c-0.128-0.136-0.197-0.306-0.197-0.492s0.072-0.365,0.203-0.504c0.121-0.131,0.286-0.199,0.467-0.199
			C309.682,131.164,309.85,131.237,309.977,131.372 M309.916,131.437c-0.109-0.119-0.254-0.18-0.412-0.18s-0.305,0.058-0.409,0.174
			c-0.112,0.12-0.177,0.275-0.177,0.436c0,0.161,0.063,0.312,0.169,0.427c0.112,0.121,0.259,0.182,0.407,0.182
			c0.159,0,0.302-0.061,0.418-0.18c0.111-0.111,0.169-0.261,0.169-0.423C310.081,131.703,310.027,131.551,309.916,131.437
			 M309.835,131.673c0,0.113-0.063,0.191-0.173,0.215l0.168,0.362h-0.162l-0.151-0.34h-0.142v0.34h-0.143v-0.796h0.285
			C309.732,131.455,309.835,131.529,309.835,131.673 M309.375,131.553v0.264h0.119c0.131,0,0.19-0.034,0.19-0.126
			c0-0.101-0.06-0.137-0.194-0.137H309.375z"/>
	</g>
	<g clip-path="url(#SB_SVGID_2_)">
		<defs>
			<rect id="SB_SVGID_21_" x="50.693" y="69.78" width="506.307" height="655.22"/>
		</defs>
		<clipPath id="SB_SVGID_22_">
			<use xlink:href="#SB_SVGID_21_"  overflow="visible"/>
		</clipPath>
		<g opacity="0.12" clip-path="url(#SB_SVGID_22_)">
			<g>
				<defs>
					<rect id="SB_SVGID_23_" x="93.637" y="203.726" width="405.456" height="307.929"/>
				</defs>
				<clipPath id="SB_SVGID_24_">
					<use xlink:href="#SB_SVGID_23_"  overflow="visible"/>
				</clipPath>
				<path clip-path="url(#SB_SVGID_24_)" fill="#897F76" d="M161.425,288.078c0,0-12.742-2.293-21.917-5.352
					c-9.174-3.059-17.584-5.352-24.72-11.723c-7.135-6.371-21.151-23.19-21.151-23.19s24.72,21.406,26.758,23.445
					C122.435,273.298,161.425,288.078,161.425,288.078"/>
				<path clip-path="url(#SB_SVGID_24_)" fill="#897F76" d="M150.722,278.14l-15.546-7.391l-2.548-5.605
					c0,0,18.094,12.996,16.056,9.429c-2.039-3.568-27.269-32.365-31.856-38.227c-4.586-5.861-15.544-18.349-15.544-18.349
					s13.506,8.919,15.036,11.978c1.529,3.059,25.739,32.619,28.542,36.188c2.804,3.566,10.194,9.685,9.685,10.958
					C154.035,278.395,150.722,278.14,150.722,278.14"/>
				<path clip-path="url(#SB_SVGID_24_)" fill="#897F76" d="M132.883,274.571c0,0-17.329-18.093-20.132-21.405
					c-2.804-3.313-14.527-12.488-14.527-12.488l21.917,23.955L132.883,274.571z"/>
				<path clip-path="url(#SB_SVGID_24_)" fill="#897F76" d="M153.525,263.359c0,0-5.097-13.253-7.646-19.114
					c-2.549-5.86-6.881-28.287-11.213-27.777c-4.333,0.51-1.53,9.429,1.528,15.8c3.059,6.372,6.372,11.468,6.372,11.468
					s-7.391-2.548-11.723-9.429c-4.332-6.881-14.525-30.071-17.329-29.307c-2.803,0.764,1.784,13.251,6.371,20.642
					c4.587,7.391,15.801,18.094,21.662,23.955C147.409,255.459,153.525,263.359,153.525,263.359"/>
				<path clip-path="url(#SB_SVGID_24_)" fill="#897F76" d="M446.596,268.2c0,0,11.978-22.426,19.367-34.913
					c7.391-12.487,20.897-29.562,20.897-29.562s-22.427,39.501-23.7,41.029C461.886,246.284,446.596,268.2,446.596,268.2"/>
				<path clip-path="url(#SB_SVGID_24_)" fill="#897F76" d="M458.063,253.93c0,0,9.174-13.507,19.368-21.662
					c10.193-8.154,21.661-12.487,21.661-12.487s-15.29,8.155-23.19,18.349c-7.9,10.194-21.406,25.485-23.445,31.347
					s-1.529,12.486-1.529,12.486s6.116-1.528,3.568,0.765c-2.549,2.295,2.038,8.156-1.529,9.43
					c-3.568,1.274-5.606,1.784-5.606,3.313c0,1.53-5.097-1.02-5.097-1.02s2.803-20.388,3.822-22.681S458.063,253.93,458.063,253.93"
					/>
				<path clip-path="url(#SB_SVGID_24_)" fill="#897F76" d="M455.005,273.808c0,0-0.255-8.92,6.371-11.723
					c6.626-2.804,13.762-3.823,19.368-6.627c5.606-2.802,9.43-6.116,9.43-6.116s-7.137,9.685-16.056,12.743
					s-12.232,3.059-14.271,5.606C457.809,270.239,455.005,273.808,455.005,273.808"/>
				<path clip-path="url(#SB_SVGID_24_)" fill="#897F76" d="M206.686,504.623c0,0,64.943-14.064,93.485-13.237
					s101.344,20.269,101.344,20.269s-52.12-13.65-97.621-14.063C258.392,497.177,206.686,504.623,206.686,504.623"/>
			</g>
		</g>
	</g>
</g>
  <g id="CUSTOM"></g>
</svg>
