<?xml version="1.0" encoding="utf-8"?>
<!-- Generator: Adobe Illustrator 19.1.0, SVG Export Plug-In . SVG Version: 6.00 Build 0)  -->
<!DOCTYPE svg PUBLIC "-//W3C//DTD SVG 1.1//EN" "http://www.w3.org/Graphics/SVG/1.1/DTD/svg11.dtd">
<svg version="1.1" xmlns="http://www.w3.org/2000/svg" xmlns:xlink="http://www.w3.org/1999/xlink" x="0px" y="0px"
	 viewBox="0 0 612 1184.5" enable-background="new 0 0 612 1184.5" xml:space="preserve">
<g id="BODY">
	<path fill="#FFFFFF" stroke="#AFB1AF" stroke-width="0.2022" d="M175,528.1c0,0,112.9,11.2,149.8,9.8c36.9-1.4,124.3-7.8,124.3-7.8
		s3.3,78.6,4,82.1c0.7,3.5,12.1,159.5,12.8,195.7c0.7,36.2,9.2,93.6,10.6,98.6c1.4,5,2.8,29.1,3.5,31.2c0.7,2.1,4.3,18.4,2.8,29.8
		c-1.4,11.3-12.8,26.9-12.8,26.9s-1.4,22-0.7,24.8c0.7,2.8,0,17.7-2.8,23.4c-2.8,5.7-8.5,21.3-8.5,21.3s10.6,11.3,13.5,16.3
		c2.8,5,4.3,14.2,4.3,14.2s5,6.4,5,9.9c0,3.5-4.3,12-4.3,16.3c0,4.3-0.7,8.5-0.7,8.5s-17.7,8.5-41.1,8.5c-23.4,0-36.2-2.8-39-8.5
		c-2.8-5.7-2.8-14.2-3.5-16.3c-0.7-2.1-7.1-19.9-7.1-22c0-2.1,3.5-14.9,4.3-17c0.7-2.1,5-10.6,5-10.6l-0.7-20.6c0,0-3.5-5.7-6.4-7.8
		c-2.8-2.1-6.4-37.6-10.6-53.9c-4.3-16.3-17-78-17-78s-1.4-14.2-1.4-17c0-2.8-7.1-24.8-7.8-29.1c-0.7-4.3-7.8-55.3-7.8-58.1
		c0-2.8-2.8-14.2-5.7-21.3c-2.8-7.1-3.5-29.1-3.5-33.3c0-4.3-5.7-34-7.1-40.4c-1.4-6.4-5-38.3-8.5-41.8c-3.5-3.5-7.1,21.3-7.8,26.2
		c-0.7,5-19.1,136.1-19.1,136.1s-5,19.1-5,22c0,2.8-3.5,53.2-5.7,65.9c-2.1,12.8-10.6,75.9-12.8,78.7c-2.1,2.8-4.3,7.8-4.3,7.8
		s1.4,23.4-2.1,35.5c-3.5,12.1-5.7,22-5.7,22s-1.4,12.1-4.3,16.3c-2.8,4.3-8.5,7.8-8.5,9.9c0,2.1-1.4,12.8-1.4,12.8s4.3,5,3.5,7.1
		c-0.7,2.1-5.7,12-7.1,17c-1.4,5-2.8,16.3-7.8,20.6c-5,4.3-56,12.1-60.3,9.9c-4.3-2.1-5-9.2-5-12.1c0-2.8-10.6-35.5-10.6-39.7
		c0-4.3,10.6-26.9,10.6-26.9l2.8-8.5l2.8-4.3c0,0-16.3-46.8-16.3-48.9c0-2.1,9.9-24.1,9.2-26.2c-0.7-2.1-5-18.4-3.5-32.6
		c1.4-14.2,9.2-90.8,9.2-90.8v-35.5c0,0,2.1-55.3,1.4-62.4c-0.7-7.1-4.3-55.3-4.3-61.7c0-6.4,3.5-53.2,5.7-68.1
		C173.8,617.1,175,528.1,175,528.1z"/>
	<path fill="#FFFFFF" stroke="#808080" stroke-width="0.2059" d="M246,21.7c4.8-3.2,32.2-7.2,35.4-7.2c3.2,0,16.9,3.2,20.9,3.2
		c4,0,21.8-0.8,25-1.6c3.2-0.8,19.3,0,22.6,2.4c3.2,2.4,4.8,5.6,6.4,8.9c1.6,3.2,6.4,12.9,4.8,16.1c-1.6,3.2-1.6,10.5-1.6,10.5
		s6.4,10.5,8.9,11.3C370.8,66,420,89,432.1,94.7c12.1,5.6,50.7,31.7,58.7,39c8.1,7.2,93.3,78.2,95,80.5
		c24.2,32.2,16.9,70.1-11.3,99.9c-22,23.3-54,50.7-57.2,54.8c-3.2,4-15.3,16.9-18.5,16.9s-14.5-1.6-14.5-1.6l-8.9,10.5l-3.7,2.5
		c0,0-14.5-6.4-16.9-9.7c-2.4-3.2-2.4-12.1-6.4-13.7c-4-1.6-11.3-10.5-11.3-10.5l0.8-4c0,0,8.5,0.7,9.3-2.5
		c0.8-3.2,5.6-14.5,5.6-14.5s3.2-8.1,5.6-8.1c2.4,0,9.7-4.8,10.5-7.2c0.8-2.4,2.4-8.1,4.8-8.9c2.4-0.8,6.4-6.4,6.4-6.4l4-5.6
		l6.4-10.5l6.4-13.7v-11.3l-9.7-5.6c0,0-15.3-15.3-16.9-17.7c-1.6-2.4-4.8-6.4-8.1-8.1c-3.2-1.6-9.7-4-12.1-4.8
		c-2.4-0.8-9.7-4-9.7-4s-5.6,15.3-5.6,19.3c0,4-4,66-5.6,70.9c-1.6,4.8-5.6,33-6.4,37.9c-0.8,4.8-0.8,17.7-0.8,23.4
		c0,5.6,3.2,21.7,4.8,26.6c1.6,4.8,14.5,52.4,14.5,58.8c0,6.4,4,33.8,4,33.8s4.8,6.4,2.4,9.7c-2.4,3.2-24.2,21.7-44.3,25
		c-20.1,3.2-139.3,6.4-150.6,4.8c-11.3-1.6-43.5-3.2-58.8-12.1s-20.1-16.1-20.1-19.3s5.6-22.6,5.6-22.6s-0.8-27.4,0.8-30.6
		c1.6-3.2,5.6-19.3,5.6-21.8c0-2.4,2.4-17.7,2.4-20.9c0-3.2,8.9-30.6,8.9-34.6c0-4-1.6-9.7-3.2-12.9c-1.6-3.2-13.7-45.9-14.5-48.3
		c-0.8-2.4-12.1-54.8-12.1-58c0-3.2-0.8-17.7-0.8-17.7s-8.9-1.6-12.1,0.8c-3.2,2.4-16.1,12.1-18.5,15.3c-2.4,3.2-6.4,8.1-10.5,8.1
		c-4,0-12.9,0.8-12.9,0.8s3.2,3.2,2.4,5.6c-0.8,2.4-5.6,13.7-5.6,13.7s8.9,7.2,12.9,16.9c4,9.7,10.5,28.2,12.9,31.4
		c2.4,3.2,5.6,8.9,5.6,8.9l4.8,2.4l6.4,5.6l6.4,5.6l3.2,5.6l8.1,6.4l5.2,3.5c0,0-8.6,10.8-9.4,13.2c-0.8,2.4-8.4,16.8-11.6,19.2
		c-3.2,2.4-9.8,8.7-9.8,8.7l-8.2-5.2c0,0-3.2-3.2-5.6-5.6c-2.4-2.4-8.1-3.2-8.1-3.2l-8.1-2.4c0,0-4,4-9.7,3.2
		c-5.6-0.8-20.1-12.1-20.1-12.1s-65.2-59.6-71.7-100.7c-6.4-41.1,51.6-94.2,58-102.3c6.4-8.1,33-38.7,37.1-44.3
		c4-5.6,35.4-32.2,41.1-33.8c5.6-1.6,39.5-16.9,47.5-20.9c8.1-4,39.5-19.3,41.9-20.9c2.4-1.6,4.8-8.9,4.8-8.9s-1.6-20.1-0.8-24.2
		C243.6,28.1,246,21.7,246,21.7z"/>
</g>
<g id="SHADING_x2F_DETAIL_1_">
	<path fill="#A5A5A5" d="M264,17.1c0,0-4.1,21.2-6.1,25.8c-2,4.6-9.8,21.6-9.8,21.6s-32,13.7-49.7,24.8
		c-17.7,11.1-42.7,25.7-42.7,25.7l-5-8c0,0,43.5-19.3,53.5-24.2c10.8-5.3,34.8-15.4,36.7-20.7c0.5-1.3,2.6-3.3,2.5-5.7
		c0-7.1-1-18.1-1-20.5c0-2.5,0.8-10,3.9-13.9c1.1-1.3,3.7-1.7,5.1-2.1C256.9,18.4,264,17.1,264,17.1z"/>
	<path fill="#A5A5A5" d="M339.7,16.1c0,0,1.3,10.5,1.3,13.7c0,3.3,2.6,9.8,4.6,13.1c2,3.3,7.8,8.5,8.5,11.1
		c0.7,2.6,3.3,10.5,3.3,10.5s17.7,3.3,36.6,15c19,11.8,55.3,33.7,55.3,33.7l4-5.4c0,0-4.5-3.6-11.9-7.8
		c-8.4-4.8-20.5-10.7-32.2-16.1c-1.9-0.9-4.5-2.4-6.4-3.2c-10.8-4.5-29.9-13.6-32.8-14.9c-3-1.4-6.3-5.8-7.6-7.8
		c-1.3-2-3.4-3.8-2.8-6.4c0.7-2.6,2.8-10.3,0.4-15.8c-1.4-3.2-2-6.5-4.6-11.1c-2.6-4.6-5.8-6.6-7.8-7.3
		C345.6,16.6,339.7,16.1,339.7,16.1z"/>
	<radialGradient id="SVGBACKID_1_" cx="29.1534" cy="268.5342" r="87.9906" gradientUnits="userSpaceOnUse">
		<stop  offset="0" style="stop-color:#FFFFFF"/>
		<stop  offset="1" style="stop-color:#000000"/>
	</radialGradient>
	<path opacity="8.000000e-002" fill="url(#SVGBACKID_1_)" d="M112.2,268.4c0,0-14.4,2.6-30.7,2.6c-16.3,0-31.4-3.9-34.6-2.6
		c-3.3,1.3-2,6.5,2,6.5c3.9,0,37.3,0,41.8-0.7c4.6-0.7-2,11.1-3.9,12.4c-2,1.3-15.7-1.3-15.7-1.3l-2,7.2l17,2.6
		c0,0,10.5-5.2,14.4-7.8C104.3,284.8,112.2,268.4,112.2,268.4z"/>
	<radialGradient id="SVGBACKID_2_" cx="38.4781" cy="296.0179" r="79.0139" gradientUnits="userSpaceOnUse">
		<stop  offset="0" style="stop-color:#FFFFFF"/>
		<stop  offset="1" style="stop-color:#000000"/>
	</radialGradient>
	<path opacity="8.000000e-002" fill="url(#SVGBACKID_2_)" d="M81.5,331.2c2.6,2.6,16.3,0,16.3,0s5.9-5.2,9.2-7.8
		c3.3-2.6,6.5-9.8,7.2-14.4c0.7-4.6-1.3-9.2-3.9-11.8c-2.6-2.6-5.9-4.6-5.9-4.6l-13.7,5.9c0,0-17,0.7-19,0c-2-0.7-21.6-2.6-21.6-2.6
		s3.3,5.2,7.2,5.2c3.9,0,29.4,3.3,29.4,3.3s7.2,5.9,7.2,9.8c0,3.9-1.3,12.4-3.3,12.4C88.6,326.6,81.5,331.2,81.5,331.2z"/>
	<radialGradient id="SVGBACKID_3_" cx="110.6197" cy="259.7021" r="67.9522" gradientUnits="userSpaceOnUse">
		<stop  offset="0" style="stop-color:#FFFFFF"/>
		<stop  offset="1" style="stop-color:#000000"/>
	</radialGradient>
	<path opacity="0.1" fill="url(#SVGBACKID_3_)" d="M120.6,299c0,0,6,17.8-1.8,26.3c-7.8,8.5-16.3,11.1-16.3,11.1s9.8,1.3,15-1.3
		c5.2-2.6,10.5-8.5,10.5-15.7C127.9,312.2,120.6,299,120.6,299z"/>
	<radialGradient id="SVGBACKID_4_" cx="129.2686" cy="326.4464" r="44.9492" gradientUnits="userSpaceOnUse">
		<stop  offset="0" style="stop-color:#FFFFFF"/>
		<stop  offset="1" style="stop-color:#000000"/>
	</radialGradient>
	<path opacity="0.1" fill="url(#SVGBACKID_4_)" d="M131.8,336.4c0,0-10.5,28.8-13.1,33.3c-2.6,4.6-7.2,17-7.2,17s17-26.8,19.6-28.8
		c2.6-2,3.3-8.5,2-11.1C131.8,344.3,131.8,336.4,131.8,336.4z"/>
	<radialGradient id="SVGBACKID_5_" cx="105.2215" cy="364.7242" r="38.8209" gradientUnits="userSpaceOnUse">
		<stop  offset="0" style="stop-color:#FFFFFF"/>
		<stop  offset="1" style="stop-color:#000000"/>
	</radialGradient>
	<path opacity="6.000000e-002" fill="url(#SVGBACKID_5_)" d="M95.8,389.4c0,0,7.2,7.8,10.5,5.9c3.3-2,17-23.5,20.3-23.5
		c3.3,0-12.4,26.8-17,26.8C105,398.5,95.8,389.4,95.8,389.4z"/>
	<radialGradient id="SVGBACKID_6_" cx="105.7129" cy="392.6988" r="36.8811" gradientUnits="userSpaceOnUse">
		<stop  offset="0" style="stop-color:#FFFFFF"/>
		<stop  offset="1" style="stop-color:#000000"/>
	</radialGradient>
	<path opacity="0.1" fill="url(#SVGBACKID_6_)" d="M120,394.6c0,0,13.7-26.8,15.7-26.8c2,0,2.6,17-2,21.6
		C129.2,393.9,120,394.6,120,394.6z"/>
	<radialGradient id="SVGBACKID_7_" cx="159.206" cy="341.1678" r="36.0171" gradientUnits="userSpaceOnUse">
		<stop  offset="0" style="stop-color:#FFFFFF"/>
		<stop  offset="1" style="stop-color:#000000"/>
	</radialGradient>
	<path opacity="8.000000e-002" fill="url(#SVGBACKID_7_)" d="M144.9,350.1c0,0-0.7,19.6-0.7,22.2c0,2.6,0,2.6,0,2.6l4.8,3.2l10.2-15
		l-2-2.6c0,0-7.8,13.7-9.2,11.1c-1.3-2.6,0.7-20.9,0.7-20.9L144.9,350.1z"/>
	<path opacity="8.000000e-002" fill="none" stroke="#808080" stroke-width="0.4908" d="M130.3,401.9c0,0,8.7-9.9,12-13.8
		c3.3-3.9,11.1-17,13.1-19.6c2-2.6,6.9-6,6.9-6"/>
	<path opacity="8.000000e-002" fill="none" stroke="#808080" stroke-width="0.4908" d="M142.7,412.3c0,0,10.1-8.5,14-14.4
		c3.9-5.9,5.9-11.8,7.8-14.4c2-2.6,5.2-8.5,5.2-8.5l3.6-4.2"/>
	<radialGradient id="SVGBACKID_8_" cx="198.466" cy="97.261" r="54.1388" gradientUnits="userSpaceOnUse">
		<stop  offset="0" style="stop-color:#FFFFFF"/>
		<stop  offset="1" style="stop-color:#000000"/>
	</radialGradient>
	<polygon opacity="0.12" fill="url(#SVGBACKID_8_)" points="163.8,127.9 194.6,109.6 166.4,132.4 	"/>
	<radialGradient id="SVGBACKID_9_" cx="195.0301" cy="89.8982" r="48.9614" gradientUnits="userSpaceOnUse">
		<stop  offset="0" style="stop-color:#FFFFFF"/>
		<stop  offset="1" style="stop-color:#000000"/>
	</radialGradient>
	<path opacity="0.12" fill="url(#SVGBACKID_9_)" d="M161,123.5c0,0,15.3-11.3,17.9-13.2c2.6-2,11.8-7.8,11.8-7.8l-33.1,15.5L161,123.5z"
		/>
	<radialGradient id="SVGBACKID_10_" cx="202.3924" cy="93.8248" r="97.9617" gradientUnits="userSpaceOnUse">
		<stop  offset="0" style="stop-color:#FFFFFF"/>
		<stop  offset="1" style="stop-color:#000000"/>
	</radialGradient>
	<path opacity="8.000000e-002" fill="url(#SVGBACKID_10_)" d="M193.3,135.1L177,176.9c0,0-4,40.2-5.9,45.8c-1.5,4.5-0.7,4.9-4,18.9
		c0,0,9.9-55.5,15.8-69.3C188.7,158.6,193.3,135.1,193.3,135.1z"/>
	<radialGradient id="SVGBACKID_11_" cx="129.2688" cy="136.0305" r="114.6678" gradientUnits="userSpaceOnUse">
		<stop  offset="0" style="stop-color:#FFFFFF"/>
		<stop  offset="1" style="stop-color:#000000"/>
	</radialGradient>
	<path opacity="5.000000e-002" fill="url(#SVGBACKID_11_)" d="M161.9,162.5c0,0-35.3,57.5-34.6,61.5c0.7,3.9,8.5,14.4,12.4,15.7
		c3.9,1.3,11.1,5.2,11.1,5.2l6.9-3.8h5.3c0,0-8.9-33.4-3-53c5.9-19.6,9.8-34,9.8-34L161.9,162.5z"/>
	<radialGradient id="SVGBACKID_12_" cx="126.3247" cy="217.9864" r="47.32" gradientUnits="userSpaceOnUse">
		<stop  offset="0" style="stop-color:#FFFFFF"/>
		<stop  offset="1" style="stop-color:#000000"/>
	</radialGradient>
	<path opacity="8.000000e-002" fill="url(#SVGBACKID_12_)" d="M122,263.2c0,0-4.6-27.5-2-29.4c2.6-2,1.3,7.8,8.5,9.8
		c7.2,2,22.2,1.3,22.2,1.3l-22.9,20.3L122,263.2z"/>
	<radialGradient id="SVGBACKID_13_" cx="274.5327" cy="56.0362" r="92.0067" gradientUnits="userSpaceOnUse">
		<stop  offset="0" style="stop-color:#FFFFFF"/>
		<stop  offset="1" style="stop-color:#000000"/>
	</radialGradient>
	<path opacity="8.000000e-002" fill="url(#SVGBACKID_13_)" d="M257.3,74.3c0,0,37.9-2.6,50.3-2.6c12.4,0,45.8,3.3,45.8,3.3L257.3,74.3z"
		/>
	<radialGradient id="SVGBACKID_14_" cx="273.0608" cy="68.3062" r="77.5852" gradientUnits="userSpaceOnUse">
		<stop  offset="0" style="stop-color:#FFFFFF"/>
		<stop  offset="1" style="stop-color:#000000"/>
	</radialGradient>
	<path opacity="8.000000e-002" fill="url(#SVGBACKID_14_)" d="M271,85.4c0,0,19.6-3.3,32.7-3.3c13.1,0,32.7,2,32.7,2s-19,2.6-34,3.3
		C287.4,88,271,85.4,271,85.4z"/>
	<radialGradient id="SVGBACKID_15_" cx="366.3039" cy="87.9356" r="87.399" gradientUnits="userSpaceOnUse">
		<stop  offset="0" style="stop-color:#FFFFFF"/>
		<stop  offset="1" style="stop-color:#000000"/>
	</radialGradient>
	<polygon opacity="8.000000e-002" fill="url(#SVGBACKID_15_)" points="397.2,103.7 440.2,138.7 441.4,132.6 	"/>
	<radialGradient id="SVGBACKID_16_" cx="422.2543" cy="132.595" r="100.3034" gradientUnits="userSpaceOnUse">
		<stop  offset="0" style="stop-color:#FFFFFF"/>
		<stop  offset="1" style="stop-color:#000000"/>
	</radialGradient>
	<path opacity="6.000000e-002" fill="url(#SVGBACKID_16_)" d="M440.4,146.8c0,0,25.5,30.7,25.5,39.9c0,9.2-5.2,32-5.2,34.6
		c0,2.6-7.8,13.1-7.8,13.1s3.3-21.6,1.3-29.4c-2-7.8-9.8-16.3-11.1-24.2C441.7,173,440.4,146.8,440.4,146.8z"/>
	<radialGradient id="SVGBACKID_17_" cx="408.0197" cy="141.4288" r="44.8748" gradientUnits="userSpaceOnUse">
		<stop  offset="0" style="stop-color:#FFFFFF"/>
		<stop  offset="1" style="stop-color:#000000"/>
	</radialGradient>
	<path opacity="0.1" fill="url(#SVGBACKID_17_)" d="M412.9,146.8c0,0,13.1,12.4,16.3,17c3.3,4.6,10.5,13.1,10.5,13.1s-9.2-19-13.7-22.9
		C421.4,150.1,412.9,146.8,412.9,146.8z"/>
	<radialGradient id="SVGBACKID_18_" cx="411.9468" cy="169.8924" r="34.6567" gradientUnits="userSpaceOnUse">
		<stop  offset="0" style="stop-color:#FFFFFF"/>
		<stop  offset="1" style="stop-color:#000000"/>
	</radialGradient>
	<polygon opacity="0.1" fill="url(#SVGBACKID_18_)" points="421.4,173 431.2,186.7 439.7,190.6 	"/>
	<radialGradient id="SVGBACKID_19_" cx="415.3774" cy="196.3942" r="37.1621" gradientUnits="userSpaceOnUse">
		<stop  offset="0" style="stop-color:#FFFFFF"/>
		<stop  offset="1" style="stop-color:#000000"/>
	</radialGradient>
	<path opacity="0.1" fill="url(#SVGBACKID_19_)" d="M433.2,195.9c0,0,9.8,9.8,8.5,13.7c-1.3,3.9-2.6,16.3-2.6,16.3s6.5-13.7,5.9-18.3
		C444.3,203,433.2,195.9,433.2,195.9z"/>
	<radialGradient id="SVGBACKID_20_" cx="370.2317" cy="187.0703" r="166.0326" gradientUnits="userSpaceOnUse">
		<stop  offset="0" style="stop-color:#FFFFFF"/>
		<stop  offset="1" style="stop-color:#000000"/>
	</radialGradient>
	<path opacity="0.1" fill="url(#SVGBACKID_20_)" d="M377.6,184.1c0,0,2,51.6,13.7,92.8c11.8,41.2,25.1,84.3,25.1,84.3
		c-2.6-51.8-2.2-49.2-1.6-63.4c0.7-14.4-15-56.2-20.9-71.9C388.1,210.2,377.6,184.1,377.6,184.1z"/>
	<radialGradient id="SVGBACKID_21_" cx="422.7419" cy="217.4965" r="121.7569" gradientUnits="userSpaceOnUse">
		<stop  offset="0" style="stop-color:#FFFFFF"/>
		<stop  offset="1" style="stop-color:#000000"/>
	</radialGradient>
	<path opacity="0.1" fill="url(#SVGBACKID_21_)" d="M402.5,190.6c0,0,11.1,77.1,13.1,96.1c2,19,3.9,48.4,3.9,48.4s11.8-49.7,11.1-56.9
		c-0.7-7.2,2-28.1,2-28.1s-1.3,24.2-7.8,16.3C418.1,258.6,402.5,190.6,402.5,190.6z"/>
	<radialGradient id="SVGBACKID_22_" cx="586.6564" cy="271.4796" r="78.4901" gradientUnits="userSpaceOnUse">
		<stop  offset="0" style="stop-color:#FFFFFF"/>
		<stop  offset="1" style="stop-color:#000000"/>
	</radialGradient>
	<path opacity="8.000000e-002" fill="url(#SVGBACKID_22_)" d="M497.2,267.8c0,0,20.9-9.2,28.1-11.8c7.2-2.6,10.5-3.3,20.3-2
		c9.8,1.3,38.6,4.6,35.3,8.5c-3.3,3.9-39.9-7.2-45.1-5.2C530.6,259.3,497.2,267.8,497.2,267.8z"/>
	<radialGradient id="SVGBACKID_23_" cx="548.8699" cy="257.2491" r="30.9958" gradientUnits="userSpaceOnUse">
		<stop  offset="0" style="stop-color:#FFFFFF"/>
		<stop  offset="1" style="stop-color:#000000"/>
	</radialGradient>
	<path opacity="8.000000e-002" fill="url(#SVGBACKID_23_)" d="M522.1,269.7l16.3,5.9l-0.7-7.2c0,0-4.6,1.3-5.2-2
		c-0.7-3.3,3.3-9.2,3.3-9.2L522.1,269.7z"/>
	<radialGradient id="SVGBACKID_24_" cx="510.5891" cy="260.1932" r="42.3369" gradientUnits="userSpaceOnUse">
		<stop  offset="0" style="stop-color:#FFFFFF"/>
		<stop  offset="1" style="stop-color:#000000"/>
	</radialGradient>
	<path opacity="8.000000e-002" fill="url(#SVGBACKID_24_)" d="M516.2,276.9c0,0,18.3,17,20.3,17C538.4,293.9,516.2,276.9,516.2,276.9z"
		/>
	<radialGradient id="SVGBACKID_25_" cx="573.4054" cy="295.0383" r="93.0979" gradientUnits="userSpaceOnUse">
		<stop  offset="0" style="stop-color:#FFFFFF"/>
		<stop  offset="1" style="stop-color:#000000"/>
	</radialGradient>
	<path opacity="0.1" fill="url(#SVGBACKID_25_)" d="M469.1,327.3l14.4,8.5c0,0,22.2,0.7,25.5-0.7c3.3-1.3,25.5-6.5,25.5-6.5L545,322
		l24.2-11.8l-3.9-2.6c0,0-28.1,17.7-33.3,19.6c-5.2,2-30.1,9.2-40.5,5.9C480.9,329.9,469.1,327.3,469.1,327.3z"/>
	<path opacity="0.2" fill="none" stroke="#808080" stroke-width="0.4908" d="M518.9,262.3c0,0-4.7,14-5.3,17.3
		c-0.7,3.3,1.3,13.1-0.7,16.3c-2,3.3-5.9,7.2-5.9,10.5c0,3.3-2.6,15-2.6,15l-4.6,12.4"/>
	<path opacity="0.2" fill="none" stroke="#808080" stroke-width="0.4908" d="M475.7,375.6c0,0,11.8-17,17.7-20.3
		c5.9-3.3,11.1-7.2,15.7-11.1c4.6-3.9,11-12,11-12"/>
	<radialGradient id="SVGBACKID_26_" cx="461.021" cy="325.4648" r="41.6489" gradientUnits="userSpaceOnUse">
		<stop  offset="0" style="stop-color:#FFFFFF"/>
		<stop  offset="1" style="stop-color:#000000"/>
	</radialGradient>
	<polygon opacity="8.000000e-002" fill="url(#SVGBACKID_26_)" points="467.2,338.4 496.3,353.6 491.2,356.8 	"/>
	<path opacity="8.000000e-002" fill="none" stroke="#808080" stroke-width="1.963" d="M484.5,384.3c0,0-9.3-7.5-14.1-16.5
		c-4-7.5-15.7-28.4-15.7-28.4"/>
	<radialGradient id="SVGBACKID_27_" cx="480.653" cy="297.9822" r="30.5687" gradientUnits="userSpaceOnUse">
		<stop  offset="0" style="stop-color:#FFFFFF"/>
		<stop  offset="1" style="stop-color:#000000"/>
	</radialGradient>
	<path opacity="0.1" fill="url(#SVGBACKID_27_)" d="M487.5,300.9c0,0,0.5,9.8,5.4,11.8c4.9,2,11.3,2.8,12.2,5.3l-0.7,3.4
		c0,0-4.6-3.8-7.6-4.8c-2.9-1-8.8-2.5-9.8-5.9C486.1,307.3,487.5,300.9,487.5,300.9z"/>
	<radialGradient id="SVGBACKID_28_" cx="465.9304" cy="307.7968" r="44.528" gradientUnits="userSpaceOnUse">
		<stop  offset="0" style="stop-color:#FFFFFF"/>
		<stop  offset="1" style="stop-color:#000000"/>
	</radialGradient>
	<path opacity="0.1" fill="url(#SVGBACKID_28_)" d="M477.6,315.1c0,0,9.2,1.3,12.9,6.4c3.7,5.2,9.4,12.3,9.4,12.3l1.5-3.9
		c0,0-5.9-8.3-11.3-11.8c-5.4-3.4-11.3-4.2-11.3-4.2L477.6,315.1z"/>
	<radialGradient id="SVGBACKID_29_" cx="502.2454" cy="287.1854" r="41.5173" gradientUnits="userSpaceOnUse">
		<stop  offset="0" style="stop-color:#FFFFFF"/>
		<stop  offset="1" style="stop-color:#000000"/>
	</radialGradient>
	<path opacity="8.000000e-002" fill="url(#SVGBACKID_29_)" d="M511.1,300.7c0,0,10.8,3.2,14.2,4.9c3.4,1.7,7.4,2,8.8,3.2
		c1.5,1.2,4.2,1.5,4.2,1.5s-6.6-6.4-9.3-7.9c-2.7-1.5-8.1-3.7-9.8-3.7C517.5,298.7,511.1,300.7,511.1,300.7z"/>
	<radialGradient id="SVGBACKID_30_" cx="510.0999" cy="365.707" r="31.5355" gradientUnits="userSpaceOnUse">
		<stop  offset="0" style="stop-color:#FFFFFF"/>
		<stop  offset="1" style="stop-color:#000000"/>
	</radialGradient>
	<path opacity="8.000000e-002" fill="url(#SVGBACKID_30_)" d="M491.2,356.8c0,0,2.2,4.8,4.2,5.7c2,1,9.1,3.9,10.8,5.9c1.7,2,2.7,2,2.7,2
		s-2.2-3.9-4.9-5.4c-2.7-1.5-7.1-4.4-7.1-6.1c0-1.7-0.6-5.2-0.6-5.2L491.2,356.8z"/>
	<radialGradient id="SVGBACKID_31_" cx="478.1993" cy="343.1312" r="29.5279" gradientUnits="userSpaceOnUse">
		<stop  offset="0" style="stop-color:#FFFFFF"/>
		<stop  offset="1" style="stop-color:#000000"/>
	</radialGradient>
	<path opacity="8.000000e-002" fill="url(#SVGBACKID_31_)" d="M462.7,343.6c0,0,16.7,22.3,18.2,23.1c1.5,0.7,25.3,5.4,25.3,5.4
		s-16-6.9-19.6-10.1C482.9,358.8,462.7,343.6,462.7,343.6z"/>
	<path opacity="0.12" fill="none" stroke="#808080" stroke-width="0.4908" d="M440.6,360.1c0,0,5.5,1.5,6.7-0.5
		c1.2-2,7.8-19.5,7.8-19.5"/>
	<path opacity="0.12" fill="none" stroke="#808080" stroke-width="0.4908" d="M440.5,361.8c0,0,6.8,1.5,8.1-0.5
		c1.2-2,7.9-19.1,7.9-19.1"/>
	<path opacity="0.12" fill="none" stroke="#808080" stroke-width="0.4908" d="M440.8,363.2c0,0,7.9,1.3,8.9-0.4
		c1-1.7,7.9-18.4,7.9-18.4"/>
	<path opacity="0.12" fill="none" stroke="#808080" stroke-width="0.4908" d="M441.6,364.5c0,0,8.2,1,8.9-0.2
		c0.7-1.2,8.1-17.2,8.1-17.2"/>
	<path opacity="0.12" fill="none" stroke="#808080" stroke-width="0.4908" d="M442.9,365.9c0,0,8,0.8,8.5-0.7
		c0.5-1.5,9.1-15.6,9.1-15.6"/>
	<path opacity="0.12" fill="none" stroke="#808080" stroke-width="0.4908" d="M444.9,368.1c0,0,4.7,0.3,6.7-2
		c2-2.3,10.6-13.1,10.6-13.1"/>
	<path opacity="0.12" fill="none" stroke="#808080" stroke-width="0.4908" d="M446.3,369.1c0,0,6.2-1.5,7.4-3
		c1.2-1.6,9.3-11.2,9.3-11.2"/>
	<path opacity="0.12" fill="none" stroke="#808080" stroke-width="0.4908" d="M448.3,370.8c0,0,7.1-4,8.2-5.5c1.1-1.5,8-7.4,8-7.4"
		/>
	<line opacity="0.12" fill="none" stroke="#808080" stroke-width="0.4908" x1="456.6" y1="383" x2="470.9" y2="368.5"/>
	<line opacity="0.12" fill="none" stroke="#808080" stroke-width="0.4908" x1="455.6" y1="381.5" x2="470.1" y2="366.5"/>
	<line opacity="0.12" fill="none" stroke="#808080" stroke-width="0.4908" x1="454.8" y1="379.2" x2="469.1" y2="364.8"/>
	<line opacity="0.12" fill="none" stroke="#808080" stroke-width="0.4908" x1="453.8" y1="377.6" x2="468.1" y2="363.2"/>
	<line opacity="0.12" fill="none" stroke="#808080" stroke-width="0.4908" x1="453.2" y1="375.5" x2="467.1" y2="361.7"/>
	<line opacity="0.12" fill="none" stroke="#808080" stroke-width="0.4908" x1="452.2" y1="373.3" x2="466.3" y2="360.3"/>
	<line opacity="0.12" fill="none" stroke="#808080" stroke-width="0.4908" x1="450.4" y1="371.8" x2="465.4" y2="359.2"/>
	<path opacity="8.000000e-002" fill="none" stroke="#808080" stroke-width="1.963" d="M440.3,359.3c0,0-0.6,2.5,0.1,4
		c1.9,4.5,7.6,6.2,11.5,10c3.2,3.1,3.5,8.8,5.1,11.5c1.6,2.7,17.3,10,17.3,10"/>
	<g>
		<line opacity="0.12" fill="none" stroke="#808080" stroke-width="0.4908" x1="161.5" y1="363" x2="172.8" y2="371.5"/>
		<line opacity="0.12" fill="none" stroke="#808080" stroke-width="0.4908" x1="160.7" y1="363.6" x2="172.1" y2="372.2"/>
		<line opacity="0.12" fill="none" stroke="#808080" stroke-width="0.4908" x1="159.8" y1="364.2" x2="171.2" y2="373.2"/>
		<line opacity="0.12" fill="none" stroke="#808080" stroke-width="0.4908" x1="159" y1="364.8" x2="170.5" y2="374.1"/>
		<line opacity="0.12" fill="none" stroke="#808080" stroke-width="0.4908" x1="158.2" y1="365.6" x2="169.9" y2="374.7"/>
		<line opacity="0.12" fill="none" stroke="#808080" stroke-width="0.4908" x1="157.4" y1="366.6" x2="169.3" y2="375.4"/>
		<line opacity="0.12" fill="none" stroke="#808080" stroke-width="0.4908" x1="156.8" y1="367.2" x2="169" y2="376.3"/>
		<line opacity="0.12" fill="none" stroke="#808080" stroke-width="0.4908" x1="168.5" y1="377" x2="155.7" y2="368.1"/>
		<line opacity="0.12" fill="none" stroke="#808080" stroke-width="0.4908" x1="168" y1="377.9" x2="154.9" y2="369.3"/>
		<line opacity="0.12" fill="none" stroke="#808080" stroke-width="0.4908" x1="167.5" y1="378.8" x2="153.9" y2="370.5"/>
		<line opacity="0.12" fill="none" stroke="#808080" stroke-width="0.4908" x1="153.4" y1="371.3" x2="166.8" y2="379.8"/>
		<line opacity="0.12" fill="none" stroke="#808080" stroke-width="0.4908" x1="166.3" y1="380.9" x2="152.5" y2="372.6"/>
		<line opacity="0.12" fill="none" stroke="#808080" stroke-width="0.4908" x1="165.5" y1="382" x2="151.8" y2="373.9"/>
		<line opacity="0.12" fill="none" stroke="#808080" stroke-width="0.4908" x1="164.6" y1="383.2" x2="151" y2="375"/>
		<line opacity="0.12" fill="none" stroke="#808080" stroke-width="0.4908" x1="163.8" y1="384.5" x2="150.2" y2="376.4"/>
		<line opacity="0.12" fill="none" stroke="#808080" stroke-width="0.4908" x1="149.3" y1="377.7" x2="162.9" y2="385.9"/>
		<line opacity="0.12" fill="none" stroke="#808080" stroke-width="0.4908" x1="148.6" y1="378.9" x2="162.3" y2="387.4"/>
		<line opacity="0.12" fill="none" stroke="#808080" stroke-width="0.4908" x1="147.7" y1="380.2" x2="161.4" y2="389.1"/>
		<line opacity="0.12" fill="none" stroke="#808080" stroke-width="0.4908" x1="146.8" y1="381.5" x2="160.5" y2="390.7"/>
		<line opacity="0.12" fill="none" stroke="#808080" stroke-width="0.4908" x1="146.1" y1="382.7" x2="159.7" y2="392.4"/>
		<path opacity="0.12" fill="none" stroke="#808080" stroke-width="0.4908" d="M130.8,401.3c0,0,5,5.5,6.5,6.4
			c1.4,0.9,6.5,3.6,6.5,3.6"/>
		<path opacity="0.12" fill="none" stroke="#808080" stroke-width="0.4908" d="M131.7,400.1c0,0,4.9,5.8,6.2,6.7
			c1.3,0.9,6.9,3.3,6.9,3.3"/>
		<path opacity="0.12" fill="none" stroke="#808080" stroke-width="0.4908" d="M132.8,399c0,0,4.4,5.6,6.8,7c2.4,1.4,6.5,3,6.5,3"/>
		<path opacity="0.12" fill="none" stroke="#808080" stroke-width="0.4908" d="M133.9,397.6c0,0,3.5,5.5,5.7,6.9
			c2.2,1.5,7.4,3.5,7.4,3.5"/>
		<path opacity="0.12" fill="none" stroke="#808080" stroke-width="0.4908" d="M134.9,396.5c0,0,3.6,5.3,6.1,7.2
			c2.5,1.8,7.4,3.3,7.4,3.3"/>
		<path opacity="0.12" fill="none" stroke="#808080" stroke-width="0.4908" d="M135.9,395.4c0,0,4.4,5.8,6.6,7.4
			c2.2,1.6,7.1,3.1,7.1,3.1"/>
		<line opacity="0.12" fill="none" stroke="#808080" stroke-width="0.4908" x1="145.4" y1="384" x2="158.9" y2="394"/>
		<path opacity="0.12" fill="none" stroke="#808080" stroke-width="0.4908" d="M137,394.2c0,0,3.6,5.2,6,6.8
			c2.4,1.6,7.7,3.7,7.7,3.7"/>
		<path opacity="0.12" fill="none" stroke="#808080" stroke-width="0.4908" d="M138.1,392.9c0,0,3.2,4.5,6.7,6.7
			c3.5,2.2,7.4,3.5,7.4,3.5"/>
		<path opacity="0.12" fill="none" stroke="#808080" stroke-width="0.4908" d="M139,391.7c0,0,4.3,4.3,6.2,5.6
			c2,1.3,7.9,4.8,7.9,4.8"/>
		<path opacity="0.12" fill="none" stroke="#808080" stroke-width="0.4908" d="M140.2,390.3c0,0,4.5,4.4,6.7,5.8
			c2.1,1.4,7.2,4.8,7.2,4.8"/>
		<line opacity="0.12" fill="none" stroke="#808080" stroke-width="0.4908" x1="141.3" y1="389.1" x2="155.1" y2="399.8"/>
		<line opacity="0.12" fill="none" stroke="#808080" stroke-width="0.4908" x1="142.3" y1="387.9" x2="156" y2="398.7"/>
		<line opacity="0.12" fill="none" stroke="#808080" stroke-width="0.4908" x1="143.6" y1="386.5" x2="157.1" y2="397.1"/>
		<line opacity="0.12" fill="none" stroke="#808080" stroke-width="0.4908" x1="144.4" y1="385.1" x2="158" y2="395.7"/>
	</g>
	<line opacity="0.12" fill="none" stroke="#808080" stroke-width="0.4908" x1="471.8" y1="369.7" x2="457.4" y2="385.4"/>
	<line opacity="0.12" fill="none" stroke="#808080" stroke-width="0.4908" x1="459.5" y1="386.7" x2="472.8" y2="371.5"/>
	<line opacity="0.12" fill="none" stroke="#808080" stroke-width="0.4908" x1="461.2" y1="387.9" x2="474.1" y2="373.5"/>
	<line opacity="0.12" fill="none" stroke="#808080" stroke-width="0.4908" x1="463.1" y1="389.1" x2="475.6" y2="375.3"/>
	<line opacity="0.12" fill="none" stroke="#808080" stroke-width="0.4908" x1="465.3" y1="390" x2="477.1" y2="376.8"/>
	<line opacity="0.12" fill="none" stroke="#808080" stroke-width="0.4908" x1="466.9" y1="391" x2="478.4" y2="378.6"/>
	<line opacity="0.12" fill="none" stroke="#808080" stroke-width="0.4908" x1="469" y1="392" x2="480" y2="380.2"/>
	<line opacity="0.12" fill="none" stroke="#808080" stroke-width="0.4908" x1="470.7" y1="392.9" x2="481.3" y2="381.4"/>
	<line opacity="0.12" fill="none" stroke="#808080" stroke-width="0.4908" x1="472.7" y1="393.9" x2="482.8" y2="382.8"/>
	<radialGradient id="SVGBACKID_32_" cx="207.7917" cy="179.7075" r="149.9651" gradientUnits="userSpaceOnUse">
		<stop  offset="0" style="stop-color:#FFFFFF"/>
		<stop  offset="1" style="stop-color:#000000"/>
	</radialGradient>
	<path opacity="5.000000e-002" fill="url(#SVGBACKID_32_)" d="M229.2,183.5c3.3,2.6-5.2,121.7-9.8,133.5c-4.6,11.8-9.2,11.1-9.8,7.2
		c-0.7-3.9,5.9-128.9,9.8-134.8C223.3,183.5,229.2,183.5,229.2,183.5z"/>
	<radialGradient id="SVGBACKID_33_" cx="256.8659" cy="184.125" r="205.947" gradientUnits="userSpaceOnUse">
		<stop  offset="0" style="stop-color:#FFFFFF"/>
		<stop  offset="1" style="stop-color:#000000"/>
	</radialGradient>
	<path opacity="3.000000e-002" fill="url(#SVGBACKID_33_)" d="M259.3,167.1c0,0,60.9,214.6,64.8,214.6c3.9,0,2-26.2,0-34.7
		C322.1,338.6,259.3,167.1,259.3,167.1z"/>
	<radialGradient id="SVGBACKID_34_" cx="219.0778" cy="391.7169" r="32.0459" gradientUnits="userSpaceOnUse">
		<stop  offset="0" style="stop-color:#FFFFFF"/>
		<stop  offset="1" style="stop-color:#000000"/>
	</radialGradient>
	<path opacity="3.000000e-002" fill="url(#SVGBACKID_34_)" d="M213.5,371.9c2.6,0.7,28.8,22.2,28.8,26.2c0,3.9-12.4-5.2-15.7-8.5
		C223.3,386.3,213.5,371.9,213.5,371.9z"/>
	<radialGradient id="SVGBACKID_35_" cx="224.4766" cy="384.3553" r="30.6368" gradientUnits="userSpaceOnUse">
		<stop  offset="0" style="stop-color:#FFFFFF"/>
		<stop  offset="1" style="stop-color:#000000"/>
	</radialGradient>
	<path opacity="3.000000e-002" fill="url(#SVGBACKID_35_)" d="M215.5,383c0,0-7.2,5.2-5.2,9.2c2,3.9,24.2,7.9,24.2,7.9
		s-7.2-3.3-12.4-9.8C216.8,383.7,215.5,383,215.5,383z"/>
	<radialGradient id="SVGBACKID_36_" cx="226.9299" cy="398.0965" r="37.5678" gradientUnits="userSpaceOnUse">
		<stop  offset="0" style="stop-color:#FFFFFF"/>
		<stop  offset="1" style="stop-color:#000000"/>
	</radialGradient>
	<path opacity="3.000000e-002" fill="url(#SVGBACKID_36_)" d="M220.7,405.9c0,0,17.7,10.5,22.2,12.4c4.6,2,9.2,2,9.2,2s0.7,6.5-7.2,4.6
		C237.1,423,220.7,405.9,220.7,405.9z"/>
	<radialGradient id="SVGBACKID_37_" cx="242.6344" cy="445.2099" r="42.5405" gradientUnits="userSpaceOnUse">
		<stop  offset="0" style="stop-color:#FFFFFF"/>
		<stop  offset="1" style="stop-color:#000000"/>
	</radialGradient>
	<path opacity="3.000000e-002" fill="url(#SVGBACKID_37_)" d="M236.4,440.6c0,0,7.9-5.9,17.7-5.2c9.8,0.7,20.3,5.9,20.3,5.9L236.4,440.6
		z"/>
	<radialGradient id="SVGBACKID_38_" cx="271.5891" cy="457.4787" r="35.5546" gradientUnits="userSpaceOnUse">
		<stop  offset="0" style="stop-color:#FFFFFF"/>
		<stop  offset="1" style="stop-color:#000000"/>
	</radialGradient>
	<path opacity="3.000000e-002" fill="url(#SVGBACKID_38_)" d="M269.1,467.5c0,0,32.1-3.3,35.3,0c3.3,3.3-9.8,3.9-15.7,3.9
		C282.9,471.4,269.1,467.5,269.1,467.5z"/>
	<radialGradient id="SVGBACKID_39_" cx="203.8652" cy="149.7712" r="46.6878" gradientUnits="userSpaceOnUse">
		<stop  offset="0" style="stop-color:#FFFFFF"/>
		<stop  offset="1" style="stop-color:#000000"/>
	</radialGradient>
	<path opacity="8.000000e-002" fill="url(#SVGBACKID_39_)" d="M175.4,188.2c0,0,12.6-17.2,14.6-15.9c2,1.3-15.1,20.8-15.1,20.8
		L175.4,188.2z"/>
	<radialGradient id="SVGBACKID_40_" cx="198.4665" cy="176.7644" r="60.1607" gradientUnits="userSpaceOnUse">
		<stop  offset="0" style="stop-color:#FFFFFF"/>
		<stop  offset="1" style="stop-color:#000000"/>
	</radialGradient>
	<path opacity="6.000000e-002" fill="url(#SVGBACKID_40_)" d="M176.9,203.1c0,0,11.1-15.7,12.4-13.7c1.3,2-9.2,19-9.2,23.6
		c0,4.6,0.7,28.8,0.7,28.8s-2-5.2-5.2-7.2c-3.3-2-4.6-10.5-3.9-17.7C172.3,209.6,176.9,203.1,176.9,203.1z"/>
	<radialGradient id="SVGBACKID_41_" cx="453.6618" cy="198.3569" r="27.6397" gradientUnits="userSpaceOnUse">
		<stop  offset="0" style="stop-color:#FFFFFF"/>
		<stop  offset="1" style="stop-color:#000000"/>
	</radialGradient>
	<path opacity="0.1" fill="url(#SVGBACKID_41_)" d="M448.4,228.6c0,0,3.9-5.9,3.9-10.5c0-4.6,0-9.2,0-9.2s-4.6,10.5-7.2,13.1
		c-2.6,2.6-6.1,3.9-6.1,3.9L448.4,228.6z"/>
	<radialGradient id="SVGBACKID_42_" cx="544.4515" cy="194.9215" r="118.0331" gradientUnits="userSpaceOnUse">
		<stop  offset="0" style="stop-color:#FFFFFF"/>
		<stop  offset="1" style="stop-color:#000000"/>
	</radialGradient>
	<path opacity="8.000000e-002" fill="url(#SVGBACKID_42_)" d="M441.2,132.4c0,0,33.4,29.4,37.3,34.7c3.9,5.2,22.2,17.7,23.6,19.6
		c1.3,2,32.1,19,32.1,19s-30.8-26.2-50.4-43.2c-19.6-17-40.6-37.3-40.6-37.3L441.2,132.4z"/>
	<path opacity="0.2" fill="none" stroke="#808080" stroke-width="0.4908" d="M108.8,388.9c0,0-17-11.1-17.7-14.4
		c-0.7-3.3-2-12.4-4.6-17c-2.6-4.6-12.4-25.5-13.1-31.4c-0.7-5.9,2.4-17.7,1.1-23"/>
	<path opacity="0.2" fill="none" stroke="#808080" stroke-width="0.4908" d="M114.1,379.8c0,0,2.6-19,2-21.6
		c-0.7-2.6-12.4-22.2-15.1-31.4c-2.6-9.2-5.6-26.8-7.5-29.4"/>
	<path opacity="0.1" fill="none" stroke="#808080" stroke-width="0.4908" d="M150.6,106.7l15.9,25.8l10.5,15c0,0,0.6,26.3-0.7,33.5
		c-1.3,7.2-2.7,30.2-4.6,36c-1.9,5.8-4.6,24.7-4.6,24.7"/>
	<path opacity="0.1" fill="none" stroke="#808080" stroke-width="0.4908" d="M453.2,107.8c0,0-8.1,10.3-10.1,17.5
		c-2,7.2-6.5,28.8-4.6,32.7c2,3.9,12.4,39.9,11.1,47.8c-1.3,7.9-8.5,19-8.5,19"/>
	<path fill="#A5A5A5" d="M174.3,509.1c0-3.2,5.6-22.6,5.6-22.6s-0.8-27.4,0.8-30.6c1.6-3.2,5.6-19.3,5.6-21.7
		c0-2.4,2.4-17.7,2.4-20.9c0-3.2,8.9-30.6,8.9-34.6c0-4-1.6-9.7-3.2-12.9c-1.6-3.2-13.7-45.9-14.5-48.3c-0.8-2.4-12.1-54.8-12.1-58
		c0-3.2-0.8-17.7-0.8-17.7l2.4-3.5c0,0,9.3,9.3,9.8,12.8c0.5,3.4,0.5,32.4,4.4,43.2c3.9,10.8,13.7,21.6,14.7,24.5
		c1,2.9,6.4,11.8,6.4,15.7s-1.5,14.7,0,19.6c1.5,4.9,2.9,20.6,1,28.5c-2,7.9-9.8,43.2-12.3,55.9c-2.5,12.8-6.9,33.9-6.9,38.8
		c0,4.9-3.9,11.3-4.4,15.7c-0.5,4.4-1,26-1,26L174.3,509.1z"/>
	<path fill="#A5A5A5" d="M422.3,381.1c0-5.6,0-18.5,0.8-23.4c0.8-4.8,4.8-33,6.4-37.9c1.6-4.8,5.6-66.9,5.6-70.9c0,0-9,64-11,71.2
		c-2,7.2-8.5,32.7-8.5,34.7c0,2,0.9,7.3,0.9,7.3L422.3,381.1z"/>
	<radialGradient id="SVGBACKID_43_" cx="272.0799" cy="29.0449" r="60.3954" gradientUnits="userSpaceOnUse">
		<stop  offset="0" style="stop-color:#FFFFFF"/>
		<stop  offset="1" style="stop-color:#000000"/>
	</radialGradient>
	<path opacity="6.000000e-002" fill="url(#SVGBACKID_43_)" d="M284.2,29l14.4,11.8c0,0-3.9,3.3-5.9,5.2c-2,2-8.5,7.9-8.5,7.9
		s21.6-4.6,23.6-6.5c2-2,1.3-10.5-1.3-11.1C303.8,35.6,284.2,29,284.2,29z"/>
	<radialGradient id="SVGBACKID_44_" cx="343.2411" cy="23.1552" r="48.7448" gradientUnits="userSpaceOnUse">
		<stop  offset="0" style="stop-color:#FFFFFF"/>
		<stop  offset="1" style="stop-color:#000000"/>
	</radialGradient>
	<path opacity="6.000000e-002" fill="url(#SVGBACKID_44_)" d="M313,42.8c0,0,23.6-8.5,24.2-10.5c0.7-2,3.8-2.5,3.8-2.5
		s0.8,12.3,2.1,14.9c1.3,2.6-2.6,7.2-5.2,6.5C335.2,50.6,313,42.8,313,42.8z"/>
	<path opacity="0.15" fill="none" stroke="#808080" stroke-width="0.4908" stroke-dasharray="2.7875,1.0012" d="M174.9,502.6
		c0,0,23.1,17.2,40.7,21.1c17.7,3.9,62.8,9.8,97.7,8.8c34.8-1,83.4-7.4,90.3-7.9c6.9-0.5,20.6-7.4,29.4-13.7
		c8.8-6.4,12.7-10,12.7-10"/>
	<path opacity="0.15" fill="none" stroke="#808080" stroke-width="0.4908" stroke-dasharray="2.7875,1.0012" d="M445.8,506.1
		c0,0-10.8,10.3-13.7,12.8c-2.9,2.5-20.6,10.3-46.6,12.8c-26,2.5-113.9,4.9-142.3,1c-28.5-3.9-48.6-10.8-55.5-15.2
		c-6.9-4.4-13.3-8.3-13.3-8.3"/>
	<g>
		<path opacity="0.18" fill="none" stroke="#D7D8D7" stroke-width="0.8088" d="M236.9,1119.1c0,0-3.5,6.4-21.3,9.2
			c-17.7,2.8-33.3,5-36.2,5.7c-2.8,0.7-9.2,2.1-9.2,2.1l-6.7-2.4"/>
		<path opacity="0.5" fill="none" stroke="#AFB1AF" stroke-width="0.8088" d="M175.8,549.9c0,0,61.6,5.2,81.4,3.8
			c19.9-1.4,111.5-1.9,134.9-2.6c23.4-0.7,58.9-2.1,58.9-2.1"/>
		<path opacity="0.5" fill="none" stroke="#AFB1AF" stroke-width="0.8088" d="M174.4,541.2c0,0,102.2,6.4,150.4,5
			c48.2-1.4,125.5-4.3,125.5-4.3"/>
		<path opacity="0.18" fill="none" stroke="#AFB1AF" stroke-width="0.8088" d="M164.8,1139c0,0,7.6,2.8,10.4,1.3
			c2.8-1.4,12.8-5,15.6-5c2.8,0,29.1-2.8,34-5c5-2.1,11.3-5.7,11.3-5.7"/>
		<g opacity="0.18">
			<radialGradient id="SVGBACKID_45_" cx="422.0826" cy="596.3698" r="63.0795" gradientUnits="userSpaceOnUse">
				<stop  offset="0" style="stop-color:#FFFFFF"/>
				<stop  offset="1" style="stop-color:#000000"/>
			</radialGradient>
			<path opacity="0.35" fill="url(#SVGBACKID_45_)" d="M426.9,606.5c0,0,16.3,39,19.1,36.2c2.8-2.8,7.1-25.5,5.7-28.4
				c-1.4-2.8-14.2-12.8-14.2-12.8L426.9,606.5z"/>
			<radialGradient id="SVGBACKID_46_" cx="415.4791" cy="602.9752" r="119.1214" gradientUnits="userSpaceOnUse">
				<stop  offset="0" style="stop-color:#FFFFFF"/>
				<stop  offset="1" style="stop-color:#000000"/>
			</radialGradient>
			<path opacity="0.35" fill="url(#SVGBACKID_46_)" d="M422.6,612.9c0,0-22,93.6-17,103.5c5,9.9,23.4-70.2,22-85.1
				C426.2,616.4,422.6,612.9,422.6,612.9z"/>
			<radialGradient id="SVGBACKID_47_" cx="381.729" cy="602.9727" r="179.0304" gradientUnits="userSpaceOnUse">
				<stop  offset="0" style="stop-color:#FFFFFF"/>
				<stop  offset="1" style="stop-color:#000000"/>
			</radialGradient>
			<path opacity="0.35" fill="url(#SVGBACKID_47_)" d="M397.8,606.5c0,0-17,31.9-22,52.5c-5,20.6-14.9,76.6-13.5,85.8
				c1.4,9.2-0.7,39.7-1.4,42.5c-0.7,2.8,35.5-122,35.5-136.1C396.4,637,397.8,606.5,397.8,606.5z"/>
			<radialGradient id="SVGBACKID_48_" cx="331.8442" cy="611.7778" r="98.8856" gradientUnits="userSpaceOnUse">
				<stop  offset="0" style="stop-color:#FFFFFF"/>
				<stop  offset="1" style="stop-color:#000000"/>
			</radialGradient>
			<path opacity="0.35" fill="url(#SVGBACKID_48_)" d="M366.6,617.8c0,0-31.2,33.3-31.9,44c-0.7,10.6-2.1,24.1-2.1,24.1
				s31.9-23.4,33.3-27.7c1.4-4.3,14.2-51.1,14.2-51.1L366.6,617.8z"/>
			<radialGradient id="SVGBACKID_49_" cx="461.6939" cy="659.4655" r="215.8633" gradientUnits="userSpaceOnUse">
				<stop  offset="0" style="stop-color:#FFFFFF"/>
				<stop  offset="1" style="stop-color:#000000"/>
			</radialGradient>
			<path opacity="0.35" fill="url(#SVGBACKID_49_)" d="M452.4,651.9c0,0-19.9,72.3-21.3,81.5c-1.4,9.2-12.1,45.4-11.3,51.1
				c0.7,5.7-11.3,38.3-16.3,48.9c-5,10.6-7.1,18.4-7.1,18.4s28.4-35.5,34-49.6c5.7-14.2,14.9-36.2,14.9-44
				c0-7.8,13.5-44.7,12.1-53.2C456,696.5,452.4,651.9,452.4,651.9z"/>
			<radialGradient id="SVGBACKID_50_" cx="468.2985" cy="772.4451" r="124.9579" gradientUnits="userSpaceOnUse">
				<stop  offset="0" style="stop-color:#FFFFFF"/>
				<stop  offset="1" style="stop-color:#000000"/>
			</radialGradient>
			<path opacity="0.35" fill="url(#SVGBACKID_50_)" d="M459.5,751.8c0,0-19.9,112.7-17,115.6c2.8,2.8,22.7-42.5,20.6-46.1
				c-2.1-3.5-7.1-19.1-7.1-19.1L459.5,751.8z"/>
			<radialGradient id="SVGBACKID_51_" cx="330.3738" cy="752.6334" r="67.3401" gradientUnits="userSpaceOnUse">
				<stop  offset="0" style="stop-color:#FFFFFF"/>
				<stop  offset="1" style="stop-color:#000000"/>
			</radialGradient>
			<path opacity="0.35" fill="url(#SVGBACKID_51_)" d="M334,750.4c0,0,23.4,64.5,21.3,68.8c-2.1,4.3-19.1-44-19.9-46.8
				C334.7,769.6,334,750.4,334,750.4z"/>
			<radialGradient id="SVGBACKID_52_" cx="336.9779" cy="829.6652" r="91.7744" gradientUnits="userSpaceOnUse">
				<stop  offset="0" style="stop-color:#FFFFFF"/>
				<stop  offset="1" style="stop-color:#000000"/>
			</radialGradient>
			<path opacity="0.35" fill="url(#SVGBACKID_52_)" d="M342.5,800.8c0,0,17,37.6,18.4,41.1c1.4,3.5,0.7,18.4,1.4,24.8
				c0.7,6.4,3.5,38.3,3.5,40.4c0,2.1-15.6-52.5-17-62.4C347.5,834.8,342.5,800.8,342.5,800.8z"/>
			<radialGradient id="SVGBACKID_53_" cx="404.5481" cy="1039.9805" r="41.8427" gradientUnits="userSpaceOnUse">
				<stop  offset="0" style="stop-color:#FFFFFF"/>
				<stop  offset="1" style="stop-color:#000000"/>
			</radialGradient>
			<path opacity="0.35" fill="url(#SVGBACKID_53_)" d="M396.4,1030.5c0,0,9.2-3.5,14.2,0c5,3.5,15.6,7.8,15.6,7.8s-5.7-14.2-17-17
				C397.8,1018.4,396.4,1030.5,396.4,1030.5z"/>
			<radialGradient id="SVGBACKID_54_" cx="469.6867" cy="1026.951" r="42.4265" gradientUnits="userSpaceOnUse">
				<stop  offset="0" style="stop-color:#FFFFFF"/>
				<stop  offset="1" style="stop-color:#000000"/>
			</radialGradient>
			<path opacity="0.35" fill="url(#SVGBACKID_54_)" d="M438.9,1037.6c0-3.5,23.4-26.9,26.9-26.2c3.5,0.7-3.5,10.6-3.5,14.2
				c0,3.5-7.1,3.5-9.2,6.4C451,1034.8,438.9,1037.6,438.9,1037.6z"/>
			<radialGradient id="SVGBACKID_55_" cx="427.8896" cy="1054.0942" r="31.4758" gradientUnits="userSpaceOnUse">
				<stop  offset="0" style="stop-color:#FFFFFF"/>
				<stop  offset="1" style="stop-color:#000000"/>
			</radialGradient>
			<path opacity="0.35" fill="url(#SVGBACKID_55_)" d="M408.4,1052.5c0,0,14.9-5,19.9-5.7c5-0.7,9.2,1.4,13.5,2.8
				c4.3,1.4,13.5,1.4,13.5,1.4s-14.2-7.8-19.9-7.8c-5.7,0-22,1.4-24.8,3.5C407.7,1048.9,408.4,1052.5,408.4,1052.5z"/>
			<radialGradient id="SVGBACKID_56_" cx="393.6887" cy="1036.1807" r="28.6456" gradientUnits="userSpaceOnUse">
				<stop  offset="0" style="stop-color:#FFFFFF"/>
				<stop  offset="1" style="stop-color:#000000"/>
			</radialGradient>
			<path opacity="0.35" fill="url(#SVGBACKID_56_)" d="M395,1040.4c0,0,7.1,2.1,7.1,7.1c0,5,1.4,17.7,1.4,17.7s-4.3,2.1-5.7-0.7
				c-1.4-2.8,2.1-10.6,2.1-10.6L395,1040.4z"/>
			<radialGradient id="SVGBACKID_57_" cx="456.1139" cy="1041.6067" r="47.8828" gradientUnits="userSpaceOnUse">
				<stop  offset="0" style="stop-color:#FFFFFF"/>
				<stop  offset="1" style="stop-color:#000000"/>
			</radialGradient>
			<path opacity="0.35" fill="url(#SVGBACKID_57_)" d="M417,1075.2c2.1,2.1,12.1,2.8,19.1,1.4c7.1-1.4,14.9-9.2,18.4-14.2
				c3.5-5,6.4-12.1,6.4-12.1s-11.3,12.8-22.7,18.4C426.9,1074.5,417,1075.2,417,1075.2z"/>
			<radialGradient id="SVGBACKID_58_" cx="451.7751" cy="1063.3209" r="28.3097" gradientUnits="userSpaceOnUse">
				<stop  offset="0" style="stop-color:#FFFFFF"/>
				<stop  offset="1" style="stop-color:#000000"/>
			</radialGradient>
			<path opacity="0.35" fill="url(#SVGBACKID_58_)" d="M441.8,1090.1c2.1,0,17-9.2,17-9.2l-1.4-12.1h-3.5L441.8,1090.1z"/>
			<radialGradient id="SVGBACKID_59_" cx="402.9212" cy="1083.4059" r="61.07" gradientUnits="userSpaceOnUse">
				<stop  offset="0" style="stop-color:#FFFFFF"/>
				<stop  offset="1" style="stop-color:#000000"/>
			</radialGradient>
			<path opacity="0.35" fill="url(#SVGBACKID_59_)" d="M397.8,1097.9c0,0-5.7-9.2-3.5-9.2c2.1,0,19.1,11.3,25.5,10.6
				c6.4-0.7,44-5,46.1-7.1c2.1-2.1,0.7,5,0.7,5s-29.8,9.9-34,8.5c-4.3-1.4-28.4-11.3-32.6-10.6
				C395.7,1095.7,397.8,1097.9,397.8,1097.9z"/>
			<radialGradient id="SVGBACKID_60_" cx="196.1201" cy="602.9741" r="120.6119" gradientUnits="userSpaceOnUse">
				<stop  offset="0" style="stop-color:#FFFFFF"/>
				<stop  offset="1" style="stop-color:#000000"/>
			</radialGradient>
			<path opacity="0.35" fill="url(#SVGBACKID_60_)" d="M218.4,618.5c0,0-0.7,14.2,1.4,23.4c2.1,9.2,8.5,21.3,8.5,21.3s2.8-34,0.7-37.6
				C226.9,622.1,218.4,618.5,218.4,618.5z"/>
			<radialGradient id="SVGBACKID_61_" cx="209.3269" cy="751.9019" r="142.0769" gradientUnits="userSpaceOnUse">
				<stop  offset="0" style="stop-color:#FFFFFF"/>
				<stop  offset="1" style="stop-color:#000000"/>
			</radialGradient>
			<path opacity="0.35" fill="url(#SVGBACKID_61_)" d="M166,700.1c0,0,26.9,125.5,34,139c7.1,13.5,22,17,24.8,17.7
				c2.8,0.7,16.3-7.1,13.5-9.2c-2.8-2.1-18.4,0-22.7-9.2c-4.3-9.2-23.4-78.7-24.8-83.7C189.4,749.7,166,700.1,166,700.1z"/>
			<radialGradient id="SVGBACKID_62_" cx="155.7724" cy="804.7208" r="133.041" gradientUnits="userSpaceOnUse">
				<stop  offset="0" style="stop-color:#FFFFFF"/>
				<stop  offset="1" style="stop-color:#000000"/>
			</radialGradient>
			<path opacity="0.35" fill="url(#SVGBACKID_62_)" d="M170.1,778.1c0,0,31.3,116.9,25.6,119.1c-5.7,2.1-17,5-18.4-1.4
				c-1.4-6.4-8.5-43.3-8.5-43.3L170.1,778.1z"/>
			<radialGradient id="SVGBACKID_63_" cx="192.8421" cy="1025.3199" r="43.1439" gradientUnits="userSpaceOnUse">
				<stop  offset="0" style="stop-color:#FFFFFF"/>
				<stop  offset="1" style="stop-color:#000000"/>
			</radialGradient>
			<path opacity="0.35" fill="url(#SVGBACKID_63_)" d="M166,1015.6c0,0,26.9,21.3,29.1,25.5c2.1,4.3,9.9,11.3,14.2,15.6
				c4.3,4.3,19.9,7.8,19.9,7.8s-17,5-34-12.8C178,1034,166,1015.6,166,1015.6z"/>
			<radialGradient id="SVGBACKID_64_" cx="174.3852" cy="1015.0084" r="75.8438" gradientUnits="userSpaceOnUse">
				<stop  offset="0" style="stop-color:#FFFFFF"/>
				<stop  offset="1" style="stop-color:#000000"/>
			</radialGradient>
			<path opacity="0.35" fill="url(#SVGBACKID_64_)" d="M158.9,1012.8c0,0,16.3,36.9,19.1,41.1c2.8,4.3,28.4,20.6,37.6,19.9
				c9.2-0.7,13.5-5,13.5-5s-24.1,0.7-36.9-12.8C179.4,1042.6,158.9,1012.8,158.9,1012.8z"/>
			<radialGradient id="SVGBACKID_65_" cx="217.2689" cy="1073.0924" r="20.9555" gradientUnits="userSpaceOnUse">
				<stop  offset="0" style="stop-color:#FFFFFF"/>
				<stop  offset="1" style="stop-color:#000000"/>
			</radialGradient>
			<path opacity="0.35" fill="url(#SVGBACKID_65_)" d="M239,1083c0,0-22.7-7.1-24.8-5c-2.1,2.1,5,6.4,8.5,6.4
				C226.2,1084.4,239,1083,239,1083z"/>
			<radialGradient id="SVGBACKID_66_" cx="182.5278" cy="1058.9801" r="53.3864" gradientUnits="userSpaceOnUse">
				<stop  offset="0" style="stop-color:#FFFFFF"/>
				<stop  offset="1" style="stop-color:#000000"/>
			</radialGradient>
			<path opacity="0.35" fill="url(#SVGBACKID_66_)" d="M174.5,1070.2c0,0,5-6.4,16.3,0.7c11.3,7.1,27.7,19.9,32.6,20.6
				c5,0.7,15.6-1.4,15.6-1.4s0.7,4.3-3.5,5c-4.3,0.7-29.1-7.1-34.7-9.2C195,1083.7,174.5,1070.2,174.5,1070.2z"/>
			<radialGradient id="SVGBACKID_67_" cx="213.4691" cy="1114.8906" r="24.0946" gradientUnits="userSpaceOnUse">
				<stop  offset="0" style="stop-color:#FFFFFF"/>
				<stop  offset="1" style="stop-color:#000000"/>
			</radialGradient>
			<path opacity="0.35" fill="url(#SVGBACKID_67_)" d="M209.2,1103.5c0,2.1-2.8,5.7-7.8,6.4c-5,0.7-14.2,0-17,2.1
				c-2.8,2.1-12.8,4.3-12.8,4.3s14.9-7.8,17-8.5C190.8,1107.1,209.2,1103.5,209.2,1103.5z"/>
			<radialGradient id="SVGBACKID_68_" cx="173.8422" cy="1094.2631" r="38.7725" gradientUnits="userSpaceOnUse">
				<stop  offset="0" style="stop-color:#FFFFFF"/>
				<stop  offset="1" style="stop-color:#000000"/>
			</radialGradient>
			<path opacity="0.35" fill="url(#SVGBACKID_68_)" d="M183,1090.8c0,0-4.3,9.9-7.1,13.5c-2.8,3.5-8.5,8.5-4.3,7.8
				c4.3-0.7,17-4.3,17-4.3s2.8-4.3,2.8-7.1C191.5,1097.9,183,1090.8,183,1090.8z"/>
			<radialGradient id="SVGBACKID_69_" cx="161.899" cy="1067.1188" r="29.6546" gradientUnits="userSpaceOnUse">
				<stop  offset="0" style="stop-color:#FFFFFF"/>
				<stop  offset="1" style="stop-color:#000000"/>
			</radialGradient>
			<path opacity="0.35" fill="url(#SVGBACKID_69_)" d="M157.4,1094.3l16.3-12.1c0,0,0-9.2-3.5-8.5c-3.5,0.7-2.1,7.8-2.1,7.8
				L157.4,1094.3z"/>
			<radialGradient id="SVGBACKID_70_" cx="215.6406" cy="1095.889" r="33.3316" gradientUnits="userSpaceOnUse">
				<stop  offset="0" style="stop-color:#FFFFFF"/>
				<stop  offset="1" style="stop-color:#000000"/>
			</radialGradient>
			<path opacity="0.35" fill="url(#SVGBACKID_70_)" d="M204.2,1115.6c0,0,14.9-6.4,22.7-7.8c7.8-1.4,16.3-6.4,16.3-6.4
				s-4.3,7.8-6.4,10.6c-2.1,2.8-11.3-2.1-14.9-0.7C218.4,1112.7,204.2,1115.6,204.2,1115.6z"/>
			<radialGradient id="SVGBACKID_71_" cx="221.6112" cy="1100.7783" r="61.0352" gradientUnits="userSpaceOnUse">
				<stop  offset="0" style="stop-color:#FFFFFF"/>
				<stop  offset="1" style="stop-color:#000000"/>
			</radialGradient>
			<path opacity="0.35" fill="url(#SVGBACKID_71_)" d="M168.8,1132.6c0,0,2.1-8.5,14.9-9.9c12.8-1.4,21.3-4.3,23.4-5.7
				c2.1-1.4,14.2-10.6,14.9-5.7c0.7,5-5.7,12.8-10.6,12.8c-5,0-27.7,0.7-31.9,2.8C175.2,1129.1,168.8,1132.6,168.8,1132.6z"/>
			<path opacity="0.35" fill="none" stroke="#D7D8D7" stroke-width="0.8088" d="M169.5,1148.9c0,0,0-5.7-0.7-9.2
				c-0.7-3.5-5.7-19.9-3.5-26.2c2.1-6.4,5-12.1,7.8-14.2c2.8-2.1,9.9-8.5,9.9-8.5"/>
			<path opacity="0.35" fill="none" stroke="#D7D8D7" stroke-width="0.8088" d="M392.1,1116.3c0,0,11.3,7.1,32.6,7.8
				c21.3,0.7,41.8-2.1,41.8-2.1l10-3"/>
			<path opacity="0.35" fill="none" stroke="#D7D8D7" stroke-width="0.8088" d="M392.8,1112c0,0,7.8,9.2,36.9,8.5
				c29.1-0.7,47.5-5.1,47.5-5.1"/>
			<path opacity="0.35" fill="none" stroke="#D7D8D7" stroke-width="0.8088" d="M468,1117c0,0,1.4-26.2,1.4-28.4
				c0-2.1-2.1-14.2-2.1-14.2"/>
			<radialGradient id="SVGBACKID_72_" cx="441.4618" cy="1041.0667" r="45.2973" gradientUnits="userSpaceOnUse">
				<stop  offset="0" style="stop-color:#FFFFFF"/>
				<stop  offset="1" style="stop-color:#000000"/>
			</radialGradient>
			<path opacity="0.35" fill="url(#SVGBACKID_72_)" d="M399.9,1053.9c0,0-7.1,9.9,0.7,13.5c7.8,3.5,19.9,2.1,26.9,1.4
				c7.1-0.7,13.5-3.5,17-6.4c3.5-2.8,12.1-13.5,12.1-13.5s-6.4-0.7-9.9,2.1c-3.5,2.8-18.4,14.2-24.8,14.2c-6.4,0-15.6,4.3-18.4,0
				C400.6,1061,399.9,1053.9,399.9,1053.9z"/>
			<radialGradient id="SVGBACKID_73_" cx="404.5473" cy="1073.6335" r="36.8068" gradientUnits="userSpaceOnUse">
				<stop  offset="0" style="stop-color:#FFFFFF"/>
				<stop  offset="1" style="stop-color:#000000"/>
			</radialGradient>
			<path opacity="0.35" fill="url(#SVGBACKID_73_)" d="M405.6,1079.4c0-2.8,9.2,14.2,17,14.2c7.8,0,5-5,2.1-6.4
				C421.9,1085.8,405.6,1079.4,405.6,1079.4z"/>
			<radialGradient id="SVGBACKID_74_" cx="478.9154" cy="994.3779" r="16.1387" gradientUnits="userSpaceOnUse">
				<stop  offset="0" style="stop-color:#FFFFFF"/>
				<stop  offset="1" style="stop-color:#000000"/>
			</radialGradient>
			<path opacity="0.35" fill="url(#SVGBACKID_74_)" d="M469.4,993.6l-3.5-7.8c0,0,0.7-4.3,5.7-4.3c5,0,5,0,5,0L469.4,993.6z"/>
			<path opacity="0.35" fill="none" stroke="#808080" stroke-width="0.7515" d="M476.5,981.6c0,0,2.8-15.6,1.4-34
				c-1.4-18.4-9.2-69.5-9.9-76.6c-0.7-7.1-1.4-31.9-1.4-31.9"/>
			<radialGradient id="SVGBACKID_75_" cx="294.4294" cy="855.3423" r="169.0753" gradientUnits="userSpaceOnUse">
				<stop  offset="0" style="stop-color:#FFFFFF"/>
				<stop  offset="1" style="stop-color:#000000"/>
			</radialGradient>
			<path opacity="0.35" fill="url(#SVGBACKID_75_)" d="M277.3,875.9c0,0-9.9,31.9-14.2,38.3c-4.3,6.4-26.2,37.6-24.8,52.5
				c1.4,14.9,11.3,57.4,11.3,57.4c4.3-6.2,15.3-29,17.7-33.7c1.7-3.4,7-39.6,8.1-47.8c0.6-4.7,3.6-20.5,5.5-37.2
				c2.6-22.5,4-46.7,4-46.7L277.3,875.9z"/>
		</g>
	</g>
</g>
<g id="BOX_BODY">
	<rect x="215.8" y="92.4" fill="none" stroke="#000000" stroke-dasharray="1.3273,1.3273" width="178.8" height="92.6"/>
	<rect x="282.5" y="63.5" fill="none" stroke="#000000" stroke-dasharray="0.4718,0.4718" width="47.9" height="43.7"/>
	<rect x="255.2" y="71.4" fill="none" stroke="#000000" stroke-dasharray="1.8272,1.8272" width="101.5" height="309.3"/>
</g>
<g id="BOX_LEG_LEFT">
	<rect x="188.1" y="570.5" fill="none" stroke="#000000" stroke-dasharray="1,1" width="101.5" height="92.6"/>
</g>
<g id="BOX_LEG_RIGHT">
	<rect x="338.3" y="570.5" fill="none" stroke="#000000" stroke-dasharray="1,1" width="101.5" height="92.6"/>
</g>
<g id="CUSTOM">
</g>
</svg>
