<?xml version="1.0" encoding="utf-8"?>
<!-- Generator: Adobe Illustrator 19.1.0, SVG Export Plug-In . SVG Version: 6.00 Build 0)  -->
<!DOCTYPE svg PUBLIC "-//W3C//DTD SVG 1.1//EN" "http://www.w3.org/Graphics/SVG/1.1/DTD/svg11.dtd">
<svg version="1.1" xmlns="http://www.w3.org/2000/svg" xmlns:xlink="http://www.w3.org/1999/xlink" x="0px" y="0px"
	 viewBox="0 0 562 932" enable-background="new 0 0 612 932" xml:space="preserve">
<g id="BODY">
	<path fill="#BB2145" stroke="#877E75" stroke-width="0.2118" d="M545.6,549.8c-0.5-1.2-8.2-10.9-12-13.2c-3.8-2.3-6.5-5.3-7.1-6.6
		c-0.6-1.2-2.3-4.7-3-9.2c-0.7-4.5-2.9-15.8-4.9-22.1c-2-6.3-4.5-15.3-5-16.9c-0.5-1.6-3.6-15.2-4.3-23.1
		c-0.7-7.9-5.4-29.3-12.3-43.3c-4.4-9.1-9.3-16.4-13.3-21.5c0-0.1,0-0.1,0-0.1s-0.4-0.5-1.1-1.2c-1.8-2.2-3.3-3.8-4.5-5
		c-0.1-0.1-0.3-0.2-0.4-0.4c-1.5-1.6-2.9-3.2-3.9-4.2c-2.6-2.7-3.4-4.3-3.8-5.1l-0.2-0.6l-0.6-0.6c-0.8-0.9-1.8-1.8-2.8-2.6
		c0,0-0.1-0.1-0.1-0.1L461,369c-1.6-1.5-3.1-2.9-3.8-3.5l-1-1c0,0-2.4-2-4.4-4.3c-0.8-1-1.6-2.2-2.4-3.3
		c-2.3-3.9-8.7-14.4-11.3-15.8c-2.8-1.5-6.4-4.3-10.2-5.7c-3.8-1.5-5.9-3.9-6.4-4.1c-0.5-0.2-8.5-7-11.9-8.6
		c-3.5-1.6-18.6-9.4-20.4-10.6c-1.7-1.2-10.4-6.3-14-9.5c-3.6-3.2-3.7-4.7-5.8-5.3c-1.1-0.3-3.1-0.6-4.9-0.8
		c-2.1-0.8-3.8-1.7-4.6-2.4c-3.4-2.9,1.6-14.6,4.1-24.3c2.4-9.6-2.3-25.8-1.5-31.7c0.8-6-10.1-24.6-21-43
		c-10.8-18.4-12.7-20-27.5-31.5c-14.8-11.6-30.4-7.9-46.6,2.1c-16.2,10-42,52.8-43,56.2c-0.7,2.3-0.2,28.3,2.5,41.5
		c1.2,6,10.5,28,10.5,28s-8.3,11.9-10.4,12.6c0,0,0.1,0,0.1,0c-0.8,0.3-1.5,0.5-2.1,0.4c-1.9-0.1-13.4,1.6-16.8,3.6
		c-3.4,2.1-8,5.8-9.4,7.7c-1.4,1.8-5.7,5.3-6.6,6.6c-0.9,1.2-7.1,7-13.2,11.1c-6.1,4-20.7,14-22.2,14.8c-1.5,0.9-4.9,2.3-5.8,3.3
		c-0.9,1-3.4,6-3.4,6l-1.4,5l-0.3,2.2l-0.1,0.4l-7,7.1c-0.1,0.1-0.1,0.1-0.2,0.2c-1,0.9-6.7,7.9-7.3,8.9c-0.1,0.1-0.2,0.3-0.4,0.6
		c-0.3,0.4-0.5,0.8-0.6,1c0,0,0,0.1-0.1,0.2c-0.6,1.1-1.4,2.5-2.2,3.9c-1.3,2.2-2.9,4.8-4,6.2c-0.2,0.2-0.3,0.3-0.4,0.5
		c-1.6,1.6-6.4,6.9-8.7,9.6c-1.7,1.9-3.1,3.6-3.8,4.3c-0.1,0.1-0.2,0.2-0.2,0.2s-2.2,1.6-3,3c-0.8,1.5-10.2,30.4-12,37.1
		c-1.9,6.7-10.5,40.8-13.8,48.3c-3.2,7.4-5.3,15.9-5.7,18c-0.3,2.1-1.5,19.6-1.2,23.2c0.3,3.6,1.4,16.7,0.7,21.6
		c-0.7,5-0.1,9.6,0.9,12.4c1,2.8,6.3,18.1,6.3,18.1s-1.3,1.2-1.3,3c0,1.8-1.2,7.5-1.2,7.5s-8.1,1.2-10.2,3.4
		c-2.1,2.2-5.2,5.8-4.9,7.3c0.3,1.5,4.9,8.3,4.7,12.2c-0.1,3.9-0.2,9.2-0.7,9.4c-0.5,0.1-1.3,1-1.3,1s2.8,5.1,4.6,6
		c1.9,0.9,5.8,2.8,6.8,3.8c0.9,0.9,3.1,2.1,3.5,2.4c0.1,0,0.1,0.1,0.1,0.1l-5,22.7c0,0,0.5,4.2,9.9,4.3
		c37.7,0.3,42.2-12.9,42.2-12.9s-3.5-6.9-4.6-10.1c-1.2-3.2-1-6.6-1-7.2c0-0.5,0.5-1.4,0.8-1.8c0.1-0.2,0.2-0.3,0.2-0.3
		s14.4-6.1,15.4-9.5c1-3.4-5.4-9.8-5.4-9.8s1.6-3.3,1.5-4.3c-0.1-1-0.9-0.5-1.2-2.3c-0.2-1.8,2.3-6.2,2.3-7.9c0-1.7-1.6-3-1.4-4.4
		c0.2-1.3,1.5-9.6,1.4-12.8c-0.1-3.2-0.2-6.7-0.2-6.7s8.9-12.9,9.6-15.2c0.7-2.3,1.3-6.4,1.3-6.4s3.1-7.5,5.8-17.7
		c2.7-10.2,4.6-24.6,4.6-24.6s2.8-2.2,3.4-4.1c0.6-1.9,1.5-2.4,1.3-3.9c-0.2-1.5-0.5-3.3-0.5-3.3s3.2-0.4,4.9-1.3l0.1,0l0.1-0.1
		c0.2-0.1,0.5-0.3,0.6-0.4c0.1-0.1,0.1-0.1,0.2-0.2l0.7-0.6c0,0,0.1-0.1,0.1-0.1l2.2-1.2c0.1,0,0.2-0.1,0.2-0.1l1.4-1.2
		c0,0-3.2,23.6-4.6,31.5c-1.4,7.9-5.2,13.7-5.6,25.5c-0.3,11.8-0.8,27.3-0.2,32.2c0.6,4.9,1.3,12.9,1.3,12.9s-2.7,2.8-3.1,3.9
		c-0.5,1.1-1.6,6.7-1.5,8.4c0.1,1.7-0.3,6.3-0.3,7.7c0,1.3,2,12.4,3.4,15.6c1.4,3.2,5.1,12.8,10.3,13.2c5.2,0.5,9.4,0.7,10.3,0.2
		c0.9-0.5,3.6-1.1,3.6-1.1h2c0,0,0,0,0,0c-0.1,0.5-2.3,11.8-2.8,14.4c-0.5,2.7-0.9,5.8-0.9,6.9c0,1.1-0.3,3.9-0.9,5.7
		c-0.6,1.8-0.1,4.4-0.1,4.4s22.9-2.3,67.6-3.3c44.7-1,97.3-1.1,120.3-0.4c23,0.7,39.7,1.6,39.7,1.6l1.2-1c0,0-1-12.3-1.2-14.8
		c-0.1-1.5-0.1-5.2-0.2-8.3c0.1,0,0.1,0,0.2,0c0-0.1-0.1-0.4-0.2-0.9c0-1.6-0.1-3-0.2-3.6c-0.1-1-0.5-2-0.8-2.8c-0.1,0-0.2,0-0.2,0
		c-0.1-0.7-0.2-1.1-0.2-1.2c0-0.4,0.1-2.4,0.1-2.4s1-1.2,1.9-0.4c0.8,0.8,6.6,1.8,9.3,1.1c2.7-0.7,4.3-3.3,3.9-4.7
		c-0.3-1.5-6-6.3-6-6.3l-0.8-1.1c0,0,1.7-8.5,2.5-10.5c0.8-1.9,0.1-5.1,1.2-7.2c1-2.1,2.2-3.6,2.2-4.5c0-0.9,1-11.7,2.9-16.7
		c1.9-5,4.5-10.6,6-14.3c1.5-3.8,3.4-9.8,3.2-15.7c-0.1-5.8-5.4-18.8-5.4-18.8s2.3-8.9,2.7-10.6c0.3-1.7,1.4-3.4,2-5.5
		c0.6-2.1,1.5-3.5,1.5-3.5s5.7,9.6,6.4,10.7c0.7,1.1,8.2,14.2,8.6,15.1c0.3,0.9,0.5,5.3,0.5,6.4c0,1.1-0.1,3.8-0.1,3.8
		s-3.7,2.9-4.1,3.8c-0.3,0.9,2.9,9.5,3.7,12.5c0.8,3,3.2,11.1,3.2,11.8c0,0.7,2.8,3,3.5,3.8c0.7,0.7,3.5,2.6,3.2,3.3
		c-0.2,0.7-4.7,4.3-4.9,6.6c-0.1,2.3,1.9,8,2.3,10.1c4.2,20.1,14.2,24.9,15.9,25.6c0.2,0.1,0.2,0.1,0.2,0.1l3.2,9.8l0.1,4.4l0.3,6.5
		l-0.1,0l0.1,3.3c0,0,8,6.2,25.7,3.3c17.7-2.9,23.3-9.1,23.3-9.1s-2.8-5.8-4.2-12.4c-1.4-6.6-2.8-13.4-2.8-13.4s0.1-0.2,0.2-0.5
		c1.5-3.5,9.8-23.5,8.8-24.5c-1-1.1-2-2.6-2-2.6s2.3-6,0.9-8.4c-1.4-2.4-5.2-7.9-5.2-7.9l11.5-18.8c0,0,6.1-13.2,7.3-15.8
		C545,552.5,546,551,545.6,549.8z"/>
</g>
<g id="SHOULDER_INSERT">
	<g id="PATTERN_6_B_2_" display="none">
		<g display="inline">
			<path fill="#00AD5D" d="M126.4,388.8c-1.4,2.2-2.7,4.2-3.3,4.7c-1.5,1.1-12.3,13.7-12.3,13.7s6.9,28.6,15,40.8
				c8,12.2,27.7,35.9,29.1,38.7c1.4,2.8,9.1,10.7,9.1,13.2c0,2.5,1.7,6.3,2.3,6.3l2.4-0.8l1.7-1.3l2.4-1.3l1.4-1.2
				c0,0,0.1-2.3,0.3-5c-5.8-9.6-18.1-30.8-29.3-54.4C134.8,419.7,129,399.2,126.4,388.8"/>
			<path fill="#00AD5D" d="M470.1,376.4c-5,15.8-17.7,54.1-31.5,76.1c0,3.8,0,7,0,8.1c0,2.9,1.3,16.4,1.3,16.4s14-16.5,16.3-20.7
				c1-2,5.7-4.5,8.4-10.2c4.1-8.5,6.7-15,7.7-16.7c1.9-3,8.1-18.2,10.2-23.3c2.1-5,3.7-10.5,3.7-10.5s-8.9-10.3-11.7-13.4
				c-3.4-3.6-3.8-5.2-4.1-5.6C470.3,376.6,470.2,376.5,470.1,376.4"/>
		</g>
	</g>
	<g id="PATTERN_6_A_2_" display="none">
		<g display="inline">
			<path fill="#FCBA33" d="M178.2,483.4c0,0-12.1-39.5-13.2-42.3c-1.1-2.8-4.3-7.6-4.9-11.7c-0.6-4.1-3.2-15-5.8-20.5
				c-2.7-5.5-7.9-25.8-8-32.6c-0.2-6.8,1.2-19.2,1.2-19.2l-1.2,4.2l-0.5,2.9l-8,8.2c0,0-6.7,7.8-7.4,9.6c-0.3,0.6-2.1,3.9-3.9,6.7
				c2.6,10.4,8.4,30.8,19,53.3c11.1,23.6,23.5,44.8,29.3,54.4c0.2-2.9,0.6-6.2,1.2-7.6C177,486.1,178.2,483.4,178.2,483.4z"/>
			<path fill="#FCBA33" d="M467,373.5c-2.9-2.5-8.5-8.1-9.6-9c-1.1-0.8-3.3-3.1-3.8-3.6c-2.2-2-5.9-8.3-5.9-8.3s1.2,5.8,1.7,9.5
				c0.5,3.7,0.6,10.9-0.3,13.8c-1,2.9-4.3,13.1-4.6,15.1c-0.3,2-2.3,17.5-3.1,22.6c-0.8,5-1.7,17.5-2.2,23.4
				c-0.3,3.2-0.4,9.9-0.4,15.5c13.8-22,26.5-60.2,31.5-76.1C469.2,375.4,468.1,374.4,467,373.5z"/>
		</g>
	</g>
	<g id="PATTERN_5_A_2_" display="none">
		<g display="inline">
			<path fill="#BB2145" d="M174.9,488.9C174.9,488.9,174.9,488.9,174.9,488.9c-22-42.9-26.7-45.4-35.5-70.3
				c-6.7-18.8-8.7-31.2-9.2-37.8c-0.4,0.6-0.7,1-0.8,1.3c-0.5,1.1-5.9,10.3-7.2,11.4c-0.2,0.2-0.8,0.7-1.5,1.5
				c3,10.2,9.5,31.6,12.3,38c3.2,7.3,31.4,55.5,39.4,69.3l0.9-0.8C173.4,501.5,173.8,491.7,174.9,488.9z"/>
			<path fill="#BB2145" d="M475.3,384.4c-0.7-0.8-1.4-1.5-1.8-2c-3.4-3.6-3.8-5.2-4.1-5.6c-0.9-1.2-2.2-2.2-3.3-3.2
				c-0.4-0.3-0.8-0.7-1.2-1.1c-2.4,7.6-6.7,21-9.7,29.2c-2.5,7-12,21.3-16.4,27.7c-0.2,3-0.5,5.7-0.7,7.7
				c-0.4,3.8-0.4,12.6-0.4,18.5c4.2-5.6,12.5-17,15-21.2C455.3,429.7,469.8,396.9,475.3,384.4z"/>
		</g>
	</g>
	<g id="PATTERN_5_B_2_" display="none">
		<g display="inline">
			<path fill="#FCBA33" d="M120.7,395c-1.4,1.5-3.6,3.9-5.6,6.2c2.8,10.1,9.3,31.7,15.6,42.1c4.5,7.5,27.4,46.9,36.4,62.4l0.7-0.2
				l1.7-1.3l2.4-1.3l0.5-0.4c-8.1-13.8-36.2-62-39.4-69.3C130.2,426.6,123.8,405.2,120.7,395"/>
			<path fill="#FCBA33" d="M136.6,372.8c-0.9,1.1-4.7,5.6-6.4,8c0.6,6.6,2.6,19,9.2,37.8c8.8,24.9,13.5,27.4,35.5,70.3
				c1.1-2.8,2.4-5.4,2.4-5.4s-0.6-2-1.6-5c-10.6-21.6-30-61.5-33.2-73.1C139.5,394.5,138,388.2,136.6,372.8"/>
			<path fill="#FCBA33" d="M475.3,384.4c-5.5,12.5-20,45.3-22.7,49.9c-2.5,4.2-10.8,15.6-15,21.2c0,2.4,0,4.3,0,5.1
				c0,1.1,0.2,3.6,0.4,6.4c6.1-7.1,16.1-19.2,18.7-24.2c7.3-13.7,20.1-43.9,23.8-52.5C478.8,388.3,476.9,386.1,475.3,384.4"/>
			<path fill="#FCBA33" d="M458.4,366.3c-2.6,8.8-7.3,24.3-9.6,30.3c-1.5,3.9-4.9,9.7-8.1,14.9c-0.1,0.8-0.2,1.6-0.3,2.1
				c-0.5,3.3-1.1,9.9-1.6,15.7c4.4-6.4,13.9-20.7,16.4-27.7c2.9-8.2,7.3-21.6,9.7-29.2C462.9,370.6,460.3,368.1,458.4,366.3"/>
		</g>
	</g>
	<g id="PATTERN_5_C_2_" display="none">
		<g display="inline">
			<path fill="#00AD5D" d="M115.2,401.2c-2.8,3.1-5.3,6.1-5.3,6.1s6.9,28.6,15,40.8c8,12.2,27.7,35.9,29.1,38.7
				c1.4,2.8,9.1,10.7,9.1,13.2c0,2.5,1.7,6.3,2.3,6.3l1.7-0.6c-9-15.5-31.9-55-36.4-62.4C124.5,432.9,118,411.3,115.2,401.2z"/>
			<path fill="#00AD5D" d="M175.8,478.4c-3.3-10.7-10.8-35.1-11.7-37.3c-1.1-2.8-4.3-7.6-4.9-11.7c-0.6-4.1-3.2-15-5.8-20.5
				c-2.7-5.5-7.9-25.8-8-32.6c-0.2-6.8,1.2-19.2,1.2-19.2l-1.2,4.2l-0.5,2.9l-8,8.2c0,0-0.1,0.1-0.2,0.3c1.4,15.4,3,21.7,6,32.5
				C145.8,416.9,165.1,456.8,175.8,478.4z"/>
			<path fill="#00AD5D" d="M458.4,366.3c-0.9-0.9-1.7-1.5-2-1.8c-1.1-0.8-3.3-3.1-3.8-3.6c-2.2-2-5.9-8.3-5.9-8.3s1.2,5.8,1.7,9.5
				c0.5,3.7,0.6,10.9-0.3,13.8c-1,2.9-4.3,13.1-4.6,15.1c-0.3,1.8-1.8,14.1-2.7,20.4c3.2-5.2,6.6-11,8.1-14.9
				C451.1,390.7,455.8,375.1,458.4,366.3z"/>
			<path fill="#00AD5D" d="M480.6,390.3c-3.6,8.6-16.5,38.7-23.8,52.5c-2.6,5-12.6,17-18.7,24.2c0.4,4.7,0.9,10,0.9,10
				s14-16.5,16.3-20.7c1-2,5.7-4.5,8.4-10.2c4.1-8.5,6.7-15,7.7-16.6c1.9-3,8.1-18.2,10.2-23.3c2.1-5,3.7-10.5,3.7-10.5
				S483.1,393.3,480.6,390.3z"/>
		</g>
	</g>
	<g id="PATTERN_4_B_2_" display="none">
		<g display="inline">
			<path fill="#54001E" d="M172.7,503l0.5-0.4c-7.4-13.2-28.8-51.6-36.2-68c-5.8-12.9-11.7-29.5-15.2-39.7c-1.5,1.6-4.2,4.6-6.6,7.3
				c3.9,12.3,12.5,38.3,17.6,43.8c5.7,6.1,29.5,46.4,36.8,58.9l0.6-0.5L172.7,503z"/>
			<path fill="#54001E" d="M144.5,401.3c-2.8-9.5-5.5-21.8-7-28.5c-0.1,0.1-6.7,7.8-7.4,9.6c-0.1,0.2-0.3,0.6-0.5,1.1
				c3.6,11,9.7,29.7,12.9,38.3c5.8,15.5,24.3,56.2,32.1,73.3c0.2-2.4,0.6-4.8,1-5.9c0.1-0.4,0.3-0.7,0.4-1.1
				C170.1,472.6,150,420.1,144.5,401.3z"/>
			<path fill="#54001E" d="M466,373c-2.1-1.9-5.1-4.8-7.1-6.7c-2.4,7.7-12.6,40.3-14.8,47.6c-1.1,3.5-2.7,7-4.1,9.9
				c-0.4,4.9-0.8,10.2-1.2,13.4c-0.1,0.8-0.1,1.8-0.2,2.9c1.8-2.2,8.6-10.8,11-17.7C452,415.2,463.4,380.9,466,373z"/>
			<path fill="#54001E" d="M479.3,388.2c-2-2.3-4-4.5-5-5.7c-0.4-0.4-0.8-0.9-1.1-1.2c-3.2,9.4-16.5,47.3-19.8,52.9
				c-3.1,5.2-12,17-14.9,20.9c0,2.7,0,4.8,0,5.7c0,1,0.2,3.5,0.4,6.2c5.5-6.2,16.3-19,21.1-27.8C467.3,425.6,477,395.3,479.3,388.2z
				"/>
		</g>
	</g>
	<g id="PATTERN_4_A_2_" display="none">
		<g display="inline">
			<path fill="#FEC43A" d="M147.3,357.4l-1.2,4.2l-0.5,2.9l-8,8.2l0,0c1.5,6.8,4.2,19,7,28.5c5.5,18.9,25.6,71.4,31.6,86.8
				c1-2.4,1.9-4.4,1.9-4.4s-12.1-39.5-13.2-42.3c-1.1-2.8-4.3-7.6-4.9-11.7c-0.6-4.1-3.2-15-5.8-20.5c-2.7-5.5-7.9-25.8-8-32.6
				C145.9,369.8,147.3,357.4,147.3,357.4"/>
			<path fill="#FEC43A" d="M115.3,402.1c-2.5,2.9-4.6,5.3-4.6,5.3s6.9,28.6,15,40.8c8,12.2,27.7,35.9,29.1,38.7
				c1.4,2.8,9.1,10.7,9.1,13.2c0,2.5,1.7,6.3,2.3,6.3l2.4-0.8l1.1-0.9c-7.3-12.5-31-52.7-36.8-58.9
				C127.7,440.4,119.1,414.5,115.3,402.1"/>
			<path fill="#FEC43A" d="M129.6,383.4c-1.5,2.7-5.6,9.4-6.7,10.4c-0.2,0.2-0.6,0.5-1.1,1.1c3.5,10.2,9.4,26.8,15.2,39.7
				c7.4,16.5,28.8,54.8,36.2,68l0.9-0.8c0,0,0.1-3.4,0.5-6.7c-7.8-17.1-26.2-57.8-32.1-73.3C139.3,413,133.2,394.4,129.6,383.4"/>
			<path fill="#FEC43A" d="M447.4,352.8c0,0,1.2,5.8,1.7,9.5c0.5,3.7,0.6,10.9-0.3,13.8c-1,2.9-4.3,13.1-4.6,15.1
				c-0.3,2-2.3,17.5-3.1,22.6c-0.4,2.3-0.7,6-1.1,9.9c1.4-2.9,3-6.3,4.1-9.9c2.3-7.3,12.4-39.9,14.8-47.6c-0.8-0.8-1.5-1.3-1.8-1.6
				c-1.1-0.8-3.3-3.1-3.8-3.6C451.1,359.1,447.4,352.8,447.4,352.8"/>
			<path fill="#FEC43A" d="M466,373c-2.6,7.9-14,42.2-16.4,49.4c-2.4,7-9.1,15.5-11,17.7c-0.2,4.2-0.2,10.4-0.3,15
				c3-3.9,11.9-15.7,14.9-20.9c3.3-5.5,16.5-43.5,19.8-52.9c-2.4-2.8-2.7-4-3-4.4c-0.9-1.2-2.2-2.2-3.3-3.2
				C466.6,373.5,466.3,373.3,466,373"/>
			<path fill="#FEC43A" d="M479.3,388.2c-2.2,7.1-12,37.4-19.4,51.1c-4.8,8.8-15.6,21.5-21.1,27.8c0.4,4.7,0.9,10.2,0.9,10.2
				s14-16.5,16.3-20.7c1-2,5.7-4.5,8.4-10.2c4.1-8.5,6.7-15,7.7-16.6c1.9-3,8.1-18.2,10.2-23.3c2.1-5,3.7-10.5,3.7-10.5
				S482.5,392,479.3,388.2"/>
		</g>
	</g>
	<g id="PATTERN_3_C_2_" display="none">
		<g display="inline">
			<path d="M119.3,396.5c-3.7,4-9.7,11-9.7,11s6.9,28.6,15,40.8c8,12.2,27.7,35.9,29.1,38.7c1.4,2.8,9.1,10.7,9.1,13.2
				c0,2.5,1.7,6.3,2.3,6.3l2.4-0.8l1.7-1.3l2.4-1.3c0,0-35.7-59.5-42-71.4C125.7,423.9,121.7,407.4,119.3,396.5z"/>
			<path d="M475.9,385.5c-4.2,11.3-12.6,33.6-18,44.3c-5.5,10.9-15.5,22.4-20.5,27.7c0,1.5,0,2.7,0,3.3c0,2.9,1.3,16.4,1.3,16.4
				s14-16.5,16.3-20.7c1-2,5.7-4.5,8.4-10.2c4.1-8.5,6.7-15,7.7-16.7c1.9-3,8.1-18.2,10.2-23.3c2.1-5,3.7-10.5,3.7-10.5
				S479.6,389.8,475.9,385.5z"/>
		</g>
	</g>
	<g id="PATTERN_3_B_2_" display="none">
		<g display="inline">
			<path fill="#BB2145" d="M142.3,420.2c-1.9-7.7-7.5-28.4-10.9-41c-1.1,1.4-2,2.7-2.2,3.2c-0.5,1.1-5.9,10.3-7.2,11.4
				c-0.4,0.3-1.3,1.3-2.6,2.7c2.4,10.9,6.4,27.4,10.4,35.1c6.3,12,42,71.4,42,71.4l1.5-2.2c0.1-1.4,0.2-4.1,0.5-6.6
				C167.5,480.5,144.7,430,142.3,420.2z"/>
			<path fill="#BB2145" d="M475.9,385.5c-1.1-1.2-2-2.2-2.6-2.9c-3.4-3.6-3.8-5.2-4.1-5.6c-0.9-1.2-2.2-2.2-3.3-3.2
				c-0.4-0.3-0.8-0.7-1.3-1.2c-3,8-7.6,20.6-9.5,26.5c-2.1,6.9-12.4,28.9-17.3,39.4c-0.3,4.7-0.4,14-0.4,19.1
				c4.9-5.3,15-16.8,20.5-27.7C463.3,419.1,471.7,396.8,475.9,385.5z"/>
		</g>
	</g>
	<g id="PATTERN_3_A_2_" display="none">
		<g display="inline">
			<path fill="#FCBA33" d="M173.7,494.2c0.2-2.1,0.5-4,0.9-5c1.1-2.8,2.4-5.5,2.4-5.5s-12.1-39.5-13.2-42.3
				c-1.1-2.8-4.3-7.6-4.9-11.7c-0.6-4.1-3.2-15-5.8-20.5c-2.7-5.5-7.9-25.8-8-32.6c-0.2-6.8,1.2-19.2,1.2-19.2l-1.2,4.2l-0.5,2.9
				l-8,8.2c0,0-3,3.5-5.2,6.4c3.4,12.6,9,33.3,10.9,41C144.7,430,167.5,480.5,173.7,494.2z"/>
			<path fill="#FCBA33" d="M464.5,372.6c-3.5-3.2-9.7-9.3-10.7-10c0,0-5.1,10.8-6.1,13.7c-1,2.9-4.3,13.1-4.6,15.1
				c-0.3,2-2.3,17.5-3.1,22.6c-0.8,5-1.7,17.5-2.2,23.4c0,0.4-0.1,0.7-0.1,1.2c4.9-10.5,15.1-32.5,17.3-39.4
				C456.9,393.1,461.5,380.5,464.5,372.6z"/>
		</g>
	</g>
	<g id="PATTERN_2_B_2_" display="none">
		<g display="inline">
			<path fill="#FCBA33" d="M142.6,420.8c-1.9-7.7-7.5-28.4-10.9-41c-1.1,1.4-2,2.7-2.2,3.2c-0.5,1.1-5.9,10.3-7.2,11.4
				c-0.4,0.3-1.3,1.3-2.6,2.7c2.4,10.9,6.4,27.4,10.4,35.1c6.3,12,42,71.4,42,71.4l1.5-2.2c0.1-1.4,0.2-4.1,0.5-6.6
				C167.8,481.1,145,430.7,142.6,420.8z"/>
			<path fill="#FCBA33" d="M477,385.3c-1.1-1.2-2-2.2-2.6-2.9c-3.4-3.6-3.8-5.2-4.1-5.6c-0.9-1.2-2.2-2.2-3.3-3.2
				c-0.4-0.3-0.8-0.7-1.3-1.2c-3,8-7.6,20.6-9.5,26.5c-2.1,6.9-12.4,28.9-17.3,39.4c-0.3,4.7-0.4,14-0.4,19.1
				c4.9-5.3,15-16.8,20.5-27.7C464.4,418.9,472.9,396.6,477,385.3z"/>
		</g>
	</g>
	<g id="PATTERN_2_A_3_" display="none">
		<g display="inline">
			<path fill="#BB2145" d="M119.7,397.1c-3.7,4-9.7,11-9.7,11s6.9,28.6,15,40.8c8,12.2,27.7,35.9,29.1,38.7
				c1.4,2.8,9.1,10.7,9.1,13.2c0,2.5,1.7,6.3,2.3,6.3l2.4-0.8l1.7-1.3l2.4-1.3c0,0-35.7-59.5-42-71.4C126,424.6,122,408,119.7,397.1
				"/>
			<path fill="#BB2145" d="M146.6,358.1l-1.2,4.2l-0.5,2.9l-8,8.2c0,0-3,3.5-5.2,6.4c3.4,12.6,9,33.3,10.9,41
				c2.5,9.8,25.2,60.3,31.5,74c0.2-2.1,0.5-4,0.9-5c1.1-2.8,2.4-5.5,2.4-5.5s-12.1-39.5-13.2-42.3c-1.1-2.8-4.3-7.6-4.9-11.7
				c-0.6-4.1-3.2-15-5.8-20.5c-2.7-5.5-7.9-25.8-8-32.6C145.2,370.5,146.6,358.1,146.6,358.1"/>
			<path fill="#BB2145" d="M455,362.3c0,0-5.1,10.8-6.1,13.7c-1,2.9-4.3,13.1-4.6,15.1c-0.3,2-2.3,17.5-3.1,22.6
				c-0.8,5-1.7,17.5-2.2,23.4c0,0.4-0.1,0.7-0.1,1.2c4.9-10.5,15.1-32.5,17.3-39.4c1.9-6,6.5-18.6,9.5-26.5
				C462.2,369.2,456,363.1,455,362.3"/>
			<path fill="#BB2145" d="M477,385.3c-4.2,11.3-12.6,33.6-18,44.3c-5.5,10.9-15.5,22.4-20.5,27.7c0,1.5,0,2.7,0,3.3
				c0,2.9,1.3,16.4,1.3,16.4s14-16.5,16.3-20.7c1-2,5.7-4.5,8.4-10.2c4.1-8.5,6.7-15,7.7-16.7c1.9-3,8.1-18.2,10.2-23.3
				c2.1-5,3.7-10.5,3.7-10.5S480.8,389.6,477,385.3"/>
		</g>
	</g>
	<g id="PATTERN_1_A_1_">
		<g>
			<path fill="#877E75" d="M146.8,357.6l-1.2,4.2l-0.5,2.9l-8,8.2c0,0-6.7,7.8-7.4,9.6c-0.5,1.1-5.9,10.3-7.2,11.4
				c-1.5,1.1-12.3,13.7-12.3,13.7s6.9,28.6,15,40.8c8,12.2,27.7,35.9,29.1,38.7c1.4,2.8,9.1,10.7,9.1,13.2c0,2.5,1.7,6.3,2.3,6.3
				l2.4-0.8l1.7-1.3l2.4-1.3l1.4-1.2c0,0,0.4-9.8,1.5-12.6c1.1-2.8,2.4-5.5,2.4-5.5s-12.1-39.5-13.2-42.3c-1.1-2.8-4.3-7.6-4.9-11.7
				c-0.6-4.1-3.2-15-5.8-20.5c-2.7-5.5-7.9-25.8-8-32.6C145.5,370.1,146.8,357.6,146.8,357.6"/>
			<path fill="#877E75" d="M447,353.1c0,0,1.2,5.8,1.7,9.5c0.5,3.7,0.6,10.9-0.3,13.8c-1,2.9-4.3,13.1-4.6,15.1
				c-0.3,2-2.3,17.5-3.1,22.6c-0.8,5-1.7,17.5-2.2,23.4c-0.5,5.3-0.4,20.8-0.4,23.6c0,2.9,1.3,16.4,1.3,16.4s14-16.5,16.3-20.7
				c1-2,5.7-4.5,8.4-10.2c4.1-8.5,6.7-15,7.7-16.6c1.9-3,8.1-18.2,10.2-23.3c2.1-5,3.7-10.5,3.7-10.5s-8.9-10.3-11.7-13.4
				c-3.4-3.6-3.8-5.2-4.1-5.6c-0.9-1.2-2.2-2.2-3.3-3.2c-2.9-2.5-8.5-8.1-9.6-9c-1.1-0.8-3.3-3.1-3.8-3.6
				C450.7,359.4,447,353.1,447,353.1"/>
		</g>
	</g>
</g>
<g id="CUFFS">
	<g id="PATTERN_6_B_1_" display="none">
		<g display="inline">
			<path fill="#00AD5D" d="M127,651.7c-4.1,2.3-12.4,6.3-21.8,7.3c-2.3,0.2-4.6,0.3-6.9,0.3c-6.7,0-13.1-0.9-17.6-1.7l-2.3,10.2
				c0,0,0.5,4.2,9.9,4.3c0.4,0,0.9,0,1.3,0c36.5,0,40.9-12.9,40.9-12.9S128.5,655,127,651.7"/>
			<path fill="#00AD5D" d="M525.9,647.8c-3.8,1.5-11,4.1-21.4,6.7c-5,1.2-9.9,1.7-14.2,1.7c-3.7,0-7-0.3-9.7-0.7l0.1,6.3l0.1,3.3
				c0,0,5.2,4.1,16.7,4.1c2.7,0,5.7-0.2,9.1-0.8c17.8-2.9,23.3-9.1,23.3-9.1S527.3,654,525.9,647.8"/>
		</g>
	</g>
	<g id="PATTERN_6_A_1_" display="none">
		<g display="inline">
			<path fill="#FCBA33" d="M105.2,659c9.4-0.9,17.7-5,21.8-7.3c-0.4-1-0.8-1.8-1.1-2.5c-1.2-3.2-1-6.6-1-7.2c0-0.5,0.5-1.4,0.8-1.8
				c-4.2,2-15.1,7.2-19.4,8.5c-4.3,1.3-17.6-2.1-22.9-3.6c0.1,0,0.1,0.1,0.1,0.1l-2.8,12.5C86.7,658.7,96,659.9,105.2,659z"/>
			<path fill="#FCBA33" d="M504.5,654.5c10.4-2.6,17.6-5.2,21.4-6.7c-0.1-0.3-0.1-0.6-0.2-1c-1.4-6.6-2.8-13.4-2.8-13.4
				s0.1-0.2,0.2-0.5c-3.1,1.5-8.7,3.9-17.8,6.6c-10.5,3.2-22.1,2.2-28.3,1.4c0.2,0.1,0.2,0.1,0.2,0.1l3.2,9.9l0.1,4.5l0,0.2
				C486.4,656.3,495.2,656.8,504.5,654.5z"/>
		</g>
	</g>
	<g id="PATTERN_5_A_1_" display="none">
		<g display="inline">
			<path fill="#BE0032" d="M104.8,664.8c12.5-2.3,20.3-7.3,24-10.2c-0.9-1.9-1.8-4-2.3-5.4c-0.1-0.3-0.2-0.7-0.3-1
				c-3.7,2.2-11.4,6.1-21.8,7.8c-9.1,1.5-17.6-0.7-22.3-2.4l-2,9.2C84.5,664.7,92.8,667,104.8,664.8z"/>
			<path fill="#BE0032" d="M480.1,655.6l0.1,4.6c3.8,0.9,10.8,2,21.3,1.3c9.6-0.6,19.6-5.5,25.1-8.6c-0.6-1.8-1.2-3.9-1.6-6
				c-0.3-1.5-0.6-2.9-0.9-4.4c-4.5,2.2-12.4,5.6-22.1,7.4c-10.6,2-18.4,1.2-22.2,0.5l0.2,0.6L480.1,655.6z"/>
		</g>
	</g>
	<g id="PATTERN_5_B_1_" display="none">
		<g display="inline">
			<path fill="#FEC43A" d="M125.5,644.3c-3.4,2.3-10.3,6.2-20.8,7.7c-1.8,0.3-3.6,0.4-5.3,0.4c-6.7,0-12.5-1.7-16.4-3.2l-1,4.5
				c3.7,1.3,9.5,2.9,16.2,2.9c2,0,4.1-0.1,6.2-0.5c10.4-1.7,18.1-5.6,21.8-7.8C125.8,646.8,125.6,645.4,125.5,644.3"/>
			<path fill="#FEC43A" d="M128.8,654.6c-3.6,2.9-11.5,7.9-24,10.2c-3.5,0.6-6.7,0.9-9.5,0.9c-7,0-12.1-1.6-15.2-3l-0.8,3.8
				c3,1.1,8.6,2.7,16.2,2.7c1.8,0,3.8-0.1,5.9-0.3c16-1.7,25-8.6,28.5-11.9C129.6,656.3,129.2,655.5,128.8,654.6"/>
			<path fill="#FEC43A" d="M523.3,638.2c-3,1.4-9.8,4.2-21,7c-5.6,1.4-10.4,1.8-14.4,1.8c-4.3,0-7.5-0.5-9.4-0.9l1.3,4.3
				c2,0.4,5.2,0.8,9.4,0.8c3.6,0,7.9-0.3,12.8-1.3c9.7-1.9,17.6-5.2,22.1-7.4C523.8,641,523.5,639.5,523.3,638.2"/>
			<path fill="#FEC43A" d="M526.6,652.9c-5.5,3.1-15.6,8-25.1,8.6c-2.3,0.2-4.5,0.2-6.5,0.2c-7,0-11.9-0.8-14.8-1.5l0,2.1l0,0.9
				c3.2,1.1,9.4,2.9,16.9,2.9c2.1,0,4.2-0.1,6.5-0.4c13.8-1.9,21.7-7,24.3-8.9C527.5,655.6,527,654.3,526.6,652.9"/>
		</g>
	</g>
	<g id="PATTERN_5_C_1_" display="none">
		<g display="inline">
			<path fill="#00994A" d="M101.4,669c-10.6,1.1-18.3-1-22.1-2.4l-0.5,2.1c0,0,0.5,4.4,10,4.5c37.9,0.3,42.4-13.4,42.4-13.4
				s-0.5-1.1-1.3-2.7C126.4,660.4,117.4,667.3,101.4,669z"/>
			<path fill="#00994A" d="M104.7,652c10.5-1.5,17.4-5.4,20.8-7.7c-0.1-1.3-0.1-2.3-0.1-2.6c0-0.5,0.5-1.4,0.8-1.9
				c-4.2,2.1-15.1,7.5-19.5,8.9c-4.3,1.4-17.7-2.2-23-3.7c0.1,0,0.1,0.1,0.1,0.1l-0.9,4.1C88,651.1,95.9,653.2,104.7,652z"/>
			<path fill="#00994A" d="M527.9,656.7c-2.6,1.9-10.5,7-24.3,8.9c-10.4,1.4-19.3-1-23.4-2.4l0,2.6c0,0,8,6.4,25.7,3.4
				c17.7-3,23.2-9.4,23.2-9.4S528.6,658.6,527.9,656.7z"/>
			<path fill="#00994A" d="M478.5,646.1c3.6,0.8,12.2,2,23.8-0.9c11.2-2.8,18.1-5.6,21-7c-0.6-3.1-1-5.2-1-5.2s0.1-0.2,0.2-0.5
				c-3,1.5-8.7,4-17.7,6.8c-10.4,3.3-22,2.3-28.2,1.4c0.2,0.1,0.2,0.1,0.2,0.1L478.5,646.1z"/>
		</g>
	</g>
	<g id="PATTERN_4_B_1_" display="none">
		<g display="inline">
			<path fill="#54001E" d="M101.7,658c7-0.5,19.3-6.5,24.3-9.2c-0.5-1.5-0.8-3.1-0.9-4.4c-3.6,2-13.6,7.2-23.7,8.3
				c-9.3,1-15.9-1.5-18.8-2.8l-1.2,5.6C84,656.5,90.9,658.7,101.7,658z"/>
			<path fill="#54001E" d="M95.8,668.4c9-0.2,17.6-2.8,24-5.7c4.1-1.9,7.6-4.5,9.5-6.2c-0.5-1.1-1.1-2.5-1.7-3.7
				c-3.9,2.7-13.7,8.7-24.5,9.9c-12.3,1.4-19.4-0.6-22.7-2l-1,4.8C81.8,666.6,87.3,668.6,95.8,668.4z"/>
			<path fill="#54001E" d="M499,645.5c-8.5,1.6-17,0.7-20.8,0.1l1.6,5.1l0,1.1c3.2,0.5,10.3,1.2,19.1-0.1
				c12.4-1.9,21.5-6.5,25.2-8.7c-0.4-2.1-0.8-4-1.1-5.7C518.7,639.2,507.9,643.8,499,645.5z"/>
			<path fill="#54001E" d="M525.3,648.9c-3.8,2.3-12.3,6.8-22.7,8.9c-10.3,2.1-18.9,0.4-22.8-0.7l0.1,5.3c3.5,1.4,10.2,3.1,19.9,1.8
				c11.8-1.6,23.2-7.2,27.3-9.3C526.5,653.2,525.8,651.1,525.3,648.9z"/>
		</g>
	</g>
	<g id="PATTERN_4_A_1_" display="none">
		<g display="inline">
			<path fill="#FEC43A" d="M125.8,639.5c-4.2,2.1-15,7.6-19.3,8.9c-0.7,0.2-1.5,0.3-2.6,0.3c-5.6,0-15.8-2.8-20.2-4.1l0.1,0.1
				l-1.1,5.1c2.4,1.2,7.5,3.1,14.5,3.1c1.3,0,2.8-0.1,4.2-0.2c10.1-1.1,20.1-6.2,23.7-8.3c-0.1-1.5-0.1-2.7-0.1-3
				C125,640.9,125.5,639.9,125.8,639.5"/>
			<path fill="#FEC43A" d="M126,648.8c-5.1,2.7-17.3,8.7-24.3,9.2c-1.5,0.1-2.9,0.1-4.2,0.1c-8.4,0-13.8-1.8-16-2.7l-1.1,5.2
				c2.5,1.1,7.2,2.5,14.8,2.5c2.3,0,5-0.1,7.9-0.5c10.8-1.2,20.6-7.2,24.5-9.9c-0.6-1.4-1.2-2.8-1.6-3.9L126,648.8"/>
			<path fill="#FEC43A" d="M129.3,656.5c-1.9,1.6-5.4,4.3-9.5,6.2c-6.4,2.9-15,5.5-24,5.7c-0.4,0-0.8,0-1.1,0c-7.9,0-13-1.9-15.3-3
				l-0.7,3.2c0,0,0.5,4.4,9.9,4.5c0.4,0,0.9,0,1.3,0c36.4,0,40.8-13.6,40.8-13.6S130.1,658.3,129.3,656.5"/>
			<path fill="#FEC43A" d="M522.2,631.9c-3,1.5-8.7,4.1-17.7,7c-5.5,1.8-11.4,2.3-16.5,2.3c-4.6,0-8.7-0.4-11.6-0.9
				c0.2,0.1,0.2,0.1,0.2,0.1l1.6,5.3c2.2,0.3,6,0.8,10.4,0.8c3.2,0,6.8-0.2,10.4-0.9c9-1.7,19.7-6.3,23.9-8.2c-0.6-2.9-1-4.9-1-4.9
				S522.1,632.2,522.2,631.9"/>
			<path fill="#FEC43A" d="M524.1,643c-3.7,2.2-12.8,6.8-25.2,8.7c-3.8,0.6-7.2,0.8-10.2,0.8c-4,0-7.1-0.4-9-0.6l0.1,3.6l0,1.7
				c2.5,0.7,7.1,1.7,12.8,1.7c3,0,6.4-0.3,10-1c10.4-2.1,18.9-6.6,22.7-8.9c-0.2-0.8-0.4-1.6-0.5-2.4
				C524.5,645.3,524.3,644.2,524.1,643"/>
			<path fill="#FEC43A" d="M527.1,654.8c-4.1,2.2-15.4,7.7-27.3,9.3c-2.4,0.3-4.6,0.5-6.7,0.5c-6.1,0-10.5-1.2-13.2-2.3l0.1,3.3
				c0,0,5.2,4.3,16.6,4.3c2.7,0,5.7-0.2,9.1-0.8c17.7-3.1,23.2-9.6,23.2-9.6S528.1,657.7,527.1,654.8"/>
		</g>
	</g>
	<g id="PATTERN_3_C_1_" display="none">
		<g display="inline">
			<path d="M104.5,663.2c-12.9,1.6-21.8-0.5-25-1.5l-1.4,6.4c0,0,0.5,4.2,9.9,4.3c37.7,0.3,42.2-12.9,42.2-12.9s-1-2-2.1-4.4
				C124.4,657.4,116.2,661.8,104.5,663.2z"/>
			<path d="M503.5,659.6c-10.9,1.9-18.7,0.7-23.1-0.4l0,2.8l0.1,3.3c0,0,8,6.2,25.8,3.3c17.8-2.9,23.3-9.1,23.3-9.1
				s-1.5-3.2-2.9-7.5C521.7,654.5,513.7,657.9,503.5,659.6z"/>
		</g>
	</g>
	<g id="PATTERN_3_B_1_" display="none">
		<g display="inline">
			<path fill="#BB2145" d="M104.5,663.2c11.7-1.5,20-5.8,23.7-8.1c-1-2-2-4.3-2.5-5.7c-0.2-0.5-0.4-1.1-0.5-1.6
				c-3.4,1.9-10.8,5.5-20.3,6.6c-10.1,1.2-19.7-0.6-23.4-1.5l-2,8.8C82.6,662.7,91.6,664.9,104.5,663.2z"/>
			<path fill="#BB2145" d="M503.5,659.6c10.1-1.7,18.2-5.1,23.1-7.6c-0.5-1.5-0.9-3.2-1.3-4.9c-0.3-1.5-0.6-2.9-0.9-4.3
				c-5,2.6-12.9,6-23,7.5c-8.9,1.4-17.1,0.4-21.6-0.4l0.4,1.2l0.1,4.5l0.1,3.7C484.8,660.4,492.7,661.5,503.5,659.6z"/>
		</g>
	</g>
	<g id="PATTERN_3_A_1_" display="none">
		<g display="inline">
			<path fill="#FCBA33" d="M104.9,654.4c9.5-1.1,16.9-4.7,20.3-6.6c-0.6-2.6-0.6-5.1-0.6-5.6c0-0.5,0.5-1.4,0.8-1.8
				c-4.2,2-15.1,7.2-19.4,8.5c-4.3,1.3-17.6-2.1-22.9-3.6c0.1,0,0.1,0.1,0.1,0.1l-1.7,7.5C85.2,653.8,94.7,655.6,104.9,654.4z"/>
			<path fill="#FCBA33" d="M501.4,650.3c10.1-1.6,18-4.9,23-7.5c-1-4.9-1.9-9.1-1.9-9.1s0.1-0.2,0.2-0.5c-3.1,1.5-8.7,3.9-17.8,6.6
				c-10.5,3.2-22.1,2.2-28.3,1.4c0.2,0.1,0.2,0.1,0.2,0.1l2.8,8.6C484.3,650.7,492.5,651.7,501.4,650.3z"/>
		</g>
	</g>
	<g id="PATTERN_2_B_1_" display="none">
		<g display="inline">
			<path fill="#FCBA33" d="M104.8,663.9c11.7-1.5,20-5.8,23.7-8.1c-1-2-2-4.3-2.5-5.7c-0.2-0.5-0.4-1.1-0.5-1.6
				c-3.4,1.9-10.8,5.5-20.3,6.6c-10.1,1.2-19.7-0.6-23.4-1.5l-2,8.8C82.9,663.4,91.9,665.5,104.8,663.9z"/>
			<path fill="#FCBA33" d="M503,660.3c10.1-1.7,18.2-5.1,23.1-7.6c-0.5-1.5-0.9-3.2-1.3-4.9c-0.3-1.5-0.6-2.9-0.9-4.3
				c-5,2.6-12.9,6-23,7.5c-8.9,1.4-17.1,0.4-21.6-0.4l0.4,1.2l0.1,4.5l0.1,3.7C484.3,661,492.1,662.1,503,660.3z"/>
		</g>
	</g>
	<g id="PATTERN_2_A_1_" display="none">
		<g display="inline">
			<path fill="#BB2145" d="M128.4,655.8c-3.7,2.3-11.9,6.6-23.7,8.1c-3.3,0.4-6.4,0.6-9.2,0.6c-8,0-13.5-1.4-15.8-2.1l-1.4,6.4
				c0,0,0.5,4.2,9.9,4.3c0.4,0,0.9,0,1.3,0c36.5,0,40.9-12.9,40.9-12.9S129.6,658.1,128.4,655.8"/>
			<path fill="#BB2145" d="M125.7,641.1c-4.2,2-15.1,7.2-19.4,8.5c-0.7,0.2-1.5,0.3-2.6,0.3c-5.7,0-15.9-2.6-20.3-3.9l0.1,0.1
				l-1.7,7.5c2.9,0.7,9.1,1.9,16.4,1.9c2.2,0,4.6-0.1,6.9-0.4c9.5-1.1,16.9-4.7,20.3-6.6c-0.6-2.6-0.6-5.1-0.6-5.6
				C124.9,642.4,125.4,641.5,125.7,641.1"/>
			<path fill="#BB2145" d="M522.2,633.8c-3.1,1.5-8.7,3.9-17.8,6.6c-5.5,1.7-11.4,2.2-16.6,2.2c-4.6,0-8.8-0.4-11.7-0.8
				c0.2,0.1,0.2,0.1,0.2,0.1l2.8,8.6c2.9,0.5,7.3,1.1,12.4,1.1c2.9,0,6-0.2,9.3-0.7c10.1-1.6,18-4.9,23-7.5c-1-4.9-1.9-9.1-1.9-9.1
				S522.1,634.2,522.2,633.8"/>
			<path fill="#BB2145" d="M526.1,652.7c-4.9,2.5-13,5.9-23.1,7.6c-4.2,0.7-8,1-11.2,1c-5.2,0-9.2-0.7-11.9-1.4l0,2.8l0.1,3.3
				c0,0,5.2,4.1,16.7,4.1c2.7,0,5.7-0.2,9.1-0.8c17.8-2.9,23.3-9.1,23.3-9.1S527.5,657,526.1,652.7"/>
		</g>
	</g>
	<g id="PATTERN_1_A">
		<g>
			<path fill="#877E75" d="M125.9,640.6c-4.2,2-15.1,7.2-19.4,8.5c-0.7,0.2-1.5,0.3-2.6,0.3c-5.7,0-15.9-2.6-20.3-3.9l0.1,0.1
				l-5.1,22.7c0,0,0.5,4.2,9.9,4.3c0.4,0,0.9,0,1.3,0c36.5,0,40.9-12.9,40.9-12.9s-3.5-6.9-4.6-10.1c-1.2-3.2-1-6.6-1-7.2
				C125.1,642,125.6,641.1,125.9,640.6"/>
			<path fill="#877E75" d="M522.5,633.4c-3.1,1.5-8.7,3.9-17.8,6.6c-5.5,1.7-11.4,2.2-16.6,2.2c-4.6,0-8.8-0.4-11.7-0.8
				c0.2,0.1,0.2,0.1,0.2,0.1l3.2,9.9l0.1,4.5l0.1,6.5l0.1,3.3c0,0,5.2,4.1,16.7,4.1c2.7,0,5.7-0.2,9.1-0.8
				c17.8-2.9,23.3-9.1,23.3-9.1s-2.8-5.8-4.2-12.4c-1.4-6.6-2.8-13.4-2.8-13.4S522.3,633.7,522.5,633.4"/>
		</g>
	</g>
</g>
<g id="WAISTBAND">
	<g id="PATTERN_6_B" display="none">
		<g display="inline">
			<path fill="#00AD5D" d="M285.2,661.8c-41.9,0-81.8,3.6-98.3,5.2c-0.4,2.5-0.8,5.2-0.8,6.2c0,1.1-0.3,3.9-0.9,5.7
				c-0.6,1.8-0.1,4.4-0.1,4.4s23-2.3,67.8-3.3c25.6-0.6,53.8-0.8,77.6-0.8c17.8,0,33.1,0.2,43,0.5c23.1,0.7,39.8,1.6,39.8,1.6l1.2-1
				c0,0-1-12.3-1.2-14.9c0-0.2,0-0.5,0-0.8c-19-0.3-62.6-1.2-108.6-2.5C298.1,661.9,291.6,661.8,285.2,661.8"/>
		</g>
	</g>
	<g id="PATTERN_6_A" display="none">
		<g display="inline">
			<path fill="#FCBA33" d="M304.6,662.1c45.9,1.3,89.6,2.2,108.6,2.5c-0.1-3.2-0.1-10.4-0.3-11.9c-0.1-0.6-0.9-2.2-1.2-3.4
				c-0.3-1-0.1-1.8-0.1-1.8c-3.6-0.9-35.2,0.9-39.7,0.4c-4.5-0.4-25.1-2-31.8-0.4c-6.6,1.6-19-0.2-24.1-0.7
				c-5.1-0.4-10.4-1.3-10.4-1.3s-9,0.9-11.1,1.3c-2.1,0.4-10.2,0.9-36.2,0.4c-26-0.4-53.3,2.7-62.4,3.6c-2.8,0.3-4.7,0.6-6.1,1
				c-0.1,0.5-2.3,11.8-2.8,14.5c0,0.2-0.1,0.5-0.1,0.7C205.9,665.1,256.2,660.7,304.6,662.1z"/>
		</g>
	</g>
	<g id="PATTERN_5_A" display="none">
		<g display="inline">
			<path fill="#BB2145" d="M413,658.3c-15.8-0.1-54.6-0.5-95.7-0.8c-45.7-0.4-111.2,2.4-129.3,3.2c-0.5,2.4-0.9,4.6-1.1,5.6
				c-0.5,2.7-0.9,5.8-0.9,6.9c0,0.2,0,0.3,0,0.6c17-0.7,67.9-2.9,104.6-4c37.2-1.1,102.5,1.1,123,1.9c-0.2-2.7-0.4-5.2-0.5-6.3
				C413.1,664.1,413,661.1,413,658.3z"/>
		</g>
	</g>
	<g id="PATTERN_5_B" display="none">
		<g display="inline">
			<path fill="#FCBA33" d="M308.8,652c-40.4,0-96.5,2.5-119.8,3.7c-0.3,1.5-0.6,3.3-1,5c17-0.8,75.7-3.2,120.6-3.2c3,0,5.8,0,8.7,0
				c41.1,0.3,79.9,0.7,95.7,0.8c0-2.1-0.1-4.1-0.2-5.1C398.9,652.9,352.5,652,308.8,652"/>
			<path fill="#FCBA33" d="M314.2,669.6c-8.6,0-16.6,0.1-23.6,0.3c-36.6,1-87.6,3.2-104.6,4c-0.1,1.1-0.3,3-0.7,4.5
				c22.8-1.1,88.7-4.3,122.7-4.3c33.6,0,86.7,1.7,106,2.3c-0.1-1.4-0.3-3.1-0.4-4.7C396.9,671.1,350.8,669.6,314.2,669.6"/>
		</g>
	</g>
	<g id="PATTERN_5_C" display="none">
		<g display="inline">
			<path fill="#00AD5D" d="M307.9,674.1c-34,0-99.9,3.1-122.7,4.3c-0.1,0.2-0.1,0.4-0.2,0.6c-0.6,1.8-0.1,4.4-0.1,4.4
				s23-2.3,67.8-3.3c44.8-1,97.5-1.1,120.6-0.4c23.1,0.7,39.8,1.6,39.8,1.6l1.2-1c0,0-0.1-1.7-0.3-3.9
				C394.7,675.8,341.5,674.1,307.9,674.1z"/>
			<path fill="#00AD5D" d="M412.8,653.2c0-0.2,0-0.4,0-0.5c-0.1-0.6-0.9-2.2-1.2-3.4c-0.3-1-0.1-1.8-0.1-1.8
				c-3.6-0.9-35.2,0.9-39.7,0.4c-4.5-0.4-25.1-2-31.8-0.4c-6.6,1.6-19-0.2-24.1-0.7c-5.1-0.4-10.4-1.3-10.4-1.3s-9,0.9-11.1,1.3
				c-2.1,0.4-10.2,0.9-36.2,0.4c-26-0.4-53.3,2.7-62.4,3.6c-2.8,0.3-4.7,0.6-6.1,1c0,0.2-0.3,1.8-0.8,3.9
				c23.4-1.2,79.5-3.7,119.8-3.7C352.5,652,398.9,652.9,412.8,653.2z"/>
		</g>
	</g>
	<g id="PATTERN_4_B" display="none">
		<g display="inline">
			<path fill="#54001E" d="M307.6,660c37.3,0.2,92.2,0.9,105.3,1c0-2.3-0.1-4.9-0.1-6.5c-10.5,0-71.6,0.1-110.5-0.6
				c-37.6-0.7-99.5,2.6-113.7,3.4c-0.4,1.9-0.8,4.1-1.1,5.8C198.3,662.6,268.3,659.8,307.6,660z"/>
			<path fill="#54001E" d="M317.5,672.5c46.9,0.2,84.7,1.1,96.1,1.4c-0.2-2.3-0.4-4.7-0.5-6.4c-13.4-0.3-58.7-1.4-101.1-1.4
				c-45.9,0-113.8,2.8-125.7,3.3c-0.3,1.7-0.5,3.3-0.5,4c0,0.6-0.1,1.6-0.3,2.7C199.6,675.5,267.3,672.3,317.5,672.5z"/>
		</g>
	</g>
	<g id="PATTERN_4_A" display="none">
		<g display="inline">
			<path fill="#FEC43A" d="M305.4,645.7c0,0-9,0.9-11.1,1.3c-1.5,0.3-6,0.6-17.7,0.6c-4.8,0-10.9-0.1-18.5-0.2c-1.7,0-3.4,0-5.2,0
				c-24.4,0-48.7,2.8-57.3,3.6c-2.8,0.3-4.7,0.6-6.1,1c0,0.2-0.5,2.5-1,5.2c12.8-0.7,64.4-3.5,102-3.5c4.1,0,8.1,0,11.8,0.1
				c28.4,0.6,68.8,0.7,92.5,0.7c8.7,0,15.2,0,18,0c0-0.7-0.1-1.3-0.1-1.6c-0.1-0.5-0.9-2.2-1.2-3.4c-0.3-1-0.1-1.8-0.1-1.8
				c-0.7-0.2-2.7-0.3-5.3-0.3c-4.3,0-10.6,0.2-16.6,0.4c-6,0.2-11.8,0.4-15.2,0.4c-1.1,0-2,0-2.5-0.1c-3-0.3-13.6-1.1-22.1-1.1
				c-4,0-7.5,0.2-9.6,0.7c-1.9,0.5-4.4,0.6-7,0.6c-6.3,0-13.5-1-17.1-1.3C310.7,646.6,305.4,645.7,305.4,645.7"/>
			<path fill="#FEC43A" d="M313.2,672.5c-49.7,0-114,3-127.6,3.7c-0.2,1-0.4,2.1-0.7,3c-0.6,1.8-0.1,4.4-0.1,4.4s23-2.3,67.8-3.3
				c25.6-0.6,53.8-0.8,77.6-0.8c17.8,0,33.1,0.2,43,0.5c23.1,0.7,39.8,1.6,39.8,1.6l1.2-1c0,0-0.3-3.2-0.6-6.7
				c-11.3-0.3-49.2-1.2-96.1-1.4C316.1,672.5,314.6,672.5,313.2,672.5"/>
			<path fill="#FEC43A" d="M303.6,660c-39.8,0-105.6,2.7-116.2,3.1c-0.3,1.5-0.5,2.8-0.6,3.4c-0.2,0.9-0.3,2-0.5,2.9
				c11.9-0.5,79.8-3.3,125.7-3.3c42.4,0,87.7,1,101.1,1.4c-0.1-0.8-0.1-1.4-0.1-1.8c0-1-0.1-2.7-0.1-4.7c-13.1-0.2-68-0.8-105.3-1
				C306.3,660,304.9,660,303.6,660"/>
		</g>
	</g>
	<g id="PATTERN_3_C" display="none">
		<g display="inline">
			<path d="M303.6,668.5c-40.2,0-98.5,3.2-117.8,4.3c0,0.3,0,0.5,0,0.7c0,1.1-0.3,3.9-0.9,5.7c-0.6,1.8-0.1,4.4-0.1,4.4
				s23-2.3,67.8-3.3c44.8-1,97.5-1.1,120.6-0.4c23.1,0.7,39.8,1.6,39.8,1.6l1.2-1c0,0-0.4-4.8-0.7-9
				C394.7,670.7,343,668.5,303.6,668.5z"/>
		</g>
	</g>
	<g id="PATTERN_3_B" display="none">
		<g display="inline">
			<path fill="#BB2145" d="M413.3,671.6c-0.2-2.6-0.4-4.9-0.4-5.9c-0.1-1.3-0.1-4.2-0.1-6.9c-20.7-1.1-81.5-4-116.3-2.6
				c-35.9,1.4-92.3,4.3-108.8,5.2c-0.4,2.2-0.8,4.3-1,5.2c-0.4,2.2-0.8,4.8-0.9,6.2c19.3-1.1,77.7-4.3,117.8-4.3
				C343,668.5,394.7,670.7,413.3,671.6z"/>
		</g>
	</g>
	<g id="PATTERN_3_A" display="none">
		<g display="inline">
			<path fill="#FCBA33" d="M412.7,658.8c0-2.6-0.1-5-0.2-5.9c-0.1-0.6-0.9-2.2-1.2-3.4c-0.3-1-0.1-1.8-0.1-1.8
				c-3.6-0.9-35.2,0.9-39.7,0.4c-4.5-0.4-25.1-2-31.8-0.4c-6.6,1.6-19-0.2-24.1-0.7c-5.1-0.4-10.4-1.3-10.4-1.3s-9,0.9-11.1,1.3
				c-2.1,0.4-10.2,0.9-36.2,0.4c-26-0.4-53.3,2.7-62.4,3.6c-2.8,0.3-4.7,0.6-6.1,1c-0.1,0.3-1,5.2-1.8,9.3
				c16.5-0.9,72.9-3.7,108.8-5.2C331.2,654.8,392,657.7,412.7,658.8z"/>
		</g>
	</g>
	<g id="PATTERN_2_B" display="none">
		<path display="inline" fill="#FCBA33" d="M413.6,672.3c-0.2-2.6-0.4-4.9-0.4-5.9c-0.1-1.3-0.1-4.2-0.1-6.9
			c-20.7-1.1-81.5-4-116.3-2.6c-35.9,1.4-92.3,4.3-108.8,5.2c-0.4,2.2-0.8,4.3-1,5.2c-0.4,2.2-0.8,4.8-0.9,6.2
			c19.3-1.1,77.7-4.3,117.8-4.3C343.3,669.2,395,671.4,413.6,672.3z"/>
	</g>
	<g id="PATTERN_2_A" display="none">
		<g display="inline">
			<path fill="#BB2145" d="M305.6,646.4c0,0-9,0.9-11.1,1.3c-1.5,0.3-6,0.6-17.7,0.6c-4.8,0-10.9-0.1-18.5-0.2c-1.7,0-3.4,0-5.2,0
				c-24.4,0-48.7,2.8-57.3,3.6c-2.8,0.3-4.7,0.6-6.1,1c-0.1,0.3-1,5.2-1.8,9.3c16.5-0.9,72.9-3.7,108.8-5.2c6.5-0.3,14-0.4,21.9-0.4
				c34.3,0,77.6,2.1,94.4,3c0-2.6-0.1-5-0.2-5.9c-0.1-0.6-0.9-2.2-1.2-3.4c-0.3-1-0.1-1.8-0.1-1.8c-0.7-0.2-2.7-0.3-5.3-0.3
				c-4.3,0-10.6,0.2-16.7,0.4c-6,0.2-11.8,0.4-15.2,0.4c-1.1,0-2,0-2.5-0.1c-3-0.3-13.6-1.1-22.1-1.1c-4,0-7.5,0.2-9.6,0.7
				c-1.9,0.5-4.4,0.6-7,0.6c-6.3,0-13.5-1-17.1-1.3C310.9,647.3,305.6,646.4,305.6,646.4"/>
			<path fill="#BB2145" d="M303.9,669.2c-40.2,0-98.5,3.2-117.8,4.3c0,0.3,0,0.5,0,0.7c0,1.1-0.3,3.9-0.9,5.7
				c-0.6,1.8-0.1,4.4-0.1,4.4s23-2.3,67.8-3.3c25.6-0.6,53.8-0.8,77.5-0.8c17.8,0,33.2,0.2,43,0.5c23.1,0.7,39.8,1.6,39.8,1.6l1.2-1
				c0,0-0.4-4.8-0.7-9C395,671.4,343.3,669.2,303.9,669.2"/>
		</g>
	</g>
	<g id="PATTERN_1_A_2_">
		<g>
			<path fill="#877E75" d="M305,645.9c0,0-9,0.9-11.1,1.3c-1.5,0.3-6,0.6-17.7,0.6c-4.8,0-10.9-0.1-18.5-0.2c-1.7,0-3.4,0-5.2,0
				c-24.4,0-48.7,2.8-57.3,3.6c-2.8,0.3-4.7,0.6-6.1,1c-0.1,0.5-2.3,11.8-2.8,14.5c-0.5,2.7-0.9,5.8-0.9,6.9c0,1.1-0.3,3.9-0.9,5.7
				c-0.6,1.8-0.1,4.4-0.1,4.4s23-2.3,67.8-3.3c25.6-0.6,53.8-0.8,77.5-0.8c17.8,0,33.2,0.2,43.1,0.5c23.1,0.7,39.8,1.6,39.8,1.6
				l1.2-1c0,0-1-12.3-1.2-14.9c-0.1-2.6-0.1-11.1-0.3-12.8c-0.1-0.6-0.9-2.2-1.2-3.4c-0.3-1-0.1-1.8-0.1-1.8
				c-0.7-0.2-2.7-0.3-5.3-0.3c-4.3,0-10.6,0.2-16.6,0.4c-6,0.2-11.8,0.4-15.2,0.4c-1.1,0-2,0-2.5-0.1c-3-0.3-13.6-1.1-22.1-1.1
				c-4,0-7.5,0.2-9.6,0.7c-1.9,0.5-4.4,0.6-7,0.6c-6.3,0-13.5-1-17.1-1.3C310.3,646.8,305,645.9,305,645.9"/>
		</g>
	</g>
</g>
<g id="SHADING">
	<linearGradient id="SVGBACKID_1_" gradientUnits="userSpaceOnUse" x1="193.8512" y1="295.007" x2="331.4112" y2="295.007">
		<stop  offset="0" style="stop-color:#ADB0AD"/>
		<stop  offset="1" style="stop-color:#000000"/>
	</linearGradient>
	<path opacity="6.000000e-002" fill="url(#SVGBACKID_1_)" d="M193.9,322c0,0,19.9-10,25.8-11.4c5.9-1.4,24.9-8.5,28.5-9.5
		c3.6-0.9,18.6-5,22.4-5c3.8,0,10.6-0.2,13.6-0.2c2.9,0,26.9,0.7,29.9,0.7c2.9,0,17.4-0.9,17.4-0.9s-5.8-0.8-6.3-1.9
		c-0.6-1.4-1.6-2.6-2.7-3.1c-1.1-0.5-4.8-1.2-6.8-0.9c-2,0.2-3.6-3.3-7.2-1c-3.6,2.4-7.7,2.8-8.6,1.2c-0.9-1.7-3.4-6.2-3.4-6.2
		s6.6-2.8,6.6-7.4c0-4.5-2.7-8.3-2.7-8.3s-0.9,8.5-4.8,10.7c-3.8,2.1-6.1,4.7-7,5.7c-0.9,0.9-2.5,5-2.5,5s-0.7-0.5-7.5-0.5
		c-6.8,0-9.1,0.7-12,1.2c-2.9,0.5-10.9,2.4-10.9,2.4s14,0,15.4-0.2c1.4-0.2,9.5-1.2,9.5-1.2l3.4,1.4l-2.5,1.4c0,0-18.8,1.7-26.9,3.8
		c-8.1,2.1-19.5,4.7-19.5,4.7s-17.2,5.2-18.8,5.5c-1.6,0.2-6.8,2.4-6.8,2.4l10.2-1.9c0,0-3.4,1.4-4.1,1.9
		C214.9,310.8,193.9,322,193.9,322z"/>
	<linearGradient id="SVGBACKID_2_" gradientUnits="userSpaceOnUse" x1="325.7551" y1="355.191" x2="443.405" y2="355.191">
		<stop  offset="0" style="stop-color:#ADB0AD"/>
		<stop  offset="1" style="stop-color:#000000"/>
	</linearGradient>
	<path opacity="6.000000e-002" fill="url(#SVGBACKID_2_)" d="M336.2,296.3c0,0,59.5,23.5,71.9,38.5c12.4,15,35.3,60.3,35.3,60.3
		l-2.7,19.5c0,0-11.8-2.8-12.9-6.9c-1.1-4-15.8-43.6-25.6-60.1c-16.1-27.1-50.2-37.5-53.4-38.7c-3.2-1.2-23.1-13.1-23.1-13.1
		L336.2,296.3z"/>
	<linearGradient id="SVGBACKID_3_" gradientUnits="userSpaceOnUse" x1="400.2114" y1="386.9334" x2="440.2617" y2="469.8949">
		<stop  offset="0" style="stop-color:#ADB0AD"/>
		<stop  offset="1" style="stop-color:#000000"/>
	</linearGradient>
	<path opacity="6.000000e-002" fill="url(#SVGBACKID_3_)" d="M440.7,414.5c0,0-9.3-2.3-12.5-5.5c0,0-1.4,3.6-15.7-2.6
		c-5.4-2.4,17.4,108.5,24.2,110.7c6.8,2.1,2.3-40.1,1.4-56.3c-0.9-16.1,1.4-32.5,1.8-37.5C440.2,418.3,440.7,414.5,440.7,414.5z"/>
	<linearGradient id="SVGBACKID_4_" gradientUnits="userSpaceOnUse" x1="374.1445" y1="372.7812" x2="428.032" y2="372.7812">
		<stop  offset="0" style="stop-color:#ADB0AD"/>
		<stop  offset="1" style="stop-color:#000000"/>
	</linearGradient>
	<path opacity="4.000000e-002" fill="url(#SVGBACKID_4_)" d="M374.2,335.5c-0.9,2.6,20.6,19.2,28.7,38.5c8.1,19.2,11.8,24.5,10.6,26.6
		c-1.1,2.1-1.1,5.7-1.1,5.7s17.9,7.6,15.4,1.4c-2.5-6.2-12.4-35.4-25.8-49.1C388.7,344.7,374.2,335.5,374.2,335.5z"/>
	<linearGradient id="SVGBACKID_5_" gradientUnits="userSpaceOnUse" x1="477.9773" y1="415.918" x2="452.9903" y2="495.6372">
		<stop  offset="0" style="stop-color:#ADB0AD"/>
		<stop  offset="1" style="stop-color:#000000"/>
	</linearGradient>
	<path opacity="6.000000e-002" fill="url(#SVGBACKID_5_)" d="M471.5,430.2c2.5-1.2-0.5,15.2-4.5,24.2c-4.1,9-16.7,26.8-16.1,28
		c0.7,1.2,22.6,5.2,23.1,7.1c0.5,1.9-5,10-5.2,12.6c-0.2,2.6-0.9,10.4-2.9,11.2c-2,0.7-12,2.8-15.2,5c-3.2,2.1-5,3.8-6.3,4.5
		c-1.4,0.7-4.5,1.4-4.5,1.4s0.9-27.1,0.5-34.4c-0.5-7.4-1.1-11.9-0.5-13.5c0.7-1.7,14.3-16.1,15.6-19.2c1.4-3.1,8.8-8.1,11.1-15.9
		C468.7,433.3,471.5,430.2,471.5,430.2z"/>
	<linearGradient id="SVGBACKID_6_" gradientUnits="userSpaceOnUse" x1="467.9423" y1="411.369" x2="470.9315" y2="514.8105">
		<stop  offset="0" style="stop-color:#ADB0AD"/>
		<stop  offset="1" style="stop-color:#000000"/>
	</linearGradient>
	<path opacity="6.000000e-002" fill="url(#SVGBACKID_6_)" d="M439,528.5c0,0,29.5,2.6,36.1-2.2c6.6-4.7,22.2-23,21.2-39.4
		c-1-16.4,4.9-31.4,5.2-36.5c0.3-5.1-1.4-27.3-3.8-32.1c-2.4-4.7-8.3-18.2-10.8-16.8c-2.4,1.5,2.4,44.8,2.1,51
		c-0.3,6.2,1.7,33.9-1.4,40.1c-3.1,6.2-10.1,16-16.7,17.9c-6.6,1.8-1.5,0.3-5.2,2.7c-2.8,1.8-11.9,3.2-14.1,4.3
		c-3.1,1.6-4.8,4.3-6.8,5.1c-3.8,1.4-5.5,1.4-5.5,1.4C438,527.4,439,528.5,439,528.5z"/>
	
		<radialGradient id="SVGBACKID_7_" cx="409.9557" cy="493.1569" r="62.3127" gradientTransform="matrix(1 0 0 1.0493 0 -15.4987)" gradientUnits="userSpaceOnUse">
		<stop  offset="0" style="stop-color:#ADB0AD"/>
		<stop  offset="1" style="stop-color:#000000"/>
	</radialGradient>
	<path opacity="6.000000e-002" fill="url(#SVGBACKID_7_)" d="M434.5,577.4c0,0-14.2-38.6-10.4-50.3c3.8-11.7,13.7,0.7,13.7,0.7l-5.7,19
		c0,0,5.6,15.3,5.6,17.9C437.7,567.2,434.5,577.4,434.5,577.4z"/>
	
		<radialGradient id="SVGBACKID_8_" cx="388.3097" cy="579.7454" r="38.7027" gradientTransform="matrix(1 0 0 1.0493 0 -15.4987)" gradientUnits="userSpaceOnUse">
		<stop  offset="0" style="stop-color:#ADB0AD"/>
		<stop  offset="1" style="stop-color:#000000"/>
	</radialGradient>
	<path opacity="6.000000e-002" fill="url(#SVGBACKID_8_)" d="M419.6,635.4c0,0-36.1-17.5-39.6-19.7c-3.5-2.2-20.8-16.8-20.8-23
		s4.9-8.8,9.7-5.8c4.9,2.9,26.4,17.5,33,13.1c6.6-4.4,22.6-19.3,25-19.3s4.4,8,4.4,8s-4.7,10.6-4.7,13.1c0,2.6-0.7,11.1-1.7,11.9
		c-2.8,2.2-2.9,11.3-3.6,12.8C420.5,627.9,419.6,635.4,419.6,635.4z"/>
	
		<radialGradient id="SVGBACKID_9_" cx="474.8962" cy="533.0335" r="49.2182" gradientTransform="matrix(1 0 0 1.0493 0 -15.4987)" gradientUnits="userSpaceOnUse">
		<stop  offset="0" style="stop-color:#ADB0AD"/>
		<stop  offset="1" style="stop-color:#000000"/>
	</radialGradient>
	<path opacity="6.000000e-002" fill="url(#SVGBACKID_9_)" d="M453.3,553.8c0,0,18.4-5.2,20.8-6.3c2.4-1.1,33-0.7,36.5-0.7
		c3.5,0,3.5-2.2,8.3,0.7c4.9,2.9,17.4,9.1,19.1,8.4c1.7-0.7,4.4,1.2,4.4,1.2s-4.7,11.4-5.8,12.9c-1,1.5-6.1,10.1-6.5,11.2
		c-0.3,1.1-5,7.5-5,7.5s-7.6,7.7-12.2,8c-4.5,0.4-15.3,2.6-13.9,0c1.4-2.6-1-5.1,9-9.5c10.1-4.4,19.1-13.9,19.1-13.9
		s-2.4-4.7-5.9-1.5c-3.5,3.3-19.1,17.5-27.5,19.3c-8.3,1.8-9.7,7.7-17.4,4.4c-7.6-3.3-4.5-5.8-10.1-6.2c-5.6-0.4-8.3,1.1-8.3-1.1
		c0-2.2,2.8-6.2,2.8-6.2s-3.5,1.1-3.8-1.1c-0.3-2.2,0.3-4,0.3-4s-4.5-4.7-4.5-6.9c0-2.2,0.7-6.7,0.7-6.7L453.3,553.8z"/>
	<linearGradient id="SVGBACKID_10_" gradientUnits="userSpaceOnUse" x1="466.8972" y1="575.7521" x2="489.0348" y2="624.1058">
		<stop  offset="0" style="stop-color:#ADB0AD"/>
		<stop  offset="1" style="stop-color:#000000"/>
	</linearGradient>
	<path opacity="6.000000e-002" fill="url(#SVGBACKID_10_)" d="M503.7,604.7c-1-1.1-10.8,9.5-14.2,11.3c-3.5,1.8-15.3,5.5-15.3,5.5
		s9-6.9,4.9-6.9c-4.2,0-10.4-0.4-12.9,1.1c-2.4,1.5-3.8,1.5-3.8,1.5l10.1-5.5c0,0-2.4-2.2-4.5-2.9c-2.1-0.7-9-1.5-9-1.5V604
		c0,0,14.6,5.1,16,2.2c1.4-2.9,6.3-6.2,11.5-5.8C491.5,600.7,503.7,604.7,503.7,604.7z"/>
	
		<radialGradient id="SVGBACKID_11_" cx="462.3637" cy="608.2292" r="50.0905" gradientTransform="matrix(1 0 0 1.0493 0 -15.4987)" gradientUnits="userSpaceOnUse">
		<stop  offset="0" style="stop-color:#ADB0AD"/>
		<stop  offset="1" style="stop-color:#000000"/>
	</radialGradient>
	<path opacity="6.000000e-002" fill="url(#SVGBACKID_11_)" d="M522.8,616.4c0,0-6.9,8-9.7,10.6c-2.8,2.6-6.3,8-8.3,8.8
		c-2.1,0.7-5.2,2.9-6.3,3.3c-1,0.4-10.4,1.8-14.9,1.8c-4.5,0-7.3-0.4-11.3-2.9c-3.1-2-6.1-6.9-6.1-6.9s22.2-8.4,30.6-12.4
		c8.3-4,15.6-6.6,17.7-9.1c2.1-2.6,5.9-8.4,5.9-8.4l-4.2,12.4L522.8,616.4z"/>
	<linearGradient id="SVGBACKID_12_" gradientUnits="userSpaceOnUse" x1="242.7601" y1="626.6278" x2="426.198" y2="626.6278">
		<stop  offset="0" style="stop-color:#ADB0AD"/>
		<stop  offset="1" style="stop-color:#000000"/>
	</linearGradient>
	<path opacity="6.000000e-002" fill="url(#SVGBACKID_12_)" d="M356,596.3c0,0,3.8,20.4,32.7,32.1c11.6,4.7,17.4,9.1,23.6,9.8
		c6.3,0.7,13.9,3.3,13.9,3.3s0.3,3.6-2.6,4.4c-2.6,0.6-5.4,1.1-7.5,0.7c-2.1-0.4-4.9-1.1-4.9-1.1s-0.7,2.6,0,4
		c0.7,1.5,2.1,5.8,1.4,6.9c-0.7,1.1-25.7,0-37.5-2.9c-11.8-2.9-36.5-3.6-44.8-2.9c-8.3,0.7-18.1-2.9-22.6-7.3
		c-4.5-4.4-6.6-10.2-12.9-5.8c-6.3,4.4-16,7.3-18.4,7.3c-2.4,0-13.6-1.8-15.3-3.6c-1.7-1.8-3.8-10.9-13.2-6.2
		c-9.4,4.7-4.2-4.4,1.4-4.4s31.3,2.2,34.4,1.8c3.1-0.4,16.3-3.6,24,0.7c7.6,4.4,51.4,5.1,52.8,5.5s16.7-4.7,16.7-4.7
		s-13.9-7.7-25.4-9.1c-11.5-1.5-16.7-5.5-16.7-5.5l-5.6-4.7c0,0,12.5-1.5,18.4-5.1C353.9,605.8,356,596.3,356,596.3z"/>
	
		<radialGradient id="SVGBACKID_13_" cx="260.3846" cy="607.9368" r="72.4462" gradientTransform="matrix(1 0 0 1.0493 0 -15.4987)" gradientUnits="userSpaceOnUse">
		<stop  offset="0" style="stop-color:#ADB0AD"/>
		<stop  offset="1" style="stop-color:#000000"/>
	</radialGradient>
	<path opacity="6.000000e-002" fill="url(#SVGBACKID_13_)" d="M172.5,645.2c0,0-8-14.2,1.4-16.4c9.4-2.2,35.8-3.6,50.7-4
		c14.9-0.4,43.1,1.1,53.2,2.9c10.1,1.8,22.6,1.1,31.6,0.7c9-0.4,8-2.9,17.4-1.5c9.4,1.5,33.7,6.6,33.7,6.6s-7.6-2.6-8.7-3.6
		c-1-1.1-12.2-5.1-14.2-5.1c-2.1,0-17.7-3.3-17.7-3.3s-13.2,1.8-23.6,1.5c-10.4-0.4-11.1,1.1-19.5-1.5c-8.3-2.6-13.2-4-23.3-4
		c-10.1,0-27.1-1.5-37.2-2.6c-10.1-1.1-11.5,0.7-18.8-3.3c-7.3-4-13.9-7.3-13.9-7.3l-2.8-4.7c0,0-3.8,0.7-4.5,4
		c-0.7,3.3-0.7,8-0.7,8s-14.8,3-15.3,8.8C159,635.5,172.5,645.2,172.5,645.2z"/>
	
		<radialGradient id="SVGBACKID_14_" cx="244.2686" cy="547.5086" r="58.2007" gradientTransform="matrix(1 0 0 1.0493 0 -15.4987)" gradientUnits="userSpaceOnUse">
		<stop  offset="0" style="stop-color:#ADB0AD"/>
		<stop  offset="1" style="stop-color:#000000"/>
	</radialGradient>
	<path opacity="6.000000e-002" fill="url(#SVGBACKID_14_)" d="M190.9,602.2c0,0,30.6-4.4,44.1-12.4c13.6-8,24.3-22.6,24.3-22.6
		s-12.9,3.3-26.1,1.1c-13.2-2.2-26.1-0.7-26.1-4c0-3.3,6.3-10.6,6.3-13.1c0-2.6-0.7-10.2-0.7-10.2s-12.5,19.7-12.5,22.6
		c0,2.9-4.2,18.2-7.3,23c-3.1,4.7-6.6,11.6-10.4,14.2C178.8,603.2,190.9,602.2,190.9,602.2z"/>
	<linearGradient id="SVGBACKID_15_" gradientUnits="userSpaceOnUse" x1="163.4744" y1="542.6768" x2="198.9295" y2="542.6768">
		<stop  offset="0" style="stop-color:#ADB0AD"/>
		<stop  offset="1" style="stop-color:#000000"/>
	</linearGradient>
	<path opacity="6.000000e-002" fill="url(#SVGBACKID_15_)" d="M165.2,603.9c0,0,9.7-4.3,18.4-18.1c8.7-13.9,15.3-25.9,15.3-25.9
		s-8.3-2.2-13.2-8.4c-4.9-6.2-6.9-11.7-6.9-11.7s12.5,10.2,14.6,3.3c2.1-6.9,3.5-21.9,3.8-24.8c0.3-2.9,1.4-4.7,1.4-4.7
		s-10.1-1.1-11.1,0c-1,1.1,4.5-10.2,6.6-14.2c2.1-4,4.5-6.9,3.1-9.1c-1.4-2.2-7.3-2.2-9.7-2.9c-2.4-0.7-6.6-1.1-7.3-2.6
		c-0.7-1.5-4.9-3.3-4.9-3.3s-1.3,30.5-4.5,45.1c-1.8,8.1-5.9,23.8-6.6,30c-0.4,3.4-1,17.2-0.6,28.9
		C163.9,595.4,165.2,603.9,165.2,603.9z"/>
	<linearGradient id="SVGBACKID_16_" gradientUnits="userSpaceOnUse" x1="221.9701" y1="365.3041" x2="189.9408" y2="437.0734">
		<stop  offset="0" style="stop-color:#ADB0AD"/>
		<stop  offset="1" style="stop-color:#000000"/>
	</linearGradient>
	<path opacity="6.000000e-002" fill="url(#SVGBACKID_16_)" d="M220.5,388.5c0,0-5.6-6.2-9.7-4.7c-4.2,1.5-11.8,12-12.5,17.5
		c-0.7,5.5,1.4,10.6-1.7,10.9c-3.1,0.4-7.3-2.2-7.3-2.2s-1.4,6.6,1.7,6.9c3.1,0.4,4.9,6.9,4.9,6.9s-2.8,1.8-3.8,6.2
		c-1,4.4,1.4,5.5,1.4,5.5s5.6,0,8.7-5.1c3.1-5.1,9-12,9-12s-1-12,2.4-19.3C217,391.8,220.5,388.5,220.5,388.5z"/>
	<linearGradient id="SVGBACKID_17_" gradientUnits="userSpaceOnUse" x1="266.0554" y1="340.1155" x2="233.867" y2="520.7288">
		<stop  offset="0" style="stop-color:#ADB0AD"/>
		<stop  offset="1" style="stop-color:#000000"/>
	</linearGradient>
	<path opacity="6.000000e-002" fill="url(#SVGBACKID_17_)" d="M282.3,342.2c0,0-35.4,52.5-37.2,59.8c-1.7,7.3-10.8,66-15.3,89
		c-4.5,23-17.7,58.3-17.7,58.3s9.7,3.6,21.2-23.7c11.5-27.3,14.9-54,14.6-69.6c-0.3-15.7,4.2-37.9,6.3-46.7
		C256.3,400.5,282.3,342.2,282.3,342.2z"/>
	<linearGradient id="SVGBACKID_18_" gradientUnits="userSpaceOnUse" x1="195.5822" y1="339.3528" x2="175.2887" y2="458.7249">
		<stop  offset="0" style="stop-color:#ADB0AD"/>
		<stop  offset="1" style="stop-color:#000000"/>
	</linearGradient>
	<path opacity="6.000000e-002" fill="url(#SVGBACKID_18_)" d="M204.8,342.9c0,0-19.5,22.6-20.8,47.8c-1.4,25.2,0.3,59.4-0.7,70
		c-1,10.6-3.8,21.1-3.8,21.1s-2.1-64.5-3.1-79.1c-1-14.6,6.3-35,11.5-44.1C193,349.5,204.8,342.9,204.8,342.9z"/>
	<linearGradient id="SVGBACKID_19_" gradientUnits="userSpaceOnUse" x1="294.1142" y1="552.4951" x2="319.5092" y2="622.7739">
		<stop  offset="0" style="stop-color:#ADB0AD"/>
		<stop  offset="1" style="stop-color:#000000"/>
	</linearGradient>
	<path opacity="6.000000e-002" fill="url(#SVGBACKID_19_)" d="M311.9,559.5c5.6,1.8,30.2,37.2,32.7,39c2.4,1.8,0.7,4.4-0.3,4.4
		c-1,0-24.3-24.1-30.2-17.9c-5.9,6.2-7.6,25.9-11.1,29.2c-3.5,3.3-18.4,6.6-18.4,6.6s13.2-23.3,16-35.7c2.8-12.4,5.9-24.4,5.9-24.4
		L311.9,559.5z"/>
	
		<radialGradient id="SVGBACKID_20_" cx="402.5515" cy="550.0806" r="26.5669" gradientTransform="matrix(1 0 0 1.0493 0 -15.4987)" gradientUnits="userSpaceOnUse">
		<stop  offset="0" style="stop-color:#ADB0AD"/>
		<stop  offset="1" style="stop-color:#000000"/>
	</radialGradient>
	<path opacity="6.000000e-002" fill="url(#SVGBACKID_20_)" d="M418.2,580.3c0,0-18.4-13.1-17.4-14.6c1-1.5,9.7-3.3,11.8-10.9
		c2.1-7.7,4.2-10.9,5.9-16.8c1.7-5.8,3.9-7.9,3.9-7.9s2.8,19.8,7.6,34.5c1.1,3.5,1.7,11.3,2.7,12.8c1,1.5,1,4.7-1.4,3.3
		c-2.4-1.5-4.5-2.6-6.3-2.6C423.4,578.1,418.2,580.3,418.2,580.3z"/>
	<linearGradient id="SVGBACKID_21_" gradientUnits="userSpaceOnUse" x1="518.7286" y1="522.4916" x2="525.9171" y2="542.2607">
		<stop  offset="0" style="stop-color:#ADB0AD"/>
		<stop  offset="0.57" style="stop-color:#343434"/>
		<stop  offset="1" style="stop-color:#000000"/>
	</linearGradient>
	<path opacity="6.000000e-002" fill="url(#SVGBACKID_21_)" d="M523.5,521.8c0,0-4.9,7.4-4.5,12.5c0.3,5.1,2.1,7.7,2.1,7.7
		s-0.7-6.2,1.4-9.5c2.1-3.3,2.8-5.1,2.8-5.1L523.5,521.8z"/>
	
		<radialGradient id="SVGBACKID_22_" cx="121.1437" cy="422.518" r="86.1157" gradientTransform="matrix(1 0 0 1.0493 0 -15.4987)" gradientUnits="userSpaceOnUse">
		<stop  offset="0" style="stop-color:#ADB0AD"/>
		<stop  offset="1" style="stop-color:#000000"/>
	</radialGradient>
	<path opacity="6.000000e-002" fill="url(#SVGBACKID_22_)" d="M101.6,465.1c0,0,5.2,14.6,11.1,20.1c5.9,5.5,26.8,21.1,30.9,21.5
		c4.2,0.4,7.3,2.2,7.3,2.2l4.2,9.8c0,0,8.9-4.1,9-7.5c0.1-2.2-0.4-4.1-0.4-4.1s2.5-0.3,5.3-1.8c2.8-1.5,5.3-3.6,5.3-3.6l1-18.3
		c0,0-3.4,12.3-6.6,11.2c-3.1-1.1-12.9-5.8-16.3-10.9c-3.5-5.1-8.3-6.2-10.4-8.8c-2.1-2.6-10.4-15.7-12.2-14.2
		c-1.7,1.5-1.4,7.3,1.4,10.2c2.8,2.9,7.6,9.5,7.6,9.5s-3.8,1.8-3.1,4.4c0.7,2.6,4.2,3.3,4.2,3.3l5.6,4l8.3,8.4c0,0-4.2,2.6-6.9,1.1
		c-2.8-1.5-8.7-5.1-8.7-5.1l-7-5.5l-4.2-1.5l-6.3-2.9l-6.6-5.1l-5.2-2.9c0,0,1.4-9.5-0.7-12.8C106.2,462.5,101.6,465.1,101.6,465.1z
		"/>
	<linearGradient id="SVGBACKID_23_" gradientUnits="userSpaceOnUse" x1="109.2478" y1="458.326" x2="132.2122" y2="458.326">
		<stop  offset="0" style="stop-color:#ADB0AD"/>
		<stop  offset="1" style="stop-color:#000000"/>
	</linearGradient>
	<path opacity="6.000000e-002" fill="url(#SVGBACKID_23_)" d="M109.3,425.3c-0.7,2.9,10.8,38.7,11.8,44.1c1,5.5,11.1,23,11.1,23
		s-4.2-18.2-6.6-23.3c-2.4-5.1-5.2-14.2-7.3-22.2c-2.1-8-6.9-22.6-6.9-22.6L109.3,425.3z"/>
	<linearGradient id="SVGBACKID_24_" gradientUnits="userSpaceOnUse" x1="102.3283" y1="496.6609" x2="120.6817" y2="496.6609">
		<stop  offset="0" style="stop-color:#ADB0AD"/>
		<stop  offset="1" style="stop-color:#000000"/>
	</linearGradient>
	<path opacity="6.000000e-002" fill="url(#SVGBACKID_24_)" d="M102.3,476.7l10.1,11.3c0,0,10.1,27,8,28.4c-2.1,1.5-15.6-13.9-15.6-16.4
		C104.8,497.5,102.3,476.7,102.3,476.7z"/>
	<linearGradient id="SVGBACKID_25_" gradientUnits="userSpaceOnUse" x1="78.3518" y1="519.0718" x2="140.8995" y2="519.0718">
		<stop  offset="0" style="stop-color:#ADB0AD"/>
		<stop  offset="1" style="stop-color:#000000"/>
	</linearGradient>
	<path opacity="6.000000e-002" fill="url(#SVGBACKID_25_)" d="M125.6,516.5l15.3,19.7c0,0-4.9,1.8-13.2,2.9c-8.3,1.1-12.9,1.1-16.7-4
		c-3.8-5.1-12.5-10.6-18.4-12.8c-5.9-2.2-14.2-9.1-14.2-9.1s4.9-12.4,8.7-12.8c3.8-0.4,8.3-4,10.4-0.4c2.1,3.6,14.2,17.1,17.7,17.9
		c3.5,0.7,6.6,0.7,6.6,0.7L125.6,516.5z"/>
	<linearGradient id="SVGBACKID_26_" gradientUnits="userSpaceOnUse" x1="96.6848" y1="573.6697" x2="158.9688" y2="573.6697">
		<stop  offset="0" style="stop-color:#ADB0AD"/>
		<stop  offset="1" style="stop-color:#000000"/>
	</linearGradient>
	<path opacity="6.000000e-002" fill="url(#SVGBACKID_26_)" d="M159,522.6c0,0-4.5,12.5-9.7,13.6c-5.2,1.1-8.3,0-8.3,0
		s-0.3,10.2-8.3,10.9c-8,0.7-18.4,0.7-21.9,0c-3.5-0.7-11.8-2.6-11.8-0.7c0,1.8,4.5,7.7,11.1,11.7c6.6,4,23.3,13.1,22.6,14.9
		c-0.7,1.8-13.2,10.6-17.7,12.4c-4.5,1.8-17.7,4.4-18.1,6.2c-0.3,1.8,0.3,5.1,2.8,6.6c2.4,1.5,6.6,1.8,12.2,0.4
		c5.6-1.5,9.4-2.6,9.4-2.6s3.8-3.3,5.2-2.6c1.4,0.7,1.4,0.7,1.4,0.7s-0.3,3.3-2.8,4.4c-2.4,1.1-8,1.5-8,1.5s-7.6,14.6-7.3,18.2
		c0.3,3.6,3.5,6.6,3.5,6.6s5.9-1.1,8.7-5.5c2.8-4.4,7.6-9.8,7.6-9.8l4.5-0.7l2.8-1.1c0,0,0-2.9,0.3-6.1c0.5-3.8,1.4-8,1.4-9.6
		c0-2.9-0.3-9.8-0.3-9.8s7.6-10.9,9.7-15.3c0.7-1.5,0.8-4.2,1.6-6.8c1.5-5.2,3.7-11.2,4.6-14.3c1.4-4.7,3.1-13.7,3.5-15.6
		C157.9,528.3,159,522.6,159,522.6z"/>
	<linearGradient id="SVGBACKID_27_" gradientUnits="userSpaceOnUse" x1="99.7864" y1="636.8076" x2="117.6179" y2="636.8076">
		<stop  offset="0" style="stop-color:#ADB0AD"/>
		<stop  offset="1" style="stop-color:#000000"/>
	</linearGradient>
	<path opacity="6.000000e-002" fill="url(#SVGBACKID_27_)" d="M117.6,631.3c-0.7,1.8-2.1,1.5-3.8,3.3c-1.7,1.8-4.2,2.6-5.2,3.6
		c-1,1.1-4.2,4.4-4.2,4.4s-3.8,4.4-4.5,2.6c-0.7-1.8,2.1-10.2,3.5-12c1.4-1.8,4.9-5.8,7.3-5.1C113.1,628.8,117.6,631.3,117.6,631.3z
		"/>
	<linearGradient id="SVGBACKID_28_" gradientUnits="userSpaceOnUse" x1="109.9592" y1="630.8423" x2="136.3822" y2="630.8423">
		<stop  offset="0" style="stop-color:#ADB0AD"/>
		<stop  offset="1" style="stop-color:#000000"/>
	</linearGradient>
	<path opacity="6.000000e-002" fill="url(#SVGBACKID_28_)" d="M110,645.9c2.1,0.7,9.4-2.9,12.2-5.5c2.8-2.6,7.6-4.4,9.4-6.2
		c1.7-1.8,4.9-11.7,4.9-11.7l-2.1-2.6v-4.4c0,0-3.8,7.3-6.6,10.9c-2.8,3.6-5.9,7.3-7.3,8.7c-1.4,1.5-5.2,5.1-8,6.2
		C109.6,642.6,110,645.9,110,645.9z"/>
	<linearGradient id="SVGBACKID_29_" gradientUnits="userSpaceOnUse" x1="71.7497" y1="628.4249" x2="108.5829" y2="628.4249">
		<stop  offset="0" style="stop-color:#ADB0AD"/>
		<stop  offset="1" style="stop-color:#000000"/>
	</linearGradient>
	<path opacity="6.000000e-002" fill="url(#SVGBACKID_29_)" d="M88.1,608.7L85,625.9c0,0-2.1,1.8-4.2,0.4c-2.1-1.5-6.3-3.6-6.3-3.6
		s-2.8,9.8-2.8,11.3c0,1.5,3.5,5.8,6.9,7.3c3.5,1.5,13.6,6.9,13.6,6.9l-0.3-4c0,0,2.1,4,4.5,4c2.4,0,3.1-4.7,3.8-6.6
		c0.7-1.8,3.1-8.4,3.1-8.4l5.2-8l-0.7-8.8c0,0-6.6,2.9-10.8,1.5C92.9,616.4,88.1,608.7,88.1,608.7z"/>
	<linearGradient id="SVGBACKID_30_" gradientUnits="userSpaceOnUse" x1="72.0972" y1="604.8464" x2="87.0246" y2="604.8464">
		<stop  offset="0" style="stop-color:#ADB0AD"/>
		<stop  offset="1" style="stop-color:#000000"/>
	</linearGradient>
	<path opacity="6.000000e-002" fill="url(#SVGBACKID_30_)" d="M75.2,620.8l10.8-7.7c0,0,1.7-8.8,0.7-13.9c-1-5.1-3.2-10.3-3.2-10.3
		s-1.4,1.1-1.4,2.9c0,1.8-0.7,4.7-0.7,4.7s-0.5,3.1-0.8,3.2c-3.6,0.7-8.5,2.3-8.5,2.3s4.2,5.2,3.8,8.9
		C75.6,614.6,75.2,620.8,75.2,620.8z"/>
	<linearGradient id="SVGBACKID_31_" gradientUnits="userSpaceOnUse" x1="76.6145" y1="559.6843" x2="119.0077" y2="559.6843">
		<stop  offset="0" style="stop-color:#ADB0AD"/>
		<stop  offset="1" style="stop-color:#000000"/>
	</linearGradient>
	<path opacity="6.000000e-002" fill="url(#SVGBACKID_31_)" d="M119,570.4c0,0-12.9,1.5-24-2.2c-11.1-3.6-18.4-7.7-18.4-9.5
		c0-1.8,10.4-12,14.9-9.8c4.5,2.2,5.6,5.1,8,6.9c2.4,1.8,8.3,5.1,11.1,6.9C113.4,564.6,119,570.4,119,570.4z"/>
	<linearGradient id="SVGBACKID_32_" gradientUnits="userSpaceOnUse" x1="93.8186" y1="599.9526" x2="111.7108" y2="599.9526">
		<stop  offset="0" style="stop-color:#ADB0AD"/>
		<stop  offset="1" style="stop-color:#000000"/>
	</linearGradient>
	<path opacity="6.000000e-002" fill="url(#SVGBACKID_32_)" d="M97,591.2c0,0-6.5,17.6-0.9,17.6c5.6,0,15.6-10.2,15.6-10.2
		s-7.8,2.3-12.2-0.4C95.7,595.7,97,591.2,97,591.2z"/>
	<g opacity="0.35">
		<radialGradient id="SVGBACKID_33_" cx="351.82" cy="273.1481" r="33.0089" gradientUnits="userSpaceOnUse">
			<stop  offset="0" style="stop-color:#FFFFFF"/>
			<stop  offset="1" style="stop-color:#000000"/>
		</radialGradient>
		<path opacity="0.25" fill="url(#SVGBACKID_33_)" d="M325.1,289.3c1.1-0.2,7.5-6.6,11.1-9.5c3.6-2.9,15.2-9.1,15.2-9.1
			s-19.1,7-22.3,9.6C325.9,283.1,324.1,289.5,325.1,289.3z"/>
		<radialGradient id="SVGBACKID_34_" cx="326.4035" cy="288.1312" r="30.7865" gradientUnits="userSpaceOnUse">
			<stop  offset="0" style="stop-color:#FFFFFF"/>
			<stop  offset="1" style="stop-color:#000000"/>
		</radialGradient>
		<path opacity="0.25" fill="url(#SVGBACKID_34_)" d="M345.7,288.3c-3.9,1.8-18.1,3-21.3,4.1c0,0,0.4,1.3,2.1,2c1.8,0.8,4.4,1.3,4.8,1.3
			c6.4,0,20.4-1.5,20.4-1.5s0.2-5.9,1.1-7.1c0.9-1.3,1.3-6.4,1.3-6.4S349.6,286.5,345.7,288.3z"/>
	</g>
</g>
<g id="BOX_BODY">
	<g>
		<polygon fill="none" stroke="#000000" stroke-width="0.8226" stroke-miterlimit="10" stroke-dasharray="2.4677,1.6451" points="
			423.4,460.7 182.6,460.7 182.6,347.4 222.6,308.8 368.4,308.8 423.4,349.3 		"/>
			
			<rect x="279.6" y="300.8" fill="none" stroke="#000000" stroke-width="0.8226" stroke-miterlimit="10" stroke-dasharray="2.4677,1.6451" width="43.7" height="301.9"/>
	</g>
</g>
<g id="CUSTOM">
</g>
</svg>
