<?xml version="1.0" encoding="utf-8"?>
<!-- Generator: Adobe Illustrator 25.3.1, SVG Export Plug-In . SVG Version: 6.00 Build 0)  -->
<svg version="1.1" xmlns="http://www.w3.org/2000/svg" xmlns:xlink="http://www.w3.org/1999/xlink" x="0px" y="0px"
	 viewBox="0 0 610.2 1005" enable-background="new 0 0 769.2 1005" xml:space="preserve">
<g id="MASKR">
<g id="SHIRT_BODY">
	<path fill="#EE4D9B" stroke="#897F76" stroke-width="0.3809" d="M585.9,378.3c-3.6-39.7-66.4-148-74.1-157.2
		c-5.5-6.5-53.5-62.7-89.9-106.3c-20.6-10.9-53-26.7-75.7-30.3c-23.6-3.8-62.1-1.9-85.4-0.2c-2.3,3.6-3.7,6.7-3.7,8.6
		c0,9-47,75.9-61.4,135.5c-14.5,59.6,3.6,178.9,12.6,211.4c9,32.5,41.6,119.2,41.6,144.5c0,25.3-45.9,178.6-10.3,341.8
		c0.8,3.7-23.5,68.7,124.2-16.8c84-48.7,193.7-18.7,193.7-18.7c23.7-49.6,19.4-185.3,24.8-226.8c5.4-41.6-1.8-153.6,3.6-175.2
		C591.3,466.8,589.5,418,585.9,378.3z"/>
</g>
<g id="GRAPHICS">
	<g>
		<g>
			<path fill="#FDBB2D" d="M585.9,488.5c-0.2,0.9-0.4,1.9-0.6,3l1.3-36.5l1.7-0.6l0.8-23.3C589.7,454.6,589,476,585.9,488.5z"/>
			<path fill="#FDBB2D" d="M196.5,368.2l3.6-103.5l3.9,106l-1.7-0.6l1.8,51.5c-2.1-10.5-4.3-23.7-6.4-38.2l0.5-14.6L196.5,368.2z"/>
			<path fill="#FDBB2D" d="M218.3,375.4l3.6-103.5l3.9,106l-1.7-0.6l3.7,105.9l1.7,0.6l0.8,24.4c-4.6-14.3-9.4-28.5-13.5-41
				l3.2-91.2L218.3,375.4z"/>
			<path fill="#FDBB2D" d="M574.3,354.4l3.6,103.5l1.7-0.6l3.5,100l0.7-21.1c0.2,42.5,2.1,100.2-1.5,127.5
				c-5.4,41.6-1,177.2-24.8,226.8c0,0-109.6-30-193.7,18.7c-147.8,85.5-123.4,20.5-124.2,16.8c-35.7-163.2,10.3-316.5,10.3-341.8
				c0-11.4-6.6-35.2-14.6-60.9l1.3-37.3l1.7,0.6l3.6-103.5l-1.7-0.6l3.6-103.5l3.9,106l-1.7-0.6l3.7,105.9l1.7,0.6l3.5,102.3
				l3.5-100l1.7,0.6l1.7-50.5c2.2,0.8,4.8,1.7,7.8,2.5l1.8,51.8l1.7,0.6l3.5,102.3l3.5-100l1.7,0.6l1.8-52c2.4,0.5,4.9,0.9,7.7,1.3
				l1.9,54.4l1.7,0.6l3.5,102.3l3.5-100l1.7,0.6l1.9-55.9c2.4,0.3,4.8,0.5,7.4,0.8l2,58.9l1.7,0.6l3.5,102.3l3.5-100l1.7,0.6
				l2.1-61.1c2.3,0.2,4.6,0.3,7,0.4l2.2,64.4l1.7,0.6l3.5,102.3l3.5-100l1.7,0.6l2.3-67.2c0.4,0,0.7,0,1.1,0
				c1.9,0.1,3.7,0.1,5.5,0.1l2.5,70.8l1.7,0.6l4.4,105.9l4.4-105.9l1.7-0.6l2.4-70.7c2.3,0,4.5-0.1,6.6-0.1l2.3,67.1l1.7-0.6
				l3.5,100l3.5-102.3l1.7-0.6l2.2-64.4c2.4-0.2,4.8-0.4,7-0.6l2.1,61.2l1.7-0.6l3.5,100l3.5-102.3l1.7-0.6l2.1-59.7
				c2.6-0.5,5.1-0.9,7.3-1.4l2,57.4l1.7-0.6l3.5,100l3.5-102.3l1.7-0.6l2-58.4c3.2-1.3,5.6-2.6,7.3-3.7l2,58.4l1.7-0.6l3.5,100
				l3.5-102.3l1.7-0.6l3.7-105.9l-1.7,0.6l3.9-106l3.6,103.5l-1.7,0.6l3.6,103.5l1.7-0.6l3.5,100l3.5-102.3l1.7-0.6l3.7-105.9
				l-1.7,0.6l3.9-106l3.6,103.5l-1.7,0.6l3.6,103.5l1.7-0.6l3.5,100l3.5-102.3l1.7-0.6l3.7-105.9l-1.7,0.6l3.9-106l3.6,103.5
				l-1.7,0.6l3.6,103.5l1.7-0.6l3.5,100l3.5-102.3l1.7-0.6l3.7-105.9l-1.7,0.6l3.9-106l3.6,103.5l-1.7,0.6l3.6,103.5l1.7-0.6
				l3.5,100l3.5-102.3l1.7-0.6l3.7-105.9l-1.7,0.6l2.8-76.9c0.7,1.4,1.5,2.9,2.2,4.3l2.4,70.1l-1.7,0.6l3.6,103.5l1.7-0.6l3.5,100
				l3.5-102.3l1.7-0.6l3.7-105.9l-1.7,0.6l1-28.3c2.2,5,4.2,9.8,6.1,14.5l0.4,11.3L574.3,354.4z"/>
		</g>
	</g>
</g>
<g id="BACK_STRIPES_FILL">
	<g>
		<path fill="#D94723" d="M246.9,295.2c2.7,30.2,7.4,58.1,7.1,66.7c-0.1,3.5-0.4,10.7-0.8,19.4h-55.8c-3.6-26.3-6.6-57.2-7.1-86.1
			H246.9z"/>
	</g>
</g>
<g id="BACK_STRIPES_OUTLINE">
	<g>
		<path fill="#FFDA02" d="M246.2,285.8c0.3,3.7,0.6,7.4,0.9,11h-56.8c-0.1-3.7-0.1-7.4-0.1-11H246.2z"/>
		<path fill="#FFDA02" d="M253.7,371.9c-0.2,3.3-0.3,7-0.5,11h-55.5c-0.5-3.6-1-7.3-1.5-11H253.7z"/>
	</g>
</g>
	
<g id="SHIRT_STITCHING">
	<g>
		<g>
			<g opacity="0.5">
				<g>
					<path opacity="0.5" fill="none" stroke="#000000" stroke-width="0.3709" d="M370.2,906.8c-0.1-9.3-0.1-18.7-0.2-28"/>
					<path opacity="0.5" fill="none" stroke="#000000" stroke-width="0.3709" d="M362.6,905.8c-0.1-9.3-0.1-18.7-0.2-28"/>
					<path opacity="0.5" fill="none" stroke="#000000" stroke-width="0.3709" d="M367.7,906.5c-0.1-9.3-0.1-18.7-0.2-28"/>
					<path opacity="0.5" fill="none" stroke="#000000" stroke-width="0.3709" d="M365.1,906.1c-0.1-9.3-0.1-18.7-0.2-28"/>
					<path opacity="0.5" fill="none" stroke="#000000" stroke-width="0.3709" d="M370.6,878.4c-0.3,6.9-7.8-1.9-8.7,2.8
						c-1.5,8,7.4,2.8,8.5,5.6c2.9,7.9-7.5,3.1-8.1,4.2c-3.5,7.1,7.6,5.8,8,6.5c2.9,6-2.5,5.1-3.4,5c-1.5-0.2-5.6-2.9-4.9,3.2"/>
					<path opacity="0.5" fill="none" stroke="#000000" stroke-width="0.3709" d="M370.7,907.4c1.7-9.1-7-3-8.2-5.7
						c-3.7-7.9,7.4-4.3,7.7-4.7c4.3-6.9-7.4-6.3-7.6-6.7c-4.1-7.2,6.9-3.8,7.2-4.3c2.6-3.5-0.5-5.3-1.8-5.6
						c-1.9-0.5-4.4,0.5-6.1-1.3"/>
					<path opacity="0.5" fill="none" stroke="#000000" stroke-width="0.3709" d="M368.1,907c-1.9-1.4-3.8-2.7-5.7-4.1"/>
					<line opacity="0.5" fill="none" stroke="#000000" stroke-width="0.3709" x1="370.8" y1="903.6" x2="362.4" y2="897.5"/>
					<line opacity="0.5" fill="none" stroke="#000000" stroke-width="0.3709" x1="370.8" y1="898.2" x2="362.3" y2="892.1"/>
					<line opacity="0.5" fill="none" stroke="#000000" stroke-width="0.3709" x1="370.7" y1="892" x2="362.3" y2="886"/>
					<line opacity="0.5" fill="none" stroke="#000000" stroke-width="0.3709" x1="370.7" y1="886.2" x2="362.2" y2="880.2"/>
				</g>
				<g>
					<line opacity="0.5" fill="none" stroke="#000000" stroke-width="0.3709" x1="370" y1="878.3" x2="369.4" y2="801"/>
					<line opacity="0.5" fill="none" stroke="#000000" stroke-width="0.3709" x1="362.4" y1="877.4" x2="361.8" y2="800"/>
					<line opacity="0.5" fill="none" stroke="#000000" stroke-width="0.3709" x1="367.4" y1="878" x2="366.9" y2="800.7"/>
					<line opacity="0.5" fill="none" stroke="#000000" stroke-width="0.3709" x1="364.9" y1="877.7" x2="364.3" y2="800.4"/>
					<path opacity="0.5" fill="none" stroke="#000000" stroke-width="0.3709" d="M370.1,800.7c0,2.4-0.7,2.5-0.7,2.5l-7.5-0.9
						c0,0-0.5-1.2-0.5,1.8c0,3,0.6,3.6,0.6,3.6l7.6,1c0,0,0.5-0.1,0.6,2.5c0,2.6-0.6,2.9-0.6,2.9l-7.5-1c0,0-0.5,0.1-0.5,2.7
						c0,2.6,0.7,2.9,0.7,2.9l7.5,0.9c0,0,0.5,0.4,0.5,2.7c0,2.2-0.5,2.9-0.5,2.9l-7.7-1c0,0-0.5,0-0.5,2.6c0,2.8,0.5,3.2,0.5,3.2
						l7.7,1c0,0,0.6-0.1,0.6,2.9c0,3-0.7,2.9-0.7,2.9l-7.5-0.9c0,0-0.5-0.1-0.5,2.6c0,2.6,0.6,3.4,0.6,3.4l7.5,1
						c0,0,0.6,0.4,0.6,3.1c0,2.6-0.6,2.7-0.6,2.7l-7.4-0.9c0,0-0.7-0.4-0.7,2.2c0,2.6,0.8,3.1,0.8,3.1l7.3,0.9c0,0,0.5-0.7,0.6,2.3
						c0,3-0.6,3.3-0.6,3.3l-7.2-0.9c0,0-0.8-0.1-0.8,2.7c0,2.8,0.8,3.2,0.8,3.2l7.3,0.9c0,0,0.6-0.4,0.6,2.2c0,2.6-0.6,2.9-0.6,2.9
						l-7.3-0.9c0,0-0.8-0.1-0.7,2.5c0,2.6,0.8,2.9,0.8,2.9l7.4,0.9l0.5,0.6"/>
					<path opacity="0.5" fill="none" stroke="#000000" stroke-width="0.3709" d="M361.9,877.1c0-2.4,0.7-2.5,0.7-2.5l7.5,0.9
						c0,0,0.5,1.2,0.5-1.8c0-3-0.6-3.6-0.6-3.6l-7.6-0.9c0,0-0.5,0.1-0.6-2.5c0-2.6,0.6-2.9,0.6-2.9l7.5,0.9c0,0,0.5-0.1,0.5-2.7
						c0-2.6-0.7-2.9-0.7-2.9l-7.5-0.9c0,0-0.5-0.4-0.5-2.7c0-2.2,0.5-2.9,0.5-2.9l7.7,1c0,0,0.5,0.1,0.5-2.6c0-2.8-0.5-3.2-0.5-3.2
						l-7.7-1c0,0-0.6,0.1-0.6-2.9c0-3,0.7-2.9,0.7-2.9l7.5,0.9c0,0,0.5,0.1,0.5-2.5c0-2.6-0.6-3.4-0.6-3.4l-7.5-0.9
						c0,0-0.6-0.4-0.6-3.1c0-2.6,0.6-2.7,0.6-2.7l7.4,0.9c0,0,0.7,0.5,0.7-2.2c0-2.6-0.8-3.1-0.8-3.1l-7.3-0.9c0,0-0.5,0.7-0.6-2.3
						c0-3,0.6-3.3,0.6-3.3l7.2,0.9c0,0,0.8,0.1,0.8-2.7c0-2.8-0.8-3.2-0.8-3.2l-7.3-0.9c0,0-0.6,0.4-0.6-2.2c0-2.6,0.6-2.9,0.6-2.9
						l7.3,0.9c0,0,0.8,0.1,0.7-2.5c0-2.6-0.8-2.9-0.8-2.9l-7.4-0.9l-0.6-0.6"/>
					<line opacity="0.5" fill="none" stroke="#000000" stroke-width="0.3709" x1="370.6" y1="875.5" x2="362.2" y2="869.5"/>
					<line opacity="0.5" fill="none" stroke="#000000" stroke-width="0.3709" x1="370.6" y1="870.5" x2="362.1" y2="864.4"/>
					<line opacity="0.5" fill="none" stroke="#000000" stroke-width="0.3709" x1="370.5" y1="864.2" x2="362.1" y2="858.1"/>
					<line opacity="0.5" fill="none" stroke="#000000" stroke-width="0.3709" x1="370.5" y1="858.8" x2="362" y2="852.7"/>
					<line opacity="0.5" fill="none" stroke="#000000" stroke-width="0.3709" x1="370.5" y1="854.1" x2="362" y2="848"/>
					<line opacity="0.5" fill="none" stroke="#000000" stroke-width="0.3709" x1="370.4" y1="848.7" x2="362" y2="842.6"/>
					<line opacity="0.5" fill="none" stroke="#000000" stroke-width="0.3709" x1="370.4" y1="843.1" x2="361.9" y2="837"/>
					<line opacity="0.5" fill="none" stroke="#000000" stroke-width="0.3709" x1="370.3" y1="836.9" x2="361.9" y2="830.8"/>
					<line opacity="0.5" fill="none" stroke="#000000" stroke-width="0.3709" x1="370.3" y1="831.3" x2="361.8" y2="825.2"/>
					<line opacity="0.5" fill="none" stroke="#000000" stroke-width="0.3709" x1="370.2" y1="825.9" x2="361.8" y2="819.8"/>
					<line opacity="0.5" fill="none" stroke="#000000" stroke-width="0.3709" x1="370.2" y1="820.5" x2="361.7" y2="814.4"/>
					<line opacity="0.5" fill="none" stroke="#000000" stroke-width="0.3709" x1="370.2" y1="814.3" x2="361.7" y2="808.2"/>
					<line opacity="0.5" fill="none" stroke="#000000" stroke-width="0.3709" x1="370.1" y1="808.5" x2="361.7" y2="802.4"/>
				</g>
				<g>
					<line opacity="0.5" fill="none" stroke="#000000" stroke-width="0.3709" x1="369.4" y1="800.6" x2="368.8" y2="723.3"/>
					<line opacity="0.5" fill="none" stroke="#000000" stroke-width="0.3709" x1="361.8" y1="799.7" x2="361.2" y2="722.3"/>
					<line opacity="0.5" fill="none" stroke="#000000" stroke-width="0.3709" x1="366.9" y1="800.3" x2="366.3" y2="723"/>
					<line opacity="0.5" fill="none" stroke="#000000" stroke-width="0.3709" x1="364.3" y1="800" x2="363.8" y2="722.6"/>
					<path opacity="0.5" fill="none" stroke="#000000" stroke-width="0.3709" d="M369.5,723c0,2.4-0.7,2.5-0.7,2.5l-7.5-1
						c0,0-0.5-1.2-0.5,1.8c0,3,0.6,3.6,0.6,3.6l7.6,1c0,0,0.5-0.1,0.6,2.5c0,2.6-0.6,2.9-0.6,2.9l-7.5-1c0,0-0.5,0.1-0.5,2.7
						c0,2.6,0.7,2.9,0.7,2.9l7.5,1c0,0,0.5,0.4,0.5,2.7c0,2.2-0.5,2.9-0.5,2.9l-7.7-1c0,0-0.5-0.1-0.5,2.6c0,2.8,0.5,3.2,0.5,3.2
						l7.7,1c0,0,0.6-0.1,0.6,2.9c0,3-0.7,2.9-0.7,2.9l-7.5-0.9c0,0-0.5-0.1-0.5,2.5c0,2.6,0.6,3.4,0.6,3.4l7.5,1
						c0,0,0.6,0.5,0.6,3.1c0,2.6-0.6,2.7-0.6,2.7l-7.4-1c0,0-0.7-0.5-0.7,2.1c0,2.6,0.8,3.1,0.8,3.1l7.3,0.9c0,0,0.5-0.7,0.6,2.3
						c0,3-0.6,3.3-0.6,3.3l-7.2-0.9c0,0-0.8-0.1-0.8,2.7c0,2.8,0.8,3.2,0.8,3.2l7.3,0.9c0,0,0.6-0.4,0.6,2.2c0,2.6-0.6,2.9-0.6,2.9
						l-7.3-0.9c0,0-0.8-0.1-0.7,2.5c0,2.6,0.8,2.9,0.8,2.9l7.4,0.9l0.5,0.6"/>
					<path opacity="0.5" fill="none" stroke="#000000" stroke-width="0.3709" d="M361.3,799.3c0-2.4,0.7-2.5,0.7-2.5l7.5,0.9
						c0,0,0.5,1.2,0.5-1.8c0-3-0.6-3.6-0.6-3.6l-7.6-1c0,0-0.5,0.1-0.6-2.5c0-2.6,0.6-2.9,0.6-2.9l7.5,0.9c0,0,0.5-0.1,0.5-2.7
						c0-2.6-0.7-2.9-0.7-2.9l-7.5-1c0,0-0.5-0.4-0.5-2.7c0-2.2,0.5-2.9,0.5-2.9l7.7,1c0,0,0.5,0.1,0.5-2.5c0-2.8-0.5-3.2-0.5-3.2
						l-7.7-1c0,0-0.6,0.1-0.6-2.9c0-3,0.7-2.9,0.7-2.9l7.5,1c0,0,0.5,0.1,0.5-2.5c0-2.6-0.6-3.4-0.6-3.4l-7.5-1c0,0-0.6-0.5-0.6-3.1
						c0-2.6,0.6-2.7,0.6-2.7l7.4,0.9c0,0,0.7,0.5,0.7-2.1c0-2.6-0.8-3.1-0.8-3.1l-7.3-0.9c0,0-0.5,0.7-0.6-2.3c0-3,0.6-3.3,0.6-3.3
						l7.2,0.9c0,0,0.8,0.1,0.8-2.7c0-2.8-0.8-3.2-0.8-3.2l-7.3-0.9c0,0-0.6,0.4-0.6-2.2c0-2.6,0.6-2.9,0.6-2.9l7.3,0.9
						c0,0,0.8,0.1,0.7-2.5c0-2.6-0.8-2.9-0.8-2.9l-7.4-0.9l-0.6-0.6"/>
					<line opacity="0.5" fill="none" stroke="#000000" stroke-width="0.3709" x1="370" y1="797.8" x2="361.6" y2="791.7"/>
					<line opacity="0.5" fill="none" stroke="#000000" stroke-width="0.3709" x1="370" y1="792.8" x2="361.5" y2="786.7"/>
					<line opacity="0.5" fill="none" stroke="#000000" stroke-width="0.3709" x1="370" y1="786.5" x2="361.5" y2="780.4"/>
					<line opacity="0.5" fill="none" stroke="#000000" stroke-width="0.3709" x1="369.9" y1="781.1" x2="361.5" y2="775"/>
					<line opacity="0.5" fill="none" stroke="#000000" stroke-width="0.3709" x1="369.9" y1="776.3" x2="361.4" y2="770.2"/>
					<line opacity="0.5" fill="none" stroke="#000000" stroke-width="0.3709" x1="369.8" y1="770.9" x2="361.4" y2="764.8"/>
					<line opacity="0.5" fill="none" stroke="#000000" stroke-width="0.3709" x1="369.8" y1="765.3" x2="361.4" y2="759.2"/>
					<line opacity="0.5" fill="none" stroke="#000000" stroke-width="0.3709" x1="369.8" y1="759.2" x2="361.3" y2="753.1"/>
					<line opacity="0.5" fill="none" stroke="#000000" stroke-width="0.3709" x1="369.7" y1="753.6" x2="361.3" y2="747.5"/>
					<line opacity="0.5" fill="none" stroke="#000000" stroke-width="0.3709" x1="369.7" y1="748.2" x2="361.2" y2="742.1"/>
					<line opacity="0.5" fill="none" stroke="#000000" stroke-width="0.3709" x1="369.6" y1="742.8" x2="361.2" y2="736.6"/>
					<line opacity="0.5" fill="none" stroke="#000000" stroke-width="0.3709" x1="369.6" y1="736.6" x2="361.1" y2="730.5"/>
					<line opacity="0.5" fill="none" stroke="#000000" stroke-width="0.3709" x1="369.6" y1="730.8" x2="361.1" y2="724.7"/>
				</g>
				<g>
					<line opacity="0.5" fill="none" stroke="#000000" stroke-width="0.3709" x1="368.8" y1="722.9" x2="368.3" y2="645.6"/>
					<line opacity="0.5" fill="none" stroke="#000000" stroke-width="0.3709" x1="361.2" y1="721.9" x2="360.7" y2="644.6"/>
					<line opacity="0.5" fill="none" stroke="#000000" stroke-width="0.3709" x1="366.3" y1="722.6" x2="365.8" y2="645.2"/>
					<line opacity="0.5" fill="none" stroke="#000000" stroke-width="0.3709" x1="363.8" y1="722.2" x2="363.2" y2="644.9"/>
					<path opacity="0.5" fill="none" stroke="#000000" stroke-width="0.3709" d="M369,645.3c0,2.4-0.7,2.5-0.7,2.5l-7.5-1
						c0,0-0.5-1.2-0.5,1.8c0,3,0.6,3.6,0.6,3.6l7.6,1c0,0,0.5-0.1,0.6,2.5c0,2.6-0.6,2.9-0.6,2.9l-7.5-1c0,0-0.5,0.1-0.5,2.7
						c0,2.6,0.7,2.9,0.7,2.9l7.5,1c0,0,0.5,0.4,0.5,2.7c0,2.2-0.5,2.9-0.5,2.9l-7.7-1c0,0-0.5-0.1-0.5,2.5c0,2.8,0.5,3.2,0.5,3.2
						l7.7,1c0,0,0.6-0.1,0.6,2.9c0,3-0.7,2.9-0.7,2.9l-7.5-1c0,0-0.5-0.1-0.5,2.5c0,2.6,0.6,3.4,0.6,3.4l7.5,1c0,0,0.6,0.4,0.6,3.1
						c0,2.6-0.6,2.7-0.6,2.7l-7.4-1c0,0-0.7-0.5-0.7,2.1c0,2.6,0.8,3.1,0.8,3.1l7.3,0.9c0,0,0.5-0.7,0.6,2.3c0,3-0.6,3.3-0.6,3.3
						l-7.2-0.9c0,0-0.8-0.1-0.8,2.7c0,2.8,0.8,3.2,0.8,3.2l7.3,0.9c0,0,0.6-0.4,0.6,2.2c0,2.6-0.6,2.9-0.6,2.9l-7.3-1
						c0,0-0.8-0.1-0.7,2.5c0,2.6,0.8,2.9,0.8,2.9l7.4,0.9l0.5,0.6"/>
					<path opacity="0.5" fill="none" stroke="#000000" stroke-width="0.3709" d="M360.7,721.6c0-2.4,0.7-2.5,0.7-2.5l7.5,1
						c0,0,0.5,1.2,0.5-1.8c0-3-0.6-3.6-0.6-3.6l-7.6-1c0,0-0.5,0.1-0.6-2.5c0-2.6,0.6-2.9,0.6-2.9l7.5,1c0,0,0.5-0.1,0.5-2.7
						c0-2.6-0.7-2.9-0.7-2.9l-7.5-1c0,0-0.5-0.4-0.5-2.7c0-2.2,0.5-2.9,0.5-2.9l7.7,1c0,0,0.5,0.1,0.5-2.5c0-2.8-0.5-3.2-0.5-3.2
						l-7.7-1c0,0-0.6,0.1-0.6-2.9c0-3,0.7-2.9,0.7-2.9l7.5,1c0,0,0.5,0.1,0.5-2.6c0-2.6-0.6-3.4-0.6-3.4l-7.5-1c0,0-0.6-0.4-0.6-3.1
						c0-2.6,0.6-2.7,0.6-2.7l7.4,1c0,0,0.7,0.5,0.7-2.2c0-2.6-0.8-3.1-0.8-3.1l-7.3-1c0,0-0.5,0.7-0.6-2.3c0-3,0.6-3.3,0.6-3.3
						l7.2,0.9c0,0,0.8,0.1,0.8-2.7c0-2.8-0.8-3.2-0.8-3.2L361,657c0,0-0.6,0.4-0.6-2.2c0-2.6,0.6-2.9,0.6-2.9l7.3,0.9
						c0,0,0.8,0.1,0.7-2.5c0-2.6-0.8-2.9-0.8-2.9l-7.4-1l-0.5-0.6"/>
					<line opacity="0.5" fill="none" stroke="#000000" stroke-width="0.3709" x1="369.5" y1="720.1" x2="361" y2="714"/>
					<line opacity="0.5" fill="none" stroke="#000000" stroke-width="0.3709" x1="369.5" y1="715.1" x2="361" y2="709"/>
					<line opacity="0.5" fill="none" stroke="#000000" stroke-width="0.3709" x1="369.4" y1="708.8" x2="361" y2="702.6"/>
					<line opacity="0.5" fill="none" stroke="#000000" stroke-width="0.3709" x1="369.4" y1="703.4" x2="360.9" y2="697.2"/>
					<line opacity="0.5" fill="none" stroke="#000000" stroke-width="0.3709" x1="369.3" y1="698.6" x2="360.9" y2="692.5"/>
					<line opacity="0.5" fill="none" stroke="#000000" stroke-width="0.3709" x1="369.3" y1="693.2" x2="360.8" y2="687.1"/>
					<line opacity="0.5" fill="none" stroke="#000000" stroke-width="0.3709" x1="369.3" y1="687.6" x2="360.8" y2="681.5"/>
					<line opacity="0.5" fill="none" stroke="#000000" stroke-width="0.3709" x1="369.2" y1="681.5" x2="360.8" y2="675.3"/>
					<line opacity="0.5" fill="none" stroke="#000000" stroke-width="0.3709" x1="369.2" y1="675.9" x2="360.7" y2="669.7"/>
					<line opacity="0.5" fill="none" stroke="#000000" stroke-width="0.3709" x1="369.1" y1="670.5" x2="360.7" y2="664.3"/>
					<line opacity="0.5" fill="none" stroke="#000000" stroke-width="0.3709" x1="369.1" y1="665" x2="360.6" y2="658.9"/>
					<line opacity="0.5" fill="none" stroke="#000000" stroke-width="0.3709" x1="369.1" y1="658.9" x2="360.6" y2="652.7"/>
					<line opacity="0.5" fill="none" stroke="#000000" stroke-width="0.3709" x1="369" y1="653.1" x2="360.6" y2="647"/>
				</g>
				<g>
					<line opacity="0.5" fill="none" stroke="#000000" stroke-width="0.3709" x1="368.3" y1="645.2" x2="367.8" y2="567.9"/>
					<line opacity="0.5" fill="none" stroke="#000000" stroke-width="0.3709" x1="360.7" y1="644.2" x2="360.2" y2="566.9"/>
					<line opacity="0.5" fill="none" stroke="#000000" stroke-width="0.3709" x1="365.8" y1="644.8" x2="365.2" y2="567.5"/>
					<line opacity="0.5" fill="none" stroke="#000000" stroke-width="0.3709" x1="363.2" y1="644.5" x2="362.7" y2="567.2"/>
					<path opacity="0.5" fill="none" stroke="#000000" stroke-width="0.3709" d="M368.4,567.5c0,2.4-0.7,2.5-0.7,2.5l-7.5-1
						c0,0-0.5-1.2-0.5,1.8c0,3,0.6,3.6,0.6,3.6l7.6,1c0,0,0.5-0.1,0.6,2.5c0,2.6-0.6,2.9-0.6,2.9l-7.5-1c0,0-0.5,0.1-0.5,2.7
						c0,2.6,0.7,2.9,0.7,2.9l7.5,1c0,0,0.5,0.4,0.5,2.7c0,2.2-0.5,2.9-0.5,2.9l-7.7-1c0,0-0.5-0.1-0.5,2.5c0,2.8,0.5,3.2,0.5,3.2
						l7.7,1c0,0,0.6-0.1,0.6,2.9c0,3-0.7,2.9-0.7,2.9l-7.5-1c0,0-0.5-0.1-0.5,2.6c0,2.6,0.6,3.4,0.6,3.4l7.5,1c0,0,0.6,0.5,0.6,3.1
						c0,2.6-0.6,2.7-0.6,2.7l-7.4-1c0,0-0.7-0.5-0.7,2.1c0,2.6,0.8,3.1,0.8,3.1l7.3,1c0,0,0.5-0.7,0.6,2.3c0,3-0.6,3.3-0.6,3.3
						l-7.2-1c0,0-0.8-0.1-0.8,2.7c0,2.8,0.8,3.2,0.8,3.2l7.3,1c0,0,0.6-0.4,0.6,2.2c0,2.6-0.6,2.9-0.6,2.9l-7.3-0.9
						c0,0-0.8-0.1-0.7,2.5c0,2.6,0.8,2.9,0.8,2.9l7.4,1l0.5,0.6"/>
					<path opacity="0.5" fill="none" stroke="#000000" stroke-width="0.3709" d="M360.2,643.9c0-2.4,0.7-2.5,0.7-2.5l7.5,1
						c0,0,0.5,1.2,0.5-1.8c0-3-0.6-3.6-0.6-3.6l-7.6-1c0,0-0.5,0.1-0.6-2.5c0-2.6,0.6-2.9,0.6-2.9l7.5,1c0,0,0.5-0.1,0.5-2.7
						c0-2.6-0.7-2.9-0.7-2.9l-7.5-1c0,0-0.5-0.4-0.5-2.7c0-2.3,0.5-2.9,0.5-2.9l7.7,1c0,0,0.5,0.1,0.5-2.6c0-2.8-0.5-3.2-0.5-3.2
						l-7.7-1c0,0-0.6,0.1-0.6-2.9c0-3,0.7-2.9,0.7-2.9l7.5,1c0,0,0.5,0.1,0.5-2.5c0-2.6-0.6-3.4-0.6-3.4l-7.5-1c0,0-0.6-0.5-0.6-3.1
						c0-2.6,0.6-2.7,0.6-2.7l7.4,0.9c0,0,0.7,0.5,0.7-2.1c0-2.6-0.8-3.1-0.8-3.1l-7.4-1c0,0-0.5,0.7-0.6-2.3c0-3,0.6-3.3,0.6-3.3
						l7.2,0.9c0,0,0.8,0.1,0.8-2.7c0-2.8-0.8-3.2-0.8-3.2l-7.3-0.9c0,0-0.6,0.4-0.6-2.3c0-2.6,0.6-2.9,0.6-2.9l7.3,1
						c0,0,0.8,0.1,0.7-2.5c0-2.6-0.8-2.9-0.8-2.9l-7.4-1l-0.5-0.6"/>
					<line opacity="0.5" fill="none" stroke="#000000" stroke-width="0.3709" x1="368.9" y1="642.4" x2="360.5" y2="636.3"/>
					<line opacity="0.5" fill="none" stroke="#000000" stroke-width="0.3709" x1="368.9" y1="637.4" x2="360.5" y2="631.2"/>
					<line opacity="0.5" fill="none" stroke="#000000" stroke-width="0.3709" x1="368.9" y1="631.1" x2="360.4" y2="624.9"/>
					<line opacity="0.5" fill="none" stroke="#000000" stroke-width="0.3709" x1="368.8" y1="625.6" x2="360.4" y2="619.5"/>
					<line opacity="0.5" fill="none" stroke="#000000" stroke-width="0.3709" x1="368.8" y1="620.9" x2="360.3" y2="614.8"/>
					<line opacity="0.5" fill="none" stroke="#000000" stroke-width="0.3709" x1="368.8" y1="615.5" x2="360.3" y2="609.4"/>
					<line opacity="0.5" fill="none" stroke="#000000" stroke-width="0.3709" x1="368.7" y1="609.9" x2="360.3" y2="603.8"/>
					<line opacity="0.5" fill="none" stroke="#000000" stroke-width="0.3709" x1="368.7" y1="603.8" x2="360.2" y2="597.6"/>
					<line opacity="0.5" fill="none" stroke="#000000" stroke-width="0.3709" x1="368.6" y1="598.1" x2="360.2" y2="592"/>
					<line opacity="0.5" fill="none" stroke="#000000" stroke-width="0.3709" x1="368.6" y1="592.7" x2="360.1" y2="586.6"/>
					<line opacity="0.5" fill="none" stroke="#000000" stroke-width="0.3709" x1="368.6" y1="587.3" x2="360.1" y2="581.2"/>
					<line opacity="0.5" fill="none" stroke="#000000" stroke-width="0.3709" x1="368.5" y1="581.2" x2="360.1" y2="575"/>
					<line opacity="0.5" fill="none" stroke="#000000" stroke-width="0.3709" x1="368.5" y1="575.4" x2="360" y2="569.2"/>
				</g>
				<g>
					<line opacity="0.5" fill="none" stroke="#000000" stroke-width="0.3709" x1="367.8" y1="567.5" x2="367.2" y2="490.1"/>
					<line opacity="0.5" fill="none" stroke="#000000" stroke-width="0.3709" x1="360.2" y1="566.5" x2="359.7" y2="489.1"/>
					<line opacity="0.5" fill="none" stroke="#000000" stroke-width="0.3709" x1="365.2" y1="567.1" x2="364.7" y2="489.8"/>
					<line opacity="0.5" fill="none" stroke="#000000" stroke-width="0.3709" x1="362.7" y1="566.8" x2="362.2" y2="489.5"/>
					<path opacity="0.5" fill="none" stroke="#000000" stroke-width="0.3709" d="M367.9,489.8c0,2.4-0.7,2.5-0.7,2.5l-7.5-1
						c0,0-0.5-1.2-0.5,1.8c0,3,0.6,3.6,0.6,3.6l7.6,1c0,0,0.5-0.1,0.6,2.5c0,2.6-0.6,2.9-0.6,2.9l-7.5-1c0,0-0.5,0.1-0.5,2.7
						c0,2.6,0.7,2.9,0.7,2.9l7.5,1c0,0,0.5,0.4,0.5,2.7c0,2.2-0.5,2.9-0.5,2.9l-7.7-1c0,0-0.5-0.1-0.5,2.5c0,2.8,0.5,3.2,0.5,3.2
						l7.7,1c0,0,0.6-0.1,0.6,2.9c0,3-0.7,2.9-0.7,2.9l-7.5-1c0,0-0.5-0.1-0.5,2.5c0,2.6,0.6,3.4,0.6,3.4l7.5,1c0,0,0.6,0.4,0.6,3.1
						c0,2.6-0.6,2.7-0.6,2.7l-7.4-1c0,0-0.7-0.5-0.7,2.1c0,2.6,0.8,3.1,0.8,3.1l7.3,1c0,0,0.5-0.7,0.6,2.3c0,3-0.6,3.3-0.6,3.3
						l-7.2-1c0,0-0.8-0.1-0.8,2.7c0,2.8,0.8,3.2,0.8,3.2l7.3,1c0,0,0.6-0.4,0.6,2.2c0,2.6-0.6,2.9-0.6,2.9l-7.3-1
						c0,0-0.8-0.1-0.7,2.5c0,2.6,0.8,2.9,0.8,2.9l7.4,1l0.5,0.6"/>
					<path opacity="0.5" fill="none" stroke="#000000" stroke-width="0.3709" d="M359.7,566.1c0-2.4,0.7-2.5,0.7-2.5l7.5,1
						c0,0,0.5,1.2,0.5-1.8c0-3-0.6-3.6-0.6-3.6l-7.6-1c0,0-0.5,0.1-0.6-2.5c0-2.6,0.6-2.9,0.6-2.9l7.5,1c0,0,0.5-0.1,0.5-2.7
						c0-2.6-0.7-2.9-0.7-2.9l-7.5-1c0,0-0.5-0.4-0.5-2.7c0-2.2,0.5-2.9,0.5-2.9l7.7,1c0,0,0.5,0.1,0.5-2.5c0-2.8-0.5-3.2-0.5-3.2
						l-7.7-1c0,0-0.6,0.1-0.6-2.9c0-3,0.7-2.9,0.7-2.9l7.5,1c0,0,0.5,0.1,0.5-2.5c0-2.6-0.6-3.4-0.6-3.4l-7.5-1c0,0-0.6-0.5-0.6-3.1
						c0-2.6,0.6-2.7,0.6-2.7l7.4,1c0,0,0.7,0.5,0.7-2.1c0-2.6-0.8-3.1-0.8-3.1l-7.4-1c0,0-0.5,0.7-0.6-2.3c0-3,0.6-3.3,0.6-3.3
						l7.2,1c0,0,0.8,0.1,0.8-2.7c0-2.8-0.8-3.2-0.8-3.2l-7.3-1c0,0-0.6,0.4-0.6-2.2c0-2.6,0.6-2.9,0.6-2.9l7.3,1
						c0,0,0.8,0.1,0.7-2.5c0-2.6-0.8-2.9-0.8-2.9l-7.4-1l-0.6-0.6"/>
					<line opacity="0.5" fill="none" stroke="#000000" stroke-width="0.3709" x1="368.4" y1="564.7" x2="360" y2="558.5"/>
					<line opacity="0.5" fill="none" stroke="#000000" stroke-width="0.3709" x1="368.4" y1="559.7" x2="359.9" y2="553.5"/>
					<line opacity="0.5" fill="none" stroke="#000000" stroke-width="0.3709" x1="368.3" y1="553.3" x2="359.9" y2="547.2"/>
					<line opacity="0.5" fill="none" stroke="#000000" stroke-width="0.3709" x1="368.3" y1="547.9" x2="359.8" y2="541.8"/>
					<line opacity="0.5" fill="none" stroke="#000000" stroke-width="0.3709" x1="368.3" y1="543.2" x2="359.8" y2="537.1"/>
					<line opacity="0.5" fill="none" stroke="#000000" stroke-width="0.3709" x1="368.2" y1="537.8" x2="359.8" y2="531.6"/>
					<line opacity="0.5" fill="none" stroke="#000000" stroke-width="0.3709" x1="368.2" y1="532.2" x2="359.7" y2="526"/>
					<line opacity="0.5" fill="none" stroke="#000000" stroke-width="0.3709" x1="368.1" y1="526" x2="359.7" y2="519.9"/>
					<line opacity="0.5" fill="none" stroke="#000000" stroke-width="0.3709" x1="368.1" y1="520.4" x2="359.7" y2="514.3"/>
					<line opacity="0.5" fill="none" stroke="#000000" stroke-width="0.3709" x1="368.1" y1="515" x2="359.6" y2="508.9"/>
					<line opacity="0.5" fill="none" stroke="#000000" stroke-width="0.3709" x1="368" y1="509.6" x2="359.6" y2="503.5"/>
					<line opacity="0.5" fill="none" stroke="#000000" stroke-width="0.3709" x1="368" y1="503.4" x2="359.5" y2="497.3"/>
					<line opacity="0.5" fill="none" stroke="#000000" stroke-width="0.3709" x1="368" y1="497.7" x2="359.5" y2="491.5"/>
				</g>
				<g>
					<path opacity="0.5" fill="none" stroke="#000000" stroke-width="0.3709" d="M367.2,489.7"/>
					<path opacity="0.5" fill="none" stroke="#000000" stroke-width="0.3709" d="M359.6,488.7"/>
					<path opacity="0.5" fill="none" stroke="#000000" stroke-width="0.3709" d="M364.7,489.4"/>
					<path opacity="0.5" fill="none" stroke="#000000" stroke-width="0.3709" d="M362.2,489.1"/>
					<path opacity="0.5" fill="none" stroke="#000000" stroke-width="0.3709" d="M367.6,457.3c0,2.6-0.6,2.7-0.6,2.7l-7.4-1
						c0,0-0.7-0.5-0.7,2.1c0,2.6,0.8,3.1,0.8,3.1l7.3,1c0,0,0.5-0.7,0.6,2.3c0,3-0.6,3.3-0.6,3.3l-7.2-1c0,0-0.8-0.1-0.8,2.7
						c0,2.8,0.8,3.2,0.8,3.2l7.3,1c0,0,0.6-0.4,0.6,2.2c0,2.6-0.6,2.9-0.6,2.9l-7.3-1c0,0-0.8-0.1-0.7,2.5c0,2.6,0.8,2.9,0.8,2.9
						l7.4,1l0.5,0.6"/>
					<path opacity="0.5" fill="none" stroke="#000000" stroke-width="0.3709" d="M359.1,488.4c0-2.4,0.7-2.5,0.7-2.5l7.5,1
						c0,0,0.5,1.2,0.5-1.8c0-3-0.6-3.6-0.6-3.6l-7.6-1c0,0-0.5,0.1-0.6-2.5c0-2.6,0.6-2.9,0.6-2.9l7.5,1c0,0,0.5-0.1,0.5-2.7
						c0-2.6-0.7-2.9-0.7-2.9l-7.5-1c0,0-0.5-0.4-0.5-2.7c0-2.2,0.5-2.9,0.5-2.9l7.7,1c0,0,0.5,0.1,0.5-2.5c0-2.8-0.5-3.3-0.5-3.3
						l-7.7-1"/>
					<line opacity="0.5" fill="none" stroke="#000000" stroke-width="0.3709" x1="367.9" y1="486.9" x2="359.4" y2="480.8"/>
					<line opacity="0.5" fill="none" stroke="#000000" stroke-width="0.3709" x1="367.9" y1="481.9" x2="359.4" y2="475.8"/>
					<line opacity="0.5" fill="none" stroke="#000000" stroke-width="0.3709" x1="367.8" y1="475.6" x2="359.4" y2="469.5"/>
					<line opacity="0.5" fill="none" stroke="#000000" stroke-width="0.3709" x1="367.8" y1="470.2" x2="359.3" y2="464"/>
					<line opacity="0.5" fill="none" stroke="#000000" stroke-width="0.3709" x1="367.7" y1="465.5" x2="359.3" y2="459.3"/>
					<path opacity="0.5" fill="none" stroke="#000000" stroke-width="0.3709" d="M367.7,460.1"/>
				</g>
			</g>
			<g>
				
					<path opacity="0.35" fill="none" stroke="#000000" stroke-width="1.1447" stroke-miterlimit="10" stroke-dasharray="0.9833,0.9837" d="
					M449.7,408.8c0,0-57.2,7.3-95.7,6.2c-38.5-1.1-101.5-11.7-101.5-11.7"/>
				
					<path opacity="0.35" fill="none" stroke="#000000" stroke-width="1.1447" stroke-miterlimit="10" stroke-dasharray="0.9833,0.9837" d="
					M449,414.5c0,0-57.2,7.3-95.7,6.2S251.7,409,251.7,409"/>
			</g>
		</g>
	</g>
</g>
</g>	
<g id="CUSTOM"></g>	
<g id="SLEEVES">
	<g>
		
			<image overflow="visible" opacity="0.2" width="254" height="365" xlink:href="/svg/SBDUS64/DE4BA069.png"  transform="matrix(1 0 0 1 226.9317 108.7889)">
		</image>
		<g>
			<path fill="#FDBB2D" d="M462.7,242.2c-1.5-43.5-12.9-101.1-72.5-112.3c-59.5-11.2-95.4,7.1-95.4,7.1s-19.1,7.7-28.9,32.5
				c-9.8,24.8-20.1,64.5-20.6,82.6c-1.3,42.2,9.1,97,8.8,109.8c-0.3,12.8-3.9,75-3.9,75s11.7,15.6,100.2,18.4
				c89.5,2.8,99.5-17.1,99.5-17.1s-2-82.9,0.3-94.1C452.6,333,464.2,285.7,462.7,242.2z"/>
			<path fill="none" stroke="#897F76" stroke-width="0.3461" d="M462.7,242.2c-1.5-43.5-12.9-101.1-72.5-112.3
				c-59.5-11.2-95.4,7.1-95.4,7.1s-19.1,7.7-28.9,32.5c-9.8,24.8-20.1,64.5-20.6,82.6c-1.3,42.2,9.1,97,8.8,109.8
				c-0.3,12.8-3.9,75-3.9,75s11.7,15.6,100.2,18.4c89.5,2.8,99.5-17.1,99.5-17.1s-2-82.9,0.3-94.1
				C452.6,333,464.2,285.7,462.7,242.2z"/>
		</g>
	</g>
</g>
<g id="COLLAR">
	<path fill="#004D86" d="M346.7,85.4c23.1,3.7,56.1,19.7,77,30.9c-19.6-23.5-36.3-42.9-42.7-48c-18.4-14.7-93.7-16.5-93.7-16.5
		S268.2,72,259.9,85.2C283.6,83.5,322.8,81.6,346.7,85.4z"/>
</g>

<g id="SHADING">
	<g opacity="2.000000e-02">
		<path d="M249.2,278.4c-0.2,3-0.3,4.8-0.3,4.8S249,281.4,249.2,278.4 M292.5,189.1c0,0-28.8,9.4-35.1,28.1
			c-5.1,15.1-7.5,48.7-8.2,61.2c0.6-9.2,2.9-29.7,10.3-43.5C269.3,216.6,292.5,189.1,292.5,189.1"/>
		<path d="M300.2,218.1c0,0-13.8,5.9-30,20.6c-16.2,14.7-17.9,29.5-17.9,29.5L300.2,218.1"/>
		<path d="M338.5,288.8c0,0-16.5,12.2-31.9,26.8c-15.4,14.6-50.5,71.8-50.5,71.8s38.1-39.5,45.9-52.4
			C310,322.1,338.5,288.8,338.5,288.8"/>
		<path d="M362.8,327.8c0,0-13.1,11.8-20.8,19.5c-7.6,7.7-33.9,24.5-33.9,24.5s25.8-5.6,36-13.7
			C354.3,350.2,362.8,327.8,362.8,327.8"/>
		<path d="M297.7,657.9L270.3,753c0,0,22.3-31.7,25.9-50.4C299.8,683.8,297.7,657.9,297.7,657.9"/>
		<path d="M309.2,694.6c0,0,1.4,10.1-2.2,23.1c-3.6,13-21.6,31-21.6,31s23.8-16.6,27.4-21.6C316.4,722,309.2,694.6,309.2,694.6"/>
	</g>
</g>
</svg>
