<?xml version="1.0" encoding="utf-8"?>
<!-- Generator: Adobe Illustrator 25.3.1, SVG Export Plug-In . SVG Version: 6.00 Build 0)  -->
<svg version="1.1" xmlns="http://www.w3.org/2000/svg" xmlns:xlink="http://www.w3.org/1999/xlink" x="0px" y="0px"
	 viewBox="0 0 610.1 994.8" enable-background="new 0 0 744.1 994.8" xml:space="preserve">
<g id="MASKB">

<g id="SHIRT_STITCHING">
	
		<path opacity="0.5" fill="none" stroke="#897F76" stroke-width="0.6159" stroke-miterlimit="10" stroke-dasharray="2.226,1.113" d="
		M558.3,716c0,0-0.4,3.6-0.9,5.4c-0.5,1.8-0.9,4.1-0.9,5.6c0,1.6,0.2,3.8,0.7,5.2c0.4,1.4,2.9,7.8,2.4,9.2c-0.4,1.4-2,4.5-2,6.3
		c0,1.8,0.7,12.2,1.4,14.9c0.7,2.7,3.8,14.6,5.2,16.9c1.4,2.3,2,5.2,2.3,6.5c0.2,1.4,2.3,6.8,2.3,6.8"/>
	<g>
		
			<!--<path opacity="0.35" fill="none" stroke="#00AB5D" stroke-width="0.7957" stroke-miterlimit="10" stroke-dasharray="0.6835,0.6838" d="
			M258.8,109c0,0,28.1-20.9,110.4-21.4C452.3,87,479.7,110,479.7,110"/>-->
		
			<path opacity="0.35" fill="none" stroke="#00AB5D" stroke-width="1.038" stroke-miterlimit="10" stroke-dasharray="0.8916,0.892" d="
			M43.4,378.2c0,0,26.1,7.2,59,10.6c32.8,3.3,55,3.3,55,3.3"/>
		
			<path opacity="0.35" fill="none" stroke="#00AB5D" stroke-width="1.038" stroke-miterlimit="10" stroke-dasharray="0.8916,0.892" d="
			M43.4,383.1c0,0,26.1,7.2,59,10.6c32.8,3.3,55,3.3,55,3.3"/>
		
			<path opacity="0.35" fill="none" stroke="#00AB5D" stroke-width="1.038" stroke-miterlimit="10" stroke-dasharray="0.8916,0.892" d="
			M694.4,378.2c0,0-26.1,7.2-59,10.6c-32.8,3.3-55,3.3-55,3.3"/>
		
			<path opacity="0.35" fill="none" stroke="#00AB5D" stroke-width="1.038" stroke-miterlimit="10" stroke-dasharray="0.8916,0.892" d="
			M694.4,383.1c0,0-26.1,7.2-59,10.6c-32.8,3.3-55,3.3-55,3.3"/>
		
			<!--<path opacity="0.35" fill="none" stroke="#00AB5D" stroke-width="0.7957" stroke-miterlimit="10" stroke-dasharray="0.6835,0.6838" d="
			M262.2,105.6c0,0,24.7-20.1,107-20.6c83.1-0.5,103.7,18.9,103.7,18.9"/>-->
	</g>
</g>
<g id="SHIRT_BODY">
	<path fill="#00AB5D" d="M610,170.4c0,0-28.2-9.4-67.9-25.1c-23-9.1-43.6-22.4-57.8-32.8c-28.4-6.3-69.3-12.9-115.7-12.9
		c-50.2,0-92.7,8.6-120.1,16c-13.9,9.8-32.7,21.5-53.5,29.7c-39.7,15.7-67.9,25.1-67.9,25.1s-0.9,0.7-2.4,1.7c0,0,0,0,0,0
		c0,0.8,0,1.7,0.1,2.6c0,0.1,0,0.2,0,0.2c0,0.4,0,0.9,0,1.4c0,0,0,0.1,0,0.1c0,0.5,0,1,0.1,1.5c0,0.1,0,0.2,0,0.3
		c0,0.4,0,0.8,0.1,1.3c0,0.1,0,0.3,0,0.4c0,0.5,0,1,0.1,1.6c0,0.1,0,0.1,0,0.2c0,0.5,0.1,0.9,0.1,1.4c0,0.2,0,0.3,0,0.5
		c0,0.4,0.1,0.9,0.1,1.4c0,0.1,0,0.2,0,0.3c0,0.5,0.1,1.1,0.1,1.7c0,0.1,0,0.3,0,0.4c0,0.4,0.1,0.8,0.1,1.3c0,0.2,0,0.3,0,0.5
		c0,0.6,0.1,1.1,0.1,1.7c0,0.1,0,0.1,0,0.2c0,0.5,0.1,1,0.1,1.5c0,0.2,0,0.3,0.1,0.5c0,0.4,0.1,0.9,0.1,1.3c0,0.1,0,0.2,0,0.4
		c0.1,0.5,0.1,1.1,0.2,1.6c0,0.1,0,0.2,0.1,0.4c0.1,0.4,0.1,0.8,0.2,1.2c0,0.1,0,0.3,0.1,0.4c0.1,0.5,0.2,1,0.2,1.5
		c2.2,12.2,14.5,57.3,17.2,70.7c2.8,13.4,15.6,84,17.2,92.3c0.1,0.6,0.2,1.2,0.3,1.8c0,0.1,0,0.1,0,0.2c0.1,0.6,0.2,1.2,0.2,1.8
		c0,0.1,0,0.1,0,0.2c0.1,0.6,0.1,1.2,0.2,1.9c0,0,0,0.1,0,0.1c0.1,0.7,0.1,1.4,0.2,2c0,0,0,0,0,0c0,0.7,0.1,1.3,0.1,2
		c0,0.1,0,0.1,0,0.2c0,0.6,0.1,1.3,0.1,1.9c0,0.1,0,0.1,0,0.2c0,0.6,0,1.3,0,1.9c0,0,0,0,0,0c0,0.6,0,1.3,0,1.8
		c0-0.1,0.1-0.1,0.1-0.1s6.3,33.5,5.2,47c-1,13.6,6.3,98.3,11.5,124.4c5.2,26.1,11.5,93,6.3,121.3c-5.2,28.2-17.8,103.5-20.9,135.9
		c-3.1,32.4-3.1,56.4-3.1,56.4s-4.2,4.2-4.2,8.4s2.1,13.6,2.1,13.6v7.3c0,0,2.1,15.7,45,18.8c42.9,3.1,94.1,4.2,109.8,7.3
		c4.1,0.8,9.2,1.6,14.7,2.4l0,0.7c0,0,20.9,3.1,34.5,3.1c1.5,0,3.3,0,5.2-0.1c1.9,0.1,3.7,0.1,5.2,0.1c13.6,0,34.5-3.1,34.5-3.1
		l0-0.7c5.5-0.8,10.6-1.6,14.7-2.4c15.7-3.1,66.9-4.2,109.8-7.3c42.9-3.1,45-18.8,45-18.8v-7.3c0,0,2.1-9.4,2.1-13.6
		s-4.2-8.4-4.2-8.4s5.8-25.1-3.1-56.4c-14.1-49.6-15.7-107.7-20.9-135.9c-5.2-28.2,1-95.1,6.3-121.3c5.2-26.1,12.5-110.8,11.5-124.4
		c-0.9-11.7,3.6-38.1,4.9-45.2c0-4.8,0.1-12.4,1.2-17.7c1.7-8.3,14.5-79,17.2-92.3c2.8-13.4,15-58.4,17.2-70.7
		c1.6-8.6,2-21.1,2.2-27.8C610.8,171,610,170.4,610,170.4z"/>
</g>
<g id="GRAPHICS">
	<g>
		<g>
			<path fill="#EE4D9B" d="M150,312.2c1.7,9,3.3,17.9,4.7,25.6l0-0.7c-1.4-7.7-3-16.6-4.7-25.4L150,312.2z"/>
			<path fill="#EE4D9B" d="M154.7,289.7L151.9,189l-2.5,98.4l1.2,0.5l-0.6,23.8c1.6,8.8,3.3,17.7,4.7,25.4l-1.2-47.9L154.7,289.7z"
				/>
			<path fill="#EE4D9B" d="M578.4,195.8l-2.7,100.7l1.2-0.5l-1.5,60.9c0.9-4.6,2.9-15.6,5.3-28.4l-0.9-33.8l1.2-0.5L578.4,195.8z"/>
			<path fill="#EE4D9B" d="M608.2,201.5c0.3-1.5,0.7-2.9,0.9-4.1l-0.4-15.2L608.2,201.5z"/>
			<path fill="#EE4D9B" d="M135.3,241.1c1.3,5,2.5,9.7,3.5,13.8l0-0.2c-1-4.1-2.2-8.8-3.5-13.8L135.3,241.1z"/>
			<path fill="#EE4D9B" d="M135.3,241c1.3,4.9,2.4,9.6,3.5,13.8l-2-72.5L135.3,241z"/>
			<path fill="#EE4D9B" d="M591.4,270.6c0.4-2.1,0.7-3.8,1-5c0.6-2.8,1.6-7.1,2.9-12.2l-1.6-64.5L591.4,270.6z"/>
			<path fill="#EE4D9B" d="M557.3,546.9c4.7-23.7,11.2-95.1,11.6-119l-0.7-28.5l-1.2,0.5l-2.5-98.4l1.2-0.5l-2.5-98.4l-2.7,100.7
				l1.2-0.5l-2.6,100.6l-1.2,0.5l-2.5,97.2l-2.4-95l-1.2,0.5l-2.5-98.4l1.2-0.5l-2.5-98.4l-2.7,100.7l1.2-0.5L544,410.3l-1.2,0.5
				l-2.5,97.2l-2.4-95l-1.2,0.5l-2.5-98.4l1.2-0.5l-2.5-98.4L530.1,317l1.2-0.5l-2.6,100.6l-1.2,0.5l-2.5,97.2l-2.4-95l-1.2,0.5
				L519,322l1.2-0.5l-2.5-98.4L515,323.8l1.2-0.5l-2.6,100.6l-1.2,0.5l-2.5,97.2l-2.4-95l-1.2,0.5l-2.5-98.4l1.2-0.5l-2.5-98.4
				l-2.7,100.7l1.2-0.5l-2.6,100.6l-1.2,0.5l-2.5,97.2l-2.4-95l-1.2,0.5l-2.5-98.4l1.2-0.5l-2.5-98.4l-2.7,100.7l1.2-0.5l-2.6,100.6
				l-1.2,0.5l-2.5,97.2l-2.4-95l-1.2,0.5l-2.5-98.4l1.2-0.5l-2.5-98.4l-2.7,100.7l1.2-0.5l-2.6,100.6l-1.2,0.5l-2.5,97.2l-2.4-95
				l-1.2,0.5l-2.5-98.4l1.2-0.5l-2.5-98.4l-2.7,100.7l1.2-0.5l-2.6,100.6l-1.2,0.5l-2.5,97.2l-2.4-95l-1.2,0.5l-2.5-98.4l1.2-0.5
				l-2.5-98.4L439.1,358l1.2-0.5L437.7,458l-1.2,0.5l-2.5,97.2l-2.4-95l-1.2,0.5L428,363l1.2-0.5l-2.5-98.4l-2.7,100.7l1.2-0.5
				l-2.6,100.6l-1.2,0.5l-2.5,97.2l-2.4-95l-1.2,0.5l-2.5-98.4l1.2-0.5l-2.5-98.4l-2.7,100.7l1.2-0.5l-2.6,100.6l-1.2,0.5l-2.5,97.2
				l-2.4-95l-1.2,0.5l-2.5-98.4l1.2-0.5l-2.5-98.4l-2.7,100.7l1.2-0.5l-2.6,100.6l-1.2,0.5l-2.5,97.2l-2.4-95l-1.2,0.5l-2.5-98.4
				l1.2-0.5l-2.5-98.4l-2.7,100.7l1.2-0.5L377,485.3l-1.2,0.5l-3.1,100.6l-3.1-100.6l-1.2-0.5l-2.6-100.6l1.2,0.5l-2.7-100.7
				l-2.5,98.4l1.2,0.5l-2.5,98.4l-1.2-0.5l-2.4,95l-2.5-97.2l-1.2-0.5l-2.6-100.6l1.2,0.5l-2.7-100.7l-2.5,98.4l1.2,0.5l-2.5,98.4
				l-1.2-0.5l-2.4,95l-2.5-97.2l-1.2-0.5l-2.6-100.6l1.2,0.5L334,270.9l-2.5,98.4l1.2,0.5l-2.5,98.4l-1.2-0.5l-2.4,95l-2.5-97.2
				l-1.2-0.5l-2.6-100.6l1.2,0.5l-2.7-100.7l-2.5,98.4l1.2,0.5l-2.5,98.4l-1.2-0.5l-2.4,95l-2.5-97.2l-1.2-0.5l-2.6-100.6l1.2,0.5
				l-2.7-100.7l-2.5,98.4l1.2,0.5l-2.5,98.4l-1.2-0.5l-2.4,95l-2.5-97.2l-1.2-0.5L290,350.6l1.2,0.5l-2.7-100.7l-2.5,98.4l1.2,0.5
				l-2.5,98.4l-1.2-0.5l-2.4,95l-2.5-97.2l-1.2-0.5l-2.6-100.6l1.2,0.5l-2.7-100.7l-2.5,98.4l1.2,0.5l-2.5,98.4l-1.2-0.5l-2.4,95
				l-2.5-97.2l-1.2-0.5l-2.6-100.6l1.2,0.5l-2.7-100.7l-2.5,98.4l1.2,0.5l-2.5,98.4l-1.2-0.5l-2.4,95l-2.5-97.2l-1.2-0.5l-2.6-100.6
				l1.2,0.5L243,230l-2.5,98.4l1.2,0.5l-2.5,98.4l-1.2-0.5l-2.4,95l-2.5-97.2l-1.2-0.5l-2.6-100.6l1.2,0.5l-2.7-100.7l-2.5,98.4
				l1.2,0.5l-2.5,98.4l-1.2-0.5l-2.4,95l-2.5-97.2l-1.2-0.5l-2.6-100.6l1.2,0.5l-2.7-100.7l-2.5,98.4l1.2,0.5l-2.5,98.4l-1.2-0.5
				l-2.4,95l-2.5-97.2l-1.2-0.5L199,309.7l1.2,0.5l-2.7-100.7l-2.5,98.4l1.2,0.5l-2.5,98.4l-1.2-0.5l-2.4,95l-2.5-97.2l-1.2-0.5
				l-2.6-100.6l1.2,0.5l-2.7-100.7l-2.5,98.4l1.2,0.5l-2.5,98.4l-1.2-0.5l-2.4,95l-2.5-97.2l-1.2-0.5L168.6,296l1.2,0.5l-2.7-100.7
				l-2.5,98.4l1.2,0.5l-2.5,98.4l-0.3-0.1c1.5,10.4,2.9,22.9,2.4,30c-1.1,13.7,6.3,99,11.6,125.3c5.3,26.3,11.6,93.7,6.3,122.1
				c-5.3,28.4-17.9,104.2-21.1,136.9c-3.2,32.6-3.2,56.9-3.2,56.9s-4.2,4.2-4.2,8.4s2.1,13.7,2.1,13.7v7.4c0,0,2.1,15.8,45.3,19
				c43.2,3.2,94.8,4.2,110.6,7.4c4.1,0.8,9.2,1.6,14.8,2.4l0,0.7c0,0,21.1,3.2,34.7,3.2c1.6,0,3.3,0,5.3-0.1
				c1.9,0.1,3.7,0.1,5.3,0.1c13.7,0,34.7-3.2,34.7-3.2l0-0.7c5.5-0.8,10.7-1.6,14.8-2.4c15.8-3.2,67.4-4.2,110.6-7.4
				c43.2-3.2,45.3-19,45.3-19v-7.4c0,0,2.1-9.5,2.1-13.7s-4.2-8.4-4.2-8.4s5.8-25.3-3.2-56.9c-14.2-49.9-15.8-108.4-21.1-136.9
				c-4.8-26.1,0.1-85,5-114.8C556.8,551.6,556.9,548.7,557.3,546.9z"/>
		</g>
	</g>
</g>
<g id="BACK_STRIPES_FILL">
	<g>
		<path fill="#D94723" d="M143.8,279.9c2.9,13.5,5.6,25.8,7.2,34.8c4.2,23.7,11.9,42.4,14.5,55.2h413.3c2-14.3,7.9-56.4,13.8-90.1
			H143.8z"/>
	</g>
</g>
<g id="BACK_STRIPES_OUTLINE">
	<g>
		<path fill="#FFDA02" d="M591.3,281.6c0.7-3.9,1.3-7.8,2-11.5H142.3c0.8,3.9,1.7,7.8,2.5,11.5H591.3z"/>
		<path fill="#FFDA02" d="M579.3,360.2H163.9c1.2,4.4,2,8.3,2.2,11.5h411.6c0.3-1.8,0.5-3.7,0.8-5.5
			C578.7,364.6,579,362.5,579.3,360.2z"/>
	</g>
</g>
</g>	
<g id="CUSTOM"></g>
<g id="SLEEVES">
	<path fill="#FDBB2D" d="M599.7,323.2C599.7,323.2,599.7,323.2,599.7,323.2C599.7,323.2,599.7,323.2,599.7,323.2z"/>
	<g>
		<path fill="#004D86" d="M162.5,376.7C162.5,376.7,162.5,376.7,162.5,376.7c0-0.6,0-1.3,0-1.9c0-0.1,0-0.1,0-0.2
			c0-0.6,0-1.2-0.1-1.9c0-0.1,0-0.1,0-0.2c0-0.7-0.1-1.3-0.1-2c0,0,0,0,0,0c0-0.7-0.1-1.4-0.2-2c0,0,0-0.1,0-0.1
			c-0.1-0.6-0.1-1.3-0.2-1.9c0-0.1,0-0.1,0-0.2c-0.1-0.6-0.1-1.2-0.2-1.8c0-0.1,0-0.1,0-0.2c-0.1-0.6-0.2-1.2-0.3-1.8
			c-1.7-8.3-14.5-79-17.2-92.3c-2.8-13.4-15-58.4-17.2-70.7c-0.1-0.5-0.2-1-0.2-1.5c0-0.1,0-0.3-0.1-0.4c-0.1-0.4-0.1-0.8-0.2-1.2
			c0-0.1,0-0.2-0.1-0.4c-0.1-0.5-0.1-1-0.2-1.6c0-0.1,0-0.2,0-0.4c-0.1-0.4-0.1-0.9-0.1-1.3c0-0.2,0-0.3-0.1-0.5
			c-0.1-0.5-0.1-1-0.1-1.5c0-0.1,0-0.1,0-0.2c-0.1-0.5-0.1-1.1-0.1-1.7c0-0.2,0-0.3,0-0.5c0-0.4-0.1-0.8-0.1-1.3c0-0.1,0-0.3,0-0.4
			c0-0.6-0.1-1.1-0.1-1.7c0-0.1,0-0.2,0-0.3c0-0.5-0.1-0.9-0.1-1.4c0-0.2,0-0.3,0-0.5c0-0.5-0.1-0.9-0.1-1.4c0-0.1,0-0.1,0-0.2
			c0-0.5-0.1-1.1-0.1-1.6c0-0.1,0-0.3,0-0.4c0-0.4,0-0.8-0.1-1.3c0-0.1,0-0.2,0-0.3c0-0.5,0-1-0.1-1.5c0,0,0-0.1,0-0.1
			c0-0.5,0-0.9,0-1.4c0-0.1,0-0.2,0-0.2c0-0.9,0-1.8-0.1-2.6c0,0,0,0,0,0c-3.7,2.5-10.9,7.3-15.4,8.8C103,183,67.5,210.1,57,246.7
			c-10.5,36.6-12.5,126.5-12.5,126.5l-3.1,15.7l-3.1,9.4c0,0,36.6,9.4,67.9,11.5c31.4,2.1,51.2,2.1,51.2,2.1s2.1-2.1,1-8.4
			c-1-6.3-2.1-8.4-1-11.5c1-2.9,4.7-12.3,5.2-13.5l0,0C162.5,378,162.5,377.4,162.5,376.7z"/>
		<path fill="#004D86" d="M695.7,388.9l-3.1-15.7c0,0-2.1-89.9-12.5-126.5c-10.5-36.6-46-63.8-52.3-65.9c-4.7-1.6-12.2-6.6-15.8-9.1
			c-0.1,6.6-0.6,19.1-2.2,27.8c-2.2,12.2-14.5,57.3-17.2,70.7c-2.8,13.4-15.6,84-17.2,92.3c-1.1,5.3-1.2,12.9-1.2,17.7
			c0.2-1.2,0.3-1.8,0.3-1.8s4.2,10.5,5.2,13.6s0,5.2-1,11.5c-1,6.3,1,8.4,1,8.4s19.9,0,51.2-2.1c31.4-2.1,67.9-11.5,67.9-11.5
			L695.7,388.9z"/>
	</g>
</g>
<g id="COLLAR">
	<path fill="#FDBB2D" d="M484.2,112.5c-1.3-0.9-2.5-1.8-3.6-2.7c-8.3-6.2-14-11.1-15.9-12.6c-5.2-4.2-5.2-7.3-10.5-10.5
		c-5.2-3.1-7.3-12.5-17.8-17.8c-6.7-3.3-36.6-4.5-57.5-5l0-0.3c0,0-4.1,0-10.5,0.1c-6.3-0.1-10.5-0.1-10.5-0.1l0,0.3
		c-20.9,0.4-50.8,1.6-57.5,5c-10.5,5.2-12.5,14.6-17.8,17.8c-5.2,3.1-5.2,6.3-10.5,10.5c-1.5,1.2-5.4,4.5-11.1,9
		c-3.6,2.8-7.9,6-12.7,9.4c27.3-7.4,69.8-16,120.1-16C415,99.6,455.9,106.2,484.2,112.5z"/>
</g>	
<g id="SHADING">
	<path d="M125.2,183.5c0,0.4,0.1,0.9,0.1,1.4C125.2,184.4,125.2,184,125.2,183.5z"/>
	<path d="M125,181.6c0,0.5,0.1,0.9,0.1,1.4C125.1,182.6,125.1,182.1,125,181.6z"/>
	<path d="M162.5,376.7C162.5,376.7,162.5,376.7,162.5,376.7C162.5,376.7,162.5,376.7,162.5,376.7z"/>
	<path d="M125,179.8c0,0.5,0,1,0.1,1.6C125,180.9,125,180.4,125,179.8z"/>
	<path d="M124.8,174.9c0,0.4,0,0.9,0,1.4C124.8,175.8,124.8,175.4,124.8,174.9z"/>
	<path d="M124.9,178.2c0,0.4,0,0.8,0.1,1.3C124.9,179,124.9,178.6,124.9,178.2z"/>
	<path d="M124.7,172.1c0,0.8,0,1.7,0.1,2.6C124.7,173.8,124.7,172.9,124.7,172.1z"/>
	<polygon points="162.6,378.6 162.6,378.6 162.6,378.6 	"/>
	<path d="M124.8,176.4c0,0.5,0,1,0.1,1.5C124.9,177.4,124.8,176.9,124.8,176.4z"/>
	<path d="M125.3,185.2c0,0.5,0.1,1.1,0.1,1.7C125.3,186.3,125.3,185.8,125.3,185.2z"/>
	<path d="M125.9,192.9c0,0.4,0.1,0.9,0.1,1.3C126,193.7,126,193.3,125.9,192.9z"/>
	<path d="M126.4,196.5c0.1,0.4,0.1,0.8,0.2,1.2C126.5,197.3,126.4,196.9,126.4,196.5z"/>
	<path d="M126.1,194.5c0.1,0.5,0.1,1.1,0.2,1.6C126.2,195.6,126.2,195.1,126.1,194.5z"/>
	<path d="M162.1,368.4c0,0,0,0.1,0,0.1C162.1,368.5,162.1,368.4,162.1,368.4z"/>
	<path d="M161.9,366.3c0,0.1,0,0.1,0,0.2C161.9,366.4,161.9,366.4,161.9,366.3z"/>
	<path d="M126.6,198.1c0.1,0.5,0.2,1,0.2,1.5C126.8,199.1,126.7,198.6,126.6,198.1z"/>
	<path d="M125.7,190.9c0,0.5,0.1,1,0.1,1.5C125.8,191.9,125.8,191.4,125.7,190.9z"/>
	<path d="M125.4,187.3c0,0.4,0.1,0.8,0.1,1.3C125.5,188.2,125.4,187.7,125.4,187.3z"/>
	<path d="M161.7,364.4c0,0.1,0,0.1,0,0.2C161.7,364.5,161.7,364.4,161.7,364.4z"/>
	<path d="M162.4,372.6c0,0.1,0,0.1,0,0.2C162.4,372.7,162.4,372.7,162.4,372.6z"/>
	<path d="M125.5,189.1c0,0.6,0.1,1.1,0.1,1.7C125.6,190.2,125.6,189.6,125.5,189.1z"/>
	<path d="M162.3,370.6C162.3,370.6,162.3,370.6,162.3,370.6C162.3,370.6,162.3,370.6,162.3,370.6z"/>
	<path d="M162.5,374.6c0,0.1,0,0.1,0,0.2C162.5,374.8,162.5,374.7,162.5,374.6z"/>
	<path d="M162.3,370.6c0-0.7-0.1-1.4-0.2-2C162.2,369.2,162.3,369.9,162.3,370.6z"/>
	<path d="M162.6,378.6c0-0.6,0-1.2,0-1.8C162.5,377.4,162.5,378,162.6,378.6z"/>
	<path d="M161.7,364.4c-0.1-0.6-0.2-1.2-0.3-1.8C161.5,363.2,161.6,363.8,161.7,364.4z"/>
	<path d="M162.5,376.7c0-0.6,0-1.2,0-1.9C162.5,375.5,162.5,376.1,162.5,376.7z"/>
	<path d="M162.4,372.6c0-0.7-0.1-1.3-0.1-2C162.3,371.3,162.4,371.9,162.4,372.6z"/>
	<path d="M162.5,374.6c0-0.6,0-1.2-0.1-1.9C162.4,373.4,162.5,374,162.5,374.6z"/>
	<path d="M161.9,366.3c-0.1-0.6-0.1-1.2-0.2-1.8C161.8,365.1,161.9,365.7,161.9,366.3z"/>
	<path d="M162.1,368.4c-0.1-0.6-0.1-1.3-0.2-1.9C162,367.1,162.1,367.7,162.1,368.4z"/>
	<path d="M125.9,192.9c0-0.2,0-0.3-0.1-0.5C125.9,192.6,125.9,192.7,125.9,192.9z"/>
	<path d="M124.8,176.4C124.8,176.4,124.8,176.3,124.8,176.4C124.8,176.3,124.8,176.4,124.8,176.4z"/>
	<path d="M124.9,178.2c0-0.1,0-0.2,0-0.3C124.9,178,124.9,178.1,124.9,178.2z"/>
	<path d="M125,181.6c0-0.1,0-0.1,0-0.2C125,181.5,125,181.6,125,181.6z"/>
	<path d="M125,179.8c0-0.1,0-0.3,0-0.4C124.9,179.6,124.9,179.7,125,179.8z"/>
	<polygon points="124.7,172.1 124.7,172.1 124.7,172.1 	"/>
	<path d="M124.8,174.9c0-0.1,0-0.2,0-0.2C124.8,174.8,124.8,174.9,124.8,174.9z"/>
	<path d="M126.6,198.1c0-0.1,0-0.3-0.1-0.4C126.6,197.8,126.6,198,126.6,198.1z"/>
	<path d="M125.7,190.9c0-0.1,0-0.1,0-0.2C125.7,190.8,125.7,190.9,125.7,190.9z"/>
	<path d="M126.1,194.5c0-0.1,0-0.2,0-0.4C126.1,194.3,126.1,194.4,126.1,194.5z"/>
	<path d="M126.4,196.5c0-0.1,0-0.2-0.1-0.4C126.3,196.2,126.3,196.4,126.4,196.5z"/>
	<path d="M125.4,187.3c0-0.1,0-0.3,0-0.4C125.4,187,125.4,187.2,125.4,187.3z"/>
	<path d="M125.5,189.1c0-0.2,0-0.3,0-0.5C125.5,188.7,125.5,188.9,125.5,189.1z"/>
	<path d="M125.3,185.2c0-0.1,0-0.2,0-0.3C125.2,185,125.2,185.1,125.3,185.2z"/>
	<path d="M125.2,183.5c0-0.2,0-0.3,0-0.5C125.1,183.2,125.1,183.4,125.2,183.5z"/>
	<g>
		
			<radialGradient id="SVGID_1_" cx="271.1592" cy="194.4426" r="778.9562" gradientTransform="matrix(1 0 0 1.0195 0 -14.5922)" gradientUnits="userSpaceOnUse">
			<stop  offset="0" style="stop-color:#FFFFFF"/>
			<stop  offset="1" style="stop-color:#897F76"/>
		</radialGradient>
		<path opacity="0.13" fill="url(#SVGID_1_)" d="M246.8,404.9c0,0,50.4,0.3,66.4-17.6c16-17.9,41.5-78.1,47.9-84.6
			c6.4-6.5,20.7,139.9,57.5,162.7c36.7,22.8,28.7,133.4,52.7,154.6c23.9,21.2,74.8,57.9,74.8,57.9s3.4-77.1,6.6-109.7
			c3.2-32.5,6.6-61.4,5.9-65.1c-1.3-7.2-101.1-79.2-126.1-171c-21.6-79.1-1.7-128.5,7.9-144.8c5.9-10.1,4.5-13.6,33.3-51.2
			c0,0-27.9,7.2-55.1,46.2c-27.1,39.1-51.1,74.8-60.6,83c-9.6,8.1-31.9,21.2-35.1,8.1c-3.2-13-41.2-78-41.2-78s25.3,51.6,12.2,109.7
			C281.2,360.6,246.8,404.9,246.8,404.9z"/>
	</g>
	<path opacity="8.000000e-02" fill="#887F76" d="M550.4,832.6c-4.1,5.4-16.9-11.5-16.9-11.5l5.2-0.9
		C538.7,820.2,554.5,827.3,550.4,832.6z"/>
	<g opacity="2.000000e-02">
		<path d="M280.5,97.4c-2.9,3.3-4.4,6.7-6.8,8.2c-3.7,2.3-3.7,4.5-7.4,7.5c-3.7,3-26.8,23.3-55.1,34.6
			c-28.3,11.3-48.5,18.2-48.5,18.2s-0.5,0.4-1.4,1c0.1,4.7,0.5,13.7,1.6,19.8c1.6,8.7,10.5,40.9,12.6,50.4c2,9.5,11.4,60,12.7,66
			c0.8,3.8,0.9,9.2,0.9,12.6c0.9,5.1,4.3,23.9,3.7,32.3c-0.7,9.7,4.8,70.2,8.7,88.9c3.8,18.7,10.2,73.7,6.6,93.9
			c-3.6,20.2-10.9,66.8-16.1,90c-5.1,22.7-2,40.4-2,40.4s-3,3-3,6s1.5,9.7,1.5,9.7l0,5.2c0,0,0.4,2.8,4.5,5.8l4.4-1.7
			c13.8-12,11.6-2.8,16.8-23.2c5.3-20.5,6.7-42.8,6.7-42.8s1.4-21.6,5.6-35.9c4.2-14.3,0.3-10.4,8.4-20.5c1.3-1.7,2.3-2.3,3-2.3
			c0.9,0,1.4,1.1,1.7,2.1c0.3,1.1,0.6,2.1,1,2.1c0.8,0,2.4-3.4,6.6-16.3c10.6-32.8,15.6-47.5,8.9-62.5c-6.6-15-25.7-42.3-26.1-63.1
			c-0.5-20.8,6.4-40.1,3.6-49.4c-2.7-9.2-7-21.6-7-21.6s-15.9-12.6-15.1-20c0.7-7.3,4.6-73.3-1.9-81.7c-6.6-8.4-28.9-6-30.6-21.8
			c-1.6-15.8-18.6-29.6,3.7-35.9c11.3-3.2,16.9-4.2,21.5-4.2c4.5,0,8.2,0.9,15.5,1.7c14.7,1.5,10,0.3,30.8,1.4
			c3.3,0.2,6.6,0.2,9.7,0.2c16.6,0,30-2,30-2s-1.5,0.2-3.6,0.2c-5.8,0-16.3-1.5-13.8-12.8c3.4-15.4,8.4-9.7,13-20.5
			c4.6-10.8,7.2-18.2,7.2-25.5c0-7.3-0.4-6.9-0.1-12c0.1-1.3,0.7-3,1.6-4.8c-10.7-4.4-17.2-9.5-17.1-10.8c0.2-1.7,2.4-4.4,4.8-6.8
			L280.5,97.4"/>
		<path d="M667.3,242.3c0,0-62.6,84.1-65.2,88.4c-2.7,4.3-14,21.6-16.7,28c-2.7,6.5-6.5,22.1-6.5,22.1s18.9-27,29.1-42.6
			c10.2-15.6,32.4-37.7,43.1-48c10.8-10.2,24.3-24.8,24.3-27c0-0.2-0.1-0.2-0.3-0.2c-2.2,0-17.7,12.3-19.7,14.8
			c-2.2,2.7-41.5,45.8-41.5,45.8s43.7-55,48-64.2C666.2,250.4,667.3,242.3,667.3,242.3"/>
		<path d="M663,229.3c0,0-14.6,21-18.3,26.4c-3.8,5.4-23.7,22.1-23.7,22.1s12.4-3.8,24.3-15.1C657.1,251.4,663,229.3,663,229.3"/>
		<path d="M61.2,258.5c0,0-8.6,18.3,8.6,43.1c17.3,24.8,62,42.6,69,48c7,5.4,18.3,7.5,18.3,7.5s-24.8-27.5-38.3-35.1
			c-13.5-7.5-38.8-28-44.8-38.8C68.2,272.5,61.2,258.5,61.2,258.5"/>
		<path d="M69.8,340.4c0,0,7,15.6,32.4,25.9c12.3,5,23.5,6.3,31.8,6.3c8.7,0,14.1-1.4,14.1-1.4s-28.6-5.4-43.7-9.7
			C89.2,357.1,69.8,340.4,69.8,340.4"/>
		<path d="M88.9,268.6c-4.3,0-7.2,1.8-7.2,1.8s9.2,7.5,15.1,17.8c5.9,10.2,14.6,9.7,27,15.6c12,5.7,15.4,20,15.6,21
			c-0.2-1.1-5.1-22.2-14-27.4c-9.2-5.4-12.4-9.7-22.6-21.6C97.8,270,92.8,268.6,88.9,268.6"/>
		<path d="M518.3,827.2c0,0-2.6,5.3-7.8,6.6c-0.5,0.1-1.1,0.2-1.7,0.2c-5.2,0-12.5-4.8-12.5-4.8s19.4,24.5,27,24.5
			c0.4,0,0.7-0.1,1-0.2C530.9,850.9,518.3,827.2,518.3,827.2"/>
		<path d="M334.3,834.7c0,0-1,0.3-2.6,0.8c-1.5,1.8-7.3,8.1-15.3,16.1c0.8,0.2,1.7,0.3,2.6,0.3c0.6,0,1.3-0.1,2-0.2
			C335.7,849.4,334.3,834.7,334.3,834.7 M302.7,830.7c0,0,1.5,9.4,6.3,15.6c9.4-4.8,17.2-8.6,20.8-10.3c-3.7,1.1-9.2,2.5-13.7,3.2
			c-0.4,0.1-0.9,0.1-1.3,0.1C307.8,839.3,302.7,830.7,302.7,830.7"/>
		<path d="M331.7,835.5c-0.6,0.2-1.2,0.4-1.9,0.6c-3.7,1.7-11.5,5.5-20.8,10.3c1.9,2.5,4.3,4.5,7.4,5.2
			C324.4,843.6,330.3,837.3,331.7,835.5"/>
	</g>
</g>
</svg>
