<?xml version="1.0" encoding="utf-8"?>
<!-- Generator: Adobe Illustrator 25.3.1, SVG Export Plug-In . SVG Version: 6.00 Build 0)  -->
<svg version="1.1" xmlns="http://www.w3.org/2000/svg" xmlns:xlink="http://www.w3.org/1999/xlink" x="0px" y="0px"
	 viewBox="0 0 610.4 1002.1" enable-background="new 0 0 746.4 1002.1" xml:space="preserve">
<g id="MASKL">
<g id="SHIRT_BODY">
	<path fill="#EE4D9B" stroke="#897F76" stroke-width="0.3809" d="M180.1,375c3.6-40,66.7-148.9,74.5-158.1
		c5.5-6.5,53.8-63.1,90.4-106.9c20.7-11,53.3-26.9,76.1-30.5c23.7-3.8,62.5-1.9,85.9-0.2c2.3,3.6,3.7,6.7,3.7,8.7
		c0,9.1,47.2,76.3,61.8,136.3c14.5,60-3.6,179.9-12.7,212.6c-9.1,32.7-41.8,119.9-41.8,145.4c0,25.4,46.2,179.6,10.3,343.8
		c-0.8,3.7,23.7,69.1-125-16.9c-84.5-48.9-194.8-18.8-194.8-18.8c-23.9-49.9-19.5-186.3-24.9-228.1c-5.5-41.8,1.8-154.4-3.6-176.2
		C174.6,464.1,176.4,415,180.1,375z"/>
</g>
<g id="GRAPHICS">
	<g>
		<g>
			<path fill="#FDBB2D" d="M180.1,485.9c0.2,0.9,0.4,1.9,0.6,3l-1.3-36.7l-1.7-0.6l-0.8-23.4C176.2,451.8,176.9,473.4,180.1,485.9z"
				/>
			<path fill="#FDBB2D" d="M571.6,364.9L568,260.8l-3.9,106.6l1.7-0.6l-1.8,51.8c2.1-10.6,4.4-23.8,6.4-38.4l-0.5-14.7L571.6,364.9z
				"/>
			<path fill="#FDBB2D" d="M549.7,372.1L546.1,268l-3.9,106.6l1.7-0.6l-3.7,106.5l-1.7,0.6l-0.8,24.5c4.7-14.4,9.5-28.7,13.6-41.2
				l-3.2-91.7L549.7,372.1z"/>
			<path fill="#FDBB2D" d="M191.7,351l-3.6,104.1l-1.7-0.6l-3.5,100.5l-0.7-21.2c-0.2,42.8-2.1,100.8,1.5,128.2
				c5.5,41.8,1,178.2,24.9,228.1c0,0,110.2-30.2,194.8,18.8c148.6,86,124.2,20.6,125,16.9C564.2,761.8,518,607.6,518,582.2
				c0-11.4,6.6-35.4,14.7-61.2l-1.3-37.5l-1.7,0.6l-3.6-104.1l1.7-0.6l-3.6-104.1l-3.9,106.6l1.7-0.6l-3.7,106.5l-1.7,0.6L513,591.2
				l-3.5-100.6l-1.7,0.6l-1.8-50.8c-2.2,0.8-4.8,1.7-7.9,2.5l-1.8,52.1l-1.7,0.6l-3.6,102.9l-3.5-100.5l-1.7,0.6l-1.8-52.3
				c-2.4,0.5-5,0.9-7.7,1.3l-1.9,54.7l-1.7,0.6l-3.6,102.9l-3.5-100.5l-1.7,0.6l-1.9-56.2c-2.4,0.3-4.8,0.5-7.4,0.8l-2,59.2
				l-1.7,0.6l-3.6,102.9l-3.5-100.6l-1.7,0.6l-2.1-61.5c-2.3,0.2-4.6,0.3-7,0.4l-2.2,64.8l-1.7,0.6l-3.6,102.9L422,519.6l-1.7,0.6
				l-2.3-67.6c-0.4,0-0.7,0-1.1,0c-1.9,0.1-3.7,0.1-5.5,0.1l-2.5,71.2l-1.7,0.6L402.7,631l-4.4-106.5l-1.7-0.6l-2.5-71.1
				c-2.3,0-4.5-0.1-6.6-0.1l-2.3,67.5l-1.7-0.6l-3.5,100.5l-3.6-102.9l-1.7-0.6l-2.2-64.8c-2.4-0.2-4.8-0.4-7-0.6l-2.1,61.6
				l-1.7-0.6l-3.5,100.6L354.5,510l-1.7-0.6l-2.1-60.1c-2.6-0.5-5.1-0.9-7.3-1.4l-2,57.8l-1.7-0.6l-3.5,100.5l-3.6-102.9l-1.7-0.6
				l-2-58.7c-3.2-1.3-5.6-2.6-7.3-3.8l-2,58.7l-1.7-0.6l-3.5,100.5l-3.6-102.9L309,495l-3.7-106.5l1.7,0.6l-3.9-106.6l-3.6,104.1
				l1.7,0.6l-3.6,104.1l-1.7-0.6l-3.5,100.6l-3.6-102.9l-1.7-0.6l-3.7-106.5l1.7,0.6l-3.9-106.6l-3.6,104.1l1.7,0.6L275.7,484
				l-1.7-0.6L270.5,584l-3.6-102.9l-1.7-0.6L261.5,374l1.7,0.6L259.3,268l-3.6,104.1l1.7,0.6l-3.6,104.1l-1.7-0.6l-3.5,100.5
				L245,473.9l-1.7-0.6l-3.7-106.5l1.7,0.6l-3.9-106.6l-3.6,104.1l1.7,0.6l-3.6,104.1l-1.7-0.6l-3.5,100.6l-3.6-102.9l-1.7-0.6
				l-3.7-106.5l1.7,0.6l-2.9-77.3c-0.8,1.4-1.5,2.9-2.2,4.4l-2.4,70.5l1.7,0.6L210,462.3l-1.7-0.6l-3.5,100.5l-3.6-102.9l-1.7-0.6
				l-3.7-106.5l1.7,0.6l-1.1-28.5c-2.2,5-4.2,9.9-6.1,14.6l-0.4,11.4L191.7,351z"/>
		</g>
	</g>
</g>
	
<g id="BACK_STRIPES_FILL">
	<g>
		<path fill="#D94723" d="M520.9,291.5c-2.7,30.4-7.4,58.4-7.2,67.1c0.1,3.5,0.4,10.8,0.9,19.5h56.1c3.7-26.5,6.7-57.5,7.2-86.6
			H520.9z"/>
	</g>
</g>
<g id="BACK_STRIPES_OUTLINE">
	<g>
		<path fill="#FFDA02" d="M521.7,282c-0.3,3.7-0.6,7.4-0.9,11.1h57.1c0.1-3.7,0.1-7.4,0.1-11.1H521.7z"/>
		<path fill="#FFDA02" d="M514.1,368.6c0.2,3.3,0.3,7.1,0.5,11.1h55.8c0.5-3.6,1-7.3,1.5-11.1H514.1z"/>
	</g>
</g>	
<g id="SHIRT_STITCHING">
	<g>
		<g>
			<g opacity="0.5">
				<g>
					<path opacity="0.5" fill="none" stroke="#000000" stroke-width="0.3709" d="M397,906.5c0.1-9.4,0.1-18.8,0.2-28.2"/>
					<path opacity="0.5" fill="none" stroke="#000000" stroke-width="0.3709" d="M404.6,905.6c0.1-9.4,0.1-18.8,0.2-28.2"/>
					<path opacity="0.5" fill="none" stroke="#000000" stroke-width="0.3709" d="M399.5,906.2c0.1-9.4,0.1-18.8,0.2-28.2"/>
					<path opacity="0.5" fill="none" stroke="#000000" stroke-width="0.3709" d="M402.1,905.9c0.1-9.4,0.1-18.8,0.2-28.2"/>
					<path opacity="0.5" fill="none" stroke="#000000" stroke-width="0.3709" d="M396.5,878c0.3,7,7.8-1.9,8.7,2.8
						c1.5,8.1-7.5,2.8-8.5,5.7c-2.9,8,7.6,3.1,8.1,4.2c3.5,7.1-7.6,5.8-8,6.5c-2.9,6.1,2.6,5.1,3.4,5c1.5-0.2,5.7-2.9,4.9,3.2"/>
					<path opacity="0.5" fill="none" stroke="#000000" stroke-width="0.3709" d="M396.5,907.2c-1.7-9.2,7-3,8.3-5.8
						c3.7-8-7.5-4.3-7.8-4.8c-4.3-6.9,7.4-6.4,7.6-6.7c4.1-7.3-7-3.9-7.3-4.3c-2.6-3.5,0.5-5.3,1.8-5.7c2-0.6,4.4,0.5,6.2-1.3"/>
					<path opacity="0.5" fill="none" stroke="#000000" stroke-width="0.3709" d="M399.1,906.8c1.9-1.4,3.8-2.7,5.7-4.1"/>
					<line opacity="0.5" fill="none" stroke="#000000" stroke-width="0.3709" x1="396.3" y1="903.4" x2="404.8" y2="897.2"/>
					<line opacity="0.5" fill="none" stroke="#000000" stroke-width="0.3709" x1="396.4" y1="897.9" x2="404.9" y2="891.8"/>
					<line opacity="0.5" fill="none" stroke="#000000" stroke-width="0.3709" x1="396.4" y1="891.7" x2="404.9" y2="885.6"/>
					<line opacity="0.5" fill="none" stroke="#000000" stroke-width="0.3709" x1="396.5" y1="885.9" x2="405" y2="879.8"/>
				</g>
				<g>
					<line opacity="0.5" fill="none" stroke="#000000" stroke-width="0.3709" x1="397.2" y1="877.9" x2="397.8" y2="800.2"/>
					<line opacity="0.5" fill="none" stroke="#000000" stroke-width="0.3709" x1="404.8" y1="877" x2="405.4" y2="799.2"/>
					<line opacity="0.5" fill="none" stroke="#000000" stroke-width="0.3709" x1="399.7" y1="877.6" x2="400.3" y2="799.9"/>
					<line opacity="0.5" fill="none" stroke="#000000" stroke-width="0.3709" x1="402.3" y1="877.3" x2="402.8" y2="799.5"/>
					<path opacity="0.5" fill="none" stroke="#000000" stroke-width="0.3709" d="M397.1,799.9c0,2.4,0.7,2.5,0.7,2.5l7.5-1
						c0,0,0.5-1.2,0.5,1.8c0,3-0.6,3.6-0.6,3.6l-7.6,1c0,0-0.5-0.1-0.6,2.5c0,2.6,0.6,2.9,0.6,2.9l7.5-1c0,0,0.5,0.1,0.5,2.8
						c0,2.6-0.7,2.9-0.7,2.9l-7.6,1c0,0-0.5,0.4-0.5,2.7c0,2.2,0.5,2.9,0.5,2.9l7.7-1c0,0,0.5,0,0.5,2.6c0,2.8-0.5,3.3-0.5,3.3
						l-7.7,1c0,0-0.6-0.1-0.6,2.9c0,3,0.7,2.9,0.7,2.9l7.6-0.9c0,0,0.5-0.1,0.5,2.6c0,2.6-0.6,3.4-0.6,3.4l-7.5,1
						c0,0-0.6,0.4-0.6,3.1c0,2.6,0.6,2.7,0.6,2.7l7.4-0.9c0,0,0.7-0.5,0.7,2.2c0,2.6-0.8,3.1-0.8,3.1l-7.4,0.9c0,0-0.5-0.7-0.6,2.3
						c0,3,0.6,3.3,0.6,3.3l7.3-0.9c0,0,0.8-0.1,0.8,2.7c0,2.8-0.8,3.2-0.8,3.2l-7.3,0.9c0,0-0.6-0.4-0.6,2.2c0,2.6,0.6,2.9,0.6,2.9
						l7.3-0.9c0,0,0.8-0.1,0.7,2.5c0,2.6-0.8,2.9-0.8,2.9l-7.4,0.9l-0.6,0.6"/>
					<path opacity="0.5" fill="none" stroke="#000000" stroke-width="0.3709" d="M405.3,876.7c0-2.4-0.7-2.5-0.7-2.5l-7.6,0.9
						c0,0-0.5,1.2-0.5-1.8c0-3,0.6-3.6,0.6-3.6l7.6-0.9c0,0,0.5,0.1,0.6-2.5c0-2.6-0.6-2.9-0.6-2.9l-7.5,0.9c0,0-0.5-0.1-0.5-2.8
						c0-2.6,0.7-2.9,0.7-2.9l7.6-1c0,0,0.5-0.4,0.5-2.7c0-2.2-0.5-2.9-0.5-2.9l-7.7,1c0,0-0.5,0.1-0.5-2.6c0-2.8,0.5-3.3,0.5-3.3
						l7.7-1c0,0,0.6,0.1,0.6-2.9c0-3-0.7-2.9-0.7-2.9l-7.6,0.9c0,0-0.5,0.1-0.5-2.6c0-2.6,0.6-3.4,0.6-3.4l7.6-1
						c0,0,0.6-0.4,0.6-3.1c0-2.6-0.6-2.7-0.6-2.7l-7.4,0.9c0,0-0.7,0.5-0.7-2.2c0-2.6,0.8-3.1,0.8-3.1l7.4-0.9c0,0,0.5,0.7,0.6-2.3
						c0-3-0.6-3.3-0.6-3.3l-7.3,0.9c0,0-0.8,0.1-0.8-2.7c0-2.8,0.8-3.2,0.8-3.2l7.3-0.9c0,0,0.6,0.4,0.6-2.2c0-2.6-0.6-2.9-0.6-2.9
						l-7.3,0.9c0,0-0.8,0.1-0.8-2.5c0-2.6,0.8-2.9,0.8-2.9l7.4-0.9l0.6-0.6"/>
					<line opacity="0.5" fill="none" stroke="#000000" stroke-width="0.3709" x1="396.5" y1="875.1" x2="405" y2="869"/>
					<line opacity="0.5" fill="none" stroke="#000000" stroke-width="0.3709" x1="396.6" y1="870.1" x2="405.1" y2="864"/>
					<line opacity="0.5" fill="none" stroke="#000000" stroke-width="0.3709" x1="396.6" y1="863.7" x2="405.1" y2="857.6"/>
					<line opacity="0.5" fill="none" stroke="#000000" stroke-width="0.3709" x1="396.7" y1="858.3" x2="405.2" y2="852.2"/>
					<line opacity="0.5" fill="none" stroke="#000000" stroke-width="0.3709" x1="396.7" y1="853.5" x2="405.2" y2="847.4"/>
					<line opacity="0.5" fill="none" stroke="#000000" stroke-width="0.3709" x1="396.7" y1="848.1" x2="405.2" y2="842"/>
					<line opacity="0.5" fill="none" stroke="#000000" stroke-width="0.3709" x1="396.8" y1="842.5" x2="405.3" y2="836.3"/>
					<line opacity="0.5" fill="none" stroke="#000000" stroke-width="0.3709" x1="396.8" y1="836.3" x2="405.3" y2="830.1"/>
					<line opacity="0.5" fill="none" stroke="#000000" stroke-width="0.3709" x1="396.9" y1="830.6" x2="405.4" y2="824.5"/>
					<line opacity="0.5" fill="none" stroke="#000000" stroke-width="0.3709" x1="396.9" y1="825.2" x2="405.4" y2="819.1"/>
					<line opacity="0.5" fill="none" stroke="#000000" stroke-width="0.3709" x1="396.9" y1="819.8" x2="405.4" y2="813.6"/>
					<line opacity="0.5" fill="none" stroke="#000000" stroke-width="0.3709" x1="397" y1="813.6" x2="405.5" y2="807.4"/>
					<line opacity="0.5" fill="none" stroke="#000000" stroke-width="0.3709" x1="397" y1="807.7" x2="405.5" y2="801.6"/>
				</g>
				<g>
					<line opacity="0.5" fill="none" stroke="#000000" stroke-width="0.3709" x1="397.8" y1="799.8" x2="398.3" y2="722"/>
					<line opacity="0.5" fill="none" stroke="#000000" stroke-width="0.3709" x1="405.4" y1="798.8" x2="406" y2="721"/>
					<line opacity="0.5" fill="none" stroke="#000000" stroke-width="0.3709" x1="400.3" y1="799.5" x2="400.9" y2="721.7"/>
					<line opacity="0.5" fill="none" stroke="#000000" stroke-width="0.3709" x1="402.8" y1="799.1" x2="403.4" y2="721.4"/>
					<path opacity="0.5" fill="none" stroke="#000000" stroke-width="0.3709" d="M397.6,721.7c0,2.4,0.7,2.5,0.7,2.5l7.6-1
						c0,0,0.5-1.2,0.5,1.8c0,3-0.6,3.6-0.6,3.6l-7.6,1c0,0-0.5-0.1-0.6,2.5c0,2.6,0.6,2.9,0.6,2.9l7.5-1c0,0,0.5,0.1,0.5,2.8
						c0,2.6-0.7,2.9-0.7,2.9l-7.6,1c0,0-0.5,0.4-0.5,2.7c0,2.3,0.5,3,0.5,3l7.7-1c0,0,0.5-0.1,0.5,2.6c0,2.8-0.5,3.2-0.5,3.2l-7.7,1
						c0,0-0.6-0.1-0.6,2.9c0,3,0.7,2.9,0.7,2.9l7.5-0.9c0,0,0.5-0.1,0.5,2.6c0,2.6-0.6,3.5-0.6,3.5l-7.6,1c0,0-0.6,0.5-0.6,3.1
						c0,2.6,0.6,2.7,0.6,2.7l7.4-1c0,0,0.7-0.5,0.7,2.2c0,2.6-0.8,3.1-0.8,3.1l-7.4,0.9c0,0-0.5-0.7-0.6,2.3c0,3,0.6,3.3,0.6,3.3
						l7.3-0.9c0,0,0.8-0.1,0.8,2.7c0,2.8-0.8,3.2-0.8,3.2l-7.3,0.9c0,0-0.6-0.4-0.6,2.2c0,2.6,0.6,2.9,0.6,2.9l7.3-0.9
						c0,0,0.8-0.1,0.7,2.5c0,2.6-0.8,2.9-0.8,2.9l-7.4,0.9l-0.6,0.6"/>
					<path opacity="0.5" fill="none" stroke="#000000" stroke-width="0.3709" d="M405.9,798.5c0-2.4-0.7-2.5-0.7-2.5l-7.6,1
						c0,0-0.5,1.2-0.5-1.8c0-3,0.6-3.6,0.6-3.6l7.6-1c0,0,0.5,0.1,0.6-2.5c0-2.6-0.6-2.9-0.6-2.9l-7.5,0.9c0,0-0.5-0.1-0.5-2.7
						c0-2.6,0.7-2.9,0.7-2.9l7.5-1c0,0,0.5-0.4,0.5-2.7c0-2.3-0.5-2.9-0.5-2.9l-7.7,1c0,0-0.5,0.1-0.5-2.6c0-2.8,0.5-3.3,0.5-3.3
						l7.7-1c0,0,0.6,0.1,0.6-2.9c0-3-0.7-2.9-0.7-2.9l-7.6,1c0,0-0.5,0.1-0.5-2.6c0-2.6,0.6-3.5,0.6-3.5l7.6-1c0,0,0.6-0.5,0.6-3.1
						c0-2.6-0.6-2.7-0.6-2.7l-7.4,0.9c0,0-0.7,0.5-0.7-2.1c0-2.6,0.8-3.1,0.8-3.1l7.4-0.9c0,0,0.5,0.7,0.6-2.3c0-3-0.6-3.3-0.6-3.3
						l-7.3,0.9c0,0-0.8,0.1-0.8-2.7c0-2.8,0.8-3.2,0.8-3.2l7.3-0.9c0,0,0.6,0.4,0.6-2.2c0-2.6-0.6-2.9-0.6-2.9l-7.3,0.9
						c0,0-0.8,0.1-0.7-2.5c0-2.6,0.8-2.9,0.8-2.9l7.4-0.9l0.6-0.6"/>
					<line opacity="0.5" fill="none" stroke="#000000" stroke-width="0.3709" x1="397.1" y1="797" x2="405.6" y2="790.8"/>
					<line opacity="0.5" fill="none" stroke="#000000" stroke-width="0.3709" x1="397.1" y1="791.9" x2="405.6" y2="785.8"/>
					<line opacity="0.5" fill="none" stroke="#000000" stroke-width="0.3709" x1="397.2" y1="785.6" x2="405.7" y2="779.4"/>
					<line opacity="0.5" fill="none" stroke="#000000" stroke-width="0.3709" x1="397.2" y1="780.1" x2="405.7" y2="774"/>
					<line opacity="0.5" fill="none" stroke="#000000" stroke-width="0.3709" x1="397.3" y1="775.4" x2="405.8" y2="769.2"/>
					<line opacity="0.5" fill="none" stroke="#000000" stroke-width="0.3709" x1="397.3" y1="769.9" x2="405.8" y2="763.8"/>
					<line opacity="0.5" fill="none" stroke="#000000" stroke-width="0.3709" x1="397.3" y1="764.3" x2="405.8" y2="758.2"/>
					<line opacity="0.5" fill="none" stroke="#000000" stroke-width="0.3709" x1="397.4" y1="758.1" x2="405.9" y2="752"/>
					<line opacity="0.5" fill="none" stroke="#000000" stroke-width="0.3709" x1="397.4" y1="752.5" x2="405.9" y2="746.3"/>
					<line opacity="0.5" fill="none" stroke="#000000" stroke-width="0.3709" x1="397.5" y1="747" x2="406" y2="740.9"/>
					<line opacity="0.5" fill="none" stroke="#000000" stroke-width="0.3709" x1="397.5" y1="741.6" x2="406" y2="735.4"/>
					<line opacity="0.5" fill="none" stroke="#000000" stroke-width="0.3709" x1="397.5" y1="735.4" x2="406.1" y2="729.2"/>
					<line opacity="0.5" fill="none" stroke="#000000" stroke-width="0.3709" x1="397.6" y1="729.6" x2="406.1" y2="723.4"/>
				</g>
				<g>
					<line opacity="0.5" fill="none" stroke="#000000" stroke-width="0.3709" x1="398.3" y1="721.6" x2="398.9" y2="643.9"/>
					<line opacity="0.5" fill="none" stroke="#000000" stroke-width="0.3709" x1="406" y1="720.6" x2="406.5" y2="642.9"/>
					<line opacity="0.5" fill="none" stroke="#000000" stroke-width="0.3709" x1="400.9" y1="721.3" x2="401.4" y2="643.5"/>
					<line opacity="0.5" fill="none" stroke="#000000" stroke-width="0.3709" x1="403.4" y1="721" x2="404" y2="643.2"/>
					<path opacity="0.5" fill="none" stroke="#000000" stroke-width="0.3709" d="M398.2,643.5c0,2.4,0.7,2.5,0.7,2.5l7.6-1
						c0,0,0.5-1.2,0.5,1.8c0,3-0.6,3.6-0.6,3.6l-7.6,1c0,0-0.5-0.1-0.6,2.5c0,2.6,0.6,2.9,0.6,2.9l7.5-1c0,0,0.5,0.1,0.5,2.7
						c0,2.6-0.7,2.9-0.7,2.9l-7.6,1c0,0-0.5,0.4-0.5,2.7c0,2.2,0.5,2.9,0.5,2.9l7.7-1c0,0,0.5-0.1,0.5,2.6c0,2.8-0.5,3.3-0.5,3.3
						l-7.7,1c0,0-0.6-0.1-0.6,2.9c0,3,0.7,2.9,0.7,2.9l7.6-1c0,0,0.5-0.1,0.5,2.6c0,2.6-0.6,3.5-0.6,3.5l-7.6,1c0,0-0.6,0.4-0.6,3.1
						c0,2.6,0.6,2.7,0.6,2.7l7.4-1c0,0,0.7-0.5,0.7,2.2c0,2.6-0.8,3.1-0.8,3.1l-7.4,0.9c0,0-0.5-0.7-0.6,2.3c0,3,0.6,3.3,0.6,3.3
						l7.3-1c0,0,0.8-0.1,0.8,2.7c0,2.8-0.8,3.2-0.8,3.2l-7.3,0.9c0,0-0.6-0.4-0.6,2.2c0,2.6,0.6,2.9,0.6,2.9l7.3-1
						c0,0,0.8-0.1,0.8,2.5c0,2.6-0.8,2.9-0.8,2.9l-7.4,0.9l-0.6,0.6"/>
					<path opacity="0.5" fill="none" stroke="#000000" stroke-width="0.3709" d="M406.5,720.3c0-2.4-0.7-2.5-0.7-2.5l-7.6,1
						c0,0-0.5,1.2-0.5-1.8c0-3,0.6-3.6,0.6-3.6l7.6-1c0,0,0.5,0.1,0.6-2.5c0-2.6-0.6-2.9-0.6-2.9l-7.5,1c0,0-0.5-0.1-0.5-2.8
						c0-2.6,0.7-2.9,0.7-2.9l7.6-1c0,0,0.5-0.4,0.5-2.7c0-2.2-0.5-2.9-0.5-2.9l-7.7,1c0,0-0.5,0.1-0.5-2.6c0-2.8,0.5-3.3,0.5-3.3
						l7.7-1c0,0,0.6,0.1,0.6-2.9c0-3-0.7-2.9-0.7-2.9l-7.6,1c0,0-0.5,0.1-0.5-2.6c0-2.6,0.6-3.4,0.6-3.4l7.6-1c0,0,0.6-0.5,0.6-3.1
						c0-2.6-0.6-2.7-0.6-2.7l-7.4,1c0,0-0.7,0.5-0.7-2.2c0-2.6,0.8-3.1,0.8-3.1l7.4-1c0,0,0.5,0.7,0.6-2.3c0-3-0.6-3.3-0.6-3.3
						l-7.3,0.9c0,0-0.8,0.1-0.8-2.7c0-2.8,0.8-3.2,0.8-3.2l7.3-0.9c0,0,0.6,0.4,0.6-2.2c0-2.6-0.6-2.9-0.6-2.9l-7.3,0.9
						c0,0-0.8,0.1-0.7-2.5c0-2.6,0.8-2.9,0.8-2.9l7.4-1l0.6-0.6"/>
					<line opacity="0.5" fill="none" stroke="#000000" stroke-width="0.3709" x1="397.7" y1="718.8" x2="406.2" y2="712.7"/>
					<line opacity="0.5" fill="none" stroke="#000000" stroke-width="0.3709" x1="397.7" y1="713.8" x2="406.2" y2="707.6"/>
					<line opacity="0.5" fill="none" stroke="#000000" stroke-width="0.3709" x1="397.7" y1="707.4" x2="406.2" y2="701.3"/>
					<line opacity="0.5" fill="none" stroke="#000000" stroke-width="0.3709" x1="397.8" y1="702" x2="406.3" y2="695.8"/>
					<line opacity="0.5" fill="none" stroke="#000000" stroke-width="0.3709" x1="397.8" y1="697.2" x2="406.3" y2="691.1"/>
					<line opacity="0.5" fill="none" stroke="#000000" stroke-width="0.3709" x1="397.9" y1="691.8" x2="406.4" y2="685.6"/>
					<line opacity="0.5" fill="none" stroke="#000000" stroke-width="0.3709" x1="397.9" y1="686.1" x2="406.4" y2="680"/>
					<line opacity="0.5" fill="none" stroke="#000000" stroke-width="0.3709" x1="397.9" y1="679.9" x2="406.4" y2="673.8"/>
					<line opacity="0.5" fill="none" stroke="#000000" stroke-width="0.3709" x1="398" y1="674.3" x2="406.5" y2="668.2"/>
					<line opacity="0.5" fill="none" stroke="#000000" stroke-width="0.3709" x1="398" y1="668.9" x2="406.5" y2="662.7"/>
					<line opacity="0.5" fill="none" stroke="#000000" stroke-width="0.3709" x1="398.1" y1="663.4" x2="406.6" y2="657.3"/>
					<line opacity="0.5" fill="none" stroke="#000000" stroke-width="0.3709" x1="398.1" y1="657.2" x2="406.6" y2="651.1"/>
					<line opacity="0.5" fill="none" stroke="#000000" stroke-width="0.3709" x1="398.1" y1="651.4" x2="406.6" y2="645.2"/>
				</g>
				<g>
					<line opacity="0.5" fill="none" stroke="#000000" stroke-width="0.3709" x1="398.9" y1="643.4" x2="399.4" y2="565.7"/>
					<line opacity="0.5" fill="none" stroke="#000000" stroke-width="0.3709" x1="406.5" y1="642.4" x2="407" y2="564.7"/>
					<line opacity="0.5" fill="none" stroke="#000000" stroke-width="0.3709" x1="401.4" y1="643.1" x2="401.9" y2="565.4"/>
					<line opacity="0.5" fill="none" stroke="#000000" stroke-width="0.3709" x1="404" y1="642.8" x2="404.5" y2="565"/>
					<path opacity="0.5" fill="none" stroke="#000000" stroke-width="0.3709" d="M398.7,565.4c0,2.4,0.7,2.5,0.7,2.5l7.5-1
						c0,0,0.5-1.2,0.5,1.8c0,3-0.6,3.6-0.6,3.6l-7.6,1c0,0-0.5-0.1-0.6,2.5c0,2.6,0.6,2.9,0.6,2.9l7.5-1c0,0,0.5,0.1,0.5,2.7
						c0,2.6-0.7,2.9-0.7,2.9l-7.6,1c0,0-0.5,0.4-0.5,2.7c0,2.2,0.5,2.9,0.5,2.9l7.7-1c0,0,0.5-0.1,0.5,2.6c0,2.8-0.5,3.3-0.5,3.3
						l-7.7,1c0,0-0.6-0.1-0.6,2.9c0,3,0.7,2.9,0.7,2.9l7.6-1c0,0,0.5-0.1,0.5,2.6c0,2.6-0.6,3.4-0.6,3.4l-7.6,1c0,0-0.6,0.5-0.6,3.1
						c0,2.6,0.6,2.8,0.6,2.8l7.4-1c0,0,0.7-0.5,0.7,2.2c0,2.6-0.8,3.1-0.8,3.1l-7.4,1c0,0-0.5-0.7-0.6,2.3c0,3,0.6,3.3,0.6,3.3
						l7.3-1c0,0,0.8-0.1,0.8,2.7c0,2.8-0.8,3.2-0.8,3.2l-7.3,1c0,0-0.6-0.4-0.6,2.2c0,2.6,0.6,2.9,0.6,2.9l7.3-1
						c0,0,0.8-0.1,0.7,2.5c0,2.6-0.8,2.9-0.8,2.9l-7.4,1l-0.5,0.6"/>
					<path opacity="0.5" fill="none" stroke="#000000" stroke-width="0.3709" d="M407,642.1c0-2.4-0.7-2.5-0.7-2.5l-7.6,1
						c0,0-0.5,1.2-0.5-1.8c0-3,0.6-3.6,0.6-3.6l7.6-1c0,0,0.5,0.1,0.6-2.5c0-2.6-0.6-2.9-0.6-2.9l-7.5,1c0,0-0.5-0.1-0.5-2.7
						c0-2.6,0.7-2.9,0.7-2.9l7.6-1c0,0,0.5-0.4,0.5-2.7c0-2.3-0.5-2.9-0.5-2.9l-7.7,1c0,0-0.5,0.1-0.5-2.6c0-2.8,0.5-3.3,0.5-3.3
						l7.7-1c0,0,0.6,0.1,0.6-2.9c0-3-0.7-2.9-0.7-2.9l-7.6,1c0,0-0.5,0.1-0.5-2.6c0-2.6,0.6-3.5,0.6-3.5l7.6-1c0,0,0.6-0.5,0.6-3.1
						c0-2.6-0.6-2.7-0.6-2.7l-7.4,1c0,0-0.7,0.5-0.7-2.2c0-2.6,0.8-3.1,0.8-3.1l7.4-1c0,0,0.5,0.7,0.6-2.3c0-3-0.6-3.3-0.6-3.3
						l-7.3,1c0,0-0.8,0.1-0.8-2.7c0-2.8,0.8-3.2,0.8-3.2l7.3-0.9c0,0,0.6,0.4,0.6-2.3c0-2.6-0.6-2.9-0.6-2.9l-7.3,1
						c0,0-0.8,0.1-0.8-2.5c0-2.6,0.8-2.9,0.8-2.9l7.4-1l0.5-0.6"/>
					<line opacity="0.5" fill="none" stroke="#000000" stroke-width="0.3709" x1="398.2" y1="640.7" x2="406.7" y2="634.5"/>
					<line opacity="0.5" fill="none" stroke="#000000" stroke-width="0.3709" x1="398.2" y1="635.6" x2="406.8" y2="629.4"/>
					<line opacity="0.5" fill="none" stroke="#000000" stroke-width="0.3709" x1="398.3" y1="629.3" x2="406.8" y2="623.1"/>
					<line opacity="0.5" fill="none" stroke="#000000" stroke-width="0.3709" x1="398.3" y1="623.8" x2="406.8" y2="617.6"/>
					<line opacity="0.5" fill="none" stroke="#000000" stroke-width="0.3709" x1="398.4" y1="619.1" x2="406.9" y2="612.9"/>
					<line opacity="0.5" fill="none" stroke="#000000" stroke-width="0.3709" x1="398.4" y1="613.6" x2="406.9" y2="607.4"/>
					<line opacity="0.5" fill="none" stroke="#000000" stroke-width="0.3709" x1="398.4" y1="608" x2="406.9" y2="601.8"/>
					<line opacity="0.5" fill="none" stroke="#000000" stroke-width="0.3709" x1="398.5" y1="601.8" x2="407" y2="595.6"/>
					<line opacity="0.5" fill="none" stroke="#000000" stroke-width="0.3709" x1="398.5" y1="596.2" x2="407" y2="590"/>
					<line opacity="0.5" fill="none" stroke="#000000" stroke-width="0.3709" x1="398.6" y1="590.7" x2="407.1" y2="584.5"/>
					<line opacity="0.5" fill="none" stroke="#000000" stroke-width="0.3709" x1="398.6" y1="585.3" x2="407.1" y2="579.1"/>
					<line opacity="0.5" fill="none" stroke="#000000" stroke-width="0.3709" x1="398.6" y1="579.1" x2="407.1" y2="572.9"/>
					<line opacity="0.5" fill="none" stroke="#000000" stroke-width="0.3709" x1="398.7" y1="573.3" x2="407.2" y2="567.1"/>
				</g>
				<g>
					<line opacity="0.5" fill="none" stroke="#000000" stroke-width="0.3709" x1="399.4" y1="565.3" x2="399.9" y2="487.5"/>
					<line opacity="0.5" fill="none" stroke="#000000" stroke-width="0.3709" x1="407" y1="564.3" x2="407.6" y2="486.5"/>
					<line opacity="0.5" fill="none" stroke="#000000" stroke-width="0.3709" x1="401.9" y1="564.9" x2="402.5" y2="487.2"/>
					<line opacity="0.5" fill="none" stroke="#000000" stroke-width="0.3709" x1="404.5" y1="564.6" x2="405" y2="486.9"/>
					<path opacity="0.5" fill="none" stroke="#000000" stroke-width="0.3709" d="M399.3,487.2c0,2.4,0.7,2.5,0.7,2.5l7.6-1
						c0,0,0.5-1.2,0.5,1.8c0,3-0.6,3.6-0.6,3.6l-7.6,1c0,0-0.5-0.1-0.6,2.5c0,2.6,0.6,2.9,0.6,2.9l7.5-1c0,0,0.5,0.1,0.5,2.7
						c0,2.6-0.7,2.9-0.7,2.9l-7.6,1c0,0-0.5,0.4-0.5,2.7c0,2.3,0.5,2.9,0.5,2.9l7.7-1c0,0,0.5-0.1,0.5,2.6c0,2.8-0.5,3.3-0.5,3.3
						l-7.7,1c0,0-0.6-0.1-0.6,2.9c0,3,0.7,2.9,0.7,2.9l7.6-1c0,0,0.5-0.1,0.5,2.6c0,2.6-0.6,3.5-0.6,3.5l-7.5,1c0,0-0.6,0.4-0.6,3.1
						c0,2.6,0.6,2.7,0.6,2.7l7.4-1c0,0,0.7-0.5,0.7,2.2c0,2.6-0.8,3.1-0.8,3.1l-7.4,1c0,0-0.5-0.7-0.6,2.3c0,3,0.6,3.3,0.6,3.3
						l7.3-1c0,0,0.8-0.1,0.8,2.7c0,2.8-0.8,3.2-0.8,3.2l-7.3,1c0,0-0.6-0.4-0.6,2.2c0,2.6,0.6,2.9,0.6,2.9l7.3-1
						c0,0,0.8-0.1,0.8,2.5c0,2.6-0.8,2.9-0.8,2.9l-7.4,1l-0.6,0.6"/>
					<path opacity="0.5" fill="none" stroke="#000000" stroke-width="0.3709" d="M407.5,564c0-2.5-0.7-2.5-0.7-2.5l-7.6,1
						c0,0-0.5,1.2-0.5-1.8c0-3,0.6-3.6,0.6-3.6l7.6-1c0,0,0.5,0.1,0.6-2.5c0-2.6-0.6-2.9-0.6-2.9l-7.5,1c0,0-0.5-0.1-0.5-2.7
						c0-2.6,0.7-2.9,0.7-2.9l7.6-1c0,0,0.5-0.4,0.5-2.7c0-2.2-0.5-2.9-0.5-2.9l-7.7,1c0,0-0.5,0.1-0.5-2.6c0-2.8,0.5-3.3,0.5-3.3
						l7.7-1c0,0,0.6,0.1,0.6-2.9c0-3-0.7-2.9-0.7-2.9l-7.6,1c0,0-0.5,0.1-0.5-2.6c0-2.6,0.6-3.4,0.6-3.4l7.6-1c0,0,0.6-0.5,0.6-3.1
						c0-2.6-0.6-2.7-0.6-2.7l-7.4,1c0,0-0.7,0.5-0.7-2.2c0-2.6,0.8-3.1,0.8-3.1l7.4-1c0,0,0.5,0.7,0.6-2.3c0-3-0.6-3.3-0.6-3.3
						l-7.3,1c0,0-0.8,0.1-0.8-2.7c0-2.8,0.8-3.2,0.8-3.2l7.3-1c0,0,0.6,0.4,0.6-2.2c0-2.6-0.6-2.9-0.6-2.9l-7.3,1
						c0,0-0.8,0.1-0.8-2.5c0-2.6,0.8-2.9,0.8-2.9l7.4-1l0.6-0.6"/>
					<line opacity="0.5" fill="none" stroke="#000000" stroke-width="0.3709" x1="398.7" y1="562.5" x2="407.2" y2="556.3"/>
					<line opacity="0.5" fill="none" stroke="#000000" stroke-width="0.3709" x1="398.8" y1="557.4" x2="407.3" y2="551.3"/>
					<line opacity="0.5" fill="none" stroke="#000000" stroke-width="0.3709" x1="398.8" y1="551.1" x2="407.3" y2="544.9"/>
					<line opacity="0.5" fill="none" stroke="#000000" stroke-width="0.3709" x1="398.9" y1="545.7" x2="407.4" y2="539.5"/>
					<line opacity="0.5" fill="none" stroke="#000000" stroke-width="0.3709" x1="398.9" y1="540.9" x2="407.4" y2="534.7"/>
					<line opacity="0.5" fill="none" stroke="#000000" stroke-width="0.3709" x1="398.9" y1="535.5" x2="407.4" y2="529.3"/>
					<line opacity="0.5" fill="none" stroke="#000000" stroke-width="0.3709" x1="399" y1="529.8" x2="407.5" y2="523.6"/>
					<line opacity="0.5" fill="none" stroke="#000000" stroke-width="0.3709" x1="399" y1="523.6" x2="407.5" y2="517.4"/>
					<line opacity="0.5" fill="none" stroke="#000000" stroke-width="0.3709" x1="399" y1="518" x2="407.6" y2="511.8"/>
					<line opacity="0.5" fill="none" stroke="#000000" stroke-width="0.3709" x1="399.1" y1="512.6" x2="407.6" y2="506.4"/>
					<line opacity="0.5" fill="none" stroke="#000000" stroke-width="0.3709" x1="399.1" y1="507.1" x2="407.6" y2="500.9"/>
					<line opacity="0.5" fill="none" stroke="#000000" stroke-width="0.3709" x1="399.2" y1="500.9" x2="407.7" y2="494.7"/>
					<line opacity="0.5" fill="none" stroke="#000000" stroke-width="0.3709" x1="399.2" y1="495.1" x2="407.7" y2="488.9"/>
				</g>
				<g>
					<path opacity="0.5" fill="none" stroke="#000000" stroke-width="0.3709" d="M399.9,487.1"/>
					<path opacity="0.5" fill="none" stroke="#000000" stroke-width="0.3709" d="M407.6,486.1"/>
					<path opacity="0.5" fill="none" stroke="#000000" stroke-width="0.3709" d="M402.5,486.8"/>
					<path opacity="0.5" fill="none" stroke="#000000" stroke-width="0.3709" d="M405,486.5"/>
					<path opacity="0.5" fill="none" stroke="#000000" stroke-width="0.3709" d="M399.5,454.5c0,2.6,0.6,2.7,0.6,2.7l7.4-1
						c0,0,0.7-0.5,0.7,2.2c0,2.6-0.8,3.1-0.8,3.1l-7.4,1c0,0-0.5-0.7-0.6,2.3c0,3,0.6,3.3,0.6,3.3l7.3-1c0,0,0.8-0.1,0.8,2.7
						c0,2.8-0.8,3.2-0.8,3.2l-7.3,1c0,0-0.6-0.4-0.6,2.2c0,2.6,0.6,2.9,0.6,2.9l7.3-1c0,0,0.8-0.1,0.8,2.5c0,2.6-0.8,2.9-0.8,2.9
						l-7.4,1l-0.6,0.6"/>
					<path opacity="0.5" fill="none" stroke="#000000" stroke-width="0.3709" d="M408.1,485.8c0-2.4-0.7-2.5-0.7-2.5l-7.6,1
						c0,0-0.5,1.2-0.5-1.8c0-3,0.6-3.6,0.6-3.6l7.6-1c0,0,0.5,0.1,0.6-2.5c0-2.6-0.6-2.9-0.6-2.9l-7.5,1c0,0-0.5-0.1-0.5-2.7
						c0-2.6,0.7-2.9,0.7-2.9l7.6-1c0,0,0.5-0.4,0.5-2.7c0-2.3-0.5-3-0.5-3l-7.7,1c0,0-0.5,0.1-0.5-2.6c0-2.8,0.5-3.3,0.5-3.3l7.7-1"
						/>
					<line opacity="0.5" fill="none" stroke="#000000" stroke-width="0.3709" x1="399.3" y1="484.3" x2="407.8" y2="478.1"/>
					<line opacity="0.5" fill="none" stroke="#000000" stroke-width="0.3709" x1="399.3" y1="479.3" x2="407.8" y2="473.1"/>
					<line opacity="0.5" fill="none" stroke="#000000" stroke-width="0.3709" x1="399.4" y1="472.9" x2="407.9" y2="466.7"/>
					<line opacity="0.5" fill="none" stroke="#000000" stroke-width="0.3709" x1="399.4" y1="467.5" x2="407.9" y2="461.3"/>
					<line opacity="0.5" fill="none" stroke="#000000" stroke-width="0.3709" x1="399.4" y1="462.7" x2="407.9" y2="456.6"/>
					<path opacity="0.5" fill="none" stroke="#000000" stroke-width="0.3709" d="M399.5,457.3"/>
				</g>
			</g>
			<g>
				
					<path opacity="0.35" fill="none" stroke="#000000" stroke-width="1.1447" stroke-miterlimit="10" stroke-dasharray="0.9833,0.9837" d="
					M317,405.8c0,0,57.6,7.3,96.2,6.2s102.1-11.8,102.1-11.8"/>
				
					<path opacity="0.35" fill="none" stroke="#000000" stroke-width="1.1447" stroke-miterlimit="10" stroke-dasharray="0.9833,0.9837" d="
					M317.7,411.5c0,0,57.6,7.3,96.2,6.2s102.1-11.8,102.1-11.8"/>
			</g>
		</g>
	</g>
</g>
</g>	
<g id="CUSTOM"></g>	
	
	
<g id="SLEEVES">
	<g>
		
			<image overflow="visible" opacity="0.2" width="255" height="367" xlink:href="/svg/SBDUS64/23E584BE.png"  transform="matrix(1 0 0 1 286.2991 104.0338)">
		</image>
		<g>
			<path fill="#FDBB2D" d="M303.9,238.2c1.5-43.7,13-101.7,72.9-112.9c59.9-11.2,96,7.1,96,7.1s19.2,7.8,29.1,32.7
				c9.9,24.9,20.2,64.9,20.8,83.1c1.3,42.5-9.2,97.6-8.9,110.4c0.3,12.8,3.9,75.5,3.9,75.5s-11.8,15.7-100.8,18.5
				c-90,2.9-100.1-17.2-100.1-17.2s2-83.4-0.4-94.7C314.1,329.5,302.4,281.9,303.9,238.2z"/>
			<path fill="none" stroke="#897F76" stroke-width="0.3461" d="M303.9,238.2c1.5-43.7,13-101.7,72.9-112.9c59.9-11.2,96,7.1,96,7.1
				s19.2,7.8,29.1,32.7c9.9,24.9,20.2,64.9,20.8,83.1c1.3,42.5-9.2,97.6-8.9,110.4c0.3,12.8,3.9,75.5,3.9,75.5
				s-11.8,15.7-100.8,18.5c-90,2.9-100.1-17.2-100.1-17.2s2-83.4-0.4-94.7C314.1,329.5,302.4,281.9,303.9,238.2z"/>
		</g>
	</g>
</g>
<g id="COLLAR">
	<path fill="#004D86" d="M420.6,80.5c-23.2,3.7-56.4,19.8-77.4,31c19.7-23.7,36.5-43.2,42.9-48.3c18.5-14.8,94.2-16.6,94.2-16.6
		s19.3,20.4,27.6,33.7C484.1,78.6,444.7,76.7,420.6,80.5z"/>
</g>

<g id="SHADING">
	<g opacity="2.000000e-02">
		<path d="M518.6,274.5c0.2,3,0.3,4.8,0.3,4.8S518.8,277.5,518.6,274.5 M475.1,184.8c0,0,23.4,27.7,33.2,46
			c7.4,13.9,9.7,34.5,10.3,43.7c-0.7-12.5-3.1-46.4-8.2-61.5C504,194.2,475.1,184.8,475.1,184.8"/>
		<path d="M467.3,214c0,0,13.9,5.9,30.2,20.8c16.3,14.8,18,29.6,18,29.6L467.3,214"/>
		<path d="M428.8,285c0,0,16.6,12.3,32,27c15.5,14.7,50.8,72.2,50.8,72.2s-38.3-39.8-46.2-52.7C457.5,318.5,428.8,285,428.8,285"/>
		<path d="M404.4,324.3c0,0,13.2,11.9,20.9,19.7c7.7,7.8,34,24.6,34,24.6s-26-5.6-36.2-13.7C412.9,346.8,404.4,324.3,404.4,324.3"/>
		<path d="M469.9,656.2l27.5,95.7c0,0-22.5-31.9-26.1-50.7C467.7,682.3,469.9,656.2,469.9,656.2"/>
		<path d="M458.3,693.2c0,0-1.4,10.1,2.2,23.2c3.6,13,21.7,31.2,21.7,31.2s-23.9-16.7-27.5-21.7C451,720.7,458.3,693.2,458.3,693.2"
			/>
	</g>
</g>
</svg>
