<?xml version="1.0" encoding="utf-8"?>
<!-- Generator: Adobe Illustrator 25.3.1, SVG Export Plug-In . SVG Version: 6.00 Build 0)  -->
<svg version="1.1" xmlns="http://www.w3.org/2000/svg" xmlns:xlink="http://www.w3.org/1999/xlink" x="0px" y="0px"
	 viewBox="0 0 610.3 999.2" enable-background="new 0 0 749.3 999.2" xml:space="preserve">
<g id="MASKF">
<g id="SHIRT_BODY">
	<path fill="#FDBB2D" d="M614.7,168.1c0,0-28.9-9.6-69.5-25.7c-25.7-10.1-48.3-25.4-62.9-36.3c-7.2,7.9-37.4,35.2-109.5,35.9
		c-71.4,0.7-105.8-29.8-115-39.6c-14.1,10.9-39,28.7-67.7,40c-40.6,16-69.5,25.7-69.5,25.7s-0.9,0.7-2.4,1.7c0,0,0,0,0,0
		c0,0.8,0,1.7,0.1,2.7c0,0.1,0,0.2,0,0.2c0,0.5,0,0.9,0,1.4c0,0,0,0.1,0,0.1c0,0.5,0,1,0.1,1.5c0,0.1,0,0.2,0,0.3
		c0,0.4,0,0.9,0.1,1.3c0,0.1,0,0.3,0,0.4c0,0.5,0.1,1.1,0.1,1.6c0,0.1,0,0.1,0,0.2c0,0.5,0.1,1,0.1,1.4c0,0.2,0,0.3,0,0.5
		c0,0.5,0.1,0.9,0.1,1.4c0,0.1,0,0.2,0,0.3c0,0.6,0.1,1.1,0.1,1.7c0,0.2,0,0.3,0,0.5c0,0.4,0.1,0.9,0.1,1.3c0,0.2,0,0.3,0,0.5
		c0,0.6,0.1,1.1,0.2,1.7c0,0.1,0,0.1,0,0.2c0,0.5,0.1,1,0.2,1.5c0,0.2,0,0.3,0.1,0.5c0,0.4,0.1,0.9,0.2,1.3c0,0.1,0,0.3,0,0.4
		c0.1,0.5,0.1,1.1,0.2,1.6c0,0.1,0,0.3,0.1,0.4c0.1,0.4,0.1,0.8,0.2,1.2c0,0.1,0,0.3,0.1,0.4c0.1,0.5,0.2,1,0.3,1.5
		c2.3,12.5,14.8,58.6,17.6,72.3s15.9,85.9,17.6,94.5c0.1,0.6,0.2,1.2,0.3,1.8c0,0.1,0,0.1,0,0.2c0.1,0.6,0.2,1.2,0.2,1.8
		c0,0.1,0,0.1,0,0.2c0.1,0.6,0.1,1.3,0.2,1.9c0,0,0,0.1,0,0.1c0.1,0.7,0.1,1.4,0.2,2.1c0,0,0,0,0,0c0,0.7,0.1,1.4,0.1,2.1
		c0,0.1,0,0.1,0,0.2c0,0.6,0.1,1.3,0.1,1.9c0,0.1,0,0.1,0,0.2c0,0.7,0,1.3,0,1.9c0,0,0,0,0,0c0,0.7,0,1.3,0,1.9
		c0-0.1,0.1-0.1,0.1-0.1s6.4,34.2,5.3,48.1c-1.1,13.9,6.4,100.5,11.8,127.3c5.3,26.7,11.8,95.2,6.4,124.1
		c-5.3,28.9-18.2,105.9-21.4,139c-3.2,33.2-3.2,57.8-3.2,57.8s-4.3,4.3-4.3,8.6c0,4.3,2.1,13.9,2.1,13.9v7.5c0,0,2.1,16,46,19.3
		c43.9,3.2,96.3,4.3,112.3,7.5c4.2,0.8,9.4,1.7,15,2.4l0,0.8c0,0,21.4,3.2,35.3,3.2c1.6,0,3.4,0,5.3-0.1c2,0.1,3.8,0.1,5.3,0.1
		c13.9,0,35.3-3.2,35.3-3.2l0-0.8c5.6-0.8,10.8-1.6,15-2.4c16-3.2,68.4-4.3,112.3-7.5s46-19.3,46-19.3v-7.5c0,0,2.1-9.6,2.1-13.9
		c0-4.3-4.3-8.6-4.3-8.6s5.9-25.7-3.2-57.8c-14.4-50.7-16-110.2-21.4-139s1.1-97.3,6.4-124.1c5.3-26.7,12.8-113.4,11.8-127.3
		c-0.9-12,3.7-38.9,5-46.3c0-4.9,0.1-12.7,1.2-18.1c1.7-8.5,14.8-80.8,17.6-94.5c2.8-13.7,15.4-59.8,17.6-72.3
		c1.6-8.8,2.1-21.6,2.2-28.4C615.5,168.7,614.7,168.1,614.7,168.1z"/>
</g>

<g id="GRAPHICS">
	<g>
		<g>
			<path fill="#EE4D9B" d="M146.6,316.7c1.7,9.1,3.4,18.2,4.8,26l0-0.7c-1.4-7.8-3.1-16.8-4.8-25.8L146.6,316.7z"/>
			<path fill="#EE4D9B" d="M151.4,293.8l-2.8-102.3l-2.5,99.9l1.2,0.5l-0.6,24.2c1.7,9,3.3,18,4.8,25.8l-1.2-48.7L151.4,293.8z"/>
			<path fill="#EE4D9B" d="M581.8,198.5l-2.8,102.3l1.2-0.5l-1.6,61.9c0.9-4.7,2.9-15.8,5.3-28.9l-0.9-34.3l1.2-0.5L581.8,198.5z"/>
			<path fill="#EE4D9B" d="M612.1,204.2c0.4-1.5,0.7-2.9,0.9-4.2l-0.4-15.5L612.1,204.2z"/>
			<path fill="#EE4D9B" d="M131.7,244.5c1.3,5.1,2.5,9.9,3.5,14.1l0-0.3c-1-4.2-2.2-9-3.5-14L131.7,244.5z"/>
			<path fill="#EE4D9B" d="M131.7,244.3c1.3,5,2.5,9.8,3.5,14l-2-73.7L131.7,244.3z"/>
			<path fill="#EE4D9B" d="M595,274.5c0.4-2.1,0.8-3.8,1-5.1c0.6-2.9,1.6-7.2,2.9-12.3l-1.7-65.5L595,274.5z"/>
			<path fill="#EE4D9B" d="M560.4,555.1c4.8-24,11.3-96.6,11.8-120.9l-0.7-29l-1.2,0.5l-2.5-99.9l1.2-0.5l-2.5-99.9l-2.8,102.3
				l1.2-0.5l-2.6,102.2l-1.2,0.5l-2.5,98.7l-2.5-96.5l-1.2,0.5l-2.5-99.9l1.2-0.5l-2.5-99.9l-2.8,102.3l1.2-0.5l-2.6,102.2l-1.2,0.5
				l-2.5,98.7l-2.5-96.5l-1.2,0.5l-2.5-99.9l1.2-0.5l-2.5-99.9l-2.8,102.3l1.2-0.5l-2.6,102.2l-1.2,0.5l-2.5,98.7l-2.5-96.5
				l-1.2,0.5l-2.5-99.9l1.2-0.5l-2.5-99.9l-2.8,102.3l1.2-0.5L516,430.2l-1.2,0.5l-2.5,98.7l-2.5-96.5l-1.2,0.5l-2.5-99.9l1.2-0.5
				l-2.5-99.9L502,335.4l1.2-0.5l-2.6,102.2l-1.2,0.5l-2.5,98.7l-2.5-96.5l-1.2,0.5l-2.5-99.9l1.2-0.5l-2.5-99.9l-2.8,102.3l1.2-0.5
				L485.2,444l-1.2,0.5l-2.5,98.7l-2.5-96.5l-1.2,0.5l-2.5-99.9l1.2-0.5l-2.5-99.9l-2.8,102.3l1.2-0.5l-2.6,102.2l-1.2,0.5
				l-2.5,98.7l-2.5-96.5l-1.2,0.5l-2.5-99.9l1.2-0.5l-2.5-99.9l-2.8,102.3l1.2-0.5l-2.6,102.2l-1.2,0.5l-2.5,98.7l-2.5-96.5
				l-1.2,0.5l-2.5-99.9l1.2-0.5l-2.5-99.9l-2.8,102.3l1.2-0.5l-2.6,102.2l-1.2,0.5l-2.5,98.7l-2.5-96.5l-1.2,0.5l-2.5-99.9l1.2-0.5
				l-2.5-99.9l-2.8,102.3l1.2-0.5l-2.6,102.2l-1.2,0.5l-2.5,98.7l-2.5-96.5l-1.2,0.5l-2.5-99.9l1.2-0.5l-2.5-99.9L409.5,377l1.2-0.5
				l-2.6,102.2l-1.2,0.5l-2.5,98.7l-2.5-96.5l-1.2,0.5l-2.5-99.9l1.2-0.5l-2.5-99.9l-2.8,102.3l1.2-0.5l-2.6,102.2l-1.2,0.5
				l-2.5,98.7l-2.5-96.5l-1.2,0.5l-2.5-99.9l1.2-0.5l-2.5-99.9l-2.8,102.3l1.2-0.5l-2.6,102.2l-1.2,0.5l-3.1,102.2l-3.1-102.2
				l-1.2-0.5L366,390.3l1.2,0.5l-2.8-102.3l-2.5,99.9l1.2,0.5l-2.5,99.9l-1.2-0.5l-2.5,96.5l-2.5-98.7l-1.2-0.5l-2.6-102.2l1.2,0.5
				L349,281.6l-2.5,99.9l1.2,0.5l-2.5,99.9l-1.2-0.5l-2.5,96.5l-2.5-98.7l-1.2-0.5l-2.6-102.2l1.2,0.5l-2.8-102.3l-2.5,99.9l1.2,0.5
				l-2.5,99.9l-1.2-0.5l-2.5,96.5l-2.5-98.7l-1.2-0.5l-2.6-102.2l1.2,0.5l-2.8-102.3l-2.5,99.9l1.2,0.5l-2.5,99.9l-1.2-0.5
				l-2.5,96.5l-2.5-98.7l-1.2-0.5l-2.6-102.2l1.2,0.5l-2.8-102.3l-2.5,99.9l1.2,0.5l-2.5,99.9l-1.2-0.5l-2.5,96.5l-2.5-98.7
				l-1.2-0.5l-2.6-102.2l1.2,0.5l-2.8-102.3l-2.5,99.9l1.2,0.5l-2.5,99.9l-1.2-0.5l-2.5,96.5l-2.5-98.7l-1.2-0.5l-2.6-102.2l1.2,0.5
				L271.9,247l-2.5,99.9l1.2,0.5l-2.5,99.9l-1.2-0.5l-2.5,96.5l-2.5-98.7l-1.2-0.5l-2.6-102.2l1.2,0.5L256.5,240L254,340l1.2,0.5
				l-2.5,99.9l-1.2-0.5l-2.5,96.5l-2.5-98.7l-1.2-0.5l-2.6-102.2l1.2,0.5l-2.8-102.3l-2.5,99.9l1.2,0.5l-2.5,99.9l-1.2-0.5
				l-2.5,96.5l-2.5-98.7l-1.2-0.5l-2.6-102.2l1.2,0.5l-2.8-102.3l-2.5,99.9l1.2,0.5l-2.5,99.9l-1.2-0.5l-2.5,96.5l-2.5-98.7
				l-1.2-0.5L211.8,321l1.2,0.5l-2.8-102.3l-2.5,99.9l1.2,0.5l-2.5,99.9l-1.2-0.5l-2.5,96.5l-2.5-98.7l-1.2-0.5l-2.6-102.2l1.2,0.5
				l-2.8-102.3l-2.5,99.9l1.2,0.5l-2.5,99.9l-1.2-0.5l-2.5,96.5l-2.5-98.7l-1.2-0.5L181,307.1l1.2,0.5l-2.8-102.3l-2.5,99.9l1.2,0.5
				l-2.5,99.9l-1.2-0.5l-2.5,96.5l-2.5-98.7l-1.2-0.5l-2.6-102.2l1.2,0.5L164,198.5l-2.5,99.9l1.2,0.5l-2.5,99.9l-0.3-0.1
				c1.5,10.5,3,23.2,2.4,30.4c-1.1,13.9,6.4,100.5,11.8,127.3c5.3,26.7,11.8,95.2,6.4,124.1c-5.3,28.9-18.2,105.9-21.4,139
				c-3.2,33.2-3.2,57.8-3.2,57.8s-4.3,4.3-4.3,8.6s2.1,13.9,2.1,13.9v7.5c0,0,2.1,16,46,19.3c43.9,3.2,96.3,4.3,112.3,7.5
				c4.2,0.8,9.4,1.7,15,2.4l0,0.8c0,0,21.4,3.2,35.3,3.2c1.6,0,3.4,0,5.3-0.1c2,0.1,3.8,0.1,5.3,0.1c13.9,0,35.3-3.2,35.3-3.2l0-0.8
				c5.6-0.8,10.8-1.6,15-2.4c16-3.2,68.4-4.3,112.3-7.5c43.9-3.2,46-19.3,46-19.3v-7.5c0,0,2.1-9.6,2.1-13.9s-4.3-8.6-4.3-8.6
				s5.9-25.7-3.2-57.8c-14.4-50.7-16-110.2-21.4-139c-4.9-26.5,0.1-86.3,5.1-116.6C559.9,559.9,560,556.9,560.4,555.1z"/>
		</g>
	</g>
</g>
<g id="SHIRT_STITCHING">
	
		<path opacity="0.5" fill="none" stroke="#897F76" stroke-width="0.6203" stroke-miterlimit="10" stroke-dasharray="2.2421,1.121" d="
		M561.8,726.3c0,0-0.4,3.7-0.9,5.5c-0.5,1.8-0.9,4.1-0.9,5.8c0,1.6,0.2,3.9,0.7,5.3c0.5,1.4,2.9,8,2.5,9.4c-0.4,1.4-2,4.7-2,6.5
		c0,1.8,0.7,12.4,1.4,15.2c0.7,2.8,3.9,15,5.3,17.3c1.4,2.3,2.1,5.3,2.3,6.7c0.2,1.4,2.3,6.9,2.3,6.9"/>
	<g>
		
			<!--<path opacity="0.35" fill="none" stroke="#00AB5D" stroke-width="1.0455" stroke-miterlimit="10" stroke-dasharray="0.898,0.8984" d="
			M478.9,104c0,0-21.8,32.8-106,33.7c-85,0.8-111.1-37.9-111.1-37.9"/> -->
		
			<path opacity="0.35" fill="none" stroke="#00AB5D" stroke-width="1.0455" stroke-miterlimit="10" stroke-dasharray="0.898,0.8984" d="
			M35,380.7c0,0,26.8,7.4,60.3,10.8s56.3,3.4,56.3,3.4"/>
		
			<path opacity="0.35" fill="none" stroke="#00AB5D" stroke-width="1.0455" stroke-miterlimit="10" stroke-dasharray="0.898,0.8984" d="
			M35,385.7c0,0,26.8,7.4,60.3,10.8c33.6,3.4,56.3,3.4,56.3,3.4"/>
		
			<path opacity="0.35" fill="none" stroke="#00AB5D" stroke-width="1.0455" stroke-miterlimit="10" stroke-dasharray="0.898,0.8984" d="
			M701,380.7c0,0-26.8,7.4-60.3,10.8c-33.6,3.4-56.3,3.4-56.3,3.4"/>
		
			<path opacity="0.35" fill="none" stroke="#00AB5D" stroke-width="1.0455" stroke-miterlimit="10" stroke-dasharray="0.898,0.8984" d="
			M701,385.7c0,0-26.8,7.4-60.3,10.8c-33.6,3.4-56.3,3.4-56.3,3.4"/>
		<path opacity="0.35" fill="none" stroke="#00AB5D" stroke-width="1.0455" stroke-miterlimit="10" d="M616.7,169.6
			c0,0,0.1,15.9-2.2,28.4c-2.3,12.5-14.8,58.6-17.6,72.3c-2.8,13.7-15.9,85.9-17.6,94.5c-1.7,8.5-1.1,22.8-1.1,22.8"/>
		<path opacity="0.35" fill="none" stroke="#00AB5D" stroke-width="1.0455" stroke-miterlimit="10" d="M118.2,169.8
			c0,0-0.1,15.6,2.2,28.1c2.3,12.5,14.8,58.6,17.6,72.3c2.8,13.7,15.9,85.9,17.6,94.5c1.7,8.5,1.1,22.8,1.1,22.8"/>
		
		<!--	<path opacity="0.35" fill="none" stroke="#00AB5D" stroke-width="1.0455" stroke-miterlimit="10" stroke-dasharray="0.898,0.8984" d="
			M482.3,106.2c0,0-25.3,35.1-109.5,35.9c-85,0.8-113.9-39.6-113.9-39.6"/>-->
	</g>
</g>
</g>	
<g id="CUSTOM"></g>

<g id="SLEEVES">
	<path fill="#FDBB2D" d="M604.2,324.4C604.2,324.5,604.2,324.5,604.2,324.4C604.2,324.5,604.2,324.5,604.2,324.4z"/>
	<g>
		<path fill="#004D86" d="M156.9,379.2C156.9,379.2,156.9,379.2,156.9,379.2c0-0.7,0-1.3,0-2c0-0.1,0-0.1,0-0.2c0-0.6,0-1.3-0.1-1.9
			c0-0.1,0-0.1,0-0.2c0-0.7-0.1-1.4-0.1-2.1c0,0,0,0,0,0c0-0.7-0.1-1.4-0.2-2.1c0,0,0-0.1,0-0.1c-0.1-0.6-0.1-1.3-0.2-1.9
			c0-0.1,0-0.1,0-0.2c-0.1-0.6-0.2-1.2-0.2-1.8c0-0.1,0-0.1,0-0.2c-0.1-0.6-0.2-1.2-0.3-1.8c-1.7-8.5-14.8-80.8-17.6-94.5
			s-15.4-59.8-17.6-72.3c-0.1-0.5-0.2-1-0.3-1.5c0-0.1,0-0.3-0.1-0.4c-0.1-0.4-0.1-0.8-0.2-1.2c0-0.1,0-0.3-0.1-0.4
			c-0.1-0.5-0.1-1.1-0.2-1.6c0-0.1,0-0.2,0-0.4c-0.1-0.4-0.1-0.9-0.2-1.3c0-0.2,0-0.3-0.1-0.5c-0.1-0.5-0.1-1-0.2-1.5
			c0-0.1,0-0.1,0-0.2c-0.1-0.6-0.1-1.1-0.2-1.7c0-0.2,0-0.3,0-0.5c0-0.4-0.1-0.9-0.1-1.3c0-0.2,0-0.3,0-0.5c0-0.6-0.1-1.1-0.1-1.7
			c0-0.1,0-0.2,0-0.3c0-0.5-0.1-0.9-0.1-1.4c0-0.2,0-0.3,0-0.5c0-0.5-0.1-1-0.1-1.4c0-0.1,0-0.1,0-0.2c0-0.5-0.1-1.1-0.1-1.6
			c0-0.1,0-0.3,0-0.4c0-0.4,0-0.9-0.1-1.3c0-0.1,0-0.2,0-0.3c0-0.5,0-1-0.1-1.5c0,0,0-0.1,0-0.1c0-0.5,0-0.9,0-1.4
			c0-0.1,0-0.2,0-0.2c0-1-0.1-1.9-0.1-2.7c0,0,0,0,0,0c-3.8,2.6-11.1,7.5-15.8,9c-6.4,2.1-42.8,29.9-53.5,67.4
			c-10.7,37.4-12.8,129.4-12.8,129.4l-3.2,16l-3.2,9.6c0,0,37.4,9.6,69.5,11.8c32.1,2.1,52.4,2.1,52.4,2.1s2.1-2.1,1.1-8.6
			c-1.1-6.4-2.1-8.6-1.1-11.8c1-3,4.8-12.5,5.3-13.8l0,0C156.9,380.5,156.9,379.9,156.9,379.2z"/>
		<path fill="#004D86" d="M702.4,391.7l-3.2-16c0,0-2.1-92-12.8-129.4c-10.7-37.4-47.1-65.2-53.5-67.4c-4.8-1.6-12.5-6.7-16.2-9.3
			c-0.1,6.8-0.6,19.6-2.2,28.4c-2.3,12.5-14.8,58.6-17.6,72.3c-2.8,13.7-15.9,85.9-17.6,94.5c-1.1,5.4-1.3,13.2-1.2,18.1
			c0.2-1.2,0.3-1.9,0.3-1.9s4.3,10.7,5.3,13.9c1.1,3.2,0,5.3-1.1,11.8c-1.1,6.4,1.1,8.6,1.1,8.6s20.3,0,52.4-2.1
			c32.1-2.1,69.5-11.8,69.5-11.8L702.4,391.7z"/>
	</g>
</g>
<g id="COLLAR">
	<path fill="#BE2A43" d="M372.8,142.1c72-0.7,102.2-28,109.5-35.9c-8.5-6.4-14.3-11.3-16.3-12.9c-5.3-4.3-5.3-7.5-10.7-10.7
		c-5.3-3.2-7.5-12.8-18.2-18.2c-6.8-3.4-37.4-4.6-58.8-5.1l0-0.3c0,0-4.2,0-10.7,0.1c-6.5-0.1-10.7-0.1-10.7-0.1l0,0.3
		c-21.4,0.4-52,1.7-58.8,5.1c-10.7,5.3-12.8,15-18.2,18.2c-5.3,3.2-5.3,6.4-10.7,10.7c-1.6,1.3-5.6,4.6-11.4,9.2
		C267,112.2,301.4,142.8,372.8,142.1z"/>
</g>	
	
<g id="SHADING">
	<path d="M118.6,181.6c0,0.5,0.1,0.9,0.1,1.4C118.7,182.5,118.7,182,118.6,181.6z"/>
	<path d="M118.5,179.6c0,0.5,0.1,1,0.1,1.4C118.6,180.6,118.5,180.1,118.5,179.6z"/>
	<path d="M156.9,379.2C156.9,379.2,156.9,379.2,156.9,379.2C156.9,379.2,156.9,379.2,156.9,379.2z"/>
	<path d="M118.4,177.8c0,0.5,0.1,1.1,0.1,1.6C118.5,178.9,118.5,178.3,118.4,177.8z"/>
	<path d="M118.2,172.8c0,0.5,0,0.9,0,1.4C118.3,173.7,118.3,173.2,118.2,172.8z"/>
	<path d="M118.4,176.1c0,0.4,0,0.9,0.1,1.3C118.4,177,118.4,176.5,118.4,176.1z"/>
	<path d="M118.2,169.9c0,0.8,0,1.7,0.1,2.7C118.2,171.6,118.2,170.7,118.2,169.9z"/>
	<polygon points="156.9,381.1 156.9,381.1 156.9,381.1 	"/>
	<path d="M118.3,174.3c0,0.5,0,1,0.1,1.5C118.3,175.3,118.3,174.8,118.3,174.3z"/>
	<path d="M118.7,183.3c0,0.6,0.1,1.1,0.1,1.7C118.8,184.4,118.8,183.8,118.7,183.3z"/>
	<path d="M119.4,191.1c0,0.4,0.1,0.9,0.2,1.3C119.5,192,119.5,191.6,119.4,191.1z"/>
	<path d="M119.9,194.8c0.1,0.4,0.1,0.8,0.2,1.2C120,195.6,119.9,195.2,119.9,194.8z"/>
	<path d="M119.6,192.8c0.1,0.5,0.1,1.1,0.2,1.6C119.7,193.9,119.7,193.4,119.6,192.8z"/>
	<path d="M156.5,370.7c0,0,0,0.1,0,0.1C156.5,370.8,156.5,370.7,156.5,370.7z"/>
	<path d="M156.2,368.6c0,0.1,0,0.1,0,0.2C156.3,368.7,156.3,368.6,156.2,368.6z"/>
	<path d="M120.1,196.5c0.1,0.5,0.2,1,0.3,1.5C120.3,197.5,120.2,197,120.1,196.5z"/>
	<path d="M119.2,189.1c0,0.5,0.1,1,0.2,1.5C119.3,190.1,119.3,189.6,119.2,189.1z"/>
	<path d="M118.9,185.4c0,0.4,0.1,0.9,0.1,1.3C119,186.3,118.9,185.9,118.9,185.4z"/>
	<path d="M156,366.6c0,0.1,0,0.1,0,0.2C156,366.7,156,366.6,156,366.6z"/>
	<path d="M156.7,375c0,0.1,0,0.1,0,0.2C156.8,375.1,156.7,375.1,156.7,375z"/>
	<path d="M119,187.2c0,0.6,0.1,1.1,0.2,1.7C119.1,188.4,119.1,187.8,119,187.2z"/>
	<path d="M156.6,372.9C156.6,372.9,156.6,372.9,156.6,372.9C156.6,372.9,156.6,372.9,156.6,372.9z"/>
	<path d="M156.8,377.1c0,0.1,0,0.1,0,0.2C156.8,377.2,156.8,377.2,156.8,377.1z"/>
	<path d="M156.6,372.9c0-0.7-0.1-1.4-0.2-2.1C156.5,371.5,156.6,372.2,156.6,372.9z"/>
	<path d="M156.9,381.1c0-0.6,0-1.2,0-1.9C156.9,379.9,156.9,380.5,156.9,381.1z"/>
	<path d="M156,366.6c-0.1-0.6-0.2-1.2-0.3-1.8C155.8,365.3,155.9,366,156,366.6z"/>
	<path d="M156.9,379.2c0-0.6,0-1.3,0-1.9C156.8,377.9,156.9,378.6,156.9,379.2z"/>
	<path d="M156.7,375c0-0.7-0.1-1.4-0.1-2.1C156.7,373.6,156.7,374.3,156.7,375z"/>
	<path d="M156.8,377.1c0-0.6,0-1.3-0.1-1.9C156.8,375.8,156.8,376.5,156.8,377.1z"/>
	<path d="M156.2,368.6c-0.1-0.6-0.2-1.2-0.2-1.8C156.1,367.3,156.2,368,156.2,368.6z"/>
	<path d="M156.5,370.7c-0.1-0.6-0.1-1.3-0.2-1.9C156.3,369.4,156.4,370,156.5,370.7z"/>
	<path d="M119.4,191.1c0-0.2,0-0.3-0.1-0.5C119.4,190.8,119.4,191,119.4,191.1z"/>
	<path d="M118.3,174.3C118.3,174.2,118.3,174.2,118.3,174.3C118.3,174.2,118.3,174.2,118.3,174.3z"/>
	<path d="M118.4,176.1c0-0.1,0-0.2,0-0.3C118.3,175.9,118.4,176,118.4,176.1z"/>
	<path d="M118.5,179.6c0-0.1,0-0.1,0-0.2C118.5,179.5,118.5,179.6,118.5,179.6z"/>
	<path d="M118.4,177.8c0-0.1,0-0.3,0-0.4C118.4,177.5,118.4,177.7,118.4,177.8z"/>
	<polygon points="118.2,169.8 118.2,169.9 118.2,169.8 	"/>
	<path d="M118.2,172.8c0-0.1,0-0.2,0-0.2C118.2,172.6,118.2,172.7,118.2,172.8z"/>
	<path d="M120.1,196.5c0-0.1,0-0.3-0.1-0.4C120.1,196.2,120.1,196.3,120.1,196.5z"/>
	<path d="M119.2,189.1c0-0.1,0-0.1,0-0.2C119.2,189,119.2,189.1,119.2,189.1z"/>
	<path d="M119.6,192.8c0-0.1,0-0.2,0-0.4C119.6,192.6,119.6,192.7,119.6,192.8z"/>
	<path d="M119.9,194.8c0-0.1,0-0.3-0.1-0.4C119.8,194.6,119.9,194.7,119.9,194.8z"/>
	<path d="M118.9,185.4c0-0.2,0-0.3,0-0.5C118.9,185.1,118.9,185.3,118.9,185.4z"/>
	<path d="M119,187.2c0-0.2,0-0.3,0-0.5C119,186.9,119,187.1,119,187.2z"/>
	<path d="M118.7,183.3c0-0.1,0-0.2,0-0.3C118.7,183.1,118.7,183.2,118.7,183.3z"/>
	<path d="M118.6,181.6c0-0.2,0-0.3,0-0.5C118.6,181.2,118.6,181.4,118.6,181.6z"/>
	<path opacity="0.25" d="M372.9,107.4c44.2,0.4,77.8-22.3,77.4-26.1c-0.4-3.8-7.7-10.8-12.3-14.2c-4.6-3.4-26.6-5.6-70.8-5.4
		c-44.7,0.2-59.8,2-65.9,3.4s-16.2,12.6-14.9,15.1C287.6,82.8,329,107,372.9,107.4z"/>
	<g opacity="2.000000e-02">
		<path d="M443.9,70.9l-2.2,0.8c3.5,3.3,6.7,7.2,6.9,9.7c0.2,2-9.1,9.3-24.4,15.6c1.2,2.6,2.1,5,2.3,6.9c0.6,7.2,0,6.6,0,17.1
			c0,10.5,3.9,21,10.5,36.4s13.8,7.2,18.8,29.2c3.7,16.3-11.7,18.5-19.9,18.5c-2.9,0-4.9-0.3-4.9-0.3s18.3,2.6,41.4,2.6
			c5,0,10.1-0.1,15.4-0.4c29.8-1.7,23.2,0,44.1-2.2c10.5-1.1,15.7-2.5,22.3-2.5c6.6,0,14.6,1.4,30.6,5.8c32,8.8,7.7,28.7,5.5,51.3
			c-2.2,22.6-34.2,19.3-43.6,31.4c-9.4,12.1-3.3,106.5-2.2,117c1.1,10.5-21.5,28.7-21.5,28.7s-6.1,17.7-9.9,30.9
			c-3.9,13.2,6.1,40.8,5.5,70.6c-0.6,29.8-27.6,69-37,90.5c-9.4,21.5-2.2,42.5,13.2,89.4c6.1,18.4,8.3,23.3,9.5,23.3
			c0.7,0,1-1.5,1.5-3.1c0.5-1.5,1.1-3.1,2.4-3.1c1,0,2.3,0.9,4.2,3.2c11.6,14.3,6.1,8.8,12.1,29.2s8.3,51.3,8.3,51.3
			s2.2,32,9.9,61.2c7.7,29.2,4.4,16,24.3,33.1l6.3,2.3c5.9-4.4,6.4-8.3,6.4-8.3v-7.5c0,0,2.1-9.6,2.1-13.9c0-4.3-4.3-8.6-4.3-8.6
			s4.2-25.3-3.2-57.8c-7.6-33.2-18.4-99.8-23.7-128.7c-5.3-28.9,3.4-107.7,8.7-134.4c5.3-26.7,12.8-113.4,11.8-127.3
			c-0.9-12,3.7-38.9,5-46.3c0-4.9,0.1-12.7,1.2-18.1c1.7-8.5,14.8-80.8,17.6-94.5c2.8-13.7,15.4-59.8,17.6-72.3
			c1.6-8.8,2.1-21.6,2.2-28.4c-1.3-0.9-2-1.4-2-1.4s-28.9-9.6-69.5-25.7c-40.6-16-73.8-44.9-79.1-49.2c-5.3-4.3-5.3-7.5-10.7-10.7
			C450.2,80.5,448.1,75.5,443.9,70.9"/>
		<path d="M286.5,75c-2.3,3.2-4.1,6.1-6.6,7.6c-5.3,3.2-5.3,6.4-10.7,10.7c-5.3,4.3-38.5,33.2-79.1,49.2
			c-40.6,16-69.5,25.7-69.5,25.7s-0.9,0.7-2.4,1.7c0.1,6.8,0.6,19.4,2.2,28.1c2.3,12.5,14.8,58.6,17.6,72.3
			c2.8,13.7,15.9,85.9,17.6,94.5c1,4.8,1.2,11.5,1.2,16.4l0.1-0.1c0,0,6.4,34.2,5.3,48.1c-1.1,13.9,6.4,100.5,11.8,127.3
			c5.3,26.7,11.8,95.2,6.4,124.1c-5.3,28.9-18.2,105.9-21.4,139c-3.2,33.2-3.2,57.8-3.2,57.8s-4.3,4.3-4.3,8.6
			c0,4.3,2.1,13.9,2.1,13.9v7.5c0,0,1.5,11.3,28,16.8c2.3-12.9,5.6-35.5,3.7-47.3c-2.8-17.1,2.2-13.8,9.9-25.4
			c7.7-11.6,6.1-50.2,7.2-96.6c0.6-23.4,23.2-29.2,45.3-29.2c21.7,0,42.9,5.5,42.9,5.5s7.2-9.9,6.1-23.7
			c-1.1-13.8-44.7-74.5-53-88.3c-6.7-11.1,0.3-12.2,3.2-12.2c0.7,0,1.2,0.1,1.2,0.1s-12.1-5.5-17.1-32.6c-5-27,8.3-60.1,20.4-88.8
			c12.1-28.7,47.4-58.5,47.4-58.5s-6.8,1.1-17.4,1.1c-14.5,0-36-2-57-11.6c-36.4-16.6-38.6-44.7-43.6-131.3
			c-5-86.6,3.3-103.7,23.2-104.8c0.5,0,0.9,0,1.5,0c21.6,0,88.7,22.2,99,26.5c0,0,6.6-13.8,4.4-22.1s4.4-21.5,12.1-35.9
			c4.5-8.4,6.4-9.6,7.7-9.6c0.3,0,0.5,0,0.8,0.1c0.2,0,0.5,0.1,0.7,0.1c0.4,0,0.8-0.1,1.3-0.5c2.8-2.2,0.6-14.9-1.1-18.8
			c-1.7-3.9-0.6-5,2.8-13.8c0.6-1.6-0.7-3.8-3.3-6.2c-24.7-7.5-42.7-18.4-43.6-20.1c-0.4-0.8,0.4-2.5,1.8-4.5
			C287.6,75.5,287,75.3,286.5,75"/>
		<path d="M64,240.1c0,0,1.1,8.3,5.5,17.7c4.4,9.4,49.1,65.7,49.1,65.7s-40.3-44.1-42.5-46.9c-2.1-2.6-17.9-15.1-20.2-15.1
			c-0.2,0-0.3,0.1-0.3,0.2c0,2.2,13.8,17.1,24.8,27.6s33.7,33.1,44.1,49.1s29.8,43.6,29.8,43.6s-3.9-16-6.6-22.6
			c-2.8-6.6-14.3-24.3-17.1-28.7C128,326.1,64,240.1,64,240.1"/>
		<path d="M68.5,226.8c0,0,6.1,22.6,18.2,34.2c12.1,11.6,24.8,15.4,24.8,15.4s-20.4-17.1-24.3-22.6S68.5,226.8,68.5,226.8"/>
		<path d="M684.2,256.6c0,0-7.2,14.3-13.2,25.4c-6.1,11-32,32-45.8,39.7c-13.8,7.7-39.2,35.9-39.2,35.9s11.6-2.2,18.8-7.7
			c7.2-5.5,53-23.7,70.6-49.1C693,275.4,684.2,256.6,684.2,256.6"/>
		<path d="M675.3,340.5c0,0-19.9,17.1-35.3,21.5c-15.4,4.4-44.7,9.9-44.7,9.9s5.5,1.5,14.4,1.5c8.4,0,19.9-1.3,32.5-6.4
			C668.2,356.5,675.3,340.5,675.3,340.5"/>
		<path d="M655.8,267c-4,0-9.1,1.5-14.2,7.3c-10.5,12.1-13.8,16.6-23.2,22.1c-9.1,5.4-14.1,27-14.3,28.1c0.2-1,3.7-15.6,16-21.5
			c12.7-6.1,21.5-5.5,27.6-16c6.1-10.5,15.4-18.2,15.4-18.2S660.2,267,655.8,267"/>
	</g>
</g>
<g id="CK_LOGO">
	<g>
		<g>
			<g>
				<g>
					<path d="M236.7,237.1l-0.4,0l-23.8-0.2c-7.2,0-12.9-5.9-12.9-13.1c0-7,5.6-12.7,12.6-12.9l0.4,0l23.8,0.2
						c7.2,0,12.9,5.9,12.9,13.1C249.3,231.3,243.7,236.9,236.7,237.1z M212.2,212.4c-6.3,0.2-11.2,5.2-11.3,11.5
						c0,6.4,5.1,11.6,11.5,11.7l24.2,0.1c6.3-0.2,11.2-5.2,11.3-11.5c0-6.4-5.1-11.6-11.5-11.6L212.2,212.4z"/>
				</g>
				<g>
					<path d="M204,223.9c0-4.7,3.7-8.6,8.4-8.9l-0.1,17.9C207.7,232.5,204,228.6,204,223.9z"/>
					<polygon fill-rule="evenodd" clip-rule="evenodd" points="221.7,222.8 213.9,215 221.7,215.1 					"/>
					<polygon fill-rule="evenodd" clip-rule="evenodd" points="221.6,225.2 213.8,232.9 221.6,233 					"/>
				</g>
				<g>
					<polygon fill-rule="evenodd" clip-rule="evenodd" points="231.4,222.9 239.3,215.2 231.5,215.1 					"/>
					<polygon fill-rule="evenodd" clip-rule="evenodd" points="231.4,225.2 239.1,233.1 231.4,233 					"/>
					<g>
						<rect x="217.6" y="220.8" transform="matrix(5.892445e-03 -1 1 5.892445e-03 1.1522 449.2534)" width="17.9" height="6.5"/>
						<path d="M226.5,224"/>
					</g>
				</g>
			</g>
		</g>
	</g>
</g>
</svg>
