<?xml version="1.0" encoding="utf-8"?>
<!-- Generator: Adobe Illustrator 16.0.0, SVG Export Plug-In . SVG Version: 6.00 Build 0)  -->
<!DOCTYPE svg PUBLIC "-//W3C//DTD SVG 1.1//EN" "http://www.w3.org/Graphics/SVG/1.1/DTD/svg11.dtd">
<svg version="1.1" id="Layer_1" xmlns="http://www.w3.org/2000/svg" xmlns:xlink="http://www.w3.org/1999/xlink" x="0px" y="0px"
	 width="612px" height="792px" viewBox="0 0 520 792" enable-background="new 0 0 612 792" xml:space="preserve">
<rect x="145.13" y="53.784" fill="none" width="136.172" height="537.09"/>
<rect x="105.654" y="158.2" fill="none" width="62.475" height="89.699"/>
<rect x="113.681" y="149.824" fill="none" width="27.224" height="31.412"/>
<rect x="441.064" y="168.671" fill="none" width="63.521" height="63.871"/>
<rect x="446.997" y="221.723" fill="none" width="50.608" height="20.812"/>
<rect x="452.59" y="175.209" fill="none" width="37.337" height="36.357"/>
<rect x="235.677" y="69.237" fill="none" width="137.986" height="24.583"/>
<rect x="92.413" y="246.769" fill="none" width="73.87" height="9.765"/>
<rect x="92.413" y="249.965" fill="none" width="73.87" height="9.764"/>
<rect x="167.048" y="561.172" fill="none" width="270.258" height="26.68"/>
<rect x="166.163" y="563.765" fill="none" width="272.823" height="28.082"/>
<rect x="233.835" y="70.94" fill="none" width="141.974" height="25.672"/>
<rect x="61.693" fill="none" width="488.613" height="632.322"/>
<g>
	<defs>
		<rect id="SB_SVGID_1_" x="54.996" y="81.011" width="495.311" height="640.989"/>
	</defs>
	<clipPath id="SB_SVGID_2_">
		<use xlink:href="#SB_SVGID_1_"  overflow="visible"/>
	</clipPath>
	<g id="BODY" clip-path="url(#SB_SVGID_2_)">
		<defs>
			<rect id="SB_SVGID_3_" x="54.996" y="81.011" width="495.311" height="640.989"/>
		</defs>
		<clipPath id="SB_SVGID_4_">
			<use xlink:href="#SB_SVGID_3_"  overflow="visible"/>
		</clipPath>
		<path clip-path="url(#SB_SVGID_4_)" fill="#FDBB2D" d="M459.631,176.961c-7.632-2.677-41.407-15.943-52.103-22.864
			c-11.661-7.544-26.75-19.205-30.864-22.634c-3.549-2.958-7.096-8.965-10.205-11.446c-14.562-1.848-43.742-5.282-61.266-5.541
			c-18.706-0.274-52.597,4.341-66.756,6.408c-2.868,2.815-6.052,7.924-9.236,10.578c-4.116,3.429-19.205,15.089-30.865,22.634
			c-11.66,7.545-50.753,22.634-53.499,23.319c-0.339,0.085-1.026,0.487-1.989,1.163c1.035,20.776,10.507,57.371,13.649,74.969
			c3.429,19.205,10.288,33.608,10.288,41.838v12.446c1.475,3.29,3.669,8.941,4.116,14.304c0.686,8.23,2.057,38.408,7.544,49.383
			s15.775,76.133,17.146,82.305c1.372,6.174-3.429,29.494-3.429,34.979c0,5.487-13.032,45.955-13.717,56.928
			c-0.686,10.975-3.429,26.063-3.429,37.038c0,10.974-4.803,27.434-4.803,27.434s4.116,8.231,9.604,18.519
			c5.485,10.289,15.088,26.75,18.518,35.665c3.43,8.916,17.147,29.492,45.269,39.096c3.622,1.236,8.066,2.222,13.057,3.002
			l-0.027,1.114c0,0,14.01,0.989,32.276,1.393c4.693,0.122,9.408,0.171,14.021,0.166c4.614,0.005,9.328-0.044,14.02-0.166
			c18.268-0.403,32.276-1.393,32.276-1.393l-0.025-1.114c4.988-0.78,9.436-1.766,13.057-3.002
			c28.122-9.604,41.839-30.18,45.269-39.096c3.429-8.915,13.032-25.376,18.519-35.665c5.487-10.287,9.602-18.519,9.602-18.519
			s-4.802-16.46-4.802-27.434c0-10.975-2.742-26.063-3.429-37.038c-0.686-10.973-13.718-51.44-13.718-56.928
			c0-5.485-4.8-28.806-3.429-34.979c1.372-6.172,11.659-71.33,17.146-82.305c5.488-10.975,6.858-41.152,7.545-49.383
			c0.475-5.698,2.922-11.723,4.383-14.892c0.797-5.209,1.688-11.135,2.477-16.659c2.057-14.403,10.288-73.388,15.089-87.792
			C459.778,194.19,459.955,183.875,459.631,176.961"/>
	</g>
	<g id="SLEEVES" clip-path="url(#SB_SVGID_2_)">
		<defs>
			<rect id="SB_SVGID_5_" x="54.996" y="81.011" width="495.311" height="640.989"/>
		</defs>
		<clipPath id="SB_SVGID_6_">
			<use xlink:href="#SB_SVGID_5_"  overflow="visible"/>
		</clipPath>
		<path clip-path="url(#SB_SVGID_6_)" fill="#FDBB2D" d="M156.498,253.548c-3.142-17.599-12.614-54.192-13.649-74.969
			c-6.83,4.793-27.657,23.499-38.477,42.733c-12.346,21.948-9.601,80.933-9.601,83.676s-0.687,11.659-0.687,11.659l-2.058,4.116
			c0,0,23.32,6.173,43.21,6.173s30.864-3.43,30.864-3.43l-0.686-18.519c0,0,0.583,1.084,1.372,2.844v-12.446
			C166.786,287.156,159.927,272.753,156.498,253.548"/>
		<path clip-path="url(#SB_SVGID_6_)" fill="#FDBB2D" d="M511.78,316.648c0,0-0.685-8.916-0.685-11.66
			c0-2.742,2.742-61.728-9.603-83.675c-12.346-21.948-37.724-43.21-40.468-43.897c-0.227-0.056-0.706-0.213-1.396-0.455
			c0.325,6.914,0.148,17.229-2.719,25.833c-4.802,14.404-13.032,73.388-15.089,87.792c-0.789,5.524-1.68,11.449-2.477,16.658
			c0.649-1.408,1.104-2.255,1.104-2.255l-0.687,18.52c0,0,10.975,3.429,30.864,3.429c19.892,0,43.21-6.172,43.21-6.172
			L511.78,316.648z"/>
	</g>
	<g id="COLLAR" clip-path="url(#SB_SVGID_2_)">
		<defs>
			<rect id="SB_SVGID_7_" x="54.996" y="81.011" width="495.311" height="640.989"/>
		</defs>
		<clipPath id="SB_SVGID_8_">
			<use xlink:href="#SB_SVGID_7_"  overflow="visible"/>
		</clipPath>
		<path clip-path="url(#SB_SVGID_8_)" fill="#004D86" d="M305.193,114.478c17.523,0.258,46.704,3.692,61.266,5.54
			c-0.497-0.396-0.982-0.71-1.455-0.9c-3.43-1.372-8.23-4.115-8.23-4.115l-4.801-8.917c0,0-19.892-7.543-36.351-7.543h-25.378
			c-16.46,0-36.351,7.543-36.351,7.543l-4.801,8.917c0,0-4.802,2.744-8.23,4.115c-0.776,0.311-1.587,0.947-2.424,1.768
			C252.596,118.818,286.488,114.202,305.193,114.478"/>
    <path clip-path="url(#SB_SVGID_10_)" fill="#004D86" d="M133.688,310.997c-17.054-0.397-33.768-2.47-39.019-3.172
			c-0.19,3.676-0.586,8.824-0.586,8.824l-2.058,4.116c0,0,23.319,6.173,43.21,6.173c19.89,0,30.864-3.429,30.864-3.429
			l-0.494-13.321C161.543,310.554,150.192,311.381,133.688,310.997"/>
		<path clip-path="url(#SB_SVGID_10_)" fill="#004D86" d="M511.201,307.961c-6.179,0.804-21.934,2.663-37.979,3.035
			c-18.242,0.425-30.194-0.629-32.962-0.908l-0.497,13.419c0,0,10.975,3.429,30.864,3.429c19.892,0,43.21-6.173,43.21-6.173
			l-2.058-4.116C511.78,316.648,511.395,311.626,511.201,307.961"/>
	</g>
	<g id="CROTCH" clip-path="url(#SB_SVGID_2_)">
		<defs>
			<rect id="SB_SVGID_9_" x="54.996" y="81.011" width="495.311" height="640.989"/>
		</defs>
		<clipPath id="SB_SVGID_10_">
			<use xlink:href="#SB_SVGID_9_"  overflow="visible"/>
		</clipPath>
		<!--<path clip-path="url(#SB_SVGID_10_)" fill="#004D86" d="M133.688,310.997c-17.054-0.397-33.768-2.47-39.019-3.172
			c-0.19,3.676-0.586,8.824-0.586,8.824l-2.058,4.116c0,0,23.319,6.173,43.21,6.173c19.89,0,30.864-3.429,30.864-3.429
			l-0.494-13.321C161.543,310.554,150.192,311.381,133.688,310.997"/>
		<path clip-path="url(#SB_SVGID_10_)" fill="#004D86" d="M511.201,307.961c-6.179,0.804-21.934,2.663-37.979,3.035
			c-18.242,0.425-30.194-0.629-32.962-0.908l-0.497,13.419c0,0,10.975,3.429,30.864,3.429c19.892,0,43.21-6.173,43.21-6.173
			l-2.058-4.116C511.78,316.648,511.395,311.626,511.201,307.961"/>-->
	</g>
	<g clip-path="url(#SB_SVGID_2_)">
		<defs>
			<rect id="SB_SVGID_11_" x="54.996" y="81.011" width="495.311" height="640.989"/>
		</defs>
		<clipPath id="SB_SVGID_12_">
			<use xlink:href="#SB_SVGID_11_"  overflow="visible"/>
		</clipPath>
		<g opacity="0.35" clip-path="url(#SB_SVGID_12_)">
			<g>
				<defs>
					<rect id="SB_SVGID_13_" x="93.993" y="110.006" width="417.881" height="594.898"/>
				</defs>
				<clipPath id="SB_SVGID_14_">
					<use xlink:href="#SB_SVGID_13_"  overflow="visible"/>
				</clipPath>
				<path clip-path="url(#SB_SVGID_14_)" fill="none" stroke="#FFCD72" stroke-miterlimit="10" stroke-dasharray="0.859,0.5" d="
					M171.587,607.459c0,0,35.666,67.903,66.53,80.933c30.864,13.032,88.477,12.347,111.797,6.174
					c23.319-6.174,45.952-24.692,53.497-35.666s32.236-52.126,32.236-52.126"/>
				<path clip-path="url(#SB_SVGID_14_)" fill="none" stroke="#FFCD72" stroke-miterlimit="10" stroke-dasharray="0.859,0.5" d="
					M171.587,613.129c0,0,35.666,67.902,66.53,80.933c30.864,13.032,88.477,12.347,111.797,6.174
					c23.319-6.174,45.952-24.692,53.497-35.666s32.236-52.126,32.236-52.126"/>
				<path clip-path="url(#SB_SVGID_14_)" fill="none" stroke="#FFCD72" stroke-miterlimit="10" stroke-dasharray="0.859,0.5" d="
					M94.066,313.279c0,0,18.649,3.497,37.879,3.497c19.231,0,33.995-1.554,33.995-1.554"/>
				<path clip-path="url(#SB_SVGID_14_)" fill="none" stroke="#FFCD72" stroke-miterlimit="10" stroke-dasharray="0.859,0.5" d="
					M94.066,310.04c0,0,18.649,3.497,37.879,3.497c19.231,0,33.995-1.554,33.995-1.554"/>
				<path clip-path="url(#SB_SVGID_14_)" fill="none" stroke="#FFCD72" stroke-miterlimit="10" stroke-dasharray="0.859,0.5" d="
					M511.8,313.279c0,0-18.646,3.497-37.878,3.497c-19.23,0-33.994-1.554-33.994-1.554"/>
				<path clip-path="url(#SB_SVGID_14_)" fill="none" stroke="#FFCD72" stroke-miterlimit="10" stroke-dasharray="0.859,0.5" d="
					M511.8,310.04c0,0-18.646,3.497-37.878,3.497c-19.23,0-33.994-1.554-33.994-1.554"/>
				<path clip-path="url(#SB_SVGID_14_)" fill="none" stroke="#FFCD72" stroke-miterlimit="10" stroke-dasharray="0.859,0.5" d="
					M248.938,115.381c0,0,32.196-5.308,56.255-4.954c24.059,0.354,51.655,4.6,51.655,4.6"/>
				<path clip-path="url(#SB_SVGID_14_)" fill="none" stroke="#FFCD72" stroke-miterlimit="10" stroke-dasharray="0.859,0.5" d="
					M237.724,121.373c0,0,43.41-7.249,67.469-6.896c24.059,0.353,61.757,5.569,61.757,5.569"/>
				<path clip-path="url(#SB_SVGID_14_)" fill="none" stroke="#FFCD72" stroke-miterlimit="10" stroke-dasharray="0.859,0.5" d="
					M166.609,307.651c0,0,0.176-4.034,0.176-12.264c0-8.231-6.857-22.634-10.288-41.839c-3.429-19.205-14.191-55.389-13.506-74.593"
					/>
				<path clip-path="url(#SB_SVGID_14_)" fill="none" stroke="#FFCD72" stroke-miterlimit="10" stroke-dasharray="0.859,0.5" d="
					M459.631,176.961c0,0,2.082,11.429-2.72,25.833c-4.801,14.404-13.032,73.388-15.089,87.792
					c-2.059,14.403-4.802,31.55-4.802,31.55"/>
			</g>
		</g>
	</g>
	<g clip-path="url(#SB_SVGID_2_)">
		<defs>
			<rect id="SB_SVGID_15_" x="54.996" y="81.011" width="495.311" height="640.989"/>
		</defs>
		<clipPath id="SB_SVGID_16_">
			<use xlink:href="#SB_SVGID_15_"  overflow="visible"/>
		</clipPath>
		<path clip-path="url(#SB_SVGID_16_)" d="M312.049,125.565c3.987,0,7.219,3.46,7.219,7.724c0,4.266-3.231,7.725-7.219,7.725h-14.002
			c-3.985,0-7.22-3.459-7.22-7.725c0-4.264,3.235-7.724,7.22-7.724H312.049"/>
		<path clip-path="url(#SB_SVGID_16_)" fill="none" stroke="#000000" stroke-width="6.078" d="M312.049,125.565
			c3.987,0,7.219,3.46,7.219,7.724c0,4.266-3.231,7.725-7.219,7.725h-14.002c-3.985,0-7.22-3.459-7.22-7.725
			c0-4.264,3.235-7.724,7.22-7.724H312.049"/>
		<path clip-path="url(#SB_SVGID_16_)" d="M311.508,126.801c3.625,0,6.561,2.903,6.561,6.487c0,3.585-2.936,6.49-6.562,6.49H298.79
			c-3.619,0-6.556-2.905-6.556-6.49c0-3.584,2.937-6.487,6.556-6.487H311.508"/>
		<path clip-path="url(#SB_SVGID_16_)" fill="none" stroke="#FFFFFF" stroke-width="0.658" d="M311.508,126.801
			c3.625,0,6.561,2.903,6.561,6.487c0,3.585-2.936,6.49-6.562,6.49H298.79c-3.619,0-6.556-2.905-6.556-6.49
			c0-3.584,2.937-6.487,6.556-6.487H311.508"/>
		<path clip-path="url(#SB_SVGID_16_)" fill="#FFFFFF" d="M293.949,133.249c0-2.704,2.005-4.92,4.543-5.097v10.195
			C295.954,138.168,293.949,135.951,293.949,133.249"/>
		<polygon clip-path="url(#SB_SVGID_16_)" fill="#FFFFFF" points="303.532,132.58 299.295,128.138 303.532,128.138 		"/>
		<polygon clip-path="url(#SB_SVGID_16_)" fill="#FFFFFF" points="303.532,133.915 299.295,138.36 303.532,138.36 		"/>
		<polygon clip-path="url(#SB_SVGID_16_)" fill="#FFFFFF" points="308.851,132.58 313.092,128.138 308.851,128.138 		"/>
		<polygon clip-path="url(#SB_SVGID_16_)" fill="#FFFFFF" points="308.851,133.915 313.092,138.36 308.851,138.36 		"/>
		<rect x="304.434" y="128.138" clip-path="url(#SB_SVGID_16_)" fill="#FFFFFF" width="3.518" height="10.222"/>
		<path clip-path="url(#SB_SVGID_16_)" fill="#FFFFFF" d="M298.104,124.357v0.625h0.59v-0.21l0.217,0.045v0.118
			c0,0.184-0.052,0.232-0.233,0.232h-0.559c-0.178,0-0.232-0.048-0.232-0.232v-0.522c0-0.183,0.054-0.232,0.232-0.232h0.559
			c0.181,0,0.233,0.049,0.233,0.232v0.095l-0.217,0.037v-0.187H298.104z"/>
		<path clip-path="url(#SB_SVGID_16_)" fill="#FFFFFF" d="M299.486,124.181h0.694c0.177,0,0.232,0.049,0.232,0.232v0.522
			c0,0.184-0.056,0.233-0.232,0.233h-0.694c-0.178,0-0.234-0.049-0.234-0.233v-0.522
			C299.252,124.23,299.308,124.181,299.486,124.181 M300.194,124.358h-0.722v0.625h0.722V124.358z"/>
		<path clip-path="url(#SB_SVGID_16_)" fill="#FFFFFF" d="M300.781,124.181h0.178l0.441,0.598l0.436-0.598h0.174v0.987h-0.202v-0.61
			c0-0.019,0-0.054,0.003-0.104c-0.016,0.044-0.037,0.081-0.054,0.103l-0.351,0.492h-0.045l-0.353-0.494
			c-0.023-0.032-0.041-0.063-0.057-0.101c0.004,0.041,0.007,0.075,0.007,0.104v0.61h-0.178V124.181z"/>
		<path clip-path="url(#SB_SVGID_16_)" fill="#FFFFFF" d="M302.376,124.182h0.806c0.145,0,0.213,0.054,0.213,0.191v0.22
			c0,0.137-0.068,0.191-0.213,0.191h-0.589v0.385h-0.217V124.182z M302.594,124.353v0.26h0.492c0.068,0,0.097-0.013,0.097-0.078
			v-0.104c0-0.065-0.029-0.078-0.097-0.078H302.594z"/>
		<path clip-path="url(#SB_SVGID_16_)" fill="#FFFFFF" d="M303.641,124.182h0.802c0.146,0,0.214,0.054,0.214,0.191v0.232
			c0,0.137-0.069,0.191-0.214,0.191h-0.121l0.431,0.373h-0.311l-0.38-0.373h-0.203v0.373h-0.219V124.182z M303.86,124.353v0.273
			h0.488c0.07,0,0.097-0.013,0.097-0.078v-0.118c0-0.065-0.027-0.078-0.097-0.078H303.86z"/>
		<polygon clip-path="url(#SB_SVGID_16_)" fill="#FFFFFF" points="305.01,124.181 305.971,124.181 305.971,124.35 305.23,124.35 
			305.23,124.569 305.663,124.569 305.663,124.738 305.23,124.738 305.23,124.983 305.984,124.983 305.984,125.168 305.01,125.168 
					"/>
		<path clip-path="url(#SB_SVGID_16_)" fill="#FFFFFF" d="M306.499,124.353v0.213h0.583c0.178,0,0.234,0.047,0.234,0.232v0.137
			c0,0.184-0.057,0.233-0.234,0.233h-0.581c-0.174,0-0.233-0.05-0.233-0.233v-0.029l0.193-0.04v0.116h0.664v-0.226h-0.586
			c-0.178,0-0.234-0.049-0.234-0.233v-0.11c0-0.182,0.056-0.231,0.234-0.231h0.533c0.167,0,0.232,0.047,0.232,0.217v0.021
			l-0.192,0.047v-0.113H306.499z"/>
		<path clip-path="url(#SB_SVGID_16_)" fill="#FFFFFF" d="M307.876,124.353v0.213h0.589c0.176,0,0.235,0.047,0.235,0.232v0.137
			c0,0.184-0.06,0.233-0.235,0.233h-0.58c-0.178,0-0.234-0.05-0.234-0.233v-0.029l0.193-0.04v0.116h0.663v-0.226h-0.588
			c-0.172,0-0.233-0.049-0.233-0.233v-0.11c0-0.182,0.062-0.231,0.233-0.231h0.535c0.168,0,0.23,0.047,0.23,0.217v0.021l-0.19,0.047
			v-0.113H307.876z"/>
		<rect x="309.063" y="124.181" clip-path="url(#SB_SVGID_16_)" fill="#FFFFFF" width="0.222" height="0.987"/>
		<path clip-path="url(#SB_SVGID_16_)" fill="#FFFFFF" d="M309.885,124.181h0.691c0.181,0,0.237,0.049,0.237,0.232v0.522
			c0,0.184-0.057,0.233-0.237,0.233h-0.691c-0.176,0-0.232-0.049-0.232-0.233v-0.522
			C309.652,124.23,309.709,124.181,309.885,124.181 M310.593,124.358h-0.725v0.625h0.725V124.358z"/>
		<path clip-path="url(#SB_SVGID_16_)" fill="#FFFFFF" d="M311.178,124.181h0.15l0.662,0.581c0.039,0.035,0.072,0.067,0.104,0.108
			c-0.002-0.082-0.006-0.139-0.006-0.169v-0.52h0.194v0.987h-0.147l-0.69-0.61c-0.027-0.024-0.054-0.05-0.079-0.08
			c0.01,0.077,0.01,0.127,0.01,0.157v0.533h-0.198V124.181z"/>
		<path clip-path="url(#SB_SVGID_16_)" fill="#FFFFFF" d="M302.427,141.617v0.625h0.681v-0.219h-0.356v-0.169h0.571v0.339
			c0,0.187-0.057,0.234-0.233,0.234h-0.649c-0.177,0-0.233-0.047-0.233-0.234v-0.517c0-0.188,0.056-0.233,0.233-0.233h0.649
			c0.171,0,0.233,0.045,0.233,0.222v0.021l-0.214,0.042v-0.111H302.427z"/>
		<polygon clip-path="url(#SB_SVGID_16_)" fill="#FFFFFF" points="303.693,141.443 304.657,141.443 304.657,141.611 303.915,141.611 
			303.915,141.831 304.346,141.831 304.346,141.997 303.915,141.997 303.915,142.242 304.666,142.242 304.666,142.427 
			303.693,142.427 		"/>
		<path clip-path="url(#SB_SVGID_16_)" fill="#FFFFFF" d="M305.333,141.443h0.21l0.539,0.984h-0.245l-0.114-0.215h-0.594l-0.111,0.215
			H304.8L305.333,141.443z M305.631,142.034l-0.202-0.401l-0.207,0.401H305.631z"/>
		<path clip-path="url(#SB_SVGID_16_)" fill="#FFFFFF" d="M306.296,141.443h0.801c0.146,0,0.213,0.052,0.213,0.19v0.231
			c0,0.137-0.066,0.19-0.213,0.19h-0.12l0.431,0.373h-0.314l-0.377-0.373h-0.209v0.373h-0.211V141.443z M306.507,141.611v0.276H307
			c0.065,0,0.097-0.014,0.097-0.077v-0.12c0-0.065-0.031-0.08-0.097-0.08H306.507z"/>
		<path clip-path="url(#SB_SVGID_16_)" fill="#FFFFFF" d="M308.647,141.265c0.122,0.127,0.19,0.302,0.19,0.484
			c0,0.188-0.065,0.356-0.192,0.484c-0.13,0.132-0.292,0.204-0.465,0.204s-0.336-0.072-0.462-0.207
			c-0.125-0.133-0.192-0.299-0.192-0.482c0-0.182,0.07-0.356,0.197-0.492c0.121-0.129,0.282-0.194,0.457-0.194
			C308.359,141.062,308.523,141.133,308.647,141.265 M308.588,141.329c-0.106-0.117-0.249-0.176-0.403-0.176
			s-0.296,0.056-0.399,0.169c-0.11,0.118-0.172,0.269-0.172,0.426c0,0.158,0.06,0.306,0.164,0.417
			c0.111,0.119,0.253,0.179,0.398,0.179c0.155,0,0.296-0.06,0.409-0.177c0.11-0.108,0.165-0.255,0.165-0.414
			C308.75,141.588,308.698,141.44,308.588,141.329 M308.51,141.56c0,0.11-0.063,0.186-0.171,0.209l0.166,0.355h-0.159l-0.147-0.333
			h-0.139v0.333h-0.141v-0.778h0.28C308.408,141.346,308.51,141.418,308.51,141.56 M308.06,141.443v0.257h0.116
			c0.129,0,0.187-0.033,0.187-0.124c0-0.099-0.058-0.133-0.19-0.133H308.06z"/>
	</g>
	<g clip-path="url(#SB_SVGID_2_)">
		<defs>
			<rect id="SB_SVGID_17_" x="54.996" y="81.011" width="495.311" height="640.989"/>
		</defs>
		<clipPath id="SB_SVGID_18_">
			<use xlink:href="#SB_SVGID_17_"  overflow="visible"/>
		</clipPath>
		<g opacity="0.12" clip-path="url(#SB_SVGID_18_)">
			<g>
				<defs>
					<rect id="SB_SVGID_19_" x="97.007" y="212.046" width="396.651" height="301.242"/>
				</defs>
				<clipPath id="SB_SVGID_20_">
					<use xlink:href="#SB_SVGID_19_"  overflow="visible"/>
				</clipPath>
				<path clip-path="url(#SB_SVGID_20_)" fill="#897F76" d="M163.323,294.568c0,0-12.465-2.243-21.441-5.235
					c-8.975-2.992-17.202-5.236-24.183-11.468c-6.98-6.232-20.691-22.688-20.691-22.688s24.182,20.943,26.177,22.937
					C125.18,280.109,163.323,294.568,163.323,294.568"/>
				<path clip-path="url(#SB_SVGID_20_)" fill="#897F76" d="M152.852,284.845l-15.208-7.23l-2.493-5.485
					c0,0,17.701,12.715,15.707,9.225c-1.995-3.49-26.677-31.663-31.165-37.396c-4.487-5.734-15.207-17.95-15.207-17.95
					s13.213,8.725,14.709,11.717s25.18,31.911,27.922,35.402c2.743,3.489,9.973,9.474,9.474,10.72S152.852,284.845,152.852,284.845"
					/>
				<path clip-path="url(#SB_SVGID_20_)" fill="#897F76" d="M135.4,281.355c0,0-16.953-17.701-19.695-20.941
					c-2.743-3.242-14.211-12.217-14.211-12.217l21.441,23.435L135.4,281.355z"/>
				<path clip-path="url(#SB_SVGID_20_)" fill="#897F76" d="M155.595,270.385c0,0-4.986-12.964-7.48-18.698
					c-2.493-5.733-6.731-27.673-10.969-27.174c-4.239,0.499-1.497,9.224,1.496,15.457c2.992,6.234,6.232,11.219,6.232,11.219
					s-7.229-2.493-11.468-9.224c-4.237-6.731-14.21-29.418-16.953-28.671c-2.742,0.749,1.745,12.964,6.233,20.194
					c4.487,7.23,15.457,17.701,21.191,23.435C149.611,262.657,155.595,270.385,155.595,270.385"/>
				<path clip-path="url(#SB_SVGID_20_)" fill="#897F76" d="M442.299,275.122c0,0,11.719-21.939,18.948-34.156
					c7.229-12.215,20.442-28.92,20.442-28.92s-21.938,38.644-23.186,40.139C457.258,253.682,442.299,275.122,442.299,275.122"/>
				<path clip-path="url(#SB_SVGID_20_)" fill="#897F76" d="M453.518,261.161c0,0,8.976-13.214,18.948-21.192
					c9.972-7.977,21.192-12.215,21.192-12.215s-14.959,7.978-22.688,17.949c-7.728,9.973-20.941,24.932-22.936,30.666
					c-1.995,5.733-1.497,12.215-1.497,12.215s5.984-1.495,3.491,0.749c-2.493,2.244,1.994,7.978-1.497,9.224
					c-3.49,1.247-5.483,1.746-5.483,3.242c0,1.496-4.986-0.998-4.986-0.998s2.742-19.945,3.739-22.189
					C442.798,276.369,453.518,261.161,453.518,261.161"/>
				<path clip-path="url(#SB_SVGID_20_)" fill="#897F76" d="M450.526,280.607c0,0-0.248-8.725,6.232-11.469
					c6.483-2.742,13.464-3.739,18.947-6.482c5.485-2.742,9.225-5.983,9.225-5.983s-6.98,9.474-15.706,12.465
					c-8.725,2.992-11.967,2.992-13.962,5.485C453.269,277.117,450.526,280.607,450.526,280.607"/>
				<path clip-path="url(#SB_SVGID_20_)" fill="#897F76" d="M207.601,506.408c0,0,63.532-13.758,91.454-12.948
					c27.922,0.81,99.144,19.828,99.144,19.828s-50.988-13.354-95.5-13.759C258.184,499.125,207.601,506.408,207.601,506.408"/>
			</g>
		</g>
	</g>
</g>
  <g id="CUSTOM"></g>
</svg>
