<?xml version="1.0" encoding="utf-8"?>
<!-- Generator: Adobe Illustrator 16.0.0, SVG Export Plug-In . SVG Version: 6.00 Build 0)  -->
<!DOCTYPE svg PUBLIC "-//W3C//DTD SVG 1.1//EN" "http://www.w3.org/Graphics/SVG/1.1/DTD/svg11.dtd">
<svg version="1.1" id="Layer_1" xmlns="http://www.w3.org/2000/svg" xmlns:xlink="http://www.w3.org/1999/xlink" x="0px" y="0px"
	 width="800.453px" height="1035.881px" viewBox="0 0 620 1035.881" enable-background="new 0 0 800.453 1035.881"
	 xml:space="preserve">
<g>
	<defs>
		<rect id="SVGID_1_" x="-9" y="6.555" width="795.389" height="1029.326"/>
	</defs>
	<clipPath id="SVGID_2_">
		<use xlink:href="#SVGID_1_"  overflow="visible"/>
	</clipPath>
	<g clip-path="url(#SVGID_2_)">
		<defs>
			<rect id="SVGID_3_" x="-9" y="6.555" width="795.389" height="1029.326"/>
		</defs>
		<clipPath id="SVGID_4_">
			<use xlink:href="#SVGID_3_"  overflow="visible"/>
		</clipPath>
     <g id="MASK">
      <g id="BODY">
		<path clip-path="url(#SVGID_4_)" fill="#FDBB2D" d="M638.162,190.004c0,0-29.738-9.913-71.592-26.434
			c-26.417-10.427-49.754-26.116-64.765-37.382c-7.438,8.111-38.545,36.24-112.732,36.974
			c-73.557,0.729-108.983-30.736-118.411-40.788c-14.495,11.273-40.193,29.527-69.757,41.195
			c-41.853,16.521-71.59,26.434-71.59,26.434s-0.975,0.705-2.492,1.753v0.006c0.018,0.841,0.042,1.772,0.069,2.766
			c0.003,0.079,0.006,0.16,0.009,0.242c0.013,0.465,0.028,0.943,0.045,1.435c0.001,0.028,0.001,0.057,0.002,0.085
			c0.018,0.515,0.038,1.046,0.061,1.585c0.003,0.106,0.007,0.213,0.011,0.32c0.019,0.436,0.038,0.877,0.057,1.327
			c0.006,0.137,0.012,0.272,0.019,0.411c0.026,0.548,0.052,1.106,0.082,1.669c0.002,0.073,0.007,0.147,0.011,0.219
			c0.026,0.49,0.053,0.984,0.082,1.481c0.011,0.176,0.021,0.352,0.031,0.527c0.027,0.473,0.057,0.949,0.089,1.427
			c0.007,0.112,0.014,0.222,0.022,0.332c0.038,0.578,0.079,1.159,0.122,1.742c0.011,0.157,0.024,0.315,0.036,0.471
			c0.034,0.447,0.069,0.893,0.105,1.34c0.016,0.176,0.03,0.354,0.045,0.53c0.049,0.583,0.101,1.163,0.156,1.742
			c0.005,0.063,0.011,0.129,0.018,0.192c0.051,0.52,0.103,1.037,0.157,1.551c0.019,0.175,0.038,0.348,0.057,0.52
			c0.05,0.456,0.103,0.91,0.155,1.358c0.015,0.129,0.03,0.257,0.046,0.387c0.069,0.556,0.141,1.107,0.215,1.649
			c0.018,0.133,0.037,0.261,0.055,0.391c0.062,0.429,0.124,0.852,0.189,1.267c0.022,0.152,0.046,0.303,0.07,0.454
			c0.085,0.524,0.172,1.043,0.263,1.546c2.344,12.896,15.239,60.373,18.17,74.44s16.412,88.508,18.17,97.301
			c0.122,0.602,0.229,1.235,0.329,1.888c0.008,0.054,0.016,0.11,0.023,0.165c0.092,0.609,0.174,1.236,0.249,1.877
			c0.01,0.068,0.017,0.136,0.025,0.205c0.073,0.648,0.139,1.309,0.197,1.975c0.005,0.049,0.009,0.097,0.014,0.146
			c0.061,0.711,0.114,1.429,0.16,2.146c0.001,0.011,0.001,0.021,0.001,0.031c0.046,0.711,0.083,1.421,0.114,2.125
			c0.004,0.06,0.005,0.117,0.008,0.175c0.03,0.668,0.055,1.329,0.073,1.978c0.002,0.059,0.003,0.118,0.006,0.176
			c0.019,0.676,0.035,1.338,0.045,1.982c0,0.01,0,0.022,0,0.034c0.012,0.672,0.018,1.323,0.021,1.946
			c0.035-0.087,0.056-0.139,0.056-0.139s6.608,35.245,5.506,49.563c-1.101,14.318,6.608,103.53,12.117,131.067
			c5.505,27.533,12.114,98.024,6.608,127.763c-5.508,29.736-18.725,109.039-22.028,143.182c-3.305,34.144-3.305,59.476-3.305,59.476
			s-4.404,4.405-4.404,8.812c0,4.405,2.203,14.318,2.203,14.318v7.71c0,0,2.201,16.521,47.361,19.825
			c45.157,3.303,99.125,4.405,115.646,7.71c4.298,0.859,9.644,1.719,15.446,2.52l-0.025,0.784c0,0,22.026,3.304,36.346,3.304
			c1.622,0,3.48-0.045,5.506-0.124c2.028,0.079,3.886,0.124,5.508,0.124c14.317,0,36.346-3.304,36.346-3.304l-0.027-0.784
			c5.803-0.801,11.148-1.66,15.446-2.52c16.521-3.305,70.49-4.407,115.648-7.71c45.158-3.304,47.359-19.825,47.359-19.825v-7.71
			c0,0,2.203-9.913,2.203-14.318c0-4.406-4.404-8.812-4.404-8.812s0-25.332-3.307-59.476
			c-3.303-34.143-16.52-113.445-22.026-143.182c-5.508-29.739,1.101-100.23,6.608-127.763
			c5.507-27.537,13.217-116.749,12.115-131.067c-0.948-12.318,3.807-40.103,5.155-47.632c-0.025-5.055,0.143-13.037,1.265-18.642
			c1.758-8.793,15.24-83.233,18.169-97.301c2.931-14.068,15.826-61.545,18.172-74.44c1.653-9.1,2.14-22.279,2.282-29.251
			C638.961,190.584,638.162,190.004,638.162,190.004"/>
	</g>
           <g id="SLEEVES">
		<path clip-path="url(#SVGID_6_)" fill="#FDBB2D" d="M627.318,350.952c-0.007,0.035-0.012,0.056-0.012,0.056
			S627.313,350.983,627.318,350.952"/>
		<path clip-path="url(#SVGID_6_)" fill="#FDBB2D" d="M166.686,407.376c0-0.012,0-0.024,0-0.034
			c-0.01-0.644-0.026-1.306-0.046-1.982c-0.001-0.058-0.003-0.117-0.005-0.176c-0.02-0.649-0.043-1.31-0.073-1.978
			c-0.002-0.058-0.004-0.117-0.007-0.175c-0.031-0.704-0.068-1.415-0.114-2.125c0-0.01-0.001-0.021-0.001-0.029
			c-0.047-0.719-0.101-1.438-0.162-2.148c-0.004-0.048-0.007-0.098-0.013-0.146c-0.058-0.666-0.123-1.327-0.197-1.975
			c-0.008-0.067-0.015-0.137-0.023-0.205c-0.074-0.641-0.158-1.268-0.249-1.876c-0.007-0.055-0.016-0.111-0.024-0.166
			c-0.099-0.652-0.208-1.286-0.329-1.888c-1.758-8.793-15.24-83.233-18.17-97.301c-2.929-14.067-15.826-61.545-18.169-74.44
			c-0.093-0.503-0.18-1.021-0.264-1.546c-0.023-0.151-0.047-0.302-0.07-0.453c-0.065-0.417-0.128-0.839-0.188-1.268
			c-0.018-0.13-0.038-0.258-0.056-0.391c-0.076-0.542-0.147-1.093-0.215-1.649c-0.017-0.128-0.031-0.258-0.046-0.387
			c-0.054-0.448-0.106-0.902-0.155-1.358c-0.021-0.172-0.038-0.345-0.058-0.52c-0.054-0.515-0.106-1.031-0.156-1.551
			c-0.006-0.063-0.013-0.127-0.019-0.192c-0.055-0.579-0.107-1.16-0.156-1.742c-0.016-0.177-0.03-0.354-0.044-0.53
			c-0.037-0.447-0.073-0.893-0.107-1.34c-0.012-0.156-0.025-0.313-0.036-0.47c-0.043-0.584-0.083-1.164-0.123-1.743
			c-0.008-0.11-0.013-0.219-0.02-0.332c-0.032-0.478-0.062-0.954-0.09-1.427c-0.01-0.177-0.021-0.351-0.03-0.527
			c-0.03-0.497-0.055-0.991-0.082-1.481c-0.003-0.071-0.008-0.146-0.012-0.219c-0.028-0.564-0.055-1.12-0.08-1.669
			c-0.006-0.139-0.014-0.274-0.02-0.411c-0.019-0.45-0.037-0.892-0.056-1.327c-0.004-0.106-0.009-0.214-0.013-0.32
			c-0.021-0.541-0.042-1.071-0.059-1.585c-0.001-0.029-0.002-0.056-0.002-0.084c-0.017-0.494-0.033-0.971-0.046-1.436
			c-0.003-0.081-0.005-0.161-0.006-0.242c-0.03-0.996-0.054-1.923-0.072-2.766v-0.006c-3.893,2.682-11.478,7.675-16.233,9.261
			c-6.609,2.203-44.056,30.84-55.071,69.389c-11.013,38.548-13.216,133.27-13.216,133.27l-3.305,16.521l-3.304,9.912
			c0,0,38.55,9.913,71.592,12.115c33.043,2.204,53.968,2.204,53.968,2.204s2.203-2.204,1.102-8.813
			c-1.102-6.607-2.203-8.81-1.102-12.115c1.029-3.088,4.945-12.911,5.452-14.178C166.703,408.701,166.696,408.049,166.686,407.376"
			/>
		<path clip-path="url(#SVGID_6_)" fill="#FDBB2D" d="M728.477,420.197l-3.304-16.52c0,0-2.204-94.721-13.218-133.271
			c-11.014-38.549-48.462-67.186-55.07-69.389c-4.919-1.639-12.88-6.935-16.635-9.538c-0.143,6.972-0.629,20.151-2.282,29.251
			c-2.346,12.895-15.241,60.373-18.172,74.44c-2.929,14.067-16.411,88.507-18.169,97.3c-1.122,5.605-1.289,13.589-1.265,18.643
			c0.22-1.224,0.352-1.932,0.352-1.932s4.405,11.015,5.507,14.319c1.102,3.305,0,5.507-1.102,12.117
			c-1.102,6.606,1.102,8.81,1.102,8.81s20.928,0,53.969-2.203c33.043-2.202,71.592-12.115,71.592-12.115L728.477,420.197z"/>
      </g>
</g>
     <g id="CUSTOM"></g>
       </g>
	<g clip-path="url(#SVGID_2_)">
		<defs>
			<rect id="SVGID_5_" x="-9" y="6.555" width="795.389" height="1029.326"/>
		</defs>
		<clipPath id="SVGID_6_">
			<use xlink:href="#SVGID_5_"  overflow="visible"/>
		</clipPath>
	</g>
	<g id="SLEEVESStripes" clip-path="url(#SVGID_2_)">
		<defs>
			<rect id="SVGID_7_" x="-9" y="6.555" width="795.389" height="1029.326"/>
		</defs>
		<clipPath id="SVGID_8_">
			<use xlink:href="#SVGID_7_"  overflow="visible"/>
		</clipPath>
		<path clip-path="url(#SVGID_8_)" fill="#004D86" d="M161.255,423.501c0.304-0.913,0.863-2.416,1.508-4.109
			c-7.511-0.467-25.313-1.659-50.359-3.885c-24.601-2.187-55.363-8.157-70.22-11.231l-3.185,15.922l-3.303,9.912
			c0,0,38.549,9.913,71.592,12.116c33.04,2.203,53.968,2.203,53.968,2.203s2.203-2.203,1.102-8.812
			C161.255,429.008,160.152,426.805,161.255,423.501"/>
		<path clip-path="url(#SVGID_8_)" fill="#004D86" d="M728.477,420.197l-3.299-16.501c-13.465,2.831-46.752,9.479-73.007,11.811
			c-22.301,1.983-38.861,3.146-47.525,3.706c0.674,1.767,1.261,3.345,1.575,4.289c1.102,3.305,0,5.507-1.102,12.117
			c-1.102,6.606,1.102,8.81,1.102,8.81s20.928,0,53.969-2.203c33.043-2.202,71.592-12.115,71.592-12.115L728.477,420.197z"/>
	</g>
	<g id="COLLAR" clip-path="url(#SVGID_2_)">
		<defs>
			<rect id="SVGID_9_" x="-9" y="6.555" width="795.389" height="1029.326"/>
		</defs>
		<clipPath id="SVGID_10_">
			<use xlink:href="#SVGID_9_"  overflow="visible"/>
		</clipPath>
		<path clip-path="url(#SVGID_10_)" fill="#004D86" d="M389.075,163.163c74.188-0.734,105.292-28.863,112.731-36.974
			c-8.772-6.582-14.708-11.658-16.739-13.283c-5.507-4.406-5.507-7.709-11.014-11.015c-5.507-3.303-7.709-13.215-18.723-18.722
			c-7.011-3.505-38.557-4.78-60.569-5.243l-0.009-0.265c0,0-4.329,0-11.014,0.082c-6.686-0.082-11.015-0.082-11.015-0.082
			l-0.008,0.265c-22.011,0.463-53.558,1.738-60.569,5.243c-11.014,5.507-13.215,15.419-18.724,18.722
			c-5.506,3.306-5.506,6.609-11.013,11.015c-1.617,1.295-5.721,4.783-11.747,9.47C280.09,132.427,315.515,163.892,389.075,163.163"
			/>
	</g>
	<g clip-path="url(#SVGID_2_)">
		<defs>
			<rect id="SVGID_11_" x="-9" y="6.555" width="795.389" height="1029.326"/>
		</defs>
		<clipPath id="SVGID_12_">
			<use xlink:href="#SVGID_11_"  overflow="visible"/>
		</clipPath>
		<g opacity="0.35" clip-path="url(#SVGID_12_)">
			<g>
				<defs>
					<rect id="SVGID_13_" x="274.219" y="119.263" width="224.621" height="40.015"/>
				</defs>
				<clipPath id="SVGID_14_">
					<use xlink:href="#SVGID_13_"  overflow="visible"/>
				</clipPath>
				<path clip-path="url(#SVGID_14_)" fill="none" stroke="#FFD281" stroke-miterlimit="10" stroke-dasharray="0.859,0.859" d="
					M498.298,123.957c0,0-22.462,33.799-109.171,34.658c-87.51,0.866-114.37-38.989-114.37-38.989"/>
			</g>
		</g>
		<g opacity="0.35" clip-path="url(#SVGID_12_)">
			<g>
				<defs>
					<rect id="SVGID_15_" x="41.007" y="408.257" width="120.249" height="15.895"/>
				</defs>
				<clipPath id="SVGID_16_">
					<use xlink:href="#SVGID_15_"  overflow="visible"/>
				</clipPath>
				<path clip-path="url(#SVGID_16_)" fill="none" stroke="#FFD281" stroke-miterlimit="10" stroke-dasharray="0.859,0.859" d="
					M41.181,408.883c0,0,27.548,7.62,62.131,11.136c34.583,3.518,57.944,3.482,57.944,3.482"/>
			</g>
		</g>
		<g opacity="0.35" clip-path="url(#SVGID_12_)">
			<g>
				<defs>
					<rect id="SVGID_17_" x="41.007" y="413.459" width="120.249" height="15.895"/>
				</defs>
				<clipPath id="SVGID_18_">
					<use xlink:href="#SVGID_17_"  overflow="visible"/>
				</clipPath>
				<path clip-path="url(#SVGID_18_)" fill="none" stroke="#FFD281" stroke-miterlimit="10" stroke-dasharray="0.859,0.859" d="
					M41.181,414.086c0,0,27.548,7.62,62.131,11.136c34.583,3.518,57.944,3.482,57.944,3.482"/>
			</g>
		</g>
		<g opacity="0.35" clip-path="url(#SVGID_12_)">
			<g>
				<defs>
					<rect id="SVGID_19_" x="606.98" y="408.257" width="120.25" height="15.895"/>
				</defs>
				<clipPath id="SVGID_20_">
					<use xlink:href="#SVGID_19_"  overflow="visible"/>
				</clipPath>
				<path clip-path="url(#SVGID_20_)" fill="none" stroke="#FFD281" stroke-miterlimit="10" stroke-dasharray="0.859,0.859" d="
					M727.056,408.883c0,0-27.548,7.62-62.13,11.136c-34.582,3.518-57.943,3.482-57.943,3.482"/>
			</g>
		</g>
		<g opacity="0.35" clip-path="url(#SVGID_12_)">
			<g>
				<defs>
					<rect id="SVGID_21_" x="606.98" y="413.459" width="120.25" height="15.895"/>
				</defs>
				<clipPath id="SVGID_22_">
					<use xlink:href="#SVGID_21_"  overflow="visible"/>
				</clipPath>
				<path clip-path="url(#SVGID_22_)" fill="none" stroke="#FFD281" stroke-miterlimit="10" stroke-dasharray="0.859,0.859" d="
					M727.056,414.086c0,0-27.548,7.62-62.13,11.136c-34.582,3.518-57.943,3.482-57.943,3.482"/>
			</g>
		</g>
		<g opacity="0.35" clip-path="url(#SVGID_12_)">
			<g>
				<defs>
					<rect id="SVGID_23_" x="162.501" y="920.059" width="439.938" height="43.431"/>
				</defs>
				<clipPath id="SVGID_24_">
					<use xlink:href="#SVGID_23_"  overflow="visible"/>
				</clipPath>
				<path clip-path="url(#SVGID_24_)" fill="none" stroke="#FFD281" stroke-miterlimit="10" stroke-dasharray="0.859,0.859" d="
					M163.097,922.931c0,0,9.378,21.686,60.959,28.722c51.581,7.032,105.951,11.729,164.12,11.136
					c57.442-0.587,171.093-19.158,183.462-21.687c25.792-5.275,30.178-20.868,30.178-20.868"/>
			</g>
		</g>
		<g opacity="0.35" clip-path="url(#SVGID_12_)">
			<g>
				<defs>
					<rect id="SVGID_25_" x="161.06" y="924.277" width="444.115" height="45.714"/>
				</defs>
				<clipPath id="SVGID_26_">
					<use xlink:href="#SVGID_25_"  overflow="visible"/>
				</clipPath>
				<path clip-path="url(#SVGID_26_)" fill="none" stroke="#FFD281" stroke-miterlimit="10" stroke-dasharray="0.859,0.859" d="
					M161.639,929.667c0,0,10.836,21.454,62.417,28.487c51.581,7.035,105.951,11.731,164.12,11.137
					c57.442-0.586,171.093-19.157,183.462-21.687c25.791-5.275,32.934-23.084,32.934-23.084"/>
			</g>
		</g>
		<g opacity="0.35" clip-path="url(#SVGID_12_)">
			<g>
				<defs>
					<rect id="SVGID_27_" x="599.71" y="191.478" width="41.19" height="224.466"/>
				</defs>
				<clipPath id="SVGID_28_">
					<use xlink:href="#SVGID_27_"  overflow="visible"/>
				</clipPath>
				<path clip-path="url(#SVGID_28_)" fill="none" stroke="#FFD281" stroke-miterlimit="10" d="M640.25,191.48
					c0,0,0.062,16.356-2.282,29.251c-2.347,12.896-15.241,60.373-18.172,74.44c-2.929,14.067-16.411,88.507-18.169,97.3
					c-1.76,8.792-1.173,23.446-1.173,23.446"/>
			</g>
		</g>
		<g opacity="0.35" clip-path="url(#SVGID_12_)">
			<g>
				<defs>
					<rect id="SVGID_29_" x="126.173" y="191.755" width="41.185" height="224.188"/>
				</defs>
				<clipPath id="SVGID_30_">
					<use xlink:href="#SVGID_29_"  overflow="visible"/>
				</clipPath>
				<path clip-path="url(#SVGID_30_)" fill="none" stroke="#FFD281" stroke-miterlimit="10" d="M126.823,191.757
					c0,0-0.066,16.081,2.278,28.975c2.345,12.895,15.24,60.373,18.17,74.44c2.93,14.067,16.412,88.507,18.17,97.3
					c1.759,8.792,1.173,23.446,1.173,23.446"/>
			</g>
		</g>
		<g opacity="0.35" clip-path="url(#SVGID_12_)">
			<g>
				<defs>
					<rect id="SVGID_31_" x="271.221" y="122.035" width="231.112" height="41.791"/>
				</defs>
				<clipPath id="SVGID_32_">
					<use xlink:href="#SVGID_31_"  overflow="visible"/>
				</clipPath>
				<path clip-path="url(#SVGID_32_)" fill="none" stroke="#FFD281" stroke-miterlimit="10" stroke-dasharray="0.859,0.859" d="
					M501.806,126.188c0,0-26.023,36.117-112.732,36.975c-87.509,0.867-117.324-40.748-117.324-40.748"/>
			</g>
		</g>
	</g>
	<g clip-path="url(#SVGID_2_)">
		<defs>
			<rect id="SVGID_33_" x="-9" y="6.555" width="795.389" height="1029.326"/>
		</defs>
		<clipPath id="SVGID_34_">
			<use xlink:href="#SVGID_33_"  overflow="visible"/>
		</clipPath>
		<path clip-path="url(#SVGID_34_)" d="M166.685,407.341c0,0.012,0,0.024,0,0.034C166.685,407.365,166.685,407.353,166.685,407.341"
			/>
		<path clip-path="url(#SVGID_34_)" d="M166.706,409.322"/>
		<path clip-path="url(#SVGID_34_)" fill="#FFFFFF" d="M389.128,127.422c45.488,0.433,80.145-22.961,79.71-26.86
			c-0.431-3.899-7.891-11.139-12.657-14.604c-4.766-3.466-27.422-5.781-72.911-5.532c-46.009,0.251-61.597,2.011-67.882,3.52
			c-6.287,1.508-16.638,12.989-15.337,15.588C301.351,102.134,343.907,126.991,389.128,127.422"/>
		<g opacity="0.35" clip-path="url(#SVGID_34_)">
			<g>
				<defs>
					<rect id="SVGID_35_" x="299.939" y="80.409" width="168.905" height="47.02"/>
				</defs>
				<clipPath id="SVGID_36_">
					<use xlink:href="#SVGID_35_"  overflow="visible"/>
				</clipPath>
				<g clip-path="url(#SVGID_36_)">
					<defs>
						<path id="SVGID_37_" d="M389.127,127.422c45.488,0.433,80.146-22.961,79.713-26.86c-0.434-3.899-7.893-11.139-12.659-14.604
							c-4.766-3.466-27.422-5.781-72.91-5.532c-46.011,0.251-61.599,2.011-67.883,3.52c-6.286,1.508-16.638,12.989-15.338,15.588
							C301.35,102.134,343.907,126.991,389.127,127.422"/>
					</defs>
					<clipPath id="SVGID_38_">
						<use xlink:href="#SVGID_37_"  overflow="visible"/>
					</clipPath>
					
						<radialGradient id="SVGID_39_" cx="187.4136" cy="1041.2979" r="1.2994" gradientTransform="matrix(102.1332 0 0 -40.5422 -18755.5547 42299.3906)" gradientUnits="userSpaceOnUse">
						<stop  offset="0" style="stop-color:#FFFFFF"/>
						<stop  offset="1" style="stop-color:#FFFFFF"/>
					</radialGradient>
					<rect x="298.75" y="80.178" clip-path="url(#SVGID_38_)" fill="url(#SVGID_39_)" width="170.523" height="47.678"/>
				</g>
				<g clip-path="url(#SVGID_36_)">
					<defs>
						<path id="SVGID_40_" d="M389.127,127.422c45.488,0.433,80.146-22.961,79.713-26.86c-0.434-3.899-7.893-11.139-12.659-14.604
							c-4.766-3.466-27.422-5.781-72.91-5.532c-46.011,0.251-61.599,2.011-67.883,3.52c-6.286,1.508-16.638,12.989-15.338,15.588
							C301.35,102.134,343.907,126.991,389.127,127.422"/>
					</defs>
					<clipPath id="SVGID_41_">
						<use xlink:href="#SVGID_40_"  overflow="visible"/>
					</clipPath>
					
						<radialGradient id="SVGID_42_" cx="187.4136" cy="1041.2979" r="1.2994" gradientTransform="matrix(102.1332 0 0 -40.5422 -18755.5547 42299.3906)" gradientUnits="userSpaceOnUse">
						<stop  offset="0" style="stop-color:#FFFFFF"/>
						<stop  offset="0.119" style="stop-color:#D9D8D7"/>
						<stop  offset="0.3629" style="stop-color:#969393"/>
						<stop  offset="0.7064" style="stop-color:#454343"/>
						<stop  offset="1" style="stop-color:#010101"/>
					</radialGradient>
					<rect x="298.75" y="80.178" clip-path="url(#SVGID_41_)" fill="url(#SVGID_42_)" width="170.523" height="47.678"/>
				</g>
			</g>
		</g>
		<g opacity="0.5" clip-path="url(#SVGID_34_)">
			<g>
				<defs>
					<rect id="SVGID_43_" x="62.561" y="89.836" width="649.4" height="878.573"/>
				</defs>
				<clipPath id="SVGID_44_">
					<use xlink:href="#SVGID_43_"  overflow="visible"/>
				</clipPath>
				<g opacity="0.2" clip-path="url(#SVGID_44_)">
					<g>
						<defs>
							<rect id="SVGID_45_" x="443.719" y="89.836" width="196.531" height="869.793"/>
						</defs>
						<clipPath id="SVGID_46_">
							<use xlink:href="#SVGID_45_"  overflow="visible"/>
						</clipPath>
						<path clip-path="url(#SVGID_46_)" fill="#897F76" d="M601.627,392.472c1.758-8.793,15.24-83.233,18.169-97.3
							c2.931-14.068,15.826-61.545,18.172-74.44c1.653-9.101,2.14-22.279,2.282-29.251c-1.289-0.894-2.088-1.477-2.088-1.477
							s-29.74-9.912-71.592-26.434c-41.853-16.519-75.996-46.258-81.504-50.663c-5.507-4.407-5.507-7.711-11.014-11.014
							c-3.646-2.188-5.856-7.271-10.122-12.055l-2.241,0.783c3.576,3.418,6.865,7.393,7.149,9.944
							c0.229,2.059-9.341,9.558-25.121,16.112c1.277,2.647,2.198,5.148,2.347,7.071c0.567,7.386,0,6.817,0,17.613
							s3.977,21.588,10.795,37.498c6.818,15.908,14.204,7.386,19.316,30.113c5.114,22.726-25.566,18.748-25.566,18.748
							s27.84,3.978,58.52,2.272c30.68-1.704,23.861,0,45.452-2.272c21.59-2.272,21.59-5.682,54.543,3.41
							c32.953,9.09,7.953,29.544,5.682,52.837c-2.273,23.295-35.226,19.886-44.885,32.385c-9.659,12.5-3.408,109.654-2.272,120.449
							c1.136,10.794-22.157,29.543-22.157,29.543s-6.251,18.183-10.228,31.817c-3.978,13.636,6.249,42.044,5.682,72.725
							c-0.568,30.68-28.408,71.019-38.066,93.176c-9.658,22.158-2.272,43.749,13.635,92.044c15.91,48.29,6.252,6.247,18.182,21.02
							c11.932,14.774,6.25,9.091,12.499,30.111c6.251,21.022,8.522,52.84,8.522,52.84s2.273,32.952,10.228,63.064
							c7.953,30.112,4.544,16.478,24.998,34.09l6.479,2.399c6.047-4.498,6.595-8.557,6.595-8.557v-7.711
							c0,0,2.203-9.912,2.203-14.317c0-4.406-4.403-8.812-4.403-8.812s0-25.332-3.308-59.476
							c-3.303-34.143-16.52-113.444-22.026-143.182c-5.508-29.739,1.101-100.229,6.608-127.763
							c5.507-27.536,13.217-116.749,12.115-131.067c-0.948-12.317,3.807-40.102,5.155-47.632
							C600.338,406.061,600.505,398.077,601.627,392.472"/>
					</g>
				</g>
				<g opacity="0.2" clip-path="url(#SVGID_44_)">
					<g>
						<defs>
							<rect id="SVGID_47_" x="126.823" y="94.107" width="221.668" height="874.302"/>
						</defs>
						<clipPath id="SVGID_48_">
							<use xlink:href="#SVGID_47_"  overflow="visible"/>
						</clipPath>
						<path clip-path="url(#SVGID_48_)" fill="#897F76" d="M344.921,120.188c-25.438-7.683-44.018-18.951-44.87-20.654
							c-0.417-0.833,0.371-2.58,1.828-4.615c-0.598-0.288-1.173-0.561-1.698-0.812c-2.347,3.283-4.2,6.25-6.758,7.785
							c-5.506,3.303-5.506,6.607-11.013,11.013c-5.506,4.406-39.65,34.144-81.504,50.664
							c-41.853,16.522-71.591,26.435-71.591,26.435s-0.973,0.704-2.491,1.75c0.149,7.041,0.646,19.996,2.279,28.977
							c2.345,12.896,15.239,60.373,18.17,74.44c2.931,14.067,16.412,88.507,18.17,97.3c0.996,4.979,1.239,11.838,1.263,16.852
							c0.035-0.089,0.056-0.141,0.056-0.141s6.608,35.246,5.506,49.564c-1.101,14.318,6.608,103.531,12.117,131.067
							c5.505,27.535,12.114,98.024,6.608,127.763c-5.506,29.737-18.725,109.039-22.028,143.182
							c-3.305,34.144-3.305,59.477-3.305,59.477s-4.404,4.404-4.404,8.811c0,4.405,2.202,14.318,2.202,14.318v7.71
							c0,0,1.566,11.645,28.796,17.336c2.327-13.235,5.786-36.511,3.824-48.677c-2.84-17.613,2.273-14.204,10.226-26.136
							c7.954-11.932,6.25-51.702,7.386-99.428s90.906-24.432,90.906-24.432s7.384-10.226,6.249-24.43
							c-1.136-14.203-46.019-76.702-54.543-90.905c-8.521-14.203,4.547-12.498,4.547-12.498s-12.5-5.683-17.615-33.521
							c-5.113-27.84,8.524-61.929,21.022-91.474c12.5-29.543,48.861-60.223,48.861-60.223s-39.203,6.249-76.7-10.797
							c-37.499-17.043-39.772-46.02-44.885-135.22c-5.114-89.2,3.409-106.813,23.861-107.95
							c20.455-1.136,92.61,22.727,103.405,27.271c0,0,6.818-14.203,4.545-22.726c-2.271-8.523,4.546-22.158,12.5-36.931
							c7.954-14.771,7.954-7.954,10.795-10.226c2.841-2.272,0.567-15.339-1.137-19.316c-1.705-3.979-0.568-5.115,2.841-14.206
							C348.966,124.921,347.583,122.702,344.921,120.188"/>
					</g>
				</g>
				<g opacity="0.15" clip-path="url(#SVGID_44_)">
					<g>
						<defs>
							<rect id="SVGID_49_" x="62.561" y="264.081" width="101.699" height="146.017"/>
						</defs>
						<clipPath id="SVGID_50_">
							<use xlink:href="#SVGID_49_"  overflow="visible"/>
						</clipPath>
						<path clip-path="url(#SVGID_50_)" fill="#897F76" d="M139.83,357.259c-2.841-4.545-68.747-93.178-68.747-93.178
							s1.137,8.522,5.682,18.181c4.545,9.659,50.565,67.61,50.565,67.61s-41.476-45.453-43.748-48.292
							c-2.272-2.841-21.022-17.615-21.022-15.342c0,2.273,14.204,17.614,25.567,28.408c11.363,10.795,34.656,34.09,45.451,50.566
							c10.797,16.477,30.681,44.885,30.681,44.885s-3.977-16.477-6.818-23.295C154.601,379.985,142.67,361.805,139.83,357.259"/>
					</g>
				</g>
				<g opacity="0.15" clip-path="url(#SVGID_44_)">
					<g>
						<defs>
							<rect id="SVGID_51_" x="75.629" y="250.446" width="44.315" height="51.133"/>
						</defs>
						<clipPath id="SVGID_52_">
							<use xlink:href="#SVGID_51_"  overflow="visible"/>
						</clipPath>
						<path clip-path="url(#SVGID_52_)" fill="#897F76" d="M94.946,278.284c-3.977-5.682-19.316-27.838-19.316-27.838
							s6.248,23.293,18.748,35.225c12.499,11.931,25.567,15.909,25.567,15.909S98.923,283.967,94.946,278.284"/>
					</g>
				</g>
				<g opacity="0.15" clip-path="url(#SVGID_44_)">
					<g>
						<defs>
							<rect id="SVGID_53_" x="608.558" y="281.126" width="103.403" height="103.973"/>
						</defs>
						<clipPath id="SVGID_54_">
							<use xlink:href="#SVGID_53_"  overflow="visible"/>
						</clipPath>
						<path clip-path="url(#SVGID_54_)" fill="#897F76" d="M709.688,281.125c0,0-7.386,14.772-13.635,26.135
							c-6.25,11.365-32.954,32.953-47.158,40.907c-14.202,7.956-40.338,36.931-40.338,36.931s11.931-2.273,19.317-7.954
							c7.385-5.682,54.542-24.431,72.724-50.565C718.779,300.442,709.688,281.125,709.688,281.125"/>
					</g>
				</g>
				<g opacity="0.15" clip-path="url(#SVGID_44_)">
					<g>
						<defs>
							<rect id="SVGID_55_" x="618.215" y="367.485" width="82.384" height="33.878"/>
						</defs>
						<clipPath id="SVGID_56_">
							<use xlink:href="#SVGID_55_"  overflow="visible"/>
						</clipPath>
						<path clip-path="url(#SVGID_56_)" fill="#897F76" d="M664.236,389.643c-15.908,4.547-46.021,10.228-46.021,10.228
							s21.59,5.682,48.293-5.113c26.705-10.797,34.09-27.272,34.09-27.272S680.145,385.098,664.236,389.643"/>
					</g>
				</g>
				<g opacity="0.15" clip-path="url(#SVGID_44_)">
					<g>
						<defs>
							<rect id="SVGID_57_" x="627.319" y="291.769" width="60.78" height="59.185"/>
						</defs>
						<clipPath id="SVGID_58_">
							<use xlink:href="#SVGID_57_"  overflow="visible"/>
						</clipPath>
						<path clip-path="url(#SVGID_58_)" fill="#897F76" d="M665.94,299.307c-10.795,12.499-14.204,17.044-23.861,22.726
							c-9.405,5.533-14.499,27.754-14.761,28.92c0.229-1.009,3.838-16.063,16.465-22.103c13.068-6.25,22.157-5.682,28.408-16.477
							c6.249-10.794,15.908-18.749,15.908-18.749S676.737,286.807,665.94,299.307"/>
					</g>
				</g>
			</g>
		</g>
	</g>
</g>
</svg>
