<?xml version="1.0" encoding="utf-8"?>
<!-- Generator: Adobe Illustrator 16.0.0, SVG Export Plug-In . SVG Version: 6.00 Build 0)  -->
<!DOCTYPE svg PUBLIC "-//W3C//DTD SVG 1.1//EN" "http://www.w3.org/Graphics/SVG/1.1/DTD/svg11.dtd">
<svg version="1.1" id="Layer_1" xmlns="http://www.w3.org/2000/svg" xmlns:xlink="http://www.w3.org/1999/xlink" x="0px" y="0px"
	 width="800.453px" height="1035.881px" viewBox="0 0 620 1035.881" enable-background="new 0 0 800.453 1035.881"
	 xml:space="preserve">
<g>
	<defs>
		<rect id="SVGID_1_" x="7" y="56" width="730.395" height="945.217"/>
	</defs>
	<clipPath id="SVGID_2_">
		<use xlink:href="#SVGID_1_"  overflow="visible"/>
	</clipPath>
	<g clip-path="url(#SVGID_2_)">
		<defs>
			<rect id="SVGID_3_" x="7" y="56" width="730.395" height="945.217"/>
		</defs>
		<clipPath id="SVGID_4_">
			<use xlink:href="#SVGID_3_"  overflow="visible"/>
		</clipPath>
     <g id="MASK">
     <g id="BODY">
		<path clip-path="url(#SVGID_4_)" fill="#FDBB2D" d="M603.683,197.491c-11.254-3.948-61.06-23.51-76.831-33.716
			c-17.195-11.125-39.445-28.319-45.513-33.375c-5.233-4.361-10.464-13.22-15.048-16.878c-21.474-2.725-64.504-7.79-90.344-8.171
			c-27.583-0.405-77.561,6.401-98.441,9.45c-4.228,4.151-8.924,11.684-13.619,15.599c-6.069,5.057-28.32,22.251-45.514,33.375
			c-17.194,11.126-74.842,33.376-78.89,34.387c-0.5,0.125-1.513,0.719-2.934,1.715c1.527,30.637,15.493,84.599,20.128,110.551
			c5.057,28.32,15.171,49.56,15.171,61.696v18.352c2.174,4.85,5.41,13.185,6.068,21.093c1.012,12.136,3.034,56.638,11.125,72.821
			c8.092,16.182,23.262,112.265,25.284,121.369c2.023,9.103-5.057,43.49-5.057,51.581c0,8.092-19.216,67.765-20.228,83.946
			c-1.011,16.184-5.057,38.434-5.057,54.615c0,16.183-7.081,40.457-7.081,40.457s6.068,12.137,14.161,27.309
			c8.09,15.171,22.251,39.444,27.307,52.592c5.058,13.148,25.286,43.49,66.754,57.65c5.341,1.823,11.896,3.276,19.255,4.428
			l-0.039,1.641c0,0,20.66,1.461,47.594,2.056c6.921,0.179,13.874,0.252,20.676,0.244c6.803,0.008,13.754-0.065,20.674-0.244
			c26.936-0.595,47.595-2.056,47.595-2.056l-0.039-1.641c7.358-1.151,13.914-2.604,19.255-4.428
			c41.468-14.16,61.697-44.502,66.753-57.65c5.057-13.147,19.216-37.421,27.308-52.592c8.091-15.172,14.159-27.309,14.159-27.309
			s-7.079-24.274-7.079-40.457c0-16.182-4.046-38.432-5.057-54.615c-1.013-16.182-20.229-75.854-20.229-83.946
			c0-8.091-7.08-42.479-5.058-51.581c2.023-9.104,17.193-105.187,25.286-121.369c8.09-16.183,10.113-60.685,11.123-72.821
			c0.701-8.403,4.31-17.287,6.465-21.959c1.174-7.682,2.487-16.419,3.651-24.564c3.033-21.24,15.171-108.22,22.251-129.461
			C603.901,222.896,604.16,207.687,603.683,197.491"/>
		</g>
     <g  id="SLEEVES">
      		<path clip-path="url(#SVGID_6_)" fill="#FDBB2D" d="M156.677,310.429c-4.634-25.952-18.601-79.914-20.128-110.552
			c-10.073,7.068-40.784,34.652-56.739,63.016c-18.205,32.365-14.159,119.345-14.159,123.392s-1.011,17.194-1.011,17.194
			l-3.035,6.068c0,0,34.388,9.103,63.719,9.103c29.331,0,45.513-5.058,45.513-5.058l-1.012-27.307c0,0,0.86,1.599,2.023,4.193
			v-18.352C171.849,359.987,161.734,338.748,156.677,310.429"/>
		<path clip-path="url(#SVGID_6_)" fill="#FDBB2D" d="M680.585,403.478c0,0-1.012-13.148-1.012-17.194
			c0-4.044,4.045-91.026-14.16-123.39c-18.205-32.365-55.627-63.719-59.673-64.731c-0.334-0.083-1.043-0.314-2.059-0.671
			c0.479,10.195,0.22,25.405-4.009,38.094c-7.081,21.24-19.218,108.22-22.251,129.46c-1.164,8.145-2.478,16.882-3.651,24.563
			c0.957-2.076,1.628-3.325,1.628-3.325l-1.012,27.309c0,0,16.184,5.056,45.513,5.056c29.331,0,63.719-9.103,63.719-9.103
			L680.585,403.478z"/>
    </g>
    </g>
      <g id="CUSTOM"></g> 
     </g>
	<g clip-path="url(#SVGID_2_)">
		<defs>
			<rect id="SVGID_5_" x="7" y="56" width="730.395" height="945.217"/>
		</defs>
		<clipPath id="SVGID_6_">
			<use xlink:href="#SVGID_5_"  overflow="visible"/>
		</clipPath>
	</g>
	<g id="COLLAR" clip-path="url(#SVGID_2_)">
		<defs>
			<rect id="SVGID_7_" x="7" y="56" width="730.395" height="945.217"/>
		</defs>
		<clipPath id="SVGID_8_">
			<use xlink:href="#SVGID_7_"  overflow="visible"/>
		</clipPath>
		<path clip-path="url(#SVGID_8_)" fill="#004D86" d="M375.947,105.351c25.84,0.38,68.87,5.445,90.344,8.17
			c-0.733-0.585-1.45-1.048-2.146-1.328c-5.058-2.023-12.137-6.069-12.137-6.069l-7.08-13.148c0,0-29.331-11.124-53.604-11.124
			h-37.421c-24.274,0-53.605,11.124-53.605,11.124l-7.079,13.148c0,0-7.081,4.046-12.137,6.069c-1.143,0.458-2.34,1.396-3.575,2.606
			C298.386,111.752,348.363,104.946,375.947,105.351"/>
	</g>
	<g id="SLEEVESStripes" clip-path="url(#SVGID_2_)">
		<defs>
			<rect id="SVGID_9_" x="7" y="56" width="730.395" height="945.217"/>
		</defs>
		<clipPath id="SVGID_10_">
			<use xlink:href="#SVGID_9_"  overflow="visible"/>
		</clipPath>
		<path clip-path="url(#SVGID_10_)" fill="#004D86" d="M123.042,395.143c-25.148-0.585-49.795-3.642-57.538-4.678
			c-0.281,5.421-0.864,13.012-0.864,13.012l-3.034,6.068c0,0,34.387,9.103,63.719,9.103c29.33,0,45.512-5.056,45.512-5.056
			l-0.728-19.642C164.117,394.49,147.378,395.709,123.042,395.143"/>
		<path clip-path="url(#SVGID_10_)" fill="#004D86" d="M679.73,390.667c-9.111,1.186-32.344,3.926-56.006,4.477
			c-26.898,0.625-44.522-0.93-48.604-1.339l-0.733,19.788c0,0,16.184,5.057,45.513,5.057c29.331,0,63.719-9.103,63.719-9.103
			l-3.033-6.068C680.585,403.477,680.015,396.072,679.73,390.667"/>
	</g>
	<g clip-path="url(#SVGID_2_)">
		<defs>
			<rect id="SVGID_11_" x="7" y="56" width="730.395" height="945.217"/>
		</defs>
		<clipPath id="SVGID_12_">
			<use xlink:href="#SVGID_11_"  overflow="visible"/>
		</clipPath>
		<g opacity="0.35" clip-path="url(#SVGID_12_)">
			<g>
				<defs>
					<rect id="SVGID_13_" x="64.505" y="98.758" width="616.219" height="877.25"/>
				</defs>
				<clipPath id="SVGID_14_">
					<use xlink:href="#SVGID_13_"  overflow="visible"/>
				</clipPath>
				<path clip-path="url(#SVGID_14_)" fill="none" stroke="#FFCD72" stroke-miterlimit="10" stroke-dasharray="0.859,0.5" d="
					M178.928,832.313c0,0,52.593,100.129,98.107,119.346c45.512,19.217,130.471,18.204,164.858,9.102
					c34.387-9.102,67.763-36.409,78.889-52.592s47.536-76.867,47.536-76.867"/>
				<path clip-path="url(#SVGID_14_)" fill="none" stroke="#FFCD72" stroke-miterlimit="10" stroke-dasharray="0.859,0.5" d="
					M178.928,840.674c0,0,52.593,100.129,98.107,119.346c45.512,19.217,130.471,18.205,164.858,9.103
					c34.387-9.103,67.763-36.411,78.889-52.594c11.126-16.182,47.536-76.866,47.536-76.866"/>
				<path clip-path="url(#SVGID_14_)" fill="none" stroke="#FFCD72" stroke-miterlimit="10" stroke-dasharray="0.859,0.5" d="
					M64.615,398.509c0,0,27.5,5.155,55.857,5.155c28.358,0,50.128-2.292,50.128-2.292"/>
				<path clip-path="url(#SVGID_14_)" fill="none" stroke="#FFCD72" stroke-miterlimit="10" stroke-dasharray="0.859,0.5" d="
					M64.615,393.731c0,0,27.5,5.156,55.857,5.156c28.358,0,50.128-2.292,50.128-2.292"/>
				<path clip-path="url(#SVGID_14_)" fill="none" stroke="#FFCD72" stroke-miterlimit="10" stroke-dasharray="0.859,0.5" d="
					M680.613,398.509c0,0-27.498,5.155-55.856,5.155c-28.357,0-50.128-2.292-50.128-2.292"/>
				<path clip-path="url(#SVGID_14_)" fill="none" stroke="#FFCD72" stroke-miterlimit="10" stroke-dasharray="0.859,0.5" d="
					M680.613,393.731c0,0-27.498,5.156-55.856,5.156c-28.357,0-50.128-2.292-50.128-2.292"/>
				<path clip-path="url(#SVGID_14_)" fill="none" stroke="#FFCD72" stroke-miterlimit="10" stroke-dasharray="0.859,0.5" d="
					M292.992,106.684c0,0,47.477-7.827,82.955-7.304c35.478,0.521,76.171,6.783,76.171,6.783"/>
				<path clip-path="url(#SVGID_14_)" fill="none" stroke="#FFCD72" stroke-miterlimit="10" stroke-dasharray="0.859,0.5" d="
					M276.454,115.52c0,0,64.014-10.69,99.493-10.168c35.478,0.521,91.069,8.212,91.069,8.212"/>
				<path clip-path="url(#SVGID_14_)" fill="none" stroke="#FFCD72" stroke-miterlimit="10" stroke-dasharray="0.859,0.5" d="
					M171.586,390.21c0,0,0.262-5.949,0.262-18.085c0-12.138-10.113-33.378-15.171-61.696
					c-5.057-28.319-20.927-81.679-19.917-109.999"/>
				<path clip-path="url(#SVGID_14_)" fill="none" stroke="#FFCD72" stroke-miterlimit="10" stroke-dasharray="0.859,0.5" d="
					M603.683,197.491c0,0,3.07,16.854-4.01,38.093c-7.08,21.241-19.218,108.221-22.251,129.461
					c-3.035,21.238-7.08,46.524-7.08,46.524"/>
			</g>
		</g>
	</g>
	<g clip-path="url(#SVGID_2_)">
		<defs>
			<rect id="SVGID_15_" x="7" y="56" width="730.395" height="945.217"/>
		</defs>
		<clipPath id="SVGID_16_">
			<use xlink:href="#SVGID_15_"  overflow="visible"/>
		</clipPath>
		<path clip-path="url(#SVGID_16_)" d="M386.055,121.701c5.881,0,10.646,5.102,10.646,11.39c0,6.291-4.765,11.392-10.646,11.392
			h-20.648c-5.876,0-10.646-5.101-10.646-11.392c0-6.288,4.77-11.39,10.646-11.39H386.055"/>
		<path clip-path="url(#SVGID_16_)" fill="none" stroke="#000000" stroke-width="6.078" d="M386.055,121.701
			c5.881,0,10.646,5.102,10.646,11.39c0,6.291-4.765,11.392-10.646,11.392h-20.648c-5.876,0-10.646-5.101-10.646-11.392
			c0-6.288,4.77-11.39,10.646-11.39H386.055"/>
		<path clip-path="url(#SVGID_16_)" d="M385.259,123.524c5.344,0,9.671,4.282,9.671,9.567c0,5.287-4.328,9.57-9.674,9.57h-18.753
			c-5.335,0-9.667-4.283-9.667-9.57c0-5.285,4.331-9.567,9.667-9.567H385.259"/>
		<path clip-path="url(#SVGID_16_)" fill="none" stroke="#FFFFFF" stroke-width="0.658" d="M385.259,123.524
			c5.344,0,9.671,4.282,9.671,9.567c0,5.287-4.328,9.57-9.674,9.57h-18.753c-5.335,0-9.667-4.283-9.667-9.57
			c0-5.285,4.331-9.567,9.667-9.567H385.259"/>
		<path clip-path="url(#SVGID_16_)" fill="#FFFFFF" d="M359.365,133.032c0-3.988,2.957-7.255,6.7-7.518v15.035
			C362.322,140.287,359.365,137.016,359.365,133.032"/>
		<polygon clip-path="url(#SVGID_16_)" fill="#FFFFFF" points="373.497,132.045 367.249,125.495 373.497,125.495 		"/>
		<polygon clip-path="url(#SVGID_16_)" fill="#FFFFFF" points="373.497,134.016 367.249,140.569 373.497,140.569 		"/>
		<polygon clip-path="url(#SVGID_16_)" fill="#FFFFFF" points="381.34,132.045 387.594,125.495 381.34,125.495 		"/>
		<polygon clip-path="url(#SVGID_16_)" fill="#FFFFFF" points="381.34,134.016 387.594,140.569 381.34,140.569 		"/>
		<rect x="374.826" y="125.495" clip-path="url(#SVGID_16_)" fill="#FFFFFF" width="5.188" height="15.073"/>
		<path clip-path="url(#SVGID_16_)" fill="#FFFFFF" d="M365.492,119.921v0.921h0.869v-0.31l0.319,0.066v0.174
			c0,0.271-0.077,0.343-0.343,0.343h-0.824c-0.265,0-0.343-0.072-0.343-0.343v-0.77c0-0.271,0.078-0.342,0.343-0.342h0.824
			c0.266,0,0.343,0.071,0.343,0.342v0.14l-0.319,0.054v-0.276H365.492z"/>
		<path clip-path="url(#SVGID_16_)" fill="#FFFFFF" d="M367.531,119.661h1.023c0.26,0,0.343,0.072,0.343,0.341v0.77
			c0,0.271-0.083,0.344-0.343,0.344h-1.023c-0.264,0-0.347-0.073-0.347-0.344v-0.77
			C367.185,119.733,367.267,119.661,367.531,119.661 M368.573,119.921h-1.063v0.921h1.063V119.921z"/>
		<path clip-path="url(#SVGID_16_)" fill="#FFFFFF" d="M369.438,119.661h0.263l0.65,0.881l0.644-0.881h0.259v1.455h-0.298v-0.9
			c0-0.027,0-0.079,0.005-0.154c-0.023,0.065-0.054,0.119-0.08,0.152l-0.518,0.726h-0.067l-0.52-0.729
			c-0.035-0.047-0.061-0.093-0.083-0.15c0.006,0.061,0.009,0.111,0.009,0.154v0.9h-0.263V119.661z"/>
		<path clip-path="url(#SVGID_16_)" fill="#FFFFFF" d="M371.793,119.662h1.188c0.213,0,0.315,0.078,0.315,0.281v0.325
			c0,0.202-0.102,0.282-0.315,0.282h-0.867v0.567h-0.321V119.662z M372.114,119.913v0.384h0.726c0.098,0,0.141-0.019,0.141-0.115
			v-0.153c0-0.095-0.043-0.116-0.141-0.116H372.114z"/>
		<path clip-path="url(#SVGID_16_)" fill="#FFFFFF" d="M373.658,119.662h1.182c0.217,0,0.316,0.078,0.316,0.281v0.343
			c0,0.202-0.099,0.282-0.316,0.282h-0.178l0.636,0.549h-0.458l-0.56-0.549h-0.3v0.549h-0.322V119.662z M373.979,119.913v0.405
			h0.721c0.103,0,0.142-0.021,0.142-0.115v-0.173c0-0.095-0.039-0.116-0.142-0.116H373.979z"/>
		<polygon clip-path="url(#SVGID_16_)" fill="#FFFFFF" points="375.676,119.661 377.094,119.661 377.094,119.909 375.999,119.909 
			375.999,120.233 376.638,120.233 376.638,120.482 375.999,120.482 375.999,120.843 377.112,120.843 377.112,121.116 
			375.676,121.116 		"/>
		<path clip-path="url(#SVGID_16_)" fill="#FFFFFF" d="M377.87,119.913v0.315h0.861c0.263,0,0.345,0.069,0.345,0.343v0.202
			c0,0.27-0.082,0.344-0.345,0.344h-0.855c-0.258,0-0.346-0.074-0.346-0.344v-0.043l0.286-0.058v0.17h0.979v-0.333h-0.865
			c-0.26,0-0.343-0.073-0.343-0.345v-0.161c0-0.27,0.083-0.341,0.343-0.341h0.788c0.247,0,0.342,0.068,0.342,0.318v0.031
			l-0.282,0.069v-0.167H377.87z"/>
		<path clip-path="url(#SVGID_16_)" fill="#FFFFFF" d="M379.903,119.913v0.315h0.867c0.26,0,0.348,0.069,0.348,0.343v0.202
			c0,0.27-0.087,0.344-0.348,0.344h-0.855c-0.261,0-0.345-0.074-0.345-0.344v-0.043l0.284-0.058v0.17h0.979v-0.333h-0.866
			c-0.254,0-0.344-0.073-0.344-0.345v-0.161c0-0.27,0.089-0.341,0.344-0.341h0.788c0.247,0,0.342,0.068,0.342,0.318v0.031
			l-0.282,0.069v-0.167H379.903z"/>
		<rect x="381.653" y="119.661" clip-path="url(#SVGID_16_)" fill="#FFFFFF" width="0.327" height="1.455"/>
		<path clip-path="url(#SVGID_16_)" fill="#FFFFFF" d="M382.864,119.661h1.02c0.266,0,0.35,0.072,0.35,0.341v0.77
			c0,0.271-0.083,0.344-0.35,0.344h-1.02c-0.26,0-0.342-0.073-0.342-0.344v-0.77C382.522,119.733,382.604,119.661,382.864,119.661
			 M383.909,119.921h-1.07v0.921h1.07V119.921z"/>
		<path clip-path="url(#SVGID_16_)" fill="#FFFFFF" d="M384.771,119.661h0.222l0.977,0.855c0.057,0.051,0.106,0.099,0.156,0.16
			c-0.005-0.121-0.011-0.207-0.011-0.249v-0.767h0.287v1.455h-0.217l-1.019-0.9c-0.041-0.035-0.079-0.072-0.118-0.118
			c0.014,0.113,0.014,0.188,0.014,0.231v0.787h-0.292V119.661z"/>
		<path clip-path="url(#SVGID_16_)" fill="#FFFFFF" d="M371.867,145.372v0.922h1.004v-0.324h-0.526v-0.25h0.843v0.5
			c0,0.274-0.084,0.345-0.345,0.345h-0.957c-0.262,0-0.345-0.071-0.345-0.345v-0.763c0-0.276,0.083-0.344,0.345-0.344h0.957
			c0.253,0,0.345,0.067,0.345,0.328v0.032l-0.317,0.062v-0.164H371.867z"/>
		<polygon clip-path="url(#SVGID_16_)" fill="#FFFFFF" points="373.735,145.114 375.154,145.114 375.154,145.362 374.06,145.362 
			374.06,145.688 374.696,145.688 374.696,145.933 374.06,145.933 374.06,146.294 375.168,146.294 375.168,146.566 373.735,146.566 
					"/>
		<path clip-path="url(#SVGID_16_)" fill="#FFFFFF" d="M376.151,145.115h0.311l0.793,1.451h-0.362l-0.167-0.317h-0.877l-0.162,0.317
			h-0.322L376.151,145.115z M376.591,145.987l-0.297-0.592l-0.306,0.592H376.591z"/>
		<path clip-path="url(#SVGID_16_)" fill="#FFFFFF" d="M377.57,145.115h1.183c0.217,0,0.313,0.078,0.313,0.28v0.341
			c0,0.202-0.095,0.281-0.313,0.281h-0.177l0.635,0.549h-0.463l-0.557-0.549h-0.308v0.549h-0.313V145.115z M377.884,145.363v0.407
			h0.726c0.097,0,0.143-0.02,0.143-0.115v-0.175c0-0.096-0.046-0.117-0.143-0.117H377.884z"/>
		<path clip-path="url(#SVGID_16_)" fill="#FFFFFF" d="M381.04,144.853c0.181,0.188,0.281,0.445,0.281,0.714
			c0,0.276-0.097,0.525-0.284,0.714c-0.191,0.195-0.431,0.301-0.684,0.301c-0.257,0-0.498-0.106-0.682-0.305
			c-0.184-0.195-0.283-0.441-0.283-0.71s0.102-0.526,0.291-0.727c0.176-0.188,0.414-0.286,0.674-0.286
			C380.616,144.553,380.857,144.658,381.04,144.853 M380.953,144.947c-0.158-0.172-0.366-0.26-0.594-0.26
			c-0.229,0-0.438,0.083-0.59,0.25c-0.164,0.173-0.255,0.396-0.255,0.629c0,0.232,0.089,0.45,0.243,0.616
			c0.164,0.174,0.375,0.263,0.589,0.263c0.229,0,0.435-0.089,0.603-0.261c0.161-0.16,0.244-0.376,0.244-0.61
			C381.191,145.33,381.113,145.11,380.953,144.947 M380.836,145.288c0,0.163-0.092,0.275-0.25,0.31l0.243,0.522h-0.233l-0.219-0.49
			h-0.204v0.49h-0.206v-1.147h0.412C380.688,144.972,380.836,145.079,380.836,145.288 M380.173,145.114v0.38h0.172
			c0.189,0,0.274-0.049,0.274-0.182c0-0.146-0.085-0.198-0.281-0.198H380.173z"/>
	</g>
	<g clip-path="url(#SVGID_2_)">
		<defs>
			<rect id="SVGID_17_" x="7" y="56" width="730.395" height="945.217"/>
		</defs>
		<clipPath id="SVGID_18_">
			<use xlink:href="#SVGID_17_"  overflow="visible"/>
		</clipPath>
		<g opacity="0.12" clip-path="url(#SVGID_18_)">
			<g>
				<defs>
					<rect id="SVGID_19_" x="68.95" y="249.229" width="584.909" height="444.218"/>
				</defs>
				<clipPath id="SVGID_20_">
					<use xlink:href="#SVGID_19_"  overflow="visible"/>
				</clipPath>
				<path clip-path="url(#SVGID_20_)" fill="#897F76" d="M166.741,370.917c0,0-18.381-3.308-31.617-7.72
					c-13.234-4.413-25.367-7.72-35.66-16.911c-10.293-9.19-30.513-33.455-30.513-33.455s35.66,30.882,38.602,33.823
					C110.494,349.595,166.741,370.917,166.741,370.917"/>
				<path clip-path="url(#SVGID_20_)" fill="#897F76" d="M151.3,356.579l-22.426-10.661l-3.676-8.088
					c0,0,26.102,18.749,23.162,13.603c-2.94-5.147-39.337-46.69-45.956-55.146c-6.616-8.456-22.424-26.47-22.424-26.47
					s19.484,12.866,21.69,17.279c2.206,4.412,37.131,47.056,41.174,52.203c4.045,5.146,14.706,13.971,13.971,15.809
					C156.08,356.947,151.3,356.579,151.3,356.579"/>
				<path clip-path="url(#SVGID_20_)" fill="#897F76" d="M125.566,351.432c0,0-24.999-26.102-29.042-30.881
					c-4.045-4.779-20.956-18.015-20.956-18.015l31.617,34.558L125.566,351.432z"/>
				<path clip-path="url(#SVGID_20_)" fill="#897F76" d="M155.345,335.256c0,0-7.353-19.118-11.029-27.574
					c-3.677-8.454-9.927-40.806-16.175-40.071c-6.251,0.735-2.207,13.602,2.205,22.792c4.412,9.192,9.191,16.544,9.191,16.544
					s-10.661-3.676-16.912-13.602c-6.249-9.926-20.955-43.381-24.999-42.278c-4.044,1.103,2.573,19.117,9.19,29.778
					c6.617,10.662,22.794,26.102,31.25,34.558C146.521,323.86,155.345,335.256,155.345,335.256"/>
				<path clip-path="url(#SVGID_20_)" fill="#897F76" d="M578.125,342.241c0,0,17.279-32.352,27.94-50.367
					c10.662-18.013,30.146-42.646,30.146-42.646s-32.353,56.984-34.19,59.19S578.125,342.241,578.125,342.241"/>
				<path clip-path="url(#SVGID_20_)" fill="#897F76" d="M594.669,321.653c0,0,13.235-19.484,27.94-31.25
					c14.705-11.764,31.25-18.014,31.25-18.014s-22.059,11.765-33.456,26.469c-11.396,14.707-30.88,36.765-33.822,45.221
					c-2.94,8.455-2.206,18.013-2.206,18.013s8.824-2.205,5.148,1.104c-3.678,3.31,2.94,11.765-2.207,13.603
					c-5.146,1.837-8.087,2.573-8.087,4.778c0,2.207-7.353-1.471-7.353-1.471s4.042-29.411,5.513-32.72
					C578.861,344.08,594.669,321.653,594.669,321.653"/>
				<path clip-path="url(#SVGID_20_)" fill="#897F76" d="M590.258,350.329c0,0-0.367-12.867,9.19-16.911
					c9.56-4.044,19.853-5.515,27.94-9.559c8.088-4.043,13.604-8.823,13.604-8.823s-10.295,13.97-23.162,18.382
					c-12.866,4.412-17.646,4.412-20.587,8.088C594.301,345.183,590.258,350.329,590.258,350.329"/>
				<path clip-path="url(#SVGID_20_)" fill="#897F76" d="M232.034,683.303c0,0,93.686-20.289,134.86-19.097
					c41.174,1.194,146.198,29.241,146.198,29.241s-75.188-19.692-140.828-20.289C306.625,672.561,232.034,683.303,232.034,683.303"
					/>
			</g>
		</g>
	</g>
</g>
</svg>
