<?xml version="1.0" encoding="utf-8"?>
<!-- Generator: Adobe Illustrator 16.0.0, SVG Export Plug-In . SVG Version: 6.00 Build 0)  -->
<!DOCTYPE svg PUBLIC "-//W3C//DTD SVG 1.1//EN" "http://www.w3.org/Graphics/SVG/1.1/DTD/svg11.dtd">
<svg version="1.1" id="Layer_1" xmlns="http://www.w3.org/2000/svg" xmlns:xlink="http://www.w3.org/1999/xlink" x="0px" y="0px"
	 width="612px" height="792px" viewBox="0 0 470 792" enable-background="new 0 0 612 792" xml:space="preserve">
<rect x="145.13" y="53.784" fill="none" width="136.172" height="537.09"/>
<rect x="105.654" y="158.2" fill="none" width="62.475" height="89.699"/>
<rect x="113.681" y="149.824" fill="none" width="27.224" height="31.412"/>
<rect x="441.064" y="168.671" fill="none" width="63.521" height="63.871"/>
<rect x="446.997" y="221.723" fill="none" width="50.608" height="20.812"/>
<rect x="452.59" y="175.209" fill="none" width="37.337" height="36.357"/>
<rect x="235.677" y="69.237" fill="none" width="137.986" height="24.583"/>
<rect x="92.413" y="246.769" fill="none" width="73.87" height="9.765"/>
<rect x="92.413" y="249.965" fill="none" width="73.87" height="9.764"/>
<rect x="167.048" y="561.172" fill="none" width="270.258" height="26.68"/>
<rect x="166.163" y="563.765" fill="none" width="272.823" height="28.082"/>
<rect x="233.835" y="70.94" fill="none" width="141.974" height="25.672"/>
<rect x="61.693" fill="none" width="488.613" height="632.322"/>
<g>
	<defs>
		<rect id="SF_SVGID_1_" x="60.25" y="86.105" width="490.057" height="634.19"/>
	</defs>
	<clipPath id="SF_SVGID_2_">
		<use xlink:href="#SF_SVGID_1_"  overflow="visible"/>
	</clipPath>
	<g clip-path="url(#SF_SVGID_2_)">
		<defs>
			<rect id="SF_SVGID_3_" x="60.25" y="86.105" width="490.057" height="634.19"/>
		</defs>
		<clipPath id="SF_SVGID_4_">
			<use xlink:href="#SF_SVGID_3_"  overflow="visible"/>
		</clipPath>
    <g id="MASK">
      <g id="BODY">
        <path clip-path="url(#SF_SVGID_4_)" fill="#FDBB2D" d="M458.981,199.131c0,0-18.323-6.107-44.109-16.286
			c-16.277-6.424-30.654-16.091-39.903-23.032c-4.583,4.998-23.749,22.329-69.457,22.781c-45.321,0.45-67.148-18.937-72.956-25.13
			c-8.931,6.946-24.764,18.193-42.979,25.381c-25.786,10.179-44.108,16.286-44.108,16.286s-0.6,0.435-1.535,1.081v0.004
			c0.011,0.519,0.025,1.092,0.043,1.705c0.001,0.048,0.003,0.098,0.005,0.149c0.008,0.286,0.017,0.582,0.028,0.884
			c0.001,0.018,0.001,0.036,0.001,0.053c0.012,0.317,0.024,0.645,0.038,0.978c0.002,0.064,0.004,0.131,0.007,0.197
			c0.012,0.268,0.023,0.54,0.035,0.817c0.004,0.084,0.007,0.167,0.012,0.253c0.016,0.338,0.032,0.682,0.05,1.029
			c0.002,0.045,0.004,0.091,0.006,0.134c0.017,0.302,0.033,0.606,0.051,0.913c0.007,0.108,0.013,0.216,0.019,0.325
			c0.017,0.291,0.036,0.584,0.055,0.879c0.005,0.069,0.009,0.136,0.014,0.205c0.023,0.355,0.049,0.714,0.076,1.073
			c0.007,0.097,0.015,0.193,0.021,0.29c0.022,0.276,0.043,0.55,0.065,0.825c0.01,0.109,0.019,0.219,0.028,0.327
			c0.03,0.358,0.061,0.716,0.096,1.073c0.003,0.039,0.007,0.08,0.011,0.119c0.031,0.32,0.063,0.638,0.097,0.956
			c0.011,0.107,0.023,0.213,0.035,0.32c0.031,0.281,0.063,0.561,0.096,0.837c0.009,0.08,0.019,0.158,0.028,0.238
			c0.042,0.343,0.086,0.682,0.132,1.016c0.011,0.082,0.023,0.161,0.035,0.241c0.037,0.265,0.076,0.525,0.116,0.781
			c0.013,0.094,0.028,0.186,0.043,0.279c0.052,0.323,0.106,0.643,0.162,0.953c1.444,7.945,9.39,37.197,11.195,45.865
			c1.805,8.667,10.112,54.531,11.195,59.949c0.074,0.37,0.141,0.761,0.202,1.163c0.005,0.033,0.01,0.068,0.015,0.101
			c0.057,0.376,0.107,0.762,0.153,1.157c0.006,0.043,0.011,0.083,0.016,0.126c0.045,0.399,0.085,0.806,0.122,1.217
			c0.002,0.029,0.005,0.058,0.008,0.089c0.038,0.438,0.07,0.881,0.099,1.323c0.001,0.008,0.001,0.014,0.001,0.02
			c0.028,0.438,0.051,0.876,0.07,1.311c0.002,0.035,0.003,0.07,0.005,0.107c0.018,0.411,0.033,0.818,0.045,1.219
			c0.001,0.035,0.002,0.072,0.003,0.107c0.011,0.417,0.021,0.826,0.027,1.221c0,0.008,0,0.014,0,0.021
			c0.007,0.415,0.012,0.816,0.013,1.2c0.021-0.055,0.034-0.086,0.034-0.086s4.072,21.715,3.393,30.535
			c-0.678,8.823,4.071,63.788,7.465,80.754c3.391,16.964,7.463,60.394,4.071,78.717c-3.394,18.321-11.537,67.182-13.573,88.219
			c-2.036,21.036-2.036,36.645-2.036,36.645s-2.714,2.713-2.714,5.43c0,2.712,1.358,8.82,1.358,8.82v4.75
			c0,0,1.356,10.179,29.179,12.215c27.822,2.036,61.074,2.714,71.253,4.752c2.648,0.529,5.941,1.057,9.517,1.552l-0.016,0.482
			c0,0,13.571,2.035,22.393,2.035c1,0,2.145-0.027,3.393-0.075c1.249,0.048,2.394,0.075,3.393,0.075
			c8.821,0,22.394-2.035,22.394-2.035l-0.017-0.482c3.576-0.495,6.87-1.022,9.518-1.552c10.179-2.038,43.431-2.716,71.252-4.752
			c27.823-2.036,29.18-12.215,29.18-12.215v-4.75c0,0,1.358-6.108,1.358-8.82c0-2.717-2.715-5.43-2.715-5.43s0-15.608-2.036-36.645
			c-2.035-21.037-10.179-69.897-13.572-88.219c-3.393-18.323,0.68-61.753,4.072-78.717c3.393-16.966,8.144-71.931,7.465-80.754
			c-0.584-7.589,2.346-24.707,3.177-29.345c-0.017-3.116,0.088-8.033,0.779-11.486c1.083-5.417,9.389-51.282,11.193-59.949
			c1.806-8.667,9.751-37.92,11.196-45.865c1.02-5.606,1.318-13.726,1.407-18.022C459.474,199.489,458.981,199.131,458.981,199.131"
			/>
      </g>
    </g>
   <g id="CUSTOM"></g>   		
	</g>
	<g id="SLEEVES" clip-path="url(#SF_SVGID_2_)">
		<defs>
			<rect id="SF_SVGID_5_" x="60.25" y="86.105" width="490.057" height="634.19"/>
		</defs>
		<clipPath id="SF_SVGID_6_">
			<use xlink:href="#SF_SVGID_5_"  overflow="visible"/>
		</clipPath>
		<path clip-path="url(#SF_SVGID_6_)" fill="#FDBB2D" d="M452.301,298.294c-0.005,0.024-0.008,0.035-0.008,0.035
			S452.297,298.313,452.301,298.294"/>
		<path clip-path="url(#SF_SVGID_6_)" fill="#FDBB2D" d="M168.494,333.059c0-0.007,0-0.013,0-0.021
			c-0.006-0.396-0.016-0.804-0.028-1.221c-0.001-0.035-0.002-0.072-0.003-0.107c-0.013-0.401-0.027-0.808-0.045-1.219
			c-0.002-0.037-0.003-0.072-0.005-0.107c-0.02-0.434-0.042-0.873-0.071-1.311c0-0.006,0-0.012,0-0.018
			c-0.029-0.444-0.062-0.886-0.1-1.325c-0.002-0.029-0.005-0.06-0.008-0.089c-0.036-0.411-0.076-0.818-0.121-1.217
			c-0.004-0.041-0.009-0.083-0.015-0.126c-0.046-0.396-0.097-0.781-0.153-1.157c-0.005-0.033-0.01-0.068-0.015-0.101
			c-0.061-0.401-0.128-0.792-0.203-1.163c-1.083-5.417-9.39-51.282-11.195-59.949c-1.805-8.667-9.751-37.92-11.195-45.865
			c-0.057-0.31-0.11-0.629-0.162-0.953c-0.015-0.093-0.029-0.185-0.043-0.279c-0.041-0.256-0.079-0.517-0.115-0.782
			c-0.011-0.08-0.024-0.159-0.035-0.241c-0.046-0.334-0.091-0.673-0.132-1.016c-0.01-0.079-0.019-0.158-0.028-0.238
			c-0.034-0.276-0.065-0.556-0.096-0.837c-0.012-0.106-0.023-0.213-0.036-0.32c-0.033-0.318-0.065-0.636-0.096-0.956
			c-0.004-0.039-0.008-0.079-0.012-0.119c-0.034-0.357-0.065-0.715-0.096-1.073c-0.01-0.108-0.019-0.218-0.027-0.327
			c-0.023-0.275-0.045-0.549-0.066-0.825c-0.007-0.097-0.015-0.193-0.022-0.29c-0.027-0.36-0.051-0.717-0.076-1.074
			c-0.005-0.068-0.008-0.136-0.013-0.205c-0.019-0.294-0.038-0.588-0.055-0.879c-0.006-0.109-0.013-0.216-0.019-0.325
			c-0.018-0.307-0.034-0.611-0.05-0.913c-0.003-0.043-0.005-0.089-0.007-0.134c-0.018-0.348-0.034-0.69-0.05-1.029
			c-0.004-0.086-0.008-0.169-0.012-0.253c-0.012-0.277-0.022-0.549-0.034-0.817c-0.002-0.066-0.005-0.133-0.008-0.197
			c-0.013-0.333-0.025-0.661-0.036-0.978c-0.001-0.017-0.002-0.035-0.002-0.052c-0.01-0.304-0.02-0.599-0.028-0.885
			c-0.002-0.05-0.003-0.1-0.004-0.149c-0.018-0.613-0.033-1.186-0.044-1.705v-0.004c-2.398,1.653-7.071,4.729-10.001,5.706
			c-4.071,1.357-27.143,19.001-33.93,42.752c-6.786,23.749-8.143,82.111-8.143,82.111l-2.036,10.179l-2.036,6.107
			c0,0,23.75,6.107,44.109,7.464c20.358,1.357,33.25,1.357,33.25,1.357s1.358-1.357,0.679-5.429
			c-0.679-4.072-1.356-5.429-0.679-7.464c0.635-1.902,3.047-7.955,3.36-8.736C168.504,333.875,168.5,333.474,168.494,333.059"/>
		<path clip-path="url(#SF_SVGID_6_)" fill="#FDBB2D" d="M514.626,340.958l-2.035-10.177c0,0-1.358-58.362-8.145-82.111
			c-6.785-23.751-29.858-41.395-33.93-42.752c-3.03-1.01-7.936-4.273-10.248-5.877c-0.089,4.296-0.388,12.416-1.407,18.022
			c-1.445,7.945-9.391,37.197-11.196,45.865c-1.805,8.667-10.11,54.531-11.193,59.947c-0.691,3.455-0.795,8.374-0.779,11.488
			c0.135-0.753,0.216-1.192,0.216-1.192s2.715,6.787,3.394,8.824c0.679,2.035,0,3.392-0.679,7.464
			c-0.68,4.072,0.679,5.429,0.679,5.429s12.894,0,33.251-1.357c20.359-1.357,44.108-7.466,44.108-7.466L514.626,340.958z"/>
	</g>
	<g id="CROTCH" clip-path="url(#SF_SVGID_2_)">
		<defs>
			<rect id="SF_SVGID_7_" x="60.25" y="86.105" width="490.057" height="634.19"/>
		</defs>
		<clipPath id="SF_SVGID_8_">
			<use xlink:href="#SF_SVGID_7_"  overflow="visible"/>
		</clipPath>
		<!--<path clip-path="url(#SF_SVGID_8_)" fill="#004D86" d="M165.147,342.995c0.188-0.563,0.532-1.49,0.929-2.532
			c-4.627-0.288-15.596-1.022-31.028-2.394c-15.157-1.347-34.11-5.026-43.264-6.921l-1.961,9.811l-2.036,6.107
			c0,0,23.75,6.107,44.109,7.464c20.357,1.357,33.25,1.357,33.25,1.357s1.357-1.357,0.679-5.429
			C165.147,346.387,164.468,345.03,165.147,342.995"/>
		<path clip-path="url(#SF_SVGID_8_)" fill="#004D86" d="M514.626,340.958l-2.033-10.165c-8.296,1.743-28.804,5.838-44.98,7.275
			c-13.741,1.223-23.943,1.938-29.282,2.284c0.416,1.088,0.777,2.06,0.972,2.643c0.679,2.035,0,3.392-0.679,7.464
			c-0.68,4.072,0.679,5.429,0.679,5.429s12.894,0,33.251-1.357c20.359-1.357,44.108-7.466,44.108-7.466L514.626,340.958z"/>-->
	</g>
	<g id="COLLAR" clip-path="url(#SF_SVGID_2_)">
		<defs>
			<rect id="SF_SVGID_9_" x="60.25" y="86.105" width="490.057" height="634.19"/>
		</defs>
		<clipPath id="SF_SVGID_10_">
			<use xlink:href="#SF_SVGID_9_"  overflow="visible"/>
		</clipPath>
		<path clip-path="url(#SF_SVGID_10_)" fill="#004D86" d="M305.513,182.594c45.708-0.452,64.873-17.783,69.456-22.78
			c-5.405-4.055-9.063-7.183-10.313-8.184c-3.393-2.715-3.393-4.75-6.786-6.786c-3.394-2.036-4.75-8.143-11.535-11.535
			c-4.32-2.16-23.756-2.945-37.317-3.231l-0.007-0.164c0,0-2.667,0-6.785,0.051c-4.119-0.051-6.787-0.051-6.787-0.051l-0.005,0.164
			c-13.562,0.286-32.998,1.071-37.317,3.231c-6.786,3.392-8.144,9.5-11.537,11.535c-3.393,2.036-3.393,4.071-6.786,6.786
			c-0.997,0.797-3.524,2.947-7.236,5.834C238.365,163.657,260.191,183.043,305.513,182.594"/>
    	<path clip-path="url(#SF_SVGID_8_)" fill="#004D86" d="M165.147,342.995c0.188-0.563,0.532-1.49,0.929-2.532
			c-4.627-0.288-15.596-1.022-31.028-2.394c-15.157-1.347-34.11-5.026-43.264-6.921l-1.961,9.811l-2.036,6.107
			c0,0,23.75,6.107,44.109,7.464c20.357,1.357,33.25,1.357,33.25,1.357s1.357-1.357,0.679-5.429
			C165.147,346.387,164.468,345.03,165.147,342.995"/>
		<path clip-path="url(#SF_SVGID_8_)" fill="#004D86" d="M514.626,340.958l-2.033-10.165c-8.296,1.743-28.804,5.838-44.98,7.275
			c-13.741,1.223-23.943,1.938-29.282,2.284c0.416,1.088,0.777,2.06,0.972,2.643c0.679,2.035,0,3.392-0.679,7.464
			c-0.68,4.072,0.679,5.429,0.679,5.429s12.894,0,33.251-1.357c20.359-1.357,44.108-7.466,44.108-7.466L514.626,340.958z"/>
	</g>
	<g clip-path="url(#SF_SVGID_2_)">
		<defs>
			<rect id="SF_SVGID_11_" x="60.25" y="86.105" width="490.057" height="634.19"/>
		</defs>
		<clipPath id="SF_SVGID_12_">
			<use xlink:href="#SF_SVGID_11_"  overflow="visible"/>
		</clipPath>
		<g opacity="0.35" clip-path="url(#SF_SVGID_12_)">
			<g>
				<defs>
					<rect id="SF_SVGID_13_" x="234.748" y="155.546" width="138.395" height="24.654"/>
				</defs>
				<clipPath id="SF_SVGID_14_">
					<use xlink:href="#SF_SVGID_13_"  overflow="visible"/>
				</clipPath>
				<path clip-path="url(#SF_SVGID_14_)" fill="none" stroke="#FFD281" stroke-miterlimit="10" stroke-dasharray="0.859,0.859" d="
					M372.808,158.438c0,0-13.84,20.824-67.263,21.354c-53.917,0.533-70.466-24.023-70.466-24.023"/>
			</g>
		</g>
		<g opacity="0.35" clip-path="url(#SF_SVGID_12_)">
			<g>
				<defs>
					<rect id="SF_SVGID_15_" x="91.06" y="333.602" width="74.088" height="9.793"/>
				</defs>
				<clipPath id="SF_SVGID_16_">
					<use xlink:href="#SF_SVGID_15_"  overflow="visible"/>
				</clipPath>
				<path clip-path="url(#SF_SVGID_16_)" fill="none" stroke="#FFD281" stroke-miterlimit="10" stroke-dasharray="0.859,0.859" d="
					M91.167,333.988c0,0,16.973,4.695,38.28,6.861c21.307,2.167,35.7,2.146,35.7,2.146"/>
			</g>
		</g>
		<g opacity="0.35" clip-path="url(#SF_SVGID_12_)">
			<g>
				<defs>
					<rect id="SF_SVGID_17_" x="91.06" y="336.808" width="74.088" height="9.793"/>
				</defs>
				<clipPath id="SF_SVGID_18_">
					<use xlink:href="#SF_SVGID_17_"  overflow="visible"/>
				</clipPath>
				<path clip-path="url(#SF_SVGID_18_)" fill="none" stroke="#FFD281" stroke-miterlimit="10" stroke-dasharray="0.859,0.859" d="
					M91.167,337.193c0,0,16.973,4.695,38.28,6.86c21.307,2.168,35.7,2.146,35.7,2.146"/>
			</g>
		</g>
		<g opacity="0.35" clip-path="url(#SF_SVGID_12_)">
			<g>
				<defs>
					<rect id="SF_SVGID_19_" x="439.77" y="333.602" width="74.088" height="9.793"/>
				</defs>
				<clipPath id="SF_SVGID_20_">
					<use xlink:href="#SF_SVGID_19_"  overflow="visible"/>
				</clipPath>
				<path clip-path="url(#SF_SVGID_20_)" fill="none" stroke="#FFD281" stroke-miterlimit="10" stroke-dasharray="0.859,0.859" d="
					M513.75,333.988c0,0-16.973,4.695-38.28,6.861c-21.306,2.167-35.699,2.146-35.699,2.146"/>
			</g>
		</g>
		<g opacity="0.35" clip-path="url(#SF_SVGID_12_)">
			<g>
				<defs>
					<rect id="SF_SVGID_21_" x="439.77" y="336.808" width="74.088" height="9.793"/>
				</defs>
				<clipPath id="SF_SVGID_22_">
					<use xlink:href="#SF_SVGID_21_"  overflow="visible"/>
				</clipPath>
				<path clip-path="url(#SF_SVGID_22_)" fill="none" stroke="#FFD281" stroke-miterlimit="10" stroke-dasharray="0.859,0.859" d="
					M513.75,337.193c0,0-16.973,4.695-38.28,6.86c-21.306,2.168-35.699,2.146-35.699,2.146"/>
			</g>
		</g>
		<g opacity="0.35" clip-path="url(#SF_SVGID_12_)">
			<g>
				<defs>
					<rect id="SF_SVGID_23_" x="165.916" y="648.933" width="271.057" height="26.759"/>
				</defs>
				<clipPath id="SF_SVGID_24_">
					<use xlink:href="#SF_SVGID_23_"  overflow="visible"/>
				</clipPath>
				<path clip-path="url(#SF_SVGID_24_)" fill="none" stroke="#FFD281" stroke-miterlimit="10" stroke-dasharray="0.859,0.859" d="
					M166.283,650.703c0,0,5.778,13.36,37.559,17.696c31.779,4.332,65.277,7.226,101.117,6.86
					c35.392-0.36,105.414-11.804,113.036-13.361c15.89-3.25,18.592-12.856,18.592-12.856"/>
			</g>
		</g>
		<g opacity="0.35" clip-path="url(#SF_SVGID_12_)">
			<g>
				<defs>
					<rect id="SF_SVGID_25_" x="165.028" y="651.532" width="273.629" height="28.167"/>
				</defs>
				<clipPath id="SF_SVGID_26_">
					<use xlink:href="#SF_SVGID_25_"  overflow="visible"/>
				</clipPath>
				<path clip-path="url(#SF_SVGID_26_)" fill="none" stroke="#FFD281" stroke-miterlimit="10" stroke-dasharray="0.859,0.859" d="
					M165.385,654.854c0,0,6.677,13.218,38.457,17.553c31.779,4.334,65.277,7.228,101.117,6.861
					c35.392-0.362,105.414-11.804,113.036-13.361c15.889-3.252,20.291-14.224,20.291-14.224"/>
			</g>
		</g>
		<g opacity="0.35" clip-path="url(#SF_SVGID_12_)">
			<g>
				<defs>
					<rect id="SF_SVGID_27_" x="435.29" y="200.04" width="25.379" height="138.299"/>
				</defs>
				<clipPath id="SF_SVGID_28_">
					<use xlink:href="#SF_SVGID_27_"  overflow="visible"/>
				</clipPath>
				<path clip-path="url(#SF_SVGID_28_)" fill="none" stroke="#FFD281" stroke-miterlimit="10" d="M460.269,200.041
					c0,0,0.036,10.077-1.407,18.022c-1.446,7.945-9.391,37.197-11.196,45.865c-1.805,8.667-10.11,54.531-11.193,59.947
					c-1.084,5.418-0.724,14.446-0.724,14.446"/>
			</g>
		</g>
		<g opacity="0.35" clip-path="url(#SF_SVGID_12_)">
			<g>
				<defs>
					<rect id="SF_SVGID_29_" x="143.533" y="200.21" width="25.375" height="138.129"/>
				</defs>
				<clipPath id="SF_SVGID_30_">
					<use xlink:href="#SF_SVGID_29_"  overflow="visible"/>
				</clipPath>
				<path clip-path="url(#SF_SVGID_30_)" fill="none" stroke="#FFD281" stroke-miterlimit="10" d="M143.933,200.211
					c0,0-0.041,9.908,1.404,17.852c1.444,7.945,9.389,37.197,11.195,45.865c1.806,8.667,10.112,54.531,11.195,59.947
					c1.083,5.418,0.722,14.446,0.722,14.446"/>
			</g>
		</g>
		<g opacity="0.35" clip-path="url(#SF_SVGID_12_)">
			<g>
				<defs>
					<rect id="SF_SVGID_31_" x="232.899" y="157.255" width="142.395" height="25.748"/>
				</defs>
				<clipPath id="SF_SVGID_32_">
					<use xlink:href="#SF_SVGID_31_"  overflow="visible"/>
				</clipPath>
				<path clip-path="url(#SF_SVGID_32_)" fill="none" stroke="#FFD281" stroke-miterlimit="10" stroke-dasharray="0.859,0.859" d="
					M374.969,159.813c0,0-16.033,22.252-69.457,22.781c-53.917,0.535-72.287-25.105-72.287-25.105"/>
			</g>
		</g>
	</g>
	<g clip-path="url(#SF_SVGID_2_)">
		<defs>
			<rect id="SF_SVGID_33_" x="60.25" y="86.105" width="490.057" height="634.19"/>
		</defs>
		<clipPath id="SF_SVGID_34_">
			<use xlink:href="#SF_SVGID_33_"  overflow="visible"/>
		</clipPath>
		<path clip-path="url(#SF_SVGID_34_)" d="M168.493,333.038c0,0.008,0,0.016,0,0.021C168.493,333.053,168.493,333.045,168.493,333.038"
			/>
		<path clip-path="url(#SF_SVGID_34_)" d="M168.506,334.259"/>
		<path clip-path="url(#SF_SVGID_34_)" fill="#FFFFFF" d="M305.546,160.574c28.025,0.267,49.38-14.147,49.111-16.549
			c-0.266-2.402-4.862-6.863-7.798-8.998c-2.938-2.136-16.896-3.562-44.923-3.409c-28.347,0.155-37.951,1.239-41.824,2.168
			c-3.874,0.929-10.25,8.002-9.449,9.604C251.464,144.993,277.684,160.308,305.546,160.574"/>
		<g opacity="0.35" clip-path="url(#SF_SVGID_34_)">
			<g>
				<defs>
					<rect id="SF_SVGID_35_" x="250.595" y="131.608" width="104.065" height="28.97"/>
				</defs>
				<clipPath id="SF_SVGID_36_">
					<use xlink:href="#SF_SVGID_35_"  overflow="visible"/>
				</clipPath>
				<g clip-path="url(#SF_SVGID_36_)">
					<defs>
						<path id="SF_SVGID_37_" d="M305.545,160.574c28.026,0.267,49.381-14.147,49.113-16.549s-4.863-6.863-7.799-8.998
							c-2.938-2.136-16.896-3.562-44.923-3.409c-28.348,0.155-37.951,1.239-41.824,2.168c-3.874,0.929-10.251,8.002-9.45,9.604
							C251.463,144.993,277.684,160.308,305.545,160.574"/>
					</defs>
					<clipPath id="SF_SVGID_38_">
						<use xlink:href="#SF_SVGID_37_"  overflow="visible"/>
					</clipPath>
					
						<radialGradient id="SF_SVGID_39_" cx="0.4927" cy="790.6777" r="0.8011" gradientTransform="matrix(102.1332 0 0 -40.5422 252.9668 32188.9707)" gradientUnits="userSpaceOnUse">
						<stop  offset="0" style="stop-color:#FFFFFF"/>
						<stop  offset="1" style="stop-color:#FFFFFF"/>
					</radialGradient>
					<rect x="249.862" y="131.465" clip-path="url(#SF_SVGID_38_)" fill="url(#SF_SVGID_39_)" width="105.064" height="29.375"/>
				</g>
				<g clip-path="url(#SF_SVGID_36_)">
					<defs>
						<path id="SF_SVGID_40_" d="M305.545,160.574c28.026,0.267,49.381-14.147,49.113-16.549s-4.863-6.863-7.799-8.998
							c-2.938-2.136-16.896-3.562-44.923-3.409c-28.348,0.155-37.951,1.239-41.824,2.168c-3.874,0.929-10.251,8.002-9.45,9.604
							C251.463,144.993,277.684,160.308,305.545,160.574"/>
					</defs>
					<clipPath id="SF_SVGID_41_">
						<use xlink:href="#SF_SVGID_40_"  overflow="visible"/>
					</clipPath>
					
						<radialGradient id="SF_SVGID_42_" cx="0.4927" cy="790.6777" r="0.8011" gradientTransform="matrix(102.1332 0 0 -40.5422 252.9668 32188.9707)" gradientUnits="userSpaceOnUse">
						<stop  offset="0" style="stop-color:#FFFFFF"/>
						<stop  offset="0.1085" style="stop-color:#EBEBEB"/>
						<stop  offset="0.3308" style="stop-color:#B7B7B7"/>
						<stop  offset="0.6481" style="stop-color:#646464"/>
						<stop  offset="1" style="stop-color:#000000"/>
					</radialGradient>
					<rect x="249.862" y="131.465" clip-path="url(#SF_SVGID_41_)" fill="url(#SF_SVGID_42_)" width="105.064" height="29.375"/>
				</g>
			</g>
		</g>
		<g opacity="0.5" clip-path="url(#SF_SVGID_34_)">
			<g>
				<defs>
					<rect id="SF_SVGID_43_" x="104.34" y="137.416" width="400.11" height="541.308"/>
				</defs>
				<clipPath id="SF_SVGID_44_">
					<use xlink:href="#SF_SVGID_43_"  overflow="visible"/>
				</clipPath>
				<g opacity="0.1" clip-path="url(#SF_SVGID_44_)">
					<g>
						<defs>
							<rect id="SF_SVGID_45_" x="339.18" y="137.416" width="121.089" height="535.898"/>
						</defs>
						<clipPath id="SF_SVGID_46_">
							<use xlink:href="#SF_SVGID_45_"  overflow="visible"/>
						</clipPath>
						<path clip-path="url(#SF_SVGID_46_)" fill="#897F76" d="M436.472,323.875c1.083-5.416,9.389-51.28,11.193-59.947
							c1.806-8.667,9.751-37.92,11.196-45.865c1.02-5.607,1.318-13.727,1.407-18.022c-0.795-0.551-1.287-0.91-1.287-0.91
							s-18.323-6.107-44.109-16.286c-25.787-10.178-46.824-28.501-50.217-31.215c-3.393-2.715-3.393-4.751-6.786-6.787
							c-2.245-1.347-3.608-4.479-6.236-7.427l-1.379,0.482c2.202,2.105,4.229,4.555,4.404,6.126
							c0.14,1.269-5.756,5.889-15.479,9.927c0.787,1.632,1.355,3.172,1.446,4.357c0.351,4.551,0,4.2,0,10.852
							c0,6.651,2.45,13.301,6.65,23.103c4.201,9.801,8.752,4.551,11.901,18.553c3.151,14.001-15.751,11.552-15.751,11.552
							s17.152,2.45,36.055,1.399c18.903-1.05,14.702,0,28.005-1.399c13.302-1.401,13.302-3.501,33.604,2.1
							c20.303,5.601,4.9,18.203,3.501,32.555c-1.4,14.351-21.703,12.252-27.654,19.952c-5.95,7.702-2.101,67.561-1.4,74.211
							c0.699,6.65-13.652,18.202-13.652,18.202s-3.85,11.204-6.3,19.604c-2.451,8.401,3.85,25.904,3.499,44.808
							c-0.35,18.9-17.503,43.755-23.452,57.406c-5.951,13.653-1.401,26.954,8.399,56.71c9.803,29.755,3.853,3.85,11.203,12.952
							c7.351,9.102,3.85,5.601,7.701,18.553c3.85,12.95,5.25,32.555,5.25,32.555s1.401,20.301,6.302,38.855
							c4.9,18.552,2.8,10.152,15.403,21.003l3.991,1.479c3.725-2.771,4.062-5.272,4.062-5.272v-4.752c0,0,1.358-6.106,1.358-8.818
							c0-2.717-2.714-5.43-2.714-5.43s0-15.608-2.037-36.645c-2.035-21.037-10.179-69.896-13.572-88.219
							c-3.393-18.323,0.68-61.751,4.072-78.717s8.144-71.931,7.465-80.754c-0.584-7.587,2.346-24.707,3.177-29.345
							C435.677,332.249,435.78,327.33,436.472,323.875"/>
					</g>
				</g>
				<g opacity="0.1" clip-path="url(#SF_SVGID_44_)">
					<g>
						<defs>
							<rect id="SF_SVGID_47_" x="143.933" y="140.048" width="136.575" height="538.676"/>
						</defs>
						<clipPath id="SF_SVGID_48_">
							<use xlink:href="#SF_SVGID_47_"  overflow="visible"/>
						</clipPath>
						<path clip-path="url(#SF_SVGID_48_)" fill="#897F76" d="M278.309,156.117c-15.673-4.734-27.121-11.676-27.645-12.725
							c-0.257-0.513,0.228-1.589,1.125-2.843c-0.368-0.177-0.722-0.346-1.046-0.5c-1.447,2.022-2.588,3.851-4.164,4.796
							c-3.393,2.036-3.393,4.071-6.786,6.786s-24.429,21.037-50.216,31.216c-25.786,10.179-44.109,16.286-44.109,16.286
							s-0.599,0.434-1.535,1.079c0.092,4.338,0.398,12.32,1.404,17.854c1.445,7.945,9.39,37.197,11.195,45.865
							c1.805,8.667,10.112,54.531,11.195,59.947c0.613,3.069,0.763,7.295,0.778,10.384c0.021-0.055,0.034-0.088,0.034-0.088
							s4.072,21.717,3.393,30.537c-0.678,8.823,4.071,63.788,7.465,80.754c3.391,16.966,7.463,60.394,4.071,78.717
							c-3.394,18.323-11.537,67.182-13.573,88.219c-2.036,21.036-2.036,36.645-2.036,36.645s-2.714,2.713-2.714,5.43
							c0,2.712,1.356,8.82,1.356,8.82v4.75c0,0,0.965,7.175,17.742,10.682c1.435-8.155,3.565-22.495,2.356-29.991
							c-1.75-10.852,1.4-8.752,6.301-16.103c4.9-7.352,3.851-31.854,4.551-61.26c0.699-29.403,56.009-15.052,56.009-15.052
							s4.55-6.301,3.851-15.053c-0.701-8.752-28.354-47.258-33.605-56.009c-5.25-8.749,2.801-7.7,2.801-7.7
							s-7.702-3.501-10.853-20.651c-3.151-17.155,5.251-38.158,12.952-56.359c7.702-18.203,30.104-37.105,30.104-37.105
							s-24.155,3.85-47.257-6.652c-23.104-10.5-24.504-28.354-27.654-83.311c-3.151-54.958,2.1-65.811,14.702-66.511
							c12.603-0.701,57.058,14.002,63.709,16.802c0,0,4.201-8.751,2.801-14.001c-1.399-5.251,2.801-13.652,7.701-22.754
							c4.9-9.101,4.9-4.901,6.651-6.301s0.35-9.451-0.7-11.901c-1.051-2.451-0.35-3.15,1.751-8.752
							C280.8,159.033,279.95,157.665,278.309,156.117"/>
					</g>
				</g>
				<g opacity="0.12" clip-path="url(#SF_SVGID_44_)">
					<g>
						<defs>
							<rect id="SF_SVGID_49_" x="104.34" y="244.772" width="62.66" height="89.964"/>
						</defs>
						<clipPath id="SF_SVGID_50_">
							<use xlink:href="#SF_SVGID_49_"  overflow="visible"/>
						</clipPath>
						<path clip-path="url(#SF_SVGID_50_)" fill="#897F76" d="M151.947,302.181c-1.75-2.8-42.356-57.409-42.356-57.409
							s0.701,5.25,3.501,11.202c2.801,5.951,31.154,41.657,31.154,41.657s-25.554-28.005-26.954-29.754
							c-1.4-1.75-12.952-10.853-12.952-9.453s8.751,10.853,15.752,17.503c7.001,6.65,21.353,21.004,28.004,31.154
							C154.748,317.232,167,334.736,167,334.736s-2.45-10.152-4.201-14.353S153.697,304.981,151.947,302.181"/>
					</g>
				</g>
				<g opacity="0.12" clip-path="url(#SF_SVGID_44_)">
					<g>
						<defs>
							<rect id="SF_SVGID_51_" x="112.391" y="236.371" width="27.305" height="31.503"/>
						</defs>
						<clipPath id="SF_SVGID_52_">
							<use xlink:href="#SF_SVGID_51_"  overflow="visible"/>
						</clipPath>
						<path clip-path="url(#SF_SVGID_52_)" fill="#897F76" d="M124.293,253.523c-2.45-3.501-11.901-17.152-11.901-17.152
							s3.85,14.352,11.551,21.703s15.753,9.802,15.753,9.802S126.744,257.024,124.293,253.523"/>
					</g>
				</g>
				<g opacity="0.12" clip-path="url(#SF_SVGID_44_)">
					<g>
						<defs>
							<rect id="SF_SVGID_53_" x="440.742" y="255.274" width="63.708" height="64.06"/>
						</defs>
						<clipPath id="SF_SVGID_54_">
							<use xlink:href="#SF_SVGID_53_"  overflow="visible"/>
						</clipPath>
						<path clip-path="url(#SF_SVGID_54_)" fill="#897F76" d="M503.05,255.274c0,0-4.549,9.102-8.4,16.101
							c-3.852,7.003-20.304,20.304-29.055,25.204c-8.751,4.901-24.853,22.755-24.853,22.755s7.35-1.402,11.901-4.902
							c4.55-3.501,33.604-15.051,44.806-31.154C508.651,267.175,503.05,255.274,503.05,255.274"/>
					</g>
				</g>
				<g opacity="0.12" clip-path="url(#SF_SVGID_44_)">
					<g>
						<defs>
							<rect id="SF_SVGID_55_" x="446.69" y="308.481" width="50.759" height="20.874"/>
						</defs>
						<clipPath id="SF_SVGID_56_">
							<use xlink:href="#SF_SVGID_55_"  overflow="visible"/>
						</clipPath>
						<path clip-path="url(#SF_SVGID_56_)" fill="#897F76" d="M475.046,322.134c-9.801,2.8-28.354,6.299-28.354,6.299
							s13.302,3.502,29.755-3.149c16.453-6.652,21.003-16.804,21.003-16.804S484.848,319.334,475.046,322.134"/>
					</g>
				</g>
				<g opacity="0.12" clip-path="url(#SF_SVGID_44_)">
					<g>
						<defs>
							<rect id="SF_SVGID_57_" x="452.302" y="261.832" width="37.447" height="36.464"/>
						</defs>
						<clipPath id="SF_SVGID_58_">
							<use xlink:href="#SF_SVGID_57_"  overflow="visible"/>
						</clipPath>
						<path clip-path="url(#SF_SVGID_58_)" fill="#897F76" d="M476.097,266.477c-6.651,7.699-8.752,10.5-14.703,14.001
							c-5.794,3.408-8.932,17.1-9.093,17.818c0.141-0.623,2.363-9.896,10.145-13.618c8.05-3.852,13.651-3.502,17.502-10.152
							s9.802-11.551,9.802-11.551S482.747,258.774,476.097,266.477"/>
					</g>
				</g>
			</g>
		</g>
	</g>
</g>
  
</svg>
