<?xml version="1.0" encoding="utf-8"?>
<!-- Generator: Adobe Illustrator 24.0.2, SVG Export Plug-In . SVG Version: 6.00 Build 0)  -->
<svg version="1.1" xmlns="http://www.w3.org/2000/svg" xmlns:xlink="http://www.w3.org/1999/xlink" x="0px" y="0px"
	 viewBox="0 0 630.8 1012.4" enable-background="new 0 0 754.8 1012.4" xml:space="preserve">
	
<g id="MASKB">		
	
<g id="SHIRT_BODY">
	<path fill="#00AB5D" d="M617.4,172.3c0,0-28.4-9.5-68.5-25.3c-23.2-9.2-43.9-22.6-58.3-33c-28.6-6.3-69.8-13-116.6-13
		c-50.6,0-93.4,8.7-121,16.2c-14,9.9-32.9,21.6-53.9,29.9c-40,15.8-68.5,25.3-68.5,25.3s-0.9,0.7-2.4,1.7c0,0,0,0,0,0
		c0,0.8,0,1.7,0.1,2.6c0,0.1,0,0.2,0,0.2c0,0.4,0,0.9,0,1.4c0,0,0,0.1,0,0.1c0,0.5,0,1,0.1,1.5c0,0.1,0,0.2,0,0.3
		c0,0.4,0,0.8,0.1,1.3c0,0.1,0,0.3,0,0.4c0,0.5,0,1.1,0.1,1.6c0,0.1,0,0.1,0,0.2c0,0.5,0.1,0.9,0.1,1.4c0,0.2,0,0.3,0,0.5
		c0,0.5,0.1,0.9,0.1,1.4c0,0.1,0,0.2,0,0.3c0,0.6,0.1,1.1,0.1,1.7c0,0.2,0,0.3,0,0.5c0,0.4,0.1,0.9,0.1,1.3c0,0.2,0,0.3,0,0.5
		c0,0.6,0.1,1.1,0.1,1.7c0,0.1,0,0.1,0,0.2c0,0.5,0.1,1,0.2,1.5c0,0.2,0,0.3,0.1,0.5c0,0.4,0.1,0.9,0.1,1.3c0,0.1,0,0.2,0,0.4
		c0.1,0.5,0.1,1.1,0.2,1.6c0,0.1,0,0.2,0.1,0.4c0.1,0.4,0.1,0.8,0.2,1.2c0,0.1,0,0.3,0.1,0.4c0.1,0.5,0.2,1,0.3,1.5
		c2.2,12.3,14.6,57.7,17.4,71.2c2.8,13.5,15.7,84.6,17.4,93c0.1,0.6,0.2,1.2,0.3,1.8c0,0.1,0,0.1,0,0.2c0.1,0.6,0.2,1.2,0.2,1.8
		c0,0.1,0,0.1,0,0.2c0.1,0.6,0.1,1.3,0.2,1.9c0,0,0,0.1,0,0.1c0.1,0.7,0.1,1.4,0.2,2.1c0,0,0,0,0,0c0,0.7,0.1,1.4,0.1,2
		c0,0.1,0,0.1,0,0.2c0,0.6,0.1,1.3,0.1,1.9c0,0.1,0,0.1,0,0.2c0,0.6,0,1.3,0,1.9c0,0,0,0,0,0c0,0.6,0,1.3,0,1.9
		c0-0.1,0.1-0.1,0.1-0.1s6.3,33.7,5.3,47.4c-1.1,13.7,6.3,99,11.6,125.3c5.3,26.3,11.6,93.7,6.3,122.2
		c-5.3,28.4-17.9,104.3-21.1,136.9c-3.2,32.7-3.2,56.9-3.2,56.9s-4.2,4.2-4.2,8.4s2.1,13.7,2.1,13.7v7.4c0,0,2.1,15.8,45.3,19
		c43.2,3.2,94.8,4.2,110.6,7.4c4.1,0.8,9.2,1.6,14.8,2.4l0,0.8c0,0,21.1,3.2,34.8,3.2c1.6,0,3.3,0,5.3-0.1c1.9,0.1,3.7,0.1,5.3,0.1
		c13.7,0,34.8-3.2,34.8-3.2l0-0.8c5.5-0.8,10.7-1.6,14.8-2.4c15.8-3.2,67.4-4.2,110.6-7.4c43.2-3.2,45.3-19,45.3-19v-7.4
		c0,0,2.1-9.5,2.1-13.7s-4.2-8.4-4.2-8.4s5.8-25.3-3.2-56.9c-14.2-49.9-15.8-108.5-21.1-136.9c-5.3-28.4,1.1-95.8,6.3-122.2
		c5.3-26.3,12.6-111.6,11.6-125.3c-0.9-11.8,3.6-38.4,4.9-45.6c0-4.8,0.1-12.5,1.2-17.8c1.7-8.4,14.6-79.6,17.4-93
		c2.8-13.5,15.1-58.9,17.4-71.2c1.6-8.7,2-21.3,2.2-28C618.2,172.9,617.4,172.3,617.4,172.3z"/>
</g>
	
<g id="STRIPES2">
	<path fill="#FFDA02" d="M587.5,343.7l-425.2,0.7c0.9,4,1.7,7.8,2.4,11.3l421-0.7C586.2,351.3,586.8,347.5,587.5,343.7z"/>
</g>
	
<g id="STRIPES1">
	<g>
		<path d="M594.4,306.5l-440,0.8c2.6,12.8,5.4,25.6,7.8,36.9l425.3-0.7C589.8,329.5,592.2,316.3,594.4,306.5z"/>
		<path d="M585.6,355.3l-420.9,0.7c0.8,3.9,1.5,7.4,2.1,10.5c1.7,9.7,4.1,18.5,6.4,26.4l406.8-0.7
			C581.6,381.2,583.5,368.2,585.6,355.3z"/>
	</g>
</g>
	
</g>	

<g id="SLEEVES">
	<path fill="#FDBB2D" d="M607.1,326.3C607,326.3,607,326.3,607.1,326.3C607,326.3,607,326.3,607.1,326.3z"/>
	<g>
		<path fill="#004D86" d="M166.5,380.2C166.5,380.2,166.5,380.2,166.5,380.2c0-0.6,0-1.3,0-1.9c0-0.1,0-0.1,0-0.2
			c0-0.6,0-1.3-0.1-1.9c0-0.1,0-0.1,0-0.2c0-0.7-0.1-1.4-0.1-2c0,0,0,0,0,0c0-0.7-0.1-1.4-0.2-2.1c0,0,0-0.1,0-0.1
			c-0.1-0.6-0.1-1.3-0.2-1.9c0-0.1,0-0.1,0-0.2c-0.1-0.6-0.2-1.2-0.2-1.8c0-0.1,0-0.1,0-0.2c-0.1-0.6-0.2-1.2-0.3-1.8
			c-1.7-8.4-14.6-79.6-17.4-93s-15.1-58.9-17.4-71.2c-0.1-0.5-0.2-1-0.3-1.5c0-0.1,0-0.3-0.1-0.4c-0.1-0.4-0.1-0.8-0.2-1.2
			c0-0.1,0-0.2-0.1-0.4c-0.1-0.5-0.1-1-0.2-1.6c0-0.1,0-0.2,0-0.4c-0.1-0.4-0.1-0.9-0.1-1.3c0-0.2,0-0.3-0.1-0.5
			c-0.1-0.5-0.1-1-0.2-1.5c0-0.1,0-0.1,0-0.2c-0.1-0.6-0.1-1.1-0.1-1.7c0-0.2,0-0.3,0-0.5c0-0.4-0.1-0.9-0.1-1.3c0-0.2,0-0.3,0-0.5
			c0-0.6-0.1-1.1-0.1-1.7c0-0.1,0-0.2,0-0.3c0-0.5-0.1-0.9-0.1-1.4c0-0.2,0-0.3,0-0.5c0-0.5-0.1-0.9-0.1-1.4c0-0.1,0-0.1,0-0.2
			c0-0.5-0.1-1.1-0.1-1.6c0-0.1,0-0.3,0-0.4c0-0.4,0-0.9-0.1-1.3c0-0.1,0-0.2,0-0.3c0-0.5,0-1-0.1-1.5c0,0,0-0.1,0-0.1
			c0-0.5,0-0.9,0-1.4c0-0.1,0-0.2,0-0.2c0-1-0.1-1.8-0.1-2.6c0,0,0,0,0,0c-3.7,2.6-11,7.3-15.5,8.9c-6.3,2.1-42.1,29.5-52.7,66.4
			c-10.5,36.9-12.6,127.4-12.6,127.4l-3.2,15.8l-3.2,9.5c0,0,36.9,9.5,68.5,11.6c31.6,2.1,51.6,2.1,51.6,2.1s2.1-2.1,1.1-8.4
			c-1.1-6.3-2.1-8.4-1.1-11.6c1-3,4.7-12.3,5.2-13.6l0,0C166.6,381.5,166.6,380.9,166.5,380.2z"/>
		<path fill="#004D86" d="M703.8,392.5l-3.2-15.8c0,0-2.1-90.6-12.6-127.4c-10.5-36.9-46.3-64.3-52.7-66.4
			c-4.7-1.6-12.3-6.6-15.9-9.1c-0.1,6.7-0.6,19.3-2.2,28c-2.2,12.3-14.6,57.7-17.4,71.2c-2.8,13.5-15.7,84.6-17.4,93
			c-1.1,5.4-1.2,13-1.2,17.8c0.2-1.2,0.3-1.8,0.3-1.8s4.2,10.5,5.3,13.7c1.1,3.2,0,5.3-1.1,11.6c-1.1,6.3,1.1,8.4,1.1,8.4
			s20,0,51.6-2.1C670.1,411.4,707,402,707,402L703.8,392.5z"/>
	</g>
</g>	
	
<g id="COLLAR">
	<path fill="#FDBB2D" d="M490.7,114c-1.3-0.9-2.5-1.8-3.7-2.7c-8.4-6.3-14.1-11.1-16-12.7c-5.3-4.2-5.3-7.4-10.5-10.5
		c-5.3-3.2-7.4-12.6-17.9-17.9c-6.7-3.4-36.9-4.6-57.9-5l0-0.3c0,0-4.1,0-10.5,0.1c-6.4-0.1-10.5-0.1-10.5-0.1l0,0.3
		c-21.1,0.4-51.2,1.7-57.9,5c-10.5,5.3-12.6,14.7-17.9,17.9c-5.3,3.2-5.3,6.3-10.5,10.5c-1.5,1.2-5.5,4.6-11.2,9.1
		c-3.6,2.8-7.9,6-12.8,9.5c27.6-7.5,70.4-16.2,121-16.2C420.9,101,462.1,107.7,490.7,114z"/>
</g>
	
<g id="SHIRT_STITCHING">
	
		<path opacity="0.5" fill="none" stroke="#897F76" stroke-width="0.6159" stroke-miterlimit="10" stroke-dasharray="2.226,1.113" d="
		M565.3,722c0,0-0.4,3.6-0.9,5.4c-0.5,1.8-0.9,4.1-0.9,5.7c0,1.6,0.2,3.9,0.7,5.2c0.5,1.4,2.9,7.9,2.5,9.3c-0.4,1.4-2,4.6-2,6.4
		c0,1.8,0.7,12.3,1.4,15c0.7,2.7,3.9,14.7,5.2,17c1.4,2.3,2,5.2,2.3,6.6c0.2,1.4,2.3,6.8,2.3,6.8"/>
	<g>
		
			<path opacity="0.35" fill="none" stroke="#00AB5D" stroke-width="0.7957" stroke-miterlimit="10" stroke-dasharray="0.6835,0.6838" d="
			M263.5,110.4c0,0,28.3-21.1,111.2-21.6c83.7-0.5,111.4,22.6,111.4,22.6"/>
		
			<path opacity="0.35" fill="none" stroke="#00AB5D" stroke-width="1.038" stroke-miterlimit="10" stroke-dasharray="0.8916,0.892" d="
			M46.5,381.7c0,0,26.3,7.3,59.4,10.7s55.4,3.3,55.4,3.3"/>
		
			<path opacity="0.35" fill="none" stroke="#00AB5D" stroke-width="1.038" stroke-miterlimit="10" stroke-dasharray="0.8916,0.892" d="
			M46.5,386.6c0,0,26.3,7.3,59.4,10.7s55.4,3.3,55.4,3.3"/>
		
			<path opacity="0.35" fill="none" stroke="#00AB5D" stroke-width="1.038" stroke-miterlimit="10" stroke-dasharray="0.8916,0.892" d="
			M702.4,381.7c0,0-26.3,7.3-59.4,10.7s-55.4,3.3-55.4,3.3"/>
		
			<path opacity="0.35" fill="none" stroke="#00AB5D" stroke-width="1.038" stroke-miterlimit="10" stroke-dasharray="0.8916,0.892" d="
			M702.4,386.6c0,0-26.3,7.3-59.4,10.7s-55.4,3.3-55.4,3.3"/>
		
			<path opacity="0.35" fill="none" stroke="#00AB5D" stroke-width="0.7957" stroke-miterlimit="10" stroke-dasharray="0.6835,0.6838" d="
			M267,107c0,0,24.9-20.3,107.8-20.8c83.7-0.5,104.5,19,104.5,19"/>
	</g>
</g>	

	
<g id="SHADING">
	<path d="M128.9,185.6c0,0.5,0.1,0.9,0.1,1.4C128.9,186.5,128.9,186,128.9,185.6z"/>
	<path d="M128.8,183.6c0,0.5,0.1,0.9,0.1,1.4C128.8,184.6,128.8,184.1,128.8,183.6z"/>
	<path d="M166.5,380.2C166.5,380.2,166.5,380.2,166.5,380.2C166.5,380.2,166.5,380.2,166.5,380.2z"/>
	<path d="M128.7,181.8c0,0.5,0,1.1,0.1,1.6C128.7,182.9,128.7,182.4,128.7,181.8z"/>
	<path d="M128.5,176.9c0,0.4,0,0.9,0,1.4C128.5,177.8,128.5,177.3,128.5,176.9z"/>
	<path d="M128.6,180.2c0,0.4,0,0.8,0.1,1.3C128.6,181,128.6,180.6,128.6,180.2z"/>
	<path d="M128.4,174c0,0.8,0,1.7,0.1,2.6C128.5,175.7,128.4,174.8,128.4,174z"/>
	<polygon points="166.6,382.1 166.6,382.1 166.6,382.1 	"/>
	<path d="M128.5,178.3c0,0.5,0,1,0.1,1.5C128.6,179.3,128.6,178.8,128.5,178.3z"/>
	<path d="M129,187.2c0,0.6,0.1,1.1,0.1,1.7C129.1,188.3,129,187.8,129,187.2z"/>
	<path d="M129.6,195c0,0.4,0.1,0.9,0.1,1.3C129.7,195.8,129.7,195.4,129.6,195z"/>
	<path d="M130.1,198.6c0.1,0.4,0.1,0.8,0.2,1.2C130.2,199.4,130.2,199,130.1,198.6z"/>
	<path d="M129.8,196.6c0.1,0.5,0.1,1.1,0.2,1.6C130,197.7,129.9,197.2,129.8,196.6z"/>
	<path d="M166.1,371.8c0,0,0,0.1,0,0.1C166.1,371.9,166.1,371.8,166.1,371.8z"/>
	<path d="M165.9,369.7c0,0.1,0,0.1,0,0.2C165.9,369.8,165.9,369.8,165.9,369.7z"/>
	<path d="M130.3,200.2c0.1,0.5,0.2,1,0.3,1.5C130.5,201.2,130.4,200.7,130.3,200.2z"/>
	<path d="M129.4,193c0,0.5,0.1,1,0.2,1.5C129.5,194,129.5,193.5,129.4,193z"/>
	<path d="M129.1,189.4c0,0.4,0.1,0.9,0.1,1.3C129.2,190.2,129.2,189.8,129.1,189.4z"/>
	<path d="M165.7,367.8c0,0.1,0,0.1,0,0.2C165.7,367.9,165.7,367.8,165.7,367.8z"/>
	<path d="M166.4,376.1c0,0.1,0,0.1,0,0.2C166.4,376.2,166.4,376.1,166.4,376.1z"/>
	<path d="M129.3,191.1c0,0.6,0.1,1.1,0.1,1.7C129.4,192.3,129.3,191.7,129.3,191.1z"/>
	<path d="M166.3,374C166.3,374,166.3,374,166.3,374C166.3,374,166.3,374,166.3,374z"/>
	<path d="M166.5,378.1c0,0.1,0,0.1,0,0.2C166.5,378.2,166.5,378.2,166.5,378.1z"/>
	<path d="M166.3,374c0-0.7-0.1-1.4-0.2-2.1C166.2,372.6,166.3,373.3,166.3,374z"/>
	<path d="M166.6,382.1c0-0.6,0-1.2,0-1.9C166.6,380.9,166.6,381.5,166.6,382.1z"/>
	<path d="M165.7,367.8c-0.1-0.6-0.2-1.2-0.3-1.8C165.5,366.5,165.6,367.1,165.7,367.8z"/>
	<path d="M166.5,380.2c0-0.6,0-1.2,0-1.9C166.5,378.9,166.5,379.6,166.5,380.2z"/>
	<path d="M166.4,376.1c0-0.7-0.1-1.4-0.1-2C166.3,374.7,166.4,375.4,166.4,376.1z"/>
	<path d="M166.5,378.1c0-0.6,0-1.3-0.1-1.9C166.5,376.9,166.5,377.5,166.5,378.1z"/>
	<path d="M165.9,369.7c-0.1-0.6-0.2-1.2-0.2-1.8C165.8,368.5,165.9,369.1,165.9,369.7z"/>
	<path d="M166.1,371.8c-0.1-0.6-0.1-1.3-0.2-1.9C166,370.5,166.1,371.2,166.1,371.8z"/>
	<path d="M129.6,195c0-0.2,0-0.3-0.1-0.5C129.6,194.6,129.6,194.8,129.6,195z"/>
	<path d="M128.5,178.3C128.5,178.3,128.5,178.3,128.5,178.3C128.5,178.3,128.5,178.3,128.5,178.3z"/>
	<path d="M128.6,180.2c0-0.1,0-0.2,0-0.3C128.6,180,128.6,180.1,128.6,180.2z"/>
	<path d="M128.8,183.6c0-0.1,0-0.1,0-0.2C128.8,183.5,128.8,183.6,128.8,183.6z"/>
	<path d="M128.7,181.8c0-0.1,0-0.3,0-0.4C128.7,181.6,128.7,181.7,128.7,181.8z"/>
	<polygon points="128.4,174 128.4,174 128.4,174 	"/>
	<path d="M128.5,176.9c0-0.1,0-0.2,0-0.2C128.5,176.7,128.5,176.8,128.5,176.9z"/>
	<path d="M130.3,200.2c0-0.1,0-0.3-0.1-0.4C130.3,200,130.3,200.1,130.3,200.2z"/>
	<path d="M129.4,193c0-0.1,0-0.1,0-0.2C129.4,192.9,129.4,192.9,129.4,193z"/>
	<path d="M129.8,196.6c0-0.1,0-0.2,0-0.4C129.8,196.4,129.8,196.5,129.8,196.6z"/>
	<path d="M130.1,198.6c0-0.1,0-0.2-0.1-0.4C130.1,198.3,130.1,198.5,130.1,198.6z"/>
	<path d="M129.1,189.4c0-0.2,0-0.3,0-0.5C129.1,189.1,129.1,189.2,129.1,189.4z"/>
	<path d="M129.3,191.1c0-0.2,0-0.3,0-0.5C129.2,190.8,129.3,191,129.3,191.1z"/>
	<path d="M129,187.2c0-0.1,0-0.2,0-0.3C129,187,129,187.1,129,187.2z"/>
	<path d="M128.9,185.6c0-0.2,0-0.3,0-0.5C128.9,185.2,128.9,185.4,128.9,185.6z"/>
	<g>
		
			<radialGradient id="SVGID_1_" cx="275.9926" cy="196.5652" r="784.8577" gradientTransform="matrix(1 0 0 1.0195 0 -14.7355)" gradientUnits="userSpaceOnUse">
			<stop  offset="0" style="stop-color:#FFFFFF"/>
			<stop  offset="1" style="stop-color:#897F76"/>
		</radialGradient>
		<path opacity="0.13" fill="url(#SVGID_1_)" d="M251.5,408.6c0,0,50.8,0.3,66.9-17.7c16.1-18,41.8-78.7,48.2-85.3
			c6.4-6.6,20.9,141,57.9,163.9c37,23,28.9,134.4,53.1,155.7c24.1,21.3,75.4,58.3,75.4,58.3s3.4-77.7,6.6-110.5
			c3.2-32.8,6.7-61.9,6-65.6c-1.3-7.2-101.8-79.8-127-172.3c-21.7-79.7-1.7-129.5,8-145.9c6-10.1,4.5-13.7,33.5-51.6
			c0,0-28.2,7.2-55.5,46.6c-27.3,39.3-51.5,75.4-61.1,83.6c-9.6,8.2-32.2,21.3-35.4,8.2c-3.2-13.1-41.5-78.6-41.5-78.6
			s25.5,52,12.3,110.5C286.2,364,251.5,408.6,251.5,408.6z"/>
	</g>
	<path opacity="8.000000e-02" fill="#887F76" d="M557.4,839.6c-4.2,5.4-17-11.6-17-11.6l5.2-0.9
		C545.6,827.1,561.5,834.2,557.4,839.6z"/>
	<g opacity="2.000000e-02">
		<path d="M285.4,98.8c-2.9,3.3-4.4,6.8-6.9,8.3c-3.8,2.3-3.7,4.5-7.5,7.6c-3.8,3-27,23.5-55.5,34.9c-28.6,11.4-48.9,18.3-48.9,18.3
			s-0.5,0.4-1.4,1c0.1,4.8,0.5,13.8,1.7,20c1.6,8.8,10.6,41.2,12.7,50.8c2.1,9.6,11.5,60.5,12.8,66.5c0.8,3.8,0.9,9.3,0.9,12.7
			c0.9,5.1,4.3,24.1,3.7,32.5c-0.7,9.8,4.9,70.8,8.7,89.6c3.9,18.8,10.3,74.2,6.6,94.6c-3.7,20.3-11,67.3-16.2,90.7
			c-5.1,22.9-2.1,40.7-2.1,40.7s-3,3-3,6c0,3,1.6,9.8,1.6,9.8l0,5.3c0,0,0.4,2.8,4.5,5.8l4.4-1.7c13.9-12.1,11.6-2.8,17-23.4
			c5.3-20.6,6.8-43.1,6.8-43.1s1.4-21.8,5.6-36.2c4.2-14.4,0.3-10.5,8.4-20.6c1.3-1.7,2.3-2.3,3-2.3c0.9,0,1.4,1.1,1.7,2.2
			c0.4,1.1,0.6,2.2,1.1,2.2c0.8,0,2.4-3.4,6.6-16.4c10.7-33.1,15.7-47.9,9-63c-6.7-15.1-25.8-42.6-26.3-63.6
			c-0.5-21,6.4-40.4,3.6-49.7c-2.8-9.3-7.1-21.7-7.1-21.7s-16-12.7-15.2-20.1c0.7-7.4,4.7-73.8-2-82.3c-6.6-8.5-29.2-6.1-30.8-22
			c-1.6-15.9-18.8-29.8,3.7-36.1c11.4-3.2,17-4.2,21.7-4.2c4.6,0,8.3,0.9,15.6,1.7c14.8,1.5,10.1,0.3,31.1,1.4
			c3.3,0.2,6.6,0.2,9.8,0.2c16.8,0,30.2-2,30.2-2s-1.5,0.2-3.6,0.2c-5.8,0-16.4-1.5-13.9-12.9c3.4-15.6,8.5-9.8,13.1-20.7
			c4.6-10.9,7.3-18.3,7.3-25.7c0-7.4-0.4-7-0.1-12c0.1-1.3,0.7-3,1.6-4.8c-10.8-4.4-17.4-9.5-17.2-10.9c0.2-1.7,2.4-4.5,4.9-6.8
			L285.4,98.8"/>
		<path d="M675.2,244.7c0,0-63,84.8-65.7,89.1c-2.7,4.3-14.1,21.7-16.8,28.3c-2.7,6.5-6.5,22.3-6.5,22.3s19-27.2,29.3-42.9
			c10.3-15.8,32.6-38,43.5-48.4c10.9-10.3,24.4-25,24.4-27.2c0-0.2-0.1-0.2-0.3-0.2c-2.2,0-17.8,12.4-19.8,14.9
			c-2.2,2.7-41.8,46.2-41.8,46.2s44-55.4,48.4-64.7C674.1,252.9,675.2,244.7,675.2,244.7"/>
		<path d="M670.8,231.7c0,0-14.7,21.2-18.5,26.6c-3.8,5.4-23.9,22.3-23.9,22.3s12.5-3.8,24.5-15.2
			C664.8,254,670.8,231.7,670.8,231.7"/>
		<path d="M64.4,261c0,0-8.7,18.5,8.7,43.5c17.4,25,62.5,42.9,69.5,48.4c7.1,5.4,18.5,7.6,18.5,7.6s-25-27.7-38.6-35.3
			c-13.6-7.6-39.1-28.3-45.1-39.1C71.5,275.2,64.4,261,64.4,261"/>
		<path d="M73.1,343.6c0,0,7.1,15.8,32.6,26.1c12.4,5,23.7,6.3,32,6.3c8.7,0,14.2-1.4,14.2-1.4s-28.8-5.4-44-9.8
			C92.7,360.5,73.1,343.6,73.1,343.6"/>
		<path d="M92.3,271.2c-4.3,0-7.3,1.8-7.3,1.8s9.2,7.6,15.2,17.9c6,10.3,14.7,9.8,27.2,15.8c12.1,5.8,15.5,20.2,15.7,21.1
			c-0.2-1.1-5.1-22.4-14.1-27.7c-9.2-5.4-12.5-9.8-22.8-21.7C101.3,272.7,96.3,271.2,92.3,271.2"/>
		<path d="M525,834.1c0,0-2.6,5.3-7.9,6.7c-0.5,0.1-1.1,0.2-1.7,0.2c-5.3,0-12.6-4.9-12.6-4.9s19.5,24.7,27.2,24.7
			c0.4,0,0.7-0.1,1-0.2C537.7,858,525,834.1,525,834.1"/>
		<path d="M339.6,841.6c0,0-1,0.3-2.6,0.8c-1.5,1.8-7.4,8.2-15.4,16.2c0.8,0.2,1.7,0.3,2.7,0.3c0.6,0,1.3-0.1,2-0.2
			C341.1,856.5,339.6,841.6,339.6,841.6 M307.8,837.6c0,0,1.5,9.4,6.4,15.7c9.5-4.9,17.3-8.6,21-10.4c-3.8,1.1-9.2,2.5-13.8,3.2
			c-0.4,0.1-0.9,0.1-1.3,0.1C313,846.3,307.8,837.6,307.8,837.6"/>
		<path d="M337,842.4c-0.6,0.2-1.2,0.4-1.9,0.6c-3.7,1.7-11.5,5.5-21,10.4c1.9,2.5,4.4,4.5,7.5,5.2
			C329.7,850.6,335.6,844.2,337,842.4"/>
	</g>
</g>
	
	
<g id="CUSTOM">
</g>		
	
</svg>
