<?xml version="1.0" encoding="utf-8"?>
<!-- Generator: Adobe Illustrator 24.0.2, SVG Export Plug-In . SVG Version: 6.00 Build 0)  -->
<svg version="1.1" xmlns="http://www.w3.org/2000/svg" xmlns:xlink="http://www.w3.org/1999/xlink" x="0px" y="0px"
	 viewBox="0 0 630.7 1006.4" enable-background="new 0 0 760.7 1006.4" xml:space="preserve">

<g id="MASKR">	
	
<g id="SHIRT_BODY">
	<path fill="#EE4D9B" stroke="#897F76" stroke-width="0.3809" d="M578.4,378.5c-3.7-40.2-67.1-149.8-75-159
		c-5.6-6.6-54.2-63.4-91-107.6c-20.8-11.1-53.7-27-76.6-30.7c-23.8-3.8-62.8-1.9-86.4-0.2c-2.3,3.6-3.8,6.8-3.8,8.7
		c0,9.1-47.5,76.8-62.2,137.1c-14.6,60.3,3.7,181,12.8,213.9c9.1,32.9,42,120.7,42,146.3c0,25.6-46.5,180.7-10.4,345.9
		c0.8,3.7-23.8,69.5,125.7-17c85-49.2,196-18.9,196-18.9c24-50.2,19.6-187.5,25.1-229.5c5.5-42-1.8-155.4,3.7-177.3
		C583.8,468.1,582,418.7,578.4,378.5z"/>
</g>

<g id="STRIPES2">
	<path fill="#FFDA02" d="M238.8,326l-59.3,0.1c0.3,4,0.6,8,0.9,12l59.9-0.1C239.8,334.3,239.3,330.3,238.8,326z"/>
</g>
	
<g id="STRIPES1">
	<g>
		<path d="M234.7,286.5l-56.7,0.1c0,12.8,0.6,26.1,1.5,39.2l59.3-0.1C237.3,313.8,235.8,300.2,234.7,286.5z"/>
		<path d="M242.6,361.9c0.1-4.1-0.9-12.6-2.3-23.6l-59.9,0.1c1.2,13.6,2.7,26.8,4.3,39.2l57.2-0.1
			C242.3,370.6,242.5,364.9,242.6,361.9z"/>
	</g>
</g>
	

	<g id="SHIRT_STITCH">
	<g>
		<g>
			<g opacity="0.5">
				<g>
					<path opacity="0.5" fill="none" stroke="#000000" stroke-width="0.3709" d="M360.1,913.2c-0.1-9.5-0.1-18.9-0.2-28.4"/>
					<path opacity="0.5" fill="none" stroke="#000000" stroke-width="0.3709" d="M352.4,912.3c-0.1-9.5-0.1-18.9-0.2-28.4"/>
					<path opacity="0.5" fill="none" stroke="#000000" stroke-width="0.3709" d="M357.6,912.9c-0.1-9.5-0.1-18.9-0.2-28.4"/>
					<path opacity="0.5" fill="none" stroke="#000000" stroke-width="0.3709" d="M355,912.6c-0.1-9.5-0.1-18.9-0.2-28.4"/>
					<path opacity="0.5" fill="none" stroke="#000000" stroke-width="0.3709" d="M360.6,884.6c-0.3,7-7.9-1.9-8.8,2.8
						c-1.5,8.1,7.5,2.8,8.6,5.7c2.9,8-7.6,3.1-8.2,4.3c-3.5,7.1,7.7,5.8,8.1,6.6c3,6.1-2.6,5.2-3.4,5.1c-1.5-0.2-5.7-2.9-4.9,3.3"/>
					<path opacity="0.5" fill="none" stroke="#000000" stroke-width="0.3709" d="M360.6,913.9c1.7-9.3-7-3-8.3-5.8
						c-3.7-8,7.5-4.3,7.8-4.8c4.3-7-7.4-6.4-7.6-6.8c-4.2-7.3,7-3.9,7.3-4.3c2.6-3.5-0.5-5.3-1.8-5.7c-2-0.6-4.4,0.5-6.2-1.3"/>
					<path opacity="0.5" fill="none" stroke="#000000" stroke-width="0.3709" d="M358,913.5c-1.9-1.4-3.8-2.8-5.8-4.1"/>
					<line opacity="0.5" fill="none" stroke="#000000" stroke-width="0.3709" x1="360.8" y1="910" x2="352.2" y2="903.9"/>
					<line opacity="0.5" fill="none" stroke="#000000" stroke-width="0.3709" x1="360.7" y1="904.6" x2="352.2" y2="898.4"/>
					<line opacity="0.5" fill="none" stroke="#000000" stroke-width="0.3709" x1="360.7" y1="898.3" x2="352.1" y2="892.2"/>
					<line opacity="0.5" fill="none" stroke="#000000" stroke-width="0.3709" x1="360.6" y1="892.5" x2="352.1" y2="886.3"/>
				</g>
				<g>
					<line opacity="0.5" fill="none" stroke="#000000" stroke-width="0.3709" x1="359.9" y1="884.5" x2="359.3" y2="806.2"/>
					<line opacity="0.5" fill="none" stroke="#000000" stroke-width="0.3709" x1="352.2" y1="883.5" x2="351.6" y2="805.3"/>
					<line opacity="0.5" fill="none" stroke="#000000" stroke-width="0.3709" x1="357.3" y1="884.1" x2="356.8" y2="805.9"/>
					<line opacity="0.5" fill="none" stroke="#000000" stroke-width="0.3709" x1="354.8" y1="883.8" x2="354.2" y2="805.6"/>
					<path opacity="0.5" fill="none" stroke="#000000" stroke-width="0.3709" d="M360,805.9c0,2.5-0.7,2.6-0.7,2.6l-7.6-1
						c0,0-0.5-1.2-0.5,1.8c0,3,0.6,3.7,0.6,3.7l7.7,1c0,0,0.6-0.1,0.6,2.5c0,2.7-0.6,2.9-0.6,2.9l-7.5-1c0,0-0.6,0.1-0.5,2.8
						c0,2.7,0.7,2.9,0.7,2.9l7.6,1c0,0,0.5,0.4,0.5,2.7c0,2.3-0.5,3-0.5,3l-7.8-1c0,0-0.5,0-0.5,2.6c0,2.8,0.5,3.3,0.5,3.3l7.8,1
						c0,0,0.6-0.1,0.6,2.9c0,3-0.7,2.9-0.7,2.9l-7.6-1c0,0-0.5-0.1-0.5,2.6c0,2.6,0.6,3.4,0.6,3.4l7.6,1c0,0,0.6,0.5,0.6,3.1
						c0,2.6-0.6,2.8-0.6,2.8l-7.5-0.9c0,0-0.7-0.5-0.7,2.2c0,2.6,0.8,3.1,0.8,3.1l7.4,0.9c0,0,0.5-0.7,0.6,2.3c0,3-0.6,3.3-0.6,3.3
						l-7.3-0.9c0,0-0.8-0.1-0.8,2.7c0,2.8,0.9,3.2,0.9,3.2l7.3,0.9c0,0,0.6-0.4,0.6,2.2c0,2.7-0.6,3-0.6,3l-7.4-0.9
						c0,0-0.8-0.1-0.8,2.6c0,2.6,0.8,2.9,0.8,2.9l7.5,0.9l0.6,0.6"/>
					<path opacity="0.5" fill="none" stroke="#000000" stroke-width="0.3709" d="M351.7,883.2c0-2.5,0.7-2.6,0.7-2.6l7.6,0.9
						c0,0,0.5,1.2,0.5-1.8c0-3-0.6-3.7-0.6-3.7l-7.6-0.9c0,0-0.5,0.1-0.6-2.5c0-2.7,0.6-2.9,0.6-2.9l7.5,0.9c0,0,0.5-0.1,0.5-2.8
						c0-2.6-0.7-2.9-0.7-2.9l-7.6-1c0,0-0.5-0.4-0.5-2.7c0-2.3,0.5-3,0.5-3l7.8,1c0,0,0.5,0.1,0.5-2.6c0-2.8-0.5-3.3-0.5-3.3l-7.8-1
						c0,0-0.6,0.1-0.6-2.9c0-3,0.7-2.9,0.7-2.9l7.6,1c0,0,0.5,0.1,0.5-2.6c0-2.6-0.6-3.5-0.6-3.5l-7.6-1c0,0-0.6-0.4-0.6-3.1
						c0-2.6,0.6-2.8,0.6-2.8l7.5,0.9c0,0,0.7,0.5,0.7-2.2c0-2.6-0.8-3.1-0.8-3.1l-7.4-0.9c0,0-0.5,0.7-0.6-2.3c0-3,0.6-3.3,0.6-3.3
						l7.3,0.9c0,0,0.8,0.1,0.8-2.7c0-2.8-0.9-3.2-0.9-3.2l-7.3-0.9c0,0-0.6,0.4-0.6-2.2c0-2.6,0.6-2.9,0.6-2.9l7.4,0.9
						c0,0,0.8,0.1,0.8-2.5c0-2.6-0.8-2.9-0.8-2.9l-7.5-0.9l-0.6-0.6"/>
					<line opacity="0.5" fill="none" stroke="#000000" stroke-width="0.3709" x1="360.6" y1="881.6" x2="352" y2="875.5"/>
					<line opacity="0.5" fill="none" stroke="#000000" stroke-width="0.3709" x1="360.5" y1="876.6" x2="352" y2="870.4"/>
					<line opacity="0.5" fill="none" stroke="#000000" stroke-width="0.3709" x1="360.5" y1="870.2" x2="351.9" y2="864"/>
					<line opacity="0.5" fill="none" stroke="#000000" stroke-width="0.3709" x1="360.4" y1="864.7" x2="351.9" y2="858.5"/>
					<line opacity="0.5" fill="none" stroke="#000000" stroke-width="0.3709" x1="360.4" y1="859.9" x2="351.8" y2="853.8"/>
					<line opacity="0.5" fill="none" stroke="#000000" stroke-width="0.3709" x1="360.3" y1="854.4" x2="351.8" y2="848.3"/>
					<line opacity="0.5" fill="none" stroke="#000000" stroke-width="0.3709" x1="360.3" y1="848.8" x2="351.7" y2="842.6"/>
					<line opacity="0.5" fill="none" stroke="#000000" stroke-width="0.3709" x1="360.3" y1="842.5" x2="351.7" y2="836.4"/>
					<line opacity="0.5" fill="none" stroke="#000000" stroke-width="0.3709" x1="360.2" y1="836.9" x2="351.7" y2="830.7"/>
					<line opacity="0.5" fill="none" stroke="#000000" stroke-width="0.3709" x1="360.2" y1="831.4" x2="351.6" y2="825.2"/>
					<line opacity="0.5" fill="none" stroke="#000000" stroke-width="0.3709" x1="360.1" y1="825.9" x2="351.6" y2="819.7"/>
					<line opacity="0.5" fill="none" stroke="#000000" stroke-width="0.3709" x1="360.1" y1="819.7" x2="351.5" y2="813.5"/>
					<line opacity="0.5" fill="none" stroke="#000000" stroke-width="0.3709" x1="360.1" y1="813.8" x2="351.5" y2="807.7"/>
				</g>
				<g>
					<line opacity="0.5" fill="none" stroke="#000000" stroke-width="0.3709" x1="359.3" y1="805.8" x2="358.8" y2="727.6"/>
					<line opacity="0.5" fill="none" stroke="#000000" stroke-width="0.3709" x1="351.6" y1="804.9" x2="351.1" y2="726.6"/>
					<line opacity="0.5" fill="none" stroke="#000000" stroke-width="0.3709" x1="356.8" y1="805.5" x2="356.2" y2="727.3"/>
					<line opacity="0.5" fill="none" stroke="#000000" stroke-width="0.3709" x1="354.2" y1="805.2" x2="353.6" y2="726.9"/>
					<path opacity="0.5" fill="none" stroke="#000000" stroke-width="0.3709" d="M359.4,727.3c0,2.5-0.7,2.5-0.7,2.5l-7.6-1
						c0,0-0.5-1.2-0.5,1.8c0,3,0.6,3.7,0.6,3.7l7.6,1c0,0,0.6-0.1,0.6,2.5c0,2.7-0.6,2.9-0.6,2.9l-7.5-1c0,0-0.5,0.1-0.5,2.8
						c0,2.6,0.7,2.9,0.7,2.9l7.6,1c0,0,0.5,0.4,0.5,2.7c0,2.3-0.5,3-0.5,3l-7.8-1c0,0-0.5-0.1-0.5,2.6c0,2.8,0.5,3.3,0.5,3.3l7.8,1
						c0,0,0.6-0.1,0.6,2.9c0,3-0.7,2.9-0.7,2.9l-7.6-1c0,0-0.5-0.1-0.5,2.6c0,2.6,0.6,3.5,0.6,3.5l7.6,1c0,0,0.6,0.5,0.6,3.1
						c0,2.6-0.6,2.8-0.6,2.8l-7.5-1c0,0-0.7-0.5-0.7,2.2c0,2.6,0.8,3.1,0.8,3.1l7.4,0.9c0,0,0.5-0.7,0.6,2.3c0,3-0.6,3.3-0.6,3.3
						l-7.3-0.9c0,0-0.8-0.1-0.8,2.7c0,2.8,0.9,3.2,0.9,3.2l7.4,0.9c0,0,0.6-0.4,0.6,2.2c0,2.6-0.6,2.9-0.6,2.9l-7.4-0.9
						c0,0-0.8-0.1-0.8,2.5c0,2.6,0.8,2.9,0.8,2.9l7.5,0.9l0.6,0.6"/>
					<path opacity="0.5" fill="none" stroke="#000000" stroke-width="0.3709" d="M351.1,804.5c0-2.5,0.7-2.6,0.7-2.6l7.6,1
						c0,0,0.5,1.2,0.5-1.8c0-3-0.6-3.6-0.6-3.6l-7.7-1c0,0-0.6,0.1-0.6-2.5c0-2.7,0.6-2.9,0.6-2.9l7.5,1c0,0,0.5-0.1,0.5-2.8
						c0-2.6-0.7-2.9-0.7-2.9l-7.6-1c0,0-0.5-0.4-0.5-2.7c0-2.3,0.5-3,0.5-3l7.8,1c0,0,0.5,0.1,0.5-2.6c0-2.8-0.5-3.3-0.5-3.3l-7.8-1
						c0,0-0.6,0.1-0.6-2.9c0-3,0.7-2.9,0.7-2.9l7.6,1c0,0,0.5,0.1,0.5-2.6c0-2.6-0.6-3.5-0.6-3.5l-7.6-1c0,0-0.6-0.5-0.6-3.1
						c0-2.7,0.6-2.8,0.6-2.8l7.5,0.9c0,0,0.7,0.5,0.7-2.2c0-2.7-0.8-3.1-0.8-3.1l-7.4-1c0,0-0.5,0.7-0.6-2.3c0-3,0.6-3.3,0.6-3.3
						l7.3,0.9c0,0,0.8,0.1,0.8-2.7c0-2.8-0.8-3.2-0.8-3.2l-7.3-0.9c0,0-0.6,0.4-0.7-2.3c0-2.6,0.6-2.9,0.6-2.9l7.4,0.9
						c0,0,0.8,0.1,0.8-2.5c0-2.6-0.8-2.9-0.8-2.9l-7.5-1l-0.6-0.7"/>
					<line opacity="0.5" fill="none" stroke="#000000" stroke-width="0.3709" x1="360" y1="803" x2="351.4" y2="796.8"/>
					<line opacity="0.5" fill="none" stroke="#000000" stroke-width="0.3709" x1="359.9" y1="797.9" x2="351.4" y2="791.7"/>
					<line opacity="0.5" fill="none" stroke="#000000" stroke-width="0.3709" x1="359.9" y1="791.5" x2="351.3" y2="785.4"/>
					<line opacity="0.5" fill="none" stroke="#000000" stroke-width="0.3709" x1="359.8" y1="786.1" x2="351.3" y2="779.9"/>
					<line opacity="0.5" fill="none" stroke="#000000" stroke-width="0.3709" x1="359.8" y1="781.3" x2="351.3" y2="775.1"/>
					<line opacity="0.5" fill="none" stroke="#000000" stroke-width="0.3709" x1="359.8" y1="775.8" x2="351.2" y2="769.6"/>
					<line opacity="0.5" fill="none" stroke="#000000" stroke-width="0.3709" x1="359.7" y1="770.1" x2="351.2" y2="763.9"/>
					<line opacity="0.5" fill="none" stroke="#000000" stroke-width="0.3709" x1="359.7" y1="763.9" x2="351.1" y2="757.7"/>
					<line opacity="0.5" fill="none" stroke="#000000" stroke-width="0.3709" x1="359.6" y1="758.2" x2="351.1" y2="752"/>
					<line opacity="0.5" fill="none" stroke="#000000" stroke-width="0.3709" x1="359.6" y1="752.8" x2="351.1" y2="746.6"/>
					<line opacity="0.5" fill="none" stroke="#000000" stroke-width="0.3709" x1="359.6" y1="747.3" x2="351" y2="741.1"/>
					<line opacity="0.5" fill="none" stroke="#000000" stroke-width="0.3709" x1="359.5" y1="741" x2="351" y2="734.9"/>
					<line opacity="0.5" fill="none" stroke="#000000" stroke-width="0.3709" x1="359.5" y1="735.2" x2="350.9" y2="729"/>
				</g>
				<g>
					<line opacity="0.5" fill="none" stroke="#000000" stroke-width="0.3709" x1="358.8" y1="727.2" x2="358.2" y2="648.9"/>
					<line opacity="0.5" fill="none" stroke="#000000" stroke-width="0.3709" x1="351.1" y1="726.2" x2="350.5" y2="648"/>
					<line opacity="0.5" fill="none" stroke="#000000" stroke-width="0.3709" x1="356.2" y1="726.9" x2="355.6" y2="648.6"/>
					<line opacity="0.5" fill="none" stroke="#000000" stroke-width="0.3709" x1="353.6" y1="726.5" x2="353.1" y2="648.3"/>
					<path opacity="0.5" fill="none" stroke="#000000" stroke-width="0.3709" d="M358.9,648.6c0,2.5-0.7,2.5-0.7,2.5l-7.6-1
						c0,0-0.5-1.2-0.5,1.8c0,3,0.6,3.7,0.6,3.7l7.7,1c0,0,0.5-0.1,0.6,2.5c0,2.6-0.6,2.9-0.6,2.9l-7.5-1c0,0-0.6,0.1-0.5,2.7
						c0,2.7,0.7,2.9,0.7,2.9l7.6,1c0,0,0.5,0.4,0.5,2.7c0,2.3-0.5,2.9-0.5,2.9l-7.8-1c0,0-0.5-0.1-0.5,2.6c0,2.8,0.5,3.3,0.5,3.3
						l7.8,1c0,0,0.6-0.1,0.6,2.9c0,3-0.7,2.9-0.7,2.9l-7.6-1c0,0-0.5-0.1-0.5,2.6c0,2.6,0.6,3.5,0.6,3.5l7.6,1c0,0,0.6,0.5,0.6,3.1
						c0,2.6-0.6,2.7-0.6,2.7l-7.5-1c0,0-0.7-0.5-0.7,2.2c0,2.6,0.8,3.1,0.8,3.1l7.4,1c0,0,0.5-0.7,0.6,2.3c0,3-0.6,3.3-0.6,3.3
						l-7.3-1c0,0-0.8-0.1-0.8,2.7c0,2.8,0.8,3.2,0.8,3.2l7.3,1c0,0,0.6-0.4,0.6,2.2c0,2.6-0.6,3-0.6,3l-7.4-1c0,0-0.8-0.1-0.8,2.5
						c0,2.7,0.8,2.9,0.8,2.9l7.5,1l0.6,0.6"/>
					<path opacity="0.5" fill="none" stroke="#000000" stroke-width="0.3709" d="M350.6,725.9c0-2.5,0.7-2.6,0.7-2.6l7.6,1
						c0,0,0.5,1.2,0.5-1.8c0-3-0.6-3.7-0.6-3.7l-7.7-1c0,0-0.6,0.1-0.6-2.5c0-2.6,0.6-2.9,0.6-2.9l7.5,1c0,0,0.6-0.1,0.5-2.8
						c0-2.6-0.7-2.9-0.7-2.9l-7.6-1c0,0-0.5-0.4-0.5-2.7c0-2.3,0.5-2.9,0.5-2.9l7.8,1c0,0,0.5,0.1,0.5-2.6c0-2.8-0.5-3.3-0.5-3.3
						l-7.8-1c0,0-0.6,0.1-0.6-2.9c0-3,0.7-2.9,0.7-2.9l7.6,1c0,0,0.5,0.1,0.5-2.6c0-2.6-0.6-3.5-0.6-3.5l-7.6-1c0,0-0.6-0.5-0.6-3.1
						c0-2.6,0.6-2.8,0.6-2.8l7.5,1c0,0,0.7,0.5,0.7-2.2c0-2.7-0.8-3.1-0.8-3.1l-7.4-1c0,0-0.5,0.7-0.6-2.3c0-3,0.6-3.3,0.6-3.3
						l7.3,1c0,0,0.8,0.1,0.8-2.7c0-2.8-0.8-3.2-0.8-3.2l-7.3-1c0,0-0.6,0.4-0.7-2.2c0-2.7,0.6-2.9,0.6-2.9l7.4,1
						c0,0,0.8,0.1,0.8-2.6c0-2.6-0.8-2.9-0.8-2.9l-7.5-1l-0.6-0.6"/>
					<line opacity="0.5" fill="none" stroke="#000000" stroke-width="0.3709" x1="359.4" y1="724.4" x2="350.9" y2="718.2"/>
					<line opacity="0.5" fill="none" stroke="#000000" stroke-width="0.3709" x1="359.4" y1="719.3" x2="350.8" y2="713.1"/>
					<line opacity="0.5" fill="none" stroke="#000000" stroke-width="0.3709" x1="359.3" y1="712.9" x2="350.8" y2="706.7"/>
					<line opacity="0.5" fill="none" stroke="#000000" stroke-width="0.3709" x1="359.3" y1="707.4" x2="350.7" y2="701.2"/>
					<line opacity="0.5" fill="none" stroke="#000000" stroke-width="0.3709" x1="359.3" y1="702.6" x2="350.7" y2="696.4"/>
					<line opacity="0.5" fill="none" stroke="#000000" stroke-width="0.3709" x1="359.2" y1="697.2" x2="350.7" y2="691"/>
					<line opacity="0.5" fill="none" stroke="#000000" stroke-width="0.3709" x1="359.2" y1="691.5" x2="350.6" y2="685.3"/>
					<line opacity="0.5" fill="none" stroke="#000000" stroke-width="0.3709" x1="359.1" y1="685.3" x2="350.6" y2="679"/>
					<line opacity="0.5" fill="none" stroke="#000000" stroke-width="0.3709" x1="359.1" y1="679.6" x2="350.5" y2="673.4"/>
					<line opacity="0.5" fill="none" stroke="#000000" stroke-width="0.3709" x1="359.1" y1="674.1" x2="350.5" y2="667.9"/>
					<line opacity="0.5" fill="none" stroke="#000000" stroke-width="0.3709" x1="359" y1="668.6" x2="350.5" y2="662.4"/>
					<line opacity="0.5" fill="none" stroke="#000000" stroke-width="0.3709" x1="359" y1="662.4" x2="350.4" y2="656.2"/>
					<line opacity="0.5" fill="none" stroke="#000000" stroke-width="0.3709" x1="358.9" y1="656.6" x2="350.4" y2="650.3"/>
				</g>
				<g>
					<line opacity="0.5" fill="none" stroke="#000000" stroke-width="0.3709" x1="358.2" y1="648.5" x2="357.7" y2="570.3"/>
					<line opacity="0.5" fill="none" stroke="#000000" stroke-width="0.3709" x1="350.5" y1="647.5" x2="350" y2="569.3"/>
					<line opacity="0.5" fill="none" stroke="#000000" stroke-width="0.3709" x1="355.6" y1="648.2" x2="355.1" y2="570"/>
					<line opacity="0.5" fill="none" stroke="#000000" stroke-width="0.3709" x1="353.1" y1="647.9" x2="352.5" y2="569.6"/>
					<path opacity="0.5" fill="none" stroke="#000000" stroke-width="0.3709" d="M358.3,570c0,2.4-0.7,2.5-0.7,2.5l-7.6-1
						c0,0-0.5-1.2-0.5,1.8c0,3,0.6,3.7,0.6,3.7l7.6,1c0,0,0.6-0.1,0.6,2.5c0,2.7-0.6,2.9-0.6,2.9l-7.5-1c0,0-0.5,0.1-0.5,2.8
						c0,2.7,0.7,2.9,0.7,2.9l7.6,1c0,0,0.5,0.4,0.5,2.7c0,2.3-0.5,3-0.5,3l-7.8-1c0,0-0.5-0.1-0.5,2.6c0,2.8,0.5,3.3,0.5,3.3l7.8,1
						c0,0,0.6-0.1,0.6,2.9c0,3-0.7,2.9-0.7,2.9l-7.6-1c0,0-0.5-0.1-0.5,2.6c0,2.7,0.6,3.5,0.6,3.5l7.6,1c0,0,0.6,0.5,0.6,3.1
						c0,2.7-0.6,2.8-0.6,2.8l-7.5-1c0,0-0.7-0.5-0.7,2.2c0,2.6,0.8,3.1,0.8,3.1l7.4,1c0,0,0.5-0.7,0.6,2.3c0,3-0.6,3.3-0.6,3.3
						l-7.3-1c0,0-0.8-0.1-0.8,2.7c0,2.8,0.9,3.2,0.9,3.2l7.3,1c0,0,0.6-0.4,0.6,2.3c0,2.6-0.6,2.9-0.6,2.9l-7.4-1
						c0,0-0.8-0.1-0.8,2.5c0,2.7,0.8,2.9,0.8,2.9l7.5,1l0.6,0.6"/>
					<path opacity="0.5" fill="none" stroke="#000000" stroke-width="0.3709" d="M350,647.2c0-2.5,0.7-2.6,0.7-2.6l7.6,1
						c0,0,0.5,1.2,0.5-1.8c0-3-0.6-3.7-0.6-3.7l-7.7-1c0,0-0.5,0.1-0.6-2.5c0-2.7,0.6-2.9,0.6-2.9l7.5,1c0,0,0.6-0.1,0.5-2.8
						c0-2.6-0.7-2.9-0.7-2.9l-7.6-1c0,0-0.5-0.4-0.5-2.7c0-2.3,0.5-3,0.5-3l7.8,1c0,0,0.5,0.1,0.5-2.6c0-2.8-0.5-3.3-0.5-3.3l-7.8-1
						c0,0-0.6,0.1-0.6-2.9c0-3,0.7-2.9,0.7-2.9l7.6,1c0,0,0.5,0.1,0.5-2.6c0-2.6-0.6-3.5-0.6-3.5l-7.6-1c0,0-0.6-0.5-0.6-3.1
						c0-2.7,0.6-2.8,0.6-2.8l7.5,1c0,0,0.7,0.5,0.7-2.2c0-2.6-0.8-3.1-0.8-3.1l-7.4-1c0,0-0.5,0.7-0.6-2.3c0-3,0.6-3.3,0.6-3.3
						l7.3,1c0,0,0.8,0.1,0.8-2.7c0-2.9-0.9-3.2-0.9-3.2l-7.3-1c0,0-0.6,0.4-0.7-2.3c0-2.6,0.6-2.9,0.6-2.9l7.4,1
						c0,0,0.8,0.1,0.8-2.5c0-2.6-0.8-2.9-0.8-2.9l-7.5-1l-0.6-0.6"/>
					<line opacity="0.5" fill="none" stroke="#000000" stroke-width="0.3709" x1="358.9" y1="645.7" x2="350.3" y2="639.5"/>
					<line opacity="0.5" fill="none" stroke="#000000" stroke-width="0.3709" x1="358.8" y1="640.6" x2="350.3" y2="634.4"/>
					<line opacity="0.5" fill="none" stroke="#000000" stroke-width="0.3709" x1="358.8" y1="634.3" x2="350.2" y2="628"/>
					<line opacity="0.5" fill="none" stroke="#000000" stroke-width="0.3709" x1="358.7" y1="628.8" x2="350.2" y2="622.6"/>
					<line opacity="0.5" fill="none" stroke="#000000" stroke-width="0.3709" x1="358.7" y1="624" x2="350.2" y2="617.8"/>
					<line opacity="0.5" fill="none" stroke="#000000" stroke-width="0.3709" x1="358.7" y1="618.5" x2="350.1" y2="612.3"/>
					<line opacity="0.5" fill="none" stroke="#000000" stroke-width="0.3709" x1="358.6" y1="612.9" x2="350.1" y2="606.6"/>
					<line opacity="0.5" fill="none" stroke="#000000" stroke-width="0.3709" x1="358.6" y1="606.6" x2="350" y2="600.4"/>
					<line opacity="0.5" fill="none" stroke="#000000" stroke-width="0.3709" x1="358.6" y1="601" x2="350" y2="594.7"/>
					<line opacity="0.5" fill="none" stroke="#000000" stroke-width="0.3709" x1="358.5" y1="595.5" x2="350" y2="589.3"/>
					<line opacity="0.5" fill="none" stroke="#000000" stroke-width="0.3709" x1="358.5" y1="590" x2="349.9" y2="583.8"/>
					<line opacity="0.5" fill="none" stroke="#000000" stroke-width="0.3709" x1="358.4" y1="583.8" x2="349.9" y2="577.6"/>
					<line opacity="0.5" fill="none" stroke="#000000" stroke-width="0.3709" x1="358.4" y1="577.9" x2="349.8" y2="571.7"/>
				</g>
				<g>
					<line opacity="0.5" fill="none" stroke="#000000" stroke-width="0.3709" x1="357.7" y1="569.9" x2="357.1" y2="491.7"/>
					<line opacity="0.5" fill="none" stroke="#000000" stroke-width="0.3709" x1="350" y1="568.9" x2="349.5" y2="490.6"/>
					<line opacity="0.5" fill="none" stroke="#000000" stroke-width="0.3709" x1="355.1" y1="569.5" x2="354.6" y2="491.3"/>
					<line opacity="0.5" fill="none" stroke="#000000" stroke-width="0.3709" x1="352.5" y1="569.2" x2="352" y2="491"/>
					<path opacity="0.5" fill="none" stroke="#000000" stroke-width="0.3709" d="M357.8,491.3c0,2.4-0.7,2.5-0.7,2.5l-7.6-1
						c0,0-0.5-1.2-0.5,1.8c0,3,0.6,3.7,0.6,3.7l7.6,1c0,0,0.6-0.1,0.6,2.5c0,2.6-0.6,2.9-0.6,2.9l-7.5-1c0,0-0.6,0.1-0.5,2.8
						c0,2.6,0.7,2.9,0.7,2.9l7.6,1c0,0,0.5,0.4,0.5,2.7c0,2.3-0.5,2.9-0.5,2.9l-7.8-1c0,0-0.5-0.1-0.5,2.6c0,2.8,0.5,3.3,0.5,3.3
						l7.8,1c0,0,0.6-0.1,0.6,2.9c0,3-0.7,2.9-0.7,2.9l-7.6-1c0,0-0.5-0.1-0.5,2.6c0,2.7,0.6,3.5,0.6,3.5l7.6,1c0,0,0.6,0.5,0.6,3.1
						c0,2.6-0.6,2.7-0.6,2.7l-7.5-1c0,0-0.7-0.5-0.7,2.2c0,2.7,0.8,3.1,0.8,3.1l7.4,1c0,0,0.5-0.7,0.6,2.4c0,3-0.6,3.3-0.6,3.3
						l-7.3-1c0,0-0.8-0.1-0.8,2.7c0,2.8,0.8,3.2,0.8,3.2l7.4,1c0,0,0.6-0.4,0.6,2.3c0,2.7-0.6,2.9-0.6,2.9l-7.4-1
						c0,0-0.8-0.1-0.8,2.5c0,2.6,0.8,2.9,0.8,2.9l7.5,1l0.6,0.6"/>
					<path opacity="0.5" fill="none" stroke="#000000" stroke-width="0.3709" d="M349.5,568.6c0-2.5,0.7-2.6,0.7-2.6l7.6,1
						c0,0,0.5,1.2,0.5-1.8c0-3-0.6-3.7-0.6-3.7l-7.7-1c0,0-0.5,0.1-0.6-2.5c0-2.6,0.6-2.9,0.6-2.9l7.5,1c0,0,0.6-0.1,0.5-2.8
						c0-2.6-0.7-2.9-0.7-2.9l-7.6-1c0,0-0.5-0.4-0.5-2.7c0-2.3,0.5-3,0.5-3l7.8,1c0,0,0.5,0.1,0.5-2.6c0-2.8-0.5-3.3-0.5-3.3l-7.8-1
						c0,0-0.6,0.1-0.6-2.9c0-3,0.7-2.9,0.7-2.9l7.6,1c0,0,0.5,0.1,0.5-2.6c0-2.6-0.6-3.5-0.6-3.5l-7.6-1c0,0-0.6-0.5-0.6-3.1
						c0-2.6,0.6-2.8,0.6-2.8l7.5,1c0,0,0.7,0.5,0.7-2.2c0-2.7-0.8-3.1-0.8-3.1l-7.4-1c0,0-0.5,0.7-0.6-2.3c0-3,0.6-3.3,0.6-3.3
						l7.3,1c0,0,0.8,0.1,0.8-2.7c0-2.8-0.8-3.2-0.8-3.2l-7.4-1c0,0-0.6,0.4-0.7-2.3c0-2.6,0.6-2.9,0.6-2.9l7.4,1
						c0,0,0.8,0.1,0.8-2.5c0-2.6-0.8-2.9-0.8-2.9l-7.5-1l-0.6-0.6"/>
					<line opacity="0.5" fill="none" stroke="#000000" stroke-width="0.3709" x1="358.3" y1="567.1" x2="349.8" y2="560.9"/>
					<line opacity="0.5" fill="none" stroke="#000000" stroke-width="0.3709" x1="358.3" y1="562" x2="349.7" y2="555.8"/>
					<line opacity="0.5" fill="none" stroke="#000000" stroke-width="0.3709" x1="358.2" y1="555.6" x2="349.7" y2="549.4"/>
					<line opacity="0.5" fill="none" stroke="#000000" stroke-width="0.3709" x1="358.2" y1="550.1" x2="349.7" y2="543.9"/>
					<line opacity="0.5" fill="none" stroke="#000000" stroke-width="0.3709" x1="358.2" y1="545.3" x2="349.6" y2="539.1"/>
					<line opacity="0.5" fill="none" stroke="#000000" stroke-width="0.3709" x1="358.1" y1="539.9" x2="349.6" y2="533.7"/>
					<line opacity="0.5" fill="none" stroke="#000000" stroke-width="0.3709" x1="358.1" y1="534.2" x2="349.5" y2="528"/>
					<line opacity="0.5" fill="none" stroke="#000000" stroke-width="0.3709" x1="358.1" y1="528" x2="349.5" y2="521.8"/>
					<line opacity="0.5" fill="none" stroke="#000000" stroke-width="0.3709" x1="358" y1="522.3" x2="349.5" y2="516.1"/>
					<line opacity="0.5" fill="none" stroke="#000000" stroke-width="0.3709" x1="358" y1="516.8" x2="349.4" y2="510.6"/>
					<line opacity="0.5" fill="none" stroke="#000000" stroke-width="0.3709" x1="357.9" y1="511.4" x2="349.4" y2="505.1"/>
					<line opacity="0.5" fill="none" stroke="#000000" stroke-width="0.3709" x1="357.9" y1="505.1" x2="349.3" y2="498.9"/>
					<line opacity="0.5" fill="none" stroke="#000000" stroke-width="0.3709" x1="357.9" y1="499.3" x2="349.3" y2="493"/>
				</g>
				<g>
					<path opacity="0.5" fill="none" stroke="#000000" stroke-width="0.3709" d="M357.1,491.2"/>
					<path opacity="0.5" fill="none" stroke="#000000" stroke-width="0.3709" d="M349.5,490.2"/>
					<path opacity="0.5" fill="none" stroke="#000000" stroke-width="0.3709" d="M354.6,490.9"/>
					<path opacity="0.5" fill="none" stroke="#000000" stroke-width="0.3709" d="M352,490.6"/>
					<path opacity="0.5" fill="none" stroke="#000000" stroke-width="0.3709" d="M357.5,458.4c0,2.6-0.6,2.7-0.6,2.7l-7.5-1
						c0,0-0.7-0.5-0.7,2.2c0,2.6,0.8,3.1,0.8,3.1l7.4,1c0,0,0.5-0.7,0.6,2.3c0,3-0.6,3.3-0.6,3.3l-7.3-1c0,0-0.8-0.1-0.8,2.7
						c0,2.8,0.8,3.2,0.8,3.2l7.3,1c0,0,0.6-0.4,0.6,2.2c0,2.7-0.6,2.9-0.6,2.9l-7.4-1c0,0-0.8-0.1-0.8,2.5c0,2.6,0.8,2.9,0.8,2.9
						l7.5,1l0.6,0.6"/>
					<path opacity="0.5" fill="none" stroke="#000000" stroke-width="0.3709" d="M348.9,489.9c0-2.4,0.7-2.5,0.7-2.5l7.6,1
						c0,0,0.5,1.2,0.5-1.8c0-3-0.6-3.7-0.6-3.7l-7.7-1c0,0-0.6,0.1-0.6-2.5c0-2.6,0.6-2.9,0.6-2.9l7.5,1c0,0,0.6-0.1,0.5-2.8
						c0-2.6-0.7-2.9-0.7-2.9l-7.6-1c0,0-0.5-0.4-0.5-2.7c0-2.3,0.5-3,0.5-3l7.8,1c0,0,0.5,0.1,0.5-2.6c0-2.8-0.5-3.3-0.5-3.3l-7.8-1
						"/>
					<line opacity="0.5" fill="none" stroke="#000000" stroke-width="0.3709" x1="357.8" y1="488.4" x2="349.2" y2="482.2"/>
					<line opacity="0.5" fill="none" stroke="#000000" stroke-width="0.3709" x1="357.8" y1="483.4" x2="349.2" y2="477.1"/>
					<line opacity="0.5" fill="none" stroke="#000000" stroke-width="0.3709" x1="357.7" y1="477" x2="349.2" y2="470.7"/>
					<line opacity="0.5" fill="none" stroke="#000000" stroke-width="0.3709" x1="357.7" y1="471.5" x2="349.1" y2="465.3"/>
					<line opacity="0.5" fill="none" stroke="#000000" stroke-width="0.3709" x1="357.6" y1="466.7" x2="349.1" y2="460.5"/>
					<path opacity="0.5" fill="none" stroke="#000000" stroke-width="0.3709" d="M357.6,461.2"/>
				</g>
			</g>
			<g>
				
					<path opacity="0.35" fill="none" stroke="#000000" stroke-width="1.1447" stroke-miterlimit="10" stroke-dasharray="0.9833,0.9837" d="
					M440.6,409.4c0,0-57.9,7.4-96.8,6.2S241,403.8,241,403.8"/>
				
					<path opacity="0.35" fill="none" stroke="#000000" stroke-width="1.1447" stroke-miterlimit="10" stroke-dasharray="0.9833,0.9837" d="
					M439.8,415.2c0,0-57.9,7.4-96.8,6.2s-102.7-11.8-102.7-11.8"/>
			</g>
		</g>
	</g>
</g>

</g>
	
	<g id="CUSTOM"></g>
	
<g id="SLEEVES">
	<g>
		
			<image overflow="visible" opacity="0.2" width="257" height="370" xlink:href="/SVG/SBDUS63/1040C705.png"  transform="matrix(1 0 0 1 215.5032 105.2583)">
		</image>
		<g>
			<path fill="#FDBB2D" d="M453.7,240.8c-1.5-44-13.1-102.3-73.3-113.6c-60.2-11.3-96.6,7.1-96.6,7.1s-19.3,7.8-29.2,32.9
				c-9.9,25.1-20.3,65.3-20.9,83.6c-1.3,42.7,9.2,98.2,8.9,111.1c-0.3,12.9-3.9,75.9-3.9,75.9s11.9,15.8,101.4,18.6
				c90.6,2.9,100.7-17.3,100.7-17.3s-2-83.9,0.4-95.3C443.5,332.6,455.3,284.8,453.7,240.8z"/>
			<path fill="none" stroke="#897F76" stroke-width="0.3461" d="M453.7,240.8c-1.5-44-13.1-102.3-73.3-113.6
				c-60.2-11.3-96.6,7.1-96.6,7.1s-19.3,7.8-29.2,32.9c-9.9,25.1-20.3,65.3-20.9,83.6c-1.3,42.7,9.2,98.2,8.9,111.1
				c-0.3,12.9-3.9,75.9-3.9,75.9s11.9,15.8,101.4,18.6c90.6,2.9,100.7-17.3,100.7-17.3s-2-83.9,0.4-95.3
				C443.5,332.6,455.3,284.8,453.7,240.8z"/>
		</g>
	</g>
</g>
	
<g id="COLLAR">
	<path fill="#004D86" d="M336.4,82.1c23.3,3.7,56.8,20,77.9,31.2c-19.8-23.8-36.8-43.5-43.2-48.6C352.5,49.9,276.3,48,276.3,48
		s-19.4,20.5-27.8,33.9C272.5,80.2,312.1,78.3,336.4,82.1z"/>
</g>
	

	
<g id="SHADING">
	<g opacity="2.000000e-02">
		<path d="M237.7,277.4c-0.2,3-0.3,4.8-0.3,4.8S237.5,280.4,237.7,277.4 M281.5,187c0,0-29.1,9.5-35.6,28.4
			c-5.2,15.2-7.6,49.3-8.3,61.9c0.7-9.3,2.9-30,10.4-44C258,214.9,281.5,187,281.5,187"/>
		<path d="M289.3,216.4c0,0-14,6-30.4,20.9c-16.4,14.9-18.1,29.8-18.1,29.8L289.3,216.4"/>
		<path d="M328.1,287.9c0,0-16.7,12.4-32.2,27.2c-15.5,14.8-51.1,72.6-51.1,72.6s38.5-40,46.5-53.1
			C299.2,321.6,328.1,287.9,328.1,287.9"/>
		<path d="M352.6,327.4c0,0-13.3,11.9-21,19.8c-7.7,7.8-34.3,24.8-34.3,24.8s26.1-5.7,36.4-13.8C344,350,352.6,327.4,352.6,327.4"/>
		<path d="M286.8,661.4L259,757.6c0,0,22.6-32.1,26.2-51C288.9,687.6,286.8,661.4,286.8,661.4"/>
		<path d="M298.4,698.6c0,0,1.5,10.2-2.2,23.3c-3.6,13.1-21.9,31.4-21.9,31.4s24.1-16.8,27.7-21.9
			C305.7,726.3,298.4,698.6,298.4,698.6"/>
	</g>
</g>


</svg>
