<?xml version="1.0" encoding="utf-8"?>
<!-- Generator: Adobe Illustrator 24.0.2, SVG Export Plug-In . SVG Version: 6.00 Build 0)  -->
<svg version="1.1" xmlns="http://www.w3.org/2000/svg" xmlns:xlink="http://www.w3.org/1999/xlink" x="0px" y="0px"
	 viewBox="0 0 630.8 1005.1" enable-background="new 0 0 754.8 1005.1" xml:space="preserve">

<g id="MASKF">	
	
<g id="SHIRT_BODY">
	<path fill="#FDBB2D" d="M623.6,162.5c0,0-29.3-9.8-70.6-26.1c-26-10.3-49.1-25.8-63.9-36.9c-7.3,8-38,35.7-111.2,36.5
		c-72.5,0.7-107.5-30.3-116.8-40.2C247,107,221.7,125,192.5,136.5c-41.3,16.3-70.6,26.1-70.6,26.1s-1,0.7-2.5,1.7c0,0,0,0,0,0
		c0,0.8,0,1.7,0.1,2.7c0,0.1,0,0.2,0,0.2c0,0.5,0,0.9,0,1.4c0,0,0,0.1,0,0.1c0,0.5,0,1,0.1,1.6c0,0.1,0,0.2,0,0.3
		c0,0.4,0,0.9,0.1,1.3c0,0.1,0,0.3,0,0.4c0,0.5,0.1,1.1,0.1,1.6c0,0.1,0,0.1,0,0.2c0,0.5,0.1,1,0.1,1.5c0,0.2,0,0.3,0,0.5
		c0,0.5,0.1,0.9,0.1,1.4c0,0.1,0,0.2,0,0.3c0,0.6,0.1,1.1,0.1,1.7c0,0.2,0,0.3,0,0.5c0,0.4,0.1,0.9,0.1,1.3c0,0.2,0,0.3,0,0.5
		c0,0.6,0.1,1.1,0.2,1.7c0,0.1,0,0.1,0,0.2c0,0.5,0.1,1,0.2,1.5c0,0.2,0,0.3,0.1,0.5c0,0.4,0.1,0.9,0.2,1.3c0,0.1,0,0.3,0,0.4
		c0.1,0.5,0.1,1.1,0.2,1.6c0,0.1,0,0.3,0.1,0.4c0.1,0.4,0.1,0.8,0.2,1.2c0,0.1,0,0.3,0.1,0.4c0.1,0.5,0.2,1,0.3,1.5
		c2.3,12.7,15,59.5,17.9,73.4c2.9,13.9,16.2,87.3,17.9,95.9c0.1,0.6,0.2,1.2,0.3,1.9c0,0.1,0,0.1,0,0.2c0.1,0.6,0.2,1.2,0.2,1.9
		c0,0.1,0,0.1,0,0.2c0.1,0.6,0.1,1.3,0.2,1.9c0,0,0,0.1,0,0.1c0.1,0.7,0.1,1.4,0.2,2.1c0,0,0,0,0,0c0,0.7,0.1,1.4,0.1,2.1
		c0,0.1,0,0.1,0,0.2c0,0.7,0.1,1.3,0.1,2c0,0.1,0,0.1,0,0.2c0,0.7,0,1.3,0,2c0,0,0,0,0,0c0,0.7,0,1.3,0,1.9c0-0.1,0.1-0.1,0.1-0.1
		s6.5,34.8,5.4,48.9c-1.1,14.1,6.5,102.1,11.9,129.2c5.4,27.1,11.9,96.7,6.5,126c-5.4,29.3-18.5,107.5-21.7,141.2
		c-3.3,33.7-3.3,58.6-3.3,58.6s-4.3,4.3-4.3,8.7s2.2,14.1,2.2,14.1v7.6c0,0,2.2,16.3,46.7,19.5c44.5,3.3,97.7,4.3,114,7.6
		c4.2,0.8,9.5,1.7,15.2,2.5l0,0.8c0,0,21.7,3.3,35.8,3.3c1.6,0,3.4,0,5.4-0.1c2,0.1,3.8,0.1,5.4,0.1c14.1,0,35.8-3.3,35.8-3.3l0-0.8
		c5.7-0.8,11-1.6,15.2-2.5c16.3-3.3,69.5-4.3,114-7.6C587.8,929.2,590,913,590,913v-7.6c0,0,2.2-9.8,2.2-14.1s-4.3-8.7-4.3-8.7
		s6-26.1-3.3-58.6c-14.6-51.5-16.3-111.9-21.7-141.2c-5.4-29.3,1.1-98.8,6.5-126c5.4-27.1,13-115.1,11.9-129.2
		c-0.9-12.1,3.8-39.5,5.1-47c0-5,0.1-12.9,1.2-18.4c1.7-8.7,15-82.1,17.9-95.9s15.6-60.7,17.9-73.4c1.6-9,2.1-22,2.3-28.8
		C624.4,163.1,623.6,162.5,623.6,162.5z"/>
</g>	
<g id="STRIPES2">
	<g>
		<path fill="#EE4D9B" d="M259.5,97.4c-3.4,2.6-7.4,5.6-11.9,8.8l-101,216c1.5,8.2,3,16.1,4.2,23l113.7-243
			C262.4,100.3,260.7,98.7,259.5,97.4z"/>
		<path fill="#EE4D9B" d="M500.6,109.1c-4-2.8-7.7-5.5-11-7.9c-1.2,1.3-2.9,3-5.3,5.1l109.5,234.1c1.3-7.1,2.8-15.1,4.2-23
			L500.6,109.1z"/>
	</g>
</g>
<g id="STRIPES1">
	<g>
		<g>
			<path fill="#00AB5D" d="M190.9,137.9c-2.8,1.1-5.6,2.2-8.3,3.3l-49.7,106.3c2.2,8.7,4.1,16.3,5,20.6c1.5,7.2,5.7,30.1,9.8,51.9
				l99.9-213.6C232.9,116.8,213,129.2,190.9,137.9z"/>
			<path fill="#00AB5D" d="M265.1,102.3L152,344c1.9,10.1,3.3,17.8,3.8,20.3c0.1,0.6,0.2,1.2,0.3,1.9l0,0.2c0.1,0.6,0.2,1.2,0.2,1.9
				l0,0.2c0.1,0.6,0.1,1.3,0.2,2l0,0.1c0.1,0.7,0.1,1.4,0.2,2.1l0,0c0,0.7,0.1,1.4,0.1,2.1l0,0.2c0,0.7,0.1,1.3,0.1,2l0,0.2
				c0,0.7,0,1.3,0,2v0c0,0.7,0,1.3,0,1.9l0.1-0.1c0,0,5.3,28.5,5.6,44.4L303.1,125C284.6,117.7,272.3,108.7,265.1,102.3z"/>
		</g>
		<g>
			<path fill="#00AB5D" d="M611.3,243.1l-47.1-100.6c-3.8-1.5-7.7-3-11.7-4.6c-20.1-7.9-38.4-19-52.6-28.7l96.3,206
				c3.7-20.3,7.5-40.5,8.9-47.1C606.3,263.1,608.6,253.7,611.3,243.1z"/>
			<path fill="#00AB5D" d="M586,382.8c0-5,0.1-12.9,1.2-18.4c0.6-2.9,2.4-12.7,4.7-25.1L483,106.3c-7,6-19.3,14.4-38.9,21L581,419.9
				C581.9,406.5,585,388.6,586,382.8z"/>
		</g>
	</g>
</g>
</g>

<g id="SLEEVES">
	<path fill="#FDBB2D" d="M613,321.2C612.9,321.3,612.9,321.3,613,321.2C612.9,321.3,612.9,321.3,613,321.2z"/>
	<g>
		<path fill="#004D86" d="M158.8,376.9C158.8,376.9,158.8,376.8,158.8,376.9c0-0.7,0-1.3,0-2c0-0.1,0-0.1,0-0.2c0-0.6,0-1.3-0.1-2
			c0-0.1,0-0.1,0-0.2c0-0.7-0.1-1.4-0.1-2.1c0,0,0,0,0,0c0-0.7-0.1-1.4-0.2-2.1c0,0,0-0.1,0-0.1c-0.1-0.7-0.1-1.3-0.2-1.9
			c0-0.1,0-0.1,0-0.2c-0.1-0.6-0.2-1.2-0.2-1.9c0-0.1,0-0.1,0-0.2c-0.1-0.6-0.2-1.3-0.3-1.9c-1.7-8.7-15-82.1-17.9-95.9
			c-2.9-13.9-15.6-60.7-17.9-73.4c-0.1-0.5-0.2-1-0.3-1.5c0-0.1,0-0.3-0.1-0.4c-0.1-0.4-0.1-0.8-0.2-1.2c0-0.1,0-0.3-0.1-0.4
			c-0.1-0.5-0.1-1.1-0.2-1.6c0-0.1,0-0.3,0-0.4c-0.1-0.4-0.1-0.9-0.2-1.3c0-0.2,0-0.3-0.1-0.5c-0.1-0.5-0.1-1-0.2-1.5
			c0-0.1,0-0.1,0-0.2c-0.1-0.6-0.1-1.1-0.2-1.7c0-0.2,0-0.3,0-0.5c0-0.4-0.1-0.9-0.1-1.3c0-0.2,0-0.3,0-0.5c0-0.6-0.1-1.1-0.1-1.7
			c0-0.1,0-0.2,0-0.3c0-0.5-0.1-0.9-0.1-1.4c0-0.2,0-0.3,0-0.5c0-0.5-0.1-1-0.1-1.5c0-0.1,0-0.1,0-0.2c0-0.6-0.1-1.1-0.1-1.6
			c0-0.1,0-0.3,0-0.4c0-0.4,0-0.9-0.1-1.3c0-0.1,0-0.2,0-0.3c0-0.5,0-1.1-0.1-1.6c0,0,0-0.1,0-0.1c0-0.5,0-1,0-1.4
			c0-0.1,0-0.2,0-0.2c0-1-0.1-1.9-0.1-2.7c0,0,0,0,0,0c-3.8,2.6-11.3,7.6-16,9.1c-6.5,2.2-43.4,30.4-54.3,68.4
			c-10.9,38-13,131.4-13,131.4l-3.3,16.3l-3.3,9.8c0,0,38,9.8,70.6,11.9c32.6,2.2,53.2,2.2,53.2,2.2s2.2-2.2,1.1-8.7
			c-1.1-6.5-2.2-8.7-1.1-11.9c1-3,4.9-12.7,5.4-14l0,0C158.8,378.2,158.8,377.5,158.8,376.9z"/>
		<path fill="#004D86" d="M712.7,389.5l-3.3-16.3c0,0-2.2-93.4-13-131.4c-10.9-38-47.8-66.2-54.3-68.4c-4.8-1.6-12.7-6.8-16.4-9.4
			c-0.1,6.9-0.6,19.9-2.3,28.8c-2.3,12.7-15,59.5-17.9,73.4s-16.2,87.3-17.9,95.9c-1.1,5.5-1.3,13.4-1.2,18.4
			c0.2-1.2,0.3-1.9,0.3-1.9s4.3,10.9,5.4,14.1c1.1,3.3,0,5.4-1.1,11.9c-1.1,6.5,1.1,8.7,1.1,8.7s20.6,0,53.2-2.2
			c32.6-2.2,70.6-11.9,70.6-11.9L712.7,389.5z"/>
	</g>
</g>
	
<g id="COLLAR">
	<path fill="#BF2A43" d="M378,136.1c73.1-0.7,103.8-28.5,111.2-36.5c-8.6-6.5-14.5-11.5-16.5-13.1c-5.4-4.3-5.4-7.6-10.9-10.9
		c-5.4-3.3-7.6-13-18.5-18.5c-6.9-3.5-38-4.7-59.7-5.2l0-0.3c0,0-4.3,0-10.9,0.1c-6.6-0.1-10.9-0.1-10.9-0.1l0,0.3
		c-21.7,0.5-52.8,1.7-59.7,5.2c-10.9,5.4-13,15.2-18.5,18.5c-5.4,3.3-5.4,6.5-10.9,10.9c-1.6,1.3-5.6,4.7-11.6,9.3
		C270.6,105.8,305.5,136.8,378,136.1z"/>
</g>
<g id="SHIRT_STITCHING">
	
		<path opacity="0.5" fill="none" stroke="#897F76" stroke-width="0.6203" stroke-miterlimit="10" stroke-dasharray="2.2421,1.121" d="
		M569.9,729.3c0,0-0.4,3.7-0.9,5.6c-0.5,1.9-0.9,4.2-0.9,5.8c0,1.6,0.2,4,0.7,5.4c0.5,1.4,3,8.1,2.5,9.5c-0.4,1.4-2.1,4.7-2.1,6.6
		c0,1.9,0.7,12.6,1.4,15.4c0.7,2.8,4,15.2,5.4,17.5c1.4,2.3,2.1,5.4,2.3,6.8c0.2,1.4,2.3,7,2.3,7"/>
	<g>
		
			<path opacity="0.35" fill="none" stroke="#00AB5D" stroke-width="1.0455" stroke-miterlimit="10" stroke-dasharray="0.898,0.8984" d="
			M485.7,97.4c0,0-22.1,33.3-107.6,34.2c-86.3,0.9-112.8-38.4-112.8-38.4"/>
		
			<path opacity="0.35" fill="none" stroke="#00AB5D" stroke-width="1.0455" stroke-miterlimit="10" stroke-dasharray="0.898,0.8984" d="
			M35,378.4c0,0,27.2,7.5,61.3,11s57.1,3.4,57.1,3.4"/>
		
			<path opacity="0.35" fill="none" stroke="#00AB5D" stroke-width="1.0455" stroke-miterlimit="10" stroke-dasharray="0.898,0.8984" d="
			M35,383.5c0,0,27.2,7.5,61.3,11c34.1,3.5,57.1,3.4,57.1,3.4"/>
		
			<path opacity="0.35" fill="none" stroke="#00AB5D" stroke-width="1.0455" stroke-miterlimit="10" stroke-dasharray="0.898,0.8984" d="
			M711.3,378.4c0,0-27.2,7.5-61.3,11s-57.1,3.4-57.1,3.4"/>
		
			<path opacity="0.35" fill="none" stroke="#00AB5D" stroke-width="1.0455" stroke-miterlimit="10" stroke-dasharray="0.898,0.8984" d="
			M711.3,383.5c0,0-27.2,7.5-61.3,11c-34.1,3.5-57.1,3.4-57.1,3.4"/>
		<path opacity="0.35" fill="none" stroke="#00AB5D" stroke-width="1.0455" stroke-miterlimit="10" d="M625.7,164
			c0,0,0.1,16.1-2.3,28.8c-2.3,12.7-15,59.5-17.9,73.4c-2.9,13.9-16.2,87.3-17.9,95.9c-1.7,8.7-1.2,23.1-1.2,23.1"/>
		<path opacity="0.35" fill="none" stroke="#00AB5D" stroke-width="1.0455" stroke-miterlimit="10" d="M119.5,164.3
			c0,0-0.1,15.9,2.2,28.6s15,59.5,17.9,73.4s16.2,87.3,17.9,95.9c1.7,8.7,1.2,23.1,1.2,23.1"/>
		
			<path opacity="0.35" fill="none" stroke="#00AB5D" stroke-width="1.0455" stroke-miterlimit="10" stroke-dasharray="0.898,0.8984" d="
			M489.2,99.6c0,0-25.7,35.6-111.2,36.5c-86.3,0.9-115.7-40.2-115.7-40.2"/>
	</g>
</g>
<g id="SHADING">
	<path d="M119.9,176.2c0,0.5,0.1,0.9,0.1,1.4C120,177.1,120,176.6,119.9,176.2z"/>
	<path d="M119.8,174.2c0,0.5,0.1,1,0.1,1.5C119.9,175.2,119.9,174.7,119.8,174.2z"/>
	<path d="M158.8,376.8C158.8,376.8,158.8,376.9,158.8,376.8C158.8,376.9,158.8,376.8,158.8,376.8z"/>
	<path d="M119.7,172.3c0,0.5,0.1,1.1,0.1,1.6C119.8,173.4,119.8,172.9,119.7,172.3z"/>
	<path d="M119.5,167.2c0,0.5,0,0.9,0,1.4C119.6,168.2,119.6,167.7,119.5,167.2z"/>
	<path d="M119.7,170.6c0,0.4,0,0.9,0.1,1.3C119.7,171.5,119.7,171,119.7,170.6z"/>
	<path d="M119.5,164.3c0,0.8,0,1.7,0.1,2.7C119.5,166,119.5,165.1,119.5,164.3z"/>
	<polygon points="158.8,378.8 158.8,378.8 158.8,378.8 	"/>
	<path d="M119.6,168.7c0,0.5,0,1,0.1,1.6C119.6,169.8,119.6,169.2,119.6,168.7z"/>
	<path d="M120,177.9c0,0.6,0.1,1.1,0.1,1.7C120.1,179.1,120.1,178.5,120,177.9z"/>
	<path d="M120.7,185.9c0,0.5,0.1,0.9,0.2,1.3C120.8,186.8,120.8,186.3,120.7,185.9z"/>
	<path d="M121.2,189.6c0.1,0.4,0.1,0.8,0.2,1.2C121.3,190.5,121.3,190,121.2,189.6z"/>
	<path d="M120.9,187.6c0.1,0.5,0.1,1.1,0.2,1.6C121.1,188.7,121,188.2,120.9,187.6z"/>
	<path d="M158.4,368.2c0,0,0,0.1,0,0.1C158.4,368.3,158.4,368.2,158.4,368.2z"/>
	<path d="M158.1,366c0,0.1,0,0.1,0,0.2C158.2,366.2,158.1,366.1,158.1,366z"/>
	<path d="M121.5,191.3c0.1,0.5,0.2,1,0.3,1.5C121.6,192.3,121.5,191.8,121.5,191.3z"/>
	<path d="M120.5,183.8c0,0.5,0.1,1,0.2,1.5C120.6,184.9,120.6,184.4,120.5,183.8z"/>
	<path d="M120.2,180.1c0,0.4,0.1,0.9,0.1,1.3C120.3,181,120.2,180.5,120.2,180.1z"/>
	<path d="M157.9,364c0,0.1,0,0.1,0,0.2C157.9,364.1,157.9,364.1,157.9,364z"/>
	<path d="M158.6,372.6c0,0.1,0,0.1,0,0.2C158.6,372.7,158.6,372.6,158.6,372.6z"/>
	<path d="M120.3,181.9c0,0.6,0.1,1.1,0.2,1.7C120.4,183.1,120.4,182.5,120.3,181.9z"/>
	<path d="M158.5,370.5C158.5,370.5,158.5,370.5,158.5,370.5C158.5,370.5,158.5,370.5,158.5,370.5z"/>
	<path d="M158.7,374.7c0,0.1,0,0.1,0,0.2C158.7,374.8,158.7,374.8,158.7,374.7z"/>
	<path d="M158.5,370.5c0-0.7-0.1-1.4-0.2-2.1C158.4,369,158.5,369.7,158.5,370.5z"/>
	<path d="M158.8,378.8c0-0.6,0-1.3,0-1.9C158.8,377.5,158.8,378.2,158.8,378.8z"/>
	<path d="M157.9,364c-0.1-0.6-0.2-1.3-0.3-1.9C157.7,362.8,157.8,363.4,157.9,364z"/>
	<path d="M158.8,376.8c0-0.6,0-1.3,0-2C158.7,375.5,158.8,376.2,158.8,376.8z"/>
	<path d="M158.6,372.6c0-0.7-0.1-1.4-0.1-2.1C158.6,371.2,158.6,371.9,158.6,372.6z"/>
	<path d="M158.7,374.7c0-0.6,0-1.3-0.1-2C158.7,373.4,158.7,374.1,158.7,374.7z"/>
	<path d="M158.1,366c-0.1-0.6-0.2-1.2-0.2-1.9C158,364.8,158.1,365.4,158.1,366z"/>
	<path d="M158.4,368.2c-0.1-0.7-0.1-1.3-0.2-1.9C158.2,366.9,158.3,367.5,158.4,368.2z"/>
	<path d="M120.7,185.9c0-0.2,0-0.3-0.1-0.5C120.7,185.5,120.7,185.7,120.7,185.9z"/>
	<path d="M119.6,168.7C119.6,168.7,119.6,168.7,119.6,168.7C119.6,168.7,119.6,168.7,119.6,168.7z"/>
	<path d="M119.7,170.6c0-0.1,0-0.2,0-0.3C119.7,170.4,119.7,170.5,119.7,170.6z"/>
	<path d="M119.8,174.2c0-0.1,0-0.1,0-0.2C119.8,174.1,119.8,174.1,119.8,174.2z"/>
	<path d="M119.7,172.3c0-0.1,0-0.3,0-0.4C119.7,172.1,119.7,172.2,119.7,172.3z"/>
	<polygon points="119.5,164.3 119.5,164.3 119.5,164.3 	"/>
	<path d="M119.5,167.2c0-0.1,0-0.2,0-0.2C119.5,167.1,119.5,167.2,119.5,167.2z"/>
	<path d="M121.5,191.3c0-0.1,0-0.3-0.1-0.4C121.4,191,121.4,191.2,121.5,191.3z"/>
	<path d="M120.5,183.8c0-0.1,0-0.1,0-0.2C120.5,183.7,120.5,183.8,120.5,183.8z"/>
	<path d="M120.9,187.6c0-0.1,0-0.3,0-0.4C120.9,187.3,120.9,187.5,120.9,187.6z"/>
	<path d="M121.2,189.6c0-0.1,0-0.3-0.1-0.4C121.2,189.4,121.2,189.5,121.2,189.6z"/>
	<path d="M120.2,180.1c0-0.2,0-0.3,0-0.5C120.2,179.8,120.2,179.9,120.2,180.1z"/>
	<path d="M120.3,181.9c0-0.2,0-0.3,0-0.5C120.3,181.6,120.3,181.8,120.3,181.9z"/>
	<path d="M120,177.9c0-0.1,0-0.2,0-0.3C120,177.7,120,177.8,120,177.9z"/>
	<path d="M119.9,176.2c0-0.2,0-0.3,0-0.5C119.9,175.8,119.9,176,119.9,176.2z"/>
	<path opacity="0.25" d="M378.1,100.8c44.9,0.4,79-22.6,78.6-26.5c-0.4-3.8-7.8-11-12.5-14.4c-4.7-3.4-27-5.7-71.9-5.5
		c-45.4,0.2-60.7,2-66.9,3.5c-6.2,1.5-16.4,12.8-15.1,15.4C291.5,75.9,333.5,100.4,378.1,100.8z"/>
	<g opacity="2.000000e-02">
		<path d="M450.2,63.8l-2.2,0.8c3.5,3.4,6.8,7.3,7,9.8c0.2,2-9.2,9.4-24.8,15.9c1.3,2.6,2.2,5.1,2.3,7c0.6,7.3,0,6.7,0,17.4
			c0,10.6,3.9,21.3,10.6,37s14,7.3,19,29.7c3.7,16.6-11.9,18.7-20.3,18.7c-2.9,0-5-0.3-5-0.3s18.6,2.7,42.1,2.7
			c5,0,10.3-0.1,15.6-0.4c30.3-1.7,23.5,0,44.8-2.2c10.6-1.1,16-2.5,22.7-2.5c6.7,0,14.8,1.4,31.1,5.9c32.5,9,7.8,29.1,5.6,52.1
			c-2.2,23-34.7,19.6-44.3,31.9c-9.5,12.3-3.4,108.1-2.2,118.8c1.1,10.6-21.8,29.1-21.8,29.1s-6.2,17.9-10.1,31.4
			c-3.9,13.4,6.2,41.5,5.6,71.7c-0.6,30.3-28,70-37.5,91.9c-9.5,21.8-2.2,43.1,13.4,90.8c6.2,18.7,8.4,23.7,9.6,23.7
			c0.7,0,1-1.6,1.5-3.1c0.5-1.6,1.2-3.1,2.5-3.1c1,0,2.4,0.9,4.3,3.3c11.8,14.6,6.2,9,12.3,29.7s8.4,52.1,8.4,52.1
			s2.2,32.5,10.1,62.2s4.5,16.2,24.6,33.6l6.4,2.4c6-4.4,6.5-8.4,6.5-8.4v-7.6c0,0,2.2-9.8,2.2-14.1c0-4.3-4.3-8.7-4.3-8.7
			s4.3-25.7-3.3-58.6c-7.7-33.7-18.6-101.4-24.1-130.7c-5.4-29.3,3.4-109.3,8.9-136.5c5.4-27.1,13-115.1,11.9-129.2
			c-0.9-12.1,3.8-39.5,5.1-47c0-5,0.1-12.9,1.2-18.4c1.7-8.7,15-82.1,17.9-95.9c2.9-13.9,15.6-60.7,17.9-73.4c1.6-9,2.1-22,2.3-28.8
			c-1.3-0.9-2.1-1.5-2.1-1.5s-29.3-9.8-70.6-26.1c-41.3-16.3-74.9-45.6-80.4-50s-5.4-7.6-10.9-10.9
			C456.6,73.5,454.4,68.5,450.2,63.8"/>
		<path d="M290.4,68c-2.3,3.2-4.1,6.2-6.7,7.7c-5.4,3.3-5.4,6.5-10.9,10.9c-5.4,4.3-39.1,33.7-80.4,50
			c-41.3,16.3-70.6,26.1-70.6,26.1s-1,0.7-2.5,1.7c0.1,6.9,0.6,19.7,2.2,28.6c2.3,12.7,15,59.5,17.9,73.4
			c2.9,13.9,16.2,87.3,17.9,95.9c1,4.9,1.2,11.7,1.2,16.6l0.1-0.1c0,0,6.5,34.8,5.4,48.9c-1.1,14.1,6.5,102.1,11.9,129.2
			s11.9,96.7,6.5,126c-5.4,29.3-18.5,107.5-21.7,141.2c-3.3,33.7-3.3,58.6-3.3,58.6s-4.3,4.3-4.3,8.7c0,4.3,2.2,14.1,2.2,14.1v7.6
			c0,0,1.5,11.5,28.4,17.1c2.3-13.1,5.7-36,3.8-48c-2.8-17.4,2.2-14,10.1-25.8c7.8-11.8,6.2-51,7.3-98c0.6-23.8,23.5-29.7,46-29.7
			c22,0,43.6,5.6,43.6,5.6s7.3-10.1,6.2-24.1c-1.1-14-45.4-75.6-53.8-89.6c-6.8-11.3,0.3-12.4,3.3-12.4c0.7,0,1.2,0.1,1.2,0.1
			s-12.3-5.6-17.4-33.1c-5-27.4,8.4-61.1,20.7-90.2c12.3-29.1,48.2-59.4,48.2-59.4s-6.9,1.1-17.7,1.1c-14.7,0-36.6-2.1-57.9-11.7
			c-37-16.8-39.2-45.4-44.3-133.3s3.4-105.3,23.5-106.4c0.5,0,1,0,1.5,0c21.9,0,90.1,22.6,100.5,26.9c0,0,6.7-14,4.5-22.4
			s4.5-21.8,12.3-36.4c4.6-8.5,6.5-9.8,7.9-9.8c0.3,0,0.5,0,0.8,0.1c0.2,0,0.5,0.1,0.7,0.1c0.4,0,0.8-0.1,1.3-0.5
			c2.8-2.2,0.6-15.1-1.1-19c-1.7-3.9-0.6-5,2.8-14c0.6-1.6-0.7-3.8-3.4-6.3c-25.1-7.6-43.4-18.7-44.2-20.4c-0.4-0.8,0.4-2.5,1.8-4.6
			C291.5,68.5,290.9,68.2,290.4,68"/>
		<path d="M64.5,235.6c0,0,1.1,8.4,5.6,17.9c4.5,9.5,49.9,66.7,49.9,66.7s-40.9-44.8-43.1-47.6c-2.1-2.6-18.2-15.4-20.5-15.4
			c-0.2,0-0.3,0.1-0.3,0.2c0,2.2,14,17.4,25.2,28s34.2,33.6,44.8,49.9c10.6,16.2,30.3,44.3,30.3,44.3s-3.9-16.2-6.7-23
			c-2.8-6.7-14.6-24.6-17.4-29.1C129.5,323,64.5,235.6,64.5,235.6"/>
		<path d="M69,222.1c0,0,6.2,23,18.5,34.7c12.3,11.8,25.2,15.7,25.2,15.7S92,255.2,88,249.6S69,222.1,69,222.1"/>
		<path d="M694.2,252.4c0,0-7.3,14.6-13.4,25.8c-6.2,11.2-32.5,32.5-46.5,40.3c-14,7.8-39.8,36.4-39.8,36.4s11.8-2.2,19-7.8
			c7.3-5.6,53.8-24.1,71.7-49.9C703.1,271.4,694.2,252.4,694.2,252.4"/>
		<path d="M685.2,337.5c0,0-20.2,17.4-35.9,21.8c-15.7,4.5-45.4,10.1-45.4,10.1s5.6,1.5,14.6,1.5c8.6,0,20.2-1.3,33-6.5
			C677.9,353.8,685.2,337.5,685.2,337.5"/>
		<path d="M665.4,262.9c-4.1,0-9.3,1.5-14.4,7.4c-10.6,12.3-14,16.8-23.5,22.4c-9.3,5.5-14.3,27.4-14.6,28.5
			c0.2-1,3.8-15.8,16.2-21.8c12.9-6.2,21.8-5.6,28-16.2s15.7-18.5,15.7-18.5S669.8,262.9,665.4,262.9"/>
	</g>
</g>
	
<g id="CUSTOM">
</g>
	
	
<g id="CK_LOGO">
	<g>
		<g>
			<g>
				<g>
					<path d="M239.8,232.6l-0.4,0l-24.2-0.2c-7.3,0-13.1-6-13.1-13.3c0-7.2,5.7-12.9,12.8-13.1l0.4,0l24.2,0.2
						c7.3,0,13.1,6,13.1,13.3C252.6,226.6,246.9,232.4,239.8,232.6z M215,207.5c-6.4,0.2-11.4,5.3-11.4,11.7
						c0,6.5,5.2,11.8,11.7,11.8l24.5,0.2c6.4-0.2,11.4-5.3,11.4-11.7c0-6.5-5.2-11.8-11.7-11.8L215,207.5z"/>
				</g>
				<g>
					<path d="M206.7,219.2c0-4.8,3.8-8.7,8.5-9l-0.1,18.1C210.3,227.9,206.6,224,206.7,219.2z"/>
					<polygon fill-rule="evenodd" clip-rule="evenodd" points="224.5,218.1 216.7,210.1 224.6,210.2 					"/>
					<polygon fill-rule="evenodd" clip-rule="evenodd" points="224.5,220.5 216.6,228.3 224.5,228.4 					"/>
				</g>
				<g>
					<polygon fill-rule="evenodd" clip-rule="evenodd" points="234.5,218.1 242.4,210.3 234.5,210.2 					"/>
					<polygon fill-rule="evenodd" clip-rule="evenodd" points="234.4,220.5 242.3,228.5 234.4,228.4 					"/>
					<g>
						<rect x="220.4" y="216" transform="matrix(5.892445e-03 -1 1 5.892445e-03 8.85 447.4996)" width="18.2" height="6.6"/>
						<path d="M229.5,219.3"/>
					</g>
				</g>
			</g>
		</g>
	</g>
</g>
</svg>
