<?xml version="1.0" encoding="utf-8"?>
<!-- Generator: Adobe Illustrator 24.0.2, SVG Export Plug-In . SVG Version: 6.00 Build 0)  -->
<svg version="1.1" xmlns="http://www.w3.org/2000/svg" xmlns:xlink="http://www.w3.org/1999/xlink" x="0px" y="0px"
	 viewBox="0 0 630.6 1000.7" enable-background="new 0 0 751.6 1000.7" xml:space="preserve">

<g id="MASKBL">	
	
<g id="SHIRT_BODY">
	<path fill="#EE4D9B" stroke="#897F76" stroke-width="0.3809" d="M178.2,379c3.6-39.9,66.7-148.7,74.4-157.9
		c5.5-6.5,53.8-63,90.3-106.8c20.7-11,53.3-26.8,76.1-30.5c23.7-3.8,62.4-1.9,85.8-0.2c2.3,3.6,3.7,6.7,3.7,8.7
		c0,9.1,47.2,76.2,61.7,136.1c14.5,59.9-3.6,179.7-12.7,212.4c-9.1,32.7-41.8,119.8-41.8,145.2c0,25.4,46.2,179.4,10.3,343.5
		c-0.8,3.7,23.6,69-124.8-16.9c-84.4-48.9-194.6-18.8-194.6-18.8c-23.9-49.8-19.4-186.2-24.9-227.9c-5.4-41.8,1.8-154.3-3.6-176.1
		C172.8,468,174.6,419,178.2,379z"/>
</g>
	
<g id="STRIPES2">
	<path fill="#FFDA02" d="M513.9,338.9l59.4,0.1c0.3-4,0.6-7.9,0.9-11.9l-58.9-0.1C514.8,331.2,514.3,335.1,513.9,338.9z"/>
</g>
	
<g id="STRIPES1">
	<g>
		<path d="M515.4,326.6l58.9,0.1c0.9-13.1,1.4-26.3,1.5-39l-56.3-0.1C518.4,301.3,516.8,314.8,515.4,326.6z"/>
		<path d="M512.2,378.1l56.8,0.1c1.6-12.3,3.1-25.5,4.3-39l-59.5-0.1c-1.4,10.9-2.4,19.3-2.3,23.4
			C511.6,365.5,511.9,371.2,512.2,378.1z"/>
	</g>
</g>
	

	<g id="SHIRT_STITCH">
	<g>
		<g>
			<g opacity="0.5">
				<g>
					<path opacity="0.5" fill="none" stroke="#000000" stroke-width="0.3709" d="M394.9,910c0.1-9.4,0.1-18.8,0.2-28.2"/>
					<path opacity="0.5" fill="none" stroke="#000000" stroke-width="0.3709" d="M402.5,909.1c0.1-9.4,0.1-18.8,0.2-28.2"/>
					<path opacity="0.5" fill="none" stroke="#000000" stroke-width="0.3709" d="M397.4,909.7c0.1-9.4,0.1-18.8,0.2-28.2"/>
					<path opacity="0.5" fill="none" stroke="#000000" stroke-width="0.3709" d="M400,909.4c0.1-9.4,0.1-18.8,0.2-28.2"/>
					<path opacity="0.5" fill="none" stroke="#000000" stroke-width="0.3709" d="M394.4,881.5c0.3,7,7.8-1.9,8.7,2.8
						c1.5,8.1-7.5,2.8-8.5,5.6c-2.9,8,7.6,3.1,8.1,4.2c3.5,7.1-7.6,5.8-8,6.5c-2.9,6,2.6,5.1,3.4,5c1.5-0.2,5.7-2.9,4.9,3.2"/>
					<path opacity="0.5" fill="none" stroke="#000000" stroke-width="0.3709" d="M394.4,910.6c-1.7-9.2,7-3,8.3-5.8
						c3.7-8-7.5-4.3-7.8-4.8c-4.3-6.9,7.4-6.4,7.6-6.7c4.1-7.3-7-3.9-7.3-4.3c-2.6-3.5,0.5-5.3,1.8-5.7c2-0.6,4.4,0.5,6.2-1.3"/>
					<path opacity="0.5" fill="none" stroke="#000000" stroke-width="0.3709" d="M397,910.3c1.9-1.4,3.8-2.7,5.7-4.1"/>
					<line opacity="0.5" fill="none" stroke="#000000" stroke-width="0.3709" x1="394.3" y1="906.8" x2="402.8" y2="900.7"/>
					<line opacity="0.5" fill="none" stroke="#000000" stroke-width="0.3709" x1="394.3" y1="901.4" x2="402.8" y2="895.3"/>
					<line opacity="0.5" fill="none" stroke="#000000" stroke-width="0.3709" x1="394.3" y1="895.2" x2="402.8" y2="889.1"/>
					<line opacity="0.5" fill="none" stroke="#000000" stroke-width="0.3709" x1="394.4" y1="889.4" x2="402.9" y2="883.3"/>
				</g>
				<g>
					<line opacity="0.5" fill="none" stroke="#000000" stroke-width="0.3709" x1="395.1" y1="881.4" x2="395.7" y2="803.8"/>
					<line opacity="0.5" fill="none" stroke="#000000" stroke-width="0.3709" x1="402.7" y1="880.5" x2="403.3" y2="802.8"/>
					<line opacity="0.5" fill="none" stroke="#000000" stroke-width="0.3709" x1="397.7" y1="881.1" x2="398.2" y2="803.4"/>
					<line opacity="0.5" fill="none" stroke="#000000" stroke-width="0.3709" x1="400.2" y1="880.8" x2="400.8" y2="803.1"/>
					<path opacity="0.5" fill="none" stroke="#000000" stroke-width="0.3709" d="M395,803.4c0,2.4,0.7,2.5,0.7,2.5l7.5-1
						c0,0,0.5-1.2,0.5,1.8c0,3-0.6,3.6-0.6,3.6l-7.6,1c0,0-0.5-0.1-0.6,2.5c0,2.6,0.6,2.9,0.6,2.9l7.5-1c0,0,0.5,0.1,0.5,2.8
						c0,2.6-0.7,2.9-0.7,2.9l-7.5,1c0,0-0.5,0.4-0.5,2.7c0,2.2,0.5,2.9,0.5,2.9l7.7-1c0,0,0.5,0,0.5,2.6c0,2.8-0.5,3.3-0.5,3.3
						l-7.7,1c0,0-0.6-0.1-0.6,2.9c0,3,0.7,2.9,0.7,2.9l7.5-0.9c0,0,0.5-0.1,0.5,2.6c0,2.6-0.6,3.4-0.6,3.4l-7.5,1
						c0,0-0.6,0.4-0.6,3.1c0,2.6,0.6,2.7,0.6,2.7l7.4-0.9c0,0,0.7-0.5,0.7,2.2c0,2.6-0.8,3.1-0.8,3.1l-7.4,0.9c0,0-0.5-0.7-0.6,2.3
						c0,3,0.6,3.3,0.6,3.3l7.3-0.9c0,0,0.8-0.1,0.8,2.7c0,2.8-0.8,3.2-0.8,3.2l-7.3,0.9c0,0-0.6-0.4-0.6,2.2c0,2.6,0.6,2.9,0.6,2.9
						l7.3-0.9c0,0,0.8-0.1,0.7,2.5c0,2.6-0.8,2.9-0.8,2.9l-7.4,0.9l-0.6,0.6"/>
					<path opacity="0.5" fill="none" stroke="#000000" stroke-width="0.3709" d="M403.2,880.2c0-2.4-0.7-2.5-0.7-2.5l-7.5,0.9
						c0,0-0.5,1.2-0.5-1.8c0-3,0.6-3.6,0.6-3.6l7.6-0.9c0,0,0.5,0.1,0.6-2.5c0-2.6-0.6-2.9-0.6-2.9l-7.5,0.9c0,0-0.5-0.1-0.5-2.8
						c0-2.6,0.7-2.9,0.7-2.9l7.5-1c0,0,0.5-0.4,0.5-2.7c0-2.2-0.5-2.9-0.5-2.9l-7.7,1c0,0-0.5,0.1-0.5-2.6c0-2.8,0.5-3.2,0.5-3.2
						l7.7-1c0,0,0.6,0.1,0.6-2.9c0-3-0.7-2.9-0.7-2.9l-7.5,0.9c0,0-0.5,0.1-0.5-2.6c0-2.6,0.6-3.4,0.6-3.4l7.5-1
						c0,0,0.6-0.4,0.6-3.1c0-2.6-0.6-2.7-0.6-2.7l-7.4,0.9c0,0-0.7,0.5-0.7-2.2c0-2.6,0.8-3.1,0.8-3.1l7.4-0.9c0,0,0.5,0.7,0.6-2.3
						c0-3-0.6-3.3-0.6-3.3l-7.3,0.9c0,0-0.8,0.1-0.8-2.7c0-2.8,0.8-3.2,0.8-3.2l7.3-0.9c0,0,0.6,0.4,0.6-2.2c0-2.6-0.6-2.9-0.6-2.9
						l-7.3,0.9c0,0-0.8,0.1-0.8-2.5c0-2.6,0.8-2.9,0.8-2.9l7.4-0.9l0.6-0.6"/>
					<line opacity="0.5" fill="none" stroke="#000000" stroke-width="0.3709" x1="394.5" y1="878.6" x2="403" y2="872.5"/>
					<line opacity="0.5" fill="none" stroke="#000000" stroke-width="0.3709" x1="394.5" y1="873.6" x2="403" y2="867.5"/>
					<line opacity="0.5" fill="none" stroke="#000000" stroke-width="0.3709" x1="394.6" y1="867.3" x2="403" y2="861.1"/>
					<line opacity="0.5" fill="none" stroke="#000000" stroke-width="0.3709" x1="394.6" y1="861.8" x2="403.1" y2="855.7"/>
					<line opacity="0.5" fill="none" stroke="#000000" stroke-width="0.3709" x1="394.6" y1="857.1" x2="403.1" y2="851"/>
					<line opacity="0.5" fill="none" stroke="#000000" stroke-width="0.3709" x1="394.7" y1="851.6" x2="403.2" y2="845.5"/>
					<line opacity="0.5" fill="none" stroke="#000000" stroke-width="0.3709" x1="394.7" y1="846" x2="403.2" y2="839.9"/>
					<line opacity="0.5" fill="none" stroke="#000000" stroke-width="0.3709" x1="394.8" y1="839.8" x2="403.3" y2="833.7"/>
					<line opacity="0.5" fill="none" stroke="#000000" stroke-width="0.3709" x1="394.8" y1="834.2" x2="403.3" y2="828.1"/>
					<line opacity="0.5" fill="none" stroke="#000000" stroke-width="0.3709" x1="394.8" y1="828.8" x2="403.3" y2="822.6"/>
					<line opacity="0.5" fill="none" stroke="#000000" stroke-width="0.3709" x1="394.9" y1="823.3" x2="403.4" y2="817.2"/>
					<line opacity="0.5" fill="none" stroke="#000000" stroke-width="0.3709" x1="394.9" y1="817.1" x2="403.4" y2="811"/>
					<line opacity="0.5" fill="none" stroke="#000000" stroke-width="0.3709" x1="395" y1="811.3" x2="403.5" y2="805.2"/>
				</g>
				<g>
					<line opacity="0.5" fill="none" stroke="#000000" stroke-width="0.3709" x1="395.7" y1="803.4" x2="396.2" y2="725.7"/>
					<line opacity="0.5" fill="none" stroke="#000000" stroke-width="0.3709" x1="403.3" y1="802.4" x2="403.9" y2="724.7"/>
					<line opacity="0.5" fill="none" stroke="#000000" stroke-width="0.3709" x1="398.2" y1="803" x2="398.8" y2="725.3"/>
					<line opacity="0.5" fill="none" stroke="#000000" stroke-width="0.3709" x1="400.8" y1="802.7" x2="401.3" y2="725"/>
					<path opacity="0.5" fill="none" stroke="#000000" stroke-width="0.3709" d="M395.6,725.4c0,2.4,0.7,2.5,0.7,2.5l7.5-1
						c0,0,0.5-1.2,0.5,1.8c0,3-0.6,3.6-0.6,3.6l-7.6,1c0,0-0.5-0.1-0.6,2.5c0,2.6,0.6,2.9,0.6,2.9l7.5-1c0,0,0.5,0.1,0.5,2.7
						c0,2.6-0.7,2.9-0.7,2.9l-7.5,1c0,0-0.5,0.4-0.5,2.7c0,2.3,0.5,3,0.5,3l7.7-1c0,0,0.5-0.1,0.5,2.6c0,2.8-0.5,3.2-0.5,3.2l-7.7,1
						c0,0-0.6-0.1-0.6,2.9c0,3,0.7,2.9,0.7,2.9l7.5-0.9c0,0,0.5-0.1,0.5,2.6c0,2.6-0.6,3.5-0.6,3.5l-7.5,1c0,0-0.6,0.5-0.6,3.1
						c0,2.6,0.6,2.7,0.6,2.7l7.4-1c0,0,0.7-0.5,0.7,2.2c0,2.6-0.8,3.1-0.8,3.1l-7.4,0.9c0,0-0.5-0.7-0.6,2.3c0,3,0.6,3.3,0.6,3.3
						l7.3-0.9c0,0,0.8-0.1,0.8,2.7c0,2.8-0.8,3.2-0.8,3.2l-7.3,0.9c0,0-0.6-0.4-0.6,2.2c0,2.6,0.6,2.9,0.6,2.9l7.3-0.9
						c0,0,0.8-0.1,0.7,2.5c0,2.6-0.8,2.9-0.8,2.9l-7.4,0.9l-0.6,0.6"/>
					<path opacity="0.5" fill="none" stroke="#000000" stroke-width="0.3709" d="M403.8,802.1c0-2.4-0.7-2.5-0.7-2.5l-7.5,1
						c0,0-0.5,1.2-0.5-1.8c0-3,0.6-3.6,0.6-3.6l7.6-1c0,0,0.5,0.1,0.6-2.5c0-2.6-0.6-2.9-0.6-2.9l-7.5,0.9c0,0-0.5-0.1-0.5-2.7
						c0-2.6,0.7-2.9,0.7-2.9l7.5-1c0,0,0.5-0.4,0.5-2.7c0-2.3-0.5-2.9-0.5-2.9l-7.7,1c0,0-0.5,0.1-0.5-2.6c0-2.8,0.5-3.3,0.5-3.3
						l7.7-1c0,0,0.6,0.1,0.6-2.9c0-3-0.7-2.9-0.7-2.9l-7.5,1c0,0-0.5,0.1-0.5-2.6c0-2.6,0.6-3.4,0.6-3.4l7.5-1c0,0,0.6-0.5,0.6-3.1
						c0-2.6-0.6-2.7-0.6-2.7l-7.4,0.9c0,0-0.7,0.5-0.7-2.1c0-2.6,0.8-3.1,0.8-3.1l7.4-0.9c0,0,0.5,0.7,0.6-2.3c0-3-0.6-3.3-0.6-3.3
						l-7.3,0.9c0,0-0.8,0.1-0.8-2.7c0-2.8,0.8-3.2,0.8-3.2l7.3-0.9c0,0,0.6,0.4,0.6-2.2c0-2.6-0.6-2.9-0.6-2.9l-7.3,0.9
						c0,0-0.8,0.1-0.7-2.5c0-2.6,0.8-2.9,0.8-2.9l7.4-0.9l0.6-0.6"/>
					<line opacity="0.5" fill="none" stroke="#000000" stroke-width="0.3709" x1="395" y1="800.5" x2="403.5" y2="794.4"/>
					<line opacity="0.5" fill="none" stroke="#000000" stroke-width="0.3709" x1="395.1" y1="795.5" x2="403.6" y2="789.4"/>
					<line opacity="0.5" fill="none" stroke="#000000" stroke-width="0.3709" x1="395.1" y1="789.2" x2="403.6" y2="783"/>
					<line opacity="0.5" fill="none" stroke="#000000" stroke-width="0.3709" x1="395.2" y1="783.7" x2="403.7" y2="777.6"/>
					<line opacity="0.5" fill="none" stroke="#000000" stroke-width="0.3709" x1="395.2" y1="779" x2="403.7" y2="772.9"/>
					<line opacity="0.5" fill="none" stroke="#000000" stroke-width="0.3709" x1="395.2" y1="773.6" x2="403.7" y2="767.4"/>
					<line opacity="0.5" fill="none" stroke="#000000" stroke-width="0.3709" x1="395.3" y1="767.9" x2="403.8" y2="761.8"/>
					<line opacity="0.5" fill="none" stroke="#000000" stroke-width="0.3709" x1="395.3" y1="761.7" x2="403.8" y2="755.6"/>
					<line opacity="0.5" fill="none" stroke="#000000" stroke-width="0.3709" x1="395.4" y1="756.1" x2="403.9" y2="750"/>
					<line opacity="0.5" fill="none" stroke="#000000" stroke-width="0.3709" x1="395.4" y1="750.7" x2="403.9" y2="744.5"/>
					<line opacity="0.5" fill="none" stroke="#000000" stroke-width="0.3709" x1="395.4" y1="745.2" x2="403.9" y2="739.1"/>
					<line opacity="0.5" fill="none" stroke="#000000" stroke-width="0.3709" x1="395.5" y1="739" x2="404" y2="732.9"/>
					<line opacity="0.5" fill="none" stroke="#000000" stroke-width="0.3709" x1="395.5" y1="733.2" x2="404" y2="727.1"/>
				</g>
				<g>
					<line opacity="0.5" fill="none" stroke="#000000" stroke-width="0.3709" x1="396.2" y1="725.3" x2="396.8" y2="647.6"/>
					<line opacity="0.5" fill="none" stroke="#000000" stroke-width="0.3709" x1="403.9" y1="724.3" x2="404.4" y2="646.6"/>
					<line opacity="0.5" fill="none" stroke="#000000" stroke-width="0.3709" x1="398.8" y1="724.9" x2="399.3" y2="647.2"/>
					<line opacity="0.5" fill="none" stroke="#000000" stroke-width="0.3709" x1="401.3" y1="724.6" x2="401.9" y2="646.9"/>
					<path opacity="0.5" fill="none" stroke="#000000" stroke-width="0.3709" d="M396.1,647.3c0,2.4,0.7,2.5,0.7,2.5l7.5-1
						c0,0,0.5-1.2,0.5,1.8c0,3-0.6,3.6-0.6,3.6l-7.6,1c0,0-0.5-0.1-0.6,2.5c0,2.6,0.6,2.9,0.6,2.9l7.5-1c0,0,0.5,0.1,0.5,2.7
						c0,2.6-0.7,2.9-0.7,2.9l-7.5,1c0,0-0.5,0.4-0.5,2.7c0,2.2,0.5,2.9,0.5,2.9l7.7-1c0,0,0.5-0.1,0.5,2.6c0,2.8-0.5,3.3-0.5,3.3
						l-7.7,1c0,0-0.6-0.1-0.6,2.9c0,3,0.7,2.9,0.7,2.9l7.5-1c0,0,0.5-0.1,0.5,2.6c0,2.6-0.6,3.5-0.6,3.5l-7.5,1c0,0-0.6,0.4-0.6,3.1
						c0,2.6,0.6,2.7,0.6,2.7l7.4-1c0,0,0.7-0.5,0.7,2.2c0,2.6-0.8,3.1-0.8,3.1l-7.4,0.9c0,0-0.5-0.7-0.6,2.3c0,3,0.6,3.3,0.6,3.3
						l7.3-1c0,0,0.8-0.1,0.8,2.7c0,2.8-0.8,3.2-0.8,3.2l-7.3,0.9c0,0-0.6-0.4-0.6,2.2c0,2.6,0.6,2.9,0.6,2.9l7.3-1
						c0,0,0.8-0.1,0.8,2.5c0,2.6-0.8,2.9-0.8,2.9l-7.4,0.9l-0.5,0.6"/>
					<path opacity="0.5" fill="none" stroke="#000000" stroke-width="0.3709" d="M404.4,724c0-2.4-0.7-2.5-0.7-2.5l-7.5,1
						c0,0-0.5,1.2-0.5-1.8c0-3,0.6-3.6,0.6-3.6l7.6-1c0,0,0.5,0.1,0.6-2.5c0-2.6-0.6-2.9-0.6-2.9l-7.5,1c0,0-0.5-0.1-0.5-2.8
						c0-2.6,0.7-2.9,0.7-2.9l7.5-1c0,0,0.5-0.4,0.5-2.7c0-2.2-0.5-2.9-0.5-2.9l-7.7,1c0,0-0.5,0.1-0.5-2.6c0-2.8,0.5-3.3,0.5-3.3
						l7.7-1c0,0,0.6,0.1,0.6-2.9c0-3-0.7-2.9-0.7-2.9l-7.5,1c0,0-0.5,0.1-0.5-2.6c0-2.6,0.6-3.4,0.6-3.4l7.5-1c0,0,0.6-0.5,0.6-3.1
						c0-2.6-0.6-2.7-0.6-2.7l-7.4,1c0,0-0.7,0.5-0.7-2.2c0-2.6,0.8-3.1,0.8-3.1l7.4-1c0,0,0.5,0.7,0.6-2.3c0-3-0.6-3.3-0.6-3.3
						l-7.3,0.9c0,0-0.8,0.1-0.8-2.7c0-2.8,0.8-3.2,0.8-3.2l7.3-0.9c0,0,0.6,0.4,0.6-2.2c0-2.6-0.6-2.9-0.6-2.9l-7.3,0.9
						c0,0-0.8,0.1-0.7-2.5c0-2.6,0.8-2.9,0.8-2.9l7.4-1l0.6-0.6"/>
					<line opacity="0.5" fill="none" stroke="#000000" stroke-width="0.3709" x1="395.6" y1="722.5" x2="404.1" y2="716.3"/>
					<line opacity="0.5" fill="none" stroke="#000000" stroke-width="0.3709" x1="395.6" y1="717.4" x2="404.1" y2="711.3"/>
					<line opacity="0.5" fill="none" stroke="#000000" stroke-width="0.3709" x1="395.7" y1="711.1" x2="404.2" y2="704.9"/>
					<line opacity="0.5" fill="none" stroke="#000000" stroke-width="0.3709" x1="395.7" y1="705.6" x2="404.2" y2="699.5"/>
					<line opacity="0.5" fill="none" stroke="#000000" stroke-width="0.3709" x1="395.8" y1="700.9" x2="404.2" y2="694.7"/>
					<line opacity="0.5" fill="none" stroke="#000000" stroke-width="0.3709" x1="395.8" y1="695.5" x2="404.3" y2="689.3"/>
					<line opacity="0.5" fill="none" stroke="#000000" stroke-width="0.3709" x1="395.8" y1="689.8" x2="404.3" y2="683.7"/>
					<line opacity="0.5" fill="none" stroke="#000000" stroke-width="0.3709" x1="395.9" y1="683.6" x2="404.4" y2="677.5"/>
					<line opacity="0.5" fill="none" stroke="#000000" stroke-width="0.3709" x1="395.9" y1="678" x2="404.4" y2="671.9"/>
					<line opacity="0.5" fill="none" stroke="#000000" stroke-width="0.3709" x1="395.9" y1="672.6" x2="404.4" y2="666.4"/>
					<line opacity="0.5" fill="none" stroke="#000000" stroke-width="0.3709" x1="396" y1="667.1" x2="404.5" y2="661"/>
					<line opacity="0.5" fill="none" stroke="#000000" stroke-width="0.3709" x1="396" y1="661" x2="404.5" y2="654.8"/>
					<line opacity="0.5" fill="none" stroke="#000000" stroke-width="0.3709" x1="396.1" y1="655.1" x2="404.6" y2="649"/>
				</g>
				<g>
					<line opacity="0.5" fill="none" stroke="#000000" stroke-width="0.3709" x1="396.8" y1="647.2" x2="397.3" y2="569.5"/>
					<line opacity="0.5" fill="none" stroke="#000000" stroke-width="0.3709" x1="404.4" y1="646.2" x2="405" y2="568.5"/>
					<line opacity="0.5" fill="none" stroke="#000000" stroke-width="0.3709" x1="399.3" y1="646.8" x2="399.9" y2="569.2"/>
					<line opacity="0.5" fill="none" stroke="#000000" stroke-width="0.3709" x1="401.9" y1="646.5" x2="402.4" y2="568.8"/>
					<path opacity="0.5" fill="none" stroke="#000000" stroke-width="0.3709" d="M396.7,569.2c0,2.4,0.7,2.5,0.7,2.5l7.5-1
						c0,0,0.5-1.2,0.5,1.8c0,3-0.6,3.6-0.6,3.6l-7.6,1c0,0-0.5-0.1-0.6,2.5c0,2.6,0.6,2.9,0.6,2.9l7.5-1c0,0,0.5,0.1,0.5,2.7
						c0,2.6-0.7,2.9-0.7,2.9l-7.5,1c0,0-0.5,0.4-0.5,2.7c0,2.2,0.5,2.9,0.5,2.9l7.7-1c0,0,0.5-0.1,0.5,2.6c0,2.8-0.5,3.3-0.5,3.3
						l-7.7,1c0,0-0.6-0.1-0.6,2.9c0,3,0.7,2.9,0.7,2.9l7.5-1c0,0,0.5-0.1,0.5,2.6c0,2.6-0.6,3.4-0.6,3.4l-7.5,1c0,0-0.6,0.5-0.6,3.1
						c0,2.6,0.6,2.7,0.6,2.7l7.4-1c0,0,0.7-0.5,0.7,2.2c0,2.6-0.8,3.1-0.8,3.1l-7.4,1c0,0-0.5-0.7-0.6,2.3c0,3,0.6,3.3,0.6,3.3
						l7.3-1c0,0,0.8-0.1,0.8,2.7c0,2.8-0.8,3.2-0.8,3.2l-7.3,1c0,0-0.6-0.4-0.6,2.2c0,2.6,0.6,2.9,0.6,2.9l7.3-1
						c0,0,0.8-0.1,0.7,2.5c0,2.6-0.8,2.9-0.8,2.9l-7.4,1l-0.5,0.6"/>
					<path opacity="0.5" fill="none" stroke="#000000" stroke-width="0.3709" d="M404.9,645.9c0-2.4-0.7-2.5-0.7-2.5l-7.6,1
						c0,0-0.5,1.2-0.5-1.8c0-3,0.6-3.6,0.6-3.6l7.6-1c0,0,0.5,0.1,0.6-2.5c0-2.6-0.6-2.9-0.6-2.9l-7.5,1c0,0-0.5-0.1-0.5-2.7
						c0-2.6,0.7-2.9,0.7-2.9l7.5-1c0,0,0.5-0.4,0.5-2.7c0-2.3-0.5-2.9-0.5-2.9l-7.7,1c0,0-0.5,0.1-0.5-2.6c0-2.8,0.5-3.3,0.5-3.3
						l7.7-1c0,0,0.6,0.1,0.6-2.9c0-3-0.7-2.9-0.7-2.9l-7.5,1c0,0-0.5,0.1-0.5-2.6c0-2.6,0.6-3.5,0.6-3.5l7.5-1c0,0,0.6-0.5,0.6-3.1
						c0-2.6-0.6-2.7-0.6-2.7l-7.4,1c0,0-0.7,0.5-0.7-2.2c0-2.6,0.8-3.1,0.8-3.1l7.4-1c0,0,0.5,0.7,0.6-2.3c0-3-0.6-3.3-0.6-3.3
						l-7.3,1c0,0-0.8,0.1-0.8-2.7c0-2.8,0.8-3.2,0.8-3.2l7.3-0.9c0,0,0.6,0.4,0.6-2.3c0-2.6-0.6-2.9-0.6-2.9l-7.3,1
						c0,0-0.8,0.1-0.8-2.5c0-2.6,0.8-2.9,0.8-2.9l7.4-1l0.5-0.6"/>
					<line opacity="0.5" fill="none" stroke="#000000" stroke-width="0.3709" x1="396.1" y1="644.4" x2="404.6" y2="638.2"/>
					<line opacity="0.5" fill="none" stroke="#000000" stroke-width="0.3709" x1="396.2" y1="639.3" x2="404.7" y2="633.2"/>
					<line opacity="0.5" fill="none" stroke="#000000" stroke-width="0.3709" x1="396.2" y1="633" x2="404.7" y2="626.8"/>
					<line opacity="0.5" fill="none" stroke="#000000" stroke-width="0.3709" x1="396.3" y1="627.6" x2="404.8" y2="621.4"/>
					<line opacity="0.5" fill="none" stroke="#000000" stroke-width="0.3709" x1="396.3" y1="622.8" x2="404.8" y2="616.6"/>
					<line opacity="0.5" fill="none" stroke="#000000" stroke-width="0.3709" x1="396.3" y1="617.4" x2="404.8" y2="611.2"/>
					<line opacity="0.5" fill="none" stroke="#000000" stroke-width="0.3709" x1="396.4" y1="611.8" x2="404.9" y2="605.6"/>
					<line opacity="0.5" fill="none" stroke="#000000" stroke-width="0.3709" x1="396.4" y1="605.6" x2="404.9" y2="599.4"/>
					<line opacity="0.5" fill="none" stroke="#000000" stroke-width="0.3709" x1="396.4" y1="599.9" x2="404.9" y2="593.8"/>
					<line opacity="0.5" fill="none" stroke="#000000" stroke-width="0.3709" x1="396.5" y1="594.5" x2="405" y2="588.3"/>
					<line opacity="0.5" fill="none" stroke="#000000" stroke-width="0.3709" x1="396.5" y1="589.1" x2="405" y2="582.9"/>
					<line opacity="0.5" fill="none" stroke="#000000" stroke-width="0.3709" x1="396.6" y1="582.9" x2="405.1" y2="576.7"/>
					<line opacity="0.5" fill="none" stroke="#000000" stroke-width="0.3709" x1="396.6" y1="577.1" x2="405.1" y2="570.9"/>
				</g>
				<g>
					<line opacity="0.5" fill="none" stroke="#000000" stroke-width="0.3709" x1="397.3" y1="569.1" x2="397.9" y2="491.4"/>
					<line opacity="0.5" fill="none" stroke="#000000" stroke-width="0.3709" x1="405" y1="568.1" x2="405.5" y2="490.4"/>
					<line opacity="0.5" fill="none" stroke="#000000" stroke-width="0.3709" x1="399.9" y1="568.7" x2="400.4" y2="491.1"/>
					<line opacity="0.5" fill="none" stroke="#000000" stroke-width="0.3709" x1="402.4" y1="568.4" x2="402.9" y2="490.7"/>
					<path opacity="0.5" fill="none" stroke="#000000" stroke-width="0.3709" d="M397.2,491.1c0,2.4,0.7,2.5,0.7,2.5l7.5-1
						c0,0,0.5-1.2,0.5,1.8c0,3-0.6,3.6-0.6,3.6l-7.6,1c0,0-0.5-0.1-0.6,2.5c0,2.6,0.6,2.9,0.6,2.9l7.5-1c0,0,0.5,0.1,0.5,2.7
						c0,2.6-0.7,2.9-0.7,2.9l-7.5,1c0,0-0.5,0.4-0.5,2.7c0,2.3,0.5,2.9,0.5,2.9l7.7-1c0,0,0.5-0.1,0.5,2.6c0,2.8-0.5,3.3-0.5,3.3
						l-7.7,1c0,0-0.6-0.1-0.6,2.9c0,3,0.7,2.9,0.7,2.9l7.5-1c0,0,0.5-0.1,0.5,2.5c0,2.6-0.6,3.5-0.6,3.5l-7.5,1c0,0-0.6,0.4-0.6,3.1
						c0,2.6,0.6,2.7,0.6,2.7l7.4-1c0,0,0.7-0.5,0.7,2.1c0,2.6-0.8,3.1-0.8,3.1l-7.4,1c0,0-0.5-0.7-0.6,2.3c0,3,0.6,3.3,0.6,3.3
						l7.3-1c0,0,0.8-0.1,0.8,2.7c0,2.8-0.8,3.2-0.8,3.2l-7.3,1c0,0-0.6-0.4-0.6,2.2c0,2.6,0.6,2.9,0.6,2.9l7.3-1
						c0,0,0.8-0.1,0.8,2.5c0,2.6-0.8,2.9-0.8,2.9l-7.4,1l-0.6,0.6"/>
					<path opacity="0.5" fill="none" stroke="#000000" stroke-width="0.3709" d="M405.5,567.8c0-2.5-0.7-2.5-0.7-2.5l-7.5,1
						c0,0-0.5,1.2-0.5-1.8c0-3,0.6-3.6,0.6-3.6l7.6-1c0,0,0.5,0.1,0.6-2.5c0-2.6-0.6-2.9-0.6-2.9l-7.5,1c0,0-0.5-0.1-0.5-2.7
						c0-2.6,0.7-2.9,0.7-2.9l7.5-1c0,0,0.5-0.4,0.5-2.7c0-2.2-0.5-2.9-0.5-2.9l-7.7,1c0,0-0.5,0.1-0.5-2.6c0-2.8,0.5-3.3,0.5-3.3
						l7.7-1c0,0,0.6,0.1,0.6-2.9c0-3-0.7-2.9-0.7-2.9l-7.5,1c0,0-0.5,0.1-0.5-2.6c0-2.6,0.6-3.4,0.6-3.4l7.5-1c0,0,0.6-0.5,0.6-3.1
						c0-2.6-0.6-2.7-0.6-2.7l-7.4,1c0,0-0.7,0.5-0.7-2.2c0-2.6,0.8-3.1,0.8-3.1l7.4-1c0,0,0.5,0.7,0.6-2.3c0-3-0.6-3.3-0.6-3.3
						l-7.3,1c0,0-0.8,0.1-0.8-2.7c0-2.8,0.8-3.2,0.8-3.2l7.3-1c0,0,0.6,0.4,0.6-2.2c0-2.6-0.6-2.9-0.6-2.9l-7.3,1
						c0,0-0.8,0.1-0.8-2.5c0-2.6,0.8-2.9,0.8-2.9l7.4-1l0.6-0.6"/>
					<line opacity="0.5" fill="none" stroke="#000000" stroke-width="0.3709" x1="396.7" y1="566.3" x2="405.2" y2="560.1"/>
					<line opacity="0.5" fill="none" stroke="#000000" stroke-width="0.3709" x1="396.7" y1="561.3" x2="405.2" y2="555.1"/>
					<line opacity="0.5" fill="none" stroke="#000000" stroke-width="0.3709" x1="396.8" y1="554.9" x2="405.3" y2="548.7"/>
					<line opacity="0.5" fill="none" stroke="#000000" stroke-width="0.3709" x1="396.8" y1="549.5" x2="405.3" y2="543.3"/>
					<line opacity="0.5" fill="none" stroke="#000000" stroke-width="0.3709" x1="396.8" y1="544.7" x2="405.3" y2="538.5"/>
					<line opacity="0.5" fill="none" stroke="#000000" stroke-width="0.3709" x1="396.9" y1="539.3" x2="405.4" y2="533.1"/>
					<line opacity="0.5" fill="none" stroke="#000000" stroke-width="0.3709" x1="396.9" y1="533.7" x2="405.4" y2="527.5"/>
					<line opacity="0.5" fill="none" stroke="#000000" stroke-width="0.3709" x1="396.9" y1="527.5" x2="405.4" y2="521.3"/>
					<line opacity="0.5" fill="none" stroke="#000000" stroke-width="0.3709" x1="397" y1="521.8" x2="405.5" y2="515.7"/>
					<line opacity="0.5" fill="none" stroke="#000000" stroke-width="0.3709" x1="397" y1="516.4" x2="405.5" y2="510.2"/>
					<line opacity="0.5" fill="none" stroke="#000000" stroke-width="0.3709" x1="397.1" y1="511" x2="405.5" y2="504.8"/>
					<line opacity="0.5" fill="none" stroke="#000000" stroke-width="0.3709" x1="397.1" y1="504.8" x2="405.6" y2="498.6"/>
					<line opacity="0.5" fill="none" stroke="#000000" stroke-width="0.3709" x1="397.1" y1="499" x2="405.6" y2="492.8"/>
				</g>
				<g>
					<path opacity="0.5" fill="none" stroke="#000000" stroke-width="0.3709" d="M397.9,491"/>
					<path opacity="0.5" fill="none" stroke="#000000" stroke-width="0.3709" d="M405.5,490"/>
					<path opacity="0.5" fill="none" stroke="#000000" stroke-width="0.3709" d="M400.4,490.7"/>
					<path opacity="0.5" fill="none" stroke="#000000" stroke-width="0.3709" d="M402.9,490.3"/>
					<path opacity="0.5" fill="none" stroke="#000000" stroke-width="0.3709" d="M397.5,458.4c0,2.6,0.6,2.7,0.6,2.7l7.4-1
						c0,0,0.7-0.5,0.7,2.2c0,2.6-0.8,3.1-0.8,3.1l-7.4,1c0,0-0.5-0.7-0.6,2.3c0,3,0.6,3.3,0.6,3.3l7.3-1c0,0,0.8-0.1,0.8,2.7
						c0,2.8-0.8,3.2-0.8,3.2l-7.3,1c0,0-0.6-0.4-0.6,2.2c0,2.6,0.6,2.9,0.6,2.9l7.3-1c0,0,0.8-0.1,0.8,2.5c0,2.6-0.8,2.9-0.8,2.9
						l-7.4,1l-0.5,0.6"/>
					<path opacity="0.5" fill="none" stroke="#000000" stroke-width="0.3709" d="M406,489.7c0-2.4-0.7-2.5-0.7-2.5l-7.5,1
						c0,0-0.5,1.2-0.5-1.8c0-3,0.6-3.6,0.6-3.6l7.6-1c0,0,0.5,0.1,0.6-2.5c0-2.6-0.6-2.9-0.6-2.9l-7.5,1c0,0-0.5-0.1-0.5-2.7
						c0-2.6,0.7-2.9,0.7-2.9l7.5-1c0,0,0.5-0.4,0.5-2.7c0-2.3-0.5-2.9-0.5-2.9l-7.7,1c0,0-0.5,0.1-0.5-2.6c0-2.8,0.5-3.3,0.5-3.3
						l7.7-1"/>
					<line opacity="0.5" fill="none" stroke="#000000" stroke-width="0.3709" x1="397.2" y1="488.2" x2="405.7" y2="482"/>
					<line opacity="0.5" fill="none" stroke="#000000" stroke-width="0.3709" x1="397.2" y1="483.2" x2="405.7" y2="477"/>
					<line opacity="0.5" fill="none" stroke="#000000" stroke-width="0.3709" x1="397.3" y1="476.8" x2="405.8" y2="470.6"/>
					<line opacity="0.5" fill="none" stroke="#000000" stroke-width="0.3709" x1="397.3" y1="471.4" x2="405.8" y2="465.2"/>
					<line opacity="0.5" fill="none" stroke="#000000" stroke-width="0.3709" x1="397.3" y1="466.6" x2="405.8" y2="460.5"/>
					<path opacity="0.5" fill="none" stroke="#000000" stroke-width="0.3709" d="M397.4,461.2"/>
				</g>
			</g>
			<g>
				
					<path opacity="0.35" fill="none" stroke="#000000" stroke-width="1.1447" stroke-miterlimit="10" stroke-dasharray="0.9833,0.9837" d="
					M315,409.7c0,0,57.5,7.3,96.2,6.2s102-11.8,102-11.8"/>
				
					<path opacity="0.35" fill="none" stroke="#000000" stroke-width="1.1447" stroke-miterlimit="10" stroke-dasharray="0.9833,0.9837" d="
					M315.8,415.5c0,0,57.5,7.3,96.2,6.2c38.6-1.1,102-11.8,102-11.8"/>
			</g>
		</g>
	</g>
</g>
	
</g>	
<g id="CUSTOM"></g>	
<g id="SLEEVES">
	<g>
		
			<image overflow="visible" opacity="0.2" width="255" height="368" xlink:href="/SVG/SBDUS63/E3718E42.png"  transform="matrix(1 0 0 1 284.4215 107.7072)">
		</image>
		<g>
			<path fill="#FDBB2D" d="M301.9,242.3c1.5-43.7,13-101.6,72.8-112.8c59.8-11.2,95.9,7.1,95.9,7.1s19.2,7.8,29,32.7
				c9.8,24.9,20.2,64.8,20.7,83c1.3,42.4-9.2,97.5-8.8,110.3c0.3,12.8,3.9,75.4,3.9,75.4s-11.8,15.7-100.7,18.5
				c-90,2.9-100-17.1-100-17.1s2-83.3-0.4-94.6C312.1,333.5,300.4,286,301.9,242.3z"/>
			<path fill="none" stroke="#897F76" stroke-width="0.3461" d="M301.9,242.3c1.5-43.7,13-101.6,72.8-112.8
				c59.8-11.2,95.9,7.1,95.9,7.1s19.2,7.8,29,32.7c9.8,24.9,20.2,64.8,20.7,83c1.3,42.4-9.2,97.5-8.8,110.3
				c0.3,12.8,3.9,75.4,3.9,75.4s-11.8,15.7-100.7,18.5c-90,2.9-100-17.1-100-17.1s2-83.3-0.4-94.6
				C312.1,333.5,300.4,286,301.9,242.3z"/>
		</g>
	</g>
</g>
	
<g id="COLLAR">
	<path fill="#004D86" d="M418.5,84.8c-23.2,3.7-56.4,19.8-77.4,31c19.7-23.6,36.5-43.2,42.9-48.3c18.5-14.8,94.1-16.6,94.1-16.6
		s19.2,20.4,27.6,33.6C481.9,82.8,442.6,80.9,418.5,84.8z"/>
</g>
	

	
<g id="SHADING">
	<g opacity="2.000000e-02">
		<path d="M516.5,278.6c0.2,3,0.3,4.8,0.3,4.8S516.7,281.6,516.5,278.6 M472.9,188.9c0,0,23.4,27.7,33.2,46
			c7.4,13.8,9.7,34.4,10.3,43.7c-0.7-12.5-3.1-46.3-8.2-61.5C501.9,198.4,472.9,188.9,472.9,188.9"/>
		<path d="M465.2,218.1c0,0,13.9,5.9,30.2,20.7c16.3,14.8,18,29.6,18,29.6L465.2,218.1"/>
		<path d="M426.7,289.1c0,0,16.6,12.3,32,27c15.4,14.7,50.7,72.1,50.7,72.1s-38.2-39.7-46.2-52.7
			C455.4,322.6,426.7,289.1,426.7,289.1"/>
		<path d="M402.4,328.3c0,0,13.2,11.9,20.9,19.6c7.7,7.8,34,24.6,34,24.6s-26-5.6-36.2-13.7C410.9,350.8,402.4,328.3,402.4,328.3"/>
		<path d="M467.7,659.9l27.5,95.6c0,0-22.4-31.9-26.1-50.7C465.6,686,467.7,659.9,467.7,659.9"/>
		<path d="M456.2,696.9c0,0-1.4,10.1,2.2,23.2c3.6,13,21.7,31.1,21.7,31.1s-23.9-16.7-27.5-21.7
			C448.9,724.4,456.2,696.9,456.2,696.9"/>
	</g>
</g>
	

</svg>
