<?xml version="1.0" encoding="utf-8"?>
<!-- Generator: Adobe Illustrator 15.0.0, SVG Export Plug-In . SVG Version: 6.00 Build 0)  -->
<!DOCTYPE svg PUBLIC "-//W3C//DTD SVG 1.1//EN" "http://www.w3.org/Graphics/SVG/1.1/DTD/svg11.dtd">
<svg version="1.1" id="Layer_1" xmlns="http://www.w3.org/2000/svg" xmlns:xlink="http://www.w3.org/1999/xlink" x="0px" y="0px"
	 width="612px" height="792px" viewBox="0 0 612 992" enable-background="new 0 0 612 792" xml:space="preserve">
<g>
	<defs>
		<rect id="SVGID_1_" width="612" height="792"/>
	</defs>
	<clipPath id="SVGID_2_">
		<use xlink:href="#SVGID_1_"  overflow="visible"/>
	</clipPath>
	<g clip-path="url(#SVGID_2_)" id="BODY">
		<defs>
			<rect id="SVGID_3_" width="612" height="792"/>
		</defs>
		<clipPath id="SVGID_4_">
			<use xlink:href="#SVGID_3_"  overflow="visible"/>
		</clipPath>
		<path clip-path="url(#SVGID_4_)" fill="#BF2A43" d="M582.088,482.653c-0.24-15.116-2.879-47.988-5.038-58.305
			c-2.16-10.315-8.637-40.064-11.276-55.663c-2.641-15.595-6.239-46.785-6.719-48.225c-0.479-1.439-6.238-23.272-8.396-28.071
			c-2.159-4.798-12.238-35.749-12.718-37.189c-0.479-1.439-5.518-17.994-5.758-20.153c-0.241-2.16-6.479-20.155-7.198-23.034
			c-0.719-2.88-1.438-17.755-1.918-20.395c-0.481-2.638-2.641-19.434-3.361-23.511c-0.721-4.079-3.117-13.676-3.837-15.116
			c-0.72-1.441-1.439-6.479-1.439-7.918s0.479-3.36,0.24-4.56c-0.24-1.199-1.201-3.358-1.201-4.797c0-1.44,1.44-6.239,0.961-8.638
			c-0.48-2.399-2.4-4.799-2.4-9.358s0.96-8.268,0.96-8.268S472.64,86.69,277.349,85.305c-195.29-1.385-180.032,25.03-180.032,25.03
			l0.045,0.107c-0.407,0.867-0.786,2.147-0.703,2.509c0.142,0.639,0.212,5.885-0.141,8.011c-0.355,2.125-0.853,5.316-1.347,6.592
			c-0.495,1.275-0.214,8.645-0.214,10.064c0,1.418,0.214,5.81,0.283,6.306c0.071,0.497,0.354,5.104-0.423,7.16
			c-0.779,2.055-0.994,2.48-0.994,2.48l-4.254,16.444c0,0-1.913,2.694-2.339,6.592c-0.424,3.898-0.424,6.734-0.424,6.734
			s-1.134,2.979-1.134,5.104c0,2.127,0.142,4.536,0.142,4.536s-0.355,5.175-1.133,9.357c-0.781,4.181-1.277,7.655-1.277,7.655
			s-1.983,6.873-2.126,8.292s-0.639,8.86-0.92,10.916c-0.287,2.056-2.551,13.891-3.899,19.42
			c-1.347,5.529-12.615,42.573-16.456,55.531c-3.841,12.955-11.036,34.069-11.517,37.428c-0.481,3.357-7.437,44.147-8.156,49.904
			c-0.72,5.759-8.88,59.74-9.6,65.021c-0.72,5.281-0.959,31.435-0.239,49.667c0.721,18.234,2.16,44.63,3.6,53.026
			c1.438,8.396,4.795,33.347,5.276,35.984c0.481,2.641,2.403,14.637,2.403,16.557s0.718,8.877,0.718,9.837s-0.481,4.321-0.481,4.321
			s-1.202,2.635-0.48,3.838c0.72,1.199,2.402,2.162,2.402,3.121c0,0.957-0.72,2.88-0.72,2.88v4.074
			c0,0.964,0.72,14.157,1.677,15.596c0.958,1.439,1.681,3.361,4.801,4.081c3.118,0.719,16.316,2.88,26.631,3.598
			c10.317,0.721,50.627,5.52,86.374,1.44s63.1-12.475,63.1-12.475s1.661-0.153,3.187-0.335c-0.15-3.755-0.308-7.857-0.308-8.426
			c0-1.082,2.878-5.759,3.6-7.197c0.719-1.439,0-3.599-1.08-5.04c-1.081-1.438-0.359-3.599,1.08-5.398
			c1.441-1.799,1.08-5.039,1.08-5.039l-1.441-2.52c0,0,4.678-15.835,5.038-20.874c0.362-5.037,8.278-39.228,13.316-59.38
			c5.039-20.156,8.638-56.504,29.871-77.379c13.474-13.246,45.707-16.916,60.823-12.234c15.115,4.678,17.274,24.832,20.873,39.227
			s19.075,91.773,20.515,98.971c1.149,5.743,5.074,41.963,6.613,56.371c1.832,0.02,3.825-0.104,3.825-0.104
			s21.113,6.953,42.706,10.073c21.595,3.122,65.502,5.76,90.453,2.88c24.953-2.88,34.311-5.277,36.471-5.997
			c2.158-0.72,3.599-1.921,4.318-3.6s0.72-5.038,0.72-5.038s3.601-22.074,3.839-24.472c0.239-2.398,2.64-21.595,2.64-22.313
			c0-0.721,0.959-7.919,1.199-9.597c0.239-1.679,3.599-31.433,3.599-33.83S582.328,497.767,582.088,482.653"/>
	</g>
	<g id="CROTCH" clip-path="url(#SVGID_2_)" >
		<defs>
			<rect id="SVGID_5_" width="612" height="792"/>
		</defs>
		<clipPath id="SVGID_6_">
			<use xlink:href="#SVGID_5_"  overflow="visible"/>
		</clipPath>
		<path clip-path="url(#SVGID_6_)" fill="#004D86" d="M361.831,487.448c-3.599-14.396-5.758-34.549-20.873-39.227
			c-15.116-4.682-47.349-1.012-60.823,12.234c-21.233,20.875-24.832,57.222-29.871,77.379c-5.038,20.152-12.954,54.342-13.316,59.38
			c-0.36,5.039-5.038,20.874-5.038,20.874l1.441,2.52c0,0,0.36,3.24-1.081,5.039c-1.439,1.8-2.16,3.96-1.079,5.398
			c1.079,1.441,1.799,3.601,1.079,5.04c-0.721,1.438-3.6,6.115-3.6,7.197c0,0.568,0.159,4.671,0.309,8.426
			c0.396-0.048,0.784-0.097,1.131-0.146c1.683-0.239,6.721-3.117,7.441-4.318c0.719-1.201,2.88-4.558,2.88-4.558l0.476-2.401v-2.638
			c0,0,1.919-8.638,2.161-9.358c0.242-0.719,1.197-3.116,1.439-4.315c0.241-1.203,0.241-3.601,0.241-3.601l1.441-1.92
			c0,0,0.719-3.604,0.719-4.801s0-3.356,0.239-4.559c0.239-1.2,6-12.954,8.397-18.714c2.399-5.757,15.837-41.748,18.717-50.145
			c2.877-8.397,11.274-37.669,12.475-42.469c1.199-4.798,7.194-27.59,7.437-30.95c0.241-3.36,3.359-14.158,3.359-14.158
			l14.156-4.317c0,0,15.357,72.459,22.313,94.054c6.956,21.594,18.473,49.187,18.473,49.187s-0.239,2.638,0.721,4.796
			c0.96,2.16,5.278,11.036,5.999,13.678c0.719,2.639,3.119,11.754,3.119,11.754s-1.202,6.479,2.158,9.838
			c3.36,3.361,7.201,5.518,11.036,6.48c3.841,0.96,7.919,1.92,7.919,1.92s1.68,2.399,3.6,2.64c0.536,0.066,1.223,0.096,1.933,0.104
			c-1.539-14.407-5.464-50.628-6.613-56.371C380.906,579.222,365.43,501.843,361.831,487.448"/>
	</g>
	<g clip-path="url(#SVGID_2_)" id="MId_Strips">
		<defs>
			<rect id="SVGID_7_" width="612" height="792"/>
		</defs>
		<clipPath id="SVGID_8_">
			<use xlink:href="#SVGID_7_"  overflow="visible"/>
		</clipPath>
		<path clip-path="url(#SVGID_8_)" fill="#FFFFFF" d="M144.543,537.055c32.54-0.001,68.498-4.743,108.996-14.307
			c1.389-6.714,2.962-14.063,5.06-21.485c-66.28,16.864-119.422,20.567-164.832,11.7c-19.932-3.893-39.847-10.024-63.659-22.738
			c0.065,5.513,0.189,11.016,0.383,15.94c0.085,2.141,0.179,4.397,0.283,6.721c18.084,8.457,37.165,14.924,58.278,19.046
			C106.493,535.338,124.896,537.055,144.543,537.055"/>
		<path clip-path="url(#SVGID_8_)" fill="#FFFFFF" d="M526.015,542.73c19.837-3.132,37.524-9.34,54.271-17.662
			c0.456-7.607,0.924-15.882,1.271-23.322c-51.717,29.07-108.002,35.726-218.409-8.65c1.277,5.719,3.046,14.057,4.997,23.436
			C432.358,540.661,483.848,549.389,526.015,542.73"/>
		<path clip-path="url(#SVGID_8_)" fill="#FFFFFF" d="M589.799,521.594c0,0.438-0.004,0.862-0.015,1.264
			C589.795,522.456,589.799,522.032,589.799,521.594"/>
		<path clip-path="url(#SVGID_8_)" fill="#FFFFFF" d="M589.782,520.2c0.009,0.387,0.013,0.759,0.015,1.123
			C589.795,520.96,589.791,520.587,589.782,520.2"/>
	</g>
	<g clip-path="url(#SVGID_2_)" id="Side_Strip">
		<defs>
			<rect id="SVGID_9_" width="612" height="792"/>
		</defs>
		<clipPath id="SVGID_10_">
			<use xlink:href="#SVGID_9_"  overflow="visible"/>
		</clipPath>
		<path clip-path="url(#SVGID_10_)" fill="#131F48" d="M109.636,147.668c0.057-1.16,0.116-2.373,0.179-3.659l-8.308-1.486
			c-2.175-0.391-4.309-0.77-6.422-1.139c0.059,1.229,0.123,2.309,0.155,2.54c0.023,0.161,0.068,0.759,0.092,1.558
			c1.909,0.291,3.848,0.588,5.824,0.894L109.636,147.668z"/>
		<path clip-path="url(#SVGID_10_)" fill="#131F48" d="M107.456,166.549c0.248-1.554,0.481-3.018,0.708-4.442l-8.79-0.879
			c-2.502-0.257-4.938-0.512-7.335-0.767l-1.241,4.8c2.607,0.221,5.249,0.437,7.98,0.645L107.456,166.549z"/>
		<path clip-path="url(#SVGID_10_)" fill="#131F48" d="M106.268,172.818c0.326-1.682,0.628-3.247,0.915-4.726l-8.532-0.632
			c-2.823-0.216-5.559-0.438-8.25-0.666l-0.832,3.214c0,0-0.487,0.688-1.025,1.869c3.065,0.199,6.208,0.379,9.453,0.541
			L106.268,172.818z"/>
		<path clip-path="url(#SVGID_10_)" fill="#131F48" d="M109.147,153.993c0.107-1.263,0.216-2.553,0.331-3.911l-8.676-1.322
			c-1.861-0.288-3.685-0.567-5.487-0.842c-0.056,1.18-0.196,2.367-0.498,3.166c-0.157,0.413-0.285,0.744-0.399,1.035
			c1.95,0.251,3.92,0.505,5.939,0.766L109.147,153.993z"/>
		<path clip-path="url(#SVGID_10_)" fill="#131F48" d="M108.419,160.28c0.172-1.405,0.339-2.775,0.51-4.171l-8.838-1.114
			c-2.189-0.282-4.318-0.557-6.424-0.829l-1.162,4.491c2.307,0.245,4.654,0.491,7.059,0.738L108.419,160.28z"/>
		<path clip-path="url(#SVGID_10_)" fill="#131F48" d="M109.904,141.29c0.019-1.081,0.039-2.218,0.059-3.41l-7.757-1.594
			c-2.5-0.514-4.926-1-7.301-1.465c0.024,1.278,0.052,2.344,0.052,2.798c0,0.254,0.008,0.607,0.019,1.014
			c2.297,0.4,4.615,0.809,6.985,1.236L109.904,141.29z"/>
		<path clip-path="url(#SVGID_10_)" fill="#131F48" d="M104.486,180.75l-7.325-0.168c-3.508-0.08-6.908-0.192-10.239-0.338
			c-0.115,1.896-0.116,3.089-0.116,3.089s-0.689,1.813-0.992,3.62c3.392,0.153,6.859,0.274,10.449,0.356
			C100.06,187.396,103.441,184.686,104.486,180.75"/>
		<path clip-path="url(#SVGID_10_)" fill="#131F48" d="M109.949,134.839c-0.265-3.91-2.909-7.155-6.521-7.898
			c-2.633-0.541-5.181-1.047-7.695-1.538c-0.182,0.886-0.373,1.661-0.563,2.151c-0.219,0.564-0.285,2.322-0.292,4.229
			c2.562,0.5,5.184,1.024,7.892,1.58L109.949,134.839z"/>
		<path clip-path="url(#SVGID_10_)" fill="#131F48" d="M105.037,178.448c0.342-1.543,0.664-2.995,0.967-4.366l-8.082-0.391
			c-3.396-0.169-6.68-0.359-9.881-0.568c-0.353,0.985-0.668,2.159-0.812,3.477c-0.049,0.46-0.093,0.903-0.132,1.33
			c3.304,0.145,6.669,0.26,10.149,0.339L105.037,178.448z"/>
		<path clip-path="url(#SVGID_10_)" fill="#131F48" d="M101.138,218.905c0.057-1.16,0.116-2.373,0.179-3.658l-8.308-1.486
			c-3.47-0.625-6.846-1.219-10.167-1.787c-0.331,1.189-0.744,2.702-1.064,3.983c3.521,0.527,7.135,1.078,10.88,1.656
			L101.138,218.905z"/>
		<path clip-path="url(#SVGID_10_)" fill="#131F48" d="M98.957,237.786c0.248-1.554,0.481-3.018,0.708-4.442l-8.79-0.879
			c-3.747-0.385-7.355-0.766-10.876-1.148c-0.233,1.299-0.556,3.018-0.923,4.906c3.623,0.319,7.343,0.626,11.203,0.92
			L98.957,237.786z"/>
		<path clip-path="url(#SVGID_10_)" fill="#131F48" d="M97.77,244.056c0.325-1.682,0.628-3.247,0.915-4.726l-8.532-0.632
			c-3.925-0.3-7.696-0.612-11.378-0.937c-0.338,1.711-0.7,3.498-1.056,5.197c3.797,0.262,7.707,0.495,11.78,0.698L97.77,244.056z"/>
		<path clip-path="url(#SVGID_10_)" fill="#131F48" d="M91.859,224.122l8.79,1.108c0.106-1.263,0.215-2.553,0.331-3.911
			l-8.677-1.322c-3.797-0.586-7.461-1.146-11.028-1.679c-0.065,0.657-0.195,2.43-0.345,4.394c0.557,0.073,1.105,0.143,1.667,0.216
			C85.606,223.316,88.686,223.713,91.859,224.122"/>
		<path clip-path="url(#SVGID_10_)" fill="#131F48" d="M99.921,231.518c0.171-1.405,0.339-2.775,0.509-4.171l-8.837-1.114
			c-3.175-0.41-6.256-0.807-9.265-1.195c-0.527-0.068-1.041-0.135-1.563-0.202c-0.146,1.829-0.294,3.532-0.407,4.359
			c-0.012,0.083-0.028,0.188-0.046,0.303c3.481,0.377,7.051,0.755,10.754,1.135L99.921,231.518z"/>
		<path clip-path="url(#SVGID_10_)" fill="#131F48" d="M101.405,212.527c0.019-1.081,0.038-2.218,0.059-3.41l-7.757-1.594
			c-3.316-0.682-6.509-1.317-9.61-1.913c-0.281,1.662-0.489,3.004-0.6,3.744c3.257,0.558,6.565,1.14,9.965,1.752L101.405,212.527z"
			/>
		<path clip-path="url(#SVGID_10_)" fill="#131F48" d="M95.988,251.988l-7.325-0.168c-4.466-0.102-8.748-0.26-12.942-0.471
			c-0.482,1.718-1.139,3.992-1.923,6.664c4.503,0.242,9.124,0.423,13.967,0.534C91.561,258.634,94.943,255.923,95.988,251.988"/>
		<path clip-path="url(#SVGID_10_)" fill="#131F48" d="M101.45,206.077c-0.264-3.91-2.908-7.155-6.521-7.898
			c-3.235-0.665-6.354-1.282-9.414-1.872c-0.186,1.784-0.461,4.016-0.835,6.025c-0.021,0.117-0.042,0.232-0.063,0.348
			c3.115,0.599,6.323,1.237,9.654,1.921L101.45,206.077z"/>
		<path clip-path="url(#SVGID_10_)" fill="#131F48" d="M96.539,249.686c0.342-1.543,0.664-2.995,0.967-4.366l-8.083-0.391
			c-4.143-0.206-8.112-0.446-11.971-0.712c-0.355,1.657-0.696,3.18-0.993,4.398c-0.031,0.127-0.073,0.288-0.114,0.447
			c4.022,0.197,8.128,0.348,12.402,0.445L96.539,249.686z"/>
		<path clip-path="url(#SVGID_10_)" fill="#131F48" d="M92.639,290.143c0.057-1.16,0.117-2.373,0.18-3.658l-8.309-1.486
			c-6.179-1.113-12.069-2.129-17.847-3.063c-0.416,1.384-0.827,2.755-1.233,4.106c5.969,0.862,12.144,1.791,18.729,2.809
			L92.639,290.143z"/>
		<path clip-path="url(#SVGID_10_)" fill="#131F48" d="M90.458,309.023c0.248-1.554,0.481-3.018,0.708-4.442l-8.79-0.879
			c-7.629-0.783-14.711-1.555-21.547-2.337c-0.303,1.015-0.581,1.949-0.827,2.78c-0.215,0.724-0.441,1.477-0.675,2.247
			c7.115,0.724,14.491,1.381,22.453,1.988L90.458,309.023z"/>
		<path clip-path="url(#SVGID_10_)" fill="#131F48" d="M89.271,315.293c0.325-1.682,0.628-3.247,0.915-4.726l-8.533-0.632
			c-8.086-0.617-15.57-1.285-22.79-2.02c-0.524,1.705-1.082,3.493-1.658,5.319c7.467,0.68,15.288,1.236,23.795,1.659L89.271,315.293
			z"/>
		<path clip-path="url(#SVGID_10_)" fill="#131F48" d="M83.36,295.359l8.79,1.108c0.106-1.263,0.215-2.553,0.33-3.911l-8.676-1.322
			c-6.714-1.037-13-1.983-19.077-2.858c-0.455,1.512-0.899,2.991-1.326,4.411c3.48,0.447,7.027,0.904,10.697,1.378
			C77.106,294.552,80.188,294.95,83.36,295.359"/>
		<path clip-path="url(#SVGID_10_)" fill="#131F48" d="M91.422,302.755c0.172-1.405,0.339-2.775,0.51-4.171l-8.838-1.115
			c-3.175-0.409-6.256-0.806-9.265-1.194c-3.793-0.49-7.456-0.962-11.048-1.424c-0.505,1.685-0.98,3.266-1.415,4.721
			c6.729,0.768,13.701,1.528,21.202,2.298L91.422,302.755z"/>
		<path clip-path="url(#SVGID_10_)" fill="#131F48" d="M92.906,283.765c0.019-1.081,0.039-2.218,0.059-3.41l-7.757-1.594
			c-5.874-1.207-11.378-2.277-16.625-3.222c-0.378,1.262-0.759,2.529-1.138,3.795c5.673,0.919,11.458,1.918,17.518,3.01
			L92.906,283.765z"/>
		<path clip-path="url(#SVGID_10_)" fill="#131F48" d="M87.489,323.225l-7.325-0.168c-9.064-0.207-17.416-0.626-25.669-1.317
			c-0.73,2.278-1.445,4.508-2.114,6.61c8.533,0.748,17.303,1.215,26.885,1.434C83.063,329.871,86.443,327.159,87.489,323.225"/>
		<path clip-path="url(#SVGID_10_)" fill="#131F48" d="M92.952,277.314c-0.264-3.91-2.908-7.155-6.521-7.898
			c-5.281-1.085-10.29-2.061-15.136-2.947c-0.596,2.001-1.218,4.08-1.852,6.201c5.161,0.933,10.567,1.984,16.33,3.168
			L92.952,277.314z"/>
		<path clip-path="url(#SVGID_10_)" fill="#131F48" d="M88.04,320.923c0.342-1.543,0.663-2.995,0.967-4.366l-8.083-0.391
			c-8.624-0.429-16.553-0.989-24.115-1.681c-0.523,1.651-1.056,3.324-1.588,4.989c8.046,0.662,16.196,1.068,25.027,1.27
			L88.04,320.923z"/>
		<path clip-path="url(#SVGID_10_)" fill="#131F48" d="M84.3,360.181c0.052-1.147,0.106-2.346,0.165-3.618l-8.313-1.461
			c-10.232-1.812-19.689-3.378-29.111-4.712c-0.223,1.342-0.465,2.789-0.72,4.312c9.301,1.227,18.879,2.615,29.495,4.217
			L84.3,360.181z"/>
		<path clip-path="url(#SVGID_10_)" fill="#131F48" d="M82.247,378.857c0.235-1.537,0.456-2.985,0.67-4.394l-8.795-0.822
			c-10.976-1.055-20.833-2.093-30.43-3.169c-0.293,1.761-0.58,3.497-0.857,5.175c9.687,1.007,19.646,1.867,30.73,2.63
			L82.247,378.857z"/>
		<path clip-path="url(#SVGID_10_)" fill="#131F48" d="M81.121,385.059c0.309-1.663,0.596-3.211,0.867-4.674l-8.536-0.567
			c-11.137-0.763-21.139-1.625-30.87-2.633c-0.319,1.939-0.619,3.775-0.891,5.46c9.678,0.928,19.82,1.622,31.156,2.084
			L81.121,385.059z"/>
		<path clip-path="url(#SVGID_10_)" fill="#131F48" d="M75.049,365.371l8.795,1.066c0.1-1.25,0.202-2.525,0.309-3.869l-8.681-1.286
			c-10.638-1.599-20.232-2.985-29.548-4.208c-0.249,1.49-0.506,3.03-0.768,4.599c6.624,0.807,13.405,1.65,20.625,2.548
			C68.792,364.594,71.875,364.976,75.049,365.371"/>
		<path clip-path="url(#SVGID_10_)" fill="#131F48" d="M83.159,372.657c0.162-1.39,0.32-2.745,0.48-4.126l-8.843-1.068
			c-3.178-0.393-6.261-0.774-9.271-1.146c-7.255-0.898-14.065-1.742-20.718-2.549c-0.271,1.623-0.543,3.259-0.814,4.888
			c9.561,1.076,19.377,2.114,30.306,3.169L83.159,372.657z"/>
		<path clip-path="url(#SVGID_10_)" fill="#131F48" d="M84.543,353.874c0.016-1.068,0.032-2.191,0.05-3.37l-7.759-1.58
			c-10.537-2.148-19.883-3.862-28.687-5.215c-0.171,1.053-0.397,2.422-0.665,4.03c9.424,1.342,18.884,2.914,29.115,4.733
			L84.543,353.874z"/>
		<path clip-path="url(#SVGID_10_)" fill="#131F48" d="M79.434,392.903l-7.326-0.091c-11.288-0.139-21.482-0.601-31.754-1.511
			c-0.007,0.055-0.017,0.126-0.024,0.176c-0.12,0.966-0.451,3.294-0.92,6.516c10.133,0.882,20.436,1.356,31.895,1.474
			C75.101,399.505,78.439,396.793,79.434,392.903"/>
		<path clip-path="url(#SVGID_10_)" fill="#131F48" d="M84.573,347.501c-0.136-1.929-0.864-3.692-2.011-5.06
			c-0.573-0.683-1.251-1.271-2.013-1.715c-0.77-0.39-1.674-0.209-2.58-0.374c-0.869-0.108-1.73-0.215-2.585-0.321
			c-9.018-1.736-17.284-3.227-25.263-4.469c-0.695,2.282-1.218,4.102-1.477,5.22c8.825,1.366,18.193,3.092,28.749,5.252
			L84.573,347.501z"/>
		<path clip-path="url(#SVGID_10_)" fill="#131F48" d="M79.955,390.626c0.324-1.526,0.628-2.961,0.916-4.317l-8.085-0.32
			c-11.392-0.463-21.576-1.158-31.298-2.087c-0.322,2.005-0.598,3.753-0.804,5.108c10.183,0.907,20.291,1.369,31.479,1.513
			L79.955,390.626z"/>
		<path clip-path="url(#SVGID_10_)" fill="#131F48" d="M76.861,430.358c0.023-1.129,0.048-2.309,0.074-3.56l-8.344-1.266
			c-11.5-1.762-22.022-3.253-32.601-4.451c-0.215,1.446-0.432,2.898-0.649,4.348c10.404,1.088,21.05,2.367,33.007,3.874
			L76.861,430.358z"/>
		<path clip-path="url(#SVGID_10_)" fill="#131F48" d="M75.344,448.748c0.108-0.803,0.214-1.582,0.317-2.347
			c0.083-0.72,0.163-1.421,0.243-2.113l-8.817-0.547c-11.289-0.728-21.401-1.468-31.264-2.257c-0.952-0.083-1.894-0.165-2.842-0.247
			c-0.278,1.865-0.54,3.626-0.782,5.249c10.868,0.857,21.942,1.514,34.443,1.97L75.344,448.748z"/>
		<path clip-path="url(#SVGID_10_)" fill="#131F48" d="M74.295,455.388c0.289-1.78,0.557-3.438,0.811-5.006l-8.555-0.302
			c-12.554-0.477-23.672-1.156-34.583-2.037c-0.327,2.199-0.605,4.077-0.819,5.536c10.805,0.899,22.072,1.487,34.861,1.694
			L74.295,455.388z"/>
		<path clip-path="url(#SVGID_10_)" fill="#131F48" d="M67.755,435.657l8.821,0.83c0.065-1.224,0.131-2.472,0.201-3.786
			l-8.711-1.065c-11.987-1.492-22.655-2.757-33.08-3.83c-0.232,1.559-0.463,3.105-0.69,4.627c7.751,0.729,15.652,1.497,24.164,2.323
			C61.479,435.049,64.571,435.349,67.755,435.657"/>
		<path clip-path="url(#SVGID_10_)" fill="#131F48" d="M76.083,442.54c0.118-1.351,0.232-2.668,0.349-4.011l-8.87-0.819
			c-3.187-0.304-6.279-0.599-9.299-0.887c-8.555-0.816-16.493-1.575-24.281-2.295c-0.251,1.685-0.496,3.327-0.732,4.909
			c10.723,0.892,21.635,1.722,33.952,2.536L76.083,442.54z"/>
		<path clip-path="url(#SVGID_10_)" fill="#131F48" d="M76.951,424.147c-0.008-1.055-0.017-2.165-0.026-3.329l-7.792-1.411
			c-11.932-2.167-22.331-3.816-32.142-5.038c-0.199,1.333-0.401,2.688-0.605,4.058c10.576,1.214,21.096,2.72,32.589,4.498
			L76.951,424.147z"/>
		<path clip-path="url(#SVGID_10_)" fill="#131F48" d="M72.687,463.788l-7.327,0.03c-12.48,0.04-23.622-0.413-35.017-1.439
			c-0.076,1.962-0.137,4.269-0.184,6.82c10.965,1.053,22.028,1.61,34.452,1.664C68.404,470.883,71.726,467.96,72.687,463.788"/>
		<path clip-path="url(#SVGID_10_)" fill="#131F48" d="M76.839,417.845c-0.353-3.821-3.057-6.969-6.683-7.644
			c-11.546-2.146-21.836-3.837-31.788-5.12c-0.295,1.995-0.611,4.128-0.942,6.351c9.834,1.241,20.255,2.908,32.204,5.097
			L76.839,417.845z"/>
		<path clip-path="url(#SVGID_10_)" fill="#131F48" d="M65.392,461.402l7.796-0.052c0.308-1.634,0.598-3.172,0.871-4.624
			l-8.095-0.122c-12.842-0.222-24.155-0.83-35-1.749c-0.107,0.736-0.187,1.297-0.234,1.643c-0.105,0.768-0.199,1.988-0.282,3.551
			C41.825,461.049,52.938,461.474,65.392,461.402"/>
		<path clip-path="url(#SVGID_10_)" fill="#131F48" d="M508.464,144.027l6.096-0.635c0.121-1.045,0.263-2.11,0.109-2.879
			c-0.053-0.265-0.145-0.582-0.25-0.923l-5.91,0.77C508.493,141.646,508.478,142.861,508.464,144.027"/>
		<path clip-path="url(#SVGID_10_)" fill="#131F48" d="M509.442,163.011l8.741-0.232c0.129-0.003,0.255-0.007,0.384-0.01
			c-0.368-1.568-0.771-3.192-1.157-4.671l-8.394,0.439C509.153,159.974,509.294,161.447,509.442,163.011"/>
		<path clip-path="url(#SVGID_10_)" fill="#131F48" d="M509.618,164.566c0.194,1.488,0.4,3.063,0.623,4.767l8.347-0.008
			c0.445,0,0.875-0.003,1.316-0.003c-0.074-0.475-0.141-0.89-0.199-1.215c-0.176-0.999-0.453-2.329-0.781-3.788
			c-0.234,0.006-0.458,0.013-0.692,0.018L509.618,164.566z"/>
		<path clip-path="url(#SVGID_10_)" fill="#131F48" d="M508.554,150.377l6.475-0.506c-0.271-1.446-0.481-3.015-0.563-4.046
			l-5.994,0.624C508.5,147.814,508.527,149.112,508.554,150.377"/>
		<path clip-path="url(#SVGID_10_)" fill="#131F48" d="M508.878,156.699l8.044-0.42c-0.446-1.608-0.831-2.841-1.054-3.288
			c-0.123-0.246-0.246-0.603-0.365-1.024l-6.866,0.537C508.718,153.915,508.797,155.293,508.878,156.699"/>
		<path clip-path="url(#SVGID_10_)" fill="#131F48" d="M508.583,137.635l5.057-0.659c-0.103-0.449-0.172-0.881-0.172-1.26
			c0-0.471,0.154-1.303,0.344-2.289l-5.089,0.797C508.674,135.411,508.627,136.55,508.583,137.635"/>
		<path clip-path="url(#SVGID_10_)" fill="#131F48" d="M511.562,177.343c0.847,3.974,4.099,6.856,7.892,6.95
			c0.863,0.021,1.713,0.039,2.563,0.057c-0.294-2.141-0.616-4.505-0.93-6.778c-0.704-0.015-1.405-0.03-2.12-0.047L511.562,177.343z"
			/>
		<path clip-path="url(#SVGID_10_)" fill="#131F48" d="M508.905,131.184l5.45-0.854c0.168-1.215,0.245-2.389,0.073-3.251
			c-0.174-0.87-0.539-1.743-0.932-2.715C511.023,125.62,509.261,128.159,508.905,131.184"/>
		<path clip-path="url(#SVGID_10_)" fill="#131F48" d="M510.429,170.608c0.223,1.378,0.458,2.842,0.711,4.41l7.855,0.192
			c0.597,0.015,1.181,0.027,1.77,0.04c-0.242-1.737-0.47-3.34-0.665-4.653c-0.503,0.001-0.993,0.003-1.5,0.003L510.429,170.608z"/>
		<path clip-path="url(#SVGID_10_)" fill="#131F48" d="M512.773,211.976c-0.016,1.285-0.03,2.501-0.045,3.667l8.467-0.882
			c1.514-0.155,3-0.303,4.475-0.447c-0.332-1.05-0.574-1.857-0.685-2.3c-0.09-0.358-0.179-0.9-0.268-1.58
			c-1.199,0.148-2.407,0.3-3.632,0.459L512.773,211.976z"/>
		<path clip-path="url(#SVGID_10_)" fill="#131F48" d="M513.281,230.152c0.138,1.438,0.277,2.911,0.426,4.475l8.741-0.233
			c3.271-0.081,6.444-0.165,9.541-0.255c-0.272-1.065-0.802-2.806-1.456-4.87c-2.737,0.137-5.526,0.277-8.399,0.421L513.281,230.152
			z"/>
		<path clip-path="url(#SVGID_10_)" fill="#131F48" d="M513.884,236.182c0.194,1.488,0.399,3.063,0.622,4.767l8.348-0.009
			c3.701,0,7.286-0.017,10.816-0.05c-0.633-2.235-1.146-4.148-1.372-5.201c-3.186,0.092-6.432,0.181-9.802,0.264L513.884,236.182z"
			/>
		<path clip-path="url(#SVGID_10_)" fill="#131F48" d="M512.736,218.065c0.028,1.364,0.056,2.663,0.082,3.927l8.801-0.687
			c2.098-0.16,4.152-0.313,6.175-0.46c-0.488-1.487-0.957-2.913-1.37-4.183c-1.644,0.16-3.304,0.324-4.996,0.498L512.736,218.065z"
			/>
		<path clip-path="url(#SVGID_10_)" fill="#131F48" d="M512.901,224.119c0.082,1.411,0.161,2.789,0.242,4.195l8.894-0.465
			c2.705-0.135,5.331-0.267,7.915-0.396c-0.468-1.452-0.972-2.994-1.475-4.526c-2.191,0.159-4.421,0.325-6.7,0.498L512.901,224.119z
			"/>
		<path clip-path="url(#SVGID_10_)" fill="#131F48" d="M512.987,205.84c-0.049,1.187-0.095,2.326-0.14,3.411l7.918-1.032
			c1.235-0.159,2.453-0.313,3.662-0.462c-0.104-1.114-0.208-2.353-0.309-3.64c-1.121,0.168-2.229,0.328-3.369,0.507L512.987,205.84z
			"/>
		<path clip-path="url(#SVGID_10_)" fill="#131F48" d="M515.826,248.959c0.848,3.974,4.099,6.856,7.892,6.949
			c5.063,0.124,9.877,0.197,14.526,0.217c-0.156-0.478-0.265-0.808-0.304-0.925c-0.169-0.506-0.902-2.887-1.793-5.851
			c-4.12-0.029-8.405-0.098-12.916-0.209L515.826,248.959z"/>
		<path clip-path="url(#SVGID_10_)" fill="#131F48" d="M513.17,202.8l7.159-1.121c1.207-0.19,2.379-0.36,3.563-0.537
			c-0.174-2.337-0.339-4.626-0.49-6.416c-1.11,0.166-2.204,0.324-3.336,0.5C516.421,195.798,513.629,198.901,513.17,202.8"/>
		<path clip-path="url(#SVGID_10_)" fill="#131F48" d="M514.694,242.224c0.222,1.377,0.458,2.842,0.71,4.409l7.855,0.193
			c4.248,0.104,8.296,0.17,12.195,0.202c-0.478-1.61-0.969-3.284-1.422-4.861c-3.639,0.035-7.349,0.049-11.169,0.049
			L514.694,242.224z"/>
		<path clip-path="url(#SVGID_10_)" fill="#131F48" d="M517.038,283.591c-0.016,1.285-0.03,2.501-0.044,3.667l8.467-0.881
			c7.86-0.806,15.169-1.464,22.231-2.011c-0.459-1.317-0.943-2.725-1.444-4.192c-6.613,0.614-13.508,1.379-20.896,2.334
			L517.038,283.591z"/>
		<path clip-path="url(#SVGID_10_)" fill="#131F48" d="M526.398,301.306l-8.853,0.462c0.138,1.438,0.278,2.911,0.427,4.475
			l8.74-0.232c10.068-0.251,19.207-0.529,28.036-0.904c-0.515-1.787-1.034-3.553-1.534-5.196
			c-5.632,0.299-11.401,0.605-17.489,0.928C532.696,300.991,529.594,301.146,526.398,301.306"/>
		<path clip-path="url(#SVGID_10_)" fill="#131F48" d="M518.148,307.797c0.194,1.488,0.4,3.063,0.623,4.767l8.347-0.008
			c10.437,0,20.06-0.113,29.608-0.452c-0.479-1.721-1-3.58-1.535-5.455c-8.95,0.383-18.211,0.665-28.431,0.919L518.148,307.797z"/>
		<path clip-path="url(#SVGID_10_)" fill="#131F48" d="M517.002,289.681c0.028,1.364,0.055,2.662,0.082,3.927l8.801-0.688
			c8.644-0.657,16.6-1.205,24.293-1.691c-0.433-1.098-1.003-2.658-1.659-4.507c-7.247,0.555-14.743,1.226-22.825,2.054
			L517.002,289.681z"/>
		<path clip-path="url(#SVGID_10_)" fill="#131F48" d="M517.167,295.734c0.081,1.412,0.16,2.789,0.241,4.195l8.894-0.465
			c3.197-0.159,6.3-0.314,9.329-0.466c5.926-0.296,11.55-0.576,17.039-0.86c-0.613-1.961-1.176-3.646-1.636-4.833
			c-7.909,0.496-16.088,1.058-24.991,1.736L517.167,295.734z"/>
		<path clip-path="url(#SVGID_10_)" fill="#131F48" d="M517.252,277.456c-0.048,1.187-0.095,2.326-0.139,3.411l7.917-1.032
			c7.177-0.927,13.888-1.676,20.325-2.283c-0.434-1.285-0.873-2.591-1.311-3.895c-6.146,0.691-12.405,1.546-19.03,2.583
			L517.252,277.456z"/>
		<path clip-path="url(#SVGID_10_)" fill="#131F48" d="M527.497,320.756l-7.405-0.181c0.847,3.973,4.099,6.856,7.892,6.949
			c11.698,0.286,22.1,0.311,32.097-0.017c-0.45-3.43-0.787-5.877-0.956-6.742C549.504,321.062,539.243,321.044,527.497,320.756"/>
		<path clip-path="url(#SVGID_10_)" fill="#131F48" d="M517.436,274.415l7.158-1.121c6.428-1.006,12.514-1.844,18.485-2.526
			c-0.727-2.179-1.428-4.292-2.067-6.229c-5.365,0.634-10.879,1.394-16.681,2.303C520.686,267.413,517.894,270.516,517.436,274.415"
			/>
		<path clip-path="url(#SVGID_10_)" fill="#131F48" d="M518.959,313.84c0.222,1.377,0.458,2.842,0.711,4.409l7.855,0.193
			c11.479,0.28,21.535,0.302,30.961,0.024c-0.354-1.274-0.842-3.054-1.408-5.098c-9.661,0.349-19.389,0.464-29.948,0.464
			L518.959,313.84z"/>
		<path clip-path="url(#SVGID_10_)" fill="#131F48" d="M521.228,354.042c-0.021,1.271-0.039,2.473-0.058,3.625l8.47-0.85
			c12.274-1.213,23.204-2.079,33.942-2.722c-0.199-1.448-0.399-2.911-0.598-4.379c-10.422,0.69-21.265,1.729-33.442,3.268
			L521.228,354.042z"/>
		<path clip-path="url(#SVGID_10_)" fill="#131F48" d="M530.498,371.611l-8.855,0.405c0.126,1.422,0.254,2.878,0.392,4.424
			l8.742-0.168c13.188-0.231,24.785-0.515,36.177-1.003c-0.351-1.87-0.67-3.638-0.955-5.277c-8.395,0.39-16.924,0.785-26.171,1.214
			C536.797,371.338,533.693,371.472,530.498,371.611"/>
		<path clip-path="url(#SVGID_10_)" fill="#131F48" d="M522.196,377.978c0.181,1.471,0.372,3.028,0.579,4.712l8.346,0.065
			c13.194,0.115,25.096,0.055,37.188-0.423c-0.373-1.897-0.73-3.745-1.065-5.516c-11.475,0.489-23.145,0.773-36.434,1
			L522.196,377.978z"/>
		<path clip-path="url(#SVGID_10_)" fill="#131F48" d="M521.168,360.063c0.021,1.349,0.043,2.633,0.063,3.884l8.805-0.645
			c12.533-0.893,23.628-1.566,34.557-2.15c-0.224-1.507-0.448-3.067-0.675-4.666c-10.776,0.638-21.738,1.498-34.054,2.709
			L521.168,360.063z"/>
		<path clip-path="url(#SVGID_10_)" fill="#131F48" d="M521.303,366.049c0.072,1.396,0.143,2.758,0.215,4.149l8.896-0.411
			c3.197-0.14,6.301-0.277,9.332-0.409c9.166-0.402,17.628-0.771,25.948-1.167c-0.255-1.525-0.518-3.186-0.787-4.949
			c-10.984,0.58-22.129,1.249-34.726,2.141L521.303,366.049z"/>
		<path clip-path="url(#SVGID_10_)" fill="#131F48" d="M521.456,347.978c-0.051,1.173-0.1,2.298-0.146,3.37l7.919-1.012
			c12.157-1.544,22.989-2.591,33.396-3.291c-0.185-1.381-0.366-2.756-0.544-4.113c-10.735,0.787-21.237,2.046-32.862,3.845
			L521.456,347.978z"/>
		<path clip-path="url(#SVGID_10_)" fill="#131F48" d="M531.409,390.866l-7.402-0.259c0.798,3.926,4.007,6.808,7.798,6.949
			c14.657,0.545,27.284,0.676,39.635,0.208c-0.462-2.228-0.927-4.479-1.383-6.716C558.388,391.472,546.049,391.382,531.409,390.866"
			/>
		<path clip-path="url(#SVGID_10_)" fill="#131F48" d="M528.585,338.245c-0.914,0.117-1.8-0.058-2.595,0.169
			c-0.783,0.392-1.487,0.955-2.092,1.605c-1.211,1.309-2.024,3.034-2.256,4.957l7.16-1.112c11.637-1.808,22.153-3.08,32.894-3.883
			c-0.24-1.848-0.472-3.638-0.691-5.339c-9.999,0.761-20.076,1.922-31.176,3.515L528.585,338.245z"/>
		<path clip-path="url(#SVGID_10_)" fill="#131F48" d="M531.12,384.017l-8.17-0.066c0.207,1.361,0.427,2.809,0.662,4.358l7.853,0.27
			c14.428,0.5,26.615,0.584,38.125,0.168c-0.352-1.738-0.695-3.457-1.029-5.145C556.38,384.083,544.405,384.138,531.12,384.017"/>
		<path clip-path="url(#SVGID_10_)" fill="#131F48" d="M524.584,424.602c-0.051,1.248-0.098,2.43-0.145,3.563l8.488-0.643
			c16.239-1.208,30.124-1.878,44.31-2.224c-0.063-0.333-0.126-0.652-0.188-0.949c-0.206-0.985-0.453-2.151-0.73-3.462
			c-13.524,0.337-27.293,1.196-43.398,2.854L524.584,424.602z"/>
		<path clip-path="url(#SVGID_10_)" fill="#131F48" d="M533.372,442.008l-8.863,0.124c0.035,0.696,0.07,1.401,0.107,2.123
			c0.055,0.769,0.11,1.554,0.169,2.36l8.747,0.117c17.102,0.254,31.534,0.279,46.31-0.094c-0.166-1.798-0.336-3.563-0.51-5.268
			c-11.861,0.171-23.527,0.338-36.622,0.526C539.677,441.934,536.571,441.97,533.372,442.008"/>
		<path clip-path="url(#SVGID_10_)" fill="#131F48" d="M533.54,448.36l-8.618-0.102c0.156,1.573,0.322,3.238,0.502,5.04l8.346,0.276
			c16.614,0.563,31.188,0.696,46.683,0.106c-0.15-1.849-0.309-3.687-0.47-5.497c-0.861,0.023-1.725,0.05-2.584,0.071
			C563.467,448.59,549.696,448.571,533.54,448.36"/>
		<path clip-path="url(#SVGID_10_)" fill="#131F48" d="M524.378,430.51c-0.014,1.318-0.027,2.572-0.04,3.795l8.818-0.406
			c16.594-0.734,30.665-1.159,45.158-1.488c-0.222-1.728-0.444-3.309-0.666-4.705c-14.276,0.321-28.224,0.971-44.557,2.159
			L524.378,430.51z"/>
		<path clip-path="url(#SVGID_10_)" fill="#131F48" d="M524.351,436.353c0.03,1.354,0.061,2.676,0.091,4.024l8.905-0.141
			c3.2-0.044,6.307-0.086,9.34-0.127c13.033-0.175,24.652-0.324,36.455-0.57c-0.187-1.748-0.374-3.419-0.564-4.998
			c-14.558,0.305-28.675,0.706-45.332,1.416L524.351,436.353z"/>
		<path clip-path="url(#SVGID_10_)" fill="#131F48" d="M524.947,418.624c-0.076,1.157-0.15,2.268-0.22,3.325l7.939-0.832
			c15.979-1.669,29.663-2.55,43.082-2.916c-0.273-1.285-0.569-2.674-0.879-4.133c-14.09,0.385-27.18,1.539-42.136,3.524
			L524.947,418.624z"/>
		<path clip-path="url(#SVGID_10_)" fill="#131F48" d="M533.942,462.143l-7.398-0.377c0.749,4.206,3.929,7.296,7.716,7.454
			c17.68,0.758,32.406,0.762,47.27-0.138c-0.125-2.169-0.268-4.418-0.425-6.71c-1.509,0.081-3.017,0.163-4.539,0.224
			C563.704,463.105,550.248,462.962,533.942,462.143"/>
		<path clip-path="url(#SVGID_10_)" fill="#131F48" d="M525.197,415.654l7.181-0.961c14.862-1.995,27.892-3.168,41.863-3.588
			c-0.432-2.036-0.885-4.182-1.352-6.4c-13.14,0.473-25.985,1.627-40.647,3.639C528.586,408.847,525.738,411.849,525.197,415.654"/>
		<path clip-path="url(#SVGID_10_)" fill="#131F48" d="M533.749,454.906l-8.169-0.259c0.188,1.456,0.387,3.004,0.6,4.661l7.849,0.42
			c18.138,0.951,32.737,1.064,46.915,0.361c-0.123-1.706-0.254-3.427-0.391-5.146c-1.412,0.058-2.827,0.118-4.224,0.162
			C562.333,455.547,548.893,455.396,533.749,454.906"/>
	</g>
	<g clip-path="url(#SVGID_2_)" id="Legs">
		<defs>
			<rect id="SVGID_11_" width="612" height="792"/>
		</defs>
		<clipPath id="SVGID_12_">
			<use xlink:href="#SVGID_11_"  overflow="visible"/>
		</clipPath>
		<path clip-path="url(#SVGID_12_)" fill="#C64421" d="M388.959,642.79c1.832,0.02,3.825-0.104,3.825-0.104
			s21.113,6.954,42.706,10.074c21.595,3.122,65.502,5.759,90.454,2.88c24.952-2.88,34.31-5.277,36.47-5.997
			c2.158-0.72,3.599-1.921,4.318-3.6s0.72-5.038,0.72-5.038s3.601-22.074,3.839-24.472c0.239-2.398,2.64-21.595,2.64-22.313
			c0-0.721,0.959-7.919,1.199-9.597c0.239-1.679,3.599-31.433,3.599-33.83c0-1.102,0.76-12.384,1.558-25.725
			c-16.746,8.322-34.435,14.53-54.271,17.662c-42.167,6.658-93.656-2.069-157.871-26.199c5.804,27.896,13.227,65.009,14.202,69.888
			C383.495,592.162,387.42,628.383,388.959,642.79"/>
		<path clip-path="url(#SVGID_12_)" fill="#C64421" d="M90.144,531.518c-21.591-4.216-41.014-10.928-59.419-19.756
			c0.771,17.66,2.068,39.86,3.367,47.43c1.437,8.396,4.795,33.348,5.276,35.984c0.48,2.641,2.402,14.637,2.402,16.557
			s0.719,8.877,0.719,9.837s-0.481,4.321-0.481,4.321s-1.203,2.635-0.481,3.838c0.721,1.199,2.402,2.162,2.402,3.121
			c0,0.957-0.72,2.88-0.72,2.88v4.074c0,0.964,0.72,14.157,1.677,15.596c0.959,1.439,1.682,3.361,4.801,4.081
			c3.118,0.719,16.316,2.88,26.632,3.598c10.317,0.722,50.627,5.52,86.374,1.44c35.746-4.079,63.099-12.475,63.099-12.475
			s1.662-0.153,3.187-0.335c-0.149-3.754-0.308-7.857-0.308-8.426c0-1.082,2.878-5.759,3.6-7.197c0.719-1.439,0-3.599-1.08-5.04
			c-1.081-1.438-0.359-3.599,1.08-5.398c1.441-1.799,1.08-5.039,1.08-5.039l-1.441-2.52c0,0,4.679-15.835,5.038-20.874
			c0.363-5.037,8.279-39.228,13.317-59.38c1.145-4.581,2.217-10.004,3.438-15.886c-40.674,9.76-76.678,14.585-109.207,14.586
			C125.251,536.535,107.227,534.854,90.144,531.518"/>
	</g>
	<g clip-path="url(#SVGID_2_)">
		<defs>
			<rect id="SVGID_13_" width="612" height="792"/>
		</defs>
		<clipPath id="SVGID_14_">
			<use xlink:href="#SVGID_13_"  overflow="visible"/>
		</clipPath>
		<g opacity="0.35" clip-path="url(#SVGID_14_)">
			<g>
				<defs>
					<rect id="SVGID_15_" x="30.209" y="109.453" width="553.368" height="555.783"/>
				</defs>
				<clipPath id="SVGID_16_">
					<use xlink:href="#SVGID_15_"  overflow="visible"/>
				</clipPath>
				<g opacity="0.35" clip-path="url(#SVGID_16_)">
					<g>
						<defs>
							<rect id="SVGID_17_" x="30.209" y="110.333" width="86.871" height="382.396"/>
						</defs>
						<clipPath id="SVGID_18_">
							<use xlink:href="#SVGID_17_"  overflow="visible"/>
						</clipPath>
						<path clip-path="url(#SVGID_18_)" fill="#897F76" d="M117.08,126.516c0,0-2.374,7.279-2.853,8.718
							c-0.481,1.439-3.362,3.359-3.362,3.359s-1.436,12.475-1.678,14.875c-0.241,2.4,3.601,7.198,3.601,7.198v9.597l-3.615,0.419
							c0,0-14.62,41.329-16.54,48.527c-1.921,7.198-11.516,38.388-11.516,43.666c0,5.28-7.683,25.435-8.162,27.833
							c-0.478,2.398-13.433,53.745-15.353,57.583s-6.239,40.786-8.638,47.984c-2.398,7.199-3.356,13.437-5.278,23.514
							c-1.921,10.077-0.481,23.511-3.36,29.751c-2.878,6.239-9.597,43.19-9.597,43.19s-1.441-27.834,0.48-39.83
							c1.918-11.998,8.159-47.511,8.159-52.306c0-4.798,5.756-45.105,8.157-53.742c2.401-8.637,21.594-70.541,23.033-74.859
							c1.44-4.319,9.52-39.051,9.8-42.798c0.277-3.748,2.677-18.623,3.637-21.503c0.959-2.879,1.959-10.182,1.819-14.717
							c-0.142-4.536,0.993-9.641,0.993-9.641l0.423-6.734l2.34-6.591c0,0,3.063-8.382,3.063-10.303c0-1.919,1.97-6.206,2.185-8.621
							c0.214-2.415,0.214-5.296,0.214-5.296s0.089-6.213-0.026-8.641c0,0-0.175-6.717,0.165-9.593
							c0.341-2.878,1.638-7.901,1.638-10.299c0-1.374-0.443-7.048,0.509-6.92c0,0,2.453,5.393,4.392,7.513
							C106.239,122.802,117.08,126.516,117.08,126.516"/>
					</g>
				</g>
				<g opacity="0.5" clip-path="url(#SVGID_16_)">
					<g>
						<defs>
							<rect id="SVGID_19_" x="61.576" y="109.453" width="522.001" height="555.783"/>
						</defs>
						<clipPath id="SVGID_20_">
							<use xlink:href="#SVGID_19_"  overflow="visible"/>
						</clipPath>
						<g opacity="0.35" clip-path="url(#SVGID_20_)">
							<g>
								<defs>
									<rect id="SVGID_21_" x="345.996" y="109.453" width="237.581" height="546.907"/>
								</defs>
								<clipPath id="SVGID_22_">
									<use xlink:href="#SVGID_21_"  overflow="visible"/>
								</clipPath>
								<path clip-path="url(#SVGID_22_)" fill="#897F76" d="M444.04,133.272c0,0,2.726,27.872-10.709,34.591l-13.438,6.718
									c0,0,0,6.717,11.518,16.315c11.517,9.598,25.913,17.275,31.67,20.155c5.76,2.878,12.477,10.555,12.477,17.273
									c0,6.719-14.395,22.074-5.758,37.43c8.637,15.355,26.873,9.597,37.429,23.993c10.557,14.398,10.558,95.973,20.154,136.28
									c9.596,40.311,7.678,90.209,7.678,102.688c0,12.478-5.757,32.632-7.678,52.786c-1.92,20.154-8.638,23.994-8.638,28.793
									v13.433l2.88,31.671l-47.026,0.961c0,0-17.273-38.389-10.558-60.463c6.718-22.072,21.114-56.624,25.913-71.02
									c4.798-14.396,9.597-19.194,7.678-46.066c-1.919-26.871-7.679-23.991-6.719-57.583c0.961-33.59,0-54.702-2.879-62.38
									c-2.88-7.68-19.193,3.837-24.953,9.595c-5.757,5.762-47.026,34.553-61.422,48.948
									c-14.396,14.395-32.629,23.993-35.509,23.993c-2.878,0-20.154,9.593-20.154,9.593s7.448,5.521,11.47,18.084
									c6.896,21.553,12.368,56.875,15.401,70.212c4.8,21.114,12.477,65.263,12.477,71.98c0,6.715,4.643,31.734,4.643,31.734
									s64.219,12.733,81.492,12.733c17.275,0,86.615-2.479,90.936-6.078c4.318-3.599,5.038-8.638,5.038-8.638l1.198-12.479
									c0,0,18.233-119.003,14.396-150.673c-3.838-31.673-18.236-115.166-20.154-127.641c-1.918-12.48-3.12-36.234-7.678-47.029
									c-4.556-10.793-27.832-78.697-29.751-87.334c-1.919-8.637-0.956-19.668-2.396-24.231c-1.441-4.56-2.401-26.633-4.321-31.431
									c-1.92-4.8-4.316-15.113-4.316-15.113l-1.44-35.621c0,0-25.913,11.384-38.39,15.224
									C462.121,128.516,444.04,133.272,444.04,133.272"/>
							</g>
						</g>
						<g opacity="0.35" clip-path="url(#SVGID_20_)">
							<g>
								<defs>
									<rect id="SVGID_23_" x="225.792" y="445.435" width="164.195" height="206.704"/>
								</defs>
								<clipPath id="SVGID_24_">
									<use xlink:href="#SVGID_23_"  overflow="visible"/>
								</clipPath>
								<path clip-path="url(#SVGID_24_)" fill="#897F76" d="M364.472,631.646c0,0,6.223,4.998,11.036,6.48
									c5.068,1.558,14.479,4.86,14.479,4.86s-2.826-22.868-6.91-50.763c-7.243-49.494-22.813-126.579-33.576-137.763
									c-16.237-16.87-49.583-5.814-58.221-1.015c-8.638,4.8-24.941,11.929-35.498,53.195c0,0-11.944,39.086-13.677,52.386
									c-1.735,13.299-8.962,44.519-9.251,49.146c-0.29,4.626-2.889,10.407-2.889,18.211s-1.293,16.898-1.293,16.898l-2.879,8.761
									c0,0,3.022,0.415,4.318-0.481c1.298-0.895,5.058-2.05,5.923-2.92c0.865-0.866,4.398-5.956,4.398-5.956
									s0.728-3.604,0.477-5.039c-0.249-1.435,1.482-7.508,2.641-11.552c1.158-4.049,1.158-6.938,1.158-6.938
									s2.998-3.166,2.599-4.335c-0.397-1.171,0.289-7.229,0.867-8.675c0.579-1.445,15.325-31.511,27.174-69.38
									c9.228-29.489,18.505-69.667,19.082-71.983c0.575-2.313,3.103-12.127,3.103-12.127s12.625-5.152,14.157-4.317
									c1.529,0.836,12.543,61.989,17.427,78.021c4.887,16.033,15.899,51.172,18.793,55.217c2.891,4.044,4.669,11.524,4.669,11.524
									s0.926,1.377,2.029,4.611c1.107,3.233,4.575,11.616,5.443,15.086c0.865,3.469,2.216,6.747,2.264,9.01
									c0.047,2.265-0.242,3.995,0.336,6.02C363.229,629.854,364.472,631.646,364.472,631.646"/>
							</g>
						</g>
						<g opacity="0.35" clip-path="url(#SVGID_20_)">
							<g>
								<defs>
									<rect id="SVGID_25_" x="61.576" y="151.446" width="157.678" height="513.791"/>
								</defs>
								<clipPath id="SVGID_26_">
									<use xlink:href="#SVGID_25_"  overflow="visible"/>
								</clipPath>
								<path clip-path="url(#SVGID_26_)" fill="#897F76" d="M141.576,664.516c0,0,6.479-35.268,0.721-51.104
									c-5.757-15.834-3.599-63.34-12.237-77.018c-8.637-13.676-27.35-17.993-18.712-40.307
									c8.635-22.315,36.707-47.509,31.669-74.139c-5.038-26.634-11.517-49.664-8.637-51.104
									c2.877-1.439,38.148-14.396,42.467-17.996c4.319-3.598,54.702-9.356,39.588-48.226
									c-15.116-38.867-20.154-53.983-23.753-74.137c-3.598-20.155,12.235-61.902,12.235-61.902l5.762-0.719
									c0,0-49.667-4.319-59.745-5.76c-10.077-1.438-29.511-8.636-33.109-9.356c-3.599-0.72-8.638-2.879-8.638,0.72
									c0,3.598,8.638,5.758,11.516,7.198c2.878,1.438,30.952,7.917,30.952,7.917s4.319,2.159,4.319,8.639
									c0,6.477-3.6,14.394-9.358,23.752c-5.759,9.356-18.714,2.878-26.633,29.511c-7.918,26.633-12.235,47.506-15.115,66.94
									c-2.88,19.435-16.556,61.902-23.752,79.897c-7.199,17.993-20.876,73.417-19.435,86.374
									C63.12,476.652,65.28,509.763,66,519.84c0.719,10.077,3.598,65.501,3.598,70.538c0,5.038,12.957,28.07,16.556,34.549
									c3.597,6.479,6.479,10.796,7.918,17.274s2.159,21.596,2.159,21.596s11.517,1.438,20.873,1.438
									C126.463,665.235,141.576,664.516,141.576,664.516"/>
							</g>
						</g>
					</g>
				</g>
			</g>
		</g>
	</g>
	<g clip-path="url(#SVGID_2_)">
		<defs>
			<rect id="SVGID_27_" width="612" height="792"/>
		</defs>
		<clipPath id="SVGID_28_">
			<use xlink:href="#SVGID_27_"  overflow="visible"/>
		</clipPath>
		<g clip-path="url(#SVGID_28_)">
			<g>
				<defs>
					<rect id="SVGID_29_" x="41.53" y="99.016" width="529.878" height="544.648"/>
				</defs>
				<clipPath id="SVGID_30_">
					<use xlink:href="#SVGID_29_"  overflow="visible"/>
				</clipPath>
				<g opacity="0.5" clip-path="url(#SVGID_30_)">
					<g>
						<defs>
							<rect id="SVGID_31_" x="95.297" y="135.06" width="426.319" height="39.221"/>
						</defs>
						<clipPath id="SVGID_32_">
							<use xlink:href="#SVGID_31_"  overflow="visible"/>
						</clipPath>
						
							<path clip-path="url(#SVGID_32_)" fill="none" stroke="#897F76" stroke-width="1.201" stroke-miterlimit="10" stroke-dasharray="2.894,1.447" d="
							M95.643,173.162c0,0,12.89-9.098,24.031-13.754c11.14-4.656,54.952-18.135,84.408-21.565
							c29.456-3.428,93.813-2.203,140.102-0.488c46.29,1.715,109.657,6.859,116.094,7.349c6.435,0.491,18.074,1.226,20.299,1.715
							c2.229,0.491,19.307,4.411,24.013,8.087c4.7,3.676,6.185,5.393,7.176,6.862c0.99,1.469,2.427,2.192,2.427,2.192l6.925,10.389"
							/>
					</g>
				</g>
				<g opacity="0.5" clip-path="url(#SVGID_30_)">
					<g>
						<defs>
							<rect id="SVGID_33_" x="93.605" y="112.114" width="422.085" height="43.194"/>
						</defs>
						<clipPath id="SVGID_34_">
							<use xlink:href="#SVGID_33_"  overflow="visible"/>
						</clipPath>
						
							<path clip-path="url(#SVGID_34_)" fill="none" stroke="#897F76" stroke-width="1.201" stroke-miterlimit="10" stroke-dasharray="2.894,1.447" d="
							M94.188,155.166c0.256-1.054,0.98-4.582,1.97-5.805c0.989-1.225,14.109-8.823,37.873-16.418
							c23.764-7.596,68.813-18.133,98.519-19.847c29.703-1.716,89.851,2.94,133.416,2.45c43.564-0.491,106.441,8.331,124.016,12.251
							c17.572,3.921,25.211,15.178,25.211,15.178"/>
					</g>
				</g>
				<g opacity="0.5" clip-path="url(#SVGID_30_)">
					<g>
						<defs>
							<rect id="SVGID_35_" x="98.176" y="99.016" width="417.519" height="30.717"/>
						</defs>
						<clipPath id="SVGID_36_">
							<use xlink:href="#SVGID_35_"  overflow="visible"/>
						</clipPath>
						
							<path clip-path="url(#SVGID_36_)" fill="none" stroke="#897F76" stroke-width="1.201" stroke-miterlimit="10" stroke-dasharray="2.894,1.447" d="
							M98.638,128.291c0,0,4.065-4.907,43.669-16.669c39.605-11.762,80.338-13.965,160.542-10.533
							c80.198,3.431,126.983,3.92,159.904,9.556c32.923,5.637,36.882,8.333,39.854,9.557c2.971,1.225,7.926,3.429,9.16,4.655
							c1.235,1.226,3.426,4.546,3.426,4.546"/>
					</g>
				</g>
				<g opacity="0.5" clip-path="url(#SVGID_30_)">
					<g>
						<defs>
							<rect id="SVGID_37_" x="352.038" y="592.846" width="219.37" height="32.463"/>
						</defs>
						<clipPath id="SVGID_38_">
							<use xlink:href="#SVGID_37_"  overflow="visible"/>
						</clipPath>
						
							<path clip-path="url(#SVGID_38_)" fill="none" stroke="#897F76" stroke-width="1.195" stroke-miterlimit="10" stroke-dasharray="2.879,1.44" d="
							M571.291,616.533c0,0-27.808,5.523-56.949,6.631c-29.144,1.108-40.394,3.877-79.313-2.578
							c-38.921-6.456-54.416-9.408-59.949-11.806c-5.533-2.398-11.436-4.425-14.201-6.27c-2.768-1.844-6.088-4.061-6.272-4.797
							c-0.184-0.737-2.029-4.611-2.029-4.611"/>
					</g>
				</g>
				<g opacity="0.5" clip-path="url(#SVGID_30_)">
					<g>
						<defs>
							<rect id="SVGID_39_" x="359.167" y="610.075" width="211.193" height="22.728"/>
						</defs>
						<clipPath id="SVGID_40_">
							<use xlink:href="#SVGID_39_"  overflow="visible"/>
						</clipPath>
						
							<path clip-path="url(#SVGID_40_)" fill="none" stroke="#897F76" stroke-width="1.195" stroke-miterlimit="10" stroke-dasharray="2.879,1.44" d="
							M570.229,623.906c0,0-36.89,8.299-68.614,8.299c-31.726,0-62.896-2.214-93.885-8.669c-30.99-6.455-42.059-9.594-43.902-10.699
							c-1.843-1.104-4.424-2.213-4.424-2.213"/>
					</g>
				</g>
				<g opacity="0.5" clip-path="url(#SVGID_30_)">
					<g>
						<defs>
							<rect id="SVGID_41_" x="43.133" y="626.639" width="201.097" height="17.025"/>
						</defs>
						<clipPath id="SVGID_42_">
							<use xlink:href="#SVGID_41_"  overflow="visible"/>
						</clipPath>
						
							<path clip-path="url(#SVGID_42_)" fill="none" stroke="#897F76" stroke-width="1.195" stroke-miterlimit="10" stroke-dasharray="2.879,1.44" d="
							M243.807,627.062c0,0-2.779,2.779-7.868,3.703c-2.772,0.503-4.748,0.281-4.748,0.281s-41.765,5.964-53.104,7.587
							c-11.339,1.622-36.335,6.479-72.433,3.471c-36.1-3.008-62.446-6.374-62.446-6.374"/>
					</g>
				</g>
				<g opacity="0.5" clip-path="url(#SVGID_30_)">
					<g>
						<defs>
							<rect id="SVGID_43_" x="41.53" y="617.178" width="205.664" height="17.96"/>
						</defs>
						<clipPath id="SVGID_44_">
							<use xlink:href="#SVGID_43_"  overflow="visible"/>
						</clipPath>
						
							<path clip-path="url(#SVGID_44_)" fill="none" stroke="#897F76" stroke-width="1.195" stroke-miterlimit="10" stroke-dasharray="2.879,1.44" d="
							M246.583,617.343c0,0,1.388,4.858-24.066,8.331c-25.455,3.471-58.548,11.339-107.838,8.102
							c-49.294-3.239-71.291-6.05-72.672-7.885"/>
					</g>
				</g>
			</g>
		</g>
		<g opacity="0.5" clip-path="url(#SVGID_28_)">
			<g>
				<defs>
					<rect id="SVGID_45_" x="85.033" y="116.261" width="14.003" height="83.719"/>
				</defs>
				<clipPath id="SVGID_46_">
					<use xlink:href="#SVGID_45_"  overflow="visible"/>
				</clipPath>
				
					<path clip-path="url(#SVGID_46_)" fill="none" stroke="#897F76" stroke-width="0.797" stroke-miterlimit="10" stroke-dasharray="2.879,1.44" d="
					M96.714,116.306c0,0,0.45,3.896,0.941,5.857c0.494,1.961,0.983,4.413,0.983,6.127c0,1.715-0.249,4.165-0.737,5.637
					c-0.489,1.471-3.115,8.479-2.661,9.998c0.456,1.518,2.172,4.947,2.172,6.907c0,1.961-0.737,13.233-1.471,16.173
					c-0.733,2.942-4.162,15.926-5.636,18.377c-1.47,2.451-2.207,5.636-2.45,7.106c-0.245,1.472-2.449,7.352-2.449,7.352"/>
			</g>
		</g>
		<g opacity="0.5" clip-path="url(#SVGID_28_)">
			<g>
				<defs>
					<rect id="SVGID_47_" x="228.272" y="445.881" width="162.746" height="206.398"/>
				</defs>
				<clipPath id="SVGID_48_">
					<use xlink:href="#SVGID_47_"  overflow="visible"/>
				</clipPath>
				
					<path clip-path="url(#SVGID_48_)" fill="none" stroke="#897F76" stroke-width="0.797" stroke-miterlimit="10" stroke-dasharray="2.879,1.44" d="
					M228.67,652.278v-8.995c0-1.082,2.878-5.759,3.6-7.197c0.719-1.439,0-3.599-1.079-5.04c-1.082-1.438-0.36-3.599,1.079-5.398
					c1.441-1.799,1.08-5.039,1.08-5.039l-1.441-2.52c0,0,4.679-15.835,5.038-20.874c0.363-5.036,8.279-39.228,13.317-59.38
					c5.039-20.156,8.637-56.504,29.87-77.379c13.475-13.246,45.708-16.916,60.824-12.234c15.115,4.678,17.274,24.832,20.873,39.227
					s19.075,91.773,20.515,98.971c1.44,7.198,8.278,55.782,8.278,55.782"/>
			</g>
		</g>
	</g>
</g>
  <g id="CUSTOM"></g>
</svg>
