<?xml version="1.0" encoding="utf-8"?>
<!-- Generator: Adobe Illustrator 19.1.0, SVG Export Plug-In . SVG Version: 6.00 Build 0)  -->
<!DOCTYPE svg PUBLIC "-//W3C//DTD SVG 1.1//EN" "http://www.w3.org/Graphics/SVG/1.1/DTD/svg11.dtd">
<svg version="1.1" xmlns="http://www.w3.org/2000/svg" xmlns:xlink="http://www.w3.org/1999/xlink" x="0px" y="0px"
	 viewBox="0 0 792 1353.1" enable-background="new 0 0 792 1353.1" xml:space="preserve">
<g id="BODY">
	<g>
		<path fill="#BF2A43" stroke="#897F76" stroke-width="0.2506" d="M778.3,832.7c-2.2-26.5-9.4-73.5-12.5-88.9
			c-3.1-15.4-20.5-90.2-21.9-97.4c-1.4-7.2-19.8-74.5-22.7-84.1c-2.9-9.6-19-53.7-28-68.5c-8.9-14.7-32.5-50.6-36.4-59.1
			c-3.9-8.4-18.6-28.7-38.8-41.7c-20.3-13-104.9-53.5-104.9-53.5s-3.6-1.9-3.6-4.8c0-2.9-0.7-13-1.7-16.9c-1-3.9-5.1-14.5-6.7-17.4
			c-1.7-2.9-6-10.4-6.3-12.3c-0.2-1.9-2.4-16.4-3.1-18.1c-0.7-1.7-8.7-11.6-9.6-12.5c-1-1-12.3-18.1-79.1-15.7
			c-66.8,2.4-76.9,22.7-76.9,22.7s-10.6,10.9-15.2,30.1c-4.6,19.3-13.3,56.9-13.3,56.9s-54,18.3-93.8,43.1
			c-39.8,24.8-52.1,58.3-67.3,79.3c-15.2,21-46.5,62.2-64.6,110.4c-18.1,48.2-16.2,36.4-20.3,62.9c-4.1,26.5-17.1,125.8-17.9,128.7
			c-0.7,2.9-8.7,58.8-10.1,66.3c-1.5,7.5-7.9,39.3-7.2,40.3c0.7,1,11.1,14,13.3,17.1c2.2,3.1,7.7,11.6,7.7,11.6s-5.5,10.4-6.3,11.8
			c-0.7,1.5-0.7,10.1-0.7,13.3c0,3.1-1.2,17.1-2.4,19c-1.2,1.9-4.6,8.2-4.3,9.4c0.2,1.2,5.5,8.4,9.2,9.2c3.6,0.7,13.8,6.9,15.9,8.7
			c2.8,2.5,5.4,9.6,5.9,13.2c0.5,3.6,2.1,22.5,2.1,24.2s3.6,16.6,3.6,16.6s5.6-17.4,31.6-19.3c26-1.9,41.7-0.2,41.7-0.2
			s-11.3-14.9-11.6-17.1c-0.2-2.2,1.2-2.9,4.3-4.8c3.1-1.9,18.3-16.4,21.5-23.1c3.1-6.7,4.8-13.5,5.3-15.7c0.5-2.2-0.5-19.5-1-20.5
			c-0.5-1,1-6,2.6-7.5c1.7-1.4,8.7-9.6,9.4-13.7c0.7-4.1-4.6-28.4-5.3-30.4c-0.7-1.9-2.9-14-1.9-17.1c1-3.1,11.3-18.3,14.9-22.2
			c3.6-3.9,8-10.1,8-13c0-1.6-0.3-6-0.5-10c-0.1-0.1-0.2-0.1-0.2-0.3c0-0.4,0-1.2,0.1-2.2c-0.1-2.2-0.1-4,0.1-4.8
			c0.4-2,1-5.6,1.6-6.9c0.7-2,1.6-3,2.7-4.7c1.5-2.2,6.3-19.7,7.5-22c1.1-2.2,1.1-20.1,1.1-24.2s-3.4-16.8-3.4-18.6s6.3-3,10.8-4.1
			c4.5-1.1,8.6,0.4,9.3,3.4c0.7,3-4.1,17.5-7.5,21.6c-3.4,4.1-8.9,30.6-10.8,34.3c-1.9,3.7-6,26.8-6,26.8s-0.1,0.1-0.3,0.1
			c1,7.5,2.3,16.8,2.3,18.6c0,2.9,1.7,15.9,3.4,19.8c1.7,3.9,10.4,20.7,10.4,20.7s-1,2.4-1.9,3.1c-1,0.7-2.2,6-2.2,7.7
			c0,1.7-0.5,5.3,0.5,5.8c1,0.5,15.9,7.5,17.6,8.9c1.7,1.4,5.1,3.1,5.1,3.9c0,0.2-8.8,58.9-8.8,58.9c21.8,4,75.8,16.4,115,18.2
			c21.8,1,50.7-0.9,68-2c17.3-1.1,138.5-3.9,138.5-3.9c4.8-1,34.8-8.5,49.9-17l15.6-11.9l-7.8-18.9c0,0-0.9-6.7-0.8-6.7
			c0,0,4.6-19,5.3-19.7c0,0,9.7-20.2,15.5-26.2c5.8-6,10.4-14.2,10.4-15.7c0-1.4-0.7-5.5-0.5-6.7c0.2-1.2,1.2-6,0.5-7
			c-0.7-1-4.1-1.9-5.1-2.4c-1-0.5-2.2-1.2-2.4-2.7c-0.2-1.4,2.6-20.5,2.9-22.4c0.2-1.7,1.5-21.3,1.7-28.1c-0.3,0.1-0.6,0.1-0.6,0.1
			s-0.4-13-0.7-18.6c-0.4-5.6-2.2-27.9-3.7-31.7c-1.5-3.7-6.7-11.6-7.4-13.4c-0.7-1.9-4.8-6-4.8-12.3c0-6.3-1.1-19.4-1.1-19.4
			s10.8,1.5,11.9,4.5c1.1,3,4.1,17.9,5.2,30.2c1.1,12.3,0.4,24.2,2.6,30.6c2.2,6.3,5.2,14.9,7.5,17.5c2.2,2.6,3,3.7,5.2,6.7
			c0.2,0.3,0.1,0.5,0,0.8c1.4,2.2,2.6,4.6,2.9,5.9c0.5,1.9,17.6,38.6,17.8,41c0.2,2.4,1,8.2,0,10.8c-1,2.6-6,17.4-7,18.8
			c-1,1.4-1.2,10.6-0.5,12.3c0.7,1.7,2.9,6.8,3.9,7.7c1,1,3.4,3.6,3.4,3.6s-10.4,18.3-11.3,20.3c-1,1.9-0.2,15.4,0.5,17.4
			c0.7,1.9,11.6,25.3,12.5,27.2c1,1.9,6,7,6.7,8.2c0.7,1.2,1.2,2.7,1.2,2.7s-2.7,9.6-3.6,11.1c-1,1.5-4.6,9.6-4.6,9.6
			s23.9-3.9,43.1,4.3c19.3,8.2,29.2,23.1,29.2,23.1s2.2-2.2,2.9-4.1c0.7-1.9,1.2-12.5,1.2-15.2c0-2.6,2.2-12.3,3.6-13.7
			c1.4-1.5,2.9-10.5,3.3-14.1c0.6-5,0.7-6.7,0.7-6.7s7.6-4.7,10.2-8.3c2.7-3.6,9.1-11.3,12.3-14.5c3.1-3.1,14-21.2,16.9-38.8
			C779.9,880.6,780.4,859.2,778.3,832.7z"/>
	</g>
</g>
<g id="SHOULDER_INSERT">
	<g id="PATTERN_6_B_2_" display="none">
		<g display="inline">
			<path fill="#FDBB2D" d="M134.9,474l-23.1,33.2c0,0,8.8,40.1,21.4,59.2c12.6,19.2,43.4,56.2,45.6,60.6
				c2.2,4.4,11.3,12.2,11.3,16.1l9.2-19c-9.7-16.3-26.1-44.7-37.5-69.3C156.4,542.8,142.7,499.5,134.9,474z"/>
			<path fill="#FDBB2D" d="M671.7,460.5c-7.4,18.8-21.9,55.4-28.9,73.2c-16.7,42.2-33.1,67.9-41.6,79.8l9.9,22.6
				c0,0,31.7-26.8,44.8-52.9c13.1-26.1,36.2-90.4,36.2-90.4L671.7,460.5z"/>
		</g>
	</g>
	<g id="PATTERN_6_A_2_" display="none">
		<g display="inline">
			<path fill="#00AB5D" d="M194.7,555.5c-1.7-4.4-6.7-11.9-7.6-18.4c-1-6.5-4.9-23.6-9.1-32.1c-4.2-8.5-12.3-40.4-12.6-51
				c-0.2-10.6,1.8-28.5,1.8-28.5l-7.6,10L140,467L135,474c7.8,25.5,21.5,68.8,27,80.7c11.4,24.6,27.7,53,37.5,69.3l8.2-17.1
				C207.7,607,196.5,559.9,194.7,555.5z"/>
			<path fill="#00AB5D" d="M671.8,460.5l-10.6-16.8l-6.3-12.2l-10.3-13.7c0,0-19.6,68.5-37,122.9c-9.5,29.6-19.3,51.3-22.2,62.6
				c0,0,0.5,2.8,0.7,4.1c0.9,5,4.3,5,4.3,5l10.4-0.1l0.5,1.2c8.6-11.9,24.9-37.5,41.6-79.8C650,515.8,664.4,479.2,671.8,460.5z"/>
		</g>
	</g>
	<g id="PATTERN_5_C_2_" display="none">
		<g display="inline">
			<path fill="#FDBB2D" d="M112.1,506.1c0,0,8.8,40.1,21.4,59.2c12.6,19.2,43.4,56.2,45.6,60.6c2.2,4.4,11.3,12.2,11.3,16.1
				l17.4-36.1c0,0-11.2-47-13-51.4c-1.7-4.4-6.7-11.9-7.6-18.4c-1-6.5-4.9-23.6-9.1-32.1c-4.2-8.5-12.3-40.4-12.6-51
				c-0.2-10.6,1.8-28.5,1.8-28.5l-7.6,10l-19.7,31.4L112.1,506.1z"/>
			<path fill="#FDBB2D" d="M643.7,415.7l10.3,13.7l6.3,12.2l31,49.1c0,0-23.1,64.3-36.2,90.4c-13.1,26.1-44.8,52.9-44.8,52.9
				l-10.5-23.8l-10.4,0.1c0,0-3.4,0-4.3-5c-0.2-1.3-0.7-4.1-0.7-4.1c2.9-11.3,12.7-33,22.2-62.6
				C624.1,484.2,643.7,415.7,643.7,415.7z"/>
		</g>
	</g>
	<g id="PATTERN_5_B_2_" display="none">
		<g display="inline">
			<g>
				<path fill="#3EC6EC" d="M184,556.8c-1.5-4.9-13.8-45.5-17.3-54.2c-6.7-16.4-11.9-48.7-13.3-57.8l-13.2,21.1l-18.2,26.2
					c5.8,20.9,15.5,54,22.8,67.5c9.6,17.8,41.7,66.3,48.5,76.6l13-27L184,556.8z"/>
			</g>
			<g>
				<path fill="#3EC6EC" d="M646.9,574.6c8.4-15.6,27.2-72.5,35.5-98.1l-22-34.9l-6.3-12.2l-2.6-3.4l-0.9,6
					c-0.1,0.4-5.9,41.2-13.7,60.2c-3.5,8.7-15.9,49.3-17.3,54.2l-27.1,64l7.5-0.1l8.2,18.7l0.5-0.6
					C609.7,626.9,636.2,594.5,646.9,574.6z"/>
			</g>
		</g>
	</g>
	<g id="PATTERN_5_A_2_" display="none">
		<g display="inline">
			<path fill="#004D2A" d="M176.4,559.5c0,0-13.6-45.1-17.2-53.9c-5.5-13.5-10-36.6-12.4-50.5l-6.8,10.8l-12.2,17.6
				c5.3,19.4,16.2,58,23.9,72.3c8.5,15.7,35.4,56.7,45.5,72l4.3-9L176.4,559.5z"/>
			<path fill="#004D2A" d="M676.8,467.6l-16.4-26l-2.4-4.6c-1.7,10.9-6.9,41.8-13.6,58.2c-3.6,8.8-17.2,53.9-17.2,53.9l-26.5,62.6
				l3.9,8.9c6.5-8.1,26.6-33.6,35.3-49.8C648.6,554.4,670.2,488.2,676.8,467.6z"/>
		</g>
	</g>
	<g id="PATTERN_4_B_2_" display="none">
		<g display="inline">
			<path fill="#4C0107" d="M194.5,633.5l4.8-10c-13.7-21.4-43.6-68.4-49.4-79.9c-5.7-11.5-16.3-45.8-21.1-61.5L118,497.6
				c3.8,12.6,11.4,36.3,18.5,49.3C144.5,561.6,180.3,613.2,194.5,633.5z"/>
			<path fill="#4C0107" d="M207.3,604.9c-5.4-11.9-17.2-38-28-63.8c-16.6-40-23.9-74.3-27.1-94.5l-12.4,19.7l-0.9,1.2
				c4.9,18,13.8,47.8,25.2,72.7c8.7,19.2,30.3,57,39.8,73.4l3.6-7.4C207.6,606.2,207.5,605.8,207.3,604.9z"/>
			<path fill="#4C0107" d="M685.6,482.8l-8.8-13.9c-7.9,22.3-27.6,77-36.8,96.9c-9.2,19.8-27.8,45.7-35.3,56l4.1,9.4
				c9.4-10.1,24.2-27.6,35.4-47.7C658.2,557.9,678.1,503.7,685.6,482.8z"/>
			<path fill="#4C0107" d="M600.7,612.6c6.2-11.3,17.2-32.3,29.2-58.6c14.2-31,29.4-81.4,35.7-103l-4.5-7.1l-6.3-12.2l-0.5-0.7
				c-6,20.6-24.9,84.7-31.9,103.6c-7,18.9-26.8,63.5-33.2,77.7c0.6,0.3,1.1,0.3,1.1,0.3L600.7,612.6L600.7,612.6z"/>
		</g>
	</g>
	<g id="PATTERN_4_A_2_" display="none">
		<g display="inline">
			<g>
				<path fill="#FDBB2D" d="M207.3,604.9c-1.9-7.8-11.1-46.1-12.6-50c-1.7-4.4-6.7-11.9-7.6-18.4c-1-6.5-4.9-23.6-9.1-32.1
					c-4.2-8.5-12.3-40.4-12.6-51c-0.2-10.6,1.8-28.5,1.8-28.5l-7.6,10l-7.3,11.7c3.1,20.2,10.4,54.5,27.1,94.5
					C190,566.9,201.8,593,207.3,604.9z"/>
				<path fill="#FDBB2D" d="M199.3,623.5l4.8-9.9c-9.5-16.4-31.1-54.3-39.8-73.4c-11.4-24.9-20.3-54.7-25.2-72.7L128.9,482
					c4.7,15.8,15.3,50,21.1,61.5C155.7,555.1,185.6,602.1,199.3,623.5z"/>
				<path fill="#FDBB2D" d="M136.5,546.9c-7.1-13.1-14.7-36.7-18.5-49.3l-6.2,8.9c0,0,8.8,40.1,21.4,59.2
					c12.6,19.2,43.4,56.2,45.6,60.6c2.2,4.4,11.3,12.2,11.3,16.1l4.3-8.9C180.3,613.2,144.5,561.6,136.5,546.9z"/>
			</g>
			<g>
				<path fill="#FDBB2D" d="M654.3,431.1l-9.8-13c0,0-19.6,68.5-37,122.9c-9.5,29.6-19.3,51.3-22.2,62.6c0,0,0.5,2.8,0.7,4.1
					c0.5,3.1,2.1,4.3,3.1,4.7c6.4-14.3,26.2-58.8,33.2-77.7C629.4,515.8,648.3,451.7,654.3,431.1z"/>
				<path fill="#FDBB2D" d="M640,565.7c9.3-19.8,28.9-74.5,36.8-96.9L665.6,451c-6.2,21.5-21.4,71.9-35.7,103
					c-12.1,26.3-23.1,47.3-29.2,58.6l4,9.1C612.2,611.4,630.8,585.5,640,565.7z"/>
				<path fill="#FDBB2D" d="M685.6,482.8c-7.5,20.9-27.4,75.1-41.4,100.5c-11.1,20.2-26,37.6-35.4,47.7l2.3,5.3
					c0,0,31.7-26.8,44.8-52.9c13.1-26.1,36.2-90.4,36.2-90.4L685.6,482.8z"/>
			</g>
		</g>
	</g>
	<g id="PATTERN_3_C_2_" display="none">
		<g display="inline">
			<path fill="#C64421" d="M122.7,491.4l-10.9,15.7c0,0,8.8,40.1,21.4,59.2c12.6,19.2,43.4,56.2,45.6,60.6
				c2.2,4.4,11.3,12.2,11.3,16.1l5.9-12.3c-5-7.5-15.7-23.2-31.3-44.2C146.2,561.7,128.2,508.5,122.7,491.4z"/>
			<path fill="#C64421" d="M681.1,475.4c-8,23.6-23.4,67.3-35.4,90.7c-10.1,19.8-27.8,41.9-40.5,56.6l5.9,13.3
				c0,0,31.7-26.8,44.8-52.9c13.1-26.1,36.2-90.4,36.2-90.4L681.1,475.4z"/>
		</g>
	</g>
	<g id="PATTERN_3_B_2_" display="none">
		<g display="inline">
			<path fill="#00AB5D" d="M144,460.2l-4.2,6.8l-17.1,24.5c5.5,17.1,23.5,70.2,42.1,95.2c15.6,20.9,26.3,36.6,31.3,44.2l6.3-13.1
				c-1.5-2.7-4.5-7.8-9.9-16.9C179,578.3,148.4,475.1,144,460.2z"/>
			<path fill="#00AB5D" d="M661.1,443.6l-2.8-5.3c-5.8,20.4-17.3,60.8-25.6,86.4c-9.1,28-29.4,71.1-37.4,87.6l5.3-0.1l4.6,10.5
				c12.7-14.7,30.4-36.8,40.5-56.6c11.9-23.4,27.4-67.2,35.4-90.7L661.1,443.6z"/>
		</g>
	</g>
	<g id="PATTERN_3_A_2_" display="none">
		<g display="inline">
			<path fill="#BF2A43" d="M194.6,555.5c-1.7-4.4-6.7-11.9-7.6-18.4c-1-6.5-4.9-23.6-9.1-32.1c-4.2-8.5-12.3-40.4-12.6-51
				c-0.2-10.6,1.8-28.5,1.8-28.5l-7.6,10L144,460.2c4.4,15,35,118.1,48.4,140.6c5.4,9.1,8.4,14.2,9.9,16.9l5.2-10.7
				C207.5,606.9,196.3,559.9,194.6,555.5z"/>
			<path fill="#BF2A43" d="M658.3,438.3l-3.6-6.9l-10.3-13.7c0,0-19.6,68.5-37,122.9c-9.5,29.6-19.3,51.3-22.2,62.6
				c0,0,0.5,2.8,0.7,4.1c0.9,5,4.3,5,4.3,5l5.1-0.1c8-16.6,28.2-59.6,37.4-87.6C641,499.1,652.5,458.7,658.3,438.3z"/>
		</g>
	</g>
	<g id="PATTERN_2_B_2_" display="none">
		<g display="inline">
			<path d="M145,458.9l-4.2,6.8l-17.1,24.5c5.5,17.1,23.5,70.2,42.1,95.2c15.6,20.9,26.3,36.6,31.3,44.2l6.3-13.1
				c-1.5-2.7-4.5-7.8-9.9-16.9C180,577,149.4,473.9,145,458.9z"/>
			<path d="M661,443.3l-2.8-5.3c-5.8,20.4-17.3,60.8-25.6,86.4c-9.1,28-29.4,71.1-37.4,87.6l5.3-0.1l4.6,10.5
				c12.7-14.7,30.4-36.8,40.5-56.6c11.9-23.4,27.4-67.2,35.4-90.7L661,443.3z"/>
		</g>
	</g>
	<g id="PATTERN_2_A_2_" display="none">
		<g display="inline">
			<path fill="#BF2A43" d="M123.7,490.1l-10.9,15.7c0,0,8.8,40.1,21.4,59.2c12.6,19.2,43.4,56.2,45.6,60.6
				c2.2,4.4,11.3,12.2,11.3,16.1l5.9-12.3c-5-7.5-15.7-23.2-31.3-44.2C147.2,560.4,129.2,507.3,123.7,490.1z"/>
			<path fill="#BF2A43" d="M195.5,554.2c-1.7-4.4-6.7-11.9-7.6-18.4c-1-6.5-4.9-23.6-9.1-32.1c-4.2-8.5-12.3-40.4-12.6-51
				c-0.2-10.6,1.8-28.5,1.8-28.5l-7.6,10L145,458.9c4.4,15,35,118.1,48.4,140.6c5.4,9.1,8.4,14.2,9.9,16.9l5.2-10.7
				C208.5,605.6,197.3,558.6,195.5,554.2z"/>
			<path fill="#BF2A43" d="M658.3,438l-3.6-6.9l-10.3-13.7c0,0-19.6,68.5-37,122.9c-9.5,29.6-19.3,51.3-22.2,62.6
				c0,0,0.5,2.8,0.7,4.1c0.9,5,4.3,5,4.3,5l5.1-0.1c8-16.6,28.2-59.6,37.4-87.6C641,498.8,652.5,458.4,658.3,438z"/>
			<path fill="#BF2A43" d="M681.1,475.1c-8,23.6-23.4,67.3-35.4,90.7c-10.1,19.8-27.8,41.9-40.5,56.6l5.9,13.3
				c0,0,31.7-26.8,44.8-52.9c13.1-26.1,36.2-90.4,36.2-90.4L681.1,475.1z"/>
		</g>
	</g>
	<g id="PATTERN_1_A_2_">
		<g>
			<path fill="#897F76" d="M114,505.2c0,0,8.8,40.1,21.4,59.3c12.6,19.2,43.5,56.3,45.7,60.7c2.2,4.4,11.4,12.2,11.4,16.1l17.4-36.1
				c0,0-11.2-47.1-13-51.5c-1.7-4.4-6.7-11.9-7.7-18.4c-1-6.5-4.9-23.6-9.1-32.2c-4.2-8.6-12.4-40.4-12.6-51.1
				c-0.2-10.6,1.8-28.5,1.8-28.5l-7.6,10l-19.7,31.4L114,505.2z"/>
			<path fill="#897F76" d="M644.5,418.7l10.3,13.7l6.3,12.2l31,49.1c0,0-23.1,64.4-36.2,90.5c-13.1,26.1-44.8,53-44.8,53l-10.5-23.8
				l-10.4,0.1c0,0-3.4,0-4.3-5c-0.2-1.3-0.7-4.1-0.7-4.1c2.9-11.3,12.7-33.1,22.2-62.7C624.8,487.3,644.5,418.7,644.5,418.7z"/>
		</g>
	</g>
</g>
<g id="CUFFS">
	<g id="PATTERN_6_B_1_" display="none">
		<g display="inline">
			<path fill="#FDBB2D" d="M656.4,958.2c1.7,2,3.6,4,4.1,4.7c0.7,1.2,1.2,2.7,1.2,2.7s-2.7,9.7-3.6,11.1c-1,1.5-4.6,9.7-4.6,9.7
				s23.9-3.9,43.2,4.3c19.3,8.2,29.2,23.2,29.2,23.2s2.2-2.2,2.9-4.1c0.7-1.9,1.2-12.6,1.2-15.2c0-2.7,2.2-12.3,3.6-13.8
				c0.9-0.9,1.8-5,2.5-8.8c-5.6-2.1-13.7-5.2-25-10C690.1,953.2,666.1,956.4,656.4,958.2z"/>
			<path fill="#FDBB2D" d="M121.7,999.8c0-0.3,0-0.5,0-0.8c0-2.2,1.3-6.3,1.3-6.3l1.5-6.2c-8-0.2-22.8-0.4-34.1,0.1
				c-11.1,0.5-26.7,8.5-35.7,13.6c0.7,6.9,1.6,18.2,1.6,19.5c0,1.7,3.6,16.7,3.6,16.7s5.6-17.4,31.6-19.3
				c26.1-1.9,41.8-0.2,41.8-0.2S121.9,1002,121.7,999.8z"/>
		</g>
	</g>
	<g id="PATTERN_6_A_1_" display="none">
		<g display="inline">
			<path fill="#00AB5D" d="M737.7,960.3c0,0,7.6-4.7,10.2-8.3c1.1-1.5,2.8-3.6,4.6-5.8c-3.2-0.6-7.9-2.6-8.6-3
				c-0.8-0.4-6.4-7.4-6.4-7.4s-16.5-5.6-17.3-6.4c-1.6-1.6-9.8-6.3-9.8-6.3s-20.9-2.9-26.3-4c-2.9-0.5-10.9,1.6-11.6,2
				c-0.7,0.4-10,13.8-10.6,14c-0.7,0.3-6,0.5-8.2,3c-0.9,1-2.1,6-3,10.2c1.6,3.4,2.8,6.1,3.1,6.7c0.4,0.8,1.5,2.1,2.7,3.5
				c9.7-1.9,33.7-5,54.7,3.8c11.3,4.8,19.4,7.9,25,10c0.4-2.1,0.6-4.1,0.8-5.4C737.6,962.1,737.7,960.3,737.7,960.3z"/>
			<path fill="#00AB5D" d="M124.6,986.6l0.4-1.8c0,0-0.6-10.3-1-15c-0.5-4.7-5.1-12-7.5-13.4c-2-1.1-24-1-33.3-0.8
				c-9.2,0.2-27.4,9.9-30.2,12.3c-2.8,2.4-3.6,10.8-3.8,15.5c2.5,3,4.7,9.1,5.1,12.4c0.1,0.9,0.3,2.6,0.5,4.7
				c9-5.1,24.6-13.1,35.7-13.6C101.9,986.2,116.6,986.4,124.6,986.6z"/>
		</g>
	</g>
	<g id="PATTERN_5_C_1_" display="none">
		<g display="inline">
			<path fill="#FDBB2D" d="M737.5,935.3c0,0-16.5-5.6-17.3-6.4c-1.6-1.6-9.8-6.3-9.8-6.3s-20.9-2.9-26.3-4c-2.9-0.5-10.9,1.6-11.6,2
				c-0.7,0.4-10,13.8-10.6,14s-6,0.5-8.2,3c-0.9,1-2.1,6-3,10.2c1.6,3.4,2.8,6.1,3.1,6.7c1,1.9,6,7,6.8,8.2c0.7,1.2,1.2,2.7,1.2,2.7
				s-2.7,9.7-3.6,11.1c-1,1.5-4.6,9.7-4.6,9.7s23.9-3.9,43.2,4.3c19.3,8.2,29.2,23.2,29.2,23.2s2.2-2.2,2.9-4.1
				c0.7-1.9,1.2-12.6,1.2-15.2c0-2.7,2.2-12.3,3.6-13.8c1.4-1.5,2.9-10.5,3.3-14.1c0.6-5,0.7-6.7,0.7-6.7s7.6-4.7,10.2-8.3
				c1.1-1.5,2.8-3.6,4.6-5.8c-3.2-0.6-7.9-2.6-8.6-3C743,942.2,737.5,935.3,737.5,935.3z"/>
			<path fill="#FDBB2D" d="M123.4,993.1l2-8c0,0-0.6-10.3-1-15c-0.5-4.7-5.1-12-7.5-13.4c-2-1.1-24-1-33.3-0.8
				c-9.2,0.2-27.4,9.9-30.2,12.3c-2.8,2.4-3.6,10.8-3.8,15.5c2.5,3,4.7,9.1,5.1,12.4c0.5,3.6,2.1,22.5,2.1,24.2
				c0,1.7,3.6,16.7,3.6,16.7s5.6-17.4,31.6-19.3c26.1-1.9,41.8-0.2,41.8-0.2s-11.3-15-11.6-17.1c0-0.3,0-0.5,0-0.8
				C122.1,997.2,123.4,993.1,123.4,993.1z"/>
		</g>
	</g>
	<g id="PATTERN_5_B_1_" display="none">
		<g display="inline">
			<g>
				<path fill="#3EC6EC" d="M85.1,1006.6c4.6-0.9,9.8-1.4,15.4-1.4c11.6,0,22,2,26.6,3c-2.5-3.6-4.8-7.1-5-8.1c0-0.3,0-0.5,0-0.8
					c0-2.2,1.3-6.3,1.3-6.3l2-8c0,0-0.6-10-1-14.9c-4.9-1.3-13.4-2.9-25.4-2.9c-5.4,0-11.1,0.3-17,1c-11.6,1.3-23.4,6.8-32.1,11.9
					c-0.1,1.2-0.2,2.4-0.2,3.4c2.5,3,4.7,9.1,5.1,12.4c0.5,3.6,2.1,22.5,2.1,24.2c0,0.5,0.3,2.3,0.8,4.5
					C61.8,1019.4,71.7,1009.3,85.1,1006.6z"/>
			</g>
			<g>
				<path fill="#3EC6EC" d="M733.6,980.7c1.4-1.5,2.9-10.5,3.3-14.1c0.6-5,0.7-6.7,0.7-6.7s3.2-2,6.1-4.4
					c-7.6-5.6-18.8-12.8-29.9-16.2c-1.4-0.4-3-0.9-4.6-1.4c-12.4-3.8-28.4-8.7-41.8-10.5c-2.6,3.6-5.3,7.3-5.7,7.4
					c-0.7,0.3-6,0.5-8.2,3c-0.9,1-2.1,6-3,10.2c1.6,3.4,2.8,6.1,3.1,6.7c1,1.9,6,7,6.8,8.2c0.7,1.2,1.2,2.7,1.2,2.7
					s-1.1,4.1-2.2,7.3c10.4,0.8,27,2.7,37.4,6.4c17.3,6.1,29.3,18,32.9,21.8c0.2-2.8,0.3-5.4,0.3-6.6
					C730,991.8,732.1,982.1,733.6,980.7z"/>
			</g>
		</g>
	</g>
	<g id="PATTERN_5_A" display="none">
		<g display="inline">
			<path fill="#004D2A" d="M122.1,999.1c0.1-2.2,1.3-6,1.3-6l2-8c0,0-0.2-2.9-0.4-6.3c-4-1.4-18-5.2-42.2-2.5
				c-11,1.2-22.5,6.9-30.6,11.8c1.2,2.8,2.2,5.9,2.4,7.9c0.3,2.4,1.2,11.8,1.7,18.2c6.1-6,15.4-13,27.3-15.4
				C97.5,995.9,112.7,997.5,122.1,999.1z"/>
			<path fill="#004D2A" d="M661.6,934.8c-1,0.3-6,0.6-8.1,3c-0.9,1-2.1,6-3,10.2c1.6,3.4,2.8,6.1,3.1,6.7c1,1.9,6,7,6.8,8.2
				c0.4,0.7,0.8,1.6,1,2.1c10.9,0.9,27.3,2.9,38.1,6.7c13.9,4.9,24.6,13.1,30.9,18.9c0.7-3.8,2.1-8.8,3.1-9.8
				c1.4-1.5,2.9-10.5,3.3-14.1c0.3-2.9,0.5-4.7,0.6-5.7c-7-5-16.7-11.1-26-13.9C698.3,942.9,676.7,935.8,661.6,934.8z"/>
		</g>
	</g>
	<g id="PATTERN_4_B_1_" display="none">
		<g display="inline">
			<path fill="#4C0107" d="M698.1,977.4c14.8,6.3,25.1,15.2,31.7,22.6c0.1-2.3,0.2-4.3,0.2-5.3c0-2.1,1.3-8.3,2.6-11.7
				c-8-6.4-23.4-17.4-40.1-22.3c-15.2-4.5-29-4.4-37.2-3.7c1.9,2.3,4.7,5.2,5.2,6c0.7,1.2,1.2,2.7,1.2,2.7s-0.8,2.8-1.6,5.7
				C669.8,970.3,683.2,971,698.1,977.4z"/>
			<path fill="#4C0107" d="M701.1,949.3c19,7.7,29.9,15,35.5,19.5c0.1-0.8,0.2-1.5,0.3-2.1c0.6-5,0.7-6.7,0.7-6.7s2.2-1.4,4.6-3.2
				c-7.2-6.2-19.5-14.7-37.2-20.5c-15.1-5-29.8-6.4-39.2-6.7c-2,2.8-3.9,5.2-4.1,5.4c-0.7,0.3-6,0.5-8.2,3c-0.4,0.4-0.8,1.7-1.3,3.3
				C661.3,940.4,679.4,940.5,701.1,949.3z"/>
			<path fill="#4C0107" d="M91.5,978.1c14.6-0.6,25.8,0.8,33.4,2.4c-0.2-3.4-0.5-8.2-0.8-11c-0.1-0.5-0.2-1.1-0.3-1.7
				c-8.4-1.4-20.8-2.6-36.4-1.7c-16.9,1-29.6,6.8-37.7,11.9c-0.2,1.8-0.3,3.6-0.4,5c1.5,1.8,2.9,4.8,3.9,7.5
				C60.7,985.3,73.6,978.8,91.5,978.1z"/>
			<path fill="#4C0107" d="M76.5,1006.7c22.3-4.8,38.8-3.8,48.1-2.3c-1.5-2.3-2.7-4.2-2.8-4.9c0-0.3,0-0.5,0-0.8
				c0-2.2,1.3-6.3,1.3-6.3l0.2-0.6c-6.4-1.2-15.8-2-28.6-1.2c-17.8,1.1-31.9,9.2-39.4,14.6c0.6,6.3,1.1,13.4,1.1,14.4
				c0,0.2,0.1,0.6,0.1,1.1C61.2,1015.6,68.6,1008.4,76.5,1006.7z"/>
		</g>
	</g>
	<g id="PATTERN_4_A_1_" display="none">
		<g display="inline">
			<g>
				<path fill="#FDBB2D" d="M743.9,942.8c-0.8-0.4-6.4-7.4-6.4-7.4s-16.5-5.6-17.3-6.4c-1.6-1.6-9.8-6.3-9.8-6.3s-20.9-2.9-26.3-4
					c-2.9-0.5-10.9,1.6-11.6,2c-0.4,0.2-3.7,4.8-6.5,8.7c9.3,0.3,24.1,1.8,39.2,6.7c17.7,5.9,29.9,14.3,37.2,20.5
					c2.1-1.6,4.4-3.5,5.6-5.2c1.1-1.5,2.8-3.6,4.6-5.8C749.3,945.2,744.5,943.2,743.9,942.8z"/>
				<path fill="#FDBB2D" d="M655.2,957c8.2-0.7,22-0.8,37.2,3.7c16.7,4.9,32.1,15.9,40.1,22.3c0.4-1,0.7-1.7,1.1-2.1
					c1.2-1.2,2.4-7.8,3-12c-5.6-4.5-16.4-11.8-35.5-19.5c-21.7-8.8-39.9-8.9-48.9-8.2c-0.6,2-1.2,4.6-1.7,7c1.6,3.4,2.8,6.1,3.1,6.7
					C654,955.3,654.5,956.1,655.2,957z"/>
				<path fill="#FDBB2D" d="M698.1,977.4c-14.9-6.4-28.3-7-38.1-6.1c-0.7,2.4-1.5,4.8-2,5.4c-1,1.5-4.6,9.7-4.6,9.7
					s23.9-3.9,43.2,4.3c19.3,8.2,29.2,23.2,29.2,23.2s2.2-2.2,2.9-4.1c0.5-1.2,0.8-5.9,1-9.9C723.1,992.5,712.9,983.6,698.1,977.4z"
					/>
			</g>
			<g>
				<g>
					<path fill="#FDBB2D" d="M123.8,967.8c-1.2-4.6-5-10.5-7.2-11.7c-2-1.1-24-1-33.3-0.8c-9.2,0.2-27.4,9.9-30.2,12.3
						c-2,1.7-2.9,6.3-3.4,10.5c8.1-5.1,20.9-11,37.7-11.9C103,965.2,115.4,966.4,123.8,967.8z"/>
					<path fill="#FDBB2D" d="M55.3,1005.2c7.5-5.3,21.6-13.4,39.4-14.6c12.7-0.8,22.1,0.1,28.6,1.2l1.8-7.3c0,0-0.1-1.7-0.2-4
						c-7.6-1.6-18.7-3.1-33.4-2.4c-18,0.8-30.8,7.3-38.4,12.5c0.6,1.8,1.1,3.5,1.2,4.8C54.6,996.9,55,1000.9,55.3,1005.2z"/>
					<path fill="#FDBB2D" d="M124.6,1004.5c-9.3-1.5-25.8-2.6-48.1,2.3c-7.9,1.7-15.3,8.9-19.9,14c0.7,3.9,3.5,15.5,3.5,15.5
						s5.6-17.4,31.6-19.3c26.1-1.9,41.8-0.2,41.8-0.2S128.1,1009.6,124.6,1004.5z"/>
				</g>
			</g>
		</g>
	</g>
	<g id="PATTERN_3_C_1_" display="none">
		<g display="inline">
			<path fill="#C64421" d="M661.7,964.5c0.2,0.5,0.3,0.8,0.3,0.8s-2.7,9.7-3.6,11.1c-1,1.5-4.6,9.7-4.6,9.7s23.9-3.9,43.2,4.3
				c19.3,8.2,29.2,23.2,29.2,23.2s2.2-2.2,2.9-4.1c0.7-1.9,1.2-12.6,1.2-15.2c0-1.8,1-6.8,2.1-10.3c-6.4-5-16.2-11.1-29.6-15.7
				C690.4,964,672.6,964,661.7,964.5z"/>
			<path fill="#C64421" d="M122.2,1000c0-0.3,0-0.5,0-0.8c0-0.5,0.1-1.1,0.2-1.7c-9.5-0.8-24.3-1-38.2,2.7
				c-10,2.7-20.3,10.7-27.5,17.3c0.1,1.2,0.1,2.1,0.1,2.4c0,1.7,3.6,16.7,3.6,16.7s5.6-17.4,31.6-19.3c26.1-1.9,41.8-0.2,41.8-0.2
				S122.4,1002.2,122.2,1000z"/>
		</g>
	</g>
	<g id="PATTERN_3_B_1_" display="none">
		<g display="inline">
			<path fill="#00AB5D" d="M737.2,966.4c0.4-3.7,0.6-5.7,0.7-6.4c-7.5-6.6-16.4-12.8-35.9-20.2c-15-5.7-29.1-6.3-39.8-5.3
				c-0.1,0.1-0.1,0.1-0.1,0.1c-0.7,0.3-6,0.5-8.2,3c-0.9,1-2.1,6-3,10.2c1.6,3.4,2.8,6.1,3.1,6.7c1,1.9,6,7,6.8,8.2
				c0.4,0.6,0.7,1.3,0.9,1.8c10.9-0.5,28.7-0.5,41.1,3.7c13.4,4.6,23.2,10.7,29.6,15.7c0.5-1.6,1.1-3,1.5-3.4
				C735.4,979.1,736.8,970,737.2,966.4z"/>
			<path fill="#00AB5D" d="M122.3,997.6c0.3-2.1,1.1-4.6,1.1-4.6l2-8c0,0-0.3-6-0.7-10.9c-9.1-1.1-29.3-3.2-42.1-0.9
				c-9.9,1.8-21.6,9.5-30,15.8c1,2.5,1.8,5.1,2,6.9c0.4,3,1.5,16.2,1.9,21.8c7.2-6.6,17.5-14.6,27.5-17.3
				C98.1,996.6,112.8,996.8,122.3,997.6z"/>
		</g>
	</g>
	<g id="PATTERN_3_A_1_" display="none">
		<g display="inline">
			<path fill="#BF2A43" d="M748.2,951.3c1.1-1.5,2.8-3.6,4.6-5.8c-3.2-0.6-7.9-2.6-8.6-3c-0.8-0.4-6.4-7.4-6.4-7.4
				s-16.5-5.6-17.3-6.4c-1.6-1.6-9.8-6.3-9.8-6.3s-20.9-2.9-26.3-4c-2.9-0.5-10.9,1.6-11.6,2c-0.7,0.4-9.2,12.7-10.5,13.9
				c10.7-0.9,24.8-0.4,39.8,5.3c19.4,7.4,28.4,13.7,35.9,20.2c0-0.2,0-0.3,0-0.3S745.5,954.9,748.2,951.3z"/>
			<path fill="#BF2A43" d="M124.8,974c-0.1-1.5-0.2-3-0.3-4.1c-0.5-4.7-5.1-12-7.5-13.4c-2-1.1-24-1-33.3-0.8
				c-9.2,0.2-27.4,9.9-30.2,12.3c-2.8,2.4-3.6,10.8-3.8,15.5c1.1,1.3,2.2,3.3,3.1,5.4c8.3-6.3,20.1-14,30-15.8
				C95.4,970.8,115.6,972.9,124.8,974z"/>
		</g>
	</g>
	<g id="PATTERN_2_B_1_" display="none">
		<g display="inline">
			<path d="M737.2,966.3c0.4-3.7,0.6-5.7,0.7-6.4c-7.5-6.6-16.4-12.8-35.9-20.2c-15-5.7-29.1-6.3-39.8-5.3c-0.1,0.1-0.1,0.1-0.1,0.1
				c-0.7,0.3-6,0.5-8.2,3c-0.9,1-2.1,6-3,10.2c1.6,3.4,2.8,6.1,3.1,6.7c1,1.9,6,7,6.8,8.2c0.4,0.6,0.7,1.3,0.9,1.8
				c10.9-0.5,28.7-0.5,41.1,3.7c13.4,4.6,23.2,10.7,29.6,15.7c0.5-1.7,1.1-3,1.5-3.4C735.3,979,736.8,969.9,737.2,966.3z"/>
			<path d="M122.3,997.3c0.3-2.1,1.1-4.6,1.1-4.6l2-8c0,0-0.3-6-0.7-10.9c-9.1-1.1-29.3-3.2-42.1-0.9c-9.9,1.8-21.6,9.5-30,15.8
				c1,2.5,1.8,5.1,2,6.9c0.4,3,1.5,16.2,1.9,21.8c7.2-6.6,17.5-14.6,27.5-17.3C98,996.3,112.8,996.6,122.3,997.3z"/>
		</g>
	</g>
	<g id="PATTERN_2_A_1_" display="none">
		<g display="inline">
			<path fill="#BF2A43" d="M748.1,951.2c1.1-1.5,2.8-3.6,4.6-5.8c-3.2-0.6-7.9-2.6-8.6-3c-0.8-0.4-6.4-7.4-6.4-7.4
				s-16.5-5.6-17.3-6.4c-1.6-1.6-9.8-6.3-9.8-6.3s-20.9-2.9-26.3-4c-2.9-0.5-10.9,1.6-11.6,2c-0.7,0.4-9.2,12.7-10.5,13.9
				c10.7-0.9,24.8-0.4,39.8,5.3c19.4,7.4,28.4,13.7,35.9,20.2c0-0.2,0-0.3,0-0.3S745.5,954.8,748.1,951.2z"/>
			<path fill="#BF2A43" d="M661.6,964.4c0.2,0.5,0.3,0.8,0.3,0.8s-2.7,9.7-3.6,11.1c-1,1.5-4.6,9.7-4.6,9.7s23.9-3.9,43.2,4.3
				c19.3,8.2,29.2,23.2,29.2,23.2s2.2-2.2,2.9-4.1c0.7-1.9,1.2-12.6,1.2-15.2c0-1.8,1-6.8,2.1-10.3c-6.4-5-16.2-11.1-29.6-15.7
				C690.4,963.9,672.5,963.9,661.6,964.4z"/>
			<path fill="#BF2A43" d="M124.7,973.8c-0.1-1.5-0.2-3-0.3-4.1c-0.5-4.7-5.1-12-7.5-13.4c-2-1.1-24-1-33.3-0.8
				c-9.2,0.2-27.4,9.9-30.2,12.3c-2.8,2.4-3.6,10.8-3.8,15.5c1.1,1.3,2.2,3.3,3.1,5.4c8.3-6.3,20.1-14,30-15.8
				C95.4,970.5,115.6,972.6,124.7,973.8z"/>
			<path fill="#BF2A43" d="M122.2,999.7c0-0.3,0-0.5,0-0.8c0-0.5,0.1-1.1,0.2-1.7c-9.5-0.8-24.3-1-38.2,2.7
				c-10,2.7-20.3,10.7-27.5,17.3c0.1,1.2,0.1,2.1,0.1,2.4c0,1.7,3.6,16.7,3.6,16.7s5.6-17.4,31.6-19.3c26.1-1.9,41.8-0.2,41.8-0.2
				S122.4,1001.9,122.2,999.7z"/>
		</g>
	</g>
	<g id="PATTERN_1_A_1_">
		<g>
			<path fill="#897F76" d="M737.4,935.6c0,0-16.5-5.6-17.3-6.4c-1.6-1.6-9.8-6.3-9.8-6.3s-20.9-2.9-26.4-4c-2.9-0.5-10.9,1.6-11.6,2
				c-0.7,0.4-10,13.8-10.7,14.1c-0.7,0.3-6,0.5-8.2,3c-0.9,1-2.1,6-3,10.2c1.6,3.4,2.8,6.1,3.1,6.7c1,1.9,6,7,6.8,8.2
				c0.7,1.2,1.2,2.7,1.2,2.7s-2.7,9.7-3.6,11.1c-1,1.5-4.6,9.7-4.6,9.7s23.9-3.9,43.3,4.4c19.3,8.2,29.2,23.2,29.2,23.2
				s2.2-2.2,2.9-4.1c0.7-1.9,1.2-12.6,1.2-15.2c0-2.7,2.2-12.3,3.6-13.8c1.4-1.5,2.9-10.5,3.3-14.2c0.6-5,0.7-6.7,0.7-6.7
				s7.6-4.7,10.3-8.4c1.1-1.5,2.8-3.6,4.7-5.9c-3.2-0.6-7.9-2.7-8.6-3C743,942.6,737.4,935.6,737.4,935.6z"/>
			<path fill="#897F76" d="M123.8,992.7l2-8c0,0-0.6-10.3-1-15c-0.5-4.7-5.1-12-7.5-13.4c-2-1.1-24.1-1-33.3-0.8
				c-9.3,0.2-27.5,9.9-30.2,12.3c-2.8,2.4-3.6,10.8-3.8,15.5c2.5,3,4.7,9.1,5.1,12.4c0.5,3.6,2.1,22.6,2.1,24.3
				c0,1.7,3.6,16.7,3.6,16.7s5.6-17.4,31.7-19.3c26.1-1.9,41.8-0.2,41.8-0.2s-11.4-15-11.6-17.2c0-0.3,0-0.5,0-0.8
				C122.5,996.8,123.8,992.7,123.8,992.7z"/>
		</g>
	</g>
</g>
<g id="WAISTBAND">
	<g id="PATTERN_6_B" display="none">
		<path display="inline" fill="#FFC435" d="M590.5,930.5c-15.4,6-40.3,14.9-58.7,18.6c-28.6,5.7-170.3,11.8-198.2,11.4
			c-43.5-0.5-94.8-11.7-120.4-18c-1.9,12.9-3.7,24.5-3.7,24.5c21.9,4,76.1,16.5,115.5,18.3c21.9,1,51-0.9,68.3-2
			c17.4-1.1,139.2-3.9,139.2-3.9c4.8-1.1,35-8.5,50.2-17.1l15.7-11.9l-7.8-18.9C590.6,931.5,590.6,931.1,590.5,930.5z"/>
	</g>
	<g id="PATTERN_6_A" display="none">
		<path display="inline" fill="#009748" d="M531.7,948.9c18.4-3.7,43.2-12.7,58.7-18.6c-0.2-1.9-0.7-5.7-0.7-5.7
			c0,0,4.6-19.1,5.3-19.8c0,0,1-2.1,2.6-5.2c-10.8,8.1-21.9,9.3-27.1,10.8c-80.8,22.5-82.8,16.9-208.9,17.9
			c-122.6,0.9-143.3-20.5-143.3-20.5c0,0.1-2.7,18.5-5.2,34.7c25.6,6.3,76.8,17.4,120.4,18C361.4,960.6,503,954.6,531.7,948.9z"/>
	</g>
	<g id="PATTERN_5_A" display="none">
		<path display="inline" fill="#00533D" d="M539.1,959.7c23.2-5.4,44.7-14.7,54.6-19.3l-3.3-8.1c0,0-0.9-5.5-0.9-5.5
			c0,0-0.4-1.1-0.2-2c-11.1,3.7-38.7,12.5-68.2,17.7c-38.2,6.7-210,8.7-238.7,3.7c-23.6-4.1-51.5-11.4-66.6-15.6
			c-0.4,2.7-0.8,5.6-1.3,8.4c-0.6,3.8-1.1,7.6-1.7,11.2c17.2,4.4,51.5,12.3,94.3,16.9C332.5,969.9,506.9,967.1,539.1,959.7z"/>
	</g>
	<g id="PATTERN_5_B" display="none">
		<g display="inline">
			<g>
				<path fill="#47BDE4" d="M593.6,940.4c-9.8,4.5-31.4,13.9-54.6,19.3c-32.2,7.5-206.5,10.2-232,7.5c-42.8-4.6-77.1-12.5-94.3-16.9
					c-0.4,2.9-0.8,5.6-1.2,8c17.7,4.5,51.8,12.2,94.6,16.9c8.4,0.9,28.8,1.1,44.5,1.1c53.2,0,163.6-2.6,190.2-8.7
					c23.7-5.5,45.6-15.1,55.9-19.9L593.6,940.4z"/>
			</g>
			<g>
				<path fill="#47BDE4" d="M282.3,946.2c28.8,5,200.6,3,238.7-3.7c29.4-5.2,57-13.9,68.2-17.7c0.5-2,1.4-5.7,2.3-9.3
					c-2.4,0.9-36,12.7-71.9,19.1c-23.6,4.2-98.9,6.4-157.7,6.4c-39.4,0-68.7-1-78.3-2.7c-23.7-4.1-52-11.6-66.8-15.7
					c-0.7,4.9-1.6,10.7-2.4,16.4c0.4-2.8,0.8-5.7,1.3-8.4C230.9,934.8,258.7,942.1,282.3,946.2z"/>
			</g>
		</g>
	</g>
	<g id="PATTERN_5_C_1_" display="none">
		<g display="inline">
			<path fill="#FFC435" d="M362,941c58.8,0,134.1-2.2,157.7-6.4c35.9-6.3,69.5-18.2,71.9-19.1c-0.1,0.3-0.2,0.6-0.2,0.9
				c1.2-4.7,2.5-9.5,2.8-9.8c0,0,1-2.1,2.6-5.2c-10.8,8.1-21.9,9.3-27,10.7c-80.5,22.4-82.5,16.9-208.1,17.8
				c-122.1,0.9-142.8-20.4-142.8-20.4c0,0.1-1,7.1-1.9,13.1c14.8,4.1,43.1,11.5,66.8,15.7C293.3,940,322.6,941,362,941z"/>
			<path fill="#FFC435" d="M596.7,947.6c-10.3,4.7-32.1,14.3-55.9,19.9c-26.6,6.2-137,8.7-190.2,8.7c-15.7,0-36.2-0.2-44.5-1.1
				c-42.8-4.6-76.9-12.4-94.6-16.9c0.4-2.4-1.5,10.3-1.5,10.3c21.8,4,75.9,16.4,115.1,18.2c21.8,1,50.8-0.9,68.1-2
				c17.3-1.1,138.7-3.9,138.7-3.9c4.8-1.1,34.8-8.5,50-17.1l16.4-12.7L596.7,947.6z"/>
		</g>
	</g>
	<g id="PATTERN_4_B" display="none">
		<g display="inline">
			<path fill="#550017" d="M510.8,947.2c39.4-6.6,67.6-16.6,79.1-21.2c-0.1-0.5-0.1-0.8-0.1-0.8c0,0,1.5-6.3,2.9-11.8
				c-11.3,4.9-44.3,17.9-88,22.3c-53.1,5.4-197.9,6.7-263.1-5.4c-12-2.2-20.5-5.7-25.8-8.5c-0.6,3.8-1.2,8.2-1.9,12.6
				c8,2.9,18.5,6.2,26.5,7.3C300.8,949.5,446.2,958,510.8,947.2z"/>
			<path fill="#550017" d="M350.9,975.5c13-0.7,90.9-2,104.3-2.3c13.4-0.3,54.8-1.7,67.5-3.3c41.7-5.5,66.8-20.9,73.2-25.2l-3.6-8.7
				c-7.7,3.1-37.1,14.8-57.9,19.4c-24.1,5.3-56,6.2-88.1,7.4c-120.3,4.7-196.1-7.8-203.6-8.9c-12.4-1.8-23.2-4.7-30.4-6.9
				c-0.6,4.3-1.3,8.4-1.8,11.7c52.6,10.4,54.8,10.8,104,15.9C314.5,974.5,337.9,976.2,350.9,975.5z"/>
		</g>
	</g>
	<g id="PATTERN_4_A" display="none">
		<g display="inline">
			<path fill="#FFC435" d="M570.6,911c-80.9,22.5-82.9,16.9-209.1,17.9c-122.7,0.9-143.5-20.5-143.5-20.5c0,0.1-0.8,5.7-2,13.6
				c5.3,2.8,13.8,6.3,25.8,8.5c65.2,12,209.9,10.8,263.1,5.4c43.7-4.4,76.7-17.4,88-22.3c1.1-4.1,2.1-7.8,2.4-8.1c0,0,1-2.1,2.6-5.2
				C586.9,908.3,575.8,909.5,570.6,911z"/>
			<path fill="#FFC435" d="M446.2,962.7c32.2-1.3,64.1-2.1,88.1-7.4c20.8-4.6,50.2-16.3,57.9-19.4l-1.6-3.9c0,0-0.5-4.1-0.8-5.9
				c-11.5,4.5-39.7,14.6-79.1,21.2c-64.6,10.8-210.1,2.2-270.2-5.4c-8.1-1-18.5-4.4-26.5-7.3c-0.6,4.2-1.3,8.4-1.9,12.4
				c7.2,2.2,18,5.1,30.4,6.9C250.2,954.9,325.9,967.4,446.2,962.7z"/>
			<path fill="#FFC435" d="M595.9,944.6c-6.4,4.3-31.5,19.7-73.2,25.2c-12.7,1.7-54.1,3-67.5,3.3c-13.4,0.3-91.2,1.7-104.3,2.3
				c-13,0.7-36.4-1-36.4-1c-49.2-5.1-51.4-5.5-104-15.9c-0.8,5.4-1.3,9-1.3,9c22,4,76.2,16.5,115.6,18.3c21.9,1,51-0.9,68.4-2
				c17.4-1.1,139.4-3.9,139.4-3.9c4.8-1.1,35-8.5,50.2-17.1l15.7-11.9L595.9,944.6z"/>
		</g>
	</g>
	<g id="PATTERN_3_C" display="none">
		<path display="inline" fill="#D94723" d="M534.3,962.3c-29.2,7.7-125.9,2.3-199.6,3.1c-52.1,0.5-98.8-8.9-121.7-14.5
			c-1.4,9.5-2.5,16.9-2.5,16.9c21.8,4,75.8,16.4,115,18.2c21.8,1,50.8-0.9,68-2c17.3-1.1,138.6-3.9,138.6-3.9
			c4.8-1.1,34.8-8.5,50-17.1l15.6-11.9l-4.1-9.9C581.8,946.2,555.9,956.6,534.3,962.3z"/>
	</g>
	<g id="PATTERN_3_B" display="none">
		<path display="inline" fill="#009748" d="M334.7,965.4c73.7-0.8,170.4,4.6,199.6-3.1c21.7-5.7,47.5-16,59.4-21l-3.7-9
			c0,0-0.9-6.7-0.8-6.7c0,0,0.5-2.1,1.2-5c-9.9,5.6-27.9,13.9-54.6,18.6c-89.8,16.1-165,5.4-223.3,4.6c-37.7-0.5-74.7-9-96.2-14.9
			c-1.1,7.1-2.3,15.1-3.3,22C235.9,956.5,282.6,965.9,334.7,965.4z"/>
	</g>
	<g id="PATTERN_3_A" display="none">
		<path display="inline" fill="#C1182D" d="M535.8,939.3c26.6-4.8,44.7-13,54.6-18.6c1.4-5.7,3.6-14.2,4.1-14.7c0,0,1-2.1,2.6-5.2
			c-10.7,8.1-21.9,9.3-27,10.7c-80.5,22.4-82.5,16.9-208.1,17.8c-122.1,0.9-142.7-20.4-142.7-20.4c0,0.1-1.3,9.1-3,20.1
			c21.5,6,58.5,14.5,96.2,14.9C370.8,944.6,446,955.4,535.8,939.3z"/>
	</g>
	<g id="PATTERN_2_B" display="none">
		<path display="inline" d="M334.7,964.7c73.7-0.8,170.4,4.6,199.5-3.1c21.7-5.7,47.5-16,59.4-21l-3.7-9c0,0-0.9-6.7-0.8-6.7
			c0,0,0.5-2.1,1.2-5c-9.9,5.6-27.9,13.9-54.6,18.6c-89.8,16.1-165,5.4-223.3,4.6c-37.7-0.5-74.7-9-96.2-15
			c-1.1,7.2-2.3,15.1-3.3,22C235.9,955.8,282.6,965.2,334.7,964.7z"/>
	</g>
	<g id="PATTERN_2_A" display="none">
		<g display="inline">
			<path fill="#C1182D" d="M535.8,938.6c26.6-4.8,44.7-13,54.6-18.6c1.4-5.7,3.6-14.2,4.1-14.7c0,0,1-2.1,2.6-5.2
				c-10.7,8.1-21.9,9.3-27,10.7c-80.5,22.4-82.5,16.9-208,17.8c-122.1,0.9-142.7-20.4-142.7-20.4c0,0.1-1.3,9.1-3,20.1
				c21.5,6,58.5,14.5,96.2,15C370.8,944,446,954.7,535.8,938.6z"/>
			<path fill="#C1182D" d="M534.3,961.6c-29.2,7.7-125.9,2.3-199.5,3.1c-52.1,0.5-98.8-8.9-121.7-14.5c-1.4,9.5-2.5,16.9-2.5,16.9
				c21.8,4,75.8,16.4,115,18.2c21.8,1,50.8-0.9,68-2c17.3-1.1,138.6-3.9,138.6-3.9c4.8-1.1,34.8-8.5,50-17.1l15.6-11.9l-4.1-9.9
				C581.8,945.6,555.9,955.9,534.3,961.6z"/>
		</g>
	</g>
	<g id="PATTERN_1_A">
		<path fill="#897F76" d="M362.5,929c-122.1,0.9-142.8-20.4-142.8-20.4c0,0.2-8.8,59-8.8,59c21.8,4,75.9,16.4,115.1,18.2
			c21.8,1,50.8-0.9,68.1-2c17.3-1.1,138.7-3.9,138.7-3.9c4.8-1,34.8-8.5,50-17.1l15.6-11.9l-7.8-18.9c0,0-0.9-6.7-0.8-6.7
			c0,0,4.6-19,5.3-19.7c0,0,1-2.1,2.6-5.2c-10.8,8.1-21.9,9.3-27,10.7C490.1,933.6,488.1,928,362.5,929z"/>
	</g>
</g>
<g id="SHADING">
	<g>
		<path fill="#CFD4D8" d="M655.5,987.4"/>
	</g>
	<g>
		<radialGradient id="SVGID_1_" cx="677.6885" cy="1015.7043" r="49.2402" gradientUnits="userSpaceOnUse">
			<stop  offset="0" style="stop-color:#CFD4D8"/>
			<stop  offset="1" style="stop-color:#000000"/>
		</radialGradient>
		<path fill="url(#SVGID_1_)" d="M654.4,985.9c0,0,1.7,20.5,31.2,27.3c31.4,7.2,41.2,0,41.2,0s-14.6-18.8-31-24
			C677.8,983.4,654.4,985.9,654.4,985.9z"/>
		<radialGradient id="SVGID_2_" cx="135.6812" cy="1026.3689" r="75.8345" gradientUnits="userSpaceOnUse">
			<stop  offset="0" style="stop-color:#CFD4D8"/>
			<stop  offset="1" style="stop-color:#6A6D71"/>
		</radialGradient>
		<path opacity="0.75" fill="url(#SVGID_2_)" d="M60.6,1036.4c0,0,0.7,13.4,33.2,5.6c32.5-7.8,39.9-25.2,39.9-25.2
			s-25.5-3.1-48.1,0.9C64.6,1021.4,60.6,1036.4,60.6,1036.4z"/>
		<radialGradient id="SVGID_3_" cx="677.6885" cy="1015.7043" r="49.2402" gradientUnits="userSpaceOnUse">
			<stop  offset="0" style="stop-color:#CFD4D8"/>
			<stop  offset="1" style="stop-color:#6A6D71"/>
		</radialGradient>
		<path opacity="0.75" fill="url(#SVGID_3_)" d="M654.4,985.9c0,0,1.7,20.5,31.2,27.3c31.4,7.2,41.2,0,41.2,0s-14.6-18.8-31-24
			C677.8,983.4,654.4,985.9,654.4,985.9z"/>
	</g>
	<g>
		<path fill="#897F76" d="M59.8,1036.3c0,0,0.7,13.4,33.3,5.6c32.5-7.8,40-25.3,40-25.3s-42.2-0.2-48.1,0.9
			C66.1,1021.3,59.8,1036.3,59.8,1036.3z"/>
		<path fill="#897F76" d="M654.5,986.2c0,0,1.7,20.5,31.2,27.3c31.4,7.2,41.3,0,41.3,0s-14.6-18.8-31.1-24.1
			C677.9,983.6,654.5,986.2,654.5,986.2z"/>
	</g>
	
		<radialGradient id="SVGID_4_" cx="394.0184" cy="80.5209" r="243.8234" gradientTransform="matrix(0.7197 0 0 0.7197 111.6526 181.2388)" gradientUnits="userSpaceOnUse">
		<stop  offset="0" style="stop-color:#6A6D71"/>
		<stop  offset="1" style="stop-color:#000000"/>
	</radialGradient>
	<path opacity="0.4" fill="url(#SVGID_4_)" d="M401.4,437.8c0,0,16.9-38.5,19.4-43c2.5-4.6,10.6-30.3,11.3-32.8
		c0.7-2.5,16.2-28.9,19.1-33.5c2.8-4.6,29.3-50.1,30.7-55c1.4-4.9,3.2-10.9,1.4-13.1c-1.8-2.1-24.2-19.3-87.1-15.2
		c-59.6,3.9-68.1,22.2-69.1,26.5c-1.1,4.2-2.1,35.3-0.4,42c1.8,6.7,22.2,46.2,24.3,52.2c2.1,6,10.6,21.5,11.6,26.1
		c1.1,4.6,4.2,15.5,4.2,15.5s15.2,12,18.3,16.9c3.2,4.9,8.5,13.8,8.5,13.8L401.4,437.8z"/>
	<path opacity="0.2" fill="#6A6D71" d="M488,268c0,0-10.2,28.6-15.4,37.9c-5.2,9.3-19.7,34.6-19.7,34.6s-1.7-2.6-2.8-2.8
		c-1.1-0.2,0.7-2.4,0.7-2.4s14.7-22.3,18.8-29.4C473.7,298.7,488,268,488,268z"/>
	<path opacity="0.2" fill="#6A6D71" d="M478.2,335.5c0,0-23.6,21.6-27.3,27.9c-3.7,6.3-15.2,28.1-17.3,31.6
		c-2.2,3.5-8.4,14.1-8.4,14.1s9.3-6.3,10.4-7.8c1.1-1.5,16.4-22.3,18.8-25.7c2.4-3.5,5.2-7.4,6.1-6.9c0.9,0.4-2.6,8.9-2.4,10.2
		c0.2,1.3,1.7,4.3,1.7,4.3s10.8-16,13.2-23.6C475.4,352,478.2,335.5,478.2,335.5z"/>
	<path opacity="0.22" fill="#CFD4D8" d="M493.2,284.2c0,0-4.1,19.3-4.8,22.9c-0.6,3.7-2.4,14.9-2.4,14.9s2.4,1.1,2.6-1.3
		c0.2-2.4,1.9-8.2,2.6-11.5c0.7-3.2,2.2-12.5,3.2-15.8C495.6,290.3,493.2,284.2,493.2,284.2z"/>
	<path opacity="0.2" fill="#6A6D71" d="M496.6,294.2c0,0-5.6,26.6-6.1,28.8c-0.4,2.2-0.2,6.9-1.5,8.4c-1.3,1.5-3.2,1.5-3.2-0.4
		c0-1.9-1.3-5.4-1.3-5.4s-6.3,26.6-7.4,32.5c-1.1,5.8-6.7,22.3-7.6,24.9c-0.9,2.6-3.5,8.7-5,10.6c-1.5,1.9-16,12.1-18.6,13.2
		c-2.6,1.1-13.6,5.8-13.6,5.8s3,0.9,4.3,0.9c1.3,0,26.6-13.4,27.3-13.8c0.7-0.4-12.1,17.3-21.2,23.4c-9.1,6.1-24.5,16.2-24.5,16.2
		s13.6-1.5,31.2-15.4c17.5-13.9,29.2-18.8,31.8-21c2.6-2.2,9.7-8,9.7-8s-9.5-4.1-8.6-6.5c0.9-2.4,8-1.7,9.7-1.1
		c1.7,0.6,19.9,9.5,19.9,9.5s-8.7-9.5-10.2-11.9c-1.5-2.4-6.9-9.1-5-11.5c2-2.4,6.3-3.9,8.9-2.8c2.6,1.1,8.4-2.2,13.4-7.8
		c5-5.6,10.8-13.6,10.8-13.6s-8-5-10.6-5.8c-2.6-0.9-6.1,1.1-7.1,1.7c-1.1,0.6-5.4-0.9-5.4-2.6c0-1.7,0-13.2,1.1-18
		c1.1-4.8-0.4-11.5-0.6-12.8c-0.2-1.3-2.6-4.3-2.6-4.3s-3.7,21-4.5,21.6c-0.9,0.6-3.5-2.8-2.6-6.3c0.9-3.5,1.1-15.8,1.5-19.9
		C499.7,296.4,496.6,294.2,496.6,294.2z"/>
	<path opacity="0.2" fill="#6A6D71" d="M423.3,406.7l19-37.9c0,0-1.5-5.8-1.9-5c-0.4,0.9-4.3,12.8-5.4,14.9
		c-1.1,2.2-10.8,21.4-10.8,22.1C424.2,401.5,423.3,406.7,423.3,406.7z"/>
	<path opacity="0.22" fill="#CFD4D8" d="M422,416.7c0,0-2.6,5.4-4.3,7.4c-1.7,1.9-3.7,3.9-3.7,3.9s7.6-1.1,9.1-1.3
		c1.5-0.2,8.4-3.2,10.2-3.9c1.7-0.6,9.5-7.8,9.5-7.8s-7.1,2.6-7.8,3c-0.7,0.4-5.6,3.5-7.8,4.5c-2.2,1.1-6.1,1.3-6.1,1.3
		s1.3-2.4,1.3-4.1C422.4,418,422,416.7,422,416.7z"/>
	<path opacity="0.35" fill="#959A9E" d="M362.3,391.5c3.2,9.7,4.5,16,4.5,16s-20.2-24-24.7-29.9c-4.6-5.8-11.3-15.1-14.9-19.9
		c-3.7-4.8,2.8-3,3.2-5.6c0.4-2.6,1.7-12.6,1.3-17.7c-0.4-5.2,0.9-6.9,0.9-6.9s20.6,42,23.4,50C355.9,377.4,360.9,387,362.3,391.5z"
		/>
	<path opacity="0.25" fill="#CFD4D8" d="M380.7,433.1c0,0-6.7-7.1-9.9-7.4c-3.2-0.2-9.9-0.9-11.5-1.3c-1.5-0.4-6.1-3-7.6-4.1
		c-1.5-1.1-7.1-4.8-7.1-4.8s4.3-0.9,5.6,0.4c1.3,1.3,9.7,6.9,12.3,7.1c2.6,0.2,8.9-0.9,11,0.6C375.7,425.3,380.7,433.1,380.7,433.1z
		"/>
	<polygon opacity="0.25" fill="#959A9E" points="368.1,431.8 315.1,403.5 304.9,402.6 364.7,432.2 	"/>
	<polygon opacity="0.25" fill="#959A9E" points="363.1,435 351.9,435 297.4,411 303.4,410.6 	"/>
	<path opacity="0.25" fill="#959A9E" d="M269.2,367.1c0,0,20.8,1.9,22.3,2.6c1.5,0.6,17.5,9.5,20.6,11c3,1.5,9.3,2.8,9.3,2.8
		s-10.4-6.9-11.5-8.4c-1.1-1.5-11.9-7.6-15.8-8.4C290.2,365.8,269.2,367.1,269.2,367.1z"/>
	<path opacity="0.22" fill="#CFD4D8" d="M214.5,413.4c0,0,26.6,22.3,38.3,23.2c11.7,0.9,26.8-3.5,34-2.6c7.1,0.9,37,9.9,42.2,11.5
		s21,3.5,23.2,3.5c2.2,0,13-0.9,13-0.9s-17.3-6.3-20.1-8c-2.8-1.7-4.1-0.9-11.3-0.9s-20.1-3-26.4-5.8c-6.3-2.8-19.3-5.4-23.4-5
		c-4.1,0.4-12.3,3-21.6,2.4C253,430.1,214.5,413.4,214.5,413.4z"/>
	<path opacity="0.22" fill="#CFD4D8" d="M228.8,444.3c0,0,37,16.2,42,16.4c5,0.2,34.6,4.3,39.4,6.1c4.8,1.7,18.2,8.2,23.6,8.4
		c5.4,0.2,17.7,2.2,27,3.5c9.3,1.3,17.7,1.9,17.7,1.9s-39.8,0.2-44.8-0.4c-5-0.6-21.6-8.4-27.7-9.7c-6-1.3-26-1.7-32-3.7
		C267.9,464.9,228.8,444.3,228.8,444.3z"/>
	<path opacity="0.15" fill="#959A9E" d="M220.1,485c0,0,1.3,18.8-0.7,22.7c-1.9,3.9-7.3,18-7.6,23.2c-0.2,5.2-2.6,20.1-4.1,23.8
		c-1.5,3.7-4.5,18.2-4.5,18.2s-1.1-31.2-0.4-37.9c0.6-6.7,2.2-20.1,3.5-23.1c1.3-3,8.6-9.3,9.7-14.9
		C217.1,491.3,220.1,485,220.1,485z"/>
	<path opacity="0.2" fill="#6A6D71" d="M120.8,529.4c0,0,1.1,46.1,1.5,52.6c0.4,6.5,5.4,41.5,10.6,58.2
		c5.2,16.7,15.6,36.8,16.9,38.7c1.3,1.9,3.7,10.2,3.7,10.2l1.9-0.2c0,0,1.5-7.1,0.6-10.2c-0.9-3-11.9-33.1-11.9-35.5
		c0-2.4,0.2-23.8-1.1-28.3c-1.3-4.5-2.8-5.6-2.8-5.6S139,641,139,642.1c0,1.1-3.3-6.7-3.7-10c-0.4-3.2-3.2-46.7-2.6-50.8
		c0.7-4.1,1.5-39.2,1.5-39.2s-5.2,28.1-5.2,34.2c0,6.1-2.2,12.8-2.2,12.8L120.8,529.4z"/>
	<path opacity="0.2" fill="#6A6D71" d="M102.6,651.8c0,0,0,38.1,2,43.9c1.9,5.8,25.1,34.8,38.3,44.6c13.2,9.7,29.6,20.3,29.6,20.3
		s-38.9-31.6-51.3-61C108.9,670.2,102.6,651.8,102.6,651.8z"/>
	<path opacity="0.22" fill="#CFD4D8" d="M159.1,707c0,0,13.6,22.7,16.7,26.6c3,3.9,18.6,24.9,18.6,24.9s-26.6-27-29-31.2
		c-2.4-4.1-7.6-12.8-7.6-14.9C157.8,710.2,159.1,707,159.1,707z"/>
	<path opacity="0.2" fill="#6A6D71" d="M171.2,765.2c0,0-1.3,11.7,1.5,21c2.8,9.3,4.8,14.9,5.4,19.7c0.6,4.8,3.9-4.3,3.9-4.3l5-12.3
		c0,0-5.8-12.3-7.8-14.9C177.3,771.7,171.2,765.2,171.2,765.2z"/>
	<path opacity="0.2" fill="#6A6D71" d="M105.2,774.9c0,0,22.3,28.8,26.2,32.7c3.9,3.9,19.9,19.5,20.8,20.3c0.9,0.9,3,25.5,3,30.9
		c0,5.4,1.5,9.3,1.5,9.3s10-18.4,11.7-19.9c1.7-1.5,7.8-8.7,7.8-8.7s-7.4-3.5-12.1-6.9c-4.8-3.5-25.5-23.4-36.8-36.4
		c-11.3-13-12.5-20.8-14.7-24.5c-2.2-3.7-5.2-2.4-6.1-2.2C105.7,770,105.2,774.9,105.2,774.9z"/>
	<path opacity="0.22" fill="#CFD4D8" d="M119.5,882.7c0,0,13-4.3,15.8-5.8c2.8-1.5,11.9-5.2,13.9-3c1.9,2.2,5.8,16,9.1,22.5
		c3.3,6.5,5.6,13.9,5.6,16c0,2.2-1.7,3.7-1.7,3.7s-12.8-16.5-20.1-20.8c-7.4-4.3-18.8-8.9-21.2-9.7
		C118.4,884.6,119.5,882.7,119.5,882.7z"/>
	<path opacity="0.2" fill="#6A6D71" d="M47.2,921.4c0,0,19.5-10.6,27.5-11.9c8-1.3,19.9-2.2,40.7,4.5c20.8,6.7,28.1,13.4,28.1,13.4
		s-15.8-2.4-18.6-3c-2.8-0.7-14.1-2.8-15.8-5c-1.7-2.2-8.2-7.1-14.3-6.5c-6.1,0.6-10.2,3.9-15.1,4.8c-5,0.9-13,3.5-18.2,3
		C56.3,920.3,47.2,921.4,47.2,921.4z"/>
	<path opacity="0.2" fill="#6A6D71" d="M50.9,980.7c0,0,0-11,3.5-13.8c3.5-2.8,23.2-12.8,32.9-12.3c9.7,0.4,27.9-0.8,30.5,0.9
		c5,3.2,7.8,12.8,7.8,15.6c0,2.8,1.3,9.7,0.9,12.5c-0.4,2.8-2.2,8.2-2.2,8.2s9.9-6.3,12.8-9.3c2.8-3,8.2-11.2,8.2-11.2
		s-6.1,5.6-6.5,3.7c-0.4-1.9-1.1-6.1,0.2-5.8c1.3,0.2,4.8-0.9,4.8-0.9s-6.7,0.9-7.6-0.6c-0.9-1.5-0.2-3.7,1.1-4.3
		c1.3-0.7,5-2.2,5-2.2s-5.9,0.6-8.7-1.7c-2.8-2.4-5.4-6.3-5-7.4c0.4-1.1,8.2-7.1,9.5-12.5c1.3-5.4-0.9-10.8-0.9-10.8
		s-5.2,14.3-7.1,15.8c-2,1.5-3,1.7-3,0.2c0-1.5,3.7-8.2,3.7-10.6c0-2.4-1.3-5-1.3-5s-7.6,14.9-9.7,15.8c-2.2,0.9-37.4,1.3-38.3,0.4
		c-0.9-0.9-4.8-0.6-4.8-0.6s-1.9,4.5-3.7,4.8c-1.7,0.2-6.7,1.1-8.4,0.6c-1.7-0.4-5.2-1.3-5.2-1.3s-0.4,5.8-1.7,6.3
		c-1.3,0.4-3.7,2.6-5,2.6c-1.3,0-6.5,2.6-6.5,2.6s-2.6,7.1-2.6,8.2c0,1.1-0.4,6.7-0.4,6.7s3.9,1.7,4.5,2.8
		C48.3,979,50.9,980.7,50.9,980.7z"/>
	<path opacity="0.2" fill="#6A6D71" d="M156.7,922.1c0,0-17.3-29.6-22.1-25.7c-4.8,3.9,2.6,21.9,4.5,24.2c1.9,2.4,6.5,10.4,6.3,12.3
		c-0.2,1.9-3,13.2-2.2,17.3c0.9,4.1,0.9,6.3,3,10.4c2.2,4.1,3.7,5.2,3.7,5.2s4.3-12.3,3.9-17.5c-0.4-5.2-1.3-15.6-1.3-16.7
		c0-1.1,2-4.1,2.6-5c0.7-0.9,3-2.6,3-2.6L156.7,922.1z"/>
	<path opacity="0.22" fill="#CFD4D8" d="M55,754.2c0,0,30.3,28.3,34.8,29.6c4.5,1.3,6.1,1.3,6.1,1.3S80.1,765.8,78.4,763
		c-1.7-2.8-5.4-8-9.1-9.7c-3.7-1.7-9.1-1.5-10.8-1.3C56.8,752.2,55,754.2,55,754.2z"/>
	<path opacity="0.22" fill="#CFD4D8" d="M178.6,765.2l11.9,11.7c0,0,1.3-3,0.9-4.1c-0.4-1.1-1.7-1.3-2.8-2.6
		c-1.1-1.3-4.5-4.1-3.9-4.1c0.6,0,4.5,0.9,5.8,0.2c1.3-0.6,2.8-3.5,2.8-3.5s-7.4-8.2-8.4-8.9c-1.1-0.7-1.3,4.3-3.9,4.8
		c-2.6,0.4-4.8,1.7-7.4,0.4c-2.6-1.3-0.4,0.7-1.1,1.5c-0.6,0.8,2.2,5.2,3.2,5.2C176.8,765.8,178.6,765.2,178.6,765.2z"/>
	<path opacity="0.18" fill="#6A6D71" d="M190.5,742.7c0,0-3.5-25.1-2.4-32.7c1.1-7.6,6.1-18.4,6.3-20.1c0.2-1.7,3.5-5.8,5-6.5
		c1.5-0.7,8-3.3,8-3.3s5.8,2.8,6.5,3c0.7,0.2,2.4,3.2,1.3,4.8c-1.1,1.5-2.4,14.3-2.8,17.1c-0.4,2.8-2.4,15.6-2.4,18.2
		c0,2.6-2.2,7.4-2.2,7.4l-0.4,2.8c0,0-5,0.4-8.9,1.7c-3.9,1.3-6.9,3.2-6.9,3.2L190.5,742.7z"/>
	<path opacity="0.25" fill="none" stroke="#959A9E" stroke-width="2.2778" d="M202.6,610.5c0.6,1.5,3.7,4.1-0.4,12.3
		C198,631,189,647,189,652c0,5,3.2,17.7,7.8,20.6c4.5,2.8,21.4,11.3,22.5,13.6c1.1,2.4,3.2,5,1.3,4.5c-1.9-0.4-5.8-6.9-5.8-6.9"/>
	<path opacity="0.25" fill="#6A6D71" d="M156.1,598.1c0.9,0.2,32.7,44.4,32.7,44.4v4.5l-2.6-1.5l-29.9-43.3L156.1,598.1z"/>
	
		<radialGradient id="SVGID_5_" cx="486.0331" cy="356.133" r="151.9745" gradientTransform="matrix(0.7197 0 0 0.7197 111.6526 181.2388)" gradientUnits="userSpaceOnUse">
		<stop  offset="0" style="stop-color:#CFD4D8"/>
		<stop  offset="1" style="stop-color:#959A9E"/>
	</radialGradient>
	<path opacity="0.12" fill="url(#SVGID_5_)" d="M509.4,421.4c0,0,3,3.9,2.4,5.4c-0.7,1.5-3.9,4.5-2.4,6.1c1.5,1.5,7.8,1.3,10.2,5.2
		c2.4,3.9,4.3,10-3.7,9.3c-8-0.6-19.5,2.4-26.8,1.3c-7.4-1.1-18-2.6-23.4-1.3c-5.4,1.3-29,8.7-31.6,8.9c-2.6,0.2,0.6,5.6,1.1,6.3
		c0.4,0.6,0-4.5,5-4.5c5,0,42.6-0.6,45.4-1.1c2.8-0.4,23.2-3.5,27.9-1.9c4.8,1.5,8,4.5,9.5,5.6c1.5,1.1-3,10.2-0.2,13.4
		c2.8,3.2,9.5,10,10.6,12.1c1.1,2.2,3.2,17.1,2.8,18.6c-0.4,1.5,4.1,15.1,4.5,18c0.4,2.8,1.1,27,1.1,27s4.1-26.6,3.2-31.4
		c-0.9-4.8-2.4-13.6-1.5-17.7c0.9-4.1,5.4-8.7,10.2-15.8c4.8-7.1,5.6-23.4,5.6-23.4s-8,15.6-11.7,17.7c-3.7,2.2-10.4-11.7-11.9-14.3
		c-1.5-2.6,1.5-9.1,0.2-16.2c-1.3-7.1,2.2-8.7-5.4-12.3c-7.6-3.7-11.9-4.1-13-8.9c-1.1-4.8-3.5-6.5-5-6.9
		C511.1,420.1,509.4,421.4,509.4,421.4z"/>
	<path opacity="6.000000e-002" fill="#6A6D71" d="M574.1,426.8c0,0-7.8,27.9-7.4,38.5c0.4,10.6,3.2,43.3,2.8,48.7
		c-0.4,5.4-0.9,22.1-0.9,24.4c0,2.4,2.4,21.6,2.4,21.6s7.3-11.3,8-12.1c0.6-0.9,1.5-3.5,5.4-1.3c3.9,2.2,10.6,4.5,10.6,4.5
		s-4.3-4.8-5.4-5.2c-1.1-0.4-4.3-2.6-5.2-4.5c-0.9-1.9-3.5-10.4-3.9-14.7c-0.4-4.3-1.7-33.5-2.8-43.7c-1.1-10.2-2.4-14.5-2.8-19.9
		c-0.4-5.4-2-8.9-2.2-13C572.6,446,574.1,426.8,574.1,426.8z"/>
	<path opacity="0.16" fill="#6A6D71" d="M600.9,487.8c0,0-5.2,2.8-5.2,5.4c0,2.6,5.6,18.6,6.1,21.4c0.4,2.8,5,25.5,5.2,28.1
		c0.2,2.6-10.8,30.5-11.7,32.7c-0.9,2.2-9.5,23.8-8.9,26.8c0.6,3,0.4,6.9,4.3,7.8c3.9,0.9,10.2-0.9,11,0
		c0.9,0.9,10.2,21.4,10.2,23.4c0,1.9-2.4,20.8-3.9,23.8c-1.5,3-6.9,18.2-11.5,18.8c-4.5,0.7-15.8,2-15.8,2s8.4,14.3,10.2,16
		c1.7,1.7,9.3,4.5,9.3,4.5s10.8,1.3,11.9,4.1c1.1,2.8,3.2,16,3.7,18.6c0.4,2.6,2.2,15.6,2.2,19.5c0,3.9,0.6,16.2,0.9,17.7
		c0.2,1.5,4.8,16,6.3,18.6c1.5,2.6,7.4,10.4,7.4,10.4s8.9,20.1,10.2,22.9c1.3,2.8,5.6-3.2,6.3-3.9c0.6-0.6,20.8-13,22.9-15.4
		c2.2-2.4,47.8-52.6,47.8-52.6l-2.4-0.6c0,0-45.2,48.5-48.7,50.8c-3.5,2.4-12.5,4.3-14.3,5.6c-1.7,1.3-5.4,0.2-6.1,2.8
		c-0.6,2.6-0.4-4.5-1.1-7.8c-0.6-3.2,2.6-6.7,4.8-13.8c2.2-7.1,23.6-18.6,27.5-23.1c3.9-4.5,20.6-15.8,21-16.4
		c0.4-0.6,17.7-2.4,18.4-4.1c0.7-1.7-1.5-6.3-7.6-5.6c-6.1,0.6-29.4,5.6-30.9,7.3c-1.5,1.7-14.1,6.3-19.7,7.4
		c-5.6,1.1-12.1-1.9-14.9-4.8c-2.8-2.8-5.6-5-4.5-12.8c1.1-7.8,0.2-19,0.2-19.7c0-0.6-2.6,21.4-4.3,22.7c-1.7,1.3-2-27-1.3-29.4
		c0.6-2.4,25.3-60.8,27-64c1-1.8-0.9-39.6,3.2-46.5c2.5-4.2,5,39.1,5.6,36.6c1.5-5.6,13.2-40.5,11.9-46.9
		c-1.3-6.5-3.9-19.7-3.5-24.2c0.4-4.5,1.5-11.9,0-14.1c-1.5-2.2-4.2-1.4-4.2-1.4s-2.8,11-4.7,15.5c-1.9,4.5,2.4,20.8,2.6,23.4
		c0.2,2.6,3.2,17.3,2.6,19.3c-0.6,1.9-2,8.7-3.5,8.9c-1.5,0.2-2.4-2.8-2.4-6.3c0-3.5,3-9.7,0.9-14.3c-2.2-4.5-2.4-10.4-3.2-14.9
		c-0.9-4.5-2.6-10-2.6-10s-3.2,11.9-1.7,14.7c1.5,2.8,0.6,10,0.2,10.8c-0.4,0.9-8.4,22.1-8.9,24.2c-0.4,2.2-9.7,30.5-11,32.9
		c-1.3,2.4-4.5,14.5-8,18.2c-3.5,3.7-5.8,8.7-5.8,8.7s-1.7-6,0.4-10.2c2.2-4.1,5.8-11.9,8.2-17.7c2.4-5.8,3-10.4,2.2-10.8
		c-0.9-0.4-3.2-1.3-4.3-0.2c-1.1,1.1-3.2,9.3-4.5,11.9c-1.3,2.6-4.1,6.1-4.1,6.1s-1.3,3.2-1.7-1.3c-0.4-4.5-1.3-23.4-0.9-24.9
		c0.4-1.5-8.9-8-9.5-9.5c-0.7-1.5-6.5-21.9-7.8-23.8c-1.3-1.9-5.8-12.5-5.8-15.6c0-3,7.6-19.9,7.8-21.4c0.2-1.5-1.7-17.1-2-18.6
		c-0.2-1.5-0.2-7.1,0.2-12.3c0.4-5.2-2.8-9.1-4.3-14.7c-1.5-5.6-3.5-11.7-3.5-12.8S600.9,487.8,600.9,487.8z"/>
	<path opacity="0.16" fill="#6A6D71" d="M608.5,641c0,0-33.6,28.6-51.6,37c-17.9,8.3-50.4,22.7-54.9,26.4
		c-4.4,3.7-27.5,23.7-27.9,30.5c-0.4,6.8,0.7,11.6,5.2,6.1c4.4-5.5,26.8-29.2,28.5-31.8c1.7-2.6,13.9-9.4,17.9-11.3
		c4.1-1.8,37.6-15.2,41.9-18.1C592.3,663.3,608.5,641,608.5,641z"/>
	<path opacity="8.000000e-002" fill="#959A9E" d="M511.1,718.3c0,0-11,25.6-12.4,27.8c-1.4,2.2-8.3,9.9-8.3,9.9s5,9.4,4.4,14.6
		c-0.6,5.2-15.4,31.1-18.5,34.4c-3,3.3-7.7,13.2-6.9,13.8c0.8,0.5,4.4,1.1,6.1-1.9c1.7-3,7.4-9.1,9.9-11
		c2.5-1.9,14.9-11.8,16.3-15.1c1.4-3.3,7.4-18.2,7.4-20.7c0-2.5,1.7-24.5,1.7-30c0-5.5,1.7-12.4,1.7-14.6
		C512.4,723.2,511.1,718.3,511.1,718.3z"/>
	<path opacity="0.1" fill="#6A6D71" d="M647.9,874.1c0,0,12.7-7.4,14.3-9.1c1.7-1.6,11-17.1,20.1-19.3c9.1-2.2,22-4.1,26.4-3.9
		c4.4,0.3,8.5,0.3,8.5,0.3s-7.4-8.3-32.2-5c-24.8,3.3-22.8,14-25.3,17.1c-2.5,3-7.4,8.5-8.5,9.6
		C650.1,865.1,647.9,874.1,647.9,874.1z"/>
	<path opacity="0.1" fill="#6A6D71" d="M772.2,909.7c0,0-38.8-40.5-39.4-42.4c-0.6-1.9-2.2-11.3-1.4-11c0.8,0.3,20.4,18.5,21.5,19.6
		c1.1,1.1,14,10.7,16.2,12.7c2.2,1.9,3.6,8.3,4.1,11.3C773.8,902.8,772.2,909.7,772.2,909.7z"/>
	<path opacity="0.22" fill="#CFD4D8" d="M751.5,815.8c0,0-24-10.7-38-8.3c-14.1,2.5-33.3,9.4-36.1,12.9c-2.8,3.6-9.9,9.6-11,8.8
		c-1.1-0.8-0.6-9.9,2.2-12.7c2.8-2.8,22.9-20.9,29.2-23.1c6.3-2.2,28.1,0,32.5,1.9c4.4,1.9,17.6,8,19.8,10.5c2.2,2.5,8,6.9,7.4,8.5
		C757,816,751.5,815.8,751.5,815.8z"/>
	<path opacity="0.1" fill="#6A6D71" d="M751.2,864c0,0,15.7,16.5,17.6,16.3c1.9-0.3,2.5-3.6,0.5-5.2
		C767.5,873.3,751.2,864,751.2,864z"/>
	<path opacity="0.2" fill="#6A6D71" d="M660.9,889.3c0,0,14.9-3.6,25.9-0.6c11,3,26.4,6.3,30.6,7.4c4.1,1.1,11.6,5,11.6,5
		s-22.3-2.5-23.7-3.9c-1.4-1.4-15.7-5-18.7-5.2c-3-0.3-17.9-0.8-19-0.8C666.4,891.2,660.9,889.3,660.9,889.3z"/>
	<path opacity="0.12" fill="#6A6D71" d="M731.4,846.6c0,0,27.8,17.6,29.7,18.5c1.9,0.8,11.8,10.2,12.4,12.1
		c0.6,1.9,1.1,9.4,1.9,10.2c0.8,0.8,1.9,1.1,1.9,1.1s1.1-3.3-0.3-10.2c-1.4-6.9-2.5-12.7-1.1-18.2c1.4-5.5,1.9-11.8,1.9-11.8
		s-6.9,14-8.3,14.9c-1.4,0.8,1.4-8.5,1.4-13.5c0-5-0.8-11.3-0.8-11.3s-5.5,9.4-6.9,10.5c-1.4,1.1-5,1.4-5,1.4l0.3-5.2
		c0,0-5,4.1-6.1,4.1c-1.1,0-1.1-4.1-1.1-4.1s20.1-14.6,20.9-20.7c0.8-6.1,0.6-17.9-9.6-22c-10.2-4.1-16.8-9.1-16.8-9.1
		s21.2,16.5,22.3,20.4c1.1,3.9-2.2,17.4-7.2,19.8c-5,2.5-11,4.4-16.8,4.4c-5.8,0-12.4-2.5-14-0.3c-1.7,2.2-1.4,5-0.8,6.3
		C730,845.2,731.4,846.6,731.4,846.6z"/>
	<path opacity="0.22" fill="#CFD4D8" d="M717.9,905.8c0,0,5.8,6.3,6.6,8.3c0.8,1.9,2.2,4.7,3.6,5.2c1.4,0.6,2.8-1.1,2.8-2.2
		c0-1.1-1.4-4.4-2.2-5.2c-0.8-0.8-2.8-3-4.7-4.4c-1.9-1.4-4.1-2.2-4.1-2.2L717.9,905.8z"/>
	<path opacity="0.22" fill="#6A6D71" d="M662.3,927.6c0,0-0.3-1.4-3.3-4.7c-3-3.3-6.1-5.5-6.1-7.7c0-2.2-0.6-5-0.6-8.5
		c0-3.6-0.8-8.5-0.8-8.5s-3,1.7-4.4,3.9c-1.4,2.2-4.1,7.4-4.1,9.4c0,1.9,2.5,4.7,5.5,7.7c3,3,5.8,2.2,7.7,5.2c1.9,3,1.7,5.5,0,5.2
		c-1.7-0.3-4.7-2.2-5-3.3c-0.3-1.1-3-1.4-4.7-1.4c-1.7,0-3.3,1.1-2.8,2.5c0.5,1.4,3.6,11.3,4.4,12.9c0.8,1.7,3.6,6.1,3.6,6.1
		s1.6-9.6,3.9-10.5c2.2-0.8,5.5-2.5,6.3-1.9c0.8,0.5,3.3-3.3,3.3-3.3L662.3,927.6z"/>
	<path opacity="0.22" fill="#6A6D71" d="M670.8,916.8c0,0,6.6,1.1,7.2,0c0.5-1.1-0.3-5-0.3-6.9c0-1.9,2.2-7.2,2.2-7.2
		s1.4,10.5,1.7,11.3c0.3,0.8,2.8-5.2,2.8-5.2s2.5,5.5,3.9,6.3c1.4,0.8,12.4,3,13.8,1.9c1.4-1.1,5.8-12.7,5.8-12.7s1.1,7.7,0.3,9.6
		c-0.8,1.9-1.6,5,0.3,5.2c1.9,0.3,7.4-6.1,8.5-5.8c1.1,0.3,2.5,1.6,1.9,2.8c-0.6,1.1-3,3.6-2.2,4.7c0.8,1.1,10.7,7.2,12.4,7.4
		c1.7,0.3,7.2,1.1,8.3,1.1c1.1,0,5.8-0.6,6.6-0.6c0.8,0,5.2,0.6,5.2,0.6s2.5,3.6-1.4,3.6c-3.9,0-7.2,0.8-7.2,0.8s3.3,4.7,5.2,5.5
		c1.9,0.8,9.1,0,9.1,0s-3.9,3.3-3.9,4.1c0,0.8-5.5-1.4-6.3-2.5c-0.8-1.1-5.2-6.1-6.6-6.9c-1.4-0.8-15.4-5.2-16.5-6.3
		c-1.1-1.1-7.7-5.5-10.2-6.1c-2.5-0.6-11-2.2-13.5-2.2c-2.5,0-10.5-2.2-13.8-1.9c-3.3,0.3-9.1,1.1-10.2,1.6
		c-1.1,0.6-3.3,4.4-3.9,5.2c-0.5,0.8-4.7,6.1-4.7,6.1s-1.1-1.7-0.8-7.2C664.7,917.9,670.8,916.8,670.8,916.8z"/>
	<path opacity="0.1" fill="#959A9E" d="M755.1,716.3c0,0-8.8,25.3-12.4,30.8c-3.6,5.5-12.4,11.8-14,14.6c-1.7,2.8-8.5,16,1.9,19.6
		c10.5,3.6,30,11.8,34.4,17.6c4.4,5.8,6.6,6.9,6.6,6.9s1.7-7.2,1.7-9.4c0-2.2-4.1-34.4-5.8-44.3c-1.7-9.9-6.9-31.4-6.9-33.9
		c0-2.5-3-11.6-3-12.4C757.6,705,755.1,716.3,755.1,716.3z"/>
	<path opacity="0.22" fill="#CFD4D8" d="M603.3,725.5c0,0,6.5,53.5,6.2,60.1c-0.3,6.6-2.1,24.2-5.2,33.6c-3.1,9.3-5.2,19-5.2,20.4
		c0,1.4,8.3-6.9,11.4-9.7c3.1-2.8,6.9-10.7,6.9-16.6c0-5.9,0.8-23.2,0.1-36.3c-0.7-13.2-3.1-31.8-4.1-33.7
		C612,740.4,603.3,725.5,603.3,725.5z"/>
	<path opacity="8.000000e-002" fill="#6A6D71" d="M357.2,708.8c0,0,20.8,38.8,20.8,41.5c0,2.8-0.7,33.6,0,38.8
		c0.7,5.2,1,13.8,0,14.2c-1,0.3,2.1,13.5,2.1,13.5s2.1-17.3,3.1-20.4c1-3.1-1-19.4,0-29.8c1-10.4,2.8-12.5,1-18.7
		c-1.7-6.2-9-15.2-13.5-23.9c-4.5-8.7-10.7-14.5-10.7-14.5L357.2,708.8z"/>
	<path opacity="8.000000e-002" fill="#6A6D71" d="M369.3,656.5c0,0-2.8,14.2-2.8,17c0,2.8,8.6,4.5,8.6,4.5s5.2,6.6,5.2,10
		c0,3.5-1,9,0.3,12.1c1.4,3.1,3.1,8.6,2.8,9.7c-0.4,1-4.8,5.9-5.2,6.9c-0.3,1-0.3,6.2-0.3,6.2s5.5-5.5,6.9-7.6
		c1.4-2.1,2.1-4.5,1.4-8.3c-0.7-3.8-2.4-10.7-2.4-12.1c0-1.4,1.4-9.4,0.7-10.4c-0.7-1-6.6-10-6.6-10l-5.2-7.3l-2.4-6.6L369.3,656.5z
		"/>
	<path opacity="8.000000e-002" fill="#6A6D71" d="M379.7,674.1c0,0,2.1-3.1,1.7-6.2c-0.3-3.1-0.4-4.2-1-6.9
		c-0.7-2.8,2.1-11.1,2.1-11.1s2.4-8.3,0-16.6c-2.4-8.3-1.7-16.6-0.7-20.4c1.1-3.8,1.4-7.3,2.8-9c1.4-1.7,5.9-10.7,5.9-12.8
		c0-2.1,3.8,9.7-0.7,14.9c-4.5,5.2-3.8,8.7-3.8,11.4c0,2.8,2.1,20.8,1.7,22.1c-0.3,1.4-0.7,8-1,10.4c-0.4,2.4-1.7,8.3-1.7,9.3
		c0,1-0.3,8-0.7,9C383.8,669.3,379.7,674.1,379.7,674.1z"/>
	<path opacity="8.000000e-002" fill="#959A9E" d="M454.8,610.8c0,0,12.5,22.5,11.8,27.7c-0.7,5.2-0.7,20.1,0,21.1
		c0.7,1,18.7-4.9,27.3,2.1c8.6,6.9,18,13.2,21.1,13.9c3.1,0.7,3.8,4.8,8.6,4.8c4.9,0,27.7-8.3,27.7-8.3s-5.9-0.7-14.2-3.1
		c-8.3-2.4-16.3-5.2-19.4-10.7c-3.1-5.5-6.9-12.8-8-14.2c-1-1.4-5.5-3.8-5.5-3.8s9.7,15.2,11.4,20.8c1.7,5.5,6.2,11.1,6.2,11.1
		s-6.6-3.8-15.2-8.7c-8.6-4.8-10-9.4-19.7-10c-9.7-0.7-6.6,2.4-8-12.5c-1.4-14.9-6.6-16.6-1.7-24.2c4.8-7.6,8.3-16.1,10-26.3
		c0.3-2.1-10.7,19.4-14.9,20.4c-4.2,1-15.2-9-15.9-12.1c-0.7-3.1-5.2-15.9-5.2-15.9s-0.3,19.4,0,21.8
		C451.7,607,454.8,610.8,454.8,610.8z"/>
	<path opacity="0.18" fill="#6A6D71" d="M313.6,700.7c0,0-28.7-21.5-35-22.7c-6.3-1.2-17.1,0-27.8-5.1
		c-10.8-5.1-25.4-14.4-32.9-18.8c-7.5-4.5-12.9-5.1-15-10.2c-2.1-5.1-3.6-8.4-3.6-8.4s-9.9,16.5-8.7,19.8c1.2,3.3,20.7,2.7,23.9,4.2
		c3.3,1.5,26,12.3,27.8,13.5c1.8,1.2,6,6,15.3,7.2c9.3,1.2,17,0,21.2,2.4C283.1,684.8,313.6,700.7,313.6,700.7z"/>
	<polygon opacity="0.5" fill="#CFD4D8" points="204.7,583.3 225.9,522 226.5,523.5 	"/>
	<path opacity="0.22" fill="#CFD4D8" d="M590.9,825.9c0,0-14.6,18.4-19.7,21.5c-5.1,3.1-8.7-0.3-9.2,4.4c-0.5,4.6,2.3,24.6,2.8,29.7
		c0.5,5.1,1.8,12.8,1.8,12.8s4.1-14.1,3.6-21c-0.5-6.9-2.8-12.8,0.8-18.2c3.6-5.4,8.7-6.9,13.8-16.4
		C589.9,829.2,590.9,825.9,590.9,825.9z"/>
	<path opacity="0.22" fill="#CFD4D8" d="M611.1,845.6c0,0-5.9,12.3-9,13.8c-3.1,1.5-17.4,4.9-17.4,4.9s6.7,4.6,12.8,4.1
		c6.1-0.5,9.7,0,11.8-4.6C611.4,859.2,611.1,845.6,611.1,845.6z"/>
	<path opacity="0.22" fill="#CFD4D8" d="M649.8,881.7c0,0,9-9.7,11.3-9.2c2.3,0.5,3.6,2,2,3.1c-1.5,1-7.9,5.9-9.2,7.9
		c-1.3,2-3.3,2.3-3.8,1.3C649.5,883.7,649.8,881.7,649.8,881.7z"/>
	<path opacity="0.22" fill="#CFD4D8" d="M680,828.2c0,0,26.9,1.3,31.7,3.6c4.9,2.3,10.3,4.6,10.3,4.6s12.3-5.1,23.3-5.1
		c11,0,15.6-1.8,15.1-2.6c-0.5-0.8-7.2-0.3-12.8,0c-5.6,0.3-18.4,2.3-20.2,3.1c-1.8,0.8-5.1,3.1-5.1,3.1s-16.6-7.7-24.3-7.7
		C690.2,827.1,680,828.2,680,828.2z"/>
	<path opacity="0.22" fill="#CFD4D8" d="M738.4,641c4.9,42.3,4.1,39.7,1.5,53.8c-2.4,13.4-10.5,37.1-10.5,37.1s12.5-16.9,13.8-27.1
		c1.3-10.2,6.4-27.1,1.8-46.1C743.3,651.7,738.4,641,738.4,641z"/>
	<path opacity="0.22" fill="#CFD4D8" d="M638,694.5c0,0,24.6-48.7,25.9-52.2c1.3-3.6,18.7-47.1,20-52.7c1.3-5.6,3.3-22,3.3-22
		s3.1,23.3-18.7,71.2C656,666.1,638,694.5,638,694.5z"/>
	<path opacity="0.2" fill="#CFD4D8" d="M534.1,390c0,0,32.2-1.4,37.9,3.7c5.6,5.1,16.1,9.5,18.2,9.6c2.1,0.2,15.8-0.9,18.2,6.7
		c2.5,7.5,4.7,24.4,1.4,33.7c-3.3,9.3-5.4,25.8-5.4,30.9c0,5.1,0.5,7.9-2.8,10.3c-3.3,2.5-5.9,6.6-5.9,8.4c0.1,1.8,0.5-4.2,5.2-5.4
		c4.7-1.2,6.5,0.2,6.6,3.7c0.2,3.5,4.9,23.1,4.9,23.1s3.7-4.2,4-8.9c0.3-4.7-2.6-23.3-1.8-28.2c0.9-4.9,6-27.5,6-35.9
		c0-8.4-0.2-18.8-0.2-20.2c0-1.4,1-8.4,1.8-7.4c0.7,1.1,13.3,22.3,13.1,30.9c-0.2,8.6-1.2,9.3,1.9,15.1c3.1,5.8,6.8,8.6,8.1,9.3
		c1.2,0.7,3.3-0.3,3.3-0.3s-5.3-8.2-6.5-13.3c-1.2-5.1-1.4-21-2.1-27.7c-0.7-6.7-4.2-21.2-9.5-26.3c-5.3-5.1-32.1-22.6-36.3-22.6
		c-4.2,0-29.8,0.2-39.3,2.5c-9.5,2.3-17.2,5.4-21,4.9c-3.9-0.5-25.1-2.1-25.1-2.1s6.3,4.9,13.7,5.8C530.1,390.9,534.1,390,534.1,390
		z"/>
	<path opacity="0.25" fill="#6A6D71" d="M647.3,427.3c0,0,4.3,11.4,5.8,14.9c1.6,3.6,3.7,10,3.7,10s1.8-3.1,0.9-5.8
		c-1-2.7-3.1-6.1-3.1-8.8c0-2.7-0.4-5.7-2.1-7.5C650.8,428.2,647.3,427.3,647.3,427.3z"/>
	<path opacity="0.25" fill="#6A6D71" d="M652.6,463.5c0,0-2.4-2.6-2.4-5.8c0-3.3,1.3-2.7-0.1-8.3c-1.4-5.6-0.3-4.6-0.3-4.6
		s3.1,4.3,3,6.3c-0.1,2,0.1,4.8-0.1,7.3C652.3,460.8,652.6,463.5,652.6,463.5z"/>
	<path opacity="0.25" fill="#959A9E" d="M323.8,342.7c0,0-3.3-13.5-5.6-19.4c-2.3-5.8-7.3-13.1-7.3-13.1l0.7-4.3c0,0,4.1,7.1,5,6.5
		c0.9-0.6,2.3-8.7,2.3-8.7s4.1,8.7,5.8,14.2c1.7,5.6,1.8,12.7,1.3,16.4C325.5,338.2,323.8,342.7,323.8,342.7z"/>
	<path opacity="0.1" fill="#CFD4D8" d="M258.6,667c0,0,16.7-1.9,20.9-8.7c4.2-6.8,6.8-15.6,9.5-13.7c2.7,1.9,36.4,23.2,41.8,25.1
		c5.3,1.9,18.6,2.7,19,4.9c0.4,2.3-13.7,10.3-17.1,9.9c-3.4-0.4-25.8-8.7-29.6-11.8c-3.8-3-12.1-8.7-14-10.2
		c-1.9-1.5-5.7-3.8-7.2-1.5c-1.5,2.3-6.5,7.2-12.9,7.2C262.4,668.1,258.6,667,258.6,667z"/>
	<path opacity="0.22" fill="#CFD4D8" d="M68.9,647.6c0,0-0.7-40.4,6.7-40.9c7.4-0.5,55,46.1,55,49.3c0,3.2-1.7,4.2-1.7,4.2
		s-22.1-23-27.3-26.8c-5.2-3.7-17.1-10.2-21.3-5.2C76.1,633.3,68.9,647.6,68.9,647.6z"/>
	<path opacity="0.22" fill="#CFD4D8" d="M57,642.4c0,0,18.6,19.3,20.3,20.3c1.7,1,8.2,2,8.4,5.2c0.2,3.2-3.7,6.7-5.4,4.7
		c-1.7-2-12.6-12.6-13.6-14.1c-1-1.5-6.4-8.4-7.9-9.9C57.2,647.1,57,642.4,57,642.4z"/>
	<path opacity="0.22" fill="#CFD4D8" d="M177.2,840c0,0-3-20.8-7.2-27.3c-4.2-6.4-8.2-12.6-14.6-19.3c-6.5-6.7-11.6-9.9-15.1-14.1
		c-3.5-4.2,0.5,4.2,0,12.1c-0.5,7.9,4,22.6,4,22.6s12.1,11.5,14.6,14.1C164.3,833.8,177.2,840,177.2,840z"/>
	<path opacity="0.22" fill="#CFD4D8" d="M147.7,754.2c0,0-32.2-26.3-60.5-23.8c-21,1.8-16.4,12.4-16.1,14.6c0.2,2.2,21.3,28,21.3,28
		s-26.5-35.3-6.9-37.2C112,733.4,147.7,754.2,147.7,754.2z"/>
	<path opacity="0.22" fill="#CFD4D8" d="M128.9,668.9c0,0,6.7,21.2,14.1,29.9c7.4,8.7,11.5,14.4,11.5,14.4s-14.5-5.6-20.5-18.2
		C128,682.3,128.9,668.9,128.9,668.9z"/>
	<path opacity="0.22" fill="#CFD4D8" d="M161.5,686c0,0,0.3,8,0.6,9.7c0.3,1.7,3.1,10.8,3.1,10.8s4-4,4-4.8c0-0.9-1.7-1.7-2-5.1
		c-0.3-3.4-2-5.4-2.3-6.3C164.6,689.4,161.5,686,161.5,686z"/>
	<path opacity="0.25" fill="#959A9E" d="M179.1,691.1c0,0-5.7-12.8-6-15.7c-0.3-2.8-7.4-26.8-11.7-37.3c-4.3-10.5-8-17.7-9.7-19.9
		c-1.7-2.3-2.8-11.4-5.7-17.9c-2.8-6.5-6.3-14-6.3-18.5c0-4.6-0.6-14.2-0.6-14.2s4.6,18.5,5.4,21.1c0.9,2.6,3.4,7.4,3.4,7.4l0.6-6.5
		c0,0,1.7,7.4,2,8.8c0.3,1.4,2.8,8.5,2.8,10.5c0,2,0.6,7.1,0.6,7.1s5.4,10.8,6.5,14.2c1.1,3.4,13.7,38.4,14,40.1
		c0.3,1.7,2.6,9.4,3.1,12C178.3,684.8,179.1,691.1,179.1,691.1z"/>
	<path opacity="0.25" fill="#959A9E" d="M158.7,469.4c0,0,7.7-13.2,8-17.9c0.4-4.8,2.6-19.4,2.6-19.4s2.6,14.6,1.5,18.3
		c-1.1,3.7-7.7,16.1-8,19.4C162.4,473.1,158.7,469.4,158.7,469.4z"/>
	<path opacity="0.25" fill="#959A9E" d="M170.1,494.3c0,0,6.6-13.2,6.6-16.8c0-3.7-0.7-12.4-0.7-12.4s-1.5,9.1-2.6,13.9
		c-1.1,4.8-3.3,11.7-3.3,11.7V494.3z"/>
	<g>
		<path fill="#CFD4D8" d="M654.6,985.1"/>
	</g>
	<path opacity="0.25" fill="#959A9E" d="M38.7,909.8c0,0,32.9-25.1,32.9-28.6c0-3.5-25.4,3.8-28.9,4.9c-3.5,1.1-10.3,4-10.3,4
		s25.4-5.7,25.4-4.6c0,1.1-5.7,5.4-7,7.3c-1.3,1.9-5.7,7-6.5,8.1C43.6,901.9,38.7,909.8,38.7,909.8z"/>
	<path opacity="0.22" fill="#CFD4D8" d="M21.2,881.7c0,0,3.8,5.7,7.5,5.4c3.8-0.3,40.2-11.1,42.3-11.1c2.2,0-32.9,5.9-36.7,6.5
		c-3.8,0.5-8.1,1.3-9.2,0.5C24.2,882.3,21.2,881.7,21.2,881.7z"/>
	<path opacity="0.22" fill="#CFD4D8" d="M77.2,811.2c0,0,17.5-11.5,22.6-9.7c5.2,1.8,21.4,14.7,21.4,14.7s-18.6-5.7-25.6-5.7
		C88.7,810.4,77.2,811.2,77.2,811.2z"/>
	<path opacity="0.22" fill="#CFD4D8" d="M301.5,352.8c0,0,23.1,21.9,26.2,24.8s14.8,12.5,19.4,18.8c4.6,6.3,17.9,17.9,17.9,17.9
		s-7.4-2-8.5-3.4c-1.1-1.4-10-8.5-11.7-12.2c-1.7-3.7-13.1-10.8-15.7-13.7c-2.6-2.8-16.2-15.1-21.9-19.6c-5.7-4.6-15.4-6.8-15.4-6.8
		l8.5-1.4L301.5,352.8z"/>
	
		<radialGradient id="SVGID_6_" cx="34.2052" cy="1175.5339" r="101.4129" gradientTransform="matrix(0.7197 0 0 0.7197 111.6526 181.2388)" gradientUnits="userSpaceOnUse">
		<stop  offset="0" style="stop-color:#CFD4D8"/>
		<stop  offset="1" style="stop-color:#6A6D71"/>
	</radialGradient>
	<path fill="url(#SVGID_6_)" d="M61.1,1036.6c0,0,0.7,13.4,33.2,5.6c32.5-7.8,39.9-25.3,39.9-25.3s-42.2-0.2-48.1,0.9
		C67.4,1021.6,61.1,1036.6,61.1,1036.6z"/>
	
		<radialGradient id="SVGID_7_" cx="786.4494" cy="1159.8143" r="68.4715" gradientTransform="matrix(0.7197 0 0 0.7197 111.6526 181.2388)" gradientUnits="userSpaceOnUse">
		<stop  offset="0" style="stop-color:#CFD4D8"/>
		<stop  offset="1" style="stop-color:#6A6D71"/>
	</radialGradient>
	<path fill="url(#SVGID_7_)" d="M654.4,986.2c0,0,1.7,20.5,31.2,27.3c31.4,7.2,41.2,0,41.2,0s-14.6-18.8-31-24.1
		C677.8,983.6,654.4,986.2,654.4,986.2z"/>
	<g>
		<path fill="#0057A4" d="M748.4,924.4l-8.5-4.5c-2.8-1.5-6.3-0.4-7.8,2.4c-1.5,2.8-0.4,6.3,2.4,7.8l8.5,4.5
			c2.8,1.5,6.3,0.4,7.8-2.4C752.3,929.4,751.2,925.9,748.4,924.4z M743.3,934.1l-8.5-4.5c-2.5-1.3-3.4-4.4-2.1-6.9
			c1.3-2.5,4.4-3.4,6.9-2.1l8.5,4.5c2.5,1.3,3.4,4.4,2.1,6.9C748.9,934.4,745.8,935.4,743.3,934.1z"/>
		<path fill="#0057A4" d="M747.9,925.3l-8.5-4.5c-2.3-1.2-5.2-0.4-6.5,2c-1.2,2.3-0.4,5.2,2,6.5l8.5,4.5c2.3,1.2,5.2,0.3,6.5-2
			C751.1,929.5,750.3,926.6,747.9,925.3z M735.5,928.2c-1.6-1-2.2-3.1-1.3-4.8c0.9-1.7,2.9-2.4,4.7-1.6L735.5,928.2z M738.8,929.9
			l-2.8-1.5l4.2-1.3L738.8,929.9z M740.7,926.3l-1.3-4.2l2.8,1.5L740.7,926.3z M741.7,931.5l-2.3-1.2l3.4-6.4l2.3,1.2L741.7,931.5z
			 M742.2,931.8l1.5-2.8l1.3,4.2L742.2,931.8z M744.2,928.2l1.5-2.8l2.8,1.5L744.2,928.2z"/>
		<path fill="#FFFFFF" d="M748.1,925l-8.5-4.5c-2.5-1.3-5.6-0.4-6.9,2.1c-1.3,2.5-0.4,5.6,2.1,6.9l8.5,4.5c2.5,1.3,5.6,0.4,6.9-2.1
			C751.5,929.5,750.6,926.4,748.1,925z M749.9,931.8c-1.2,2.3-4.1,3.2-6.5,2l-8.5-4.5c-2.3-1.2-3.2-4.1-2-6.5c1.2-2.3,4.1-3.2,6.5-2
			l8.5,4.5C750.3,926.6,751.1,929.5,749.9,931.8z"/>
		<path fill="#FFFFFF" d="M734.2,923.4c-0.9,1.7-0.3,3.8,1.3,4.8l3.4-6.4C737.1,921.1,735.1,921.7,734.2,923.4z"/>
		<polygon fill="#FFFFFF" points="740.7,926.3 742.2,923.6 739.4,922.1 		"/>
		<polygon fill="#FFFFFF" points="738.8,929.9 740.2,927.2 736,928.5 		"/>
		<polygon fill="#BF2A43" points="744.2,928.2 748.4,926.9 745.6,925.4 		"/>
		<polygon fill="#BF2A43" points="742.2,931.8 745,933.3 743.7,929 		"/>
		
			<rect x="740.9" y="924.1" transform="matrix(-0.8834 -0.4686 0.4686 -0.8834 963.2024 2094.9915)" fill="#BF2A43" width="2.6" height="7.2"/>
	</g>
	<g>
		
		
		
			<radialGradient id="SVGID_8_" cx="402.763" cy="1017.584" r="166.2254" gradientTransform="matrix(0.7197 0 0 0.7197 111.6526 181.2388)" gradientUnits="userSpaceOnUse">
			<stop  offset="0" style="stop-color:#000000"/>
			<stop  offset="1" style="stop-color:#6A6D71"/>
		</radialGradient>
		<path opacity="8.000000e-002" fill="url(#SVGID_8_)" d="M233.8,903.7l-1-0.1c0,0,5.9,6.6,10.7,8.1c4.8,1.5,13,3.6,13.8,4.1
			c0.8,0.5,11.2,4.3,12.2,4.6c1,0.3,9.2,1,12.2,1.3c3.1,0.3,26.7,1.3,27.5,1.5c0.8,0.3,27,1.5,29,1.5s40.8,1.3,41.8,1.3
			c1,0,29.3,0.3,29.3,0.3s7.6-1,8.9-1c1.3,0,10.4,0,10.4,0l32.4-1.3c0,0,12,0.3,13,0.3c1,0,22.2-1.5,22.9-1.8
			c0.8-0.3,14.3-3.1,15-3.3c0.8-0.3,8.2-3.1,9.7-3.3c1.5-0.3,13.5-2.5,14.8-2.5c1.3,0,13.5-2.5,14.5-2.5c1,0,14.3-4.1,14.3-4.1
			l5-5.7C518.4,921.6,288.2,929.4,233.8,903.7z"/>
	</g>
	<g>
		<rect x="394.3" y="444.6" fill="#5E6167" width="6.9" height="87.7"/>
		<g>
			<g opacity="0.75">
				<g>
					<g>
						<g>
							<g>
								<g>
									
										<radialGradient id="SVGID_9_" cx="345.6518" cy="505.283" r="2.5304" gradientTransform="matrix(1.3125 0 0 1.0683 -56.7021 -49.2956)" gradientUnits="userSpaceOnUse">
										<stop  offset="0" style="stop-color:#CFD4D8"/>
										<stop  offset="1" style="stop-color:#6A6D71"/>
									</radialGradient>
									<path fill="url(#SVGID_9_)" stroke="#897F76" stroke-width="8.484707e-002" d="M399.4,490.4c0,0.5-0.5,0.9-1.1,0.9h-4.1
										c-0.6,0-1.1-0.4-1.1-0.9l0,0c0-0.5,0.5-0.9,1.1-0.9h4.1C398.9,489.5,399.4,489.9,399.4,490.4L399.4,490.4z"/>
								</g>
								
									<radialGradient id="SVGID_10_" cx="345.6518" cy="508.5429" r="2.5311" gradientTransform="matrix(1.3125 0 0 1.0683 -56.7021 -49.2956)" gradientUnits="userSpaceOnUse">
									<stop  offset="0" style="stop-color:#CFD4D8"/>
									<stop  offset="1" style="stop-color:#6A6D71"/>
								</radialGradient>
								<path fill="url(#SVGID_10_)" stroke="#897F76" stroke-width="8.484707e-002" d="M399.4,493.9c0,0.5-0.5,0.9-1.1,0.9h-4.1
									c-0.6,0-1.1-0.4-1.1-0.9l0,0c0-0.5,0.5-0.9,1.1-0.9h4.1C398.9,493,399.4,493.4,399.4,493.9L399.4,493.9z"/>
								
									<radialGradient id="SVGID_11_" cx="-1406.5145" cy="506.9119" r="2.5305" gradientTransform="matrix(-1.3125 0 0 1.0683 -1447.4844 -49.2956)" gradientUnits="userSpaceOnUse">
									<stop  offset="0" style="stop-color:#CFD4D8"/>
									<stop  offset="1" style="stop-color:#6A6D71"/>
								</radialGradient>
								<path fill="url(#SVGID_11_)" stroke="#897F76" stroke-width="8.484707e-002" d="M396.2,492.1c0,0.5,0.5,0.9,1.1,0.9h4.1
									c0.6,0,1.1-0.4,1.1-0.9l0,0c0-0.5-0.5-0.9-1.1-0.9h-4.1C396.7,491.3,396.2,491.7,396.2,492.1L396.2,492.1z"/>
								
									<radialGradient id="SVGID_12_" cx="-1406.5145" cy="510.1736" r="2.5307" gradientTransform="matrix(-1.3125 0 0 1.0683 -1447.4844 -49.2956)" gradientUnits="userSpaceOnUse">
									<stop  offset="0" style="stop-color:#CFD4D8"/>
									<stop  offset="1" style="stop-color:#6A6D71"/>
								</radialGradient>
								<path fill="url(#SVGID_12_)" stroke="#897F76" stroke-width="8.484707e-002" d="M396.2,495.6c0,0.5,0.5,0.9,1.1,0.9h4.1
									c0.6,0,1.1-0.4,1.1-0.9l0,0c0-0.5-0.5-0.9-1.1-0.9h-4.1C396.7,494.7,396.2,495.1,396.2,495.6L396.2,495.6z"/>
							</g>
							<g>
								<g>
									
										<radialGradient id="SVGID_13_" cx="345.6518" cy="498.686" r="2.5309" gradientTransform="matrix(1.3125 0 0 1.0683 -56.7021 -49.2956)" gradientUnits="userSpaceOnUse">
										<stop  offset="0" style="stop-color:#CFD4D8"/>
										<stop  offset="1" style="stop-color:#6A6D71"/>
									</radialGradient>
									<path fill="url(#SVGID_13_)" stroke="#897F76" stroke-width="8.484707e-002" d="M399.4,483.3c0,0.5-0.5,0.9-1.1,0.9h-4.1
										c-0.6,0-1.1-0.4-1.1-0.9l0,0c0-0.5,0.5-0.9,1.1-0.9h4.1C398.9,482.5,399.4,482.9,399.4,483.3L399.4,483.3z"/>
								</g>
								
									<radialGradient id="SVGID_14_" cx="345.6518" cy="501.9454" r="2.5317" gradientTransform="matrix(1.3125 0 0 1.0683 -56.7021 -49.2956)" gradientUnits="userSpaceOnUse">
									<stop  offset="0" style="stop-color:#CFD4D8"/>
									<stop  offset="1" style="stop-color:#6A6D71"/>
								</radialGradient>
								<path fill="url(#SVGID_14_)" stroke="#897F76" stroke-width="8.484707e-002" d="M399.4,486.8c0,0.5-0.5,0.9-1.1,0.9h-4.1
									c-0.6,0-1.1-0.4-1.1-0.9l0,0c0-0.5,0.5-0.9,1.1-0.9h4.1C398.9,486,399.4,486.3,399.4,486.8L399.4,486.8z"/>
								
									<radialGradient id="SVGID_15_" cx="-1406.5145" cy="500.3165" r="2.5301" gradientTransform="matrix(-1.3125 0 0 1.0683 -1447.4844 -49.2956)" gradientUnits="userSpaceOnUse">
									<stop  offset="0" style="stop-color:#CFD4D8"/>
									<stop  offset="1" style="stop-color:#6A6D71"/>
								</radialGradient>
								<path fill="url(#SVGID_15_)" stroke="#897F76" stroke-width="8.484707e-002" d="M396.2,485.1c0,0.5,0.5,0.9,1.1,0.9h4.1
									c0.6,0,1.1-0.4,1.1-0.9l0,0c0-0.5-0.5-0.9-1.1-0.9h-4.1C396.7,484.2,396.2,484.6,396.2,485.1L396.2,485.1z"/>
								
									<radialGradient id="SVGID_16_" cx="-1406.5145" cy="503.5768" r="2.5305" gradientTransform="matrix(-1.3125 0 0 1.0683 -1447.4844 -49.2956)" gradientUnits="userSpaceOnUse">
									<stop  offset="0" style="stop-color:#CFD4D8"/>
									<stop  offset="1" style="stop-color:#6A6D71"/>
								</radialGradient>
								<path fill="url(#SVGID_16_)" stroke="#897F76" stroke-width="8.484707e-002" d="M396.2,488.6c0,0.5,0.5,0.9,1.1,0.9h4.1
									c0.6,0,1.1-0.4,1.1-0.9l0,0c0-0.5-0.5-0.9-1.1-0.9h-4.1C396.7,487.7,396.2,488.1,396.2,488.6L396.2,488.6z"/>
							</g>
							<g>
								<g>
									
										<radialGradient id="SVGID_17_" cx="345.6518" cy="492.0887" r="2.5309" gradientTransform="matrix(1.3125 0 0 1.0683 -56.7021 -49.2956)" gradientUnits="userSpaceOnUse">
										<stop  offset="0" style="stop-color:#CFD4D8"/>
										<stop  offset="1" style="stop-color:#6A6D71"/>
									</radialGradient>
									<path fill="url(#SVGID_17_)" stroke="#897F76" stroke-width="8.484707e-002" d="M399.4,476.3c0,0.5-0.5,0.9-1.1,0.9h-4.1
										c-0.6,0-1.1-0.4-1.1-0.9l0,0c0-0.5,0.5-0.9,1.1-0.9h4.1C398.9,475.4,399.4,475.8,399.4,476.3L399.4,476.3z"/>
								</g>
								
									<radialGradient id="SVGID_18_" cx="345.6518" cy="495.3486" r="2.5315" gradientTransform="matrix(1.3125 0 0 1.0683 -56.7021 -49.2956)" gradientUnits="userSpaceOnUse">
									<stop  offset="0" style="stop-color:#CFD4D8"/>
									<stop  offset="1" style="stop-color:#6A6D71"/>
								</radialGradient>
								<path fill="url(#SVGID_18_)" stroke="#897F76" stroke-width="8.484707e-002" d="M399.4,479.8c0,0.5-0.5,0.9-1.1,0.9h-4.1
									c-0.6,0-1.1-0.4-1.1-0.9l0,0c0-0.5,0.5-0.9,1.1-0.9h4.1C398.9,478.9,399.4,479.3,399.4,479.8L399.4,479.8z"/>
								
									<radialGradient id="SVGID_19_" cx="-1406.5145" cy="493.718" r="2.5311" gradientTransform="matrix(-1.3125 0 0 1.0683 -1447.4844 -49.2956)" gradientUnits="userSpaceOnUse">
									<stop  offset="0" style="stop-color:#CFD4D8"/>
									<stop  offset="1" style="stop-color:#6A6D71"/>
								</radialGradient>
								<path fill="url(#SVGID_19_)" stroke="#897F76" stroke-width="8.484707e-002" d="M396.2,478c0,0.5,0.5,0.9,1.1,0.9h4.1
									c0.6,0,1.1-0.4,1.1-0.9l0,0c0-0.5-0.5-0.9-1.1-0.9h-4.1C396.7,477.2,396.2,477.6,396.2,478L396.2,478z"/>
								
									<radialGradient id="SVGID_20_" cx="-1406.5145" cy="496.9778" r="2.5309" gradientTransform="matrix(-1.3125 0 0 1.0683 -1447.4844 -49.2956)" gradientUnits="userSpaceOnUse">
									<stop  offset="0" style="stop-color:#CFD4D8"/>
									<stop  offset="1" style="stop-color:#6A6D71"/>
								</radialGradient>
								<path fill="url(#SVGID_20_)" stroke="#897F76" stroke-width="8.484707e-002" d="M396.2,481.5c0,0.5,0.5,0.9,1.1,0.9h4.1
									c0.6,0,1.1-0.4,1.1-0.9l0,0c0-0.5-0.5-0.9-1.1-0.9h-4.1C396.7,480.6,396.2,481,396.2,481.5L396.2,481.5z"/>
							</g>
							<g>
								<g>
									
										<radialGradient id="SVGID_21_" cx="345.6518" cy="485.4896" r="2.5313" gradientTransform="matrix(1.3125 0 0 1.0683 -56.7021 -49.2956)" gradientUnits="userSpaceOnUse">
										<stop  offset="0" style="stop-color:#CFD4D8"/>
										<stop  offset="1" style="stop-color:#6A6D71"/>
									</radialGradient>
									<path fill="url(#SVGID_21_)" stroke="#897F76" stroke-width="8.484707e-002" d="M399.4,469.2c0,0.5-0.5,0.9-1.1,0.9h-4.1
										c-0.6,0-1.1-0.4-1.1-0.9l0,0c0-0.5,0.5-0.9,1.1-0.9h4.1C398.9,468.4,399.4,468.8,399.4,469.2L399.4,469.2z"/>
								</g>
								
									<radialGradient id="SVGID_22_" cx="345.6518" cy="488.7494" r="2.5315" gradientTransform="matrix(1.3125 0 0 1.0683 -56.7021 -49.2956)" gradientUnits="userSpaceOnUse">
									<stop  offset="0" style="stop-color:#CFD4D8"/>
									<stop  offset="1" style="stop-color:#6A6D71"/>
								</radialGradient>
								<path fill="url(#SVGID_22_)" stroke="#897F76" stroke-width="8.484707e-002" d="M399.4,472.7c0,0.5-0.5,0.9-1.1,0.9h-4.1
									c-0.6,0-1.1-0.4-1.1-0.9l0,0c0-0.5,0.5-0.9,1.1-0.9h4.1C398.9,471.9,399.4,472.2,399.4,472.7L399.4,472.7z"/>
								
									<radialGradient id="SVGID_23_" cx="-1406.5145" cy="487.1195" r="2.5299" gradientTransform="matrix(-1.3125 0 0 1.0683 -1447.4844 -49.2956)" gradientUnits="userSpaceOnUse">
									<stop  offset="0" style="stop-color:#CFD4D8"/>
									<stop  offset="1" style="stop-color:#6A6D71"/>
								</radialGradient>
								<path fill="url(#SVGID_23_)" stroke="#897F76" stroke-width="8.484707e-002" d="M396.2,471c0,0.5,0.5,0.9,1.1,0.9h4.1
									c0.6,0,1.1-0.4,1.1-0.9l0,0c0-0.5-0.5-0.9-1.1-0.9h-4.1C396.7,470.1,396.2,470.5,396.2,471L396.2,471z"/>
								
									<radialGradient id="SVGID_24_" cx="-1406.5145" cy="490.3797" r="2.5299" gradientTransform="matrix(-1.3125 0 0 1.0683 -1447.4844 -49.2956)" gradientUnits="userSpaceOnUse">
									<stop  offset="0" style="stop-color:#CFD4D8"/>
									<stop  offset="1" style="stop-color:#6A6D71"/>
								</radialGradient>
								<path fill="url(#SVGID_24_)" stroke="#897F76" stroke-width="8.484707e-002" d="M396.2,474.5c0,0.5,0.5,0.9,1.1,0.9h4.1
									c0.6,0,1.1-0.4,1.1-0.9l0,0c0-0.5-0.5-0.9-1.1-0.9h-4.1C396.7,473.6,396.2,474,396.2,474.5L396.2,474.5z"/>
							</g>
							<g>
								<g>
									
										<radialGradient id="SVGID_25_" cx="345.6518" cy="478.8918" r="2.5307" gradientTransform="matrix(1.3125 0 0 1.0683 -56.7021 -49.2956)" gradientUnits="userSpaceOnUse">
										<stop  offset="0" style="stop-color:#CFD4D8"/>
										<stop  offset="1" style="stop-color:#6A6D71"/>
									</radialGradient>
									<path fill="url(#SVGID_25_)" stroke="#897F76" stroke-width="8.484707e-002" d="M399.4,462.2c0,0.5-0.5,0.9-1.1,0.9h-4.1
										c-0.6,0-1.1-0.4-1.1-0.9l0,0c0-0.5,0.5-0.9,1.1-0.9h4.1C398.9,461.3,399.4,461.7,399.4,462.2L399.4,462.2z"/>
								</g>
								
									<radialGradient id="SVGID_26_" cx="345.6518" cy="482.1539" r="2.5307" gradientTransform="matrix(1.3125 0 0 1.0683 -56.7021 -49.2956)" gradientUnits="userSpaceOnUse">
									<stop  offset="0" style="stop-color:#CFD4D8"/>
									<stop  offset="1" style="stop-color:#6A6D71"/>
								</radialGradient>
								<path fill="url(#SVGID_26_)" stroke="#897F76" stroke-width="8.484707e-002" d="M399.4,465.7c0,0.5-0.5,0.9-1.1,0.9h-4.1
									c-0.6,0-1.1-0.4-1.1-0.9l0,0c0-0.5,0.5-0.9,1.1-0.9h4.1C398.9,464.8,399.4,465.2,399.4,465.7L399.4,465.7z"/>
								
									<radialGradient id="SVGID_27_" cx="-1406.5145" cy="480.5229" r="2.5301" gradientTransform="matrix(-1.3125 0 0 1.0683 -1447.4844 -49.2956)" gradientUnits="userSpaceOnUse">
									<stop  offset="0" style="stop-color:#CFD4D8"/>
									<stop  offset="1" style="stop-color:#6A6D71"/>
								</radialGradient>
								<path fill="url(#SVGID_27_)" stroke="#897F76" stroke-width="8.484707e-002" d="M396.2,463.9c0,0.5,0.5,0.9,1.1,0.9h4.1
									c0.6,0,1.1-0.4,1.1-0.9l0,0c0-0.5-0.5-0.9-1.1-0.9h-4.1C396.7,463.1,396.2,463.5,396.2,463.9L396.2,463.9z"/>
								
									<radialGradient id="SVGID_28_" cx="-1406.5145" cy="483.7828" r="2.5311" gradientTransform="matrix(-1.3125 0 0 1.0683 -1447.4844 -49.2956)" gradientUnits="userSpaceOnUse">
									<stop  offset="0" style="stop-color:#CFD4D8"/>
									<stop  offset="1" style="stop-color:#6A6D71"/>
								</radialGradient>
								<path fill="url(#SVGID_28_)" stroke="#897F76" stroke-width="8.484707e-002" d="M396.2,467.4c0,0.5,0.5,0.9,1.1,0.9h4.1
									c0.6,0,1.1-0.4,1.1-0.9l0,0c0-0.5-0.5-0.9-1.1-0.9h-4.1C396.7,466.6,396.2,466.9,396.2,467.4L396.2,467.4z"/>
							</g>
							<g>
								<g>
									
										<radialGradient id="SVGID_29_" cx="345.6518" cy="472.2967" r="2.5311" gradientTransform="matrix(1.3125 0 0 1.0683 -56.7021 -49.2956)" gradientUnits="userSpaceOnUse">
										<stop  offset="0" style="stop-color:#CFD4D8"/>
										<stop  offset="1" style="stop-color:#6A6D71"/>
									</radialGradient>
									<path fill="url(#SVGID_29_)" stroke="#897F76" stroke-width="8.484707e-002" d="M399.4,455.1c0,0.5-0.5,0.9-1.1,0.9h-4.1
										c-0.6,0-1.1-0.4-1.1-0.9l0,0c0-0.5,0.5-0.9,1.1-0.9h4.1C398.9,454.3,399.4,454.7,399.4,455.1L399.4,455.1z"/>
								</g>
								
									<radialGradient id="SVGID_30_" cx="345.6518" cy="475.5564" r="2.5313" gradientTransform="matrix(1.3125 0 0 1.0683 -56.7021 -49.2956)" gradientUnits="userSpaceOnUse">
									<stop  offset="0" style="stop-color:#CFD4D8"/>
									<stop  offset="1" style="stop-color:#6A6D71"/>
								</radialGradient>
								<path fill="url(#SVGID_30_)" stroke="#897F76" stroke-width="8.484707e-002" d="M399.4,458.6c0,0.5-0.5,0.9-1.1,0.9h-4.1
									c-0.6,0-1.1-0.4-1.1-0.9l0,0c0-0.5,0.5-0.9,1.1-0.9h4.1C398.9,457.8,399.4,458.1,399.4,458.6L399.4,458.6z"/>
								
									<radialGradient id="SVGID_31_" cx="-1406.5145" cy="473.9247" r="2.5305" gradientTransform="matrix(-1.3125 0 0 1.0683 -1447.4844 -49.2956)" gradientUnits="userSpaceOnUse">
									<stop  offset="0" style="stop-color:#CFD4D8"/>
									<stop  offset="1" style="stop-color:#6A6D71"/>
								</radialGradient>
								<path fill="url(#SVGID_31_)" stroke="#897F76" stroke-width="8.484707e-002" d="M396.2,456.9c0,0.5,0.5,0.9,1.1,0.9h4.1
									c0.6,0,1.1-0.4,1.1-0.9l0,0c0-0.5-0.5-0.9-1.1-0.9h-4.1C396.7,456,396.2,456.4,396.2,456.9L396.2,456.9z"/>
								
									<radialGradient id="SVGID_32_" cx="-1406.5145" cy="477.1855" r="2.5308" gradientTransform="matrix(-1.3125 0 0 1.0683 -1447.4844 -49.2956)" gradientUnits="userSpaceOnUse">
									<stop  offset="0" style="stop-color:#CFD4D8"/>
									<stop  offset="1" style="stop-color:#6A6D71"/>
								</radialGradient>
								<path fill="url(#SVGID_32_)" stroke="#897F76" stroke-width="8.484707e-002" d="M396.2,460.4c0,0.5,0.5,0.9,1.1,0.9h4.1
									c0.6,0,1.1-0.4,1.1-0.9l0,0c0-0.5-0.5-0.9-1.1-0.9h-4.1C396.7,459.5,396.2,459.9,396.2,460.4L396.2,460.4z"/>
							</g>
							<g>
								<g>
									
										<radialGradient id="SVGID_33_" cx="345.6518" cy="465.6992" r="2.5317" gradientTransform="matrix(1.3125 0 0 1.0683 -56.7021 -49.2956)" gradientUnits="userSpaceOnUse">
										<stop  offset="0" style="stop-color:#CFD4D8"/>
										<stop  offset="1" style="stop-color:#6A6D71"/>
									</radialGradient>
									<path fill="url(#SVGID_33_)" stroke="#897F76" stroke-width="8.484707e-002" d="M399.4,448.1c0,0.5-0.5,0.9-1.1,0.9h-4.1
										c-0.6,0-1.1-0.4-1.1-0.9l0,0c0-0.5,0.5-0.9,1.1-0.9h4.1C398.9,447.2,399.4,447.6,399.4,448.1L399.4,448.1z"/>
								</g>
								
									<radialGradient id="SVGID_34_" cx="345.6518" cy="468.9575" r="2.5311" gradientTransform="matrix(1.3125 0 0 1.0683 -56.7021 -49.2956)" gradientUnits="userSpaceOnUse">
									<stop  offset="0" style="stop-color:#CFD4D8"/>
									<stop  offset="1" style="stop-color:#6A6D71"/>
								</radialGradient>
								<path fill="url(#SVGID_34_)" stroke="#897F76" stroke-width="8.484707e-002" d="M399.4,451.6c0,0.5-0.5,0.9-1.1,0.9h-4.1
									c-0.6,0-1.1-0.4-1.1-0.9l0,0c0-0.5,0.5-0.9,1.1-0.9h4.1C398.9,450.7,399.4,451.1,399.4,451.6L399.4,451.6z"/>
								
									<radialGradient id="SVGID_35_" cx="-1406.5145" cy="467.328" r="2.5303" gradientTransform="matrix(-1.3125 0 0 1.0683 -1447.4844 -49.2956)" gradientUnits="userSpaceOnUse">
									<stop  offset="0" style="stop-color:#CFD4D8"/>
									<stop  offset="1" style="stop-color:#6A6D71"/>
								</radialGradient>
								<path fill="url(#SVGID_35_)" stroke="#897F76" stroke-width="8.484707e-002" d="M396.2,449.8c0,0.5,0.5,0.9,1.1,0.9h4.1
									c0.6,0,1.1-0.4,1.1-0.9l0,0c0-0.5-0.5-0.9-1.1-0.9h-4.1C396.7,449,396.2,449.4,396.2,449.8L396.2,449.8z"/>
								
									<radialGradient id="SVGID_36_" cx="-1406.5145" cy="470.5877" r="2.5305" gradientTransform="matrix(-1.3125 0 0 1.0683 -1447.4844 -49.2956)" gradientUnits="userSpaceOnUse">
									<stop  offset="0" style="stop-color:#CFD4D8"/>
									<stop  offset="1" style="stop-color:#6A6D71"/>
								</radialGradient>
								<path fill="url(#SVGID_36_)" stroke="#897F76" stroke-width="8.484707e-002" d="M396.2,453.3c0,0.5,0.5,0.9,1.1,0.9h4.1
									c0.6,0,1.1-0.4,1.1-0.9l0,0c0-0.5-0.5-0.9-1.1-0.9h-4.1C396.7,452.5,396.2,452.8,396.2,453.3L396.2,453.3z"/>
							</g>
							<g>
								<g>
									
										<radialGradient id="SVGID_37_" cx="345.6518" cy="459.1013" r="2.5315" gradientTransform="matrix(1.3125 0 0 1.0683 -56.7021 -49.2956)" gradientUnits="userSpaceOnUse">
										<stop  offset="0" style="stop-color:#CFD4D8"/>
										<stop  offset="1" style="stop-color:#6A6D71"/>
									</radialGradient>
									<path fill="url(#SVGID_37_)" stroke="#897F76" stroke-width="8.484707e-002" d="M399.4,441c0,0.5-0.5,0.9-1.1,0.9h-4.1
										c-0.6,0-1.1-0.4-1.1-0.9l0,0c0-0.5,0.5-0.9,1.1-0.9h4.1C398.9,440.2,399.4,440.6,399.4,441L399.4,441z"/>
								</g>
								
									<radialGradient id="SVGID_38_" cx="345.6518" cy="462.3605" r="2.5315" gradientTransform="matrix(1.3125 0 0 1.0683 -56.7021 -49.2956)" gradientUnits="userSpaceOnUse">
									<stop  offset="0" style="stop-color:#CFD4D8"/>
									<stop  offset="1" style="stop-color:#6A6D71"/>
								</radialGradient>
								<path fill="url(#SVGID_38_)" stroke="#897F76" stroke-width="8.484707e-002" d="M399.4,444.5c0,0.5-0.5,0.9-1.1,0.9h-4.1
									c-0.6,0-1.1-0.4-1.1-0.9l0,0c0-0.5,0.5-0.9,1.1-0.9h4.1C398.9,443.7,399.4,444.1,399.4,444.5L399.4,444.5z"/>
								
									<radialGradient id="SVGID_39_" cx="-1406.5145" cy="460.7306" r="2.5299" gradientTransform="matrix(-1.3125 0 0 1.0683 -1447.4844 -49.2956)" gradientUnits="userSpaceOnUse">
									<stop  offset="0" style="stop-color:#CFD4D8"/>
									<stop  offset="1" style="stop-color:#6A6D71"/>
								</radialGradient>
								<path fill="url(#SVGID_39_)" stroke="#897F76" stroke-width="8.484707e-002" d="M396.2,442.8c0,0.5,0.5,0.9,1.1,0.9h4.1
									c0.6,0,1.1-0.4,1.1-0.9l0,0c0-0.5-0.5-0.9-1.1-0.9h-4.1C396.7,441.9,396.2,442.3,396.2,442.8L396.2,442.8z"/>
								
									<radialGradient id="SVGID_40_" cx="-1406.5145" cy="463.99" r="2.5307" gradientTransform="matrix(-1.3125 0 0 1.0683 -1447.4844 -49.2956)" gradientUnits="userSpaceOnUse">
									<stop  offset="0" style="stop-color:#CFD4D8"/>
									<stop  offset="1" style="stop-color:#6A6D71"/>
								</radialGradient>
								<path fill="url(#SVGID_40_)" stroke="#897F76" stroke-width="8.484707e-002" d="M396.2,446.3c0,0.5,0.5,0.9,1.1,0.9h4.1
									c0.6,0,1.1-0.4,1.1-0.9l0,0c0-0.5-0.5-0.9-1.1-0.9h-4.1C396.7,445.4,396.2,445.8,396.2,446.3L396.2,446.3z"/>
							</g>
						</g>
						<g>
							<g>
								<g>
									
										<radialGradient id="SVGID_41_" cx="345.6518" cy="544.9031" r="2.5315" gradientTransform="matrix(1.3125 0 0 1.0683 -56.7021 -49.2956)" gradientUnits="userSpaceOnUse">
										<stop  offset="0" style="stop-color:#CFD4D8"/>
										<stop  offset="1" style="stop-color:#6A6D71"/>
									</radialGradient>
									<path fill="url(#SVGID_41_)" stroke="#897F76" stroke-width="8.484707e-002" d="M399.4,532.7c0,0.5-0.5,0.9-1.1,0.9h-4.1
										c-0.6,0-1.1-0.4-1.1-0.9l0,0c0-0.5,0.5-0.9,1.1-0.9h4.1C398.9,531.8,399.4,532.2,399.4,532.7L399.4,532.7z"/>
								</g>
								
									<radialGradient id="SVGID_42_" cx="345.6518" cy="548.1623" r="2.5315" gradientTransform="matrix(1.3125 0 0 1.0683 -56.7021 -49.2956)" gradientUnits="userSpaceOnUse">
									<stop  offset="0" style="stop-color:#CFD4D8"/>
									<stop  offset="1" style="stop-color:#6A6D71"/>
								</radialGradient>
								<path fill="url(#SVGID_42_)" stroke="#897F76" stroke-width="8.484707e-002" d="M399.4,536.2c0,0.5-0.5,0.9-1.1,0.9h-4.1
									c-0.6,0-1.1-0.4-1.1-0.9l0,0c0-0.5,0.5-0.9,1.1-0.9h4.1C398.9,535.3,399.4,535.7,399.4,536.2L399.4,536.2z"/>
								
									<radialGradient id="SVGID_43_" cx="-1406.5145" cy="546.5324" r="2.5314" gradientTransform="matrix(-1.3125 0 0 1.0683 -1447.4844 -49.2956)" gradientUnits="userSpaceOnUse">
									<stop  offset="0" style="stop-color:#CFD4D8"/>
									<stop  offset="1" style="stop-color:#6A6D71"/>
								</radialGradient>
								<path fill="url(#SVGID_43_)" stroke="#897F76" stroke-width="8.484707e-002" d="M396.2,534.5c0,0.5,0.5,0.9,1.1,0.9h4.1
									c0.6,0,1.1-0.4,1.1-0.9l0,0c0-0.5-0.5-0.9-1.1-0.9h-4.1C396.7,533.6,396.2,534,396.2,534.5L396.2,534.5z"/>
								
									<radialGradient id="SVGID_44_" cx="-1406.5145" cy="549.7928" r="2.5307" gradientTransform="matrix(-1.3125 0 0 1.0683 -1447.4844 -49.2956)" gradientUnits="userSpaceOnUse">
									<stop  offset="0" style="stop-color:#CFD4D8"/>
									<stop  offset="1" style="stop-color:#6A6D71"/>
								</radialGradient>
								<path fill="url(#SVGID_44_)" stroke="#897F76" stroke-width="8.484707e-002" d="M396.2,537.9c0,0.5,0.5,0.9,1.1,0.9h4.1
									c0.6,0,1.1-0.4,1.1-0.9l0,0c0-0.5-0.5-0.9-1.1-0.9h-4.1C396.7,537.1,396.2,537.5,396.2,537.9L396.2,537.9z"/>
							</g>
							<g>
								<g>
									
										<radialGradient id="SVGID_45_" cx="345.6518" cy="538.3044" r="2.5317" gradientTransform="matrix(1.3125 0 0 1.0683 -56.7021 -49.2956)" gradientUnits="userSpaceOnUse">
										<stop  offset="0" style="stop-color:#CFD4D8"/>
										<stop  offset="1" style="stop-color:#6A6D71"/>
									</radialGradient>
									<path fill="url(#SVGID_45_)" stroke="#897F76" stroke-width="8.484707e-002" d="M399.4,525.7c0,0.5-0.5,0.9-1.1,0.9h-4.1
										c-0.6,0-1.1-0.4-1.1-0.9l0,0c0-0.5,0.5-0.9,1.1-0.9h4.1C398.9,524.8,399.4,525.2,399.4,525.7L399.4,525.7z"/>
								</g>
								
									<radialGradient id="SVGID_46_" cx="345.6518" cy="541.5641" r="2.5315" gradientTransform="matrix(1.3125 0 0 1.0683 -56.7021 -49.2956)" gradientUnits="userSpaceOnUse">
									<stop  offset="0" style="stop-color:#CFD4D8"/>
									<stop  offset="1" style="stop-color:#6A6D71"/>
								</radialGradient>
								<path fill="url(#SVGID_46_)" stroke="#897F76" stroke-width="8.484707e-002" d="M399.4,529.1c0,0.5-0.5,0.9-1.1,0.9h-4.1
									c-0.6,0-1.1-0.4-1.1-0.9l0,0c0-0.5,0.5-0.9,1.1-0.9h4.1C398.9,528.3,399.4,528.7,399.4,529.1L399.4,529.1z"/>
								
									<radialGradient id="SVGID_47_" cx="-1406.5145" cy="539.9353" r="2.5303" gradientTransform="matrix(-1.3125 0 0 1.0683 -1447.4844 -49.2956)" gradientUnits="userSpaceOnUse">
									<stop  offset="0" style="stop-color:#CFD4D8"/>
									<stop  offset="1" style="stop-color:#6A6D71"/>
								</radialGradient>
								<path fill="url(#SVGID_47_)" stroke="#897F76" stroke-width="8.484707e-002" d="M396.2,527.4c0,0.5,0.5,0.9,1.1,0.9h4.1
									c0.6,0,1.1-0.4,1.1-0.9l0,0c0-0.5-0.5-0.9-1.1-0.9h-4.1C396.7,526.5,396.2,526.9,396.2,527.4L396.2,527.4z"/>
								
									<radialGradient id="SVGID_48_" cx="-1406.5145" cy="543.1957" r="2.5308" gradientTransform="matrix(-1.3125 0 0 1.0683 -1447.4844 -49.2956)" gradientUnits="userSpaceOnUse">
									<stop  offset="0" style="stop-color:#CFD4D8"/>
									<stop  offset="1" style="stop-color:#6A6D71"/>
								</radialGradient>
								<path fill="url(#SVGID_48_)" stroke="#897F76" stroke-width="8.484707e-002" d="M396.2,530.9c0,0.5,0.5,0.9,1.1,0.9h4.1
									c0.6,0,1.1-0.4,1.1-0.9l0,0c0-0.5-0.5-0.9-1.1-0.9h-4.1C396.7,530,396.2,530.4,396.2,530.9L396.2,530.9z"/>
							</g>
							<g>
								<g>
									
										<radialGradient id="SVGID_49_" cx="345.6518" cy="531.7077" r="2.5315" gradientTransform="matrix(1.3125 0 0 1.0683 -56.7021 -49.2956)" gradientUnits="userSpaceOnUse">
										<stop  offset="0" style="stop-color:#CFD4D8"/>
										<stop  offset="1" style="stop-color:#6A6D71"/>
									</radialGradient>
									<path fill="url(#SVGID_49_)" stroke="#897F76" stroke-width="8.484707e-002" d="M399.4,518.6c0,0.5-0.5,0.9-1.1,0.9h-4.1
										c-0.6,0-1.1-0.4-1.1-0.9l0,0c0-0.5,0.5-0.9,1.1-0.9h4.1C398.9,517.7,399.4,518.1,399.4,518.6L399.4,518.6z"/>
								</g>
								
									<radialGradient id="SVGID_50_" cx="345.6518" cy="534.9689" r="2.5319" gradientTransform="matrix(1.3125 0 0 1.0683 -56.7021 -49.2956)" gradientUnits="userSpaceOnUse">
									<stop  offset="0" style="stop-color:#CFD4D8"/>
									<stop  offset="1" style="stop-color:#6A6D71"/>
								</radialGradient>
								<path fill="url(#SVGID_50_)" stroke="#897F76" stroke-width="8.484707e-002" d="M399.4,522.1c0,0.5-0.5,0.9-1.1,0.9h-4.1
									c-0.6,0-1.1-0.4-1.1-0.9l0,0c0-0.5,0.5-0.9,1.1-0.9h4.1C398.9,521.2,399.4,521.6,399.4,522.1L399.4,522.1z"/>
								
									<radialGradient id="SVGID_51_" cx="-1406.5145" cy="533.3367" r="2.5306" gradientTransform="matrix(-1.3125 0 0 1.0683 -1447.4844 -49.2956)" gradientUnits="userSpaceOnUse">
									<stop  offset="0" style="stop-color:#CFD4D8"/>
									<stop  offset="1" style="stop-color:#6A6D71"/>
								</radialGradient>
								<path fill="url(#SVGID_51_)" stroke="#897F76" stroke-width="8.484707e-002" d="M396.2,520.4c0,0.5,0.5,0.9,1.1,0.9h4.1
									c0.6,0,1.1-0.4,1.1-0.9l0,0c0-0.5-0.5-0.9-1.1-0.9h-4.1C396.7,519.5,396.2,519.9,396.2,520.4L396.2,520.4z"/>
								
									<radialGradient id="SVGID_52_" cx="-1406.5145" cy="536.5984" r="2.5307" gradientTransform="matrix(-1.3125 0 0 1.0683 -1447.4844 -49.2956)" gradientUnits="userSpaceOnUse">
									<stop  offset="0" style="stop-color:#CFD4D8"/>
									<stop  offset="1" style="stop-color:#6A6D71"/>
								</radialGradient>
								<path fill="url(#SVGID_52_)" stroke="#897F76" stroke-width="8.484707e-002" d="M396.2,523.8c0,0.5,0.5,0.9,1.1,0.9h4.1
									c0.6,0,1.1-0.4,1.1-0.9l0,0c0-0.5-0.5-0.9-1.1-0.9h-4.1C396.7,523,396.2,523.4,396.2,523.8L396.2,523.8z"/>
							</g>
							<g>
								<g>
									
										<radialGradient id="SVGID_53_" cx="345.6518" cy="525.11" r="2.5317" gradientTransform="matrix(1.3125 0 0 1.0683 -56.7021 -49.2956)" gradientUnits="userSpaceOnUse">
										<stop  offset="0" style="stop-color:#CFD4D8"/>
										<stop  offset="1" style="stop-color:#6A6D71"/>
									</radialGradient>
									<path fill="url(#SVGID_53_)" stroke="#897F76" stroke-width="8.484707e-002" d="M399.4,511.6c0,0.5-0.5,0.9-1.1,0.9h-4.1
										c-0.6,0-1.1-0.4-1.1-0.9l0,0c0-0.5,0.5-0.9,1.1-0.9h4.1C398.9,510.7,399.4,511.1,399.4,511.6L399.4,511.6z"/>
								</g>
								
									<radialGradient id="SVGID_54_" cx="345.6518" cy="528.3702" r="2.5317" gradientTransform="matrix(1.3125 0 0 1.0683 -56.7021 -49.2956)" gradientUnits="userSpaceOnUse">
									<stop  offset="0" style="stop-color:#CFD4D8"/>
									<stop  offset="1" style="stop-color:#6A6D71"/>
								</radialGradient>
								<path fill="url(#SVGID_54_)" stroke="#897F76" stroke-width="8.484707e-002" d="M399.4,515.1c0,0.5-0.5,0.9-1.1,0.9h-4.1
									c-0.6,0-1.1-0.4-1.1-0.9l0,0c0-0.5,0.5-0.9,1.1-0.9h4.1C398.9,514.2,399.4,514.6,399.4,515.1L399.4,515.1z"/>
								
									<radialGradient id="SVGID_55_" cx="-1406.5145" cy="526.7403" r="2.5301" gradientTransform="matrix(-1.3125 0 0 1.0683 -1447.4844 -49.2956)" gradientUnits="userSpaceOnUse">
									<stop  offset="0" style="stop-color:#CFD4D8"/>
									<stop  offset="1" style="stop-color:#6A6D71"/>
								</radialGradient>
								<path fill="url(#SVGID_55_)" stroke="#897F76" stroke-width="8.484707e-002" d="M396.2,513.3c0,0.5,0.5,0.9,1.1,0.9h4.1
									c0.6,0,1.1-0.4,1.1-0.9l0,0c0-0.5-0.5-0.9-1.1-0.9h-4.1C396.7,512.4,396.2,512.8,396.2,513.3L396.2,513.3z"/>
								
									<radialGradient id="SVGID_56_" cx="-1406.5145" cy="530.0002" r="2.5307" gradientTransform="matrix(-1.3125 0 0 1.0683 -1447.4844 -49.2956)" gradientUnits="userSpaceOnUse">
									<stop  offset="0" style="stop-color:#CFD4D8"/>
									<stop  offset="1" style="stop-color:#6A6D71"/>
								</radialGradient>
								<path fill="url(#SVGID_56_)" stroke="#897F76" stroke-width="8.484707e-002" d="M396.2,516.8c0,0.5,0.5,0.9,1.1,0.9h4.1
									c0.6,0,1.1-0.4,1.1-0.9l0,0c0-0.5-0.5-0.9-1.1-0.9h-4.1C396.7,515.9,396.2,516.3,396.2,516.8L396.2,516.8z"/>
							</g>
							<g>
								<g>
									
										<radialGradient id="SVGID_57_" cx="345.6518" cy="518.5132" r="2.5315" gradientTransform="matrix(1.3125 0 0 1.0683 -56.7021 -49.2956)" gradientUnits="userSpaceOnUse">
										<stop  offset="0" style="stop-color:#CFD4D8"/>
										<stop  offset="1" style="stop-color:#6A6D71"/>
									</radialGradient>
									<path fill="url(#SVGID_57_)" stroke="#897F76" stroke-width="8.484707e-002" d="M399.4,504.5c0,0.5-0.5,0.9-1.1,0.9h-4.1
										c-0.6,0-1.1-0.4-1.1-0.9l0,0c0-0.5,0.5-0.9,1.1-0.9h4.1C398.9,503.7,399.4,504,399.4,504.5L399.4,504.5z"/>
								</g>
								
									<radialGradient id="SVGID_58_" cx="345.6518" cy="521.7719" r="2.5313" gradientTransform="matrix(1.3125 0 0 1.0683 -56.7021 -49.2956)" gradientUnits="userSpaceOnUse">
									<stop  offset="0" style="stop-color:#CFD4D8"/>
									<stop  offset="1" style="stop-color:#6A6D71"/>
								</radialGradient>
								<path fill="url(#SVGID_58_)" stroke="#897F76" stroke-width="8.484707e-002" d="M399.4,508c0,0.5-0.5,0.9-1.1,0.9h-4.1
									c-0.6,0-1.1-0.4-1.1-0.9l0,0c0-0.5,0.5-0.9,1.1-0.9h4.1C398.9,507.1,399.4,507.5,399.4,508L399.4,508z"/>
								
									<radialGradient id="SVGID_59_" cx="-1406.5145" cy="520.1438" r="2.5307" gradientTransform="matrix(-1.3125 0 0 1.0683 -1447.4844 -49.2956)" gradientUnits="userSpaceOnUse">
									<stop  offset="0" style="stop-color:#CFD4D8"/>
									<stop  offset="1" style="stop-color:#6A6D71"/>
								</radialGradient>
								<path fill="url(#SVGID_59_)" stroke="#897F76" stroke-width="8.484707e-002" d="M396.2,506.3c0,0.5,0.5,0.9,1.1,0.9h4.1
									c0.6,0,1.1-0.4,1.1-0.9l0,0c0-0.5-0.5-0.9-1.1-0.9h-4.1C396.7,505.4,396.2,505.8,396.2,506.3L396.2,506.3z"/>
								
									<radialGradient id="SVGID_60_" cx="-1406.5145" cy="523.402" r="2.5308" gradientTransform="matrix(-1.3125 0 0 1.0683 -1447.4844 -49.2956)" gradientUnits="userSpaceOnUse">
									<stop  offset="0" style="stop-color:#CFD4D8"/>
									<stop  offset="1" style="stop-color:#6A6D71"/>
								</radialGradient>
								<path fill="url(#SVGID_60_)" stroke="#897F76" stroke-width="8.484707e-002" d="M396.2,509.7c0,0.5,0.5,0.9,1.1,0.9h4.1
									c0.6,0,1.1-0.4,1.1-0.9l0,0c0-0.5-0.5-0.9-1.1-0.9h-4.1C396.7,508.9,396.2,509.3,396.2,509.7L396.2,509.7z"/>
							</g>
							<g>
								<g>
									
										<radialGradient id="SVGID_61_" cx="345.6518" cy="511.9156" r="2.5317" gradientTransform="matrix(1.3125 0 0 1.0683 -56.7021 -49.2956)" gradientUnits="userSpaceOnUse">
										<stop  offset="0" style="stop-color:#CFD4D8"/>
										<stop  offset="1" style="stop-color:#6A6D71"/>
									</radialGradient>
									<path fill="url(#SVGID_61_)" stroke="#897F76" stroke-width="8.484707e-002" d="M399.4,497.5c0,0.5-0.5,0.9-1.1,0.9h-4.1
										c-0.6,0-1.1-0.4-1.1-0.9l0,0c0-0.5,0.5-0.9,1.1-0.9h4.1C398.9,496.6,399.4,497,399.4,497.5L399.4,497.5z"/>
								</g>
								
									<radialGradient id="SVGID_62_" cx="345.6518" cy="515.1737" r="2.5317" gradientTransform="matrix(1.3125 0 0 1.0683 -56.7021 -49.2956)" gradientUnits="userSpaceOnUse">
									<stop  offset="0" style="stop-color:#CFD4D8"/>
									<stop  offset="1" style="stop-color:#6A6D71"/>
								</radialGradient>
								<path fill="url(#SVGID_62_)" stroke="#897F76" stroke-width="8.484707e-002" d="M399.4,501c0,0.5-0.5,0.9-1.1,0.9h-4.1
									c-0.6,0-1.1-0.4-1.1-0.9l0,0c0-0.5,0.5-0.9,1.1-0.9h4.1C398.9,500.1,399.4,500.5,399.4,501L399.4,501z"/>
								
									<radialGradient id="SVGID_63_" cx="-1406.5145" cy="513.5445" r="2.5303" gradientTransform="matrix(-1.3125 0 0 1.0683 -1447.4844 -49.2956)" gradientUnits="userSpaceOnUse">
									<stop  offset="0" style="stop-color:#CFD4D8"/>
									<stop  offset="1" style="stop-color:#6A6D71"/>
								</radialGradient>
								<path fill="url(#SVGID_63_)" stroke="#897F76" stroke-width="8.484707e-002" d="M396.2,499.2c0,0.5,0.5,0.9,1.1,0.9h4.1
									c0.6,0,1.1-0.4,1.1-0.9l0,0c0-0.5-0.5-0.9-1.1-0.9h-4.1C396.7,498.3,396.2,498.7,396.2,499.2L396.2,499.2z"/>
								
									<radialGradient id="SVGID_64_" cx="-1406.5145" cy="516.8044" r="2.5309" gradientTransform="matrix(-1.3125 0 0 1.0683 -1447.4844 -49.2956)" gradientUnits="userSpaceOnUse">
									<stop  offset="0" style="stop-color:#CFD4D8"/>
									<stop  offset="1" style="stop-color:#6A6D71"/>
								</radialGradient>
								<path fill="url(#SVGID_64_)" stroke="#897F76" stroke-width="8.484707e-002" d="M396.2,502.7c0,0.5,0.5,0.9,1.1,0.9h4.1
									c0.6,0,1.1-0.4,1.1-0.9l0,0c0-0.5-0.5-0.9-1.1-0.9h-4.1C396.7,501.8,396.2,502.2,396.2,502.7L396.2,502.7z"/>
							</g>
						</g>
					</g>
				</g>
			</g>
			<g>
				<radialGradient id="SVGID_65_" cx="397.9801" cy="442.4672" r="10.1253" gradientUnits="userSpaceOnUse">
					<stop  offset="0" style="stop-color:#6A6D71"/>
					<stop  offset="1" style="stop-color:#CFD4D8"/>
				</radialGradient>
				<path fill="url(#SVGID_65_)" stroke="#897F76" stroke-width="0.2474" d="M403.4,441.4c0-1.2-0.4-2.3-2.5-2.8
					c-0.2-0.2-1-0.3-2.7-0.3c-0.1,0-0.1,0-0.2,0c-0.1,0-0.1,0-0.2,0c-1.7,0-2.5,0.1-2.7,0.3c-2.1,0.5-2.5,1.7-2.5,2.8
					c0,1.6,1.9,5.2,1.9,5.2l3.3,1.8l0,0.2l0.2-0.1l0.2,0.1l0-0.2l3.3-1.8C401.5,446.6,403.4,443,403.4,441.4z"/>
				<radialGradient id="SVGID_66_" cx="397.922" cy="450.6919" r="9.7185" gradientUnits="userSpaceOnUse">
					<stop  offset="0" style="stop-color:#CFD4D8"/>
					<stop  offset="1" style="stop-color:#6A6D71"/>
				</radialGradient>
				<path fill="url(#SVGID_66_)" stroke="#897F76" stroke-width="0.2474" d="M401.4,443.6l-2.8,0v0l-0.7,0l-0.7,0l0,0l-2.8,0
					l-0.6,16.1c0,0,0.4,0.2,1.6,0.5c1,0.3,2.3,0.3,2.6,0.3c0.2,0,1.5,0,2.6-0.3c1.2-0.3,1.6-0.5,1.6-0.5L401.4,443.6z M400.9,458.3
					c0,0-2.1,0.4-2.9,0.4l-0.1-0.1l-0.1,0.1c-0.8,0-2.9-0.4-2.9-0.4v-3.2c0,0,0.8-0.4,2.8-0.4c0.1,0,0.1,0,0.2,0c0.1,0,0.1,0,0.2,0
					c2,0,2.8,0.4,2.8,0.4V458.3z"/>
				<path fill="#5E5654" d="M399.1,448.4c0,0.7-0.5,1.2-1.2,1.2l0,0c-0.7,0-1.2-0.5-1.2-1.2v-8.2c0-0.7,0.5-1.2,1.2-1.2l0,0
					c0.7,0,1.2,0.5,1.2,1.2V448.4z"/>
			</g>
			<g>
				
					<radialGradient id="SVGID_67_" cx="332.6503" cy="537.3734" r="10.9749" gradientTransform="matrix(1.4848 -9.845750e-004 2.082808e-003 1.4247 -99.5381 -227.9107)" gradientUnits="userSpaceOnUse">
					<stop  offset="4.114850e-002" style="stop-color:#6A6D71"/>
					<stop  offset="1" style="stop-color:#CFD4D8"/>
				</radialGradient>
				<rect x="393.1" y="528.7" fill="url(#SVGID_67_)" width="4.6" height="10.5"/>
				
					<radialGradient id="SVGID_68_" cx="335.8748" cy="537.3734" r="10.9721" gradientTransform="matrix(1.4848 -9.845750e-004 2.082808e-003 1.4247 -99.5381 -227.9075)" gradientUnits="userSpaceOnUse">
					<stop  offset="4.114850e-002" style="stop-color:#6A6D71"/>
					<stop  offset="1" style="stop-color:#CFD4D8"/>
				</radialGradient>
				<rect x="397.9" y="528.7" fill="url(#SVGID_68_)" width="4.6" height="10.5"/>
			</g>
		</g>
	</g>
</g>
<g id="BOX_BODY">
	<g>
	
		
		<rect x="218.3" y="613.8" fill="none" stroke="#000000" stroke-width="2" stroke-dasharray="2,2" width="357.4" height="108.7"/>
		
			<rect x="226.3" y="476.8" fill="none" stroke="#000000" stroke-width="1.5063" stroke-dasharray="1.5063,1.5063" width="148.2" height="148.7"/>
		
			<rect x="418.3" y="476.8" fill="none" stroke="#000000" stroke-width="1.5063" stroke-dasharray="1.5063,1.5063" width="148.2" height="148.7"/>
	</g>
</g>
<g id="CUSTOM">
</g>
</svg>
