<?xml version="1.0" encoding="utf-8"?>
<!-- Generator: Adobe Illustrator 16.0.0, SVG Export Plug-In . SVG Version: 6.00 Build 0)  -->
<!DOCTYPE svg PUBLIC "-//W3C//DTD SVG 1.1//EN" "http://www.w3.org/Graphics/SVG/1.1/DTD/svg11.dtd">
<svg version="1.1" xmlns="http://www.w3.org/2000/svg" xmlns:xlink="http://www.w3.org/1999/xlink" x="0px" y="0px" width="612px"
	 height="792px" viewBox="0 0 472 792" enable-background="new 0 0 612 792" xml:space="preserve">

<g id="BLUE_BODY">
	<g>
		<path fill="#96A1B2" d="M340.354,121.529c-4.996,1.051-26.566,2.235-42.085,2.366c-15.518,0.131-45.636-0.395-46.425-0.131
			c-0.79,0.264-3.289,2.499-3.946,3.156c-0.657,0.658-1.708,0.526-2.762,0.526c-1.052,0-2.762,1.446-3.683,1.578
			c-0.921,0.131-3.814-0.263-4.734,0.262c-0.921,0.526-5.393,5.393-5.654,5.788c-0.263,0.394-2.106,0.789-2.369,1.315
			c-0.262,0.527-2.104,1.315-3.813,1.315c-1.711,0-6.975,1.052-6.975,1.052s-1.575,0.789-2.103,1.184
			c-0.527,0.396-4.208,1.315-5.26,2.104c-1.052,0.789-3.024,2.631-3.024,2.631s-6.315,0.92-6.708,0.92
			c-0.394,0-3.683,1.184-4.472,1.841c-0.79,0.658-14.334,8.285-23.146,13.283c-8.813,4.998-23.15,14.205-25.648,16.308
			c-2.497,2.105-5.524,7.233-6.444,8.417c-0.92,1.184-6.577,10.258-6.969,11.179c-0.396,0.921-3.158,9.206-3.421,10.127
			c-0.263,0.921-8.023,16.834-12.496,28.013c-4.471,11.178-11.837,30.774-13.021,34.062c-1.183,3.289-4.078,14.992-4.735,18.018
			c-0.658,3.026-4.339,11.443-5.525,14.074c-1.183,2.629-3.417,13.282-3.417,13.282l-1.445,1.315c0,0-0.132,2.63-0.394,4.209
			c-0.263,1.579-1.053,2.498-1.709,3.549c-0.658,1.053-1.974,2.895-1.843,3.552c0.13,0.657,3.552,2.368,5.129,3.026
			c1.576,0.656,10.127,4.338,12.231,5.129c2.105,0.789,11.046,3.682,22.357,8.283c11.312,4.606,31.303,8.024,35.512,8.418
			c4.209,0.394,10.388-1.446,11.836-1.974c1.447-0.523,3.026,0.924,3.419,1.185c0.395,0.265,3.288-1.185,3.288-1.185
			s-0.132-8.941-0.263-9.994c-0.132-1.052,0.263-3.552,0.66-4.34c0.392-0.788,1.708-3.683,1.708-3.683s2.104,10.127,3.155,17.755
			c1.051,7.628-0.787,28.408-1.051,32.616c-0.263,4.209-3.158,23.801-3.945,37.218c-0.787,13.414-1.446,39.455-1.446,39.455
			s-2.367,5.523-2.763,7.234c-0.394,1.709-2.654,33.4-2.917,39.977c-0.06,1.497-0.315,3.484-0.553,5.27
			c-0.811,6.063-1.324,12.931-1.526,13.542c-0.265,0.788-0.394,10.652-0.394,11.31s1.578,1.445,4.865,2.895
			c3.288,1.445,26.833,4.865,33.541,5.39c6.708,0.526,115.866,0.396,156.769,0.396c40.899,0,53.136-2.235,58.265-3.288
			c5.128-1.052,12.099-5.392,12.361-5.916c0.262-0.529-0.263-7.629-0.263-8.156c0-0.525-0.394-3.683-1.052-5.26
			c-0.659-1.58-1.709-14.469-2.499-23.278c-0.788-8.814-1.841-31.96-1.972-33.011c-0.131-1.053-2.894-7.232-2.894-7.232
			s0.264-34.589,0-38.142c-0.264-3.552-3.288-24.461-4.21-32.484s-1.711-24.33-2.104-30.775c-0.396-6.444-1.445-41.295-1.445-42.347
			s0.396-3.157,0.92-3.288c0.525-0.131,2.365,1.183,3.024,2.367c0.656,1.184,0.922,3.815,0.922,4.473
			c0,0.657-0.153,10.466-0.022,14.412c0.007,0.188,0.011,0.286,0.021,0.473c0.207,4.056,1.451,11.454,1.579,12.47
			c0.132,1.054,3.156,9.337,3.156,9.337s3.946,0.658,5.655,0.658s14.203-1.972,19.201-3.157c4.997-1.184,18.938-5.391,23.542-6.18
			c4.602-0.79,23.409-10.259,28.012-12.1c4.603-1.842,14.731-5.918,15.125-6.444c0.395-0.529-3.682-7.891-3.944-8.549
			c-0.264-0.658-0.396-2.235-0.788-2.761c-0.396-0.527-1.316-1.317-1.316-1.317s-1.314-3.419-1.577-4.997
			c-0.266-1.578-3.816-11.442-5.657-17.491c-1.84-6.051-19.068-48.662-22.62-56.684c-3.552-8.023-15.168-31.989-16.354-34.488
			c-1.183-2.5,0.44-4.835-1.139-10.36c-1.578-5.524-15.914-17.754-24.726-23.541c-8.813-5.787-33.145-16.045-37.221-17.492
			c-4.076-1.446-16.834-9.601-17.754-9.601c-0.919,0-7.365-1.578-7.761-1.972c-0.394-0.394-3.155-1.842-4.865-2.368
			c-1.708-0.526-5.523-3.025-6.705-4.076c-1.185-1.053-5.132-3.683-6.446-3.814c-1.315-0.131-4.603-0.789-6.444-1.578
			c-1.841-0.79-5.918-5.655-5.918-5.655S345.353,120.477,340.354,121.529z"/>
	</g>
</g>
<g id="GREY_HEATHER">
	<g>
		<defs>
			<path id="SVTWB_SVGID_1_" d="M340.354,121.529c-4.996,1.051-26.566,2.235-42.085,2.366c-15.518,0.131-45.636-0.395-46.425-0.131
				c-0.79,0.264-3.289,2.499-3.946,3.156c-0.657,0.658-1.708,0.526-2.762,0.526c-1.052,0-2.762,1.446-3.683,1.578
				c-0.921,0.131-3.814-0.263-4.734,0.262c-0.921,0.526-5.393,5.393-5.654,5.788c-0.263,0.394-2.106,0.789-2.369,1.315
				c-0.262,0.527-2.104,1.315-3.813,1.315c-1.711,0-6.975,1.052-6.975,1.052s-1.575,0.789-2.103,1.184
				c-0.527,0.396-4.208,1.315-5.26,2.104c-1.052,0.789-3.024,2.631-3.024,2.631s-6.315,0.92-6.708,0.92
				c-0.394,0-3.683,1.184-4.472,1.841c-0.79,0.658-14.334,8.285-23.146,13.283c-8.813,4.998-23.15,14.205-25.648,16.308
				c-2.497,2.105-5.524,7.233-6.444,8.417c-0.92,1.184-6.577,10.258-6.969,11.179c-0.396,0.921-3.158,9.206-3.421,10.127
				c-0.263,0.921-8.023,16.834-12.496,28.013c-4.471,11.178-11.837,30.774-13.021,34.062c-1.183,3.289-4.078,14.992-4.735,18.018
				c-0.658,3.026-4.339,11.443-5.525,14.074c-1.183,2.629-3.417,13.282-3.417,13.282l-1.445,1.315c0,0-0.132,2.63-0.394,4.209
				c-0.263,1.579-1.053,2.498-1.709,3.549c-0.658,1.053-1.974,2.895-1.843,3.552c0.13,0.657,3.552,2.368,5.129,3.026
				c1.576,0.656,10.127,4.338,12.231,5.129c2.105,0.789,11.046,3.682,22.357,8.283c11.312,4.606,31.303,8.024,35.512,8.418
				c4.209,0.394,10.388-1.446,11.836-1.974c1.447-0.523,3.026,0.924,3.419,1.185c0.395,0.265,3.288-1.185,3.288-1.185
				s-0.132-8.941-0.263-9.994c-0.132-1.052,0.263-3.552,0.66-4.34c0.392-0.788,1.708-3.683,1.708-3.683s2.104,10.127,3.155,17.755
				c1.051,7.628-0.787,28.408-1.051,32.616c-0.263,4.209-3.158,23.801-3.945,37.218c-0.787,13.414-1.446,39.455-1.446,39.455
				s-2.367,5.523-2.763,7.234c-0.394,1.709-2.654,33.4-2.917,39.977c-0.06,1.497-0.315,3.484-0.553,5.27
				c-0.811,6.063-1.324,12.931-1.526,13.542c-0.265,0.788-0.394,10.652-0.394,11.31s1.578,1.445,4.865,2.895
				c3.288,1.445,26.833,4.865,33.541,5.39c6.708,0.526,115.866,0.396,156.769,0.396c40.899,0,53.136-2.235,58.265-3.288
				c5.128-1.052,12.099-5.392,12.361-5.916c0.262-0.529-0.263-7.629-0.263-8.156c0-0.525-0.394-3.683-1.052-5.26
				c-0.659-1.58-1.709-14.469-2.499-23.278c-0.788-8.814-1.841-31.96-1.972-33.011c-0.131-1.053-2.894-7.232-2.894-7.232
				s0.264-34.589,0-38.142c-0.264-3.552-3.288-24.461-4.21-32.484s-1.711-24.33-2.104-30.775
				c-0.396-6.444-1.445-41.295-1.445-42.347s0.396-3.157,0.92-3.288c0.525-0.131,2.365,1.183,3.024,2.367
				c0.656,1.184,0.922,3.815,0.922,4.473c0,0.657-0.153,10.466-0.022,14.412c0.007,0.188,0.011,0.286,0.021,0.473
				c0.207,4.056,1.451,11.454,1.579,12.47c0.132,1.054,3.156,9.337,3.156,9.337s3.946,0.658,5.655,0.658s14.203-1.972,19.201-3.157
				c4.997-1.184,18.938-5.391,23.542-6.18c4.602-0.79,23.409-10.259,28.012-12.1c4.603-1.842,14.731-5.918,15.125-6.444
				c0.395-0.529-3.682-7.891-3.944-8.549c-0.264-0.658-0.396-2.235-0.788-2.761c-0.396-0.527-1.316-1.317-1.316-1.317
				s-1.314-3.419-1.577-4.997c-0.266-1.578-3.816-11.442-5.657-17.491c-1.84-6.051-19.068-48.662-22.62-56.684
				c-3.552-8.023-15.168-31.989-16.354-34.488c-1.183-2.5,0.44-4.835-1.139-10.36c-1.578-5.524-15.914-17.754-24.726-23.541
				c-8.813-5.787-33.145-16.045-37.221-17.492c-4.076-1.446-16.834-9.601-17.754-9.601c-0.919,0-7.365-1.578-7.761-1.972
				c-0.394-0.394-3.155-1.842-4.865-2.368c-1.708-0.526-5.523-3.025-6.705-4.076c-1.185-1.053-5.132-3.683-6.446-3.814
				c-1.315-0.131-4.603-0.789-6.444-1.578c-1.841-0.79-5.918-5.655-5.918-5.655S345.353,120.477,340.354,121.529z"/>
		</defs>
		<clipPath id="SVTWB_SVGID_2_">
			<use xlink:href="#SVTWB_SVGID_1_"  overflow="visible"/>
		</clipPath>
		<g display="none" clip-path="url(#SVTWB_SVGID_2_)">
			
				<image display="inline" overflow="visible" width="525" height="532" xlink:href="A9E3D5A8.png"  transform="matrix(1 0 0 1 47.0635 64)">
			</image>
		</g>
		<g display="none" clip-path="url(#SVTWB_SVGID_2_)">
			
				<image display="inline" overflow="visible" width="525" height="532" xlink:href="A9E3D5A9.png"  transform="matrix(1 0 0 1 -401.9365 64)">
			</image>
		</g>
		<g transform="matrix(1 0 0 1 0 0)" clip-path="url(#SVTWB_SVGID_2_)">
			
				<image overflow="visible" width="1511" height="1641" xlink:href="A9E3D5AF.png"  transform="matrix(0.2899 0 0 0.2899 72.6367 119.2759)">
			</image>
		</g>
	</g>
</g>
<g id="SHADING">
	<g>
		<path opacity="0.1" fill="#897F76" d="M453.772,248.086c0,0-2.674,14.391-6.375,19.736c-3.699,5.346-9.457,9.458-10.484,10.28
			c-1.028,0.822-3.084,2.467-3.084,2.467s-6.992,16.653-8.43,20.971c-1.439,4.316-2.338,11.692-2.338,11.692
			s-1.703-1.446-2.127-1.248c-0.427,0.197-0.609,1.042-0.609,1.042s3.839-14.983,5.074-17.039s6.373-15.623,6.991-17.68
			c0.617-2.056,1.438-4.936,2.672-9.252c1.232-4.317,6.784-20.97,6.784-20.97s-6.988,26.522-6.988,27.96
			c0,1.439,6.369-3.701,7.605-5.346c1.234-1.644,5.14-8.224,5.14-9.663C447.604,259.599,453.772,248.086,453.772,248.086z"/>
		<path opacity="0.1" fill="#897F76" d="M426.127,344.279c0,0,5.136,2.22,12.43,1.052c4.106-0.658,11.925-1.645,11.925-1.645
			s-5.757,3.289-10.484,3.701c-4.729,0.409-1.44,3.906,0,4.524c1.438,0.617,4.531,2.971,4.531,2.971c0-0.002-6.669,1.164-9.26,1.292
			c-1.889,0.094-5.051-0.582-5.655-0.658c0,0-0.924-2.372-1.129-3.194c-0.207-0.823-1.411-4-1.886-5.348
			C426.527,346.769,426.127,344.279,426.127,344.279z"/>
		<path opacity="0.1" fill="#897F76" d="M516.682,318.605c0,0-10.691,5.961-16.242,8.017c-5.549,2.055-21.38,8.018-25.081,9.251
			c-3.7,1.231-13.364,4.111-15.42,4.524c-2.056,0.411,23.85-4.523,37.418-10.487c13.569-5.961,18.915-8.223,19.121-8.839
			C516.682,320.455,516.682,318.605,516.682,318.605z"/>
		<path opacity="0.1" fill="#897F76" d="M445.96,301.952c0,0-5.553,18.915-6.784,23.848c-1.235,4.934-3.907,15.01-3.907,15.01
			s1.026,1.438,1.645,2.054c0.617,0.619-3.494,2.262-4.112,1.234c-0.616-1.027,0-6.785,0.618-8.018
			C434.034,334.846,445.96,301.952,445.96,301.952z"/>
		<path opacity="0.1" fill="#897F76" d="M427.662,337.517c0,0,1.234-9.663,2.672-13.157c1.438-3.494,6.169-14.392,7.401-18.503
			c1.233-4.111,6.373-17.27,4.934-16.448c-1.441,0.822-10.073,18.916-12.541,22.822c-2.466,3.906-4.691,7.808-5.308,10.892
			l0.038,10.358l0.207,2.684C425.683,336.989,427.662,337.517,427.662,337.517z"/>
		<path opacity="0.1" fill="#897F76" d="M453.36,183.941c0,0-0.616,9.252-1.44,12.13c-0.821,2.878-3.493,12.747-3.493,16.242
			s-0.823,13.158-0.823,13.158s2.058-15.419,3.29-19.12c1.232-3.7,4.317-14.391,4.522-16.241c0.206-1.851,0.411-6.374-0.411-7.402
			C454.184,181.679,453.36,183.941,453.36,183.941z"/>
		
			<radialGradient id="SVTWB_SVGID_3_" cx="107.5166" cy="113.0063" r="176.242" gradientTransform="matrix(-0.9746 0 0 0.9746 586.592 9.8804)" gradientUnits="userSpaceOnUse">
			<stop  offset="0" style="stop-color:#FFFFFF"/>
			<stop  offset="1" style="stop-color:#897F76"/>
		</radialGradient>
		<path opacity="0.2" fill="url(#SVTWB_SVGID_3_)" d="M443.902,320.454c0.131-0.455,0.406-0.646,0.722-0.72
			c4.958-20.216,22.075-90.264,23.129-98.171c1.233-9.251-1.028-16.446-1.439-15.418c-0.412,1.028-12.541,17.476-15.01,21.382
			c-2.467,3.906-4.316,12.747-4.316,12.747s0.616-9.048,1.028-10.691c0.411-1.646,7.4-11.514,10.69-15.419
			c3.288-3.906,10.187-12.195,10.187-12.195l6.47,13.671c0,0,5.137,25.662,9.042,53.828c3.908,28.166,1.852,56.333,1.852,56.333
			l-3.084-35.156c0,0-0.412,2.261-1.442,7.195c-1.026,4.934-5.549,17.888-5.549,17.888s4.318-25.495,4.934-38.857
			c0.615-13.363-2.672-32.074-4.317-42.763c-1.645-10.691-6.371-22.822-6.371-22.822s-0.618,9.663-1.234,21.383
			c-0.519,9.862-18.515,68.664-24.203,87.032c0.588,0.028,1.175,0.343,1.175,0.343s-0.205,4.73-1.028,6.375
			c-0.821,1.644-1.645,6.99,0.207,7.195c1.85,0.206,14.804-12.747,14.804-12.747s-16.859,19.326-18.918,18.709
			C439.176,338.958,443.49,321.892,443.902,320.454z"/>
		<path opacity="0.15" fill="#897F76" d="M370.131,145.564c0,0-8.503,4.156-10.958,7.178c-2.454,3.024-7.368,8.125-9.067,9.068
			c-1.701,0.945-6.046,1.323-6.046,1.323s11.902-2.456,17.382-8.879C366.918,147.831,370.131,145.564,370.131,145.564z"/>
		<path opacity="0.1" fill="#897F76" d="M129.83,210.36c0,0-0.189,13.224,0.567,15.492c0.755,2.266,17.002,27.392,17.002,27.392
			s-14.547-14.734-17.002-23.425C127.942,221.129,129.83,210.36,129.83,210.36z"/>
		<path opacity="0.1" fill="#897F76" d="M123.786,225.475c0,0-2.456,20.024-2.267,24.368c0.188,4.347,1.133,11.903,2.267,13.414
			c1.133,1.511-0.19,2.457-0.19,2.457l-2.455,3.021c0,0-1.89-14.924-1.512-18.135c0.378-3.211,0.755-19.269,1.89-20.781
			c1.133-1.512,2.077-4.912,2.077-4.912L123.786,225.475z"/>
		<path opacity="0.1" fill="#897F76" d="M177.626,307.463c0,0-8.503-5.855-9.445-10.2c-0.944-4.347-1.889-13.602-1.889-13.602
			s-1.323-0.945-1.323,0.566c0,1.511,0.912,12.756,2.079,14.924C169.692,304.063,177.626,307.463,177.626,307.463z"/>
		<path opacity="0.1" fill="#897F76" d="M103.381,280.637c0,0,1.513,5.857,2.08,7.934c0.566,2.08,1.51,6.425,1.51,7.746
			c0,1.323-0.754,3.4-0.754,3.4s-0.377-8.313-1.889-10.769C102.815,286.494,103.381,280.637,103.381,280.637z"/>
		<path opacity="0.1" fill="#897F76" d="M169.432,298.72c0,0,4.724-3.21,5.857-2.644c1.133,0.566,2.267,4.723,2.267,5.291
			c0,0.565,0.944,4.533,0.944,4.533s-2.078-7.177-3.967-6.8C172.645,299.476,169.432,298.72,169.432,298.72z"/>
		<path opacity="0.25" fill="#897F76" d="M90.346,317.288c0.19-1.512,1.514-1.133,1.514-1.133s0.754,1.699,1.133,2.265
			c0.377,0.568,15.679,7.179,29.848,12.093c14.167,4.911,21.725,7.935,29.66,8.878c7.935,0.945,22.482,1.322,22.482,1.322
			c0.567-0.757-0.189-2.266-0.189-2.266s1.322-9.258,3.59-12.47c2.267-3.211,2.476-5.529,2.476-5.529l1.513,10.446
			c0,0-0.152,0.764-0.758,1.443c-0.189,0.212-0.651,2.32-1.372,3.828c-0.21,0.436-0.388,1.615-0.388,1.615l0.418-7.457
			c0,0-0.379-1.134-1.7,0.567c-1.322,1.699-3.59,15.49-3.59,15.49s-0.19-1.655-0.24-3.191c-0.556,0.048-1.989,0.168-2.596,0.168
			c-0.755,0-14.924-1.322-18.891-2.077s-11.901-2.644-14.545-3.023c-2.644-0.378-13.981-4.723-16.625-5.858
			c-2.645-1.131-29.66-11.146-30.984-11.146C89.781,321.253,90.158,318.799,90.346,317.288z"/>
		<path opacity="0.15" fill="#897F76" d="M436.265,529.713c0,0-13.612,6.441-19.742,7.71c-6.132,1.27-19.026,3.173-19.026,3.173
			s22.407,1.69,30.229-2.114c7.82-3.805,8.748-5.309,8.748-5.309L436.265,529.713z"/>
		<path opacity="0.35" fill="#897F76" d="M429.839,532.563c0,0-11.838,5.285-53.479,5.919c-41.641,0.633-127.459,1.058-147.753,0
			c-20.291-1.059-44.176-3.382-44.176-3.382s51.999,6.341,131.898,5.073C396.23,538.905,429.839,532.563,429.839,532.563z"/>
		<path opacity="0.1" fill="#897F76" d="M151.799,292.005c0,0-9.13-0.779-10.88-0.583c-1.75,0.194-10.105,1.554-11.464,0.777
			c-1.361-0.777-5.636-4.274-5.831-6.218c-0.193-1.942-0.193-6.801-0.193-6.801s-0.973,3.497-2.333,2.915
			c-1.36-0.582-2.914-2.331-2.914-2.331s1.167,4.663,1.554,5.635c0.389,0.971,3.109,4.663,2.72,5.634
			c-0.388,0.972-4.664,5.246-4.664,5.246s3.886-1.749,6.413-1.749c2.526,0,5.829,5.636,5.829,5.636l1.167-3.692l5.635,2.136
			c0,0,0.581-4.857,4.467-5.246C145.192,292.976,151.799,292.005,151.799,292.005z"/>
		
			<radialGradient id="SVTWB_SVGID_4_" cx="453.5723" cy="320.1812" r="53.5703" gradientTransform="matrix(-0.9746 0 0 0.9746 586.592 9.8804)" gradientUnits="userSpaceOnUse">
			<stop  offset="0" style="stop-color:#FFFFFF"/>
			<stop  offset="1" style="stop-color:#897F76"/>
		</radialGradient>
		<path opacity="0.25" fill="url(#SVTWB_SVGID_4_)" d="M104.705,303.118c-0.566-1.51-1.323-3.022-1.323-3.022s2.648,1.7,2.835,2.833
			c0.188,1.134,1.134,6.046,1.51,7.557c0.378,1.512,1.324,4.723,1.324,4.723c0.471,1.581,4.277,3.416,5.441,3.416
			c1.165,0,2.915,1.943,2.915,2.72c0,0.778,1.36,2.525,2.138,2.721c0.776,0.193,4.08,2.331,4.08,2.331s0.777-2.915,0.389-3.692
			c-0.389-0.777,2.721-1.36,3.691-1.36c0.972,0,3.109,0.388,3.888,0.778c0.776,0.389,2.719,1.748,2.719,1.748
			s-0.195-4.275-2.719-4.663c-2.527-0.387-7.191-0.971-7.968-1.359c-0.777-0.389-2.914-3.302-2.914-3.302l3.303-4.081
			c0,0,4.274,2.914,5.052,2.525c0.776-0.388,3.887-4.857,3.887-4.857s-0.973,6.024,0.19,6.995c1.168,0.972,4.471,3.109,5.054,4.47
			c0.584,1.36-0.389,7.968,1.167,10.105c1.555,2.136,2.72,4.468,2.72,4.468s6.799,0.195,8.161-0.776
			c1.36-0.973,7.189-3.692,7.967-3.692c0.776,0,3.304,2.331,6.606,1.358c3.303-0.971,4.469,0,6.605-2.525
			c2.138-2.527,4.276-4.468,4.276-4.468s-8.55,10.492-8.938,11.461c-0.388,0.973-4.857,0.973-6.217,0.973
			c-1.36,0-13.212-1.166-13.212-1.166s-7.188-0.971-8.939-1.748c-1.747-0.779-11.657-5.247-13.406-5.636
			c-1.749-0.387-9.131-3.691-10.103-4.081c-0.972-0.388-4.08-0.777-5.44-1.166c-1.36-0.387-3.305-2.333-3.305-3.304
			s1.944-2.525,1.944-3.302c0-0.405-1.219-1.542-1.958-4.315C105.606,310.343,105.238,304.545,104.705,303.118z"/>
		<path opacity="0.1" fill="#897F76" d="M166.567,302.109c0,0-5.635-7.189-6.413-8.549c-0.778-1.36-3.109-10.882-3.109-10.882
			l0.972,12.438c0,0-5.831-2.528-6.995-2.528c-1.166,0-2.527,1.361-2.527,1.361s8.162,3.498,9.912,5.052
			c1.748,1.553,2.721,3.498,1.748,3.498c-0.972,0-3.886,1.553-3.886,1.553s5.245,3.692,7.188,2.139
			C165.4,304.634,166.567,302.109,166.567,302.109z"/>
		<g opacity="0.25">
			<path opacity="0.5" fill="#524A48" stroke="#524A48" stroke-width="1.6527" d="M434.226,345.012c-0.331,0-0.65-0.004-0.958-0.013
				c-0.05-0.001-0.089-0.043-0.088-0.093c0.001-0.05,0.042-0.097,0.094-0.088c0.382,0.011,0.785,0.012,1.207,0.012
				c0.049,0,0.091,0.042,0.091,0.091c0,0.049-0.042,0.091-0.091,0.091C434.395,345.011,434.312,345.011,434.226,345.012z
				 M435.691,344.983c-0.049,0-0.089-0.039-0.092-0.087c-0.001-0.051,0.038-0.092,0.088-0.094c0.4-0.014,0.805-0.035,1.204-0.061
				c0.043-0.002,0.094,0.034,0.097,0.084c0.004,0.05-0.035,0.093-0.084,0.097c-0.403,0.026-0.81,0.046-1.21,0.061H435.691z
				 M432.063,344.943c-0.002,0-0.004,0-0.007,0c-0.402-0.027-0.798-0.062-1.208-0.107c-0.051-0.005-0.087-0.049-0.081-0.099
				c0.005-0.047,0.044-0.081,0.091-0.081c0.003,0,0.006,0,0.008,0.001c0.41,0.043,0.803,0.079,1.202,0.105
				c0.051,0.003,0.089,0.047,0.086,0.096C432.148,344.907,432.108,344.943,432.063,344.943z M438.104,344.828
				c-0.048,0-0.087-0.036-0.091-0.083c-0.004-0.051,0.033-0.094,0.082-0.1c0.389-0.034,0.789-0.074,1.2-0.119
				c0.056-0.013,0.097,0.029,0.102,0.079c0.005,0.051-0.03,0.096-0.079,0.101c-0.414,0.047-0.816,0.087-1.205,0.121
				C438.107,344.828,438.105,344.828,438.104,344.828z M429.66,344.669c-0.006,0-0.011,0-0.016-0.001
				c-0.407-0.068-0.809-0.148-1.192-0.24c-0.048-0.012-0.079-0.06-0.066-0.109c0.011-0.05,0.06-0.078,0.108-0.068
				c0.38,0.091,0.777,0.17,1.181,0.237c0.05,0.008,0.082,0.055,0.073,0.105C429.742,344.638,429.703,344.669,429.66,344.669z
				 M440.508,344.562c-0.045,0-0.084-0.033-0.091-0.08c-0.006-0.05,0.029-0.095,0.078-0.101c0.392-0.051,0.788-0.107,1.195-0.17
				c0.051-0.007,0.097,0.026,0.104,0.076c0.006,0.049-0.026,0.096-0.076,0.104c-0.41,0.062-0.81,0.119-1.2,0.17
				C440.516,344.562,440.51,344.562,440.508,344.562z M442.9,344.198c-0.045,0-0.083-0.031-0.091-0.075
				c-0.008-0.05,0.025-0.097,0.074-0.105c0.39-0.067,0.785-0.138,1.19-0.213c0.05-0.011,0.096,0.023,0.105,0.073
				c0.008,0.05-0.023,0.097-0.073,0.106c-0.404,0.076-0.802,0.146-1.191,0.213C442.91,344.198,442.904,344.198,442.9,344.198z
				 M427.311,344.101c-0.009,0-0.02-0.001-0.028-0.005c-0.562-0.189-0.924-0.362-1.13-0.473c-0.043-0.025-0.061-0.08-0.037-0.124
				c0.024-0.043,0.08-0.06,0.124-0.037c0.163,0.088,0.523,0.267,1.101,0.461c0.047,0.017,0.072,0.067,0.057,0.115
				C427.384,344.077,427.348,344.101,427.311,344.101z M445.278,343.75c-0.043,0-0.081-0.029-0.089-0.073
				c-0.012-0.048,0.021-0.097,0.071-0.106c0.387-0.079,0.78-0.162,1.181-0.249c0.048-0.012,0.099,0.021,0.107,0.07
				c0.011,0.048-0.02,0.096-0.069,0.107c-0.4,0.087-0.795,0.169-1.184,0.249C445.29,343.75,445.283,343.75,445.278,343.75z
				 M447.641,343.235c-0.041,0-0.079-0.028-0.089-0.071c-0.011-0.048,0.02-0.096,0.069-0.108c0.384-0.089,0.776-0.183,1.175-0.281
				c0.045-0.008,0.097,0.019,0.109,0.067c0.012,0.048-0.018,0.098-0.067,0.109c-0.398,0.098-0.789,0.191-1.177,0.282
				C447.654,343.234,447.648,343.235,447.641,343.235z M449.988,342.658c-0.04,0-0.078-0.027-0.089-0.068
				c-0.011-0.048,0.019-0.098,0.066-0.111c0.386-0.097,0.773-0.2,1.169-0.308c0.049-0.014,0.098,0.016,0.11,0.064
				s-0.016,0.097-0.063,0.111c-0.395,0.107-0.785,0.209-1.171,0.31C450.004,342.657,449.996,342.658,449.988,342.658z
				 M452.324,342.026c-0.039,0-0.075-0.026-0.086-0.066c-0.015-0.048,0.014-0.099,0.062-0.112c0.383-0.107,0.77-0.22,1.162-0.335
				c0.055-0.012,0.098,0.015,0.112,0.062c0.015,0.048-0.015,0.099-0.062,0.113c-0.394,0.116-0.78,0.228-1.163,0.335
				C452.342,342.025,452.334,342.026,452.324,342.026z M454.647,341.343c-0.038,0-0.074-0.025-0.087-0.065
				c-0.014-0.047,0.013-0.098,0.062-0.113c0.378-0.115,0.765-0.233,1.153-0.356c0.05-0.018,0.099,0.011,0.114,0.059
				c0.015,0.047-0.011,0.099-0.061,0.113c-0.389,0.123-0.774,0.243-1.156,0.358C454.666,341.342,454.656,341.343,454.647,341.343z
				 M456.953,340.619c-0.036,0-0.073-0.025-0.086-0.063c-0.015-0.048,0.012-0.099,0.059-0.114c0.279-0.091,0.561-0.183,0.846-0.278
				c0.101-0.034,0.203-0.067,0.305-0.1c0.045-0.019,0.1,0.011,0.114,0.058c0.016,0.048-0.012,0.099-0.058,0.114
				c-0.102,0.033-0.203,0.066-0.304,0.1c-0.285,0.094-0.568,0.187-0.847,0.278C456.973,340.618,456.963,340.619,456.953,340.619z
				 M459.253,339.86c-0.038,0-0.073-0.024-0.087-0.063c-0.015-0.047,0.011-0.098,0.06-0.114l1.146-0.383
				c0.046-0.018,0.098,0.008,0.113,0.058c0.016,0.048-0.009,0.098-0.058,0.115l-1.146,0.383
				C459.272,339.859,459.263,339.86,459.253,339.86z M461.547,339.092c-0.038,0-0.074-0.023-0.087-0.062
				c-0.015-0.048,0.01-0.099,0.058-0.116l1.147-0.386c0.045-0.017,0.098,0.01,0.114,0.058c0.015,0.047-0.009,0.098-0.058,0.114
				l-1.146,0.386C461.564,339.091,461.556,339.092,461.547,339.092z M463.84,338.321c-0.038,0-0.074-0.024-0.087-0.062
				c-0.015-0.049,0.01-0.099,0.057-0.116c0.385-0.13,0.768-0.259,1.146-0.388c0.047-0.019,0.1,0.009,0.116,0.057
				c0.016,0.047-0.01,0.099-0.057,0.115c-0.379,0.129-0.761,0.259-1.146,0.388C463.858,338.32,463.849,338.321,463.84,338.321z
				 M466.132,337.543c-0.038,0-0.073-0.023-0.087-0.062c-0.016-0.047,0.011-0.099,0.058-0.115l1.144-0.391
				c0.047-0.018,0.1,0.009,0.116,0.057s-0.01,0.099-0.057,0.116l-1.145,0.39C466.151,337.542,466.141,337.543,466.132,337.543z
				 M468.419,336.762c-0.038,0-0.072-0.023-0.086-0.061c-0.017-0.047,0.009-0.099,0.057-0.116l1.145-0.393
				c0.046-0.019,0.099,0.009,0.114,0.056c0.018,0.047-0.008,0.099-0.056,0.116l-1.145,0.393
				C468.439,336.761,468.429,336.762,468.419,336.762z M470.708,335.975c-0.038,0-0.074-0.024-0.087-0.062
				c-0.017-0.047,0.01-0.099,0.058-0.115l1.143-0.397c0.046-0.018,0.1,0.009,0.115,0.057c0.017,0.047-0.01,0.099-0.057,0.115
				l-1.143,0.396C470.728,335.973,470.717,335.975,470.708,335.975z M472.992,335.18c-0.038,0-0.072-0.024-0.086-0.062
				c-0.017-0.047,0.009-0.099,0.058-0.116c0.383-0.134,0.763-0.267,1.141-0.399c0.047-0.02,0.1,0.01,0.116,0.057
				c0.016,0.047-0.009,0.099-0.057,0.115c-0.377,0.133-0.759,0.266-1.143,0.399C473.013,335.179,473.002,335.18,472.992,335.18z
				 M475.275,334.38c-0.038,0-0.073-0.024-0.086-0.062c-0.017-0.047,0.009-0.099,0.056-0.116c0.385-0.135,0.764-0.269,1.14-0.402
				c0.05-0.013,0.1,0.008,0.117,0.055c0.017,0.047-0.008,0.099-0.056,0.117c-0.376,0.133-0.757,0.268-1.143,0.402
				C475.296,334.378,475.284,334.38,475.275,334.38z M477.557,333.573c-0.038,0-0.072-0.024-0.085-0.06
				c-0.018-0.047,0.007-0.099,0.054-0.115c0.384-0.136,0.763-0.272,1.139-0.406c0.049-0.016,0.1,0.008,0.116,0.054
				c0.018,0.047-0.008,0.099-0.055,0.115c-0.376,0.135-0.756,0.271-1.138,0.406C477.577,333.572,477.567,333.573,477.557,333.573z
				 M479.834,332.761c-0.037,0-0.071-0.023-0.084-0.061c-0.019-0.047,0.006-0.099,0.054-0.115l1.138-0.411
				c0.045-0.016,0.101,0.008,0.116,0.054c0.018,0.047-0.008,0.099-0.054,0.116l-1.14,0.41
				C479.854,332.759,479.845,332.761,479.834,332.761z M482.109,331.939c-0.037,0-0.072-0.023-0.086-0.061
				c-0.018-0.047,0.008-0.099,0.055-0.116l1.138-0.414c0.043-0.015,0.099,0.006,0.115,0.055c0.019,0.047-0.007,0.099-0.055,0.116
				l-1.137,0.414C482.13,331.937,482.119,331.939,482.109,331.939z M484.382,331.107c-0.037,0-0.071-0.022-0.085-0.059
				c-0.018-0.047,0.007-0.1,0.054-0.116l1.135-0.418c0.047-0.014,0.1,0.007,0.115,0.053c0.019,0.047-0.006,0.099-0.053,0.117
				l-1.135,0.417C484.403,331.105,484.393,331.107,484.382,331.107z M486.651,330.27c-0.037,0-0.072-0.023-0.085-0.059
				c-0.019-0.047,0.006-0.099,0.054-0.117l1.132-0.422c0.047-0.013,0.101,0.006,0.118,0.053c0.018,0.047-0.008,0.1-0.054,0.117
				l-1.133,0.422C486.673,330.268,486.662,330.27,486.651,330.27z M488.916,329.421c-0.036,0-0.07-0.022-0.084-0.059
				c-0.019-0.047,0.006-0.099,0.053-0.117c0.382-0.144,0.76-0.287,1.132-0.428c0.048-0.014,0.099,0.006,0.116,0.053
				c0.019,0.046-0.006,0.099-0.054,0.117c-0.371,0.142-0.749,0.285-1.131,0.429C488.938,329.419,488.927,329.421,488.916,329.421z
				 M491.178,328.563c-0.036,0-0.071-0.023-0.085-0.059c-0.018-0.046,0.007-0.099,0.053-0.117c0.354-0.136,0.704-0.27,1.048-0.402
				l0.081-0.032c0.048-0.014,0.1,0.007,0.117,0.052c0.018,0.047-0.006,0.1-0.052,0.118l-0.081,0.03
				c-0.345,0.133-0.694,0.268-1.049,0.403C491.199,328.561,491.188,328.563,491.178,328.563z M493.435,327.691
				c-0.036,0-0.07-0.022-0.084-0.058c-0.019-0.047,0.005-0.1,0.051-0.118c0.382-0.148,0.756-0.294,1.126-0.439
				c0.049-0.013,0.1,0.006,0.118,0.051c0.018,0.046-0.006,0.1-0.052,0.118c-0.37,0.146-0.745,0.292-1.127,0.439
				C493.458,327.688,493.445,327.691,493.435,327.691z M495.687,326.81c-0.036,0-0.071-0.021-0.085-0.058
				c-0.018-0.046,0.005-0.099,0.052-0.118c0.381-0.149,0.755-0.298,1.121-0.446c0.049-0.02,0.1,0.003,0.119,0.05
				c0.019,0.047-0.004,0.1-0.051,0.118c-0.367,0.147-0.742,0.296-1.124,0.448C495.708,326.807,495.698,326.81,495.687,326.81z
				 M497.932,325.913c-0.036,0-0.069-0.021-0.084-0.056c-0.02-0.046,0.004-0.1,0.049-0.118l0.271-0.109
				c0.288-0.118,0.57-0.231,0.852-0.346c0.041-0.019,0.099,0.002,0.116,0.049c0.021,0.046-0.003,0.1-0.048,0.119
				c-0.28,0.114-0.563,0.229-0.852,0.346l-0.27,0.108C497.954,325.911,497.943,325.913,497.932,325.913z M500.171,324.999
				c-0.036,0-0.07-0.021-0.084-0.057c-0.02-0.046,0.002-0.099,0.049-0.118c0.382-0.157,0.752-0.312,1.115-0.464
				c0.047-0.018,0.1,0.004,0.119,0.049c0.019,0.046-0.002,0.101-0.049,0.12c-0.363,0.151-0.736,0.306-1.117,0.463
				C500.194,324.997,500.183,324.999,500.171,324.999z M502.401,324.068c-0.035,0-0.069-0.021-0.084-0.056
				c-0.02-0.046,0.002-0.099,0.049-0.119c0.38-0.162,0.751-0.32,1.112-0.474c0.046-0.019,0.097,0.002,0.119,0.048
				c0.018,0.046-0.002,0.1-0.049,0.12c-0.361,0.154-0.731,0.313-1.112,0.475C502.425,324.066,502.412,324.068,502.401,324.068z
				 M504.624,323.115c-0.036,0-0.068-0.02-0.083-0.055c-0.021-0.045,0-0.099,0.046-0.119c0.381-0.167,0.749-0.33,1.106-0.488
				c0.048-0.02,0.101,0.001,0.119,0.047c0.021,0.045,0,0.099-0.046,0.12c-0.357,0.158-0.727,0.319-1.105,0.485
				C504.648,323.112,504.636,323.115,504.624,323.115z M506.832,322.135c-0.033,0-0.065-0.02-0.082-0.053
				c-0.021-0.045,0-0.1,0.046-0.12c0.379-0.172,0.746-0.339,1.099-0.501c0.042-0.021,0.1-0.002,0.12,0.044
				c0.022,0.045,0.002,0.099-0.044,0.12c-0.354,0.163-0.72,0.33-1.101,0.501C506.857,322.132,506.847,322.135,506.832,322.135z
				 M509.027,321.125c-0.035,0-0.067-0.02-0.083-0.053c-0.021-0.045-0.001-0.099,0.044-0.12c0.383-0.179,0.745-0.353,1.091-0.52
				c0.042-0.021,0.099-0.002,0.121,0.043c0.022,0.045,0.003,0.1-0.043,0.121c-0.346,0.167-0.709,0.341-1.091,0.52
				C509.054,321.122,509.04,321.125,509.027,321.125z M511.203,320.074c-0.032,0-0.064-0.019-0.081-0.051
				c-0.022-0.044-0.004-0.1,0.041-0.122c0.384-0.191,0.743-0.373,1.075-0.545c0.044-0.021,0.1-0.006,0.121,0.039
				c0.024,0.045,0.006,0.1-0.039,0.123c-0.332,0.172-0.69,0.354-1.076,0.546C511.23,320.071,511.218,320.074,511.203,320.074z
				 M513.347,318.965c-0.03,0-0.063-0.017-0.08-0.047c-0.023-0.044-0.007-0.1,0.038-0.123c0.363-0.197,0.718-0.393,1.05-0.585
				c0.045-0.026,0.099-0.011,0.125,0.033c0.025,0.044,0.01,0.099-0.034,0.124c-0.336,0.193-0.689,0.39-1.056,0.587
				C513.377,318.962,513.361,318.965,513.347,318.965z M515.434,317.759c-0.029,0-0.059-0.015-0.076-0.042
				c-0.027-0.042-0.014-0.099,0.028-0.125c0.722-0.457,0.967-0.673,0.969-0.675c0.036-0.035,0.094-0.032,0.128,0.006
				c0.035,0.038,0.03,0.095-0.007,0.128c-0.009,0.009-0.256,0.227-0.993,0.694C515.467,317.755,515.451,317.759,515.434,317.759z"/>
		</g>
		<g opacity="0.2">
			<path opacity="0.5" fill="#524A48" d="M178.934,340.222h-0.107c-0.302,0-0.673,0-1.106-0.001c-0.05,0-0.09-0.042-0.09-0.091
				c0-0.05,0.041-0.09,0.09-0.09l0,0c0.433,0.001,0.805,0.001,1.106,0.001h0.107c0.05,0,0.091,0.042,0.091,0.091
				C179.025,340.181,178.984,340.222,178.934,340.222z M176.507,340.212L176.507,340.212c-0.379-0.002-0.784-0.006-1.214-0.011
				c-0.049-0.001-0.089-0.041-0.089-0.092c0.001-0.049,0.042-0.089,0.091-0.089h0.001c0.429,0.004,0.835,0.008,1.211,0.011
				c0.051,0,0.091,0.041,0.091,0.091C176.598,340.172,176.556,340.212,176.507,340.212z M174.081,340.186h-0.001l-1.211-0.019
				c-0.051-0.001-0.091-0.043-0.09-0.092c0.001-0.049,0.041-0.089,0.091-0.089h0.001l1.212,0.019c0.05,0.001,0.09,0.043,0.089,0.092
				S174.131,340.186,174.081,340.186z M171.658,340.144c-0.001,0-0.001,0-0.002,0l-1.211-0.027
				c-0.049-0.001-0.089-0.042-0.088-0.093c0.001-0.05,0.035-0.084,0.093-0.088l1.211,0.027c0.05,0.001,0.09,0.042,0.089,0.093
				C171.748,340.106,171.708,340.144,171.658,340.144z M169.235,340.087c-0.001,0-0.002,0-0.002,0l-1.211-0.037
				c-0.051-0.001-0.09-0.043-0.089-0.094c0.002-0.049,0.043-0.088,0.091-0.088c0.001,0,0.002,0,0.002,0l1.211,0.037
				c0.051,0.001,0.09,0.043,0.088,0.093C169.325,340.048,169.284,340.087,169.235,340.087z M166.815,340.01
				c-0.001,0-0.003,0-0.003,0c-0.402-0.013-0.805-0.028-1.212-0.045c-0.051-0.002-0.09-0.044-0.087-0.094
				c0.002-0.049,0.042-0.087,0.09-0.087c0.001,0,0.002,0,0.004,0c0.407,0.017,0.81,0.032,1.21,0.044
				c0.051,0.001,0.09,0.044,0.088,0.093C166.904,339.971,166.863,340.01,166.815,340.01z M164.39,339.916c-0.001,0-0.002,0-0.003,0
				c-0.402-0.018-0.805-0.037-1.21-0.056c-0.049-0.003-0.088-0.045-0.086-0.096c0.002-0.049,0.047-0.087,0.096-0.086
				c0.404,0.02,0.808,0.039,1.208,0.057c0.05,0.002,0.09,0.045,0.087,0.094C164.479,339.877,164.438,339.916,164.39,339.916z
				 M161.968,339.795c-0.001,0-0.003,0-0.004,0c-0.403-0.021-0.808-0.045-1.21-0.07c-0.05-0.003-0.087-0.046-0.085-0.097
				c0.004-0.051,0.048-0.094,0.097-0.085c0.401,0.025,0.804,0.048,1.208,0.07c0.049,0.002,0.088,0.046,0.086,0.095
				C162.057,339.757,162.017,339.795,161.968,339.795z M159.553,339.648c-0.003,0-0.004,0-0.006,0
				c-0.405-0.027-0.808-0.056-1.209-0.085c-0.05-0.004-0.088-0.047-0.084-0.098c0.004-0.05,0.047-0.092,0.098-0.084
				c0.398,0.029,0.802,0.058,1.207,0.085c0.05,0.003,0.088,0.047,0.084,0.097C159.64,339.611,159.6,339.648,159.553,339.648z
				 M157.137,339.471c-0.002,0-0.005,0-0.007,0c-0.408-0.033-0.81-0.068-1.208-0.105c-0.049-0.004-0.086-0.049-0.082-0.099
				c0.005-0.05,0.052-0.078,0.099-0.083c0.397,0.037,0.8,0.072,1.206,0.105c0.051,0.005,0.088,0.048,0.084,0.098
				C157.223,339.434,157.184,339.471,157.137,339.471z M154.724,339.247c-0.003,0-0.006,0-0.01,0
				c-0.408-0.043-0.812-0.086-1.206-0.132c-0.049-0.006-0.085-0.051-0.079-0.1c0.006-0.049,0.055-0.091,0.101-0.08
				c0.395,0.046,0.795,0.09,1.203,0.13c0.049,0.005,0.086,0.049,0.082,0.1C154.809,339.212,154.769,339.247,154.724,339.247z
				 M152.315,338.966c-0.003,0-0.008,0-0.011-0.001c-0.412-0.055-0.813-0.111-1.203-0.17c-0.049-0.007-0.082-0.054-0.075-0.104
				c0.007-0.05,0.05-0.092,0.104-0.076c0.387,0.06,0.788,0.116,1.197,0.17c0.05,0.005,0.085,0.052,0.078,0.102
				C152.399,338.933,152.36,338.966,152.315,338.966z M149.921,338.599c-0.004,0-0.011,0-0.016-0.001
				c-0.421-0.075-0.823-0.154-1.192-0.234c-0.049-0.011-0.081-0.059-0.069-0.107c0.01-0.048,0.06-0.076,0.107-0.069
				c0.368,0.079,0.767,0.158,1.187,0.232c0.048,0.009,0.081,0.056,0.073,0.105C150.002,338.568,149.964,338.599,149.921,338.599z
				 M147.553,338.08c-0.008,0-0.016-0.001-0.025-0.003c-0.19-0.053-0.372-0.106-0.546-0.162c-0.205-0.063-0.411-0.128-0.615-0.193
				c-0.048-0.016-0.074-0.066-0.059-0.114c0.014-0.048,0.07-0.075,0.113-0.059c0.204,0.065,0.409,0.13,0.614,0.194
				c0.172,0.053,0.354,0.106,0.542,0.159c0.048,0.013,0.076,0.064,0.063,0.112C147.63,338.054,147.593,338.08,147.553,338.08z
				 M145.241,337.362c-0.01,0-0.019-0.001-0.027-0.005l-1.152-0.365c-0.048-0.016-0.075-0.066-0.059-0.113
				c0.014-0.049,0.071-0.077,0.113-0.06l1.153,0.366c0.048,0.015,0.074,0.065,0.059,0.113
				C145.316,337.336,145.28,337.362,145.241,337.362z M142.935,336.629c-0.01,0-0.019-0.001-0.029-0.005l-1.151-0.369
				c-0.047-0.015-0.073-0.066-0.058-0.114c0.015-0.046,0.066-0.076,0.115-0.058l1.151,0.369c0.047,0.015,0.073,0.066,0.058,0.115
				C143.009,336.604,142.974,336.629,142.935,336.629z M140.632,335.891c-0.009,0-0.019-0.001-0.028-0.004l-1.152-0.372
				c-0.047-0.016-0.073-0.066-0.057-0.115c0.014-0.046,0.068-0.077,0.114-0.058l1.151,0.372c0.048,0.015,0.073,0.066,0.058,0.114
				C140.707,335.866,140.67,335.891,140.632,335.891z M138.329,335.147c-0.01,0-0.019-0.001-0.028-0.005
				c-0.379-0.123-0.754-0.244-1.125-0.365l-0.025-0.008c-0.047-0.016-0.073-0.066-0.058-0.115c0.015-0.047,0.067-0.077,0.115-0.058
				l0.024,0.009c0.372,0.12,0.747,0.243,1.126,0.366c0.047,0.015,0.073,0.066,0.058,0.114
				C138.403,335.123,138.366,335.147,138.329,335.147z M136.029,334.397c-0.009,0-0.019-0.001-0.028-0.005
				c-0.385-0.124-0.766-0.25-1.143-0.374c-0.047-0.016-0.077-0.068-0.062-0.116c0.017-0.047,0.059-0.078,0.111-0.058l0.007,0.002
				c0.377,0.124,0.759,0.25,1.143,0.374c0.048,0.016,0.073,0.066,0.058,0.114C136.104,334.373,136.067,334.397,136.029,334.397z
				 M133.73,333.642c-0.009,0-0.019-0.001-0.028-0.004c-0.387-0.128-0.769-0.253-1.148-0.38c-0.048-0.016-0.073-0.067-0.058-0.114
				c0.016-0.049,0.065-0.076,0.114-0.058c0.379,0.126,0.761,0.252,1.148,0.38c0.047,0.015,0.073,0.067,0.057,0.114
				C133.803,333.618,133.768,333.642,133.73,333.642z M131.436,332.88c-0.009,0-0.019-0.001-0.028-0.005
				c-0.387-0.128-0.769-0.255-1.149-0.383c-0.048-0.017-0.072-0.067-0.057-0.116c0.016-0.047,0.063-0.075,0.116-0.056
				c0.377,0.127,0.759,0.255,1.146,0.383c0.049,0.016,0.073,0.067,0.058,0.115C131.509,332.856,131.474,332.88,131.436,332.88z
				 M129.14,332.112c-0.009,0-0.02-0.001-0.03-0.005l-1.145-0.388c-0.047-0.016-0.073-0.068-0.057-0.115s0.067-0.076,0.116-0.057
				l1.145,0.388c0.047,0.017,0.072,0.067,0.057,0.116C129.213,332.088,129.177,332.112,129.14,332.112z M126.849,331.336
				c-0.009,0-0.02-0.001-0.029-0.004c-0.386-0.131-0.767-0.262-1.145-0.392c-0.047-0.016-0.073-0.068-0.057-0.115
				c0.016-0.047,0.069-0.074,0.116-0.057c0.378,0.13,0.759,0.26,1.145,0.392c0.047,0.016,0.071,0.068,0.056,0.115
				C126.922,331.313,126.887,331.336,126.849,331.336z M124.562,330.552c-0.01,0-0.021-0.001-0.03-0.005
				c-0.386-0.132-0.767-0.264-1.143-0.395c-0.047-0.017-0.073-0.068-0.056-0.115c0.015-0.048,0.068-0.077,0.115-0.057
				c0.376,0.131,0.757,0.263,1.144,0.395c0.047,0.017,0.073,0.069,0.056,0.116C124.635,330.528,124.6,330.552,124.562,330.552z
				 M122.275,329.758c-0.009,0-0.02-0.001-0.029-0.005c-0.384-0.134-0.766-0.268-1.142-0.4c-0.047-0.018-0.072-0.068-0.056-0.117
				c0.018-0.046,0.064-0.073,0.118-0.056c0.374,0.132,0.754,0.266,1.14,0.4c0.047,0.017,0.073,0.069,0.056,0.116
				C122.349,329.734,122.313,329.758,122.275,329.758z M119.994,328.958c-0.01,0-0.02-0.002-0.03-0.006
				c-0.304-0.108-0.604-0.214-0.903-0.321l-0.237-0.085c-0.047-0.017-0.072-0.068-0.054-0.116c0.016-0.047,0.067-0.074,0.115-0.054
				l0.238,0.083c0.297,0.106,0.598,0.212,0.902,0.322c0.046,0.017,0.072,0.069,0.054,0.116
				C120.066,328.934,120.032,328.958,119.994,328.958z M117.717,328.144c-0.011,0-0.021-0.002-0.031-0.005
				c-0.386-0.138-0.765-0.275-1.138-0.411c-0.047-0.017-0.072-0.068-0.054-0.116c0.017-0.048,0.073-0.07,0.116-0.054
				c0.374,0.136,0.752,0.273,1.138,0.41c0.047,0.017,0.072,0.069,0.054,0.116C117.788,328.12,117.754,328.144,117.717,328.144z
				 M115.441,327.319c-0.011,0-0.021-0.002-0.031-0.006c-0.385-0.139-0.764-0.278-1.136-0.416c-0.045-0.018-0.071-0.07-0.053-0.117
				c0.017-0.047,0.07-0.067,0.117-0.053c0.371,0.137,0.749,0.276,1.134,0.416c0.047,0.017,0.072,0.068,0.054,0.116
				C115.513,327.296,115.478,327.319,115.441,327.319z M113.171,326.485c-0.01,0-0.021-0.002-0.032-0.006
				c-0.384-0.143-0.762-0.283-1.132-0.422c-0.047-0.018-0.07-0.07-0.053-0.117c0.019-0.047,0.069-0.068,0.116-0.053
				c0.371,0.139,0.748,0.279,1.133,0.422c0.047,0.018,0.071,0.069,0.053,0.117C113.243,326.463,113.208,326.485,113.171,326.485z
				 M110.906,325.636c-0.011,0-0.021-0.003-0.032-0.006c-0.385-0.145-0.761-0.29-1.131-0.431c-0.046-0.017-0.069-0.07-0.052-0.118
				c0.018-0.044,0.067-0.065,0.118-0.051c0.368,0.141,0.745,0.286,1.129,0.43c0.047,0.018,0.071,0.07,0.053,0.117
				C110.977,325.613,110.943,325.636,110.906,325.636z M108.649,324.771c-0.011,0-0.023-0.002-0.033-0.006
				c-0.385-0.148-0.76-0.294-1.127-0.438c-0.047-0.019-0.07-0.072-0.052-0.118c0.018-0.045,0.072-0.066,0.118-0.052
				c0.367,0.144,0.742,0.29,1.127,0.439c0.046,0.019,0.069,0.07,0.052,0.118C108.719,324.749,108.685,324.771,108.649,324.771z
				 M106.396,323.888c-0.01,0-0.022-0.002-0.033-0.006c-0.386-0.153-0.761-0.303-1.124-0.45c-0.046-0.019-0.069-0.07-0.05-0.118
				s0.07-0.067,0.118-0.049c0.363,0.146,0.736,0.295,1.122,0.447c0.047,0.019,0.069,0.072,0.052,0.118
				C106.467,323.865,106.433,323.888,106.396,323.888z M104.153,322.985c-0.012,0-0.023-0.002-0.035-0.006
				c-0.384-0.157-0.757-0.311-1.118-0.46c-0.046-0.02-0.067-0.073-0.048-0.118c0.019-0.047,0.07-0.068,0.119-0.049
				c0.359,0.15,0.731,0.303,1.116,0.46c0.046,0.019,0.069,0.072,0.05,0.118C104.223,322.964,104.188,322.985,104.153,322.985z
				 M101.923,322.057c-0.012,0-0.023-0.002-0.036-0.007c-0.388-0.164-0.758-0.322-1.113-0.476c-0.046-0.021-0.066-0.074-0.047-0.119
				c0.02-0.045,0.073-0.07,0.12-0.048c0.353,0.153,0.723,0.312,1.112,0.475c0.045,0.02,0.067,0.073,0.048,0.12
				C101.993,322.036,101.959,322.057,101.923,322.057z M99.704,321.097c-0.012,0-0.024-0.002-0.036-0.007
				c-0.389-0.173-0.758-0.338-1.103-0.496c-0.046-0.021-0.066-0.074-0.045-0.12c0.021-0.044,0.079-0.063,0.12-0.044
				c0.346,0.157,0.712,0.322,1.101,0.494c0.046,0.021,0.067,0.074,0.046,0.12C99.773,321.077,99.739,321.097,99.704,321.097z
				 M97.505,320.095c-0.013,0-0.026-0.003-0.039-0.009c-0.398-0.188-0.761-0.362-1.089-0.523c-0.045-0.021-0.064-0.077-0.042-0.121
				c0.021-0.044,0.075-0.066,0.122-0.042c0.328,0.162,0.689,0.335,1.086,0.522c0.045,0.021,0.064,0.075,0.044,0.121
				C97.572,320.075,97.54,320.095,97.505,320.095z M95.342,319.028c-0.014,0-0.028-0.004-0.042-0.011
				c-0.404-0.211-0.762-0.405-1.062-0.579c-0.043-0.024-0.059-0.08-0.034-0.124c0.025-0.042,0.079-0.059,0.123-0.033
				c0.299,0.171,0.654,0.365,1.058,0.575c0.043,0.023,0.061,0.078,0.037,0.122C95.407,319.01,95.375,319.028,95.342,319.028z
				 M93.342,317.719c-0.028,0-0.055-0.013-0.073-0.037c-0.178-0.245-0.391-0.597-0.634-1.047c-0.023-0.044-0.007-0.099,0.038-0.123
				c0.042-0.025,0.098-0.009,0.123,0.037c0.239,0.443,0.447,0.789,0.621,1.027c0.03,0.041,0.021,0.097-0.02,0.126
				C93.38,317.712,93.361,317.719,93.342,317.719z M92.167,315.601c-0.034,0-0.066-0.019-0.082-0.052
				c-0.294-0.61-0.511-1.1-0.512-1.105c-0.021-0.046,0-0.1,0.046-0.12c0.046-0.021,0.101,0.002,0.119,0.047
				c0.002,0.004,0.217,0.492,0.509,1.099c0.023,0.045,0.004,0.1-0.042,0.122C92.193,315.598,92.179,315.601,92.167,315.601z"/>
		</g>
		
			<path opacity="0.5" fill="none" stroke="#524A48" stroke-width="0.2483" stroke-linecap="round" stroke-linejoin="round" stroke-dasharray="1.6552,1.6552" d="
			M436.346,528.709c0,0-15.196,5.444-45.821,7.259c-30.626,1.814-147.395,1.229-168.323,0.907
			c-29.491-0.453-51.042-6.126-51.042-6.126"/>
		
			<radialGradient id="SVTWB_SVGID_5_" cx="452.3662" cy="251.5479" r="17.3523" gradientTransform="matrix(-0.9746 0 0 0.9746 586.592 9.8804)" gradientUnits="userSpaceOnUse">
			<stop  offset="0" style="stop-color:#FFFFFF"/>
			<stop  offset="1" style="stop-color:#897F76"/>
		</radialGradient>
		<path opacity="0.2" fill="url(#SVTWB_SVGID_5_)" d="M133.813,198.149c0,0,3.953,6.733,4.897,7.867c0.944,1.134,6.61,8.313,6.61,8.313
			l0.529,4.769c0.788,2.226,4.484,12.803,5.328,17.523c0.945,5.289,7.179,17.381,7.368,18.893c0.189,1.509,2.266,3.211,2.266,4.343
			c0,1.133,3.212,4.156,4.156,5.291c0.945,1.135,0.946,6.991,0.946,6.991l9.257,10.956c0,0-0.946-6.611-0.946-7.557
			c0-0.945-5.1-22.482-5.856-27.958c-0.755-5.48-3.967-28.716-5.29-28.527c-1.323,0.189-1.133,18.325-1.133,18.325
			s-1.7-17.569-0.945-20.214c0.362-1.272,1.701-3.401,3.778-0.378c3.193,4.644,12.091,72.732,12.091,72.732s-0.06-0.073-0.164-0.2
			l5.869,42.542l-6.934-43.838c-3.093-3.764-11.011-13.386-11.618-13.993c-0.755-0.755-0.756-3.213-0.756-4.345
			c0-1.133-1.322-4.723-2.643-6.423c-1.323-1.7-3.969-5.856-3.969-6.991c0-1.133-5.29-11.9-5.667-13.412
			c-0.377-1.512-2.458-6.611-2.833-8.312c-0.303-1.371-1.715-10.842-2.249-14.463c-0.758-1.117-8.943-13.164-9.843-14.064
			c-0.943-0.944-3.21-4.345-3.21-5.101L133.813,198.149z"/>
		
			<path opacity="0.5" fill="none" stroke="#524A48" stroke-width="0.8263" stroke-linecap="round" stroke-linejoin="round" stroke-dasharray="1.6552,1.6552" d="
			M236.735,130.359c0,0,19.989,11.186,74.087,7.885c48.759-2.975,53-8.435,53-8.435"/>
	</g>
	<path opacity="0.25" fill="none" stroke="#322B29" stroke-width="1.6527" stroke-miterlimit="10" d="M182.114,331.529
		c0,0,13.977-62.696,5.235-103.227c-8.742-40.53-24.497-60.359-24.497-60.359"/>
	<path opacity="0.25" fill="none" stroke="#322B29" stroke-width="1.673" stroke-miterlimit="10" d="M420.935,311.986
		c0,0-11.353-34.644-6.858-86.212c3.862-44.31,19.35-62.816,19.35-62.816"/>
</g>
  <g id="CUSTOM">
</g>
</svg>
