<?xml version="1.0" encoding="utf-8"?>
<!-- Generator: Adobe Illustrator 16.0.0, SVG Export Plug-In . SVG Version: 6.00 Build 0)  -->
<!DOCTYPE svg PUBLIC "-//W3C//DTD SVG 1.1//EN" "http://www.w3.org/Graphics/SVG/1.1/DTD/svg11.dtd">
<svg version="1.1" xmlns="http://www.w3.org/2000/svg" xmlns:xlink="http://www.w3.org/1999/xlink" x="0px" y="0px" width="612px"
	 height="792px" viewBox="0 0 472 792" enable-background="new 0 0 612 792" xml:space="preserve">

<g id="BLUE_BODY">
	<g>
		<path fill="#96A1B2" d="M266.365,115.431c5.122,1.079,27.231,2.292,43.137,2.426c15.909,0.135,46.78-0.405,47.588-0.135
			c0.811,0.271,3.372,2.562,4.045,3.235c0.675,0.674,1.752,0.539,2.832,0.539c1.078,0,2.829,1.484,3.774,1.619
			c0.944,0.135,3.91-0.269,4.853,0.27s5.527,5.527,5.796,5.932c0.271,0.404,2.158,0.808,2.427,1.348
			c0.269,0.539,2.157,1.348,3.909,1.348c1.753,0,7.148,1.079,7.148,1.079s1.616,0.809,2.156,1.212
			c0.539,0.405,4.314,1.349,5.393,2.157c1.077,0.809,3.101,2.696,3.101,2.696s6.47,0.944,6.874,0.944
			c0.403,0,3.774,1.212,4.583,1.886c0.81,0.674,14.692,8.494,23.726,13.617c9.033,5.122,23.729,14.559,26.289,16.716
			c2.563,2.156,5.663,7.414,6.607,8.627c0.943,1.214,6.74,10.515,7.145,11.458c0.402,0.944,3.233,9.438,3.505,10.381
			c0.271,0.944,8.224,17.255,12.809,28.712c4.583,11.458,12.132,31.545,13.346,34.916c1.214,3.37,4.181,15.367,4.854,18.468
			c0.674,3.102,4.447,11.729,5.662,14.424c1.213,2.696,3.504,13.617,3.504,13.617l1.48,1.347c0,0,0.135,2.695,0.404,4.313
			c0.27,1.618,1.079,2.562,1.752,3.638c0.675,1.08,2.024,2.968,1.888,3.641c-0.133,0.673-3.64,2.426-5.256,3.101
			c-1.617,0.673-10.381,4.448-12.539,5.259c-2.156,0.808-11.322,3.773-22.916,8.491c-11.595,4.718-32.085,8.223-36.399,8.629
			c-4.313,0.403-10.648-1.483-12.133-2.023c-1.482-0.539-3.101,0.946-3.504,1.214c-0.404,0.273-3.371-1.214-3.371-1.214
			s0.135-9.166,0.271-10.244c0.137-1.079-0.271-3.641-0.675-4.448c-0.404-0.809-1.753-3.776-1.753-3.776s-2.156,10.382-3.235,18.198
			c-1.076,7.819,0.809,29.12,1.077,33.432c0.271,4.315,3.238,24.402,4.045,38.15c0.808,13.751,1.484,40.442,1.484,40.442
			s2.426,5.663,2.83,7.414c0.403,1.752,2.722,34.24,2.991,40.98c0.062,1.531,0.323,3.57,0.568,5.397
			c0.829,6.217,1.355,13.258,1.563,13.882c0.271,0.81,0.404,10.918,0.404,11.592c0,0.676-1.616,1.485-4.987,2.969
			c-3.369,1.482-27.503,4.986-34.379,5.523c-6.875,0.539-118.766,0.407-160.691,0.407c-41.924,0-54.466-2.292-59.723-3.369
			c-5.257-1.079-12.402-5.53-12.671-6.069c-0.269-0.54,0.269-7.817,0.269-8.357c0-0.537,0.404-3.773,1.079-5.392
			c0.674-1.618,1.752-14.828,2.562-23.86c0.809-9.033,1.887-32.76,2.021-33.838c0.134-1.077,2.965-7.412,2.965-7.412
			s-0.268-35.455,0-39.096c0.27-3.639,3.372-25.073,4.316-33.296c0.944-8.224,1.752-24.938,2.156-31.544
			c0.406-6.608,1.482-42.332,1.482-43.409s-0.403-3.235-0.943-3.369c-0.54-0.136-2.426,1.212-3.1,2.425
			c-0.674,1.213-0.946,3.91-0.946,4.584c0,0.673,0.157,10.726,0.022,14.774c-0.005,0.192-0.01,0.292-0.02,0.483
			c-0.213,4.156-1.489,11.74-1.619,12.783c-0.134,1.079-3.236,9.572-3.236,9.572s-4.043,0.673-5.795,0.673
			c-1.754,0-14.56-2.021-19.683-3.236c-5.123-1.212-19.412-5.525-24.13-6.334c-4.719-0.809-23.996-10.515-28.714-12.402
			c-4.718-1.889-15.099-6.065-15.503-6.605c-0.403-0.541,3.774-8.088,4.044-8.762c0.27-0.675,0.404-2.292,0.809-2.83
			c0.405-0.541,1.349-1.35,1.349-1.35s1.348-3.504,1.617-5.123c0.271-1.616,3.91-11.728,5.796-17.93
			c1.888-6.201,19.546-49.877,23.187-58.101c3.641-8.223,15.549-32.79,16.763-35.351c1.213-2.561-0.451-4.956,1.167-10.618
			c1.619-5.662,16.313-18.198,25.346-24.13c9.032-5.931,33.971-16.446,38.15-17.93c4.179-1.482,17.256-9.841,18.198-9.841
			c0.944,0,7.551-1.618,7.955-2.021c0.405-0.404,3.236-1.888,4.987-2.427c1.753-0.54,5.662-3.101,6.875-4.179
			c1.212-1.079,5.258-3.775,6.606-3.91c1.348-0.134,4.718-0.81,6.606-1.617c1.887-0.81,6.066-5.797,6.066-5.797
			S261.241,114.353,266.365,115.431z"/>
	</g>
</g>
<g id="GREY_HEATHER">
	<g>
		<defs>
			<path id="SVGID_1_" d="M266.357,115.436c5.123,1.078,27.231,2.292,43.137,2.426c15.909,0.134,46.78-0.405,47.589-0.135
				c0.81,0.271,3.371,2.562,4.045,3.236c0.674,0.673,1.751,0.538,2.83,0.538s2.83,1.483,3.775,1.618
				c0.944,0.136,3.91-0.269,4.852,0.27c0.943,0.539,5.528,5.527,5.797,5.931c0.27,0.405,2.158,0.808,2.428,1.349
				c0.269,0.539,2.156,1.347,3.908,1.347c1.753,0,7.147,1.079,7.147,1.079s1.617,0.809,2.157,1.212
				c0.539,0.405,4.313,1.348,5.393,2.157c1.077,0.809,3.101,2.695,3.101,2.695s6.47,0.945,6.874,0.945
				c0.403,0,3.774,1.212,4.583,1.886c0.81,0.674,14.693,8.493,23.727,13.616c9.032,5.123,23.729,14.56,26.288,16.716
				c2.562,2.156,5.662,7.414,6.607,8.627c0.944,1.214,6.739,10.515,7.145,11.458c0.402,0.944,3.233,9.437,3.504,10.382
				c0.271,0.944,8.226,17.254,12.809,28.712c4.583,11.458,12.134,31.545,13.347,34.916c1.215,3.37,4.18,15.367,4.854,18.468
				c0.676,3.102,4.449,11.729,5.664,14.424c1.213,2.696,3.502,13.616,3.502,13.616l1.481,1.348c0,0,0.136,2.695,0.404,4.313
				c0.271,1.618,1.08,2.561,1.753,3.638c0.674,1.08,2.023,2.968,1.887,3.641c-0.134,0.673-3.64,2.427-5.255,3.101
				c-1.617,0.672-10.383,4.447-12.539,5.259c-2.158,0.808-11.324,3.772-22.916,8.49c-11.596,4.717-32.087,8.223-36.401,8.628
				c-4.313,0.403-10.647-1.483-12.133-2.023c-1.482-0.539-3.1,0.946-3.503,1.213c-0.405,0.273-3.371-1.213-3.371-1.213
				s0.136-9.167,0.27-10.245c0.137-1.078-0.27-3.64-0.675-4.447c-0.404-0.809-1.752-3.777-1.752-3.777s-2.157,10.382-3.235,18.2
				c-1.077,7.818,0.808,29.119,1.078,33.431c0.27,4.315,3.237,24.401,4.044,38.15c0.808,13.751,1.483,40.441,1.483,40.441
				s2.427,5.664,2.831,7.415c0.403,1.752,2.723,34.239,2.991,40.979c0.062,1.533,0.324,3.571,0.568,5.397
				c0.829,6.217,1.355,13.257,1.563,13.882c0.271,0.811,0.404,10.919,0.404,11.594s-1.616,1.483-4.988,2.967
				c-3.369,1.482-27.502,4.986-34.378,5.523c-6.875,0.539-118.766,0.405-160.691,0.405s-54.466-2.291-59.723-3.368
				c-5.258-1.078-12.402-5.527-12.671-6.068c-0.269-0.539,0.27-7.817,0.27-8.356s0.403-3.773,1.079-5.393
				c0.674-1.618,1.752-14.827,2.562-23.861c0.808-9.032,1.887-32.759,2.021-33.837c0.134-1.077,2.966-7.412,2.966-7.412
				s-0.269-35.454,0-39.096c0.269-3.639,3.372-25.072,4.315-33.295c0.944-8.223,1.752-24.938,2.156-31.544
				c0.406-6.608,1.482-42.332,1.482-43.41c0-1.077-0.404-3.235-0.942-3.368c-0.54-0.137-2.427,1.212-3.1,2.425
				c-0.673,1.213-0.946,3.91-0.946,4.583c0,0.674,0.157,10.727,0.022,14.775c-0.005,0.192-0.01,0.292-0.02,0.483
				c-0.213,4.156-1.489,11.74-1.619,12.782c-0.134,1.079-3.235,9.572-3.235,9.572s-4.044,0.673-5.796,0.673
				c-1.753,0-14.56-2.022-19.682-3.236c-5.123-1.212-19.412-5.525-24.13-6.334c-4.719-0.809-23.996-10.515-28.714-12.402
				c-4.718-1.889-15.1-6.065-15.503-6.605c-0.403-0.541,3.774-8.088,4.044-8.762c0.27-0.676,0.404-2.292,0.809-2.83
				c0.405-0.542,1.349-1.35,1.349-1.35s1.347-3.505,1.618-5.123c0.27-1.617,3.909-11.729,5.795-17.93
				c1.887-6.201,19.547-49.877,23.187-58.101c3.642-8.223,15.549-32.79,16.763-35.351c1.213-2.562-0.45-4.957,1.167-10.618
				c1.618-5.663,16.313-18.199,25.346-24.13c9.031-5.931,33.971-16.446,38.15-17.93c4.179-1.482,17.255-9.84,18.198-9.84
				c0.944,0,7.55-1.618,7.955-2.021c0.405-0.404,3.235-1.887,4.987-2.427c1.753-0.54,5.663-3.101,6.875-4.179
				c1.212-1.079,5.258-3.775,6.606-3.91c1.348-0.134,4.718-0.808,6.605-1.617c1.887-0.81,6.067-5.797,6.067-5.797
				S261.233,114.358,266.357,115.436z"/>
		</defs>
		<clipPath id="SVGID_2_">
			<use xlink:href="#SVGID_1_"  overflow="visible"/>
		</clipPath>
		<g display="none" clip-path="url(#SVGID_2_)">
			
				<image display="inline" overflow="visible" width="536" height="544" xlink:href="FAB65FCA.png"  transform="matrix(1 0 0 1 511.0576 57)">
			</image>
		</g>
		<g display="none" clip-path="url(#SVGID_2_)">
			
				<image display="inline" overflow="visible" width="536" height="544" xlink:href="FAB65FCE.png"  transform="matrix(1 0 0 1 50.0576 57)">
			</image>
		</g>
		<g transform="matrix(1 0 0 1 -7.629395e-006 0)" clip-path="url(#SVGID_2_)">
			
				<image overflow="visible" width="1511" height="1641" xlink:href="FAB65FC9.png"  transform="matrix(0.2972 0 0 0.2972 77.8564 113.2954)">
			</image>
		</g>
	</g>
</g>
<g id="SHADING">
	
		<radialGradient id="SVGID_3_" cx="392.709" cy="253.1899" r="193.833" gradientTransform="matrix(0.9746 0 0 0.9746 7.6907 9.8804)" gradientUnits="userSpaceOnUse">
		<stop  offset="0" style="stop-color:#FFFFFF"/>
		<stop  offset="1" style="stop-color:#897F76"/>
	</radialGradient>
	<path opacity="0.5" fill="url(#SVGID_3_)" d="M434.959,468.919c0,0-13.121-32.985-18.082-49.418
		c-4.96-16.433-16.743-74.098-16.743-76.888c0-2.791-7.75-46.814-8.679-49.605c-0.93-2.789-2.171-8.99-2.171-8.99
		s7.44-1.55,8.991-3.411c1.55-1.86,3.101-3.1,4.34-6.2c1.24-3.101,4.03-8.681,4.03-8.681s3.411,16.432,1.24,28.213
		c-2.17,11.782-5.271,31.003-5.891,37.204c-0.619,6.201,2.172,24.492,4.03,36.895c1.86,12.399,9.684,41.516,12.712,49.913
		c7.939,22.026,9.045,30.455,9.665,32.938C429.023,453.367,434.959,468.919,434.959,468.919z"/>
	
		<radialGradient id="SVGID_4_" cx="196.2334" cy="337.8984" r="84.4652" gradientTransform="matrix(0.9746 0 0 0.9746 7.6907 9.8804)" gradientUnits="userSpaceOnUse">
		<stop  offset="0" style="stop-color:#FFFFFF"/>
		<stop  offset="1" style="stop-color:#897F76"/>
	</radialGradient>
	<path opacity="0.5" fill="url(#SVGID_4_)" d="M203.886,341.993c0,0-1.241,43.405-7.13,61.696
		c-5.891,18.293-23.099,70.159-23.099,70.159l0.306-5.064c0,0,0.945-3.044,2.966-7.412c5.927-12.807,11.203-38.854,12.075-41.254
		c1.241-3.407,7.058-22.245,7.44-23.87C202.645,369.896,203.886,341.993,203.886,341.993z"/>
	
		<radialGradient id="SVGID_5_" cx="204.4678" cy="309.0742" r="53.3863" gradientTransform="matrix(0.9746 0 0 0.9746 7.6907 9.8804)" gradientUnits="userSpaceOnUse">
		<stop  offset="0" style="stop-color:#FFFFFF"/>
		<stop  offset="1" style="stop-color:#897F76"/>
	</radialGradient>
	<path opacity="0.25" fill="url(#SVGID_5_)" d="M187.159,323.342c0,0,8.428-5.688,9.061-7.586
		c0.632-1.897,2.316-12.646,2.739-17.702c0.422-5.059,5.69-17.281,4.637-22.759c-1.054-5.479-3.373-9.063-4.637-16.439
		c-1.263-7.375-3.372-9.693-3.372-9.693s-1.264,11.38-0.421,15.595c0.843,4.214,2.316,6.532,3.16,11.169
		c0.846,4.636,0.212,10.747-0.421,16.436c-0.631,5.691-2.739,22.551-3.371,24.236C193.902,318.285,187.159,323.342,187.159,323.342z
		"/>
	<path opacity="0.25" fill="#897F76" d="M150.28,245.16c0,0,2.739,14.751,6.533,20.23c3.794,5.481,9.693,9.694,10.748,10.538
		c1.053,0.843,3.161,2.529,3.161,2.529s7.166,17.07,8.641,21.496c1.475,4.425,2.396,11.984,2.396,11.984s1.746-1.481,2.183-1.277
		c0.435,0.2,0.622,1.066,0.622,1.066s-3.935-15.356-5.2-17.465c-1.266-2.107-6.533-16.014-7.166-18.122s-1.475-5.059-2.739-9.484
		c-1.265-4.425-6.955-21.495-6.955-21.495s7.165,27.185,7.165,28.661c0,1.475-6.532-3.794-7.796-5.481
		c-1.264-1.685-5.269-8.428-5.269-9.904C156.602,256.96,150.28,245.16,150.28,245.16z"/>
	<path opacity="0.25" fill="#897F76" d="M178.616,343.759c0,0-5.266,2.276-12.742,1.078c-4.208-0.673-12.223-1.685-12.223-1.685
		s5.902,3.372,10.748,3.794c4.847,0.419,1.475,4.004,0,4.636c-1.476,0.633-4.643,3.046-4.643,3.046c0-0.003,6.833,1.193,9.489,1.323
		c1.938,0.096,5.178-0.594,5.796-0.673c0,0,0.947-2.433,1.158-3.275c0.211-0.844,1.446-4.102,1.932-5.48
		C178.206,346.311,178.616,343.759,178.616,343.759z"/>
	<path opacity="0.25" fill="#897F76" d="M85.794,317.443c0,0,10.959,6.111,16.647,8.217c5.69,2.108,21.918,8.22,25.711,9.482
		c3.793,1.264,13.699,4.216,15.805,4.637c2.106,0.422-24.445-4.635-38.354-10.748c-13.908-6.111-19.388-8.429-19.598-9.062
		C85.794,319.339,85.794,317.443,85.794,317.443z"/>
	<path opacity="0.25" fill="#897F76" d="M158.288,300.373c0,0,5.691,19.387,6.955,24.444s4.004,15.384,4.004,15.384
		s-1.054,1.475-1.686,2.106c-0.632,0.633,3.582,2.318,4.214,1.265c0.632-1.053,0-6.956-0.633-8.217
		C170.511,334.09,158.288,300.373,158.288,300.373z"/>
	<path opacity="0.25" fill="#897F76" d="M177.043,336.83c0,0-1.263-9.905-2.739-13.487c-1.475-3.583-6.322-14.751-7.586-18.966
		c-1.265-4.215-6.532-17.702-5.058-16.86c1.475,0.843,10.325,19.389,12.854,23.392c2.529,4.005,4.81,8.003,5.441,11.165
		l-0.039,10.62l-0.212,2.751C179.071,336.287,177.043,336.83,177.043,336.83z"/>
	<path opacity="0.5" fill="#897F76" d="M150.701,179.41c0,0,0.632,9.483,1.474,12.433c0.844,2.951,3.583,13.065,3.583,16.649
		c0,3.582,0.843,13.487,0.843,13.487s-2.108-15.805-3.372-19.599c-1.265-3.793-4.426-14.751-4.636-16.648
		c-0.21-1.897-0.422-6.533,0.42-7.587C149.858,177.091,150.701,179.41,150.701,179.41z"/>
	
		<radialGradient id="SVGID_6_" cx="116.8188" cy="106.7148" r="180.6514" gradientTransform="matrix(0.9746 0 0 0.9746 7.6907 9.8804)" gradientUnits="userSpaceOnUse">
		<stop  offset="0" style="stop-color:#FFFFFF"/>
		<stop  offset="1" style="stop-color:#897F76"/>
	</radialGradient>
	<path opacity="0.25" fill="url(#SVGID_6_)" d="M160.396,319.337c-0.133-0.466-0.418-0.661-0.74-0.737
		c-5.082-20.721-22.626-92.522-23.707-100.625c-1.264-9.483,1.054-16.859,1.476-15.805c0.421,1.053,12.855,17.912,15.384,21.917
		c2.527,4.003,4.425,13.065,4.425,13.065s-0.632-9.273-1.054-10.958c-0.421-1.686-7.586-11.801-10.958-15.805
		c-3.371-4.004-10.441-12.5-10.441-12.5l-6.632,14.014c0,0-5.264,26.303-9.27,55.174c-4.004,28.87-1.896,57.741-1.896,57.741
		l3.162-36.036c0,0,0.421,2.318,1.476,7.376c1.053,5.056,5.688,18.335,5.688,18.335s-4.425-26.133-5.057-39.831
		c-0.631-13.697,2.74-32.875,4.425-43.833c1.687-10.959,6.534-23.392,6.534-23.392s0.63,9.904,1.263,21.917
		c0.531,10.11,18.979,70.382,24.808,89.21c-0.602,0.028-1.204,0.352-1.204,0.352s0.21,4.848,1.054,6.534
		c0.842,1.685,1.685,7.165-0.211,7.374c-1.897,0.212-15.173-13.065-15.173-13.065s17.281,19.809,19.387,19.176
		C165.242,338.304,160.817,320.813,160.396,319.337z"/>
	<path opacity="0.25" fill="#897F76" d="M482.324,206.49c0,0,0.197,13.555-0.578,15.879c-0.777,2.323-17.43,28.077-17.43,28.077
		s14.912-15.103,17.43-24.009C484.262,217.527,482.324,206.49,482.324,206.49z"/>
	<path opacity="0.25" fill="#897F76" d="M488.521,221.981c0,0,2.518,20.526,2.326,24.98c-0.195,4.454-1.164,12.199-2.326,13.748
		c-1.16,1.55,0.197,2.518,0.197,2.518l2.516,3.097c0,0,1.937-15.298,1.548-18.589c-0.387-3.292-0.772-19.751-1.935-21.299
		c-1.164-1.551-2.129-5.036-2.129-5.036L488.521,221.981z"/>
	<path opacity="0.5" fill="#897F76" d="M433.334,306.022c0,0,8.716-6.002,9.683-10.456c0.967-4.455,1.937-13.941,1.937-13.941
		s1.356-0.97,1.356,0.58c0,1.549-0.936,13.076-2.131,15.298C441.466,302.538,433.334,306.022,433.334,306.022z"/>
	<path opacity="0.5" fill="#897F76" d="M509.438,278.525c0,0-1.551,6.002-2.132,8.132c-0.582,2.131-1.551,6.585-1.551,7.939
		c0,1.356,0.775,3.485,0.775,3.485s0.388-8.519,1.937-11.037C510.016,284.528,509.438,278.525,509.438,278.525z"/>
	<path opacity="0.25" fill="#897F76" d="M441.732,297.062c0,0-4.84-3.292-6.003-2.712c-1.163,0.582-2.323,4.843-2.323,5.424
		c0,0.58-0.969,4.647-0.969,4.647s2.129-7.357,4.066-6.971C438.439,297.835,441.732,297.062,441.732,297.062z"/>
	<path opacity="0.25" fill="#897F76" d="M522.798,316.092c-0.195-1.548-1.551-1.162-1.551-1.162s-0.773,1.741-1.161,2.323
		c-0.388,0.582-16.071,7.359-30.597,12.394c-14.52,5.034-22.267,8.131-30.4,9.099c-8.134,0.969-23.046,1.357-23.046,1.357
		c-0.58-0.776,0.195-2.324,0.195-2.324s-1.355-9.488-3.679-12.78c-2.324-3.291-2.539-5.667-2.539-5.667l-1.551,10.708
		c0,0,0.154,0.782,0.777,1.478c0.192,0.217,0.667,2.379,1.406,3.926c0.214,0.446,0.397,1.654,0.397,1.654l-0.428-7.643
		c0,0,0.387-1.164,1.742,0.581c1.354,1.744,3.678,15.876,3.678,15.876s0.196-1.695,0.247-3.27c0.569,0.051,2.038,0.172,2.661,0.172
		c0.774,0,15.298-1.355,19.362-2.128c4.068-0.775,12.199-2.711,14.91-3.099c2.71-0.388,14.33-4.84,17.041-6.003
		c2.711-1.162,30.402-11.425,31.757-11.425C523.378,320.158,522.99,317.641,522.798,316.092z"/>
	<path opacity="0.5" fill="#897F76" d="M168.226,533.832c0,0,13.952,6.604,20.236,7.903c6.284,1.301,19.501,3.251,19.501,3.251
		s-22.968,1.736-30.984-2.167c-8.016-3.899-8.969-5.44-8.969-5.44L168.226,533.832z"/>
	<path opacity="0.5" fill="#897F76" d="M174.812,536.753c0,0,12.133,5.42,54.816,6.066c42.684,0.65,130.648,1.084,151.449,0
		c20.8-1.084,45.282-3.467,45.282-3.467s-53.3,6.497-135.199,5.2C209.262,543.254,174.812,536.753,174.812,536.753z"/>
	<path opacity="0.25" fill="#897F76" d="M459.809,290.177c0,0,9.358-0.796,11.152-0.597c1.791,0.2,10.357,1.594,11.749,0.797
		c1.395-0.797,5.779-4.381,5.976-6.374c0.198-1.991,0.198-6.971,0.198-6.971s0.999,3.585,2.393,2.989
		c1.395-0.599,2.987-2.39,2.987-2.39s-1.196,4.78-1.593,5.776c-0.399,0.994-3.187,4.779-2.788,5.774
		c0.396,0.996,4.778,5.377,4.778,5.377s-3.983-1.792-6.572-1.792c-2.588,0-5.976,5.777-5.976,5.777l-1.194-3.785l-5.777,2.19
		c0,0-0.593-4.979-4.579-5.377C466.579,291.172,459.809,290.177,459.809,290.177z"/>
	
		<radialGradient id="SVGID_7_" cx="471.5352" cy="319.0737" r="54.9095" gradientTransform="matrix(0.9746 0 0 0.9746 7.6907 9.8804)" gradientUnits="userSpaceOnUse">
		<stop  offset="0" style="stop-color:#FFFFFF"/>
		<stop  offset="1" style="stop-color:#897F76"/>
	</radialGradient>
	<path opacity="0.5" fill="url(#SVGID_7_)" d="M508.081,301.567c0.58-1.547,1.356-3.097,1.356-3.097s-2.715,1.743-2.907,2.904
		c-0.192,1.164-1.163,6.199-1.549,7.746c-0.388,1.55-1.355,4.843-1.355,4.843c-0.484,1.619-4.386,3.5-5.579,3.5
		c-1.192,0-2.985,1.99-2.985,2.788c0,0.797-1.395,2.588-2.192,2.789c-0.797,0.2-4.184,2.39-4.184,2.39s-0.795-2.989-0.397-3.786
		s-2.79-1.394-3.784-1.394c-0.996,0-3.186,0.399-3.983,0.797c-0.798,0.398-2.787,1.791-2.787,1.791s0.197-4.381,2.787-4.778
		c2.588-0.398,7.37-0.997,8.165-1.394c0.799-0.399,2.989-3.385,2.989-3.385l-3.387-4.183c0,0-4.381,2.987-5.18,2.589
		c-0.795-0.399-3.982-4.98-3.982-4.98s0.997,6.173-0.198,7.169c-1.194,0.996-4.58,3.187-5.179,4.582
		c-0.599,1.394,0.399,8.167-1.195,10.357c-1.593,2.19-2.788,4.582-2.788,4.582s-6.969,0.198-8.364-0.797
		c-1.395-0.996-7.367-3.785-8.165-3.785s-3.389,2.389-6.771,1.395c-3.387-0.997-4.582,0-6.772-2.59
		c-2.19-2.589-4.381-4.58-4.381-4.58s8.762,10.754,9.161,11.75c0.397,0.996,4.977,0.996,6.373,0.996
		c1.395,0,13.542-1.195,13.542-1.195s7.37-0.995,9.162-1.792c1.792-0.797,11.951-5.378,13.742-5.777
		c1.794-0.397,9.36-3.782,10.355-4.183c0.997-0.397,4.184-0.794,5.578-1.194c1.393-0.396,3.387-2.391,3.387-3.386
		c0-0.997-1.994-2.588-1.994-3.386c0-0.415,1.249-1.579,2.009-4.423C507.155,308.975,507.534,303.031,508.081,301.567z"/>
	<path opacity="0.25" fill="#897F76" d="M444.672,300.534c0,0,5.774-7.369,6.571-8.763c0.798-1.394,3.188-11.153,3.188-11.153
		l-0.996,12.748c0,0,5.977-2.59,7.17-2.59s2.591,1.395,2.591,1.395s-8.367,3.586-10.159,5.178c-1.793,1.593-2.789,3.586-1.793,3.586
		c0.997,0,3.983,1.592,3.983,1.592s-5.376,3.785-7.369,2.191C445.865,303.124,444.672,300.534,444.672,300.534z"/>
	
		<path opacity="0.5" fill="none" stroke="#524A48" stroke-width="0.2443" stroke-linecap="round" stroke-linejoin="round" stroke-dasharray="1.629,1.629" d="
		M86.069,315.781c0,0,6.884,6.208,60.083,23.849c25.027,8.297,32.536,3.292,32.536,3.292"/>
	
		<path opacity="0.5" fill="none" stroke="#524A48" stroke-width="0.2443" stroke-linecap="round" stroke-linejoin="round" stroke-dasharray="1.629,1.629" d="
		M168.141,532.802c0,0,15.577,5.581,46.97,7.439c31.391,1.861,151.081,1.264,172.532,0.932c30.228-0.464,52.32-6.279,52.32-6.279"/>
	
		<radialGradient id="SVGID_8_" cx="470.2979" cy="248.7217" r="17.7864" gradientTransform="matrix(0.9746 0 0 0.9746 7.6907 9.8804)" gradientUnits="userSpaceOnUse">
		<stop  offset="0" style="stop-color:#FFFFFF"/>
		<stop  offset="1" style="stop-color:#897F76"/>
	</radialGradient>
	<path opacity="0.25" fill="url(#SVGID_8_)" d="M478.244,193.972c0,0-4.052,6.902-5.021,8.065c-0.967,1.161-6.775,8.52-6.775,8.52
		l-0.544,4.888c-0.806,2.282-4.596,13.125-5.46,17.962c-0.969,5.42-7.359,17.814-7.552,19.363c-0.195,1.55-2.324,3.292-2.324,4.453
		c0,1.162-3.292,4.261-4.259,5.423c-0.969,1.163-0.97,7.164-0.97,7.164l-9.488,11.232c0,0,0.969-6.777,0.969-7.747
		c0-0.968,5.228-23.043,6.003-28.658c0.773-5.617,4.064-29.434,5.422-29.24c1.355,0.194,1.162,18.783,1.162,18.783
		s1.741-18.008,0.968-20.721c-0.371-1.302-1.744-3.484-3.873-0.386c-3.273,4.759-12.394,74.551-12.394,74.551
		s0.062-0.075,0.168-0.206l-6.017,43.605l7.109-44.934c3.17-3.859,11.287-13.721,11.907-14.343c0.774-0.775,0.774-3.293,0.774-4.453
		c0-1.163,1.356-4.841,2.711-6.585c1.354-1.742,4.066-6.003,4.066-7.165s5.422-12.197,5.81-13.749
		c0.388-1.549,2.519-6.777,2.903-8.519c0.313-1.405,1.759-11.114,2.307-14.825c0.776-1.146,9.166-13.492,10.087-14.415
		c0.968-0.969,3.294-4.455,3.294-5.229L478.244,193.972z"/>
	
		<path opacity="0.5" fill="none" stroke="#524A48" stroke-width="0.2443" stroke-linecap="round" stroke-linejoin="round" stroke-dasharray="1.629,1.629" d="
		M521.456,313.964c0,0-1.346,3.061-2.007,3.618c-0.45,0.38-9.803,6.242-54.732,20.39c-8.002,2.518-33.533,2.356-33.533,2.356"/>
	<path opacity="0.25" fill="none" stroke="#322B29" stroke-width="1.6264" stroke-miterlimit="10" d="M183.94,310.659
		c0,0,11.423-44.064,2.463-85.609c-8.961-41.544-25.11-61.87-25.11-61.87"/>
	<path opacity="0.25" fill="none" stroke="#322B29" stroke-width="1.7967" stroke-miterlimit="10" d="M429.595,320.388
		c0,0-15.909-47.01-5.414-90.297s29.41-64.467,29.41-64.467"/>
	
		<radialGradient id="SVGID_9_" cx="240.9922" cy="128.8999" r="19.7597" gradientTransform="matrix(0.9746 0 0 0.9746 7.6907 9.8804)" gradientUnits="userSpaceOnUse">
		<stop  offset="0" style="stop-color:#FFFFFF"/>
		<stop  offset="1" style="stop-color:#897F76"/>
	</radialGradient>
	<path opacity="0.35" fill="url(#SVGID_9_)" d="M228.692,134.274c0,0,8.119-0.189,11.138,2.077
		c3.021,2.267,11.515,10.572,13.214,12.272c1.699,1.699,8.686,6.23,8.686,6.23s-13.029-14.16-15.86-16.803
		c-2.832-2.643-9.25-5.663-11.138-5.852c-1.888-0.189,3.587-1.7,4.719-2.455c1.132-0.754,4.342,3.965,4.342,3.965l1.133-3.965
		c0,0,2.266-2.831,3.965-3.02c1.699-0.189,4.531-2.833,5.664-3.588c1.132-0.755,3.782-6.976,3.782-6.976s-2.843,3.178-3.679,3.913
		c-0.305,0.271-1.715,1.528-2.273,1.74c-2.743,1.036-6.406,1.545-6.406,1.545s-1.996,0.533-2.941,1.288
		c-0.943,0.755-7.941,5.83-9.479,6.297c-1.895,0.576-4.982,2.208-5.686,2.71c-0.687,0.49-4.481,1.337-4.481,1.337L228.692,134.274z"
		/>
	<path opacity="0.35" fill="none" d="M238.131,140.127c0,0,8.497,4.154,10.95,7.174c2.454,3.021,7.363,8.118,9.062,9.062
		c1.7,0.944,6.041,1.322,6.041,1.322s-11.894-2.455-17.369-8.873C241.341,142.392,238.131,140.127,238.131,140.127z"/>
	
		<radialGradient id="SVGID_10_" cx="347.7832" cy="117.1553" r="7.5563" gradientTransform="matrix(0.9746 0 0 0.9746 7.6907 9.8804)" gradientUnits="userSpaceOnUse">
		<stop  offset="0" style="stop-color:#FFFFFF"/>
		<stop  offset="1" style="stop-color:#897F76"/>
	</radialGradient>
	<path opacity="0.35" fill="url(#SVGID_10_)" d="M337.437,119.359c0,0,11.548,2.139,13.488,4.083
		c1.942,1.941,2.986,5.489,2.986,5.489s0.504-1.535,0.93-3.412c0.235-1.031,0.366-2.187,0.568-3.194
		c0.328-1.655,0.614-2.962,0.303-3.136L337.437,119.359z"/>
	<path opacity="0.35" fill="none" d="M239.153,138.659c0,0,8.06,3.94,10.388,6.805c2.327,2.866,6.985,7.701,8.596,8.596
		c1.612,0.896,5.73,1.254,5.73,1.254s-11.282-2.329-16.476-8.417C242.198,140.807,239.153,138.659,239.153,138.659z"/>
	
		<radialGradient id="SVGID_11_" cx="305.4233" cy="75.0391" r="106.4926" gradientTransform="matrix(0.9746 0 0 0.9746 7.6907 9.8804)" gradientUnits="userSpaceOnUse">
		<stop  offset="0" style="stop-color:#FFFFFF"/>
		<stop  offset="0.0881" style="stop-color:#F8F8F8"/>
		<stop  offset="0.2164" style="stop-color:#E5E5E5"/>
		<stop  offset="0.3692" style="stop-color:#C5C5C5"/>
		<stop  offset="0.5411" style="stop-color:#989898"/>
		<stop  offset="0.7287" style="stop-color:#5F5F5F"/>
		<stop  offset="0.9266" style="stop-color:#1B1B1B"/>
		<stop  offset="1" style="stop-color:#000000"/>
	</radialGradient>
	<path opacity="0.35" fill="url(#SVGID_11_)" d="M263.903,131.251c0,0-3.368-1.888,2.65,3.288
		c9.226,7.935,33.472,32.357,36.891,32.207c4.132-0.182,40.413-27.828,42.563-31.769c2.149-3.938,1.987-3.222,1.987-3.222
		s-3.301-0.23-4.671,0c-6.461,1.086-11.859,1.244-38.89,0.253C284.387,131.274,263.903,131.251,263.903,131.251z"/>
	<path opacity="0.35" fill="#897F76" d="M366.665,126.301c0,0-1.395,19.888-21.491,34.026
		c-14.816,10.425-33.295,25.618-44.632,21.467c-12.715-4.656-36.674-26.481-36.674-26.481s24.043,24.197,36.674,27.806
		c10.822,3.091,31.17-9.537,45.347-21.358C369.006,142.484,366.665,126.301,366.665,126.301z"/>
	<linearGradient id="SVGID_12_" gradientUnits="userSpaceOnUse" x1="264.2637" y1="114.4746" x2="336.1364" y2="130.5315">
		<stop  offset="0" style="stop-color:#FFFFFF"/>
		<stop  offset="1" style="stop-color:#897F76"/>
	</linearGradient>
	<path opacity="0.35" fill="url(#SVGID_12_)" d="M262.51,129.592c0,0-2.304-3.453-2.879-6.903c-0.574-3.449-0.24-6.237-0.24-6.237
		s29.68,2.251,44.949,2.328c15.27,0.076,46.864-0.391,46.864-0.391s-0.635,2.369-1.016,4.688c-0.575,3.502-1.839,6.727-1.839,6.727
		s-5.883,0.858-12.103,1.548"/>
	
		<path opacity="0.35" fill="none" stroke="#524A48" stroke-width="0.226" stroke-linecap="round" stroke-linejoin="round" stroke-dasharray="1.5065,1.5065" d="
		M244.917,123.6c0,0,5.531,18.375,20.516,29.916c18.454,14.213,34.043,16.964,51.007,15.588
		c16.962-1.375,35.531-13.181,42.179-22.694c6.648-9.514,6.42-16.047,6.648-17.422c0.229-1.375,0.276-5.363,0.276-5.363"/>
	
		<radialGradient id="SVGID_13_" cx="343.1094" cy="116.4961" r="7.168" gradientTransform="matrix(0.9746 0 0 0.9746 7.6907 9.8804)" gradientUnits="userSpaceOnUse">
		<stop  offset="0" style="stop-color:#FFFFFF"/>
		<stop  offset="1" style="stop-color:#897F76"/>
	</radialGradient>
	<path opacity="0.35" fill="url(#SVGID_13_)" d="M333.354,118.958c0,0,10.954,2.029,12.796,3.873
		c1.842,1.842,2.833,5.208,2.833,5.208s0.477-1.457,0.882-3.237c0.223-0.979,0.347-2.075,0.538-3.03
		c0.312-1.57,0.583-2.809,0.287-2.975L333.354,118.958z"/>
	<g opacity="0.35">
		
			<image overflow="visible" width="127" height="19" xlink:href="FAB65FCB.png"  transform="matrix(0.7613 0 0 0.7613 256.7388 120.8574)">
		</image>
		<g>
			<path fill="#3F3836" d="M259.736,123.674c0,0,32.64,2.516,46.897,2.349c14.259-0.168,43.11-0.503,43.11-0.503
				s-1.17,4.337-2.009,6.35c0,0-24.739,0.644-44.185,0.517c-19.445-0.126-40.405-1.389-40.405-1.389s-0.132-0.063-1.297-1.956
				C260.683,127.15,259.736,123.674,259.736,123.674z"/>
			<path fill="none" stroke="#897F76" stroke-width="0.1504" stroke-dasharray="1.5042,0.376" d="M259.736,123.674
				c0,0,32.64,2.516,46.897,2.349c14.259-0.168,43.11-0.503,43.11-0.503s-1.17,4.337-2.009,6.35c0,0-24.739,0.644-44.185,0.517
				c-19.445-0.126-40.405-1.389-40.405-1.389s-0.132-0.063-1.297-1.956C260.683,127.15,259.736,123.674,259.736,123.674z"/>
		</g>
	</g>
	<g opacity="0.35">
		<g>
			
				<rect x="290.75" y="138.445" fill="none" stroke="#897F76" stroke-width="0.2179" stroke-miterlimit="10" width="29.085" height="12.549"/>
			
				<rect x="303.281" y="133.753" fill="none" stroke="#897F76" stroke-width="0.2179" stroke-miterlimit="10" width="4.025" height="4.025"/>
			<text transform="matrix(1 0 0 1 304.1597 136.8535)" fill="#897F76" font-family="'ArialNarrow'" font-size="3.3183">M</text>
			<text transform="matrix(1 0 0 1 297.9644 141.9189)"><tspan x="0" y="0" fill="#897F76" font-family="'ArialNarrow'" font-size="2.7653">95% Polyester</tspan><tspan x="0.881" y="3.318" fill="#897F76" font-family="'ArialNarrow'" font-size="2.7653">5% Spandex</tspan></text>
			
				<line fill="none" stroke="#897F76" stroke-width="0.3632" stroke-miterlimit="10" x1="299.364" y1="152.191" x2="311.223" y2="152.191"/>
		</g>
		
			<line fill="none" stroke="#897F76" stroke-width="0.3632" stroke-miterlimit="10" x1="299.364" y1="153.298" x2="311.223" y2="153.298"/>
		<g>
			<g>
				<path fill="#897F76" d="M297.117,150.087c-0.653,0-1.288-0.001-1.923,0.001c-0.088,0-0.094-0.052-0.107-0.115
					c-0.158-0.745-0.317-1.49-0.477-2.234c-0.03-0.141-0.06-0.281-0.093-0.431c0.08-0.018,0.143-0.031,0.217-0.048
					c0.015,0.062,0.023,0.117,0.041,0.169c0.019,0.052,0.045,0.14,0.075,0.143c0.072,0.006,0.171-0.004,0.219-0.05
					c0.118-0.113,0.214-0.249,0.318-0.375c0.012-0.015,0.019-0.034,0.037-0.068c0.198,0.255,0.396,0.463,0.715,0.49
					c0.331,0.027,0.533-0.163,0.701-0.426c0.176,0.199,0.327,0.408,0.603,0.462c0.029-0.117,0.057-0.225,0.086-0.344
					c0.069,0.016,0.132,0.03,0.214,0.049C297.536,148.236,297.327,149.155,297.117,150.087z M297.397,147.841
					c-0.099-0.046-0.197-0.08-0.284-0.133c-0.091-0.056-0.172-0.129-0.257-0.195c-0.373,0.383-0.983,0.373-1.418-0.056
					c-0.156,0.172-0.286,0.389-0.573,0.345c0.003,0.044,0.002,0.072,0.007,0.099c0.131,0.621,0.265,1.241,0.394,1.862
					c0.018,0.085,0.059,0.101,0.136,0.101c0.409-0.003,0.818-0.002,1.228-0.002c0.306,0,0.306,0,0.374-0.288
					c0.007-0.032,0.016-0.064,0.022-0.096C297.149,148.933,297.272,148.389,297.397,147.841z"/>
			</g>
			<g>
				<g>
					<path fill="#897F76" d="M295.35,148.782c0.025,0.016,0.067,0.036,0.126,0.036c0.112,0,0.163-0.077,0.163-0.144
						c0-0.082-0.063-0.117-0.14-0.117h-0.033l0.013-0.065h0.034c0.061,0,0.162-0.04,0.162-0.126c0-0.051-0.03-0.082-0.093-0.082
						c-0.049,0-0.095,0.015-0.124,0.036l-0.019-0.063c0.042-0.025,0.099-0.044,0.157-0.044c0.109,0,0.167,0.065,0.167,0.141
						c0,0.086-0.069,0.148-0.145,0.169v0.002c0.071,0.017,0.11,0.08,0.11,0.148c0,0.125-0.113,0.216-0.255,0.216
						c-0.071,0-0.129-0.021-0.151-0.041L295.35,148.782z"/>
					<path fill="#897F76" d="M296.293,148.418c0,0.213-0.102,0.471-0.285,0.471c-0.121,0-0.164-0.099-0.164-0.224
						c0-0.218,0.114-0.452,0.286-0.452C296.256,148.213,296.293,148.317,296.293,148.418z M295.928,148.669
						c0,0.069,0.013,0.153,0.091,0.153c0.123,0,0.19-0.268,0.19-0.399c0-0.051-0.008-0.143-0.087-0.143
						C296.008,148.28,295.928,148.509,295.928,148.669z"/>
					<path fill="#897F76" d="M296.844,148.859c-0.025,0.012-0.076,0.029-0.141,0.029c-0.126,0-0.187-0.085-0.187-0.188
						c0-0.167,0.123-0.32,0.298-0.32c0.045,0,0.086,0.014,0.102,0.021l-0.024,0.066c-0.019-0.009-0.046-0.018-0.083-0.018
						c-0.126,0-0.207,0.125-0.207,0.239c0,0.079,0.041,0.13,0.121,0.13c0.049,0,0.088-0.015,0.113-0.027L296.844,148.859z"/>
				</g>
				<circle fill="none" stroke="#897F76" stroke-width="0.0552" stroke-miterlimit="10" cx="296.452" cy="148.281" r="0.081"/>
			</g>
			<path fill="#897F76" d="M311.58,148.589c0,0.816-0.653,1.47-1.47,1.47c-0.819,0-1.493-0.671-1.485-1.478
				c0.01-0.808,0.674-1.47,1.479-1.476C310.917,147.101,311.581,147.768,311.58,148.589z M311.358,148.586
				c0-0.688-0.558-1.252-1.243-1.257c-0.683-0.004-1.265,0.573-1.267,1.255c-0.001,0.686,0.571,1.254,1.265,1.253
				C310.802,149.837,311.358,149.277,311.358,148.586z"/>
			<g>
				
					<line fill="none" stroke="#897F76" stroke-width="0.1821" stroke-miterlimit="10" x1="308.678" y1="147.158" x2="311.528" y2="150.008"/>
				
					<line fill="none" stroke="#897F76" stroke-width="0.1821" stroke-miterlimit="10" x1="311.528" y1="147.158" x2="308.678" y2="150.008"/>
			</g>
			<g>
				<path fill="#897F76" d="M300.549,146.985c0.594,1.007,1.173,1.993,1.764,2.997c-1.182,0-2.343,0-3.527,0
					C299.374,148.982,299.954,147.997,300.549,146.985z M299.172,149.764c0.926,0,1.826,0,2.754,0
					c-0.462-0.785-0.915-1.553-1.377-2.337C300.084,148.218,299.634,148.981,299.172,149.764z"/>
				<g>
					
						<line fill="none" stroke="#897F76" stroke-width="0.1821" stroke-miterlimit="10" x1="299.125" y1="147.33" x2="301.975" y2="150.18"/>
					
						<line fill="none" stroke="#897F76" stroke-width="0.1821" stroke-miterlimit="10" x1="301.975" y1="147.33" x2="299.125" y2="150.18"/>
				</g>
			</g>
			<g>
				<path fill="#897F76" d="M306.8,147.976c-0.023-0.241-0.046-0.464-0.07-0.708c-0.063,0-0.117,0-0.171,0c-0.598,0-1.196,0-1.793,0
					c-0.204,0-0.204,0-0.172-0.213c0.772,0,1.546,0,2.334,0c0.1,0.897,0.199,1.792,0.3,2.698c-1.213,0-2.414,0-3.647,0
					c0.094-0.263,0.176-0.516,0.275-0.761c0.065-0.161,0.15-0.314,0.235-0.466c0.158-0.284,0.4-0.445,0.727-0.463
					c0.596-0.031,1.192-0.059,1.788-0.087C306.665,147.973,306.725,147.976,306.8,147.976z M306.981,149.537
					c-0.048-0.433-0.093-0.849-0.146-1.263c-0.004-0.031-0.077-0.075-0.117-0.075c-0.508,0.009-1.016,0.009-1.521,0.043
					c-0.709,0.047-0.85,0.154-1.1,0.75c-0.073,0.175-0.137,0.353-0.211,0.545C304.934,149.537,305.947,149.537,306.981,149.537z"/>
				<g>
					
						<line fill="none" stroke="#897F76" stroke-width="0.1821" stroke-miterlimit="10" x1="303.979" y1="147.26" x2="306.829" y2="150.111"/>
					
						<line fill="none" stroke="#897F76" stroke-width="0.1821" stroke-miterlimit="10" x1="306.829" y1="147.26" x2="303.979" y2="150.111"/>
				</g>
			</g>
			<g>
				<path fill="#897F76" d="M316.068,150.015c-0.958,0-1.906,0-2.863,0c0-0.958,0-1.906,0-2.865c0.954,0,1.902,0,2.863,0
					C316.068,148.099,316.068,149.052,316.068,150.015z M313.427,149.788c0.816,0,1.623,0,2.428,0c0-0.814,0-1.614,0-2.421
					c-0.815,0-1.618,0-2.428,0C313.427,148.176,313.427,148.979,313.427,149.788z"/>
				<path fill="#897F76" d="M313.625,148.591c-0.002-0.563,0.445-1.018,1.005-1.021c0.555-0.002,1.012,0.451,1.019,1.01
					c0.008,0.558-0.444,1.012-1.009,1.014C314.069,149.598,313.628,149.16,313.625,148.591z M314.628,149.378
					c0.425,0.003,0.795-0.356,0.803-0.782c0.009-0.424-0.353-0.792-0.782-0.798c-0.444-0.006-0.804,0.344-0.807,0.786
					C313.839,149.011,314.198,149.375,314.628,149.378z"/>
				<g>
					
						<line fill="none" stroke="#897F76" stroke-width="0.1821" stroke-miterlimit="10" x1="313.211" y1="147.158" x2="316.063" y2="150.008"/>
					
						<line fill="none" stroke="#897F76" stroke-width="0.1821" stroke-miterlimit="10" x1="316.063" y1="147.158" x2="313.211" y2="150.008"/>
				</g>
			</g>
		</g>
	</g>
	<g>
		<polygon fill="#897F76" points="322.423,148.56 322.423,148.473 291.85,148.473 291.85,135.418 322.336,135.418 322.336,148.56 
			322.423,148.56 322.423,148.473 322.423,148.56 322.511,148.56 322.511,135.244 291.675,135.244 291.675,148.647 322.511,148.647 
			322.511,148.56 		"/>
		<polygon fill="#897F76" points="309.214,134.627 309.214,134.539 305.059,134.539 305.059,130.472 309.127,130.472 
			309.127,134.627 309.214,134.627 309.214,134.539 309.214,134.627 309.302,134.627 309.302,130.296 304.884,130.296 
			304.884,134.714 309.302,134.714 309.302,134.627 		"/>
		<text transform="matrix(1 0 0 1 305.8975 133.6533)" fill="#897F76" font-family="'ArialNarrow'" font-size="3.4981">M</text>
		<text transform="matrix(1 0 0 1 299.1128 138.9912)"><tspan x="0" y="0" fill="#897F76" font-family="'ArialNarrow'" font-size="2.9151">9</tspan><tspan x="1.42" y="0" fill="#897F76" font-family="'ArialNarrow'" font-size="2.9151">5</tspan><tspan x="2.775" y="0" fill="#897F76" font-family="'ArialNarrow'" font-size="2.9151">% </tspan><tspan x="5.565" y="0" fill="#897F76" font-family="'ArialNarrow'" font-size="2.9151">P</tspan><tspan x="7.191" y="0" fill="#897F76" font-family="'ArialNarrow'" font-size="2.9151">o</tspan><tspan x="8.585" y="0" fill="#897F76" font-family="'ArialNarrow'" font-size="2.9151">l</tspan><tspan x="9.166" y="0" fill="#897F76" font-family="'ArialNarrow'" font-size="2.9151">y</tspan><tspan x="10.39" y="0" fill="#897F76" font-family="'ArialNarrow'" font-size="2.9151">e</tspan><tspan x="11.782" y="0" fill="#897F76" font-family="'ArialNarrow'" font-size="2.9151">st</tspan><tspan x="13.729" y="0" fill="#897F76" font-family="'ArialNarrow'" font-size="2.9151">e</tspan><tspan x="15.114" y="0" fill="#897F76" font-family="'ArialNarrow'" font-size="2.9151">r</tspan></text>
		<text transform="matrix(1 0 0 1 300.1333 142.4902)"><tspan x="0" y="0" fill="#897F76" font-family="'ArialNarrow'" font-size="2.9151">5</tspan><tspan x="1.355" y="0" fill="#897F76" font-family="'ArialNarrow'" font-size="2.9151">% </tspan><tspan x="4.146" y="0" fill="#897F76" font-family="'ArialNarrow'" font-size="2.9151">S</tspan><tspan x="5.801" y="0" fill="#897F76" font-family="'ArialNarrow'" font-size="2.9151">pa</tspan><tspan x="8.565" y="0" fill="#897F76" font-family="'ArialNarrow'" font-size="2.9151">nd</tspan><tspan x="11.346" y="0" fill="#897F76" font-family="'ArialNarrow'" font-size="2.9151">e</tspan><tspan x="12.684" y="0" fill="#897F76" font-family="'ArialNarrow'" font-size="2.9151">x</tspan></text>
		<polyline fill="#897F76" points="300.843,149.967 313.343,149.967 313.343,149.676 300.843,149.676 		"/>
		<polyline fill="#897F76" points="300.843,151.134 313.343,151.134 313.343,150.843 300.843,150.843 		"/>
		<path fill="#897F76" d="M298.473,147.603c-0.687,0-1.356-0.002-2.025,0.001c-0.093,0.001-0.1-0.055-0.114-0.121
			c-0.167-0.785-0.334-1.57-0.502-2.354c-0.032-0.148-0.063-0.297-0.097-0.455c0.083-0.019,0.149-0.034,0.229-0.051l0.043,0.178
			l0.078,0.151c0.077,0.006,0.181-0.004,0.231-0.053c0.125-0.119,0.226-0.262,0.335-0.396l0.039-0.072
			c0.209,0.269,0.418,0.488,0.755,0.517c0.349,0.028,0.562-0.171,0.738-0.448c0.186,0.208,0.345,0.43,0.636,0.487
			c0.031-0.124,0.06-0.238,0.091-0.363c0.073,0.017,0.139,0.031,0.227,0.052C298.915,145.652,298.695,146.621,298.473,147.603z
			 M298.769,145.236c-0.104-0.047-0.208-0.084-0.3-0.14c-0.096-0.06-0.181-0.137-0.271-0.206c-0.393,0.403-1.037,0.393-1.495-0.059
			c-0.164,0.182-0.301,0.41-0.604,0.364l0.008,0.105c0.139,0.654,0.279,1.308,0.415,1.962c0.019,0.089,0.063,0.106,0.143,0.106
			c0.432-0.003,0.863-0.001,1.295-0.001c0.323,0,0.323,0,0.395-0.305l0.023-0.102C298.508,146.387,298.638,145.813,298.769,145.236z
			"/>
		<path fill="#897F76" d="M296.61,146.227l0.133,0.039c0.118,0,0.172-0.081,0.172-0.152c0-0.086-0.067-0.122-0.148-0.122h-0.035
			l0.014-0.069h0.035c0.064,0,0.17-0.042,0.17-0.134l-0.097-0.086l-0.131,0.039l-0.019-0.067l0.165-0.047
			c0.116,0,0.176,0.069,0.176,0.149c0,0.09-0.073,0.156-0.152,0.178v0.002c0.075,0.018,0.116,0.083,0.116,0.156
			c0,0.13-0.12,0.228-0.269,0.228c-0.074,0-0.136-0.022-0.16-0.043L296.61,146.227z"/>
		<path fill="#897F76" d="M297.605,145.844c0,0.225-0.107,0.497-0.3,0.497c-0.127,0-0.173-0.105-0.173-0.236
			c0-0.229,0.12-0.478,0.302-0.478C297.565,145.627,297.605,145.738,297.605,145.844z M297.22,146.108
			c0,0.073,0.014,0.162,0.097,0.162c0.129,0,0.2-0.282,0.2-0.42c0-0.055-0.009-0.151-0.093-0.151
			C297.304,145.698,297.22,145.94,297.22,146.108z"/>
		<path fill="#897F76" d="M298.187,146.309c-0.027,0.013-0.08,0.031-0.149,0.031c-0.133,0-0.198-0.089-0.198-0.199
			c0-0.175,0.129-0.337,0.314-0.337l0.107,0.022l-0.025,0.07l-0.087-0.019c-0.134,0-0.218,0.131-0.218,0.252
			c0,0.083,0.043,0.138,0.127,0.138l0.119-0.029L298.187,146.309z"/>
		<polygon fill="#897F76" points="297.857,145.7 297.842,145.684 297.772,145.754 297.718,145.7 297.772,145.646 297.842,145.715 
			297.857,145.7 297.842,145.684 297.857,145.7 297.873,145.684 297.788,145.599 297.772,145.583 297.671,145.684 297.655,145.7 
			297.756,145.801 297.772,145.816 297.873,145.715 297.889,145.7 297.873,145.684 		"/>
		<path fill="#897F76" d="M313.72,146.024c0,0.861-0.688,1.55-1.549,1.55c-0.863,0-1.574-0.707-1.564-1.558
			c0.009-0.852,0.709-1.55,1.558-1.556C313.021,144.455,313.721,145.159,313.72,146.024z M313.486,146.021
			c0-0.726-0.588-1.321-1.311-1.325c-0.719-0.005-1.333,0.604-1.334,1.323c-0.002,0.723,0.602,1.322,1.332,1.321
			C312.899,147.34,313.486,146.75,313.486,146.021z"/>
		<polyline fill="#897F76" points="310.609,144.566 313.614,147.571 313.717,147.468 310.712,144.463 		"/>
		<polyline fill="#897F76" points="313.614,144.463 310.609,147.468 310.712,147.571 313.717,144.566 		"/>
		<path fill="#897F76" d="M302.092,144.333c0.625,1.062,1.236,2.101,1.859,3.159c-1.246,0-2.469,0-3.719,0
			C300.853,146.438,301.464,145.399,302.092,144.333z M300.64,147.263c0.977,0,1.925,0,2.903,0
			c-0.488-0.828-0.964-1.637-1.452-2.464C301.601,145.632,301.127,146.438,300.64,147.263z"/>
		<polyline fill="#897F76" points="300.538,144.748 303.543,147.753 303.646,147.649 300.641,144.645 		"/>
		<polyline fill="#897F76" points="303.543,144.645 300.538,147.649 300.641,147.753 303.646,144.748 		"/>
		<path fill="#897F76" d="M308.682,145.378c-0.025-0.254-0.049-0.49-0.074-0.747h-0.181c-0.631,0-1.261,0-1.89,0
			c-0.216,0-0.216,0-0.183-0.224c0.814,0,1.631,0,2.461,0c0.105,0.946,0.211,1.889,0.317,2.844c-1.279,0-2.546,0-3.846,0
			c0.1-0.277,0.186-0.544,0.29-0.802c0.068-0.17,0.158-0.331,0.248-0.491c0.167-0.299,0.421-0.469,0.766-0.487
			c0.628-0.034,1.257-0.063,1.886-0.092C308.539,145.375,308.603,145.378,308.682,145.378z M308.872,147.024
			c-0.051-0.457-0.097-0.895-0.152-1.332l-0.124-0.08c-0.535,0.01-1.071,0.01-1.604,0.046c-0.748,0.05-0.896,0.163-1.159,0.791
			c-0.077,0.184-0.145,0.372-0.223,0.575C306.713,147.024,307.782,147.024,308.872,147.024z"/>
		<polyline fill="#897F76" points="305.656,144.675 308.66,147.68 308.764,147.577 305.759,144.571 		"/>
		<polyline fill="#897F76" points="308.66,144.571 305.656,147.577 305.759,147.68 308.764,144.675 		"/>
		<path fill="#897F76" d="M318.452,147.527c-1.01,0-2.01,0-3.019,0c0-1.009,0-2.009,0-3.02c1.006,0,2.005,0,3.019,0
			C318.452,145.508,318.452,146.512,318.452,147.527z M315.666,147.289c0.862,0,1.711,0,2.56,0c0-0.858,0-1.703,0-2.553
			c-0.858,0-1.705,0-2.56,0C315.666,145.589,315.666,146.434,315.666,147.289z"/>
		<path fill="#897F76" d="M315.876,146.026c-0.001-0.594,0.469-1.073,1.059-1.076c0.585-0.003,1.067,0.476,1.074,1.065
			c0.008,0.588-0.468,1.066-1.063,1.069C316.344,147.087,315.879,146.626,315.876,146.026z M316.933,146.856
			c0.449,0.003,0.839-0.376,0.847-0.824c0.009-0.448-0.371-0.835-0.825-0.841c-0.468-0.007-0.846,0.361-0.85,0.827
			C316.101,146.469,316.48,146.852,316.933,146.856z"/>
		<polyline fill="#897F76" points="315.389,144.566 318.394,147.571 318.497,147.468 315.491,144.463 		"/>
		<polyline fill="#897F76" points="318.394,144.463 315.389,147.468 315.491,147.571 318.497,144.566 		"/>
	</g>
</g>
  <g id="CUSTOM">
</g>
</svg>
