<?xml version="1.0" encoding="utf-8"?>
<!-- Generator: Adobe Illustrator 19.1.0, SVG Export Plug-In . SVG Version: 6.00 Build 0)  -->
<!DOCTYPE svg PUBLIC "-//W3C//DTD SVG 1.1//EN" "http://www.w3.org/Graphics/SVG/1.1/DTD/svg11.dtd">
<svg version="1.1" xmlns="http://www.w3.org/2000/svg" xmlns:xlink="http://www.w3.org/1999/xlink" x="0px" y="0px"
	 viewBox="0 0 612 908" enable-background="new 0 0 612 908" xml:space="preserve">
<g id="BODY">
	<path fill="#FFFFFF" stroke="#897F76" stroke-width="0.25" d="M481.5,359.9c0,0-1.2-18.2-1.7-20.1c-0.5-1.9-4.3-12.5-6-15.3
		c-1.7-2.9-9.4-22.1-13-30.9c-3.6-8.9-18-30.2-32.1-48.2c-14.1-18-34.3-32.1-48.4-37.2c-10.6-3.8-26.9-3.8-34.4-3.6
		c7.9-7-13.6,17-44.9,17c-33.8-0.1-60.1-31.1-49.2-21.3c1.6,1.5,3.3,2.9,5,4.2c-8.3,1.4-41.4,8-63.4,27.5
		c-32.1,28.5-54.9,80.2-54.9,80.2s-3.6,39.3-0.5,70c0.4,0.4,0.7,1.1,0.8,2c0.5,2.6,0,35.7,0.5,38.1c0.5,2.4,12.2,53,12.9,57.6
		c0.7,4.6,4.6,45.1,5.3,56.4c0.7,11.3,0.2,23.7-0.2,31.2c-0.5,7.4-3.6,39.8-3.6,44.1c0,4.3,0,23,0.2,24c0.2,1,0.5,2.4,0.5,2.4
		s-0.5,7.9-0.5,8.9c0,1,7.9,6.7,9.8,7.4c1.9,0.7,9.4,1.9,17,6.5c7.7,4.6,14.1,7.9,20.6,9.6c6.5,1.7,41.5,8.2,50.6,8.9
		c9.1,0.7,75.1,0.2,91.6-0.7c16.5-1,64.7-5,76.5-6.7c11.8-1.7,27.6-6,37.6-11.5c10.1-5.5,16.3-11.7,16.3-11.7s-0.7-9.4-0.7-10.8
		c0-1.4-1.9-26.9-2.4-28.5c-0.5-1.7-1.2-6-0.5-8.9c0.7-2.9,0.7-31.9,1.2-33.1c0.5-1.2,3.8-24.7,3.4-30c-0.5-5.3-4.6-53.2-4.6-61.1
		c0-7.9,0.2-42.2,0.2-44.6c0-2.4,2.9-18.2,3.1-19.7c0.2-1.4,2.9-13.9,3.6-17.3c0.7-3.4,1-5,1-5s0.3,0.2,0.7,0.4l3.2-18.7
		L481.5,359.9z"/>
	<g id="SLEEVE">
		<path fill="#FFFFFF" stroke="#897F76" stroke-width="0.25" d="M138.5,312.2c0,0,22.8-51.7,54.9-80.2c22-19.5,55.1-26.1,63.4-27.5
			c-1.7-1.4-3.4-2.8-5-4.2c-10.9-9.8-14.4-29-15.5-37.5c-0.8,0.4-1.7,0.8-2.5,1c-3.8,1.2-58.7,11.5-89.4,22.5
			c-2.6,0.9-26.1,21.1-32.6,28.3c-6.5,7.2-35.2,35.7-46.3,51.3c-11,15.6-31.2,39.6-31.2,39.6s-2.4,1.4-3.4,2.2
			c-1,0.7-2.2,3.1-2.2,3.1l-5.5,4.8c0,0,15.1,13.4,27.3,25.2c12.2,11.7,30,32.4,30.2,36.4c0.2,4.1,3.1,23.3,5.8,23.5
			c2.6,0.2,18.5-4.1,22.5-9.8c4.1-5.8,6.2-9.6,9.1-8.6c2.9,1,7.4,5,10.1,5c2.6,0,5.3-1.7,5.8-2.6c0.5-1,1.2-3.8,1.9-3.6
			c0.5,0.2,1.3,0.3,2,1.2C135,351.4,138.5,312.2,138.5,312.2z"/>
		<path fill="#FFFFFF" stroke="#897F76" stroke-width="0.25" d="M569.3,300.4c-5.5-6.2-76.5-82.3-76.5-82.3s-21.3-22.3-21.8-23.7
			c-0.5-1.4-7.2-7.9-8.9-8.2c-1.7-0.2-8.9-3.8-13.9-6.2c-5-2.4-17.3-7.4-19.4-7.9c-2.2-0.5-10.5-1.4-16.3-3.6
			c-5.8-2.2-9.4-6.5-9.4-6.5s-10.5,1.4-15.3,1.4c-4.7,0-16.2-2.6-19.1-3.8c-1.3,4.4-3.4,11.4-5.4,18.4c-3,10.5-9.5,19.4-17.4,26.4
			c7.5-0.2,23.8-0.2,34.4,3.6c14.1,5,34.3,19.2,48.4,37.2c14.1,18,28.5,39.3,32.1,48.2c3.6,8.9,11.3,28.1,13,30.9
			c1.7,2.9,5.5,13.4,6,15.3c0.5,1.9,1.7,20.1,1.7,20.1l0.8,11.3l-3.2,18.7c2.4,1.4,10.1,5.7,12.9,6.3c3.4,0.7,8.9,2.9,8.9,2.9
			s10.8-12,18.2-19.7c7.4-7.7,30.5-26.4,38.8-33.3c8.4-7,28.5-24.7,28.5-24.7S574.8,306.7,569.3,300.4z"/>
	</g>
	<g id="COLLAR">
		<path fill="#FFFFFF" stroke="#897F76" stroke-width="0.25" d="M368.8,159.2c-2.6-1.2-4.1-2.9-5-3.6c-1-0.7-7.4-2.6-7.4-2.6
			s-36.2,3.8-53.7,3.6c-17.5-0.2-17.5-0.2-53-1.9l-6.7,3.8c0,0-3,2.1-6.1,3.6c0.8,7.4,3.8,27.4,15.2,37.6
			c14.1,12.7,32.4,21.8,53.5,21.3c21.1-0.5,50.4-16.8,58-43.4C365.5,170.7,367.5,163.7,368.8,159.2
			C368.8,159.2,368.8,159.2,368.8,159.2z"/>
	</g>
</g>
<g id="CUSTOM">
</g>
<g id="STITCHING">
	<g>
		<path fill="none" stroke="#636466" stroke-width="0.7695" stroke-linejoin="round" stroke-dasharray="1.0791,0.3597" d="
			M138.6,302.8c0,0,21-47.5,52.3-75.1c24.7-21.8,62-27,62-27l3.9,3.3c0,0-38.1,5.4-63.4,27.8c-32.1,28.5-54.9,80.2-54.9,80.2
			L138.6,302.8z"/>
		<path fill="none" stroke="#636466" stroke-width="0.7695" stroke-linejoin="round" stroke-dasharray="1.0791,0.3597" d="
			M351.1,200.2c0,0,17.7-1.9,31.9,3.1c14.1,5,34.3,19.2,48.4,37.2c14.1,18,28.5,39.3,32.1,48.2c3.6,8.9,11.3,28.1,12.9,30.9
			c1.7,2.9,5.6,13.4,6,15.3c1,5.1-0.1,36.2-0.1,36.2l-0.8-11.3c0,0-1.2-18.2-1.7-20.1c-0.5-1.9-4.3-12.5-6-15.3
			c-1.7-2.9-9.4-22.1-13-30.9c-3.6-8.9-18-30.2-32.1-48.2c-14.1-18-34.3-32.1-48.4-37.2s-34.5-3-34.5-3"/>
		<path fill="none" stroke="#636466" stroke-width="0.7695" stroke-linejoin="round" stroke-dasharray="1.0791,0.3597" d="
			M236.4,162.7c0,0,1.3,24.8,15.4,37.5c14.2,12.7,32.4,21.8,53.5,21.3c21.1-0.5,50.4-16.8,58-43.4c2.5-8.7,4.1-14.4,5.2-18.2"/>
		<path fill="none" stroke="#636466" stroke-width="0.7695" stroke-linejoin="round" stroke-dasharray="1.0791,0.3597" d="
			M495.3,395.6c0,0,8.6-10.8,14-16.5c5.4-5.8,22.3-23.7,27.7-27c5.4-3.2,15.5-12.2,21.2-16.9c5.8-4.7,14-12.2,16.5-14.4
			c2.5-2.2,6.5-6.8,6.5-6.8"/>
		<path fill="none" stroke="#636466" stroke-width="0.7695" stroke-linejoin="round" stroke-dasharray="1.0791,0.3597" d="
			M489.2,393.1c0,0,9-10.9,14.6-16.8c5.6-5.8,23.1-24.1,28.7-27.3c5.6-3.3,16-12.4,22-17.1c6-4.7,14.6-12.4,17.2-14.6
			c2.6-2.2,6.7-6.9,6.7-6.9"/>
		<path fill="none" stroke="#636466" stroke-width="0.7695" stroke-linejoin="round" stroke-dasharray="1.0791,0.3597" d="
			M34.3,305.5c0,0,25.4,22.5,34.1,32.6c8.6,10.1,19.1,21.6,19.8,23.7c0.7,2.2,2.2,9.4,2.9,14c0.7,4.7,1.8,7.6,4.3,12.9
			c2.5,5.4,4.3,7.2,4.3,7.2"/>
		<path fill="none" stroke="#636466" stroke-width="0.7695" stroke-linejoin="round" stroke-dasharray="1.0791,0.3597" d="
			M30.1,308.5c0,0,26,22.7,34.6,32.8c8.6,10.1,19.1,21.6,19.8,23.7c0.7,2.2,2.2,9.4,2.9,14c0.7,4.7,1.8,7.6,4.3,13
			c2.5,5.4,2.5,5.4,2.5,5.4"/>
		<path fill="none" stroke="#636466" stroke-width="0.7695" stroke-linejoin="round" stroke-dasharray="1.0791,0.3597" d="
			M154.4,636.4c0,0,27.3,13.7,34.5,17.3c7.2,3.6,61.2,23.6,128.4,17.2c67.2-6.4,105.2-8,124-14.4c18.8-6.4,32-18.8,32-18.8"/>
		<path fill="none" stroke="#636466" stroke-width="0.7695" stroke-linejoin="round" stroke-dasharray="1.0791,0.3597" d="
			M153.7,641.7c0,0,27.2,13.2,34.4,16.8c7.2,3.6,62.6,20.2,130,15.3c68.9-4.9,104.1-6.9,122.9-13.3c18.8-6.4,32.8-18,32.8-18"/>
	</g>
</g>
<g id="DETAIL">
	<path fill="#FFFFFF" d="M246.7,174.3c0,0,0,2.9,7.9,12.9c7.9,10.1,22.8,27.6,48.2,24.7c25.4-2.9,42.2-18.5,48-25.9
		c5.5-7.1,6.4-10.6,6.4-10.6s-7.7-3.4-10.5-4.4c-1.9-0.7-5.4-2.6-13.8-3.4c-8.9-0.8-14.9,0.1-21.3,0.2c-5.3,0.1-9.3-0.2-10.7-0.2
		c-6.1,0-15.6-0.6-24-0.8c-8.5-0.2-15.8-0.2-17.2,0.2C253.6,168.4,246.7,174.3,246.7,174.3z"/>
	<radialGradient id="SVGID_1_" cx="303.842" cy="149.6035" r="87.306" gradientUnits="userSpaceOnUse">
		<stop  offset="0" style="stop-color:#897F76"/>
		<stop  offset="1" style="stop-color:#000000"/>
	</radialGradient>
	<path opacity="0.3" fill="url(#SVGID_1_)" d="M246.7,174.3c0,0,0,2.9,7.9,12.9c7.9,10.1,22.8,27.6,48.2,24.7
		c25.4-2.9,42.2-18.5,48-25.9c5.5-7.1,6.4-10.6,6.4-10.6s-7.7-3.4-10.5-4.4c-1.9-0.7-5.4-2.6-13.8-3.4c-8.9-0.8-14.9,0.1-21.3,0.2
		c-5.3,0.1-9.3-0.2-10.7-0.2c-6.1,0-15.6-0.6-24-0.8c-8.5-0.2-15.8-0.2-17.2,0.2C253.6,168.4,246.7,174.3,246.7,174.3z"/>
	<path opacity="5.000000e-002" d="M478.4,388c0,0,6.8,4.1,9,4.8c2.2,0.7,5.4-3.6,5.4-5c0-1.4,6.5-29.5,2.9-61.1
		c-3.6-31.7-25.5-129.5-25.5-129.5s4.7,68.7,10.1,98.2c5.4,29.5,8.3,52.5,8.6,56.8c0.4,4.3,1.4,22.3,0.4,23.4
		c-1.1,1.1-2.5,3.2-3.6,6.5c-1.1,3.2-2.5,0-1.8-3.2c0.7-3.2-1.4-7.6-1.4-7.6s-1.1,2.2-1.4,4.7C480.6,378.4,478.4,388,478.4,388"/>
	<path opacity="5.000000e-002" d="M122.7,208.2c0,0,4.7,79.1,2.5,93.9c-2.2,14.7-5.4,47.8-6.1,54c-0.7,6.1,3.6,13.7,4,16.9
		c0.4,3.2,1.1,11,3.1,12.3c2,1.3,7.3-0.6,7.8-1.8c0.9-2.4,1.8-3.8,1.8-3.8c0-1.1,1.4-5.6,1.7-7.8c0.4-2.2,2.2-146.8,2.2-146.8
		s-4.7,25.5-4.7,32.4c0,6.8-0.7,34.9-2.5,34.2C130.6,291,122.7,208.2,122.7,208.2z"/>
	<radialGradient id="SVGID_2_" cx="104.8097" cy="183.6532" r="186.5661" gradientUnits="userSpaceOnUse">
		<stop  offset="0" style="stop-color:#FFFFFF"/>
		<stop  offset="1" style="stop-color:#000000"/>
	</radialGradient>
	<path opacity="5.000000e-002" fill="url(#SVGID_2_)" d="M109,223c0,0-1.8,39.9-1.8,45c0,5-4.7,68.3-6.1,75.2s-4,24.5-5.8,27.3
		c-1.8,2.9-2.2,9.4-2.2,9.4s2.5,4.3,6.8,3.6c4.3-0.7,9.7-14.4,9.7-17.6c0-3.2,3.2-51.8,3.6-55.8c0.4-4-0.7-64.7,0.4-69.4
		c1.1-4.7,2.5-24.1,2.5-24.1L109,223z"/>
	<radialGradient id="SVGID_3_" cx="36.7065" cy="222.0224" r="132.641" gradientUnits="userSpaceOnUse">
		<stop  offset="0" style="stop-color:#FFFFFF"/>
		<stop  offset="1" style="stop-color:#000000"/>
	</radialGradient>
	<path opacity="5.000000e-002" fill="url(#SVGID_3_)" d="M103.6,226.9c0,0-12.2,44.6-12.2,54.7c0,10.1-3.6,57.2-4.3,62.2
		c-0.7,5-3.2,8.3-3.2,8.3s-17.6-19.8-21.6-23c-4-3.2-24.1-21.6-24.5-23c-0.4-1.4,24.8-33.8,28.4-38.5c3.6-4.7,23.7-26.6,25.9-28.1
		C94.3,238.1,103.6,226.9,103.6,226.9z"/>
	<radialGradient id="SVGID_4_" cx="499.0385" cy="250.3195" r="88.6092" gradientUnits="userSpaceOnUse">
		<stop  offset="0" style="stop-color:#FFFFFF"/>
		<stop  offset="1" style="stop-color:#000000"/>
	</radialGradient>
	<path opacity="5.000000e-002" fill="url(#SVGID_4_)" d="M516.5,257.5c0,0,22.7,37.4,28.8,43.2c6.1,5.8,20.9,18.3,20.9,18.3
		l-9.4,7.2c0,0-11.1-14.4-17.6-18c-6.5-3.6-10.8-14.7-14-24.1C521.9,274.8,516.5,257.5,516.5,257.5z"/>
	<radialGradient id="SVGID_5_" cx="524.9348" cy="310.2682" r="33.3136" gradientUnits="userSpaceOnUse">
		<stop  offset="0" style="stop-color:#FFFFFF"/>
		<stop  offset="1" style="stop-color:#000000"/>
	</radialGradient>
	<path opacity="5.000000e-002" fill="url(#SVGID_5_)" d="M548.2,332.7c0,0-7.9-4.3-13-7.9c-5-3.6-15.5-16.9-15.5-16.9
		s8.6,21.2,9.4,24.1c0.7,2.9,4,8.6,4.7,10.4c0.7,1.8,0.7,1.8,0.7,1.8L548.2,332.7z"/>
	<radialGradient id="SVGID_6_" cx="505.2715" cy="290.1242" r="64.4609" gradientUnits="userSpaceOnUse">
		<stop  offset="0" style="stop-color:#FFFFFF"/>
		<stop  offset="1" style="stop-color:#000000"/>
	</radialGradient>
	<path opacity="5.000000e-002" fill="url(#SVGID_6_)" d="M530.9,348.5c0,0-5.4-6.1-6.8-9.4c-1.4-3.2-5-9.7-6.8-11.9
		c-1.8-2.2-10.1-11.1-10.1-11.1s5.8,16.9,5.8,19.8c0,2.9,4,9.7,8.6,11.9C526.3,350,530.9,348.5,530.9,348.5z"/>
	<path opacity="5.000000e-002" fill="#897F76" d="M400,179.8c0,0-18,17.6-25.2,21.9c-7.2,4.3-23.7,12.9-28.8,13.7
		c-5,0.7-9,4-7.9,4.3c1.1,0.4,11.5,0,15.5-1.4c4-1.4,33.8-12.2,39.6-19.8C398.9,191,400,179.8,400,179.8z"/>
	<path opacity="5.000000e-002" fill="#897F76" d="M396,202.1c0,0-70.5,41-74.5,42.1c-4,1.1-3.6,11.9-5,14c-1.4,2.2-9,6.8-8.6,8.3
		c0.4,1.4,32.4-13.7,35.3-16.2c2.9-2.5,23.7-18.7,28.1-21.2c4.3-2.5,22.3-18.7,24.8-19.8C398.6,208.2,396,202.1,396,202.1z"/>
	<path opacity="5.000000e-002" fill="none" d="M142.5,197.1c0,0,5.8,35.6,6.5,39.9c0.7,4.3,4,20.9,4,25.2c0,4.3-0.7,10.4-0.7,10.4
		s4.3-38.5,1.4-45.7C150.7,219.7,142.5,197.1,142.5,197.1z"/>
	<path opacity="0.15" fill="none" d="M152.2,189.2l2.9,31.7c0,0,2.5-14.7,5-13.3c2.5,1.4,9.7,12.2,11.5,12.6
		c1.8,0.4,0-10.1-1.8-10.8c-1.8-0.7-10.4-10.4-12.2-12.6C155.8,194.6,152.2,189.2,152.2,189.2z"/>
	<radialGradient id="SVGID_7_" cx="378.6599" cy="326.5741" r="310.9922" gradientUnits="userSpaceOnUse">
		<stop  offset="0" style="stop-color:#FFFFFF"/>
		<stop  offset="1" style="stop-color:#000000"/>
	</radialGradient>
	<path opacity="5.000000e-002" fill="url(#SVGID_7_)" d="M404.6,361.2c0,0-43.6,170.9-50.8,184.1c-7.2,13.2-42,72-44.4,80
		c-2.4,8-5.2,40.4-5.2,40.4s24-20.8,27.2-22.8c3.2-2,30.4-58.4,32.8-62.4C366.6,576.5,404.6,361.2,404.6,361.2z"/>
	<radialGradient id="SVGID_8_" cx="490.8853" cy="545.749" r="139.0558" gradientUnits="userSpaceOnUse">
		<stop  offset="0" style="stop-color:#FFFFFF"/>
		<stop  offset="1" style="stop-color:#000000"/>
	</radialGradient>
	<path opacity="5.000000e-002" fill="url(#SVGID_8_)" d="M423.8,659.7c-14.6,2.3-22.8,0.4-22.8,0.4s22.4-2.8,26.8-8
		c4.4-5.2,32.4-140.4,32.4-140.4S441,632.9,441,636.1c0,3.2,11.6-5.2,12.4-6.8c0.8-1.6,9.6-17.2,9.6-17.2s0.8,7.6-0.8,11.6
		c-1.6,4-20.8,30.8-20.8,30.8S438.4,657.4,423.8,659.7z"/>
	<path opacity="5.000000e-002" d="M450.1,652.4c0,0,9.3-7.8,10.1-10.2c0.8-2.4,7.2-22,7.2-22s-2,10.4-2,14c0,3.6,0.5,8.8-1.5,10.4
		C461.9,646.1,450.1,652.4,450.1,652.4z"/>
	<radialGradient id="SVGID_9_" cx="140.3014" cy="586.9934" r="75.0081" gradientUnits="userSpaceOnUse">
		<stop  offset="0" style="stop-color:#FFFFFF"/>
		<stop  offset="1" style="stop-color:#000000"/>
	</radialGradient>
	<path opacity="5.000000e-002" fill="url(#SVGID_9_)" d="M192.1,654.7c-2.5-0.9-8.3-3.9-8.3-3.9s-1.6-3.9-3.2-8.3
		c-1.6-4.4-8.4-35.6-10.4-43.6c-2-8-7.6-24-7.6-24s15.4,46.1,27.6,67.4c4.3,7.4,7.4,13.5,11.4,15.9
		C201.5,658.1,194.6,655.6,192.1,654.7z"/>
	<radialGradient id="SVGID_10_" cx="134.5435" cy="424.4091" r="274.0127" gradientUnits="userSpaceOnUse">
		<stop  offset="0" style="stop-color:#FFFFFF"/>
		<stop  offset="1" style="stop-color:#000000"/>
	</radialGradient>
	<path opacity="5.000000e-002" fill="url(#SVGID_10_)" d="M153.7,488.5c0,0,30.4,68.8,34,73.2c3.6,4.4,36.8,59.2,39.2,65.2
		c2.4,6,16.4,29.6,22,32c5.6,2.4,20,2.8,22.8,5.6c2.8,2.8,4.9,6.1,4.9,6.1s-14.6,1.5-44.6-4.8c-10.8-2.2-29.1-7.4-29.1-7.4
		s-10.4-15.2-12.8-18.8c-2.4-3.6-22.8-46.4-26-64C160.9,558.1,153.7,488.5,153.7,488.5z"/>
	<g>
		<path fill="#929497" stroke="#929497" stroke-width="0.8132" stroke-miterlimit="3.8637" d="M305.8,197.3c0,1.5-1.6,2.8-3.6,2.8
			h-4.6c-2,0-3.6-1.3-3.6-2.8v-5.2c0-1.5,1.6-2.8,3.6-2.8h4.6c2,0,3.6,1.3,3.6,2.8V197.3z"/>
		<path fill="#929497" stroke="#010101" stroke-width="0.2711" stroke-miterlimit="3.8637" d="M305.8,197.3c0,1.5-1.6,2.8-3.6,2.8
			h-4.6c-2,0-3.6-1.3-3.6-2.8v-5.2c0-1.5,1.6-2.8,3.6-2.8h4.6c2,0,3.6,1.3,3.6,2.8V197.3z"/>
		<g>
			<g>
				<polygon fill="#010101" stroke="#010101" stroke-width="8.469149e-002" points="299.9,193.6 300.7,194.9 302.9,194.9 
					301.2,192.6 302.8,190.4 300.6,190.4 299.9,191.7 299.9,191.7 299.2,190.4 297,190.4 298.7,192.6 296.9,194.9 299.1,194.9 
					299.9,193.6 				"/>
			</g>
			<g>
				<path fill="#010101" d="M296.3,191.6h0.6v2h-0.4v-1.4c0,0,0-0.1,0-0.2s0-0.1,0-0.2l-0.4,1.7h-0.4l-0.4-1.7c0,0,0,0.1,0,0.2
					c0,0.1,0,0.1,0,0.2v1.4h-0.4v-2h0.6l0.4,1.6L296.3,191.6z"/>
			</g>
			<g>
				<path fill="#010101" d="M303.1,192.9c0,0.1,0.1,0.2,0.1,0.2c0.1,0.1,0.3,0.1,0.5,0.1c0.1,0,0.3,0,0.3,0c0.2,0,0.2-0.1,0.2-0.2
					c0-0.1,0-0.1-0.1-0.2c-0.1,0-0.2-0.1-0.4-0.1l-0.3,0c-0.3,0-0.5-0.1-0.6-0.2c-0.2-0.1-0.3-0.2-0.3-0.4c0-0.2,0.1-0.3,0.3-0.4
					c0.2-0.1,0.5-0.2,0.8-0.2c0.3,0,0.6,0.1,0.8,0.2c0.2,0.1,0.3,0.3,0.3,0.5h-0.6c0-0.1-0.1-0.2-0.2-0.3c-0.1,0-0.2,0-0.3,0
					c-0.2,0-0.3,0-0.4,0.1c-0.1,0-0.1,0.1-0.1,0.2c0,0.1,0,0.1,0.1,0.2c0.1,0,0.2,0.1,0.4,0.1l0.5,0.1c0.2,0,0.4,0.1,0.5,0.1
					c0.2,0.1,0.3,0.2,0.3,0.4c0,0.2-0.1,0.3-0.3,0.5c-0.2,0.1-0.5,0.2-0.8,0.2c-0.4,0-0.7-0.1-0.9-0.2c-0.2-0.1-0.3-0.3-0.3-0.5
					H303.1z"/>
			</g>
			<path fill="#010101" stroke="#010101" stroke-width="7.203040e-002" d="M297,190.8l1.4,1.8l-1.4,1.9c0,0,0.9-1.6,0.9-1.9
				C297.9,192.2,297,190.8,297,190.8z"/>
			<path fill="#010101" stroke="#010101" stroke-width="7.203040e-002" d="M302.8,190.8l-1.4,1.8l1.4,1.9c0,0-0.9-1.6-0.9-1.9
				C301.9,192.2,302.8,190.8,302.8,190.8z"/>
			<g>
				<path fill-rule="evenodd" clip-rule="evenodd" fill="#929497" d="M300.6,191.8c0.4,0,0.8,0.3,0.8,0.8c0,0.4-0.3,0.8-0.8,0.8
					h-1.5c-0.4,0-0.8-0.3-0.8-0.8c0-0.4,0.3-0.8,0.8-0.8H300.6z"/>
				<g>
					<path fill="#010101" d="M298.6,192.5c0-0.3,0.2-0.5,0.5-0.6v1.1C298.9,193.1,298.6,192.8,298.6,192.5z"/>
					<polygon fill-rule="evenodd" clip-rule="evenodd" fill="#010101" points="299.7,192.5 299.2,192 299.7,192 					"/>
					<polygon fill-rule="evenodd" clip-rule="evenodd" fill="#010101" points="299.7,192.6 299.2,193.1 299.7,193.1 					"/>
				</g>
				<g>
					<polygon fill-rule="evenodd" clip-rule="evenodd" fill="#010101" points="300.3,192.5 300.8,192 300.3,192 					"/>
					<polygon fill-rule="evenodd" clip-rule="evenodd" fill="#010101" points="300.3,192.6 300.8,193.1 300.3,193.1 					"/>
					<g>
						<rect x="299.8" y="192" fill="#010101" width="0.4" height="1.1"/>
						<path fill="#010101" d="M300,192.5"/>
					</g>
				</g>
			</g>
			<g>
				<path fill="#010101" d="M303.3,190.6c0.1,0,0.2,0,0.2,0.1c0.1,0.1,0.1,0.1,0.1,0.2c0,0.1,0,0.2-0.1,0.2
					c-0.1,0.1-0.1,0.1-0.2,0.1c-0.1,0-0.2,0-0.2-0.1c-0.1-0.1-0.1-0.1-0.1-0.2c0-0.1,0-0.2,0.1-0.2
					C303.1,190.7,303.2,190.6,303.3,190.6z M303.3,190.7c-0.1,0-0.1,0-0.2,0.1c0,0.1-0.1,0.1-0.1,0.2c0,0.1,0,0.1,0.1,0.2
					c0,0.1,0.1,0.1,0.2,0.1c0.1,0,0.1,0,0.2-0.1c0,0,0.1-0.1,0.1-0.2c0-0.1,0-0.1-0.1-0.2C303.4,190.7,303.4,190.7,303.3,190.7z
					 M303.3,190.8c0.1,0,0.1,0,0.1,0c0,0,0,0,0,0.1c0,0,0,0,0,0.1c0,0,0,0-0.1,0l0.1,0.2h-0.1l-0.1-0.1h0v0.1h-0.1v-0.4H303.3z
					 M303.3,190.9L303.3,190.9L303.3,190.9L303.3,190.9C303.3,190.9,303.3,190.9,303.3,190.9C303.3,190.9,303.4,190.9,303.3,190.9
					C303.4,190.9,303.3,190.9,303.3,190.9C303.3,190.9,303.3,190.9,303.3,190.9z"/>
			</g>
		</g>
		<g>
			<path fill="#010101" d="M295.2,195.5h0.5l0.2,0.7l0.2-0.7h0.5v1.2h-0.3v-0.9l-0.2,0.9h-0.3l-0.2-0.9v0.9h-0.3V195.5z"/>
			<path fill="#010101" d="M296.6,196.1c0-0.2,0.1-0.3,0.2-0.4c0.1-0.1,0.3-0.2,0.4-0.2c0.2,0,0.3,0.1,0.5,0.2
				c0.1,0.1,0.2,0.3,0.2,0.4c0,0.1,0,0.2-0.1,0.3c0,0.1-0.1,0.2-0.2,0.2c-0.1,0-0.2,0.1-0.3,0.1c-0.1,0-0.2,0-0.3-0.1
				c-0.1,0-0.2-0.1-0.2-0.2C296.7,196.3,296.6,196.2,296.6,196.1z M297,196.1c0,0.1,0,0.2,0.1,0.3c0,0.1,0.1,0.1,0.2,0.1
				c0.1,0,0.1,0,0.2-0.1c0,0,0.1-0.1,0.1-0.3c0-0.1,0-0.2-0.1-0.2c0-0.1-0.1-0.1-0.2-0.1c-0.1,0-0.1,0-0.2,0.1
				C297,195.9,297,195.9,297,196.1z"/>
			<path fill="#010101" d="M298.1,195.5h0.4v1.2h-0.4V195.5z"/>
			<path fill="#010101" d="M298.6,196.3l0.3,0c0,0.1,0,0.1,0,0.1c0,0,0.1,0.1,0.2,0.1c0.1,0,0.1,0,0.1,0c0,0,0-0.1,0-0.1
				c0,0,0-0.1,0-0.1c0,0-0.1,0-0.2-0.1c-0.2,0-0.3-0.1-0.3-0.1c-0.1-0.1-0.1-0.1-0.1-0.2c0-0.1,0-0.1,0.1-0.2c0-0.1,0.1-0.1,0.2-0.1
				c0.1,0,0.2,0,0.3,0c0.1,0,0.3,0,0.3,0.1c0.1,0.1,0.1,0.1,0.1,0.3l-0.3,0c0-0.1,0-0.1-0.1-0.1c0,0-0.1,0-0.1,0c0,0-0.1,0-0.1,0
				c0,0,0,0,0,0.1c0,0,0,0,0,0.1c0,0,0.1,0,0.1,0c0.2,0,0.3,0.1,0.3,0.1c0.1,0,0.1,0.1,0.1,0.1c0,0.1,0,0.1,0,0.2
				c0,0.1,0,0.1-0.1,0.2c0,0.1-0.1,0.1-0.2,0.1c-0.1,0-0.2,0-0.3,0c-0.2,0-0.3,0-0.4-0.1C298.7,196.5,298.6,196.4,298.6,196.3z"/>
			<path fill="#010101" d="M299.8,195.5h1.1v0.3h-0.4v0.9h-0.4v-0.9h-0.4V195.5z"/>
			<path fill="#010101" d="M301.8,195.5h0.4v0.7c0,0.1,0,0.1,0,0.2c0,0.1-0.1,0.1-0.1,0.2c0,0-0.1,0.1-0.1,0.1c-0.1,0-0.2,0-0.3,0
				c-0.1,0-0.1,0-0.2,0c-0.1,0-0.1,0-0.2,0c0,0-0.1-0.1-0.1-0.1c0,0-0.1-0.1-0.1-0.1c0-0.1,0-0.1,0-0.2v-0.7h0.4v0.7
				c0,0.1,0,0.1,0.1,0.1c0,0,0.1,0.1,0.1,0.1c0.1,0,0.1,0,0.1-0.1c0,0,0.1-0.1,0.1-0.2V195.5z"/>
			<path fill="#010101" d="M302.4,196.6v-1.2h0.6c0.1,0,0.2,0,0.3,0c0.1,0,0.1,0.1,0.1,0.1c0,0.1,0.1,0.1,0.1,0.2c0,0.1,0,0.1,0,0.2
				c0,0-0.1,0.1-0.1,0.1c0,0-0.1,0-0.1,0c0,0,0.1,0,0.1,0c0,0,0,0,0.1,0.1c0,0,0,0.1,0.1,0.1l0.2,0.3h-0.4l-0.2-0.4
				c0,0,0-0.1-0.1-0.1c0,0-0.1,0-0.1,0h0v0.5H302.4z M302.8,195.9h0.2c0,0,0,0,0.1,0c0,0,0,0,0.1,0c0,0,0,0,0-0.1c0,0,0-0.1,0-0.1
				c0,0-0.1,0-0.1,0h-0.2V195.9z"/>
			<path fill="#010101" d="M303.7,195.5h1v0.2H304v0.2h0.6v0.2H304v0.2h0.6v0.3h-1V195.5z"/>
			<path fill="#010101" d="M294.9,196.8h1v0.2h-0.6v0.2h0.6v0.2h-0.6v0.2h0.6v0.3h-1V196.8z"/>
			<path fill="#010101" d="M296,196.8h0.4l0.2,0.4l0.2-0.4h0.4l-0.4,0.6l0.4,0.6h-0.4l-0.2-0.4l-0.2,0.4H296l0.4-0.6L296,196.8z"/>
			<path fill="#010101" d="M298.1,197.5l0.3,0.1c0,0.1-0.1,0.2-0.1,0.2c0,0.1-0.1,0.1-0.2,0.1c-0.1,0-0.2,0-0.3,0
				c-0.1,0-0.2,0-0.3-0.1c-0.1,0-0.1-0.1-0.2-0.2c-0.1-0.1-0.1-0.2-0.1-0.4c0-0.2,0.1-0.3,0.2-0.4c0.1-0.1,0.2-0.2,0.4-0.2
				c0.1,0,0.3,0,0.3,0.1c0.1,0.1,0.1,0.2,0.2,0.3l-0.3,0.1c0,0,0-0.1,0-0.1c0,0,0,0-0.1-0.1c0,0-0.1,0-0.1,0c-0.1,0-0.1,0-0.2,0.1
				c0,0-0.1,0.1-0.1,0.2c0,0.1,0,0.2,0.1,0.3c0,0,0.1,0.1,0.2,0.1c0.1,0,0.1,0,0.2-0.1C298,197.6,298.1,197.6,298.1,197.5z"/>
			<path fill="#010101" d="M298.6,196.8h0.4v0.4h0.4v-0.4h0.4v1.2h-0.4v-0.5h-0.4v0.5h-0.4V196.8z"/>
			<path fill="#010101" d="M300.6,197.8h-0.4l-0.1,0.2h-0.4l0.4-1.2h0.4l0.4,1.2h-0.4L300.6,197.8z M300.6,197.5l-0.1-0.4l-0.1,0.4
				H300.6z"/>
			<path fill="#010101" d="M301.2,196.8h0.3l0.4,0.6v-0.6h0.3v1.2H302l-0.4-0.6v0.6h-0.3V196.8z"/>
			<path fill="#010101" d="M303.1,197.6v-0.2h0.6v0.5c-0.1,0.1-0.2,0.1-0.3,0.1c-0.1,0-0.2,0-0.3,0c-0.1,0-0.3,0-0.3-0.1
				c-0.1,0-0.2-0.1-0.2-0.2c0-0.1-0.1-0.2-0.1-0.3c0-0.1,0-0.2,0.1-0.3c0-0.1,0.1-0.2,0.2-0.2c0.1,0,0.2-0.1,0.3-0.1
				c0.1,0,0.2,0,0.3,0c0.1,0,0.1,0.1,0.2,0.1c0,0,0.1,0.1,0.1,0.2l-0.3,0.1c0,0,0-0.1-0.1-0.1c0,0-0.1,0-0.1,0c-0.1,0-0.1,0-0.2,0.1
				c0,0.1-0.1,0.1-0.1,0.3c0,0.1,0,0.2,0.1,0.3c0,0.1,0.1,0.1,0.2,0.1c0,0,0.1,0,0.1,0c0,0,0.1,0,0.1-0.1v-0.1H303.1z"/>
			<path fill="#010101" d="M303.9,196.8h1v0.2h-0.6v0.2h0.6v0.2h-0.6v0.2h0.6v0.3h-1V196.8z"/>
			<path fill="#010101" d="M296.2,199l0.3,0c0,0.1,0,0.1,0,0.1c0,0,0.1,0.1,0.2,0.1c0.1,0,0.1,0,0.1,0c0,0,0-0.1,0-0.1
				c0,0,0-0.1,0-0.1c0,0-0.1,0-0.2-0.1c-0.2,0-0.3-0.1-0.3-0.1c-0.1-0.1-0.1-0.1-0.1-0.2c0-0.1,0-0.1,0.1-0.2c0-0.1,0.1-0.1,0.2-0.1
				c0.1,0,0.2,0,0.3,0c0.1,0,0.3,0,0.3,0.1c0.1,0.1,0.1,0.1,0.1,0.3l-0.3,0c0-0.1,0-0.1-0.1-0.1c0,0-0.1,0-0.1,0c0,0-0.1,0-0.1,0
				c0,0,0,0,0,0.1c0,0,0,0,0,0.1c0,0,0.1,0,0.1,0c0.2,0,0.3,0.1,0.3,0.1c0.1,0,0.1,0.1,0.1,0.1c0,0.1,0,0.1,0,0.2
				c0,0.1,0,0.1-0.1,0.2c0,0.1-0.1,0.1-0.2,0.1c-0.1,0-0.2,0.1-0.3,0.1c-0.2,0-0.3,0-0.4-0.1C296.3,199.2,296.2,199.1,296.2,199z"/>
			<path fill="#010101" d="M297.3,198.2h0.4l0.2,0.4l0.2-0.4h0.4l-0.5,0.7v0.5h-0.4v-0.5L297.3,198.2z"/>
			<path fill="#010101" d="M298.6,199l0.3,0c0,0.1,0,0.1,0,0.1c0,0,0.1,0.1,0.2,0.1c0.1,0,0.1,0,0.1,0c0,0,0-0.1,0-0.1
				c0,0,0-0.1,0-0.1c0,0-0.1,0-0.2-0.1c-0.2,0-0.3-0.1-0.3-0.1c-0.1-0.1-0.1-0.1-0.1-0.2c0-0.1,0-0.1,0.1-0.2c0-0.1,0.1-0.1,0.2-0.1
				c0.1,0,0.2,0,0.3,0c0.1,0,0.3,0,0.3,0.1c0.1,0.1,0.1,0.1,0.1,0.3l-0.3,0c0-0.1,0-0.1-0.1-0.1c0,0-0.1,0-0.1,0c0,0-0.1,0-0.1,0
				c0,0,0,0,0,0.1c0,0,0,0,0,0.1c0,0,0.1,0,0.1,0c0.2,0,0.3,0.1,0.3,0.1c0.1,0,0.1,0.1,0.1,0.1c0,0.1,0,0.1,0,0.2
				c0,0.1,0,0.1-0.1,0.2c0,0.1-0.1,0.1-0.2,0.1c-0.1,0-0.2,0.1-0.3,0.1c-0.2,0-0.3,0-0.4-0.1C298.6,199.2,298.6,199.1,298.6,199z"/>
			<path fill="#010101" d="M299.7,198.2h1.1v0.3h-0.4v0.9h-0.4v-0.9h-0.4V198.2z"/>
			<path fill="#010101" d="M301,198.2h1v0.2h-0.6v0.2h0.6v0.2h-0.6v0.2h0.6v0.3h-1V198.2z"/>
			<path fill="#010101" d="M302.2,198.2h0.5l0.2,0.7l0.2-0.7h0.5v1.2h-0.3v-0.9l-0.2,0.9h-0.3l-0.2-0.9v0.9h-0.3V198.2z"/>
		</g>
	</g>
	
		<text transform="matrix(1 0 0 1 287.7388 206.375)" fill="#929497" stroke="#231F20" stroke-width="0.2788" font-family="'Arial-Black'" font-size="6.4259px">LOOSE</text>
	<g>
		<path fill-rule="evenodd" clip-rule="evenodd" fill="#636466" d="M400.7,241.8c-1.1,1.1-2.4,1.1-3.6,1.2c1.2,1.7,3,0,4.5,0.8
			c-0.2,0.6-1,0.7-1.4,1.1c0.4,0.1,1.9,0.1,2.7,0c0.4-0.1,0.9-0.4,1.2-0.1c0.8,0.7-1.2,1.2-1.5,1.7c0.4,1.4,2.1,1.9,3.3,2.2
			c1,0.2,2.5,0.9,3.6,1.6c-1.3-0.3-2.8-1.2-4.3-1.5c-1-0.3-3.1-0.8-3.2-2.4c0.3-0.8,1-0.5,1.5-1c-1.5-0.1-2.9,0.5-4.5-0.1
			c0.1-0.7,1.1-0.7,1.7-1.1c-1.1-0.1-3.4,0.8-4.1-1c-0.6-0.3-1.2-0.3-1.8-0.6c-0.6-0.3-1-0.9-1.6-1.2c-0.4-0.2-1.1,0-1.6-0.1
			c-0.7-0.1-1.2-0.2-1.7-0.6c0.5-0.4,1,0,1.5,0.1c0.6-0.1,1.1,0,1.7,0c0.7-1,3.2-1.9,3.3-0.5c-0.7,0.7-1.5,0.7-2.3,1.1
			c0.7,0.7,1.7,0.9,2.5,1.2c0.6-1.3,1.7-1.4,2.7-1.7C399.8,240.9,400.8,240.8,400.7,241.8z M397.3,242.5c1-0.3,2.1,0,3-1
			C399.4,240.6,397.5,241.5,397.3,242.5z M395.8,240.2c-0.5-0.4-1.4-0.1-2.1,0.5C394.4,240.8,395.1,240.5,395.8,240.2z"/>
		<path fill-rule="evenodd" clip-rule="evenodd" fill="#636466" d="M383.7,230.5c-1.7,1.4-4,1-5.9,1.5c0.4,1.2,2.2,1.3,3,1.8
			c-0.9,0.4-1.8-0.1-2.7-0.7c-1.3,0.5-4.8,2.9-5.2,0.7c1.2-1.1,2.6-1.3,3.8-2c-0.7-0.4-1.4-0.2-2.2-0.9c-1.1,0.4-2.3,1-3.5,1.4
			c-0.6,0.2-1.6,0.5-2-0.2c1-1.2,2.5-1.2,3.7-2c-1.2-0.5-2.8-0.3-4.2-1.2c-0.1-0.2,0.2-0.4,0.2-0.6c-0.5-0.1-1-0.1-1.6-0.2
			c-0.4-0.1-1.1,0-1.5-0.2c-0.2-0.1-0.4-0.5-0.7-0.6c-0.4-0.1-2.3,0-2.8,0.1c-0.3,0.1-0.5,0.3-0.7,0.4c-0.1-0.1-0.3-0.1-0.4-0.2
			c-0.7,0-1.5-0.1-2.2,0.1c-0.6-0.1-1.3-0.1-2-0.1c-0.6-0.1-1.4,0-1.8-0.4c0.5-0.3,1.2,0,1.7,0c1.1,0.1,2.1,0.1,3.2,0.1
			c0.2-0.2-0.2-0.3,0.1-0.4c1.6,0.7,3.1-0.1,4.7,0c0.6-1.3,2.2-2.1,3.5-2.5c1-0.3,2.6-0.3,3,0.7c-1.6,2-3.8,1.4-5.7,2.1
			c1.1,0.8,2.5,0.3,3.7,0.6c0.1,0.2-0.3,0.5-0.4,0.8c1.1,0.4,2.2,0.7,3.3,0.9c0.5,0.1,1.3,0.2,1.9,0.2c1.4-0.2,3.1-1.4,4.6-1.1
			c0.4-0.1,0.7-0.5,1.2,0c-0.8,0.9-2,0.9-3,1.4c-0.8,0-1.6,0.2-2.3,0.2c1.3,1.9,4.4,0.8,6.2,0.4c0.9-0.2,1.7-0.3,2.5-0.5
			C383.5,230.4,383.6,230.5,383.7,230.5z M376.3,229.6c0.6,0.1,1.4,0,1.8-0.5C377.5,229.2,376.9,229.4,376.3,229.6z M370.2,224.8
			c-1.6,0.3-3.2,0.4-4.7,2c1.8-0.2,3.7,0,5.5-1.5C370.6,225.1,370.4,225.2,370.2,224.8z M373.3,234.1c1.5,0.7,2.8-0.6,4.2-1.2
			c0.1-0.3,0-0.6,0.1-0.9C376.1,232.6,374.5,233.1,373.3,234.1z M369.6,232.2c1.5,0,3.2-0.8,4.5-1.8c0,0,0-0.1,0-0.1
			C372.6,230.8,371.1,231.3,369.6,232.2z"/>
		<path fill-rule="evenodd" clip-rule="evenodd" fill="#636466" d="M366.2,220.4c0,0.4-0.5,0.3-0.7,0.6c0.3,0.2,0.4,0.5,0.8,0.8
			c0.3,1.5-2.9,2.8-3.7,1.9c-0.7-0.8,1.1-1.9,1.7-2.5c-1.2-0.4-2.6-0.3-3.9-0.3c-1.8,0.1-3.6,0.6-5.3,1.7c-0.1,0.3-0.4,0.7-0.6,1
			c-0.1,1.3,2,1.8,2.7,2.4c-1.3-0.3-3.4-1.5-3-2.9c1.4-1.9,3.5-2.4,5.2-2.6c1.7-0.2,3.8-0.2,5.5,0.4
			C365.3,220.6,365.7,220.4,366.2,220.4z M365.1,221.2c-0.8,0.2-2.3,1.3-2.1,2.2c1,0,1.9-0.1,2.8-1.2
			C365.6,221.8,365.5,221.5,365.1,221.2z"/>
		<path fill-rule="evenodd" clip-rule="evenodd" fill="#636466" d="M397.4,233.3c-0.8,0.3-1.6,0.7-2.4,1c-0.4,0.2-0.9,0.1-1.3,0.3
			c-0.7,0.3-1.1,0.5-1.7,0.7c-1.9,0.7-3.9,1.1-5.7,2.2c0.5,0.6,1.6-0.3,2.1,0.5c-0.7,1-1.9,0.8-2.8,1.5c-0.1,0.6,0.8,1.7,1.4,1.5
			c-0.1-0.5-0.6-0.9-0.7-1.3c0.9-0.6,2.4-0.6,2.7-1.8c-0.2-0.4-0.9-0.4-1.1-0.6c2.3-1.1,4.5-1.7,6.9-2.5c0.9-0.3,1.6-0.6,2.5-1
			c0.8-0.3,1.4-0.4,2-0.9c0-0.1,0-0.1-0.1-0.1C398.9,232.9,398.1,233,397.4,233.3z M390.4,232.6c0.1,0.2,0.4,0.1,0.3,0.3
			c-1.3,0.9-2.6,1.6-3.8,2.4c-1,0.3-2,1-2.9,1.6c-0.8,0.2-1.7,0.7-2.5,1.1c-0.8,0.4-1.8,0.6-2.3,1.3c1.2,0.1,2.3-1.2,3.5-1.3
			c2.4-1.3,4.8-2.6,7.3-4c0.5-0.7,1.6-0.8,1.8-1.7C391.3,232.3,390.9,232.4,390.4,232.6z M372.9,226.5c0.2,0.3,0.6,0.3,0.9-0.1
			C373.4,226.2,373.2,226.1,372.9,226.5z M366.9,232c-0.9-1.3-1.8-2.6-3.2-3c1.7,1.2,2.9,2.9,3.5,4.4
			C367.6,232.8,366.8,232.4,366.9,232z M362.7,228.4c0.3,0.2,0.7,0.6,1,0.4C363.3,228.5,363,228.5,362.7,228.4z M357.1,225.9
			c0.4,0.2,0.8,0.7,1.2,0.5C358,226.1,357.5,225.9,357.1,225.9z"/>
	</g>
</g>
</svg>
