<?xml version="1.0" encoding="utf-8"?>
<!-- Generator: Adobe Illustrator 16.0.0, SVG Export Plug-In . SVG Version: 6.00 Build 0)  -->
<!DOCTYPE svg PUBLIC "-//W3C//DTD SVG 1.1//EN" "http://www.w3.org/Graphics/SVG/1.1/DTD/svg11.dtd">
<svg version="1.1" id="Layer_1" xmlns="http://www.w3.org/2000/svg" xmlns:xlink="http://www.w3.org/1999/xlink" x="0px" y="0px"
	 width="612px" height="756px" viewBox="0 0 475 792" enable-background="new 0 0 612 792" xml:space="preserve">
<g>
	<defs>
		<rect id="SVGID_1_" width="612" height="333.043"/>
	</defs>
	<clipPath id="SVGID_2_">
		<use xlink:href="#SVGID_1_"  overflow="visible"/>
	</clipPath>
  <g>
	<g clip-path="url(#SVGID_2_)">
		<defs>
			<rect id="SVGID_3_" width="612" height="333.043"/>
		</defs>
		<clipPath id="SVGID_4_">
			<use xlink:href="#SVGID_3_"  overflow="visible"/>
		</clipPath>
		<g opacity="0.75" clip-path="url(#SVGID_4_)">
			<g>
				<defs>
					<rect id="SVGID_5_" x="38.746" y="27.042" width="534" height="278.4"/>
				</defs>
				<clipPath id="SVGID_6_">
					<use xlink:href="#SVGID_5_"  overflow="visible"/>
				</clipPath>
				<g clip-path="url(#SVGID_6_)">
					<defs>
						<rect id="SVGID_7_" x="38.746" y="27.042" width="534" height="278.4"/>
					</defs>
					<clipPath id="SVGID_8_">
						<use xlink:href="#SVGID_7_"  overflow="visible"/>
					</clipPath>
					<g transform="matrix(1 0 0 1 3.814697e-006 1.907349e-006)" clip-path="url(#SVGID_8_)">
						
							<!--<image overflow="visible" width="2225" height="1160" xlink:href="CCC460A9.png"  transform="matrix(0.24 0 0 0.24 38.7461 27.042)">
						</image>-->
					</g>
				</g>
			</g>
		</g>
	</g>
    <g>
	<rect x="53.746" y="42.042" clip-path="url(#SVGID_2_)" fill="#FFFFFF" width="503.977" height="248.267"/>
	</g>
    <g clip-path="url(#SVGID_2_)">
		<defs>
			<rect id="SVGID_9_" width="612" height="333.043"/>
		</defs>
		<clipPath id="SVGID_10_">
			<use xlink:href="#SVGID_9_"  overflow="visible"/>
		</clipPath>
		<g  opacity="0.5" clip-path="url(#SVGID_10_)">
			<g>
				<defs>
					<rect id="SVGID_11_" x="69.398" y="21.933" width="18.48" height="21.84"/>
				</defs>
				<clipPath id="SVGID_12_">
					<use xlink:href="#SVGID_11_"  overflow="visible"/>
				</clipPath>
				<g clip-path="url(#SVGID_12_)">
					<defs>
						<rect id="SVGID_13_" x="69.398" y="21.934" width="18.48" height="21.84"/>
					</defs>
					<clipPath id="SVGID_14_">
						<use xlink:href="#SVGID_13_"  overflow="visible"/>
					</clipPath>
					<g transform="matrix(1 0 0 1 7.629395e-006 0)" clip-path="url(#SVGID_14_)">
						
					</g>
				</g>
			</g>
		</g>
    <g>
      		<path clip-path="url(#SVGID_10_)" fill="#FFFFFF" d="M85.608,41.351H71.627V24.837c0,0,4.11-0.345,6.481-0.466
			c2.371-0.122,7.5-0.209,7.5-0.209V41.351z"/>

    </g>
		<g opacity="0.5" clip-path="url(#SVGID_10_)">
			<g>
				<defs>
					<rect id="SVGID_15_" x="69.188" y="21.883" width="18.96" height="17.52"/>
				</defs>
				<clipPath id="SVGID_16_">
					<use xlink:href="#SVGID_15_"  overflow="visible"/>
				</clipPath>
				<g clip-path="url(#SVGID_16_)">
					<defs>
						<rect id="SVGID_17_" x="69.188" y="21.883" width="18.96" height="17.52"/>
					</defs>
					<clipPath id="SVGID_18_">
						<use xlink:href="#SVGID_17_"  overflow="visible"/>
					</clipPath>
					<g transform="matrix(1 0 0 1 7.629395e-006 0)" clip-path="url(#SVGID_18_)">
						
							<!--<image overflow="visible" width="79" height="73" xlink:href="CCC460AE.png"  transform="matrix(0.24 0 0 0.24 69.1885 21.8828)">
						</image>-->
					</g>
				</g>
			</g>
		</g>
		<polygon clip-path="url(#SVGID_10_)" fill="#FFFFFF" points="85.766,36.897 71.467,36.897 71.467,24.855 78.108,24.371 
			85.766,24.162 		"/>
		<path clip-path="url(#SVGID_10_)" fill-rule="evenodd" clip-rule="evenodd" fill="#FFFFFF" d="M81.473,25.419
			c1.628,0,2.945,1.318,2.945,2.946c0,1.626-1.318,2.945-2.945,2.945h-5.712c-1.627,0-2.946-1.319-2.946-2.945
			c0-1.628,1.319-2.946,2.946-2.946H81.473z"/>
		<path clip-path="url(#SVGID_10_)" fill-rule="evenodd" clip-rule="evenodd" fill="#004D86" d="M75.761,25.251
			c-1.717,0-3.113,1.397-3.113,3.114c0,1.716,1.397,3.113,3.113,3.113h5.712c1.717,0,3.114-1.397,3.114-3.113
			c0-1.717-1.397-3.114-3.114-3.114H75.761z M72.983,28.365c0-1.532,1.247-2.778,2.778-2.778h5.712c1.533,0,2.779,1.246,2.779,2.778
			c0,1.531-1.247,2.777-2.779,2.777h-5.712C74.23,31.142,72.983,29.896,72.983,28.365"/>
		<path clip-path="url(#SVGID_10_)" fill="#004D86" d="M73.724,28.356c0-1.138,0.884-2.068,2.001-2.143v4.286
			C74.607,30.424,73.724,29.493,73.724,28.356"/>
		<polygon clip-path="url(#SVGID_10_)" fill-rule="evenodd" clip-rule="evenodd" fill="#004D86" points="77.947,28.075 
			76.079,26.208 77.947,26.208 		"/>
		<polygon clip-path="url(#SVGID_10_)" fill-rule="evenodd" clip-rule="evenodd" fill="#004D86" points="77.947,28.637 
			76.079,30.504 77.947,30.504 		"/>
		<polygon clip-path="url(#SVGID_10_)" fill-rule="evenodd" clip-rule="evenodd" fill="#BF2A43" points="80.291,28.075 
			82.158,26.208 80.291,26.208 		"/>
		<polygon clip-path="url(#SVGID_10_)" fill-rule="evenodd" clip-rule="evenodd" fill="#BF2A43" points="80.291,28.637 
			82.158,30.504 80.291,30.504 		"/>
		<rect x="78.344" y="26.208" clip-path="url(#SVGID_10_)" fill="#BF2A43" width="1.55" height="4.296"/>
		<path clip-path="url(#SVGID_10_)" fill="#004D86" d="M75.337,33.283c0,0.206-0.166,0.386-0.379,0.386
			c-0.183,0-0.393-0.089-0.393-0.393v-0.917c0-0.218,0.157-0.384,0.388-0.384c0.22,0,0.384,0.166,0.384,0.398v0.094h-0.239v-0.08
			c0-0.094-0.056-0.173-0.147-0.173c-0.12,0-0.147,0.082-0.147,0.194v0.852c0,0.095,0.037,0.17,0.145,0.17
			c0.065,0,0.149-0.037,0.149-0.168V33.18h0.239V33.283z"/>
		<polygon clip-path="url(#SVGID_10_)" fill="#004D86" points="75.532,31.99 75.77,31.99 75.77,33.417 76.243,33.417 76.243,33.656 
			75.532,33.656 		"/>
		<rect x="76.404" y="31.99" clip-path="url(#SVGID_10_)" fill="#004D86" width="0.239" height="1.666"/>
		<polygon clip-path="url(#SVGID_10_)" fill="#004D86" points="76.875,31.99 77.585,31.99 77.585,32.214 77.113,32.214 
			77.113,32.72 77.524,32.72 77.524,32.945 77.113,32.945 77.113,33.656 76.875,33.656 		"/>
		<polygon clip-path="url(#SVGID_10_)" fill="#004D86" points="77.74,31.99 78.451,31.99 78.451,32.214 77.978,32.214 77.978,32.72 
			78.39,32.72 78.39,32.945 77.978,32.945 77.978,33.656 77.74,33.656 		"/>
		<polygon clip-path="url(#SVGID_10_)" fill="#004D86" points="79.041,31.99 79.28,31.99 79.28,32.75 79.284,32.75 79.633,31.99 
			79.872,31.99 79.546,32.657 79.933,33.656 79.68,33.656 79.408,32.916 79.28,33.157 79.28,33.656 79.041,33.656 		"/>
		<polygon clip-path="url(#SVGID_10_)" fill="#004D86" points="80.038,31.99 80.749,31.99 80.749,32.214 80.276,32.214 
			80.276,32.703 80.688,32.703 80.688,32.928 80.276,32.928 80.276,33.417 80.749,33.417 80.749,33.656 80.038,33.656 		"/>
		<polygon clip-path="url(#SVGID_10_)" fill="#004D86" points="80.903,31.99 81.614,31.99 81.614,32.214 81.142,32.214 
			81.142,32.703 81.554,32.703 81.554,32.928 81.142,32.928 81.142,33.417 81.614,33.417 81.614,33.656 80.903,33.656 		"/>
		<polygon clip-path="url(#SVGID_10_)" fill="#004D86" points="81.76,31.99 81.989,31.99 82.349,32.993 82.355,32.993 82.355,31.99 
			82.593,31.99 82.593,33.656 82.368,33.656 82.003,32.655 81.998,32.655 81.998,33.656 81.76,33.656 		"/>
		<path clip-path="url(#SVGID_10_)" fill="#004D86" d="M75.701,34.129h0.2l0.372,1.665h-0.239l-0.071-0.357h-0.325l-0.07,0.357
			h-0.239L75.701,34.129z M75.802,34.609h-0.005l-0.117,0.604h0.24L75.802,34.609z"/>
		<polygon clip-path="url(#SVGID_10_)" fill="#004D86" points="76.546,34.354 76.27,34.354 76.27,34.129 77.061,34.129 
			77.061,34.354 76.785,34.354 76.785,35.794 76.546,35.794 		"/>
		<polygon clip-path="url(#SVGID_10_)" fill="#004D86" points="77.167,34.129 77.404,34.129 77.404,34.843 77.7,34.843 77.7,34.129 
			77.938,34.129 77.938,35.794 77.7,35.794 77.7,35.054 77.404,35.054 77.404,35.794 77.167,35.794 		"/>
		<polygon clip-path="url(#SVGID_10_)" fill="#004D86" points="78.163,34.129 78.401,34.129 78.401,35.556 78.874,35.556 
			78.874,35.794 78.163,35.794 		"/>
		<polygon clip-path="url(#SVGID_10_)" fill="#004D86" points="79.028,34.129 79.739,34.129 79.739,34.354 79.267,34.354 
			79.267,34.843 79.678,34.843 79.678,35.067 79.267,35.067 79.267,35.556 79.739,35.556 79.739,35.794 79.028,35.794 		"/>
		<polygon clip-path="url(#SVGID_10_)" fill="#004D86" points="80.051,34.354 79.775,34.354 79.775,34.129 80.566,34.129 
			80.566,34.354 80.29,34.354 80.29,35.794 80.051,35.794 		"/>
		<rect x="80.678" y="34.129" clip-path="url(#SVGID_10_)" fill="#004D86" width="0.238" height="1.665"/>
		<path clip-path="url(#SVGID_10_)" fill="#004D86" d="M81.907,35.423c0,0.207-0.167,0.386-0.379,0.386
			c-0.183,0-0.393-0.088-0.393-0.393v-0.917c0-0.218,0.156-0.384,0.387-0.384c0.221,0,0.385,0.166,0.385,0.398v0.094h-0.239v-0.08
			c0-0.093-0.056-0.173-0.148-0.173c-0.119,0-0.147,0.082-0.147,0.194v0.853c0,0.095,0.038,0.169,0.145,0.169
			c0.066,0,0.15-0.038,0.15-0.168V35.32h0.239V35.423z"/>
		<rect x="50.822" y="39.3" clip-path="url(#SVGID_10_)" fill="#FFFFFF" width="510.356" height="255.178"/>
<g id="BODY">
   <g id="TOWEL_BODY">
        <rect x="53.746" y="42.042" clip-path="url(#SVGID_10_)" fill="#FFFFFF" width="503.977" height="248.267"/>
  </g>
</g>
        <g id="CUSTOM"></g>
   
		<defs>
			<filter id="Adobe_OpacityMaskFilter" filterUnits="userSpaceOnUse" x="53.746" y="42.042" width="503.977" height="248.267">
				
					<feColorMatrix  type="matrix" values="-1 0 0 0 1  0 -1 0 0 1  0 0 -1 0 1  0 0 0 1 0" color-interpolation-filters="sRGB" result="source"/>
			</filter>
		</defs>
		<mask maskUnits="userSpaceOnUse" x="53.746" y="42.042" width="503.977" height="248.267" id="SVGID_19_">
			<g filter="url(#Adobe_OpacityMaskFilter)">
				<g enable-background="new    ">
					<g>
						<defs>
							<rect id="SVGID_20_" x="51.746" y="40.042" width="508.08" height="252.48"/>
						</defs>
						<clipPath id="SVGID_21_" clip-path="url(#SVGID_10_)">
							<use xlink:href="#SVGID_20_"  overflow="visible"/>
						</clipPath>
						<g transform="matrix(1 0 0 1 3.814697e-006 3.814697e-006)" clip-path="url(#SVGID_21_)">
							
								<image overflow="visible" width="2117" height="1052" xlink:href="\svg\CT11-WH\CCC460AF.jpg"  transform="matrix(0.24 0 0 0.24 51.7461 40.042)">
							</image>
						</g>
					</g>
				</g>
			</g>
		</mask>
		<g clip-path="url(#SVGID_10_)" mask="url(#SVGID_19_)">
			<g>
				<defs>
					<rect id="SVGID_22_" x="53.746" y="42.042" width="503.976" height="248.267"/>
				</defs>
				<clipPath id="SVGID_23_">
					<use xlink:href="#SVGID_22_"  overflow="visible"/>
				</clipPath>
				<rect x="53.746" y="42.042" clip-path="url(#SVGID_23_)" fill="#C9C5C5" width="503.977" height="248.267"/>
			</g>
		</g>
		<polyline clip-path="url(#SVGID_10_)" fill="none" stroke="#6B6056" stroke-width="0.262" points="557.253,42.724 557.739,39.195 
			556.154,42.724 556.686,39.195 555.105,42.758 555.441,39.195 553.908,42.758 554.243,39.195 552.76,42.758 552.947,39.224 
			551.754,42.758 551.941,39.224 550.702,42.758 550.845,39.195 549.457,42.758 549.695,39.195 		"/>
		<polyline clip-path="url(#SVGID_10_)" fill="none" stroke="#6B6056" stroke-width="0.262" points="548.711,42.724 549.197,39.195 
			547.611,42.724 548.144,39.195 546.563,42.758 546.898,39.195 545.367,42.758 545.702,39.195 544.218,42.758 544.405,39.224 
			543.213,42.758 543.398,39.224 542.16,42.758 542.303,39.195 540.916,42.758 541.152,39.195 		"/>
		<polyline clip-path="url(#SVGID_10_)" fill="none" stroke="#6B6056" stroke-width="0.262" points="540.169,42.724 540.655,39.195 
			539.07,42.724 539.602,39.195 538.021,42.758 538.356,39.195 536.825,42.758 537.16,39.195 535.676,42.758 535.863,39.224 
			534.671,42.758 534.856,39.224 533.619,42.758 533.761,39.195 532.374,42.758 532.611,39.195 		"/>
		<polyline clip-path="url(#SVGID_10_)" fill="none" stroke="#6B6056" stroke-width="0.262" points="531.627,42.724 532.113,39.195 
			530.528,42.724 531.06,39.195 529.48,42.758 529.815,39.195 528.283,42.758 528.618,39.195 527.134,42.758 527.321,39.224 
			526.129,42.758 526.315,39.224 525.077,42.758 525.219,39.195 523.832,42.758 524.069,39.195 		"/>
		<polyline clip-path="url(#SVGID_10_)" fill="none" stroke="#6B6056" stroke-width="0.262" points="523.086,42.724 523.571,39.195 
			521.986,42.724 522.518,39.195 520.938,42.758 521.273,39.195 519.741,42.758 520.076,39.195 518.592,42.758 518.779,39.224 
			517.587,42.758 517.773,39.224 516.535,42.758 516.678,39.195 515.29,42.758 515.527,39.195 		"/>
		<polyline clip-path="url(#SVGID_10_)" fill="none" stroke="#6B6056" stroke-width="0.262" points="514.544,42.724 515.029,39.195 
			513.443,42.724 513.977,39.195 512.396,42.758 512.731,39.195 511.199,42.758 511.534,39.195 510.051,42.758 510.237,39.224 
			509.045,42.758 509.231,39.224 507.993,42.758 508.136,39.195 506.748,42.758 506.984,39.195 		"/>
		<polyline clip-path="url(#SVGID_10_)" fill="none" stroke="#6B6056" stroke-width="0.262" points="506.002,42.724 506.488,39.195 
			504.902,42.724 505.435,39.195 503.855,42.758 504.19,39.195 502.657,42.758 502.992,39.195 501.509,42.758 501.695,39.224 
			500.503,42.758 500.69,39.224 499.451,42.758 499.594,39.195 498.206,42.758 498.443,39.195 		"/>
		<polyline clip-path="url(#SVGID_10_)" fill="none" stroke="#6B6056" stroke-width="0.262" points="497.46,42.724 497.946,39.195 
			496.36,42.724 496.893,39.195 495.313,42.758 495.648,39.195 494.115,42.758 494.45,39.195 492.967,42.758 493.153,39.224 
			491.961,42.758 492.148,39.224 490.909,42.758 491.052,39.195 489.664,42.758 489.902,39.195 		"/>
		<polyline clip-path="url(#SVGID_10_)" fill="none" stroke="#6B6056" stroke-width="0.262" points="488.918,42.724 489.404,39.195 
			487.818,42.724 488.351,39.195 486.771,42.758 487.106,39.195 485.573,42.758 485.908,39.195 484.425,42.758 484.611,39.224 
			483.419,42.758 483.606,39.224 482.367,42.758 482.51,39.195 481.122,42.758 481.36,39.195 		"/>
		<polyline clip-path="url(#SVGID_10_)" fill="none" stroke="#6B6056" stroke-width="0.262" points="480.376,42.724 480.862,39.195 
			479.277,42.724 479.809,39.195 478.229,42.758 478.564,39.195 477.031,42.758 477.366,39.195 475.883,42.758 476.07,39.224 
			474.877,42.758 475.064,39.224 473.825,42.758 473.968,39.195 472.58,42.758 472.818,39.195 		"/>
		<polyline clip-path="url(#SVGID_10_)" fill="none" stroke="#6B6056" stroke-width="0.262" points="471.834,42.724 472.32,39.195 
			470.735,42.724 471.267,39.195 469.688,42.758 470.022,39.195 468.489,42.758 468.824,39.195 467.341,42.758 467.528,39.224 
			466.335,42.758 466.522,39.224 465.283,42.758 465.426,39.195 464.038,42.758 464.276,39.195 		"/>
		<polyline clip-path="url(#SVGID_10_)" fill="none" stroke="#6B6056" stroke-width="0.262" points="463.292,42.724 463.778,39.195 
			462.193,42.724 462.725,39.195 461.145,42.758 461.48,39.195 459.947,42.758 460.282,39.195 458.799,42.758 458.986,39.224 
			457.793,42.758 457.98,39.224 456.741,42.758 456.884,39.195 455.496,42.758 455.734,39.195 		"/>
		<polyline clip-path="url(#SVGID_10_)" fill="none" stroke="#6B6056" stroke-width="0.262" points="454.75,42.724 455.236,39.195 
			453.651,42.724 454.183,39.195 452.603,42.758 452.938,39.195 451.406,42.758 451.74,39.195 450.257,42.758 450.444,39.224 
			449.251,42.758 449.438,39.224 448.199,42.758 448.342,39.195 446.954,42.758 447.192,39.195 		"/>
		<polyline clip-path="url(#SVGID_10_)" fill="none" stroke="#6B6056" stroke-width="0.262" points="446.208,42.724 446.694,39.195 
			445.109,42.724 445.641,39.195 444.061,42.758 444.396,39.195 442.864,42.758 443.199,39.195 441.715,42.758 441.902,39.224 
			440.71,42.758 440.896,39.224 439.657,42.758 439.8,39.195 438.412,42.758 438.65,39.195 		"/>
		<polyline clip-path="url(#SVGID_10_)" fill="none" stroke="#6B6056" stroke-width="0.262" points="437.666,42.724 438.152,39.195 
			436.567,42.724 437.099,39.195 435.519,42.758 435.854,39.195 434.322,42.758 434.657,39.195 433.173,42.758 433.36,39.224 
			432.168,42.758 432.354,39.224 431.116,42.758 431.258,39.195 429.871,42.758 430.108,39.195 		"/>
		<polyline clip-path="url(#SVGID_10_)" fill="none" stroke="#6B6056" stroke-width="0.262" points="429.125,42.724 429.61,39.195 
			428.025,42.724 428.557,39.195 426.977,42.758 427.313,39.195 425.78,42.758 426.115,39.195 424.631,42.758 424.818,39.224 
			423.626,42.758 423.813,39.224 422.574,42.758 422.717,39.195 421.329,42.758 421.566,39.195 		"/>
		<polyline clip-path="url(#SVGID_10_)" fill="none" stroke="#6B6056" stroke-width="0.262" points="420.583,42.724 421.068,39.195 
			419.483,42.724 420.015,39.195 418.436,42.758 418.771,39.195 417.238,42.758 417.573,39.195 416.089,42.758 416.276,39.224 
			415.084,42.758 415.271,39.224 414.032,42.758 414.175,39.195 412.787,42.758 413.024,39.195 		"/>
		<polyline clip-path="url(#SVGID_10_)" fill="none" stroke="#6B6056" stroke-width="0.262" points="412.041,42.724 412.526,39.195 
			410.941,42.724 411.474,39.195 409.894,42.758 410.229,39.195 408.696,42.758 409.031,39.195 407.548,42.758 407.734,39.224 
			406.542,42.758 406.729,39.224 405.49,42.758 405.633,39.195 404.245,42.758 404.482,39.195 		"/>
		<polyline clip-path="url(#SVGID_10_)" fill="none" stroke="#6B6056" stroke-width="0.262" points="403.499,42.724 403.985,39.195 
			402.399,42.724 402.932,39.195 401.352,42.758 401.687,39.195 400.154,42.758 400.489,39.195 399.006,42.758 399.192,39.224 
			398,42.758 398.187,39.224 396.948,42.758 397.091,39.195 395.703,42.758 395.941,39.195 		"/>
		<polyline clip-path="url(#SVGID_10_)" fill="none" stroke="#6B6056" stroke-width="0.262" points="394.957,42.724 395.443,39.195 
			393.857,42.724 394.39,39.195 392.81,42.758 393.145,39.195 391.612,42.758 391.947,39.195 390.464,42.758 390.65,39.224 
			389.458,42.758 389.645,39.224 388.406,42.758 388.549,39.195 387.161,42.758 387.399,39.195 		"/>
		<polyline clip-path="url(#SVGID_10_)" fill="none" stroke="#6B6056" stroke-width="0.262" points="386.415,42.724 386.901,39.195 
			385.316,42.724 385.848,39.195 384.268,42.758 384.603,39.195 383.07,42.758 383.405,39.195 381.922,42.758 382.109,39.224 
			380.916,42.758 381.103,39.224 379.864,42.758 380.007,39.195 378.619,42.758 378.857,39.195 		"/>
		<polyline clip-path="url(#SVGID_10_)" fill="none" stroke="#6B6056" stroke-width="0.262" points="377.873,42.724 378.359,39.195 
			376.774,42.724 377.306,39.195 375.726,42.758 376.061,39.195 374.528,42.758 374.863,39.195 373.38,42.758 373.567,39.224 
			372.374,42.758 372.561,39.224 371.322,42.758 371.465,39.195 370.077,42.758 370.315,39.195 		"/>
		<polyline clip-path="url(#SVGID_10_)" fill="none" stroke="#6B6056" stroke-width="0.262" points="369.331,42.724 369.817,39.195 
			368.232,42.724 368.764,39.195 367.184,42.758 367.52,39.195 365.986,42.758 366.321,39.195 364.838,42.758 365.025,39.224 
			363.832,42.758 364.02,39.224 362.78,42.758 362.923,39.195 361.535,42.758 361.773,39.195 		"/>
		<polyline clip-path="url(#SVGID_10_)" fill="none" stroke="#6B6056" stroke-width="0.262" points="360.789,42.724 361.275,39.195 
			359.69,42.724 360.222,39.195 358.643,42.758 358.978,39.195 357.445,42.758 357.779,39.195 356.296,42.758 356.483,39.224 
			355.29,42.758 355.478,39.224 354.238,42.758 354.381,39.195 352.993,42.758 353.231,39.195 		"/>
		<polyline clip-path="url(#SVGID_10_)" fill="none" stroke="#6B6056" stroke-width="0.262" points="352.247,42.724 352.733,39.195 
			351.148,42.724 351.68,39.195 350.1,42.758 350.436,39.195 348.903,42.758 349.238,39.195 347.754,42.758 347.941,39.224 
			346.748,42.758 346.936,39.224 345.696,42.758 345.839,39.195 344.451,42.758 344.689,39.195 		"/>
		<polyline clip-path="url(#SVGID_10_)" fill="none" stroke="#6B6056" stroke-width="0.262" points="343.705,42.724 344.191,39.195 
			342.606,42.724 343.138,39.195 341.559,42.758 341.894,39.195 340.361,42.758 340.696,39.195 339.212,42.758 339.399,39.224 
			338.207,42.758 338.394,39.224 337.154,42.758 337.297,39.195 335.91,42.758 336.147,39.195 		"/>
		<polyline clip-path="url(#SVGID_10_)" fill="none" stroke="#6B6056" stroke-width="0.262" points="335.164,42.724 335.649,39.195 
			334.064,42.724 334.596,39.195 333.016,42.758 333.353,39.195 331.819,42.758 332.154,39.195 330.67,42.758 330.857,39.224 
			329.665,42.758 329.853,39.224 328.613,42.758 328.756,39.195 327.368,42.758 327.605,39.195 		"/>
		<polyline clip-path="url(#SVGID_10_)" fill="none" stroke="#6B6056" stroke-width="0.262" points="326.622,42.724 327.107,39.195 
			325.522,42.724 326.054,39.195 324.475,42.758 324.811,39.195 323.277,42.758 323.612,39.195 322.128,42.758 322.315,39.224 
			321.123,42.758 321.311,39.224 320.071,42.758 320.214,39.195 318.826,42.758 319.063,39.195 		"/>
		<polyline clip-path="url(#SVGID_10_)" fill="none" stroke="#6B6056" stroke-width="0.262" points="318.08,42.724 318.565,39.195 
			316.98,42.724 317.512,39.195 315.934,42.758 316.269,39.195 314.735,42.758 315.07,39.195 313.586,42.758 313.773,39.224 
			312.581,42.758 312.769,39.224 311.529,42.758 311.672,39.195 310.284,42.758 310.521,39.195 		"/>
		<polyline clip-path="url(#SVGID_10_)" fill="none" stroke="#6B6056" stroke-width="0.262" points="309.538,42.724 310.023,39.195 
			308.438,42.724 308.971,39.195 307.391,42.758 307.727,39.195 306.193,42.758 306.528,39.195 305.044,42.758 305.232,39.224 
			304.039,42.758 304.226,39.224 302.987,42.758 303.13,39.195 301.742,42.758 301.98,39.195 		"/>
		<polyline clip-path="url(#SVGID_10_)" fill="none" stroke="#6B6056" stroke-width="0.262" points="300.996,42.724 301.482,39.195 
			299.897,42.724 300.428,39.195 298.849,42.758 299.184,39.195 297.651,42.758 297.986,39.195 296.502,42.758 296.69,39.224 
			295.497,42.758 295.684,39.224 294.445,42.758 294.588,39.195 293.2,42.758 293.438,39.195 		"/>
		<polyline clip-path="url(#SVGID_10_)" fill="none" stroke="#6B6056" stroke-width="0.262" points="292.454,42.724 292.94,39.195 
			291.355,42.724 291.886,39.195 290.307,42.758 290.642,39.195 289.109,42.758 289.444,39.195 287.961,42.758 288.148,39.224 
			286.955,42.758 287.142,39.224 285.903,42.758 286.046,39.195 284.658,42.758 284.896,39.195 		"/>
		<polyline clip-path="url(#SVGID_10_)" fill="none" stroke="#6B6056" stroke-width="0.262" points="283.912,42.724 284.398,39.195 
			282.813,42.724 283.345,39.195 281.765,42.758 282.1,39.195 280.568,42.758 280.902,39.195 279.419,42.758 279.606,39.224 
			278.413,42.758 278.6,39.224 277.361,42.758 277.504,39.195 276.116,42.758 276.354,39.195 		"/>
		<polyline clip-path="url(#SVGID_10_)" fill="none" stroke="#6B6056" stroke-width="0.262" points="275.37,42.724 275.856,39.195 
			274.271,42.724 274.803,39.195 273.223,42.758 273.558,39.195 272.026,42.758 272.361,39.195 270.877,42.758 271.064,39.224 
			269.871,42.758 270.058,39.224 268.819,42.758 268.962,39.195 267.574,42.758 267.812,39.195 		"/>
		<polyline clip-path="url(#SVGID_10_)" fill="none" stroke="#6B6056" stroke-width="0.262" points="266.828,42.724 267.314,39.195 
			265.729,42.724 266.261,39.195 264.681,42.758 265.016,39.195 263.484,42.758 263.819,39.195 262.335,42.758 262.522,39.224 
			261.329,42.758 261.516,39.224 260.277,42.758 260.42,39.195 259.033,42.758 259.27,39.195 		"/>
		<polyline clip-path="url(#SVGID_10_)" fill="none" stroke="#6B6056" stroke-width="0.262" points="258.286,42.724 258.772,39.195 
			257.187,42.724 257.719,39.195 256.139,42.758 256.474,39.195 254.942,42.758 255.277,39.195 253.793,42.758 253.98,39.224 
			252.787,42.758 252.974,39.224 251.736,42.758 251.878,39.195 250.491,42.758 250.728,39.195 		"/>
		<polyline clip-path="url(#SVGID_10_)" fill="none" stroke="#6B6056" stroke-width="0.262" points="249.745,42.724 250.23,39.195 
			248.646,42.724 249.177,39.195 247.598,42.758 247.933,39.195 246.399,42.758 246.734,39.195 245.25,42.758 245.438,39.224 
			244.246,42.758 244.433,39.224 243.193,42.758 243.336,39.195 241.949,42.758 242.187,39.195 		"/>
		<polyline clip-path="url(#SVGID_10_)" fill="none" stroke="#6B6056" stroke-width="0.262" points="241.203,42.724 241.688,39.195 
			240.104,42.724 240.635,39.195 239.056,42.758 239.391,39.195 237.857,42.758 238.192,39.195 236.709,42.758 236.896,39.224 
			235.704,42.758 235.891,39.224 234.651,42.758 234.794,39.195 233.407,42.758 233.645,39.195 		"/>
		<polyline clip-path="url(#SVGID_10_)" fill="none" stroke="#6B6056" stroke-width="0.262" points="232.661,42.724 233.146,39.195 
			231.562,42.724 232.094,39.195 230.514,42.758 230.849,39.195 229.316,42.758 229.65,39.195 228.167,42.758 228.354,39.224 
			227.162,42.758 227.349,39.224 226.109,42.758 226.252,39.195 224.865,42.758 225.103,39.195 		"/>
		<polyline clip-path="url(#SVGID_10_)" fill="none" stroke="#6B6056" stroke-width="0.262" points="224.119,42.724 224.604,39.195 
			223.02,42.724 223.552,39.195 221.972,42.758 222.307,39.195 220.775,42.758 221.11,39.195 219.625,42.758 219.813,39.224 
			218.62,42.758 218.807,39.224 217.568,42.758 217.711,39.195 216.324,42.758 216.561,39.195 		"/>
		<polyline clip-path="url(#SVGID_10_)" fill="none" stroke="#6B6056" stroke-width="0.262" points="215.577,42.724 216.063,39.195 
			214.478,42.724 215.01,39.195 213.43,42.758 213.765,39.195 212.233,42.758 212.568,39.195 211.083,42.758 211.271,39.224 
			210.078,42.758 210.265,39.224 209.027,42.758 209.169,39.195 207.782,42.758 208.019,39.195 		"/>
		<polyline clip-path="url(#SVGID_10_)" fill="none" stroke="#6B6056" stroke-width="0.262" points="207.035,42.724 207.521,39.195 
			205.936,42.724 206.467,39.195 204.887,42.758 205.223,39.195 203.69,42.758 204.025,39.195 202.541,42.758 202.729,39.224 
			201.536,42.758 201.723,39.224 200.484,42.758 200.627,39.195 199.239,42.758 199.477,39.195 		"/>
		<polyline clip-path="url(#SVGID_10_)" fill="none" stroke="#6B6056" stroke-width="0.262" points="198.493,42.724 198.979,39.195 
			197.394,42.724 197.925,39.195 196.346,42.758 196.681,39.195 195.148,42.758 195.483,39.195 193.999,42.758 194.187,39.224 
			192.994,42.758 193.181,39.224 191.942,42.758 192.085,39.195 190.697,42.758 190.935,39.195 		"/>
		<polyline clip-path="url(#SVGID_10_)" fill="none" stroke="#6B6056" stroke-width="0.262" points="189.951,42.724 190.437,39.195 
			188.852,42.724 189.384,39.195 187.804,42.758 188.139,39.195 186.606,42.758 186.941,39.195 185.458,42.758 185.645,39.224 
			184.452,42.758 184.639,39.224 183.4,42.758 183.543,39.195 182.155,42.758 182.393,39.195 		"/>
		<polyline clip-path="url(#SVGID_10_)" fill="none" stroke="#6B6056" stroke-width="0.262" points="181.409,42.724 181.895,39.195 
			180.31,42.724 180.842,39.195 179.262,42.758 179.597,39.195 178.065,42.758 178.399,39.195 176.916,42.758 177.103,39.224 
			175.91,42.758 176.097,39.224 174.858,42.758 175.001,39.195 173.613,42.758 173.851,39.195 		"/>
		<polyline clip-path="url(#SVGID_10_)" fill="none" stroke="#6B6056" stroke-width="0.262" points="172.867,42.724 173.353,39.195 
			171.768,42.724 172.3,39.195 170.72,42.758 171.055,39.195 169.523,42.758 169.858,39.195 168.374,42.758 168.561,39.224 
			167.368,42.758 167.555,39.224 166.316,42.758 166.459,39.195 165.072,42.758 165.309,39.195 		"/>
		<polyline clip-path="url(#SVGID_10_)" fill="none" stroke="#6B6056" stroke-width="0.262" points="164.325,42.724 164.811,39.195 
			163.226,42.724 163.758,39.195 162.178,42.758 162.513,39.195 160.981,42.758 161.316,39.195 159.832,42.758 160.019,39.224 
			158.826,42.758 159.013,39.224 157.775,42.758 157.917,39.195 156.53,42.758 156.767,39.195 		"/>
		<polyline clip-path="url(#SVGID_10_)" fill="none" stroke="#6B6056" stroke-width="0.262" points="155.784,42.724 156.27,39.195 
			154.685,42.724 155.216,39.195 153.636,42.758 153.972,39.195 152.438,42.758 152.774,39.195 151.29,42.758 151.478,39.224 
			150.285,42.758 150.472,39.224 149.233,42.758 149.375,39.195 147.988,42.758 148.226,39.195 		"/>
		<polyline clip-path="url(#SVGID_10_)" fill="none" stroke="#6B6056" stroke-width="0.262" points="147.242,42.724 147.728,39.195 
			146.143,42.724 146.674,39.195 145.095,42.758 145.43,39.195 143.896,42.758 144.231,39.195 142.748,42.758 142.936,39.224 
			141.743,42.758 141.93,39.224 140.691,42.758 140.833,39.195 139.446,42.758 139.684,39.195 		"/>
		<polyline clip-path="url(#SVGID_10_)" fill="none" stroke="#6B6056" stroke-width="0.262" points="138.7,42.724 139.186,39.195 
			137.601,42.724 138.133,39.195 136.553,42.758 136.888,39.195 135.354,42.758 135.689,39.195 134.207,42.758 134.394,39.224 
			133.201,42.758 133.388,39.224 132.149,42.758 132.292,39.195 130.904,42.758 131.142,39.195 		"/>
		<polyline clip-path="url(#SVGID_10_)" fill="none" stroke="#6B6056" stroke-width="0.262" points="130.158,42.724 130.644,39.195 
			129.059,42.724 129.591,39.195 128.011,42.758 128.346,39.195 126.813,42.758 127.149,39.195 125.665,42.758 125.852,39.224 
			124.659,42.758 124.846,39.224 123.607,42.758 123.75,39.195 122.362,42.758 122.6,39.195 		"/>
		<polyline clip-path="url(#SVGID_10_)" fill="none" stroke="#6B6056" stroke-width="0.262" points="121.616,42.724 122.102,39.195 
			120.517,42.724 121.049,39.195 119.469,42.758 119.804,39.195 118.271,42.758 118.607,39.195 117.123,42.758 117.31,39.224 
			116.117,42.758 116.304,39.224 115.064,42.758 115.208,39.195 113.821,42.758 114.058,39.195 		"/>
		<polyline clip-path="url(#SVGID_10_)" fill="none" stroke="#6B6056" stroke-width="0.262" points="113.074,42.724 113.56,39.195 
			111.975,42.724 112.507,39.195 110.927,42.758 111.262,39.195 109.729,42.758 110.064,39.195 108.581,42.758 108.768,39.224 
			107.575,42.758 107.762,39.224 106.524,42.758 106.666,39.195 105.279,42.758 105.516,39.195 		"/>
		<polyline clip-path="url(#SVGID_10_)" fill="none" stroke="#6B6056" stroke-width="0.262" points="104.532,42.724 105.018,39.195 
			103.433,42.724 103.964,39.195 102.385,42.758 102.72,39.195 101.187,42.758 101.522,39.195 100.038,42.758 100.226,39.224 
			99.033,42.758 99.22,39.224 97.981,42.758 98.124,39.195 96.736,42.758 96.974,39.195 		"/>
		<polyline clip-path="url(#SVGID_10_)" fill="none" stroke="#6B6056" stroke-width="0.262" points="95.99,42.724 96.476,39.195 
			94.891,42.724 95.422,39.195 93.843,42.758 94.178,39.195 92.645,42.758 92.98,39.195 91.496,42.758 91.684,39.224 90.491,42.758 
			90.678,39.224 89.439,42.758 89.582,39.195 88.194,42.758 88.432,39.195 		"/>
		<polyline clip-path="url(#SVGID_10_)" fill="none" stroke="#6B6056" stroke-width="0.262" points="87.448,42.724 87.934,39.195 
			86.349,42.724 86.881,39.195 85.301,42.758 85.636,39.195 84.103,42.758 84.438,39.195 82.955,42.758 83.142,39.224 
			81.949,42.758 82.136,39.224 80.897,42.758 81.04,39.195 79.652,42.758 79.89,39.195 		"/>
		<polyline clip-path="url(#SVGID_10_)" fill="none" stroke="#6B6056" stroke-width="0.262" points="78.906,42.724 79.392,39.195 
			77.807,42.724 78.339,39.195 76.759,42.758 77.094,39.195 75.563,42.758 75.897,39.195 74.413,42.758 74.6,39.224 73.407,42.758 
			73.594,39.224 72.355,42.758 72.499,39.195 71.11,42.758 71.348,39.195 		"/>
		<polyline clip-path="url(#SVGID_10_)" fill="none" stroke="#6B6056" stroke-width="0.262" points="70.364,42.724 70.85,39.195 
			69.265,42.724 69.797,39.195 68.217,42.758 68.552,39.195 67.021,42.758 67.355,39.195 65.871,42.758 66.058,39.224 
			64.865,42.758 65.052,39.224 63.813,42.758 63.957,39.195 62.569,42.758 62.806,39.195 		"/>
		<polyline clip-path="url(#SVGID_10_)" fill="none" stroke="#6B6056" stroke-width="0.262" points="61.822,42.724 62.308,39.195 
			60.723,42.724 61.255,39.195 59.675,42.758 60.01,39.195 58.479,42.758 58.813,39.195 57.329,42.758 57.516,39.224 56.323,42.758 
			56.51,39.224 55.272,42.758 55.414,39.195 54.027,42.758 54.264,39.195 		"/>
		<polyline clip-path="url(#SVGID_10_)" fill="none" stroke="#6B6056" stroke-width="0.262" points="53.81,43.425 50.282,42.939 
			53.81,44.525 50.282,43.994 53.845,45.575 50.282,45.238 53.845,46.771 50.282,46.437 53.845,47.921 50.311,47.733 53.845,48.926 
			50.311,48.739 53.845,49.979 50.282,49.836 53.845,51.226 50.282,50.987 		"/>
		<polyline clip-path="url(#SVGID_10_)" fill="none" stroke="#6B6056" stroke-width="0.262" points="53.81,51.971 50.282,51.485 
			53.81,53.071 50.282,52.54 53.845,54.121 50.282,53.784 53.845,55.317 50.282,54.982 53.845,56.467 50.311,56.279 53.845,57.472 
			50.311,57.285 53.845,58.525 50.282,58.382 53.845,59.771 50.282,59.533 		"/>
		<polyline clip-path="url(#SVGID_10_)" fill="none" stroke="#6B6056" stroke-width="0.262" points="53.81,60.517 50.282,60.031 
			53.81,61.617 50.282,61.085 53.845,62.667 50.282,62.33 53.845,63.863 50.282,63.528 53.845,65.013 50.311,64.825 53.845,66.018 
			50.311,65.831 53.845,67.071 50.282,66.928 53.845,68.316 50.282,68.079 		"/>
		<polyline clip-path="url(#SVGID_10_)" fill="none" stroke="#6B6056" stroke-width="0.262" points="53.81,69.063 50.282,68.577 
			53.81,70.163 50.282,69.631 53.845,71.212 50.282,70.876 53.845,72.409 50.282,72.074 53.845,73.559 50.311,73.371 53.845,74.564 
			50.311,74.377 53.845,75.617 50.282,75.474 53.845,76.862 50.282,76.625 		"/>
		<polyline clip-path="url(#SVGID_10_)" fill="none" stroke="#6B6056" stroke-width="0.262" points="53.81,77.609 50.282,77.123 
			53.81,78.709 50.282,78.177 53.845,79.758 50.282,79.422 53.845,80.955 50.282,80.62 53.845,82.105 50.311,81.917 53.845,83.11 
			50.311,82.923 53.845,84.163 50.282,84.02 53.845,85.408 50.282,85.171 		"/>
		<polyline clip-path="url(#SVGID_10_)" fill="none" stroke="#6B6056" stroke-width="0.262" points="53.81,86.155 50.282,85.669 
			53.81,87.255 50.282,86.723 53.845,88.304 50.282,87.968 53.845,89.501 50.282,89.166 53.845,90.651 50.311,90.463 53.845,91.656 
			50.311,91.469 53.845,92.709 50.282,92.566 53.845,93.954 50.282,93.717 		"/>
		<polyline clip-path="url(#SVGID_10_)" fill="none" stroke="#6B6056" stroke-width="0.262" points="53.81,94.701 50.282,94.215 
			53.81,95.801 50.282,95.269 53.845,96.85 50.282,96.513 53.845,98.047 50.282,97.712 53.845,99.197 50.311,99.009 53.845,100.202 
			50.311,100.015 53.845,101.255 50.282,101.112 53.845,102.5 50.282,102.263 		"/>
		<polyline clip-path="url(#SVGID_10_)" fill="none" stroke="#6B6056" stroke-width="0.262" points="53.81,103.247 50.282,102.761 
			53.81,104.347 50.282,103.815 53.845,105.396 50.282,105.059 53.845,106.593 50.282,106.258 53.845,107.743 50.311,107.555 
			53.845,108.748 50.311,108.561 53.845,109.801 50.282,109.658 53.845,111.046 50.282,110.809 		"/>
		<polyline clip-path="url(#SVGID_10_)" fill="none" stroke="#6B6056" stroke-width="0.262" points="53.81,111.792 50.282,111.307 
			53.81,112.893 50.282,112.361 53.845,113.94 50.282,113.604 53.845,115.139 50.282,114.804 53.845,116.289 50.311,116.101 
			53.845,117.293 50.311,117.106 53.845,118.347 50.282,118.204 53.845,119.592 50.282,119.354 		"/>
		<polyline clip-path="url(#SVGID_10_)" fill="none" stroke="#6B6056" stroke-width="0.262" points="53.81,120.338 50.282,119.853 
			53.81,121.438 50.282,120.907 53.845,122.486 50.282,122.15 53.845,123.685 50.282,123.35 53.845,124.834 50.311,124.646 
			53.845,125.839 50.311,125.652 53.845,126.893 50.282,126.75 53.845,128.138 50.282,127.9 		"/>
		<polyline clip-path="url(#SVGID_10_)" fill="none" stroke="#6B6056" stroke-width="0.262" points="53.81,128.884 50.282,128.398 
			53.81,129.984 50.282,129.453 53.845,131.033 50.282,130.696 53.845,132.23 50.282,131.896 53.845,133.38 50.311,133.192 
			53.845,134.385 50.311,134.198 53.845,135.438 50.282,135.295 53.845,136.684 50.282,136.446 		"/>
		<polyline clip-path="url(#SVGID_10_)" fill="none" stroke="#6B6056" stroke-width="0.262" points="53.81,137.43 50.282,136.944 
			53.81,138.53 50.282,137.999 53.845,139.579 50.282,139.242 53.845,140.776 50.282,140.441 53.845,141.926 50.311,141.738 
			53.845,142.931 50.311,142.744 53.845,143.984 50.282,143.841 53.845,145.229 50.282,144.992 		"/>
		<polyline clip-path="url(#SVGID_10_)" fill="none" stroke="#6B6056" stroke-width="0.262" points="53.81,145.976 50.282,145.49 
			53.81,147.076 50.282,146.544 53.845,148.125 50.282,147.788 53.845,149.322 50.282,148.987 53.845,150.472 50.311,150.284 
			53.845,151.477 50.311,151.29 53.845,152.53 50.282,152.387 53.845,153.775 50.282,153.538 		"/>
		<polyline clip-path="url(#SVGID_10_)" fill="none" stroke="#6B6056" stroke-width="0.262" points="53.81,154.522 50.282,154.036 
			53.81,155.622 50.282,155.09 53.845,156.67 50.282,156.334 53.845,157.868 50.282,157.533 53.845,159.018 50.311,158.83 
			53.845,160.023 50.311,159.836 53.845,161.076 50.282,160.933 53.845,162.321 50.282,162.084 		"/>
		<polyline clip-path="url(#SVGID_10_)" fill="none" stroke="#6B6056" stroke-width="0.262" points="53.81,163.068 50.282,162.582 
			53.81,164.168 50.282,163.636 53.845,165.217 50.282,164.881 53.845,166.414 50.282,166.079 53.845,167.564 50.311,167.376 
			53.845,168.569 50.311,168.382 53.845,169.622 50.282,169.48 53.845,170.867 50.282,170.63 		"/>
		<polyline clip-path="url(#SVGID_10_)" fill="none" stroke="#6B6056" stroke-width="0.262" points="53.81,171.614 50.282,171.129 
			53.81,172.715 50.282,172.182 53.845,173.763 50.282,173.427 53.845,174.961 50.282,174.625 53.845,176.109 50.311,175.923 
			53.845,177.115 50.311,176.928 53.845,178.169 50.282,178.025 53.845,179.413 50.282,179.177 		"/>
		<polyline clip-path="url(#SVGID_10_)" fill="none" stroke="#6B6056" stroke-width="0.262" points="53.81,180.16 50.282,179.675 
			53.81,181.261 50.282,180.728 53.845,182.309 50.282,181.973 53.845,183.507 50.282,183.171 53.845,184.655 50.311,184.469 
			53.845,185.661 50.311,185.474 53.845,186.715 50.282,186.571 53.845,187.959 50.282,187.723 		"/>
		<polyline clip-path="url(#SVGID_10_)" fill="none" stroke="#6B6056" stroke-width="0.262" points="53.81,188.706 50.282,188.221 
			53.81,189.807 50.282,189.273 53.845,190.854 50.282,190.519 53.845,192.053 50.282,191.717 53.845,193.201 50.311,193.015 
			53.845,194.207 50.311,194.02 53.845,195.261 50.282,195.117 53.845,196.505 50.282,196.269 		"/>
		<polyline clip-path="url(#SVGID_10_)" fill="none" stroke="#6B6056" stroke-width="0.262" points="53.81,197.252 50.282,196.767 
			53.81,198.353 50.282,197.819 53.845,199.4 50.282,199.064 53.845,200.599 50.282,200.263 53.845,201.747 50.311,201.561 
			53.845,202.753 50.311,202.565 53.845,203.807 50.282,203.663 53.845,205.051 50.282,204.814 		"/>
		<polyline clip-path="url(#SVGID_10_)" fill="none" stroke="#6B6056" stroke-width="0.262" points="53.81,205.798 50.282,205.313 
			53.81,206.898 50.282,206.365 53.845,207.946 50.282,207.61 53.845,209.145 50.282,208.809 53.845,210.293 50.311,210.106 
			53.845,211.299 50.311,211.111 53.845,212.353 50.282,212.209 53.845,213.597 50.282,213.359 		"/>
		<polyline clip-path="url(#SVGID_10_)" fill="none" stroke="#6B6056" stroke-width="0.262" points="53.81,214.344 50.282,213.858 
			53.81,215.444 50.282,214.911 53.845,216.492 50.282,216.156 53.845,217.69 50.282,217.354 53.845,218.839 50.311,218.652 
			53.845,219.845 50.311,219.657 53.845,220.898 50.282,220.755 53.845,222.143 50.282,221.906 		"/>
		<polyline clip-path="url(#SVGID_10_)" fill="none" stroke="#6B6056" stroke-width="0.262" points="53.81,222.89 50.282,222.404 
			53.81,223.99 50.282,223.457 53.845,225.038 50.282,224.702 53.845,226.236 50.282,225.9 53.845,227.385 50.311,227.198 
			53.845,228.391 50.311,228.203 53.845,229.444 50.282,229.301 53.845,230.688 50.282,230.451 		"/>
		<polyline clip-path="url(#SVGID_10_)" fill="none" stroke="#6B6056" stroke-width="0.262" points="53.81,231.436 50.282,230.95 
			53.81,232.536 50.282,232.003 53.845,233.584 50.282,233.248 53.845,234.782 50.282,234.446 53.845,235.931 50.311,235.744 
			53.845,236.937 50.311,236.749 53.845,237.99 50.282,237.847 53.845,239.234 50.282,238.998 		"/>
		<polyline clip-path="url(#SVGID_10_)" fill="none" stroke="#6B6056" stroke-width="0.262" points="53.81,239.981 50.282,239.496 
			53.81,241.082 50.282,240.549 53.845,242.13 50.282,241.794 53.845,243.328 50.282,242.992 53.845,244.477 50.311,244.29 
			53.845,245.482 50.311,245.295 53.845,246.536 50.282,246.393 53.845,247.78 50.282,247.543 		"/>
		<polyline clip-path="url(#SVGID_10_)" fill="none" stroke="#6B6056" stroke-width="0.262" points="53.81,248.527 50.282,248.042 
			53.81,249.628 50.282,249.095 53.845,250.676 50.282,250.34 53.845,251.874 50.282,251.538 53.845,253.022 50.311,252.836 
			53.845,254.028 50.311,253.841 53.845,255.082 50.282,254.938 53.845,256.326 50.282,256.089 		"/>
		<polyline clip-path="url(#SVGID_10_)" fill="none" stroke="#6B6056" stroke-width="0.262" points="53.81,257.073 50.282,256.588 
			53.81,258.174 50.282,257.641 53.845,259.222 50.282,258.886 53.845,260.42 50.282,260.084 53.845,261.568 50.311,261.382 
			53.845,262.574 50.311,262.387 53.845,263.628 50.282,263.484 53.845,264.872 50.282,264.635 		"/>
		<polyline clip-path="url(#SVGID_10_)" fill="none" stroke="#6B6056" stroke-width="0.262" points="53.81,265.619 50.282,265.134 
			53.81,266.72 50.282,266.187 53.845,267.768 50.282,267.432 53.845,268.966 50.282,268.631 53.845,270.114 50.311,269.928 
			53.845,271.12 50.311,270.933 53.845,272.174 50.282,272.03 53.845,273.418 50.282,273.181 		"/>
		<polyline clip-path="url(#SVGID_10_)" fill="none" stroke="#6B6056" stroke-width="0.262" points="53.81,274.165 50.282,273.68 
			53.81,275.266 50.282,274.732 53.845,276.313 50.282,275.978 53.845,277.512 50.282,277.176 53.845,278.66 50.311,278.474 
			53.845,279.666 50.311,279.479 53.845,280.72 50.282,280.576 53.845,281.964 50.282,281.727 		"/>
		<polyline clip-path="url(#SVGID_10_)" fill="none" stroke="#6B6056" stroke-width="0.262" points="53.81,282.711 50.282,282.226 
			53.81,283.811 50.282,283.278 53.845,284.859 50.282,284.523 53.845,286.058 50.282,285.723 53.845,287.206 50.311,287.02 
			53.845,288.212 50.311,288.024 53.845,289.266 50.282,289.122 53.845,290.51 50.282,290.272 		"/>
		<polyline clip-path="url(#SVGID_10_)" fill="none" stroke="#6B6056" stroke-width="0.262" points="54.512,290.727 54.026,294.255 
			55.611,290.727 55.08,294.255 56.66,290.692 56.324,294.255 57.857,290.692 57.521,294.255 59.006,290.692 58.818,294.226 
			60.011,290.692 59.824,294.226 61.063,290.692 60.92,294.255 62.308,290.692 62.07,294.255 		"/>
		<polyline clip-path="url(#SVGID_10_)" fill="none" stroke="#6B6056" stroke-width="0.262" points="63.054,290.727 62.568,294.255 
			64.153,290.727 63.622,294.255 65.201,290.692 64.866,294.255 66.399,290.692 66.063,294.255 67.548,290.692 67.36,294.226 
			68.553,290.692 68.366,294.226 69.604,290.692 69.462,294.255 70.85,290.692 70.612,294.255 		"/>
		<polyline clip-path="url(#SVGID_10_)" fill="none" stroke="#6B6056" stroke-width="0.262" points="71.596,290.727 71.11,294.255 
			72.695,290.727 72.163,294.255 73.743,290.692 73.408,294.255 74.941,290.692 74.605,294.255 76.089,290.692 75.902,294.226 
			77.095,290.692 76.908,294.226 78.146,290.692 78.004,294.255 79.392,290.692 79.154,294.255 		"/>
		<polyline clip-path="url(#SVGID_10_)" fill="none" stroke="#6B6056" stroke-width="0.262" points="80.138,290.727 79.652,294.255 
			81.237,290.727 80.705,294.255 82.285,290.692 81.95,294.255 83.482,290.692 83.146,294.255 84.631,290.692 84.444,294.226 
			85.637,290.692 85.45,294.226 86.688,290.692 86.546,294.255 87.934,290.692 87.696,294.255 		"/>
		<polyline clip-path="url(#SVGID_10_)" fill="none" stroke="#6B6056" stroke-width="0.262" points="88.68,290.727 88.194,294.255 
			89.779,290.727 89.247,294.255 90.827,290.692 90.492,294.255 92.024,290.692 91.688,294.255 93.173,290.692 92.986,294.226 
			94.179,290.692 93.992,294.226 95.23,290.692 95.088,294.255 96.475,290.692 96.238,294.255 		"/>
		<polyline clip-path="url(#SVGID_10_)" fill="none" stroke="#6B6056" stroke-width="0.262" points="97.222,290.727 96.736,294.255 
			98.321,290.727 97.789,294.255 99.369,290.692 99.034,294.255 100.566,290.692 100.23,294.255 101.715,290.692 101.528,294.226 
			102.721,290.692 102.534,294.226 103.771,290.692 103.63,294.255 105.017,290.692 104.78,294.255 		"/>
		<polyline clip-path="url(#SVGID_10_)" fill="none" stroke="#6B6056" stroke-width="0.262" points="105.763,290.727 
			105.277,294.255 106.862,290.727 106.331,294.255 107.911,290.692 107.575,294.255 109.108,290.692 108.773,294.255 
			110.257,290.692 110.069,294.226 111.262,290.692 111.075,294.226 112.314,290.692 112.171,294.255 113.559,290.692 
			113.321,294.255 		"/>
		<polyline clip-path="url(#SVGID_10_)" fill="none" stroke="#6B6056" stroke-width="0.262" points="114.305,290.727 
			113.819,294.255 115.404,290.727 114.873,294.255 116.452,290.692 116.117,294.255 117.65,290.692 117.315,294.255 
			118.799,290.692 118.611,294.226 119.804,290.692 119.617,294.226 120.856,290.692 120.713,294.255 122.101,290.692 
			121.863,294.255 		"/>
		<polyline clip-path="url(#SVGID_10_)" fill="none" stroke="#6B6056" stroke-width="0.262" points="122.847,290.727 
			122.361,294.255 123.946,290.727 123.414,294.255 124.994,290.692 124.659,294.255 126.192,290.692 125.857,294.255 
			127.34,290.692 127.153,294.226 128.346,290.692 128.159,294.226 129.398,290.692 129.255,294.255 130.643,290.692 
			130.405,294.255 		"/>
		<polyline clip-path="url(#SVGID_10_)" fill="none" stroke="#6B6056" stroke-width="0.262" points="131.389,290.727 
			130.903,294.255 132.488,290.727 131.956,294.255 133.536,290.692 133.201,294.255 134.733,290.692 134.398,294.255 
			135.882,290.692 135.695,294.226 136.888,290.692 136.701,294.226 137.94,290.692 137.797,294.255 139.185,290.692 
			138.947,294.255 		"/>
		<polyline clip-path="url(#SVGID_10_)" fill="none" stroke="#6B6056" stroke-width="0.262" points="139.931,290.727 
			139.445,294.255 141.03,290.727 140.498,294.255 142.078,290.692 141.743,294.255 143.275,290.692 142.94,294.255 
			144.424,290.692 144.237,294.226 145.43,290.692 145.243,294.226 146.482,290.692 146.339,294.255 147.726,290.692 
			147.489,294.255 		"/>
		<polyline clip-path="url(#SVGID_10_)" fill="none" stroke="#6B6056" stroke-width="0.262" points="148.473,290.727 
			147.987,294.255 149.572,290.727 149.04,294.255 150.62,290.692 150.285,294.255 151.817,290.692 151.482,294.255 
			152.966,290.692 152.779,294.226 153.972,290.692 153.785,294.226 155.023,290.692 154.881,294.255 156.268,290.692 
			156.031,294.255 		"/>
		<polyline clip-path="url(#SVGID_10_)" fill="none" stroke="#6B6056" stroke-width="0.262" points="157.015,290.727 
			156.529,294.255 158.114,290.727 157.583,294.255 159.162,290.692 158.827,294.255 160.359,290.692 160.024,294.255 
			161.509,290.692 161.321,294.226 162.514,290.692 162.327,294.226 163.565,290.692 163.422,294.255 164.811,290.692 
			164.573,294.255 		"/>
		<polyline clip-path="url(#SVGID_10_)" fill="none" stroke="#6B6056" stroke-width="0.262" points="165.557,290.727 
			165.071,294.255 166.656,290.727 166.125,294.255 167.704,290.692 167.369,294.255 168.901,290.692 168.566,294.255 
			170.05,290.692 169.863,294.226 171.056,290.692 170.869,294.226 172.107,290.692 171.964,294.255 173.353,290.692 
			173.115,294.255 		"/>
		<polyline clip-path="url(#SVGID_10_)" fill="none" stroke="#6B6056" stroke-width="0.262" points="174.099,290.727 
			173.613,294.255 175.198,290.727 174.666,294.255 176.246,290.692 175.911,294.255 177.442,290.692 177.108,294.255 
			178.592,290.692 178.405,294.226 179.598,290.692 179.411,294.226 180.649,290.692 180.507,294.255 181.895,290.692 
			181.657,294.255 		"/>
		<polyline clip-path="url(#SVGID_10_)" fill="none" stroke="#6B6056" stroke-width="0.262" points="182.641,290.727 
			182.155,294.255 183.74,290.727 183.208,294.255 184.788,290.692 184.453,294.255 185.984,290.692 185.649,294.255 
			187.134,290.692 186.947,294.226 188.14,290.692 187.953,294.226 189.191,290.692 189.049,294.255 190.437,290.692 
			190.199,294.255 		"/>
		<polyline clip-path="url(#SVGID_10_)" fill="none" stroke="#6B6056" stroke-width="0.262" points="191.183,290.727 
			190.697,294.255 192.282,290.727 191.75,294.255 193.33,290.692 192.995,294.255 194.526,290.692 194.191,294.255 
			195.676,290.692 195.489,294.226 196.682,290.692 196.495,294.226 197.733,290.692 197.591,294.255 198.978,290.692 
			198.741,294.255 		"/>
		<polyline clip-path="url(#SVGID_10_)" fill="none" stroke="#6B6056" stroke-width="0.262" points="199.725,290.727 
			199.239,294.255 200.824,290.727 200.292,294.255 201.872,290.692 201.537,294.255 203.068,290.692 202.733,294.255 
			204.218,290.692 204.031,294.226 205.224,290.692 205.037,294.226 206.274,290.692 206.133,294.255 207.52,290.692 
			207.283,294.255 		"/>
		<polyline clip-path="url(#SVGID_10_)" fill="none" stroke="#6B6056" stroke-width="0.262" points="208.266,290.727 
			207.78,294.255 209.365,290.727 208.834,294.255 210.413,290.692 210.078,294.255 211.611,290.692 211.276,294.255 
			212.76,290.692 212.572,294.226 213.765,290.692 213.578,294.226 214.817,290.692 214.674,294.255 216.062,290.692 
			215.824,294.255 		"/>
		<polyline clip-path="url(#SVGID_10_)" fill="none" stroke="#6B6056" stroke-width="0.262" points="216.808,290.727 
			216.322,294.255 217.907,290.727 217.376,294.255 218.955,290.692 218.62,294.255 220.153,290.692 219.818,294.255 
			221.301,290.692 221.114,294.226 222.307,290.692 222.12,294.226 223.359,290.692 223.216,294.255 224.604,290.692 
			224.366,294.255 		"/>
		<polyline clip-path="url(#SVGID_10_)" fill="none" stroke="#6B6056" stroke-width="0.262" points="225.35,290.727 
			224.864,294.255 226.449,290.727 225.917,294.255 227.497,290.692 227.162,294.255 228.694,290.692 228.36,294.255 
			229.843,290.692 229.656,294.226 230.849,290.692 230.662,294.226 231.901,290.692 231.758,294.255 233.146,290.692 
			232.908,294.255 		"/>
		<polyline clip-path="url(#SVGID_10_)" fill="none" stroke="#6B6056" stroke-width="0.262" points="233.892,290.727 
			233.406,294.255 234.991,290.727 234.459,294.255 236.039,290.692 235.704,294.255 237.236,290.692 236.901,294.255 
			238.385,290.692 238.198,294.226 239.391,290.692 239.204,294.226 240.443,290.692 240.3,294.255 241.688,290.692 241.45,294.255 
					"/>
		<polyline clip-path="url(#SVGID_10_)" fill="none" stroke="#6B6056" stroke-width="0.262" points="242.434,290.727 
			241.948,294.255 243.533,290.727 243.001,294.255 244.581,290.692 244.246,294.255 245.778,290.692 245.443,294.255 
			246.927,290.692 246.74,294.226 247.933,290.692 247.746,294.226 248.984,290.692 248.842,294.255 250.229,290.692 
			249.992,294.255 		"/>
		<polyline clip-path="url(#SVGID_10_)" fill="none" stroke="#6B6056" stroke-width="0.262" points="250.976,290.727 
			250.49,294.255 252.075,290.727 251.543,294.255 253.124,290.692 252.788,294.255 254.321,290.692 253.985,294.255 
			255.47,290.692 255.282,294.226 256.475,290.692 256.288,294.226 257.526,290.692 257.384,294.255 258.771,290.692 
			258.534,294.255 		"/>
		<polyline clip-path="url(#SVGID_10_)" fill="none" stroke="#6B6056" stroke-width="0.262" points="259.518,290.727 
			259.032,294.255 260.617,290.727 260.085,294.255 261.665,290.692 261.33,294.255 262.863,290.692 262.527,294.255 
			264.012,290.692 263.824,294.226 265.017,290.692 264.83,294.226 266.068,290.692 265.926,294.255 267.313,290.692 
			267.076,294.255 		"/>
		<polyline clip-path="url(#SVGID_10_)" fill="none" stroke="#6B6056" stroke-width="0.262" points="268.06,290.727 
			267.574,294.255 269.159,290.727 268.626,294.255 270.207,290.692 269.872,294.255 271.405,290.692 271.069,294.255 
			272.553,290.692 272.366,294.226 273.559,290.692 273.372,294.226 274.61,290.692 274.468,294.255 275.855,290.692 
			275.618,294.255 		"/>
		<polyline clip-path="url(#SVGID_10_)" fill="none" stroke="#6B6056" stroke-width="0.262" points="276.602,290.727 
			276.116,294.255 277.701,290.727 277.168,294.255 278.749,290.692 278.414,294.255 279.946,290.692 279.611,294.255 
			281.095,290.692 280.908,294.226 282.101,290.692 281.914,294.226 283.152,290.692 283.01,294.255 284.397,290.692 
			284.16,294.255 		"/>
		<polyline clip-path="url(#SVGID_10_)" fill="none" stroke="#6B6056" stroke-width="0.262" points="285.144,290.727 
			284.658,294.255 286.243,290.727 285.71,294.255 287.291,290.692 286.956,294.255 288.488,290.692 288.152,294.255 
			289.637,290.692 289.45,294.226 290.643,290.692 290.456,294.226 291.694,290.692 291.552,294.255 292.939,290.692 
			292.702,294.255 		"/>
		<polyline clip-path="url(#SVGID_10_)" fill="none" stroke="#6B6056" stroke-width="0.262" points="293.686,290.727 
			293.199,294.255 294.785,290.727 294.252,294.255 295.833,290.692 295.498,294.255 297.029,290.692 296.694,294.255 
			298.179,290.692 297.992,294.226 299.185,290.692 298.998,294.226 300.235,290.692 300.093,294.255 301.48,290.692 
			301.244,294.255 		"/>
		<polyline clip-path="url(#SVGID_10_)" fill="none" stroke="#6B6056" stroke-width="0.262" points="302.227,290.727 
			301.741,294.255 303.326,290.727 302.795,294.255 304.375,290.692 304.039,294.255 305.572,290.692 305.237,294.255 
			306.721,290.692 306.533,294.226 307.728,290.692 307.539,294.226 308.778,290.692 308.636,294.255 310.023,290.692 
			309.785,294.255 		"/>
		<polyline clip-path="url(#SVGID_10_)" fill="none" stroke="#6B6056" stroke-width="0.262" points="310.77,290.727 
			310.283,294.255 311.868,290.727 311.337,294.255 312.916,290.692 312.581,294.255 314.113,290.692 313.778,294.255 
			315.263,290.692 315.075,294.226 316.268,290.692 316.081,294.226 317.32,290.692 317.178,294.255 318.564,290.692 
			318.327,294.255 		"/>
		<polyline clip-path="url(#SVGID_10_)" fill="none" stroke="#6B6056" stroke-width="0.262" points="319.312,290.727 
			318.825,294.255 320.41,290.727 319.879,294.255 321.458,290.692 321.123,294.255 322.655,290.692 322.32,294.255 
			323.805,290.692 323.617,294.226 324.81,290.692 324.623,294.226 325.861,290.692 325.72,294.255 327.106,290.692 
			326.869,294.255 		"/>
		<polyline clip-path="url(#SVGID_10_)" fill="none" stroke="#6B6056" stroke-width="0.262" points="327.853,290.727 
			327.367,294.255 328.952,290.727 328.421,294.255 329.999,290.692 329.664,294.255 331.197,290.692 330.862,294.255 
			332.347,290.692 332.159,294.226 333.352,290.692 333.164,294.226 334.403,290.692 334.261,294.255 335.648,290.692 
			335.411,294.255 		"/>
		<polyline clip-path="url(#SVGID_10_)" fill="none" stroke="#6B6056" stroke-width="0.262" points="336.395,290.727 
			335.909,294.255 337.494,290.727 336.963,294.255 338.541,290.692 338.206,294.255 339.739,290.692 339.404,294.255 
			340.889,290.692 340.701,294.226 341.894,290.692 341.706,294.226 342.945,290.692 342.803,294.255 344.19,290.692 
			343.953,294.255 		"/>
		<polyline clip-path="url(#SVGID_10_)" fill="none" stroke="#6B6056" stroke-width="0.262" points="344.937,290.727 
			344.451,294.255 346.036,290.727 345.504,294.255 347.083,290.692 346.748,294.255 348.281,290.692 347.946,294.255 
			349.43,290.692 349.243,294.226 350.436,290.692 350.248,294.226 351.487,290.692 351.345,294.255 352.732,290.692 
			352.495,294.255 		"/>
		<polyline clip-path="url(#SVGID_10_)" fill="none" stroke="#6B6056" stroke-width="0.262" points="353.479,290.727 
			352.992,294.255 354.578,290.727 354.046,294.255 355.625,290.692 355.29,294.255 356.823,290.692 356.488,294.255 
			357.972,290.692 357.785,294.226 358.978,290.692 358.79,294.226 360.029,290.692 359.887,294.255 361.274,290.692 
			361.037,294.255 		"/>
		<polyline clip-path="url(#SVGID_10_)" fill="none" stroke="#6B6056" stroke-width="0.262" points="362.021,290.727 
			361.534,294.255 363.12,290.727 362.588,294.255 364.168,290.692 363.832,294.255 365.365,290.692 365.03,294.255 
			366.514,290.692 366.327,294.226 367.52,290.692 367.332,294.226 368.571,290.692 368.429,294.255 369.816,290.692 
			369.578,294.255 		"/>
		<polyline clip-path="url(#SVGID_10_)" fill="none" stroke="#6B6056" stroke-width="0.262" points="370.563,290.727 
			370.076,294.255 371.661,290.727 371.13,294.255 372.709,290.692 372.374,294.255 373.907,290.692 373.572,294.255 
			375.056,290.692 374.869,294.226 376.062,290.692 375.874,294.226 377.113,290.692 376.971,294.255 378.358,290.692 
			378.12,294.255 		"/>
		<polyline clip-path="url(#SVGID_10_)" fill="none" stroke="#6B6056" stroke-width="0.262" points="379.104,290.727 
			378.618,294.255 380.203,290.727 379.672,294.255 381.252,290.692 380.916,294.255 382.449,290.692 382.114,294.255 
			383.598,290.692 383.41,294.226 384.604,290.692 384.416,294.226 385.655,290.692 385.513,294.255 386.9,290.692 386.662,294.255 
					"/>
		<polyline clip-path="url(#SVGID_10_)" fill="none" stroke="#6B6056" stroke-width="0.262" points="387.646,290.727 
			387.16,294.255 388.745,290.727 388.214,294.255 389.794,290.692 389.459,294.255 390.991,290.692 390.656,294.255 
			392.14,290.692 391.952,294.226 393.146,290.692 392.959,294.226 394.197,290.692 394.055,294.255 395.442,290.692 
			395.204,294.255 		"/>
		<polyline clip-path="url(#SVGID_10_)" fill="none" stroke="#6B6056" stroke-width="0.262" points="396.188,290.727 
			395.702,294.255 397.287,290.727 396.756,294.255 398.336,290.692 398,294.255 399.533,290.692 399.198,294.255 400.682,290.692 
			400.494,294.226 401.688,290.692 401.5,294.226 402.739,290.692 402.597,294.255 403.984,290.692 403.746,294.255 		"/>
		<polyline clip-path="url(#SVGID_10_)" fill="none" stroke="#6B6056" stroke-width="0.262" points="404.73,290.727 
			404.244,294.255 405.829,290.727 405.298,294.255 406.878,290.692 406.543,294.255 408.074,290.692 407.739,294.255 
			409.224,290.692 409.036,294.226 410.229,290.692 410.043,294.226 411.281,290.692 411.139,294.255 412.526,290.692 
			412.288,294.255 		"/>
		<polyline clip-path="url(#SVGID_10_)" fill="none" stroke="#6B6056" stroke-width="0.262" points="413.272,290.727 
			412.786,294.255 414.371,290.727 413.84,294.255 415.42,290.692 415.084,294.255 416.616,290.692 416.281,294.255 
			417.766,290.692 417.578,294.226 418.771,290.692 418.584,294.226 419.823,290.692 419.681,294.255 421.067,290.692 
			420.83,294.255 		"/>
		<polyline clip-path="url(#SVGID_10_)" fill="none" stroke="#6B6056" stroke-width="0.262" points="421.814,290.727 
			421.328,294.255 422.913,290.727 422.382,294.255 423.962,290.692 423.627,294.255 425.158,290.692 424.823,294.255 
			426.308,290.692 426.12,294.226 427.313,290.692 427.127,294.226 428.364,290.692 428.223,294.255 429.609,290.692 
			429.372,294.255 		"/>
		<polyline clip-path="url(#SVGID_10_)" fill="none" stroke="#6B6056" stroke-width="0.262" points="430.355,290.727 
			429.87,294.255 431.455,290.727 430.924,294.255 432.503,290.692 432.168,294.255 433.7,290.692 433.365,294.255 434.85,290.692 
			434.662,294.226 435.854,290.692 435.668,294.226 436.906,290.692 436.764,294.255 438.151,290.692 437.914,294.255 		"/>
		<polyline clip-path="url(#SVGID_10_)" fill="none" stroke="#6B6056" stroke-width="0.262" points="438.897,290.727 
			438.412,294.255 439.997,290.727 439.466,294.255 441.045,290.692 440.709,294.255 442.242,290.692 441.907,294.255 
			443.391,290.692 443.204,294.226 444.396,290.692 444.209,294.226 445.448,290.692 445.306,294.255 446.693,290.692 
			446.456,294.255 		"/>
		<polyline clip-path="url(#SVGID_10_)" fill="none" stroke="#6B6056" stroke-width="0.262" points="447.439,290.727 
			446.954,294.255 448.539,290.727 448.007,294.255 449.587,290.692 449.252,294.255 450.784,290.692 450.449,294.255 
			451.933,290.692 451.746,294.226 452.938,290.692 452.752,294.226 453.99,290.692 453.848,294.255 455.235,290.692 
			454.998,294.255 		"/>
		<polyline clip-path="url(#SVGID_10_)" fill="none" stroke="#6B6056" stroke-width="0.262" points="455.981,290.727 
			455.495,294.255 457.081,290.727 456.549,294.255 458.128,290.692 457.793,294.255 459.326,290.692 458.991,294.255 
			460.475,290.692 460.288,294.226 461.48,290.692 461.293,294.226 462.532,290.692 462.39,294.255 463.777,290.692 
			463.539,294.255 		"/>
		<polyline clip-path="url(#SVGID_10_)" fill="none" stroke="#6B6056" stroke-width="0.262" points="464.523,290.727 
			464.037,294.255 465.623,290.727 465.091,294.255 466.67,290.692 466.335,294.255 467.868,290.692 467.533,294.255 
			469.017,290.692 468.83,294.226 470.022,290.692 469.835,294.226 471.074,290.692 470.932,294.255 472.319,290.692 
			472.081,294.255 		"/>
		<polyline clip-path="url(#SVGID_10_)" fill="none" stroke="#6B6056" stroke-width="0.262" points="473.065,290.727 
			472.579,294.255 474.164,290.727 473.633,294.255 475.212,290.692 474.877,294.255 476.41,290.692 476.075,294.255 
			477.559,290.692 477.371,294.226 478.564,290.692 478.377,294.226 479.616,290.692 479.474,294.255 480.861,290.692 
			480.623,294.255 		"/>
		<polyline clip-path="url(#SVGID_10_)" fill="none" stroke="#6B6056" stroke-width="0.262" points="481.607,290.727 
			481.121,294.255 482.706,290.727 482.175,294.255 483.754,290.692 483.419,294.255 484.952,290.692 484.617,294.255 
			486.101,290.692 485.913,294.226 487.106,290.692 486.919,294.226 488.158,290.692 488.016,294.255 489.403,290.692 
			489.165,294.255 		"/>
		<polyline clip-path="url(#SVGID_10_)" fill="none" stroke="#6B6056" stroke-width="0.262" points="490.149,290.727 
			489.663,294.255 491.248,290.727 490.717,294.255 492.297,290.692 491.961,294.255 493.494,290.692 493.159,294.255 
			494.643,290.692 494.455,294.226 495.648,290.692 495.461,294.226 496.7,290.692 496.558,294.255 497.945,290.692 
			497.707,294.255 		"/>
		<polyline clip-path="url(#SVGID_10_)" fill="none" stroke="#6B6056" stroke-width="0.262" points="498.691,290.727 
			498.205,294.255 499.79,290.727 499.259,294.255 500.838,290.692 500.503,294.255 502.035,290.692 501.701,294.255 
			503.185,290.692 502.997,294.226 504.19,290.692 504.003,294.226 505.242,290.692 505.1,294.255 506.487,290.692 506.249,294.255 
					"/>
		<polyline clip-path="url(#SVGID_10_)" fill="none" stroke="#6B6056" stroke-width="0.262" points="507.233,290.727 
			506.747,294.255 508.332,290.727 507.801,294.255 509.381,290.692 509.045,294.255 510.577,290.692 510.242,294.255 
			511.727,290.692 511.539,294.226 512.731,290.692 512.545,294.226 513.784,290.692 513.642,294.255 515.029,290.692 
			514.791,294.255 		"/>
		<polyline clip-path="url(#SVGID_10_)" fill="none" stroke="#6B6056" stroke-width="0.262" points="515.775,290.727 
			515.289,294.255 516.874,290.727 516.343,294.255 517.922,290.692 517.587,294.255 519.119,290.692 518.784,294.255 
			520.269,290.692 520.081,294.226 521.273,290.692 521.087,294.226 522.326,290.692 522.184,294.255 523.57,290.692 
			523.333,294.255 		"/>
		<polyline clip-path="url(#SVGID_10_)" fill="none" stroke="#6B6056" stroke-width="0.262" points="524.316,290.727 
			523.831,294.255 525.416,290.727 524.885,294.255 526.465,290.692 526.128,294.255 527.661,290.692 527.326,294.255 
			528.811,290.692 528.623,294.226 529.815,290.692 529.628,294.226 530.867,290.692 530.725,294.255 532.112,290.692 
			531.875,294.255 		"/>
		<polyline clip-path="url(#SVGID_10_)" fill="none" stroke="#6B6056" stroke-width="0.262" points="532.858,290.727 
			532.373,294.255 533.958,290.727 533.427,294.255 535.006,290.692 534.67,294.255 536.203,290.692 535.868,294.255 
			537.353,290.692 537.165,294.226 538.357,290.692 538.17,294.226 539.409,290.692 539.267,294.255 540.654,290.692 
			540.417,294.255 		"/>
		<polyline clip-path="url(#SVGID_10_)" fill="none" stroke="#6B6056" stroke-width="0.262" points="541.4,290.727 540.915,294.255 
			542.5,290.727 541.969,294.255 543.547,290.692 543.212,294.255 544.745,290.692 544.41,294.255 545.894,290.692 545.707,294.226 
			546.899,290.692 546.712,294.226 547.951,290.692 547.809,294.255 549.196,290.692 548.959,294.255 		"/>
		<polyline clip-path="url(#SVGID_10_)" fill="none" stroke="#6B6056" stroke-width="0.262" points="549.942,290.727 
			549.457,294.255 551.042,290.727 550.51,294.255 552.09,290.692 551.754,294.255 553.287,290.692 552.952,294.255 
			554.436,290.692 554.249,294.226 555.441,290.692 555.254,294.226 556.493,290.692 556.351,294.255 557.738,290.692 
			557.5,294.255 		"/>
		<polyline clip-path="url(#SVGID_10_)" fill="none" stroke="#6B6056" stroke-width="0.262" points="557.955,290.024 
			561.483,290.511 557.955,288.925 561.483,289.458 557.921,287.877 561.483,288.213 557.921,286.679 561.483,287.014 
			557.921,285.529 561.454,285.717 557.921,284.523 561.454,284.711 557.921,283.471 561.483,283.613 557.921,282.226 
			561.483,282.463 		"/>
		<polyline clip-path="url(#SVGID_10_)" fill="none" stroke="#6B6056" stroke-width="0.262" points="557.955,281.479 
			561.483,281.965 557.955,280.379 561.483,280.912 557.921,279.331 561.483,279.667 557.921,278.133 561.483,278.468 
			557.921,276.983 561.454,277.171 557.921,275.978 561.454,276.165 557.921,274.925 561.483,275.067 557.921,273.679 
			561.483,273.917 		"/>
		<polyline clip-path="url(#SVGID_10_)" fill="none" stroke="#6B6056" stroke-width="0.262" points="557.955,272.933 
			561.483,273.419 557.955,271.833 561.483,272.366 557.921,270.785 561.483,271.121 557.921,269.587 561.483,269.922 
			557.921,268.438 561.454,268.625 557.921,267.432 561.454,267.619 557.921,266.379 561.483,266.521 557.921,265.134 
			561.483,265.371 		"/>
		<polyline clip-path="url(#SVGID_10_)" fill="none" stroke="#6B6056" stroke-width="0.262" points="557.955,264.387 
			561.483,264.873 557.955,263.287 561.483,263.82 557.921,262.239 561.483,262.575 557.921,261.041 561.483,261.376 
			557.921,259.892 561.454,260.079 557.921,258.886 561.454,259.073 557.921,257.833 561.483,257.976 557.921,256.587 
			561.483,256.825 		"/>
		<polyline clip-path="url(#SVGID_10_)" fill="none" stroke="#6B6056" stroke-width="0.262" points="557.955,255.841 
			561.483,256.327 557.955,254.741 561.483,255.274 557.921,253.693 561.483,254.029 557.921,252.495 561.483,252.83 
			557.921,251.346 561.454,251.533 557.921,250.34 561.454,250.527 557.921,249.287 561.483,249.43 557.921,248.042 
			561.483,248.279 		"/>
		<polyline clip-path="url(#SVGID_10_)" fill="none" stroke="#6B6056" stroke-width="0.262" points="557.955,247.295 
			561.483,247.781 557.955,246.195 561.483,246.729 557.921,245.147 561.483,245.483 557.921,243.949 561.483,244.284 
			557.921,242.8 561.454,242.987 557.921,241.794 561.454,241.981 557.921,240.741 561.483,240.884 557.921,239.495 
			561.483,239.733 		"/>
		<polyline clip-path="url(#SVGID_10_)" fill="none" stroke="#6B6056" stroke-width="0.262" points="557.955,238.749 
			561.483,239.235 557.955,237.649 561.483,238.183 557.921,236.602 561.483,236.938 557.921,235.403 561.483,235.738 
			557.921,234.254 561.454,234.441 557.921,233.248 561.454,233.436 557.921,232.195 561.483,232.338 557.921,230.95 
			561.483,231.188 		"/>
		<polyline clip-path="url(#SVGID_10_)" fill="none" stroke="#6B6056" stroke-width="0.262" points="557.955,230.203 
			561.483,230.689 557.955,229.104 561.483,229.637 557.921,228.056 561.483,228.392 557.921,226.857 561.483,227.192 
			557.921,225.708 561.454,225.896 557.921,224.702 561.454,224.89 557.921,223.649 561.483,223.792 557.921,222.404 
			561.483,222.642 		"/>
		<polyline clip-path="url(#SVGID_10_)" fill="none" stroke="#6B6056" stroke-width="0.262" points="557.955,221.657 
			561.483,222.144 557.955,220.558 561.483,221.091 557.921,219.51 561.483,219.846 557.921,218.312 561.483,218.646 
			557.921,217.162 561.454,217.35 557.921,216.156 561.454,216.344 557.921,215.104 561.483,215.246 557.921,213.858 
			561.483,214.096 		"/>
		<polyline clip-path="url(#SVGID_10_)" fill="none" stroke="#6B6056" stroke-width="0.262" points="557.955,213.111 
			561.483,213.598 557.955,212.012 561.483,212.545 557.921,210.964 561.483,211.3 557.921,209.766 561.483,210.101 
			557.921,208.616 561.454,208.804 557.921,207.61 561.454,207.798 557.921,206.558 561.483,206.7 557.921,205.313 561.483,205.55 
					"/>
		<polyline clip-path="url(#SVGID_10_)" fill="none" stroke="#6B6056" stroke-width="0.262" points="557.955,204.565 
			561.483,205.052 557.955,203.466 561.483,203.999 557.921,202.418 561.483,202.754 557.921,201.22 561.483,201.555 
			557.921,200.07 561.454,200.258 557.921,199.064 561.454,199.252 557.921,198.012 561.483,198.154 557.921,196.767 
			561.483,197.004 		"/>
		<polyline clip-path="url(#SVGID_10_)" fill="none" stroke="#6B6056" stroke-width="0.262" points="557.955,196.02 
			561.483,196.506 557.955,194.92 561.483,195.453 557.921,193.872 561.483,194.208 557.921,192.674 561.483,193.009 
			557.921,191.524 561.454,191.712 557.921,190.519 561.454,190.706 557.921,189.466 561.483,189.608 557.921,188.221 
			561.483,188.458 		"/>
		<polyline clip-path="url(#SVGID_10_)" fill="none" stroke="#6B6056" stroke-width="0.262" points="557.955,187.474 
			561.483,187.96 557.955,186.374 561.483,186.907 557.921,185.326 561.483,185.662 557.921,184.128 561.483,184.463 
			557.921,182.979 561.454,183.166 557.921,181.973 561.454,182.16 557.921,180.92 561.483,181.063 557.921,179.675 
			561.483,179.912 		"/>
		<polyline clip-path="url(#SVGID_10_)" fill="none" stroke="#6B6056" stroke-width="0.262" points="557.955,178.928 
			561.483,179.414 557.955,177.828 561.483,178.361 557.921,176.78 561.483,177.116 557.921,175.582 561.483,175.917 
			557.921,174.433 561.454,174.62 557.921,173.427 561.454,173.614 557.921,172.374 561.483,172.517 557.921,171.129 
			561.483,171.366 		"/>
		<polyline clip-path="url(#SVGID_10_)" fill="none" stroke="#6B6056" stroke-width="0.262" points="557.955,170.382 
			561.483,170.868 557.955,169.282 561.483,169.815 557.921,168.234 561.483,168.57 557.921,167.036 561.483,167.371 
			557.921,165.887 561.454,166.074 557.921,164.881 561.454,165.068 557.921,163.828 561.483,163.971 557.921,162.583 
			561.483,162.82 		"/>
		<polyline clip-path="url(#SVGID_10_)" fill="none" stroke="#6B6056" stroke-width="0.262" points="557.955,161.836 
			561.483,162.322 557.955,160.736 561.483,161.268 557.921,159.688 561.483,160.024 557.921,158.49 561.483,158.825 
			557.921,157.341 561.454,157.528 557.921,156.335 561.454,156.522 557.921,155.282 561.483,155.425 557.921,154.037 
			561.483,154.274 		"/>
		<polyline clip-path="url(#SVGID_10_)" fill="none" stroke="#6B6056" stroke-width="0.262" points="557.955,153.29 
			561.483,153.776 557.955,152.19 561.483,152.722 557.921,151.142 561.483,151.479 557.921,149.944 561.483,150.279 
			557.921,148.795 561.454,148.982 557.921,147.789 561.454,147.976 557.921,146.736 561.483,146.879 557.921,145.491 
			561.483,145.729 		"/>
		<polyline clip-path="url(#SVGID_10_)" fill="none" stroke="#6B6056" stroke-width="0.262" points="557.955,144.744 
			561.483,145.23 557.955,143.645 561.483,144.176 557.921,142.596 561.483,142.933 557.921,141.398 561.483,141.733 
			557.921,140.25 561.454,140.437 557.921,139.243 561.454,139.43 557.921,138.19 561.483,138.333 557.921,136.945 561.483,137.183 
					"/>
		<polyline clip-path="url(#SVGID_10_)" fill="none" stroke="#6B6056" stroke-width="0.262" points="557.955,136.198 
			561.483,136.685 557.955,135.099 561.483,135.63 557.921,134.05 561.483,134.387 557.921,132.853 561.483,133.188 
			557.921,131.704 561.454,131.891 557.921,130.697 561.454,130.884 557.921,129.645 561.483,129.788 557.921,128.399 
			561.483,128.637 		"/>
		<polyline clip-path="url(#SVGID_10_)" fill="none" stroke="#6B6056" stroke-width="0.262" points="557.955,127.652 
			561.483,128.139 557.955,126.553 561.483,127.084 557.921,125.504 561.483,125.841 557.921,124.307 561.483,124.642 
			557.921,123.158 561.454,123.345 557.921,122.151 561.454,122.338 557.921,121.099 561.483,121.242 557.921,119.854 
			561.483,120.091 		"/>
		<polyline clip-path="url(#SVGID_10_)" fill="none" stroke="#6B6056" stroke-width="0.262" points="557.955,119.106 
			561.483,119.593 557.955,118.007 561.483,118.539 557.921,116.958 561.483,117.295 557.921,115.761 561.483,116.096 
			557.921,114.612 561.454,114.799 557.921,113.605 561.454,113.792 557.921,112.553 561.483,112.696 557.921,111.308 
			561.483,111.545 		"/>
		<polyline clip-path="url(#SVGID_10_)" fill="none" stroke="#6B6056" stroke-width="0.262" points="557.955,110.561 
			561.483,111.047 557.955,109.461 561.483,109.993 557.921,108.413 561.483,108.749 557.921,107.215 561.483,107.55 
			557.921,106.066 561.454,106.253 557.921,105.06 561.454,105.247 557.921,104.007 561.483,104.15 557.921,102.762 
			561.483,102.999 		"/>
		<polyline clip-path="url(#SVGID_10_)" fill="none" stroke="#6B6056" stroke-width="0.262" points="557.955,102.015 
			561.483,102.501 557.955,100.915 561.483,101.447 557.921,99.867 561.483,100.203 557.921,98.669 561.483,99.004 557.921,97.52 
			561.454,97.707 557.921,96.514 561.454,96.701 557.921,95.461 561.483,95.604 557.921,94.216 561.483,94.453 		"/>
		<polyline clip-path="url(#SVGID_10_)" fill="none" stroke="#6B6056" stroke-width="0.262" points="557.955,93.469 561.483,93.955 
			557.955,92.369 561.483,92.901 557.921,91.321 561.483,91.657 557.921,90.123 561.483,90.458 557.921,88.974 561.454,89.161 
			557.921,87.968 561.454,88.155 557.921,86.915 561.483,87.058 557.921,85.67 561.483,85.907 		"/>
		<polyline clip-path="url(#SVGID_10_)" fill="none" stroke="#6B6056" stroke-width="0.262" points="557.955,84.923 561.483,85.409 
			557.955,83.823 561.483,84.355 557.921,82.775 561.483,83.111 557.921,81.577 561.483,81.912 557.921,80.428 561.454,80.615 
			557.921,79.422 561.454,79.609 557.921,78.369 561.483,78.512 557.921,77.124 561.483,77.362 		"/>
		<polyline clip-path="url(#SVGID_10_)" fill="none" stroke="#6B6056" stroke-width="0.262" points="557.955,76.377 561.483,76.863 
			557.955,75.277 561.483,75.81 557.921,74.229 561.483,74.565 557.921,73.031 561.483,73.366 557.921,71.882 561.454,72.069 
			557.921,70.876 561.454,71.063 557.921,69.823 561.483,69.966 557.921,68.578 561.483,68.816 		"/>
		<polyline clip-path="url(#SVGID_10_)" fill="none" stroke="#6B6056" stroke-width="0.262" points="557.955,67.831 561.483,68.317 
			557.955,66.731 561.483,67.264 557.921,65.683 561.483,66.02 557.921,64.485 561.483,64.82 557.921,63.336 561.454,63.523 
			557.921,62.33 561.454,62.517 557.921,61.277 561.483,61.42 557.921,60.032 561.483,60.271 		"/>
		<polyline clip-path="url(#SVGID_10_)" fill="none" stroke="#6B6056" stroke-width="0.262" points="557.955,59.285 561.483,59.771 
			557.955,58.186 561.483,58.718 557.921,57.137 561.483,57.474 557.921,55.939 561.483,56.274 557.921,54.791 561.454,54.978 
			557.921,53.784 561.454,53.971 557.921,52.731 561.483,52.875 557.921,51.486 561.483,51.725 		"/>
		<polyline clip-path="url(#SVGID_10_)" fill="none" stroke="#6B6056" stroke-width="0.262" points="557.955,50.739 561.483,51.226 
			557.955,49.64 561.483,50.172 557.921,48.591 561.483,48.928 557.921,47.394 561.483,47.729 557.921,46.245 561.454,46.432 
			557.921,45.238 561.454,45.425 557.921,44.186 561.483,44.329 557.921,42.94 561.483,43.179 		"/>
		<polyline clip-path="url(#SVGID_10_)" fill="none" stroke="#6B6056" stroke-width="0.262" points="50.282,39.422 53.815,39.235 
			50.282,40.425 53.815,40.238 50.282,41.475 53.843,41.333 50.282,42.717 53.843,42.48 		"/>
		<polyline clip-path="url(#SVGID_10_)" fill="none" stroke="#6B6056" stroke-width="0.262" points="50.509,42.756 50.322,39.224 
			51.51,42.756 51.324,39.224 52.562,42.756 52.419,39.196 53.803,42.756 53.566,39.196 		"/>
		<polyline clip-path="url(#SVGID_10_)" fill="none" stroke="#6B6056" stroke-width="0.262" points="50.509,294.255 50.322,290.722 
			51.512,294.255 51.324,290.722 52.562,294.255 52.42,290.693 53.804,294.255 53.567,290.693 		"/>
		<polyline clip-path="url(#SVGID_10_)" fill="none" stroke="#6B6056" stroke-width="0.262" points="53.843,294.027 50.31,294.215 
			53.843,293.025 50.31,293.214 53.843,291.976 50.282,292.117 53.843,290.733 50.282,290.971 		"/>
		<polyline clip-path="url(#SVGID_10_)" fill="none" stroke="#6B6056" stroke-width="0.262" points="561.483,294.028 
			557.95,294.216 561.483,293.024 557.95,293.213 561.483,291.976 557.922,292.117 561.483,290.733 557.922,290.97 		"/>
		<polyline clip-path="url(#SVGID_10_)" fill="none" stroke="#6B6056" stroke-width="0.262" points="561.256,290.693 
			561.443,294.227 560.254,290.693 560.441,294.227 559.204,290.693 559.346,294.255 557.962,290.693 558.199,294.255 		"/>
		<polyline clip-path="url(#SVGID_10_)" fill="none" stroke="#6B6056" stroke-width="0.262" points="561.256,39.195 561.443,42.729 
			560.253,39.195 560.441,42.729 559.203,39.195 559.346,42.756 557.961,39.195 558.198,42.756 		"/>
		<polyline clip-path="url(#SVGID_10_)" fill="none" stroke="#6B6056" stroke-width="0.262" points="557.922,39.423 561.455,39.235 
			557.922,40.424 561.455,40.237 557.922,41.474 561.482,41.333 557.922,42.716 561.482,42.479 		"/>
	</g>
     </g>
	<g clip-path="url(#SVGID_2_)">
		<defs>
			<rect id="SVGID_24_" width="612" height="333.043"/>
		</defs>
		<clipPath id="SVGID_25_">
			<use xlink:href="#SVGID_24_"  overflow="visible"/>
		</clipPath>
		<g opacity="0.14" clip-path="url(#SVGID_25_)">
			<g>
				<defs>
					<rect id="SVGID_26_" x="53.746" y="42.042" width="503.976" height="248.267"/>
				</defs>
				<clipPath id="SVGID_27_">
					<use xlink:href="#SVGID_26_"  overflow="visible"/>
				</clipPath>
				<g clip-path="url(#SVGID_27_)">
					<defs>
						<rect id="SVGID_28_" x="53.746" y="42.042" width="503.977" height="248.268"/>
					</defs>
					<clipPath id="SVGID_29_">
						<use xlink:href="#SVGID_28_"  overflow="visible"/>
					</clipPath>
					<g clip-path="url(#SVGID_29_)">
						
							<!--<image overflow="visible" width="1896" height="934" xlink:href="CCC460A9.jpg"  transform="matrix(0.2658 0 0 0.2658 53.7461 42.042)">
						</image>-->
					</g>
				</g>
			</g>
		</g>
	</g>
</g>
 
</svg>
