<?xml version="1.0" encoding="utf-8"?>
<!-- Generator: Adobe Illustrator 16.0.0, SVG Export Plug-In . SVG Version: 6.00 Build 0)  -->
<!DOCTYPE svg PUBLIC "-//W3C//DTD SVG 1.1//EN" "http://www.w3.org/Graphics/SVG/1.1/DTD/svg11.dtd">
<svg version="1.1" id="Layer_1" xmlns="http://www.w3.org/2000/svg" xmlns:xlink="http://www.w3.org/1999/xlink" x="0px" y="0px"
	 width="800.453px" height="1035.881px" viewBox="0 0 620 1035.881" enable-background="new 0 0 800.453 1035.881"
	 xml:space="preserve">
<g>
	<defs>
		<rect id="SVGID_1_" x="-79.711" y="33.936" width="777.711" height="1006.45"/>
	</defs>
	<clipPath id="SVGID_2_">
		<use xlink:href="#SVGID_1_"  overflow="visible"/>
	</clipPath>
	<g clip-path="url(#SVGID_2_)">
		<defs>
			<rect id="SVGID_3_" x="-79.711" y="33.936" width="777.711" height="1006.45"/>
		</defs>
		<clipPath id="SVGID_4_">
			<use xlink:href="#SVGID_3_"  overflow="visible"/>
		</clipPath>
		<path clip-path="url(#SVGID_4_)" d="M572.729,191.771c0,0,3.174,12.695,4.23,17.987c1.06,5.29,2.119,27.503,2.119,32.793
			c0,5.292,6.346,20.107,7.404,25.395c1.057,5.289,0.002,39.146,2.118,45.494c2.115,6.347,43.439,139.985,43.439,139.985
			s12.516,76.399,13.79,86.4c1.144,8.97,14.292,55.112,16.829,88.89c3.171,42.317-2.21,86.608-3.174,118.494
			c-1.059,34.909-16.929,120.612-16.929,120.612s-11.639,7.406-20.102,9.521c-8.464,2.115-95.221,9.523-148.119-2.115
			c-52.899-11.639-80.402-19.047-84.636-22.221c-4.235-3.171-5.29-26.451-5.29-26.451s-17.987-43.375-24.337-60.302
			c-6.348-16.929-31.737-103.679-31.737-118.49c0-14.813-5.292-28.568-5.292-28.568l-16.927,2.115c0,0-10.578,48.667-19.042,76.174
			c-8.465,27.509-47.609,124.841-47.609,124.841s-1.06,15.869-2.117,20.104c-1.059,4.233-5.288,10.582-5.288,10.582
			s-2.117,19.038-7.407,20.098c-5.29,1.061-11.639,2.118-11.639,2.118s-80.404,22.218-140.709,20.101
			C12,893.213-10.217,882.633-10.217,882.633s-6.349-6.35-6.349-12.693c0-6.352,1.058-22.221,1.058-22.221
			s-5.287-62.421-9.52-76.174c-4.235-13.757-12.695-118.497-6.349-152.353c6.349-33.854,20.108-129.073,25.394-143.884
			c5.289-14.814,34.913-106.856,34.913-115.321c0-8.465,4.23-34.913,5.291-41.26c1.055-6.348,4.229-23.277,4.229-32.799
			s6.35-20.103,6.35-26.45s4.233-9.522,4.233-13.753c0-4.232,2.115-25.391,2.115-29.625v-28.565c0,0,56.071-8.466,90.985-8.466
			c34.914,0,332.205-7.403,367.12-2.114C544.164,182.245,572.729,191.771,572.729,191.771"/>
	</g>
	<g clip-path="url(#SVGID_2_)">
		<defs>
			<rect id="SVGID_5_" x="-79.711" y="33.936" width="777.711" height="1006.45"/>
		</defs>
		<clipPath id="SVGID_6_">
			<use xlink:href="#SVGID_5_"  overflow="visible"/>
		</clipPath>
		<g opacity="0.3" clip-path="url(#SVGID_6_)">
			<g>
				<defs>
					<rect id="SVGID_7_" x="460.405" y="176.448" width="203.189" height="703.011"/>
				</defs>
				<clipPath id="SVGID_8_">
					<use xlink:href="#SVGID_7_"  overflow="visible"/>
				</clipPath>
				<g clip-path="url(#SVGID_8_)">
					<defs>
						<path id="SVGID_9_" d="M462.699,240.437c0,0-4.23,50.782,2.117,56.073c6.352,5.291,59.247,28.565,63.479,41.26
							c4.233,12.697-3.173,39.148-4.232,44.437c-1.058,5.289,38.085,35.971,32.796,42.32c-5.288,6.347,31.741,29.621,22.219,41.26
							c-9.52,11.637,5.29,68.773,12.697,88.873c7.406,20.1,21.156,40.201,13.754,61.36c-7.408,21.16,5.286,75.112,0,102.624
							c-5.293,27.508-4.233,47.609-15.873,65.595c-11.636,17.985-23.277,47.61-21.158,53.958c2.116,6.348,6.35,14.81,9.522,22.216
							c3.176,7.405,12.695,19.045,12.695,19.045s25.392,0.003,31.739-2.115c6.35-2.117,20.102-9.521,20.102-9.521
							s17.988-105.804,19.04-140.713c1.063-34.912,5.294-104.739-3.17-133.304c-8.465-28.568-14.809-67.714-19.04-96.279
							c-4.231-28.564-8.464-51.841-11.641-61.362c-3.173-9.523-39.146-122.723-39.146-122.723s-1.99-24.117-1.99-28.35
							c0-4.233,2.085-11.097-0.128-17.145c-3.522-9.627-8.46-29.628-8.46-39.15c0-9.521-5.294-37.025-5.294-37.025
							s-50.907-15.322-74.564-15.322h-37.759L462.699,240.437z"/>
					</defs>
					<clipPath id="SVGID_10_">
						<use xlink:href="#SVGID_9_"  overflow="visible"/>
					</clipPath>
					
						<linearGradient id="SVGID_11_" gradientUnits="userSpaceOnUse" x1="94.6216" y1="914.5078" x2="95.8921" y2="914.5078" gradientTransform="matrix(0 553.2143 -553.2143 0 506481.25 -52169.6484)">
						<stop  offset="0" style="stop-color:#887F76"/>
						<stop  offset="0.134" style="stop-color:#817870"/>
						<stop  offset="0.3336" style="stop-color:#6C655E"/>
						<stop  offset="0.5743" style="stop-color:#4B4641"/>
						<stop  offset="0.8446" style="stop-color:#1E1C1A"/>
						<stop  offset="1" style="stop-color:#000000"/>
					</linearGradient>
					<rect x="458.469" y="176.448" clip-path="url(#SVGID_10_)" fill="url(#SVGID_11_)" width="208.422" height="703.012"/>
				</g>
			</g>
		</g>
		<g opacity="0.3" clip-path="url(#SVGID_6_)">
			<g>
				<defs>
					<rect id="SVGID_12_" x="-6.357" y="176.448" width="372.464" height="718.902"/>
				</defs>
				<clipPath id="SVGID_13_">
					<use xlink:href="#SVGID_12_"  overflow="visible"/>
				</clipPath>
				<g clip-path="url(#SVGID_13_)">
					<defs>
						<path id="SVGID_14_" d="M357.751,176.448c0,0-20.603,116.347-14.519,137.034c6.085,20.688,51.109,51.109-4.869,87.617
							c-55.975,36.507-20.686,43.809-14.603,66.929c6.084,23.121-15.818,74.229-46.239,73.012
							c-30.424-1.216-77.881-25.553-102.22-10.95c-24.339,14.603-46.241-42.594-62.062,17.034
							c-15.819,59.63,4.869,77.882-15.819,109.521c-20.688,31.641-38.94,54.761-31.64,66.929
							c7.302,12.172,30.422,51.111,35.291,74.232c4.868,23.121,7.302,43.807,7.302,43.807s20.687,12.169,24.337,19.472
							c3.651,7.301,14.602,27.987,14.602,27.987s-62.274,12.029-119.342,2.788c-30.914-5.009-34.327-7.977-34.327-7.977
							s36.847-30.102,22.245-92.163c-14.602-62.063-3.648-49.895-7.302-109.521C4.937,622.571-2.365,576.33,25.623,521.573
							c27.991-54.762,54.76-131.427,53.544-154.547c-1.218-23.123-26.773-51.109,13.387-74.231
							c40.156-23.121,35.288-46.24,31.638-49.892c-3.652-3.65-21.304-61.144-21.304-61.144s53.378-2.392,121.533-2.951
							C296.396,178.22,357.751,176.448,357.751,176.448"/>
					</defs>
					<clipPath id="SVGID_15_">
						<use xlink:href="#SVGID_14_"  overflow="visible"/>
					</clipPath>
					
						<linearGradient id="SVGID_16_" gradientUnits="userSpaceOnUse" x1="94.667" y1="914.2549" x2="95.9383" y2="914.2549" gradientTransform="matrix(0 565.721 565.721 0 -517018.9375 -53263.3633)">
						<stop  offset="0" style="stop-color:#887F76"/>
						<stop  offset="0.134" style="stop-color:#817870"/>
						<stop  offset="0.3336" style="stop-color:#6C655E"/>
						<stop  offset="0.5743" style="stop-color:#4B4641"/>
						<stop  offset="0.8446" style="stop-color:#1E1C1A"/>
						<stop  offset="1" style="stop-color:#000000"/>
					</linearGradient>
					<rect x="-6.356" y="176.448" clip-path="url(#SVGID_15_)" fill="url(#SVGID_16_)" width="400.698" height="724.654"/>
				</g>
			</g>
		</g>
		<g opacity="0.5" clip-path="url(#SVGID_6_)">
			<g>
				<defs>
					<rect id="SVGID_17_" x="384.212" y="825.831" width="262.401" height="29.092"/>
				</defs>
				<clipPath id="SVGID_18_">
					<use xlink:href="#SVGID_17_"  overflow="visible"/>
				</clipPath>
				
					<path clip-path="url(#SVGID_18_)" fill="none" stroke="#887F76" stroke-width="1.181" stroke-miterlimit="10" stroke-dasharray="2.89,1.445" d="
					M384.41,826.555c0,0,103.125,28.326,161.792,27.604c91.738-1.127,99.918-8.305,99.918-8.305"/>
			</g>
		</g>
		<g opacity="0.5" clip-path="url(#SVGID_6_)">
			<g>
				<defs>
					<rect id="SVGID_19_" x="-16.697" y="852.288" width="248.961" height="16.16"/>
				</defs>
				<clipPath id="SVGID_20_">
					<use xlink:href="#SVGID_19_"  overflow="visible"/>
				</clipPath>
				
					<path clip-path="url(#SVGID_20_)" fill="none" stroke="#887F76" stroke-width="1.181" stroke-miterlimit="10" stroke-dasharray="2.89,1.445" d="
					M232.062,853.011c0,0-50.941,14.309-178.777,14.685c-73.534,0.217-69.182-10.149-69.182-10.149"/>
			</g>
		</g>
		<g opacity="0.5" clip-path="url(#SVGID_6_)">
			<g>
				<defs>
					<rect id="SVGID_21_" x="-17.985" y="835.809" width="257.624" height="19.787"/>
				</defs>
				<clipPath id="SVGID_22_">
					<use xlink:href="#SVGID_21_"  overflow="visible"/>
				</clipPath>
				
					<path clip-path="url(#SVGID_22_)" fill="none" stroke="#887F76" stroke-width="1.181" stroke-miterlimit="10" stroke-dasharray="2.89,1.445" d="
					M239.465,836.54c0,0-78.649,18.677-164.75,18.3c-86.097-0.374-92.114-7.893-92.114-7.893"/>
			</g>
		</g>
		<g opacity="0.5" clip-path="url(#SVGID_6_)">
			<g>
				<defs>
					<rect id="SVGID_23_" x="371.134" y="808.092" width="280.979" height="30.207"/>
				</defs>
				<clipPath id="SVGID_24_">
					<use xlink:href="#SVGID_23_"  overflow="visible"/>
				</clipPath>
				
					<path clip-path="url(#SVGID_24_)" fill="none" stroke="#887F76" stroke-width="1.181" stroke-miterlimit="10" stroke-dasharray="2.89,1.445" d="
					M651.476,823.845c0,0-10.53,16.921-107.909,13.161c-97.38-3.76-172.199-28.2-172.199-28.2"/>
			</g>
		</g>
		<g opacity="0.5" clip-path="url(#SVGID_6_)">
			<g>
				<defs>
					<rect id="SVGID_25_" x="53.047" y="234.123" width="527.04" height="24.481"/>
				</defs>
				<clipPath id="SVGID_26_">
					<use xlink:href="#SVGID_25_"  overflow="visible"/>
				</clipPath>
				
					<path clip-path="url(#SVGID_26_)" fill="none" stroke="#887F76" stroke-width="1.181" stroke-miterlimit="10" stroke-dasharray="2.89,1.445" d="
					M579.998,252.989c0,0-171.756-20.355-306.531-17.912C138.69,237.52,53.221,257.875,53.221,257.875"/>
			</g>
		</g>
		<g opacity="0.5" clip-path="url(#SVGID_6_)">
			<g>
				<defs>
					<rect id="SVGID_27_" x="52.637" y="214.582" width="527.041" height="24.482"/>
				</defs>
				<clipPath id="SVGID_28_">
					<use xlink:href="#SVGID_27_"  overflow="visible"/>
				</clipPath>
				
					<path clip-path="url(#SVGID_28_)" fill="none" stroke="#887F76" stroke-width="1.181" stroke-miterlimit="10" stroke-dasharray="2.89,1.445" d="
					M579.59,233.449c0,0-171.76-20.355-306.533-17.913C138.281,217.979,52.81,238.335,52.81,238.335"/>
			</g>
		</g>
	</g>
	
		<rect x="414.516" y="587.124" clip-path="url(#SVGID_2_)" fill="none" stroke="#FFFFFF" stroke-miterlimit="10" stroke-dasharray="2.929,5.858" width="221.385" height="221.384"/>
	
		<rect x="2.458" y="587.124" clip-path="url(#SVGID_2_)" fill="none" stroke="#FFFFFF" stroke-miterlimit="10" stroke-dasharray="2.929,5.858" width="221.383" height="221.384"/>
</g>
</svg>
