<?xml version="1.0" encoding="utf-8"?>
<!-- Generator: Adobe Illustrator 23.0.0, SVG Export Plug-In . SVG Version: 6.00 Build 0)  -->
<svg version="1.1" id="Layer_1" xmlns="http://www.w3.org/2000/svg" xmlns:xlink="http://www.w3.org/1999/xlink" x="0px" y="0px"
	 viewBox="0 0 625 1035.881" enable-background="new 0 0 800.453 1035.881" xml:space="preserve">
<path fill="none" stroke="#AFB1AF" d="M444.621,1395.805c-0.444,0.741-1.31,1.771-2.623,3.006"/>
<path fill="none" stroke="#AFB1AF" d="M451.061,1402.338c-0.446,0.744-1.316,1.78-2.636,3.021"/>
<g>
  <g id="BODY">
	<path d="M117.462,190.184c0,0,42.547,24.086,88.305,30.507c45.759,6.422,69.039,13.646,169.387,10.034
		c100.351-3.612,166.981-5.214,203.507-9.631c36.525-4.416,50.029-10.496,54.443-12.906c0,0,8.578-4.987,10.487-8.892
		c1.909-3.905,4.723-7.536,5.175-8.717c0.454-1.18,2.094,3.269,1.907,4.086c-0.181,0.817-0.271,7.536,0.181,10.259
		c0.454,2.722,1.092,6.809,1.726,8.443c0.634,1.633,0.273,11.073,0.273,12.89c0,1.815-0.273,7.441-0.363,8.076
		c-0.09,0.636-0.452,6.537,0.542,9.17c0.998,2.632,1.273,3.175,1.273,3.175l5.448,21.062c0,0,2.451,3.449,2.997,8.442
		c0.542,4.992,0.542,8.624,0.542,8.624s1.453,3.816,1.453,6.538c0,2.724-0.181,5.81-0.181,5.81s0.454,6.627,1.451,11.984
		c1,5.355,1.636,9.804,1.636,9.804s2.539,8.803,2.722,10.62c0.183,1.817,0.819,11.348,1.18,13.981
		c0.367,2.632,3.266,17.79,4.994,24.872c1.724,7.081,16.156,54.524,21.076,71.121c4.918,16.593,14.134,43.634,14.749,47.936
		c0.616,4.3,9.525,56.541,10.445,63.914c0.923,7.377,11.374,76.513,12.296,83.276c0.921,6.763,1.228,40.259,0.305,63.611
		c-0.922,23.354-2.766,57.159-4.611,67.913c-1.841,10.752-6.141,42.708-6.757,46.088c-0.616,3.382-3.077,18.745-3.077,21.204
		c0,2.459-0.92,11.37-0.92,12.599c0,1.23,0.616,5.534,0.616,5.534s1.54,3.376,0.616,4.916c-0.923,1.536-3.077,2.77-3.077,3.997
		c0,1.226,0.922,3.688,0.922,3.688s0,3.987,0,5.219c0,1.233-0.922,18.131-2.148,19.974c-1.228,1.843-2.154,4.304-6.149,5.227
		c-3.993,0.921-20.897,3.689-34.108,4.607c-13.213,0.924-64.84,7.07-110.623,1.845c-45.783-5.225-80.815-15.977-80.815-15.977
		s-3.378-0.311-5.53-0.616c-2.156-0.307-8.608-3.993-9.531-5.531c-0.92-1.538-3.688-5.836-3.688-5.836l-0.61-3.077v-3.378
		c0,0-2.457-11.063-2.768-11.986c-0.309-0.921-1.532-3.991-1.843-5.528c-0.309-1.54-0.309-4.611-0.309-4.611l-1.845-2.459
		c0,0-0.921-4.615-0.921-6.149c0-1.532,0-4.298-0.307-5.836c-0.305-1.538-7.684-16.593-10.754-23.969
		c-3.073-7.373-20.283-53.468-23.971-64.223c-3.684-10.754-14.438-48.244-15.977-54.391c-1.536-6.145-9.214-35.335-9.525-39.639
		c-0.309-4.304-4.302-18.133-4.302-18.133l-18.131-5.53c0,0-19.669,92.801-28.578,120.459
		c-8.909,27.656-23.658,62.995-23.658,62.995s0.307,3.38-0.923,6.143c-1.229,2.766-6.761,14.134-7.684,17.517
		c-0.921,3.38-3.995,15.054-3.995,15.054s1.54,8.297-2.764,12.599c-4.304,4.304-9.223,7.066-14.135,8.299
		c-4.919,1.23-10.142,2.459-10.142,2.459s-2.152,3.073-4.611,3.381c-2.457,0.305-7.374,0-7.374,0s-27.041,8.905-54.696,12.9
		c-27.657,3.999-83.892,7.377-115.848,3.688c-31.958-3.688-43.942-6.759-46.709-7.68c-2.764-0.923-4.608-2.461-5.53-4.611
		c-0.922-2.15-0.922-6.452-0.922-6.452s-4.611-28.271-4.917-31.342c-0.306-3.073-3.381-27.658-3.381-28.578
		c0-0.923-1.227-10.143-1.535-12.291c-0.307-2.15-4.609-40.257-4.609-43.328c0-3.07-4.611-67.913-4.303-87.269
		c0.308-19.36,3.688-61.461,6.453-74.674c2.766-13.211,11.061-51.312,14.442-71.29c3.382-19.974,7.991-59.92,8.605-61.764
		c0.614-1.843,7.989-29.806,10.754-35.952c2.765-6.145,15.674-45.786,16.288-47.63c0.614-1.843,7.067-23.046,7.375-25.812
		c0.307-2.766,8.297-25.813,9.218-29.5c0.922-3.688,1.842-22.74,2.458-26.121c0.616-3.378,3.381-24.889,4.304-30.112
		c0.921-5.224,3.993-17.515,4.915-19.359c0.921-1.845,1.843-8.297,1.843-10.14s-0.615-4.304-0.308-5.84
		c0.308-1.535,1.538-4.301,1.538-6.144c0-1.844-1.844-7.99-1.23-11.062c0.615-3.073,3.075-6.146,3.075-11.986
		C118.691,194.935,117.462,190.184,117.462,190.184z"/>
    </g>
</g>
<g>
	
		<!--<image overflow="visible" opacity="0.6" width="551" height="83" xlink:href="/content/images/BBC59B0D.png"  transform="matrix(1 0 0 1 108.708 159.1358)">
	</image>-->
	<g>
		<g>
			<path d="M117.846,190.748c0,0,2.144-24.978,243.053-21.883c240.909,3.095,290.067,9.86,288.886,21.667
				c-1.548,15.476-31.468,27.857-77.38,30.952c-64.954,4.379-221.463,20.424-343.724,3.4c-49.698-6.92-87.286-22.901-93.12-25.494
				C132.543,198.048,117.846,190.748,117.846,190.748z"/>
		</g>
	</g>
</g>
<path opacity="0.5" fill="none" stroke="#897F76" stroke-width="0.7966" stroke-miterlimit="10" stroke-dasharray="2.8792,1.4396" d="
	M650.603,198.962c0,0-0.576,4.99-1.206,7.501c-0.632,2.512-1.259,5.651-1.259,7.848c0,2.196,0.319,5.334,0.945,7.218
	c0.626,1.884,3.989,10.86,3.407,12.805c-0.584,1.945-2.782,6.337-2.782,8.847c0,2.512,0.944,16.947,1.885,20.713
	c0.938,3.767,5.33,20.398,7.217,23.536c1.883,3.139,2.827,7.218,3.138,9.101c0.313,1.885,3.136,9.415,3.136,9.415"/>
<radialGradient id="SVGID_1_" cx="160.7587" cy="518.4383" r="351.9678" gradientUnits="userSpaceOnUse">
	<stop  offset="0" style="stop-color:#897F76"/>
	<stop  offset="1" style="stop-color:#000000"/>
</radialGradient>
<path opacity="0.35" fill="url(#SVGID_1_)" d="M205.767,220.691c0,0-3.491,35.697,13.715,44.302
	c17.209,8.604,17.209,8.604,17.209,8.604s0,8.603-14.75,20.895c-14.75,12.293-33.188,22.125-40.562,25.814
	c-7.376,3.686-15.979,13.519-15.979,22.123c0,8.605,18.436,28.271,7.375,47.938c-11.063,19.666-34.418,12.292-47.938,30.729
	c-13.52,18.44-13.521,122.916-25.812,174.539c-12.291,51.627-9.834,115.535-9.834,131.518c0,15.981,7.373,41.793,9.834,67.606
	c2.459,25.813,11.062,30.73,11.062,36.876c0,6.141,0,17.204,0,17.204l-3.688,40.562l60.229,1.232c0,0,22.123-49.166,13.521-77.438
	c-8.603-28.269-27.041-72.522-33.187-90.958c-6.145-18.438-12.292-24.583-9.834-59c2.458-34.415,9.835-30.726,8.605-73.749
	c-1.23-43.021,0-70.059,3.688-79.893c3.688-9.837,24.582,4.914,31.958,12.289c7.374,7.379,60.229,44.252,78.666,62.69
	c18.438,18.436,41.79,30.728,45.478,30.728c3.686,0,25.813,12.287,25.813,12.287s-9.539,7.072-14.69,23.16
	c-8.833,27.604-15.84,72.843-19.725,89.923c-6.147,27.042-15.98,83.585-15.98,92.189c0,8.6-5.946,40.644-5.946,40.644
	s-82.248,16.308-104.372,16.308c-22.124,0-110.931-3.175-116.464-7.784c-5.53-4.611-6.452-11.063-6.452-11.063l-1.534-15.983
	c0,0-23.353-152.413-18.437-192.975c4.916-40.564,23.355-147.499,25.812-163.475c2.457-15.983,3.996-46.406,9.833-60.232
	c5.835-13.823,35.646-100.79,38.104-111.852c2.458-11.061,1.224-25.19,3.07-31.033c1.845-5.841,3.075-34.11,5.534-40.256
	c2.459-6.147,5.529-19.355,5.529-19.355l1.845-45.621c0,0,33.188,14.58,49.167,19.498
	C182.61,214.599,205.767,220.691,205.767,220.691z"/>
<radialGradient id="SVGID_2_" cx="380.1411" cy="752.8597" r="132.9987" gradientUnits="userSpaceOnUse">
	<stop  offset="0" style="stop-color:#897F76"/>
	<stop  offset="1" style="stop-color:#000000"/>
</radialGradient>
<path opacity="0.35" fill="url(#SVGID_2_)" d="M307.674,858.982c0,0-7.97,6.401-14.135,8.299c-6.49,1.995-18.543,6.225-18.543,6.225
	s3.62-29.288,8.85-65.014c9.277-63.39,29.218-162.117,43.003-176.44c20.795-21.606,63.503-7.446,74.566-1.299
	s31.944,15.278,45.464,68.13c0,0,15.297,50.059,17.517,67.092c2.222,17.033,11.478,57.017,11.848,62.943
	c0.371,5.924,3.7,13.329,3.7,23.324c0,9.995,1.656,21.642,1.656,21.642l3.686,11.22c0,0-3.87,0.53-5.53-0.616
	c-1.662-1.146-6.478-2.626-7.586-3.74c-1.108-1.11-5.633-7.628-5.633-7.628s-0.932-4.617-0.61-6.454
	c0.319-1.837-1.899-9.616-3.383-14.795c-1.483-5.185-1.483-8.885-1.483-8.885s-3.84-4.055-3.33-5.551
	c0.51-1.501-0.369-9.258-1.11-11.111c-0.741-1.851-19.627-40.357-34.803-88.857c-11.818-37.768-23.7-89.226-24.438-92.193
	c-0.737-2.961-3.975-15.531-3.975-15.531s-16.168-6.6-18.131-5.53c-1.959,1.07-16.065,79.392-22.32,99.925
	c-6.259,20.534-20.363,65.538-24.069,70.718c-3.702,5.179-5.98,14.759-5.98,14.759s-1.186,1.763-2.598,5.906
	c-1.419,4.141-5.86,14.877-6.972,19.321c-1.108,4.443-2.837,8.642-2.899,11.539c-0.06,2.901,0.311,5.117-0.43,7.71
	C309.266,856.686,307.674,858.982,307.674,858.982z"/>
<radialGradient id="SVGID_3_" cx="447.1349" cy="566.5308" r="341.1993" gradientUnits="userSpaceOnUse">
	<stop  offset="0" style="stop-color:#897F76"/>
	<stop  offset="1" style="stop-color:#000000"/>
</radialGradient>
<path opacity="0.35" fill="url(#SVGID_3_)" d="M593.146,901.078c0,0-8.297-45.169-0.923-65.45
	c7.373-20.281,4.609-81.124,15.672-98.641c11.061-17.515,35.029-23.045,23.965-51.623c-11.059-28.58-47.012-60.845-40.56-94.953
	c6.452-34.11,14.749-63.607,11.061-65.452c-3.684-1.843-48.857-18.437-54.389-23.049c-5.532-4.607-70.059-11.982-50.703-61.764
	c19.36-49.78,25.813-69.139,30.422-94.951c4.609-25.813-15.67-79.281-15.67-79.281l-7.379-0.921c0,0,63.611-5.532,76.517-7.377
	c12.906-1.842,37.796-11.061,42.405-11.983c4.609-0.923,11.063-3.687,11.063,0.922c0,4.609-11.063,7.375-14.749,9.219
	c-3.686,1.842-39.641,10.14-39.641,10.14s-5.532,2.765-5.532,11.063c0,8.296,4.611,18.436,11.986,30.421
	c7.375,11.984,23.967,3.687,34.11,37.797c10.141,34.109,15.67,60.842,19.358,85.733c3.688,24.891,21.204,79.28,30.419,102.328
	c9.22,23.045,26.737,94.028,24.892,110.623c-1.843,16.595-4.609,59-5.531,71.906c-0.921,12.906-4.609,83.89-4.609,90.342
	c0,6.452-16.595,35.951-21.204,44.248c-4.607,8.297-8.297,13.827-10.141,22.124c-1.843,8.297-2.766,27.658-2.766,27.658
	s-14.75,1.843-26.733,1.843C612.502,902.001,593.146,901.078,593.146,901.078z"/>
<radialGradient id="SVGID_4_" cx="706.2427" cy="442.5338" r="220.3543" gradientUnits="userSpaceOnUse">
	<stop  offset="0" style="stop-color:#897F76"/>
	<stop  offset="1" style="stop-color:#000000"/>
</radialGradient>
<path opacity="0.25" fill="url(#SVGID_4_)" d="M624.52,212.037c0,0,3.041,9.322,3.654,11.166c0.616,1.843,4.306,4.302,4.306,4.302
	s1.839,15.977,2.148,19.051c0.309,3.074-4.611,9.219-4.611,9.219v12.291l4.629,0.536c0,0,18.725,52.932,21.184,62.151
	c2.461,9.219,14.749,49.165,14.749,55.925c0,6.762,9.839,32.576,10.453,35.647c0.612,3.072,17.204,68.835,19.663,73.749
	c2.459,4.915,7.991,52.236,11.063,61.456c3.071,9.22,4.298,17.208,6.759,30.115c2.461,12.906,0.618,30.111,4.304,38.103
	c3.686,7.99,12.291,55.315,12.291,55.315s1.847-35.648-0.614-51.011c-2.457-15.367-10.449-60.849-10.449-66.99
	c0-6.145-7.373-57.769-10.447-68.83c-3.075-11.062-27.656-90.345-29.499-95.875c-1.845-5.532-12.193-50.014-12.552-54.813
	c-0.355-4.8-3.429-23.852-4.659-27.539c-1.227-3.688-2.509-13.042-2.329-18.849c0.181-5.81-1.271-12.347-1.271-12.347l-0.542-8.624
	l-2.997-8.442c0,0-3.923-10.735-3.923-13.195c0-2.459-2.523-7.949-2.798-11.042c-0.275-3.093-0.275-6.782-0.275-6.782
	s-0.114-7.959,0.034-11.067c0,0,0.223-8.603-0.211-12.288c-0.436-3.685-2.098-10.119-2.098-13.19c0-1.759,0.568-9.026-0.652-8.862
	c0,0-3.142,6.908-5.625,9.621C638.404,207.281,624.52,212.037,624.52,212.037z"/>
<path opacity="0.5" fill="none" stroke="#897F76" stroke-width="1.1949" stroke-miterlimit="10" stroke-dasharray="2.8792,1.4396" d="
	M118.691,200.773c0,0,16.343,11.652,30.466,17.616c14.124,5.963,69.67,23.226,107.015,27.619
	c37.344,4.391,118.937,2.822,177.622,0.626c58.687-2.197,139.026-8.784,147.186-9.413c8.158-0.629,22.913-1.569,25.735-2.196
	c2.826-0.629,24.478-5.649,30.444-10.358c5.96-4.708,7.841-6.907,9.098-8.787c1.255-1.882,2.401-5.735,2.401-5.735l1.823-9.967"/>
<path opacity="0.5" fill="none" stroke="#897F76" stroke-width="1.1949" stroke-miterlimit="10" stroke-dasharray="2.8792,1.4396" d="
	M116.847,223.821c0.325,1.35,1.242,5.868,2.498,7.435c1.254,1.569,17.888,11.299,48.017,21.027
	c30.128,9.728,87.242,23.223,124.903,25.419c37.659,2.197,113.915-3.766,169.147-3.138c55.232,0.629,134.949-10.67,157.229-15.691
	c22.28-5.022,31.964-19.438,31.964-19.438"/>
<path opacity="0.5" fill="none" stroke="#897F76" stroke-width="1.1949" stroke-miterlimit="10" stroke-dasharray="2.8792,1.4396" d="
	M114.638,242.555c0,0,19.144,15.377,69.355,30.441c50.211,15.063,95.713,24.48,197.397,20.084
	c101.676-4.395,160.991-5.02,202.728-12.239c41.74-7.219,46.759-10.673,50.527-12.24c3.766-1.569,10.049-4.392,11.613-5.963
	c1.566-1.569,4.344-5.822,4.344-5.822"/>
<path opacity="0.5" fill="none" stroke="#897F76" stroke-width="1.1949" stroke-miterlimit="10" stroke-dasharray="2.8792,1.4396" d="
	M42.79,839.626c0,0,35.615,7.074,72.938,8.493c37.325,1.419,51.734,4.966,101.579-3.302c49.847-8.27,69.692-12.049,76.779-15.12
	c7.087-3.073,14.645-5.667,18.188-8.03c3.545-2.361,7.797-5.201,8.034-6.143c0.235-0.945,2.598-5.906,2.598-5.906"/>
<path opacity="0.5" fill="none" stroke="#897F76" stroke-width="1.1949" stroke-miterlimit="10" stroke-dasharray="2.8792,1.4396" d="
	M44.151,849.069c0,0,47.246,10.629,87.878,10.629c40.633,0,80.554-2.835,120.242-11.103c39.69-8.267,53.866-12.287,56.227-13.703
	c2.361-1.415,5.667-2.834,5.667-2.834"/>
<path opacity="0.5" fill="none" stroke="#897F76" stroke-width="0.7966" stroke-miterlimit="10" stroke-dasharray="2.8792,1.4396" d="
	M481.6,885.406c0,0,0-10.138,0-11.521c0-1.385-3.686-7.375-4.611-9.218c-0.921-1.843,0-4.609,1.383-6.454
	c1.385-1.843,0.46-4.609-1.383-6.914c-1.845-2.303-1.383-6.454-1.383-6.454l1.845-3.226c0,0-5.992-20.281-6.452-26.735
	c-0.464-6.45-10.603-50.24-17.055-76.051c-6.454-25.815-11.063-72.367-38.256-99.102c-17.258-16.965-58.539-21.666-77.9-15.67
	c-19.358,5.992-22.124,31.804-26.733,50.24c-4.609,18.436-24.43,117.537-26.274,126.755c-1.844,9.22-10.602,71.444-10.602,71.444"/>
<path opacity="0.5" fill="none" stroke="#897F76" stroke-width="1.1949" stroke-miterlimit="10" stroke-dasharray="2.8792,1.4396" d="
	M462.214,853.11c0,0,3.559,3.559,10.077,4.742c3.551,0.644,6.081,0.361,6.081,0.361s53.49,7.638,68.013,9.716
	c14.522,2.078,46.536,8.299,92.769,4.446c46.235-3.852,79.976-8.164,79.976-8.164"/>
<path opacity="0.5" fill="none" stroke="#897F76" stroke-width="1.1949" stroke-miterlimit="10" stroke-dasharray="2.8792,1.4396" d="
	M458.659,840.662c0,0-1.777,6.223,30.822,10.671c32.601,4.446,74.985,14.522,138.113,10.376
	c63.133-4.149,91.306-7.747,93.074-10.099"/>
<g>
	<path fill-rule="evenodd" clip-rule="evenodd" fill="#6D7CBC" stroke="#6D7CBC" stroke-width="1.2004" d="M63.148,781.455
		c-6.665,0-12.09,5.422-12.09,12.089c0,6.665,5.425,12.083,12.09,12.083h21.295c6.668,0,12.093-5.418,12.093-12.083
		c0-6.667-5.425-12.089-12.089-12.089H63.148z"/>
	
		<path fill-rule="evenodd" clip-rule="evenodd" fill="#6D7CBC" stroke="#FFFFFF" stroke-width="0.6002" stroke-miterlimit="3.8637" d="
		M84.447,782.561c6.066,0,10.981,4.92,10.981,10.983c0,6.066-4.916,10.985-10.985,10.985H63.148c-6.064,0-10.981-4.92-10.981-10.985
		c0-6.064,4.917-10.983,10.981-10.983H84.447z"/>
	<g>
		<path fill="#FFFFFF" d="M55.554,793.512c0-4.242,3.292-7.709,7.46-7.992v15.983C58.846,801.224,55.554,797.746,55.554,793.512z"/>
		<polygon fill-rule="evenodd" clip-rule="evenodd" fill="#FFFFFF" points="71.3,792.468 64.334,785.5 71.3,785.5 		"/>
		<polygon fill-rule="evenodd" clip-rule="evenodd" fill="#FFFFFF" points="71.3,794.556 64.334,801.523 71.3,801.523 		"/>
	</g>
	<g>
		<polygon fill-rule="evenodd" clip-rule="evenodd" fill="#EC2227" points="80.037,792.468 87,785.5 80.037,785.5 		"/>
		<polygon fill-rule="evenodd" clip-rule="evenodd" fill="#EC2227" points="80.037,794.556 87,801.523 80.037,801.523 		"/>
		<g>
			<rect x="72.78" y="785.5" fill="#EC2227" width="5.779" height="16.023"/>
			<path fill="#EC2227" d="M75.669,793.512"/>
		</g>
	</g>
	<path fill-rule="evenodd" clip-rule="evenodd" fill="#6D7CBC" stroke="#6D7CBC" stroke-width="1.2004" d="M63.148,781.455
		c-6.665,0-12.09,5.422-12.09,12.089c0,6.665,5.425,12.083,12.09,12.083h21.295c6.668,0,12.093-5.418,12.093-12.083
		c0-6.667-5.425-12.089-12.089-12.089H63.148z"/>
	
		<path fill-rule="evenodd" clip-rule="evenodd" fill="#6D7CBC" stroke="#FFFFFF" stroke-width="0.6002" stroke-miterlimit="3.8637" d="
		M84.447,782.561c6.066,0,10.981,4.92,10.981,10.983c0,6.066-4.916,10.985-10.985,10.985H63.148c-6.064,0-10.981-4.92-10.981-10.985
		c0-6.064,4.917-10.983,10.981-10.983H84.447z"/>
	<g>
		<path fill="#FFFFFF" d="M55.554,793.512c0-4.242,3.292-7.709,7.46-7.992v15.983C58.846,801.224,55.554,797.746,55.554,793.512z"/>
		<polygon fill-rule="evenodd" clip-rule="evenodd" fill="#FFFFFF" points="71.3,792.468 64.334,785.5 71.3,785.5 		"/>
		<polygon fill-rule="evenodd" clip-rule="evenodd" fill="#FFFFFF" points="71.3,794.556 64.334,801.523 71.3,801.523 		"/>
	</g>
	<g>
		<polygon fill-rule="evenodd" clip-rule="evenodd" fill="#EC2227" points="80.037,792.468 87,785.5 80.037,785.5 		"/>
		<polygon fill-rule="evenodd" clip-rule="evenodd" fill="#EC2227" points="80.037,794.556 87,801.523 80.037,801.523 		"/>
		<g>
			<rect x="72.78" y="785.5" fill="#EC2227" width="5.779" height="16.023"/>
			<path fill="#EC2227" d="M75.669,793.512"/>
		</g>
	</g>
	<path fill-rule="evenodd" clip-rule="evenodd" fill="#005DAA" stroke="#005DAA" stroke-width="1.2004" d="M63.148,781.455
		c-6.665,0-12.09,5.422-12.09,12.089c0,6.665,5.425,12.083,12.09,12.083h21.295c6.668,0,12.093-5.418,12.093-12.083
		c0-6.667-5.425-12.089-12.089-12.089H63.148z"/>
	
		<path fill-rule="evenodd" clip-rule="evenodd" fill="#005DAA" stroke="#FFFFFF" stroke-width="0.6002" stroke-miterlimit="3.8637" d="
		M84.447,782.561c6.066,0,10.981,4.92,10.981,10.983c0,6.066-4.916,10.985-10.985,10.985H63.148c-6.064,0-10.981-4.92-10.981-10.985
		c0-6.064,4.917-10.983,10.981-10.983H84.447z"/>
	<g>
		<path fill="#FFFFFF" d="M55.554,793.512c0-4.242,3.292-7.709,7.46-7.992v15.983C58.846,801.224,55.554,797.746,55.554,793.512z"/>
		<polygon fill-rule="evenodd" clip-rule="evenodd" fill="#FFFFFF" points="71.3,792.468 64.334,785.5 71.3,785.5 		"/>
		<polygon fill-rule="evenodd" clip-rule="evenodd" fill="#FFFFFF" points="71.3,794.556 64.334,801.523 71.3,801.523 		"/>
	</g>
	<g>
		<polygon fill-rule="evenodd" clip-rule="evenodd" fill="#EC2227" points="80.037,792.468 87,785.5 80.037,785.5 		"/>
		<polygon fill-rule="evenodd" clip-rule="evenodd" fill="#EC2227" points="80.037,794.556 87,801.523 80.037,801.523 		"/>
		<g>
			<rect x="72.78" y="785.5" fill="#EC2227" width="5.779" height="16.023"/>
			<path fill="#EC2227" d="M75.669,793.512"/>
		</g>
	</g>
</g>
<radialGradient id="SVGID_5_" cx="387.2376" cy="281.6485" r="310.2468" gradientUnits="userSpaceOnUse">
	<stop  offset="0" style="stop-color:#897F76"/>
	<stop  offset="1" style="stop-color:#000000"/>
</radialGradient>
<path opacity="0.5" fill="url(#SVGID_5_)" d="M120.506,192.079c0,0-0.516-26.309,240.393-23.214
	c240.909,3.095,290.067,9.86,288.886,21.667c-1.548,15.476-32.532,28.233-78.444,31.328c-64.952,4.379-219.751,20.048-342.011,3.024
	c-49.698-6.92-92.832-22.487-95.411-24.55C131.339,198.27,120.506,192.079,120.506,192.079z"/>
  <g id="LEG_RIGHT">
 <rect x="58.031" y="557.311" fill="none" stroke="#FFFFFF" stroke-miterlimit="10" stroke-dasharray="3,6" width="213.09" height="213.09"/>
    </g>
  <g id="LEG_LEFT">
<rect x="486.669" y="607.534" fill="none" stroke="#FFFFFF" stroke-miterlimit="10" stroke-dasharray="2.9288,5.8576" width="223.122" height="223.122"/>
</g>
  <g id="CUSTOM"></g>
    </svg>
