<?xml version="1.0" encoding="utf-8"?>
<!-- Generator: Adobe Illustrator 16.0.0, SVG Export Plug-In . SVG Version: 6.00 Build 0)  -->
<!DOCTYPE svg PUBLIC "-//W3C//DTD SVG 1.1//EN" "http://www.w3.org/Graphics/SVG/1.1/DTD/svg11.dtd">
<svg version="1.1" id="Layer_1" xmlns="http://www.w3.org/2000/svg" xmlns:xlink="http://www.w3.org/1999/xlink" x="0px" y="0px"
	 width="800.453px" height="1035.881px" viewBox="0 0 620 1035.881" enable-background="new 0 0 800.453 1035.881"
	 xml:space="preserve">
<g>
	<defs>
		<rect id="SVGID_1_" x="-70.598" y="58.931" width="769.598" height="995.95"/>
	</defs>
	<clipPath id="SVGID_2_">
		<use xlink:href="#SVGID_1_"  overflow="visible"/>
	</clipPath>
	<g clip-path="url(#SVGID_2_)">
		<defs>
			<rect id="SVGID_3_" x="-70.598" y="58.931" width="769.598" height="995.95"/>
		</defs>
		<clipPath id="SVGID_4_">
			<use xlink:href="#SVGID_3_"  overflow="visible"/>
		</clipPath>
		<path clip-path="url(#SVGID_4_)" d="M55.964,196.568c0,0,41.774,23.649,86.703,29.954c44.93,6.305,67.788,13.398,166.315,9.851
			c98.53-3.546,163.951-5.119,199.816-9.455c35.862-4.336,49.121-10.307,53.455-12.672c0,0,8.422-4.897,10.296-8.731
			c1.875-3.835,4.637-7.399,5.082-8.558c0.445-1.158,2.055,3.209,1.871,4.011c-0.179,0.803-0.266,7.399,0.179,10.073
			c0.446,2.673,1.071,6.687,1.694,8.291c0.621,1.602,0.268,10.871,0.268,12.655c0,1.782-0.268,7.306-0.356,7.93
			c-0.087,0.623-0.443,6.418,0.533,9.003c0.979,2.584,1.25,3.118,1.25,3.118l5.349,20.681c0,0,2.407,3.387,2.943,8.288
			c0.531,4.903,0.531,8.468,0.531,8.468s1.428,3.748,1.428,6.42c0,2.674-0.181,5.705-0.181,5.705s0.447,6.507,1.426,11.766
			c0.982,5.258,1.606,9.626,1.606,9.626s2.492,8.642,2.673,10.426c0.18,1.787,0.804,11.144,1.158,13.729
			c0.359,2.584,3.207,17.467,4.902,24.421c1.692,6.951,15.863,53.535,20.694,69.831c4.828,16.292,13.876,42.842,14.481,47.066
			c0.604,4.223,9.35,55.515,10.257,62.753c0.905,7.244,11.166,75.126,12.072,81.766c0.904,6.642,1.205,39.53,0.3,62.457
			c-0.905,22.931-2.717,56.123-4.528,66.682c-1.807,10.558-6.029,41.933-6.634,45.252s-3.021,18.404-3.021,20.818
			c0,2.415-0.904,11.163-0.904,12.37c0,1.208,0.604,5.435,0.604,5.435s1.513,3.313,0.604,4.826
			c-0.904,1.509-3.021,2.719-3.021,3.925c0,1.203,0.906,3.621,0.906,3.621v5.124c0,1.212-0.906,17.803-2.109,19.612
			c-1.205,1.81-2.115,4.227-6.038,5.132c-3.921,0.903-20.518,3.621-33.488,4.522c-12.975,0.909-63.664,6.942-108.616,1.813
			c-44.953-5.13-79.351-15.687-79.351-15.687s-3.315-0.307-5.429-0.606c-2.115-0.301-8.451-3.919-9.358-5.431
			c-0.902-1.51-3.62-5.729-3.62-5.729l-0.599-3.021v-3.317c0,0-2.413-10.862-2.717-11.769c-0.305-0.903-1.505-3.918-1.812-5.426
			c-0.303-1.514-0.303-4.528-0.303-4.528l-1.812-2.416c0,0-0.903-4.529-0.903-6.035s0-4.221-0.302-5.731
			c-0.299-1.51-7.545-16.292-10.56-23.534c-3.018-7.239-19.916-52.499-23.536-63.058c-3.618-10.56-14.177-47.369-15.688-53.404
			c-1.508-6.034-9.047-34.693-9.351-38.92c-0.304-4.228-4.225-17.805-4.225-17.805l-17.802-5.429c0,0-19.313,91.117-28.06,118.273
			c-8.749,27.153-23.229,61.851-23.229,61.851s0.301,3.32-0.907,6.032c-1.207,2.716-6.638,13.877-7.545,17.2
			c-0.902,3.318-3.922,14.782-3.922,14.782s1.513,8.146-2.714,12.37c-4.225,4.226-9.055,6.938-13.877,8.148
			c-4.83,1.208-9.957,2.415-9.957,2.415s-2.114,3.017-4.528,3.32c-2.412,0.299-7.239,0-7.239,0s-26.551,8.742-53.703,12.666
			c-27.156,3.926-82.37,7.244-113.747,3.622c-31.379-3.622-43.146-6.637-45.864-7.541c-2.712-0.905-4.522-2.416-5.428-4.527
			c-0.905-2.11-0.905-6.335-0.905-6.335s-4.527-27.759-4.829-30.773c-0.3-3.017-3.318-27.156-3.318-28.06
			c0-0.906-1.205-9.959-1.508-12.068c-0.3-2.11-4.525-39.526-4.525-42.541s-4.527-66.682-4.225-85.688
			c0.303-19.01,3.621-60.345,6.336-73.318c2.716-12.972,10.861-50.381,14.179-69.997c3.322-19.612,7.847-58.833,8.45-60.644
			c0.602-1.809,7.843-29.264,10.56-35.299c2.714-6.034,15.389-44.957,15.991-46.766c0.604-1.81,6.939-22.628,7.242-25.344
			c0.301-2.715,8.146-25.344,9.05-28.964c0.906-3.622,1.808-22.327,2.413-25.648c0.605-3.318,3.32-24.438,4.227-29.566
			c0.904-5.127,3.919-17.196,4.825-19.007c0.905-1.812,1.809-8.147,1.809-9.957s-0.604-4.227-0.302-5.734
			c0.302-1.508,1.51-4.223,1.51-6.033c0-1.81-1.811-7.845-1.208-10.862c0.604-3.017,3.02-6.034,3.02-11.768
			C57.171,201.233,55.964,196.568,55.964,196.568"/>
	</g>
	<g clip-path="url(#SVGID_2_)">
		<defs>
			<rect id="SVGID_5_" x="-70.598" y="58.931" width="769.598" height="995.95"/>
		</defs>
		<clipPath id="SVGID_6_">
			<use xlink:href="#SVGID_5_"  overflow="visible"/>
		</clipPath>
		<g opacity="0.6" clip-path="url(#SVGID_6_)">
			<g>
				<defs>
					<rect id="SVGID_7_" x="44.157" y="163.635" width="547.018" height="86.768"/>
				</defs>
				<clipPath id="SVGID_8_">
					<use xlink:href="#SVGID_7_"  overflow="visible"/>
				</clipPath>
				<g clip-path="url(#SVGID_8_)">
					<defs>
						<rect id="SVGID_9_" x="44.157" y="163.635" width="547.018" height="86.768"/>
					</defs>
					<clipPath id="SVGID_10_">
						<use xlink:href="#SVGID_9_"  overflow="visible"/>
					</clipPath>
					<g transform="matrix(1 0 0 1 0 -1.525879e-005)" clip-path="url(#SVGID_10_)">
						
							<image overflow="visible" width="435" height="69" xlink:href="E0126002.png"  transform="matrix(1.2575 0 0 1.2575 44.1567 163.6348)">
						</image>
					</g>
				</g>
			</g>
		</g>
		<path clip-path="url(#SVGID_6_)" d="M56.34,197.123c0,0,2.104-24.524,238.645-21.486c236.538,3.04,284.806,9.682,283.644,21.273
			c-1.521,15.196-30.896,27.352-75.976,30.392c-63.775,4.298-217.446,20.052-337.488,3.337
			c-48.798-6.794-85.704-22.487-91.431-25.031C70.771,204.291,56.34,197.123,56.34,197.123"/>
		<g opacity="0.5" clip-path="url(#SVGID_6_)">
			<g>
				<defs>
					<rect id="SVGID_11_" x="576.513" y="205.13" width="17.608" height="105.278"/>
				</defs>
				<clipPath id="SVGID_12_">
					<use xlink:href="#SVGID_11_"  overflow="visible"/>
				</clipPath>
				
					<path clip-path="url(#SVGID_12_)" fill="none" stroke="#887F76" stroke-width="0.797" stroke-miterlimit="10" stroke-dasharray="2.879,1.44" d="
					M579.434,205.187c0,0-0.565,4.899-1.184,7.365c-0.621,2.466-1.236,5.55-1.236,7.705c0,2.157,0.313,5.238,0.927,7.089
					c0.615,1.85,3.918,10.663,3.346,12.573c-0.572,1.909-2.73,6.221-2.73,8.685c0,2.466,0.927,16.642,1.85,20.338
					c0.923,3.7,5.234,20.027,7.087,23.109c1.851,3.082,2.777,7.087,3.081,8.936c0.308,1.852,3.081,9.246,3.081,9.246"/>
			</g>
		</g>
		<g opacity="0.35" clip-path="url(#SVGID_6_)">
			<g>
				<defs>
					<rect id="SVGID_13_" x="-32.802" y="196.57" width="298.76" height="687.743"/>
				</defs>
				<clipPath id="SVGID_14_">
					<use xlink:href="#SVGID_13_"  overflow="visible"/>
				</clipPath>
				<g clip-path="url(#SVGID_14_)">
					<defs>
						<path id="SVGID_15_" d="M142.667,226.522c0,0-3.427,35.05,13.467,43.498l16.897,8.45c0,0,0,8.447-14.482,20.515
							c-14.483,12.07-32.586,21.723-39.827,25.345c-7.242,3.619-15.688,13.274-15.688,21.723s18.1,27.758,7.24,47.067
							c-10.863,19.311-33.793,12.07-47.069,30.173C49.931,441.398,49.93,543.979,37.862,594.666
							c-12.068,50.69-9.655,113.438-9.655,129.131c0,15.691,7.24,41.036,9.655,66.38c2.415,25.344,10.862,30.173,10.862,36.207
							v16.893l-3.623,39.827l59.138,1.208c0,0,21.722-48.274,13.275-76.033c-8.446-27.757-26.549-71.205-32.584-89.308
							s-12.069-24.137-9.656-57.93c2.413-33.791,9.656-30.169,8.449-72.411c-1.208-42.24,0-68.788,3.621-78.443
							c3.622-9.659,24.136,4.826,31.377,12.066c7.241,7.244,59.137,43.449,77.239,61.552c18.103,18.102,41.032,30.172,44.653,30.172
							c3.619,0,25.344,12.063,25.344,12.063s-9.366,6.942-14.422,22.74c-8.673,27.104-15.554,71.521-19.367,88.293
							c-6.037,26.551-15.69,82.068-15.69,90.516c0,8.444-5.839,39.907-5.839,39.907s-80.756,16.012-102.479,16.012
							c-21.723,0-108.918-3.116-114.352-7.643c-5.43-4.527-6.335-10.862-6.335-10.862l-1.507-15.693
							c0,0-22.929-149.647-18.102-189.473c4.826-39.829,22.932-144.824,25.344-160.511c2.413-15.693,3.923-45.563,9.654-59.139
							c5.731-13.571,34.999-98.962,37.414-109.823c2.413-10.862,1.203-24.733,3.013-30.471c1.812-5.736,3.02-33.492,5.435-39.526
							c2.414-6.036,5.428-19.003,5.428-19.003l1.812-44.793c0,0,32.586,14.315,48.275,19.144
							C119.931,220.542,142.667,226.522,142.667,226.522"/>
					</defs>
					<clipPath id="SVGID_16_">
						<use xlink:href="#SVGID_15_"  overflow="visible"/>
					</clipPath>
					
						<radialGradient id="SVGID_17_" cx="94.2505" cy="914.3281" r="1.2585" gradientTransform="matrix(274.8147 0 0 -274.8147 -25803.0273 251789.8906)" gradientUnits="userSpaceOnUse">
						<stop  offset="0" style="stop-color:#887F76"/>
						<stop  offset="1" style="stop-color:#231F20"/>
					</radialGradient>
					<rect x="-36.961" y="196.57" clip-path="url(#SVGID_16_)" fill="url(#SVGID_17_)" width="302.918" height="687.742"/>
				</g>
			</g>
		</g>
		<g opacity="0.35" clip-path="url(#SVGID_6_)">
			<g>
				<defs>
					<rect id="SVGID_18_" x="210.64" y="619.071" width="206.476" height="259.933"/>
				</defs>
				<clipPath id="SVGID_19_">
					<use xlink:href="#SVGID_18_"  overflow="visible"/>
				</clipPath>
				<g clip-path="url(#SVGID_19_)">
					<defs>
						<path id="SVGID_20_" d="M242.726,853.234c0,0-7.826,6.285-13.878,8.148c-6.373,1.96-18.208,6.113-18.208,6.113
							s3.554-28.758,8.689-63.836c9.108-62.238,28.688-159.173,42.223-173.237c20.418-21.215,62.352-7.313,73.214-1.276
							c10.862,6.036,31.364,15,44.638,66.894c0,0,15.021,49.151,17.201,65.876c2.181,16.724,11.268,55.982,11.633,61.801
							c0.363,5.817,3.633,13.088,3.633,22.9c0,9.813,1.626,21.251,1.626,21.251l3.618,11.017c0,0-3.799,0.521-5.429-0.605
							c-1.63-1.125-6.36-2.577-7.447-3.672c-1.089-1.09-5.531-7.489-5.531-7.489s-0.916-4.533-0.599-6.338
							c0.313-1.804-1.865-9.441-3.323-14.526c-1.455-5.092-1.455-8.724-1.455-8.724s-3.771-3.981-3.269-5.452
							c0.501-1.472-0.362-9.089-1.091-10.907c-0.727-1.818-19.271-39.626-34.171-87.247c-11.604-37.083-23.271-87.607-23.996-90.52
							c-0.724-2.908-3.902-15.25-3.902-15.25s-15.875-6.479-17.803-5.429c-1.922,1.051-15.773,77.952-21.914,98.111
							c-6.146,20.162-19.994,64.349-23.632,69.436c-3.636,5.086-5.873,14.492-5.873,14.492s-1.164,1.73-2.552,5.799
							c-1.393,4.066-5.752,14.607-6.844,18.971c-1.089,4.362-2.787,8.484-2.848,11.33c-0.059,2.848,0.307,5.024-0.423,7.569
							C244.289,850.979,242.726,853.234,242.726,853.234"/>
					</defs>
					<clipPath id="SVGID_21_">
						<use xlink:href="#SVGID_20_"  overflow="visible"/>
					</clipPath>
					
						<radialGradient id="SVGID_22_" cx="93.8926" cy="913.6904" r="1.2578" gradientTransform="matrix(103.8447 0 0 -103.8447 -9436.377 95631.0625)" gradientUnits="userSpaceOnUse">
						<stop  offset="0" style="stop-color:#887F76"/>
						<stop  offset="1" style="stop-color:#231F20"/>
					</radialGradient>
					<rect x="210.64" y="609.208" clip-path="url(#SVGID_21_)" fill="url(#SVGID_22_)" width="206.476" height="270.197"/>
				</g>
			</g>
		</g>
		<g opacity="0.35" clip-path="url(#SVGID_6_)">
			<g>
				<defs>
					<rect id="SVGID_23_" x="425.337" y="249.375" width="198.284" height="646.099"/>
				</defs>
				<clipPath id="SVGID_24_">
					<use xlink:href="#SVGID_23_"  overflow="visible"/>
				</clipPath>
				<g clip-path="url(#SVGID_24_)">
					<defs>
						<path id="SVGID_25_" d="M523.02,894.567c0,0-8.148-44.35-0.906-64.263c7.239-19.914,4.525-79.652,15.388-96.853
							c10.86-17.197,34.394-22.626,23.53-50.686c-10.858-28.062-46.16-59.742-39.824-93.23
							c6.335-33.491,14.481-62.453,10.861-64.266c-3.619-1.811-47.973-18.102-53.403-22.63
							c-5.432-4.523-68.787-11.764-49.782-60.644c19.008-48.877,25.345-67.884,29.869-93.228
							c4.525-25.345-15.386-77.842-15.386-77.842l-7.245-0.906c0,0,62.457-5.431,75.129-7.241
							c12.672-1.809,37.111-10.862,41.637-11.766c4.525-0.907,10.861-3.62,10.861,0.904c0,4.526-10.861,7.243-14.48,9.053
							c-3.621,1.809-38.923,9.956-38.923,9.956s-5.432,2.715-5.432,10.862c0,8.146,4.527,18.103,11.769,29.869
							c7.24,11.767,23.532,3.621,33.491,37.112c9.957,33.491,15.386,59.738,19.007,84.177c3.622,24.44,20.819,77.842,29.867,100.472
							c9.054,22.627,26.254,92.322,24.44,108.616c-1.809,16.293-4.523,57.93-5.43,70.602c-0.904,12.673-4.525,82.369-4.525,88.703
							c0,6.335-16.294,35.298-20.819,43.445c-4.523,8.146-8.146,13.576-9.957,21.724c-1.81,8.146-2.715,27.155-2.715,27.155
							s-14.482,1.81-26.248,1.81C542.024,895.473,523.02,894.567,523.02,894.567"/>
					</defs>
					<clipPath id="SVGID_26_">
						<use xlink:href="#SVGID_25_"  overflow="visible"/>
					</clipPath>
					
						<radialGradient id="SVGID_27_" cx="94.4517" cy="914.2881" r="1.2583" gradientTransform="matrix(266.4067 0 0 -266.4067 -24783.0645 244138.75)" gradientUnits="userSpaceOnUse">
						<stop  offset="0" style="stop-color:#887F76"/>
						<stop  offset="1" style="stop-color:#231F20"/>
					</radialGradient>
					<rect x="409.878" y="247.393" clip-path="url(#SVGID_26_)" fill="url(#SVGID_27_)" width="215.423" height="648.08"/>
				</g>
			</g>
		</g>
		<g opacity="0.25" clip-path="url(#SVGID_6_)">
			<g>
				<defs>
					<rect id="SVGID_28_" x="553.824" y="197.676" width="109.24" height="480.867"/>
				</defs>
				<clipPath id="SVGID_29_">
					<use xlink:href="#SVGID_28_"  overflow="visible"/>
				</clipPath>
				<g clip-path="url(#SVGID_29_)">
					<defs>
						<path id="SVGID_30_" d="M553.824,218.026c0,0,2.984,9.152,3.588,10.961c0.604,1.811,4.228,4.225,4.228,4.225
							s1.806,15.687,2.108,18.704c0.306,3.019-4.526,9.053-4.526,9.053v12.069l4.546,0.525c0,0,18.384,51.971,20.799,61.023
							c2.415,9.053,14.48,48.273,14.48,54.912c0,6.638,9.661,31.984,10.264,35c0.602,3.016,16.894,67.585,19.308,72.412
							c2.415,4.825,7.846,51.288,10.862,60.341c3.015,9.052,4.219,16.896,6.636,29.567s0.607,29.565,4.227,37.413
							c3.62,7.846,12.067,54.311,12.067,54.311s1.814-34.999-0.603-50.085c-2.412-15.088-10.26-59.745-10.26-65.775
							c0-6.034-7.239-56.722-10.257-67.581c-3.02-10.863-27.154-88.707-28.965-94.136c-1.812-5.433-11.972-49.107-12.323-53.82
							c-0.349-4.714-3.367-23.419-4.574-27.04c-1.205-3.621-2.464-12.806-2.289-18.507c0.181-5.706-1.247-12.125-1.247-12.125
							l-0.531-8.468l-2.944-8.288c0,0-3.851-10.541-3.851-12.956c0-2.415-2.478-7.804-2.747-10.843
							c-0.271-3.035-0.271-6.658-0.271-6.658s-0.111-7.814,0.033-10.867c0,0,0.22-8.447-0.207-12.064
							c-0.429-3.619-2.06-9.936-2.06-12.952c0-1.728,0.558-8.861-0.641-8.702c0,0-3.085,6.784-5.523,9.448
							C567.456,213.355,553.824,218.026,553.824,218.026"/>
					</defs>
					<clipPath id="SVGID_31_">
						<use xlink:href="#SVGID_30_"  overflow="visible"/>
					</clipPath>
					
						<radialGradient id="SVGID_32_" cx="94.6045" cy="914.3506" r="1.2577" gradientTransform="matrix(172.0515 0 0 -172.0515 -15642.75 157759.8281)" gradientUnits="userSpaceOnUse">
						<stop  offset="0" style="stop-color:#887F76"/>
						<stop  offset="1" style="stop-color:#231F20"/>
					</radialGradient>
					<rect x="553.824" y="197.519" clip-path="url(#SVGID_31_)" fill="url(#SVGID_32_)" width="110.4" height="481.025"/>
				</g>
			</g>
		</g>
		<g opacity="0.5" clip-path="url(#SVGID_6_)">
			<g>
				<defs>
					<rect id="SVGID_33_" x="56.735" y="206.246" width="523.318" height="48.629"/>
				</defs>
				<clipPath id="SVGID_34_">
					<use xlink:href="#SVGID_33_"  overflow="visible"/>
				</clipPath>
				
					<path clip-path="url(#SVGID_34_)" fill="none" stroke="#887F76" stroke-width="1.195" stroke-miterlimit="10" stroke-dasharray="2.879,1.44" d="
					M57.171,206.966c0,0,16.045,11.441,29.914,17.296c13.868,5.855,68.406,22.805,105.074,27.118
					c36.666,4.311,116.779,2.771,174.399,0.614c57.623-2.158,136.504-8.625,144.517-9.242c8.009-0.617,22.496-1.542,25.268-2.156
					c2.773-0.618,24.034-5.547,29.892-10.169c5.851-4.623,7.697-6.782,8.933-8.63c1.233-1.847,2.357-5.629,2.357-5.629l1.791-9.786"
					/>
			</g>
		</g>
		<g opacity="0.5" clip-path="url(#SVGID_6_)">
			<g>
				<defs>
					<rect id="SVGID_35_" x="54.63" y="229.419" width="525.428" height="54.311"/>
				</defs>
				<clipPath id="SVGID_36_">
					<use xlink:href="#SVGID_35_"  overflow="visible"/>
				</clipPath>
				
					<path clip-path="url(#SVGID_36_)" fill="none" stroke="#887F76" stroke-width="1.195" stroke-miterlimit="10" stroke-dasharray="2.879,1.44" d="
					M55.36,229.595c0.318,1.326,1.22,5.762,2.453,7.301c1.232,1.54,17.563,11.093,47.145,20.646
					c29.581,9.55,85.661,22.801,122.637,24.958c36.976,2.156,111.848-3.699,166.079-3.083c54.229,0.617,132.5-10.476,154.376-15.406
					s31.384-19.086,31.384-19.086"/>
			</g>
		</g>
		<g opacity="0.5" clip-path="url(#SVGID_6_)">
			<g>
				<defs>
					<rect id="SVGID_37_" x="52.721" y="247.404" width="527.342" height="52.01"/>
				</defs>
				<clipPath id="SVGID_38_">
					<use xlink:href="#SVGID_37_"  overflow="visible"/>
				</clipPath>
				
					<path clip-path="url(#SVGID_38_)" fill="none" stroke="#887F76" stroke-width="1.195" stroke-miterlimit="10" stroke-dasharray="2.879,1.44" d="
					M53.192,247.99c0,0,18.796,15.097,68.096,29.89c49.301,14.79,93.978,24.034,193.817,19.719
					c99.831-4.314,158.071-4.929,199.05-12.017c40.983-7.088,45.912-10.479,49.612-12.018c3.695-1.54,9.866-4.312,11.401-5.853
					c1.537-1.542,4.265-5.717,4.265-5.717"/>
			</g>
		</g>
		<g opacity="0.5" clip-path="url(#SVGID_6_)">
			<g>
				<defs>
					<rect id="SVGID_39_" x="-17.5" y="804.441" width="275.86" height="40.823"/>
				</defs>
				<clipPath id="SVGID_40_">
					<use xlink:href="#SVGID_39_"  overflow="visible"/>
				</clipPath>
				
					<path clip-path="url(#SVGID_40_)" fill="none" stroke="#887F76" stroke-width="1.195" stroke-miterlimit="10" stroke-dasharray="2.879,1.44" d="
					M-17.354,834.229c0,0,34.97,6.945,71.616,8.338c36.647,1.394,50.794,4.875,99.737-3.242
					c48.942-8.118,68.427-11.831,75.385-14.846c6.96-3.016,14.379-5.563,17.859-7.885c3.48-2.318,7.655-5.104,7.889-6.031
					c0.23-0.927,2.549-5.799,2.549-5.799"/>
			</g>
		</g>
		<g opacity="0.5" clip-path="url(#SVGID_6_)">
			<g>
				<defs>
					<rect id="SVGID_41_" x="-16.182" y="826.108" width="265.577" height="28.58"/>
				</defs>
				<clipPath id="SVGID_42_">
					<use xlink:href="#SVGID_41_"  overflow="visible"/>
				</clipPath>
				
					<path clip-path="url(#SVGID_42_)" fill="none" stroke="#887F76" stroke-width="1.195" stroke-miterlimit="10" stroke-dasharray="2.879,1.44" d="
					M-16.017,843.501c0,0,46.39,10.437,86.284,10.437c39.895,0,79.093-2.785,118.061-10.901c38.97-8.118,52.89-12.065,55.207-13.455
					c2.318-1.39,5.565-2.783,5.565-2.783"/>
			</g>
		</g>
		<g opacity="0.5" clip-path="url(#SVGID_6_)">
			<g>
				<defs>
					<rect id="SVGID_43_" x="209.342" y="619.632" width="204.656" height="259.549"/>
				</defs>
				<clipPath id="SVGID_44_">
					<use xlink:href="#SVGID_43_"  overflow="visible"/>
				</clipPath>
				
					<path clip-path="url(#SVGID_44_)" fill="none" stroke="#887F76" stroke-width="0.797" stroke-miterlimit="10" stroke-dasharray="2.879,1.44" d="
					M413.497,879.18v-11.312c0-1.36-3.619-7.243-4.528-9.052c-0.903-1.81,0-4.525,1.357-6.337c1.36-1.81,0.453-4.526-1.357-6.789
					c-1.812-2.263-1.357-6.337-1.357-6.337l1.813-3.168c0,0-5.885-19.912-6.336-26.25c-0.455-6.332-10.41-49.328-16.746-74.67
					c-6.336-25.348-10.862-71.055-37.562-97.306c-16.946-16.657-57.477-21.272-76.487-15.385
					c-19.008,5.883-21.721,31.227-26.248,49.328c-4.525,18.102-23.985,115.406-25.796,124.456
					c-1.812,9.053-10.41,70.148-10.41,70.148"/>
			</g>
		</g>
		<g opacity="0.5" clip-path="url(#SVGID_6_)">
			<g>
				<defs>
					<rect id="SVGID_45_" x="393.932" y="846.938" width="252.881" height="21.409"/>
				</defs>
				<clipPath id="SVGID_46_">
					<use xlink:href="#SVGID_45_"  overflow="visible"/>
				</clipPath>
				
					<path clip-path="url(#SVGID_46_)" fill="none" stroke="#887F76" stroke-width="1.195" stroke-miterlimit="10" stroke-dasharray="2.879,1.44" d="
					M394.462,847.468c0,0,3.493,3.496,9.895,4.657c3.486,0.633,5.971,0.354,5.971,0.354s52.52,7.5,66.778,9.54
					c14.258,2.04,45.691,8.147,91.086,4.365c45.397-3.783,78.526-8.017,78.526-8.017"/>
			</g>
		</g>
		<g opacity="0.5" clip-path="url(#SVGID_6_)">
			<g>
				<defs>
					<rect id="SVGID_47_" x="390.204" y="835.04" width="258.625" height="22.585"/>
				</defs>
				<clipPath id="SVGID_48_">
					<use xlink:href="#SVGID_47_"  overflow="visible"/>
				</clipPath>
				
					<path clip-path="url(#SVGID_48_)" fill="none" stroke="#887F76" stroke-width="1.195" stroke-miterlimit="10" stroke-dasharray="2.879,1.44" d="
					M390.973,835.248c0,0-1.745,6.108,30.262,10.476c32.011,4.364,73.625,14.259,135.607,10.188
					c61.987-4.073,89.651-7.608,91.386-9.915"/>
			</g>
		</g>
		<path clip-path="url(#SVGID_6_)" fill-rule="evenodd" clip-rule="evenodd" fill="#6E7CBB" d="M2.635,777.113
			c-6.545,0-11.871,5.324-11.871,11.87c0,6.545,5.326,11.864,11.871,11.864h20.909c6.546,0,11.873-5.319,11.873-11.864
			c0-6.546-5.327-11.87-11.87-11.87H2.635z"/>
		<path clip-path="url(#SVGID_6_)" fill="none" stroke="#6E7CBB" stroke-width="1.2" d="M2.635,777.113
			c-6.545,0-11.871,5.324-11.871,11.87c0,6.545,5.326,11.864,11.871,11.864h20.909c6.546,0,11.873-5.319,11.873-11.864
			c0-6.546-5.327-11.87-11.87-11.87H2.635z"/>
		<path clip-path="url(#SVGID_6_)" fill-rule="evenodd" clip-rule="evenodd" fill="#6E7CBB" d="M23.548,778.2
			c5.955,0,10.782,4.829,10.782,10.783c0,5.955-4.827,10.786-10.786,10.786H2.635c-5.956,0-10.783-4.831-10.783-10.786
			c0-5.954,4.828-10.783,10.783-10.783H23.548z"/>
		<path clip-path="url(#SVGID_6_)" fill="none" stroke="#FFFFFF" stroke-width="0.6" stroke-miterlimit="3.864" d="M23.548,778.2
			c5.955,0,10.782,4.829,10.782,10.783c0,5.955-4.827,10.786-10.786,10.786H2.635c-5.956,0-10.783-4.831-10.783-10.786
			c0-5.954,4.828-10.783,10.783-10.783H23.548z"/>
		<path clip-path="url(#SVGID_6_)" fill="#FFFFFF" d="M-4.821,788.953c0-4.168,3.232-7.57,7.325-7.848v15.691
			C-1.589,796.522-4.821,793.109-4.821,788.953"/>
		<polygon clip-path="url(#SVGID_6_)" fill-rule="evenodd" clip-rule="evenodd" fill="#FFFFFF" points="10.639,787.928 3.8,781.085 
			10.639,781.085 		"/>
		<polygon clip-path="url(#SVGID_6_)" fill-rule="evenodd" clip-rule="evenodd" fill="#FFFFFF" points="10.639,789.978 3.8,796.816 
			10.639,796.816 		"/>
		<polygon clip-path="url(#SVGID_6_)" fill-rule="evenodd" clip-rule="evenodd" fill="#EB2227" points="19.218,787.928 
			26.055,781.085 19.218,781.085 		"/>
		<polygon clip-path="url(#SVGID_6_)" fill-rule="evenodd" clip-rule="evenodd" fill="#EB2227" points="19.218,789.978 
			26.055,796.816 19.218,796.816 		"/>
		<rect x="12.092" y="781.085" clip-path="url(#SVGID_6_)" fill="#EB2227" width="5.674" height="15.731"/>
		<path clip-path="url(#SVGID_6_)" fill-rule="evenodd" clip-rule="evenodd" fill="#6E7CBB" d="M2.635,777.113
			c-6.545,0-11.871,5.324-11.871,11.87c0,6.545,5.326,11.864,11.871,11.864h20.909c6.546,0,11.873-5.319,11.873-11.864
			c0-6.546-5.327-11.87-11.87-11.87H2.635z"/>
		<path clip-path="url(#SVGID_6_)" fill="none" stroke="#6E7CBB" stroke-width="1.2" d="M2.635,777.113
			c-6.545,0-11.871,5.324-11.871,11.87c0,6.545,5.326,11.864,11.871,11.864h20.909c6.546,0,11.873-5.319,11.873-11.864
			c0-6.546-5.327-11.87-11.87-11.87H2.635z"/>
		<path clip-path="url(#SVGID_6_)" fill-rule="evenodd" clip-rule="evenodd" fill="#6E7CBB" d="M23.548,778.2
			c5.955,0,10.782,4.829,10.782,10.783c0,5.955-4.827,10.786-10.786,10.786H2.635c-5.956,0-10.783-4.831-10.783-10.786
			c0-5.954,4.828-10.783,10.783-10.783H23.548z"/>
		<path clip-path="url(#SVGID_6_)" fill="none" stroke="#FFFFFF" stroke-width="0.6" stroke-miterlimit="3.864" d="M23.548,778.2
			c5.955,0,10.782,4.829,10.782,10.783c0,5.955-4.827,10.786-10.786,10.786H2.635c-5.956,0-10.783-4.831-10.783-10.786
			c0-5.954,4.828-10.783,10.783-10.783H23.548z"/>
		<path clip-path="url(#SVGID_6_)" fill="#FFFFFF" d="M-4.821,788.953c0-4.168,3.232-7.57,7.325-7.848v15.691
			C-1.589,796.522-4.821,793.109-4.821,788.953"/>
		<polygon clip-path="url(#SVGID_6_)" fill-rule="evenodd" clip-rule="evenodd" fill="#FFFFFF" points="10.639,787.928 3.8,781.085 
			10.639,781.085 		"/>
		<polygon clip-path="url(#SVGID_6_)" fill-rule="evenodd" clip-rule="evenodd" fill="#FFFFFF" points="10.639,789.978 3.8,796.816 
			10.639,796.816 		"/>
		<polygon clip-path="url(#SVGID_6_)" fill-rule="evenodd" clip-rule="evenodd" fill="#EB2227" points="19.218,787.928 
			26.055,781.085 19.218,781.085 		"/>
		<polygon clip-path="url(#SVGID_6_)" fill-rule="evenodd" clip-rule="evenodd" fill="#EB2227" points="19.218,789.978 
			26.055,796.816 19.218,796.816 		"/>
		<rect x="12.092" y="781.085" clip-path="url(#SVGID_6_)" fill="#EB2227" width="5.674" height="15.731"/>
		<path clip-path="url(#SVGID_6_)" fill-rule="evenodd" clip-rule="evenodd" fill="#005DA9" d="M2.635,777.113
			c-6.545,0-11.871,5.324-11.871,11.87c0,6.545,5.326,11.864,11.871,11.864h20.909c6.546,0,11.873-5.319,11.873-11.864
			c0-6.546-5.327-11.87-11.87-11.87H2.635z"/>
		<path clip-path="url(#SVGID_6_)" fill="none" stroke="#005DA9" stroke-width="1.2" d="M2.635,777.113
			c-6.545,0-11.871,5.324-11.871,11.87c0,6.545,5.326,11.864,11.871,11.864h20.909c6.546,0,11.873-5.319,11.873-11.864
			c0-6.546-5.327-11.87-11.87-11.87H2.635z"/>
		<path clip-path="url(#SVGID_6_)" fill-rule="evenodd" clip-rule="evenodd" fill="#005DA9" d="M23.548,778.2
			c5.955,0,10.782,4.829,10.782,10.783c0,5.955-4.827,10.786-10.786,10.786H2.635c-5.956,0-10.783-4.831-10.783-10.786
			c0-5.954,4.828-10.783,10.783-10.783H23.548z"/>
		<path clip-path="url(#SVGID_6_)" fill="none" stroke="#FFFFFF" stroke-width="0.6" stroke-miterlimit="3.864" d="M23.548,778.2
			c5.955,0,10.782,4.829,10.782,10.783c0,5.955-4.827,10.786-10.786,10.786H2.635c-5.956,0-10.783-4.831-10.783-10.786
			c0-5.954,4.828-10.783,10.783-10.783H23.548z"/>
		<path clip-path="url(#SVGID_6_)" fill="#FFFFFF" d="M-4.821,788.953c0-4.168,3.232-7.57,7.325-7.848v15.691
			C-1.589,796.522-4.821,793.109-4.821,788.953"/>
		<polygon clip-path="url(#SVGID_6_)" fill-rule="evenodd" clip-rule="evenodd" fill="#FFFFFF" points="10.639,787.928 3.8,781.085 
			10.639,781.085 		"/>
		<polygon clip-path="url(#SVGID_6_)" fill-rule="evenodd" clip-rule="evenodd" fill="#FFFFFF" points="10.639,789.978 3.8,796.816 
			10.639,796.816 		"/>
		<polygon clip-path="url(#SVGID_6_)" fill-rule="evenodd" clip-rule="evenodd" fill="#EB2227" points="19.218,787.928 
			26.055,781.085 19.218,781.085 		"/>
		<polygon clip-path="url(#SVGID_6_)" fill-rule="evenodd" clip-rule="evenodd" fill="#EB2227" points="19.218,789.978 
			26.055,796.816 19.218,796.816 		"/>
		<rect x="12.092" y="781.085" clip-path="url(#SVGID_6_)" fill="#EB2227" width="5.674" height="15.731"/>
		<g opacity="0.5" clip-path="url(#SVGID_6_)">
			<g>
				<defs>
					<rect id="SVGID_49_" x="58.953" y="175.387" width="519.697" height="62.867"/>
				</defs>
				<clipPath id="SVGID_50_">
					<use xlink:href="#SVGID_49_"  overflow="visible"/>
				</clipPath>
				<g clip-path="url(#SVGID_50_)">
					<defs>
						<path id="SVGID_51_" d="M58.953,198.429c0,0-0.507-25.831,236.032-22.792c236.539,3.04,284.806,9.682,283.645,21.273
							c-1.52,15.196-31.941,27.72-77.021,30.76c-63.773,4.299-215.764,19.684-335.806,2.969
							c-48.797-6.794-91.149-22.08-93.681-24.105C69.588,204.508,58.953,198.429,58.953,198.429"/>
					</defs>
					<clipPath id="SVGID_52_">
						<use xlink:href="#SVGID_51_"  overflow="visible"/>
					</clipPath>
					
						<radialGradient id="SVGID_53_" cx="94.375" cy="914.5088" r="1.2587" gradientTransform="matrix(242.2392 0 0 -242.2392 -22540.5059 221816.5781)" gradientUnits="userSpaceOnUse">
						<stop  offset="0" style="stop-color:#887F76"/>
						<stop  offset="1" style="stop-color:#231F20"/>
					</radialGradient>
					<rect x="58.446" y="172.599" clip-path="url(#SVGID_52_)" fill="url(#SVGID_53_)" width="521.345" height="74.755"/>
				</g>
			</g>
		</g>
	</g>
	
		<rect x="-2.388" y="557.034" clip-path="url(#SVGID_2_)" fill="none" stroke="#FFFFFF" stroke-miterlimit="10" stroke-dasharray="3,6" width="209.224" height="209.225"/>
	
		<rect x="418.474" y="606.348" clip-path="url(#SVGID_2_)" fill="none" stroke="#FFFFFF" stroke-miterlimit="10" stroke-dasharray="2.929,5.858" width="219.074" height="219.075"/>
</g>
</svg>
