<?xml version="1.0" encoding="utf-8"?>
<!-- Generator: Adobe Illustrator 23.0.0, SVG Export Plug-In . SVG Version: 6.00 Build 0)  -->
<svg version="1.1" id="Layer_1" xmlns="http://www.w3.org/2000/svg" xmlns:xlink="http://www.w3.org/1999/xlink" x="0px" y="0px"
	 viewBox="0 0 625 1035.881" enable-background="new 0 0 800.453 1035.881" xml:space="preserve">
<path fill="none" stroke="#AFB1AF" d="M444.621,1395.805c-0.444,0.741-1.31,1.771-2.623,3.006"/>
<path fill="none" stroke="#AFB1AF" d="M451.061,1402.338c-0.446,0.744-1.316,1.78-2.636,3.021"/>
  <g id="BODY">
<path d="M643.672,144.989c0,0,3.216,12.863,4.287,18.225c1.073,5.36,2.146,27.868,2.146,33.23c0,5.361,6.43,20.373,7.503,25.731
	c1.071,5.359,0.002,39.665,2.147,46.097c2.142,6.431,44.016,141.843,44.016,141.843s12.683,77.412,13.972,87.545
	c1.158,9.089,14.483,55.843,17.053,90.069c3.214,42.879-2.24,87.758-3.218,120.067c-1.069,35.372-17.152,122.211-17.152,122.211
	s-11.792,7.505-20.368,9.647c-8.576,2.145-96.483,9.651-150.084-2.143c-53.6-11.792-81.469-19.299-85.758-22.515
	c-4.291-3.214-5.36-26.802-5.36-26.802s-18.226-43.95-24.659-61.103c-6.432-17.152-32.158-105.055-32.158-120.063
	s-5.362-28.946-5.362-28.946l-17.15,2.142c0,0-10.719,49.315-19.295,77.186c-8.576,27.873-48.241,126.496-48.241,126.496
	s-1.073,16.081-2.145,20.37c-1.073,4.289-5.358,10.723-5.358,10.723s-2.145,19.291-7.505,20.364
	c-5.36,1.075-11.794,2.147-11.794,2.147s-81.471,22.513-142.576,20.368c-61.107-2.142-83.617-12.863-83.617-12.863
	s-6.434-6.434-6.434-12.863c0-6.434,1.071-22.515,1.071-22.515s-5.356-63.247-9.646-77.184
	c-4.291-13.939-12.865-120.069-6.434-154.374c6.434-34.303,20.374-130.785,25.73-145.793
	c5.358-15.009,35.376-108.274,35.376-116.851c0-8.576,4.287-35.375,5.36-41.808c1.069-6.432,4.285-23.585,4.285-33.233
	c0-9.647,6.434-20.368,6.434-26.801c0-6.432,4.289-9.648,4.289-13.936c0-4.288,2.142-25.728,2.142-30.017c0-4.29,0-28.944,0-28.944
	s56.816-8.578,92.194-8.578s336.612-7.503,371.99-2.142C614.73,135.336,643.672,144.989,643.672,144.989z"/>
    </g>
<g id="DETAILS_2_">
	
		<linearGradient id="SVGID_1_B" gradientUnits="userSpaceOnUse" x1="353.4621" y1="129.464" x2="353.4621" y2="841.7988" gradientTransform="matrix(-1 0 0 1 986.2636 0)">
		<stop  offset="0" style="stop-color:#897F76"/>
		<stop  offset="0.1015" style="stop-color:#81776F"/>
		<stop  offset="0.2527" style="stop-color:#6E645D"/>
		<stop  offset="0.435" style="stop-color:#524944"/>
		<stop  offset="0.6415" style="stop-color:#2F2925"/>
		<stop  offset="0.8654" style="stop-color:#000000"/>
		<stop  offset="1" style="stop-color:#000000"/>
	</linearGradient>
	<path opacity="0.3" fill="url(#SVGID_1_B)" d="M532.183,194.301c0,0-4.287,51.456,2.145,56.816
		c6.436,5.36,60.034,28.945,64.323,41.809c4.289,12.864-3.216,39.666-4.289,45.026c-1.071,5.359,38.59,36.447,33.232,42.88
		c-5.36,6.433,32.162,30.016,22.513,41.809c-9.645,11.791,5.36,69.685,12.865,90.051c7.505,20.366,21.438,40.734,13.937,62.174
		c-7.505,21.441,5.356,76.11,0,103.986c-5.362,27.873-4.289,48.241-16.083,66.465c-11.79,18.224-23.586,48.241-21.439,54.673
		c2.145,6.432,6.434,15.008,9.649,22.511c3.218,7.505,12.863,19.299,12.863,19.299s25.729,0.002,32.16-2.145
		c6.434-2.145,20.368-9.647,20.368-9.647s18.228-107.208,19.295-142.58c1.075-35.374,5.362-106.128-3.214-135.073
		c-8.576-28.946-15.006-68.612-19.293-97.556c-4.287-28.943-8.576-52.529-11.794-62.176c-3.216-9.649-39.665-124.351-39.665-124.351
		s-2.018-24.437-2.018-28.726c0-4.289,2.113-11.244-0.129-17.371c-3.57-9.755-8.572-30.021-8.572-39.669
		c0-9.647-5.364-37.517-5.364-37.517s-51.582-15.525-75.554-15.525c-23.913,0-38.259,0-38.259,0L532.183,194.301z"/>
	<linearGradient id="SVGID_2_" gradientUnits="userSpaceOnUse" x1="245.6074" y1="246.5001" x2="245.6074" y2="974.9388">
		<stop  offset="0" style="stop-color:#897F76"/>
		<stop  offset="0.1015" style="stop-color:#81776F"/>
		<stop  offset="0.2527" style="stop-color:#6E645D"/>
		<stop  offset="0.435" style="stop-color:#524944"/>
		<stop  offset="0.6415" style="stop-color:#2F2925"/>
		<stop  offset="0.8654" style="stop-color:#000000"/>
		<stop  offset="1" style="stop-color:#000000"/>
	</linearGradient>
	<path opacity="0.3" fill="url(#SVGID_2_)" d="M425.843,129.464c0,0-20.877,117.89-14.713,138.851
		c6.166,20.962,51.788,51.787-4.933,88.779c-56.717,36.992-20.96,44.39-14.796,67.818c6.164,23.427-16.028,75.214-46.853,73.98
		c-30.828-1.232-78.915-25.891-103.576-11.095c-24.661,14.796-46.855-43.158-62.885,17.261s4.933,78.915-16.03,110.974
		c-20.962,32.059-39.457,55.487-32.059,67.816c7.398,12.333,30.826,51.79,35.758,75.217c4.933,23.428,7.4,44.388,7.4,44.388
		s20.96,12.331,24.659,19.731c3.699,7.396,14.796,28.358,14.796,28.358s-63.101,12.188-120.924,2.824
		c-31.325-5.073-34.784-8.081-34.784-8.081s37.336-30.501,22.54-93.386c-14.796-62.885-3.697-50.556-7.398-110.974
		c-3.699-60.42-11.097-107.275,17.261-162.758c28.362-55.489,55.487-133.171,54.255-156.597
		c-1.234-23.429-27.129-51.787,13.564-75.216c40.689-23.427,35.756-46.853,32.057-50.553c-3.699-3.7-21.586-61.956-21.586-61.956
		s54.087-2.423,123.144-2.989C363.673,131.258,425.843,129.464,425.843,129.464z"/>
	<path opacity="0.5" fill="none" stroke="#897F76" stroke-width="1.1811" stroke-miterlimit="10" stroke-dasharray="2.89,1.445" d="
		M452.855,788.195c0,0,104.493,28.701,163.938,27.97c92.956-1.143,101.243-8.416,101.243-8.416"/>
	<path opacity="0.5" fill="none" stroke="#897F76" stroke-width="1.1811" stroke-miterlimit="10" stroke-dasharray="2.89,1.445" d="
		M298.486,815.001c0,0-51.618,14.499-181.148,14.879c-74.511,0.22-70.101-10.285-70.101-10.285"/>
	<path opacity="0.5" fill="none" stroke="#897F76" stroke-width="1.1811" stroke-miterlimit="10" stroke-dasharray="2.89,1.445" d="
		M305.988,798.312c0,0-79.693,18.925-166.936,18.542c-87.239-0.378-93.336-7.998-93.336-7.998"/>
	<path opacity="0.5" fill="none" stroke="#897F76" stroke-width="1.1811" stroke-miterlimit="10" stroke-dasharray="2.89,1.445" d="
		M723.464,785.448c0,0-10.669,17.145-109.34,13.335c-98.673-3.808-174.484-28.574-174.484-28.574"/>
	<path opacity="0.5" fill="none" stroke="#897F76" stroke-width="1.1811" stroke-miterlimit="10" stroke-dasharray="2.89,1.445" d="
		M651.038,207.019c0,0-174.035-20.625-310.599-18.149c-136.564,2.475-223.167,23.1-223.167,23.1"/>
	<path opacity="0.5" fill="none" stroke="#897F76" stroke-width="1.1811" stroke-miterlimit="10" stroke-dasharray="2.89,1.445" d="
		M650.625,187.219c0,0-174.039-20.625-310.601-18.15c-136.564,2.476-223.167,23.101-223.167,23.101"/>
</g>
  <g id="LEG_RIGHT">
<rect x="483.361" y="545.587" fill="none" stroke="#FFFFFF" stroke-miterlimit="10" stroke-dasharray="2.9288,5.8576" width="224.321" height="224.321"/>
</g>
  <g id="LEG_LEFT">
    <rect x="65.835" y="545.587" fill="none" stroke="#FFFFFF" stroke-miterlimit="10" stroke-dasharray="2.9288,5.8576" width="224.321" height="224.321"/>
</g>
  <g id="CUSTOM"></g>
    </svg>
